<?xml version="1.0" encoding="UTF-8" standalone="no"?>
<!-- Created with Inkscape (http://www.inkscape.org/) -->

<svg
   xmlns:dc="http://purl.org/dc/elements/1.1/"
   xmlns:cc="http://creativecommons.org/ns#"
   xmlns:rdf="http://www.w3.org/1999/02/22-rdf-syntax-ns#"
   xmlns:svg="http://www.w3.org/2000/svg"
   xmlns="http://www.w3.org/2000/svg"
   xmlns:sodipodi="http://sodipodi.sourceforge.net/DTD/sodipodi-0.dtd"
   xmlns:inkscape="http://www.inkscape.org/namespaces/inkscape"
   width="288.45078"
   height="47.062988"
   id="svg13945"
   sodipodi:version="0.32"
   inkscape:version="0.47pre1 r21720"
   version="1.0"
   sodipodi:docname="stuuf_fork_and_spoon.svg"
   inkscape:output_extension="org.inkscape.output.svg.inkscape">
  <defs
     id="defs13947">
    <inkscape:perspective
       sodipodi:type="inkscape:persp3d"
       inkscape:vp_x="0 : 62.007874 : 1"
       inkscape:vp_y="0 : 1000 : 0"
       inkscape:vp_z="318.89764 : 62.007874 : 1"
       inkscape:persp3d-origin="159.44882 : 41.338582 : 1"
       id="perspective9" />
  </defs>
  <sodipodi:namedview
     id="base"
     pagecolor="#ffffff"
     bordercolor="#666666"
     borderopacity="1.0"
     gridtolerance="10000"
     guidetolerance="10"
     objecttolerance="10"
     inkscape:pageopacity="0.0"
     inkscape:pageshadow="2"
     inkscape:zoom="2"
     inkscape:cx="149.40629"
     inkscape:cy="-2.7933821"
     inkscape:document-units="px"
     inkscape:current-layer="layer1"
     width="9cm"
     height="3.5cm"
     showgrid="true"
     grid_units="mm"
     inkscape:grid-points="true"
     inkscape:window-width="1440"
     inkscape:window-height="826"
     inkscape:window-x="0"
     inkscape:window-y="25"
     inkscape:window-maximized="1">
    <inkscape:grid
       id="GridFromPre046Settings"
       type="xygrid"
       originx="0px"
       originy="0px"
       spacingx="0.5mm"
       spacingy="0.5mm"
       color="#0000ff"
       empcolor="#0000ff"
       opacity="0.2"
       empopacity="0.4"
       empspacing="5"
       units="mm"
       visible="true"
       enabled="true"
       snapvisiblegridlinesonly="true" />
  </sodipodi:namedview>
  <metadata
     id="metadata13950">
    <rdf:RDF>
      <cc:Work
         rdf:about="">
        <dc:format>image/svg+xml</dc:format>
        <dc:type
           rdf:resource="http://purl.org/dc/dcmitype/StillImage" />
      </cc:Work>
    </rdf:RDF>
  </metadata>
  <g
     inkscape:label="Layer 1"
     inkscape:groupmode="layer"
     id="layer1"
     transform="translate(-19.088587,-173.94754)">
    <path
       style="fill:#c0c0c0;fill-opacity:1;fill-rule:evenodd;stroke:#000000;stroke-width:1px;stroke-linecap:butt;stroke-linejoin:miter;stroke-opacity:1"
       d="m 30.218508,206.3373 c -14.173228,0 -14.173228,-17.71653 0,-17.71653 l 162.992122,3.5433 c 10.62992,0 10.62992,-17.71653 24.80315,-17.71653 l 85.03937,1.77165 c 5.31496,0 5.31496,5.31496 0,5.31496 l -70.86614,0 c -7.08662,0 -7.08662,7.08662 0,7.08662 l 70.86614,0 c 5.31496,0 5.31496,5.31496 0,5.31495 l -76.1811,1e-5 c -7.08662,0 -7.08662,7.08661 0,7.08661 l 76.1811,0 c 5.31496,0 5.31496,5.31497 0,5.31496 l -70.86614,0 c -7.08662,0 -7.08662,7.08662 0,7.08662 l 70.86614,0 c 5.31496,0 5.31496,5.31496 0,5.31495 l -85.03937,1.77166 c -14.17323,0 -14.17323,-17.71654 -24.80315,-17.71654 L 30.218508,206.3373 z"
       id="path13953"
       sodipodi:nodetypes="ccccccccccccccccccccc"
       inkscape:label="fork" />
  </g>
</svg>
