<?xml version="1.0" encoding="UTF-8" standalone="no"?>
<!-- Created with Inkscape (http://www.inkscape.org/) -->

<svg
   xmlns:dc="http://purl.org/dc/elements/1.1/"
   xmlns:cc="http://creativecommons.org/ns#"
   xmlns:rdf="http://www.w3.org/1999/02/22-rdf-syntax-ns#"
   xmlns:svg="http://www.w3.org/2000/svg"
   xmlns="http://www.w3.org/2000/svg"
   xmlns:sodipodi="http://sodipodi.sourceforge.net/DTD/sodipodi-0.dtd"
   xmlns:inkscape="http://www.inkscape.org/namespaces/inkscape"
   id="svg2"
   sodipodi:version="0.32"
   inkscape:version="0.47pre1 r21720"
   width="246.46239"
   height="127.55141"
   version="1.0"
   sodipodi:docname="schoolfreeware_School_Bus.svg"
   inkscape:output_extension="org.inkscape.output.svg.inkscape"
   inkscape:export-filename="/Users/schoolfreeware/Desktop/S4m_Pics/SchoolBus.png"
   inkscape:export-xdpi="90"
   inkscape:export-ydpi="90">
  <metadata
     id="metadata7">
    <rdf:RDF>
      <cc:Work
         rdf:about="">
        <dc:format>image/svg+xml</dc:format>
        <dc:type
           rdf:resource="http://purl.org/dc/dcmitype/StillImage" />
      </cc:Work>
    </rdf:RDF>
  </metadata>
  <defs
     id="defs5">
    <inkscape:perspective
       sodipodi:type="inkscape:persp3d"
       inkscape:vp_x="0 : 526.18109 : 1"
       inkscape:vp_y="0 : 1000 : 0"
       inkscape:vp_z="744.09448 : 526.18109 : 1"
       inkscape:persp3d-origin="372.04724 : 350.78739 : 1"
       id="perspective9" />
  </defs>
  <sodipodi:namedview
     inkscape:window-height="822"
     inkscape:window-width="1339"
     inkscape:pageshadow="2"
     inkscape:pageopacity="0.0"
     guidetolerance="10.0"
     gridtolerance="10.0"
     objecttolerance="10.0"
     borderopacity="1.0"
     bordercolor="#666666"
     pagecolor="#ffffff"
     id="base"
     showgrid="false"
     inkscape:zoom="2.9996796"
     inkscape:cx="168.32929"
     inkscape:cy="65.270413"
     inkscape:window-x="95"
     inkscape:window-y="27"
     inkscape:current-layer="svg2"
     showguides="true"
     inkscape:guide-bbox="true"
     inkscape:window-maximized="0" />
  <g
     id="g2834">
    <path
       sodipodi:nodetypes="cscccc"
       id="path3264"
       d="M 42.912339,29.805623 C 43.177554,30.285453 17.993816,56.678443 17.732781,62.054613 C 17.138333,74.297403 47.204029,35.169993 46.205448,33.965713 L 44.558856,30.221623 L 44.558856,30.221623 L 42.912339,29.805623 z"
       style="fill: rgb(236, 236, 236); fill-rule: evenodd; stroke: rgb(0, 0, 0); stroke-width: 0.155165px; stroke-linecap: butt; stroke-linejoin: miter; stroke-opacity: 1;" />
    <path
       sodipodi:nodetypes="cccsssccsccscsccsc"
       id="path3260"
       d="M 50.041591,109.96104 L 149.81712,110.4258 C 150.08732,104.477 150.43666,102.23135 152.0672,98.658063 C 154.63618,93.438043 158.12285,91.817293 160.68793,90.422713 C 166.49363,87.266263 174.41464,88.793793 177.02802,89.882233 C 180.2845,91.238523 184.79228,95.515183 186.54125,100.29789 C 188.03196,104.37437 188.1079,108.30807 188.13238,110.46925 L 244.24089,110.11675 C 244.24089,110.11675 250.22055,15.266929 238.96474,5.1368635 C 227.70893,-4.9932005 38.11905,5.1368635 38.11905,5.1368635 L 36.360288,27.158751 C 36.360288,27.158751 43.395192,26.277868 43.395192,30.682243 C 43.395192,35.086623 26.511452,55.346773 26.511452,55.346773 C 26.511452,55.346773 2.9446039,65.917263 1.5376375,74.285583 C 0.1306721,82.653903 1.1859149,92.783973 1.1859149,92.783973 L 13.9406,94.570044 C 13.9406,94.570044 23.0255,87.08563 33.176205,88.05839 C 43.358411,89.03417 49.246227,99.925874 50.041591,109.96104 z"
       style="fill: rgb(255, 255, 0); fill-rule: evenodd; stroke: rgb(0, 0, 0); stroke-width: 1.26923; stroke-linecap: butt; stroke-linejoin: miter; stroke-miterlimit: 4; stroke-dasharray: none; stroke-opacity: 1;" />
    <path
       sodipodi:nodetypes="cccccc"
       id="path3280"
       d="M 0.4907579,93.25198 L 0.4907579,112.272 L 11.383085,112.272 C 11.383085,112.272 10.211014,100.59966 15.896824,94.132639 L 17.52768,91.679603 L 0.4907579,93.25198 z"
       style="fill: rgb(0, 0, 0); fill-rule: evenodd; stroke: rgb(0, 0, 0); stroke-width: 0.166292px; stroke-linecap: butt; stroke-linejoin: miter; stroke-opacity: 1;" />
    <path
       transform="matrix(0.0950379, 0, 0, -0.112398, -2.09426, 204.302)"
       d="M 480.88399,852.67401 A 142.37938,128.23572 0 1 1 196.12523,852.67401 A 142.37938,128.23572 0 1 1 480.88399,852.67401 z"
       sodipodi:ry="128.23572"
       sodipodi:rx="142.37938"
       sodipodi:cy="852.67401"
       sodipodi:cx="338.50461"
       id="path2384"
       style="opacity: 1; fill: rgb(51, 51, 51); fill-opacity: 1; stroke: rgb(0, 0, 0); stroke-width: 79.4756; stroke-miterlimit: 4; stroke-dasharray: none; stroke-opacity: 1;"
       sodipodi:type="arc" />
    <path
       transform="matrix(0.0967436, 0, 0, -0.113513, 136.367, 205.32)"
       d="M 480.88399,852.67401 A 142.37938,128.23572 0 1 1 196.12523,852.67401 A 142.37938,128.23572 0 1 1 480.88399,852.67401 z"
       sodipodi:ry="128.23572"
       sodipodi:rx="142.37938"
       sodipodi:cy="852.67401"
       sodipodi:cx="338.50461"
       id="path3254"
       style="opacity: 1; fill: rgb(51, 51, 51); fill-opacity: 1; stroke: rgb(0, 0, 0); stroke-width: 79.4756; stroke-miterlimit: 4; stroke-dasharray: none; stroke-opacity: 1;"
       sodipodi:type="arc" />
    <path
       id="path3266"
       d="M 37.165831,25.25225 C 244.5037,23.509209 244.14253,22.899123 244.14253,22.899123"
       style="fill: none; fill-rule: evenodd; stroke: rgb(0, 0, 0); stroke-width: 1.46825; stroke-linecap: butt; stroke-linejoin: miter; stroke-miterlimit: 4; stroke-dasharray: none; stroke-opacity: 1;" />
    <rect
       y="34.20573"
       x="81.031693"
       height="29.949766"
       width="24.622066"
       id="rect3268"
       style="opacity: 1; fill: rgb(236, 236, 236); fill-opacity: 1; stroke: rgb(0, 0, 0); stroke-width: 1.23971; stroke-miterlimit: 4; stroke-dasharray: none; stroke-opacity: 1;" />
    <rect
       y="33.875439"
       x="113.74378"
       height="29.949766"
       width="24.622066"
       id="rect3272"
       style="opacity: 1; fill: rgb(236, 236, 236); fill-opacity: 1; stroke: rgb(0, 0, 0); stroke-width: 1.23971; stroke-miterlimit: 4; stroke-dasharray: none; stroke-opacity: 1;" />
    <rect
       y="33.545139"
       x="146.45604"
       height="29.949766"
       width="24.622066"
       id="rect3274"
       style="opacity: 1; fill: rgb(236, 236, 236); fill-opacity: 1; stroke: rgb(0, 0, 0); stroke-width: 1.23971; stroke-miterlimit: 4; stroke-dasharray: none; stroke-opacity: 1;" />
    <rect
       y="33.21487"
       x="179.16814"
       height="29.949766"
       width="24.622066"
       id="rect3276"
       style="opacity: 1; fill: rgb(236, 236, 236); fill-opacity: 1; stroke: rgb(0, 0, 0); stroke-width: 1.23971; stroke-miterlimit: 4; stroke-dasharray: none; stroke-opacity: 1;" />
    <rect
       y="32.774426"
       x="211.17685"
       height="29.949766"
       width="24.622066"
       id="rect3278"
       style="opacity: 1; fill: rgb(236, 236, 236); fill-opacity: 1; stroke: rgb(0, 0, 0); stroke-width: 1.23971; stroke-miterlimit: 4; stroke-dasharray: none; stroke-opacity: 1;" />
    <path
       id="path3282"
       d="M 1.889433,92.343523 L 1.889433,92.343523 z"
       style="fill: none; fill-rule: evenodd; stroke: rgb(0, 0, 0); stroke-width: 0.147584px; stroke-linecap: butt; stroke-linejoin: miter; stroke-opacity: 1;" />
    <path
       id="path3284"
       d="M 0.9810667,82.232853 C 245.57896,79.594173 245.15292,78.670573 245.15292,78.670573"
       style="fill: none; fill-rule: evenodd; stroke: rgb(0, 0, 0); stroke-width: 1.96213; stroke-linecap: butt; stroke-linejoin: miter; stroke-miterlimit: 4; stroke-dasharray: none; stroke-opacity: 1;" />
    <rect
       y="64.985466"
       x="77.121864"
       height="7.1488905"
       width="1.4883446"
       id="rect3369"
       style="opacity: 1; fill: rgb(26, 26, 26); fill-opacity: 1; stroke: rgb(0, 0, 0); stroke-width: 1.14866; stroke-miterlimit: 4; stroke-dasharray: none; stroke-opacity: 1;" />
    <rect
       y="65.476845"
       x="242.48216"
       height="10.570507"
       width="2.8139505"
       id="rect3371"
       style="opacity: 1; fill: rgb(255, 0, 0); fill-opacity: 1; stroke: rgb(0, 0, 0); stroke-width: 0pt; stroke-miterlimit: 4; stroke-dasharray: none; stroke-opacity: 1;" />
    <path
       sodipodi:nodetypes="cscccc"
       id="path3377"
       d="M 74.642147,34.718793 C 74.642147,34.718793 75.952578,64.541403 74.260651,64.541403 C 69.401326,64.541403 32.233897,64.963793 32.233897,64.963793 C 32.233897,64.963793 28.258103,63.112053 31.792135,58.791343 C 35.326168,53.236123 48.137007,35.336033 48.137007,35.336033 L 74.642147,34.718793 z"
       style="fill: rgb(230, 230, 230); fill-rule: evenodd; stroke: rgb(0, 0, 0); stroke-width: 1.32529; stroke-linecap: butt; stroke-linejoin: miter; stroke-miterlimit: 4; stroke-dasharray: none; stroke-opacity: 1;" />
    <path
       transform="matrix(2.49324, 0.183729, -0.0812277, 1.10227, 214.835, -58.3209)"
       d="M -68.674001,77.648262 A 0.33336893,6.3340096 0 1 1 -69.340739,77.648262 A 0.33336893,6.3340096 0 1 1 -68.674001,77.648262 z"
       sodipodi:ry="6.3340096"
       sodipodi:rx="0.33336893"
       sodipodi:cy="77.648262"
       sodipodi:cx="-69.00737"
       id="path2404"
       style="opacity: 1; fill: rgb(128, 0, 0); fill-opacity: 1; stroke: rgb(46, 106, 0); stroke-width: 0pt; stroke-linejoin: round; stroke-miterlimit: 4; stroke-dasharray: none; stroke-opacity: 1;"
       sodipodi:type="arc" />
  </g>
</svg>
