<?xml version="1.0" encoding="UTF-8" standalone="no"?>
<!-- Created with Inkscape (http://www.inkscape.org/) -->

<svg
   xmlns:dc="http://purl.org/dc/elements/1.1/"
   xmlns:cc="http://creativecommons.org/ns#"
   xmlns:rdf="http://www.w3.org/1999/02/22-rdf-syntax-ns#"
   xmlns:svg="http://www.w3.org/2000/svg"
   xmlns="http://www.w3.org/2000/svg"
   xmlns:xlink="http://www.w3.org/1999/xlink"
   xmlns:sodipodi="http://sodipodi.sourceforge.net/DTD/sodipodi-0.dtd"
   xmlns:inkscape="http://www.inkscape.org/namespaces/inkscape"
   height="578.73291"
   id="svg2"
   version="1.0"
   width="974.40808"
   x="0.00000000"
   y="0.00000000"
   sodipodi:version="0.32"
   inkscape:version="0.47pre1 r21720"
   sodipodi:docname="Anonymous_Truck_2.svg"
   inkscape:output_extension="org.inkscape.output.svg.inkscape"
   inkscape:export-filename="/home/joanna/gfx/vector/Jarno Vasamaa/truck_jarno_vasamaa1.png"
   inkscape:export-xdpi="29.55117"
   inkscape:export-ydpi="29.55117">
  <sodipodi:namedview
     inkscape:window-height="826"
     inkscape:window-width="1440"
     inkscape:pageshadow="2"
     inkscape:pageopacity="0.0"
     guidetolerance="10.0"
     gridtolerance="10.0"
     objecttolerance="10.0"
     borderopacity="1.0"
     bordercolor="#666666"
     pagecolor="#ffffff"
     id="base"
     showgrid="false"
     inkscape:zoom="0.51313132"
     inkscape:cx="522.96286"
     inkscape:cy="341.41443"
     inkscape:window-x="0"
     inkscape:window-y="25"
     inkscape:current-layer="svg2"
     inkscape:window-maximized="1" />
  <metadata
     id="metadata3">
    <rdf:RDF>
      <cc:Work
         rdf:about="">
        <dc:title>Truck2</dc:title>
        <dc:description>truck</dc:description>
        <dc:subject>
          <rdf:Bag>
            <rdf:li>transport</rdf:li>
          </rdf:Bag>
        </dc:subject>
        <dc:publisher>
          <cc:Agent
             rdf:about="http://www.openclipart.org/">
            <dc:title>Open Clip Art Library</dc:title>
          </cc:Agent>
        </dc:publisher>
        <dc:creator>
          <cc:Agent>
            <dc:title>Jarno Vasamaa</dc:title>
          </cc:Agent>
        </dc:creator>
        <dc:rights>
          <cc:Agent>
            <dc:title>Jarno Vasamaa</dc:title>
          </cc:Agent>
        </dc:rights>
        <dc:date />
        <dc:format>image/svg+xml</dc:format>
        <dc:type
           rdf:resource="http://purl.org/dc/dcmitype/StillImage" />
        <cc:license
           rdf:resource="http://web.resource.org/cc/PublicDomain" />
        <dc:language>en</dc:language>
      </cc:Work>
      <cc:License
         rdf:about="http://web.resource.org/cc/PublicDomain">
        <cc:permits
           rdf:resource="http://web.resource.org/cc/Reproduction" />
        <cc:permits
           rdf:resource="http://web.resource.org/cc/Distribution" />
        <cc:permits
           rdf:resource="http://web.resource.org/cc/DerivativeWorks" />
      </cc:License>
    </rdf:RDF>
  </metadata>
  <defs
     id="defs3">
    <inkscape:perspective
       sodipodi:type="inkscape:persp3d"
       inkscape:vp_x="0 : 372.04724 : 1"
       inkscape:vp_y="0 : 1000 : 0"
       inkscape:vp_z="1052.3622 : 372.04724 : 1"
       inkscape:persp3d-origin="526.18109 : 248.03149 : 1"
       id="perspective91" />
    <linearGradient
       id="linearGradient2899">
      <stop
         id="stop2901"
         offset="0.00000000"
         style="stop-color: rgb(0, 0, 0); stop-opacity: 1;" />
      <stop
         id="stop2903"
         offset="1.0000000"
         style="stop-color: rgb(135, 135, 135); stop-opacity: 1;" />
    </linearGradient>
    <linearGradient
       id="linearGradient2854">
      <stop
         id="stop2856"
         offset="0.00000000"
         style="stop-color: rgb(255, 255, 217); stop-opacity: 0.816327;" />
      <stop
         id="stop2866"
         offset="0.50000000"
         style="stop-color: rgb(255, 255, 217); stop-opacity: 1;" />
      <stop
         id="stop2858"
         offset="1.0000000"
         style="stop-color: rgb(255, 255, 217); stop-opacity: 1;" />
    </linearGradient>
    <linearGradient
       id="linearGradient2814">
      <stop
         id="stop2816"
         offset="0.00000000"
         style="stop-color: rgb(78, 78, 78); stop-opacity: 1;" />
      <stop
         id="stop2818"
         offset="1.0000000"
         style="stop-color: rgb(208, 208, 214); stop-opacity: 1;" />
    </linearGradient>
    <linearGradient
       id="linearGradient2806">
      <stop
         id="stop2808"
         offset="0.00000000"
         style="stop-color: rgb(0, 0, 0); stop-opacity: 1;" />
      <stop
         id="stop2810"
         offset="1.0000000"
         style="stop-color: rgb(0, 0, 0); stop-opacity: 0;" />
    </linearGradient>
    <linearGradient
       id="linearGradient2790">
      <stop
         id="stop2792"
         offset="0.00000000"
         style="stop-color: rgb(0, 0, 0); stop-opacity: 0.928571;" />
      <stop
         id="stop2794"
         offset="1.0000000"
         style="stop-color: rgb(0, 0, 0); stop-opacity: 0;" />
    </linearGradient>
    <linearGradient
       id="linearGradient2778">
      <stop
         id="stop2780"
         offset="0.00000000"
         style="stop-color: rgb(0, 0, 0); stop-opacity: 1;" />
      <stop
         id="stop2782"
         offset="1.0000000"
         style="stop-color: rgb(0, 0, 0); stop-opacity: 0;" />
    </linearGradient>
    <linearGradient
       id="linearGradient2760">
      <stop
         id="stop2762"
         offset="0.00000000"
         style="stop-color: rgb(0, 0, 0); stop-opacity: 1;" />
      <stop
         id="stop2764"
         offset="1.0000000"
         style="stop-color: rgb(0, 0, 0); stop-opacity: 0;" />
    </linearGradient>
    <linearGradient
       id="linearGradient2678">
      <stop
         id="stop2680"
         offset="0.00000000"
         style="stop-color: rgb(44, 47, 104); stop-opacity: 1;" />
      <stop
         id="stop2682"
         offset="1.0000000"
         style="stop-color: rgb(161, 182, 195); stop-opacity: 1;" />
    </linearGradient>
    <linearGradient
       id="linearGradient2620">
      <stop
         id="stop2622"
         offset="0.00000000"
         style="stop-color: rgb(0, 0, 0); stop-opacity: 1;" />
      <stop
         id="stop2624"
         offset="1.0000000"
         style="stop-color: rgb(208, 208, 214); stop-opacity: 1;" />
    </linearGradient>
    <linearGradient
       gradientTransform="matrix(1.21144,0,0,0.996028,-27.3995,-51.5968)"
       gradientUnits="userSpaceOnUse"
       id="linearGradient2626"
       x1="59.132782"
       x2="422.16577"
       xlink:href="#linearGradient2814"
       y1="459.34183"
       y2="265.60794" />
    <linearGradient
       gradientTransform="matrix(1.90556,0.0604536,-0.0200683,0.632574,-4.85901,-85.9377)"
       gradientUnits="userSpaceOnUse"
       id="linearGradient2660"
       x1="446.04352"
       x2="421.28766"
       xlink:href="#linearGradient2620"
       y1="1057.575"
       y2="629.1441" />
    <linearGradient
       gradientTransform="matrix(1.1733,0,0,1.0284,-27.3995,-51.5968)"
       gradientUnits="userSpaceOnUse"
       id="linearGradient2672"
       x1="486.68692"
       x2="510.90454"
       xlink:href="#linearGradient2620"
       y1="223.96628"
       y2="48.31966" />
    <linearGradient
       gradientTransform="matrix(1.78738,0,0,0.675079,-27.3995,-51.5968)"
       gradientUnits="userSpaceOnUse"
       id="linearGradient2684"
       x1="313.45422"
       x2="463.37918"
       xlink:href="#linearGradient2678"
       y1="375.53784"
       y2="371.45239" />
    <linearGradient
       gradientTransform="matrix(1.5012,0,0,0.803774,-27.3995,-51.5968)"
       gradientUnits="userSpaceOnUse"
       id="linearGradient2744"
       x1="152.00314"
       x2="301.43509"
       xlink:href="#linearGradient2620"
       y1="688.14191"
       y2="671.0459" />
    <linearGradient
       gradientTransform="matrix(1.68168,0,0,0.71751,-27.3995,-51.5968)"
       gradientUnits="userSpaceOnUse"
       id="linearGradient2754"
       x1="25.048035"
       x2="259.21442"
       xlink:href="#linearGradient2620"
       y1="765.10071"
       y2="584.1767" />
    <linearGradient
       gradientTransform="matrix(1.49687,0,0,0.806098,-27.3995,-51.5968)"
       gradientUnits="userSpaceOnUse"
       id="linearGradient2766"
       x1="254.87279"
       x2="183.88664"
       xlink:href="#linearGradient2760"
       y1="606.6651"
       y2="621.12976" />
    <radialGradient
       cx="212.10933"
       cy="1406.7062"
       fx="211.01282"
       fy="1400.2185"
       gradientTransform="scale(2.44793,0.408508)"
       gradientUnits="userSpaceOnUse"
       id="radialGradient2786"
       r="263.16907"
       xlink:href="#linearGradient2778" />
    <linearGradient
       gradientTransform="matrix(2.79508,0,0,0.431695,-27.3995,-51.5968)"
       gradientUnits="userSpaceOnUse"
       id="linearGradient2812"
       x1="180.10124"
       x2="302.61618"
       xlink:href="#linearGradient2806"
       y1="1447.2629"
       y2="1838.8132" />
    <linearGradient
       gradientTransform="matrix(1.38084,0,0,0.873835,-27.3995,-51.5968)"
       gradientUnits="userSpaceOnUse"
       id="linearGradient2864"
       x1="526.63208"
       x2="598.33679"
       xlink:href="#linearGradient2854"
       y1="612.36444"
       y2="612.36444" />
    <linearGradient
       gradientTransform="scale(0.843909,1.18496)"
       gradientUnits="userSpaceOnUse"
       id="linearGradient2882"
       x1="574.99445"
       x2="684.9411"
       xlink:href="#linearGradient2620"
       y1="223.39366"
       y2="219.89258" />
    <linearGradient
       gradientTransform="scale(1.39341,0.717662)"
       gradientUnits="userSpaceOnUse"
       id="linearGradient2890"
       x1="345.86697"
       x2="408.83414"
       xlink:href="#linearGradient2620"
       y1="286.60077"
       y2="290.23572" />
    <linearGradient
       gradientTransform="matrix(0.927004,0,0,1.30164,-27.3995,-51.5968)"
       gradientUnits="userSpaceOnUse"
       id="linearGradient2893"
       x1="692.27753"
       x2="392.86661"
       xlink:href="#linearGradient2899"
       y1="201.78284"
       y2="206.49315" />
    <linearGradient
       inkscape:collect="always"
       xlink:href="#linearGradient2899"
       id="linearGradient2898"
       gradientUnits="userSpaceOnUse"
       gradientTransform="matrix(0.927004,0,0,1.30164,-67.8681,-124.7832)"
       x1="692.27753"
       y1="201.78284"
       x2="392.86661"
       y2="206.49315" />
    <linearGradient
       inkscape:collect="always"
       xlink:href="#linearGradient2620"
       id="linearGradient2915"
       gradientUnits="userSpaceOnUse"
       gradientTransform="matrix(1.5012,0,0,0.803774,-67.8681,-124.7832)"
       x1="152.00314"
       y1="688.14191"
       x2="301.43509"
       y2="671.0459" />
    <linearGradient
       inkscape:collect="always"
       xlink:href="#linearGradient2620"
       id="linearGradient2921"
       gradientUnits="userSpaceOnUse"
       gradientTransform="matrix(1.90556,0.0604536,-0.0200683,0.632574,-45.32761,-159.1241)"
       x1="446.04352"
       y1="1057.575"
       x2="421.28766"
       y2="629.1441" />
    <linearGradient
       inkscape:collect="always"
       xlink:href="#linearGradient2620"
       id="linearGradient2931"
       gradientUnits="userSpaceOnUse"
       gradientTransform="matrix(1.1733,0,0,1.0284,-67.8681,-124.7832)"
       x1="486.68692"
       y1="223.96628"
       x2="510.90454"
       y2="48.31966" />
    <linearGradient
       inkscape:collect="always"
       xlink:href="#linearGradient2814"
       id="linearGradient2935"
       gradientUnits="userSpaceOnUse"
       gradientTransform="matrix(1.21144,0,0,0.996028,-67.8681,-124.7832)"
       x1="59.132782"
       y1="459.34183"
       x2="422.16577"
       y2="265.60794" />
    <linearGradient
       inkscape:collect="always"
       xlink:href="#linearGradient2854"
       id="linearGradient2939"
       gradientUnits="userSpaceOnUse"
       gradientTransform="matrix(1.38084,0,0,0.873835,-67.8681,-124.7832)"
       x1="526.63208"
       y1="612.36444"
       x2="598.33679"
       y2="612.36444" />
    <linearGradient
       inkscape:collect="always"
       xlink:href="#linearGradient2678"
       id="linearGradient2943"
       gradientUnits="userSpaceOnUse"
       gradientTransform="matrix(1.78738,0,0,0.675079,-67.8681,-124.7832)"
       x1="313.45422"
       y1="375.53784"
       x2="463.37918"
       y2="371.45239" />
    <linearGradient
       inkscape:collect="always"
       xlink:href="#linearGradient2760"
       id="linearGradient2948"
       gradientUnits="userSpaceOnUse"
       gradientTransform="matrix(1.49687,0,0,0.806098,-67.8681,-124.7832)"
       x1="254.87279"
       y1="606.6651"
       x2="183.88664"
       y2="621.12976" />
    <linearGradient
       inkscape:collect="always"
       xlink:href="#linearGradient2620"
       id="linearGradient2951"
       gradientUnits="userSpaceOnUse"
       gradientTransform="matrix(1.68168,0,0,0.71751,-67.8681,-124.7832)"
       x1="25.048035"
       y1="765.10071"
       x2="259.21442"
       y2="584.1767" />
    <linearGradient
       inkscape:collect="always"
       xlink:href="#linearGradient2806"
       id="linearGradient2955"
       gradientUnits="userSpaceOnUse"
       gradientTransform="matrix(2.79508,0,0,0.431695,-67.8681,-124.7832)"
       x1="180.10124"
       y1="1447.2629"
       x2="302.61618"
       y2="1838.8132" />
    <linearGradient
       inkscape:collect="always"
       xlink:href="#linearGradient2620"
       id="linearGradient3000"
       gradientUnits="userSpaceOnUse"
       gradientTransform="matrix(1.68168,0,0,0.71751,-67.8681,-124.7832)"
       x1="25.048035"
       y1="765.10071"
       x2="259.21442"
       y2="584.1767" />
    <linearGradient
       inkscape:collect="always"
       xlink:href="#linearGradient2760"
       id="linearGradient3002"
       gradientUnits="userSpaceOnUse"
       gradientTransform="matrix(1.49687,0,0,0.806098,-67.8681,-124.7832)"
       x1="254.87279"
       y1="606.6651"
       x2="183.88664"
       y2="621.12976" />
    <linearGradient
       inkscape:collect="always"
       xlink:href="#linearGradient2678"
       id="linearGradient3004"
       gradientUnits="userSpaceOnUse"
       gradientTransform="matrix(1.78738,0,0,0.675079,-67.8681,-124.7832)"
       x1="313.45422"
       y1="375.53784"
       x2="463.37918"
       y2="371.45239" />
    <linearGradient
       inkscape:collect="always"
       xlink:href="#linearGradient2854"
       id="linearGradient3006"
       gradientUnits="userSpaceOnUse"
       gradientTransform="matrix(1.38084,0,0,0.873835,-67.8681,-124.7832)"
       x1="526.63208"
       y1="612.36444"
       x2="598.33679"
       y2="612.36444" />
    <linearGradient
       inkscape:collect="always"
       xlink:href="#linearGradient2814"
       id="linearGradient3008"
       gradientUnits="userSpaceOnUse"
       gradientTransform="matrix(1.21144,0,0,0.996028,-67.8681,-124.7832)"
       x1="59.132782"
       y1="459.34183"
       x2="422.16577"
       y2="265.60794" />
    <linearGradient
       inkscape:collect="always"
       xlink:href="#linearGradient2620"
       id="linearGradient3010"
       gradientUnits="userSpaceOnUse"
       gradientTransform="matrix(1.1733,0,0,1.0284,-67.8681,-124.7832)"
       x1="486.68692"
       y1="223.96628"
       x2="510.90454"
       y2="48.31966" />
    <linearGradient
       inkscape:collect="always"
       xlink:href="#linearGradient2620"
       id="linearGradient3012"
       gradientUnits="userSpaceOnUse"
       gradientTransform="matrix(1.90556,0.0604536,-0.0200683,0.632574,-45.32761,-159.1241)"
       x1="446.04352"
       y1="1057.575"
       x2="421.28766"
       y2="629.1441" />
    <linearGradient
       inkscape:collect="always"
       xlink:href="#linearGradient2620"
       id="linearGradient3014"
       gradientUnits="userSpaceOnUse"
       gradientTransform="matrix(1.5012,0,0,0.803774,-67.8681,-124.7832)"
       x1="152.00314"
       y1="688.14191"
       x2="301.43509"
       y2="671.0459" />
    <linearGradient
       inkscape:collect="always"
       xlink:href="#linearGradient2899"
       id="linearGradient3016"
       gradientUnits="userSpaceOnUse"
       gradientTransform="matrix(0.927004,0,0,1.30164,-67.8681,-124.7832)"
       x1="692.27753"
       y1="201.78284"
       x2="392.86661"
       y2="206.49315" />
  </defs>
  <g
     id="g2957"
     transform="translate(-3.218225,-5.9905395e-6)">
    <path
       d="M 30.721444,465.82173 58.32651,335.68357 346.2079,319.90924 523.66904,302.16313 892.39383,418.49876 872.67592,523.00365 c 0,0 -7.88715,15.77432 -21.68969,23.66149 -13.80253,7.88716 -39.43581,13.80253 -55.21013,9.85895 -15.77432,-3.94358 -29.57685,-5.91538 -37.46402,-19.7179 -7.88715,-13.80254 -55.21013,-72.95624 -55.21013,-72.95624 l -78.87161,25.63326 c 0,0 0,17.74613 -9.85895,43.37939 -9.85895,25.63328 -13.80253,35.49224 -25.63328,39.43581 -11.83074,3.94358 -54.85524,7.25947 -68.1188,3.31589 -23.66149,-3.94358 -44.27324,-92.04646 -44.27324,-92.04646 l -17.74611,1.9718 c 0,0 5.91537,7.88716 -15.77433,15.77431 -21.68969,7.88717 -102.5331,9.85896 -161.68681,9.85896 -59.1537,0 -90.72742,5.32217 -114.3889,5.32217 -6.65898,-10.10961 -15.74926,-15.18113 -15.74926,-15.18113 0,0 -9.85895,0 -39.4358,-1.97178 -29.57687,-1.97179 -30.11159,5.24696 -34.05517,-4.61198 C 73.56611,484.87124 60.2983,463.84995 60.2983,463.84995 l -29.576856,1.97178 z"
       id="path2756"
       style="fill:#000000;fill-opacity:1;fill-rule:evenodd;stroke:#000000;stroke-width:1.09845996px;stroke-linecap:butt;stroke-linejoin:miter;stroke-opacity:1" />
    <path
       d="m 40.580396,440.18846 c 7.88716,-65.06908 15.774327,-90.70235 15.774327,-90.70235 l 3.943577,-7.88717 120.27921,5.91538 15.77433,53.23833 9.85895,0 94.64593,-5.91537 -1.97178,-55.21013 -108.44847,-3.94358 -128.16638,-5.91537 -11.830737,23.66149 -9.858957,86.75877 z"
       id="path2746"
       style="fill:url(#linearGradient3000);fill-opacity:1;fill-rule:evenodd;stroke:#000000;stroke-width:1.09845996px;stroke-linecap:butt;stroke-linejoin:miter;stroke-opacity:1" />
    <path
       d="m 297.35881,339.0484 -103.97919,3.89922 16.89663,57.18855 97.48049,-2.59948 -10.39793,-58.48829 z"
       id="path2758"
       style="fill:url(#linearGradient3002);fill-opacity:1;fill-rule:evenodd;stroke:none" />
    <path
       d="m 391.55909,329.7682 5.91537,153.79964 63.09728,7.88717 3.94359,-88.73056 c 0,0 9.85894,-19.71791 23.66148,-29.57686 13.80253,-9.85896 43.37939,-11.83074 57.18191,-3.94359 13.80254,7.88717 33.52045,21.68971 39.43582,41.4076 5.91537,19.71791 -1.9718,94.64594 23.66148,94.64594 25.63328,0 53.23834,-5.91537 53.23834,-5.91537 l 7.88716,-72.95624 -3.94359,-67.04087 -100.5613,-51.26656 -153.79965,-3.94357 -19.71789,25.63327 z"
       id="path2688"
       style="fill:#232326;fill-opacity:0.978378;fill-rule:evenodd;stroke:#000000;stroke-width:5.49232006;stroke-linecap:butt;stroke-linejoin:miter;stroke-miterlimit:4;stroke-opacity:1" />
    <rect
       height="74.35006"
       id="rect2868"
       rx="8.7940931"
       ry="20.27729"
       style="fill:#101111;fill-opacity:1;fill-rule:nonzero;stroke:none"
       width="52.764561"
       x="761.97449"
       y="116.96425" />
    <path
       d="m 421.51941,86.07177 -6.97133,90.62731 112.93557,27.88533 264.9106,2.78854 L 785.42291,88.86031 548.39764,74.91764 421.51941,86.07177 z"
       id="path2676"
       style="fill:url(#linearGradient3004);fill-opacity:1;fill-rule:evenodd;stroke:#000000;stroke-width:16.47699928;stroke-linecap:butt;stroke-linejoin:miter;stroke-miterlimit:4;stroke-opacity:1" />
    <path
       d="m 510.75246,323.09705 41.82798,0 4.18281,-111.54131 -61.34772,-6.97133 5.57706,108.75277 9.75987,9.75987 z"
       id="path2674"
       style="fill:#0000a7;fill-opacity:1;fill-rule:evenodd;stroke:#000000;stroke-width:1.09845996px;stroke-linecap:butt;stroke-linejoin:miter;stroke-opacity:1" />
    <path
       d="m 659.93895,385.82419 0,48.7875 c 0,0 11.15413,3.48483 29.2796,3.48483 18.12546,0 59.95345,5.22723 64.13624,1.74242 4.1828,-3.48484 8.36561,-55.75715 -2.78853,-59.24198 -11.15413,-3.48481 -47.40506,3.48483 -58.55919,1.74242 -11.15413,-1.74242 -30.67385,-5.22723 -32.06812,3.48481 z"
       id="path2662"
       style="fill:url(#linearGradient3006);fill-opacity:1;fill-rule:evenodd;stroke:#000000;stroke-width:1.22797px;stroke-linecap:butt;stroke-linejoin:miter;stroke-opacity:1" />
    <path
       d="m 938.79222,427.66702 c 0,-9.75986 -2.78854,-36.25093 2.78852,-40.43372 5.57707,-4.1828 16.7312,-11.15413 20.91396,-9.75986 4.1828,1.39426 5.5771,13.94265 5.5771,22.30826 0,8.36559 4.1828,23.70253 -2.7885,26.49105 -6.97136,2.78854 -20.91402,4.1828 -26.49108,1.39427 z"
       id="path2664"
       style="fill:#ffffd9;fill-opacity:1;fill-rule:evenodd;stroke:#000000;stroke-width:1.09845996px;stroke-linecap:butt;stroke-linejoin:miter;stroke-opacity:1" />
    <path
       d="M 4.31669,152.76114 305.60961,118.238 333.85583,24.083954 402.90212,2.114679 409.17905,11.530084 349.54816,61.74558 346.4097,328.51534 41.978304,325.37688 29.424433,334.79229 4.31669,309.68453 l 0,-156.92339 z"
       id="path1846"
       style="fill:url(#linearGradient3008);fill-opacity:1;fill-rule:evenodd;stroke:#000000;stroke-width:2.19692993;stroke-linecap:butt;stroke-linejoin:miter;stroke-miterlimit:4;stroke-opacity:1" />
    <path
       d="M 407.76926,13.484169 706.67896,42.45125 708.86078,27.9677 403.40561,1.069711 l 4.36365,12.414458 z"
       id="path1850"
       style="fill:#d7dadc;fill-opacity:1;fill-rule:evenodd;stroke:#000000;stroke-width:2.13941002;stroke-linecap:butt;stroke-linejoin:miter;stroke-miterlimit:4;stroke-opacity:1" />
    <path
       d="m 344.49641,328.21325 6.54547,-266.18236 56.72738,-50.181922 298.9097,30.545522 -37.09098,15.27275 -205.09133,-6.54547 -48.0001,15.27277 -21.81822,233.45501 0,43.63646 -45.81828,0 c 0,0 -30.54552,6.54546 -21.81822,-2.18182 8.72728,-8.7273 17.45458,-13.09094 17.45458,-13.09094 z"
       id="path1852"
       style="fill:url(#linearGradient3010);fill-opacity:1;fill-rule:evenodd;stroke:#000000;stroke-width:1.09845996px;stroke-linecap:butt;stroke-linejoin:miter;stroke-opacity:1" />
    <path
       d="m 582.31445,487.15357 c 0.0108,50.57256 -25.13256,91.57934 -56.15271,91.57934 -31.02016,0 -56.16384,-41.00678 -56.15272,-91.57934 -0.0108,-50.57256 25.13256,-91.57934 56.15272,-91.57934 31.02015,0 56.16383,41.00678 56.15271,91.57934 z"
       id="path1856"
       style="fill:#232323;fill-opacity:1;fill-rule:nonzero;stroke:none" />
    <path
       d="m 200.49526,444.54842 c 0.007,40.06055 -15.54321,72.5441 -34.7282,72.5441 -19.18501,0 -34.7355,-32.48355 -34.72822,-72.5441 -0.007,-40.06055 15.54321,-72.5441 34.7282,-72.5441 19.18501,0 34.7355,32.48355 34.72822,72.5441 l 0,0 z"
       id="path1858"
       style="fill:#181a1a;fill-opacity:1;fill-rule:nonzero;stroke:none" />
    <path
       d="m 112.00939,434.21031 c 0.007,36.66211 -13.494817,66.39013 -30.151679,66.39013 -16.656862,0 -30.158107,-29.72802 -30.151675,-66.39013 -0.0067,-36.66212 13.494813,-66.39014 30.151675,-66.39014 16.656862,0 30.158109,29.72802 30.151679,66.39014 l 0,0 z"
       id="path1860"
       style="fill:#1e1e1e;fill-opacity:1;fill-rule:nonzero;stroke:none" />
    <path
       d="m 390.84555,313.33718 c 0,0 0,-50.19358 1.39427,-78.0789 1.39426,-27.88533 13.94266,-158.94637 15.33692,-164.52344 1.39427,-5.57706 5.57707,-8.36559 23.70253,-13.94266 18.12547,-5.57706 36.25093,-5.57706 69.71332,-8.3656 33.4624,-2.78853 61.34772,0 61.34772,0 0,0 92.02158,8.3656 122.69544,9.75986 30.67385,1.39427 105.96423,8.36561 111.5413,11.15413 5.57706,2.78854 8.3656,16.7312 8.3656,16.7312 0,0 -107.35851,-9.75986 -129.66677,-11.15413 -22.30826,-1.39426 -118.51263,-6.97132 -118.51263,-6.97132 0,0 -13.94267,0 -19.51974,0 -5.57706,0 -16.73119,1.39425 -16.73119,1.39425 l -103.17571,9.75988 c 0,0 -2.78853,-5.57707 -4.1828,4.18279 -1.39426,9.75986 -6.97133,92.02157 -6.97133,92.02157 0,0 0,5.57707 2.78853,6.97134 2.78854,1.39427 108.75278,23.70253 108.75278,23.70253 0,0 -2.78854,1.39427 -2.78854,9.75986 0,8.3656 0,107.35851 0,107.35851 0,0 -118.51264,4.1828 -124.0897,-9.75987 z"
       id="path2642"
       style="fill:#0000b3;fill-opacity:1;fill-rule:evenodd;stroke:#000000;stroke-width:2.19692993;stroke-linecap:butt;stroke-linejoin:miter;stroke-miterlimit:4;stroke-opacity:1" />
    <path
       d="m 547.00338,323.09705 c 0,0 -5.57707,-72.50185 -2.78853,-90.62731 2.78853,-18.12547 12.5484,-22.30826 12.5484,-22.30826 l 90.6273,0 132.4553,2.78853 22.30826,0 c 0,0 34.85666,9.75987 66.92478,22.30827 32.06814,12.54838 62.74199,22.30826 72.50185,34.85665 9.75988,12.54839 15.33694,18.12546 18.12546,33.46239 2.7885,15.33692 2.7885,75.29038 2.7885,75.29038 0,0 -18.12542,0 -19.51969,8.3656 -1.39427,8.3656 -4.18279,40.43372 -4.18279,40.43372 0,0 -47.40506,13.94266 -92.02159,13.94266 -44.61652,0 -76.68464,1.39427 -83.65598,-1.39426 -6.97132,-2.78854 -9.75986,-13.94267 -9.75986,-13.94267 0,0 4.1828,-33.46239 -2.78853,-37.64518 -6.97133,-4.1828 -30.67386,-1.39427 -65.53051,-4.1828 -34.85666,-2.78854 -55.77065,6.97132 -73.89612,-8.3656 -18.12546,-15.33693 -29.27959,-43.22226 -41.82799,-48.79932 -12.54839,-5.57707 -22.30826,-4.1828 -22.30826,-4.1828 z"
       id="path2644"
       style="fill:#0000b3;fill-opacity:1;fill-rule:evenodd;stroke:#000000;stroke-width:2.19692993;stroke-linecap:butt;stroke-linejoin:miter;stroke-miterlimit:4;stroke-opacity:1" />
    <path
       d="m 754.74906,429.06129 c 0,0 0,-122.69543 -4.1828,-128.2725 -4.1828,-5.57707 0,-5.57707 0,-5.57707 l 185.43742,2.78853 c 0,0 8.3656,48.79932 6.97133,72.50185 -1.39427,23.70253 -6.97133,59.95345 -6.97133,59.95345 0,0 -51.58785,8.3656 -86.44451,9.75987 -34.85666,1.39426 -76.68464,4.1828 -83.65598,0 -6.97133,-4.1828 -11.15413,-11.15413 -11.15413,-11.15413 z"
       id="path2646"
       style="fill:#000075;fill-opacity:0.81621572;fill-rule:evenodd;stroke:#000000;stroke-width:1.09845996px;stroke-linecap:butt;stroke-linejoin:miter;stroke-opacity:1" />
    <path
       d="m 560.94604,218.52708 167.31196,59.95345 206.35142,1.39426 c 0,0 -9.75987,-13.94266 -23.70253,-13.94266 -13.94267,0 -121.30117,13.94266 -186.83168,-5.57707 -65.53053,-19.51972 -138.03238,-41.82798 -149.18651,-41.82798 -11.15413,0 -13.94266,0 -13.94266,0 z"
       id="path2648"
       style="fill:#ffffff;fill-opacity:0.589189;fill-rule:evenodd;stroke:none" />
    <path
       d="m 971.0918,428.63971 c 0,0 2.964,-5.48585 2.5661,7.05625 -0.3979,12.54209 4.7785,25.26102 -0.9284,29.26487 -5.7069,4.00385 -6.8794,-3.00818 -11.7233,17.76267 -4.84383,20.77084 3.3849,25.21679 -3.71552,29.17644 -7.10046,3.95965 -259.99892,16.86102 -259.99892,16.86102 0,0 -27.91551,0.50936 -36.10007,-5.33016 -8.18454,-5.83953 -5.90678,-33.66662 -8.47285,-40.72288 -2.56608,-7.05624 -9.44549,-10.06442 -9.44549,-10.06442 0,0 -4.38057,-37.80311 1.19369,-37.62627 5.57427,0.17684 27.78289,3.67134 51.47349,4.42292 23.69061,0.75158 90.62595,1.48012 170.23601,-1.57414 79.61006,-3.05426 104.91526,-9.2263 104.91526,-9.2263 z"
       id="path2650"
       style="fill:url(#linearGradient3012);fill-opacity:1;fill-rule:evenodd;stroke:#000000;stroke-width:4.39385986;stroke-linecap:butt;stroke-linejoin:miter;stroke-miterlimit:4;stroke-opacity:1" />
    <path
       d="m 956.91768,469.49501 c 0,0 -87.21737,12.25032 -179.1492,12.25032 -91.93183,0 -58.93066,1.75004 -58.93066,1.75004 0,0 126.1116,0.87502 166.18445,-2.62507 40.07285,-3.50009 71.89541,-11.37529 71.89541,-11.37529 z"
       id="path2652"
       style="fill:#ffffff;fill-opacity:0.23783803;fill-rule:evenodd;stroke:none" />
    <path
       d="m 535.84926,199.00736 c 0,-8.36561 -1.39427,-115.72412 -1.39427,-115.72412"
       id="path2686"
       style="fill:none;stroke:#000000;stroke-width:16.47699928;stroke-linecap:butt;stroke-linejoin:miter;stroke-miterlimit:4;stroke-opacity:1" />
    <path
       d="m 531.72919,217.6966 -40.77261,-28.78068 0,-91.13878 c 0,0 11.99194,-21.5855 40.77261,-21.5855 28.78068,0 9.59356,-2.39839 9.59356,-2.39839"
       id="path2874"
       style="fill:none;stroke:#000000;stroke-width:6.86539984;stroke-linecap:butt;stroke-linejoin:miter;stroke-miterlimit:4;stroke-opacity:1" />
    <path
       d="m 216.06974,432.3013 -1.97179,13.80253 177.46114,23.66149 3.94357,-86.75878 -179.43292,-9.85895 0,17.74611 165.63039,11.83075 0,49.29476 -165.63039,-19.71791 z"
       id="path2722"
       style="fill:url(#linearGradient3014);fill-opacity:1;fill-rule:evenodd;stroke:#000000;stroke-width:2.19692993;stroke-linecap:butt;stroke-linejoin:miter;stroke-miterlimit:4;stroke-opacity:1" />
    <path
       d="m 62.10591,333.84944 126.07476,6.4987 15.59688,59.78803"
       id="path2768"
       style="fill:none;stroke:#000000;stroke-width:2.19692993;stroke-linecap:butt;stroke-linejoin:miter;stroke-miterlimit:4;stroke-opacity:1" />
    <path
       d="m 540.40809,484.61715 c 0,17.94559 -6.98294,32.49338 -15.59683,32.49338 -8.61389,0 -15.59682,-14.54779 -15.59682,-32.49338 0,-17.9456 6.98293,-32.49338 15.59682,-32.49338 8.61389,0 15.59683,14.54778 15.59683,32.49338 z"
       id="path2770"
       style="fill:#000000;fill-opacity:0.64864897;fill-rule:nonzero;stroke:#8b8a91;stroke-width:7.96383476;stroke-linecap:round;stroke-linejoin:round;stroke-miterlimit:4;stroke-opacity:0.378378;stroke-dashoffset:0" />
    <path
       d="m 173.65435,445.87415 c 0,13.64338 -4.26159,24.70353 -9.51853,24.70353 -5.25694,0 -9.51852,-11.06015 -9.51852,-24.70353 0,-13.64339 4.26158,-24.70353 9.51852,-24.70353 5.25694,0 9.51853,11.06014 9.51853,24.70353 z"
       id="path2772"
       style="fill:#000000;fill-opacity:0.64864897;fill-rule:nonzero;stroke:#8b8a91;stroke-width:3.7411325;stroke-linecap:round;stroke-linejoin:round;stroke-miterlimit:4;stroke-opacity:0.68108102;stroke-dashoffset:0" />
    <path
       d="m 88.08439,431.08264 c 0,12.30879 -3.775243,22.28704 -8.432247,22.28704 -4.657004,0 -8.432247,-9.97825 -8.432247,-22.28704 0,-12.30879 3.775243,-22.28704 8.432247,-22.28704 4.657004,0 8.432247,9.97825 8.432247,22.28704 z"
       id="path2774"
       style="fill:#000000;fill-opacity:0.64864897;fill-rule:nonzero;stroke:#8b8a91;stroke-width:3.34454131;stroke-linecap:round;stroke-linejoin:round;stroke-miterlimit:4;stroke-opacity:0.75675701;stroke-dashoffset:0" />
    <rect
       height="134.32489"
       id="rect2836"
       rx="0"
       ry="6.7836685"
       style="opacity:0.98429296;fill:#ffffff;fill-opacity:0.31891904;fill-rule:nonzero;stroke:none"
       width="20.621668"
       x="253.67871"
       y="163.13174" />
    <rect
       height="131.78107"
       id="rect2838"
       style="opacity:0.98429296;fill:#ffffff;fill-opacity:0.31891904;fill-rule:nonzero;stroke:none"
       width="20.621656"
       x="209.74019"
       y="167.87256" />
    <rect
       height="131.78105"
       id="rect2840"
       style="opacity:0.98429296;fill:#ffffff;fill-opacity:0.31891904;fill-rule:nonzero;stroke:none"
       width="19.906403"
       x="166.58325"
       y="170.06949" />
    <rect
       height="129.23718"
       id="rect2842"
       style="opacity:0.98429296;fill:#ffffff;fill-opacity:0.31891904;fill-rule:nonzero;stroke:none"
       width="18.225611"
       x="124.36086"
       y="174.81029" />
    <rect
       height="125.84537"
       id="rect2844"
       style="opacity:0.98429296;fill:#ffffff;fill-opacity:0.27027001;fill-rule:nonzero;stroke:none"
       width="16.677492"
       x="82.072144"
       y="178.20213" />
    <rect
       height="115.66986"
       id="rect2846"
       style="opacity:0.98429296;fill:#ffffff;fill-opacity:0.25405405;fill-rule:nonzero;stroke:none"
       width="15.129378"
       x="39.783398"
       y="180.39906" />
    <path
       d="M 17.914754,183.07962 311.65595,157.08483"
       id="path2820"
       style="fill:none;stroke:#000000;stroke-width:5.49232006;stroke-linecap:butt;stroke-linejoin:miter;stroke-miterlimit:4;stroke-opacity:0.389189" />
    <path
       d="m 476.52134,461.9329 c 0,0 1.38663,-25.43876 11.09304,-37.31018 9.70643,-11.87143 16.63959,-20.35101 24.95936,-20.35101 8.3198,0 -12.47968,13.56734 -12.47968,13.56734 0,0 -9.70641,10.17551 -13.8663,22.04692 -4.15989,11.87142 -9.70642,22.04693 -9.70642,22.04693 z"
       id="path2848"
       style="fill:#ffffff;fill-opacity:0.19459498;fill-rule:evenodd;stroke:none" />
    <path
       d="m 133.94607,422.9268 c 0,0 0.89177,-19.45318 7.13419,-28.53131 6.24243,-9.07816 10.70129,-15.56254 16.05193,-15.56254 5.35065,0 -8.02597,10.37502 -8.02597,10.37502 0,0 -6.24241,7.78127 -8.91773,16.85941 -2.67533,9.07814 -6.24242,16.85942 -6.24242,16.85942 z"
       id="path2850"
       style="fill:#ffffff;fill-opacity:0.26486505;fill-rule:evenodd;stroke:none" />
    <path
       d="m 55.933869,416.14313 c 0,0 0.891777,-19.45318 7.134191,-28.53131 6.24243,-9.07816 10.70129,-15.56254 16.05193,-15.56254 5.35065,0 -8.02597,10.37502 -8.02597,10.37502 0,0 -6.2424,7.78126 -8.91772,16.85941 -2.675335,9.07814 -6.242431,16.85942 -6.242431,16.85942 z"
       id="path2852"
       style="fill:#ffffff;fill-opacity:0.30270302;fill-rule:evenodd;stroke:none" />
    <path
       d="m 471.75226,90.58435 c -5.31483,0 -9.57723,3.51237 -9.57723,7.86088 l 0,13.07858 c 0,4.3485 4.2624,7.82656 9.57723,7.82656 -5.31483,0 -9.57723,9.92316 -9.57723,22.24389 l 0,37.07315 c 0,12.32074 4.2624,22.24387 9.57723,22.24389 l 38.37758,0 c 5.31482,0 9.61152,-9.92314 9.61155,-22.24389 l 0,-37.07315 c 0,-12.32075 -4.29673,-22.24389 -9.61155,-22.24389 5.31482,0 9.61152,-3.47807 9.61155,-7.82656 l 0,-13.07858 c 0,-4.3485 -4.29673,-7.86088 -9.61155,-7.86088 l -38.37758,0 z"
       id="rect2870"
       style="fill:url(#linearGradient3016);fill-opacity:1;fill-rule:nonzero;stroke:#000000;stroke-width:3.1580801;stroke-linecap:round;stroke-linejoin:round;stroke-miterlimit:4;stroke-opacity:1;stroke-dashoffset:0" />
    <path
       d="m 401.23986,331.08857 1.83964,144.41166 51.50989,8.27838 c 0,0 -31.27386,-14.71712 -38.63241,-46.9108 -7.35856,-32.19368 -14.71712,-105.77924 -14.71712,-105.77924 z"
       id="path2895"
       style="fill:#000000;fill-opacity:0.621622;fill-rule:evenodd;stroke:none" />
    <path
       d="m 496.90109,337.52731 c 0,0 48.40297,-5.51892 60.50373,0 12.10074,5.51891 34.78964,29.43422 40.84001,40.47206 6.05037,11.03782 -25.71408,-27.59459 -40.84001,-31.27387 -15.12594,-3.67928 -60.50373,-9.19819 -60.50373,-9.19819 z"
       id="path2897"
       style="fill:#ffffff;fill-opacity:0.08108102;fill-rule:evenodd;stroke:none" />
  </g>
</svg>
