<?xml version="1.0" encoding="UTF-8" standalone="no"?>
<!-- Created with Inkscape (http://www.inkscape.org/) -->

<svg
   xmlns:dc="http://purl.org/dc/elements/1.1/"
   xmlns:cc="http://creativecommons.org/ns#"
   xmlns:rdf="http://www.w3.org/1999/02/22-rdf-syntax-ns#"
   xmlns:svg="http://www.w3.org/2000/svg"
   xmlns="http://www.w3.org/2000/svg"
   xmlns:xlink="http://www.w3.org/1999/xlink"
   xmlns:sodipodi="http://sodipodi.sourceforge.net/DTD/sodipodi-0.dtd"
   xmlns:inkscape="http://www.inkscape.org/namespaces/inkscape"
   width="59.231281"
   height="45.8503"
   id="svg4197"
   version="1.1"
   inkscape:version="0.47pre1 r21720"
   sodipodi:docname="New document 11"
   inkscape:output_extension="org.inkscape.output.svg.inkscape">
  <defs
     id="defs4199">
    <inkscape:perspective
       sodipodi:type="inkscape:persp3d"
       inkscape:vp_x="0 : 300 : 1"
       inkscape:vp_y="0 : 1000 : 0"
       inkscape:vp_z="800 : 300 : 1"
       inkscape:persp3d-origin="400 : 200 : 1"
       id="perspective4205" />
    <inkscape:perspective
       id="perspective4125"
       inkscape:persp3d-origin="0.5 : 0.33333333 : 1"
       inkscape:vp_z="1 : 0.5 : 1"
       inkscape:vp_y="0 : 1000 : 0"
       inkscape:vp_x="0 : 0.5 : 1"
       sodipodi:type="inkscape:persp3d" />
    <linearGradient
       inkscape:collect="always"
       xlink:href="#linearGradient6633"
       id="linearGradient4078"
       gradientUnits="userSpaceOnUse"
       gradientTransform="translate(327.592,-19.919)"
       spreadMethod="reflect"
       x1="6.5225167"
       y1="428.96262"
       x2="5.3033009"
       y2="430.68274" />
    <linearGradient
       inkscape:collect="always"
       id="linearGradient6633">
      <stop
         style="stop-color: rgb(211, 215, 207); stop-opacity: 1;"
         offset="0"
         id="stop6635" />
      <stop
         style="stop-color: rgb(136, 138, 133); stop-opacity: 1;"
         offset="1"
         id="stop6637" />
    </linearGradient>
    <linearGradient
       inkscape:collect="always"
       xlink:href="#linearGradient3689"
       id="linearGradient4080"
       gradientUnits="userSpaceOnUse"
       gradientTransform="matrix(0.427944,0,0,0.427944,33.7787,217.069)"
       x1="138.08673"
       y1="370.27557"
       x2="146.77179"
       y2="382.97778" />
    <linearGradient
       inkscape:collect="always"
       id="linearGradient3689">
      <stop
         style="stop-color: rgb(211, 215, 207); stop-opacity: 1;"
         offset="0"
         id="stop3691" />
      <stop
         style="stop-color: rgb(0, 0, 0); stop-opacity: 1;"
         offset="1"
         id="stop3693" />
    </linearGradient>
    <linearGradient
       inkscape:collect="always"
       xlink:href="#linearGradient3689"
       id="linearGradient4082"
       gradientUnits="userSpaceOnUse"
       gradientTransform="matrix(0.427944,0,0,0.427944,33.7787,217.069)"
       x1="138.08673"
       y1="370.27557"
       x2="146.77179"
       y2="382.97778" />
    <linearGradient
       inkscape:collect="always"
       xlink:href="#linearGradient3689"
       id="linearGradient4084"
       gradientUnits="userSpaceOnUse"
       gradientTransform="matrix(0.427944,0,0,0.427944,33.7787,217.069)"
       x1="138.08673"
       y1="370.27557"
       x2="146.77179"
       y2="382.97778" />
  </defs>
  <sodipodi:namedview
     id="base"
     pagecolor="#ffffff"
     bordercolor="#666666"
     borderopacity="1.0"
     inkscape:pageopacity="0.0"
     inkscape:pageshadow="2"
     inkscape:zoom="0.6"
     inkscape:cx="392.94897"
     inkscape:cy="-24.696682"
     inkscape:current-layer="layer1"
     inkscape:document-units="px"
     showgrid="false"
     inkscape:window-width="607"
     inkscape:window-height="495"
     inkscape:window-x="0"
     inkscape:window-y="25"
     inkscape:window-maximized="0" />
  <metadata
     id="metadata4202">
    <rdf:RDF>
      <cc:Work
         rdf:about="">
        <dc:format>image/svg+xml</dc:format>
        <dc:type
           rdf:resource="http://purl.org/dc/dcmitype/StillImage" />
        <dc:title></dc:title>
      </cc:Work>
    </rdf:RDF>
  </metadata>
  <g
     id="layer1"
     inkscape:label="Layer 1"
     inkscape:groupmode="layer"
     transform="translate(-7.05103,-67.07485)">
    <g
       id="g4031"
       transform="translate(-302.19897,-311.16233)">
      <path
         style="fill:#c17d11;fill-rule:evenodd;stroke:#000000;stroke-width:0.5;stroke-linecap:butt;stroke-linejoin:miter;stroke-miterlimit:4;stroke-opacity:1;stroke-dasharray:none"
         d="m 325.25,385.23718 0.125,-6.5 31,17.5 -0.375,6.875 -30.75,-17.875 z"
         id="path4025" />
      <path
         sodipodi:nodetypes="csscccccc"
         id="path3021"
         d="m 332.4417,406.38486 c -0.22568,-0.004 -0.4584,0.0623 -0.71875,0.15625 -1.04138,0.37582 -1.90625,1.4416 -1.90625,2.375 0,0.58338 0.3419,0.97089 0.84375,1.09375 l 5.5061,3.17079 3.09375,-3.0625 -6.16235,-3.51454 -0.0312,-0.0312 c -0.17775,-0.10392 -0.38352,-0.18305 -0.625,-0.1875 z"
         style="fill:url(#linearGradient4078);fill-opacity:1;fill-rule:nonzero;stroke:#000000;stroke-width:0.5;stroke-linecap:round;stroke-linejoin:round;stroke-miterlimit:4;stroke-opacity:1;stroke-dasharray:none;stroke-dashoffset:0" />
      <path
         sodipodi:type="arc"
         style="fill:#555753;fill-opacity:1;fill-rule:nonzero;stroke:#000000;stroke-width:0.76503301;stroke-linecap:round;stroke-linejoin:round;stroke-miterlimit:4;stroke-opacity:1;stroke-dasharray:none;stroke-dashoffset:0"
         id="path3023"
         sodipodi:cx="107.47261"
         sodipodi:cy="374.48795"
         sodipodi:rx="2.8865552"
         sodipodi:ry="2.587275"
         d="m 110.35917,374.48795 c 0,1.42891 -1.29236,2.58727 -2.88656,2.58727 -1.5942,0 -2.88655,-1.15836 -2.88655,-2.58727 0,-1.42892 1.29235,-2.58728 2.88655,-2.58728 1.5942,0 2.88656,1.15836 2.88656,2.58728 z"
         transform="matrix(0.653566,-0.235864,0,0.653566,267.258,192.054)" />
      <g
         transform="translate(221.689,18.8684)"
         id="g3025">
        <path
           sodipodi:type="arc"
           style="fill:#cc0000;fill-opacity:1;fill-rule:nonzero;stroke:none"
           id="path3027"
           sodipodi:cx="136.67287"
           sodipodi:cy="261.99792"
           sodipodi:rx="11.916239"
           sodipodi:ry="8.0419703"
           d="m 148.58911,261.99792 c 0,4.44146 -5.33509,8.04198 -11.91624,8.04198 -6.58116,0 -11.91624,-3.60052 -11.91624,-8.04198 0,-4.44145 5.33508,-8.04197 11.91624,-8.04197 6.58115,0 11.91624,3.60052 11.91624,8.04197 z"
           transform="matrix(-0.183144,-0.2966,0.2966,-0.183144,41.2824,467.878)" />
        <path
           sodipodi:nodetypes="cccccsc"
           id="path3029"
           d="m 92.872153,375.5268 c -0.395819,-0.003 -0.767445,0.091 -1.096607,0.29421 l -2.23173,1.28383 4.059921,7.26168 2.81233,-1.68503 c 1.047466,-0.94151 1.047462,-2.99635 -0.06687,-4.801 -0.90351,-1.46322 -2.289591,-2.34548 -3.477047,-2.35369 z"
           style="fill:url(#linearGradient4080);fill-opacity:1;fill-rule:evenodd;stroke:#000000;stroke-width:0.213972;stroke-linecap:butt;stroke-linejoin:miter;stroke-miterlimit:4;stroke-opacity:1;stroke-dasharray:none" />
        <path
           transform="matrix(-0.183144,-0.2966,0.2966,-0.183144,38.8934,469.257)"
           d="m 148.58911,261.99792 c 0,4.44146 -5.33509,8.04198 -11.91624,8.04198 -6.58116,0 -11.91624,-3.60052 -11.91624,-8.04198 0,-4.44145 5.33508,-8.04197 11.91624,-8.04197 6.58115,0 11.91624,3.60052 11.91624,8.04197 z"
           sodipodi:ry="8.0419703"
           sodipodi:rx="11.916239"
           sodipodi:cy="261.99792"
           sodipodi:cx="136.67287"
           id="path3031"
           style="fill:#555753;fill-opacity:1;fill-rule:nonzero;stroke:#000000;stroke-width:0.61382598;stroke-linecap:butt;stroke-linejoin:bevel;stroke-miterlimit:4;stroke-opacity:1;stroke-dasharray:none;stroke-dashoffset:0"
           sodipodi:type="arc" />
        <path
           transform="matrix(-0.10007,-0.162061,0.162061,-0.10007,62.7859,428.932)"
           d="m 148.58911,261.99792 c 0,4.44146 -5.33509,8.04198 -11.91624,8.04198 -6.58116,0 -11.91624,-3.60052 -11.91624,-8.04198 0,-4.44145 5.33508,-8.04197 11.91624,-8.04197 6.58115,0 11.91624,3.60052 11.91624,8.04197 z"
           sodipodi:ry="8.0419703"
           sodipodi:rx="11.916239"
           sodipodi:cy="261.99792"
           sodipodi:cx="136.67287"
           id="path3033"
           style="fill:#d3d7cf;fill-opacity:1;fill-rule:nonzero;stroke:none"
           sodipodi:type="arc" />
      </g>
      <g
         id="g3035"
         transform="translate(228.04,22.9779)">
        <path
           transform="matrix(-0.183144,-0.2966,0.2966,-0.183144,41.2824,467.878)"
           d="m 148.58911,261.99792 c 0,4.44146 -5.33509,8.04198 -11.91624,8.04198 -6.58116,0 -11.91624,-3.60052 -11.91624,-8.04198 0,-4.44145 5.33508,-8.04197 11.91624,-8.04197 6.58115,0 11.91624,3.60052 11.91624,8.04197 z"
           sodipodi:ry="8.0419703"
           sodipodi:rx="11.916239"
           sodipodi:cy="261.99792"
           sodipodi:cx="136.67287"
           id="path3037"
           style="fill:#cc0000;fill-opacity:1;fill-rule:nonzero;stroke:none"
           sodipodi:type="arc" />
        <path
           style="fill:url(#linearGradient4082);fill-opacity:1;fill-rule:evenodd;stroke:#000000;stroke-width:0.213972;stroke-linecap:butt;stroke-linejoin:miter;stroke-miterlimit:4;stroke-opacity:1;stroke-dasharray:none"
           d="m 92.872153,375.5268 c -0.395819,-0.003 -0.767445,0.091 -1.096607,0.29421 l -2.23173,1.28383 4.059921,7.26168 2.81233,-1.68503 c 1.047466,-0.94151 1.047462,-2.99635 -0.06687,-4.801 -0.90351,-1.46322 -2.289591,-2.34548 -3.477047,-2.35369 z"
           id="path3039"
           sodipodi:nodetypes="cccccsc" />
        <path
           sodipodi:type="arc"
           style="fill:#555753;fill-opacity:1;fill-rule:nonzero;stroke:#000000;stroke-width:0.61382598;stroke-linecap:butt;stroke-linejoin:bevel;stroke-miterlimit:4;stroke-opacity:1;stroke-dasharray:none;stroke-dashoffset:0"
           id="path3041"
           sodipodi:cx="136.67287"
           sodipodi:cy="261.99792"
           sodipodi:rx="11.916239"
           sodipodi:ry="8.0419703"
           d="m 148.58911,261.99792 c 0,4.44146 -5.33509,8.04198 -11.91624,8.04198 -6.58116,0 -11.91624,-3.60052 -11.91624,-8.04198 0,-4.44145 5.33508,-8.04197 11.91624,-8.04197 6.58115,0 11.91624,3.60052 11.91624,8.04197 z"
           transform="matrix(-0.183144,-0.2966,0.2966,-0.183144,38.8934,469.257)" />
        <path
           sodipodi:type="arc"
           style="fill:#d3d7cf;fill-opacity:1;fill-rule:nonzero;stroke:none"
           id="path3043"
           sodipodi:cx="136.67287"
           sodipodi:cy="261.99792"
           sodipodi:rx="11.916239"
           sodipodi:ry="8.0419703"
           d="m 148.58911,261.99792 c 0,4.44146 -5.33509,8.04198 -11.91624,8.04198 -6.58116,0 -11.91624,-3.60052 -11.91624,-8.04198 0,-4.44145 5.33508,-8.04197 11.91624,-8.04197 6.58115,0 11.91624,3.60052 11.91624,8.04197 z"
           transform="matrix(-0.10007,-0.162061,0.162061,-0.10007,62.7859,428.932)" />
      </g>
      <path
         sodipodi:nodetypes="ccccc"
         style="fill:#e9b96e;fill-rule:evenodd;stroke:#000000;stroke-width:0.5;stroke-linecap:round;stroke-linejoin:bevel;stroke-miterlimit:4;stroke-opacity:1;stroke-dasharray:none"
         d="m 325.26602,385.4173 -15.34297,8.85827 30.68594,17.71653 15.34297,-8.85827 -30.68594,-17.71653 z"
         id="path3045" />
      <g
         id="g3053"
         transform="translate(250.839,37.1168)">
        <path
           transform="matrix(-0.183144,-0.2966,0.2966,-0.183144,41.2824,467.878)"
           d="m 148.58911,261.99792 c 0,4.44146 -5.33509,8.04198 -11.91624,8.04198 -6.58116,0 -11.91624,-3.60052 -11.91624,-8.04198 0,-4.44145 5.33508,-8.04197 11.91624,-8.04197 6.58115,0 11.91624,3.60052 11.91624,8.04197 z"
           sodipodi:ry="8.0419703"
           sodipodi:rx="11.916239"
           sodipodi:cy="261.99792"
           sodipodi:cx="136.67287"
           id="path3055"
           style="fill:#cc0000;fill-opacity:1;fill-rule:nonzero;stroke:none"
           sodipodi:type="arc" />
        <path
           style="fill:url(#linearGradient4084);fill-opacity:1;fill-rule:evenodd;stroke:#000000;stroke-width:0.213972;stroke-linecap:butt;stroke-linejoin:miter;stroke-miterlimit:4;stroke-opacity:1;stroke-dasharray:none"
           d="m 92.872153,375.5268 c -0.395819,-0.003 -0.767445,0.091 -1.096607,0.29421 l -2.23173,1.28383 4.059921,7.26168 2.81233,-1.68503 c 1.047466,-0.94151 1.047462,-2.99635 -0.06687,-4.801 -0.90351,-1.46322 -2.289591,-2.34548 -3.477047,-2.35369 z"
           id="path3057"
           sodipodi:nodetypes="cccccsc" />
        <path
           sodipodi:type="arc"
           style="fill:#555753;fill-opacity:1;fill-rule:nonzero;stroke:#000000;stroke-width:0.61382598;stroke-linecap:butt;stroke-linejoin:bevel;stroke-miterlimit:4;stroke-opacity:1;stroke-dasharray:none;stroke-dashoffset:0"
           id="path3059"
           sodipodi:cx="136.67287"
           sodipodi:cy="261.99792"
           sodipodi:rx="11.916239"
           sodipodi:ry="8.0419703"
           d="m 148.58911,261.99792 c 0,4.44146 -5.33509,8.04198 -11.91624,8.04198 -6.58116,0 -11.91624,-3.60052 -11.91624,-8.04198 0,-4.44145 5.33508,-8.04197 11.91624,-8.04197 6.58115,0 11.91624,3.60052 11.91624,8.04197 z"
           transform="matrix(-0.183144,-0.2966,0.2966,-0.183144,38.8934,469.257)" />
        <path
           sodipodi:type="arc"
           style="fill:#d3d7cf;fill-opacity:1;fill-rule:nonzero;stroke:none"
           id="path3061"
           sodipodi:cx="136.67287"
           sodipodi:cy="261.99792"
           sodipodi:rx="11.916239"
           sodipodi:ry="8.0419703"
           d="m 148.58911,261.99792 c 0,4.44146 -5.33509,8.04198 -11.91624,8.04198 -6.58116,0 -11.91624,-3.60052 -11.91624,-8.04198 0,-4.44145 5.33508,-8.04197 11.91624,-8.04197 6.58115,0 11.91624,3.60052 11.91624,8.04197 z"
           transform="matrix(-0.10007,-0.162061,0.162061,-0.10007,62.7859,428.932)" />
      </g>
      <path
         id="path4027"
         d="m 309.875,386.73718 15.375,-8.25 -0.125,7 -15.625,8.75 0.375,-7.5 z"
         style="fill:#8f5902;fill-rule:evenodd;stroke:#000000;stroke-width:0.5;stroke-linecap:butt;stroke-linejoin:bevel;stroke-miterlimit:4;stroke-opacity:1;stroke-dasharray:none" />
      <path
         id="path3253"
         d="m 309.875,393.73718 0.125,-6.5 31,17.5 -0.375,6.875 -30.75,-17.875 z"
         style="fill:#c17d11;fill-rule:evenodd;stroke:#000000;stroke-width:0.5;stroke-linecap:butt;stroke-linejoin:miter;stroke-miterlimit:4;stroke-opacity:1;stroke-dasharray:none" />
      <path
         style="fill:#8f5902;fill-rule:evenodd;stroke:#000000;stroke-width:0.5;stroke-linecap:butt;stroke-linejoin:miter;stroke-miterlimit:4;stroke-opacity:1;stroke-dasharray:none"
         d="m 341.28388,404.85387 15.375,-8.25 -0.125,7 -15.625,8.75 0.375,-7.5 z"
         id="path4029" />
      <path
         sodipodi:nodetypes="ccccccc"
         style="fill:#888a85;fill-rule:evenodd;stroke:#000000;stroke-width:0.5;stroke-linecap:butt;stroke-linejoin:bevel;stroke-miterlimit:4;stroke-opacity:1;stroke-dasharray:none"
         d="m 345.86773,416.08748 c 0.89924,1.45631 1.21215,3.0276 0.96875,4.28125 l 6,3.46875 0,-17.71875 -9.96875,-5.625 0.0671,10.96875 c 0.43258,1.10383 0.41241,2.43552 2.9329,4.625 z"
         id="path3063" />
      <path
         id="path3065"
         d="m 368.18708,414.96638 0,-17.71654 -15.34297,8.85827 0,17.71653 15.34297,-8.85826 z"
         style="fill:#555753;fill-rule:evenodd;stroke:#000000;stroke-width:0.5;stroke-linecap:butt;stroke-linejoin:bevel;stroke-miterlimit:4;stroke-opacity:1;stroke-dasharray:none" />
      <path
         sodipodi:nodetypes="ccccc"
         style="fill:#729fcf;fill-rule:evenodd;stroke:#000000;stroke-width:0.5;stroke-linecap:butt;stroke-linejoin:bevel;stroke-miterlimit:4;stroke-opacity:1;stroke-dasharray:none"
         d="m 368.23128,403.93865 -0.0442,-6.68881 -15.34297,8.85827 0.0442,6.6888 15.34297,-8.85826 z"
         id="path3067" />
      <path
         id="path3069"
         d="m 351.83496,406.78822 -7.70238,-4.31255 0.0942,5.08074 7.51538,5.14609 0.0928,-5.91428 z"
         style="fill:#729fcf;fill-opacity:1;fill-rule:evenodd;stroke:#000000;stroke-width:0.5;stroke-linecap:butt;stroke-linejoin:miter;stroke-miterlimit:4;stroke-opacity:1;stroke-dasharray:none"
         sodipodi:nodetypes="ccccc" />
      <path
         style="fill:#d3d7cf;fill-rule:evenodd;stroke:#000000;stroke-width:0.5;stroke-linecap:butt;stroke-linejoin:bevel;stroke-miterlimit:4;stroke-opacity:1;stroke-dasharray:none"
         d="m 358.34327,391.71048 -15.34297,8.85827 9.79649,5.656 15.34297,-8.85827 -9.79649,-5.656 z"
         id="path3071"
         sodipodi:nodetypes="ccccc" />
      <g
         id="g3073"
         transform="translate(245.481,36.52)">
        <path
           sodipodi:type="arc"
           style="fill:#d3d7cf;fill-opacity:1;fill-rule:nonzero;stroke:none"
           id="path3075"
           sodipodi:cx="107.47261"
           sodipodi:cy="374.48795"
           sodipodi:rx="2.8865552"
           sodipodi:ry="2.587275"
           d="m 110.35917,374.48795 c 0,1.42891 -1.29236,2.58727 -2.88656,2.58727 -1.5942,0 -2.88655,-1.15836 -2.88655,-2.58727 0,-1.42892 1.29235,-2.58728 2.88655,-2.58728 1.5942,0 2.88656,1.15836 2.88656,2.58728 z"
           transform="matrix(0.653566,-0.235864,0,0.653566,40.1099,163.75)" />
        <path
           transform="matrix(0.439221,-0.158509,0,0.439221,63.1461,235.706)"
           d="m 110.35917,374.48795 c 0,1.42891 -1.29236,2.58727 -2.88656,2.58727 -1.5942,0 -2.88655,-1.15836 -2.88655,-2.58727 0,-1.42892 1.29235,-2.58728 2.88655,-2.58728 1.5942,0 2.88656,1.15836 2.88656,2.58728 z"
           sodipodi:ry="2.587275"
           sodipodi:rx="2.8865552"
           sodipodi:cy="374.48795"
           sodipodi:cx="107.47261"
           id="path3077"
           style="fill:#eeeeec;fill-opacity:1;fill-rule:nonzero;stroke:none"
           sodipodi:type="arc" />
        <path
           sodipodi:type="arc"
           style="fill:#ffffff;fill-opacity:1;fill-rule:nonzero;stroke:none"
           id="path3079"
           sodipodi:cx="107.47261"
           sodipodi:cy="374.48795"
           sodipodi:rx="2.8865552"
           sodipodi:ry="2.587275"
           d="m 110.35917,374.48795 c 0,1.42891 -1.29236,2.58727 -2.88656,2.58727 -1.5942,0 -2.88655,-1.15836 -2.88655,-2.58727 0,-1.42892 1.29235,-2.58728 2.88655,-2.58728 1.5942,0 2.88656,1.15836 2.88656,2.58728 z"
           transform="matrix(0.145978,-0.0526814,0,0.145978,94.1719,333.892)" />
      </g>
      <g
         transform="translate(255.646,30.4901)"
         id="g3081">
        <path
           transform="matrix(0.653566,-0.235864,0,0.653566,40.1099,163.75)"
           d="m 110.35917,374.48795 c 0,1.42891 -1.29236,2.58727 -2.88656,2.58727 -1.5942,0 -2.88655,-1.15836 -2.88655,-2.58727 0,-1.42892 1.29235,-2.58728 2.88655,-2.58728 1.5942,0 2.88656,1.15836 2.88656,2.58728 z"
           sodipodi:ry="2.587275"
           sodipodi:rx="2.8865552"
           sodipodi:cy="374.48795"
           sodipodi:cx="107.47261"
           id="path3083"
           style="fill:#d3d7cf;fill-opacity:1;fill-rule:nonzero;stroke:none"
           sodipodi:type="arc" />
        <path
           sodipodi:type="arc"
           style="fill:#eeeeec;fill-opacity:1;fill-rule:nonzero;stroke:none"
           id="path3085"
           sodipodi:cx="107.47261"
           sodipodi:cy="374.48795"
           sodipodi:rx="2.8865552"
           sodipodi:ry="2.587275"
           d="m 110.35917,374.48795 c 0,1.42891 -1.29236,2.58727 -2.88656,2.58727 -1.5942,0 -2.88655,-1.15836 -2.88655,-2.58727 0,-1.42892 1.29235,-2.58728 2.88655,-2.58728 1.5942,0 2.88656,1.15836 2.88656,2.58728 z"
           transform="matrix(0.439221,-0.158509,0,0.439221,63.1461,235.706)" />
        <path
           transform="matrix(0.145978,-0.0526814,0,0.145978,94.1719,333.892)"
           d="m 110.35917,374.48795 c 0,1.42891 -1.29236,2.58727 -2.88656,2.58727 -1.5942,0 -2.88655,-1.15836 -2.88655,-2.58727 0,-1.42892 1.29235,-2.58728 2.88655,-2.58728 1.5942,0 2.88656,1.15836 2.88656,2.58728 z"
           sodipodi:ry="2.587275"
           sodipodi:rx="2.8865552"
           sodipodi:cy="374.48795"
           sodipodi:cx="107.47261"
           id="path3087"
           style="fill:#ffffff;fill-opacity:1;fill-rule:nonzero;stroke:none"
           sodipodi:type="arc" />
      </g>
      <g
         transform="matrix(0.442764,0,0,0.442764,305.731,247.243)"
         id="g3089">
        <path
           transform="matrix(0.653566,-0.235864,0,0.653566,40.1099,163.75)"
           d="m 110.35917,374.48795 c 0,1.42891 -1.29236,2.58727 -2.88656,2.58727 -1.5942,0 -2.88655,-1.15836 -2.88655,-2.58727 0,-1.42892 1.29235,-2.58728 2.88655,-2.58728 1.5942,0 2.88656,1.15836 2.88656,2.58728 z"
           sodipodi:ry="2.587275"
           sodipodi:rx="2.8865552"
           sodipodi:cy="374.48795"
           sodipodi:cx="107.47261"
           id="path3091"
           style="fill:#d3d7cf;fill-opacity:1;fill-rule:nonzero;stroke:none"
           sodipodi:type="arc" />
        <path
           sodipodi:type="arc"
           style="fill:#f57900;fill-opacity:1;fill-rule:nonzero;stroke:none"
           id="path3093"
           sodipodi:cx="107.47261"
           sodipodi:cy="374.48795"
           sodipodi:rx="2.8865552"
           sodipodi:ry="2.587275"
           d="m 110.35917,374.48795 c 0,1.42891 -1.29236,2.58727 -2.88656,2.58727 -1.5942,0 -2.88655,-1.15836 -2.88655,-2.58727 0,-1.42892 1.29235,-2.58728 2.88655,-2.58728 1.5942,0 2.88656,1.15836 2.88656,2.58728 z"
           transform="matrix(0.439221,-0.158509,0,0.439221,63.1461,235.706)" />
        <path
           transform="matrix(0.145978,-0.0526814,0,0.145978,94.1719,333.892)"
           d="m 110.35917,374.48795 c 0,1.42891 -1.29236,2.58727 -2.88656,2.58727 -1.5942,0 -2.88655,-1.15836 -2.88655,-2.58727 0,-1.42892 1.29235,-2.58728 2.88655,-2.58728 1.5942,0 2.88656,1.15836 2.88656,2.58728 z"
           sodipodi:ry="2.587275"
           sodipodi:rx="2.8865552"
           sodipodi:cy="374.48795"
           sodipodi:cx="107.47261"
           id="path3095"
           style="fill:#ffffff;fill-opacity:1;fill-rule:nonzero;stroke:none"
           sodipodi:type="arc" />
      </g>
      <g
         id="g3097"
         transform="matrix(0.442764,0,0,0.442764,317.9,240.917)">
        <path
           sodipodi:type="arc"
           style="fill:#d3d7cf;fill-opacity:1;fill-rule:nonzero;stroke:none"
           id="path3099"
           sodipodi:cx="107.47261"
           sodipodi:cy="374.48795"
           sodipodi:rx="2.8865552"
           sodipodi:ry="2.587275"
           d="m 110.35917,374.48795 c 0,1.42891 -1.29236,2.58727 -2.88656,2.58727 -1.5942,0 -2.88655,-1.15836 -2.88655,-2.58727 0,-1.42892 1.29235,-2.58728 2.88655,-2.58728 1.5942,0 2.88656,1.15836 2.88656,2.58728 z"
           transform="matrix(0.653566,-0.235864,0,0.653566,40.1099,163.75)" />
        <path
           transform="matrix(0.439221,-0.158509,0,0.439221,63.1461,235.706)"
           d="m 110.35917,374.48795 c 0,1.42891 -1.29236,2.58727 -2.88656,2.58727 -1.5942,0 -2.88655,-1.15836 -2.88655,-2.58727 0,-1.42892 1.29235,-2.58728 2.88655,-2.58728 1.5942,0 2.88656,1.15836 2.88656,2.58728 z"
           sodipodi:ry="2.587275"
           sodipodi:rx="2.8865552"
           sodipodi:cy="374.48795"
           sodipodi:cx="107.47261"
           id="path3101"
           style="fill:#f57900;fill-opacity:1;fill-rule:nonzero;stroke:none"
           sodipodi:type="arc" />
        <path
           sodipodi:type="arc"
           style="fill:#ffffff;fill-opacity:1;fill-rule:nonzero;stroke:none"
           id="path3103"
           sodipodi:cx="107.47261"
           sodipodi:cy="374.48795"
           sodipodi:rx="2.8865552"
           sodipodi:ry="2.587275"
           d="m 110.35917,374.48795 c 0,1.42891 -1.29236,2.58727 -2.88656,2.58727 -1.5942,0 -2.88655,-1.15836 -2.88655,-2.58727 0,-1.42892 1.29235,-2.58728 2.88655,-2.58728 1.5942,0 2.88656,1.15836 2.88656,2.58728 z"
           transform="matrix(0.145978,-0.0526814,0,0.145978,94.1719,333.892)" />
      </g>
      <path
         style="fill:#ffffff;fill-rule:evenodd;stroke:none"
         d="m 357.323,409.80764 0.89755,-0.45148 5.10479,-8.7111 -1.68552,0.97314 -4.31682,8.18944 z"
         id="path3105"
         sodipodi:nodetypes="ccccc" />
      <path
         sodipodi:nodetypes="ccccc"
         id="path3107"
         d="m 359.2849,408.74165 0.89755,-0.45148 5.10479,-8.7111 -1.68552,0.97314 -4.31682,8.18944 z"
         style="fill:#ffffff;fill-rule:evenodd;stroke:none" />
    </g>
  </g>
</svg>
