<?xml version="1.0" encoding="UTF-8" standalone="no"?>
<!-- Created with Inkscape (http://www.inkscape.org/) -->

<svg
   xmlns:dc="http://purl.org/dc/elements/1.1/"
   xmlns:cc="http://creativecommons.org/ns#"
   xmlns:rdf="http://www.w3.org/1999/02/22-rdf-syntax-ns#"
   xmlns:svg="http://www.w3.org/2000/svg"
   xmlns="http://www.w3.org/2000/svg"
   xmlns:xlink="http://www.w3.org/1999/xlink"
   xmlns:sodipodi="http://sodipodi.sourceforge.net/DTD/sodipodi-0.dtd"
   xmlns:inkscape="http://www.inkscape.org/namespaces/inkscape"
   width="62.051048"
   height="49.356422"
   id="svg4868"
   sodipodi:version="0.32"
   inkscape:version="0.47pre1 r21720"
   version="1.0"
   sodipodi:docname="rg1024_Six_isometric_vehicles.svg"
   inkscape:output_extension="org.inkscape.output.svg.inkscape">
  <defs
     id="defs3">
    <linearGradient
       inkscape:collect="always"
       xlink:href="#linearGradient3689"
       id="linearGradient5525"
       gradientUnits="userSpaceOnUse"
       gradientTransform="matrix(0.427944,0,0,0.427944,33.7787,217.069)"
       x1="138.08673"
       y1="370.27557"
       x2="146.77179"
       y2="382.97778" />
    <linearGradient
       inkscape:collect="always"
       xlink:href="#linearGradient3689"
       id="linearGradient5527"
       gradientUnits="userSpaceOnUse"
       gradientTransform="matrix(0.427944,0,0,0.427944,33.7787,217.069)"
       x1="138.08673"
       y1="370.27557"
       x2="146.77179"
       y2="382.97778" />
    <linearGradient
       inkscape:collect="always"
       xlink:href="#linearGradient3689"
       id="linearGradient6062"
       gradientUnits="userSpaceOnUse"
       gradientTransform="matrix(0.427944,0,0,0.427944,33.7787,217.069)"
       x1="138.08673"
       y1="370.27557"
       x2="146.77179"
       y2="382.97778" />
    <linearGradient
       inkscape:collect="always"
       id="linearGradient3689">
      <stop
         style="stop-color: rgb(211, 215, 207); stop-opacity: 1;"
         offset="0"
         id="stop3691" />
      <stop
         style="stop-color: rgb(0, 0, 0); stop-opacity: 1;"
         offset="1"
         id="stop3693" />
    </linearGradient>
  </defs>
  <sodipodi:namedview
     inkscape:document-units="mm"
     id="base"
     pagecolor="#ffffff"
     bordercolor="#666666"
     borderopacity="1.0"
     inkscape:pageopacity="0.0"
     inkscape:pageshadow="2"
     inkscape:zoom="1.4"
     inkscape:cx="108.67011"
     inkscape:cy="4.8105548"
     inkscape:current-layer="layer1"
     showgrid="false"
     inkscape:window-width="1440"
     inkscape:window-height="826"
     inkscape:window-x="0"
     inkscape:window-y="25"
     inkscape:window-maximized="1" />
  <metadata
     id="metadata4">
    <rdf:RDF>
      <cc:Work
         rdf:about="">
        <dc:format>image/svg+xml</dc:format>
        <dc:type
           rdf:resource="http://purl.org/dc/dcmitype/StillImage" />
        <dc:title></dc:title>
      </cc:Work>
    </rdf:RDF>
  </metadata>
  <g
     inkscape:label="Layer 1"
     inkscape:groupmode="layer"
     id="layer1"
     transform="translate(-330.81569,-460.75309)">
    <g
       id="g2944"
       transform="translate(311.593,75.1455)">
      <path
         id="path6050"
         d="m 51.878238,426.82007 c -0.122756,-0.0709 5.014626,-3.27534 5.014626,-3.27534 l 0.125,-2.75 -5.25,2.5 0.110374,3.52534 z"
         style="fill:#a40000;fill-rule:evenodd;stroke:none" />
      <g
         transform="translate(-36.3681,47.9933)"
         id="g6052">
        <path
           sodipodi:type="arc"
           style="fill:#cc0000;fill-opacity:1;fill-rule:nonzero;stroke:none"
           id="path6054"
           sodipodi:cx="136.67287"
           sodipodi:cy="261.99792"
           sodipodi:rx="11.916239"
           sodipodi:ry="8.0419703"
           d="m 148.58911,261.99792 c 0,4.44146 -5.33509,8.04198 -11.91624,8.04198 -6.58116,0 -11.91624,-3.60052 -11.91624,-8.04198 0,-4.44145 5.33508,-8.04197 11.91624,-8.04197 6.58115,0 11.91624,3.60052 11.91624,8.04197 z"
           transform="matrix(-0.183144,-0.2966,0.2966,-0.183144,41.2824,467.878)" />
        <path
           sodipodi:nodetypes="cccccsc"
           id="path6056"
           d="m 92.872153,375.5268 c -0.395819,-0.003 -0.767445,0.091 -1.096607,0.29421 l -2.23173,1.28383 4.059921,7.26168 2.81233,-1.68503 c 1.047466,-0.94151 1.047462,-2.99635 -0.06687,-4.801 -0.90351,-1.46322 -2.289591,-2.34548 -3.477047,-2.35369 z"
           style="fill:url(#linearGradient6062);fill-opacity:1;fill-rule:evenodd;stroke:#000000;stroke-width:0.213972;stroke-linecap:butt;stroke-linejoin:miter;stroke-miterlimit:4;stroke-opacity:1;stroke-dasharray:none" />
        <path
           transform="matrix(-0.183144,-0.2966,0.2966,-0.183144,38.8934,469.257)"
           d="m 148.58911,261.99792 c 0,4.44146 -5.33509,8.04198 -11.91624,8.04198 -6.58116,0 -11.91624,-3.60052 -11.91624,-8.04198 0,-4.44145 5.33508,-8.04197 11.91624,-8.04197 6.58115,0 11.91624,3.60052 11.91624,8.04197 z"
           sodipodi:ry="8.0419703"
           sodipodi:rx="11.916239"
           sodipodi:cy="261.99792"
           sodipodi:cx="136.67287"
           id="path6058"
           style="fill:#555753;fill-opacity:1;fill-rule:nonzero;stroke:#000000;stroke-width:0.61382598;stroke-linecap:butt;stroke-linejoin:bevel;stroke-miterlimit:4;stroke-opacity:1;stroke-dasharray:none;stroke-dashoffset:0"
           sodipodi:type="arc" />
        <path
           transform="matrix(-0.10007,-0.162061,0.162061,-0.10007,62.7859,428.932)"
           d="m 148.58911,261.99792 c 0,4.44146 -5.33509,8.04198 -11.91624,8.04198 -6.58116,0 -11.91624,-3.60052 -11.91624,-8.04198 0,-4.44145 5.33508,-8.04197 11.91624,-8.04197 6.58115,0 11.91624,3.60052 11.91624,8.04197 z"
           sodipodi:ry="8.0419703"
           sodipodi:rx="11.916239"
           sodipodi:cy="261.99792"
           sodipodi:cx="136.67287"
           id="path6060"
           style="fill:#d3d7cf;fill-opacity:1;fill-rule:nonzero;stroke:none"
           sodipodi:type="arc" />
      </g>
      <path
         style="fill:#a40000;fill-rule:evenodd;stroke:none"
         d="m 29.050257,413.84688 c -0.122756,-0.0709 5.014626,-3.27534 5.014626,-3.27534 l 0.125,-2.75 -5.25,2.5 0.110374,3.52534 z"
         id="path6048" />
      <path
         id="path6046"
         d="m 20.762196,408.9369 c -0.122756,-0.0709 5.014626,-3.27534 5.014626,-3.27534 l 0.125,-2.75 -5.25,2.5 0.110374,3.52534 z"
         style="fill:#a40000;fill-rule:evenodd;stroke:none" />
      <g
         transform="translate(-59.0869,35.0514)"
         id="g5515">
        <path
           sodipodi:type="arc"
           style="fill:#cc0000;fill-opacity:1;fill-rule:nonzero;stroke:none"
           id="path5517"
           sodipodi:cx="136.67287"
           sodipodi:cy="261.99792"
           sodipodi:rx="11.916239"
           sodipodi:ry="8.0419703"
           d="m 148.58911,261.99792 c 0,4.44146 -5.33509,8.04198 -11.91624,8.04198 -6.58116,0 -11.91624,-3.60052 -11.91624,-8.04198 0,-4.44145 5.33508,-8.04197 11.91624,-8.04197 6.58115,0 11.91624,3.60052 11.91624,8.04197 z"
           transform="matrix(-0.183144,-0.2966,0.2966,-0.183144,41.2824,467.878)" />
        <path
           sodipodi:nodetypes="cccccsc"
           id="path5519"
           d="m 92.872153,375.5268 c -0.395819,-0.003 -0.767445,0.091 -1.096607,0.29421 l -2.23173,1.28383 4.059921,7.26168 2.81233,-1.68503 c 1.047466,-0.94151 1.047462,-2.99635 -0.06687,-4.801 -0.90351,-1.46322 -2.289591,-2.34548 -3.477047,-2.35369 z"
           style="fill:url(#linearGradient5527);fill-opacity:1;fill-rule:evenodd;stroke:#000000;stroke-width:0.213972;stroke-linecap:butt;stroke-linejoin:miter;stroke-miterlimit:4;stroke-opacity:1;stroke-dasharray:none" />
        <path
           transform="matrix(-0.183144,-0.2966,0.2966,-0.183144,38.8934,469.257)"
           d="m 148.58911,261.99792 c 0,4.44146 -5.33509,8.04198 -11.91624,8.04198 -6.58116,0 -11.91624,-3.60052 -11.91624,-8.04198 0,-4.44145 5.33508,-8.04197 11.91624,-8.04197 6.58115,0 11.91624,3.60052 11.91624,8.04197 z"
           sodipodi:ry="8.0419703"
           sodipodi:rx="11.916239"
           sodipodi:cy="261.99792"
           sodipodi:cx="136.67287"
           id="path5521"
           style="fill:#555753;fill-opacity:1;fill-rule:nonzero;stroke:#000000;stroke-width:0.61382598;stroke-linecap:butt;stroke-linejoin:bevel;stroke-miterlimit:4;stroke-opacity:1;stroke-dasharray:none;stroke-dashoffset:0"
           sodipodi:type="arc" />
        <path
           transform="matrix(-0.10007,-0.162061,0.162061,-0.10007,62.7859,428.932)"
           d="m 148.58911,261.99792 c 0,4.44146 -5.33509,8.04198 -11.91624,8.04198 -6.58116,0 -11.91624,-3.60052 -11.91624,-8.04198 0,-4.44145 5.33508,-8.04197 11.91624,-8.04197 6.58115,0 11.91624,3.60052 11.91624,8.04197 z"
           sodipodi:ry="8.0419703"
           sodipodi:rx="11.916239"
           sodipodi:cy="261.99792"
           sodipodi:cx="136.67287"
           id="path5523"
           style="fill:#d3d7cf;fill-opacity:1;fill-rule:nonzero;stroke:none"
           sodipodi:type="arc" />
      </g>
      <g
         id="g5505"
         transform="translate(-67.4732,29.8068)">
        <path
           transform="matrix(-0.183144,-0.2966,0.2966,-0.183144,41.2824,467.878)"
           d="m 148.58911,261.99792 c 0,4.44146 -5.33509,8.04198 -11.91624,8.04198 -6.58116,0 -11.91624,-3.60052 -11.91624,-8.04198 0,-4.44145 5.33508,-8.04197 11.91624,-8.04197 6.58115,0 11.91624,3.60052 11.91624,8.04197 z"
           sodipodi:ry="8.0419703"
           sodipodi:rx="11.916239"
           sodipodi:cy="261.99792"
           sodipodi:cx="136.67287"
           id="path5507"
           style="fill:#cc0000;fill-opacity:1;fill-rule:nonzero;stroke:none"
           sodipodi:type="arc" />
        <path
           style="fill:url(#linearGradient5525);fill-opacity:1;fill-rule:evenodd;stroke:#000000;stroke-width:0.213972;stroke-linecap:butt;stroke-linejoin:miter;stroke-miterlimit:4;stroke-opacity:1;stroke-dasharray:none"
           d="m 92.872153,375.5268 c -0.395819,-0.003 -0.767445,0.091 -1.096607,0.29421 l -2.23173,1.28383 4.059921,7.26168 2.81233,-1.68503 c 1.047466,-0.94151 1.047462,-2.99635 -0.06687,-4.801 -0.90351,-1.46322 -2.289591,-2.34548 -3.477047,-2.35369 z"
           id="path5509"
           sodipodi:nodetypes="cccccsc" />
        <path
           sodipodi:type="arc"
           style="fill:#555753;fill-opacity:1;fill-rule:nonzero;stroke:#000000;stroke-width:0.61382598;stroke-linecap:butt;stroke-linejoin:bevel;stroke-miterlimit:4;stroke-opacity:1;stroke-dasharray:none;stroke-dashoffset:0"
           id="path5511"
           sodipodi:cx="136.67287"
           sodipodi:cy="261.99792"
           sodipodi:rx="11.916239"
           sodipodi:ry="8.0419703"
           d="m 148.58911,261.99792 c 0,4.44146 -5.33509,8.04198 -11.91624,8.04198 -6.58116,0 -11.91624,-3.60052 -11.91624,-8.04198 0,-4.44145 5.33508,-8.04197 11.91624,-8.04197 6.58115,0 11.91624,3.60052 11.91624,8.04197 z"
           transform="matrix(-0.183144,-0.2966,0.2966,-0.183144,38.8934,469.257)" />
        <path
           sodipodi:type="arc"
           style="fill:#d3d7cf;fill-opacity:1;fill-rule:nonzero;stroke:none"
           id="path5513"
           sodipodi:cx="136.67287"
           sodipodi:cy="261.99792"
           sodipodi:rx="11.916239"
           sodipodi:ry="8.0419703"
           d="m 148.58911,261.99792 c 0,4.44146 -5.33509,8.04198 -11.91624,8.04198 -6.58116,0 -11.91624,-3.60052 -11.91624,-8.04198 0,-4.44145 5.33508,-8.04197 11.91624,-8.04197 6.58115,0 11.91624,3.60052 11.91624,8.04197 z"
           transform="matrix(-0.10007,-0.162061,0.162061,-0.10007,62.7859,428.932)" />
      </g>
      <path
         style="fill:#ef2929;fill-rule:evenodd;stroke:#000000;stroke-width:0.5;stroke-linecap:butt;stroke-linejoin:bevel;stroke-miterlimit:4;stroke-opacity:1;stroke-dasharray:none"
         d="m 34.862246,390.30202 -15.34297,8.85827 35.902267,20.709 14.989417,-9.91893 -35.548714,-19.64834 z"
         id="path3492"
         sodipodi:nodetypes="ccccc" />
      <path
         id="path3488"
         d="m 19.472693,399.33901 0.125,8.78125 1.09375,0.625 c 0.01685,-1.18001 0.464433,-2.19509 1.3125,-2.71875 0.408969,-0.25253 0.851966,-0.3784 1.34375,-0.375 1.475352,0.0102 3.189936,1.11952 4.3125,2.9375 1.001095,1.62127 1.256288,3.38241 0.84375,4.6875 l 0.5,0.28125 c 0.129992,-0.92889 0.541987,-1.71907 1.25,-2.15625 0.408969,-0.25253 0.851966,-0.3784 1.34375,-0.375 1.475352,0.0102 3.189936,1.11952 4.3125,2.9375 0.871123,1.41078 1.170454,2.92208 0.96875,4.15625 l 14.875,8.5625 c 0.109139,-0.98329 0.511255,-1.82509 1.25,-2.28125 0.408969,-0.25253 0.851966,-0.3784 1.34375,-0.375 1.475351,0.0102 3.189936,1.11952 4.3125,2.9375 0.899241,1.45631 1.212151,3.0276 0.96875,4.28125 l 6,3.46875 0,-17.71875 -9.96875,-5.625 -0.353553,8.41958 -35.833947,-20.45083 z"
         style="fill:#cc0000;fill-rule:evenodd;stroke:#000000;stroke-width:0.5;stroke-linecap:butt;stroke-linejoin:bevel;stroke-miterlimit:4;stroke-opacity:1;stroke-dasharray:none"
         sodipodi:nodetypes="cccsssccsssccssscccccc" />
      <path
         style="fill:#a40000;fill-rule:evenodd;stroke:#000000;stroke-width:0.5;stroke-linecap:butt;stroke-linejoin:bevel;stroke-miterlimit:4;stroke-opacity:1;stroke-dasharray:none"
         d="m 80.979546,425.84291 0,-17.71654 -15.34297,8.85827 0,17.71653 15.34297,-8.85826 z"
         id="path3490" />
      <path
         id="path3498"
         d="m 81.02374,414.81518 -0.04419,-6.68881 -15.34297,8.85827 0.04419,6.6888 15.34297,-8.85826 z"
         style="fill:#729fcf;fill-rule:evenodd;stroke:#000000;stroke-width:0.5;stroke-linecap:butt;stroke-linejoin:bevel;stroke-miterlimit:4;stroke-opacity:1;stroke-dasharray:none"
         sodipodi:nodetypes="ccccc" />
      <path
         sodipodi:nodetypes="ccccc"
         style="fill:#729fcf;fill-opacity:1;fill-rule:evenodd;stroke:#000000;stroke-width:0.5;stroke-linecap:butt;stroke-linejoin:miter;stroke-miterlimit:4;stroke-opacity:1;stroke-dasharray:none"
         d="m 64.627422,417.66475 -7.702379,-4.31255 0.09424,5.08074 7.515379,5.14609 0.09276,-5.91428 z"
         id="path3510" />
      <path
         sodipodi:nodetypes="ccccc"
         id="path3512"
         d="m 71.135733,402.58701 -15.342969,8.85827 9.796486,5.656 15.34297,-8.85827 -9.796487,-5.656 z"
         style="fill:#ef2929;fill-rule:evenodd;stroke:#000000;stroke-width:0.5;stroke-linecap:butt;stroke-linejoin:bevel;stroke-miterlimit:4;stroke-opacity:1;stroke-dasharray:none" />
      <path
         sodipodi:nodetypes="cccc"
         id="path3520"
         d="m 60.841916,412.98103 1.246643,-1.6322 1.396115,3.24477 -2.642758,-1.61257 z"
         style="fill:#ffffff;fill-rule:evenodd;stroke:#000000;stroke-width:0.5;stroke-linecap:butt;stroke-linejoin:bevel;stroke-miterlimit:4;stroke-opacity:1;stroke-dasharray:none" />
      <path
         style="fill:#ffffff;fill-rule:evenodd;stroke:#000000;stroke-width:0.43033299px;stroke-linecap:butt;stroke-linejoin:miter;stroke-opacity:1"
         d="m 63.530574,414.53334 -1.263759,-3.22973 13.205167,-7.62401 1.263759,3.22973 -13.205167,7.62401 z"
         id="path3518"
         sodipodi:nodetypes="ccccc" />
      <g
         transform="translate(-41.726,47.3965)"
         id="g6064">
        <path
           transform="matrix(0.653566,-0.235864,0,0.653566,40.1099,163.75)"
           d="m 110.35917,374.48795 c 0,1.42891 -1.29236,2.58727 -2.88656,2.58727 -1.5942,0 -2.88655,-1.15836 -2.88655,-2.58727 0,-1.42892 1.29235,-2.58728 2.88655,-2.58728 1.5942,0 2.88656,1.15836 2.88656,2.58728 z"
           sodipodi:ry="2.587275"
           sodipodi:rx="2.8865552"
           sodipodi:cy="374.48795"
           sodipodi:cx="107.47261"
           id="path6066"
           style="fill:#d3d7cf;fill-opacity:1;fill-rule:nonzero;stroke:none"
           sodipodi:type="arc" />
        <path
           sodipodi:type="arc"
           style="fill:#eeeeec;fill-opacity:1;fill-rule:nonzero;stroke:none"
           id="path6068"
           sodipodi:cx="107.47261"
           sodipodi:cy="374.48795"
           sodipodi:rx="2.8865552"
           sodipodi:ry="2.587275"
           d="m 110.35917,374.48795 c 0,1.42891 -1.29236,2.58727 -2.88656,2.58727 -1.5942,0 -2.88655,-1.15836 -2.88655,-2.58727 0,-1.42892 1.29235,-2.58728 2.88655,-2.58728 1.5942,0 2.88656,1.15836 2.88656,2.58728 z"
           transform="matrix(0.439221,-0.158509,0,0.439221,63.1461,235.706)" />
        <path
           transform="matrix(0.145978,-0.0526814,0,0.145978,94.1719,333.892)"
           d="m 110.35917,374.48795 c 0,1.42891 -1.29236,2.58727 -2.88656,2.58727 -1.5942,0 -2.88655,-1.15836 -2.88655,-2.58727 0,-1.42892 1.29235,-2.58728 2.88655,-2.58728 1.5942,0 2.88656,1.15836 2.88656,2.58728 z"
           sodipodi:ry="2.587275"
           sodipodi:rx="2.8865552"
           sodipodi:cy="374.48795"
           sodipodi:cx="107.47261"
           id="path6070"
           style="fill:#ffffff;fill-opacity:1;fill-rule:nonzero;stroke:none"
           sodipodi:type="arc" />
      </g>
      <g
         id="g6072"
         transform="translate(-31.5615,41.3667)">
        <path
           sodipodi:type="arc"
           style="fill:#d3d7cf;fill-opacity:1;fill-rule:nonzero;stroke:none"
           id="path6074"
           sodipodi:cx="107.47261"
           sodipodi:cy="374.48795"
           sodipodi:rx="2.8865552"
           sodipodi:ry="2.587275"
           d="m 110.35917,374.48795 c 0,1.42891 -1.29236,2.58727 -2.88656,2.58727 -1.5942,0 -2.88655,-1.15836 -2.88655,-2.58727 0,-1.42892 1.29235,-2.58728 2.88655,-2.58728 1.5942,0 2.88656,1.15836 2.88656,2.58728 z"
           transform="matrix(0.653566,-0.235864,0,0.653566,40.1099,163.75)" />
        <path
           transform="matrix(0.439221,-0.158509,0,0.439221,63.1461,235.706)"
           d="m 110.35917,374.48795 c 0,1.42891 -1.29236,2.58727 -2.88656,2.58727 -1.5942,0 -2.88655,-1.15836 -2.88655,-2.58727 0,-1.42892 1.29235,-2.58728 2.88655,-2.58728 1.5942,0 2.88656,1.15836 2.88656,2.58728 z"
           sodipodi:ry="2.587275"
           sodipodi:rx="2.8865552"
           sodipodi:cy="374.48795"
           sodipodi:cx="107.47261"
           id="path6076"
           style="fill:#eeeeec;fill-opacity:1;fill-rule:nonzero;stroke:none"
           sodipodi:type="arc" />
        <path
           sodipodi:type="arc"
           style="fill:#ffffff;fill-opacity:1;fill-rule:nonzero;stroke:none"
           id="path6078"
           sodipodi:cx="107.47261"
           sodipodi:cy="374.48795"
           sodipodi:rx="2.8865552"
           sodipodi:ry="2.587275"
           d="m 110.35917,374.48795 c 0,1.42891 -1.29236,2.58727 -2.88656,2.58727 -1.5942,0 -2.88655,-1.15836 -2.88655,-2.58727 0,-1.42892 1.29235,-2.58728 2.88655,-2.58728 1.5942,0 2.88656,1.15836 2.88656,2.58728 z"
           transform="matrix(0.145978,-0.0526814,0,0.145978,94.1719,333.892)" />
      </g>
      <g
         id="g6080"
         transform="matrix(0.442764,0,0,0.442764,18.5238,258.119)">
        <path
           sodipodi:type="arc"
           style="fill:#d3d7cf;fill-opacity:1;fill-rule:nonzero;stroke:none"
           id="path6082"
           sodipodi:cx="107.47261"
           sodipodi:cy="374.48795"
           sodipodi:rx="2.8865552"
           sodipodi:ry="2.587275"
           d="m 110.35917,374.48795 c 0,1.42891 -1.29236,2.58727 -2.88656,2.58727 -1.5942,0 -2.88655,-1.15836 -2.88655,-2.58727 0,-1.42892 1.29235,-2.58728 2.88655,-2.58728 1.5942,0 2.88656,1.15836 2.88656,2.58728 z"
           transform="matrix(0.653566,-0.235864,0,0.653566,40.1099,163.75)" />
        <path
           transform="matrix(0.439221,-0.158509,0,0.439221,63.1461,235.706)"
           d="m 110.35917,374.48795 c 0,1.42891 -1.29236,2.58727 -2.88656,2.58727 -1.5942,0 -2.88655,-1.15836 -2.88655,-2.58727 0,-1.42892 1.29235,-2.58728 2.88655,-2.58728 1.5942,0 2.88656,1.15836 2.88656,2.58728 z"
           sodipodi:ry="2.587275"
           sodipodi:rx="2.8865552"
           sodipodi:cy="374.48795"
           sodipodi:cx="107.47261"
           id="path6084"
           style="fill:#f57900;fill-opacity:1;fill-rule:nonzero;stroke:none"
           sodipodi:type="arc" />
        <path
           sodipodi:type="arc"
           style="fill:#ffffff;fill-opacity:1;fill-rule:nonzero;stroke:none"
           id="path6086"
           sodipodi:cx="107.47261"
           sodipodi:cy="374.48795"
           sodipodi:rx="2.8865552"
           sodipodi:ry="2.587275"
           d="m 110.35917,374.48795 c 0,1.42891 -1.29236,2.58727 -2.88656,2.58727 -1.5942,0 -2.88655,-1.15836 -2.88655,-2.58727 0,-1.42892 1.29235,-2.58728 2.88655,-2.58728 1.5942,0 2.88656,1.15836 2.88656,2.58728 z"
           transform="matrix(0.145978,-0.0526814,0,0.145978,94.1719,333.892)" />
      </g>
      <g
         transform="matrix(0.442764,0,0,0.442764,30.6927,251.794)"
         id="g6092">
        <path
           transform="matrix(0.653566,-0.235864,0,0.653566,40.1099,163.75)"
           d="m 110.35917,374.48795 c 0,1.42891 -1.29236,2.58727 -2.88656,2.58727 -1.5942,0 -2.88655,-1.15836 -2.88655,-2.58727 0,-1.42892 1.29235,-2.58728 2.88655,-2.58728 1.5942,0 2.88656,1.15836 2.88656,2.58728 z"
           sodipodi:ry="2.587275"
           sodipodi:rx="2.8865552"
           sodipodi:cy="374.48795"
           sodipodi:cx="107.47261"
           id="path6094"
           style="fill:#d3d7cf;fill-opacity:1;fill-rule:nonzero;stroke:none"
           sodipodi:type="arc" />
        <path
           sodipodi:type="arc"
           style="fill:#f57900;fill-opacity:1;fill-rule:nonzero;stroke:none"
           id="path6096"
           sodipodi:cx="107.47261"
           sodipodi:cy="374.48795"
           sodipodi:rx="2.8865552"
           sodipodi:ry="2.587275"
           d="m 110.35917,374.48795 c 0,1.42891 -1.29236,2.58727 -2.88656,2.58727 -1.5942,0 -2.88655,-1.15836 -2.88655,-2.58727 0,-1.42892 1.29235,-2.58728 2.88655,-2.58728 1.5942,0 2.88656,1.15836 2.88656,2.58728 z"
           transform="matrix(0.439221,-0.158509,0,0.439221,63.1461,235.706)" />
        <path
           transform="matrix(0.145978,-0.0526814,0,0.145978,94.1719,333.892)"
           d="m 110.35917,374.48795 c 0,1.42891 -1.29236,2.58727 -2.88656,2.58727 -1.5942,0 -2.88655,-1.15836 -2.88655,-2.58727 0,-1.42892 1.29235,-2.58728 2.88655,-2.58728 1.5942,0 2.88656,1.15836 2.88656,2.58728 z"
           sodipodi:ry="2.587275"
           sodipodi:rx="2.8865552"
           sodipodi:cy="374.48795"
           sodipodi:cx="107.47261"
           id="path6098"
           style="fill:#ffffff;fill-opacity:1;fill-rule:nonzero;stroke:none"
           sodipodi:type="arc" />
      </g>
      <path
         sodipodi:nodetypes="ccccc"
         id="path6107"
         d="m 64.875822,410.04295 1.184356,2.80553 7.244998,-4.19846 -1.521852,-2.58535 -6.907502,3.97828 z"
         style="fill:#babdb6;fill-rule:evenodd;stroke:none" />
      <path
         sodipodi:type="arc"
         style="fill:#2e3436;fill-opacity:1;fill-rule:nonzero;stroke:none"
         id="path6109"
         sodipodi:cx="136.67287"
         sodipodi:cy="261.99792"
         sodipodi:rx="11.916239"
         sodipodi:ry="8.0419703"
         d="m 148.58911,261.99792 c 0,4.44146 -5.33509,8.04198 -11.91624,8.04198 -6.58116,0 -11.91624,-3.60052 -11.91624,-8.04198 0,-4.44145 5.33508,-8.04197 11.91624,-8.04197 6.58115,0 11.91624,3.60052 11.91624,8.04197 z"
         transform="matrix(0.667705,0,0,0.667705,-53.5544,225.307)" />
      <path
         transform="matrix(0.667705,0,0,0.667705,-53.5544,223.307)"
         d="m 148.58911,261.99792 c 0,4.44146 -5.33509,8.04198 -11.91624,8.04198 -6.58116,0 -11.91624,-3.60052 -11.91624,-8.04198 0,-4.44145 5.33508,-8.04197 11.91624,-8.04197 6.58115,0 11.91624,3.60052 11.91624,8.04197 z"
         sodipodi:ry="8.0419703"
         sodipodi:rx="11.916239"
         sodipodi:cy="261.99792"
         sodipodi:cx="136.67287"
         id="path6111"
         style="fill:#888a85;fill-opacity:1;fill-rule:nonzero;stroke:none"
         sodipodi:type="arc" />
      <g
         transform="matrix(0.234357,0,0,0.234357,33.349,314.483)"
         id="g6150">
        <g
           transform="translate(10.8444,-5.09156)"
           id="g6265">
          <path
             id="path6148"
             d="m 12.576851,329.869 15.34297,8.85827 L 2.95185,353.31452 -12.39112,344.45625 12.576851,329.869 z"
             style="fill:#eeeeec;fill-rule:evenodd;stroke:#000000;stroke-width:1px;stroke-linecap:butt;stroke-linejoin:bevel;stroke-opacity:1"
             sodipodi:nodetypes="ccccc" />
          <path
             id="path6113"
             d="M -15.34297,370.27557 0,379.13384 l 0,-35.43307 -15.34297,-8.85827 0,35.43307 z"
             style="fill:#babdb6;fill-rule:evenodd;stroke:#000000;stroke-width:1px;stroke-linecap:butt;stroke-linejoin:bevel;stroke-opacity:1" />
          <path
             sodipodi:nodetypes="ccccccccc"
             id="path6117"
             d="m 30.408114,325.51637 -2.6875,1.5625 0,11.375 -24.7448019,15.12243 0,-11.375 -2.81249997,1.59375 0,35.4375 30.24480187,-18.27868 0,-35.4375 z"
             style="fill:#555753;fill-rule:evenodd;stroke:#000000;stroke-width:1px;stroke-linecap:butt;stroke-linejoin:bevel;stroke-opacity:1" />
          <path
             sodipodi:nodetypes="ccccc"
             style="fill:#eeeeec;fill-rule:evenodd;stroke:#000000;stroke-width:1px;stroke-linecap:butt;stroke-linejoin:bevel;stroke-opacity:1"
             d="M -12.57685,333.24548 2.7661199,342.10375 0,343.70077 l -15.34297,-8.85827 2.76612,-1.59702 z"
             id="path6142" />
          <path
             id="path6144"
             d="m 14.806533,316.53589 15.34297,8.85827 -2.76612,1.59702 -15.34297,-8.85827 2.76612,-1.59702 z"
             style="fill:#eeeeec;fill-rule:evenodd;stroke:#000000;stroke-width:1px;stroke-linecap:butt;stroke-linejoin:bevel;stroke-opacity:1"
             sodipodi:nodetypes="ccccc" />
          <path
             sodipodi:nodetypes="ccccc"
             style="fill:#babdb6;fill-rule:evenodd;stroke:#000000;stroke-width:1px;stroke-linecap:butt;stroke-linejoin:bevel;stroke-opacity:1"
             d="m 12.067147,329.72693 15.34297,8.85827 -0.14112,-11.52798 -15.34297,-8.85827 0.14112,11.52798 z"
             id="path6146" />
        </g>
      </g>
      <g
         transform="matrix(0.811121,0,0,0.811121,69.5147,103.659)"
         id="g6246">
        <path
           id="path6290"
           d="M -41.002864,349.75699 4.5119962,376.035 4.6355398,373.49216 -41.10049,347.60361 l 0.09763,2.15338 z"
           style="fill:#d3d7cf;fill-rule:evenodd;stroke:none"
           sodipodi:nodetypes="ccccc" />
        <path
           style="fill:#eeeeec;fill-opacity:1;fill-rule:evenodd;stroke:none"
           d="m 2.8125,373.375 -6.125,3.5625 0.5,0.84375 6.125,-3.53125 -0.5,-0.875 z"
           id="path6176" />
        <path
           id="path6182"
           d="m -0.01218785,372.02803 -6.12500005,3.5625 0.5,0.84375 6.12500005,-3.53125 -0.5,-0.875 z"
           style="fill:#eeeeec;fill-opacity:1;fill-rule:evenodd;stroke:none" />
        <path
           style="fill:#eeeeec;fill-opacity:1;fill-rule:evenodd;stroke:none"
           d="m -3.068594,370.27557 -6.125,3.5625 0.5,0.84375 6.125,-3.53125 -0.5,-0.875 z"
           id="path6184" />
        <path
           id="path6186"
           d="m -6.1371879,368.50391 -6.1250001,3.5625 0.5,0.84375 6.1250001,-3.53125 -0.5,-0.875 z"
           style="fill:#eeeeec;fill-opacity:1;fill-rule:evenodd;stroke:none" />
        <path
           style="fill:#eeeeec;fill-opacity:1;fill-rule:evenodd;stroke:none"
           d="m -9.2179697,366.71307 -6.1250003,3.5625 0.5,0.84375 6.1250003,-3.53125 -0.5,-0.875 z"
           id="path6188" />
        <path
           id="path6190"
           d="m -12.274376,364.96061 -6.125,3.5625 0.5,0.84375 6.125,-3.53125 -0.5,-0.875 z"
           style="fill:#eeeeec;fill-opacity:1;fill-rule:evenodd;stroke:none" />
        <path
           style="fill:#eeeeec;fill-opacity:1;fill-rule:evenodd;stroke:none"
           d="m -15.34297,363.18895 -6.125,3.5625 0.5,0.84375 6.125,-3.53125 -0.5,-0.875 z"
           id="path6192" />
        <path
           id="path6194"
           d="m -18.423752,361.39811 -6.125,3.5625 0.5,0.84375 6.125,-3.53125 -0.5,-0.875 z"
           style="fill:#eeeeec;fill-opacity:1;fill-rule:evenodd;stroke:none" />
        <path
           style="fill:#eeeeec;fill-opacity:1;fill-rule:evenodd;stroke:none"
           d="m -21.480158,359.64565 -6.125,3.5625 0.5,0.84375 6.125,-3.53125 -0.5,-0.875 z"
           id="path6196" />
        <path
           id="path6198"
           d="m -24.56094,357.8548 -6.125,3.5625 0.5,0.84375 6.125,-3.53125 -0.5,-0.875 z"
           style="fill:#eeeeec;fill-opacity:1;fill-rule:evenodd;stroke:none" />
        <path
           style="fill:#eeeeec;fill-opacity:1;fill-rule:evenodd;stroke:none"
           d="m -27.617346,356.10234 -6.125,3.5625 0.5,0.84375 6.125,-3.53125 -0.5,-0.875 z"
           id="path6200" />
        <path
           id="path6202"
           d="m -30.68594,354.33069 -6.125,3.5625 0.5,0.84375 6.125,-3.53125 -0.5,-0.875 z"
           style="fill:#eeeeec;fill-opacity:1;fill-rule:evenodd;stroke:none" />
        <path
           style="fill:#eeeeec;fill-opacity:1;fill-rule:evenodd;stroke:none"
           d="m -33.754533,352.55903 -6.125,3.5625 0.5,0.84375 6.125,-3.53125 -0.5,-0.875 z"
           id="path6204" />
        <path
           id="path6206"
           d="m -36.823127,350.78738 -6.125,3.5625 0.5,0.84375 6.125,-3.53125 -0.5,-0.875 z"
           style="fill:#eeeeec;fill-opacity:1;fill-rule:evenodd;stroke:none" />
        <path
           style="fill:#eeeeec;fill-opacity:1;fill-rule:evenodd;stroke:none"
           d="m -39.903909,348.99653 -6.125,3.5625 0.5,0.84375 6.125,-3.53125 -0.5,-0.875 z"
           id="path6208" />
        <path
           sodipodi:nodetypes="ccccc"
           style="fill:#d3d7cf;fill-rule:evenodd;stroke:none"
           d="m -46.843964,353.47124 45.5303341,26.28695 -0.1767505,-2.21878 -45.4512096,-26.22155 0.09763,2.15338 z"
           id="path6172" />
      </g>
      <path
         sodipodi:nodetypes="ccccc"
         id="path6328"
         d="m 70.11546,420.68417 0.89755,-0.45148 5.104792,-8.7111 -1.68552,0.97314 -4.316822,8.18944 z"
         style="fill:#ffffff;fill-rule:evenodd;stroke:none" />
      <path
         style="fill:#ffffff;fill-rule:evenodd;stroke:none"
         d="m 72.077363,419.61818 0.89755,-0.45148 5.104792,-8.7111 -1.68552,0.97314 -4.316822,8.18944 z"
         id="path6330"
         sodipodi:nodetypes="ccccc" />
    </g>
  </g>
</svg>
