<?xml version="1.0" encoding="UTF-8" standalone="no"?>
<!-- Created with Inkscape (http://www.inkscape.org/) -->

<svg
   xmlns:dc="http://purl.org/dc/elements/1.1/"
   xmlns:cc="http://creativecommons.org/ns#"
   xmlns:rdf="http://www.w3.org/1999/02/22-rdf-syntax-ns#"
   xmlns:svg="http://www.w3.org/2000/svg"
   xmlns="http://www.w3.org/2000/svg"
   xmlns:xlink="http://www.w3.org/1999/xlink"
   xmlns:sodipodi="http://sodipodi.sourceforge.net/DTD/sodipodi-0.dtd"
   xmlns:inkscape="http://www.inkscape.org/namespaces/inkscape"
   width="58.808228"
   height="57.795181"
   id="svg3897"
   version="1.1"
   inkscape:version="0.47pre1 r21720"
   sodipodi:docname="New document 8"
   inkscape:output_extension="org.inkscape.output.svg.inkscape">
  <defs
     id="defs3899">
    <inkscape:perspective
       sodipodi:type="inkscape:persp3d"
       inkscape:vp_x="0 : 300 : 1"
       inkscape:vp_y="0 : 1000 : 0"
       inkscape:vp_z="800 : 300 : 1"
       inkscape:persp3d-origin="400 : 200 : 1"
       id="perspective3905" />
    <inkscape:perspective
       id="perspective3796"
       inkscape:persp3d-origin="0.5 : 0.33333333 : 1"
       inkscape:vp_z="1 : 0.5 : 1"
       inkscape:vp_y="0 : 1000 : 0"
       inkscape:vp_x="0 : 0.5 : 1"
       sodipodi:type="inkscape:persp3d" />
    <linearGradient
       inkscape:collect="always"
       xlink:href="#linearGradient6633"
       id="linearGradient2856"
       gradientUnits="userSpaceOnUse"
       spreadMethod="reflect"
       x1="6.5225167"
       y1="428.96262"
       x2="5.3033009"
       y2="430.68274"
       gradientTransform="translate(-62.7875,36.4237)" />
    <linearGradient
       inkscape:collect="always"
       id="linearGradient6633">
      <stop
         style="stop-color: rgb(211, 215, 207); stop-opacity: 1;"
         offset="0"
         id="stop6635" />
      <stop
         style="stop-color: rgb(136, 138, 133); stop-opacity: 1;"
         offset="1"
         id="stop6637" />
    </linearGradient>
    <linearGradient
       inkscape:collect="always"
       xlink:href="#linearGradient3689"
       id="linearGradient2858"
       gradientUnits="userSpaceOnUse"
       gradientTransform="matrix(0.427944,0,0,0.427944,33.7787,217.069)"
       x1="138.08673"
       y1="370.27557"
       x2="146.77179"
       y2="382.97778" />
    <linearGradient
       inkscape:collect="always"
       id="linearGradient3689">
      <stop
         style="stop-color: rgb(211, 215, 207); stop-opacity: 1;"
         offset="0"
         id="stop3691" />
      <stop
         style="stop-color: rgb(0, 0, 0); stop-opacity: 1;"
         offset="1"
         id="stop3693" />
    </linearGradient>
    <linearGradient
       inkscape:collect="always"
       xlink:href="#linearGradient3689"
       id="linearGradient2860"
       gradientUnits="userSpaceOnUse"
       gradientTransform="matrix(0.427944,0,0,0.427944,33.7787,217.069)"
       x1="138.08673"
       y1="370.27557"
       x2="146.77179"
       y2="382.97778" />
    <linearGradient
       inkscape:collect="always"
       xlink:href="#linearGradient3689"
       id="linearGradient2866"
       gradientUnits="userSpaceOnUse"
       gradientTransform="matrix(0.427944,0,0,0.427944,33.7787,217.069)"
       x1="138.08673"
       y1="370.27557"
       x2="146.77179"
       y2="382.97778" />
  </defs>
  <sodipodi:namedview
     id="base"
     pagecolor="#ffffff"
     bordercolor="#666666"
     borderopacity="1.0"
     inkscape:pageopacity="0.0"
     inkscape:pageshadow="2"
     inkscape:zoom="0.6"
     inkscape:cx="386.07078"
     inkscape:cy="0.51341834"
     inkscape:current-layer="layer1"
     inkscape:document-units="px"
     showgrid="false"
     inkscape:window-width="607"
     inkscape:window-height="495"
     inkscape:window-x="0"
     inkscape:window-y="25"
     inkscape:window-maximized="0" />
  <metadata
     id="metadata3902">
    <rdf:RDF>
      <cc:Work
         rdf:about="">
        <dc:format>image/svg+xml</dc:format>
        <dc:type
           rdf:resource="http://purl.org/dc/dcmitype/StillImage" />
        <dc:title></dc:title>
      </cc:Work>
    </rdf:RDF>
  </metadata>
  <g
     id="layer1"
     inkscape:label="Layer 1"
     inkscape:groupmode="layer"
     transform="translate(-13.929219,-66.10241)">
    <g
       id="g2868"
       transform="translate(94.635541,-356.53257)">
      <path
         style="fill:url(#linearGradient2856);fill-opacity:1;fill-rule:nonzero;stroke:#000000;stroke-width:0.5;stroke-linecap:round;stroke-linejoin:round;stroke-miterlimit:4;stroke-opacity:1;stroke-dasharray:none;stroke-dashoffset:0"
         d="m -57.937668,462.72754 c -0.225679,-0.004 -0.458405,0.0623 -0.71875,0.15625 -1.041378,0.37582 -1.90625,1.4416 -1.90625,2.375 0,0.58338 0.341897,0.97089 0.84375,1.09375 l 5.506094,3.17079 3.09375,-3.0625 -6.162344,-3.51454 -0.03125,-0.0312 c -0.177756,-0.10392 -0.383523,-0.18305 -0.625,-0.1875 z"
         id="path2684"
         sodipodi:nodetypes="csscccccc" />
      <path
         transform="matrix(0.653566,-0.235864,0,0.653566,-123.122,248.397)"
         d="m 110.35917,374.48795 c 0,1.42891 -1.29236,2.58727 -2.88656,2.58727 -1.5942,0 -2.88655,-1.15836 -2.88655,-2.58727 0,-1.42892 1.29235,-2.58728 2.88655,-2.58728 1.5942,0 2.88656,1.15836 2.88656,2.58728 z"
         sodipodi:ry="2.587275"
         sodipodi:rx="2.8865552"
         sodipodi:cy="374.48795"
         sodipodi:cx="107.47261"
         id="path2686"
         style="fill:#555753;fill-opacity:1;fill-rule:nonzero;stroke:#000000;stroke-width:0.76503301;stroke-linecap:round;stroke-linejoin:round;stroke-miterlimit:4;stroke-opacity:1;stroke-dasharray:none;stroke-dashoffset:0"
         sodipodi:type="arc" />
      <g
         id="g2688"
         transform="translate(-168.691,75.2111)">
        <path
           transform="matrix(-0.183144,-0.2966,0.2966,-0.183144,41.2824,467.878)"
           d="m 148.58911,261.99792 c 0,4.44146 -5.33509,8.04198 -11.91624,8.04198 -6.58116,0 -11.91624,-3.60052 -11.91624,-8.04198 0,-4.44145 5.33508,-8.04197 11.91624,-8.04197 6.58115,0 11.91624,3.60052 11.91624,8.04197 z"
           sodipodi:ry="8.0419703"
           sodipodi:rx="11.916239"
           sodipodi:cy="261.99792"
           sodipodi:cx="136.67287"
           id="path2690"
           style="fill:#cc0000;fill-opacity:1;fill-rule:nonzero;stroke:none"
           sodipodi:type="arc" />
        <path
           style="fill:url(#linearGradient2858);fill-opacity:1;fill-rule:evenodd;stroke:#000000;stroke-width:0.213972;stroke-linecap:butt;stroke-linejoin:miter;stroke-miterlimit:4;stroke-opacity:1;stroke-dasharray:none"
           d="m 92.872153,375.5268 c -0.395819,-0.003 -0.767445,0.091 -1.096607,0.29421 l -2.23173,1.28383 4.059921,7.26168 2.81233,-1.68503 c 1.047466,-0.94151 1.047462,-2.99635 -0.06687,-4.801 -0.90351,-1.46322 -2.289591,-2.34548 -3.477047,-2.35369 z"
           id="path2692"
           sodipodi:nodetypes="cccccsc" />
        <path
           sodipodi:type="arc"
           style="fill:#555753;fill-opacity:1;fill-rule:nonzero;stroke:#000000;stroke-width:0.61382598;stroke-linecap:butt;stroke-linejoin:bevel;stroke-miterlimit:4;stroke-opacity:1;stroke-dasharray:none;stroke-dashoffset:0"
           id="path2694"
           sodipodi:cx="136.67287"
           sodipodi:cy="261.99792"
           sodipodi:rx="11.916239"
           sodipodi:ry="8.0419703"
           d="m 148.58911,261.99792 c 0,4.44146 -5.33509,8.04198 -11.91624,8.04198 -6.58116,0 -11.91624,-3.60052 -11.91624,-8.04198 0,-4.44145 5.33508,-8.04197 11.91624,-8.04197 6.58115,0 11.91624,3.60052 11.91624,8.04197 z"
           transform="matrix(-0.183144,-0.2966,0.2966,-0.183144,38.8934,469.257)" />
        <path
           sodipodi:type="arc"
           style="fill:#d3d7cf;fill-opacity:1;fill-rule:nonzero;stroke:none"
           id="path2696"
           sodipodi:cx="136.67287"
           sodipodi:cy="261.99792"
           sodipodi:rx="11.916239"
           sodipodi:ry="8.0419703"
           d="m 148.58911,261.99792 c 0,4.44146 -5.33509,8.04198 -11.91624,8.04198 -6.58116,0 -11.91624,-3.60052 -11.91624,-8.04198 0,-4.44145 5.33508,-8.04197 11.91624,-8.04197 6.58115,0 11.91624,3.60052 11.91624,8.04197 z"
           transform="matrix(-0.10007,-0.162061,0.162061,-0.10007,62.7859,428.932)" />
      </g>
      <g
         transform="translate(-162.34,79.3205)"
         id="g2698">
        <path
           sodipodi:type="arc"
           style="fill:#cc0000;fill-opacity:1;fill-rule:nonzero;stroke:none"
           id="path2700"
           sodipodi:cx="136.67287"
           sodipodi:cy="261.99792"
           sodipodi:rx="11.916239"
           sodipodi:ry="8.0419703"
           d="m 148.58911,261.99792 c 0,4.44146 -5.33509,8.04198 -11.91624,8.04198 -6.58116,0 -11.91624,-3.60052 -11.91624,-8.04198 0,-4.44145 5.33508,-8.04197 11.91624,-8.04197 6.58115,0 11.91624,3.60052 11.91624,8.04197 z"
           transform="matrix(-0.183144,-0.2966,0.2966,-0.183144,41.2824,467.878)" />
        <path
           sodipodi:nodetypes="cccccsc"
           id="path2702"
           d="m 92.872153,375.5268 c -0.395819,-0.003 -0.767445,0.091 -1.096607,0.29421 l -2.23173,1.28383 4.059921,7.26168 2.81233,-1.68503 c 1.047466,-0.94151 1.047462,-2.99635 -0.06687,-4.801 -0.90351,-1.46322 -2.289591,-2.34548 -3.477047,-2.35369 z"
           style="fill:url(#linearGradient2860);fill-opacity:1;fill-rule:evenodd;stroke:#000000;stroke-width:0.213972;stroke-linecap:butt;stroke-linejoin:miter;stroke-miterlimit:4;stroke-opacity:1;stroke-dasharray:none" />
        <path
           transform="matrix(-0.183144,-0.2966,0.2966,-0.183144,38.8934,469.257)"
           d="m 148.58911,261.99792 c 0,4.44146 -5.33509,8.04198 -11.91624,8.04198 -6.58116,0 -11.91624,-3.60052 -11.91624,-8.04198 0,-4.44145 5.33508,-8.04197 11.91624,-8.04197 6.58115,0 11.91624,3.60052 11.91624,8.04197 z"
           sodipodi:ry="8.0419703"
           sodipodi:rx="11.916239"
           sodipodi:cy="261.99792"
           sodipodi:cx="136.67287"
           id="path2704"
           style="fill:#555753;fill-opacity:1;fill-rule:nonzero;stroke:#000000;stroke-width:0.61382598;stroke-linecap:butt;stroke-linejoin:bevel;stroke-miterlimit:4;stroke-opacity:1;stroke-dasharray:none;stroke-dashoffset:0"
           sodipodi:type="arc" />
        <path
           transform="matrix(-0.10007,-0.162061,0.162061,-0.10007,62.7859,428.932)"
           d="m 148.58911,261.99792 c 0,4.44146 -5.33509,8.04198 -11.91624,8.04198 -6.58116,0 -11.91624,-3.60052 -11.91624,-8.04198 0,-4.44145 5.33508,-8.04197 11.91624,-8.04197 6.58115,0 11.91624,3.60052 11.91624,8.04197 z"
           sodipodi:ry="8.0419703"
           sodipodi:rx="11.916239"
           sodipodi:cy="261.99792"
           sodipodi:cx="136.67287"
           id="path2706"
           style="fill:#d3d7cf;fill-opacity:1;fill-rule:nonzero;stroke:none"
           sodipodi:type="arc" />
      </g>
      <path
         id="path2708"
         d="m -65.113352,441.75998 -15.34297,8.85827 30.68594,17.71653 15.34297,-8.85827 -30.68594,-17.71653 z"
         style="fill:#555753;fill-rule:evenodd;stroke:#000000;stroke-width:0.5;stroke-linecap:round;stroke-linejoin:bevel;stroke-miterlimit:4;stroke-opacity:1;stroke-dasharray:none"
         sodipodi:nodetypes="ccccc" />
      <path
         sodipodi:nodetypes="ccccc"
         style="fill:#d3d7cf;fill-rule:evenodd;stroke:#000000;stroke-width:0.5;stroke-linecap:butt;stroke-linejoin:bevel;stroke-miterlimit:4;stroke-opacity:1;stroke-dasharray:none"
         d="m -79.206322,449.58479 30.68594,17.71653 0,-17.71654 -30.68594,-17.71653 0,17.71654 z"
         id="path2710" />
      <path
         id="path2712"
         d="m -33.302412,458.31805 -15.34297,8.85827 0,-17.71654 15.34297,-8.85827 0,17.71654 z"
         style="fill:#888a85;fill-rule:evenodd;stroke:#000000;stroke-width:0.5;stroke-linecap:round;stroke-linejoin:bevel;stroke-miterlimit:4;stroke-opacity:1;stroke-dasharray:none"
         sodipodi:nodetypes="ccccc" />
      <path
         sodipodi:nodetypes="ccccc"
         style="fill:#eeeeec;fill-rule:evenodd;stroke:#000000;stroke-width:0.5;stroke-linecap:round;stroke-linejoin:bevel;stroke-miterlimit:4;stroke-opacity:1;stroke-dasharray:none"
         d="m -63.988352,422.88498 -15.34297,8.85827 30.68594,17.71653 15.34297,-8.85827 -30.68594,-17.71653 z"
         id="path2714" />
      <g
         transform="translate(-139.54,93.4594)"
         id="g2740">
        <path
           sodipodi:type="arc"
           style="fill:#cc0000;fill-opacity:1;fill-rule:nonzero;stroke:none"
           id="path2742"
           sodipodi:cx="136.67287"
           sodipodi:cy="261.99792"
           sodipodi:rx="11.916239"
           sodipodi:ry="8.0419703"
           d="m 148.58911,261.99792 c 0,4.44146 -5.33509,8.04198 -11.91624,8.04198 -6.58116,0 -11.91624,-3.60052 -11.91624,-8.04198 0,-4.44145 5.33508,-8.04197 11.91624,-8.04197 6.58115,0 11.91624,3.60052 11.91624,8.04197 z"
           transform="matrix(-0.183144,-0.2966,0.2966,-0.183144,41.2824,467.878)" />
        <path
           sodipodi:nodetypes="cccccsc"
           id="path2744"
           d="m 92.872153,375.5268 c -0.395819,-0.003 -0.767445,0.091 -1.096607,0.29421 l -2.23173,1.28383 4.059921,7.26168 2.81233,-1.68503 c 1.047466,-0.94151 1.047462,-2.99635 -0.06687,-4.801 -0.90351,-1.46322 -2.289591,-2.34548 -3.477047,-2.35369 z"
           style="fill:url(#linearGradient2866);fill-opacity:1;fill-rule:evenodd;stroke:#000000;stroke-width:0.213972;stroke-linecap:butt;stroke-linejoin:miter;stroke-miterlimit:4;stroke-opacity:1;stroke-dasharray:none" />
        <path
           transform="matrix(-0.183144,-0.2966,0.2966,-0.183144,38.8934,469.257)"
           d="m 148.58911,261.99792 c 0,4.44146 -5.33509,8.04198 -11.91624,8.04198 -6.58116,0 -11.91624,-3.60052 -11.91624,-8.04198 0,-4.44145 5.33508,-8.04197 11.91624,-8.04197 6.58115,0 11.91624,3.60052 11.91624,8.04197 z"
           sodipodi:ry="8.0419703"
           sodipodi:rx="11.916239"
           sodipodi:cy="261.99792"
           sodipodi:cx="136.67287"
           id="path2746"
           style="fill:#555753;fill-opacity:1;fill-rule:nonzero;stroke:#000000;stroke-width:0.61382598;stroke-linecap:butt;stroke-linejoin:bevel;stroke-miterlimit:4;stroke-opacity:1;stroke-dasharray:none;stroke-dashoffset:0"
           sodipodi:type="arc" />
        <path
           transform="matrix(-0.10007,-0.162061,0.162061,-0.10007,62.7859,428.932)"
           d="m 148.58911,261.99792 c 0,4.44146 -5.33509,8.04198 -11.91624,8.04198 -6.58116,0 -11.91624,-3.60052 -11.91624,-8.04198 0,-4.44145 5.33508,-8.04197 11.91624,-8.04197 6.58115,0 11.91624,3.60052 11.91624,8.04197 z"
           sodipodi:ry="8.0419703"
           sodipodi:rx="11.916239"
           sodipodi:cy="261.99792"
           sodipodi:cx="136.67287"
           id="path2748"
           style="fill:#d3d7cf;fill-opacity:1;fill-rule:nonzero;stroke:none"
           sodipodi:type="arc" />
      </g>
      <path
         id="path2750"
         d="m -44.51164,472.43016 c 0.899241,1.45631 1.212151,3.0276 0.96875,4.28125 l 6,3.46875 0,-17.71875 -9.96875,-5.625 0.0671,10.96875 c 0.432578,1.10383 0.412417,2.43552 2.932902,4.625 z"
         style="fill:#888a85;fill-rule:evenodd;stroke:#000000;stroke-width:0.5;stroke-linecap:butt;stroke-linejoin:bevel;stroke-miterlimit:4;stroke-opacity:1;stroke-dasharray:none"
         sodipodi:nodetypes="ccccccc" />
      <path
         style="fill:#555753;fill-rule:evenodd;stroke:#000000;stroke-width:0.5;stroke-linecap:butt;stroke-linejoin:bevel;stroke-miterlimit:4;stroke-opacity:1;stroke-dasharray:none"
         d="m -22.192287,471.30906 0,-17.71654 -15.34297,8.85827 0,17.71653 15.34297,-8.85826 z"
         id="path2752" />
      <path
         id="path2754"
         d="m -22.148093,460.28133 -0.04419,-6.68881 -15.34297,8.85827 0.04419,6.6888 15.34297,-8.85826 z"
         style="fill:#729fcf;fill-rule:evenodd;stroke:#000000;stroke-width:0.5;stroke-linecap:butt;stroke-linejoin:bevel;stroke-miterlimit:4;stroke-opacity:1;stroke-dasharray:none"
         sodipodi:nodetypes="ccccc" />
      <path
         sodipodi:nodetypes="ccccc"
         style="fill:#729fcf;fill-opacity:1;fill-rule:evenodd;stroke:#000000;stroke-width:0.5;stroke-linecap:butt;stroke-linejoin:miter;stroke-miterlimit:4;stroke-opacity:1;stroke-dasharray:none"
         d="m -38.544411,463.1309 -7.702379,-4.31255 0.09424,5.08074 7.515379,5.14609 0.09276,-5.91428 z"
         id="path2756" />
      <path
         sodipodi:nodetypes="ccccc"
         id="path2758"
         d="m -32.0361,448.05316 -15.342969,8.85827 9.796486,5.656 15.34297,-8.85827 -9.796487,-5.656 z"
         style="fill:#d3d7cf;fill-rule:evenodd;stroke:#000000;stroke-width:0.5;stroke-linecap:butt;stroke-linejoin:bevel;stroke-miterlimit:4;stroke-opacity:1;stroke-dasharray:none" />
      <g
         transform="translate(-144.898,92.8627)"
         id="g2760">
        <path
           transform="matrix(0.653566,-0.235864,0,0.653566,40.1099,163.75)"
           d="m 110.35917,374.48795 c 0,1.42891 -1.29236,2.58727 -2.88656,2.58727 -1.5942,0 -2.88655,-1.15836 -2.88655,-2.58727 0,-1.42892 1.29235,-2.58728 2.88655,-2.58728 1.5942,0 2.88656,1.15836 2.88656,2.58728 z"
           sodipodi:ry="2.587275"
           sodipodi:rx="2.8865552"
           sodipodi:cy="374.48795"
           sodipodi:cx="107.47261"
           id="path2762"
           style="fill:#d3d7cf;fill-opacity:1;fill-rule:nonzero;stroke:none"
           sodipodi:type="arc" />
        <path
           sodipodi:type="arc"
           style="fill:#eeeeec;fill-opacity:1;fill-rule:nonzero;stroke:none"
           id="path2764"
           sodipodi:cx="107.47261"
           sodipodi:cy="374.48795"
           sodipodi:rx="2.8865552"
           sodipodi:ry="2.587275"
           d="m 110.35917,374.48795 c 0,1.42891 -1.29236,2.58727 -2.88656,2.58727 -1.5942,0 -2.88655,-1.15836 -2.88655,-2.58727 0,-1.42892 1.29235,-2.58728 2.88655,-2.58728 1.5942,0 2.88656,1.15836 2.88656,2.58728 z"
           transform="matrix(0.439221,-0.158509,0,0.439221,63.1461,235.706)" />
        <path
           transform="matrix(0.145978,-0.0526814,0,0.145978,94.1719,333.892)"
           d="m 110.35917,374.48795 c 0,1.42891 -1.29236,2.58727 -2.88656,2.58727 -1.5942,0 -2.88655,-1.15836 -2.88655,-2.58727 0,-1.42892 1.29235,-2.58728 2.88655,-2.58728 1.5942,0 2.88656,1.15836 2.88656,2.58728 z"
           sodipodi:ry="2.587275"
           sodipodi:rx="2.8865552"
           sodipodi:cy="374.48795"
           sodipodi:cx="107.47261"
           id="path2766"
           style="fill:#ffffff;fill-opacity:1;fill-rule:nonzero;stroke:none"
           sodipodi:type="arc" />
      </g>
      <g
         id="g2768"
         transform="translate(-134.733,86.8328)">
        <path
           sodipodi:type="arc"
           style="fill:#d3d7cf;fill-opacity:1;fill-rule:nonzero;stroke:none"
           id="path2770"
           sodipodi:cx="107.47261"
           sodipodi:cy="374.48795"
           sodipodi:rx="2.8865552"
           sodipodi:ry="2.587275"
           d="m 110.35917,374.48795 c 0,1.42891 -1.29236,2.58727 -2.88656,2.58727 -1.5942,0 -2.88655,-1.15836 -2.88655,-2.58727 0,-1.42892 1.29235,-2.58728 2.88655,-2.58728 1.5942,0 2.88656,1.15836 2.88656,2.58728 z"
           transform="matrix(0.653566,-0.235864,0,0.653566,40.1099,163.75)" />
        <path
           transform="matrix(0.439221,-0.158509,0,0.439221,63.1461,235.706)"
           d="m 110.35917,374.48795 c 0,1.42891 -1.29236,2.58727 -2.88656,2.58727 -1.5942,0 -2.88655,-1.15836 -2.88655,-2.58727 0,-1.42892 1.29235,-2.58728 2.88655,-2.58728 1.5942,0 2.88656,1.15836 2.88656,2.58728 z"
           sodipodi:ry="2.587275"
           sodipodi:rx="2.8865552"
           sodipodi:cy="374.48795"
           sodipodi:cx="107.47261"
           id="path2772"
           style="fill:#eeeeec;fill-opacity:1;fill-rule:nonzero;stroke:none"
           sodipodi:type="arc" />
        <path
           sodipodi:type="arc"
           style="fill:#ffffff;fill-opacity:1;fill-rule:nonzero;stroke:none"
           id="path2774"
           sodipodi:cx="107.47261"
           sodipodi:cy="374.48795"
           sodipodi:rx="2.8865552"
           sodipodi:ry="2.587275"
           d="m 110.35917,374.48795 c 0,1.42891 -1.29236,2.58727 -2.88656,2.58727 -1.5942,0 -2.88655,-1.15836 -2.88655,-2.58727 0,-1.42892 1.29235,-2.58728 2.88655,-2.58728 1.5942,0 2.88656,1.15836 2.88656,2.58728 z"
           transform="matrix(0.145978,-0.0526814,0,0.145978,94.1719,333.892)" />
      </g>
      <g
         id="g2776"
         transform="matrix(0.442764,0,0,0.442764,-84.648,303.585)">
        <path
           sodipodi:type="arc"
           style="fill:#d3d7cf;fill-opacity:1;fill-rule:nonzero;stroke:none"
           id="path2778"
           sodipodi:cx="107.47261"
           sodipodi:cy="374.48795"
           sodipodi:rx="2.8865552"
           sodipodi:ry="2.587275"
           d="m 110.35917,374.48795 c 0,1.42891 -1.29236,2.58727 -2.88656,2.58727 -1.5942,0 -2.88655,-1.15836 -2.88655,-2.58727 0,-1.42892 1.29235,-2.58728 2.88655,-2.58728 1.5942,0 2.88656,1.15836 2.88656,2.58728 z"
           transform="matrix(0.653566,-0.235864,0,0.653566,40.1099,163.75)" />
        <path
           transform="matrix(0.439221,-0.158509,0,0.439221,63.1461,235.706)"
           d="m 110.35917,374.48795 c 0,1.42891 -1.29236,2.58727 -2.88656,2.58727 -1.5942,0 -2.88655,-1.15836 -2.88655,-2.58727 0,-1.42892 1.29235,-2.58728 2.88655,-2.58728 1.5942,0 2.88656,1.15836 2.88656,2.58728 z"
           sodipodi:ry="2.587275"
           sodipodi:rx="2.8865552"
           sodipodi:cy="374.48795"
           sodipodi:cx="107.47261"
           id="path2780"
           style="fill:#f57900;fill-opacity:1;fill-rule:nonzero;stroke:none"
           sodipodi:type="arc" />
        <path
           sodipodi:type="arc"
           style="fill:#ffffff;fill-opacity:1;fill-rule:nonzero;stroke:none"
           id="path2782"
           sodipodi:cx="107.47261"
           sodipodi:cy="374.48795"
           sodipodi:rx="2.8865552"
           sodipodi:ry="2.587275"
           d="m 110.35917,374.48795 c 0,1.42891 -1.29236,2.58727 -2.88656,2.58727 -1.5942,0 -2.88655,-1.15836 -2.88655,-2.58727 0,-1.42892 1.29235,-2.58728 2.88655,-2.58728 1.5942,0 2.88656,1.15836 2.88656,2.58728 z"
           transform="matrix(0.145978,-0.0526814,0,0.145978,94.1719,333.892)" />
      </g>
      <g
         transform="matrix(0.442764,0,0,0.442764,-72.4791,297.26)"
         id="g2784">
        <path
           transform="matrix(0.653566,-0.235864,0,0.653566,40.1099,163.75)"
           d="m 110.35917,374.48795 c 0,1.42891 -1.29236,2.58727 -2.88656,2.58727 -1.5942,0 -2.88655,-1.15836 -2.88655,-2.58727 0,-1.42892 1.29235,-2.58728 2.88655,-2.58728 1.5942,0 2.88656,1.15836 2.88656,2.58728 z"
           sodipodi:ry="2.587275"
           sodipodi:rx="2.8865552"
           sodipodi:cy="374.48795"
           sodipodi:cx="107.47261"
           id="path2786"
           style="fill:#d3d7cf;fill-opacity:1;fill-rule:nonzero;stroke:none"
           sodipodi:type="arc" />
        <path
           sodipodi:type="arc"
           style="fill:#f57900;fill-opacity:1;fill-rule:nonzero;stroke:none"
           id="path2788"
           sodipodi:cx="107.47261"
           sodipodi:cy="374.48795"
           sodipodi:rx="2.8865552"
           sodipodi:ry="2.587275"
           d="m 110.35917,374.48795 c 0,1.42891 -1.29236,2.58727 -2.88656,2.58727 -1.5942,0 -2.88655,-1.15836 -2.88655,-2.58727 0,-1.42892 1.29235,-2.58728 2.88655,-2.58728 1.5942,0 2.88656,1.15836 2.88656,2.58728 z"
           transform="matrix(0.439221,-0.158509,0,0.439221,63.1461,235.706)" />
        <path
           transform="matrix(0.145978,-0.0526814,0,0.145978,94.1719,333.892)"
           d="m 110.35917,374.48795 c 0,1.42891 -1.29236,2.58727 -2.88656,2.58727 -1.5942,0 -2.88655,-1.15836 -2.88655,-2.58727 0,-1.42892 1.29235,-2.58728 2.88655,-2.58728 1.5942,0 2.88656,1.15836 2.88656,2.58728 z"
           sodipodi:ry="2.587275"
           sodipodi:rx="2.8865552"
           sodipodi:cy="374.48795"
           sodipodi:cx="107.47261"
           id="path2790"
           style="fill:#ffffff;fill-opacity:1;fill-rule:nonzero;stroke:none"
           sodipodi:type="arc" />
      </g>
      <path
         sodipodi:nodetypes="ccccc"
         id="path2792"
         d="m -33.056373,466.15032 0.89755,-0.45148 5.104792,-8.7111 -1.68552,0.97314 -4.316822,8.18944 z"
         style="fill:#ffffff;fill-rule:evenodd;stroke:none" />
      <path
         style="fill:#ffffff;fill-rule:evenodd;stroke:none"
         d="m -31.09447,465.08433 0.89755,-0.45148 5.104792,-8.7111 -1.68552,0.97314 -4.316822,8.18944 z"
         id="path2794"
         sodipodi:nodetypes="ccccc" />
      <g
         transform="translate(-62.7875,36.4237)"
         id="g2796">
        <path
           sodipodi:nodetypes="cc"
           id="path2798"
           d="m -15.34297,413.57959 0,-17.56502"
           style="fill:none;stroke:#000000;stroke-width:0.5;stroke-linecap:butt;stroke-linejoin:miter;stroke-miterlimit:4;stroke-opacity:1;stroke-dasharray:none" />
        <path
           style="fill:#eeeeec;fill-rule:evenodd;stroke:#eeeeec;stroke-width:0.5;stroke-linecap:butt;stroke-linejoin:miter;stroke-miterlimit:4;stroke-opacity:1;stroke-dasharray:none"
           d="m -15.091435,413.8574 0,-17.56502"
           id="path2800"
           sodipodi:nodetypes="cc" />
      </g>
      <g
         id="g2802"
         transform="translate(-59.9705,38.2356)">
        <path
           style="fill:none;stroke:#000000;stroke-width:0.5;stroke-linecap:butt;stroke-linejoin:miter;stroke-miterlimit:4;stroke-opacity:1;stroke-dasharray:none"
           d="m -15.34297,413.57959 0,-17.56502"
           id="path2804"
           sodipodi:nodetypes="cc" />
        <path
           sodipodi:nodetypes="cc"
           id="path2806"
           d="m -15.091435,413.8574 0,-17.56502"
           style="fill:#eeeeec;fill-rule:evenodd;stroke:#eeeeec;stroke-width:0.5;stroke-linecap:butt;stroke-linejoin:miter;stroke-miterlimit:4;stroke-opacity:1;stroke-dasharray:none" />
      </g>
      <g
         transform="translate(-56.6503,39.9592)"
         id="g2808">
        <path
           sodipodi:nodetypes="cc"
           id="path2810"
           d="m -15.34297,413.57959 0,-17.56502"
           style="fill:none;stroke:#000000;stroke-width:0.5;stroke-linecap:butt;stroke-linejoin:miter;stroke-miterlimit:4;stroke-opacity:1;stroke-dasharray:none" />
        <path
           style="fill:#eeeeec;fill-rule:evenodd;stroke:#eeeeec;stroke-width:0.5;stroke-linecap:butt;stroke-linejoin:miter;stroke-miterlimit:4;stroke-opacity:1;stroke-dasharray:none"
           d="m -15.091435,413.8574 0,-17.56502"
           id="path2812"
           sodipodi:nodetypes="cc" />
      </g>
      <g
         id="g2814"
         transform="translate(-53.8333,41.6828)">
        <path
           style="fill:none;stroke:#000000;stroke-width:0.5;stroke-linecap:butt;stroke-linejoin:miter;stroke-miterlimit:4;stroke-opacity:1;stroke-dasharray:none"
           d="m -15.34297,413.57959 0,-17.56502"
           id="path2816"
           sodipodi:nodetypes="cc" />
        <path
           sodipodi:nodetypes="cc"
           id="path2818"
           d="m -15.091435,413.8574 0,-17.56502"
           style="fill:#eeeeec;fill-rule:evenodd;stroke:#eeeeec;stroke-width:0.5;stroke-linecap:butt;stroke-linejoin:miter;stroke-miterlimit:4;stroke-opacity:1;stroke-dasharray:none" />
      </g>
      <g
         transform="translate(-51.0162,43.4948)"
         id="g2820">
        <path
           sodipodi:nodetypes="cc"
           id="path2822"
           d="m -15.34297,413.57959 0,-17.56502"
           style="fill:none;stroke:#000000;stroke-width:0.5;stroke-linecap:butt;stroke-linejoin:miter;stroke-miterlimit:4;stroke-opacity:1;stroke-dasharray:none" />
        <path
           style="fill:#eeeeec;fill-rule:evenodd;stroke:#eeeeec;stroke-width:0.5;stroke-linecap:butt;stroke-linejoin:miter;stroke-miterlimit:4;stroke-opacity:1;stroke-dasharray:none"
           d="m -15.091435,413.8574 0,-17.56502"
           id="path2824"
           sodipodi:nodetypes="cc" />
      </g>
      <g
         id="g2826"
         transform="translate(-47.6961,45.2183)">
        <path
           style="fill:none;stroke:#000000;stroke-width:0.5;stroke-linecap:butt;stroke-linejoin:miter;stroke-miterlimit:4;stroke-opacity:1;stroke-dasharray:none"
           d="m -15.34297,413.57959 0,-17.56502"
           id="path2828"
           sodipodi:nodetypes="cc" />
        <path
           sodipodi:nodetypes="cc"
           id="path2830"
           d="m -15.091435,413.8574 0,-17.56502"
           style="fill:#eeeeec;fill-rule:evenodd;stroke:#eeeeec;stroke-width:0.5;stroke-linecap:butt;stroke-linejoin:miter;stroke-miterlimit:4;stroke-opacity:1;stroke-dasharray:none" />
      </g>
      <g
         transform="translate(-44.6275,47.1187)"
         id="g2832">
        <path
           sodipodi:nodetypes="cc"
           id="path2834"
           d="m -15.34297,413.57959 0,-17.56502"
           style="fill:none;stroke:#000000;stroke-width:0.5;stroke-linecap:butt;stroke-linejoin:miter;stroke-miterlimit:4;stroke-opacity:1;stroke-dasharray:none" />
        <path
           style="fill:#eeeeec;fill-rule:evenodd;stroke:#eeeeec;stroke-width:0.5;stroke-linecap:butt;stroke-linejoin:miter;stroke-miterlimit:4;stroke-opacity:1;stroke-dasharray:none"
           d="m -15.091435,413.8574 0,-17.56502"
           id="path2836"
           sodipodi:nodetypes="cc" />
      </g>
      <g
         id="g2838"
         transform="translate(-41.8104,48.9306)">
        <path
           style="fill:none;stroke:#000000;stroke-width:0.5;stroke-linecap:butt;stroke-linejoin:miter;stroke-miterlimit:4;stroke-opacity:1;stroke-dasharray:none"
           d="m -15.34297,413.57959 0,-17.56502"
           id="path2840"
           sodipodi:nodetypes="cc" />
        <path
           sodipodi:nodetypes="cc"
           id="path2842"
           d="m -15.091435,413.8574 0,-17.56502"
           style="fill:#eeeeec;fill-rule:evenodd;stroke:#eeeeec;stroke-width:0.5;stroke-linecap:butt;stroke-linejoin:miter;stroke-miterlimit:4;stroke-opacity:1;stroke-dasharray:none" />
      </g>
      <g
         transform="translate(-38.4903,50.6542)"
         id="g2844">
        <path
           sodipodi:nodetypes="cc"
           id="path2846"
           d="m -15.34297,413.57959 0,-17.56502"
           style="fill:none;stroke:#000000;stroke-width:0.5;stroke-linecap:butt;stroke-linejoin:miter;stroke-miterlimit:4;stroke-opacity:1;stroke-dasharray:none" />
        <path
           style="fill:#eeeeec;fill-rule:evenodd;stroke:#eeeeec;stroke-width:0.5;stroke-linecap:butt;stroke-linejoin:miter;stroke-miterlimit:4;stroke-opacity:1;stroke-dasharray:none"
           d="m -15.091435,413.8574 0,-17.56502"
           id="path2848"
           sodipodi:nodetypes="cc" />
      </g>
      <g
         id="g2850"
         transform="translate(-35.4217,52.3778)">
        <path
           style="fill:none;stroke:#000000;stroke-width:0.5;stroke-linecap:butt;stroke-linejoin:miter;stroke-miterlimit:4;stroke-opacity:1;stroke-dasharray:none"
           d="m -15.34297,413.57959 0,-17.56502"
           id="path2852"
           sodipodi:nodetypes="cc" />
        <path
           sodipodi:nodetypes="cc"
           id="path2854"
           d="m -15.091435,413.8574 0,-17.56502"
           style="fill:#eeeeec;fill-rule:evenodd;stroke:#eeeeec;stroke-width:0.5;stroke-linecap:butt;stroke-linejoin:miter;stroke-miterlimit:4;stroke-opacity:1;stroke-dasharray:none" />
      </g>
    </g>
  </g>
</svg>
