<?xml version="1.0" encoding="UTF-8" standalone="no"?>
<!-- Created with Inkscape (http://www.inkscape.org/) -->

<svg
   xmlns:dc="http://purl.org/dc/elements/1.1/"
   xmlns:cc="http://creativecommons.org/ns#"
   xmlns:rdf="http://www.w3.org/1999/02/22-rdf-syntax-ns#"
   xmlns:svg="http://www.w3.org/2000/svg"
   xmlns="http://www.w3.org/2000/svg"
   xmlns:xlink="http://www.w3.org/1999/xlink"
   xmlns:sodipodi="http://sodipodi.sourceforge.net/DTD/sodipodi-0.dtd"
   xmlns:inkscape="http://www.inkscape.org/namespaces/inkscape"
   width="58.808231"
   height="49.887436"
   id="svg3610"
   version="1.1"
   inkscape:version="0.47pre1 r21720"
   sodipodi:docname="New document 5"
   inkscape:output_extension="org.inkscape.output.svg.inkscape">
  <defs
     id="defs3612">
    <linearGradient
       inkscape:collect="always"
       xlink:href="#linearGradient6633"
       id="linearGradient4449"
       gradientUnits="userSpaceOnUse"
       gradientTransform="translate(312.249,20.831)"
       spreadMethod="reflect"
       x1="6.5225167"
       y1="428.96262"
       x2="5.3033009"
       y2="430.68274" />
    <linearGradient
       inkscape:collect="always"
       id="linearGradient6633">
      <stop
         style="stop-color: rgb(211, 215, 207); stop-opacity: 1;"
         offset="0"
         id="stop6635" />
      <stop
         style="stop-color: rgb(136, 138, 133); stop-opacity: 1;"
         offset="1"
         id="stop6637" />
    </linearGradient>
    <linearGradient
       inkscape:collect="always"
       xlink:href="#linearGradient3689"
       id="linearGradient4451"
       gradientUnits="userSpaceOnUse"
       gradientTransform="matrix(0.427944,0,0,0.427944,33.7787,217.069)"
       x1="138.08673"
       y1="370.27557"
       x2="146.77179"
       y2="382.97778" />
    <linearGradient
       inkscape:collect="always"
       id="linearGradient3689">
      <stop
         style="stop-color: rgb(211, 215, 207); stop-opacity: 1;"
         offset="0"
         id="stop3691" />
      <stop
         style="stop-color: rgb(0, 0, 0); stop-opacity: 1;"
         offset="1"
         id="stop3693" />
    </linearGradient>
    <linearGradient
       inkscape:collect="always"
       xlink:href="#linearGradient3689"
       id="linearGradient4453"
       gradientUnits="userSpaceOnUse"
       gradientTransform="matrix(0.427944,0,0,0.427944,33.7787,217.069)"
       x1="138.08673"
       y1="370.27557"
       x2="146.77179"
       y2="382.97778" />
    <linearGradient
       inkscape:collect="always"
       xlink:href="#linearGradient4352"
       id="linearGradient4455"
       gradientUnits="userSpaceOnUse"
       gradientTransform="translate(50.8468,-30.0498)"
       x1="265.49323"
       y1="453.36218"
       x2="259"
       y2="464.98718" />
    <linearGradient
       inkscape:collect="always"
       id="linearGradient4352">
      <stop
         style="stop-color: rgb(238, 238, 236); stop-opacity: 1;"
         offset="0"
         id="stop4354" />
      <stop
         style="stop-color: rgb(136, 138, 133); stop-opacity: 1;"
         offset="1"
         id="stop4356" />
    </linearGradient>
    <linearGradient
       inkscape:collect="always"
       xlink:href="#linearGradient3689"
       id="linearGradient4457"
       gradientUnits="userSpaceOnUse"
       gradientTransform="matrix(0.427944,0,0,0.427944,33.7787,217.069)"
       x1="138.08673"
       y1="370.27557"
       x2="146.77179"
       y2="382.97778" />
  </defs>
  <sodipodi:namedview
     id="base"
     pagecolor="#ffffff"
     bordercolor="#666666"
     borderopacity="1.0"
     inkscape:pageopacity="0.0"
     inkscape:pageshadow="2"
     inkscape:zoom="0.6"
     inkscape:cx="376.07078"
     inkscape:cy="-168.38962"
     inkscape:current-layer="layer1"
     inkscape:document-units="px"
     showgrid="false"
     inkscape:window-width="1440"
     inkscape:window-height="826"
     inkscape:window-x="0"
     inkscape:window-y="25"
     inkscape:window-maximized="1" />
  <metadata
     id="metadata3615">
    <rdf:RDF>
      <cc:Work
         rdf:about="">
        <dc:format>image/svg+xml</dc:format>
        <dc:type
           rdf:resource="http://purl.org/dc/dcmitype/StillImage" />
        <dc:title></dc:title>
      </cc:Work>
    </rdf:RDF>
  </metadata>
  <g
     id="layer1"
     inkscape:label="Layer 1"
     inkscape:groupmode="layer"
     transform="translate(-23.92922,-81.722944)">
    <g
       id="g4398"
       transform="translate(-270.40085,-333.2271)">
      <path
         style="fill:url(#linearGradient4449);fill-opacity:1;fill-rule:nonzero;stroke:#000000;stroke-width:0.5;stroke-linecap:round;stroke-linejoin:round;stroke-miterlimit:4;stroke-opacity:1;stroke-dasharray:none;stroke-dashoffset:0"
         d="m 317.09872,447.13486 c -0.22568,-0.004 -0.4584,0.0623 -0.71875,0.15625 -1.04138,0.37582 -1.90625,1.4416 -1.90625,2.375 0,0.58338 0.3419,0.97089 0.84375,1.09375 l 5.5061,3.17079 3.09375,-3.0625 -6.16235,-3.51454 -0.0312,-0.0312 c -0.17775,-0.10392 -0.38352,-0.18305 -0.625,-0.1875 z"
         id="path4190"
         sodipodi:nodetypes="csscccccc" />
      <path
         transform="matrix(0.653566,-0.235864,0,0.653566,251.915,232.804)"
         d="m 110.35917,374.48795 c 0,1.42891 -1.29236,2.58727 -2.88656,2.58727 -1.5942,0 -2.88655,-1.15836 -2.88655,-2.58727 0,-1.42892 1.29235,-2.58728 2.88655,-2.58728 1.5942,0 2.88656,1.15836 2.88656,2.58728 z"
         sodipodi:ry="2.587275"
         sodipodi:rx="2.8865552"
         sodipodi:cy="374.48795"
         sodipodi:cx="107.47261"
         id="path4192"
         style="fill:#555753;fill-opacity:1;fill-rule:nonzero;stroke:#000000;stroke-width:0.76503301;stroke-linecap:round;stroke-linejoin:round;stroke-miterlimit:4;stroke-opacity:1;stroke-dasharray:none;stroke-dashoffset:0"
         sodipodi:type="arc" />
      <g
         id="g4194"
         transform="translate(206.346,59.6184)">
        <path
           transform="matrix(-0.183144,-0.2966,0.2966,-0.183144,41.2824,467.878)"
           d="m 148.58911,261.99792 c 0,4.44146 -5.33509,8.04198 -11.91624,8.04198 -6.58116,0 -11.91624,-3.60052 -11.91624,-8.04198 0,-4.44145 5.33508,-8.04197 11.91624,-8.04197 6.58115,0 11.91624,3.60052 11.91624,8.04197 z"
           sodipodi:ry="8.0419703"
           sodipodi:rx="11.916239"
           sodipodi:cy="261.99792"
           sodipodi:cx="136.67287"
           id="path4196"
           style="fill:#cc0000;fill-opacity:1;fill-rule:nonzero;stroke:none"
           sodipodi:type="arc" />
        <path
           style="fill:url(#linearGradient4451);fill-opacity:1;fill-rule:evenodd;stroke:#000000;stroke-width:0.213972;stroke-linecap:butt;stroke-linejoin:miter;stroke-miterlimit:4;stroke-opacity:1;stroke-dasharray:none"
           d="m 92.872153,375.5268 c -0.395819,-0.003 -0.767445,0.091 -1.096607,0.29421 l -2.23173,1.28383 4.059921,7.26168 2.81233,-1.68503 c 1.047466,-0.94151 1.047462,-2.99635 -0.06687,-4.801 -0.90351,-1.46322 -2.289591,-2.34548 -3.477047,-2.35369 z"
           id="path4198"
           sodipodi:nodetypes="cccccsc" />
        <path
           sodipodi:type="arc"
           style="fill:#555753;fill-opacity:1;fill-rule:nonzero;stroke:#000000;stroke-width:0.61382598;stroke-linecap:butt;stroke-linejoin:bevel;stroke-miterlimit:4;stroke-opacity:1;stroke-dasharray:none;stroke-dashoffset:0"
           id="path4200"
           sodipodi:cx="136.67287"
           sodipodi:cy="261.99792"
           sodipodi:rx="11.916239"
           sodipodi:ry="8.0419703"
           d="m 148.58911,261.99792 c 0,4.44146 -5.33509,8.04198 -11.91624,8.04198 -6.58116,0 -11.91624,-3.60052 -11.91624,-8.04198 0,-4.44145 5.33508,-8.04197 11.91624,-8.04197 6.58115,0 11.91624,3.60052 11.91624,8.04197 z"
           transform="matrix(-0.183144,-0.2966,0.2966,-0.183144,38.8934,469.257)" />
        <path
           sodipodi:type="arc"
           style="fill:#d3d7cf;fill-opacity:1;fill-rule:nonzero;stroke:none"
           id="path4202"
           sodipodi:cx="136.67287"
           sodipodi:cy="261.99792"
           sodipodi:rx="11.916239"
           sodipodi:ry="8.0419703"
           d="m 148.58911,261.99792 c 0,4.44146 -5.33509,8.04198 -11.91624,8.04198 -6.58116,0 -11.91624,-3.60052 -11.91624,-8.04198 0,-4.44145 5.33508,-8.04197 11.91624,-8.04197 6.58115,0 11.91624,3.60052 11.91624,8.04197 z"
           transform="matrix(-0.10007,-0.162061,0.162061,-0.10007,62.7859,428.932)" />
      </g>
      <g
         transform="translate(212.697,63.7279)"
         id="g4204">
        <path
           sodipodi:type="arc"
           style="fill:#cc0000;fill-opacity:1;fill-rule:nonzero;stroke:none"
           id="path4206"
           sodipodi:cx="136.67287"
           sodipodi:cy="261.99792"
           sodipodi:rx="11.916239"
           sodipodi:ry="8.0419703"
           d="m 148.58911,261.99792 c 0,4.44146 -5.33509,8.04198 -11.91624,8.04198 -6.58116,0 -11.91624,-3.60052 -11.91624,-8.04198 0,-4.44145 5.33508,-8.04197 11.91624,-8.04197 6.58115,0 11.91624,3.60052 11.91624,8.04197 z"
           transform="matrix(-0.183144,-0.2966,0.2966,-0.183144,41.2824,467.878)" />
        <path
           sodipodi:nodetypes="cccccsc"
           id="path4208"
           d="m 92.872153,375.5268 c -0.395819,-0.003 -0.767445,0.091 -1.096607,0.29421 l -2.23173,1.28383 4.059921,7.26168 2.81233,-1.68503 c 1.047466,-0.94151 1.047462,-2.99635 -0.06687,-4.801 -0.90351,-1.46322 -2.289591,-2.34548 -3.477047,-2.35369 z"
           style="fill:url(#linearGradient4453);fill-opacity:1;fill-rule:evenodd;stroke:#000000;stroke-width:0.213972;stroke-linecap:butt;stroke-linejoin:miter;stroke-miterlimit:4;stroke-opacity:1;stroke-dasharray:none" />
        <path
           transform="matrix(-0.183144,-0.2966,0.2966,-0.183144,38.8934,469.257)"
           d="m 148.58911,261.99792 c 0,4.44146 -5.33509,8.04198 -11.91624,8.04198 -6.58116,0 -11.91624,-3.60052 -11.91624,-8.04198 0,-4.44145 5.33508,-8.04197 11.91624,-8.04197 6.58115,0 11.91624,3.60052 11.91624,8.04197 z"
           sodipodi:ry="8.0419703"
           sodipodi:rx="11.916239"
           sodipodi:cy="261.99792"
           sodipodi:cx="136.67287"
           id="path4210"
           style="fill:#555753;fill-opacity:1;fill-rule:nonzero;stroke:#000000;stroke-width:0.61382598;stroke-linecap:butt;stroke-linejoin:bevel;stroke-miterlimit:4;stroke-opacity:1;stroke-dasharray:none;stroke-dashoffset:0"
           sodipodi:type="arc" />
        <path
           transform="matrix(-0.10007,-0.162061,0.162061,-0.10007,62.7859,428.932)"
           d="m 148.58911,261.99792 c 0,4.44146 -5.33509,8.04198 -11.91624,8.04198 -6.58116,0 -11.91624,-3.60052 -11.91624,-8.04198 0,-4.44145 5.33508,-8.04197 11.91624,-8.04197 6.58115,0 11.91624,3.60052 11.91624,8.04197 z"
           sodipodi:ry="8.0419703"
           sodipodi:rx="11.916239"
           sodipodi:cy="261.99792"
           sodipodi:cx="136.67287"
           id="path4212"
           style="fill:#d3d7cf;fill-opacity:1;fill-rule:nonzero;stroke:none"
           sodipodi:type="arc" />
      </g>
      <path
         id="path4214"
         d="m 309.92304,426.1673 -15.34297,8.85827 30.68594,17.71653 15.34297,-8.85827 -30.68594,-17.71653 z"
         style="fill:#d3d7cf;fill-opacity:1;fill-rule:evenodd;stroke:#000000;stroke-width:0.5;stroke-linecap:round;stroke-linejoin:bevel;stroke-miterlimit:4;stroke-opacity:1;stroke-dasharray:none"
         sodipodi:nodetypes="ccccc" />
      <path
         sodipodi:nodetypes="cccccc"
         id="path4343"
         d="m 324.20393,443.38507 c -1.79786,1.04385 -3.68475,1.41341 -5.28125,0.90625 l -1.36499,0.85272 0,3.21875 6.64624,-3.85272 0,-1.125 z"
         style="fill:#555753;fill-opacity:1;fill-rule:evenodd;stroke:#000000;stroke-width:0.5;stroke-linecap:round;stroke-linejoin:bevel;stroke-miterlimit:4;stroke-opacity:1;stroke-dasharray:none" />
      <path
         style="fill:#555753;fill-opacity:1;fill-rule:evenodd;stroke:#000000;stroke-width:0.5;stroke-linecap:round;stroke-linejoin:bevel;stroke-miterlimit:4;stroke-opacity:1;stroke-dasharray:none"
         d="m 309.92799,435.25334 c -1.79786,1.04385 -3.68475,1.41341 -5.28125,0.90625 l -1.36499,0.85272 0,3.21875 6.64624,-3.85272 0,-1.125 z"
         id="path4392"
         sodipodi:nodetypes="cccccc" />
      <path
         id="path3658"
         d="m 306.65931,415.20018 c -2.77479,0.0192 -5.98247,2.08081 -8.09375,5.5 -2.81504,4.55892 -2.60795,9.81895 0.46875,11.71875 0.27838,0.17189 0.57143,0.29957 0.875,0.40625 l 30.3125,17.875 10.875,-16 -31.5,-18.5625 -0.125,-0.0625 c -0.0786,-0.0558 -0.13604,-0.13643 -0.21875,-0.1875 -0.76918,-0.47495 -1.66882,-0.6939 -2.59375,-0.6875 z"
         style="fill:url(#linearGradient4455);fill-opacity:1;fill-rule:nonzero;stroke:#000000;stroke-width:0.5;stroke-linecap:butt;stroke-linejoin:bevel;stroke-miterlimit:4;stroke-opacity:1;stroke-dasharray:none;stroke-dashoffset:0" />
      <path
         transform="matrix(0.427963,-0.693081,-0.693081,-0.427963,458.176,649.179)"
         d="m 148.58911,261.99792 c 0,4.44146 -5.33509,8.04198 -11.91624,8.04198 -6.58116,0 -11.91624,-3.60052 -11.91624,-8.04198 0,-4.44145 5.33508,-8.04197 11.91624,-8.04197 6.58115,0 11.91624,3.60052 11.91624,8.04197 z"
         sodipodi:ry="8.0419703"
         sodipodi:rx="11.916239"
         sodipodi:cy="261.99792"
         sodipodi:cx="136.67287"
         id="path4345"
         style="fill:#555753;fill-opacity:1;fill-rule:nonzero;stroke:#000000;stroke-width:0.5;stroke-linecap:butt;stroke-linejoin:bevel;stroke-miterlimit:4;stroke-opacity:1;stroke-dasharray:none;stroke-dashoffset:0"
         sodipodi:type="arc" />
      <g
         transform="translate(235.496,77.8668)"
         id="g4216">
        <path
           sodipodi:type="arc"
           style="fill:#cc0000;fill-opacity:1;fill-rule:nonzero;stroke:none"
           id="path4218"
           sodipodi:cx="136.67287"
           sodipodi:cy="261.99792"
           sodipodi:rx="11.916239"
           sodipodi:ry="8.0419703"
           d="m 148.58911,261.99792 c 0,4.44146 -5.33509,8.04198 -11.91624,8.04198 -6.58116,0 -11.91624,-3.60052 -11.91624,-8.04198 0,-4.44145 5.33508,-8.04197 11.91624,-8.04197 6.58115,0 11.91624,3.60052 11.91624,8.04197 z"
           transform="matrix(-0.183144,-0.2966,0.2966,-0.183144,41.2824,467.878)" />
        <path
           sodipodi:nodetypes="cccccsc"
           id="path4220"
           d="m 92.872153,375.5268 c -0.395819,-0.003 -0.767445,0.091 -1.096607,0.29421 l -2.23173,1.28383 4.059921,7.26168 2.81233,-1.68503 c 1.047466,-0.94151 1.047462,-2.99635 -0.06687,-4.801 -0.90351,-1.46322 -2.289591,-2.34548 -3.477047,-2.35369 z"
           style="fill:url(#linearGradient4457);fill-opacity:1;fill-rule:evenodd;stroke:#000000;stroke-width:0.213972;stroke-linecap:butt;stroke-linejoin:miter;stroke-miterlimit:4;stroke-opacity:1;stroke-dasharray:none" />
        <path
           transform="matrix(-0.183144,-0.2966,0.2966,-0.183144,38.8934,469.257)"
           d="m 148.58911,261.99792 c 0,4.44146 -5.33509,8.04198 -11.91624,8.04198 -6.58116,0 -11.91624,-3.60052 -11.91624,-8.04198 0,-4.44145 5.33508,-8.04197 11.91624,-8.04197 6.58115,0 11.91624,3.60052 11.91624,8.04197 z"
           sodipodi:ry="8.0419703"
           sodipodi:rx="11.916239"
           sodipodi:cy="261.99792"
           sodipodi:cx="136.67287"
           id="path4222"
           style="fill:#555753;fill-opacity:1;fill-rule:nonzero;stroke:#000000;stroke-width:0.61382598;stroke-linecap:butt;stroke-linejoin:bevel;stroke-miterlimit:4;stroke-opacity:1;stroke-dasharray:none;stroke-dashoffset:0"
           sodipodi:type="arc" />
        <path
           transform="matrix(-0.10007,-0.162061,0.162061,-0.10007,62.7859,428.932)"
           d="m 148.58911,261.99792 c 0,4.44146 -5.33509,8.04198 -11.91624,8.04198 -6.58116,0 -11.91624,-3.60052 -11.91624,-8.04198 0,-4.44145 5.33508,-8.04197 11.91624,-8.04197 6.58115,0 11.91624,3.60052 11.91624,8.04197 z"
           sodipodi:ry="8.0419703"
           sodipodi:rx="11.916239"
           sodipodi:cy="261.99792"
           sodipodi:cx="136.67287"
           id="path4224"
           style="fill:#d3d7cf;fill-opacity:1;fill-rule:nonzero;stroke:none"
           sodipodi:type="arc" />
      </g>
      <path
         id="path4232"
         d="m 330.52475,456.83748 c 0.89924,1.45631 1.21215,3.0276 0.96875,4.28125 l 6,3.46875 0,-17.71875 -9.96875,-5.625 0.0671,10.96875 c 0.43258,1.10383 0.41241,2.43552 2.9329,4.625 z"
         style="fill:#888a85;fill-rule:evenodd;stroke:#000000;stroke-width:0.5;stroke-linecap:butt;stroke-linejoin:bevel;stroke-miterlimit:4;stroke-opacity:1;stroke-dasharray:none"
         sodipodi:nodetypes="ccccccc" />
      <path
         style="fill:#555753;fill-rule:evenodd;stroke:#000000;stroke-width:0.5;stroke-linecap:butt;stroke-linejoin:bevel;stroke-miterlimit:4;stroke-opacity:1;stroke-dasharray:none"
         d="m 352.8441,455.71638 0,-17.71654 -15.34297,8.85827 0,17.71653 15.34297,-8.85826 z"
         id="path4234" />
      <path
         id="path4236"
         d="m 352.8883,444.68865 -0.0442,-6.68881 -15.34297,8.85827 0.0442,6.6888 15.34297,-8.85826 z"
         style="fill:#729fcf;fill-rule:evenodd;stroke:#000000;stroke-width:0.5;stroke-linecap:butt;stroke-linejoin:bevel;stroke-miterlimit:4;stroke-opacity:1;stroke-dasharray:none"
         sodipodi:nodetypes="ccccc" />
      <path
         sodipodi:nodetypes="ccccc"
         style="fill:#729fcf;fill-opacity:1;fill-rule:evenodd;stroke:#000000;stroke-width:0.5;stroke-linecap:butt;stroke-linejoin:miter;stroke-miterlimit:4;stroke-opacity:1;stroke-dasharray:none"
         d="m 336.49198,447.53822 -7.70238,-4.31255 0.0942,5.08074 7.51538,5.14609 0.0928,-5.91428 z"
         id="path4238" />
      <path
         sodipodi:nodetypes="ccccc"
         id="path4240"
         d="m 343.00029,432.46048 -15.34297,8.85827 9.79649,5.656 15.34297,-8.85827 -9.79649,-5.656 z"
         style="fill:#d3d7cf;fill-rule:evenodd;stroke:#000000;stroke-width:0.5;stroke-linecap:butt;stroke-linejoin:bevel;stroke-miterlimit:4;stroke-opacity:1;stroke-dasharray:none" />
      <g
         transform="translate(230.139,77.27)"
         id="g4242">
        <path
           transform="matrix(0.653566,-0.235864,0,0.653566,40.1099,163.75)"
           d="m 110.35917,374.48795 c 0,1.42891 -1.29236,2.58727 -2.88656,2.58727 -1.5942,0 -2.88655,-1.15836 -2.88655,-2.58727 0,-1.42892 1.29235,-2.58728 2.88655,-2.58728 1.5942,0 2.88656,1.15836 2.88656,2.58728 z"
           sodipodi:ry="2.587275"
           sodipodi:rx="2.8865552"
           sodipodi:cy="374.48795"
           sodipodi:cx="107.47261"
           id="path4244"
           style="fill:#d3d7cf;fill-opacity:1;fill-rule:nonzero;stroke:none"
           sodipodi:type="arc" />
        <path
           sodipodi:type="arc"
           style="fill:#eeeeec;fill-opacity:1;fill-rule:nonzero;stroke:none"
           id="path4246"
           sodipodi:cx="107.47261"
           sodipodi:cy="374.48795"
           sodipodi:rx="2.8865552"
           sodipodi:ry="2.587275"
           d="m 110.35917,374.48795 c 0,1.42891 -1.29236,2.58727 -2.88656,2.58727 -1.5942,0 -2.88655,-1.15836 -2.88655,-2.58727 0,-1.42892 1.29235,-2.58728 2.88655,-2.58728 1.5942,0 2.88656,1.15836 2.88656,2.58728 z"
           transform="matrix(0.439221,-0.158509,0,0.439221,63.1461,235.706)" />
        <path
           transform="matrix(0.145978,-0.0526814,0,0.145978,94.1719,333.892)"
           d="m 110.35917,374.48795 c 0,1.42891 -1.29236,2.58727 -2.88656,2.58727 -1.5942,0 -2.88655,-1.15836 -2.88655,-2.58727 0,-1.42892 1.29235,-2.58728 2.88655,-2.58728 1.5942,0 2.88656,1.15836 2.88656,2.58728 z"
           sodipodi:ry="2.587275"
           sodipodi:rx="2.8865552"
           sodipodi:cy="374.48795"
           sodipodi:cx="107.47261"
           id="path4248"
           style="fill:#ffffff;fill-opacity:1;fill-rule:nonzero;stroke:none"
           sodipodi:type="arc" />
      </g>
      <g
         id="g4250"
         transform="translate(240.303,71.2401)">
        <path
           sodipodi:type="arc"
           style="fill:#d3d7cf;fill-opacity:1;fill-rule:nonzero;stroke:none"
           id="path4252"
           sodipodi:cx="107.47261"
           sodipodi:cy="374.48795"
           sodipodi:rx="2.8865552"
           sodipodi:ry="2.587275"
           d="m 110.35917,374.48795 c 0,1.42891 -1.29236,2.58727 -2.88656,2.58727 -1.5942,0 -2.88655,-1.15836 -2.88655,-2.58727 0,-1.42892 1.29235,-2.58728 2.88655,-2.58728 1.5942,0 2.88656,1.15836 2.88656,2.58728 z"
           transform="matrix(0.653566,-0.235864,0,0.653566,40.1099,163.75)" />
        <path
           transform="matrix(0.439221,-0.158509,0,0.439221,63.1461,235.706)"
           d="m 110.35917,374.48795 c 0,1.42891 -1.29236,2.58727 -2.88656,2.58727 -1.5942,0 -2.88655,-1.15836 -2.88655,-2.58727 0,-1.42892 1.29235,-2.58728 2.88655,-2.58728 1.5942,0 2.88656,1.15836 2.88656,2.58728 z"
           sodipodi:ry="2.587275"
           sodipodi:rx="2.8865552"
           sodipodi:cy="374.48795"
           sodipodi:cx="107.47261"
           id="path4254"
           style="fill:#eeeeec;fill-opacity:1;fill-rule:nonzero;stroke:none"
           sodipodi:type="arc" />
        <path
           sodipodi:type="arc"
           style="fill:#ffffff;fill-opacity:1;fill-rule:nonzero;stroke:none"
           id="path4256"
           sodipodi:cx="107.47261"
           sodipodi:cy="374.48795"
           sodipodi:rx="2.8865552"
           sodipodi:ry="2.587275"
           d="m 110.35917,374.48795 c 0,1.42891 -1.29236,2.58727 -2.88656,2.58727 -1.5942,0 -2.88655,-1.15836 -2.88655,-2.58727 0,-1.42892 1.29235,-2.58728 2.88655,-2.58728 1.5942,0 2.88656,1.15836 2.88656,2.58728 z"
           transform="matrix(0.145978,-0.0526814,0,0.145978,94.1719,333.892)" />
      </g>
      <g
         id="g4258"
         transform="matrix(0.442764,0,0,0.442764,290.388,287.993)">
        <path
           sodipodi:type="arc"
           style="fill:#d3d7cf;fill-opacity:1;fill-rule:nonzero;stroke:none"
           id="path4260"
           sodipodi:cx="107.47261"
           sodipodi:cy="374.48795"
           sodipodi:rx="2.8865552"
           sodipodi:ry="2.587275"
           d="m 110.35917,374.48795 c 0,1.42891 -1.29236,2.58727 -2.88656,2.58727 -1.5942,0 -2.88655,-1.15836 -2.88655,-2.58727 0,-1.42892 1.29235,-2.58728 2.88655,-2.58728 1.5942,0 2.88656,1.15836 2.88656,2.58728 z"
           transform="matrix(0.653566,-0.235864,0,0.653566,40.1099,163.75)" />
        <path
           transform="matrix(0.439221,-0.158509,0,0.439221,63.1461,235.706)"
           d="m 110.35917,374.48795 c 0,1.42891 -1.29236,2.58727 -2.88656,2.58727 -1.5942,0 -2.88655,-1.15836 -2.88655,-2.58727 0,-1.42892 1.29235,-2.58728 2.88655,-2.58728 1.5942,0 2.88656,1.15836 2.88656,2.58728 z"
           sodipodi:ry="2.587275"
           sodipodi:rx="2.8865552"
           sodipodi:cy="374.48795"
           sodipodi:cx="107.47261"
           id="path4262"
           style="fill:#f57900;fill-opacity:1;fill-rule:nonzero;stroke:none"
           sodipodi:type="arc" />
        <path
           sodipodi:type="arc"
           style="fill:#ffffff;fill-opacity:1;fill-rule:nonzero;stroke:none"
           id="path4264"
           sodipodi:cx="107.47261"
           sodipodi:cy="374.48795"
           sodipodi:rx="2.8865552"
           sodipodi:ry="2.587275"
           d="m 110.35917,374.48795 c 0,1.42891 -1.29236,2.58727 -2.88656,2.58727 -1.5942,0 -2.88655,-1.15836 -2.88655,-2.58727 0,-1.42892 1.29235,-2.58728 2.88655,-2.58728 1.5942,0 2.88656,1.15836 2.88656,2.58728 z"
           transform="matrix(0.145978,-0.0526814,0,0.145978,94.1719,333.892)" />
      </g>
      <g
         transform="matrix(0.442764,0,0,0.442764,302.557,281.667)"
         id="g4266">
        <path
           transform="matrix(0.653566,-0.235864,0,0.653566,40.1099,163.75)"
           d="m 110.35917,374.48795 c 0,1.42891 -1.29236,2.58727 -2.88656,2.58727 -1.5942,0 -2.88655,-1.15836 -2.88655,-2.58727 0,-1.42892 1.29235,-2.58728 2.88655,-2.58728 1.5942,0 2.88656,1.15836 2.88656,2.58728 z"
           sodipodi:ry="2.587275"
           sodipodi:rx="2.8865552"
           sodipodi:cy="374.48795"
           sodipodi:cx="107.47261"
           id="path4268"
           style="fill:#d3d7cf;fill-opacity:1;fill-rule:nonzero;stroke:none"
           sodipodi:type="arc" />
        <path
           sodipodi:type="arc"
           style="fill:#f57900;fill-opacity:1;fill-rule:nonzero;stroke:none"
           id="path4270"
           sodipodi:cx="107.47261"
           sodipodi:cy="374.48795"
           sodipodi:rx="2.8865552"
           sodipodi:ry="2.587275"
           d="m 110.35917,374.48795 c 0,1.42891 -1.29236,2.58727 -2.88656,2.58727 -1.5942,0 -2.88655,-1.15836 -2.88655,-2.58727 0,-1.42892 1.29235,-2.58728 2.88655,-2.58728 1.5942,0 2.88656,1.15836 2.88656,2.58728 z"
           transform="matrix(0.439221,-0.158509,0,0.439221,63.1461,235.706)" />
        <path
           transform="matrix(0.145978,-0.0526814,0,0.145978,94.1719,333.892)"
           d="m 110.35917,374.48795 c 0,1.42891 -1.29236,2.58727 -2.88656,2.58727 -1.5942,0 -2.88655,-1.15836 -2.88655,-2.58727 0,-1.42892 1.29235,-2.58728 2.88655,-2.58728 1.5942,0 2.88656,1.15836 2.88656,2.58728 z"
           sodipodi:ry="2.587275"
           sodipodi:rx="2.8865552"
           sodipodi:cy="374.48795"
           sodipodi:cx="107.47261"
           id="path4272"
           style="fill:#ffffff;fill-opacity:1;fill-rule:nonzero;stroke:none"
           sodipodi:type="arc" />
      </g>
      <path
         sodipodi:nodetypes="ccccc"
         id="path4274"
         d="m 341.98002,450.55764 0.89755,-0.45148 5.10479,-8.7111 -1.68552,0.97314 -4.31682,8.18944 z"
         style="fill:#ffffff;fill-rule:evenodd;stroke:none" />
      <path
         style="fill:#ffffff;fill-rule:evenodd;stroke:none"
         d="m 343.94192,449.49165 0.89755,-0.45148 5.10479,-8.7111 -1.68552,0.97314 -4.31682,8.18944 z"
         id="path4276"
         sodipodi:nodetypes="ccccc" />
      <path
         sodipodi:nodetypes="csccc"
         id="path4384"
         d="m 317.57933,448.00685 c 0,0 -1.85615,-0.88388 -1.94454,-1.06066 -0.0884,-0.17677 -0.0442,-2.96101 -0.0442,-2.96101 l 1.98873,1.06067 0,2.961 z"
         style="fill:#888a85;fill-opacity:1;fill-rule:evenodd;stroke:#000000;stroke-width:0.5;stroke-linecap:butt;stroke-linejoin:bevel;stroke-miterlimit:4;stroke-opacity:1;stroke-dasharray:none" />
      <path
         sodipodi:nodetypes="csccc"
         id="path4386"
         d="m 315.45802,444.07358 c 0,0 1.94454,1.14904 2.16551,1.06065 0.22097,-0.0884 1.28927,-0.7513 1.28927,-0.7513 l -1.8196,-1.03856 -1.63518,0.72921 z"
         style="fill:#d3d7cf;fill-opacity:1;fill-rule:evenodd;stroke:#000000;stroke-width:0.5;stroke-linecap:butt;stroke-linejoin:bevel;stroke-miterlimit:4;stroke-opacity:1;stroke-dasharray:none" />
      <path
         style="fill:#888a85;fill-opacity:1;fill-rule:evenodd;stroke:#000000;stroke-width:0.5;stroke-linecap:butt;stroke-linejoin:bevel;stroke-miterlimit:4;stroke-opacity:1;stroke-dasharray:none"
         d="m 303.30339,439.87512 c 0,0 -1.85615,-0.88388 -1.94454,-1.06066 -0.0884,-0.17677 -0.0442,-2.96101 -0.0442,-2.96101 l 1.98873,1.06067 0,2.961 z"
         id="path4394"
         sodipodi:nodetypes="csccc" />
      <path
         style="fill:#d3d7cf;fill-opacity:1;fill-rule:evenodd;stroke:#000000;stroke-width:0.5;stroke-linecap:butt;stroke-linejoin:bevel;stroke-miterlimit:4;stroke-opacity:1;stroke-dasharray:none"
         d="m 301.18208,435.94185 c 0,0 1.94454,1.14904 2.16551,1.06065 0.22097,-0.0884 1.28927,-0.7513 1.28927,-0.7513 l -1.8196,-1.03856 -1.63518,0.72921 z"
         id="path4396"
         sodipodi:nodetypes="csccc" />
    </g>
  </g>
</svg>
