<?xml version="1.0" encoding="UTF-8" standalone="no"?>
<!-- Created with Inkscape (http://www.inkscape.org/) -->

<svg
   xmlns:dc="http://purl.org/dc/elements/1.1/"
   xmlns:cc="http://creativecommons.org/ns#"
   xmlns:rdf="http://www.w3.org/1999/02/22-rdf-syntax-ns#"
   xmlns:svg="http://www.w3.org/2000/svg"
   xmlns="http://www.w3.org/2000/svg"
   xmlns:xlink="http://www.w3.org/1999/xlink"
   xmlns:sodipodi="http://sodipodi.sourceforge.net/DTD/sodipodi-0.dtd"
   xmlns:inkscape="http://www.inkscape.org/namespaces/inkscape"
   width="58.868435"
   height="46.368893"
   id="svg3308"
   version="1.1"
   inkscape:version="0.47pre1 r21720"
   sodipodi:docname="New document 2"
   inkscape:output_extension="org.inkscape.output.svg.inkscape">
  <defs
     id="defs3310">
    <linearGradient
       inkscape:collect="always"
       xlink:href="#linearGradient6633"
       id="linearGradient4620"
       gradientUnits="userSpaceOnUse"
       gradientTransform="translate(281.563,41.7086)"
       spreadMethod="reflect"
       x1="6.5225167"
       y1="428.96262"
       x2="5.3033009"
       y2="430.68274" />
    <linearGradient
       inkscape:collect="always"
       id="linearGradient6633">
      <stop
         style="stop-color: rgb(211, 215, 207); stop-opacity: 1;"
         offset="0"
         id="stop6635" />
      <stop
         style="stop-color: rgb(136, 138, 133); stop-opacity: 1;"
         offset="1"
         id="stop6637" />
    </linearGradient>
    <linearGradient
       inkscape:collect="always"
       xlink:href="#linearGradient3689"
       id="linearGradient4561"
       gradientUnits="userSpaceOnUse"
       gradientTransform="matrix(0.427944,0,0,0.427944,33.7787,217.069)"
       x1="138.08673"
       y1="370.27557"
       x2="146.77179"
       y2="382.97778" />
    <linearGradient
       inkscape:collect="always"
       id="linearGradient3689">
      <stop
         style="stop-color: rgb(211, 215, 207); stop-opacity: 1;"
         offset="0"
         id="stop3691" />
      <stop
         style="stop-color: rgb(0, 0, 0); stop-opacity: 1;"
         offset="1"
         id="stop3693" />
    </linearGradient>
    <linearGradient
       inkscape:collect="always"
       xlink:href="#linearGradient3689"
       id="linearGradient4563"
       gradientUnits="userSpaceOnUse"
       gradientTransform="matrix(0.427944,0,0,0.427944,33.7787,217.069)"
       x1="138.08673"
       y1="370.27557"
       x2="146.77179"
       y2="382.97778" />
    <linearGradient
       inkscape:collect="always"
       xlink:href="#linearGradient3689"
       id="linearGradient4567"
       gradientUnits="userSpaceOnUse"
       gradientTransform="matrix(0.427944,0,0,0.427944,33.7787,217.069)"
       x1="138.08673"
       y1="370.27557"
       x2="146.77179"
       y2="382.97778" />
  </defs>
  <sodipodi:namedview
     id="base"
     pagecolor="#ffffff"
     bordercolor="#666666"
     borderopacity="1.0"
     inkscape:pageopacity="0.0"
     inkscape:pageshadow="2"
     inkscape:zoom="1.6970563"
     inkscape:cx="311.052"
     inkscape:cy="-48.219062"
     inkscape:current-layer="layer1"
     inkscape:document-units="px"
     showgrid="false"
     inkscape:window-width="1440"
     inkscape:window-height="826"
     inkscape:window-x="0"
     inkscape:window-y="25"
     inkscape:window-maximized="1" />
  <metadata
     id="metadata3313">
    <rdf:RDF>
      <cc:Work
         rdf:about="">
        <dc:format>image/svg+xml</dc:format>
        <dc:type
           rdf:resource="http://purl.org/dc/dcmitype/StillImage" />
        <dc:title></dc:title>
      </cc:Work>
    </rdf:RDF>
  </metadata>
  <g
     id="layer1"
     inkscape:label="Layer 1"
     inkscape:groupmode="layer"
     transform="translate(-32.232446,-80.148886)">
    <g
       id="g4747"
       transform="translate(-231.35148,-359.19732)">
      <path
         sodipodi:nodetypes="csscccccc"
         id="path4461"
         d="m 286.41278,468.01248 c -0.22568,-0.004 -0.45839,0.0623 -0.71875,0.15625 -1.04138,0.37582 -1.90625,1.4416 -1.90625,2.375 0,0.58338 0.3419,0.97089 0.84375,1.09375 l 5.50611,3.17079 3.09375,-3.0625 -6.16236,-3.51454 -0.0312,-0.0312 c -0.17774,-0.10392 -0.38351,-0.18305 -0.625,-0.1875 z"
         style="fill:url(#linearGradient4620);fill-opacity:1;fill-rule:nonzero;stroke:#000000;stroke-width:0.5;stroke-linecap:round;stroke-linejoin:round;stroke-miterlimit:4;stroke-opacity:1;stroke-dasharray:none;stroke-dashoffset:0" />
      <path
         sodipodi:type="arc"
         style="fill:#555753;fill-opacity:1;fill-rule:nonzero;stroke:#000000;stroke-width:0.76503301;stroke-linecap:round;stroke-linejoin:round;stroke-miterlimit:4;stroke-opacity:1;stroke-dasharray:none;stroke-dashoffset:0"
         id="path4463"
         sodipodi:cx="107.47261"
         sodipodi:cy="374.48795"
         sodipodi:rx="2.8865552"
         sodipodi:ry="2.587275"
         d="m 110.35917,374.48795 c 0,1.42891 -1.29236,2.58727 -2.88656,2.58727 -1.5942,0 -2.88655,-1.15836 -2.88655,-2.58727 0,-1.42892 1.29235,-2.58728 2.88655,-2.58728 1.5942,0 2.88656,1.15836 2.88656,2.58728 z"
         transform="matrix(0.653566,-0.235864,0,0.653566,221.229,253.682)" />
      <g
         transform="translate(175.66,80.496)"
         id="g4465">
        <path
           sodipodi:type="arc"
           style="fill:#cc0000;fill-opacity:1;fill-rule:nonzero;stroke:none"
           id="path4467"
           sodipodi:cx="136.67287"
           sodipodi:cy="261.99792"
           sodipodi:rx="11.916239"
           sodipodi:ry="8.0419703"
           d="m 148.58911,261.99792 c 0,4.44146 -5.33509,8.04198 -11.91624,8.04198 -6.58116,0 -11.91624,-3.60052 -11.91624,-8.04198 0,-4.44145 5.33508,-8.04197 11.91624,-8.04197 6.58115,0 11.91624,3.60052 11.91624,8.04197 z"
           transform="matrix(-0.183144,-0.2966,0.2966,-0.183144,41.2824,467.878)" />
        <path
           sodipodi:nodetypes="cccccsc"
           id="path4469"
           d="m 92.872153,375.5268 c -0.395819,-0.003 -0.767445,0.091 -1.096607,0.29421 l -2.23173,1.28383 4.059921,7.26168 2.81233,-1.68503 c 1.047466,-0.94151 1.047462,-2.99635 -0.06687,-4.801 -0.90351,-1.46322 -2.289591,-2.34548 -3.477047,-2.35369 z"
           style="fill:url(#linearGradient4561);fill-opacity:1;fill-rule:evenodd;stroke:#000000;stroke-width:0.213972;stroke-linecap:butt;stroke-linejoin:miter;stroke-miterlimit:4;stroke-opacity:1;stroke-dasharray:none" />
        <path
           transform="matrix(-0.183144,-0.2966,0.2966,-0.183144,38.8934,469.257)"
           d="m 148.58911,261.99792 c 0,4.44146 -5.33509,8.04198 -11.91624,8.04198 -6.58116,0 -11.91624,-3.60052 -11.91624,-8.04198 0,-4.44145 5.33508,-8.04197 11.91624,-8.04197 6.58115,0 11.91624,3.60052 11.91624,8.04197 z"
           sodipodi:ry="8.0419703"
           sodipodi:rx="11.916239"
           sodipodi:cy="261.99792"
           sodipodi:cx="136.67287"
           id="path4471"
           style="fill:#555753;fill-opacity:1;fill-rule:nonzero;stroke:#000000;stroke-width:0.61382598;stroke-linecap:butt;stroke-linejoin:bevel;stroke-miterlimit:4;stroke-opacity:1;stroke-dasharray:none;stroke-dashoffset:0"
           sodipodi:type="arc" />
        <path
           transform="matrix(-0.10007,-0.162061,0.162061,-0.10007,62.7859,428.932)"
           d="m 148.58911,261.99792 c 0,4.44146 -5.33509,8.04198 -11.91624,8.04198 -6.58116,0 -11.91624,-3.60052 -11.91624,-8.04198 0,-4.44145 5.33508,-8.04197 11.91624,-8.04197 6.58115,0 11.91624,3.60052 11.91624,8.04197 z"
           sodipodi:ry="8.0419703"
           sodipodi:rx="11.916239"
           sodipodi:cy="261.99792"
           sodipodi:cx="136.67287"
           id="path4473"
           style="fill:#d3d7cf;fill-opacity:1;fill-rule:nonzero;stroke:none"
           sodipodi:type="arc" />
      </g>
      <g
         id="g4475"
         transform="translate(182.011,84.6055)">
        <path
           transform="matrix(-0.183144,-0.2966,0.2966,-0.183144,41.2824,467.878)"
           d="m 148.58911,261.99792 c 0,4.44146 -5.33509,8.04198 -11.91624,8.04198 -6.58116,0 -11.91624,-3.60052 -11.91624,-8.04198 0,-4.44145 5.33508,-8.04197 11.91624,-8.04197 6.58115,0 11.91624,3.60052 11.91624,8.04197 z"
           sodipodi:ry="8.0419703"
           sodipodi:rx="11.916239"
           sodipodi:cy="261.99792"
           sodipodi:cx="136.67287"
           id="path4477"
           style="fill:#cc0000;fill-opacity:1;fill-rule:nonzero;stroke:none"
           sodipodi:type="arc" />
        <path
           style="fill:url(#linearGradient4563);fill-opacity:1;fill-rule:evenodd;stroke:#000000;stroke-width:0.213972;stroke-linecap:butt;stroke-linejoin:miter;stroke-miterlimit:4;stroke-opacity:1;stroke-dasharray:none"
           d="m 92.872153,375.5268 c -0.395819,-0.003 -0.767445,0.091 -1.096607,0.29421 l -2.23173,1.28383 4.059921,7.26168 2.81233,-1.68503 c 1.047466,-0.94151 1.047462,-2.99635 -0.06687,-4.801 -0.90351,-1.46322 -2.289591,-2.34548 -3.477047,-2.35369 z"
           id="path4479"
           sodipodi:nodetypes="cccccsc" />
        <path
           sodipodi:type="arc"
           style="fill:#555753;fill-opacity:1;fill-rule:nonzero;stroke:#000000;stroke-width:0.61382598;stroke-linecap:butt;stroke-linejoin:bevel;stroke-miterlimit:4;stroke-opacity:1;stroke-dasharray:none;stroke-dashoffset:0"
           id="path4481"
           sodipodi:cx="136.67287"
           sodipodi:cy="261.99792"
           sodipodi:rx="11.916239"
           sodipodi:ry="8.0419703"
           d="m 148.58911,261.99792 c 0,4.44146 -5.33509,8.04198 -11.91624,8.04198 -6.58116,0 -11.91624,-3.60052 -11.91624,-8.04198 0,-4.44145 5.33508,-8.04197 11.91624,-8.04197 6.58115,0 11.91624,3.60052 11.91624,8.04197 z"
           transform="matrix(-0.183144,-0.2966,0.2966,-0.183144,38.8934,469.257)" />
        <path
           sodipodi:type="arc"
           style="fill:#d3d7cf;fill-opacity:1;fill-rule:nonzero;stroke:none"
           id="path4483"
           sodipodi:cx="136.67287"
           sodipodi:cy="261.99792"
           sodipodi:rx="11.916239"
           sodipodi:ry="8.0419703"
           d="m 148.58911,261.99792 c 0,4.44146 -5.33509,8.04198 -11.91624,8.04198 -6.58116,0 -11.91624,-3.60052 -11.91624,-8.04198 0,-4.44145 5.33508,-8.04197 11.91624,-8.04197 6.58115,0 11.91624,3.60052 11.91624,8.04197 z"
           transform="matrix(-0.10007,-0.162061,0.162061,-0.10007,62.7859,428.932)" />
      </g>
      <path
         sodipodi:nodetypes="ccccc"
         style="fill:#d3d7cf;fill-opacity:1;fill-rule:evenodd;stroke:#000000;stroke-width:0.5;stroke-linecap:round;stroke-linejoin:bevel;stroke-miterlimit:4;stroke-opacity:1;stroke-dasharray:none"
         d="m 279.23711,447.04492 -15.34297,8.85827 30.68593,17.71653 15.34298,-8.85827 -30.68594,-17.71653 z"
         id="path4485" />
      <path
         style="fill:#555753;fill-opacity:1;fill-rule:evenodd;stroke:#000000;stroke-width:0.5;stroke-linecap:round;stroke-linejoin:bevel;stroke-miterlimit:4;stroke-opacity:1;stroke-dasharray:none"
         d="m 293.518,464.26269 c -1.79786,1.04385 -3.68475,1.41341 -5.28125,0.90625 l -1.36499,0.85272 0,3.21875 6.64624,-3.85272 0,-1.125 z"
         id="path4487"
         sodipodi:nodetypes="cccccc" />
      <path
         sodipodi:nodetypes="cccccc"
         id="path4489"
         d="m 279.24206,456.13096 c -1.79786,1.04385 -3.68475,1.41341 -5.28125,0.90625 l -1.36499,0.85272 0,3.21875 6.64624,-3.85272 0,-1.125 z"
         style="fill:#555753;fill-opacity:1;fill-rule:evenodd;stroke:#000000;stroke-width:0.5;stroke-linecap:round;stroke-linejoin:bevel;stroke-miterlimit:4;stroke-opacity:1;stroke-dasharray:none" />
      <path
         style="fill:#888a85;fill-opacity:1;fill-rule:evenodd;stroke:#000000;stroke-width:0.5;stroke-linecap:butt;stroke-linejoin:bevel;stroke-miterlimit:4;stroke-opacity:1;stroke-dasharray:none"
         d="m 286.8934,468.88447 c 0,0 -1.85616,-0.88388 -1.94455,-1.06066 -0.0884,-0.17677 -0.0442,-2.96101 -0.0442,-2.96101 l 1.98873,1.06067 0,2.961 z"
         id="path4551"
         sodipodi:nodetypes="csccc" />
      <path
         style="fill:#d3d7cf;fill-opacity:1;fill-rule:evenodd;stroke:#000000;stroke-width:0.5;stroke-linecap:butt;stroke-linejoin:bevel;stroke-miterlimit:4;stroke-opacity:1;stroke-dasharray:none"
         d="m 284.77208,464.9512 c 0,0 1.94455,1.14904 2.16551,1.06065 0.22097,-0.0884 1.28927,-0.7513 1.28927,-0.7513 l -1.81959,-1.03856 -1.63519,0.72921 z"
         id="path4553"
         sodipodi:nodetypes="csccc" />
      <path
         sodipodi:nodetypes="csccc"
         id="path4555"
         d="m 272.61745,460.75274 c 0,0 -1.85615,-0.88388 -1.94454,-1.06066 -0.0884,-0.17677 -0.0442,-2.96101 -0.0442,-2.96101 l 1.98872,1.06067 0,2.961 z"
         style="fill:#888a85;fill-opacity:1;fill-rule:evenodd;stroke:#000000;stroke-width:0.5;stroke-linecap:butt;stroke-linejoin:bevel;stroke-miterlimit:4;stroke-opacity:1;stroke-dasharray:none" />
      <path
         sodipodi:nodetypes="csccc"
         id="path4557"
         d="m 270.49614,456.81947 c 0,0 1.94455,1.14904 2.16551,1.06065 0.22097,-0.0884 1.28927,-0.7513 1.28927,-0.7513 l -1.8196,-1.03856 -1.63518,0.72921 z"
         style="fill:#d3d7cf;fill-opacity:1;fill-rule:evenodd;stroke:#000000;stroke-width:0.5;stroke-linecap:butt;stroke-linejoin:bevel;stroke-miterlimit:4;stroke-opacity:1;stroke-dasharray:none" />
      <g
         transform="translate(-45.3061,40.879)"
         id="g4686">
        <path
           style="fill:#c17d11;fill-rule:evenodd;stroke:#000000;stroke-width:0.5;stroke-linecap:butt;stroke-linejoin:miter;stroke-miterlimit:4;stroke-opacity:1;stroke-dasharray:none"
           d="m 312.5625,404.15625 c -0.93973,0.006 -2.03498,0.6618 -2.75,1.75 -0.95335,1.45092 -0.88572,3.14537 0.15625,3.75 l 16.15625,10.21875 15,9.125 5.375,-5.25 -16.875,-10.625 c -5.48833,-2.74045 -11.01454,-5.5151 -16.1875,-8.75 -0.2605,-0.15116 -0.56176,-0.22079 -0.875,-0.21875 z"
           id="path4622"
           sodipodi:nodetypes="csccccccc" />
        <path
           sodipodi:type="arc"
           style="fill:#8f5902;fill-opacity:1;fill-rule:nonzero;stroke:#000000;stroke-width:1.42251003;stroke-linecap:butt;stroke-linejoin:bevel;stroke-miterlimit:4;stroke-opacity:1;stroke-dasharray:none;stroke-dashoffset:0"
           id="path4624"
           sodipodi:cx="136.67287"
           sodipodi:cy="261.99792"
           sodipodi:rx="11.916239"
           sodipodi:ry="8.0419703"
           d="m 148.58911,261.99792 c 0,4.44146 -5.33509,8.04198 -11.91624,8.04198 -6.58116,0 -11.91624,-3.60052 -11.91624,-8.04198 0,-4.44145 5.33508,-8.04197 11.91624,-8.04197 6.58115,0 11.91624,3.60052 11.91624,8.04197 z"
           transform="matrix(0.184148,-0.260946,-0.298226,-0.161129,396.345,504.117)" />
        <path
           style="opacity:0.42253502;fill:#8f5902;fill-opacity:1;fill-rule:nonzero;stroke:none"
           d="m 309.71856,408.09682 c 2.20979,1.35326 4.20366,3.11494 6.69814,3.94719 4.17282,1.90105 11.33821,5.15079 15.13176,7.775 2.00844,1.20143 3.9432,2.52674 5.8716,3.84412 0.47002,0.19914 2.24586,1.19102 1.38349,1.40849 -1.60543,-0.49644 -2.75997,-1.81334 -4.20083,-2.62552 -2.66829,-1.73644 -5.35383,-3.46643 -8.16631,-4.95856 -3.51754,-1.65792 -9.9566,-4.73276 -13.43983,-6.46394 -0.94506,-1.06452 -2.76596,-1.21945 -3.26475,-2.67403 l -0.0133,-0.25275 0,0 z"
           id="path4631"
           sodipodi:nodetypes="ccccccccccc" />
        <path
           style="opacity:0.42253502;fill:#8f5902;fill-opacity:1;fill-rule:nonzero;stroke:none"
           d="m 325.70642,418.32538 c 3.49865,1.59763 6.54113,4.00304 9.91352,5.82761 1.25514,0.84712 2.47352,1.7691 3.85302,2.41017 -1.37858,0.87169 -2.38232,-1.05439 -3.56057,-1.50977 -2.91984,-1.88539 -5.96999,-3.56392 -8.86453,-5.48781 -0.40052,-0.24644 -1.99586,-0.51472 -1.34144,-1.2402 z"
           id="path4633" />
        <path
           style="opacity:0.42253502;fill:#8f5902;fill-opacity:1;fill-rule:nonzero;stroke:none"
           d="m 311.02491,405.76591 c 3.72128,1.83156 9.6392,5.79651 13.3194,7.70487 3.11427,1.75789 6.09357,3.75734 8.88064,5.99544 2.21876,1.37855 4.24701,3.04245 6.39543,4.51369 0.59976,0.34499 2.22693,1.00963 1.88083,1.62154 -1.57757,-0.22098 -2.51436,-1.69147 -3.90659,-2.30706 -2.52651,-1.9922 -5.30235,-3.64323 -7.79532,-5.67972 -3.6691,-2.67216 -7.75767,-4.68065 -11.62207,-7.04348 -1.57525,-0.9534 -5.74328,-3.36245 -7.30716,-4.31864 -0.19937,-0.15849 -0.0658,-0.43739 0.15484,-0.48664 z"
           id="path4635"
           sodipodi:nodetypes="cccccccccc" />
        <path
           style="opacity:0.42253502;fill:#e9b96e;fill-opacity:1;fill-rule:nonzero;stroke:none"
           d="m 312.0401,405.50461 c 2.77435,2.08266 9.03353,6.52662 12.09631,8.14456 4.37536,2.05526 9.19543,3.25802 13.13085,6.17283 1.43726,0.94801 2.91722,1.82915 4.35762,2.77227 -0.16961,1.18985 -1.74724,-0.50003 -2.29505,-0.80599 -3.11,-1.86705 -6.04984,-4.14598 -9.56789,-5.21296 -4.39631,-1.63978 -11.97263,-6.28561 -15.79477,-9.03416 -0.60575,-0.41462 -2.68018,-1.11654 -1.92707,-2.03655 z"
           id="path4639"
           sodipodi:nodetypes="cccccccc" />
        <path
           style="opacity:0.42253502;fill:#e9b96e;fill-opacity:1;fill-rule:nonzero;stroke:none"
           d="m 312.99658,405.51736 c 5.85342,3.82623 15.41505,8.91415 21.62623,12.10267 0.61973,-0.0209 2.12246,1.2846 0.75954,1.15343 -1.02611,-0.60468 -2.06336,-1.24448 -3.14661,-1.77984 -3.82524,-1.95075 -10.99502,-5.77023 -14.67556,-7.98983 -1.71016,-0.99669 -3.40029,-2.02817 -5.06008,-3.10679 0.16551,-0.12652 0.331,-0.2531 0.49648,-0.37964 z"
           id="path4641"
           sodipodi:nodetypes="ccccccc" />
        <path
           style="opacity:0.42253502;fill:#8f5902;fill-opacity:1;fill-rule:nonzero;stroke:none"
           id="path4678"
           d="m 315.90131,412.8232 c 0.0496,0.0111 0.0979,0.0201 0.14535,0.0405 0.0837,0.0361 0.16081,0.0858 0.24132,0.12855 0.17485,0.0928 0.12696,0.0673 0.316,0.15845 0.26362,0.13722 0.53829,0.25209 0.79929,0.39432 0.13128,0.0619 0.243,0.15535 0.36612,0.2303 0.17728,0.0967 0.35759,0.19056 0.53641,0.28577 0.20959,0.12017 0.41137,0.25353 0.61553,0.38264 0.11109,0.0763 0.22145,0.15551 0.3404,0.21923 0.14373,0.0902 0.28481,0.18559 0.42179,0.28583 0.13498,0.0869 0.26359,0.1822 0.39078,0.28013 0.14602,0.10211 0.28512,0.21423 0.43514,0.31047 0.22453,0.13228 0.4652,0.23325 0.70324,0.33815 0.37535,0.16847 0.7604,0.31431 1.14417,0.46231 0.3594,0.16379 0.71768,0.33176 1.07003,0.51062 0.25877,0.12231 0.50093,0.2752 0.75127,0.41295 0.1708,0.10124 0.33468,0.21371 0.5057,0.31465 0.0698,0.0461 0.0364,0.0257 0.0999,0.062 l -0.24796,0.1902 c -0.0641,-0.0377 -0.0306,-0.0171 -0.10011,-0.0623 -0.17018,-0.10175 -0.33434,-0.21317 -0.5051,-0.31387 -0.24962,-0.13836 -0.4923,-0.2896 -0.75059,-0.41207 -0.35179,-0.17783 -0.70877,-0.34644 -1.06808,-0.50814 -0.38423,-0.14798 -0.76936,-0.29479 -1.14509,-0.46346 -0.23934,-0.10558 -0.48131,-0.20751 -0.70627,-0.34208 -0.15,-0.0977 -0.29046,-0.20927 -0.43666,-0.31251 -0.12716,-0.0975 -0.25596,-0.19209 -0.39031,-0.27949 -0.13632,-0.0989 -0.27581,-0.19444 -0.41932,-0.28258 -0.11858,-0.0658 -0.22996,-0.14416 -0.34164,-0.22085 -0.20335,-0.12902 -0.40479,-0.26161 -0.6141,-0.38078 -0.17928,-0.0956 -0.36055,-0.18871 -0.53761,-0.28733 -0.12177,-0.0761 -0.23458,-0.16685 -0.36506,-0.22891 -0.26131,-0.14068 -0.53493,-0.25665 -0.79841,-0.39318 -0.19426,-0.0942 -0.13747,-0.0644 -0.3168,-0.15949 -0.12039,-0.0638 -0.2379,-0.14345 -0.37697,-0.15714 l 0.23763,-0.20296 z" />
        <path
           style="opacity:0.42253502;fill:#8f5902;fill-opacity:1;fill-rule:nonzero;stroke:none"
           id="path4680"
           d="m 325.89589,418.7607 c 0.24234,0.0427 0.46824,0.13211 0.69032,0.23556 0.47073,0.22342 0.89182,0.53493 1.31696,0.83278 0.50963,0.39177 1.05508,0.73148 1.59585,1.07746 0.3858,0.24519 0.77726,0.48207 1.17469,0.70799 0.26032,0.14503 0.52846,0.27534 0.79188,0.41444 0.21924,0.11754 0.43228,0.24545 0.65501,0.35669 0.35669,0.13066 0.71423,0.26178 1.06934,0.39824 0.38972,0.14382 0.75756,0.33706 1.11825,0.54129 0.29619,0.18118 0.58478,0.37461 0.87607,0.56357 0.19283,0.1113 0.37469,0.23891 0.55699,0.36616 0.37278,0.29598 0.77386,0.5501 1.18159,0.79433 0.58267,0.32494 1.15816,0.66234 1.74049,0.98797 0.23685,0.13344 0.47051,0.27238 0.70533,0.40934 0.1109,0.0647 0.21703,0.13916 0.33439,0.19124 0.006,-0.002 0.0129,-0.003 0.0193,-0.005 l -0.23799,0.20253 c -0.009,-0.002 -0.0183,-0.004 -0.0275,-0.005 -0.11698,-0.0553 -0.22441,-0.12837 -0.3362,-0.19358 -0.23469,-0.1369 -0.46823,-0.27577 -0.70506,-0.40897 -0.58249,-0.32593 -1.15838,-0.6632 -1.74105,-0.98872 -0.40814,-0.24492 -0.80916,-0.50027 -1.18291,-0.79607 -0.1819,-0.12728 -0.36431,-0.25343 -0.55635,-0.36531 -0.29067,-0.18882 -0.57884,-0.38184 -0.87492,-0.56205 -0.35968,-0.20324 -0.72686,-0.39465 -1.1154,-0.53764 -0.35599,-0.13654 -0.715,-0.26622 -1.07123,-0.40065 -0.22253,-0.11197 -0.4357,-0.24009 -0.65539,-0.35718 -0.2641,-0.13849 -0.53192,-0.27007 -0.79251,-0.41526 -0.39757,-0.22669 -0.78965,-0.46345 -1.17566,-0.70927 -0.54124,-0.34604 -1.08636,-0.68695 -1.59665,-1.0785 -0.42375,-0.29686 -0.84377,-0.60693 -1.31358,-0.82838 -0.21843,-0.10039 -0.44184,-0.19147 -0.68174,-0.22507 l 0.23762,-0.20296 z" />
        <path
           style="opacity:0.42253502;fill:#8f5902;fill-opacity:1;fill-rule:nonzero;stroke:none"
           id="path4682"
           d="m 323.32798,417.7607 c 0.17102,0.036 0.33935,0.0799 0.50359,0.13988 0.21288,0.075 0.40306,0.19586 0.60023,0.30266 0.12696,0.0688 0.25654,0.1326 0.38461,0.19928 0.29715,0.14295 0.58278,0.30583 0.86187,0.48084 0.10073,0.0615 0.19425,0.13273 0.28496,0.20786 l -0.25104,0.18611 c -0.0901,-0.0739 -0.18288,-0.14389 -0.28254,-0.20464 -0.27847,-0.17453 -0.56427,-0.33559 -0.86034,-0.47885 -0.32576,-0.16954 -0.64174,-0.36003 -0.98224,-0.49864 -0.16167,-0.0573 -0.32728,-0.10372 -0.49673,-0.13154 l 0.23763,-0.20296 z" />
        <path
           sodipodi:type="spiral"
           style="fill:none;stroke:#000000;stroke-width:0.481713;stroke-linecap:butt;stroke-linejoin:miter;stroke-miterlimit:4;stroke-opacity:1;stroke-dasharray:none"
           id="path4684"
           sodipodi:cx="343.25"
           sodipodi:cy="426.58093"
           sodipodi:expansion="1"
           sodipodi:revolution="5.8382397"
           sodipodi:radius="134.65251"
           sodipodi:argument="-9.7672472"
           sodipodi:t0="0.13777922"
           d="m 343.2637,445.13325 c -11.86944,2.35758 -22.59618,-7.09207 -24.33198,-18.53435 -2.27949,-15.02621 9.71407,-28.31207 24.29606,-30.10222 18.17502,-2.23125 34.04465,12.33576 35.87245,30.05777 2.19893,21.32046 -14.95717,39.787 -35.81949,41.64268 -24.46423,2.17606 -45.53555,-17.57836 -47.41291,-41.5812 -2.15925,-27.60707 20.19943,-51.2883 47.34291,-53.18313 30.74936,-2.14656 57.04401,22.8204 58.95337,53.10462 2.13678,33.89129 -25.44132,62.80188 -58.86633,64.72359 -37.03299,2.12914 -68.56141,-28.0622 -70.49383,-64.62804 -2.12313,-40.17451 30.68305,-74.3222 70.38976,-76.26406 43.3159,-2.11837 80.08398,33.30389 82.03428,76.15147 2.1146,46.45722 -35.92471,85.84658 -81.91318,87.80451 -49.59847,2.11164 -91.60982,-38.54552 -93.57474,-87.67489 -2.10931,-52.73966 41.16632,-97.37361 93.4366,-99.34497 55.88081,-2.10753 103.13786,43.78712 105.1152,99.19831 2.1062,59.02193 -46.40791,108.90248 -104.96002,110.88544 -62.16302,2.10524 -114.66743,-49.02871 -116.65566,-110.72174 -2.10462,-65.30409 51.64949,-120.43266 116.48344,-122.42589 68.44514,-2.10426 126.19813,54.27029 128.19613,122.24516 2.10414,71.58617 -56.89108,131.9638 -128.00688,133.96635 -9.5194,0.26806 -19.06513,-0.48364 -28.4262,-2.23259"
           transform="matrix(0.0259642,-0.01573,0,0.0225701,334.311,422.23)" />
      </g>
      <g
         transform="translate(-42.0488,35.44)"
         id="g4699">
        <path
           sodipodi:nodetypes="csccccccc"
           id="path4701"
           d="m 312.5625,404.15625 c -0.93973,0.006 -2.03498,0.6618 -2.75,1.75 -0.95335,1.45092 -0.88572,3.14537 0.15625,3.75 l 16.15625,10.21875 15,9.125 5.375,-5.25 -16.875,-10.625 c -5.48833,-2.74045 -11.01454,-5.5151 -16.1875,-8.75 -0.2605,-0.15116 -0.56176,-0.22079 -0.875,-0.21875 z"
           style="fill:#c17d11;fill-rule:evenodd;stroke:#000000;stroke-width:0.5;stroke-linecap:butt;stroke-linejoin:miter;stroke-miterlimit:4;stroke-opacity:1;stroke-dasharray:none" />
        <path
           transform="matrix(0.184148,-0.260946,-0.298226,-0.161129,396.345,504.117)"
           d="m 148.58911,261.99792 c 0,4.44146 -5.33509,8.04198 -11.91624,8.04198 -6.58116,0 -11.91624,-3.60052 -11.91624,-8.04198 0,-4.44145 5.33508,-8.04197 11.91624,-8.04197 6.58115,0 11.91624,3.60052 11.91624,8.04197 z"
           sodipodi:ry="8.0419703"
           sodipodi:rx="11.916239"
           sodipodi:cy="261.99792"
           sodipodi:cx="136.67287"
           id="path4703"
           style="fill:#8f5902;fill-opacity:1;fill-rule:nonzero;stroke:#000000;stroke-width:1.42251003;stroke-linecap:butt;stroke-linejoin:bevel;stroke-miterlimit:4;stroke-opacity:1;stroke-dasharray:none;stroke-dashoffset:0"
           sodipodi:type="arc" />
        <path
           sodipodi:nodetypes="ccccccccccc"
           id="path4705"
           d="m 309.71856,408.09682 c 2.20979,1.35326 4.20366,3.11494 6.69814,3.94719 4.17282,1.90105 11.33821,5.15079 15.13176,7.775 2.00844,1.20143 3.9432,2.52674 5.8716,3.84412 0.47002,0.19914 2.24586,1.19102 1.38349,1.40849 -1.60543,-0.49644 -2.75997,-1.81334 -4.20083,-2.62552 -2.66829,-1.73644 -5.35383,-3.46643 -8.16631,-4.95856 -3.51754,-1.65792 -9.9566,-4.73276 -13.43983,-6.46394 -0.94506,-1.06452 -2.76596,-1.21945 -3.26475,-2.67403 l -0.0133,-0.25275 0,0 z"
           style="opacity:0.42253502;fill:#8f5902;fill-opacity:1;fill-rule:nonzero;stroke:none" />
        <path
           id="path4707"
           d="m 325.70642,418.32538 c 3.49865,1.59763 6.54113,4.00304 9.91352,5.82761 1.25514,0.84712 2.47352,1.7691 3.85302,2.41017 -1.37858,0.87169 -2.38232,-1.05439 -3.56057,-1.50977 -2.91984,-1.88539 -5.96999,-3.56392 -8.86453,-5.48781 -0.40052,-0.24644 -1.99586,-0.51472 -1.34144,-1.2402 z"
           style="opacity:0.42253502;fill:#8f5902;fill-opacity:1;fill-rule:nonzero;stroke:none" />
        <path
           sodipodi:nodetypes="cccccccccc"
           id="path4709"
           d="m 311.02491,405.76591 c 3.72128,1.83156 9.6392,5.79651 13.3194,7.70487 3.11427,1.75789 6.09357,3.75734 8.88064,5.99544 2.21876,1.37855 4.24701,3.04245 6.39543,4.51369 0.59976,0.34499 2.22693,1.00963 1.88083,1.62154 -1.57757,-0.22098 -2.51436,-1.69147 -3.90659,-2.30706 -2.52651,-1.9922 -5.30235,-3.64323 -7.79532,-5.67972 -3.6691,-2.67216 -7.75767,-4.68065 -11.62207,-7.04348 -1.57525,-0.9534 -5.74328,-3.36245 -7.30716,-4.31864 -0.19937,-0.15849 -0.0658,-0.43739 0.15484,-0.48664 z"
           style="opacity:0.42253502;fill:#8f5902;fill-opacity:1;fill-rule:nonzero;stroke:none" />
        <path
           sodipodi:nodetypes="cccccccc"
           id="path4711"
           d="m 312.0401,405.50461 c 2.77435,2.08266 9.03353,6.52662 12.09631,8.14456 4.37536,2.05526 9.19543,3.25802 13.13085,6.17283 1.43726,0.94801 2.91722,1.82915 4.35762,2.77227 -0.16961,1.18985 -1.74724,-0.50003 -2.29505,-0.80599 -3.11,-1.86705 -6.04984,-4.14598 -9.56789,-5.21296 -4.39631,-1.63978 -11.97263,-6.28561 -15.79477,-9.03416 -0.60575,-0.41462 -2.68018,-1.11654 -1.92707,-2.03655 z"
           style="opacity:0.42253502;fill:#e9b96e;fill-opacity:1;fill-rule:nonzero;stroke:none" />
        <path
           sodipodi:nodetypes="ccccccc"
           id="path4713"
           d="m 312.99658,405.51736 c 5.85342,3.82623 15.41505,8.91415 21.62623,12.10267 0.61973,-0.0209 2.12246,1.2846 0.75954,1.15343 -1.02611,-0.60468 -2.06336,-1.24448 -3.14661,-1.77984 -3.82524,-1.95075 -10.99502,-5.77023 -14.67556,-7.98983 -1.71016,-0.99669 -3.40029,-2.02817 -5.06008,-3.10679 0.16551,-0.12652 0.331,-0.2531 0.49648,-0.37964 z"
           style="opacity:0.42253502;fill:#e9b96e;fill-opacity:1;fill-rule:nonzero;stroke:none" />
        <path
           d="m 315.90131,412.8232 c 0.0496,0.0111 0.0979,0.0201 0.14535,0.0405 0.0837,0.0361 0.16081,0.0858 0.24132,0.12855 0.17485,0.0928 0.12696,0.0673 0.316,0.15845 0.26362,0.13722 0.53829,0.25209 0.79929,0.39432 0.13128,0.0619 0.243,0.15535 0.36612,0.2303 0.17728,0.0967 0.35759,0.19056 0.53641,0.28577 0.20959,0.12017 0.41137,0.25353 0.61553,0.38264 0.11109,0.0763 0.22145,0.15551 0.3404,0.21923 0.14373,0.0902 0.28481,0.18559 0.42179,0.28583 0.13498,0.0869 0.26359,0.1822 0.39078,0.28013 0.14602,0.10211 0.28512,0.21423 0.43514,0.31047 0.22453,0.13228 0.4652,0.23325 0.70324,0.33815 0.37535,0.16847 0.7604,0.31431 1.14417,0.46231 0.3594,0.16379 0.71768,0.33176 1.07003,0.51062 0.25877,0.12231 0.50093,0.2752 0.75127,0.41295 0.1708,0.10124 0.33468,0.21371 0.5057,0.31465 0.0698,0.0461 0.0364,0.0257 0.0999,0.062 l -0.24796,0.1902 c -0.0641,-0.0377 -0.0306,-0.0171 -0.10011,-0.0623 -0.17018,-0.10175 -0.33434,-0.21317 -0.5051,-0.31387 -0.24962,-0.13836 -0.4923,-0.2896 -0.75059,-0.41207 -0.35179,-0.17783 -0.70877,-0.34644 -1.06808,-0.50814 -0.38423,-0.14798 -0.76936,-0.29479 -1.14509,-0.46346 -0.23934,-0.10558 -0.48131,-0.20751 -0.70627,-0.34208 -0.15,-0.0977 -0.29046,-0.20927 -0.43666,-0.31251 -0.12716,-0.0975 -0.25596,-0.19209 -0.39031,-0.27949 -0.13632,-0.0989 -0.27581,-0.19444 -0.41932,-0.28258 -0.11858,-0.0658 -0.22996,-0.14416 -0.34164,-0.22085 -0.20335,-0.12902 -0.40479,-0.26161 -0.6141,-0.38078 -0.17928,-0.0956 -0.36055,-0.18871 -0.53761,-0.28733 -0.12177,-0.0761 -0.23458,-0.16685 -0.36506,-0.22891 -0.26131,-0.14068 -0.53493,-0.25665 -0.79841,-0.39318 -0.19426,-0.0942 -0.13747,-0.0644 -0.3168,-0.15949 -0.12039,-0.0638 -0.2379,-0.14345 -0.37697,-0.15714 l 0.23763,-0.20296 z"
           id="path4715"
           style="opacity:0.42253502;fill:#8f5902;fill-opacity:1;fill-rule:nonzero;stroke:none" />
        <path
           d="m 325.89589,418.7607 c 0.24234,0.0427 0.46824,0.13211 0.69032,0.23556 0.47073,0.22342 0.89182,0.53493 1.31696,0.83278 0.50963,0.39177 1.05508,0.73148 1.59585,1.07746 0.3858,0.24519 0.77726,0.48207 1.17469,0.70799 0.26032,0.14503 0.52846,0.27534 0.79188,0.41444 0.21924,0.11754 0.43228,0.24545 0.65501,0.35669 0.35669,0.13066 0.71423,0.26178 1.06934,0.39824 0.38972,0.14382 0.75756,0.33706 1.11825,0.54129 0.29619,0.18118 0.58478,0.37461 0.87607,0.56357 0.19283,0.1113 0.37469,0.23891 0.55699,0.36616 0.37278,0.29598 0.77386,0.5501 1.18159,0.79433 0.58267,0.32494 1.15816,0.66234 1.74049,0.98797 0.23685,0.13344 0.47051,0.27238 0.70533,0.40934 0.1109,0.0647 0.21703,0.13916 0.33439,0.19124 0.006,-0.002 0.0129,-0.003 0.0193,-0.005 l -0.23799,0.20253 c -0.009,-0.002 -0.0183,-0.004 -0.0275,-0.005 -0.11698,-0.0553 -0.22441,-0.12837 -0.3362,-0.19358 -0.23469,-0.1369 -0.46823,-0.27577 -0.70506,-0.40897 -0.58249,-0.32593 -1.15838,-0.6632 -1.74105,-0.98872 -0.40814,-0.24492 -0.80916,-0.50027 -1.18291,-0.79607 -0.1819,-0.12728 -0.36431,-0.25343 -0.55635,-0.36531 -0.29067,-0.18882 -0.57884,-0.38184 -0.87492,-0.56205 -0.35968,-0.20324 -0.72686,-0.39465 -1.1154,-0.53764 -0.35599,-0.13654 -0.715,-0.26622 -1.07123,-0.40065 -0.22253,-0.11197 -0.4357,-0.24009 -0.65539,-0.35718 -0.2641,-0.13849 -0.53192,-0.27007 -0.79251,-0.41526 -0.39757,-0.22669 -0.78965,-0.46345 -1.17566,-0.70927 -0.54124,-0.34604 -1.08636,-0.68695 -1.59665,-1.0785 -0.42375,-0.29686 -0.84377,-0.60693 -1.31358,-0.82838 -0.21843,-0.10039 -0.44184,-0.19147 -0.68174,-0.22507 l 0.23762,-0.20296 z"
           id="path4717"
           style="opacity:0.42253502;fill:#8f5902;fill-opacity:1;fill-rule:nonzero;stroke:none" />
        <path
           d="m 323.32798,417.7607 c 0.17102,0.036 0.33935,0.0799 0.50359,0.13988 0.21288,0.075 0.40306,0.19586 0.60023,0.30266 0.12696,0.0688 0.25654,0.1326 0.38461,0.19928 0.29715,0.14295 0.58278,0.30583 0.86187,0.48084 0.10073,0.0615 0.19425,0.13273 0.28496,0.20786 l -0.25104,0.18611 c -0.0901,-0.0739 -0.18288,-0.14389 -0.28254,-0.20464 -0.27847,-0.17453 -0.56427,-0.33559 -0.86034,-0.47885 -0.32576,-0.16954 -0.64174,-0.36003 -0.98224,-0.49864 -0.16167,-0.0573 -0.32728,-0.10372 -0.49673,-0.13154 l 0.23763,-0.20296 z"
           id="path4719"
           style="opacity:0.42253502;fill:#8f5902;fill-opacity:1;fill-rule:nonzero;stroke:none" />
        <path
           transform="matrix(0.0259642,-0.01573,0,0.0225701,334.311,422.23)"
           d="m 343.2637,445.13325 c -11.86944,2.35758 -22.59618,-7.09207 -24.33198,-18.53435 -2.27949,-15.02621 9.71407,-28.31207 24.29606,-30.10222 18.17502,-2.23125 34.04465,12.33576 35.87245,30.05777 2.19893,21.32046 -14.95717,39.787 -35.81949,41.64268 -24.46423,2.17606 -45.53555,-17.57836 -47.41291,-41.5812 -2.15925,-27.60707 20.19943,-51.2883 47.34291,-53.18313 30.74936,-2.14656 57.04401,22.8204 58.95337,53.10462 2.13678,33.89129 -25.44132,62.80188 -58.86633,64.72359 -37.03299,2.12914 -68.56141,-28.0622 -70.49383,-64.62804 -2.12313,-40.17451 30.68305,-74.3222 70.38976,-76.26406 43.3159,-2.11837 80.08398,33.30389 82.03428,76.15147 2.1146,46.45722 -35.92471,85.84658 -81.91318,87.80451 -49.59847,2.11164 -91.60982,-38.54552 -93.57474,-87.67489 -2.10931,-52.73966 41.16632,-97.37361 93.4366,-99.34497 55.88081,-2.10753 103.13786,43.78712 105.1152,99.19831 2.1062,59.02193 -46.40791,108.90248 -104.96002,110.88544 -62.16302,2.10524 -114.66743,-49.02871 -116.65566,-110.72174 -2.10462,-65.30409 51.64949,-120.43266 116.48344,-122.42589 68.44514,-2.10426 126.19813,54.27029 128.19613,122.24516 2.10414,71.58617 -56.89108,131.9638 -128.00688,133.96635 -9.5194,0.26806 -19.06513,-0.48364 -28.4262,-2.23259"
           sodipodi:t0="0.13777922"
           sodipodi:argument="-9.7672472"
           sodipodi:radius="134.65251"
           sodipodi:revolution="5.8382397"
           sodipodi:expansion="1"
           sodipodi:cy="426.58093"
           sodipodi:cx="343.25"
           id="path4721"
           style="fill:none;stroke:#000000;stroke-width:0.481713;stroke-linecap:butt;stroke-linejoin:miter;stroke-miterlimit:4;stroke-opacity:1;stroke-dasharray:none"
           sodipodi:type="spiral" />
      </g>
      <g
         id="g4495"
         transform="translate(204.81,98.7444)">
        <path
           transform="matrix(-0.183144,-0.2966,0.2966,-0.183144,41.2824,467.878)"
           d="m 148.58911,261.99792 c 0,4.44146 -5.33509,8.04198 -11.91624,8.04198 -6.58116,0 -11.91624,-3.60052 -11.91624,-8.04198 0,-4.44145 5.33508,-8.04197 11.91624,-8.04197 6.58115,0 11.91624,3.60052 11.91624,8.04197 z"
           sodipodi:ry="8.0419703"
           sodipodi:rx="11.916239"
           sodipodi:cy="261.99792"
           sodipodi:cx="136.67287"
           id="path4497"
           style="fill:#cc0000;fill-opacity:1;fill-rule:nonzero;stroke:none"
           sodipodi:type="arc" />
        <path
           style="fill:url(#linearGradient4567);fill-opacity:1;fill-rule:evenodd;stroke:#000000;stroke-width:0.213972;stroke-linecap:butt;stroke-linejoin:miter;stroke-miterlimit:4;stroke-opacity:1;stroke-dasharray:none"
           d="m 92.872153,375.5268 c -0.395819,-0.003 -0.767445,0.091 -1.096607,0.29421 l -2.23173,1.28383 4.059921,7.26168 2.81233,-1.68503 c 1.047466,-0.94151 1.047462,-2.99635 -0.06687,-4.801 -0.90351,-1.46322 -2.289591,-2.34548 -3.477047,-2.35369 z"
           id="path4499"
           sodipodi:nodetypes="cccccsc" />
        <path
           sodipodi:type="arc"
           style="fill:#555753;fill-opacity:1;fill-rule:nonzero;stroke:#000000;stroke-width:0.61382598;stroke-linecap:butt;stroke-linejoin:bevel;stroke-miterlimit:4;stroke-opacity:1;stroke-dasharray:none;stroke-dashoffset:0"
           id="path4501"
           sodipodi:cx="136.67287"
           sodipodi:cy="261.99792"
           sodipodi:rx="11.916239"
           sodipodi:ry="8.0419703"
           d="m 148.58911,261.99792 c 0,4.44146 -5.33509,8.04198 -11.91624,8.04198 -6.58116,0 -11.91624,-3.60052 -11.91624,-8.04198 0,-4.44145 5.33508,-8.04197 11.91624,-8.04197 6.58115,0 11.91624,3.60052 11.91624,8.04197 z"
           transform="matrix(-0.183144,-0.2966,0.2966,-0.183144,38.8934,469.257)" />
        <path
           sodipodi:type="arc"
           style="fill:#d3d7cf;fill-opacity:1;fill-rule:nonzero;stroke:none"
           id="path4503"
           sodipodi:cx="136.67287"
           sodipodi:cy="261.99792"
           sodipodi:rx="11.916239"
           sodipodi:ry="8.0419703"
           d="m 148.58911,261.99792 c 0,4.44146 -5.33509,8.04198 -11.91624,8.04198 -6.58116,0 -11.91624,-3.60052 -11.91624,-8.04198 0,-4.44145 5.33508,-8.04197 11.91624,-8.04197 6.58115,0 11.91624,3.60052 11.91624,8.04197 z"
           transform="matrix(-0.10007,-0.162061,0.162061,-0.10007,62.7859,428.932)" />
      </g>
      <path
         sodipodi:nodetypes="ccccccc"
         style="fill:#888a85;fill-rule:evenodd;stroke:#000000;stroke-width:0.5;stroke-linecap:butt;stroke-linejoin:bevel;stroke-miterlimit:4;stroke-opacity:1;stroke-dasharray:none"
         d="m 299.83881,477.7151 c 0.89925,1.45631 1.21216,3.0276 0.96875,4.28125 l 6,3.46875 0,-17.71875 -9.96875,-5.625 0.0671,10.96875 c 0.43257,1.10383 0.4124,2.43552 2.93289,4.625 z"
         id="path4505" />
      <path
         id="path4507"
         d="m 322.15817,476.594 0,-17.71654 -15.34297,8.85827 0,17.71653 15.34297,-8.85826 z"
         style="fill:#555753;fill-rule:evenodd;stroke:#000000;stroke-width:0.5;stroke-linecap:butt;stroke-linejoin:bevel;stroke-miterlimit:4;stroke-opacity:1;stroke-dasharray:none" />
      <path
         sodipodi:nodetypes="ccccc"
         style="fill:#729fcf;fill-rule:evenodd;stroke:#000000;stroke-width:0.5;stroke-linecap:butt;stroke-linejoin:bevel;stroke-miterlimit:4;stroke-opacity:1;stroke-dasharray:none"
         d="m 322.20236,465.56627 -0.0442,-6.68881 -15.34297,8.85827 0.0442,6.6888 15.34297,-8.85826 z"
         id="path4509" />
      <path
         id="path4511"
         d="m 305.80605,468.41584 -7.70239,-4.31255 0.0942,5.08074 7.51539,5.14609 0.0928,-5.91428 z"
         style="fill:#729fcf;fill-opacity:1;fill-rule:evenodd;stroke:#000000;stroke-width:0.5;stroke-linecap:butt;stroke-linejoin:miter;stroke-miterlimit:4;stroke-opacity:1;stroke-dasharray:none"
         sodipodi:nodetypes="ccccc" />
      <path
         style="fill:#d3d7cf;fill-rule:evenodd;stroke:#000000;stroke-width:0.5;stroke-linecap:butt;stroke-linejoin:bevel;stroke-miterlimit:4;stroke-opacity:1;stroke-dasharray:none"
         d="m 312.31435,453.3381 -15.34296,8.85827 9.79649,5.656 15.34297,-8.85827 -9.7965,-5.656 z"
         id="path4513"
         sodipodi:nodetypes="ccccc" />
      <g
         id="g4515"
         transform="translate(199.453,98.1476)">
        <path
           sodipodi:type="arc"
           style="fill:#d3d7cf;fill-opacity:1;fill-rule:nonzero;stroke:none"
           id="path4517"
           sodipodi:cx="107.47261"
           sodipodi:cy="374.48795"
           sodipodi:rx="2.8865552"
           sodipodi:ry="2.587275"
           d="m 110.35917,374.48795 c 0,1.42891 -1.29236,2.58727 -2.88656,2.58727 -1.5942,0 -2.88655,-1.15836 -2.88655,-2.58727 0,-1.42892 1.29235,-2.58728 2.88655,-2.58728 1.5942,0 2.88656,1.15836 2.88656,2.58728 z"
           transform="matrix(0.653566,-0.235864,0,0.653566,40.1099,163.75)" />
        <path
           transform="matrix(0.439221,-0.158509,0,0.439221,63.1461,235.706)"
           d="m 110.35917,374.48795 c 0,1.42891 -1.29236,2.58727 -2.88656,2.58727 -1.5942,0 -2.88655,-1.15836 -2.88655,-2.58727 0,-1.42892 1.29235,-2.58728 2.88655,-2.58728 1.5942,0 2.88656,1.15836 2.88656,2.58728 z"
           sodipodi:ry="2.587275"
           sodipodi:rx="2.8865552"
           sodipodi:cy="374.48795"
           sodipodi:cx="107.47261"
           id="path4519"
           style="fill:#eeeeec;fill-opacity:1;fill-rule:nonzero;stroke:none"
           sodipodi:type="arc" />
        <path
           sodipodi:type="arc"
           style="fill:#ffffff;fill-opacity:1;fill-rule:nonzero;stroke:none"
           id="path4521"
           sodipodi:cx="107.47261"
           sodipodi:cy="374.48795"
           sodipodi:rx="2.8865552"
           sodipodi:ry="2.587275"
           d="m 110.35917,374.48795 c 0,1.42891 -1.29236,2.58727 -2.88656,2.58727 -1.5942,0 -2.88655,-1.15836 -2.88655,-2.58727 0,-1.42892 1.29235,-2.58728 2.88655,-2.58728 1.5942,0 2.88656,1.15836 2.88656,2.58728 z"
           transform="matrix(0.145978,-0.0526814,0,0.145978,94.1719,333.892)" />
      </g>
      <g
         transform="translate(209.617,92.1178)"
         id="g4523">
        <path
           transform="matrix(0.653566,-0.235864,0,0.653566,40.1099,163.75)"
           d="m 110.35917,374.48795 c 0,1.42891 -1.29236,2.58727 -2.88656,2.58727 -1.5942,0 -2.88655,-1.15836 -2.88655,-2.58727 0,-1.42892 1.29235,-2.58728 2.88655,-2.58728 1.5942,0 2.88656,1.15836 2.88656,2.58728 z"
           sodipodi:ry="2.587275"
           sodipodi:rx="2.8865552"
           sodipodi:cy="374.48795"
           sodipodi:cx="107.47261"
           id="path4525"
           style="fill:#d3d7cf;fill-opacity:1;fill-rule:nonzero;stroke:none"
           sodipodi:type="arc" />
        <path
           sodipodi:type="arc"
           style="fill:#eeeeec;fill-opacity:1;fill-rule:nonzero;stroke:none"
           id="path4527"
           sodipodi:cx="107.47261"
           sodipodi:cy="374.48795"
           sodipodi:rx="2.8865552"
           sodipodi:ry="2.587275"
           d="m 110.35917,374.48795 c 0,1.42891 -1.29236,2.58727 -2.88656,2.58727 -1.5942,0 -2.88655,-1.15836 -2.88655,-2.58727 0,-1.42892 1.29235,-2.58728 2.88655,-2.58728 1.5942,0 2.88656,1.15836 2.88656,2.58728 z"
           transform="matrix(0.439221,-0.158509,0,0.439221,63.1461,235.706)" />
        <path
           transform="matrix(0.145978,-0.0526814,0,0.145978,94.1719,333.892)"
           d="m 110.35917,374.48795 c 0,1.42891 -1.29236,2.58727 -2.88656,2.58727 -1.5942,0 -2.88655,-1.15836 -2.88655,-2.58727 0,-1.42892 1.29235,-2.58728 2.88655,-2.58728 1.5942,0 2.88656,1.15836 2.88656,2.58728 z"
           sodipodi:ry="2.587275"
           sodipodi:rx="2.8865552"
           sodipodi:cy="374.48795"
           sodipodi:cx="107.47261"
           id="path4529"
           style="fill:#ffffff;fill-opacity:1;fill-rule:nonzero;stroke:none"
           sodipodi:type="arc" />
      </g>
      <g
         transform="matrix(0.442764,0,0,0.442764,259.702,308.87)"
         id="g4531">
        <path
           transform="matrix(0.653566,-0.235864,0,0.653566,40.1099,163.75)"
           d="m 110.35917,374.48795 c 0,1.42891 -1.29236,2.58727 -2.88656,2.58727 -1.5942,0 -2.88655,-1.15836 -2.88655,-2.58727 0,-1.42892 1.29235,-2.58728 2.88655,-2.58728 1.5942,0 2.88656,1.15836 2.88656,2.58728 z"
           sodipodi:ry="2.587275"
           sodipodi:rx="2.8865552"
           sodipodi:cy="374.48795"
           sodipodi:cx="107.47261"
           id="path4533"
           style="fill:#d3d7cf;fill-opacity:1;fill-rule:nonzero;stroke:none"
           sodipodi:type="arc" />
        <path
           sodipodi:type="arc"
           style="fill:#f57900;fill-opacity:1;fill-rule:nonzero;stroke:none"
           id="path4535"
           sodipodi:cx="107.47261"
           sodipodi:cy="374.48795"
           sodipodi:rx="2.8865552"
           sodipodi:ry="2.587275"
           d="m 110.35917,374.48795 c 0,1.42891 -1.29236,2.58727 -2.88656,2.58727 -1.5942,0 -2.88655,-1.15836 -2.88655,-2.58727 0,-1.42892 1.29235,-2.58728 2.88655,-2.58728 1.5942,0 2.88656,1.15836 2.88656,2.58728 z"
           transform="matrix(0.439221,-0.158509,0,0.439221,63.1461,235.706)" />
        <path
           transform="matrix(0.145978,-0.0526814,0,0.145978,94.1719,333.892)"
           d="m 110.35917,374.48795 c 0,1.42891 -1.29236,2.58727 -2.88656,2.58727 -1.5942,0 -2.88655,-1.15836 -2.88655,-2.58727 0,-1.42892 1.29235,-2.58728 2.88655,-2.58728 1.5942,0 2.88656,1.15836 2.88656,2.58728 z"
           sodipodi:ry="2.587275"
           sodipodi:rx="2.8865552"
           sodipodi:cy="374.48795"
           sodipodi:cx="107.47261"
           id="path4537"
           style="fill:#ffffff;fill-opacity:1;fill-rule:nonzero;stroke:none"
           sodipodi:type="arc" />
      </g>
      <g
         id="g4539"
         transform="matrix(0.442764,0,0,0.442764,271.871,302.545)">
        <path
           sodipodi:type="arc"
           style="fill:#d3d7cf;fill-opacity:1;fill-rule:nonzero;stroke:none"
           id="path4541"
           sodipodi:cx="107.47261"
           sodipodi:cy="374.48795"
           sodipodi:rx="2.8865552"
           sodipodi:ry="2.587275"
           d="m 110.35917,374.48795 c 0,1.42891 -1.29236,2.58727 -2.88656,2.58727 -1.5942,0 -2.88655,-1.15836 -2.88655,-2.58727 0,-1.42892 1.29235,-2.58728 2.88655,-2.58728 1.5942,0 2.88656,1.15836 2.88656,2.58728 z"
           transform="matrix(0.653566,-0.235864,0,0.653566,40.1099,163.75)" />
        <path
           transform="matrix(0.439221,-0.158509,0,0.439221,63.1461,235.706)"
           d="m 110.35917,374.48795 c 0,1.42891 -1.29236,2.58727 -2.88656,2.58727 -1.5942,0 -2.88655,-1.15836 -2.88655,-2.58727 0,-1.42892 1.29235,-2.58728 2.88655,-2.58728 1.5942,0 2.88656,1.15836 2.88656,2.58728 z"
           sodipodi:ry="2.587275"
           sodipodi:rx="2.8865552"
           sodipodi:cy="374.48795"
           sodipodi:cx="107.47261"
           id="path4543"
           style="fill:#f57900;fill-opacity:1;fill-rule:nonzero;stroke:none"
           sodipodi:type="arc" />
        <path
           sodipodi:type="arc"
           style="fill:#ffffff;fill-opacity:1;fill-rule:nonzero;stroke:none"
           id="path4545"
           sodipodi:cx="107.47261"
           sodipodi:cy="374.48795"
           sodipodi:rx="2.8865552"
           sodipodi:ry="2.587275"
           d="m 110.35917,374.48795 c 0,1.42891 -1.29236,2.58727 -2.88656,2.58727 -1.5942,0 -2.88655,-1.15836 -2.88655,-2.58727 0,-1.42892 1.29235,-2.58728 2.88655,-2.58728 1.5942,0 2.88656,1.15836 2.88656,2.58728 z"
           transform="matrix(0.145978,-0.0526814,0,0.145978,94.1719,333.892)" />
      </g>
      <path
         style="fill:#ffffff;fill-rule:evenodd;stroke:none"
         d="m 311.29408,471.43526 0.89756,-0.45148 5.10478,-8.7111 -1.68551,0.97314 -4.31683,8.18944 z"
         id="path4547"
         sodipodi:nodetypes="ccccc" />
      <path
         sodipodi:nodetypes="ccccc"
         id="path4549"
         d="m 313.25599,470.36927 0.89755,-0.45148 5.10479,-8.7111 -1.68552,0.97314 -4.31682,8.18944 z"
         style="fill:#ffffff;fill-rule:evenodd;stroke:none" />
    </g>
  </g>
</svg>
