<?xml version="1.0" encoding="UTF-8" standalone="no"?>
<!-- Created with Inkscape (http://www.inkscape.org/) -->

<svg
   xmlns:dc="http://purl.org/dc/elements/1.1/"
   xmlns:cc="http://creativecommons.org/ns#"
   xmlns:rdf="http://www.w3.org/1999/02/22-rdf-syntax-ns#"
   xmlns:svg="http://www.w3.org/2000/svg"
   xmlns="http://www.w3.org/2000/svg"
   xmlns:xlink="http://www.w3.org/1999/xlink"
   xmlns:sodipodi="http://sodipodi.sourceforge.net/DTD/sodipodi-0.dtd"
   xmlns:inkscape="http://www.inkscape.org/namespaces/inkscape"
   width="692.08649"
   height="538.73041"
   id="svg2"
   sodipodi:version="0.32"
   inkscape:version="0.47pre1 r21720"
   sodipodi:docname="jonata_Car_Toy.svg"
   version="1.0"
   inkscape:output_extension="org.inkscape.output.svg.inkscape">
  <defs
     id="defs4">
    <inkscape:perspective
       sodipodi:type="inkscape:persp3d"
       inkscape:vp_x="0 : 354.33069 : 1"
       inkscape:vp_y="0 : 1000 : 0"
       inkscape:vp_z="708.66138 : 354.33069 : 1"
       inkscape:persp3d-origin="354.33069 : 236.22046 : 1"
       id="perspective61" />
    <linearGradient
       inkscape:collect="always"
       id="linearGradient11739">
      <stop
         style="stop-color: white; stop-opacity: 1;"
         offset="0"
         id="stop11741" />
      <stop
         style="stop-color: white; stop-opacity: 0;"
         offset="1"
         id="stop11743" />
    </linearGradient>
    <linearGradient
       id="linearGradient899">
      <stop
         id="stop900"
         offset="0.0000000"
         style="stop-color: rgb(255, 255, 255); stop-opacity: 0;" />
      <stop
         id="stop901"
         offset="1.0000000"
         style="stop-color: rgb(255, 255, 255); stop-opacity: 1;" />
    </linearGradient>
    <linearGradient
       inkscape:collect="always"
       xlink:href="#linearGradient899"
       id="linearGradient23350"
       gradientUnits="userSpaceOnUse"
       gradientTransform="matrix(0.972254,0,0,1.01064,29.2638,-4.87515)"
       x1="333.875"
       y1="452.34009"
       x2="332.59225"
       y2="435.47208" />
    <linearGradient
       inkscape:collect="always"
       xlink:href="#linearGradient11739"
       id="linearGradient23352"
       gradientUnits="userSpaceOnUse"
       gradientTransform="matrix(0.988694,0,0,1,23.6737,0)"
       x1="339.79639"
       y1="440.26715"
       x2="347.754"
       y2="453.58762" />
    <linearGradient
       inkscape:collect="always"
       xlink:href="#linearGradient899"
       id="linearGradient23354"
       gradientUnits="userSpaceOnUse"
       gradientTransform="matrix(0.972254,0,0,1.01064,9.26379,-4.87515)"
       x1="334.5715"
       y1="451.42639"
       x2="331.26257"
       y2="462.76144" />
    <linearGradient
       inkscape:collect="always"
       xlink:href="#linearGradient899"
       id="linearGradient23356"
       gradientUnits="userSpaceOnUse"
       x1="438.39795"
       y1="460.98199"
       x2="436.75046"
       y2="454.83344" />
    <linearGradient
       inkscape:collect="always"
       xlink:href="#linearGradient899"
       id="linearGradient23358"
       gradientUnits="userSpaceOnUse"
       x1="438.39795"
       y1="460.98199"
       x2="436.75046"
       y2="454.83344" />
    <linearGradient
       inkscape:collect="always"
       xlink:href="#linearGradient899"
       id="linearGradient23360"
       gradientUnits="userSpaceOnUse"
       x1="438.39795"
       y1="460.98199"
       x2="436.75046"
       y2="454.83344" />
    <linearGradient
       inkscape:collect="always"
       xlink:href="#linearGradient899"
       id="linearGradient2309"
       gradientUnits="userSpaceOnUse"
       gradientTransform="matrix(0.972254,0,0,1.01064,29.2638,-4.87515)"
       x1="333.875"
       y1="452.34009"
       x2="332.59225"
       y2="435.47208" />
    <linearGradient
       inkscape:collect="always"
       xlink:href="#linearGradient11739"
       id="linearGradient2311"
       gradientUnits="userSpaceOnUse"
       gradientTransform="matrix(0.988694,0,0,1,23.6737,0)"
       x1="339.79639"
       y1="440.26715"
       x2="347.754"
       y2="453.58762" />
    <linearGradient
       inkscape:collect="always"
       xlink:href="#linearGradient899"
       id="linearGradient2313"
       gradientUnits="userSpaceOnUse"
       gradientTransform="matrix(0.972254,0,0,1.01064,9.26379,-4.87515)"
       x1="334.5715"
       y1="451.42639"
       x2="331.26257"
       y2="462.76144" />
    <linearGradient
       inkscape:collect="always"
       xlink:href="#linearGradient899"
       id="linearGradient2315"
       gradientUnits="userSpaceOnUse"
       x1="438.39795"
       y1="460.98199"
       x2="436.75046"
       y2="454.83344" />
    <linearGradient
       inkscape:collect="always"
       xlink:href="#linearGradient899"
       id="linearGradient2317"
       gradientUnits="userSpaceOnUse"
       x1="438.39795"
       y1="460.98199"
       x2="436.75046"
       y2="454.83344" />
    <linearGradient
       inkscape:collect="always"
       xlink:href="#linearGradient899"
       id="linearGradient2319"
       gradientUnits="userSpaceOnUse"
       x1="438.39795"
       y1="460.98199"
       x2="436.75046"
       y2="454.83344" />
  </defs>
  <sodipodi:namedview
     id="base"
     pagecolor="#ffffff"
     bordercolor="#666666"
     borderopacity="1.0"
     inkscape:pageopacity="0.0"
     inkscape:pageshadow="2"
     inkscape:zoom="0.5"
     inkscape:cx="339.58502"
     inkscape:cy="193.58728"
     inkscape:document-units="px"
     inkscape:current-layer="layer1"
     inkscape:window-width="1024"
     inkscape:window-height="749"
     inkscape:window-x="220"
     inkscape:window-y="100"
     showguides="true"
     inkscape:guide-bbox="true"
     width="20cm"
     height="20cm"
     units="cm"
     showgrid="false"
     inkscape:window-maximized="0" />
  <metadata
     id="metadata7">
    <rdf:RDF>
      <cc:Work
         rdf:about="">
        <dc:format>image/svg+xml</dc:format>
        <dc:type
           rdf:resource="http://purl.org/dc/dcmitype/StillImage" />
      </cc:Work>
    </rdf:RDF>
  </metadata>
  <g
     inkscape:label="Layer 1"
     inkscape:groupmode="layer"
     id="layer1"
     transform="translate(-8.2839204,-84.946219)">
    <g
       transform="matrix(-0.134786,-0.603324,0.712838,0,115.932,861.165)"
       id="g4084" />
    <g
       transform="matrix(-0.134786,-0.603324,0.712838,0,-474.532,-459.553)"
       id="g8602" />
    <g
       id="g2274"
       transform="matrix(1.17685,0,0,1.17685,-48.9317,-33.1821)">
      <g
         transform="matrix(21.7592,0,0,21.7592,-7637.92,-9509.03)"
         id="g3690">
        <path
           sodipodi:type="inkscape:offset"
           inkscape:radius="0.46952248"
           inkscape:original="M 451.21875 443.4375 C 448.62619 443.54013 446.14044 443.79439 443.78125 444.125 C 443.56022 444.15597 443.40413 444.30793 443.40625 444.53125 L 443.53125 458.40625 C 443.53336 458.62957 443.71432 458.8125 443.9375 458.8125 L 458.90625 458.8125 C 459.12944 458.8125 459.28336 458.62956 459.28125 458.40625 L 459.8125 444 C 459.81039 443.77667 459.62886 443.60958 459.40625 443.59375 C 456.51037 443.38766 453.81131 443.33487 451.21875 443.4375 z "
           style="fill:#000000;fill-opacity:1;stroke:none"
           id="path8064"
           d="m 451.1875,442.96875 c -2.61133,0.10337 -5.09744,0.35519 -7.46875,0.6875 -0.39996,0.056 -0.78547,0.43091 -0.78125,0.875 l 0.125,13.875 c 0.004,0.47451 0.39526,0.875 0.875,0.875 l 14.96875,0 c 0.46903,0 0.83165,-0.41249 0.84375,-0.84375 2.8e-4,-0.01 9e-5,-0.0214 0,-0.0312 l 0.53125,-14.375 a 0.46956943,0.46956943 0 0 0 0,-0.0312 c -0.004,-0.47551 -0.40598,-0.84387 -0.84375,-0.875 -2.91082,-0.20715 -5.63821,-0.25964 -8.25,-0.15625 z"
           transform="matrix(1,0.0294844,0,0.978956,-80,-3.90666)" />
        <path
           style="fill:#228b22;fill-opacity:1;stroke:none"
           d="m 364.01495,444.31924 c 4.58518,-0.64256 9.55599,-0.92048 15.18428,-0.51994 0.21633,0.0154 0.39315,0.17471 0.3952,0.39173 l -0.5207,14.01705 c 0.002,0.21702 -0.17091,0.39173 -0.3878,0.39173 l -14.53132,0 c -0.21689,0 -0.39315,-0.17471 -0.3952,-0.39173 l -0.13227,-13.4971 c -0.002,-0.21702 0.17302,-0.36164 0.38781,-0.39174 z"
           id="rect8030"
           sodipodi:nodetypes="csccccccs" />
        <path
           sodipodi:type="inkscape:offset"
           inkscape:radius="0.57831132"
           inkscape:original="M 442.0625 446.0625 L 438.65625 446.34375 C 438.26918 446.37601 437.88361 446.70331 437.71875 447.0625 C 437.13337 448.33788 435.43751 451.28125 435.4375 451.28125 C 435.25397 451.62277 435.11987 452.01953 435.125 452.40625 L 435.1875 457.4375 C 435.1875 457.82335 435.48915 458.12501 435.875 458.125 L 442.0625 457.90625 C 442.44836 457.90625 442.74999 457.60459 442.75 457.21875 L 442.75 446.75 C 442.75 446.36414 442.44835 446.0625 442.0625 446.0625 z M 434.25 456.96875 C 434.03318 456.97451 433.875 457.15795 433.875 457.375 L 433.875 457.75 C 433.875 457.96705 434.03319 458.13075 434.25 458.125 L 435.53125 458.09375 C 435.19159 458.04685 434.90625 457.79044 434.90625 457.4375 L 434.90625 456.96875 L 434.25 456.96875 z "
           style="fill:#000000;fill-opacity:1;stroke:none"
           id="path7978"
           d="M 442.0625,445.46875 A 0.57836916,0.57836916 0 0 0 442,445.5 l -3.40625,0.28125 c -0.67803,0.0565 -1.15435,0.48242 -1.40625,1.03125 -0.54946,1.19711 -2.25,4.1875 -2.25,4.1875 -0.21633,0.40256 -0.41322,0.88063 -0.40625,1.40625 l 0.0625,3.96875 -0.34375,0 a 0.57836916,0.57836916 0 0 0 0,0.0312 c -0.5352,0.0142 -0.96875,0.47073 -0.96875,0.96875 l 0,0.375 c 0,0.49804 0.4537,0.95116 0.96875,0.9375 l 0,0.0312 1.28125,-0.0312 a 0.57836916,0.57836916 0 0 0 0.1875,-0.0312 c 0.0571,0.008 0.0973,0.0625 0.15625,0.0625 a 0.57836916,0.57836916 0 0 0 0.0312,-0.0312 l 6.15625,-0.21875 0,0.0312 c 0.0143,0 0.0171,-0.0308 0.0312,-0.0312 0.66835,-0.0234 1.24998,-0.57706 1.25,-1.25 l 0,-10.46875 c 0,-0.68726 -0.594,-1.28125 -1.28125,-1.28125 z"
           transform="matrix(1,0,0.0197121,1,-89.0423,0)" />
        <path
           style="fill:#8b0000;fill-opacity:1;stroke:none"
           d="m 362.0625,446.0625 -3.40625,0.28125 c -0.38707,0.0323 -0.77264,0.35956 -0.9375,0.71875 -0.58538,1.27538 -2.28124,4.21875 -2.28125,4.21875 -0.18353,0.34152 -0.31763,0.73828 -0.3125,1.125 l 0.0625,5.03125 c 0,0.38585 0.30165,0.68751 0.6875,0.6875 l 6.1875,-0.21875 c 0.38586,0 0.68749,-0.30166 0.6875,-0.6875 l 0,-10.46875 c 0,-0.38586 -0.30165,-0.6875 -0.6875,-0.6875 z m -7.8125,10.90625 c -0.21682,0.006 -0.375,0.1892 -0.375,0.40625 l 0,0.375 c 0,0.21705 0.15819,0.38075 0.375,0.375 l 1.28125,-0.0312 c -0.33966,-0.0469 -0.625,-0.30331 -0.625,-0.65625 l 0,-0.46875 -0.65625,0 z"
           id="rect7967" />
        <path
           id="path3666"
           d="m 361.83533,446.43188 -3.31174,0.27263 c -0.37633,0.0313 -0.7512,0.34855 -0.91149,0.69674 -0.56914,1.23633 -2.21794,4.08956 -2.21795,4.08956 -0.17844,0.33107 -0.30882,0.71568 -0.30383,1.09056 l 0.0608,4.87719 c 0,0.37403 0.29328,0.66646 0.66843,0.66645 l 6.01582,-0.21205 c 0.37515,0 0.66841,-0.29243 0.66842,-0.66645 l 0,-10.14819 c 0,-0.37405 -0.29328,-0.66644 -0.66842,-0.66644 z m -7.59573,10.57228 c -0.21081,0.006 -0.3646,0.18341 -0.3646,0.39381 l 0,0.36352 c 0,0.2104 0.1538,0.36909 0.3646,0.36352 l 1.2457,-0.0303 c -0.33024,-0.0455 -0.60766,-0.29402 -0.60766,-0.63615 l 0,-0.4544 -0.63804,0 z"
           style="fill:url(#linearGradient2309);fill-opacity:1;stroke:none" />
        <path
           style="fill:#ffffff;fill-opacity:1;stroke:none"
           d="m 355.15625,455.03125 0.0312,1.90625 1,0 c 0.21689,0 0.40624,-0.18922 0.40625,-0.40625 l 0,-1.09375 c 0,-0.21705 -0.18936,-0.40625 -0.40625,-0.40625 l -1.03125,0 z"
           id="rect7980" />
        <path
           style="fill:#000000;fill-opacity:1;stroke:none"
           d="m 357.78125,446.96875 c -0.0196,0.0335 -0.0467,0.0595 -0.0625,0.0937 -0.58538,1.27538 -2.28124,4.21875 -2.28125,4.21875 -0.11607,0.21599 -0.19619,0.44384 -0.25,0.6875 l 5.0625,0 c 0.24203,0 0.42585,-0.1649 0.4375,-0.40625 l 0.21875,-4.15625 c 0.0117,-0.24138 -0.16423,-0.4375 -0.40625,-0.4375 l -2.71875,0 z"
           id="rect7989" />
        <path
           style="fill:#ffffff;fill-opacity:1;stroke:none"
           d="m 357.625,447.21875 c -0.63556,1.33676 -2.18749,4.0625 -2.1875,4.0625 -0.076,0.14146 -0.13482,0.28173 -0.1875,0.4375 l 4.8125,0 c 0.21689,0 0.39582,-0.1587 0.40625,-0.375 l 0.1875,-3.75 c 0.0104,-0.21629 -0.15811,-0.37501 -0.375,-0.375 l -2.65625,0 z"
           id="rect7987" />
        <path
           style="fill:#ff8c00;fill-opacity:1;stroke:none"
           d="m 360.625,451.75 c -0.081,0.13339 -0.21042,0.21875 -0.375,0.21875 l -5.0625,0 c -0.0313,0.14162 -0.0644,0.29535 -0.0625,0.4375 l 0,0.0625 5.09375,-0.15625 c 0.21671,-0.005 0.39581,-0.15871 0.40625,-0.375 l 0,-0.1875 z"
           id="rect7994" />
        <path
           style="fill:#000000;fill-opacity:1;stroke:none"
           d="m 360.4253,453.41504 1.2083,0 c 0.16735,0 0.30208,0.13472 0.30208,0.30207 0,0.16735 -0.13473,0.30208 -0.30208,0.30208 l -1.2083,0 c -0.16735,0 -0.30208,-0.13473 -0.30208,-0.30208 0,-0.16735 0.13473,-0.30207 0.30208,-0.30207 z"
           id="rect7999" />
        <path
           style="fill:#000000;fill-opacity:1;stroke:none"
           d="m 354.96875,454.8125 0,0.21875 1.21875,0 c 0.21689,0 0.40625,0.1892 0.40625,0.40625 l 0,1.09375 c -10e-6,0.21703 -0.18936,0.40625 -0.40625,0.40625 l -1.21875,0 0,0.21875 1.53125,0 c 0.21689,0 0.40624,-0.18919 0.40625,-0.40625 l 0,-1.53125 c 0,-0.21705 -0.18936,-0.40625 -0.40625,-0.40625 l -1.53125,0 z"
           id="rect7982" />
        <path
           sodipodi:nodetypes="csccccccs"
           id="path3661"
           d="m 364.34522,445.06587 c 4.37267,-0.60897 9.1131,-0.87236 14.48055,-0.49276 0.2063,0.0146 0.37492,0.16558 0.37689,0.37125 l -0.49659,13.2842 c 0.002,0.20567 -0.16298,0.37125 -0.36981,0.37125 l -13.85784,0 c -0.20685,0 -0.37493,-0.16558 -0.37689,-0.37125 l -0.12614,-12.79143 c -0.002,-0.20568 0.16499,-0.34274 0.36983,-0.37126 z"
           style="fill:url(#linearGradient2311);fill-opacity:1;stroke:none" />
        <path
           style="fill:#000000;fill-opacity:1;stroke:none"
           d="m 369.6875,441.9375 c -0.21689,0 -0.40028,0.15838 -0.40625,0.375 l -0.375,14.625 c 0.95741,0.43455 1.625,1.38069 1.625,2.5 0,0.3268 -0.0832,0.64642 -0.1875,0.9375 l 0.0937,0 c 0.21689,0 0.40029,-0.15838 0.40625,-0.375 l 0.46875,-17.6875 c 0.006,-0.21661 -0.1581,-0.37499 -0.375,-0.375 l -1.25,0 z"
           id="rect8045" />
        <path
           style="fill:#8b0000;fill-opacity:1;stroke:none"
           d="m 370.03125,442.375 c -0.21689,0 -0.40102,0.15815 -0.40625,0.375 l -0.3125,13.90625 c 0.40864,0.2257 0.75579,0.53252 1.03125,0.90625 l 0.375,-14.8125 c 0.005,-0.21684 -0.18935,-0.375 -0.40625,-0.375 l -0.28125,0 z"
           id="rect8033" />
        <path
           style="fill:#000000;fill-opacity:1;stroke:none"
           d="m 374.28125,441.625 c -0.17202,-10e-6 -0.32249,0.0479 -0.4375,0.125 -0.115,0.0771 -0.18327,0.19441 -0.1875,0.3125 L 373.125,456.875 c 0.31288,-0.12297 0.64365,-0.1875 1,-0.1875 1.10513,-10e-6 2.05775,0.65581 2.5,1.59375 l -1.1875,-16.25 c -0.009,-0.12672 -0.11589,-0.20375 -0.25,-0.28125 -0.10949,-0.0771 -0.23424,-0.125 -0.40625,-0.125 l -0.5,0 z m 2.5,18.625 c -0.11304,0.37229 -0.31481,0.71239 -0.5625,1 0.34401,0 0.61092,-0.20285 0.59375,-0.4375 l -0.0312,-0.5625 z"
           id="path8043" />
        <path
           style="fill:#8b0000;fill-opacity:1;stroke:none"
           d="m 374.4375,442.1875 c -0.10846,0 -0.2081,0.0543 -0.28125,0.125 -0.0731,0.0707 -0.15259,0.17284 -0.15625,0.28125 l -0.4375,13.71875 c 0.1817,-0.0319 0.3717,-0.0937 0.5625,-0.0937 0.57684,0 1.12552,0.17117 1.59375,0.4375 L 375.125,442.5625 c -0.005,-0.11633 -0.0411,-0.17886 -0.125,-0.25 -0.0684,-0.0707 -0.14155,-0.125 -0.25,-0.125 l -0.3125,0 z"
           id="rect8035" />
        <path
           sodipodi:type="inkscape:offset"
           inkscape:radius="-0.14554098"
           inkscape:original="M 341.84375 446.4375 L 338.53125 446.71875 C 338.15492 446.75004 337.78529 447.05806 337.625 447.40625 C 337.05587 448.64258 335.40626 451.5 335.40625 451.5 C 335.22779 451.83107 335.08876 452.21887 335.09375 452.59375 L 335.15625 457.46875 C 335.15624 457.84278 335.43735 458.12501 335.8125 458.125 L 341.84375 457.90625 C 342.2189 457.90625 342.49999 457.62402 342.5 457.25 L 342.5 447.09375 C 342.5 446.71969 342.21889 446.4375 341.84375 446.4375 z M 334.25 457 C 334.0392 457.0056 333.875 457.19585 333.875 457.40625 L 333.875 457.75 C 333.875 457.96038 334.0392 458.13057 334.25 458.125 L 335.5 458.09375 C 335.16977 458.0483 334.875 457.81088 334.875 457.46875 L 334.875 457 L 334.25 457 z "
           style="fill:url(#linearGradient2313);fill-opacity:1;stroke:none"
           id="path3686"
           d="m 341.84375,446.59375 -3.3125,0.28125 c -0.30557,0.0254 -0.64287,0.29315 -0.78125,0.59375 -0.57818,1.25599 -2.21875,4.09375 -2.21875,4.09375 -0.17092,0.31708 -0.28574,0.69368 -0.28125,1.03125 l 0.0625,4.875 c -10e-6,0.30111 0.19785,0.50001 0.5,0.5 l 6.03125,-0.21875 c 0.30216,0 0.49999,-0.1989 0.5,-0.5 l 0,-10.15625 c 0,-0.30114 -0.19785,-0.5 -0.5,-0.5 z m -7.59375,10.5625 c -0.12533,0.003 -0.21875,0.11532 -0.21875,0.25 l 0,0.34375 c 0,0.13465 0.0882,0.2222 0.21875,0.21875 l 0.6875,-0.0312 c -0.11412,-0.12684 -0.21875,-0.2793 -0.21875,-0.46875 l 0,-0.3125 -0.46875,0 z"
           transform="matrix(1,0,0,1.00541,20,-2.41697)" />
        <path
           transform="matrix(1.33088,0,0,1.33088,-225.859,-152.777)"
           d="m 442.97078,460.01501 c 0,1.33431 -1.08167,2.41597 -2.41597,2.41597 -1.3343,0 -2.41597,-1.08166 -2.41597,-2.41597 0,-1.3343 1.08167,-2.41596 2.41597,-2.41596 1.3343,0 2.41597,1.08166 2.41597,2.41596 z"
           sodipodi:ry="2.4159667"
           sodipodi:rx="2.4159667"
           sodipodi:cy="460.01501"
           sodipodi:cx="440.55481"
           id="path7949"
           style="color:#000000;fill:#000000;fill-opacity:1;fill-rule:nonzero;stroke:none;stroke-width:0.84580302;marker:none;visibility:visible;display:inline;overflow:visible"
           sodipodi:type="arc" />
        <path
           sodipodi:type="arc"
           style="fill:#ff8c00;fill-opacity:1;stroke:none"
           id="path7065"
           sodipodi:cx="440.55481"
           sodipodi:cy="460.01501"
           sodipodi:rx="2.4159667"
           sodipodi:ry="2.4159667"
           d="m 442.97078,460.01501 c 0,1.33431 -1.08167,2.41597 -2.41597,2.41597 -1.3343,0 -2.41597,-1.08166 -2.41597,-2.41597 0,-1.3343 1.08167,-2.41596 2.41597,-2.41596 1.3343,0 2.41597,1.08166 2.41597,2.41596 z"
           transform="matrix(1.14414,0,0,1.14414,-143.59,-66.8744)" />
        <path
           style="fill:#000000;fill-opacity:1;stroke:none"
           d="m 360.5625,457.96875 c -0.76893,0 -1.40624,0.63732 -1.40625,1.40625 0,0.76893 0.63732,1.37501 1.40625,1.375 0.76893,0 1.37501,-0.60607 1.375,-1.375 0,-0.76893 -0.60608,-1.40626 -1.375,-1.40625 z m -0.0937,0.28125 c 0.66081,10e-6 1.1875,0.5267 1.1875,1.1875 -10e-6,0.66079 -0.5267,1.21875 -1.1875,1.21875 -0.66079,10e-6 -1.1875,-0.55795 -1.1875,-1.21875 -10e-6,-0.6608 0.5267,-1.1875 1.1875,-1.1875 z"
           id="path7944" />
        <path
           transform="matrix(0.495495,0,0,0.495495,142.175,231.514)"
           d="m 442.97078,460.01501 c 0,1.33431 -1.08167,2.41597 -2.41597,2.41597 -1.3343,0 -2.41597,-1.08166 -2.41597,-2.41597 0,-1.3343 1.08167,-2.41596 2.41597,-2.41596 1.3343,0 2.41597,1.08166 2.41597,2.41596 z"
           sodipodi:ry="2.4159667"
           sodipodi:rx="2.4159667"
           sodipodi:cy="460.01501"
           sodipodi:cx="440.55481"
           id="path7942"
           style="fill:#1e90ff;fill-opacity:1;stroke:none"
           sodipodi:type="arc" />
        <path
           sodipodi:type="arc"
           style="fill:#000000;fill-opacity:1;stroke:none"
           id="path7951"
           sodipodi:cx="440.55481"
           sodipodi:cy="460.01501"
           sodipodi:rx="2.4159667"
           sodipodi:ry="2.4159667"
           d="m 442.97078,460.01501 c 0,1.33431 -1.08167,2.41597 -2.41597,2.41597 -1.3343,0 -2.41597,-1.08166 -2.41597,-2.41597 0,-1.3343 1.08167,-2.41596 2.41597,-2.41596 1.3343,0 2.41597,1.08166 2.41597,2.41596 z"
           transform="matrix(1.33088,0,0,1.33088,-218.553,-152.777)" />
        <path
           transform="matrix(1.14414,0,0,1.14414,-136.285,-66.8744)"
           d="m 442.97078,460.01501 c 0,1.33431 -1.08167,2.41597 -2.41597,2.41597 -1.3343,0 -2.41597,-1.08166 -2.41597,-2.41597 0,-1.3343 1.08167,-2.41596 2.41597,-2.41596 1.3343,0 2.41597,1.08166 2.41597,2.41596 z"
           sodipodi:ry="2.4159667"
           sodipodi:rx="2.4159667"
           sodipodi:cy="460.01501"
           sodipodi:cx="440.55481"
           id="path7953"
           style="fill:#ff8c00;fill-opacity:1;stroke:none"
           sodipodi:type="arc" />
        <path
           id="path7955"
           d="m 367.86843,457.96875 c -0.76893,0 -1.40624,0.63732 -1.40625,1.40625 0,0.76893 0.63732,1.37501 1.40625,1.375 0.76893,0 1.37501,-0.60607 1.375,-1.375 0,-0.76893 -0.60608,-1.40626 -1.375,-1.40625 z m -0.0937,0.28125 c 0.66081,10e-6 1.1875,0.5267 1.1875,1.1875 -10e-6,0.66079 -0.5267,1.21875 -1.1875,1.21875 -0.66079,10e-6 -1.1875,-0.55795 -1.1875,-1.21875 -10e-6,-0.6608 0.5267,-1.1875 1.1875,-1.1875 z"
           style="fill:#000000;fill-opacity:1;stroke:none" />
        <path
           sodipodi:type="arc"
           style="fill:#1e90ff;fill-opacity:1;stroke:none"
           id="path7957"
           sodipodi:cx="440.55481"
           sodipodi:cy="460.01501"
           sodipodi:rx="2.4159667"
           sodipodi:ry="2.4159667"
           d="m 442.97078,460.01501 c 0,1.33431 -1.08167,2.41597 -2.41597,2.41597 -1.3343,0 -2.41597,-1.08166 -2.41597,-2.41597 0,-1.3343 1.08167,-2.41596 2.41597,-2.41596 1.3343,0 2.41597,1.08166 2.41597,2.41596 z"
           transform="matrix(0.495495,0,0,0.495495,149.481,231.514)" />
        <path
           transform="matrix(1.33088,0,0,1.33088,-212.197,-152.777)"
           d="m 442.97078,460.01501 c 0,1.33431 -1.08167,2.41597 -2.41597,2.41597 -1.3343,0 -2.41597,-1.08166 -2.41597,-2.41597 0,-1.3343 1.08167,-2.41596 2.41597,-2.41596 1.3343,0 2.41597,1.08166 2.41597,2.41596 z"
           sodipodi:ry="2.4159667"
           sodipodi:rx="2.4159667"
           sodipodi:cy="460.01501"
           sodipodi:cx="440.55481"
           id="path7959"
           style="color:#000000;fill:#000000;fill-opacity:1;fill-rule:nonzero;stroke:none;stroke-width:0.84580302;marker:none;visibility:visible;display:inline;overflow:visible"
           sodipodi:type="arc" />
        <path
           sodipodi:type="arc"
           style="fill:#ff8c00;fill-opacity:1;stroke:none"
           id="path7961"
           sodipodi:cx="440.55481"
           sodipodi:cy="460.01501"
           sodipodi:rx="2.4159667"
           sodipodi:ry="2.4159667"
           d="m 442.97078,460.01501 c 0,1.33431 -1.08167,2.41597 -2.41597,2.41597 -1.3343,0 -2.41597,-1.08166 -2.41597,-2.41597 0,-1.3343 1.08167,-2.41596 2.41597,-2.41596 1.3343,0 2.41597,1.08166 2.41597,2.41596 z"
           transform="matrix(1.14414,0,0,1.14414,-129.929,-66.8744)" />
        <path
           style="fill:#000000;fill-opacity:1;stroke:none"
           d="m 374.22395,457.96875 c -0.76893,0 -1.40624,0.63732 -1.40625,1.40625 0,0.76893 0.63732,1.37501 1.40625,1.375 0.76893,0 1.37501,-0.60607 1.375,-1.375 0,-0.76893 -0.60608,-1.40626 -1.375,-1.40625 z m -0.0937,0.28125 c 0.66081,10e-6 1.1875,0.5267 1.1875,1.1875 -10e-6,0.66079 -0.5267,1.21875 -1.1875,1.21875 -0.66079,10e-6 -1.1875,-0.55795 -1.1875,-1.21875 -10e-6,-0.6608 0.5267,-1.1875 1.1875,-1.1875 z"
           id="path7963" />
        <path
           transform="matrix(0.495495,0,0,0.495495,155.836,231.514)"
           d="m 442.97078,460.01501 c 0,1.33431 -1.08167,2.41597 -2.41597,2.41597 -1.3343,0 -2.41597,-1.08166 -2.41597,-2.41597 0,-1.3343 1.08167,-2.41596 2.41597,-2.41596 1.3343,0 2.41597,1.08166 2.41597,2.41596 z"
           sodipodi:ry="2.4159667"
           sodipodi:rx="2.4159667"
           sodipodi:cy="460.01501"
           sodipodi:cx="440.55481"
           id="path7965"
           style="fill:#1e90ff;fill-opacity:1;stroke:none"
           sodipodi:type="arc" />
        <path
           transform="matrix(1.00464,0,0,1.00464,-82.1952,-2.8514)"
           d="m 442.97078,460.01501 c 0,1.33431 -1.08167,2.41597 -2.41597,2.41597 -1.3343,0 -2.41597,-1.08166 -2.41597,-2.41597 0,-1.3343 1.08167,-2.41596 2.41597,-2.41596 1.3343,0 2.41597,1.08166 2.41597,2.41596 z"
           sodipodi:ry="2.4159667"
           sodipodi:rx="2.4159667"
           sodipodi:cy="460.01501"
           sodipodi:cx="440.55481"
           id="path3670"
           style="fill:url(#linearGradient2315);fill-opacity:1;stroke:none"
           sodipodi:type="arc" />
        <path
           sodipodi:type="arc"
           style="fill:url(#linearGradient2317);fill-opacity:1;stroke:none"
           id="path3674"
           sodipodi:cx="440.55481"
           sodipodi:cy="460.01501"
           sodipodi:rx="2.4159667"
           sodipodi:ry="2.4159667"
           d="m 442.97078,460.01501 c 0,1.33431 -1.08167,2.41597 -2.41597,2.41597 -1.3343,0 -2.41597,-1.08166 -2.41597,-2.41597 0,-1.3343 1.08167,-2.41596 2.41597,-2.41596 1.3343,0 2.41597,1.08166 2.41597,2.41596 z"
           transform="matrix(1.00464,0,0,1.00464,-74.882,-2.8514)" />
        <path
           transform="matrix(1.00464,0,0,1.00464,-68.57,-2.8514)"
           d="m 442.97078,460.01501 c 0,1.33431 -1.08167,2.41597 -2.41597,2.41597 -1.3343,0 -2.41597,-1.08166 -2.41597,-2.41597 0,-1.3343 1.08167,-2.41596 2.41597,-2.41596 1.3343,0 2.41597,1.08166 2.41597,2.41596 z"
           sodipodi:ry="2.4159667"
           sodipodi:rx="2.4159667"
           sodipodi:cy="460.01501"
           sodipodi:cx="440.55481"
           id="path3678"
           style="fill:url(#linearGradient2319);fill-opacity:1;stroke:none"
           sodipodi:type="arc" />
      </g>
    </g>
  </g>
</svg>
