<?xml version="1.0" encoding="UTF-8" standalone="no"?>
<!-- Created with Inkscape (http://www.inkscape.org/) -->

<svg
   xmlns:a="http://ns.adobe.com/AdobeSVGViewerExtensions/3.0/"
   xmlns:dc="http://purl.org/dc/elements/1.1/"
   xmlns:cc="http://creativecommons.org/ns#"
   xmlns:rdf="http://www.w3.org/1999/02/22-rdf-syntax-ns#"
   xmlns:svg="http://www.w3.org/2000/svg"
   xmlns="http://www.w3.org/2000/svg"
   xmlns:sodipodi="http://sodipodi.sourceforge.net/DTD/sodipodi-0.dtd"
   xmlns:inkscape="http://www.inkscape.org/namespaces/inkscape"
   version="1.0"
   width="466.11499"
   height="466.117"
   viewBox="0 0 466.115 466.117"
   id="svg2"
   xml:space="preserve"
   inkscape:version="0.47pre1 r21720"
   sodipodi:docname="azieser_Tire_with_rim..svg"
   inkscape:output_extension="org.inkscape.output.svg.inkscape"><metadata
   id="metadata167"><rdf:RDF><cc:Work
       rdf:about=""><dc:format>image/svg+xml</dc:format><dc:type
         rdf:resource="http://purl.org/dc/dcmitype/StillImage" /></cc:Work></rdf:RDF></metadata><sodipodi:namedview
   pagecolor="#ffffff"
   bordercolor="#666666"
   borderopacity="1"
   objecttolerance="10"
   gridtolerance="10"
   guidetolerance="10"
   inkscape:pageopacity="0"
   inkscape:pageshadow="2"
   inkscape:window-width="640"
   inkscape:window-height="493"
   id="namedview165"
   showgrid="false"
   inkscape:zoom="0.50631064"
   inkscape:cx="233.0575"
   inkscape:cy="233.0585"
   inkscape:window-x="0"
   inkscape:window-y="25"
   inkscape:window-maximized="0"
   inkscape:current-layer="svg2" /><defs
   id="defs326" />
	
		<g
   id="g2975"><path
     id="path13"
     style="stroke: rgb(0, 0, 0);"
     d="M 233.059,0.5 C 104.62,0.5 0.5,104.621 0.5,233.058 C 0.5,361.497 104.62,465.617 233.059,465.617 C 361.497,465.617 465.616,361.498 465.616,233.058 C 465.615,104.621 361.496,0.5 233.059,0.5 z M 233.059,364.455 C 160.492,364.455 101.663,305.627 101.663,233.059 C 101.663,160.493 160.491,101.664 233.059,101.664 C 305.625,101.664 364.454,160.492 364.454,233.059 C 364.453,305.626 305.625,364.455 233.059,364.455 z " /><path
     id="path15"
     style="fill: rgb(255, 255, 255); stroke: rgb(0, 0, 0);"
     d="M 233.058,25.5 C 118.426,25.5 25.499,118.427 25.499,233.058 C 25.499,347.689 118.426,440.617 233.058,440.617 C 347.69,440.617 440.617,347.689 440.617,233.058 C 440.617,118.427 347.689,25.5 233.058,25.5 z M 233.058,420.849 C 129.344,420.849 45.267,336.771 45.267,233.058 C 45.267,129.345 129.344,45.268 233.058,45.268 C 336.772,45.268 420.849,129.346 420.849,233.059 C 420.849,336.772 336.771,420.849 233.058,420.849 z " /><g
     id="g17">
						
							<radialGradient
   gradientUnits="userSpaceOnUse"
   id="XMLID_9_"
   fy="233.05811"
   fx="233.0576"
   r="134.8838"
   cy="233.05811"
   cx="233.0576">
							<stop
   id="stop20"
   offset="0.0056"
   style="stop-color: rgb(255, 255, 255); stop-opacity: 1;" />
							<stop
   id="stop22"
   offset="0.419"
   style="stop-color: rgb(253, 253, 253); stop-opacity: 1;" />
							<stop
   id="stop24"
   offset="0.56779999"
   style="stop-color: rgb(246, 246, 246); stop-opacity: 1;" />
							<stop
   id="stop26"
   offset="0.67400002"
   style="stop-color: rgb(235, 235, 235); stop-opacity: 1;" />
							<stop
   id="stop28"
   offset="0.75980002"
   style="stop-color: rgb(218, 218, 218); stop-opacity: 1;" />
							<stop
   id="stop30"
   offset="0.83340001"
   style="stop-color: rgb(196, 196, 196); stop-opacity: 1;" />
							<stop
   id="stop32"
   offset="0.89850003"
   style="stop-color: rgb(168, 168, 168); stop-opacity: 1;" />
							<stop
   id="stop34"
   offset="0.9558"
   style="stop-color: rgb(137, 137, 137); stop-opacity: 1;" />
							<stop
   id="stop36"
   offset="1"
   style="stop-color: rgb(107, 107, 107); stop-opacity: 1;" />
							<a:midPointStop
   offset="0.0056"
   style="stop-color:#FFFFFF" />
							<a:midPointStop
   offset="0.87"
   style="stop-color:#FFFFFF" />
							<a:midPointStop
   offset="1"
   style="stop-color:#6B6B6B" />
						</radialGradient>
						<circle
   id="circle38"
   style="fill: url(#XMLID_9_) rgb(0, 0, 0); stroke: rgb(0, 0, 0);"
   r="134.884"
   cy="233.058"
   cx="233.05701" /> 
						<circle
   id="circle40"
   style="fill: rgb(255, 255, 255); stroke: rgb(0, 0, 0);"
   r="128.17"
   cy="233.058"
   cx="233.05701" /> 
						
							<radialGradient
   gradientUnits="userSpaceOnUse"
   id="XMLID_10_"
   fy="233.05811"
   fx="233.0576"
   r="122.0674"
   cy="233.05811"
   cx="233.0576">
							<stop
   id="stop43"
   offset="0"
   style="stop-color: rgb(255, 255, 255); stop-opacity: 1;" />
							<stop
   id="stop45"
   offset="0.35769999"
   style="stop-color: rgb(253, 253, 253); stop-opacity: 1;" />
							<stop
   id="stop47"
   offset="0.493"
   style="stop-color: rgb(246, 246, 246); stop-opacity: 1;" />
							<stop
   id="stop49"
   offset="0.5905"
   style="stop-color: rgb(234, 234, 234); stop-opacity: 1;" />
							<stop
   id="stop51"
   offset="0.67000002"
   style="stop-color: rgb(217, 217, 217); stop-opacity: 1;" />
							<stop
   id="stop53"
   offset="0.73839998"
   style="stop-color: rgb(195, 195, 195); stop-opacity: 1;" />
							<stop
   id="stop55"
   offset="0.79930001"
   style="stop-color: rgb(167, 167, 167); stop-opacity: 1;" />
							<stop
   id="stop57"
   offset="0.8545"
   style="stop-color: rgb(134, 134, 134); stop-opacity: 1;" />
							<stop
   id="stop59"
   offset="0.90539998"
   style="stop-color: rgb(96, 96, 96); stop-opacity: 1;" />
							<stop
   id="stop61"
   offset="0.9526"
   style="stop-color: rgb(53, 53, 53); stop-opacity: 1;" />
							<stop
   id="stop63"
   offset="0.99489999"
   style="stop-color: rgb(11, 11, 11); stop-opacity: 1;" />
							<stop
   id="stop65"
   offset="1"
   style="stop-color: rgb(0, 0, 0); stop-opacity: 1;" />
							<a:midPointStop
   offset="0"
   style="stop-color:#FFFFFF" />
							<a:midPointStop
   offset="0.8644"
   style="stop-color:#FFFFFF" />
							<a:midPointStop
   offset="1"
   style="stop-color:#000000" />
						</radialGradient>
						<circle
   id="circle67"
   style="fill: url(#XMLID_10_) rgb(0, 0, 0); stroke: rgb(0, 0, 0);"
   r="122.068"
   cy="233.058"
   cx="233.05701" /> 
					</g><g
     id="g69">
						
							<radialGradient
   gradientUnits="userSpaceOnUse"
   id="XMLID_11_"
   fy="233.05811"
   fx="233.05659"
   r="43.0229"
   cy="233.05811"
   cx="233.05659">
							<stop
   id="stop72"
   offset="0"
   style="stop-color: rgb(255, 255, 255); stop-opacity: 1;" />
							<stop
   id="stop74"
   offset="0.37259999"
   style="stop-color: rgb(253, 253, 253); stop-opacity: 1;" />
							<stop
   id="stop76"
   offset="0.50690001"
   style="stop-color: rgb(246, 246, 246); stop-opacity: 1;" />
							<stop
   id="stop78"
   offset="0.60259998"
   style="stop-color: rgb(235, 235, 235); stop-opacity: 1;" />
							<stop
   id="stop80"
   offset="0.68000001"
   style="stop-color: rgb(218, 218, 218); stop-opacity: 1;" />
							<stop
   id="stop82"
   offset="0.74629998"
   style="stop-color: rgb(196, 196, 196); stop-opacity: 1;" />
							<stop
   id="stop84"
   offset="0.80500001"
   style="stop-color: rgb(168, 168, 168); stop-opacity: 1;" />
							<stop
   id="stop86"
   offset="0.8581"
   style="stop-color: rgb(136, 136, 136); stop-opacity: 1;" />
							<stop
   id="stop88"
   offset="0.90689999"
   style="stop-color: rgb(98, 98, 98); stop-opacity: 1;" />
							<stop
   id="stop90"
   offset="0.95230001"
   style="stop-color: rgb(55, 55, 55); stop-opacity: 1;" />
							<stop
   id="stop92"
   offset="0.99260002"
   style="stop-color: rgb(14, 14, 14); stop-opacity: 1;" />
							<stop
   id="stop94"
   offset="1"
   style="stop-color: rgb(0, 0, 0); stop-opacity: 1;" />
							<a:midPointStop
   offset="0"
   style="stop-color:#FFFFFF" />
							<a:midPointStop
   offset="0.87"
   style="stop-color:#FFFFFF" />
							<a:midPointStop
   offset="1"
   style="stop-color:#000000" />
						</radialGradient>
						<circle
   id="circle96"
   style="fill: url(#XMLID_11_) rgb(0, 0, 0); stroke: rgb(0, 0, 0);"
   r="43.022999"
   cy="233.05901"
   cx="233.05701" /> 
						<circle
   id="circle98"
   style="stroke: rgb(0, 0, 0);"
   r="32.506001"
   cy="233.05901"
   cx="233.05701" /> 
						<circle
   id="circle100"
   style="fill: rgb(255, 255, 255); stroke: rgb(0, 0, 0);"
   r="29"
   cy="233.05901"
   cx="233.05701" /> 
						<circle
   id="circle102"
   style="stroke: rgb(0, 0, 0);"
   r="19.364"
   cy="233.05901"
   cx="233.05701" /> 
					</g><g
     id="g104">
						<g
   id="g106">
							<g
   id="g108">
								
									<radialGradient
   gradientUnits="userSpaceOnUse"
   id="XMLID_12_"
   fy="152.86079"
   fx="229.15919"
   r="31.1709"
   cy="152.86079"
   cx="229.15919">
									<stop
   id="stop111"
   offset="0"
   style="stop-color: rgb(255, 255, 255); stop-opacity: 1;" />
									<stop
   id="stop113"
   offset="0.15800001"
   style="stop-color: rgb(252, 252, 252); stop-opacity: 1;" />
									<stop
   id="stop115"
   offset="0.2879"
   style="stop-color: rgb(242, 242, 242); stop-opacity: 1;" />
									<stop
   id="stop117"
   offset="0.40790001"
   style="stop-color: rgb(224, 224, 224); stop-opacity: 1;" />
									<stop
   id="stop119"
   offset="0.5219"
   style="stop-color: rgb(200, 200, 200); stop-opacity: 1;" />
									<stop
   id="stop121"
   offset="0.63169998"
   style="stop-color: rgb(169, 169, 169); stop-opacity: 1;" />
									<stop
   id="stop123"
   offset="0.73830003"
   style="stop-color: rgb(130, 130, 130); stop-opacity: 1;" />
									<stop
   id="stop125"
   offset="0.84240001"
   style="stop-color: rgb(85, 85, 85); stop-opacity: 1;" />
									<stop
   id="stop127"
   offset="0.94199997"
   style="stop-color: rgb(33, 33, 33); stop-opacity: 1;" />
									<stop
   id="stop129"
   offset="1"
   style="stop-color: rgb(0, 0, 0); stop-opacity: 1;" />
									<a:midPointStop
   offset="0"
   style="stop-color:#FFFFFF" />
									<a:midPointStop
   offset="0.7458"
   style="stop-color:#FFFFFF" />
									<a:midPointStop
   offset="1"
   style="stop-color:#000000" />
								</radialGradient>
								<circle
   id="circle131"
   style="fill: url(#XMLID_12_) rgb(0, 0, 0); stroke: rgb(0, 0, 0);"
   r="31.171"
   cy="152.86099"
   cx="229.159" /> 
								<circle
   id="circle133"
   style="stroke: rgb(0, 0, 0);"
   r="18.761999"
   cy="161.636"
   cx="229.161" /> 
							</g>
							<g
   id="g135">
								
									<radialGradient
   gradientUnits="userSpaceOnUse"
   id="XMLID_13_"
   fy="210.80029"
   fx="154.9126"
   r="31.179899"
   cy="210.80029"
   cx="154.9126">
									<stop
   id="stop138"
   offset="0"
   style="stop-color: rgb(255, 255, 255); stop-opacity: 1;" />
									<stop
   id="stop140"
   offset="0.15800001"
   style="stop-color: rgb(252, 252, 252); stop-opacity: 1;" />
									<stop
   id="stop142"
   offset="0.2879"
   style="stop-color: rgb(242, 242, 242); stop-opacity: 1;" />
									<stop
   id="stop144"
   offset="0.40790001"
   style="stop-color: rgb(224, 224, 224); stop-opacity: 1;" />
									<stop
   id="stop146"
   offset="0.5219"
   style="stop-color: rgb(200, 200, 200); stop-opacity: 1;" />
									<stop
   id="stop148"
   offset="0.63169998"
   style="stop-color: rgb(169, 169, 169); stop-opacity: 1;" />
									<stop
   id="stop150"
   offset="0.73830003"
   style="stop-color: rgb(130, 130, 130); stop-opacity: 1;" />
									<stop
   id="stop152"
   offset="0.84240001"
   style="stop-color: rgb(85, 85, 85); stop-opacity: 1;" />
									<stop
   id="stop154"
   offset="0.94199997"
   style="stop-color: rgb(33, 33, 33); stop-opacity: 1;" />
									<stop
   id="stop156"
   offset="1"
   style="stop-color: rgb(0, 0, 0); stop-opacity: 1;" />
									<a:midPointStop
   offset="0"
   style="stop-color:#FFFFFF" />
									<a:midPointStop
   offset="0.7458"
   style="stop-color:#FFFFFF" />
									<a:midPointStop
   offset="1"
   style="stop-color:#000000" />
								</radialGradient>
								<circle
   id="circle158"
   style="fill: url(#XMLID_13_) rgb(0, 0, 0); stroke: rgb(0, 0, 0);"
   r="31.171"
   cy="210.80099"
   cx="154.912" /> 
								<circle
   id="circle160"
   style="stroke: rgb(0, 0, 0);"
   r="18.763"
   cy="213.51199"
   cx="163.258" /> 
							</g>
							<g
   id="g162">
								
									<radialGradient
   gradientUnits="userSpaceOnUse"
   id="XMLID_14_"
   fy="299.31879"
   fx="187.0723"
   r="31.1738"
   cy="299.31879"
   cx="187.0723">
									<stop
   id="stop165"
   offset="0"
   style="stop-color: rgb(255, 255, 255); stop-opacity: 1;" />
									<stop
   id="stop167"
   offset="0.15800001"
   style="stop-color: rgb(252, 252, 252); stop-opacity: 1;" />
									<stop
   id="stop169"
   offset="0.2879"
   style="stop-color: rgb(242, 242, 242); stop-opacity: 1;" />
									<stop
   id="stop171"
   offset="0.40790001"
   style="stop-color: rgb(224, 224, 224); stop-opacity: 1;" />
									<stop
   id="stop173"
   offset="0.5219"
   style="stop-color: rgb(200, 200, 200); stop-opacity: 1;" />
									<stop
   id="stop175"
   offset="0.63169998"
   style="stop-color: rgb(169, 169, 169); stop-opacity: 1;" />
									<stop
   id="stop177"
   offset="0.73830003"
   style="stop-color: rgb(130, 130, 130); stop-opacity: 1;" />
									<stop
   id="stop179"
   offset="0.84240001"
   style="stop-color: rgb(85, 85, 85); stop-opacity: 1;" />
									<stop
   id="stop181"
   offset="0.94199997"
   style="stop-color: rgb(33, 33, 33); stop-opacity: 1;" />
									<stop
   id="stop183"
   offset="1"
   style="stop-color: rgb(0, 0, 0); stop-opacity: 1;" />
									<a:midPointStop
   offset="0"
   style="stop-color:#FFFFFF" />
									<a:midPointStop
   offset="0.7458"
   style="stop-color:#FFFFFF" />
									<a:midPointStop
   offset="1"
   style="stop-color:#000000" />
								</radialGradient>
								<circle
   id="circle185"
   style="fill: url(#XMLID_14_) rgb(0, 0, 0); stroke: rgb(0, 0, 0);"
   r="31.171"
   cy="299.31799"
   cx="187.073" /> 
								<circle
   id="circle187"
   style="stroke: rgb(0, 0, 0);"
   r="18.761999"
   cy="292.22"
   cx="192.231" /> 
							</g>
							<g
   id="g189">
								
									<radialGradient
   gradientUnits="userSpaceOnUse"
   id="XMLID_15_"
   fy="296.0864"
   fx="281.1973"
   r="31.1733"
   cy="296.0864"
   cx="281.1973">
									<stop
   id="stop192"
   offset="0"
   style="stop-color: rgb(255, 255, 255); stop-opacity: 1;" />
									<stop
   id="stop194"
   offset="0.15800001"
   style="stop-color: rgb(252, 252, 252); stop-opacity: 1;" />
									<stop
   id="stop196"
   offset="0.2879"
   style="stop-color: rgb(242, 242, 242); stop-opacity: 1;" />
									<stop
   id="stop198"
   offset="0.40790001"
   style="stop-color: rgb(224, 224, 224); stop-opacity: 1;" />
									<stop
   id="stop200"
   offset="0.5219"
   style="stop-color: rgb(200, 200, 200); stop-opacity: 1;" />
									<stop
   id="stop202"
   offset="0.63169998"
   style="stop-color: rgb(169, 169, 169); stop-opacity: 1;" />
									<stop
   id="stop204"
   offset="0.73830003"
   style="stop-color: rgb(130, 130, 130); stop-opacity: 1;" />
									<stop
   id="stop206"
   offset="0.84240001"
   style="stop-color: rgb(85, 85, 85); stop-opacity: 1;" />
									<stop
   id="stop208"
   offset="0.94199997"
   style="stop-color: rgb(33, 33, 33); stop-opacity: 1;" />
									<stop
   id="stop210"
   offset="1"
   style="stop-color: rgb(0, 0, 0); stop-opacity: 1;" />
									<a:midPointStop
   offset="0"
   style="stop-color:#FFFFFF" />
									<a:midPointStop
   offset="0.7458"
   style="stop-color:#FFFFFF" />
									<a:midPointStop
   offset="1"
   style="stop-color:#000000" />
								</radialGradient>
								<circle
   id="circle212"
   style="fill: url(#XMLID_15_) rgb(0, 0, 0); stroke: rgb(0, 0, 0);"
   r="31.171"
   cy="296.08701"
   cx="281.19699" /> 
								<circle
   id="circle214"
   style="stroke: rgb(0, 0, 0);"
   r="18.763"
   cy="288.987"
   cx="276.03799" /> 
							</g>
							<g
   id="g216">
								
									<radialGradient
   gradientUnits="userSpaceOnUse"
   id="XMLID_16_"
   fy="205.56979"
   fx="307.207"
   r="31.1807"
   cy="205.56979"
   cx="307.207">
									<stop
   id="stop219"
   offset="0"
   style="stop-color: rgb(255, 255, 255); stop-opacity: 1;" />
									<stop
   id="stop221"
   offset="0.15800001"
   style="stop-color: rgb(252, 252, 252); stop-opacity: 1;" />
									<stop
   id="stop223"
   offset="0.2879"
   style="stop-color: rgb(242, 242, 242); stop-opacity: 1;" />
									<stop
   id="stop225"
   offset="0.40790001"
   style="stop-color: rgb(224, 224, 224); stop-opacity: 1;" />
									<stop
   id="stop227"
   offset="0.5219"
   style="stop-color: rgb(200, 200, 200); stop-opacity: 1;" />
									<stop
   id="stop229"
   offset="0.63169998"
   style="stop-color: rgb(169, 169, 169); stop-opacity: 1;" />
									<stop
   id="stop231"
   offset="0.73830003"
   style="stop-color: rgb(130, 130, 130); stop-opacity: 1;" />
									<stop
   id="stop233"
   offset="0.84240001"
   style="stop-color: rgb(85, 85, 85); stop-opacity: 1;" />
									<stop
   id="stop235"
   offset="0.94199997"
   style="stop-color: rgb(33, 33, 33); stop-opacity: 1;" />
									<stop
   id="stop237"
   offset="1"
   style="stop-color: rgb(0, 0, 0); stop-opacity: 1;" />
									<a:midPointStop
   offset="0"
   style="stop-color:#FFFFFF" />
									<a:midPointStop
   offset="0.7458"
   style="stop-color:#FFFFFF" />
									<a:midPointStop
   offset="1"
   style="stop-color:#000000" />
								</radialGradient>
								<circle
   id="circle239"
   style="fill: url(#XMLID_16_) rgb(0, 0, 0); stroke: rgb(0, 0, 0);"
   r="31.172001"
   cy="205.57001"
   cx="307.20901" /> 
								<path
   id="path241"
   style="stroke: rgb(0, 0, 0);"
   d="M 304.659,226.126 C 294.806,229.327 284.22,223.935 281.016,214.079 C 277.815,204.224 283.208,193.638 293.064,190.436 C 302.918,187.235 313.504,192.627 316.705,202.483 C 319.908,212.339 314.515,222.925 304.659,226.126 z " />
							</g>
						</g>
						<g
   id="g243">
							<g
   id="g245">
								<path
   id="path247"
   style="fill: rgb(255, 255, 255); stroke: rgb(0, 0, 0);"
   d="M 241.177,166.289 C 241.177,172.312 236.295,177.193 230.27,177.193 C 224.249,177.193 219.368,172.312 219.368,166.289 C 219.368,160.268 224.249,155.383 230.27,155.383 C 236.295,155.382 241.177,160.267 241.177,166.289 z " />
								<polygon
   id="polygon249"
   style="fill: rgb(255, 255, 255); stroke: rgb(0, 0, 0);"
   points="224.854,175.671 219.438,166.289 224.854,156.907 235.688,156.907 241.105,166.289 235.688,175.671 224.854,175.671" />
								<polygon
   id="polygon251"
   style="fill: rgb(255, 255, 255); stroke: rgb(0, 0, 0);"
   points="225.461,174.622 220.65,166.29 225.461,157.957 235.08,157.957 239.892,166.29 235.08,174.622 225.461,174.622" />
							</g>
							<g
   id="g253">
								<circle
   id="circle255"
   style="fill: rgb(255, 255, 255); stroke: rgb(0, 0, 0);"
   r="10.905"
   cy="212.80299"
   cx="168.533" /> 
								<polygon
   id="polygon257"
   style="fill: rgb(255, 255, 255); stroke: rgb(0, 0, 0);"
   points="175.781,220.856 165.186,223.106 157.935,215.055 161.283,204.752 171.881,202.5 179.131,210.55 175.781,220.856" />
								<polygon
   id="polygon259"
   style="fill: rgb(255, 255, 255); stroke: rgb(0, 0, 0);"
   points="174.971,219.953 165.559,221.955 159.122,214.803 162.095,205.654 171.507,203.654 177.943,210.803 174.971,219.953" />
							</g>
							<g
   id="g261">
								<circle
   id="circle263"
   style="fill: rgb(255, 255, 255); stroke: rgb(0, 0, 0);"
   r="10.906"
   cy="285.89401"
   cx="193.692" /> 
								<polygon
   id="polygon265"
   style="fill: rgb(255, 255, 255); stroke: rgb(0, 0, 0);"
   points="203.59,281.488 202.457,292.263 192.559,296.669 183.793,290.3 184.927,279.527 194.823,275.119 203.59,281.488" />
								<polygon
   id="polygon267"
   style="fill: rgb(255, 255, 255); stroke: rgb(0, 0, 0);"
   points="202.482,281.98 201.476,291.548 192.686,295.461 184.902,289.807 185.91,280.239 194.698,276.326 202.482,281.98" />
							</g>
							<g
   id="g269">
								<path
   id="path271"
   style="fill: rgb(255, 255, 255); stroke: rgb(0, 0, 0);"
   d="M 262.156,290.963 C 258.617,286.088 259.697,279.27 264.571,275.73 C 269.441,272.19 276.261,273.268 279.802,278.143 C 283.341,283.013 282.261,289.833 277.389,293.373 C 272.518,296.916 265.696,295.833 262.156,290.963 z " />
								<polygon
   id="polygon273"
   style="fill: rgb(255, 255, 255); stroke: rgb(0, 0, 0);"
   points="269.846,273.778 279.744,278.184 280.878,288.959 272.111,295.326 262.217,290.919 261.08,280.145 269.846,273.778" />
								<polygon
   id="polygon275"
   style="fill: rgb(255, 255, 255); stroke: rgb(0, 0, 0);"
   points="269.975,274.985 278.764,278.896 279.77,288.464 271.985,294.121 263.195,290.208 262.191,280.637 269.975,274.985" />
							</g>
							<g
   id="g277">
								<circle
   id="circle279"
   style="fill: rgb(255, 255, 255); stroke: rgb(0, 0, 0);"
   r="10.906"
   cy="210.632"
   cx="293.586" /> 
								<polygon
   id="polygon281"
   style="fill: rgb(255, 255, 255); stroke: rgb(0, 0, 0);"
   points="282.988,208.38 290.238,200.328 300.836,202.58 304.184,212.885 296.936,220.936 286.338,218.683 282.988,208.38" />
								<polygon
   id="polygon283"
   style="fill: rgb(255, 255, 255); stroke: rgb(0, 0, 0);"
   points="284.176,208.633 290.612,201.482 300.024,203.484 302.998,212.632 296.561,219.782 287.148,217.782 284.176,208.633" />
							</g>
						</g>
					</g><g
     id="g285">
						<path
   id="path287"
   style="fill: rgb(255, 255, 255);"
   d="M 246.931,56.859 L 246.356,73.734 L 243.106,73.623 L 243.349,66.498 L 240.911,66.415 L 240.291,84.603 L 242.104,84.665 L 241.757,94.852 L 232.507,94.538 L 232.854,84.351 L 234.979,84.423 L 235.599,66.235 L 233.036,66.148 L 232.793,73.273 L 229.543,73.162 L 230.118,56.287 L 246.931,56.859 z " />
						<path
   id="path289"
   style="fill: rgb(255, 255, 255);"
   d="M 269.66,70.415 L 265.359,90.353 L 266.984,90.704 L 265.3,98.517 L 258.3,97.007 L 259.984,89.194 L 261.422,89.504 L 264.119,77.004 L 262.681,76.694 L 264.285,69.256 L 269.66,70.415 z M 271.535,60.812 L 270.185,67.062 L 266.247,66.212 L 267.597,59.962 L 271.535,60.812 z " />
						<path
   id="path291"
   style="fill: rgb(255, 255, 255);"
   d="M 287.96,75.665 L 293.023,77.65 L 291.764,80.86 C 293.262,78.69 294.599,77.836 295.774,78.296 C 297.58,79.005 297.677,81.412 296.067,85.519 C 295.008,88.217 294.021,90.46 293.104,92.248 L 290.087,91.065 C 290.598,90.1 290.935,89.41 291.099,88.992 C 292.076,86.503 292.142,85.093 291.299,84.763 C 290.684,84.522 289.932,85.534 289.043,87.799 L 285.572,96.651 L 287.197,97.288 L 284.281,104.726 L 277.593,102.104 L 280.509,94.666 L 281.884,95.205 L 286.54,83.33 L 285.165,82.791 L 287.96,75.665 z " />
						<path
   id="path293"
   style="fill: rgb(255, 255, 255);"
   d="M 315.404,107.427 C 314.955,108.424 314.332,109.567 313.537,110.855 C 310.5,115.769 307.478,117.296 304.471,115.439 C 302.366,114.138 301.518,112.473 301.928,110.447 C 302.338,108.42 304.313,104.54 307.854,98.809 C 310.549,94.444 312.719,91.683 314.362,90.525 C 316.005,89.369 317.758,89.366 319.624,90.518 C 321.472,91.661 322.237,93.25 321.919,95.285 C 321.601,97.321 320.095,100.517 317.405,104.874 L 316.385,106.478 L 310.369,102.763 L 308.855,105.155 L 308.232,106.384 C 307.839,107.267 307.994,107.904 308.695,108.292 C 309.508,108.75 310.379,108.227 311.308,106.722 L 311.796,105.93 L 312.148,105.416 L 315.404,107.427 z M 311.959,100.032 L 314.502,101.603 L 315.57,99.875 C 316.427,98.485 316.441,97.534 315.611,97.021 C 314.734,96.479 313.777,97.044 312.744,98.717 C 312.529,99.065 312.268,99.503 311.959,100.032 z " />
						<path
   id="path295"
   style="fill: rgb(255, 255, 255);"
   d="M 371.621,124.846 L 375.726,130.721 C 377.781,133.66 378.603,135.962 378.197,137.625 C 377.789,139.288 375.896,141.3 372.517,143.66 C 370.025,145.401 368.165,146.329 366.939,146.444 C 365.71,146.559 364.392,145.932 362.98,144.565 C 363.734,146.716 363.863,148.319 363.363,149.373 C 362.863,150.426 361.258,151.9 358.545,153.797 C 354.979,156.289 352.285,157.484 350.467,157.381 C 348.649,157.277 346.758,155.822 344.797,153.016 L 340.371,146.683 L 348.746,140.83 L 349.795,142.33 L 364.67,131.935 L 363.621,130.435 L 371.621,124.846 z M 358.852,142.513 L 352.852,146.705 L 353.348,147.415 C 354.356,148.858 355.952,148.817 358.133,147.294 C 359.951,146.023 360.352,144.658 359.332,143.199 L 358.852,142.513 z M 367.727,136.311 L 362.289,140.111 L 362.865,140.935 C 363.703,142.136 365.041,142.095 366.877,140.812 C 368.666,139.562 369.115,138.298 368.223,137.021 L 367.727,136.311 z " />
						<path
   id="path297"
   style="fill: rgb(255, 255, 255);"
   d="M 382.055,160.517 L 384.276,165.58 L 381.122,166.964 C 383.669,166.491 385.192,166.822 385.69,167.955 C 386.454,169.697 384.831,171.447 380.823,173.206 C 378.19,174.36 375.925,175.244 374.028,175.858 L 372.727,172.891 C 373.756,172.581 374.473,172.338 374.877,172.161 C 377.287,171.104 378.316,170.179 377.969,169.384 C 377.715,168.804 376.498,168.992 374.321,169.947 L 365.589,173.777 L 366.245,175.277 L 358.932,178.484 L 356.055,171.921 L 363.368,168.714 L 363.972,170.089 L 375.66,164.962 L 375.056,163.587 L 382.055,160.517 z " />
						<path
   id="path299"
   style="fill: rgb(255, 255, 255);"
   d="M 375.618,205.152 L 367.937,206.951 C 367.292,206.306 366.883,205.617 366.711,204.883 C 366.341,203.303 366.955,201.967 368.553,200.874 C 366.651,200.669 365.532,199.85 365.197,198.417 C 364.593,195.841 367.364,193.833 373.51,192.394 C 376.737,191.638 379.525,192.561 381.874,195.162 C 383.044,196.482 384.101,197.033 385.044,196.812 C 386.222,196.536 386.704,195.943 386.491,195.033 C 386.264,194.068 385.456,193.749 384.063,194.075 C 383.777,194.141 383.357,194.282 382.804,194.495 L 381.931,190.769 C 383.062,190.228 384.422,189.772 386.012,189.399 C 390.438,188.362 393.092,189.723 393.973,193.483 C 394.79,196.972 392.914,199.253 388.346,200.324 L 386.15,200.839 L 378.259,202.688 C 376.011,203.214 374.974,203.849 375.149,204.591 C 375.183,204.731 375.339,204.918 375.618,205.152 z M 379.776,198.244 C 378.159,196.293 376.609,195.491 375.127,195.839 C 373.845,196.139 373.329,196.822 373.579,197.891 C 373.847,199.032 375.113,199.336 377.379,198.806 L 379.776,198.244 z " />
						<path
   id="path301"
   style="fill: rgb(255, 255, 255);"
   d="M 377.854,233.897 L 369.854,234.19 L 369.606,227.44 L 377.606,227.147 L 377.651,228.335 L 385.788,228.037 L 386.79,228 L 388.044,227.926 C 389.864,227.86 390.759,227.393 390.728,226.526 C 390.673,225.037 388.917,224.355 385.46,224.482 L 377.521,224.773 L 377.574,226.211 L 369.574,226.504 L 369.326,219.754 L 377.326,219.461 L 377.381,220.961 L 390.131,220.494 L 390.076,218.994 L 397.701,218.715 L 397.896,224.028 L 394.433,224.155 C 397.029,225.073 398.357,226.394 398.421,228.119 C 398.505,230.424 396.589,231.648 392.671,231.792 L 390.548,231.87 L 377.798,232.337 L 377.854,233.897 z " />
						<path
   id="path303"
   style="fill: rgb(255, 255, 255);"
   d="M 404.854,264.544 L 375.104,259.872 L 374.879,261.31 L 366.941,260.064 L 367.677,255.376 L 370.277,255.784 C 370.078,255.354 369.767,254.966 369.349,254.616 C 368.208,253.66 367.738,252.535 367.941,251.241 C 368.365,248.542 371.861,247.708 378.431,248.739 L 386.384,249.988 C 393.72,251.14 397.179,253.049 396.761,255.713 C 396.527,257.211 395.421,258.213 393.445,258.718 L 399.16,259.615 L 399.414,257.99 L 405.727,258.981 L 404.854,264.544 z M 388.918,256.319 C 389.162,255.239 388.055,254.506 385.596,254.121 L 382.295,253.574 L 379.238,253.094 C 376.685,252.693 375.349,253.051 375.23,254.17 C 375.126,255.193 376.927,255.997 380.636,256.58 C 385.924,257.41 388.686,257.323 388.918,256.319 z " />
					</g><g
     id="g305">
						<path
   id="path307"
   style="fill: rgb(255, 255, 255);"
   d="M 217.999,406.796 L 218.574,389.921 L 221.824,390.032 L 221.581,397.157 L 224.019,397.24 L 224.639,379.052 L 222.826,378.99 L 223.173,368.802 L 232.423,369.116 L 232.076,379.304 L 229.951,379.232 L 229.331,397.42 L 231.894,397.507 L 232.137,390.382 L 235.387,390.493 L 234.812,407.368 L 217.999,406.796 z " />
						<path
   id="path309"
   style="fill: rgb(255, 255, 255);"
   d="M 193.396,402.844 L 194.745,396.594 L 198.683,397.444 L 197.334,403.694 L 193.396,402.844 z M 195.271,393.242 L 199.571,373.304 L 197.946,372.953 L 199.631,365.14 L 206.631,366.65 L 204.946,374.463 L 203.508,374.153 L 200.812,386.653 L 202.25,386.963 L 200.646,394.401 L 195.271,393.242 z " />
						<path
   id="path311"
   style="fill: rgb(255, 255, 255);"
   d="M 176.97,387.992 L 171.907,386.007 L 173.166,382.797 C 171.668,384.967 170.331,385.821 169.156,385.361 C 167.35,384.652 167.253,382.245 168.863,378.138 C 169.922,375.44 170.909,373.197 171.826,371.409 L 174.843,372.592 C 174.332,373.557 173.995,374.247 173.831,374.665 C 172.854,377.154 172.788,378.564 173.631,378.894 C 174.246,379.135 174.998,378.123 175.887,375.858 L 179.358,367.006 L 177.733,366.369 L 180.649,358.931 L 187.337,361.553 L 184.421,368.991 L 183.046,368.452 L 178.39,380.327 L 179.765,380.866 L 176.97,387.992 z " />
						<path
   id="path313"
   style="fill: rgb(255, 255, 255);"
   d="M 149.525,356.228 C 149.975,355.231 150.598,354.088 151.393,352.8 C 154.429,347.886 157.452,346.359 160.46,348.216 C 162.565,349.517 163.413,351.182 163.003,353.208 C 162.593,355.235 160.618,359.115 157.077,364.846 C 154.381,369.211 152.212,371.973 150.569,373.13 C 148.926,374.286 147.173,374.289 145.307,373.137 C 143.458,371.994 142.694,370.405 143.012,368.369 C 143.33,366.333 144.835,363.137 147.526,358.78 L 148.546,357.176 L 154.561,360.891 L 156.076,358.499 L 156.699,357.27 C 157.092,356.387 156.937,355.75 156.235,355.362 C 155.422,354.904 154.551,355.427 153.622,356.932 L 153.134,357.724 L 152.783,358.238 L 149.525,356.228 z M 152.971,363.624 L 150.427,362.053 L 149.36,363.781 C 148.502,365.171 148.488,366.122 149.318,366.635 C 150.196,367.177 151.152,366.612 152.185,364.939 C 152.4,364.59 152.663,364.152 152.971,363.624 z " />
						<path
   id="path315"
   style="fill: rgb(255, 255, 255);"
   d="M 93.308,338.81 L 89.203,332.935 C 87.149,329.996 86.326,327.694 86.733,326.031 C 87.141,324.368 89.034,322.356 92.412,319.996 C 94.904,318.255 96.764,317.327 97.991,317.212 C 99.218,317.097 100.538,317.724 101.949,319.091 C 101.195,316.94 101.067,315.337 101.567,314.283 C 102.067,313.23 103.672,311.756 106.385,309.859 C 109.951,307.367 112.644,306.172 114.462,306.275 C 116.28,306.379 118.171,307.834 120.132,310.64 L 124.558,316.973 L 116.183,322.826 L 115.135,321.326 L 100.26,331.72 L 101.308,333.22 L 93.308,338.81 z M 97.203,327.345 L 102.641,323.545 L 102.065,322.721 C 101.227,321.52 99.89,321.561 98.054,322.844 C 96.265,324.094 95.816,325.358 96.707,326.635 L 97.203,327.345 z M 106.078,321.143 L 112.078,316.951 L 111.582,316.241 C 110.574,314.798 108.978,314.839 106.797,316.362 C 104.979,317.633 104.579,318.998 105.599,320.457 L 106.078,321.143 z " />
						<path
   id="path317"
   style="fill: rgb(255, 255, 255);"
   d="M 82.875,303.138 L 80.654,298.075 L 83.808,296.691 C 81.26,297.164 79.738,296.833 79.24,295.7 C 78.476,293.958 80.098,292.208 84.106,290.449 C 86.739,289.295 89.004,288.411 90.902,287.797 L 92.203,290.764 C 91.174,291.074 90.457,291.317 90.052,291.494 C 87.643,292.551 86.613,293.476 86.96,294.271 C 87.215,294.851 88.432,294.663 90.609,293.708 L 99.341,289.878 L 98.684,288.378 L 105.997,285.171 L 108.875,291.734 L 101.562,294.941 L 100.958,293.566 L 89.27,298.693 L 89.874,300.068 L 82.875,303.138 z " />
						<path
   id="path319"
   style="fill: rgb(255, 255, 255);"
   d="M 89.312,258.504 L 96.993,256.705 C 97.638,257.35 98.047,258.039 98.219,258.773 C 98.589,260.353 97.975,261.689 96.377,262.782 C 98.279,262.987 99.398,263.806 99.733,265.239 C 100.337,267.815 97.566,269.823 91.42,271.262 C 88.193,272.018 85.405,271.095 83.056,268.494 C 81.886,267.174 80.829,266.623 79.886,266.844 C 78.708,267.12 78.226,267.713 78.439,268.623 C 78.666,269.588 79.474,269.907 80.867,269.581 C 81.153,269.515 81.573,269.374 82.126,269.161 L 82.999,272.887 C 81.868,273.428 80.508,273.884 78.918,274.257 C 74.492,275.294 71.838,273.933 70.957,270.173 C 70.14,266.684 72.016,264.403 76.584,263.332 L 78.78,262.817 L 86.671,260.968 C 88.919,260.442 89.956,259.807 89.781,259.065 C 89.747,258.925 89.591,258.738 89.312,258.504 z M 85.153,265.413 C 86.77,267.364 88.32,268.166 89.802,267.818 C 91.084,267.518 91.6,266.835 91.35,265.766 C 91.082,264.625 89.816,264.321 87.55,264.851 L 85.153,265.413 z " />
						<path
   id="path321"
   style="fill: rgb(255, 255, 255);"
   d="M 87.076,229.759 L 95.076,229.466 L 95.324,236.216 L 87.324,236.509 L 87.28,235.321 L 79.143,235.619 L 78.14,235.656 L 76.887,235.73 C 75.067,235.796 74.172,236.263 74.203,237.13 C 74.258,238.619 76.014,239.301 79.47,239.174 L 87.41,238.883 L 87.357,237.445 L 95.357,237.152 L 95.604,243.902 L 87.604,244.195 L 87.549,242.695 L 74.799,243.162 L 74.854,244.662 L 67.229,244.941 L 67.035,239.628 L 70.498,239.501 C 67.902,238.583 66.573,237.262 66.51,235.537 C 66.426,233.232 68.342,232.008 72.26,231.864 L 74.383,231.786 L 87.133,231.319 L 87.076,229.759 z " />
						<path
   id="path323"
   style="fill: rgb(255, 255, 255);"
   d="M 60.076,199.112 L 89.826,203.784 L 90.052,202.346 L 97.99,203.592 L 97.254,208.28 L 94.654,207.872 C 94.853,208.302 95.163,208.69 95.582,209.04 C 96.723,209.996 97.192,211.121 96.989,212.415 C 96.565,215.114 93.069,215.948 86.5,214.917 L 78.547,213.668 C 71.21,212.516 67.751,210.607 68.169,207.943 C 68.404,206.445 69.51,205.443 71.485,204.938 L 65.771,204.041 L 65.516,205.666 L 59.203,204.675 L 60.076,199.112 z M 76.011,207.337 C 75.767,208.417 76.874,209.15 79.334,209.535 L 82.634,210.082 L 85.692,210.562 C 88.245,210.963 89.58,210.605 89.699,209.486 C 89.803,208.463 88.002,207.659 84.293,207.076 C 79.005,206.247 76.245,206.333 76.011,207.337 z " />
					</g></g>
		
	</svg>