<?xml version="1.0" encoding="UTF-8" standalone="no"?>
<!-- Created with Inkscape (http://www.inkscape.org/) -->
<svg
   xmlns:dc="http://purl.org/dc/elements/1.1/"
   xmlns:cc="http://web.resource.org/cc/"
   xmlns:rdf="http://www.w3.org/1999/02/22-rdf-syntax-ns#"
   xmlns:svg="http://www.w3.org/2000/svg"
   xmlns="http://www.w3.org/2000/svg"
   xmlns:sodipodi="http://sodipodi.sourceforge.net/DTD/sodipodi-0.dtd"
   xmlns:inkscape="http://www.inkscape.org/namespaces/inkscape"
   width="744.09448819"
   height="1052.3622047"
   id="svg2"
   sodipodi:version="0.32"
   inkscape:version="0.45.1"
   sodipodi:docbase="/home/kendrick/tuxpaint/tuxpaint/data/images"
   sodipodi:docname="title-tuxpaint.svg"
   inkscape:output_extension="org.inkscape.output.svg.inkscape"
   inkscape:export-filename="/home/kendrick/tuxpaint/tuxpaint/data/images/title-tuxpaint.png"
   inkscape:export-xdpi="24.70014"
   inkscape:export-ydpi="24.70014">
  <defs
     id="defs4" />
  <sodipodi:namedview
     id="base"
     pagecolor="#ffffff"
     bordercolor="#666666"
     borderopacity="1.0"
     gridtolerance="10000"
     guidetolerance="10"
     objecttolerance="10"
     inkscape:pageopacity="0.0"
     inkscape:pageshadow="2"
     inkscape:zoom="0.49497475"
     inkscape:cx="390.61355"
     inkscape:cy="394.95614"
     inkscape:document-units="px"
     inkscape:current-layer="layer1"
     inkscape:window-width="1280"
     inkscape:window-height="728"
     inkscape:window-x="0"
     inkscape:window-y="0" />
  <metadata
     id="metadata7">
    <rdf:RDF>
      <cc:Work
         rdf:about="">
        <dc:format>image/svg+xml</dc:format>
        <dc:type
           rdf:resource="http://purl.org/dc/dcmitype/StillImage" />
      </cc:Work>
    </rdf:RDF>
  </metadata>
  <g
     inkscape:label="Layer 1"
     inkscape:groupmode="layer"
     id="layer1">
    <path
       style="fill:#ff0f80;fill-opacity:1"
       d="M 443.3852,361.22417 C 443.3852,348.78228 452.42201,334.6994 479.65646,304.69933 C 494.9385,287.86541 507.49108,272.18882 507.55107,269.8624 C 507.70873,263.74808 496.13787,245.49618 482.62596,230.54546 C 476.19406,223.42867 470.96306,215.85341 471.00151,213.71155 C 471.03995,211.5697 473.53152,200.17605 476.53833,188.39232 C 481.63849,168.40486 482.72228,166.72937 492.69142,163.42062 C 498.56881,161.46991 509.7468,158.91874 517.53141,157.75139 C 531.57129,155.64595 531.71027,155.71148 534.79434,165.88917 C 540.76061,185.57848 552.35654,214.4184 555.6185,217.68035 C 557.96064,220.0225 565.50979,213.18303 581.88172,193.88602 C 610.1352,160.58466 610.45449,160.31942 626.67507,156.67487 L 639.85449,153.71367 L 637.76984,164.82579 C 634.79933,180.66004 629.83308,189.0672 610.94699,210.23324 C 582.41542,242.20913 577.16823,250.24187 579.29,258.69562 C 580.34197,262.88708 590.8998,275.91787 602.75185,287.65294 C 623.35818,308.05592 624.21095,309.46932 622.24316,319.95856 C 619.147,336.46243 612.02978,343.33073 596.17166,345.11819 C 584.36325,346.44914 580.35482,345.2973 568.16444,337.07011 C 560.33986,331.78937 549.60763,322.00131 544.31505,315.31886 C 539.02243,308.63641 533.1755,303.16897 531.32181,303.16897 C 529.46815,303.16897 516.55624,315.3809 502.62869,330.30661 C 477.89215,356.81604 462.77637,367.4439 449.80924,367.4439 C 445.39184,367.4439 443.3852,365.50108 443.3852,361.22417 z M 382.8924,339.20143 C 379.9435,335.616 373.09145,313.5622 368.60662,293.22166 C 367.58594,288.59233 365.40157,284.8047 363.75252,284.8047 C 362.10347,284.8047 352.83279,290.90788 343.15103,298.36735 C 331.21664,307.56241 319.49167,313.47631 306.74179,316.73162 C 278.00115,324.06977 271.79654,323.20276 258.9646,310.05557 C 238.48456,289.07237 235.19405,269.40155 240.91693,202.16551 C 244.20108,163.58121 250.20867,134.97783 256.66135,127.2028 C 259.64888,123.60304 295.7402,113.4049 305.49226,113.4049 C 307.26417,113.4049 308.71393,116.0508 308.71393,119.28465 C 308.71393,126.71134 297.44946,174.95729 291.66043,192.32518 C 289.25612,199.53841 287.28897,214.82957 287.28897,226.30552 C 287.28897,242.90688 288.69631,249.23756 294.17557,257.28368 C 308.39547,278.16516 316.6813,276.3527 339.61037,247.34528 C 351.15987,232.73406 352.07416,230.25877 350.61485,217.55296 C 348.83394,202.04765 358.16939,157.45205 364.47965,151.32041 C 370.81933,145.16017 405.93276,139.0031 410.22813,143.29847 C 412.427,145.49734 415.22752,170.14521 417.51375,207.42054 C 419.55635,240.72318 422.9627,274.6301 425.08344,282.76927 C 428.11924,294.42023 428.16172,301.04251 425.28321,313.90503 C 421.25464,331.90654 418.68181,334.9936 405.12632,338.09046 C 400.07615,339.24422 393.72832,340.84256 391.02005,341.64232 C 388.31178,342.44208 384.65436,341.34369 382.8924,339.20143 z M 156.75002,261.08419 C 156.10856,176.56196 147.53581,131.76917 132.00078,131.76917 C 122.5673,131.76917 57.735664,208.16484 57.735664,219.28098 C 57.735664,221.45252 56.110978,224.23333 54.12525,225.46058 C 50.544433,227.67366 4.7499864,238.96067 3.6825636,237.89328 C 2.1357722,236.34649 14.809839,189.76541 18.962335,181.73536 C 23.698969,172.57573 78.116233,120.23191 98.002527,105.70679 C 157.63986,62.147181 213.12149,31.389395 249.80236,21.552302 C 261.16136,18.506038 278.34024,13.134919 287.97769,9.6164792 C 297.61513,6.0980392 308.14293,3.2193184 311.37283,3.2193184 C 316.68947,3.2193184 316.97488,4.4507035 314.38791,16.227339 C 312.81629,23.38175 309.44749,30.817103 306.90166,32.75034 C 304.35585,34.683577 290.32415,39.990757 275.72015,44.544054 C 248.01494,53.182114 205.23067,73.188113 199.38716,80.237511 C 196.94784,83.180293 196.84031,95.024478 199.00405,122.44636 C 202.18459,162.75482 198.21766,261.58542 192.36439,287.86541 C 190.67714,295.44067 188.60844,304.67582 187.76723,308.38794 C 186.39377,314.44904 171.72498,321.45231 160.26947,321.51616 C 158.34713,321.52687 157.03813,299.05038 156.75002,261.08419 z "
       id="path2334" />
    <g
       id="g3439"
       transform="matrix(3.7618827,0,0,3.7618827,1246.4492,-837.53114)">
      <path
         style="fill:#d9dfe4"
         d="M -163.50993,423.28036 C -168.92515,419.56948 -170.15893,416.32216 -170.60189,404.61429 C -170.85592,397.9003 -170.45296,391.00165 -169.49071,385.59067 C -168.66036,380.92139 -168.06065,377.02468 -168.15803,376.93133 C -168.25541,376.83797 -170.73027,377.2369 -173.65772,377.81782 L -178.98035,378.87403 L -178.76615,391.97716 C -178.64835,399.18388 -178.88271,406.72496 -179.28695,408.7351 C -179.94763,412.02038 -180.4617,412.50065 -184.37133,413.4851 C -186.7635,414.08745 -189.19645,414.58029 -189.7779,414.58029 C -190.45474,414.58029 -190.83508,410.74227 -190.83508,403.9122 C -190.83508,391.03331 -192.57188,379.35859 -194.08546,382.0632 C -195.03205,383.75467 -199.27208,395.75532 -202.4447,405.72256 C -203.8052,409.99676 -204.27116,410.45267 -208.32154,411.47256 C -210.74109,412.08181 -213.18312,412.58029 -213.74827,412.58029 C -214.43199,412.58029 -214.64081,405.5042 -214.37234,391.4329 C -213.93592,368.55786 -213.87167,368.30259 -208.29191,367.27401 L -205.24875,366.71302 L -205.61588,373.39666 L -205.98302,380.08029 L -203.01258,374.60501 C -199.47696,368.08796 -197.82368,366.86215 -190.16988,365.08297 C -183.33946,363.49519 -182.34973,364.00387 -180.70653,369.94678 C -180.07793,372.22021 -179.42394,373.63029 -179.25322,373.08029 C -179.0825,372.53029 -178.45936,370.198 -177.86848,367.89743 C -176.8369,363.88101 -176.58128,363.66692 -171.44464,362.5174 L -166.09514,361.32023 L -164.90414,355.9983 C -163.99557,351.93835 -163.19407,350.5276 -161.52411,350.04898 C -155.56515,348.34112 -155.94971,348.03222 -155.63197,354.7819 L -155.33508,361.08853 L -144.58501,360.08441 C -132.60308,358.96523 -132.92802,358.77413 -134.87749,365.79346 C -136.02797,369.93588 -137.53991,370.62628 -150.08413,372.73731 C -153.79611,373.36198 -157.38689,374.54026 -158.06365,375.35569 C -159.77904,377.42262 -160.32072,395.92401 -158.87038,402.91024 C -157.93318,407.42474 -157.02126,409.09924 -154.41901,411.08407 C -150.76366,413.87214 -147.65826,414.27708 -145.92729,412.19139 C -144.72885,410.74737 -135.95134,408.1307 -135.11416,408.96788 C -134.85145,409.23058 -134.94951,411.29813 -135.33206,413.56242 C -136.22145,418.82664 -140.51302,421.76995 -150.53249,423.9874 C -159.43508,425.95767 -159.61748,425.94773 -163.50993,423.28036 z M -259.53008,413.2891 C -262.47557,411.65156 -268.55148,404.45642 -269.83124,401.0904 C -270.60901,399.04469 -271.2901,398.55693 -272.59898,399.10825 C -276.15219,400.60491 -285.45974,402.54956 -289.14226,402.56467 C -293.99152,402.58457 -301.47772,400.71581 -302.76569,399.1639 C -304.6862,396.84983 -301.31737,387.96998 -295.96901,381.2486 C -288.14206,371.41234 -277.49615,361.83539 -273.06155,360.64127 C -265.78288,358.68133 -262.83508,358.30911 -262.83508,359.34998 C -262.83508,360.01643 -261.53603,360.068 -259.08508,359.49884 C -257.02258,359.01988 -255.09537,358.61727 -254.80239,358.60415 C -253.85671,358.56179 -254.95812,372.89176 -256.39148,379.27904 C -257.58922,384.61638 -257.58311,386.04298 -256.34754,389.54498 C -254.27265,395.42585 -250.18678,400.30912 -246.25551,401.60655 C -242.51431,402.84126 -242.35669,403.31762 -243.87749,408.79346 C -244.7398,411.89831 -245.51706,412.67557 -248.62191,413.53788 C -253.44693,414.87793 -256.8102,414.80123 -259.53008,413.2891 z M -274.27316,382.08029 C -273.60836,378.78029 -273.18423,375.94639 -273.33065,375.78273 C -273.47706,375.61908 -276.56411,378.09407 -280.19075,381.28273 C -286.2343,386.59642 -286.59895,387.1365 -284.55986,387.75374 C -283.33623,388.12413 -280.79311,388.34913 -278.90849,388.25374 C -275.55305,388.08389 -275.4568,387.9557 -274.27316,382.08029 z M -233.84473,408.2989 C -233.86035,401.46715 -231.86473,384.70204 -230.00961,376.08029 L -228.28827,368.08029 L -223.81168,366.95586 C -221.34955,366.33742 -219.01638,366.11612 -218.62686,366.46408 C -218.23734,366.81204 -218.38497,370.01803 -218.95494,373.58851 C -219.52491,377.15899 -220.3458,385.93029 -220.77914,393.08029 C -221.21248,400.23029 -221.89861,406.8629 -222.30388,407.81943 C -222.70914,408.77596 -224.90696,410.03568 -227.1879,410.61881 C -229.46885,411.20193 -231.89758,411.86769 -232.58508,412.09828 C -233.45288,412.38933 -233.83803,411.22765 -233.84473,408.2989 z M -328.31592,410.76612 C -328.60146,410.48058 -328.83508,402.47351 -328.83508,392.97264 C -328.83508,381.58611 -329.20653,375.46875 -329.92489,375.02479 C -331.13926,374.27427 -330.27547,367.69429 -328.75726,366.13029 C -328.25006,365.60779 -327.83508,364.28654 -327.83508,363.19418 C -327.83508,356.54554 -321.49085,338.97167 -317.59272,334.82231 C -315.05948,332.1258 -307.15195,329.58029 -301.30857,329.58029 C -296.62552,329.58029 -294.7774,331.08076 -292.37322,336.83477 C -289.09536,344.67978 -291.76103,361.23727 -297.42551,368.21653 C -300.38742,371.86593 -301.5507,372.50546 -307.30881,373.64999 L -313.83508,374.94721 L -313.8707,385.51375 C -313.9029,395.06471 -315.67853,406.75707 -317.3507,408.42924 C -318.29528,409.37383 -327.70322,411.37882 -328.31592,410.76612 z M -305.25267,361.06114 C -302.94733,358.03868 -302.65477,356.91242 -303.17986,353.08147 C -304.56795,342.95427 -308.51218,338.22836 -311.99084,342.52432 C -313.5053,344.39459 -313.83508,346.57022 -313.83508,354.69107 L -313.83508,364.58029 L -310.88597,364.58029 C -308.68766,364.58029 -307.25351,363.68437 -305.25267,361.06114 z M -227.35535,351.99076 C -226.64072,348.91652 -225.66881,346.0527 -225.19555,345.62672 C -224.31337,344.83267 -215.87612,342.58029 -213.78385,342.58029 C -212.61702,342.58029 -212.71374,343.37563 -214.89193,351.69253 C -215.78374,355.09768 -216.16277,355.37 -221.50331,356.44253 C -224.61924,357.0683 -227.503,357.58029 -227.91166,357.58029 C -228.32032,357.58029 -228.06998,355.065 -227.35535,351.99076 z "
         id="path3451" />
      <path
         style="fill:#aebdc7"
         d="M -165.18213,421.33029 C -168.12508,418.73141 -169.06001,417.00114 -169.84874,412.6938 C -171.27223,404.91999 -171.0642,395.45888 -169.25781,385.81882 C -168.39032,381.18929 -167.87465,377.20739 -168.11189,376.97015 C -168.34912,376.73291 -170.88596,377.04124 -173.74929,377.65531 L -178.95536,378.77181 L -178.77436,391.42605 C -178.49343,411.06722 -178.90827,412.14565 -187.45985,414.00484 L -190.58463,414.68419 L -191.07276,399.88224 C -191.34124,391.74117 -192.00494,383.9734 -192.54766,382.62053 C -193.65464,379.86107 -193.76287,380.09504 -200.95755,400.80038 L -204.33508,410.52047 L -208.82237,411.47976 C -211.29037,412.00737 -213.52985,412.21885 -213.79898,411.94973 C -214.49783,411.25087 -214.05238,372.84031 -213.31861,370.5284 C -212.97856,369.45699 -211.29611,368.2372 -209.52154,367.77549 L -206.33508,366.94643 L -206.03736,373.95706 L -205.73964,380.96769 L -203.41971,376.02399 C -200.55678,369.92319 -197.52783,367.0971 -192.33508,365.68172 C -185.29633,363.76318 -183.22422,364.18831 -181.86305,367.83029 C -179.02741,375.41737 -179.12,375.34676 -178.36815,370.49573 C -177.41753,364.3621 -177.14117,364.06179 -171.13728,362.63826 L -165.93948,361.40585 L -164.74742,356.07921 C -163.61795,351.03217 -163.34847,350.70005 -159.61369,349.75206 L -155.67201,348.75156 L -156.00354,355.24397 L -156.33508,361.73638 L -152.33508,361.18938 C -143.46664,359.97662 -133.83508,359.36169 -133.83508,360.00826 C -133.83508,360.38577 -134.3398,362.69908 -134.95668,365.14894 C -136.20184,370.09393 -135.41074,369.69279 -149.28287,372.41322 C -158.15015,374.15217 -158.23881,374.19905 -159.13606,377.62412 C -160.34674,382.24562 -159.46455,404.4322 -157.94493,407.58029 C -157.28121,408.95529 -155.10251,411.15098 -153.10339,412.45959 C -150.22834,414.34159 -149.14114,414.59866 -147.90185,413.68949 C -145.72084,412.08947 -140.85712,409.97028 -137.58508,409.19433 C -134.46727,408.45496 -134.28506,409.05962 -135.88722,414.82869 C -137.07001,419.0877 -140.32526,421.29391 -148.33508,423.26508 C -157.15088,425.4346 -161.04026,424.98792 -165.18213,421.33029 z M -259.33508,413.18656 C -262.59031,411.67191 -267.59159,405.84375 -269.58225,401.24519 C -270.51098,399.09976 -271.27697,398.53692 -272.58225,399.04084 C -282.07123,402.70417 -293.08629,403.17347 -300.16452,400.216 L -303.71905,398.73082 L -302.02707,392.71418 C -300.68307,387.935 -298.90008,385.02518 -293.35791,378.56632 C -283.14144,366.65999 -277.33586,362.03456 -270.30304,360.19804 C -266.30022,359.15276 -264.19736,358.99411 -263.75845,359.70429 C -263.3086,360.43216 -261.94522,360.4286 -259.27964,359.69259 C -257.17198,359.11064 -255.22802,358.85401 -254.95973,359.12231 C -254.03917,360.04286 -254.89256,371.08392 -256.46903,378.64947 C -258.00961,386.04281 -257.9944,386.33918 -255.81439,391.40675 C -253.3894,397.04379 -247.9319,402.58029 -244.80028,402.58029 C -242.49789,402.58029 -242.51965,402.44198 -243.93667,408.06946 C -244.54255,410.47561 -245.61001,412.66368 -246.30882,412.93184 C -249.98397,414.34213 -256.57461,414.471 -259.33508,413.18656 z M -274.1469,382.17558 C -273.41225,378.92799 -273.03088,376.05116 -273.2994,375.78263 C -273.56793,375.5141 -276.77911,377.92076 -280.43535,381.13076 C -287.73287,387.53763 -287.5651,388.7067 -279.40886,388.28384 L -275.48263,388.08029 L -274.1469,382.17558 z M -233.40979,409.33029 C -233.15492,408.09279 -232.66972,401.68029 -232.33156,395.08029 C -231.9934,388.48029 -231.26306,381.28029 -230.70858,379.08029 C -227.69345,367.11713 -228.07018,367.7958 -224.0695,367.11989 C -217.54297,366.01725 -217.61625,365.70565 -220.48466,382.36341 C -221.36384,387.46912 -221.86341,393.93366 -221.59481,396.72904 C -221.32621,399.52443 -221.54848,403.55303 -222.08874,405.6815 C -222.92263,408.96676 -223.61976,409.70385 -226.70306,410.56028 C -232.51487,412.17461 -233.94169,411.91293 -233.40979,409.33029 z M -328.78796,392.94348 C -328.6943,380.05866 -328.98736,375.10421 -329.87564,374.55522 C -330.81569,373.97424 -330.73413,372.58745 -329.51612,368.44203 C -328.64965,365.49307 -327.41142,360.60529 -326.76449,357.58029 C -324.57121,347.32456 -319.94467,336.76351 -316.50991,334.17205 C -310.68854,329.77993 -300.23606,328.21028 -296.10023,331.10713 C -294.89918,331.94837 -293.14667,335.0884 -292.19733,338.10004 C -290.71002,342.81833 -290.6329,344.55894 -291.63361,350.82321 C -293.35998,361.62997 -294.48059,364.71526 -298.10751,368.64724 C -300.72446,371.4843 -302.67023,372.48423 -307.6164,373.53388 L -313.83508,374.85358 L -313.83508,384.76953 C -313.83508,390.2233 -314.54343,397.79987 -315.4092,401.60634 C -316.92716,408.28034 -317.11444,408.56363 -320.6592,409.54817 C -322.68093,410.1097 -325.36582,410.57165 -326.62562,410.57471 L -328.91615,410.58029 L -328.78796,392.94348 z M -304.94732,361.06053 C -302.93268,358.10231 -302.65224,356.77191 -303.15265,352.54671 C -304.26992,343.11316 -308.16451,338.46528 -311.85746,342.15823 C -314.11881,344.41957 -314.28495,345.5477 -314.01826,356.83029 L -313.83508,364.58029 L -310.58508,364.57346 C -307.9942,364.56801 -306.85083,363.85557 -304.94732,361.06053 z M -227.00675,351.40781 L -225.33508,345.23534 L -219.43037,343.89586 C -216.18278,343.15915 -213.40883,342.67426 -213.26603,342.81833 C -212.7088,343.38057 -215.41232,353.55262 -216.34544,354.40469 C -217.27949,355.2576 -225.58409,357.58029 -227.69957,357.58029 C -228.26322,357.58029 -227.96934,354.96204 -227.00675,351.40781 z "
         id="path3449" />
      <path
         style="fill:#89a0b0"
         d="M -164.20853,422.37528 C -168.11174,419.46612 -169.79067,414.96796 -170.52432,405.45417 C -170.96845,399.69487 -170.62932,394.63411 -169.32168,387.50728 C -168.32003,382.04812 -167.76509,377.31695 -168.08848,376.99355 C -168.41188,376.67016 -171.07466,376.90247 -174.00577,377.50979 L -179.33508,378.61402 L -179.00968,389.84716 C -178.83071,396.02538 -178.97867,403.46741 -179.33847,406.385 C -180.03435,412.02778 -180.624,412.57179 -187.46481,413.88251 L -190.59453,414.48218 L -191.07392,399.28123 C -191.33759,390.92071 -191.9963,382.98087 -192.53772,381.63713 C -193.66148,378.84812 -193.27234,378.01559 -200.69111,399.08029 L -204.5652,410.08029 L -208.95014,411.1932 C -211.36186,411.80531 -213.48335,412.18203 -213.66458,412.03037 C -213.9799,411.76649 -213.88309,388.8463 -213.51202,375.91353 C -213.4147,372.52182 -213.07727,369.489 -212.76216,369.17395 C -212.44706,368.85889 -210.69656,368.30259 -208.87217,367.93771 C -205.5601,367.27529 -205.55597,367.27943 -206.13566,370.67729 C -206.45497,372.54894 -206.38415,375.88029 -205.97829,378.08029 C -205.25173,382.01864 -205.22891,382.03663 -204.49781,379.2472 C -202.31323,370.91218 -196.72102,366.21172 -187.48282,364.94549 C -183.43185,364.39024 -183.10555,364.52756 -182.08444,367.2174 C -181.48671,368.79199 -180.66647,371.43029 -180.26169,373.08029 C -179.55034,375.98 -179.48526,375.90888 -178.31517,370.95285 C -176.69697,364.09886 -176.35773,363.6875 -171.71058,362.94439 C -166.66294,362.13724 -165.19387,360.66344 -164.32793,355.53794 C -163.80736,352.45673 -163.03353,351.22604 -161.17158,350.51813 C -156.24278,348.6442 -155.84069,349.08136 -156.39305,355.71335 L -156.90385,361.8464 L -150.61947,361.19465 C -147.16305,360.83619 -141.90111,360.26554 -138.92626,359.92653 C -134.28029,359.39709 -133.60209,359.53075 -134.11763,360.87421 C -134.44773,361.73444 -135.01545,364.02481 -135.37923,365.96393 C -136.10235,369.8185 -134.57793,369.23431 -154.83508,373.41985 C -157.94645,374.06272 -158.46494,374.6392 -159.5046,378.61165 C -161.76141,387.23471 -160.50417,403.95784 -157.21397,409.08029 C -156.50743,410.18029 -154.3653,411.92133 -152.45368,412.94927 C -149.04343,414.78308 -148.92491,414.78127 -146.15655,412.85325 C -143.51857,411.01604 -134.83508,408.24761 -134.83508,409.2438 C -134.83508,409.49177 -135.31692,411.60821 -135.90584,413.94701 C -136.7918,417.46549 -137.69785,418.5787 -141.15584,420.39738 C -149.6458,424.86256 -159.71251,425.72627 -164.20853,422.37528 z M -258.83508,412.9622 C -262.26526,411.47739 -269.83508,402.45054 -269.83508,399.84494 C -269.83508,398.18243 -269.96849,398.19462 -279.68835,400.74553 C -287.23147,402.72516 -288.63778,402.81648 -294.18835,401.68709 C -302.65902,399.96353 -303.3283,399.14332 -301.80788,392.34935 C -300.7569,387.65308 -299.44355,385.62694 -292.46009,377.92827 C -280.24027,364.45695 -277.27688,362.12882 -270.08508,360.34973 C -266.55829,359.47728 -263.83508,359.21738 -263.83508,359.75323 C -263.83508,360.30829 -262.01337,360.42965 -259.45047,360.04532 L -255.06585,359.38781 L -254.9949,364.73405 C -254.95587,367.67448 -255.62279,373.46941 -256.47693,377.61166 C -257.69239,383.50619 -257.7912,386.02952 -256.93158,389.22191 C -255.46176,394.68041 -248.49029,402.58029 -245.1431,402.58029 C -243.36787,402.58029 -242.78347,403.00342 -243.16946,404.00928 C -243.47105,404.79522 -244.01124,407.00238 -244.36988,408.91409 C -244.9504,412.00852 -245.49919,412.51009 -249.37133,413.4851 C -254.67582,414.82079 -254.52174,414.8293 -258.83508,412.9622 z M -274.14615,383.08029 C -271.71609,373.80374 -272.56324,373.4435 -280.13421,380.53394 C -287.63413,387.55783 -287.59638,388.79271 -279.89551,388.34081 C -275.46698,388.08094 -275.45268,388.06785 -274.14615,383.08029 z M -232.56202,400.83029 C -232.11429,394.91779 -231.70947,388.95529 -231.6624,387.58029 C -231.51343,383.22854 -228.53855,370.13009 -227.41449,368.87663 C -226.82081,368.21462 -224.45724,367.37515 -222.16209,367.01114 L -217.98911,366.3493 L -218.82826,370.2148 C -220.64522,378.58451 -222.02082,390.61031 -221.74496,395.71332 C -221.5854,398.66515 -221.79728,402.9474 -222.21582,405.22942 C -222.92601,409.10167 -223.26854,409.45201 -227.34876,410.47942 C -229.75334,411.0849 -232.09317,411.58029 -232.54839,411.58029 C -233.00361,411.58029 -233.00974,406.74279 -232.56202,400.83029 z M -328.4586,393.27267 C -327.91708,377.64792 -328.03143,375.56979 -329.47722,374.76068 C -330.97406,373.92301 -330.97795,373.41363 -329.52525,368.46478 C -328.65594,365.50331 -326.82661,359.03029 -325.46007,354.08029 C -320.68558,336.78568 -317.97557,333.0234 -308.64226,330.73227 C -299.63578,328.52138 -296.51182,329.43 -293.57449,335.11485 C -290.84449,340.39839 -290.55583,344.96159 -292.3642,354.24683 C -293.65208,360.85953 -294.87029,364.13591 -297.20984,367.2792 C -300.00621,371.03626 -301.08252,371.65692 -307.43798,373.17736 L -314.54089,374.87662 L -314.05675,384.13249 C -313.70166,390.9211 -314.03783,395.28675 -315.3179,400.51018 C -317.2166,408.25801 -318.0552,409.11213 -324.82659,410.19492 L -329.06859,410.87324 L -328.4586,393.27267 z M -304.89615,361.44903 C -302.90779,358.75962 -302.65522,357.50041 -303.10632,352.5256 C -303.63558,346.68887 -306.10414,341.07476 -308.55484,340.13433 C -310.05124,339.56011 -313.11788,342.26891 -314.21852,345.13713 C -314.62038,346.18436 -314.64046,350.98748 -314.26314,355.81073 L -313.57711,364.58029 L -310.39415,364.58029 C -307.98744,364.58029 -306.64662,363.81665 -304.89615,361.44903 z M -227.83508,356.72397 C -227.83508,356.17886 -227.30694,353.44484 -226.66144,350.64837 C -225.40618,345.21031 -225.75264,345.44558 -215.66604,343.18184 C -213.08564,342.60272 -213.0243,342.69072 -213.81899,345.83156 C -214.27108,347.61836 -214.91418,350.30166 -215.24809,351.79445 C -215.73444,353.96875 -216.69856,354.72649 -220.09514,355.60397 C -222.42711,356.20642 -225.12258,356.92787 -226.08508,357.2072 C -227.04758,357.48652 -227.83508,357.26907 -227.83508,356.72397 z "
         id="path3447" />
      <path
         style="fill:#6f8d9f"
         d="M -165.05887,421.26942 C -167.42407,419.10298 -168.91477,416.6724 -169.37154,414.23764 C -170.0709,410.50973 -169.35768,389.2036 -168.23831,380.38428 L -167.64228,375.68827 L -170.98868,376.53723 C -172.8292,377.00416 -175.46008,377.63525 -176.83508,377.93966 L -179.33508,378.49314 L -179.28741,391.78672 C -179.26119,399.09818 -179.59542,406.69123 -180.03014,408.66015 C -180.74369,411.89193 -181.26025,412.34063 -185.34272,413.27483 C -190.86133,414.53767 -190.60259,415.28258 -191.14162,396.58029 C -191.35562,389.15529 -191.8926,382.23999 -192.33491,381.21295 C -193.08531,379.47054 -193.22821,379.50399 -194.4709,381.71295 C -195.20339,383.01499 -196.91256,387.45529 -198.26906,391.58029 C -204.68445,411.08891 -203.99833,409.86369 -209.2593,411.20578 L -214.00685,412.41689 L -213.65716,391.06811 C -213.46483,379.32629 -213.08868,369.51562 -212.82127,369.26663 C -212.55387,369.01764 -210.84432,368.49439 -209.02227,368.10386 L -205.70947,367.39379 L -206.38356,370.98704 C -206.75432,372.96333 -206.75265,376.20616 -206.37985,378.19334 L -205.70204,381.80639 L -202.84589,375.76706 C -199.54932,368.79648 -197.53959,367.24953 -189.5037,365.49721 C -182.84077,364.04428 -182.28109,364.40536 -181.2031,370.85245 C -180.26948,376.43615 -179.28687,376.17697 -177.90034,369.9813 C -177.2197,366.93986 -176.13907,364.27763 -175.49894,364.06522 C -174.85882,363.85282 -172.45175,363.19733 -170.14991,362.60857 C -166.20539,361.59967 -165.87513,361.22987 -164.40637,356.17752 C -163.23952,352.16369 -162.28111,350.66502 -160.59154,350.21227 C -156.37331,349.0819 -156.18996,349.33833 -156.65174,355.72236 L -157.09601,361.86442 L -149.71555,361.19131 C -145.65629,360.8211 -140.4789,360.26452 -138.21023,359.95447 L -134.08538,359.39074 L -135.06877,364.36431 L -136.05217,369.33789 L -143.69363,370.92756 C -147.89643,371.80188 -152.95388,372.79362 -154.93241,373.13141 C -158.28932,373.70454 -158.60678,374.07933 -159.68241,378.73923 C -161.83185,388.05109 -160.61656,403.93807 -157.35947,409.10614 C -156.65725,410.22036 -154.46585,412.00273 -152.48969,413.06696 C -148.91268,414.99331 -148.88406,414.99262 -146.07246,412.91391 C -144.51915,411.7655 -141.39578,410.51292 -139.13163,410.13039 L -135.01501,409.43489 L -135.97984,413.72906 C -136.5105,416.09085 -137.03252,418.05976 -137.13988,418.10441 C -137.24724,418.14907 -138.56037,418.95179 -140.05795,419.88823 C -143.15169,421.82275 -153.81465,424.54337 -158.38966,424.56551 C -160.4664,424.57556 -162.60137,423.5204 -165.05887,421.26942 z M -258.34095,413.21477 C -261.57451,411.78119 -267.6405,404.82765 -269.61357,400.29278 C -270.59081,398.04671 -271.171,397.6897 -272.60055,398.45477 C -273.57635,398.977 -277.84863,400.12184 -282.09452,400.99885 C -289.89843,402.61079 -296.08291,402.12357 -300.9618,399.51247 C -303.23226,398.29736 -303.26707,397.39797 -301.30007,390.77435 C -300.00338,386.40792 -297.98332,383.75736 -288.28877,373.70202 C -275.62018,360.56196 -275.31434,360.40195 -262.22677,360.06695 L -255.11846,359.885 L -255.32977,366.48265 C -255.44598,370.11135 -256.13959,375.85564 -256.8711,379.24773 C -257.9486,384.24418 -257.96334,386.20884 -256.94871,389.59535 C -255.3955,394.77953 -248.42848,402.58029 -245.35161,402.58029 C -243.21818,402.58029 -243.16427,402.78975 -244.0912,407.47774 C -244.92712,411.70544 -245.4385,412.45097 -247.83065,412.9294 C -249.35476,413.23422 -251.66675,413.72297 -252.96842,414.01551 C -254.27008,414.30805 -256.68772,413.94771 -258.34095,413.21477 z M -275.21945,388.18961 C -274.50468,387.51381 -272.34361,374.58029 -272.94547,374.58029 C -274.49932,374.58029 -286.92012,386.89511 -286.12918,387.65152 C -284.67005,389.04692 -276.5498,389.44744 -275.21945,388.18961 z M -232.49384,401.9966 C -231.62738,388.78586 -230.16379,376.91987 -228.83816,372.35826 C -227.91133,369.16896 -227.17517,368.47968 -223.69486,367.54253 C -221.46094,366.941 -219.45498,366.62705 -219.23717,366.84487 C -219.01935,367.06268 -219.35794,370.80476 -219.98958,375.16059 C -220.62122,379.51643 -221.24934,387.20751 -221.38541,392.2519 C -221.52147,397.29628 -221.93542,403.21473 -222.3053,405.404 C -222.90917,408.97828 -223.33493,409.45148 -226.47745,410.04102 C -228.40226,410.40212 -230.68971,410.97101 -231.56067,411.30523 C -232.96576,411.84442 -233.07093,410.7953 -232.49384,401.9966 z M -328.25167,409.71526 C -328.58551,409.17509 -328.58806,401.04874 -328.25734,391.65671 C -327.71249,376.18365 -327.8116,374.58029 -329.31294,374.58029 C -330.42235,374.58029 -330.79806,374.00202 -330.44996,372.83029 C -330.16401,371.86779 -329.6349,369.84279 -329.27416,368.33029 C -328.91342,366.81779 -328.21705,365.58029 -327.72667,365.58029 C -327.2363,365.58029 -326.83508,364.11636 -326.83508,362.32711 C -326.83508,358.39653 -323.94419,348.00987 -320.854,340.83772 C -318.1562,334.5763 -314.8564,332.26428 -306.03157,330.45231 C -299.0921,329.02745 -297.79398,329.41535 -294.43197,333.91839 C -289.99642,339.85933 -291.47912,358.38114 -297.05492,366.68417 C -299.94899,370.99379 -300.60487,371.39608 -307.31687,372.97844 L -314.48715,374.66883 L -314.55489,385.47037 C -314.63941,398.94687 -316.3768,407.45856 -319.26506,408.54607 C -323.47551,410.13142 -327.65815,410.67559 -328.25167,409.71526 z M -304.90317,361.67592 C -302.35884,358.10273 -302.16924,351.28485 -304.45533,345.57135 C -306.58729,340.24305 -309.38013,338.68089 -312.03239,341.33315 C -314.47748,343.77825 -315.28709,349.53518 -314.37872,358.01739 L -313.67589,364.58029 L -310.32358,364.58029 C -307.76469,364.58029 -306.48179,363.89288 -304.90317,361.67592 z M -227.42814,355.2422 C -227.10137,354.05315 -226.55855,351.4354 -226.22188,349.42498 C -225.63611,345.9271 -225.35617,345.70579 -219.72241,344.28664 C -213.02248,342.59892 -213.04789,342.56843 -214.92875,350.038 C -216.00016,354.29297 -216.1445,354.4121 -222.02234,355.89273 C -228.01576,357.40248 -228.02163,357.40177 -227.42814,355.2422 z "
         id="path3445" />
      <path
         style="fill:#557a91"
         d="M -163.14015,422.71759 C -168.86311,418.94415 -169.33947,417.34468 -169.28644,402.08029 C -169.25969,394.38029 -168.86605,385.33798 -168.4117,381.98627 L -167.58559,375.89225 L -173.46034,377.06933 L -179.33508,378.24642 L -179.42029,391.66336 C -179.51628,406.77619 -180.30297,412.58029 -182.25539,412.58029 C -182.98672,412.58029 -184.91655,412.84659 -186.54391,413.17206 L -189.50274,413.76382 L -190.56115,397.57981 C -191.14328,388.67861 -192.04298,380.97239 -192.56049,380.45488 C -193.74132,379.27405 -195.66912,383.54978 -200.72618,398.56579 C -204.79248,410.63995 -205.27288,411.20713 -211.66492,411.48061 L -213.99476,411.58029 L -213.58906,390.58776 C -213.36592,379.04187 -212.9925,369.41944 -212.75922,369.20458 C -212.52594,368.98972 -210.91176,368.50921 -209.17214,368.13677 L -206.00921,367.45962 L -206.54532,371.45662 C -206.84018,373.65496 -206.7653,377.13869 -206.37893,379.19823 L -205.67644,382.94285 L -203.29167,377.07526 C -201.98005,373.84808 -200.07125,370.37201 -199.04989,369.35066 C -197.3932,367.69396 -188.37069,364.62311 -185.0689,364.59216 C -183.72174,364.57953 -181.41546,369.12461 -180.25439,374.08029 C -179.60707,376.84318 -179.42441,376.56667 -177.9433,370.58171 L -176.33508,364.08314 L -171.83508,363.08171 C -165.77352,361.73278 -165.1115,361.17589 -164.37298,356.8046 C -163.52519,351.78656 -162.88195,350.95011 -159.26844,350.16674 L -156.20179,349.50192 L -156.64934,355.68925 L -157.09689,361.87657 L -148.23743,361.15772 C -143.36473,360.76235 -138.18275,360.19982 -136.72193,359.90766 L -134.0659,359.37645 L -135.14122,364.07564 C -136.38231,369.4992 -136.46268,369.5437 -149.53804,372.04771 L -158.741,373.81013 L -159.91168,379.44521 C -161.20539,385.67249 -160.63554,399.83392 -158.84913,405.85099 C -158.06251,408.50051 -156.52247,410.42056 -153.66973,412.30841 L -149.60981,414.99514 L -145.91623,412.86938 C -143.88475,411.70021 -140.6137,410.44178 -138.64721,410.07287 L -135.07177,409.40211 L -136.08623,413.83532 C -137.26678,418.99434 -139.89054,420.82171 -149.3653,423.08378 C -157.32116,424.98322 -159.8041,424.91721 -163.14015,422.71759 z M -258.33508,413.11878 C -261.922,411.56214 -268.46846,403.88921 -269.40987,400.13831 C -269.90466,398.16693 -270.51073,397.63813 -271.70846,398.13276 C -276.29379,400.0264 -283.93736,401.55724 -288.83508,401.56284 C -294.70078,401.56955 -301.39833,400.09598 -302.32626,398.59456 C -303.57162,396.57952 -300.25752,387.84443 -296.26308,382.61362 C -293.93907,379.57029 -288.50455,373.6764 -284.18635,369.5161 C -277.12511,362.71305 -275.73532,361.82063 -270.37468,360.64729 C -266.3819,359.77336 -264.30058,359.68379 -264.06986,360.37596 C -263.84292,361.05676 -262.63774,361.09729 -260.53686,360.49476 C -258.78314,359.9918 -256.84843,359.58029 -256.23749,359.58029 C -254.74246,359.58029 -255.30548,372.34206 -257.12553,379.709 C -258.38427,384.804 -258.34353,385.8004 -256.69589,390.21728 C -254.524,396.03952 -248.52652,402.58029 -245.35977,402.58029 C -243.20346,402.58029 -243.1551,402.76628 -244.16455,407.17756 C -244.88296,410.31704 -245.86954,412.01392 -247.27582,412.52884 C -251.74003,414.16343 -255.46951,414.36238 -258.33508,413.11878 z M -275.76934,388.54511 C -274.58909,387.91346 -273.83291,386.45163 -273.8295,384.79511 C -273.82644,383.30196 -273.34363,380.35059 -272.75661,378.23652 C -272.16958,376.12244 -271.89532,374.18672 -272.14713,373.93491 C -272.39894,373.6831 -276.01742,376.64114 -280.1882,380.50834 L -287.77142,387.5396 L -284.55325,388.46976 C -280.14748,389.74317 -278.04169,389.76123 -275.76934,388.54511 z M -232.84169,405.84934 C -232.85026,398.36934 -229.63545,374.01417 -228.08872,369.84115 C -227.64208,368.63611 -220.02686,366.05518 -219.23991,366.84213 C -219.0236,367.05844 -219.34262,370.57552 -219.94885,374.65785 C -220.55507,378.74019 -221.20901,386.35529 -221.40205,391.58029 C -222.03324,408.66543 -222.20368,409.04568 -230.08508,410.95292 L -232.83508,411.61839 L -232.84169,405.84934 z M -327.99634,405.90974 C -328.08503,403.25354 -328.03049,395.11779 -327.87515,387.83029 C -327.6219,375.95002 -327.76726,374.58029 -329.28128,374.58029 C -330.42084,374.58029 -330.80082,374.0113 -330.44996,372.83029 C -330.16401,371.86779 -329.6349,369.84279 -329.27416,368.33029 C -328.91342,366.81779 -328.21705,365.58029 -327.72667,365.58029 C -327.2363,365.58029 -326.83508,364.11636 -326.83508,362.32711 C -326.83508,355.04755 -320.71008,338.59074 -316.57963,334.7725 C -314.04415,332.42866 -305.44772,329.61376 -300.75939,329.59216 C -297.8523,329.57876 -294.48976,332.70403 -292.90169,336.89539 C -290.11723,344.24439 -292.77657,361.45825 -297.6262,367.47706 C -300.01301,370.43929 -301.80194,371.41689 -307.68228,372.9724 L -314.83508,374.86451 L -314.83508,386.14611 C -314.83508,392.35099 -315.37262,399.75646 -316.02961,402.60271 C -317.27499,407.99797 -317.95783,408.59095 -324.58508,410.03234 L -327.83508,410.7392 L -327.99634,405.90974 z M -304.3942,361.06892 C -302.02707,357.96544 -301.7982,357.00901 -302.42406,352.83553 C -303.39837,346.3383 -305.42113,341.8722 -308.01925,340.48172 C -309.91416,339.4676 -310.51623,339.67085 -312.5209,342.00142 C -314.6043,344.42352 -314.83508,345.68351 -314.83508,354.63605 L -314.83508,364.58029 L -310.95377,364.58029 C -307.69075,364.58029 -306.64581,364.02093 -304.3942,361.06892 z M -227.37255,354.87358 C -227.02378,353.48394 -226.47572,351.03348 -226.15464,349.42811 C -225.83357,347.82274 -224.84282,346.1275 -223.95298,345.6609 C -221.91433,344.59193 -213.83508,343.2203 -213.83508,343.94317 C -213.83508,344.23944 -214.31194,346.70538 -214.89478,349.42304 L -215.95447,354.36423 L -221.98058,355.88221 L -228.00669,357.40019 L -227.37255,354.87358 z "
         id="path3443" />
      <path
         style="fill:#31627e"
         d="M -164.15309,421.60593 C -166.23076,419.78171 -168.22269,416.84532 -168.80521,414.74802 C -170.25768,409.51861 -170.03921,393.46222 -168.38808,384.09094 C -167.61388,379.6968 -167.10536,375.97668 -167.25804,375.824 C -167.41072,375.67131 -169.85116,376.08088 -172.68123,376.73414 C -175.51131,377.3874 -178.11754,377.63117 -178.47285,377.27585 C -178.82817,376.92054 -178.54371,373.91951 -177.84073,370.60691 C -176.58817,364.70457 -176.48023,364.5635 -172.44883,363.5601 C -166.32462,362.03579 -165.64403,361.42334 -164.07834,356.02773 C -162.38581,350.19495 -163.00306,350.95714 -159.33508,350.17071 L -156.33508,349.52751 L -156.6739,355.5539 L -157.01272,361.58029 L -152.6739,361.52894 C -150.28755,361.5007 -145.25359,361.13529 -141.48733,360.71692 L -134.63958,359.95625 L -135.28852,364.01827 C -135.64543,366.25238 -136.25192,368.38941 -136.63627,368.76722 C -137.19093,369.31244 -156.24404,373.58029 -158.12345,373.58029 C -159.262,373.58029 -160.83508,383.09057 -160.83508,389.97389 C -160.83508,401.38121 -159.2067,407.47807 -155.13112,411.33029 C -151.19038,415.05506 -148.87595,415.36559 -145.04459,412.68363 C -143.55436,411.64047 -140.82274,410.51675 -138.97432,410.18648 L -135.61357,409.58599 L -136.29292,413.33314 C -136.66657,415.39407 -137.95391,417.8667 -139.15368,418.82786 C -141.73883,420.89888 -149.20434,423.29508 -155.7958,424.16947 C -160.11168,424.74199 -160.8335,424.52058 -164.15309,421.60593 z M -257.41563,413.41871 C -260.94008,412.49453 -268.36787,404.28999 -269.3988,400.18242 C -269.94283,398.01484 -270.46437,397.64616 -272.20116,398.20141 C -283.27627,401.74212 -291.82469,402.48699 -297.93586,400.44381 C -302.96051,398.76389 -303.1782,398.27105 -301.47554,392.43027 C -300.27767,388.32111 -298.09193,384.99291 -292.0514,378.08029 C -281.42234,365.91665 -276.59172,362.12275 -269.90833,360.68942 C -266.27645,359.91052 -264.27937,359.86141 -263.85956,360.54068 C -263.44036,361.21896 -262.093,361.22785 -259.79056,360.56752 C -257.89731,360.02454 -256.09899,359.58029 -255.79429,359.58029 C -254.93631,359.58029 -255.89602,372.38856 -257.2554,379.08029 C -258.05035,382.99353 -258.16317,386.27276 -257.57978,388.50897 C -256.21287,393.7485 -251.02196,400.60426 -247.21839,402.19349 C -243.76882,403.63482 -243.38582,404.75674 -244.71632,409.52299 C -245.55275,412.51933 -252.60048,414.68134 -257.41563,413.41871 z M -275.76934,388.54511 C -274.58909,387.91346 -273.83291,386.45163 -273.8295,384.79511 C -273.82644,383.30196 -273.34363,380.35059 -272.75661,378.23652 C -272.16958,376.12244 -271.87147,374.21057 -272.09413,373.9879 C -272.65864,373.42339 -286.86947,385.85227 -287.0636,387.08029 C -287.36597,388.99295 -278.70502,390.11624 -275.76934,388.54511 z M -189.84263,404.44158 C -189.84955,395.87574 -191.04375,384.93443 -192.49208,380.1674 C -193.30355,377.49649 -193.8721,378.68591 -199.43756,394.69752 C -201.996,402.05804 -204.59458,408.60996 -205.21217,409.25735 C -205.82977,409.90473 -208.02473,410.74271 -210.08985,411.11953 L -213.84462,411.80466 L -213.47285,391.12548 C -213.26838,379.75193 -212.70374,370.08454 -212.21808,369.6424 C -211.73243,369.20026 -210.18968,368.56995 -208.78974,368.24171 L -206.24441,367.64492 L -206.66124,374.19111 C -207.1022,381.1162 -205.62854,384.87782 -204.39696,379.97083 C -203.19251,375.17192 -198.87188,368.8358 -196.05349,367.7353 C -190.24621,365.46773 -184.59054,364.42483 -183.58013,365.43524 C -180.66169,368.35368 -179.00384,386.45148 -179.75984,407.13916 C -179.87803,410.37326 -182.01515,412.39695 -186.08508,413.12867 L -189.83508,413.80287 L -189.84263,404.44158 z M -232.47687,402.76106 C -231.48158,388.9972 -230.18425,378.4582 -228.86605,373.42804 C -227.74163,369.13737 -227.32639,368.69445 -223.52325,367.72911 C -221.25525,367.15343 -219.30313,366.7789 -219.18521,366.89683 C -219.06728,367.01475 -219.43929,370.25427 -220.01188,374.09576 C -220.58448,377.93725 -221.23117,386.03029 -221.44896,392.08029 C -222.01117,407.69727 -222.39231,408.70909 -228.2783,410.21062 L -233.1046,411.44182 L -232.47687,402.76106 z M -327.83508,392.59934 C -327.83508,378.06524 -328.09835,374.58029 -329.19635,374.58029 C -330.29559,374.58029 -330.35941,373.7141 -329.52787,370.08029 C -328.96151,367.60529 -328.12394,365.58029 -327.6666,365.58029 C -327.20927,365.58029 -326.83508,364.33375 -326.83508,362.81019 C -326.83508,358.98434 -323.31275,346.62594 -320.59027,340.89972 C -317.83156,335.0973 -313.84449,332.28 -306.05094,330.6261 C -298.69312,329.06466 -296.44025,330.0343 -293.77203,335.91097 C -288.41971,347.69928 -294.7882,370.12091 -304.01281,371.96584 C -305.78013,372.3193 -308.93814,373.0695 -311.0306,373.63294 L -314.83508,374.65738 L -314.87745,385.86883 C -314.90075,392.03513 -315.49169,399.53052 -316.19065,402.52524 C -317.52084,408.22456 -317.24485,407.99457 -325.08508,409.93706 L -327.83508,410.61839 L -327.83508,392.59934 z M -304.2769,361.0929 C -301.71798,357.73798 -301.65808,357.37196 -302.69995,351.45714 C -304.54547,340.97998 -308.41622,337.22945 -312.49266,341.96859 C -314.60962,344.4297 -314.83508,345.64898 -314.83508,354.63605 L -314.83508,364.58029 L -310.88597,364.58029 C -307.55058,364.58029 -306.52348,364.03832 -304.2769,361.0929 z M -226.36907,351.33029 C -225.19598,346.10941 -225.16063,346.07253 -219.9949,344.68098 C -217.1379,343.91136 -214.57555,343.50649 -214.30077,343.78126 C -214.026,344.05604 -214.3216,346.53544 -214.95767,349.29103 C -216.09655,354.22492 -216.18934,354.31857 -221.05091,355.44075 C -223.76612,356.0675 -226.33889,356.58029 -226.76818,356.58029 C -227.19746,356.58029 -227.01786,354.21779 -226.36907,351.33029 z "
         id="path3441" />
    </g>
  </g>
</svg>
