<?xml version="1.0" encoding="UTF-8" standalone="no"?>
<!DOCTYPE svg PUBLIC "-//W3C//DTD SVG 20010904//EN"
"http://www.w3.org/TR/2001/REC-SVG-20010904/DTD/svg10.dtd">
<!-- Created with Inkscape (http://www.inkscape.org/) -->
<svg
   id="svg1"
   sodipodi:version="0.32"
   inkscape:version="0.39"
   width="400.00000pt"
   height="400.00000pt"
   sodipodi:docbase="/trex/docs/sarah/graphics"
   sodipodi:docname="apple-core.svg"
   xmlns="http://www.w3.org/2000/svg"
   xmlns:cc="http://web.resource.org/cc/"
   xmlns:inkscape="http://www.inkscape.org/namespaces/inkscape"
   xmlns:sodipodi="http://sodipodi.sourceforge.net/DTD/sodipodi-0.dtd"
   xmlns:rdf="http://www.w3.org/1999/02/22-rdf-syntax-ns#"
   xmlns:dc="http://purl.org/dc/elements/1.1/"
   xmlns:xlink="http://www.w3.org/1999/xlink">
  <defs
     id="defs3">
    <linearGradient
       id="linearGradient855">
      <stop
         style="stop-color:#ffffff;stop-opacity:0.0000000;"
         offset="0.0000000"
         id="stop856" />
      <stop
         style="stop-color:#ffa617;stop-opacity:0.73333335;"
         offset="1.0000000"
         id="stop857" />
    </linearGradient>
    <linearGradient
       id="linearGradient829">
      <stop
         style="stop-color:#ffffff;stop-opacity:0.34166667;"
         offset="0.0000000"
         id="stop830" />
      <stop
         style="stop-color:#ffffff;stop-opacity:0.0000000;"
         offset="1.0000000"
         id="stop831" />
    </linearGradient>
    <radialGradient
       xlink:href="#linearGradient829"
       id="radialGradient832"
       cx="0.50000000"
       cy="0.50000000"
       r="0.50000000"
       fx="0.50000000"
       fy="0.50000000" />
    <linearGradient
       xlink:href="#linearGradient855"
       id="linearGradient850"
       x1="0.84821427"
       y1="0.094999999"
       x2="0.83035713"
       y2="1.4850000"
       spreadMethod="pad" />
    <linearGradient
       xlink:href="#linearGradient855"
       id="linearGradient854"
       x1="0.55147058"
       y1="-0.14843750"
       x2="0.51470590"
       y2="1.5468750" />
    <radialGradient
       xlink:href="#linearGradient829"
       id="radialGradient874"
       cx="0.50000000"
       cy="0.50000000"
       r="0.50000000"
       fx="0.50000000"
       fy="0.50000000" />
    <linearGradient
       xlink:href="#linearGradient829"
       id="linearGradient875"
       x1="2.2527011e-16"
       y1="0.50000000"
       x2="1.0000000"
       y2="0.50000000" />
  </defs>
  <sodipodi:namedview
     id="base"
     pagecolor="#ffffff"
     bordercolor="#666666"
     borderopacity="1.0"
     inkscape:pageopacity="0.0"
     inkscape:pageshadow="2"
     inkscape:zoom="1.4142136"
     inkscape:cx="207.48959"
     inkscape:cy="202.69614"
     inkscape:window-width="913"
     inkscape:window-height="759"
     showgrid="true"
     inkscape:window-x="146"
     inkscape:window-y="23"
     showguides="true"
     inkscape:guide-bbox="true" />
  <path
     style="fill:#dfddb8;fill-rule:evenodd;stroke:#000000;stroke-width:10.000000;stroke-linejoin:round;fill-opacity:1.0000000;"
     d="M 295.63023,99.977647 C 313.01051,101.64032 323.01389,100.23329 337.83369,107.57241 C 352.65348,114.91152 355.49592,107.13191 367.39314,119.03037 C 379.29036,130.92882 386.98412,120.07893 395.59667,135.41962 C 375.59615,143.08997 336.92821,172.59502 327.42275,184.96436 C 316.69782,198.92057 311.48328,219.24411 333.85356,226.75120 C 305.71995,235.40315 305.10997,261.39745 335.31450,276.89866 C 305.89251,281.35589 313.32711,317.49359 338.92897,330.85478 C 318.53812,345.20278 317.41629,364.71295 341.17811,372.23969 C 325.12756,386.86111 348.17802,407.12952 385.77923,409.78299 C 376.53463,423.92695 359.78130,430.15509 357.92768,434.30275 C 340.49770,441.31779 120.40805,419.31514 103.73092,397.70048 C 116.57640,396.05332 137.94539,391.17444 146.72638,383.16458 C 155.50737,375.15472 205.23879,360.01287 182.63598,345.18531 C 198.92405,328.58999 190.33701,288.00212 173.90228,293.01533 C 180.44852,275.93146 196.10176,252.83079 165.39377,233.60266 C 187.71879,220.56172 185.94845,205.46605 163.93803,188.57545 C 187.88955,179.63981 122.65806,151.23156 94.074769,113.33323 C 102.61458,106.37081 116.86666,105.82821 125.66026,103.12638 C 131.14333,101.25588 278.24993,97.483647 295.63023,99.977647 z "
     id="path968"
     sodipodi:nodetypes="csscscccccccsccccccc" />
  <path
     style="fill:#df3511;fill-rule:evenodd;stroke:#000000;stroke-width:10.000000;stroke-dasharray:none;stroke-linejoin:round;stroke-linecap:round;"
     d="M 273.69336,167.94479 C 244.75314,146.06501 228.84067,145.11147 187.38481,156.50514 C 171.56157,136.07902 120.47222,151.86495 91.888927,113.96662 C 100.42874,107.00420 109.37752,102.04218 118.17112,99.340350 C 123.65419,97.469851 129.02087,95.794196 134.21459,94.293901 C 139.40831,92.793605 144.42906,91.468669 149.22028,90.299607 C 154.01150,89.130546 158.57318,88.117359 162.84874,87.240563 C 167.12431,86.363767 171.11376,85.623361 174.76051,84.999862 C 178.40727,84.376363 181.71133,83.869770 184.61613,83.460598 C 187.52093,83.051427 190.02646,82.739677 192.07614,82.505865 C 194.12583,82.272053 195.71967,82.116178 196.80108,82.018756 C 197.88250,81.921335 198.45150,81.882366 198.45150,81.882366 C 198.45150,81.882366 289.32234,63.645581 298.74769,76.746179 C 316.12797,72.221664 349.11232,82.305130 331.22844,95.831427 C 361.19418,88.275846 389.54930,93.623162 382.88497,109.94104 C 405.43687,114.24531 410.43090,141.92552 388.10753,135.16912 C 399.92682,152.56219 374.33388,150.76172 363.24390,161.73290 C 334.84130,189.83123 281.01317,134.14080 274.21529,167.28051 M 223.60604,398.66331 C 212.05402,430.68898 298.43666,422.79876 313.35965,394.08628 C 314.10288,422.84984 348.64383,408.64679 386.24504,411.30026 C 377.00044,425.44422 369.96983,435.20789 368.11621,439.35555 C 358.64118,454.32554 291.97401,465.95822 273.76607,478.42819 C 262.17923,487.57286 184.33042,477.20820 166.17382,465.12687 C 141.34484,442.88871 120.87386,420.83241 104.19673,399.21775 C 117.04221,397.57059 138.41120,392.69171 147.19219,384.68185 C 155.97318,376.67199 188.91082,423.40198 223.76043,399.73558"
     id="path866"
     sodipodi:nodetypes="ccccssssssscccccsccccccccsc" />
  <path
     style="fill:url(#linearGradient850);fill-opacity:0.75000000;fill-rule:evenodd;stroke-width:1.0000000pt;"
     d="M 274.99898,470.93420 C 283.89603,453.68404 291.29300,436.17409 297.64249,419.45650 C 303.99198,402.73892 309.29401,386.81369 314.00117,372.73299 C 318.70833,358.65229 349.61525,393.43837 351.41276,405.66156 C 353.21028,417.88476 355.69318,429.15971 359.41753,437.68088 C 356.31390,439.96705 350.77910,442.61692 343.89940,445.44865 C 337.01970,448.28037 328.79510,451.29395 320.31186,454.30754 C 311.82863,457.32112 303.08676,460.33470 295.17252,463.16643 C 287.25828,465.99816 280.17168,468.64803 274.99898,470.93420 z "
     id="path870"
     sodipodi:nodetypes="cssscsssc" />
  <path
     style="fill:url(#linearGradient854);fill-opacity:0.75000000;fill-rule:evenodd;stroke-width:1.0000000pt;"
     d="M 196.79623,128.43701 C 196.79623,128.43701 176.10541,116.79835 177.76068,110.14769 C 191.83042,115.13568 200.10676,122.61768 205.07255,119.29234 C 210.03836,115.96700 210.03834,128.43701 214.17651,112.64168 C 218.31467,96.846350 229.90155,79.388370 228.24628,96.846350 C 226.59101,117.62967 234.86734,121.78634 252.24763,105.99101 C 269.62791,90.195694 276.24897,94.352360 271.28318,115.13568 C 246.45418,142.56966 191.00280,134.25634 196.79623,128.43701 z "
     id="path873"
     sodipodi:nodetypes="cccccccc" />
  <path
     style="fill:none;fill-opacity:0.75000000;fill-rule:evenodd;stroke:#000000;stroke-width:10.000000;stroke-dasharray:none;stroke-linejoin:round;"
     d="M 163.69092,120.12368 C 239.00550,146.72634 226.59101,133.42500 307.69902,111.81034"
     id="path871"
     sodipodi:nodetypes="cc" />
  <path
     style="fill:#4a2a00;fill-rule:evenodd;stroke:#000000;stroke-width:10.000000;stroke-linejoin:round;stroke-dasharray:none;"
     d="M 225.44369,132.32102 C 222.13315,112.36903 260.51513,21.083243 272.10198,19.420588 C 279.55068,18.589246 312.65233,35.528439 293.20689,46.135041 C 293.20689,54.973876 285.75820,44.472373 280.79240,47.797710 C 269.20555,60.267703 249.84861,99.235250 243.22756,129.99458 L 225.44369,132.32102 z "
     id="path867"
     sodipodi:nodetypes="cccccc" />
  
  <path
     style="fill:none;fill-opacity:0.75000000;fill-rule:evenodd;stroke:#000000;stroke-width:5.0000000;stroke-linecap:round;stroke-linejoin:round;stroke-opacity:1.0000000;stroke-miterlimit:4.0000000;stroke-dasharray:none;"
     d="M 302.28815,184.45360 C 291.09229,195.35483 284.29209,204.72498 281.95883,233.06719 C 280.65934,248.85209 283.13734,265.47625 283.72660,281.68078"
     id="path2212"
     sodipodi:nodetypes="css" />
  <path
     style="fill:none;fill-opacity:0.75000000;fill-rule:evenodd;stroke:#000000;stroke-width:5.0000000;stroke-linecap:round;stroke-linejoin:round;stroke-miterlimit:4.0000000;stroke-opacity:1.0000000;"
     d="M 224.25036,324.10719 C 226.48640,340.77597 222.77722,353.86460 208.34046,372.72078"
     id="path2834"
     sodipodi:nodetypes="cs" />
  <path
     style="fill:none;fill-opacity:0.75000000;fill-rule:evenodd;stroke:#000000;stroke-width:5.0000000;stroke-linecap:round;stroke-linejoin:miter;stroke-opacity:1.0000000;stroke-miterlimit:4.0000000;stroke-dasharray:none;"
     d="M 246.60349,172.07923 C 246.30886,205.07755 244.52054,215.62422 240.41631,233.06719 C 237.44947,245.67626 227.55137,252.02082 228.04194,267.53864 C 228.66026,287.09742 237.02695,292.35350 240.41630,307.31340 C 245.57116,330.06587 250.72828,343.84725 251.02291,382.44350 C 250.72828,342.07949 251.83275,336.69816 255.44232,314.38447 C 258.31456,296.62877 268.86385,285.56632 268.70057,268.42252 C 268.56922,254.63040 258.55859,235.50313 254.55844,221.57670 C 250.60364,207.80812 249.25514,218.04117 246.60349,172.07923 z "
     id="path2835"
     sodipodi:nodetypes="cssscsssc" />
  <path
     sodipodi:type="arc"
     style="fill:#000000;fill-opacity:0.75000000;fill-rule:evenodd;stroke:#000000;stroke-width:1.0000000pt;stroke-linecap:butt;stroke-linejoin:miter;stroke-opacity:1.0000000;"
     id="path3457"
     sodipodi:cx="19.887379"
     sodipodi:cy="109.76544"
     sodipodi:rx="5.7452426"
     sodipodi:ry="12.816311"
     d="M 25.632621 109.76544 A 5.7452426 12.816311 0 1 0 14.142136,109.76544 A 5.7452426 12.816311 0 1 0 25.632621 109.76544 z"
     transform="translate(218.3192,158.2151)" />
  <path
     sodipodi:type="arc"
     style="fill:#000000;fill-opacity:0.75000000;fill-rule:evenodd;stroke:#000000;stroke-width:1.0000000pt;stroke-linecap:butt;stroke-linejoin:miter;stroke-opacity:1.0000000;"
     id="path4079"
     sodipodi:cx="19.887379"
     sodipodi:cy="109.76544"
     sodipodi:rx="5.7452426"
     sodipodi:ry="12.816311"
     d="M 25.632621 109.76544 A 5.7452426 12.816311 0 1 0 14.142136,109.76544 A 5.7452426 12.816311 0 1 0 25.632621 109.76544 z"
     transform="translate(239.0905,156.8893)" />
  <path
     style="fill:none;fill-opacity:0.75000000;fill-rule:evenodd;stroke:#000000;stroke-width:1.0000000pt;stroke-linecap:butt;stroke-linejoin:miter;stroke-opacity:1.0000000;"
     d="M 247.48737,218.92505 L 248.37126,320.57165"
     id="path4080" />

  <metadata>
    <rdf:RDF 
     xmlns="http://web.resource.org/cc/"
     xmlns:dc="http://purl.org/dc/elements/1.1/"
     xmlns:rdf="http://www.w3.org/1999/02/22-rdf-syntax-ns#">
      <Work rdf:about="">
        <dc:title>Apple Core</dc:title>
	<dc:description>This apple has almost finished being eaten.</dc:description>
        <dc:subject>
food, fruit, trash
        </dc:subject>
        <dc:publisher>
           <Agent rdf:about="http://www.openclipart.org">
             <dc:title>HASH(0x893e184)</dc:title>
           </Agent>
         </dc:publisher>
         <dc:creator>
           <Agent rdf:about="">
             <dc:title>Nicu Buculei and Nathan Eady</dc:title>
           </Agent>
        </dc:creator>
         <dc:rights>
           <Agent rdf:about="">
             <dc:title>Nicu Buculei and Nathan Eady</dc:title>
           </Agent>
        </dc:rights>
        <dc:date></dc:date>
        <dc:format>image/svg+xml</dc:format>
        <dc:type rdf:resource="http://purl.org/dc/dcmitype/StillImage" />
        <license rdf:resource="Public Domain">
	  <dc:date>7</dc:date>
	</license>
        <dc:language>en</dc:language>
      </Work>

      <License rdf:about="Public Domain">
         <permits rdf:resource="http://web.resource.org/cc/Reproduction" />
         <permits rdf:resource="http://web.resource.org/cc/Distribution" />
         <permits rdf:resource="http://web.resource.org/cc/DerivativeWorks" />
      </License>


    </rdf:RDF>
  </metadata>
</svg>
