<?xml version="1.0" encoding="UTF-8" standalone="no"?>
<!DOCTYPE svg PUBLIC "-//W3C//DTD SVG 20010904//EN"
"http://www.w3.org/TR/2001/REC-SVG-20010904/DTD/svg10.dtd">
<!-- Created with Inkscape (http://www.inkscape.org/) -->
<svg
   id="svg1"
   sodipodi:version="0.32"
   inkscape:version="0.38.1"
   width="400.00000pt"
   height="450.00000pt"
   sodipodi:docbase="/var/www/html/svg_gallery/svg/fruits"
   sodipodi:docname="apple.svg"
   xmlns="http://www.w3.org/2000/svg"
   xmlns:inkscape="http://www.inkscape.org/namespaces/inkscape"
   xmlns:sodipodi="http://sodipodi.sourceforge.net/DTD/sodipodi-0.dtd"
   xmlns:xlink="http://www.w3.org/1999/xlink">
  <defs
     id="defs3">
    <linearGradient
       id="linearGradient855">
      <stop
         style="stop-color:#ffffff;stop-opacity:0.0000000;"
         offset="0.0000000"
         id="stop856" />
      <stop
         style="stop-color:#ffa617;stop-opacity:0.73333335;"
         offset="1.0000000"
         id="stop857" />
    </linearGradient>
    <linearGradient
       id="linearGradient829">
      <stop
         style="stop-color:#ffffff;stop-opacity:0.34166667;"
         offset="0.0000000"
         id="stop830" />
      <stop
         style="stop-color:#ffffff;stop-opacity:0.0000000;"
         offset="1.0000000"
         id="stop831" />
    </linearGradient>
    <radialGradient
       xlink:href="#linearGradient829"
       id="radialGradient832"
       cx="0.50000000"
       cy="0.50000000"
       r="0.50000000"
       fx="0.50000000"
       fy="0.50000000" />
    <linearGradient
       xlink:href="#linearGradient855"
       id="linearGradient850"
       x1="0.84821427"
       y1="0.094999999"
       x2="0.83035713"
       y2="1.4850000"
       spreadMethod="pad" />
    <linearGradient
       xlink:href="#linearGradient855"
       id="linearGradient854"
       x1="0.55147058"
       y1="-0.14843750"
       x2="0.51470590"
       y2="1.5468750" />
    <radialGradient
       xlink:href="#linearGradient829"
       id="radialGradient874"
       cx="0.50000000"
       cy="0.50000000"
       r="0.50000000"
       fx="0.50000000"
       fy="0.50000000" />
    <linearGradient
       xlink:href="#linearGradient829"
       id="linearGradient875"
       x1="2.2527011e-16"
       y1="0.50000000"
       x2="1.0000000"
       y2="0.50000000" />
  </defs>
  <sodipodi:namedview
     id="base"
     pagecolor="#ffffff"
     bordercolor="#666666"
     borderopacity="1.0"
     inkscape:pageopacity="0.0"
     inkscape:pageshadow="2"
     inkscape:zoom="1.0000000"
     inkscape:cx="296.58504"
     inkscape:cy="228.62506"
     inkscape:window-width="871"
     inkscape:window-height="758"
     showgrid="true"
     inkscape:window-x="154"
     inkscape:window-y="24" />
  <g
     id="g851">
    <path
       style="fill:#df3511;fill-rule:evenodd;stroke:#000000;stroke-width:10.000000;stroke-dasharray:none;stroke-linejoin:round;"
       d="M 198.45150,81.882366 C 198.45150,81.882366 291.97399,62.761698 309.35429,65.255694 C 378.87543,71.906369 429.36103,128.43700 449.22422,199.10032 C 465.77688,316.31826 375.53070,422.76489 368.11621,439.35555 C 358.64118,454.32554 291.97401,465.95822 273.76607,478.42819 C 262.17923,487.57286 184.33042,477.20820 166.17382,465.12687 C -32.458054,287.22161 47.822326,120.95501 118.17112,99.340350 C 162.03566,84.376361 198.45150,81.882366 198.45150,81.882366 z "
       id="path866"
       sodipodi:nodetypes="cccccccc" />
    <path
       style="fill:url(#radialGradient874);fill-opacity:0.75000000;fill-rule:evenodd;stroke-width:1.0000000pt;"
       d="M 168.72512,143.36499 C 81.886907,52.156992 36.047337,278.22698 78.410525,355.16429 C 135.51720,430.81558 312.28701,308.28697 168.72512,143.36499 z "
       id="path868"
       sodipodi:nodetypes="ccc" />
    <path
       style="fill:url(#radialGradient832);fill-rule:evenodd;stroke-width:1.0000000pt;"
       d="M 394.90829,132.13899 C 372.88196,103.42500 292.87003,127.97632 323.59505,191.65433 C 342.66481,222.86832 449.01224,229.97965 394.90829,132.13899 z "
       id="path869"
       sodipodi:nodetypes="ccc" />
    <path
       style="fill:url(#linearGradient850);fill-opacity:0.75000000;fill-rule:evenodd;stroke-width:1.0000000pt;"
       d="M 274.99898,470.93420 C 310.58718,401.93356 322.17404,328.77626 338.72670,318.80026 C 349.48592,325.45093 344.52013,403.59621 359.41753,437.68088 C 347.00302,446.82554 295.68978,461.78953 274.99898,470.93420 z "
       id="path870"
       sodipodi:nodetypes="cccc" />
    <path
       style="fill:url(#linearGradient854);fill-opacity:0.75000000;fill-rule:evenodd;stroke-width:1.0000000pt;"
       d="M 196.79623,128.43701 C 196.79623,128.43701 176.10541,116.79835 177.76068,110.14769 C 191.83042,115.13568 200.10676,122.61768 205.07255,119.29234 C 210.03836,115.96700 210.03834,128.43701 214.17651,112.64168 C 218.31467,96.846350 229.90155,79.388370 228.24628,96.846350 C 226.59101,117.62967 234.86734,121.78634 252.24763,105.99101 C 269.62791,90.195694 276.24897,94.352360 271.28318,115.13568 C 246.45418,142.56966 191.00280,134.25634 196.79623,128.43701 z "
       id="path873"
       sodipodi:nodetypes="cccccccc" />
    <path
       style="fill:none;fill-opacity:0.75000000;fill-rule:evenodd;stroke:#000000;stroke-width:10.000000;stroke-dasharray:none;stroke-linejoin:round;"
       d="M 163.69092,120.12368 C 239.00550,146.72634 226.59101,133.42500 307.69902,111.81034"
       id="path871"
       sodipodi:nodetypes="cc" />
    <path
       style="fill:#4a2a00;fill-rule:evenodd;stroke:#000000;stroke-width:10.000000;stroke-linejoin:round;stroke-dasharray:none;"
       d="M 225.44369,132.32102 C 222.13315,112.36903 260.51513,21.083243 272.10198,19.420588 C 279.55068,18.589246 312.65233,35.528439 293.20689,46.135041 C 293.20689,54.973876 285.75820,44.472373 280.79240,47.797710 C 269.20555,60.267703 249.84861,99.235250 243.22756,129.99458 L 225.44369,132.32102 z "
       id="path867"
       sodipodi:nodetypes="cccccc" />
  </g>

  <rdf:RDF 
   xmlns="http://web.resource.org/cc/"
   xmlns:dc="http://purl.org/dc/elements/1.1/"
   xmlns:rdf="http://www.w3.org/1999/02/22-rdf-syntax-ns#">
  <Work rdf:about="">
    <dc:title>Clipart by Nicu Buculei - pear</dc:title>
    <dc:rights>
       <Agent>
         <dc:title>Nicu Buculei</dc:title>
       </Agent>
    </dc:rights>
    <dc:type rdf:resource="http://purl.org/dc/dcmitype/StillImage" />
    <license rdf:resource="http://web.resource.org/cc/PublicDomain" />
  </Work>
   
  <License rdf:about="http://web.resource.org/cc/PublicDomain">
     <permits rdf:resource="http://web.resource.org/cc/Reproduction" />
     <permits rdf:resource="http://web.resource.org/cc/Distribution" />
     <permits rdf:resource="http://web.resource.org/cc/DerivativeWorks" />
  </License>

</rdf:RDF>
</svg>
