<?xml version="1.0" encoding="UTF-8" standalone="no"?>
<!DOCTYPE svg PUBLIC "-//W3C//DTD SVG 20010904//EN"
"http://www.w3.org/TR/2001/REC-SVG-20010904/DTD/svg10.dtd">
<!-- Created with Inkscape (http://www.inkscape.org/) -->
<svg
   id="svg1"
   sodipodi:version="0.32"
   inkscape:version="0.38.1"
   width="400.00000pt"
   height="400.00000pt"
   sodipodi:docbase="/var/www/html/svg_gallery/svg/fruits"
   sodipodi:docname="banana.svg"
   xmlns="http://www.w3.org/2000/svg"
   xmlns:inkscape="http://www.inkscape.org/namespaces/inkscape"
   xmlns:sodipodi="http://sodipodi.sourceforge.net/DTD/sodipodi-0.dtd"
   xmlns:xlink="http://www.w3.org/1999/xlink">
  <defs
     id="defs3">
    <linearGradient
       id="linearGradient855">
      <stop
         style="stop-color:#ffffff;stop-opacity:0.0000000;"
         offset="0.0000000"
         id="stop856" />
      <stop
         style="stop-color:#5f0e00;stop-opacity:0.41666666;"
         offset="1.0000000"
         id="stop857" />
    </linearGradient>
    <linearGradient
       id="linearGradient829">
      <stop
         style="stop-color:#ffffff;stop-opacity:0.52499998;"
         offset="0.0000000"
         id="stop830" />
      <stop
         style="stop-color:#ffffff;stop-opacity:0.0000000;"
         offset="1.0000000"
         id="stop831" />
    </linearGradient>
    <radialGradient
       xlink:href="#linearGradient829"
       id="radialGradient832" />
    <linearGradient
       xlink:href="#linearGradient829"
       id="linearGradient850"
       x1="0.15073529"
       y1="0.43220338"
       x2="1.2500000"
       y2="-0.22033899" />
    <linearGradient
       xlink:href="#linearGradient855"
       id="linearGradient854"
       x1="4.9005938e-17"
       y1="0.50000000"
       x2="1.0000000"
       y2="0.50000000" />
  </defs>
  <sodipodi:namedview
     id="base"
     pagecolor="#ffffff"
     bordercolor="#666666"
     borderopacity="1.0"
     inkscape:pageopacity="0.0"
     inkscape:pageshadow="2"
     inkscape:zoom="1.0000000"
     inkscape:cx="303.06094"
     inkscape:cy="199.24188"
     inkscape:window-width="737"
     inkscape:window-height="637"
     showgrid="true"
     inkscape:window-x="343"
     inkscape:window-y="109" />
  <g
     id="g845">
    <path
       style="fill:#ffe200;fill-rule:evenodd;stroke:#000000;stroke-width:10.000000;stroke-dasharray:none;stroke-linejoin:round;"
       d="M 388.75000,93.750000 C 370.00000,76.250000 420.00000,63.750000 426.25000,70.000000 C 436.25000,75.000000 417.50000,78.750000 418.75000,87.500000 C 420.00000,96.250000 418.75000,142.50000 428.75000,145.00000 C 438.75000,147.50000 451.25000,156.25000 451.25000,168.75000 C 482.50000,246.25000 360.00000,458.75000 70.000000,352.50000 C 65.000000,348.75000 37.500000,317.50000 32.500000,310.00000 C 30.000000,301.25000 26.250000,280.00000 41.250000,272.50000 C 170.00000,238.75000 318.75000,305.00000 386.25000,153.75000 C 397.50000,127.50000 388.75000,93.750000 388.75000,93.750000 z "
       id="path847"
       sodipodi:nodetypes="cccccccccc" />
    <path
       style="fill:url(#linearGradient850);fill-rule:evenodd;stroke-width:1.0000000pt;"
       d="M 43.750000,290.00000 L 46.250000,277.50000 C 138.75000,242.50000 310.00000,316.25000 392.50000,157.50000 C 351.25000,270.00000 278.75000,338.75000 43.750000,290.00000 z "
       id="path849"
       sodipodi:nodetypes="cccc" />
    <path
       style="fill:#442400;fill-rule:evenodd;stroke-width:1.0000000pt;"
       d="M 386.15267,89.136260 C 389.06731,71.535880 415.26511,71.062953 422.59733,70.191604 C 434.58256,71.757920 407.11069,91.636260 386.15267,89.136260 z "
       id="path851"
       sodipodi:nodetypes="ccc" />
    <path
       style="fill:#442400;fill-rule:evenodd;stroke-width:1.0000000pt;"
       d="M 32.517518,305.14122 C 31.584832,286.77137 30.652137,280.71298 41.261429,274.65459 C 45.878219,281.57977 45.011420,303.02443 32.517518,305.14122 z "
       id="path852"
       sodipodi:nodetypes="ccc" />
    <path
       style="fill:url(#linearGradient854);fill-opacity:0.75000000;fill-rule:evenodd;stroke-width:1.0000000pt;"
       d="M 133.75000,366.25000 C 352.50000,421.25000 426.74042,283.12802 440.00000,250.00000 C 462.50000,210.00000 448.75000,165.00000 448.75000,165.00000 C 447.50000,300.00000 306.25000,408.75000 133.75000,366.25000 z "
       id="path853"
       sodipodi:nodetypes="cccc" />
  </g>

  <rdf:RDF 
   xmlns="http://web.resource.org/cc/"
   xmlns:dc="http://purl.org/dc/elements/1.1/"
   xmlns:rdf="http://www.w3.org/1999/02/22-rdf-syntax-ns#">
  <Work rdf:about="">
    <dc:title>Clipart by Nicu Buculei - pear</dc:title>
    <dc:rights>
       <Agent>
         <dc:title>Nicu Buculei</dc:title>
       </Agent>
    </dc:rights>
    <dc:type rdf:resource="http://purl.org/dc/dcmitype/StillImage" />
    <license rdf:resource="http://web.resource.org/cc/PublicDomain" />
  </Work>
   
  <License rdf:about="http://web.resource.org/cc/PublicDomain">
     <permits rdf:resource="http://web.resource.org/cc/Reproduction" />
     <permits rdf:resource="http://web.resource.org/cc/Distribution" />
     <permits rdf:resource="http://web.resource.org/cc/DerivativeWorks" />
  </License>

</rdf:RDF>
</svg>
