<?xml version="1.0" encoding="UTF-8" standalone="no"?>
<!-- Created with Inkscape (http://www.inkscape.org/) -->
<svg
   xmlns:dc="http://purl.org/dc/elements/1.1/"
   xmlns:cc="http://web.resource.org/cc/"
   xmlns:rdf="http://www.w3.org/1999/02/22-rdf-syntax-ns#"
   xmlns:svg="http://www.w3.org/2000/svg"
   xmlns="http://www.w3.org/2000/svg"
   xmlns:sodipodi="http://inkscape.sourceforge.net/DTD/sodipodi-0.dtd"
   xmlns:inkscape="http://www.inkscape.org/namespaces/inkscape"
   width="419.52753pt"
   height="297.63779pt"
   id="svg2"
   sodipodi:version="0.32"
   inkscape:version="0.43"
   version="1.0"
   sodipodi:docbase="/mnt/data/clipart/karg"
   sodipodi:docname="blueberry.svg">
  <defs
     id="defs4">
    <linearGradient
       id="linearGradient2283">
      <stop
         style="stop-color:#0080ff;stop-opacity:1;"
         offset="0"
         id="stop2285" />
      <stop
         style="stop-color:#0080ff;stop-opacity:0;"
         offset="1"
         id="stop2287" />
    </linearGradient>
  </defs>
  <sodipodi:namedview
     id="base"
     pagecolor="#ffffff"
     bordercolor="#666666"
     borderopacity="1.0"
     inkscape:pageopacity="0.0"
     inkscape:pageshadow="2"
     inkscape:zoom="0.52412699"
     inkscape:cx="526.18109"
     inkscape:cy="295.72986"
     inkscape:document-units="px"
     inkscape:current-layer="layer1"
     showgrid="true"
     inkscape:grid-bbox="true"
     inkscape:grid-points="true"
     gridtolerance="5px"
     inkscape:guide-points="true"
     guidetolerance="5px"
     inkscape:window-width="791"
     inkscape:window-height="543"
     inkscape:window-x="330"
     inkscape:window-y="81" />
  <metadata
     id="metadata7">
    <rdf:RDF>
      <cc:Work
         rdf:about="">
        <dc:format>image/svg+xml</dc:format>
        <dc:type
           rdf:resource="http://purl.org/dc/dcmitype/StillImage" />
        <cc:license
           rdf:resource="http://web.resource.org/cc/PublicDomain" />
        <dc:title>Blueberries</dc:title>
        <dc:date>05-June-2006</dc:date>
        <dc:creator>
          <cc:Agent>
            <dc:title>Steve Karg</dc:title>
          </cc:Agent>
        </dc:creator>
        <dc:publisher>
          <cc:Agent>
            <dc:title>kargs.net</dc:title>
          </cc:Agent>
        </dc:publisher>
        <dc:subject>
          <rdf:Bag>
            <rdf:li>blueberry</rdf:li>
            <rdf:li>fruit</rdf:li>
            <rdf:li>blue</rdf:li>
            <rdf:li>two</rdf:li>
          </rdf:Bag>
        </dc:subject>
        <dc:description>Two blueberries on a stem.</dc:description>
      </cc:Work>
      <cc:License
         rdf:about="http://web.resource.org/cc/PublicDomain">
        <cc:permits
           rdf:resource="http://web.resource.org/cc/Reproduction" />
        <cc:permits
           rdf:resource="http://web.resource.org/cc/Distribution" />
        <cc:permits
           rdf:resource="http://web.resource.org/cc/DerivativeWorks" />
      </cc:License>
    </rdf:RDF>
  </metadata>
  <g
     inkscape:label="Layer 1"
     inkscape:groupmode="layer"
     id="layer1">
    <g
       id="g1311"
       transform="matrix(0.537496,0,0,0.537496,-50.6312,-22.5262)">
      <path
         id="path5729"
         d="M 440.3125,106.59375 C 440.3125,106.59375 432.43751,128.34375 439.3125,167.59375 C 446.1875,206.84375 461.93751,214.59375 469.3125,268.59375 C 476.6875,322.59375 471,427.09375 471,427.09375 L 490,434.09375 C 490,434.09375 493.93751,323.34375 486.3125,268.59375 C 478.6875,213.84375 464.06251,205.84375 457.3125,167.59375 C 456.26218,161.64192 455.5786,156.14501 455.1875,151.09375 C 462.98906,169.71422 473.58731,190.30549 486.3125,203.59375 C 514.5625,233.09375 596,293.09375 596,293.09375 L 607,282.09375 C 607,282.09375 520.06251,213.84375 492.3125,186.59375 C 464.5625,159.34375 461.31251,108.59375 461.3125,108.59375 L 452.96875,108.59375 L 440.3125,106.59375 z "
         style="fill:#40ff40;fill-opacity:1;fill-rule:evenodd;stroke:#000000;stroke-width:5;stroke-linecap:butt;stroke-linejoin:miter;stroke-miterlimit:4;stroke-dasharray:none;stroke-opacity:1" />
      <path
         sodipodi:nodetypes="ccsssscccccc"
         id="path1354"
         d="M 344.85338,585.10637 L 373.85338,572.10637 C 373.85338,572.10637 322.79582,536.05559 321.85338,486.10637 C 320.85338,433.10637 339.8908,388.46522 397.32619,374.10637 C 473.32619,355.10637 559.88624,408.66879 580,467.09448 C 601,528.09448 544.57953,588.74991 493.85338,603.10637 C 440.85338,618.10637 409.85338,597.10637 409.85338,597.10637 L 392.85338,618.10637 L 379.85338,597.10637 L 363.85338,603.10637 L 365.85338,587.10637 L 344.85338,585.10637 z "
         style="fill:#0080ff;fill-opacity:1;fill-rule:evenodd;stroke:#000000;stroke-width:5;stroke-linecap:butt;stroke-linejoin:miter;stroke-miterlimit:4;stroke-dasharray:none;stroke-opacity:1" />
      <path
         sodipodi:nodetypes="cssss"
         id="path2229"
         d="M 629.99998,444.09448 C 700.1109,443.07838 770.5,351.84448 766,288.09448 C 761.5,224.34448 675.25,182.09448 605.99998,193.09448 C 536.74998,204.09448 493.49998,258.34448 497.99998,322.09448 C 502.49998,385.84448 560.99998,445.09448 629.99998,444.09448 z "
         style="fill:#0080ff;fill-opacity:1;fill-rule:evenodd;stroke:#000000;stroke-width:5;stroke-linecap:butt;stroke-linejoin:miter;stroke-miterlimit:4;stroke-dasharray:none;stroke-opacity:1" />
      <path
         id="path3104"
         d="M 616.81623,351.09448 L 631.81623,334.09448 L 656.81623,337.09448 L 650.81623,313.09448 L 667.81623,299.09448 L 633.81623,297.09448 L 616.81623,282.09448 L 617.81623,305.09448 L 600.81623,318.09448 L 621.81623,328.09448 L 616.81623,351.09448 z "
         style="fill:#0000ff;fill-opacity:1;fill-rule:evenodd;stroke:#000000;stroke-width:5;stroke-linecap:butt;stroke-linejoin:miter;stroke-miterlimit:4;stroke-dasharray:none;stroke-opacity:1" />
    </g>
  </g>
</svg>
