<?xml version="1.0" encoding="UTF-8" standalone="no"?>
<!-- Created with Inkscape (http://www.inkscape.org/) -->

<svg
   xmlns:dc="http://purl.org/dc/elements/1.1/"
   xmlns:cc="http://creativecommons.org/ns#"
   xmlns:rdf="http://www.w3.org/1999/02/22-rdf-syntax-ns#"
   xmlns:svg="http://www.w3.org/2000/svg"
   xmlns="http://www.w3.org/2000/svg"
   xmlns:xlink="http://www.w3.org/1999/xlink"
   xmlns:sodipodi="http://sodipodi.sourceforge.net/DTD/sodipodi-0.dtd"
   xmlns:inkscape="http://www.inkscape.org/namespaces/inkscape"
   width="300"
   height="246.69061"
   id="svg2"
   sodipodi:version="0.32"
   inkscape:version="0.47pre1 r21720"
   sodipodi:docname="elfurion_Cherry.svg"
   inkscape:output_extension="org.inkscape.output.svg.inkscape"
   version="1.0">
  <defs
     id="defs4">
    <linearGradient
       id="linearGradient3492">
      <stop
         style="stop-color: rgb(83, 175, 53); stop-opacity: 1;"
         offset="0"
         id="stop3494" />
      <stop
         id="stop3500"
         offset="0.5"
         style="stop-color: rgb(69, 134, 53); stop-opacity: 1;" />
      <stop
         style="stop-color: rgb(51, 164, 58); stop-opacity: 1;"
         offset="1"
         id="stop3496" />
    </linearGradient>
    <linearGradient
       id="linearGradient5441">
      <stop
         style="stop-color: rgb(89, 177, 24); stop-opacity: 1;"
         offset="0"
         id="stop5443" />
      <stop
         style="stop-color: rgb(40, 150, 20); stop-opacity: 1;"
         offset="1"
         id="stop5445" />
    </linearGradient>
    <linearGradient
       id="linearGradient5408">
      <stop
         style="stop-color: rgb(255, 255, 255); stop-opacity: 0.136882;"
         offset="0"
         id="stop5410" />
      <stop
         style="stop-color: rgb(255, 255, 255); stop-opacity: 0.665399;"
         offset="1"
         id="stop5412" />
    </linearGradient>
    <linearGradient
       id="linearGradient5398">
      <stop
         style="stop-color: rgb(225, 67, 40); stop-opacity: 0;"
         offset="0"
         id="stop5400" />
      <stop
         style="stop-color: rgb(0, 0, 0); stop-opacity: 0;"
         offset="1"
         id="stop5402" />
    </linearGradient>
    <linearGradient
       id="linearGradient3208">
      <stop
         style="stop-color: rgb(228, 82, 49); stop-opacity: 1;"
         offset="0"
         id="stop3210" />
      <stop
         style="stop-color: rgb(214, 15, 11); stop-opacity: 1;"
         offset="1"
         id="stop3212" />
    </linearGradient>
    <filter
       inkscape:collect="always"
       id="filter4935"
       x="-0.58976597"
       width="2.1795318"
       y="-0.24935593"
       height="1.4987119"
       color-interpolation-filters="sRGB">
      <feGaussianBlur
         inkscape:collect="always"
         stdDeviation="7.5178088"
         id="feGaussianBlur4937" />
    </filter>
    <filter
       inkscape:collect="always"
       id="filter5145"
       x="-0.26557466"
       width="1.5311493"
       y="-0.16220243"
       height="1.324405"
       color-interpolation-filters="sRGB">
      <feGaussianBlur
         inkscape:collect="always"
         stdDeviation="3.1950705"
         id="feGaussianBlur5147" />
    </filter>
    <filter
       inkscape:collect="always"
       id="filter3376"
       x="-0.12996832"
       width="1.2599366"
       y="-0.16878024"
       height="1.3375605"
       color-interpolation-filters="sRGB">
      <feGaussianBlur
         inkscape:collect="always"
         stdDeviation="11.680985"
         id="feGaussianBlur3378" />
    </filter>
    <filter
       inkscape:collect="always"
       id="filter3450"
       x="-0.091049962"
       width="1.1820999"
       y="-0.1360479"
       height="1.2720958"
       color-interpolation-filters="sRGB">
      <feGaussianBlur
         inkscape:collect="always"
         stdDeviation="8.1029294"
         id="feGaussianBlur3452" />
    </filter>
    <radialGradient
       inkscape:collect="always"
       xlink:href="#linearGradient3208"
       id="radialGradient2517"
       gradientUnits="userSpaceOnUse"
       gradientTransform="matrix(2.16905,0.419471,-0.350935,1.81466,-495.05,-752.757)"
       cx="400.0242"
       cy="363.33612"
       fx="400.0242"
       fy="363.33612"
       r="74.839806" />
    <linearGradient
       inkscape:collect="always"
       xlink:href="#linearGradient5408"
       id="linearGradient2519"
       gradientUnits="userSpaceOnUse"
       gradientTransform="translate(-141.421,-280.822)"
       x1="348.52802"
       y1="338.96225"
       x2="492.29031"
       y2="338.96225" />
    <linearGradient
       inkscape:collect="always"
       xlink:href="#linearGradient5398"
       id="linearGradient2521"
       gradientUnits="userSpaceOnUse"
       gradientTransform="translate(-141.421,-280.822)"
       x1="368.22089"
       y1="301.84421"
       x2="492.29031"
       y2="369.26682" />
    <linearGradient
       inkscape:collect="always"
       xlink:href="#linearGradient5441"
       id="linearGradient2523"
       gradientUnits="userSpaceOnUse"
       gradientTransform="matrix(1.64196,0,0,1.64196,-264.87,612.775)"
       x1="307.16504"
       y1="15.765013"
       x2="370.21582"
       y2="-160.00153" />
    <radialGradient
       inkscape:collect="always"
       xlink:href="#linearGradient3208"
       id="radialGradient2525"
       gradientUnits="userSpaceOnUse"
       gradientTransform="matrix(-2.93882,0.568336,0.475478,2.45866,1615.9,-414.409)"
       cx="400.0242"
       cy="363.33612"
       fx="400.0242"
       fy="363.33612"
       r="74.839806" />
    <linearGradient
       inkscape:collect="always"
       xlink:href="#linearGradient5408"
       id="linearGradient2527"
       gradientUnits="userSpaceOnUse"
       gradientTransform="matrix(0.677444,-1.17337,1.17337,0.677444,-160.839,970.164)"
       x1="348.52802"
       y1="338.96225"
       x2="492.29031"
       y2="338.96225" />
    <linearGradient
       inkscape:collect="always"
       xlink:href="#linearGradient5398"
       id="linearGradient2529"
       gradientUnits="userSpaceOnUse"
       gradientTransform="matrix(0.677444,-1.17337,1.17337,0.677444,-160.839,970.164)"
       x1="368.22089"
       y1="301.84421"
       x2="492.29031"
       y2="369.26682" />
    <linearGradient
       inkscape:collect="always"
       xlink:href="#linearGradient5441"
       id="linearGradient2531"
       gradientUnits="userSpaceOnUse"
       gradientTransform="matrix(-1.64196,0,0,1.64196,1026.85,589.851)"
       x1="307.16504"
       y1="15.765013"
       x2="370.21582"
       y2="-160.00153" />
    <linearGradient
       inkscape:collect="always"
       xlink:href="#linearGradient3492"
       id="linearGradient2533"
       gradientUnits="userSpaceOnUse"
       x1="258.15015"
       y1="-147.06059"
       x2="347.66714"
       y2="-59.91774" />
    <linearGradient
       inkscape:collect="always"
       xlink:href="#linearGradient3492"
       id="linearGradient2535"
       gradientUnits="userSpaceOnUse"
       gradientTransform="matrix(-0.586614,0.516466,0.516466,0.586614,748.154,-291.192)"
       x1="258.15015"
       y1="-147.06059"
       x2="347.66714"
       y2="-59.91774" />
  </defs>
  <sodipodi:namedview
     id="base"
     pagecolor="#ffffff"
     bordercolor="#666666"
     borderopacity="1.0"
     gridtolerance="10000"
     guidetolerance="10"
     objecttolerance="10"
     inkscape:pageopacity="0.0"
     inkscape:pageshadow="2"
     inkscape:zoom="0.35"
     inkscape:cx="1122.2735"
     inkscape:cy="331.87563"
     inkscape:document-units="px"
     inkscape:current-layer="layer1"
     showgrid="false"
     showguides="true"
     inkscape:window-width="1152"
     inkscape:window-height="790"
     inkscape:window-x="0"
     inkscape:window-y="25"
     inkscape:guide-bbox="true"
     inkscape:window-maximized="0" />
  <metadata
     id="metadata7">
    <rdf:RDF>
      <cc:Work
         rdf:about="">
        <dc:format>image/svg+xml</dc:format>
        <dc:type
           rdf:resource="http://purl.org/dc/dcmitype/StillImage" />
      </cc:Work>
    </rdf:RDF>
  </metadata>
  <g
     inkscape:label="Layer 1"
     inkscape:groupmode="layer"
     id="layer1"
     transform="translate(13.022539,-431.34847)">
    <g
       id="g2468"
       transform="matrix(0.38227521,0,0,0.38227521,-4.7677,338.01748)">
      <g
         transform="matrix(1.64196,0,0,1.64196,-264.87,612.775)"
         id="g3624">
        <path
           style="fill:url(#radialGradient2517);fill-opacity:1;stroke:#000000;stroke-width:1.85427999;stroke-linejoin:round;stroke-miterlimit:4;stroke-opacity:0;stroke-dashoffset:0"
           d="m 343.64421,123.5469 c -29.38892,49.3376 -78.56541,50.11252 -103.8639,36.45678 -30.74093,-16.59348 -46.17288,-67.796197 -11.11403,-114.063837 29.47509,-38.8986805 65.24882,-18.33674 72.48756,-3.18389 19.92473,6.19187 33.22053,9.83247 42.80645,20.51688 13.98951,15.59264 19.125,27.28841 -0.31608,60.274067 z"
           id="path2383"
           sodipodi:nodetypes="csscsc" />
        <path
           style="fill:#ed8c41;fill-opacity:1;stroke:none;filter:url(#filter4935)"
           d="m 389.97718,362.11823 c -7.08566,20.55983 -7.53974,35.55935 -11.49355,34.19672 -3.95381,-1.36262 -12.43416,-22.89583 -5.3485,-43.45566 7.08565,-20.55983 17.3799,-33.82003 26.81518,-27.0186 3.65256,2.63295 -2.88748,15.71771 -9.97313,36.27754 z"
           id="path3220"
           sodipodi:nodetypes="csssc"
           transform="matrix(1.65856,0,0,1.11438,-385.157,-322.122)" />
        <path
           style="fill:#e76f14;fill-opacity:1;fill-rule:evenodd;stroke:none;filter:url(#filter5145)"
           d="m 265.96598,51.365593 c -3.00676,0.75169 -8.88502,5.01773 -10.58122,6.71392 -4.40623,4.40623 -6.47793,3.86448 -9.09137,9.09138 -1.83023,3.66045 -3.39244,6.75427 -4.57107,11.46882 -0.71379,2.85516 -0.55833,8.90025 0.18383,11.76469 1.45408,5.61222 1.94743,3.17007 3.3876,6.0504 2.77065,5.541287 4.35563,-1.56551 4.27519,-4.74439 -0.12536,-4.9546 1.08702,-6.37889 2.2549,-11.0504 1.01219,-4.04874 4.61119,-8.21222 6.06092,-11.11168 2.20844,-4.41688 5.40643,-6.77225 7.07107,-10.10152 1.69297,-3.38595 2.89699,-3.67802 4.6831,-4.57107 1.34687,-0.67344 -0.10674,-4.40171 -3.67295,-3.51015 z"
           id="path4939"
           sodipodi:nodetypes="csssssssssss" />
        <path
           style="fill:#ffffff;fill-opacity:0.21641798;fill-rule:evenodd;stroke:none"
           d="m 246.43578,164.39692 c 0,0 -17.23761,-24.17157 -19.28571,-37.14286 -2.14286,-13.57143 8.57142,-32.857137 8.57142,-32.857137 0,0 -3.57142,-9.28572 -13.57142,-5 -10,4.28571 -12.85715,18.571427 -12.85715,18.571427 0,0 2.14286,17.85714 4.28572,22.85714 2.14285,5 15,22.85714 17.85714,24.28571 2.85714,1.42858 15,9.28572 15,9.28572 z"
           id="path5149"
           sodipodi:nodetypes="cscscssc" />
        <path
           style="fill:#ffffff;fill-opacity:0.49253702;stroke:none"
           d="m 304.7107,97.627593 c 0,3.745717 -2.79611,5.901827 -7.3304,5.901827 -4.53428,0 -8.97939,-2.84234 -8.34055,-6.533177 0.75761,-4.37706 3.90916,-3.48214 7.96174,-2.52166 4.64023,1.09976 7.33041,0.92252 7.70921,3.15301 z"
           id="path5393"
           sodipodi:nodetypes="csssc" />
        <path
           style="fill:url(#linearGradient2519);fill-opacity:1;fill-rule:evenodd;stroke:url(#linearGradient2521);stroke-width:1px;stroke-linecap:butt;stroke-linejoin:miter;stroke-opacity:1"
           d="m 274.26614,21.521343 -25.75,3.53125 -40.90625,33.84375 6.0625,16.15625 c 9.45799,-14.23967 24.75298,-34.73687 44.4375,-37.875 14.57048,-2.32285 28.72849,10.9046 35.5,18.46875 0.71044,-0.88254 -0.90391,-1.67629 -1.05615,-2.46494 -0.27186,-1.40827 -1.37697,-2.38782 -1.87374,-3.38135 -0.57905,-1.15808 -1.78886,-1.57903 -1.78886,-3.05996 0,-0.85245 -0.25,-2.31347 -0.25,-3.53125 -1e-5,-1.25057 2.02843,-1 3.03125,-1 2.39036,10e-6 2.69797,-0.30726 4.8125,0.75 1.13477,0.56738 1.94645,1.11385 3.28125,1.78125 1.42951,0.71475 2.43251,1.45064 3.53125,2 1.53612,0.76807 2.93731,1.52329 4.28125,2.53125 1.18614,0.88959 2.19871,1.38173 3.28125,2.03125 1.38213,0.82929 2.29616,1.83149 3.5625,2.78125 1.22008,0.91506 1.5,1.43971 1.5,3.03125 0,1.6556 -0.25531,1.90758 -1.75,2.28125 -1.68,0.41999 -3.53058,0.64362 -5.3125,1 -0.34033,0.06808 -0.69453,0.16582 -1.03125,0.25 -1.3484,0.33711 -2.58143,0.26254 -3.53125,0.5 -1.35516,0.33879 -2.59283,0.70085 -3.625,1.1875 3.72147,1.89162 10.96457,4.77479 21.4375,5.3125 3.55775,0.18563 5.46696,1.39671 7.71875,3.375 8.86878,7.79157 9.96875,23.75 9.96875,23.75 10e-6,-1e-5 11.63643,-9.87738 10.5,-18.96875 -0.57882,-4.63048 -4.26576,-11.32915 -8.25,-15.8125 -4.47459,-5.03514 -13.21875,-9.6875 -13.21875,-9.6875 l -25.65625,-9.34375 -4.40625,-6.375 -24.5,-13.0625 z m 20.03125,34.90625 c 1.02838,1.17512 0.46749,0.26487 0,0 z"
           id="path5396"
           sodipodi:nodetypes="ccccscssssssssssssssssccscsscccccc" />
      </g>
      <path
         sodipodi:nodetypes="csccccssc"
         id="path5423"
         d="m 215.71851,690.89321 c 3.95315,-5.92973 17.45809,4.54224 41.88043,-100.03623 24.56803,-105.4973 121.0801,-273.67423 121.0801,-273.67423 l 13.26906,16.5863 c -0.005,-9e-4 -106.06685,140.54954 -129.47804,259.57488 -17.0042,48.3691 -17.52263,109.88337 -16.99986,109.88534 0.38192,0.34372 -1.13396,6.8355 -9.6408,4.14657 -8.63516,-2.72948 -13.48379,-6.09609 -15.54967,-7.67116 -5.73442,-4.37203 -5.00394,-7.72625 -4.56122,-8.81147 z"
         style="fill:url(#linearGradient2523);fill-opacity:1;fill-rule:evenodd;stroke:none" />
      <path
         sodipodi:nodetypes="csscsc"
         id="path3540"
         d="m 479.5644,772.88352 c 39.81867,66.84689 106.44727,67.89681 140.72386,49.39482 41.65049,-22.48229 62.55905,-91.85619 15.05827,-154.54363 -39.93543,-52.70333 -88.40479,-24.84421 -98.21248,-4.31381 -26.99577,8.38928 -45.01007,13.32189 -57.99791,27.79806 -18.95421,21.12627 -25.91222,36.97271 0.42826,81.66456 z"
         style="fill:url(#radialGradient2525);fill-opacity:1;stroke:#000000;stroke-width:2.51234007;stroke-linejoin:round;stroke-miterlimit:4;stroke-opacity:0;stroke-dashoffset:0" />
      <path
         transform="matrix(2.24717,0,0,-1.50986,-331.971,1307.41)"
         sodipodi:nodetypes="csssc"
         id="path3542"
         d="m 389.97718,362.11823 c -7.08566,20.55983 -7.53974,35.55935 -11.49355,34.19672 -3.95381,-1.36262 -12.43416,-22.89583 -5.3485,-43.45566 7.08565,-20.55983 17.3799,-33.82003 26.81518,-27.0186 3.65256,2.63295 -2.88748,15.71771 -9.97313,36.27754 z"
         style="fill:#ed8c41;fill-opacity:1;stroke:none;filter:url(#filter4935)" />
      <path
         transform="matrix(1.35489,0,0,-1.35489,-191.576,857.582)"
         sodipodi:nodetypes="csssssssssss"
         id="path3544"
         d="m 543.3704,47.294932 c -3.00676,0.75169 -8.88502,5.01773 -10.58122,6.71392 -4.40623,4.40623 -6.47793,3.86448 -9.09137,9.09138 -1.83023,3.66045 -3.39244,6.75427 -4.57107,11.46882 -0.71379,2.85516 -0.55833,8.90025 0.18383,11.76469 1.45408,5.61222 1.94743,3.17007 3.3876,6.0504 2.77065,5.541287 4.35563,-1.56551 4.27519,-4.74439 -0.12536,-4.9546 1.08702,-6.37889 2.2549,-11.0504 1.01219,-4.04874 4.61119,-8.21222 6.06092,-11.11168 2.20844,-4.41688 5.40643,-6.77225 7.07107,-10.10152 1.69297,-3.38595 2.89699,-3.67802 4.6831,-4.57107 1.34687,-0.67344 -0.10674,-4.40171 -3.67295,-3.51015 z"
         style="fill:#e76f14;fill-opacity:1;fill-rule:evenodd;stroke:none;filter:url(#filter5145)" />
      <path
         sodipodi:nodetypes="cscscssc"
         id="path3546"
         d="m 580.27387,843.37264 c 0,0 -34.5498,-20.5989 -44.15537,-35.57561 -10.04997,-15.6696 -7.26164,-45.43088 -7.26164,-45.43088 0,0 -9.48808,-9.5747 -19.55988,1.18858 -10.07183,10.76326 -5.83581,30.04222 -5.83581,30.04222 0,0 12.38416,20.98645 17.76579,26.02235 5.38163,5.03593 31.05792,20.18695 35.38055,20.40311 4.32262,0.21618 23.66636,3.35023 23.66636,3.35023 z"
         style="fill:#ffffff;fill-opacity:0.21641798;fill-rule:evenodd;stroke:none" />
      <path
         sodipodi:nodetypes="csssc"
         id="path3548"
         d="m 582.07387,726.98468 c 0,5.07502 3.78842,7.99631 9.93186,7.99631 6.14344,0 12.16607,-3.85105 11.30051,-8.85172 -1.02647,-5.93042 -5.29648,-4.71791 -10.78726,-3.41656 -6.28699,1.49005 -9.93188,1.24991 -10.44511,4.27197 z"
         style="fill:#ffffff;fill-opacity:0.49253702;stroke:none" />
      <path
         sodipodi:nodetypes="ccccscssssssssssssssssccssscccccc"
         id="path3550"
         d="m 475.52648,687.23112 -13.30073,32.60641 11.99946,70.92527 23.06421,3.83141 c -10.3011,-20.74426 -23.99035,-52.57659 -14.33737,-77.79965 7.14512,-18.67012 32.25703,-26.32181 45.71987,-29.143 -0.55426,-1.43148 -2.57925,-0.075 -3.60776,-0.4306 -1.83659,-0.63503 -3.73461,-0.002 -5.23692,-0.0921 -1.75113,-0.1051 -3.06464,1.02929 -4.80231,0.026 -1.00024,-0.57749 -2.88391,-1.27391 -4.31282,-2.09889 -1.46737,-0.84719 0.20079,-3.05753 0.88015,-4.23421 1.61934,-2.80477 1.46719,-3.37387 4.14021,-5.13874 1.4345,-0.94714 2.62557,-1.52933 4.31292,-2.64342 1.80708,-1.19313 3.35003,-1.8715 4.73896,-2.78856 1.94187,-1.28211 3.77724,-2.41461 5.87039,-3.3087 1.84736,-0.78913 3.11079,-1.64385 4.60627,-2.47406 1.90937,-1.05993 3.70452,-1.45351 5.67682,-2.29598 1.90023,-0.81169 2.70547,-0.78472 4.57292,0.29346 1.94263,1.12157 2.06534,1.59185 1.49123,3.5988 -0.64531,2.25579 -1.63657,4.57868 -2.42556,6.91097 -0.15066,0.44544 -0.27594,0.92727 -0.40527,1.37939 -0.51792,1.81054 -1.44072,3.20682 -1.80554,4.48217 -0.52051,1.81961 -0.93415,3.51713 -1.06236,5.05791 4.74065,-3.08518 13.03046,-9.6308 20.75621,-21.55512 2.62799,-4.04879 5.34241,-5.46856 9.18913,-6.77056 15.15047,-5.12798 20.47946,-13.08695 11.2691,-21.40967 -9.50306,-8.58721 -7.97557,-2.03821 -15.93529,-0.40046 -8.93934,1.83931 -20.32194,8.94772 -20.32194,8.94772 l -28.34431,23.77433 -10.4652,0.85143 -31.92447,19.89839 z m 54.52788,0.143 c 2.07551,-0.41058 0.62748,-0.36909 0,0 z"
         style="fill:url(#linearGradient2527);fill-opacity:1;fill-rule:evenodd;stroke:url(#linearGradient2529);stroke-width:1.35488999px;stroke-linecap:butt;stroke-linejoin:miter;stroke-opacity:1" />
      <path
         sodipodi:nodetypes="csssc"
         id="path3558"
         d="m 594.51644,690.79018 c 0,5.07502 3.78842,7.99631 9.93187,7.99631 6.14343,0 12.16606,-3.85105 11.3005,-8.85172 -1.02647,-5.93042 -5.29647,-4.71791 -10.78726,-3.41656 -6.28699,1.49005 -9.93188,1.24991 -10.44511,4.27197 z"
         style="fill:#ffffff;fill-opacity:0.49253702;stroke:none" />
      <path
         sodipodi:nodetypes="csssc"
         id="path3560"
         d="m 595.77829,693.12971 c 0,5.77312 4.30952,9.09624 11.29804,9.09623 6.98849,0 13.83955,-4.38078 12.85493,-10.06931 -1.16766,-6.74618 -6.02503,-5.36687 -12.2711,-3.88652 -7.15179,1.69501 -11.29804,1.42184 -11.88187,4.8596 z"
         style="fill:#ffffff;fill-opacity:0.49253702;stroke:none" />
      <path
         sodipodi:nodetypes="csccccssc"
         id="path3644"
         d="M 546.26126,667.969 C 542.3081,662.03927 528.80317,672.51124 504.38083,567.93277 479.81279,462.43547 383.30072,294.25855 383.30072,294.25855 l -13.26905,16.58631 c 0.005,-9.1e-4 106.06684,140.54953 129.47803,259.57487 17.0042,48.36909 17.52264,109.88336 16.99987,109.88533 -0.38192,0.34373 1.13395,6.8355 9.64079,4.14658 8.63516,-2.72948 13.48379,-6.0961 15.54967,-7.67116 5.73442,-4.37204 5.00395,-7.72625 4.56123,-8.81148 z"
         style="fill:url(#linearGradient2531);fill-opacity:1;fill-rule:evenodd;stroke:none" />
      <g
         transform="matrix(1.64196,0,0,1.64196,-264.87,612.775)"
         id="g3608">
        <path
           style="fill:url(#linearGradient2533);fill-opacity:1;fill-rule:evenodd;stroke:none"
           d="m 394.95794,-182.39091 c 0,0 -63.06301,-1.80018 -97.85714,14.28571 -33.44549,15.46239 -71.18237,51.29331 -97.49999,102.857147 -7.60139,14.893318 -25.00001,50.714287 -26.42858,47.857144 -1.42857,-2.857143 66.78571,25.000003 124.64285,-6.785715 41.01344,-22.532074 83.21429,-64.999999 93.21429,-96.428576 10,-31.42857 8.21429,-58.92857 3.92857,-61.78571 z"
           id="path5453"
           sodipodi:nodetypes="csssssc" />
        <path
           style="fill:#2f5a30;fill-opacity:1;fill-rule:evenodd;stroke:#000000;stroke-width:1px;stroke-linecap:butt;stroke-linejoin:miter;stroke-opacity:1;filter:url(#filter3376)"
           d="m 178.49059,-19.856484 c 3.45803,-4.311973 15.18969,-15.366746 19.79306,-21.504584 3.78163,-5.042168 4.53976,-11.440482 8.08122,-16.16244 5.03567,-6.714221 7.14798,-12.198737 13.13199,-18.182746 4.22338,-4.223383 7.11726,-10.147716 12.12183,-15.152288 11.9758,-11.975808 23.30624,-28.627728 34.34518,-42.426408 1.34687,-1.68359 18.85618,-11.44839 20.20305,-13.13198 5.83469,-7.29336 17.67493,-12.37368 26.76905,-14.64721 21.32066,-5.33017 32.25858,-10.73197 53.03301,-16.66752 1.3349,-0.3814 27.94755,-2.18866 29.29442,-2.52538 7.5603,-1.89008 -21.72253,6.94586 -28.28427,8.58629 -7.18303,1.79576 -10.98701,3.97828 -17.17259,7.07107 -4.98697,2.49348 -15.6943,5.70981 -20.20306,9.09137 -5.66714,4.25036 -13.1254,7.8254 -19.69797,11.11168 -7.85563,3.92782 -18.14721,12.41117 -23.2335,19.1929 -5.34646,7.1286 -10.45151,9.94643 -16.66753,16.16244 -6.76606,6.76606 -12.37846,16.419072 -19.19289,23.23351 -7.0976,7.0976 -12.35844,16.399054 -19.1929,23.233508 -6.4461,6.446104 -9.14023,14.696061 -16.16245,21.71828 -5.73368,5.733686 -25.47154,22.96673 -29.0049,24.303079 -1.83643,0.694554 -14.33021,6.010336 -7.96075,-3.303571 z"
           id="path3186"
           sodipodi:nodetypes="csssssssssssssssssssc" />
        <path
           style="fill:#4d7635;fill-opacity:1;fill-rule:evenodd;stroke:none;filter:url(#filter3450)"
           d="m 185.4042,-20.885174 c 6.45937,1.79976 23.23393,4.444588 32.57741,2.77792 11.04395,-1.969993 24.37443,-3.535534 33.58758,-5.808377 5.99141,-1.478057 15.14186,-10.196282 20.45559,-13.384522 4.75648,-2.853886 9.62248,-5.821391 14.14214,-8.08122 6.35075,-3.175375 9.89565,-7.351604 16.16244,-11.111678 4.01335,-2.408015 9.20126,-10.321309 11.11167,-14.142136 2.7016,-5.403185 5.52771,-9.568313 10.10153,-14.142135 4.97492,-4.974918 4.83039,-7.410863 11.11168,-12.121831 5.57803,-4.183527 8.33139,-7.321237 13.13198,-12.121827 1.01015,-1.01016 2.02031,-2.02031 3.03046,-3.03046 4.13041,-4.13041 4.99494,-7.01525 9.09137,-11.11168 5.06172,-5.06172 9.77634,-9.77634 14.14214,-14.14213 4.00794,-4.00795 8.42076,-9.43092 12.12183,-13.13199 4.41571,-4.41571 6.03941,-11.68526 10.35406,-10.6066 4.35824,1.08956 -4.33373,20.22334 -7.07107,26.76904 -2.59206,6.1983 -7.63749,8.20392 -10.10152,13.13199 -2.05662,4.11323 -4.54569,6.86178 -7.32361,12.12183 -2.1815,4.13072 -4.86125,8.90185 -8.08122,12.121827 -5.13448,5.134482 -7.64738,10.894759 -14.14213,14.142136 -4.4501,2.225046 -11.3202,9.299891 -15.15229,13.131983 -4.21107,4.211065 -7.00133,9.039065 -11.11168,12.12183 -5.73976,4.304823 -13.04943,12.585629 -19.1929,15.657365 -6.23407,3.117036 -12.97131,5.728041 -17.67767,8.081221 -7.21766,3.608829 -17.9156,9.648627 -24.24367,14.394673 -8.85138,6.638538 -19.62594,7.39578 -31.31472,9.343911 -9.09726,1.516211 -22.10064,0.346351 -30.55712,-1.767767 -4.74952,-1.18738 -14.52462,-2.402794 -15.15228,-9.091373 z"
           id="path3380"
           sodipodi:nodetypes="cssssssssssssssssssssssssssc" />
        <path
           style="fill:#69a439;fill-opacity:1;fill-rule:evenodd;stroke:none"
           d="m 385.98661,-168.61743 c 0,0 -24.05716,0.94543 -49.49747,19.69798 -8.9931,6.62899 -36.23148,32.33846 -47.03216,45.36912 -16.40316,19.789852 -48.18328,55.232515 -82.50196,83.006908 18.45284,-10.52007 13.86783,-8.02805 25.593,-16.624194 11.55257,-8.469605 47.55648,-47.506403 52.92842,-53.415533 5.05076,-5.555839 40.06604,-44.965521 58.39015,-58.599351 8.63441,-6.42433 27.727,-15.04301 42.12002,-19.43493 z"
           id="path3490"
           sodipodi:nodetypes="cssczssc" />
        <path
           style="fill:#6aa635;fill-opacity:1;fill-rule:evenodd;stroke:none"
           d="m 367.32143,-159.6021 c 0,0 -5.5717,21.36363 -7.14286,31.60714 -1.72886,11.27162 -3.57598,36.253034 -3.57143,36.25 -0.23809,-12.02381 -0.64852,-25.29762 10e-6,-37.32143 0,0 3.21427,-19.28572 7.32142,-29.10714 4.20649,-10.05898 3.39286,-1.78572 3.39286,-1.42857 z"
           id="path3520"
           sodipodi:nodetypes="csccsc" />
        <path
           style="fill:#6aa635;fill-opacity:1;fill-rule:evenodd;stroke:none"
           d="m 342.37527,-143.5977 c 0,0 -6.20236,23.78178 -7.95136,35.18475 -1.92455,12.547469 -3.98074,40.356523 -3.97568,40.353145 -0.26504,-13.384784 -0.72192,-28.161051 10e-6,-41.545845 0,0 3.5781,-21.46867 8.15014,-32.40178 4.68262,-11.19755 3.77689,-1.98784 3.77689,-1.59027 z"
           id="path3522"
           sodipodi:nodetypes="csccsc" />
        <path
           style="fill:#6aa635;fill-opacity:1;fill-rule:evenodd;stroke:none"
           d="m 315.62243,-120.5808 c 0,0 -5.06584,19.42404 -6.49436,28.737545 -1.5719,10.248277 -3.25132,32.961647 -3.24718,32.958888 -0.21648,-10.932175 -0.58964,-23.000868 10e-6,-33.933043 0,0 2.92245,-17.53478 6.65671,-26.46452 3.82459,-9.14573 3.08482,-1.62359 3.08482,-1.29887 z"
           id="path3524"
           sodipodi:nodetypes="csccsc" />
        <path
           style="fill:#6aa635;fill-opacity:1;fill-rule:evenodd;stroke:none"
           d="m 286.33376,-87.566983 c 0,0 -4.56,17.484449 -5.84587,25.867954 -1.41493,9.224933 -2.92666,29.670253 -2.92293,29.66777 -0.19486,-9.840542 -0.53076,-20.704109 1e-5,-30.544651 0,0 2.63062,-15.783842 5.992,-23.821901 3.44268,-8.232486 2.77679,-1.461471 2.77679,-1.169172 z"
           id="path3526"
           sodipodi:nodetypes="csccsc" />
        <path
           style="fill:#6aa635;fill-opacity:1;fill-rule:evenodd;stroke:none"
           d="m 263.10599,-70.715607 c 0,0 -4.05414,15.544857 -5.19737,22.998361 -1.25797,8.20159 -2.60199,26.378861 -2.59868,26.376654 -0.17325,-8.748907 -0.47189,-18.407353 0,-27.15626 0,0 2.33881,-14.032904 5.3273,-21.179282 3.06078,-7.319234 2.46875,-1.299346 2.46875,-1.039473 z"
           id="path3528"
           sodipodi:nodetypes="csccsc" />
        <path
           sodipodi:nodetypes="csccsc"
           id="path3530"
           d="m 362.71043,-164.96941 c 0,0 -21.70562,4.03916 -32.0349,4.87826 -11.366,0.92333 -36.41551,0.99018 -36.41216,0.98586 11.97647,1.09209 25.18754,2.44495 37.22703,2.65269 0,0 19.46541,-1.83537 29.55391,-5.23407 10.33252,-3.48087 2.02236,-3.25735 1.66612,-3.28274 z"
           style="fill:#6aa635;fill-opacity:1;fill-rule:evenodd;stroke:none" />
        <path
           sodipodi:nodetypes="csccsc"
           id="path3532"
           d="m 334.51096,-146.90668 c 0,0 -21.70562,4.03916 -32.0349,4.87826 -11.366,0.92333 -36.41551,0.99018 -36.41216,0.98586 11.97647,1.09209 25.18754,2.44495 37.22703,2.65269 0,0 19.46541,-1.83537 29.55391,-5.23407 10.33252,-3.48087 2.02236,-3.25735 1.66612,-3.28274 z"
           style="fill:#6aa635;fill-opacity:1;fill-rule:evenodd;stroke:none" />
        <path
           sodipodi:nodetypes="csccsc"
           id="path3534"
           d="m 306.22669,-123.67318 c 0,0 -21.70562,4.03916 -32.0349,4.87826 -11.366,0.92333 -36.41551,0.99018 -36.41216,0.98586 11.97647,1.09209 25.18754,2.44495 37.22703,2.65269 0,0 19.46541,-1.83537 29.55391,-5.23407 10.33252,-3.48087 2.02236,-3.25735 1.66612,-3.28274 z"
           style="fill:#6aa635;fill-opacity:1;fill-rule:evenodd;stroke:none" />
        <path
           sodipodi:nodetypes="csccsc"
           id="path3536"
           d="m 285.01349,-95.388902 c 0,0 -21.70562,4.03916 -32.0349,4.87826 -11.366,0.92333 -36.41551,0.99018 -36.41216,0.98586 11.97647,1.09209 25.18754,2.44495 37.22703,2.65269 0,0 19.46541,-1.83537 29.55391,-5.23407 10.33252,-3.48087 2.02236,-3.25735 1.66612,-3.28274 z"
           style="fill:#6aa635;fill-opacity:1;fill-rule:evenodd;stroke:none" />
        <path
           sodipodi:nodetypes="csccsc"
           id="path3538"
           d="m 259.7934,-68.114782 c 0,0 -16.45118,2.601943 -23.61797,3.142474 -7.88611,0.59479 -24.06335,0.637853 -24.05855,0.63507 7.04747,0.703502 14.73086,1.574986 22.35947,1.708808 0,0 13.66105,-1.182307 22.23725,-3.371679 8.78362,-2.242305 3.29376,-2.098318 3.0798,-2.114673 z"
           style="fill:#6aa635;fill-opacity:1;fill-rule:evenodd;stroke:none" />
      </g>
      <g
         transform="matrix(1.60831,0.330738,-0.330738,1.60831,-366.288,485.213)"
         id="g3592">
        <path
           style="fill:url(#linearGradient2535);fill-opacity:1;fill-rule:evenodd;stroke:none"
           d="m 422.26779,-194.20308 c 0,0 36.0639,-33.62588 64.78241,-42.15965 27.60538,-8.203 68.24779,-6.6739 110.31701,9.98201 12.15097,4.81076 40.85753,16.83804 40.21994,14.4242 -0.63759,-2.41385 -26.26577,49.15787 -76.62179,60.39315 -35.69608,7.96442 -82.3849,4.84744 -104.48281,-8.42433 -22.09792,-13.27178 -35.25321,-30.32591 -34.21476,-34.21538 z"
           id="path3562"
           sodipodi:nodetypes="csssssc" />
        <path
           style="fill:#2f5a30;fill-opacity:1;fill-rule:evenodd;stroke:#000000;stroke-width:1px;stroke-linecap:butt;stroke-linejoin:miter;stroke-opacity:1;filter:url(#filter3376)"
           d="m 454.3696,-138.59357 c 3.45803,-4.31197 15.18969,-15.36674 19.79306,-21.50458 3.78163,-5.04217 4.53976,-11.44048 8.08122,-16.16244 5.03567,-6.71422 7.14798,-12.19874 13.13199,-18.18275 4.22338,-4.22338 7.11726,-10.14771 12.12183,-15.15228 11.9758,-11.97581 23.30624,-28.62773 34.34518,-42.42641 1.34687,-1.68359 18.85618,-11.44839 20.20305,-13.13198 5.83469,-7.29336 17.67493,-12.37368 26.76905,-14.64721 21.32066,-5.33017 32.25858,-10.73197 53.03301,-16.66752 1.3349,-0.3814 27.94755,-2.18866 29.29442,-2.52538 7.5603,-1.89008 -21.72253,6.94586 -28.28427,8.58629 -7.18303,1.79576 -10.98701,3.97828 -17.17259,7.07107 -4.98697,2.49348 -15.6943,5.70981 -20.20306,9.09137 -5.66714,4.25036 -13.1254,7.8254 -19.69797,11.11168 -7.85563,3.92782 -18.14721,12.41117 -23.2335,19.1929 -5.34646,7.1286 -10.45151,9.94643 -16.66753,16.16244 -6.76606,6.76606 -12.37846,16.41907 -19.19289,23.23351 -7.0976,7.0976 -12.35844,16.39905 -19.1929,23.23351 -6.4461,6.4461 -9.14023,14.69606 -16.16245,21.71828 -5.73368,5.73368 -25.47154,22.96673 -29.0049,24.30308 -1.83643,0.69455 -14.33021,6.01033 -7.96075,-3.30358 z"
           id="path3564"
           sodipodi:nodetypes="csssssssssssssssssssc"
           transform="matrix(-0.586614,0.516466,0.516466,0.586614,971.312,-364.022)" />
        <path
           style="fill:#4d7635;fill-opacity:1;fill-rule:evenodd;stroke:none;filter:url(#filter3450)"
           d="m 461.28321,-139.62226 c 6.45937,1.79976 23.23393,4.44459 32.57741,2.77792 11.04395,-1.96999 24.37443,-3.53553 33.58758,-5.80837 5.99141,-1.47806 15.14186,-10.19628 20.45559,-13.38452 4.75648,-2.85389 9.62248,-5.8214 14.14214,-8.08122 6.35075,-3.17538 9.89565,-7.35161 16.16244,-11.11168 4.01335,-2.40802 9.20126,-10.32131 11.11167,-14.14214 2.7016,-5.40318 5.52771,-9.56831 10.10153,-14.14213 4.97492,-4.97492 4.83039,-7.41087 11.11168,-12.12183 5.57803,-4.18353 8.33139,-7.32124 13.13198,-12.12183 1.01015,-1.01016 2.02031,-2.02031 3.03046,-3.03046 4.13041,-4.13041 4.99494,-7.01525 9.09137,-11.11168 5.06172,-5.06172 9.77634,-9.77634 14.14214,-14.14213 4.00794,-4.00795 8.42076,-9.43092 12.12183,-13.13199 4.41571,-4.41571 6.03941,-11.68526 10.35406,-10.6066 4.35824,1.08956 -4.33373,20.22334 -7.07107,26.76904 -2.59206,6.1983 -7.63749,8.20392 -10.10152,13.13199 -2.05662,4.11323 -4.54569,6.86178 -7.32361,12.12183 -2.1815,4.13072 -4.86125,8.90185 -8.08122,12.12183 -5.13448,5.13448 -7.64738,10.89475 -14.14213,14.14213 -4.4501,2.22505 -11.3202,9.29989 -15.15229,13.13198 -4.21107,4.21107 -7.00133,9.03907 -11.11168,12.12183 -5.73976,4.30483 -13.04943,12.58563 -19.1929,15.65737 -6.23407,3.11704 -12.97131,5.72804 -17.67767,8.08122 -7.21766,3.60883 -17.9156,9.64863 -24.24367,14.39467 -8.85138,6.63854 -19.62594,7.39578 -31.31472,9.34391 -9.09726,1.51622 -22.10064,0.34636 -30.55712,-1.76776 -4.74952,-1.18738 -14.52462,-2.4028 -15.15228,-9.09138 z"
           id="path3566"
           sodipodi:nodetypes="cssssssssssssssssssssssssssc"
           transform="matrix(-0.586614,0.516466,0.516466,0.586614,971.312,-364.022)" />
        <path
           style="fill:#69a439;fill-opacity:1;fill-rule:evenodd;stroke:none"
           d="m 434.64403,-190.75675 c 0,0 14.60054,-11.87009 39.20922,-14.00864 8.69912,-0.75597 37.95558,0.25787 51.0213,2.32366 19.84309,3.13732 56.79066,7.51513 91.26699,6.08355 -16.25795,3.35904 -12.28127,2.4529 -23.59903,3.46592 -11.15115,0.99813 -52.4327,-3.30661 -58.63582,-3.99857 -5.83225,-0.65058 -46.72643,-5.68465 -64.51701,-4.21866 -8.383,0.69077 -24.03423,5.4956 -34.74565,10.35274 z"
           id="path3568"
           sodipodi:nodetypes="cssczssc" />
        <path
           style="fill:#6aa635;fill-opacity:1;fill-rule:evenodd;stroke:none"
           d="m 450.24938,-195.10816 c 0,0 14.30202,9.65461 20.51411,14.85214 6.83557,5.71919 20.82116,19.41966 20.81692,19.42023 -6.07021,-7.1763 -12.68492,-15.17487 -19.27524,-21.89326 0,0 -11.84595,-9.65321 -19.32768,-13.29338 -7.6627,-3.72823 -2.91256,0.70477 -2.72811,0.91427 z"
           id="path3570"
           sodipodi:nodetypes="csccsc" />
        <path
           style="fill:#6aa635;fill-opacity:1;fill-rule:evenodd;stroke:none"
           d="m 473.14886,-198.60359 c 0,0 15.92087,10.74741 22.8361,16.53325 7.6093,6.36655 23.17791,21.61777 23.1732,21.6184 -6.75731,-7.98858 -14.12073,-16.8925 -21.45701,-24.37135 0,0 -13.18679,-10.74585 -21.51539,-14.79806 -8.53004,-4.15023 -3.24222,0.78454 -3.0369,1.01776 z"
           id="path3572"
           sodipodi:nodetypes="csccsc" />
        <path
           style="fill:#6aa635;fill-opacity:1;fill-rule:evenodd;stroke:none"
           d="m 500.72988,-198.91848 c 0,0 13.00354,8.77807 18.65163,13.50371 6.21499,5.19995 18.93083,17.65656 18.92698,17.65708 -5.5191,-6.52477 -11.53327,-13.79715 -17.52525,-19.90558 0,0 -10.77047,-8.77679 -17.57293,-12.08649 -6.96702,-3.38974 -2.64813,0.64079 -2.48043,0.83128 z"
           id="path3574"
           sodipodi:nodetypes="csccsc" />
        <path
           style="fill:#6aa635;fill-opacity:1;fill-rule:evenodd;stroke:none"
           d="m 534.96153,-194.67872 c 0,0 11.70506,7.90153 16.78917,12.1553 5.59437,4.68071 17.04048,15.89345 17.03701,15.89393 -4.96799,-5.87324 -10.38161,-12.41943 -15.77527,-17.91791 0,0 -9.69497,-7.90039 -15.81818,-10.87958 -6.27132,-3.05127 -2.3837,0.5768 -2.23273,0.74826 z"
           id="path3576"
           sodipodi:nodetypes="csccsc" />
        <path
           style="fill:#6aa635;fill-opacity:1;fill-rule:evenodd;stroke:none"
           d="m 557.29041,-196.78982 c 0,0 10.40659,7.025 14.9267,10.80689 4.97378,4.16146 15.15014,14.13036 15.14706,14.13078 -4.41688,-5.22171 -9.22995,-11.04173 -14.02527,-15.93024 0,0 -8.61949,-7.02398 -14.06345,-9.67269 -5.57562,-2.71277 -2.11926,0.51281 -1.98504,0.66526 z"
           id="path3578"
           sodipodi:nodetypes="csccsc" />
        <path
           sodipodi:nodetypes="csccsc"
           id="path3580"
           d="m 450.18223,-200.63812 c 0,0 14.8189,-8.84078 21.31156,-13.68327 7.14432,-5.32851 21.87323,-18.22651 21.86903,-18.22731 -6.46153,6.82607 -13.51261,14.44274 -20.46786,20.78259 0,0 -12.36657,8.97656 -20.03994,12.1932 -7.85895,3.29447 -2.86865,-0.86632 -2.67279,-1.06521 z"
           style="fill:#6aa635;fill-opacity:1;fill-rule:evenodd;stroke:none" />
        <path
           sodipodi:nodetypes="csccsc"
           id="path3582"
           d="m 476.0532,-204.60633 c 0,0 14.81891,-8.84078 21.31157,-13.68327 7.14432,-5.32851 21.87322,-18.22651 21.86903,-18.22731 -6.46154,6.82607 -13.51262,14.44274 -20.46786,20.78259 0,0 -12.36658,8.97656 -20.03995,12.1932 -7.85894,3.29447 -2.86865,-0.86633 -2.67279,-1.06521 z"
           style="fill:#6aa635;fill-opacity:1;fill-rule:evenodd;stroke:none" />
        <path
           sodipodi:nodetypes="csccsc"
           id="path3584"
           d="m 504.64445,-205.58509 c 0,0 14.81889,-8.84078 21.31156,-13.68328 7.14432,-5.32851 21.87323,-18.2265 21.86903,-18.22731 -6.46153,6.82608 -13.51262,14.44275 -20.46786,20.78259 0,0 -12.36658,8.97656 -20.03994,12.1932 -7.85895,3.29447 -2.86865,-0.86632 -2.67279,-1.0652 z"
           style="fill:#6aa635;fill-opacity:1;fill-rule:evenodd;stroke:none" />
        <path
           sodipodi:nodetypes="csccsc"
           id="path3586"
           d="m 531.69626,-199.94904 c 0,0 14.8189,-8.84078 21.31156,-13.68327 7.14432,-5.32851 21.87323,-18.22651 21.86903,-18.22731 -6.46153,6.82607 -13.51262,14.44274 -20.46786,20.78259 0,0 -12.36658,8.97656 -20.03994,12.1932 -7.85895,3.29446 -2.86865,-0.86633 -2.67279,-1.06521 z"
           style="fill:#6aa635;fill-opacity:1;fill-rule:evenodd;stroke:none" />
        <path
           sodipodi:nodetypes="csccsc"
           id="path3588"
           d="m 560.57686,-196.97498 c 0,0 10.99429,-6.97014 15.47759,-10.35445 4.93329,-3.724 14.44532,-12.05373 14.44107,-12.05287 -3.77081,4.05245 -7.8279,8.53188 -12.23383,12.55031 0,0 -8.62438,6.3619 -14.78603,9.50689 -6.31066,3.22107 -3.01588,0.47022 -2.8988,0.35012 z"
           style="fill:#6aa635;fill-opacity:1;fill-rule:evenodd;stroke:none" />
      </g>
    </g>
  </g>
</svg>
