<?xml version="1.0" encoding="UTF-8" standalone="no"?>
<!DOCTYPE svg PUBLIC "-//W3C//DTD SVG 20010904//EN"
"http://www.w3.org/TR/2001/REC-SVG-20010904/DTD/svg10.dtd">
<!-- Created with Inkscape (http://www.inkscape.org/) -->
<svg
   id="svg1247"
   sodipodi:version="0.32"
   inkscape:version="0.38.1"
   width="80.000000pt"
   height="80.000000pt"
   sodipodi:docbase="/var/www/html/svg_gallery/svg/fruits"
   sodipodi:docname="lemon1.svg"
   xmlns="http://www.w3.org/2000/svg"
   xmlns:inkscape="http://www.inkscape.org/namespaces/inkscape"
   xmlns:sodipodi="http://sodipodi.sourceforge.net/DTD/sodipodi-0.dtd"
   xmlns:xlink="http://www.w3.org/1999/xlink">
  <defs
     id="defs1249" />
  <sodipodi:namedview
     id="base"
     pagecolor="#ffffff"
     bordercolor="#666666"
     borderopacity="1.0"
     inkscape:pageopacity="0.0"
     inkscape:pageshadow="2"
     inkscape:zoom="2.2973967"
     inkscape:cx="99.375274"
     inkscape:cy="78.450001"
     inkscape:window-width="1004"
     inkscape:window-height="704"
     inkscape:window-x="92"
     inkscape:window-y="32" />
  <g
     id="g852"
     transform="translate(-58.94220,-40.42448)">
    <path
       transform="matrix(1.073824,0.000000,0.000000,1.050951,-8.296811,-4.438526)"
       style="fill:#ffea00;fill-rule:evenodd;stroke:#000000;stroke-width:2.3533268;stroke-linejoin:round;"
       d="M 153.46630,91.761292 C 153.46630,114.50841 133.62558,132.96984 109.17896,132.96984 C 84.732350,132.96984 64.891621,114.50841 64.891621,91.761292 C 64.891621,69.014174 84.732350,50.552746 109.17896,50.552746 C 133.62558,50.552746 153.46630,69.014174 153.46630,91.761292 z "
       id="path839" />
    <path
       style="fill:#ffffff;fill-opacity:1.0000000;fill-rule:evenodd;stroke:none;stroke-width:1.0000000pt;"
       d="M 152.99264,91.998122 C 156.34193,111.07723 122.43419,135.37181 108.70530,132.02252 C 88.612769,129.34309 62.743314,113.08680 66.092606,92.333051 C 64.083031,74.928595 84.258689,51.973730 108.70530,51.973730 C 133.82178,53.313447 149.30842,65.215648 152.99264,91.998122 z "
       id="path840"
       sodipodi:nodetypes="ccccc" />
    <path
       style="fill:#ffdb00;fill-rule:evenodd;stroke:black;stroke-opacity:1;stroke-width:2.5000000;stroke-linejoin:round;stroke-linecap:butt;fill-opacity:1.0000000;stroke-dasharray:none;"
       d="M 111.86636,87.893239 C 111.86636,87.893239 115.21565,57.749609 116.89030,58.419468 C 120.57452,56.074963 130.28747,60.763973 129.28268,64.783123 C 129.61761,67.797485 112.20129,86.218593 111.86636,87.893239 z "
       id="path843"
       sodipodi:nodetypes="cccc" />
    <path
       style="fill:#ffdb00;fill-rule:evenodd;stroke:black;stroke-opacity:1;stroke-width:2.5000000;stroke-linejoin:round;stroke-linecap:butt;fill-opacity:1.0000000;stroke-dasharray:none;"
       d="M 81.387798,75.500857 L 105.83763,89.567884 L 90.765816,64.448194 C 84.067232,63.108477 79.713152,67.462556 81.387798,75.500857 z "
       id="path841"
       sodipodi:nodetypes="cccc" />
    <path
       style="fill:#ffdb00;fill-rule:evenodd;stroke:black;stroke-opacity:1;stroke-width:2.5000000;stroke-linejoin:round;stroke-linecap:butt;fill-opacity:1.0000000;stroke-dasharray:none;"
       d="M 108.85199,88.563097 L 94.450038,63.443406 C 94.450037,57.749610 107.84720,54.400318 110.19171,59.089326 C 112.53621,62.103689 108.85199,88.563097 108.85199,88.563097 z "
       id="path842"
       sodipodi:nodetypes="cccc" />
    <path
       style="fill:#ffdb00;fill-rule:evenodd;stroke:black;stroke-opacity:1;stroke-width:2.5000000;stroke-linejoin:round;stroke-linecap:butt;fill-opacity:1.0000000;stroke-dasharray:none;"
       d="M 114.88072,88.898026 C 114.88072,88.898026 131.62717,66.457768 133.63675,68.132414 C 138.66070,66.122839 147.03392,72.821424 142.34491,81.194654 C 142.67984,83.204230 114.88072,86.553521 114.88072,88.898026 z "
       id="path844"
       sodipodi:nodetypes="cccc" />
    <path
       style="fill:#ffdb00;fill-rule:evenodd;stroke:black;stroke-opacity:1;stroke-width:2.5000000;stroke-linejoin:round;stroke-linecap:butt;fill-opacity:1.0000000;stroke-dasharray:none;"
       d="M 113.54100,92.247318 C 113.54100,92.247318 138.32577,84.878875 143.34970,85.883663 C 147.03392,87.223379 147.03392,103.96984 140.00041,102.96506 C 136.98605,103.63492 114.88072,92.917176 113.54100,92.247318 z "
       id="path845"
       sodipodi:nodetypes="cccc" />
    <path
       style="fill:#ffdb00;fill-rule:evenodd;stroke:black;stroke-opacity:1;stroke-width:2.5000000;stroke-linejoin:round;stroke-linecap:butt;fill-opacity:1.0000000;stroke-dasharray:none;"
       d="M 112.87114,94.926752 C 112.87114,94.926752 136.31619,105.64448 137.99084,108.99378 C 143.34970,114.35265 131.96211,120.38137 127.60803,119.71151 C 126.93817,121.38616 110.86157,93.921964 112.87114,94.926752 z "
       id="path847"
       sodipodi:nodetypes="cccc" />
    <path
       style="fill:#ffdb00;fill-rule:evenodd;stroke:black;stroke-opacity:1;stroke-width:2.5000000;stroke-linejoin:round;stroke-linecap:butt;fill-opacity:1.0000000;stroke-dasharray:none;"
       d="M 110.52664,95.931539 C 110.52664,95.931539 123.92381,121.72109 123.25395,123.39574 C 122.58409,125.07038 114.21086,130.76417 107.84720,126.07517 C 107.17734,123.39574 108.51707,96.266468 110.52664,95.931539 z "
       id="path848"
       sodipodi:nodetypes="cccc" />
    <path
       style="fill:#ffdb00;fill-rule:evenodd;stroke:black;stroke-opacity:1;stroke-width:2.5000000;stroke-linejoin:round;stroke-linecap:butt;fill-opacity:1.0000000;stroke-dasharray:none;"
       d="M 107.17735,95.931539 C 107.17735,95.931539 103.15820,124.73545 100.81369,125.40531 C 97.799329,127.41489 89.091170,125.07039 87.416524,118.70672 C 88.421312,116.02729 104.16298,95.261680 107.17735,95.931539 z "
       id="path849"
       sodipodi:nodetypes="cccc" />
    <path
       style="fill:#ffdb00;fill-rule:evenodd;stroke:black;stroke-opacity:1;stroke-width:2.5000000;stroke-linejoin:round;stroke-linecap:butt;fill-opacity:1.0000000;stroke-dasharray:none;"
       d="M 84.402161,115.35744 C 88.086382,113.01293 101.81848,95.931539 102.82326,94.256893 C 103.82805,92.582247 75.359072,97.606186 75.694001,99.280832 C 73.684426,102.29520 78.708365,116.02729 84.402161,115.35744 z "
       id="path850"
       sodipodi:nodetypes="cccc" />
    <path
       style="fill:#ffdb00;fill-rule:evenodd;stroke:black;stroke-opacity:1;stroke-width:2.5000000;stroke-linejoin:round;stroke-linecap:butt;fill-opacity:1.0000000;stroke-dasharray:none;"
       d="M 74.354284,94.256893 C 79.713152,93.921964 97.129471,90.572672 100.81369,91.242530 C 104.49791,91.912389 79.713152,77.510433 79.713152,79.854937 C 75.024143,81.194654 67.655700,88.563096 74.354284,94.256893 z "
       id="path851"
       sodipodi:nodetypes="cccc" />
  </g>

  <rdf:RDF 
   xmlns="http://web.resource.org/cc/"
   xmlns:dc="http://purl.org/dc/elements/1.1/"
   xmlns:rdf="http://www.w3.org/1999/02/22-rdf-syntax-ns#">
  <Work rdf:about="">
    <dc:title>Clipart by Nicu Buculei - pear</dc:title>
    <dc:rights>
       <Agent>
         <dc:title>Nicu Buculei</dc:title>
       </Agent>
    </dc:rights>
    <dc:type rdf:resource="http://purl.org/dc/dcmitype/StillImage" />
    <license rdf:resource="http://web.resource.org/cc/PublicDomain" />
  </Work>
   
  <License rdf:about="http://web.resource.org/cc/PublicDomain">
     <permits rdf:resource="http://web.resource.org/cc/Reproduction" />
     <permits rdf:resource="http://web.resource.org/cc/Distribution" />
     <permits rdf:resource="http://web.resource.org/cc/DerivativeWorks" />
  </License>

</rdf:RDF>
</svg>
