<?xml version="1.0" encoding="UTF-8" standalone="no"?>
<!-- Created with Inkscape (http://www.inkscape.org/) -->
<svg
   xmlns:dc="http://purl.org/dc/elements/1.1/"
   xmlns:cc="http://web.resource.org/cc/"
   xmlns:rdf="http://www.w3.org/1999/02/22-rdf-syntax-ns#"
   xmlns:svg="http://www.w3.org/2000/svg"
   xmlns="http://www.w3.org/2000/svg"
   xmlns:sodipodi="http://inkscape.sourceforge.net/DTD/sodipodi-0.dtd"
   xmlns:inkscape="http://www.inkscape.org/namespaces/inkscape"
   width="744.09448819"
   height="1052.3622047"
   id="svg2"
   sodipodi:version="0.32"
   inkscape:version="0.43"
   sodipodi:docbase="/home/steve/data/clipart/karg"
   sodipodi:docname="peach.svg">
  <defs
     id="defs4" />
  <sodipodi:namedview
     id="base"
     pagecolor="#ffffff"
     bordercolor="#666666"
     borderopacity="1.0"
     inkscape:pageopacity="0.0"
     inkscape:pageshadow="2"
     inkscape:zoom="0.35539095"
     inkscape:cx="372.04724"
     inkscape:cy="526.18109"
     inkscape:document-units="px"
     inkscape:current-layer="layer1"
     inkscape:window-width="797"
     inkscape:window-height="583"
     inkscape:window-x="74"
     inkscape:window-y="227" />
  <metadata
     id="metadata7">
    <rdf:RDF>
      <cc:Work
         rdf:about="">
        <dc:format>image/svg+xml</dc:format>
        <dc:type
           rdf:resource="http://purl.org/dc/dcmitype/StillImage" />
        <dc:title>Peach</dc:title>
        <dc:creator>
          <cc:Agent>
            <dc:title>Steve Karg</dc:title>
          </cc:Agent>
        </dc:creator>
        <dc:publisher>
          <cc:Agent>
            <dc:title>kargs.net</dc:title>
          </cc:Agent>
        </dc:publisher>
        <cc:license
           rdf:resource="http://web.resource.org/cc/PublicDomain" />
      </cc:Work>
      <cc:License
         rdf:about="http://web.resource.org/cc/PublicDomain">
        <cc:permits
           rdf:resource="http://web.resource.org/cc/Reproduction" />
        <cc:permits
           rdf:resource="http://web.resource.org/cc/Distribution" />
        <cc:permits
           rdf:resource="http://web.resource.org/cc/DerivativeWorks" />
      </cc:License>
    </rdf:RDF>
  </metadata>
  <g
     inkscape:label="Layer 1"
     inkscape:groupmode="layer"
     id="layer1">
    <g
       id="g5687"
       transform="matrix(1.730416,0,0,1.730416,-386.8545,-391.4654)">
      <path
         sodipodi:nodetypes="cscsc"
         id="path3937"
         d="M 436.3102,354.17058 C 436.3102,354.17058 381.63856,349.64948 349.56633,331.07801 C 317.49409,312.50654 316.8968,274.87789 316.8968,274.87789 C 316.8968,274.87789 377.68896,287.80605 409.76119,306.37751 C 441.83343,324.94898 436.3102,354.17058 436.3102,354.17058 z "
         style="fill:#549e00;fill-opacity:1;fill-rule:evenodd;stroke:#000000;stroke-width:0.56080312px;stroke-linecap:butt;stroke-linejoin:miter;stroke-opacity:1" />
      <path
         sodipodi:nodetypes="cscsc"
         id="path4812"
         d="M 440.68966,349.96974 C 440.68966,349.96974 495.52725,351.47548 529.44378,336.5357 C 563.36031,321.59592 568.08326,284.26008 568.08326,284.26008 C 568.08326,284.26008 506.23955,290.43897 472.32303,305.37874 C 438.4065,320.31852 440.68966,349.96974 440.68966,349.96974 z "
         style="fill:#549e00;fill-opacity:1;fill-rule:evenodd;stroke:#000000;stroke-width:0.56080312px;stroke-linecap:butt;stroke-linejoin:miter;stroke-opacity:1" />
      <path
         sodipodi:nodetypes="csccscc"
         id="path3062"
         d="M 435.78898,348.29179 C 435.78898,348.29179 422.90289,324.96247 434.43255,301.63315 C 445.9622,278.30382 481.90762,254.9745 481.90762,254.9745 L 485.97691,263.72299 C 485.97691,263.72299 453.08347,281.5845 442.57113,303.09123 C 432.05879,324.59795 443.92756,349.74988 443.92756,349.74988 L 435.78898,348.29179 z "
         style="fill:#000000;fill-opacity:1;fill-rule:evenodd;stroke:#000000;stroke-width:0.49221849px;stroke-linecap:butt;stroke-linejoin:miter;stroke-opacity:1" />
      <path
         sodipodi:nodetypes="csscc"
         id="path1307"
         d="M 610.53454,475.51417 C 610.53454,572.50846 533.73454,651.22845 439.10596,651.22845 C 344.47739,651.22845 267.67739,572.50846 267.67739,475.51417 C 267.67739,378.51989 348.63074,301.47296 443.06449,350.39911 C 514.83593,296.11339 610.53454,378.51989 610.53454,475.51417 z "
         style="fill:#ff7d73;fill-opacity:1;stroke:none;stroke-linecap:round;stroke-opacity:1" />
    </g>
  </g>
</svg>
