<?xml version="1.0" encoding="UTF-8" standalone="no"?>
<!DOCTYPE svg PUBLIC "-//W3C//DTD SVG 20010904//EN"
"http://www.w3.org/TR/2001/REC-SVG-20010904/DTD/svg10.dtd">
<svg
   width="250.00000pt"
   height="270.00000pt"
   id="svg1"
   sodipodi:version="0.32"
   inkscape:version="0.39cvs"
   sodipodi:docname="GREEN_~1.SVG"
   inkscape:export-filename="I:\Projs\Cliparts Stocker\green_pear.png"
   inkscape:export-xdpi="72.000000"
   inkscape:export-ydpi="72.000000"
   xmlns="http://www.w3.org/2000/svg"
   xmlns:cc="http://web.resource.org/cc/"
   xmlns:inkscape="http://www.inkscape.org/namespaces/inkscape"
   xmlns:sodipodi="http://sodipodi.sourceforge.net/DTD/sodipodi-0.dtd"
   xmlns:rdf="http://www.w3.org/1999/02/22-rdf-syntax-ns#"
   xmlns:dc="http://purl.org/dc/elements/1.1/"
   xmlns:xlink="http://www.w3.org/1999/xlink"
   sodipodi:docbase="I:\Projs\CLIPAR~1">
  <defs
     id="defs400">
    <linearGradient
       id="linearGradient3899">
      <stop
         style="stop-color:#000000;stop-opacity:0.00000000;"
         offset="0.00000000"
         id="stop3900" />
      <stop
         style="stop-color:#07891f;stop-opacity:0.69072163;"
         offset="1.0000000"
         id="stop3901" />
    </linearGradient>
    <linearGradient
       inkscape:collect="always"
       xlink:href="#linearGradient3899"
       id="linearGradient3902"
       x1="0.62500000"
       y1="0.22656250"
       x2="0.37500000"
       y2="0.80468750" />
    <linearGradient
       inkscape:collect="always"
       xlink:href="#linearGradient3899"
       id="linearGradient3903"
       x1="0.63970590"
       y1="0.090322576"
       x2="0.33088234"
       y2="0.62580645" />
  </defs>
  <sodipodi:namedview
     id="base"
     pagecolor="#ffffff"
     bordercolor="#666666"
     borderopacity="1.0"
     inkscape:pageopacity="0.0"
     inkscape:pageshadow="2"
     inkscape:zoom="2.0703704"
     inkscape:cx="125.00000"
     inkscape:cy="135.00000"
     inkscape:window-width="1024"
     inkscape:window-height="721"
     inkscape:window-x="-4"
     inkscape:window-y="-4"
     showguides="true"
     inkscape:guide-bbox="true" />
  
  <g
     id="g4543">
    <path
       style="fill:#000000;stroke:none;"
       d="M 194.00000,72.534000 C 185.45000,74.570400 173.15200,91.395000 178.60300,99.999200 C 181.40100,104.41400 190.91300,109.27000 190.71000,115.09000 C 190.52800,120.30700 183.78400,128.23200 181.37400,133.00000 C 177.51900,140.62800 175.99000,149.52800 175.17000,158.00000 C 172.46700,185.92900 193.94700,211.87500 202.91000,237.00000 C 210.39100,257.97000 207.27500,278.78800 211.26100,300.00000 C 218.72000,339.70300 253.65900,389.99700 300.00000,379.98500 C 319.84700,375.69700 333.54500,362.34200 351.00000,353.17100 C 365.76000,345.41500 381.47200,342.57600 394.00000,330.91000 C 402.10600,323.36200 410.24084,316.03284 414.76184,305.85384 C 419.19684,295.86884 420.03578,287.70498 421.04078,276.77498 C 422.25078,263.61598 416.41200,246.07600 410.31200,235.00000 C 389.04100,196.38200 346.64600,181.11900 315.03900,152.83000 C 296.05900,135.84300 281.70700,114.43600 257.00000,104.32600 C 248.81100,100.97500 240.71300,100.80100 232.00000,101.01500 C 228.21800,101.10700 223.58600,102.80100 220.04300,100.96800 C 208.34300,94.917700 212.34900,68.163900 194.00000,72.534000 z "
       id="path4"
       transform="translate(-140.2181,-56.24366)"
       sodipodi:nodetypes="cccccccccccccccccc" />
    <path
       style="fill:#78423b;stroke:none;"
       d="M 197.17567,295.92094 C 208.10107,296.56790 224.56550,287.61849 232.76899,278.49044 L 232.95517,278.38070 C 215.03559,272.18118 200.47816,278.44483 197.17567,295.92094 z "
       id="path329"
       sodipodi:nodetypes="cccc" />
    <path
       style="fill:#00b200;stroke:url(#linearGradient3903);"
       d="M 91.510168,49.812500 C 89.017466,49.754057 86.215515,50.462605 83.528002,51.023584 L 79.371167,52.523584 C 81.937443,57.328683 84.277340,61.631601 86.781250,66.468750 C 90.170750,73.017244 94.254068,82.319404 86.332251,86.960499 C 81.046706,90.057799 73.519776,90.815572 70.031250,85.562500 C 65.832352,79.240291 62.607577,72.458785 59.093750,65.781250 L 58.906250,65.906250 C 51.898085,69.173335 48.941250,74.757000 46.281250,81.750000 C 38.669248,101.76400 42.599250,115.24100 49.781250,134.75000 C 57.086250,154.59401 68.710250,171.81600 74.156250,192.75000 C 78.193253,208.26801 74.755500,223.70800 77.562500,238.75000 C 85.016497,278.70101 117.68275,324.84825 163.09375,316.28125 C 173.64174,314.29126 188.89850,304.45350 196.56250,297.06250 C 200.95950,292.82050 202.47275,287.26200 208.09375,283.75000 C 220.69474,275.87700 235.85475,282.78125 247.09375,272.65625 C 254.21674,266.23925 257.78175,261.70800 263.59375,254.37500 C 269.36475,247.09401 272.28425,236.79700 274.03125,227.75000 C 285.44124,168.64001 220.17550,141.47575 183.18750,111.09375 C 155.03531,87.969374 134.43945,48.842897 91.510168,49.812500 z "
       id="path50"
       sodipodi:nodetypes="cccccccccccccccccccc" />
    <path
       style="fill:#7ed77e;stroke:none;"
       d="M 91.235999,54.814417 C 89.573463,54.789438 83.303305,56.193718 81.816190,56.998770 C 82.567272,59.051109 86.602689,66.096225 87.391562,68.445428 C 88.700831,71.931567 90.359542,74.857599 90.100466,78.449847 C 89.505498,82.087240 88.535187,84.192936 85.980249,86.537585 C 85.007775,87.845571 51.215493,101.38211 56.687500,119.75000 C 57.897501,123.81200 59.501250,127.96500 61.406250,131.75000 C 69.018250,146.87501 82.361500,158.52400 93.687500,170.75000 C 100.85850,178.49201 105.41450,185.55700 112.31250,193.62500 C 118.72850,201.13001 123.96100,212.93000 130.25000,220.75000 C 138.27300,230.72500 150.97325,238.02450 162.78125,242.56250 C 198.21224,256.17951 258.81350,256.92525 259.06250,205.90625 C 259.08851,200.57124 257.80025,194.02525 256.28125,188.90625 C 253.68526,180.16025 247.00400,172.15725 241.25000,165.65625 C 219.97600,141.62225 189.76925,128.14000 166.78125,105.75000 C 150.69524,90.082999 136.90425,75.454000 117.78125,63.375000 C 110.02850,58.477501 100.62116,54.955423 91.235999,54.814417 z "
       id="path60"
       sodipodi:nodetypes="ccccccccccccccccc" />
    <path
       style="fill:#78423b;stroke:none;"
       d="M 193.13300,81.031600 C 189.42000,83.107500 184.36400,92.811500 185.64700,97.000000 C 187.54100,103.17700 195.52400,108.98900 199.53600,114.00000 C 204.96800,120.78300 207.61200,128.75100 212.27500,135.77200 C 214.42400,139.00800 218.59600,139.45000 221.85200,137.54200 C 226.73200,134.68300 224.68500,128.03400 222.59700,124.00000 C 216.40600,112.04000 209.73600,100.34000 203.94800,88.089500 C 201.93000,83.820000 199.09900,77.696400 193.13300,81.031600 z "
       id="path10"
       transform="translate(-140.2181,-56.24366)" />
    <path
       style="fill:#cc6f64;stroke:none;"
       d="M 215.64038,135.57308 C 216.95656,139.03036 221.77400,133.03300 220.43100,128.00000 C 217.58700,117.34900 209.13900,106.19900 204.52200,96.000000 C 203.08700,92.829900 201.36600,86.058000 198.45400,84.047100 C 193.36400,80.531400 188.90400,91.358800 189.20300,95.000000 C 189.72000,101.31200 198.04700,107.36300 201.92000,112.01500 C 207.54200,118.76800 213.61900,126.92954 215.64038,135.57308 z "
       id="path16"
       transform="translate(-140.2181,-56.24366)"
       sodipodi:nodetypes="ccccccc" />
    <path
       sodipodi:type="arc"
       style="fill:#7ed77e;fill-opacity:1.0000000;fill-rule:evenodd;stroke:none;stroke-width:1.0000000pt;stroke-linecap:butt;stroke-linejoin:miter;stroke-opacity:1.0000000;"
       id="path1395"
       sodipodi:cx="59.620975"
       sodipodi:cy="71.696106"
       sodipodi:rx="6.0375671"
       sodipodi:ry="12.527951"
       d="M 62.970886,82.118787 A 6.0375671,12.527951 0 1 1 56.556679,60.901658 L 59.620975,71.696106 z"
       transform="matrix(1.551418,0.000000,0.000000,0.858607,-27.85622,15.03147)"
       sodipodi:start="0.96691241"
       sodipodi:end="4.1783182" />
    <path
       style="fill:url(#linearGradient3902);stroke:none;"
       d="M 91.510172,49.812498 C 89.017466,49.754058 86.215515,50.462608 83.528002,51.023588 L 79.371167,52.523588 C 81.937443,57.328688 84.277340,61.631598 86.781250,66.468748 C 90.170750,73.017248 94.254072,82.319408 86.332251,86.960498 C 81.046706,90.057802 73.519776,90.815582 70.031250,85.562498 C 65.832352,79.240288 62.607577,72.458788 59.093750,65.781248 L 58.906250,65.906248 C 51.898087,69.173338 48.941247,74.756998 46.281247,81.749998 C 38.669247,101.76400 42.599247,115.24100 49.781247,134.75000 C 57.086250,154.59401 68.710250,171.81600 74.156250,192.75000 C 78.193253,208.26801 74.755500,223.70800 77.562500,238.75000 C 85.016497,278.70101 117.68275,324.84825 163.09375,316.28125 C 173.64174,314.29126 188.89850,304.45350 196.56250,297.06250 C 200.95950,292.82050 202.47275,287.26200 208.09375,283.75000 C 220.69474,275.87700 235.85475,282.78125 247.09375,272.65625 C 254.21674,266.23925 257.78175,261.70800 263.59375,254.37500 C 269.36475,247.09401 272.28425,236.79700 274.03125,227.75000 C 285.44124,168.64001 220.17550,141.47575 183.18750,111.09375 C 155.03531,87.969378 134.43945,48.842898 91.510172,49.812498 z "
       id="path3272"
       sodipodi:nodetypes="cccccccccccccccccccc" />
  </g>

  <metadata>
    <rdf:RDF 
     xmlns="http://web.resource.org/cc/"
     xmlns:dc="http://purl.org/dc/elements/1.1/"
     xmlns:rdf="http://www.w3.org/1999/02/22-rdf-syntax-ns#">
      <Work rdf:about="">
        <dc:title>Green Pear</dc:title>
	<dc:description></dc:description>
        <dc:subject>
          <rdf:Bag>
            <rdf:li>food</rdf:li>
            <rdf:li>fruit</rdf:li>
            <rdf:li>pear</rdf:li>
          </rdf:Bag>
        </dc:subject>
        <dc:publisher>
           <Agent rdf:about="http://www.openclipart.org">
             <dc:title></dc:title>
           </Agent>
         </dc:publisher>
         <dc:creator>
           <Agent rdf:about="">
             <dc:title>Jean-Victor Balin</dc:title>
           </Agent>
        </dc:creator>
         <dc:rights>
           <Agent rdf:about="">
             <dc:title></dc:title>
           </Agent>
        </dc:rights>
        <dc:date></dc:date>
        <dc:format>image/svg+xml</dc:format>
        <dc:type rdf:resource="http://purl.org/dc/dcmitype/StillImage" />
        <license rdf:resource="Public Domain">
	  <dc:date>12</dc:date>
	</license>
        <dc:language>en</dc:language>
      </Work>

      <License rdf:about="Public Domain">
         <permits rdf:resource="http://web.resource.org/cc/Reproduction" />
         <permits rdf:resource="http://web.resource.org/cc/Distribution" />
         <permits rdf:resource="http://web.resource.org/cc/DerivativeWorks" />
      </License>


    </rdf:RDF>
  </metadata>
</svg>
