<?xml version="1.0" encoding="UTF-8" standalone="no"?>
<!DOCTYPE svg PUBLIC "-//W3C//DTD SVG 20010904//EN"
"http://www.w3.org/TR/2001/REC-SVG-20010904/DTD/svg10.dtd">
<!-- Created with Inkscape (http://www.inkscape.org/) -->
<svg
   id="svg1"
   sodipodi:version="0.32"
   inkscape:version="0.38.1"
   width="400.00000pt"
   height="400.00000pt"
   sodipodi:docbase="/var/www/html/svg_gallery/svg/fruits"
   sodipodi:docname="pineapple.svg"
   xmlns="http://www.w3.org/2000/svg"
   xmlns:inkscape="http://www.inkscape.org/namespaces/inkscape"
   xmlns:sodipodi="http://sodipodi.sourceforge.net/DTD/sodipodi-0.dtd"
   xmlns:xlink="http://www.w3.org/1999/xlink">
  <defs
     id="defs3">
    <linearGradient
       id="linearGradient855">
      <stop
         style="stop-color:#dd7d0c;stop-opacity:1.0000000;"
         offset="0.0000000"
         id="stop856" />
      <stop
         style="stop-color:#d5a224;stop-opacity:1.0000000;"
         offset="1.0000000"
         id="stop857" />
    </linearGradient>
    <linearGradient
       id="linearGradient829">
      <stop
         style="stop-color:#ffffff;stop-opacity:0.34166667;"
         offset="0.0000000"
         id="stop830" />
      <stop
         style="stop-color:#ffffff;stop-opacity:0.0000000;"
         offset="1.0000000"
         id="stop831" />
    </linearGradient>
    <radialGradient
       xlink:href="#linearGradient855"
       id="radialGradient832"
       cx="0.47744361"
       cy="0.53233832"
       r="0.42021352"
       fx="0.47744361"
       fy="0.53233832" />
    <linearGradient
       xlink:href="#linearGradient829"
       id="linearGradient850"
       x1="-0.69607842"
       y1="0.25373134"
       x2="1.1470588"
       y2="0.28358209" />
    <linearGradient
       xlink:href="#linearGradient855"
       id="linearGradient854"
       x1="0.55147058"
       y1="-0.14843750"
       x2="0.51470590"
       y2="1.5468750" />
    <radialGradient
       xlink:href="#linearGradient855"
       id="radialGradient874" />
    <linearGradient
       xlink:href="#linearGradient829"
       id="linearGradient875"
       x1="2.2527011e-16"
       y1="0.50000000"
       x2="1.0000000"
       y2="0.50000000" />
  </defs>
  <sodipodi:namedview
     id="base"
     pagecolor="#ffffff"
     bordercolor="#666666"
     borderopacity="1.0"
     inkscape:pageopacity="0.0"
     inkscape:pageshadow="2"
     inkscape:zoom="1.0000000"
     inkscape:cx="290.85751"
     inkscape:cy="253.03802"
     inkscape:window-width="871"
     inkscape:window-height="758"
     showgrid="true"
     inkscape:window-x="154"
     inkscape:window-y="24" />
  <g
     id="g965">
    <path
       style="fill:url(#radialGradient874);fill-opacity:0.75000000;fill-rule:evenodd;stroke:#000000;stroke-width:10.000000;stroke-linejoin:round;stroke-opacity:1.0000000;stroke-dasharray:none;"
       d="M 225.35295,162.87689 C 225.35295,162.87689 158.40947,197.50283 156.10107,202.11962 C 153.79268,206.73641 128.40033,224.43411 121.47514,239.82342 C 115.31942,253.67379 103.00797,292.14705 98.391178,319.84781 C 99.160644,325.23406 98.391178,390.63861 107.62476,399.87219 C 116.85834,409.10577 193.80487,466.04621 219.19722,468.35460 C 244.58958,476.04925 279.98498,475.27979 296.91322,469.89353 C 324.61396,458.35155 343.85060,442.19278 353.85364,431.42027 C 363.85669,401.41112 392.32690,322.15620 392.32691,296.76385 C 386.94065,278.29668 378.47654,248.28753 363.08723,218.27839 C 343.85060,175.18834 225.35295,154.41277 225.35295,162.87689 z "
       id="path902"
       sodipodi:nodetypes="ccccccccccc" />
    <path
       style="fill:#007300;fill-rule:evenodd;stroke:#000000;stroke-width:10.000000;stroke-linejoin:round;stroke-dasharray:none;"
       d="M 212.22058,142.34123 C 206.48297,107.74206 163.98541,118.86765 125.39945,110.42243 C 188.18719,102.07903 245.46064,113.46129 245.46064,113.46129 C 218.88559,87.562104 244.92435,48.993790 226.09132,21.868740 C 280.66058,58.870420 248.22718,98.055764 274.44039,106.52700 C 269.08077,77.542224 330.16656,82.213272 387.39559,40.675338 C 372.05251,87.132237 321.72047,101.75403 314.27906,122.48512 C 315.72182,132.94759 329.80744,127.81781 324.39294,138.99917 C 335.55795,152.96615 384.28400,113.67769 414.60057,111.25089 C 410.11746,137.69512 336.78009,148.32020 346.00028,174.38126 C 313.23845,153.19748 276.16069,143.71976 212.22058,142.34123 z "
       id="path901"
       sodipodi:nodetypes="ccccccccccc" />
    <path
       style="fill:#00cc00;fill-opacity:0.49999997;fill-rule:evenodd;stroke-width:1.0000000pt;"
       d="M 370.05536,58.553438 C 348.91660,83.765822 317.98923,87.419275 288.92686,124.94574 C 295.77471,95.004560 320.61348,85.143345 370.05536,58.553438 z "
       id="path908"
       sodipodi:nodetypes="ccc" />
    <path
       style="fill:#00cc00;fill-opacity:0.49999997;fill-rule:evenodd;stroke-width:1.0000000pt;"
       d="M 236.05541,38.428182 C 252.37823,61.280135 220.79097,78.590969 256.69325,111.29209 C 248.49357,69.159033 248.43213,85.252727 236.05541,38.428182 z "
       id="path910"
       sodipodi:nodetypes="ccc" />
    <path
       style="fill:#007300;fill-rule:evenodd;stroke:#000000;stroke-width:10.000000;stroke-linejoin:round;stroke-dasharray:none;"
       d="M 211.93898,141.93249 C 206.20137,107.33332 163.70381,118.45891 125.11785,110.01369 C 187.90559,101.67029 228.85622,115.22893 228.85622,115.22893 C 202.28117,89.329740 153.39275,44.835048 134.55972,17.709996 C 189.12898,54.711680 240.32826,99.823400 266.54147,108.29464 C 261.18185,79.309851 325.07510,87.362788 350.74667,19.708340 C 369.13743,41.136902 305.18887,98.845290 297.74746,119.57638 C 299.19022,130.03885 328.48229,85.542478 426.88176,67.570307 C 381.27974,95.198340 329.52584,127.40907 324.11134,138.59043 C 335.27635,152.55741 434.00240,134.51895 464.31897,132.09215 C 459.83586,158.53638 336.49849,147.91146 345.71868,173.97252 C 312.95685,152.78874 275.87909,143.31102 211.93898,141.93249 z "
       id="path900"
       sodipodi:nodetypes="cccccccccccc" />
    <path
       style="fill:#00cc00;fill-opacity:0.49999997;fill-rule:evenodd;stroke-width:1.0000000pt;"
       d="M 387.21085,84.353863 C 358.61658,96.206616 334.42466,113.10239 292.30403,139.74698 C 311.12195,117.42311 330.61485,101.98138 387.21085,84.353863 z "
       id="path905"
       sodipodi:nodetypes="ccc" />
    <path
       style="fill:#00cc00;fill-opacity:0.49999997;fill-rule:evenodd;stroke-width:1.0000000pt;"
       d="M 460.68444,136.68923 C 429.12698,141.04198 418.48884,151.29131 409.01386,142.02570 C 427.83178,140.37739 407.97801,142.60356 460.68444,136.68923 z "
       id="path907"
       sodipodi:nodetypes="ccc" />
    <path
       style="fill:#00cc00;fill-opacity:0.49999997;fill-rule:evenodd;stroke-width:1.0000000pt;"
       d="M 337.65243,47.657391 C 305.56505,110.00773 310.91600,80.346054 281.85363,102.63787 C 285.43692,74.873076 316.31938,91.636065 337.65243,47.657391 z "
       id="path909"
       sodipodi:nodetypes="ccc" />
    <path
       style="fill:#00cc00;fill-opacity:0.49999997;fill-rule:evenodd;stroke-width:1.0000000pt;"
       d="M 137.33179,109.20219 C 208.06402,105.93764 187.82079,108.57209 206.02045,118.58307 C 191.32369,112.26516 210.85520,109.67559 137.33179,109.20219 z "
       id="path914"
       sodipodi:nodetypes="ccc" />
    <path
       style="fill:#00cc00;fill-opacity:0.49999997;fill-rule:evenodd;stroke-width:1.0000000pt;"
       d="M 141.03716,24.214994 C 188.91744,69.918899 217.45358,68.267349 257.36274,113.00528 C 266.59632,113.77475 180.68533,66.039540 141.03716,24.214994 z "
       id="path911"
       sodipodi:nodetypes="ccc" />
    <path
       style="fill:#007300;fill-rule:evenodd;stroke:#000000;stroke-width:10.000000;stroke-linejoin:round;stroke-dasharray:none;"
       d="M 213.52907,164.09309 C 207.79146,129.49390 162.25923,147.45488 125.59824,164.59807 C 173.48880,114.16757 230.44630,137.38953 230.44630,137.38953 C 203.87126,111.49033 191.28944,70.003136 123.03951,61.503894 C 207.13235,47.383643 241.91835,121.98399 268.13155,130.45522 C 262.77195,101.47044 255.04184,95.044590 280.71341,27.390137 C 299.10417,48.818699 306.77897,121.00589 299.33755,141.73698 C 300.78030,152.19943 368.21023,70.842925 479.71212,106.48149 C 428.81705,97.820400 331.11593,149.56967 325.70143,160.75102 C 336.86644,174.71800 412.59938,112.46277 436.42198,177.03066 C 406.36434,159.66959 338.08858,170.07206 347.30877,196.13312 C 314.54695,174.94933 277.46919,165.47161 213.52907,164.09309 z "
       id="path898"
       sodipodi:nodetypes="cccccccccccc" />
    <path
       style="fill:#00cc00;fill-opacity:0.49999997;fill-rule:evenodd;stroke-width:1.0000000pt;"
       d="M 147.09285,153.79445 C 214.61309,123.32519 203.65679,131.04300 243.65571,158.63244 C 215.09878,154.66442 245.11049,165.64753 219.58257,154.50314 C 202.91886,128.25764 182.98684,140.06876 147.09285,153.79445 z "
       id="path913"
       sodipodi:nodetypes="cccc" />
    <path
       style="fill:url(#radialGradient832);fill-opacity:0.75000000;fill-rule:evenodd;stroke:#000000;stroke-width:10.000000;stroke-linejoin:round;stroke-opacity:1.0000000;stroke-dasharray:none;"
       d="M 231.91694,162.16473 C 245.07411,173.25946 223.88613,181.66894 213.10720,189.73872 C 208.91597,196.26986 188.80120,197.52171 181.42684,187.94818 C 172.89591,178.07041 210.29868,160.35674 231.91694,162.16473 z "
       id="path891"
       sodipodi:nodetypes="cccc" />
    <path
       style="fill:url(#radialGradient832);fill-opacity:0.75000000;fill-rule:evenodd;stroke:#000000;stroke-width:10.000000;stroke-linejoin:round;stroke-opacity:1.0000000;stroke-dasharray:none;"
       d="M 234.63001,172.24034 C 246.81492,151.78735 290.96331,168.23402 293.71143,176.59059 C 289.52020,183.12173 279.17627,198.93961 267.07407,197.93711 C 259.24646,194.78749 242.00437,181.81387 234.63001,172.24034 z "
       id="path896"
       sodipodi:nodetypes="cccc" />
    <path
       style="fill:url(#radialGradient832);fill-opacity:0.75000000;fill-rule:evenodd;stroke:#000000;stroke-width:10.000000;stroke-linejoin:round;stroke-opacity:1.0000000;stroke-dasharray:none;"
       d="M 325.28795,204.52638 C 320.76330,193.52144 307.60614,182.42672 317.58018,177.41677 C 339.47448,181.94430 367.67164,209.91405 370.63439,236.02145 C 362.80676,232.87184 332.66231,214.09991 325.28795,204.52638 z "
       id="path895"
       sodipodi:nodetypes="cccc" />
    <path
       style="fill:url(#radialGradient832);fill-opacity:0.75000000;fill-rule:evenodd;stroke:#000000;stroke-width:10.000000;stroke-linejoin:round;stroke-opacity:1.0000000;stroke-dasharray:none;"
       d="M 274.28176,198.74260 C 277.23307,187.52321 287.20710,174.81861 299.49425,170.41714 C 316.84265,174.98073 323.68041,194.28880 326.42853,202.64537 C 322.23730,209.17651 316.06636,232.63525 303.96416,231.63275 C 296.13654,228.48313 281.65611,208.31613 274.28176,198.74260 z "
       id="path894"
       sodipodi:nodetypes="ccccc" />
    <path
       style="fill:url(#radialGradient832);fill-opacity:0.75000000;fill-rule:evenodd;stroke:#000000;stroke-width:10.000000;stroke-linejoin:round;stroke-opacity:1.0000000;stroke-dasharray:none;"
       d="M 178.22307,182.74332 C 189.52036,186.80565 190.30703,197.91782 177.03002,210.78309 C 172.83879,217.31423 169.01745,213.03744 152.72402,218.56607 C 144.19309,208.68831 165.93592,187.14478 178.22307,182.74332 z "
       id="path885"
       sodipodi:nodetypes="cccc" />
    <path
       style="fill:url(#radialGradient832);fill-opacity:0.75000000;fill-rule:evenodd;stroke:#000000;stroke-width:10.000000;stroke-linejoin:round;stroke-opacity:1.0000000;stroke-dasharray:none;"
       d="M 211.18932,194.14157 C 214.14064,182.92217 224.11468,177.91223 236.40182,173.51077 C 253.75022,178.07435 260.58798,189.68777 263.33611,198.04434 C 259.14488,204.57548 247.72774,224.47313 235.62554,223.47063 C 227.79792,220.32102 218.56369,203.71509 211.18932,194.14157 z "
       id="path892"
       sodipodi:nodetypes="ccccc" />
    <path
       style="fill:url(#radialGradient832);fill-opacity:0.75000000;fill-rule:evenodd;stroke:#000000;stroke-width:10.000000;stroke-linejoin:round;stroke-opacity:1.0000000;stroke-dasharray:none;"
       d="M 174.41121,211.72998 C 177.36253,200.51058 187.33657,195.50064 199.62371,191.09918 C 216.97210,195.66276 223.80986,207.27618 226.55799,215.63275 C 222.36676,222.16389 212.20778,232.57780 195.91435,238.10643 C 188.08673,234.95682 181.78557,221.30351 174.41121,211.72998 z "
       id="path869"
       sodipodi:nodetypes="ccccc" />
    <path
       style="fill:url(#radialGradient832);fill-opacity:0.75000000;fill-rule:evenodd;stroke:#000000;stroke-width:10.000000;stroke-linejoin:round;stroke-opacity:1.0000000;stroke-dasharray:none;"
       d="M 245.95120,221.82476 C 248.90252,210.60536 255.05522,201.31863 267.34238,196.91716 C 284.69077,201.48074 299.97610,218.58791 302.72423,226.94449 C 298.53299,233.47563 282.13796,248.79225 270.03576,247.78975 C 262.20815,244.64013 253.32557,231.39828 245.95120,221.82476 z "
       id="path868"
       sodipodi:nodetypes="ccccc" />
    <path
       style="fill:url(#radialGradient832);fill-opacity:0.75000000;fill-rule:evenodd;stroke:#000000;stroke-width:10.000000;stroke-linejoin:round;stroke-opacity:1.0000000;stroke-dasharray:none;"
       d="M 306.19392,227.85721 C 309.14524,216.63780 319.92418,208.56803 332.21133,204.16657 C 349.55973,208.73016 356.39748,220.34357 359.14561,228.70014 C 354.95438,235.23128 348.08012,251.96187 335.97793,250.95937 C 328.15031,247.80975 313.56829,237.43074 306.19392,227.85721 z "
       id="path893"
       sodipodi:nodetypes="ccccc" />
    <path
       style="fill:url(#radialGradient832);fill-opacity:0.75000000;fill-rule:evenodd;stroke:#000000;stroke-width:10.000000;stroke-linejoin:round;stroke-opacity:1.0000000;stroke-dasharray:none;"
       d="M 348.90101,251.08728 C 353.09224,244.55615 345.63453,230.59860 355.60855,225.58865 C 376.50998,235.44898 389.73225,265.09972 373.43882,270.62836 C 365.61121,267.47875 356.27537,260.66081 348.90101,251.08728 z "
       id="path890"
       sodipodi:nodetypes="cccc" />
    <path
       style="fill:url(#radialGradient832);fill-opacity:0.75000000;fill-rule:evenodd;stroke:#000000;stroke-width:10.000000;stroke-linejoin:round;stroke-opacity:1.0000000;stroke-dasharray:none;"
       d="M 279.08998,250.52766 C 282.04130,239.30825 292.01534,234.29832 304.30248,229.89685 C 321.65089,234.46044 328.48864,246.07385 331.23677,254.43042 C 327.04554,260.96156 324.71417,274.52509 308.42074,280.05373 C 300.59313,276.90412 286.46435,260.10119 279.08998,250.52766 z "
       id="path858"
       sodipodi:nodetypes="ccccc" />
    <path
       style="fill:url(#radialGradient832);fill-opacity:0.75000000;fill-rule:evenodd;stroke:#000000;stroke-width:10.000000;stroke-linejoin:round;stroke-opacity:1.0000000;stroke-dasharray:none;"
       d="M 197.11259,240.60269 C 200.06391,229.38329 214.41412,212.43824 233.18738,216.28613 C 245.37293,221.67265 259.68666,233.07160 260.12166,240.81970 C 255.93043,247.35084 250.74934,262.34578 234.45591,267.87442 C 217.72747,265.65496 204.48695,250.17622 197.11259,240.60269 z "
       id="path849"
       sodipodi:nodetypes="ccccc" />
    <path
       style="fill:url(#radialGradient832);fill-opacity:0.75000000;fill-rule:evenodd;stroke:#000000;stroke-width:10.000000;stroke-linejoin:round;stroke-opacity:1.0000000;stroke-dasharray:none;"
       d="M 151.04910,206.12972 C 163.50296,210.49629 151.03086,220.30172 148.34784,230.50117 C 144.15661,237.03232 137.45956,243.08052 121.16612,248.60916 C 112.63520,238.73139 138.76196,210.53119 151.04910,206.12972 z "
       id="path884"
       sodipodi:nodetypes="cccc" />
    <path
       style="fill:url(#radialGradient832);fill-opacity:0.75000000;fill-rule:evenodd;stroke:#000000;stroke-width:10.000000;stroke-linejoin:round;stroke-opacity:1.0000000;stroke-dasharray:none;"
       d="M 142.34270,234.91938 C 145.29402,223.69998 155.80466,216.65014 168.09181,212.24868 C 177.61259,213.66264 191.74136,230.46557 194.48949,238.82215 C 190.29826,245.35329 182.45239,256.37567 166.15896,261.90431 C 158.33134,258.75469 149.71707,244.49290 142.34270,234.91938 z "
       id="path870"
       sodipodi:nodetypes="ccccc" />
    <path
       style="fill:url(#radialGradient832);fill-opacity:0.75000000;fill-rule:evenodd;stroke:#000000;stroke-width:10.000000;stroke-linejoin:round;stroke-opacity:1.0000000;stroke-dasharray:none;"
       d="M 111.78242,261.77708 C 114.73374,250.55768 128.36239,241.05649 140.64955,236.65502 C 157.99794,241.21861 161.18107,257.32328 163.92919,265.67985 C 159.73796,272.21099 146.37760,280.69223 130.08417,286.22088 C 122.25656,283.07125 119.15677,271.35060 111.78242,261.77708 z "
       id="path871"
       sodipodi:nodetypes="ccccc" />
    <path
       style="fill:url(#radialGradient832);fill-opacity:0.75000000;fill-rule:evenodd;stroke:#000000;stroke-width:10.000000;stroke-linejoin:round;stroke-opacity:1.0000000;stroke-dasharray:none;"
       d="M 162.38943,271.08357 C 165.34076,259.86417 179.60761,238.53511 198.38087,242.38299 C 211.80633,252.45776 223.45528,259.88418 229.67308,269.15347 C 225.48186,275.68460 218.44090,283.64715 199.64939,293.97128 C 182.92096,291.75183 169.76380,280.65710 162.38943,271.08357 z "
       id="path852"
       sodipodi:nodetypes="ccccc" />
    <path
       style="fill:url(#radialGradient832);fill-opacity:0.75000000;fill-rule:evenodd;stroke:#000000;stroke-width:10.000000;stroke-linejoin:round;stroke-opacity:1.0000000;stroke-dasharray:none;"
       d="M 238.57391,268.22330 C 241.52523,257.00390 255.95879,244.44288 270.29076,241.66983 C 283.71623,251.74461 291.97884,262.64232 298.46496,270.89166 C 294.27372,277.42280 292.21066,289.96639 275.91723,295.49503 C 259.99370,290.21573 245.94827,277.79683 238.57391,268.22330 z "
       id="path851"
       sodipodi:nodetypes="ccccc" />
    <path
       style="fill:url(#radialGradient832);fill-opacity:0.75000000;fill-rule:evenodd;stroke:#000000;stroke-width:10.000000;stroke-linejoin:round;stroke-opacity:1.0000000;stroke-dasharray:none;"
       d="M 321.17445,274.32833 C 324.12577,263.10892 332.96148,243.62274 349.15332,247.88208 C 369.70309,254.37834 370.57310,269.87452 373.32123,278.23109 C 371.52646,289.75473 361.63579,299.14869 344.90735,296.92924 C 337.07974,293.77962 328.54881,283.90186 321.17445,274.32833 z "
       id="path867"
       sodipodi:nodetypes="ccccc" />
    <path
       style="fill:url(#radialGradient832);fill-opacity:0.75000000;fill-rule:evenodd;stroke:#000000;stroke-width:10.000000;stroke-linejoin:round;stroke-opacity:1.0000000;stroke-dasharray:none;"
       d="M 355.93635,302.01152 C 358.88767,290.79212 368.07505,274.67001 380.36219,270.26854 C 394.40762,282.68745 397.48915,308.58010 386.60862,326.43787 C 366.84550,331.05378 363.31072,311.58504 355.93635,302.01152 z "
       id="path881"
       sodipodi:nodetypes="cccc" />
    <path
       style="fill:url(#radialGradient832);fill-opacity:0.75000000;fill-rule:evenodd;stroke:#000000;stroke-width:10.000000;stroke-linejoin:round;stroke-opacity:1.0000000;stroke-dasharray:none;"
       d="M 277.15714,300.18328 C 280.10846,288.96389 294.45867,272.01884 313.23193,275.86672 C 330.58032,280.43031 344.35744,293.86916 340.16621,300.40029 C 335.97498,306.93143 330.71054,317.54236 314.41711,323.07099 C 297.68867,320.85154 284.53151,309.75681 277.15714,300.18328 z "
       id="path854"
       sodipodi:nodetypes="ccccc" />
    <path
       style="fill:url(#radialGradient832);fill-opacity:0.75000000;fill-rule:evenodd;stroke:#000000;stroke-width:10.000000;stroke-linejoin:round;stroke-opacity:1.0000000;stroke-dasharray:none;"
       d="M 203.73903,297.22813 C 206.69035,286.00873 220.85561,274.46764 234.83592,268.33053 C 249.95456,276.66965 274.67731,290.80676 270.48608,297.33791 C 266.29485,303.86905 259.33725,316.21561 243.04382,321.74426 C 226.31538,319.52480 211.11340,306.80165 203.73903,297.22813 z "
       id="path853"
       sodipodi:nodetypes="ccccc" />
    <path
       style="fill:url(#radialGradient832);fill-opacity:0.75000000;fill-rule:evenodd;stroke:#000000;stroke-width:10.000000;stroke-linejoin:round;stroke-opacity:1.0000000;stroke-dasharray:none;"
       d="M 132.81899,289.47748 C 140.39656,279.47503 145.66099,268.86412 161.50117,269.75938 C 178.84957,274.32297 187.73214,287.56482 195.10651,297.13834 C 190.91528,303.66948 179.06314,315.81904 162.76970,321.34767 C 146.04127,319.12822 140.19336,299.05100 132.81899,289.47748 z "
       id="path865"
       sodipodi:nodetypes="ccccc" />
    <path
       style="fill:url(#radialGradient832);fill-opacity:0.75000000;fill-rule:evenodd;stroke:#000000;stroke-width:10.000000;stroke-linejoin:round;stroke-opacity:1.0000000;stroke-dasharray:none;"
       d="M 114.09554,262.38556 C 131.44394,266.94914 124.83799,282.65979 127.58611,291.01636 C 123.39488,297.54750 116.71029,311.79101 100.41687,317.31964 C 91.885943,307.44187 101.80839,266.78702 114.09554,262.38556 z "
       id="path879"
       sodipodi:nodetypes="cccc" />
    <path
       style="fill:url(#radialGradient832);fill-opacity:0.75000000;fill-rule:evenodd;stroke:#000000;stroke-width:10.000000;stroke-linejoin:round;stroke-opacity:1.0000000;stroke-dasharray:none;"
       d="M 105.39003,318.98379 C 108.34135,307.76440 116.37216,291.33805 128.65931,286.93658 C 146.00771,291.50016 154.78869,314.52999 157.53681,322.88656 C 153.34558,329.41771 145.41637,336.05607 129.12294,341.58470 C 121.29532,338.43509 112.76440,328.55732 105.39003,318.98379 z "
       id="path872"
       sodipodi:nodetypes="ccccc" />
    <path
       style="fill:url(#radialGradient832);fill-opacity:0.75000000;fill-rule:evenodd;stroke:#000000;stroke-width:10.000000;stroke-linejoin:round;stroke-opacity:1.0000000;stroke-dasharray:none;"
       d="M 168.20085,319.50480 C 171.15217,308.28540 183.18926,290.73188 201.96251,294.57976 C 213.61146,302.00616 227.92519,313.40513 228.36019,321.15322 C 224.16896,327.68436 221.83760,341.24789 205.54416,346.77653 C 188.81572,344.55707 175.57521,329.07833 168.20085,319.50480 z "
       id="path856"
       sodipodi:nodetypes="ccccc" />
    <path
       style="fill:url(#radialGradient832);fill-opacity:0.75000000;fill-rule:evenodd;stroke:#000000;stroke-width:10.000000;stroke-linejoin:round;stroke-opacity:1.0000000;stroke-dasharray:none;"
       d="M 247.40175,323.98115 C 250.35307,312.76176 260.16040,298.98378 273.60410,294.88655 C 290.95251,299.45014 311.13238,316.75431 310.41083,324.19816 C 306.21959,330.72930 291.51773,344.31027 275.22429,349.83891 C 258.49585,347.61946 254.77612,333.55468 247.40175,323.98115 z "
       id="path855"
       sodipodi:nodetypes="ccccc" />
    <path
       style="fill:url(#radialGradient832);fill-opacity:0.75000000;fill-rule:evenodd;stroke:#000000;stroke-width:10.000000;stroke-linejoin:round;stroke-opacity:1.0000000;stroke-dasharray:none;"
       d="M 312.10398,322.46251 C 315.05530,311.24312 329.40552,294.29807 348.17877,298.14595 C 365.52717,302.70954 372.88329,326.45507 368.69206,332.98621 C 364.50083,339.51735 366.62900,345.52979 350.33556,351.05842 C 333.60713,348.83897 319.47835,332.03604 312.10398,322.46251 z "
       id="path861"
       sodipodi:nodetypes="ccccc" />
    <path
       style="fill:url(#radialGradient832);fill-opacity:0.75000000;fill-rule:evenodd;stroke:#000000;stroke-width:10.000000;stroke-linejoin:round;stroke-opacity:1.0000000;stroke-dasharray:none;"
       d="M 361.74777,350.43275 C 365.77229,335.13357 367.29876,324.62988 383.94385,322.46531 C 394.87124,337.33558 391.28171,360.38285 374.98829,365.91148 C 367.16067,362.76187 369.12213,360.00628 361.74777,350.43275 z "
       id="path882"
       sodipodi:nodetypes="cccc" />
    <path
       style="fill:url(#radialGradient832);fill-opacity:0.75000000;fill-rule:evenodd;stroke:#000000;stroke-width:10.000000;stroke-linejoin:round;stroke-opacity:1.0000000;stroke-dasharray:none;"
       d="M 281.89535,352.68429 C 284.84667,341.46490 299.19688,324.51985 317.97014,328.36773 C 335.31853,332.93131 349.09565,346.37017 344.90442,352.90130 C 340.71319,359.43244 340.69494,373.60445 324.40151,379.13308 C 307.67307,376.91363 289.26971,362.25782 281.89535,352.68429 z "
       id="path860"
       sodipodi:nodetypes="ccccc" />
    <path
       style="fill:url(#radialGradient832);fill-opacity:0.75000000;fill-rule:evenodd;stroke:#000000;stroke-width:10.000000;stroke-linejoin:round;stroke-opacity:1.0000000;stroke-dasharray:none;"
       d="M 206.70073,347.08077 C 214.27828,337.07832 218.83941,319.73925 242.69216,318.38018 C 254.87772,323.76670 273.36443,342.80653 269.17319,349.33766 C 264.98196,355.86880 259.53257,371.88369 243.23914,377.41232 C 226.51070,375.19287 214.07509,356.65430 206.70073,347.08077 z "
       id="path857"
       sodipodi:nodetypes="ccccc" />
    <path
       style="fill:url(#radialGradient832);fill-opacity:0.75000000;fill-rule:evenodd;stroke:#000000;stroke-width:10.000000;stroke-linejoin:round;stroke-opacity:1.0000000;stroke-dasharray:none;"
       d="M 133.09766,349.52957 C 136.04899,338.31017 146.30957,318.10828 164.99947,317.57214 C 181.00635,327.23545 198.52146,340.56707 200.11302,348.61941 C 195.92178,355.15054 186.65106,366.88863 170.35763,372.41728 C 153.62919,370.19782 140.47203,359.10310 133.09766,349.52957 z "
       id="path864"
       sodipodi:nodetypes="ccccc" />
    <path
       style="fill:url(#radialGradient832);fill-opacity:0.75000000;fill-rule:evenodd;stroke:#000000;stroke-width:10.000000;stroke-linejoin:round;stroke-opacity:1.0000000;stroke-dasharray:none;"
       d="M 106.73155,313.88407 C 124.07994,318.44765 132.86093,341.47748 135.60905,349.83405 C 131.41782,356.36520 122.78529,356.27541 106.49187,361.80405 C 86.127039,349.90384 94.444397,318.28553 106.73155,313.88407 z "
       id="path878"
       sodipodi:nodetypes="cccc" />
    <path
       style="fill:url(#radialGradient832);fill-opacity:0.75000000;fill-rule:evenodd;stroke:#000000;stroke-width:10.000000;stroke-linejoin:round;stroke-opacity:1.0000000;stroke-dasharray:none;"
       d="M 97.461716,353.43074 C 114.81011,357.99433 112.12709,368.19378 114.87522,376.55035 C 110.68399,383.08149 124.64606,394.19424 108.35262,399.72288 C 99.821702,389.84511 91.330283,361.67954 97.461716,353.43074 z "
       id="path886"
       sodipodi:nodetypes="cccc" />
    <path
       style="fill:url(#radialGradient832);fill-opacity:0.75000000;fill-rule:evenodd;stroke:#000000;stroke-width:10.000000;stroke-linejoin:round;stroke-opacity:1.0000000;stroke-dasharray:none;"
       d="M 106.81195,374.24016 C 109.76328,363.02076 124.11349,346.07571 142.88675,349.92359 C 160.23514,354.48717 174.01226,367.92603 169.82103,374.45717 C 173.80907,387.50200 159.10720,401.08296 142.81377,406.61161 C 126.08533,404.39215 114.18632,383.81368 106.81195,374.24016 z "
       id="path866"
       sodipodi:nodetypes="ccccc" />
    <path
       style="fill:url(#radialGradient832);fill-opacity:0.75000000;fill-rule:evenodd;stroke:#000000;stroke-width:10.000000;stroke-linejoin:round;stroke-opacity:1.0000000;stroke-dasharray:none;"
       d="M 170.44099,376.80129 C 173.39231,365.58190 189.08402,343.53712 207.85728,347.38500 C 225.20568,351.94859 237.64129,370.48716 233.45006,377.01830 C 229.25883,383.54944 223.99439,394.16037 207.70095,399.68900 C 190.97252,397.46955 177.81535,386.37482 170.44099,376.80129 z "
       id="path862"
       sodipodi:nodetypes="ccccc" />
    <path
       style="fill:url(#radialGradient832);fill-opacity:0.75000000;fill-rule:evenodd;stroke:#000000;stroke-width:10.000000;stroke-linejoin:round;stroke-opacity:1.0000000;stroke-dasharray:none;"
       d="M 245.90391,381.38488 C 248.85523,370.16548 263.39039,347.81646 277.80572,349.42745 C 289.10301,353.48978 317.11050,373.94358 312.91926,380.47472 C 308.72803,387.00586 299.80897,402.10802 283.51553,407.63666 C 266.78710,405.41721 253.27828,390.95841 245.90391,381.38488 z "
       id="path859"
       sodipodi:nodetypes="ccccc" />
    <path
       style="fill:url(#radialGradient832);fill-opacity:0.75000000;fill-rule:evenodd;stroke:#000000;stroke-width:10.000000;stroke-linejoin:round;stroke-opacity:1.0000000;stroke-dasharray:none;"
       d="M 328.06944,379.74180 C 331.02076,368.52241 346.25923,352.90154 358.54639,348.50009 C 387.19207,357.12600 378.75487,412.70429 350.72914,406.42250 C 342.90153,403.27288 335.44380,389.31533 328.06944,379.74180 z "
       id="path873"
       sodipodi:nodetypes="cccc" />
    <path
       style="fill:url(#radialGradient832);fill-opacity:0.75000000;fill-rule:evenodd;stroke:#000000;stroke-width:10.000000;stroke-linejoin:round;stroke-opacity:1.0000000;stroke-dasharray:none;"
       d="M 287.45177,407.22543 C 290.40309,396.00604 309.11124,381.29790 321.39839,376.89643 C 338.74678,381.46002 345.48294,402.86142 348.23107,411.21799 C 344.03983,417.74913 336.11062,424.38749 319.81719,429.91614 C 311.98958,426.76651 294.82614,416.79896 287.45177,407.22543 z "
       id="path874"
       sodipodi:nodetypes="ccccc" />
    <path
       style="fill:url(#radialGradient832);fill-opacity:0.75000000;fill-rule:evenodd;stroke:#000000;stroke-width:10.000000;stroke-linejoin:round;stroke-opacity:1.0000000;stroke-dasharray:none;"
       d="M 210.80073,411.40965 C 207.70095,399.68900 224.46588,373.56445 243.23914,377.41232 C 260.58753,381.97591 282.09067,408.35237 277.89943,414.88350 C 273.70820,421.41464 268.44377,432.02556 252.15033,437.55420 C 235.42190,435.33475 218.17509,420.98318 210.80073,411.40965 z "
       id="path863"
       sodipodi:nodetypes="ccccc" />
    <path
       style="fill:url(#radialGradient832);fill-opacity:0.75000000;fill-rule:evenodd;stroke:#000000;stroke-width:10.000000;stroke-linejoin:round;stroke-opacity:1.0000000;stroke-dasharray:none;"
       d="M 107.86199,403.60436 C 110.81331,392.38496 107.96359,393.81637 120.25074,389.41491 C 137.59914,393.97849 158.64902,426.77885 161.39714,435.13543 C 139.32092,439.14288 115.23636,413.17788 107.86199,403.60436 z "
       id="path880"
       sodipodi:nodetypes="cccc" />
    <path
       style="fill:url(#radialGradient832);fill-opacity:0.75000000;fill-rule:evenodd;stroke:#000000;stroke-width:10.000000;stroke-linejoin:round;stroke-opacity:1.0000000;stroke-dasharray:none;"
       d="M 199.91526,448.53938 C 201.45997,423.86369 215.44028,417.72657 227.62583,423.11309 C 244.97422,427.67668 267.30051,436.82129 262.92433,448.75639 C 258.73310,455.28754 244.29953,467.84856 223.64816,471.14030 C 215.82055,467.99068 207.28962,458.11291 199.91526,448.53938 z "
       id="path877"
       sodipodi:nodetypes="ccccc" />
    <path
       style="fill:url(#radialGradient832);fill-opacity:0.75000000;fill-rule:evenodd;stroke:#000000;stroke-width:10.000000;stroke-linejoin:round;stroke-opacity:1.0000000;stroke-dasharray:none;"
       d="M 260.98111,437.33999 C 263.93243,426.12059 274.27635,410.30272 286.56351,405.90125 C 303.91190,410.46484 318.12403,431.65178 320.87216,440.00835 C 316.68092,446.53949 300.11919,453.08808 283.82576,458.61672 C 267.09732,456.39727 261.49947,449.47211 260.98111,437.33999 z "
       id="path875"
       sodipodi:nodetypes="ccccc" />
    <path
       style="fill:url(#radialGradient832);fill-opacity:0.75000000;fill-rule:evenodd;stroke:#000000;stroke-width:10.000000;stroke-linejoin:round;stroke-opacity:1.0000000;stroke-dasharray:none;"
       d="M 318.12404,431.65178 C 321.07536,420.43239 346.18154,409.75055 358.46870,405.34910 C 366.73131,416.24681 351.74762,444.85874 333.49273,453.14297 C 325.66510,449.99336 325.49840,441.22531 318.12404,431.65178 z "
       id="path883"
       sodipodi:nodetypes="cccc" />
    <path
       style="fill:url(#radialGradient832);fill-opacity:0.75000000;fill-rule:evenodd;stroke:#000000;stroke-width:10.000000;stroke-linejoin:round;stroke-opacity:1.0000000;stroke-dasharray:none;"
       d="M 286.95390,465.52871 C 280.92104,450.85547 296.22933,452.09070 308.16483,444.32516 C 317.26308,444.64741 325.79506,435.39671 332.98447,450.37421 C 323.98205,461.09236 292.63509,476.83789 286.95390,465.52871 z "
       id="path887"
       sodipodi:nodetypes="cccc" />
    <path
       style="fill:url(#radialGradient832);fill-opacity:0.75000000;fill-rule:evenodd;stroke:#000000;stroke-width:10.000000;stroke-linejoin:round;stroke-opacity:1.0000000;stroke-dasharray:none;"
       d="M 144.52023,409.97592 C 147.47155,398.75653 170.45430,381.90126 178.28191,385.05088 C 195.63030,389.61447 212.87710,403.96603 212.32225,420.17794 C 207.40947,434.15292 196.01057,439.87857 175.62750,442.15036 C 167.79989,439.00075 151.89460,419.54945 144.52023,409.97592 z "
       id="path876"
       sodipodi:nodetypes="ccccc" />
    <path
       style="fill:url(#radialGradient832);fill-opacity:0.75000000;fill-rule:evenodd;stroke:#000000;stroke-width:10.000000;stroke-linejoin:round;stroke-opacity:1.0000000;stroke-dasharray:none;"
       d="M 154.92116,436.24946 C 169.97468,426.03256 184.02010,438.45147 193.18922,436.50136 C 200.74854,440.67092 206.42974,451.98010 213.61915,466.95760 C 197.59402,471.46629 160.60236,447.55864 154.92116,436.24946 z "
       id="path889"
       sodipodi:nodetypes="cccc" />
    <path
       style="fill:url(#radialGradient832);fill-opacity:0.75000000;fill-rule:evenodd;stroke:#000000;stroke-width:10.000000;stroke-linejoin:round;stroke-opacity:1.0000000;stroke-dasharray:none;"
       d="M 231.50415,469.48126 C 246.55767,459.26436 255.64345,452.93024 264.81257,450.98013 C 272.37188,455.14969 279.57954,455.95518 293.08836,470.41398 C 282.57772,477.46381 237.18535,480.79044 231.50415,469.48126 z "
       id="path888"
       sodipodi:nodetypes="cccc" />
    <path
       style="fill:#00cc00;fill-opacity:0.49999997;fill-rule:evenodd;stroke-width:1.0000000pt;"
       d="M 282.00444,42.981727 C 282.00444,42.981727 260.13805,82.475023 275.41533,135.17614 C 284.64891,135.94561 274.09595,93.673590 282.00444,42.981727 z "
       id="path903"
       sodipodi:nodetypes="ccc" />
    <path
       style="fill:#00cc00;fill-opacity:0.49999997;fill-rule:evenodd;stroke-width:1.0000000pt;"
       d="M 429.87480,104.67768 C 391.44234,115.62631 354.90615,126.68469 314.96190,157.68204 C 333.77982,135.35816 333.55793,118.01919 429.87480,104.67768 z "
       id="path904"
       sodipodi:nodetypes="ccc" />
    <path
       style="fill:#00cc00;fill-opacity:0.49999997;fill-rule:evenodd;stroke-width:10.000000;stroke:none;stroke-opacity:1.0000000;stroke-dasharray:none;"
       d="M 421.71733,164.77600 C 380.02031,155.88036 391.45947,166.43106 342.80971,174.57645 C 385.56777,159.86990 395.73016,150.44961 421.71733,164.77600 z "
       id="path906"
       sodipodi:nodetypes="ccc" />
    <path
       style="fill:#00cc00;fill-opacity:0.49999997;fill-rule:evenodd;stroke-width:1.0000000pt;"
       d="M 174.43020,71.213394 C 224.60418,94.109840 210.40463,75.700602 237.08125,133.05585 C 222.40673,127.29619 218.15991,95.414537 174.43020,71.213394 z "
       id="path912"
       sodipodi:nodetypes="ccc" />
    <path
       style="fill:url(#linearGradient850);fill-opacity:0.75000000;fill-rule:evenodd;stroke-width:10.000000;stroke-linejoin:round;stroke:none;stroke-opacity:1.0000000;stroke-dasharray:none;"
       d="M 228.75000,167.50000 C 198.75000,145.00000 15.000000,321.25000 141.25000,425.00000 C 205.00000,407.50000 133.75000,215.00000 228.75000,167.50000 z "
       id="path915"
       sodipodi:nodetypes="ccc" />
  </g>

  <rdf:RDF 
   xmlns="http://web.resource.org/cc/"
   xmlns:dc="http://purl.org/dc/elements/1.1/"
   xmlns:rdf="http://www.w3.org/1999/02/22-rdf-syntax-ns#">
  <Work rdf:about="">
    <dc:title>Clipart by Nicu Buculei - pear</dc:title>
    <dc:rights>
       <Agent>
         <dc:title>Nicu Buculei</dc:title>
       </Agent>
    </dc:rights>
    <dc:type rdf:resource="http://purl.org/dc/dcmitype/StillImage" />
    <license rdf:resource="http://web.resource.org/cc/PublicDomain" />
  </Work>
   
  <License rdf:about="http://web.resource.org/cc/PublicDomain">
     <permits rdf:resource="http://web.resource.org/cc/Reproduction" />
     <permits rdf:resource="http://web.resource.org/cc/Distribution" />
     <permits rdf:resource="http://web.resource.org/cc/DerivativeWorks" />
  </License>

</rdf:RDF>
</svg>
