<?xml version="1.0" encoding="UTF-8" standalone="no"?>
<!-- Created with Inkscape (http://www.inkscape.org/) -->
<svg
   xmlns:dc="http://purl.org/dc/elements/1.1/"
   xmlns:cc="http://web.resource.org/cc/"
   xmlns:rdf="http://www.w3.org/1999/02/22-rdf-syntax-ns#"
   xmlns:svg="http://www.w3.org/2000/svg"
   xmlns="http://www.w3.org/2000/svg"
   xmlns:sodipodi="http://inkscape.sourceforge.net/DTD/sodipodi-0.dtd"
   xmlns:inkscape="http://www.inkscape.org/namespaces/inkscape"
   width="419.52753pt"
   height="297.63779pt"
   id="svg2"
   sodipodi:version="0.32"
   inkscape:version="0.43"
   version="1.0"
   sodipodi:docbase="/home/skarg/data/clipart/karg"
   sodipodi:docname="raspberry.svg">
  <defs
     id="defs4" />
  <sodipodi:namedview
     id="base"
     pagecolor="#ffffff"
     bordercolor="#666666"
     borderopacity="1.0"
     inkscape:pageopacity="0.0"
     inkscape:pageshadow="2"
     inkscape:zoom="1.048254"
     inkscape:cx="235.86611"
     inkscape:cy="189.389"
     inkscape:document-units="px"
     inkscape:current-layer="layer1"
     showgrid="true"
     inkscape:grid-bbox="true"
     inkscape:grid-points="true"
     gridspacingx="5px"
     gridspacingy="5px"
     gridtolerance="5px"
     inkscape:guide-points="true"
     guidetolerance="5px"
     inkscape:window-width="791"
     inkscape:window-height="543"
     inkscape:window-x="103"
     inkscape:window-y="175" />
  <metadata
     id="metadata7">
    <rdf:RDF>
      <cc:Work
         rdf:about="">
        <dc:format>image/svg+xml</dc:format>
        <dc:type
           rdf:resource="http://purl.org/dc/dcmitype/StillImage" />
        <dc:creator>
          <cc:Agent>
            <dc:title>Steve Karg</dc:title>
          </cc:Agent>
        </dc:creator>
        <dc:publisher>
          <cc:Agent>
            <dc:title>kargs.net</dc:title>
          </cc:Agent>
        </dc:publisher>
        <cc:license
           rdf:resource="http://web.resource.org/cc/PublicDomain" />
        <dc:title>Raspberry</dc:title>
        <dc:date>10-June-2006</dc:date>
        <dc:subject>
          <rdf:Bag>
            <rdf:li>Raspberry</rdf:li>
            <rdf:li>red</rdf:li>
          </rdf:Bag>
        </dc:subject>
        <dc:description>Red Raspberry</dc:description>
      </cc:Work>
      <cc:License
         rdf:about="http://web.resource.org/cc/PublicDomain">
        <cc:permits
           rdf:resource="http://web.resource.org/cc/Reproduction" />
        <cc:permits
           rdf:resource="http://web.resource.org/cc/Distribution" />
        <cc:permits
           rdf:resource="http://web.resource.org/cc/DerivativeWorks" />
      </cc:License>
    </rdf:RDF>
  </metadata>
  <g
     inkscape:label="Layer 1"
     inkscape:groupmode="layer"
     id="layer1">
    <g
       id="g10246"
       transform="translate(-5.10607,-45)">
      <path
         sodipodi:nodetypes="csscs"
         id="path3238"
         d="M 210.12695,136.92106 C 208.60796,146.67728 209.71787,150.95257 215.67647,158.29751 C 220.38716,164.10418 233.16958,159.98225 234.37045,152.26929 C 235.88943,142.51308 234.77952,138.23778 228.82092,130.89284 C 222.76004,127.0558 211.32782,129.2081 210.12695,136.92106 z "
         style="fill:#ff0040;fill-opacity:1;fill-rule:evenodd;stroke:#000000;stroke-width:2.49722362;stroke-linecap:butt;stroke-linejoin:miter;stroke-miterlimit:4;stroke-dasharray:none;stroke-opacity:1" />
      <path
         sodipodi:nodetypes="csscs"
         id="path3240"
         d="M 190.39144,144.08264 C 190.009,153.97208 191.60263,158.05796 198.35954,164.51207 C 203.70136,169.61446 215.90557,163.742 216.20791,155.92372 C 216.59034,146.0343 214.99671,141.94841 208.2398,135.4943 C 201.78568,132.53405 190.69378,136.26437 190.39144,144.08264 z "
         style="fill:#a50040;fill-opacity:1;fill-rule:evenodd;stroke:#000000;stroke-width:2.49722362;stroke-linecap:butt;stroke-linejoin:miter;stroke-miterlimit:4;stroke-dasharray:none;stroke-opacity:1" />
      <path
         sodipodi:nodetypes="csscs"
         id="path3242"
         d="M 199.61099,165.00924 C 200.58272,155.12605 199.24052,150.95083 192.89993,144.13314 C 187.88726,138.74331 175.38734,143.98361 174.61912,151.79696 C 173.64736,161.68015 174.98958,165.85537 181.33016,172.67304 C 187.57813,175.97612 198.84275,172.82259 199.61099,165.00924 z "
         style="fill:#aa0040;fill-opacity:1;fill-rule:evenodd;stroke:#000000;stroke-width:2.49722362;stroke-linecap:butt;stroke-linejoin:miter;stroke-miterlimit:4;stroke-dasharray:none;stroke-opacity:1" />
      <path
         sodipodi:nodetypes="csscs"
         id="path3244"
         d="M 186.86429,174.14768 C 184.49081,164.57885 181.86556,161.2934 173.73807,157.72046 C 167.31272,154.89581 157.47665,165.14536 159.35304,172.71017 C 161.72653,182.27901 164.35177,185.56445 172.47928,189.13739 C 179.35709,189.49677 188.74069,181.71249 186.86429,174.14768 z "
         style="fill:#a40040;fill-opacity:1;fill-rule:evenodd;stroke:#000000;stroke-width:2.49722362;stroke-linecap:butt;stroke-linejoin:miter;stroke-miterlimit:4;stroke-dasharray:none;stroke-opacity:1" />
      <path
         sodipodi:nodetypes="csscs"
         id="path3246"
         d="M 174.99472,187.78574 C 169.60565,179.97319 166.08176,178.07902 157.37528,178.31483 C 150.49222,178.50124 144.82136,192.25929 149.08179,198.43565 C 154.47087,206.24817 157.99476,208.14234 166.70123,207.90654 C 173.17946,205.24405 179.25516,193.96207 174.99472,187.78574 z "
         style="fill:#ff0040;fill-opacity:1;fill-rule:evenodd;stroke:#000000;stroke-width:2.49722362;stroke-linecap:butt;stroke-linejoin:miter;stroke-miterlimit:4;stroke-dasharray:none;stroke-opacity:1" />
      <path
         sodipodi:nodetypes="csscs"
         id="path3248"
         d="M 167.11042,206.44895 C 160.24663,200.3276 156.42904,199.4467 148.02245,202.04447 C 141.37647,204.09818 138.73921,219.00294 144.16552,223.8423 C 151.02932,229.96367 154.84691,230.84456 163.25349,228.24679 C 168.98971,223.89846 172.53674,211.28832 167.11042,206.44895 z "
         style="fill:#ff0040;fill-opacity:1;fill-rule:evenodd;stroke:#000000;stroke-width:2.49722362;stroke-linecap:butt;stroke-linejoin:miter;stroke-miterlimit:4;stroke-dasharray:none;stroke-opacity:1" />
      <path
         sodipodi:nodetypes="csscs"
         id="path3226"
         d="M 194.76565,118.9479 C 193.82009,128.6541 195.10821,132.81715 201.20623,139.76309 C 206.02714,145.25433 218.06766,140.53585 218.81519,132.86244 C 219.76074,123.15623 218.47262,118.99319 212.3746,112.04724 C 206.36221,108.56863 195.51318,111.27449 194.76565,118.9479 z "
         style="fill:#d00040;fill-opacity:1;fill-rule:evenodd;stroke:#000000;stroke-width:2.43271041;stroke-linecap:butt;stroke-linejoin:miter;stroke-miterlimit:4;stroke-dasharray:none;stroke-opacity:1" />
      <path
         sodipodi:nodetypes="csscs"
         id="path3228"
         d="M 176.21737,127.02013 C 176.36857,136.79998 178.11059,140.75149 184.92742,146.7776 C 190.3166,151.54164 201.71103,145.12488 201.5915,137.39324 C 201.44029,127.61339 199.69827,123.66189 192.88144,117.63578 C 186.53791,115.04251 176.09784,119.28849 176.21737,127.02013 z "
         style="fill:#cb0040;fill-opacity:1;fill-rule:evenodd;stroke:#000000;stroke-width:2.43271041;stroke-linecap:butt;stroke-linejoin:miter;stroke-miterlimit:4;stroke-dasharray:none;stroke-opacity:1" />
      <path
         sodipodi:nodetypes="csscs"
         id="path3230"
         d="M 186.1534,147.20461 C 186.56757,137.40094 185.06195,133.34849 178.62528,126.94234 C 173.53664,121.87786 161.82558,127.68575 161.49814,135.43624 C 161.08395,145.23992 162.58958,149.29238 169.02625,155.69849 C 175.19006,158.6406 185.82595,154.9551 186.1534,147.20461 z "
         style="fill:#c80040;fill-opacity:1;fill-rule:evenodd;stroke:#000000;stroke-width:2.43271041;stroke-linecap:butt;stroke-linejoin:miter;stroke-miterlimit:4;stroke-dasharray:none;stroke-opacity:1" />
      <path
         sodipodi:nodetypes="csscs"
         id="path3232"
         d="M 174.40984,156.87234 C 171.63294,147.54911 168.94367,144.4401 160.96355,141.32728 C 154.65471,138.86638 145.76019,149.48264 147.95552,156.85328 C 150.73244,166.1765 153.42169,169.28552 161.40183,172.39833 C 168.01541,172.40309 176.60519,164.24298 174.40984,156.87234 z "
         style="fill:#d60040;fill-opacity:1;fill-rule:evenodd;stroke:#000000;stroke-width:2.43271041;stroke-linecap:butt;stroke-linejoin:miter;stroke-miterlimit:4;stroke-dasharray:none;stroke-opacity:1" />
      <path
         sodipodi:nodetypes="csscs"
         id="path3234"
         d="M 163.74297,170.93634 C 158.16655,163.49991 154.68848,161.80974 146.35266,162.48543 C 139.76263,163.0196 135.04564,176.88666 139.45418,182.76567 C 145.03061,190.20206 148.50867,191.89224 156.84449,191.21655 C 162.91668,188.25923 168.15151,176.81532 163.74297,170.93634 z "
         style="fill:#cd0040;fill-opacity:1;fill-rule:evenodd;stroke:#000000;stroke-width:2.43271041;stroke-linecap:butt;stroke-linejoin:miter;stroke-miterlimit:4;stroke-dasharray:none;stroke-opacity:1" />
      <path
         sodipodi:nodetypes="csscs"
         id="path3236"
         d="M 157.1605,189.75718 C 150.25862,184.0649 146.552,183.38973 138.62743,186.38131 C 132.36251,188.74634 130.61432,203.59081 136.07075,208.09095 C 142.97265,213.78323 146.67925,214.45841 154.60382,211.46683 C 159.87626,206.88339 162.61694,194.25732 157.1605,189.75718 z "
         style="fill:#ff0040;fill-opacity:1;fill-rule:evenodd;stroke:#000000;stroke-width:2.43271041;stroke-linecap:butt;stroke-linejoin:miter;stroke-miterlimit:4;stroke-dasharray:none;stroke-opacity:1" />
      <path
         sodipodi:nodetypes="csscs"
         id="path2329"
         d="M 201.39756,120.30511 C 203.1079,109.57629 201.72428,104.92978 194.47948,97.072583 C 188.75196,90.860938 173.44378,95.769809 172.09163,104.25169 C 170.38131,114.98051 171.76492,119.62702 179.00973,127.48422 C 186.3362,131.49757 200.04542,128.78699 201.39756,120.30511 z "
         style="fill:#ff0040;fill-opacity:1;fill-rule:evenodd;stroke:#000000;stroke-width:2.86443686;stroke-linecap:butt;stroke-linejoin:miter;stroke-miterlimit:4;stroke-dasharray:none;stroke-opacity:1" />
      <path
         sodipodi:nodetypes="csscs"
         id="path2331"
         d="M 177.34636,129.96556 C 178.51563,119.15883 176.90058,114.59346 169.27109,107.13869 C 163.23944,101.2452 148.19855,106.97518 147.27416,115.51865 C 146.10487,126.32538 147.71993,130.89076 155.34942,138.34551 C 162.86747,141.95725 176.42196,138.50904 177.34636,129.96556 z "
         style="fill:#ff0040;fill-opacity:1;fill-rule:evenodd;stroke:#000000;stroke-width:2.86443686;stroke-linecap:butt;stroke-linejoin:miter;stroke-miterlimit:4;stroke-dasharray:none;stroke-opacity:1" />
      <path
         sodipodi:nodetypes="csscs"
         id="path2333"
         d="M 162.00852,139.95795 C 159.15256,129.49495 155.99365,125.9025 146.21401,121.99568 C 138.48252,118.90708 126.64698,130.1144 128.9048,138.38611 C 131.76078,148.84911 134.91967,152.44157 144.69934,156.34838 C 152.97526,156.74134 164.26636,148.22966 162.00852,139.95795 z "
         style="fill:#ff0040;fill-opacity:1;fill-rule:evenodd;stroke:#000000;stroke-width:2.86443686;stroke-linecap:butt;stroke-linejoin:miter;stroke-miterlimit:4;stroke-dasharray:none;stroke-opacity:1" />
      <path
         sodipodi:nodetypes="csscs"
         id="path2335"
         d="M 147.72612,154.87042 C 141.24156,146.32783 137.00133,144.25666 126.52501,144.5145 C 118.24276,144.71833 111.41913,159.76201 116.54562,166.51552 C 123.03019,175.05808 127.27041,177.12926 137.74673,176.87142 C 145.54185,173.96014 152.85261,161.6239 147.72612,154.87042 z "
         style="fill:#ff0040;fill-opacity:1;fill-rule:evenodd;stroke:#000000;stroke-width:2.86443686;stroke-linecap:butt;stroke-linejoin:miter;stroke-miterlimit:4;stroke-dasharray:none;stroke-opacity:1" />
      <path
         sodipodi:nodetypes="csscs"
         id="path2325"
         d="M 310.58614,261.40922 C 319.40343,266.62669 323.97718,266.93725 333.45493,262.96206 C 340.94774,259.81938 342.07674,244.10517 335.10607,239.98041 C 326.28877,234.76295 321.71501,234.45238 312.23726,238.42757 C 306.10728,243.78478 303.61545,257.28446 310.58614,261.40922 z "
         style="fill:#ff0040;fill-opacity:1;fill-rule:evenodd;stroke:#000000;stroke-width:2.75772119;stroke-linecap:butt;stroke-linejoin:miter;stroke-miterlimit:4;stroke-dasharray:none;stroke-opacity:1" />
      <path
         sodipodi:nodetypes="csscs"
         id="path2323"
         d="M 260.81191,295.32857 C 259.3708,305.47203 260.8363,309.81576 268.13942,317.04724 C 273.91305,322.76422 288.8607,317.78639 290,309.76729 C 291.4411,299.62383 289.9756,295.28009 282.67248,288.04861 C 275.37546,284.43893 261.9512,287.30946 260.81191,295.32857 z "
         style="fill:#ff0040;fill-opacity:1;fill-rule:evenodd;stroke:#000000;stroke-width:2.75772119;stroke-linecap:butt;stroke-linejoin:miter;stroke-miterlimit:4;stroke-dasharray:none;stroke-opacity:1" />
      <path
         sodipodi:nodetypes="csscs"
         id="path2223"
         d="M 284.22309,292.73899 C 283.02729,300.40089 284.24333,303.68194 290.30328,309.14426 C 295.09409,313.46261 307.49729,309.70258 308.44265,303.64533 C 309.63845,295.98343 308.42241,292.70237 302.36245,287.24005 C 296.30757,284.51346 285.16845,286.68173 284.22309,292.73899 z "
         style="fill:#ff0040;fill-opacity:1;fill-rule:evenodd;stroke:#000000;stroke-width:2.18326187;stroke-linecap:butt;stroke-linejoin:miter;stroke-miterlimit:4;stroke-dasharray:none;stroke-opacity:1" />
      <path
         sodipodi:nodetypes="csscs"
         id="path2225"
         d="M 296.37194,284.09298 C 298.61513,292.09356 301.28705,294.88928 309.73155,298.07157 C 316.40752,300.58739 327.00824,292.35085 325.23485,286.02584 C 322.99165,278.02525 320.31974,275.22953 311.87523,272.04724 C 304.6595,271.56403 294.59855,277.76797 296.37194,284.09298 z "
         style="fill:#ff0040;fill-opacity:1;fill-rule:evenodd;stroke:#000000;stroke-width:2.33195686;stroke-linecap:butt;stroke-linejoin:miter;stroke-miterlimit:4;stroke-dasharray:none;stroke-opacity:1" />
      <path
         sodipodi:nodetypes="csscs"
         id="path2317"
         d="M 307.35891,269.79495 C 312.35024,277.34035 315.82336,279.33827 324.72452,279.78458 C 331.7615,280.13741 338.44507,268.00202 334.49908,262.03687 C 329.50775,254.49147 326.03462,252.49355 317.13346,252.04724 C 310.34841,253.98675 303.41292,263.8298 307.35891,269.79495 z "
         style="fill:#ff0040;fill-opacity:1;fill-rule:evenodd;stroke:#000000;stroke-width:2.41746855;stroke-linecap:butt;stroke-linejoin:miter;stroke-miterlimit:4;stroke-dasharray:none;stroke-opacity:1" />
      <path
         sodipodi:nodetypes="csscs"
         id="path2235"
         d="M 241.60808,289.91851 C 239.63693,299.97358 240.87262,304.38729 247.78654,311.98703 C 253.25247,317.99515 268.44089,313.79791 269.99924,305.84868 C 271.97039,295.79361 270.7347,291.37991 263.82078,283.78017 C 256.723,279.79762 243.16643,281.96928 241.60808,289.91851 z "
         style="fill:#ff0040;fill-opacity:1;fill-rule:evenodd;stroke:#000000;stroke-width:2.75772119;stroke-linecap:butt;stroke-linejoin:miter;stroke-miterlimit:4;stroke-dasharray:none;stroke-opacity:1" />
      <path
         sodipodi:nodetypes="csscs"
         id="path2237"
         d="M 265.52361,281.48985 C 264.0825,291.63331 265.548,295.97704 272.85112,303.20852 C 278.62475,308.9255 293.5724,303.94767 294.7117,295.92857 C 296.1528,285.78511 294.6873,281.44137 287.38418,274.20989 C 280.08716,270.60021 266.6629,273.47074 265.52361,281.48985 z "
         style="fill:#ff0040;fill-opacity:1;fill-rule:evenodd;stroke:#000000;stroke-width:2.75772119;stroke-linecap:butt;stroke-linejoin:miter;stroke-miterlimit:4;stroke-dasharray:none;stroke-opacity:1" />
      <path
         sodipodi:nodetypes="csscs"
         id="path2239"
         d="M 280.87812,272.50665 C 283.40526,282.43822 286.4154,285.9087 295.92885,289.85905 C 303.44989,292.98207 315.39249,282.7576 313.39461,274.90602 C 310.86747,264.97445 307.85733,261.50397 298.34388,257.55362 C 290.21476,256.95378 278.88025,264.65507 280.87812,272.50665 z "
         style="fill:#ff0040;fill-opacity:1;fill-rule:evenodd;stroke:#000000;stroke-width:2.75772119;stroke-linecap:butt;stroke-linejoin:miter;stroke-miterlimit:4;stroke-dasharray:none;stroke-opacity:1" />
      <path
         sodipodi:nodetypes="csscs"
         id="path2241"
         d="M 295.3271,258.86127 C 301.47483,267.08528 305.58948,269.15331 315.9003,269.20144 C 324.05172,269.2395 331.16822,255.26343 326.30803,248.76178 C 320.16028,240.53778 316.04564,238.46975 305.73482,238.42162 C 297.98959,240.9465 290.46689,252.35964 295.3271,258.86127 z "
         style="fill:#ff0040;fill-opacity:1;fill-rule:evenodd;stroke:#000000;stroke-width:2.75772119;stroke-linecap:butt;stroke-linejoin:miter;stroke-miterlimit:4;stroke-dasharray:none;stroke-opacity:1" />
      <path
         sodipodi:nodetypes="csscs"
         id="path2321"
         d="M 219.21495,282.37037 C 217.07759,293.3445 218.41747,298.16163 225.91436,306.45601 C 231.84117,313.01328 248.31026,308.43241 250,299.7566 C 252.13736,288.78247 250.79748,283.96534 243.30059,275.67096 C 235.60433,271.3244 220.90469,273.69455 219.21495,282.37037 z "
         style="fill:#ff0040;fill-opacity:1;fill-rule:evenodd;stroke:#000000;stroke-width:3;stroke-linecap:butt;stroke-linejoin:miter;stroke-miterlimit:4;stroke-dasharray:none;stroke-opacity:1" />
      <path
         sodipodi:nodetypes="csscs"
         id="path2245"
         d="M 202.96004,270.07309 C 198.60592,281.03024 198.92381,286.33971 204.54946,296.62039 C 208.99693,304.74796 226.05666,303.59155 229.49889,294.92916 C 233.853,283.97201 233.53511,278.66254 227.90946,268.38186 C 221.27475,262.16785 206.40227,261.41069 202.96004,270.07309 z "
         style="fill:#ff0040;fill-opacity:1;fill-rule:evenodd;stroke:#000000;stroke-width:3.09457564;stroke-linecap:butt;stroke-linejoin:miter;stroke-miterlimit:4;stroke-dasharray:none;stroke-opacity:1" />
      <path
         sodipodi:nodetypes="csscs"
         id="path2247"
         d="M 225.37882,270.3631 C 223.24146,282.04006 224.58134,287.1657 232.07823,295.99129 C 238.00504,302.96852 254.47413,298.09427 256.16387,288.86282 C 258.30123,277.18586 256.96135,272.06022 249.46446,263.23464 C 241.7682,258.6097 227.06856,261.13165 225.37882,270.3631 z "
         style="fill:#ff0040;fill-opacity:1;fill-rule:evenodd;stroke:#000000;stroke-width:3.09457564;stroke-linecap:butt;stroke-linejoin:miter;stroke-miterlimit:4;stroke-dasharray:none;stroke-opacity:1" />
      <path
         sodipodi:nodetypes="csscs"
         id="path2249"
         d="M 251.31086,260.57489 C 249.74824,272.3545 251.33731,277.39887 259.25622,285.7968 C 265.51667,292.43594 281.72468,286.65518 282.96004,277.34259 C 284.52266,265.56298 282.93359,260.51859 275.01468,252.12067 C 267.10239,247.92874 252.54622,251.26229 251.31086,260.57489 z "
         style="fill:#ff0040;fill-opacity:1;fill-rule:evenodd;stroke:#000000;stroke-width:3.09457564;stroke-linecap:butt;stroke-linejoin:miter;stroke-miterlimit:4;stroke-dasharray:none;stroke-opacity:1" />
      <path
         sodipodi:nodetypes="csscs"
         id="path2251"
         d="M 267.96004,250.1427 C 270.70026,261.67624 273.96422,265.70651 284.27982,270.29405 C 292.43502,273.92081 305.3846,262.04713 303.21827,252.92908 C 300.47804,241.39554 297.21409,237.36527 286.89848,232.77773 C 278.08393,232.08113 265.79371,241.02465 267.96004,250.1427 z "
         style="fill:#ff0040;fill-opacity:1;fill-rule:evenodd;stroke:#000000;stroke-width:3.09457564;stroke-linecap:butt;stroke-linejoin:miter;stroke-miterlimit:4;stroke-dasharray:none;stroke-opacity:1" />
      <path
         sodipodi:nodetypes="csscs"
         id="path2319"
         d="M 302.91808,236.70707 C 309.06581,244.93108 313.18046,246.99911 323.49128,247.04724 C 331.6427,247.0853 338.7592,233.10923 333.89901,226.60758 C 327.75126,218.38358 323.63662,216.31555 313.3258,216.26742 C 305.58057,218.7923 298.05787,230.20544 302.91808,236.70707 z "
         style="fill:#ff0040;fill-opacity:1;fill-rule:evenodd;stroke:#000000;stroke-width:2.75772119;stroke-linecap:butt;stroke-linejoin:miter;stroke-miterlimit:4;stroke-dasharray:none;stroke-opacity:1" />
      <path
         sodipodi:nodetypes="csscs"
         id="path2253"
         d="M 283.62733,234.2963 C 290.29343,243.84686 294.75502,246.24846 305.93523,246.30435 C 314.77396,246.34855 322.49052,230.11813 317.22052,222.56776 C 310.55441,213.01723 306.09283,210.61561 294.91261,210.55972 C 286.51432,213.49186 278.35732,226.74595 283.62733,234.2963 z "
         style="fill:#ff0040;fill-opacity:1;fill-rule:evenodd;stroke:#000000;stroke-width:3.09457564;stroke-linecap:butt;stroke-linejoin:miter;stroke-miterlimit:4;stroke-dasharray:none;stroke-opacity:1" />
      <path
         sodipodi:nodetypes="csscs"
         id="path2255"
         d="M 289.72915,221.45014 C 298.34171,229.03578 303.21255,230.23721 314.08335,227.45727 C 322.67747,225.25954 326.53775,207.5403 319.72892,201.54332 C 311.11635,193.95767 306.24552,192.75625 295.37472,195.53618 C 287.87478,200.51289 282.92031,215.45316 289.72915,221.45014 z "
         style="fill:#ff0040;fill-opacity:1;fill-rule:evenodd;stroke:#000000;stroke-width:3.09457564;stroke-linecap:butt;stroke-linejoin:miter;stroke-miterlimit:4;stroke-dasharray:none;stroke-opacity:1" />
      <path
         sodipodi:nodetypes="csscs"
         id="path2257"
         d="M 186.16362,259.51009 C 182.12318,269.76986 182.41817,274.74139 187.63854,284.36775 C 191.76561,291.97804 207.59634,290.89523 210.79058,282.78416 C 214.83102,272.52439 214.53603,267.55286 209.31567,257.92651 C 203.15892,252.10798 189.35787,251.39902 186.16362,259.51009 z "
         style="fill:#ff0040;fill-opacity:1;fill-rule:evenodd;stroke:#000000;stroke-width:2.88459921;stroke-linecap:butt;stroke-linejoin:miter;stroke-miterlimit:4;stroke-dasharray:none;stroke-opacity:1" />
      <path
         sodipodi:nodetypes="csscs"
         id="path2259"
         d="M 212.24453,256.52499 C 210.26115,267.45875 211.5045,272.25817 218.46131,280.52204 C 223.96114,287.05518 239.24378,282.49117 240.81179,273.84726 C 242.79517,262.9135 241.55182,258.11409 234.59501,249.85021 C 227.4532,245.51964 213.81254,247.88107 212.24453,256.52499 z "
         style="fill:#ff0040;fill-opacity:1;fill-rule:evenodd;stroke:#000000;stroke-width:2.88459921;stroke-linecap:butt;stroke-linejoin:miter;stroke-miterlimit:4;stroke-dasharray:none;stroke-opacity:1" />
      <path
         sodipodi:nodetypes="csscs"
         id="path2261"
         d="M 230.68825,248.1713 C 229.12563,259.2419 230.7147,263.98266 238.63361,271.87512 C 244.89406,278.11465 261.10207,272.68183 262.33743,263.92976 C 263.90005,252.85916 262.31098,248.11839 254.39207,240.22594 C 246.47978,236.28632 231.92361,239.41922 230.68825,248.1713 z "
         style="fill:#ff0040;fill-opacity:1;fill-rule:evenodd;stroke:#000000;stroke-width:3;stroke-linecap:butt;stroke-linejoin:miter;stroke-miterlimit:4;stroke-dasharray:none;stroke-opacity:1" />
      <path
         sodipodi:nodetypes="csscs"
         id="path2263"
         d="M 251.75815,237.59153 C 254.30096,248.39101 257.32979,252.16477 266.90224,256.46032 C 274.46993,259.85625 286.48661,248.73829 284.47634,240.20057 C 281.93352,229.4011 278.90471,225.62734 269.33225,221.33177 C 261.15271,220.67952 249.74789,229.05381 251.75815,237.59153 z "
         style="fill:#ff0040;fill-opacity:1;fill-rule:evenodd;stroke:#000000;stroke-width:2.88459921;stroke-linecap:butt;stroke-linejoin:miter;stroke-miterlimit:4;stroke-dasharray:none;stroke-opacity:1" />
      <path
         sodipodi:nodetypes="csscs"
         id="path2265"
         d="M 266.29676,227.62655 C 272.48262,236.03099 276.62279,238.14439 286.99757,238.19357 C 295.19955,238.23247 302.3602,223.94978 297.46986,217.30549 C 291.28398,208.90107 287.14382,206.78766 276.76903,206.73847 C 268.97576,209.31875 261.4064,220.98228 266.29676,227.62655 z "
         style="fill:#ff0040;fill-opacity:1;fill-rule:evenodd;stroke:#000000;stroke-width:2.79644084;stroke-linecap:butt;stroke-linejoin:miter;stroke-miterlimit:4;stroke-dasharray:none;stroke-opacity:1" />
      <path
         sodipodi:nodetypes="csscs"
         id="path2267"
         d="M 276.23857,202.1449 C 284.23068,209.24774 288.75061,210.37269 298.83827,207.7697 C 306.81326,205.71184 310.39544,189.12037 304.07713,183.50506 C 296.08502,176.40222 291.56509,175.27726 281.47743,177.88026 C 274.51779,182.54022 269.92025,196.5296 276.23857,202.1449 z "
         style="fill:#ff0040;fill-opacity:1;fill-rule:evenodd;stroke:#000000;stroke-width:2.88459921;stroke-linecap:butt;stroke-linejoin:miter;stroke-miterlimit:4;stroke-dasharray:none;stroke-opacity:1" />
      <path
         sodipodi:nodetypes="csscs"
         id="path2269"
         d="M 162.68347,242.93507 C 158.15157,254.05595 158.48243,259.44476 164.33779,269.87903 C 168.96688,278.12807 186.7232,276.95436 190.30599,268.16255 C 194.83788,257.04167 194.50702,251.65286 188.65166,241.21858 C 181.74603,234.91172 166.26626,234.14325 162.68347,242.93507 z "
         style="fill:#ff0040;fill-opacity:1;fill-rule:evenodd;stroke:#000000;stroke-width:3.18062353;stroke-linecap:butt;stroke-linejoin:miter;stroke-miterlimit:4;stroke-dasharray:none;stroke-opacity:1" />
      <path
         sodipodi:nodetypes="csscs"
         id="path2271"
         d="M 192.54661,238.16602 C 190.32197,250.01746 191.71656,255.2197 199.51958,264.17715 C 205.68839,271.25863 222.82997,266.31155 224.5887,256.94217 C 226.81335,245.09073 225.41875,239.8885 217.61574,230.93104 C 209.60521,226.23701 194.30534,228.79663 192.54661,238.16602 z "
         style="fill:#ff0040;fill-opacity:1;fill-rule:evenodd;stroke:#000000;stroke-width:3.18062353;stroke-linecap:butt;stroke-linejoin:miter;stroke-miterlimit:4;stroke-dasharray:none;stroke-opacity:1" />
      <path
         sodipodi:nodetypes="csscs"
         id="path2273"
         d="M 219.4905,227.35304 C 217.86407,240.07434 219.51804,245.52199 227.7603,254.59127 C 234.27638,261.76116 251.14621,255.51826 252.43201,245.46119 C 254.05845,232.73989 252.40448,227.29223 244.16222,218.22296 C 235.92685,213.69592 220.7763,217.29595 219.4905,227.35304 z "
         style="fill:#ff0040;fill-opacity:1;fill-rule:evenodd;stroke:#000000;stroke-width:3.28089333;stroke-linecap:butt;stroke-linejoin:miter;stroke-miterlimit:4;stroke-dasharray:none;stroke-opacity:1" />
      <path
         sodipodi:nodetypes="csscs"
         id="path2275"
         d="M 236.81952,221.36098 C 239.67163,233.06685 243.06887,237.15735 253.80567,241.81344 C 262.29388,245.49439 275.77223,233.4433 273.51745,224.18901 C 270.66533,212.48313 267.26809,208.39264 256.53127,203.73655 C 247.3568,203.02955 234.56472,212.10669 236.81952,221.36098 z "
         style="fill:#ff0040;fill-opacity:1;fill-rule:evenodd;stroke:#000000;stroke-width:3.18062353;stroke-linecap:butt;stroke-linejoin:miter;stroke-miterlimit:4;stroke-dasharray:none;stroke-opacity:1" />
      <path
         sodipodi:nodetypes="csscs"
         id="path2277"
         d="M 253.12656,205.27781 C 260.06485,214.97107 264.70862,217.40856 276.34535,217.46529 C 285.54499,217.51014 293.57663,201.0372 288.09146,193.37402 C 281.15314,183.68078 276.50938,181.24328 264.87263,181.18656 C 256.13142,184.16251 247.64136,197.61464 253.12656,205.27781 z "
         style="fill:#ff0040;fill-opacity:1;fill-rule:evenodd;stroke:#000000;stroke-width:3.18062353;stroke-linecap:butt;stroke-linejoin:miter;stroke-miterlimit:4;stroke-dasharray:none;stroke-opacity:1" />
      <path
         sodipodi:nodetypes="csscs"
         id="path2279"
         d="M 264.27766,182.93931 C 273.24191,190.6383 278.31163,191.85767 289.62631,189.0362 C 298.57136,186.80563 302.58927,168.82163 295.50241,162.73504 C 286.53816,155.03605 281.46845,153.81667 270.15375,156.63814 C 262.34758,161.68921 257.19079,176.85272 264.27766,182.93931 z "
         style="fill:#ff0040;fill-opacity:1;fill-rule:evenodd;stroke:#000000;stroke-width:3.18062353;stroke-linecap:butt;stroke-linejoin:miter;stroke-miterlimit:4;stroke-dasharray:none;stroke-opacity:1" />
      <path
         sodipodi:nodetypes="csscs"
         id="path2281"
         d="M 145,223.83912 C 140.61737,235.44843 140.93734,241.07391 146.59984,251.96649 C 151.07643,260.5778 168.24792,259.35255 171.71268,250.17459 C 176.09533,238.56529 175.77535,232.93981 170.11287,222.04724 C 163.43467,215.46337 148.46479,214.66116 145,223.83912 z "
         style="fill:#ff0040;fill-opacity:1;fill-rule:evenodd;stroke:#000000;stroke-width:3.19575238;stroke-linecap:butt;stroke-linejoin:miter;stroke-miterlimit:4;stroke-dasharray:none;stroke-opacity:1" />
      <path
         sodipodi:nodetypes="csscs"
         id="path2283"
         d="M 173.02191,218.62588 C 170.81238,230.78252 172.1975,236.11872 179.94756,245.30686 C 186.07454,252.57071 203.09979,247.49621 204.84659,237.88557 C 207.05614,225.72892 205.671,220.39272 197.92096,211.20459 C 189.96478,206.38966 174.76872,209.0152 173.02191,218.62588 z "
         style="fill:#ff0040;fill-opacity:1;fill-rule:evenodd;stroke:#000000;stroke-width:3.21037054;stroke-linecap:butt;stroke-linejoin:miter;stroke-miterlimit:4;stroke-dasharray:none;stroke-opacity:1" />
      <path
         sodipodi:nodetypes="csscs"
         id="path2285"
         d="M 201.62438,216.67531 C 200.16485,228.36167 201.64909,233.36612 209.04565,241.69758 C 214.89314,248.28414 230.03202,242.54916 231.1859,233.31028 C 232.64543,221.62391 231.1612,216.61945 223.76464,208.28802 C 216.37427,204.12927 202.77827,207.43642 201.62438,216.67531 z "
         style="fill:#ff0040;fill-opacity:1;fill-rule:evenodd;stroke:#000000;stroke-width:2.97891092;stroke-linecap:butt;stroke-linejoin:miter;stroke-miterlimit:4;stroke-dasharray:none;stroke-opacity:1" />
      <path
         sodipodi:nodetypes="csscs"
         id="path2287"
         d="M 215.35482,205.16185 C 218.20694,216.86772 221.60417,220.95819 232.34099,225.61429 C 240.82919,229.29524 254.30754,217.24414 252.05275,207.98985 C 249.20063,196.28397 245.8034,192.1935 235.06658,187.5374 C 225.8921,186.83039 213.10004,195.90755 215.35482,205.16185 z "
         style="fill:#ff0040;fill-opacity:1;fill-rule:evenodd;stroke:#000000;stroke-width:3.18062353;stroke-linecap:butt;stroke-linejoin:miter;stroke-miterlimit:4;stroke-dasharray:none;stroke-opacity:1" />
      <path
         sodipodi:nodetypes="csscs"
         id="path2289"
         d="M 231.66185,189.07867 C 238.60016,198.77192 243.24393,201.2094 254.88066,201.26614 C 264.08029,201.311 272.11195,184.83807 266.62675,177.17488 C 259.68845,167.48162 255.04468,165.04415 243.40795,164.98741 C 234.66673,167.96337 226.17666,181.41549 231.66185,189.07867 z "
         style="fill:#ff0040;fill-opacity:1;fill-rule:evenodd;stroke:#000000;stroke-width:3.18062353;stroke-linecap:butt;stroke-linejoin:miter;stroke-miterlimit:4;stroke-dasharray:none;stroke-opacity:1" />
      <path
         sodipodi:nodetypes="csscs"
         id="path2291"
         d="M 250,163.34841 C 258.96424,171.04739 264.03397,172.26677 275.34865,169.44531 C 284.2937,167.21473 288.3116,149.23072 281.22476,143.14414 C 272.2605,135.44516 267.19077,134.22578 255.87609,137.04724 C 248.06991,142.09831 242.91313,157.26183 250,163.34841 z "
         style="fill:#ff0040;fill-opacity:1;fill-rule:evenodd;stroke:#000000;stroke-width:3.18062353;stroke-linecap:butt;stroke-linejoin:miter;stroke-miterlimit:4;stroke-dasharray:none;stroke-opacity:1" />
      <path
         sodipodi:nodetypes="csscs"
         id="path2293"
         d="M 130.82943,203.07765 C 125.94569,214.95443 126.30224,220.70952 132.61219,231.85305 C 137.60063,240.66278 156.73545,239.4093 160.59639,230.01989 C 165.48011,218.1431 165.12356,212.38801 158.81362,201.24447 C 151.37188,194.50892 134.69036,193.68821 130.82943,203.07765 z "
         style="fill:#ff0040;fill-opacity:1;fill-rule:evenodd;stroke:#000000;stroke-width:3.41214824;stroke-linecap:butt;stroke-linejoin:miter;stroke-miterlimit:4;stroke-dasharray:none;stroke-opacity:1" />
      <path
         sodipodi:nodetypes="csscs"
         id="path2295"
         d="M 155.97516,203.39201 C 153.57782,216.04901 155.08068,221.60484 163.48947,231.17117 C 170.13719,238.73399 188.60954,233.45065 190.50481,223.4444 C 192.90216,210.7874 191.39929,205.23156 182.99051,195.66523 C 174.35809,190.65214 157.87044,193.38575 155.97516,203.39201 z "
         style="fill:#ff0040;fill-opacity:1;fill-rule:evenodd;stroke:#000000;stroke-width:3.41214824;stroke-linecap:butt;stroke-linejoin:miter;stroke-miterlimit:4;stroke-dasharray:none;stroke-opacity:1" />
      <path
         sodipodi:nodetypes="csscs"
         id="path2297"
         d="M 185.06149,192.78227 C 183.30879,205.55052 185.09116,211.01828 193.9733,220.12104 C 200.99526,227.3174 219.17475,221.05147 220.56039,210.95727 C 222.31308,198.189 220.53072,192.72123 211.64857,183.61848 C 202.77386,179.07472 186.44712,182.68805 185.06149,192.78227 z "
         style="fill:#ff0040;fill-opacity:1;fill-rule:evenodd;stroke:#000000;stroke-width:3.41214824;stroke-linecap:butt;stroke-linejoin:miter;stroke-miterlimit:4;stroke-dasharray:none;stroke-opacity:1" />
      <path
         sodipodi:nodetypes="csscs"
         id="path2299"
         d="M 203.73583,181.4745 C 206.80936,193.97605 210.47034,198.34457 222.0407,203.31715 C 231.18788,207.2483 245.7126,194.37807 243.28276,184.49474 C 240.20922,171.99319 236.54825,167.62466 224.97788,162.65208 C 215.09116,161.89702 201.30599,171.59117 203.73583,181.4745 z "
         style="fill:#ff0040;fill-opacity:1;fill-rule:evenodd;stroke:#000000;stroke-width:3.41214824;stroke-linecap:butt;stroke-linejoin:miter;stroke-miterlimit:4;stroke-dasharray:none;stroke-opacity:1" />
      <path
         sodipodi:nodetypes="csscs"
         id="path2301"
         d="M 221.30883,164.29811 C 228.78579,174.65025 233.79007,177.25341 246.3302,177.31399 C 256.24405,177.36191 264.89923,159.76926 258.9882,151.58519 C 251.51125,141.23308 246.50698,138.62991 233.96682,138.56932 C 224.54701,141.74756 215.3978,156.11405 221.30883,164.29811 z "
         style="fill:#ff0040;fill-opacity:1;fill-rule:evenodd;stroke:#000000;stroke-width:3.41214824;stroke-linecap:butt;stroke-linejoin:miter;stroke-miterlimit:4;stroke-dasharray:none;stroke-opacity:1" />
      <path
         sodipodi:nodetypes="csscs"
         id="path2303"
         d="M 232.84725,141.27811 C 241.63613,148.79269 246.60669,149.98285 257.70006,147.22896 C 266.47013,145.05183 270.40944,127.4986 263.46121,121.55778 C 254.67232,114.0432 249.70176,112.85304 238.6084,115.60692 C 230.9549,120.53701 225.899,135.33732 232.84725,141.27811 z "
         style="fill:#ff0040;fill-opacity:1;fill-rule:evenodd;stroke:#000000;stroke-width:3.11141562;stroke-linecap:butt;stroke-linejoin:miter;stroke-miterlimit:4;stroke-dasharray:none;stroke-opacity:1" />
      <path
         sodipodi:nodetypes="csscs"
         id="path2337"
         d="M 138.2391,175.27763 C 129.98004,168.58426 125.38641,167.62105 115.27094,170.46157 C 107.27397,172.70719 104.10061,189.00473 110.62998,194.29631 C 118.88905,200.98969 123.48267,201.9529 133.59813,199.11238 C 140.50041,194.35772 144.76848,180.56921 138.2391,175.27763 z "
         style="fill:#ff0040;fill-opacity:1;fill-rule:evenodd;stroke:#000000;stroke-width:2.86443686;stroke-linecap:butt;stroke-linejoin:miter;stroke-miterlimit:4;stroke-dasharray:none;stroke-opacity:1" />
      <path
         sodipodi:nodetypes="csscs"
         id="path2305"
         d="M 117.90335,208.46986 C 125.48839,217.43448 130.23299,219.4303 141.62637,218.44897 C 150.63363,217.67316 157.14371,200.67124 151.14723,193.58409 C 143.56218,184.61948 138.81757,182.62365 127.42419,183.60497 C 119.11322,187.32642 111.90685,201.3827 117.90335,208.46986 z "
         style="fill:#ff0040;fill-opacity:1;fill-rule:evenodd;stroke:#000000;stroke-width:3.14042497;stroke-linecap:butt;stroke-linejoin:miter;stroke-miterlimit:4;stroke-dasharray:none;stroke-opacity:1" />
      <path
         sodipodi:nodetypes="csscs"
         id="path2307"
         d="M 144.20875,188.58448 C 142.02332,200.34551 143.39334,205.50805 151.05883,214.39718 C 157.11894,221.42464 173.95841,216.5153 175.68616,207.21739 C 177.87158,195.45636 176.50157,190.29381 168.83608,181.40468 C 160.96673,176.74645 145.9365,179.28656 144.20875,188.58448 z "
         style="fill:#ff0040;fill-opacity:1;fill-rule:evenodd;stroke:#000000;stroke-width:3.14042497;stroke-linecap:butt;stroke-linejoin:miter;stroke-miterlimit:4;stroke-dasharray:none;stroke-opacity:1" />
      <path
         sodipodi:nodetypes="csscs"
         id="path2309"
         d="M 170.724,178.72579 C 169.12624,190.5902 170.75105,195.6709 178.84805,204.12929 C 185.2493,210.81623 201.82183,204.99384 203.08497,195.61421 C 204.68273,183.74979 203.05792,178.66908 194.96092,170.2107 C 186.87068,165.98859 171.98715,169.34614 170.724,178.72579 z "
         style="fill:#ff0040;fill-opacity:1;fill-rule:evenodd;stroke:#000000;stroke-width:3.14042497;stroke-linecap:butt;stroke-linejoin:miter;stroke-miterlimit:4;stroke-dasharray:none;stroke-opacity:1" />
      <path
         sodipodi:nodetypes="csscs"
         id="path2311"
         d="M 187.74762,168.21849 C 190.54947,179.83506 193.88683,183.89435 204.43443,188.51492 C 212.77304,192.1678 226.01385,180.20863 223.7988,171.02493 C 220.99695,159.40836 217.65959,155.34907 207.11198,150.7285 C 198.0992,150.02689 185.53257,159.03479 187.74762,168.21849 z "
         style="fill:#ff0040;fill-opacity:1;fill-rule:evenodd;stroke:#000000;stroke-width:3.14042497;stroke-linecap:butt;stroke-linejoin:miter;stroke-miterlimit:4;stroke-dasharray:none;stroke-opacity:1" />
      <path
         sodipodi:nodetypes="csscs"
         id="path2313"
         d="M 203.76727,152.258 C 210.58329,161.87732 215.14522,164.29621 226.57687,164.35251 C 235.61438,164.39702 243.50448,148.04975 238.11596,140.44502 C 231.29993,130.82572 226.73801,128.40682 215.30635,128.35052 C 206.71918,131.30378 198.37873,144.65329 203.76727,152.258 z "
         style="fill:#ff0040;fill-opacity:1;fill-rule:evenodd;stroke:#000000;stroke-width:3.14042497;stroke-linecap:butt;stroke-linejoin:miter;stroke-miterlimit:4;stroke-dasharray:none;stroke-opacity:1" />
      <path
         sodipodi:nodetypes="csscs"
         id="path2327"
         d="M 195.98382,118.80026 C 205.14778,124.5593 209.97854,125.10805 220.1376,121.54407 C 228.16903,118.72648 229.87007,102.78941 222.62533,98.23649 C 213.46138,92.477462 208.63061,91.928708 198.47155,95.492689 C 191.81118,100.63364 188.73908,114.24734 195.98382,118.80026 z "
         style="fill:#ff0040;fill-opacity:1;fill-rule:evenodd;stroke:#000000;stroke-width:2.86443686;stroke-linecap:butt;stroke-linejoin:miter;stroke-miterlimit:4;stroke-dasharray:none;stroke-opacity:1" />
      <path
         sodipodi:nodetypes="csscs"
         id="path2315"
         d="M 211.87856,128.0125 C 220.68481,135.65276 225.6652,136.86283 236.78048,134.06288 C 245.56788,131.84933 249.51498,114.00252 242.55302,107.96235 C 233.74675,100.32209 228.76638,99.112021 217.65109,101.91197 C 209.98248,106.9245 204.91659,121.97235 211.87856,128.0125 z "
         style="fill:#ff0040;fill-opacity:1;fill-rule:evenodd;stroke:#000000;stroke-width:3.14042497;stroke-linecap:butt;stroke-linejoin:miter;stroke-miterlimit:4;stroke-dasharray:none;stroke-opacity:1" />
    </g>
  </g>
</svg>
