<?xml version="1.0" encoding="UTF-8" standalone="no"?>
<!DOCTYPE svg PUBLIC "-//W3C//DTD SVG 20010904//EN"
"http://www.w3.org/TR/2001/REC-SVG-20010904/DTD/svg10.dtd">
<!-- Created with Inkscape (http://www.inkscape.org/) -->
<svg
   id="svg1"
   sodipodi:version="0.32"
   inkscape:version="0.38.1"
   width="400.00000pt"
   height="400.00000pt"
   sodipodi:docbase="/var/www/html/svg_gallery/svg/fruits"
   sodipodi:docname="strawberry.svg"
   xmlns="http://www.w3.org/2000/svg"
   xmlns:inkscape="http://www.inkscape.org/namespaces/inkscape"
   xmlns:sodipodi="http://sodipodi.sourceforge.net/DTD/sodipodi-0.dtd"
   xmlns:xlink="http://www.w3.org/1999/xlink">
  <defs
     id="defs3">
    <linearGradient
       id="linearGradient855">
      <stop
         style="stop-color:#ffff00;stop-opacity:0.55833334;"
         offset="0.0000000"
         id="stop856" />
      <stop
         style="stop-color:#ffa617;stop-opacity:0.73333335;"
         offset="1.0000000"
         id="stop857" />
    </linearGradient>
    <linearGradient
       id="linearGradient829">
      <stop
         style="stop-color:#ffffff;stop-opacity:0.34166667;"
         offset="0.0000000"
         id="stop830" />
      <stop
         style="stop-color:#ffffff;stop-opacity:0.0000000;"
         offset="1.0000000"
         id="stop831" />
    </linearGradient>
    <radialGradient
       xlink:href="#linearGradient855"
       id="radialGradient832"
       cx="0.42553192"
       cy="0.41000000"
       r="0.48977810"
       fx="0.42553192"
       fy="0.41000000" />
    <linearGradient
       xlink:href="#linearGradient855"
       id="linearGradient850" />
    <linearGradient
       xlink:href="#linearGradient855"
       id="linearGradient854"
       x1="0.55147058"
       y1="-0.14843750"
       x2="0.51470590"
       y2="1.5468750" />
    <radialGradient
       xlink:href="#linearGradient829"
       id="radialGradient874"
       cx="0.53370786"
       cy="0.29499999"
       r="0.39459810"
       fx="0.53370786"
       fy="0.29499999" />
    <linearGradient
       xlink:href="#linearGradient829"
       id="linearGradient875"
       x1="2.2527011e-16"
       y1="0.50000000"
       x2="1.0000000"
       y2="0.50000000" />
  </defs>
  <sodipodi:namedview
     id="base"
     pagecolor="#ffffff"
     bordercolor="#666666"
     borderopacity="1.0"
     inkscape:pageopacity="0.0"
     inkscape:pageshadow="2"
     inkscape:zoom="1.0000000"
     inkscape:cx="273.77515"
     inkscape:cy="238.06067"
     inkscape:window-width="871"
     inkscape:window-height="758"
     showgrid="true"
     inkscape:window-x="22"
     inkscape:window-y="24" />
  <g
     id="g969"
     transform="translate(0.000000,7.500000)">
    <path
       style="fill:#d70000;fill-rule:evenodd;stroke:#000000;stroke-width:10.000000;stroke-linejoin:round;stroke-dasharray:none;"
       d="M 267.50000,81.250000 C 287.50000,85.000000 335.00000,81.250000 391.25000,83.750000 C 421.25000,103.75000 467.50000,128.75000 473.75000,232.50000 C 468.75000,275.00000 417.50000,417.50000 398.75000,423.75000 C 380.00000,430.00000 341.25000,450.00000 313.75000,451.25000 C 263.75000,446.25000 250.00000,460.00000 230.00000,462.50000 C 182.50000,463.75000 120.00000,416.25000 63.750000,292.50000 C 36.250000,206.25000 50.000000,141.25000 123.75000,85.000000 C 176.25000,78.750000 242.50000,78.750000 267.50000,81.250000 z "
       id="path888"
       sodipodi:nodetypes="ccccccccc" />
    <path
       style="fill:#007900;fill-rule:evenodd;stroke:#000000;stroke-width:10.000000;stroke-linejoin:round;stroke-dasharray:none;"
       d="M 130.00000,197.50000 C 151.25000,172.50000 195.00000,151.25000 232.50000,95.000000 C 232.50000,93.750000 222.50000,162.50000 245.00000,196.25000 C 261.25000,163.75000 267.50000,120.00000 276.25000,107.50000 C 283.75000,111.25000 321.25000,157.50000 361.25000,167.50000 C 350.00000,148.75000 327.50000,125.00000 330.00000,115.00000 C 325.00000,88.750000 391.25000,167.50000 425.00000,137.50000 C 383.75000,130.00000 363.75000,113.75000 356.25000,96.250000 C 365.00000,86.250000 418.75000,78.750000 437.50000,50.000000 C 385.90246,68.428383 355.00000,77.500000 337.50000,71.250000 C 316.25000,67.500000 248.75000,67.500000 232.50000,61.250000 C 231.25000,67.500000 165.00000,13.376538 112.50000,37.500000 C 171.25000,49.935193 190.00000,53.750000 193.75000,66.250000 C 140.00000,66.250000 111.25000,80.000000 83.750000,77.500000 C 90.000000,92.500000 191.25000,105.00000 205.00000,90.000000 C 125.00000,138.75000 122.50000,175.00000 130.00000,197.50000 z "
       id="path889"
       sodipodi:nodetypes="cccccccccccccccc" />
    <path
       style="fill:#007900;fill-rule:evenodd;stroke:#000000;stroke-width:10.000000;stroke-linejoin:round;stroke-dasharray:none;"
       d="M 253.75000,80.000000 C 270.00000,56.250000 277.50000,46.250000 278.75000,8.7500000 C 286.25000,-6.2500000 293.75000,12.500000 293.75000,12.500000 C 293.75000,12.500000 290.00000,51.250000 287.50000,82.500000 C 281.25000,95.000000 255.00000,90.000000 253.75000,80.000000 z "
       id="path890"
       sodipodi:nodetypes="ccccc" />
    <path
       style="fill:url(#radialGradient832);fill-opacity:0.24999996;fill-rule:evenodd;stroke-width:1.0000000pt;"
       d="M 296.25000,235.00000 C 292.50000,236.25000 288.75000,257.50000 298.75000,258.75000 C 305.00000,255.00000 303.75000,233.75000 296.25000,235.00000 z "
       id="path891"
       sodipodi:nodetypes="ccc" />
    <path
       style="fill:url(#radialGradient832);fill-opacity:0.24999996;fill-rule:evenodd;stroke-width:1.0000000pt;"
       d="M 334.95750,298.15148 C 331.20750,299.40148 327.45750,320.65148 337.45750,321.90148 C 343.70750,318.15148 342.45750,296.90148 334.95750,298.15148 z "
       id="path892"
       sodipodi:nodetypes="ccc" />
    <path
       style="fill:url(#radialGradient832);fill-opacity:0.24999996;fill-rule:evenodd;stroke-width:1.0000000pt;"
       d="M 357.32007,263.74773 C 353.94833,265.81082 355.08465,287.35923 365.10906,286.32303 C 370.35296,281.26076 364.34531,260.83937 357.32007,263.74773 z "
       id="path893"
       sodipodi:nodetypes="ccc" />
    <path
       style="fill:url(#radialGradient832);fill-opacity:0.24999996;fill-rule:evenodd;stroke-width:1.0000000pt;"
       d="M 276.20750,410.65148 C 272.45750,411.90148 268.70750,433.15148 278.70750,434.40148 C 284.95750,430.65148 283.70750,409.40148 276.20750,410.65148 z "
       id="path894"
       sodipodi:nodetypes="ccc" />
    <path
       style="fill:url(#radialGradient832);fill-opacity:0.24999996;fill-rule:evenodd;stroke-width:1.0000000pt;"
       d="M 274.95750,341.90148 C 271.20750,343.15148 267.45750,364.40148 277.45750,365.65148 C 283.70750,361.90148 282.45750,340.65148 274.95750,341.90148 z "
       id="path895"
       sodipodi:nodetypes="ccc" />
    <path
       style="fill:url(#radialGradient832);fill-opacity:0.24999996;fill-rule:evenodd;stroke-width:1.0000000pt;"
       d="M 234.95750,361.90148 C 231.20750,363.15148 227.45750,384.40148 237.45750,385.65148 C 243.70750,381.90148 242.45750,360.65148 234.95750,361.90148 z "
       id="path896"
       sodipodi:nodetypes="ccc" />
    <path
       style="fill:url(#radialGradient832);fill-opacity:0.24999996;fill-rule:evenodd;stroke-width:1.0000000pt;"
       d="M 203.91145,380.66506 C 199.97620,381.03763 191.53289,400.89552 200.99380,404.36738 C 207.92822,402.12265 211.50020,381.13775 203.91145,380.66506 z "
       id="path897"
       sodipodi:nodetypes="ccc" />
    <path
       style="fill:url(#radialGradient832);fill-opacity:0.24999996;fill-rule:evenodd;stroke-width:1.0000000pt;"
       d="M 163.16701,361.84987 C 159.26284,362.46832 152.08058,382.81630 161.74046,385.68844 C 168.52058,383.01356 170.77046,361.84606 163.16701,361.84987 z "
       id="path898"
       sodipodi:nodetypes="ccc" />
    <path
       style="fill:url(#radialGradient832);fill-opacity:0.24999996;fill-rule:evenodd;stroke-width:1.0000000pt;"
       d="M 94.833024,217.06176 C 90.880688,217.12532 80.909687,236.26178 90.069972,240.46317 C 97.158755,238.76783 102.36153,218.12670 94.833024,217.06176 z "
       id="path899"
       sodipodi:nodetypes="ccc" />
    <path
       style="fill:url(#radialGradient832);fill-opacity:0.24999996;fill-rule:evenodd;stroke-width:1.0000000pt;"
       d="M 399.88677,364.40941 C 396.14431,365.68178 392.52126,386.95379 402.52854,388.14406 C 408.75604,384.35681 407.37918,363.11465 399.88677,364.40941 z "
       id="path900"
       sodipodi:nodetypes="ccc" />
    <path
       style="fill:url(#radialGradient832);fill-opacity:0.24999996;fill-rule:evenodd;stroke-width:1.0000000pt;"
       d="M 108.17758,125.18409 C 104.28006,124.52505 90.983126,141.51965 99.222483,147.32271 C 106.50164,146.94997 115.38516,127.60551 108.17758,125.18409 z "
       id="path901"
       sodipodi:nodetypes="ccc" />
    <path
       style="fill:url(#radialGradient832);fill-opacity:0.24999996;fill-rule:evenodd;stroke-width:1.0000000pt;"
       d="M 370.43159,331.71365 C 367.08180,333.81219 368.44532,355.34742 378.45825,354.20555 C 383.64846,349.08826 377.42576,328.73136 370.43159,331.71365 z "
       id="path902"
       sodipodi:nodetypes="ccc" />
    <path
       style="fill:url(#radialGradient832);fill-opacity:0.24999996;fill-rule:evenodd;stroke-width:1.0000000pt;"
       d="M 149.05531,213.41604 C 145.10365,213.31919 134.36447,232.03536 143.34676,236.60493 C 150.49848,235.19859 156.53441,214.78554 149.05531,213.41604 z "
       id="path903"
       sodipodi:nodetypes="ccc" />
    <path
       style="fill:url(#radialGradient832);fill-opacity:0.24999996;fill-rule:evenodd;stroke-width:1.0000000pt;"
       d="M 414.70161,258.78980 C 411.35182,260.88834 412.71534,282.42357 422.72827,281.28170 C 427.91848,276.16441 421.69578,255.80751 414.70161,258.78980 z "
       id="path904"
       sodipodi:nodetypes="ccc" />
    <path
       style="fill:url(#radialGradient832);fill-opacity:0.24999996;fill-rule:evenodd;stroke-width:1.0000000pt;"
       d="M 413.51311,310.54332 C 410.40989,312.99180 414.09419,334.25329 423.92492,332.03534 C 428.53132,326.38680 420.14377,306.82219 413.51311,310.54332 z "
       id="path905"
       sodipodi:nodetypes="ccc" />
    <path
       style="fill:url(#radialGradient832);fill-opacity:0.24999996;fill-rule:evenodd;stroke-width:1.0000000pt;"
       d="M 194.03620,316.93061 C 190.09723,317.26165 181.44496,337.02938 190.86872,340.60083 C 197.82643,338.42937 201.61953,317.48331 194.03620,316.93061 z "
       id="path906"
       sodipodi:nodetypes="ccc" />
    <path
       style="fill:url(#radialGradient832);fill-opacity:0.24999996;fill-rule:evenodd;stroke-width:1.0000000pt;"
       d="M 430.86613,150.09800 C 428.12172,152.94286 434.64161,173.51265 444.08309,169.98831 C 447.88507,163.76979 436.93396,145.51608 430.86613,150.09800 z "
       id="path907"
       sodipodi:nodetypes="ccc" />
    <path
       style="fill:url(#radialGradient832);fill-opacity:0.24999996;fill-rule:evenodd;stroke-width:1.0000000pt;"
       d="M 392.89778,105.24716 C 390.72743,108.55089 400.94241,127.55823 409.56830,122.34705 C 412.15344,115.53221 398.01255,99.621190 392.89778,105.24716 z "
       id="path908"
       sodipodi:nodetypes="ccc" />
    <path
       style="fill:url(#radialGradient832);fill-opacity:0.24999996;fill-rule:evenodd;stroke-width:1.0000000pt;"
       d="M 445.62841,225.74021 C 442.61599,228.29958 447.06865,249.41352 456.81251,246.84065 C 461.21112,241.02882 452.11981,221.78115 445.62841,225.74021 z "
       id="path909"
       sodipodi:nodetypes="ccc" />
    <path
       style="fill:url(#radialGradient832);fill-opacity:0.24999996;fill-rule:evenodd;stroke-width:1.0000000pt;"
       d="M 373.70750,204.40148 C 369.95750,205.65148 366.20750,226.90148 376.20750,228.15148 C 382.45750,224.40148 381.20750,203.15148 373.70750,204.40148 z "
       id="path910"
       sodipodi:nodetypes="ccc" />
    <path
       style="fill:url(#radialGradient832);fill-opacity:0.24999996;fill-rule:evenodd;stroke-width:1.0000000pt;"
       d="M 338.66175,409.82905 C 334.94861,411.18464 331.80129,432.53222 341.83265,433.49882 C 347.97405,429.57350 346.12338,408.36737 338.66175,409.82905 z "
       id="path911"
       sodipodi:nodetypes="ccc" />
    <path
       style="fill:url(#radialGradient832);fill-opacity:0.24999996;fill-rule:evenodd;stroke-width:1.0000000pt;"
       d="M 289.95750,145.65148 C 286.20750,146.90148 282.45750,168.15148 292.45750,169.40148 C 298.70750,165.65148 297.45750,144.40148 289.95750,145.65148 z "
       id="path912"
       sodipodi:nodetypes="ccc" />
    <path
       style="fill:url(#radialGradient832);fill-opacity:0.24999996;fill-rule:evenodd;stroke-width:1.0000000pt;"
       d="M 137.43190,324.38994 C 133.50461,324.83868 125.44761,344.85642 134.97400,348.14433 C 141.86363,345.76568 145.02838,324.71552 137.43190,324.38994 z "
       id="path913"
       sodipodi:nodetypes="ccc" />
    <path
       style="fill:url(#radialGradient832);fill-opacity:0.24999996;fill-rule:evenodd;stroke-width:1.0000000pt;"
       d="M 202.45750,154.40148 C 198.70750,155.65148 194.95750,176.90148 204.95750,178.15148 C 211.20750,174.40148 209.95750,153.15148 202.45750,154.40148 z "
       id="path914"
       sodipodi:nodetypes="ccc" />
    <path
       style="fill:url(#radialGradient832);fill-opacity:0.24999996;fill-rule:evenodd;stroke-width:1.0000000pt;"
       d="M 194.95750,225.65148 C 191.20750,226.90148 187.45750,248.15148 197.45750,249.40148 C 203.70750,245.65148 202.45750,224.40148 194.95750,225.65148 z "
       id="path915"
       sodipodi:nodetypes="ccc" />
    <path
       style="fill:url(#radialGradient832);fill-opacity:0.24999996;fill-rule:evenodd;stroke-width:1.0000000pt;"
       d="M 248.70750,205.65148 C 244.95750,206.90148 241.20750,228.15148 251.20750,229.40148 C 257.45750,225.65148 256.20750,204.40148 248.70750,205.65148 z "
       id="path916"
       sodipodi:nodetypes="ccc" />
    <path
       style="fill:url(#radialGradient832);fill-opacity:0.24999996;fill-rule:evenodd;stroke-width:1.0000000pt;"
       d="M 92.875781,293.80195 C 88.929991,294.03802 79.804091,313.59161 89.139091,317.38901 C 96.147091,315.38576 100.44361,294.53714 92.875781,293.80195 z "
       id="path917"
       sodipodi:nodetypes="ccc" />
    <path
       style="fill:url(#radialGradient832);fill-opacity:0.24999996;fill-rule:evenodd;stroke-width:1.0000000pt;"
       d="M 228.70750,269.40148 C 224.95750,270.65148 221.20750,291.90148 231.20750,293.15148 C 237.45750,289.40148 236.20750,268.15148 228.70750,269.40148 z "
       id="path918"
       sodipodi:nodetypes="ccc" />
    <path
       style="fill:url(#radialGradient832);fill-opacity:0.24999996;fill-rule:evenodd;stroke-width:1.0000000pt;"
       d="M 340.20180,367.83967 C 337.00180,370.16023 339.82046,391.55369 349.73308,389.73641 C 354.56486,384.27941 346.97797,364.39062 340.20180,367.83967 z "
       id="path919"
       sodipodi:nodetypes="ccc" />
    <path
       style="fill:url(#radialGradient832);fill-opacity:0.24999996;fill-rule:evenodd;stroke-width:1.0000000pt;"
       d="M 306.20750,366.90148 C 302.45750,368.15148 298.70750,389.40148 308.70750,390.65148 C 314.95750,386.90148 313.70750,365.65148 306.20750,366.90148 z "
       id="path920"
       sodipodi:nodetypes="ccc" />
    <path
       style="fill:url(#radialGradient832);fill-opacity:0.24999996;fill-rule:evenodd;stroke-width:1.0000000pt;"
       d="M 232.45750,426.90148 C 228.70750,428.15148 224.95750,449.40148 234.95750,450.65148 C 241.20750,446.90148 239.95750,425.65148 232.45750,426.90148 z "
       id="path921"
       sodipodi:nodetypes="ccc" />
    <path
       style="fill:url(#radialGradient832);fill-opacity:0.24999996;fill-rule:evenodd;stroke-width:1.0000000pt;"
       d="M 291.20750,300.65148 C 287.45750,301.90148 283.70750,323.15148 293.70750,324.40148 C 299.95750,320.65148 298.70750,299.40148 291.20750,300.65148 z "
       id="path922"
       sodipodi:nodetypes="ccc" />
    <path
       style="fill:url(#radialGradient832);fill-opacity:0.24999996;fill-rule:evenodd;stroke-width:1.0000000pt;"
       d="M 332.45750,198.15148 C 328.70750,199.40148 324.95750,220.65148 334.95750,221.90148 C 341.20750,218.15148 339.95750,196.90148 332.45750,198.15148 z "
       id="path923"
       sodipodi:nodetypes="ccc" />
    <path
       style="fill:url(#radialGradient832);fill-opacity:0.24999996;fill-rule:evenodd;stroke-width:1.0000000pt;"
       d="M 172.28578,266.87629 C 168.36431,267.37335 160.55439,287.48877 170.12054,290.65914 C 176.98036,288.19584 179.88569,267.10830 172.28578,266.87629 z "
       id="path924"
       sodipodi:nodetypes="ccc" />
    <path
       style="fill:url(#radialGradient832);fill-opacity:0.24999996;fill-rule:evenodd;stroke-width:1.0000000pt;"
       d="M 398.45162,171.28980 C 395.10182,173.38834 396.46535,194.92356 406.47827,193.78170 C 411.66848,188.66441 405.44579,168.30751 398.45162,171.28980 z "
       id="path925"
       sodipodi:nodetypes="ccc" />
    <path
       style="fill:url(#radialGradient832);fill-opacity:0.24999996;fill-rule:evenodd;stroke-width:1.0000000pt;"
       d="M 168.36616,406.86271 C 164.45218,407.41571 156.93024,427.64058 166.54068,430.67405 C 173.36463,428.11307 175.96861,406.98620 168.36616,406.86271 z "
       id="path926"
       sodipodi:nodetypes="ccc" />
    <path
       style="fill:url(#radialGradient832);fill-opacity:0.24999996;fill-rule:evenodd;stroke-width:1.0000000pt;"
       d="M 77.845985,163.42596 C 73.894690,163.31524 63.089821,181.99356 72.055999,186.59466 C 79.212623,185.21346 85.320229,164.82174 77.845985,163.42596 z "
       id="path927"
       sodipodi:nodetypes="ccc" />
    <path
       style="fill:url(#radialGradient832);fill-opacity:0.24999996;fill-rule:evenodd;stroke-width:1.0000000pt;"
       d="M 69.055308,234.66604 C 65.103647,234.56919 54.364468,253.28536 63.346756,257.85493 C 70.498484,256.44859 76.534409,236.03554 69.055308,234.66604 z "
       id="path928"
       sodipodi:nodetypes="ccc" />
    <path
       style="fill:url(#radialGradient832);fill-opacity:0.24999996;fill-rule:evenodd;stroke-width:1.0000000pt;"
       d="M 334.35422,160.75319 C 331.34770,163.31948 335.84899,184.42312 345.58690,181.82780 C 349.97210,176.00586 340.83648,156.77918 334.35422,160.75319 z "
       id="path929"
       sodipodi:nodetypes="ccc" />
    <path
       style="fill:url(#radialGradient832);fill-opacity:0.24999996;fill-rule:evenodd;stroke-width:1.0000000pt;"
       d="M 108.22010,333.46029 C 104.29281,333.90903 96.235807,353.92677 105.76220,357.21468 C 112.65183,354.83603 115.81658,333.78587 108.22010,333.46029 z "
       id="path930"
       sodipodi:nodetypes="ccc" />
    <path
       style="fill:url(#radialGradient832);fill-opacity:0.24999996;fill-rule:evenodd;stroke-width:1.0000000pt;"
       d="M 135.63192,368.76142 C 131.70463,369.21016 123.64763,389.22790 133.17402,392.51581 C 140.06365,390.13716 143.22840,369.08700 135.63192,368.76142 z "
       id="path931"
       sodipodi:nodetypes="ccc" />
    <path
       style="fill:url(#radialGradient832);fill-opacity:0.24999996;fill-rule:evenodd;stroke-width:1.0000000pt;"
       d="M 142.07657,262.66948 C 138.14928,263.11822 130.09228,283.13596 139.61867,286.42387 C 146.50830,284.04522 149.67305,262.99506 142.07657,262.66948 z "
       id="path932"
       sodipodi:nodetypes="ccc" />
    <path
       style="fill:url(#radialGradient832);fill-opacity:0.24999996;fill-rule:evenodd;stroke-width:1.0000000pt;"
       d="M 119.76208,175.71991 C 115.83479,176.16865 107.77779,196.18639 117.30418,199.47430 C 124.19381,197.09565 127.35856,176.04549 119.76208,175.71991 z "
       id="path933"
       sodipodi:nodetypes="ccc" />
    <path
       style="fill:url(#radialGradient832);fill-opacity:0.24999996;fill-rule:evenodd;stroke-width:1.0000000pt;"
       d="M 151.49805,106.75363 C 148.14376,104.66229 129.38417,115.32546 134.79859,123.82526 C 141.67286,126.24794 157.24382,111.73346 151.49805,106.75363 z "
       id="path934"
       sodipodi:nodetypes="ccc" />
    <path
       style="fill:url(#radialGradient832);fill-opacity:0.24999996;fill-rule:evenodd;stroke-width:1.0000000pt;"
       d="M 99.755978,249.58857 C 95.828688,250.03731 87.771688,270.05505 97.298078,273.34296 C 104.18771,270.96431 107.35246,249.91415 99.755978,249.58857 z "
       id="path935"
       sodipodi:nodetypes="ccc" />
    <path
       style="fill:url(#radialGradient832);fill-opacity:0.24999996;fill-rule:evenodd;stroke-width:1.0000000pt;"
       d="M 261.09516,254.23405 C 257.34516,255.48405 253.59516,276.73405 263.59516,277.98405 C 269.84516,274.23405 268.59516,252.98405 261.09516,254.23405 z "
       id="path936"
       sodipodi:nodetypes="ccc" />
    <path
       style="fill:url(#radialGradient832);fill-opacity:0.24999996;fill-rule:evenodd;stroke-width:1.0000000pt;"
       d="M 241.08907,316.56074 C 237.33907,317.81074 233.58907,339.06074 243.58907,340.31074 C 249.83907,336.56074 248.58907,315.31074 241.08907,316.56074 z "
       id="path937"
       sodipodi:nodetypes="ccc" />
    <path
       style="fill:url(#radialGradient832);fill-opacity:0.24999996;fill-rule:evenodd;stroke-width:1.0000000pt;"
       d="M 290.54978,188.83622 C 286.79978,190.08622 283.04978,211.33622 293.04978,212.58622 C 299.29978,208.83622 298.04978,187.58622 290.54978,188.83622 z "
       id="path938"
       sodipodi:nodetypes="ccc" />
    <path
       style="fill:url(#radialGradient832);fill-opacity:0.24999996;fill-rule:evenodd;stroke-width:1.0000000pt;"
       d="M 177.91627,175.67952 C 174.04131,176.46037 167.71453,197.09037 177.48586,199.55686 C 184.14843,196.60134 185.51293,175.35839 177.91627,175.67952 z "
       id="path939"
       sodipodi:nodetypes="ccc" />
    <path
       style="fill:url(#radialGradient832);fill-opacity:0.24999996;fill-rule:evenodd;stroke-width:1.0000000pt;"
       d="M 416.73052,216.44714 C 413.71810,219.00651 418.17076,240.12045 427.91462,237.54758 C 432.31323,231.73575 423.22192,212.48808 416.73052,216.44714 z "
       id="path940"
       sodipodi:nodetypes="ccc" />
    <path
       style="fill:url(#radialGradient832);fill-opacity:0.24999996;fill-rule:evenodd;stroke-width:1.0000000pt;"
       d="M 385.95190,278.00436 C 382.93948,280.56373 387.39214,301.67767 397.13600,299.10480 C 401.53461,293.29297 392.44330,274.04530 385.95190,278.00436 z "
       id="path941"
       sodipodi:nodetypes="ccc" />
    <path
       style="fill:url(#radialGradient832);fill-opacity:0.24999996;fill-rule:evenodd;stroke-width:1.0000000pt;"
       d="M 452.12592,184.89907 C 449.11350,187.45844 453.56616,208.57238 463.31002,205.99951 C 467.70863,200.18768 458.61732,180.94001 452.12592,184.89907 z "
       id="path942"
       sodipodi:nodetypes="ccc" />
    <path
       style="fill:url(#radialGradient832);fill-opacity:0.24999996;fill-rule:evenodd;stroke-width:1.0000000pt;"
       d="M 440.86227,279.34630 C 437.43050,281.30793 437.92371,302.88063 447.97456,302.14384 C 453.36710,297.24020 447.97112,276.64874 440.86227,279.34630 z "
       id="path943"
       sodipodi:nodetypes="ccc" />
    <path
       style="fill:url(#radialGradient832);fill-opacity:0.24999996;fill-rule:evenodd;stroke-width:1.0000000pt;"
       d="M 375.87009,400.49409 C 372.24414,402.06812 370.37203,423.56509 380.44312,423.93337 C 386.34021,419.64974 383.23158,398.59123 375.87009,400.49409 z "
       id="path944"
       sodipodi:nodetypes="ccc" />
    <path
       style="fill:url(#radialGradient874);fill-opacity:0.75000000;fill-rule:evenodd;stroke-width:1.0000000pt;"
       d="M 240.00000,192.50000 C 75.000000,141.25000 73.750000,396.25000 183.75000,388.75000 C 345.00000,393.75000 277.50000,235.00000 240.00000,192.50000 z "
       id="path945"
       sodipodi:nodetypes="ccc" />
    <path
       style="fill:#00cc00;fill-opacity:0.49999997;fill-rule:evenodd;stroke-width:1.0000000pt;"
       d="M 133.33840,183.00607 C 160.76673,131.37092 222.84304,95.728848 208.99266,94.959383 C 183.71076,113.06942 144.77364,130.51674 133.33840,183.00607 z "
       id="path946"
       sodipodi:nodetypes="ccc" />
    <path
       style="fill:#00cc00;fill-opacity:0.49999997;fill-rule:evenodd;stroke-width:1.0000000pt;"
       d="M 109.45813,82.016542 C 151.77872,98.175316 158.70020,72.315387 200.25132,73.854322 C 187.93988,70.006985 156.99930,74.568546 109.45813,82.016542 z "
       id="path947"
       sodipodi:nodetypes="ccc" />
    <path
       style="fill:#00cc00;fill-opacity:0.49999997;fill-rule:evenodd;stroke-width:1.0000000pt;"
       d="M 244.65939,181.27385 C 241.58153,122.79449 253.42540,95.646009 239.57502,94.876544 C 228.03305,120.26889 240.81206,167.42347 244.65939,181.27385 z "
       id="path948"
       sodipodi:nodetypes="ccc" />
    <path
       style="fill:#00cc00;fill-opacity:0.49999997;fill-rule:evenodd;stroke-width:1.0000000pt;"
       d="M 261.34096,78.250200 C 272.88295,99.795231 291.23965,24.004757 285.08393,11.693313 C 287.50279,24.527554 273.65241,72.863934 261.34096,78.250200 z "
       id="path949"
       sodipodi:nodetypes="ccc" />
    <path
       style="fill:#00cc00;fill-opacity:0.49999997;fill-rule:evenodd;stroke-width:1.0000000pt;"
       d="M 339.18945,79.708149 C 361.17258,89.574988 372.74032,81.578440 403.57416,67.672839 C 368.58367,81.029879 359.96501,78.883446 339.18945,79.708149 z "
       id="path950"
       sodipodi:nodetypes="ccc" />
    <path
       style="fill:#00cc00;fill-opacity:0.49999997;fill-rule:evenodd;stroke-width:1.0000000pt;"
       d="M 344.02714,153.05029 C 314.01800,126.88848 292.61290,102.35029 281.84038,102.35029 C 296.26878,119.99276 309.75832,131.80716 344.02714,153.05029 z "
       id="path951"
       sodipodi:nodetypes="ccc" />
    <path
       style="fill:#00cc00;fill-opacity:0.49999997;fill-rule:evenodd;stroke-width:1.0000000pt;"
       d="M 396.59373,136.09630 C 361.47448,121.52797 349.08576,104.13588 334.46592,99.519089 C 358.31934,117.21678 354.24738,117.89783 396.59373,136.09630 z "
       id="path952"
       sodipodi:nodetypes="ccc" />
    <path
       style="fill:#00cc00;fill-opacity:0.49999997;fill-rule:evenodd;stroke-width:1.0000000pt;"
       d="M 144.66210,37.936112 C 169.61635,40.932993 190.49494,49.478092 196.65066,58.711681 C 197.85822,46.510680 164.64244,39.257840 144.66210,37.936112 z "
       id="path953"
       sodipodi:nodetypes="ccc" />
  </g>

  <rdf:RDF 
   xmlns="http://web.resource.org/cc/"
   xmlns:dc="http://purl.org/dc/elements/1.1/"
   xmlns:rdf="http://www.w3.org/1999/02/22-rdf-syntax-ns#">
  <Work rdf:about="">
    <dc:title>Clipart by Nicu Buculei - pear</dc:title>
    <dc:rights>
       <Agent>
         <dc:title>Nicu Buculei</dc:title>
       </Agent>
    </dc:rights>
    <dc:type rdf:resource="http://purl.org/dc/dcmitype/StillImage" />
    <license rdf:resource="http://web.resource.org/cc/PublicDomain" />
  </Work>
   
  <License rdf:about="http://web.resource.org/cc/PublicDomain">
     <permits rdf:resource="http://web.resource.org/cc/Reproduction" />
     <permits rdf:resource="http://web.resource.org/cc/Distribution" />
     <permits rdf:resource="http://web.resource.org/cc/DerivativeWorks" />
  </License>

</rdf:RDF>
</svg>
