<?xml version="1.0" encoding="UTF-8" standalone="no"?>
<!-- Created with Inkscape (http://www.inkscape.org/) -->
<svg xmlns:svg="http://www.w3.org/2000/svg" xmlns="http://www.w3.org/2000/svg" version="1.0" width="286.19699" height="233.073" viewBox="0 0 286.197 233.073" id="Layer_1" xml:space="preserve"><defs id="defs230"/>

<g id="g5">
	<path d="M 86.962,194.165 C 86.494,198.7 85.054,203.488 82.102,208.528 C 79.114,213.532 75.334,219.976 69.646,224.116 C 63.814,228.112 55.354,231.82 48.01,232.72 C 40.594,233.476 33.07,233.224 26.014,229.048 C 18.922,224.692 10.426,216.951 6.07,207.628 C 1.75,198.195 -0.086,183.256 0.022,173.356 C -0.05,163.312 3.478,155.356 5.89,148.804 C 8.23,142.36 10.93,137.716 14.134,134.872 L 14.134,134.872 C 12.262,134.979 11.11,134.655 10.822,133.611 C 10.462,132.496 10.246,131.091 12.118,128.823 C 13.954,126.412 18.094,122.451 21.622,119.859 C 25.006,117.267 28.57,115.179 32.458,113.451 L 32.458,113.451 C 30.406,112.695 29.11,111.471 28.426,109.779 C 27.742,108.051 27.742,105.855 28.426,103.191 L 28.426,103.191 C 25.906,102.651 23.89,102.111 22.378,101.175 C 20.83,100.203 19.282,99.231 19.246,97.863 C 19.03,96.351 20.65,94.299 21.622,93.111 C 22.486,91.923 22.99,91.383 24.934,91.095 C 26.842,90.735 29.542,90.735 33.178,91.095 L 33.178,91.095 L 33.718,89.439 L 33.718,89.439 C 31.018,89.583 28.75,89.115 26.77,88.035 C 24.718,86.883 23.062,85.443 21.802,82.887 C 20.506,80.187 18.958,76.875 19.246,72.267 C 19.426,67.479 20.83,60.351 23.458,55.059 C 25.978,49.731 30.694,45.159 34.834,40.947 C 38.974,36.771 43.222,33.171 48.01,30.147 L 48.01,30.147 C 48.406,27.735 48.262,25.719 47.29,24.099 C 46.21,22.299 43.906,21.795 42.322,20.247 C 40.666,18.735 38.362,17.079 37.93,15.135 C 37.426,12.939 37.282,10.167 39.586,7.791 C 41.854,5.343 48.046,2.031 51.502,1.203 C 54.814,0.339 58.198,1.311 59.566,2.859 C 60.79,4.371 60.178,8.115 59.386,10.347 C 58.522,12.363 55.498,13.299 54.778,15.675 C 54.022,18.123 54.13,21.039 54.958,24.819 L 54.958,24.819 C 58.198,21.579 62.518,18.051 68.35,14.379 C 74.218,10.563 83.182,4.839 89.41,2.463 C 95.422,0.015 99.598,-0.129 104.422,0.087 C 109.174,0.195 113.854,0.987 117.634,3.579 C 121.27,6.243 124.078,11.787 126.058,15.495 C 127.822,19.059 128.218,21.327 128.614,24.819 C 129.01,28.275 128.902,31.875 128.434,36.015 L 128.434,36.015 L 126.238,37.455 L 126.238,37.455 C 126.094,37.779 126.454,38.103 127.318,38.031 C 128.146,37.851 129.478,37.455 131.17,37.275 C 132.79,37.095 134.842,37.131 137.038,37.095 C 139.09,36.951 141.286,37.023 143.626,36.915 L 143.626,36.915 C 144.346,36.123 145.319,35.475 146.939,35.259 C 148.451,34.971 150.178,34.791 152.807,35.259 C 155.399,35.655 159.395,36.015 162.311,37.455 C 165.046,38.751 167.891,41.307 169.475,43.323 C 171.059,45.195 171.743,47.283 171.67,49.191 L 171.67,49.191 C 172.282,50.019 173.254,50.307 174.586,49.911 C 175.882,49.515 177.538,48.903 179.554,46.815 C 181.571,44.511 184.162,39.399 186.502,36.915 C 188.662,34.431 189.851,33.387 192.55,31.983 C 195.107,30.471 198.238,28.671 202.09,27.951 C 205.87,27.159 210.262,26.979 215.267,27.411 L 215.267,27.411 C 218.183,22.731 221.063,18.699 224.05,14.919 C 226.93,11.031 229.559,6.963 233.05,5.055 C 236.47,3.255 240.683,3.291 245.111,3.759 C 249.539,4.083 255.335,5.127 259.583,6.891 C 263.724,8.403 266.999,11.427 269.843,13.479 C 272.543,15.459 274.991,17.259 276.072,19.167 C 277.08,21.075 276.971,22.911 275.892,24.819 L 275.892,24.819 C 276.971,26.223 277.763,28.167 278.268,30.507 C 278.7,32.919 279.852,34.107 278.664,38.931 C 277.296,43.611 274.74,50.055 270.601,58.551 L 270.601,58.551 L 273.516,59.451 L 273.516,59.451 C 276.18,58.767 278.485,58.587 280.285,58.911 C 282.085,59.091 283.237,59.883 284.317,61.287 C 285.289,62.691 286.369,65.643 286.153,67.515 C 285.72,69.351 284.173,71.295 282.481,72.087 C 280.752,72.627 278.989,72.303 276.073,71.547 C 273.085,70.827 269.304,69.603 264.733,67.875 L 264.733,67.875 C 263.941,68.775 263.256,69.495 262.537,70.431 C 261.853,71.259 261.133,72.123 260.521,73.023 L 260.521,73.023 L 260.521,76.119 L 260.521,76.119 C 261.601,75.435 262.789,75.147 263.796,75.399 C 264.66,75.507 265.596,76.083 266.748,77.415 C 267.936,78.819 270.528,81.303 271.32,83.463 C 272.04,85.442 271.931,87.351 271.14,89.331 L 271.14,89.331 L 235.427,125.043 L 235.427,125.043 C 236.4,127.887 236.543,132.171 236.148,138.039 C 235.715,143.906 234.78,153.375 232.656,160.034 C 230.387,166.623 226.32,172.347 222.792,177.062 C 219.192,181.598 215.556,185.486 211.056,187.322 C 206.376,188.978 199.788,188.438 195.468,187.503 C 191.185,186.387 187.945,184.371 185.605,181.455 C 183.121,178.467 181.716,174.831 180.997,170.114 L 180.997,170.114 C 172.465,171.518 163.933,173.138 155.005,175.406 C 146.041,177.566 136.285,180.266 127.681,183.11 C 118.969,185.919 109.573,189.554 103.525,192.074 C 97.549,194.522 94.273,196.898 91.609,197.402 C 88.727,197.656 87.359,196.721 86.962,194.165 L 86.962,194.165 z M 227.075,23.668 C 232.331,21.292 236.903,19.6 240.935,18.592 C 244.859,17.548 247.378,17.404 250.979,17.332 C 254.579,17.152 258.178,17.26 262.21,17.656 L 262.21,17.656 C 255.767,15.244 250.618,13.444 246.479,12.4 C 242.302,11.176 239.926,10.312 237.407,11.176 C 234.886,12.112 232.835,15.712 231.251,17.944 C 229.451,19.997 228.191,21.905 227.075,23.668 L 227.075,23.668 z " style="fill-rule: evenodd; stroke: rgb(0, 0, 0); stroke-width: 0.036; stroke-miterlimit: 10;" id="path7"/>
	<path d="M 88.799,175.948 C 89.051,174.005 89.159,171.52 89.123,168.352 C 89.051,165.076 88.835,160.504 88.331,157.012 C 87.683,153.448 86.783,150.316 85.487,147.327 L 85.487,147.327 L 83.147,154.456 L 83.147,154.456 C 83.723,156.832 84.047,159.676 84.119,162.987 C 84.191,166.227 84.191,169.467 83.435,174.111 C 82.571,178.756 81.131,184.084 79.115,190.491 L 79.115,190.491 C 79.475,192.256 80.267,193.155 81.203,192.903 C 82.103,192.687 83.615,191.967 84.911,189.195 C 86.243,186.389 87.359,181.925 88.799,175.948 L 88.799,175.948 z " style="fill: rgb(40, 65, 70); fill-rule: evenodd;" id="path9"/>
	<path d="M 29.903,155.645 C 29.219,157.914 28.607,160.253 28.067,162.666 C 27.527,165.077 27.023,166.266 26.699,169.974 C 26.231,173.502 25.331,179.442 25.511,184.05 C 25.547,188.55 25.799,192.905 27.095,197.262 C 28.319,201.69 30.515,206.478 33.143,210.077 C 35.663,213.498 38.651,216.306 42.251,217.817 C 45.815,219.221 50.423,219.149 54.275,218.573 C 57.911,217.853 61.367,216.269 64.643,213.677 C 67.811,210.905 71.303,206.981 73.751,203.021 C 76.127,199.133 77.963,194.958 79.115,190.493 L 79.115,190.493 C 80.339,189.449 81.635,188.298 82.859,186.893 C 84.155,185.525 85.307,183.905 86.459,182.177 C 87.503,180.341 88.151,178.217 88.799,175.948 L 88.799,175.948 C 87.719,183.041 86.675,189.016 85.667,194.02 C 84.587,198.952 84.263,201.94 82.463,205.756 C 80.591,209.571 77.747,213.388 74.615,216.916 C 71.339,220.336 68.387,223.792 63.383,226.312 C 58.271,228.76 50.459,231.352 44.411,231.568 C 38.291,231.676 32.747,230.704 27.095,227.249 C 21.335,223.648 14.171,217.457 10.175,210.473 C 6.179,203.345 4.091,192.869 2.939,185.452 C 1.643,178.036 1.463,173.104 2.543,166.48 C 3.587,159.712 7.907,148.948 9.095,145.457 C 10.139,141.929 10.139,141.929 9.095,145.457 L 9.095,145.457 C 10.823,145.528 12.767,145.997 14.783,146.717 C 16.799,147.473 19.319,148.66 21.227,149.74 C 22.883,150.568 24.251,151.324 25.619,152.297 C 27.022,153.341 28.499,154.276 29.903,155.645 L 29.903,155.645 z " style="fill: rgb(80, 110, 110); fill-rule: evenodd;" id="path11"/>
	<path d="M 9.095,145.457 C 10.499,142.505 12.047,140.093 13.883,137.933 C 15.575,135.773 17.375,134.009 19.859,132.641 C 22.271,131.093 25.511,130.049 28.751,129.509 C 31.883,128.897 36.347,129.041 39.227,129.509 C 42.107,129.977 44.159,130.841 45.779,132.244 L 45.779,132.244 C 42.683,134.944 40.091,137.789 37.859,140.776 C 35.591,143.656 33.719,147.364 32.387,149.957 C 31.055,152.549 30.227,154.564 29.903,156.148 L 29.903,156.148 C 27.275,153.988 24.251,152.152 20.831,150.352 C 17.267,148.553 13.487,146.969 9.095,145.457 L 9.095,145.457 z " style="fill: rgb(40, 65, 70); fill-rule: evenodd;" id="path13"/>
	<path d="M 15.935,196.001 C 14.675,193.192 12.155,188.297 11.435,183.4 C 10.571,178.541 9.815,171.952 10.967,167.236 C 11.975,162.34 15.935,156.293 17.987,154.924 C 20.075,153.592 22.919,155.068 23.171,158.92 C 23.207,162.628 19.751,171.951 18.779,177.027 C 17.771,181.923 17.519,184.803 17.591,188.584 C 17.663,192.327 19.139,197.872 18.959,199.239 C 18.563,200.465 17.23,198.557 15.935,196.001 L 15.935,196.001 z " style="fill: rgb(120, 135, 140); fill-rule: evenodd;" id="path15"/>
	<path d="M 14.17,164.824 C 14.026,162.952 15.178,160.108 16.222,158.921 C 17.194,157.66 19.246,157.049 20.146,157.769 C 20.938,158.525 21.838,161.261 21.334,163.349 C 20.614,165.328 17.842,169.145 16.618,169.505 C 15.287,169.612 14.279,166.625 14.17,164.824 L 14.17,164.824 z " style="fill: rgb(160, 175, 175); fill-rule: evenodd;" id="path17"/>
	<path d="M 126.851,23.668 C 126.491,21.04 125.807,18.484 124.511,15.856 C 123.179,13.12 120.875,9.952 119.255,7.9 C 117.599,5.884 116.807,4.768 114.647,3.868 C 112.343,2.896 108.635,2.212 105.899,1.96 C 103.127,1.6 100.679,1.348 98.015,1.744 C 95.171,1.996 92.615,2.428 89.231,3.868 C 85.703,5.272 81.131,7.72 77.459,10.096 C 73.679,12.364 70.151,14.632 67.163,17.584 C 64.103,20.536 61.367,24.424 59.495,27.448 C 57.551,30.328 56.471,32.668 55.859,34.9 C 55.067,37.096 54.383,39.544 55.463,40.444 C 56.579,41.092 59.639,39.76 62.303,39.364 C 64.751,38.932 66.767,37.996 70.727,37.924 C 74.795,37.708 82.355,38.032 86.027,38.464 C 89.483,38.752 91.211,39.292 91.643,40.228 C 91.859,41.2 88.979,42.928 88.007,44.152 C 86.999,45.232 86.315,46.312 85.811,47.104 L 85.811,47.104 C 89.519,45.196 94.091,42.856 100.211,39.688 C 106.223,36.412 117.095,31.048 121.703,28.312 C 126.095,25.613 127.859,24.064 126.851,23.668 L 126.851,23.668 z " style="fill: rgb(215, 240, 230); fill-rule: evenodd;" id="path19"/>
	<path d="M 85.811,47.104 C 88.187,46.276 90.491,45.592 92.723,45.052 C 94.919,44.512 96.971,43.9 99.023,43.612 L 99.023,43.612 C 101.903,41.308 104.603,39.508 107.123,38.068 C 109.535,36.592 112.091,35.26 113.819,35.044 C 115.331,34.612 115.547,35.8 116.843,36.124 C 118.067,36.412 119.579,36.844 121.379,36.736 C 123.179,36.556 125.159,36.016 127.463,35.116 L 127.463,35.116 C 127.679,34.468 127.751,33.208 127.679,31.336 C 127.607,29.392 127.283,26.836 126.851,23.668 L 126.851,23.668 C 118.967,27.448 112.235,30.58 106.655,33.748 C 100.967,36.772 96.719,39.58 93.227,41.884 C 89.771,44.044 87.25,45.881 85.811,47.104 L 85.811,47.104 z " style="fill: rgb(120, 135, 140); fill-rule: evenodd;" id="path21"/>
	<path d="M 68.675,37.997 C 74.399,32.093 79.691,26.909 84.983,22.301 C 90.203,17.585 95.351,13.589 99.851,10.313 C 104.243,7.001 107.915,4.517 111.155,2.717 L 111.155,2.717 C 112.703,3.077 113.855,3.509 115.007,4.013 C 115.943,4.409 116.879,4.985 117.527,5.597 C 118.247,6.173 118.679,6.785 119.111,7.577 L 119.111,7.577 C 113.711,10.205 108.419,13.373 102.947,16.937 C 97.331,20.573 90.635,25.397 86.351,29.069 C 82.031,32.633 79.223,35.477 77.531,37.997 L 77.531,37.997 C 75.587,37.925 73.895,37.781 72.455,37.853 C 70.943,37.781 69.683,37.925 68.675,37.997 L 68.675,37.997 z " style="opacity: 0.54; fill: rgb(255, 255, 255); fill-rule: evenodd;" id="path23"/>
	<path d="M 49.378,28.997 L 54.166,25.253 L 54.166,25.253 C 53.302,22.265 53.086,19.745 53.122,17.837 C 53.194,15.821 53.77,14.705 54.706,13.517 C 55.498,12.185 57.19,11.501 57.982,10.097 C 58.594,8.585 59.242,6.029 58.954,4.769 C 58.594,3.401 57.658,2.357 56.002,2.213 C 54.31,1.925 51.106,2.933 48.874,3.869 C 46.39,4.841 43.582,6.677 41.962,8.117 C 40.414,9.449 39.622,10.457 39.442,11.825 C 39.082,13.013 39.01,13.985 40.198,15.569 C 41.422,17.153 45.022,19.493 46.57,21.077 C 47.974,22.445 48.37,22.913 48.874,24.281 C 49.307,25.577 49.522,27.197 49.378,28.997 L 49.378,28.997 z " style="fill: rgb(40, 65, 70); fill-rule: evenodd;" id="path25"/>
	<path d="M 52.979,24.353 C 52.907,23.237 51.827,20.249 51.827,18.449 C 51.755,16.649 53.159,14.957 53.123,14.201 C 53.015,13.481 52.043,13.193 51.611,14.021 C 51.071,14.813 50.531,16.793 50.531,18.593 C 50.567,20.285 51.323,22.985 51.827,24.065 C 52.259,25.108 52.834,25.108 52.979,24.353 L 52.979,24.353 z " style="fill: rgb(160, 175, 175); fill-rule: evenodd;" id="path27"/>
	<path d="M 34.834,62.801 C 35.014,60.389 35.446,57.941 36.13,55.313 C 36.814,52.541 37.822,49.553 38.866,46.889 C 39.73,44.117 40.918,41.453 41.89,39.437 C 42.79,37.349 43.798,35.909 44.626,34.829 L 44.626,34.829 C 45.886,33.713 47.398,32.453 49.162,31.193 C 50.962,29.789 53.446,27.845 55.066,27.017 C 56.578,26.081 57.802,25.577 58.054,26.189 C 58.126,26.801 56.614,28.817 55.858,30.869 C 55.03,32.849 53.77,36.305 53.482,38.177 C 53.158,39.941 53.158,40.841 54.166,41.417 C 54.994,41.849 56.47,41.669 59.17,41.273 C 61.942,40.769 66.694,39.365 70.654,39.005 C 74.506,38.753 79.222,39.041 82.318,39.437 C 85.27,39.581 88.114,39.545 88.618,40.445 C 89.014,41.309 86.062,43.469 85.198,44.837 C 84.19,46.133 82.93,47.717 83.218,48.473 C 83.47,49.157 84.802,49.265 86.782,48.941 C 88.69,48.617 91.174,47.573 94.522,46.205 L 94.522,46.205 C 88.222,49.373 82.138,52.793 75.73,56.753 C 69.322,60.677 63.022,64.853 56.434,69.569 L 56.434,69.569 C 55.066,67.337 53.302,65.645 51.286,64.349 C 49.234,63.089 46.786,62.045 44.086,61.901 C 41.351,61.648 38.219,61.9 34.834,62.801 L 34.834,62.801 z " style="fill: rgb(25, 95, 245); fill-rule: evenodd;" id="path29"/>
	<path d="M 39.839,52.36 C 40.055,49.948 40.163,47.284 41.963,44.224 C 43.655,41.056 48.983,34.576 50.315,33.928 C 51.503,33.388 49.127,38.428 49.703,40.3 C 50.243,41.992 50.459,43.72 53.807,43.936 C 57.191,43.936 64.931,41.164 69.647,40.876 C 74.183,40.516 79.691,40.84 81.167,42.244 C 82.499,43.504 82.355,45.808 78.215,49.156 C 73.931,52.648 60.395,60.892 56.219,62.656 C 52.043,64.132 55.067,59.344 53.483,58.552 C 51.611,57.724 48.587,57.724 46.355,57.724 C 44.159,57.724 41.747,59.02 40.667,58.264 C 39.551,57.257 39.551,54.737 39.839,52.36 L 39.839,52.36 z " style="fill: rgb(76, 167, 255); fill-rule: evenodd;" id="path31"/>
	<path d="M 20.794,69.029 C 20.254,73.025 20.434,76.409 21.478,79.325 C 22.486,82.169 24.502,84.581 26.95,86.165 C 29.254,87.569 31.99,87.785 35.59,88.217 C 39.118,88.469 43.87,88.397 48.046,88.685 C 52.078,89.117 56.902,89.585 59.998,90.485 C 63.058,91.277 65.11,92.321 66.298,93.617 L 66.298,93.617 C 69.358,93.581 73.426,93.365 78.898,92.969 C 84.298,92.429 91.498,92.393 98.554,91.061 C 105.502,89.621 115.906,87.209 120.622,85.229 C 125.158,83.249 126.238,80.657 126.382,79.541 C 126.49,78.353 124.834,78.173 121.558,78.173 C 118.21,77.993 118.246,78.137 106.51,79.037 C 94.594,79.865 76.342,81.305 50.926,83.357 L 50.926,83.357 C 48.946,84.617 46.39,85.301 43.402,85.409 C 40.306,85.445 35.77,85.085 32.854,83.753 C 29.794,82.277 26.95,79.505 25.726,76.985 C 24.502,74.465 24.502,71.657 25.726,68.705 L 25.726,68.705 L 20.794,69.029 L 20.794,69.029 z " style="fill: rgb(25, 95, 245); fill-rule: evenodd;" id="path33"/>
	<path d="M 41.063,37.673 C 39.911,38.645 38.975,39.437 37.859,40.444 C 36.743,41.308 35.735,42.1 34.691,43.216 C 33.611,44.332 32.351,45.592 31.307,46.996 C 30.119,48.292 28.859,49.408 27.923,50.74 C 27.023,51.928 26.267,52.792 25.655,54.16 C 24.863,55.456 23.999,56.968 23.459,58.552 C 22.811,59.956 22.307,61.396 21.947,63.16 C 21.371,64.996 20.939,67.048 20.795,69.028 C 20.615,70.9 20.723,73.312 21.119,74.176 C 21.515,74.86 22.163,74.608 23.063,73.708 C 23.783,72.772 24.719,70.036 25.727,68.704 C 26.591,67.264 27.599,66.364 28.895,65.464 C 30.191,64.492 31.667,63.556 33.467,62.8 L 33.467,62.8 C 33.575,61.252 33.899,59.92 34.043,58.408 C 34.115,56.86 34.259,55.528 34.619,54.016 C 34.979,52.432 35.663,50.776 36.275,49.192 C 36.743,47.5 37.427,45.7 37.931,44.368 C 38.363,42.892 39.011,42.1 39.479,41.02 C 40.055,39.869 40.451,38.752 41.063,37.673 L 41.063,37.673 z " style="fill: rgb(76, 167, 255); fill-rule: evenodd;" id="path35"/>
	<path d="M 56.903,71.009 C 58.919,69.533 61.727,67.733 65.615,65.213 C 69.431,62.657 74.471,59.345 79.907,56.105 C 85.307,52.793 92.975,48.365 97.655,45.737 C 102.155,43.037 105.287,41.309 107.051,40.265 L 107.051,40.265 C 106.835,41.129 106.655,41.921 106.655,42.785 C 106.583,43.613 106.583,44.369 106.655,45.197 L 106.655,45.197 C 103.055,47.285 100.103,49.409 97.259,51.965 C 94.379,54.377 92.003,57.725 89.987,60.065 C 87.863,62.369 86.387,63.665 85.127,65.897 C 83.759,68.093 82.679,70.901 82.715,73.205 C 82.787,75.329 82.967,77.669 85.739,78.821 C 88.439,79.793 94.271,79.469 98.951,79.397 C 103.595,79.253 109.751,78.353 113.135,78.209 C 116.411,77.993 117.995,77.921 118.283,78.137 L 118.283,78.137 C 115.403,80.153 110.651,81.917 103.883,83.429 C 97.043,84.941 85.271,86.201 77.711,87.065 C 70.115,87.821 64.067,88.145 58.739,87.893 C 53.375,87.497 49.019,86.669 45.671,85.121 L 45.671,85.121 C 48.083,84.905 50.207,84.041 52.043,82.385 C 53.843,80.585 55.607,77.381 56.507,75.401 C 57.263,73.42 57.443,72.088 56.903,71.009 L 56.903,71.009 z " style="fill: rgb(76, 167, 255); fill-rule: evenodd;" id="path37"/>
	<path d="M 107.807,68.453 C 111.011,69.209 114.143,70.073 117.599,70.901 C 121.055,71.729 125.879,72.593 128.039,73.493 C 129.875,74.249 129.119,74.069 129.371,75.869 C 129.623,77.561 128.939,81.737 129.659,84.077 C 130.235,86.237 130.775,87.317 133.223,89.693 C 135.779,92.105 141.287,96.713 144.312,98.657 C 146.976,100.421 148.308,100.385 150.108,100.781 C 151.908,101.069 153.204,100.133 155.364,101.033 C 157.452,101.933 159.828,104.093 162.492,106.397 C 165.048,108.701 168.612,112.337 170.412,114.533 C 171.96,116.441 171.924,117.053 172.392,118.744 C 172.824,120.473 173.076,122.452 173.148,124.828 L 173.148,124.828 C 164.076,124.864 154.572,124.576 144.24,123.82 C 133.727,123.064 113.927,122.092 111.515,120.472 C 109.175,118.708 127.211,115.54 130.487,113.452 C 133.619,111.148 133.727,108.448 130.667,107.296 C 127.427,106.036 120.191,106.504 112.307,106.324 C 104.387,106.108 91.643,106.108 84.083,106.036 C 76.595,105.892 71.087,105.712 67.559,105.496 L 67.559,105.496 C 67.451,104.236 67.415,102.868 67.307,101.104 C 67.163,99.376 67.055,97.396 66.983,95.164 L 66.983,95.164 C 72.527,95.2 78.215,94.876 84.191,94.336 C 90.095,93.652 96.827,92.788 102.443,91.744 C 108.095,90.592 113.387,89.152 117.491,87.712 C 121.415,86.164 124.511,84.544 126.203,82.996 C 127.751,81.304 127.715,79.324 127.067,78.316 C 126.239,77.344 124.223,77.02 121.847,76.912 C 119.327,76.66 115.547,76.66 112.739,76.912 C 110.003,77.092 107.519,77.308 105.431,77.848 L 105.431,77.848 C 106.187,75.724 106.655,73.888 107.123,72.34 C 107.447,70.757 107.771,69.46 107.807,68.453 L 107.807,68.453 z " style="fill: rgb(25, 95, 245); fill-rule: evenodd;" id="path39"/>
	<path d="M 107.519,155.213 C 107.483,155.177 106.763,156.041 105.503,157.805 C 104.171,159.533 101.579,162.809 99.671,165.689 C 97.583,168.461 95.207,171.701 93.515,174.582 C 91.679,177.245 90.203,179.874 89.231,182.466 C 88.151,185.094 87.971,188.478 87.719,190.278 C 87.467,192.007 87.395,192.799 87.647,192.799 L 87.647,192.799 C 91.391,189.738 97.439,186.679 105.935,183.475 C 114.467,180.199 127.787,176.383 138.407,173.575 C 148.919,170.695 160.871,168.355 168.575,166.411 C 176.063,164.359 180.311,163.243 183.695,161.947 C 187.007,160.508 188.014,159.319 188.807,158.527 C 189.491,157.628 189.094,157.051 188.159,157.231 C 187.151,157.339 185.315,158.527 182.939,159.427 C 180.418,160.255 176.495,161.91 173.687,162.45 C 170.807,162.919 167.17,163.566 166.378,162.306 C 165.479,160.794 167.998,157.194 168.935,154.278 C 169.907,151.362 171.094,148.339 171.958,145.062 C 172.643,141.822 173.218,138.33 173.398,134.73 L 173.398,134.73 C 162.778,139.05 153.778,142.686 145.858,145.638 C 137.865,148.554 132.789,150.642 126.345,152.298 C 119.831,153.881 113.783,154.853 107.519,155.213 L 107.519,155.213 z " style="fill: rgb(25, 95, 245); fill-rule: evenodd;" id="path41"/>
	<path d="M 67.559,104.668 C 67.415,105.892 67.631,107.152 68.207,108.448 C 68.711,109.708 69.251,110.572 70.943,112.3 C 72.563,114.1 74.255,116.008 78.107,118.564 C 81.923,120.904 87.863,124.036 93.983,126.304 C 99.959,128.535 106.979,129.976 114.215,131.74 C 121.487,133.396 129.767,135.52 137.111,136.457 C 144.239,137.177 153.707,136.673 156.911,136.889 C 159.863,137.141 158.783,137.573 155.615,138.041 C 152.411,138.328 145.247,138.977 138.155,139.156 C 130.883,139.264 119.075,138.868 112.883,138.94 C 106.691,138.868 102.803,139.012 101.219,139.085 L 101.219,139.085 C 105.575,140.488 108.563,141.641 110.579,142.541 C 112.415,143.368 112.631,142.973 112.739,144.269 C 112.775,145.421 112.091,147.582 111.083,149.777 C 109.931,151.829 108.455,154.205 106.259,156.761 L 106.259,156.761 C 111.299,156.328 116.483,155.429 122.207,154.061 C 127.859,152.585 133.475,150.605 140.027,148.409 C 146.471,146.141 155.184,143.225 160.871,141.065 C 166.451,138.905 170.591,136.998 173.435,135.485 L 173.435,135.485 C 173.435,132.281 173.363,129.761 173.363,127.925 C 173.291,126.089 173.291,124.721 173.218,124.217 L 173.218,124.217 C 169.834,124.433 164.506,124.397 156.838,124.109 C 149.063,123.641 134.914,122.885 127.606,122.237 C 120.298,121.626 114.826,121.049 113.566,120.509 C 112.27,119.824 116.302,119.536 119.974,118.529 C 123.61,117.341 131.026,115.577 135.13,114.065 C 139.054,112.445 143.086,110.753 143.77,109.277 C 144.346,107.837 144.238,105.965 138.729,105.317 C 133.005,104.561 118.353,104.741 110.325,104.741 C 102.225,104.561 97.797,104.705 90.669,104.741 C 83.435,104.741 75.875,104.668 67.559,104.668 L 67.559,104.668 z " style="fill: rgb(76, 167, 255); fill-rule: evenodd;" id="path43"/>
	<path d="M 74.975,116.261 C 75.659,116.657 77.099,118.097 79.835,120.437 C 82.463,122.741 87.755,127.565 90.707,130.337 C 93.479,132.893 94.919,135.017 97.115,136.565 C 99.275,138.185 101.759,139.337 104.171,140.021 L 104.171,140.021 C 108.815,139.877 114.755,139.805 122.531,139.805 C 130.235,139.733 143.627,140.201 150.072,139.805 C 156.372,139.229 160.476,137.536 160.44,136.817 C 160.188,136.097 153.78,136.061 149.423,135.737 C 144.995,135.341 140.639,135.233 134.555,134.441 C 128.363,133.433 119.975,132.065 113.135,130.481 C 106.259,128.753 98.915,126.809 93.875,125.082 C 88.799,123.281 85.883,121.661 82.787,120.222 C 79.583,118.673 77.027,117.448 74.975,116.261 L 74.975,116.261 z " style="fill: rgb(135, 185, 240); fill-rule: evenodd;" id="path45"/>
	<path d="M 95.135,106.252 C 94.307,107.152 94.307,108.772 94.307,110.284 C 94.271,111.832 93.911,113.596 95.027,115.144 C 96.035,116.476 98.807,118.276 100.715,118.744 C 102.551,119.068 104.387,118.564 106.079,117.52 C 107.663,116.44 110.075,114.172 110.255,112.516 C 110.291,110.716 108.599,108.664 106.727,107.332 C 104.711,105.964 100.967,104.74 98.987,104.632 C 97.042,104.489 95.854,105.208 95.135,106.252 L 95.135,106.252 z " style="fill-rule: evenodd; stroke: rgb(0, 0, 0); stroke-width: 0.036; stroke-miterlimit: 10;" id="path47"/>
	<path d="M 95.854,108.232 C 95.602,109.132 95.386,110.716 95.602,112.012 C 95.71,113.092 95.494,113.992 96.502,115 C 97.438,115.864 99.274,117.413 101.038,117.7 C 102.73,117.917 105.502,117.089 106.294,116.476 C 107.014,115.828 106.114,114.964 105.25,113.74 C 104.134,112.336 101.722,109.564 100.39,108.484 C 99.058,107.296 98.122,106.864 97.438,106.9 C 96.683,106.792 96.106,107.333 95.854,108.232 L 95.854,108.232 z " style="fill: rgb(254, 247, 135); fill-rule: evenodd;" id="path49"/>
	<linearGradient x1="102.0679" y1="116.8008" x2="102.0679" y2="105.7744" id="XMLID_7_" gradientUnits="userSpaceOnUse">
		<stop style="stop-color: rgb(255, 228, 127); stop-opacity: 1;" offset="0" id="stop52"/>
		<stop style="stop-color: rgb(255, 119, 0); stop-opacity: 1;" offset="1" id="stop54"/>
	</linearGradient>
	<path d="M 105.25,116.801 C 106.006,116.765 106.438,116.333 106.978,115.793 C 107.518,115.289 108.382,114.389 108.454,113.489 C 108.382,112.265 107.662,111.005 106.726,109.709 C 105.646,108.449 103.702,107.081 102.298,106.433 C 100.714,105.677 98.986,105.713 97.942,105.857 C 96.862,106.073 96.322,106.541 96.034,107.405 C 95.602,108.089 95.566,109.277 95.926,110.141 C 96.286,110.861 96.934,111.653 98.014,112.517 C 98.986,113.381 100.678,114.713 101.974,115.541 C 103.163,116.225 104.351,116.692 105.25,116.801 L 105.25,116.801 z " style="fill: url(#XMLID_7_) rgb(0, 0, 0); fill-rule: evenodd;" id="path56"/>
	<path d="M 184.487,164.177 C 185.747,163.169 186.035,162.737 186.863,161.908 C 187.583,160.9 188.879,158.812 188.951,158.417 C 188.879,157.913 188.411,158.704 186.719,159.389 C 184.955,160.001 182.976,161.153 178.547,162.413 C 173.94,163.601 167.747,164.753 159.971,166.696 C 152.087,168.568 141.503,170.908 131.963,173.717 C 122.315,176.381 110.039,180.125 103.055,182.717 C 96.035,185.165 93.083,186.857 90.455,188.62 C 87.791,190.385 87.647,191.86 87.503,193.192 C 87.251,194.452 88.079,195.532 89.447,195.856 C 90.815,195.964 92.939,195.46 95.675,194.488 C 98.231,193.408 99.563,192.148 105.359,189.881 C 111.191,187.469 122.171,183.401 130.379,180.736 C 138.479,178.036 146.544,175.984 153.6,174.184 C 160.511,172.348 167.459,171.16 171.816,170.188 C 176.028,169.144 176.82,169 179.051,168.1 C 181.175,167.057 183.083,165.148 184.487,164.177 L 184.487,164.177 z " style="fill: rgb(76, 167, 255); fill-rule: evenodd;" id="path58"/>
	<path d="M 192.947,166.66 C 193.739,167.704 194.531,168.604 195.863,169.36 C 197.087,170.116 198.167,170.728 200.218,171.052 C 202.235,171.159 205.223,171.304 207.67,170.512 C 209.975,169.684 211.774,168.316 214.187,166.119 C 216.418,163.743 219.119,160.216 221.458,156.651 C 223.654,153.015 225.851,149.055 227.758,144.628 L 227.758,144.628 C 228.586,143.476 229.487,142.827 230.315,142.54 C 231.178,142.216 232.043,142.035 232.762,142.972 C 233.41,143.836 233.807,145.312 234.094,147.544 L 234.094,147.544 C 233.878,150.279 233.267,153.376 232.258,156.832 C 231.143,160.216 229.666,164.283 227.687,168.063 C 225.527,171.771 222.718,175.659 219.947,178.755 C 217.103,181.778 214.259,184.406 211.019,185.955 C 207.634,187.251 203.747,187.791 200.327,187.431 C 196.799,187.071 193.379,186.207 190.607,184.263 C 187.798,182.247 185.639,179.439 183.838,175.695 L 183.838,175.695 C 183.983,172.491 184.378,170.115 185.315,168.567 C 186.178,166.947 187.762,166.443 189.094,166.227 C 190.427,165.868 191.579,166.013 192.947,166.66 L 192.947,166.66 z " style="fill: rgb(80, 110, 110); fill-rule: evenodd;" id="path60"/>
	<path d="M 229.451,133.253 C 230.567,131.633 231.503,130.301 232.403,129.112 C 233.267,127.852 233.951,126.881 234.599,126.052 L 234.599,126.052 C 235.21,129.112 235.607,132.316 235.498,135.951 C 235.391,139.515 234.922,143.332 234.094,147.544 L 234.094,147.544 C 233.95,145.888 233.483,144.88 232.403,144.376 C 231.323,143.907 229.775,143.943 227.758,144.628 L 227.758,144.628 C 228.298,143.332 228.658,141.676 228.983,139.804 C 229.271,137.933 229.379,135.7 229.451,133.253 L 229.451,133.253 z " style="fill: rgb(40, 65, 70); fill-rule: evenodd;" id="path62"/>
	<path d="M 181.823,169.108 C 182.147,168.856 182.831,168.1 184.019,166.984 C 185.243,165.724 187.51,163.276 188.735,162.16 C 189.743,160.9 189.779,160.324 190.247,160.432 C 190.607,160.54 190.751,162.016 191.219,163.06 C 191.652,164.032 192.228,165.328 192.948,166.66 L 192.948,166.66 C 191.256,167.921 189.78,169.253 188.232,170.801 C 186.648,172.313 185.28,173.897 183.839,175.697 L 183.839,175.697 C 183.299,174.761 182.94,173.681 182.615,172.601 C 182.219,171.484 182.003,170.368 181.823,169.108 L 181.823,169.108 z " style="fill: rgb(40, 65, 70); fill-rule: evenodd;" id="path64"/>
	<path d="M 30.911,156.977 C 30.155,158.741 29.507,161.621 28.823,165.761 C 28.103,169.865 26.951,176.129 26.879,181.349 C 26.663,186.569 27.023,191.825 28.103,196.541 C 29.255,201.185 30.695,205.108 33.395,208.601 C 35.843,211.949 39.731,214.973 43.403,216.413 C 47.111,217.601 51.575,217.71 55.535,216.594 C 59.387,215.478 63.275,213.066 66.515,210.042 C 69.611,206.802 72.491,202.374 74.615,198.306 C 76.667,194.382 77.927,190.71 79.223,186.318 C 80.447,181.638 81.599,176.13 82.103,171.054 C 82.571,165.942 82.463,161.154 81.923,156.258 L 81.923,156.258 L 79.655,161.19 L 79.655,161.19 C 79.691,166.266 79.475,170.946 78.863,175.627 C 78.215,180.127 77.351,184.303 75.875,188.731 C 74.291,193.195 72.131,198.379 69.539,202.195 C 66.875,205.867 63.887,208.891 60.287,210.727 C 56.507,212.383 51.539,212.995 47.903,212.563 C 44.339,212.023 41.675,210.619 39.083,208.063 C 36.347,205.435 33.323,201.763 31.955,197.335 C 30.551,192.835 30.551,186.391 30.695,181.603 C 30.731,176.743 31.667,172.459 32.531,168.895 C 33.251,165.331 34.151,162.487 35.231,160.363 L 35.231,160.363 C 34.547,158.779 33.971,157.663 33.215,157.159 C 32.531,156.581 31.667,156.473 30.911,156.977 L 30.911,156.977 z " style="fill: rgb(179, 195, 192); fill-rule: evenodd;" id="path66"/>
	<path d="M 36.022,160.973 C 34.51,164.465 33.538,168.317 32.818,172.673 C 31.99,176.992 31.522,182.069 31.81,186.784 C 32.098,191.465 32.314,196.396 34.798,200.608 C 37.138,204.568 41.746,209.716 46.138,211.048 C 50.386,212.272 56.542,210.832 60.574,208.672 C 64.426,206.367 67.486,202.012 69.898,198.124 C 72.274,194.128 74.038,189.52 75.334,185.56 C 76.486,181.6 77.278,178.324 77.71,174.904 C 78.142,171.341 78.286,168.1 78.142,164.789 L 78.142,164.789 L 75.766,172.169 L 75.766,172.169 C 75.334,175.841 74.506,179.189 73.57,182.645 C 72.562,186.101 71.446,189.125 69.79,192.257 C 68.026,195.065 65.758,198.196 63.274,200.141 C 60.682,202.049 57.37,203.885 54.598,203.849 C 51.79,203.597 48.37,201.941 46.57,199.457 C 44.698,196.9 43.834,193.085 43.402,189.269 C 42.862,185.273 43.006,180.017 43.258,176.561 C 43.33,173.105 43.834,170.729 44.374,169.037 L 44.374,169.037 C 43.222,165.546 42.034,163.205 40.666,161.874 C 39.263,160.469 37.715,160.217 36.022,160.973 L 36.022,160.973 z " style="fill: rgb(211, 221, 197); fill-rule: evenodd;" id="path68"/>
	<path d="M 46.462,133.181 C 44.194,135.305 42.106,137.717 40.054,140.561 C 37.858,143.405 35.77,147.041 34.222,149.921 C 32.602,152.692 31.63,154.997 30.91,156.977 L 30.91,156.977 C 31.738,157.589 32.53,158.201 33.322,158.777 L 33.322,158.777 L 35.23,160.361 L 35.23,160.361 C 36.382,156.869 37.714,153.773 39.226,150.929 C 40.666,148.085 42.286,145.673 44.086,143.405 C 45.814,140.993 47.578,138.905 49.522,136.853 L 49.522,136.853 C 49.126,136.061 48.73,135.485 48.19,134.837 C 47.651,134.261 47.075,133.612 46.462,133.181 L 46.462,133.181 z " style="fill: rgb(151, 173, 202); fill-rule: evenodd;" id="path70"/>
	<path d="M 50.314,137.753 C 51.322,138.868 52.042,139.913 52.618,141.173 C 53.086,142.289 53.374,143.477 53.482,144.881 C 53.59,146.32 53.446,147.904 53.194,149.777 L 53.194,149.777 C 50.854,151.721 49.162,154.241 47.578,157.481 C 46.03,160.613 44.914,164.465 44.086,168.893 L 44.086,168.893 C 43.006,167.705 41.926,166.481 40.558,165.221 C 39.19,163.889 37.678,162.521 36.022,161.117 L 36.022,161.117 C 37.642,156.653 39.406,152.838 41.314,149.525 C 43.186,146.069 45.598,143.334 47.182,141.317 C 48.73,139.337 49.631,138.148 50.314,137.753 L 50.314,137.753 z " style="fill: rgb(188, 199, 191); fill-rule: evenodd;" id="path72"/>
	<path d="M 38.651,205.793 L 45.959,198.917 L 45.959,198.917 C 46.787,199.78 47.579,200.645 48.335,201.221 C 49.091,201.797 49.667,202.229 50.351,202.517 L 50.351,202.517 L 49.847,211.589 L 49.847,211.589 C 48.371,211.553 47.219,211.373 45.959,211.049 C 44.807,210.689 43.619,210.185 42.539,209.393 C 41.207,208.564 40.091,207.232 38.651,205.793 L 38.651,205.793 z " style="opacity: 0.54; fill: rgb(255, 255, 255); fill-rule: evenodd;" id="path74"/>
	<path d="M 45.779,170.261 C 45.887,168.244 46.427,166.193 47.003,164.105 C 47.579,161.945 48.407,159.569 49.487,157.661 C 50.459,155.682 51.683,153.846 53.159,152.298 L 53.159,152.298 C 52.871,156.329 52.727,159.642 52.727,162.522 C 52.727,165.258 52.295,167.382 53.087,169.291 C 53.807,171.162 55.319,172.818 56.795,173.862 C 58.091,174.799 59.459,175.23 60.899,175.158 L 60.899,175.158 C 60.683,177.57 60.719,179.335 61.007,180.99 C 61.259,182.503 61.187,183.835 62.339,184.41 C 63.383,184.95 65.327,185.742 67.343,184.158 C 69.251,182.503 71.447,179.19 73.931,174.366 L 73.931,174.366 C 74.219,175.303 74.039,176.814 73.391,179.299 C 72.743,181.675 71.591,185.742 70.079,188.731 C 68.495,191.719 66.335,194.455 63.743,197.084 L 63.743,197.084 C 58.271,194.275 54.203,190.712 51.143,186.247 C 48.155,181.744 46.319,176.417 45.779,170.261 L 45.779,170.261 z " style="fill: rgb(160, 136, 160); fill-rule: evenodd;" id="path76"/>
	<path d="M 45.779,170.261 C 45.311,172.529 44.987,175.193 44.807,178.253 C 44.555,181.24 44.015,185.093 44.555,188.441 C 44.987,191.861 46.031,195.821 47.543,198.233 C 48.983,200.357 50.963,201.582 53.087,201.905 C 55.247,202.157 57.803,201.113 59.783,200.321 C 61.511,199.493 62.879,198.414 63.743,197.082 L 63.743,197.082 C 62.699,194.489 61.511,192.006 60.035,189.342 C 58.379,186.606 56.651,183.762 54.851,181.241 C 52.943,178.613 50.927,176.094 49.379,174.221 C 47.831,172.385 46.679,171.017 45.779,170.261 L 45.779,170.261 z " style="fill: rgb(202, 154, 154); fill-rule: evenodd;" id="path78"/>
	<path d="M 55.031,169.469 C 55.571,170.513 56.363,171.305 57.407,171.845 C 58.415,172.313 59.855,173.321 61.187,172.529 C 62.303,171.593 63.311,170.046 64.787,166.914 C 66.299,163.638 68.243,158.453 70.079,153.449 C 71.735,148.229 73.643,141.317 74.975,136.745 C 76.271,132.281 77.171,128.861 77.819,126.63 L 77.819,126.63 L 73.391,123.102 L 73.391,123.102 C 70.799,132.354 68.387,139.915 66.299,146.07 C 64.139,152.047 62.447,155.61 60.647,159.534 C 58.739,163.421 56.867,166.732 55.031,169.469 L 55.031,169.469 z " style="fill: rgb(25, 95, 245); fill-rule: evenodd;" id="path80"/>
	<path d="M 47.615,130.408 C 50.459,133.072 52.475,135.845 53.951,138.581 C 55.355,141.28 55.787,144.017 56.075,146.933 C 56.327,149.777 55.607,152.837 55.463,155.825 C 55.139,158.777 54.707,162.161 54.599,164.466 C 54.419,166.518 54.563,167.67 54.743,168.75 C 54.923,169.794 55.283,170.478 55.823,170.802 L 55.823,170.802 C 57.191,169.65 58.631,167.741 60.287,164.79 C 61.835,161.874 63.707,158.058 65.507,153.197 C 67.343,148.086 69.431,140.021 70.943,134.981 C 72.275,129.941 73.211,126.197 73.751,123.353 L 73.751,123.353 C 73.283,122.813 72.419,122.093 71.303,121.337 C 70.079,120.509 68.603,119.645 66.731,118.601 L 66.731,118.601 C 61.151,119.573 56.831,121.049 53.627,123.029 C 50.351,124.973 48.479,127.385 47.615,130.408 L 47.615,130.408 z " style="fill: rgb(76, 167, 255); fill-rule: evenodd;" id="path82"/>
	<path d="M 68.207,119.32 C 66.011,118.096 63.599,117.016 60.827,116.081 C 58.055,115 55.067,114.029 51.575,113.597 C 47.939,113.129 43.259,113.165 39.623,113.705 C 35.951,114.173 32.891,115.001 29.615,116.585 C 26.123,118.097 22.199,120.689 19.499,122.849 C 16.691,125.009 14.675,127.313 13.595,129.077 C 12.551,130.661 12.803,131.777 13.235,132.426 C 13.631,132.894 13.739,133.037 15.791,132.426 C 17.735,131.705 21.371,129.582 24.755,128.573 C 28.103,127.565 31.991,126.485 35.303,126.449 C 38.435,126.342 41.171,126.701 43.511,127.674 C 45.743,128.466 47.255,129.617 48.443,131.274 L 48.443,131.274 C 50.135,129.51 52.331,128.07 55.031,126.522 C 57.731,124.902 61.871,123.282 64.535,122.238 C 67.055,121.158 68.963,120.726 70.259,120.547 L 70.259,120.547 C 69.575,120.148 68.891,119.753 68.207,119.32 L 68.207,119.32 z " style="fill: rgb(135, 185, 240); fill-rule: evenodd;" id="path84"/>
	<path d="M 194.171,165.257 C 194.675,166.373 195.719,167.2 196.907,168.028 C 198.095,168.713 199.535,169.72 201.623,169.793 C 203.603,169.828 206.555,169.612 209.111,168.316 C 211.594,166.84 214.151,164.392 216.634,161.404 C 219.046,158.308 221.639,153.484 223.439,150.425 C 225.023,147.401 225.779,145.961 226.678,143.333 C 227.542,140.524 228.118,137.608 228.55,134.152 L 228.55,134.152 L 226.462,136.492 L 226.462,136.492 C 225.742,139.516 224.771,142.396 223.691,144.988 C 222.539,147.509 221.531,149.417 219.695,152.081 C 217.715,154.744 214.655,158.812 212.171,160.936 C 209.651,162.844 206.735,163.708 204.539,163.924 C 202.235,164.068 200.111,163.42 198.311,161.98 L 198.311,161.98 C 197.014,161.62 196.151,161.656 195.43,162.232 C 194.675,162.736 194.352,163.744 194.171,165.257 L 194.171,165.257 z " style="fill: rgb(211, 221, 197); fill-rule: evenodd;" id="path86"/>
	<path d="M 194.927,153.557 C 193.667,154.025 192.803,154.745 192.335,155.717 C 191.795,156.545 191.615,157.66 191.939,159.209 C 192.298,160.757 192.911,162.772 194.17,165.257 L 194.17,165.257 C 195.034,164.536 195.826,163.744 196.546,163.277 C 197.158,162.701 197.878,162.269 198.311,161.981 L 198.311,161.981 C 197.267,161.045 196.367,159.929 195.899,158.921 C 195.323,157.841 195.178,156.4 195.071,155.572 C 194.963,154.601 194.783,154.061 194.927,153.557 L 194.927,153.557 z " style="fill: rgb(179, 195, 192); fill-rule: evenodd;" id="path88"/>
	<path d="M 208.499,162.917 L 208.787,168.497 L 208.787,168.497 C 209.435,168.173 210.119,167.704 210.983,167.093 C 211.739,166.481 212.674,165.725 213.647,164.824 L 213.647,164.824 L 211.594,161.333 L 211.594,161.333 C 211.126,161.729 210.586,161.944 210.118,162.269 C 209.543,162.521 209.003,162.736 208.499,162.917 L 208.499,162.917 z " style="opacity: 0.54; fill: rgb(255, 255, 255); fill-rule: evenodd;" id="path90"/>
	<path d="M 196.007,152.873 C 197.951,151.541 200.363,149.921 203.243,148.013 C 206.087,145.997 210.587,142.937 213.143,141.173 C 215.663,139.337 217.283,138.112 218.147,137.357 L 218.147,137.357 C 219.407,137.79 220.594,137.933 221.855,137.933 C 223.006,137.861 224.231,137.501 225.382,136.997 L 225.382,136.997 C 225.13,138.616 224.41,140.381 223.366,142.685 C 222.286,144.845 220.882,147.365 219.01,150.245 L 219.01,150.245 C 215.519,153.054 212.351,155.25 209.111,157.121 C 205.907,158.958 202.846,160.182 199.93,161.082 L 199.93,161.082 C 198.634,160.182 197.735,159.174 197.086,157.769 C 196.439,156.328 196.079,154.744 196.007,152.873 L 196.007,152.873 z " style="fill: rgb(160, 136, 160); fill-rule: evenodd;" id="path92"/>
	<path d="M 199.751,160.973 C 201.768,159.389 203.711,158.021 205.98,156.725 C 208.175,155.393 210.444,154.385 212.784,153.269 C 215.015,152.081 217.104,151.001 219.192,149.885 L 219.192,149.885 C 217.644,152.477 216.024,154.565 214.332,156.545 C 212.568,158.452 210.444,160.145 208.788,161.225 C 207.024,162.089 205.584,162.485 204.072,162.413 C 202.56,162.413 201.119,161.801 199.751,160.973 L 199.751,160.973 z " style="fill: rgb(188, 199, 191); fill-rule: evenodd;" id="path94"/>
	<path d="M 174.695,159.929 C 176.855,159.857 179.591,159.137 182.975,157.697 C 186.395,156.258 190.678,154.025 194.998,151.433 C 199.318,148.805 204.25,145.817 208.643,142.613 C 213.071,139.409 216.311,137.861 218.975,134.693 C 221.639,131.525 219.334,129.617 219.334,129.617 L 219.334,129.617 C 215.338,133.794 211.234,137.681 206.482,141.426 C 201.73,145.062 195.465,149.058 191.182,151.758 C 186.862,154.35 183.694,155.825 180.85,157.157 C 177.862,158.345 175.089,159.029 174.045,159.498 C 173.003,159.929 173.219,160.072 174.695,159.929 L 174.695,159.929 z " style="fill: rgb(179, 195, 192); fill-rule: evenodd;" id="path96"/>
	<path d="M 219.587,130.085 C 219.768,130.013 219.732,129.904 219.335,129.616 C 218.903,129.257 218.184,128.104 217.319,128.249 C 216.346,128.356 215.879,128.789 213.827,130.373 C 211.703,131.921 208.391,134.765 204.719,137.644 C 200.904,140.488 195.035,144.988 191.579,147.4 C 188.123,149.669 185.567,151.18 184.055,151.648 L 184.055,151.648 C 181.32,153.377 179.339,154.852 177.684,156.22 C 176.064,157.588 174.912,158.703 174.371,159.712 L 174.371,159.712 L 179.843,157.876 L 179.843,157.876 C 182.364,156.939 184.812,155.607 187.476,154.275 C 190.068,152.799 192.551,151.215 195.467,149.379 C 198.312,147.507 201.155,145.959 204.575,143.475 C 207.959,140.811 212.639,136.671 215.303,134.367 C 217.859,132.064 219.155,130.732 219.587,130.085 L 219.587,130.085 z " style="fill: rgb(211, 221, 197); fill-rule: evenodd;" id="path98"/>
	<path d="M 228.551,120.581 C 228.263,119.86 227.724,119.213 226.931,118.492 C 225.995,117.736 224.952,116.908 223.656,116.297 C 222.252,115.505 221.208,114.965 219.552,114.677 C 217.861,114.353 215.737,114.101 214.008,114.749 C 212.172,115.289 210.769,116.406 209.256,118.097 L 209.256,118.097 C 208.86,119.321 208.609,121.085 208.645,123.244 C 208.609,125.368 208.716,128.032 209.113,131.093 L 209.113,131.093 C 211.056,129.328 212.821,128.032 214.405,127.349 C 215.953,126.629 217.321,126.233 218.509,126.737 C 219.661,127.097 220.526,128.141 221.245,129.869 L 221.245,129.869 C 223.729,128.466 225.529,127.17 226.789,125.586 C 228.011,124.001 228.551,122.381 228.551,120.581 L 228.551,120.581 z " style="fill: rgb(211, 221, 197); fill-rule: evenodd;" id="path100"/>
	<path d="M 221.243,129.868 C 221.351,130.444 221.423,131.165 221.315,132.028 C 221.134,132.784 220.882,133.9 220.559,134.692 C 220.163,135.413 219.767,135.952 219.227,136.457 L 219.227,136.457 C 220.09,136.744 221.027,136.853 222.035,136.78 C 222.971,136.709 223.979,136.564 225.203,135.772 C 226.391,134.764 228.371,132.856 229.343,131.165 C 230.207,129.4 230.64,127.564 230.495,125.801 C 230.351,124.001 229.703,122.309 228.551,120.581 L 228.551,120.581 C 226.14,123.677 223.691,126.772 221.243,129.868 L 221.243,129.868 z " style="fill: rgb(179, 195, 192); fill-rule: evenodd;" id="path102"/>
	<path d="M 214.691,127.204 C 214.655,125.152 214.583,123.532 214.331,122.057 C 214.079,120.545 213.684,119.429 213.143,118.565 C 212.531,117.666 211.775,116.945 210.874,116.549 L 210.874,116.549 C 211.594,115.757 212.458,115.253 213.466,114.893 C 214.439,114.533 215.626,114.353 216.742,114.353 C 217.714,114.281 218.614,114.389 219.442,114.677 L 219.442,114.677 C 218.794,116.406 218.182,118.204 217.894,120.221 C 217.461,122.237 217.354,124.181 217.282,126.449 L 217.282,126.449 C 216.526,126.485 215.95,126.737 215.553,126.809 C 215.087,126.988 214.799,126.988 214.691,127.204 L 214.691,127.204 z " style="opacity: 0.54; fill: rgb(255, 255, 255); fill-rule: evenodd;" id="path104"/>
	<path d="M 220.308,128.141 C 221.064,128.213 221.999,127.349 223.259,125.945 C 224.555,124.361 225.852,122.237 227.688,119.177 L 227.688,119.177 C 227.94,119.609 228.228,120.076 228.551,120.581 C 228.768,121.013 229.055,121.48 229.272,121.984 L 229.272,121.984 C 229.164,123.856 228.335,125.333 227.076,126.808 C 225.78,128.212 223.763,129.364 221.316,130.408 L 221.316,130.408 C 221.244,130.085 221.135,129.581 220.992,129.293 C 220.847,128.824 220.523,128.572 220.308,128.141 L 220.308,128.141 z " style="opacity: 0.54; fill: rgb(255, 255, 255); fill-rule: evenodd;" id="path106"/>
	<path d="M 207.312,120.761 C 207.204,121.877 207.276,123.281 207.383,125.116 C 207.455,126.917 207.707,129.112 207.995,131.704 L 207.995,131.704 C 204.431,134.873 201.587,137.249 199.607,138.976 C 197.483,140.596 196.258,142.432 195.935,142 C 195.575,141.424 196.187,138.832 197.338,136.168 C 198.311,133.504 200.218,128.428 201.946,125.943 C 203.567,123.28 205.403,121.696 207.312,120.761 L 207.312,120.761 z " style="fill: rgb(160, 136, 160); fill-rule: evenodd;" id="path108"/>
	<path d="M 214.511,112.553 L 261.671,77.561 L 261.671,77.561 C 262.283,77.201 263.003,77.201 263.688,77.561 C 264.263,77.813 265.02,78.425 265.812,79.397 C 266.64,80.297 267.684,81.701 268.511,82.781 C 269.196,83.717 269.699,84.581 270.024,85.373 L 270.024,85.373 C 263.076,91.241 256.488,96.821 249.684,102.509 C 242.952,108.197 236.291,113.597 229.704,119.105 L 229.704,119.105 C 228.732,117.126 227.616,115.613 226.212,114.569 C 224.809,113.417 223.296,112.913 221.388,112.625 C 219.443,112.301 217.104,112.229 214.511,112.553 L 214.511,112.553 z " style="fill: rgb(211, 221, 197); fill-rule: evenodd;" id="path110"/>
	<path d="M 229.667,118.997 C 236.219,113.416 242.808,107.945 249.575,102.292 C 256.343,96.64 263.003,90.988 269.987,85.192 L 269.987,85.192 C 270.527,86.416 270.455,87.712 269.915,88.936 C 269.268,90.052 269.159,89.764 266.387,92.536 C 263.543,95.38 259.152,99.664 253.068,105.784 L 253.068,105.784 C 249.431,108.988 246.011,112.336 242.268,116.224 C 238.488,120.04 234.923,124.108 231.036,128.572 L 231.036,128.572 C 231.576,127.961 231.792,126.917 231.54,125.297 C 231.288,123.677 230.711,121.625 229.667,118.997 L 229.667,118.997 z " style="fill: rgb(179, 195, 192); fill-rule: evenodd;" id="path112"/>
	<path d="M 228.155,116.585 L 269.302,83.933 L 269.302,83.933 C 269.519,84.401 269.842,84.833 269.987,85.229 C 270.094,85.625 270.311,85.949 270.346,86.345 L 270.346,86.345 C 258.359,97.541 249.143,105.929 242.554,112.049 C 235.859,118.097 232.078,121.373 230.783,122.273 L 230.783,122.273 C 230.459,121.157 230.135,119.969 229.667,119.105 C 229.199,118.204 228.695,117.232 228.155,116.585 L 228.155,116.585 z " style="opacity: 0.54; fill: rgb(255, 255, 255); fill-rule: evenodd;" id="path114"/>
	<path d="M 179.375,147.977 C 177.539,149.741 175.883,151.433 174.263,153.197 C 172.608,154.889 169.98,157.445 169.728,158.382 C 169.404,159.21 169.656,159.93 172.427,158.201 C 175.127,156.365 179.52,152.874 185.747,147.582 L 185.747,147.582 C 187.187,145.025 188.879,141.245 190.967,136.098 C 192.947,130.734 195.36,121.158 197.915,116.658 C 200.255,112.122 201.875,112.734 205.835,109.602 C 209.795,106.326 217.247,100.746 221.675,97.722 C 225.923,94.662 231.215,92.466 231.719,91.566 C 232.043,90.63 229.272,91.242 224.663,91.854 C 220.055,92.286 211.091,93.258 204.575,94.374 C 197.951,95.31 190.787,97.326 185.567,97.938 C 180.275,98.514 176.926,98.478 173.183,97.83 C 169.367,96.822 166.559,94.734 162.958,93.114 C 159.143,91.494 154.03,89.73 151.078,88.65 C 148.054,87.462 145.426,86.274 145.282,86.634 C 145.137,87.102 147.406,88.83 150.286,90.99 C 153.094,93.042 158.062,96.246 161.878,98.802 C 165.658,101.214 169.006,103.734 172.498,105.966 L 172.498,105.966 C 175.666,114.57 177.826,122.094 178.978,129.222 C 180.06,136.276 180.239,142.396 179.375,147.977 L 179.375,147.977 z M 178.295,103.049 C 182.003,106.469 184.955,109.169 187.691,111.149 C 190.283,113.093 192.407,114.317 194.063,114.821 L 194.063,114.821 C 193.054,120.257 191.794,125.045 190.283,129.616 C 188.699,134.045 186.863,138.112 184.775,141.677 L 184.775,141.677 C 182.795,133.469 181.283,126.341 180.239,119.861 C 179.123,113.381 178.476,107.873 178.295,103.049 L 178.295,103.049 z M 186.827,99.881 C 188.015,102.221 189.455,104.201 191.543,105.965 C 193.523,107.765 195.971,109.025 198.887,110.285 L 198.887,110.285 C 203.243,106.649 206.915,103.481 209.904,100.925 C 212.892,98.225 215.051,96.281 216.672,94.661 L 216.672,94.661 C 209.796,95.669 204,96.497 198.996,97.433 C 193.955,98.333 189.995,99.053 186.827,99.881 L 186.827,99.881 z " style="fill: rgb(239, 70, 51); fill-rule: evenodd;" id="path116"/>
	<path d="M 144.779,85.769 C 144.275,85.985 144.491,86.237 145.571,86.813 C 146.579,87.245 148.235,87.785 150.97,88.865 C 153.599,89.873 158.099,91.565 161.699,93.113 C 165.155,94.625 168.503,96.857 172.319,97.865 C 176.171,98.693 179.951,98.837 184.775,98.441 C 189.491,97.901 194.531,96.281 200.723,95.237 C 206.878,94.157 216.166,93.077 221.386,92.429 C 226.462,91.709 229.811,91.097 231.034,91.277 C 232.042,91.385 229.738,92.537 228.154,93.617 C 226.534,94.553 224.482,95.705 221.566,97.649 C 218.505,99.701 213.61,102.761 210.37,105.281 C 207.13,107.585 203.962,109.889 201.982,111.653 C 199.858,113.345 198.921,113.849 197.914,115.541 C 196.87,117.161 196.798,117.881 195.61,121.445 C 194.206,124.973 191.974,132.065 190.282,136.458 C 188.518,140.777 187.33,144.018 185.746,146.718 C 183.982,149.058 182.326,149.958 180.634,151.362 C 178.906,152.875 177.178,154.098 175.882,155.322 C 174.443,156.33 172.57,157.734 172.786,157.734 C 173.11,157.554 174.91,156.654 177.358,155.034 C 179.662,153.27 184.593,150.318 186.717,147.978 C 188.625,145.602 188.373,144.702 189.705,141.39 C 191.145,137.934 193.018,132.462 195.033,128.178 C 196.905,123.75 198.705,119.07 200.829,116.082 C 202.917,113.129 203.817,113.417 207.273,110.97 C 210.585,108.558 216.344,104.526 220.809,101.502 C 225.164,98.262 229.269,95.202 233.949,92.178 C 238.557,89.046 247.305,84.294 248.529,83.358 C 249.573,82.458 243.129,85.806 240.716,86.742 C 238.16,87.606 238.773,87.606 233.948,88.398 C 228.944,89.154 218.36,89.946 211.916,90.918 C 205.544,91.818 201.332,92.574 195.968,93.33 C 190.317,93.942 184.7,94.914 179.265,94.59 C 173.828,94.05 169.113,92.322 164,90.81 C 158.744,89.298 151.868,86.526 148.664,85.698 C 145.392,84.905 145.247,85.444 144.779,85.769 L 144.779,85.769 z " style="fill: rgb(255, 91, 0); fill-rule: evenodd;" id="path118"/>
	<path d="M 108.599,39.869 C 109.823,38.609 110.975,37.745 112.199,37.421 C 113.279,37.025 113.747,37.601 115.547,37.745 C 117.383,37.673 120.983,37.025 122.747,37.601 C 124.223,38.141 123.683,39.977 125.015,41.021 C 126.383,41.993 128.147,43.145 130.451,43.649 C 132.719,44.081 135.311,45.125 138.083,44.009 C 140.675,42.785 143.159,37.997 146.076,36.881 C 148.884,35.693 151.692,36.233 155.04,37.133 C 158.353,37.997 163.284,40.481 165.66,42.245 C 167.82,44.009 168.324,45.701 168.288,47.609 C 168.108,49.409 167.424,51.173 165.408,53.045 C 163.284,54.881 160.08,58.373 156.336,58.661 C 152.628,58.769 146.76,55.745 143.196,54.017 C 139.452,52.181 137.364,49.409 134.412,48.041 C 131.316,46.601 127.716,46.025 125.556,45.917 C 123.396,45.773 123.324,47.357 121.596,47.321 C 119.688,47.105 116.592,45.629 114.828,45.125 C 113.064,44.549 112.416,44.225 111.336,44.153 C 110.184,44.081 109.104,44.045 108.096,44.441 L 108.096,44.441 C 107.952,43.505 107.952,42.605 108.096,41.885 C 108.131,41.128 108.347,40.409 108.599,39.869 L 108.599,39.869 z " style="fill: rgb(40, 65, 70); fill-rule: evenodd;" id="path120"/>
	<path d="M 139.667,44.009 C 140.315,43.577 141.143,43.037 142.295,42.245 C 143.303,41.273 144.42,39.257 146.184,38.537 C 147.839,37.781 151.98,37.493 152.484,37.673 C 152.808,37.673 149.963,38.249 148.812,38.717 C 147.696,39.113 146.976,39.365 145.824,40.301 C 144.564,41.237 142.656,43.217 141.503,44.153 C 140.243,44.765 138.803,45.161 138.551,45.053 C 138.191,44.909 139.019,44.513 139.667,44.009 L 139.667,44.009 z " style="fill: rgb(160, 175, 175); fill-rule: evenodd;" id="path122"/>
	<path d="M 159.179,56.104 C 158.675,56.428 157.415,57.472 155.831,57.436 C 154.031,57.328 151.115,56.392 149.171,55.744 C 147.119,54.916 144.743,53.656 144.419,53.368 C 144.06,53.188 146.003,53.548 147.48,54.16 C 148.992,54.628 151.44,55.6 153.024,56.104 C 154.392,56.428 155.219,56.356 156.192,56.284 C 157.055,56.032 158.171,55.132 158.712,55.132 C 159.179,55.097 159.611,55.601 159.179,56.104 L 159.179,56.104 z " style="fill: rgb(160, 175, 175); fill-rule: evenodd;" id="path124"/>
	<path d="M 142.511,38.068 C 143.375,38.644 140.351,40.372 139.127,41.308 C 137.939,42.172 136.679,42.82 134.771,42.856 C 132.611,42.712 127.643,41.308 126.527,40.732 C 125.339,40.084 126.635,39.616 127.931,39.184 C 129.047,38.716 131.315,38.32 133.763,38.14 C 136.175,37.889 141.502,37.493 142.511,38.068 L 142.511,38.068 z " style="fill: rgb(25, 95, 245); fill-rule: evenodd;" id="path126"/>
	<path d="M 97.187,54.197 C 98.771,52.829 100.535,51.677 102.335,50.309 C 104.135,48.941 106.151,46.889 107.987,46.241 C 109.715,45.629 110.687,45.881 112.703,46.457 C 114.647,46.853 117.743,48.761 119.903,48.977 C 121.955,49.085 122.963,47.465 125.159,47.573 C 127.283,47.609 130.271,48.437 132.719,49.481 C 134.987,50.381 136.427,51.821 139.127,53.405 C 141.863,54.809 145.427,57.617 148.704,58.625 C 151.728,59.525 154.716,60.137 157.524,59.633 C 160.188,59.093 162.852,57.401 164.976,55.817 C 167.1,54.233 168.612,52.397 169.908,50.309 L 169.908,50.309 C 171.528,51.317 172.752,52.757 173.58,54.233 C 174.408,55.673 174.912,56.897 174.66,59.453 C 174.156,61.901 172.032,66.761 171.06,69.317 C 169.98,71.765 169.152,72.233 168.864,74.465 C 168.612,76.625 169.872,79.649 169.296,82.277 C 168.504,84.833 167.065,87.245 164.58,89.657 L 164.58,89.657 C 161.988,88.433 159.468,87.533 156.876,86.561 C 154.176,85.589 151.692,84.797 148.992,84.041 L 148.992,84.041 C 150.792,82.313 152.052,81.017 152.376,80.009 C 152.736,79.001 152.736,79.217 151.26,78.029 C 149.605,76.625 146.113,74.573 143.268,72.413 C 140.388,70.217 137.508,67.769 134.34,65.069 L 134.34,65.069 C 135.132,63.485 135.528,62.441 135.528,61.541 C 135.528,60.677 135.852,60.713 134.268,59.993 C 132.54,59.129 128.328,57.833 125.376,56.681 C 122.28,55.385 119.256,53.693 116.448,52.973 C 113.604,52.253 111.732,52.433 108.6,52.685 C 105.323,52.829 101.615,53.333 97.187,54.197 L 97.187,54.197 z " style="fill: rgb(76, 167, 255); fill-rule: evenodd;" id="path128"/>
	<path d="M 98.951,52.757 C 101.327,52.253 103.991,52.037 106.799,51.965 C 109.535,51.785 112.235,51.749 115.727,52.253 C 119.183,52.721 123.359,54.233 127.283,54.989 C 131.027,55.637 135.203,55.781 138.299,56.681 C 141.287,57.581 141.503,59.849 145.175,60.569 C 148.776,61.145 155.075,59.849 159.791,60.569 C 164.471,61.253 168.719,62.621 172.967,64.817 L 172.967,64.817 C 172.644,65.789 172.14,66.869 171.743,67.913 C 171.311,68.957 170.699,70.109 170.195,71.225 L 170.195,71.225 C 164.507,70.433 159.251,69.965 154.138,69.677 C 148.918,69.353 144.239,69.353 139.558,69.533 L 139.558,69.533 C 138.982,69.173 138.298,68.561 137.362,67.841 C 136.462,67.049 135.31,66.077 134.05,64.925 L 134.05,64.925 C 134.698,63.665 134.95,62.729 135.094,61.973 C 135.094,61.253 135.634,61.037 134.482,60.497 C 133.186,59.813 130.522,59.057 127.858,58.229 C 125.05,57.329 121.198,56.069 118.534,55.421 C 115.906,54.737 114.466,54.341 112.126,54.233 C 109.57,54.053 106.87,54.197 104.17,54.377 C 101.542,54.449 98.986,54.593 96.502,54.809 L 96.502,54.809 C 97.294,54.125 98.123,53.44 98.951,52.757 L 98.951,52.757 z " style="fill: rgb(25, 95, 245); fill-rule: evenodd;" id="path130"/>
	<path d="M 105.323,63.953 C 104.963,65.069 104.855,66.041 104.999,66.725 C 105.107,67.373 105.467,67.841 106.079,68.129 L 106.079,68.129 C 106.295,69.029 106.295,70.217 105.935,71.837 C 105.575,73.493 104.963,75.257 104.099,77.669 L 104.099,77.669 C 99.527,77.849 95.819,77.957 92.831,77.993 C 89.771,77.921 87.611,78.137 86.351,77.525 C 85.055,76.769 83.759,75.401 84.983,73.817 C 86.027,72.125 89.771,69.425 93.155,67.805 C 96.611,66.185 100.535,64.853 105.323,63.953 L 105.323,63.953 z " style="fill: rgb(80, 110, 110); fill-rule: evenodd;" id="path132"/>
	<path d="M 86.207,68.417 C 87.107,66.113 88.295,64.061 89.771,62.405 C 91.103,60.677 92.651,59.201 94.847,58.121 C 96.935,56.969 100.427,55.817 102.839,55.493 C 105.251,55.133 107.411,55.133 109.319,55.781 L 109.319,55.781 C 108.923,58.301 107.807,60.065 106.259,61.505 C 104.567,62.729 102.263,62.801 99.635,63.809 C 96.863,64.817 92.471,66.473 90.203,67.661 C 87.935,68.777 86.603,70.397 86.063,70.577 C 85.378,70.685 85.378,69.965 86.207,68.417 L 86.207,68.417 z " style="fill: rgb(151, 173, 202); fill-rule: evenodd;" id="path134"/>
	<path d="M 108.418,63.053 C 107.878,64.601 107.77,64.925 109.498,65.969 C 111.118,66.905 115.438,68.057 118.282,68.885 C 121.09,69.605 123.898,71.369 126.274,70.433 C 128.542,69.317 130.99,64.781 131.818,63.053 C 132.538,61.361 132.646,61.181 130.594,60.281 C 128.398,59.129 122.278,57.725 119.182,57.041 C 116.194,56.321 114.07,55.421 112.414,56.429 C 110.507,57.437 108.851,61.36 108.418,63.053 L 108.418,63.053 z " style="fill: rgb(135, 185, 240); fill-rule: evenodd;" id="path136"/>
	<path d="M 131.207,75.077 C 130.703,77.417 130.703,79.577 131.207,81.701 C 131.675,83.753 132.287,85.193 134.159,87.389 C 135.887,89.513 139.271,92.429 141.683,94.337 C 143.987,96.137 146.616,97.613 148.163,98.333 C 149.603,98.909 150.503,98.477 150.467,98.009 C 150.323,97.397 149.783,96.749 147.875,95.093 C 145.823,93.365 140.891,90.917 138.911,88.145 C 136.931,85.229 136.103,82.133 136.283,78.281 L 136.283,78.281 C 134.591,77.236 132.898,76.157 131.207,75.077 L 131.207,75.077 z " style="fill: rgb(215, 240, 230); fill-rule: evenodd;" id="path138"/>
	<path d="M 129.659,71.044 C 131.207,72.34 133.007,73.78 135.203,75.364 C 137.435,76.912 140.459,79.108 142.619,80.44 C 144.635,81.664 146.076,82.492 147.083,82.924 L 147.083,82.924 L 150.467,79.36 L 150.467,79.36 C 146.507,76.552 143.195,74.14 140.135,71.98 C 137.111,69.784 134.447,67.984 132.287,66.436 L 132.287,66.436 C 131.423,67.949 130.559,69.497 129.659,71.044 L 129.659,71.044 z " style="fill: rgb(215, 240, 230); fill-rule: evenodd;" id="path140"/>
	<path d="M 171.131,74.752 C 174.839,74.536 178.547,74.536 182.688,74.608 C 186.755,74.68 190.824,74.932 195.324,75.364 L 195.324,75.364 C 193.092,78.388 191.04,81.268 189.024,84.148 C 186.971,87.028 185.064,89.62 183.299,92.32 L 183.299,92.32 C 181.896,92.788 180.347,92.896 178.511,92.788 C 176.64,92.608 174.587,92.14 172.356,91.384 L 172.356,91.384 C 173.076,89.296 173.184,87.136 172.967,84.904 C 172.608,82.456 170.915,79.396 170.663,77.668 C 170.375,75.977 170.483,75.004 171.131,74.752 L 171.131,74.752 z " style="fill: rgb(40, 65, 70); fill-rule: evenodd;" id="path142"/>
	<path d="M 173.436,51.641 C 175.02,51.317 176.352,50.813 177.431,50.417 C 178.511,49.985 179.196,49.373 179.772,48.869 L 179.772,48.869 C 183.587,53.405 188.268,55.925 194.244,56.717 C 200.184,57.257 208.644,55.205 215.052,53.189 C 221.281,51.137 225.853,48.689 231.685,45.161 C 237.516,41.597 243.348,37.277 249.72,32.057 L 249.72,32.057 C 251.7,33.245 252.781,34.937 253.105,36.989 C 253.428,39.005 253.141,42.353 251.413,44.405 C 249.469,46.421 245.365,47.357 241.873,48.869 C 238.273,50.237 233.593,50.921 230.461,52.721 C 227.257,54.413 226.142,56.429 223.226,59.201 C 220.31,61.937 216.818,66.617 212.749,69.065 C 208.501,71.297 202.741,72.629 198.097,73.205 C 193.453,73.781 189.133,72.557 184.705,72.593 C 180.097,72.521 175.417,72.521 170.665,72.737 L 170.665,72.737 C 172.825,69.677 174.265,66.905 175.129,64.277 C 175.814,61.505 175.741,58.985 175.453,56.861 C 175.199,54.737 174.479,53.044 173.436,51.641 L 173.436,51.641 z " style="fill: rgb(40, 65, 70); fill-rule: evenodd;" id="path144"/>
	<path d="M 179.771,48.869 C 179.735,50.381 180.995,51.821 183.155,53.333 C 185.351,54.809 188.411,57.041 193.019,57.653 C 197.554,58.085 203.855,57.798 210.119,56.105 C 216.239,54.341 223.187,51.317 229.847,47.321 C 236.507,43.181 242.951,38.321 249.719,32.057 L 249.719,32.057 L 246.047,31.121 L 246.047,31.121 C 239.316,34.109 232.007,36.377 223.98,38.213 C 215.808,39.905 204.396,41.273 197.952,41.777 C 191.508,42.209 187.548,42.101 185.784,41.165 L 185.784,41.165 C 184.055,43.361 182.76,45.053 181.752,46.385 C 180.707,47.608 180.095,48.437 179.771,48.869 L 179.771,48.869 z " style="fill: rgb(80, 110, 110); fill-rule: evenodd;" id="path146"/>
	<path d="M 185.783,41.165 C 187.475,38.753 189.095,36.881 190.643,35.405 C 192.119,33.965 193.523,32.921 194.855,32.417 L 194.855,32.417 C 200.47,33.245 206.014,33.389 211.775,32.849 C 217.463,32.237 223.187,30.977 229.09,28.925 L 229.09,28.925 C 233.914,28.997 237.694,29.285 240.574,29.645 C 243.345,29.969 245.218,30.509 246.046,31.121 L 246.046,31.121 C 244.174,32.669 240.862,34.181 235.966,35.801 C 230.926,37.421 223.943,39.437 216.67,40.733 C 209.29,41.813 197.662,42.677 192.479,42.785 C 187.295,42.821 185.063,42.281 185.783,41.165 L 185.783,41.165 z " style="fill: rgb(160, 175, 175); fill-rule: evenodd;" id="path148"/>
	<path d="M 194.855,32.417 C 196.546,31.121 198.851,30.221 201.623,29.573 C 204.503,28.889 207.923,28.457 211.451,28.421 C 214.727,28.241 218.363,28.493 221.387,28.637 C 224.303,28.673 226.824,28.817 229.091,28.925 L 229.091,28.925 C 227.652,29.825 225.528,30.689 222.719,31.517 C 219.803,32.345 215.879,33.353 212.064,33.713 C 208.14,33.965 202.595,33.569 199.751,33.353 C 196.871,33.137 195.287,32.776 194.855,32.417 L 194.855,32.417 z " style="fill: rgb(188, 199, 191); fill-rule: evenodd;" id="path150"/>
	<path d="M 225.239,26.296 C 228.551,24.82 231.935,23.776 235.247,22.732 C 238.523,21.724 241.259,20.86 245.111,20.284 C 248.926,19.564 254.579,18.772 257.891,19.024 C 261.094,19.168 263.435,19.852 264.37,21.652 C 265.126,23.56 264.334,26.8 262.822,29.824 C 261.31,32.668 258.646,35.548 255.118,38.608 L 255.118,38.608 C 254.218,34.756 252.598,31.984 250.654,30.148 C 248.602,28.276 247.053,28.096 242.95,27.52 C 238.703,26.836 232.799,26.477 225.239,26.296 L 225.239,26.296 z " style="fill: rgb(80, 110, 110); fill-rule: evenodd;" id="path152"/>
	<path d="M 222.755,26.296 C 224.843,23.02 226.751,20.284 228.768,17.8 C 230.711,15.316 232.476,12.76 234.456,11.5 C 236.22,10.204 237.66,9.736 240.18,9.952 C 242.737,9.988 245.868,10.78 249.72,11.932 C 253.536,12.976 260.269,14.2 262.968,16.576 C 265.489,18.916 265.525,23.2 265.452,26.116 C 265.272,28.888 264.3,31.084 262.536,33.532 C 260.628,35.944 256.344,38.5 254.976,40.624 C 253.608,42.676 253.679,44.836 254.507,45.7 C 255.263,46.456 256.955,47.176 259.44,45.088 C 261.744,42.856 266.171,36.196 268.836,32.596 C 271.393,28.888 274.524,26.044 275.316,23.524 C 276.072,21.004 275.784,20.068 273.48,17.656 C 271.068,15.136 266.028,10.816 261.131,8.728 C 256.02,6.568 248.423,5.38 243.887,4.876 C 239.387,4.264 236.795,4.516 234.312,5.488 C 231.684,6.46 230.604,8.152 228.444,10.708 C 226.104,13.264 223.044,17.656 221.208,20.572 C 219.372,23.236 218.04,25.576 217.356,27.196 L 217.356,27.196 C 218.724,27.52 219.803,27.448 220.74,27.376 C 221.604,27.197 222.323,26.836 222.755,26.296 L 222.755,26.296 z " style="fill: rgb(40, 65, 70); fill-rule: evenodd;" id="path154"/>
	<path d="M 274.847,27.341 L 267.287,37.637 L 267.287,37.637 C 266.243,42.929 264.443,48.041 261.743,53.369 C 259.043,58.661 256.019,64.745 251.267,69.101 C 246.262,73.349 239.674,76.769 232.762,78.785 C 225.886,80.729 218.435,81.305 210.262,80.657 L 210.262,80.657 L 203.638,90.665 L 203.639,90.665 C 212.386,89.621 219.586,88.649 225.382,87.749 C 231.034,86.849 233.446,86.849 238.162,85.121 C 242.914,83.177 249.214,79.937 253.57,76.949 C 257.71,73.925 260.446,71.261 263.434,67.409 C 266.53,63.449 269.122,58.553 271.606,53.837 C 273.874,48.941 276.142,43.037 277.15,39.185 C 278.049,35.297 277.69,33.137 277.33,31.193 C 276.899,29.141 276.071,27.953 274.847,27.341 L 274.847,27.341 z " style="fill: rgb(25, 95, 245); fill-rule: evenodd;" id="path156"/>
	<path d="M 252.491,45.989 C 252.527,46.565 252.815,47.069 253.751,47.501 C 254.579,47.789 255.911,48.977 257.604,48.437 C 259.224,47.897 261.276,46.565 263.616,44.441 L 263.616,44.441 C 261.095,51.389 258.108,57.293 254.508,62.153 C 250.8,66.905 246.912,70.613 241.872,73.421 C 236.652,76.157 229.164,77.525 223.836,78.641 C 218.364,79.613 213.864,79.865 209.796,79.397 L 209.796,79.397 L 201.336,90.665 L 201.336,90.665 C 198.528,91.421 195.756,91.889 193.164,92.213 C 190.464,92.465 187.944,92.465 185.46,92.213 L 185.46,92.213 C 187.44,88.721 189.348,85.769 191.472,82.961 C 193.561,80.189 195.576,77.777 197.809,75.725 L 197.809,75.725 C 202.777,74.897 207.132,73.709 210.876,72.017 C 214.548,70.217 217.032,68.201 219.984,65.537 C 222.828,62.801 225.276,58.373 228.444,56.141 C 231.719,53.873 235.644,52.901 239.1,51.821 C 242.375,50.669 245.868,49.553 248.171,48.761 C 250.403,47.717 251.843,46.889 252.491,45.989 L 252.491,45.989 z " style="fill: rgb(95, 135, 190); fill-rule: evenodd;" id="path158"/>
	<path d="M 270.095,59.561 C 269.556,60.641 268.98,61.757 268.224,63.053 C 267.467,64.277 266.532,65.573 265.56,66.941 L 265.56,66.941 C 267.791,67.805 269.772,68.525 271.499,68.957 C 273.191,69.389 274.451,69.929 275.819,69.461 C 277.043,68.813 279.382,66.653 279.346,65.501 C 279.239,64.205 277.042,63.341 275.531,62.369 C 274.02,61.36 272.111,60.425 270.095,59.561 L 270.095,59.561 z " style="fill: rgb(188, 199, 191); fill-rule: evenodd;" id="path160"/>
	<path d="M 275.459,60.425 C 277.331,59.921 278.772,59.849 280.211,60.065 C 281.507,60.317 282.659,60.857 283.524,61.829 C 284.28,62.657 284.64,64.349 284.892,65.537 C 285.072,66.617 285.144,67.697 284.711,68.633 C 284.135,69.605 282.732,70.757 281.759,71.261 C 280.679,71.657 279.635,71.333 278.627,71.261 C 277.511,71.117 276.611,70.829 275.531,70.397 L 275.531,70.397 C 277.367,69.497 278.699,68.561 279.527,67.733 C 280.283,66.941 280.715,66.077 280.391,65.285 C 279.958,64.313 278.159,62.693 277.33,61.973 C 276.467,61.108 275.892,60.641 275.459,60.425 L 275.459,60.425 z " style="fill: rgb(194, 0, 0); fill-rule: evenodd;" id="path162"/>
	<path d="M 89.447,131.921 L 92.687,134.692 L 92.687,134.692 C 92.687,137.789 92.327,140.417 91.607,142.72 C 90.779,144.916 89.051,148.336 88.367,148.264 C 87.647,148.012 87.395,144.844 87.611,142.108 C 87.755,139.337 88.367,135.988 89.447,131.921 L 89.447,131.921 z " style="fill: rgb(80, 110, 110); fill-rule: evenodd;" id="path164"/>
	<path d="M 93.911,136.385 L 95.783,138.257 L 95.783,138.257 C 95.603,140.992 95.315,143.873 94.523,147.185 C 93.731,150.389 92.651,153.881 91.283,157.661 L 91.283,157.661 C 91.103,155.825 90.851,154.422 90.527,153.017 C 90.131,151.649 89.663,150.425 89.123,149.489 L 89.123,149.489 C 90.671,147.473 91.859,145.313 92.687,143.153 C 93.515,140.992 93.875,138.688 93.911,136.385 L 93.911,136.385 z " style="fill: rgb(80, 110, 110); fill-rule: evenodd;" id="path166"/>
	<path d="M 97.763,139.769 C 96.503,145.097 95.423,149.417 94.523,152.729 C 93.623,155.933 92.255,158.237 92.363,159.498 C 92.363,160.758 93.695,161.298 94.703,160.29 C 95.639,159.102 97.187,155.934 98.231,152.729 C 99.203,149.453 99.923,145.601 100.535,141.029 L 100.535,141.029 C 99.635,140.633 98.699,140.2 97.763,139.769 L 97.763,139.769 z " style="fill: rgb(80, 110, 110); fill-rule: evenodd;" id="path168"/>
	<path d="M 101.794,142.108 L 104.386,142.72 L 104.386,142.72 C 104.494,143.224 104.602,144.088 104.566,145.312 C 104.53,146.572 104.422,148.12 104.242,149.957 C 103.954,151.685 103.594,153.629 103.162,155.501 C 102.586,157.229 102.01,159.389 101.146,160.721 C 100.282,161.945 98.806,163.277 98.086,163.349 C 97.186,163.385 96.394,162.521 96.538,160.901 C 96.718,159.065 98.518,156.401 99.454,153.197 C 100.283,150.064 101.111,146.32 101.794,142.108 L 101.794,142.108 z " style="fill: rgb(80, 110, 110); fill-rule: evenodd;" id="path170"/>
	<path d="M 106.547,143.62 C 108.059,143.44 109.139,143.801 109.643,144.413 C 110.111,144.988 110.435,145.457 109.643,147.473 C 108.779,149.417 107.231,152.297 104.855,156.113 L 104.855,156.113 C 105.683,152.657 106.295,150.065 106.547,147.941 C 106.799,145.816 106.799,144.377 106.547,143.62 L 106.547,143.62 z " style="fill: rgb(80, 110, 110); fill-rule: evenodd;" id="path172"/>
	<path d="M 93.155,163.061 C 95.027,163.781 95.999,164.753 96.071,165.977 C 96.107,167.165 94.307,168.785 93.443,170.297 C 92.543,171.7 91.571,173.141 90.671,174.616 L 90.671,174.616 C 91.031,172.06 91.391,169.793 91.463,167.812 C 91.427,165.724 90.995,163.384 91.283,162.592 C 91.571,161.8 92.146,161.908 93.155,163.061 L 93.155,163.061 z " style="fill: rgb(80, 110, 110); fill-rule: evenodd;" id="path174"/>
	<path d="M 64.787,96.785 C 63.671,98.153 62.699,100.385 61.871,103.085 C 61.043,105.929 60.143,109.097 59.567,113.273 L 59.567,113.273 C 63.635,114.677 66.947,116.225 70.187,118.205 C 73.211,120.113 76.019,122.273 78.215,124.829 L 78.215,124.829 L 78.971,121.59 L 78.971,121.59 C 74.759,118.781 71.627,116.01 69.431,113.274 C 67.127,110.358 66.587,107.766 65.867,104.958 C 65.039,102.221 64.679,99.449 64.787,96.785 L 64.787,96.785 z " style="fill: rgb(80, 110, 110); fill-rule: evenodd;" id="path176"/>
	<path d="M 54.311,92.141 C 52.799,91.385 50.999,90.881 48.911,90.773 C 46.751,90.593 44.339,90.701 41.531,91.097 L 41.531,91.097 C 39.695,94.337 38.147,97.181 36.743,100.025 C 35.267,102.725 33.431,105.569 33.035,107.729 C 32.531,109.817 32.891,111.509 33.971,112.805 L 33.971,112.805 C 36.887,112.229 39.515,111.869 42.143,111.581 C 44.699,111.257 47.111,111.149 49.379,111.113 L 49.379,111.113 C 49.595,107.693 50.063,104.597 50.927,101.393 C 51.755,98.225 52.834,95.093 54.311,92.141 L 54.311,92.141 z " style="fill: rgb(80, 110, 110); fill-rule: evenodd;" id="path178"/>
	<path d="M 35.663,91.097 C 33.863,92.897 32.603,94.697 31.487,96.929 C 30.335,99.125 29.435,101.537 29.183,103.877 C 28.895,106.109 29.579,108.665 29.975,110.033 C 30.299,111.293 30.803,111.761 31.343,111.437 L 31.343,111.437 C 30.875,110.357 30.983,108.809 31.667,106.937 C 32.351,104.993 33.899,102.689 35.195,100.025 C 36.419,97.289 37.607,94.301 38.903,90.917 L 38.903,90.917 C 37.823,90.953 36.743,91.024 35.663,91.097 L 35.663,91.097 z " style="fill: rgb(202, 154, 154); fill-rule: evenodd;" id="path180"/>
	<path d="M 56.002,93.4 C 54.886,96.208 53.914,98.62 53.23,100.78 C 52.438,102.724 51.826,104.38 51.538,106.036 C 51.214,107.8 51.214,109.348 51.394,111.112 L 51.394,111.112 C 52.762,111.4 53.986,111.508 54.922,111.724 C 55.786,111.868 56.506,111.976 56.938,112.048 L 56.938,112.048 C 57.982,106.972 58.954,103.192 59.854,100.312 C 60.646,97.432 61.546,95.74 62.158,95.092 L 62.158,95.092 C 60.682,94.516 59.458,94.156 58.486,93.868 C 57.407,93.544 56.579,93.437 56.002,93.4 L 56.002,93.4 z " style="fill: rgb(202, 154, 154); fill-rule: evenodd;" id="path182"/>
	<path d="M 81.131,123.893 L 87.287,130.229 L 87.287,130.229 C 86.243,137.105 84.983,143.585 82.967,149.813 C 80.987,156.042 77.603,162.593 75.587,167.381 C 73.427,171.988 72.239,175.301 70.511,177.857 C 68.639,180.414 66.515,181.853 65.111,182.321 C 63.671,182.537 62.879,181.241 62.339,179.838 C 61.763,178.398 61.835,176.634 62.159,174.15 L 62.159,174.15 C 64.895,170.55 67.271,166.482 69.431,161.802 C 71.483,157.086 72.815,152.406 74.795,146.106 C 76.775,139.696 78.791,132.425 81.131,123.893 L 81.131,123.893 z " style="fill: rgb(202, 154, 154); fill-rule: evenodd;" id="path184"/>
	<path d="M 85.595,132.209 C 85.595,132.784 83.435,142.864 81.743,148.408 C 79.871,153.845 77.711,159.388 75.263,164.608 C 72.743,169.684 69.107,176.632 67.271,178.936 C 65.291,181.096 63.851,180.232 64.499,178 C 65.255,175.659 68.819,170.8 71.735,165.363 C 74.471,159.855 78.719,150.855 81.131,145.311 C 83.471,139.625 85.378,131.74 85.595,132.209 L 85.595,132.209 z " style="fill: rgb(160, 136, 160); fill-rule: evenodd;" id="path186"/>
	<path d="M 23.675,93.761 C 22.487,94.553 21.659,95.381 21.479,96.245 C 21.155,97.073 21.011,97.829 22.163,98.801 C 23.315,99.737 25.259,100.601 28.283,101.681 L 28.283,101.681 C 28.607,100.673 28.751,99.917 29.003,99.413 C 29.183,98.909 29.327,98.441 29.435,98.405 L 29.435,98.405 C 27.167,96.677 25.619,95.597 24.647,94.769 C 23.639,94.049 23.314,93.581 23.675,93.761 L 23.675,93.761 z " style="fill: rgb(254, 247, 135); fill-rule: evenodd;" id="path188"/>
	<linearGradient x1="27.8325" y1="98.800797" x2="27.8325" y2="91.951202" id="XMLID_8_" gradientUnits="userSpaceOnUse">
		<stop style="stop-color: rgb(255, 228, 127); stop-opacity: 1;" offset="0" id="stop191"/>
		<stop style="stop-color: rgb(255, 119, 0); stop-opacity: 1;" offset="1" id="stop193"/>
	</linearGradient>
	<path d="M 22.883,94.265 C 23.171,93.833 23.639,93.365 24.287,93.005 C 24.935,92.537 25.259,92.105 26.771,91.997 C 28.211,91.925 30.119,91.889 32.783,92.285 L 32.783,92.285 C 31.703,93.833 30.875,95.093 30.299,96.209 C 29.687,97.253 29.327,98.117 29.219,98.801 L 29.219,98.801 C 27.815,97.829 26.591,97.037 25.547,96.281 C 24.431,95.524 23.639,94.805 22.883,94.265 L 22.883,94.265 z " style="fill: url(#XMLID_8_) rgb(0, 0, 0); fill-rule: evenodd;" id="path195"/>
	<path d="M 28.283,68.345 C 29.435,66.869 31.055,65.825 33.143,65.069 C 35.123,64.277 38.399,64.025 40.595,63.917 C 42.647,63.737 44.375,63.701 46.211,64.205 C 48.155,64.673 50.099,65.429 51.755,66.617 C 53.231,67.625 54.635,69.389 55.139,70.793 C 55.535,72.269 55.247,73.529 54.275,75.113 L 54.275,75.113 C 53.087,71.873 51.467,69.713 49.127,68.237 C 46.787,66.833 43.223,66.401 40.379,66.509 C 37.427,66.437 33.899,67.301 31.739,67.985 C 29.543,68.489 28.031,69.965 27.491,70.073 C 26.915,70.108 27.131,69.533 28.283,68.345 L 28.283,68.345 z " style="fill: rgb(211, 221, 197); fill-rule: evenodd;" id="path197"/>
	<linearGradient x1="40.007801" y1="77.776398" x2="40.007801" y2="67.434601" id="XMLID_9_" gradientUnits="userSpaceOnUse">
		<stop style="stop-color: rgb(254, 255, 127); stop-opacity: 1;" offset="0" id="stop200"/>
		<stop style="stop-color: rgb(191, 233, 255); stop-opacity: 1;" offset="1" id="stop202"/>
	</linearGradient>
	<path d="M 37.21,67.588 C 34.618,67.948 33.07,68.38 31.81,68.884 C 30.55,69.388 28.786,70.108 27.994,71.116 C 27.166,72.124 26.878,73.708 26.986,74.824 C 27.094,75.94 27.598,76.912 28.534,77.776 L 28.534,77.776 C 32.422,75.724 36.202,74.5 40.414,74.248 C 44.554,73.924 48.586,74.5 53.05,75.976 L 53.05,75.976 C 52.042,73.276 50.71,71.296 48.91,69.892 C 47.074,68.488 44.842,67.66 42.214,67.552 L 42.214,67.552 C 42.215,67.553 39.839,67.265 37.21,67.588 L 37.21,67.588 z " style="fill: url(#XMLID_9_) rgb(0, 0, 0); fill-rule: evenodd;" id="path204"/>
	<linearGradient x1="38.101101" y1="72.744102" x2="38.101101" y2="68.226601" id="XMLID_10_" gradientUnits="userSpaceOnUse">
		<stop style="stop-color: rgb(253, 255, 63); stop-opacity: 1;" offset="0" id="stop207"/>
		<stop style="stop-color: rgb(95, 177, 255); stop-opacity: 1;" offset="1" id="stop209"/>
	</linearGradient>
	<path d="M 28.606,71.729 C 29.47,71.009 31.738,69.533 34.15,68.957 C 36.526,68.309 40.342,68.057 42.826,68.345 C 45.274,68.741 47.938,70.325 48.442,70.865 C 48.766,71.117 46.714,70.649 44.914,70.577 C 42.97,70.469 40.234,70.253 37.534,70.613 C 34.798,70.937 30.19,72.485 28.714,72.737 C 27.203,72.809 27.635,72.376 28.606,71.729 L 28.606,71.729 z " style="fill: url(#XMLID_10_) rgb(0, 0, 0); fill-rule: evenodd;" id="path211"/>
	<linearGradient x1="40.669399" y1="84.122597" x2="40.669399" y2="73.367203" id="XMLID_11_" gradientUnits="userSpaceOnUse">
		<stop style="stop-color: rgb(255, 223, 235); stop-opacity: 1;" offset="0" id="stop214"/>
		<stop style="stop-color: rgb(255, 246, 127); stop-opacity: 1;" offset="1" id="stop216"/>
	</linearGradient>
	<path d="M 28.175,77.345 C 28.823,78.281 29.615,79.181 30.551,80.045 C 31.379,80.837 32.063,81.629 33.575,82.277 C 35.123,82.853 37.067,83.969 39.551,84.113 C 41.855,84.185 45.383,83.861 47.615,83.141 C 49.703,82.277 51.611,80.873 52.511,79.505 C 53.303,78.173 53.375,76.661 52.727,75.113 L 52.727,75.113 C 49.487,74.033 46.283,73.457 43.259,73.385 C 40.127,73.277 36.707,73.673 34.259,74.429 C 31.775,75.041 29.651,76.013 28.175,77.345 L 28.175,77.345 z " style="fill: url(#XMLID_11_) rgb(0, 0, 0); fill-rule: evenodd;" id="path218"/>
	<linearGradient x1="40.8657" y1="82.055702" x2="40.8657" y2="76.650902" id="XMLID_12_" gradientUnits="userSpaceOnUse">
		<stop style="stop-color: rgb(237, 159, 255); stop-opacity: 1;" offset="0" id="stop221"/>
		<stop style="stop-color: rgb(255, 246, 127); stop-opacity: 1;" offset="1" id="stop223"/>
	</linearGradient>
	<path d="M 33.646,77.417 C 32.206,77.849 32.422,78.965 33.466,79.793 C 34.474,80.585 37.066,81.701 39.298,82.025 C 41.422,82.169 44.518,81.809 46.21,81.089 C 47.83,80.189 49.594,78.101 48.982,77.345 C 48.262,76.517 44.554,76.661 42.034,76.661 C 39.371,76.625 35.086,76.876 33.646,77.417 L 33.646,77.417 z " style="fill: url(#XMLID_12_) rgb(0, 0, 0); fill-rule: evenodd;" id="path225"/>
	<path d="M 38.255,75.113 C 36.851,75.329 35.951,75.689 35.699,76.481 C 35.483,77.165 35.375,78.749 36.923,79.433 C 38.399,80.009 42.683,80.405 44.483,80.045 C 46.067,79.649 46.823,77.453 46.751,76.769 C 46.571,75.905 44.843,75.293 43.511,75.077 C 41.999,74.752 39.551,74.86 38.255,75.113 L 38.255,75.113 z " style="fill: rgb(255, 238, 159); fill-rule: evenodd;" id="path227"/>
</g>
</svg>