<?xml version="1.0" encoding="UTF-8" standalone="no"?>
<!-- Created with Inkscape (http://www.inkscape.org/) -->
<svg
   xmlns:dc="http://purl.org/dc/elements/1.1/"
   xmlns:cc="http://creativecommons.org/ns#"
   xmlns:rdf="http://www.w3.org/1999/02/22-rdf-syntax-ns#"
   xmlns:svg="http://www.w3.org/2000/svg"
   xmlns="http://www.w3.org/2000/svg"
   xmlns:xlink="http://www.w3.org/1999/xlink"
   xmlns:sodipodi="http://sodipodi.sourceforge.net/DTD/sodipodi-0.dtd"
   xmlns:inkscape="http://www.inkscape.org/namespaces/inkscape"
   version="1.0"
   width="197.162"
   height="267.38702"
   id="svg2"
   sodipodi:version="0.32"
   inkscape:version="0.46"
   sodipodi:docname="globe.svg"
   inkscape:output_extension="org.inkscape.output.svg.inkscape">
  <metadata
     id="metadata160">
    <rdf:RDF>
      <cc:Work
         rdf:about="">
        <dc:format>image/svg+xml</dc:format>
        <dc:type
           rdf:resource="http://purl.org/dc/dcmitype/StillImage" />
        <cc:license
           rdf:resource="http://creativecommons.org/licenses/publicdomain/" />
      </cc:Work>
      <cc:License
         rdf:about="http://creativecommons.org/licenses/publicdomain/">
        <cc:permits
           rdf:resource="http://creativecommons.org/ns#Reproduction" />
        <cc:permits
           rdf:resource="http://creativecommons.org/ns#Distribution" />
        <cc:permits
           rdf:resource="http://creativecommons.org/ns#DerivativeWorks" />
      </cc:License>
    </rdf:RDF>
  </metadata>
  <sodipodi:namedview
     inkscape:window-height="825"
     inkscape:window-width="1440"
     inkscape:pageshadow="2"
     inkscape:pageopacity="0.0"
     guidetolerance="10.0"
     gridtolerance="10.0"
     objecttolerance="10.0"
     borderopacity="1.0"
     bordercolor="#666666"
     pagecolor="#ffffff"
     id="base"
     showgrid="false"
     inkscape:zoom="1.54375"
     inkscape:cx="160"
     inkscape:cy="160"
     inkscape:window-x="0"
     inkscape:window-y="25"
     inkscape:current-layer="svg2" />
  <defs
     id="defs4">
    <inkscape:perspective
       sodipodi:type="inkscape:persp3d"
       inkscape:vp_x="0 : 160 : 1"
       inkscape:vp_y="0 : 1000 : 0"
       inkscape:vp_z="320 : 160 : 1"
       inkscape:persp3d-origin="160 : 106.66667 : 1"
       id="perspective162" />
    <linearGradient
       id="linearGradient33060">
      <stop
         style="stop-color:black;stop-opacity:0.22592592"
         offset="0"
         id="stop33062" />
      <stop
         style="stop-color:black;stop-opacity:0"
         offset="1"
         id="stop33064" />
    </linearGradient>
    <linearGradient
       id="linearGradient13542">
      <stop
         style="stop-color:white;stop-opacity:0.40520447"
         offset="0"
         id="stop13544" />
      <stop
         style="stop-color:white;stop-opacity:0.12639405"
         offset="0.5"
         id="stop13550" />
      <stop
         style="stop-color:white;stop-opacity:0"
         offset="1"
         id="stop13546" />
    </linearGradient>
    <linearGradient
       id="linearGradient8205">
      <stop
         style="stop-color:black;stop-opacity:0"
         offset="0"
         id="stop8207" />
      <stop
         style="stop-color:black;stop-opacity:0.04089219"
         offset="0.53645831"
         id="stop9098" />
      <stop
         style="stop-color:black;stop-opacity:1"
         offset="1"
         id="stop8209" />
    </linearGradient>
    <linearGradient
       id="linearGradient41142">
      <stop
         style="stop-color:#295a85;stop-opacity:1"
         offset="0"
         id="stop41144" />
      <stop
         style="stop-color:#1c3850;stop-opacity:1"
         offset="1"
         id="stop41146" />
    </linearGradient>
    <linearGradient
       id="linearGradient40249">
      <stop
         style="stop-color:#cacaca;stop-opacity:1"
         offset="0"
         id="stop40251" />
      <stop
         style="stop-color:#7b7b7b;stop-opacity:1"
         offset="1"
         id="stop40253" />
    </linearGradient>
    <linearGradient
       id="linearGradient39358">
      <stop
         style="stop-color:#4f4e4a;stop-opacity:1"
         offset="0"
         id="stop39360" />
      <stop
         style="stop-color:#e2dfd5;stop-opacity:1"
         offset="1"
         id="stop39362" />
    </linearGradient>
    <linearGradient
       id="linearGradient33140">
      <stop
         style="stop-color:#6b6965;stop-opacity:1"
         offset="0"
         id="stop33142" />
      <stop
         style="stop-color:#8a8274;stop-opacity:1"
         offset="0.5"
         id="stop33148" />
      <stop
         style="stop-color:#31302e;stop-opacity:1"
         offset="1"
         id="stop33144" />
    </linearGradient>
    <linearGradient
       id="linearGradient29584">
      <stop
         style="stop-color:#51504c;stop-opacity:1"
         offset="0"
         id="stop29586" />
      <stop
         style="stop-color:#d6d3c4;stop-opacity:1"
         offset="1"
         id="stop29588" />
    </linearGradient>
    <linearGradient
       id="linearGradient26921">
      <stop
         style="stop-color:#ccc9c0;stop-opacity:1"
         offset="0"
         id="stop26923" />
      <stop
         style="stop-color:#a8a598;stop-opacity:1"
         offset="1"
         id="stop26925" />
    </linearGradient>
    <linearGradient
       id="linearGradient20716">
      <stop
         style="stop-color:#51504d;stop-opacity:1"
         offset="0"
         id="stop20718" />
      <stop
         style="stop-color:#1f1f1d;stop-opacity:1"
         offset="1"
         id="stop20720" />
    </linearGradient>
    <linearGradient
       id="linearGradient19821">
      <stop
         style="stop-color:black;stop-opacity:1"
         offset="0"
         id="stop19823" />
      <stop
         style="stop-color:black;stop-opacity:1"
         offset="0.796875"
         id="stop19829" />
      <stop
         style="stop-color:black;stop-opacity:0"
         offset="1"
         id="stop19825" />
    </linearGradient>
    <linearGradient
       id="linearGradient14482">
      <stop
         style="stop-color:black;stop-opacity:0.71428573"
         offset="0"
         id="stop14484" />
      <stop
         style="stop-color:black;stop-opacity:0"
         offset="1"
         id="stop14486" />
    </linearGradient>
    <linearGradient
       id="linearGradient13584">
      <stop
         style="stop-color:#7c7a75;stop-opacity:1"
         offset="0"
         id="stop13586" />
      <stop
         style="stop-color:#e2dfd5;stop-opacity:1"
         offset="1"
         id="stop13588" />
    </linearGradient>
    <linearGradient
       x1="119.36857"
       y1="258.73059"
       x2="109.21415"
       y2="280.88663"
       id="linearGradient13590"
       xlink:href="#linearGradient13584"
       gradientUnits="userSpaceOnUse" />
    <radialGradient
       cx="115.73299"
       cy="218.3075"
       r="68.382248"
       fx="111.10352"
       fy="196.08321"
       id="radialGradient14488"
       xlink:href="#linearGradient14482"
       gradientUnits="userSpaceOnUse"
       gradientTransform="matrix(0.66751,0.23966,-0.102668,0.285955,66.31124,160.5408)" />
    <linearGradient
       x1="55.257553"
       y1="280.56729"
       x2="139.85545"
       y2="294.75339"
       id="linearGradient14502"
       xlink:href="#linearGradient13584"
       gradientUnits="userSpaceOnUse"
       gradientTransform="translate(5.26967e-3,9.9372e-2)" />
    <radialGradient
       cx="115.5"
       cy="283.5"
       r="69.833336"
       fx="115.5"
       fy="283.5"
       id="radialGradient19827"
       xlink:href="#linearGradient19821"
       gradientUnits="userSpaceOnUse"
       gradientTransform="matrix(1,0,0,0.317422,0,193.5107)" />
    <linearGradient
       x1="119.79438"
       y1="237.88785"
       x2="113.56868"
       y2="237.88785"
       id="linearGradient20722"
       xlink:href="#linearGradient20716"
       gradientUnits="userSpaceOnUse" />
    <radialGradient
       cx="203.61554"
       cy="123.93273"
       r="33.770767"
       fx="203.61554"
       fy="123.93273"
       id="radialGradient26927"
       xlink:href="#linearGradient26921"
       gradientUnits="userSpaceOnUse"
       gradientTransform="matrix(0.823414,-0.567441,2.763873,4.010657,-303.7396,-267.4494)" />
    <linearGradient
       x1="125.6515"
       y1="235.68222"
       x2="152.47392"
       y2="38.541794"
       id="linearGradient29590"
       xlink:href="#linearGradient29584"
       gradientUnits="userSpaceOnUse" />
    <linearGradient
       x1="104.72382"
       y1="221.7142"
       x2="152.02682"
       y2="42.047543"
       id="linearGradient32253"
       xlink:href="#linearGradient29584"
       gradientUnits="userSpaceOnUse" />
    <linearGradient
       x1="153.21608"
       y1="41.937977"
       x2="135.5757"
       y2="231.27132"
       id="linearGradient33146"
       xlink:href="#linearGradient33140"
       gradientUnits="userSpaceOnUse" />
    <linearGradient
       x1="149.50082"
       y1="42.945858"
       x2="146.8717"
       y2="41.070858"
       id="linearGradient38471"
       xlink:href="#linearGradient39358"
       gradientUnits="userSpaceOnUse" />
    <linearGradient
       x1="43.043427"
       y1="85.213097"
       x2="175.50768"
       y2="176.42987"
       id="linearGradient40255"
       xlink:href="#linearGradient40249"
       gradientUnits="userSpaceOnUse" />
    <radialGradient
       cx="152.45032"
       cy="152.51886"
       r="99.207527"
       fx="152.45032"
       fy="152.51886"
       id="radialGradient41148"
       xlink:href="#linearGradient41142"
       gradientUnits="userSpaceOnUse"
       gradientTransform="matrix(0.614014,0,0,0.551445,56.3098,67.19292)" />
    <radialGradient
       cx="125.48648"
       cy="140.57153"
       r="53.819122"
       fx="125.48648"
       fy="140.57153"
       id="radialGradient8211"
       xlink:href="#linearGradient8205"
       gradientUnits="userSpaceOnUse"
       gradientTransform="matrix(1.580579,6.137326e-2,-0.139761,3.599395,-54.8236,-363.1807)" />
    <radialGradient
       cx="130.39847"
       cy="139.72935"
       r="53.819122"
       fx="130.39847"
       fy="139.72935"
       id="radialGradient9990"
       xlink:href="#linearGradient8205"
       gradientUnits="userSpaceOnUse"
       gradientTransform="matrix(-0.552892,1.375891,-3.342346,-1.343096,636.5039,152.0726)" />
    <radialGradient
       cx="79.726288"
       cy="97.084587"
       r="46.845825"
       fx="79.726288"
       fy="97.084587"
       id="radialGradient13548"
       xlink:href="#linearGradient13542"
       gradientUnits="userSpaceOnUse"
       gradientTransform="matrix(1,0,0,0.683019,0,30.77398)" />
    <radialGradient
       cx="167.83115"
       cy="265.7226"
       r="142.48201"
       fx="167.83115"
       fy="265.7226"
       id="radialGradient33066"
       xlink:href="#linearGradient33060"
       gradientUnits="userSpaceOnUse"
       gradientTransform="matrix(1.292804,0.111533,-1.397371e-2,0.22172,-46.73599,190.5678)" />
    <radialGradient
       inkscape:collect="always"
       xlink:href="#linearGradient41142"
       id="radialGradient2628"
       gradientUnits="userSpaceOnUse"
       gradientTransform="matrix(0.614014,0,0,0.551445,56.3098,67.19292)"
       cx="152.45032"
       cy="152.51886"
       fx="152.45032"
       fy="152.51886"
       r="99.207527" />
    <radialGradient
       inkscape:collect="always"
       xlink:href="#linearGradient8205"
       id="radialGradient2630"
       gradientUnits="userSpaceOnUse"
       gradientTransform="matrix(1.580579,6.137326e-2,-0.139761,3.599395,-54.8236,-363.1807)"
       cx="125.48648"
       cy="140.57153"
       fx="125.48648"
       fy="140.57153"
       r="53.819122" />
    <radialGradient
       inkscape:collect="always"
       xlink:href="#linearGradient8205"
       id="radialGradient2632"
       gradientUnits="userSpaceOnUse"
       gradientTransform="matrix(-0.552892,1.375891,-3.342346,-1.343096,636.5039,152.0726)"
       cx="130.39847"
       cy="139.72935"
       fx="130.39847"
       fy="139.72935"
       r="53.819122" />
    <radialGradient
       inkscape:collect="always"
       xlink:href="#linearGradient13542"
       id="radialGradient2634"
       gradientUnits="userSpaceOnUse"
       gradientTransform="matrix(1,0,0,0.683019,0,30.77398)"
       cx="79.726288"
       cy="97.084587"
       fx="79.726288"
       fy="97.084587"
       r="46.845825" />
    <linearGradient
       inkscape:collect="always"
       xlink:href="#linearGradient40249"
       id="linearGradient2636"
       gradientUnits="userSpaceOnUse"
       x1="43.043427"
       y1="85.213097"
       x2="175.50768"
       y2="176.42987" />
    <linearGradient
       inkscape:collect="always"
       xlink:href="#linearGradient13584"
       id="linearGradient2638"
       gradientUnits="userSpaceOnUse"
       x1="119.36857"
       y1="258.73059"
       x2="109.21415"
       y2="280.88663" />
    <linearGradient
       inkscape:collect="always"
       xlink:href="#linearGradient20716"
       id="linearGradient2640"
       gradientUnits="userSpaceOnUse"
       x1="119.79438"
       y1="237.88785"
       x2="113.56868"
       y2="237.88785" />
    <radialGradient
       inkscape:collect="always"
       xlink:href="#linearGradient26921"
       id="radialGradient2642"
       gradientUnits="userSpaceOnUse"
       gradientTransform="matrix(0.823414,-0.567441,2.763873,4.010657,-303.7396,-267.4494)"
       cx="203.61554"
       cy="123.93273"
       fx="203.61554"
       fy="123.93273"
       r="33.770767" />
    <linearGradient
       inkscape:collect="always"
       xlink:href="#linearGradient33140"
       id="linearGradient2644"
       gradientUnits="userSpaceOnUse"
       x1="153.21608"
       y1="41.937977"
       x2="135.5757"
       y2="231.27132" />
    <linearGradient
       inkscape:collect="always"
       xlink:href="#linearGradient29584"
       id="linearGradient2646"
       gradientUnits="userSpaceOnUse"
       x1="125.6515"
       y1="235.68222"
       x2="152.47392"
       y2="38.541794" />
    <linearGradient
       inkscape:collect="always"
       xlink:href="#linearGradient39358"
       id="linearGradient2648"
       gradientUnits="userSpaceOnUse"
       x1="149.50082"
       y1="42.945858"
       x2="146.8717"
       y2="41.070858" />
    <linearGradient
       inkscape:collect="always"
       xlink:href="#linearGradient29584"
       id="linearGradient2650"
       gradientUnits="userSpaceOnUse"
       x1="104.72382"
       y1="221.7142"
       x2="152.02682"
       y2="42.047543" />
    <radialGradient
       inkscape:collect="always"
       xlink:href="#linearGradient14482"
       id="radialGradient2652"
       gradientUnits="userSpaceOnUse"
       gradientTransform="matrix(0.66751,0.23966,-0.102668,0.285955,66.31124,160.5408)"
       cx="115.73299"
       cy="218.3075"
       fx="111.10352"
       fy="196.08321"
       r="68.382248" />
    <linearGradient
       inkscape:collect="always"
       xlink:href="#linearGradient13584"
       id="linearGradient2654"
       gradientUnits="userSpaceOnUse"
       gradientTransform="translate(5.26967e-3,9.9372e-2)"
       x1="55.257553"
       y1="280.56729"
       x2="139.85545"
       y2="294.75339" />
  </defs>
  <g
     style="display:inline"
     id="layer2"
     transform="translate(-21.17031,-25.951513)">
    <rect
       width="320"
       height="320"
       x="0"
       y="-2.6226044e-06"
       style="opacity:1;fill:#ffffff;fill-opacity:1;fill-rule:nonzero;stroke:none;stroke-width:1.04773951;stroke-linecap:round;stroke-linejoin:round;marker:none;marker-start:none;marker-mid:none;marker-end:none;stroke-miterlimit:4;stroke-dasharray:none;stroke-dashoffset:0;stroke-opacity:1;visibility:visible;display:inline;overflow:visible"
       id="rect1975" />
  </g>
  <g
     id="g2535"
     transform="translate(-21.17031,-25.951513)">
    <g
       id="layer3"
       style="display:inline">
      <path
         id="path5437"
         style="opacity:1;fill:url(#radialGradient2628);fill-opacity:1;fill-rule:nonzero;stroke:#000000;stroke-width:0.20076886;stroke-linecap:round;stroke-linejoin:round;marker:none;marker-start:none;marker-mid:none;marker-end:none;stroke-miterlimit:4;stroke-dasharray:none;stroke-dashoffset:0;stroke-opacity:1;visibility:visible;display:inline;overflow:visible"
         transform="matrix(0.992356,0,0,1,0.622826,-3.214286)"
         d="M 219.28571,128.39285 C 219.29671,183.13599 174.92171,227.5199 120.17857,227.5199 C 65.435434,227.5199 21.060436,183.13599 21.071434,128.39285 C 21.060436,73.649713 65.435434,29.265799 120.17857,29.265799 C 174.92171,29.265799 219.29671,73.649713 219.28571,128.39285 z" />
      <path
         id="path6326"
         style="fill:#dcdbdd;fill-opacity:1;fill-rule:evenodd;stroke:#000000;stroke-width:0.5;stroke-linecap:butt;stroke-linejoin:miter;stroke-miterlimit:4;stroke-dasharray:none;stroke-opacity:1"
         d="M 51.51778,196.25632 C 54.749284,196.12079 56.511312,199.40705 58.441122,201.46837 C 60.376715,202.7476 62.152605,204.23059 64.026309,205.48776 C 67.246386,206.15315 69.932578,208.21396 73.013854,209.30226 C 74.951044,209.59886 74.608934,212.86245 76.645324,211.28233 C 78.139348,213.54996 80.738106,211.34028 82.638358,213.44232 C 85.106874,214.81526 87.525451,216.39373 90.314782,217.00097 C 96.848427,219.45068 103.43404,222.04251 110.43312,222.76157 C 114.52331,223.3467 118.62584,223.84329 122.73353,224.28805 C 109.15652,225.51838 95.353195,222.856 82.851869,217.54239 C 71.757168,212.66003 61.389913,205.97048 52.63624,197.5653 C 52.26756,197.13575 51.771283,196.77258 51.51778,196.25632 z" />
      <path
         id="path7213"
         style="fill:#475422;fill-opacity:1;fill-rule:evenodd;stroke:#000000;stroke-width:0.5;stroke-linecap:butt;stroke-linejoin:miter;stroke-miterlimit:4;stroke-dasharray:none;stroke-opacity:1"
         d="M 149.91071,211.96429 C 149.29953,211.96172 148.72549,211.68375 148.12023,211.66256 C 147.61628,211.74001 147.23181,212.12889 146.74296,212.26247 C 146.30566,212.38437 145.87466,212.5254 145.50654,212.80231 C 145.06111,213.03018 144.55111,213.09032 144.07808,213.24727 C 143.28588,213.45213 142.46744,213.57162 141.71143,213.89991 C 140.97703,214.13386 140.21231,214.24897 139.46158,214.41188 C 138.88213,214.6302 138.34231,214.94531 137.78831,215.22005 C 137.83255,215.51565 138.49338,215.39435 138.77952,215.44599 C 139.69738,215.42981 140.61853,215.48421 141.53404,215.41122 C 142.25279,215.30864 142.95364,215.10174 143.6465,214.89121 C 144.31224,214.61575 144.86277,214.08421 145.59581,213.96959 C 146.35645,213.84254 147.0647,213.53039 147.74727,213.18347 C 148.3438,212.93427 149.14876,213.15316 149.58367,212.57265 C 149.72766,212.39098 149.82482,212.17804 149.91071,211.96429 z" />
      <path
         id="path8102"
         style="fill:#475422;fill-opacity:1;fill-rule:evenodd;stroke:#000000;stroke-width:0.5;stroke-linecap:butt;stroke-linejoin:miter;stroke-miterlimit:4;stroke-dasharray:none;stroke-opacity:1"
         d="M 157.94643,209.375 C 157.85179,209.76923 157.33123,209.50915 157.0602,209.47091 C 156.48982,209.28551 155.88791,209.41952 155.31568,209.52197 C 154.96965,209.62686 154.76741,209.21348 154.53294,209.02381 C 154.24824,208.74995 154.00912,208.40964 153.66071,208.21429 C 153.29869,208.13904 153.03434,207.74196 152.63428,207.84703 C 152.2321,207.98252 152.60676,208.46613 152.75328,208.68344 C 152.91763,208.92992 153.21179,209.11317 153.22089,209.43882 C 153.24172,209.754 153.20078,210.08785 153.07348,210.3764 C 152.83619,210.60758 152.46675,210.50506 152.16951,210.56104 C 151.78603,210.57854 151.56934,210.94192 151.39443,211.23646 C 151.34204,211.43403 151.01767,211.84131 151.2834,211.92692 C 151.82966,211.97909 152.3832,211.98241 152.93038,211.94596 C 153.53155,211.8557 154.01739,211.46205 154.5454,211.19296 C 155.14018,210.81471 155.70362,210.32612 156.42241,210.21059 C 156.83773,210.1215 157.25722,210.05566 157.67791,210.00279 C 157.9554,209.93712 157.93862,209.59623 157.94643,209.375 z" />
      <path
         id="path8104"
         style="fill:#475422;fill-opacity:1;fill-rule:evenodd;stroke:#000000;stroke-width:0.5;stroke-linecap:butt;stroke-linejoin:miter;stroke-miterlimit:4;stroke-dasharray:none;stroke-opacity:1"
         d="M 112.05357,208.48215 C 112.65095,208.43082 113.26146,208.51734 113.84735,208.35728 C 114.23572,208.30741 114.65585,208.29867 115.0147,208.47521 C 115.26854,208.68076 115.15847,209.05846 115.07417,209.32056 C 114.87486,209.60186 114.49047,209.61172 114.17757,209.64013 C 113.70841,209.63396 113.2803,209.84098 112.85179,210.00372 C 112.37949,210.20292 111.85611,210.139 111.36476,210.06226 C 111.13909,210.03387 110.92122,209.9593 110.76025,209.79144 C 110.52388,209.57242 110.3083,209.3303 110.09735,209.08762 C 109.86469,208.75402 109.76036,208.3439 109.7163,207.9457 C 109.77921,207.66118 110.13586,207.671 110.36667,207.67611 C 110.75255,207.66516 111.20394,207.67202 111.47245,207.99684 C 111.65375,208.17271 111.84696,208.33667 112.05357,208.48215 z" />
      <path
         id="path8106"
         style="fill:#475422;fill-opacity:1;fill-rule:evenodd;stroke:#000000;stroke-width:0.5;stroke-linecap:butt;stroke-linejoin:miter;stroke-miterlimit:4;stroke-dasharray:none;stroke-opacity:1"
         d="M 127.5,201.78571 C 126.29369,203.25142 124.3239,204.55687 122.2527,204.93143 C 120.48069,205.87701 118.78613,208.20967 116.55184,206.98632 C 114.72399,206.0131 112.32882,207.34781 110.85403,205.71687 C 108.15312,206.86799 106.25332,204.10508 104.10714,203.125 C 103.4129,200.69491 101.68257,198.76733 99.017856,199.64286 C 96.825882,200.31163 98.642231,197.22038 96.496436,197.16706 C 95.619538,194.81687 92.347175,195.80202 90.576716,194.23702 C 88.347583,193.43995 86.006389,192.86453 83.714847,192.24449 C 81.173298,192.41344 79.056285,191.53481 76.996211,190.22123 C 74.490173,189.86644 72.374724,189.05544 70.278875,187.73774 C 67.910054,186.88159 71.288713,185.11951 69.225742,183.87001 C 68.111567,181.75537 68.922317,179.27661 68.351576,177.04058 C 69.740033,175.60382 72.597544,176.77467 74.285714,177.5 C 76.654761,178.00135 79.060905,178.66461 81.495535,178.66072 C 82.178676,178.35946 83.739911,176.37207 84.075746,178.45684 C 86.450975,178.71681 89.033044,176.83681 91.339682,178.57329 C 91.978566,180.64667 94.21804,181.41894 95.74648,179.69715 C 97.094065,179.08713 99.277588,180.40379 100.07877,179.72525 C 101.07048,178.57149 102.74354,182.37779 104.63627,181.74023 C 107.03151,181.86715 104.93943,183.03881 104.2305,183.80078 C 104.56752,186.14834 107.47744,186.69739 109.01786,188.125 C 110.95421,189.70972 113.24507,188.35315 113.97278,186.33263 C 114.67017,184.71208 117.81626,182.51631 117.14286,185.87053 C 116.75503,187.60992 118.22606,188.22645 119.56365,187.65916 C 119.87041,189.71988 118.80556,192.70178 121.68858,193.24403 C 123.09448,194.53491 123.7179,196.20221 125.48797,196.65975 C 125.26417,198.45561 128.55824,199.40104 127.5,201.78571 z" />
      <path
         id="path8108"
         style="fill:#64633b;fill-opacity:1;fill-rule:evenodd;stroke:#000000;stroke-width:0.5;stroke-linecap:butt;stroke-linejoin:miter;stroke-miterlimit:4;stroke-dasharray:none;stroke-opacity:1"
         d="M 129.375,186.60715 C 128.5433,185.63257 127.66143,184.69227 126.56861,184.00714 C 125.70221,183.57275 125.25029,182.50745 126.46136,182.26959 C 126.49678,180.82808 124.60294,181.27075 123.86571,180.47309 C 122.79244,179.76463 122.00489,178.74207 120.93949,178.04536 C 119.3577,177.30981 117.61039,176.91634 116.16125,175.89892 C 114.92769,175.36882 113.85607,174.55674 112.70885,173.91982 C 111.44212,173.67603 110.10237,173.67696 108.83703,173.93224 C 107.48464,174.47022 106.23521,173.79704 105.92223,172.39556 C 105.25333,171.25502 103.89105,170.5384 102.615,170.45269 C 102.1119,171.32747 102.85609,172.77249 103.39712,173.59584 C 104.56016,174.2418 105.9254,174.46754 107.15982,174.97175 C 108.51342,176.13119 110.31461,176.66903 111.53546,177.99825 C 111.97852,179.31571 110.09594,179.59956 109.73889,179.82074 C 110.59289,181.02504 112.30019,180.11381 113.46545,180.5335 C 114.27785,181.31907 114.88803,182.39553 116.10071,182.63765 C 117.24821,183.0706 118.45988,182.64002 119.42938,182.02674 C 120.775,181.33717 122.37458,181.53184 123.17629,182.90503 C 124.30093,183.8929 125.44578,184.85744 126.48703,185.93377 C 127.27693,186.72008 128.38871,186.44657 129.375,186.60715 z" />
      <path
         id="path8110"
         style="fill:#64633b;fill-opacity:1;fill-rule:evenodd;stroke:#000000;stroke-width:0.5;stroke-linecap:butt;stroke-linejoin:miter;stroke-miterlimit:4;stroke-dasharray:none;stroke-opacity:1"
         d="M 86.25,164.10714 C 86.529517,164.10714 86.696428,165.03219 86.696428,165.44643 C 86.696428,165.72104 87.414346,166.07325 87.589285,166.16072 C 87.844895,166.28852 87.767857,166.93479 87.767857,167.32143 C 87.767857,168.0159 87.483856,168.125 86.785714,168.125 C 86.159783,168.125 85.959391,168.34735 85.714285,167.85714 C 85.521086,167.47074 85.525962,166.94478 85.357142,166.60714 C 85.145051,166.18296 85.008885,165.81246 84.732142,165.53572 C 84.564178,165.36775 84.342567,164.57799 84.285714,164.46429 C 84.041155,163.97517 83.571428,164.36729 83.571428,164.82143 C 83.571428,165.33678 83.279241,165.43019 82.857142,165.53572 C 82.570995,165.60725 82.142857,166.16386 82.142857,165.44643 C 82.142857,164.92816 82.078476,164.56391 81.964285,164.10714 C 81.866949,163.7178 81.964285,163.17156 81.964285,162.76786 C 81.964285,162.33977 82.23014,162.14686 82.410714,161.78572 C 82.613957,161.37923 82.961851,161.14915 83.303571,160.89286 C 83.619606,160.65583 84.32576,160.48398 84.642857,160.35714 C 85.205097,160.13225 85.851548,160.64899 86.160714,160.80357 C 86.725866,161.08615 87.368469,161.40745 87.767857,161.60714 C 88.353137,161.89978 88.656235,161.95981 89.017857,162.32143 C 89.317359,162.62093 89.555968,162.94643 90.089285,162.94643 C 90.595238,162.94643 91.10119,162.94643 91.607142,162.94643 C 92.361744,162.94643 92.142857,162.98713 92.142857,163.57143 C 92.142857,163.92081 91.493461,164.22485 91.25,164.28572 C 90.580383,164.45312 89.811672,164.375 89.107142,164.375 C 88.5913,164.375 88.076083,164.40741 87.589285,164.28572 C 87.076961,164.15763 86.830272,164.10714 86.25,164.10714 z" />
      <path
         id="path8112"
         style="fill:#64633b;fill-opacity:1;fill-rule:evenodd;stroke:#000000;stroke-width:0.5;stroke-linecap:butt;stroke-linejoin:miter;stroke-miterlimit:4;stroke-dasharray:none;stroke-opacity:1"
         d="M 78.928574,152.67857 C 79.805362,152.08841 80.951239,152.53698 81.901417,152.12807 C 83.055492,152.10294 82.657171,153.32195 82.954911,153.97596 C 83.432764,154.63446 84.410618,154.6052 84.886072,155.26572 C 84.744923,156.33656 83.350708,155.82989 82.666553,155.64166 C 81.814426,155.34443 80.927962,156.42577 81.583676,157.13138 C 82.023135,157.78223 82.44266,158.46875 82.646734,159.22575 C 82.815902,160.23081 81.679416,160.32652 81.050397,159.901 C 80.316651,159.57031 79.593101,158.9005 78.733138,159.11712 C 77.862185,159.55681 78.073496,160.88386 77.123068,161.26391 C 76.268194,161.94362 75.307206,161.20963 75.051575,160.34364 C 74.476735,159.54654 73.491287,159.34071 72.661754,158.93987 C 71.921358,158.58386 71.193279,158.18097 70.579204,157.6336 C 69.667003,157.11535 69.074922,156.01538 69.328036,154.96916 C 69.322777,153.9766 68.335097,153.47935 67.676394,152.92239 C 67.055998,152.19662 67.918193,151.31677 68.62812,151.09175 C 69.470929,150.49528 69.974374,151.51715 70.197068,152.1309 C 70.970641,152.55538 71.957681,152.42273 72.758795,152.16568 C 73.667606,152.0124 74.456741,152.86251 75.373082,152.57093 C 76.306952,152.49899 77.216935,151.80285 78.157548,152.19202 C 78.42608,152.33573 78.659233,152.53623 78.928574,152.67857 z" />
      <path
         id="path8114"
         style="fill:#64633b;fill-opacity:1;fill-rule:evenodd;stroke:#000000;stroke-width:0.5;stroke-linecap:butt;stroke-linejoin:miter;stroke-miterlimit:4;stroke-dasharray:none;stroke-opacity:1"
         d="M 92.321426,173.92857 C 92.233981,173.94255 91.903976,173.93115 91.717694,173.9297 C 91.130086,173.92371 90.528684,173.85605 89.996622,173.58939 C 89.437503,173.35457 88.829921,173.19537 88.21958,173.26869 C 87.702348,173.3094 87.117555,173.38263 86.680524,173.03554 C 86.511167,172.90126 86.292055,172.68531 86.390765,172.45096 C 86.580588,172.24443 86.903593,172.27364 87.161115,172.2385 C 88.165395,172.21018 89.17234,172.2723 90.174944,172.19202 C 90.49381,172.20107 90.873736,172.09834 91.131043,172.34584 C 91.52262,172.75606 91.599591,173.39929 92.087829,173.72717 C 92.168628,173.79073 92.250053,173.85426 92.321426,173.92857 z" />
      <path
         id="path8118"
         style="fill:#64633b;fill-opacity:1;fill-rule:evenodd;stroke:#000000;stroke-width:0.5;stroke-linecap:butt;stroke-linejoin:miter;stroke-miterlimit:4;stroke-dasharray:none;stroke-opacity:1"
         d="M 73.214287,164.19643 C 72.998223,163.42048 72.188188,163.1332 71.489169,162.97977 C 70.910572,162.50777 70.94162,161.6289 70.380974,161.11296 C 70.093488,160.47841 69.437736,160.20706 68.792639,160.09676 C 67.943358,159.91437 67.025345,159.73201 66.40073,159.0749 C 65.941322,158.69035 65.493141,158.28392 65.138194,157.80002 C 64.360069,157.05558 63.404045,156.52649 62.653892,155.75214 C 62.251127,155.2021 61.425596,155.56617 61.71048,156.24183 C 61.86487,156.92141 62.595402,157.0533 63.058468,157.44069 C 63.724053,158.06554 64.001034,159.0764 64.879776,159.47347 C 65.466934,159.63747 66.204617,159.39777 66.674413,159.90425 C 67.683496,160.43099 68.328476,161.39677 68.983773,162.28727 C 69.434493,162.8161 70.096382,163.15039 70.79033,163.19562 C 71.537089,163.34734 71.870074,164.33929 72.704696,164.24975 C 72.875711,164.24568 73.045324,164.22129 73.214287,164.19643 z" />
      <path
         id="path8120"
         style="fill:#64633b;fill-opacity:1;fill-rule:evenodd;stroke:#000000;stroke-width:0.5;stroke-linecap:butt;stroke-linejoin:miter;stroke-miterlimit:4;stroke-dasharray:none;stroke-opacity:1"
         d="M 61.607143,154.55357 C 60.620729,153.66728 59.278903,153.04878 58.829584,151.70113 C 58.459736,150.76832 58.252643,149.75945 57.615574,148.9529 C 57.015756,148.26212 56.875236,147.38336 56.639691,146.53575 C 56.397273,145.83631 56.138419,145.07945 55.499858,144.65557 C 54.726972,143.77919 55.086359,142.54278 55.119838,141.50026 C 55.087879,140.38175 54.229002,139.57468 53.892442,138.55788 C 53.558372,137.84004 53.319214,137.0748 53.04096,136.34264 C 52.575117,135.84624 52.857307,134.17157 53.514404,135.24512 C 54.345985,136.10264 55.115993,137.06261 55.461218,138.22489 C 55.996458,138.96183 56.310615,139.80089 56.725323,140.6018 C 57.360276,141.54974 57.658737,142.68118 58.359123,143.58346 C 59.130289,144.49589 59.564443,145.62212 60.223473,146.61059 C 60.991695,147.56156 60.556166,148.89876 61.220087,149.87398 C 61.67934,150.82566 63.123912,150.88796 63.321932,151.99864 C 63.474237,152.94547 62.271206,153.38786 62.083293,154.25581 C 61.943401,154.3824 61.773487,154.46792 61.607143,154.55357 z" />
      <path
         id="path8122"
         style="fill:#64633b;fill-opacity:1;fill-rule:evenodd;stroke:#000000;stroke-width:0.5;stroke-linecap:butt;stroke-linejoin:miter;stroke-miterlimit:4;stroke-dasharray:none;stroke-opacity:1"
         d="M 75.89286,165.44643 C 76.187297,165.96299 77.016238,165.71436 77.261348,166.28924 C 77.435493,166.68925 77.949254,166.78981 78.320164,166.95438 C 78.818252,167.107 79.228817,167.42731 79.656013,167.70917 C 80.172482,168.12076 80.692303,168.71303 81.42042,168.63588 C 82.068328,168.62218 82.715621,168.82838 83.207984,169.25645 C 83.640233,169.60637 84.106458,170.0069 84.69651,170.00196 C 85.211331,170.11541 85.816098,170.28053 86.09586,170.76828 C 86.320414,171.42678 85.322796,171.22745 84.935398,171.2425 C 84.276144,171.19036 83.647267,170.90709 83.156441,170.47008 C 82.572283,170.13237 82.11477,169.53707 81.402932,169.45771 C 80.698023,169.31536 79.953638,169.18758 79.377656,168.72453 C 78.65497,168.32791 78.255616,167.46558 77.413401,167.26333 C 76.706633,167.00058 76.147102,166.47281 75.545289,166.04157 C 75.307614,165.78048 75.642296,165.49662 75.89286,165.44643 z" />
      <path
         id="path8124"
         style="fill:#64633b;fill-opacity:1;fill-rule:evenodd;stroke:#000000;stroke-width:0.5;stroke-linecap:butt;stroke-linejoin:miter;stroke-miterlimit:4;stroke-dasharray:none;stroke-opacity:1"
         d="M 96.785713,155.98215 C 96.43461,156.15092 96.651882,156.56921 96.722011,156.84405 C 96.822534,157.46758 96.78483,158.10458 96.7748,158.73465 C 96.478622,159.01065 96.063011,158.78917 95.77218,158.62138 C 95.508254,158.52641 95.172303,157.96914 94.918131,158.32242 C 94.883193,158.65597 95.013878,159.01107 94.865969,159.3342 C 94.685013,159.75719 94.074607,159.76174 93.772172,159.46974 C 93.456836,159.20387 93.25051,158.83173 93.144996,158.43664 C 93.087601,157.95649 92.45692,158.17654 92.339139,157.77012 C 92.257711,157.43482 92.500989,157.12207 92.78716,156.97756 C 93.101167,156.84534 93.022742,156.5403 92.697708,156.53189 C 92.071626,156.25594 91.611879,155.6789 90.930054,155.51323 C 90.569327,155.39861 90.1646,155.27833 89.947869,154.94122 C 90.01075,154.46787 90.60828,154.69312 90.925331,154.6363 C 91.425467,154.56852 91.850737,154.91935 92.149268,155.27961 C 92.817091,155.91432 93.748448,156.09754 94.585821,156.40143 C 95.270438,156.57641 95.958618,156.30042 96.579831,156.03497 C 96.646985,156.01222 96.715705,155.9937 96.785713,155.98215 z" />
      <path
         id="path8126"
         style="fill:#64633b;fill-opacity:1;fill-rule:evenodd;stroke:#000000;stroke-width:0.5;stroke-linecap:butt;stroke-linejoin:miter;stroke-miterlimit:4;stroke-dasharray:none;stroke-opacity:1"
         d="M 93.839287,144.55357 C 94.301074,144.54381 94.461924,145.09955 94.419477,145.47644 C 94.361634,146.06775 93.682123,146.39031 93.144528,146.27139 C 92.680044,146.18319 92.202668,146.43925 92.094664,146.91201 C 91.952984,147.34867 91.636232,147.71329 91.608922,148.18197 C 91.639577,148.72101 90.868368,148.7241 90.942788,149.25706 C 90.935117,149.6023 91.208492,149.99195 90.911985,150.28417 C 90.658786,150.61965 90.177397,150.44568 90.087909,150.07403 C 89.942654,149.69176 89.949975,149.2728 89.845207,148.88033 C 89.820675,148.45867 90.21329,148.12619 90.143096,147.69991 C 89.910493,147.33881 89.377819,147.21588 89.332308,146.72471 C 89.210317,146.29941 89.216641,145.70352 89.670477,145.47686 C 90.00756,145.25816 90.463904,145.45168 90.761589,145.15303 C 91.063439,144.91396 91.185032,144.53674 91.331445,144.19851 C 91.790253,143.46019 93.031827,143.40214 93.519628,144.13914 C 93.630517,144.27391 93.73047,144.41718 93.839287,144.55357 z" />
      <path
         id="path8128"
         style="fill:#64633b;fill-opacity:1;fill-rule:evenodd;stroke:#000000;stroke-width:0.5;stroke-linecap:butt;stroke-linejoin:miter;stroke-miterlimit:4;stroke-dasharray:none;stroke-opacity:1"
         d="M 95.803574,151.78572 C 96.131436,152.07727 96.28717,152.5023 96.47213,152.88808 C 96.59543,153.17804 96.588043,153.5757 96.288418,153.75281 C 96.090479,153.93608 95.824754,154.14661 95.538514,154.04238 C 95.252345,154.04079 95.103966,153.69961 94.819849,153.70428 C 94.436959,153.84019 94.669703,154.40809 94.324858,154.58097 C 94.011586,154.68206 93.701897,154.48104 93.444956,154.32238 C 93.19844,154.17318 93.156829,153.85543 92.943154,153.6845 C 92.588863,153.46918 92.158761,153.62423 91.771448,153.56823 C 91.445291,153.54172 91.06033,153.36134 91.009135,153.00303 C 90.964436,152.64399 91.464802,152.42096 91.318023,152.05885 C 91.233741,151.83357 90.995602,151.5947 91.147583,151.34615 C 91.299607,151.0294 91.701979,151.14365 91.922653,151.31309 C 92.198067,151.47488 92.347124,151.76106 92.519264,152.01441 C 92.819246,152.32573 93.281445,152.33717 93.669858,152.4642 C 93.990622,152.53774 94.331377,152.62494 94.658084,152.56479 C 95.007805,152.3862 94.957191,151.85485 95.33219,151.70852 C 95.492847,151.6701 95.654514,151.73133 95.803574,151.78572 z" />
      <path
         id="path8130"
         style="fill:#64633b;fill-opacity:1;fill-rule:evenodd;stroke:#000000;stroke-width:0.5;stroke-linecap:butt;stroke-linejoin:miter;stroke-miterlimit:4;stroke-dasharray:none;stroke-opacity:1"
         d="M 97.85714,164.64285 C 97.929624,164.63755 98.007101,164.57877 97.883827,164.58702 C 97.331606,164.58391 96.780417,164.63618 96.228551,164.64564 C 96.096678,164.71208 96.066145,164.87711 96.021322,165.00524 C 95.951501,165.27357 95.899159,165.55008 95.894832,165.8277 C 95.947267,166.00068 96.140322,166.06852 96.292277,166.13149 C 96.539185,166.22458 96.803318,166.26011 97.066258,166.25342 C 97.471179,166.25983 97.902704,166.34896 98.284802,166.16987 C 98.360594,166.05286 98.24564,165.87483 98.228715,165.74081 C 98.11807,165.37061 97.993316,165.00442 97.85714,164.64285 z" />
      <path
         id="path8132"
         style="fill:#475422;fill-opacity:1;fill-rule:evenodd;stroke:#000000;stroke-width:0.5;stroke-linecap:butt;stroke-linejoin:miter;stroke-miterlimit:4;stroke-dasharray:none;stroke-opacity:1"
         d="M 92.321428,167.94643 C 92.75066,167.73181 92.142857,168.8951 92.142857,169.375 C 92.142857,169.72026 93.072879,169.73214 93.392857,169.73214 C 94.052917,169.73214 93.858356,169.27271 93.75,168.83929 C 93.667237,168.50824 92.696435,168.17143 92.321428,167.94643 z" />
      <path
         id="path8134"
         style="fill:#64633b;fill-opacity:1;fill-rule:evenodd;stroke:#000000;stroke-width:0.5;stroke-linecap:butt;stroke-linejoin:miter;stroke-miterlimit:4;stroke-dasharray:none;stroke-opacity:1"
         d="M 95.35714,168.83929 C 95.45458,169.2626 95.550362,169.7572 95.946173,170.00679 C 96.71428,170.57207 97.608317,170.92413 98.448607,171.36333 C 98.85566,171.56085 99.302691,171.63955 99.741315,171.73033 C 99.983607,171.78434 100.48106,171.96399 100.47215,171.55358 C 100.41412,171.1433 99.992198,170.92022 99.626808,170.82927 C 99.126025,170.70609 98.573211,170.65374 98.168712,170.29857 C 97.780223,169.95968 97.301955,169.74121 96.929296,169.38351 C 96.579914,169.07276 96.145243,168.79748 95.65759,168.83883 C 95.557439,168.83798 95.457283,168.84041 95.35714,168.83929 z" />
      <path
         id="path8136"
         style="fill:#475422;fill-opacity:1;fill-rule:evenodd;stroke:#000000;stroke-width:0.5;stroke-linecap:butt;stroke-linejoin:miter;stroke-miterlimit:4;stroke-dasharray:none;stroke-opacity:1"
         d="M 95.625,137.05357 C 95.210206,137.0287 94.811254,137.17666 94.406688,137.24684 C 94.038076,137.30959 93.678455,137.4695 93.437131,137.76435 C 93.176683,138.06581 92.993228,138.4281 92.848081,138.79643 C 92.766303,139.07211 92.737669,139.37288 92.799098,139.6547 C 92.928993,139.95851 93.305493,139.98872 93.591968,139.99681 C 94.00854,140.02008 94.450942,139.98744 94.807459,139.74866 C 95.193736,139.55976 95.542873,139.30256 95.836005,138.98801 C 96.194462,138.6277 96.537702,138.2262 97.009002,138.01017 C 97.232381,137.77035 96.800894,137.6 96.62617,137.50658 C 96.303527,137.36088 95.952814,137.27512 95.658446,137.07083 L 95.625,137.05357 L 95.625,137.05357 z" />
      <path
         id="path8138"
         style="fill:#5a5f38;fill-opacity:1;fill-rule:evenodd;stroke:#000000;stroke-width:0.5;stroke-linecap:butt;stroke-linejoin:miter;stroke-miterlimit:4;stroke-dasharray:none;stroke-opacity:1"
         d="M 112.41071,133.66072 C 111.99033,133.59422 111.55106,133.69016 111.186,133.90553 C 111.11685,134.18374 111.49782,134.26594 111.65783,134.41874 C 111.84745,134.57281 112.20977,134.61348 112.2121,134.91391 C 112.20098,135.15438 112.08341,135.3778 111.96772,135.58405 C 111.82975,135.80089 111.58213,135.95728 111.52804,136.21962 C 111.52507,136.4845 111.82074,136.5608 112.03042,136.60064 C 112.5905,136.71818 113.1617,136.60293 113.72642,136.60837 C 113.99677,136.54799 114.14272,136.27866 114.29821,136.07393 C 114.50792,135.78048 114.64825,135.42563 114.6155,135.05971 C 114.61914,134.79952 114.55002,134.50932 114.31348,134.36462 C 114.0604,134.18534 113.76805,134.07051 113.48487,133.94898 C 113.13387,133.82743 112.76201,133.78121 112.41071,133.66072 z" />
      <path
         id="path8140"
         style="fill:#5d633a;fill-opacity:1;fill-rule:evenodd;stroke:#000000;stroke-width:0.5;stroke-linecap:butt;stroke-linejoin:miter;stroke-miterlimit:4;stroke-dasharray:none;stroke-opacity:1"
         d="M 131.16071,130.08929 C 130.39859,129.82586 129.27663,130.36827 129.45283,131.27841 C 129.64824,132.05104 128.71977,132.40745 128.14737,132.65988 C 127.55189,132.95992 127.15145,133.56897 126.48282,133.7532 C 125.90891,133.9486 125.25051,134.0366 124.67127,133.83793 C 124.14941,133.49126 124.55058,131.93002 123.57651,132.58333 C 123.05936,133.10104 122.82538,133.8739 122.12758,134.21119 C 121.37796,134.66921 120.57406,134.09909 119.87628,133.81735 C 118.76203,133.65586 117.76902,132.97362 116.61777,133.02528 C 115.94607,133.01063 115.26891,132.99154 114.61063,132.85778 C 113.80008,132.84416 113.68764,134.09216 114.63109,133.91938 C 115.51123,133.99647 116.33463,134.37275 117.20912,134.45006 C 118.00976,134.49189 118.86537,134.38221 119.6017,134.77149 C 120.07671,135.34297 121.02151,135.94412 120.63134,136.80795 C 121.41079,137.09174 122.47163,136.73956 122.53251,135.81498 C 123.0098,134.96748 123.9263,135.50239 123.98242,136.28264 C 124.62697,136.56159 125.38848,136.20101 126.08499,136.37537 C 126.76598,136.47099 127.41636,136.40061 127.65135,135.67494 C 127.88675,135.95413 128.07876,136.83952 128.761,136.47361 C 129.39399,136.05869 128.98682,134.94146 129.96613,134.73427 C 130.76183,134.53524 130.7326,133.78339 130.96634,133.20182 C 131.44472,132.86668 132.28685,132.8553 132.09581,132.00068 C 131.98183,131.29632 131.56138,130.66271 131.16071,130.08929 z" />
      <path
         id="path8142"
         style="fill:#757245;fill-opacity:1;fill-rule:evenodd;stroke:#000000;stroke-width:0.5;stroke-linecap:butt;stroke-linejoin:miter;stroke-miterlimit:4;stroke-dasharray:none;stroke-opacity:1"
         d="M 115.98214,135.17857 C 115.8744,135.03152 115.94615,135.38281 115.96084,135.44336 C 116.02649,135.70612 116.09746,135.98971 116.29121,136.18977 C 116.41012,136.29497 116.58424,136.24013 116.72311,136.21178 C 116.98274,136.13501 117.18587,135.9125 117.46717,135.89906 C 117.88139,135.86061 118.28808,135.99022 118.70128,135.9761 C 118.86082,135.95654 119.06537,135.92364 119.15024,135.76883 C 119.17073,135.57305 118.94916,135.47228 118.81275,135.37827 C 118.52475,135.21812 118.2205,135.08096 117.90344,134.99008 C 117.37395,134.89468 116.83696,135.01119 116.31696,135.11161 C 116.20535,135.13393 116.09374,135.15625 115.98214,135.17857 z" />
      <path
         id="path8144"
         style="fill:#6d7545;fill-opacity:1;fill-rule:evenodd;stroke:#000000;stroke-width:0.5;stroke-linecap:butt;stroke-linejoin:miter;stroke-miterlimit:4;stroke-dasharray:none;stroke-opacity:1"
         d="M 134.64285,125.71429 C 133.91325,125.78879 133.22375,126.22539 132.89549,126.88925 C 132.64822,127.27078 132.19786,127.4921 131.74544,127.46069 C 131.2682,127.49815 130.71895,127.56933 130.40938,127.98029 C 130.01969,128.24227 130.03554,129.07445 130.64338,128.92477 C 131.41968,128.89973 132.09658,128.40809 132.86886,128.38102 C 133.45715,128.4509 133.7991,128.99988 134.152,129.41198 C 134.43511,129.69783 134.86699,129.80919 135.25799,129.73513 C 135.54052,129.44978 135.16841,128.74963 135.78269,128.74192 C 136.237,128.68467 136.69425,128.79134 137.15042,128.73497 C 137.60245,128.71514 138.05698,128.65625 138.4862,128.50787 C 138.11083,128.20899 137.58133,128.39678 137.1612,128.19511 C 136.6662,128.03718 136.55376,127.48968 136.27124,127.11901 C 135.87603,126.48761 135.08705,126.29603 134.64285,125.71429 z" />
      <path
         id="path8146"
         style="fill:#61653b;fill-opacity:1;fill-rule:evenodd;stroke:#000000;stroke-width:0.5;stroke-linecap:butt;stroke-linejoin:miter;stroke-miterlimit:4;stroke-dasharray:none;stroke-opacity:1"
         d="M 138.125,114.10714 C 137.62933,114.39503 137.60696,115.10612 137.08368,115.36357 C 136.70828,115.96366 136.85459,116.70684 136.68831,117.36526 C 136.67945,117.99892 136.83458,118.72163 136.40658,119.26087 C 135.87054,120.0874 135.46604,121.03138 135.43833,122.02646 C 135.27843,122.5737 135.0715,123.10545 134.89069,123.6458 C 134.49266,123.92133 134.75645,124.57616 135.24244,124.26354 C 135.6296,124.11584 136.07213,123.74229 136.48119,124.03742 C 137.07697,124.27979 136.87914,123.42552 136.52978,123.26617 C 136.1788,122.86718 136.00561,122.27938 136.25777,121.7843 C 136.50308,121.2442 137.00435,120.8913 137.40779,120.47793 C 137.84768,120.05721 138.3822,120.64524 138.77302,120.57657 C 139.05838,120.18364 138.39962,119.9286 138.3882,119.5422 C 138.22268,118.89006 138.32172,118.20994 138.31044,117.54602 C 138.34753,117.00996 138.65102,116.55421 138.84965,116.07291 C 139.02919,115.46044 138.92138,114.72599 138.47702,114.25218 C 138.37808,114.16988 138.25452,114.11393 138.125,114.10714 z" />
      <path
         id="path8148"
         style="fill:#475422;fill-opacity:1;fill-rule:evenodd;stroke:#000000;stroke-width:0.5;stroke-linecap:butt;stroke-linejoin:miter;stroke-miterlimit:4;stroke-dasharray:none;stroke-opacity:1"
         d="M 144.19643,127.14286 C 144.03084,127.0763 143.83234,127.1334 143.65543,127.13701 C 143.22345,127.18172 142.79278,127.24342 142.36682,127.32752 C 142.10086,127.2658 141.85522,127.47593 141.78873,127.72322 C 141.69413,127.95276 141.92026,128.15587 142.14286,128.125 C 142.90292,128.12638 143.65908,128.0257 144.41937,128.03294 C 144.95896,128.00665 145.48783,127.87717 146.00609,127.73291 C 146.2286,127.69263 146.31682,127.41584 146.13943,127.26769 C 145.91356,126.99741 145.53472,127.00162 145.21308,127.00866 C 144.87102,127.02253 144.5318,127.07639 144.19643,127.14286 z" />
      <path
         id="path8150"
         style="fill:#475422;fill-opacity:1;fill-rule:evenodd;stroke:#000000;stroke-width:0.5;stroke-linecap:butt;stroke-linejoin:miter;stroke-miterlimit:4;stroke-dasharray:none;stroke-opacity:1"
         d="M 153.39285,122.76786 C 153.15809,122.86184 152.96731,123.04441 152.7603,123.18808 C 152.21385,123.6182 151.64876,124.02332 151.0773,124.41936 C 150.94529,124.5464 150.66027,124.64526 150.66651,124.83794 C 150.88912,124.89271 151.12264,124.82436 151.34957,124.82566 C 151.75257,124.82792 152.15912,124.79726 152.54314,124.6657 C 153.00496,124.51536 153.53097,124.47391 153.89962,124.12393 C 154.18754,123.86309 154.4932,123.57676 154.58106,123.18184 C 154.62757,122.97234 154.72431,122.75507 154.67299,122.53807 C 154.54357,122.32492 154.24769,122.42886 154.04043,122.40969 C 153.77579,122.36366 153.60485,122.59393 153.42595,122.74423 L 153.39286,122.76786 L 153.39285,122.76786 z" />
      <path
         id="path8152"
         style="fill:#475422;fill-opacity:1;fill-rule:evenodd;stroke:#000000;stroke-width:0.5;stroke-linecap:butt;stroke-linejoin:miter;stroke-miterlimit:4;stroke-dasharray:none;stroke-opacity:1"
         d="M 39.642857,117.41072 C 39.339924,117.99777 39.186135,118.66037 38.788963,119.19797 C 38.52937,119.63797 38.410261,120.22052 38.674219,120.68615 C 38.835259,120.97532 39.175786,121.14079 39.502794,121.09725 C 39.845462,121.08748 40.177955,120.98763 40.520148,120.97266 C 40.695432,120.78101 40.470913,120.55505 40.363876,120.39194 C 40.167307,120.12349 39.966852,119.84212 39.911103,119.5062 C 39.732005,118.81834 39.934146,118.07579 39.642857,117.41072 z" />
      <path
         id="path8154"
         style="fill:none;fill-rule:evenodd;stroke:#000000;stroke-width:0.5;stroke-linecap:butt;stroke-linejoin:miter;stroke-miterlimit:4;stroke-dasharray:none;stroke-opacity:1"
         d="M 31.339287,82.589287 C 30.982033,83.166136 31.233909,83.92256 30.843844,84.486552 C 30.555313,85.479122 30.791888,86.517945 30.714639,87.53103 C 30.709206,88.165721 30.786778,88.848314 30.49773,89.434636 C 29.897133,90.363612 28.740416,90.755356 28.19129,91.730983 C 27.75356,92.314163 27.298219,92.886962 26.909213,93.503374 C 26.462747,93.771988 26.597452,92.89711 26.806749,92.703195 C 27.207135,92.009502 27.586455,91.300686 27.833019,90.535352 C 28.200933,89.482555 28.460137,88.382803 28.997379,87.397731 C 29.374661,86.476136 29.522785,85.455948 30.099299,84.621802 C 30.526087,83.951674 31.090739,83.35998 31.339287,82.589287 z" />
      <path
         id="path8156"
         style="fill:#6a674e;fill-opacity:1;fill-rule:evenodd;stroke:#000000;stroke-width:0.5;stroke-linecap:butt;stroke-linejoin:miter;stroke-miterlimit:4;stroke-dasharray:none;stroke-opacity:1"
         d="M 99.196426,48.125 C 99.063989,47.465921 98.10584,47.56636 97.746312,47.043214 C 97.164079,46.850227 96.764159,46.403826 96.536675,45.846788 C 96.2052,45.237768 95.498008,45.035036 94.914057,44.751027 C 93.914081,44.323635 92.82503,44.211367 91.769591,43.993114 C 91.099738,43.886147 90.428142,44.086832 89.755384,43.991302 C 88.96141,43.959289 88.123188,43.793114 87.357283,44.071103 C 86.56906,44.474302 86.377595,45.423643 85.835663,46.057384 C 85.445325,46.393928 85.608789,46.991238 86.162093,46.716834 C 86.819324,46.589186 87.25458,46.018176 87.892058,45.851061 C 88.598773,45.589999 89.307565,45.180477 90.090248,45.342989 C 90.843892,45.379048 91.420826,45.878439 92.062759,46.202099 C 92.827171,46.49397 93.649751,46.565189 94.441131,46.755539 C 95.046258,46.99405 95.669113,47.256364 96.088052,47.776824 C 96.616471,48.223887 97.269764,48.489288 97.810921,48.91928 C 98.358652,49.210804 99.010621,49.06298 99.553571,48.839287 C 99.768373,48.566012 99.32976,48.318551 99.196426,48.125 z" />
      <path
         id="path8158"
         style="opacity:1;fill:#475422;fill-opacity:1;fill-rule:evenodd;stroke:#000000;stroke-width:0.5;stroke-linecap:butt;stroke-linejoin:miter;stroke-miterlimit:4;stroke-dasharray:none;stroke-opacity:1"
         d="M 93.03125,29.84375 C 89.843961,30.695212 85.52508,32.607155 83.6875,32.875 C 81.008855,33.265441 77.469255,41.464994 74.25,37.90625 C 68.905699,38.931211 64.520982,43.644728 60.03125,46.75 C 48.419381,56.306484 38.943869,68.364962 32.0625,81.71875 C 31.124137,88.527985 38.291401,88.095197 38.25,81.84375 C 37.837619,80.040625 35.684828,77.772221 39.1875,75.59375 C 38.958465,72.159608 44.422644,68.789389 40.90625,74.15625 C 37.554312,78.463011 39.371961,84.87241 40.65625,89.34375 C 40.08928,93.34095 39.845163,97.538334 41.40625,99.71875 C 38.357748,104.39799 38.119136,110.50143 37.75,115.71875 C 41.889156,116.79307 42.901013,109.5522 48.09375,112.03125 C 52.631626,112.70152 58.384392,114.84107 57.71875,120.125 C 58.814682,123.69244 54.735925,125.23022 59.21875,126.6875 C 60.663263,131.33565 56.079821,135.66984 58.84375,140.5625 C 59.219868,146.47274 65.03533,148.95173 61.375,142.46875 C 58.057019,139.55793 59.080953,130.90719 63.5,133.125 C 63.597234,138.63345 68.282939,143.46957 73.25,140.3125 C 73.952889,136.33526 67.808937,129.35802 75.75,130.84375 C 82.281214,131.866 69.764574,135.71079 77.40625,135.65625 C 79.009984,130.1459 85.392064,136.3361 89.65625,135.03125 C 93.345408,136.63256 96.964629,133.55814 98.625,132.25 C 95.49627,131.24872 101.98506,130.73412 98.46875,127.8125 C 93.595068,123.24732 107.25631,127.54074 100.75,123.28125 C 94.948609,124.57194 97.253035,117.40929 102.03125,120.125 C 107.44365,118.88992 99.620771,123.26317 104.90625,122.4375 C 108.88428,122.44589 106.38876,126.03345 108.8125,127.90625 C 103.47317,131.94664 116.5937,133.19415 112.15625,126.875 C 107.35247,123.56793 117.57946,124.16057 119.5625,123.03125 C 122.41477,126.77211 131.82149,122.47076 133.84375,118.46875 C 136.5526,114.76531 133.9037,112.29479 130.5625,111.84375 C 127.45258,108.46249 137.98378,108.88808 140.5625,106.9375 C 144.14194,108.21533 148.53903,107.75787 150.84375,109.71875 C 155.10463,113.49172 157.28195,102.71262 160.96875,108.46875 C 163.59208,108.32172 166.78369,104.1948 165.09375,109.1875 C 161.42014,111.36974 152.63379,113.62554 155.90625,119.28125 C 155.62876,126.43689 159.81497,115.55499 162.46875,118.53125 C 161.98813,116.26483 167.07097,114.67922 162.65625,113 C 165.57288,107.62083 172.18779,112.44112 175.4375,108 C 179.02067,107.42574 183.64427,106.7463 177.9375,104.03125 C 177.01453,101.94785 181.7492,105.46462 180,102.0625 C 183.38027,102.01804 185.386,104.06058 186.625,100.34375 C 186.55464,97.076468 180.35209,94.442007 176.25,95.28125 C 173.21467,94.760743 170.56869,94.166345 169.875,97.1875 C 169.43866,92.949244 166.18715,97.440017 163.5625,95 C 159.08647,95.8137 158.17502,90.21428 152.875,91.375 C 149.66241,89.634371 142.47479,83.680111 140.28125,87.84375 C 136.60672,86.014326 134.04271,85.692778 130.9375,85.25 C 129.72789,83.217194 134.144,80.494922 128.9375,79.8125 C 125.31259,78.518252 121.81047,77.448706 118.65625,74.28125 C 116.11691,73.869745 107.75591,70.661675 114.8125,71.6875 C 118.83872,73.878953 123.66629,69.716644 118,67.78125 C 116.27552,62.513455 109.24067,67.084981 105.8125,61.65625 C 102.87358,58.92152 99.212836,62.900778 97.15625,58.25 C 96.254751,60.132749 92.01776,64.737373 93.84375,59.71875 C 95.294689,55.181172 89.801179,60.834397 91.65625,55.96875 C 90.215568,53.218808 86.005114,65.85463 86.8125,59.0625 C 85.525901,59.25808 82.990682,60.533996 81.40625,57.84375 C 84.854778,57.47806 91.361137,56.14548 92.15625,52.625 C 88.334945,49.668962 82.324754,59.346524 84.1875,51.34375 C 87.221522,45.416042 80.150021,54.69396 82.71875,48.03125 C 82.839568,45.177389 77.548827,43.701076 81.09375,42.625 C 79.337873,40.562964 72.708042,40.705911 78.9375,39.28125 C 81.407583,36.412827 84.730252,36.784482 80.625,39.71875 C 83.223699,42.101601 88.295277,33.17021 92.40625,32.40625 C 93.454961,32.087699 94.737167,29.82315 93.03125,29.84375 z M 59.0625,48.1875 C 59.093727,48.555213 58.692693,48.959756 58.4375,49.25 C 58.135386,49.611813 57.492284,49.73793 57.53125,50.3125 C 57.44766,50.710802 58.295533,50.749086 57.84375,51.125 C 57.390759,51.61073 56.568385,51.359471 56.15625,51.90625 C 55.899458,52.409655 55.417347,52.717486 55.15625,53.21875 C 54.865885,53.610087 54.455475,53.956275 54.25,54.40625 C 53.899988,54.908604 53.67817,55.483294 53.1875,55.875 C 52.846022,56.179443 52.549693,56.867007 52,56.6875 C 51.655791,56.331664 51.873663,55.715287 52.09375,55.34375 C 52.41949,54.953021 52.91025,54.713321 53.15625,54.25 C 53.490936,53.824938 53.791539,53.372796 54.15625,52.96875 C 54.499175,52.599301 54.787374,52.192234 55.03125,51.75 C 55.418026,51.369142 55.719123,50.900515 56.03125,50.46875 C 56.484311,50.03301 57.093576,49.801792 57.46875,49.28125 C 57.828706,48.946415 58.141573,48.475372 58.65625,48.375 C 58.802742,48.329514 58.935441,48.275806 59.0625,48.1875 z M 56.875,55.0625 C 57.093003,55.557323 56.453439,56.570934 56.875,57.25 C 57.128712,57.034772 57.656928,56.821575 57.90625,57.15625 C 58.1768,58.020099 57.380293,58.623582 56.90625,59.21875 C 56.540957,60.096718 55.737666,60.737689 55.53125,61.6875 C 55.310981,62.5006 54.650736,63.354023 53.75,63.4375 C 52.80782,63.251145 53.624702,61.98413 53.1875,61.375 C 52.801855,61.706119 52.463767,62.287953 52.03125,62.65625 C 51.621969,63.454356 50.451206,63.765172 50.53125,64.78125 C 50.56212,65.206989 50.7784,66.664124 50,66.03125 C 49.703029,65.598855 49.270543,65.704811 49.34375,66.25 C 48.955533,66.999657 47.936953,67.243677 47.75,68.15625 C 47.597992,68.935229 46.307821,69.540923 45.875,68.75 C 45.909727,68.002168 46.182107,67.281317 46.40625,66.5625 C 46.517192,65.798867 46.921923,65.103744 47.5,64.59375 C 48.106208,64.087163 48.56298,63.403816 49.3125,63.09375 C 50.045938,62.723116 50.387617,61.901455 51,61.375 C 51.646021,60.871127 52.010326,60.145591 52.4375,59.46875 C 52.813219,58.886994 53.400134,58.447169 53.59375,57.75 C 53.901721,57.012902 54.627088,56.566551 55.25,56.125 C 56.202097,56.735958 56.228797,55.326925 56.875,55.0625 z M 53.78125,66.25 C 53.906747,66.241449 54.047537,66.277492 54.15625,66.34375 C 54.358372,66.462604 54.498584,66.666501 54.75,66.6875 C 55.111801,66.751114 55.45288,66.519154 55.8125,66.5625 C 55.949174,66.776483 56.061156,67.052967 56,67.3125 C 55.875803,67.552616 55.692733,67.750508 55.46875,67.90625 C 55.098372,68.042712 54.67194,68.004389 54.34375,68.25 C 53.965092,68.494957 53.647933,68.908129 53.1875,69 C 52.946435,69.010474 52.66223,69.041307 52.4375,68.9375 C 52.209458,68.790161 52.3059,68.481344 52.40625,68.28125 C 52.573542,68.035604 52.649772,67.744161 52.75,67.46875 C 52.927301,67.083987 53.112595,66.688701 53.4375,66.40625 C 53.528897,66.310383 53.655753,66.258551 53.78125,66.25 z M 98.3125,94.90625 C 98.437266,94.898918 98.561135,94.913698 98.6875,94.9375 C 99.093915,95.039958 99.530825,95.225793 99.65625,95.65625 C 100.18933,95.732444 100.74117,95.664342 101.28125,95.71875 C 101.79406,95.826258 101.70713,96.601635 101.1875,96.625 C 100.6483,96.747098 100.18864,96.442752 99.875,96.03125 C 99.492035,95.602437 98.753081,95.682106 98.3125,95.96875 C 97.84218,96.38772 97.267073,96.667287 96.78125,97.0625 C 96.324227,97.280033 95.87488,97.67486 95.34375,97.625 C 94.719103,97.648576 94.082386,97.682705 93.5,97.40625 C 92.900029,97.340145 92.258482,97.503946 91.6875,97.3125 C 91.184845,97.162832 90.592619,97.272538 90.125,97 C 89.775007,96.728485 89.557315,96.311996 89.1875,96.03125 C 89.151955,95.981903 89.198168,95.969084 89.25,95.9375 C 89.664647,96.081955 90.113249,96.386697 90.59375,96.46875 C 91.190129,96.680823 91.816412,96.562588 92.4375,96.59375 C 93.13281,96.574062 93.839993,96.629395 94.53125,96.5625 C 95.025028,96.358924 95.519853,96.124103 96.03125,95.96875 C 96.453097,95.755063 96.853221,95.487406 97.3125,95.34375 C 97.591862,95.093812 97.938203,94.928245 98.3125,94.90625 z" />
      <path
         id="path3801"
         style="fill:#73662f;fill-opacity:1;fill-rule:evenodd;stroke:none;stroke-width:1px;stroke-linecap:butt;stroke-linejoin:miter;stroke-opacity:1"
         d="M 193.75,64.625 C 196.125,67.625 196.125,70.125 196.875,70.5 C 197.625,70.875 198,69.875 198.625,69 C 199.25,68.125 199,66.375 198.5,65.5 C 198,64.625 194.25,60.125 193,58.875 C 191.75,57.625 191.625,61.375 191.75,62 C 191.875,62.625 193.375,64.625 193.75,64.625 z" />
      <path
         id="path5439"
         style="fill:#dcdbdd;fill-opacity:1;fill-rule:evenodd;stroke:#000000;stroke-width:0.5;stroke-linecap:butt;stroke-linejoin:miter;stroke-miterlimit:4;stroke-dasharray:none;stroke-opacity:1;display:inline"
         d="M 137.47659,27.931021 C 137.02232,30.305922 144.71226,30.553886 139.79803,30.352895 C 136.00913,30.045738 132.74734,27.853866 129.05445,28.840618 C 125.27412,27.741739 120.81897,28.423153 117.27635,30.240067 C 115.6709,31.77789 109.63976,31.763582 110.86589,34.254839 C 109.90488,35.559259 107.23715,37.158402 109.76594,39.167068 C 111.51837,41.926583 111.71544,45.433116 107.70399,45.919825 C 105.55937,47.148173 109.6085,50.554367 111.58375,49.80602 C 113.83731,52.725784 119.58125,55.037313 117.74446,59.359588 C 121.12052,58.717377 121.40084,62.523108 124.08375,63.109588 C 119.84478,64.720102 122.73748,70.247362 125.8025,71.757749 C 127.45522,73.083832 122.48516,75.943377 126.85161,74.649774 C 129.59254,73.413858 130.42538,78.197333 133.17834,75.560764 C 135.52428,76.482825 140.56336,77.889353 138.7573,81.039281 C 139.08413,83.453076 143.47545,81.00132 142.03017,84.181018 C 136.60313,82.573096 145.20747,89.532091 145.6016,84.716738 C 144.79499,82.54231 143.48283,79.080397 146.81027,81.7928 C 148.23659,82.093228 153.30269,81.579528 151.36751,83.963386 C 149.61634,82.778041 146.14659,85.237221 147.96349,86.035092 C 150.42674,84.339703 151.44105,89.107352 154.42903,87.219522 C 158.20474,89.063949 162.87098,88.068081 166.47633,89.458641 C 167.86726,92.972083 173.13148,88.007536 174.36276,92.451109 C 175.68064,93.432213 175.60673,94.898854 175.15517,95.877448 C 178.09779,95.13632 181.32851,99.611753 183.20903,98.652281 C 183.28125,96.612146 178.00032,92.286395 182.7333,93.154235 C 185.67558,93.891874 181.67121,87.002953 185.91271,90.429623 C 188.60657,88.346324 190.89895,84.213054 193.4536,81.364836 C 195.6075,79.096394 198.7177,75.34128 195.04182,72.903293 C 192.05197,69.482213 196.212,65.467416 192.61611,62.454425 C 192.34788,58.198372 196.01983,62.013871 186.21651,52.349907 C 178.09036,45.011598 168.99681,38.149229 158.49501,34.55016 C 151.61017,31.829091 144.49069,30.264506 137.47659,27.931021 z" />
      <path
         id="path4652"
         style="fill:#937d59;fill-opacity:0.68095236;fill-rule:evenodd;stroke:none;stroke-width:1px;stroke-linecap:butt;stroke-linejoin:miter;stroke-opacity:1"
         d="M 155.875,120.625 C 156.56509,119.97482 156.47578,118.9552 156.53972,118.09113 C 156.66271,117.40265 156.46098,115.68235 157.02838,115.14712 C 157.47974,114.67188 158.87668,113.88026 159.16903,113.27037 C 160.93991,111.22969 162.5099,111.09204 164.92228,109.91685 C 165.52974,109.5739 163.80095,111.39846 163.13477,111.69765 C 162.43593,112.26227 160.97537,113.53432 160.39029,114.23648 C 158.66578,117.2972 159.02171,115.48482 157.72226,117.67111 C 157.49962,117.98535 156.24903,120.4972 155.875,120.625 z" />
      <path
         id="path5542"
         style="fill:#937d59;fill-opacity:0.54285715;fill-rule:evenodd;stroke:none;stroke-width:1px;stroke-linecap:butt;stroke-linejoin:miter;stroke-opacity:1"
         d="M 102.00015,95.758759 C 105.0815,95.268619 107.30686,98.059463 110.37602,97.856494 C 113.37952,98.662735 116.65129,97.987169 119.50105,99.471072 C 122.34992,99.525091 132.90808,102.02911 133.41896,97.95744 C 133.99532,95.103487 121.90913,91.282802 123.653,88.741817 C 124.06853,87.459341 131.47403,84.019196 131.45073,87.044658 C 130.76016,90.154253 143.83393,95.114307 141.66558,98.111841 C 143.93363,99.068751 143.59702,102.96488 146.46504,103.05817 C 150.03434,104.78453 147.84031,104.39724 151.77942,103.7743 C 155.29626,103.71948 158.80058,103.47134 162.28101,103.00661 C 164.90634,103.09861 167.42959,102.21722 169.95484,101.77299 C 172.03236,103.27872 174.40135,102.59446 176.60656,102.31731 C 177.88506,105.24099 174.7788,105.50901 172.68344,105.45152 C 170.19783,105.55764 167.45849,105.00291 165.16675,105.99206 C 162.76604,106.44181 160.66089,108.72154 158.6396,106.22957 C 156.17532,106.53627 153.90336,108.35636 151.23246,107.95635 C 147.77776,109.01578 145.28346,105.24523 141.73625,106.02562 C 136.2684,104.13548 132.78511,107.79439 127.86287,109.11156 C 125.16805,109.18551 123.20724,105.92543 120.50712,106.1207 C 117.3469,106.133 114.13977,103.80766 111.29434,102.06994 C 108.24449,101.59084 106.4598,99.02149 103.9447,97.614917 C 103.21538,97.146953 102.07763,96.778359 102.00015,95.758759 z" />
      <path
         id="path6430"
         style="fill:#937d59;fill-opacity:0.50952382;fill-rule:evenodd;stroke:none;stroke-width:1px;stroke-linecap:butt;stroke-linejoin:miter;stroke-opacity:1"
         d="M 50.65625,55.5 C 48.312211,58.560691 46.729991,62.418222 44.34375,65.25 C 41.705706,64.945974 38.986181,69.985136 41.96875,71 C 45.79806,74.138042 41.26341,77.127533 40.03125,80.4375 C 38.993857,85.468506 44.71987,88.854134 43.0625,94.03125 C 43.036383,98.118482 47.36364,100.27673 51.28125,102.6875 C 55.36952,104.73274 52.060249,112.43971 56.90625,114.53125 C 57.256802,112.42056 59.123775,111.25747 60.75,110.59375 C 62.694546,110.59375 63.28309,109.81526 64.34375,111.40625 C 65.404409,112.99724 65.570464,115.46078 64.15625,116.875 C 63.095592,117.93566 61.290784,120.40176 60.03125,120.34375 C 57.161414,126.62577 62.127422,124.01967 64.25,126.28125 C 65.850133,130.30865 64.963764,124.07155 68.59375,126.84375 C 73.461139,127.30068 75.054727,129.71575 75.46875,127.46875 C 78.566669,125.09912 80.890151,126.46749 83.78125,128.8125 C 86.729254,131.24842 101.01325,129.08813 95.96875,124.8125 C 92.797888,124.40308 94.626157,121.83069 96.59375,121 C 100.40869,119.88368 102.96815,114.78448 99.65625,111.71875 C 97.122439,108.02784 94.028912,105.19038 89.875,103.46875 C 87.656602,101.2934 88.09098,95.465679 83.53125,96.40625 C 79.10611,97.213899 82.201609,88.234119 78.0625,87.3125 C 73.392984,86.205276 63.804429,87.97971 62.375,83.65625 C 59.426573,80.178961 60.131129,69.266483 59.5625,64.625 C 58.820855,62.130267 49.905965,64.327497 49.28125,67.3125 C 48.350333,70.253581 43.770911,70.931822 46.28125,65.6875 C 48.510778,62.832975 52.664379,57.705846 50.65625,55.5 z M 53.46875,65.6875 C 53.806507,65.646413 54.382854,66.203908 55.15625,66.28125 C 55.200444,66.192862 55.651806,66.031249 56.09375,66.03125 C 56.535691,66.03125 56.606695,66.886645 56.5625,67.59375 C 56.518305,68.300856 55.272748,68.580802 54.875,68.625 C 54.477252,68.669194 53.56158,69.339304 53.03125,69.78125 C 52.50092,70.223192 51.799555,68.986133 51.84375,68.5 C 51.887944,68.013864 53.03439,66.015166 53.34375,65.75 C 53.38242,65.716854 53.420499,65.69337 53.46875,65.6875 z M 51.4375,86.65625 C 52.49816,86.656252 51.084865,92.838547 51.96875,95.84375 C 52.317913,97.0309 55.507358,102.39585 59.75,108.40625 C 59.749998,108.7598 51.800856,100.27849 51.09375,98.6875 C 50.386642,97.096513 48.791055,94.248163 48.4375,93.1875 C 48.083946,92.12684 46.477635,91.08211 45.59375,90.375 C 44.709866,89.66789 50.200062,92.136325 51.4375,86.65625 z" />
      <path
         id="path20636"
         style="fill:#827e58;fill-opacity:0.66190473;fill-rule:evenodd;stroke:none;stroke-width:1px;stroke-linecap:butt;stroke-linejoin:miter;stroke-opacity:1"
         d="M 59.220193,62.70152 C 62.225397,59.961481 65.849319,58.458879 67.351921,57.486607 C 68.854523,56.514335 72.301669,53.332355 73.539105,52.890413 C 74.776542,52.448471 77.604969,51.476199 78.488853,51.299423 C 79.372736,51.122646 80.698562,51.034258 80.78695,51.476199 C 80.875338,51.918141 80.698562,52.183306 78.754018,52.802025 C 76.809474,53.420743 75.306872,54.12785 74.688154,54.746568 C 74.069435,55.365287 73.362329,56.602724 71.417785,56.956277 C 69.473241,57.30983 64.081552,60.049869 63.374445,60.756976 C 62.667339,61.464083 59.308581,62.878296 59.220193,62.70152 z" />
      <path
         id="path21529"
         style="fill:#484424;fill-opacity:1;fill-rule:evenodd;stroke:none;stroke-width:1px;stroke-linecap:butt;stroke-linejoin:miter;stroke-opacity:1"
         d="M 97.050402,59.519538 C 98.65721,61.418172 101.66567,61.004497 103.33208,60.940218 C 104.94159,60.982372 106.05306,62.912547 107.31303,64.13952 C 110.24975,65.014094 111.9462,64.772198 114.98789,65.562173 C 115.79071,65.770007 118.63587,68.757262 120.2279,69.399128 C 115.06041,69.136831 110.90628,67.617119 108.61798,66.949672 C 107.27342,65.734453 105.08514,64.439631 103.63767,63.39406 C 101.67353,62.695362 97.835234,63.87993 97.050402,59.519538 z" />
      <path
         id="path21531"
         style="fill:#484424;fill-opacity:1;fill-rule:evenodd;stroke:none;stroke-width:1px;stroke-linecap:butt;stroke-linejoin:miter;stroke-opacity:1"
         d="M 110.48543,71.540351 C 112.55538,72.817524 116.22856,73.802192 118.53836,74.555178 C 120.32791,76.543569 122.97603,77.809904 124.30701,78.345968 C 125.43102,79.413192 129.33072,80.162325 130.62017,80.787449 C 126.58584,82.360379 123.67449,80.87839 121.79671,79.617618 C 120.01975,78.614246 119.16996,77.71464 117.68541,76.33871 C 114.90748,76.151512 111.7525,74.180864 110.48543,71.540351 z" />
      <path
         id="path25077"
         style="fill:#484424;fill-opacity:1;fill-rule:evenodd;stroke:none;stroke-width:1px;stroke-linecap:butt;stroke-linejoin:miter;stroke-opacity:1"
         d="M 88.211571,60.315034 C 89.095455,58.812432 91.039998,55.18851 91.216775,55.630452 C 91.393552,56.072393 90.509668,58.016937 90.95161,58.105325 C 91.393552,58.193714 93.514872,57.663384 93.780037,58.105325 C 94.045202,58.547267 93.780037,61.817636 93.161319,61.906024 C 92.5426,61.994413 90.95161,59.519539 90.332891,59.696316 C 89.714173,59.873092 88.388348,60.226646 88.211571,60.315034 z" />
      <path
         id="path25964"
         style="fill:#6f5735;fill-opacity:0.7819905;fill-rule:evenodd;stroke:none;stroke-width:1px;stroke-linecap:butt;stroke-linejoin:miter;stroke-opacity:1"
         d="M 93,182.25 C 93.75,182.375 97.168813,181.26532 101.70006,182.95282 C 105.78937,189.85524 111.875,189.125 112.125,189.125 C 112.625,189.125 114.125,186.75 114.75,186.375 C 115.375,186 116.125,187.625 116.625,188.75 C 117.125,189.875 115.625,192.5 116.875,193.5 C 118.125,194.5 120.25,195.625 119.125,196.75 C 118,197.875 114.76256,196.65901 113.76256,197.78401 C 112.76256,198.90901 120.15886,206.2392 110.69454,204.59619 C 105.17334,203.63772 100.25216,197.18566 98.502155,196.06066 C 96.752155,194.93566 80.77816,190.12487 79.573408,189.56434 C 72.864777,186.44302 68.696699,179.00368 69.321699,178.00368 C 72.673439,176.15409 90.00641,181.04835 93,182.25 z" />
      <path
         id="path29508"
         style="fill:#91899d;fill-opacity:0.40284358;fill-rule:evenodd;stroke:none;stroke-width:1px;stroke-linecap:butt;stroke-linejoin:miter;stroke-opacity:1"
         d="M 140.625,72.5 C 138.875,72.5 136.75,74.125 138,74.875 C 139.25,75.625 142.75,75.5 144.25,76 C 145.75,76.5 150.40708,78.8083 151.5,79.375 C 154.875,81.125 161.25069,84.072218 169.625,83.75 C 161.19756,81.715627 151.75,77.875 151,77.25 C 150.25,76.625 146.875,73.375 145.625,72.875 C 144.375,72.375 140.625,72.5 140.625,72.5 z" />
      <path
         id="path30395"
         style="fill:#91899d;fill-opacity:0.40284358;fill-rule:evenodd;stroke:none;stroke-width:1px;stroke-linecap:butt;stroke-linejoin:miter;stroke-opacity:1"
         d="M 139.25,78.625 C 139,80.125 138.375,80.75 139,81.25 C 139.625,81.75 142.5,81.25 142.625,82.125 C 142.75,83 141.375,83.625 141,84.375 C 140.625,85.125 142.625,86 143.375,86 C 144.125,86 145.5,86.375 145.25,84.875 C 145,83.375 144.125,81.375 144.75,80.75 C 145.375,80.125 148.5,80.5 147.625,79.375 C 146.75,78.25 142.25,76.125 140.75,77.375 C 139.25,78.625 139.625,78.625 139.25,78.625 z" />
      <path
         id="path31282"
         style="fill:#91899d;fill-opacity:0.40284358;fill-rule:evenodd;stroke:none;stroke-width:1px;stroke-linecap:butt;stroke-linejoin:miter;stroke-opacity:1;display:inline"
         d="M 139.28919,59.331562 C 139.41419,60.206562 137.9508,60.124455 137.5758,60.874455 C 137.2008,61.624455 139.2008,62.499455 139.9508,62.499455 C 140.7008,62.499455 142.0758,62.874455 141.8258,61.374455 C 141.5758,59.874455 143.35245,59.73061 143.97745,59.10561 C 142.91744,55.104055 142.03743,56.822761 139.28919,59.331562 z" />
      <path
         id="path31284"
         style="fill:#91899d;fill-opacity:0.40284358;fill-rule:evenodd;stroke:none;stroke-width:1px;stroke-linecap:butt;stroke-linejoin:miter;stroke-opacity:1;display:inline"
         d="M 126.30342,52.972055 C 126.18385,53.492138 125.39152,54.37956 124.98236,54.700146 C 124.5732,55.020726 125.64624,56.027707 126.12328,56.222466 C 126.60033,56.417226 127.38959,56.983265 127.57185,56.082419 C 127.7541,55.181572 128.22214,55.336598 128.76187,55.150595 C 129.30161,54.964591 129.71068,54.340998 129.41008,53.486833 C 129.1304,53.06992 127.55849,53.026989 126.30342,52.972055 z" />
      <path
         id="path31286"
         style="fill:#91899d;fill-opacity:0.40284358;fill-rule:evenodd;stroke:none;stroke-width:1px;stroke-linecap:butt;stroke-linejoin:miter;stroke-opacity:1;display:inline"
         d="M 118.51235,58.6554 C 121.95224,60.816941 122.9538,62.730949 125.2111,63.164595 C 124.63997,63.333076 120.55162,64.407679 122.82731,67.45367 C 123.25517,68.02636 127.49993,65.67114 128.47348,65.67114 C 129.44705,65.67114 136.09325,67.877442 135.76873,66.830409 C 135.4442,65.783377 138.14138,66.716939 137.36169,63.098694 C 137.16765,62.198214 132.34442,61.636867 131.2086,60.851591 C 130.42162,60.526583 124.72449,58.341044 118.51235,58.6554 z" />
      <path
         id="path2027"
         style="fill:#465322;fill-opacity:1;fill-rule:evenodd;stroke:#000000;stroke-width:0.5;stroke-linecap:round;stroke-linejoin:round;stroke-miterlimit:4;stroke-dasharray:none;stroke-opacity:1"
         d="M 216.5,109 C 213.5,104.5 210.875,95.375 209.125,95.125 C 207.375,94.875 200.75,98.25 200.75,98.25 C 200.75,98.25 190.25,91.5 191.5,90.5 C 192.75,89.5 197.375,90.625 199.375,87.375 C 200.75855,83.781577 199.79031,78.965243 201.125,75.75 C 202.33153,72.843491 199.78311,70.180542 197.875,65.625 C 198.68416,66.956035 207,77.25 210.5,86.5 C 214,95.75 216.75,108.5 216.5,109 z" />
      <path
         id="path2914"
         style="fill:#6f693f;fill-opacity:1;fill-rule:evenodd;stroke:none;stroke-width:1px;stroke-linecap:butt;stroke-linejoin:miter;stroke-opacity:1"
         d="M 202.25,85.125 C 202.25,86.125 203.25,88.375 203.25,91.125 C 203.25,93.875 204.375,95.875 205.375,95.5 C 206.375,95.125 208.25,94 210,95.125 C 211.75,96.25 214.625,105.25 215.375,106.25 C 216.125,107.25 216.25,104.875 215.75,103.75 C 215.25,102.625 212.5,92.75 212.25,91.5 C 212,90.25 210.625,86.125 209.625,86 C 208.48885,87.029022 203.95517,81.621632 202.25,85.125 z" />
      <path
         id="path4688"
         style="fill:#91899d;fill-opacity:0.40284358;fill-rule:evenodd;stroke:none;stroke-width:1px;stroke-linecap:butt;stroke-linejoin:miter;stroke-opacity:1;display:inline"
         d="M 179.89448,91.425067 C 181.07451,92.717361 181.30742,95.382321 179.9107,94.964979 C 178.51398,94.547642 176.24622,91.878763 174.86554,91.108236 C 173.48485,90.337705 168.64,88.455165 167.48455,88.030221 C 165.24842,87.55109 166.07253,85.240071 169.39092,86.966552 C 170.35818,87.098953 175.03393,87.399747 176.24604,87.985661 C 177.45814,88.571575 179.89448,91.425067 179.89448,91.425067 z" />
      <path
         id="path4690"
         style="fill:#91899d;fill-opacity:0.62085308;fill-rule:evenodd;stroke:none;stroke-width:1px;stroke-linecap:butt;stroke-linejoin:miter;stroke-opacity:1;display:inline"
         d="M 190.19628,64.919475 C 190.94351,65.391587 189.93225,66.45253 190.26016,67.224284 C 190.58806,67.996038 192.5509,67.040589 193.03714,66.469564 C 193.52338,65.89854 194.70034,65.094783 193.39621,64.31264 C 192.09208,63.530498 193.1344,62.08456 193.06375,61.203504 C 189.32987,59.416262 190.06791,61.200547 190.19628,64.919475 z" />
      <path
         id="path4692"
         style="fill:#91899d;fill-opacity:0.40284358;fill-rule:evenodd;stroke:none;stroke-width:1px;stroke-linecap:butt;stroke-linejoin:miter;stroke-opacity:1;display:inline"
         d="M 113.33924,38.07368 C 113.21424,38.94868 114.67763,38.866573 115.05263,39.616573 C 115.42763,40.366573 113.42763,41.241573 112.67763,41.241573 C 111.92763,41.241573 110.55263,41.616573 110.80263,40.116573 C 111.05263,38.616573 109.27598,38.472728 108.65098,37.847728 C 109.71099,33.846173 110.591,35.564879 113.33924,38.07368 z" />
    </g>
    <g
       id="layer8"
       style="display:inline">
      <path
         id="path42055"
         style="fill:none;fill-rule:evenodd;stroke:#000000;stroke-width:0.5;stroke-linecap:round;stroke-linejoin:round;stroke-miterlimit:4;stroke-dasharray:none;stroke-opacity:1"
         d="M 150.25,43 C 185.83034,88.550586 195.35442,147.71724 167.5,198.75 C 157.43961,217.18189 130,223.75 130,223.75" />
      <path
         id="path42942"
         style="fill:none;fill-rule:evenodd;stroke:#000000;stroke-width:0.5;stroke-linecap:round;stroke-linejoin:round;stroke-miterlimit:4;stroke-dasharray:none;stroke-opacity:1"
         d="M 149.5,43.25 C 154.58161,88.842056 146.56686,135.72682 130.75,178.5 C 124.84203,194.4768 118.5,210.75 102.75,223.25" />
      <path
         id="path43829"
         style="fill:none;fill-rule:evenodd;stroke:#000000;stroke-width:0.5;stroke-linecap:round;stroke-linejoin:round;stroke-miterlimit:4;stroke-dasharray:none;stroke-opacity:1"
         d="M 147.78532,43.521248 C 118.56915,78.171016 100.14349,116.84473 82.75,161 C 79.414777,169.46683 71.75,190.5 73.25,212.75" />
      <path
         id="path44716"
         style="fill:none;fill-rule:evenodd;stroke:#000000;stroke-width:0.5;stroke-linecap:round;stroke-linejoin:round;stroke-miterlimit:4;stroke-dasharray:none;stroke-opacity:1"
         d="M 149.07821,42.607035 C 128.45124,41.973151 59.346153,81.462759 45.108388,134.98802 C 34.0572,176.5337 42.872791,183.34977 45.690495,190.07617" />
      <path
         id="path45603"
         style="fill:none;fill-rule:evenodd;stroke:#000000;stroke-width:0.5;stroke-linecap:round;stroke-linejoin:round;stroke-miterlimit:4;stroke-dasharray:none;stroke-opacity:1"
         d="M 149.55308,42.107035 C 103.02744,35.321501 64.157378,55.56719 44.901281,76.023034 C 22.495953,99.824321 21.42031,129.4629 21.42031,129.4629" />
      <path
         id="path46490"
         style="fill:none;fill-rule:evenodd;stroke:#000000;stroke-width:0.5;stroke-linecap:round;stroke-linejoin:round;stroke-miterlimit:4;stroke-dasharray:none;stroke-opacity:1"
         d="M 149,42.75 C 131.25,31.25 100.5,34 96.5,34.25 C 92.5,34.5 73.75,38 68,41.25" />
      <path
         id="path47377"
         style="fill:none;fill-rule:evenodd;stroke:#000000;stroke-width:0.5;stroke-linecap:round;stroke-linejoin:round;stroke-miterlimit:4;stroke-dasharray:none;stroke-opacity:1"
         d="M 149.5,42.75 C 142.25,30 118.125,26.75 110,26.75" />
      <path
         id="path48264"
         style="fill:none;fill-rule:evenodd;stroke:#000000;stroke-width:0.5;stroke-linecap:round;stroke-linejoin:round;stroke-miterlimit:4;stroke-dasharray:none;stroke-opacity:1"
         d="M 150.25,41.75 C 181,50.75 197.375,65.25 207.75,81" />
      <path
         id="path49151"
         style="fill:none;fill-rule:evenodd;stroke:#000000;stroke-width:0.5;stroke-linecap:round;stroke-linejoin:round;stroke-miterlimit:4;stroke-dasharray:none;stroke-opacity:1"
         d="M 117.02618,26.462297 C 98.287842,31.235268 100.40916,39.632161 100.40916,41.753481 C 100.40916,43.874802 102.88404,60.845364 133.64318,72.86618 C 164.40233,84.886995 183.14066,79.937248 186.67619,74.280393 C 190.21172,68.623539 194.80792,65.441559 181.37289,48.117443" />
      <path
         id="path50038"
         style="fill:none;fill-rule:evenodd;stroke:#000000;stroke-width:0.5;stroke-linecap:round;stroke-linejoin:round;stroke-miterlimit:4;stroke-dasharray:none;stroke-opacity:1"
         d="M 87.681241,31.853986 C 60.104076,45.642569 84.456684,69.732835 87.681241,72.512626 C 108.18734,90.190296 133.87931,103.80424 180.66578,105.03954 C 190.8811,105.30925 213.54625,93.018722 204.00031,74.280393" />
      <path
         id="path50925"
         style="fill:none;fill-rule:evenodd;stroke:#000000;stroke-width:0.5;stroke-linecap:round;stroke-linejoin:round;stroke-miterlimit:4;stroke-dasharray:none;stroke-opacity:1"
         d="M 58.676777,47.853553 C 47.265165,63.820621 60.5,82.25 69,90.5 C 75.924747,97.221078 105.5,121.5 145.5,128.5 C 191.78399,136.5997 214,124 215.75,105.25" />
      <path
         id="path51812"
         style="fill:none;fill-rule:evenodd;stroke:#000000;stroke-width:0.5;stroke-linecap:round;stroke-linejoin:round;stroke-miterlimit:4;stroke-dasharray:none;stroke-opacity:1"
         d="M 38,70.5 C 34.75,87 39.070208,100.16279 63,119.5 C 87.75,139.5 144.2134,160.94121 183,156.5 C 215.75,152.75 216.8125,133.625 217.75,130" />
      <path
         id="path52699"
         style="fill:none;fill-rule:evenodd;stroke:#000000;stroke-width:0.5;stroke-linecap:round;stroke-linejoin:round;stroke-miterlimit:4;stroke-dasharray:none;stroke-opacity:1"
         d="M 21.53033,127.35616 C 26.53033,146.60616 44.25,161.75 58.75,171 C 73.25,180.25 114.25,200 148.5,200 C 182.75,200 194.5,190 197.5,187.5" />
      <path
         id="path53586"
         style="fill:none;fill-rule:evenodd;stroke:#000000;stroke-width:0.5;stroke-linecap:round;stroke-linejoin:round;stroke-miterlimit:4;stroke-dasharray:none;stroke-opacity:1"
         d="M 25.825825,154.31326 C 37.325825,180.06326 62.25,192 71.75,196.75 C 81.25,201.5 111.5,213.75 138.75,215 C 166,216.25 182.5,200.75 182.5,200.75" />
      <path
         id="path27736"
         style="fill:none;fill-rule:evenodd;stroke:#000000;stroke-width:0.5;stroke-linecap:round;stroke-linejoin:round;stroke-miterlimit:4;stroke-dasharray:none;stroke-opacity:1"
         d="M 146.5,33.75 C 133.25,31.5 128.85355,35.073223 128.5,38.25 C 128.16817,41.231592 129.09099,47.707107 140.5,53 C 153.48819,59.025512 168,58.25 168.75,56.5" />
    </g>
    <g
       id="layer9"
       style="display:inline">
      <path
         id="path7318"
         style="fill:url(#radialGradient2630);fill-opacity:1;fill-rule:evenodd;stroke:none;stroke-width:1px;stroke-linecap:butt;stroke-linejoin:miter;stroke-opacity:1"
         d="M 165.78858,37.43934 C 185.78858,54.93934 202,92.5 204,122.5 C 206,152.5 191.75,194.5 183.75,200.5 C 175.75,206.5 149.5,228.5 108.5,224 C 67.5,219.5 81.652752,166.93238 96,133 C 111.75,95.75 133.25736,68.347457 139.75736,53.847457 C 146.25736,39.347457 165.78858,36.93934 165.78858,37.43934 z" />
      <path
         id="path9988"
         style="fill:url(#radialGradient2632);fill-opacity:1;fill-rule:evenodd;stroke:none;stroke-width:1px;stroke-linecap:butt;stroke-linejoin:miter;stroke-opacity:1"
         d="M 180.15269,203.57549 C 156.43817,222.7757 117.78787,230.95356 89.656087,220.34211 C 61.524303,209.73067 40.927622,188.7917 31.559619,168.34032 C 27.216296,158.85837 15.596597,129.80663 28.854959,91.867155 C 34.073853,76.933027 35.540065,141.31234 66.686788,160.988 C 97.833512,180.66366 174.10581,167.59513 184.60875,179.5194 C 195.11168,191.44368 190.60774,193.53269 180.15269,203.57549 z" />
      <path
         id="path12647"
         style="opacity:1;fill:url(#radialGradient2634);fill-opacity:1;fill-rule:nonzero;stroke:none;stroke-width:0.5;stroke-linecap:round;stroke-linejoin:round;marker:none;marker-start:none;marker-mid:none;marker-end:none;stroke-miterlimit:4;stroke-dasharray:none;stroke-dashoffset:0;stroke-opacity:1;visibility:visible;display:inline;overflow:visible"
         transform="matrix(0.842982,0.565506,-0.535552,0.798331,52.13784,-29.219)"
         d="M 126.57211,97.084587 C 126.57866,114.75897 105.60315,129.08927 79.726286,129.08927 C 53.849422,129.08927 32.873915,114.75897 32.880463,97.084587 C 32.873915,79.410201 53.849422,65.079908 79.726286,65.079908 C 105.60315,65.079908 126.57866,79.410201 126.57211,97.084587 L 126.57211,97.084587 z" />
    </g>
    <g
       id="layer5"
       style="display:inline">
      <path
         id="path4550"
         style="fill:url(#linearGradient2636);fill-opacity:1;fill-rule:evenodd;stroke:none;stroke-width:0.2;stroke-linecap:butt;stroke-linejoin:miter;stroke-miterlimit:4;stroke-dasharray:none;stroke-opacity:1;display:inline"
         d="M 32.178497,80.560667 C 29.252772,85.759299 27.254003,90.939985 26.218597,94.866953 C 25.276173,98.441269 24.98116,108.46612 31.042076,118.56765 C 37.102992,128.66917 51.870205,141.91578 64.370204,149.95149 C 76.870204,157.98721 108.29878,174.32649 137.40592,178.07649 C 166.51306,181.82649 185.97735,180.39792 196.69163,173.96935 C 207.40592,167.54078 210.77692,163.76739 213.41124,156.23544 C 214.90885,151.95353 216.28688,144.85031 216.28688,144.85031 C 216.28688,144.85031 217.3583,153.04078 214.90592,159.32649 C 213.21839,163.65181 206.33449,179.14792 175.79878,182.00507 C 145.26306,184.86221 107.58449,174.86221 81.691632,162.36221 C 55.798775,149.86221 34.905919,130.34562 29.013061,120.34562 C 23.120204,110.34562 22.509833,97.552575 23.81917,93.098165 C 25.90338,86.007611 30.629178,80.933644 32.178497,80.560667 z" />
    </g>
    <g
       id="layer4"
       style="display:inline">
      <path
         id="path4638"
         style="opacity:1;fill:url(#linearGradient2638);fill-opacity:1;fill-rule:evenodd;stroke:none;stroke-width:0.2;stroke-linecap:butt;stroke-linejoin:miter;stroke-miterlimit:4;stroke-dasharray:none;stroke-opacity:1;display:inline"
         d="M 116.76852,240.23631 C 116.76852,240.23631 142.05979,248.1597 159.65854,254.25218 C 177.01638,260.26126 182.52627,263.53009 185.16489,266.24773 C 190.41865,271.65884 187.27891,277.61479 181.37682,282.15764 C 173.67441,287.08213 157.01873,293.25265 118.98301,293.25265 C 80.947282,293.25265 55.411572,282.03328 53.268715,280.60471 C 51.125858,279.17614 44.340143,275.42614 44.518715,270.03836 C 44.71401,264.14603 50.027508,258.23995 64.045365,254.66853 C 68.93059,253.42389 113.46153,240.84828 116.76852,240.23631 z" />
      <path
         id="path2866"
         style="fill:url(#linearGradient2640);fill-opacity:1;fill-rule:evenodd;stroke:none;stroke-width:0.2;stroke-linecap:butt;stroke-linejoin:miter;stroke-miterlimit:4;stroke-dasharray:none;stroke-opacity:1;display:inline"
         d="M 116.79019,242.73672 C 120.58858,242.73807 120.10507,241.33754 120.10507,241.33754 C 120.10507,241.33754 120.13632,237.07857 120.13632,234.49107 C 116.37032,234.53853 112.03661,233.03897 112.03661,233.03897 C 112.03661,233.03897 112.02295,234.2417 113.38259,234.65114 C 113.40294,236.44452 113.35313,241.10797 113.35313,241.10797 C 113.35313,241.10797 113.02126,242.73537 116.79019,242.73672 z" />
      <path
         id="path6412"
         style="fill:url(#radialGradient2642);fill-opacity:1;fill-rule:evenodd;stroke:none;stroke-width:0.2;stroke-linecap:butt;stroke-linejoin:miter;stroke-miterlimit:4;stroke-dasharray:none;stroke-opacity:1;display:inline"
         d="M 157.25943,30.755918 C 157.25943,30.755918 180.23301,47.538353 195.9473,75.395495 C 211.66158,103.25265 213.98301,133.96693 213.09015,148.78836 C 212.1973,163.60979 206.42261,196.10805 182.91158,216.28836 C 172.1973,225.48479 158.67051,229.45801 153.89373,231.0205 C 159.20623,229.10086 178.98301,220.57408 189.51873,201.82407 C 198.87378,185.17525 206.30444,164.1455 203.98301,136.6455 C 201.66158,109.1455 192.56315,86.167945 179.78658,67.181215 C 169.21712,51.474367 155.78567,40.419989 153.19715,38.399684 C 150.60864,36.379379 147.6508,34.028849 146.82889,33.119361 C 145.4826,31.629627 145.80714,29.588001 146.61585,28.96966 C 148.03544,27.884226 150.30583,28.245763 151.39875,28.401449 C 154.06727,28.78158 157.32256,30.755918 157.25943,30.755918 z" />
      <path
         id="path8186"
         style="fill:url(#linearGradient2644);fill-opacity:1;fill-rule:evenodd;stroke:none;stroke-width:0.2;stroke-linecap:butt;stroke-linejoin:miter;stroke-miterlimit:4;stroke-dasharray:none;stroke-opacity:1;display:inline"
         d="M 145.20073,32.902492 C 143.93804,34.354587 144.31685,35.869815 144.63252,36.248623 C 144.9482,36.62743 153.2239,43.448498 154.61286,44.774323 C 156.00182,46.100148 168.62365,58.156305 173.16933,64.596025 C 177.71502,71.035755 188.8267,88.334615 192.36223,98.688675 C 195.89777,109.04275 200.96122,137.14364 200.19599,148.69123 C 199.06824,165.89362 196.40284,182.02627 187.69028,196.67348 C 178.97771,211.32069 167.86603,221.67476 152.20867,227.23059 C 136.5513,232.78643 118.36856,230.51359 110.28734,228.11448 C 102.20612,225.71537 90.463082,220.15953 90.463082,220.15953 L 79.982752,216.62399 C 79.982752,216.62399 87.306352,223.9476 101.06969,228.49329 C 114.83302,233.03897 130.61666,236.06943 142.73849,233.16524 C 154.86032,230.26105 175.06337,220.79087 186.04878,204.88097 C 197.03419,188.97107 203.60018,161.31814 203.47391,151.21662 C 203.34764,141.11509 199.76395,111.80154 197.02657,102.97802 C 193.74231,92.391725 183.9022,74.697555 177.84129,66.237525 C 171.78037,57.777499 156.37555,42.498942 152.33494,39.089677 C 148.29433,35.680412 145.51641,33.155031 145.20073,32.902492 z" />
      <path
         id="path7299"
         style="fill:url(#linearGradient2646);fill-opacity:1;fill-rule:evenodd;stroke:none;stroke-width:0.2;stroke-linecap:butt;stroke-linejoin:miter;stroke-miterlimit:4;stroke-dasharray:none;stroke-opacity:1;display:inline"
         d="M 146.27543,29.315139 C 145.15936,31.190139 144.8867,32.560017 145.33313,33.408232 C 145.77955,34.256446 159.62333,45.075337 164.26619,50.432479 C 187.13348,76.26845 191.84062,90.257233 198.40563,113.87765 C 205.66506,139.99654 203.74799,173.20576 188.48301,200.03836 C 181.10244,213.01184 164.52752,225.93131 152.52434,229.65752 C 139.80131,233.6072 128.71515,234.62765 116.5723,232.30622 C 104.42944,229.98479 90.084272,223.21779 86.864412,221.19749 C 83.644552,219.17718 80.172152,216.49772 80.172152,216.49772 L 79.098866,215.86638 C 79.098866,215.86638 78.972597,217.12907 79.477673,217.94982 C 79.982752,218.77057 88.864361,224.99337 99.365056,229.12463 C 109.47166,233.10084 120.24049,235.96225 128.17944,235.57407 C 139.62587,235.0205 150.69205,233.67106 160.85801,228.16336 C 174.10801,220.98479 183.3075,212.78494 189.65265,201.91336 C 196.59908,190.01157 205.05444,169.1455 204.6973,144.1455 C 204.34015,119.1455 196.1973,96.145495 187.73301,79.859785 C 184.56488,73.764144 176.02022,59.175831 160.8581,44.961188 C 153.88571,38.424501 148.81603,34.795034 147.37856,33.677 C 145.67393,32.351176 145.84771,30.039468 146.27543,29.315139 z" />
      <path
         id="path5525"
         style="opacity:1;fill:#b6b3a8;fill-opacity:1;fill-rule:nonzero;stroke:none;stroke-width:0.18902269;stroke-linecap:round;stroke-linejoin:round;marker:none;marker-start:none;marker-mid:none;marker-end:none;stroke-miterlimit:4;stroke-dasharray:none;stroke-dashoffset:0;stroke-opacity:1;visibility:visible;display:inline;overflow:visible"
         transform="matrix(1.042374,0.250218,0,1.074012,-7.046941,-40.63915)"
         d="M 158.92858,32.008926 C 158.92858,33.759472 156.57008,35.178571 153.66072,35.178571 C 150.75136,35.178571 148.39286,33.759472 148.39286,32.008926 C 148.39286,30.25838 150.75136,28.839281 153.66072,28.839281 C 156.57008,28.839281 158.92858,30.25838 158.92858,32.008926 z" />
      <path
         id="path2776"
         style="fill:url(#linearGradient2648);fill-opacity:1;fill-rule:evenodd;stroke:none;stroke-width:0.2;stroke-linecap:butt;stroke-linejoin:miter;stroke-miterlimit:4;stroke-dasharray:none;stroke-opacity:1;display:inline"
         d="M 147.1666,39.740231 C 147.1666,39.740231 146.21958,41.94994 146.21958,42.202478 C 146.21958,42.455016 146.91182,43.425394 147.60854,43.907111 C 149.24116,45.035918 151.39661,44.727859 151.58602,44.475321 C 151.77542,44.222783 152.02796,43.654572 152.02796,43.654572 L 147.1666,39.740231 z" />
      <path
         id="path1887"
         style="fill:url(#linearGradient2650);fill-opacity:1;fill-rule:evenodd;stroke:none;stroke-width:0.2;stroke-linecap:butt;stroke-linejoin:miter;stroke-miterlimit:4;stroke-dasharray:none;stroke-opacity:1;display:inline"
         d="M 144.56156,33.714905 C 143.31156,35.143476 143.44549,37.152405 144.07049,37.822047 C 144.69549,38.49169 156.65977,48.714905 159.69548,51.884547 C 162.7312,55.05419 171.48996,64.564081 177.50798,73.893476 C 185.97823,87.024429 193.1687,103.26848 195.84727,118.44705 C 198.52584,133.62563 200.84727,160.60182 192.81156,180.78039 C 184.77584,200.95896 173.13298,214.69706 160.27584,221.48277 C 147.4187,228.26849 126.81116,229.81949 119.20441,228.9292 C 112.998,228.20281 99.229318,222.57448 99.229318,222.57448 L 90.390491,220.30164 C 90.390491,220.30164 102.72445,228.75659 118.00301,230.39809 C 133.28157,232.03958 147.1919,230.96719 161.11882,223.45836 C 174.30621,216.34826 188.05961,202.37143 194.87814,181.28449 C 201.69667,160.19756 201.96294,140.99195 198.53994,122.44311 C 194.90314,102.73571 190.20618,90.749563 180.86227,75.976082 C 171.51836,61.202601 163.90668,53.902788 155.16652,45.292698 C 150.1352,40.336257 145.12813,37.148343 144.62305,36.201325 C 144.11798,35.254307 144.49678,33.865348 144.56156,33.714905 z" />
      <path
         id="path3663"
         style="fill:#31302e;fill-opacity:1;fill-rule:evenodd;stroke:none;stroke-width:0.2;stroke-linecap:butt;stroke-linejoin:miter;stroke-miterlimit:4;stroke-dasharray:none;stroke-opacity:1;display:inline"
         d="M 99.48311,222.76926 C 106.32876,224.75852 123.22169,224.60016 123.22169,224.60016 C 123.22169,224.60016 132.0225,226.009 136.66868,226.04172 C 149.30261,226.13101 151.88296,224.28503 157.51689,222.87208 C 149.40082,226.45914 143.85907,229.54981 124.70439,229.38994 C 113.57309,229.29851 103.02786,225.42485 99.48311,222.76926 z" />
    </g>
    <g
       id="layer6"
       style="display:inline">
      <path
         id="path13595"
         style="fill:url(#radialGradient2652);fill-opacity:1;fill-rule:evenodd;stroke:none;stroke-width:1px;stroke-linecap:butt;stroke-linejoin:miter;stroke-opacity:1"
         d="M 116.62843,242.74337 C 114.94641,242.74549 113.01371,242.07384 113.42619,241.01318 L 56.568543,256.83179 L 49.02607,271.44533 L 97.109331,287.94449 L 184.79057,276.15938 L 171.82695,258.59956 L 120.15042,241.2847 C 120.22407,242.53687 118.29475,242.74128 116.62843,242.74337 z" />
      <path
         id="path14490"
         style="opacity:1;fill:url(#linearGradient2654);fill-opacity:1;fill-rule:evenodd;stroke:none;stroke-width:0.2;stroke-linecap:butt;stroke-linejoin:miter;stroke-miterlimit:4;stroke-dasharray:none;stroke-opacity:1;display:inline"
         d="M 44.84027,267.99479 C 44.65881,268.70728 44.551511,269.43473 44.52777,270.15104 C 44.349198,275.53882 51.134915,279.28497 53.27777,280.71354 C 55.420627,282.14211 80.960792,293.33853 118.99653,293.33854 C 157.03225,293.33854 173.66911,287.16929 181.37153,282.24479 C 185.00392,279.44893 187.58189,276.12346 187.80903,272.71354 C 187.07176,275.62439 184.75039,278.43025 181.62153,280.83854 C 173.91912,285.76302 157.251,291.93229 119.21528,291.93229 C 81.179542,291.93229 55.639377,280.70461 53.49652,279.27604 C 51.353664,277.84748 44.567948,274.10132 44.74652,268.71354 C 44.754556,268.47109 44.814654,268.23712 44.84027,267.99479 z" />
      <path
         id="path17159"
         style="fill:#ffffff;fill-opacity:1;fill-rule:evenodd;stroke:none;stroke-width:0.2;stroke-linecap:butt;stroke-linejoin:miter;stroke-miterlimit:4;stroke-dasharray:none;stroke-opacity:1"
         d="M 44.665578,268.3812 C 44.185799,271.71903 48.310815,278.6446 60.104077,282.8769 C 89.435553,293.40321 121.13013,291.93713 121.13013,291.93713 C 121.13013,291.93713 84.423614,291.92462 57.629203,280.87342 C 48.828779,277.24374 45.498911,271.14428 44.665578,268.3812 z" />
      <path
         id="path23379"
         style="fill:#ffffff;fill-opacity:0.2;fill-rule:evenodd;stroke:none;stroke-width:1px;stroke-linecap:butt;stroke-linejoin:miter;stroke-opacity:1"
         d="M 117.375,237.375 L 117.375,240.625 C 117.375,240.625 117.58333,241.625 118.04167,241.625 C 118.5,241.625 118.66667,240.75 118.66667,240.75 L 118.66667,237.41667 C 118.66667,237.41667 118.625,236.41667 118.0625,236.41667 C 117.6875,236.41667 117.35416,237.08333 117.375,237.375 z" />
      <path
         id="path34920"
         style="fill:#ffffff;fill-opacity:0.43809521;fill-rule:evenodd;stroke:none;stroke-width:1px;stroke-linecap:butt;stroke-linejoin:miter;stroke-opacity:1;display:inline"
         d="M 149.48722,28.760394 C 148.42656,29.879979 148.66226,30.763863 148.83904,31.235267 C 149.01581,31.706672 150.48895,32.885183 150.84251,33.06196 C 151.19606,33.238737 151.49069,33.710141 151.49069,34.004769 C 151.49069,34.299397 151.25498,34.594025 150.96036,34.594025 C 150.66573,34.594025 149.36937,33.945843 148.66226,33.003034 C 147.95515,32.060225 147.6016,30.881714 147.77838,30.174607 C 147.95515,29.467501 149.54614,28.760394 149.48722,28.760394 z" />
      <path
         id="path35808"
         style="fill:#000000;fill-opacity:0.43809521;fill-rule:evenodd;stroke:none;stroke-width:1px;stroke-linecap:butt;stroke-linejoin:miter;stroke-opacity:1;display:inline"
         d="M 158.26003,31.981418 C 158.39775,32.937537 157.90095,34.00001 156.70679,34.625902 C 155.78085,35.11121 153.30747,35.351556 150.87458,34.581966 C 152.54294,35.668134 154.35102,35.84565 155.52845,35.795018 C 156.57356,35.750075 157.58192,35.430695 158.03244,34.85774 C 159.10789,33.490032 158.23278,31.929182 158.26003,31.981418 z" />
    </g>
  </g>
</svg>
