<?xml version="1.0" encoding="UTF-8" standalone="no"?>
<!-- Created with Inkscape (http://www.inkscape.org/) -->
<svg
   xmlns:dc="http://purl.org/dc/elements/1.1/"
   xmlns:cc="http://creativecommons.org/ns#"
   xmlns:rdf="http://www.w3.org/1999/02/22-rdf-syntax-ns#"
   xmlns:svg="http://www.w3.org/2000/svg"
   xmlns="http://www.w3.org/2000/svg"
   xmlns:sodipodi="http://sodipodi.sourceforge.net/DTD/sodipodi-0.dtd"
   xmlns:inkscape="http://www.inkscape.org/namespaces/inkscape"
   id="svg8060"
   sodipodi:version="0.32"
   inkscape:version="0.46"
   width="200.21303"
   height="125.956"
   version="1.0"
   sodipodi:docbase="C:\Documents and Settings\Im\Plocha\12.Elektrospotrebice"
   sodipodi:docname="microwave.svg"
   inkscape:output_extension="org.inkscape.output.svg.inkscape">
  <metadata
     id="metadata8065">
    <rdf:RDF>
      <cc:Work
         rdf:about="">
        <dc:format>image/svg+xml</dc:format>
        <dc:type
           rdf:resource="http://purl.org/dc/dcmitype/StillImage" />
        <dc:title>mikrovlnna trouba</dc:title>
        <dc:subject>
          <rdf:Bag>
            <rdf:li>mikrovlnna trouba</rdf:li>
          </rdf:Bag>
        </dc:subject>
        <dc:creator>
          <cc:Agent>
            <dc:title />
          </cc:Agent>
        </dc:creator>
        <dc:publisher>
          <cc:Agent>
            <dc:title>ZS a MS Machovo nam.</dc:title>
          </cc:Agent>
        </dc:publisher>
        <dc:language>cz</dc:language>
        <cc:license
           rdf:resource="http://creativecommons.org/licenses/publicdomain/" />
      </cc:Work>
      <cc:License
         rdf:about="http://creativecommons.org/licenses/publicdomain/">
        <cc:permits
           rdf:resource="http://creativecommons.org/ns#Reproduction" />
        <cc:permits
           rdf:resource="http://creativecommons.org/ns#Distribution" />
        <cc:permits
           rdf:resource="http://creativecommons.org/ns#DerivativeWorks" />
      </cc:License>
    </rdf:RDF>
  </metadata>
  <defs
     id="defs8063" />
  <sodipodi:namedview
     inkscape:window-height="726"
     inkscape:window-width="1024"
     inkscape:pageshadow="2"
     inkscape:pageopacity="0.0"
     guidetolerance="10.0"
     gridtolerance="10.0"
     objecttolerance="10.0"
     borderopacity="1.0"
     bordercolor="#666666"
     pagecolor="#ffffff"
     id="base"
     inkscape:zoom="0.48271447"
     inkscape:cx="560.42941"
     inkscape:cy="387.39257"
     inkscape:window-x="0"
     inkscape:window-y="25"
     inkscape:current-layer="svg8060"
     showgrid="false" />
  <g
     id="g3222"
     inkscape:export-filename="/media/KINGSTON/inkscape/9.c/J.Murin/elektro/mikrovlnna trouba.png"
     inkscape:export-xdpi="90"
     inkscape:export-ydpi="90"
     transform="matrix(0.2140827,0,0,0.2140827,-10.555364,-24.728823)">
    <path
       sodipodi:nodetypes="cccccccccccccc"
       id="path8069"
       d="M 57.129351,157.70413 L 49.805076,162.83112 L 50.537503,615.47137 L 52.002358,622.06321 L 57.129351,623.52807 L 715.88513,685.78441 L 716.31417,570.06086 L 121.58298,522.45306 L 114.99113,516.59364 L 117.92084,269.03312 L 121.58298,260.24399 L 715.58175,285.14653 L 717.0466,178.2121 L 57.129351,157.70413 z"
       style="fill:#d7d2ce;fill-opacity:1;fill-rule:evenodd;stroke:#000000;stroke-width:1px;stroke-linecap:butt;stroke-linejoin:miter;stroke-opacity:1" />
    <path
       id="path8085"
       d="M 714.70822,285.88329 L 122.22546,259.98806 L 119.11804,267.23873 L 116.01061,517.90451 L 120.15385,522.04775 L 715.74403,569.69496 L 714.70822,285.88329 z"
       style="fill:#000000;fill-opacity:1;fill-rule:evenodd;stroke:#000000;stroke-width:1px;stroke-linecap:butt;stroke-linejoin:miter;stroke-opacity:1" />
    <path
       sodipodi:nodetypes="ccccc"
       id="path8087"
       d="M 145.01326,280.70424 L 601.80504,300.38462 L 601.80504,543.79973 L 142.94164,505.4748 L 145.01326,280.70424 z"
       style="fill:#262932;fill-opacity:1;fill-rule:evenodd;stroke:#000000;stroke-width:1px;stroke-linecap:butt;stroke-linejoin:miter;stroke-opacity:1" />
    <path
       sodipodi:nodetypes="ccccccccccccc"
       id="path8089"
       d="M 717.77903,570.79328 L 863.53212,581.7797 L 869.39154,577.38513 L 867.19426,299.79508 L 859.86998,291.73838 L 715.58175,285.87895 L 718.51146,178.2121 L 881.84281,180.40938 L 887.70223,191.3958 L 886.9698,698.96811 L 877.44824,703.36268 L 715.58175,686.51684 L 717.77903,570.79328 z"
       style="fill:#b4b4b6;fill-opacity:1;fill-rule:evenodd;stroke:#000000;stroke-width:1px;stroke-linecap:butt;stroke-linejoin:miter;stroke-opacity:1" />
    <path
       id="path8091"
       d="M 734.62486,622.06321 L 733.89244,661.6143 L 739.01943,668.93858 L 866.46183,680.65742 L 872.32125,676.26286 L 873.05368,633.04963 L 867.19426,630.11992 L 739.01943,619.1335 L 734.62486,622.06321 z"
       style="fill:none;fill-rule:evenodd;stroke:#000000;stroke-width:1px;stroke-linecap:butt;stroke-linejoin:miter;stroke-opacity:1" />
    <path
       id="path9037"
       d="M 715.74403,286.40119 L 860.7573,291.58024 L 868.00796,301.93833 L 869.04377,576.94562 L 862.82891,582.12467 L 715.22613,570.21286 L 715.74403,286.40119 z"
       style="fill:#181514;fill-opacity:1;fill-rule:evenodd;stroke:#000000;stroke-width:1px;stroke-linecap:butt;stroke-linejoin:miter;stroke-opacity:1" />
    <g
       transform="translate(-9.322254,-3.107425)"
       id="g9039">
      <path
         sodipodi:type="arc"
         style="opacity:1;fill:#999999;fill-opacity:1;stroke:#004100;stroke-width:0;stroke-linecap:butt;stroke-miterlimit:4;stroke-dasharray:none;stroke-dashoffset:0;stroke-opacity:0.41081082"
         id="path9003"
         sodipodi:cx="758.79498"
         sodipodi:cy="325.43005"
         sodipodi:rx="13.549911"
         sodipodi:ry="13.183697"
         d="M 772.34489,325.43005 A 13.549911,13.183697 0 1 1 745.24507,325.43005 A 13.549911,13.183697 0 1 1 772.34489,325.43005 z"
         transform="translate(0,-3.295924)" />
      <path
         transform="translate(81.66568,-1.098641)"
         d="M 772.34489,325.43005 A 13.549911,13.183697 0 1 1 745.24507,325.43005 A 13.549911,13.183697 0 1 1 772.34489,325.43005 z"
         sodipodi:ry="13.183697"
         sodipodi:rx="13.549911"
         sodipodi:cy="325.43005"
         sodipodi:cx="758.79498"
         id="path9005"
         style="opacity:1;fill:#999999;fill-opacity:1;stroke:#004100;stroke-width:0;stroke-linecap:butt;stroke-miterlimit:4;stroke-dasharray:none;stroke-dashoffset:0;stroke-opacity:0.41081082"
         sodipodi:type="arc" />
      <path
         sodipodi:type="arc"
         style="opacity:1;fill:#999999;fill-opacity:1;stroke:#004100;stroke-width:0;stroke-linecap:butt;stroke-miterlimit:4;stroke-dasharray:none;stroke-dashoffset:0;stroke-opacity:0.41081082"
         id="path9007"
         sodipodi:cx="758.79498"
         sodipodi:cy="325.43005"
         sodipodi:rx="13.549911"
         sodipodi:ry="13.183697"
         d="M 772.34489,325.43005 A 13.549911,13.183697 0 1 1 745.24507,325.43005 A 13.549911,13.183697 0 1 1 772.34489,325.43005 z"
         transform="translate(41.01594,-2.197283)" />
      <path
         transform="translate(82.03189,84.9616)"
         d="M 772.34489,325.43005 A 13.549911,13.183697 0 1 1 745.24507,325.43005 A 13.549911,13.183697 0 1 1 772.34489,325.43005 z"
         sodipodi:ry="13.183697"
         sodipodi:rx="13.549911"
         sodipodi:cy="325.43005"
         sodipodi:cx="758.79498"
         id="path9009"
         style="opacity:1;fill:#999999;fill-opacity:1;stroke:#004100;stroke-width:0;stroke-linecap:butt;stroke-miterlimit:4;stroke-dasharray:none;stroke-dashoffset:0;stroke-opacity:0.41081082"
         sodipodi:type="arc" />
      <path
         sodipodi:type="arc"
         style="opacity:1;fill:#999999;fill-opacity:1;stroke:#004100;stroke-width:0;stroke-linecap:butt;stroke-miterlimit:4;stroke-dasharray:none;stroke-dashoffset:0;stroke-opacity:0.41081082"
         id="path9011"
         sodipodi:cx="758.79498"
         sodipodi:cy="325.43005"
         sodipodi:rx="13.549911"
         sodipodi:ry="13.183697"
         d="M 772.34489,325.43005 A 13.549911,13.183697 0 1 1 745.24507,325.43005 A 13.549911,13.183697 0 1 1 772.34489,325.43005 z"
         transform="translate(41.01594,84.22917)" />
      <path
         transform="translate(0.366214,81.66568)"
         d="M 772.34489,325.43005 A 13.549911,13.183697 0 1 1 745.24507,325.43005 A 13.549911,13.183697 0 1 1 772.34489,325.43005 z"
         sodipodi:ry="13.183697"
         sodipodi:rx="13.549911"
         sodipodi:cy="325.43005"
         sodipodi:cx="758.79498"
         id="path9013"
         style="opacity:1;fill:#999999;fill-opacity:1;stroke:#004100;stroke-width:0;stroke-linecap:butt;stroke-miterlimit:4;stroke-dasharray:none;stroke-dashoffset:0;stroke-opacity:0.41081082"
         sodipodi:type="arc" />
      <path
         sodipodi:type="arc"
         style="opacity:1;fill:#999999;fill-opacity:1;stroke:#004100;stroke-width:0;stroke-linecap:butt;stroke-miterlimit:4;stroke-dasharray:none;stroke-dashoffset:0;stroke-opacity:0.41081082"
         id="path9015"
         sodipodi:cx="801.09265"
         sodipodi:cy="357.47375"
         sodipodi:rx="30.945065"
         sodipodi:ry="9.7046652"
         d="M 832.03772,357.47375 A 30.945065,9.7046652 0 1 1 770.14759,357.47375 A 30.945065,9.7046652 0 1 1 832.03772,357.47375 z"
         transform="translate(-0.732428,-4.394565)" />
      <path
         sodipodi:type="arc"
         style="opacity:1;fill:#999999;fill-opacity:1;stroke:#004100;stroke-width:0;stroke-linecap:butt;stroke-miterlimit:4;stroke-dasharray:none;stroke-dashoffset:0;stroke-opacity:0.41081082"
         id="path9017"
         sodipodi:cx="758.79498"
         sodipodi:cy="325.43005"
         sodipodi:rx="13.549911"
         sodipodi:ry="13.183697"
         d="M 772.34489,325.43005 A 13.549911,13.183697 0 1 1 745.24507,325.43005 A 13.549911,13.183697 0 1 1 772.34489,325.43005 z"
         transform="translate(1.831069,200.6852)" />
      <path
         transform="translate(41.38216,202.8825)"
         d="M 772.34489,325.43005 A 13.549911,13.183697 0 1 1 745.24507,325.43005 A 13.549911,13.183697 0 1 1 772.34489,325.43005 z"
         sodipodi:ry="13.183697"
         sodipodi:rx="13.549911"
         sodipodi:cy="325.43005"
         sodipodi:cx="758.79498"
         id="path9019"
         style="opacity:1;fill:#999999;fill-opacity:1;stroke:#004100;stroke-width:0;stroke-linecap:butt;stroke-miterlimit:4;stroke-dasharray:none;stroke-dashoffset:0;stroke-opacity:0.41081082"
         sodipodi:type="arc" />
      <path
         sodipodi:type="arc"
         style="opacity:1;fill:#999999;fill-opacity:1;stroke:#004100;stroke-width:0;stroke-linecap:butt;stroke-miterlimit:4;stroke-dasharray:none;stroke-dashoffset:0;stroke-opacity:0.41081082"
         id="path9021"
         sodipodi:cx="758.79498"
         sodipodi:cy="325.43005"
         sodipodi:rx="13.549911"
         sodipodi:ry="13.183697"
         d="M 772.34489,325.43005 A 13.549911,13.183697 0 1 1 745.24507,325.43005 A 13.549911,13.183697 0 1 1 772.34489,325.43005 z"
         transform="translate(80.93325,205.0798)" />
      <path
         transform="matrix(0.837838,0,0,0.763889,163.6976,200.0687)"
         d="M 772.34489,325.43005 A 13.549911,13.183697 0 1 1 745.24507,325.43005 A 13.549911,13.183697 0 1 1 772.34489,325.43005 z"
         sodipodi:ry="13.183697"
         sodipodi:rx="13.549911"
         sodipodi:cy="325.43005"
         sodipodi:cx="758.79498"
         id="path9023"
         style="opacity:1;fill:#999999;fill-opacity:1;stroke:#004100;stroke-width:0;stroke-linecap:butt;stroke-miterlimit:4;stroke-dasharray:none;stroke-dashoffset:0;stroke-opacity:0.41081082"
         sodipodi:type="arc" />
      <path
         sodipodi:type="arc"
         style="opacity:1;fill:#999999;fill-opacity:1;stroke:#004100;stroke-width:0;stroke-linecap:butt;stroke-miterlimit:4;stroke-dasharray:none;stroke-dashoffset:0;stroke-opacity:0.41081082"
         id="path9025"
         sodipodi:cx="758.79498"
         sodipodi:cy="325.43005"
         sodipodi:rx="13.549911"
         sodipodi:ry="13.183697"
         d="M 772.34489,325.43005 A 13.549911,13.183697 0 1 1 745.24507,325.43005 A 13.549911,13.183697 0 1 1 772.34489,325.43005 z"
         transform="matrix(0.837838,0,0,0.763889,205.446,202.6322)" />
      <path
         sodipodi:type="arc"
         style="opacity:1;fill:#999999;fill-opacity:1;stroke:#004100;stroke-width:0;stroke-linecap:butt;stroke-miterlimit:4;stroke-dasharray:none;stroke-dashoffset:0;stroke-opacity:0.41081082"
         id="path9027"
         sodipodi:cx="758.79498"
         sodipodi:cy="325.43005"
         sodipodi:rx="13.549911"
         sodipodi:ry="13.183697"
         d="M 772.34489,325.43005 A 13.549911,13.183697 0 1 1 745.24507,325.43005 A 13.549911,13.183697 0 1 1 772.34489,325.43005 z"
         transform="matrix(0.837838,0,0,0.763889,122.3154,197.139)" />
      <path
         transform="matrix(1.391892,0,0,0.763889,-297.1824,236.3239)"
         d="M 772.34489,325.43005 A 13.549911,13.183697 0 1 1 745.24507,325.43005 A 13.549911,13.183697 0 1 1 772.34489,325.43005 z"
         sodipodi:ry="13.183697"
         sodipodi:rx="13.549911"
         sodipodi:cy="325.43005"
         sodipodi:cx="758.79498"
         id="path9029"
         style="opacity:1;fill:#999999;fill-opacity:1;stroke:#004100;stroke-width:0;stroke-linecap:butt;stroke-miterlimit:4;stroke-dasharray:none;stroke-dashoffset:0;stroke-opacity:0.41081082"
         sodipodi:type="arc" />
      <path
         sodipodi:type="arc"
         style="opacity:1;fill:#999999;fill-opacity:1;stroke:#004100;stroke-width:0;stroke-linecap:butt;stroke-miterlimit:4;stroke-dasharray:none;stroke-dashoffset:0;stroke-opacity:0.41081082"
         id="path9031"
         sodipodi:cx="758.79498"
         sodipodi:cy="325.43005"
         sodipodi:rx="13.549911"
         sodipodi:ry="13.183697"
         d="M 772.34489,325.43005 A 13.549911,13.183697 0 1 1 745.24507,325.43005 A 13.549911,13.183697 0 1 1 772.34489,325.43005 z"
         transform="matrix(1.391892,0,0,0.763889,-214.4181,241.4509)" />
      <path
         transform="matrix(1.391892,0,0,0.763889,-257.9975,238.155)"
         d="M 772.34489,325.43005 A 13.549911,13.183697 0 1 1 745.24507,325.43005 A 13.549911,13.183697 0 1 1 772.34489,325.43005 z"
         sodipodi:ry="13.183697"
         sodipodi:rx="13.549911"
         sodipodi:cy="325.43005"
         sodipodi:cx="758.79498"
         id="path9033"
         style="opacity:1;fill:#999999;fill-opacity:1;stroke:#004100;stroke-width:0;stroke-linecap:butt;stroke-miterlimit:4;stroke-dasharray:none;stroke-dashoffset:0;stroke-opacity:0.41081082"
         sodipodi:type="arc" />
      <path
         sodipodi:type="spiral"
         style="fill:#b3b3b3;fill-rule:evenodd;stroke:#000000;stroke-width:2.59461069px;stroke-linecap:butt;stroke-linejoin:miter;stroke-opacity:1"
         id="path9035"
         sodipodi:cx="812.62842"
         sodipodi:cy="549.18665"
         sodipodi:expansion="1"
         sodipodi:revolution="3"
         sodipodi:radius="31.877432"
         sodipodi:argument="-18.023529"
         sodipodi:t0="0"
         d="M 812.62842,549.18665 C 813.71174,550.36177 811.57884,551.22671 810.67528,550.9872 C 808.22668,550.33813 807.95812,547.15707 809.02732,545.28036 C 810.93986,541.92338 815.56068,541.70884 818.48784,543.785 C 822.78357,546.83184 822.9408,553.05889 819.83062,556.99921 C 815.68524,562.25104 807.80286,562.34523 802.86271,558.18939 C 796.64604,552.9597 796.61759,543.40141 801.82512,537.4678 C 808.13214,530.2814 819.37692,530.32007 826.30041,536.5828 C 834.45949,543.96321 834.35294,556.90066 827.03282,564.81178 C 818.58144,573.94547 803.94739,573.77059 795.05015,565.39159 C 784.94053,555.87085 785.18404,539.53757 794.62292,529.65523 C 805.21192,518.56875 823.24632,518.88108 834.11297,529.3806 C 846.17702,541.03705 845.79573,560.77395 834.23502,572.62434"
         transform="matrix(0.393248,0,0,0.377737,505.287,355.9567)" />
    </g>
    <path
       id="path9058"
       d="M 56.969496,157.44297 L 879.40186,180.23077 L 884.5809,180.23077 L 889.75995,192.66048 L 886.65252,699.17109 L 984.01857,534.47745 L 984.01857,132.58355 L 976.76791,128.44032 L 291.06233,116.01061 L 56.969496,157.44297 z"
       style="fill:#434750;fill-opacity:1;fill-rule:evenodd;stroke:#000000;stroke-width:1px;stroke-linecap:butt;stroke-linejoin:miter;stroke-opacity:1" />
    <path
       id="path9060"
       d="M 881.47348,184.374 L 977.80371,130.51194"
       style="fill:none;fill-rule:evenodd;stroke:#000000;stroke-width:1px;stroke-linecap:butt;stroke-linejoin:miter;stroke-opacity:1" />
  </g>
</svg>
