<?xml version="1.0" encoding="UTF-8" standalone="no"?>
<!-- Created with Inkscape (http://www.inkscape.org/) --><svg height="141.75000" id="svg1931" version="1.0" width="175.50000" x="0.00000000" xmlns="http://www.w3.org/2000/svg" xmlns:svg="http://www.w3.org/2000/svg" xmlns:xlink="http://www.w3.org/1999/xlink" y="0.00000000">
  <metadata>
    <rdf:RDF xmlns:cc="http://web.resource.org/cc/" xmlns:dc="http://purl.org/dc/elements/1.1/" xmlns:rdf="http://www.w3.org/1999/02/22-rdf-syntax-ns#">
      <cc:Work rdf:about="">
        <dc:title>Lock - Open</dc:title>
        <dc:description></dc:description>
        <dc:subject>
          <rdf:Bag>
            <rdf:li>tools</rdf:li>
            <rdf:li>security</rdf:li>
            <rdf:li>padlock</rdf:li>
          </rdf:Bag>
        </dc:subject>
        <dc:publisher>
          <cc:Agent rdf:about="http://www.openclipart.org/">
            <dc:title>Open Clip Art Library</dc:title>
          </cc:Agent>
        </dc:publisher>
        <dc:creator>
          <cc:Agent>
            <dc:title>Afief Halumi</dc:title>
          </cc:Agent>
        </dc:creator>
        <dc:rights>
          <cc:Agent>
            <dc:title>Afief Halumi</dc:title>
          </cc:Agent>
        </dc:rights>
        <dc:date></dc:date>
        <dc:format>image/svg+xml</dc:format>
        <dc:type rdf:resource="http://purl.org/dc/dcmitype/StillImage"/>
        <cc:license rdf:resource="http://web.resource.org/cc/PublicDomain"/>
        <dc:language>en</dc:language>
      </cc:Work>
      <cc:License rdf:about="http://web.resource.org/cc/PublicDomain">
        <cc:permits rdf:resource="http://web.resource.org/cc/Reproduction"/>
        <cc:permits rdf:resource="http://web.resource.org/cc/Distribution"/>
        <cc:permits rdf:resource="http://web.resource.org/cc/DerivativeWorks"/>
      </cc:License>
    </rdf:RDF>
  </metadata>
  <defs id="defs3">
    <linearGradient id="linearGradient3057">
      <stop id="stop3059" offset="0.00000000" style="stop-color:#282828;stop-opacity:1.0000000"/>
      <stop id="stop3061" offset="1.0000000" style="stop-color:#282828;stop-opacity:0.00000000"/>
    </linearGradient>
    <linearGradient id="linearGradient2834">
      <stop id="stop2836" offset="0.00000000" style="stop-color:#ffe19c;stop-opacity:1.0000000"/>
      <stop id="stop2838" offset="1.0000000" style="stop-color:#b79e4f;stop-opacity:0.00000000"/>
    </linearGradient>
    <linearGradient id="linearGradient2780">
      <stop id="stop2782" offset="0.00000000" style="stop-color:#ffffff;stop-opacity:1.0000000"/>
      <stop id="stop2784" offset="1.0000000" style="stop-color:#ffffff;stop-opacity:0.00000000"/>
    </linearGradient>
    <linearGradient id="linearGradient2713">
      <stop id="stop2715" offset="0.00000000" style="stop-color:#000000;stop-opacity:1.0000000"/>
      <stop id="stop2717" offset="1.0000000" style="stop-color:#ffffff;stop-opacity:1.0000000"/>
    </linearGradient>
    <linearGradient id="linearGradient2701">
      <stop id="stop2703" offset="0.00000000" style="stop-color:#a47c44;stop-opacity:1.0000000"/>
      <stop id="stop2770" offset="0.75000000" style="stop-color:#baa363;stop-opacity:1.0000000"/>
      <stop id="stop2705" offset="1.0000000" style="stop-color:#d6c795;stop-opacity:1.0000000"/>
    </linearGradient>
    <linearGradient gradientTransform="matrix(2.151801,0.000000,0.000000,1.770850,-5.130350e-2,4.351838)" gradientUnits="userSpaceOnUse" id="linearGradient2707" spreadMethod="reflect" x1="29.613848" x2="44.723549" xlink:href="#linearGradient2701" y1="52.608921" y2="52.608921"/>
    <linearGradient gradientTransform="matrix(2.218790,0.000000,0.000000,1.825981,-5.130350e-2,-1.012826)" gradientUnits="userSpaceOnUse" id="linearGradient2732" spreadMethod="reflect" x1="29.093641" x2="29.093641" xlink:href="#linearGradient2713" y1="46.357063" y2="47.295517"/>
    <linearGradient gradientTransform="matrix(2.218790,0.000000,0.000000,1.825981,-5.130350e-2,-1.012826)" gradientUnits="userSpaceOnUse" id="linearGradient2736" spreadMethod="reflect" x1="24.261463" x2="24.605862" xlink:href="#linearGradient2713" y1="44.011002" y2="45.887836"/>
    <radialGradient cx="20.360580" cy="22.546398" fx="20.360580" fy="22.546396" gradientTransform="matrix(0.433337,0.000000,0.000000,1.434961,6.409890,-0.113137)" gradientUnits="userSpaceOnUse" id="radialGradient2811" r="15.156592" xlink:href="#linearGradient2780"/>
    <radialGradient cx="20.360580" cy="22.546398" fx="20.360580" fy="22.546396" gradientTransform="matrix(0.500069,0.000000,0.000000,1.675192,5.002970,-5.108149)" gradientUnits="userSpaceOnUse" id="radialGradient2813" r="15.156592" xlink:href="#linearGradient2780"/>
    <radialGradient cx="20.360580" cy="22.546398" fx="20.360580" fy="22.546396" gradientTransform="matrix(0.621397,0.000000,0.000000,1.882058,2.388831,-9.409409)" gradientUnits="userSpaceOnUse" id="radialGradient2815" r="15.156592" xlink:href="#linearGradient2780"/>
    <radialGradient cx="20.360580" cy="22.546398" fx="20.360580" fy="22.546396" gradientTransform="matrix(0.433337,0.000000,0.000000,1.434961,6.409890,-0.113137)" gradientUnits="userSpaceOnUse" id="radialGradient2817" r="15.156592" xlink:href="#linearGradient2780"/>
    <radialGradient cx="20.360580" cy="22.546398" fx="20.360580" fy="22.546396" gradientTransform="matrix(0.500069,0.000000,0.000000,1.675192,5.002970,-5.108149)" gradientUnits="userSpaceOnUse" id="radialGradient2819" r="15.156592" xlink:href="#linearGradient2780"/>
    <radialGradient cx="20.360580" cy="22.546398" fx="20.360580" fy="22.546396" gradientTransform="matrix(0.621397,0.000000,0.000000,1.882058,2.388831,-9.409409)" gradientUnits="userSpaceOnUse" id="radialGradient2821" r="15.156592" xlink:href="#linearGradient2780"/>
    <radialGradient cx="21.595108" cy="8.9813547" fx="21.595108" fy="8.9813547" gradientTransform="matrix(2.366562,0.000000,0.000000,1.726511,-0.404355,8.570264)" gradientUnits="userSpaceOnUse" id="radialGradient2869" r="6.0678878" xlink:href="#linearGradient2834"/>
    <radialGradient cx="21.595108" cy="8.9813547" fx="21.595108" fy="8.9813547" gradientTransform="matrix(-2.366562,0.000000,0.000000,1.726511,129.1226,8.470165)" gradientUnits="userSpaceOnUse" id="radialGradient2873" r="6.0678878" xlink:href="#linearGradient2834"/>
    <linearGradient gradientTransform="matrix(2.161083,0.000000,0.000000,1.804543,-5.130350e-2,10.85016)" gradientUnits="userSpaceOnUse" id="linearGradient2895" x1="33.184048" x2="33.184048" xlink:href="#linearGradient2780" y1="24.384579" y2="-13.170087"/>
    <linearGradient gradientTransform="matrix(2.210222,0.000000,0.000000,1.964283,-1.515862,6.411766)" gradientUnits="userSpaceOnUse" id="linearGradient2935" x1="33.184048" x2="33.184048" xlink:href="#linearGradient2780" y1="24.384579" y2="-13.170087"/>
    <linearGradient gradientTransform="matrix(1.632005,0.000000,0.000000,2.482509,-5.130350e-2,8.570264)" gradientUnits="userSpaceOnUse" id="linearGradient2943" x1="38.781849" x2="38.781849" xlink:href="#linearGradient2780" y1="9.5745525" y2="7.5863166"/>
    <linearGradient gradientTransform="matrix(1.637520,0.000000,0.000000,2.474150,-5.130350e-2,8.570264)" gradientUnits="userSpaceOnUse" id="linearGradient2951" x1="38.362892" x2="39.723621" xlink:href="#linearGradient2780" y1="11.170151" y2="6.0918369"/>
    <radialGradient cx="21.595108" cy="8.9813547" fx="21.595108" fy="8.9813547" gradientTransform="matrix(3.085042,0.000000,0.000000,2.052895,-15.98480,5.433810)" gradientUnits="userSpaceOnUse" id="radialGradient2955" r="6.0678878" xlink:href="#linearGradient2834"/>
    <radialGradient cx="21.595108" cy="8.9813547" fx="21.595108" fy="8.9813547" gradientTransform="matrix(-2.846279,0.000000,0.000000,2.087943,139.5254,4.996912)" gradientUnits="userSpaceOnUse" id="radialGradient2959" r="6.0678878" xlink:href="#linearGradient2834"/>
    <radialGradient cx="8.0178375" cy="231.98276" fx="8.0178375" fy="231.98276" gradientTransform="matrix(7.531304,0.000000,0.000000,0.537950,-61.70495,14.54111)" gradientUnits="userSpaceOnUse" id="radialGradient3063" r="7.4833150" xlink:href="#linearGradient3057"/>
    <radialGradient cx="8.0178375" cy="231.98276" fx="8.0178375" fy="231.98276" gradientTransform="matrix(7.531304,0.000000,0.000000,0.537950,-48.64373,17.37959)" gradientUnits="userSpaceOnUse" id="radialGradient3069" r="7.4833150" xlink:href="#linearGradient3057"/>
    <radialGradient cx="8.0178375" cy="231.98276" fx="8.0178375" fy="231.98276" gradientTransform="matrix(7.531304,0.000000,0.000000,0.672437,-57.60000,-15.94516)" gradientUnits="userSpaceOnUse" id="radialGradient3071" r="7.4833150" xlink:href="#linearGradient3057"/>
    <linearGradient gradientTransform="matrix(2.136116,0.000000,0.000000,1.825981,2.348697,-1.012826)" gradientUnits="userSpaceOnUse" id="linearGradient3080" spreadMethod="pad" x1="26.974447" x2="26.974447" xlink:href="#linearGradient2780" y1="68.680031" y2="44.981197"/>
    <linearGradient gradientTransform="matrix(1.632005,0.000000,0.000000,2.436073,-5.130350e-2,10.59277)" gradientUnits="userSpaceOnUse" id="linearGradient3084" x1="35.995708" x2="35.995708" xlink:href="#linearGradient2780" y1="1.6246380" y2="11.710631"/>
    <linearGradient gradientTransform="matrix(2.218790,0.000000,0.000000,1.825981,-5.130350e-2,-1.012826)" gradientUnits="userSpaceOnUse" id="linearGradient3086" spreadMethod="reflect" x1="17.681860" x2="17.425413" xlink:href="#linearGradient2713" y1="60.433849" y2="62.779984"/>
  </defs>
  <g id="layer2" transform="translate(61.20117,-7.463557)">
    <path d="M 64.359126,10.583090 C 44.287226,10.583090 28.128259,26.742056 28.128259,46.813957 L 28.128259,87.070475 L 38.192389,87.070475 L 38.192389,46.813957 C 38.192389,32.317584 49.862754,20.647220 64.359126,20.647220 C 78.855498,20.647220 90.525863,32.317584 90.525863,46.813957 L 90.525863,87.070475 L 100.58999,87.070475 L 100.58999,46.813957 C 100.58999,26.742056 84.431026,10.583090 64.359126,10.583090 z " id="rect2723" style="fill:#282828;fill-opacity:1.0000000;fill-rule:evenodd;stroke:none;stroke-width:0.62500000;stroke-linecap:round;stroke-linejoin:round;stroke-miterlimit:4.0000000;stroke-dashoffset:0.00000000;stroke-opacity:1.0000000"/>
    <path d="M 64.359126,13.212344 C 45.402331,13.212344 30.141085,29.518903 30.141085,48.121112 L 30.141085,85.649458 C 30.141085,99.738660 38.917475,111.69914 51.401559,116.69676 C 42.456647,112.62388 36.179563,103.89691 36.179563,93.550162 L 36.179563,46.145936 C 36.179563,31.920717 47.849928,19.524832 62.346300,19.524832 L 66.371952,19.524832 C 80.868324,19.524832 92.538689,31.920717 92.538689,46.145936 L 92.538689,93.550162 C 92.538689,103.89691 86.261604,112.62388 77.316693,116.69676 C 89.800776,111.69914 98.577166,99.738660 98.577166,85.649458 L 98.577166,48.121112 C 98.577166,29.518903 83.315920,13.212344 64.359126,13.212344 z " id="path3082" style="opacity:0.64999998;fill:url(#linearGradient3084);fill-opacity:1.0000000;fill-rule:evenodd;stroke:none;stroke-width:0.62500000;stroke-linecap:round;stroke-linejoin:round;stroke-miterlimit:4.0000000;stroke-dashoffset:0.00000000;stroke-opacity:1.0000000"/>
    <path d="M 64.359126,11.437032 C 44.849100,11.437032 29.142472,27.038064 29.142472,46.416925 L 29.142472,85.512099 C 29.142472,100.18954 38.174990,112.64938 51.023407,117.85564 C 41.817448,113.61272 35.357175,104.52139 35.357175,93.742665 L 35.357175,44.359285 C 35.357175,29.540156 47.368128,15.277013 62.287558,15.277013 L 66.430694,15.277013 C 81.350124,15.277013 93.361077,29.540156 93.361077,44.359285 L 93.361077,93.742665 C 93.361077,104.52139 86.900804,113.61272 77.694844,117.85564 C 90.543262,112.64938 99.575780,100.18954 99.575780,85.512099 L 99.575780,46.416925 C 99.575780,27.038064 83.869152,11.437032 64.359126,11.437032 z " id="path2931" style="opacity:0.49999997;fill:url(#linearGradient2951);fill-opacity:1.0000000;fill-rule:evenodd;stroke:none;stroke-width:0.62500000;stroke-linecap:round;stroke-linejoin:round;stroke-miterlimit:4.0000000;stroke-dashoffset:0.00000000;stroke-opacity:1.0000000"/>
    <path d="M 49.470641,20.586292 C 44.032247,23.991540 40.971920,29.796421 41.571128,31.731435 C 42.216771,33.816391 46.037790,24.497865 56.854306,21.612026 C 65.194873,19.386770 56.853813,15.963321 49.470641,20.586292 z " id="path2861" style="opacity:0.80000001;fill:url(#radialGradient2869);fill-opacity:1.0000000;fill-rule:evenodd;stroke:none;stroke-width:1.0000000px;stroke-linecap:butt;stroke-linejoin:miter;stroke-opacity:1.0000000"/>
    <path d="M 79.247611,20.486194 C 84.686005,23.891442 87.746331,29.696323 87.147123,31.631337 C 86.501481,33.716293 82.680461,24.397767 71.863945,21.511928 C 63.523378,19.286671 71.864438,15.863222 79.247611,20.486194 z " id="path2871" style="opacity:0.80000001;fill:url(#radialGradient2873);fill-opacity:1.0000000;fill-rule:evenodd;stroke:none;stroke-width:1.0000000px;stroke-linecap:butt;stroke-linejoin:miter;stroke-opacity:1.0000000"/>
    <path d="M 64.359126,14.862494 C 45.402331,14.862494 30.141085,27.857162 30.141085,46.813957 L 30.141085,85.057649 C 30.141085,99.415414 38.917475,111.60388 51.401559,116.69676 C 42.456647,112.54624 36.179563,103.65293 36.179563,93.108953 L 36.179563,44.801131 C 36.179563,30.304758 47.849928,18.618841 62.346300,18.618841 L 66.371952,18.618841 C 80.868324,18.618841 92.538689,30.304758 92.538689,44.801131 L 92.538689,93.108953 C 92.538689,103.65293 86.261604,112.54624 77.316693,116.69676 C 89.800776,111.60388 98.577166,99.415414 98.577166,85.057649 L 98.577166,46.813957 C 98.577166,27.857162 83.315920,14.862494 64.359126,14.862494 z " id="rect2875" style="opacity:0.49999997;fill:url(#linearGradient2943);fill-opacity:1.0000000;fill-rule:evenodd;stroke:none;stroke-width:0.62500000;stroke-linecap:round;stroke-linejoin:round;stroke-miterlimit:4.0000000;stroke-dashoffset:0.00000000;stroke-opacity:1.0000000"/>
    <path d="M 64.359126,12.622025 C 37.597412,12.622025 31.421633,35.937277 31.421633,46.482102 C 31.421633,78.116580 33.480224,78.116580 33.480224,46.482102 C 33.480224,23.283486 49.942868,14.127299 64.359126,14.127299 C 78.775384,14.127299 95.238027,24.229884 95.238027,46.482102 C 95.238027,78.116580 97.296619,78.116580 97.296619,46.482102 C 97.296619,35.937277 91.120840,12.622025 64.359126,12.622025 z " id="path2933" style="opacity:0.80000001;fill:url(#linearGradient2935);fill-opacity:1.0000000;fill-rule:evenodd;stroke:none;stroke-width:0.62500000;stroke-linecap:round;stroke-linejoin:round;stroke-miterlimit:4.0000000;stroke-dashoffset:0.00000000;stroke-opacity:1.0000000"/>
    <path d="M 64.359126,15.674427 C 38.192389,15.674427 32.153911,37.974563 32.153911,47.661851 C 32.153911,76.723714 34.166737,76.723714 34.166737,47.661851 C 34.166737,26.349818 50.263376,17.057287 64.359126,17.057287 C 78.454875,17.057287 94.551515,27.219252 94.551515,47.661851 C 94.551515,76.723714 96.564341,76.723714 96.564341,47.661851 C 96.564341,37.974563 90.525863,15.674427 64.359126,15.674427 z " id="path2885" style="opacity:0.60000002;fill:url(#linearGradient2895);fill-opacity:1.0000000;fill-rule:evenodd;stroke:none;stroke-width:0.62500000;stroke-linecap:round;stroke-linejoin:round;stroke-miterlimit:4.0000000;stroke-dashoffset:0.00000000;stroke-opacity:1.0000000"/>
    <path d="M 36.979617,25.070645 C 34.104370,30.318888 40.006680,27.001772 41.377593,25.344458 C 45.231503,20.685423 51.745249,17.308173 57.462695,16.205930 C 62.257428,15.281573 62.988478,13.430217 59.040233,13.123746 C 51.168146,12.512697 39.736027,20.039321 36.979617,25.070645 z " id="path2897" style="opacity:0.80000001;fill:#ffffff;fill-opacity:1.0000000;fill-rule:evenodd;stroke:none;stroke-width:1.0000000px;stroke-linecap:butt;stroke-linejoin:miter;stroke-opacity:1.0000000"/>
    <path d="M 32.623431,33.738728 C 32.928211,36.303495 37.886922,27.940926 41.791152,24.015001 C 46.559495,19.220162 53.787418,15.864200 57.264611,15.420757 C 63.463032,14.630280 60.520985,11.592753 56.635935,12.360183 C 42.515997,15.149352 31.846251,27.198664 32.623431,33.738728 z " id="path2901" style="opacity:0.60000002;fill:#ffffff;fill-opacity:1.0000000;fill-rule:evenodd;stroke:none;stroke-width:1.0000000px;stroke-linecap:butt;stroke-linejoin:miter;stroke-opacity:1.0000000"/>
    <path d="M 91.579935,25.034691 C 94.474486,30.272314 88.560004,26.976949 87.183000,25.324694 C 83.311963,20.679879 76.785826,17.326632 71.064360,16.245446 C 66.266258,15.338747 64.915924,13.493310 68.863013,13.172304 C 76.732798,12.532278 88.805023,20.013549 91.579935,25.034691 z " id="path2909" style="opacity:0.80000001;fill:#ffffff;fill-opacity:1.0000000;fill-rule:evenodd;stroke:none;stroke-width:1.0000000px;stroke-linecap:butt;stroke-linejoin:miter;stroke-opacity:1.0000000"/>
    <path d="M 95.798321,33.507778 C 95.502987,36.073648 90.513520,27.729393 86.594864,23.817869 C 81.808901,19.040617 74.568672,15.711289 71.089869,15.280651 C 64.888580,14.512999 67.797417,11.585495 71.706633,12.218425 C 85.848263,14.519862 96.551418,26.964896 95.798321,33.507778 z " id="path2911" style="opacity:0.60000002;fill:#ffffff;fill-opacity:1.0000000;fill-rule:evenodd;stroke:none;stroke-width:1.0000000px;stroke-linecap:butt;stroke-linejoin:miter;stroke-opacity:1.0000000"/>
    <path d="M 49.032092,19.721371 C 41.942618,23.770353 37.953187,30.672598 38.734312,32.973411 C 39.575969,35.452510 44.557039,24.372395 58.657416,20.941011 C 69.530154,18.295089 58.656774,14.224465 49.032092,19.721371 z " id="path2953" style="opacity:0.40000001;fill:url(#radialGradient2955);fill-opacity:1.0000000;fill-rule:evenodd;stroke:none;stroke-width:1.0000000px;stroke-linecap:butt;stroke-linejoin:miter;stroke-opacity:1.0000000"/>
    <path d="M 79.540422,19.528395 C 86.081213,23.646502 89.761889,30.666588 89.041216,33.006679 C 88.264698,35.528104 83.669133,24.258822 70.660040,20.768857 C 60.628786,18.077762 70.660632,13.937643 79.540422,19.528395 z " id="path2957" style="opacity:0.40000001;fill:url(#radialGradient2959);fill-opacity:1.0000000;fill-rule:evenodd;stroke:none;stroke-width:1.0000000px;stroke-linecap:butt;stroke-linejoin:miter;stroke-opacity:1.0000000"/>
    <path d="M 55.038955,139.33632 C 55.038955,141.55962 29.806115,143.36197 -1.3201724,143.36197 C -32.446459,143.36197 -57.679300,141.55962 -57.679300,139.33632 C -57.679300,137.11301 -32.446459,135.31067 -1.3201724,135.31067 C 29.806115,135.31067 55.038955,137.11301 55.038955,139.33632 L 55.038955,139.33632 z " id="path3055" style="opacity:0.40000001;fill:url(#radialGradient3063);fill-opacity:1.0000000;fill-rule:evenodd;stroke:none;stroke-width:0.62500000;stroke-linecap:round;stroke-linejoin:round;stroke-miterlimit:4.0000000;stroke-dashoffset:0.00000000;stroke-opacity:1.0000000"/>
    <path d="M 59.143915,140.04883 C 59.143915,142.82796 33.911071,145.08089 2.7847836,145.08089 C -28.341503,145.08089 -53.574344,142.82796 -53.574344,140.04883 C -53.574344,137.26969 -28.341503,135.01676 2.7847836,135.01676 C 33.911071,135.01676 59.143915,137.26969 59.143915,140.04883 L 59.143915,140.04883 z " id="path3065" style="opacity:0.40000001;fill:url(#radialGradient3071);fill-opacity:1.0000000;fill-rule:evenodd;stroke:none;stroke-width:0.62500000;stroke-linecap:round;stroke-linejoin:round;stroke-miterlimit:4.0000000;stroke-dashoffset:0.00000000;stroke-opacity:1.0000000"/>
    <path d="M 68.100185,142.17480 C 68.100185,144.39811 42.867335,146.20046 11.741053,146.20046 C -19.385234,146.20046 -44.618075,144.39811 -44.618075,142.17480 C -44.618075,139.95150 -19.385234,138.14915 11.741053,138.14915 C 42.867335,138.14915 68.100185,139.95150 68.100185,142.17480 L 68.100185,142.17480 z " id="path3067" style="opacity:0.40000001;fill:url(#radialGradient3069);fill-opacity:1.0000000;fill-rule:evenodd;stroke:none;stroke-width:0.62500000;stroke-linecap:round;stroke-linejoin:round;stroke-miterlimit:4.0000000;stroke-dashoffset:0.00000000;stroke-opacity:1.0000000"/>
  </g>
  <g id="layer1" transform="translate(0.000000,8.583090)">
    <rect height="66.259109" id="rect1941" rx="0.49999997" ry="0.50000000" style="fill:url(#linearGradient2707);fill-opacity:1.0000000;fill-rule:evenodd;stroke:none;stroke-width:0.62500000;stroke-linecap:round;stroke-linejoin:round;stroke-miterlimit:4.0000000;stroke-dashoffset:0.00000000;stroke-opacity:1.0000000" width="80.513039" x="24.102608" y="57.359127"/>
    <rect height="66.259109" id="rect2709" rx="0.49999997" ry="0.50000000" style="opacity:0.029999973;fill:url(#linearGradient2732);fill-opacity:1.0000000;fill-rule:evenodd;stroke:none;stroke-width:0.62500000;stroke-linecap:round;stroke-linejoin:round;stroke-miterlimit:4.0000000;stroke-dashoffset:0.00000000;stroke-opacity:1.0000000" width="80.513039" x="24.102608" y="57.359127"/>
    <rect height="66.259109" id="rect2734" rx="0.49999997" ry="0.50000000" style="opacity:0.029999973;fill:url(#linearGradient2736);fill-opacity:1.0000000;fill-rule:evenodd;stroke:none;stroke-width:0.62500000;stroke-linecap:round;stroke-linejoin:round;stroke-miterlimit:4.0000000;stroke-dashoffset:0.00000000;stroke-opacity:1.0000000" width="80.513039" x="24.102608" y="57.359127"/>
    <rect height="66.259109" id="rect2738" rx="0.49999997" ry="0.50000000" style="opacity:0.029999973;fill:url(#linearGradient3086);fill-opacity:1.0000000;fill-rule:evenodd;stroke:none;stroke-width:0.62500000;stroke-linecap:round;stroke-linejoin:round;stroke-miterlimit:4.0000000;stroke-dashoffset:0.00000000;stroke-opacity:1.0000000" width="80.513039" x="24.102608" y="57.359127"/>
    <path d="M 26.618640,57.359126 C 28.428730,59.480775 44.763964,61.145360 65.274048,61.145360 C 85.502620,61.145360 101.56730,59.498208 103.75791,57.418285 C 103.72708,57.415066 103.73240,57.359126 103.70072,57.359126 L 26.618640,57.359126 z " id="path2727" style="opacity:0.49999997;fill:#ffffff;fill-opacity:1.0000000;fill-rule:evenodd;stroke:none;stroke-width:0.62500000;stroke-linecap:round;stroke-linejoin:round;stroke-miterlimit:4.0000000;stroke-dashoffset:0.00000000;stroke-opacity:1.0000000"/>
    <g id="g2798" transform="matrix(1.719497,0.000000,0.000000,1.981605,4.420926,1.487591)">
      <path d="M 13.971247,30.766863 C 13.531705,33.396386 13.040370,50.075728 14.667687,53.646863 C 16.259550,57.140196 16.060569,36.980196 19.940738,33.806863 C 23.861905,30.600002 14.385794,28.286863 13.971247,30.766863 z " id="path2778" style="opacity:0.40277776;fill:url(#radialGradient2817);fill-opacity:1.0000000;fill-rule:evenodd;stroke:none;stroke-width:1.0000000px;stroke-linecap:butt;stroke-linejoin:miter;stroke-opacity:1.0000000"/>
      <path d="M 13.728722,30.941568 C 13.221493,34.011307 12.654496,53.482989 14.532410,57.651979 C 16.369410,61.730142 16.139785,38.195094 20.617473,34.490503 C 25.142472,30.746772 14.207108,28.046383 13.728722,30.941568 z " id="path2790" style="opacity:0.29999998;fill:url(#radialGradient2819);fill-opacity:1.0000000;fill-rule:evenodd;stroke:none;stroke-width:1.0000000px;stroke-linecap:butt;stroke-linejoin:miter;stroke-opacity:1.0000000"/>
      <path d="M 13.231668,31.092008 C 12.601372,34.540822 11.896808,56.417020 14.230350,61.100829 C 16.513051,65.682595 16.227713,39.241256 21.791801,35.079193 C 27.414678,30.873157 13.826121,27.839303 13.231668,31.092008 z " id="path2794" style="opacity:0.20000000;fill:url(#radialGradient2821);fill-opacity:1.0000000;fill-rule:evenodd;stroke:none;stroke-width:1.0000000px;stroke-linecap:butt;stroke-linejoin:miter;stroke-opacity:1.0000000"/>
    </g>
    <g id="g2803" transform="matrix(-1.719497,0.000000,0.000000,1.981605,124.2973,1.487605)">
      <path d="M 13.971247,30.766863 C 13.531705,33.396386 13.040370,50.075728 14.667687,53.646863 C 16.259550,57.140196 16.060569,36.980196 19.940738,33.806863 C 23.861905,30.600002 14.385794,28.286863 13.971247,30.766863 z " id="path2805" style="opacity:0.40277776;fill:url(#radialGradient2811);fill-opacity:1.0000000;fill-rule:evenodd;stroke:none;stroke-width:1.0000000px;stroke-linecap:butt;stroke-linejoin:miter;stroke-opacity:1.0000000"/>
      <path d="M 13.728722,30.941568 C 13.221493,34.011307 12.654496,53.482989 14.532410,57.651979 C 16.369410,61.730142 16.139785,38.195094 20.617473,34.490503 C 25.142472,30.746772 14.207108,28.046383 13.728722,30.941568 z " id="path2807" style="opacity:0.29999998;fill:url(#radialGradient2813);fill-opacity:1.0000000;fill-rule:evenodd;stroke:none;stroke-width:1.0000000px;stroke-linecap:butt;stroke-linejoin:miter;stroke-opacity:1.0000000"/>
      <path d="M 13.231668,31.092008 C 12.601372,34.540822 11.896808,56.417020 14.230350,61.100829 C 16.513051,65.682595 16.227713,39.241256 21.791801,35.079193 C 27.414678,30.873157 13.826121,27.839303 13.231668,31.092008 z " id="path2809" style="opacity:0.20000000;fill:url(#radialGradient2815);fill-opacity:1.0000000;fill-rule:evenodd;stroke:none;stroke-width:1.0000000px;stroke-linecap:butt;stroke-linejoin:miter;stroke-opacity:1.0000000"/>
    </g>
    <path d="M 103.11564,114.72466 L 103.11564,122.61182 C 103.11564,123.16937 102.68350,123.61823 102.14673,123.61823 L 26.571520,123.61823 C 26.034743,123.61823 25.602607,123.16937 25.602607,122.61182 L 25.602607,94.596405 C 25.602607,124.11291 103.11564,73.717412 103.11564,114.72466 z " id="rect3077" style="opacity:0.24999996;fill:url(#linearGradient3080);fill-opacity:1.0000000;fill-rule:evenodd;stroke:none;stroke-width:0.62500000;stroke-linecap:round;stroke-linejoin:round;stroke-miterlimit:4.0000000;stroke-dashoffset:0.00000000;stroke-opacity:1.0000000"/>
    <path d="M 25.646537,123.61824 C 27.456628,121.49659 43.791857,119.83200 64.301941,119.83200 C 84.530518,119.83200 100.59520,121.47915 102.78580,123.55908 C 102.75497,123.56230 102.76030,123.61824 102.72862,123.61824 L 25.646537,123.61824 z " id="path2768" style="opacity:0.49999997;fill:#000000;fill-opacity:1.0000000;fill-rule:evenodd;stroke:none;stroke-width:0.62500000;stroke-linecap:round;stroke-linejoin:round;stroke-miterlimit:4.0000000;stroke-dashoffset:0.00000000;stroke-opacity:1.0000000"/>
  </g>
</svg>
