<?xml version="1.0" encoding="UTF-8" standalone="no"?>
<!-- Created with Inkscape (http://www.inkscape.org/) -->

<svg
   xmlns:dc="http://purl.org/dc/elements/1.1/"
   xmlns:cc="http://creativecommons.org/ns#"
   xmlns:rdf="http://www.w3.org/1999/02/22-rdf-syntax-ns#"
   xmlns:svg="http://www.w3.org/2000/svg"
   xmlns="http://www.w3.org/2000/svg"
   xmlns:xlink="http://www.w3.org/1999/xlink"
   xmlns:sodipodi="http://sodipodi.sourceforge.net/DTD/sodipodi-0.dtd"
   xmlns:inkscape="http://www.inkscape.org/namespaces/inkscape"
   width="305.1904"
   height="366.68195"
   id="svg3615"
   sodipodi:version="0.32"
   inkscape:version="0.47pre1 r21720"
   sodipodi:docname="umbrella.svg"
   inkscape:output_extension="org.inkscape.output.svg.inkscape"
   version="1.0"
   inkscape:export-filename="/Users/ceejay/Documents/Websites/Pixabella/Artwork Showcase/Open Clip Art/pixabella_red-umbrella.png"
   inkscape:export-xdpi="90"
   inkscape:export-ydpi="90">
  <defs
     id="defs3">
    <linearGradient
       id="linearGradient6845">
      <stop
         id="stop6847"
         offset="0"
         style="stop-color: rgb(104, 104, 104); stop-opacity: 1;" />
      <stop
         style="stop-color: rgb(228, 212, 212); stop-opacity: 0.498039;"
         offset="0.99999976"
         id="stop6849" />
      <stop
         id="stop6851"
         offset="1"
         style="stop-color: rgb(104, 104, 104); stop-opacity: 0;" />
    </linearGradient>
    <linearGradient
       id="linearGradient4495">
      <stop
         id="stop4503"
         offset="0"
         style="stop-color: rgb(123, 0, 0); stop-opacity: 1;" />
      <stop
         style="stop-color: rgb(123, 0, 0); stop-opacity: 1;"
         offset="1"
         id="stop4499" />
    </linearGradient>
    <filter
       inkscape:collect="always"
       id="filter10798"
       color-interpolation-filters="sRGB">
      <feGaussianBlur
         inkscape:collect="always"
         stdDeviation="1.9112695"
         id="feGaussianBlur10800" />
    </filter>
    <filter
       inkscape:collect="always"
       id="filter10858"
       x="-0.1067488"
       width="1.2134976"
       y="-0.061450582"
       height="1.1229012"
       color-interpolation-filters="sRGB">
      <feGaussianBlur
         inkscape:collect="always"
         stdDeviation="1.6989437"
         id="feGaussianBlur10860" />
    </filter>
    <linearGradient
       inkscape:collect="always"
       xlink:href="#linearGradient4495"
       id="linearGradient4501"
       x1="192.3428"
       y1="568.36047"
       x2="497.5332"
       y2="568.36047"
       gradientUnits="userSpaceOnUse" />
    <linearGradient
       inkscape:collect="always"
       xlink:href="#linearGradient6845"
       id="linearGradient4535"
       gradientUnits="userSpaceOnUse"
       x1="370.06549"
       y1="706.75598"
       x2="507.76657"
       y2="663.39209" />
    <linearGradient
       inkscape:collect="always"
       xlink:href="#linearGradient6845"
       id="linearGradient6853"
       x1="-166.4864"
       y1="182.63748"
       x2="-162.7885"
       y2="175.24997"
       gradientUnits="userSpaceOnUse" />
    <filter
       inkscape:collect="always"
       id="filter7191"
       x="-0.12475162"
       width="1.2495033"
       y="-2.3180735"
       height="5.636147"
       color-interpolation-filters="sRGB">
      <feGaussianBlur
         inkscape:collect="always"
         stdDeviation="13.643294"
         id="feGaussianBlur7193" />
    </filter>
    <filter
       inkscape:collect="always"
       id="filter7231"
       x="-0.060885761"
       width="1.1217715"
       y="-0.26573616"
       height="1.5314723"
       color-interpolation-filters="sRGB">
      <feGaussianBlur
         inkscape:collect="always"
         stdDeviation="15.623948"
         id="feGaussianBlur7233" />
    </filter>
    <linearGradient
       inkscape:collect="always"
       xlink:href="#linearGradient6845"
       id="linearGradient2884"
       gradientUnits="userSpaceOnUse"
       x1="370.06549"
       y1="706.75598"
       x2="507.76657"
       y2="663.39209" />
    <linearGradient
       inkscape:collect="always"
       xlink:href="#linearGradient6845"
       id="linearGradient2886"
       gradientUnits="userSpaceOnUse"
       x1="-166.4864"
       y1="182.63748"
       x2="-162.7885"
       y2="175.24997" />
    <linearGradient
       inkscape:collect="always"
       xlink:href="#linearGradient4495"
       id="linearGradient2888"
       gradientUnits="userSpaceOnUse"
       x1="192.3428"
       y1="568.36047"
       x2="497.5332"
       y2="568.36047" />
  </defs>
  <sodipodi:namedview
     inkscape:document-units="mm"
     id="base"
     pagecolor="#ffffff"
     bordercolor="#666666"
     borderopacity="1.0"
     inkscape:pageopacity="0.0"
     inkscape:pageshadow="2"
     inkscape:zoom="0.98994949"
     inkscape:cx="99.978439"
     inkscape:cy="129.84473"
     inkscape:current-layer="layer1"
     showgrid="false"
     inkscape:window-width="1232"
     inkscape:window-height="759"
     inkscape:window-x="61"
     inkscape:window-y="25"
     inkscape:window-maximized="0" />
  <metadata
     id="metadata4">
    <rdf:RDF>
      <cc:Work
         rdf:about="">
        <dc:format>image/svg+xml</dc:format>
        <dc:type
           rdf:resource="http://purl.org/dc/dcmitype/StillImage" />
        <dc:title />
        <dc:date />
        <dc:creator>
          <cc:Agent>
            <dc:title />
          </cc:Agent>
        </dc:creator>
        <dc:rights>
          <cc:Agent>
            <dc:title />
          </cc:Agent>
        </dc:rights>
        <dc:publisher>
          <cc:Agent>
            <dc:title />
          </cc:Agent>
        </dc:publisher>
        <dc:identifier />
        <dc:source />
        <dc:relation />
        <dc:language />
        <dc:subject>
          <rdf:Bag />
        </dc:subject>
        <dc:coverage />
        <dc:description />
        <dc:contributor>
          <cc:Agent>
            <dc:title />
          </cc:Agent>
        </dc:contributor>
        <cc:license
           rdf:resource="" />
      </cc:Work>
    </rdf:RDF>
  </metadata>
  <g
     inkscape:label="Layer 1"
     inkscape:groupmode="layer"
     id="layer1"
     transform="translate(-192.3428,-452.92915)">
    <path
       style="opacity:0.873016;fill:#8d000f;fill-opacity:1;fill-rule:evenodd;stroke:none;display:inline;filter:url(#filter10798)"
       d="m -182.50001,43.499955 c 0,0 35.0339,24.774591 32.30509,60.877055 0,0 19.09322,-8.795085 22.69491,1.45901 0,0 -6.40678,-52.877047 -55,-62.336065 z"
       id="path11687"
       transform="matrix(2.18966,-1.05604,1.02651,2.12844,658.229,179.686)"
       sodipodi:nodetypes="cccc" />
    <g
       id="g2871">
      <path
         id="path11675"
         d="m 358.15625,598.46875 c -1.46858,-0.0389 -2.84796,0.70273 -3.62542,1.94924 -0.77746,1.24651 -0.83675,2.8115 -0.15583,4.11326 0,0 46.70836,93.36933 63,132.25 l 0,0.0312 c 0,0 6.48574,16.04483 0.84375,28.0625 -2.62341,5.58789 -10.57084,12.35637 -19.375,14.65625 -8.80416,2.29988 -18.00711,0.94737 -25.65625,-8.875 -0.89129,-1.22113 -2.37691,-1.8599 -3.87632,-1.6667 -1.49941,0.1932 -2.77458,1.18771 -3.3272,2.5949 -0.55263,1.40718 -0.29497,3.00366 0.67227,4.16555 9.53323,12.24175 23.03995,14.71777 34.28125,11.78125 11.2413,-2.93652 20.71344,-10.49178 24.78125,-19.15625 7.74033,-16.48723 -0.75,-34.84375 -0.75,-34.84375 -16.64186,-39.71647 -63.1875,-132.71875 -63.1875,-132.71875 -0.67381,-1.39868 -2.073,-2.30333 -3.625,-2.34375 l 0,0 z"
         style="fill:url(#linearGradient2884);fill-opacity:1;fill-rule:evenodd;stroke:none;display:inline" />
      <path
         transform="matrix(-1.56129,0.737262,-0.756191,-1.58944,158.491,863.854)"
         sodipodi:end="3.1415927"
         sodipodi:start="0"
         d="m -163,171.99997 c 0,3.58985 -1.23122,6.5 -2.75,6.5 -1.51878,0 -2.75,-2.91015 -2.75,-6.5 0,0 0,0 0,0 l 2.75,0 z"
         sodipodi:ry="6.5000005"
         sodipodi:rx="2.75"
         sodipodi:cy="171.99997"
         sodipodi:cx="-165.75"
         id="path11677"
         style="fill:url(#linearGradient2886);fill-opacity:1;stroke:#a5a4a4;stroke-width:0.42300001;stroke-linecap:round;stroke-linejoin:miter;stroke-miterlimit:4;stroke-opacity:1;stroke-dasharray:none;stroke-dashoffset:0;display:inline"
         sodipodi:type="arc" />
      <path
         sodipodi:nodetypes="cscccccc"
         id="path11679"
         d="m 209.41268,682.51936 c -38.14117,-79.17005 -4.84235,-174.37918 74.3277,-212.52034 79.17005,-38.14116 174.37918,-4.84235 212.52035,74.3277 0,0 0,0 0,0 -28.56791,1.8456 -38.53558,5.74044 -57.91576,26.63639 -29.42276,0.0732 -59.06057,20.56765 -79.38466,39.50661 -28.78333,1.39889 -63.82804,18.5075 -83.43086,38.94196 -29.10488,0.73211 -47.5123,10.60307 -66.11677,33.10768 z"
         style="fill:url(#linearGradient2888);fill-opacity:1;stroke:#6b0e0e;stroke-width:2.54493999;stroke-linecap:round;stroke-linejoin:miter;stroke-miterlimit:4;stroke-opacity:1;stroke-dasharray:none;stroke-dashoffset:0;display:inline" />
      <path
         sodipodi:nodetypes="cc"
         id="path11681"
         d="m 275.32272,648.95157 c -33.76088,-67.30568 -37.0497,-108.83358 9.14361,-178.67376"
         style="fill:none;stroke:#6b0e0e;stroke-width:2.26620007;stroke-linecap:butt;stroke-linejoin:miter;stroke-miterlimit:4;stroke-opacity:1;stroke-dasharray:none;stroke-dashoffset:0;display:inline" />
      <path
         style="fill:none;stroke:#6b0e0e;stroke-width:2.28060007;stroke-linecap:butt;stroke-linejoin:miter;stroke-miterlimit:4;stroke-opacity:1;stroke-dasharray:none;stroke-dashoffset:0;display:inline"
         d="M 438.19414,570.25355 C 406.38789,518.92717 383.61487,477.15894 286.13929,468.51319"
         id="path11683"
         sodipodi:nodetypes="cc" />
      <path
         sodipodi:nodetypes="cc"
         id="path11685"
         d="M 359.29034,609.92556 C 325.58775,549.09987 311.82537,535.0458 285.80367,467.64139"
         style="fill:none;stroke:#6b0e0e;stroke-width:2.29598999;stroke-linecap:butt;stroke-linejoin:miter;stroke-miterlimit:4;stroke-opacity:1;stroke-dasharray:none;stroke-dashoffset:0;display:inline" />
      <path
         style="opacity:0.873016;fill:#8d000f;fill-opacity:1;fill-rule:evenodd;stroke:none;display:inline;filter:url(#filter10798)"
         d="m -182.50001,43.499955 c 0,0 35.0339,24.774591 32.30509,60.877055 0,0 19.09322,-8.795085 22.69491,1.45901 0,0 -6.40678,-52.877047 -55,-62.336065 z"
         id="path11689"
         transform="matrix(-2.18966,1.05604,1.02651,2.12844,-171.614,579.908)"
         sodipodi:nodetypes="cccc" />
      <path
         sodipodi:nodetypes="cccc"
         id="path11691"
         d="m -229.20712,107.09095 c 0,0 -8.18198,-42.005208 35.59099,-65.414218 0,0 -2.23223,35.363069 2,66.353558 0,0 -16.83363,-7.20711 -37.59099,-0.93934 z"
         style="fill:#8b000d;fill-opacity:1;fill-rule:evenodd;stroke:none;display:inline;filter:url(#filter10858)"
         transform="matrix(2.04121,-0.984444,0.984444,2.04121,639.51,199.681)" />
      <path
         transform="matrix(-1.97804,1.10589,1.10589,1.97804,-139.825,607.451)"
         style="fill:#8b000d;fill-opacity:1;fill-rule:evenodd;stroke:none;display:inline;filter:url(#filter10858)"
         d="m -228.83287,107.42251 c 0,0 -2.55111,-45.533598 34.0833,-66.916918 0,0 0.68211,33.76999 1.06437,65.524658 0,0 -11.2675,-5.9499 -35.14767,1.39226 z"
         id="path11693"
         sodipodi:nodetypes="cccc" />
      <path
         sodipodi:nodetypes="csssc"
         id="path6873"
         d="m 123.57143,260.90039 c 0,30.06429 -4.72,54.46429 -10.53572,54.46429 -5.81571,0 -10.53571,-24.4 -10.53571,-54.46429 0,-30.06429 12.58826,-53.69912 10.53571,-54.46429 -19.123192,-7.12897 10.53572,24.4 10.53572,54.46429 z"
         style="fill:#cccccc;fill-opacity:1;stroke:none;filter:url(#filter7231)"
         transform="matrix(0.0386833,-0.111404,0.465845,0.990888,274.824,440.756)" />
      <path
         sodipodi:nodetypes="csssc"
         id="path7152"
         d="m 150.70906,262.55453 c 0,6.05748 -78.821269,7.56615 -84.201729,7.62949 -54.296862,0.63924 43.739549,-1.60792 68.945809,-7.3271 19.34551,-4.3894 -92.14813,-25.73382 -86.33242,-25.73382 5.81572,0 101.58834,19.37395 101.58834,25.43143 z"
         inkscape:transform-center-y="0.11256307"
         inkscape:transform-center-x="-2.1398933"
         style="fill:#cccccc;fill-opacity:1;stroke:none;filter:url(#filter7191)"
         transform="matrix(0.112323,0.0359287,-0.979119,0.4901,648.489,648.085)" />
    </g>
  </g>
</svg>
