<?xml version="1.0" encoding="UTF-8" standalone="no"?>
<!-- Created with Inkscape (http://www.inkscape.org/) -->
<svg
   xmlns:dc="http://purl.org/dc/elements/1.1/"
   xmlns:cc="http://creativecommons.org/ns#"
   xmlns:rdf="http://www.w3.org/1999/02/22-rdf-syntax-ns#"
   xmlns:svg="http://www.w3.org/2000/svg"
   xmlns="http://www.w3.org/2000/svg"
   xmlns:xlink="http://www.w3.org/1999/xlink"
   xmlns:sodipodi="http://sodipodi.sourceforge.net/DTD/sodipodi-0.dtd"
   xmlns:inkscape="http://www.inkscape.org/namespaces/inkscape"
   width="300.04398"
   height="379.68222"
   id="svg2"
   inkscape:label="Pozadí"
   sodipodi:version="0.32"
   inkscape:version="0.46"
   sodipodi:docbase="C:\Documents and Settings\Im\Plocha\12.Elektrospotrebice"
   sodipodi:docname="Washing-machine.svg"
   version="1.0"
   inkscape:output_extension="org.inkscape.output.svg.inkscape">
  <defs
     id="defs3">
    <linearGradient
       id="linearGradient7319">
      <stop
         style="stop-color:black;stop-opacity:1;"
         offset="0"
         id="stop7321" />
      <stop
         id="stop7337"
         offset="0.18965517"
         style="stop-color:black;stop-opacity:0.49803922;" />
      <stop
         style="stop-color:black;stop-opacity:0;"
         offset="1"
         id="stop7323" />
    </linearGradient>
    <linearGradient
       inkscape:collect="always"
       xlink:href="#linearGradient7319"
       id="linearGradient7345"
       gradientUnits="userSpaceOnUse"
       x1="628.57141"
       y1="488.79068"
       x2="1075.7144"
       y2="488.79068" />
  </defs>
  <sodipodi:namedview
     id="base"
     pagecolor="#ffffff"
     bordercolor="#666666"
     borderopacity="1.0"
     inkscape:pageopacity="0.0"
     inkscape:pageshadow="2"
     inkscape:zoom="0.49497475"
     inkscape:cx="560.83864"
     inkscape:cy="451.00205"
     inkscape:document-units="px"
     inkscape:current-layer="layer1"
     inkscape:window-width="1024"
     inkscape:window-height="726"
     inkscape:window-x="0"
     inkscape:window-y="25"
     showgrid="false" />
  <metadata
     id="metadata6">
    <rdf:RDF>
      <cc:Work
         rdf:about="">
        <dc:format>image/svg+xml</dc:format>
        <dc:type
           rdf:resource="http://purl.org/dc/dcmitype/StillImage" />
        <dc:title>pracka</dc:title>
        <dc:creator>
          <cc:Agent>
            <dc:title />
          </cc:Agent>
        </dc:creator>
        <dc:publisher>
          <cc:Agent>
            <dc:title>ZS a MS Machovo nam.</dc:title>
          </cc:Agent>
        </dc:publisher>
        <dc:language>cz</dc:language>
        <dc:subject>
          <rdf:Bag>
            <rdf:li>pracka</rdf:li>
            <rdf:li>washer</rdf:li>
          </rdf:Bag>
        </dc:subject>
        <cc:license
           rdf:resource="http://creativecommons.org/licenses/publicdomain/" />
      </cc:Work>
      <cc:License
         rdf:about="http://creativecommons.org/licenses/publicdomain/">
        <cc:permits
           rdf:resource="http://creativecommons.org/ns#Reproduction" />
        <cc:permits
           rdf:resource="http://creativecommons.org/ns#Distribution" />
        <cc:permits
           rdf:resource="http://creativecommons.org/ns#DerivativeWorks" />
      </cc:License>
    </rdf:RDF>
  </metadata>
  <g
     inkscape:label="Vrstva 1"
     inkscape:groupmode="layer"
     id="layer1"
     transform="translate(-59.171956,-545.70784)">
    <g
       id="g7361"
       transform="matrix(0.4637153,0,0,0.4637153,-350.50034,520.63052)"
       inkscape:export-filename="/media/KINGSTON/inkscape/9.c/Tomas Krauskopf/vyrobky inscapeu/elektrospotrebice/pracka.png"
       inkscape:export-xdpi="90"
       inkscape:export-ydpi="90">
      <path
         id="path1965"
         d="M 985.71428,153.79075 L 1528.5714,135.21932 L 1530,825.21932 L 985.71428,872.36218 L 985.71428,153.79075 z"
         style="fill:#81848b;fill-opacity:1;fill-rule:evenodd;stroke:#000000;stroke-width:1px;stroke-linecap:butt;stroke-linejoin:miter;stroke-opacity:1" />
      <path
         sodipodi:nodetypes="cccccccccccc"
         id="path1967"
         d="M 985.71428,153.07646 L 1124.2857,149.50503 L 1202.1429,147.36218 L 1350.7143,140.21932 L 1365.7143,140.21932 L 1528.9286,135.21932 L 1528.5714,243.07646 L 1413.5714,253.79075 L 1323.5714,259.50503 L 1169.2857,265.21932 L 985.71428,270.21932 L 985.71428,153.07646 z"
         style="fill:#81848b;fill-opacity:1;fill-rule:evenodd;stroke:#000000;stroke-width:1px;stroke-linecap:butt;stroke-linejoin:miter;stroke-opacity:1" />
      <path
         id="path1969"
         d="M 1045,196.64789 L 1031.4286,195.93361 L 1037.1429,213.07646 L 1055,228.79075 L 1078.5714,240.93361 L 1377.1429,242.36218 L 1373.5714,238.07646 L 1179.2857,234.50503 L 1135.7143,230.21932 L 1102.8571,218.79075 L 1058.5714,203.79075 L 1045,196.64789 z"
         style="fill:#040005;fill-opacity:1;fill-rule:evenodd;stroke:#000000;stroke-width:1px;stroke-linecap:butt;stroke-linejoin:miter;stroke-opacity:1" />
      <path
         id="path1971"
         d="M 1031.0714,196.29075 L 1023.9286,200.93361 L 1023.2143,217.00503 L 1029.6429,227.71932 L 1048.2143,248.43361 L 1056.0714,250.93361 L 1208.5714,246.64789 L 1263.2143,242.00503 L 1216.0714,241.64789 L 1145.7143,240.21932 L 1078.5714,241.29075 L 1055,229.14789 L 1036.7857,212.00503 L 1031.0714,196.29075 z"
         style="fill:#f9f4fb;fill-opacity:1;fill-rule:evenodd;stroke:#000000;stroke-width:1px;stroke-linecap:butt;stroke-linejoin:miter;stroke-opacity:1" />
      <path
         transform="translate(831.4286,-45.71429)"
         d="M 245.35714,229.32646 A 9.4642859,7.6785712 0 1 1 226.42857,229.32646 A 9.4642859,7.6785712 0 1 1 245.35714,229.32646 z"
         sodipodi:ry="7.6785712"
         sodipodi:rx="9.4642859"
         sodipodi:cy="229.32646"
         sodipodi:cx="235.89285"
         id="path1973"
         style="opacity:1;fill:#292929;fill-opacity:1;fill-rule:nonzero;stroke:none;stroke-width:0.69999999;stroke-miterlimit:4;stroke-dasharray:none;stroke-opacity:1"
         sodipodi:type="arc" />
      <path
         id="path1975"
         d="M 1198.9286,207.00503 L 1198.9286,197.36218 L 1217.5,189.50503 L 1246.0714,182.71932 L 1271.0714,182.00503 L 1317.5,182.36218 L 1336.4286,185.57646 L 1349.2857,190.57646 L 1342.1429,201.29075 L 1327.1429,212.71932 L 1303.5714,214.86218 L 1272.8571,215.93361 L 1233.5714,215.57646 L 1212.1429,215.93361 L 1198.9286,207.00503 z"
         style="fill:#f8f7fd;fill-opacity:1;fill-rule:evenodd;stroke:#000000;stroke-width:1px;stroke-linecap:butt;stroke-linejoin:miter;stroke-opacity:1" />
      <path
         sodipodi:nodetypes="cccccc"
         id="path1977"
         d="M 1209.4643,204.50504 L 1227.1429,204.50503 L 1226.0714,199.86218 L 1208.2143,200.21932 L 1209.6429,205.21932 L 1209.4643,204.50504 z"
         style="fill:#030000;fill-opacity:1;fill-rule:evenodd;stroke:#000000;stroke-width:1px;stroke-linecap:butt;stroke-linejoin:miter;stroke-opacity:1" />
      <path
         transform="translate(831.4286,-45.71429)"
         d="M 445.71429,247.00504 A 10.089286,7.6785712 0 1 1 425.53571,247.00504 A 10.089286,7.6785712 0 1 1 445.71429,247.00504 z"
         sodipodi:ry="7.6785712"
         sodipodi:rx="10.089286"
         sodipodi:cy="247.00504"
         sodipodi:cx="435.625"
         id="path1979"
         style="opacity:1;fill:#030000;fill-opacity:1;fill-rule:nonzero;stroke:none;stroke-width:0.69999999;stroke-miterlimit:4;stroke-dasharray:none;stroke-opacity:1"
         sodipodi:type="arc" />
      <path
         transform="translate(878.5714,-47.14286)"
         sodipodi:type="arc"
         style="opacity:1;fill:#030000;fill-opacity:1;fill-rule:nonzero;stroke:none;stroke-width:0.69999999;stroke-miterlimit:4;stroke-dasharray:none;stroke-opacity:1"
         id="path1981"
         sodipodi:cx="435.625"
         sodipodi:cy="247.00504"
         sodipodi:rx="10.089286"
         sodipodi:ry="7.6785712"
         d="M 445.71429,247.00504 A 10.089286,7.6785712 0 1 1 425.53571,247.00504 A 10.089286,7.6785712 0 1 1 445.71429,247.00504 z" />
      <path
         transform="translate(855.1786,-46.42857)"
         d="M 445.71429,247.00504 A 10.089286,7.6785712 0 1 1 425.53571,247.00504 A 10.089286,7.6785712 0 1 1 445.71429,247.00504 z"
         sodipodi:ry="7.6785712"
         sodipodi:rx="10.089286"
         sodipodi:cy="247.00504"
         sodipodi:cx="435.625"
         id="path1983"
         style="opacity:1;fill:#030000;fill-opacity:1;fill-rule:nonzero;stroke:none;stroke-width:0.69999999;stroke-miterlimit:4;stroke-dasharray:none;stroke-opacity:1"
         sodipodi:type="arc" />
      <path
         transform="translate(829.2857,-45.35714)"
         d="M 583.92857,238.96933 A 18.928572,19.107143 0 1 1 546.07143,238.96933 A 18.928572,19.107143 0 1 1 583.92857,238.96933 z"
         sodipodi:ry="19.107143"
         sodipodi:rx="18.928572"
         sodipodi:cy="238.96933"
         sodipodi:cx="565"
         id="path1985"
         style="opacity:1;fill:#55595a;fill-opacity:1;fill-rule:nonzero;stroke:#7f6f6f;stroke-width:2.29999995;stroke-miterlimit:4;stroke-dasharray:none;stroke-opacity:1"
         sodipodi:type="arc" />
      <path
         transform="translate(831.4286,-48.92857)"
         d="M 660.71431,242.00504 A 22.321428,25.357143 0 1 1 616.07146,242.00504 A 22.321428,25.357143 0 1 1 660.71431,242.00504 z"
         sodipodi:ry="25.357143"
         sodipodi:rx="22.321428"
         sodipodi:cy="242.00504"
         sodipodi:cx="638.39288"
         id="path1987"
         style="opacity:1;fill:#55595a;fill-opacity:1;fill-rule:nonzero;stroke:#888282;stroke-width:2.29999995;stroke-miterlimit:4;stroke-dasharray:none;stroke-opacity:1"
         sodipodi:type="arc" />
      <path
         id="path3759"
         d="M 1446.0714,177.36218 L 1453.5714,169.50503 L 1460.3571,165.57646 L 1456.4286,158.07646 L 1448.9286,159.14789 L 1440.7143,167.71932 L 1437.1429,174.14789 L 1446.0714,177.36218 z"
         style="fill:#bbc387;fill-opacity:1;fill-rule:evenodd;stroke:#000000;stroke-width:1px;stroke-linecap:butt;stroke-linejoin:miter;stroke-opacity:1" />
      <path
         id="path3761"
         d="M 1393.0357,160.93361 L 1393.3929,168.96932 L 1402.6786,169.32646 L 1409.2857,171.82646 L 1415.1786,177.71932 L 1417.8571,182.00503 L 1418.75,189.68361 L 1419.6429,195.21932 L 1419.2857,199.86218 L 1415.8929,205.39789 L 1409.6429,213.07646 L 1403.0357,215.21932 L 1394.6429,215.57646 L 1394.4643,223.25503 L 1404.8214,223.25503 L 1410.5357,220.57646 L 1417.8571,215.21932 L 1423.3929,206.82646 L 1426.6071,198.25503 L 1426.7857,185.75503 L 1425.3571,178.96932 L 1420,172.89789 L 1412.6786,165.04075 L 1402.8571,161.29075 L 1393.0357,160.93361 z"
         style="fill:#fefeff;fill-opacity:1;fill-rule:evenodd;stroke:#000000;stroke-width:1px;stroke-linecap:butt;stroke-linejoin:miter;stroke-opacity:1" />
      <path
         id="path3763"
         d="M 1468.2143,161.82646 L 1467.5,150.75503 L 1480.3571,150.9336 L 1489.1071,153.07646 L 1497.6786,158.4336 L 1503.9286,163.79075 L 1508.75,170.04075 L 1511.7857,177.00503 L 1513.3929,185.21932 L 1514.4643,191.29075 L 1514.1071,197.1836 L 1513.3929,202.71932 L 1512.1429,212.1836 L 1507.1429,220.9336 L 1499.6429,229.14789 L 1488.75,234.6836 L 1478.5714,237.1836 L 1472.1429,237.54075 L 1471.6071,226.46932 L 1486.25,222.89789 L 1498.2143,210.39789 L 1500.3571,191.11218 L 1493.2143,173.25503 L 1482.6786,164.32646 L 1475.5357,161.82646 L 1468.2143,161.82646 z"
         style="fill:#fefeff;fill-opacity:1;fill-rule:evenodd;stroke:#000000;stroke-width:1px;stroke-linecap:butt;stroke-linejoin:miter;stroke-opacity:1" />
      <g
         transform="matrix(0.859425,0,0,0.858362,884.0073,12.87336)"
         id="g7339">
        <g
           id="g5539"
           transform="matrix(1,-8.945687e-2,0,1,-417.1429,101.9443)">
          <path
             sodipodi:type="arc"
             style="opacity:1;fill:#030207;fill-opacity:1;fill-rule:nonzero;stroke:none;stroke-width:5.5999999;stroke-miterlimit:4;stroke-dasharray:none;stroke-opacity:1"
             id="path4652"
             sodipodi:cx="529.28571"
             sodipodi:cy="535.2193"
             sodipodi:rx="210.71428"
             sodipodi:ry="187.14285"
             d="M 739.99998,535.2193 A 210.71428,187.14285 0 1 1 318.57143,535.2193 A 210.71428,187.14285 0 1 1 739.99998,535.2193 z"
             transform="matrix(1.061017,0,0,1.072519,290.5617,-85.24219)" />
          <path
             transform="translate(322.8571,-48.57143)"
             d="M 739.99998,535.2193 A 210.71428,187.14285 0 1 1 318.57143,535.2193 A 210.71428,187.14285 0 1 1 739.99998,535.2193 z"
             sodipodi:ry="187.14285"
             sodipodi:rx="210.71428"
             sodipodi:cy="535.2193"
             sodipodi:cx="529.28571"
             id="path3765"
             style="opacity:1;fill:#7a7883;fill-opacity:1;fill-rule:nonzero;stroke:#f9f6f6;stroke-width:5.5999999;stroke-miterlimit:4;stroke-dasharray:none;stroke-opacity:1"
             sodipodi:type="arc" />
        </g>
        <path
           transform="matrix(0.74922,-6.534522e-2,0,0.730466,39.16254,154.5601)"
           d="M 739.99998,535.2193 A 210.71428,187.14285 0 1 1 318.57143,535.2193 A 210.71428,187.14285 0 1 1 739.99998,535.2193 z"
           sodipodi:ry="187.14285"
           sodipodi:rx="210.71428"
           sodipodi:cy="535.2193"
           sodipodi:cx="529.28571"
           id="path5547"
           style="fill:url(#linearGradient7345);fill-opacity:1;fill-rule:nonzero;stroke:#f9f6f6;stroke-width:5.5999999;stroke-miterlimit:4;stroke-dasharray:none;stroke-opacity:1"
           sodipodi:type="arc" />
      </g>
      <path
         id="path7347"
         d="M 985.47683,870.78238 L 889.00727,749.05899 L 885.47173,102.05629 L 984.97176,153.06899 L 985.47683,870.78238 z"
         style="fill:#6f6f6d;fill-opacity:1;fill-rule:evenodd;stroke:#000000;stroke-width:1px;stroke-linecap:butt;stroke-linejoin:miter;stroke-opacity:1" />
      <path
         sodipodi:nodetypes="cccccc"
         id="path7349"
         d="M 985.35714,153.07646 L 986.42857,119.86218 L 897.85714,74.862184 L 885,68.433614 L 885.71429,101.29075 L 985.35714,153.07646 z"
         style="fill:#b7b9b8;fill-opacity:1;fill-rule:evenodd;stroke:#000000;stroke-width:1px;stroke-linecap:butt;stroke-linejoin:miter;stroke-opacity:1" />
      <path
         id="path7351"
         d="M 986.48699,120.23903 L 1503.6851,103.06644 L 1521.8678,103.06644 L 1528.9389,109.12736 L 1529.9491,120.74411 L 1529.9491,134.38117 L 1352.1622,139.93701 L 1219.8322,145.99792 L 1083.4616,149.02838 L 985.47683,152.56392 L 986.48699,120.23903 z"
         style="fill:#f8f9fb;fill-opacity:1;fill-rule:evenodd;stroke:#000000;stroke-width:1px;stroke-linecap:butt;stroke-linejoin:miter;stroke-opacity:1" />
      <path
         id="path7353"
         d="M 987.49714,120.23903 L 883.9565,67.711104 L 1365.2942,54.579124 L 1521.8678,103.06644 L 1418.3272,106.60197 L 1215.7916,113.16797 L 987.49714,120.23903 z"
         style="fill:#b7b9b8;fill-opacity:1;fill-rule:evenodd;stroke:#000000;stroke-width:1px;stroke-linecap:butt;stroke-linejoin:miter;stroke-opacity:1" />
      <path
         id="path7355"
         d="M 933.95797,167.98332 L 935.8115,769.60226 L 929.32414,748.1669 L 925.61707,155.1221 L 933.95797,167.98332 z"
         style="fill:#fafcfd;fill-opacity:1;fill-rule:evenodd;stroke:#000000;stroke-width:0.80556917px;stroke-linecap:butt;stroke-linejoin:miter;stroke-opacity:1" />
      <path
         style="fill:#fafcfd;fill-opacity:1;fill-rule:evenodd;stroke:#000000;stroke-width:0.80105364px;stroke-linecap:butt;stroke-linejoin:miter;stroke-opacity:1"
         d="M 908.24512,143.54594 L 910.09946,738.17594 L 903.60923,716.9896 L 899.90053,130.83413 L 908.24512,143.54594 z"
         id="path7357" />
      <path
         style="fill:#040005;fill-opacity:1;fill-rule:evenodd;stroke:#000000;stroke-width:0.61804521px;stroke-linecap:butt;stroke-linejoin:miter;stroke-opacity:1"
         d="M 958.83885,134.69601 L 959.47668,113.38429 L 906.74878,84.510343 L 899.09473,80.385495 L 899.51996,101.46806 L 958.83885,134.69601 z"
         id="path7359"
         sodipodi:nodetypes="cccccc" />
    </g>
  </g>
</svg>
