<?xml version="1.0" encoding="UTF-8" standalone="no"?>
<!-- Created with Inkscape (http://www.inkscape.org/) -->
<svg
   xmlns:dc="http://purl.org/dc/elements/1.1/"
   xmlns:cc="http://creativecommons.org/ns#"
   xmlns:rdf="http://www.w3.org/1999/02/22-rdf-syntax-ns#"
   xmlns:svg="http://www.w3.org/2000/svg"
   xmlns="http://www.w3.org/2000/svg"
   xmlns:sodipodi="http://sodipodi.sourceforge.net/DTD/sodipodi-0.dtd"
   xmlns:inkscape="http://www.inkscape.org/namespaces/inkscape"
   width="122.41158"
   height="75.380043"
   id="svg2"
   sodipodi:version="0.32"
   inkscape:version="0.46"
   sodipodi:docbase="/home/nicu/Desktop"
   sodipodi:docname="nicubunu_Eye.svg"
   inkscape:output_extension="org.inkscape.output.svg.inkscape"
   version="1.0">
  <defs
     id="defs3" />
  <sodipodi:namedview
     id="base"
     pagecolor="#ffffff"
     bordercolor="#666666"
     borderopacity="1.0"
     inkscape:pageopacity="0.0"
     inkscape:pageshadow="2"
     inkscape:zoom="1"
     inkscape:cx="120"
     inkscape:cy="80"
     inkscape:document-units="px"
     inkscape:current-layer="layer1"
     inkscape:window-width="1152"
     inkscape:window-height="791"
     inkscape:window-x="0"
     inkscape:window-y="25"
     showgrid="false" />
  <metadata
     id="metadata4">
    <rdf:RDF>
      <cc:Work
         rdf:about="">
        <dc:format>image/svg+xml</dc:format>
        <dc:type
           rdf:resource="http://purl.org/dc/dcmitype/StillImage" />
      </cc:Work>
    </rdf:RDF>
  </metadata>
  <g
     inkscape:label="Layer 1"
     inkscape:groupmode="layer"
     id="layer1"
     transform="translate(-4.1121429,-29.484697)">
    <path
       style="fill:#000000;fill-opacity:1;fill-rule:nonzero;stroke:none;stroke-width:1px;stroke-linecap:butt;stroke-linejoin:miter;stroke-opacity:1"
       d="M 69.435046,29.484697 C 65.281772,33.008474 67.666962,37.588428 66.236566,41.348186 C 64.410229,44.663435 59.118643,43.058998 55.796903,44.051363 C 53.650505,42.422039 53.787717,37.745113 51.939077,35.799278 C 50.027691,39.306761 55.387153,45.952001 48.639334,46.535661 C 42.151613,47.639054 47.816747,38.846109 45.641004,35.280399 C 45.143213,36.205747 44.731997,36.55004 44.247499,36.473479 C 45.926149,41.487778 41.922552,49.926916 36.632588,51.019949 C 31.904171,55.10418 32.994793,45.262326 30.391562,42.950131 C 30.845574,42.657494 29.323326,43.653827 29.743719,44.093334 C 32.358007,47.283216 30.90726,51.326088 30.260089,55.45431 C 30.007841,57.41661 23.680786,58.30804 25.492426,59.02274 C 27.52258,58.05868 22.422582,62.41684 20.011287,61.95248 C 20.567969,58.83795 17.365214,56.69819 15.94232,56.01313 C 17.274895,59.67903 19.962413,69.71251 12.778954,68.78563 C 11.405773,66.91454 10.607149,65.12191 7.2745976,63.39054 C 11.750698,69.58361 10.014355,77.68925 5.662624,80.07256 C 11.871275,77.24519 19.488171,64.86228 25.840598,62.2012 C 36.23552,57.09058 47.003844,52.359681 58.378967,49.939298 C 62.122028,49.936468 69.590433,46.459552 69.401416,52.367438 C 71.641276,57.93283 70.556894,64.20497 66.821499,68.86892 C 63.298879,74.26348 57.035381,79.03598 50.295912,76.56014 C 43.830471,74.94403 39.223345,69.26479 38.044024,62.82861 C 38.445951,60.08149 35.407856,56.58944 33.376691,59.36383 C 33.794057,65.00799 36.748403,71.73572 41.141983,75.52624 C 46.629488,80.16164 54.929142,80.39485 60.728838,76.19086 C 67.286559,71.9734 73.468724,65.27657 73.837752,57.12451 C 74.021158,54.25148 70.244266,47.218004 74.68278,49.379994 C 83.745701,50.551497 89.065247,56.15096 92.644092,55.90206 C 95.833922,56.11906 98.93912,55.44699 94.520455,59.13005 C 98.16788,59.1932 90.658064,62.99749 89.87128,65.28717 C 82.312017,74.5782 70.493491,79.17931 59.110833,81.72693 C 50.409933,83.31483 41.422202,83.58325 32.63568,82.65125 C 28.078298,81.03813 23.336987,82.12024 18.851599,83.38384 C 15.282661,84.23148 10.770247,84.83115 8.136915,81.71997 C 3.399067,78.09372 2.4021456,85.35548 7.5465714,85.58922 C 14.200256,87.7722 20.54741,82.85917 27.262653,84.23289 C 30.68735,84.02625 33.830528,85.64974 30.404272,88.78752 C 30.135652,92.59185 30.064,95.92153 29.537748,101.64484 C 32.46732,98.19307 31.178779,92.83891 33.14898,88.70468 C 33.629414,82.90252 42.860288,84.46481 41.835361,90.06081 C 42.783834,94.91323 44.806215,100.10058 42.667228,104.86474 C 49.017771,102.75489 44.291107,94.287 44.061343,89.44692 C 43.21535,86.35906 43.648639,84.08386 47.705873,85.0415 C 50.77751,85.16671 55.635295,82.72428 53.715432,87.40432 C 55.286971,91.57645 56.192606,95.88292 56.092599,100.36315 C 57.639599,97.74691 59.162022,94.23057 57.285298,91.98582 C 55.770329,88.651 55.740115,80.6997 61.608425,83.53616 C 64.944275,85.9883 63.540008,91.00194 64.671286,94.29191 C 68.519454,91.27262 65.197273,86.81278 65.591855,82.91624 C 67.512425,77.13031 76.531192,79.47947 74.917364,85.70433 C 75.020224,88.36404 76.194917,90.84504 76.734436,91.57018 C 78.92544,86.41349 73.259371,78.88446 78.063677,75.30665 C 83.388701,74.37021 86.828209,79.24683 90.430945,82.21517 C 89.497099,79.28512 88.290858,75.77784 85.65869,74.39818 C 79.197203,71.64463 90.964455,69.71539 93.479084,73.25498 C 94.265449,74.29128 93.987253,71.99045 93.645925,71.88552 C 90.368015,71.10693 88.136167,65.72794 93.163099,66.38065 C 98.82612,65.99326 101.76842,72.80936 106.03167,73.75629 C 104.8354,70.77228 100.70547,66.60664 97.625961,64.88043 C 95.924945,64.23991 91.154916,63.87298 95.202249,62.61578 C 99.62662,63.69593 103.51833,64.96707 107.28692,67.4442 C 107.58167,67.43766 106.88416,66.68477 106.87892,66.73437 C 104.5309,65.13155 98.87553,61.03011 99.34059,60.38882 C 103.69348,59.21346 107.85129,61.78632 111.26778,63.01374 C 109.56645,60.32291 106.39171,58.2777 105.27278,58.06671 C 112.11466,57.88553 121.21767,55.6149 126.52372,51.269366 C 121.64883,53.66445 116.70829,56.21288 111.06833,56.21928 C 108.51576,56.3633 102.91656,56.90018 102.46599,56.26503 C 107.91141,53.58159 114.45614,52.447759 118.9575,48.275422 C 109.91543,52.675552 103.86517,53.66398 105.43025,52.523563 C 110.14669,52.218712 116.70145,43.3283 117.76395,41.957954 C 109.91357,47.738455 115.829,40.302624 117.5073,37.909112 C 114.60264,39.796288 112.12382,44.631948 107.5031,44.51745 C 106.27649,42.358462 99.4729,45.735106 96.771833,42.854532 C 97.033931,38.304402 96.898584,38.73147 92.311802,43.381957 C 87.642327,44.365701 89.230739,39.234798 87.844195,37.323798 C 85.337179,39.811857 87.409539,44.723946 81.576256,42.81777 C 76.956965,43.794621 77.863106,37.65002 77.503338,35.249833 C 75.121846,37.412262 78.791251,44.335577 73.072782,42.756497 C 65.858985,44.506384 69.723623,36.053622 68.824341,32.104779 C 68.830148,30.995359 69.508946,30.591777 69.435046,29.484697 z M 53.462015,51.690981 C 48.772721,52.761646 42.060452,58.15587 44.687345,63.25853 C 49.416886,67.75183 59.705945,64.18566 58.831027,57.08145 C 58.194657,54.4944 55.419205,53.17831 53.462015,51.690981 z M 50.490647,53.89275 C 53.223898,57.2508 43.954208,63.27345 48.11327,56.76364 C 48.771086,55.70327 49.616864,54.77682 50.490647,53.89275 z M 54.048136,57.40437 C 53.680974,60.54453 47.14387,63.24451 52.179743,59.54732 C 52.895454,58.92319 53.560082,58.22447 54.048136,57.40437 z M 55.566952,58.72951 C 55.639821,60.89986 52.416707,59.9682 55.397486,58.88611 L 55.566952,58.72951 z M 55.730042,59.8202 C 57.251711,62.71907 50.09012,63.61964 54.387068,61.04479 C 54.856033,60.66084 55.305911,60.25328 55.730042,59.8202 z M 52.447776,61.76713 L 51.666271,62.20123 L 52.447776,61.76713 z"
       id="path1311"
       sodipodi:nodetypes="ccccccccccccccccccccccccccccccccccccccccccccccccccccccccccccccccccccccccccccccccccccccccccccccccccccc" />
  </g>
</svg>
