<?xml version="1.0" encoding="UTF-8" standalone="no"?>
<!-- Created with Inkscape (http://www.inkscape.org/) -->
<svg
   xmlns:dc="http://purl.org/dc/elements/1.1/"
   xmlns:cc="http://creativecommons.org/ns#"
   xmlns:rdf="http://www.w3.org/1999/02/22-rdf-syntax-ns#"
   xmlns:svg="http://www.w3.org/2000/svg"
   xmlns="http://www.w3.org/2000/svg"
   xmlns:sodipodi="http://sodipodi.sourceforge.net/DTD/sodipodi-0.dtd"
   xmlns:inkscape="http://www.inkscape.org/namespaces/inkscape"
   width="679.85107"
   height="273.03406"
   id="svg2"
   sodipodi:version="0.32"
   inkscape:version="0.46"
   version="1.0"
   sodipodi:docname="joanacristina_olhar_-_brown eye.svg"
   sodipodi:docbase="C:\Documents and Settings\Molumen\Desktop"
   inkscape:output_extension="org.inkscape.output.svg.inkscape">
  <defs
     id="defs4">
    <inkscape:perspective
       sodipodi:type="inkscape:persp3d"
       inkscape:vp_x="0 : 136.51703 : 1"
       inkscape:vp_y="0 : 1000 : 0"
       inkscape:vp_z="679.85107 : 136.51703 : 1"
       inkscape:persp3d-origin="339.92554 : 91.011353 : 1"
       id="perspective40" />
    <filter
       inkscape:collect="always"
       x="-0.13315918"
       width="1.2663183"
       y="-0.17460185"
       height="1.3492037"
       id="filter7676">
      <feGaussianBlur
         inkscape:collect="always"
         stdDeviation="4.2217398"
         id="feGaussianBlur7678" />
    </filter>
    <filter
       inkscape:collect="always"
       id="filter7812">
      <feGaussianBlur
         inkscape:collect="always"
         stdDeviation="1.5536207"
         id="feGaussianBlur7814" />
    </filter>
  </defs>
  <sodipodi:namedview
     id="base"
     pagecolor="#ffffff"
     bordercolor="#666666"
     borderopacity="1.0"
     inkscape:pageopacity="0.0"
     inkscape:pageshadow="2"
     inkscape:zoom="1"
     inkscape:cx="387.30514"
     inkscape:cy="181.01782"
     inkscape:document-units="px"
     inkscape:current-layer="g2413"
     width="720px"
     height="380px"
     inkscape:window-width="1440"
     inkscape:window-height="825"
     inkscape:window-x="0"
     inkscape:window-y="25"
     showgrid="false" />
  <metadata
     id="metadata7">
    <rdf:RDF>
      <cc:Work
         rdf:about="">
        <dc:format>image/svg+xml</dc:format>
        <dc:type
           rdf:resource="http://purl.org/dc/dcmitype/StillImage" />
      </cc:Work>
    </rdf:RDF>
  </metadata>
  <g
     inkscape:groupmode="layer"
     id="layer2"
     inkscape:label="contorno do olho"
     style="display:inline"
     transform="translate(-20.71769,-59.43312)" />
  <g
     inkscape:groupmode="layer"
     id="layer3"
     inkscape:label="contorno de dentro do olho"
     style="display:inline"
     transform="translate(-20.71769,-59.43312)" />
  <g
     inkscape:groupmode="layer"
     id="layer4"
     inkscape:label="globo"
     style="display:inline"
     transform="translate(-20.71769,-59.43312)">
    <path
       style="fill:#000000;fill-rule:evenodd;stroke:#000000;stroke-width:1px;stroke-linecap:butt;stroke-linejoin:miter;stroke-opacity:1;display:inline"
       d="M 21.21769,263.49757 C 23.95511,251.14807 58.23854,235.22423 81.38471,223.9849 C 108.02729,177.04847 149.70703,143.56635 193.26557,111.76526 C 141.34334,119.58071 92.4043,136.03223 45.22212,168.67899 C 104.70388,127.13311 166.65096,92.87313 262.03633,88.72875 L 353.50483,88.05121 C 374.87902,82.86651 386.165,71.26204 397.88398,59.93312 C 393.68096,69.28179 391.25579,78.14559 377.55765,90.08384 C 390.48319,86.87859 397.9745,79.79175 404.65943,72.12892 C 400.09139,78.70513 399.54744,84.07411 386.7045,93.13279 L 415.16137,92.79402 C 440.6604,86.67976 459.79365,75.79117 478.173,64.33715 C 467.57559,80.34567 455.43833,88.68539 443.61823,97.8756 C 484.23961,111.00475 511.1778,107.89536 538.13567,89.4063 C 530.83954,96.97221 523.18054,104.53813 509.67881,112.10404 C 535.13755,114.45089 563.60339,99.75757 591.66168,87.37366 C 576.83279,101.9689 563.81093,117.22124 539.49076,128.3651 C 587.63832,141.07734 610.92701,130.84293 636.37961,122.60597 C 625.21636,133.17249 613.9538,143.68935 595.72695,150.72407 C 633.13109,163.50876 652.51508,155.09327 675.33842,150.72407 C 663.27564,160.00507 652.57078,170.02675 630.95926,174.09935 C 656.44387,181.93902 679.99428,184.29846 700.06879,176.80953 C 680.82418,194.47629 658.44442,204.30515 631.97557,203.9113 C 640.44152,214.4415 655.70303,218.55368 680.42,213.7357 C 662.4324,219.96904 644.36096,226.09458 614.02065,216.44587 L 608.93906,224.91518 C 628.40659,232.29727 634.94948,241.52574 642.13874,250.66187 C 629.35209,239.79548 613.79568,235.16106 597.42081,232.36817 C 591.23392,238.54984 588.44031,240.17752 584.54747,242.8701 C 605.74219,251.00063 613.11819,259.13117 622.15118,267.2617 C 606.79351,258.31954 591.43583,252.04942 576.07816,250.32309 L 563.88236,256.75976 C 580.01549,266.30372 588.76594,271.22312 600.13099,286.91049 C 583.80967,276.98536 567.60245,266.95491 539.82954,267.60048 L 513.4053,282.50645 C 523.96922,287.68992 534.10942,293.72083 542.87849,302.49401 C 518.14841,288.89347 493.63677,283.26164 463.94456,295.3798 C 480.199,304.2219 492.17651,316.80632 501.2095,331.96719 C 482.44925,315.46094 462.59139,304.69709 440.23051,300.80015 C 448.74201,307.23682 453.01911,313.6735 456.1528,320.11017 C 438.1599,305.29702 416.21551,300.14306 390.09222,305.20419 C 399.80091,310.83908 406.99588,316.68779 410.75733,325.86929 C 387.19571,305.18242 347.34489,302.3361 305.0604,302.15524 C 250.41802,303.14969 201.74735,293.24691 154.98432,280.47382 C 140.44956,279.0402 133.378,282.27108 125.84991,285.21663 C 106.04771,288.25067 86.29282,290.90625 68.25863,279.79627 C 47.50372,277.94544 24.59082,275.26642 21.21769,263.49757 z"
       id="path2261"
       sodipodi:nodetypes="ccccccccccccccccccccccccccccccccccccccccccccccc" />
    <path
       style="fill:#666666;fill-rule:evenodd;stroke:none;stroke-width:1px;stroke-linecap:butt;stroke-linejoin:miter;stroke-opacity:1;display:inline"
       d="M 81.47075,268.61679 C 91.46394,281.18048 108.45822,283.24252 125.51113,285.21663 C 133.12437,283.09735 135.10802,279.77172 154.30677,280.13505 C 205.44094,293.92122 278.71138,297.49064 365.02308,295.04102 C 451.29106,300.02327 524.47197,273.10578 581.83729,207.6378 C 512.68368,176.06548 448.21909,139.44688 357.57009,131.75282 C 159.82228,106.27279 163.45954,253.48427 81.47075,268.61679 z"
       id="path2265"
       sodipodi:nodetypes="ccccccc" />
    <path
       style="opacity:0.89673899;fill:#999999;fill-opacity:1;fill-rule:evenodd;stroke:none;stroke-width:1px;stroke-linecap:butt;stroke-linejoin:miter;stroke-opacity:1;display:inline"
       d="M 97.73181,264.21275 C 112.63779,266.47123 126.64038,262.85766 139.73957,265.56784 L 204.10629,288.60435 C 195.40427,293.37954 152.35849,277.14819 146.51501,280.47382 L 126.86622,284.53909 C 110.15154,282.73741 92.345,283.84738 80.7932,268.27802 L 97.73181,264.21275 z"
       id="path2272"
       sodipodi:nodetypes="ccccccc" />
    <path
       style="fill:#808080;fill-rule:evenodd;stroke:none;stroke-width:1px;stroke-linecap:butt;stroke-linejoin:miter;stroke-opacity:1;display:inline"
       d="M 133.64167,242.53133 C 189.42777,142.62481 261.36924,126.8406 327.41937,129.38142 C 417.54035,131.3989 492.28036,164.17833 564.55991,201.87867 C 482.41196,329.18882 156.47522,289.64147 133.64167,242.53133 z"
       id="path2278"
       sodipodi:nodetypes="cccc" />
    <path
       style="fill:none;fill-rule:evenodd;stroke:#000000;stroke-width:1px;stroke-linecap:butt;stroke-linejoin:miter;stroke-opacity:1;display:inline"
       d="M 134.99676,241.85379 C 135.2226,241.85379 135.44845,241.85379 134.99676,241.85379 z"
       id="path2276" />
    <path
       style="opacity:0.79891298;fill:#e6e6e6;fill-rule:evenodd;stroke:none;stroke-width:1px;stroke-linecap:butt;stroke-linejoin:miter;stroke-opacity:1;display:inline"
       d="M 153.968,241.17624 C 216.04248,121.98936 475.02344,153.2553 526.61742,228.3029 C 469.70389,322.49626 125.96264,284.75024 153.968,241.17624 z"
       id="path2280"
       sodipodi:nodetypes="ccc" />
    <g
       id="g2413">
      <path
         transform="matrix(1.60987,0,0,1.51329,-128.612,-434.866)"
         d="M 374.00452,417.85684 A 74.529884,68.093216 0 1 1 224.94476,417.85684 A 74.529884,68.093216 0 1 1 374.00452,417.85684 z"
         sodipodi:ry="68.093216"
         sodipodi:rx="74.529884"
         sodipodi:cy="417.85684"
         sodipodi:cx="299.47464"
         id="path2283"
         style="fill:#000000;fill-rule:evenodd;stroke:#000000;stroke-width:1px;stroke-linecap:butt;stroke-linejoin:miter;stroke-opacity:1"
         sodipodi:type="arc" />
      <path
         transform="matrix(2.96492,0,0,3.42532,-751.055,-1270.47)"
         d="M 403.1389,428.3588 A 31.167042,23.714054 0 1 1 340.80482,428.3588 A 31.167042,23.714054 0 1 1 403.1389,428.3588 z"
         sodipodi:ry="23.714054"
         sodipodi:rx="31.167042"
         sodipodi:cy="428.3588"
         sodipodi:cx="371.97186"
         id="path3310"
         style="opacity:1;fill:#504416;fill-opacity:1;stroke:#000000;stroke-opacity:1;filter:url(#filter7676)"
         sodipodi:type="arc" />
      <path
         transform="matrix(1.19633,0,0,1.20137,-123.327,-300.65)"
         d="M 421.43262,408.70999 A 27.101776,26.424232 0 1 1 367.22906,408.70999 A 27.101776,26.424232 0 1 1 421.43262,408.70999 z"
         sodipodi:ry="26.424232"
         sodipodi:rx="27.101776"
         sodipodi:cy="408.70999"
         sodipodi:cx="394.33084"
         id="path4281"
         style="fill:#000000;stroke:none;stroke-opacity:1"
         sodipodi:type="arc" />
      <path
         sodipodi:nodetypes="ccccccc"
         id="path4285"
         d="M 391.78608,157.16074 C 406.31588,163.30875 409.41828,173.26589 413.4675,182.90742 C 427.62875,259.63529 372.79921,271.4156 343.68043,273.02083 C 297.50801,266.26886 252.07099,232.87154 284.05652,163.25864 C 286.47001,156.75408 303.44129,150.24125 311.83584,150.38529 C 278.46971,206.74555 312.97095,231.39731 342.32534,235.75589 C 384.69627,235.44152 408.33926,211.65641 391.78608,157.16074 z"
         style="opacity:0.44021702;fill:#d5fff6;fill-opacity:1;fill-rule:evenodd;stroke:none;stroke-width:1px;stroke-linecap:butt;stroke-linejoin:miter;stroke-opacity:1" />
      <path
         sodipodi:nodetypes="cccc"
         id="path4287"
         d="M 298.96249,157.83828 C 284.1297,199.63703 294.74406,219.80569 315.9011,231.01308 C 356.52805,249.43967 397.12106,232.96939 399.91661,193.74813 C 383.9203,260.09127 274.34191,243.2134 298.96249,157.83828 z"
         style="opacity:1;fill:#d5fff6;fill-opacity:1;fill-rule:evenodd;stroke:none;stroke-width:1px;stroke-linecap:butt;stroke-linejoin:miter;stroke-opacity:1;filter:url(#filter7812)" />
      <g
         transform="matrix(1.0471,0,0,0.813144,-227.066,-21.5052)"
         id="g2246"
         style="opacity:1;fill:#ffffff;stroke:none;display:inline">
        <path
           style="fill:#ffffff;fill-rule:evenodd;stroke:none;stroke-width:0.21862px;stroke-linecap:butt;stroke-linejoin:miter;stroke-opacity:1"
           d="M 508.02224,261.67934 L 498.73818,261.34552 L 485.68247,264.34317 L 498.89643,263.99878 L 508.02224,261.67934 z"
           id="path9108" />
        <g
           style="fill:#ffffff;stroke:none"
           id="g9157">
          <path
             sodipodi:nodetypes="cccccc"
             style="fill:#ffffff;fill-rule:evenodd;stroke:none;stroke-width:0.25210199px;stroke-linecap:butt;stroke-linejoin:miter;stroke-opacity:1"
             d="M 566.73258,306.44537 L 565.55841,315.72442 L 568.49384,328.98017 L 568.70227,324.27396 L 569.08093,315.72442 L 566.73258,306.44537 z"
             id="path9090" />
          <path
             style="fill:#ffffff;fill-rule:evenodd;stroke:none;stroke-width:0.25151199px;stroke-linecap:butt;stroke-linejoin:miter;stroke-opacity:1"
             d="M 532.12249,306.86912 L 527.76792,315.09632 L 525.86447,328.47605 L 531.06481,316.33843 L 532.12249,306.86912 z"
             id="path9092" />
          <path
             id="path9094"
             d="M 544.29582,310.84621 L 543.12144,320.08039 L 546.05737,333.27207 L 546.64455,320.08039 L 544.29582,310.84621 z"
             style="fill:#ffffff;fill-rule:evenodd;stroke:none;stroke-width:0.25151199px;stroke-linecap:butt;stroke-linejoin:miter;stroke-opacity:1" />
          <path
             id="path9084"
             d="M 516.9515,297.18907 L 509.88281,303.24571 L 503.20458,314.99481 L 512.49435,305.6105 L 516.9515,297.18907 z"
             style="fill:#ffffff;fill-rule:evenodd;stroke:none;stroke-width:0.25151199px;stroke-linecap:butt;stroke-linejoin:miter;stroke-opacity:1" />
          <path
             id="path9088"
             d="M 574.2663,299.66507 L 575.23501,308.44817 L 581.58717,318.91778 L 579.029,306.86157 L 574.2663,299.66507 z"
             style="fill:#ffffff;fill-rule:evenodd;stroke:none;stroke-width:0.26035199px;stroke-linecap:butt;stroke-linejoin:miter;stroke-opacity:1" />
          <path
             style="fill:#ffffff;fill-rule:evenodd;stroke:none;stroke-width:0.25151199px;stroke-linecap:butt;stroke-linejoin:miter;stroke-opacity:1"
             d="M 580.72863,291.94055 L 585.38753,299.99933 L 595.71404,308.71731 L 588.19079,297.86531 L 580.72863,291.94055 z"
             id="path9096" />
          <path
             style="fill:#ffffff;fill-rule:evenodd;stroke:none;stroke-width:0.21862px;stroke-linecap:butt;stroke-linejoin:miter;stroke-opacity:1"
             d="M 509.59397,286.63183 L 502.61573,292.76449 L 495.18342,303.90891 L 504.55276,294.5846 L 509.59397,286.63183 z"
             id="path9098" />
          <path
             id="path9100"
             d="M 505.78712,277.56953 L 497.28098,281.42147 L 488.29401,291.72673 L 499.69762,285.08881 L 505.78712,277.56953 z"
             style="fill:#ffffff;fill-rule:evenodd;stroke:none;stroke-width:0.280637px;stroke-linecap:butt;stroke-linejoin:miter;stroke-opacity:1" />
          <path
             style="fill:#ffffff;fill-rule:evenodd;stroke:none;stroke-width:0.21862px;stroke-linecap:butt;stroke-linejoin:miter;stroke-opacity:1"
             d="M 506.39223,251.65549 L 498.29081,247.10881 L 485.31111,243.79753 L 497.21695,249.5402 L 506.39223,251.65549 z"
             id="path9102" />
          <path
             id="path9104"
             d="M 511.41741,238.4071 L 505.32551,231.36878 L 493.54318,224.74935 L 502.97381,233.9921 L 511.41741,238.4071 z"
             style="fill:#ffffff;fill-rule:evenodd;stroke:none;stroke-width:0.25151199px;stroke-linecap:butt;stroke-linejoin:miter;stroke-opacity:1" />
          <path
             style="fill:#ffffff;fill-rule:evenodd;stroke:none;stroke-width:0.193151px;stroke-linecap:butt;stroke-linejoin:miter;stroke-opacity:1"
             d="M 503.02107,273.51427 L 493.69034,273.3899 L 480.83996,275.91136 L 494.05628,275.45106 L 503.02107,273.51427 z"
             id="path9110" />
        </g>
      </g>
    </g>
  </g>
</svg>
