<?xml version="1.0" encoding="UTF-8" standalone="no"?>
<!-- Created with Inkscape (http://www.inkscape.org/) -->

<svg
   xmlns:dc="http://purl.org/dc/elements/1.1/"
   xmlns:cc="http://creativecommons.org/ns#"
   xmlns:rdf="http://www.w3.org/1999/02/22-rdf-syntax-ns#"
   xmlns:svg="http://www.w3.org/2000/svg"
   xmlns="http://www.w3.org/2000/svg"
   xmlns:xlink="http://www.w3.org/1999/xlink"
   xmlns:sodipodi="http://sodipodi.sourceforge.net/DTD/sodipodi-0.dtd"
   xmlns:inkscape="http://www.inkscape.org/namespaces/inkscape"
   width="108.75825"
   height="83.003082"
   id="svg3303"
   version="1.1"
   inkscape:version="0.47pre1 r21720"
   sodipodi:docname="New document 16"
   inkscape:output_extension="org.inkscape.output.svg.inkscape">
  <defs
     id="defs3305">
    <inkscape:perspective
       sodipodi:type="inkscape:persp3d"
       inkscape:vp_x="0 : 526.18109 : 1"
       inkscape:vp_y="0 : 1000 : 0"
       inkscape:vp_z="744.09448 : 526.18109 : 1"
       inkscape:persp3d-origin="372.04724 : 350.78739 : 1"
       id="perspective3311" />
    <inkscape:perspective
       id="perspective3282"
       inkscape:persp3d-origin="0.5 : 0.33333333 : 1"
       inkscape:vp_z="1 : 0.5 : 1"
       inkscape:vp_y="0 : 1000 : 0"
       inkscape:vp_x="0 : 0.5 : 1"
       sodipodi:type="inkscape:persp3d" />
    <linearGradient
       inkscape:collect="always"
       xlink:href="#linearGradient3093"
       id="linearGradient3256"
       gradientUnits="userSpaceOnUse"
       x1="261.47604"
       y1="301.41296"
       x2="301.46594"
       y2="389.20801" />
    <linearGradient
       id="linearGradient3093">
      <stop
         style="stop-color: rgb(87, 102, 25); stop-opacity: 1;"
         offset="0"
         id="stop3095" />
      <stop
         style="stop-color: rgb(136, 170, 0); stop-opacity: 0;"
         offset="1"
         id="stop3097" />
    </linearGradient>
    <radialGradient
       inkscape:collect="always"
       xlink:href="#linearGradient3186"
       id="radialGradient3258"
       gradientUnits="userSpaceOnUse"
       gradientTransform="matrix(1,0,0,1.10574,0,-35.9386)"
       cx="275.98511"
       cy="345.18579"
       fx="275.98511"
       fy="345.18579"
       r="14.166193" />
    <linearGradient
       id="linearGradient3186">
      <stop
         id="stop3188"
         offset="0"
         style="stop-color: rgb(94, 113, 14); stop-opacity: 0.807843;" />
      <stop
         id="stop3190"
         offset="1"
         style="stop-color: rgb(55, 64, 13); stop-opacity: 1;" />
    </linearGradient>
  </defs>
  <sodipodi:namedview
     id="base"
     pagecolor="#ffffff"
     bordercolor="#666666"
     borderopacity="1.0"
     inkscape:pageopacity="0.0"
     inkscape:pageshadow="2"
     inkscape:zoom="0.35"
     inkscape:cx="195.0934"
     inkscape:cy="-152.78417"
     inkscape:document-units="px"
     inkscape:current-layer="layer1"
     showgrid="false"
     inkscape:window-width="1440"
     inkscape:window-height="826"
     inkscape:window-x="0"
     inkscape:window-y="25"
     inkscape:window-maximized="1" />
  <metadata
     id="metadata3308">
    <rdf:RDF>
      <cc:Work
         rdf:about="">
        <dc:format>image/svg+xml</dc:format>
        <dc:type
           rdf:resource="http://purl.org/dc/dcmitype/StillImage" />
        <dc:title></dc:title>
      </cc:Work>
    </rdf:RDF>
  </metadata>
  <g
     inkscape:label="Layer 1"
     inkscape:groupmode="layer"
     id="layer1"
     transform="translate(-179.9066,-296.57493)">
    <g
       style="display:inline"
       id="g3235"
       transform="translate(-197.69311,5.2562443)">
      <g
         id="use3141"
         transform="matrix(-1,0,0,1,688.679,-0.610209)">
        <path
           transform="matrix(1.07411,0,0,2.07403,-20.4239,-355.584)"
           style="fill:#ffffff;fill-opacity:1;fill-rule:nonzero;stroke:none"
           d="m 308.63058,333.9444 c -10.67457,9.41287 -20.88209,18.41405 -49.28335,17.89239 -32.49723,-0.59592 -47.37636,-12.55343 -48.42288,-23.58097 12.5118,-4.50678 20.48674,-12.99874 48.42288,-12.99874 27.93614,0 40.81812,12.2802 49.28335,18.68732 z"
           id="path8186"
           sodipodi:nodetypes="cscsc" />
        <path
           transform="translate(-14.2633,0.177154)"
           d="m 307.66613,335.85196 c 0,21.2463 -15.13582,38.46982 -33.80682,38.46982 -18.67099,0 -33.80682,-17.22352 -33.80682,-38.46982 0,-21.2463 15.13583,-38.46983 33.80682,-38.46983 18.671,0 33.80682,17.22353 33.80682,38.46983 z"
           sodipodi:ry="38.469826"
           sodipodi:rx="33.80682"
           sodipodi:cy="335.85196"
           sodipodi:cx="273.85931"
           id="path8188"
           style="fill:url(#linearGradient3256);fill-opacity:1;fill-rule:nonzero;stroke:none"
           sodipodi:type="arc" />
        <path
           transform="translate(-17.0417,-3.98437)"
           d="m 289.97414,339.88278 c 0,8.5532 -6.26311,15.48694 -13.98903,15.48694 -7.72593,0 -13.98903,-6.93374 -13.98903,-15.48694 0,-8.5532 6.2631,-15.48693 13.98903,-15.48693 7.72592,0 13.98903,6.93373 13.98903,15.48693 z"
           sodipodi:ry="15.486935"
           sodipodi:rx="13.989028"
           sodipodi:cy="339.88278"
           sodipodi:cx="275.98511"
           id="path8190"
           style="fill:url(#radialGradient3258);fill-opacity:1;fill-rule:nonzero;stroke:none"
           sodipodi:type="arc" />
        <path
           style="fill:#000000;fill-opacity:1;fill-rule:nonzero;stroke:none"
           d="m 255.6875,295 c -4.80733,-0.2375 -9.73706,0.027 -14.22645,1.91867 -4.97364,1.79842 -11.84835,6.53218 -16.43387,9.18275 -2.24506,1.25616 -10.13652,6.15338 -12.60781,8.49354 -2.47926,2.34771 -10.19734,7.87704 -10.09736,8.54251 0.44289,0.72451 4.8132,18.05954 5.29864,18.58552 1.48521,0.0513 -0.54368,1.24183 3.29998,2.36884 -0.26409,-5.42697 -5.27503,-18.46786 -4.29507,-18.99048 4.10669,-2.83645 30.47389,-21.17341 35.07646,-23.02606 3.84675,-1.4946 7.84199,-2.78032 12.01883,-2.72529 7.83354,-0.14584 15.69314,0.94102 23.23987,3.01906 4.86911,1.30506 9.24539,3.8958 13.19092,6.98371 1.32537,0.7592 4.14967,3.61813 4.32022,3.42899 -1.16313,-1.90118 -1.77318,-4.2436 -3.71318,-5.5461 -4.70818,-3.86291 -9.80331,-7.50443 -15.75276,-9.13816 -6.26297,-1.84065 -12.81019,-2.74384 -19.31842,-3.0975 z"
           id="path8194"
           sodipodi:nodetypes="ccczcccccccccccc" />
        <path
           sodipodi:nodetypes="cs"
           id="path8192"
           d="m 278.48158,295.88239 c -10.69749,-7.00095 -23.09218,-1.64416 -34.01253,1.13146"
           style="fill:none;stroke:#000000;stroke-width:1px;stroke-linecap:butt;stroke-linejoin:miter;stroke-opacity:1" />
      </g>
      <path
         style="fill:none;stroke:#000000;stroke-width:1.35353994;stroke-linecap:butt;stroke-linejoin:miter;stroke-miterlimit:4;stroke-opacity:1;stroke-dasharray:none"
         d="m 468.19323,361.15205 c -3.68922,5.72275 -25.22638,11.63335 -39.80635,12.40461 -14.56859,0.77066 -20.63172,-3.69261 -27.71564,-5.94653"
         id="path3159"
         sodipodi:nodetypes="czs" />
      <path
         inkscape:transform-center-y="5.0970079"
         sodipodi:type="arc"
         style="fill:#ffffff;fill-opacity:1;fill-rule:nonzero;stroke:none"
         id="path3196"
         sodipodi:cx="251.24451"
         sodipodi:cy="325.18018"
         sodipodi:rx="10.742785"
         sodipodi:ry="8.1027431"
         d="m 261.98729,325.18018 c 0,4.47502 -4.80971,8.10274 -10.74278,8.10274 -5.93308,0 -10.74279,-3.62772 -10.74279,-8.10274 0,-4.47503 4.80971,-8.10275 10.74279,-8.10275 5.93307,0 10.74278,3.62772 10.74278,8.10275 z"
         transform="matrix(0.493097,0.947876,-0.949838,0.486054,599.495,-79.501)" />
    </g>
  </g>
</svg>
