<?xml version="1.0" encoding="UTF-8" standalone="no"?>
<!DOCTYPE svg PUBLIC "-//W3C//DTD SVG 1.0//EN" "http://www.w3.org/TR/2001/REC-SVG-20010904/DTD/svg10.dtd">
<!-- Created with Sodipodi ("http://www.sodipodi.com/") -->
<svg id="svg649" sodipodi:version="0.34" xmlns="http://www.w3.org/2000/svg" xmlns:sodipodi="http://sodipodi.sourceforge.net/DTD/sodipodi-0.dtd" xmlns:xlink="http://www.w3.org/1999/xlink" width="201.28pt" height="169.89pt" xml:space="preserve" sodipodi:docbase="/mnt/sda1/elementi_decorativi" sodipodi:docname="/mnt/sda1/elementi_decorativi/wig2.svg"><defs id="defs651"/><sodipodi:namedview id="base"/><g id="g623" style="fill: rgb(17, 0, 0); fill-opacity: 1;" transform="matrix(0.811385, 0, 0, 0.816858, -178.063, -60.2882)"><path style="fill: rgb(17, 0, 0); fill-rule: evenodd; stroke-width: 1; fill-opacity: 1;" d="M 527.7128 223.3791 C 527.7128 255.89 509.3571 307.38 491.8026 320.911 C 482.1115 328.381 445.4541 299.812 445.976 286.384 C 446.6896 268.025 487.7473 246.896 495.5091 225.551 C 499.0996 215.6772 490.1759 198.4382 480.0329 192.7278 C 431.1437 165.2036 334.5586 148.9654 318.4125 125.8471 C 309.5834 113.2055 376.2092 85.44805 405.1075 85.44805 C 434.0059 85.44805 472.2169 103.8131 491.8026 125.8471 C 513.0853 149.7901 527.7128 190.8684 527.7128 223.3791 z " id="path621" sodipodi:nodetypes="cssssssss"/><path style="fill: rgb(17, 0, 0); fill-rule: evenodd; stroke-width: 1; fill-opacity: 1;" d="M 221.2854 223.3792 C 221.2854 255.8901 239.6411 307.3801 257.1956 320.9111 C 266.8867 328.3811 303.5441 299.8121 303.0222 286.3841 C 302.3086 268.0251 261.2509 246.8961 253.4891 225.5511 C 249.8986 215.6773 258.8223 198.4383 268.9653 192.7279 C 317.8545 165.2037 414.4396 148.9655 430.5857 125.8472 C 439.4148 113.2056 372.789 85.44813 343.8907 85.44813 C 314.9923 85.44813 276.7813 103.8132 257.1956 125.8472 C 235.9129 149.7902 221.2854 190.8685 221.2854 223.3792 z " id="path622" sodipodi:nodetypes="cssssssss"/></g></svg>