<?xml version="1.0" encoding="UTF-8" standalone="no"?>
<!-- Created with Sodipodi ("http://www.sodipodi.com/") -->

<svg
   xmlns:dc="http://purl.org/dc/elements/1.1/"
   xmlns:cc="http://creativecommons.org/ns#"
   xmlns:rdf="http://www.w3.org/1999/02/22-rdf-syntax-ns#"
   xmlns:svg="http://www.w3.org/2000/svg"
   xmlns="http://www.w3.org/2000/svg"
   xmlns:sodipodi="http://sodipodi.sourceforge.net/DTD/sodipodi-0.dtd"
   xmlns:inkscape="http://www.inkscape.org/namespaces/inkscape"
   version="1.0"
   x="0"
   y="0"
   width="281.24747"
   height="108.67789"
   viewBox="0 0 224.99797 86.942316"
   id="svg602"
   inkscape:version="0.47pre1 r21720"
   sodipodi:docname="Angelo_Gemmi_laughing_bearded_face.svg"
   inkscape:output_extension="org.inkscape.output.svg.inkscape">
  <sodipodi:namedview
     pagecolor="#ffffff"
     bordercolor="#666666"
     borderopacity="1"
     objecttolerance="10"
     gridtolerance="10"
     guidetolerance="10"
     inkscape:pageopacity="0"
     inkscape:pageshadow="2"
     inkscape:window-width="1440"
     inkscape:window-height="826"
     id="namedview16"
     showgrid="false"
     inkscape:zoom="0.38688525"
     inkscape:cx="153.94416"
     inkscape:cy="-145.42762"
     inkscape:window-x="0"
     inkscape:window-y="25"
     inkscape:window-maximized="1"
     inkscape:current-layer="svg602" />
  <defs
     id="defs616" />
  <metadata
     id="metadata603">
Created by potrace 1.7, written by Peter Selinger 2001-2005
<rdf:RDF>
  <cc:Work
     rdf:about="">
    <dc:format>image/svg+xml</dc:format>
    <dc:type
       rdf:resource="http://purl.org/dc/dcmitype/StillImage" />
  </cc:Work>
</rdf:RDF>
</metadata>
  <path
     id="path605"
     d="M 46.043796,0.57594032 C 22.260166,2.8775823 9.7655358,14.604996 2.5318058,41.457486 0.66856583,48.472014 0.12055583,53.623308 0.01095583,66.775546 c -0.1096,16.98831 0.54801,20.16677 4.49367997,20.16677 0.87682,0 7.5625402,-5.80891 14.9058802,-12.93304 14.57706,-14.13865 23.12602,-20.49557 35.18224,-25.97567 34.30542,-15.782688 84.393544,-15.234678 117.383744,1.424826 12.16582,6.028114 19.39955,11.508214 33.53821,24.989254 8.43936,8.11055 13.70025,12.49463 15.01548,12.27543 7.89134,-1.53443 4.71288,-43.731202 -4.71289,-62.144338 C 211.98123,16.906638 205.0763,9.5633043 198.60979,6.2752443 186.77277,0.24713432 185.89595,0.24713432 117.1755,0.02793032 c -34.963044,-0.109602 -66.966824,0.109602 -71.131704,0.54801 z" />
</svg>
