/* XPM */
static char * icon32x32_xpm[] = {
"32 32 14 1",
" 	c None",
".	c #000000",
"+	c #FFFF00",
"@	c #191919",
"#	c #7F7F00",
"$	c #333333",
"%	c #666667",
"&	c #4C4C4C",
"*	c #B2B2B2",
"=	c #FFFFFF",
"-	c #CCCCCC",
";	c #E5E5E5",
">	c #999999",
",	c #7F7F7F",
".....        .....   ...   ...  ",
".+++.        .+++..  .+@   .+.  ",
"..#.....@..@..#.##.......@..#.. ",
" .#@#.#.##.##.#@##.##@#@##..##. ",
" .+.+.+..+++..+.+@+@+@+@+.+.+.. ",
" .+.+.+..+++.@++@++.+.+.+@+.+.. ",
" .#@#@#@##@##.#..##.#.#.#.#@##..",
" .+..++.++@++.+...+++@+@+.+@@++.",
" ............... .......@@......",
"                   @@.......@@  ",
"                  @$%$..@@...@  ",
"                  &*=*@%-*@..@  ",
"$@@@@@@@          %;--%;==%..@  ",
"@....@@@@         >*&*>;==%..@@ ",
".........        @-;-**$-;$...@ ",
"........@@     @$#&%>%;>;-@...@ ",
".........@@   ##+#++##,--&....@ ",
"..........@@  #++++++++&$@....@@",
"@..........@@@####+++++#@.....@@",
" @@.........@@+#$+++++++#......@",
"  @@@........@#+++++++++#......@",
"    @@@......@@#++++++++@......@",
"      @@.......@##+++++#.......@",
"       $@........@####$@.......@",
"        @@.......@@@@...........",
"         @@.....$>-*>$..........",
"           @@..@-====;$...@.....",
"           @@..%======*@.$>.....",
"           @@..*======;$.$-@....",
"          @@..$-======;&..*%....",
"         @@..@-========%..$*@...",
"         @@.@>=========>...%%..."};
