<?xml version="1.0" encoding="UTF-8" standalone="no"?>
<!-- Created with Inkscape (http://www.inkscape.org/) -->
<svg
   xmlns:dc="http://purl.org/dc/elements/1.1/"
   xmlns:cc="http://creativecommons.org/ns#"
   xmlns:rdf="http://www.w3.org/1999/02/22-rdf-syntax-ns#"
   xmlns:svg="http://www.w3.org/2000/svg"
   xmlns="http://www.w3.org/2000/svg"
   xmlns:sodipodi="http://sodipodi.sourceforge.net/DTD/sodipodi-0.dtd"
   xmlns:inkscape="http://www.inkscape.org/namespaces/inkscape"
   width="122.31461"
   height="67.673424"
   id="svg3285"
   sodipodi:version="0.32"
   inkscape:version="0.46"
   sodipodi:docbase="/home/nicu/Desktop/clipart"
   sodipodi:docname="nicubunu_Peasant_hat.svg"
   inkscape:output_extension="org.inkscape.output.svg.inkscape"
   sodipodi:modified="true"
   version="1.0">
  <defs
     id="defs3287" />
  <sodipodi:namedview
     id="base"
     pagecolor="#ffffff"
     bordercolor="#666666"
     borderopacity="1.0"
     inkscape:pageopacity="0.0"
     inkscape:pageshadow="2"
     inkscape:zoom="1"
     inkscape:cx="64"
     inkscape:cy="64"
     inkscape:document-units="px"
     inkscape:current-layer="layer1"
     inkscape:window-width="778"
     inkscape:window-height="726"
     inkscape:window-x="364"
     inkscape:window-y="85"
     width="128px"
     height="128px"
     showgrid="false" />
  <metadata
     id="metadata3290">
    <rdf:RDF>
      <cc:Work
         rdf:about="">
        <dc:format>image/svg+xml</dc:format>
        <dc:type
           rdf:resource="http://purl.org/dc/dcmitype/StillImage" />
      </cc:Work>
    </rdf:RDF>
  </metadata>
  <g
     inkscape:label="Layer 1"
     inkscape:groupmode="layer"
     id="layer1"
     transform="translate(-2.9551573,-26.165201)">
    <g
       id="g2382">
      <path
         sodipodi:nodetypes="csssssssssssscsc"
         id="path2161"
         d="M 5.6470588,91.607843 C 5.6470588,91.607843 19.764706,93.490196 38.27451,88.784314 C 49.342201,85.970494 68.392157,86.901961 75.294118,86.901961 C 82.196078,86.901961 120.47059,75.294118 122.35294,70.588235 C 124.23529,65.882353 126.43137,60.235294 117.64706,56.156863 C 108.86275,52.078431 91.921569,56.470588 86.901961,54.27451 C 81.882353,52.078431 81.882353,50.196078 79.372549,44.235294 C 76.862745,38.27451 71.529412,28.54902 69.333333,27.607843 C 67.137255,26.666667 62.745098,26.980392 61.490196,28.862745 C 60.235294,30.745098 57.72549,36.078431 55.215686,37.333333 C 52.705882,38.588235 49.568627,40.156863 46.431373,37.333333 C 43.294118,34.509804 41.098039,33.254902 39.529412,34.196078 C 37.960784,35.137255 34.196078,40.784314 34.196078,42.980392 C 34.196078,45.176471 36.219952,66.092572 34.196078,69.019608 C 30.216335,71.358071 16.313725,76.54902 14.431373,78.745098 C 12.54902,80.941176 -0.31372545,87.215686 5.6470588,91.607843 z"
         style="fill:#784421;fill-rule:evenodd;stroke-width:1px;stroke-linecap:butt;stroke-linejoin:miter;stroke-opacity:1" />
      <path
         id="path2396"
         d="M 66.203687,26.179851 C 66.023654,26.193848 65.850048,26.231259 65.67411,26.264583 C 63.549023,26.667068 61.671842,28.415991 59.509832,30.649481 C 57.579874,33.814485 55.584467,37.156701 55.252032,37.555167 C 55.249097,37.558509 55.233452,37.594775 55.230849,37.597533 C 55.228917,37.597804 55.212066,37.59733 55.209666,37.597533 C 55.209354,37.595676 55.210073,37.578682 55.209666,37.576351 C 55.212099,37.56848 55.205748,37.54445 55.209666,37.533984 C 55.233018,37.475119 55.274137,37.365102 55.336765,37.237421 C 52.280787,38.113851 49.176262,38.227176 46.397503,36.47483 C 43.564921,32.125451 41.948187,31.069924 37.140495,35.352126 C 34.191877,39.174666 33.942913,43.817633 33.666469,48.528005 C 33.271351,54.900724 33.498237,61.30049 32.755596,67.635151 C 32.754952,67.636324 32.735552,67.633731 32.734413,67.635151 C 32.732786,67.636811 32.736528,67.654422 32.734413,67.656329 C 32.41426,67.921554 28.427604,70.034284 23.964616,72.613167 C 18.602326,75.449369 1.4832689,84.380506 3.0569113,91.423743 C 6.0942062,94.321443 10.297934,93.715283 14.199214,93.838623 C 18.898781,93.775283 38.152849,88.786699 43.453054,88.627583 C 54.748478,88.837674 66.059933,88.748109 77.324807,87.780256 C 85.331036,86.831196 94.543264,83.264379 102.38439,81.340601 C 108.73041,79.289317 113.72218,77.061867 119.39441,73.524047 C 124.03708,69.971113 127.38284,67.540866 123.69458,61.407321 C 120.66332,57.646296 119.10805,55.363349 114.62821,53.950874 C 110.6001,52.926773 106.42764,53.588404 102.29966,53.802593 C 99.321547,54.418537 93.217853,53.971604 90.500684,53.442481 C 87.744912,51.290815 84.549696,47.370548 82.133366,44.863331 C 79.549891,41.979877 77.360441,38.840319 75.56661,35.394492 C 74.183155,32.560853 72.664012,29.731335 70.397937,27.493202 C 68.828993,26.470645 67.463928,26.081852 66.203687,26.179851 z M 63.322787,28.149878 C 64.172775,28.069979 65.607314,28.367559 67.707686,29.67506 C 69.945054,31.877565 72.474388,33.868727 73.829598,36.665477 C 75.658223,40.126719 76.841696,44.114541 79.443115,47.024006 C 79.882665,47.482612 80.52535,48.038421 81.307227,48.676287 C 74.658734,52.152055 45.914148,60.849212 35.784777,58.822985 C 35.638631,54.882836 35.244564,50.972397 35.509397,46.939274 C 35.795053,42.583571 36.902336,38.049577 39.534183,34.462437 C 39.8255,35.152145 41.963208,35.990459 43.686068,38.635505 C 46.503527,40.568636 49.698634,40.477334 52.90071,39.694659 C 57.964226,37.349275 59.754749,33.179935 62.496647,28.891286 C 62.48995,28.887828 62.482073,28.874332 62.475464,28.870102 C 62.46579,28.863344 62.441287,28.856247 62.433098,28.848919 C 62.430617,28.846486 62.435294,28.830122 62.433098,28.827737 C 62.432433,28.826909 62.414098,28.829316 62.411915,28.827737 C 62.409766,28.826143 62.391335,28.807407 62.390731,28.806553 C 62.390535,28.804689 62.391206,28.786285 62.390731,28.78537 C 62.387925,28.783594 62.371731,28.786949 62.369549,28.78537 C 62.368999,28.783397 62.370111,28.767847 62.369549,28.764187 C 62.368491,28.755714 62.370125,28.747125 62.369549,28.743004 C 62.369399,28.740909 62.37024,28.72601 62.369549,28.721821 C 62.36961,28.720736 62.369141,28.702231 62.369549,28.700638 C 62.371311,28.696124 62.368098,28.683406 62.369549,28.679455 C 62.371365,28.671578 62.387485,28.64666 62.390731,28.637089 C 62.396459,28.622068 62.404539,28.588154 62.411915,28.573539 C 62.414457,28.568983 62.430522,28.556464 62.433098,28.552356 C 62.436765,28.54755 62.452532,28.533532 62.454281,28.531173 C 62.484459,28.493579 62.533252,28.439805 62.581379,28.404074 C 62.675866,28.337868 62.802897,28.278914 62.962675,28.23461 C 63.070529,28.20471 63.183698,28.162954 63.322787,28.149878 z M 65.885941,33.297367 C 62.975026,33.768357 65.70178,42.877965 65.589377,43.740627 L 66.436701,43.33815 C 66.555176,42.610352 66.476932,36.666813 67.008645,35.796971 C 67.01562,35.786247 67.022641,35.763586 67.029827,35.754605 C 67.034661,35.749013 67.046082,35.738214 67.05101,35.733421 C 67.055985,35.729036 67.067123,35.715804 67.072194,35.712239 C 67.074756,35.71066 67.090794,35.713608 67.093376,35.712239 C 67.096014,35.711297 67.111902,35.691787 67.11456,35.691056 C 67.117244,35.69054 67.133031,35.691353 67.135743,35.691056 C 67.138501,35.691198 67.15414,35.69069 67.156925,35.691056 C 67.162545,35.692235 67.172388,35.710158 67.178109,35.712239 C 67.180996,35.713506 67.196377,35.710734 67.199292,35.712239 C 68.387137,35.781705 69.564524,36.04359 70.630952,36.580746 L 71.435909,36.072351 C 70.359063,35.517456 67.11317,33.376778 65.907123,33.297367 C 65.895484,33.298953 65.897403,33.29551 65.885941,33.297367 z M 92.301246,54.840564 C 94.767113,55.475501 97.234028,55.952687 99.800058,55.433691 C 103.8969,55.18167 108.05934,55.257271 112.06506,56.238648 C 116.47607,57.607408 119.26455,59.256909 122.25413,62.953684 C 124.53791,67.488279 120.27794,69.695714 117.91159,72.083595 C 112.29755,75.718446 108.71104,77.371803 102.38439,79.476495 C 94.551358,81.468069 87.770243,84.48118 79.760861,85.471308 C 68.516066,86.510905 57.21021,86.578816 45.931475,86.297448 C 40.620974,86.383113 21.411997,91.341123 16.741184,91.466113 C 12.968751,91.357113 4.5229162,92.107083 5.8954444,87.568429 C 6.8374915,84.453251 10.234702,82.606252 12.038539,81.425332 C 12.147383,81.313606 16.299309,77.473926 21.570928,75.091595 C 24.247704,73.573678 30.088764,73.134415 32.480216,71.109171 C 32.469953,73.03253 32.672206,74.756095 32.967427,75.155138 L 34.068947,71.342186 C 42.472233,71.132285 83.192188,63.527186 88.954318,54.967663 C 90.886338,56.447035 92.063813,59.413189 92.407161,60.072786 L 92.894373,59.500842 C 92.615067,58.936227 92.478072,55.414826 92.301246,54.861748 C 92.299822,54.857707 92.302669,54.844218 92.301246,54.840564 z"
         style="fill:#000000;fill-opacity:1;fill-rule:nonzero;stroke:none;stroke-width:1px;stroke-linecap:butt;stroke-linejoin:miter;stroke-opacity:1;display:inline" />
    </g>
  </g>
</svg>
