<?xml version="1.0" encoding="UTF-8" standalone="no"?>
<!-- Created with Inkscape (http://www.inkscape.org/) -->
<svg
   xmlns:dc="http://purl.org/dc/elements/1.1/"
   xmlns:cc="http://creativecommons.org/ns#"
   xmlns:rdf="http://www.w3.org/1999/02/22-rdf-syntax-ns#"
   xmlns:svg="http://www.w3.org/2000/svg"
   xmlns="http://www.w3.org/2000/svg"
   xmlns:sodipodi="http://sodipodi.sourceforge.net/DTD/sodipodi-0.dtd"
   xmlns:inkscape="http://www.inkscape.org/namespaces/inkscape"
   height="74.754005"
   id="svg2"
   inkscape:version="0.46"
   sodipodi:docbase="/home/nicu/Desktop"
   sodipodi:docname="liftarn_Adventurer_Hat.svg"
   sodipodi:version="0.32"
   width="122.16551"
   inkscape:output_extension="org.inkscape.output.svg.inkscape"
   version="1.0">
  <metadata
     id="metadata3">
    <rdf:RDF>
      <cc:Work
         rdf:about="">
        <dc:title>Adventurer Hat</dc:title>
        <dc:description />
        <dc:subject>
          <rdf:Bag>
            <rdf:li>clothing</rdf:li>
          </rdf:Bag>
        </dc:subject>
        <dc:publisher>
          <cc:Agent
             rdf:about="http://www.openclipart.org/">
            <dc:title>Open Clip Art Library</dc:title>
          </cc:Agent>
        </dc:publisher>
        <dc:creator>
          <cc:Agent>
            <dc:title>Nicu Buculei</dc:title>
          </cc:Agent>
        </dc:creator>
        <dc:rights>
          <cc:Agent>
            <dc:title>Nicu Buculei</dc:title>
          </cc:Agent>
        </dc:rights>
        <dc:date />
        <dc:format>image/svg+xml</dc:format>
        <dc:type
           rdf:resource="http://purl.org/dc/dcmitype/StillImage" />
        <cc:license
           rdf:resource="http://web.resource.org/cc/PublicDomain" />
        <dc:language>en</dc:language>
      </cc:Work>
      <cc:License
         rdf:about="http://web.resource.org/cc/PublicDomain">
        <cc:permits
           rdf:resource="http://web.resource.org/cc/Reproduction" />
        <cc:permits
           rdf:resource="http://web.resource.org/cc/Distribution" />
        <cc:permits
           rdf:resource="http://web.resource.org/cc/DerivativeWorks" />
      </cc:License>
    </rdf:RDF>
  </metadata>
  <defs
     id="defs3" />
  <sodipodi:namedview
     bordercolor="#666666"
     borderopacity="1.0"
     id="base"
     inkscape:current-layer="layer1"
     inkscape:cx="64"
     inkscape:cy="64"
     inkscape:document-units="px"
     inkscape:pageopacity="0.0"
     inkscape:pageshadow="2"
     inkscape:window-height="791"
     inkscape:window-width="1152"
     inkscape:window-x="278"
     inkscape:window-y="55"
     inkscape:zoom="1"
     pagecolor="#ffffff"
     showgrid="false" />
  <g
     id="layer1"
     inkscape:groupmode="layer"
     inkscape:label="Layer 1"
     transform="translate(-3.21875,-16.486963)">
    <g
       id="g2055"
       transform="translate(-1,4)">
      <path
         d="M 60.03125,13.34375 C 55.528355,14.898562 50.561716,11.140693 46.203403,14.69127 C 36.823046,20.918354 37.665213,34.041386 36.03125,44 C 32.748059,45.987112 35.238368,50.416681 32.71875,53.125 C 34.048493,58.282705 28.493733,57.958167 24.75,58.75 C 17.940099,60.382726 10.098716,58.958772 4.21875,63.34375 C 5.1882961,74.784706 18.34303,78.792093 27.671555,81.55247 C 53.425029,87.94508 80.814557,89.154609 106.91522,84.135599 C 114.94892,82.354848 126.76171,78.855496 126.375,68.6875 C 124.53417,58.909842 112.3006,56.482548 103.9375,58.34375 C 99.673235,48.31743 101.14045,36.992078 97.46875,26.78125 C 90.854704,12.69732 73.584291,11.043219 60.03125,13.34375 z"
         id="path4735"
         style="fill:#000000;fill-opacity:1;fill-rule:evenodd;stroke:none;stroke-width:1px;stroke-linecap:butt;stroke-linejoin:miter;stroke-opacity:1" />
      <path
         d="M 100.8125,59.125 C 81.034848,65.308019 33.539,67.805379 9.5,62.8125 C 7.8350802,63.181105 6.6460681,63.630912 6.40625,64.3125 C 7.0854837,88.425305 118.84324,92.50202 123.9375,72.125 C 126.99404,64.144002 115.59823,57.014212 101.84375,60.75 C 101.46125,60.614999 101.11264,60.00794 100.8125,59.125 z"
         id="path1295"
         style="fill:#4c2200;fill-opacity:1;fill-rule:evenodd;stroke:none;stroke-width:1px;stroke-linecap:butt;stroke-linejoin:miter;stroke-opacity:1" />
      <path
         d="M 67.78125,14.5 C 62.007431,14.759687 57.366134,15.867931 56.15625,16.25 C 54.967594,15.570766 53.251615,14.205754 48.875,15.59375 C 38.14923,18.385389 38.862652,41.788754 36.9375,53.5 C 57.408374,51.993385 80.30705,53.230257 100.0625,55.96875 C 98.669179,48.113241 98.029974,32.879118 95.75,27.8125 C 90.231221,16.032038 77.404282,14.067188 67.78125,14.5 z"
         id="path2102"
         style="fill:#632d00;fill-opacity:1;fill-rule:evenodd;stroke:none;stroke-width:1px;stroke-linecap:butt;stroke-linejoin:miter;stroke-opacity:1" />
      <path
         d="M 47.314359,56.525627 C 41.443166,56.628285 37.405542,56.93658 36.641407,57.488458 C 36.479463,57.605416 36.256013,57.722927 36.012101,57.840867 C 35.937,58.055509 35.873433,58.316085 35.79185,58.507927 C 26.893268,62.407304 7.9077198,62.023052 6.6402068,63.965469 C 38.255044,74.050792 98.786066,62.774784 103.43246,60.476738 C 104.20603,57.059709 61.169341,56.283372 47.314359,56.525627 z"
         id="path1294"
         sodipodi:nodetypes="csccccc"
         style="fill:#b16f37;fill-opacity:1;fill-rule:evenodd;stroke:none;stroke-width:1px;stroke-linecap:butt;stroke-linejoin:miter;stroke-opacity:1" />
      <path
         d="M 47.314359,56.054366 C 41.443166,56.157024 37.405542,56.465319 36.641407,57.017197 C 36.479463,57.134155 36.256013,57.251666 36.012101,57.369606 C 35.937,57.584248 35.873433,57.844824 35.79185,58.036666 C 26.893268,61.936043 11.656577,61.468483 7.4732862,63.4109 C 42.575302,73.291095 106.13054,59.477336 103.26584,60.2554 C 103.45626,57.004988 61.169341,55.812111 47.314359,56.054366 z"
         id="path1306"
         sodipodi:nodetypes="csccccc"
         style="fill:#8e4000;fill-opacity:1;fill-rule:evenodd;stroke:none;stroke-width:1px;stroke-linecap:butt;stroke-linejoin:miter;stroke-opacity:1" />
      <path
         d="M 50.567318,15.41595 C 59.850182,23.000728 49.60507,44.339991 45.812682,48.868216 C 39.020345,58.377489 68.567016,57.698256 66.699125,49.717259 C 57.020043,45.302239 56.850232,33.585455 57.189845,17.963077 C 55.625936,16.28613 53.454064,17.453651 50.567318,15.41595 z"
         id="path1316"
         sodipodi:nodetypes="ccccc"
         style="fill:#371800;fill-opacity:1;fill-rule:evenodd;stroke:none;stroke-width:1px;stroke-linecap:butt;stroke-linejoin:miter;stroke-opacity:1" />
      <path
         d="M 36.472819,46.107262 C 55.944188,32.23957 84.245997,45.585252 99.472149,51.415342 C 100.58279,52.508473 103.33163,59.688173 102.62251,59.560956 C 89.052188,57.339093 48.182531,55.675093 35.10728,58.392031 C 34.512948,58.646742 33.941027,53.0525 35.496812,51.861089 C 37.340333,50.278574 35.361992,47.480667 36.472819,46.107262 z"
         id="path1310"
         sodipodi:nodetypes="cccccc"
         style="fill:#000000;fill-opacity:1;fill-rule:evenodd;stroke:none;stroke-width:1px;stroke-linecap:butt;stroke-linejoin:miter;stroke-opacity:1" />
      <path
         d="M 63.305984,27.50644 C 61.100205,7.5405357 89.186538,15.550187 89.204434,33.767749 C 85.426487,23.257277 68.027517,15.015827 63.305984,27.50644 z"
         id="path1312"
         sodipodi:nodetypes="ccc"
         style="fill:#512400;fill-opacity:1;fill-rule:evenodd;stroke:none;stroke-width:1;stroke-linecap:butt;stroke-linejoin:miter;stroke-miterlimit:4;stroke-dasharray:none;stroke-opacity:1" />
      <path
         d="M 50.71875,17.34375 C 46.154515,17.619537 40.890879,31.155633 42.336125,30.781459 C 44.763774,23.134654 52.0571,16.281295 52.471166,26.163101 C 53.318086,23.40633 53.888315,18.774348 50.71875,17.34375 z"
         id="path1314"
         sodipodi:nodetypes="cccc"
         style="fill:#512400;fill-opacity:1;fill-rule:evenodd;stroke:none;stroke-width:1;stroke-linecap:butt;stroke-linejoin:miter;stroke-miterlimit:4;stroke-dasharray:none;stroke-opacity:1" />
    </g>
  </g>
</svg>
