<?xml version="1.0" encoding="UTF-8" standalone="no"?>
<!-- Created with Inkscape (http://www.inkscape.org/) -->
<svg
   xmlns:dc="http://purl.org/dc/elements/1.1/"
   xmlns:cc="http://creativecommons.org/ns#"
   xmlns:rdf="http://www.w3.org/1999/02/22-rdf-syntax-ns#"
   xmlns:svg="http://www.w3.org/2000/svg"
   xmlns="http://www.w3.org/2000/svg"
   xmlns:sodipodi="http://sodipodi.sourceforge.net/DTD/sodipodi-0.dtd"
   xmlns:inkscape="http://www.inkscape.org/namespaces/inkscape"
   width="124.40317"
   height="49.514839"
   id="svg2"
   sodipodi:version="0.32"
   inkscape:version="0.46"
   sodipodi:docbase="/home/nicu/Desktop/hats"
   sodipodi:docname="nicubunu_Cowboy_hat.svg"
   inkscape:export-filename="/home/nicu/Desktop/potato_guy.png"
   inkscape:export-xdpi="90.000000"
   inkscape:export-ydpi="90.000000"
   inkscape:output_extension="org.inkscape.output.svg.inkscape"
   version="1.0">
  <defs
     id="defs3" />
  <sodipodi:namedview
     id="base"
     pagecolor="#ffffff"
     bordercolor="#666666"
     borderopacity="1.0"
     inkscape:pageopacity="0.0"
     inkscape:pageshadow="2"
     inkscape:zoom="1"
     inkscape:cx="64"
     inkscape:cy="64"
     inkscape:document-units="px"
     inkscape:current-layer="layer1"
     inkscape:window-width="1152"
     inkscape:window-height="791"
     inkscape:window-x="278"
     inkscape:window-y="55"
     showguides="true"
     inkscape:guide-bbox="true"
     showgrid="false" />
  <g
     inkscape:label="Layer 1"
     inkscape:groupmode="layer"
     id="layer1"
     transform="translate(-1.9105562,-40.423935)">
    <g
       id="g10793"
       transform="matrix(0.829465,0,0,0.829465,-101.167,-279.931)">
      <path
         sodipodi:nodetypes="cccccccccccccccccc"
         id="path10779"
         d="M 218.39858,386.87137 C 212.29272,387.22596 210.73914,394.25876 207.67983,398.37137 C 204.76216,403.24325 197.32755,402.21711 195.11733,397.27762 C 192.78113,393.40941 190.12457,387.45287 184.55483,388.65262 C 179.21183,390.43037 178.52153,397.85179 177.21501,402.63119 C 175.52648,406.73331 177.30827,413.27727 174.53144,415.15655 C 166.51668,412.65219 158.26398,408.96671 149.99233,407.1878 C 142.48236,405.07113 134.03127,402.50229 128.03537,408.86548 C 122.90394,414.31899 125.57434,423.21864 131.88108,426.61155 C 145.06332,434.83991 159.45743,438.17082 174.49626,441.4494 C 195.23001,445.342 215.23067,447.20559 235.59965,440.44744 C 242.10526,438.47857 247.84981,435.10147 254.04304,432.49048 C 262.45225,427.86433 271.52622,421.223 272.88679,411.05494 C 273.81318,404.43589 268.85205,399.39986 262.55483,399.18387 C 257.04991,398.84734 251.00804,399.46671 246.55483,402.99637 C 240.35476,406.77586 233.84692,410.0417 227.14858,412.84012 C 226.72352,404.6891 226.13602,395.94845 221.61733,388.90262 C 220.82332,387.89353 219.72844,386.98872 218.39858,386.87137 z"
         style="fill:#b9a165;fill-opacity:1;fill-rule:evenodd;stroke:none;stroke-width:1px;stroke-linecap:butt;stroke-linejoin:miter;stroke-opacity:1" />
      <path
         sodipodi:nodetypes="cccccc"
         id="path10785"
         d="M 180.125,392.375 C 177.70833,399.79167 176.54167,406.33333 175.125,414.625 C 175.25,415.5 145,405.75 140.75,405.125 C 160.125,413.375 153.875,421.375 162.25,426.75 C 166.125,430.375 181,428.75 182.625,427.5 C 180.25,424.75 185.75,394 180.125,392.375 z"
         style="fill:#000000;fill-opacity:0.08235288;fill-rule:evenodd;stroke:none;stroke-width:1px;stroke-linecap:butt;stroke-linejoin:miter;stroke-opacity:1" />
      <path
         sodipodi:nodetypes="cccccc"
         id="path10787"
         d="M 179.49394,394.57881 C 177.07727,401.99548 176.41061,406.28714 174.99394,414.57881 C 175.11894,415.45381 147.36894,406.20381 143.11894,405.57881 C 162.49394,413.82881 154.11894,419.07881 162.49394,424.45381 C 166.36894,428.07881 179.61894,427.57881 181.24394,426.32881 C 178.86894,423.57881 185.11894,396.20381 179.49394,394.57881 z"
         style="fill:#000000;fill-opacity:0.08235288;fill-rule:evenodd;stroke:none;stroke-width:1px;stroke-linecap:butt;stroke-linejoin:miter;stroke-opacity:1" />
      <path
         sodipodi:nodetypes="cccc"
         id="path10789"
         d="M 245.82171,403.71801 C 262.94254,393.01749 272.99015,402.55727 273.24406,412.64115 C 270.85004,418.40855 270.52359,418.735 268.45603,420.4761 C 270.30595,407.96194 253.00376,404.91501 245.82171,403.71801 z"
         style="fill:#000000;fill-opacity:0.08235288;fill-rule:evenodd;stroke:none;stroke-width:1px;stroke-linecap:butt;stroke-linejoin:miter;stroke-opacity:1" />
      <path
         sodipodi:nodetypes="cccc"
         id="path10791"
         d="M 247.88927,402.15208 C 265.0101,391.45156 272.88133,402.40598 273.13524,412.48986 C 270.74122,418.25726 271.7206,417.06025 269.65304,418.80135 C 270.95886,404.87254 256.48596,401.82561 247.88927,402.15208 z"
         style="fill:#000000;fill-opacity:0.08235288;fill-rule:evenodd;stroke:none;stroke-width:1px;stroke-linecap:butt;stroke-linejoin:miter;stroke-opacity:1" />
      <path
         id="path10562"
         d="M 218.53125,386.21875 C 212.42539,386.57334 210.87181,393.60614 207.8125,397.71875 C 204.89483,402.59063 197.46022,401.56449 195.25,396.625 C 192.9138,392.75679 190.25724,386.80025 184.6875,388 C 179.3445,389.77775 178.27527,396.25185 176.96875,401.03125 C 175.28022,405.13337 176.68308,412.62072 173.90625,414.5 C 165.89149,411.99564 158.39665,407.93516 150.125,406.15625 C 142.61503,404.03958 133.02715,402.41806 127.03125,408.78125 C 121.89982,414.23476 124.38076,423.51334 130.6875,426.90625 C 143.86974,435.13461 159.21117,439.03392 174.25,442.3125 C 194.98375,446.2051 217.06852,448.25815 237.4375,441.5 C 243.94311,439.53113 249.11927,435.01724 255.3125,432.40625 C 263.72171,427.7801 272.79568,420.94931 274.15625,410.78125 C 275.08264,404.1622 268.98472,398.74724 262.6875,398.53125 C 257.18258,398.19472 251.14071,398.81409 246.6875,402.34375 C 240.48743,406.12324 233.97959,409.38908 227.28125,412.1875 C 226.85619,404.03648 226.26869,395.29583 221.75,388.25 C 220.95599,387.24091 219.86111,386.3361 218.53125,386.21875 z M 217.3125,388.21875 C 224.1366,389.15205 223.39978,397.5711 224.71875,403.09375 C 224.70992,407.09717 228.28944,420.56239 223.59375,421.84375 C 208.05707,431.53273 189.73611,432.90551 178.09375,423.875 C 173.30872,422.64723 177.26915,406.30066 177.9375,401.25 C 179.26034,396.72924 179.47775,390.64316 184.9375,389.5625 C 190.97697,389.54314 192.62473,396.10108 196.25,399.53125 C 199.96624,403.73962 207.15652,403.08262 209.4375,398.21875 C 211.70265,394.73066 213.01007,389.7653 217.3125,388.21875 z M 219.1875,395.8125 C 216.43011,395.49758 214.40772,398.53068 212.5625,400.28125 C 210.17734,402.96659 208.7586,405.74065 209.28125,410.15625 C 210.20284,406.20401 210.97598,404.62764 212.9375,402 C 214.17522,400.47968 215.83464,398.69081 217.625,397.90625 C 219.6916,396.9731 221.00086,400.11301 221.5625,401.8125 C 223.25133,402.66709 221.98173,398.34499 221.25,397.78125 C 220.76265,397.25057 219.90808,395.90999 219.1875,395.8125 z M 259.6875,399.40625 C 265.72999,398.8024 271.64672,402.43593 271.65625,409.25 C 271.41186,418.91742 264.51165,425.77426 256.84375,430.375 C 252.34428,432.75 246.87368,434.00386 242.625,436.8125 C 225.29682,445.29707 207.08065,445.30728 188.375,443.125 C 169.94384,440.47166 150.99249,435.96908 134.46875,427.125 C 129.06601,424.6544 124.36585,419.43376 126.40625,413.1875 C 128.78987,405.60891 137.94777,404.99577 144.71875,406.5625 C 154.10754,408.30235 162.40756,411.11886 171.1875,414.75 C 178.60342,414.20213 171.14368,423.33034 177.84375,425.0625 C 189.21547,433.73745 205.35664,432.47818 217.8125,426.90625 C 222.60924,424.66715 228.59904,421.75894 227.34375,415.5625 C 227.74402,410.97671 235.53327,411.19171 238.9375,408.3125 C 243.35503,406.48502 247.42365,402.54104 251.78125,400.71875 C 254.35105,399.98003 257.00985,399.47613 259.6875,399.40625 z"
         style="fill:#000000;fill-opacity:1;fill-rule:evenodd;stroke:none;stroke-width:1px;stroke-linecap:butt;stroke-linejoin:miter;stroke-opacity:1" />
      <path
         sodipodi:nodetypes="cccc"
         id="path10783"
         d="M 221.95877,400.75616 C 221.95877,400.50616 219.33377,395.50616 217.83377,396.00616 C 216.33377,396.50616 208.58377,406.63116 209.33377,409.00616 C 210.08377,411.38116 222.33377,410.00616 221.95877,400.75616 z"
         style="fill:#000000;fill-opacity:0.08235288;fill-rule:evenodd;stroke:none;stroke-width:1px;stroke-linecap:butt;stroke-linejoin:miter;stroke-opacity:1" />
      <path
         sodipodi:nodetypes="cccc"
         id="path10781"
         d="M 220.875,400 C 220.625,399 219.125,395.375 217.625,395.875 C 216.125,396.375 209,405 209.75,407.375 C 210.5,409.75 221.25,409.25 220.875,400 z"
         style="fill:#000000;fill-opacity:0.08235288;fill-rule:evenodd;stroke:none;stroke-width:1px;stroke-linecap:butt;stroke-linejoin:miter;stroke-opacity:1" />
    </g>
  </g>
  <metadata
     id="metadata31">
    <rdf:RDF>
      <cc:Work
         rdf:about="">
        <dc:title>hat - clothing</dc:title>
        <dc:description />
        <dc:subject>
          <rdf:Bag>
            <rdf:li>hat</rdf:li>
          </rdf:Bag>
        </dc:subject>
        <dc:publisher>
          <cc:Agent>
            <dc:title />
          </cc:Agent>
        </dc:publisher>
        <dc:creator>
          <cc:Agent>
            <dc:title>Nicu Buculei</dc:title>
          </cc:Agent>
        </dc:creator>
        <dc:rights>
          <cc:Agent>
            <dc:title>Nicu Buculei</dc:title>
          </cc:Agent>
        </dc:rights>
        <dc:date />
        <dc:format>image/svg+xml</dc:format>
        <dc:type
           rdf:resource="http://purl.org/dc/dcmitype/StillImage" />
        <cc:license
           rdf:resource="http://web.resource.org/cc/PublicDomain" />
        <dc:language>en</dc:language>
      </cc:Work>
      <cc:License
         rdf:about="http://web.resource.org/cc/PublicDomain">
        <cc:permits
           rdf:resource="http://web.resource.org/cc/Reproduction" />
        <cc:permits
           rdf:resource="http://web.resource.org/cc/Distribution" />
        <cc:permits
           rdf:resource="http://web.resource.org/cc/DerivativeWorks" />
      </cc:License>
    </rdf:RDF>
  </metadata>
</svg>
