<?xml version="1.0" encoding="UTF-8" standalone="no"?>
<!-- Created with Sodipodi ("http://www.sodipodi.com/") -->
<svg
   xmlns:dc="http://purl.org/dc/elements/1.1/"
   xmlns:cc="http://creativecommons.org/ns#"
   xmlns:rdf="http://www.w3.org/1999/02/22-rdf-syntax-ns#"
   xmlns:svg="http://www.w3.org/2000/svg"
   xmlns="http://www.w3.org/2000/svg"
   xmlns:xlink="http://www.w3.org/1999/xlink"
   xmlns:sodipodi="http://sodipodi.sourceforge.net/DTD/sodipodi-0.dtd"
   xmlns:inkscape="http://www.inkscape.org/namespaces/inkscape"
   height="109.22008"
   id="svg602"
   sodipodi:docbase="/home/franck/Dessins/Vectoriels"
   sodipodi:docname="Anonymous_Crown2.svg"
   sodipodi:version="0.32"
   space="preserve"
   width="300"
   inkscape:version="0.46"
   inkscape:output_extension="org.inkscape.output.svg.inkscape"
   version="1.0"
   inkscape:export-filename="C:\joanna\Gfx\drawings_vector\admin\thumbs\Franck Doucet\couronne_01.png"
   inkscape:export-xdpi="89.065941"
   inkscape:export-ydpi="89.065941">
  <metadata
     id="metadata3">
    <rdf:RDF>
      <cc:Work
         rdf:about="">
        <dc:title>couronne</dc:title>
        <dc:description />
        <dc:subject>
          <rdf:Bag>
            <rdf:li />
            <rdf:li>festive</rdf:li>
            <rdf:li>party</rdf:li>
            <rdf:li>recreation</rdf:li>
          </rdf:Bag>
        </dc:subject>
        <dc:publisher>
          <cc:Agent
             rdf:about="http://www.openclipart.org">
            <dc:title>Open Clip Art Library</dc:title>
          </cc:Agent>
        </dc:publisher>
        <dc:creator>
          <cc:Agent>
            <dc:title>Franck Doucet</dc:title>
          </cc:Agent>
        </dc:creator>
        <dc:rights>
          <cc:Agent>
            <dc:title />
          </cc:Agent>
        </dc:rights>
        <dc:date />
        <dc:format>image/svg+xml</dc:format>
        <dc:type
           rdf:resource="http://purl.org/dc/dcmitype/StillImage" />
        <cc:license
           rdf:resource="http://creativecommons.org/licenses/publicdomain/" />
        <dc:language>en</dc:language>
      </cc:Work>
      <cc:License
         rdf:about="http://creativecommons.org/licenses/publicdomain/">
        <cc:permits
           rdf:resource="http://creativecommons.org/ns#Reproduction" />
        <cc:permits
           rdf:resource="http://creativecommons.org/ns#Distribution" />
        <cc:permits
           rdf:resource="http://creativecommons.org/ns#DerivativeWorks" />
      </cc:License>
    </rdf:RDF>
  </metadata>
  <defs
     id="defs604">
    <linearGradient
       id="linearGradient723">
      <stop
         id="stop724"
         offset="0"
         style="stop-color: rgb(0, 106, 0); stop-opacity: 1;" />
      <stop
         id="stop725"
         offset="1"
         style="stop-color: rgb(255, 255, 183); stop-opacity: 1;" />
    </linearGradient>
    <linearGradient
       id="linearGradient702">
      <stop
         id="stop703"
         offset="0"
         style="stop-color: rgb(255, 90, 0); stop-opacity: 1;" />
      <stop
         id="stop704"
         offset="1"
         style="stop-color: rgb(255, 255, 255); stop-opacity: 1;" />
    </linearGradient>
    <linearGradient
       id="linearGradient662">
      <stop
         id="stop663"
         offset="0"
         style="stop-color: rgb(133, 61, 0); stop-opacity: 1;" />
      <stop
         id="stop664"
         offset="1"
         style="stop-color: rgb(255, 234, 0); stop-opacity: 1;" />
    </linearGradient>
    <linearGradient
       id="linearGradient665"
       spreadMethod="reflect"
       x1="79.615402"
       x2="128.04625"
       xlink:href="#linearGradient662"
       y1="983.85266"
       y2="983.85809"
       gradientTransform="matrix(1.87717,0,0,0.532717,-139.622,-366.871)"
       gradientUnits="userSpaceOnUse" />
    <linearGradient
       id="linearGradient676"
       spreadMethod="reflect"
       x1="71.826027"
       x2="115.08168"
       xlink:href="#linearGradient662"
       y1="941.45758"
       y2="939.13007"
       gradientTransform="matrix(1.98419,0,0,0.503984,-139.622,-366.871)"
       gradientUnits="userSpaceOnUse" />
    <linearGradient
       id="linearGradient687"
       x1="114.38953"
       x2="319.05579"
       xlink:href="#linearGradient662"
       y1="782.28595"
       y2="992.64514"
       gradientTransform="matrix(1.89803,0,0,0.526862,-139.622,-366.871)"
       gradientUnits="userSpaceOnUse" />
    <linearGradient
       id="linearGradient688"
       x1="117.36361"
       x2="297.29749"
       xlink:href="#linearGradient662"
       y1="881.43549"
       y2="973.06158"
       gradientTransform="matrix(1.87547,0,0,0.5332,-139.622,-366.871)"
       gradientUnits="userSpaceOnUse" />
    <linearGradient
       id="linearGradient691"
       spreadMethod="reflect"
       x1="66.687035"
       x2="105.91934"
       xlink:href="#linearGradient662"
       y1="1247.5718"
       y2="1229.3033"
       gradientTransform="matrix(2.48264,0,0,0.402797,-139.622,-366.871)"
       gradientUnits="userSpaceOnUse" />
    <linearGradient
       id="linearGradient699"
       xlink:href="#linearGradient662"
       gradientTransform="scale(1.26491,0.790568)"
       x1="242.60658"
       y1="692.75824"
       x2="270.27655"
       y2="692.75824"
       gradientUnits="userSpaceOnUse" />
    <linearGradient
       gradientTransform="scale(1.47907,0.676099)"
       id="linearGradient701"
       x1="-125.46559"
       x2="-121.23284"
       xlink:href="#linearGradient702"
       y1="1137.5801"
       y2="1128.8472"
       gradientUnits="userSpaceOnUse" />
    <linearGradient
       id="linearGradient711"
       x1="753.72913"
       x2="769.88824"
       xlink:href="#linearGradient662"
       y1="318.48154"
       y2="318.48154"
       gradientTransform="scale(0.656238,1.52384)"
       gradientUnits="userSpaceOnUse" />
    <linearGradient
       gradientTransform="scale(0.941795,1.0618)"
       id="linearGradient726"
       x1="541.83704"
       x2="553.81549"
       xlink:href="#linearGradient723"
       y1="536.29382"
       y2="536.29382"
       gradientUnits="userSpaceOnUse" />
    <linearGradient
       gradientTransform="scale(0.725561,1.37824)"
       id="linearGradient792"
       x1="695.97632"
       x2="704.06763"
       xlink:href="#linearGradient723"
       y1="366.04816"
       y2="356.69254"
       gradientUnits="userSpaceOnUse" />
    <linearGradient
       inkscape:collect="always"
       xlink:href="#linearGradient662"
       id="linearGradient2437"
       spreadMethod="reflect"
       x1="65.569817"
       y1="1363.2657"
       x2="104.15134"
       y2="1345.3002"
       gradientTransform="matrix(2.51748,0,0,0.397222,-139.622,-366.871)"
       gradientUnits="userSpaceOnUse" />
    <linearGradient
       inkscape:collect="always"
       xlink:href="#linearGradient662"
       id="linearGradient2439"
       x1="449.47934"
       y1="584.73096"
       x2="469.4697"
       y2="584.73096"
       gradientTransform="scale(1.03175,0.969223)"
       gradientUnits="userSpaceOnUse" />
    <linearGradient
       inkscape:collect="always"
       xlink:href="#linearGradient723"
       id="linearGradient2441"
       gradientTransform="scale(0.941795,1.0618)"
       x1="541.83704"
       y1="536.29382"
       x2="553.81549"
       y2="536.29382"
       gradientUnits="userSpaceOnUse" />
    <linearGradient
       inkscape:collect="always"
       xlink:href="#linearGradient662"
       id="linearGradient2443"
       x1="449.47934"
       y1="584.73096"
       x2="469.4697"
       y2="584.73096"
       gradientTransform="scale(1.03175,0.969223)"
       gradientUnits="userSpaceOnUse" />
    <linearGradient
       inkscape:collect="always"
       xlink:href="#linearGradient662"
       id="linearGradient2445"
       gradientTransform="scale(1.26491,0.790568)"
       x1="242.60658"
       y1="692.75824"
       x2="270.27655"
       y2="692.75824"
       gradientUnits="userSpaceOnUse" />
    <linearGradient
       inkscape:collect="always"
       xlink:href="#linearGradient702"
       id="linearGradient2447"
       gradientTransform="scale(1.66567,0.600359)"
       x1="210.69629"
       y1="994.62329"
       x2="215.93205"
       y2="983.82104"
       gradientUnits="userSpaceOnUse" />
    <linearGradient
       inkscape:collect="always"
       xlink:href="#linearGradient662"
       id="linearGradient2449"
       gradientTransform="scale(1.26491,0.790568)"
       x1="242.60658"
       y1="692.75824"
       x2="270.27655"
       y2="692.75824"
       gradientUnits="userSpaceOnUse" />
    <linearGradient
       inkscape:collect="always"
       xlink:href="#linearGradient702"
       id="linearGradient2451"
       gradientTransform="scale(1.66567,0.600359)"
       x1="210.69629"
       y1="994.62329"
       x2="215.93205"
       y2="983.82104"
       gradientUnits="userSpaceOnUse" />
    <linearGradient
       inkscape:collect="always"
       xlink:href="#linearGradient662"
       id="linearGradient2453"
       x1="753.72913"
       y1="318.48154"
       x2="769.88824"
       y2="318.48154"
       gradientTransform="scale(0.656238,1.52384)"
       gradientUnits="userSpaceOnUse" />
    <linearGradient
       inkscape:collect="always"
       xlink:href="#linearGradient723"
       id="linearGradient2455"
       gradientTransform="scale(0.725561,1.37824)"
       x1="695.97632"
       y1="366.04816"
       x2="704.06763"
       y2="356.69254"
       gradientUnits="userSpaceOnUse" />
    <linearGradient
       inkscape:collect="always"
       xlink:href="#linearGradient662"
       id="linearGradient2485"
       gradientUnits="userSpaceOnUse"
       gradientTransform="matrix(1.89803,0,0,0.526862,-139.622,-366.871)"
       x1="114.38953"
       y1="782.28595"
       x2="319.05579"
       y2="992.64514" />
    <linearGradient
       inkscape:collect="always"
       xlink:href="#linearGradient662"
       id="linearGradient2487"
       gradientUnits="userSpaceOnUse"
       gradientTransform="matrix(1.87547,0,0,0.5332,-139.622,-366.871)"
       x1="117.36361"
       y1="881.43549"
       x2="297.29749"
       y2="973.06158" />
    <linearGradient
       inkscape:collect="always"
       xlink:href="#linearGradient662"
       id="linearGradient2489"
       gradientUnits="userSpaceOnUse"
       gradientTransform="matrix(1.87717,0,0,0.532717,-139.622,-366.871)"
       spreadMethod="reflect"
       x1="79.615402"
       y1="983.85266"
       x2="128.04625"
       y2="983.85809" />
    <linearGradient
       inkscape:collect="always"
       xlink:href="#linearGradient662"
       id="linearGradient2491"
       gradientUnits="userSpaceOnUse"
       gradientTransform="matrix(1.98419,0,0,0.503984,-139.622,-366.871)"
       spreadMethod="reflect"
       x1="71.826027"
       y1="941.45758"
       x2="115.08168"
       y2="939.13007" />
    <linearGradient
       inkscape:collect="always"
       xlink:href="#linearGradient662"
       id="linearGradient2493"
       gradientUnits="userSpaceOnUse"
       gradientTransform="matrix(2.51748,0,0,0.397222,-139.622,-366.871)"
       spreadMethod="reflect"
       x1="65.569817"
       y1="1363.2657"
       x2="104.15134"
       y2="1345.3002" />
    <linearGradient
       inkscape:collect="always"
       xlink:href="#linearGradient662"
       id="linearGradient2495"
       gradientUnits="userSpaceOnUse"
       gradientTransform="matrix(2.48264,0,0,0.402797,-139.622,-366.871)"
       spreadMethod="reflect"
       x1="66.687035"
       y1="1247.5718"
       x2="105.91934"
       y2="1229.3033" />
    <linearGradient
       inkscape:collect="always"
       xlink:href="#linearGradient662"
       id="linearGradient2497"
       gradientUnits="userSpaceOnUse"
       gradientTransform="scale(1.03175,0.969223)"
       x1="449.47934"
       y1="584.73096"
       x2="469.4697"
       y2="584.73096" />
    <linearGradient
       inkscape:collect="always"
       xlink:href="#linearGradient723"
       id="linearGradient2499"
       gradientUnits="userSpaceOnUse"
       gradientTransform="scale(0.941795,1.0618)"
       x1="541.83704"
       y1="536.29382"
       x2="553.81549"
       y2="536.29382" />
    <linearGradient
       inkscape:collect="always"
       xlink:href="#linearGradient662"
       id="linearGradient2501"
       gradientUnits="userSpaceOnUse"
       gradientTransform="scale(1.03175,0.969223)"
       x1="449.47934"
       y1="584.73096"
       x2="469.4697"
       y2="584.73096" />
    <linearGradient
       inkscape:collect="always"
       xlink:href="#linearGradient723"
       id="linearGradient2503"
       gradientUnits="userSpaceOnUse"
       gradientTransform="scale(0.941795,1.0618)"
       x1="541.83704"
       y1="536.29382"
       x2="553.81549"
       y2="536.29382" />
    <linearGradient
       inkscape:collect="always"
       xlink:href="#linearGradient662"
       id="linearGradient2505"
       gradientUnits="userSpaceOnUse"
       gradientTransform="scale(1.26491,0.790568)"
       x1="242.60658"
       y1="692.75824"
       x2="270.27655"
       y2="692.75824" />
    <linearGradient
       inkscape:collect="always"
       xlink:href="#linearGradient702"
       id="linearGradient2507"
       gradientUnits="userSpaceOnUse"
       gradientTransform="scale(1.66567,0.600359)"
       x1="210.69629"
       y1="994.62329"
       x2="215.93205"
       y2="983.82104" />
    <linearGradient
       inkscape:collect="always"
       xlink:href="#linearGradient662"
       id="linearGradient2509"
       gradientUnits="userSpaceOnUse"
       gradientTransform="scale(1.26491,0.790568)"
       x1="242.60658"
       y1="692.75824"
       x2="270.27655"
       y2="692.75824" />
    <linearGradient
       inkscape:collect="always"
       xlink:href="#linearGradient702"
       id="linearGradient2511"
       gradientUnits="userSpaceOnUse"
       gradientTransform="scale(1.66567,0.600359)"
       x1="210.69629"
       y1="994.62329"
       x2="215.93205"
       y2="983.82104" />
    <linearGradient
       inkscape:collect="always"
       xlink:href="#linearGradient662"
       id="linearGradient2513"
       gradientUnits="userSpaceOnUse"
       gradientTransform="scale(1.26491,0.790568)"
       x1="242.60658"
       y1="692.75824"
       x2="270.27655"
       y2="692.75824" />
    <linearGradient
       inkscape:collect="always"
       xlink:href="#linearGradient702"
       id="linearGradient2515"
       gradientUnits="userSpaceOnUse"
       gradientTransform="scale(1.47907,0.676099)"
       x1="-125.46559"
       y1="1137.5801"
       x2="-121.23284"
       y2="1128.8472" />
    <linearGradient
       inkscape:collect="always"
       xlink:href="#linearGradient662"
       id="linearGradient2517"
       gradientUnits="userSpaceOnUse"
       gradientTransform="scale(0.656238,1.52384)"
       x1="753.72913"
       y1="318.48154"
       x2="769.88824"
       y2="318.48154" />
    <linearGradient
       inkscape:collect="always"
       xlink:href="#linearGradient723"
       id="linearGradient2519"
       gradientUnits="userSpaceOnUse"
       gradientTransform="scale(0.725561,1.37824)"
       x1="695.97632"
       y1="366.04816"
       x2="704.06763"
       y2="356.69254" />
    <linearGradient
       inkscape:collect="always"
       xlink:href="#linearGradient662"
       id="linearGradient2521"
       gradientUnits="userSpaceOnUse"
       gradientTransform="scale(0.656238,1.52384)"
       x1="753.72913"
       y1="318.48154"
       x2="769.88824"
       y2="318.48154" />
    <linearGradient
       inkscape:collect="always"
       xlink:href="#linearGradient723"
       id="linearGradient2523"
       gradientUnits="userSpaceOnUse"
       gradientTransform="scale(0.725561,1.37824)"
       x1="695.97632"
       y1="366.04816"
       x2="704.06763"
       y2="356.69254" />
    <linearGradient
       inkscape:collect="always"
       xlink:href="#linearGradient662"
       id="linearGradient2558"
       gradientUnits="userSpaceOnUse"
       gradientTransform="matrix(2.0193481,0,0,0.32763,-113.5668,-298.40825)"
       spreadMethod="reflect"
       x1="66.687035"
       y1="1247.5718"
       x2="105.91934"
       y2="1229.3033" />
    <linearGradient
       inkscape:collect="always"
       xlink:href="#linearGradient662"
       id="linearGradient2561"
       gradientUnits="userSpaceOnUse"
       gradientTransform="matrix(2.0476865,0,0,0.3230954,-113.5668,-298.40825)"
       spreadMethod="reflect"
       x1="65.569817"
       y1="1363.2657"
       x2="104.15134"
       y2="1345.3002" />
    <linearGradient
       inkscape:collect="always"
       xlink:href="#linearGradient662"
       id="linearGradient2564"
       gradientUnits="userSpaceOnUse"
       gradientTransform="matrix(1.6139151,0,0,0.4099342,-113.5668,-298.40825)"
       spreadMethod="reflect"
       x1="71.826027"
       y1="941.45758"
       x2="115.08168"
       y2="939.13007" />
    <linearGradient
       inkscape:collect="always"
       xlink:href="#linearGradient662"
       id="linearGradient2567"
       gradientUnits="userSpaceOnUse"
       gradientTransform="matrix(1.5268664,0,0,0.4333053,-113.5668,-298.40825)"
       spreadMethod="reflect"
       x1="79.615402"
       y1="983.85266"
       x2="128.04625"
       y2="983.85809" />
    <linearGradient
       inkscape:collect="always"
       xlink:href="#linearGradient662"
       id="linearGradient2570"
       gradientUnits="userSpaceOnUse"
       gradientTransform="matrix(1.5254837,0,0,0.4336982,-113.5668,-298.40825)"
       x1="117.36361"
       y1="881.43549"
       x2="297.29749"
       y2="973.06158" />
    <linearGradient
       inkscape:collect="always"
       xlink:href="#linearGradient662"
       id="linearGradient2573"
       gradientUnits="userSpaceOnUse"
       gradientTransform="matrix(1.5438337,0,0,0.4285429,-113.5668,-298.40825)"
       x1="114.38953"
       y1="782.28595"
       x2="319.05579"
       y2="992.64514" />
    <linearGradient
       inkscape:collect="always"
       xlink:href="#linearGradient662"
       id="linearGradient2613"
       gradientUnits="userSpaceOnUse"
       gradientTransform="matrix(1.5268664,0,0,0.4333053,-113.5668,-298.40825)"
       spreadMethod="reflect"
       x1="79.615402"
       y1="983.85266"
       x2="128.04625"
       y2="983.85809" />
    <linearGradient
       inkscape:collect="always"
       xlink:href="#linearGradient662"
       id="linearGradient2615"
       gradientUnits="userSpaceOnUse"
       gradientTransform="matrix(1.6139151,0,0,0.4099342,-113.5668,-298.40825)"
       spreadMethod="reflect"
       x1="71.826027"
       y1="941.45758"
       x2="115.08168"
       y2="939.13007" />
    <linearGradient
       inkscape:collect="always"
       xlink:href="#linearGradient662"
       id="linearGradient2617"
       gradientUnits="userSpaceOnUse"
       gradientTransform="matrix(2.0476865,0,0,0.3230954,-113.5668,-298.40825)"
       spreadMethod="reflect"
       x1="65.569817"
       y1="1363.2657"
       x2="104.15134"
       y2="1345.3002" />
    <linearGradient
       inkscape:collect="always"
       xlink:href="#linearGradient662"
       id="linearGradient2619"
       gradientUnits="userSpaceOnUse"
       gradientTransform="matrix(2.0193481,0,0,0.32763,-113.5668,-298.40825)"
       spreadMethod="reflect"
       x1="66.687035"
       y1="1247.5718"
       x2="105.91934"
       y2="1229.3033" />
    <linearGradient
       inkscape:collect="always"
       xlink:href="#linearGradient662"
       id="linearGradient2621"
       gradientUnits="userSpaceOnUse"
       gradientTransform="scale(1.03175,0.969223)"
       x1="449.47934"
       y1="584.73096"
       x2="469.4697"
       y2="584.73096" />
    <linearGradient
       inkscape:collect="always"
       xlink:href="#linearGradient723"
       id="linearGradient2623"
       gradientUnits="userSpaceOnUse"
       gradientTransform="scale(0.941795,1.0618)"
       x1="541.83704"
       y1="536.29382"
       x2="553.81549"
       y2="536.29382" />
    <linearGradient
       inkscape:collect="always"
       xlink:href="#linearGradient662"
       id="linearGradient2625"
       gradientUnits="userSpaceOnUse"
       gradientTransform="scale(1.03175,0.969223)"
       x1="449.47934"
       y1="584.73096"
       x2="469.4697"
       y2="584.73096" />
    <linearGradient
       inkscape:collect="always"
       xlink:href="#linearGradient723"
       id="linearGradient2627"
       gradientUnits="userSpaceOnUse"
       gradientTransform="scale(0.941795,1.0618)"
       x1="541.83704"
       y1="536.29382"
       x2="553.81549"
       y2="536.29382" />
    <linearGradient
       inkscape:collect="always"
       xlink:href="#linearGradient662"
       id="linearGradient2629"
       gradientUnits="userSpaceOnUse"
       gradientTransform="scale(1.26491,0.790568)"
       x1="242.60658"
       y1="692.75824"
       x2="270.27655"
       y2="692.75824" />
    <linearGradient
       inkscape:collect="always"
       xlink:href="#linearGradient702"
       id="linearGradient2631"
       gradientUnits="userSpaceOnUse"
       gradientTransform="scale(1.66567,0.600359)"
       x1="210.69629"
       y1="994.62329"
       x2="215.93205"
       y2="983.82104" />
    <linearGradient
       inkscape:collect="always"
       xlink:href="#linearGradient662"
       id="linearGradient2633"
       gradientUnits="userSpaceOnUse"
       gradientTransform="scale(1.26491,0.790568)"
       x1="242.60658"
       y1="692.75824"
       x2="270.27655"
       y2="692.75824" />
    <linearGradient
       inkscape:collect="always"
       xlink:href="#linearGradient702"
       id="linearGradient2635"
       gradientUnits="userSpaceOnUse"
       gradientTransform="scale(1.66567,0.600359)"
       x1="210.69629"
       y1="994.62329"
       x2="215.93205"
       y2="983.82104" />
    <linearGradient
       inkscape:collect="always"
       xlink:href="#linearGradient662"
       id="linearGradient2637"
       gradientUnits="userSpaceOnUse"
       gradientTransform="scale(1.26491,0.790568)"
       x1="242.60658"
       y1="692.75824"
       x2="270.27655"
       y2="692.75824" />
    <linearGradient
       inkscape:collect="always"
       xlink:href="#linearGradient702"
       id="linearGradient2639"
       gradientUnits="userSpaceOnUse"
       gradientTransform="scale(1.47907,0.676099)"
       x1="-125.46559"
       y1="1137.5801"
       x2="-121.23284"
       y2="1128.8472" />
    <linearGradient
       inkscape:collect="always"
       xlink:href="#linearGradient662"
       id="linearGradient2641"
       gradientUnits="userSpaceOnUse"
       gradientTransform="scale(0.656238,1.52384)"
       x1="753.72913"
       y1="318.48154"
       x2="769.88824"
       y2="318.48154" />
    <linearGradient
       inkscape:collect="always"
       xlink:href="#linearGradient723"
       id="linearGradient2643"
       gradientUnits="userSpaceOnUse"
       gradientTransform="scale(0.725561,1.37824)"
       x1="695.97632"
       y1="366.04816"
       x2="704.06763"
       y2="356.69254" />
    <linearGradient
       inkscape:collect="always"
       xlink:href="#linearGradient662"
       id="linearGradient2645"
       gradientUnits="userSpaceOnUse"
       gradientTransform="scale(0.656238,1.52384)"
       x1="753.72913"
       y1="318.48154"
       x2="769.88824"
       y2="318.48154" />
    <linearGradient
       inkscape:collect="always"
       xlink:href="#linearGradient723"
       id="linearGradient2647"
       gradientUnits="userSpaceOnUse"
       gradientTransform="scale(0.725561,1.37824)"
       x1="695.97632"
       y1="366.04816"
       x2="704.06763"
       y2="356.69254" />
  </defs>
  <sodipodi:namedview
     id="base"
     showgrid="false"
     inkscape:zoom="1.2417144"
     inkscape:cx="36.065808"
     inkscape:cy="175.64625"
     inkscape:window-width="1440"
     inkscape:window-height="825"
     inkscape:window-x="0"
     inkscape:window-y="25"
     inkscape:current-layer="svg602" />
  <g
     id="g2575"
     transform="translate(3.4570215e-6,-55.08593)">
    <path
       style="font-size:12px;fill:url(#linearGradient2613);fill-rule:evenodd;stroke-width:1"
       sodipodi:nodetypes="ccccccc"
       id="path615"
       d="M 296.86871,83.911566 C 295.67198,111.18859 212.3624,131.75249 144.2857,130.15508 C 80.131795,128.64974 3.5550321,108.25137 4.3283195,80.397325 L 3.0741575,117.18098 C 2.4182419,142.11854 99.050377,162.64413 145.3405,163.73033 C 187.4699,164.71884 295.01305,148.6167 295.73087,119.93617 L 296.86871,83.911566 z" />
    <path
       style="font-size:12px;fill:url(#linearGradient2615);fill-rule:evenodd;stroke:none"
       sodipodi:nodetypes="cccccccccccccccccccccccccccccccccccccccccccccccccccccccccccccccccccccccccccccccccccccccccccccccccccccccccccc"
       id="path675"
       d="M 295.06617,86.607864 C 293.41572,87.380663 291.15084,86.465277 291.09277,85.802447 C 291.57438,84.101085 292.06965,79.344151 294.10076,76.398794 C 295.77674,68.580596 296.58948,59.52003 291.24967,78.25771 C 293.73294,72.796383 293.52097,66.732905 293.08223,64.490965 C 292.63902,61.600593 290.78401,57.680391 289.63396,55.08593 C 288.46813,58.826048 285.39475,61.404242 285.56727,70.19883 C 285.58093,72.599218 285.65178,73.913326 287.47263,78.413474 C 281.94078,75.958833 277.1871,82.358728 279.69477,91.627684 C 284.30643,80.935869 291.41528,82.268442 287.31035,90.939477 C 286.95027,91.716587 285.08704,94.589634 282.76254,98.4943 C 289.99689,94.015871 295.19517,87.226363 295.06617,86.607864 z M 270.97623,105.05224 C 265.83831,105.30862 266.18237,101.38061 266.73906,98.687399 C 267.5034,95.1939 271.70373,87.954833 277.3061,93.817811 C 281.72596,79.854389 273.41078,78.421526 267.78833,88.172252 C 270.4786,83.497877 270.13088,80.837124 268.29864,75.929714 C 266.46641,71.022304 265.63879,71.488944 263.9698,68.058808 C 262.25892,72.520645 260.29808,74.22038 259.29794,79.512523 C 258.48195,84.783924 258.99699,86.238586 261.81692,91.065796 C 254.25348,87.140958 245.41074,96.481004 249.97229,105.02824 C 255.09184,97.215981 262.27885,96.673045 261.71118,102.89521 C 261.30815,105.33456 260.97978,107.53901 257.21583,111.21584 C 261.67783,109.79217 267.9815,107.22 270.97623,105.05224 z M 238.42602,117.34309 C 234.50801,115.66841 234.13385,113.8587 234.58097,111.31808 C 235.20297,108.02086 239.91395,102.80273 247.4233,106.2567 C 251.6765,95.620603 241.93562,92.462057 233.51755,101.60339 C 235.80959,97.339453 236.56214,92.629696 235.24608,88.746503 C 233.87251,85.038758 231.53427,82.690915 229.36,79.554331 C 227.22185,83.180168 223.37534,87.419136 223.08301,91.303793 C 222.79881,95.188531 224.39403,99.318262 227.16182,103.70803 C 214.8669,97.111623 207.26986,107.43961 213.66903,114.88219 C 217.37962,108.97488 225.27248,107.1228 227.52321,112.5197 C 228.83097,115.90421 226.42985,117.40255 222.81841,120.99861 L 238.42602,117.34309 z M 183.99356,126.86281 C 187.5466,123.57168 188.74309,119.75779 186.92704,117.00301 C 183.20588,111.71404 176.15788,113.25199 171.54564,118.08425 C 164.05215,109.3675 176.74384,99.670052 187.13055,107.40716 C 185.31353,104.41324 182.80634,100.8733 183.36026,95.938149 C 183.91426,91.003084 187.35171,88.101324 190.08372,84.553084 C 192.90926,88.084243 194.60501,87.977608 196.41797,92.63482 C 198.23093,97.291951 194.89124,103.50656 193.64278,106.47615 C 202.64201,98.132343 215.24187,105.70303 209.60079,115.77122 C 205.60372,110.39375 196.83313,110.77865 194.80804,116.28886 C 193.38664,120.49074 195.48217,123.25747 199.70292,125.36504 L 183.99356,126.86281 z M 156.018,129.51031 C 150.93563,125.0671 150.07287,121.84909 151.73389,118.76579 C 154.4153,114.39236 162.39845,113.05735 167.51661,118.43539 C 174.20241,109.08477 161.67267,100.46522 152.01776,109.09835 C 153.56043,105.95428 157.11339,101.08844 156.12138,96.222428 C 155.12921,91.356501 150.62638,89.876949 148.93087,86.028976 C 146.43174,89.798213 142.93238,91.389849 141.5423,96.190218 C 140.15214,100.99059 142.96329,105.99886 144.47188,108.84522 C 133.08397,100.5124 121.59943,109.13512 129.09292,118.56659 C 134.15235,113.6909 141.34075,113.58825 144.18679,118.72276 C 146.44248,122.49037 145.13707,125.87479 140.23771,129.42027 L 156.018,129.51031 z M 111.88685,127.67775 C 108.37163,124.34627 107.21874,120.51896 109.06602,117.78508 C 112.84738,112.5389 119.87732,114.15713 124.43408,119.04177 C 132.02657,110.411 119.44631,100.56941 108.972,108.18752 C 110.8231,105.21451 113.37055,101.70344 112.87292,96.762355 C 112.37521,91.82127 108.9711,88.880387 106.27976,85.301238 C 103.4142,88.800024 101.71967,88.67403 99.85376,93.310257 C 97.987768,97.946403 101.25628,104.19867 102.47083,107.18225 C 93.567414,98.736364 80.881901,106.16284 86.407815,116.2948 C 90.466049,110.9632 99.2316,111.44815 101.19373,116.98113 C 102.56706,121.19895 100.44013,123.94153 96.195631,126.00087 L 111.88685,127.67775 z M 58.052801,118.27613 C 61.989677,116.64626 62.384414,114.84103 61.966415,112.29545 C 61.381996,108.99131 56.730884,103.71975 49.182567,107.08782 C 45.051048,96.403895 54.827232,93.356702 63.140539,102.59345 C 60.897298,98.303642 60.198436,93.585589 61.558826,89.717769 C 62.974527,86.025885 65.339369,83.704884 67.549343,80.59327 C 69.64593,84.243265 73.44388,88.525831 73.691882,92.413579 C 73.93175,96.301327 72.289521,100.41251 69.471865,104.77048 C 81.841214,98.314786 89.319905,108.72875 82.836231,116.09779 C 79.193309,110.14852 71.322078,108.20655 69.009943,113.57743 C 67.663705,116.94681 70.0475,118.47248 73.617701,122.10954 L 58.052801,118.27613 z M 26.377788,106.10956 C 31.512458,106.4245 31.213294,102.49283 30.687358,99.793443 C 29.962955,96.291403 25.845426,89.004916 20.176522,94.803636 C 15.916243,80.79068 24.247201,79.452739 29.758063,89.267071 C 27.121305,84.562276 27.499368,81.905671 29.387484,77.019409 C 31.2756,72.133309 32.097853,72.609304 33.805804,69.198364 C 35.465684,73.679478 37.406995,75.4015 38.346702,80.704705 C 39.102501,85.985053 38.570871,87.433696 35.696116,92.228533 C 43.30381,88.390158 52.039428,97.830495 47.38067,106.32519 C 42.350601,98.454932 35.170261,97.830088 35.666916,104.05836 C 36.04205,106.50218 36.345281,108.71012 40.067016,112.42966 C 35.621529,110.95523 29.347709,108.31132 26.377788,106.10956 z M 3.6084717,87.205053 C 5.48821,89.224287 6.9001692,88.522659 6.9699578,87.124771 C 6.9715032,85.356548 6.8248495,76.736106 3.3308626,78.173768 C 1.7441878,70.336943 1.5589795,55.384687 6.9018773,79.08826 C 5.2182467,73.357864 4.9962733,69.501595 5.4605548,67.26486 C 5.9367931,64.379694 7.8335312,60.971357 9.0131054,58.390316 C 10.136149,62.143367 13.182773,64.265982 12.909882,73.05805 C 12.868887,75.458112 12.783075,76.771407 10.911064,81.250406 C 16.761922,70.767469 21.150879,85.312788 18.537546,94.552544 C 14.048217,83.808835 6.9246521,85.06015 10.930341,93.777467 C 11.281561,94.558644 13.111927,97.452758 15.391689,101.38362 C 8.2089092,96.823033 3.472392,87.822007 3.6084717,87.205053 z" />
    <path
       style="font-size:12px;fill:url(#linearGradient2617);fill-rule:evenodd"
       sodipodi:nodetypes="ccsccsc"
       id="path690"
       d="M 3.0436555,119.06405 C 1.6790354,119.06405 1.3929671,123.34776 3.2343135,125.03171 C 24.643158,154.41346 106.03729,164.81791 149.20075,164.28677 C 213.72393,163.49518 287.36786,145.21267 295.49702,123.30839 C 296.46422,120.25282 296.4643,117.70114 295.49702,117.8809 C 286.15404,139.55279 227.92079,156.05057 148.98277,159.2301 C 94.994421,161.41876 24.541647,146.73427 3.0436555,119.06405 z" />
    <path
       style="font-size:12px;fill:url(#linearGradient2619);fill-rule:evenodd"
       sodipodi:nodetypes="ccsccsc"
       id="path692"
       d="M 296.26404,85.395835 C 297.62858,85.385261 297.94775,88.141587 296.1195,91.364797 C 277.98885,121.92807 193.62748,133.47037 150.46118,133.27328 C 85.933854,132.98095 33.927812,123.74282 4.2116798,93.425351 C 2.3305588,91.462729 1.045732,88.022182 4.1696277,87.998024 C 35.093884,117.56539 85.945161,129.60311 150.64004,128.21507 C 204.66035,127.06095 278.03099,114.75668 296.26404,85.395835 z" />
    <g
       transform="matrix(0.5212105,-0.6244505,0.6244505,0.5212105,-391.94131,135.53718)"
       id="g731">
      <path
         style="font-size:12px;fill:url(#linearGradient2621);fill-rule:evenodd"
         id="path722"
         d="M 469.0176,568.1882 C 466.9575,568.1882 465.299,569.8467 465.299,571.9069 L 465.299,580.9383 C 465.299,582.9984 466.9575,584.657 469.0176,584.657 L 479.1116,584.657 C 481.1717,584.657 482.8303,582.9984 482.8303,580.9383 L 482.8303,571.9069 C 482.8303,569.8467 481.1717,568.1882 479.1116,568.1882 L 469.0176,568.1882 z M 468.127,566.735 C 465.7033,566.735 463.752,568.6863 463.752,571.11 L 463.752,581.7352 C 463.752,584.1589 465.7033,586.1101 468.127,586.1101 L 480.0022,586.1101 C 482.4259,586.1101 484.3771,584.1589 484.3771,581.7352 L 484.3771,571.11 C 484.3771,568.6863 482.4259,566.735 480.0022,566.735 L 468.127,566.735 z" />
      <g
         transform="translate(-40.0002,0.624969)"
         id="g728">
        <rect
           y="567.56317"
           x="505.2991"
           width="17.531328"
           style="font-size:12px;fill:#007d00;fill-opacity:1;fill-rule:evenodd"
           ry="3.7186983"
           id="rect727"
           height="16.468801" />
        <rect
           y="569.43817"
           x="510.29916"
           width="11.281287"
           style="font-size:12px;fill:url(#linearGradient2623);fill-opacity:1;fill-rule:evenodd"
           ry="2.8719389"
           id="rect719"
           height="12.718804" />
      </g>
    </g>
    <g
       transform="matrix(0.5683406,-0.5818827,0.5818827,0.5683406,-520.90633,89.715003)"
       id="g736">
      <path
         style="font-size:12px;fill:url(#linearGradient2625);fill-rule:evenodd"
         id="path737"
         d="M 469.0176,568.1882 C 466.9575,568.1882 465.299,569.8467 465.299,571.9069 L 465.299,580.9383 C 465.299,582.9984 466.9575,584.657 469.0176,584.657 L 479.1116,584.657 C 481.1717,584.657 482.8303,582.9984 482.8303,580.9383 L 482.8303,571.9069 C 482.8303,569.8467 481.1717,568.1882 479.1116,568.1882 L 469.0176,568.1882 z M 468.127,566.735 C 465.7033,566.735 463.752,568.6863 463.752,571.11 L 463.752,581.7352 C 463.752,584.1589 465.7033,586.1101 468.127,586.1101 L 480.0022,586.1101 C 482.4259,586.1101 484.3771,584.1589 484.3771,581.7352 L 484.3771,571.11 C 484.3771,568.6863 482.4259,566.735 480.0022,566.735 L 468.127,566.735 z" />
      <g
         transform="translate(-40.0002,0.624969)"
         id="g738">
        <rect
           y="567.56317"
           x="505.2991"
           width="17.531328"
           style="font-size:12px;fill:#007d00;fill-opacity:1;fill-rule:evenodd"
           ry="3.7186983"
           id="rect739"
           height="16.468801" />
        <rect
           y="569.43817"
           x="510.29916"
           width="11.281287"
           style="font-size:12px;fill:url(#linearGradient2627);fill-opacity:1;fill-rule:evenodd"
           ry="2.8719389"
           id="rect740"
           height="12.718804" />
      </g>
    </g>
    <g
       transform="matrix(0.8133874,0,0,0.8133874,-116.08342,-298.76777)"
       id="g741">
      <path
         style="font-size:12px;fill:url(#linearGradient2629);fill-rule:evenodd"
         id="path698"
         d="M 318.7981,538.3757 C 313.6476,538.3757 309.5012,542.5222 309.5012,547.6726 C 309.5012,552.8231 313.6476,556.9695 318.7981,556.9695 L 329.9544,556.9695 C 335.1049,556.9695 339.2513,552.8231 339.2513,547.6726 C 339.2513,542.5222 335.1049,538.3757 329.9544,538.3757 L 318.7981,538.3757 z M 317.8137,536.7352 C 311.7543,536.7352 306.8762,541.6133 306.8762,547.6727 C 306.8762,553.7321 311.7543,558.6102 317.8137,558.6102 L 330.9388,558.6102 C 336.9981,558.6102 341.8763,553.7321 341.8763,547.6727 C 341.8763,541.6133 336.9981,536.7352 330.9388,536.7352 L 317.8137,536.7352 z" />
      <g
         transform="translate(-24.3751,-50.6252)"
         id="g705">
        <rect
           y="589.00079"
           x="334.50137"
           width="29.750078"
           style="font-size:12px;fill:#e50000;fill-opacity:1;fill-rule:evenodd"
           ry="9.2969007"
           id="rect695"
           height="18.593801" />
        <rect
           y="590.87579"
           x="340.75153"
           width="20.375002"
           style="font-size:12px;fill:url(#linearGradient2631);fill-opacity:1;fill-rule:evenodd"
           ry="3.6718967"
           id="rect700"
           height="7.3437934" />
      </g>
    </g>
    <g
       transform="matrix(0.6168413,0.2944934,-0.336513,0.7650258,15.808001,-389.4141)"
       id="g756">
      <path
         style="font-size:12px;fill:url(#linearGradient2633);fill-rule:evenodd"
         id="path757"
         d="M 318.7981,538.3757 C 313.6476,538.3757 309.5012,542.5222 309.5012,547.6726 C 309.5012,552.8231 313.6476,556.9695 318.7981,556.9695 L 329.9544,556.9695 C 335.1049,556.9695 339.2513,552.8231 339.2513,547.6726 C 339.2513,542.5222 335.1049,538.3757 329.9544,538.3757 L 318.7981,538.3757 z M 317.8137,536.7352 C 311.7543,536.7352 306.8762,541.6133 306.8762,547.6727 C 306.8762,553.7321 311.7543,558.6102 317.8137,558.6102 L 330.9388,558.6102 C 336.9981,558.6102 341.8763,553.7321 341.8763,547.6727 C 341.8763,541.6133 336.9981,536.7352 330.9388,536.7352 L 317.8137,536.7352 z" />
      <g
         transform="translate(-24.3751,-50.6252)"
         id="g758">
        <rect
           y="589.00079"
           x="334.50137"
           width="29.750078"
           style="font-size:12px;fill:#e50000;fill-opacity:1;fill-rule:evenodd"
           ry="9.2969007"
           id="rect759"
           height="18.593801" />
        <rect
           y="590.87579"
           x="340.75153"
           width="20.375002"
           style="font-size:12px;fill:url(#linearGradient2635);fill-opacity:1;fill-rule:evenodd"
           ry="3.6718967"
           id="rect760"
           height="7.3437934" />
      </g>
    </g>
    <g
       transform="matrix(0.8133874,0,0,0.8133874,-107.97476,-383.81474)"
       id="g772">
      <path
         transform="matrix(-0.758242,0.362307,0.414026,0.940407,478.926,-5.64075)"
         style="font-size:12px;fill:url(#linearGradient2637);fill-rule:evenodd"
         id="path762"
         d="M 318.7981,538.3757 C 313.6476,538.3757 309.5012,542.5222 309.5012,547.6726 C 309.5012,552.8231 313.6476,556.9695 318.7981,556.9695 L 329.9544,556.9695 C 335.1049,556.9695 339.2513,552.8231 339.2513,547.6726 C 339.2513,542.5222 335.1049,538.3757 329.9544,538.3757 L 318.7981,538.3757 z M 317.8137,536.7352 C 311.7543,536.7352 306.8762,541.6133 306.8762,547.6727 C 306.8762,553.7321 311.7543,558.6102 317.8137,558.6102 L 330.9388,558.6102 C 336.9981,558.6102 341.8763,553.7321 341.8763,547.6727 C 341.8763,541.6133 336.9981,536.7352 330.9388,536.7352 L 317.8137,536.7352 z" />
      <rect
         y="589.00079"
         x="334.50137"
         width="29.750078"
         transform="matrix(-0.758242,0.362307,0.414026,0.940407,476.448,-62.0803)"
         style="font-size:12px;fill:#e50000;fill-rule:evenodd"
         ry="9.2969007"
         id="rect764"
         height="18.593801" />
      <rect
         y="763.42181"
         x="-192.89398"
         width="14.626519"
         transform="matrix(-0.892476,0.451094,0.384255,0.923227,0,0)"
         style="font-size:12px;fill:url(#linearGradient2639);fill-rule:evenodd"
         ry="3.3429668"
         id="rect765"
         height="6.6859336" />
    </g>
    <g
       transform="matrix(0.8133874,0,0,0.8133874,-113.5668,-298.40825)"
       id="g793">
      <path
         style="font-size:12px;fill:url(#linearGradient2641);fill-rule:evenodd;stroke:none;stroke-opacity:1"
         sodipodi:nodetypes="cccccsccccs"
         id="path777"
         d="M 504.0674,506.7257 C 504.3894,505.5752 502.1236,508.2076 501.4901,507.9189 L 499.1225,506.6852 C 497.0525,505.9546 496.8801,503.2529 497.3897,501.5146 L 502.2149,488.7898 C 503.0558,486.941 505.4665,488.5314 505.2112,487.8318 C 504.4238,485.5952 502.5023,484.2609 501.3048,486.3776 L 495.1511,501.422 C 494.3956,503.5387 494.1816,506.8482 496.4087,507.8246 L 501.1412,509.8183 C 502.374,510.3529 503.5157,509.0543 504.0674,506.7257 z" />
      <path
         style="font-size:12px;fill:#007d00;fill-rule:evenodd"
         sodipodi:nodetypes="ccccsscc"
         id="path789"
         d="M 497.2145,501.7565 C 496.4918,503.6857 497.3851,506.055 499.3143,506.7777 L 501.053,507.7583 C 501.4978,508.0904 502.3827,508.0566 503.418,507.2211 C 505.6054,505.3461 507.5976,501.6326 508.3746,498.9192 C 508.7909,497.5075 507.4757,488.5751 504.6046,487.626 C 504.2206,487.4956 502.6499,487.406 502.1617,488.6321 L 497.2145,501.7565 z" />
      <path
         transform="matrix(0.949972,0.312336,-0.312336,0.949972,176.357,-134.233)"
         style="font-size:12px;fill:url(#linearGradient2643);fill-rule:evenodd;stroke-width:1"
         sodipodi:nodetypes="cssss"
         id="path791"
         d="M 512.7383,497.9829 C 512.4276,499.1161 508.7096,503.7533 506.3819,504.9162 C 504.6967,505.7581 504.2388,503.0544 504.3769,497.6393 C 504.4086,496.3996 503.9808,489.1193 506.4164,489.0824 C 508.8752,489.0451 513.1743,496.6051 512.7383,497.9829 z" />
    </g>
    <g
       transform="matrix(-0.8133874,0,0,0.8133874,413.5668,-297.89988)"
       id="g797">
      <path
         style="font-size:12px;fill:url(#linearGradient2645);fill-rule:evenodd;stroke:none;stroke-opacity:1"
         sodipodi:nodetypes="cccccsccccs"
         id="path798"
         d="M 504.0674,506.7257 C 504.3894,505.5752 502.1236,508.2076 501.4901,507.9189 L 499.1225,506.6852 C 497.0525,505.9546 496.8801,503.2529 497.3897,501.5146 L 502.2149,488.7898 C 503.0558,486.941 505.4665,488.5314 505.2112,487.8318 C 504.4238,485.5952 502.5023,484.2609 501.3048,486.3776 L 495.1511,501.422 C 494.3956,503.5387 494.1816,506.8482 496.4087,507.8246 L 501.1412,509.8183 C 502.374,510.3529 503.5157,509.0543 504.0674,506.7257 z" />
      <path
         style="font-size:12px;fill:#007d00;fill-rule:evenodd"
         sodipodi:nodetypes="ccccsscc"
         id="path799"
         d="M 497.2145,501.7565 C 496.4918,503.6857 497.3851,506.055 499.3143,506.7777 L 501.053,507.7583 C 501.4978,508.0904 502.3827,508.0566 503.418,507.2211 C 505.6054,505.3461 507.5976,501.6326 508.3746,498.9192 C 508.7909,497.5075 507.4757,488.5751 504.6046,487.626 C 504.2206,487.4956 502.6499,487.406 502.1617,488.6321 L 497.2145,501.7565 z" />
      <path
         transform="matrix(0.949972,0.312336,-0.312336,0.949972,176.357,-134.233)"
         style="font-size:12px;fill:url(#linearGradient2647);fill-rule:evenodd;stroke-width:1"
         sodipodi:nodetypes="cssss"
         id="path800"
         d="M 512.7383,497.9829 C 512.4276,499.1161 508.7096,503.7533 506.3819,504.9162 C 504.6967,505.7581 504.2388,503.0544 504.3769,497.6393 C 504.4086,496.3996 503.9808,489.1193 506.4164,489.0824 C 508.8752,489.0451 513.1743,496.6051 512.7383,497.9829 z" />
    </g>
  </g>
</svg>
