<?xml version="1.0" encoding="UTF-8" standalone="no"?>
<!-- Created with Sodipodi ("http://www.sodipodi.com/") -->
<svg
   xmlns:dc="http://purl.org/dc/elements/1.1/"
   xmlns:cc="http://creativecommons.org/ns#"
   xmlns:rdf="http://www.w3.org/1999/02/22-rdf-syntax-ns#"
   xmlns:svg="http://www.w3.org/2000/svg"
   xmlns="http://www.w3.org/2000/svg"
   xmlns:xlink="http://www.w3.org/1999/xlink"
   xmlns:sodipodi="http://sodipodi.sourceforge.net/DTD/sodipodi-0.dtd"
   xmlns:inkscape="http://www.inkscape.org/namespaces/inkscape"
   height="164.306"
   id="svg602"
   sodipodi:docbase="/home/franck/Dessins/Vectoriels"
   sodipodi:docname="Anonymous_Crown.svg"
   sodipodi:version="0.32"
   space="preserve"
   width="300"
   inkscape:version="0.46"
   inkscape:output_extension="org.inkscape.output.svg.inkscape"
   version="1.0"
   inkscape:export-filename="C:\joanna\Gfx\drawings_vector\admin\thumbs\Franck Doucet\couronne_01.png"
   inkscape:export-xdpi="89.065941"
   inkscape:export-ydpi="89.065941">
  <metadata
     id="metadata3">
    <rdf:RDF>
      <cc:Work
         rdf:about="">
        <dc:title>couronne</dc:title>
        <dc:description />
        <dc:subject>
          <rdf:Bag>
            <rdf:li />
            <rdf:li>festive</rdf:li>
            <rdf:li>party</rdf:li>
            <rdf:li>recreation</rdf:li>
          </rdf:Bag>
        </dc:subject>
        <dc:publisher>
          <cc:Agent
             rdf:about="http://www.openclipart.org">
            <dc:title>Open Clip Art Library</dc:title>
          </cc:Agent>
        </dc:publisher>
        <dc:creator>
          <cc:Agent>
            <dc:title>Franck Doucet</dc:title>
          </cc:Agent>
        </dc:creator>
        <dc:rights>
          <cc:Agent>
            <dc:title />
          </cc:Agent>
        </dc:rights>
        <dc:date />
        <dc:format>image/svg+xml</dc:format>
        <dc:type
           rdf:resource="http://purl.org/dc/dcmitype/StillImage" />
        <cc:license
           rdf:resource="http://creativecommons.org/licenses/publicdomain/" />
        <dc:language>en</dc:language>
      </cc:Work>
      <cc:License
         rdf:about="http://creativecommons.org/licenses/publicdomain/">
        <cc:permits
           rdf:resource="http://creativecommons.org/ns#Reproduction" />
        <cc:permits
           rdf:resource="http://creativecommons.org/ns#Distribution" />
        <cc:permits
           rdf:resource="http://creativecommons.org/ns#DerivativeWorks" />
      </cc:License>
    </rdf:RDF>
  </metadata>
  <defs
     id="defs604">
    <linearGradient
       id="linearGradient723">
      <stop
         id="stop724"
         offset="0"
         style="stop-color: rgb(0, 106, 0); stop-opacity: 1;" />
      <stop
         id="stop725"
         offset="1"
         style="stop-color: rgb(255, 255, 183); stop-opacity: 1;" />
    </linearGradient>
    <linearGradient
       id="linearGradient702">
      <stop
         id="stop703"
         offset="0"
         style="stop-color: rgb(255, 90, 0); stop-opacity: 1;" />
      <stop
         id="stop704"
         offset="1"
         style="stop-color: rgb(255, 255, 255); stop-opacity: 1;" />
    </linearGradient>
    <linearGradient
       id="linearGradient662">
      <stop
         id="stop663"
         offset="0"
         style="stop-color: rgb(133, 61, 0); stop-opacity: 1;" />
      <stop
         id="stop664"
         offset="1"
         style="stop-color: rgb(255, 234, 0); stop-opacity: 1;" />
    </linearGradient>
    <linearGradient
       id="linearGradient665"
       spreadMethod="reflect"
       x1="79.615402"
       x2="128.04625"
       xlink:href="#linearGradient662"
       y1="983.85266"
       y2="983.85809"
       gradientTransform="matrix(1.87717,0,0,0.532717,-139.622,-366.871)"
       gradientUnits="userSpaceOnUse" />
    <linearGradient
       id="linearGradient676"
       spreadMethod="reflect"
       x1="71.826027"
       x2="115.08168"
       xlink:href="#linearGradient662"
       y1="941.45758"
       y2="939.13007"
       gradientTransform="matrix(1.98419,0,0,0.503984,-139.622,-366.871)"
       gradientUnits="userSpaceOnUse" />
    <linearGradient
       id="linearGradient687"
       x1="114.38953"
       x2="319.05579"
       xlink:href="#linearGradient662"
       y1="782.28595"
       y2="992.64514"
       gradientTransform="matrix(1.89803,0,0,0.526862,-139.622,-366.871)"
       gradientUnits="userSpaceOnUse" />
    <linearGradient
       id="linearGradient688"
       x1="117.36361"
       x2="297.29749"
       xlink:href="#linearGradient662"
       y1="881.43549"
       y2="973.06158"
       gradientTransform="matrix(1.87547,0,0,0.5332,-139.622,-366.871)"
       gradientUnits="userSpaceOnUse" />
    <linearGradient
       id="linearGradient691"
       spreadMethod="reflect"
       x1="66.687035"
       x2="105.91934"
       xlink:href="#linearGradient662"
       y1="1247.5718"
       y2="1229.3033"
       gradientTransform="matrix(2.48264,0,0,0.402797,-139.622,-366.871)"
       gradientUnits="userSpaceOnUse" />
    <linearGradient
       id="linearGradient699"
       xlink:href="#linearGradient662"
       gradientTransform="scale(1.26491,0.790568)"
       x1="242.60658"
       y1="692.75824"
       x2="270.27655"
       y2="692.75824"
       gradientUnits="userSpaceOnUse" />
    <linearGradient
       gradientTransform="scale(1.47907,0.676099)"
       id="linearGradient701"
       x1="-125.46559"
       x2="-121.23284"
       xlink:href="#linearGradient702"
       y1="1137.5801"
       y2="1128.8472"
       gradientUnits="userSpaceOnUse" />
    <linearGradient
       id="linearGradient711"
       x1="753.72913"
       x2="769.88824"
       xlink:href="#linearGradient662"
       y1="318.48154"
       y2="318.48154"
       gradientTransform="scale(0.656238,1.52384)"
       gradientUnits="userSpaceOnUse" />
    <linearGradient
       gradientTransform="scale(0.941795,1.0618)"
       id="linearGradient726"
       x1="541.83704"
       x2="553.81549"
       xlink:href="#linearGradient723"
       y1="536.29382"
       y2="536.29382"
       gradientUnits="userSpaceOnUse" />
    <linearGradient
       gradientTransform="scale(0.725561,1.37824)"
       id="linearGradient792"
       x1="695.97632"
       x2="704.06763"
       xlink:href="#linearGradient723"
       y1="366.04816"
       y2="356.69254"
       gradientUnits="userSpaceOnUse" />
    <linearGradient
       inkscape:collect="always"
       xlink:href="#linearGradient662"
       id="linearGradient2437"
       spreadMethod="reflect"
       x1="65.569817"
       y1="1363.2657"
       x2="104.15134"
       y2="1345.3002"
       gradientTransform="matrix(2.51748,0,0,0.397222,-139.622,-366.871)"
       gradientUnits="userSpaceOnUse" />
    <linearGradient
       inkscape:collect="always"
       xlink:href="#linearGradient662"
       id="linearGradient2439"
       x1="449.47934"
       y1="584.73096"
       x2="469.4697"
       y2="584.73096"
       gradientTransform="scale(1.03175,0.969223)"
       gradientUnits="userSpaceOnUse" />
    <linearGradient
       inkscape:collect="always"
       xlink:href="#linearGradient723"
       id="linearGradient2441"
       gradientTransform="scale(0.941795,1.0618)"
       x1="541.83704"
       y1="536.29382"
       x2="553.81549"
       y2="536.29382"
       gradientUnits="userSpaceOnUse" />
    <linearGradient
       inkscape:collect="always"
       xlink:href="#linearGradient662"
       id="linearGradient2443"
       x1="449.47934"
       y1="584.73096"
       x2="469.4697"
       y2="584.73096"
       gradientTransform="scale(1.03175,0.969223)"
       gradientUnits="userSpaceOnUse" />
    <linearGradient
       inkscape:collect="always"
       xlink:href="#linearGradient662"
       id="linearGradient2445"
       gradientTransform="scale(1.26491,0.790568)"
       x1="242.60658"
       y1="692.75824"
       x2="270.27655"
       y2="692.75824"
       gradientUnits="userSpaceOnUse" />
    <linearGradient
       inkscape:collect="always"
       xlink:href="#linearGradient702"
       id="linearGradient2447"
       gradientTransform="scale(1.66567,0.600359)"
       x1="210.69629"
       y1="994.62329"
       x2="215.93205"
       y2="983.82104"
       gradientUnits="userSpaceOnUse" />
    <linearGradient
       inkscape:collect="always"
       xlink:href="#linearGradient662"
       id="linearGradient2449"
       gradientTransform="scale(1.26491,0.790568)"
       x1="242.60658"
       y1="692.75824"
       x2="270.27655"
       y2="692.75824"
       gradientUnits="userSpaceOnUse" />
    <linearGradient
       inkscape:collect="always"
       xlink:href="#linearGradient702"
       id="linearGradient2451"
       gradientTransform="scale(1.66567,0.600359)"
       x1="210.69629"
       y1="994.62329"
       x2="215.93205"
       y2="983.82104"
       gradientUnits="userSpaceOnUse" />
    <linearGradient
       inkscape:collect="always"
       xlink:href="#linearGradient662"
       id="linearGradient2453"
       x1="753.72913"
       y1="318.48154"
       x2="769.88824"
       y2="318.48154"
       gradientTransform="scale(0.656238,1.52384)"
       gradientUnits="userSpaceOnUse" />
    <linearGradient
       inkscape:collect="always"
       xlink:href="#linearGradient723"
       id="linearGradient2455"
       gradientTransform="scale(0.725561,1.37824)"
       x1="695.97632"
       y1="366.04816"
       x2="704.06763"
       y2="356.69254"
       gradientUnits="userSpaceOnUse" />
    <linearGradient
       inkscape:collect="always"
       xlink:href="#linearGradient662"
       id="linearGradient2485"
       gradientUnits="userSpaceOnUse"
       gradientTransform="matrix(1.89803,0,0,0.526862,-139.622,-366.871)"
       x1="114.38953"
       y1="782.28595"
       x2="319.05579"
       y2="992.64514" />
    <linearGradient
       inkscape:collect="always"
       xlink:href="#linearGradient662"
       id="linearGradient2487"
       gradientUnits="userSpaceOnUse"
       gradientTransform="matrix(1.87547,0,0,0.5332,-139.622,-366.871)"
       x1="117.36361"
       y1="881.43549"
       x2="297.29749"
       y2="973.06158" />
    <linearGradient
       inkscape:collect="always"
       xlink:href="#linearGradient662"
       id="linearGradient2489"
       gradientUnits="userSpaceOnUse"
       gradientTransform="matrix(1.87717,0,0,0.532717,-139.622,-366.871)"
       spreadMethod="reflect"
       x1="79.615402"
       y1="983.85266"
       x2="128.04625"
       y2="983.85809" />
    <linearGradient
       inkscape:collect="always"
       xlink:href="#linearGradient662"
       id="linearGradient2491"
       gradientUnits="userSpaceOnUse"
       gradientTransform="matrix(1.98419,0,0,0.503984,-139.622,-366.871)"
       spreadMethod="reflect"
       x1="71.826027"
       y1="941.45758"
       x2="115.08168"
       y2="939.13007" />
    <linearGradient
       inkscape:collect="always"
       xlink:href="#linearGradient662"
       id="linearGradient2493"
       gradientUnits="userSpaceOnUse"
       gradientTransform="matrix(2.51748,0,0,0.397222,-139.622,-366.871)"
       spreadMethod="reflect"
       x1="65.569817"
       y1="1363.2657"
       x2="104.15134"
       y2="1345.3002" />
    <linearGradient
       inkscape:collect="always"
       xlink:href="#linearGradient662"
       id="linearGradient2495"
       gradientUnits="userSpaceOnUse"
       gradientTransform="matrix(2.48264,0,0,0.402797,-139.622,-366.871)"
       spreadMethod="reflect"
       x1="66.687035"
       y1="1247.5718"
       x2="105.91934"
       y2="1229.3033" />
    <linearGradient
       inkscape:collect="always"
       xlink:href="#linearGradient662"
       id="linearGradient2497"
       gradientUnits="userSpaceOnUse"
       gradientTransform="scale(1.03175,0.969223)"
       x1="449.47934"
       y1="584.73096"
       x2="469.4697"
       y2="584.73096" />
    <linearGradient
       inkscape:collect="always"
       xlink:href="#linearGradient723"
       id="linearGradient2499"
       gradientUnits="userSpaceOnUse"
       gradientTransform="scale(0.941795,1.0618)"
       x1="541.83704"
       y1="536.29382"
       x2="553.81549"
       y2="536.29382" />
    <linearGradient
       inkscape:collect="always"
       xlink:href="#linearGradient662"
       id="linearGradient2501"
       gradientUnits="userSpaceOnUse"
       gradientTransform="scale(1.03175,0.969223)"
       x1="449.47934"
       y1="584.73096"
       x2="469.4697"
       y2="584.73096" />
    <linearGradient
       inkscape:collect="always"
       xlink:href="#linearGradient723"
       id="linearGradient2503"
       gradientUnits="userSpaceOnUse"
       gradientTransform="scale(0.941795,1.0618)"
       x1="541.83704"
       y1="536.29382"
       x2="553.81549"
       y2="536.29382" />
    <linearGradient
       inkscape:collect="always"
       xlink:href="#linearGradient662"
       id="linearGradient2505"
       gradientUnits="userSpaceOnUse"
       gradientTransform="scale(1.26491,0.790568)"
       x1="242.60658"
       y1="692.75824"
       x2="270.27655"
       y2="692.75824" />
    <linearGradient
       inkscape:collect="always"
       xlink:href="#linearGradient702"
       id="linearGradient2507"
       gradientUnits="userSpaceOnUse"
       gradientTransform="scale(1.66567,0.600359)"
       x1="210.69629"
       y1="994.62329"
       x2="215.93205"
       y2="983.82104" />
    <linearGradient
       inkscape:collect="always"
       xlink:href="#linearGradient662"
       id="linearGradient2509"
       gradientUnits="userSpaceOnUse"
       gradientTransform="scale(1.26491,0.790568)"
       x1="242.60658"
       y1="692.75824"
       x2="270.27655"
       y2="692.75824" />
    <linearGradient
       inkscape:collect="always"
       xlink:href="#linearGradient702"
       id="linearGradient2511"
       gradientUnits="userSpaceOnUse"
       gradientTransform="scale(1.66567,0.600359)"
       x1="210.69629"
       y1="994.62329"
       x2="215.93205"
       y2="983.82104" />
    <linearGradient
       inkscape:collect="always"
       xlink:href="#linearGradient662"
       id="linearGradient2513"
       gradientUnits="userSpaceOnUse"
       gradientTransform="scale(1.26491,0.790568)"
       x1="242.60658"
       y1="692.75824"
       x2="270.27655"
       y2="692.75824" />
    <linearGradient
       inkscape:collect="always"
       xlink:href="#linearGradient702"
       id="linearGradient2515"
       gradientUnits="userSpaceOnUse"
       gradientTransform="scale(1.47907,0.676099)"
       x1="-125.46559"
       y1="1137.5801"
       x2="-121.23284"
       y2="1128.8472" />
    <linearGradient
       inkscape:collect="always"
       xlink:href="#linearGradient662"
       id="linearGradient2517"
       gradientUnits="userSpaceOnUse"
       gradientTransform="scale(0.656238,1.52384)"
       x1="753.72913"
       y1="318.48154"
       x2="769.88824"
       y2="318.48154" />
    <linearGradient
       inkscape:collect="always"
       xlink:href="#linearGradient723"
       id="linearGradient2519"
       gradientUnits="userSpaceOnUse"
       gradientTransform="scale(0.725561,1.37824)"
       x1="695.97632"
       y1="366.04816"
       x2="704.06763"
       y2="356.69254" />
    <linearGradient
       inkscape:collect="always"
       xlink:href="#linearGradient662"
       id="linearGradient2521"
       gradientUnits="userSpaceOnUse"
       gradientTransform="scale(0.656238,1.52384)"
       x1="753.72913"
       y1="318.48154"
       x2="769.88824"
       y2="318.48154" />
    <linearGradient
       inkscape:collect="always"
       xlink:href="#linearGradient723"
       id="linearGradient2523"
       gradientUnits="userSpaceOnUse"
       gradientTransform="scale(0.725561,1.37824)"
       x1="695.97632"
       y1="366.04816"
       x2="704.06763"
       y2="356.69254" />
  </defs>
  <sodipodi:namedview
     id="base"
     showgrid="false"
     inkscape:zoom="0.43901235"
     inkscape:cx="36.065808"
     inkscape:cy="175.64625"
     inkscape:window-width="1440"
     inkscape:window-height="825"
     inkscape:window-x="0"
     inkscape:window-y="25"
     inkscape:current-layer="svg602" />
  <g
     id="g2445"
     transform="matrix(0.8133874,0,0,0.8133874,-2.0072978e-5,0)">
    <path
       style="font-size:12px;fill:url(#linearGradient2485);fill-rule:evenodd"
       id="path686"
       d="M 28.082675,83.6867 C 21.767875,84.0379 19.922075,83.6828 20.166875,80.3106 C 20.177475,76.0103 24.106075,67.9124 30.431775,73.8751 C 35.310975,53.1413 24.057675,53.7466 18.919375,67.4794 C 19.708675,63.5229 20.483175,57.3436 20.063875,50.9171 C 19.887475,48.5149 16.284575,45.5798 14.208575,41.3744 C 12.136575,46.8718 10.215975,47.3643 9.0234753,53.8774 C 8.0572753,60.3638 9.3036753,66.3697 11.899875,71.9831 C 2.2723753,67.6033 2.4154753,83.33 5.6712753,94.4091 C 4.9756753,82.6582 14.014575,76.4613 12.757275,86.8285 C 12.401475,89.8473 11.287575,96.4624 7.2890753,100.1046 C 12.764675,95.0065 23.210075,85.7696 28.082675,83.6867 z M 57.870175,71.9278 C 51.555375,72.279 50.193375,70.0576 50.858875,66.7426 C 51.774075,62.4423 57.813275,52.2339 64.741975,59.4026 C 72.636275,38.3673 56.860275,38.3696 51.721975,52.1023 C 53.717375,46.3367 54.550475,43.068 52.263475,37.0476 C 49.976475,31.0273 49.388675,29.9012 47.312775,25.6958 C 45.240675,31.1932 42.415575,35.0023 41.223075,41.5155 C 40.256875,48.0019 40.900275,49.7866 44.400975,55.7015 C 35.074875,41.9748 27.680275,61.6212 33.348175,72.0973 C 39.587375,62.4569 45.008175,62.5918 44.353875,70.2454 C 43.875575,73.2472 42.281175,75.6581 37.378075,79.3003 C 42.853675,77.5188 54.203575,74.6138 57.870175,71.9278 z M 101.82318,61.0347 C 96.994675,59.9078 94.109875,57.0826 94.641675,53.956 C 95.383275,49.898 100.71198,41.3176 109.96828,45.5114 C 117.25458,29.4205 100.56658,27.3115 93.266175,42.4465 C 96.054175,37.1883 96.946375,30.9664 95.301075,26.2017 C 93.586475,21.653 91.121775,17.93 88.426675,14.0892 C 85.823475,18.5618 81.977075,24.653 81.644875,29.4309 C 81.322775,34.2088 82.033675,39.2747 85.467175,44.6521 C 75.422275,31.0854 61.464475,41.7041 68.957475,58.4843 C 73.477875,51.1958 83.168375,48.8635 85.973275,55.4827 C 87.604775,59.6345 85.567875,62.3979 80.248675,65.9398 L 101.82318,61.0347 z M 129.08478,56.2873 C 133.42978,52.2163 135.47698,46.916 133.22508,43.542 C 128.61308,37.0658 119.95908,39.006 114.32268,44.9792 C 105.04898,34.3153 120.58418,22.3042 133.40798,31.7434 C 131.15308,28.0754 128.04588,23.741 128.69228,17.6698 C 129.33878,11.5987 133.54448,8.0071 136.87828,3.6257 C 140.37678,7.9472 142.46088,7.8042 144.72238,13.5171 C 146.98388,19.2299 142.92168,26.8936 141.40758,30.5531 C 152.41278,20.2321 167.95628,29.4512 161.09168,41.8687 C 156.13988,35.2856 145.35998,35.8203 142.90898,42.6088 C 141.19098,47.7846 142.88218,51.4728 149.29188,53.4313 L 129.08478,56.2873 z M 201.14388,51.2959 C 193.65838,48.2812 191.06758,44.0295 193.08798,40.2272 C 196.35388,34.8317 206.15908,33.1344 212.48908,39.7103 C 220.64308,28.1677 205.17848,17.6587 193.36918,28.34 C 195.24368,24.4638 199.57768,18.4568 198.32388,12.4815 C 197.06998,6.5062 191.52388,4.7188 189.41238,-5.6843419e-14 C 186.36638,4.6515 182.07538,6.6328 180.40008,12.5441 C 178.72468,18.4555 182.21588,24.593 184.09048,28.0817 C 170.03168,17.9171 155.97298,28.5985 165.25168,40.1411 C 171.43758,34.1114 180.27428,33.9348 183.80928,40.2272 C 186.60878,44.8433 185.32918,49.0133 177.22018,51.2959 L 201.14388,51.2959 z M 246.97808,55.9857 C 242.63308,51.9146 241.79188,46.0113 244.04378,42.6373 C 248.65578,36.1611 257.30978,38.1013 262.94618,44.0745 C 272.21988,33.4106 256.68468,21.3995 243.86088,30.8387 C 246.11578,27.1707 249.22298,22.8363 248.57658,16.7651 C 247.93008,10.694 243.72438,7.1024 240.39058,2.721 C 236.89208,7.0425 234.80798,6.8995 232.54648,12.6124 C 230.28498,18.3252 234.34718,25.9889 235.86128,29.6484 C 224.85608,19.3274 209.31258,28.5465 216.17718,40.964 C 221.12898,34.3809 231.90888,34.9156 234.35988,41.7041 C 236.07788,46.8799 232.57768,50.8697 227.37398,53.4311 L 246.97808,55.9857 z M 276.07918,60.7333 C 280.60618,59.6064 283.18948,56.7812 282.65768,53.6546 C 281.91608,49.5966 276.58738,41.0162 267.33108,45.21 C 260.04478,29.1191 276.73278,27.0101 284.03318,42.1451 C 281.24518,36.8869 280.35298,30.665 281.99828,25.9003 C 283.71288,21.3516 286.17758,17.6286 288.87268,13.7878 C 291.47588,18.2604 295.32228,24.3516 295.65448,29.1295 C 295.97658,33.9074 295.26568,38.9733 291.83218,44.3507 C 301.87708,30.784 315.83488,41.4027 308.34188,58.1829 C 303.82148,50.8944 294.13098,48.5621 291.32608,55.1813 C 289.69458,59.3331 292.93748,61.192 297.35218,65.6384 L 276.07918,60.7333 z M 321.42418,72.5309 C 327.73898,72.8821 328.14508,69.7661 327.53088,66.4412 C 326.01268,57.9197 319.37048,51.9325 312.44178,59.1012 C 304.54748,38.0659 320.32348,38.0682 325.46178,51.8009 C 323.46638,46.0353 322.63328,42.7666 324.92028,36.7462 C 327.20728,30.7259 327.79508,29.5998 329.87098,25.3944 C 331.94308,30.8918 334.76818,34.7009 335.96068,41.2141 C 336.92688,47.7005 336.28348,49.4852 332.78278,55.4001 C 342.10888,41.6734 349.50348,61.3198 343.83558,71.7959 C 337.59638,62.1555 332.17558,62.2904 332.82988,69.944 C 333.30818,72.9458 334.29948,74.7537 338.90108,79.3003 C 333.42548,77.5189 325.09078,75.2169 321.42418,72.5309 z M 347.57658,84.5911 C 352.18878,84.9423 353.53698,84.5872 353.35818,81.215 C 353.35048,76.9147 350.48108,68.8168 345.86078,74.7795 C 342.29708,54.0457 350.51638,54.651 354.26938,68.3838 C 353.69288,64.4273 353.12718,58.248 353.43338,51.8215 C 353.56228,49.4193 356.19378,46.4842 357.71008,42.2788 C 359.22338,47.7762 360.62618,48.2687 361.49718,54.7818 C 362.20288,61.2682 361.29258,67.2741 359.39628,72.8875 C 366.42818,68.5077 364.51448,80.9178 362.13648,91.9969 C 362.64458,80.246 357.85178,77.3657 358.77008,87.7329 C 359.02998,90.7517 360.44648,94.9547 363.36698,98.5969 C 359.36768,93.4988 351.13548,86.674 347.57658,84.5911 z" />
    <path
       style="font-size:12px;fill:url(#linearGradient2487);fill-rule:evenodd;stroke-width:1"
       sodipodi:nodetypes="ccccccc"
       id="path648"
       d="M 4.2888753,153.1572 C 4.9730753,119.5968 106.77488,91.9193 190.49318,91.9193 C 269.38738,91.9193 363.78278,114.7822 363.63568,149.0396 L 364.73028,103.793 C 364.81728,73.1237 245.15438,50.6828 188.22838,50.6828 C 136.41918,50.6828 4.7035753,73.5754 4.6483753,108.847 L 4.2888753,153.1572 z" />
    <path
       style="font-size:12px;fill:url(#linearGradient2489);fill-rule:evenodd;stroke-width:1"
       sodipodi:nodetypes="ccccccc"
       id="path615"
       d="M 364.97828,103.1631 C 363.50698,136.6982 261.08398,161.98 177.38868,160.0161 C 98.516175,158.1654 4.3706753,133.0871 5.3213753,98.8426 L 3.7794753,144.0654 C 2.9730753,174.7243 121.77518,199.959 178.68548,201.2944 C 230.48048,202.5097 362.69688,182.7133 363.57938,147.4527 L 364.97828,103.1631 z" />
    <path
       style="font-size:12px;fill:url(#linearGradient2491);fill-rule:evenodd;stroke:none"
       sodipodi:nodetypes="cccccccccccccccccccccccccccccccccccccccccccccccccccccccccccccccccccccccccccccccccccccccccccccccccccccccccccc"
       id="path675"
       d="M 362.76218,106.478 C 360.73308,107.4281 357.94858,106.3027 357.87718,105.4878 C 358.46928,103.3961 359.07818,97.5478 361.57528,93.9267 C 363.63578,84.3148 364.63498,73.1755 358.07008,96.2121 C 361.12308,89.4978 360.86248,82.0432 360.32308,79.2869 C 359.77818,75.7334 357.49758,70.9138 356.08368,67.7241 C 354.65038,72.3223 350.87188,75.492 351.08398,86.3043 C 351.10078,89.2554 351.18788,90.871 353.42648,96.4036 C 346.62548,93.3858 340.78118,101.254 343.86418,112.6495 C 349.53388,99.5047 358.27368,101.143 353.22698,111.8034 C 352.78428,112.7588 350.49358,116.291 347.63578,121.0915 C 356.52988,115.5856 362.92078,107.2384 362.76218,106.478 z M 333.14538,129.154 C 326.82868,129.4692 327.25168,124.64 327.93608,121.3289 C 328.87578,117.0339 334.03978,108.134 340.92748,115.3421 C 346.36138,98.1751 336.13848,96.4135 329.22608,108.4013 C 332.53358,102.6545 332.10608,99.3833 329.85348,93.35 C 327.60088,87.3167 326.58338,87.8904 324.53148,83.6733 C 322.42808,89.1588 320.01738,91.2485 318.78778,97.7548 C 317.78458,104.2356 318.41778,106.024 321.88468,111.9587 C 312.58598,107.1334 301.71448,118.6163 307.32258,129.1245 C 313.61668,119.5199 322.45258,118.8524 321.75468,126.5021 C 321.25918,129.5011 320.85548,132.2113 316.22798,136.7317 C 321.71368,134.9814 329.46358,131.8191 333.14538,129.154 z M 293.12728,144.2647 C 288.31038,142.2058 287.85038,139.9809 288.40008,136.8574 C 289.16478,132.8037 294.95658,126.3884 304.18878,130.6348 C 309.41778,117.5585 297.44208,113.6753 287.09268,124.9139 C 289.91058,119.6717 290.83578,113.8814 289.21778,109.1073 C 287.52908,104.5489 284.65438,101.6624 281.98128,97.8062 C 279.35258,102.2639 274.62358,107.4754 274.26418,112.2513 C 273.91478,117.0273 275.87598,122.1045 279.27878,127.5014 C 264.16308,119.3916 254.82308,132.0891 262.69038,141.2392 C 267.25228,133.9766 276.95598,131.6996 279.72308,138.3347 C 281.33088,142.4957 278.37888,144.3378 273.93888,148.7589 L 293.12728,144.2647 z M 226.20658,155.9685 C 230.57478,151.9223 232.04578,147.2334 229.81308,143.8466 C 225.23818,137.3442 216.57318,139.235 210.90278,145.1759 C 201.69008,134.4593 217.29358,122.537 230.06328,132.0492 C 227.82938,128.3684 224.74698,124.0163 225.42798,117.9489 C 226.10908,111.8816 230.33518,108.3141 233.69398,103.9518 C 237.16778,108.2931 239.25258,108.162 241.48148,113.8877 C 243.71038,119.6133 239.60448,127.2537 238.06958,130.9046 C 249.13348,120.6465 264.62408,129.9541 257.68878,142.3322 C 252.77468,135.721 241.99188,136.1942 239.50218,142.9686 C 237.75468,148.1345 240.33098,151.536 245.52008,154.1271 L 226.20658,155.9685 z M 191.81268,159.2234 C 185.56428,153.7608 184.50358,149.8045 186.54568,146.0138 C 189.84228,140.637 199.65698,138.9957 205.94938,145.6076 C 214.16908,134.1117 198.76468,123.5146 186.89468,134.1284 C 188.79128,130.263 193.15938,124.2808 191.93978,118.2984 C 190.71998,112.3161 185.18408,110.4971 183.09958,105.7663 C 180.02708,110.4003 175.72488,112.3571 174.01588,118.2588 C 172.30678,124.1605 175.76288,130.3178 177.61758,133.8172 C 163.61698,123.5726 149.49758,134.1736 158.71028,145.7689 C 164.93048,139.7746 173.76808,139.6484 177.26708,145.9609 C 180.04028,150.5929 178.43538,154.7538 172.41198,159.1127 L 191.81268,159.2234 z M 137.55668,156.9704 C 133.23498,152.8746 131.81758,148.1692 134.08868,144.8081 C 138.73758,138.3583 147.38038,140.3478 152.98258,146.3531 C 162.31698,135.7422 146.85048,123.6427 133.97308,133.0086 C 136.24888,129.3535 139.38078,125.0369 138.76898,118.9622 C 138.15708,112.8875 133.97198,109.2719 130.66318,104.8716 C 127.14018,109.1731 125.05688,109.0182 122.76288,114.7181 C 120.46878,120.4179 124.48718,128.1046 125.98038,131.7727 C 115.03428,121.3891 99.438375,130.5194 106.23208,142.9759 C 111.22138,136.4211 121.99798,137.0173 124.41028,143.8197 C 126.09868,149.0052 123.48378,152.377 118.26548,154.9088 L 137.55668,156.9704 z M 71.371675,145.4118 C 76.211775,143.408 76.697075,141.1886 76.183175,138.059 C 75.464675,133.9968 69.746475,127.5158 60.466375,131.6566 C 55.386975,118.5215 67.406075,114.7752 77.626675,126.1311 C 74.868775,120.8571 74.009575,115.0566 75.682075,110.3014 C 77.422575,105.7625 80.329975,102.909 83.046975,99.0835 C 85.624575,103.5709 90.293875,108.836 90.598775,113.6157 C 90.893675,118.3954 88.874675,123.4498 85.410575,128.8076 C 100.61778,120.8708 109.81228,133.674 101.84108,142.7337 C 97.362375,135.4195 87.685275,133.032 84.842675,139.6351 C 83.187575,143.7775 86.118275,145.6532 90.507575,150.1247 L 71.371675,145.4118 z M 32.429575,130.4539 C 38.742275,130.8411 38.374475,126.0074 37.727875,122.6887 C 36.837275,118.3832 31.775075,109.425 24.805575,116.5541 C 19.567875,99.3262 29.810175,97.6813 36.585375,109.7473 C 33.343675,103.9631 33.808475,100.697 36.129775,94.6897 C 38.451075,88.6826 39.461975,89.2678 41.561775,85.0743 C 43.602475,90.5835 45.989175,92.7006 47.144475,99.2205 C 48.073675,105.7123 47.420075,107.4933 43.885775,113.3882 C 53.238875,108.6692 63.978675,120.2754 58.251075,130.719 C 52.066975,121.0431 43.239275,120.2749 43.849875,127.9321 C 44.311075,130.9366 44.683875,133.6511 49.259475,138.224 C 43.794075,136.4113 36.080875,133.1608 32.429575,130.4539 z M 4.4363753,107.2122 C 6.7473753,109.6947 8.4832753,108.8321 8.5690753,107.1135 C 8.5709753,104.9396 8.3906753,94.3414 4.0950753,96.1089 C 2.1443753,86.4741 1.9166753,68.0914 8.4853753,97.2332 C 6.4154753,90.1881 6.1425753,85.4471 6.7133753,82.6972 C 7.2988753,79.1501 9.6307753,74.9598 11.080975,71.7866 C 12.461675,76.4007 16.207275,79.0103 15.871775,89.8195 C 15.821375,92.7702 15.715875,94.3848 13.414375,99.8914 C 20.607575,87.0034 26.003475,104.8858 22.790575,116.2454 C 17.271275,103.0368 8.5133753,104.5752 13.438075,115.2925 C 13.869875,116.2529 16.120175,119.811 18.922975,124.6437 C 10.092275,119.0368 4.2690753,107.9707 4.4363753,107.2122 z" />
    <path
       style="font-size:12px;fill:url(#linearGradient2493);fill-rule:evenodd"
       sodipodi:nodetypes="ccsccsc"
       id="path690"
       d="M 3.7419753,146.3805 C 2.0642753,146.3805 1.7125753,151.647 3.9763753,153.7173 C 30.296975,189.84 130.36508,202.6315 183.43138,201.9785 C 262.75788,201.0053 353.29768,178.5283 363.29188,151.5986 C 364.48098,147.842 364.48108,144.7049 363.29188,144.9259 C 351.80538,171.5699 280.21188,191.8527 183.16338,195.7617 C 116.78868,198.4525 30.172175,180.399 3.7419753,146.3805 z" />
    <path
       style="font-size:12px;fill:url(#linearGradient2495);fill-rule:evenodd"
       sodipodi:nodetypes="ccsccsc"
       id="path692"
       d="M 364.23488,104.9879 C 365.91248,104.9749 366.30488,108.3636 364.05718,112.3263 C 341.76688,149.9016 238.05078,164.092 184.98098,163.8497 C 105.64938,163.4903 41.711775,152.1327 5.1779753,114.8596 C 2.8652753,112.4467 1.2856753,108.2168 5.1262753,108.1871 C 43.145375,144.538 105.66328,159.3375 185.20088,157.631 C 251.61488,156.2121 341.81868,141.0849 364.23488,104.9879 z" />
    <g
       transform="matrix(0.64079,-0.767716,0.767716,0.64079,-481.863,166.633)"
       id="g731">
      <path
         style="font-size:12px;fill:url(#linearGradient2497);fill-rule:evenodd"
         id="path722"
         d="M 469.0176,568.1882 C 466.9575,568.1882 465.299,569.8467 465.299,571.9069 L 465.299,580.9383 C 465.299,582.9984 466.9575,584.657 469.0176,584.657 L 479.1116,584.657 C 481.1717,584.657 482.8303,582.9984 482.8303,580.9383 L 482.8303,571.9069 C 482.8303,569.8467 481.1717,568.1882 479.1116,568.1882 L 469.0176,568.1882 z M 468.127,566.735 C 465.7033,566.735 463.752,568.6863 463.752,571.11 L 463.752,581.7352 C 463.752,584.1589 465.7033,586.1101 468.127,586.1101 L 480.0022,586.1101 C 482.4259,586.1101 484.3771,584.1589 484.3771,581.7352 L 484.3771,571.11 C 484.3771,568.6863 482.4259,566.735 480.0022,566.735 L 468.127,566.735 z" />
      <g
         transform="translate(-40.0002,0.624969)"
         id="g728">
        <rect
           y="567.56317"
           x="505.2991"
           width="17.531328"
           style="font-size:12px;fill:#007d00;fill-opacity:1;fill-rule:evenodd"
           ry="3.7186983"
           id="rect727"
           height="16.468801" />
        <rect
           y="569.43817"
           x="510.29916"
           width="11.281287"
           style="font-size:12px;fill:url(#linearGradient2499);fill-opacity:1;fill-rule:evenodd"
           ry="2.8719389"
           id="rect719"
           height="12.718804" />
      </g>
    </g>
    <g
       transform="matrix(0.698733,-0.715382,0.715382,0.698733,-640.416,110.298)"
       id="g736">
      <path
         style="font-size:12px;fill:url(#linearGradient2501);fill-rule:evenodd"
         id="path737"
         d="M 469.0176,568.1882 C 466.9575,568.1882 465.299,569.8467 465.299,571.9069 L 465.299,580.9383 C 465.299,582.9984 466.9575,584.657 469.0176,584.657 L 479.1116,584.657 C 481.1717,584.657 482.8303,582.9984 482.8303,580.9383 L 482.8303,571.9069 C 482.8303,569.8467 481.1717,568.1882 479.1116,568.1882 L 469.0176,568.1882 z M 468.127,566.735 C 465.7033,566.735 463.752,568.6863 463.752,571.11 L 463.752,581.7352 C 463.752,584.1589 465.7033,586.1101 468.127,586.1101 L 480.0022,586.1101 C 482.4259,586.1101 484.3771,584.1589 484.3771,581.7352 L 484.3771,571.11 C 484.3771,568.6863 482.4259,566.735 480.0022,566.735 L 468.127,566.735 z" />
      <g
         transform="translate(-40.0002,0.624969)"
         id="g738">
        <rect
           y="567.56317"
           x="505.2991"
           width="17.531328"
           style="font-size:12px;fill:#007d00;fill-opacity:1;fill-rule:evenodd"
           ry="3.7186983"
           id="rect739"
           height="16.468801" />
        <rect
           y="569.43817"
           x="510.29916"
           width="11.281287"
           style="font-size:12px;fill:url(#linearGradient2503);fill-opacity:1;fill-rule:evenodd"
           ry="2.8719389"
           id="rect740"
           height="12.718804" />
      </g>
    </g>
    <g
       transform="translate(-142.716,-367.313)"
       id="g741">
      <path
         style="font-size:12px;fill:url(#linearGradient2505);fill-rule:evenodd"
         id="path698"
         d="M 318.7981,538.3757 C 313.6476,538.3757 309.5012,542.5222 309.5012,547.6726 C 309.5012,552.8231 313.6476,556.9695 318.7981,556.9695 L 329.9544,556.9695 C 335.1049,556.9695 339.2513,552.8231 339.2513,547.6726 C 339.2513,542.5222 335.1049,538.3757 329.9544,538.3757 L 318.7981,538.3757 z M 317.8137,536.7352 C 311.7543,536.7352 306.8762,541.6133 306.8762,547.6727 C 306.8762,553.7321 311.7543,558.6102 317.8137,558.6102 L 330.9388,558.6102 C 336.9981,558.6102 341.8763,553.7321 341.8763,547.6727 C 341.8763,541.6133 336.9981,536.7352 330.9388,536.7352 L 317.8137,536.7352 z" />
      <g
         transform="translate(-24.3751,-50.6252)"
         id="g705">
        <rect
           y="589.00079"
           x="334.50137"
           width="29.750078"
           style="font-size:12px;fill:#e50000;fill-opacity:1;fill-rule:evenodd"
           ry="9.2969007"
           id="rect695"
           height="18.593801" />
        <rect
           y="590.87579"
           x="340.75153"
           width="20.375002"
           style="font-size:12px;fill:url(#linearGradient2507);fill-opacity:1;fill-rule:evenodd"
           ry="3.6718967"
           id="rect700"
           height="7.3437934" />
      </g>
    </g>
    <g
       transform="matrix(0.758361,0.362058,-0.413718,0.940543,19.4348,-478.756)"
       id="g756">
      <path
         style="font-size:12px;fill:url(#linearGradient2509);fill-rule:evenodd"
         id="path757"
         d="M 318.7981,538.3757 C 313.6476,538.3757 309.5012,542.5222 309.5012,547.6726 C 309.5012,552.8231 313.6476,556.9695 318.7981,556.9695 L 329.9544,556.9695 C 335.1049,556.9695 339.2513,552.8231 339.2513,547.6726 C 339.2513,542.5222 335.1049,538.3757 329.9544,538.3757 L 318.7981,538.3757 z M 317.8137,536.7352 C 311.7543,536.7352 306.8762,541.6133 306.8762,547.6727 C 306.8762,553.7321 311.7543,558.6102 317.8137,558.6102 L 330.9388,558.6102 C 336.9981,558.6102 341.8763,553.7321 341.8763,547.6727 C 341.8763,541.6133 336.9981,536.7352 330.9388,536.7352 L 317.8137,536.7352 z" />
      <g
         transform="translate(-24.3751,-50.6252)"
         id="g758">
        <rect
           y="589.00079"
           x="334.50137"
           width="29.750078"
           style="font-size:12px;fill:#e50000;fill-opacity:1;fill-rule:evenodd"
           ry="9.2969007"
           id="rect759"
           height="18.593801" />
        <rect
           y="590.87579"
           x="340.75153"
           width="20.375002"
           style="font-size:12px;fill:url(#linearGradient2511);fill-opacity:1;fill-rule:evenodd"
           ry="3.6718967"
           id="rect760"
           height="7.3437934" />
      </g>
    </g>
    <g
       transform="translate(-132.747,-471.872)"
       id="g772">
      <path
         transform="matrix(-0.758242,0.362307,0.414026,0.940407,478.926,-5.64075)"
         style="font-size:12px;fill:url(#linearGradient2513);fill-rule:evenodd"
         id="path762"
         d="M 318.7981,538.3757 C 313.6476,538.3757 309.5012,542.5222 309.5012,547.6726 C 309.5012,552.8231 313.6476,556.9695 318.7981,556.9695 L 329.9544,556.9695 C 335.1049,556.9695 339.2513,552.8231 339.2513,547.6726 C 339.2513,542.5222 335.1049,538.3757 329.9544,538.3757 L 318.7981,538.3757 z M 317.8137,536.7352 C 311.7543,536.7352 306.8762,541.6133 306.8762,547.6727 C 306.8762,553.7321 311.7543,558.6102 317.8137,558.6102 L 330.9388,558.6102 C 336.9981,558.6102 341.8763,553.7321 341.8763,547.6727 C 341.8763,541.6133 336.9981,536.7352 330.9388,536.7352 L 317.8137,536.7352 z" />
      <rect
         y="589.00079"
         x="334.50137"
         width="29.750078"
         transform="matrix(-0.758242,0.362307,0.414026,0.940407,476.448,-62.0803)"
         style="font-size:12px;fill:#e50000;fill-rule:evenodd"
         ry="9.2969007"
         id="rect764"
         height="18.593801" />
      <rect
         y="763.42181"
         x="-192.89398"
         width="14.626519"
         transform="matrix(-0.892476,0.451094,0.384255,0.923227,0,0)"
         style="font-size:12px;fill:url(#linearGradient2515);fill-rule:evenodd"
         ry="3.3429668"
         id="rect765"
         height="6.6859336" />
    </g>
    <g
       transform="translate(-139.622,-366.871)"
       id="g793">
      <path
         style="font-size:12px;fill:url(#linearGradient2517);fill-rule:evenodd;stroke:none;stroke-opacity:1"
         sodipodi:nodetypes="cccccsccccs"
         id="path777"
         d="M 504.0674,506.7257 C 504.3894,505.5752 502.1236,508.2076 501.4901,507.9189 L 499.1225,506.6852 C 497.0525,505.9546 496.8801,503.2529 497.3897,501.5146 L 502.2149,488.7898 C 503.0558,486.941 505.4665,488.5314 505.2112,487.8318 C 504.4238,485.5952 502.5023,484.2609 501.3048,486.3776 L 495.1511,501.422 C 494.3956,503.5387 494.1816,506.8482 496.4087,507.8246 L 501.1412,509.8183 C 502.374,510.3529 503.5157,509.0543 504.0674,506.7257 z" />
      <path
         style="font-size:12px;fill:#007d00;fill-rule:evenodd"
         sodipodi:nodetypes="ccccsscc"
         id="path789"
         d="M 497.2145,501.7565 C 496.4918,503.6857 497.3851,506.055 499.3143,506.7777 L 501.053,507.7583 C 501.4978,508.0904 502.3827,508.0566 503.418,507.2211 C 505.6054,505.3461 507.5976,501.6326 508.3746,498.9192 C 508.7909,497.5075 507.4757,488.5751 504.6046,487.626 C 504.2206,487.4956 502.6499,487.406 502.1617,488.6321 L 497.2145,501.7565 z" />
      <path
         transform="matrix(0.949972,0.312336,-0.312336,0.949972,176.357,-134.233)"
         style="font-size:12px;fill:url(#linearGradient2519);fill-rule:evenodd;stroke-width:1"
         sodipodi:nodetypes="cssss"
         id="path791"
         d="M 512.7383,497.9829 C 512.4276,499.1161 508.7096,503.7533 506.3819,504.9162 C 504.6967,505.7581 504.2388,503.0544 504.3769,497.6393 C 504.4086,496.3996 503.9808,489.1193 506.4164,489.0824 C 508.8752,489.0451 513.1743,496.6051 512.7383,497.9829 z" />
    </g>
    <g
       transform="matrix(-1,0,0,1,508.45,-366.246)"
       id="g797">
      <path
         style="font-size:12px;fill:url(#linearGradient2521);fill-rule:evenodd;stroke:none;stroke-opacity:1"
         sodipodi:nodetypes="cccccsccccs"
         id="path798"
         d="M 504.0674,506.7257 C 504.3894,505.5752 502.1236,508.2076 501.4901,507.9189 L 499.1225,506.6852 C 497.0525,505.9546 496.8801,503.2529 497.3897,501.5146 L 502.2149,488.7898 C 503.0558,486.941 505.4665,488.5314 505.2112,487.8318 C 504.4238,485.5952 502.5023,484.2609 501.3048,486.3776 L 495.1511,501.422 C 494.3956,503.5387 494.1816,506.8482 496.4087,507.8246 L 501.1412,509.8183 C 502.374,510.3529 503.5157,509.0543 504.0674,506.7257 z" />
      <path
         style="font-size:12px;fill:#007d00;fill-rule:evenodd"
         sodipodi:nodetypes="ccccsscc"
         id="path799"
         d="M 497.2145,501.7565 C 496.4918,503.6857 497.3851,506.055 499.3143,506.7777 L 501.053,507.7583 C 501.4978,508.0904 502.3827,508.0566 503.418,507.2211 C 505.6054,505.3461 507.5976,501.6326 508.3746,498.9192 C 508.7909,497.5075 507.4757,488.5751 504.6046,487.626 C 504.2206,487.4956 502.6499,487.406 502.1617,488.6321 L 497.2145,501.7565 z" />
      <path
         transform="matrix(0.949972,0.312336,-0.312336,0.949972,176.357,-134.233)"
         style="font-size:12px;fill:url(#linearGradient2523);fill-rule:evenodd;stroke-width:1"
         sodipodi:nodetypes="cssss"
         id="path800"
         d="M 512.7383,497.9829 C 512.4276,499.1161 508.7096,503.7533 506.3819,504.9162 C 504.6967,505.7581 504.2388,503.0544 504.3769,497.6393 C 504.4086,496.3996 503.9808,489.1193 506.4164,489.0824 C 508.8752,489.0451 513.1743,496.6051 512.7383,497.9829 z" />
    </g>
  </g>
</svg>
