<?xml version='1.0' ?><!-- Created with Inkscape (http://www.inkscape.org/) --><svg inkscape:export-xdpi="900.00000" inkscape:export-ydpi="900.00000" inkscape:version="0.40" sodipodi:version="0.32" height="48pt" id="svg1061" width="48pt" xmlns:cc="http://web.resource.org/cc/" xmlns:dc="http://purl.org/dc/elements/1.1/" xmlns:inkscape="http://www.inkscape.org/namespaces/inkscape" xmlns:rdf="http://www.w3.org/1999/02/22-rdf-syntax-ns#" xmlns:sodipodi="http://sodipodi.sourceforge.net/DTD/sodipodi-0.dtd" xmlns="http://www.w3.org/2000/svg" xmlns:xlink="http://www.w3.org/1999/xlink">
  <defs id="defs3">
    <linearGradient id="linearGradient8878">
      <stop id="stop8879" offset="0.0000000" style="stop-color:#a3afff;stop-opacity:1.0000000;"/>
      <stop id="stop8880" offset="1.0000000" style="stop-color:#3249ff;stop-opacity:1.0000000;"/>
    </linearGradient>
    <linearGradient id="linearGradient6999">
      <stop id="stop7000" offset="0.0000000" style="stop-color:#ad00ff;stop-opacity:1.0000000;"/>
      <stop id="stop7007" offset="0.50000000" style="stop-color:#8e00f2;stop-opacity:1.0000000;"/>
      <stop id="stop7001" offset="1.0000000" style="stop-color:#5900bb;stop-opacity:1.0000000;"/>
    </linearGradient>
    <linearGradient inkscape:collect="always" gradientTransform="scale(1.232311,0.811484)" gradientUnits="userSpaceOnUse" id="linearGradient7002" x1="10.761971" x2="40.275910" y1="46.217643" y2="46.217643" xlink:href="#linearGradient6999"/>
    <radialGradient inkscape:collect="always" cx="18.265802" cy="40.930210" fx="18.265802" fy="40.930210" gradientTransform="scale(1.484950,0.673423)" gradientUnits="userSpaceOnUse" id="radialGradient7006" r="15.522463" xlink:href="#linearGradient6999"/>
    <radialGradient inkscape:collect="always" cx="19.428921" cy="67.052200" fx="19.428921" fy="67.052200" gradientTransform="scale(1.475847,0.677577)" gradientUnits="userSpaceOnUse" id="radialGradient7012" r="25.867947" xlink:href="#linearGradient6999"/>
    <radialGradient inkscape:collect="always" cx="-36.124168" cy="22.809290" fx="-36.124168" fy="22.809290" gradientTransform="scale(0.733999,1.362400)" gradientUnits="userSpaceOnUse" id="radialGradient1722" r="24.247074" spreadMethod="reflect" xlink:href="#linearGradient8878"/>
  </defs>
  <sodipodi:namedview inkscape:current-layer="layer1" inkscape:cx="25.347890" inkscape:cy="25.221849" inkscape:grid-bbox="true" inkscape:grid-points="false" inkscape:pageopacity="0.0" inkscape:pageshadow="2" inkscape:window-height="840" inkscape:window-width="945" inkscape:window-x="172" inkscape:window-y="40" inkscape:zoom="11.313709" bordercolor="#666666" borderopacity="1.0" gridoriginx="0.0000000pt" gridoriginy="0.0000000pt" gridspacingx="1.0000000pt" gridspacingy="1.0000000pt" id="base" pagecolor="#ffffff" showgrid="false"/>
  <g inkscape:groupmode="layer" inkscape:label="Layer 1" id="layer1">
    <path sodipodi:nodetypes="cssss" d="M 33.937933,36.733254 C 26.323899,33.897044 9.4548793,29.174323 4.2504333,38.139504 C -1.3167770,47.729582 14.076771,53.836873 20.344183,56.108254 C 32.813072,60.627120 51.746814,53.874082 57.219183,43.295754 C 62.822268,32.464746 40.878650,39.318655 33.937933,36.733254 z " id="path1072" style="fill:url(#radialGradient7012);fill-opacity:1.0;fill-rule:evenodd;stroke:#000000;stroke-width:1.0000000pt;stroke-linecap:butt;stroke-linejoin:miter;stroke-opacity:1.0000000;"/>
    <path sodipodi:nodetypes="cssssss" d="M 33.625433,33.764504 C 29.594162,33.261260 19.646082,27.304955 16.363454,28.124488 C 13.080825,28.944022 16.336436,36.465333 14.719183,39.389504 C 13.634517,41.350700 20.756986,47.095905 25.656683,48.295754 C 31.868814,49.816995 44.360823,48.090098 46.594183,44.858254 C 48.962963,41.430447 50.016282,28.758719 47.757064,26.520319 C 45.361968,24.147293 36.470792,34.119705 33.625433,33.764504 z " id="path2316" style="fill:url(#linearGradient7002);fill-opacity:1.0;fill-rule:evenodd;stroke:#000000;stroke-width:1.0000000pt;stroke-linecap:butt;stroke-linejoin:miter;stroke-opacity:1.0000000;"/>
    <path sodipodi:nodetypes="cssss" d="M 34.562933,21.577004 C 26.500391,20.570516 19.145613,21.501783 15.656683,27.202004 C 11.920367,33.306404 22.319486,33.345905 27.219183,34.545754 C 33.431314,36.066995 42.206690,36.522889 45.969183,32.045754 C 53.171148,23.475859 40.253650,22.287405 34.562933,21.577004 z " id="path1071" style="fill:url(#radialGradient7006);fill-opacity:1.0;fill-rule:evenodd;stroke:#000000;stroke-width:1.0000000pt;stroke-linecap:butt;stroke-linejoin:miter;stroke-opacity:1.0000000;"/>
    <g id="feather" transform="matrix(0.496870,0.231977,-0.240924,0.476029,71.40020,14.54015)">
      <path sodipodi:nodetypes="csssscsscsccsccss" d="M -35.548461,57.659218 C -35.512486,56.400671 -39.931617,53.307351 -38.372615,47.477036 C -38.061442,46.313321 -35.153315,53.712640 -35.753683,52.478701 C -37.429220,49.034960 -37.051110,46.138623 -36.878657,44.857206 C -36.188848,39.731538 -33.686691,32.742058 -31.627909,28.690625 C -31.113214,27.677768 -31.571619,33.802530 -30.639046,36.686922 C -31.941523,34.589220 -29.693586,23.511781 -29.429126,21.876250 C -28.900208,18.605191 -28.574676,14.915875 -28.358829,11.217138 C -27.927134,3.8196634 -27.934181,-3.6154968 -27.630364,-7.8176731 C -23.082497,-5.2521017 -20.901820,1.4120321 -19.406542,8.8569027 C -19.032723,10.718120 -19.218811,13.793183 -20.139707,16.678765 C -19.016478,14.045177 -18.960117,12.310808 -18.630134,9.3777794 C -15.409050,12.479384 -17.604011,27.569348 -18.106634,30.611316 C -18.814299,34.894236 -20.277136,41.768851 -23.755871,44.994688 C -21.598510,43.084400 -20.767994,41.060354 -19.746482,39.771716 C -20.029353,46.887741 -26.922652,54.402202 -27.931476,55.152680 C -30.321721,56.930818 -35.624759,60.328439 -35.548461,57.659218 z " id="path6363" style="fill:url(#radialGradient1722);fill-opacity:1.0000000;fill-rule:evenodd;stroke:#000000;stroke-width:1.0000000pt;stroke-linecap:round;stroke-linejoin:round;stroke-opacity:1.0000000" transform="matrix(0.866025,-0.500000,0.500000,0.866025,-16.69496,-10.76974)"/>
      <path sodipodi:nodetypes="csccccsc" d="M -44.511864,-4.7309033 C -42.444301,-2.4438832 -28.070705,12.066172 -23.405323,25.233454 C -19.916589,35.084310 -19.807224,43.463319 -19.281250,50.125000 C -18.755276,56.786681 -18.593750,63.630596 -18.593750,67.187500 L -17.343750,67.187500 C -17.343750,63.593945 -17.501545,56.740186 -18.031250,50.031250 C -18.072118,43.084817 -19.134175,34.398645 -22.662308,24.840595 C -27.120132,12.763923 -41.449579,-1.8176606 -44.511864,-4.7309033 z " id="path6364" style="fill:#000000;fill-opacity:1.0000000;fill-rule:evenodd;stroke:none;stroke-width:1.0000000pt;stroke-linecap:butt;stroke-linejoin:miter;stroke-opacity:1.0000000"/>
    </g>
    <g id="hat band">
      <path sodipodi:nodetypes="cccsccs" d="M 30.187933,42.827004 C 26.046177,42.655216 19.294891,41.235351 14.912786,38.683141 C 14.219513,41.401456 14.485491,41.908140 14.686823,44.566139 C 17.240626,46.445655 19.670477,47.900413 24.662314,48.627210 C 31.316387,49.596024 41.739173,48.754417 47.809523,45.079225 C 48.513169,41.872388 49.009101,40.921943 48.549418,38.330598 C 44.591822,42.363822 33.052914,42.945835 30.187933,42.827004 z " id="path2317" style="fill:#ff8f00;fill-opacity:1.0000000;fill-rule:nonzero;stroke:#000000;stroke-width:1.0000000pt;stroke-linecap:round;stroke-linejoin:round;stroke-opacity:1.0000000"/>
      <path d="M 15.156250,38.781250 C 15.160874,38.850092 15.191191,38.867047 15.156250,39.000000 C 15.218379,39.592699 15.057126,39.593444 14.781250,39.468750 C 14.709054,39.817158 14.691519,40.122041 14.656250,40.406250 C 15.633213,40.608175 16.569635,40.197946 16.781250,39.562500 C 16.231857,39.309620 15.655328,39.062710 15.156250,38.781250 z M 47.281250,39.312500 C 46.549626,39.798655 45.711968,40.227861 44.781250,40.593750 C 44.874779,40.613346 44.829210,40.636453 44.937500,40.656250 C 46.611773,40.962328 47.767392,40.747287 47.281250,39.312500 z M 17.718750,39.968750 C 17.096277,41.000856 17.306403,42.538907 18.781250,42.375000 C 20.201881,42.217117 21.372500,41.893149 21.156250,41.187500 C 20.659720,41.042243 20.174933,40.883239 19.687500,40.718750 C 19.817549,40.768543 19.901578,40.825161 19.812500,41.000000 C 19.444645,41.722020 19.333050,41.507336 18.875000,41.312500 C 18.368715,41.097146 18.182861,40.814310 18.406250,40.625000 C 18.587142,40.471704 18.635763,40.465603 18.687500,40.500000 C 18.739236,40.534397 18.803004,40.609293 19.031250,40.625000 C 19.199637,40.636588 19.347650,40.668067 19.500000,40.687500 C 18.876531,40.473407 18.311884,40.214160 17.718750,39.968750 z M 43.875000,41.218750 C 43.597840,41.214601 43.326191,41.331553 42.906250,41.312500 C 42.060081,41.274112 41.581568,41.691349 41.281250,42.156250 C 40.615127,43.187428 41.334634,44.016697 42.843750,43.937500 C 44.560994,43.847380 45.819020,42.838080 44.875000,41.812500 C 44.444240,41.344523 44.152163,41.222901 43.875000,41.218750 z M 47.406250,41.250000 C 47.142147,41.202660 46.893763,41.255331 46.718750,41.625000 C 46.075097,42.984551 45.618544,43.155461 47.437500,44.062500 C 47.640262,44.163609 47.834806,44.151416 48.031250,44.187500 C 48.149450,43.688283 48.219604,43.246882 48.312500,42.843750 C 48.182365,43.039631 48.057039,43.194565 47.500000,43.156250 C 46.967335,43.001518 46.931302,42.859877 47.125000,42.406250 C 47.164104,42.314669 47.213472,42.267264 47.250000,42.250000 C 47.359585,42.198204 47.470132,42.413939 47.812500,42.437500 C 48.025116,42.452131 48.258602,42.411581 48.406250,42.406250 C 48.460512,42.155051 48.586354,41.765477 48.625000,41.531250 C 48.505515,41.495574 48.505389,41.443971 48.156250,41.437500 C 47.938368,41.433463 47.670356,41.297340 47.406250,41.250000 z M 23.343750,41.781250 C 23.219144,41.901154 23.057346,41.987851 22.968750,42.125000 C 22.302628,43.156179 23.022133,43.985447 24.531250,43.906250 C 25.960170,43.831263 26.994987,43.106643 26.781250,42.281250 C 25.631411,42.115906 24.588692,42.071199 23.343750,41.781250 z M 15.906250,41.906250 C 15.507637,41.898863 14.915944,42.149542 14.531250,42.500000 C 14.571326,43.069405 14.618673,43.591184 14.687500,44.468750 C 14.910537,44.541243 14.877509,44.671957 15.218750,44.718750 C 16.716278,44.924099 17.257814,44.944739 17.406250,43.437500 C 17.487542,42.612036 17.213529,41.930480 15.906250,41.906250 z M 24.437500,42.093750 C 24.885056,42.124549 25.493207,42.083524 25.593750,42.531250 C 25.771223,43.321552 25.638303,43.048907 25.281250,43.156250 C 24.754262,43.314680 24.454332,43.031449 24.375000,42.750000 C 24.231797,42.241951 23.981010,42.062336 24.437500,42.093750 z M 42.750000,42.125000 C 43.197556,42.155800 43.805706,42.114774 43.906250,42.562500 C 44.083722,43.352800 43.950802,43.080157 43.593750,43.187500 C 43.066764,43.345932 42.766832,43.062699 42.687500,42.781250 C 42.544298,42.273204 42.293510,42.093586 42.750000,42.125000 z M 37.593750,42.281250 C 37.353161,42.314373 37.142800,42.345861 36.906250,42.375000 C 36.977092,42.375507 37.016140,42.414875 37.093750,42.406250 C 37.299313,42.383405 37.399023,42.310887 37.593750,42.281250 z M 28.031250,42.500000 C 27.840735,43.025609 27.906460,43.423614 29.125000,44.031250 C 30.517161,44.725465 31.789729,43.752969 31.343750,42.781250 C 31.001826,42.782426 30.422061,42.822229 30.187500,42.812500 C 30.144412,42.810713 30.074897,42.783307 30.031250,42.781250 C 29.893436,42.996049 29.776370,43.165505 29.187500,43.125000 C 28.770412,43.003843 28.711760,42.853690 28.781250,42.593750 C 28.554886,42.573852 28.267483,42.525918 28.031250,42.500000 z M 35.531250,42.531250 C 34.422798,42.638480 33.528735,42.747300 32.656250,42.781250 C 31.787346,43.797026 31.649004,44.491894 33.531250,44.750000 C 35.028779,44.955352 35.570314,44.975989 35.718750,43.468750 C 35.754572,43.104999 35.692486,42.801699 35.531250,42.531250 z M 15.406250,42.812500 C 15.574766,42.815418 15.771756,42.828043 16.000000,42.843750 C 16.447557,42.874549 16.542858,43.162915 16.156250,43.531250 C 15.356531,44.293166 15.741699,43.653681 14.968750,43.531250 C 14.423872,43.444946 14.748285,43.098941 14.968750,42.906250 C 15.086518,42.803317 15.237735,42.809579 15.406250,42.812500 z M 33.718750,42.843750 C 33.887264,42.846670 34.084255,42.859293 34.312500,42.875000 C 34.760059,42.905800 34.855361,43.194165 34.468750,43.562500 C 33.669031,44.324414 34.054199,43.684931 33.281250,43.562500 C 32.736372,43.476194 33.092037,43.130191 33.312500,42.937500 C 33.430270,42.834565 33.550235,42.840829 33.718750,42.843750 z M 21.250000,43.281250 C 20.561746,43.273174 19.932502,43.852161 19.656250,44.156250 C 18.554321,45.369211 19.190103,46.656419 21.218750,46.406250 C 22.918190,46.196679 23.825271,45.633805 23.000000,44.437500 C 22.656030,43.938888 22.557280,43.305480 21.250000,43.281250 z M 39.562500,43.312500 C 38.874248,43.304422 38.245003,43.883411 37.968750,44.187500 C 36.866824,45.400463 37.502603,46.687670 39.531250,46.437500 C 41.230688,46.227927 42.137772,45.665055 41.312500,44.468750 C 40.968534,43.970136 40.869779,43.336730 39.562500,43.312500 z M 21.562500,44.312500 C 22.010055,44.343299 22.447864,44.675051 22.187500,45.093750 C 21.604599,46.031129 21.410160,45.397755 20.625000,45.343750 C 20.092333,45.189016 19.995361,44.908061 20.218750,44.718750 C 20.580534,44.412158 21.106010,44.281086 21.562500,44.312500 z M 39.875000,44.343750 C 40.322556,44.374551 40.760363,44.706301 40.500000,45.125000 C 39.917098,46.062381 39.753910,45.429005 38.968750,45.375000 C 38.436083,45.220268 38.307861,44.939310 38.531250,44.750000 C 38.893036,44.443406 39.418510,44.312336 39.875000,44.343750 z M 26.343750,44.750000 C 25.907990,44.741922 25.498576,44.688441 25.093750,45.250000 C 24.549634,45.903313 24.811447,47.051899 25.906250,47.187500 C 27.644473,47.402794 27.865295,47.619628 28.281250,46.406250 C 28.526308,45.691391 27.651030,44.774230 26.343750,44.750000 z M 44.687500,44.781250 C 44.251742,44.773175 43.811075,44.719691 43.406250,45.281250 C 42.993563,45.776761 43.188037,46.434674 43.718750,46.843750 C 44.066490,46.722212 44.352603,46.539336 44.687500,46.406250 C 44.159969,46.235507 43.995361,45.939310 44.218750,45.750000 C 44.399640,45.596702 44.503828,45.572171 44.625000,45.562500 C 44.746173,45.552831 44.896755,45.578043 45.125000,45.593750 C 45.400853,45.612734 45.563336,45.770167 45.687500,46.000000 C 45.902615,45.902560 46.135807,45.821576 46.343750,45.718750 C 46.061714,45.229210 45.562459,44.797467 44.687500,44.781250 z M 33.093750,45.218750 C 32.912877,45.230715 32.724200,45.267733 32.468750,45.375000 C 31.045987,45.972431 31.181044,47.155461 33.000000,48.062500 C 34.573276,48.847026 34.318683,47.463234 35.406250,46.406250 C 35.841033,45.983693 34.963529,45.274230 33.656250,45.250000 C 33.438369,45.245963 33.274622,45.206785 33.093750,45.218750 z M 16.093750,45.406250 C 16.372708,45.591863 16.678573,45.763326 16.968750,45.937500 C 16.848965,45.701326 16.580782,45.546394 16.093750,45.406250 z M 26.312500,45.531250 C 26.433673,45.521579 26.584255,45.546793 26.812500,45.562500 C 27.260056,45.593298 27.567097,45.925261 27.531250,46.468750 C 27.490061,47.093198 27.083545,46.614446 26.343750,46.375000 C 25.816217,46.204255 25.682861,45.908060 25.906250,45.718750 C 26.087141,45.565453 26.191328,45.540921 26.312500,45.531250 z M 33.093750,45.968750 C 33.223658,46.008035 33.337951,46.127938 33.531250,46.250000 C 33.978807,46.532616 33.940012,46.919426 33.906250,47.031250 C 33.680426,47.779228 33.491699,46.997432 32.718750,46.875000 C 32.173871,46.788695 32.432861,46.314310 32.656250,46.125000 C 32.837140,45.971704 32.963841,45.929464 33.093750,45.968750 z M 24.093750,46.843750 C 23.816587,46.839598 23.513691,46.925302 23.093750,46.906250 C 22.247580,46.867859 21.800318,47.316348 21.500000,47.781250 C 21.913648,47.899860 22.320806,48.021989 22.781250,48.125000 C 22.667453,47.851468 22.589163,47.694779 22.937500,47.718750 C 23.385057,47.749551 23.993207,47.708524 24.093750,48.156250 C 24.140428,48.364110 24.118727,48.380721 24.125000,48.468750 C 24.340629,48.504589 24.430379,48.592114 24.656250,48.625000 C 24.805730,48.646764 25.003058,48.636325 25.156250,48.656250 C 25.419792,48.296141 25.466457,47.845107 25.062500,47.406250 C 24.631740,46.938273 24.370912,46.847901 24.093750,46.843750 z M 42.406250,46.875000 C 42.129089,46.870850 41.857441,46.956552 41.437500,46.937500 C 40.591331,46.899110 40.112817,47.347598 39.812500,47.812500 C 39.788144,47.850204 39.833198,47.869168 39.812500,47.906250 C 40.869258,47.679216 41.914255,47.468097 42.906250,47.156250 C 42.745087,47.064229 42.548174,46.877126 42.406250,46.875000 z M 18.656250,46.906250 C 18.634203,46.905841 18.615416,46.935894 18.593750,46.937500 C 18.926798,47.090197 19.448233,47.173752 19.812500,47.312500 C 19.626896,47.070661 19.401646,46.920066 18.656250,46.906250 z M 36.968750,46.937500 C 36.532990,46.929423 36.199324,47.329210 35.718750,47.437500 C 34.756245,47.633021 34.680007,48.148352 35.031250,48.687500 C 35.398529,48.651042 35.757731,48.670198 36.125000,48.625000 C 36.098858,48.621301 36.088986,48.595572 36.062500,48.593750 C 35.529833,48.439017 35.714111,48.251810 35.937500,48.062500 C 36.118392,47.909202 36.247515,47.865785 36.375000,47.875000 C 36.502485,47.884215 36.615505,47.953044 36.843750,47.968750 C 37.275404,47.998454 37.487399,47.931410 37.375000,48.406250 C 37.846025,48.334615 38.284197,48.211803 38.750000,48.125000 C 38.741466,48.116035 38.758948,48.102674 38.750000,48.093750 C 37.922316,47.268286 38.276029,46.961730 36.968750,46.937500 z M 30.343750,47.000000 C 30.063431,46.920304 29.794318,46.949575 29.437500,47.031250 C 28.611919,47.220224 28.081567,47.628849 27.781250,48.093750 C 27.590848,48.388498 27.727558,48.601834 27.750000,48.843750 C 28.964461,48.915449 30.151402,48.939996 31.468750,48.906250 C 31.692042,48.557732 31.726733,48.166072 31.343750,47.750000 C 30.912989,47.282021 30.624069,47.079696 30.343750,47.000000 z M 29.843750,47.843750 C 30.039226,47.834136 30.218131,47.901571 30.343750,48.093750 C 30.596972,48.481145 30.294553,48.767657 29.937500,48.875000 C 29.410512,49.033432 29.007666,49.041956 28.875000,48.781250 C 28.731796,48.499841 29.014754,48.150926 29.218750,48.031250 C 29.412091,47.917826 29.648272,47.853366 29.843750,47.843750 z " id="path3566" style="fill:#000000;fill-opacity:1.0000000;fill-rule:evenodd;stroke:none;stroke-width:1.0000000pt;stroke-linecap:butt;stroke-linejoin:miter;stroke-opacity:1.0000000"/>
    </g>
  </g>
  <metadata>
    <rdf:RDF xmlns:cc="http://web.resource.org/cc/" xmlns:dc="http://purl.org/dc/elements/1.1/" xmlns:rdf="http://www.w3.org/1999/02/22-rdf-syntax-ns#">
      <cc:Work rdf:about="">
        <dc:title>Pimp Hat</dc:title>
        <dc:description></dc:description>
        <dc:subject>
          <rdf:Bag>
            <rdf:li>hat</rdf:li>
            <rdf:li>pimp</rdf:li>
            <rdf:li>clothing</rdf:li>
          </rdf:Bag>
        </dc:subject>
        <dc:publisher>
          <cc:Agent rdf:about="http://www.openclipart.org">
            <dc:title>James Birkett</dc:title>
          </cc:Agent>
        </dc:publisher>
        <dc:creator>
          <cc:Agent rdf:about="">
            <dc:title>James Birkett</dc:title>
          </cc:Agent>
        </dc:creator>
        <dc:rights>
          <cc:Agent rdf:about="">
            <dc:title>James Birkett</dc:title>
          </cc:Agent>
        </dc:rights>
        <dc:date></dc:date>
        <dc:format>image/svg+xml</dc:format>
        <dc:type rdf:resource="http://purl.org/dc/dcmitype/StillImage"/>
        <cc:license rdf:resource="Public Domain">
          <dc:date></dc:date>
        </cc:license>
        <dc:language>en</dc:language>
      </cc:Work>
      <cc:License rdf:about="Public Domain">
        <cc:permits rdf:resource="http://web.resource.org/cc/Reproduction"/>
        <cc:permits rdf:resource="http://web.resource.org/cc/Distribution"/>
        <cc:permits rdf:resource="http://web.resource.org/cc/DerivativeWorks"/>
      </cc:License>
    </rdf:RDF>
  </metadata>
</svg>
