<?xml version="1.0" encoding="UTF-8" standalone="no"?>
<!-- Created with Inkscape (http://www.inkscape.org/) -->
<svg
   xmlns:dc="http://purl.org/dc/elements/1.1/"
   xmlns:cc="http://creativecommons.org/ns#"
   xmlns:rdf="http://www.w3.org/1999/02/22-rdf-syntax-ns#"
   xmlns:svg="http://www.w3.org/2000/svg"
   xmlns="http://www.w3.org/2000/svg"
   xmlns:xlink="http://www.w3.org/1999/xlink"
   xmlns:sodipodi="http://sodipodi.sourceforge.net/DTD/sodipodi-0.dtd"
   xmlns:inkscape="http://www.inkscape.org/namespaces/inkscape"
   version="1.0"
   width="291.10043"
   height="148.67116"
   id="svg1"
   sodipodi:version="0.32"
   inkscape:version="0.46"
   sodipodi:docname="green_fedora.svg"
   inkscape:output_extension="org.inkscape.output.svg.inkscape">
  <metadata
     id="metadata34">
    <rdf:RDF>
      <cc:Work
         rdf:about="">
        <dc:format>image/svg+xml</dc:format>
        <dc:type
           rdf:resource="http://purl.org/dc/dcmitype/StillImage" />
      </cc:Work>
    </rdf:RDF>
  </metadata>
  <sodipodi:namedview
     inkscape:window-height="726"
     inkscape:window-width="645"
     inkscape:pageshadow="2"
     inkscape:pageopacity="0.0"
     guidetolerance="10.0"
     gridtolerance="10.0"
     objecttolerance="10.0"
     borderopacity="1.0"
     bordercolor="#666666"
     pagecolor="#ffffff"
     id="base"
     showgrid="false"
     inkscape:zoom="1.6466667"
     inkscape:cx="150"
     inkscape:cy="143.36011"
     inkscape:window-x="667"
     inkscape:window-y="25"
     inkscape:current-layer="svg1" />
  <defs
     id="defs3">
    <linearGradient
       id="linearGradient1022">
      <stop
         style="stop-color:black;stop-opacity:0.408333"
         offset="0"
         id="stop1024" />
      <stop
         style="stop-color:black;stop-opacity:0"
         offset="1"
         id="stop1023" />
    </linearGradient>
    <linearGradient
       id="linearGradient1017">
      <stop
         style="stop-color:white;stop-opacity:0.175"
         offset="0"
         id="stop1019" />
      <stop
         style="stop-color:white;stop-opacity:0.375"
         offset="1"
         id="stop1018" />
    </linearGradient>
    <defs
       id="defs877">
      <linearGradient
         x1="0"
         y1="0.5"
         x2="1"
         y2="0.5"
         id="linearGradient585"
         xlink:href="#linearGradient1017"
         gradientUnits="objectBoundingBox"
         spreadMethod="pad" />
      <linearGradient
         x1="0"
         y1="0.5"
         x2="1"
         y2="0.5"
         id="linearGradient579"
         xlink:href="#linearGradient1022"
         gradientUnits="objectBoundingBox"
         spreadMethod="pad" />
      <linearGradient
         x1="0.4852941"
         y1="0.51136363"
         x2="0.41176471"
         y2="0.60227275"
         id="linearGradient582"
         xlink:href="#linearGradient579" />
      <linearGradient
         x1="0.50735295"
         y1="0.12280702"
         x2="0.3272059"
         y2="1.0964912"
         id="linearGradient584"
         xlink:href="#linearGradient585" />
      <linearGradient
         id="linearGradient589"
         xlink:href="#linearGradient585" />
    </defs>
    <linearGradient
       x1="-8.4761826"
       y1="-177.46144"
       x2="9.7079431"
       y2="-157.47727"
       id="linearGradient1021"
       xlink:href="#linearGradient1022"
       gradientTransform="scale(1.5789259,0.6333419)"
       gradientUnits="userSpaceOnUse" />
    <linearGradient
       x1="-3.1914111"
       y1="-154.59495"
       x2="12.010341"
       y2="-127.91295"
       id="linearGradient1025"
       xlink:href="#linearGradient1017"
       gradientTransform="scale(1.5551909,0.6430079)"
       gradientUnits="userSpaceOnUse" />
    <linearGradient
       x1="-27.045366"
       y1="-210.38923"
       x2="-19.672826"
       y2="-178.84083"
       id="linearGradient1026"
       xlink:href="#linearGradient1017"
       gradientTransform="scale(1.916124,0.5218869)"
       gradientUnits="userSpaceOnUse" />
  </defs>
  <g
     transform="translate(-15.580962,-55.789387)"
     id="g1875">
    <path
       d="M 200.69507,60.432452 C 199.07679,60.516312 197.41784,60.839492 195.78882,61.432452 C 154.32279,79.221232 111.68773,59.051502 95.101323,78.026202 C 84.182253,90.517512 78.204063,115.74157 75.226323,131.9637 C 75.161993,131.97955 75.040333,132.01039 74.976323,132.0262 C 74.815883,132.90948 74.706573,134.09762 74.570073,135.1512 C 73.551693,141.03734 72.923003,145.49293 72.788823,146.5887 C 41.993303,160.04023 7.5004527,206.87895 27.570073,200.18245 C 72.590343,163.41896 242.20423,132.66227 291.75757,137.2137 C 297.22557,131.54266 281.24686,125.58977 243.22632,115.80745 C 244.43804,105.56092 223.49409,59.250892 200.69507,60.432452 z"
       style="fill:#000000;fill-opacity:0.03921569;fill-rule:evenodd;stroke:none;stroke-width:0.94826488pt"
       id="path1235" />
    <path
       d="M 203.42753,61.151329 C 201.80925,61.235189 200.1503,61.558369 198.52128,62.151329 C 157.05525,79.940109 114.42019,59.770379 97.833781,78.745079 C 86.914711,91.236389 80.936521,116.46045 77.958781,132.68258 C 77.894451,132.69843 77.772791,132.72927 77.708781,132.74508 C 77.548341,133.62836 77.439031,134.8165 77.302531,135.87008 C 76.284151,141.75622 75.655461,146.21181 75.521281,147.30758 C 44.725761,160.75911 10.232911,207.59783 30.302531,200.90133 C 75.322801,164.13784 244.93669,133.38115 294.49003,137.93258 C 299.95803,132.26154 283.97932,126.30865 245.95878,116.52633 C 247.1705,106.2798 226.22655,59.969769 203.42753,61.151329 z"
       style="fill:#000000;fill-opacity:0.03921569;fill-rule:evenodd;stroke:none;stroke-width:0.94826488pt"
       id="path1871" />
    <path
       d="M 206.33544,62.605282 C 204.71716,62.689142 203.05821,63.012322 201.42919,63.605282 C 159.96316,81.394062 117.3281,61.224332 100.7417,80.199032 C 89.822626,92.690342 83.844436,117.9144 80.866696,134.13653 C 80.802366,134.15238 80.680706,134.18322 80.616696,134.19903 C 80.456256,135.08231 80.346946,136.27045 80.210446,137.32403 C 79.192066,143.21017 78.563376,147.66576 78.429196,148.76153 C 47.63368,162.21306 13.14083,209.05178 33.21045,202.35528 C 78.230716,165.59179 247.8446,134.8351 297.39794,139.38653 C 302.86594,133.71549 286.88723,127.7626 248.86669,117.98028 C 250.07841,107.73375 229.13446,61.423722 206.33544,62.605282 z"
       style="fill:#000000;fill-opacity:0.03921569;fill-rule:evenodd;stroke:none;stroke-width:0.94826488pt"
       id="path1872" />
    <path
       d="M 210.21266,63.089935 C 208.59438,63.173795 206.93543,63.496975 205.30641,64.089935 C 163.84038,81.878715 121.20532,61.708985 104.61891,80.683685 C 93.699845,93.174995 87.721655,118.39905 84.743915,134.62118 C 84.679585,134.63703 84.557925,134.66787 84.493915,134.68368 C 84.333475,135.56696 84.224165,136.7551 84.087665,137.80868 C 83.069285,143.69482 82.440595,148.15041 82.306415,149.24618 C 51.510895,162.69771 17.018048,209.53643 37.087669,202.83993 C 82.107935,166.07644 251.72182,135.31975 301.27516,139.87118 C 306.74316,134.20014 290.76445,128.24725 252.74391,118.46493 C 253.95563,108.2184 233.01168,61.908375 210.21266,63.089935 z"
       style="fill:#000000;fill-opacity:0.03921569;fill-rule:evenodd;stroke:none;stroke-width:0.94826488pt"
       id="path1873" />
    <path
       d="M 214.57454,64.05924 C 212.95626,64.1431 211.29731,64.46628 209.66829,65.05924 C 168.20226,82.84802 125.5672,62.67829 108.9808,81.65299 C 98.061727,94.1443 92.083537,119.36836 89.105797,135.59049 C 89.041467,135.60634 88.919807,135.63718 88.855797,135.65299 C 88.695357,136.53627 88.586047,137.72441 88.449547,138.77799 C 87.431167,144.66413 86.802477,149.11972 86.668297,150.21549 C 55.872773,163.66702 21.379922,210.50574 41.449543,203.80924 C 86.469817,167.04575 256.0837,136.28906 305.63704,140.84049 C 311.10504,135.16945 295.12633,129.21656 257.10579,119.43424 C 258.31751,109.18771 237.37356,62.87768 214.57454,64.05924 z"
       style="fill:#000000;fill-opacity:0.03921569;fill-rule:evenodd;stroke:none;stroke-width:0.94826488pt"
       id="path1874" />
    <g
       transform="translate(167.5,178.75)"
       id="g1446">
      <path
         d="M -33.415811,-86.995443 C -1.570487,-90.645536 19.093453,-86.038845 35.5026,-74.585126"
         style="fill:none;fill-opacity:0.75;fill-rule:evenodd;stroke:#000000;stroke-width:0.94826488pt"
         id="path898" />
      <path
         d="M 27.759484,-122.34574 C 26.1412,-122.26187 24.501439,-121.93067 22.872416,-121.33771 C -18.593615,-103.54893 -61.24439,-123.70955 -77.830803,-104.73485 C -93.703574,-86.576548 -99.637397,-40.241021 -100.1336,-36.188745 C -130.92912,-22.737222 -165.43082,24.111286 -145.3612,17.414782 C -100.34093,-19.348699 69.263058,-50.118505 118.8164,-45.567074 C 124.2844,-51.238118 108.31233,-57.181013 70.291785,-66.963337 C 71.503503,-77.209874 50.558503,-123.5273 27.759484,-122.34574 z"
         style="fill:#005d00;fill-opacity:1;fill-rule:evenodd;stroke:#000000;stroke-width:0.94826488pt;stroke-linecap:butt;stroke-linejoin:miter;stroke-opacity:1"
         id="path912" />
      <path
         d="M -100.15233,-36.243 C -67.845737,-45.911251 7.9235281,-62.008088 69.923405,-66.809696 C 68.975392,-71.277914 69.336076,-71.796686 68.16552,-75.834723 C 42.681749,-78.205822 -58.108279,-60.599773 -97.954966,-50.759965 C -98.83391,-45.920977 -99.273383,-37.562725 -100.15233,-36.243 z"
         style="fill:#000000;fill-opacity:0.99166697;fill-rule:evenodd;stroke:none;stroke-width:1pt;stroke-linecap:butt;stroke-linejoin:miter;stroke-opacity:1"
         id="path911" />
      <path
         d="M 5.2101427,-68.323041 C 5.2101427,-68.323041 35.497984,-74.345768 40.118674,-72.970047 C 43.11619,-70.240352 41.826079,-67.302452 39.452554,-65.635513 C 35.455864,-63.968573 11.974641,-60.883744 6.9379635,-60.71771 C 4.6065584,-60.822472 2.8787471,-66.322713 5.2101427,-68.323041 z"
         style="fill:#ffffff;fill-opacity:0.48333333;fill-rule:evenodd;stroke:none;stroke-width:1pt;stroke-linecap:butt;stroke-linejoin:miter;stroke-opacity:1"
         id="path913" />
      <path
         d="M 1.6134976,-111.29617 C -9.0103555,-105.40696 -66.539095,-84.779233 -75.02369,-89.147141 C -84.068418,-91.140062 -82.982532,-95.061016 -78.763989,-96.335986 C -71.345908,-93.378793 -69.493946,-85.07884 1.6134976,-111.29617 z"
         style="fill:url(#linearGradient1026);fill-opacity:1;fill-rule:evenodd;stroke-width:1pt"
         id="path588" />
      <path
         d="M 37.972118,-105.3034 C 32.32325,-88.471315 19.791789,-64.023142 -35.941941,-79.861356 C 5.2763272,-83.861667 12.704036,-91.899118 37.972118,-105.3034 z"
         style="fill:url(#linearGradient1025);fill-opacity:1;fill-rule:evenodd;stroke-width:1pt"
         id="path583" />
      <path
         d="M 35.000742,-111.47464 C 13.787479,-118.41915 -29.122423,-98.690342 -37.30942,-87.708272 C -36.779327,-75.475857 27.589592,-95.366021 35.000742,-111.47464 z"
         style="fill:url(#linearGradient1021);fill-opacity:1;fill-rule:evenodd;stroke-width:1pt"
         id="path578" />
    </g>
  </g>
</svg>
