<?xml version="1.0" encoding="UTF-8" standalone="no"?>
<!-- Created with Inkscape (http://www.inkscape.org/) -->
<svg
   xmlns:dc="http://purl.org/dc/elements/1.1/"
   xmlns:cc="http://creativecommons.org/ns#"
   xmlns:rdf="http://www.w3.org/1999/02/22-rdf-syntax-ns#"
   xmlns:svg="http://www.w3.org/2000/svg"
   xmlns="http://www.w3.org/2000/svg"
   xmlns:xlink="http://www.w3.org/1999/xlink"
   xmlns:sodipodi="http://sodipodi.sourceforge.net/DTD/sodipodi-0.dtd"
   xmlns:inkscape="http://www.inkscape.org/namespaces/inkscape"
   id="svg2"
   sodipodi:version="0.32"
   inkscape:version="0.46"
   width="300"
   height="199.96333"
   sodipodi:docbase="/home/duffy/Desktop"
   sodipodi:docname="mairin_Leprechaun_s_hat_2.svg"
   inkscape:output_extension="org.inkscape.output.svg.inkscape"
   version="1.0"
   sodipodi:modified="true">
  <metadata
     id="metadata7">
    <rdf:RDF>
      <cc:Work
         rdf:about="">
        <dc:format>image/svg+xml</dc:format>
        <dc:type
           rdf:resource="http://purl.org/dc/dcmitype/StillImage" />
      </cc:Work>
    </rdf:RDF>
  </metadata>
  <defs
     id="defs5">
    <linearGradient
       inkscape:collect="always"
       id="linearGradient3190">
      <stop
         style="stop-color: rgb(28, 59, 24); stop-opacity: 1;"
         offset="0"
         id="stop3192" />
      <stop
         style="stop-color: rgb(28, 59, 24); stop-opacity: 0;"
         offset="1"
         id="stop3194" />
    </linearGradient>
    <linearGradient
       id="linearGradient2225">
      <stop
         style="stop-color: rgb(10, 91, 0); stop-opacity: 1;"
         offset="0"
         id="stop2227" />
      <stop
         id="stop2233"
         offset="0"
         style="stop-color: rgb(171, 225, 164); stop-opacity: 1;" />
      <stop
         style="stop-color: rgb(35, 145, 21); stop-opacity: 1;"
         offset="1"
         id="stop2229" />
    </linearGradient>
    <linearGradient
       id="linearGradient2213">
      <stop
         style="stop-color: rgb(0, 0, 0); stop-opacity: 1;"
         offset="0"
         id="stop2215" />
      <stop
         id="stop2223"
         offset="0.5"
         style="stop-color: rgb(89, 89, 89); stop-opacity: 1;" />
      <stop
         style="stop-color: rgb(0, 0, 0); stop-opacity: 1;"
         offset="1"
         id="stop2217" />
    </linearGradient>
    <linearGradient
       inkscape:collect="always"
       xlink:href="#linearGradient2225"
       id="linearGradient2182"
       gradientUnits="userSpaceOnUse"
       gradientTransform="matrix(0.4543892,0,0,0.4543892,-20.473778,86.489167)"
       x1="431.39035"
       y1="1015.7707"
       x2="477.51135"
       y2="658.74127" />
    <linearGradient
       inkscape:collect="always"
       xlink:href="#linearGradient2213"
       id="linearGradient2191"
       gradientUnits="userSpaceOnUse"
       x1="160.35934"
       y1="586.86548"
       x2="585.07648"
       y2="633.03674"
       gradientTransform="matrix(0.4543892,0,0,0.4543892,-19.882027,86.015693)" />
    <linearGradient
       inkscape:collect="always"
       xlink:href="#linearGradient2225"
       id="linearGradient2194"
       gradientUnits="userSpaceOnUse"
       x1="-166.00229"
       y1="281.3663"
       x2="-166.00229"
       y2="290.30887"
       gradientTransform="matrix(0.4543892,0,0,0.4543892,-19.882027,86.015693)" />
    <radialGradient
       inkscape:collect="always"
       xlink:href="#linearGradient3190"
       id="radialGradient3196"
       cx="360.67175"
       cy="316.20541"
       fx="360.67175"
       fy="316.20541"
       r="216.44223"
       gradientTransform="matrix(0.5279957,-4.0172371e-2,1.3737504e-2,0.1805552,-48.095283,356.91663)"
       gradientUnits="userSpaceOnUse" />
    <linearGradient
       inkscape:collect="always"
       xlink:href="#linearGradient2225"
       id="linearGradient2427"
       gradientUnits="userSpaceOnUse"
       gradientTransform="matrix(0.4543892,0,0,0.4543892,-19.882027,86.015693)"
       x1="-166.00229"
       y1="281.3663"
       x2="-166.00229"
       y2="290.30887" />
    <linearGradient
       inkscape:collect="always"
       xlink:href="#linearGradient2213"
       id="linearGradient2429"
       gradientUnits="userSpaceOnUse"
       gradientTransform="matrix(0.4543892,0,0,0.4543892,-19.882027,86.015693)"
       x1="160.35934"
       y1="586.86548"
       x2="585.07648"
       y2="633.03674" />
    <linearGradient
       inkscape:collect="always"
       xlink:href="#linearGradient2225"
       id="linearGradient2431"
       gradientUnits="userSpaceOnUse"
       gradientTransform="matrix(0.4543892,0,0,0.4543892,-20.473778,86.489167)"
       x1="431.39035"
       y1="1015.7707"
       x2="477.51135"
       y2="658.74127" />
    <radialGradient
       inkscape:collect="always"
       xlink:href="#linearGradient3190"
       id="radialGradient2433"
       gradientUnits="userSpaceOnUse"
       gradientTransform="matrix(0.5279957,-4.0172371e-2,1.3737504e-2,0.1805552,-48.095283,356.91663)"
       cx="360.67175"
       cy="316.20541"
       fx="360.67175"
       fy="316.20541"
       r="216.44223" />
  </defs>
  <sodipodi:namedview
     inkscape:window-height="821"
     inkscape:window-width="1280"
     inkscape:pageshadow="2"
     inkscape:pageopacity="0.0"
     borderopacity="1.0"
     bordercolor="#666666"
     pagecolor="#ffffff"
     id="base"
     showguides="true"
     inkscape:guide-bbox="true"
     inkscape:zoom="1.0064236"
     inkscape:cx="297.6225"
     inkscape:cy="232.84497"
     inkscape:window-x="150"
     inkscape:window-y="25"
     inkscape:current-layer="svg2"
     showgrid="false" />
  <g
     id="g2415"
     transform="translate(3.4767334e-7,-240.10725)">
    <path
       sodipodi:nodetypes="ccccc"
       id="path2183"
       d="M 59.282787,404.89093 L 100.33121,248.02732 C 142.68275,237.97784 185.0343,235.38356 227.38585,260.24411 L 247.91006,418.08507 L 59.282787,404.89093 z"
       style="fill:url(#linearGradient2427);fill-opacity:1;fill-rule:evenodd;stroke:#3e5b3a;stroke-width:1.36316776;stroke-linecap:butt;stroke-linejoin:miter;stroke-miterlimit:4;stroke-dasharray:none;stroke-opacity:1" />
    <path
       sodipodi:nodetypes="ccccc"
       id="path2185"
       d="M 57.354313,411.92946 L 77.537647,329.49048 C 100.38112,315.95402 175.44588,317.85877 239.58736,344.56174 L 249.46703,426.06839 L 57.354313,411.92946 z"
       style="fill:url(#linearGradient2429);fill-opacity:1;fill-rule:evenodd;stroke:#353535;stroke-width:1.36316776;stroke-linecap:butt;stroke-linejoin:miter;stroke-miterlimit:4;stroke-dasharray:none;stroke-opacity:1" />
    <path
       d="M 189.91543,405.59199 L 190.39144,324.43222 L 194.91354,320.86215 C 210.30453,321.33816 222.83948,325.62225 232.51836,333.71442 L 237.99248,411.78012 L 232.51836,416.06421 L 189.91543,405.59199 z M 203.96772,334.82964 L 205.61476,384.55372 L 225.32539,389.94024 L 223.22715,369.18999 L 207.80643,360.27353 L 222.23132,360.578 L 220.70619,339.83724 C 215.1267,335.23031 209.54721,334.33494 203.96772,334.82964 z"
       style="fill:#ffcd00;fill-opacity:1;fill-rule:evenodd;stroke:#866c00;stroke-width:1.36316776;stroke-linecap:butt;stroke-linejoin:miter;stroke-miterlimit:4;stroke-dasharray:none;stroke-opacity:1"
       id="path2187" />
    <path
       id="path2201"
       d="M 190.41584,324.69244 L 195.29192,320.91741 L 196.23568,401.45129 L 190.10126,405.69819 L 190.41584,324.69244 z"
       style="fill:#bc9500;fill-opacity:1;fill-rule:evenodd;stroke:none;stroke-width:1px;stroke-linecap:butt;stroke-linejoin:miter;stroke-opacity:1" />
    <path
       sodipodi:nodetypes="ccccccc"
       id="path2203"
       d="M 203.75276,330.1823 L 203.8252,334.83704 C 208.46531,334.13808 213.88955,334.63006 220.74107,339.56423 L 222.42951,360.79934 L 225.94316,360.91533 L 224.13873,336.46201 C 216.40735,330.08021 210.03196,329.39989 203.75276,330.1823 z"
       style="fill:#bc9500;fill-opacity:1;fill-rule:evenodd;stroke:none;stroke-width:1px;stroke-linecap:butt;stroke-linejoin:miter;stroke-opacity:1" />
    <path
       sodipodi:nodetypes="cccccc"
       id="path2205"
       d="M 208.4874,360.37656 L 223.42146,369.17205 L 225.58417,390.32278 L 229.62124,391.73479 L 226.8959,366.63479 L 208.4874,360.37656 z"
       style="fill:#bc9500;fill-opacity:1;fill-rule:evenodd;stroke:none;stroke-width:1px;stroke-linecap:butt;stroke-linejoin:miter;stroke-opacity:1" />
    <path
       sodipodi:nodetypes="csccszsz"
       id="path1308"
       d="M 57.3281,436.65459 C 102.47164,442.2572 157.43026,433.26945 228.85187,439.09795 C 248.50311,440.70162 271.49443,435.90386 298.24324,419.06241 C 299.69994,412.66216 302.04119,410.2618 287.00379,407.33429 C 282.81659,405.47331 282.83281,416.7478 244.48936,410.75499 C 194.71464,402.97557 144.70414,381.81416 101.79722,377.52532 C 58.890308,373.23647 22.726482,372.97855 5.5289004,397.07218 C -9.784534,418.52614 12.184562,431.05199 57.3281,436.65459 z"
       style="fill:#5ab64d;fill-opacity:1;fill-rule:evenodd;stroke:#3e5b3a;stroke-width:1.36316776;stroke-linecap:butt;stroke-linejoin:miter;stroke-miterlimit:4;stroke-dasharray:none;stroke-opacity:1" />
    <path
       sodipodi:nodetypes="ccccccccccc"
       id="path2237"
       d="M 55.153629,386.75534 C 41.081789,387.1732 26.554462,387.53113 13.307223,392.634 C 8.4956259,394.36322 4.8200027,398.14437 2.8846705,402.82936 C -0.018772208,408.14005 0.54590091,415.29191 5.1424169,419.51397 C 13.172866,427.24519 24.493016,429.95923 34.995609,432.56737 C 69.481308,440.35093 105.15563,438.00031 140.23724,437.14729 C 170.83642,436.17942 201.50068,436.36821 232.02464,438.88231 C 253.4223,439.77473 274.2719,432.8365 292.45841,422.10312 C 268.32825,425.8696 243.80252,421.46692 220.14982,416.46427 C 182.87428,408.52259 146.96584,394.4954 109.05555,389.62368 C 91.192689,387.71316 73.150215,386.54591 55.153629,386.75534 z"
       style="fill:url(#linearGradient2431);fill-opacity:1;fill-rule:evenodd;stroke:#3e5b3a;stroke-width:0.90877849;stroke-linecap:butt;stroke-linejoin:miter;stroke-miterlimit:4;stroke-dasharray:none;stroke-opacity:1" />
    <path
       id="path3174"
       d="M 84.238321,387.52831 C 53.487974,389.41896 32.427824,395.3799 32.082956,403.65913 C 31.579292,415.75044 75.435202,428.22219 129.97544,431.49047 C 180.25472,434.50341 222.14307,428.6477 228.7767,418.24218 C 225.88602,417.66695 223.01032,417.07361 220.1433,416.46722 C 182.86776,408.52554 146.96962,394.50158 109.05933,389.62986 C 100.81788,388.7484 92.536432,388.03239 84.238321,387.52831 z M 162.80506,390.65224 C 182.13932,396.04171 202.10002,401.97859 222.20225,406.47066 C 211.39361,400.05088 189.72368,394.25328 162.80506,390.65224 z"
       style="opacity:1;fill:url(#radialGradient2433);fill-opacity:1;stroke:none;stroke-width:2;stroke-miterlimit:4;stroke-dasharray:none;stroke-opacity:1" />
    <path
       id="path3204"
       d="M 196.79214,322.67752 L 197.7143,394.00682"
       style="fill:none;fill-rule:evenodd;stroke:#f8ec70;stroke-width:1.81755698;stroke-linecap:butt;stroke-linejoin:miter;stroke-miterlimit:4;stroke-dasharray:none;stroke-opacity:1" />
  </g>
</svg>
