<?xml version="1.0" encoding="UTF-8" standalone="no"?>
<!-- Generator: Adobe Illustrator 13.0.0, SVG Export Plug-In . SVG Version: 6.00 Build 14948)  -->

<svg
   xmlns:dc="http://purl.org/dc/elements/1.1/"
   xmlns:cc="http://creativecommons.org/ns#"
   xmlns:rdf="http://www.w3.org/1999/02/22-rdf-syntax-ns#"
   xmlns:svg="http://www.w3.org/2000/svg"
   xmlns="http://www.w3.org/2000/svg"
   xmlns:xlink="http://www.w3.org/1999/xlink"
   xmlns:sodipodi="http://sodipodi.sourceforge.net/DTD/sodipodi-0.dtd"
   xmlns:inkscape="http://www.inkscape.org/namespaces/inkscape"
   version="1.1"
   id="Layer_1"
   x="0px"
   y="0px"
   width="374.56735"
   height="288.26266"
   viewBox="0 0 374.56735 288.26266"
   enable-background="new 0 0 440 370"
   xml:space="preserve"
   inkscape:version="0.47pre1 r21720"
   sodipodi:docname="adriano_Hard_Hat.svg"
   inkscape:output_extension="org.inkscape.output.svg.inkscape"><metadata
   id="metadata119"><rdf:RDF><cc:Work
       rdf:about=""><dc:format>image/svg+xml</dc:format><dc:type
         rdf:resource="http://purl.org/dc/dcmitype/StillImage" /></cc:Work></rdf:RDF></metadata><defs
   id="defs117"><radialGradient
     inkscape:collect="always"
     xlink:href="#SVGID_1_"
     id="radialGradient3026"
     gradientUnits="userSpaceOnUse"
     gradientTransform="translate(614.4,-728.401)"
     cx="-464.9202"
     cy="873.18951"
     r="255.5941" /></defs><sodipodi:namedview
   pagecolor="#ffffff"
   bordercolor="#666666"
   borderopacity="1"
   objecttolerance="10"
   gridtolerance="10"
   guidetolerance="10"
   inkscape:pageopacity="0"
   inkscape:pageshadow="2"
   inkscape:window-width="1440"
   inkscape:window-height="826"
   id="namedview115"
   showgrid="false"
   inkscape:zoom="0.63783784"
   inkscape:cx="208.23776"
   inkscape:cy="170.06189"
   inkscape:window-x="0"
   inkscape:window-y="25"
   inkscape:window-maximized="1"
   inkscape:current-layer="Layer_1" />
<g
   id="g2983"
   transform="translate(-11.762243,-69.934815)"><g
     id="g5">
		<g
   id="g7">
			<path
   d="m 266.018,314.156 c 0,0 -30.965,16.684 -78.454,33.213 -28.683,10 -79.628,-6.867 -106.152,-13.891 -26.563,-7.049 -72.459,-21.629 -59.724,-34.364 12.736,-12.732 49.354,-39.888 49.354,-39.888 0,0 -34.865,57.573 194.976,54.93 z"
   id="path9"
   style="fill:#ffffff;stroke:#cccccc;stroke-width:15.47719955" />
			<g
   id="g11">
				<path
   d="m 54.069,272.286 c 0,24.282 72.646,43.974 162.273,43.974 89.617,0 162.249,-19.689 162.249,-43.974 C 359.9,258.738 362.605,247.332 362.605,247.332 H 69.299 c 0.01,0 2.605,11.406 -15.23,24.954 z"
   id="path13"
   style="fill:#ffffff;stroke:#cccccc;stroke-width:15.47719955" />
			</g>
			<g
   id="g15">
				<g
   id="g17">
					<path
   d="m 344.759,160.41 c -3.628,-8.278 -17.685,-36.869 -46.261,-56.996 -51.803,-36.532 -116.039,-29.563 -153.81,-7.634 -25.523,14.848 -43.106,33.982 -57.037,62.074 -3.4,6.862 -9.738,21.504 -14.082,42.451 -3.759,18.168 -4.121,29.625 -4.726,48.653 0.03,15.899 30.204,30.239 82.196,37.222 72.762,9.744 160.702,1.28 196.393,-18.902 10.213,-5.772 15.034,-11.914 15.014,-17.896 -0.753,-24.585 -1.662,-52.437 -17.687,-88.972 z"
   id="path19"
   style="fill:#ffffff" />
				</g>
				<g
   id="g21">
					<path
   d="m 344.759,160.41 c -3.628,-8.278 -17.685,-36.869 -46.261,-56.996 -51.803,-36.532 -116.039,-29.563 -153.81,-7.634 -25.523,14.848 -43.106,33.982 -57.037,62.074 -3.4,6.862 -9.738,21.504 -14.082,42.451 -3.759,18.168 -4.121,29.625 -4.726,48.653 0.03,15.899 30.204,30.239 82.196,37.222 72.762,9.744 160.702,1.28 196.393,-18.902 10.213,-5.772 15.034,-11.914 15.014,-17.896 -0.753,-24.585 -1.662,-52.437 -17.687,-88.972 z"
   id="path23"
   style="fill:none;stroke:#cccccc;stroke-width:15.47719955" />
				</g>
			</g>
		</g>
		<g
   id="g25">
			<path
   d="m 267.237,313.428 c 0,0 -30.974,16.656 -78.453,33.211 -28.673,9.98 -79.612,-6.867 -106.139,-13.916 -26.562,-7.023 -72.464,-21.604 -59.728,-34.365 12.735,-12.73 49.334,-39.871 49.334,-39.871 0,0 -34.849,57.576 194.986,54.941 z"
   id="path27"
   style="fill:#ffd520;stroke:#000000;stroke-width:5.15910006" />
			<g
   id="g29">
				<path
   d="m 55.292,271.555 c 0,24.284 72.624,43.959 162.259,43.959 89.613,0 162.264,-19.67 162.264,-43.959 -18.702,-13.548 -15.979,-24.953 -15.979,-24.953 H 70.512 c 0.011,0 2.601,11.406 -15.22,24.953 z"
   id="path31"
   style="stroke:#000000;stroke-width:5.15910006" />
			</g>
			<g
   id="g33">
				<g
   id="g35">
					<path
   d="m 345.992,159.669 c -3.628,-8.272 -17.692,-36.851 -46.26,-56.997 -51.798,-36.531 -116.034,-29.554 -153.81,-7.628 -25.539,14.849 -43.112,33.981 -57.032,62.05 -3.406,6.862 -9.759,21.504 -14.082,42.462 -3.748,18.156 -4.115,29.623 -4.729,48.627 0.021,15.9 30.219,30.264 82.218,37.223 72.76,9.769 160.69,1.279 196.371,-18.903 10.213,-5.772 15.044,-11.892 15.022,-17.896 -0.78,-24.546 -1.692,-52.402 -17.698,-88.938 z"
   id="path37"
   style="fill:#ffd520" />
				</g>
				<g
   id="g39">
					<path
   d="m 345.992,159.669 c -3.628,-8.272 -17.692,-36.851 -46.26,-56.997 -51.798,-36.531 -116.034,-29.554 -153.81,-7.628 -25.539,14.849 -43.112,33.981 -57.032,62.05 -3.406,6.862 -9.759,21.504 -14.082,42.462 -3.748,18.156 -4.115,29.623 -4.729,48.627 0.021,15.9 30.219,30.264 82.218,37.223 72.76,9.769 160.69,1.279 196.371,-18.903 10.213,-5.772 15.044,-11.892 15.022,-17.896 -0.78,-24.546 -1.692,-52.402 -17.698,-88.938 z"
   id="path41"
   style="fill:none;stroke:#000000;stroke-width:5.15910006" />
				</g>
			</g>
			<g
   id="g43">
				<g
   id="g45">
					
						<radialGradient
   id="SVGID_1_"
   cx="-464.9202"
   cy="873.18951"
   r="255.5941"
   gradientTransform="translate(614.4,-728.401)"
   gradientUnits="userSpaceOnUse">
						<stop
   offset="0.5"
   style="stop-color: rgb(254, 213, 31);"
   id="stop48" />
						<stop
   offset="1"
   style="stop-color: rgb(0, 0, 0);"
   id="stop50" />
					</radialGradient>
					<path
   d="m 345.992,159.669 c -3.628,-8.272 -17.692,-36.851 -46.26,-56.997 -51.798,-36.531 -116.034,-29.554 -153.81,-7.628 -25.539,14.849 -43.112,33.981 -57.032,62.05 -3.406,6.862 -9.759,21.504 -14.082,42.462 -3.748,18.156 -4.115,29.623 -4.729,48.627 0.021,15.9 30.219,30.264 82.218,37.223 72.76,9.769 160.69,1.279 196.371,-18.903 10.213,-5.772 15.044,-11.892 15.022,-17.896 -0.78,-24.546 -1.692,-52.402 -17.698,-88.938 z"
   id="path52"
   style="fill:url(#radialGradient3026)" />
				</g>
			</g>
		</g>
		<g
   id="g54">
			<g
   id="g56">
				<g
   id="g58">
					<path
   d="M 292.967,97.194 C 183.995,27.707 73.4,170.418 76.861,262.057 l -10.137,4.09 C 66.729,166.256 174.974,19.021 292.967,97.194"
   id="path60"
   style="fill:#cccccc" />
				</g>
				<polygon
   points="66.729,266.146 76.865,262.057 61.197,281.15 "
   id="polygon62"
   style="fill:#cccccc" />
			</g>
			<path
   d="m 109.11,280.45 0,0 C 109.105,190.041 163.059,49.176 260.763,81.157 155.99,45.698 66.749,175.416 66.749,266.127 l -5.532,15.003 42.381,14.294 5.512,-14.974 0,0 z"
   id="path64"
   style="stroke:#000000;stroke-width:5.15910006;stroke-linecap:round;stroke-linejoin:round" />
			<g
   id="g66">
				<g
   id="g68">
					<path
   d="m 109.105,280.45 0,0 0,0 -5.526,15.004 24.849,-17.417 C 124.95,186.375 183.992,27.712 292.974,97.173 174.974,19.021 109.105,180.544 109.105,280.45 z"
   id="path70"
   style="fill:#cccccc" />
				</g>
				<g
   id="g72">
					<path
   d="m 109.105,280.45 0,0 0,0 -5.526,15.004 24.849,-17.417 C 124.95,186.375 183.992,27.712 292.974,97.173 174.974,19.021 109.105,180.544 109.105,280.45 z"
   id="path74"
   style="fill:none;stroke:#000000;stroke-width:5.15910006;stroke-linecap:round;stroke-linejoin:round" />
				</g>
			</g>
		</g>
	</g><g
     id="g76">
		<polygon
   points="253.029,251.639 254.677,222.574 265.489,233.406 267.237,277.314 "
   id="polygon78"
   style="fill:#999999;stroke:#000000;stroke-width:5.15910006;stroke-linecap:round;stroke-linejoin:round" />
		<polygon
   points="320.698,241.305 322.323,217.4 327.99,223.074 329.726,266.975 "
   id="polygon80" />
		<path
   d="m 267.237,277.314 c 0,0 59.485,-7.377 62.469,-10.358 2.992,-2.957 -1.732,-43.901 -1.732,-43.901 l -62.493,10.332 1.756,43.927 z"
   id="path82"
   style="stroke:#000000;stroke-width:5.15910006;stroke-linecap:round;stroke-linejoin:round" />
		<polygon
   points="265.489,233.406 327.99,223.074 317.164,212.242 254.677,222.574 "
   id="polygon84"
   style="fill:#cccccc;stroke:#000000;stroke-width:5.15910006;stroke-linecap:round;stroke-linejoin:round" />
	</g></g>
</svg>