<?xml version="1.0" encoding="UTF-8" standalone="no"?>
<!-- Created with Inkscape (http://www.inkscape.org/) -->
<svg
   xmlns:dc="http://purl.org/dc/elements/1.1/"
   xmlns:cc="http://creativecommons.org/ns#"
   xmlns:rdf="http://www.w3.org/1999/02/22-rdf-syntax-ns#"
   xmlns:svg="http://www.w3.org/2000/svg"
   xmlns="http://www.w3.org/2000/svg"
   xmlns:sodipodi="http://sodipodi.sourceforge.net/DTD/sodipodi-0.dtd"
   xmlns:inkscape="http://www.inkscape.org/namespaces/inkscape"
   inkscape:version="0.46"
   sodipodi:docbase="/var/www/html/svg_gallery/svg/misc"
   sodipodi:docname="propeller_hat.svg"
   sodipodi:version="0.32"
   height="227.62193"
   id="svg548"
   width="300.00003"
   inkscape:output_extension="org.inkscape.output.svg.inkscape"
   version="1.0">
  <defs
     id="defs550" />
  <sodipodi:namedview
     inkscape:cx="200"
     inkscape:cy="200"
     inkscape:window-height="825"
     inkscape:window-width="1440"
     inkscape:window-x="0"
     inkscape:window-y="25"
     inkscape:zoom="0.7725"
     id="base"
     showgrid="true"
     inkscape:current-layer="svg548" />
  <g
     id="g834"
     transform="matrix(0.6033463,0,0,0.6033463,-1.1587637,-39.111306)">
    <path
       sodipodi:nodetypes="cccc"
       d="M 54.8008,430.174 C 54.8008,430.174 106.066,165.892 240.416,162.357 C 393.328,166.776 449.897,415.147 452.548,430.173 C 392.444,477.903 190.035,520.329 54.8008,430.174 z"
       id="path597"
       style="fill:#006cc1;fill-opacity:1;fill-rule:evenodd;stroke:#000000;stroke-width:10;stroke-linecap:butt;stroke-linejoin:round;stroke-dasharray:none;stroke-opacity:1"
       transform="translate(4.419422,-45.96195)" />
    <path
       sodipodi:nodetypes="cccc"
       d="M 159.983,472.6 C 149.966,308.197 226.569,167.66 238.649,162.356 C 255.443,165.008 363.276,367.417 347.367,472.6 C 301.404,483.206 213.016,488.51 159.983,472.6 z"
       id="path598"
       style="fill:#ffac00;fill-opacity:1;fill-rule:evenodd;stroke:#000000;stroke-width:10;stroke-linecap:butt;stroke-linejoin:round;stroke-dasharray:none;stroke-opacity:1"
       transform="translate(4.419422,-45.96195)" />
    <path
       sodipodi:nodetypes="ccccccc"
       d="M 2.5159851,149.53337 C 0.74826511,168.97837 157.33,181.802 213.899,173.847 C 230.693,166.776 244.836,163.24 262.513,172.963 C 331.457,188.873 493.207,181.802 489.671,156.169 C 471.994,133.188 327.037,135.84 258.094,149.098 C 249.255,154.402 234.229,158.821 213.9,146.447 C 199.758,136.724 8.5535081,128.5906 2.5159851,149.53337 z"
       id="path599"
       style="fill:#ffed00;fill-opacity:1;fill-rule:evenodd;stroke:#000000;stroke-width:10;stroke-linecap:butt;stroke-linejoin:round;stroke-dasharray:none;stroke-opacity:1"
       transform="translate(4.419422,-45.96195)" />
    <path
       sodipodi:nodetypes="ccc"
       d="M 223.623,153.518 C 221.855,163.24 249.255,165.007 258.978,157.053 C 264.281,104.904 228.041,100.485 223.623,153.518 z"
       id="path600"
       style="fill:#ac00ff;fill-opacity:1;fill-rule:evenodd;stroke:#000000;stroke-width:10;stroke-linecap:butt;stroke-linejoin:round;stroke-dasharray:none;stroke-opacity:1"
       transform="translate(4.419422,-45.96195)" />
    <path
       sodipodi:nodetypes="ccc"
       d="M 63.6396,380.676 C 92.8078,248.093 160.867,150.866 190.035,139.376 C 45.0786,298.474 157.331,451.386 63.6396,380.676 z"
       id="path601"
       style="fill:#ffffff;fill-opacity:0.5;fill-rule:evenodd;stroke:none;stroke-width:1pt;stroke-linecap:butt;stroke-linejoin:miter;stroke-opacity:1" />
    <path
       sodipodi:nodetypes="ccc"
       d="M 243.952,74.852 C 235.997,83.6908 228.926,111.092 234.229,110.208 C 254.558,119.93 236.881,91.6458 243.952,74.852 z"
       id="path602"
       style="fill:#ffffff;fill-opacity:0.49803904;fill-rule:evenodd;stroke:none;stroke-width:1pt;stroke-linecap:butt;stroke-linejoin:miter;stroke-opacity:1" />
    <path
       sodipodi:nodetypes="cccc"
       d="M 361.508,418.683 C 411.889,378.024 425.148,319.687 422.497,302.01 C 430.451,315.268 458.736,374.489 446.361,384.211 C 431.336,393.934 411.006,406.308 361.508,418.683 z"
       id="path603"
       style="fill:#000000;fill-opacity:0.25;fill-rule:evenodd;stroke:none;stroke-width:1pt;stroke-linecap:butt;stroke-linejoin:miter;stroke-opacity:1" />
    <path
       sodipodi:nodetypes="ccc"
       d="M 271.352,107.556 C 266.049,103.136 449.897,86.3427 483.485,109.324 C 432.219,97.8326 331.457,102.253 271.352,107.556 z"
       id="path604"
       style="fill:#000000;fill-opacity:0.247059;fill-rule:evenodd;stroke:none;stroke-width:1pt;stroke-linecap:butt;stroke-linejoin:miter;stroke-opacity:1" />
    <path
       sodipodi:nodetypes="ccc"
       d="M 12.973008,100.18535 C -2.0530419,107.25625 149.376,137.607 214.784,121.698 C 129.931,117.278 89.870908,124.93425 12.973008,100.18535 z"
       id="path605"
       style="fill:#ffffff;fill-opacity:0.75;fill-rule:evenodd;stroke:none;stroke-width:1pt;stroke-linecap:butt;stroke-linejoin:miter;stroke-opacity:1" />
  </g>
  <metadata
     id="metadata15">
    <rdf:RDF>
      <cc:Work
         rdf:about="">
        <dc:title>Clipart by Nicu Buculei - piggybank</dc:title>
        <dc:description />
        <dc:subject>
          <rdf:Bag>
            <rdf:li>people</rdf:li>
            <rdf:li>hat</rdf:li>
            <rdf:li />
            <rdf:li>clothing</rdf:li>
          </rdf:Bag>
        </dc:subject>
        <dc:publisher>
          <cc:Agent
             rdf:about="http://www.openclipart.org">
            <dc:title>Nicu Buculei</dc:title>
          </cc:Agent>
        </dc:publisher>
        <dc:creator>
          <cc:Agent
             rdf:about="">
            <dc:title>Nicu Buculei</dc:title>
          </cc:Agent>
        </dc:creator>
        <dc:rights>
          <cc:Agent
             rdf:about="">
            <dc:title>Nicu Buculei</dc:title>
          </cc:Agent>
        </dc:rights>
        <dc:date />
        <dc:format>image/svg+xml</dc:format>
        <dc:type
           rdf:resource="http://purl.org/dc/dcmitype/StillImage" />
        <cc:license
           rdf:resource="http://web.resource.org/cc/PublicDomain">
          <dc:date />
        </cc:license>
        <dc:language>en</dc:language>
      </cc:Work>
      <cc:License
         rdf:about="http://web.resource.org/cc/PublicDomain">
        <cc:permits
           rdf:resource="http://web.resource.org/cc/Reproduction" />
        <cc:permits
           rdf:resource="http://web.resource.org/cc/Distribution" />
        <cc:permits
           rdf:resource="http://web.resource.org/cc/DerivativeWorks" />
      </cc:License>
    </rdf:RDF>
  </metadata>
</svg>
