<?xml version="1.0" encoding="UTF-8" standalone="no"?>
<!-- Created with Inkscape (http://www.inkscape.org/) -->
<svg
   xmlns:dc="http://purl.org/dc/elements/1.1/"
   xmlns:cc="http://creativecommons.org/ns#"
   xmlns:rdf="http://www.w3.org/1999/02/22-rdf-syntax-ns#"
   xmlns:svg="http://www.w3.org/2000/svg"
   xmlns="http://www.w3.org/2000/svg"
   xmlns:xlink="http://www.w3.org/1999/xlink"
   xmlns:sodipodi="http://sodipodi.sourceforge.net/DTD/sodipodi-0.dtd"
   xmlns:inkscape="http://www.inkscape.org/namespaces/inkscape"
   width="120.5058"
   height="49.19244"
   id="svg2"
   sodipodi:version="0.32"
   inkscape:version="0.46"
   sodipodi:docbase="/home/nicu/Desktop/fedora_banners"
   sodipodi:docname="nicubunu_Pimp_hat.svg"
   inkscape:export-filename="/home/nicu/Desktop/goat.png"
   inkscape:export-xdpi="90.000000"
   inkscape:export-ydpi="90.000000"
   inkscape:output_extension="org.inkscape.output.svg.inkscape"
   version="1.0">
  <defs
     id="defs3">
    <linearGradient
       inkscape:collect="always"
       id="linearGradient7792">
      <stop
         style="stop-color: rgb(255, 255, 255); stop-opacity: 1;"
         offset="0"
         id="stop7794" />
      <stop
         style="stop-color: rgb(255, 255, 255); stop-opacity: 0;"
         offset="1"
         id="stop7796" />
    </linearGradient>
    <linearGradient
       y2="260.58954"
       x2="416.91986"
       y1="360.53241"
       x1="367.35037"
       gradientTransform="matrix(0.170824,0,0,0.170824,1.25539,-21.9584)"
       gradientUnits="userSpaceOnUse"
       id="linearGradient1722"
       xlink:href="#linearGradient7792"
       inkscape:collect="always" />
    <linearGradient
       y2="164.13118"
       x2="400.89575"
       y1="245.97594"
       x1="407.50073"
       gradientTransform="matrix(0.170824,0,0,0.170824,1.25539,-21.9584)"
       gradientUnits="userSpaceOnUse"
       id="linearGradient1724"
       xlink:href="#linearGradient7792"
       inkscape:collect="always" />
    <linearGradient
       y2="27.909006"
       x2="32.411266"
       y1="48.355782"
       x1="45.536491"
       gradientTransform="translate(-7.66667,3.48718)"
       gradientUnits="userSpaceOnUse"
       id="linearGradient1726"
       xlink:href="#linearGradient7792"
       inkscape:collect="always" />
  </defs>
  <sodipodi:namedview
     id="base"
     pagecolor="#ffffff"
     bordercolor="#666666"
     borderopacity="1.0"
     inkscape:pageopacity="0.0"
     inkscape:pageshadow="2"
     inkscape:zoom="1"
     inkscape:cx="64"
     inkscape:cy="47.589752"
     inkscape:document-units="px"
     inkscape:current-layer="layer1"
     inkscape:window-width="1152"
     inkscape:window-height="791"
     inkscape:window-x="278"
     inkscape:window-y="55"
     showguides="true"
     inkscape:guide-bbox="true"
     showgrid="false" />
  <metadata
     id="metadata4">
    <rdf:RDF>
      <cc:Work
         rdf:about="">
        <dc:format>image/svg+xml</dc:format>
        <dc:type
           rdf:resource="http://purl.org/dc/dcmitype/StillImage" />
      </cc:Work>
    </rdf:RDF>
  </metadata>
  <g
     inkscape:label="Layer 1"
     inkscape:groupmode="layer"
     id="layer1"
     transform="translate(-4.1057976,-38.639604)">
    <g
       transform="matrix(1.16154,0,0,1.16154,-12.0798,12.4609)"
       id="g1713">
      <path
         sodipodi:nodetypes="ccccccccccc"
         style="fill:#000000;fill-opacity:1;fill-rule:evenodd;stroke:none;stroke-width:1px;stroke-linecap:butt;stroke-linejoin:miter;stroke-opacity:1"
         d="M 69.429498,22.954953 C 65.376916,24.805775 64.699768,27.399272 60.112651,23.529801 C 51.083426,24.281244 46.983417,34.321626 44.20785,41.290701 C 45.167175,48.071842 35.471184,47.49032 31.229418,50.227919 C 24.848995,53.155599 18.104574,53.174623 13.934602,59.3859 C 22.521327,66.294538 33.543532,64.206083 43.874313,64.888978 C 67.227801,64.519235 90.541792,63.571144 113.03286,56.911895 C 118.58613,55.835167 119.49878,50.529806 113.93946,48.848308 C 105.19867,45.52432 95.788231,44.965904 86.4484,45.122102 C 85.244279,39.790091 82.113011,33.553402 80.502898,28.16715 C 78.589545,23.413636 74.758219,21.649858 69.429498,22.954953 z"
         id="path1396" />
      <g
         id="g1381"
         transform="translate(1.02564,12.7179)">
        <path
           style="fill:#9300bb;fill-opacity:1;fill-rule:evenodd;stroke:none;stroke-width:1px;stroke-linecap:butt;stroke-linejoin:miter;stroke-opacity:1"
           d="M 44.469027,33.643132 C 44.469027,33.643132 14.795665,43.150132 14.795665,46.463176 C 20.989619,55.393995 113.61084,48.479811 115.33938,40.125177 C 114.7632,34.939539 90.563569,32.490767 82.929163,33.355041 C 81.920843,27.01704 79.616117,11.748224 73.278116,10.883952 C 66.940116,10.019678 65.32919,14.000676 63.771118,14.341042 C 62.385118,14.643815 59.961985,11.041742 55.848617,12.612496 C 49.654663,14.917224 44.180936,28.169405 44.469027,33.643132 z"
           id="path1381"
           sodipodi:nodetypes="ccccsccc" />
        <path
           style="fill:#000000;fill-opacity:1;fill-rule:evenodd;stroke:none;stroke-width:1px;stroke-linecap:butt;stroke-linejoin:miter;stroke-opacity:1"
           d="M 46.465929,24.497576 C 46.465929,24.497576 79.763468,27.454132 81.300884,26.94166 C 82.8383,26.429188 84.686725,31.567878 82.978485,33.276118 C 81.270245,34.984358 47.684434,35.171851 44.695492,33.876225 C 44.110309,31.844753 44.461605,28.465106 46.465929,24.497576 z"
           id="path2160"
           sodipodi:nodetypes="csscc" />
        <path
           style="fill:url(#linearGradient1722);fill-opacity:1;fill-rule:evenodd;stroke:none;stroke-width:1px;stroke-linecap:butt;stroke-linejoin:miter;stroke-opacity:1"
           d="M 75.175813,27.270965 C 75.175813,27.270965 64.602675,25.348576 64.144964,26.813254 C 63.687252,28.277929 61.902177,33.495842 63.549938,34.090869 C 65.1977,34.685893 73.665363,34.365495 75.0385,33.953555 C 76.411634,33.541613 75.496211,27.820218 75.175813,27.270965 z"
           id="path10099"
           sodipodi:nodetypes="csssc" />
        <path
           style="fill:url(#linearGradient1724);fill-opacity:1;fill-rule:evenodd;stroke:none;stroke-width:1px;stroke-linecap:butt;stroke-linejoin:miter;stroke-opacity:1"
           d="M 64.979542,17.411142 C 64.439923,10.592314 75.477593,7.8942173 77.685127,16.380959 C 74.790805,12.848904 67.187077,14.811156 64.979542,17.411142 z"
           id="path12403"
           sodipodi:nodetypes="ccc" />
        <path
           style="fill:url(#linearGradient1726);fill-opacity:1;fill-rule:evenodd;stroke:none;stroke-width:1px;stroke-linecap:butt;stroke-linejoin:miter;stroke-opacity:1"
           d="M 15.815877,46.307155 C 20.607625,41.723743 34.328097,38.568927 43.762782,34.610526 C 45.568513,35.460087 45.619559,34.762548 47.494591,34.673261 C 49.369623,34.583973 22.851314,45.906525 24.994208,48.31728 C 24.994208,49.031577 19.92309,49.342921 15.815877,46.307155 z"
           id="path13251"
           sodipodi:nodetypes="ccccc" />
      </g>
    </g>
  </g>
</svg>
