<?xml version="1.0" encoding="UTF-8" standalone="no"?>
<!-- Created with Inkscape (http://www.inkscape.org/) -->
<svg
   xmlns:dc="http://purl.org/dc/elements/1.1/"
   xmlns:cc="http://creativecommons.org/ns#"
   xmlns:rdf="http://www.w3.org/1999/02/22-rdf-syntax-ns#"
   xmlns:svg="http://www.w3.org/2000/svg"
   xmlns="http://www.w3.org/2000/svg"
   xmlns:xlink="http://www.w3.org/1999/xlink"
   xmlns:sodipodi="http://sodipodi.sourceforge.net/DTD/sodipodi-0.dtd"
   xmlns:inkscape="http://www.inkscape.org/namespaces/inkscape"
   width="205.61044"
   height="193.89574"
   id="svg2"
   sodipodi:version="0.32"
   inkscape:version="0.46"
   version="1.0"
   sodipodi:docbase="D:\Documents and Settings\Joanna\My Documents\My Pictures\graph_vector"
   sodipodi:docname="papapishu_Wizard_in_blue_hat.svg"
   inkscape:output_extension="org.inkscape.output.svg.inkscape"
   inkscape:export-filename="D:\Documents and Settings\Joanna\My Documents\My Pictures\graph_vector\papapishu_wizard_1.png"
   inkscape:export-xdpi="152.02286"
   inkscape:export-ydpi="152.02286">
  <defs
     id="defs4">
    <linearGradient
       id="linearGradient2213">
      <stop
         style="stop-color: rgb(0, 0, 0); stop-opacity: 1;"
         offset="0"
         id="stop2215" />
      <stop
         id="stop2223"
         offset="0.5"
         style="stop-color: rgb(0, 0, 0); stop-opacity: 1;" />
      <stop
         style="stop-color: rgb(0, 0, 0); stop-opacity: 1;"
         offset="1"
         id="stop2217" />
    </linearGradient>
    <linearGradient
       id="linearGradient2225">
      <stop
         style="stop-color: rgb(0, 0, 121); stop-opacity: 1;"
         offset="0"
         id="stop2227" />
      <stop
         id="stop2282"
         offset="1"
         style="stop-color: rgb(0, 0, 121); stop-opacity: 1;" />
    </linearGradient>
    <linearGradient
       inkscape:collect="always"
       xlink:href="#linearGradient2213"
       id="linearGradient5501"
       gradientUnits="userSpaceOnUse"
       gradientTransform="matrix(0.312345,0,0,0.189769,-754.437,492.383)"
       x1="160.35934"
       y1="586.86548"
       x2="585.07648"
       y2="633.03674" />
    <linearGradient
       inkscape:collect="always"
       xlink:href="#linearGradient2225"
       id="linearGradient5504"
       gradientUnits="userSpaceOnUse"
       gradientTransform="matrix(0.312345,0,0,0.254892,-754.437,443.647)"
       x1="101.57983"
       y1="505.89154"
       x2="695.65436"
       y2="535.71051" />
    <linearGradient
       inkscape:collect="always"
       xlink:href="#linearGradient2225"
       id="linearGradient5544"
       gradientUnits="userSpaceOnUse"
       gradientTransform="matrix(0.312345,0,0,0.36907,-754.843,368.468)"
       x1="431.39035"
       y1="1015.7707"
       x2="477.51135"
       y2="658.74127" />
    <linearGradient
       inkscape:collect="always"
       xlink:href="#linearGradient2225"
       id="linearGradient2422"
       gradientUnits="userSpaceOnUse"
       gradientTransform="matrix(0.312345,0,0,0.254892,-754.437,443.647)"
       x1="101.57983"
       y1="505.89154"
       x2="695.65436"
       y2="535.71051" />
    <linearGradient
       inkscape:collect="always"
       xlink:href="#linearGradient2213"
       id="linearGradient2424"
       gradientUnits="userSpaceOnUse"
       gradientTransform="matrix(0.312345,0,0,0.189769,-754.437,492.383)"
       x1="160.35934"
       y1="586.86548"
       x2="585.07648"
       y2="633.03674" />
    <linearGradient
       inkscape:collect="always"
       xlink:href="#linearGradient2225"
       id="linearGradient2426"
       gradientUnits="userSpaceOnUse"
       gradientTransform="matrix(0.312345,0,0,0.36907,-754.843,368.468)"
       x1="431.39035"
       y1="1015.7707"
       x2="477.51135"
       y2="658.74127" />
  </defs>
  <sodipodi:namedview
     id="base"
     pagecolor="#ffffff"
     bordercolor="#666666"
     borderopacity="1.0"
     gridtolerance="10000"
     guidetolerance="10"
     objecttolerance="10"
     inkscape:pageopacity="0.0"
     inkscape:pageshadow="2"
     inkscape:zoom="1.9049386"
     inkscape:cx="116.81485"
     inkscape:cy="84.461517"
     inkscape:document-units="px"
     inkscape:current-layer="layer1"
     inkscape:window-width="1280"
     inkscape:window-height="821"
     inkscape:window-x="0"
     inkscape:window-y="25"
     showgrid="false" />
  <metadata
     id="metadata7">
    <rdf:RDF>
      <cc:Work
         rdf:about="">
        <dc:format>image/svg+xml</dc:format>
        <dc:type
           rdf:resource="http://purl.org/dc/dcmitype/StillImage" />
        <dc:title>wizard in blue hat</dc:title>
        <dc:date>13.08.2007</dc:date>
        <dc:creator>
          <cc:Agent>
            <dc:title>papapishu</dc:title>
          </cc:Agent>
        </dc:creator>
        <dc:subject>
          <rdf:Bag>
            <rdf:li>wizard</rdf:li>
            <rdf:li>sage</rdf:li>
            <rdf:li>hat</rdf:li>
            <rdf:li>old man</rdf:li>
          </rdf:Bag>
        </dc:subject>
        <dc:coverage>fantasy</dc:coverage>
        <dc:publisher>
          <cc:Agent>
            <dc:title>openclipart.org</dc:title>
          </cc:Agent>
        </dc:publisher>
        <dc:rights>
          <cc:Agent>
            <dc:title />
          </cc:Agent>
        </dc:rights>
        <cc:license
           rdf:resource="http://web.resource.org/cc/PublicDomain" />
        <dc:contributor>
          <cc:Agent>
            <dc:title>based on &quot;santa line art&quot; by Zeimusu and &quot;Leprechaun's hat&quot; by SRD</dc:title>
          </cc:Agent>
        </dc:contributor>
      </cc:Work>
      <cc:License
         rdf:about="http://web.resource.org/cc/PublicDomain">
        <cc:permits
           rdf:resource="http://web.resource.org/cc/Reproduction" />
        <cc:permits
           rdf:resource="http://web.resource.org/cc/Distribution" />
        <cc:permits
           rdf:resource="http://web.resource.org/cc/DerivativeWorks" />
      </cc:License>
    </rdf:RDF>
  </metadata>
  <g
     inkscape:label="Layer 1"
     inkscape:groupmode="layer"
     id="layer1"
     transform="translate(741.30132,-461.79743)">
    <g
       id="g2411">
      <path
         sodipodi:nodetypes="csscccc"
         id="path2183"
         d="M -700.01916,622.52113 C -700.01916,622.52113 -664.91581,505.85397 -631.67572,472.171 C -617.84024,458.15118 -600.78758,463.05248 -595.99541,466.6158 C -582.13008,476.92566 -577.02432,491.78919 -569.50998,504.35339 C -591.52215,499.03166 -584.13578,488.74349 -608.37147,490.86836 L -593.98061,623.09807 L -700.01916,622.52113 z"
         style="fill:url(#linearGradient2422);fill-opacity:1;fill-rule:evenodd;stroke:#000000;stroke-width:2;stroke-linecap:butt;stroke-linejoin:miter;stroke-miterlimit:4;stroke-dasharray:none;stroke-opacity:1" />
      <path
         sodipodi:nodetypes="ccccc"
         id="path2185"
         d="M -701.34479,628.49582 L -690.79225,592.96698 C -675.08977,587.31369 -641.30001,587.62415 -597.20951,598.77623 L -592.91036,632.82587 L -701.34479,628.49582 z"
         style="fill:url(#linearGradient2424);fill-opacity:1;fill-rule:evenodd;stroke:none;stroke-width:1px;stroke-linecap:butt;stroke-linejoin:miter;stroke-opacity:1" />
      <path
         sodipodi:nodetypes="ccccccccccccccc"
         d="M -632.79591,620.66242 L -632.4687,589.91519 L -629.36024,588.56268 C -618.78055,588.74301 -610.1641,590.36603 -603.51089,593.43174 L -599.74801,623.00678 L -603.51089,624.6298 L -632.79591,620.66242 z M -623.13644,593.85423 L -622.00427,612.69211 L -608.45529,614.73278 L -609.52641,608.54197 L -620.49773,603.4936 L -610.76774,601.56737 L -611.63051,595.75136 C -615.46582,594.00603 -619.30113,593.66682 -623.13644,593.85423 z"
         style="fill:#ffcd00;fill-opacity:1;fill-rule:evenodd;stroke:#000000;stroke-width:1;stroke-linecap:butt;stroke-linejoin:miter;stroke-miterlimit:4;stroke-dasharray:none;stroke-opacity:1"
         id="path2187" />
      <path
         id="path2201"
         d="M -632.45193,590.01378 L -629.10014,588.58362 L -628.45141,619.09372 L -632.66817,620.70265 L -632.45193,590.01378 z"
         style="fill:#bc9500;fill-opacity:1;fill-rule:evenodd;stroke:#000000;stroke-width:1;stroke-linecap:butt;stroke-linejoin:miter;stroke-miterlimit:4;stroke-dasharray:none;stroke-opacity:1" />
      <path
         sodipodi:nodetypes="ccccccc"
         id="path2203"
         d="M -623.2842,592.0936 L -623.23441,593.85704 C -620.04483,593.59224 -616.31623,593.77862 -611.60653,595.64792 L -610.81711,601.46563 L -608.03065,600.76718 L -609.271,594.47266 C -614.58551,592.05492 -618.96791,591.79719 -623.2842,592.0936 z"
         style="fill:#bc9500;fill-opacity:1;fill-rule:evenodd;stroke:#000000;stroke-width:1;stroke-linecap:butt;stroke-linejoin:miter;stroke-miterlimit:4;stroke-dasharray:none;stroke-opacity:1" />
      <path
         sodipodi:nodetypes="cccccc"
         id="path2205"
         d="M -620.02964,603.53264 L -609.57845,607.97838 L -608.27741,614.87771 L -605.50235,615.41264 L -607.37573,605.90356 L -620.02964,603.53264 z"
         style="fill:#bc9500;fill-opacity:1;fill-rule:evenodd;stroke:#000000;stroke-width:1;stroke-linecap:butt;stroke-linejoin:miter;stroke-miterlimit:4;stroke-dasharray:none;stroke-opacity:1" />
      <path
         sodipodi:nodetypes="csscszsz"
         id="path1308"
         d="M -701.36281,640.3391 C -670.33138,643.48191 -632.55313,638.44019 -583.4583,641.70971 C -569.95014,642.6093 -552.76847,642.74332 -539.4337,632.57049 C -537.05482,630.75568 -533.14836,625.53394 -543.48498,623.89174 C -546.36324,622.84781 -546.35209,629.17229 -572.70917,625.8106 C -606.92404,621.4467 -641.30099,609.5761 -670.79497,607.17025 C -700.28895,604.76441 -725.14777,604.61973 -736.9693,618.13516 C -747.49567,630.16986 -732.39423,637.19629 -701.36281,640.3391 z"
         style="fill:#377cff;fill-opacity:1;fill-rule:evenodd;stroke:#000000;stroke-width:2;stroke-linecap:butt;stroke-linejoin:miter;stroke-miterlimit:4;stroke-dasharray:none;stroke-opacity:1" />
      <path
         sodipodi:nodetypes="ccccccccccc"
         id="path2237"
         d="M -702.85753,612.35396 C -712.53043,612.69335 -722.51644,612.98407 -731.62252,617.12879 C -734.92999,618.53333 -737.45659,621.6045 -738.78693,625.4098 C -740.78274,629.72331 -740.39459,635.53228 -737.23497,638.96158 C -731.71488,645.24112 -723.93347,647.44556 -716.71404,649.56397 C -693.00876,655.88604 -668.48642,653.97679 -644.37151,653.28393 C -623.3378,652.4978 -602.25935,652.65113 -581.27735,654.69317 C -555.01979,653.5807 -545.14996,647.94523 -538.6856,632.14039 C -555.79749,638.34937 -557.95771,642.64765 -589.44004,636.48451 C -615.06304,630.03402 -639.74631,618.64068 -665.80564,614.68372 C -678.08447,613.13192 -690.48677,612.18385 -702.85753,612.35396 z"
         style="fill:url(#linearGradient2426);fill-opacity:1;fill-rule:evenodd;stroke:#000000;stroke-width:2;stroke-linecap:butt;stroke-linejoin:miter;stroke-miterlimit:4;stroke-dasharray:none;stroke-opacity:1" />
      <path
         sodipodi:nodetypes="csc"
         id="path5447"
         d="M -608.18028,491.50501 C -609.41656,488.08009 -610.87671,484.6103 -609.53278,482.75472 C -607.78075,480.3357 -603.56628,479.34914 -605.49218,485.72817"
         style="fill:none;fill-rule:evenodd;stroke:#000000;stroke-width:2;stroke-linecap:butt;stroke-linejoin:miter;stroke-miterlimit:4;stroke-dasharray:none;stroke-opacity:1" />
    </g>
  </g>
  <g
     inkscape:groupmode="layer"
     id="layer2"
     inkscape:label="wyz"
     transform="translate(-13.832682,-6.4624261)">
    <path
       style="fill:#ffffff"
       d="M 100.41334,250.34451 C 104.04587,248.87673 107.02206,246.29682 109.77201,243.57625 C 114.59874,248.40025 121.01767,253.10559 128.23609,251.55155 C 132.02366,250.4677 139.40927,248.15012 137.39677,243.10566 C 133.30247,237.26573 136.39361,229.12916 132.43329,223.20738 C 129.02124,218.78211 123.18852,218.65124 118.50084,220.91458 C 110.65517,223.24897 102.15262,221.11969 95.517396,216.58581 C 90.959146,216.05105 87.019256,221.15171 85.176726,224.91471 C 82.571816,231.20047 85.135396,238.41361 82.317206,244.58876 C 79.651396,248.4041 86.053426,250.65384 88.986366,251.41869 C 92.784926,252.24688 96.825516,251.81598 100.41334,250.34451 z"
       id="path2284" />
  </g>
</svg>
