<?xml version="1.0" encoding="UTF-8" standalone="no"?>
<!-- Created with Sodipodi ("http://www.sodipodi.com/") -->

<svg
   xmlns:dc="http://purl.org/dc/elements/1.1/"
   xmlns:cc="http://creativecommons.org/ns#"
   xmlns:rdf="http://www.w3.org/1999/02/22-rdf-syntax-ns#"
   xmlns:svg="http://www.w3.org/2000/svg"
   xmlns="http://www.w3.org/2000/svg"
   xmlns:sodipodi="http://sodipodi.sourceforge.net/DTD/sodipodi-0.dtd"
   xmlns:inkscape="http://www.inkscape.org/namespaces/inkscape"
   id="svg548"
   sodipodi:version="0.32"
   width="437.5"
   height="327.5"
   sodipodi:docname="calculator.svg"
   inkscape:version="0.47pre4 r22446"
   version="1.1">
  <metadata
     id="metadata45" />
  <defs
     id="defs550">
    <inkscape:perspective
       sodipodi:type="inkscape:persp3d"
       inkscape:vp_x="0 : 250 : 1"
       inkscape:vp_y="0 : 1000 : 0"
       inkscape:vp_z="500 : 250 : 1"
       inkscape:persp3d-origin="250 : 166.66667 : 1"
       id="perspective49" />
  </defs>
  <sodipodi:namedview
     id="base"
     showgrid="true"
     inkscape:zoom="0.9075"
     inkscape:cx="162.5"
     inkscape:cy="111.25"
     inkscape:window-width="640"
     inkscape:window-height="500"
     inkscape:window-x="0"
     inkscape:window-y="25"
     inkscape:window-maximized="0"
     inkscape:current-layer="svg548" />
  <g
     id="g904"
     transform="translate(-37.5,-83.75)">
    <path
       style="fill:#797b90;fill-rule:evenodd;stroke:#000000;stroke-width:10;stroke-linejoin:round;stroke-dasharray:none"
       d="m 33.75,58.75 425,0 2.5,317.5 -426.25,0 -1.25,-317.5 z"
       id="path597"
       transform="translate(8.75,30)"
       sodipodi:nodetypes="ccccc" />
    <path
       style="fill:#acb0b4;fill-rule:evenodd;stroke:#000000;stroke-width:10;stroke-linejoin:round;stroke-dasharray:none"
       d="m 210,76.25 232.5,1.25 0,58.75 -232.5,0 0,-60 z"
       id="path598"
       sodipodi:nodetypes="ccccc"
       transform="translate(6.25,25)" />
    <path
       style="fill:#acc5b4;fill-rule:evenodd;stroke:#000000;stroke-width:10;stroke-linejoin:round;stroke-dasharray:none"
       d="m 220,85 213.75,0 0,42.5 -213.75,0 0,-42.5 z"
       id="path599"
       sodipodi:nodetypes="ccccc"
       transform="translate(6.25,25)" />
    <path
       style="fill:#a8a8a8;fill-rule:evenodd;stroke:#000000;stroke-width:10.83472633;stroke-linejoin:round;stroke-dasharray:none"
       d="m 53.75,147.5 35,0 0,33.75 -35,0 0,-33.75 z"
       id="path600"
       sodipodi:nodetypes="ccccc"
       transform="matrix(1,0,0,0.851852,25,63.10184)" />
    <path
       style="fill:#a8a8a8;fill-rule:evenodd;stroke:#000000;stroke-width:10.83472633;stroke-linejoin:round;stroke-dasharray:none"
       d="m 53.75,147.5 35,0 0,33.75 -35,0 0,-33.75 z"
       id="path601"
       sodipodi:nodetypes="ccccc"
       transform="matrix(1,0,0,0.851852,76.25,63.10184)" />
    <path
       style="fill:#a8a8a8;fill-rule:evenodd;stroke:#000000;stroke-width:10.83472633;stroke-linejoin:round;stroke-dasharray:none"
       d="m 53.75,147.5 35,0 0,33.75 -35,0 0,-33.75 z"
       id="path602"
       sodipodi:nodetypes="ccccc"
       transform="matrix(1,0,0,0.851852,127.5,64.35184)" />
    <path
       style="fill:#a8a8a8;fill-rule:evenodd;stroke:#000000;stroke-width:10.83472633;stroke-linejoin:round;stroke-dasharray:none"
       d="m 53.75,147.5 35,0 0,33.75 -35,0 0,-33.75 z"
       id="path603"
       sodipodi:nodetypes="ccccc"
       transform="matrix(1,0,0,0.851852,183.75,64.35184)" />
    <path
       style="fill:#a8a8a8;fill-rule:evenodd;stroke:#000000;stroke-width:10.83472633;stroke-linejoin:round;stroke-dasharray:none"
       d="m 53.75,147.5 35,0 0,33.75 -35,0 0,-33.75 z"
       id="path604"
       sodipodi:nodetypes="ccccc"
       transform="matrix(1,0,0,0.851852,237.5,63.10184)" />
    <path
       style="fill:#a8a8a8;fill-rule:evenodd;stroke:#000000;stroke-width:10.83472633;stroke-linejoin:round;stroke-dasharray:none"
       d="m 53.75,147.5 35,0 0,33.75 -35,0 0,-33.75 z"
       id="path605"
       sodipodi:nodetypes="ccccc"
       transform="matrix(1,0,0,0.851852,291.25,64.35184)" />
    <path
       style="fill:#a8a8a8;fill-rule:evenodd;stroke:#000000;stroke-width:10.83472633;stroke-linejoin:round;stroke-dasharray:none"
       d="m 53.75,147.5 35,0 0,33.75 -35,0 0,-33.75 z"
       id="path606"
       sodipodi:nodetypes="ccccc"
       transform="matrix(1,0,0,0.851852,343.75,63.10184)" />
    <path
       style="fill:#a8a8a8;fill-rule:evenodd;stroke:#000000;stroke-width:10.83472633;stroke-linejoin:round;stroke-dasharray:none"
       d="m 53.75,147.5 35,0 0,33.75 -35,0 0,-33.75 z"
       id="path607"
       sodipodi:nodetypes="ccccc"
       transform="matrix(1,0,0,0.851852,25,116.8518)" />
    <path
       style="fill:#a8a8a8;fill-rule:evenodd;stroke:#000000;stroke-width:10.83472633;stroke-linejoin:round;stroke-dasharray:none"
       d="m 53.75,147.5 35,0 0,33.75 -35,0 0,-33.75 z"
       id="path608"
       sodipodi:nodetypes="ccccc"
       transform="matrix(1,0,0,0.851852,76.25,116.8518)" />
    <path
       style="fill:#a8a8a8;fill-rule:evenodd;stroke:#000000;stroke-width:10.83472633;stroke-linejoin:round;stroke-dasharray:none"
       d="m 53.75,147.5 35,0 0,33.75 -35,0 0,-33.75 z"
       id="path609"
       sodipodi:nodetypes="ccccc"
       transform="matrix(1,0,0,0.851852,127.5,118.1018)" />
    <path
       style="fill:#a8a8a8;fill-rule:evenodd;stroke:#000000;stroke-width:10.83472633;stroke-linejoin:round;stroke-dasharray:none"
       d="m 53.75,147.5 35,0 0,33.75 -35,0 0,-33.75 z"
       id="path610"
       sodipodi:nodetypes="ccccc"
       transform="matrix(1,0,0,0.851852,183.75,118.1018)" />
    <path
       style="fill:#a8a8a8;fill-rule:evenodd;stroke:#000000;stroke-width:10.83472633;stroke-linejoin:round;stroke-dasharray:none"
       d="m 53.75,147.5 35,0 0,33.75 -35,0 0,-33.75 z"
       id="path611"
       sodipodi:nodetypes="ccccc"
       transform="matrix(1,0,0,0.851852,237.5,116.8518)" />
    <path
       style="fill:#a8a8a8;fill-rule:evenodd;stroke:#000000;stroke-width:10.83472633;stroke-linejoin:round;stroke-dasharray:none"
       d="m 53.75,147.5 35,0 0,33.75 -35,0 0,-33.75 z"
       id="path612"
       sodipodi:nodetypes="ccccc"
       transform="matrix(1,0,0,0.851852,291.25,118.1018)" />
    <path
       style="fill:#a8a8a8;fill-rule:evenodd;stroke:#000000;stroke-width:10.83472633;stroke-linejoin:round;stroke-dasharray:none"
       d="m 53.75,147.5 35,0 0,33.75 -35,0 0,-33.75 z"
       id="path613"
       sodipodi:nodetypes="ccccc"
       transform="matrix(1,0,0,0.851852,343.75,116.8518)" />
    <path
       style="fill:#a8a8a8;fill-rule:evenodd;stroke:#000000;stroke-width:10.83472633;stroke-linejoin:round;stroke-dasharray:none"
       d="m 53.75,147.5 35,0 0,33.75 -35,0 0,-33.75 z"
       id="path614"
       sodipodi:nodetypes="ccccc"
       transform="matrix(1,0,0,0.851852,25,170.6018)" />
    <path
       style="fill:#a8a8a8;fill-rule:evenodd;stroke:#000000;stroke-width:10.83472633;stroke-linejoin:round;stroke-dasharray:none"
       d="m 53.75,147.5 35,0 0,33.75 -35,0 0,-33.75 z"
       id="path615"
       sodipodi:nodetypes="ccccc"
       transform="matrix(1,0,0,0.851852,76.25,170.6018)" />
    <path
       style="fill:#a8a8a8;fill-rule:evenodd;stroke:#000000;stroke-width:10.83472633;stroke-linejoin:round;stroke-dasharray:none"
       d="m 53.75,147.5 35,0 0,33.75 -35,0 0,-33.75 z"
       id="path616"
       sodipodi:nodetypes="ccccc"
       transform="matrix(1,0,0,0.851852,127.5,171.8518)" />
    <path
       style="fill:#a8a8a8;fill-rule:evenodd;stroke:#000000;stroke-width:10.83472633;stroke-linejoin:round;stroke-dasharray:none"
       d="m 53.75,147.5 35,0 0,33.75 -35,0 0,-33.75 z"
       id="path617"
       sodipodi:nodetypes="ccccc"
       transform="matrix(1,0,0,0.851852,183.75,171.8518)" />
    <path
       style="fill:#a8a8a8;fill-rule:evenodd;stroke:#000000;stroke-width:10.83472633;stroke-linejoin:round;stroke-dasharray:none"
       d="m 53.75,147.5 35,0 0,33.75 -35,0 0,-33.75 z"
       id="path618"
       sodipodi:nodetypes="ccccc"
       transform="matrix(1,0,0,0.851852,237.5,170.6018)" />
    <path
       style="fill:#a8a8a8;fill-rule:evenodd;stroke:#000000;stroke-width:10.83472633;stroke-linejoin:round;stroke-dasharray:none"
       d="m 53.75,147.5 35,0 0,33.75 -35,0 0,-33.75 z"
       id="path619"
       sodipodi:nodetypes="ccccc"
       transform="matrix(1,0,0,0.851852,291.25,171.8518)" />
    <path
       style="fill:#a8a8a8;fill-rule:evenodd;stroke:#000000;stroke-width:10.83472633;stroke-linejoin:round;stroke-dasharray:none"
       d="m 53.75,147.5 35,0 0,33.75 -35,0 0,-33.75 z"
       id="path620"
       sodipodi:nodetypes="ccccc"
       transform="matrix(1,0,0,0.851852,343.75,170.6018)" />
    <path
       style="fill:#a8a8a8;fill-rule:evenodd;stroke:#000000;stroke-width:10.83472633;stroke-linejoin:round;stroke-dasharray:none"
       d="m 53.75,147.5 35,0 0,33.75 -35,0 0,-33.75 z"
       id="path621"
       sodipodi:nodetypes="ccccc"
       transform="matrix(1,0,0,0.851852,25,221.8518)" />
    <path
       style="fill:#a8a8a8;fill-rule:evenodd;stroke:#000000;stroke-width:10.83472633;stroke-linejoin:round;stroke-dasharray:none"
       d="m 53.75,147.5 35,0 0,33.75 -35,0 0,-33.75 z"
       id="path622"
       sodipodi:nodetypes="ccccc"
       transform="matrix(1,0,0,0.851852,76.25,221.8518)" />
    <path
       style="fill:#a8a8a8;fill-rule:evenodd;stroke:#000000;stroke-width:10.83472633;stroke-linejoin:round;stroke-dasharray:none"
       d="m 53.75,147.5 35,0 0,33.75 -35,0 0,-33.75 z"
       id="path623"
       sodipodi:nodetypes="ccccc"
       transform="matrix(1,0,0,0.851852,127.5,223.1018)" />
    <path
       style="fill:#a8a8a8;fill-rule:evenodd;stroke:#000000;stroke-width:10.83472633;stroke-linejoin:round;stroke-dasharray:none"
       d="m 53.75,147.5 35,0 0,33.75 -35,0 0,-33.75 z"
       id="path624"
       sodipodi:nodetypes="ccccc"
       transform="matrix(1,0,0,0.851852,183.75,223.1018)" />
    <path
       style="fill:#a8a8a8;fill-rule:evenodd;stroke:#000000;stroke-width:10.83472633;stroke-linejoin:round;stroke-dasharray:none"
       d="m 53.75,147.5 35,0 0,33.75 -35,0 0,-33.75 z"
       id="path625"
       sodipodi:nodetypes="ccccc"
       transform="matrix(1,0,0,0.851852,237.5,221.8518)" />
    <path
       style="fill:#a8a8a8;fill-rule:evenodd;stroke:#000000;stroke-width:10.83472633;stroke-linejoin:round;stroke-dasharray:none"
       d="m 53.75,147.5 35,0 0,33.75 -35,0 0,-33.75 z"
       id="path626"
       sodipodi:nodetypes="ccccc"
       transform="matrix(1,0,0,0.851852,291.25,223.1018)" />
    <path
       style="fill:#a8a8a8;fill-rule:evenodd;stroke:#000000;stroke-width:10.83472633;stroke-linejoin:round;stroke-dasharray:none"
       d="m 53.75,147.5 35,0 0,33.75 -35,0 0,-33.75 z"
       id="path627"
       sodipodi:nodetypes="ccccc"
       transform="matrix(1,0,0,0.851852,343.75,221.8518)" />
    <path
       style="fill:none;stroke:#000000;stroke-width:10;stroke-linejoin:round;stroke-dasharray:none"
       d="M 423.75,116.25 425,140"
       id="path628" />
    <path
       style="fill:none;stroke:#000000;stroke-width:10;stroke-linejoin:round;stroke-dasharray:none"
       d="m 407.5,126.25 -15,0 0,-10 16.25,0 1.25,23.75 0,0 0,0"
       id="path629" />
    <path
       style="fill:none;stroke:#000000;stroke-width:10;stroke-linejoin:round;stroke-dasharray:none"
       d="m 385,137.5 5,0"
       id="path630" />
    <path
       style="fill:none;stroke:#000000;stroke-width:10;stroke-linejoin:round;stroke-dasharray:none"
       d="m 353.75,117.5 17.5,0 0,10 -15,0 c 0,0 1.25,12.5 0,12.5 -1.25,0 16.25,0 16.25,0"
       id="path631"
       sodipodi:nodetypes="cccccc" />
    <path
       style="fill:none;stroke:#000000;stroke-width:10;stroke-linejoin:round;stroke-dasharray:none"
       d="m 317.5,116.25 0,12.5 18.75,1.25 0,13.75"
       id="path632" />
    <path
       style="fill:none;stroke:#ffffff;stroke-width:12.5;stroke-linejoin:round"
       d="m 61.25,112.5 77.5,1.25"
       id="path633" />
    <path
       style="fill:none;stroke:#ffffff;stroke-width:12.5;stroke-linejoin:round"
       d="M 58.75,133.75 137.5,135"
       id="path634" />
    <path
       style="fill:#ffffff;fill-opacity:0.5;fill-rule:evenodd;stroke-width:1pt"
       d="m 53.182857,274.70183 c 1.58228,-6.3291 -11.07594,-148.7341 4.74684,-177.215149 28.48101,-3.16455 128.164633,-1.58229 151.898733,3.164519 -53.7974,3.16456 -151.898743,-41.139259 -156.645573,174.05063 z"
       id="path701"
       sodipodi:nodetypes="cccc" />
  </g>
  <metadata
     id="metadata47">
    <rdf:RDF>
      <cc:Work
         rdf:about="">
        <dc:title>Clipart by Nicu Buculei - book_01</dc:title>
        <dc:rights>
          <cc:Agent>
            <dc:title>Nicu Buculei</dc:title>
          </cc:Agent>
        </dc:rights>
        <dc:type
           rdf:resource="http://purl.org/dc/dcmitype/StillImage" />
        <cc:license
           rdf:resource="http://web.resource.org/cc/PublicDomain" />
        <dc:format>image/svg+xml</dc:format>
      </cc:Work>
      <cc:License
         rdf:about="http://web.resource.org/cc/PublicDomain">
        <cc:permits
           rdf:resource="http://web.resource.org/cc/Reproduction" />
        <cc:permits
           rdf:resource="http://web.resource.org/cc/Distribution" />
        <cc:permits
           rdf:resource="http://web.resource.org/cc/DerivativeWorks" />
      </cc:License>
    </rdf:RDF>
  </metadata>
</svg>
