<?xml version="1.0" encoding="UTF-8" standalone="no"?>
<!-- Created with Inkscape (http://www.inkscape.org/) -->

<svg
   xmlns:dc="http://purl.org/dc/elements/1.1/"
   xmlns:cc="http://creativecommons.org/ns#"
   xmlns:rdf="http://www.w3.org/1999/02/22-rdf-syntax-ns#"
   xmlns:svg="http://www.w3.org/2000/svg"
   xmlns="http://www.w3.org/2000/svg"
   xmlns:xlink="http://www.w3.org/1999/xlink"
   xmlns:sodipodi="http://sodipodi.sourceforge.net/DTD/sodipodi-0.dtd"
   xmlns:inkscape="http://www.inkscape.org/namespaces/inkscape"
   sodipodi:docname="camera.svg"
   inkscape:version="0.47pre4 r22446"
   sodipodi:version="0.32"
   id="svg2"
   height="56.438042"
   width="94.397911"
   version="1.1">
  <defs
     id="defs3">
    <inkscape:perspective
       sodipodi:type="inkscape:persp3d"
       inkscape:vp_x="0 : 50 : 1"
       inkscape:vp_y="0 : 1000 : 0"
       inkscape:vp_z="100 : 50 : 1"
       inkscape:persp3d-origin="50 : 33.333333 : 1"
       id="perspective48" />
    <linearGradient
       id="linearGradient2103"
       inkscape:collect="always">
      <stop
         id="stop2105"
         offset="0"
         style="stop-color:#000000;stop-opacity:1;" />
      <stop
         id="stop2107"
         offset="1"
         style="stop-color:#000000;stop-opacity:0;" />
    </linearGradient>
    <linearGradient
       id="linearGradient4577">
      <stop
         id="stop4579"
         offset="0.0000000"
         style="stop-color:#858585;stop-opacity:1.0000000;" />
      <stop
         id="stop4583"
         offset="0.50000000"
         style="stop-color:#e8e8e8;stop-opacity:1.0000000;" />
      <stop
         id="stop4581"
         offset="1.0000000"
         style="stop-color:#858585;stop-opacity:1.0000000;" />
    </linearGradient>
    <linearGradient
       id="linearGradient4559">
      <stop
         id="stop4561"
         offset="0.0000000"
         style="stop-color:#000000;stop-opacity:1.0000000;" />
      <stop
         id="stop4563"
         offset="1.0000000"
         style="stop-color:#404040;stop-opacity:1.0000000;" />
    </linearGradient>
    <linearGradient
       id="linearGradient4501">
      <stop
         id="stop4503"
         offset="0.0000000"
         style="stop-color:#858585;stop-opacity:1.0000000;" />
      <stop
         id="stop4505"
         offset="1.0000000"
         style="stop-color:#e8eded;stop-opacity:1.0000000;" />
    </linearGradient>
    <linearGradient
       gradientUnits="userSpaceOnUse"
       y2="59.377396"
       x2="46.30064"
       y1="99.943436"
       x1="11.68789"
       gradientTransform="scale(1.35332,0.738924)"
       id="linearGradient4507"
       xlink:href="#linearGradient4501"
       inkscape:collect="always" />
    <linearGradient
       gradientUnits="userSpaceOnUse"
       y2="31.550043"
       x2="91.667351"
       y1="77.065865"
       x1="41.567356"
       gradientTransform="scale(1.108743,0.901922)"
       id="linearGradient4517"
       xlink:href="#linearGradient4501"
       inkscape:collect="always" />
    <linearGradient
       gradientUnits="userSpaceOnUse"
       y2="69.772568"
       x2="84.03405"
       y1="54.031708"
       x1="64.369789"
       gradientTransform="scale(0.984842,1.015391)"
       id="linearGradient4527"
       xlink:href="#linearGradient4577"
       inkscape:collect="always" />
    <linearGradient
       gradientUnits="userSpaceOnUse"
       y2="77.846748"
       x2="65.886803"
       y1="59.880016"
       x1="57.664845"
       gradientTransform="scale(0.974424,1.026247)"
       id="linearGradient4537"
       xlink:href="#linearGradient4577"
       inkscape:collect="always" />
    <linearGradient
       gradientUnits="userSpaceOnUse"
       y2="94.414177"
       x2="7.2543797"
       y1="41.101597"
       x1="65.452446"
       gradientTransform="scale(1.339461,0.746569)"
       id="linearGradient4545"
       xlink:href="#linearGradient4501"
       inkscape:collect="always" />
    <linearGradient
       gradientUnits="userSpaceOnUse"
       y2="53.585785"
       x2="30.64113"
       y1="46.420788"
       x1="34.761002"
       gradientTransform="matrix(1.368283,0,0,0.730843,-2.605863,0.488599)"
       id="linearGradient4555"
       xlink:href="#linearGradient4501"
       inkscape:collect="always" />
    <linearGradient
       gradientUnits="userSpaceOnUse"
       y2="88.236832"
       x2="48.8918"
       y1="76.061981"
       x1="62.741894"
       gradientTransform="scale(1.173715,0.851995)"
       id="linearGradient4565"
       xlink:href="#linearGradient4559"
       inkscape:collect="always" />
    <linearGradient
       gradientUnits="userSpaceOnUse"
       y2="41.813087"
       x2="61.441288"
       y1="34.281265"
       x1="68.398689"
       gradientTransform="scale(1.017741,0.982568)"
       id="linearGradient4575"
       xlink:href="#linearGradient4559"
       inkscape:collect="always" />
    <linearGradient
       y2="41.813087"
       x2="61.441288"
       y1="34.281265"
       x1="68.398689"
       gradientTransform="scale(1.017741,0.982568)"
       gradientUnits="userSpaceOnUse"
       id="linearGradient2080"
       xlink:href="#linearGradient4559"
       inkscape:collect="always" />
    <linearGradient
       y2="88.236832"
       x2="48.8918"
       y1="76.061981"
       x1="62.741894"
       gradientTransform="scale(1.173715,0.851995)"
       gradientUnits="userSpaceOnUse"
       id="linearGradient2083"
       xlink:href="#linearGradient4559"
       inkscape:collect="always" />
    <linearGradient
       y2="53.585785"
       x2="30.64113"
       y1="46.420788"
       x1="34.761002"
       gradientTransform="matrix(1.368283,0,0,0.730843,-2.605863,0.488599)"
       gradientUnits="userSpaceOnUse"
       id="linearGradient2086"
       xlink:href="#linearGradient4501"
       inkscape:collect="always" />
    <linearGradient
       y2="77.846748"
       x2="65.886803"
       y1="59.880016"
       x1="57.664845"
       gradientTransform="scale(0.974424,1.026247)"
       gradientUnits="userSpaceOnUse"
       id="linearGradient2089"
       xlink:href="#linearGradient4577"
       inkscape:collect="always" />
    <linearGradient
       y2="69.772568"
       x2="84.03405"
       y1="54.031708"
       x1="64.369789"
       gradientTransform="scale(0.984842,1.015391)"
       gradientUnits="userSpaceOnUse"
       id="linearGradient2092"
       xlink:href="#linearGradient4577"
       inkscape:collect="always" />
    <linearGradient
       y2="31.550043"
       x2="91.667351"
       y1="77.065865"
       x1="41.567356"
       gradientTransform="scale(1.108743,0.901922)"
       gradientUnits="userSpaceOnUse"
       id="linearGradient2095"
       xlink:href="#linearGradient4501"
       inkscape:collect="always" />
    <linearGradient
       y2="59.377396"
       x2="46.30064"
       y1="99.943436"
       x1="11.68789"
       gradientTransform="scale(1.35332,0.738924)"
       gradientUnits="userSpaceOnUse"
       id="linearGradient2098"
       xlink:href="#linearGradient4501"
       inkscape:collect="always" />
    <linearGradient
       y2="94.414177"
       x2="7.2543797"
       y1="41.101597"
       x1="65.452446"
       gradientTransform="scale(1.339461,0.746569)"
       gradientUnits="userSpaceOnUse"
       id="linearGradient2101"
       xlink:href="#linearGradient4501"
       inkscape:collect="always" />
    <linearGradient
       gradientUnits="userSpaceOnUse"
       y2="38.967457"
       x2="28.57933"
       y1="37.46632"
       x1="-0.4536005"
       gradientTransform="scale(0.629945,1.58744)"
       id="linearGradient2109"
       xlink:href="#linearGradient2103"
       inkscape:collect="always" />
  </defs>
  <sodipodi:namedview
     inkscape:window-y="25"
     inkscape:window-x="37"
     inkscape:window-height="794"
     inkscape:window-width="849"
     inkscape:current-layer="layer1"
     inkscape:document-units="px"
     inkscape:cy="32.319133"
     inkscape:cx="46.606573"
     inkscape:zoom="1"
     inkscape:pageshadow="2"
     inkscape:pageopacity="0.0"
     borderopacity="1.0"
     bordercolor="#666666"
     pagecolor="#ffffff"
     id="base"
     showgrid="false"
     inkscape:window-maximized="0" />
  <metadata
     id="metadata4">
    <rdf:RDF>
      <cc:Work
         rdf:about="">
        <dc:format>image/svg+xml</dc:format>
        <dc:type
           rdf:resource="http://purl.org/dc/dcmitype/StillImage" />
      </cc:Work>
    </rdf:RDF>
  </metadata>
  <g
     id="layer1"
     inkscape:groupmode="layer"
     inkscape:label="Layer 1"
     transform="translate(-3.3934266,-25.88109)">
    <g
       id="g2111">
      <path
         sodipodi:nodetypes="cccccccccccc"
         id="path4496"
         d="m 8.9527029,30.405405 c 0,0 6.2500001,-3.04054 11.6554061,-3.547297 6.756756,0.506757 50.506756,2.533784 51.689188,2.364865 1.182433,-0.168919 18.581082,0.506757 19.256762,1.52027 4.89864,2.533784 3.88513,7.601352 4.72973,14.527027 0.84459,6.925676 1.18243,18.750001 -2.36487,23.986487 -3.5473,5.236486 -3.04054,5.574324 -4.39189,6.587838 0.844596,-4.560811 0.67567,-19.087838 0.67567,-22.972973 0,-3.885136 3.37838,-16.891892 -3.71621,-18.581081 C 79.391892,32.601351 56.25,32.601351 50.675676,32.263514 45.101351,31.925676 29.391892,31.756757 23.986486,31.25 18.581081,30.743243 13.682432,30.236486 8.9527029,30.405405 z"
         style="fill:url(#linearGradient2101);fill-opacity:1;fill-rule:evenodd;stroke:none" />
      <path
         sodipodi:nodetypes="cccccccccc"
         id="path3736"
         d="m 8.2770273,31.081081 c 0,0 35.6418917,0.675676 37.4999997,0.844595 1.858108,0.168919 33.445946,1.013513 36.824324,1.351351 3.378379,0.337838 7.263514,2.364865 7.601352,4.898649 0.337838,2.533784 -1.013514,35.641892 -1.351352,36.993243 -0.337837,1.351351 -1.858108,2.702703 -2.533783,2.702703 -0.675676,0 -32.93919,0 -35.641892,-0.168919 C 47.972973,77.533784 18.75,75 14.695946,73.141892 9.9662163,74.493243 4.8986483,60.304054 4.5608113,52.364865 5.4054053,44.763514 3.0405403,33.445946 8.2770273,31.081081 z"
         style="fill:url(#linearGradient2098);fill-opacity:1;fill-rule:evenodd;stroke:none" />
      <path
         sodipodi:nodetypes="ccccccc"
         id="path4509"
         d="m 54.560811,61.824324 c 0,0 -2.195946,-5.236486 -1.013514,-7.432432 1.182433,-2.195946 4.72973,-6.418919 8.108109,-8.277027 7.432432,-2.195946 18.749999,1.182432 21.79054,4.222973 3.04054,3.04054 6.25,10.472973 4.222973,16.047297 -2.027027,5.574324 -3.378378,8.277027 -7.094595,7.432433 C 76.858108,72.972973 56.587838,68.243243 54.560811,61.824324 z"
         style="fill:url(#linearGradient2095);fill-opacity:1;fill-rule:evenodd;stroke:none" />
      <path
         sodipodi:nodetypes="ccccccc"
         id="path4519"
         d="m 57.263514,57.601351 c 1.689189,-1.013514 3.209459,-9.121621 11.148648,-7.77027 7.939189,1.351351 14.358108,4.898649 15.033784,9.45946 0.675675,4.560811 1.013514,9.797297 -0.337838,11.486486 -4.560811,2.364865 -1.182432,1.013514 -3.209459,3.209459 -2.027027,2.195946 -3.20946,1.520271 -4.391892,3.20946 C 74.324324,78.885135 56.25,63.682432 57.263514,57.601351 z"
         style="fill:url(#linearGradient2092);fill-opacity:1;fill-rule:evenodd;stroke:none" />
      <path
         id="path4529"
         d="m 57.939189,57.939189 c 0,0 6.925676,-2.195946 11.486487,0.675676 4.56081,2.871621 6.418919,6.587838 7.263513,10.810811 0.844595,4.222973 0.506757,8.614865 -2.195946,9.797297 -2.702702,1.182432 -8.445946,4.391892 -12.331081,2.364865 -3.885135,-2.027027 -8.277027,-4.222973 -8.614865,-7.77027 -0.337838,-3.547298 -1.351351,-13.175676 4.391892,-15.878379 z"
         style="fill:url(#linearGradient2089);fill-opacity:1;fill-rule:evenodd;stroke:none" />
      <path
         sodipodi:nodetypes="ccccc"
         id="path4547"
         d="m 26.448191,33.596707 c 0,0 15.70946,0.337838 17.567568,2.364865 1.858108,2.027027 0.506756,6.756757 -0.168919,8.108108 -7.094595,-0.675675 -13.175676,-0.337838 -17.398649,-1.351351 -0.506757,-1.351352 -2.195946,-6.25 0,-9.121622 z"
         style="fill:url(#linearGradient2086);fill-opacity:1;fill-rule:evenodd;stroke:none" />
      <path
         sodipodi:nodetypes="ccccc"
         id="path4557"
         d="m 70.439189,64.358108 c 0,0 2.027027,6.756757 1.52027,8.952703 -0.506756,2.195946 -8.783783,1.182432 -12.668918,1.351351 -1.520271,-0.844594 -3.378379,-10.472973 -1.351352,-10.641892 2.027027,-0.168919 6.925676,-0.337838 12.5,0.337838 z"
         style="fill:url(#linearGradient2083);fill-opacity:1;fill-rule:evenodd;stroke:none" />
      <path
         sodipodi:nodetypes="ccccc"
         id="path4567"
         d="m 66.554054,36.824324 c 0,0 0.117135,6.159171 -3.326593,7.718486 -1.689189,1.013514 -4.612596,1.234217 -6.301785,-0.623891 -1.68919,-1.858108 -2.364865,-9.797297 4.054054,-8.952703 6.418919,0.844595 3.547297,-0.506757 5.574324,1.858108 z"
         style="fill:url(#linearGradient2080);fill-opacity:1;fill-rule:evenodd;stroke:none" />
      <path
         sodipodi:nodetypes="cccccc"
         id="path1318"
         d="m 21.661238,31.433224 c 0,0 -13.5179155,-1.628664 -14.0065149,-0.488599 -2.931596,2.280131 -3.4201954,12.214984 -3.257329,14.820847 0.1628665,5.048861 3.5830619,21.986971 5.3745929,24.267101 1.791531,2.280131 9.934853,4.234528 11.074918,4.071661 -2.768729,-5.374592 -13.8436479,-38.762215 0.814333,-42.67101 z"
         style="fill:url(#linearGradient2109);fill-opacity:1;fill-rule:evenodd;stroke:none" />
      <path
         id="path2835"
         d="M 22.59375,25.9375 C 17.844312,26.334007 12.674288,28.557816 8.625,29.71875 8.4307985,29.876834 8.4342498,29.944619 8.3125,30.0625 8.295237,30.07921 8.265882,30.0778 8.25,30.09375 c -0.1799842,0.130536 -0.351489,0.244397 -0.53125,0.375 -0.3056964,0.130146 -0.774278,0.495353 -1.25,0.90625 -0.052354,0.03804 -0.072667,0.08684 -0.125,0.125 -1.1297579,1.020769 -2.3244489,2.563394 -2.0625,4.03125 -0.4659719,4.666943 -1.1538802,9.380511 -0.78125,14.0625 0.18023,4.857362 1.0472484,8.628787 2.125,12.84375 0.8515673,3.895627 1.4202355,9.143324 5.78125,10.6875 5.345404,1.590832 11.019037,1.782024 16.5,2.71875 8.13551,1.396756 18.731874,2.081583 27.09375,2.3125 1.431393,1.830198 3.432404,3.197286 5.75,3.6875 4.49073,1.038467 9.444806,0.381759 13.40625,-2.03125 0.871553,-0.373497 1.487405,-0.944208 1.96875,-1.625 3.639864,-0.07232 10.848022,1.109573 13.25,-1.96875 -0.02648,0.410836 0.50946,0.186545 1.9375,-1.03125 C 97.228919,67.061633 98.613771,56.45529 97.375,46.65625 96.004698,41.329608 98.422871,33.899469 92.96875,30.5 85.575883,27.726997 77.226286,28.601388 69.40625,28.4375 55.668517,27.633518 41.200892,27.769542 27.15625,26.28125 25.720541,25.899699 24.176896,25.805331 22.59375,25.9375 z m -1.21875,1.375 c 5.185703,-0.176106 10.392303,0.672472 15.625,1 13.64142,0.67396 26.880153,1.181174 40.3125,1.59375 5.469645,1.111885 13.278908,-0.957957 16.40625,4.96875 1.128051,10.052127 3.327492,20.525818 0.40625,30.5 0.247676,2.369746 -3.27139,7.675415 -4.25,9.84375 1.92417,-4.24347 1.365468,-9.171425 1.34375,-13.71875 -0.16639,-4.776204 0.213181,-9.556642 0.03125,-14.34375 -0.343074,-3.940104 0.929722,-8.299831 -0.9375,-11.9375 -2.654506,-2.505645 -6.584601,-3.294767 -10.15625,-3.1875 -8.133038,0.660604 -16.11421,-0.326842 -24.46875,-0.25 -6.737577,-0.531837 -13.469707,-0.873174 -20.21875,-1.25 -8.387604,0.192203 -16.772404,-0.372357 -25.15625,-0.4375 2.316339,-0.825898 5.426536,-2.176114 5.875,-2.21875 1.728521,-0.336243 3.458932,-0.503798 5.1875,-0.5625 z M 7.59375,31.46875 c 4.735709,-0.193411 9.49126,0.06886 14.21875,0.34375 7.894396,0.186503 15.818829,-0.04328 23.6875,0.78125 6.249194,-0.05805 12.343338,0.766761 18.59375,0.65625 5.934823,0.499355 11.830432,-0.192948 17.75,0.40625 2.735964,0.653405 6.567684,1.39355 7.125,4.6875 0.333018,5.798224 0.126322,11.628131 0.15625,17.4375 -0.0649,0.624237 0.02671,1.249066 0,1.875 C 88.721312,55.515233 88.017271,53.428097 86.75,51.625 83.910259,48.510047 80.023088,46.316546 75.9375,45.28125 71.472926,43.797828 66.58759,44.157271 62.15625,45.5625 c -3.527561,1.706412 -6.483362,4.558565 -8.75,7.71875 -1.327536,1.520695 -0.116497,7.221418 0.125,8.3125 -0.365652,0.641605 -0.613074,1.298217 -0.65625,1.9375 -0.479527,2.596203 -0.268842,5.271787 -0.25,7.90625 0.0083,1.872556 0.632676,3.68602 1.5625,5.3125 C 39.394775,76.46118 28.893963,74.995202 14.25,72.03125 10.233827,71.229388 8.8238463,66.84759 8.21875,63.3125 7.116795,59.500169 6.0125202,56.042759 5.5672842,52.013233 5.23113,48.385461 5.599186,44.63198 5.78125,41.09375 c 0.5681358,-3.194683 0.059873,-6.781763 1.8125,-9.625 z m 18.629068,2.087465 c -0.583566,0.512869 -1.22464,0.04707 -1.734931,0.644518 0.324387,-0.04902 0.536748,0.541063 0.859931,0.512844 -0.872939,0.884448 -1.169921,2.834858 -0.922431,3.799656 -0.03725,1.671759 -0.277312,3.939963 1.53125,4.8125 3.652247,0.745461 7.428902,0.09564 11.125,0.46875 2.29595,0.01464 4.522752,1.312109 6.8125,0.75 0.0058,0.0066 -0.0059,0.02478 0,0.03125 1.013331,0.0183 1.193425,-0.361611 1.0625,-0.75 0.929108,-1.100692 0.82177,-2.940319 0.5625,-4.28125 -0.666668,-1.184795 1.776776,-2.941214 0.46875,-3.40625 -2.157092,0.943877 1.787486,-0.665741 -0.21875,-1.25 C 39.1969,35.194896 32.812217,32.750598 26.222818,33.556215 z M 18.21875,33.5 c -1.611594,0.487056 -3.120755,1.324066 -3.96875,2.84375 -1.935135,3.729444 -1.504626,8.170189 -1.1875,12.21875 0.850402,4.097441 1.170066,8.30037 2.28125,12.34375 1.084763,2.240334 1.023938,5.80994 3.125,6.90625 3.049258,-1.568052 -1.070892,-5.422453 -1,-8.03125 C 16.480515,55.077933 15.458352,50.35471 15,45.5625 14.989663,41.425737 14.502856,36.301877 18.21875,33.5 z m 10.127956,1.119827 c 3.720071,0.232715 7.261442,0.848265 10.953681,1.330906 2.10132,0.02198 4.793339,-0.03947 4.84375,1.625 0.187707,1.124588 -0.65573,3.684614 -0.65625,5.46875 -0.196959,0.0074 -0.398467,-0.02749 -0.59375,0.0625 -3.25517,-0.724148 -6.579874,-0.923159 -9.90625,-0.875 -1.985024,-0.139064 -4.672212,0.719379 -6.03125,-1.1875 -0.810897,-1.861749 -1.194844,-3.491462 -0.390069,-6.579794 0.519201,-0.008 1.154528,0.122809 1.780138,0.155138 z M 62.09375,34.09375 c -0.869194,0.02393 -1.749934,0.219522 -2.5625,0.46875 -1.633909,0.630658 -3.297881,1.306739 -4.5625,2.5625 -1.916102,2.265026 -1.077386,6.109956 1.5,7.5 2.016452,1.18625 4.590621,1.198297 6.6875,0.21875 1.27853,-0.702569 2.835379,-1.173809 3.625,-2.5 0.686407,-1.680213 0.811957,-3.532197 0.53125,-5.3125 -0.170524,-0.466328 0.04795,-1.308623 -0.59375,-1.4375 C 66.398604,35.618078 66.146624,35.843235 65.875,36 65.647569,35.411945 65.133304,34.995736 64.625,34.65625 63.84921,34.219411 62.962944,34.069822 62.09375,34.09375 z M 60.8125,35.5 c 1.342907,0.05088 3.607175,1.979625 3.8125,1.875 0.06148,-0.03679 0.146132,-0.06376 0.21875,-0.09375 0.409089,1.606491 0.494004,3.292763 0.125,4.90625 -0.01418,0.61798 -0.42104,1.1138 -0.8125,1.5625 -0.07747,0.07368 -0.03587,0.05201 -0.0625,0.09375 C 62.743044,44.095447 61.349305,44.255023 60,43.9375 58.380663,43.570372 56.914321,42.423277 56.40625,40.8125 55.843182,39.242109 56.154109,37.303054 57.375,36.125 c 0.07026,-0.0095 0.120893,0.02349 0.1875,0 1.060588,-0.300633 2.130497,-0.696023 3.25,-0.625 z m 5.90625,10.21875 c 5.383463,-0.103048 10.849481,1.555725 15.21875,4.71875 3.699455,2.226996 5.069542,6.552023 5.34375,10.625 0.197695,4.081556 -0.52365,8.307214 -3.65625,11.28125 1.542302,-0.177482 -1.18502,0.07868 -3.09375,0.6875 0.130083,-0.180844 0.274242,-0.351862 0.40625,-0.53125 2.280602,-0.278266 3.495677,-2.649911 3.75,-4.71875 C 85.150036,64.332343 84.779688,60.766725 83.59375,57.5 82.133488,54.740567 79.669486,52.645478 77.25,50.75 74.978608,49.246105 72.172991,48.849474 69.5,48.96875 c -3.01286,-0.07919 -6.487016,0.219385 -8.59375,2.65625 -1.370289,1.896362 -2.416525,4.040729 -4.21875,5.59375 -0.72865,0.709031 -1.240793,1.85463 -1.84375,2.71875 -0.01008,0.01069 -0.0212,0.02051 -0.03125,0.03125 0.581911,-3.492805 -0.413002,-8.133561 3.0625,-10.40625 0.621487,-0.795841 4.706257,-3.824426 3.40625,-3.09375 -0.10812,0.770308 3.919368,-0.764133 5.4375,-0.75 z m 2.03125,4.6875 c 2.632362,0.03322 5.30822,0.707168 7.375,2.40625 1.984271,1.528277 3.776225,3.368231 5.09375,5.5 1.355875,2.765664 1.473087,5.946418 1.46875,8.96875 -0.0786,1.159476 -0.40062,2.29587 -0.84375,3.375 l -1.625,0.75 c -0.827778,0.987421 -1.906981,2.518514 -2.90625,3.25 0.160676,-0.946268 0.37486,-1.898341 0.46875,-2.78125 0.638565,-4.220003 -1.429193,-8.216133 -4,-11.40625 -1.636299,-2.429399 -4.572455,-2.866949 -7.25,-3.125 -2.579873,-0.904793 -5.295146,-0.701261 -7.96875,-0.46875 0.416628,-0.537776 0.822436,-1.095125 1.28125,-1.53125 0.948997,-1.027875 1.818367,-2.204293 2.21875,-3.5625 -1.263001,0.719908 0.670941,-0.843119 1.15625,-0.96875 1.762437,-0.481804 3.695048,-0.361787 5.53125,-0.40625 z m -8.34375,7.65625 c 3.340927,0.603676 7.076318,0.514729 10,2.375 2.730916,2.557876 4.92362,6.052482 5.28125,9.84375 -0.08675,2.961808 0.07553,5.548029 -1.59375,8.125 0.649891,0.378854 -0.945636,1.207536 -2.03125,1.6875 C 67.314691,81.345632 61.386305,81.466396 57.75,77.625 54.8741,74.927442 54.649873,70.77682 54.78125,67.09375 c -0.31383,-3.058031 0.436456,-6.244549 2.5,-8.59375 -0.545373,0.325434 0.180611,-0.156072 0.3125,-0.25 0.763274,0.0727 2.150476,-0.10643 2.8125,-0.1875 z m -1.1875,4.71875 -0.1875,0.125 c -0.527388,0.07573 -1.05241,0.234347 -1.5625,0.53125 -0.06656,0.107881 -0.125342,0.220288 -0.125,0.3125 l -0.375,0.1875 c -0.378073,0.878176 -0.654972,1.870458 -0.8125,2.84375 -0.364892,1.187373 -0.265758,2.337344 -0.03125,3.53125 0.331703,1.290414 1.425598,3.7982 2.1875,4.875 L 58.5,75.09375 c 2.908879,-0.139307 5.808186,-0.05185 8.71875,-0.03125 0.909245,-7.2e-5 1.81438,-0.02909 2.71875,0.0625 3e-6,-10e-7 1.099238,-0.220323 0.96875,0.09375 l 2.25,-1 c 0.365442,-1.15897 0.416461,-2.37302 0.53125,-3.59375 0.04341,-1.419523 0.03579,-2.867867 -0.5625,-4.1875 -0.655651,-1.334815 -1.541982,-2.499988 -2.46875,-3.65625 L 69.6875,63.3125 c -0.119799,0.0065 -0.225813,0.01463 -0.34375,0.03125 -1.430766,0.115354 -2.873043,0.221194 -4.3125,0.15625 -2.113771,-0.04865 -4.024785,-0.823358 -5.84375,-0.625 0.0096,-0.02737 0.02154,-0.06639 0.03125,-0.09375 z m -1.75,0.65625 c 0.02451,-0.03973 0.05934,-0.08302 0.09375,-0.125 l -0.75,0.5625 c 0.215,-0.178232 0.438533,-0.310769 0.65625,-0.4375 z m 11.34375,1.03125 c 0.854709,0.968896 1.604342,2.015368 2.15625,3.1875 0.572625,1.28321 0.545234,2.685422 0.5,4.0625 -0.08105,0.659152 -0.104408,1.297031 -0.1875,1.9375 -0.685735,-0.03687 -1.373553,-0.0713 -2.0625,-0.0625 -2.859118,0.01985 -6.602364,0.791755 -9.5,0.6875 -0.102741,-0.285122 -1.138625,-3.897826 -1.4375,-5.125 -0.212052,-1.170497 -0.2348,-2.30717 0.09375,-3.46875 0.07656,-0.3915 0.176161,-0.773113 0.28125,-1.15625 1.350209,0.303249 3.402545,0.364262 4.40625,0.40625 1.441696,0.08031 2.87948,-0.02396 4.3125,-0.15625 0.357276,-0.03319 0.705786,-0.03882 1.0625,-0.0625 l 0.375,-0.25 z m 20.28125,1.5625 c 0.05206,2.427787 0.04345,4.852498 -0.4375,7.25 0.546205,1.207855 -1.459556,3.401572 -1.625,4.0625 C 85.848015,76.85116 78.794052,77.15246 76.78125,77 l 1.40625,-0.625 c 0.476432,-0.72732 0.976379,-1.439286 1.46875,-2.15625 3.988002,-0.24456 8.553528,-3.504246 9.3125,-7.1875 0.06653,-0.321577 0.06863,-0.672988 0.125,-1 z"
         style="fill:#000000;fill-opacity:1;fill-rule:nonzero;stroke:none"
         sodipodi:nodetypes="ccccccccccccccccccccccccccccccccccccccccccccccccccccccccccccccccccccccccccccccccccccccccccccccccccccccccccccccccccccccccccccccccccccccccccccccccccccccccccccccccccccccccccccccccccccccccccccccccccccccc" />
    </g>
  </g>
</svg>
