<?xml version="1.0" encoding="UTF-8" standalone="no"?>
<!-- Created with Inkscape (http://www.inkscape.org/) -->

<svg
   xmlns:dc="http://purl.org/dc/elements/1.1/"
   xmlns:cc="http://creativecommons.org/ns#"
   xmlns:rdf="http://www.w3.org/1999/02/22-rdf-syntax-ns#"
   xmlns:svg="http://www.w3.org/2000/svg"
   xmlns="http://www.w3.org/2000/svg"
   xmlns:xlink="http://www.w3.org/1999/xlink"
   xmlns:sodipodi="http://sodipodi.sourceforge.net/DTD/sodipodi-0.dtd"
   xmlns:inkscape="http://www.inkscape.org/namespaces/inkscape"
   height="200.00006"
   id="svg2"
   version="1.0"
   width="395.5"
   x="0.00000000"
   y="0.00000000"
   sodipodi:version="0.32"
   inkscape:version="0.47pre3 r22311"
   sodipodi:docname="AJ_Digital_Camera.svg"
   inkscape:output_extension="org.inkscape.output.svg.inkscape"
   inkscape:export-filename="C:\joanna\Gfx\drawings_vector\admin\thumbs\AJ_Digital_Camera_ok.png"
   inkscape:export-xdpi="55.827694"
   inkscape:export-ydpi="55.827694">
  <sodipodi:namedview
     inkscape:window-height="744"
     inkscape:window-width="1280"
     inkscape:pageshadow="2"
     inkscape:pageopacity="0.0"
     guidetolerance="10.0"
     gridtolerance="10.0"
     objecttolerance="10.0"
     borderopacity="1.0"
     bordercolor="#666666"
     pagecolor="#ffffff"
     id="base"
     showgrid="false"
     inkscape:zoom="2.3261538"
     inkscape:cx="204.28736"
     inkscape:cy="103.41644"
     inkscape:window-x="-4"
     inkscape:window-y="0"
     inkscape:current-layer="svg2"
     inkscape:window-maximized="0" />
  <metadata
     id="metadata3">
    <rdf:RDF>
      <cc:Work
         rdf:about="">
        <dc:title>digital-camera</dc:title>
        <dc:description />
        <dc:subject>
          <rdf:Bag>
            <rdf:li>digital</rdf:li>
            <rdf:li />
            <rdf:li>11</rdf:li>
            <rdf:li>hardware</rdf:li>
            <rdf:li>photo</rdf:li>
            <rdf:li>digicam</rdf:li>
            <rdf:li>computer</rdf:li>
            <rdf:li>camera</rdf:li>
          </rdf:Bag>
        </dc:subject>
        <dc:publisher>
          <cc:Agent
             rdf:about="http://www.openclipart.org">
            <dc:title>AJ Ashton</dc:title>
          </cc:Agent>
        </dc:publisher>
        <dc:creator>
          <cc:Agent>
            <dc:title>AJ Ashton</dc:title>
          </cc:Agent>
        </dc:creator>
        <dc:rights>
          <cc:Agent>
            <dc:title>AJ Ashton</dc:title>
          </cc:Agent>
        </dc:rights>
        <dc:date />
        <dc:format>image/svg+xml</dc:format>
        <dc:type
           rdf:resource="http://purl.org/dc/dcmitype/StillImage" />
        <cc:license
           rdf:resource="http://web.resource.org/cc/PublicDomain" />
        <dc:language>en</dc:language>
      </cc:Work>
      <cc:License
         rdf:about="http://web.resource.org/cc/PublicDomain">
        <cc:permits
           rdf:resource="http://web.resource.org/cc/Reproduction" />
        <cc:permits
           rdf:resource="http://web.resource.org/cc/Distribution" />
        <cc:permits
           rdf:resource="http://web.resource.org/cc/DerivativeWorks" />
      </cc:License>
    </rdf:RDF>
  </metadata>
  <defs
     id="defs3">
    <linearGradient
       id="linearGradient2303">
      <stop
         id="stop2305"
         offset="0.00000000"
         style="stop-color: rgb(83, 25, 113); stop-opacity: 1;" />
      <stop
         id="stop2323"
         offset="0.60601109"
         style="stop-color: rgb(44, 18, 84); stop-opacity: 1;" />
      <stop
         id="stop2321"
         offset="0.80524760"
         style="stop-color: rgb(0, 0, 0); stop-opacity: 1;" />
      <stop
         id="stop2307"
         offset="1.0000000"
         style="stop-color: rgb(0, 0, 0); stop-opacity: 0;" />
    </linearGradient>
    <linearGradient
       id="linearGradient2195">
      <stop
         id="stop2197"
         offset="0.00000000"
         style="stop-color: rgb(50, 50, 50); stop-opacity: 1;" />
      <stop
         id="stop2199"
         offset="1.0000000"
         style="stop-color: rgb(150, 150, 150); stop-opacity: 1;" />
    </linearGradient>
    <linearGradient
       id="linearGradient2189">
      <stop
         id="stop2191"
         offset="0.00000000"
         style="stop-color: rgb(190, 190, 190); stop-opacity: 1;" />
      <stop
         id="stop2193"
         offset="1.0000000"
         style="stop-color: rgb(210, 210, 210); stop-opacity: 1;" />
    </linearGradient>
    <linearGradient
       id="linearGradient2160">
      <stop
         id="stop2162"
         offset="0.00000000"
         style="stop-color: rgb(0, 0, 0); stop-opacity: 1;" />
      <stop
         id="stop2164"
         offset="1.0000000"
         style="stop-color: rgb(0, 0, 0); stop-opacity: 0;" />
    </linearGradient>
    <linearGradient
       id="linearGradient2127">
      <stop
         id="stop2129"
         offset="0.00000000"
         style="stop-color: rgb(100, 100, 100); stop-opacity: 1;" />
      <stop
         id="stop2131"
         offset="1.0000000"
         style="stop-color: rgb(255, 255, 255); stop-opacity: 1;" />
    </linearGradient>
    <linearGradient
       id="linearGradient2118">
      <stop
         id="stop2120"
         offset="0.00000000"
         style="stop-color: rgb(125, 125, 125); stop-opacity: 1;" />
      <stop
         id="stop2122"
         offset="1.0000000"
         style="stop-color: rgb(220, 220, 220); stop-opacity: 1;" />
    </linearGradient>
    <linearGradient
       id="linearGradient2099">
      <stop
         id="stop2101"
         offset="0.00000000"
         style="stop-color: rgb(0, 0, 0); stop-opacity: 1;" />
      <stop
         id="stop2103"
         offset="1.0000000"
         style="stop-color: rgb(0, 0, 0); stop-opacity: 0.588235;" />
    </linearGradient>
    <linearGradient
       id="linearGradient2143">
      <stop
         id="stop2145"
         offset="0.00000000"
         style="stop-color: rgb(0, 0, 0); stop-opacity: 1;" />
      <stop
         id="stop2147"
         offset="1.0000000"
         style="stop-color: rgb(255, 255, 255); stop-opacity: 1;" />
    </linearGradient>
    <linearGradient
       id="linearGradient2061">
      <stop
         id="stop2063"
         offset="0.00000000"
         style="stop-color: rgb(255, 255, 255); stop-opacity: 1;" />
      <stop
         id="stop2187"
         offset="0.29381442"
         style="stop-color: rgb(255, 255, 255); stop-opacity: 1;" />
      <stop
         id="stop2065"
         offset="1.0000000"
         style="stop-color: rgb(255, 255, 255); stop-opacity: 0;" />
    </linearGradient>
    <linearGradient
       inkscape:collect="always"
       xlink:href="#linearGradient2143"
       id="linearGradient2853"
       gradientUnits="userSpaceOnUse"
       gradientTransform="matrix(0,-1.3052521,0.76613377,0,-129.49969,-352.36171)"
       x1="-338.12735"
       y1="192.44231"
       x2="-337.99255"
       y2="214.70348" />
    <linearGradient
       inkscape:collect="always"
       xlink:href="#linearGradient2143"
       id="linearGradient2857"
       gradientUnits="userSpaceOnUse"
       gradientTransform="matrix(0,-1.0118499,1.13404,0,-234.29145,-217.27641)"
       x1="-327.883"
       y1="220.74342"
       x2="-327.78314"
       y2="233.92133" />
    <radialGradient
       inkscape:collect="always"
       xlink:href="#linearGradient2061"
       id="radialGradient2860"
       gradientUnits="userSpaceOnUse"
       gradientTransform="matrix(0.5647948,0.1144438,0.1096531,2.8513043,-210.911,-431.90331)"
       cx="387.72849"
       cy="177.34306"
       fx="387.72849"
       fy="177.34306"
       r="15.50914" />
    <radialGradient
       inkscape:collect="always"
       xlink:href="#linearGradient2160"
       id="radialGradient2863"
       gradientUnits="userSpaceOnUse"
       gradientTransform="matrix(0.2788146,0.0645387,-0.2318854,2.7936189,-36.92535,-445.04731)"
       cx="387.72849"
       cy="177.34306"
       fx="387.72849"
       fy="177.34306"
       r="15.50914" />
    <linearGradient
       inkscape:collect="always"
       xlink:href="#linearGradient2061"
       id="linearGradient2866"
       gradientUnits="userSpaceOnUse"
       gradientTransform="matrix(0.339683,0,0,2.94392,-129.5,-352.36231)"
       spreadMethod="reflect"
       x1="550.12598"
       y1="159.70277"
       x2="559.4231"
       y2="159.70277" />
    <linearGradient
       inkscape:collect="always"
       xlink:href="#linearGradient2061"
       id="linearGradient2869"
       gradientUnits="userSpaceOnUse"
       gradientTransform="matrix(0.254427,0,0,1.21601,-82.4404,-111.19911)"
       x1="547.19476"
       y1="132.62198"
       x2="556.77557"
       y2="170.48996" />
    <linearGradient
       inkscape:collect="always"
       xlink:href="#linearGradient2143"
       id="linearGradient2872"
       gradientUnits="userSpaceOnUse"
       gradientTransform="matrix(0.339683,0,0,2.94392,-129.5,-352.36231)"
       x1="547.19476"
       y1="132.62198"
       x2="556.77557"
       y2="170.48996" />
    <linearGradient
       inkscape:collect="always"
       xlink:href="#linearGradient2127"
       id="linearGradient2875"
       gradientUnits="userSpaceOnUse"
       gradientTransform="matrix(0.35887,0,0,2.78652,-129.5,-352.36231)"
       spreadMethod="reflect"
       x1="500.98907"
       y1="162.27498"
       x2="520.82123"
       y2="162.19385" />
    <linearGradient
       inkscape:collect="always"
       xlink:href="#linearGradient2143"
       id="linearGradient2878"
       gradientUnits="userSpaceOnUse"
       gradientTransform="matrix(0.35887,0,0,2.78652,-129.5,-352.36231)"
       spreadMethod="pad"
       x1="525.7782"
       y1="185.73842"
       x2="525.7782"
       y2="138.61699" />
    <linearGradient
       inkscape:collect="always"
       xlink:href="#linearGradient2160"
       id="linearGradient2880"
       gradientUnits="userSpaceOnUse"
       gradientTransform="matrix(0.35887,0,0,2.78652,-129.5,-352.36231)"
       x1="517.73596"
       y1="185.10786"
       x2="517.73596"
       y2="137.737" />
    <linearGradient
       inkscape:collect="always"
       xlink:href="#linearGradient2061"
       id="linearGradient2883"
       gradientUnits="userSpaceOnUse"
       gradientTransform="matrix(0.209165,-0.798624,0.5979184,0.0996396,-95.3233,250.14369)"
       x1="338.45172"
       y1="369.61816"
       x2="332.51279"
       y2="391.97516" />
    <linearGradient
       inkscape:collect="always"
       xlink:href="#linearGradient2061"
       id="linearGradient2886"
       gradientUnits="userSpaceOnUse"
       gradientTransform="matrix(0.2085334,-0.8212557,0.5979974,0.1021398,-52.4267,254.09269)"
       x1="338.45172"
       y1="369.61816"
       x2="332.51279"
       y2="391.97516" />
    <radialGradient
       inkscape:collect="always"
       xlink:href="#linearGradient2061"
       id="radialGradient2889"
       gradientUnits="userSpaceOnUse"
       cx="336.93637"
       cy="375.66098"
       fx="336.93637"
       fy="375.66098"
       r="1.4142135"
       gradientTransform="matrix(2.975,0,0,2.975,-744.16,-1090.3303)" />
    <radialGradient
       inkscape:collect="always"
       xlink:href="#linearGradient2061"
       id="radialGradient2892"
       gradientUnits="userSpaceOnUse"
       cx="336.93637"
       cy="375.66098"
       fx="336.93637"
       fy="375.66098"
       r="1.4142135"
       gradientTransform="matrix(1.4,0,0,1.4,-216.445,-506.36031)" />
    <linearGradient
       inkscape:collect="always"
       xlink:href="#linearGradient2061"
       id="linearGradient2895"
       gradientUnits="userSpaceOnUse"
       gradientTransform="matrix(1.0228162,0,0,0.6108275,-82.9694,-213.44931)"
       x1="338.45172"
       y1="369.61816"
       x2="332.51279"
       y2="391.97516" />
    <linearGradient
       inkscape:collect="always"
       xlink:href="#linearGradient2061"
       id="linearGradient2898"
       gradientUnits="userSpaceOnUse"
       gradientTransform="matrix(1.2736161,0,0,1.2199203,-166.089,-455.73231)"
       x1="333.62552"
       y1="404.92667"
       x2="327.73431"
       y2="386.88702" />
    <radialGradient
       inkscape:collect="always"
       xlink:href="#linearGradient2061"
       id="radialGradient2901"
       gradientUnits="userSpaceOnUse"
       gradientTransform="matrix(0.9822395,0,0,0.9822824,-69.9078,-362.12831)"
       cx="331.80984"
       cy="391.51016"
       fx="331.80984"
       fy="391.51016"
       r="10.186243" />
    <linearGradient
       inkscape:collect="always"
       xlink:href="#linearGradient2143"
       id="linearGradient2904"
       gradientUnits="userSpaceOnUse"
       gradientTransform="matrix(1.09129,0,0,0.916344,-129.5,-352.36231)"
       x1="340.56873"
       y1="396.86478"
       x2="363.77615"
       y2="421.51526" />
    <radialGradient
       inkscape:collect="always"
       xlink:href="#linearGradient2061"
       id="radialGradient2907"
       gradientUnits="userSpaceOnUse"
       gradientTransform="matrix(0.431331,0,0,2.3184,-129.5,-352.36231)"
       cx="331.896"
       cy="204.99352"
       fx="331.78088"
       fy="205.33112"
       r="17.614996" />
    <radialGradient
       inkscape:collect="always"
       xlink:href="#linearGradient2061"
       id="radialGradient2918"
       gradientUnits="userSpaceOnUse"
       cx="336.93637"
       cy="375.66098"
       fx="336.93637"
       fy="375.66098"
       r="1.4142135"
       gradientTransform="matrix(2.975,0,0,2.975,-785.535,-1088.8783)" />
    <radialGradient
       inkscape:collect="always"
       xlink:href="#linearGradient2061"
       id="radialGradient2921"
       gradientUnits="userSpaceOnUse"
       cx="336.93637"
       cy="375.66098"
       fx="336.93637"
       fy="375.66098"
       r="1.4142135"
       gradientTransform="matrix(1.46332,0,0,1.4,-281.751,-503.56531)" />
    <linearGradient
       inkscape:collect="always"
       xlink:href="#linearGradient2061"
       id="linearGradient2924"
       gradientUnits="userSpaceOnUse"
       gradientTransform="matrix(1.0228162,0,0,0.6108275,-126.1352,-211.54981)"
       x1="338.45172"
       y1="369.61816"
       x2="332.51279"
       y2="391.97516" />
    <linearGradient
       inkscape:collect="always"
       xlink:href="#linearGradient2061"
       id="linearGradient2927"
       gradientUnits="userSpaceOnUse"
       gradientTransform="matrix(1.2736161,0,0,1.2199203,-209.255,-453.83331)"
       x1="333.62552"
       y1="404.92667"
       x2="327.73431"
       y2="386.88702" />
    <radialGradient
       inkscape:collect="always"
       xlink:href="#linearGradient2061"
       id="radialGradient2930"
       gradientUnits="userSpaceOnUse"
       gradientTransform="matrix(0.9822395,0,0,0.9822824,-113.0736,-360.22931)"
       cx="331.80984"
       cy="391.51016"
       fx="331.80984"
       fy="391.51016"
       r="10.186243" />
    <linearGradient
       inkscape:collect="always"
       xlink:href="#linearGradient2143"
       id="linearGradient2933"
       gradientUnits="userSpaceOnUse"
       gradientTransform="matrix(1.18118,0,0,0.846611,-129.5,-352.36231)"
       x1="288.18646"
       y1="437.9183"
       x2="293.39722"
       y2="443.31836" />
    <linearGradient
       inkscape:collect="always"
       xlink:href="#linearGradient2061"
       id="linearGradient2936"
       gradientUnits="userSpaceOnUse"
       gradientTransform="matrix(2.74099,0,0,0.371923,-124.2623,-364.81431)"
       spreadMethod="pad"
       x1="169.78445"
       y1="1014.1465"
       x2="169.78447"
       y2="1046.7983" />
    <linearGradient
       inkscape:collect="always"
       xlink:href="#linearGradient2061"
       id="linearGradient2939"
       gradientUnits="userSpaceOnUse"
       gradientTransform="matrix(2.32989,0,0,0.514722,-129,-428.05331)"
       spreadMethod="reflect"
       x1="202.3851"
       y1="850.50427"
       x2="202.48843"
       y2="853.85681" />
    <linearGradient
       inkscape:collect="always"
       xlink:href="#linearGradient2127"
       id="linearGradient2942"
       gradientUnits="userSpaceOnUse"
       gradientTransform="matrix(2.23385,0,0,0.536851,-129,-428.05331)"
       spreadMethod="reflect"
       x1="204.79185"
       y1="839.64862"
       x2="221.93906"
       y2="839.64862" />
    <linearGradient
       inkscape:collect="always"
       xlink:href="#linearGradient2143"
       id="linearGradient2944"
       gradientUnits="userSpaceOnUse"
       gradientTransform="matrix(2.23385,0,0,0.536851,-129,-428.05331)"
       x1="203.41141"
       y1="826.88013"
       x2="217.53874"
       y2="841.1095" />
    <linearGradient
       inkscape:collect="always"
       xlink:href="#linearGradient2143"
       id="linearGradient2951"
       gradientUnits="userSpaceOnUse"
       gradientTransform="matrix(0,-2.3702,0.421906,0,-129.5,-352.36231)"
       x1="-227.78334"
       y1="576.82489"
       x2="-185.92982"
       y2="565.61029" />
    <linearGradient
       inkscape:collect="always"
       xlink:href="#linearGradient2143"
       id="linearGradient2958"
       gradientUnits="userSpaceOnUse"
       gradientTransform="matrix(0.720082,0,0,1.38873,-129.5,-352.36231)"
       spreadMethod="reflect"
       x1="638.20325"
       y1="300.19751"
       x2="639.63287"
       y2="315.38678" />
    <radialGradient
       inkscape:collect="always"
       xlink:href="#linearGradient2061"
       id="radialGradient2962"
       gradientUnits="userSpaceOnUse"
       cx="365.26486"
       cy="421.0788"
       fx="365.26486"
       fy="421.0788"
       r="65.002319"
       gradientTransform="matrix(0.414966,0,0,0.415122,84.27,-78.48881)" />
    <radialGradient
       inkscape:collect="always"
       xlink:href="#linearGradient2061"
       id="radialGradient2965"
       gradientUnits="userSpaceOnUse"
       cx="389.4722"
       cy="447.87982"
       fx="389.4722"
       fy="447.87982"
       r="8.6886206"
       gradientTransform="matrix(0.414966,0,0,0.415122,84.27,-78.48881)" />
    <radialGradient
       inkscape:collect="always"
       xlink:href="#linearGradient2303"
       id="radialGradient2968"
       gradientUnits="userSpaceOnUse"
       cx="406.76318"
       cy="459.98349"
       fx="406.76318"
       fy="459.98349"
       r="55.331104"
       gradientTransform="matrix(0.414966,0,0,0.415122,84.27,-78.48881)" />
    <linearGradient
       inkscape:collect="always"
       xlink:href="#linearGradient2143"
       id="linearGradient2973"
       gradientUnits="userSpaceOnUse"
       x1="398.83572"
       y1="404.49619"
       x2="398.83572"
       y2="514.75488"
       gradientTransform="matrix(0.708729,0,0,0.708996,-35.22201,-213.66601)" />
    <linearGradient
       inkscape:collect="always"
       xlink:href="#linearGradient2061"
       id="linearGradient2976"
       gradientUnits="userSpaceOnUse"
       spreadMethod="reflect"
       x1="401.51196"
       y1="455.60751"
       x2="372.63031"
       y2="426.72598"
       gradientTransform="matrix(0.916689,0,0,0.917034,-119.8124,-309.36031)" />
    <linearGradient
       inkscape:collect="always"
       xlink:href="#linearGradient2143"
       id="linearGradient2978"
       gradientUnits="userSpaceOnUse"
       x1="378.74927"
       y1="513.11932"
       x2="378.74927"
       y2="403.91809"
       gradientTransform="matrix(0.916689,0,0,0.917034,-119.8124,-309.36031)" />
    <linearGradient
       inkscape:collect="always"
       xlink:href="#linearGradient2143"
       id="linearGradient2981"
       gradientUnits="userSpaceOnUse"
       spreadMethod="reflect"
       x1="406.76318"
       y1="387.34207"
       x2="405.88797"
       y2="465.23468"
       gradientTransform="matrix(0.916689,0,0,0.917034,-119.8124,-309.36031)" />
    <linearGradient
       inkscape:collect="always"
       xlink:href="#linearGradient2143"
       id="linearGradient2983"
       gradientUnits="userSpaceOnUse"
       x1="378.74927"
       y1="513.11932"
       x2="378.74927"
       y2="403.91809"
       gradientTransform="matrix(0.916689,0,0,0.917034,-119.8124,-309.36031)" />
    <linearGradient
       inkscape:collect="always"
       xlink:href="#linearGradient2143"
       id="linearGradient2986"
       gradientUnits="userSpaceOnUse"
       x1="393.83939"
       y1="404.70325"
       x2="393.83939"
       y2="515.28473"
       gradientTransform="matrix(0.93005,0,0,0.9304,-125.2472,-315.50831)" />
    <radialGradient
       inkscape:collect="always"
       xlink:href="#linearGradient2189"
       id="radialGradient2989"
       gradientUnits="userSpaceOnUse"
       cx="387.54489"
       cy="514.14392"
       fx="387.54489"
       fy="514.14392"
       r="108.39503"
       gradientTransform="matrix(1.08387,0,0,1.08428,-187.818,-386.29131)" />
    <linearGradient
       inkscape:collect="always"
       xlink:href="#linearGradient2143"
       id="linearGradient2991"
       gradientUnits="userSpaceOnUse"
       x1="404.61307"
       y1="510.83701"
       x2="404.61307"
       y2="406.23483"
       gradientTransform="matrix(1.08387,0,0,1.08428,-187.818,-386.29131)" />
    <linearGradient
       inkscape:collect="always"
       xlink:href="#linearGradient2160"
       id="linearGradient2994"
       gradientUnits="userSpaceOnUse"
       x1="406.76318"
       y1="402.41534"
       x2="406.76318"
       y2="519.04663"
       gradientTransform="matrix(1.11713,0,0,1.11755,-201.344,-401.59431)" />
    <linearGradient
       inkscape:collect="always"
       xlink:href="#linearGradient2143"
       id="linearGradient2998"
       gradientUnits="userSpaceOnUse"
       gradientTransform="matrix(0.834046,0,0,1.19897,-129.5,-352.36231)"
       spreadMethod="reflect"
       x1="337.99429"
       y1="361.38681"
       x2="336.71158"
       y2="369.07602" />
    <linearGradient
       inkscape:collect="always"
       xlink:href="#linearGradient2143"
       id="linearGradient3001"
       gradientUnits="userSpaceOnUse"
       gradientTransform="matrix(0.834046,0,0,1.19897,-129.5,-352.36231)"
       spreadMethod="reflect"
       x1="234.90314"
       y1="340.21918"
       x2="243.74902"
       y2="372.00415" />
    <linearGradient
       inkscape:collect="always"
       xlink:href="#linearGradient2143"
       id="linearGradient3004"
       gradientUnits="userSpaceOnUse"
       gradientTransform="matrix(0.834046,0,0,1.19897,-129.5,-352.36231)"
       spreadMethod="reflect"
       x1="271.04855"
       y1="350.81409"
       x2="271.04855"
       y2="354.59967" />
    <linearGradient
       inkscape:collect="always"
       xlink:href="#linearGradient2143"
       id="linearGradient3007"
       gradientUnits="userSpaceOnUse"
       gradientTransform="matrix(0.834046,0,0,1.19897,-129.5,-352.36231)"
       spreadMethod="reflect"
       x1="302.40866"
       y1="349.93118"
       x2="302.40866"
       y2="351.37485" />
    <linearGradient
       inkscape:collect="always"
       xlink:href="#linearGradient2160"
       id="linearGradient3010"
       gradientUnits="userSpaceOnUse"
       gradientTransform="matrix(2.904,0,0,0.42713,-169.404,-352.36231)"
       x1="91.790848"
       y1="1207.4102"
       x2="91.790848"
       y2="1233.5283" />
    <radialGradient
       inkscape:collect="always"
       xlink:href="#linearGradient2118"
       id="radialGradient3013"
       gradientUnits="userSpaceOnUse"
       gradientTransform="matrix(2.904,0,0,0.42713,-169.404,-352.36231)"
       cx="81.89843"
       cy="1244.3292"
       fx="81.89843"
       fy="1244.3292"
       r="87.748901" />
    <linearGradient
       inkscape:collect="always"
       xlink:href="#linearGradient2127"
       id="linearGradient3016"
       gradientUnits="userSpaceOnUse"
       gradientTransform="matrix(1.13228,0,0,1.09599,-167.84,-355.10931)"
       x1="260.92453"
       y1="415.67227"
       x2="241.63106"
       y2="393.49112" />
    <linearGradient
       inkscape:collect="always"
       xlink:href="#linearGradient2127"
       id="linearGradient3020"
       gradientUnits="userSpaceOnUse"
       gradientTransform="matrix(0.825706,0,0,1.21108,-129.5,-352.36231)"
       x1="286.23761"
       y1="529.02618"
       x2="286.23761"
       y2="291.34518" />
    <linearGradient
       inkscape:collect="always"
       xlink:href="#linearGradient2099"
       id="linearGradient3024"
       gradientUnits="userSpaceOnUse"
       gradientTransform="matrix(1.00653,0,0,1.23234,-169.404,-351.86231)"
       x1="265.96707"
       y1="439.40738"
       x2="265.96704"
       y2="293.78394" />
    <linearGradient
       inkscape:collect="always"
       xlink:href="#linearGradient2160"
       id="linearGradient3027"
       gradientUnits="userSpaceOnUse"
       gradientTransform="matrix(0.5547,0,0,1.80278,-129.5,-352.36231)"
       spreadMethod="pad"
       x1="263.20532"
       y1="258.24908"
       x2="286.64139"
       y2="258.24905" />
    <radialGradient
       inkscape:collect="always"
       xlink:href="#linearGradient2143"
       id="radialGradient3030"
       gradientUnits="userSpaceOnUse"
       gradientTransform="matrix(0.5547,0,0,1.80278,-129.5,-352.36231)"
       spreadMethod="reflect"
       cx="272.21921"
       cy="277.40359"
       fx="270.41644"
       fy="276.27689"
       r="36.908104" />
    <linearGradient
       inkscape:collect="always"
       xlink:href="#linearGradient2195"
       id="linearGradient3033"
       gradientUnits="userSpaceOnUse"
       gradientTransform="matrix(1.55423,0,0,0.643406,-129.5,-352.36231)"
       x1="241.94136"
       y1="802.59015"
       x2="241.94136"
       y2="653.53149" />
    <linearGradient
       inkscape:collect="always"
       xlink:href="#linearGradient2143"
       id="linearGradient3036"
       gradientUnits="userSpaceOnUse"
       gradientTransform="matrix(1.5288,0,0,0.654109,-129.5,-352.36231)"
       x1="238.77391"
       y1="787.97565"
       x2="238.77391"
       y2="661.18909" />
    <linearGradient
       inkscape:collect="always"
       xlink:href="#linearGradient2127"
       id="linearGradient3039"
       gradientUnits="userSpaceOnUse"
       gradientTransform="matrix(1.68783,0,0,0.592476,-129.5,-352.36231)"
       x1="224.52806"
       y1="781.65656"
       x2="224.5154"
       y2="660.40173" />
    <linearGradient
       inkscape:collect="always"
       xlink:href="#linearGradient2143"
       id="linearGradient3041"
       gradientUnits="userSpaceOnUse"
       gradientTransform="matrix(0.910781,0,0,1.09796,-129.5,-352.36231)"
       x1="409.31522"
       y1="405.39236"
       x2="389.55954"
       y2="350.85809" />
    <linearGradient
       inkscape:collect="always"
       xlink:href="#linearGradient2143"
       id="linearGradient3044"
       gradientUnits="userSpaceOnUse"
       gradientTransform="matrix(0.910781,0,0,1.09796,-129.5,-352.36231)"
       x1="410.82294"
       y1="486.58331"
       x2="410.82294"
       y2="328.51572" />
    <linearGradient
       inkscape:collect="always"
       xlink:href="#linearGradient2143"
       id="linearGradient3047"
       gradientUnits="userSpaceOnUse"
       gradientTransform="matrix(0.919171,0,0,1.10218,-132.3087,-354.89831)"
       x1="390.3732"
       y1="334.77237"
       x2="390.3732"
       y2="489.11697" />
    <linearGradient
       inkscape:collect="always"
       xlink:href="#linearGradient2143"
       id="linearGradient3050"
       gradientUnits="userSpaceOnUse"
       gradientTransform="matrix(0.720082,0,0,1.38873,-129.5,-352.36231)"
       spreadMethod="reflect"
       x1="665.36505"
       y1="310.8299"
       x2="665.36505"
       y2="311.97168" />
    <linearGradient
       inkscape:collect="always"
       xlink:href="#linearGradient2143"
       id="linearGradient3053"
       gradientUnits="userSpaceOnUse"
       gradientTransform="matrix(0.720082,0,0,1.38873,-129.5,-352.36231)"
       spreadMethod="reflect"
       x1="665.36487"
       y1="310.8298"
       x2="665.36487"
       y2="313.87778" />
    <linearGradient
       inkscape:collect="always"
       xlink:href="#linearGradient2143"
       id="linearGradient3056"
       gradientUnits="userSpaceOnUse"
       gradientTransform="matrix(0.720082,0,0,1.38873,-129.5,-352.36231)"
       spreadMethod="reflect"
       x1="641.06244"
       y1="319.18408"
       x2="639.63287"
       y2="327.53815" />
    <linearGradient
       inkscape:collect="always"
       xlink:href="#linearGradient2127"
       id="linearGradient3059"
       gradientUnits="userSpaceOnUse"
       gradientTransform="matrix(0.720082,0,0,1.38873,-129.5,-352.36231)"
       x1="656.78778"
       y1="373.10587"
       x2="656.7876"
       y2="278.93256" />
    <linearGradient
       inkscape:collect="always"
       xlink:href="#linearGradient2143"
       id="linearGradient3061"
       gradientUnits="userSpaceOnUse"
       gradientTransform="matrix(0.723143,0,0,1.38285,-129.5,-352.36231)"
       x1="653.25012"
       y1="373.10922"
       x2="653.25012"
       y2="279.66632" />
    <linearGradient
       inkscape:collect="always"
       xlink:href="#linearGradient2143"
       id="linearGradient3064"
       gradientUnits="userSpaceOnUse"
       gradientTransform="matrix(0.5547,0,0,1.80278,-129.5,-352.36231)"
       spreadMethod="reflect"
       x1="272.21921"
       y1="285.29071"
       x2="308.27469"
       y2="262.75601" />
    <linearGradient
       inkscape:collect="always"
       xlink:href="#linearGradient2189"
       id="linearGradient3067"
       gradientUnits="userSpaceOnUse"
       gradientTransform="matrix(1.38538,0,0,0.721822,-129.5,-352.36231)"
       x1="224.1964"
       y1="503.96042"
       x2="224.1964"
       y2="749.76471" />
    <linearGradient
       inkscape:collect="always"
       xlink:href="#linearGradient2061"
       id="linearGradient3070"
       gradientUnits="userSpaceOnUse"
       gradientTransform="matrix(4.09268,0,0,0.244339,-129.5,-352.36231)"
       x1="82.159187"
       y1="1523.0514"
       x2="82.159187"
       y2="1441.1952" />
    <linearGradient
       inkscape:collect="always"
       xlink:href="#linearGradient2061"
       id="linearGradient3073"
       gradientUnits="userSpaceOnUse"
       gradientTransform="matrix(2.82843,0,0,0.353553,352.36231,129.5)"
       x1="-159.93404"
       y1="-1428.3561"
       x2="-159.93404"
       y2="-1484.4293" />
    <linearGradient
       inkscape:collect="always"
       xlink:href="#linearGradient2061"
       id="linearGradient3076"
       gradientUnits="userSpaceOnUse"
       gradientTransform="matrix(2.82843,0,0,0.353553,352.36231,-129.5)"
       x1="-159.93404"
       y1="480.3367"
       x2="-159.93404"
       y2="424.26443" />
    <linearGradient
       inkscape:collect="always"
       xlink:href="#linearGradient2061"
       id="linearGradient3079"
       gradientUnits="userSpaceOnUse"
       gradientTransform="matrix(4.09268,0,0,0.244339,129.5,352.36231)"
       x1="-82.464378"
       y1="-2178.7864"
       x2="-82.464378"
       y2="-2258.8235" />
    <radialGradient
       inkscape:collect="always"
       xlink:href="#linearGradient2061"
       id="radialGradient3082"
       gradientUnits="userSpaceOnUse"
       gradientTransform="matrix(0,1.33333,-1.33334,0,865.318,-200.00001)"
       cx="164.88269"
       cy="367.24536"
       fx="164.88269"
       fy="367.24536"
       r="14.88329" />
    <radialGradient
       inkscape:collect="always"
       xlink:href="#linearGradient2061"
       id="radialGradient3085"
       gradientUnits="userSpaceOnUse"
       gradientTransform="matrix(0,-1.33333,-1.33334,0,865.318,399.99969)"
       cx="164.88269"
       cy="367.24536"
       fx="164.88269"
       fy="367.24536"
       r="14.88329" />
    <radialGradient
       inkscape:collect="always"
       xlink:href="#linearGradient2061"
       id="radialGradient3088"
       gradientUnits="userSpaceOnUse"
       gradientTransform="matrix(0,-1.33333,1.33334,0,-449.318,399.99969)"
       cx="164.88269"
       cy="367.24536"
       fx="164.88269"
       fy="367.24536"
       r="14.88329" />
    <radialGradient
       inkscape:collect="always"
       xlink:href="#linearGradient2061"
       id="radialGradient3091"
       gradientUnits="userSpaceOnUse"
       gradientTransform="matrix(1.33333,0,0,1.33334,-179.5,-469.81731)"
       cx="164.88359"
       cy="367.24536"
       fx="164.88359"
       fy="367.24536"
       r="14.648915" />
    <linearGradient
       inkscape:collect="always"
       xlink:href="#linearGradient2143"
       id="linearGradient3094"
       gradientUnits="userSpaceOnUse"
       gradientTransform="matrix(0.793492,0,0,1.26025,-129.5,-352.36231)"
       x1="219.60535"
       y1="385.28711"
       x2="169.10524"
       y2="327.64883" />
    <linearGradient
       inkscape:collect="always"
       xlink:href="#linearGradient2195"
       id="linearGradient3097"
       gradientUnits="userSpaceOnUse"
       gradientTransform="matrix(1.36931,0,0,0.730297,-129.5,-352.36231)"
       x1="234.5435"
       y1="745.65509"
       x2="234.5435"
       y2="484.63116" />
    <radialGradient
       inkscape:collect="always"
       xlink:href="#linearGradient2195"
       id="radialGradient3100"
       gradientUnits="userSpaceOnUse"
       gradientTransform="matrix(0.793492,0,0,1.26025,-129.5,-352.36231)"
       spreadMethod="reflect"
       cx="195.33907"
       cy="367.99432"
       fx="195.33907"
       fy="367.99432"
       r="10.189606" />
  </defs>
  <g
     id="g3089">
    <path
       style="fill:url(#radialGradient3100);fill-opacity:1;fill-rule:evenodd;stroke:#000000;stroke-width:1;stroke-linecap:round;stroke-linejoin:round;stroke-miterlimit:4;stroke-opacity:0.19607801;stroke-dashoffset:0"
       id="path2384"
       d="m 25.5,60.01287 c -13.79999,0 -24.99999,17.91998 -25,40 0,22.08 11.20001,39.99999 25,40 13.79999,0 25,-17.92001 25,-40 0,-22.08 -11.20001,-39.99999 -25,-40 z m -10,30 c 5.51995,0 10,4.48001 10,10 0,5.52 -4.48006,10 -10,10 -5.51994,0 -10,-4.48001 -10,-10 10e-6,-5.51998 4.48006,-10 10,-10 z" />
    <rect
       y="4.5243683e-05"
       x="20.5"
       width="375"
       style="fill:url(#linearGradient3097);fill-opacity:1;fill-rule:evenodd;stroke:none"
       ry="20"
       rx="20"
       id="rect2052"
       height="200" />
    <path
       style="opacity:0.56345203;fill:none;stroke:url(#linearGradient3094);stroke-width:2;stroke-linecap:round;stroke-linejoin:round;stroke-miterlimit:4;stroke-opacity:1;stroke-dashoffset:0"
       id="path2424"
       d="m 21.09375,62.73162 c -15.49009,7.22232 -19.48477,26.812 -18.28443,42.39667 1.12672,12.79545 6.42042,28.95985 20.26052,32.47416 13.66041,1.80455 21.56458,-13.22549 23.94231,-24.6455 3.51264,-16.59189 0.95957,-36.8153 -12.88715,-48.10033 -3.9227,-2.53279 -8.49513,-3.38523 -13.03125,-2.125 z m -5.1875,25.3125 c 11.12,-0.11543 15.8678,16.27994 6.12983,21.8157 -9.19591,7.08346 -22.7292,-4.63785 -17.41108,-14.8782 2.18219,-4.26776 6.46195,-6.9704 11.28125,-6.9375 z" />
    <path
       style="fill:url(#radialGradient3091);fill-opacity:1;fill-rule:evenodd;stroke:none"
       id="path2058"
       d="m 40.5,20.00006 -20.00005,0 C 20.49995,8.96003 29.45995,0 40.49995,0 l 5e-5,20.00006 z" />
    <path
       style="fill:url(#radialGradient3088);fill-opacity:1;fill-rule:evenodd;stroke:none"
       id="path2077"
       d="m 40.5,180 0,20.00005 c -11.04003,0 -20.00007,-8.95999 -20.00007,-20 L 40.5,180 z" />
    <path
       style="fill:url(#radialGradient3085);fill-opacity:1;fill-rule:evenodd;stroke:none"
       id="path2081"
       d="m 375.49993,180 0,20.00005 c 11.04003,0 20.00007,-8.95999 20.00007,-20 L 375.49993,180 z" />
    <path
       style="fill:url(#radialGradient3082);fill-opacity:1;fill-rule:evenodd;stroke:none"
       id="path2085"
       d="m 375.49993,20.0001 0,-20.00005 c 11.04003,0 20.00007,8.95999 20.00007,20 l -20.00007,5e-5 z" />
    <rect
       y="-200.00006"
       x="-375.5"
       width="335"
       transform="scale(-1,-1)"
       style="fill:url(#linearGradient3079);fill-opacity:1;fill-rule:evenodd;stroke:none"
       id="rect2103"
       height="20" />
    <rect
       y="20.5"
       x="-180.00006"
       width="160"
       transform="matrix(0,-1,1,0,0,0)"
       style="fill:url(#linearGradient3076);fill-opacity:1;fill-rule:evenodd;stroke:none"
       id="rect2107"
       height="20" />
    <rect
       y="-395.5"
       x="-180.00006"
       width="160"
       transform="matrix(0,-1,-1,0,0,0)"
       style="fill:url(#linearGradient3073);fill-opacity:1;fill-rule:evenodd;stroke:none"
       id="rect2111"
       height="20" />
    <rect
       y="4.5243683e-05"
       x="40.5"
       width="335"
       style="fill:url(#linearGradient3070);fill-opacity:1;fill-rule:evenodd;stroke:none"
       id="rect2089"
       height="20" />
    <rect
       y="10.000046"
       x="35.5"
       width="345.79498"
       style="fill:url(#linearGradient3067);fill-opacity:1;fill-rule:evenodd;stroke:none"
       ry="10"
       rx="10"
       id="rect2054"
       height="180.16859" />
    <rect
       y="35.000046"
       x="15.5"
       width="40"
       style="fill:url(#linearGradient3064);fill-opacity:1;fill-rule:evenodd;stroke:none"
       ry="65"
       rx="2.5"
       id="rect2603"
       height="130" />
    <rect
       y="35.000046"
       x="310.5"
       width="70"
       style="opacity:0.8;fill:url(#linearGradient3059);fill-opacity:1;fill-rule:evenodd;stroke:url(#linearGradient3061);stroke-width:1.25;stroke-linecap:round;stroke-linejoin:round;stroke-miterlimit:4;stroke-opacity:1;stroke-dashoffset:0"
       id="rect2348"
       height="135" />
    <rect
       y="35.000046"
       x="310.5"
       width="70"
       style="opacity:0.02999998;fill:url(#linearGradient3056);fill-opacity:1;fill-rule:evenodd;stroke:none"
       id="rect2371"
       height="135" />
    <rect
       y="35.000046"
       x="310.5"
       width="70"
       style="opacity:0.02999998;fill:url(#linearGradient3053);fill-opacity:1;fill-rule:evenodd;stroke:none"
       id="rect2367"
       height="135" />
    <rect
       y="35.000046"
       x="310.5"
       width="70"
       style="opacity:0.02999998;fill:url(#linearGradient3050);fill-opacity:1;fill-rule:evenodd;stroke:none"
       id="rect2363"
       height="135" />
    <path
       style="fill:none;stroke:url(#linearGradient3047);stroke-width:1.25;stroke-linecap:round;stroke-linejoin:round;stroke-miterlimit:4;stroke-opacity:0.78431396;stroke-dashoffset:0"
       id="path2206"
       d="m 180.72883,9.79868 124.4134,0 c 3.28735,0 6.06896,4.93063 6.06896,5.91674 15.17235,33.52818 15.17235,132.14048 0,165.66865 0,0.98614 -2.02299,6.16327 -6.06896,5.91674 l -124.4134,0 c -3.36219,0 -6.06893,-2.63885 -6.06893,-5.91674 l 0,-165.66865 c 0,-3.27787 2.70674,-5.91674 6.06893,-5.91674 z" />
    <path
       style="fill:#9f9f9f;fill-opacity:1;fill-rule:evenodd;stroke:url(#linearGradient3044);stroke-width:1.25;stroke-linecap:round;stroke-linejoin:round;stroke-miterlimit:4;stroke-opacity:0.78431396;stroke-dashoffset:0"
       id="rect2201"
       d="m 182.00487,11.00005 122.07487,0 c 3.22556,0 5.95488,4.86391 5.95488,5.83667 14.88717,33.07449 14.88717,130.3524 0,163.42688 0,0.9728 -1.98496,6.07988 -5.95488,5.83668 l -122.07487,0 c -3.299,0 -5.95487,-2.60315 -5.95487,-5.83668 l 0,-163.42688 c 0,-3.23351 2.65587,-5.83667 5.95487,-5.83667 z" />
    <path
       style="fill:url(#linearGradient3039);fill-opacity:1;fill-rule:evenodd;stroke:url(#linearGradient3041);stroke-width:1.25;stroke-linecap:round;stroke-linejoin:round;stroke-miterlimit:4;stroke-opacity:0.78431396;stroke-dashoffset:0"
       id="path2333"
       d="m 176.0625,35.01287 0,50 144.75,0 c -0.59339,-18.39638 -2.26941,-36.03487 -5.28125,-50 l -139.46875,0 z" />
    <path
       style="fill:url(#linearGradient3036);fill-opacity:1;fill-rule:evenodd;stroke:none"
       id="path2569"
       d="m 176.0625,104.00005 0,62.01282 138.875,0 c 3.80009,-16.62483 5.72315,-39.09753 6.0625,-62.01282 l -144.9375,0 z" />
    <path
       style="fill:url(#linearGradient3033);fill-opacity:1;fill-rule:evenodd;stroke:none"
       id="path2585"
       d="m 176.0625,105.01287 0,60 138.875,0 c 3.80009,-16.08522 5.72315,-37.8285 6.0625,-60 l -144.9375,0 z" />
    <rect
       y="35.000046"
       x="15.5"
       width="40"
       style="opacity:0.558376;fill:url(#radialGradient3030);fill-opacity:1;fill-rule:evenodd;stroke:none"
       ry="65"
       rx="2.5"
       id="rect2613"
       height="130" />
    <rect
       y="35.000046"
       x="15.5"
       width="40"
       style="opacity:0.61421299;fill:url(#linearGradient3027);fill-opacity:1;fill-rule:evenodd;stroke:none"
       ry="65"
       rx="2.5"
       id="rect2619"
       height="130" />
    <path
       style="opacity:0.5;fill:none;stroke:url(#linearGradient3024);stroke-width:3;stroke-linecap:round;stroke-linejoin:round;stroke-miterlimit:4;stroke-opacity:1;stroke-dashoffset:0"
       id="rect2141"
       d="m 47.66353,10.50005 c 41.34616,0 76.49041,0 117.83657,0 24.8077,0 24.8077,180 0,180 -41.34616,0 -76.49041,0 -117.83657,0 -12.40385,1e-5 -12.40385,-180 0,-180 z" />
    <path
       style="fill:#fafafa;fill-opacity:1;fill-rule:evenodd;stroke:#000000;stroke-width:1;stroke-linecap:round;stroke-linejoin:round;stroke-miterlimit:4;stroke-opacity:0.39215698;stroke-dashoffset:0"
       id="path2157"
       d="m 47.66353,9.99595 c -2.55471,0 -4.54452,7.60891 -6.04688,19.32656 l 135.9772,0 C 174.58912,17.60506 170.60948,9.99595 165.5001,9.99595 c -41.34616,0 -76.49041,0 -117.83657,0 z" />
    <path
       style="fill:url(#linearGradient3020);fill-opacity:1;fill-rule:evenodd;stroke:none"
       id="path2152"
       d="m 42.35493,30.01287 c -4.24503,34.62996 -4.24675,105.38483 0,140 l 134.53437,0 c 8.49346,-34.61535 8.49012,-105.37023 0,-140 l -134.53437,0 z" />
    <rect
       y="37.000046"
       x="51.766327"
       width="15"
       style="opacity:0.5;fill:#000000;fill-opacity:1;fill-rule:evenodd;stroke:none"
       ry="65"
       rx="7.5"
       id="rect2373"
       height="130" />
    <path
       style="fill:none;stroke:url(#linearGradient3016);stroke-width:2;stroke-linecap:round;stroke-linejoin:round;stroke-miterlimit:4;stroke-opacity:1;stroke-dashoffset:0"
       id="path2226"
       d="m 42.90033,30.73658 c -4.21142,34.27199 -4.21312,104.29546 0,138.55281 l 133.46941,0 c 8.4262,-34.25753 8.42291,-104.281 0,-138.55281 l -133.46941,0 z" />
    <path
       style="fill:url(#radialGradient3013);fill-opacity:1;fill-rule:evenodd;stroke:#000000;stroke-width:1;stroke-linecap:round;stroke-linejoin:round;stroke-miterlimit:4;stroke-opacity:0.39215698;stroke-dashoffset:0"
       id="path2168"
       d="m 41.61659,169.51287 c 1.5021,12.11379 3.49363,20 6.04687,20 41.34615,0 76.49039,0 117.83654,0 5.1065,0 9.08953,-7.88611 12.09375,-20 l -135.97716,0 z" />
    <path
       style="opacity:0.5;fill:url(#linearGradient3010);fill-opacity:1;fill-rule:evenodd;stroke:none"
       id="path2156"
       d="m 41.61659,169.51287 c 1.5021,12.11379 3.49363,20 6.04687,20 41.34615,0 76.49039,0 117.83654,0 5.1065,0 9.08953,-7.88611 12.09375,-20 l -135.97716,0 z" />
    <path
       style="opacity:0.02999998;fill:url(#linearGradient3007);fill-opacity:1;fill-rule:evenodd;stroke:none"
       id="path2169"
       d="m 43.21515,32.26287 c -4.192,33.51685 -4.1937,101.99746 0,135.5 l 132.85371,0 c 8.38736,-33.50271 8.38406,-101.98333 0,-135.5 l -132.85371,0 z" />
    <path
       style="opacity:0.02999998;fill:url(#linearGradient3004);fill-opacity:1;fill-rule:evenodd;stroke:none"
       id="path2175"
       d="m 43.21515,32.26287 c -4.192,33.51685 -4.1937,101.99746 0,135.5 l 132.85371,0 c 8.38736,-33.50271 8.38406,-101.98333 0,-135.5 l -132.85371,0 z" />
    <path
       style="opacity:0.05;fill:url(#linearGradient3001);fill-opacity:1;fill-rule:evenodd;stroke:none"
       id="path2183"
       d="m 43.21515,32.26287 c -4.192,33.51685 -4.1937,101.99746 0,135.5 l 132.85371,0 c 8.38736,-33.50271 8.38406,-101.98333 0,-135.5 l -132.85371,0 z" />
    <path
       style="opacity:0.02999998;fill:url(#linearGradient2998);fill-opacity:1;fill-rule:evenodd;stroke:none"
       id="path2224"
       d="m 43.21515,32.26287 c -4.192,33.51685 -4.1937,101.99746 0,135.5 l 132.85371,0 c 8.38736,-33.50271 8.38406,-101.98333 0,-135.5 l -132.85371,0 z" />
    <path
       style="opacity:0.6;fill:none;stroke:#000000;stroke-width:1.25000167;stroke-linecap:round;stroke-linejoin:round;stroke-miterlimit:4;stroke-opacity:0.78431396;stroke-dashoffset:0"
       id="path2230"
       d="m 314.87539,112.46024 c 0,34.15068 -27.67419,61.83528 -61.81204,61.83527 -34.13784,0 -61.81203,-27.68459 -61.81203,-61.83527 0,-34.150686 27.67419,-61.835283 61.81204,-61.835283 34.13784,0 61.81203,27.684597 61.81203,61.835283 l 0,0 z" />
    <path
       style="opacity:0.8;fill:none;stroke:url(#linearGradient2994);stroke-width:2.50000334;stroke-linecap:round;stroke-linejoin:round;stroke-miterlimit:4;stroke-opacity:0.78431396;stroke-dashoffset:0"
       id="path2232"
       d="m 314.87539,112.46024 c 0,34.15068 -27.67419,61.83528 -61.81204,61.83527 -34.13784,0 -61.81203,-27.68459 -61.81203,-61.83527 0,-34.150686 27.67419,-61.835283 61.81204,-61.835283 34.13784,0 61.81203,27.684597 61.81203,61.835283 l 0,0 z" />
    <path
       style="fill:url(#radialGradient2989);fill-opacity:1;fill-rule:evenodd;stroke:url(#linearGradient2991);stroke-width:1.24999261;stroke-linecap:round;stroke-linejoin:round;stroke-miterlimit:4;stroke-opacity:0.78431396;stroke-dashoffset:0"
       id="path2242"
       d="m 313.03214,112.45959 c 0,33.134 -26.85026,59.99441 -59.97173,59.9944 -33.12147,0 -59.97172,-26.8604 -59.97172,-59.9944 0,-33.134004 26.85025,-59.994417 59.97173,-59.994417 33.12146,0 59.97172,26.860413 59.97172,59.994417 l 0,0 z" />
    <path
       style="fill:#000000;fill-opacity:1;fill-rule:evenodd;stroke:url(#linearGradient2986);stroke-width:1.24999917;stroke-linecap:round;stroke-linejoin:round;stroke-miterlimit:4;stroke-opacity:0.78431396;stroke-dashoffset:0"
       id="path2254"
       d="m 304.52359,112.46033 c 0,28.43166 -23.03973,51.48006 -51.46069,51.48005 -28.42096,0 -51.46069,-23.04839 -51.46069,-51.48005 0,-28.431657 23.03973,-51.480066 51.46069,-51.480066 28.42096,0 51.46069,23.048409 51.46069,51.480066 l 0,0 z" />
    <path
       style="fill:url(#linearGradient2981);fill-opacity:1;fill-rule:evenodd;stroke:url(#linearGradient2983);stroke-width:1.2500031;stroke-linecap:round;stroke-linejoin:round;stroke-miterlimit:4;stroke-opacity:0.78431396;stroke-dashoffset:0"
       id="path2260"
       d="m 303.78435,112.46019 c 0,28.02321 -22.70875,50.74051 -50.72142,50.7405 -28.01266,0 -50.72141,-22.71729 -50.72141,-50.7405 0,-28.023211 22.70875,-50.740509 50.72142,-50.740509 28.01266,0 50.72141,22.717298 50.72141,50.740509 l 0,0 z" />
    <path
       style="opacity:0.85;fill:url(#linearGradient2976);fill-opacity:1;fill-rule:evenodd;stroke:url(#linearGradient2978);stroke-width:1.2500031;stroke-linecap:round;stroke-linejoin:round;stroke-miterlimit:4;stroke-opacity:0.78431396;stroke-dashoffset:0"
       id="path2243"
       d="m 303.78435,112.46019 c 0,28.02321 -22.70875,50.74051 -50.72142,50.7405 -28.01266,0 -50.72141,-22.71729 -50.72141,-50.7405 0,-28.023211 22.70875,-50.740509 50.72142,-50.740509 28.01266,0 50.72141,22.717298 50.72141,50.740509 l 0,0 z" />
    <path
       style="fill:#505050;fill-opacity:1;fill-rule:evenodd;stroke:url(#linearGradient2973);stroke-width:1.25000095;stroke-linecap:round;stroke-linejoin:round;stroke-miterlimit:4;stroke-opacity:0.78431396;stroke-dashoffset:0"
       id="path2274"
       d="m 292.27761,112.46044 c 0,21.66588 -17.55704,39.22954 -39.21476,39.22953 -21.65771,0 -39.21475,-17.56365 -39.21475,-39.22953 0,-21.665871 17.55704,-39.229531 39.21476,-39.229531 21.65771,0 39.21475,17.56366 39.21475,39.229531 l 0,0 z" />
    <path
       style="fill:#000000;fill-opacity:1;fill-rule:evenodd;stroke:none"
       id="path2286"
       d="m 229.8125,85.21998 c -7.81016,6.63152 -12.87501,16.39444 -12.875,27.4375 0,11.111 5.13782,20.93062 13.03125,27.5625 l 46.1875,0 c 7.89343,-6.63188 13.03125,-16.4515 13.03125,-27.5625 0,-11.04306 -5.06484,-20.80598 -12.875,-27.4375 l -46.5,0 z" />
    <path
       style="fill:#191919;fill-opacity:1;fill-rule:evenodd;stroke:none"
       id="path2319"
       d="m 231.7694,86.84633 c -7.1528,6.23933 -11.79135,15.42487 -11.79134,25.81485 0,10.45389 4.70538,19.69278 11.93444,25.93245 l 42.3,0 c 7.22906,-6.23967 11.93444,-15.47856 11.93444,-25.93245 0,-10.38998 -4.63854,-19.57552 -11.79134,-25.81485 l -42.5862,0 z" />
    <path
       style="fill:url(#radialGradient2968);fill-opacity:1;fill-rule:evenodd;stroke:none"
       id="path2299"
       d="m 276.02342,112.46046 c 0,12.68551 -10.27978,22.96916 -22.96053,22.96915 -12.68075,0 -22.96053,-10.28364 -22.96053,-22.96915 0,-12.68552 10.27978,-22.969165 22.96053,-22.969165 12.68075,0 22.96053,10.283645 22.96053,22.969165 l 0,0 z" />
    <path
       style="opacity:0.44502599;fill:url(#radialGradient2965);fill-opacity:1;fill-rule:evenodd;stroke:none"
       id="path2325"
       d="m 276.02342,112.46046 c 0,12.68551 -10.27978,22.96916 -22.96053,22.96915 -12.68075,0 -22.96053,-10.28364 -22.96053,-22.96915 0,-12.68552 10.27978,-22.969165 22.96053,-22.969165 12.68075,0 22.96053,10.283645 22.96053,22.969165 l 0,0 z" />
    <path
       style="opacity:0.19895301;fill:url(#radialGradient2962);fill-opacity:1;fill-rule:evenodd;stroke:none"
       id="path2329"
       d="m 276.02342,112.46046 c 0,12.68551 -10.27978,22.96916 -22.96053,22.96915 -12.68075,0 -22.96053,-10.28364 -22.96053,-22.96915 0,-12.68552 10.27978,-22.969165 22.96053,-22.969165 12.68075,0 22.96053,10.283645 22.96053,22.969165 l 0,0 z" />
    <path
       style="opacity:0.7;fill:#000000;fill-opacity:0.78431396;fill-rule:evenodd;stroke:none"
       id="path2358"
       d="m 379.79289,43.85662 c -2.90049,8.63785 -5,31.52899 -5,58.65625 0,27.12726 2.09951,49.98715 5,58.625 l 0,-117.28125 z" />
    <rect
       y="35.000046"
       x="310.5"
       width="70"
       style="opacity:0.02999998;fill:url(#linearGradient2958);fill-opacity:1;fill-rule:evenodd;stroke:none"
       id="rect2375"
       height="135" />
    <path
       id="text2445"
       d="m 117.6409,139.64828 c 0.90235,0.23048 1.57227,0.64454 2.00977,1.24219 0.4375,0.59766 0.65625,1.40039 0.65625,2.4082 0,1.47657 -0.40723,2.64356 -1.22168,3.50098 -0.81446,0.85742 -1.91895,1.28613 -3.31348,1.28613 -1.39843,0 -2.50488,-0.42871 -3.31934,-1.28613 -0.81444,-0.85742 -1.22167,-2.02441 -1.22168,-3.50098 1e-5,-0.51952 0.0625,-1.06054 0.1875,-1.62305 0.12501,-0.56249 0.31446,-1.15819 0.56836,-1.78711 l 2.15039,0 0,0.74415 c -0.73436,0.15235 -1.28417,0.42969 -1.64941,0.83203 -0.36523,0.40235 -0.54784,0.9336 -0.54785,1.59375 1e-5,0.85156 0.31348,1.48438 0.94043,1.89843 0.62696,0.41407 1.59082,0.6211 2.8916,0.6211 1.30078,0 2.26367,-0.20703 2.88867,-0.6211 0.625,-0.41405 0.9375,-1.05077 0.9375,-1.91015 0,-0.58203 -0.16211,-1.05761 -0.48633,-1.42676 -0.32421,-0.36913 -0.81445,-0.63769 -1.4707,-0.80566 l 0,-1.16602 z m -1.33008,-7.23047 3.11719,0 0,-0.89062 0.70898,0 0,2.96484 -0.79101,0 c 0.32812,0.27344 0.57031,0.57813 0.72656,0.91406 0.15625,0.33594 0.23438,0.71876 0.23438,1.14844 0,0.63672 -0.1709,1.12598 -0.5127,1.46777 -0.3418,0.3418 -0.83105,0.5127 -1.46777,0.5127 -0.69922,0 -1.22266,-0.24512 -1.57032,-0.73535 -0.34765,-0.49024 -0.52148,-1.22949 -0.52148,-2.21778 l 0,-1.08984 -0.36914,0 c -0.5039,0 -0.87597,0.11915 -1.11621,0.35742 -0.24023,0.23829 -0.36035,0.60743 -0.36035,1.10742 0,0.41407 0.085,0.7334 0.25488,0.95801 0.16993,0.22461 0.44825,0.38379 0.83496,0.47754 l 0,0.66211 -1.3418,0 c -0.1328,-0.37109 -0.23241,-0.75586 -0.29882,-1.1543 -0.0664,-0.39843 -0.0996,-0.81835 -0.0996,-1.25976 0,-1.11328 0.20703,-1.92871 0.62109,-2.44629 0.41407,-0.51757 1.06446,-0.77636 1.95117,-0.77637 l 0,0 z m 1.86914,2.07422 -1.24804,0 0,0.7793 c 0,0.38672 0.10547,0.68359 0.3164,0.89062 0.21094,0.20704 0.51368,0.31055 0.9082,0.31055 0.39454,0 0.68946,-0.0752 0.88477,-0.22559 0.19531,-0.15038 0.29297,-0.37988 0.29297,-0.68847 0,-0.32031 -0.10547,-0.57812 -0.31641,-0.77344 -0.21093,-0.19531 -0.49023,-0.29297 -0.83789,-0.29297 l 0,0 z m -3.25195,-10.5293 c -0.41406,-0.28905 -0.71582,-0.60155 -0.90527,-0.9375 -0.18945,-0.33593 -0.28418,-0.7285 -0.28418,-1.17773 0,-0.71483 0.20215,-1.24901 0.60644,-1.60254 0.4043,-0.3535 1.01465,-0.53026 1.83106,-0.53027 l 3.25195,0 0,-0.89063 0.70898,0 0,3.70899 -0.70898,0 0,-0.74414 -2.94141,0 c -0.77734,0 -1.26757,0.0596 -1.4707,0.17871 -0.20312,0.11915 -0.30468,0.34083 -0.30469,0.66504 1e-5,0.36719 0.14161,0.65235 0.42481,0.85546 0.2832,0.20314 0.68652,0.3047 1.20996,0.30469 l 3.08203,0 0,-0.74414 0.70898,0 0,3.5625 -0.70898,0 0,-0.74414 -2.94141,0 c -0.77734,1e-5 -1.26757,0.0605 -1.4707,0.18164 -0.20312,0.1211 -0.30468,0.3418 -0.30469,0.66211 1e-5,0.3711 0.14161,0.65821 0.42481,0.86133 0.2832,0.20313 0.68652,0.30469 1.20996,0.30469 l 3.08203,0 0,-0.74414 0.70898,0 0,3.70312 -0.70898,0 0,-0.88477 -4.81055,0 0,0.88477 -0.70898,0 0,-2.95898 0.8789,0 c -0.36327,-0.24219 -0.6289,-0.51953 -0.79687,-0.83204 -0.16796,-0.31249 -0.25195,-0.68358 -0.25195,-1.11328 0,-0.5078 0.0967,-0.91991 0.29003,-1.23632 0.19337,-0.3164 0.49317,-0.56054 0.89942,-0.73243 l 0,0 z m 1.69336,-10.23047 c -0.82031,1e-5 -1.3955,0.0762 -1.72559,0.22852 -0.33007,0.15235 -0.49511,0.41211 -0.49511,0.7793 0,0.35547 0.16211,0.61035 0.48632,0.76465 0.32423,0.1543 0.8672,0.23144 1.62891,0.23144 l 0.10547,0 0,-2.00391 z m 0.69726,-2.27929 0,4.2832 0.0469,0 c 0.80469,0 1.38574,-0.12109 1.74316,-0.36328 0.35743,-0.24218 0.53614,-0.63281 0.53614,-1.17188 0,-0.44921 -0.11914,-0.81249 -0.35743,-1.08984 -0.23828,-0.27734 -0.58398,-0.45507 -1.03711,-0.5332 l 0,-0.97266 c 0.70704,0.16798 1.22657,0.50196 1.5586,1.00195 0.33203,0.50001 0.49805,1.19923 0.49805,2.09766 0,1.07813 -0.28418,1.90528 -0.85254,2.48145 -0.56836,0.57617 -1.37988,0.86425 -2.43457,0.86425 -1.03125,0 -1.83594,-0.29492 -2.41407,-0.88476 -0.57812,-0.58984 -0.86718,-1.41016 -0.86718,-2.46094 0,-1.03124 0.30371,-1.82226 0.91113,-2.37305 0.60743,-0.55077 1.49707,-0.84374 2.66894,-0.8789 l 0,0 z m -3.48046,-6.9961 1.85742,0 0,0.66211 c -0.33203,0.0234 -0.5791,0.11329 -0.74121,0.26953 -0.16211,0.15626 -0.24316,0.38282 -0.24317,0.67969 1e-5,0.45313 0.19923,0.81055 0.59766,1.07227 0.39844,0.26172 0.95117,0.39258 1.6582,0.39258 l 2.46094,0 0,-1.13086 0.70898,0 0,4.08984 -0.70898,0 0,-0.88477 -4.81055,0 0,0.94922 -0.70898,0 0,-3.02343 1.10742,0 c -0.43359,-0.20313 -0.75488,-0.47168 -0.96387,-0.80567 -0.20898,-0.33398 -0.31347,-0.74316 -0.31347,-1.22754 0,-0.12109 0.009,-0.26855 0.0264,-0.44238 0.0176,-0.17382 0.042,-0.37402 0.0733,-0.60059 l 0,0 z m 2.47265,-6.49218 3.11719,0 0,-0.89063 0.70898,0 0,2.96485 -0.79101,0 c 0.32812,0.27344 0.57031,0.57812 0.72656,0.91406 0.15625,0.33594 0.23438,0.71875 0.23438,1.14844 0,0.63672 -0.1709,1.12597 -0.5127,1.46777 -0.3418,0.3418 -0.83105,0.51269 -1.46777,0.51269 -0.69922,0 -1.22266,-0.24511 -1.57032,-0.73535 -0.34765,-0.49023 -0.52148,-1.22949 -0.52148,-2.21777 l 0,-1.08984 -0.36914,0 c -0.5039,0 -0.87597,0.11914 -1.11621,0.35742 -0.24023,0.23828 -0.36035,0.60742 -0.36035,1.10742 0,0.41406 0.085,0.7334 0.25488,0.95801 0.16993,0.22461 0.44825,0.38379 0.83496,0.47754 l 0,0.66211 -1.3418,0 c -0.1328,-0.3711 -0.23241,-0.75586 -0.29882,-1.1543 -0.0664,-0.39844 -0.0996,-0.81836 -0.0996,-1.25977 0,-1.11327 0.20703,-1.9287 0.62109,-2.44629 0.41407,-0.51757 1.06446,-0.77636 1.95117,-0.77636 l 0,0 z m 1.86914,2.07422 -1.24804,0 0,0.77929 c 0,0.38672 0.10547,0.6836 0.3164,0.89063 0.21094,0.20703 0.51368,0.31055 0.9082,0.31054 0.39454,1e-5 0.68946,-0.0752 0.88477,-0.22558 0.19531,-0.15039 0.29297,-0.37988 0.29297,-0.68848 0,-0.32031 -0.10547,-0.57812 -0.31641,-0.77344 -0.21093,-0.1953 -0.49023,-0.29296 -0.83789,-0.29296 l 0,0 z"
       style="font-style:normal;font-variant:normal;font-weight:bold;font-stretch:normal;text-anchor:start;fill:none;stroke:#ffffff;stroke-width:0.625;stroke-linecap:butt;stroke-linejoin:miter;stroke-miterlimit:4;stroke-opacity:0.19607801;font-family:Bitstream Vera Serif" />
    <path
       id="text2391"
       d="m 116.22691,138.23428 c 0.90235,0.23048 1.57227,0.64454 2.00977,1.24219 0.4375,0.59766 0.65625,1.40039 0.65625,2.4082 0,1.47657 -0.40723,2.64356 -1.22168,3.50098 -0.81445,0.85742 -1.91894,1.28613 -3.31348,1.28613 -1.39843,0 -2.50487,-0.42871 -3.31933,-1.28613 -0.81445,-0.85742 -1.22167,-2.02441 -1.22168,-3.50098 1e-5,-0.51953 0.0625,-1.06054 0.1875,-1.62305 0.12501,-0.56249 0.31446,-1.15819 0.56836,-1.78711 l 2.15039,0 0,0.74414 c -0.73437,0.15236 -1.28418,0.4297 -1.64942,0.83203 -0.36522,0.40236 -0.54784,0.9336 -0.54785,1.59375 1e-5,0.85157 0.31349,1.48438 0.94043,1.89844 0.62696,0.41407 1.59083,0.6211 2.8916,0.6211 1.30079,0 2.26368,-0.20703 2.88867,-0.6211 0.62501,-0.41406 0.93751,-1.05077 0.9375,-1.91015 10e-6,-0.58203 -0.1621,-1.05761 -0.48632,-1.42676 -0.32422,-0.36913 -0.81445,-0.63769 -1.47071,-0.80567 l 0,-1.16601 z m -1.33007,-7.23047 3.11718,0 0,-0.89063 0.70899,0 0,2.96485 -0.79102,0 c 0.32813,0.27344 0.57031,0.57813 0.72656,0.91406 0.15625,0.33594 0.23438,0.71875 0.23438,1.14844 0,0.63672 -0.1709,1.12598 -0.5127,1.46777 -0.34179,0.3418 -0.83105,0.5127 -1.46777,0.5127 -0.69922,0 -1.22265,-0.24512 -1.57031,-0.73535 -0.34765,-0.49024 -0.52148,-1.22949 -0.52149,-2.21778 l 0,-1.08984 -0.36914,0 c -0.5039,0 -0.87597,0.11914 -1.11621,0.35742 -0.24023,0.23829 -0.36034,0.60743 -0.36035,1.10742 1e-5,0.41407 0.085,0.7334 0.25488,0.95801 0.16993,0.22461 0.44825,0.38379 0.83496,0.47754 l 0,0.66211 -1.34179,0 c -0.13281,-0.37109 -0.23242,-0.75586 -0.29883,-1.1543 -0.0664,-0.39843 -0.0996,-0.81835 -0.0996,-1.25976 1e-5,-1.11328 0.20704,-1.92871 0.62109,-2.44629 0.41407,-0.51757 1.06446,-0.77636 1.95118,-0.77637 l 0,0 z m 1.86914,2.07422 -1.24805,0 0,0.7793 c 0,0.38672 0.10547,0.68359 0.31641,0.89062 0.21094,0.20703 0.51367,0.31055 0.9082,0.31055 0.39453,0 0.68945,-0.0752 0.88476,-0.22559 0.19532,-0.15039 0.29297,-0.37988 0.29297,-0.68848 0,-0.3203 -0.10547,-0.57812 -0.3164,-0.77343 -0.21094,-0.19531 -0.49024,-0.29297 -0.83789,-0.29297 l 0,0 z m -3.25196,-10.5293 c -0.41405,-0.28905 -0.71581,-0.60155 -0.90527,-0.9375 -0.18945,-0.33593 -0.28417,-0.7285 -0.28418,-1.17773 1e-5,-0.71484 0.20215,-1.24902 0.60645,-1.60254 0.4043,-0.35351 1.01465,-0.53026 1.83105,-0.53028 l 3.25195,0 0,-0.89062 0.70899,0 0,3.70898 -0.70899,0 0,-0.74414 -2.9414,0 c -0.77734,1e-5 -1.26758,0.0596 -1.47071,0.17871 -0.20312,0.11915 -0.30468,0.34083 -0.30468,0.66504 0,0.3672 0.1416,0.65236 0.4248,0.85547 0.28321,0.20313 0.68653,0.3047 1.20996,0.30469 l 3.08203,0 0,-0.74414 0.70899,0 0,3.5625 -0.70899,0 0,-0.74414 -2.9414,0 c -0.77734,0 -1.26758,0.0606 -1.47071,0.18164 -0.20312,0.1211 -0.30468,0.3418 -0.30468,0.66211 0,0.3711 0.1416,0.65821 0.4248,0.86133 0.28321,0.20313 0.68653,0.30469 1.20996,0.30468 l 3.08203,0 0,-0.74414 0.70899,0 0,3.70313 -0.70899,0 0,-0.88477 -4.81054,0 0,0.88477 -0.70899,0 0,-2.95899 0.87891,0 c -0.36328,-0.24218 -0.6289,-0.51952 -0.79688,-0.83203 -0.16796,-0.31249 -0.25194,-0.68359 -0.25195,-1.11328 1e-5,-0.5078 0.0967,-0.91991 0.29004,-1.23633 0.19336,-0.3164 0.49317,-0.56054 0.89941,-0.73242 l 0,0 z m 1.69336,-10.23047 c -0.82031,1e-5 -1.3955,0.0762 -1.72558,0.22852 -0.33008,0.15235 -0.49512,0.41211 -0.49512,0.7793 0,0.35547 0.16211,0.61035 0.48633,0.76464 0.32422,0.1543 0.86719,0.23145 1.6289,0.23145 l 0.10547,0 0,-2.00391 z m 0.69727,-2.27929 0,4.2832 0.0469,0 c 0.80469,0 1.38575,-0.12109 1.74317,-0.36328 0.35742,-0.24219 0.53613,-0.63281 0.53613,-1.17188 0,-0.44921 -0.11914,-0.81249 -0.35742,-1.08984 -0.23828,-0.27734 -0.58399,-0.45507 -1.03711,-0.5332 l 0,-0.97266 c 0.70703,0.16798 1.22656,0.50196 1.55859,1.00195 0.33203,0.50001 0.49805,1.19923 0.49805,2.09766 0,1.07813 -0.28418,1.90527 -0.85254,2.48144 -0.56836,0.57618 -1.37988,0.86426 -2.43457,0.86426 -1.03125,0 -1.83593,-0.29492 -2.41406,-0.88476 -0.57812,-0.58985 -0.86718,-1.41016 -0.86719,-2.46094 1e-5,-1.03125 0.30372,-1.82226 0.91113,-2.37305 0.60743,-0.55077 1.49708,-0.84374 2.66895,-0.8789 l 0,0 z m -3.48047,-6.9961 1.85742,0 0,0.66211 c -0.33203,0.0234 -0.5791,0.11329 -0.74121,0.26953 -0.1621,0.15626 -0.24316,0.38282 -0.24316,0.67969 0,0.45313 0.19922,0.81055 0.59765,1.07227 0.39844,0.26172 0.95118,0.39258 1.65821,0.39257 l 2.46093,0 0,-1.13086 0.70899,0 0,4.08985 -0.70899,0 0,-0.88477 -4.81054,0 0,0.94922 -0.70899,0 0,-3.02344 1.10742,0 c -0.43358,-0.20312 -0.75487,-0.47167 -0.96386,-0.80566 -0.20898,-0.33398 -0.31347,-0.74316 -0.31348,-1.22754 1e-5,-0.12109 0.009,-0.26855 0.0264,-0.44238 0.0176,-0.17382 0.042,-0.37402 0.0732,-0.60059 l 0,0 z m 2.47266,-6.492185 3.11718,0 0,-0.890625 0.70899,0 0,2.96484 -0.79102,0 c 0.32813,0.27345 0.57031,0.57813 0.72656,0.91407 0.15625,0.33594 0.23438,0.71875 0.23438,1.14843 0,0.63672 -0.1709,1.12598 -0.5127,1.46778 -0.34179,0.34179 -0.83105,0.51269 -1.46777,0.51269 -0.69922,0 -1.22265,-0.24511 -1.57031,-0.73535 -0.34765,-0.49023 -0.52148,-1.22949 -0.52149,-2.21777 l 0,-1.08985 -0.36914,0 c -0.5039,1e-5 -0.87597,0.11915 -1.11621,0.35743 -0.24023,0.23828 -0.36034,0.60742 -0.36035,1.10742 1e-5,0.41406 0.085,0.7334 0.25488,0.95801 0.16993,0.22461 0.44825,0.38379 0.83496,0.47753 l 0,0.66211 -1.34179,0 c -0.13281,-0.37109 -0.23242,-0.75585 -0.29883,-1.15429 -0.0664,-0.39844 -0.0996,-0.81836 -0.0996,-1.25977 1e-5,-1.11328 0.20704,-1.9287 0.62109,-2.44629 0.41407,-0.51757 1.06446,-0.776359 1.95118,-0.776365 l 0,0 z m 1.86914,2.074215 -1.24805,0 0,0.7793 c 0,0.38672 0.10547,0.6836 0.31641,0.89063 0.21094,0.20703 0.51367,0.31054 0.9082,0.31054 0.39453,0 0.68945,-0.0752 0.88476,-0.22558 0.19532,-0.15039 0.29297,-0.37988 0.29297,-0.68848 0,-0.32031 -0.10547,-0.57812 -0.3164,-0.77344 -0.21094,-0.19531 -0.49024,-0.29296 -0.83789,-0.29297 l 0,0 z"
       style="font-style:normal;font-variant:normal;font-weight:bold;font-stretch:normal;text-anchor:start;fill:none;stroke:#000000;stroke-width:0.625;stroke-linecap:butt;stroke-linejoin:miter;stroke-miterlimit:4;stroke-opacity:0.19607801;font-family:Bitstream Vera Serif" />
    <path
       id="text2379"
       d="m 116.72691,138.73428 c 0.90235,0.23048 1.57227,0.64454 2.00977,1.24219 0.4375,0.59766 0.65625,1.40039 0.65625,2.4082 0,1.47657 -0.40723,2.64356 -1.22168,3.50098 -0.81445,0.85742 -1.91894,1.28613 -3.31348,1.28613 -1.39843,0 -2.50487,-0.42871 -3.31933,-1.28613 -0.81445,-0.85742 -1.22167,-2.02441 -1.22168,-3.50098 1e-5,-0.51953 0.0625,-1.06054 0.1875,-1.62305 0.12501,-0.56249 0.31446,-1.15819 0.56836,-1.78711 l 2.15039,0 0,0.74414 c -0.73437,0.15236 -1.28418,0.4297 -1.64942,0.83203 -0.36522,0.40236 -0.54784,0.9336 -0.54785,1.59375 1e-5,0.85157 0.31349,1.48438 0.94043,1.89844 0.62696,0.41407 1.59083,0.6211 2.8916,0.6211 1.30079,0 2.26368,-0.20703 2.88867,-0.6211 0.62501,-0.41406 0.93751,-1.05077 0.9375,-1.91015 10e-6,-0.58203 -0.1621,-1.05761 -0.48632,-1.42676 -0.32422,-0.36913 -0.81445,-0.63769 -1.47071,-0.80567 l 0,-1.16601 z m -1.33007,-7.23047 3.11718,0 0,-0.89063 0.70899,0 0,2.96485 -0.79102,0 c 0.32813,0.27344 0.57031,0.57813 0.72656,0.91406 0.15625,0.33594 0.23438,0.71875 0.23438,1.14844 0,0.63672 -0.1709,1.12598 -0.5127,1.46777 -0.34179,0.3418 -0.83105,0.5127 -1.46777,0.5127 -0.69922,0 -1.22265,-0.24512 -1.57031,-0.73535 -0.34765,-0.49024 -0.52148,-1.22949 -0.52149,-2.21778 l 0,-1.08984 -0.36914,0 c -0.5039,0 -0.87597,0.11914 -1.11621,0.35742 -0.24023,0.23829 -0.36034,0.60743 -0.36035,1.10742 1e-5,0.41407 0.085,0.7334 0.25488,0.95801 0.16993,0.22461 0.44825,0.38379 0.83496,0.47754 l 0,0.66211 -1.34179,0 c -0.13281,-0.37109 -0.23242,-0.75586 -0.29883,-1.1543 -0.0664,-0.39843 -0.0996,-0.81835 -0.0996,-1.25976 1e-5,-1.11328 0.20704,-1.92871 0.62109,-2.44629 0.41407,-0.51757 1.06446,-0.77636 1.95118,-0.77637 l 0,0 z m 1.86914,2.07422 -1.24805,0 0,0.7793 c 0,0.38672 0.10547,0.68359 0.31641,0.89062 0.21094,0.20703 0.51367,0.31055 0.9082,0.31055 0.39453,0 0.68945,-0.0752 0.88476,-0.22559 0.19532,-0.15039 0.29297,-0.37988 0.29297,-0.68848 0,-0.3203 -0.10547,-0.57812 -0.3164,-0.77343 -0.21094,-0.19531 -0.49024,-0.29297 -0.83789,-0.29297 l 0,0 z m -3.25196,-10.5293 c -0.41405,-0.28905 -0.71581,-0.60155 -0.90527,-0.9375 -0.18945,-0.33593 -0.28417,-0.7285 -0.28418,-1.17773 1e-5,-0.71484 0.20215,-1.24902 0.60645,-1.60254 0.4043,-0.35351 1.01465,-0.53026 1.83105,-0.53028 l 3.25195,0 0,-0.89062 0.70899,0 0,3.70898 -0.70899,0 0,-0.74414 -2.9414,0 c -0.77734,1e-5 -1.26758,0.0596 -1.47071,0.17871 -0.20312,0.11915 -0.30468,0.34083 -0.30468,0.66504 0,0.3672 0.1416,0.65236 0.4248,0.85547 0.28321,0.20313 0.68653,0.3047 1.20996,0.30469 l 3.08203,0 0,-0.74414 0.70899,0 0,3.5625 -0.70899,0 0,-0.74414 -2.9414,0 c -0.77734,0 -1.26758,0.0606 -1.47071,0.18164 -0.20312,0.1211 -0.30468,0.3418 -0.30468,0.66211 0,0.3711 0.1416,0.65821 0.4248,0.86133 0.28321,0.20313 0.68653,0.30469 1.20996,0.30468 l 3.08203,0 0,-0.74414 0.70899,0 0,3.70313 -0.70899,0 0,-0.88477 -4.81054,0 0,0.88477 -0.70899,0 0,-2.95899 0.87891,0 c -0.36328,-0.24218 -0.6289,-0.51952 -0.79688,-0.83203 -0.16796,-0.31249 -0.25194,-0.68359 -0.25195,-1.11328 1e-5,-0.5078 0.0967,-0.91991 0.29004,-1.23633 0.19336,-0.3164 0.49317,-0.56054 0.89941,-0.73242 l 0,0 z m 1.69336,-10.23047 c -0.82031,1e-5 -1.3955,0.0762 -1.72558,0.22852 -0.33008,0.15235 -0.49512,0.41211 -0.49512,0.7793 0,0.35547 0.16211,0.61035 0.48633,0.76464 0.32422,0.1543 0.86719,0.23145 1.6289,0.23145 l 0.10547,0 0,-2.00391 z m 0.69727,-2.27929 0,4.2832 0.0469,0 c 0.80469,0 1.38575,-0.12109 1.74317,-0.36328 0.35742,-0.24219 0.53613,-0.63281 0.53613,-1.17188 0,-0.44921 -0.11914,-0.81249 -0.35742,-1.08984 -0.23828,-0.27734 -0.58399,-0.45507 -1.03711,-0.5332 l 0,-0.97266 c 0.70703,0.16798 1.22656,0.50196 1.55859,1.00195 0.33203,0.50001 0.49805,1.19923 0.49805,2.09766 0,1.07813 -0.28418,1.90527 -0.85254,2.48144 -0.56836,0.57618 -1.37988,0.86426 -2.43457,0.86426 -1.03125,0 -1.83593,-0.29492 -2.41406,-0.88476 -0.57812,-0.58985 -0.86718,-1.41016 -0.86719,-2.46094 1e-5,-1.03125 0.30372,-1.82226 0.91113,-2.37305 0.60743,-0.55077 1.49708,-0.84374 2.66895,-0.8789 l 0,0 z m -3.48047,-6.9961 1.85742,0 0,0.66211 c -0.33203,0.0234 -0.5791,0.11329 -0.74121,0.26953 -0.1621,0.15626 -0.24316,0.38282 -0.24316,0.67969 0,0.45313 0.19922,0.81055 0.59765,1.07227 0.39844,0.26172 0.95118,0.39258 1.65821,0.39257 l 2.46093,0 0,-1.13086 0.70899,0 0,4.08985 -0.70899,0 0,-0.88477 -4.81054,0 0,0.94922 -0.70899,0 0,-3.02344 1.10742,0 c -0.43358,-0.20312 -0.75487,-0.47167 -0.96386,-0.80566 -0.20898,-0.33398 -0.31347,-0.74316 -0.31348,-1.22754 1e-5,-0.12109 0.009,-0.26855 0.0264,-0.44238 0.0176,-0.17382 0.042,-0.37402 0.0732,-0.60059 l 0,0 z m 2.47266,-6.49219 3.11718,0 0,-0.89062 0.70899,0 0,2.96484 -0.79102,0 c 0.32813,0.27345 0.57031,0.57813 0.72656,0.91407 0.15625,0.33594 0.23438,0.71875 0.23438,1.14843 0,0.63672 -0.1709,1.12598 -0.5127,1.46778 -0.34179,0.34179 -0.83105,0.51269 -1.46777,0.51269 -0.69922,0 -1.22265,-0.24511 -1.57031,-0.73535 -0.34765,-0.49023 -0.52148,-1.22949 -0.52149,-2.21777 l 0,-1.08985 -0.36914,0 c -0.5039,1e-5 -0.87597,0.11915 -1.11621,0.35743 -0.24023,0.23828 -0.36034,0.60742 -0.36035,1.10742 1e-5,0.41406 0.085,0.7334 0.25488,0.95801 0.16993,0.22461 0.44825,0.38379 0.83496,0.47753 l 0,0.66211 -1.34179,0 c -0.13281,-0.37109 -0.23242,-0.75585 -0.29883,-1.15429 -0.0664,-0.39844 -0.0996,-0.81836 -0.0996,-1.25977 1e-5,-1.11328 0.20704,-1.9287 0.62109,-2.44629 0.41407,-0.51757 1.06446,-0.77636 1.95118,-0.77637 l 0,0 z m 1.86914,2.07422 -1.24805,0 0,0.7793 c 0,0.38672 0.10547,0.6836 0.31641,0.89063 0.21094,0.20703 0.51367,0.31054 0.9082,0.31054 0.39453,0 0.68945,-0.0752 0.88476,-0.22558 0.19532,-0.15039 0.29297,-0.37988 0.29297,-0.68848 0,-0.32031 -0.10547,-0.57812 -0.3164,-0.77344 -0.21094,-0.19531 -0.49024,-0.29296 -0.83789,-0.29297 l 0,0 z"
       style="font-style:normal;font-variant:normal;font-weight:bold;font-stretch:normal;text-anchor:start;fill:url(#linearGradient2951);fill-opacity:1;stroke:#000000;stroke-width:0.625;stroke-linecap:butt;stroke-linejoin:miter;stroke-miterlimit:4;stroke-opacity:0.78431396;font-family:Bitstream Vera Serif" />
    <path
       id="text2397"
       d="m 341.83899,125.53913 -8.58984,0 0,-2.95899 c 0,-0.66796 0.041,-1.17773 0.12304,-1.52929 0.11329,-0.49219 0.31837,-0.91211 0.61524,-1.25977 0.38282,-0.45312 0.87207,-0.79199 1.46777,-1.0166 0.59571,-0.2246 1.27637,-0.33691 2.04199,-0.33692 0.65235,10e-6 1.23047,0.0762 1.73438,0.22852 0.50391,0.15235 0.9209,0.34766 1.25097,0.58594 0.33008,0.23829 0.58985,0.49903 0.7793,0.78222 0.18945,0.28321 0.33301,0.62501 0.43066,1.02539 0.0977,0.4004 0.14649,0.86036 0.14649,1.37989 l 0,3.09961 z m -1.01367,-1.13672 0,-1.83399 c 0,-0.5664 -0.0527,-1.01073 -0.15821,-1.333 -0.10546,-0.32226 -0.2539,-0.5791 -0.44531,-0.77051 -0.26953,-0.26953 -0.63183,-0.47949 -1.08691,-0.62989 -0.45508,-0.15038 -1.00683,-0.22557 -1.65528,-0.22558 -0.89843,10e-6 -1.58886,0.14747 -2.07128,0.44238 -0.48242,0.29493 -0.80566,0.65333 -0.96973,1.0752 -0.11718,0.30469 -0.17578,0.79492 -0.17578,1.4707 l 0,1.80469 6.5625,0 z m -6.36328,-7.40625 -1.21289,0 0,-1.05469 1.21289,0 0,1.05469 z m 7.37695,0 -6.22266,0 0,-1.05469 6.22266,0 0,1.05469 z m 0.51562,-2.47266 0.15235,-1.02539 c 0.3164,-0.043 0.54687,-0.16211 0.6914,-0.35742 0.19532,-0.26172 0.29297,-0.61914 0.29297,-1.07227 0,-0.48827 -0.0976,-0.86523 -0.29297,-1.13086 -0.19531,-0.26562 -0.46875,-0.4453 -0.82031,-0.53906 -0.21484,-0.0547 -0.66601,-0.0801 -1.35351,-0.0762 0.54297,0.46094 0.81445,1.03516 0.81445,1.72266 0,0.85547 -0.30859,1.51758 -0.92578,1.98632 -0.61719,0.46875 -1.35742,0.70313 -2.22071,0.70313 -0.59374,0 -1.14159,-0.10742 -1.64355,-0.32227 -0.50195,-0.21484 -0.88964,-0.52636 -1.16309,-0.93457 -0.27343,-0.4082 -0.41015,-0.88769 -0.41015,-1.43847 0,-0.73437 0.29688,-1.33984 0.89062,-1.81641 l -0.75,0 0,-0.97266 5.37891,0 c 0.96875,1e-5 1.65527,0.0986 2.05957,0.2959 0.40429,0.19727 0.72363,0.50977 0.95801,0.9375 0.23437,0.42774 0.35156,0.95411 0.35156,1.5791 0,0.74219 -0.16699,1.3418 -0.50098,1.79883 -0.33398,0.45703 -0.83691,0.67774 -1.50879,0.66211 l 0,0 z m -3.73828,-0.87305 c 0.81641,10e-6 1.41211,-0.1621 1.78711,-0.48632 0.375,-0.32422 0.5625,-0.73047 0.5625,-1.21875 0,-0.48437 -0.18652,-0.89062 -0.55957,-1.21875 -0.37304,-0.32812 -0.958,-0.49219 -1.75488,-0.49219 -0.76172,0 -1.33593,0.16895 -1.72266,0.50683 -0.38671,0.3379 -0.58007,0.74513 -0.58008,1.22168 1e-5,0.46876 0.19044,0.86719 0.57129,1.19532 0.38087,0.32812 0.9463,0.49219 1.69629,0.49218 l 0,0 z m -4.15429,-6.00585 -1.21289,0 0,-1.05469 1.21289,0 0,1.05469 z m 7.37695,0 -6.22266,0 0,-1.05469 6.22266,0 0,1.05469 z m -2.75977,-2.41407 -0.0937,-1.07226 c 0.42969,-0.0508 0.78223,-0.16895 1.05762,-0.3545 0.27539,-0.18554 0.49805,-0.47363 0.66797,-0.86425 0.16992,-0.39062 0.25488,-0.83008 0.25488,-1.31836 0,-0.43359 -0.0644,-0.8164 -0.19336,-1.14844 -0.1289,-0.33203 -0.30566,-0.5791 -0.53027,-0.74121 -0.22461,-0.1621 -0.46972,-0.24316 -0.73535,-0.24316 -0.26953,0 -0.50488,0.0781 -0.70606,0.23437 -0.20117,0.15626 -0.37011,0.41407 -0.50683,0.77344 -0.0898,0.23047 -0.22949,0.74024 -0.41895,1.52929 -0.18945,0.78907 -0.36816,1.3418 -0.53613,1.65821 -0.21484,0.41016 -0.48144,0.71582 -0.79981,0.91699 -0.31835,0.20117 -0.67479,0.30176 -1.06933,0.30176 -0.43359,0 -0.83886,-0.12305 -1.21582,-0.36914 -0.37695,-0.2461 -0.66308,-0.60547 -0.8584,-1.07813 -0.1953,-0.47265 -0.29296,-0.99804 -0.29297,-1.57617 10e-6,-0.63671 0.10255,-1.19824 0.30762,-1.68457 0.20508,-0.48632 0.50684,-0.86035 0.90527,-1.12207 0.39845,-0.26171 0.84962,-0.40234 1.35352,-0.42188 l 0.082,1.08985 c -0.54296,0.0586 -0.95312,0.25684 -1.23047,0.59472 -0.27734,0.3379 -0.41601,0.83692 -0.41602,1.49708 1e-5,0.6875 0.12599,1.18847 0.37793,1.50292 0.25196,0.31446 0.55567,0.47169 0.91114,0.47168 0.3086,10e-6 0.5625,-0.11132 0.76172,-0.33398 0.19922,-0.21875 0.40332,-0.79004 0.6123,-1.71387 0.20899,-0.92382 0.39161,-1.55761 0.54785,-1.90136 0.23047,-0.5 0.52247,-0.86914 0.87598,-1.10743 0.35352,-0.23827 0.76074,-0.35741 1.22168,-0.35742 0.45703,1e-5 0.88769,0.13087 1.29199,0.39258 0.4043,0.26173 0.71875,0.6377 0.94336,1.12793 0.22461,0.49024 0.33691,1.042 0.33691,1.65527 0,0.77735 -0.11328,1.42872 -0.33984,1.9541 -0.22656,0.5254 -0.56738,0.93751 -1.02246,1.23633 -0.45508,0.29883 -0.96973,0.45606 -1.54395,0.47168 l 0,0 z m 2.75977,-8.26758 -8.58984,0 0,-1.054683 3.08203,0 c -0.57031,-0.492185 -0.85547,-1.113278 -0.85547,-1.863281 0,-0.460934 0.0908,-0.861324 0.27246,-1.201172 0.18165,-0.339839 0.43262,-0.583002 0.75293,-0.729492 0.32032,-0.146479 0.78516,-0.219721 1.39453,-0.219727 l 3.94336,0 0,1.054688 -3.94336,0 c -0.52734,4e-6 -0.91113,0.114262 -1.15137,0.342773 -0.24023,0.22852 -0.36034,0.551762 -0.36035,0.969727 10e-6,0.312503 0.0811,0.606448 0.24317,0.881836 0.16211,0.275392 0.38184,0.471681 0.65917,0.588867 0.27735,0.117189 0.66017,0.175783 1.14844,0.175781 l 3.4043,0 0,1.054683 z m -3.11133,-6.287105 c -1.15234,0 -2.00585,-0.320312 -2.56055,-0.960937 -0.46093,-0.535155 -0.6914,-1.187498 -0.6914,-1.957032 0,-0.855464 0.28028,-1.554682 0.84082,-2.097656 0.56055,-0.542963 1.33496,-0.814447 2.32324,-0.814453 0.80078,6e-6 1.43067,0.120123 1.88965,0.360352 0.45898,0.24024 0.81543,0.589849 1.06933,1.048828 0.25391,0.458988 0.38086,0.959964 0.38086,1.502929 0,0.871097 -0.27929,1.575197 -0.83789,2.112305 -0.55859,0.53711 -1.36328,0.805664 -2.41406,0.805664 l 0,0 z m 0,-1.083984 c 0.79688,1e-6 1.39356,-0.173827 1.79004,-0.521485 0.39649,-0.347654 0.59473,-0.785153 0.59473,-1.3125 0,-0.523433 -0.19922,-0.95898 -0.59766,-1.30664 -0.39844,-0.347652 -1.00586,-0.52148 -1.82227,-0.521485 -0.76952,5e-6 -1.35253,0.17481 -1.74902,0.524414 -0.39648,0.349614 -0.59472,0.784184 -0.59473,1.303711 1e-5,0.527347 0.19728,0.964846 0.5918,1.3125 0.39454,0.347658 0.99024,0.521486 1.78711,0.521485 l 0,0 z m 2.16797,-8.291016 0.93164,-0.152344 c 0.0625,0.296878 0.0937,0.562503 0.0937,0.796875 0,0.382815 -0.0605,0.67969 -0.18164,0.890625 -0.12109,0.210939 -0.28027,0.359377 -0.47754,0.445313 -0.19726,0.08594 -0.6123,0.128907 -1.24512,0.128906 l -3.58007,0 0,0.773438 -0.82032,0 0,-0.773438 -1.54101,0 -0.63282,-1.048828 2.17383,0 0,-1.060547 0.82032,0 0,1.060547 3.63867,0 c 0.30078,2e-6 0.49414,-0.01855 0.58008,-0.05566 0.0859,-0.03711 0.15429,-0.09765 0.20507,-0.181641 0.0508,-0.08398 0.0762,-0.204099 0.0762,-0.360351 0,-0.117185 -0.0137,-0.271482 -0.041,-0.462891 l 0,0 z m 9.93164,26.425785 0.28711,-1.13672 c 0.9336,0.23829 1.64551,0.667 2.13574,1.28613 0.49024,0.61915 0.73535,1.37598 0.73535,2.27051 0,0.92578 -0.18847,1.67871 -0.56543,2.25879 -0.37695,0.58008 -0.92285,1.02148 -1.63769,1.32422 -0.71484,0.30273 -1.48242,0.4541 -2.30274,0.4541 -0.89452,0 -1.67479,-0.1709 -2.34082,-0.5127 -0.666,-0.34179 -1.17186,-0.82812 -1.51757,-1.45898 -0.3457,-0.63086 -0.51855,-1.32519 -0.51856,-2.08301 10e-6,-0.85937 0.21876,-1.58202 0.65625,-2.16797 0.43751,-0.58593 1.05274,-0.99413 1.8457,-1.22461 l 0.26368,1.11914 c -0.625,0.19923 -1.08007,0.48829 -1.36524,0.86719 -0.28515,0.37891 -0.42772,0.85547 -0.42773,1.42969 1e-5,0.66016 0.15821,1.21192 0.47461,1.65527 0.31641,0.44336 0.74121,0.75489 1.27441,0.93457 0.53321,0.17969 1.08301,0.26953 1.64941,0.26953 0.73048,0 1.36817,-0.10644 1.91309,-0.31933 0.54492,-0.21289 0.95215,-0.54395 1.22168,-0.99317 0.26953,-0.44921 0.4043,-0.93554 0.4043,-1.45898 0,-0.63672 -0.1836,-1.17578 -0.55078,-1.61719 -0.36719,-0.4414 -0.91211,-0.74023 -1.63477,-0.89648 l 0,0 z m -3.47461,-7.58789 0.082,1.04882 c -0.41405,0.0938 -0.71483,0.22657 -0.90234,0.39844 -0.30078,0.28516 -0.45117,0.63672 -0.45117,1.05469 0,0.33594 0.0937,0.63086 0.28125,0.88476 0.24219,0.33204 0.59571,0.59376 1.06054,0.78516 0.46485,0.19141 1.12696,0.29102 1.98633,0.29883 -0.38671,-0.25391 -0.67382,-0.56445 -0.86133,-0.93164 -0.18749,-0.36719 -0.28124,-0.75195 -0.28125,-1.1543 1e-5,-0.70312 0.2588,-1.30175 0.77637,-1.7959 0.51758,-0.49413 1.18653,-0.7412 2.00684,-0.74121 0.53906,1e-5 1.04004,0.11622 1.50293,0.34863 0.46289,0.23243 0.81738,0.55177 1.06347,0.95801 0.2461,0.40626 0.36914,0.86719 0.36914,1.38282 0,0.8789 -0.32324,1.5957 -0.96972,2.15039 -0.64649,0.55468 -1.71191,0.83203 -3.19629,0.83203 -1.66015,0 -2.86718,-0.30664 -3.6211,-0.91992 -0.65624,-0.53516 -0.98436,-1.25586 -0.98437,-2.16211 1e-5,-0.67578 0.18946,-1.22949 0.56836,-1.66114 0.37891,-0.43163 0.90235,-0.69042 1.57031,-0.77636 l 0,0 z m 3.70313,4.30664 c 0.36328,0 0.71094,-0.0772 1.04296,-0.23145 0.33204,-0.15429 0.58497,-0.37011 0.75879,-0.64746 0.17383,-0.27734 0.26075,-0.56836 0.26075,-0.87305 0,-0.44531 -0.17969,-0.82812 -0.53907,-1.14843 -0.35937,-0.32031 -0.84765,-0.48047 -1.46484,-0.48047 -0.59375,0 -1.06152,0.1582 -1.40332,0.47461 -0.34179,0.31641 -0.51269,0.71484 -0.5127,1.19531 1e-5,0.47656 0.17091,0.88086 0.5127,1.21289 0.3418,0.33203 0.79004,0.49805 1.34473,0.49805 l 0,0 z m -1.45313,-5.51368 c -1.01562,0 -1.833,-0.10449 -2.45215,-0.31347 -0.61913,-0.20899 -1.09667,-0.51953 -1.43261,-0.93164 -0.33593,-0.41211 -0.5039,-0.930664 -0.50391,-1.555667 10e-6,-0.460934 0.0928,-0.86523 0.27832,-1.21289 0.18555,-0.347652 0.45313,-0.634761 0.80273,-0.861329 0.34962,-0.226556 0.7754,-0.404291 1.27735,-0.533203 0.50196,-0.1289 1.17871,-0.193353 2.03027,-0.193359 1.00782,6e-6 1.82129,0.103522 2.44043,0.310547 0.61914,0.207037 1.09766,0.516607 1.43555,0.928711 0.33789,0.412114 0.50683,0.932621 0.50683,1.561523 0,0.828127 -0.29687,1.478517 -0.89062,1.951177 -0.71484,0.5664 -1.8789,0.8496 -3.49219,0.8496 l 0,0 z m 0,-1.08398 c 1.41016,0 2.34864,-0.16504 2.81543,-0.49512 0.4668,-0.33007 0.7002,-0.737299 0.7002,-1.221677 0,-0.484371 -0.23438,-0.891597 -0.70313,-1.221679 -0.46875,-0.330074 -1.40625,-0.495113 -2.8125,-0.495118 -1.41406,5e-6 -2.35351,0.165044 -2.81836,0.495118 -0.46483,0.330082 -0.69726,0.741214 -0.69726,1.233398 0,0.484378 0.20508,0.871098 0.61523,1.160158 0.52344,0.36328 1.49024,0.54492 2.90039,0.54492 l 0,0 z"
       style="font-style:italic;font-variant:normal;font-weight:bold;font-stretch:condensed;text-anchor:middle;fill:#000000;fill-opacity:1;stroke:none;font-family:Arial Narrow" />
    <rect
       y="13.246383"
       x="306.61459"
       width="73.765671"
       style="fill:url(#linearGradient2942);fill-opacity:1;fill-rule:evenodd;stroke:url(#linearGradient2944);stroke-width:1.25;stroke-linecap:round;stroke-linejoin:round;stroke-miterlimit:4;stroke-opacity:1;stroke-dashoffset:0"
       ry="2.1213195"
       rx="2.1213202"
       id="rect2403"
       height="16.52914" />
    <rect
       y="14.321029"
       x="308.59186"
       width="69.811966"
       style="opacity:0.4;fill:url(#linearGradient2939);fill-opacity:1;fill-rule:evenodd;stroke:none"
       id="rect2435"
       height="14.380119" />
    <rect
       y="15.040572"
       x="308.94186"
       width="69.111969"
       style="opacity:0.6;fill:url(#linearGradient2936);fill-opacity:1;fill-rule:evenodd;stroke:none"
       id="rect2441"
       height="8.7436724" />
    <rect
       y="12.002487"
       x="195.50165"
       width="34.684162"
       style="opacity:0.9;fill:#191919;fill-opacity:1;fill-rule:evenodd;stroke:url(#linearGradient2933);stroke-width:0.625;stroke-linecap:round;stroke-linejoin:round;stroke-miterlimit:4;stroke-opacity:1;stroke-dashoffset:0"
       ry="2"
       rx="2"
       id="rect2469"
       height="24.682844" />
    <path
       style="opacity:0.28933997;fill:url(#radialGradient2930);fill-opacity:1;fill-rule:evenodd;stroke:none"
       id="path2473"
       d="m 222.54786,24.344261 c 0,5.346975 -4.3447,9.681545 -9.70415,9.681545 -5.35945,0 -9.70415,-4.33457 -9.70415,-9.681545 0,-5.346974 4.3447,-9.681545 9.70415,-9.681545 5.35945,0 9.70415,4.334571 9.70415,9.681545 z" />
    <path
       style="opacity:0.23350298;fill:url(#linearGradient2927);fill-opacity:1;fill-rule:evenodd;stroke:none"
       id="path2483"
       d="m 225.41163,24.34495 c 0,6.648421 -5.62685,12.03802 -12.56794,12.03802 -6.94108,0 -12.56793,-5.389599 -12.56793,-12.03802 0,-6.648421 5.62685,-12.03802 12.56793,-12.03802 6.94109,0 12.56794,5.389599 12.56794,12.03802 z" />
    <path
       style="fill:url(#linearGradient2924);fill-opacity:1;fill-rule:evenodd;stroke:none"
       id="path2489"
       d="m 222.93705,27.879323 c 0,3.328938 -4.51882,6.02757 -10.09306,6.02757 -5.57425,0 -10.09306,-2.698632 -10.09306,-6.02757 0,-3.328937 4.51881,-6.027569 10.09306,-6.027569 5.57424,0 10.09306,2.698632 10.09306,6.027569 z" />
    <path
       style="fill:url(#radialGradient2921);fill-opacity:1;fill-rule:evenodd;stroke:none"
       id="path2515"
       d="m 213.36417,22.360062 c 0.002,0.7084 -0.39242,1.363656 -1.0334,1.718318 -0.64096,0.354648 -1.43112,0.354648 -2.07209,0 -0.64097,-0.354662 -1.03505,-1.009918 -1.03339,-1.718318 -0.002,-0.7084 0.39242,-1.363656 1.03339,-1.718318 0.64097,-0.354648 1.43113,-0.354648 2.07209,0 0.64098,0.354662 1.03505,1.009918 1.0334,1.718318 z" />
    <path
       style="opacity:0.75126899;fill:url(#radialGradient2918);fill-opacity:1;fill-rule:evenodd;stroke:none"
       id="path2525"
       d="m 221.05798,28.713106 c 0.003,1.50535 -0.79781,2.897769 -2.10095,3.651425 -1.30311,0.753627 -2.90955,0.753627 -4.21266,0 -1.30314,-0.753656 -2.10431,-2.146075 -2.10094,-3.651425 -0.003,-1.50535 0.7978,-2.897769 2.10094,-3.651426 1.30311,-0.753627 2.90955,-0.753627 4.21266,0 1.30314,0.753657 2.10431,2.146076 2.10095,3.651426 z" />
    <path
       style="fill:#ffffff;fill-opacity:0;fill-rule:evenodd;stroke:none"
       id="path2545"
       d="m 240.85487,152.06796 c -22.0158,-6.78561 -34.39758,-30.01925 -27.65547,-51.89377 6.74209,-21.874526 30.05496,-34.10651 52.07077,-27.320897 22.0158,6.785614 34.39758,30.019247 27.65548,51.893777 -6.74209,21.87452 -30.05498,34.1065 -52.07078,27.32089 l 0,0 z" />
    <path
       style="fill:#ffffff;fill-opacity:0;fill-rule:evenodd;stroke:none"
       id="path2564"
       d="m 276.02224,77.895583 c 19.21273,12.762648 24.50792,38.583877 11.82713,57.673327 -12.68078,19.08945 -38.53557,24.21834 -57.74829,11.4557 -19.21273,-12.76265 -24.50792,-38.58388 -11.82714,-57.673335 12.68078,-19.08945 38.53557,-24.21834 57.7483,-11.455692 l 0,0 z" />
    <path
       style="fill:url(#radialGradient2907);fill-opacity:1;fill-rule:evenodd;stroke:none"
       id="path1466"
       d="M 15.78125,82.95037 C 15.71003,89.00226 15.5,93.33883 15.5,100.01287 c 0,25.08509 0.54724,46.09253 1.34375,56.9375 1.33627,2.82874 2.70912,4.78141 3.96875,4.65625 4.17348,-0.41471 5.72904,-18.94253 3.5,-41.375 -1.70575,-17.1662 -5.13834,-31.60783 -8.53125,-37.28125 z" />
    <path
       style="opacity:0.85;fill:#000000;fill-opacity:1;fill-rule:evenodd;stroke:url(#linearGradient2904);stroke-width:0.85000002;stroke-linecap:round;stroke-linejoin:round;stroke-miterlimit:4;stroke-opacity:1;stroke-dashoffset:0"
       id="path2247"
       d="m 248.90625,11.45037 c -3.85503,2.47832 -6.4375,6.79849 -6.4375,11.71875 0,4.92025 2.58247,9.20918 6.4375,11.6875 l 15,0 c 3.85658,-2.47803 6.4375,-6.76607 6.4375,-11.6875 0,-4.92144 -2.58092,-9.24072 -6.4375,-11.71875 l -15,0 z" />
    <path
       style="opacity:0.28933997;fill:url(#radialGradient2901);fill-opacity:1;fill-rule:evenodd;stroke:none"
       id="path2261"
       d="m 265.71366,22.445261 c 0,5.346975 -4.3447,9.681545 -9.70415,9.681545 -5.35945,0 -9.70415,-4.33457 -9.70415,-9.681545 0,-5.346974 4.3447,-9.681545 9.70415,-9.681545 5.35945,0 9.70415,4.334571 9.70415,9.681545 z" />
    <path
       style="opacity:0.23350298;fill:url(#linearGradient2898);fill-opacity:1;fill-rule:evenodd;stroke:none"
       id="path2263"
       d="m 268.57763,22.44595 c 0,6.648421 -5.62685,12.03802 -12.56793,12.03802 -6.94109,0 -12.56794,-5.389599 -12.56794,-12.03802 0,-6.648421 5.62685,-12.03802 12.56794,-12.03802 6.94108,0 12.56793,5.389599 12.56793,12.03802 z" />
    <path
       style="fill:url(#linearGradient2895);fill-opacity:1;fill-rule:evenodd;stroke:none"
       id="path2265"
       d="m 266.10285,25.979823 c 0,3.328938 -4.51882,6.02757 -10.09306,6.02757 -5.57425,0 -10.09306,-2.698632 -10.09306,-6.02757 0,-3.328937 4.51881,-6.027569 10.09306,-6.027569 5.57424,0 10.09306,2.698632 10.09306,6.027569 z" />
    <path
       style="fill:url(#radialGradient2892);fill-opacity:1;fill-rule:evenodd;stroke:none"
       id="path2267"
       d="m 257.24581,19.565062 c 0.002,0.7084 -0.37544,1.363656 -0.98868,1.718318 -0.61323,0.354648 -1.3692,0.354648 -1.98243,0 -0.61324,-0.354662 -0.99026,-1.009918 -0.98868,-1.718318 -0.002,-0.7084 0.37544,-1.363656 0.98868,-1.718318 0.61323,-0.354648 1.3692,-0.354648 1.98243,0 0.61324,0.354662 0.99026,1.009918 0.98868,1.718318 z" />
    <path
       style="opacity:0.75126899;fill:url(#radialGradient2889);fill-opacity:1;fill-rule:evenodd;stroke:none"
       id="path2269"
       d="m 262.43298,27.261106 c 0.003,1.50535 -0.79781,2.897769 -2.10095,3.651425 -1.30311,0.753627 -2.90955,0.753627 -4.21266,0 -1.30314,-0.753656 -2.10431,-2.146075 -2.10094,-3.651425 -0.003,-1.50535 0.7978,-2.897769 2.10094,-3.651426 1.30311,-0.753627 2.90955,-0.753627 4.21266,0 1.30314,0.753657 2.10431,2.146076 2.10095,3.651426 z" />
    <path
       style="fill:url(#linearGradient2886);fill-opacity:1;fill-rule:evenodd;stroke:none"
       id="path2281"
       d="m 253.14275,13.846341 c 3.25901,0.55665 4.97966,4.636222 3.84317,9.111983 -1.13649,4.475762 -4.69974,7.652828 -7.95875,7.096178 -3.25902,-0.556649 -4.97966,-4.636221 -3.84318,-9.111983 1.13649,-4.475761 4.69974,-7.652827 7.95876,-7.096178 z" />
    <path
       style="fill:url(#linearGradient2883);fill-opacity:1;fill-rule:evenodd;stroke:none"
       id="path2287"
       d="m 210.43074,16.641178 c 3.25858,0.543024 4.97609,4.511563 3.83616,8.863984 -1.13993,4.352421 -4.70562,7.440547 -7.9642,6.897523 -3.25859,-0.543024 -4.97609,-4.511564 -3.83617,-8.863985 1.13993,-4.352421 4.70563,-7.440546 7.96421,-6.897522 z" />
    <rect
       y="35.000046"
       x="50.5"
       width="15"
       style="fill:url(#linearGradient2878);fill-opacity:1;fill-rule:evenodd;stroke:url(#linearGradient2880);stroke-width:2;stroke-linecap:round;stroke-linejoin:round;stroke-miterlimit:4;stroke-opacity:0.19607801;stroke-dashoffset:0"
       ry="65"
       rx="7.5"
       id="rect2291"
       height="130" />
    <rect
       y="35.000046"
       x="50.5"
       width="15"
       style="opacity:0.65;fill:url(#linearGradient2875);fill-opacity:1;fill-rule:evenodd;stroke:none"
       ry="65"
       rx="7.5"
       id="rect2310"
       height="130" />
    <rect
       y="50.000046"
       x="52.230759"
       width="11.538462"
       style="opacity:0.53807098;fill:url(#linearGradient2872);fill-opacity:1;fill-rule:evenodd;stroke:#000000;stroke-width:1;stroke-linecap:round;stroke-linejoin:round;stroke-miterlimit:4;stroke-opacity:0.39215698;stroke-dashoffset:0"
       ry="65"
       rx="3.9183178"
       id="rect2318"
       height="100" />
    <rect
       y="55.000046"
       x="53.678741"
       width="8.6424856"
       style="fill:url(#linearGradient2869);fill-opacity:1;fill-rule:evenodd;stroke:none"
       ry="65"
       rx="4.8584952"
       id="rect2336"
       height="41.305851" />
    <rect
       y="56.208298"
       x="52.947098"
       width="10.105789"
       style="opacity:0.24365498;fill:url(#linearGradient2866);fill-opacity:1;fill-rule:evenodd;stroke:none"
       ry="65"
       rx="3.918318"
       id="rect2355"
       height="87.583504" />
    <path
       style="opacity:0.62436601;fill:url(#radialGradient2863);fill-opacity:1;fill-rule:evenodd;stroke:none"
       id="path2359"
       d="m 34.380008,76.40602 c -1.986205,23.92863 -5.532339,42.87849 -7.92052,42.32568 -2.388181,-0.5528 -2.71404,-20.39893 -0.727835,-44.327561 1.986205,-23.928632 5.532339,-42.878487 7.92052,-42.325682 2.388181,0.552805 2.714041,20.398931 0.727835,44.327563 z" />
    <path
       style="opacity:0.49238598;fill:url(#radialGradient2860);fill-opacity:1;fill-rule:evenodd;stroke:none"
       id="path2369"
       d="m 36.281886,119.90375 c 0.93923,24.42273 -2.221123,43.42661 -7.058862,42.44635 -4.837738,-0.98027 -9.520883,-21.57347 -10.460113,-45.9962 -0.939229,-24.422737 2.221124,-43.426616 7.058862,-42.446351 4.837738,0.980266 9.520884,21.573465 10.460113,45.996201 z" />
    <path
       id="text2319"
       d="m 28.574928,119.8124 c 0.235766,-0.38114 0.645323,-0.67078 1.22867,-0.86894 0.583359,-0.19814 1.325397,-0.29721 2.226115,-0.29721 1.342017,0 2.36213,0.21455 3.06034,0.64365 0.69821,0.42911 1.047316,1.0551 1.047316,1.87797 0,0.29028 -0.05591,0.58119 -0.167751,0.87273 -0.111842,0.29153 -0.279587,0.57992 -0.503256,0.86514 l -2.6931,0 c 0.326438,-0.2726 0.572778,-0.54331 0.739015,-0.81214 0.166243,-0.26882 0.249363,-0.53322 0.249362,-0.79321 10e-7,-0.38619 -0.160193,-0.68215 -0.480587,-0.88787 -0.320388,-0.20572 -0.779817,-0.30858 -1.378288,-0.30858 -0.616597,0 -1.083581,0.10539 -1.400954,0.31615 -0.317364,0.21077 -0.476048,0.52187 -0.476053,0.9333 l 0,0.58309 -2.248785,0 0,-0.61337 c 9e-6,-0.366 -0.137515,-0.63861 -0.412578,-0.81783 -0.275045,-0.17921 -0.693668,-0.26882 -1.255874,-0.26882 -0.51987,0 -0.921869,0.0871 -1.206001,0.26125 -0.284109,0.17417 -0.426169,0.42027 -0.42618,0.73831 1.1e-5,0.23475 0.06348,0.47202 0.190421,0.71181 0.126961,0.2398 0.314357,0.47833 0.562196,0.7156 l -2.557085,0 c -0.19343,-0.28776 -0.338512,-0.57298 -0.435248,-0.85569 -0.09671,-0.2827 -0.145068,-0.56036 -0.145083,-0.83296 1.4e-5,-0.73453 0.288668,-1.28416 0.865963,-1.64891 0.577321,-0.36473 1.446305,-0.5471 2.606957,-0.54711 0.791919,10e-6 1.440258,0.0871 1.945016,0.26126 0.504776,0.17416 0.859925,0.43163 1.065452,0.77238 l 0,0 z m 3.790288,-2.57085 0,-1.36303 3.50919,0 0,1.36303 -3.50919,0 z m 0.943039,-4.3958 0,-2.48754 2.566151,0 0,4.10805 -2.566151,0 -4.361553,-2.06349 c -0.398969,-0.18426 -0.788879,-0.32057 -1.16973,-0.40891 -0.380834,-0.0883 -0.776788,-0.13252 -1.187864,-0.13252 -0.634728,0 -1.145541,0.089 -1.532438,0.26692 -0.386877,0.17796 -0.58032,0.4146 -0.580331,0.70992 1.1e-5,0.22718 0.116376,0.47581 0.349106,0.74589 0.232747,0.27008 0.57883,0.5591 1.038248,0.86704 l -2.974197,0 c -0.259927,-0.32813 -0.457905,-0.65249 -0.593933,-0.97306 -0.135999,-0.32056 -0.204009,-0.63482 -0.204023,-0.94276 1.4e-5,-0.67647 0.356676,-1.20213 1.069986,-1.57697 0.713335,-0.37483 1.707756,-0.56225 2.983264,-0.56225 0.737514,0 1.425146,0.0795 2.062896,0.23853 0.637768,0.15902 1.49164,0.49348 2.56162,1.00335 l 2.538949,1.2078 z"
       style="font-size:11.99999332px;font-style:normal;font-variant:normal;font-weight:bold;font-stretch:normal;text-anchor:start;opacity:0.51776602;fill:#000000;fill-opacity:1;stroke:url(#linearGradient2857);stroke-width:0.99999738px;stroke-linecap:butt;stroke-linejoin:miter;stroke-opacity:1;font-family:Bitstream Vera Sans" />
    <path
       id="text2331"
       d="m 15.953092,105.6842 0,-2.56449 5.241331,-1.77945 -5.241331,-1.789911 0,-2.559265 9.793877,0 0,1.905048 -7.163371,0 5.28069,1.800388 0,1.27701 -5.28069,1.80038 7.163371,0 0,1.91029 -9.793877,0 z m 0,-10.676678 0,-5.437782 1.908921,0 0,3.422816 1.823641,0 0,-3.218708 1.90892,0 0,3.218708 2.243474,0 0,-3.537961 1.908921,0 0,5.552927 -9.793877,0 z m 9.065731,-14.350726 c 0.306127,0.50244 0.535723,1.024063 0.688786,1.564868 0.153064,0.540818 0.229595,1.099076 0.229595,1.674774 0,1.301443 -0.455911,2.332474 -1.367732,3.0931 -0.911818,0.760626 -2.148352,1.140938 -3.709603,1.140938 -1.578733,0 -2.820733,-0.387288 -3.726002,-1.161875 -0.905251,-0.774579 -1.357882,-1.835268 -1.357892,-3.18207 10e-6,-0.519872 0.06124,-1.017943 0.183677,-1.494213 0.12246,-0.476257 0.30395,-0.92548 0.544469,-1.34767 l 2.026998,0 c -0.310494,0.436147 -0.542274,0.869668 -0.695346,1.300568 -0.153055,0.430911 -0.229587,0.862688 -0.229596,1.295333 9e-6,0.8025 0.280989,1.420944 0.842943,1.855336 0.561968,0.434397 1.365551,0.651595 2.410749,0.651592 1.036464,3e-6 1.836765,-0.209345 2.400911,-0.628041 0.56415,-0.418689 0.846224,-1.013583 0.846222,-1.784681 2e-6,-0.209342 -0.0164,-0.403859 -0.0492,-0.583554 -0.0328,-0.179684 -0.08418,-0.341056 -0.154157,-0.484115 l -1.90236,0 0,1.229913 -1.692445,0 0,-3.140203 4.709982,0 z m -1.056138,-6.510686 0,3.15067 1.784284,0.497198 0,2.02543 -9.793877,-2.894219 0,-2.402255 9.793877,-2.894219 0,2.02543 -1.784284,0.491965 z m -1.817082,2.648237 0,-2.140571 -3.896559,1.067669 3.896559,1.072902 z m 2.923428,32.344083 0,-3.34432 c 9e-6,-0.99439 0.276616,-1.75764 0.829822,-2.28972 0.553224,-0.53209 1.341499,-0.79814 2.364831,-0.79814 1.027718,0 1.818181,0.26605 2.371391,0.79814 0.553218,0.53208 0.829826,1.29533 0.829823,2.28972 l 0,1.32936 3.398009,0 0,2.01496 -9.793876,0 z m 1.830202,-2.01496 2.735463,0 0,-1.11478 c 5e-6,-0.39077 -0.119166,-0.69258 -0.357513,-0.90542 -0.238336,-0.21283 -0.576169,-0.31925 -1.013499,-0.31926 -0.437317,1e-5 -0.774057,0.10643 -1.010219,0.31926 -0.236147,0.21284 -0.354224,0.51465 -0.354232,0.90542 l 0,1.11478 z m -1.830202,-5.83555 0,-2.014959 9.793876,0 0,2.014959 -9.793876,0 z m 4.79526,-8.352932 4.998616,-2.71104 0,2.098697 -3.34553,1.826552 3.34553,1.810849 0,2.109166 -4.998616,-2.71104 -4.79526,2.606373 0,-2.10394 3.155293,-1.711408 -3.155293,-1.706174 0,-2.114408 4.79526,2.606373 z m -4.79526,-3.91479 0,-5.43778 1.90892,0 0,3.422822 1.823642,0 0,-3.218709 1.90892,0 0,3.218709 2.243474,0 0,-3.537963 1.90892,0 0,5.552921 -9.793876,0 z m 0,-7.327137 0,-2.014963 7.884956,0 0,-3.537961 1.90892,0 0,5.552924 -9.793876,0 z m 0.308313,-12.262487 2.072917,0 c -0.24052,0.429168 -0.42201,0.847861 -0.544469,1.256082 -0.122443,0.408231 -0.183668,0.793777 -0.183676,1.15664 8e-6,0.481501 0.0831,0.83739 0.249275,1.067669 0.166191,0.230284 0.424212,0.345425 0.774064,0.345422 0.262401,3e-6 0.46685,-0.07763 0.613347,-0.232898 0.14651,-0.155262 0.272241,-0.437008 0.377192,-0.845238 l 0.216476,-0.858322 c 0.218667,-0.868784 0.551033,-1.486356 0.997098,-1.852719 0.446076,-0.36635 1.080196,-0.549528 1.902361,-0.549535 1.080193,7e-6 1.883776,0.255584 2.41075,0.766732 0.526975,0.511161 0.790463,1.291849 0.790464,2.342068 -10e-7,0.495458 -0.05903,0.992656 -0.177116,1.491595 -0.118078,0.498946 -0.293007,0.997888 -0.524789,1.496831 l -2.131956,0 c 0.332368,-0.498943 0.582737,-0.981312 0.751104,-1.447111 0.168372,-0.465793 0.252556,-0.915016 0.252555,-1.347669 1e-6,-0.439624 -0.09184,-0.776323 -0.275515,-1.010099 -0.183674,-0.233766 -0.446067,-0.350651 -0.787183,-0.350655 -0.306124,4e-6 -0.542279,0.07938 -0.708465,0.238131 -0.16618,0.158759 -0.31487,0.475396 -0.446071,0.949912 l -0.216476,0.779816 c -0.209911,0.781564 -0.544464,1.352906 -1.003659,1.714027 -0.459184,0.361125 -1.077998,0.541685 -1.856441,0.541685 -0.975225,0 -1.725235,-0.251215 -2.250033,-0.753648 -0.52478,-0.502431 -0.787174,-1.224676 -0.787184,-2.16674 10e-6,-0.429157 0.04046,-0.870529 0.121358,-1.324119 0.08091,-0.453578 0.202271,-0.922863 0.364072,-1.407857 l 0,0 z"
       style="font-size:11.99997997px;font-style:normal;font-variant:normal;font-weight:bold;font-stretch:normal;text-anchor:middle;opacity:0.68527904;fill:#000000;fill-opacity:1;stroke:url(#linearGradient2853);stroke-width:0.99999833px;stroke-linecap:butt;stroke-linejoin:miter;stroke-opacity:1;font-family:Bitstream Vera Sans" />
  </g>
</svg>
