<?xml version="1.0" encoding="UTF-8" standalone="no"?>
<!-- Created with Inkscape (http://www.inkscape.org/) -->

<svg
   xmlns:dc="http://purl.org/dc/elements/1.1/"
   xmlns:cc="http://creativecommons.org/ns#"
   xmlns:rdf="http://www.w3.org/1999/02/22-rdf-syntax-ns#"
   xmlns:svg="http://www.w3.org/2000/svg"
   xmlns="http://www.w3.org/2000/svg"
   xmlns:xlink="http://www.w3.org/1999/xlink"
   xmlns:sodipodi="http://sodipodi.sourceforge.net/DTD/sodipodi-0.dtd"
   xmlns:inkscape="http://www.inkscape.org/namespaces/inkscape"
   id="svg548"
   sodipodi:version="0.32"
   width="446.92365"
   height="314.73062"
   sodipodi:docname="laptop.svg"
   inkscape:version="0.47pre4 r22446"
   version="1.1">
  <metadata
     id="metadata33" />
  <defs
     id="defs550">
    <inkscape:perspective
       sodipodi:type="inkscape:persp3d"
       inkscape:vp_x="0 : 250 : 1"
       inkscape:vp_y="0 : 1000 : 0"
       inkscape:vp_z="500 : 250 : 1"
       inkscape:persp3d-origin="250 : 166.66667 : 1"
       id="perspective37" />
    <linearGradient
       id="linearGradient1164">
      <stop
         style="stop-color:#263d42;stop-opacity:1;"
         offset="0.000000"
         id="stop1165" />
      <stop
         style="stop-color:#9acde7;stop-opacity:1;"
         offset="1.000000"
         id="stop1166" />
    </linearGradient>
    <linearGradient
       xlink:href="#linearGradient1164"
       id="linearGradient1167"
       x1="190.06402"
       y1="287.50144"
       x2="33.312536"
       y2="99.812564"
       gradientUnits="userSpaceOnUse"
       spreadMethod="reflect"
       gradientTransform="scale(1.262625,0.79200081)" />
  </defs>
  <sodipodi:namedview
     id="base"
     showgrid="true"
     inkscape:zoom="0.7725"
     inkscape:cx="159.0187"
     inkscape:cy="105.448"
     inkscape:window-width="607"
     inkscape:window-height="500"
     inkscape:window-x="0"
     inkscape:window-y="25"
     inkscape:window-maximized="0"
     inkscape:current-layer="svg548" />
  <g
     id="g1020"
     transform="translate(-40.9813,-90.71738)">
    <g
       id="g1178"
       style="font-size:12px;stroke:#000000;stroke-width:3.75;stroke-linejoin:bevel">
      <g
         id="g1171"
         style="stroke:#000000;stroke-width:3.75;stroke-linejoin:bevel;stroke-opacity:1;stroke-dasharray:none">
        <path
           style="fill:#383838;fill-opacity:1;fill-rule:evenodd;stroke:#000000;stroke-width:3.75;stroke-linecap:butt;stroke-linejoin:bevel;stroke-opacity:1;stroke-dasharray:none"
           d="m 79.8686,270.134 352.5904,0 60.389,60.389 -443.1736,2.922 30.1942,-63.311 z"
           id="path1156"
           transform="translate(-6.818047,55.51842)" />
        <path
           style="fill:#383838;fill-opacity:1;fill-rule:evenodd;stroke:#000000;stroke-width:3.75;stroke-linecap:butt;stroke-linejoin:bevel;stroke-opacity:1;stroke-dasharray:none"
           d="m 42.8563,387.989 0,15.584 442.1987,-2.922 0,-14.61 -442.1987,1.948 z"
           id="path1157"
           sodipodi:nodetypes="ccccc" />
        <path
           style="fill:#383838;fill-opacity:1;fill-rule:evenodd;stroke:#000000;stroke-width:3.75;stroke-linecap:butt;stroke-linejoin:bevel;stroke-opacity:1;stroke-dasharray:none"
           d="m 73.0505,325.653 c -4.5804,-2.238 -1.079,-5.305 -0.974,-5.844 1.948,0 353.5645,-0.974 353.5645,-0.974 0.395,0.27 3.606,2.363 0,5.844 -6.818,0.974 -352.5905,2.922 -352.5905,0.974 z"
           id="path1161"
           sodipodi:nodetypes="ccccc" />
      </g>
      <g
         id="g1168"
         style="stroke:#000000;stroke-width:3.75;stroke-linejoin:bevel;stroke-opacity:1;stroke-dasharray:none">
        <path
           style="fill:#383838;fill-opacity:1;fill-rule:evenodd;stroke:#000000;stroke-width:3.75;stroke-linecap:butt;stroke-linejoin:bevel;stroke-opacity:1;stroke-dasharray:none"
           d="m 71.1025,318.835 -1.948,-207.464 c 0,0 7.7921,-17.5319 18.5061,-18.5059 10.7141,-0.974 331.1624,0.974 331.1624,0.974 0,0 5.844,1.948 6.818,8.7659 0.974,6.818 -0.974,215.256 -0.974,215.256 l -353.5645,0.974 z"
           id="path1162" />
        <path
           style="fill:url(#linearGradient1167);fill-opacity:1;fill-rule:evenodd;stroke:#000000;stroke-width:3.75;stroke-linecap:butt;stroke-linejoin:bevel;stroke-opacity:1;stroke-dasharray:none"
           d="m 87.6606,114.293 c 0,0 3.8961,-7.792 10.7141,-7.792 6.8183,0 301.9423,0 301.9423,0 0,0 8.766,5.844 8.766,11.688 0,5.844 0,181.166 0,181.166 0,0 0.974,6.818 -9.74,7.792 -10.714,0.974 -302.9163,-1.948 -302.9163,-1.948 0,0 -8.7661,-0.974 -9.7401,-5.844 2.922,-8.766 0,-178.244 0.974,-185.062 z"
           id="path1163"
           sodipodi:nodetypes="ccccccccc" />
      </g>
    </g>
    <g
       id="g1175"
       style="font-size:12px;stroke:#000000;stroke-width:3.75;stroke-linejoin:bevel">
      <path
         style="fill:#595959;fill-opacity:1;fill-rule:evenodd;stroke:#000000;stroke-width:3.75;stroke-linecap:butt;stroke-linejoin:bevel;stroke-opacity:1;stroke-dasharray:none"
         d="m 75.9725,330.523 346.7465,0.974 42.856,42.856 -408.1086,-1.948 18.5061,-41.882 z"
         id="path1158" />
      <path
         style="fill:#4c4c4d;fill-opacity:1;fill-rule:evenodd;stroke:#000000;stroke-width:3.75;stroke-linecap:butt;stroke-linejoin:bevel;stroke-opacity:1;stroke-dasharray:none"
         d="m 56.4924,372.405 0,7.792 408.1086,0 0,-5.844 -408.1086,-1.948 z"
         id="path1159"
         sodipodi:nodetypes="ccccc" />
    </g>
    <g
       id="g1206"
       style="font-size:12px">
      <path
         style="fill:none;stroke:#000000;stroke-width:1pt;stroke-linecap:butt;stroke-linejoin:miter;stroke-opacity:1"
         d="m 76.25,338.125 c 1.25,0 350,2.5 350,2.5"
         id="path1203" />
      <path
         style="fill:none;stroke:#000000;stroke-width:1pt;stroke-linecap:butt;stroke-linejoin:miter;stroke-opacity:1"
         d="m 72.5,350 363.75,0"
         id="path1204" />
      <path
         style="fill:none;stroke:#000000;stroke-width:1pt;stroke-linecap:butt;stroke-linejoin:miter;stroke-opacity:1"
         d="m 66.875,360 381.25,1.875 -1.25,0.625"
         id="path1205" />
    </g>
    <g
       id="g1210"
       style="font-size:12px">
      <path
         style="fill:none;stroke:#000000;stroke-width:1pt;stroke-linecap:butt;stroke-linejoin:miter;stroke-opacity:1"
         d="m 111.25,333.75 -13.125,36.875 0,0"
         id="path1198" />
      <path
         style="fill:none;stroke:#000000;stroke-width:1pt;stroke-linecap:butt;stroke-linejoin:miter;stroke-opacity:1"
         d="m 170,334.375 c 0,0 -8.75,35 -8.75,35.625"
         id="path1199" />
      <path
         style="fill:none;stroke:#000000;stroke-width:1pt;stroke-linecap:butt;stroke-linejoin:miter;stroke-opacity:1"
         d="m 377.5,333.75 22.5,37.5"
         id="path1200" />
      <path
         style="fill:none;stroke:#000000;stroke-width:1pt;stroke-linecap:butt;stroke-linejoin:miter;stroke-opacity:1"
         d="m 316.25,332.5 5.625,36.875"
         id="path1201" />
      <path
         style="fill:none;stroke:#000000;stroke-width:1pt;stroke-linecap:butt;stroke-linejoin:miter;stroke-opacity:1"
         d="m 246.875,334.375 1.875,36.25"
         id="path1202" />
    </g>
    <path
       style="fill:#ffffff;fill-opacity:0.5;fill-rule:evenodd;stroke:none"
       d="m 93.3544,261.076 c 0,-1.582 -3.1645,-132.911 6.3291,-143.987 14.2405,-4.747 221.5195,-1.583 221.5195,-1.583 0,0 -226.2663,3.165 -227.8486,145.57 z"
       id="path579"
       sodipodi:nodetypes="cccc" />
    <path
       style="fill:#ffffff;fill-opacity:0.31111103;fill-rule:evenodd;stroke:none"
       d="m 170.886,367.089 c 0,0 264.241,11.076 264.241,-1.583 0,-12.658 -15.823,-31.645 -15.823,-31.645 0,0 18.987,31.645 -248.418,33.228 z"
       id="path580" />
  </g>
  <metadata
     id="metadata35">
    <rdf:RDF>
      <cc:Work
         rdf:about="">
        <dc:title>Clipart by Nicu Buculei - antenna</dc:title>
        <dc:rights>
          <cc:Agent>
            <dc:title>Nicu Buculei</dc:title>
          </cc:Agent>
        </dc:rights>
        <dc:type
           rdf:resource="http://purl.org/dc/dcmitype/StillImage" />
        <cc:license
           rdf:resource="http://web.resource.org/cc/PublicDomain" />
        <dc:format>image/svg+xml</dc:format>
      </cc:Work>
      <cc:License
         rdf:about="http://web.resource.org/cc/PublicDomain">
        <cc:permits
           rdf:resource="http://web.resource.org/cc/Reproduction" />
        <cc:permits
           rdf:resource="http://web.resource.org/cc/Distribution" />
        <cc:permits
           rdf:resource="http://web.resource.org/cc/DerivativeWorks" />
      </cc:License>
    </rdf:RDF>
  </metadata>
</svg>
