<?xml version="1.0" encoding="UTF-8" standalone="no"?>
<!-- Created with Inkscape (http://www.inkscape.org/) -->

<svg
   xmlns:dc="http://purl.org/dc/elements/1.1/"
   xmlns:cc="http://creativecommons.org/ns#"
   xmlns:rdf="http://www.w3.org/1999/02/22-rdf-syntax-ns#"
   xmlns:svg="http://www.w3.org/2000/svg"
   xmlns="http://www.w3.org/2000/svg"
   xmlns:sodipodi="http://sodipodi.sourceforge.net/DTD/sodipodi-0.dtd"
   xmlns:inkscape="http://www.inkscape.org/namespaces/inkscape"
   id="svg548"
   sodipodi:version="0.32"
   width="385"
   height="403.75"
   sodipodi:docname="laser_printer.svg"
   inkscape:version="0.47pre4 r22446"
   version="1.1">
  <metadata
     id="metadata25" />
  <defs
     id="defs550">
    <inkscape:perspective
       sodipodi:type="inkscape:persp3d"
       inkscape:vp_x="0 : 250 : 1"
       inkscape:vp_y="0 : 1000 : 0"
       inkscape:vp_z="500 : 250 : 1"
       inkscape:persp3d-origin="250 : 166.66667 : 1"
       id="perspective29" />
  </defs>
  <sodipodi:namedview
     id="base"
     showgrid="true"
     inkscape:zoom="0.7725"
     inkscape:cx="144.375"
     inkscape:cy="144.375"
     inkscape:window-width="607"
     inkscape:window-height="500"
     inkscape:window-x="410"
     inkscape:window-y="25"
     inkscape:window-maximized="0"
     inkscape:current-layer="svg548" />
  <g
     id="g1066"
     transform="translate(-55.625,-40.625)">
    <path
       style="fill:#e6e6e6;fill-opacity:1;fill-rule:evenodd;stroke:#000000;stroke-width:3.75;stroke-linecap:butt;stroke-linejoin:bevel;stroke-opacity:1;stroke-dasharray:none"
       d="m 53.75,166.25 208.75,52.5 C 318.333,162.917 370.417,137.083 430,107.5 L 213.75,55 c -57.083,24.5833 -110.417,64.167 -160,111.25 z"
       id="path762"
       sodipodi:nodetypes="ccccc"
       transform="translate(8.75,21.25)" />
    <path
       style="fill:#e6e6e6;fill-opacity:1;fill-rule:evenodd;stroke:#000000;stroke-width:3.75;stroke-linecap:butt;stroke-linejoin:miter;stroke-opacity:1;stroke-dasharray:none"
       d="m 51.25,166.25 -2.5,191.25 208.75,61.25 c 0,0 5,-201.25 3.75,-201.25 -1.25,0 -212.5,-50 -210,-51.25 z"
       id="path763"
       sodipodi:nodetypes="ccccc"
       transform="translate(8.75,21.25)" />
    <path
       style="fill:#cccccc;fill-opacity:1;fill-rule:evenodd;stroke:#000000;stroke-width:3.75;stroke-linecap:butt;stroke-linejoin:bevel;stroke-opacity:1;stroke-dasharray:none"
       d="M 260,220 C 277.5,193.75 416.25,106.25 428.75,108.75 l -6.25,192.5 -165,120 L 260,220 z"
       id="path764"
       sodipodi:nodetypes="ccccc"
       transform="translate(8.75,21.25)" />
    <path
       style="fill:none;stroke:#000000;stroke-width:3.75;stroke-linecap:butt;stroke-linejoin:miter;stroke-opacity:1;stroke-dasharray:none"
       d="m 101.25,153.75 c 39.167,-13.333 97.083,-37.917 113.75,-55 l 123.75,35 c -33.75,18.75 -67.5,35 -87.5,63.75 -13.75,-5 -141.25,-38.75 -150,-43.75 z"
       id="path766"
       sodipodi:nodetypes="ccccc"
       transform="translate(8.75,21.25)" />
    <path
       style="fill:#ffffff;fill-opacity:1;fill-rule:evenodd;stroke:#000000;stroke-width:3.75;stroke-linecap:butt;stroke-linejoin:miter;stroke-opacity:1;stroke-dasharray:none"
       d="m 213.75,98.75 60,-77.5 100,25 -35,87.5 -125,-35 z"
       id="path767"
       sodipodi:nodetypes="ccccc"
       transform="translate(8.75,21.25)" />
    <path
       style="fill:none;stroke:#000000;stroke-width:3.75;stroke-linecap:butt;stroke-linejoin:miter;stroke-opacity:1;stroke-dasharray:none"
       d="m 56.25,316.25 196.25,61.25 -1.25,35 -195,-58.75 c -2.5,-1.25 0,-32.5 0,-37.5 z"
       id="path768"
       sodipodi:nodetypes="ccccc"
       transform="translate(8.75,21.25)" />
    <path
       style="fill:none;stroke:#000000;stroke-width:3.75;stroke-linecap:butt;stroke-linejoin:miter;stroke-opacity:1;stroke-dasharray:none"
       d="m 56.25,308.75 c 3.75,1.25 195,62.5 195,60 0,-2.5 1.25,-36.25 1.25,-37.5 l -195,-58.75 -1.25,36.25 z"
       id="path769"
       sodipodi:nodetypes="ccccc"
       transform="translate(8.75,21.25)" />
    <path
       style="fill:none;stroke:#000000;stroke-width:1pt;stroke-linecap:butt;stroke-linejoin:miter;stroke-opacity:1"
       d="m 66.9435,371.499 5.3863,-10.003 1.5389,11.542 0,0.77"
       id="path789" />
    <path
       style="fill:none;stroke:#000000;stroke-width:1pt;stroke-linecap:butt;stroke-linejoin:miter;stroke-opacity:1"
       d="m 69.6665,366.35 c 1.5391,0.769 2.9001,0.946 2.9001,0.946"
       id="path790"
       sodipodi:nodetypes="cc" />
    <path
       style="fill:none;stroke:#000000;stroke-width:1pt;stroke-linecap:butt;stroke-linejoin:miter;stroke-opacity:1"
       d="m 79.7286,361.97 -3.6695,6.451 3.6695,0.475 -0.0589,5.681"
       id="path791"
       sodipodi:nodetypes="cccc" />
    <path
       style="fill:none;stroke:#000000;stroke-width:1pt;stroke-linecap:butt;stroke-linejoin:miter;stroke-opacity:1"
       d="m 70.1393,318.111 -0.8874,8.759 3.0779,1.065"
       id="path792"
       sodipodi:nodetypes="ccc" />
    <path
       style="fill:none;stroke:#000000;stroke-width:1pt;stroke-linecap:butt;stroke-linejoin:miter;stroke-opacity:1"
       d="m 74.6381,319.945 c 0,0 -0.7694,7.695 -0.7694,8.464 0,0.77 4.6168,1.599 4.6168,1.599"
       id="path793"
       sodipodi:nodetypes="ccc" />
    <path
       style="fill:none;stroke:#000000;stroke-width:1pt;stroke-linecap:butt;stroke-linejoin:miter;stroke-opacity:1"
       d="m 74.6381,320.715 5.2867,1.737"
       id="path794"
       sodipodi:nodetypes="cc" />
    <path
       style="fill:none;stroke:#000000;stroke-width:1pt;stroke-linecap:butt;stroke-linejoin:miter;stroke-opacity:1"
       d="m 73.8687,324.86 4.9517,1.539"
       id="path795"
       sodipodi:nodetypes="cc" />
    <path
       style="fill:none;stroke:#000000;stroke-width:1pt;stroke-linecap:butt;stroke-linejoin:miter;stroke-opacity:1"
       d="m 81.2284,323.023 4.655,1.086"
       id="path796"
       sodipodi:nodetypes="cc" />
    <path
       style="fill:none;stroke:#000000;stroke-width:1pt;stroke-linecap:butt;stroke-linejoin:miter;stroke-opacity:1"
       d="m 83.2608,323.812 -0.199,7.556"
       id="path797"
       sodipodi:nodetypes="cc" />
    <path
       style="fill:#000000;fill-opacity:0.25;fill-rule:evenodd;stroke:none"
       d="m 275.316,425.633 c 6.33,-1.582 143.988,-93.355 147.152,-107.595 3.165,-14.241 7.912,-177.215 6.329,-177.215 -1.582,0 20.57,196.202 -153.481,284.81 z"
       id="path567" />
    <path
       style="fill:#ffffff;fill-opacity:0.8;fill-rule:evenodd;stroke:none"
       d="m 68.038,278.481 c 3.1645,-7.911 -1.5823,-68.038 1.5823,-71.203 3.1645,-3.164 158.2277,33.228 158.2277,33.228 0,0 -147.1518,-41.139 -159.81,37.975 z"
       id="path568" />
    <path
       style="fill:#000000;fill-opacity:0.247059;fill-rule:evenodd;stroke:none"
       d="m 223.101,126.582 c 1.583,0 117.089,26.899 104.431,31.646 -12.659,4.747 -63.291,39.557 -63.291,39.557 0,0 98.101,-47.469 -41.14,-71.203 z"
       id="path569" />
  </g>
  <metadata
     id="metadata27">
    <rdf:RDF>
      <cc:Work
         rdf:about="">
        <dc:title>Clipart by Nicu Buculei - antenna</dc:title>
        <dc:rights>
          <cc:Agent>
            <dc:title>Nicu Buculei</dc:title>
          </cc:Agent>
        </dc:rights>
        <dc:type
           rdf:resource="http://purl.org/dc/dcmitype/StillImage" />
        <cc:license
           rdf:resource="http://web.resource.org/cc/PublicDomain" />
        <dc:format>image/svg+xml</dc:format>
      </cc:Work>
      <cc:License
         rdf:about="http://web.resource.org/cc/PublicDomain">
        <cc:permits
           rdf:resource="http://web.resource.org/cc/Reproduction" />
        <cc:permits
           rdf:resource="http://web.resource.org/cc/Distribution" />
        <cc:permits
           rdf:resource="http://web.resource.org/cc/DerivativeWorks" />
      </cc:License>
    </rdf:RDF>
  </metadata>
</svg>
