<?xml version="1.0" encoding="UTF-8" standalone="no"?>
<!-- Created with Sodipodi ("http://www.sodipodi.com/") -->

<svg
   xmlns:dc="http://purl.org/dc/elements/1.1/"
   xmlns:cc="http://creativecommons.org/ns#"
   xmlns:rdf="http://www.w3.org/1999/02/22-rdf-syntax-ns#"
   xmlns:svg="http://www.w3.org/2000/svg"
   xmlns="http://www.w3.org/2000/svg"
   xmlns:sodipodi="http://sodipodi.sourceforge.net/DTD/sodipodi-0.dtd"
   xmlns:inkscape="http://www.inkscape.org/namespaces/inkscape"
   id="svg548"
   sodipodi:version="0.32"
   width="201.42342"
   height="489.38977"
   sodipodi:docname="mobile.svg"
   inkscape:version="0.47pre4 r22446"
   version="1.1">
  <metadata
     id="metadata54" />
  <defs
     id="defs550">
    <inkscape:perspective
       sodipodi:type="inkscape:persp3d"
       inkscape:vp_x="0 : 250 : 1"
       inkscape:vp_y="0 : 1000 : 0"
       inkscape:vp_z="500 : 250 : 1"
       inkscape:persp3d-origin="250 : 166.66667 : 1"
       id="perspective58" />
  </defs>
  <sodipodi:namedview
     id="base"
     showgrid="true"
     inkscape:zoom="0.97263441"
     inkscape:cx="55.26486"
     inkscape:cy="179.10195"
     inkscape:window-width="723"
     inkscape:window-height="591"
     inkscape:window-x="0"
     inkscape:window-y="25"
     inkscape:window-maximized="0"
     inkscape:current-layer="svg548" />
  <g
     id="g922"
     transform="translate(-144.73514,-7.0087549)">
    <path
       style="fill:#4b537b;fill-rule:evenodd;stroke:#000000;stroke-width:9.64156532;stroke-linejoin:round;stroke-dasharray:none"
       d="m 159.81,75.9493 c 8.702,-2.3734 21.361,-2.3733 45.095,-3.1645 23.734,-1.5823 119.462,-2.3735 128.165,2.3734 10.285,3.1645 8.702,291.1388 6.329,322.7858 -2.374,31.645 -3.956,46.676 -4.747,49.05 -59.072,3.955 -116.561,4.746 -177.216,-0.001 -4.747,-26.107 -15.822,-326.74 2.374,-371.0437 z"
       id="path551"
       sodipodi:nodetypes="ccccccc"
       transform="matrix(1,0,0,1.075734,0,7.034819)" />
    <path
       style="fill:#807f7f;fill-rule:evenodd;stroke:#000000;stroke-width:9.64156532;stroke-linejoin:round;stroke-dasharray:none"
       d="m 174.177,107.595 c 15.032,-0.791 113.007,0 136.741,0 6.329,15.032 15.823,105.222 11.867,118.671 -13.053,0.923 -30.127,11.481 -39.05,2.027 -13.783,-15.394 -62.636,-16.449 -78.892,-0.395 -9.552,8.969 -25.452,-1.368 -38.704,-2.423 0,-43.249 1.709,-78.587 8.038,-117.88 z"
       id="path552"
       sodipodi:nodetypes="cccsscc"
       transform="matrix(1,0,0,1.075734,0,7.034819)" />
    <path
       style="fill:#80a47f;fill-rule:evenodd;stroke:#000000;stroke-width:9.64156532;stroke-linejoin:round;stroke-dasharray:none"
       d="m 184.335,124.209 c -3.956,3.956 -3.165,81.488 0,83.861 4.483,2.637 111.815,4.483 117.88,0.791 5.274,-2.901 4.22,-76.213 0,-83.07 -5.802,-3.955 -110.496,-3.164 -117.88,-1.582 z"
       id="path553"
       sodipodi:nodetypes="ccccc"
       transform="matrix(1,0,0,1.075734,0,7.034819)" />
    <path
       style="fill:#807f7f;fill-rule:evenodd;stroke:#000000;stroke-width:6.82565022"
       d="m 174.051,271.36 c 3.956,-3.955 40.348,-3.163 43.512,-0.79 3.956,5.538 2.373,30.854 0,32.436 -2.637,3.165 -40.084,3.165 -43.513,0 -2.373,-5.802 -1.581,-28.217 10e-4,-31.646 z"
       id="path554"
       sodipodi:nodetypes="ccccc"
       transform="matrix(1,0,0,0.83844,-8.702545,87.65814)" />
    <path
       style="fill:#807f7f;fill-rule:evenodd;stroke:#000000;stroke-width:6.82565022"
       d="m 174.051,271.36 c 3.956,-3.955 40.348,-3.163 43.512,-0.79 3.956,5.538 2.373,30.854 0,32.436 -2.637,3.165 -40.084,3.165 -43.513,0 -2.373,-5.802 -1.581,-28.217 10e-4,-31.646 z"
       id="path555"
       sodipodi:nodetypes="ccccc"
       transform="matrix(1,0,0,0.83844,48.25948,87.65814)" />
    <path
       style="fill:#807f7f;fill-rule:evenodd;stroke:#000000;stroke-width:6.82565022"
       d="m 174.051,271.36 c 3.956,-3.955 40.348,-3.163 43.512,-0.79 3.956,5.538 2.373,30.854 0,32.436 -2.637,3.165 -40.084,3.165 -43.513,0 -2.373,-5.802 -1.581,-28.217 10e-4,-31.646 z"
       id="path556"
       sodipodi:nodetypes="ccccc"
       transform="matrix(1,0,0,0.83844,105.2215,88.3214)" />
    <path
       style="fill:#807f7f;fill-rule:evenodd;stroke:#000000;stroke-width:6.82565022"
       d="m 174.051,271.36 c 3.956,-3.955 40.348,-3.163 43.512,-0.79 3.956,5.538 2.373,30.854 0,32.436 -2.637,3.165 -40.084,3.165 -43.513,0 -2.373,-5.802 -1.581,-28.217 10e-4,-31.646 z"
       id="path557"
       sodipodi:nodetypes="ccccc"
       transform="matrix(1,0,0,0.83844,-7.911396,133.4273)" />
    <path
       style="fill:#807f7f;fill-rule:evenodd;stroke:#000000;stroke-width:6.82565022"
       d="m 174.051,271.36 c 3.956,-3.955 40.348,-3.163 43.512,-0.79 3.956,5.538 2.373,30.854 0,32.436 -2.637,3.165 -40.084,3.165 -43.513,0 -2.373,-5.802 -1.581,-28.217 10e-4,-31.646 z"
       id="path558"
       sodipodi:nodetypes="ccccc"
       transform="matrix(1,0,0,0.83844,49.05063,133.4273)" />
    <path
       style="fill:#807f7f;fill-rule:evenodd;stroke:#000000;stroke-width:6.82565022"
       d="m 174.051,271.36 c 3.956,-3.955 40.348,-3.163 43.512,-0.79 3.956,5.538 2.373,30.854 0,32.436 -2.637,3.165 -40.084,3.165 -43.513,0 -2.373,-5.802 -1.581,-28.217 10e-4,-31.646 z"
       id="path559"
       sodipodi:nodetypes="ccccc"
       transform="matrix(1,0,0,0.83844,106.0126,134.0906)" />
    <path
       style="fill:#807f7f;fill-rule:evenodd;stroke:#000000;stroke-width:6.82565022"
       d="m 174.051,271.36 c 3.956,-3.955 40.348,-3.163 43.512,-0.79 3.956,5.538 2.373,30.854 0,32.436 -2.637,3.165 -40.084,3.165 -43.513,0 -2.373,-5.802 -1.581,-28.217 10e-4,-31.646 z"
       id="path560"
       sodipodi:nodetypes="ccccc"
       transform="matrix(1,0,0,0.83844,-8.702545,178.5333)" />
    <path
       style="fill:#807f7f;fill-rule:evenodd;stroke:#000000;stroke-width:6.82565022"
       d="m 174.051,271.36 c 3.956,-3.955 40.348,-3.163 43.512,-0.79 3.956,5.538 2.373,30.854 0,32.436 -2.637,3.165 -40.084,3.165 -43.513,0 -2.373,-5.802 -1.581,-28.217 10e-4,-31.646 z"
       id="path561"
       sodipodi:nodetypes="ccccc"
       transform="matrix(1,0,0,0.83844,48.25948,178.5333)" />
    <path
       style="fill:#807f7f;fill-rule:evenodd;stroke:#000000;stroke-width:6.82565022"
       d="m 174.051,271.36 c 3.956,-3.955 40.348,-3.163 43.512,-0.79 3.956,5.538 2.373,30.854 0,32.436 -2.637,3.165 -40.084,3.165 -43.513,0 -2.373,-5.802 -1.581,-28.217 10e-4,-31.646 z"
       id="path562"
       sodipodi:nodetypes="ccccc"
       transform="matrix(1,0,0,0.83844,105.2215,179.1966)" />
    <path
       style="fill:#807f7f;fill-rule:evenodd;stroke:#000000;stroke-width:6.02597857;stroke-linejoin:round"
       d="m 206.092,234.572 c 6.725,-12.262 24.921,-15.426 36.787,-14.635 15.032,0 27.691,0.791 34.415,9.493 4.747,28.481 0,41.535 -9.098,43.513 -7.911,3.956 -42.722,5.143 -47.864,1.977 -10.68,-2.373 -16.218,-13.449 -14.24,-40.348 z"
       id="path563"
       sodipodi:nodetypes="cccccc"
       transform="matrix(1,0,0,1.075734,0,7.034819)" />
    <path
       style="fill:#807f7f;fill-rule:evenodd;stroke:#000000;stroke-width:6.02597857"
       d="m 285.206,265.427 c -0.791,-6.725 4.351,-13.054 12.263,-20.174 7.911,-7.12 15.822,-13.054 22.151,-13.449 6.33,-0.396 16.615,7.911 16.615,13.053 0,6.725 -3.561,10.285 -10.682,18.988 -12.262,13.845 -18.987,16.219 -23.734,15.427 -5.933,-1.187 -16.217,-7.911 -16.613,-13.845 z"
       id="path564"
       sodipodi:nodetypes="ccccccc"
       transform="matrix(1,0,0,1.075734,0,7.034819)" />
    <path
       style="fill:#807f7f;fill-rule:evenodd;stroke:#000000;stroke-width:6.02597857;stroke-linejoin:round"
       d="m 285.206,265.427 c -0.791,-6.725 4.351,-13.054 12.263,-20.174 7.911,-7.12 15.822,-13.054 22.151,-13.449 6.33,-0.396 16.615,7.911 16.615,13.053 0,6.725 -3.561,10.285 -10.682,18.988 -12.262,13.845 -18.987,16.219 -23.734,15.427 -5.933,-1.187 -16.217,-7.911 -16.613,-13.845 z"
       id="path565"
       sodipodi:nodetypes="ccccccc"
       transform="matrix(0,-1.075734,1,0,-75.06083,615.3497)" />
    <path
       style="fill:#4b537b;fill-rule:evenodd;stroke:#000000;stroke-width:9.64156532;stroke-linejoin:round;stroke-dasharray:none"
       d="m 288.611,69.956 33.743,1.4359 c 0,0 -0.719,-28.7175 -1.436,-45.2301 0.718,-15.7946 -3.59,-21.53804 -4.308,-21.53804 -0.718,0 -22.256,0 -22.256,0 0,0 -3.59,7.17944 -3.59,17.94834 -1.435,22.9741 -2.153,47.3839 -2.153,47.3839 z"
       id="path566"
       sodipodi:nodetypes="ccccccc"
       transform="matrix(1,0,0,1.075734,0,7.034819)" />
    <path
       style="fill:#626a7b;fill-rule:evenodd;stroke:#000000;stroke-width:9.64156532;stroke-linejoin:round;stroke-dasharray:none"
       d="m 274.97,70.6739 c 0,0 54.563,2.1539 54.563,3.5897 0,1.4359 5.026,-2.8717 0,-10.0511 -7.179,-5.0256 -36.614,-7.8973 -48.819,-3.5897 -6.462,7.8973 -5.744,11.487 -5.744,10.0511 z"
       id="path567"
       sodipodi:nodetypes="ccccc"
       transform="matrix(1,0,0,1.075734,0,7.034819)" />
    <path
       style="fill:none;stroke:#000000;stroke-width:3.75"
       d="m 197.5,147.5 76.25,0"
       id="path568"
       transform="translate(0,7.385008)" />
    <path
       style="fill:none;stroke:#000000;stroke-width:3.75"
       d="m 201.25,215 37.5,0 -37.5,0 z"
       id="path569"
       transform="translate(0,7.385008)" />
    <path
       style="fill:none;stroke:#000000;stroke-width:3.75"
       d="m 261.25,213.75 23.75,0"
       id="path570"
       transform="translate(0,7.385008)" />
    <path
       style="fill:#00ff00;fill-rule:evenodd;stroke-width:1pt"
       d="m 223.75,262.5 c 0,0 32.314,0 33.564,0 1.25,0 0.904,11.25 0.186,11.25 l -33.564,0 -0.186,-11.25 z"
       id="path571"
       sodipodi:nodetypes="ccccc"
       transform="translate(0,7.385008)" />
    <path
       style="fill:none;stroke:#000000;stroke-width:3.75"
       d="m 324.507,258.055 c 0,0 -13.64,3.59 -13.64,4.308 0,0.718 11.487,9.333 11.487,9.333 l 2.153,-13.641 z"
       id="path572"
       transform="translate(0,7.385008)" />
    <path
       style="fill:none;stroke:#000000;stroke-width:3.75"
       d="m 297.226,289.645 c 0,-0.718 0,-12.205 0,-12.205 l 14.359,10.051 -14.359,2.154 z"
       id="path573"
       transform="translate(0,7.385008)" />
    <path
       style="fill:none;stroke:#000000;stroke-width:3.75"
       d="m 178.048,262.363 -7.179,7.897 11.487,10.051 6.461,-7.897 0,0"
       id="path574"
       transform="translate(0,7.385008)" />
    <path
       style="fill:none;stroke:#000000;stroke-width:4.24764013"
       d="m 179.484,320.516 7.897,-5.026 0,17.949"
       id="path575"
       transform="matrix(1,0,0,0.779412,0,75.32793)" />
    <path
       style="fill:none;stroke:#000000;stroke-width:4.24764013"
       d="m 233.329,316.208 2.154,-4.307 c 0,0 15.795,0 15.077,0 -0.718,0 -15.077,19.384 -15.077,19.384 l 15.795,-0.718"
       id="path576"
       transform="matrix(1,0,0,0.779412,0,75.32793)" />
    <path
       style="fill:none;stroke:#000000;stroke-width:4.24764013"
       d="m 293.636,314.772 16.513,0 -7.898,7.18 8.616,2.871 0,10.769 c 0,0 -5.026,2.872 -5.744,2.872 -0.718,0 -12.923,-0.718 -12.923,-0.718"
       id="path577"
       transform="matrix(1,0,0,0.779412,0,75.32793)" />
    <path
       style="fill:none;stroke:#000000;stroke-width:4.24764013"
       d="m 189.535,372.925 c 0,0 -10.769,13.641 -11.487,13.641 -0.718,0 12.205,0 12.205,0 0,0 0.718,7.897 0,7.897 -0.718,0 -0.718,-21.538 -0.718,-21.538 z"
       id="path578"
       transform="matrix(1,0,0,0.779412,0,75.32793)" />
    <path
       style="fill:none;stroke:#000000;stroke-width:4.24764013"
       d="m 252.714,372.925 -13.641,0.718 c 0,0 -0.718,7.18 0,7.18 0.718,0 15.077,1.435 15.077,1.435 0,0 0.717,10.052 0,10.052 -0.718,0 -13.641,0.717 -13.641,0.717"
       id="path579"
       transform="matrix(1,0,0,0.779412,0,75.32793)" />
    <path
       style="fill:none;stroke:#000000;stroke-width:4.24764013"
       d="m 308.713,375.079 -12.205,0 0,15.795 15.077,0 0,-7.898 -15.077,-0.718"
       id="path580"
       transform="matrix(1,0,0,0.779412,0,75.32793)" />
    <path
       style="fill:#807f7f;fill-rule:evenodd;stroke:#000000;stroke-width:6.82565022"
       d="m 174.051,271.36 c 3.956,-3.955 40.348,-3.163 43.512,-0.79 3.956,5.538 2.373,30.854 0,32.436 -2.637,3.165 -40.084,3.165 -43.513,0 -2.373,-5.802 -1.581,-28.217 10e-4,-31.646 z"
       id="path581"
       sodipodi:nodetypes="ccccc"
       transform="matrix(1,0,0,0.83844,-8.702545,222.6576)" />
    <path
       style="fill:#807f7f;fill-rule:evenodd;stroke:#000000;stroke-width:6.82565022"
       d="m 174.051,271.36 c 3.956,-3.955 40.348,-3.163 43.512,-0.79 3.956,5.538 2.373,30.854 0,32.436 -2.637,3.165 -40.084,3.165 -43.513,0 -2.373,-5.802 -1.581,-28.217 10e-4,-31.646 z"
       id="path582"
       sodipodi:nodetypes="ccccc"
       transform="matrix(1,0,0,0.83844,48.25948,222.6576)" />
    <path
       style="fill:#807f7f;fill-rule:evenodd;stroke:#000000;stroke-width:6.82565022"
       d="m 174.051,271.36 c 3.956,-3.955 40.348,-3.163 43.512,-0.79 3.956,5.538 2.373,30.854 0,32.436 -2.637,3.165 -40.084,3.165 -43.513,0 -2.373,-5.802 -1.581,-28.217 10e-4,-31.646 z"
       id="path583"
       sodipodi:nodetypes="ccccc"
       transform="matrix(1,0,0,0.83844,105.2215,223.3209)" />
    <path
       style="fill:none;stroke:#000000;stroke-width:3.75"
       d="m 178.048,403.796 13.641,0 -0.718,17.949"
       id="path584"
       transform="translate(0,7.385008)" />
    <path
       style="fill:none;stroke:#000000;stroke-width:3.75"
       d="m 233.329,403.796 16.513,0.718 0,9.334 -15.795,-0.718 -0.718,-9.334 z"
       id="path585"
       sodipodi:nodetypes="ccccc"
       transform="translate(0,7.385008)" />
    <path
       style="fill:none;stroke:#000000;stroke-width:3.75"
       d="m 234.047,413.13 0,8.615 16.513,0 -0.718,-7.897"
       id="path586"
       sodipodi:nodetypes="cccc"
       transform="translate(0,7.385008)" />
    <path
       style="fill:none;stroke:#000000;stroke-width:3.75"
       d="m 307.995,421.027 c 0,-0.718 0,-16.513 0,-16.513 l -18.667,0 c 0,0 -0.717,8.616 0,8.616 0.718,0 18.667,0.718 18.667,0.718"
       id="path587"
       transform="translate(0,7.385008)" />
    <path
       style="fill:none;stroke:#000000;stroke-width:3.75"
       d="m 308.713,421.745 -15.077,0"
       id="path588"
       transform="translate(0,7.385008)" />
    <path
       style="fill:none;stroke:#000000;stroke-width:3.75"
       d="m 236.201,445.437 16.513,0.718 0,17.23 -17.231,0.718 0.718,-18.666 z"
       id="path589"
       sodipodi:nodetypes="ccccc"
       transform="translate(0,7.385008)" />
    <path
       style="fill:none;stroke:#000000;stroke-width:3.75"
       d="m 295.072,449.026 0,16.513 0.718,0"
       id="path590"
       transform="translate(0,7.385008)" />
    <path
       style="fill:none;stroke:#000000;stroke-width:3.75"
       d="m 306.559,449.744 0,16.513"
       id="path591"
       transform="translate(0,7.385008)" />
    <path
       style="fill:none;stroke:#000000;stroke-width:3.75"
       d="m 290.046,453.334 c 0.718,0 21.6042,2.4799 21.6042,2.4799"
       id="path592"
       transform="translate(0,7.385008)"
       sodipodi:nodetypes="cc" />
    <path
       style="fill:none;stroke:#000000;stroke-width:3.75"
       d="m 288.611,461.231 22.256,1.436"
       id="path593"
       transform="translate(0,7.385008)" />
    <path
       style="fill:none;stroke:#000000;stroke-width:3.75"
       d="m 175.894,451.898 18.667,10.769 c 0,0 0,0.718 -0.718,0.718"
       id="path594"
       transform="translate(0,7.385008)" />
    <path
       style="fill:none;stroke:#000000;stroke-width:3.75"
       d="M 177.33,463.385 193.125,451.18"
       id="path595"
       transform="translate(0,7.385008)" />
    <path
       style="fill:none;stroke:#000000;stroke-width:3.75"
       d="m 176.612,456.924 17.231,0"
       id="path596"
       transform="translate(0,7.385008)" />
    <path
       style="fill:#ffffff;fill-opacity:0.5;fill-rule:evenodd;stroke-width:1pt"
       d="m 191.04592,203.90901 c -1.5823,-7.9114 -4.7468,-37.9747 1.5823,-61.7088 11.076,-1.5823 77.5317,0 90.1899,1.5822 -12.6582,0 -90.1899,12.6584 -91.7722,60.1266 z"
       id="path658"
       sodipodi:nodetypes="cccc"
       transform="translate(0,3.635008)" />
    <path
       style="fill:#ffffff;fill-opacity:0.5;fill-rule:evenodd;stroke-width:1pt"
       d="m 156.58706,186.30362 c 0,-10.4391 2.0878,-94.996207 10.4392,-97.084067 4.1757,-1.04393 82.4692,-3.13179 110.6549,-2.08786 -114.8306,9.39526 -114.8306,-13.57086 -121.0941,99.171927 z"
       id="path659"
       sodipodi:nodetypes="cccc"
       transform="translate(0,3.635008)" />
  </g>
  <metadata
     id="metadata56">
    <rdf:RDF>
      <cc:Work
         rdf:about="">
        <dc:title>Clipart by Nicu Buculei - book_01</dc:title>
        <dc:rights>
          <cc:Agent>
            <dc:title>Nicu Buculei</dc:title>
          </cc:Agent>
        </dc:rights>
        <dc:type
           rdf:resource="http://purl.org/dc/dcmitype/StillImage" />
        <cc:license
           rdf:resource="http://web.resource.org/cc/PublicDomain" />
        <dc:format>image/svg+xml</dc:format>
      </cc:Work>
      <cc:License
         rdf:about="http://web.resource.org/cc/PublicDomain">
        <cc:permits
           rdf:resource="http://web.resource.org/cc/Reproduction" />
        <cc:permits
           rdf:resource="http://web.resource.org/cc/Distribution" />
        <cc:permits
           rdf:resource="http://web.resource.org/cc/DerivativeWorks" />
      </cc:License>
    </rdf:RDF>
  </metadata>
</svg>
