<?xml version="1.0" encoding="UTF-8" standalone="no"?>
<!-- Created with Sodipodi ("http://www.sodipodi.com/") -->

<svg
   xmlns:dc="http://purl.org/dc/elements/1.1/"
   xmlns:cc="http://creativecommons.org/ns#"
   xmlns:rdf="http://www.w3.org/1999/02/22-rdf-syntax-ns#"
   xmlns:svg="http://www.w3.org/2000/svg"
   xmlns="http://www.w3.org/2000/svg"
   xmlns:xlink="http://www.w3.org/1999/xlink"
   xmlns:sodipodi="http://sodipodi.sourceforge.net/DTD/sodipodi-0.dtd"
   xmlns:inkscape="http://www.inkscape.org/namespaces/inkscape"
   id="svg548"
   sodipodi:version="0.32"
   width="389.59848"
   height="448.95328"
   sodipodi:docname="monitor.svg"
   version="1.1"
   inkscape:version="0.47pre4 r22446">
  <metadata
     id="metadata25" />
  <defs
     id="defs550">
    <inkscape:perspective
       sodipodi:type="inkscape:persp3d"
       inkscape:vp_x="0 : 250 : 1"
       inkscape:vp_y="0 : 1000 : 0"
       inkscape:vp_z="500 : 250 : 1"
       inkscape:persp3d-origin="250 : 166.66667 : 1"
       id="perspective29" />
    <linearGradient
       id="linearGradient611">
      <stop
         style="stop-color:#544742;stop-opacity:1;"
         offset="0.000000"
         id="stop612" />
      <stop
         style="stop-color:#f5ffff;stop-opacity:1;"
         offset="1.000000"
         id="stop613" />
    </linearGradient>
    <linearGradient
       xlink:href="#linearGradient611"
       id="linearGradient614"
       x1="198.34598"
       y1="207.96185"
       x2="-69.953317"
       y2="-63.515413"
       gradientUnits="userSpaceOnUse"
       spreadMethod="reflect"
       gradientTransform="scale(1.062218,0.94142638)" />
  </defs>
  <sodipodi:namedview
     id="base"
     showgrid="true"
     inkscape:zoom="0.472"
     inkscape:cx="203.1414"
     inkscape:cy="208.22922"
     inkscape:window-width="607"
     inkscape:window-height="489"
     inkscape:window-x="1307"
     inkscape:window-y="660"
     inkscape:window-maximized="0"
     inkscape:current-layer="svg548" />
  <g
     id="g818"
     transform="translate(-46.8586,-9.27593)">
    <g
       id="g801">
      <path
         style="font-size:12px;fill:#b3b3b3;fill-rule:evenodd;stroke:#000000;stroke-width:1pt"
         d="m 119.557,425.383 0,12.719 316.275,-93.272 0.848,-15.262 -317.123,95.815 z"
         id="path607"
         transform="translate(-0.847921,19.50222)"
         sodipodi:nodetypes="ccccc" />
      <g
         id="g798">
        <path
           style="font-size:12px;fill:#cccccc;fill-rule:evenodd;stroke:#000000;stroke-width:1pt"
           d="m 166.193,347.374 -46.636,78.857 317.123,-96.663 -91.576,-31.374 -178.911,49.18 z"
           id="path606"
           transform="translate(-0.847921,19.50222)"
           sodipodi:nodetypes="ccccc" />
        <path
           style="fill:#cccccc;fill-opacity:1;fill-rule:evenodd;stroke:#000000;stroke-width:1pt;stroke-linecap:butt;stroke-linejoin:miter;stroke-opacity:1"
           d="m 139.059,335.503 c 0,0 -11.871,18.654 -6.784,33.917 4.24,18.655 17.807,22.894 21.199,22.894 3.392,0 223.703,-57.43 223.703,-57.43 0,0 6.083,-12.1 9.475,-31.602 -6.783,-23.742 -19.502,-26.286 -33.917,-26.286 -23.742,-13.566 0.849,0 0.849,0 l -214.525,58.507 z"
           id="path605"
           sodipodi:nodetypes="cccccccc"
           transform="matrix(0.708121,0,0,0.825311,71.30738,59.20586)" />
      </g>
    </g>
    <g
       id="g811">
      <path
         style="fill:#b3b3b3;fill-opacity:1;fill-rule:evenodd;stroke:#000000;stroke-width:1pt;stroke-linecap:butt;stroke-linejoin:miter;stroke-opacity:1"
         d="m 420.57,16.6844 c 0,0.8479 -21.199,-5.0876 -43.245,-6.78347 C 367.15,10.7489 66.1379,65.8638 63.5942,65.8638 c 4.2396,-0.8479 -9.3272,0 -12.7189,7.6313 -3.3917,7.6313 -3.3917,269.6389 -3.3917,269.6389 0,0 10e-5,7.632 5.0876,13.567 7.6313,3.392 27.9814,4.24 20.3501,4.24 L 420.57,16.6844 z"
         id="path602"
         sodipodi:nodetypes="cccccccc" />
      <g
         id="g806">
        <path
           style="fill:#cccccc;fill-opacity:1;fill-rule:evenodd;stroke:#000000;stroke-width:1pt;stroke-linecap:butt;stroke-linejoin:miter;stroke-opacity:1"
           d="M 71.2332,108.009 418.873,40.4261 c 5.088,3.3917 10.176,0.848 12.72,11.0231 2.544,10.1749 -0.848,253.5288 -0.848,253.5288 0,0 1.695,7.631 -4.24,11.871 -5.936,4.239 -346.8351,100.055 -346.8351,100.055 0,0 -10.1753,4.239 -16.1106,-4.24 -8.479,-2.543 -3.3568,-288.294 -3.3568,-288.294 0,0 0.8246,-13.65 11.0307,-16.361 z"
           id="path600"
           sodipodi:nodetypes="ccccccccc"
           transform="matrix(0.995445,0,0,0.910163,2.817975,-20.11005)" />
        <g
           id="g795">
          <path
             style="fill:url(#linearGradient614);fill-opacity:1;fill-rule:evenodd;stroke:#000000;stroke-width:1pt;stroke-linecap:butt;stroke-linejoin:miter;stroke-opacity:1"
             d="M 89.0318,98.0844 394.284,38.7303 c 0,0 7.631,-2.5438 13.567,6.7834 5.935,9.3271 4.239,13.5667 4.239,13.5667 l 0,175.5196 c -0.848,9.327 0.848,5.935 -4.239,16.111 -10.176,3.391 -302.709,83.096 -302.709,83.096 0,0 0,1.696 -10.1747,0 -10.1751,-1.696 -13.5668,-17.806 -13.5668,-18.654 0,-0.848 -3.3917,-199.262 -3.3917,-199.262 0,0 1.696,-14.415 11.023,-17.8066 z"
             id="path603"
             sodipodi:nodetypes="ccccccccccc" />
          <path
             style="fill:#00feb3;fill-opacity:1;fill-rule:evenodd;stroke:#000000;stroke-width:1pt;stroke-linecap:butt;stroke-linejoin:miter;stroke-opacity:1"
             d="m 368.846,266.821 29.677,-8.479 0,13.567 c 0,0 -29.677,7.631 -29.677,8.479 0,0.848 0,-13.567 0,-13.567 z"
             id="path604"
             sodipodi:nodetypes="ccccc" />
        </g>
      </g>
    </g>
  </g>
  <path
     style="fill:#ffffff;fill-opacity:0.5;fill-rule:evenodd;stroke:none"
     d="m 41.749,291.35707 c 0,0 -9.4937,-170.886 -1.5823,-196.202 15.8227,-7.9121 234.1777,-42.7221 234.1777,-42.7221 0,0 -235.7596,17.4051 -232.5954,238.9241 z"
     id="path568"
     sodipodi:nodetypes="cccc" />
  <path
     style="fill:#ffffff;fill-opacity:0.49803904;fill-rule:evenodd;stroke:none"
     d="m 301.2424,318.25607 c 0,0 66.456,12.658 60.127,20.569 -6.329,7.912 -137.658,45.886 -137.658,45.886 0,0 161.392,-49.05 77.531,-66.455 z"
     id="path569" />
  <path
     style="fill:#ffffff;fill-opacity:0.49803904;fill-rule:evenodd;stroke:none"
     d="m 128.7744,329.33207 c -4.747,7.911 -15.823,14.24 0,39.557 14.241,-1.583 15.822,-34.81 0,-39.557 z"
     id="path570"
     sodipodi:nodetypes="ccc" />
  <metadata
     id="metadata27">
    <rdf:RDF>
      <cc:Work
         rdf:about="">
        <dc:title>Clipart by Nicu Buculei - antenna</dc:title>
        <dc:rights>
          <cc:Agent>
            <dc:title>Nicu Buculei</dc:title>
          </cc:Agent>
        </dc:rights>
        <dc:type
           rdf:resource="http://purl.org/dc/dcmitype/StillImage" />
        <cc:license
           rdf:resource="http://web.resource.org/cc/PublicDomain" />
        <dc:format>image/svg+xml</dc:format>
      </cc:Work>
      <cc:License
         rdf:about="http://web.resource.org/cc/PublicDomain">
        <cc:permits
           rdf:resource="http://web.resource.org/cc/Reproduction" />
        <cc:permits
           rdf:resource="http://web.resource.org/cc/Distribution" />
        <cc:permits
           rdf:resource="http://web.resource.org/cc/DerivativeWorks" />
      </cc:License>
    </rdf:RDF>
  </metadata>
</svg>
