<?xml version="1.0" encoding="UTF-8" standalone="no"?>
<!-- Created with Sodipodi ("http://www.sodipodi.com/") -->

<svg
   xmlns:dc="http://purl.org/dc/elements/1.1/"
   xmlns:cc="http://creativecommons.org/ns#"
   xmlns:rdf="http://www.w3.org/1999/02/22-rdf-syntax-ns#"
   xmlns:svg="http://www.w3.org/2000/svg"
   xmlns="http://www.w3.org/2000/svg"
   xmlns:xlink="http://www.w3.org/1999/xlink"
   xmlns:sodipodi="http://sodipodi.sourceforge.net/DTD/sodipodi-0.dtd"
   xmlns:inkscape="http://www.inkscape.org/namespaces/inkscape"
   id="svg548"
   sodipodi:version="0.32"
   width="413.70367"
   height="344.00937"
   sodipodi:docname="mouse.svg"
   version="1.1"
   inkscape:version="0.47pre4 r22446">
  <metadata
     id="metadata19" />
  <defs
     id="defs550">
    <inkscape:perspective
       sodipodi:type="inkscape:persp3d"
       inkscape:vp_x="0 : 250 : 1"
       inkscape:vp_y="0 : 1000 : 0"
       inkscape:vp_z="500 : 250 : 1"
       inkscape:persp3d-origin="250 : 166.66667 : 1"
       id="perspective23" />
    <linearGradient
       id="linearGradient1164">
      <stop
         style="stop-color:#263d42;stop-opacity:1;"
         offset="0.000000"
         id="stop1165" />
      <stop
         style="stop-color:#9acde7;stop-opacity:1;"
         offset="1.000000"
         id="stop1166" />
    </linearGradient>
    <linearGradient
       xlink:href="#linearGradient1164"
       id="linearGradient1167"
       x1="0.47572812"
       y1="0.60155678"
       x2="-0.13106795"
       y2="-0.1250001"
       gradientUnits="objectBoundingBox"
       spreadMethod="reflect" />
  </defs>
  <sodipodi:namedview
     id="base"
     showgrid="true"
     inkscape:zoom="0.472"
     inkscape:cx="192.44935"
     inkscape:cy="180.6512"
     inkscape:window-width="607"
     inkscape:window-height="489"
     inkscape:window-x="1307"
     inkscape:window-y="660"
     inkscape:window-maximized="0"
     inkscape:current-layer="svg548" />
  <path
     style="fill:#f2f2f3;fill-opacity:1;fill-rule:evenodd;stroke:#000000;stroke-width:3.75;stroke-linecap:butt;stroke-linejoin:miter;stroke-opacity:1;stroke-dasharray:none"
     d="m 2.4493542,270.85816 c 8.7499998,28.75 63.7499998,72.5 123.7499958,71.25 60,-1.25 233.75,-160 258.75,-196.25 25,-36.25 19.378,-69.308002 22.25,-87.526002 0,-17.5 -127.25,-59.9739996 -161,-56.2239996 -33.75,3.75 -151.249996,69.9999996 -177.499996,102.5000016 -26.25,32.5 -72.4999998,67.5 -66.2499998,166.25 z"
     id="path1496"
     sodipodi:nodetypes="ccccccc" />
  <path
     style="fill:#cccccc;fill-opacity:1;fill-rule:evenodd;stroke:#000000;stroke-width:3.75;stroke-linecap:butt;stroke-linejoin:miter;stroke-opacity:1;stroke-dasharray:none"
     d="m 172.44935,32.108158 c 2.5,3.75 77.5,36.25 77.5,36.25 l 81.649,-48.737 c -46.156,-13.6462996 -72.886,-20.8506996 -93.337,-16.2759996 -15.374,2.5389 -67.062,30.0129996 -65.812,28.7629996 z"
     id="path1498"
     sodipodi:nodetypes="ccccc" />
  <path
     style="fill:#cccccc;fill-opacity:1;fill-rule:evenodd;stroke:#000000;stroke-width:3.75;stroke-linecap:butt;stroke-linejoin:miter;stroke-opacity:1;stroke-dasharray:none"
     d="m 256.19935,74.608158 87.5,-50 c 0,0 55,15 60,25 5,10 13.75,15 -16.25,36.25 -30,21.250002 -46.25,30.000002 -46.25,30.000002 l -85,-41.250002 z"
     id="path1499"
     sodipodi:nodetypes="cccccc" />
  <path
     style="fill:#cccccc;fill-opacity:1;fill-rule:evenodd;stroke:#000000;stroke-width:3.75;stroke-linecap:butt;stroke-linejoin:miter;stroke-opacity:1;stroke-dasharray:none"
     d="m 409.72535,62.467158 c 0,0 -3.526,10.891 -8.526,14.641 -5,3.75 -43.75,31.250002 -50,37.500002 -6.25,6.25 -41.25,27.5 -57.5,60 -48.75,82.5 -81.25,93.75 -131.25,130 -6.25,7.5 -8.75,11.25 -12.5,31.25 5,0 46.25,-23.75 52.5,-28.75 33.75,-21.25 116.25,-91.25 137.5,-112.5 72.5,-68.75 76.026,-122.141002 69.776,-132.141002 z"
     id="path1500"
     sodipodi:nodetypes="ccccccccc" />
  <path
     style="fill:none;stroke:#000000;stroke-width:3.75;stroke-linecap:butt;stroke-linejoin:miter;stroke-opacity:1;stroke-dasharray:none"
     d="m 394.15935,42.792158 c 5.684,2.368 4.935,2.421 7.435,4.106 4.395,11.381 13.276,1.763 -12.421,29.907 -17.646,14.409 -45.474,30.303002 -45.474,30.303002 l 0,0 0,0"
     id="path1501"
     sodipodi:nodetypes="cccccc" />
  <path
     style="fill:none;stroke:#000000;stroke-width:3.75;stroke-linecap:butt;stroke-linejoin:miter;stroke-opacity:1;stroke-dasharray:none"
     d="m 165.57435,45.858158 53.125,28.75 -9.375,4.375 c 0,0 -21.25,-11.25 -20,-11.25 1.25,0 5,-2.5 5,-2.5 l -16.25,-9.375 -5,3.125 -13.125,-8.75 5.625,-4.375 z"
     id="path1502"
     sodipodi:nodetypes="ccccccccc" />
  <path
     style="fill:#ffffff;fill-opacity:0.9;fill-rule:evenodd;stroke:none"
     d="m 6.2232542,265.67116 c 0,-2.238 1.1188,-67.13 12.3071998,-61.536 11.1884,5.594 102.932896,62.655 101.814896,62.655 -1.119,0 -110.7655958,-71.606 -114.1220958,-1.119 z"
     id="path561" />
  <path
     style="fill:#ffffff;fill-opacity:0.90196102;fill-rule:evenodd;stroke:none"
     d="m 109.15635,84.419158 c -30.207996,1.118 -89.506996,88.388002 -88.388196,98.458002 2.2377,16.783 90.626196,69.368 90.626196,69.368 -33.564996,-30.209 -74.962396,-98.458 -2.238,-167.826002 z"
     id="path562"
     sodipodi:nodetypes="cccc" />
  <path
     style="fill:#000000;fill-opacity:0.25;fill-rule:evenodd;stroke:none"
     d="m 404.53035,83.300158 c 0,7.832 -8.951,72.725002 -137.618,165.588002 85.032,-83.913 98.459,-101.814 137.618,-165.588002 z"
     id="path563"
     sodipodi:nodetypes="ccc" />
  <path
     style="fill:#000000;fill-opacity:0.247059;fill-rule:evenodd;stroke:none"
     d="m 346.35035,29.596158 c 0,0 45.873,15.664 46.991,22.377 1.119,6.713 -45.872,44.753 -45.872,44.753 0,0 60.417,-44.753 -1.119,-67.13 z"
     id="path564" />
  <metadata
     id="metadata21">
    <rdf:RDF>
      <cc:Work
         rdf:about="">
        <dc:title>Clipart by Nicu Buculei - antenna</dc:title>
        <dc:rights>
          <cc:Agent>
            <dc:title>Nicu Buculei</dc:title>
          </cc:Agent>
        </dc:rights>
        <dc:type
           rdf:resource="http://purl.org/dc/dcmitype/StillImage" />
        <cc:license
           rdf:resource="http://web.resource.org/cc/PublicDomain" />
        <dc:format>image/svg+xml</dc:format>
      </cc:Work>
      <cc:License
         rdf:about="http://web.resource.org/cc/PublicDomain">
        <cc:permits
           rdf:resource="http://web.resource.org/cc/Reproduction" />
        <cc:permits
           rdf:resource="http://web.resource.org/cc/Distribution" />
        <cc:permits
           rdf:resource="http://web.resource.org/cc/DerivativeWorks" />
      </cc:License>
    </rdf:RDF>
  </metadata>
</svg>
