<?xml version="1.0" encoding="UTF-8" standalone="no"?>
<!-- Created with Sodipodi ("http://www.sodipodi.com/") -->

<svg
   xmlns:dc="http://purl.org/dc/elements/1.1/"
   xmlns:cc="http://creativecommons.org/ns#"
   xmlns:rdf="http://www.w3.org/1999/02/22-rdf-syntax-ns#"
   xmlns:svg="http://www.w3.org/2000/svg"
   xmlns="http://www.w3.org/2000/svg"
   xmlns:sodipodi="http://sodipodi.sourceforge.net/DTD/sodipodi-0.dtd"
   xmlns:inkscape="http://www.inkscape.org/namespaces/inkscape"
   id="svg548"
   sodipodi:version="0.32"
   width="463.9158"
   height="376.66092"
   sodipodi:docname="phone.svg"
   inkscape:version="0.47pre4 r22446"
   version="1.1">
  <metadata
     id="metadata47" />
  <defs
     id="defs550">
    <inkscape:perspective
       sodipodi:type="inkscape:persp3d"
       inkscape:vp_x="0 : 250 : 1"
       inkscape:vp_y="0 : 1000 : 0"
       inkscape:vp_z="500 : 250 : 1"
       inkscape:persp3d-origin="250 : 166.66667 : 1"
       id="perspective51" />
  </defs>
  <sodipodi:namedview
     id="base"
     showgrid="true"
     inkscape:zoom="1.2833988"
     inkscape:cx="192.66582"
     inkscape:cy="142.91091"
     inkscape:window-width="867"
     inkscape:window-height="757"
     inkscape:window-x="0"
     inkscape:window-y="25"
     inkscape:window-maximized="0"
     inkscape:current-layer="svg548" />
  <g
     id="g908"
     transform="translate(-7.3341837,-66.25)">
    <path
       style="fill:#e6e6e6;fill-rule:evenodd;stroke:#000000;stroke-width:10;stroke-linejoin:round;stroke-dasharray:none"
       d="M 127.5,91.25 C 390,92.5 461.25,92.5 461.25,92.5 l -88.75,296.25 -338.75,0 93.75,-297.5 z"
       id="path646"
       sodipodi:nodetypes="ccccc"
       transform="translate(1.25,-18.75)" />
    <path
       style="fill:#a6a6a6;fill-rule:evenodd;stroke:#000000;stroke-width:3.75"
       d="m 301.25,111.25 140,1.25 -15,48.75 c 0,0 -142.5,2.5 -142.5,1.25 0,-1.25 20,-51.25 17.5,-51.25 z"
       id="path653"
       sodipodi:nodetypes="ccccc"
       transform="translate(3.75,-22.5)" />
    <path
       style="fill:#a6a6a6;fill-rule:evenodd;stroke:#000000;stroke-width:10;stroke-linejoin:round;stroke-dasharray:none"
       d="m 32.5,388.75 c 0,0 -1.25,37.5 0,37.5 1.25,0 340,1.25 340,1.25 l 0,-38.75 -340,0 z"
       id="path647"
       transform="translate(3.75,-22.5)" />
    <path
       style="fill:#a6a6a6;fill-rule:evenodd;stroke:#000000;stroke-width:10;stroke-linejoin:round;stroke-dasharray:none"
       d="m 461.25,93.75 1.25,116.25 -18.75,60 -2.5,-33.75 C 415,298.75 395,341.25 373.75,427.5 l -1.25,-38.75 88.75,-295 z"
       id="path649"
       sodipodi:nodetypes="ccccccc"
       transform="translate(3.75,-22.5)" />
    <path
       style="fill:none;stroke:#000000;stroke-width:10;stroke-linejoin:round;stroke-dasharray:none"
       d="M 141.25,108.75 235,110 c -20,13.75 -76.25,222.5 -71.25,233.75 3.75,1.25 -101.25,2.5 -100,1.25 19.5833,-86.25 42.917,-163.75 77.5,-236.25 z"
       id="path651"
       sodipodi:nodetypes="ccccc"
       transform="translate(3.75,-22.5)" />
    <path
       style="fill:#a6a6a6;fill-rule:evenodd;stroke:#000000;stroke-width:10;stroke-linejoin:round;stroke-dasharray:none"
       d="m 62.5,345 0,33.75 108.75,0 13.75,-37.5 -3.75,-28.75 C 190.833,256.667 202.917,212.083 225,171.25 l 5,27.5 16.25,-45 L 232.5,110 c -35.833,77.083 -52.917,146.667 -70,235 l -100,0 z"
       id="path652"
       sodipodi:nodetypes="ccccccccccc"
       transform="translate(3.75,-22.5)" />
    <path
       style="fill:#a6c9a6;fill-rule:evenodd;stroke:#000000;stroke-width:3.75"
       d="m 305,115 c 2.5,0 127.5,1.25 127.5,1.25 l -11.25,40 c 0,0 -131.25,2.5 -131.25,1.25 0,-1.25 17.5,-42.5 15,-42.5 z"
       id="path654"
       sodipodi:nodetypes="ccccc"
       transform="translate(3.75,-22.5)" />
    <path
       style="font-size:12px;fill:#f3f3f3;fill-rule:evenodd;stroke:#000000;stroke-width:7.17374039"
       d="m 407.5,190 -10,33.75 -43.75,1.25 20,-36.25 33.75,1.25 z"
       id="path655"
       sodipodi:nodetypes="ccccc"
       transform="matrix(0.971168,-0.05141652,0.04126357,0.779397,21.04753,19.74728)" />
    <path
       style="font-size:12px;fill:#f3f3f3;fill-rule:evenodd;stroke:#000000;stroke-width:7.17374039"
       d="m 353.75,225 0,10 46.25,0 15,-33.75 -6.25,-11.25 -13.75,35 -41.25,0 z"
       id="path656"
       transform="matrix(0.971168,-0.05141652,0.04126357,0.779397,21.04753,19.74728)" />
    <path
       style="font-size:12px;fill:#f3f3f3;fill-rule:evenodd;stroke:#000000;stroke-width:7.17374039"
       d="m 407.5,190 -10,33.75 -43.75,1.25 20,-36.25 33.75,1.25 z"
       id="path658"
       sodipodi:nodetypes="ccccc"
       transform="matrix(0.971168,-0.05141652,0.04126357,0.779397,-34.8462,21.72947)" />
    <path
       style="font-size:12px;fill:#f3f3f3;fill-rule:evenodd;stroke:#000000;stroke-width:7.17374039"
       d="m 353.75,225 0,10 46.25,0 15,-33.75 -6.25,-11.25 -13.75,35 -41.25,0 z"
       id="path659"
       transform="matrix(0.971168,-0.05141652,0.04126357,0.779397,-34.8462,21.72947)" />
    <path
       style="font-size:12px;fill:#f3f3f3;fill-rule:evenodd;stroke:#000000;stroke-width:7.17374039"
       d="m 407.5,190 -10,33.75 -43.75,1.25 20,-36.25 33.75,1.25 z"
       id="path660"
       sodipodi:nodetypes="ccccc"
       transform="matrix(0.971168,-0.05141652,0.04126357,0.779397,-89.52597,23.64738)" />
    <path
       style="font-size:12px;fill:#f3f3f3;fill-rule:evenodd;stroke:#000000;stroke-width:7.17374039"
       d="m 353.75,225 0,10 46.25,0 15,-33.75 -6.25,-11.25 -13.75,35 -41.25,0 z"
       id="path661"
       transform="matrix(0.971168,-0.05141652,0.04126357,0.779397,-89.52597,23.64738)" />
    <path
       style="font-size:12px;fill:#f3f3f3;fill-rule:evenodd;stroke:#000000;stroke-width:7.17374039"
       d="m 407.5,190 -10,33.75 -43.75,1.25 20,-36.25 33.75,1.25 z"
       id="path662"
       sodipodi:nodetypes="ccccc"
       transform="matrix(0.971168,-0.05141652,0.04126357,0.779397,2.705172,61.10531)" />
    <path
       style="font-size:12px;fill:#f3f3f3;fill-rule:evenodd;stroke:#000000;stroke-width:7.17374039"
       d="m 353.75,225 0,10 46.25,0 15,-33.75 -6.25,-11.25 -13.75,35 -41.25,0 z"
       id="path663"
       transform="matrix(0.971168,-0.05141652,0.04126357,0.779397,2.705172,61.10531)" />
    <path
       style="font-size:12px;fill:#f3f3f3;fill-rule:evenodd;stroke:#000000;stroke-width:7.17374039"
       d="m 407.5,190 -10,33.75 -43.75,1.25 20,-36.25 33.75,1.25 z"
       id="path664"
       sodipodi:nodetypes="ccccc"
       transform="matrix(0.971168,-0.05141652,0.04126357,0.779397,-53.18856,63.0875)" />
    <path
       style="font-size:12px;fill:#f3f3f3;fill-rule:evenodd;stroke:#000000;stroke-width:7.17374039"
       d="m 353.75,225 0,10 46.25,0 15,-33.75 -6.25,-11.25 -13.75,35 -41.25,0 z"
       id="path665"
       transform="matrix(0.971168,-0.05141652,0.04126357,0.779397,-53.18856,63.0875)" />
    <path
       style="font-size:12px;fill:#f3f3f3;fill-rule:evenodd;stroke:#000000;stroke-width:7.17374039"
       d="m 407.5,190 -10,33.75 -43.75,1.25 20,-36.25 33.75,1.25 z"
       id="path666"
       sodipodi:nodetypes="ccccc"
       transform="matrix(0.971168,-0.05141652,0.04126357,0.779397,-107.8683,65.00542)" />
    <path
       style="font-size:12px;fill:#f3f3f3;fill-rule:evenodd;stroke:#000000;stroke-width:7.17374039"
       d="m 353.75,225 0,10 46.25,0 15,-33.75 -6.25,-11.25 -13.75,35 -41.25,0 z"
       id="path667"
       transform="matrix(0.971168,-0.05141652,0.04126357,0.779397,-107.8683,65.00542)" />
    <path
       style="font-size:12px;fill:#f3f3f3;fill-rule:evenodd;stroke:#000000;stroke-width:7.17374039"
       d="m 407.5,190 -10,33.75 -43.75,1.25 20,-36.25 33.75,1.25 z"
       id="path668"
       sodipodi:nodetypes="ccccc"
       transform="matrix(0.971168,-0.05141652,0.04126357,0.779397,-14.3561,104.2833)" />
    <path
       style="font-size:12px;fill:#f3f3f3;fill-rule:evenodd;stroke:#000000;stroke-width:7.17374039"
       d="m 353.75,225 0,10 46.25,0 15,-33.75 -6.25,-11.25 -13.75,35 -41.25,0 z"
       id="path669"
       transform="matrix(0.971168,-0.05141652,0.04126357,0.779397,-14.3561,104.2833)" />
    <path
       style="font-size:12px;fill:#f3f3f3;fill-rule:evenodd;stroke:#000000;stroke-width:7.17374039"
       d="m 407.5,190 -10,33.75 -43.75,1.25 20,-36.25 33.75,1.25 z"
       id="path670"
       sodipodi:nodetypes="ccccc"
       transform="matrix(0.971168,-0.05141652,0.04126357,0.779397,-70.24985,106.2654)" />
    <path
       style="font-size:12px;fill:#f3f3f3;fill-rule:evenodd;stroke:#000000;stroke-width:7.17374039"
       d="m 353.75,225 0,10 46.25,0 15,-33.75 -6.25,-11.25 -13.75,35 -41.25,0 z"
       id="path671"
       transform="matrix(0.971168,-0.05141652,0.04126357,0.779397,-70.24985,106.2654)" />
    <path
       style="font-size:12px;fill:#f3f3f3;fill-rule:evenodd;stroke:#000000;stroke-width:7.17374039"
       d="m 407.5,190 -10,33.75 -43.75,1.25 20,-36.25 33.75,1.25 z"
       id="path672"
       sodipodi:nodetypes="ccccc"
       transform="matrix(0.971168,-0.05141652,0.04126357,0.779397,-124.9296,108.1834)" />
    <path
       style="font-size:12px;fill:#f3f3f3;fill-rule:evenodd;stroke:#000000;stroke-width:7.17374039"
       d="m 353.75,225 0,10 46.25,0 15,-33.75 -6.25,-11.25 -13.75,35 -41.25,0 z"
       id="path673"
       transform="matrix(0.971168,-0.05141652,0.04126357,0.779397,-124.9296,108.1834)" />
    <path
       style="font-size:12px;fill:#f3f3f3;fill-rule:evenodd;stroke:#000000;stroke-width:7.17374039"
       d="m 407.5,190 -10,33.75 -43.75,1.25 20,-36.25 33.75,1.25 z"
       id="path679"
       sodipodi:nodetypes="ccccc"
       transform="matrix(0.971168,-0.05141652,0.04126357,0.779397,-32.07247,148.1117)" />
    <path
       style="font-size:12px;fill:#f3f3f3;fill-rule:evenodd;stroke:#000000;stroke-width:7.17374039"
       d="m 353.75,225 0,10 46.25,0 15,-33.75 -6.25,-11.25 -13.75,35 -41.25,0 z"
       id="path680"
       transform="matrix(0.971168,-0.05141652,0.04126357,0.779397,-32.07247,148.1117)" />
    <path
       style="font-size:12px;fill:#f3f3f3;fill-rule:evenodd;stroke:#000000;stroke-width:7.17374039"
       d="m 407.5,190 -10,33.75 -43.75,1.25 20,-36.25 33.75,1.25 z"
       id="path681"
       sodipodi:nodetypes="ccccc"
       transform="matrix(0.971168,-0.05141652,0.04126357,0.779397,-87.9662,150.0938)" />
    <path
       style="font-size:12px;fill:#f3f3f3;fill-rule:evenodd;stroke:#000000;stroke-width:7.17374039"
       d="m 353.75,225 0,10 46.25,0 15,-33.75 -6.25,-11.25 -13.75,35 -41.25,0 z"
       id="path682"
       transform="matrix(0.971168,-0.05141652,0.04126357,0.779397,-87.9662,150.0938)" />
    <path
       style="font-size:12px;fill:#f3f3f3;fill-rule:evenodd;stroke:#000000;stroke-width:7.17374039"
       d="m 407.5,190 -10,33.75 -43.75,1.25 20,-36.25 33.75,1.25 z"
       id="path683"
       sodipodi:nodetypes="ccccc"
       transform="matrix(0.971168,-0.05141652,0.04126357,0.779397,-142.646,152.0118)" />
    <path
       style="font-size:12px;fill:#f3f3f3;fill-rule:evenodd;stroke:#000000;stroke-width:7.17374039"
       d="m 353.75,225 0,10 46.25,0 15,-33.75 -6.25,-11.25 -13.75,35 -41.25,0 z"
       id="path684"
       transform="matrix(0.971168,-0.05141652,0.04126357,0.779397,-142.646,152.0118)" />
    <path
       style="fill:none;stroke:#000000;stroke-width:6.25"
       d="m 202.5,352.5 c 162.5,0 162.5,0 162.5,0"
       id="path734"
       transform="translate(3.75,-22.5)" />
    <path
       style="fill:none;stroke:#000000;stroke-width:6.25"
       d="m 198.75,365 155,0"
       id="path735"
       transform="translate(3.75,-22.5)" />
    <path
       style="fill:none;stroke:#000000;stroke-width:6.25"
       d="m 193.75,375 c 3.75,0 148.75,1.25 148.75,1.25"
       id="path736"
       transform="translate(3.75,-22.5)" />
    <path
       style="fill:#030000;fill-rule:evenodd;stroke:#000000;stroke-width:1pt"
       d="m 86.25,353.75 36.25,-1.25 0,20 -13.75,8.75 -35,0 12.5,-27.5 z"
       id="path738"
       transform="translate(3.75,-22.5)" />
    <path
       style="fill:#030000;fill-rule:evenodd;stroke:#000000;stroke-width:1pt"
       d="m 103.75,378.75 c 0,0 -1.25,31.25 -17.5,67.5 -13.75,5 -18.75,13.75 -33.75,17.5 -18.75,2.5 -35,1.25 -40,-12.5 -6.25,-15 -11.25,-20 -6.25,-45 5,-25 6.25,-40 22.5,-62.5 17.5,-22.5 25,-28.75 25,-28.75 0,0 -11.25,32.5 -11.25,33.75 0,1.25 -5,12.5 -10,20 -5,7.5 -10,15 -11.25,26.25 -1.25,11.25 -2.5,10 -1.25,22.5 1.25,12.5 -1.25,26.25 8.75,27.5 10,1.25 15,3.75 25,0 10,-5 23.75,-12.5 26.25,-30 2.5,-17.5 3.75,-35 3.75,-37.5 0,-2.5 20,1.25 20,1.25 z"
       id="path740"
       sodipodi:nodetypes="cccccccccccccccc"
       transform="translate(3.75,-22.5)" />
    <path
       style="fill:#ffffff;fill-opacity:0.49803898;fill-rule:evenodd;stroke-width:1pt"
       d="m 78.8946,296.433 c -0.974,-0.974 57.4664,-199.6718 74.0244,-202.5938 16.558,-2.922 38.96,0.973881 47.726,4.869881 C 182.139,106.50088 137.335,139.618 78.8946,296.433 z"
       id="path674"
       sodipodi:nodetypes="cccc" />
    <path
       style="fill-opacity:0.24999994;fill-rule:evenodd;stroke-width:1pt"
       d="m 131.491,399.677 c 0,0 224.995,4.87 237.657,-1.948 1.949,-13.636 5.845,-23.376 0,-27.272 -13.636,9.74 -43.83,21.428 -237.657,29.22 z"
       id="path675"
       sodipodi:nodetypes="cccc" />
    <path
       style="fill-opacity:0.247059;fill-rule:evenodd;stroke-width:6.25"
       d="m 423.693,228.252 c 1.948,-8.766 34.09,-128.5691 36.038,-122.725 3.896,5.844 1.948,60.389 1.948,80.843 -8.766,-6.818 7.792,-91.5568 -37.986,41.882 z"
       id="path676"
       sodipodi:nodetypes="cccc" />
    <path
       style="fill-opacity:0.247059;fill-rule:evenodd;stroke-width:6.25"
       d="m 209.411,166.89 c 0,0 19.481,-61.363 25.325,-62.337 5.844,-0.974 9.74,27.272 9.74,27.272 0,0 -5.844,-23.376 -35.065,35.065 z"
       id="path677"
       sodipodi:nodetypes="cccc" />
    <path
       style="fill-opacity:0.247059;fill-rule:evenodd;stroke-width:1pt"
       d="m 179.217,283.771 c -2.922,15.584 -9.74,30.194 -7.792,42.856 1.948,12.662 4.87,14.61 4.87,14.61 3.896,-9.74 0.974,-33.116 2.922,-57.466 z"
       id="path678"
       sodipodi:nodetypes="cccc" />
  </g>
  <metadata
     id="metadata49">
    <rdf:RDF>
      <cc:Work
         rdf:about="">
        <dc:title>Clipart by Nicu Buculei - book_01</dc:title>
        <dc:rights>
          <cc:Agent>
            <dc:title>Nicu Buculei</dc:title>
          </cc:Agent>
        </dc:rights>
        <dc:type
           rdf:resource="http://purl.org/dc/dcmitype/StillImage" />
        <cc:license
           rdf:resource="http://web.resource.org/cc/PublicDomain" />
        <dc:format>image/svg+xml</dc:format>
      </cc:Work>
      <cc:License
         rdf:about="http://web.resource.org/cc/PublicDomain">
        <cc:permits
           rdf:resource="http://web.resource.org/cc/Reproduction" />
        <cc:permits
           rdf:resource="http://web.resource.org/cc/Distribution" />
        <cc:permits
           rdf:resource="http://web.resource.org/cc/DerivativeWorks" />
      </cc:License>
    </rdf:RDF>
  </metadata>
</svg>
