<?xml version="1.0" encoding="UTF-8" standalone="no"?>
<!DOCTYPE svg PUBLIC "-//W3C//DTD SVG 1.0//EN"
"http://www.w3.org/TR/2001/REC-SVG-20010904/DTD/svg10.dtd">
<!-- Created with Inkscape (http://www.inkscape.org/) -->
<svg
   id="svg1"
   sodipodi:version="0.32"
   inkscape:version="0.38.1"
   xmlns="http://www.w3.org/2000/svg"
   xmlns:sodipodi="http://sodipodi.sourceforge.net/DTD/sodipodi-0.dtd"
   xmlns:inkscape="http://www.inkscape.org/namespaces/inkscape"
   xmlns:xlink="http://www.w3.org/1999/xlink"
   width="80.000000pt"
   height="80.000000pt"
   sodipodi:docbase="/home/nicu/Desktop/candy"
   sodipodi:docname="candy_10.svg">
  <defs
     id="defs3" />
  <sodipodi:namedview
     id="base"
     pagecolor="#ffffff"
     bordercolor="#666666"
     borderopacity="1.0"
     inkscape:pageopacity="0.0"
     inkscape:pageshadow="2"
     inkscape:zoom="6.4980192"
     inkscape:cx="42.214835"
     inkscape:cy="35.901904"
     inkscape:window-width="682"
     inkscape:window-height="712"
     inkscape:window-x="451"
     inkscape:window-y="60" />
  <path
     style="fill:#ffffff;fill-rule:evenodd;stroke:#ff0066;stroke-opacity:1.0000000;stroke-width:1.2500000;stroke-linejoin:round;stroke-linecap:butt;fill-opacity:1.0000000;stroke-dasharray:none;"
     d="M 55.406250,1.4062500 C 51.252768,1.6704218 47.423155,3.0321232 44.218750,5.2187500 C 37.809941,9.5920035 33.730522,16.645327 31.562500,24.125000 C 32.836754,28.322311 37.188868,30.018859 41.156250,26.906250 C 42.835556,21.112647 46.060703,16.050231 49.843750,13.468750 C 53.587163,10.914314 57.739414,10.122455 64.062500,13.062500 C 65.176238,13.693969 65.777897,14.487701 66.250000,16.468750 C 66.733716,18.498533 66.750366,21.609749 66.156250,25.343750 C 64.968018,32.811752 61.473611,42.594131 57.250000,52.125000 C 48.802778,71.186738 37.210154,90.044758 37.000000,90.375000 C 36.734639,95.052161 41.470802,97.613293 45.437500,95.750000 C 46.573910,93.964213 57.592202,76.077006 66.406250,56.187500 C 70.813274,46.242747 74.589202,36.000732 76.031250,26.937500 C 76.752274,22.405884 76.917362,18.136839 75.968750,14.156250 C 75.020138,10.175661 72.625168,6.3222428 68.781250,4.2187500 L 68.656250,4.1562500 L 68.531250,4.0937500 C 64.035513,1.9624044 59.559732,1.1420782 55.406250,1.4062500 z "
     id="path864"
     sodipodi:nodetypes="cccccccccccccccccc" />
  <path
     style="fill:none;fill-rule:evenodd;stroke:#ff0066;stroke-opacity:1.0000000;stroke-width:1pt;stroke-linejoin:miter;stroke-linecap:butt;fill-opacity:0.75;"
     d="M 31.932810,24.179131 C 34.433572,20.524171 40.781660,22.640201 41.358759,26.487526"
     id="path866"
     sodipodi:nodetypes="cc" />
  <path
     style="fill:#ff0066;fill-rule:evenodd;stroke:none;stroke-opacity:1;stroke-width:1pt;stroke-linejoin:miter;stroke-linecap:butt;fill-opacity:1.0000000;"
     d="M 36.741965,90.189319 C 42.897687,87.688557 46.167915,92.305348 45.590816,94.998477 C 45.975549,97.499239 54.439666,79.993903 54.439666,79.993903 C 51.361805,79.609171 45.206083,79.416805 41.551123,82.494666 C 39.242727,84.995428 36.741965,90.189319 36.741965,90.189319 z "
     id="path867"
     sodipodi:nodetypes="ccccc" />
  <path
     style="fill:#ff0066;fill-rule:evenodd;stroke:none;stroke-opacity:1;stroke-width:1pt;stroke-linejoin:miter;stroke-linecap:butt;fill-opacity:1.0000000;"
     d="M 47.706846,70.567954 C 52.323638,68.067192 58.671726,67.682459 60.980122,68.067192 C 61.172488,68.644291 66.751111,55.755748 66.751111,55.755748 C 62.839663,55.563381 58.928214,54.986282 55.016766,57.487044 L 47.706846,70.567954 z "
     id="path868"
     sodipodi:nodetypes="ccccc" />
  <path
     style="fill:#ff0066;fill-rule:evenodd;stroke:none;stroke-opacity:1;stroke-width:1pt;stroke-linejoin:miter;stroke-linecap:butt;fill-opacity:1.0000000;"
     d="M 60.018290,45.560333 C 63.801494,43.444303 67.969431,43.829036 71.945002,43.251937 L 75.215229,31.517592 C 71.688513,31.132859 67.777065,31.517592 64.057983,33.825988 L 60.018290,45.560333 z "
     id="path870"
     sodipodi:nodetypes="ccccc" />
  <path
     style="fill:#ff0066;fill-rule:evenodd;stroke:none;stroke-opacity:1;stroke-width:1pt;stroke-linejoin:miter;stroke-linecap:butt;fill-opacity:1.0000000;"
     d="M 66.558745,22.476375 C 69.572484,17.923706 72.586223,14.525234 75.599962,14.012257 C 74.381642,9.7801982 71.624391,5.3557731 66.174012,3.0473774 C 63.224395,5.4840173 61.621343,8.8824888 61.941953,12.088594 C 66.174012,14.396990 67.135844,18.436682 66.558745,22.476375 z "
     id="path871"
     sodipodi:nodetypes="ccccc" />
  <path
     style="fill:#ff0066;fill-rule:evenodd;stroke:none;stroke-opacity:1;stroke-width:1pt;stroke-linejoin:miter;stroke-linecap:butt;fill-opacity:1.0000000;"
     d="M 54.632033,11.126763 C 51.041195,9.3954659 46.873259,7.0870702 45.398451,4.2015754 C 40.653415,7.4076808 38.601507,10.421420 35.203035,14.396990 C 38.088530,16.961875 42.320589,17.025996 45.206084,18.051950 C 48.155701,14.012257 49.181654,13.050426 54.632033,11.126763 z "
     id="path873"
     sodipodi:nodetypes="ccccc" />
  <path
     style="fill:#ffffff;fill-rule:evenodd;stroke:none;stroke-opacity:1;stroke-width:1pt;stroke-linejoin:miter;stroke-linecap:butt;fill-opacity:0.50000000;"
     d="M 38.280896,87.496190 C 48.668677,74.992379 69.828972,25.938969 66.558745,18.436682 C 66.558745,16.320654 66.943477,16.320653 68.674774,16.513019 C 72.522100,29.016830 43.474787,86.919091 41.935857,87.688556 C 40.396926,88.458021 38.280896,87.496190 38.280896,87.496190 z "
     id="path875"
     sodipodi:nodetypes="ccccc" />
  <path
     style="fill:#ffffff;fill-rule:evenodd;stroke:none;stroke-opacity:1;stroke-width:1pt;stroke-linejoin:miter;stroke-linecap:butt;fill-opacity:0.50000000;"
     d="M 33.664105,20.745078 C 33.856471,12.858059 46.360282,2.4702785 53.862568,2.4702785 C 56.363330,2.4702785 54.439667,3.0473774 54.439667,3.0473774 C 42.897688,5.9328721 36.357233,15.935921 35.780135,20.360346 C 35.972501,21.129811 33.664105,20.745078 33.664105,20.745078 z "
     id="path876"
     sodipodi:nodetypes="ccccc" />

  <metadata>
    <rdf:RDF 
     xmlns="http://web.resource.org/cc/"
     xmlns:dc="http://purl.org/dc/elements/1.1/"
     xmlns:rdf="http://www.w3.org/1999/02/22-rdf-syntax-ns#">
      <Work rdf:about="">
        <dc:title>Candy</dc:title>
	<dc:description></dc:description>
        <dc:subject>
          <rdf:Bag>
            <rdf:li>unsorted</rdf:li>
          </rdf:Bag>
        </dc:subject>
        <dc:publisher>
           <Agent rdf:about="http://www.openclipart.org">
             <dc:title>HASH(0x88b272c)</dc:title>
           </Agent>
         </dc:publisher>
         <dc:creator>
           <Agent rdf:about="">
             <dc:title>Nicu Buculei</dc:title>
           </Agent>
        </dc:creator>
         <dc:rights>
           <Agent rdf:about="">
             <dc:title>Nicu Buculei</dc:title>
           </Agent>
        </dc:rights>
        <dc:date></dc:date>
        <dc:format>image/svg+xml</dc:format>
        <dc:type rdf:resource="http://purl.org/dc/dcmitype/StillImage" />
        <license rdf:resource="http://web.resource.org/cc/PublicDomain">
	  <dc:date></dc:date>
	</license>
        <dc:language>en</dc:language>
      </Work>

      <License rdf:about="http://web.resource.org/cc/PublicDomain">
         <permits rdf:resource="http://web.resource.org/cc/Reproduction" />
         <permits rdf:resource="http://web.resource.org/cc/Distribution" />
         <permits rdf:resource="http://web.resource.org/cc/DerivativeWorks" />
      </License>


    </rdf:RDF>
  </metadata>
</svg>
