<?xml version="1.0" encoding="UTF-8" standalone="no"?>
<!-- Created with Inkscape (http://www.inkscape.org/) -->
<svg
   xmlns:dc="http://purl.org/dc/elements/1.1/"
   xmlns:cc="http://creativecommons.org/ns#"
   xmlns:rdf="http://www.w3.org/1999/02/22-rdf-syntax-ns#"
   xmlns:svg="http://www.w3.org/2000/svg"
   xmlns="http://www.w3.org/2000/svg"
   xmlns:sodipodi="http://sodipodi.sourceforge.net/DTD/sodipodi-0.dtd"
   xmlns:inkscape="http://www.inkscape.org/namespaces/inkscape"
   version="1.0"
   width="300"
   height="208.4425"
   id="svg2"
   sodipodi:version="0.32"
   inkscape:version="0.46"
   sodipodi:docname="elfhat.svg"
   sodipodi:docbase="/Users/johnolsen/Desktop"
   inkscape:output_extension="org.inkscape.output.svg.inkscape">
  <metadata
     id="metadata16">
    <rdf:RDF>
      <cc:Work
         rdf:about="">
        <dc:format>image/svg+xml</dc:format>
        <dc:type
           rdf:resource="http://purl.org/dc/dcmitype/StillImage" />
      </cc:Work>
    </rdf:RDF>
  </metadata>
  <sodipodi:namedview
     inkscape:window-height="825"
     inkscape:window-width="1440"
     inkscape:pageshadow="2"
     inkscape:pageopacity="0.0"
     guidetolerance="10.0"
     gridtolerance="10.0"
     objecttolerance="10.0"
     borderopacity="1.0"
     bordercolor="#666666"
     pagecolor="#ffffff"
     id="base"
     inkscape:zoom="0.74879164"
     inkscape:cx="372.04724"
     inkscape:cy="262.26766"
     inkscape:window-x="0"
     inkscape:window-y="25"
     inkscape:current-layer="svg2"
     showgrid="false" />
  <defs
     id="defs4" />
  <g
     id="g2400">
    <path
       d="M 164.60601,3.2145367 C 144.06643,8.8675353 123.013,20.109583 108.20255,30.994658 C 93.392108,41.879727 54.705128,69.30737 45.87273,77.99861 C 37.309155,86.425318 27.193777,89.364722 22.767409,99.748389 C 21.060375,103.75285 34.342881,115.83267 36.945672,117.08681 C 43.700416,120.34151 54.71061,114.57039 59.734618,114.22573 C 76.03964,113.10718 92.748596,110.93748 109.26277,122.1145 C 106.20709,125.19941 111.05941,121.87822 104.81309,148.93491 C 102.61041,158.47606 97.797079,183.22952 103.71147,187.95231 C 109.58773,192.64463 113.17662,174.35274 119.01493,177.15327 C 119.01201,177.15763 119.0137,177.16867 119.01161,177.17258 C 119.01034,177.1761 119.00876,177.18882 119.0083,177.1919 C 119.00864,177.19457 119.00383,177.20895 119.00497,177.21121 C 119.00694,177.21307 119.02039,177.21328 119.02315,177.21474 C 119.04091,177.22003 119.0799,177.2174 119.11728,177.21305 C 119.12826,177.21833 119.1426,177.2148 119.15361,177.2201 C 119.19488,177.23994 119.23248,177.26333 119.27413,177.28339 L 119.30887,177.19036 C 122.0728,176.47604 143.62166,166.98231 163.29351,170.79984 C 174.38276,172.95181 192.0698,166.91891 202.24486,163.77179 C 218.38091,158.78097 241.03373,154.27084 255.404,154.01333 C 265.99012,153.82363 275.5683,147.8304 285.75271,147.13173 C 291.76125,146.71953 286.18996,127.34835 286.06577,125.30204 C 285.4689,115.4673 273.22691,100.35512 266.92193,86.925451 C 260.61695,73.495774 250.05048,56.447812 238.4128,43.079697 C 226.77512,29.71158 211.07476,12.401496 200.02044,7.0750676 C 188.96612,1.7486396 186.89788,-2.9207404 164.60601,3.2145367 z"
       style="fill:#008000;fill-opacity:1;fill-rule:evenodd;stroke:#000000;stroke-width:0.60922754000000001px;stroke-linecap:butt;stroke-linejoin:miter;stroke-opacity:1"
       id="path1309" />
    <path
       d="M 115.52597,50.403715 C 102.19911,53.631939 90.785717,96.226821 74.360662,103.63146 C 63.617932,108.47444 34.342881,115.83267 36.945672,117.08681 C 43.700416,120.34151 54.71061,114.57039 59.734618,114.22573 C 76.03964,113.10718 92.748596,110.93748 109.26277,122.1145 C 106.20709,125.19941 111.05941,121.87822 104.81309,148.93491 C 102.61041,158.47606 97.797079,183.22952 103.71147,187.95231 C 109.58773,192.64463 113.17662,174.35274 119.01493,177.15327 C 119.01201,177.15763 119.0137,177.16867 119.01161,177.17258 C 119.01034,177.1761 119.00876,177.18882 119.0083,177.1919 C 119.00864,177.19457 119.00383,177.20895 119.00497,177.21121 C 119.00694,177.21307 119.02039,177.21328 119.02315,177.21474 C 119.04091,177.22003 119.0799,177.2174 119.11728,177.21305 C 119.12826,177.21833 119.1426,177.2148 119.15361,177.2201 C 119.19488,177.23994 119.23248,177.26333 119.27413,177.28339 L 119.30887,177.19036 C 122.0728,176.47604 143.62166,166.98231 163.29351,170.79984 C 174.38276,172.95181 192.0698,166.91891 202.24486,163.77179 C 218.38091,158.78097 241.03373,154.27084 255.404,154.01333 C 265.99012,153.82363 275.5683,147.8304 285.75271,147.13173 C 291.76125,146.71953 248.41286,150.436 265.68891,137.9397 C 273.35295,132.39608 188.95292,149.49402 156.55062,112.52028 C 124.46613,75.909177 129.17335,47.09786 115.52597,50.403715 z"
       style="opacity:0.101124;fill:#0e0000;fill-opacity:1;fill-rule:evenodd;stroke:none;stroke-width:1px;stroke-linecap:butt;stroke-linejoin:miter;stroke-opacity:1"
       id="path5882" />
    <path
       d="M 24.135786,95.201412 C 26.731247,96.92122 44.161809,118.96906 46.22103,117.42592 C 46.469974,114.99128 44.437081,114.03288 43.007067,113.75489 C 44.921826,111.32143 45.282783,108.77684 41.959988,108.55822 C 38.27595,107.90772 34.254128,107.45135 38.208495,103.48852 C 40.034246,101.26743 38.085738,97.323071 36.964654,95.31676 C 34.019354,93.725976 31.799906,90.847591 30.592668,88.890954"
       style="opacity:0.26966301;fill:#000000;fill-opacity:1;fill-rule:evenodd;stroke:#000000;stroke-width:0.60679054;stroke-linecap:butt;stroke-linejoin:miter;stroke-miterlimit:4;stroke-dasharray:none;stroke-opacity:1"
       id="path5878" />
    <path
       d="M 260.71937,142.67844 C 255.27303,140.74688 248.43887,138.51595 243.6232,138.81375 C 240.31574,136.01978 237.77705,139.46272 234.91134,140.37909 C 234.43041,134.99964 226.4978,142.65397 223.0035,142.69796 C 220.52234,144.12205 222.23251,138.45816 217.78938,140.61254 C 212.26533,141.13442 208.84833,141.51396 204.75047,143.28811 C 203.76615,149.14491 194.92014,152.4442 193.59612,146.02494 C 188.77303,148.12374 179.8043,152.19486 179.7462,145.55594 C 172.02441,151.54516 171.77881,156.95727 164.24036,159.84783 C 164.90741,154.66393 147.88897,151.87481 145.56914,157.31536 C 140.89876,159.1961 146.54066,150.50237 139.79146,152.89152 C 132.18932,150.68129 136.61407,166.00051 121.11352,159.7374 C 112.48291,159.45977 117.26246,171.95805 111.5667,177.19368 C 110.04922,182.69928 103.46536,175.27568 100.80057,175.68789 C 101.42036,184.4054 103.29135,181.4493 101.32629,187.38031 C 100.15376,194.8105 98.584351,198.53101 106.75841,200.07833 C 109.40526,196.49413 106.62535,198.01053 107.21738,204.62287 C 111.93748,203.24888 118.14213,195.38391 117.50527,203.46695 C 120.70823,198.58923 130.84795,196.04698 130.72046,190.79324 C 135.85295,191.332 141.61306,197.06422 145.94561,190.09667 C 150.2952,184.95003 156.54736,182.56307 156.61302,186.5381 C 161.9004,191.47664 162.42921,190.47583 167.92637,189.21902 C 166.51042,182.85139 180.79028,188.7815 173.24953,182.44203 C 176.24457,179.44271 184.35053,177.68997 189.03488,178.73225 C 193.17887,184.7655 205.80542,185.26474 207.77001,177.45529 C 208.18224,171.31233 217.77078,169.21129 221.356,173.45839 C 227.59062,167.99204 237.42494,175.93514 242.78989,171.74494 C 237.96751,165.48601 249.60541,161.39632 251.7788,166.19499 C 256.04867,163.90233 260.02227,155.65289 264.69315,161.55882 C 270.0654,159.80807 276.62537,157.37382 281.16996,155.54923 C 284.58098,161.1724 293.41111,155.38762 289.58338,148.58179 C 287.51131,143.7206 296.38816,150.97518 293.97151,144.8075 C 291.22256,138.17292 287.36196,128.95228 282.632,129.25709 C 276.19074,127.64769 272.37144,131.99437 272.10408,138.14554 C 272.02263,133.65679 264.41302,138.03226 260.42146,139.65998 L 258.23314,140.1806 L 255.61868,138.33651"
       style="opacity:0.294045;fill:#000000;fill-opacity:1;fill-rule:evenodd;stroke:#000000;stroke-width:0.43960103px;stroke-linecap:butt;stroke-linejoin:miter;stroke-opacity:1"
       id="path5003" />
    <path
       d="M 264.32038,144.31888 C 258.87403,142.38733 253.82696,142.11578 249.01129,142.41359 C 245.70384,139.61961 241.77879,140.53589 238.91308,141.45226 C 238.43215,136.07281 231.88589,146.2538 228.3916,146.29779 C 225.91042,147.72189 227.62061,142.058 223.17746,144.21237 C 217.65342,144.73425 211.24938,141.30894 207.15153,143.08309 C 206.16721,148.93989 197.3212,152.23918 195.99719,145.81992 C 191.17409,147.91873 185.19238,155.79469 185.13429,149.15578 C 176.08205,148.75896 172.20408,157.6589 164.66563,160.54945 C 165.33269,155.36556 153.27707,155.47463 150.95723,160.9152 C 146.28686,162.79594 149.71526,151.0925 142.96606,153.48166 C 135.36393,151.27142 135.57148,166.41729 126.50161,163.33723 C 117.871,163.0596 119.07638,171.6391 113.38061,176.87471 C 111.86313,182.38032 108.85346,178.87552 106.18866,179.28773 C 110.57362,185.51072 92.744912,184.21451 98.037673,193.8116 C 96.865149,201.24179 98.657875,206.58232 106.83192,208.12963 C 109.47878,204.54544 112.01344,201.61036 112.60547,208.2227 C 117.32557,206.84872 123.53023,198.98375 122.89336,207.06678 C 126.09632,202.18907 136.23603,199.64682 136.10855,194.39307 C 141.24103,194.93184 147.00115,200.66405 151.3337,193.6965 C 155.68329,188.54987 156.40162,192.74919 156.46727,196.72422 C 161.75466,201.66276 167.81731,194.07566 173.31446,192.81885 C 171.8985,186.45124 186.17837,192.38133 178.63762,186.04186 C 181.63266,183.04255 189.73863,181.28979 194.42298,182.33208 C 198.53313,186.23094 211.1935,188.86457 213.1581,181.05511 C 213.57033,174.91216 223.15887,172.81113 226.74409,177.05821 C 232.9787,171.59188 242.81303,179.53497 248.17798,175.34477 C 243.3556,169.08584 254.9935,164.99616 257.16688,169.79483 C 261.43676,167.50217 265.41036,159.25272 270.08125,165.15865 C 275.45348,163.40791 282.01346,160.97365 286.55806,159.14906 C 289.96907,164.77223 298.7992,158.98745 294.97146,152.18163 C 292.8994,147.32043 301.77624,154.57502 299.3596,148.40734 C 299.41358,141.34913 296.75521,130.42669 288.0201,132.85693 C 281.57883,131.24753 277.75953,135.5942 277.49217,141.74537 C 277.41072,137.25663 267.24048,138.87754 263.24892,140.50527 L 261.94132,141.1968 L 261.00677,141.93633"
       style="fill:#ffffff;fill-opacity:1;fill-rule:evenodd;stroke:#000000;stroke-width:0.43960103px;stroke-linecap:butt;stroke-linejoin:miter;stroke-opacity:1"
       id="path1307" />
    <path
       d="M 107.28409,136.32075 C 109.5793,106.46405 124.66963,92.866723 122.01328,68.986915 C 120.44318,54.872292 107.73307,65.571471 111.87573,78.811895"
       style="fill:none;fill-opacity:0.75;fill-rule:evenodd;stroke:#000000;stroke-width:0.60922754px;stroke-linecap:butt;stroke-linejoin:miter;stroke-opacity:1"
       id="path3126" />
    <path
       d="M 113.34951,177.05587 C 111.83203,182.56147 108.82236,179.05667 106.15756,179.46888 C 110.54252,185.69187 92.713811,184.39566 98.006564,193.99275 C 96.834048,201.42294 98.626774,206.76347 106.80083,208.31078 C 109.44768,204.72658 111.98234,201.79151 112.57437,208.40386 C 117.29446,207.02987 123.49913,199.16489 122.86227,207.24793 C 126.06522,202.37022 136.20493,199.82796 136.07745,194.57423 C 141.20993,195.11298 146.7241,199.94633 151.05664,192.97879 C 155.40624,187.83215 156.37051,192.93034 156.43617,196.90536 C 161.72355,201.84392 167.7862,194.25681 173.28336,193.00001 C 171.8674,186.63238 179.76413,191.87054 178.60652,186.22302 C 177.84839,182.5244 203.19864,183.6194 199.55258,180.00246 C 188.65741,169.19435 171.6375,185.47869 169.17508,184.43929 C 166.71267,183.3999 163.99187,184.03028 167.43191,182.4517 C 170.87196,180.87313 162.50362,183.46952 155.53423,180.99396 C 148.56483,178.51841 143.46334,181.6481 142.99781,187.82292 C 137.74843,184.55808 137.37232,188.26648 129.1941,190.54055 C 134.40524,182.92219 119.98466,188.51672 119.98466,188.51672 C 119.98466,188.51672 122.49709,180.16366 117.98237,181.26614 C 120.40955,176.90674 117.71566,175.56372 117.71566,175.56372 C 117.71566,175.56372 119.04527,171.82024 113.34951,177.05587 z"
       style="opacity:0.11235998;fill:#000000;fill-opacity:1;fill-rule:evenodd;stroke:none;stroke-width:0.72157198px;stroke-linecap:butt;stroke-linejoin:miter;stroke-opacity:1"
       id="path3249" />
    <path
       d="M 27.80624,89.070865 C 26.854803,87.376362 23.890269,86.909794 23.508797,85.472798 C 24.171379,83.803782 21.565172,85.01438 21.051628,84.096886 C 17.98577,86.606618 13.753645,87.692987 11.48176,91.144919 C 12.689832,90.879978 12.686942,89.113968 11.366962,90.416802 C 8.8809938,91.651827 6.4783798,93.821268 7.4131707,96.916842 C 7.6395927,98.505338 5.6402583,99.872238 8.0809231,100.24846 C 7.7626691,102.79162 3.9475488,102.68454 3.9452756,104.92913 C 4.7897497,107.37738 4.4182693,109.92881 2.4097829,111.64605 C 0.42309119,113.50391 1.2412812,116.23858 1.3136894,118.49549 C 0.31451721,120.00509 -0.24789195,121.40879 1.0690351,122.84674 C 1.3478517,125.44023 3.5008395,127.15744 3.5168812,129.85585 C 4.4232747,131.27015 6.2408484,131.18264 7.1692348,132.78087 C 9.8813368,133.01141 10.080328,136.79842 12.663797,137.32368 C 14.883038,138.04751 17.508873,137.54561 19.50854,138.07639 C 21.148554,139.40597 23.031048,140.33271 25.095697,140.70607 C 27.691158,142.35796 28.573299,138.24665 30.144043,136.92281 C 30.225489,134.85285 31.712627,134.69178 32.70854,136.43477 C 34.975158,137.97144 37.323652,135.32513 38.948629,133.92487 C 40.5373,132.19326 42.319602,130.69415 44.088602,129.17589 C 46.600026,126.34093 47.491685,122.28342 47.351162,118.55179 C 47.600106,116.2133 45.425798,116.08392 43.995787,115.8169 C 44.64236,113.8563 46.271501,111.03544 42.948707,110.82548 C 41.0432,110.32778 36.723151,108.19883 39.197214,105.956 C 41.022965,103.82262 38.510317,100.95079 37.389233,99.023707 C 35.44772,97.478474 34.319682,95.325962 33.112445,93.446599 C 30.775162,93.074175 28.584811,91.653808 27.988978,89.174234 C 27.365023,87.205076 27.816188,88.663291 28.013077,89.6219"
       style="fill:#ffffff;fill-opacity:1;fill-rule:evenodd;stroke:#000000;stroke-width:0.59468704;stroke-linecap:butt;stroke-linejoin:miter;stroke-miterlimit:4;stroke-dasharray:none;stroke-opacity:1"
       id="path2251" />
    <path
       d="M 8.4073928,115.09292 C 7.2369578,113.65416 11.85842,114.33191 11.476947,112.89491 C 12.139529,111.22591 11.346646,111.15642 10.833101,110.23892 C 7.7672447,112.74865 8.4892702,106.8029 6.2173848,110.25483 C 7.4254576,109.9899 7.2268088,105.62543 5.9068289,106.92826 C 3.4208603,108.16328 3.9475488,102.68454 3.9452756,104.92913 C 4.7897497,107.37738 4.4182693,109.92881 2.4097829,111.64605 C 0.42309119,113.50391 1.2412812,116.23858 1.3136894,118.49549 C 0.31451721,120.00509 -0.24789195,121.40879 1.0690351,122.84674 C 1.3478517,125.44023 3.5008395,127.15744 3.5168812,129.85585 C 4.4232747,131.27015 6.2408484,131.18264 7.1692348,132.78087 C 9.8813368,133.01141 10.080328,136.79842 12.663797,137.32368 C 14.883038,138.04751 17.508873,137.54561 19.50854,138.07639 C 21.148554,139.40597 23.031048,140.33271 25.095697,140.70607 C 27.691158,142.35796 28.573299,138.24665 30.144043,136.92281 C 30.225489,134.85285 31.712627,134.69178 32.70854,136.43477 C 34.975158,137.97144 37.323652,135.32513 38.948629,133.92487 C 40.5373,132.19326 32.84831,134.1875 34.617309,132.66924 C 37.128731,129.83428 28.95078,136.62635 28.810255,132.89472 C 29.059196,130.55623 19.768359,135.87001 21.735933,131.75891 C 22.382508,129.79832 22.858577,131.21225 19.535783,131.00228 C 17.630276,130.50458 12.370079,126.98683 14.844142,124.744 C 16.669894,122.61062 13.863185,125.07758 12.742101,123.1505 C 10.800588,121.60527 12.040663,122.45611 10.833427,120.57676 C 8.4961432,120.20434 9.5237557,119.24895 8.9279233,116.76938 C 7.9167815,119.67853 8.210504,114.13431 8.4073928,115.09292 z"
       style="opacity:0.0955056;fill:#000000;fill-opacity:1;fill-rule:evenodd;stroke:none;stroke-width:0.99599999;stroke-linecap:butt;stroke-linejoin:miter;stroke-miterlimit:4;stroke-dasharray:none;stroke-opacity:1"
       id="path4128" />
    <path
       d="M 108.73904,122.77893 C 108.73904,122.77893 118.34681,98.284224 120.65535,88.511776 C 122.81525,79.368645 122.53577,65.412048 119.30086,62.828893 C 116.06594,60.245738 111.81096,64.713446 111.3625,70.003735 C 110.91404,75.294018 110.53843,76.627171 112.70997,86.718275 C 113.69438,91.292816 113.20273,102.13589 111.86432,107.25348 C 110.52591,112.37107 107.60542,124.02548 108.73904,122.77893 z"
       style="fill:#000000;fill-opacity:0.22346401;fill-rule:evenodd;stroke:none;stroke-width:1px;stroke-linecap:butt;stroke-linejoin:miter;stroke-opacity:1"
       id="path5880" />
  </g>
</svg>
