<?xml version="1.0" encoding="UTF-8" standalone="no"?>
<!-- Created with Inkscape (http://www.inkscape.org/) -->
<svg
   xmlns:dc="http://purl.org/dc/elements/1.1/"
   xmlns:cc="http://creativecommons.org/ns#"
   xmlns:rdf="http://www.w3.org/1999/02/22-rdf-syntax-ns#"
   xmlns:svg="http://www.w3.org/2000/svg"
   xmlns="http://www.w3.org/2000/svg"
   xmlns:xlink="http://www.w3.org/1999/xlink"
   xmlns:sodipodi="http://sodipodi.sourceforge.net/DTD/sodipodi-0.dtd"
   xmlns:inkscape="http://www.inkscape.org/namespaces/inkscape"
   width="668.12817"
   height="692.10724"
   id="svg5520"
   sodipodi:version="0.32"
   inkscape:version="0.46"
   sodipodi:docname="red_present.svg"
   inkscape:output_extension="org.inkscape.output.svg.inkscape"
   version="1.0">
  <defs
     id="defs5522">
    <filter
       inkscape:collect="always"
       id="filter5389">
      <feGaussianBlur
         inkscape:collect="always"
         stdDeviation="0.080260832"
         id="feGaussianBlur5391" />
    </filter>
    <linearGradient
       inkscape:collect="always"
       id="linearGradient5293">
      <stop
         style="stop-color: rgb(255, 255, 255); stop-opacity: 1;"
         offset="0"
         id="stop5295" />
      <stop
         style="stop-color: rgb(255, 255, 255); stop-opacity: 0;"
         offset="1"
         id="stop5297" />
    </linearGradient>
    <filter
       inkscape:collect="always"
       id="filter5115">
      <feGaussianBlur
         inkscape:collect="always"
         stdDeviation="0.06950493"
         id="feGaussianBlur5117" />
    </filter>
    <linearGradient
       inkscape:collect="always"
       id="linearGradient5119">
      <stop
         style="stop-color: rgb(0, 0, 0); stop-opacity: 1;"
         offset="0"
         id="stop5121" />
      <stop
         style="stop-color: rgb(0, 0, 0); stop-opacity: 0;"
         offset="1"
         id="stop5123" />
    </linearGradient>
    <linearGradient
       id="linearGradient4807">
      <stop
         style="stop-color: rgb(204, 204, 204); stop-opacity: 1;"
         offset="0"
         id="stop4809" />
      <stop
         style="stop-color: rgb(255, 255, 255); stop-opacity: 1;"
         offset="1"
         id="stop4811" />
    </linearGradient>
    <linearGradient
       id="linearGradient4815">
      <stop
         style="stop-color: rgb(51, 51, 51); stop-opacity: 1;"
         offset="0"
         id="stop4817" />
      <stop
         style="stop-color: rgb(204, 204, 204); stop-opacity: 1;"
         offset="1"
         id="stop4819" />
    </linearGradient>
    <filter
       inkscape:collect="always"
       id="filter5073">
      <feGaussianBlur
         inkscape:collect="always"
         stdDeviation="0.052773018"
         id="feGaussianBlur5075" />
    </filter>
    <linearGradient
       inkscape:collect="always"
       id="linearGradient4949">
      <stop
         style="stop-color: rgb(0, 0, 0); stop-opacity: 1;"
         offset="0"
         id="stop4951" />
      <stop
         style="stop-color: rgb(0, 0, 0); stop-opacity: 0;"
         offset="1"
         id="stop4953" />
    </linearGradient>
    <linearGradient
       id="linearGradient5397">
      <stop
         style="stop-color: rgb(204, 204, 204); stop-opacity: 1;"
         offset="0"
         id="stop5399" />
      <stop
         style="stop-color: rgb(25, 25, 25); stop-opacity: 1;"
         offset="1"
         id="stop5401" />
    </linearGradient>
    <linearGradient
       id="linearGradient4801">
      <stop
         id="stop4803"
         offset="0"
         style="stop-color: rgb(255, 255, 255); stop-opacity: 1;" />
      <stop
         id="stop4805"
         offset="1"
         style="stop-color: rgb(0, 0, 0); stop-opacity: 1;" />
    </linearGradient>
    <filter
       inkscape:collect="always"
       id="filter4943">
      <feGaussianBlur
         inkscape:collect="always"
         stdDeviation="0.10492554"
         id="feGaussianBlur4945" />
    </filter>
    <linearGradient
       id="linearGradient4891">
      <stop
         style="stop-color: rgb(51, 51, 51); stop-opacity: 1;"
         offset="0"
         id="stop4893" />
      <stop
         style="stop-color: rgb(255, 255, 255); stop-opacity: 0;"
         offset="1"
         id="stop4895" />
    </linearGradient>
    <filter
       inkscape:collect="always"
       id="filter4875">
      <feGaussianBlur
         inkscape:collect="always"
         stdDeviation="0.083783289"
         id="feGaussianBlur4877" />
    </filter>
    <linearGradient
       id="linearGradient2955">
      <stop
         style="stop-color: rgb(179, 179, 179); stop-opacity: 1;"
         offset="0"
         id="stop2957" />
      <stop
         style="stop-color: rgb(255, 255, 255); stop-opacity: 1;"
         offset="1"
         id="stop2959" />
    </linearGradient>
    <linearGradient
       id="linearGradient4204">
      <stop
         style="stop-color: rgb(255, 255, 255); stop-opacity: 1;"
         offset="0"
         id="stop4206" />
      <stop
         style="stop-color: rgb(179, 179, 179); stop-opacity: 1;"
         offset="1"
         id="stop4208" />
    </linearGradient>
    <filter
       inkscape:collect="always"
       id="filter5203">
      <feGaussianBlur
         inkscape:collect="always"
         stdDeviation="0.14911291"
         id="feGaussianBlur5205" />
    </filter>
    <linearGradient
       id="linearGradient5133">
      <stop
         id="stop5135"
         offset="0"
         style="stop-color: rgb(127, 127, 127); stop-opacity: 0;" />
      <stop
         id="stop5137"
         offset="1"
         style="stop-color: rgb(0, 0, 0); stop-opacity: 1;" />
    </linearGradient>
    <filter
       inkscape:collect="always"
       id="filter4358"
       x="-0.023869516"
       width="1.047739"
       y="-0.10042768"
       height="1.2008554">
      <feGaussianBlur
         inkscape:collect="always"
         stdDeviation="0.139889"
         id="feGaussianBlur4360" />
    </filter>
    <linearGradient
       inkscape:collect="always"
       id="linearGradient4362">
      <stop
         style="stop-color: rgb(179, 179, 179); stop-opacity: 1;"
         offset="0"
         id="stop4364" />
      <stop
         style="stop-color: rgb(255, 255, 255); stop-opacity: 1;"
         offset="1"
         id="stop4366" />
    </linearGradient>
    <filter
       inkscape:collect="always"
       id="filter4332">
      <feGaussianBlur
         inkscape:collect="always"
         stdDeviation="0.079515375"
         id="feGaussianBlur4334" />
    </filter>
    <linearGradient
       inkscape:collect="always"
       id="linearGradient4015">
      <stop
         style="stop-color: rgb(0, 0, 0); stop-opacity: 1;"
         offset="0"
         id="stop4017" />
      <stop
         style="stop-color: rgb(0, 0, 0); stop-opacity: 0;"
         offset="1"
         id="stop4019" />
    </linearGradient>
    <filter
       inkscape:collect="always"
       id="filter4009">
      <feGaussianBlur
         inkscape:collect="always"
         stdDeviation="0.15094464"
         id="feGaussianBlur4011" />
    </filter>
    <linearGradient
       inkscape:collect="always"
       id="linearGradient3969">
      <stop
         style="stop-color: rgb(77, 77, 77); stop-opacity: 1;"
         offset="0"
         id="stop3971" />
      <stop
         style="stop-color: rgb(77, 77, 77); stop-opacity: 0;"
         offset="1"
         id="stop3973" />
    </linearGradient>
    <linearGradient
       id="linearGradient4823">
      <stop
         style="stop-color: rgb(51, 51, 51); stop-opacity: 1;"
         offset="0"
         id="stop4825" />
      <stop
         style="stop-color: rgb(239, 239, 239); stop-opacity: 1;"
         offset="1"
         id="stop4827" />
    </linearGradient>
    <linearGradient
       id="linearGradient4304">
      <stop
         id="stop4306"
         offset="0"
         style="stop-color: rgb(230, 230, 230); stop-opacity: 1;" />
      <stop
         id="stop4308"
         offset="1"
         style="stop-color: rgb(102, 102, 102); stop-opacity: 1;" />
    </linearGradient>
    <filter
       inkscape:collect="always"
       id="filter3954">
      <feGaussianBlur
         inkscape:collect="always"
         stdDeviation="0.14602923"
         id="feGaussianBlur3956" />
    </filter>
    <linearGradient
       id="linearGradient3958">
      <stop
         style="stop-color: rgb(255, 255, 255); stop-opacity: 1;"
         offset="0"
         id="stop3960" />
      <stop
         style="stop-color: rgb(230, 230, 230); stop-opacity: 1;"
         offset="1"
         id="stop3962" />
    </linearGradient>
    <filter
       inkscape:collect="always"
       id="filter3936">
      <feGaussianBlur
         inkscape:collect="always"
         stdDeviation="0.19096396"
         id="feGaussianBlur3938" />
    </filter>
    <filter
       inkscape:collect="always"
       id="filter3840">
      <feGaussianBlur
         inkscape:collect="always"
         stdDeviation="0.29143607"
         id="feGaussianBlur3842" />
    </filter>
    <filter
       inkscape:collect="always"
       id="filter4286">
      <feGaussianBlur
         inkscape:collect="always"
         stdDeviation="0.18001918"
         id="feGaussianBlur4288" />
    </filter>
    <linearGradient
       id="linearGradient4224"
       inkscape:collect="always">
      <stop
         id="stop4226"
         offset="0"
         style="stop-color: rgb(255, 255, 255); stop-opacity: 1;" />
      <stop
         id="stop4228"
         offset="1"
         style="stop-color: rgb(77, 77, 77); stop-opacity: 0;" />
    </linearGradient>
    <filter
       inkscape:collect="always"
       id="filter3888"
       x="-0.72678578"
       width="2.4535716"
       y="-0.024361532"
       height="1.0487231">
      <feGaussianBlur
         inkscape:collect="always"
         stdDeviation="0.15719063"
         id="feGaussianBlur3890" />
    </filter>
    <linearGradient
       inkscape:collect="always"
       id="linearGradient3892">
      <stop
         style="stop-color: rgb(255, 255, 255); stop-opacity: 1;"
         offset="0"
         id="stop3894" />
      <stop
         style="stop-color: rgb(255, 255, 255); stop-opacity: 0;"
         offset="1"
         id="stop3896" />
    </linearGradient>
    <filter
       inkscape:collect="always"
       id="filter4049">
      <feGaussianBlur
         inkscape:collect="always"
         stdDeviation="0.28665188"
         id="feGaussianBlur4051" />
    </filter>
    <linearGradient
       inkscape:collect="always"
       id="linearGradient4025">
      <stop
         style="stop-color: rgb(255, 255, 255); stop-opacity: 1;"
         offset="0"
         id="stop4027" />
      <stop
         style="stop-color: rgb(255, 255, 255); stop-opacity: 0;"
         offset="1"
         id="stop4029" />
    </linearGradient>
    <filter
       inkscape:collect="always"
       id="filter4715"
       x="-0.059725847"
       width="1.1194516"
       y="-0.13304792"
       height="1.2660958">
      <feGaussianBlur
         inkscape:collect="always"
         stdDeviation="2.3861645"
         id="feGaussianBlur4717" />
    </filter>
    <inkscape:perspective
       sodipodi:type="inkscape:persp3d"
       inkscape:vp_x="0 : 526.18109 : 1"
       inkscape:vp_y="0 : 1000 : 0"
       inkscape:vp_z="744.09448 : 526.18109 : 1"
       inkscape:persp3d-origin="372.04724 : 350.78739 : 1"
       id="perspective5528" />
    <radialGradient
       inkscape:collect="always"
       xlink:href="#linearGradient4025"
       id="radialGradient2650"
       gradientUnits="userSpaceOnUse"
       gradientTransform="matrix(1.16413,-1.97537,2.04604,1.20577,-614.231,1863.89)"
       cx="985.76221"
       cy="238.34775"
       fx="985.76221"
       fy="238.34775"
       r="11.034685" />
    <linearGradient
       inkscape:collect="always"
       xlink:href="#linearGradient3892"
       id="linearGradient2652"
       gradientUnits="userSpaceOnUse"
       x1="1002.9427"
       y1="233.49409"
       x2="1002.9427"
       y2="218.97255" />
    <linearGradient
       inkscape:collect="always"
       xlink:href="#linearGradient4224"
       id="linearGradient2654"
       gradientUnits="userSpaceOnUse"
       gradientTransform="translate(16.5142,-35.636)"
       x1="991.57684"
       y1="219.12415"
       x2="992.39423"
       y2="214.70251" />
    <linearGradient
       inkscape:collect="always"
       xlink:href="#linearGradient3892"
       id="linearGradient2656"
       gradientUnits="userSpaceOnUse"
       gradientTransform="translate(16.5142,-35.636)"
       x1="1002.8088"
       y1="215.92622"
       x2="1003.0658"
       y2="223.37727" />
    <linearGradient
       inkscape:collect="always"
       xlink:href="#linearGradient4224"
       id="linearGradient2660"
       gradientUnits="userSpaceOnUse"
       gradientTransform="translate(30.2584,-36.4902)"
       x1="991.57684"
       y1="219.12415"
       x2="992.39423"
       y2="214.70251" />
    <linearGradient
       inkscape:collect="always"
       xlink:href="#linearGradient3969"
       id="linearGradient2666"
       gradientUnits="userSpaceOnUse"
       gradientTransform="translate(16.5142,-35.636)"
       x1="991.10211"
       y1="208.35808"
       x2="991.10211"
       y2="220.49208" />
    <linearGradient
       inkscape:collect="always"
       xlink:href="#linearGradient3969"
       id="linearGradient2670"
       gradientUnits="userSpaceOnUse"
       gradientTransform="translate(22.3837,-0.585962)"
       x1="991.10211"
       y1="208.35808"
       x2="991.10211"
       y2="220.49208" />
    <linearGradient
       inkscape:collect="always"
       xlink:href="#linearGradient4362"
       id="linearGradient2672"
       gradientUnits="userSpaceOnUse"
       gradientTransform="translate(17.4821,-35.6898)"
       x1="999.1416"
       y1="206.8123"
       x2="1003.0188"
       y2="213.36137" />
    <linearGradient
       inkscape:collect="always"
       xlink:href="#linearGradient5133"
       id="linearGradient2674"
       gradientUnits="userSpaceOnUse"
       x1="1006.6952"
       y1="170.13069"
       x2="1006.1155"
       y2="164.62189" />
    <linearGradient
       inkscape:collect="always"
       xlink:href="#linearGradient4891"
       id="linearGradient2680"
       gradientUnits="userSpaceOnUse"
       x1="1015.508"
       y1="170.62872"
       x2="1013.0047"
       y2="165.69162" />
    <linearGradient
       inkscape:collect="always"
       xlink:href="#linearGradient4949"
       id="linearGradient2686"
       gradientUnits="userSpaceOnUse"
       x1="1019.5334"
       y1="174.21799"
       x2="1015.6647"
       y2="169.44992" />
    <linearGradient
       inkscape:collect="always"
       xlink:href="#linearGradient4815"
       id="linearGradient2688"
       gradientUnits="userSpaceOnUse"
       x1="1027.698"
       y1="166.91135"
       x2="1017.0903"
       y2="174.29514" />
    <linearGradient
       inkscape:collect="always"
       xlink:href="#linearGradient4807"
       id="linearGradient2690"
       gradientUnits="userSpaceOnUse"
       x1="1036.5377"
       y1="164.83141"
       x2="1025.098"
       y2="174.39912" />
    <linearGradient
       inkscape:collect="always"
       xlink:href="#linearGradient5119"
       id="linearGradient2692"
       gradientUnits="userSpaceOnUse"
       x1="1004.4523"
       y1="162.9657"
       x2="1008.6171"
       y2="162.03741" />
    <linearGradient
       inkscape:collect="always"
       xlink:href="#linearGradient5119"
       id="linearGradient2694"
       gradientUnits="userSpaceOnUse"
       gradientTransform="translate(22.4251,0.717603)"
       x1="1006.4946"
       y1="161.71768"
       x2="1008.2236"
       y2="163.85588" />
    <linearGradient
       inkscape:collect="always"
       xlink:href="#linearGradient5293"
       id="linearGradient2696"
       gradientUnits="userSpaceOnUse"
       x1="1031.7657"
       y1="164.10721"
       x2="1032.4193"
       y2="171.90407" />
    <linearGradient
       inkscape:collect="always"
       xlink:href="#linearGradient5397"
       id="linearGradient2706"
       gradientUnits="userSpaceOnUse"
       x1="1020.7343"
       y1="173.06566"
       x2="1027.0078"
       y2="173.06567"
       gradientTransform="matrix(15.81543,0,0,15.81543,-15730.686,-2436.6028)" />
    <radialGradient
       inkscape:collect="always"
       xlink:href="#linearGradient4801"
       id="radialGradient2709"
       gradientUnits="userSpaceOnUse"
       gradientTransform="matrix(55.986464,25.920383,-51.367093,110.96438,-45063.248,-48502.997)"
       cx="999.93152"
       cy="205.93054"
       fx="999.93152"
       fy="205.93054"
       r="2.8654649" />
    <linearGradient
       inkscape:collect="always"
       xlink:href="#linearGradient2955"
       id="linearGradient2714"
       gradientUnits="userSpaceOnUse"
       x1="1012.3091"
       y1="172.47617"
       x2="1006.6633"
       y2="174.08923"
       gradientTransform="matrix(15.81543,0,0,15.81543,-15730.686,-2436.6028)" />
    <radialGradient
       inkscape:collect="always"
       xlink:href="#linearGradient4204"
       id="radialGradient2717"
       gradientUnits="userSpaceOnUse"
       gradientTransform="matrix(-28.791674,-35.184271,33.772427,-27.636673,21786.677,40906.69)"
       cx="990.43945"
       cy="209.13644"
       fx="990.43945"
       fy="209.13644"
       r="5.8380165" />
    <linearGradient
       inkscape:collect="always"
       xlink:href="#linearGradient4015"
       id="linearGradient2726"
       gradientUnits="userSpaceOnUse"
       gradientTransform="matrix(15.81543,0,0,15.81543,-15469.507,-3000.2015)"
       x1="990.98877"
       y1="237.26962"
       x2="991.80615"
       y2="232.98532" />
    <radialGradient
       inkscape:collect="always"
       xlink:href="#linearGradient4823"
       id="radialGradient2730"
       gradientUnits="userSpaceOnUse"
       gradientTransform="matrix(15.656833,27.811908,-42.830082,24.111256,-8504.3314,-31809.336)"
       cx="1006.3074"
       cy="164.89207"
       fx="1006.3074"
       fy="164.89207"
       r="5.4728832" />
    <linearGradient
       inkscape:collect="always"
       xlink:href="#linearGradient4304"
       id="linearGradient2733"
       gradientUnits="userSpaceOnUse"
       gradientTransform="matrix(15.81543,0,0,15.81543,-15469.507,-3000.2015)"
       x1="1007.9018"
       y1="210.21346"
       x2="1019.9815"
       y2="235.48184" />
    <linearGradient
       inkscape:collect="always"
       xlink:href="#linearGradient3958"
       id="linearGradient2738"
       gradientUnits="userSpaceOnUse"
       gradientTransform="matrix(15.81543,0,0,15.81543,-15469.507,-3000.2015)"
       x1="994.00958"
       y1="235.88475"
       x2="996.02307"
       y2="216.38017" />
  </defs>
  <sodipodi:namedview
     id="base"
     pagecolor="#ffffff"
     bordercolor="#666666"
     borderopacity="1.0"
     inkscape:pageopacity="0.0"
     inkscape:pageshadow="2"
     inkscape:zoom="0.35"
     inkscape:cx="350"
     inkscape:cy="520"
     inkscape:document-units="px"
     inkscape:current-layer="layer1"
     showgrid="false"
     inkscape:window-width="1440"
     inkscape:window-height="825"
     inkscape:window-x="0"
     inkscape:window-y="25" />
  <metadata
     id="metadata5525">
    <rdf:RDF>
      <cc:Work
         rdf:about="">
        <dc:format>image/svg+xml</dc:format>
        <dc:type
           rdf:resource="http://purl.org/dc/dcmitype/StillImage" />
      </cc:Work>
    </rdf:RDF>
  </metadata>
  <g
     inkscape:label="Camada 1"
     inkscape:groupmode="layer"
     id="layer1"
     transform="translate(-20.218744,-117.73113)">
    <path
       style="opacity:0.75581402;fill:#000000;fill-rule:evenodd;stroke:none;stroke-width:1px;stroke-linecap:butt;stroke-linejoin:miter;stroke-opacity:1;filter:url(#filter4715)"
       d="M 1281.8445,669.90638 L 1335.036,690.55307 L 1377.7292,661.15778 L 1324.5376,647.50997 L 1281.8445,669.90638 z"
       id="path4665"
       sodipodi:nodetypes="ccccc"
       transform="matrix(6.9680372,0,0,7.1641384,-8911.7214,-4137.3794)" />
    <path
       style="fill:#aa0000;fill-opacity:1;fill-rule:evenodd;stroke:none;stroke-width:0.20000000000000001;stroke-linecap:butt;stroke-linejoin:miter;stroke-miterlimit:4;stroke-dasharray:none;stroke-opacity:1"
       d="M 38.851734,368.17815 L 38.851734,645.21008 L 393.65572,774.05965 L 667.60902,590.91065 L 667.60902,327.73019 L 385.95994,477.01978 L 38.851734,368.17815 z"
       id="path3105"
       sodipodi:nodetypes="ccccccc" />
    <path
       style="opacity:0.52536201999999999;fill:url(#radialGradient2650);fill-opacity:1.0;fill-rule:evenodd;stroke:none;stroke-width:1px;stroke-linecap:butt;stroke-linejoin:miter;stroke-opacity:1;filter:url(#filter4049)"
       d="M 997.28347,194.50599 L 1019.3528,202.77064 L 1019.3528,185.69641 L 997.28347,178.97571 L 997.28347,194.50599 z"
       id="path3107"
       sodipodi:nodetypes="ccccc"
       transform="matrix(15.81543,0,0,15.81543,-15730.686,-2436.6028)" />
    <rect
       style="opacity:0.52173899;fill:url(#linearGradient2652);fill-opacity:1;fill-rule:nonzero;stroke:none;stroke-width:0.2;stroke-linecap:butt;stroke-linejoin:miter;marker:none;stroke-miterlimit:4;stroke-dasharray:none;stroke-dashoffset:0;stroke-opacity:1;visibility:visible;display:inline;overflow:visible;filter:url(#filter3888)"
       id="rect3109"
       width="0.43928805"
       height="15.804942"
       x="1002.6832"
       y="222.42242"
       transform="matrix(18.002071,0,0,18.002071,-17662.62,-3520.4311)" />
    <path
       style="fill:#aa0000;fill-opacity:1;fill-rule:nonzero;stroke:none;stroke-width:0.20000000000000001;stroke-linecap:butt;stroke-linejoin:miter;marker:none;stroke-miterlimit:4;stroke-dashoffset:0;stroke-opacity:1;visibility:visible;display:inline;overflow:visible"
       d="M 319.49717,219.76868 L 675.14982,275.84103 L 674.27522,371.36021 L 394.39272,513.00352 L 33.646718,402.09861 L 34.234419,304.45114 L 319.49717,219.76868 z"
       id="path3111"
       sodipodi:nodetypes="ccccccc" />
    <path
       style="opacity:0.5;fill:url(#linearGradient2654);fill-opacity:1;fill-rule:evenodd;stroke:none;stroke-width:1px;stroke-linecap:butt;stroke-linejoin:miter;stroke-opacity:1;filter:url(#filter4286)"
       d="M 996.92019,175.07043 L 997.01101,179.42981 L 1019.1711,186.33216 L 1019.262,181.24621 L 996.92019,175.07043 z"
       id="path3113"
       sodipodi:nodetypes="ccccc"
       transform="matrix(15.81543,0,0,15.81543,-15730.686,-2436.6028)" />
    <path
       style="fill:url(#linearGradient2656);fill-opacity:1;fill-rule:evenodd;stroke:none;stroke-width:1px;stroke-linecap:butt;stroke-linejoin:miter;stroke-opacity:1;filter:url(#filter3840)"
       d="M 997.08386,173.49212 L 1019.4552,179.43284 L 1037.0433,171.73892 L 1037.0209,172.19588 L 1019.7147,179.86541 L 1019.6291,186.0952 L 1019.11,186.0952 L 1019.1091,179.86541 L 997.10995,174.01887 L 997.08386,173.49212 z"
       id="path3115"
       sodipodi:nodetypes="cccccccccc"
       transform="matrix(15.81543,0,0,15.81543,-15730.686,-2436.6028)" />
    <path
       sodipodi:nodetypes="ccccccc"
       id="path3117"
       d="M 1023.9201,170.19373 L 1005.6033,175.96574 L 1005.3547,197.57939 L 1010.0343,199.4512 L 1010.216,177.30275 L 1028.8584,170.22307 L 1023.9201,170.19373 z"
       style="fill:#000000;fill-rule:evenodd;stroke:none;stroke-width:0.2;stroke-linecap:butt;stroke-linejoin:miter;stroke-miterlimit:4;stroke-dasharray:none;stroke-opacity:1;filter:url(#filter3936)"
       transform="matrix(15.81543,0,0,15.81543,-15730.686,-2436.6028)" />
    <path
       style="fill:url(#linearGradient2738);fill-opacity:1;fill-rule:evenodd;stroke:none;stroke-width:0.2;stroke-linecap:butt;stroke-linejoin:miter;stroke-miterlimit:4;stroke-dasharray:none;stroke-opacity:1"
       d="M 467.12947,243.05659 L 170.65342,340.95299 L 166.23933,692.65305 L 239.89969,719.11764 L 243.60525,362.09838 L 541.05711,254.2982 L 467.12947,243.05659 z"
       id="path3119"
       sodipodi:nodetypes="ccccccc" />
    <path
       sodipodi:nodetypes="ccccc"
       id="path3121"
       d="M 1014.7499,176.32833 L 1015.1085,180.9364 L 1032.9153,185.478 L 1033.0062,180.39205 L 1014.7499,176.32833 z"
       style="opacity:0.5;fill:url(#linearGradient2660);fill-opacity:1;fill-rule:evenodd;stroke:none;stroke-width:1px;stroke-linecap:butt;stroke-linejoin:miter;stroke-opacity:1;filter:url(#filter4286)"
       transform="matrix(-15.81543,3.8477518,0,15.81543,16725.898,-6396.6125)" />
    <path
       sodipodi:nodetypes="ccccccc"
       id="path3123"
       d="M 1005.3323,170.82889 L 1027.054,176.39611 L 1027.0954,197.82116 L 1031.323,195.00405 L 1031.065,174.45744 L 1009.5357,169.70688 L 1005.3323,170.82889 z"
       style="fill:#000000;fill-rule:evenodd;stroke:none;stroke-width:0.2;stroke-linecap:butt;stroke-linejoin:miter;stroke-miterlimit:4;stroke-dasharray:none;stroke-opacity:1;filter:url(#filter3954)"
       transform="matrix(15.81543,0,0,15.81543,-15730.686,-2436.6028)" />
    <path
       style="fill:url(#linearGradient2733);fill-opacity:1;fill-rule:evenodd;stroke:none;stroke-width:0.2;stroke-linecap:butt;stroke-linejoin:miter;stroke-miterlimit:4;stroke-dasharray:none;stroke-opacity:1"
       d="M 168.16407,264.43225 L 515.32383,350.4685 L 514.01273,693.90199 L 579.8919,649.67572 L 578.75952,319.80761 L 236.65595,243.46842 L 168.16407,264.43225 z"
       id="path3125"
       sodipodi:nodetypes="ccccccc" />
    <path
       style="fill:url(#radialGradient2730);fill-opacity:1;fill-rule:evenodd;stroke:none;stroke-width:1px;stroke-linecap:butt;stroke-linejoin:miter;stroke-opacity:1"
       d="M 244.01012,172.70924 C 244.01012,172.70924 247.45947,201.20912 267.26988,227.43869 C 276.67057,239.88765 313.10458,260.9606 313.10458,260.9606 L 332.94503,284.90469 C 332.94503,284.90469 312.42135,291.74581 302.15872,290.37762 C 291.89767,289.00943 240.99254,274.23956 221.83689,263.2937 C 202.68124,252.34784 168.47563,213.76831 166.42279,204.87482 C 164.37153,195.98133 154.92181,172.85553 163.1316,157.80494 C 171.33981,142.75434 187.22799,135.76693 192.0169,135.08275 C 196.80581,134.39857 241.95728,157.65864 241.95728,157.65864 L 244.01012,172.70924 z"
       id="path3127"
       sodipodi:nodetypes="csccssssscc" />
    <path
       style="opacity:0.59058;fill:url(#linearGradient2666);fill-opacity:1;fill-rule:evenodd;stroke:none;stroke-width:1px;stroke-linecap:butt;stroke-linejoin:miter;stroke-opacity:1;filter:url(#filter4009)"
       d="M 1005.6395,175.926 L 1009.7978,176.94853 L 1009.5251,188.53718 L 1005.5031,184.99242 L 1005.6395,175.926 z"
       id="path3129"
       sodipodi:nodetypes="ccccc"
       transform="matrix(15.81543,0,0,15.81543,-15730.686,-2436.6028)" />
    <path
       style="fill:url(#linearGradient2726);fill-opacity:1;fill-rule:evenodd;stroke:none;stroke-width:1px;stroke-linecap:butt;stroke-linejoin:miter;stroke-opacity:1"
       d="M 168.6243,651.70358 L 167.4413,691.66632 L 238.78154,717.42001 L 239.37304,673.31315 L 168.6243,651.70358 z"
       id="path3131"
       sodipodi:nodetypes="ccccc" />
    <path
       sodipodi:nodetypes="ccccc"
       id="path3133"
       d="M 1011.509,210.57586 L 1015.5673,212.39873 L 1015.3946,223.58721 L 1011.3727,220.04245 L 1011.509,210.57586 z"
       style="opacity:0.67391298;fill:url(#linearGradient2670);fill-opacity:1;fill-rule:evenodd;stroke:none;stroke-width:1px;stroke-linecap:butt;stroke-linejoin:miter;stroke-opacity:1;filter:url(#filter4009)"
       transform="matrix(-13.10019,0,0,13.10019,13828.669,-2431.5443)" />
    <g
       id="g3135"
       transform="matrix(15.741493,1.5274289,-1.5274289,15.741493,-15387.842,-3975.6466)">
      <path
         style="opacity:0.95289899;fill:#000000;fill-opacity:1;fill-rule:evenodd;stroke:none;stroke-width:0.2;stroke-linecap:butt;stroke-linejoin:miter;stroke-miterlimit:4;stroke-dasharray:none;stroke-opacity:1;filter:url(#filter4332)"
         d="M 1014.9968,173.21296 C 1014.9968,173.21296 1016.9051,173.0716 1017.1878,174.20248 C 1017.4705,175.33337 1016.5517,176.67629 1018.9548,178.86738 C 1019.6616,178.51398 1019.7323,177.80718 1019.7323,177.80718 L 1021.57,178.58466 C 1021.57,178.58466 1020.0857,176.39357 1020.0857,175.47473 C 1020.0857,174.55589 1020.2977,173.425 1019.6616,173.0716 C 1019.0255,172.7182 1015.9156,172.7182 1015.9156,172.7182 L 1014.9968,173.21296 z"
         id="path3137"
         sodipodi:nodetypes="cscccsscc" />
      <path
         sodipodi:nodetypes="cscccsscc"
         id="path3139"
         d="M 1015.1043,173.07804 C 1015.1043,173.07804 1017.0126,172.93668 1017.2953,174.06756 C 1017.578,175.19845 1016.6592,176.54137 1019.0623,178.73246 C 1019.7691,178.37906 1019.8398,177.67226 1019.8398,177.67226 L 1021.6775,178.44974 C 1021.6775,178.44974 1020.1932,176.25865 1020.1932,175.33981 C 1020.1932,174.42097 1020.4052,173.29008 1019.7691,172.93668 C 1019.133,172.58328 1016.0231,172.58328 1016.0231,172.58328 L 1015.1043,173.07804 z"
         style="fill:url(#linearGradient2672);fill-opacity:1;fill-rule:evenodd;stroke:none;stroke-width:0.2;stroke-linecap:butt;stroke-linejoin:miter;stroke-miterlimit:4;stroke-dasharray:none;stroke-opacity:1" />
    </g>
    <path
       sodipodi:nodetypes="cscccsscc"
       id="path3141"
       d="M 1010.4289,171.76926 C 1010.4289,171.76926 1008.5912,172.6881 1007.7431,172.97082 C 1006.8949,173.25354 1002.23,172.90014 1002.23,172.90014 L 1004.6331,173.67762 L 1003.997,175.09123 C 1003.997,175.09123 1007.5208,175.12564 1008.8033,174.94987 C 1010.6952,174.69055 1011.2771,173.18286 1013.8922,173.11218 C 1015.461,173.06978 1016.2954,173.25354 1016.2954,173.25354 C 1016.2954,173.25354 1014.175,171.55721 1010.4289,171.76926 z"
       style="fill:#000000;fill-opacity:1;fill-rule:evenodd;stroke:none;stroke-width:0.2;stroke-linecap:butt;stroke-linejoin:miter;stroke-miterlimit:4;stroke-dasharray:none;stroke-opacity:1;filter:url(#filter4358)"
       transform="matrix(15.81543,0,0,15.81543,-15730.686,-2436.6028)" />
    <path
       style="fill:url(#linearGradient2674);fill-opacity:1;fill-rule:evenodd;stroke:none;stroke-width:1px;stroke-linecap:butt;stroke-linejoin:miter;stroke-opacity:1;filter:url(#filter5203)"
       d="M 1008.5814,163.52013 C 1008.5814,163.52013 1007.4796,162.89055 1007.0599,162.89055 C 1006.6402,162.89055 1005.1187,163.46766 1004.9613,164.25463 C 1004.8039,165.0416 1004.594,166.66801 1005.3286,167.61237 C 1006.0631,168.55674 1007.1648,169.55357 1007.1648,169.55357 C 1007.1648,169.55357 1005.502,166.38774 1006.2205,164.93668 C 1007.0083,163.34578 1008.6338,163.52013 1008.5814,163.52013 z"
       id="path3143"
       sodipodi:nodetypes="cssscsc"
       transform="matrix(15.81543,0,0,15.81543,-15730.686,-2436.6028)" />
    <path
       style="fill:url(#radialGradient2717);fill-opacity:1;fill-rule:evenodd;stroke:none;stroke-width:0.2;stroke-linecap:butt;stroke-linejoin:miter;stroke-miterlimit:4;stroke-dasharray:none;stroke-opacity:1"
       d="M 232.24977,117.90957 C 202.48829,119.99878 171.04722,140.96609 160.58689,158.93084 C 146.63927,182.88378 168.60532,226.06323 200.89094,251.01839 C 245.13618,285.21799 311.32692,286.49161 311.32692,286.49177 C 311.32692,285.46013 354.56314,298.44254 337.02699,247.89263 C 311.84883,175.3161 294.83617,139.87261 260.91524,122.85189 C 252.2294,118.493 242.17079,117.21321 232.24977,117.90957 z M 190.63463,146.25066 C 220.8168,136.84016 239.66721,177.83992 253.00752,194.51555 C 269.4271,215.03908 310.83348,275.56963 310.83348,275.56963 L 319.23464,286.44274 C 319.23464,286.44274 314.65923,286.51549 268.82295,275.56963 C 222.98826,264.62377 190.02574,233.57034 188.6577,230.83395 C 161.34762,198.42118 153.31022,158.40592 190.63463,146.25066 z"
       id="path3145"
       sodipodi:nodetypes="csssssccsccscc" />
    <path
       style="fill:url(#linearGradient2714);fill-opacity:1;fill-rule:evenodd;stroke:none;stroke-width:0.2;stroke-linecap:butt;stroke-linejoin:miter;stroke-miterlimit:4;stroke-dasharray:none;stroke-opacity:1"
       d="M 253.70815,276.3759 C 253.70815,276.3759 224.64413,290.90775 211.22948,295.37909 C 197.81642,299.85043 124.03902,294.26126 124.03902,294.26126 L 162.04508,306.55744 L 151.98488,328.91429 C 151.98488,328.91429 207.71529,329.4585 227.997,326.67862 C 257.9198,322.57736 267.12121,298.7326 308.48173,297.61476 C 333.29297,296.94419 346.48778,299.85043 346.48778,299.85043 C 346.48778,299.85043 312.95275,273.02224 253.70815,276.3759 z"
       id="path3147"
       sodipodi:nodetypes="cscccsscc" />
    <path
       sodipodi:nodetypes="cssccc"
       id="path3149"
       d="M 1019.9033,171.39216 C 1019.9033,171.39216 1016.8375,169.95712 1016.12,169.95712 C 1015.4025,169.95712 1014.2284,171.32693 1014.5545,172.17491 C 1014.8807,173.02289 1017.4246,173.60996 1018.2073,173.60996 C 1018.9043,173.43119 1019.5381,173.21017 1020.2294,172.89243 C 1020.2294,172.43583 1019.9033,171.39216 1019.9033,171.39216 z"
       style="fill:#000000;fill-opacity:1;fill-rule:evenodd;stroke:none;stroke-width:0.2;stroke-linecap:butt;stroke-linejoin:miter;stroke-miterlimit:4;stroke-dasharray:none;stroke-opacity:1;filter:url(#filter4875)"
       transform="matrix(15.81543,0,0,15.81543,-15730.686,-2436.6028)" />
    <path
       style="fill:url(#linearGradient2680);fill-opacity:1;fill-rule:evenodd;stroke:none;stroke-width:1px;stroke-linecap:butt;stroke-linejoin:miter;stroke-opacity:1;filter:url(#filter4943)"
       d="M 1011.8921,167.01282 L 1014.6735,171.39361 L 1016.0643,170.35056 C 1016.0643,170.35056 1014.6735,167.22143 1013.9086,165.83071 C 1013.1437,164.43998 1012.5874,163.81415 1012.5874,163.81415 C 1012.5874,163.81415 1013.7696,166.73468 1013.4914,167.29097 C 1013.2133,167.84726 1012.0311,167.01282 1011.8921,167.01282 z"
       id="path3151"
       transform="matrix(15.81543,0,0,15.81543,-15730.686,-2436.6028)" />
    <path
       style="fill:url(#radialGradient2709);fill-opacity:1;fill-rule:evenodd;stroke:none;stroke-width:0.2;stroke-linecap:butt;stroke-linejoin:miter;stroke-miterlimit:4;stroke-dasharray:none;stroke-opacity:1"
       d="M 398.03027,272.81348 C 393.14488,268.68549 348.46946,248.77592 337.12189,248.77592 C 325.77432,248.77592 307.20542,270.44006 312.36283,283.85123 C 317.52182,297.26239 357.7547,306.54716 370.13343,306.54716 C 381.15679,303.71983 391.18061,300.22431 402.11382,295.19911 C 402.11382,287.97779 404.26155,279.90828 398.03027,272.81348 z"
       id="path3153"
       sodipodi:nodetypes="cssccc" />
    <path
       style="fill:url(#linearGradient2706);fill-opacity:1;fill-rule:evenodd;stroke:none;stroke-width:0.2;stroke-linecap:butt;stroke-linejoin:miter;stroke-miterlimit:4;stroke-dasharray:none;stroke-opacity:1"
       d="M 379.46454,306.11239 C 379.46454,306.11239 414.99706,319.13798 436.88878,322.5587 C 458.7805,325.97926 503.28987,333.47704 514.23572,329.3723 C 525.18158,325.26772 584.69979,312.95351 592.90958,299.95529 C 601.11937,286.95706 549.12614,284.90469 549.12614,284.90469 C 549.12614,284.90469 519.70786,303.37585 499.18418,304.74404 C 478.66208,306.11239 418.45906,291.74581 418.45906,291.74581 L 380.14776,302.00766 L 379.46454,306.11239 z"
       id="path3155"
       sodipodi:nodetypes="cssscsccc" />
    <path
       style="fill:url(#linearGradient2686);fill-opacity:1;fill-rule:evenodd;stroke:none;stroke-width:1px;stroke-linecap:butt;stroke-linejoin:miter;stroke-opacity:1;filter:url(#filter5073)"
       d="M 1015.6138,169.97593 C 1015.6138,169.97593 1015.9615,169.81296 1016.2586,169.90806 C 1016.6827,170.04381 1017.0229,170.09496 1017.9384,170.48498 C 1018.9257,170.90557 1019.5921,171.23632 1019.66,171.28723 C 1020.2176,171.76629 1019.838,172.27369 1019.8558,172.82659 C 1019.5164,172.99627 1018.4644,173.33563 1018.3117,173.36957 C 1017.6052,172.71752 1018.3941,171.61251 1019.3635,171.52953 C 1019.2353,171.31498 1018.1579,170.79532 1017.9028,170.67656 C 1017.0746,170.3472 1016.1568,170.02683 1016.1568,170.02683 C 1016.1568,170.02683 1015.309,169.92183 1014.935,170.63769 C 1015.0199,170.28135 1015.6477,169.942 1015.6138,169.97593 z"
       id="path3157"
       sodipodi:nodetypes="csscccccccc"
       transform="matrix(15.81543,0,0,15.81543,-15730.686,-2436.6028)" />
    <g
       id="g3159"
       transform="matrix(15.81543,0,0,15.81543,-15730.686,-2436.6028)">
      <path
         sodipodi:nodetypes="ccccscscccc"
         id="path3161"
         d="M 1019.0243,173.11741 L 1021.1439,172.59834 C 1021.1439,172.59834 1024.6044,169.6569 1024.9937,169.48388 C 1026.9875,167.84038 1029.4757,167.23348 1031.5254,167.9699 C 1031.5254,167.9699 1031.3091,165.33126 1030.617,164.98521 C 1029.9249,164.63916 1028.0216,164.37962 1028.0216,164.37962 C 1028.0216,164.37962 1025.4472,166.10597 1025.1444,166.40876 C 1024.8416,166.71156 1020.438,171.04017 1020.438,171.04017 L 1019.0607,172.65933 L 1018.7853,173.22447 L 1019.0243,173.11741 z"
         style="fill:url(#linearGradient2688);fill-opacity:1;fill-rule:evenodd;stroke:none;stroke-width:0.2;stroke-linecap:butt;stroke-linejoin:miter;stroke-miterlimit:4;stroke-dasharray:none;stroke-opacity:1" />
      <path
         sodipodi:nodetypes="cscssccssssc"
         id="path3163"
         d="M 1029.7642,163.55151 C 1026.3902,163.76779 1019.7723,171.60769 1019.383,172.04026 C 1018.9937,172.47282 1018.405,173.40553 1018.4482,173.36228 C 1018.4482,173.36228 1022.6618,175.23655 1026.2954,175.02026 C 1029.9289,174.80398 1034.4752,172.60984 1034.9499,169.48054 C 1035.4957,165.88357 1033.1382,163.33523 1029.7642,163.55151 z M 1027.466,165.04392 C 1028.6058,164.83595 1031.0454,164.81807 1030.608,168.45776 C 1030.3372,170.71117 1028.7199,174.28474 1025.3892,174.45776 C 1022.0584,174.63079 1018.8032,173.19024 1018.8464,173.14699 C 1018.8464,173.147 1024.1416,167.53704 1024.358,167.36401 C 1024.5742,167.19098 1026.1617,165.36171 1027.466,165.04392 z"
         style="fill:url(#linearGradient2690);fill-opacity:1;fill-rule:evenodd;stroke:none;stroke-width:0.2;stroke-linecap:butt;stroke-linejoin:miter;stroke-miterlimit:4;stroke-dasharray:none;stroke-opacity:1" />
    </g>
    <path
       style="opacity:0.55797101;fill:url(#linearGradient2692);fill-opacity:1;fill-rule:evenodd;stroke:none;stroke-width:1px;stroke-linecap:butt;stroke-linejoin:miter;stroke-opacity:1;filter:url(#filter5115)"
       d="M 1004.723,164.65577 C 1004.5753,163.84498 1006.19,162.65016 1007.554,162.12551 C 1008.9181,161.60086 1010.6201,161.76921 1010.6201,161.76921 C 1010.6201,161.76921 1009.1252,162.44029 1008.5065,162.8929 C 1007.2599,162.76619 1006.1167,163.30048 1006.1167,163.30048 C 1006.1167,163.30048 1005.3975,163.57783 1004.723,164.65577 z"
       id="path3165"
       sodipodi:nodetypes="cscccc"
       transform="matrix(15.81543,0,0,15.81543,-15730.686,-2436.6028)" />
    <path
       sodipodi:nodetypes="cscccc"
       id="path3167"
       d="M 1026.807,165.51959 C 1027.64,164.38201 1028.079,163.87561 1029.724,163.38873 C 1031.1255,162.97396 1033.4757,164.05831 1033.4757,164.05831 C 1033.4757,164.05831 1032.1842,165.4332 1031.5655,165.88581 C 1030.8818,164.95169 1029.0665,164.66802 1029.0665,164.66802 C 1029.0665,164.66802 1028.0113,164.52461 1026.807,165.51959 z"
       style="opacity:0.55797101;fill:url(#linearGradient2694);fill-opacity:1;fill-rule:evenodd;stroke:none;stroke-width:1px;stroke-linecap:butt;stroke-linejoin:miter;stroke-opacity:1;filter:url(#filter5115)"
       transform="matrix(15.416185,3.5311269,-3.5311269,15.416185,-14737.787,-6002.8716)"
       inkscape:transform-center-y="-0.94061226" />
    <path
       style="fill:url(#linearGradient2696);fill-opacity:1;fill-rule:evenodd;stroke:none;stroke-width:1px;stroke-linecap:butt;stroke-linejoin:miter;stroke-opacity:1;filter:url(#filter5389)"
       d="M 1030.7773,165.69952 C 1030.7773,165.69952 1031.4911,167.45656 1031.1068,168.93906 C 1030.7224,170.42156 1030.0635,171.30008 1030.0635,171.30008 C 1030.0635,171.30008 1032.0951,171.68443 1033.0835,171.24517 C 1034.0718,170.80592 1034.6209,169.9823 1034.6209,169.9823 C 1034.6209,169.9823 1035.0601,167.51147 1034.4561,166.35841 C 1033.8522,165.20536 1033.1384,164.93082 1033.1384,164.93082 C 1033.1384,164.93082 1031.6559,164.93082 1030.7773,165.69952 z"
       id="path3169"
       transform="matrix(15.81543,0,0,15.81543,-15730.686,-2436.6028)" />
  </g>
</svg>
