<?xml version="1.0" encoding="UTF-8" standalone="no"?>
<!-- Created with Inkscape (http://www.inkscape.org/) -->

<svg
   xmlns:dc="http://purl.org/dc/elements/1.1/"
   xmlns:cc="http://creativecommons.org/ns#"
   xmlns:rdf="http://www.w3.org/1999/02/22-rdf-syntax-ns#"
   xmlns:svg="http://www.w3.org/2000/svg"
   xmlns="http://www.w3.org/2000/svg"
   xmlns:xlink="http://www.w3.org/1999/xlink"
   xmlns:sodipodi="http://sodipodi.sourceforge.net/DTD/sodipodi-0.dtd"
   xmlns:inkscape="http://www.inkscape.org/namespaces/inkscape"
   id="svg1"
   sodipodi:version="0.32"
   inkscape:version="0.47pre3 r22311"
   width="180.92152"
   height="85.68071"
   sodipodi:docname="nicubunu_Sledge.svg"
   version="1.1">
  <defs
     id="defs3">
    <linearGradient
       id="linearGradient1644">
      <stop
         style="stop-color: rgb(104, 104, 104); stop-opacity: 1;"
         offset="0.0000000"
         id="stop1645" />
      <stop
         style="stop-color: rgb(150, 150, 150); stop-opacity: 1;"
         offset="1.0000000"
         id="stop1646" />
    </linearGradient>
    <linearGradient
       id="linearGradient1577">
      <stop
         style="stop-color: rgb(97, 52, 2); stop-opacity: 1;"
         offset="0.0000000"
         id="stop1578" />
      <stop
         style="stop-color: rgb(131, 100, 89); stop-opacity: 1;"
         offset="1.0000000"
         id="stop1579" />
    </linearGradient>
    <linearGradient
       inkscape:collect="always"
       xlink:href="#linearGradient1577"
       id="linearGradient1580"
       x1="78.859756"
       y1="193.01258"
       x2="25.934683"
       y2="133.94368"
       gradientTransform="scale(1.9726553,0.50693095)"
       gradientUnits="userSpaceOnUse" />
    <linearGradient
       inkscape:collect="always"
       xlink:href="#linearGradient1644"
       id="linearGradient2955"
       gradientTransform="scale(1.70196,0.587559)"
       x1="79.636971"
       y1="214.70096"
       x2="36.795177"
       y2="137.54723"
       gradientUnits="userSpaceOnUse" />
    <linearGradient
       inkscape:collect="always"
       xlink:href="#linearGradient1644"
       id="linearGradient2962"
       gradientTransform="scale(0.981336,1.01902)"
       x1="61.62709"
       y1="113.85464"
       x2="53.8797"
       y2="106.00007"
       gradientUnits="userSpaceOnUse" />
    <linearGradient
       inkscape:collect="always"
       xlink:href="#linearGradient1644"
       id="linearGradient2969"
       gradientTransform="scale(0.868413,1.15153)"
       x1="153.26562"
       y1="104.03659"
       x2="142.76176"
       y2="93.793236"
       gradientUnits="userSpaceOnUse" />
    <linearGradient
       inkscape:collect="always"
       xlink:href="#linearGradient1644"
       id="linearGradient2976"
       gradientTransform="scale(1.86132,0.537254)"
       x1="93.122017"
       y1="168.00035"
       x2="44.99749"
       y2="101.82324"
       gradientUnits="userSpaceOnUse" />
    <linearGradient
       inkscape:collect="always"
       xlink:href="#linearGradient1577"
       id="linearGradient2983"
       gradientTransform="scale(3.51467,0.284522)"
       x1="27.519945"
       y1="361.88638"
       x2="28.999371"
       y2="345.18854"
       gradientUnits="userSpaceOnUse" />
    <linearGradient
       inkscape:collect="always"
       xlink:href="#linearGradient1577"
       id="linearGradient3000"
       gradientTransform="scale(0.655824,1.5248)"
       x1="248.81599"
       y1="66.742897"
       x2="230.88255"
       y2="53.469612"
       gradientUnits="userSpaceOnUse" />
  </defs>
  <sodipodi:namedview
     id="base"
     pagecolor="#ffffff"
     bordercolor="#666666"
     borderopacity="1.0"
     inkscape:pageopacity="0.0"
     inkscape:pageshadow="2"
     inkscape:zoom="3.83125"
     inkscape:cx="73.881355"
     inkscape:cy="38.584474"
     inkscape:window-width="1152"
     inkscape:window-height="778"
     inkscape:window-x="0"
     inkscape:window-y="25"
     inkscape:current-layer="svg1"
     showgrid="false"
     inkscape:window-maximized="0" />
  <metadata
     id="metadata4">
    <rdf:RDF>
      <cc:Work
         rdf:about="">
        <dc:format>image/svg+xml</dc:format>
        <dc:type
           rdf:resource="http://purl.org/dc/dcmitype/StillImage" />
      </cc:Work>
    </rdf:RDF>
  </metadata>
  <g
     id="g3011"
     transform="translate(-6.1186448,-46.71875)">
    <g
       id="g3006">
      <path
         style="fill:url(#linearGradient2969);fill-opacity:1;fill-rule:evenodd;stroke:none"
         d="m 128.36218,104.50558 -6.69856,0.63796 c 4.14673,2.87081 6.50221,14.82051 5.22629,16.4154 0,0.31898 6.30586,-0.12262 7.26279,0.83431 2.23285,-1.91387 0.90805,-16.61174 -5.79052,-17.88767 z"
         id="path1641"
         sodipodi:nodetypes="ccccc" />
      <path
         style="fill:url(#linearGradient2962);fill-opacity:1;fill-rule:evenodd;stroke:none"
         d="m 55.183413,103.66826 6.379585,0 c -4.14673,2.87081 -7.017544,11.80224 -5.741627,13.39713 0,0.31898 -5.741627,0.31898 -6.379585,0 -2.232855,-1.91387 -0.956938,-12.1212 5.741627,-13.39713 z"
         id="path955"
         sodipodi:nodetypes="ccccc" />
      <path
         style="fill:url(#linearGradient2955);fill-opacity:1;fill-rule:evenodd;stroke:none"
         d="m 31.578947,73.365235 c -16.905901,1.91388 -24.2424239,9.56937 -24.2424239,22.96651 -0.318979,9.569355 1.913876,23.923425 18.8197769,25.199345 17.543859,1.27592 150.55822,9.2504 150.23924,10.20734 l -4.46571,-8.61244 -138.437007,-7.01755 c -14.992025,-1.27592 -17.224881,-8.93141 -17.543859,-16.905895 0.318978,-7.97447 0.318979,-16.26794 14.673045,-18.50079 0.31898,-0.95694 0.956938,-7.33652 0.956938,-7.33652 z"
         id="path953"
         sodipodi:nodetypes="ccccccccc" />
      <path
         style="fill:url(#linearGradient2976);fill-opacity:1;fill-rule:evenodd;stroke:none"
         d="m 55.196853,47.368422 c -14.354068,1.91388 -20.733654,6.379582 -20.733654,17.862842 -0.318979,7.01753 1.594897,15.629965 14.354069,16.586906 17.543858,1.27592 138.437012,8.61245 138.118032,9.56939 L 183.42653,84.68899 57.110729,76.395524 C 46.903392,75.757563 41.161764,74.800638 40.842786,65.231251 c -10e-7,-7.01753 0.956938,-10.845296 14.035088,-13.078146 0.31898,-0.95694 0.318979,-4.784683 0.318979,-4.784683 z"
         id="path1642"
         sodipodi:nodetypes="ccccccccc" />
    </g>
    <path
       style="fill:#000000;fill-opacity:1;fill-rule:evenodd;stroke:none"
       d="m 55.34375,46.71875 c -7.748085,1.013595 -18.070665,2.839381 -21.35279,10.980321 -1.999984,6.544154 -2.968983,14.853249 1.881009,20.292413 6.08225,6.031958 16.617504,4.337258 24.380796,5.340866 41.364615,2.77568 83.090565,5.643024 124.407955,9.06718 2.31119,1.313758 3.05634,0.230345 1.71263,-2.411695 -1.00766,-1.934568 -1.39377,-3.86075 -2.39164,-5.800335 C 140.29018,81.249671 95.625455,78.19949 51.9413,75.16819 46.518405,75.16269 41.30905,72.309949 41.650381,66.12813 c -1.561894,-6.722151 3.180661,-12.026942 9.551172,-12.621358 5.251018,0.770915 3.951872,-3.372421 4.142197,-6.788022 z m -1.25,1.5 c 2.805568,6.814968 -10.35648,3.187139 -12.747309,9.233604 -2.396568,4.817482 -2.480339,11.612734 1.190293,15.863893 5.436229,4.459075 12.916999,3.388816 19.500597,4.135367 40.175059,2.641129 80.350109,5.282257 120.525169,7.923386 0.8333,1.708139 1.41626,3.650159 2.01829,5.21875 C 146.22193,87.334229 108.40835,85.279472 69.998772,82.705324 61.419385,81.938923 52.724175,82.036715 44.22791,80.605113 37.809279,79.394788 34.149052,72.814418 34.563645,66.646678 34.14531,60.753928 36.261558,54.100879 42.047878,51.543281 45.7916,49.644824 49.977293,48.837512 54.09375,48.21875 z m -22.28125,24.5 c -9.579253,0.82209 -20.720409,4.50949 -24.1257477,14.492787 -2.4534284,8.475346 -2.2258586,18.283303 2.0995093,26.137903 4.0469594,7.227 12.7716374,9.22042 20.4273884,9.1838 47.79859,3.16869 95.6426,5.73157 143.39368,9.56634 2.13104,0.79351 2.89793,-0.11253 2.50355,-1.26313 -1.42086,-2.74834 -1.57794,-5.4905 -2.99121,-8.2427 -12.18587,-0.64925 -25.33221,-1.24593 -37.51944,-1.875 1.26483,-5.44098 0.49732,-11.9809 -3.82785,-15.66178 -2.85754,-2.10518 -7.72073,-0.35119 -10.93571,-0.43417 -3.20843,0.094 4.54572,3.90167 3.64844,6.61748 0.75408,2.68036 4.33205,9.59945 -0.89279,8.2731 -22.58285,-1.14419 -44.527753,-1.96941 -67.110611,-3.11361 -0.242665,-5.26973 2.709619,-9.5105 7.21875,-12.31783 -3.23582,0.20263 -7.230574,-1.39404 -10.381717,-0.5967 -6.006188,1.40205 -5.356617,10.21444 -6.467711,12.77848 -7.839039,-0.72636 -16.400386,-0.38191 -23.749703,-3.72699 -7.147267,-3.30358 -6.691931,-11.53867 -5.727637,-18.4189 0.152702,-5.823202 5.158437,-10.223624 10.875755,-11.31148 6.392795,0.701004 2.436958,-6.082842 3.563054,-10.0876 z m -1.40625,1.46875 c 1.537874,6.894895 -1.525972,7.308455 -6.445662,7.593499 -6.109691,1.965014 -9.075564,8.423496 -8.983995,14.465773 -0.806652,7.101158 1.368151,15.711618 8.757701,18.456828 7.732097,3.02473 16.177415,2.14482 24.297129,2.87982 4.709977,-0.68977 0.147898,0.82161 0.854651,-6.33377 0.55097,-4.5153 4.725693,-7.67994 9.135445,-6.87465 3.99516,-0.36588 -3.609168,4.81195 -2.807908,7.40883 -0.847761,2.56462 -0.263215,5.98283 -3.253716,5.46103 1.224846,0.23499 5.829212,0.20716 7.236572,0.77995 38.03269,1.92868 73.832033,3.85769 111.866033,5.75644 1.23958,2.39583 2.47917,4.79167 3.71875,7.1875 C 136.63056,127.75805 98.389778,125.05779 60.187073,122.5496 47.499112,121.59342 34.734688,120.98661 22.10427,119.49817 13.752525,118.18186 9.3082689,111.1353 8.707205,103.10837 7.6956173,94.636391 7.4860713,84.311447 15.351978,79.187562 19.784909,76.152664 25.149872,74.876732 30.40625,74.1875 z m 97.375,31.03125 c 5.41393,1.86731 6.15815,8.64975 6.02153,13.74823 0.72561,3.81883 -4.73737,1.08372 -6.27153,1.33198 1.09972,-4.8761 -4.1373,-12.25381 -3.94804,-14.67313 1.39935,-0.13569 2.79869,-0.27139 4.19804,-0.40708 z"
       id="path1650"
       sodipodi:nodetypes="cccccccccccccccccccccccccccccccccccccccccccccccccccccccccccccccc" />
    <g
       id="g3001">
      <path
         style="fill:url(#linearGradient1580);fill-opacity:1;fill-rule:evenodd;stroke:none"
         d="M 68.580543,66.028705 42.382951,96.609429 150.23923,97.84405 166.18819,66.34769 68.580543,66.028705 z"
         id="path950"
         sodipodi:nodetypes="ccccc" />
      <path
         style="fill:url(#linearGradient2983);fill-opacity:1;fill-rule:evenodd;stroke:none"
         d="m 42.326688,96.234182 1e-6,7.434078 107.593571,1.27592 -1e-5,-7.655504 -107.593562,-1.054494 z"
         id="path951"
         sodipodi:nodetypes="ccccc" />
      <path
         style="fill:url(#linearGradient3000);fill-opacity:1;fill-rule:evenodd;stroke:none"
         d="m 149.50372,97.566362 16.58692,-31.496358 0.0976,7.933189 -16.32421,30.858407 -0.36027,-7.295238 z"
         id="path952"
         sodipodi:nodetypes="ccccc" />
      <path
         style="fill:#000000;fill-opacity:1;fill-rule:evenodd;stroke:none"
         d="m 68.36244,64.941343 c -1.079422,1.259119 -3.717694,3.315834 -4.8125,4.59375 -1.094806,1.277917 0.918294,0.489908 -0.1875,1.78125 -1.105794,1.291345 -3.655226,3.490945 -5.15625,4.53125 0.18307,0.263035 -0.283145,1.305305 -0.75,2.21875 -1.114585,1.302085 -4.302954,4.152312 -5.15625,4.15625 0.05352,-0.125604 -0.02432,1.691619 -0.09375,1.6875 -1.105796,1.291339 -5.441559,5.557887 -5.5,5.28125 0.229871,-0.138321 0.33815,1.207456 0.3125,1 -0.932472,1.347093 -4.585287,5.026693 -5.125,5.65625 0.09136,-0.141149 -0.124769,2.593894 -0.15625,2.46875 0,1.819807 0,3.648937 0,5.468747 36.279792,0.48261 71.96891,1.03821 108.25,1.46875 0.0348,-0.0213 3.3026,-4.81001 3.66368,-5.457626 0.18054,-0.323808 0.68663,-2.032481 0.72452,-2.105257 -0.0673,0.03245 2.8695,-4.612642 2.86077,-4.706296 -0.12269,0.128364 0.91491,-2.371865 0.7611,-2.485339 -0.0486,-0.0083 2.39428,-2.890941 3.29335,-4.579739 -0.048,0.205232 0.1491,-1.868034 0.23873,-1.941016 -0.12079,0.03224 2.17637,-3.196431 3.06671,-4.881116 0.0485,-0.106326 0.47906,-2.035832 0.51825,-1.93063 -0.066,-1.157486 1.16019,-2.384745 1.74789,-3.506728 0.0609,-2.553061 -0.36456,-6.025947 -0.0937,-8.53125 -1.4266,0.08615 -66.48358,-0.08674 -98.40625,-0.1875 z m 0.5625,1.25 c 32.125,0.103931 64.25,0.208569 96.375,0.3125 -0.76892,1.532685 -0.98395,3.263827 -1.82593,4.875 l -98.39282,-1.125 c 1.19753,-1.396162 2.646573,-2.666032 3.84375,-4.0625 z m 96.59375,1.3125 c 0.0229,2.016192 0.17916,4.063715 0,6.03125 -0.45076,0.852597 -0.89299,1.709874 -1.34375,2.5625 l -0.26343,-3.988526 c 0.78574,-1.50952 0.90231,-3.200204 1.60718,-4.605224 z m -100,3.875 96.5625,1.25 c -0.87351,1.659424 -1.30282,3.595696 -2.2041,5.284422 l -99.7959,-1.440672 5.4375,-5.09375 z m 97.03125,1.875 1.08545,4.986567 c -0.86458,1.635381 -1.93941,2.534354 -2.8042,4.169683 -0.0597,-0.545175 -0.47506,-3.53706 -0.5708,-3.75513 -0.005,-0.01244 1.45859,-3.796147 2.28955,-5.40112 z m -102.875,4.46875 99.09375,1.1875 c -1.13776,2.127642 -1.61702,4.015299 -2.75513,6.144776 L 54.33119,83.191343 c 1.5625,-1.822916 3.780514,-3.646465 5.34375,-5.46875 z m 99.46875,2.0625 c 0.0813,0.407241 1.43554,4.861567 1.43554,4.861567 0,0 -2.53184,3.001616 -3.52929,4.888433 l -0.39478,-3.809328 c 0,0 1.4126,-3.881895 2.48853,-5.940672 z m -104.96875,4.25 100.78125,2.125 c -1.10991,2.081339 -1.60685,4.279945 -2.69263,6.335448 L 48.42494,89.910093 c 1.531401,-1.791538 4.216273,-4.085455 5.75,-5.875 z m 101.28125,2.8125 0.95215,5.017817 c 0,0 -2.14813,2.983178 -3.13965,4.857183 l -0.5791,-3.22388 c 1.16793,-2.25986 1.37813,-3.948664 2.7666,-6.65112 z m -107.1875,4.3125 102.90625,2.1875 c -0.66207,1.264336 -1.41282,2.629272 -2,3.8125 L 43.45619,95.878843 c 1.384689,-1.615203 3.430061,-3.101618 4.8125,-4.71875 z m 103.34375,3.09375 1.07715,4.545896 c 0,0 -1.91895,2.632341 -2.7334,4.172851 l -0.3125,-4.937497 c 0.0172,0.03214 1.37486,-2.643733 1.96875,-3.78125 z m -108.71875,2.71875 106.3125,1.40625 0.15625,5.468747 c -35.45834,-0.42658 -70.916661,-0.85467 -106.375,-1.28125 0.02116,-2.04134 -0.167106,-3.604603 -0.09375,-5.593747 z"
         id="path1583"
         sodipodi:nodetypes="cccccccccccccsccccccccccccccccccccccccccccccccccccccccccccccccccccccccccccccccc" />
    </g>
  </g>
</svg>
