<?xml version="1.0" encoding="UTF-8" standalone="no"?>
<!-- Created with Inkscape (http://www.inkscape.org/) -->

<svg
   xmlns:dc="http://purl.org/dc/elements/1.1/"
   xmlns:cc="http://creativecommons.org/ns#"
   xmlns:rdf="http://www.w3.org/1999/02/22-rdf-syntax-ns#"
   xmlns:svg="http://www.w3.org/2000/svg"
   xmlns="http://www.w3.org/2000/svg"
   xmlns:sodipodi="http://sodipodi.sourceforge.net/DTD/sodipodi-0.dtd"
   xmlns:inkscape="http://www.inkscape.org/namespaces/inkscape"
   width="271.48236"
   height="448.2023"
   id="svg23820"
   sodipodi:version="0.32"
   inkscape:version="0.47pre3 r22311"
   sodipodi:docname="artmaster_snowman.svg"
   version="1.0"
   inkscape:output_extension="org.inkscape.output.svg.inkscape"
   inkscape:export-filename="/home/andre/data/projekte_privat/inkscape/schneeman_01.png"
   inkscape:export-xdpi="33.880001"
   inkscape:export-ydpi="33.880001">
  <sodipodi:namedview
     inkscape:document-units="mm"
     id="base"
     pagecolor="#ffffff"
     bordercolor="#666666"
     borderopacity="1.0"
     inkscape:pageopacity="0.0"
     inkscape:pageshadow="2"
     inkscape:zoom="0.98994949"
     inkscape:cx="152.78171"
     inkscape:cy="219.37261"
     inkscape:current-layer="layer1"
     inkscape:window-width="1038"
     inkscape:window-height="766"
     inkscape:window-x="0"
     inkscape:window-y="0"
     showgrid="false"
     inkscape:window-maximized="0" />
  <defs
     id="defs3" />
  <metadata
     id="metadata4">
    <rdf:RDF>
      <cc:Work
         rdf:about="">
        <dc:format>image/svg+xml</dc:format>
        <dc:type
           rdf:resource="http://purl.org/dc/dcmitype/StillImage" />
      </cc:Work>
    </rdf:RDF>
  </metadata>
  <g
     inkscape:label="Layer 1"
     id="layer1"
     transform="translate(-214.404, -307.765)"
     inkscape:groupmode="layer">
    <g
       id="g2846">
      <path
         id="rect24175"
         d="M 336.96604,389.29597 L 336.62229,389.79597 C 328.7197,389.40446 317.40124,392.19115 309.40354,396.73347 C 288.29926,408.71973 287.88515,436.25348 290.40354,458.23347 C 292.04477,472.55783 322.34939,484.0543 302.05979,492.63972 C 287.1609,498.94409 284.25475,521.93679 269.74729,520.98347 C 254.61459,519.98906 234.41314,508.30838 223.21604,523.95222 C 209.86381,542.60706 235.57697,572.55746 255.02854,561.76472 C 272.95627,551.81749 276.7599,570.0596 284.59104,581.20222 C 297.99378,600.27245 277.70695,609.36907 269.68479,622.29597 C 258.92006,639.64225 257.60254,659.69752 255.93479,679.23347 C 254.16195,700.00051 254.9408,726.33307 274.68479,738.73347 C 299.32513,754.20908 329.27281,752.23321 356.96604,751.17097 C 381.48993,750.23028 412.46349,744.83248 423.49729,721.10847 C 429.66901,707.83852 429.27062,684.30101 427.90354,669.04597 C 426.24859,650.57853 425.59348,635.86302 412.55979,622.35847 C 401.70899,611.11566 383.62368,602.4232 390.40354,586.04597 C 395.66419,573.33849 406.20503,559.56569 423.24729,565.51472 C 442.66287,572.2922 459.72701,545.42733 456.65354,530.01472 C 453.19652,512.67868 426.48524,521.50739 412.37229,522.51472 C 393.87573,523.83494 393.45077,498.94552 376.87229,493.38972 C 361.87318,488.3632 371.63049,479.50753 377.80979,470.38972 C 387.61812,455.91712 387.89255,434.26977 380.65354,417.17097 C 373.07901,399.27968 355.96266,389.14456 336.96604,389.29597 z "
         style="fill: rgb(255, 255, 255); fill-opacity: 1; fill-rule: nonzero; stroke: none; stroke-width: 3; stroke-linecap: round; stroke-linejoin: round; stroke-miterlimit: 4; stroke-dashoffset: 0pt; stroke-opacity: 1;" />
      <path
         sodipodi:nodetypes="csssssssssssssssssssssscssssssssssssssssssssss"
         id="path2160"
         d="M 336.58472,384.60284 C 316.17498,383.57878 294.98054,393.77593 287.39001,412.83732 C 280.77533,429.44815 280.29786,450.92482 288.48858,467.44469 C 293.29087,477.13041 309.93186,486.59437 292.69985,492.82781 C 278.67967,497.89942 277.3303,526.0051 259.28571,513.46124 C 245.08264,503.58785 220.55247,509.59974 215.35773,528.31494 C 208.84495,551.77868 237.01416,578.50156 259.05957,564.9018 C 273.74866,555.84014 275.57138,578.94279 282.71642,587.46974 C 293.17915,599.95605 265.82462,613.23448 260.8683,628.4711 C 253.84527,650.06117 248.36354,673.1109 250.40166,695.7206 C 251.92446,712.61367 255.03038,731.46621 270.79387,741.78172 C 290.43368,754.63386 315.1704,755.28507 337.91062,755.86526 C 353.89828,756.27317 369.98534,755.53914 385.79879,752.12166 C 405.04304,747.96273 422.72443,735.87892 428.92417,716.61166 C 435.82286,695.17225 434.90021,672.07196 430.88775,650.72988 C 424.72469,617.94885 400.44345,610.8414 394.02492,593.93517 C 389.8216,582.86374 406.75763,564.98856 426.25133,570.39531 C 445.1377,575.63361 459.37844,553.58853 461.75338,536.47225 C 464.61114,515.87619 438.30819,508.83313 423.90845,514.91677 C 404.41126,523.15398 400.26156,503.15546 388.87804,494.65641 C 380.84854,488.66151 368.79292,485.84843 380.14014,474.71474 C 400.34794,454.88721 393.02566,414.25644 371.07302,395.34335 C 361.78729,387.34332 348.90398,384.00908 336.83489,384.78657 M 336.95233,389.30383 C 355.94895,389.15242 373.07306,399.2783 380.64759,417.16959 C 387.8866,434.26839 387.61677,455.91871 377.80844,470.39131 C 371.62915,479.50913 361.85976,488.35467 376.85887,493.38119 C 393.43736,498.93699 393.86919,523.84592 412.36575,522.5257 C 426.47869,521.51837 453.19617,512.67321 456.65319,530.00925 C 459.72666,545.42186 442.67843,572.30035 423.26285,565.52287 C 406.22059,559.57385 395.6626,573.33626 390.40195,586.04374 C 383.62209,602.42098 401.70514,611.11084 412.55594,622.35365 C 425.58963,635.85821 426.25208,650.57424 427.90703,669.04168 C 429.27411,684.29672 429.66472,707.84049 423.493,721.11044 C 412.4592,744.83444 381.49862,750.24148 356.97473,751.18217 C 329.28151,752.24442 299.32117,754.20564 274.68083,738.73003 C 254.93684,726.32963 254.15864,700.01072 255.93148,679.24368 C 257.59923,659.70772 258.92592,639.63705 269.69065,622.29077 C 277.71281,609.36386 298.00104,600.27161 284.5983,581.20138 C 276.76716,570.05876 272.96392,551.83057 255.03619,561.7778 C 235.58462,572.57055 209.87775,542.60645 223.22998,523.95161 C 234.42708,508.30776 254.61927,519.98641 269.75197,520.98082 C 284.25943,521.93414 287.17638,498.93715 302.07527,492.63278 C 322.36487,484.04737 292.05399,472.56764 290.41276,458.24328 C 287.89437,436.26329 288.288,408.70475 309.39228,396.71849 C 317.38998,392.17616 328.72958,389.41391 336.63217,389.80542"
         style="opacity: 1; fill: rgb(0, 0, 0); fill-opacity: 1; fill-rule: nonzero; stroke: none; stroke-width: 5; stroke-linecap: butt; stroke-linejoin: miter; stroke-miterlimit: 4; stroke-dasharray: none; stroke-dashoffset: 0pt; stroke-opacity: 1;" />
      <g
         transform="translate(95.7851, 165.679)"
         id="g5216">
        <path
           id="rect3190"
           sodipodi:nodetypes="czsccs"
           d="M 193.7027,151.98857 C 187.09556,138.84431 217.63127,147.20884 241.55984,147.20884 C 265.48841,147.20884 294.59556,139.98234 289.41699,151.98857 C 278.68413,176.87212 289.41699,245.3071 289.41699,245.3071 L 193.7027,245.3071 C 193.7027,245.3071 205.98074,176.41452 193.7027,151.98857 z "
           style="fill: rgb(0, 0, 0); fill-opacity: 1; fill-rule: nonzero; stroke: rgb(0, 0, 0); stroke-width: 5; stroke-linecap: butt; stroke-linejoin: miter; stroke-miterlimit: 4; stroke-dashoffset: 0pt; stroke-opacity: 1;" />
        <path
           id="path4162"
           sodipodi:nodetypes="cssssss"
           d="M 318.7027,240.73566 C 282.74746,246.59267 284.1427,253.5928 241.55984,253.5928 C 198.97698,253.5928 189.12787,247.35078 164.41698,240.73566 C 154.04265,237.95844 162.68264,234.74416 179.23909,232.22418 C 195.79553,229.7042 220.26841,231.87852 241.55984,231.87852 C 262.85127,231.87852 286.43304,230.39299 302.54393,233.25737 C 318.65482,236.12175 327.29482,239.33603 318.7027,240.73566 z "
           style="fill: rgb(0, 0, 0); fill-opacity: 1; fill-rule: nonzero; stroke: rgb(0, 0, 0); stroke-width: 5; stroke-linecap: butt; stroke-linejoin: miter; stroke-miterlimit: 4; stroke-dashoffset: 0pt; stroke-opacity: 1;" />
      </g>
      <path
         d="M 312.03373,434.57308 C 310.85827,434.58299 309.66168,434.80495 308.62359,435.37578 C 308.08394,436.16682 307.81791,437.13089 307.15028,437.83637 C 306.29736,439.96501 304.90869,440.46735 305.97588,443.0706 C 306.68406,444.9071 307.20224,447.25417 309.14176,447.99694 C 311.1363,448.6901 313.24785,449.18139 315.3721,449.02994 C 317.24641,448.1863 318.5523,446.24656 318.68139,444.20181 C 319.09594,442.49828 319.32013,440.75152 319.39748,439.001 C 319.05458,438.09116 318.23513,437.39029 317.29635,437.15453 M 308.96219,443.73576 C 309.66481,441.96495 310.21975,442.73166 311.19707,442.84711 C 312.17439,442.96256 313.23405,444.73017 313.04366,445.65846 C 312.29657,446.9935 308.02694,446.09288 308.96219,443.73576 z "
         sodipodi:nodetypes="ccccccccccccs"
         id="path5428"
         style="fill: rgb(0, 0, 0); fill-opacity: 1; fill-rule: nonzero; stroke: none; stroke-width: 5; stroke-linecap: butt; stroke-linejoin: miter; stroke-miterlimit: 4; stroke-dashoffset: 0pt; stroke-opacity: 1;" />
      <path
         id="path5690"
         d="M 348.71863,471.32492 C 347.92159,468.69263 351.36449,465.8915 353.32481,467.90287 C 354.88959,469.5865 354.10611,473.27084 351.67869,473.32955 C 350.60603,473.33483 348.30731,472.12313 348.86943,470.72031"
         style="fill: rgb(0, 0, 0); fill-opacity: 1; fill-rule: nonzero; stroke: none; stroke-width: 2.05882; stroke-linecap: butt; stroke-linejoin: miter; stroke-miterlimit: 4; stroke-dashoffset: 0pt; stroke-opacity: 1;" />
      <path
         d="M 344.81782,475.8359 C 344.32875,477.10364 341.34834,476.87848 340.6186,474.17973 C 340.63291,471.03543 341.52517,472.29964 342.30145,471.73236 C 343.16043,471.10465 344.34455,471.1422 345.3837,471.48159 C 346.18264,472.1183 346.47891,474.56816 344.81782,475.8359 z "
         sodipodi:nodetypes="ccscc"
         id="path5692"
         style="fill: rgb(0, 0, 0); fill-opacity: 1; fill-rule: nonzero; stroke: none; stroke-width: 2.05882; stroke-linecap: butt; stroke-linejoin: miter; stroke-miterlimit: 4; stroke-dashoffset: 0pt; stroke-opacity: 1;" />
      <path
         d="M 333.11008,477.31742 C 332.60299,477.15354 331.20691,476.46759 331.98156,474.66338 C 331.44632,472.11129 335.25637,470.36714 336.51409,472.64162 C 338.14995,474.29213 337.57634,475.86143 335.703,477.47474 C 334.1291,477.40766 333.68609,478.45355 333.11008,477.31742 z "
         sodipodi:nodetypes="ccccc"
         id="path5694"
         style="fill: rgb(0, 0, 0); fill-opacity: 1; fill-rule: nonzero; stroke: none; stroke-width: 2.05882; stroke-linecap: butt; stroke-linejoin: miter; stroke-miterlimit: 4; stroke-dashoffset: 0pt; stroke-opacity: 1;" />
      <path
         d="M 323.98917,476.29785 C 323.97702,474.89371 323.66485,476.63823 323.5215,473.52109 C 323.37814,470.40394 328.14628,469.79033 329.01467,472.59817 C 329.74451,474.6669 328.02907,477.60219 325.84795,476.86176 C 324.60191,476.4862 324.69074,477.70199 323.98917,476.29785 z "
         sodipodi:nodetypes="ccccc"
         id="path5700"
         style="fill: rgb(0, 0, 0); fill-opacity: 1; fill-rule: nonzero; stroke: none; stroke-width: 2.05882; stroke-linecap: butt; stroke-linejoin: miter; stroke-miterlimit: 4; stroke-dashoffset: 0pt; stroke-opacity: 1;" />
      <path
         d="M 315.10111,470.26637 C 314.90188,467.69539 318.65161,466.38954 319.87191,468.60216 C 321.63152,470.16116 320.2574,473.78791 318.01053,473.61544 C 315.58866,474.62797 315.12092,473.60743 314.56279,472.24475"
         sodipodi:nodetypes="cccc"
         id="path5702"
         style="fill: rgb(0, 0, 0); fill-opacity: 1; fill-rule: nonzero; stroke: none; stroke-width: 2.05882; stroke-linecap: butt; stroke-linejoin: miter; stroke-miterlimit: 4; stroke-dashoffset: 0pt; stroke-opacity: 1;" />
      <path
         id="path5732"
         sodipodi:nodetypes="ccccccccccc"
         d="M 289.23513,468.16387 C 295.63648,477.57842 297.17356,478.49711 304.07582,482.5372 C 309.00464,484.61987 314.14824,486.72718 321.03468,488.19919 C 333.35346,490.71008 354.13459,489.14804 365.67415,484.58607 C 372.0822,482.28281 374.15157,479.45717 378.98815,476.95216 C 390.13143,477.97292 391.79268,492.692 377.47116,497.99923 C 372.46128,502.99401 363.05547,508.3145 347.85076,511.41457 C 338.11516,513.44902 326.70851,513.15301 319.48645,511.43697 C 301.81005,508.59628 293.62785,502.47098 290.2455,496.21799 C 287.50089,491.23575 286.30376,486.07618 284.54855,480.98866 C 284.12343,476.81644 285.90102,472.47958 289.23513,468.16387 z "
         style="fill: rgb(254, 0, 0); fill-opacity: 1; fill-rule: nonzero; stroke: none; stroke-width: 4.91695; stroke-linecap: butt; stroke-linejoin: miter; stroke-miterlimit: 4; stroke-dashoffset: 0pt; stroke-opacity: 1;" />
      <path
         id="path6712"
         sodipodi:nodetypes="ccccccscssscsccscssscscssscsscscccccsc"
         d="M 296.79604,506.86571 C 295.88079,506.61865 295.68546,510.64407 295.13979,512.83446 C 293.46279,518.47228 291.9128,527.71216 291.63979,535.89696 C 291.17809,548.66931 292.4442,557.0291 294.10854,561.77196 C 296.21941,569.76827 297.43004,583.5335 300.70229,584.55321 C 300.83163,584.83013 301.45769,585.00951 302.32729,585.11571 C 301.83404,583.81439 301.29078,582.38153 300.73354,580.77196 C 299.11522,576.09751 297.44636,570.81111 297.38979,567.30321 C 297.37294,566.90005 297.51967,566.50347 297.79604,566.20946 C 298.07241,565.91545 298.45511,565.7488 298.85854,565.74071 C 299.26174,565.73235 299.6642,565.89599 299.95229,566.17821 C 300.24039,566.46042 300.38984,566.83742 300.38979,567.24071 C 300.42993,569.7298 301.9902,575.18772 303.57729,579.77196 C 304.27806,581.7961 304.95455,583.61412 305.51479,585.08446 C 306.23855,584.99632 306.96229,584.85161 307.67104,584.64696 C 307.07597,583.09788 306.29674,581.0306 305.51479,578.77196 C 303.89647,574.09751 302.22762,568.81111 302.17104,565.30321 C 302.15415,564.9053 302.30765,564.50255 302.57729,564.20946 C 302.84694,563.91637 303.21061,563.75698 303.60854,563.74071 C 304.01707,563.72372 304.40732,563.8638 304.70229,564.14696 C 304.99725,564.43013 305.17135,564.83183 305.17104,565.24071 C 305.21118,567.7298 306.74019,573.18772 308.32729,577.77196 C 309.06641,579.90686 309.80789,581.83199 310.38979,583.33446 C 311.30918,582.60961 311.89363,581.65916 311.85854,580.39696 C 311.85826,580.38703 311.85889,580.37567 311.85854,580.36571 C 311.4968,579.38838 311.1154,578.3437 310.73354,577.24071 C 309.11522,572.56626 307.44636,567.27987 307.38979,563.77196 C 307.36775,562.99973 307.93577,562.33703 308.70229,562.24071 C 309.13145,562.18668 309.5665,562.32836 309.88979,562.61571 C 310.21308,562.90308 310.39313,563.30818 310.38979,563.74071 C 310.42993,566.22981 311.9902,571.68771 313.57729,576.27196 C 313.77967,576.85651 313.97246,577.3739 314.17104,577.92821 C 317.20683,575.37519 314.45587,569.396 313.57729,565.02196 C 313.02977,560.7548 311.99461,558.6952 311.73354,553.17821 C 311.07397,543.18752 312.58117,527.7659 315.2514,518.09339 C 315.75834,517.15725 317.15622,514.08496 316.32729,514.02196 C 314.84841,513.2826 312.28997,512.89671 307.85854,511.39696 C 303.97698,510.0833 299.20113,507.56712 296.79604,506.86571 z "
         style="fill: rgb(254, 0, 0); fill-opacity: 1; fill-rule: nonzero; stroke: none; stroke-width: 4.91695; stroke-linecap: butt; stroke-linejoin: miter; stroke-miterlimit: 4; stroke-dashoffset: 0pt; stroke-opacity: 1;" />
      <path
         id="path6716"
         sodipodi:nodetypes="czzzz"
         d="M 332.4268,449.05754 C 326.0338,451.74838 322.1785,453.79785 317.21326,457.12183 C 312.24803,460.4458 305.01303,463.75483 317.74403,462.37015 C 330.49956,460.9828 323.13894,461.8761 332.77675,460.06365 C 342.36011,458.26143 338.7246,446.40678 332.4268,449.05754 z "
         style="fill: rgb(255, 0, 0); fill-opacity: 1; fill-rule: evenodd; stroke: none; stroke-width: 1px; stroke-linecap: butt; stroke-linejoin: miter; stroke-opacity: 1;" />
      <path
         id="path8668"
         sodipodi:nodetypes="ccccc"
         d="M 289.37938,387.70106 C 280.38692,403.18986 323.16571,400.05523 338.90745,401.70758 C 347.24872,402.34832 398.07214,402.57697 385.16509,388.23628 C 383.49984,387.23521 350.01828,393.13333 337.5363,393.88633 C 306.49156,393.35317 292.06605,386.31729 289.37938,387.70106 z "
         style="fill: rgb(255, 0, 0); fill-opacity: 1; fill-rule: evenodd; stroke: none; stroke-width: 6; stroke-linecap: butt; stroke-linejoin: miter; stroke-miterlimit: 4; stroke-dasharray: none; stroke-opacity: 1;" />
      <path
         d="M 334.29367,555.5541 C 336.05801,556.51097 339.1455,560.75139 336.17269,562.88622 C 333.43707,564.42897 329.55227,560.89436 331.23111,558.07764 C 331.86941,556.87411 333.32039,555.02626 334.29367,555.5541 z "
         sodipodi:nodetypes="cccs"
         id="path15646"
         style="fill: rgb(0, 0, 0); fill-opacity: 1; fill-rule: nonzero; stroke: rgb(0, 0, 0); stroke-width: 4.8263; stroke-linecap: butt; stroke-linejoin: miter; stroke-miterlimit: 4; stroke-dashoffset: 0pt; stroke-opacity: 1;" />
      <path
         id="path15648"
         d="M 336.29367,518.71453 C 339.4829,519.02686 340.67351,523.99438 337.90527,525.66152 C 335.76504,528.31177 330.637,525.16435 332.54532,522.09693 C 333.25505,520.51929 334.60403,519.18651 336.29367,518.71453 z "
         style="fill: rgb(0, 0, 0); fill-opacity: 1; fill-rule: nonzero; stroke: rgb(0, 0, 0); stroke-width: 4.8263; stroke-linecap: butt; stroke-linejoin: miter; stroke-miterlimit: 4; stroke-dashoffset: 0pt; stroke-opacity: 1;" />
      <path
         d="M 336.29367,575.65007 C 338.69096,574.57055 341.19678,580.82102 338.44984,582.74656 C 336.69098,585.06533 331.78045,582.78455 333.04085,580.01585 C 333.79001,578.37018 334.90941,576.27341 336.29367,575.65007 z "
         sodipodi:nodetypes="ccss"
         id="path15650"
         style="fill: rgb(0, 0, 0); fill-opacity: 1; fill-rule: nonzero; stroke: rgb(0, 0, 0); stroke-width: 4.8263; stroke-linecap: butt; stroke-linejoin: miter; stroke-miterlimit: 4; stroke-dashoffset: 0pt; stroke-opacity: 1;" />
      <path
         d="M 334.29367,537.1097 C 336.15436,536.9402 339.40165,542.17625 336.78706,544.54445 C 334.44738,546.66545 329.18323,543.42582 331.69715,540.6298 C 332.60318,539.49575 333.28107,537.20194 334.29367,537.1097 z "
         sodipodi:nodetypes="cscs"
         id="path15652"
         style="fill: rgb(0, 0, 0); fill-opacity: 1; fill-rule: nonzero; stroke: rgb(0, 0, 0); stroke-width: 4.8263; stroke-linecap: butt; stroke-linejoin: miter; stroke-miterlimit: 4; stroke-dashoffset: 0pt; stroke-opacity: 1;" />
      <path
         id="path16822"
         sodipodi:nodetypes="cccccccczccccc"
         d="M 357.49129,435.48895 C 356.41204,436.02363 357.31064,435.4937 354.33264,436.16821 C 351.35464,436.84272 349.04191,439.71017 349.01247,442.76334 C 348.50172,444.70193 350.02963,447.45502 352.0234,447.31399 C 353.1973,447.45222 353.78604,448.33015 355.0586,448.64175 C 355.81384,449.51036 357.29702,449.57859 358.1302,448.78516 C 359.30585,448.14156 360.39219,447.32688 361.64547,446.8314 C 362.71456,445.88388 362.77435,444.45465 363.01898,443.30668 C 363.99482,442.14521 363.14378,439.98265 361.65828,438.10392 C 360.11213,436.1485 358.57054,434.95427 357.49129,435.48895 z M 353.04739,444.28949 C 352.11001,442.22974 353.07251,441.77299 353.97362,441.34048 C 354.87473,440.90797 356.92499,442.8844 356.66763,443.85024 C 354.98101,444.6262 353.98477,446.34924 353.04739,444.28949 z "
         style="fill: rgb(0, 0, 0); fill-opacity: 1; fill-rule: nonzero; stroke: none; stroke-width: 5; stroke-linecap: butt; stroke-linejoin: miter; stroke-miterlimit: 4; stroke-dashoffset: 0pt; stroke-opacity: 1;" />
      <path
         id="path18634"
         sodipodi:nodetypes="ccccc"
         d="M 284.556,312.7539 C 279.58851,317.86225 301.11009,318.55979 308.94569,319.81071 C 313.10466,320.39035 347.12663,321.90543 354.30464,317.34963 C 346.71474,316.56737 330.83892,320.81351 308.49277,316.98128 C 292.95845,315.48008 285.94313,312.37712 284.556,312.7539 z "
         style="fill: rgb(255, 255, 255); fill-opacity: 1; fill-rule: evenodd; stroke: none; stroke-width: 6; stroke-linecap: butt; stroke-linejoin: miter; stroke-miterlimit: 4; stroke-dasharray: none; stroke-opacity: 1;" />
      <path
         d="M 415.14896,565.57206 C 411.05532,581.57977 410.96218,587.71465 405.12965,599.82923 C 398.53653,612.85054 382.37677,635.12599 388.94815,636.47517 C 398.72576,636.31518 396.42637,633.25213 399.53569,626.89439 C 405.89001,618.12573 412.74838,600.99631 416.94893,582.96935 C 421.84503,568.80785 419.53079,579.11451 421.43696,566.58031 C 418.43075,564.87062 426.94164,567.74297 415.14896,565.57206 z "
         sodipodi:nodetypes="ccccccc"
         id="path19610"
         style="fill: rgb(0, 0, 0); fill-opacity: 1; fill-rule: evenodd; stroke: none; stroke-width: 1px; stroke-linecap: butt; stroke-linejoin: miter; stroke-opacity: 1;" />
      <g
         transform="translate(373.011, 26.5174)"
         id="g21876">
        <path
           d="M 58.59375,335.0625 C 58.089764,335.08323 57.591686,335.17969 57.09375,335.28125 C 57.177123,335.57478 57.24861,335.83086 57.40625,336.28125 C 58.807364,340.28429 61.498795,344.30077 60.875,349.1875 C 60.180593,354.62749 59.058728,360.09453 60.28125,364.8125 C 63.180907,376.00297 60.806208,396.60293 58.862309,408.01618 L 58.299809,408.01618 L 57.862309,408.01618 L 57.299809,408.01618 C 59.751178,395.94345 60.551888,380.4605 58.75,365.0625 C 58.145339,359.89539 58.624934,354.48011 59.3125,349.09375 C 59.881386,344.6372 57.365756,340.82612 55.90625,336.65625 C 55.776936,336.2868 55.704977,335.96472 55.625,335.6875 C 51.138353,337.32113 47.525877,341.97319 48.71875,346.84375 C 48.636096,357.0377 47.680569,367.27425 48.90625,377.4375 C 52.192826,387.96867 50.261752,393.01813 52.5625,402.75 C 51.994403,407.65905 50.462896,412.8127 52.21875,417.65625 C 57.338003,421.28943 60.406588,425.58547 66.375,424.71875 C 73.167049,425.78025 74.075676,427.51564 81.1875,427.28125 C 86.812819,424.16579 89.775586,417.49972 89.40625,411.21875 C 93.534756,391.82507 107.78233,378.59962 112.875,359.5 C 112.7903,356.32619 111.63338,353.42785 109.8125,350.96875 C 108.05866,352.64115 106.51485,354.43573 105.75,356.8125 C 104.08658,361.98151 102.78766,367.49381 99.46875,371.5 C 92.316758,380.13303 85.497723,402.85626 80.75,413.40625 L 80.28125,413.1875 C 80.249078,413.25958 80.219849,413.33437 80.1875,413.40625 L 79.28125,412.96875 C 83.965601,402.5596 90.750157,379.77704 98.125,370.875 C 101.23429,367.12184 102.57001,361.72049 104.25,356.5 C 105.14601,353.71569 106.958,351.69355 108.90625,349.875 C 106.24159,346.81379 102.52114,344.54734 98.6875,343.46875 C 97.60639,342.89273 96.491266,342.3329 95.375,341.78125 C 94.795129,343.06814 94.32715,344.45782 94,346.03125 C 92.444626,353.51172 91.22833,361.48361 88.125,367.28125 C 81.437559,379.77479 78.814339,398.1698 74.375,413.4375 L 73.90625,413.09375 C 73.873686,413.20675 73.845259,413.32483 73.8125,413.4375 L 72.9375,412.8125 C 77.317586,397.74861 79.947933,379.22656 86.84375,366.34375 C 89.751079,360.91226 90.991633,353.08623 92.5625,345.53125 C 92.904576,343.88605 93.390499,342.42186 93.96875,341.09375 C 89.906453,339.16344 85.643197,337.48306 81.28125,336.40625 C 81.877436,340.94514 82.966139,345.69639 81.4375,350.78125 C 79.484016,357.27935 77.120859,363.70812 77.21875,369.6875 C 77.450917,383.86988 71.621878,398.90681 68.78125,412.78125 L 68.25,412.6875 C 68.243474,412.71924 68.225245,412.74952 68.21875,412.78125 L 67.21875,412.59375 C 70.097824,398.53157 75.850152,383.56632 75.625,369.8125 C 75.520511,363.43 77.972022,356.90279 79.90625,350.46875 C 81.368997,345.6031 80.191333,340.8946 79.625,336.03125 C 76.63664,335.40545 73.629241,335.09713 70.59375,335.1875 C 71.517252,339.15172 72.551556,343.28469 71.59375,347.84375 C 70.19869,354.48417 68.395101,361.11299 69,367.0625 C 70.434729,381.17403 65.903113,396.62206 64.25,410.6875 L 63.6875,410.625 C 63.685097,410.64535 63.689891,410.66716 63.6875,410.6875 L 62.6875,410.5625 C 64.36299,396.30676 68.828875,380.93511 67.4375,367.25 C 66.791817,360.89938 68.681186,354.19995 70.0625,347.625 C 70.960467,343.35075 69.902153,339.36514 68.96875,335.28125 C 67.063165,335.43281 65.14882,335.7285 63.25,336.25 C 61.795509,335.35781 60.189605,334.99687 58.59375,335.0625 z "
           sodipodi:nodetypes="ccsssccccsssccccccccccssccccsscccssccccssccssccccssccssccccssccc"
           id="path20700"
           style="fill: rgb(0, 0, 0); fill-opacity: 1; fill-rule: nonzero; stroke: none; stroke-width: 3; stroke-linecap: round; stroke-linejoin: round; stroke-miterlimit: 4; stroke-dashoffset: 0pt; stroke-opacity: 1;" />
        <path
           d="M 43.496861,445.32917 C 43.086982,445.27763 44.845998,444.48268 44.46369,444.40002 C 44.614482,444.29236 44.744998,444.19831 45.000867,444.03566 C 47.275062,442.5901 46.063659,442.94693 46.914701,440.98106 C 47.862108,438.79262 48.107376,438.34245 50.434052,436.60176 C 55.952632,432.47301 55.821865,424.20786 57.407876,419.57446 L 56.943944,419.52599 L 56.583102,419.48826 L 56.11917,419.43977 C 54.767423,424.37497 55.029892,430.50224 49.240983,436.37195 C 47.298389,438.34163 46.180721,440.5019 45.242656,442.66877 C 44.466532,444.46158 45.612478,442.87884 43.2435,444.38463 C 43.033611,444.51806 42.884258,444.63787 42.740829,444.73946 C 39.496871,443.7135 36.745939,442.65328 39.090796,440.85032 C 41.871188,436.85444 40.729279,434.55237 44.580174,430.68129 C 50.233638,426.84388 46.123377,424.70164 50.740413,421.09203 C 51.643631,419.12221 51.820612,416.97366 54.62225,415.22978 C 59.859704,414.24944 63.591058,412.83296 68.271437,413.68654 C 74.169945,413.85665 75.404285,413.25594 81.20441,413.96065 C 84.973436,415.66456 85.554291,418.52827 83.494539,420.9541 C 81.480307,428.89843 89.53561,435.30144 88.398763,443.2138 C 87.442027,444.4484 88.892216,445.48274 86.703245,446.28801 C 85.72406,445.48244 84.952235,444.64716 84.985571,443.65125 C 85.058041,441.48532 85.527067,439.21647 83.909205,437.36283 C 80.422837,433.36837 77.934113,423.88933 76.966387,419.35204 L 76.518653,419.39724 C 76.512257,419.36624 76.509046,419.33445 76.502456,419.30355 L 75.632753,419.39662 C 76.58757,423.87335 79.031277,433.37264 82.626272,437.49156 C 84.141949,439.22811 83.734278,441.45672 83.661088,443.64423 C 83.622059,444.81094 84.551471,445.75836 85.650166,446.63787 C 82.59701,447.60598 78.895164,448.17212 75.43189,448.26371 C 74.379259,448.39591 73.303106,448.51885 72.228291,448.63848 C 72.109629,448.08495 72.11198,447.50085 72.281831,446.85699 C 73.089324,443.79593 74.313804,440.57182 73.374336,438.03578 C 71.349884,432.5708 71.112284,425.14699 71.717208,418.7903 L 71.234543,418.88442 C 71.239258,418.83738 71.248809,418.78873 71.253271,418.74182 L 70.35695,418.91095 C 69.760109,425.18277 69.968092,432.65692 72.055632,438.29218 C 72.935749,440.66803 71.772038,443.83717 70.956508,446.92874 C 70.778913,447.60196 70.770539,448.21677 70.876339,448.78628 C 66.986478,449.19143 63.714997,449.48147 59.816485,449.52681 C 61.576537,447.80222 63.802144,446.03696 63.962262,443.91556 C 64.166891,441.20456 64.014267,438.48539 65.765859,436.15418 C 69.920427,430.62483 65.386105,424.23866 66.920269,418.56495 L 66.455907,418.55581 C 66.459395,418.54284 66.45282,418.52942 66.456327,418.51645 L 65.579166,418.50362 C 64.024249,424.2541 68.515337,430.60563 64.486314,435.96789 C 62.61663,438.45627 62.814623,441.22159 62.612007,443.90584 C 62.458801,445.93581 60.171767,447.67666 58.345675,449.5308 C 55.70609,449.51808 53.94309,448.57593 51.464755,448.27891 C 53.334181,446.80737 54.538579,446.08293 55.022579,444.21648 C 55.72755,441.49792 56.092336,438.74869 58.253754,436.47287 C 63.380357,431.0749 60.030988,424.6397 62.597952,418.99361 L 62.116555,418.96958 C 62.120255,418.9614 62.130306,418.95329 62.134021,418.94514 L 61.274317,418.90785 C 58.672631,424.63031 61.989131,431.02996 57.017442,436.26483 C 54.710311,438.6941 54.396536,441.47833 53.698521,444.17008 C 53.244756,445.91994 52.151023,446.40609 50.239988,447.92359 C 48.710665,447.70002 48.017973,446.70505 46.597604,446.33731 C 45.148671,446.56104 44.794739,445.49242 43.496861,445.32917 z "
           sodipodi:nodetypes="ccsssccccsssccccccccccssccccsscccssccccssccssccccssccssccccssccc"
           id="path21874"
           style="fill: rgb(0, 0, 0); fill-opacity: 1; fill-rule: nonzero; stroke: none; stroke-width: 3; stroke-linecap: round; stroke-linejoin: round; stroke-miterlimit: 4; stroke-dashoffset: 0pt; stroke-opacity: 1;" />
      </g>
      <path
         d="M 431.43056,475.90593 C 427.00773,508.85251 434.01462,505.96837 424.79182,530.9292 C 425.33422,533.52166 427.21602,536.56311 431.43696,531.13388 C 437.99423,511.42356 434.11453,499.79928 437.73351,475.58372 C 438.06941,473.78763 432.1579,475.34468 431.43056,475.90593 z "
         sodipodi:nodetypes="ccccc"
         id="path21880"
         style="fill: rgb(0, 0, 0); fill-opacity: 1; fill-rule: evenodd; stroke: none; stroke-width: 1px; stroke-linecap: butt; stroke-linejoin: miter; stroke-opacity: 1;" />
    </g>
  </g>
</svg>
