<?xml version="1.0" encoding="UTF-8" standalone="no"?>
<!-- Created with Inkscape (http://www.inkscape.org/) -->
<svg xmlns:dc="http://purl.org/dc/elements/1.1/" xmlns:cc="http://creativecommons.org/ns#" xmlns:rdf="http://www.w3.org/1999/02/22-rdf-syntax-ns#" xmlns:svg="http://www.w3.org/2000/svg" xmlns="http://www.w3.org/2000/svg" xmlns:sodipodi="http://sodipodi.sourceforge.net/DTD/sodipodi-0.dtd" xmlns:inkscape="http://www.inkscape.org/namespaces/inkscape" version="1.0" width="342.32443" height="155.24008" id="svg2172" sodipodi:version="0.32" inkscape:version="0.46" sodipodi:docname="mbs_ICE-Train_ok.svg" inkscape:output_extension="org.inkscape.output.svg.inkscape">
  <metadata id="metadata21">
    <rdf:RDF>
      <cc:Work rdf:about="">
        <dc:format>image/svg+xml</dc:format>
        <dc:type rdf:resource="http://purl.org/dc/dcmitype/StillImage"/>
      </cc:Work>
    </rdf:RDF>
  </metadata>
  <sodipodi:namedview inkscape:window-height="744" inkscape:window-width="1280" inkscape:pageshadow="2" inkscape:pageopacity="0.0" guidetolerance="10.0" gridtolerance="10.0" objecttolerance="10.0" borderopacity="1.0" bordercolor="#666666" pagecolor="#ffffff" id="base" showgrid="false" inkscape:zoom="1.5800488" inkscape:cx="321.04339" inkscape:cy="-6.6413076" inkscape:window-x="-4" inkscape:window-y="-4" inkscape:current-layer="svg2172"/>
  <defs id="defs2174">
    <inkscape:perspective sodipodi:type="inkscape:persp3d" inkscape:vp_x="0 : 30.151802 : 1" inkscape:vp_y="0 : 1000 : 0" inkscape:vp_z="128 : 30.151802 : 1" inkscape:persp3d-origin="64 : 20.101201 : 1" id="perspective23"/>
  </defs>
  <g transform="translate(-0.145916, -29.4348)" id="layer2" style="display: inline;"/>
  <path d="M 341.55634,50.928368 L 180.48374,4.2479447 C 165.49724,-0.24800621 123.22202,-2.0674274 98.918725,9.3686177 C 70.758552,22.619537 46.980471,43.018757 32.349976,64.232973 C 17.719487,85.447189 1.9917033,114.70818 0.89441628,123.48648 C -0.20287072,132.26477 5.8553023,146.82557 18.81677,150.91866 C 32.715741,155.3078 64.147082,156.6088 115.01228,149.08985 C 147.32005,144.31407 341.41917,72.279747 341.41917,72.279747 L 341.55634,50.928368 z" id="path3335" style="fill: rgb(255, 255, 255); fill-rule: evenodd; stroke: rgb(0, 0, 0); stroke-width: 1.5362; stroke-linecap: butt; stroke-linejoin: miter; stroke-miterlimit: 4; stroke-dasharray: none; stroke-opacity: 1;"/>
  <path d="M 180.7672,41.516551 C 160.68039,41.769953 130.22369,60.797723 106.9175,82.113887 C 105.85499,83.085678 106.17135,83.990644 107.86162,83.650088 C 116.75428,81.858421 141.37198,78.07153 152.13944,77.393266 C 168.1436,76.385128 202.20643,73.957453 237.07861,71.40848 L 237.07861,46.973268 C 211.06517,44.164994 188.73036,41.851499 182.67145,41.548555 C 182.04566,41.517124 181.41516,41.508378 180.7672,41.516551 z M 244.11953,44.844988 C 242.29583,44.844988 240.8391,49.938225 240.8391,56.27049 L 240.8391,61.951237 C 240.8391,68.283497 242.29583,73.376738 244.11953,73.376738 C 245.94323,73.376738 247.41596,68.283492 247.41596,61.951237 L 247.41596,56.27049 C 247.41596,49.93823 245.94322,44.844988 244.11953,44.844988 z M 250.24834,48.413457 L 250.24834,70.432351 C 277.24886,68.450139 300.33988,66.745881 317.63319,65.455697 L 317.63319,55.902442 C 299.74473,53.888926 276.10183,51.236776 250.24834,48.413457 z M 319.48944,56.110469 L 319.48944,65.311678 C 323.08227,65.043473 323.72532,65.002533 326.64238,64.783609 L 326.64238,56.926576 C 323.70996,56.596057 322.94594,56.499886 319.48944,56.110469 z M 330.13083,57.310627 L 330.13083,64.511573 C 335.12815,64.135921 341.23629,63.679464 341.23629,63.679464 L 341.23629,58.558791 C 341.23629,58.558791 335.14107,57.873634 330.13083,57.310627 z" id="path4309" style="fill: rgb(0, 0, 0); fill-opacity: 1; fill-rule: evenodd; stroke: none; stroke-width: 1px; stroke-linecap: butt; stroke-linejoin: miter; stroke-opacity: 1; display: inline;"/>
  <path d="M 340.69789,66.002868 C 339.30596,66.031237 338.20899,66.15794 337.81198,66.176329 C 336.38309,66.242503 335.06926,66.918115 334.75544,67.231931 C 334.12064,67.86673 334.61051,68.102144 337.33214,68.008213 C 338.3732,67.972284 339.98946,67.578606 340.702,67.539047 C 340.68496,66.73999 340.69451,66.803245 340.69789,66.002868 z M 332.81919,67.023903 C 328.32546,67.188743 323.8997,67.650807 319.48944,68.192057 L 319.48944,70.784398 C 323.23291,70.109139 327.32661,69.376566 330.75492,68.896149 C 332.82242,68.431612 333.93881,66.970356 332.81919,67.023903 z M 317.63319,68.432088 C 313.92104,68.902494 310.20866,69.406824 306.47973,69.808269 C 304.50827,70.065993 298.18736,70.870456 292.42988,71.600505 C 282.1535,72.903557 280.8221,73.296589 281.40443,74.880936 C 281.54229,75.256015 281.64446,75.930484 281.64446,76.369132 C 281.64446,77.371216 282.73592,77.244418 297.51855,74.480883 C 303.57374,73.348892 306.1484,72.946991 310.01619,72.416612 C 311.66654,72.190304 314.49923,71.671928 317.63319,71.10444 L 317.63319,68.432088 z M 276.90784,73.904808 C 274.04925,73.908126 262.03855,75.142925 242.21528,77.489279 C 239.82137,77.772631 227.9542,79.164983 215.84381,80.577685 C 203.73342,81.990381 190.25325,83.607771 185.88788,84.178158 C 181.5225,84.748544 172.30529,85.914639 165.40519,86.770499 C 142.03804,89.668866 93.141838,96.187104 90.883386,96.707805 C 89.986664,96.914552 82.515146,105.40296 82.034223,106.75713 C 81.94034,107.02147 82.627248,107.23719 83.570425,107.23719 C 85.355379,107.23719 125.49316,102.54609 142.87422,100.30828 C 148.36615,99.60119 155.27905,98.790981 158.23624,98.50004 C 166.27352,97.709316 170.04965,97.173079 177.95083,95.731676 C 181.89375,95.01238 189.1523,93.740124 194.08095,92.899304 C 221.80528,88.169538 274.88727,78.752083 276.6038,78.25738 C 277.45189,78.01296 278.14476,74.908608 277.56393,73.968816 C 277.53276,73.918393 277.31621,73.904331 276.90784,73.904808 z" id="path2283" style="fill: rgb(255, 0, 0); display: inline;" sodipodi:nodetypes="cssscccccccccssssscccsssssssssssssc"/>
  <path d="M 139.51836,20.890137 C 135.32973,24.29942 96.175509,59.843824 88.31162,63.501449 C 80.447731,67.159074 57.587582,72.645506 45.883188,71.913982 C 34.178789,71.182458 30.704049,70.00942 29.60676,68.363487 C 48.294902,39.819719 75.444951,21.150999 97.455677,10.077959 C 113.00058,7.151863 133.33198,9.50599 136.77514,11.928954 C 141.71293,15.403699 142.37536,18.564706 139.51836,20.890137 z" id="path5308" style="fill: rgb(0, 0, 0); fill-rule: evenodd; stroke: none; stroke-width: 1px; stroke-linecap: butt; stroke-linejoin: miter; stroke-opacity: 1;"/>
  <path d="M 62.255813,107.14974 L 78.679015,85.94182 C 68.946105,86.365832 58.548461,87.931488 55.531355,90.855848 C 52.446897,93.845492 45.444669,104.04614 45.444669,104.04614 L 62.255813,107.14974 z" id="path7248" style="fill: rgb(170, 204, 255); fill-rule: evenodd; stroke: rgb(0, 0, 0); stroke-width: 0.512067px; stroke-linecap: butt; stroke-linejoin: miter; stroke-opacity: 1;"/>
  <path d="M 10.917159,100.03733 L 11.951689,100.29596 C 11.951689,100.29596 16.363906,92.568652 16.995034,90.855848 C 17.389413,89.785556 17.124352,88.916101 17.124352,88.916101 L 10.917159,100.03733 z" id="path7252" style="fill: rgb(170, 204, 255); fill-rule: evenodd; stroke: rgb(0, 0, 0); stroke-width: 0.512067px; stroke-linecap: butt; stroke-linejoin: miter; stroke-opacity: 1; display: inline;"/>
  <path d="M 32.254379,96.416459 C 32.609999,97.48332 28.504203,105.6626 27.598985,106.24452 C 26.783149,106.76899 18.426703,105.43501 17.770929,104.43409 C 17.156673,103.49655 21.792163,95.184911 22.555645,94.735347 C 23.256516,94.322641 31.909501,95.381827 32.254379,96.416459 z" id="path7255" style="fill: none; fill-opacity: 1; fill-rule: evenodd; stroke: rgb(255, 0, 0); stroke-width: 1.02413; stroke-linecap: butt; stroke-linejoin: miter; stroke-miterlimit: 4; stroke-dasharray: none; stroke-opacity: 1;"/>
  <path d="M 8.0721901,105.20999 C 8.0721901,105.20999 43.370085,110.16114 52.815709,111.5465 C 62.514448,112.96898 67.023989,117.07611 68.463011,121.7625 C 69.938359,126.56721 70.920017,146.20333 65.100777,153.96232" id="path7250" style="fill: none; fill-rule: evenodd; stroke: rgb(0, 0, 0); stroke-width: 0.512067px; stroke-linecap: butt; stroke-linejoin: miter; stroke-opacity: 1; display: inline;"/>
  <path d="M 311.90137,42.2975 C 314.40387,43.687778 318.38578,48.146599 318.43185,54.71188 L 318.56117,73.139487 C 318.58441,76.452742 318.29432,79.029121 317.31372,81.103547" id="path11134" style="fill: none; fill-rule: evenodd; stroke: rgb(0, 0, 0); stroke-width: 0.512067px; stroke-linecap: butt; stroke-linejoin: miter; stroke-opacity: 1;"/>
  <path d="M 328.46357,56.848798 C 327.93077,56.848798 327.50517,58.336815 327.50517,60.186827 L 327.50517,61.846488 C 327.50517,63.696495 327.93077,65.184517 328.46357,65.184517 C 328.99638,65.184517 329.42664,63.696495 329.42664,61.846488 L 329.42664,60.186827 C 329.42664,58.33682 328.99638,56.848798 328.46357,56.848798 z" id="path11142" style="fill: rgb(0, 0, 0); fill-opacity: 1; fill-rule: evenodd; stroke: none; stroke-width: 1px; stroke-linecap: butt; stroke-linejoin: miter; stroke-opacity: 1; display: inline;"/>
  <path d="M 327.01042,74.928942 L 320.33755,76.993214 L 320.52957,79.825586 L 326.97842,77.537285 L 327.01042,74.928942 z M 315.4089,78.449405 L 307.63188,80.689699 L 307.8079,84.57821 L 315.58492,81.745838 L 315.4089,78.449405 z M 231.04581,103.36468 C 208.64269,109.86682 185.68676,115.27618 162.55681,120.56695 C 159.99977,121.4361 147.96277,136.06438 145.27454,140.85761 C 176.18146,131.25633 230.59775,112.14984 230.59775,112.14984 L 231.04581,103.36468 z" id="path12118" style="fill: rgb(0, 0, 0); fill-opacity: 1; fill-rule: evenodd; stroke: none; stroke-width: 1px; stroke-linecap: butt; stroke-linejoin: miter; stroke-opacity: 1;"/>
  <path d="M 69.238905,136.76322 C 110.36157,133.40099 193.38277,114.52078 236.31586,101.84776 C 279.24894,89.174736 341.57951,70.553153 341.57951,70.553153" id="path12116" style="fill: none; fill-rule: evenodd; stroke: rgb(0, 0, 0); stroke-width: 0.512067px; stroke-linecap: butt; stroke-linejoin: miter; stroke-opacity: 1;"/>
  <g transform="translate(-0.145916, -29.4348)" id="layer3" style="display: inline;"/>
</svg>