<?xml version="1.0" encoding="UTF-8" standalone="no"?>
<!-- Created with Inkscape (http://www.inkscape.org/) -->

<svg
   xmlns:dc="http://purl.org/dc/elements/1.1/"
   xmlns:cc="http://creativecommons.org/ns#"
   xmlns:rdf="http://www.w3.org/1999/02/22-rdf-syntax-ns#"
   xmlns:svg="http://www.w3.org/2000/svg"
   xmlns="http://www.w3.org/2000/svg"
   xmlns:xlink="http://www.w3.org/1999/xlink"
   xmlns:sodipodi="http://sodipodi.sourceforge.net/DTD/sodipodi-0.dtd"
   xmlns:inkscape="http://www.inkscape.org/namespaces/inkscape"
   width="401.37335"
   height="401.37335"
   id="svg2"
   sodipodi:version="0.32"
   inkscape:version="0.47pre3 r22311"
   version="1.0"
   sodipodi:docname="sivvus_analog_clock.svg"
   inkscape:output_extension="org.inkscape.output.svg.inkscape"
   inkscape:export-filename="C:\Documents and Settings\Piotrek\Pulpit\analog clock.png"
   inkscape:export-xdpi="90"
   inkscape:export-ydpi="90">
  <defs
     id="defs4">
    <linearGradient
       inkscape:collect="always"
       id="linearGradient3357">
      <stop
         style="stop-color:#ffffff;stop-opacity:1;"
         offset="0"
         id="stop3359" />
      <stop
         style="stop-color:#ffffff;stop-opacity:0;"
         offset="1"
         id="stop3361" />
    </linearGradient>
    <linearGradient
       inkscape:collect="always"
       id="linearGradient3342">
      <stop
         style="stop-color:#ffffff;stop-opacity:1;"
         offset="0"
         id="stop3344" />
      <stop
         style="stop-color:#ffffff;stop-opacity:0;"
         offset="1"
         id="stop3346" />
    </linearGradient>
    <linearGradient
       inkscape:collect="always"
       id="linearGradient3223">
      <stop
         style="stop-color:#ffffff;stop-opacity:1;"
         offset="0"
         id="stop3225" />
      <stop
         style="stop-color:#ffffff;stop-opacity:0;"
         offset="1"
         id="stop3227" />
    </linearGradient>
    <linearGradient
       id="linearGradient3961">
      <stop
         id="stop3965"
         offset="0"
         style="stop-color:#f0f7f9;stop-opacity:1;" />
      <stop
         id="stop3963"
         offset="1"
         style="stop-color:#cccccc;stop-opacity:1;" />
    </linearGradient>
    <linearGradient
       inkscape:collect="always"
       id="linearGradient3135">
      <stop
         style="stop-color:#ffffff;stop-opacity:1;"
         offset="0"
         id="stop3137" />
      <stop
         style="stop-color:#ffffff;stop-opacity:0;"
         offset="1"
         id="stop3139" />
    </linearGradient>
    <linearGradient
       inkscape:collect="always"
       id="linearGradient3121">
      <stop
         style="stop-color:#ffffff;stop-opacity:1;"
         offset="0"
         id="stop3123" />
      <stop
         style="stop-color:#ffffff;stop-opacity:0;"
         offset="1"
         id="stop3125" />
    </linearGradient>
    <filter
       inkscape:collect="always"
       id="filter3945"
       color-interpolation-filters="sRGB">
      <feGaussianBlur
         inkscape:collect="always"
         stdDeviation="2.4871406"
         id="feGaussianBlur3947" />
    </filter>
    <filter
       inkscape:collect="always"
       id="filter3957"
       color-interpolation-filters="sRGB">
      <feGaussianBlur
         inkscape:collect="always"
         stdDeviation="5.2571429"
         id="feGaussianBlur3959" />
    </filter>
    <filter
       inkscape:collect="always"
       id="filter3239"
       color-interpolation-filters="sRGB">
      <feGaussianBlur
         inkscape:collect="always"
         stdDeviation="5.2985541"
         id="feGaussianBlur3241" />
    </filter>
    <filter
       inkscape:collect="always"
       id="filter3249"
       color-interpolation-filters="sRGB">
      <feGaussianBlur
         inkscape:collect="always"
         stdDeviation="5.2571429"
         id="feGaussianBlur3251" />
    </filter>
    <filter
       inkscape:collect="always"
       id="filter3371"
       color-interpolation-filters="sRGB">
      <feGaussianBlur
         inkscape:collect="always"
         stdDeviation="1.0463822"
         id="feGaussianBlur3373" />
    </filter>
    <linearGradient
       inkscape:collect="always"
       xlink:href="#linearGradient3223"
       id="linearGradient2640"
       gradientUnits="userSpaceOnUse"
       x1="-485.71429"
       y1="614.71124"
       x2="-221.35715"
       y2="332.36218" />
    <radialGradient
       inkscape:collect="always"
       xlink:href="#linearGradient3961"
       id="radialGradient2642"
       gradientUnits="userSpaceOnUse"
       cx="-485.71429"
       cy="332.36218"
       fx="-485.71429"
       fy="332.36218"
       r="262.85715" />
    <radialGradient
       inkscape:collect="always"
       xlink:href="#linearGradient3342"
       id="radialGradient2644"
       gradientUnits="userSpaceOnUse"
       gradientTransform="matrix(1.6357018,-0.01412671,0.00863616,0.9999627,160.41765,-3.6194177)"
       cx="-257.14285"
       cy="352.99625"
       fx="-257.14285"
       fy="352.99625"
       r="52.319111" />
    <radialGradient
       inkscape:collect="always"
       xlink:href="#linearGradient3357"
       id="radialGradient2646"
       gradientUnits="userSpaceOnUse"
       gradientTransform="matrix(-0.9921852,0.1247736,-0.07518261,-0.5978435,-502.19922,415.88046)"
       cx="-260.00867"
       cy="219.2083"
       fx="-260.00867"
       fy="219.2083"
       r="37.015625" />
    <linearGradient
       inkscape:collect="always"
       xlink:href="#linearGradient3135"
       id="linearGradient2648"
       gradientUnits="userSpaceOnUse"
       x1="289.70889"
       y1="191.53207"
       x2="325.64322"
       y2="295.89066" />
    <linearGradient
       inkscape:collect="always"
       xlink:href="#linearGradient3121"
       id="linearGradient2650"
       gradientUnits="userSpaceOnUse"
       x1="358.93213"
       y1="516.56403"
       x2="261.60901"
       y2="185.8992" />
    <linearGradient
       inkscape:collect="always"
       xlink:href="#linearGradient3135"
       id="linearGradient2956"
       gradientUnits="userSpaceOnUse"
       x1="289.70889"
       y1="191.53207"
       x2="325.64322"
       y2="295.89066" />
    <linearGradient
       inkscape:collect="always"
       xlink:href="#linearGradient3121"
       id="linearGradient2958"
       gradientUnits="userSpaceOnUse"
       x1="358.93213"
       y1="516.56403"
       x2="261.60901"
       y2="185.8992" />
    <linearGradient
       inkscape:collect="always"
       xlink:href="#linearGradient3223"
       id="linearGradient2960"
       gradientUnits="userSpaceOnUse"
       x1="-485.71429"
       y1="614.71124"
       x2="-221.35715"
       y2="332.36218" />
    <radialGradient
       inkscape:collect="always"
       xlink:href="#linearGradient3961"
       id="radialGradient2962"
       gradientUnits="userSpaceOnUse"
       cx="-485.71429"
       cy="332.36218"
       fx="-485.71429"
       fy="332.36218"
       r="262.85715" />
    <radialGradient
       inkscape:collect="always"
       xlink:href="#linearGradient3342"
       id="radialGradient2964"
       gradientUnits="userSpaceOnUse"
       gradientTransform="matrix(1.6357018,-0.01412671,0.00863616,0.9999627,160.41765,-3.6194177)"
       cx="-257.14285"
       cy="352.99625"
       fx="-257.14285"
       fy="352.99625"
       r="52.319111" />
    <radialGradient
       inkscape:collect="always"
       xlink:href="#linearGradient3357"
       id="radialGradient2966"
       gradientUnits="userSpaceOnUse"
       gradientTransform="matrix(-0.9921852,0.1247736,-0.07518261,-0.5978435,-502.19922,415.88046)"
       cx="-260.00867"
       cy="219.2083"
       fx="-260.00867"
       fy="219.2083"
       r="37.015625" />
    <linearGradient
       inkscape:collect="always"
       xlink:href="#linearGradient3223"
       id="linearGradient3022"
       gradientUnits="userSpaceOnUse"
       x1="-485.71429"
       y1="614.71124"
       x2="-221.35715"
       y2="332.36218" />
    <radialGradient
       inkscape:collect="always"
       xlink:href="#linearGradient3961"
       id="radialGradient3024"
       gradientUnits="userSpaceOnUse"
       cx="-485.71429"
       cy="332.36218"
       fx="-485.71429"
       fy="332.36218"
       r="262.85715" />
  </defs>
  <sodipodi:namedview
     id="base"
     pagecolor="#ffffff"
     bordercolor="#666666"
     borderopacity="1.0"
     gridtolerance="10000"
     guidetolerance="10"
     objecttolerance="10"
     inkscape:pageopacity="0.0"
     inkscape:pageshadow="2"
     inkscape:zoom="0.95282639"
     inkscape:cx="216.80477"
     inkscape:cy="185.0819"
     inkscape:document-units="px"
     inkscape:current-layer="layer1"
     showgrid="false"
     showguides="false"
     inkscape:guide-bbox="true"
     inkscape:window-width="1280"
     inkscape:window-height="686"
     inkscape:window-x="0"
     inkscape:window-y="0"
     inkscape:window-maximized="0">
    <sodipodi:guide
       orientation="1,0"
       position="300.68668,356.34059"
       id="guide3076" />
    <sodipodi:guide
       orientation="0,1"
       position="247.84608,303.70552"
       id="guide3078" />
  </sodipodi:namedview>
  <metadata
     id="metadata7">
    <rdf:RDF>
      <cc:Work
         rdf:about="">
        <dc:format>image/svg+xml</dc:format>
        <dc:type
           rdf:resource="http://purl.org/dc/dcmitype/StillImage" />
      </cc:Work>
    </rdf:RDF>
  </metadata>
  <g
     inkscape:label="Layer 1"
     inkscape:groupmode="layer"
     id="layer1"
     transform="translate(-277.64918,-415.22215)"
     style="display:inline">
    <g
       id="g3001">
      <path
         sodipodi:type="arc"
         style="fill:#000000;fill-opacity:1;fill-rule:evenodd;stroke:none;stroke-width:3;marker:none;visibility:visible;display:inline;overflow:visible;filter:url(#filter3249);enable-background:accumulate"
         id="path3243"
         sodipodi:cx="-485.71429"
         sodipodi:cy="332.36218"
         sodipodi:rx="262.85715"
         sodipodi:ry="262.85715"
         d="m -222.85715,332.36218 c 0,145.172 -117.68515,262.85715 -262.85714,262.85715 -145.172,0 -262.85715,-117.68515 -262.85715,-262.85715 0,-145.17199 117.68515,-262.857145 262.85715,-262.857145 145.17199,0 262.85714,117.685155 262.85714,262.857145 z"
         transform="matrix(0.72851328,0,0,0.72851328,832.18517,373.77857)" />
      <path
         transform="matrix(0.72851328,0,0,0.72851328,832.18517,367.74085)"
         d="m -222.85715,332.36218 c 0,145.172 -117.68515,262.85715 -262.85714,262.85715 -145.172,0 -262.85715,-117.68515 -262.85715,-262.85715 0,-145.17199 117.68515,-262.857145 262.85715,-262.857145 145.17199,0 262.85714,117.685155 262.85714,262.857145 z"
         sodipodi:ry="262.85715"
         sodipodi:rx="262.85715"
         sodipodi:cy="332.36218"
         sodipodi:cx="-485.71429"
         id="path3951"
         style="fill:#333333;fill-opacity:1;fill-rule:evenodd;stroke:none;stroke-width:3;marker:none;visibility:visible;display:inline;overflow:visible;enable-background:accumulate"
         sodipodi:type="arc" />
      <path
         sodipodi:type="arc"
         style="fill:#000000;fill-opacity:1;fill-rule:evenodd;stroke:none;stroke-width:3;marker:none;visibility:visible;display:inline;overflow:visible;filter:url(#filter3957);enable-background:accumulate"
         id="path3949"
         sodipodi:cx="-485.71429"
         sodipodi:cy="332.36218"
         sodipodi:rx="262.85715"
         sodipodi:ry="262.85715"
         d="m -222.85715,332.36218 c 0,145.172 -117.68515,262.85715 -262.85714,262.85715 -145.172,0 -262.85715,-117.68515 -262.85715,-262.85715 0,-145.17199 117.68515,-262.857145 262.85715,-262.857145 145.17199,0 262.85714,117.685155 262.85714,262.857145 z"
         transform="matrix(0.67659399,0,0,0.67659399,806.96728,384.25917)" />
      <path
         sodipodi:type="arc"
         style="fill:none;stroke:url(#linearGradient3022);stroke-width:4.14111948;stroke-linecap:round;stroke-linejoin:miter;stroke-miterlimit:4;stroke-opacity:1;stroke-dasharray:none;stroke-dashoffset:0;marker:none;visibility:visible;display:inline;overflow:visible;filter:url(#filter3239);enable-background:accumulate"
         id="path2451"
         sodipodi:cx="-485.71429"
         sodipodi:cy="332.36218"
         sodipodi:rx="262.85715"
         sodipodi:ry="262.85715"
         d="m -222.85715,332.36218 c 0,145.172 -117.68515,262.85715 -262.85714,262.85715 -145.172,0 -262.85715,-117.68515 -262.85715,-262.85715 0,-145.17199 117.68515,-262.857145 262.85715,-262.857145 145.17199,0 262.85714,117.685155 262.85714,262.857145 z"
         transform="matrix(0.65488176,0,0,0.65488176,796.42157,391.47936)" />
      <path
         transform="matrix(0.65488176,0,0,0.65488176,796.42157,391.47936)"
         d="m -222.85715,332.36218 c 0,145.172 -117.68515,262.85715 -262.85714,262.85715 -145.172,0 -262.85715,-117.68515 -262.85715,-262.85715 0,-145.17199 117.68515,-262.857145 262.85715,-262.857145 145.17199,0 262.85714,117.685155 262.85714,262.857145 z"
         sodipodi:ry="262.85715"
         sodipodi:rx="262.85715"
         sodipodi:cy="332.36218"
         sodipodi:cx="-485.71429"
         id="path2383"
         style="fill:url(#radialGradient3024);fill-opacity:1;fill-rule:evenodd;stroke:none;stroke-width:3;marker:none;visibility:visible;display:inline;overflow:visible;enable-background:accumulate"
         sodipodi:type="arc" />
      <path
         id="path2385"
         d="m 473.51157,450.30685 1.20845,21.31764 7.25063,0 1.20844,-21.31764 -9.66752,0 z m -9.76191,0.66087 -4.02186,0.43428 2.58682,15.80413 2.20918,-0.22658 -0.77414,-16.01183 z m 29.19137,0 -0.77417,16.01183 2.20919,0.22658 2.58681,-15.80413 -4.02183,-0.43428 z m -45.6375,2.39801 -3.9652,0.83079 4.22954,15.46426 2.17142,-0.47205 -2.43576,-15.823 z m 62.08361,0 -2.43576,15.84188 2.17142,0.45317 4.21065,-15.44537 -3.94631,-0.84968 z m -78.20874,4.09737 -3.83301,1.24619 5.79673,14.93556 2.13365,-0.69862 -4.09737,-15.48313 z m 94.31498,0 -4.07848,15.502 2.13365,0.67975 5.79673,-14.93556 -3.8519,-1.24619 z m -109.91139,5.75896 -3.68198,1.64273 7.32618,14.23693 2.03925,-0.90634 -5.68345,-14.97332 z m 125.50782,0 -5.66456,14.99221 2.03923,0.90634 7.32618,-14.25582 -3.70085,-1.64273 z m -137.96986,5.94778 -8.38356,4.83377 11.70676,17.86225 6.28767,-3.62532 -9.61087,-19.0707 z m 150.45077,0 -9.62975,19.0707 6.28767,3.62532 11.70676,-17.86225 -8.36468,-4.83377 z m -166.95354,10.29064 -3.26655,2.36023 10.13955,12.40539 1.79379,-1.30286 -8.66679,-13.46276 z m 183.43742,0 -8.66677,13.48165 1.81265,1.30285 10.13957,-12.4054 -3.28545,-2.3791 z m -196.48478,10.29062 -3.00223,2.7001 11.36689,11.27248 1.66161,-1.47278 -10.02627,-12.4998 z m 209.55104,0.0189 -10.02628,12.48092 1.64273,1.49166 11.38576,-11.27247 -3.00221,-2.70011 z m -221.44663,11.59346 -2.71899,3.00222 12.4998,10.02628 1.49167,-1.6616 -11.27248,-11.3669 z m 233.34222,0 -11.27249,11.38578 1.49167,1.64272 12.48091,-10.02628 -2.70009,-3.00222 z m -243.97272,12.78304 -2.37912,3.26656 13.46279,8.66678 1.32173,-1.81266 -12.4054,-10.12068 z m 254.6032,0.0189 -12.40539,10.12068 1.30285,1.81265 13.48167,-8.66677 -2.37913,-3.26656 z m -262.43917,11.36688 -4.83376,8.38355 19.07069,9.61088 3.62532,-6.28767 -17.86225,-11.70676 z m 270.25627,0 -17.86225,11.70676 3.62531,6.28767 19.0707,-9.61088 -4.83376,-8.38355 z m -279.3951,17.14474 -1.64272,3.70085 14.97332,5.68344 0.90634,-2.03924 -14.23694,-7.34505 z m 288.53393,0.0189 -14.23694,7.34506 0.90634,2.02035 14.97333,-5.66455 -1.64273,-3.70086 z m -294.68942,15.4265 -1.24621,3.8519 15.48315,4.07849 0.69862,-2.11478 -14.93556,-5.81561 z m 300.8449,0.0189 -14.91667,5.8156 0.67975,2.11478 15.48313,-4.07848 -1.24621,-3.8519 z m -305.35767,15.99294 -0.83081,3.94631 15.82302,2.43575 0.47205,-2.1714 -15.46426,-4.21066 z m 309.87046,0.0189 -15.46426,4.21064 0.47204,2.17142 15.82301,-2.43575 -0.83079,-3.94631 z m -312.68385,16.37057 -0.41541,4.00295 15.99294,0.77416 0.24547,-2.20918 -15.823,-2.56793 z m 315.49724,0.0189 -15.82302,2.56794 0.24547,2.20917 15.99295,-0.77415 -0.4154,-4.00296 z m -316.57352,13.7649 0,9.6675 21.31764,-1.20843 0,-7.25065 -21.31764,-1.20842 z m 317.64978,0 -21.31763,1.20842 0,7.25065 21.31763,1.20843 0,-9.6675 z m -300.99597,18.6364 -15.99294,0.77416 0.41541,4.02184 15.823,-2.56795 -0.24547,-2.22805 z m 284.34216,0.0189 -0.24547,2.22805 15.82302,2.56794 0.4154,-4.02184 -15.99295,-0.77415 z m -282.11409,14.76562 -15.82302,2.43576 0.83081,3.96519 15.46426,-4.21066 -0.47205,-2.19029 z m 279.88603,0.0189 -0.47204,2.19029 15.46426,4.21066 0.83079,-3.96519 -15.82301,-2.43576 z m -276.12853,14.46351 -15.48315,4.07848 1.24621,3.83303 14.91669,-5.79673 -0.67975,-2.11478 z m 272.37104,0.0189 -0.69862,2.11478 14.93554,5.79674 1.24621,-3.83303 -15.48313,-4.07849 z m -267.12189,13.9726 -14.97332,5.68343 1.64272,3.68198 14.23694,-7.32618 -0.90634,-2.03923 z m 261.87273,0.0189 -0.90634,2.03925 14.23694,7.32617 1.64273,-3.68197 -14.97333,-5.68345 z m -251.82757,8.53461 -19.07069,9.61088 4.83376,8.36467 17.86225,-11.70677 -3.62532,-6.26878 z m 241.7824,0 -3.62531,6.26878 17.86225,11.70677 4.83376,-8.36467 -19.0707,-9.61088 z m -237.09969,17.42798 -13.48166,8.66677 2.37912,3.26656 12.40538,-10.13956 -1.30284,-1.79377 z m 232.41699,0.0189 -1.32173,1.79378 12.40539,10.13956 2.37912,-3.26656 -13.46278,-8.66678 z m -223.10823,11.669 -12.48092,10.02628 2.70011,3.00222 11.27249,-11.36689 -1.49168,-1.66161 z m 213.78058,0.0189 -1.49165,1.6616 11.27246,11.36689 2.71899,-3.00222 -12.4998,-10.02627 z m -203.28226,10.63049 -11.38576,11.29136 3.0022,2.70011 10.02629,-12.49981 -1.64273,-1.49166 z m 192.80283,0.0189 -1.6616,1.49167 10.02627,12.4998 3.00221,-2.71899 -11.36688,-11.27248 z m -181.266,9.49758 -10.13958,12.4054 3.28545,2.36022 8.66679,-13.46277 -1.81266,-1.30285 z m 169.71029,0 -1.79377,1.32174 8.66677,13.46277 3.26657,-2.37911 -10.13957,-12.4054 z m -156.73845,2.37912 -11.70676,17.84337 8.38356,4.83375 9.61087,-19.0518 -6.28767,-3.62532 z m 143.78549,0 -6.28767,3.62532 9.62975,19.0518 8.36468,-4.83375 -11.70676,-17.84337 z M 419.2073,739.162 l -7.32617,14.23693 3.70086,1.64274 5.66455,-14.97333 -2.03924,-0.90634 z m 118.2383,0 -2.03924,0.90634 5.68345,14.9922 3.68196,-1.64272 -7.32617,-14.25582 z m -104.32235,5.47575 -5.79675,14.91669 3.8519,1.24619 4.07849,-15.48314 -2.13364,-0.67974 z m 90.40641,0 -2.13365,0.67974 4.09737,15.50202 3.83302,-1.2462 -5.79674,-14.93556 z m -48.80964,2.00148 -1.20845,21.31764 9.66752,0 -1.20844,-21.31764 -7.25063,0 z m -27.17102,1.98259 -4.21067,15.44537 3.94633,0.84969 2.43575,-15.84189 -2.17141,-0.45317 z m 61.55491,0 -2.17142,0.45317 2.43578,15.84189 3.96518,-0.84969 -4.22954,-15.44537 z m -46.80817,2.45465 -2.58681,15.80413 4.02183,0.4154 0.77417,-15.99295 -2.20919,-0.22658 z m 32.06142,0 -2.20917,0.22658 0.77415,15.99295 4.02184,-0.4154 -2.58682,-15.80413 z"
         style="fill:#000000;fill-opacity:1;fill-rule:evenodd;stroke:none" />
      <g
         transform="matrix(1.3206547,0,0,1.3206547,-86.612864,-130.49334)"
         id="g2533">
        <path
           style="font-size:57.03669739px;font-style:normal;font-variant:normal;font-weight:normal;font-stretch:normal;text-align:center;text-anchor:middle;fill:#000000;fill-opacity:1;stroke:none;font-family:Univers Condensed;-inkscape-font-specification:'Univers Condensed,'"
           d="m 336.16832,567.46158 c -2.55186,0 -4.38933,-0.30589 -5.51241,-0.91768 -1.12309,-0.61178 -1.62482,-1.58413 -1.5052,-2.91707 l 0,-0.29735 3.60849,0 0,0.29735 c -1e-5,0.73824 0.28907,1.29876 0.86723,1.68155 0.57815,0.38279 1.42544,0.57419 2.54189,0.57419 1.87401,0 3.05025,-0.32811 3.52874,-0.98433 0.42529,-0.58785 0.65789,-1.90711 0.69777,-3.95779 l 0,0 c -1.60821,0.6904 -3.30945,1.03218 -5.10371,1.02534 -2.25947,0 -3.87099,-0.32981 -4.83457,-0.98945 -0.9636,-0.65962 -1.4454,-1.76185 -1.44539,-3.3067 l 0,-0.55368 c -1e-5,-1.49697 0.60806,-2.61801 1.82418,-3.36309 1.21611,-0.74507 3.04693,-1.1176 5.49247,-1.11762 2.99044,2e-5 5.00734,0.41015 6.05069,1.2304 1.04333,0.82028 1.55834,2.40955 1.54507,4.7678 l 0,1.73282 c -0.0133,2.78891 -0.55159,4.66869 -1.61485,5.63934 -1.04999,0.97064 -3.09679,1.45597 -6.1404,1.45597 l 0,0 z m 4.10689,-10.38663 c -1e-5,-1.08684 -0.26583,-1.82679 -0.79745,-2.21985 -0.53165,-0.39303 -1.53511,-0.58955 -3.01039,-0.58957 -1.36898,2e-5 -2.34586,0.21534 -2.93065,0.64596 -0.58481,0.43065 -0.87721,1.15181 -0.8772,2.16346 l 0,0.55368 c -10e-6,0.95698 0.29904,1.64738 0.89714,2.07117 0.59807,0.42381 1.56832,0.63571 2.91071,0.63571 1.24933,0 2.19631,-0.23069 2.84093,-0.6921 0.6446,-0.46139 0.9669,-1.13299 0.96691,-2.01478 l 0,-0.55368 z"
           id="text3054" />
        <path
           transform="scale(1.3944102,0.7171491)"
           style="font-size:29.2809906px;font-style:normal;font-variant:normal;font-weight:normal;font-stretch:normal;text-align:center;text-anchor:middle;fill:#000000;fill-opacity:1;stroke:none;font-family:Univers Condensed;-inkscape-font-specification:'Univers Condensed,'"
           d="m 374.69558,775.57574 c -1e-5,-1.00079 -0.19541,-1.71328 -0.58619,-2.13745 -0.39081,-0.42414 -1.04848,-0.63622 -1.97304,-0.63623 -0.83878,10e-6 -1.47502,0.25975 -1.9087,0.7792 -0.43369,0.51949 -0.63623,1.2558 -0.60763,2.20894 l 0,0.60049 -2.61642,0 0,-0.60049 c -0.10485,-1.65847 0.28833,-2.93808 1.17953,-3.83884 0.8912,-0.90071 2.2137,-1.35108 3.96752,-1.3511 1.68708,2e-5 2.96907,0.38367 3.84599,1.15094 0.87689,0.76731 1.31534,1.88965 1.31535,3.36703 l 0,0.58619 c -10e-6,1.7157 -0.38604,2.92621 -1.15808,3.63153 -0.43846,0.40987 -1.06755,0.69581 -1.88725,0.85784 l 0,0 c 0.88642,0.16205 1.53934,0.44323 1.95874,0.84354 0.72438,0.67676 1.08658,1.99211 1.08659,3.94608 l 0,1.11519 c -10e-6,1.72522 -0.45991,3.01913 -1.37969,3.88173 -0.91981,0.86261 -2.30427,1.29391 -4.15338,1.29391 -1.6871,0 -2.97147,-0.46704 -3.85314,-1.40114 -0.88167,-0.93409 -1.29391,-2.26374 -1.23672,-3.98896 l 0,-0.60049 2.58782,0 0,0.60049 c -0.0191,1.07707 0.17395,1.87534 0.57904,2.39481 0.40509,0.51947 1.03179,0.7792 1.8801,0.7792 1.01988,0 1.77287,-0.27403 2.25899,-0.8221 0.4861,-0.54806 0.72915,-1.38922 0.72916,-2.52348 l 0,-1.11519 c -1e-5,-1.01034 -0.24306,-1.79908 -0.72916,-2.36622 -0.48612,-0.56712 -1.16286,-0.85068 -2.03023,-0.85069 l -0.77205,0 0,-2.31617 0.27164,0 c 1.12472,10e-6 1.94444,-0.23113 2.45915,-0.69342 0.5147,-0.46227 0.77205,-1.19858 0.77206,-2.20894 l 0,-0.5862 z"
           id="text3058" />
        <path
           style="font-size:57.03669739px;font-style:normal;font-variant:normal;font-weight:normal;font-stretch:normal;text-align:center;text-anchor:middle;fill:#000000;fill-opacity:1;stroke:none;font-family:Univers Condensed;-inkscape-font-specification:'Univers Condensed,'"
           d="m 432.60017,459.87401 c -2.52528,10e-6 -4.36794,0.29688 -5.55083,0.8984 -1.18289,0.60154 -1.70236,1.50136 -1.55615,2.71124 l 0,0.43316 3.64172,0 0,-0.43316 c -0.0399,-0.77241 0.20084,-1.30009 0.70589,-1.60428 0.50505,-0.30417 1.41699,-0.46523 2.75937,-0.46524 1.03669,10e-6 1.88075,0.17397 2.51873,0.52941 0.63795,0.35546 0.96256,0.83997 0.96257,1.42781 -1e-5,1.04585 -0.79549,2.25175 -2.39039,3.62569 -1.59492,1.37395 -4.43293,3.27096 -8.48666,5.71125 l 0,0.88236 0,0.88235 14.77546,0 0,-1.5722 -11.18186,0 c 4.02715,-2.46763 6.81657,-4.34832 8.35832,-5.64708 1.71451,-1.45597 2.56684,-2.76607 2.56685,-3.91445 -10e-6,-1.13469 -0.60337,-1.99503 -1.81283,-2.5829 -1.20949,-0.59468 -2.98428,-0.88235 -5.31019,-0.88236 z M 420.552,460.0184 c -0.85063,0.43749 -1.63785,0.77621 -2.34226,1.04278 -0.69114,0.25977 -1.56775,0.54715 -2.63103,0.83423 l 0,1.73263 c 1.42212,-0.37594 2.59631,-0.74913 3.51338,-1.09092 l 0.72194,-0.27272 0,12.2086 1.82888,0 1.81284,0 0,-14.4546 -2.90375,0 z"
           id="path3256" />
        <path
           style="font-size:57.03669739px;font-style:normal;font-variant:normal;font-weight:normal;font-stretch:normal;text-align:center;text-anchor:middle;fill:#000000;fill-opacity:1;stroke:none;font-family:Univers Condensed;-inkscape-font-specification:'Univers Condensed,'"
           d="m 428.04861,641.81324 c 2.55184,3e-5 4.38931,0.3059 5.51241,0.91768 1.12306,0.61178 1.6248,1.58414 1.50519,2.91707 l 0,0.29733 -3.60848,0 0,-0.29733 c -2e-5,-0.73824 -0.28909,-1.29873 -0.86723,-1.68155 -0.57817,-0.38278 -1.42547,-0.57419 -2.54189,-0.57419 -1.70125,0 -2.81104,0.36912 -3.32938,1.10737 -0.4519,0.6357 -0.69778,1.88661 -0.73765,3.75273 l 0,0 c 1.6082,-0.62887 3.3626,-0.94331 5.26321,-0.94331 2.13983,0 3.66828,0.32983 4.58537,0.98944 0.91705,0.65963 1.37559,1.76188 1.37561,3.30669 l 0,0.55369 c -2e-5,1.49699 -0.62137,2.61801 -1.86405,3.3631 -1.24272,0.74509 -3.10677,1.11759 -5.59216,1.11759 -2.57845,0 -4.46243,-0.37593 -5.65196,-1.12783 -1.18955,-0.75194 -1.78431,-1.94133 -1.78431,-3.56817 l 0,-1.73283 c 0.0133,-3.47245 0.5117,-5.74185 1.49523,-6.80819 0.97023,-1.05951 3.05026,-1.58926 6.24009,-1.58929 l 0,0 z m -4.08696,10.38663 c -1e-5,1.08685 0.26581,1.82683 0.79745,2.21984 0.53163,0.39305 1.52845,0.58958 2.99046,0.58958 1.36896,0 2.34583,-0.2153 2.93065,-0.64594 0.58479,-0.43065 0.87718,-1.1518 0.8772,-2.16348 l 0,-0.55368 c -2e-5,-0.95697 -0.29906,-1.64735 -0.89714,-2.07118 -0.5981,-0.42379 -1.56833,-0.63567 -2.91071,-0.63571 -1.23607,4e-5 -2.1764,0.23073 -2.821,0.69211 -0.64462,0.46142 -0.96692,1.13299 -0.96691,2.01478 l 0,0.55368 z"
           id="text3050" />
        <path
           style="font-size:57.03669739px;font-style:normal;font-variant:normal;font-weight:normal;font-stretch:normal;text-align:center;text-anchor:middle;fill:#000000;fill-opacity:1;stroke:none;font-family:Univers Condensed;-inkscape-font-specification:'Univers Condensed,'"
           d="m 376.45715,472.72274 c -0.85062,0.43749 -1.63785,0.79225 -2.34225,1.05882 -0.69114,0.25976 -1.56776,0.53111 -2.63103,0.81819 l 0,1.73263 c 1.42212,-0.37595 2.5963,-0.73309 3.51338,-1.07487 l 0.72193,-0.27273 0,12.2086 1.82889,0 1.81284,0 0,-14.47064 -2.90376,0 z m 12.24069,0 c -0.85062,0.43749 -1.62181,0.79225 -2.32621,1.05882 -0.69113,0.25976 -1.56776,0.53111 -2.63103,0.81819 l 0,1.73263 c 1.42212,-0.37595 2.58025,-0.73309 3.49734,-1.07487 l 0.72193,-0.27273 0,12.2086 1.82889,0 1.82888,0 0,-14.47064 -2.9198,0 z"
           id="path3310" />
        <path
           style="font-size:57.03669739px;font-style:normal;font-variant:normal;font-weight:normal;font-stretch:normal;text-align:center;text-anchor:middle;fill:#000000;fill-opacity:1;stroke:none;font-family:Univers Condensed;-inkscape-font-specification:'Univers Condensed,'"
           d="m 355.71865,506.09428 c -2.52528,10e-6 -4.38284,0.31425 -5.59895,0.94652 -1.21614,0.63231 -1.82889,1.60738 -1.82888,2.9198 l 0,6.81821 c -10e-6,1.3261 0.63592,2.34645 1.92514,3.06418 1.28921,0.71774 3.12362,1.07487 5.50269,1.07488 2.43222,0 4.29758,-0.35477 5.56687,-1.05883 1.26927,-0.70407 1.89304,-1.72679 1.89306,-3.08023 l 0,-6.81821 c -3e-5,-1.3671 -0.57909,-2.36296 -1.74867,-2.96793 -1.16962,-0.60493 -3.07966,-0.89838 -5.71126,-0.89839 z m -11.8717,0.14438 c -0.85063,0.43749 -1.62181,0.79226 -2.32622,1.05883 -0.69113,0.25976 -1.56775,0.5311 -2.63102,0.81818 l 0,1.73263 c 1.42212,-0.37594 2.59629,-0.73308 3.51338,-1.07487 l 0.70589,-0.28877 0,12.22465 1.84492,0 1.81284,0 0,-14.47065 -2.91979,0 z m 11.8717,1.44386 c 1.34237,10e-6 2.3217,0.17397 2.9198,0.52941 0.59807,0.35546 0.89839,0.94209 0.8984,1.74867 l 0,6.81821 c -2e-5,0.82027 -0.31797,1.44979 -0.96257,1.87701 -0.64462,0.42723 -1.60629,0.62567 -2.85563,0.62568 -1.28923,0 -2.23761,-0.1995 -2.85562,-0.60963 -0.61805,-0.41014 -0.9305,-1.03861 -0.93049,-1.89306 l 0,-6.81821 c -1e-5,-0.8476 0.29205,-1.4458 0.85027,-1.78075 0.55821,-0.33493 1.527,-0.49732 2.93584,-0.49733 z"
           id="path3318" />
        <path
           transform="scale(1.3944102,0.7171491)"
           style="font-size:29.2809906px;font-style:normal;font-variant:normal;font-weight:normal;font-stretch:normal;text-align:center;text-anchor:middle;fill:#000000;fill-opacity:1;stroke:none;font-family:Univers Condensed;-inkscape-font-specification:'Univers Condensed,'"
           d="m 253.42427,845.8053 0,0 c 0.87689,0.19064 1.52504,0.50995 1.94444,0.95792 0.72438,0.77207 1.08658,2.26376 1.0866,4.47508 l 0,-0.42892 c -2e-5,1.83006 -0.46945,3.26218 -1.40829,4.29635 -0.93887,1.03418 -2.24232,1.55126 -3.91033,1.55127 -1.80147,-1e-5 -3.13589,-0.47658 -4.00326,-1.42974 -0.86738,-0.95316 -1.30106,-2.42578 -1.30106,-4.41788 l 0,0.42892 c 0,-2.06835 0.40032,-3.52668 1.20098,-4.375 0.49563,-0.52422 1.2105,-0.88166 2.1446,-1.0723 l 0,0 c -0.76253,-0.20968 -1.37255,-0.53375 -1.83006,-0.97222 -0.80066,-0.78157 -1.20098,-2.02068 -1.20098,-3.71731 l 0,0.40032 c 0,-1.76332 0.43607,-3.12395 1.30821,-4.08189 0.87213,-0.9579 2.11362,-1.43687 3.72446,-1.43689 1.7538,2e-5 3.03341,0.44086 3.83884,1.32251 0.80541,0.88169 1.20812,2.28045 1.20813,4.19627 l 0,-0.40032 c -10e-6,1.69663 -0.36698,2.9405 -1.1009,3.73161 -0.42893,0.45753 -0.99606,0.7816 -1.70138,0.97222 l 0,0 z m -2.24469,-1.12949 c 0.82924,1e-5 1.44164,-0.28594 1.83721,-0.85784 0.39555,-0.57188 0.59333,-1.45355 0.59334,-2.64501 l 0,0.40032 c -1e-5,-1.20096 -0.19064,-2.06595 -0.57189,-2.59497 -0.38127,-0.52898 -1.00083,-0.79348 -1.85866,-0.7935 -0.80066,2e-5 -1.40353,0.28358 -1.80862,0.85069 -0.40509,0.56715 -0.60764,1.41307 -0.60763,2.53778 l 0,-0.40032 c -1e-5,1.19146 0.20015,2.07313 0.60049,2.64501 0.39078,0.5719 0.99604,0.85785 1.81576,0.85784 l 0,0 z m -0.0429,2.25898 c -0.97223,10e-6 -1.66327,0.29787 -2.07312,0.89359 -0.40986,0.59573 -0.61479,1.58939 -0.61479,2.981 l 0,-0.42893 c 0,1.54412 0.18825,2.59736 0.56475,3.15972 0.37649,0.56237 1.08421,0.84355 2.12316,0.84354 0.97221,1e-5 1.66563,-0.30739 2.08026,-0.92217 0.41462,-0.61479 0.62193,-1.64181 0.62194,-3.08109 l 0,0.42893 c -1e-5,-1.49645 -0.19064,-2.51633 -0.5719,-3.05964 -0.37174,-0.54329 -1.08184,-0.81494 -2.1303,-0.81495 l 0,0 z"
           id="text3283" />
        <path
           transform="scale(1.3944102,0.7171491)"
           style="font-size:29.2809906px;font-style:normal;font-variant:normal;font-weight:normal;font-stretch:normal;text-align:center;text-anchor:middle;fill:#000000;fill-opacity:1;stroke:none;font-family:Univers Condensed;-inkscape-font-specification:'Univers Condensed,'"
           d="m 270.40784,899.38739 6.74835,-17.97178 0,0 -7.74917,0 0,-2.20179 10.07964,0 0,1.10089 0,1.1009 -5.97629,17.97178 -3.10253,0 z"
           id="text3287" />
        <path
           transform="scale(1.3944102,0.7171491)"
           style="font-size:29.2809906px;font-style:normal;font-variant:normal;font-weight:normal;font-stretch:normal;text-align:center;text-anchor:middle;fill:#000000;fill-opacity:1;stroke:none;font-family:Univers Condensed;-inkscape-font-specification:'Univers Condensed,'"
           d="m 344.76384,893.67594 c -1e-5,2.27805 -0.38366,3.88174 -1.15094,4.81106 -0.7673,0.92933 -2.08981,1.39399 -3.96752,1.39399 -1.85866,0 -3.15257,-0.33837 -3.88173,-1.01511 -0.72917,-0.67674 -1.13664,-1.91108 -1.22242,-3.70301 l 0,-0.60049 2.58782,0 0,0.60049 c 0.0572,0.84831 0.2645,1.47024 0.62193,1.8658 0.35743,0.39556 0.89835,0.59334 1.62275,0.59334 1.10566,0 1.84912,-0.29309 2.23039,-0.87929 0.38126,-0.58618 0.57189,-1.72759 0.5719,-3.42421 l 0,-1.34396 c -10e-6,-1.26769 -0.17396,-2.15174 -0.52186,-2.65216 -0.34791,-0.50039 -0.96508,-0.7506 -1.85151,-0.75061 -0.84831,10e-6 -1.47978,0.22639 -1.8944,0.67913 -0.41462,0.45276 -0.6124,1.13188 -0.59334,2.03737 l -2.6736,0 0.18586,-11.8811 0,0 9.43626,0 0,2.27328 -7.0486,0 0,0 -0.10008,6.41951 0,0 c 0.44798,-0.44797 0.81971,-0.78158 1.1152,-1.00081 0.6672,-0.4861 1.48215,-0.72916 2.44484,-0.72917 1.52505,10e-6 2.58782,0.43608 3.18831,1.30821 0.60048,0.87215 0.90073,2.42341 0.90074,4.65379 l 0,1.34395 z"
           id="text3291" />
        <path
           transform="scale(1.3944102,0.7171491)"
           style="font-size:29.2809906px;font-style:normal;font-variant:normal;font-weight:normal;font-stretch:normal;text-align:center;text-anchor:middle;fill:#000000;fill-opacity:1;stroke:none;font-family:Univers Condensed;-inkscape-font-specification:'Univers Condensed,'"
           d="m 363.55375,848.88252 -7.27736,0 0,-1.04371 0,-1.0437 6.26224,-13.13928 1.81577,0 1.81576,0 0,13.0249 0,0 2.31618,0 0,2.20179 -2.31618,0 0,0 0,4.94689 -2.61641,0 0,-4.94689 0,0 z m 0,-2.20179 0,0 0,-10.52286 0,0 0,0 -4.96119,10.52286 0,0 4.96119,0 z"
           id="text3295" />
        <path
           transform="scale(1.3944102,0.7171491)"
           style="font-size:29.2809906px;font-style:normal;font-variant:normal;font-weight:normal;font-stretch:normal;text-align:center;text-anchor:middle;fill:#000000;fill-opacity:1;stroke:none;font-family:Univers Condensed;-inkscape-font-specification:'Univers Condensed,'"
           d="m 368.06384,709.67723 c -1e-5,1.60132 -0.6148,3.41708 -1.84436,5.44729 -1.10567,1.81101 -3.10253,4.43696 -5.99059,7.87785 l 0,0 8.02082,0 0,2.20179 -10.59435,0 0,-1.22957 0,-1.22957 c 2.90713,-3.40277 4.93259,-6.06207 6.07638,-7.97793 1.14378,-1.91583 1.71568,-3.60292 1.71568,-5.06126 0,-0.8197 -0.22876,-1.47738 -0.68627,-1.97304 -0.45752,-0.49562 -1.05801,-0.74344 -1.80147,-0.74346 -0.96269,2e-5 -1.62513,0.21209 -1.98733,0.63623 -0.3622,0.42417 -0.52901,1.17478 -0.50041,2.25183 l 0,0.60049 -2.61641,0 0,-0.60049 c -0.10485,-1.68707 0.26688,-2.95 1.11519,-3.7888 0.84831,-0.83875 2.17796,-1.25814 3.98896,-1.25816 1.66802,2e-5 2.93572,0.41464 3.8031,1.24387 0.86736,0.81973 1.30105,2.02071 1.30106,3.60293 l 0,0 z"
           id="text3299" />
        <path
           transform="scale(1.3944102,0.7171491)"
           style="font-size:29.2809906px;font-style:normal;font-variant:normal;font-weight:normal;font-stretch:normal;text-align:center;text-anchor:middle;fill:#000000;fill-opacity:1;stroke:none;font-family:Univers Condensed;-inkscape-font-specification:'Univers Condensed,'"
           d="m 339.98832,678.32587 0,-17.02816 0,0 -0.51471,0.38603 c -0.65768,0.4766 -1.49646,0.977 -2.51633,1.50122 l 0,-2.41625 c 0.76252,-0.40031 1.3916,-0.78157 1.88725,-1.14379 0.50516,-0.37171 1.06276,-0.86259 1.67279,-1.47263 l 2.08741,0 0,0 0,20.17358 0,0 -1.30106,0 -1.31535,0 0,0 z"
           id="text3303" />
      </g>
    </g>
  </g>
</svg>
