<?xml version="1.0" encoding="UTF-8" standalone="no"?>
<!-- Created with Inkscape (http://www.inkscape.org/) -->
<svg xmlns:dc="http://purl.org/dc/elements/1.1/" xmlns:cc="http://creativecommons.org/ns#" xmlns:rdf="http://www.w3.org/1999/02/22-rdf-syntax-ns#" xmlns:svg="http://www.w3.org/2000/svg" xmlns="http://www.w3.org/2000/svg" xmlns:sodipodi="http://sodipodi.sourceforge.net/DTD/sodipodi-0.dtd" xmlns:inkscape="http://www.inkscape.org/namespaces/inkscape" width="187.31839" height="248.8678" id="svg2" sodipodi:version="0.32" inkscape:version="0.46" version="1.0" sodipodi:docname="Kite.svg" inkscape:output_extension="org.inkscape.output.svg.inkscape" inkscape:export-filename="/Users/schoolfreeware/Desktop/S4m_Pics/NewPics/Kite.png" inkscape:export-xdpi="90" inkscape:export-ydpi="90">
  <defs id="defs4">
    <inkscape:perspective sodipodi:type="inkscape:persp3d" inkscape:vp_x="0 : 526.18109 : 1" inkscape:vp_y="0 : 1000 : 0" inkscape:vp_z="744.09448 : 526.18109 : 1" inkscape:persp3d-origin="372.04724 : 350.78739 : 1" id="perspective10"/>
  </defs>
  <sodipodi:namedview id="base" pagecolor="#ffffff" bordercolor="#666666" borderopacity="1.0" gridtolerance="10000" guidetolerance="10" objecttolerance="10" inkscape:pageopacity="0.0" inkscape:pageshadow="2" inkscape:zoom="0.9899495" inkscape:cx="95.725678" inkscape:cy="48.130706" inkscape:document-units="px" inkscape:current-layer="layer2" showgrid="false" inkscape:window-width="1086" inkscape:window-height="809" inkscape:window-x="455" inkscape:window-y="40"/>
  <metadata id="metadata7">
    <rdf:RDF>
      <cc:Work rdf:about="">
        <dc:format>image/svg+xml</dc:format>
        <dc:type rdf:resource="http://purl.org/dc/dcmitype/StillImage"/>
      </cc:Work>
    </rdf:RDF>
  </metadata>
  <g inkscape:label="Layer 1" inkscape:groupmode="layer" id="layer1" transform="translate(-41.4213, -1.50746)"/>
  <g inkscape:groupmode="layer" id="layer2" inkscape:label="Color" transform="translate(-41.4213, -1.50746)">
    <path style="fill: none; fill-rule: evenodd; stroke: rgb(0, 0, 0); stroke-width: 0.860303px; stroke-linecap: butt; stroke-linejoin: miter; stroke-opacity: 1;" d="M 116.72926,1.9376139 L 193.00886,64.512903 L 118.67215,202.10206" id="path2412" sodipodi:nodetypes="ccc"/>
    <path style="fill: none; fill-rule: evenodd; stroke: rgb(0, 0, 0); stroke-width: 0.856774px; stroke-linecap: butt; stroke-linejoin: miter; stroke-opacity: 1;" d="M 117.438,2.3311995 L 42.102133,65.171556 L 118.3852,201.68533" id="path2414" sodipodi:nodetypes="ccc"/>
    <path style="fill: none; fill-rule: evenodd; stroke: rgb(0, 0, 0); stroke-width: 1px; stroke-linecap: butt; stroke-linejoin: miter; stroke-opacity: 1;" d="M 41.92133,65.142084 L 193.19167,64.889546" id="path2416" sodipodi:nodetypes="cc"/>
    <path style="fill: none; fill-rule: evenodd; stroke: rgb(0, 0, 0); stroke-width: 0.965; stroke-linecap: butt; stroke-linejoin: miter; stroke-miterlimit: 4; stroke-dasharray: none; stroke-opacity: 1;" d="M 117.17768,2.4988549 L 118.69291,201.52645" id="path2418" sodipodi:nodetypes="cc"/>
    <path style="fill: none; fill-rule: evenodd; stroke: rgb(0, 0, 0); stroke-width: 1px; stroke-linecap: butt; stroke-linejoin: miter; stroke-opacity: 1;" d="M 118.69292,200.50252 C 118.67779,205.81688 122.62683,211.52884 127.78429,215.65481 C 135.0103,221.43562 145.63971,224.03301 154.55333,226.26141 C 164.39987,228.72305 173.86566,228.3056 183.84776,230.30202 C 201.89712,233.91189 204.98983,232.4959 222.23356,239.39339" id="path3210" sodipodi:nodetypes="cssss"/>
    <path sodipodi:type="star" style="opacity: 1; fill: rgb(255, 0, 0); fill-opacity: 1; stroke: rgb(46, 106, 0); stroke-width: 1.465; stroke-linejoin: round; stroke-miterlimit: 4; stroke-dasharray: none; stroke-opacity: 1;" id="path3212" sodipodi:sides="3" sodipodi:cx="20.708126" sodipodi:cy="-28.802103" sodipodi:r1="7.2315917" sodipodi:r2="3.6589322" sodipodi:arg1="0.21109333" sodipodi:arg2="1.2582909" inkscape:flatsided="false" inkscape:rounded="0" inkscape:randomized="0" d="M 27.779194,-27.286874 L 21.833042,-25.320387 L 15.860366,-23.435993 L 17.130413,-29.568756 L 18.484819,-35.683442 L 23.160923,-31.517167 L 27.779194,-27.286874 z" transform="translate(107.076, 232.335)"/>
    <path sodipodi:type="star" style="opacity: 1; fill: rgb(255, 0, 0); fill-opacity: 1; stroke: rgb(46, 106, 0); stroke-width: 1.465; stroke-linejoin: round; stroke-miterlimit: 4; stroke-dasharray: none; stroke-opacity: 1;" id="path3214" sodipodi:sides="3" sodipodi:cx="20.708126" sodipodi:cy="-28.802103" sodipodi:r1="7.2315917" sodipodi:r2="3.6589322" sodipodi:arg1="0.21109333" sodipodi:arg2="1.2582909" inkscape:flatsided="false" inkscape:rounded="0" inkscape:randomized="0" d="M 27.779194,-27.286874 L 21.833042,-25.320387 L 15.860366,-23.435993 L 17.130413,-29.568756 L 18.484819,-35.683442 L 23.160923,-31.517167 L 27.779194,-27.286874 z" transform="matrix(0.637173, 0.770721, -0.770721, 0.637173, 83.0178, 218.178)" inkscape:transform-center-x="-2.5253814" inkscape:transform-center-y="6.9892171"/>
    <path transform="translate(121.218, 243.952)" d="M 27.779194,-27.286874 L 21.833042,-25.320387 L 15.860366,-23.435993 L 17.130413,-29.568756 L 18.484819,-35.683442 L 23.160923,-31.517167 L 27.779194,-27.286874 z" inkscape:randomized="0" inkscape:rounded="0" inkscape:flatsided="false" sodipodi:arg2="1.2582909" sodipodi:arg1="0.21109333" sodipodi:r2="3.6589322" sodipodi:r1="7.2315917" sodipodi:cy="-28.802103" sodipodi:cx="20.708126" sodipodi:sides="3" id="path3216" style="opacity: 1; fill: rgb(0, 128, 128); fill-opacity: 1; stroke: rgb(46, 106, 0); stroke-width: 1.465; stroke-linejoin: round; stroke-miterlimit: 4; stroke-dasharray: none; stroke-opacity: 1;" sodipodi:type="star"/>
    <path inkscape:transform-center-y="6.9892171" inkscape:transform-center-x="-2.5253814" transform="matrix(0.637173, 0.770721, -0.770721, 0.637173, 97.16, 229.794)" d="M 27.779194,-27.286874 L 21.833042,-25.320387 L 15.860366,-23.435993 L 17.130413,-29.568756 L 18.484819,-35.683442 L 23.160923,-31.517167 L 27.779194,-27.286874 z" inkscape:randomized="0" inkscape:rounded="0" inkscape:flatsided="false" sodipodi:arg2="1.2582909" sodipodi:arg1="0.21109333" sodipodi:r2="3.6589322" sodipodi:r1="7.2315917" sodipodi:cy="-28.802103" sodipodi:cx="20.708126" sodipodi:sides="3" id="path3218" style="opacity: 1; fill: rgb(0, 128, 128); fill-opacity: 1; stroke: rgb(46, 106, 0); stroke-width: 1.465; stroke-linejoin: round; stroke-miterlimit: 4; stroke-dasharray: none; stroke-opacity: 1;" sodipodi:type="star"/>
    <path transform="matrix(0.969335, -0.245743, 0.245743, 0.969335, 145.583, 252.228)" d="M 27.779194,-27.286874 L 21.833042,-25.320387 L 15.860366,-23.435993 L 17.130413,-29.568756 L 18.484819,-35.683442 L 23.160923,-31.517167 L 27.779194,-27.286874 z" inkscape:randomized="0" inkscape:rounded="0" inkscape:flatsided="false" sodipodi:arg2="1.2582909" sodipodi:arg1="0.21109333" sodipodi:r2="3.6589322" sodipodi:r1="7.2315917" sodipodi:cy="-28.802103" sodipodi:cx="20.708126" sodipodi:sides="3" id="path3222" style="opacity: 1; fill: rgb(0, 0, 255); fill-opacity: 1; stroke: rgb(46, 106, 0); stroke-width: 1.465; stroke-linejoin: round; stroke-miterlimit: 4; stroke-dasharray: none; stroke-opacity: 1;" sodipodi:type="star"/>
    <path inkscape:transform-center-y="4.8564865" inkscape:transform-center-x="-4.6095952" transform="matrix(0.807033, 0.590506, -0.590506, 0.807033, 118.784, 244.417)" d="M 27.779194,-27.286874 L 21.833042,-25.320387 L 15.860366,-23.435993 L 17.130413,-29.568756 L 18.484819,-35.683442 L 23.160923,-31.517167 L 27.779194,-27.286874 z" inkscape:randomized="0" inkscape:rounded="0" inkscape:flatsided="false" sodipodi:arg2="1.2582909" sodipodi:arg1="0.21109333" sodipodi:r2="3.6589322" sodipodi:r1="7.2315917" sodipodi:cy="-28.802103" sodipodi:cx="20.708126" sodipodi:sides="3" id="path3224" style="opacity: 1; fill: rgb(0, 0, 255); fill-opacity: 1; stroke: rgb(46, 106, 0); stroke-width: 1.465; stroke-linejoin: round; stroke-miterlimit: 4; stroke-dasharray: none; stroke-opacity: 1;" sodipodi:type="star"/>
    <path transform="matrix(0.955106, -0.296263, 0.296263, 0.955106, 167.019, 255.6)" d="M 27.779194,-27.286874 L 21.833042,-25.320387 L 15.860366,-23.435993 L 17.130413,-29.568756 L 18.484819,-35.683442 L 23.160923,-31.517167 L 27.779194,-27.286874 z" inkscape:randomized="0" inkscape:rounded="0" inkscape:flatsided="false" sodipodi:arg2="1.2582909" sodipodi:arg1="0.21109333" sodipodi:r2="3.6589322" sodipodi:r1="7.2315917" sodipodi:cy="-28.802103" sodipodi:cx="20.708126" sodipodi:sides="3" id="path3226" style="opacity: 1; fill: rgb(255, 255, 0); fill-opacity: 1; stroke: rgb(216, 57, 0); stroke-width: 1.465; stroke-linejoin: round; stroke-miterlimit: 4; stroke-dasharray: none; stroke-opacity: 1;" sodipodi:type="star"/>
    <path inkscape:transform-center-y="4.3626565" inkscape:transform-center-x="-5.0766874" transform="matrix(0.836904, 0.54735, -0.54735, 0.836904, 139.846, 249.206)" d="M 27.779194,-27.286874 L 21.833042,-25.320387 L 15.860366,-23.435993 L 17.130413,-29.568756 L 18.484819,-35.683442 L 23.160923,-31.517167 L 27.779194,-27.286874 z" inkscape:randomized="0" inkscape:rounded="0" inkscape:flatsided="false" sodipodi:arg2="1.2582909" sodipodi:arg1="0.21109333" sodipodi:r2="3.6589322" sodipodi:r1="7.2315917" sodipodi:cy="-28.802103" sodipodi:cx="20.708126" sodipodi:sides="3" id="path3228" style="opacity: 1; fill: rgb(255, 255, 0); fill-opacity: 1; stroke: rgb(216, 57, 0); stroke-width: 1.465; stroke-linejoin: round; stroke-miterlimit: 4; stroke-dasharray: none; stroke-opacity: 1;" sodipodi:type="star"/>
    <path sodipodi:type="star" style="opacity: 1; fill: rgb(255, 0, 0); fill-opacity: 1; stroke: rgb(46, 106, 0); stroke-width: 1.465; stroke-linejoin: round; stroke-miterlimit: 4; stroke-dasharray: none; stroke-opacity: 1;" id="path3230" sodipodi:sides="3" sodipodi:cx="20.708126" sodipodi:cy="-28.802103" sodipodi:r1="7.2315917" sodipodi:r2="3.6589322" sodipodi:arg1="0.21109333" sodipodi:arg2="1.2582909" inkscape:flatsided="false" inkscape:rounded="0" inkscape:randomized="0" d="M 27.779194,-27.286874 L 21.833042,-25.320387 L 15.860366,-23.435993 L 17.130413,-29.568756 L 18.484819,-35.683442 L 23.160923,-31.517167 L 27.779194,-27.286874 z" transform="matrix(0.983256, -0.182232, 0.182232, 0.983256, 183.395, 258.161)"/>
    <path sodipodi:type="star" style="opacity: 1; fill: rgb(255, 0, 0); fill-opacity: 1; stroke: rgb(46, 106, 0); stroke-width: 1.465; stroke-linejoin: round; stroke-miterlimit: 4; stroke-dasharray: none; stroke-opacity: 1;" id="path3232" sodipodi:sides="3" sodipodi:cx="20.708126" sodipodi:cy="-28.802103" sodipodi:r1="7.2315917" sodipodi:r2="3.6589322" sodipodi:arg1="0.21109333" sodipodi:arg2="1.2582909" inkscape:flatsided="false" inkscape:rounded="0" inkscape:randomized="0" d="M 27.779194,-27.286874 L 21.833042,-25.320387 L 15.860366,-23.435993 L 17.130413,-29.568756 L 18.484819,-35.683442 L 23.160923,-31.517167 L 27.779194,-27.286874 z" transform="matrix(0.766954, 0.641702, -0.641702, 0.766954, 157.159, 248.625)" inkscape:transform-center-x="-4.0134608" inkscape:transform-center-y="5.4495826"/>
    <path transform="translate(200.228, 259.777)" d="M 27.779194,-27.286874 L 21.833042,-25.320387 L 15.860366,-23.435993 L 17.130413,-29.568756 L 18.484819,-35.683442 L 23.160923,-31.517167 L 27.779194,-27.286874 z" inkscape:randomized="0" inkscape:rounded="0" inkscape:flatsided="false" sodipodi:arg2="1.2582909" sodipodi:arg1="0.21109333" sodipodi:r2="3.6589322" sodipodi:r1="7.2315917" sodipodi:cy="-28.802103" sodipodi:cx="20.708126" sodipodi:sides="3" id="path3234" style="opacity: 1; fill: rgb(0, 128, 128); fill-opacity: 1; stroke: rgb(46, 106, 0); stroke-width: 1.465; stroke-linejoin: round; stroke-miterlimit: 4; stroke-dasharray: none; stroke-opacity: 1;" sodipodi:type="star"/>
    <path inkscape:transform-center-y="6.9892171" inkscape:transform-center-x="-2.5253814" transform="matrix(0.637173, 0.770721, -0.770721, 0.637173, 176.17, 245.619)" d="M 27.779194,-27.286874 L 21.833042,-25.320387 L 15.860366,-23.435993 L 17.130413,-29.568756 L 18.484819,-35.683442 L 23.160923,-31.517167 L 27.779194,-27.286874 z" inkscape:randomized="0" inkscape:rounded="0" inkscape:flatsided="false" sodipodi:arg2="1.2582909" sodipodi:arg1="0.21109333" sodipodi:r2="3.6589322" sodipodi:r1="7.2315917" sodipodi:cy="-28.802103" sodipodi:cx="20.708126" sodipodi:sides="3" id="path3236" style="opacity: 1; fill: rgb(0, 128, 128); fill-opacity: 1; stroke: rgb(46, 106, 0); stroke-width: 1.465; stroke-linejoin: round; stroke-miterlimit: 4; stroke-dasharray: none; stroke-opacity: 1;" sodipodi:type="star"/>
    <path style="opacity: 1; fill: rgb(255, 0, 0); fill-opacity: 1; stroke: rgb(216, 57, 0); stroke-width: 0pt; stroke-linejoin: round; stroke-miterlimit: 4; stroke-dasharray: none; stroke-opacity: 1;" d="M 44.288685,64.102725 C 46.793285,61.905262 116.44813,3.9114123 116.50787,3.9738347 C 116.63232,4.1038716 117.07857,64.145641 116.95613,64.286517 C 116.89578,64.355965 100.40614,64.44372 80.31249,64.48153 C 45.32395,64.547361 43.80016,64.53134 44.288688,64.102723 L 44.288685,64.102725 z" id="path3171"/>
    <path style="opacity: 1; fill: rgb(255, 255, 0); fill-opacity: 1; stroke: rgb(216, 57, 0); stroke-width: 0pt; stroke-linejoin: round; stroke-miterlimit: 4; stroke-dasharray: none; stroke-opacity: 1;" d="M 118.03065,34.928959 C 117.93045,18.782302 117.88814,5.1546045 117.93663,4.6451871 L 118.0248,3.7189732 L 154.63085,33.750859 C 174.76418,50.268403 191.35025,63.896101 191.4888,64.034636 C 191.65628,64.202114 179.42219,64.286517 154.97676,64.286517 L 118.21284,64.286517 L 118.03065,34.928959 z" id="path3173"/>
    <path style="opacity: 1; fill: rgb(0, 0, 255); fill-opacity: 1; stroke: rgb(216, 57, 0); stroke-width: 0pt; stroke-linejoin: round; stroke-miterlimit: 4; stroke-dasharray: none; stroke-opacity: 1;" d="M 80.584075,132.90092 L 43.159754,65.928015 L 80.066745,65.739197 C 100.36558,65.635349 116.99665,65.578528 117.02468,65.612928 C 117.08643,65.688735 118.11172,199.75211 118.05109,199.82352 C 118.02761,199.85117 101.16745,169.736 80.584072,132.90091 L 80.584075,132.90092 z" id="path3175"/>
    <path style="opacity: 1; fill: rgb(0, 255, 0); fill-opacity: 1; stroke: rgb(216, 57, 0); stroke-width: 0pt; stroke-linejoin: round; stroke-miterlimit: 4; stroke-dasharray: none; stroke-opacity: 1;" d="M 119.17275,191.18693 C 119.16554,183.84252 118.60042,104.2517 118.3412,74.07237 L 118.26799,65.549208 L 154.98085,65.549208 C 189.39727,65.549208 191.68343,65.576 191.52933,65.977538 C 191.43894,66.213118 175.30562,96.129419 155.6775,132.4582 C 136.04941,168.78698 119.80811,198.85146 119.58574,199.26815 C 119.20817,199.97568 119.18086,199.44139 119.17275,191.18693 L 119.17275,191.18693 z" id="path3177"/>
  </g>
</svg>