<?xml version='1.0' ?><!-- Created with Inkscape (http://www.inkscape.org/) --><svg inkscape:version="0.38.1" sodipodi:docbase="/home/nicu/Desktop" sodipodi:docname="birthday_cake.svg" sodipodi:version="0.32" height="120.00000pt" id="svg1" width="120.00000pt" xmlns:inkscape="http://www.inkscape.org/namespaces/inkscape" xmlns:sodipodi="http://sodipodi.sourceforge.net/DTD/sodipodi-0.dtd" xmlns="http://www.w3.org/2000/svg" xmlns:xlink="http://www.w3.org/1999/xlink">
  <defs id="defs3">
    <linearGradient id="linearGradient930">
      <stop id="stop931" offset="0" style="stop-color:#000;stop-opacity:1;"/>
      <stop id="stop932" offset="1" style="stop-color:#fff;stop-opacity:1;"/>
    </linearGradient>
    <linearGradient id="linearGradient933" xlink:href="#linearGradient930"/>
  </defs>
  <sodipodi:namedview inkscape:cx="49.578888" inkscape:cy="58.175415" inkscape:pageopacity="0.0" inkscape:pageshadow="2" inkscape:window-height="748" inkscape:window-width="736" inkscape:window-x="239" inkscape:window-y="32" inkscape:zoom="1.0000000" bordercolor="#666666" borderopacity="1.0" id="base" pagecolor="#ffffff"/>
  <path d="M 142.58819,108.35693 C 142.58819,120.82778 113.35869,130.94906 77.343762,130.94906 C 41.328834,130.94906 12.099327,120.82778 12.099327,108.35693 C 12.099327,95.886070 41.328834,85.764797 77.343762,85.764797 C 113.35869,85.764797 142.58819,95.886070 142.58819,108.35693 z " id="path850" style="fill:#e6b100;fill-rule:evenodd;stroke:#000000;stroke-width:1.4159204pt;"/>
  <path sodipodi:nodetypes="cccccccc" d="M 77.343746,42.674366 C 46.102777,42.674366 20.747788,51.739694 20.747788,62.909473 C 20.747788,63.427720 20.962982,102.35331 20.962982,102.60736 C 20.962982,113.77713 46.317971,122.84247 77.558939,122.84247 C 108.79991,122.84247 134.15490,113.77713 134.15490,102.60736 L 133.93970,63.681805 C 133.93970,63.681805 133.93970,63.173674 133.93970,62.909473 C 133.93970,51.739694 108.58471,42.674366 77.343746,42.674366 z " id="path829" style="fill:#441b13;fill-rule:evenodd;stroke:#000000;stroke-width:1.1624797pt;"/>
  <path sodipodi:nodetypes="ccccccccccccccccccc" d="M 19.026238,58.533049 C 18.563925,62.686818 14.605082,73.928397 22.590887,72.170647 C 30.561560,72.797690 22.466861,85.864242 30.836717,86.377144 C 37.637907,86.893435 31.906431,76.085345 38.079318,79.362451 C 44.373274,80.624980 43.562633,86.833855 44.417924,91.033006 C 48.576127,94.359520 49.926310,88.531043 48.652029,85.840388 C 51.774056,81.311743 60.466289,83.238902 64.981398,84.927950 C 67.496993,89.513930 69.278054,98.975650 77.220334,96.410060 C 82.513862,94.803400 84.831414,85.144604 90.220327,84.283778 C 95.070870,84.331641 95.424646,96.034740 100.79695,90.734814 C 102.26160,86.413759 110.09840,78.627754 114.89691,83.825017 C 119.73087,88.270058 127.12111,84.931223 125.32427,77.298349 C 127.91550,72.781077 135.47454,79.136443 135.49032,66.708794 C 136.65332,60.843860 135.70107,55.408456 127.63046,50.682485 C 122.74695,48.345206 115.50491,47.228877 108.40452,44.320899 C 100.70589,41.616082 93.480096,40.160246 85.362386,39.022638 C 71.197972,38.781445 59.414039,40.453060 45.499565,43.099730 C 38.930102,43.884098 34.254830,47.982411 28.263849,49.998982 C 24.490423,51.733744 20.609569,55.224559 19.026238,58.533049 z " id="path833" style="fill:#954a3d;fill-rule:evenodd;stroke:#000000;stroke-width:1.3149115pt;"/>
  <path d="M 22.469338,64.417753 C 22.469338,69.565657 27.587409,68.690744 30.646701,71.479398 C 33.636368,72.841993 35.652831,73.833280 39.254451,73.833280 C 44.360724,73.833280 38.604149,72.163795 37.102514,71.479398 C 33.559251,71.479398 28.064376,69.609132 28.064376,66.379321 C 25.940954,64.443746 25.588866,64.417753 22.469338,64.417753 z " id="path835" style="fill:#ffffff;fill-rule:evenodd;stroke:none;stroke-opacity:1;stroke-width:1pt;stroke-linejoin:miter;stroke-linecap:butt;fill-opacity:0.80000001;"/>
  <path d="M 52.166076,75.402535 C 53.510568,77.853640 59.963600,78.933357 65.508089,78.933357 C 68.445032,80.271921 81.002040,81.379492 81.002040,77.364103 C 81.002040,74.346192 73.058521,76.579476 71.533514,76.579476 C 68.825713,76.579476 57.744076,73.064183 56.039564,74.617907 C 54.381809,74.617907 53.992050,74.736758 52.166076,75.402535 z " id="path836" style="fill:#ffffff;fill-rule:evenodd;stroke:none;stroke-opacity:1;stroke-width:1pt;stroke-linejoin:miter;stroke-linecap:butt;fill-opacity:0.80000001;"/>
  <path d="M 90.040177,76.579476 C 93.169623,79.432078 103.71062,77.606728 108.54684,75.402535 C 110.45667,74.241947 117.58498,73.503970 117.58498,71.087085 C 119.26502,69.555671 111.38475,70.461801 110.26839,71.479398 C 104.85296,71.479398 97.156078,72.656339 90.900952,72.656339 C 88.286955,72.656339 89.590008,75.553614 90.040177,76.579476 z " id="path837" style="fill:#ffffff;fill-rule:evenodd;stroke:none;stroke-opacity:1;stroke-width:1pt;stroke-linejoin:miter;stroke-linecap:butt;fill-opacity:0.80000001;"/>
  <path d="M 126.02325,71.264572 C 127.45687,69.698788 130.80198,66.053621 132.28232,62.820022 C 132.28232,61.461978 134.36549,56.788200 131.91414,56.788200 C 129.83741,56.788200 127.49597,59.809592 127.49597,62.015779 C 126.52702,63.074054 127.47176,68.047601 125.28689,68.047601 C 125.28689,71.223419 122.84655,71.264572 126.02325,71.264572 z " id="path838" style="fill:#ffffff;fill-opacity:0.80000001;fill-rule:evenodd;stroke:none;stroke-width:0.93640270pt;"/>
  <path d="M 117.15459,49.509835 C 113.68121,49.509835 110.34178,47.777873 106.39490,45.979012 C 101.65232,44.898254 96.935597,42.840503 92.192115,42.840503 C 92.192115,48.479173 101.07741,51.933379 106.39490,49.509835 C 110.37305,49.509835 112.79551,51.496565 117.15459,49.509835 z " id="path839" style="fill:#ffffff;fill-rule:evenodd;stroke:none;stroke-opacity:1;stroke-width:1pt;stroke-linejoin:miter;stroke-linecap:butt;fill-opacity:0.80000001;"/>
  <path d="M 80.384161,42.791210 C 79.119921,42.418025 72.284485,41.926642 68.146895,42.498480 C 65.494107,42.865111 62.886595,43.622280 60.126449,44.003747 C 55.936427,44.582832 55.613786,47.008205 60.088030,46.389841 C 64.516815,45.777759 68.862232,46.367590 73.472835,45.730380 C 75.755580,47.263279 79.462999,44.243317 80.384161,42.791210 z " id="path840" style="fill:#ffffff;fill-opacity:0.80000001;fill-rule:evenodd;stroke:none;stroke-width:1.0000000pt;"/>
  <path d="M 44.849489,48.332894 C 42.938269,48.332894 38.087685,50.686776 34.950576,50.686776 C 32.793378,50.686776 25.482051,52.328362 25.482051,54.217599 C 22.713187,56.741517 33.186749,52.648344 37.102514,52.648344 C 39.370856,52.648344 43.558326,52.754451 43.558326,50.686776 C 45.156883,50.686776 44.849489,49.605949 44.849489,48.332894 z " id="path841" style="fill:#ffffff;fill-rule:evenodd;stroke:none;stroke-opacity:1;stroke-width:1pt;stroke-linejoin:miter;stroke-linecap:butt;fill-opacity:0.80000001;"/>
  <path d="M 31.077089,61.671558 C 33.666019,61.671558 39.119597,62.456185 43.127939,62.456185 C 45.166575,60.597895 50.444526,63.183008 50.444526,59.317676 C 50.444526,58.504059 41.325093,57.748421 40.115226,57.748421 C 38.451586,57.748421 34.021343,58.595451 31.077089,61.671558 z " id="path842" style="fill:#ffffff;fill-rule:evenodd;stroke:none;stroke-opacity:1;stroke-width:1pt;stroke-linejoin:miter;stroke-linecap:butt;fill-opacity:0.80000001;"/>
  <path d="M 47.431814,70.302457 C 50.711210,67.313171 53.328132,64.927752 56.469952,62.063871 C 58.146555,60.535587 62.723982,62.351994 58.191502,64.417753 C 58.191502,66.822093 55.979779,68.733203 53.457239,68.733203 C 51.344838,70.658732 50.639478,70.302457 47.431814,70.302457 z " id="path843" style="fill:#ffffff;fill-rule:evenodd;stroke:none;stroke-opacity:1;stroke-width:1pt;stroke-linejoin:miter;stroke-linecap:butt;fill-opacity:0.80000001;"/>
  <path d="M 52.166076,49.902149 C 52.166076,52.157922 62.495377,52.826742 62.495377,55.002226 C 65.680492,55.002226 64.163721,50.686776 61.204214,50.686776 C 57.440052,50.686776 55.849899,49.230562 52.166076,49.902149 z " id="path844" style="fill:#ffffff;fill-rule:evenodd;stroke:none;stroke-opacity:1;stroke-width:1pt;stroke-linejoin:miter;stroke-linecap:butt;fill-opacity:0.80000001;"/>
  <path d="M 85.305915,45.979012 C 83.053507,48.032162 82.896261,53.040658 79.710877,53.040658 C 79.710877,57.619941 85.305915,55.271806 85.305915,52.256031 C 86.469568,51.195319 87.457852,47.197721 85.305915,45.979012 z " id="path845" style="fill:#ffffff;fill-rule:evenodd;stroke:none;stroke-opacity:1;stroke-width:1pt;stroke-linejoin:miter;stroke-linecap:butt;fill-opacity:0.80000001;"/>
  <path d="M 78.850102,64.417753 C 78.850102,65.281544 80.571652,70.415144 80.571652,71.087085 C 84.054709,72.674550 85.305915,69.768328 85.305915,67.163948 C 82.062746,64.207684 85.485322,59.233546 78.850102,64.417753 z " id="path846" style="fill:#ffffff;fill-rule:evenodd;stroke:none;stroke-opacity:1;stroke-width:1pt;stroke-linejoin:miter;stroke-linecap:butt;fill-opacity:0.80000001;"/>
  <path d="M 119.73692,52.648344 C 117.89767,52.648344 105.40813,54.447301 104.24297,56.571480 C 104.24297,62.799174 112.98525,57.356108 117.15459,57.356108 C 119.58736,57.356108 120.13014,54.798982 119.73692,52.648344 z " id="path847" style="fill:#ffffff;fill-rule:evenodd;stroke:none;stroke-opacity:1;stroke-width:1pt;stroke-linejoin:miter;stroke-linecap:butt;fill-opacity:0.80000001;"/>
  <path d="M 119.73692,65.594694 C 116.95138,63.055576 112.05580,63.633126 108.11645,63.633126 C 105.18046,63.633126 102.83294,66.379321 106.82529,66.379321 C 110.23787,66.379321 112.92700,67.163948 116.72420,67.163948 C 118.50359,67.163948 117.36093,67.327333 119.73692,65.594694 z " id="path848" style="fill:#ffffff;fill-rule:evenodd;stroke:none;stroke-opacity:1;stroke-width:1pt;stroke-linejoin:miter;stroke-linecap:butt;fill-opacity:0.80000001;"/>
  <g id="g862" transform="matrix(1.377240,0.000000,0.000000,1.255404,-92.37626,-13.95116)">
    <path sodipodi:nodetypes="ccccccccc" d="M 116.37367,29.656913 C 117.42503,31.494860 119.20270,30.519711 121.13173,30.663882 C 123.08924,30.829302 123.94552,29.554500 125.13887,29.160544 C 128.61470,31.261413 125.53568,34.117738 126.21844,37.735531 C 126.26559,40.374521 126.69440,44.609261 127.09768,47.409798 C 127.26167,49.704910 121.17006,49.881472 120.01122,48.859931 C 119.05396,48.275919 118.30976,46.408796 118.90900,44.245653 C 119.07057,41.580958 118.23024,40.192608 117.73904,37.567818 C 117.87469,34.343844 114.35346,33.400097 116.37367,29.656913 z " id="path857" style="fill:#0075ff;fill-rule:evenodd;stroke:#000000;stroke-width:0.71048145pt;stroke-linejoin:round;"/>
    <path sodipodi:nodetypes="ccccccccc" d="M 116.36976,29.313863 C 117.14648,29.527930 118.77550,29.725333 119.55824,29.401739 C 120.43406,29.401739 121.68150,29.667347 122.32159,29.138111 C 122.82249,29.138111 124.23532,28.962359 124.87238,28.962359 C 125.67597,28.962359 124.44725,28.688447 124.44725,29.401739 C 123.85761,29.401739 123.37622,29.847898 122.95929,30.192624 C 122.59627,30.792926 121.54733,30.807757 120.83363,30.807757 C 120.00194,30.807757 119.02432,30.719881 118.17656,30.719881 C 117.39250,30.719881 116.68861,30.583657 116.36976,29.313863 z " id="path858" style="fill:#00ffff;fill-rule:evenodd;stroke:#000000;stroke-width:0.71048145pt;stroke-linejoin:round;"/>
    <path sodipodi:nodetypes="ccc" d="M 118.28285,13.759789 C 119.77081,15.429436 127.95457,26.589703 119.77081,27.204836 C 108.71740,28.522978 119.23940,17.626339 118.28285,13.759789 z " id="path860" style="fill:#ffa800;fill-rule:evenodd;stroke:#000000;stroke-width:0.71048145pt;"/>
    <path sodipodi:nodetypes="ccc" d="M 119.33474,18.318327 C 120.11204,19.360168 123.85577,26.499805 119.58062,26.883640 C 113.80638,27.706146 119.83443,20.731011 119.33474,18.318327 z " id="path861" style="fill:#ffff00;fill-rule:evenodd;stroke:none;stroke-opacity:1;stroke-width:1pt;stroke-linejoin:miter;stroke-linecap:butt;fill-opacity:1.0000000;"/>
    <path sodipodi:nodetypes="ccc" d="M 120.93991,30.280500 C 119.32455,29.308344 118.66786,27.613622 119.20631,26.698105 C 119.62285,25.699877 119.80142,23.445732 119.80142,22.040847" id="path859" style="fill:none;fill-opacity:0.75000000;fill-rule:evenodd;stroke:#000000;stroke-width:0.71048145pt;"/>
  </g>
  <g id="g868" transform="matrix(1.377240,0.000000,0.000000,1.255404,-50.28096,-5.923700e-2)">
    <path sodipodi:nodetypes="ccccccccc" d="M 116.37367,29.656913 C 117.42503,31.494860 119.20270,30.519711 121.13173,30.663882 C 123.08924,30.829302 123.94552,29.554500 125.13887,29.160544 C 128.61470,31.261413 125.53568,34.117738 126.21844,37.735531 C 126.26559,40.374521 126.69440,44.609261 127.09768,47.409798 C 127.26167,49.704910 121.17006,49.881472 120.01122,48.859931 C 119.05396,48.275919 118.30976,46.408796 118.90900,44.245653 C 119.07057,41.580958 118.23024,40.192608 117.73904,37.567818 C 117.87469,34.343844 114.35346,33.400097 116.37367,29.656913 z " id="path869" style="fill:#0075ff;fill-rule:evenodd;stroke:#000000;stroke-width:0.71048145pt;stroke-linejoin:round;"/>
    <path sodipodi:nodetypes="ccccccccc" d="M 116.36976,29.313863 C 117.14648,29.527930 118.77550,29.725333 119.55824,29.401739 C 120.43406,29.401739 121.68150,29.667347 122.32159,29.138111 C 122.82249,29.138111 124.23532,28.962359 124.87238,28.962359 C 125.67597,28.962359 124.44725,28.688447 124.44725,29.401739 C 123.85761,29.401739 123.37622,29.847898 122.95929,30.192624 C 122.59627,30.792926 121.54733,30.807757 120.83363,30.807757 C 120.00194,30.807757 119.02432,30.719881 118.17656,30.719881 C 117.39250,30.719881 116.68861,30.583657 116.36976,29.313863 z " id="path870" style="fill:#00ffff;fill-rule:evenodd;stroke:#000000;stroke-width:0.71048145pt;stroke-linejoin:round;"/>
    <path sodipodi:nodetypes="ccc" d="M 118.28285,13.759789 C 119.77081,15.429436 127.95457,26.589703 119.77081,27.204836 C 108.71740,28.522978 119.23940,17.626339 118.28285,13.759789 z " id="path871" style="fill:#ffa800;fill-rule:evenodd;stroke:#000000;stroke-width:0.71048145pt;"/>
    <path sodipodi:nodetypes="ccc" d="M 119.33474,18.318327 C 120.11204,19.360168 123.85577,26.499805 119.58062,26.883640 C 113.80638,27.706146 119.83443,20.731011 119.33474,18.318327 z " id="path872" style="fill:#ffff00;fill-rule:evenodd;stroke:none;stroke-opacity:1;stroke-width:1pt;stroke-linejoin:miter;stroke-linecap:butt;fill-opacity:1.0000000;"/>
    <path sodipodi:nodetypes="ccc" d="M 120.93991,30.280500 C 119.32455,29.308344 118.66786,27.613622 119.20631,26.698105 C 119.62285,25.699877 119.80142,23.445732 119.80142,22.040847" id="path873" style="fill:none;fill-opacity:0.75000000;fill-rule:evenodd;stroke:#000000;stroke-width:0.71048145pt;"/>
  </g>
  <g id="g874" transform="matrix(-1.342944,0.278415,0.305435,1.224142,182.8763,-32.72832)">
    <path sodipodi:nodetypes="ccccccccc" d="M 116.37367,29.656913 C 117.42503,31.494860 119.20270,30.519711 121.13173,30.663882 C 123.08924,30.829302 123.94552,29.554500 125.13887,29.160544 C 128.61470,31.261413 125.53568,34.117738 126.21844,37.735531 C 126.26559,40.374521 126.69440,44.609261 127.09768,47.409798 C 127.26167,49.704910 121.17006,49.881472 120.01122,48.859931 C 119.05396,48.275919 118.30976,46.408796 118.90900,44.245653 C 119.07057,41.580958 118.23024,40.192608 117.73904,37.567818 C 117.87469,34.343844 114.35346,33.400097 116.37367,29.656913 z " id="path875" style="fill:#0075ff;fill-rule:evenodd;stroke:#000000;stroke-width:0.71048145pt;stroke-linejoin:round;"/>
    <path sodipodi:nodetypes="ccccccccc" d="M 116.36976,29.313863 C 117.14648,29.527930 118.77550,29.725333 119.55824,29.401739 C 120.43406,29.401739 121.68150,29.667347 122.32159,29.138111 C 122.82249,29.138111 124.23532,28.962359 124.87238,28.962359 C 125.67597,28.962359 124.44725,28.688447 124.44725,29.401739 C 123.85761,29.401739 123.37622,29.847898 122.95929,30.192624 C 122.59627,30.792926 121.54733,30.807757 120.83363,30.807757 C 120.00194,30.807757 119.02432,30.719881 118.17656,30.719881 C 117.39250,30.719881 116.68861,30.583657 116.36976,29.313863 z " id="path876" style="fill:#00ffff;fill-rule:evenodd;stroke:#000000;stroke-width:0.71048145pt;stroke-linejoin:round;"/>
    <path sodipodi:nodetypes="ccc" d="M 118.28285,13.759789 C 119.77081,15.429436 127.95457,26.589703 119.77081,27.204836 C 108.71740,28.522978 119.23940,17.626339 118.28285,13.759789 z " id="path877" style="fill:#ffa800;fill-rule:evenodd;stroke:#000000;stroke-width:0.71048145pt;"/>
    <path sodipodi:nodetypes="ccc" d="M 119.33474,18.318327 C 120.11204,19.360168 123.85577,26.499805 119.58062,26.883640 C 113.80638,27.706146 119.83443,20.731011 119.33474,18.318327 z " id="path878" style="fill:#ffff00;fill-rule:evenodd;stroke:none;stroke-opacity:1;stroke-width:1pt;stroke-linejoin:miter;stroke-linecap:butt;fill-opacity:1.0000000;"/>
    <path sodipodi:nodetypes="ccc" d="M 120.93991,30.280500 C 119.32455,29.308344 118.66786,27.613622 119.20631,26.698105 C 119.62285,25.699877 119.80142,23.445732 119.80142,22.040847" id="path879" style="fill:none;fill-opacity:0.75000000;fill-rule:evenodd;stroke:#000000;stroke-width:0.71048145pt;"/>
  </g>
  <g id="g880" transform="matrix(-1.344416,0.272448,0.298889,1.225484,210.7071,-20.69673)">
    <path sodipodi:nodetypes="ccccccccc" d="M 116.37367,29.656913 C 117.42503,31.494860 119.20270,30.519711 121.13173,30.663882 C 123.08924,30.829302 123.94552,29.554500 125.13887,29.160544 C 128.61470,31.261413 125.53568,34.117738 126.21844,37.735531 C 126.26559,40.374521 126.69440,44.609261 127.09768,47.409798 C 127.26167,49.704910 121.17006,49.881472 120.01122,48.859931 C 119.05396,48.275919 118.30976,46.408796 118.90900,44.245653 C 119.07057,41.580958 118.23024,40.192608 117.73904,37.567818 C 117.87469,34.343844 114.35346,33.400097 116.37367,29.656913 z " id="path881" style="fill:#0075ff;fill-rule:evenodd;stroke:#000000;stroke-width:0.71048145pt;stroke-linejoin:round;"/>
    <path sodipodi:nodetypes="ccccccccc" d="M 116.36976,29.313863 C 117.14648,29.527930 118.77550,29.725333 119.55824,29.401739 C 120.43406,29.401739 121.68150,29.667347 122.32159,29.138111 C 122.82249,29.138111 124.23532,28.962359 124.87238,28.962359 C 125.67597,28.962359 124.44725,28.688447 124.44725,29.401739 C 123.85761,29.401739 123.37622,29.847898 122.95929,30.192624 C 122.59627,30.792926 121.54733,30.807757 120.83363,30.807757 C 120.00194,30.807757 119.02432,30.719881 118.17656,30.719881 C 117.39250,30.719881 116.68861,30.583657 116.36976,29.313863 z " id="path882" style="fill:#00ffff;fill-rule:evenodd;stroke:#000000;stroke-width:0.71048145pt;stroke-linejoin:round;"/>
    <path sodipodi:nodetypes="ccc" d="M 118.28285,13.759789 C 119.77081,15.429436 127.95457,26.589703 119.77081,27.204836 C 108.71740,28.522978 119.23940,17.626339 118.28285,13.759789 z " id="path883" style="fill:#ffa800;fill-rule:evenodd;stroke:#000000;stroke-width:0.71048145pt;"/>
    <path sodipodi:nodetypes="ccc" d="M 119.33474,18.318327 C 120.11204,19.360168 123.85577,26.499805 119.58062,26.883640 C 113.80638,27.706146 119.83443,20.731011 119.33474,18.318327 z " id="path884" style="fill:#ffff00;fill-rule:evenodd;stroke:none;stroke-opacity:1;stroke-width:1pt;stroke-linejoin:miter;stroke-linecap:butt;fill-opacity:1.0000000;"/>
    <path sodipodi:nodetypes="ccc" d="M 120.93991,30.280500 C 119.32455,29.308344 118.66786,27.613622 119.20631,26.698105 C 119.62285,25.699877 119.80142,23.445732 119.80142,22.040847" id="path885" style="fill:none;fill-opacity:0.75000000;fill-rule:evenodd;stroke:#000000;stroke-width:0.71048145pt;"/>
  </g>
  <g id="g886" transform="matrix(-1.335718,0.305938,0.335629,1.217554,245.3966,-25.75612)">
    <path sodipodi:nodetypes="ccccccccc" d="M 116.37367,29.656913 C 117.42503,31.494860 119.20270,30.519711 121.13173,30.663882 C 123.08924,30.829302 123.94552,29.554500 125.13887,29.160544 C 128.61470,31.261413 125.53568,34.117738 126.21844,37.735531 C 126.26559,40.374521 126.69440,44.609261 127.09768,47.409798 C 127.26167,49.704910 121.17006,49.881472 120.01122,48.859931 C 119.05396,48.275919 118.30976,46.408796 118.90900,44.245653 C 119.07057,41.580958 118.23024,40.192608 117.73904,37.567818 C 117.87469,34.343844 114.35346,33.400097 116.37367,29.656913 z " id="path887" style="fill:#0075ff;fill-rule:evenodd;stroke:#000000;stroke-width:0.71048145pt;stroke-linejoin:round;"/>
    <path sodipodi:nodetypes="ccccccccc" d="M 116.36976,29.313863 C 117.14648,29.527930 118.77550,29.725333 119.55824,29.401739 C 120.43406,29.401739 121.68150,29.667347 122.32159,29.138111 C 122.82249,29.138111 124.23532,28.962359 124.87238,28.962359 C 125.67597,28.962359 124.44725,28.688447 124.44725,29.401739 C 123.85761,29.401739 123.37622,29.847898 122.95929,30.192624 C 122.59627,30.792926 121.54733,30.807757 120.83363,30.807757 C 120.00194,30.807757 119.02432,30.719881 118.17656,30.719881 C 117.39250,30.719881 116.68861,30.583657 116.36976,29.313863 z " id="path888" style="fill:#00ffff;fill-rule:evenodd;stroke:#000000;stroke-width:0.71048145pt;stroke-linejoin:round;"/>
    <path sodipodi:nodetypes="ccc" d="M 118.28285,13.759789 C 119.77081,15.429436 127.95457,26.589703 119.77081,27.204836 C 108.71740,28.522978 119.23940,17.626339 118.28285,13.759789 z " id="path889" style="fill:#ffa800;fill-rule:evenodd;stroke:#000000;stroke-width:0.71048145pt;"/>
    <path sodipodi:nodetypes="ccc" d="M 119.33474,18.318327 C 120.11204,19.360168 123.85577,26.499805 119.58062,26.883640 C 113.80638,27.706146 119.83443,20.731011 119.33474,18.318327 z " id="path890" style="fill:#ffff00;fill-rule:evenodd;stroke:none;stroke-opacity:1;stroke-width:1pt;stroke-linejoin:miter;stroke-linecap:butt;fill-opacity:1.0000000;"/>
    <path sodipodi:nodetypes="ccc" d="M 120.93991,30.280500 C 119.32455,29.308344 118.66786,27.613622 119.20631,26.698105 C 119.62285,25.699877 119.80142,23.445732 119.80142,22.040847" id="path891" style="fill:none;fill-opacity:0.75000000;fill-rule:evenodd;stroke:#000000;stroke-width:0.71048145pt;"/>
  </g>
  <path sodipodi:nodetypes="cccccc" d="M 68.469555,25.324898 C 66.675045,27.904163 70.429896,29.532577 70.882813,31.877630 C 71.885352,34.824066 72.283776,39.004865 72.470699,42.072751 C 71.533863,44.170542 74.030061,49.186121 75.004240,45.542274 C 75.238654,41.079615 74.040170,34.663333 73.255573,30.297698 C 72.570157,27.962739 71.143680,25.717211 68.469555,25.324898 z " id="path901" style="fill:#ffffff;fill-rule:evenodd;stroke:none;stroke-opacity:1;stroke-width:1pt;stroke-linejoin:miter;stroke-linecap:butt;fill-opacity:0.30000001;"/>
  <path sodipodi:nodetypes="cccccc" d="M 110.17253,38.748149 C 108.37802,41.327414 112.13287,42.955829 112.58579,45.300881 C 113.58833,48.247317 113.98675,52.428116 114.17368,55.496003 C 113.23684,57.593793 115.73304,62.609372 116.70722,58.965525 C 116.94163,54.502867 115.74315,48.086584 114.95855,43.720949 C 114.27313,41.385990 112.84666,39.140462 110.17253,38.748149 z " id="path902" style="fill:#ffffff;fill-rule:evenodd;stroke:none;stroke-opacity:1;stroke-width:1pt;stroke-linejoin:miter;stroke-linecap:butt;fill-opacity:0.30000001;"/>
  <path sodipodi:nodetypes="cccccc" d="M 88.031193,49.890639 C 86.236684,52.469905 89.991534,54.098319 90.444451,56.443372 C 91.446991,59.389808 91.845414,63.570607 92.032337,66.638493 C 91.095501,68.736284 93.591699,73.751862 94.565879,70.108016 C 94.800292,65.645357 93.601808,59.229074 92.817211,54.863440 C 92.131796,52.528481 90.705318,50.282953 88.031193,49.890639 z " id="path903" style="fill:#ffffff;fill-rule:evenodd;stroke:none;stroke-opacity:1;stroke-width:1pt;stroke-linejoin:miter;stroke-linecap:butt;fill-opacity:0.30000001;"/>
  <path sodipodi:nodetypes="cccccc" d="M 22.991007,39.168620 C 21.196497,41.747885 24.951348,43.376300 25.404264,45.721352 C 26.406804,48.667788 26.805227,52.848587 26.992151,55.916474 C 26.055315,58.014264 28.551513,63.029843 29.525692,59.385996 C 29.760106,54.923338 28.561622,48.507055 27.777024,44.141420 C 27.091609,41.806461 25.665132,39.560933 22.991007,39.168620 z " id="path904" style="fill:#ffffff;fill-rule:evenodd;stroke:none;stroke-opacity:1;stroke-width:1pt;stroke-linejoin:miter;stroke-linecap:butt;fill-opacity:0.30000001;"/>
  <path sodipodi:nodetypes="cccccc" d="M 50.898320,50.941818 C 49.103811,53.521083 52.858662,55.149497 53.311578,57.494550 C 54.314118,60.440986 54.712541,64.621785 54.899464,67.689671 C 53.962628,69.787462 56.458826,74.803041 57.433006,71.159194 C 57.667419,66.696535 56.468935,60.280253 55.684338,55.914618 C 54.998923,53.579659 53.572445,51.334131 50.898320,50.941818 z " id="path905" style="fill:#ffffff;fill-rule:evenodd;stroke:none;stroke-opacity:1;stroke-width:1pt;stroke-linejoin:miter;stroke-linecap:butt;fill-opacity:0.30000001;"/>
  <path sodipodi:nodetypes="ccccc" d="M 73.774248,95.543610 C 75.824319,97.213790 81.385334,92.936790 81.385334,91.969607 C 81.385334,90.585950 82.307889,89.993482 82.307889,88.605835 C 80.784474,87.217188 78.982255,91.338899 77.233832,91.338899 C 76.163282,92.314745 73.216068,92.999610 73.774248,95.543610 z " id="path906" style="fill:#ffffff;fill-rule:evenodd;stroke:none;stroke-opacity:1;stroke-width:1pt;stroke-linejoin:miter;stroke-linecap:butt;fill-opacity:0.80000001;"/>
  <path sodipodi:nodetypes="ccccc" d="M 98.452615,91.549135 C 100.70588,90.384572 101.94559,87.493788 103.06540,85.452300 C 104.48194,84.161068 102.85572,84.401122 101.45092,84.401122 C 99.950321,85.768975 98.463660,85.652470 97.068783,86.923951 C 97.068783,88.659001 96.588375,90.869407 98.452615,91.549135 z " id="path907" style="fill:#ffffff;fill-rule:evenodd;stroke:none;stroke-opacity:1;stroke-width:1pt;stroke-linejoin:miter;stroke-linecap:butt;fill-opacity:0.80000001;"/>
  <path sodipodi:nodetypes="ccccc" d="M 119.21012,85.031829 C 120.53121,84.630422 123.36162,84.388579 123.36162,82.719238 C 124.43181,81.743723 124.51482,80.279627 124.51482,78.934996 C 123.33601,76.785934 121.07536,78.496182 119.67140,79.775938 C 118.81627,81.334893 118.30091,84.617441 119.21012,85.031829 z " id="path909" style="fill:#ffffff;fill-rule:evenodd;stroke:none;stroke-opacity:1;stroke-width:1pt;stroke-linejoin:miter;stroke-linecap:butt;fill-opacity:0.80000001;"/>
  <path sodipodi:nodetypes="ccccc" d="M 130.74207,74.309811 C 132.60167,73.550219 133.19272,72.348724 133.61776,70.334438 C 134.14196,68.673740 134.40746,68.089124 132.76190,69.196152 C 131.11540,70.135289 129.18951,71.228682 129.30911,73.143597 C 129.35495,73.982362 129.67617,74.671026 130.74207,74.309811 z " id="path929" style="fill:#ffffff;fill-rule:evenodd;stroke:none;stroke-opacity:1;stroke-width:1pt;stroke-linejoin:miter;stroke-linecap:butt;fill-opacity:0.80000001;"/>
  <path sodipodi:nodetypes="ccc" d="M 45.175017,91.338899 C 46.657878,91.736804 49.057255,90.462749 48.403964,87.554657 C 45.880546,87.554657 45.175017,89.228160 45.175017,91.338899 z " id="path911" style="fill:#ffffff;fill-rule:evenodd;stroke:none;stroke-opacity:1;stroke-width:1pt;stroke-linejoin:miter;stroke-linecap:butt;fill-opacity:0.80000001;"/>
  <path sodipodi:nodetypes="ccccc" d="M 29.030291,84.611358 C 30.646077,86.188724 32.112806,86.636956 33.643070,83.770416 C 33.643070,82.201514 33.926218,81.247587 32.028598,81.247587 C 30.483986,81.247587 29.146352,82.087177 28.569013,83.139709 C 28.569013,83.793960 28.642948,83.728664 29.030291,84.611358 z " id="path912" style="fill:#ffffff;fill-rule:evenodd;stroke:none;stroke-opacity:1;stroke-width:1pt;stroke-linejoin:miter;stroke-linecap:butt;fill-opacity:0.80000001;"/>
  <path sodipodi:nodetypes="ccc" d="M 18.420899,69.474389 C 20.099714,71.366510 21.188566,73.231269 21.188566,69.264155 C 21.029175,67.226744 18.420899,67.303384 18.420899,69.474389 z " id="path913" style="fill:#ffffff;fill-rule:evenodd;stroke:none;stroke-opacity:1;stroke-width:1pt;stroke-linejoin:miter;stroke-linecap:butt;fill-opacity:0.80000001;"/>
  <path sodipodi:nodetypes="cccccccccccccccccc" d="M 20.496651,87.344417 C 27.666162,87.025990 29.451695,92.178073 36.055426,94.129930 C 43.049002,94.974990 50.499376,97.854050 56.811951,99.132480 C 63.665023,100.43464 72.233078,101.26915 79.797533,100.89737 C 88.807445,99.840970 104.34134,97.506950 110.43753,95.198710 C 117.45584,92.877980 128.45527,87.411260 133.37141,83.646011 C 137.36571,83.558940 135.02834,89.550313 133.60652,92.403124 C 133.76966,96.152480 132.16072,99.305680 127.25947,98.044500 C 121.61809,96.664220 123.11359,106.56264 117.03480,103.09587 C 111.69777,99.936120 109.34266,105.38570 109.26500,109.29419 C 104.00168,111.43520 96.965547,115.75070 91.530588,111.70237 C 88.710291,106.95368 78.637679,104.34524 77.411532,111.42676 C 73.789172,116.52086 65.968213,115.06465 63.845971,109.88666 C 59.293248,107.53226 53.758754,108.60918 48.970099,106.93919 C 46.315872,109.69485 39.180992,112.12981 39.061800,106.44788 C 37.283597,100.77630 25.630993,95.228460 23.242889,101.98114 C 16.308533,102.72181 17.665281,96.719750 18.306270,90.996101 C 18.024276,89.243720 18.383642,87.784176 20.496651,87.344417 z " id="path937" style="fill:#954a3d;fill-rule:evenodd;stroke:#000000;stroke-width:1.3149115pt;"/>
  <path sodipodi:nodetypes="ccc" d="M 19.037166,98.980396 C 20.306310,101.89103 21.783909,101.92211 25.382887,98.980396 C 25.382887,96.559808 20.902241,100.95401 19.037166,98.980396 z " id="path938" style="fill:#ffffff;fill-rule:evenodd;stroke:none;stroke-opacity:1;stroke-width:1pt;stroke-linejoin:miter;stroke-linecap:butt;fill-opacity:0.80000001;"/>
  <path sodipodi:nodetypes="ccc" d="M 39.851133,106.34143 C 41.842644,112.14038 46.463509,107.61058 47.719828,106.59526 C 48.227486,102.47877 42.357224,108.63233 39.851133,106.34143 z " id="path939" style="fill:#ffffff;fill-rule:evenodd;stroke:none;stroke-opacity:1;stroke-width:1pt;stroke-linejoin:miter;stroke-linecap:butt;fill-opacity:0.80000001;"/>
  <path sodipodi:nodetypes="cccc" d="M 66.756994,111.41801 C 70.310598,115.85589 76.148662,112.38918 76.148662,110.65652 C 76.148662,108.75670 76.491176,108.37206 74.118031,108.37206 C 73.613842,113.19481 67.368113,111.11245 66.756994,111.41801 z " id="path940" style="fill:#ffffff;fill-rule:evenodd;stroke:none;stroke-opacity:1;stroke-width:1pt;stroke-linejoin:miter;stroke-linecap:butt;fill-opacity:0.80000001;"/>
  <path sodipodi:nodetypes="ccc" d="M 94.170512,111.67184 C 97.220969,113.44864 106.57097,111.16419 103.56218,110.14887 C 102.56244,109.64121 94.095595,110.42410 94.170512,111.67184 z " id="path941" style="fill:#ffffff;fill-rule:evenodd;stroke:none;stroke-opacity:1;stroke-width:1pt;stroke-linejoin:miter;stroke-linecap:butt;fill-opacity:0.80000001;"/>
  <path sodipodi:nodetypes="ccc" d="M 107.36961,107.86441 C 109.13452,109.39927 111.29147,102.28017 109.90791,102.28017 C 106.95903,102.69075 105.01069,107.39262 107.36961,107.86441 z " id="path942" style="fill:#ffffff;fill-rule:evenodd;stroke:none;stroke-opacity:1;stroke-width:1pt;stroke-linejoin:miter;stroke-linecap:butt;fill-opacity:0.80000001;"/>
  <path sodipodi:nodetypes="ccc" d="M 119.80723,102.53400 C 121.75325,102.19556 123.66987,97.711252 122.34552,97.711252 C 120.81504,97.711252 119.50609,101.78115 119.80723,102.53400 z " id="path943" style="fill:#ffffff;fill-rule:evenodd;stroke:none;stroke-opacity:1;stroke-width:1pt;stroke-linejoin:miter;stroke-linecap:butt;fill-opacity:0.80000001;"/>
  <path sodipodi:nodetypes="ccccc" d="M 130.97570,96.442108 C 133.49206,96.464036 132.16005,93.142332 133.26015,93.142332 C 133.26015,91.941307 133.76782,89.968038 133.76782,88.065755 C 132.64036,86.938294 130.46804,89.219553 130.46804,90.350215 C 130.46804,92.080010 128.58643,96.433909 130.97570,96.442108 z " id="path944" style="fill:#ffffff;fill-rule:evenodd;stroke:none;stroke-opacity:1;stroke-width:1pt;stroke-linejoin:miter;stroke-linecap:butt;fill-opacity:0.80000001;"/>
  <metadata>
    <rdf:RDF xmlns:cc="http://web.resource.org/cc/" xmlns:dc="http://purl.org/dc/elements/1.1/" xmlns:rdf="http://www.w3.org/1999/02/22-rdf-syntax-ns#">
      <cc:Work rdf:about="">
        <dc:title>Clipart by Nicu Buculei - birthday_cake</dc:title>
        <dc:description></dc:description>
        <dc:subject>
          <rdf:Bag>
            <rdf:li>hash</rdf:li>
            <rdf:li>dessert</rdf:li>
            <rdf:li></rdf:li>
            <rdf:li>food</rdf:li>
          </rdf:Bag>
        </dc:subject>
        <dc:publisher>
          <cc:Agent rdf:about="http://www.openclipart.org">
            <dc:title>Nicu Buculei</dc:title>
          </cc:Agent>
        </dc:publisher>
        <dc:creator>
          <cc:Agent rdf:about="">
            <dc:title>Nicu Buculei</dc:title>
          </cc:Agent>
        </dc:creator>
        <dc:rights>
          <cc:Agent rdf:about="">
            <dc:title>Nicu Buculei</dc:title>
          </cc:Agent>
        </dc:rights>
        <dc:date></dc:date>
        <dc:format>image/svg+xml</dc:format>
        <dc:type rdf:resource="http://purl.org/dc/dcmitype/StillImage"/>
        <cc:license rdf:resource="http://web.resource.org/cc/PublicDomain">
          <dc:date></dc:date>
        </cc:license>
        <dc:language>en</dc:language>
      </cc:Work>
      <cc:License rdf:about="http://web.resource.org/cc/PublicDomain">
        <cc:permits rdf:resource="http://web.resource.org/cc/Reproduction"/>
        <cc:permits rdf:resource="http://web.resource.org/cc/Distribution"/>
        <cc:permits rdf:resource="http://web.resource.org/cc/DerivativeWorks"/>
      </cc:License>
    </rdf:RDF>
  </metadata>
</svg>
