<?xml version="1.0" encoding="UTF-8" standalone="no"?>
<!-- Created with Inkscape (http://www.inkscape.org/) -->
<svg
   xmlns:dc="http://purl.org/dc/elements/1.1/"
   xmlns:cc="http://creativecommons.org/ns#"
   xmlns:rdf="http://www.w3.org/1999/02/22-rdf-syntax-ns#"
   xmlns:svg="http://www.w3.org/2000/svg"
   xmlns="http://www.w3.org/2000/svg"
   xmlns:sodipodi="http://sodipodi.sourceforge.net/DTD/sodipodi-0.dtd"
   xmlns:inkscape="http://www.inkscape.org/namespaces/inkscape"
   width="608"
   height="472"
   id="svg2"
   sodipodi:version="0.32"
   inkscape:version="0.46"
   version="1.0"
   sodipodi:docbase="C:\Documents and Settings\Ivaylo Kroumov\My Documents\My Pictures"
   sodipodi:docname="car2.svg"
   inkscape:output_extension="org.inkscape.output.svg.inkscape"
   sodipodi:modified="true">
  <defs
     id="defs4">
    <inkscape:perspective
       sodipodi:type="inkscape:persp3d"
       inkscape:vp_x="0 : 150.59055 : 1"
       inkscape:vp_y="0 : 1000 : 0"
       inkscape:vp_z="744.09448 : 150.59055 : 1"
       inkscape:persp3d-origin="372.04724 : 100.3937 : 1"
       id="perspective3626" />
  </defs>
  <sodipodi:namedview
     id="base"
     pagecolor="#ffffff"
     bordercolor="#666666"
     borderopacity="1.0"
     gridtolerance="10000"
     guidetolerance="10"
     objecttolerance="10"
     inkscape:pageopacity="0.0"
     inkscape:pageshadow="2"
     inkscape:zoom="1.33375"
     inkscape:cx="439.96759"
     inkscape:cy="242.56087"
     inkscape:document-units="px"
     inkscape:current-layer="layer1"
     width="210mm"
     height="85mm"
     inkscape:window-width="1440"
     inkscape:window-height="825"
     inkscape:window-x="0"
     inkscape:window-y="25"
     showguides="true"
     inkscape:guide-bbox="true"
     units="mm"
     showgrid="false" />
  <metadata
     id="metadata7">
    <rdf:RDF>
      <cc:Work
         rdf:about="">
        <dc:format>image/svg+xml</dc:format>
        <dc:type
           rdf:resource="http://purl.org/dc/dcmitype/StillImage" />
      </cc:Work>
    </rdf:RDF>
  </metadata>
  <g
     inkscape:label="Layer 1"
     inkscape:groupmode="layer"
     id="layer1"
     transform="translate(-194.647,-251.616)">
    <g
       id="g2516"
       transform="matrix(0.8526763,0,0,0.8526763,15.250719,202.46675)">
      <path
         sodipodi:nodetypes="ccsss"
         id="path4331"
         d="M 363.55535,462.82176 C 360.62958,460.23003 358.82064,456.97989 357.79232,451.73978 C 357.18694,443.88751 358.12531,437.54206 358.99002,430.08033 C 359.26849,427.67739 360.06224,426.61116 361.63796,426.30867 C 362.90588,426.06527 363.79873,425.8465 364.77988,425.67198"
         style="fill:none;stroke:#000000;stroke-width:0.40000001;stroke-miterlimit:4;stroke-dasharray:none;stroke-opacity:1" />
      <path
         sodipodi:nodetypes="csssss"
         id="path5224"
         d="M 227.46019,417.4778 C 223.82427,418.64568 219.38521,421.59446 221.08718,426.1001 C 222.33841,429.41249 226.82245,430.60158 230.92786,429.94265 C 233.23285,429.57269 235.43597,428.66561 236.92598,427.50591 C 238.77754,426.06481 238.5858,422.36885 236.26994,419.82081 C 233.76398,417.06361 230.48532,416.5061 227.46019,417.4778 z"
         style="fill:none;fill-opacity:1;stroke:#000000;stroke-width:0.40000001;stroke-miterlimit:4;stroke-dasharray:none;stroke-opacity:1" />
      <path
         style="fill:none;fill-opacity:1;stroke:#000000;stroke-width:0.40000045;stroke-miterlimit:4;stroke-dasharray:none;stroke-opacity:1"
         d="M 436.19702,425.50854 C 432.15189,426.79637 427.18153,430.1198 428.96989,435.32633 C 430.28462,439.15399 435.21859,440.58913 439.77231,439.89362 C 442.32901,439.50312 444.78423,438.49347 446.45612,437.18256 C 448.53368,435.55355 449.18291,431.19368 446.67493,428.22878 C 443.96109,425.02051 439.56262,424.43704 436.19702,425.50854 z"
         id="path5240"
         sodipodi:nodetypes="csssss" />
      <path
         style="fill:none;fill-opacity:1;stroke:#000000;stroke-width:0.40000001;stroke-miterlimit:4;stroke-dasharray:none;stroke-opacity:1"
         d="M 682.67537,271.70737 C 685.68676,272.00338 686.79149,274.73088 686.18849,276.08809 C 684.54693,279.78258 682.6576,282.53018 680.43876,284.53177 C 678.4772,286.30127 676.14547,286.03442 673.87681,285.96087 C 652.39961,285.27444 632.88754,283.0905 620.12017,280.31942 C 615.42267,279.29986 613.7851,277.6703 612.29461,275.7802 C 609.55151,272.30158 607.93353,268.89169 607.08664,265.41529 C 606.30271,262.19724 609.42334,261.19383 612.80874,261.67772 C 633.64462,264.65584 660.45018,269.52227 682.67537,271.70737 z"
         id="path9196"
         sodipodi:nodetypes="cssssssss" />
      <path
         sodipodi:nodetypes="cssssssss"
         id="path8223"
         d="M 535.85063,268.04325 C 533.24416,268.20494 532.55346,270.54907 533.21898,271.75249 C 535.03069,275.02834 536.96333,277.48603 539.10884,279.30344 C 541.00557,280.91011 543.02396,280.77791 544.99871,280.76066 C 563.96776,280.59508 575.50438,279.97665 586.72907,278.5086 C 590.80147,277.97599 592.00689,276.40055 593.1202,274.79936 C 595.16915,271.85246 596.24003,268.92944 596.62906,265.92365 C 596.98917,263.14126 594.15533,262.16577 591.24046,262.47937 C 573.30052,264.40942 555.08731,266.8496 535.85063,268.04325 z"
         style="fill:none;fill-opacity:1;stroke:#000000;stroke-width:0.40000001;stroke-miterlimit:4;stroke-dasharray:none;stroke-opacity:1" />
      <path
         sodipodi:nodetypes="csc"
         id="path7226"
         d="M 618.41849,325.37876 C 622.69886,311.47743 638.12865,307.93454 647.79759,308.4806 C 668.27416,309.63704 681.7264,328.47846 683.68527,337.76098"
         style="fill:none;fill-opacity:1;stroke:#000000;stroke-width:0.40000001;stroke-miterlimit:4;stroke-dasharray:none;stroke-opacity:1" />
      <path
         style="fill:none;fill-opacity:1;stroke:#000000;stroke-width:0.40000001;stroke-miterlimit:4;stroke-dasharray:none;stroke-opacity:1"
         d="M 621.28522,325.84904 C 627.05491,313.31263 638.90436,310.90418 647.40859,311.38008 C 665.28457,312.38039 677.15515,329.05918 679.77478,337.13689"
         id="path8197"
         sodipodi:nodetypes="css" />
      <path
         sodipodi:nodetypes="ccccccccc"
         id="path6246"
         d="M 609.70651,285.13657 C 609.94164,287.16818 609.742,289.56782 609.26608,291.93599 C 609.04286,292.69239 608.96454,292.85268 608.10853,292.96924 C 603.31426,293.42393 597.92035,292.8303 592.82909,291.40537 C 592.40404,291.36921 592.37917,291.08071 592.23736,290.64909 C 591.88649,288.895 591.62699,287.14092 591.96004,285.38683 C 591.96561,284.94674 592.24703,284.7664 592.7372,284.65618 C 598.35408,283.62265 604.72879,283.60613 608.96883,284.27424 C 609.70586,284.45582 609.60037,284.71547 609.70651,285.13657 z"
         style="fill:none;fill-opacity:1;stroke:#000000;stroke-width:0.40000001;stroke-miterlimit:4;stroke-dasharray:none;stroke-opacity:1" />
      <path
         sodipodi:nodetypes="ccccc"
         id="path7217"
         d="M 599.44907,286.10296 C 600.99606,286.47784 601.0247,289.87453 599.73022,290.24941 C 597.69961,290.03073 596.41876,289.81204 594.66931,289.40592 C 593.79165,288.62491 594.00078,287.24276 594.76303,286.6492 C 596.91465,286.2904 598.11185,286.19668 599.44907,286.10296 z"
         style="fill:none;fill-opacity:1;stroke:#000000;stroke-width:0.40000001;stroke-miterlimit:4;stroke-dasharray:none;stroke-opacity:1" />
      <path
         sodipodi:nodetypes="cccccc"
         id="path7219"
         d="M 600.71526,272.12079 C 599.76655,274.88206 598.26604,277.0469 597.53427,279.41055 C 596.76262,281.70793 597.20939,284.00531 597.66681,286.30269 C 597.48673,286.80068 596.3267,287.14222 595.8775,286.43523 C 595.31457,284.15233 595.14447,281.96099 595.34734,279.34428 C 595.73252,276.15116 597.44221,274.65528 597.53427,272.12079"
         style="fill:none;fill-opacity:1;stroke:#000000;stroke-width:0.40000001;stroke-miterlimit:4;stroke-dasharray:none;stroke-opacity:1" />
      <path
         sodipodi:nodetypes="ccc"
         id="path4672"
         d="M 879.27759,457.45095 C 889.56947,448.87815 896.76985,450.68703 898.41053,444.57281 C 898.73487,443.70636 898.77028,441.9917 898.61843,441.12525"
         style="fill:none;fill-opacity:1;stroke:#000000;stroke-width:0.40000001;stroke-miterlimit:4;stroke-dasharray:none;stroke-opacity:1" />
      <path
         sodipodi:nodetypes="cccccc"
         id="path4674"
         d="M 878.76485,464.25416 L 904.77343,462.80655 C 906.57563,462.91624 905.77585,460.62694 907.79492,460.69695 C 911.35469,460.65354 911.23818,469.94903 909.34976,470.36736 C 906.99441,470.68167 907.41104,468.89515 905.38312,468.98475 L 877.65776,472.51395"
         style="fill:none;fill-opacity:1;stroke:#000000;stroke-width:0.40000001;stroke-miterlimit:4;stroke-dasharray:none;stroke-opacity:1" />
      <path
         sodipodi:nodetypes="ccssssscccccsc"
         d="M 906.62301,372.55611 C 916.98043,388.91794 913.50421,408.58269 911.79528,426.74436 C 910.97418,434.53094 891.02711,445.6037 879.49408,454.56788 C 880.11509,450.38061 881.00862,442.73458 881.5388,438.03704 C 883.87287,417.35662 884.5503,402.11106 877.78403,389.80771 C 874.47741,383.79516 869.60568,376.79282 857.20217,375.91811 C 849.06948,375.34458 843.14775,379.02591 837.75673,384.63068 C 825.98031,396.87401 816.23252,424.80482 805.05305,452.94225 C 798.72771,468.86239 784.39268,473.694 778.91535,474.28172 L 605.54792,480.97398 C 604.36467,480.92445 603.89712,480.91627 604.36027,479.09353 C 604.54829,478.24535 604.98023,476.96223 605.29539,475.96654 C 608.44332,466.02119 612.70908,455.5782 611.98765,439.93653 C 610.16358,400.38838 592.68076,376.87002 561.48002,374.27661"
         style="fill:none;fill-opacity:1;stroke:#000000;stroke-width:0.40000001;stroke-miterlimit:4;stroke-opacity:1"
         id="path4670" />
      <path
         sodipodi:nodetypes="csccccccsccccsssc"
         d="M 798.2451,369.37715 C 815.91837,360.83174 837.57038,357.36929 858.78082,358.48429 C 869.64982,359.05566 891.57924,367.11331 891.63796,372.94857 C 891.75162,374.59779 889.44666,375.09882 884.31653,373.84143 C 873.19115,371.56427 868.68835,369.39536 848.78082,370.09143 C 843.96593,370.3813 839.76558,372.40795 834.13796,379.91286 C 833.31555,381.32153 833.92173,383.46799 836.9951,382.23429 C 840.20639,379.27727 844.46586,374.51885 848.78082,373.84143 C 855.41713,372.94198 871.33891,373.61443 886.04994,377.26492 C 890.00735,378.24694 892.50388,378.98655 897.53082,380.98429 C 898.9166,380.74433 899.61307,380.09078 899.31653,378.84143 C 899.59424,377.66187 899.28405,376.04137 902.12137,376.78151 C 907.73097,381.41785 907.90725,377.27842 906.56735,372.39334 C 899.08127,361.25833 887.18274,356.0324 873.43484,351.72757 C 854.43979,345.77973 836.9027,345.45265 822.23517,347.68606 C 811.83062,349.27035 799.48526,353.19226 789.14447,357.11889 C 787.32243,357.81076 784.58221,358.54686 782.38775,358.80866"
         style="fill:none;fill-opacity:1;stroke:#000000;stroke-width:0.40000001;stroke-miterlimit:4;stroke-opacity:1"
         id="path5870" />
      <path
         sodipodi:nodetypes="csc"
         id="path5611"
         d="M 854.44657,375.83649 C 875.4411,377.7973 879.76864,397.89797 880.68822,403.94984 C 882.93946,418.76539 880.07371,432.53836 879.80433,448.64909"
         style="fill:none;fill-opacity:1;stroke:#000000;stroke-width:0.40000001;stroke-miterlimit:4;stroke-dasharray:none;stroke-opacity:1" />
      <path
         sodipodi:nodetypes="csssssccsscccccs"
         id="path5663"
         d="M 783.8701,359.02 C 793.2754,361.85982 795.37208,365.02673 798.2451,369.28786 C 800.17364,372.14818 801.28074,376.57753 801.45939,380.27 C 802.60951,404.04188 799.75255,425.89052 795.29867,445.98429 C 792.57064,458.29187 789.98553,459.15007 785.29867,459.645 C 773.6027,460.88008 760.27928,461.0305 747.17367,461.52 C 721.39254,462.48294 682.17367,463.48429 682.17367,463.48429 C 678.90911,463.5688 677.72025,462.62372 678.42367,460.98429 C 683.96311,449.99595 685.98192,438.61578 687.17367,427.145 C 688.91635,410.37139 689.79552,393.55556 689.85224,376.78786 C 689.87619,369.70733 691.48508,361.80603 687.70939,355.62715 C 686.5977,354.15725 687.95332,352.39789 691.10224,353.30572 L 702.70939,355.09143 C 705.1125,355.8092 706.24518,354.3981 705.47724,349.82357 C 714.4895,351.01685 728.54048,355.51469 736.23223,356.52 C 756.33367,359.0856 781.50015,358.30442 783.8701,359.02 z"
         style="fill:none;fill-opacity:1;stroke:#000000;stroke-width:0.40000001;stroke-miterlimit:4;stroke-dasharray:none;stroke-opacity:1" />
      <path
         style="fill:none;fill-opacity:1;stroke:#000000;stroke-width:0.40000001;stroke-miterlimit:4;stroke-dasharray:none;stroke-opacity:1"
         d="M 558.25677,413.73683 C 540.62123,413.237 528.50817,438.14557 526.3756,452.79808 C 523.06463,475.54727 527.86657,495.18537 537.30629,505.0832 C 549.39056,517.75393 560.16121,516.92213 568.95974,507.11764 C 580.37939,494.39237 585.94262,477.95498 585.12806,456.46008 C 584.15309,430.73256 573.89256,415.03548 558.25677,413.73683 z"
         id="path5668"
         sodipodi:nodetypes="cssscc" />
      <path
         style="fill:none;fill-opacity:1;stroke:#000000;stroke-width:0.40000001;stroke-miterlimit:4;stroke-dasharray:none;stroke-opacity:1"
         d="M 558.14393,435.12314 C 548.22876,435.0661 541.5119,446.82985 540.14993,459.23848 C 538.89634,470.65961 541.48084,484.52917 548.4411,490.14752 C 555.14898,495.08547 561.29887,491.5839 566.47515,484.73881 C 570.04433,480.01897 575.15162,467.25394 573.00813,451.78087 C 572.02811,444.70645 564.99603,435.16254 558.14393,435.12314 z"
         id="path5670"
         sodipodi:nodetypes="cscsss" />
      <path
         sodipodi:nodetypes="cscsss"
         id="path5672"
         d="M 561.76815,456.12621 C 558.8153,456.10923 556.81494,459.61428 556.40933,463.31146 C 556.03599,466.71444 556.80569,470.84694 558.87854,472.52095 C 560.87624,473.99225 562.70772,472.94893 564.24928,470.90941 C 565.31221,469.5031 567.20552,465.64651 566.19489,461.08945 C 565.73417,459.01198 563.80879,456.13795 561.76815,456.12621 z"
         style="fill:none;fill-opacity:1;stroke:#000000;stroke-width:0.40000001;stroke-miterlimit:4;stroke-dasharray:none;stroke-opacity:1" />
      <path
         sodipodi:nodetypes="css"
         d="M 540.33771,534.62709 C 515.96647,529.73524 503.10316,483.00949 507.9117,451.99274 C 513.83176,413.80634 531.7911,395.06001 545.5777,389.29918"
         style="fill:none;fill-opacity:1;stroke:#000000;stroke-width:0.40000001;stroke-miterlimit:4;stroke-opacity:1"
         id="path5676" />
      <path
         sodipodi:nodetypes="ccsccs"
         id="path5678"
         d="M 541.08476,506.4131 C 548.19153,507.96797 554.74124,503.13202 560.45949,495.36209 C 562.04161,493.21232 564.0071,489.90064 565.82114,485.68443 M 568.04193,441.37522 C 564.35963,432.23762 556.64573,422.55716 548.55411,422.50935 C 545.99366,422.49422 543.58244,423.04589 541.33869,424.06754"
         style="fill:none;fill-opacity:1;stroke:#000000;stroke-width:0.40000001;stroke-miterlimit:4;stroke-dasharray:none;stroke-opacity:1" />
      <path
         sodipodi:nodetypes="cssscc"
         id="path5680"
         d="M 558.18109,415.36426 C 541.55517,414.88058 530.13556,438.98483 528.12508,453.1642 C 525.00363,475.17881 529.5307,494.18277 538.42999,503.76101 C 549.82243,516.02259 559.9765,515.21764 568.27134,505.72975 C 579.03723,493.41538 584.28198,477.50877 583.51402,456.70796 C 582.59489,431.81119 572.92176,416.62099 558.18109,415.36426 z"
         style="fill:none;fill-opacity:1;stroke:#000000;stroke-width:0.40000001;stroke-miterlimit:4;stroke-dasharray:none;stroke-opacity:1" />
      <path
         style="fill:none;fill-opacity:1;stroke:#000000;stroke-width:0.40000001;stroke-miterlimit:4;stroke-opacity:1"
         d="M 530.86566,442.94722 C 531.41423,442.69502 532.02559,442.55422 532.66997,442.55422 C 535.0378,442.55422 536.95951,444.45543 536.95951,446.79799 M 536.95951,446.79799 C 536.95951,449.14055 535.0378,451.04176 532.66997,451.04176 C 531.21419,451.04176 529.92703,450.32312 529.15145,449.22507"
         id="path5682"
         sodipodi:nodetypes="ccsccss" />
      <path
         id="path5684"
         d="M 546.4473,431.72245 C 547.37995,433.60579 546.43178,435.38646 544.33084,435.69717 C 542.22988,436.00786 540.52924,435.13215 539.5966,433.24882 C 538.66397,431.36547 539.61217,429.58482 541.71311,429.27412 C 543.81402,428.96343 545.51469,429.83911 546.4473,431.72245"
         style="fill:none;fill-opacity:1;stroke:#000000;stroke-width:0.40000001;stroke-miterlimit:4;stroke-opacity:1"
         sodipodi:nodetypes="csssc" />
      <path
         style="fill:none;fill-opacity:1;stroke:#000000;stroke-width:0.40000001;stroke-miterlimit:4;stroke-opacity:1"
         d="M 527.14258,465.28631 C 527.85764,464.37288 528.90633,463.79603 530.07442,463.79603 C 532.22762,463.79603 533.97512,465.75615 533.97512,468.17131 C 533.97512,470.58648 532.22762,472.54659 530.07442,472.54659 C 529.13112,472.54659 528.26571,472.17042 527.59096,471.54458"
         id="path5686"
         sodipodi:nodetypes="ccscss" />
      <path
         style="fill:none;fill-opacity:1;stroke:#000000;stroke-width:0.40000001;stroke-miterlimit:4;stroke-opacity:1"
         d="M 538.1682,487.24411 C 538.38015,488.83988 537.47676,491.17802 534.84462,490.80529 C 532.14374,490.42282 530.98222,488.14641 530.98235,487.00493 C 530.98255,485.13216 532.4364,483.63668 534.07668,483.68293 C 536.12219,483.74243 537.95626,485.27834 538.1682,487.24411 z"
         id="path5688"
         sodipodi:nodetypes="csssc" />
      <path
         style="fill:none;fill-opacity:1;stroke:#000000;stroke-width:0.40000001;stroke-miterlimit:4;stroke-opacity:1"
         d="M 549.42741,495.99446 C 549.84227,497.11466 548.49437,498.59813 546.41867,499.30576 C 544.34299,500.01338 542.32168,499.67854 541.90681,498.55833 C 541.49194,497.43811 542.83985,495.95464 544.91551,495.247 C 546.99121,494.53938 549.01255,494.87423 549.42741,495.99446 z"
         id="path5690" />
      <path
         style="fill:none;fill-opacity:1;stroke:#000000;stroke-width:0.40000001;stroke-miterlimit:4;stroke-opacity:1"
         d="M 558.51224,432.31397 C 557.21226,432.43641 555.89533,431.70293 554.55401,430.28114 C 553.21271,428.85936 553.5008,427.34896 554.26455,427.15461 C 554.97076,426.97492 556.22372,426.93772 557.56502,428.35951 C 558.90633,429.78129 559.31727,431.79595 558.51224,432.31397 z"
         id="path5692"
         sodipodi:nodetypes="csssc" />
      <path
         id="path5674"
         d="M 478.04604,456.62228 C 475.06902,488.89088 485.76796,529.26004 513.97718,536.61134 C 522.26692,538.77164 543.37929,540.45723 554.96219,538.78495 C 565.04783,537.32884 571.18405,534.48366 576.89689,527.9705 C 593.50327,509.03774 600.09155,482.92645 599.71796,452.72848 C 598.49842,415.01334 578.28701,389.95351 560.60482,387.17694 C 553.2329,386.01935 542.01769,386.29377 532.30541,387.47437"
         style="fill:none;fill-opacity:1;stroke:#000000;stroke-width:0.40000001;stroke-miterlimit:4;stroke-opacity:1" />
      <path
         style="fill:none;fill-opacity:1;stroke:#000000;stroke-width:0.40000001;stroke-miterlimit:4;stroke-dasharray:none;stroke-opacity:1"
         d="M 561.71344,458.60824 C 559.84592,458.59607 558.5808,461.10795 558.32426,463.75751 C 558.08814,466.19623 558.57495,469.15776 559.88592,470.35744 C 561.14936,471.41183 562.30767,470.66414 563.28263,469.20253 C 563.95488,468.19471 565.15229,465.43091 564.51312,462.16512 C 564.22174,460.67631 563.00404,458.61665 561.71344,458.60824 z"
         id="path3194"
         sodipodi:nodetypes="cscsss" />
      <path
         sodipodi:nodetypes="cssscc"
         id="path5823"
         d="M 849.30677,412.11212 C 835.71245,411.09689 825.47737,432.54944 823.31041,445.33224 C 819.94605,465.17856 822.95428,482.56131 829.8885,491.552 C 838.76534,503.06145 847.1083,502.6841 854.24807,494.3718 C 863.51479,483.58324 868.39318,469.34702 868.52864,450.46598 C 868.69076,427.86702 861.32917,413.76263 849.30677,412.11212 z"
         style="fill:none;fill-opacity:1;stroke:#000000;stroke-width:0.40000001;stroke-miterlimit:4;stroke-dasharray:none;stroke-opacity:1" />
      <path
         sodipodi:nodetypes="cscsss"
         id="path5825"
         d="M 848.45935,430.86758 C 840.8083,430.49325 835.20563,440.59222 833.71324,451.43199 C 832.33961,461.40911 833.84138,473.65942 839.01395,478.81525 C 844.01592,483.36599 848.88723,480.49571 853.12593,474.66079 C 856.04862,470.63748 860.44453,459.60759 859.34016,445.96518 C 858.83523,439.72775 853.74678,431.12624 848.45935,430.86758 z"
         style="fill:none;fill-opacity:1;stroke:#000000;stroke-width:0.40000001;stroke-miterlimit:4;stroke-dasharray:none;stroke-opacity:1" />
      <path
         style="fill:none;fill-opacity:1;stroke:#000000;stroke-width:0.40000001;stroke-miterlimit:4;stroke-dasharray:none;stroke-opacity:1"
         d="M 850.51003,449.4091 C 848.23146,449.29763 846.56286,452.30668 846.11835,455.53642 C 845.7092,458.50916 846.15638,462.15919 847.69681,463.69535 C 849.18644,465.05125 850.63717,464.196 851.89954,462.45744 C 852.76996,461.25865 854.36843,457.93773 853.75038,453.90742 C 853.46863,452.07009 852.08469,449.48614 850.51003,449.4091 z"
         id="path5827"
         sodipodi:nodetypes="cscsss" />
      <path
         id="path5829"
         style="fill:none;fill-opacity:1;stroke:#000000;stroke-width:0.40000001;stroke-miterlimit:4;stroke-opacity:1"
         d="M 826.84945,401.02614 C 831.48614,395.45572 835.34975,393.09774 839.57998,391.33255 M 833.0139,518.67794 C 808.78479,504.74134 803.78858,471.07424 808.73044,443.30765"
         sodipodi:nodetypes="cscs" />
      <path
         style="fill:none;fill-opacity:1;stroke:#000000;stroke-width:0.40000001;stroke-miterlimit:4;stroke-dasharray:none;stroke-opacity:1"
         d="M 832.75765,492.84211 C 838.18777,494.43841 843.41513,490.41074 848.10503,483.78232 C 849.40263,481.94838 851.03744,479.1078 852.58751,475.46886 M 855.87691,436.67536 C 853.35956,428.53982 847.7497,419.79624 841.50584,419.48965 C 839.53008,419.39264 837.64935,419.79768 835.88118,420.62044"
         id="path5831"
         sodipodi:nodetypes="ccsccs" />
      <path
         style="fill:none;fill-opacity:1;stroke:#000000;stroke-width:0.40000001;stroke-miterlimit:4;stroke-dasharray:none;stroke-opacity:1"
         d="M 849.1905,413.53715 C 836.37488,412.56911 826.70364,433.33883 824.64774,445.7106 C 821.45577,464.91878 824.27439,481.7363 830.80284,490.42898 C 839.16024,501.55692 847.02633,501.18296 853.76606,493.13188 C 862.51357,482.68236 867.12727,468.90131 867.27402,450.63062 C 867.44971,428.76218 860.52349,415.12162 849.1905,413.53715 z"
         id="path5833"
         sodipodi:nodetypes="cssscc" />
      <path
         sodipodi:nodetypes="ccsccss"
         id="path5835"
         d="M 827.1263,436.83834 C 827.55869,436.63507 828.03557,436.53156 828.53294,436.55263 C 830.36057,436.63008 831.77626,438.36059 831.69298,440.41538 M 831.69298,440.41538 C 831.60969,442.47018 830.05882,444.07498 828.2312,443.99754 C 827.10754,443.94993 826.13959,443.27747 825.57999,442.28894"
         style="fill:none;fill-opacity:1;stroke:#000000;stroke-width:0.40000001;stroke-miterlimit:4;stroke-opacity:1" />
      <path
         sodipodi:nodetypes="csssc"
         style="fill:none;fill-opacity:1;stroke:#000000;stroke-width:0.40000001;stroke-miterlimit:4;stroke-opacity:1"
         d="M 839.55214,427.50208 C 840.20506,429.18457 839.4099,430.71549 837.77723,430.91931 C 836.14455,431.12312 834.86303,430.29936 834.21013,428.61689 C 833.55723,426.93439 834.3524,425.40349 835.98507,425.19967 C 837.61772,424.99586 838.89926,425.81959 839.55214,427.50208"
         id="path5837" />
      <path
         sodipodi:nodetypes="ccscss"
         id="path5839"
         d="M 823.45843,456.31146 C 824.04283,455.53363 824.87277,455.06194 825.77437,455.10014 C 827.43633,455.17057 828.71546,456.94705 828.6296,459.06553 C 828.54373,461.18401 827.12523,462.84618 825.46327,462.77576 C 824.73518,462.74491 824.08058,462.38664 823.58202,461.81561"
         style="fill:none;fill-opacity:1;stroke:#000000;stroke-width:0.40000001;stroke-miterlimit:4;stroke-opacity:1" />
      <path
         sodipodi:nodetypes="csssc"
         id="path5841"
         d="M 831.18798,475.93251 C 831.29484,477.33918 830.51443,479.36055 828.49605,478.94752 C 826.42496,478.5237 825.60936,476.48894 825.65004,475.48769 C 825.71678,473.84498 826.89211,472.58076 828.15652,472.67498 C 829.73325,472.79407 831.09428,474.20129 831.18798,475.93251 z"
         style="fill:none;fill-opacity:1;stroke:#000000;stroke-width:0.40000001;stroke-miterlimit:4;stroke-opacity:1" />
      <path
         id="path5843"
         d="M 839.56737,483.97619 C 839.84776,484.97235 838.75464,486.2295 837.12734,486.78231 C 835.50006,487.33512 833.9518,486.9753 833.67141,485.97913 C 833.39101,484.98295 834.48414,483.7258 836.11141,483.17298 C 837.73871,482.62017 839.28699,482.98 839.56737,483.97619 z"
         style="fill:none;fill-opacity:1;stroke:#000000;stroke-width:0.40000001;stroke-miterlimit:4;stroke-opacity:1" />
      <path
         sodipodi:nodetypes="csssc"
         id="path5845"
         d="M 848.84351,428.41554 C 847.83576,428.48042 846.84535,427.79397 845.86059,426.50297 C 844.87585,425.21198 845.15191,423.89654 845.74833,423.75104 C 846.29981,423.61653 847.26823,423.62488 848.25298,424.91588 C 849.23773,426.20687 849.48329,427.98748 848.84351,428.41554 z"
         style="fill:none;fill-opacity:1;stroke:#000000;stroke-width:0.40000001;stroke-miterlimit:4;stroke-opacity:1" />
      <path
         style="fill:none;fill-opacity:1;stroke:#000000;stroke-width:0.40000001;stroke-miterlimit:4;stroke-opacity:1"
         d="M 785.55598,472.50717 C 787.57664,493.56209 795.44656,513.19683 810.76091,518.44411 C 817.08259,520.61016 833.31837,522.7792 842.31815,521.69118 C 850.15458,520.74381 854.992,518.44884 859.63305,512.92262 C 873.12387,496.85876 879.13737,474.17054 879.9226,447.66996 C 880.32213,414.54798 865.75884,390.94135 852.06338,388.89172 C 847.94965,388.27607 841.12087,388.29026 834.59617,388.60501"
         id="path5847" />
      <path
         sodipodi:nodetypes="cscsss"
         id="path4165"
         d="M 850.4119,451.5268 C 848.97555,451.45461 847.90766,453.74675 847.61053,456.1997 C 847.33706,458.45745 847.60007,461.22442 848.5635,462.38158 C 849.49585,463.40225 850.41516,462.74546 851.22028,461.41948 C 851.77542,460.50518 852.80073,457.9768 852.43194,454.92221 C 852.26382,453.52969 851.40451,451.57669 850.4119,451.5268 z"
         style="fill:none;fill-opacity:1;stroke:#000000;stroke-width:0.40000001;stroke-miterlimit:4;stroke-dasharray:none;stroke-opacity:1" />
      <path
         sodipodi:nodetypes="ccssscssssscccs"
         id="path5866"
         d="M 689.39152,377.05632 C 665.2919,376.10282 640.87788,375.255 616.81653,374.37714 C 598.83938,373.4462 581.4218,373.47175 563.78082,374.19857 C 545.43299,374.95451 534.91856,383.81551 527.17367,392.94857 C 520.04429,401.35579 513.60793,412.75615 506.45939,424.55572 C 497.96675,438.57389 489.52863,445.25078 481.45938,450.44858 C 498.17221,439.28075 502.77386,427.06841 510.77574,414.10666 C 518.07674,402.28022 524.95306,390.77087 530.92367,384.91286 C 537.83601,378.13088 543.82343,375.16399 553.2451,372.41286 C 559.98785,370.44397 578.6056,369.6365 602.26033,370.0608 C 631.85697,370.59168 659.94232,371.4583 689.51673,372.89045 M 690.27117,372.93509 C 714.46335,374.1066 737.87824,375.61301 761.9951,377.94857 C 767.14093,378.21777 768.08314,380.82142 761.45939,380.44857 C 738.23615,379.11177 714.74767,378.10527 690.16175,377.13253"
         style="fill:none;fill-opacity:1;stroke:#000000;stroke-width:0.40000001;stroke-miterlimit:4;stroke-dasharray:none;stroke-opacity:1" />
      <path
         sodipodi:nodetypes="cssssc"
         id="path6760"
         d="M 798.23452,369.35212 C 792.36068,371.38412 784.48806,371.5018 775.37982,371.75123 C 759.60535,372.18322 740.4935,369.7381 719.06381,367.45808 C 705.31729,365.99552 688.75648,365.01618 671.71291,364.04882 C 644.53118,362.50603 617.09183,362.05876 588.95939,362.41286 C 571.68975,362.63023 557.07373,362.08378 544.57169,369.2105"
         style="fill:none;fill-opacity:1;stroke:#000000;stroke-width:0.40000001;stroke-miterlimit:4;stroke-dasharray:none;stroke-opacity:1" />
      <path
         sodipodi:nodetypes="cccccccc"
         d="M 908.34114,380.21126 C 911.7973,387.7874 911.7311,394.7322 911.49787,402.93969 C 911.05142,410.09494 910.37575,422.42722 909.47757,424.40543 C 908.41542,426.52879 899.08136,430.03757 896.59812,432.36038 C 895.09536,433.85308 894.51151,438.2699 897.06622,437.78361 C 899.16428,437.42174 899.60346,436.28519 901.50215,436.049 C 902.22143,436.13741 902.00237,436.68757 901.73848,437.02431 C 896.11505,440.78527 879.67806,451.0482 879.67806,451.0482"
         style="fill:none;fill-opacity:1;stroke:#000000;stroke-width:0.40000001;stroke-miterlimit:4;stroke-opacity:1"
         id="path2205" />
      <path
         sodipodi:nodetypes="cssssss"
         id="path6764"
         d="M 776.29972,369.87294 C 771.21284,369.7955 773.37648,375.31242 774.65018,376.47018 C 776.13237,377.81745 783.19912,376.08671 787.74361,377.34231 C 788.89752,377.66113 791.33616,379.16076 793.88901,377.90866 C 796.94446,376.41005 795.8814,372.97481 795.04972,371.12294 C 794.17505,369.17536 795.04609,368.42304 788.88901,368.17651 C 785.81109,368.05327 781.45244,369.95138 776.29972,369.87294 z"
         style="fill:none;fill-opacity:1;stroke:#000000;stroke-width:0.40000001;stroke-miterlimit:4;stroke-dasharray:none;stroke-opacity:1" />
      <path
         sodipodi:nodetypes="csssc"
         id="path6766"
         d="M 773.18555,372.0158 C 773.6526,373.79004 774.82209,373.9193 776.21044,373.71223 C 781.0099,372.99639 784.64678,373.22618 788.53187,373.2658 C 792.33672,373.3046 793.01153,372.01585 792.90687,370.7658 C 792.80571,369.55755 792.80796,368.98509 791.65687,368.35508"
         style="fill:none;fill-opacity:1;stroke:#000000;stroke-width:0.40000001;stroke-miterlimit:4;stroke-dasharray:none;stroke-opacity:1" />
      <path
         sodipodi:nodetypes="cccccc"
         id="path4666"
         d="M 903.16411,431.85531 C 901.67227,434.63323 902.47314,435.89592 902.91157,437.91622 C 903.66146,439.61526 904.90445,440.64379 906.32084,441.00982 C 912.18266,442.11793 921.04752,438.7387 923.11463,434.00188 C 924.28079,429.55547 917.16402,426.90454 911.87668,426.74141 C 907.66872,429.20629 905.263,430.53916 903.16411,431.85531 z"
         style="fill:none;fill-opacity:1;stroke:#000000;stroke-width:0.40000001;stroke-miterlimit:4;stroke-dasharray:none;stroke-opacity:1" />
      <path
         sodipodi:nodetypes="csssssss"
         id="path4167"
         d="M 622.97241,392.88751 C 621.91579,389.58405 623.22669,387.62682 626.36128,387.61381 C 641.20193,387.55596 654.18921,387.43372 668.56544,388.45394 C 679.95095,389.26856 681.453,395.54379 681.64504,399.57783 C 682.14069,409.89539 676.21313,413.23082 672.27987,413.89431 C 662.74055,415.50347 648.73121,415.83386 638.67484,415.68232 C 635.24945,415.63071 632.47445,415.62735 630.08927,410.71325 C 627.18653,404.73285 624.3179,397.09407 622.97241,392.88751 z"
         style="fill:none;fill-rule:evenodd;stroke:#000000;stroke-width:0.40000021;stroke-linecap:butt;stroke-linejoin:miter;stroke-miterlimit:4;stroke-dasharray:none;stroke-opacity:1" />
      <path
         style="fill:none;stroke:#000000;stroke-width:0.40000021;stroke-miterlimit:4;stroke-dasharray:none;stroke-opacity:1"
         d="M 673.21329,395.02502 C 671.52079,395.20623 669.87842,397.50085 670.15535,401.16756 C 670.5828,406.82679 673.33079,407.75588 674.2013,407.63035 C 676.02051,407.36803 677.08486,405.05295 677.21249,401.75078 C 677.38281,397.34364 675.33525,394.79783 673.21329,395.02502 z"
         id="path6115"
         sodipodi:nodetypes="cssss" />
      <path
         sodipodi:nodetypes="cssss"
         id="path6135"
         d="M 672.56747,392.28186 C 669.65998,392.56689 666.80606,395.86168 667.22515,401.08051 C 667.87193,409.13528 672.57389,410.41512 674.06983,410.22247 C 677.19604,409.81987 679.05822,406.50514 679.3279,401.79915 C 679.68779,395.51846 676.21275,391.92451 672.56747,392.28186 z"
         style="fill:none;stroke:#000000;stroke-width:0.40000021;stroke-miterlimit:4;stroke-dasharray:none;stroke-opacity:1" />
      <path
         sodipodi:nodetypes="ccsscc"
         id="path12384"
         d="M 627.50127,390.78755 C 637.88576,390.80141 649.88235,390.69335 661.34986,391.16612 C 662.67526,391.1829 663.66623,391.82155 663.39813,393.12572 C 662.99207,395.10102 662.81616,396.26844 662.74165,398.67621 C 662.69748,400.1034 661.63607,400.42224 660.43285,400.47761 C 650.31597,400.74187 640.36071,400.6665 629.81151,400.54607"
         style="fill:none;stroke:#000000;stroke-width:0.40000021;stroke-miterlimit:4;stroke-dasharray:none;stroke-opacity:1" />
      <path
         sodipodi:nodetypes="ccsscc"
         id="path12386"
         d="M 630.27414,403.25491 C 640.83259,403.33724 650.26463,403.5011 660.82922,403.20656 C 661.67548,403.19105 662.55802,403.04711 662.67616,403.96701 C 663.04492,406.83864 663.7669,408.65488 664.78818,410.98555 C 665.10979,411.71952 664.72825,412.20368 664.13876,412.26215 C 655.50097,412.96455 646.64151,412.92467 635.62499,412.89078"
         style="fill:none;stroke:#000000;stroke-width:0.40000021;stroke-miterlimit:4;stroke-dasharray:none;stroke-opacity:1" />
      <path
         sodipodi:nodetypes="cssc"
         id="path15303"
         d="M 429.31653,374.37715 C 458.19488,360.73038 471.30826,355.28043 497.54876,350.3873 C 544.13552,341.70016 576.3322,345.8859 615.92367,346.34144 C 645.74077,346.68451 671.80766,345.8157 705.55766,349.87487"
         style="fill:none;stroke:#000000;stroke-width:0.40000001;stroke-miterlimit:4;stroke-dasharray:none;stroke-opacity:1" />
      <path
         sodipodi:nodetypes="ccsss"
         id="path15308"
         d="M 456.92922,393.46951 C 456.49554,378.26237 516.44997,362.94713 542.82918,365.44413 C 550.99485,366.40247 545.64782,368.5294 542.03458,370.74108 C 534.9195,375.09625 527.46393,382.0396 520.46138,393.79731 C 515.56134,402.02479 512.20971,407.57764 508.95208,413.67256"
         style="fill:none;stroke:#000000;stroke-width:0.40000001;stroke-miterlimit:4;stroke-dasharray:none;stroke-opacity:1" />
      <path
         sodipodi:nodetypes="csssssss"
         id="path2211"
         d="M 320.30609,431.60277 C 317.76949,425.29041 316.02834,420.64006 313.23502,410.89464 C 310.37395,400.91281 316.26977,400.2947 324.85178,400.28805 C 346.04476,400.27162 373.98594,402.27632 387.60751,404.32865 C 406.21702,407.13249 418.25763,414.10309 423.34165,425.66812 C 425.58215,430.76476 422.59315,437.36817 414.50282,437.66369 C 384.82606,438.7477 360.7375,438.68143 333.69061,438.16876 C 328.52835,438.07045 322.55784,437.20629 320.30609,431.60277 z"
         style="fill:none;stroke:#000000;stroke-width:0.40000001;stroke-miterlimit:4;stroke-dasharray:none;stroke-opacity:1" />
      <path
         style="fill:none;stroke:#000000;stroke-width:0.40000001;stroke-miterlimit:4;stroke-dasharray:none;stroke-opacity:1"
         d="M 328.21552,429.82796 C 325.89853,424.76093 324.44606,420.93942 321.98466,413.03787 C 319.46354,404.94463 324.43627,405.05774 331.99854,405.05234 C 350.6733,405.03902 370.54554,405.78178 388.26881,408.56735 C 404.11864,411.05847 412.86447,415.78713 418.78552,424.09475 C 422.18299,428.86162 421.18746,433.89938 411.21949,434.11078 C 387.48696,434.61412 364.47642,434.51745 340.45159,433.51014 C 335.39551,433.29759 329.76088,433.20752 328.21552,429.82796 z"
         id="path2213"
         sodipodi:nodetypes="csssssss" />
      <path
         sodipodi:nodetypes="cc"
         id="path2375"
         d="M 321.56879,407.61165 C 343.36723,408.74003 374.45498,409.80737 394.95803,409.95211"
         style="fill:none;stroke:#000000;stroke-width:0.40000001;stroke-miterlimit:4;stroke-dasharray:none;stroke-opacity:1" />
      <path
         style="fill:none;stroke:#000000;stroke-width:0.40000001;stroke-miterlimit:4;stroke-dasharray:none;stroke-opacity:1"
         d="M 321.44252,411.02092 C 343.40586,412.56154 383.0291,413.16907 404.21189,412.78868"
         id="path3346"
         sodipodi:nodetypes="cc" />
      <path
         sodipodi:nodetypes="cc"
         id="path3348"
         d="M 322.45267,414.30392 C 344.35899,415.75593 388.98054,416.47958 410.24665,415.93009"
         style="fill:none;stroke:#000000;stroke-width:0.40000001;stroke-miterlimit:4;stroke-dasharray:none;stroke-opacity:1" />
      <path
         style="fill:none;stroke:#000000;stroke-width:0.40000001;stroke-miterlimit:4;stroke-dasharray:none;stroke-opacity:1"
         d="M 323.46282,417.46064 C 345.08149,418.94855 392.31744,419.56052 414.09337,418.90824"
         id="path3350"
         sodipodi:nodetypes="cc" />
      <path
         sodipodi:nodetypes="cc"
         id="path3352"
         d="M 324.59924,420.86991 C 346.39768,421.99829 395.33379,422.49293 416.90827,421.8864"
         style="fill:none;stroke:#000000;stroke-width:0.40000001;stroke-miterlimit:4;stroke-dasharray:none;stroke-opacity:1" />
      <path
         style="fill:none;stroke:#000000;stroke-width:0.40000001;stroke-miterlimit:4;stroke-dasharray:none;stroke-opacity:1"
         d="M 325.73566,423.7741 C 347.5341,424.90248 397.68957,425.7976 419.17476,424.78425"
         id="path3354"
         sodipodi:nodetypes="cc" />
      <path
         sodipodi:nodetypes="cc"
         id="path3356"
         d="M 326.74581,426.67829 C 348.67052,428.31175 397.05822,428.70179 420.18491,427.56217"
         style="fill:none;stroke:#000000;stroke-width:0.40000001;stroke-miterlimit:4;stroke-dasharray:none;stroke-opacity:1" />
      <path
         style="fill:none;stroke:#000000;stroke-width:0.40000001;stroke-miterlimit:4;stroke-dasharray:none;stroke-opacity:1"
         d="M 328.26104,429.83502 C 350.31202,431.46848 399.07854,431.73225 420.31119,430.46636"
         id="path3358"
         sodipodi:nodetypes="cc" />
      <path
         sodipodi:nodetypes="cc"
         d="M 334.51771,405.08627 C 336.92041,414.59854 340.45473,424.11079 343.86162,433.62306"
         style="fill:none;stroke:#000000;stroke-width:0.40000001;stroke-miterlimit:4;stroke-opacity:1"
         id="path2341" />
      <path
         sodipodi:nodetypes="cc"
         d="M 365.27057,434.25442 C 362.02229,424.57379 359.3952,415.23499 357.15237,405.55436"
         style="fill:none;stroke:#000000;stroke-width:0.40000001;stroke-miterlimit:4;stroke-opacity:1"
         id="path2345" />
      <path
         sodipodi:nodetypes="cc"
         d="M 380.69598,407.43373 C 382.56131,417.27637 384.22777,424.71662 387.34228,434.38069"
         style="fill:none;stroke:#000000;stroke-width:0.40000001;stroke-miterlimit:4;stroke-opacity:1"
         id="path2351" />
      <path
         sodipodi:nodetypes="cc"
         d="M 402.70935,412.12128 C 404.30588,420.91056 405.82842,426.76233 408.34721,434.19129"
         style="fill:none;stroke:#000000;stroke-width:0.40000001;stroke-miterlimit:4;stroke-opacity:1"
         id="path2359" />
      <path
         sodipodi:nodetypes="cccsccsss"
         id="path6285"
         d="M 250.03539,439.58519 C 314.77728,442.37137 379.49319,445.70228 444.27092,447.47897 C 456.07024,447.85397 466.62124,446.49947 479.43882,443.7223 C 493.61865,440.13338 488.67832,453.52259 479.16512,457.67692 C 465.58434,463.60753 457.99718,462.1802 443.59488,462.74022 C 385.84783,461.89843 327.54552,456.94077 270.05101,454.83628 C 253.2989,452.81607 234.73686,451.83519 223.90469,447.44995 C 218.29539,445.17912 219.76799,440.12854 225.83553,437.79623 C 230.54835,435.98466 236.47233,435.08163 243.0205,434.23037"
         style="fill:none;stroke:#000000;stroke-width:0.40000001;stroke-miterlimit:4;stroke-dasharray:none;stroke-opacity:1" />
      <path
         sodipodi:nodetypes="ccsssss"
         id="path4174"
         d="M 255.03314,410.3746 C 259.74303,400.02213 274.01514,399.94708 293.5051,399.66032 C 299.00112,399.76183 304.4165,400.01009 307.28904,409.19857 C 309.53824,416.39316 311.3241,421.35517 313.99966,429.73429 C 315.21718,433.54727 312.03615,436.04289 308.73999,435.98429 C 294.14028,435.72794 274.76621,432.48043 265.39309,430.27 C 258.48039,428.6398 249.91949,421.61451 255.03314,410.3746 z"
         style="fill:none;stroke:#000000;stroke-width:0.40000001;stroke-miterlimit:4;stroke-dasharray:none;stroke-opacity:1" />
      <path
         sodipodi:nodetypes="cc"
         id="path4180"
         d="M 290.58185,402.03405 C 293.49414,412.61493 296.92737,422.516 301.02333,432.14996"
         style="fill:none;stroke:#000000;stroke-width:0.40000001;stroke-miterlimit:4;stroke-dasharray:none;stroke-opacity:1" />
      <path
         sodipodi:nodetypes="cc"
         id="path4182"
         d="M 278.88542,402.0124 C 280.98103,411.69446 284.54755,421.62261 287.79867,431.07357"
         style="fill:none;stroke:#000000;stroke-width:0.40000001;stroke-miterlimit:4;stroke-dasharray:none;stroke-opacity:1" />
      <path
         sodipodi:nodetypes="cc"
         id="path4184"
         d="M 266.93645,403.62403 C 269.19291,412.23066 272.07106,421.11667 275.20939,429.28786"
         style="fill:none;stroke:#000000;stroke-width:0.40000001;stroke-miterlimit:4;stroke-dasharray:none;stroke-opacity:1" />
      <path
         style="fill:none;stroke:#000000;stroke-width:0.40000001;stroke-miterlimit:4;stroke-dasharray:none;stroke-opacity:1"
         d="M 257.08065,411.01681 C 261.38631,401.83003 274.61525,401.99771 291.28918,402.05162 C 296.2255,402.13656 301.08939,402.13298 303.6694,409.82145 C 305.68954,415.84154 307.31612,419.9858 309.69662,427.00474 C 311.44619,432.16338 308.87028,432.28346 304.97259,432.23443 C 291.85892,432.07334 274.4513,429.33032 266.04002,427.45299 C 257.45755,425.53746 252.96169,419.80524 257.08065,411.01681 z"
         id="path4190"
         sodipodi:nodetypes="ccsssss" />
      <path
         sodipodi:nodetypes="cc"
         id="path4192"
         d="M 257.61349,410.07389 C 258.88837,416.35296 260.62789,421.01245 262.47486,426.29947"
         style="fill:none;stroke:#000000;stroke-width:0.40000001;stroke-miterlimit:4;stroke-dasharray:none;stroke-opacity:1" />
      <path
         sodipodi:nodetypes="cc"
         id="path4194"
         d="M 306.63796,418.66286 C 290.35989,418.67849 272.72912,417.3573 255.62332,415.86884"
         style="fill:none;stroke:#000000;stroke-width:0.40000001;stroke-miterlimit:4;stroke-dasharray:none;stroke-opacity:1" />
      <path
         style="fill:none;stroke:#000000;stroke-width:0.40000001;stroke-miterlimit:4;stroke-dasharray:none;stroke-opacity:1"
         d="M 305.29867,415.00215 C 289.0206,415.01778 273.56518,414.34775 256.45938,412.85929"
         id="path4196"
         sodipodi:nodetypes="cc" />
      <path
         sodipodi:nodetypes="cc"
         id="path4198"
         d="M 304.31653,411.69858 C 288.03846,411.8035 274.92614,411.31204 257.82034,409.82358"
         style="fill:none;stroke:#000000;stroke-width:0.40000001;stroke-miterlimit:4;stroke-dasharray:none;stroke-opacity:1" />
      <path
         style="fill:none;stroke:#000000;stroke-width:0.40000001;stroke-miterlimit:4;stroke-dasharray:none;stroke-opacity:1"
         d="M 303.2451,408.4843 C 287.50274,408.58922 276.88593,407.91919 260.40513,406.78787"
         id="path4200"
         sodipodi:nodetypes="cc" />
      <path
         sodipodi:nodetypes="cc"
         id="path4202"
         d="M 301.01296,405.27001 C 285.2706,405.46421 281.11935,405.03588 265.44212,404.17242"
         style="fill:none;stroke:#000000;stroke-width:0.40000001;stroke-miterlimit:4;stroke-dasharray:none;stroke-opacity:1" />
      <path
         style="fill:none;stroke:#000000;stroke-width:0.40000001;stroke-miterlimit:4;stroke-dasharray:none;stroke-opacity:1"
         d="M 307.88796,422.145 C 291.60989,422.16063 272.93701,420.77632 255.83121,419.28786"
         id="path4204"
         sodipodi:nodetypes="cc" />
      <path
         sodipodi:nodetypes="cc"
         id="path4206"
         d="M 309.22724,425.76108 C 292.94917,425.77671 274.48867,424.06141 257.38287,422.57295"
         style="fill:none;stroke:#000000;stroke-width:0.40000001;stroke-miterlimit:4;stroke-dasharray:none;stroke-opacity:1" />
      <path
         style="fill:none;stroke:#000000;stroke-width:0.40000001;stroke-miterlimit:4;stroke-dasharray:none;stroke-opacity:1"
         d="M 310.23156,429.24544 C 294.4892,429.17179 276.15448,427.60668 260.83439,425.49322"
         id="path4208"
         sodipodi:nodetypes="cc" />
      <path
         style="fill:none;stroke:#000000;stroke-width:0.40000001;stroke-miterlimit:4;stroke-dasharray:none;stroke-opacity:1"
         d="M 252.21738,454.60395 C 249.93902,449.05485 249.22437,446.10587 249.30808,441.02418 C 249.43273,433.45833 251.46151,427.71181 252.37679,423.38068 C 253.29261,419.04705 254.10616,418.6982 258.31911,418.07867 C 260.96093,417.74898 263.611,417.92625 266.18213,418.57469 C 267.22126,418.91483 267.86153,419.83461 268.17557,421.17872 C 269.22988,425.69122 269.71967,433.31289 270.18784,440.4476 C 256.71265,440.5332 257.71145,454.03859 268.51209,454.61267 C 267.69799,458.33503 265.68579,459.44282 262.76799,459.31998 C 258.76395,458.96797 253.69338,458.87829 252.21738,454.60395 z"
         id="path4339"
         sodipodi:nodetypes="cssccscccc" />
      <path
         style="fill:none;stroke:#000000;stroke-width:0.40000001;stroke-miterlimit:4;stroke-dasharray:none;stroke-opacity:1"
         d="M 262.0172,456.68186 C 259.29033,452.99573 257.19764,449.43158 256.90713,443.35046 C 256.61715,434.51263 257.88718,431.43858 258.88509,423.10142 C 259.18096,420.62953 259.65276,419.83444 260.78092,419.52206 C 262.24147,419.11764 261.94656,419.30608 263.39856,419.11776"
         id="path4341"
         sodipodi:nodetypes="ccssc" />
      <path
         sodipodi:nodetypes="csssssscccs"
         id="path3360"
         d="M 352.68961,461.26754 C 350.65381,457.22214 348.83127,451.57604 349.34798,446.42642 C 350.24771,437.45956 350.49431,434.01233 351.53788,429.60201 C 352.58206,425.18915 352.62576,424.70765 358.18681,424.20307 C 359.87362,424.05002 361.33254,424.04391 363.04078,424.1034 C 364.35429,424.14915 365.73612,424.29425 367.15192,424.70816 C 368.33669,425.05452 369.0667,425.99111 369.42476,427.3598 C 370.62684,431.95479 370.77687,440.56342 371.12998,444.91907 C 357.36631,443.89556 358.12166,460.12825 370.20667,460.11207 C 368.41093,463.07079 366.0601,465.47535 363.25924,465.44076 C 358.95004,465.04139 354.83764,465.53594 352.68961,461.26754 z"
         style="fill:none;stroke:#000000;stroke-width:0.40000001;stroke-miterlimit:4;stroke-dasharray:none;stroke-opacity:1" />
      <path
         sodipodi:nodetypes="csss"
         id="path4218"
         d="M 221.10224,367.77 C 235.41159,358.41863 253.63968,348.03788 273.95939,343.48429 C 295.56938,338.64155 318.66403,336.30578 343.03453,336.90097 C 367.07394,337.48808 390.29072,338.73185 416.01805,340.68904"
         style="fill:none;stroke:#000000;stroke-width:0.40000001;stroke-miterlimit:4;stroke-dasharray:none;stroke-opacity:1" />
      <path
         sodipodi:nodetypes="ccs"
         id="path4224"
         d="M 374.45636,348.28508 C 378.42526,349.07353 382.633,349.73224 386.9951,349.73429 C 401.04607,350.18183 413.30227,350.24724 428.03224,349.67174"
         style="fill:none;stroke:#000000;stroke-width:0.40000001;stroke-miterlimit:4;stroke-dasharray:none;stroke-opacity:1" />
      <path
         sodipodi:nodetypes="ccc"
         id="path4220"
         d="M 386.97616,349.78041 L 387.0093,352.79029 C 369.00331,357.66634 353.69761,364.94737 338.74138,373.519"
         style="fill:none;stroke:#000000;stroke-width:0.40000001;stroke-miterlimit:4;stroke-dasharray:none;stroke-opacity:1" />
      <path
         sodipodi:nodetypes="csssc"
         id="path6166"
         d="M 439.4951,369.55572 C 425.85504,373.78403 412.92398,376.12125 400.20939,376.52 C 367.44854,377.54745 334.47422,378.9003 303.42367,374.37715 C 298.5848,373.67227 296.70373,371.1416 302.88796,368.66286 C 318.7939,362.2875 349.81653,353.05572 372.88796,348.84143"
         style="fill:none;stroke:#000000;stroke-width:0.40000001;stroke-miterlimit:4;stroke-dasharray:none;stroke-opacity:1" />
      <path
         sodipodi:nodetypes="csssssssc"
         id="path6168"
         d="M 237.14576,375.99974 C 252.61075,367.97063 278.18349,359.85858 302.12335,353.82102 C 314.17427,350.78182 313.7841,357.66193 308.4368,359.50313 C 291.29945,365.40395 275.32621,372.29134 263.48501,380.59007 C 258.71407,383.93371 254.83707,388.51446 251.61572,393.84832 C 250.73384,395.30851 249.29614,394.85615 249.84795,393.72205 C 251.33787,390.65991 254.01275,387.10945 256.91902,382.86291 C 259.81808,378.62691 258.13934,378.10936 254.1411,378.06469 C 249.34308,378.01109 244.00894,379.03699 239.21072,380.33753"
         style="fill:none;stroke:#000000;stroke-width:0.40000001;stroke-miterlimit:4;stroke-dasharray:none;stroke-opacity:1" />
      <path
         id="path6223"
         d="M 290.14124,455.72236 C 291.15359,469.16369 295.28352,480.22231 301.47993,486.8522 C 313.16577,499.35553 323.5813,498.53472 332.08973,488.85976 C 335.28144,485.23046 338.00008,481.29516 340.23346,477.02183"
         style="fill:none;fill-opacity:1;stroke:#000000;stroke-width:0.40000001;stroke-miterlimit:4;stroke-dasharray:none;stroke-opacity:1" />
      <path
         id="path6178"
         style="fill:none;fill-opacity:1;stroke:#000000;stroke-width:0.40000001;stroke-miterlimit:4;stroke-opacity:1"
         d="M 305.13908,517.33399 C 285.29337,510.21716 272.53974,479.75773 271.78634,455.09786"
         sodipodi:nodetypes="cs" />
      <path
         style="fill:none;fill-opacity:1;stroke:#000000;stroke-width:0.40000001;stroke-miterlimit:4;stroke-dasharray:none;stroke-opacity:1"
         d="M 305.13382,488.16453 C 314.63435,489.32132 321.22035,481.7765 325.75969,474.33528"
         id="path6180"
         sodipodi:nodetypes="cc" />
      <path
         id="path6219"
         d="M 338.74182,476.7294 C 336.70621,480.59745 334.26373,484.17569 331.42403,487.4902 C 323.40268,496.85275 313.5834,497.64706 302.56658,485.54747 C 296.98583,479.41821 293.1831,469.37753 292.0224,457.15174 L 291.89318,455.71585"
         style="fill:none;fill-opacity:1;stroke:#000000;stroke-width:0.40000001;stroke-miterlimit:4;stroke-dasharray:none;stroke-opacity:1" />
      <path
         id="path6227"
         d="M 356.03604,478.8883 C 353.39853,490.14718 347.13284,500.8657 339.76518,509.43713 C 334.2407,515.86424 328.3068,518.67183 318.5537,520.10871 C 307.3527,521.7589 286.93643,520.09557 278.92001,517.96381 C 255.7168,511.79352 244.57703,480.73848 243.59379,452.39259"
         style="fill:none;fill-opacity:1;stroke:#000000;stroke-width:0.40000001;stroke-miterlimit:4;stroke-opacity:1"
         sodipodi:nodetypes="csssc" />
      <path
         style="fill:none;fill-opacity:1;stroke:#000000;stroke-width:0.40000001;stroke-miterlimit:4;stroke-dasharray:none;stroke-opacity:1"
         d="M 312.97738,387.76819 C 314.49244,389.34481 318.51706,388.95623 321.87944,387.64036 C 324.97426,386.42922 328.099,384.30829 328.45259,382.51305 C 328.67227,380.84172 326.83403,380.30036 324.2966,380.32576 C 322.54697,380.3433 318.27807,380.93439 314.91614,383.35924 C 313.3835,384.46469 311.93037,386.67861 312.97738,387.76819 z"
         id="path6176"
         sodipodi:nodetypes="cscsss" />
      <path
         sodipodi:nodetypes="cscsss"
         id="path6198"
         d="M 315.01741,386.4158 C 315.93436,387.39792 318.61439,387.03565 320.90632,386.08955 C 323.01585,385.21872 325.19371,383.75645 325.52314,382.58135 C 325.75746,381.49035 324.57172,381.18914 322.89375,381.27497 C 321.73674,381.33417 318.8845,381.83456 316.5337,383.5006 C 315.46201,384.26013 314.38371,385.73708 315.01741,386.4158 z"
         style="fill:none;fill-opacity:1;stroke:#000000;stroke-width:0.40000001;stroke-miterlimit:4;stroke-dasharray:none;stroke-opacity:1" />
      <path
         sodipodi:nodetypes="csc"
         id="path6215"
         d="M 299.63819,456.2616 C 304.47481,466.98533 313.10153,471.97332 321.81653,473.66286 C 373.55464,483.69311 425.56565,483.1233 478.74533,484.52141"
         style="fill:none;stroke:#000000;stroke-width:0.40000001;stroke-miterlimit:4;stroke-dasharray:none;stroke-opacity:1" />
      <path
         sodipodi:nodetypes="cccc"
         id="path6229"
         d="M 596.66967,486.56568 C 598.96399,487.53671 599.06894,489.78953 600.97631,489.73622 C 658.69322,488.61382 713.9631,485.70562 771.61205,482.6159 C 777.75162,482.19138 780.19633,477.18234 780.57258,474.07883"
         style="fill:none;stroke:#000000;stroke-width:0.40000001;stroke-miterlimit:4;stroke-dasharray:none;stroke-opacity:1" />
      <path
         sodipodi:nodetypes="ccccc"
         d="M 732.30531,484.9336 C 731.9226,491.04341 728.74384,496.53127 722.39911,497.36203 C 701.13179,499.22235 675.27211,500.56715 650.23271,500.85659 C 646.33602,500.80406 645.29606,498.64377 643.55072,494.8494 L 594.05743,496.25253"
         style="fill:none;stroke:#000000;stroke-width:0.40000001;stroke-miterlimit:4;stroke-opacity:1"
         id="path6231" />
      <path
         sodipodi:nodetypes="cc"
         id="path6242"
         d="M 591.45939,504.02 C 610.53982,513.67902 629.51761,505.77609 637.53081,495.09143"
         style="fill:none;stroke:#000000;stroke-width:0.40000001;stroke-miterlimit:4;stroke-dasharray:none;stroke-opacity:1" />
      <path
         sodipodi:nodetypes="cc"
         id="path6295"
         d="M 604.17294,480.42262 L 601.03095,489.64274"
         style="fill:none;stroke:#000000;stroke-width:0.40000001;stroke-miterlimit:4;stroke-dasharray:none;stroke-opacity:1" />
      <path
         id="path6297"
         d="M 777.45882,480.2766 L 786.2728,478.45416"
         style="fill:none;stroke:#000000;stroke-width:0.40000001;stroke-miterlimit:4;stroke-dasharray:none;stroke-opacity:1" />
      <path
         sodipodi:nodetypes="ccccccccccc"
         d="M 485.28587,338.65868 C 465.68216,340.50472 447.1887,343.9897 429.8269,349.3969 C 429.47825,349.52522 429.37771,349.79311 429.38111,350.11945 L 429.4752,352.30727 C 429.46176,352.66828 429.27965,352.77723 428.96954,352.79839 C 414.33103,353.6447 401.677,353.47086 386.9951,352.77 C 382.485,352.27129 377.9749,352.19252 373.4648,350.92113 C 373.2393,350.84742 373.07399,350.69655 373.03465,350.43011 L 372.91438,349.01286 C 372.79718,348.00884 373.44419,347.76902 374.18923,347.62724 C 420.90661,338.40334 462.98338,334.89593 512.48761,333.36544"
         style="fill:none;stroke:#000000;stroke-width:0.40000001;stroke-miterlimit:4;stroke-opacity:1"
         id="path3273" />
      <path
         sodipodi:nodetypes="cssssc"
         id="path6397"
         d="M 249.46996,396.0836 C 247.74045,399.72582 247.81767,403.64656 252.46351,402.07735 C 264.95449,397.85831 281.5915,396.15373 295.27429,397.30586 C 309.09862,398.46991 308.86121,397.94548 320.98727,397.43841 C 348.69251,396.27988 378.36796,398.90658 400.24683,403.66784 C 412.49385,406.33302 415.61865,413.3545 416.21804,401.41464"
         style="fill:none;stroke:#000000;stroke-width:0.40000001;stroke-miterlimit:4;stroke-dasharray:none;stroke-opacity:1" />
      <path
         sodipodi:nodetypes="csc"
         id="path2280"
         d="M 705.75408,334.74647 C 734.08731,333.73981 756.44445,334.561 785.68302,337.83098 C 790.88293,338.41253 797.91976,340.45987 800.75688,341.29451"
         style="fill:none;stroke:#000000;stroke-width:0.40000001;stroke-miterlimit:4;stroke-dasharray:none;stroke-opacity:1" />
      <path
         sodipodi:nodetypes="csc"
         id="path3252"
         d="M 720.32694,352.88186 C 735.04843,353.07919 744.23435,353.09984 755.91342,354.16179 C 758.71588,354.41661 762.26176,354.80297 763.73611,358.20624"
         style="fill:none;stroke:#000000;stroke-width:0.40000001;stroke-miterlimit:4;stroke-dasharray:none;stroke-opacity:1" />
      <path
         sodipodi:nodetypes="ccsc"
         id="path3254"
         d="M 766.72299,358.33878 C 766.47263,353.41635 765.58556,346.09004 774.07707,344.92938 C 782.15756,343.82491 789.47123,341.75797 798.13523,341.37352 C 808.107,340.93103 813.26206,343.01265 820.40213,348.00057"
         style="fill:none;stroke:#000000;stroke-width:0.40000001;stroke-miterlimit:4;stroke-dasharray:none;stroke-opacity:1" />
      <path
         sodipodi:nodetypes="cc"
         id="path3256"
         d="M 777.95567,357.29302 C 777.56685,353.38282 777.8789,348.20485 772.44613,347.09354"
         style="fill:none;stroke:#000000;stroke-width:0.40000001;stroke-miterlimit:4;stroke-dasharray:none;stroke-opacity:1" />
      <path
         sodipodi:nodetypes="cc"
         id="path3269"
         d="M 505.48447,325.07097 C 514.80564,309.65142 524.74817,291.07329 535.82445,277.35398"
         style="fill:none;stroke:#000000;stroke-width:0.40000001;stroke-miterlimit:4;stroke-opacity:1" />
      <path
         sodipodi:nodetypes="csssssscsscsssccccssssc"
         d="M 498.21933,315.60338 C 498.21933,315.60338 510.54281,295.38407 519.77509,283.36345 C 525.37731,276.06925 534.80018,272.30844 542.64294,270.80488 C 560.83246,267.31772 581.46389,265.85401 601.49955,266.68117 C 626.47916,267.71244 644.9541,269.01256 662.59999,271.77803 C 676.10947,273.89523 688.00837,276.9036 704.21745,281.86392 C 709.06955,283.34876 708.74044,284.92344 708.56077,287.29973 C 706.95411,308.54815 706.03464,329.08354 705.55637,349.85929 C 671.50023,343.20005 637.77302,334.29482 599.19104,329.7099 C 568.45268,326.05708 531.39426,325.01474 502.69922,330.84452 C 496.55724,332.09235 488.33037,334.29763 482.66558,334.57846 C 484.37777,331.51553 485.37234,330.20354 486.42457,329.83385 C 492.60132,327.66376 508.365,324.28185 510.63111,323.85207 C 524.79468,321.16587 567.96056,318.87281 602.42691,323.19265 C 641.96536,328.1482 666.65142,334.01785 697.39376,341.05261 C 698.27664,341.27409 698.11684,340.73733 698.17287,340.17743 C 699.05768,323.59529 700.21431,307.03657 701.39746,290.4722 C 701.49616,289.21667 701.62105,288.70329 700.38125,288.27344 C 690.0146,284.59016 676.033,280.23444 659.53558,277.60633 C 635.94087,273.84759 620.92429,272.93519 600.93407,272.47628 C 581.49632,272.03005 562.58376,271.95552 543.7865,275.57774 C 535.97861,277.08232 527.96239,279.71794 524.61392,283.46914 C 511.00285,298.71727 500.95182,312.00618 487.52679,329.42909"
         style="fill:none;stroke:#000000;stroke-width:0.40000001;stroke-miterlimit:4;stroke-opacity:1"
         id="path3260" />
      <path
         sodipodi:nodetypes="ccccc"
         id="path2286"
         d="M 544.32826,317.60549 C 544.08811,317.76442 543.96527,318.38082 544.55902,318.66993 C 557.14964,316.30283 574.2575,314.09729 590.33326,314.43839 C 590.75103,314.31433 590.67003,313.68683 590.30895,313.37836 C 578.02037,312.42906 564.28153,313.12385 544.32826,317.60549 z"
         style="fill:none;fill-opacity:1;stroke:#000000;stroke-width:0.40000001;stroke-miterlimit:4;stroke-dasharray:none;stroke-opacity:1" />
      <path
         sodipodi:nodetypes="ccccc"
         id="path4226"
         d="M 514.49727,331.56548 C 515.74742,332.7949 518.8046,331.69023 518.34096,330.10753 L 515.82268,325.07097 C 514.49727,324.89424 513.70202,325.24769 513.43694,326.13129 L 514.49727,331.56548 z"
         style="fill:none;fill-opacity:1;stroke:#000000;stroke-width:0.40000001;stroke-miterlimit:4;stroke-dasharray:none;stroke-opacity:1" />
      <path
         sodipodi:nodetypes="cccccccc"
         id="path4228"
         d="M 564.27986,311.69063 C 550.87477,314.40856 539.78964,316.26213 516.46385,326.2782 C 516.06253,327.36715 516.60563,328.05573 517.3701,328.2157 C 537.50248,319.58252 543.12698,317.87928 563.96388,312.77764 C 565.44634,312.69816 565.71709,313.15976 566.07324,314.3559 C 566.60179,314.89602 567.80183,314.83142 567.84341,314.05144 C 567.45382,312.88066 566.70728,311.91557 565.61904,311.70571 C 565.24035,311.17485 564.56516,311.19609 564.27986,311.69063 z"
         style="fill:none;fill-opacity:1;stroke:#000000;stroke-width:0.40000001;stroke-miterlimit:4;stroke-dasharray:none;stroke-opacity:1" />
      <path
         style="fill:#ffffff;fill-opacity:1;stroke:#000000;stroke-width:0.40000001;stroke-miterlimit:4;stroke-dasharray:none;stroke-opacity:1"
         d="M 614.90244,321.41608 C 614.33412,321.49828 614.38617,322.42397 614.87406,322.50617 C 627.65907,322.66505 644.60018,323.75516 660.36984,326.88003 C 660.97913,326.85939 661.12625,326.1827 660.80861,325.83403 C 648.91226,322.61106 635.34137,320.73179 614.90244,321.41608 z"
         id="path4240"
         sodipodi:nodetypes="ccccc" />
      <path
         style="fill:none;fill-opacity:1;stroke:#000000;stroke-width:0.40000001;stroke-miterlimit:4;stroke-dasharray:none;stroke-opacity:1"
         d="M 585.35013,335.12687 C 586.60028,336.35629 589.65746,335.25162 589.19382,333.66892 L 586.67554,328.63236 C 585.35013,328.45563 584.55488,328.80908 584.2898,329.69268 L 585.35013,335.12687 z"
         id="path4242"
         sodipodi:nodetypes="ccccc" />
      <path
         style="fill:none;fill-opacity:1;stroke:#000000;stroke-width:0.40000001;stroke-miterlimit:4;stroke-dasharray:none;stroke-opacity:1"
         d="M 635.80535,319.55508 C 618.13459,322.03814 607.27244,324.41503 587.30063,330.45682 C 586.50169,331.54577 587.17733,332.36689 587.9418,332.52686 C 607.48084,326.2406 617.37882,323.67893 636.60557,320.6913 C 638.08803,320.61182 638.22152,321.05539 638.31259,322.64915 C 638.84114,323.18927 639.95315,323.02526 640.09413,322.47723 C 640.10216,321.43899 639.71346,319.76296 637.39922,319.58624 C 637.02053,319.05538 636.09065,319.06054 635.80535,319.55508 z"
         id="path4244"
         sodipodi:nodetypes="cccccccc" />
      <path
         sodipodi:nodetypes="csssss"
         id="path7370"
         d="M 645.84415,348.04659 C 644.751,348.1298 643.6537,348.31208 642.53197,348.59701 C 638.98971,349.49679 638.60161,352.89893 644.51067,354.12021 C 647.89863,354.82043 651.32067,354.76981 653.99873,354.22059 C 657.14894,353.57455 657.5193,350.28731 654.37556,349.25502 C 653.72554,349.04157 653.08927,348.85448 652.46357,348.69432"
         style="fill:none;stroke:#000000;stroke-width:0.40000001;stroke-miterlimit:4;stroke-dasharray:none;stroke-opacity:1" />
      <path
         id="path8354"
         d="M 673.2784,329.04618 C 674.84326,334.26078 672.6412,339.14624 668.36309,339.95122 C 664.08499,340.75619 659.34287,337.17737 657.77801,331.96277 C 656.21315,326.74817 658.4152,321.86271 662.6933,321.05773 C 666.97141,320.25276 671.71354,323.83159 673.2784,329.04618 z"
         style="fill:none;stroke:#000000;stroke-width:0.39999998;stroke-miterlimit:4;stroke-opacity:1" />
      <path
         sodipodi:nodetypes="cscccccsc"
         d="M 653.60827,352.15446 C 652.7748,350.91547 652.13611,349.37972 652.57734,347.70273 C 653.97358,342.39596 655.43939,338.23521 658.74885,332.6111 C 660.12977,332.75437 661.27483,332.66332 662.87233,332.29112 C 663.96412,331.7262 664.25372,328.02163 662.36628,327.17555 C 660.53526,327.1657 658.7939,327.26579 656.84641,327.72179 C 655.16648,328.99959 654.91513,330.38321 656.60733,331.91079 C 653.80089,335.79326 650.9077,340.06941 648.17247,344.84424 C 646.38378,347.96673 644.92348,349.07553 643.11155,350.46749"
         style="fill:none;stroke:#000000;stroke-width:0.40000001;stroke-miterlimit:4;stroke-opacity:1"
         id="path7373" />
      <path
         sodipodi:nodetypes="cc"
         id="path5222"
         d="M 223.99252,412.13571 C 231.72077,424.19756 237.80054,431.41954 249.10968,438.37751"
         style="fill:none;fill-opacity:1;stroke:#000000;stroke-width:0.40000001;stroke-miterlimit:4;stroke-dasharray:none;stroke-opacity:1" />
      <path
         sodipodi:nodetypes="csssc"
         id="path5230"
         d="M 234.4167,428.94487 C 235.41151,429.24866 237.26597,429.17732 238.52619,427.81566 C 240.38205,425.81042 240.06849,421.45444 238.20411,419.10323 C 235.86635,416.15503 232.79141,415.5387 230.47839,415.73211 C 229.29411,415.83114 227.23535,416.78284 226.99148,417.57131"
         style="fill:none;fill-opacity:1;stroke:#000000;stroke-width:0.40000001;stroke-miterlimit:4;stroke-dasharray:none;stroke-opacity:1" />
      <path
         style="fill:none;fill-opacity:1;stroke:#000000;stroke-width:0.40000045;stroke-miterlimit:4;stroke-dasharray:none;stroke-opacity:1"
         d="M 443.65125,438.79915 C 444.89344,439.03587 446.94157,438.89652 448.55063,437.56295 C 450.67304,435.80394 450.95736,430.58823 448.65969,427.39528 C 446.17344,423.94023 441.56042,423.05939 438.99438,423.47537 C 437.69452,423.68609 435.96285,424.70604 435.67675,425.60897"
         id="path5238"
         sodipodi:nodetypes="csssc" />
      <path
         style="fill:none;stroke:#000000;stroke-width:0.40000001;stroke-miterlimit:4;stroke-dasharray:none;stroke-opacity:1"
         d="M 213.4032,388.96378 C 213.30397,380.29834 218.50328,369.58346 227.75259,369.59613 C 237.20615,369.60908 240.33016,381.056 241.03018,390.04534 C 241.56221,396.87747 236.72602,409.32859 227.41956,409.587 C 218.89046,409.82381 213.51043,398.32762 213.4032,388.96378 z"
         id="path4214"
         sodipodi:nodetypes="cssss" />
      <path
         sodipodi:nodetypes="cssss"
         id="path4216"
         d="M 210.59423,388.65146 C 210.45577,375.7586 218.91411,365.45298 229.02312,365.46833 C 241.14465,365.48697 245.96303,378.06579 245.98717,389.07647 C 246.01624,402.51518 238.73392,412.27309 227.43112,412.16699 C 216.30165,412.06253 210.73176,401.45901 210.59423,388.65146 z"
         style="fill:none;stroke:#000000;stroke-width:0.40000001;stroke-miterlimit:4;stroke-dasharray:none;stroke-opacity:1" />
      <path
         sodipodi:nodetypes="cc"
         id="path5243"
         d="M 226.22037,372.38814 C 224.37285,383.78667 224.57822,395.18521 226.75054,406.58374"
         style="fill:none;fill-opacity:1;stroke:#000000;stroke-width:0.40000001;stroke-miterlimit:4;stroke-dasharray:none;stroke-opacity:1" />
      <path
         sodipodi:nodetypes="cc"
         id="path5245"
         d="M 230.99185,373.97863 C 229.82603,384.14012 230.21765,394.3016 231.52201,404.46309"
         style="fill:none;fill-opacity:1;stroke:#000000;stroke-width:0.40000001;stroke-miterlimit:4;stroke-dasharray:none;stroke-opacity:1" />
      <path
         sodipodi:nodetypes="cc"
         id="path5251"
         d="M 220.91873,376.62945 C 219.21748,385.55389 219.8749,395.80373 221.44889,403.40276"
         style="fill:none;fill-opacity:1;stroke:#000000;stroke-width:0.40000001;stroke-miterlimit:4;stroke-dasharray:none;stroke-opacity:1" />
      <path
         sodipodi:nodetypes="cssss"
         id="path15299"
         d="M 420.05866,397.00505 C 419.95142,388.00826 425.57043,376.88457 435.56637,376.89681 C 446.54289,376.91025 450.04524,388.78776 449.91576,398.12796 C 449.79927,406.35154 445.26415,418.14858 435.20646,418.41686 C 425.98886,418.66273 420.17454,406.72694 420.05866,397.00505 z"
         style="fill:none;stroke:#000000;stroke-width:0.40000001;stroke-miterlimit:4;stroke-dasharray:none;stroke-opacity:1" />
      <path
         style="fill:none;stroke:#000000;stroke-width:0.40000001;stroke-miterlimit:4;stroke-dasharray:none;stroke-opacity:1"
         d="M 417.02294,396.68078 C 416.87331,383.29492 426.01442,372.59524 436.93946,372.61117 C 450.03947,372.63053 455.2468,385.69033 455.27288,397.12204 C 455.3043,411.07463 447.43414,421.20566 435.21894,421.09551 C 423.19108,420.98705 417.17158,409.97807 417.02294,396.68078 z"
         id="path15301"
         sodipodi:nodetypes="cssss" />
      <path
         style="fill:none;fill-opacity:1;stroke:#000000;stroke-width:0.40000001;stroke-miterlimit:4;stroke-dasharray:none;stroke-opacity:1"
         d="M 434.37858,380.34062 C 432.27787,392.35767 432.51138,404.37474 434.9814,416.39179"
         id="path6224"
         sodipodi:nodetypes="cc" />
      <path
         style="fill:none;fill-opacity:1;stroke:#000000;stroke-width:0.40000001;stroke-miterlimit:4;stroke-dasharray:none;stroke-opacity:1"
         d="M 439.80396,382.01741 C 438.47837,392.7303 438.92366,403.44318 440.40677,414.15607"
         id="path6226"
         sodipodi:nodetypes="cc" />
      <path
         style="fill:none;fill-opacity:1;stroke:#000000;stroke-width:0.40000001;stroke-miterlimit:4;stroke-dasharray:none;stroke-opacity:1"
         d="M 428.35038,384.81207 C 426.41599,394.22079 427.1635,405.02682 428.9532,413.0382"
         id="path6228"
         sodipodi:nodetypes="cc" />
    </g>
  </g>
</svg>
