<?xml version="1.0" encoding="UTF-8" standalone="no"?>
<!-- Created with Inkscape (http://www.inkscape.org/) -->
<svg
   xmlns:dc="http://purl.org/dc/elements/1.1/"
   xmlns:cc="http://creativecommons.org/ns#"
   xmlns:rdf="http://www.w3.org/1999/02/22-rdf-syntax-ns#"
   xmlns:svg="http://www.w3.org/2000/svg"
   xmlns="http://www.w3.org/2000/svg"
   xmlns:sodipodi="http://sodipodi.sourceforge.net/DTD/sodipodi-0.dtd"
   xmlns:inkscape="http://www.inkscape.org/namespaces/inkscape"
   height="472"
   id="svg2"
   inkscape:version="0.46"
   sodipodi:docbase="C:\DOCUME~1\User\MYDOCU~1\MYPICT~1\CLIPAR~1"
   sodipodi:docname="elephant.svg"
   sodipodi:version="0.32"
   width="608"
   inkscape:output_extension="org.inkscape.output.svg.inkscape"
   version="1.0">
  <metadata
     id="metadata3">
    <rdf:RDF>
      <cc:Work
         rdf:about="">
        <dc:title>Elephant Outline</dc:title>
        <dc:description>Clip art for coloring book creation</dc:description>
        <dc:subject>
          <rdf:Bag>
            <rdf:li>mammal</rdf:li>
            <rdf:li>asia</rdf:li>
            <rdf:li>animal</rdf:li>
            <rdf:li>africa</rdf:li>
            <rdf:li>coloring</rdf:li>
          </rdf:Bag>
        </dc:subject>
        <dc:publisher>
          <cc:Agent
             rdf:about="http://www.openclipart.org/">
            <dc:title>Open Clip Art Library</dc:title>
          </cc:Agent>
        </dc:publisher>
        <dc:creator>
          <cc:Agent>
            <dc:title>Matthew Loewen</dc:title>
          </cc:Agent>
        </dc:creator>
        <dc:rights>
          <cc:Agent>
            <dc:title>Matthew Loewen</dc:title>
          </cc:Agent>
        </dc:rights>
        <dc:date />
        <dc:format>image/svg+xml</dc:format>
        <dc:type
           rdf:resource="http://purl.org/dc/dcmitype/StillImage" />
        <cc:license
           rdf:resource="http://web.resource.org/cc/PublicDomain" />
        <dc:language>en</dc:language>
      </cc:Work>
      <cc:License
         rdf:about="http://web.resource.org/cc/PublicDomain">
        <cc:permits
           rdf:resource="http://web.resource.org/cc/Reproduction" />
        <cc:permits
           rdf:resource="http://web.resource.org/cc/Distribution" />
        <cc:permits
           rdf:resource="http://web.resource.org/cc/DerivativeWorks" />
      </cc:License>
    </rdf:RDF>
  </metadata>
  <defs
     id="defs3">
    <inkscape:perspective
       sodipodi:type="inkscape:persp3d"
       inkscape:vp_x="0 : 236.93495 : 1"
       inkscape:vp_y="0 : 1000 : 0"
       inkscape:vp_z="640.54669 : 236.93495 : 1"
       inkscape:persp3d-origin="320.27335 : 157.95663 : 1"
       id="perspective8" />
  </defs>
  <sodipodi:namedview
     bordercolor="#666666"
     borderopacity="1.0"
     id="base"
     inkscape:current-layer="svg2"
     inkscape:cx="372.04725"
     inkscape:cy="283.55615"
     inkscape:document-units="px"
     inkscape:guide-bbox="true"
     inkscape:pageopacity="0.0"
     inkscape:pageshadow="2"
     inkscape:window-height="726"
     inkscape:window-width="1024"
     inkscape:window-x="406"
     inkscape:window-y="120"
     inkscape:zoom="0.51123084"
     pagecolor="#ffffff"
     showgrid="true"
     showguides="true">
    <sodipodi:guide
       id="guide9809"
       orientation="vertical"
       position="-528.13715" />
  </sodipodi:namedview>
  <path
     d="M 15.674334,303.51507 C 24.579048,256.03376 19.713998,207.19412 27.129254,159.66893 C 37.115797,111.78847 70.388804,67.736793 117.55867,52.654091 C 174.26295,25.859135 239.52274,16.485569 300.66033,32.039733 C 342.72339,39.801794 384.12202,51.758475 423.37449,68.970179 C 449.74302,47.397976 487.37392,27.134826 520.93771,44.399486 C 543.05457,76.189588 583.81554,93.368271 595.77141,132.15838 C 609.52584,163.40544 612.48278,199.95886 597.99622,231.54296 C 584.23527,272.28106 568.26195,314.04793 570.84945,357.87236 C 581.80141,377.26213 627.27657,407.72855 590.31348,425.06114 C 550.60913,434.06956 537.15692,386.13224 532.29224,355.87901 C 522.23091,313.53234 517.88739,269.81418 504.22383,228.35714 C 484.28372,244.71002 497.44974,280.63049 475.76477,298.67773 C 463.20667,320.27947 434.3798,311.34519 442.72896,285.19476 C 441.11555,246.90561 428.17298,210.39691 411.57097,176.37631 C 400.44982,140.38134 419.53617,96.592249 454.90814,82.965641 C 475.0317,85.203621 490.17149,100.82698 508.34968,108.21311 M 14.770346,302.60243 C 33.970174,271.80841 57.971084,239.78049 55.179718,201.2916 C 56.451176,188.72688 55.973174,139.34943 52.283855,174.64113 C 47.604486,205.33263 45.087132,241.4458 68.125253,265.76294 C 83.441532,285.41559 99.441201,321.20918 73.597073,339.11089 C 51.397009,356.12411 18.988077,358.00004 2.0947986,381.95169 C -7.8677507,413.79727 29.271393,443.02621 54.998309,455.45223 C 84.90651,453.17046 85.929822,403.04788 119.26693,398.82492 C 152.14274,378.64185 188.28651,363.61403 218.30193,338.89485 C 232.22864,310.91718 205.95176,286.63097 190.14225,266.52069 C 182.24938,255.22695 173.74467,244.41008 165.72952,233.19386 M 352.18751,212.70401 C 346.15883,246.14102 319.08955,268.92337 300.87741,295.69345 C 296.31824,327.20836 303.24989,359.58849 297.87318,390.82155 C 283.62049,411.97474 252.83437,442.66745 288.51171,462.01891 C 311.11006,485.91503 346.23332,469.68955 343.88321,437.39084 C 349.84897,403.76845 371.68379,377.53736 390.21385,350.27639 C 403.75906,329.68636 413.83472,307.19391 422.51994,284.16372 M 446.87825,310.81605 C 417.35525,313.10561 376.9698,342.87672 410.55929,370.35957 C 437.75656,393.15717 427.47431,443.94847 458.85713,458.38189 C 480.23426,462.12504 535.44553,454.02134 506.86131,424.71472 C 483.02673,398.8567 482.85485,365.134 481.8848,332.51154 C 474.94639,316.18175 479.25526,263.42459 503.8217,290.80842 C 509.82508,297.12349 515.17819,304.41558 522.88486,308.76984 M 188.3367,359.18524 C 174.30506,393.21331 211.17424,428.03003 192.1283,460.98705 C 170.2061,477.8558 128.41125,475.9689 117.07017,447.23648 C 113.0235,430.8182 121.61223,414.75443 122.20572,398.40647 M 219.70974,317.02465 C 243.66894,331.71545 271.30608,346.61783 300.30315,340.46358 M 569.46873,202.0929 C 598.98527,188.83589 554.15412,224.72723 569.21753,202.292 M 582.477,160.23278 C 578.19479,162.87631 573.91259,165.51983 569.63041,168.16337"
     id="path1342"
     style="fill:none;fill-opacity:1;fill-rule:evenodd;stroke:#000000;stroke-width:0.87462372px;stroke-linecap:butt;stroke-linejoin:miter;stroke-opacity:1" />
</svg>
