<?xml version="1.0" encoding="UTF-8" standalone="no"?>
<!-- Created with Inkscape (http://www.inkscape.org/) -->
<svg xmlns:dc="http://purl.org/dc/elements/1.1/" xmlns:cc="http://web.resource.org/cc/" xmlns:rdf="http://www.w3.org/1999/02/22-rdf-syntax-ns#" xmlns:svg="http://www.w3.org/2000/svg" xmlns="http://www.w3.org/2000/svg" xmlns:sodipodi="http://sodipodi.sourceforge.net/DTD/sodipodi-0.dtd" xmlns:inkscape="http://www.inkscape.org/namespaces/inkscape" width="639.13" height="441.59" id="svg9840" sodipodi:version="0.32" inkscape:version="0.45.1" version="1.0" sodipodi:docbase="E:\Images\Vector" sodipodi:docname="Fedora.svg" inkscape:output_extension="org.inkscape.output.svg.inkscape" inkscape:export-filename="E:\Images\Vector\Fedora.png" inkscape:export-xdpi="90.083565" inkscape:export-ydpi="90.083565">
  <defs id="defs9842"/>
  <sodipodi:namedview id="base" pagecolor="#ffffff" bordercolor="#666666" borderopacity="1.0" gridtolerance="10000" guidetolerance="10" objecttolerance="10" inkscape:pageopacity="0.0" inkscape:pageshadow="2" inkscape:zoom="0.7" inkscape:cx="610.58884" inkscape:cy="62.590289" inkscape:document-units="px" inkscape:current-layer="layer1" width="639.13px" height="441.59px" inkscape:window-width="1280" inkscape:window-height="998" inkscape:window-x="-4" inkscape:window-y="-4"/>
  <metadata id="metadata9845">
    <rdf:RDF>
      <cc:Work rdf:about="">
        <dc:format>image/svg+xml</dc:format>
        <dc:type rdf:resource="http://purl.org/dc/dcmitype/StillImage"/>
        <cc:license rdf:resource="http://web.resource.org/cc/PublicDomain"/>
      </cc:Work>
      <cc:License rdf:about="http://web.resource.org/cc/PublicDomain">
        <cc:permits rdf:resource="http://web.resource.org/cc/Reproduction"/>
        <cc:permits rdf:resource="http://web.resource.org/cc/Distribution"/>
        <cc:permits rdf:resource="http://web.resource.org/cc/DerivativeWorks"/>
      </cc:License>
    </rdf:RDF>
  </metadata>
  <g inkscape:label="Layer 1" inkscape:groupmode="layer" id="layer1" transform="translate(-38.2538, -179.345)">
    <g id="g9835" transform="matrix(5.50712, 0, 0, 5.50712, -1052, -2439.67)">
      <path style="font-size: 12px; fill: rgb(255, 255, 255); fill-opacity: 0.991667; fill-rule: evenodd; stroke: rgb(0, 0, 0); stroke-width: 2.37996; stroke-linejoin: round; stroke-dasharray: none;" sodipodi:nodetypes="cccccsc" id="path575" d="M 219.80889,506.70145 C 219.98225,505.92963 218.62562,517.11127 218.88563,514.68859 C 220.6047,505.19077 219.8831,494.8973 223.70929,485.86207 C 224.66272,483.86817 225.87619,482.60324 227.43635,482.68899 C 249.62535,483.37506 272.50778,460.39171 289.14952,511.50394 C 340.46162,535.51642 292.71741,554.81215 252.09563,553.09699 C 211.95581,551.4165 177.68445,522.48108 219.80889,506.70145 z "/>
      <path style="font-size: 12px; fill: rgb(255, 255, 255); fill-rule: evenodd; stroke: rgb(0, 0, 0); stroke-width: 1.18998;" sodipodi:nodetypes="ccccc" id="path576" d="M 218.76878,513.56216 C 244.42481,529.68483 286.7226,519.73679 288.45612,511.84699 C 290.88306,514.59127 288.45612,522.13805 288.45612,522.13805 C 277.36163,536.54554 223.62261,533.45821 217.72866,523.16715 C 217.03526,520.42286 218.42207,514.59127 218.76878,513.56216 z "/>
      <path style="font-size: 12px; fill: rgb(255, 255, 255); fill-opacity: 0.316667; fill-rule: evenodd; stroke: rgb(0, 0, 0); stroke-width: 0.447037pt;" sodipodi:nodetypes="ccccc" id="path590" d="M 223.82207,516.53199 C 227.98252,518.5902 239.91766,521.69162 244.77152,522.03465 C 248.23855,524.43591 246.50503,528.65571 245.11823,531.4 C 235.75723,531.4 225.00943,528.99876 222.23581,525.91143 C 220.50229,522.82412 222.08855,519.61929 223.82207,516.53199 z "/>
    </g>
  </g>
</svg>