<?xml version="1.0" encoding="UTF-8" standalone="no"?>
<!-- Created with Inkscape (http://www.inkscape.org/) -->
<svg
   xmlns:dc="http://purl.org/dc/elements/1.1/"
   xmlns:cc="http://creativecommons.org/ns#"
   xmlns:rdf="http://www.w3.org/1999/02/22-rdf-syntax-ns#"
   xmlns:svg="http://www.w3.org/2000/svg"
   xmlns="http://www.w3.org/2000/svg"
   xmlns:sodipodi="http://sodipodi.sourceforge.net/DTD/sodipodi-0.dtd"
   xmlns:inkscape="http://www.inkscape.org/namespaces/inkscape"
   width="800px"
   height="600px"
   id="svg3211"
   sodipodi:version="0.32"
   inkscape:version="0.46"
   sodipodi:docname="spirograph.svg"
   inkscape:output_extension="org.inkscape.output.svg.inkscape">
  <sodipodi:namedview
     id="base"
     pagecolor="#ffffff"
     bordercolor="#666666"
     borderopacity="1.0"
     inkscape:pageopacity="0.0"
     inkscape:pageshadow="2"
     inkscape:zoom="0.6"
     inkscape:cx="400"
     inkscape:cy="300"
     inkscape:current-layer="layer1"
     inkscape:document-units="px"
     showgrid="false"
     inkscape:window-width="642"
     inkscape:window-height="722"
     inkscape:window-x="-5"
     inkscape:window-y="25"
     showguides="true"
     inkscape:guide-bbox="true">
    <sodipodi:guide
       orientation="0,1"
       position="296.66667,300"
       id="guide3560" />
    <sodipodi:guide
       orientation="1,0"
       position="400,468.33333"
       id="guide3562" />
    <sodipodi:guide
       orientation="1,0"
       position="96.666667,240"
       id="guide3564" />
    <sodipodi:guide
       orientation="1,0"
       position="600,545"
       id="guide3566" />
    <sodipodi:guide
       orientation="0,1"
       position="-61.666667,551.66667"
       id="guide3568" />
    <sodipodi:guide
       orientation="0,1"
       position="-46.666667,50"
       id="guide3570" />
  </sodipodi:namedview>
  <defs
     id="defs3213">
    <inkscape:perspective
       sodipodi:type="inkscape:persp3d"
       inkscape:vp_x="0 : 300 : 1"
       inkscape:vp_y="0 : 1000 : 0"
       inkscape:vp_z="800 : 300 : 1"
       inkscape:persp3d-origin="400 : 200 : 1"
       id="perspective3219" />
  </defs>
  <metadata
     id="metadata3216">
    <rdf:RDF>
      <cc:Work
         rdf:about="">
        <dc:format>image/svg+xml</dc:format>
        <dc:type
           rdf:resource="http://purl.org/dc/dcmitype/StillImage" />
      </cc:Work>
    </rdf:RDF>
  </metadata>
  <g
     id="layer1"
     inkscape:label="Layer 1"
     inkscape:groupmode="layer">
    <path
       id="path3552"
       d="M 649.502,300 C 649.502,288.2425 641.79676,276.48166 627.11064,265.04707 C 612.42451,253.61248 590.77671,242.49921 564.19373,232.12694 C 537.61075,221.7547 506.12695,212.12318 472.66292,203.78362 C 439.19886,195.44404 403.79679,188.40214 369.68863,183.30075 C 335.58049,178.19937 302.80742,175.04941 274.27866,174.45924 C 245.7499,173.86911 221.49709,175.85219 203.55302,180.79623 C 185.60899,185.74026 173.98961,193.65721 169.49022,204.51973 C 164.99081,215.38223 167.60883,229.19649 176.80122,245.3808 C 185.99362,261.56515 201.74068,280.11672 222.33088,299.87231 C 242.92107,319.62789 268.32246,340.57458 296.0478,361.08545 C 323.77314,381.59634 353.78556,401.65001 383.34517,419.41569 C 412.90479,437.1814 441.97771,452.63327 468.10902,464.09601 C 494.24031,475.55871 517.40587,483.00775 535.87602,485.30694 C 554.34616,487.60613 568.11074,484.73835 576.42455,476.42455 C 584.73835,468.11074 587.60613,454.34616 585.30694,435.87602 C 583.00775,417.40587 575.55871,394.24031 564.09601,368.10902 C 552.63327,341.97771 537.1814,312.90479 519.41569,283.34517 C 501.65001,253.78556 481.59634,223.77314 461.08545,196.0478 C 440.57458,168.32246 419.62789,142.92107 399.87231,122.33088 C 380.11672,101.74068 361.56515,85.993616 345.3808,76.801228 C 329.19649,67.608828 315.38223,64.990808 304.51973,69.490226 C 293.65721,73.989618 285.74026,85.608996 280.79623,103.55303 C 275.85219,121.49709 273.86911,145.7499 274.45924,174.27866 C 275.04941,202.80742 278.19937,235.58049 283.30075,269.68863 C 288.40214,303.79679 295.44404,339.19886 303.78362,372.66292 C 312.12318,406.12695 321.7547,437.61075 332.12694,464.19373 C 342.49921,490.77671 353.61248,512.42451 365.04707,527.11064 C 376.48166,541.79676 388.2425,549.502 400,549.502 C 411.7575,549.502 423.51834,541.79676 434.95293,527.11064 C 446.38752,512.42451 457.50079,490.77671 467.87306,464.19373 C 478.2453,437.61075 487.87682,406.12695 496.21638,372.66292 C 504.55596,339.19886 511.59786,303.79679 516.69925,269.68863 C 521.80063,235.58049 524.95059,202.80742 525.54076,174.27866 C 526.13089,145.7499 524.14781,121.49709 519.20377,103.55303 C 514.25974,85.608996 506.34279,73.989618 495.48027,69.490226 C 484.61777,64.990808 470.80351,67.608828 454.6192,76.801228 C 438.43485,85.993616 419.88328,101.74068 400.12769,122.33088 C 380.37211,142.92107 359.42542,168.32246 338.91455,196.0478 C 318.40366,223.77314 298.34999,253.78556 280.58431,283.34517 C 262.8186,312.90479 247.36673,341.97771 235.90399,368.10902 C 224.44129,394.24031 216.99225,417.40587 214.69306,435.87602 C 212.39387,454.34616 215.26165,468.11074 223.57545,476.42455 C 231.88926,484.73835 245.65384,487.60613 264.12398,485.30694 C 282.59413,483.00775 305.75969,475.55871 331.89098,464.09601 C 358.02229,452.63327 387.09521,437.1814 416.65483,419.41569 C 446.21444,401.65001 476.22686,381.59634 503.9522,361.08545 C 531.67754,340.57458 557.07893,319.62789 577.66912,299.87231 C 598.25932,280.11672 614.00638,261.56515 623.19878,245.3808 C 632.39117,229.19649 635.00919,215.38223 630.50978,204.51973 C 626.01039,193.65721 614.39101,185.74026 596.44698,180.79623 C 578.50291,175.85219 554.2501,173.86911 525.72134,174.45924 C 497.19258,175.04941 464.41951,178.19937 430.31137,183.30075 C 396.20321,188.40214 360.80114,195.44404 327.33708,203.78362 C 293.87305,212.12318 262.38925,221.7547 235.80627,232.12694 C 209.22329,242.49921 187.57549,253.61248 172.88936,265.04707 C 158.20324,276.48166 150.498,288.2425 150.498,300 C 150.498,311.7575 158.20324,323.51834 172.88936,334.95293 C 187.57549,346.38752 209.22329,357.50079 235.80627,367.87306 C 262.38925,378.2453 293.87305,387.87682 327.33708,396.21638 C 360.80114,404.55596 396.20321,411.59786 430.31137,416.69925 C 464.41951,421.80063 497.19258,424.95059 525.72134,425.54076 C 554.2501,426.13089 578.50291,424.14781 596.44698,419.20377 C 614.39101,414.25974 626.01039,406.34279 630.50978,395.48027 C 635.00919,384.61777 632.39117,370.80351 623.19878,354.6192 C 614.00638,338.43485 598.25932,319.88328 577.66912,300.12769 C 557.07893,280.37211 531.67754,259.42542 503.9522,238.91455 C 476.22686,218.40366 446.21444,198.34999 416.65483,180.58431 C 387.09521,162.8186 358.02229,147.36673 331.89098,135.90399 C 305.75969,124.44129 282.59413,116.99225 264.12398,114.69306 C 245.65384,112.39387 231.88926,115.26165 223.57545,123.57545 C 215.26165,131.88926 212.39387,145.65384 214.69306,164.12398 C 216.99225,182.59413 224.44129,205.75969 235.90399,231.89098 C 247.36673,258.02229 262.8186,287.09521 280.58431,316.65483 C 298.34999,346.21444 318.40366,376.22686 338.91455,403.9522 C 359.42542,431.67754 380.37211,457.07893 400.12769,477.66912 C 419.88328,498.25932 438.43485,514.00638 454.6192,523.19878 C 470.80351,532.39117 484.61777,535.00919 495.48027,530.50978 C 506.34279,526.01039 514.25974,514.39101 519.20377,496.44698 C 524.14781,478.50291 526.13089,454.2501 525.54076,425.72134 C 524.95059,397.19258 521.80063,364.41951 516.69925,330.31137 C 511.59786,296.20321 504.55596,260.80114 496.21638,227.33708 C 487.87682,193.87305 478.2453,162.38925 467.87306,135.80627 C 457.50079,109.22329 446.38752,87.575488 434.95293,72.889354 C 423.51834,58.203234 411.7575,50.498004 400,50.498004 C 388.2425,50.498004 376.48166,58.203234 365.04707,72.889354 C 353.61248,87.575488 342.49921,109.22329 332.12694,135.80627 C 321.7547,162.38925 312.12318,193.87305 303.78362,227.33708 C 295.44404,260.80114 288.40214,296.20321 283.30075,330.31137 C 278.19937,364.41951 275.04941,397.19258 274.45924,425.72134 C 273.86911,454.2501 275.85219,478.50291 280.79623,496.44698 C 285.74026,514.39101 293.65721,526.01039 304.51973,530.50978 C 315.38223,535.00919 329.19649,532.39117 345.3808,523.19878 C 361.56515,514.00638 380.11672,498.25932 399.87231,477.66912 C 419.62789,457.07893 440.57458,431.67754 461.08545,403.9522 C 481.59634,376.22686 501.65001,346.21444 519.41569,316.65483 C 537.1814,287.09521 552.63327,258.02229 564.09601,231.89098 C 575.55871,205.75969 583.00775,182.59413 585.30694,164.12398 C 587.60613,145.65384 584.73835,131.88926 576.42455,123.57545 C 568.11074,115.26165 554.34616,112.39387 535.87602,114.69306 C 517.40587,116.99225 494.24031,124.44129 468.10902,135.90399 C 441.97771,147.36673 412.90479,162.8186 383.34517,180.58431 C 353.78556,198.34999 323.77314,218.40366 296.0478,238.91455 C 268.32246,259.42542 242.92107,280.37211 222.33088,300.12769 C 201.74068,319.88328 185.99362,338.43485 176.80122,354.6192 C 167.60883,370.80351 164.99081,384.61777 169.49022,395.48027 C 173.98961,406.34279 185.60899,414.25974 203.55302,419.20377 C 221.49709,424.14781 245.7499,426.13089 274.27866,425.54076 C 302.80742,424.95059 335.58049,421.80063 369.68863,416.69925 C 403.79679,411.59786 439.19886,404.55596 472.66292,396.21638 C 506.12695,387.87682 537.61075,378.2453 564.19373,367.87306 C 590.77671,357.50079 612.42451,346.38752 627.11064,334.95293 C 641.79676,323.51834 649.502,311.7575 649.502,300 z"
       style="fill:none;stroke:#000000;stroke-width:1.99601579" />
  </g>
</svg>
