<?xml version="1.0" encoding="UTF-8" standalone="no"?>
<!-- Created with Inkscape (http://www.inkscape.org/) -->

<svg
   xmlns:dc="http://purl.org/dc/elements/1.1/"
   xmlns:cc="http://creativecommons.org/ns#"
   xmlns:rdf="http://www.w3.org/1999/02/22-rdf-syntax-ns#"
   xmlns:svg="http://www.w3.org/2000/svg"
   xmlns="http://www.w3.org/2000/svg"
   xmlns:xlink="http://www.w3.org/1999/xlink"
   xmlns:sodipodi="http://sodipodi.sourceforge.net/DTD/sodipodi-0.dtd"
   xmlns:inkscape="http://www.inkscape.org/namespaces/inkscape"
   width="161.97687"
   height="527.5271"
   id="svg5191"
   version="1.1"
   inkscape:version="0.48.4 r9939"
   sodipodi:docname="Nou document 27">
  <defs
     id="defs5193">
    <filter
       id="filter4498"
       height="1.1293"
       width="2.6629"
       color-interpolation-filters="sRGB"
       y="-0.064667001"
       x="-0.83143002"
       inkscape:collect="always">
      <feGaussianBlur
         id="feGaussianBlur4500"
         stdDeviation="24.25"
         inkscape:collect="always" />
    </filter>
    <radialGradient
       id="radialGradient4407"
       xlink:href="#linearGradient4454"
       gradientUnits="userSpaceOnUse"
       cy="677.35999"
       cx="477.5"
       gradientTransform="matrix(0.5,0,0,0.5,-42.240006,-44.194588)"
       r="8"
       inkscape:collect="always" />
    <linearGradient
       id="linearGradient4454"
       inkscape:collect="always">
      <stop
         id="stop4456"
         style="stop-color:#ffffff"
         offset="0" />
      <stop
         id="stop4462"
         style="stop-color:#ffffff"
         offset=".70703" />
      <stop
         id="stop4458"
         style="stop-color:#666666"
         offset="1" />
    </linearGradient>
    <radialGradient
       id="radialGradient4460"
       xlink:href="#linearGradient4454"
       gradientUnits="userSpaceOnUse"
       cy="677.35999"
       cx="477.5"
       r="8"
       inkscape:collect="always" />
    <radialGradient
       id="radialGradient4943"
       xlink:href="#linearGradient4454"
       gradientUnits="userSpaceOnUse"
       cy="677.35999"
       cx="477.5"
       r="8"
       inkscape:collect="always" />
    <linearGradient
       id="linearGradient4376"
       y2="694.88"
       xlink:href="#linearGradient4021"
       gradientUnits="userSpaceOnUse"
       x2="195"
       gradientTransform="matrix(-0.5,0,0,0.5,254.99999,231.73141)"
       y1="694.88"
       x1="190"
       inkscape:collect="always" />
    <linearGradient
       id="linearGradient4021"
       inkscape:collect="always">
      <stop
         id="stop4023"
         style="stop-color:#989477"
         offset="0" />
      <stop
         id="stop4029"
         style="stop-color:#625e4a"
         offset=".15860" />
      <stop
         id="stop4031"
         style="stop-color:#625e4a"
         offset=".42377" />
      <stop
         id="stop4035"
         style="stop-color:#9f9b83"
         offset=".74702" />
      <stop
         id="stop4033"
         style="stop-color:#938f73"
         offset=".95157" />
      <stop
         id="stop4025"
         style="stop-color:#625e4a"
         offset="1" />
    </linearGradient>
    <linearGradient
       id="linearGradient4373"
       y2="652.88"
       xlink:href="#linearGradient4021"
       gradientUnits="userSpaceOnUse"
       x2="175"
       gradientTransform="matrix(-0.5,0,0,0.5,254.99999,231.73141)"
       y1="652.88"
       x1="170"
       inkscape:collect="always" />
    <linearGradient
       id="linearGradient4371"
       y2="618.38"
       xlink:href="#linearGradient4021"
       gradientUnits="userSpaceOnUse"
       x2="155"
       gradientTransform="matrix(-0.5,0,0,0.5,254.99999,231.73141)"
       y1="618.38"
       x1="150"
       inkscape:collect="always" />
    <linearGradient
       id="linearGradient4369"
       y2="590.38"
       xlink:href="#linearGradient4021"
       gradientUnits="userSpaceOnUse"
       x2="135"
       gradientTransform="matrix(-0.5,0,0,0.5,254.99999,231.73141)"
       y1="590.38"
       x1="130"
       inkscape:collect="always" />
    <linearGradient
       id="linearGradient4350"
       y2="694.88"
       xlink:href="#linearGradient4021"
       gradientUnits="userSpaceOnUse"
       x2="195"
       gradientTransform="matrix(0.5,0,0,0.5,185,231.73141)"
       y1="694.88"
       x1="190"
       inkscape:collect="always" />
    <linearGradient
       id="linearGradient4342"
       y2="652.88"
       xlink:href="#linearGradient4021"
       gradientUnits="userSpaceOnUse"
       x2="175"
       gradientTransform="matrix(0.5,0,0,0.5,185,231.73141)"
       y1="652.88"
       x1="170"
       inkscape:collect="always" />
    <linearGradient
       id="linearGradient4334"
       y2="618.38"
       xlink:href="#linearGradient4021"
       gradientUnits="userSpaceOnUse"
       x2="155"
       gradientTransform="matrix(0.5,0,0,0.5,185,231.73141)"
       y1="618.38"
       x1="150"
       inkscape:collect="always" />
    <linearGradient
       id="linearGradient4326"
       y2="590.38"
       xlink:href="#linearGradient4021"
       gradientUnits="userSpaceOnUse"
       x2="135"
       gradientTransform="matrix(0.5,0,0,0.5,185,231.73141)"
       y1="590.38"
       x1="130"
       inkscape:collect="always" />
    <linearGradient
       id="linearGradient4221"
       y2="392.38"
       xlink:href="#linearGradient4021"
       gradientUnits="userSpaceOnUse"
       x2="120"
       gradientTransform="matrix(0.5,0,0,0.12489,185,227.65141)"
       y1="392.38"
       x1="20"
       inkscape:collect="always" />
    <linearGradient
       id="linearGradient4214"
       y2="607.35999"
       xlink:href="#linearGradient4261"
       gradientUnits="userSpaceOnUse"
       x2="0"
       gradientTransform="matrix(-0.5,0,0,0.5,252.49999,231.73141)"
       y1="772.35999"
       x1="-90"
       inkscape:collect="always" />
    <linearGradient
       id="linearGradient4261"
       inkscape:collect="always">
      <stop
         id="stop4263"
         style="stop-color:#313833"
         offset="0" />
      <stop
         id="stop4265"
         style="stop-color:#728277"
         offset="0.7" />
      <stop
         id="stop4267"
         style="stop-color:#728277"
         offset="1" />
    </linearGradient>
    <linearGradient
       id="linearGradient4238"
       y2="392.38"
       xlink:href="#linearGradient4021"
       gradientUnits="userSpaceOnUse"
       x2="120"
       gradientTransform="matrix(0.5,0,0,0.12489,185,343.91141)"
       y1="392.38"
       x1="20"
       inkscape:collect="always" />
    <linearGradient
       id="linearGradient4234"
       y2="392.38"
       xlink:href="#linearGradient4021"
       gradientUnits="userSpaceOnUse"
       x2="120"
       gradientTransform="matrix(0.5,0,0,0.12489,185,356.41141)"
       y1="392.38"
       x1="20"
       inkscape:collect="always" />
    <linearGradient
       id="linearGradient3416"
       y2="392.38"
       xlink:href="#linearGradient4021"
       gradientUnits="userSpaceOnUse"
       x2="120"
       gradientTransform="matrix(0.5,0,0,0.12489,185,607.66141)"
       y1="392.38"
       x1="20"
       inkscape:collect="always" />
    <linearGradient
       id="linearGradient4027"
       y2="392.38"
       xlink:href="#linearGradient4021"
       gradientUnits="userSpaceOnUse"
       x2="120"
       gradientTransform="matrix(0.5,0,0,0.12489,185,367.66141)"
       y1="392.38"
       x1="20"
       inkscape:collect="always" />
    <linearGradient
       id="linearGradient4013"
       y2="523.13"
       xlink:href="#linearGradient3970"
       gradientUnits="userSpaceOnUse"
       x2="120"
       gradientTransform="matrix(0.5,0,0,0.5,185,231.73141)"
       y1="523.13"
       x1="20"
       inkscape:collect="always" />
    <linearGradient
       id="linearGradient3970">
      <stop
         id="stop3972"
         style="stop-color:#1c1a17"
         offset="0" />
      <stop
         id="stop3974"
         style="stop-color:#71695c"
         offset=".55130" />
      <stop
         id="stop3976"
         style="stop-color:#5f5a4e"
         offset="0.9" />
      <stop
         id="stop3978"
         style="stop-color:#38342e"
         offset="1" />
    </linearGradient>
    <linearGradient
       id="linearGradient4210"
       y2="607.35999"
       xlink:href="#linearGradient4261"
       gradientUnits="userSpaceOnUse"
       x2="0"
       gradientTransform="matrix(0.5,0,0,0.5,187.5,231.73141)"
       y1="772.35999"
       x1="-90"
       inkscape:collect="always" />
    <radialGradient
       r="8"
       cy="677.35999"
       cx="477.5"
       gradientUnits="userSpaceOnUse"
       id="radialGradient5189"
       xlink:href="#linearGradient4454"
       inkscape:collect="always" />
  </defs>
  <sodipodi:namedview
     id="base"
     pagecolor="#ffffff"
     bordercolor="#666666"
     borderopacity="1.0"
     inkscape:pageopacity="0.0"
     inkscape:pageshadow="2"
     inkscape:zoom="0.35"
     inkscape:cx="235.98843"
     inkscape:cy="172.33498"
     inkscape:document-units="px"
     inkscape:current-layer="capa1"
     showgrid="false"
     fit-margin-top="0"
     fit-margin-left="0"
     fit-margin-right="0"
     fit-margin-bottom="0"
     inkscape:window-width="555"
     inkscape:window-height="425"
     inkscape:window-x="753"
     inkscape:window-y="122"
     inkscape:window-maximized="0" />
  <metadata
     id="metadata5196">
    <rdf:RDF>
      <cc:Work
         rdf:about="">
        <dc:format>image/svg+xml</dc:format>
        <dc:type
           rdf:resource="http://purl.org/dc/dcmitype/StillImage" />
        <dc:title></dc:title>
      </cc:Work>
    </rdf:RDF>
  </metadata>
  <g
     inkscape:label="Capa 1"
     inkscape:groupmode="layer"
     id="capa1"
     transform="translate(-139.01157,-182.88435)">
    <path
       id="path4502"
       style="fill:#000000"
       d="m 210.15,372.91141 c 15.481,111.68 18.448,224.83 14.417,337.5 0,-1e-5 0,-2e-5 -1e-5,-3e-5 -1.5779,-10.107 -3.2855,-20.22 -6.0519,-30.068 -1.0276,-3.6583 -2.2003,-7.2894 -3.814,-10.73 -1.1544,-2.461 -2.5153,-4.9011 -4.5514,-6.7021 z"
       sodipodi:nodetypes="cccc"
       inkscape:connector-curvature="0"
       inkscape:original-d="m 379.81202,479.87229 c 12.50757,90.2284 19.46003,196.52072 14.41732,337.50002 -3.54608,-22.714 -7.7866,-41.63489 -14.41732,-47.50002 z" />
    <path
       id="path3410"
       style="fill:url(#linearGradient4210)"
       d="m 197.5,372.91141 c -23.807,47.164 -41.091,97.68 -50.216,149.72 -10.853,61.897 -10.401,125.47 -2.2843,187.78 6.1614,-10.838 13.123,-21.353 22.038,-30.068 8.4702,-8.2806 18.952,-14.636 30.462,-17.432 z"
       sodipodi:nodetypes="cccc"
       inkscape:connector-curvature="0"
       inkscape:original-d="m 367.16215,479.87229 c -45.54571,90.2284 -70.86279,196.52072 -52.5,337.50002 12.9129,-22.714 28.35453,-41.63489 52.5,-47.50002 z" />
    <path
       id="path3970"
       sodipodi:nodetypes="cscccccc"
       style="fill:url(#linearGradient4013)"
       inkscape:connector-curvature="0"
       d="m 220,182.91141 c 0,0 -25,52.5 -25,92.5 v 387.51 l 5,7.4936 h 39.99999 l 5,-7.4936 v -387.51 c 0,-40 -24.99999,-92.5 -24.99999,-92.5 z" />
    <path
       id="path3983"
       style="fill:url(#linearGradient4027)"
       inkscape:connector-curvature="0"
       d="m 195,412.92141 v 7.4936 h 49.99999 v -7.4936 H 195 z" />
    <path
       id="path3414"
       d="m 195,652.92141 v 7.4936 h 49.99999 v -7.4936 H 195 z"
       style="fill:url(#linearGradient3416)"
       inkscape:connector-curvature="0" />
    <path
       id="path4231"
       d="m 195,401.67141 v 7.4936 h 49.99999 v -7.4936 H 195 z"
       style="fill:url(#linearGradient4234)"
       inkscape:connector-curvature="0" />
    <path
       id="path4236"
       style="fill:url(#linearGradient4238)"
       inkscape:connector-curvature="0"
       d="m 195,389.17141 v 7.4936 h 49.99999 v -7.4936 H 195 z" />
    <path
       id="path4212"
       style="fill:url(#linearGradient4214)"
       d="m 242.49999,372.91141 c 23.807,47.164 41.091,97.68 50.216,149.72 0,1e-5 1e-5,3e-5 1e-5,4e-5 10.853,61.896 10.401,125.47 2.2843,187.78 -10e-6,-10e-6 -10e-6,-2e-5 -2e-5,-3e-5 -6.1614,-10.838 -13.123,-21.353 -22.038,-30.068 -8.4702,-8.2806 -18.952,-14.636 -30.462,-17.432 z"
       sodipodi:nodetypes="cccc"
       inkscape:connector-curvature="0"
       inkscape:original-d="m 412.16215,479.87229 c 45.54572,90.2284 70.86279,196.52072 52.5,337.50002 -12.91289,-22.714 -28.35453,-41.63489 -52.5,-47.50002 z" />
    <path
       id="path4219"
       d="m 195,272.91141 v 7.4936 h 49.99999 v -7.4936 H 195 z"
       style="fill:url(#linearGradient4221)"
       inkscape:connector-curvature="0" />
    <path
       id="path4223"
       style="fill:#333333"
       inkscape:connector-curvature="0"
       d="m 202.5,670.42141 2.5,5 h 2.5 l 2.5,5 h 20 l 2.5,-5 h 2.5 l 2.5,-5 h -35 z" />
    <path
       id="path4241"
       style="fill:#000000"
       inkscape:connector-curvature="0"
       d="m 203.13,670.42141 1.6562,4.5625 0.21875,0.4375 h 2.0625 l -1.8125,-5 h -2.125 z m 3.875,0 2.3125,8.6094 0.6875,1.3906 h 1.7344 l -2.6719,-10 h -2.0625 z m 4.0156,0 1.7656,10 h 2.0312 l -1.7656,-10 h -2.0312 z m 4,0 0.875,10 h 2 l -0.875,-10 h -2 z m 3.9844,0 v 10 h 2 v -10 h -2 z m 3.9844,0 -0.875,10 h 2 l 0.875,-10 h -2 z m 3.9688,0 -1.7656,10 h 2.0312 l 1.7656,-10 h -2.0312 z m 3.9844,0 -2.6719,10 h 1.7344 l 0.6875,-1.3906 2.3125,-8.6094 h -2.0625 z m 3.8125,0 -1.8125,5 h 2.0625 l 0.21875,-0.4375 1.6562,-4.5625 h -2.125 z" />
    <path
       id="path4268"
       style="fill:url(#linearGradient4326)"
       inkscape:connector-curvature="0"
       d="m 250.99999,387.42141 -0.5,0.5 h -0.5 v 278.5 h 2.5 v -278.5 h -0.5 l -0.5,-0.5 h -0.5 z" />
    <path
       id="path4272"
       style="fill:url(#linearGradient4334)"
       inkscape:connector-curvature="0"
       d="m 260.99999,409.92141 -0.5,0.5 h -0.5 v 261.5 h 2.5 v -261.5 h -0.5 l -0.5,-0.5 h -0.5 z" />
    <path
       id="path4276"
       style="fill:url(#linearGradient4342)"
       inkscape:connector-curvature="0"
       d="m 270.99999,435.92141 -0.5,0.5 h -0.5 v 244 h 2.5 v -244 h -0.5 l -0.5,-0.5 h -0.5 z" />
    <path
       id="path4280"
       style="fill:url(#linearGradient4350)"
       inkscape:connector-curvature="0"
       d="m 280.99999,466.92141 -0.5,0.5 h -0.5 v 224 h 2.5 v -224 h -0.5 l -0.5,-0.5 h -0.5 z" />
    <path
       id="path4361"
       style="fill:url(#linearGradient4369)"
       inkscape:connector-curvature="0"
       d="m 189,387.42141 0.5,0.5 h 0.5 v 278.5 h -2.5 v -278.5 h 0.5 l 0.5,-0.5 h 0.5 z" />
    <path
       id="path4363"
       style="fill:url(#linearGradient4371)"
       inkscape:connector-curvature="0"
       d="m 179,409.92141 0.5,0.5 h 0.5 v 261.5 h -2.5 v -261.5 h 0.5 l 0.5,-0.5 h 0.5 z" />
    <path
       id="path4365"
       style="fill:url(#linearGradient4373)"
       inkscape:connector-curvature="0"
       d="m 169,435.92141 0.5,0.5 h 0.5 v 244 h -2.5 v -244 h 0.5 l 0.5,-0.5 h 0.5 z" />
    <path
       id="path4367"
       style="fill:url(#linearGradient4376)"
       inkscape:connector-curvature="0"
       d="m 159,466.92141 0.5,0.5 h 0.5 v 224 h -2.5 v -224 h 0.5 l 0.5,-0.5 h 0.5 z" />
    <path
       id="path4378"
       sodipodi:rx="7.5"
       sodipodi:ry="7.5"
       style="fill:#4d4d4d"
       sodipodi:type="arc"
       d="m 485,677.36218 c 0,4.14214 -3.35786,7.5 -7.5,7.5 -4.14214,0 -7.5,-3.35786 -7.5,-7.5 0,-4.14213 3.35786,-7.5 7.5,-7.5 4.14214,0 7.5,3.35787 7.5,7.5 z"
       transform="matrix(0.59999999,0,0,0.59999999,-47.490006,-111.93069)"
       sodipodi:cy="677.36218"
       sodipodi:cx="477.5" />
    <path
       id="path4380"
       sodipodi:rx="7.5"
       sodipodi:ry="7.5"
       style="fill:url(#radialGradient5189)"
       sodipodi:type="arc"
       d="m 485,677.36218 c 0,4.14214 -3.35786,7.5 -7.5,7.5 -4.14214,0 -7.5,-3.35786 -7.5,-7.5 0,-4.14213 3.35786,-7.5 7.5,-7.5 4.14214,0 7.5,3.35787 7.5,7.5 z"
       transform="matrix(0.49999999,0,0,0.49999999,0.25999435,-44.194588)"
       sodipodi:cy="677.36218"
       sodipodi:cx="477.5" />
    <path
       id="path4386"
       sodipodi:rx="7.5"
       sodipodi:ry="7.5"
       style="fill:#4d4d4d"
       sodipodi:type="arc"
       d="m 485,677.36218 c 0,4.14214 -3.35786,7.5 -7.5,7.5 -4.14214,0 -7.5,-3.35786 -7.5,-7.5 0,-4.14213 3.35786,-7.5 7.5,-7.5 4.14214,0 7.5,3.35787 7.5,7.5 z"
       transform="matrix(0.59999999,0,0,0.59999999,-61.650006,-111.93069)"
       sodipodi:cy="677.36218"
       sodipodi:cx="477.5" />
    <path
       id="path4388"
       sodipodi:rx="7.5"
       sodipodi:ry="7.5"
       style="fill:url(#radialGradient4460)"
       sodipodi:type="arc"
       d="m 485,677.36218 c 0,4.14214 -3.35786,7.5 -7.5,7.5 -4.14214,0 -7.5,-3.35786 -7.5,-7.5 0,-4.14213 3.35786,-7.5 7.5,-7.5 4.14214,0 7.5,3.35787 7.5,7.5 z"
       transform="matrix(0.49999999,0,0,0.49999999,-13.900006,-44.194588)"
       sodipodi:cy="677.36218"
       sodipodi:cx="477.5" />
    <path
       id="path4392"
       sodipodi:rx="7.5"
       sodipodi:ry="7.5"
       style="fill:#4d4d4d"
       sodipodi:type="arc"
       d="m 485,677.36218 c 0,4.14214 -3.35786,7.5 -7.5,7.5 -4.14214,0 -7.5,-3.35786 -7.5,-7.5 0,-4.14213 3.35786,-7.5 7.5,-7.5 4.14214,0 7.5,3.35787 7.5,7.5 z"
       transform="matrix(0.59999999,0,0,0.59999999,-75.819006,-111.93069)"
       sodipodi:cy="677.36218"
       sodipodi:cx="477.5" />
    <path
       id="path4394"
       sodipodi:rx="7.5"
       sodipodi:ry="7.5"
       style="fill:#808080"
       sodipodi:type="arc"
       d="m 485,677.36218 c 0,4.14214 -3.35786,7.5 -7.5,7.5 -4.14214,0 -7.5,-3.35786 -7.5,-7.5 0,-4.14213 3.35786,-7.5 7.5,-7.5 4.14214,0 7.5,3.35787 7.5,7.5 z"
       transform="matrix(0.49999999,0,0,0.49999999,-28.070006,-44.194588)"
       sodipodi:cy="677.36218"
       sodipodi:cx="477.5" />
    <path
       id="path4398"
       style="fill:#4d4d4d"
       inkscape:connector-curvature="0"
       d="m 196.51,289.99141 c -0.53206,0 -1.0418,0.0961 -1.5156,0.26562 v 8.4688 c 0.47316,0.16903 0.98438,0.26563 1.5156,0.26563 2.4853,0 4.5,-2.0147 4.5,-4.5 0,-2.4853 -2.0147,-4.5 -4.5,-4.5 z" />
    <path
       id="path4400"
       style="fill:url(#radialGradient4407)"
       inkscape:connector-curvature="0"
       d="m 196.51,290.74141 c -0.54265,0 -1.05,0.12075 -1.5156,0.32812 v 6.8438 c 0.46566,0.20738 0.97298,0.32813 1.5156,0.32813 2.0711,0 3.75,-1.6789 3.75,-3.75 0,-2.0711 -1.6789,-3.75 -3.75,-3.75 z" />
    <path
       id="path4460"
       sodipodi:rx="35"
       sodipodi:ry="450"
       style="opacity:0.35;fill:#ffffff;filter:url(#filter4498)"
       sodipodi:type="arc"
       d="m 220,528.14587 c 0,248.52814 -15.67003,450 -35,450 -19.32997,0 -35,-201.47186 -35,-450 0,-248.52813 15.67003,-449.999996 35,-449.999996 19.32997,0 35,201.471866 35,449.999996 z"
       transform="matrix(0.49999999,0,0,0.49999999,126.51,172.91141)"
       sodipodi:cy="528.14587"
       sodipodi:cx="185" />
  </g>
</svg>
