<?xml version="1.0" encoding="UTF-8" standalone="no"?>
<!-- Created with Inkscape (http://www.inkscape.org/) -->

<svg
   xmlns:dc="http://purl.org/dc/elements/1.1/"
   xmlns:cc="http://creativecommons.org/ns#"
   xmlns:rdf="http://www.w3.org/1999/02/22-rdf-syntax-ns#"
   xmlns:svg="http://www.w3.org/2000/svg"
   xmlns="http://www.w3.org/2000/svg"
   xmlns:xlink="http://www.w3.org/1999/xlink"
   xmlns:sodipodi="http://sodipodi.sourceforge.net/DTD/sodipodi-0.dtd"
   xmlns:inkscape="http://www.inkscape.org/namespaces/inkscape"
   width="113.34981"
   height="275.095"
   id="svg4352"
   version="1.1"
   inkscape:version="0.48.4 r9939"
   sodipodi:docname="Nou document 21">
  <defs
     id="defs4354">
    <filter
       id="filter4324"
       height="1.1482"
       width="1.631"
       color-interpolation-filters="sRGB"
       y="-0.074091002"
       x="-0.31547999"
       inkscape:collect="always">
      <feGaussianBlur
         id="feGaussianBlur4326"
         stdDeviation="4.1163716"
         inkscape:collect="always" />
    </filter>
    <filter
       id="filter4234"
       height="1.0648"
       width="1.8112"
       color-interpolation-filters="sRGB"
       y="-0.032396"
       x="-0.40560001"
       inkscape:collect="always">
      <feGaussianBlur
         id="feGaussianBlur4236"
         stdDeviation="2.4202904"
         inkscape:collect="always" />
    </filter>
    <filter
       id="filter4202"
       height="1.0651"
       width="1.7692"
       color-interpolation-filters="sRGB"
       y="-0.032538"
       x="-0.38460001"
       inkscape:collect="always">
      <feGaussianBlur
         id="feGaussianBlur4204"
         stdDeviation="2.4000795"
         inkscape:collect="always" />
    </filter>
    <filter
       id="filter4128"
       height="1.0721999"
       width="1.3559999"
       color-interpolation-filters="sRGB"
       y="-0.036081001"
       x="-0.178"
       inkscape:collect="always">
      <feGaussianBlur
         id="feGaussianBlur4130"
         stdDeviation="2.225"
         inkscape:collect="always" />
    </filter>
    <filter
       id="filter3891"
       height="1.0603"
       width="1.2349"
       color-interpolation-filters="sRGB"
       y="-0.030161999"
       x="-0.11747"
       inkscape:collect="always">
      <feGaussianBlur
         id="feGaussianBlur3893"
         stdDeviation="0.93"
         inkscape:collect="always" />
    </filter>
    <linearGradient
       id="linearGradient4138"
       y2="780.42999"
       xlink:href="#linearGradient3915"
       spreadMethod="reflect"
       gradientUnits="userSpaceOnUse"
       x2="261.94"
       gradientTransform="matrix(0.49853,0.038319,-0.038319,0.49853,158.69781,264.94468)"
       y1="780.58002"
       x1="260.01999"
       inkscape:collect="always" />
    <linearGradient
       id="linearGradient3915"
       inkscape:collect="always">
      <stop
         id="stop3917"
         style="stop-color:#000000"
         offset="0" />
      <stop
         id="stop3919"
         style="stop-color:#4d4d4d"
         offset="1" />
    </linearGradient>
    <linearGradient
       id="linearGradient4136"
       y2="774.03003"
       gradientUnits="userSpaceOnUse"
       x2="271.07001"
       gradientTransform="matrix(0.49853,0.038319,-0.038319,0.49853,158.69781,264.94468)"
       y1="776.94"
       x1="251.82001"
       inkscape:collect="always">
      <stop
         id="stop4264"
         style="stop-color:#ffffff;stop-opacity:.349"
         offset="0" />
      <stop
         id="stop4266"
         style="stop-color:#c1c1c1"
         offset=".42263" />
      <stop
         id="stop4268"
         style="stop-color:#ffffff;stop-opacity:.349"
         offset="1" />
    </linearGradient>
    <linearGradient
       id="linearGradient4134"
       y2="679.16998"
       xlink:href="#linearGradient4020"
       gradientUnits="userSpaceOnUse"
       x2="267.53"
       gradientTransform="matrix(0.49853,0.038319,-0.038319,0.49853,158.69781,264.94468)"
       y1="682.20001"
       x1="238.14"
       inkscape:collect="always" />
    <linearGradient
       id="linearGradient4020"
       inkscape:collect="always">
      <stop
         id="stop4022"
         style="stop-color:#ffbe12"
         offset="0" />
      <stop
         id="stop4028"
         style="stop-color:#ffe191"
         offset=".28422" />
      <stop
         id="stop4030"
         style="stop-color:#ffe191"
         offset=".74263" />
      <stop
         id="stop4024"
         style="stop-color:#ffca3c"
         offset="1" />
    </linearGradient>
    <linearGradient
       id="linearGradient4132"
       y2="778.62"
       xlink:href="#linearGradient3915"
       spreadMethod="reflect"
       gradientUnits="userSpaceOnUse"
       x2="458.07001"
       gradientTransform="matrix(0.49859,-0.037516,0.037516,0.49859,100.47781,292.07468)"
       y1="778.48999"
       x1="456.39999"
       inkscape:collect="always" />
    <linearGradient
       id="linearGradient4130"
       y2="778.95001"
       gradientUnits="userSpaceOnUse"
       x2="467.03"
       gradientTransform="matrix(0.49859,-0.037516,0.037516,0.49859,100.47781,292.07468)"
       y1="776.92999"
       x1="448.44"
       inkscape:collect="always">
      <stop
         id="stop4280"
         style="stop-color:#ffffff;stop-opacity:.349"
         offset="0" />
      <stop
         id="stop4282"
         style="stop-color:#c1c1c1"
         offset=".25617" />
      <stop
         id="stop4284"
         style="stop-color:#ffffff;stop-opacity:.349"
         offset="1" />
    </linearGradient>
    <linearGradient
       id="linearGradient4128"
       y2="682.71002"
       xlink:href="#linearGradient4020"
       gradientUnits="userSpaceOnUse"
       x2="483.89001"
       gradientTransform="matrix(0.49859,-0.037516,0.037516,0.49859,100.47781,292.07468)"
       y1="677.90997"
       x1="450.45001"
       inkscape:collect="always" />
    <linearGradient
       id="linearGradient4126"
       y2="507.38"
       gradientUnits="userSpaceOnUse"
       x2="393.42999"
       gradientTransform="matrix(0.5,0,0,0.5,128.59781,273.62468)"
       y1="507.38"
       x1="309.91"
       inkscape:collect="always">
      <stop
         id="stop4008"
         style="stop-color:#9c9c9c"
         offset="0" />
      <stop
         id="stop4018"
         style="stop-color:#b3b3b3"
         offset=".084086" />
      <stop
         id="stop4014"
         style="stop-color:#575757"
         offset=".27643" />
      <stop
         id="stop4156"
         style="stop-color:#575757"
         offset=".53983" />
      <stop
         id="stop4016"
         style="stop-color:#d1d1d1"
         offset=".90195" />
      <stop
         id="stop4010"
         style="stop-color:#b3b3b3"
         offset="1" />
    </linearGradient>
    <linearGradient
       id="linearGradient4124"
       y2="480.54001"
       xlink:href="#linearGradient4168"
       gradientUnits="userSpaceOnUse"
       x2="410.26999"
       gradientTransform="matrix(0.5,0,0,0.5,128.59781,273.62468)"
       y1="480.54001"
       x1="309.94"
       inkscape:collect="always" />
    <linearGradient
       id="linearGradient4168"
       inkscape:collect="always">
      <stop
         id="stop4170"
         style="stop-color:#ffffff;stop-opacity:.349"
         offset="0" />
      <stop
         id="stop4176"
         style="stop-color:#c1c1c1"
         offset=".32098" />
      <stop
         id="stop4172"
         style="stop-color:#ffffff;stop-opacity:.349"
         offset="1" />
    </linearGradient>
    <linearGradient
       id="linearGradient4122"
       y2="724.88"
       xlink:href="#linearGradient3883"
       gradientUnits="userSpaceOnUse"
       x2="390.06"
       gradientTransform="matrix(0.5,0,0,0.5,128.59781,273.62468)"
       y1="724.88"
       x1="329.94"
       inkscape:collect="always" />
    <linearGradient
       id="linearGradient3883"
       inkscape:collect="always">
      <stop
         id="stop3885"
         style="stop-color:#4d4d4d"
         offset="0" />
      <stop
         id="stop3887"
         style="stop-color:#020202"
         offset="1" />
    </linearGradient>
    <linearGradient
       id="linearGradient4120"
       y2="719.88"
       xlink:href="#linearGradient4168"
       gradientUnits="userSpaceOnUse"
       x2="392.44"
       gradientTransform="matrix(0.5,0,0,0.5,128.59781,273.62468)"
       y1="719.88"
       x1="327.56"
       inkscape:collect="always" />
    <radialGradient
       id="radialGradient4616"
       gradientUnits="userSpaceOnUse"
       cy="372.35999"
       cx="360"
       gradientTransform="matrix(1,0,0,1.4236,0,-157.75)"
       r="11.803"
       inkscape:collect="always">
      <stop
         id="stop4612"
         style="stop-color:#ffffff"
         offset="0" />
      <stop
         id="stop4618"
         style="stop-color:#ffffff"
         offset=".41547" />
      <stop
         id="stop4614"
         style="stop-color:#ffffff;stop-opacity:0"
         offset="1" />
    </radialGradient>
    <filter
       id="filter4152"
       height="1.069"
       width="1.4579999"
       color-interpolation-filters="sRGB"
       y="-0.034522999"
       x="-0.229"
       inkscape:collect="always">
      <feGaussianBlur
         id="feGaussianBlur4154"
         stdDeviation="2.8625"
         inkscape:collect="always" />
    </filter>
    <linearGradient
       id="linearGradient4114"
       y2="297.38"
       gradientUnits="userSpaceOnUse"
       x2="388.5"
       gradientTransform="matrix(0.5,0,0,0.5,128.59781,273.62468)"
       y1="297.38"
       x1="331.5"
       inkscape:collect="always">
      <stop
         id="stop4034"
         style="stop-color:#5e0000"
         offset="0" />
      <stop
         id="stop4040"
         style="stop-color:#ff0000"
         offset=".36216" />
      <stop
         id="stop4042"
         style="stop-color:#ff0000"
         offset=".61591" />
      <stop
         id="stop4036"
         style="stop-color:#a80000"
         offset="1" />
    </linearGradient>
    <linearGradient
       id="linearGradient4110"
       y2="622.35999"
       gradientUnits="userSpaceOnUse"
       x2="465"
       gradientTransform="matrix(0.5,0,0,0.5,128.59781,273.62468)"
       y1="622.35999"
       x1="389.5"
       inkscape:collect="always">
      <stop
         id="stop3982"
         style="stop-color:#4a3600"
         offset="0" />
      <stop
         id="stop3988"
         style="stop-color:#4a3600"
         offset=".27364" />
      <stop
         id="stop3984"
         style="stop-color:#d49a00"
         offset="1" />
    </linearGradient>
    <linearGradient
       id="linearGradient4108"
       y2="454.29001"
       xlink:href="#linearGradient4020"
       gradientUnits="userSpaceOnUse"
       x2="409.23999"
       gradientTransform="matrix(0.5,0,0,0.5,128.59781,273.62468)"
       y1="454.29001"
       x1="309.51001"
       inkscape:collect="always" />
    <linearGradient
       id="linearGradient4104"
       y2="621.45001"
       gradientUnits="userSpaceOnUse"
       x2="289.72"
       gradientTransform="matrix(0.5,0,0,0.5,128.59781,273.62468)"
       y1="617.91998"
       x1="311.35999"
       inkscape:collect="always">
      <stop
         id="stop4000"
         style="stop-color:#4a3600"
         offset="0" />
      <stop
         id="stop4002"
         style="stop-color:#4a3600"
         offset=".12925" />
      <stop
         id="stop4004"
         style="stop-color:#d49a00"
         offset="1" />
    </linearGradient>
    <linearGradient
       id="linearGradient4102"
       y2="778.64001"
       spreadMethod="reflect"
       gradientUnits="userSpaceOnUse"
       x2="458.29001"
       gradientTransform="matrix(0.49845,-0.0394,0.0394,0.49845,58.017814,284.44468)"
       y1="778.48999"
       x1="456.39999"
       inkscape:collect="always">
      <stop
         id="stop3961"
         style="stop-color:#000000"
         offset="0" />
      <stop
         id="stop3963"
         style="stop-color:#1a1a1a"
         offset="1" />
    </linearGradient>
  </defs>
  <sodipodi:namedview
     id="base"
     pagecolor="#ffffff"
     bordercolor="#666666"
     borderopacity="1.0"
     inkscape:pageopacity="0.0"
     inkscape:pageshadow="2"
     inkscape:zoom="0.35"
     inkscape:cx="123.10348"
     inkscape:cy="131.83321"
     inkscape:document-units="px"
     inkscape:current-layer="capa1"
     showgrid="false"
     fit-margin-top="0"
     fit-margin-left="0"
     fit-margin-right="0"
     fit-margin-bottom="0"
     inkscape:window-width="555"
     inkscape:window-height="425"
     inkscape:window-x="561"
     inkscape:window-y="55"
     inkscape:window-maximized="0" />
  <metadata
     id="metadata4357">
    <rdf:RDF>
      <cc:Work
         rdf:about="">
        <dc:format>image/svg+xml</dc:format>
        <dc:type
           rdf:resource="http://purl.org/dc/dcmitype/StillImage" />
        <dc:title></dc:title>
      </cc:Work>
    </rdf:RDF>
  </metadata>
  <g
     inkscape:label="Capa 1"
     inkscape:groupmode="layer"
     id="capa1"
     transform="translate(-251.89652,-394.81468)">
    <path
       id="path4050"
       sodipodi:nodetypes="cccc"
       style="fill:#131313"
       inkscape:connector-curvature="0"
       d="m 317.13781,551.26468 c 12.461,5.084 4.2696,87.518 2.5755,110.03 l -6.9998,-0.0588 c -1.31,-22.54 -8.12,-105.1 4.42,-109.97 z" />
    <path
       id="path4052"
       style="fill:url(#linearGradient4102)"
       inkscape:connector-curvature="0"
       d="m 311.91781,648.70468 c 0.32582,5.0559 0.62048,9.403 0.80129,12.523 l 6.9998,0.0587 c 0.23456,-3.1164 0.59953,-7.4578 1.0112,-12.508 l -8.8122,-0.0738 z" />
    <path
       id="path4054"
       style="fill:url(#linearGradient4104)"
       d="m 288.59781,559.80468 -30,22.5 2.5,27.5 c 4.5938,-3.8325 10.289,-6.3976 16.25,-6.9012 h 1e-5 c 5.4594,-0.4612 10.934,0.57687 16.25,1.9012 z"
       sodipodi:nodetypes="ccccc"
       inkscape:connector-curvature="0"
       inkscape:original-d="m 816.00661,708.84067 -30,22.5 2.5,27.5 c 10.83334,-9.03795 21.66667,-7.69869 32.5,-5 z" />
    <path
       id="path4056"
       d="m 308.59781,409.80468 c -15,31.304 -25.847,81.361 -25,124.7 0.9736,49.819 5,72.943 17.5,115.3 h 15 c 12.5,-42.354 16.526,-65.478 17.5,-115.3 0.84705,-43.342 -10,-93.399 -25,-124.7 z"
       sodipodi:nodetypes="csccsc"
       style="fill:url(#linearGradient4108)"
       inkscape:connector-curvature="0" />
    <path
       id="path4058"
       style="fill:url(#linearGradient4110)"
       d="m 328.59781,559.80468 30,22.5 -2.5,27.5 c -4.5938,-3.8325 -10.289,-6.3976 -16.25,-6.9012 -5.4594,-0.4612 -10.934,0.57687 -16.25,1.9012 z"
       sodipodi:nodetypes="ccccc"
       inkscape:connector-curvature="0"
       inkscape:original-d="m 856.0066,708.84067 30,22.5 -2.5,27.5 c -10.8333,-9.03795 -21.66665,-7.69869 -32.49999,-5 z" />
    <path
       id="path4060"
       d="m 308.59781,394.81468 -1.4688,18.156 c -4.8232,10.657 -9.1683,23.235 -12.781,36.844 h 28.5 c -3.6129,-13.608 -7.9581,-26.187 -12.781,-36.844 l -1.4688,-18.156 z"
       style="fill:url(#linearGradient4114);fill-rule:evenodd"
       inkscape:connector-curvature="0" />
    <path
       id="path4062"
       sodipodi:rx="10"
       sodipodi:ry="15"
       style="fill:#000000;stroke:#1a1a1a;stroke-width:7.2105999;stroke-linecap:round;stroke-dashoffset:3"
       sodipodi:type="arc"
       d="m 370,372.36218 c 0,8.28427 -4.47715,15 -10,15 -5.52285,0 -10,-6.71573 -10,-15 0,-8.28427 4.47715,-15 10,-15 5.52285,0 10,6.71573 10,15 z"
       transform="matrix(0.45439999,0,0,0.38094999,145.2678,318.20467)"
       sodipodi:cy="372.36218"
       sodipodi:cx="360" />
    <path
       id="path4066"
       style="opacity:0.45;fill:#000000;fill-rule:evenodd;filter:url(#filter4152)"
       d="m 962.69,568.29 c -5.7185,34.598 -12.367,69.036 -18.201,103.62 -5.333,31.609 -10.287,63.365 -11.799,95.385 v 1e-5 l 36.313,0.25254 c 1.8101,-33.327 0.85354,-66.746 -0.90569,-100.08 -1.7451,-33.063 -4.2448,-66.088 -5.4078,-99.176 z"
       sodipodi:nodetypes="cccc"
       inkscape:connector-curvature="0"
       transform="matrix(0.49999999,0,0,0.49999999,-172.75219,128.16468)"
       inkscape:original-d="m 962.68892,568.28611 c -11.22401,67.90706 -27.31113,142.06669 -30,199 l 36.31345,0.25254 c 3.66994,-67.5724 -3.98063,-132.88069 -6.31345,-199.25254 z" />
    <path
       id="path4064"
       sodipodi:rx="10"
       sodipodi:ry="15"
       style="fill:url(#radialGradient4616);stroke:#b40000;stroke-width:7.2105999;stroke-linecap:round;stroke-dashoffset:3"
       sodipodi:type="arc"
       d="m 370,372.36218 c 0,8.28427 -4.47715,15 -10,15 -5.52285,0 -10,-6.71573 -10,-15 0,-8.28427 4.47715,-15 10,-15 5.52285,0 10,6.71573 10,15 z"
       transform="matrix(0.45439999,0,0,0.38094999,145.0078,317.95467)"
       sodipodi:cy="372.36218"
       sodipodi:cx="360" />
    <path
       id="path4068"
       d="m 292.37781,617.31468 c 2.3076,9.9806 5.1679,20.469 8.7188,32.5 h 15 c 3.5508,-12.031 6.4112,-22.519 8.7188,-32.5 h -32.438 z"
       style="fill:url(#linearGradient4120);fill-rule:evenodd"
       inkscape:connector-curvature="0" />
    <path
       id="path4070"
       d="m 293.56781,622.31468 c 2.0834,8.4928 4.5673,17.457 7.5312,27.5 h 15 c 2.964,-10.043 5.4479,-19.007 7.5312,-27.5 h -30.062 z"
       style="fill:url(#linearGradient4122);fill-rule:evenodd"
       inkscape:connector-curvature="0" />
    <path
       id="path4072"
       d="m 284.12781,512.31468 c -0.47751,7.5071 -0.67294,14.953 -0.53125,22.203 0.0525,2.6881 0.11634,5.257 0.1875,7.7969 h 49.625 c 0.0711,-2.5399 0.135,-5.1088 0.1875,-7.7969 0.1417,-7.2506 -0.0538,-14.696 -0.53125,-22.203 h -48.937 z"
       style="fill:url(#linearGradient4124);fill-rule:evenodd"
       inkscape:connector-curvature="0" />
    <path
       id="path4074"
       d="m 283.98781,514.81468 c -0.36625,6.657 -0.51656,13.259 -0.39063,19.703 0.0357,1.8262 0.0808,3.5402 0.125,5.2969 h 49.75 c 0.044,-1.7567 0.0893,-3.4707 0.125,-5.2969 0.12595,-6.4438 -0.0245,-13.046 -0.3906,-19.703 h -49.219 z"
       style="fill:url(#linearGradient4126);fill-rule:evenodd"
       inkscape:connector-curvature="0" />
    <path
       id="path4076"
       d="m 358.59781,559.87468 c 12.442,5.1311 3.9388,87.534 2.1598,110.03 l -6.9994,-0.0852 c -1.2207,-22.537 -7.7167,-105.12 4.8397,-109.95 z"
       sodipodi:nodetypes="cccc"
       style="fill:url(#linearGradient4128)"
       inkscape:connector-curvature="0" />
    <path
       id="path4078"
       style="fill:url(#linearGradient4130)"
       inkscape:connector-curvature="0"
       d="m 352.84781,654.79468 c 0.367,6.1382 0.7152,11.412 0.91105,15.028 l 6.9995,0.0851 c 0.2854,-3.61 0.74335,-8.8741 1.2606,-15.001 l -9.1712,-0.11155 z" />
    <path
       id="path4080"
       style="fill:url(#linearGradient4132)"
       inkscape:connector-curvature="0"
       d="m 353.00781,657.29468 c 0.3067,5.057 0.58495,9.4052 0.75395,12.526 l 6.9995,0.0851 c 0.2463,-3.1155 0.6277,-7.4554 1.0584,-12.504 l -8.8118,-0.10715 z" />
    <path
       id="path4082"
       sodipodi:nodetypes="cccc"
       style="fill:url(#linearGradient4134)"
       inkscape:connector-curvature="0"
       d="m 258.59781,559.87468 c 12.555,4.8471 5.9262,87.422 4.6587,109.96 l -6.9996,0.0738 c -1.7323,-22.504 -10.103,-104.92 2.3409,-110.03 z" />
    <path
       id="path4084"
       style="fill:url(#linearGradient4136)"
       inkscape:connector-curvature="0"
       d="m 255.00781,654.90468 c 0.5063,6.1283 0.97422,11.393 1.2522,15.003 l 6.9996,-0.0739 c 0.20336,-3.6155 0.54159,-8.8887 0.91959,-15.026 l -9.1714,0.0968 z" />
    <path
       id="path4086"
       style="fill:url(#linearGradient4138)"
       inkscape:connector-curvature="0"
       d="m 255.21781,657.40468 c 0.4215,5.0488 0.79843,9.3896 1.0383,12.505 l 6.9996,-0.0739 c 0.1755,-3.1203 0.45819,-7.4678 0.77411,-12.524 l -8.812,0.093 z" />
    <path
       id="path4089"
       style="opacity:0.5;fill:#ffffff;fill-rule:evenodd;filter:url(#filter3891)"
       d="m 962.69,568.29 -19,74 h 8 z"
       inkscape:connector-curvature="0"
       transform="matrix(0.49999999,0,0,0.49999999,-172.75219,128.16468)"
       inkscape:original-d="m 962.68892,568.28611 -19,74 8,0 z" />
    <path
       id="path4091"
       style="opacity:0.45;fill:#000000;fill-rule:evenodd;filter:url(#filter4128)"
       d="m 932.69,829.29 h 36.061 v 2e-5 c 5.0477,49.13 2.5158,98.676 0,148 H 952.69 c -10.68,-48.675 -17.033,-98.256 -20,-148 z"
       sodipodi:nodetypes="ccccc"
       inkscape:connector-curvature="0"
       transform="matrix(0.49999999,0,0,0.49999999,-172.75219,128.16468)"
       inkscape:original-d="m 932.68892,829.28611 36.06092,0 c 5.39176,52.47853 2.44357,100.09208 0,148 l -16.06092,0 c -10.44782,-47.61463 -16.9593,-97.0185 -20,-148 z" />
    <path
       id="path4094"
       style="opacity:0.5;fill:#000000;fill-rule:evenodd;filter:url(#filter4202)"
       d="m 470,582.39 c -11.533,58.138 -12.359,117.78 -13.916,177.03 v -2e-5 c 6.0937,-33.938 10.985,-68.104 13.916,-102.46 1.8555,-24.801 0.89433,-49.715 0,-74.569 z"
       sodipodi:nodetypes="cccc"
       transform="matrix(0.49858999,-0.037516,0.037516,0.49858999,100.47781,292.07468)"
       inkscape:original-d="M 470,582.38871 C 458.26106,641.56382 457.63315,700.4706 456.08387,759.41794 462.0442,726.22297 466.64896,696.24129 470,656.95798 c 1.87536,-25.06599 0.8929,-49.75494 0,-74.56927 z"
       inkscape:connector-curvature="0" />
    <path
       id="path4096"
       style="opacity:0.5;fill:#000000;fill-rule:evenodd;filter:url(#filter4234)"
       d="m 243.95,580.62 c -2.7147,29.298 -0.36174,58.827 2.8501,88.075 3.3407,30.421 7.8656,60.719 10.282,91.227 v 10e-6 c -0.84879,-45.326 -6.1755,-90.54 -5.3033,-135.87 v -2e-5 c 0.14379,-7.4723 -1.2582,-14.891 -3.2209,-22.102 -1.9136,-7.031 -3.9346,-14.079 -4.6078,-21.335 z"
       sodipodi:nodetypes="ccsc"
       transform="matrix(0.49852999,0.038319,-0.038319,0.49852999,158.6978,264.94468)"
       inkscape:original-d="m 243.95184,580.62094 c -5.16301,55.71994 8.38601,119.37833 13.13198,179.30208 -0.84179,-44.95179 -6.22213,-88.11732 -5.3033,-135.86551 0.33395,-17.35406 -6.31345,-27.10577 -7.82868,-43.43657 z"
       inkscape:connector-curvature="0" />
    <path
       id="path4098"
       sodipodi:rx="15.657365"
       sodipodi:ry="66.670067"
       style="opacity:0.5;fill:#ffffff;filter:url(#filter4324)"
       sodipodi:type="arc"
       d="m 410.12193,507.88995 c 0,36.82086 -7.01004,66.67007 -15.65736,66.67007 -8.64732,0 -15.65737,-29.84921 -15.65737,-66.67007 0,-36.82086 7.01005,-66.67006 15.65737,-66.67006 8.64732,0 15.65736,29.8492 15.65736,66.67006 z"
       transform="matrix(0.49999999,0,0,0.49999999,128.5978,273.62468)"
       sodipodi:cy="507.88995"
       sodipodi:cx="394.46457" />
    <path
       id="path4100"
       d="m 293.56781,622.31468 c 1.5848,6.4601 3.4011,13.196 5.4844,20.469 l -4.3594,-20.469 h -1.125 z m 2.8438,0 3.9375,24.937 c 0.25139,0.86035 0.49136,1.6862 0.75,2.5625 h 1.6875 l -4.3438,-27.5 h -2.0312 z m 3.75,0 2.875,27.5 h 2.0156 l -2.8906,-27.5 h -2 z m 3.7188,0 1.4375,27.5 h 2 l -1.4375,-27.5 h -2 z m 3.7188,0 v 27.5 h 2 v -27.5 h -2 z m 3.7188,0 -1.4375,27.5 h 2 l 1.4375,-27.5 h -2 z m 3.7188,0 -2.8906,27.5 h 2.0156 l 2.875,-27.5 h -2 z m 3.7188,0 -4.3438,27.5 h 1.6875 c 0.25865,-0.87635 0.49862,-1.7022 0.75,-2.5625 l 3.9375,-24.937 h -2.0312 z m 3.75,0 -4.3594,20.469 c 2.0832,-7.273 3.8996,-14.009 5.4844,-20.469 h -1.125 z"
       style="opacity:0.5;fill:#000000;fill-rule:evenodd"
       inkscape:connector-curvature="0" />
  </g>
</svg>
