<?xml version="1.0" encoding="UTF-8" standalone="no"?>
<!-- Created with Inkscape (http://www.inkscape.org/) -->

<svg
   xmlns:dc="http://purl.org/dc/elements/1.1/"
   xmlns:cc="http://creativecommons.org/ns#"
   xmlns:rdf="http://www.w3.org/1999/02/22-rdf-syntax-ns#"
   xmlns:svg="http://www.w3.org/2000/svg"
   xmlns="http://www.w3.org/2000/svg"
   xmlns:xlink="http://www.w3.org/1999/xlink"
   xmlns:sodipodi="http://sodipodi.sourceforge.net/DTD/sodipodi-0.dtd"
   xmlns:inkscape="http://www.inkscape.org/namespaces/inkscape"
   width="78.681396"
   height="277.5"
   id="svg4723"
   version="1.1"
   inkscape:version="0.48.4 r9939"
   sodipodi:docname="Nou document 24">
  <defs
     id="defs4725">
    <filter
       id="filter4606"
       height="1.6720001"
       width="1.6720001"
       color-interpolation-filters="sRGB"
       y="-0.336"
       x="-0.336"
       inkscape:collect="always">
      <feGaussianBlur
         id="feGaussianBlur4608"
         stdDeviation="2.1"
         inkscape:collect="always" />
    </filter>
    <filter
       id="filter4446"
       height="1.5164"
       width="1.4484"
       color-interpolation-filters="sRGB"
       y="-0.25817999"
       x="-0.22420999"
       inkscape:collect="always">
      <feGaussianBlur
         id="feGaussianBlur4448"
         stdDeviation="3.55"
         inkscape:collect="always" />
    </filter>
    <linearGradient
       id="linearGradient4299"
       y2="978.35999"
       gradientUnits="userSpaceOnUse"
       x2="476"
       gradientTransform="matrix(0.5,0,0,0.5,105.44216,-47.92496)"
       y1="978.35999"
       x1="443"
       inkscape:collect="always">
      <stop
         id="stop4303"
         style="stop-color:#313833"
         offset="0" />
      <stop
         id="stop4305"
         style="stop-color:#728277"
         offset=".51515" />
      <stop
         id="stop4307"
         style="stop-color:#47504a"
         offset="1" />
    </linearGradient>
    <linearGradient
       id="linearGradient4315"
       y2="997.85999"
       xlink:href="#linearGradient3883"
       gradientUnits="userSpaceOnUse"
       x2="473.5"
       gradientTransform="matrix(0.5,0,0,0.5,105.44216,-47.92496)"
       y1="997.85999"
       x1="440.5"
       inkscape:collect="always" />
    <linearGradient
       id="linearGradient3883"
       inkscape:collect="always">
      <stop
         id="stop3885"
         style="stop-color:#4d4d4d"
         offset="0" />
      <stop
         id="stop3887"
         style="stop-color:#020202"
         offset="1" />
    </linearGradient>
    <radialGradient
       id="radialGradient4460"
       xlink:href="#linearGradient4454"
       gradientUnits="userSpaceOnUse"
       cy="677.35999"
       cx="477.5"
       r="8"
       inkscape:collect="always" />
    <linearGradient
       id="linearGradient4454"
       inkscape:collect="always">
      <stop
         id="stop4456"
         style="stop-color:#ffffff"
         offset="0" />
      <stop
         id="stop4462"
         style="stop-color:#ffffff"
         offset=".70703" />
      <stop
         id="stop4458"
         style="stop-color:#666666"
         offset="1" />
    </linearGradient>
    <linearGradient
       id="linearGradient4275"
       y2="877.35999"
       xlink:href="#linearGradient4261"
       gradientUnits="userSpaceOnUse"
       x2="445"
       gradientTransform="matrix(0.5,0,0,0.5,105.44216,-47.92496)"
       y1="962.35999"
       x1="425"
       inkscape:collect="always" />
    <linearGradient
       id="linearGradient4261"
       inkscape:collect="always">
      <stop
         id="stop4263"
         style="stop-color:#313833"
         offset="0" />
      <stop
         id="stop4265"
         style="stop-color:#728277"
         offset="0.7" />
      <stop
         id="stop4267"
         style="stop-color:#728277"
         offset="1" />
    </linearGradient>
    <linearGradient
       id="linearGradient4243"
       y2="560.33002"
       gradientUnits="userSpaceOnUse"
       x2="490.5"
       gradientTransform="matrix(0.5,0,0,0.5,105.44216,-47.92496)"
       y1="560.33002"
       x1="423.5"
       inkscape:collect="always">
      <stop
         id="stop4247"
         style="stop-color:#313833"
         offset="0" />
      <stop
         id="stop4249"
         style="stop-color:#7e8e83"
         offset=".5" />
      <stop
         id="stop4251"
         style="stop-color:#5f6c63"
         offset="1" />
    </linearGradient>
    <linearGradient
       id="linearGradient4233"
       y2="607.83002"
       gradientUnits="userSpaceOnUse"
       x2="480"
       gradientTransform="matrix(0.5,0,0,0.5,105.44216,-47.92496)"
       y1="607.83002"
       x1="435"
       inkscape:collect="always">
      <stop
         id="stop4229"
         style="stop-color:#6b6b00"
         offset="0" />
      <stop
         id="stop4235"
         style="stop-color:#fefe00"
         offset=".44444" />
      <stop
         id="stop4231"
         style="stop-color:#b5b500"
         offset="1" />
    </linearGradient>
    <linearGradient
       id="linearGradient4259"
       y2="912.35999"
       xlink:href="#linearGradient4261"
       gradientUnits="userSpaceOnUse"
       x2="540"
       gradientTransform="matrix(0.45833,0,0,0.5,123.94216,-47.92496)"
       y1="962.35999"
       x1="525"
       inkscape:collect="always" />
    <linearGradient
       id="linearGradient4225"
       y2="774"
       xlink:href="#linearGradient3970"
       gradientUnits="userSpaceOnUse"
       x2="501.41"
       gradientTransform="matrix(0.5,0,0,0.5,105.44216,-47.92496)"
       y1="774"
       x1="412.54001"
       inkscape:collect="always" />
    <linearGradient
       id="linearGradient3970">
      <stop
         id="stop3972"
         style="stop-color:#1c1a17"
         offset="0" />
      <stop
         id="stop3974"
         style="stop-color:#71695c"
         offset=".55130" />
      <stop
         id="stop3976"
         style="stop-color:#5f5a4e"
         offset="0.9" />
      <stop
         id="stop3978"
         style="stop-color:#38342e"
         offset="1" />
    </linearGradient>
    <linearGradient
       id="linearGradient4283"
       y2="842.35999"
       gradientUnits="userSpaceOnUse"
       x2="465"
       gradientTransform="matrix(0.5,0,0,0.5,391.41,301.38)"
       y1="902.35999"
       x1="415"
       inkscape:collect="always">
      <stop
         id="stop4287"
         style="stop-color:#262c28"
         offset="0" />
      <stop
         id="stop4289"
         style="stop-color:#728277"
         offset="0.7" />
      <stop
         id="stop4291"
         style="stop-color:#728277"
         offset="1" />
    </linearGradient>
    <linearGradient
       y2="842.35999"
       x2="465"
       y1="902.35999"
       x1="415"
       gradientTransform="matrix(0.5,0,0,0.5,105.44216,-47.92496)"
       gradientUnits="userSpaceOnUse"
       id="linearGradient4721"
       xlink:href="#linearGradient4283"
       inkscape:collect="always" />
  </defs>
  <sodipodi:namedview
     id="base"
     pagecolor="#ffffff"
     bordercolor="#666666"
     borderopacity="1.0"
     inkscape:pageopacity="0.0"
     inkscape:pageshadow="2"
     inkscape:zoom="0.35"
     inkscape:cx="77.19784"
     inkscape:cy="-69.821428"
     inkscape:document-units="px"
     inkscape:current-layer="capa1"
     showgrid="false"
     fit-margin-top="0"
     fit-margin-left="0"
     fit-margin-right="0"
     fit-margin-bottom="0"
     inkscape:window-width="555"
     inkscape:window-height="425"
     inkscape:window-x="717"
     inkscape:window-y="82"
     inkscape:window-maximized="0" />
  <metadata
     id="metadata4728">
    <rdf:RDF>
      <cc:Work
         rdf:about="">
        <dc:format>image/svg+xml</dc:format>
        <dc:type
           rdf:resource="http://purl.org/dc/dcmitype/StillImage" />
        <dc:title></dc:title>
      </cc:Work>
    </rdf:RDF>
  </metadata>
  <g
     inkscape:label="Capa 1"
     inkscape:groupmode="layer"
     id="capa1"
     transform="translate(-297.80216,-190.75504)">
    <path
       id="path4152"
       style="fill:url(#linearGradient4721)"
       d="m 326.30216,383.75504 c -7.3779,2.8643 -14.062,7.7795 -18.301,14.463 -4.2581,6.7132 -6.1823,14.653 -7.199,22.537 l -3,47.5 h 1 c 0.90601,-5.2183 2.4437,-10.316 4.3718,-15.249 2.0616,-5.2748 4.5916,-10.385 7.7904,-15.059 2.8148,-4.1123 6.1658,-7.9903 10.459,-10.52 3.7026,-2.1816 8.2919,-2.9636 12.379,-1.634 -3.2943,-13.86 -6.2548,-27.847 -7.5,-42.038 z"
       sodipodi:nodetypes="ccccccc"
       inkscape:connector-curvature="0"
       inkscape:original-d="m 612.27185,733.0596 c -17.0442,6.6169 -23.25861,19.61742 -25.5,37 l -3,47.50001 1,0 c 3.21675,-18.5274 17.54887,-48.13952 35,-42.46193 -4.00755,-16.86027 -6.52289,-30.90192 -7.5,-42.03803 z" />
    <path
       id="path3130"
       sodipodi:nodetypes="csccsc"
       style="fill:url(#linearGradient4225)"
       inkscape:connector-curvature="0"
       d="m 333.93216,233.71504 c -13.155,27.484 -22.668,46.485 -21.925,84.538 0.85386,43.74 4.3851,88.99 15.348,126.18 h 13.155 c 10.963,-37.186 14.494,-82.437 15.348,-126.18 0.74286,-38.053 -8.7701,-57.054 -21.925,-84.538 z" />
    <path
       id="path3208"
       style="fill:url(#linearGradient4259)"
       d="m 349.44216,383.75504 c 7.0215,2.9737 13.225,7.9766 17.234,14.463 4.1719,6.7496 6.126,14.657 7.0574,22.537 l 2.75,47.5 h -1e-5 -0.91666 c -0.82721,-5.1976 -2.2323,-10.295 -4.0074,-15.249 -1.8772,-5.2397 -4.183,-10.344 -7.1412,-15.059 -2.5411,-4.0501 -5.5656,-7.9348 -9.5877,-10.52 l -10e-6,-10e-6 c -1.672,-1.0747 -3.5338,-1.8863 -5.4965,-2.1995 -1.9555,-0.31203 -3.9843,-0.0969 -5.8505,0.56547 2.6459,-13.909 4.7673,-27.929 5.9583,-42.038 z"
       sodipodi:nodetypes="cccccc"
       inkscape:connector-curvature="0"
       inkscape:original-d="m 635.41215,733.0596 c 15.62385,6.6169 22.23706,19.61742 24.29167,37 l 2.75,47.50001 -0.91667,0 c -2.94869,-18.5274 -16.08646,-48.13952 -32.08333,-42.46193 2.68304,-14.10454 4.83705,-28.75557 5.95833,-42.03808 z" />
    <path
       id="rect4160"
       style="fill:url(#linearGradient4233)"
       inkscape:connector-curvature="0"
       d="m 333.93216,233.71504 c -7.6144,15.908 -13.999,28.984 -17.891,44.547 h 35.781 c -3.8915,-15.562 -10.277,-28.639 -17.891,-44.547 z" />
    <path
       id="path3132"
       sodipodi:nodetypes="cccccc"
       style="fill:url(#linearGradient4243)"
       inkscape:connector-curvature="0"
       d="m 333.93216,190.75504 -1.4688,46.125 c -4.8232,10.657 -11.406,23.235 -15.019,36.844 h 33 c -3.6129,-13.608 -10.221,-26.187 -15.044,-36.844 z" />
    <path
       id="path4156"
       style="fill:url(#linearGradient4275)"
       d="m 333.76216,383.75504 c -6.8183,2.9502 -12.746,8.0061 -16.421,14.463 -3.8914,6.8378 -5.555,14.722 -6.4592,22.537 l -2.6917,47.5 h 0.89725 c 0.79662,-5.1137 1.7167,-10.211 2.899,-15.249 1.2036,-5.1295 2.6471,-10.222 4.738,-15.059 1.6973,-3.9257 3.791,-7.8508 7.1327,-10.52 1.3509,-1.0791 2.9365,-1.8925 4.638,-2.1995 1.8171,-0.32787 3.7092,-0.064 5.4451,0.56547 -0.57876,-14.013 -1.4325,-28.069 -0.1785,-42.038 z"
       sodipodi:nodetypes="ccccccc"
       inkscape:connector-curvature="0"
       inkscape:original-d="m 619.73365,733.0596 c -15.29283,6.6169 -20.86868,19.61742 -22.87976,37 l -2.69174,47.50001 0.89725,0 c 2.88621,-18.5274 9.1948,-48.13952 24.85275,-42.46193 -0.56484,-13.67578 -1.52031,-27.09115 -0.1785,-42.03803 z" />
    <path
       id="path4185"
       sodipodi:rx="7.5"
       sodipodi:ry="7.5"
       style="fill:#333333"
       sodipodi:type="arc"
       d="m 485,677.36218 c 0,4.14214 -3.35786,7.5 -7.5,7.5 -4.14214,0 -7.5,-3.35786 -7.5,-7.5 0,-4.14213 3.35786,-7.5 7.5,-7.5 4.14214,0 7.5,3.35787 7.5,7.5 z"
       transform="matrix(0.59999999,0,0,0.59999999,57.692157,-114.41496)"
       sodipodi:cy="677.36218"
       sodipodi:cx="477.5" />
    <path
       id="path4168"
       sodipodi:rx="7.5"
       sodipodi:ry="7.5"
       style="fill:#4d4d4d"
       sodipodi:type="arc"
       d="m 485,677.36218 c 0,4.14214 -3.35786,7.5 -7.5,7.5 -4.14214,0 -7.5,-3.35786 -7.5,-7.5 0,-4.14213 3.35786,-7.5 7.5,-7.5 4.14214,0 7.5,3.35787 7.5,7.5 z"
       transform="matrix(0.49999999,0,0,0.49999999,105.44216,-46.67496)"
       sodipodi:cy="677.36218"
       sodipodi:cx="477.5" />
    <path
       id="path4187"
       sodipodi:rx="7.5"
       sodipodi:ry="7.5"
       style="fill:#4d4d4d"
       sodipodi:type="arc"
       d="m 485,677.36218 c 0,4.14214 -3.35786,7.5 -7.5,7.5 -4.14214,0 -7.5,-3.35786 -7.5,-7.5 0,-4.14213 3.35786,-7.5 7.5,-7.5 4.14214,0 7.5,3.35787 7.5,7.5 z"
       transform="matrix(0.59999999,0,0,0.59999999,57.692157,-99.41496)"
       sodipodi:cy="677.36218"
       sodipodi:cx="477.5" />
    <path
       id="path4170"
       sodipodi:rx="7.5"
       sodipodi:ry="7.5"
       style="fill:url(#radialGradient4460)"
       sodipodi:type="arc"
       d="m 485,677.36218 c 0,4.14214 -3.35786,7.5 -7.5,7.5 -4.14214,0 -7.5,-3.35786 -7.5,-7.5 0,-4.14213 3.35786,-7.5 7.5,-7.5 4.14214,0 7.5,3.35787 7.5,7.5 z"
       transform="matrix(0.49999999,0,0,0.49999999,105.44216,-31.67496)"
       sodipodi:cy="677.36218"
       sodipodi:cx="477.5" />
    <path
       id="path4189"
       sodipodi:rx="7.5"
       sodipodi:ry="7.5"
       style="fill:#333333"
       sodipodi:type="arc"
       d="m 485,677.36218 c 0,4.14214 -3.35786,7.5 -7.5,7.5 -4.14214,0 -7.5,-3.35786 -7.5,-7.5 0,-4.14213 3.35786,-7.5 7.5,-7.5 4.14214,0 7.5,3.35787 7.5,7.5 z"
       transform="matrix(0.59999999,0,0,0.59999999,57.692157,-84.41496)"
       sodipodi:cy="677.36218"
       sodipodi:cx="477.5" />
    <path
       id="path4172"
       sodipodi:rx="7.5"
       sodipodi:ry="7.5"
       style="fill:#4d4d4d"
       sodipodi:type="arc"
       d="m 485,677.36218 c 0,4.14214 -3.35786,7.5 -7.5,7.5 -4.14214,0 -7.5,-3.35786 -7.5,-7.5 0,-4.14213 3.35786,-7.5 7.5,-7.5 4.14214,0 7.5,3.35787 7.5,7.5 z"
       transform="matrix(0.49999999,0,0,0.49999999,105.44216,-16.67496)"
       sodipodi:cy="677.36218"
       sodipodi:cx="477.5" />
    <path
       id="path4192"
       sodipodi:rx="7.5"
       sodipodi:ry="7.5"
       style="fill:#333333"
       sodipodi:type="arc"
       d="m 485,677.36218 c 0,4.14214 -3.35786,7.5 -7.5,7.5 -4.14214,0 -7.5,-3.35786 -7.5,-7.5 0,-4.14213 3.35786,-7.5 7.5,-7.5 4.14214,0 7.5,3.35787 7.5,7.5 z"
       transform="matrix(0.59999999,0,0,0.59999999,57.692157,-69.41496)"
       sodipodi:cy="677.36218"
       sodipodi:cx="477.5" />
    <path
       id="path4174"
       sodipodi:rx="7.5"
       sodipodi:ry="7.5"
       style="fill:#4d4d4d"
       sodipodi:type="arc"
       d="m 485,677.36218 c 0,4.14214 -3.35786,7.5 -7.5,7.5 -4.14214,0 -7.5,-3.35786 -7.5,-7.5 0,-4.14213 3.35786,-7.5 7.5,-7.5 4.14214,0 7.5,3.35787 7.5,7.5 z"
       transform="matrix(0.49999999,0,0,0.49999999,105.44216,-1.6749602)"
       sodipodi:cy="677.36218"
       sodipodi:cx="477.5" />
    <path
       id="path4181"
       style="fill:url(#linearGradient4315)"
       d="m 328.44216,443.75504 h 11 l 2.5,14.5 h -16 z"
       sodipodi:nodetypes="ccccc"
       inkscape:connector-curvature="0"
       inkscape:original-d="m 614.41215,793.05961 11,0 2.5,14.5 -16,0 z" />
    <path
       id="path4196"
       style="opacity:0.6;fill:#000000;fill-rule:evenodd"
       inkscape:connector-curvature="0"
       d="m 328.58216,443.76504 -2.2969,14.5 h 1.0156 l 2.2969,-14.5 h -1.0156 z m 1.625,0 -1.5312,14.5 h 1 l 1.5312,-14.5 h -1 z m 1.6094,0 -0.75,14.5 h 1 l 0.75,-14.5 h -1 z m 1.625,0 v 14.5 h 1 v -14.5 h -1 z m 1.625,0 0.75,14.5 h 1 l -0.75,-14.5 h -1 z m 1.6094,0 1.5312,14.5 h 1 l -1.5312,-14.5 h -1 z m 1.6094,0 2.2969,14.5 h 1.0156 l -2.2969,-14.5 h -1.0156 z" />
    <path
       id="rect4176"
       style="fill:url(#linearGradient4299)"
       inkscape:connector-curvature="0"
       d="m 325.63216,438.26504 c 0.55539,2.0784 1.1198,4.1401 1.7188,6.1718 h 13.156 c 0.59927,-2.0327 1.1788,-4.0925 1.7344,-6.1718 h -16.609 z" />
    <path
       id="path4317"
       style="opacity:0.5;fill:#000000;filter:url(#filter4446)"
       inkscape:connector-curvature="0"
       d="m 511.59,1000.7 c -0.061,0.9788 -0.0937,1.9958 -0.0937,3 0,16.568 8.5066,30 19,30 10.4934,0 19,-13.432 19,-30 0,-1.0042 -0.0327,-2.0212 -0.0937,-3 h -37.812 z"
       transform="matrix(0.49999999,0,0,0.49999999,68.692157,-72.10496)" />
    <path
       id="path4450"
       d="m 333.93216,190.75504 -1.4688,46.125 c -0.57174,1.2632 -1.1682,2.5535 -1.7815,3.8693 l 6.499,-0.005 c -0.61303,-1.3139 -1.209,-2.6023 -1.7799,-3.8638 z"
       sodipodi:nodetypes="cccccc"
       style="opacity:0.3;fill:#ffff00"
       inkscape:connector-curvature="0" />
    <path
       id="path4464"
       sodipodi:rx="7.5"
       sodipodi:ry="7.5"
       style="opacity:0.3;fill:#ffffff;filter:url(#filter4606)"
       sodipodi:type="arc"
       d="m 485,677.36218 c 0,4.14214 -3.35786,7.5 -7.5,7.5 -4.14214,0 -7.5,-3.35786 -7.5,-7.5 0,-4.14213 3.35786,-7.5 7.5,-7.5 4.14214,0 7.5,3.35787 7.5,7.5 z"
       transform="matrix(0.72373999,0,0,0.72373999,-1.3978429,-183.23496)"
       sodipodi:cy="677.36218"
       sodipodi:cx="477.5" />
  </g>
</svg>
