<?xml version="1.0" encoding="UTF-8" standalone="no"?>
<!-- Created with Inkscape (http://www.inkscape.org/) -->

<svg
   xmlns:dc="http://purl.org/dc/elements/1.1/"
   xmlns:cc="http://creativecommons.org/ns#"
   xmlns:rdf="http://www.w3.org/1999/02/22-rdf-syntax-ns#"
   xmlns:svg="http://www.w3.org/2000/svg"
   xmlns="http://www.w3.org/2000/svg"
   xmlns:sodipodi="http://sodipodi.sourceforge.net/DTD/sodipodi-0.dtd"
   xmlns:inkscape="http://www.inkscape.org/namespaces/inkscape"
   width="640.81635"
   height="736.80286"
   id="svg2"
   version="1.1"
   inkscape:version="0.48.2 r9819"
   sodipodi:docname="r-is-for-rocket.svg">
  <title
     id="title4144">R is for Rocket</title>
  <defs
     id="defs4" />
  <sodipodi:namedview
     id="base"
     pagecolor="#ffffff"
     bordercolor="#666666"
     borderopacity="1.0"
     inkscape:pageopacity="0.0"
     inkscape:pageshadow="2"
     inkscape:zoom="0.7"
     inkscape:cx="250.37877"
     inkscape:cy="418.6114"
     inkscape:document-units="px"
     inkscape:current-layer="layer1"
     showgrid="false"
     inkscape:window-width="1920"
     inkscape:window-height="970"
     inkscape:window-x="0"
     inkscape:window-y="0"
     inkscape:window-maximized="1"
     fit-margin-top="0"
     fit-margin-left="0"
     fit-margin-right="0"
     fit-margin-bottom="0" />
  <metadata
     id="metadata7">
    <rdf:RDF>
      <cc:Work
         rdf:about="">
        <dc:format>image/svg+xml</dc:format>
        <dc:type
           rdf:resource="http://purl.org/dc/dcmitype/StillImage" />
        <dc:title>R is for Rocket</dc:title>
        <dc:language>deutsch</dc:language>
        <dc:creator>
          <cc:Agent>
            <dc:title>Andreas Preuss</dc:title>
          </cc:Agent>
        </dc:creator>
        <dc:date>21.05.2011</dc:date>
        <dc:publisher>
          <cc:Agent>
            <dc:title>www.apmedia.de</dc:title>
          </cc:Agent>
        </dc:publisher>
        <dc:identifier />
        <dc:source>www.apmedia.de</dc:source>
        <dc:description>A 60s style Rocket</dc:description>
        <dc:contributor>
          <cc:Agent>
            <dc:title>Andreas Preuss</dc:title>
          </cc:Agent>
        </dc:contributor>
        <cc:license
           rdf:resource="http://creativecommons.org/licenses/publicdomain/" />
      </cc:Work>
      <cc:License
         rdf:about="http://creativecommons.org/licenses/publicdomain/">
        <cc:permits
           rdf:resource="http://creativecommons.org/ns#Reproduction" />
        <cc:permits
           rdf:resource="http://creativecommons.org/ns#Distribution" />
        <cc:permits
           rdf:resource="http://creativecommons.org/ns#DerivativeWorks" />
      </cc:License>
    </rdf:RDF>
  </metadata>
  <g
     inkscape:label="Ebene 1"
     inkscape:groupmode="layer"
     id="layer1"
     transform="translate(-45.253373,-259.66541)">
    <g
       id="g4027"
       transform="matrix(0.97210302,0.84691058,-0.84691058,0.97210302,427.97804,-164.85737)">
      <g
         transform="matrix(0.82045364,0,0,1,65.520893,-2.1428571)"
         id="g3191">
        <path
           id="path2985"
           transform="matrix(1.2188379,0,0,1,-79.859348,2.1428571)"
           d="m 366.75,117.1875 0,2.40625 c -49.12702,138.32715 -60.5625,234.39029 -60.5625,369.1875 0,16.4552 0.39833,32.06392 1.15625,46.8125 -59.99992,23.01135 -62.7994,122.94865 -46.875,194.1875 13.85754,-27.99231 25.00083,-58.26429 71.125,-59.21875 4.47349,11.09485 9.41658,20.28238 14.71875,27.5625 l 15.4375,0 c -1.81391,-35.19671 -2.34375,-68.94765 -2.34375,-96.8125 0.4264,-27.05697 -1.18556,-60.23008 7.875,-59.65625 9.9024,0.62714 7.90625,33.1731 7.90625,59.65625 0.68897,28.75959 0.16981,62.14066 -1.8125,96.8125 l 14.65625,0 c 5.2997,-7.27809 10.24814,-16.47246 14.71875,-27.5625 46.36932,0.83247 57.51951,31.16748 71.40625,59.21875 15.95223,-71.3634 13.11785,-171.49947 -47.1875,-194.28125 0.7535,-14.71499 1.15625,-30.30627 1.15625,-46.71875 0,-134.79721 -11.40423,-230.86035 -60.53125,-369.1875 l 0,-2.40625 c -0.14395,0.40317 -0.29418,0.8163 -0.4375,1.21875 -0.14331,-0.40245 -0.26229,-0.81558 -0.40625,-1.21875 z m 0.5625,169.46875 c 12.79355,0 23.24962,10.21026 23.5625,23 l 0,0.5625 c 0,13.01814 -10.54436,23.5625 -23.5625,23.5625 -13.01814,0 -23.5625,-10.54436 -23.5625,-23.5625 0,-13.01814 10.54436,-23.5625 23.5625,-23.5625 z"
           style="fill:#302975;fill-opacity:0.97254902;stroke:none"
           inkscape:connector-curvature="0" />
        <g
           id="g3080"
           transform="matrix(0.72759666,0,0,0.80335423,122.25014,16.269581)">
          <path
             sodipodi:nodetypes="scccs"
             inkscape:connector-curvature="0"
             id="rect3052-0"
             d="m 337.67809,667.43022 c 12.186,0.64247 9.70754,34.00669 9.70754,61.13774 1.41829,49.28603 -1.28744,111.74956 -9.70754,171.65594 -7.94744,-60.01809 -9.70754,-124.15444 -9.70754,-171.65594 0.52474,-27.71892 -1.44249,-61.72562 9.70754,-61.13774 z"
             style="fill:#302975;fill-opacity:0.97254902;stroke:none" />
        </g>
      </g>
      <g
         transform="matrix(1.1960569,0,0,-1.1960569,287.06201,1874.1561)"
         id="g3187">
        <path
           style="fill:#ff6600;fill-opacity:0.97254902;stroke:none"
           d="m 67.46875,836.1875 0,0.25 c -12.1458,13.23986 -20.5,40.80207 -20.5,72.6875 0,16.76935 2.323478,44.31865 6.28125,57.25 -1.416871,-20.12638 -0.603324,-20.73758 -0.625,-25.34375 -0.644597,-20.72221 5.014168,-51.13091 15.173883,-59.14034 9.515691,7.868 14.678103,37.92845 14.669867,59.14034 -0.18031,6.80448 -0.06978,6.40339 -0.5625,25.34375 3.957944,-12.93156 6.28125,-40.48189 6.28125,-57.25 0,-31.88306 -8.355669,-59.4465 -20.5,-72.6875 l 0,-0.25 c -0.03921,0.042 -0.08587,0.0827 -0.125,0.125 -0.03496,-0.0378 -0.05873,-0.0875 -0.09375,-0.125 z"
           id="path3084"
           inkscape:connector-curvature="0"
           sodipodi:nodetypes="ccscccccscccc" />
        <path
           style="fill:#ffff00;fill-opacity:0.97254902;stroke:none"
           d="m 67.620438,895.21211 0,0.13666 c -6.639117,7.23715 -11.205678,22.30317 -11.205678,39.73232 0,9.16644 1.270054,24.22539 3.433451,31.29391 -0.774488,-11.00145 -0.329797,-11.33555 -0.341646,-13.85336 -0.352344,-11.32715 2.740834,-27.9491 8.294328,-32.3272 5.201451,4.30079 8.023318,20.73239 8.018819,32.3272 -0.09861,3.71945 -0.03819,3.50021 -0.307472,13.85336 2.163489,-7.06863 3.433451,-22.12815 3.433451,-31.29391 0,-17.42786 -4.567372,-32.49455 -11.205678,-39.73232 l 0,-0.13666 c -0.02145,0.023 -0.04695,0.0453 -0.0684,0.0684 -0.01909,-0.0207 -0.03204,-0.0479 -0.05127,-0.0684 z"
           id="path3084-5"
           inkscape:connector-curvature="0"
           sodipodi:nodetypes="ccscccccscccc" />
      </g>
      <path
         sodipodi:nodetypes="ccc"
         inkscape:connector-curvature="0"
         id="path3202"
         d="M 305.71429,541.6479 C 246.78987,575.07157 256.83366,677.40468 259.28571,688.07647 257.5358,547.60958 317.85021,545.87133 305.71429,541.6479 z"
         style="fill:#e6e6e6;stroke:none" />
      <path
         sodipodi:nodetypes="ccccc"
         inkscape:connector-curvature="0"
         id="path3984"
         d="m 367.14286,137.36218 c -49.68322,151.84001 -56.38806,270.0106 -53.57144,392.14286 5.11966,4.03793 13.07755,3.37846 13.57144,42.14286 l 4.28571,90 c -0.1829,-169.8848 -13.11088,-309.02993 35.71429,-524.28572 z"
         style="fill:#ffffff;stroke:none" />
      <path
         inkscape:connector-curvature="0"
         id="path3986"
         d="m 381.90107,299.65625 c -0.0377,14.15456 -11.51573,25.60923 -25.67914,25.60923 -0.35002,0 -0.70197,-0.009 -1.0486,-0.0233 3.04236,2.09137 6.72487,3.33223 10.69576,3.33223 10.44268,0 18.92146,-8.47879 18.92146,-18.92147 l -0.0233,-0.46604 c -0.0858,-3.50818 -1.12773,-6.75171 -2.86618,-9.53065 z"
         style="fill:#b3b3b3;fill-opacity:0.97254902;stroke:none" />
      <path
         sodipodi:nodetypes="cccc"
         inkscape:connector-curvature="0"
         id="path3984-5"
         d="m 367.23387,533.99243 c -13.17376,-0.088 -14.5953,5.75904 -15.10778,27.23118 l 2.47569,58.15471 c -0.80646,-66.70876 -0.24811,-81.70094 12.63209,-85.38589 z"
         style="fill:#ffffff;stroke:none" />
    </g>
  </g>
</svg>
