<?xml version="1.0" encoding="UTF-8" standalone="no"?>
<!-- Created with Inkscape (http://www.inkscape.org/) -->

<svg
   xmlns:dc="http://purl.org/dc/elements/1.1/"
   xmlns:cc="http://creativecommons.org/ns#"
   xmlns:rdf="http://www.w3.org/1999/02/22-rdf-syntax-ns#"
   xmlns:svg="http://www.w3.org/2000/svg"
   xmlns="http://www.w3.org/2000/svg"
   xmlns:xlink="http://www.w3.org/1999/xlink"
   xmlns:sodipodi="http://sodipodi.sourceforge.net/DTD/sodipodi-0.dtd"
   xmlns:inkscape="http://www.inkscape.org/namespaces/inkscape"
   width="120.03"
   height="494.15948"
   id="svg3869"
   version="1.1"
   inkscape:version="0.48.4 r9939"
   sodipodi:docname="Nou document 18">
  <defs
     id="defs3871">
    <radialGradient
       id="radialGradient3408"
       gradientUnits="userSpaceOnUse"
       cy="959.82001"
       cx="60"
       gradientTransform="matrix(0.37861,-7.4682e-8,2.4955e-7,0.25494,262.94357,417.50764)"
       r="30.5"
       inkscape:collect="always">
      <stop
         id="stop3966"
         style="stop-color:#000000"
         offset="0" />
      <stop
         id="stop3968"
         style="stop-color:#4d4d4d"
         offset="1" />
    </radialGradient>
    <filter
       id="filter4544"
       height="1.4972"
       width="2.4935"
       color-interpolation-filters="sRGB"
       y="-0.24862"
       x="-0.74675"
       inkscape:collect="always">
      <feGaussianBlur
         id="feGaussianBlur4546"
         stdDeviation="8.5767917"
         inkscape:collect="always" />
    </filter>
    <linearGradient
       id="linearGradient3406"
       y2="202.38"
       gradientUnits="userSpaceOnUse"
       x2="113.81"
       gradientTransform="matrix(0.5,0,0,0.5,256.44357,192.53764)"
       y1="202.38"
       x1="26.188"
       inkscape:collect="always">
      <stop
         id="stop4377"
         style="stop-color:#000000;stop-opacity:.102"
         offset="0" />
      <stop
         id="stop4383"
         style="stop-color:#000000"
         offset=".32882" />
      <stop
         id="stop4379"
         style="stop-color:#000000;stop-opacity:.102"
         offset="1" />
    </linearGradient>
    <filter
       id="filter4369"
       height="1.6744"
       width="1.6744"
       color-interpolation-filters="sRGB"
       y="-0.33719999"
       x="-0.33719999"
       inkscape:collect="always">
      <feGaussianBlur
         id="feGaussianBlur4371"
         stdDeviation="5.62"
         inkscape:collect="always" />
    </filter>
    <filter
       id="filter4244"
       height="1.214"
       width="1.0834"
       color-interpolation-filters="sRGB"
       y="-0.10701"
       x="-0.041687001"
       inkscape:collect="always">
      <feGaussianBlur
         id="feGaussianBlur4246"
         stdDeviation="0.44726562"
         inkscape:collect="always" />
    </filter>
    <linearGradient
       id="linearGradient3402"
       y2="812.35999"
       gradientUnits="userSpaceOnUse"
       x2="185"
       gradientTransform="matrix(0.5,0,0,0.5,146.41357,192.53764)"
       y1="812.35999"
       x1="175"
       inkscape:collect="always">
      <stop
         id="stop4157"
         style="stop-color:#808080"
         offset="0" />
      <stop
         id="stop4163"
         style="stop-color:#e6e6e6"
         offset=".49983" />
      <stop
         id="stop4159"
         style="stop-color:#808080"
         offset="1" />
    </linearGradient>
    <linearGradient
       id="linearGradient3400"
       y2="1067.4"
       xlink:href="#linearGradient3883"
       gradientUnits="userSpaceOnUse"
       x2="-29.5"
       gradientTransform="matrix(0.5,0,0,0.5,366.44357,192.53764)"
       y1="1067.4"
       x1="-50.5"
       inkscape:collect="always" />
    <linearGradient
       id="linearGradient3883"
       inkscape:collect="always">
      <stop
         id="stop3885"
         style="stop-color:#4d4d4d"
         offset="0" />
      <stop
         id="stop3887"
         style="stop-color:#020202"
         offset="1" />
    </linearGradient>
    <linearGradient
       id="linearGradient3398"
       y2="1067.4"
       xlink:href="#linearGradient3883"
       gradientUnits="userSpaceOnUse"
       x2="-29.5"
       gradientTransform="matrix(0.5,0,0,0.5,256.44357,192.53764)"
       y1="1067.4"
       x1="-50.5"
       inkscape:collect="always" />
    <linearGradient
       id="linearGradient3396"
       y2="889.88"
       xlink:href="#linearGradient4021"
       gradientUnits="userSpaceOnUse"
       x2="-29.5"
       gradientTransform="matrix(0.5,0,0,0.5,256.44357,192.53764)"
       y1="889.88"
       x1="-50.5"
       inkscape:collect="always" />
    <linearGradient
       id="linearGradient4021"
       inkscape:collect="always">
      <stop
         id="stop4023"
         style="stop-color:#989477"
         offset="0" />
      <stop
         id="stop4029"
         style="stop-color:#625e4a"
         offset=".15860" />
      <stop
         id="stop4031"
         style="stop-color:#625e4a"
         offset=".42377" />
      <stop
         id="stop4035"
         style="stop-color:#9f9b83"
         offset=".74702" />
      <stop
         id="stop4033"
         style="stop-color:#938f73"
         offset=".95157" />
      <stop
         id="stop4025"
         style="stop-color:#625e4a"
         offset="1" />
    </linearGradient>
    <linearGradient
       id="linearGradient3394"
       y2="902.35999"
       xlink:href="#linearGradient4135"
       gradientUnits="userSpaceOnUse"
       x2="-45"
       gradientTransform="matrix(0.5,0,0,0.5,256.44357,192.53764)"
       y1="887.35999"
       x1="30"
       inkscape:collect="always" />
    <linearGradient
       id="linearGradient4135"
       inkscape:collect="always">
      <stop
         id="stop4137"
         style="stop-color:#313833"
         offset="0" />
      <stop
         id="stop4141"
         style="stop-color:#728277"
         offset=".46154" />
      <stop
         id="stop4139"
         style="stop-color:#728277"
         offset="1" />
    </linearGradient>
    <linearGradient
       id="linearGradient3390"
       y2="972.35999"
       xlink:href="#linearGradient4007"
       gradientUnits="userSpaceOnUse"
       x2="-29.5"
       gradientTransform="matrix(0.5,0,0,0.5,256.44357,192.53764)"
       y1="972.35999"
       x1="-50.5"
       inkscape:collect="always" />
    <linearGradient
       id="linearGradient4007">
      <stop
         id="stop4009"
         style="stop-color:#38342e"
         offset="0" />
      <stop
         id="stop4019"
         style="stop-color:#71695c"
         offset=".55130" />
      <stop
         id="stop4017"
         style="stop-color:#5f5a4e"
         offset="0.9" />
      <stop
         id="stop4011"
         style="stop-color:#38342e"
         offset="1" />
    </linearGradient>
    <linearGradient
       id="linearGradient3388"
       y2="889.88"
       xlink:href="#linearGradient4021"
       gradientUnits="userSpaceOnUse"
       x2="190.5"
       gradientTransform="matrix(0.5,0,0,0.5,256.44357,192.53764)"
       y1="889.88"
       x1="169.5"
       inkscape:collect="always" />
    <linearGradient
       id="linearGradient3386"
       y2="316.59"
       gradientUnits="userSpaceOnUse"
       x2="70"
       y1="258.13"
       x1="70"
       inkscape:collect="always">
      <stop
         id="stop4185"
         style="stop-color:#5d5d5d"
         offset="0" />
      <stop
         id="stop4187"
         style="stop-color:#ffffff"
         offset="1" />
    </linearGradient>
    <linearGradient
       id="linearGradient3384"
       y2="907.35999"
       xlink:href="#linearGradient4135"
       gradientUnits="userSpaceOnUse"
       x2="175"
       gradientTransform="matrix(0.5,0,0,0.5,256.44357,192.53764)"
       y1="897.35999"
       x1="110"
       inkscape:collect="always" />
    <radialGradient
       id="radialGradient3382"
       gradientUnits="userSpaceOnUse"
       cy="959.82001"
       cx="60"
       gradientTransform="matrix(0.32787,-1.4407e-7,2.161e-7,0.4918,266.74357,199.17764)"
       r="30.5"
       inkscape:collect="always">
      <stop
         id="stop4119"
         style="stop-color:#313833"
         offset="0" />
      <stop
         id="stop4121"
         style="stop-color:#728277"
         offset="1" />
    </radialGradient>
    <linearGradient
       id="linearGradient3378"
       y2="983.57001"
       xlink:href="#linearGradient4107"
       gradientUnits="userSpaceOnUse"
       x2="70"
       gradientTransform="matrix(0.5,0,0,0.34918,256.44357,339.81764)"
       y1="956.10999"
       x1="70"
       inkscape:collect="always" />
    <linearGradient
       id="linearGradient4107">
      <stop
         id="stop4109"
         style="stop-color:#1c1a17"
         offset="0" />
      <stop
         id="stop4115"
         style="stop-color:#71695c"
         offset="1" />
    </linearGradient>
    <linearGradient
       id="linearGradient3374"
       y2="812.35999"
       gradientUnits="userSpaceOnUse"
       x2="185"
       gradientTransform="matrix(0.5,0,0,0.5,256.44357,192.53764)"
       y1="812.35999"
       x1="175"
       inkscape:collect="always">
      <stop
         id="stop4177"
         style="stop-color:#808080"
         offset="0" />
      <stop
         id="stop4179"
         style="stop-color:#e6e6e6"
         offset=".49983" />
      <stop
         id="stop4181"
         style="stop-color:#808080"
         offset="1" />
    </linearGradient>
    <linearGradient
       id="linearGradient3370"
       y2="972.35999"
       xlink:href="#linearGradient4007"
       gradientUnits="userSpaceOnUse"
       x2="190.5"
       gradientTransform="matrix(0.5,0,0,0.5,256.44357,192.53764)"
       y1="972.35999"
       x1="169.5"
       inkscape:collect="always" />
    <linearGradient
       id="linearGradient3716">
      <stop
         id="stop3718"
         style="stop-color:#38342e"
         offset="0" />
      <stop
         id="stop3720"
         style="stop-color:#71695c"
         offset=".55130" />
      <stop
         id="stop3722"
         style="stop-color:#5f5a4e"
         offset="0.9" />
      <stop
         id="stop3724"
         style="stop-color:#38342e"
         offset="1" />
    </linearGradient>
    <linearGradient
       id="linearGradient3368"
       y2="392.38"
       xlink:href="#linearGradient4021"
       gradientUnits="userSpaceOnUse"
       x2="120"
       gradientTransform="matrix(0.5,0,0,0.5,256.44357,192.53764)"
       y1="392.38"
       x1="20"
       inkscape:collect="always" />
    <filter
       id="filter4706"
       height="1.8767"
       width="1.6108"
       color-interpolation-filters="sRGB"
       y="-0.43832999"
       x="-0.30542001"
       inkscape:collect="always">
      <feGaussianBlur
         id="feGaussianBlur4708"
         stdDeviation="9.1546875"
         inkscape:collect="always" />
    </filter>
    <linearGradient
       id="linearGradient3364"
       y2="989.67999"
       xlink:href="#linearGradient4107"
       gradientUnits="userSpaceOnUse"
       x2="70"
       gradientTransform="matrix(0.53788,0,0,0.5,253.74357,192.53764)"
       y1="979.14001"
       x1="70"
       inkscape:collect="always" />
    <linearGradient
       id="linearGradient3744">
      <stop
         id="stop3746"
         style="stop-color:#1c1a17"
         offset="0" />
      <stop
         id="stop3748"
         style="stop-color:#71695c"
         offset="1" />
    </linearGradient>
    <linearGradient
       id="linearGradient3362"
       y2="523.13"
       xlink:href="#linearGradient3970"
       gradientUnits="userSpaceOnUse"
       x2="120"
       gradientTransform="matrix(0.5,0,0,0.5,256.44357,192.53764)"
       y1="523.13"
       x1="20"
       inkscape:collect="always" />
    <linearGradient
       id="linearGradient3970">
      <stop
         id="stop3972"
         style="stop-color:#1c1a17"
         offset="0" />
      <stop
         id="stop3974"
         style="stop-color:#71695c"
         offset=".55130" />
      <stop
         id="stop3976"
         style="stop-color:#5f5a4e"
         offset="0.9" />
      <stop
         id="stop3978"
         style="stop-color:#38342e"
         offset="1" />
    </linearGradient>
    <linearGradient
       id="linearGradient3358"
       y2="1000.7"
       xlink:href="#linearGradient4107"
       gradientUnits="userSpaceOnUse"
       x2="70"
       gradientTransform="matrix(0.57787,0,0,0.5,250.94357,192.53764)"
       y1="990.96997"
       x1="70"
       inkscape:collect="always" />
    <linearGradient
       id="linearGradient3757">
      <stop
         id="stop3759"
         style="stop-color:#1c1a17"
         offset="0" />
      <stop
         id="stop3761"
         style="stop-color:#71695c"
         offset="1" />
    </linearGradient>
    <linearGradient
       id="linearGradient3354"
       y2="1010.5"
       xlink:href="#linearGradient4107"
       gradientUnits="userSpaceOnUse"
       x2="70"
       gradientTransform="matrix(0.63048,0,0,0.5,247.24357,192.53764)"
       y1="1002"
       x1="70"
       inkscape:collect="always" />
    <linearGradient
       id="linearGradient3764">
      <stop
         id="stop3766"
         style="stop-color:#1c1a17"
         offset="0" />
      <stop
         id="stop3768"
         style="stop-color:#71695c"
         offset="1" />
    </linearGradient>
  </defs>
  <sodipodi:namedview
     id="base"
     pagecolor="#ffffff"
     bordercolor="#666666"
     borderopacity="1.0"
     inkscape:pageopacity="0.0"
     inkscape:pageshadow="2"
     inkscape:zoom="0.35"
     inkscape:cx="143.58643"
     inkscape:cy="201.36546"
     inkscape:document-units="px"
     inkscape:current-layer="capa1"
     showgrid="false"
     fit-margin-top="0"
     fit-margin-left="0"
     fit-margin-right="0"
     fit-margin-bottom="0"
     inkscape:window-width="555"
     inkscape:window-height="421"
     inkscape:window-x="984"
     inkscape:window-y="166"
     inkscape:window-maximized="0" />
  <metadata
     id="metadata3874">
    <rdf:RDF>
      <cc:Work
         rdf:about="">
        <dc:format>image/svg+xml</dc:format>
        <dc:type
           rdf:resource="http://purl.org/dc/dcmitype/StillImage" />
        <dc:title></dc:title>
      </cc:Work>
    </rdf:RDF>
  </metadata>
  <g
     inkscape:label="Capa 1"
     inkscape:groupmode="layer"
     id="capa1"
     transform="translate(-231.41357,-239.56815)">
    <path
       id="path3288"
       d="m 291.14357,558.31764 -2.5,42.672 -2.5,7.3281 v 10 7.5 92.5 h 10 v -92.5 -7.5 -10 l -2.5,-7.4375 -2.5,-42.562 z"
       style="fill:#000000"
       inkscape:connector-curvature="0" />
    <path
       id="path3290"
       style="fill:url(#linearGradient3354)"
       d="m 281.94357,671.21764 h 18.914 l 9.4572,25 c -12.362,3.0374 -25.437,2.9177 -37.829,0 z"
       sodipodi:nodetypes="ccccc"
       inkscape:connector-curvature="0"
       inkscape:original-d="m 1040.5175,755.8787 18.9143,0 9.4572,25.00001 c -12.0333,2.9565 -24.6204,3.11005 -37.8287,0 z" />
    <path
       id="path3292"
       style="fill:url(#linearGradient3358)"
       d="m 282.74357,665.40764 h 17.336 l 8.668,25 c -11.29,3.0264 -23.351,2.9084 -34.672,0 z"
       sodipodi:nodetypes="ccccc"
       inkscape:connector-curvature="0"
       inkscape:original-d="m 1041.3067,750.07032 17.3359,0 8.668,25.00001 c -11.0291,2.95648 -22.5659,3.11003 -34.6719,0 z" />
    <path
       id="path3294"
       d="m 291.44357,243.72765 c 0,0 -25,52.5 -25,92.5 v 287.49999 c 0,17.401 6.25,28.651 12.5,35.551 6,6.9425 19,6.9425 25,0 6.25,-6.8996 12.5,-18.15 12.5,-35.551 V 336.22765 c 0,-40 -25,-92.5 -25,-92.5 z"
       sodipodi:nodetypes="cssccscc"
       style="fill:url(#linearGradient3362)"
       inkscape:connector-curvature="0" />
    <path
       id="path3296"
       style="fill:url(#linearGradient3364)"
       d="m 283.34357,659.91764 h 16.136 l 8.0682,25 c -10.473,3.0161 -21.767,2.8996 -32.273,0 z"
       sodipodi:nodetypes="ccccc"
       inkscape:connector-curvature="0"
       inkscape:original-d="m 1041.9064,744.57762 16.1365,0 8.0682,25.00001 c -10.266,2.95649 -21.0045,3.11004 -32.2729,0 z" />
    <path
       id="path3298"
       d="m 1354.7,893.78 c 0.389,27.764 16.338,50.125 35.969,50.125 19.631,0 35.58,-22.361 35.969,-50.125 H 1354.7 z"
       style="opacity:0.3;fill:#000000;filter:url(#filter4706)"
       transform="matrix(0.49999999,0,0,0.49999999,-403.89643,192.53764)"
       inkscape:connector-curvature="0" />
    <path
       id="path3300"
       d="m 277.64357,278.72765 c -3.0645,9.2432 -6.0284,19.568 -8.1406,30 h 43.812 c -2.1122,-10.432 -5.0761,-20.757 -8.1406,-30 h -27.531 z"
       style="fill:#e1dba1"
       inkscape:connector-curvature="0" />
    <path
       id="path3302"
       d="m 266.44357,373.72764 v 30 h 50 v -30 h -50 z"
       style="fill:url(#linearGradient3368)"
       inkscape:connector-curvature="0" />
    <path
       id="path3304"
       style="fill:url(#linearGradient3370)"
       d="m 341.44357,623.71764 h 10 v 110 h -10 z"
       inkscape:connector-curvature="0"
       inkscape:original-d="m 1099.9747,708.3787 10,0 0,110.00001 -10,0 z" />
    <path
       id="path3306"
       style="fill:url(#linearGradient3374)"
       d="m 341.44357,623.71764 h 10 l -2.5,-7.4257 v -10e-6 l -2.5,-42.574 -2.5,42.68 z"
       sodipodi:nodetypes="cccccc"
       inkscape:connector-curvature="0"
       inkscape:original-d="m 1099.9747,708.3787 10,0 -2.5,-7.42574 -2.5,-42.57426 -2.5,42.68034 z" />
    <path
       id="path3308"
       style="fill:url(#linearGradient3378)"
       d="m 283.94357,661.80764 h 15 l 7.5,17.459 c -9.8465,2.1304 -20.136,2.0454 -30,0 z"
       sodipodi:nodetypes="ccccc"
       inkscape:connector-curvature="0"
       inkscape:original-d="m 1042.4747,746.47165 15,0 7.5,17.45921 c -9.543,2.06472 -19.5252,2.17195 -30,0 z" />
    <path
       id="path3310"
       d="m 278.24357,658.53764 c -1.1793,1.9461 -1.8593,4.1841 -1.8593,6.5625 0,7.5249 6.7157,13.625 15,13.625 8.2842,0 15,-6.1001 15,-13.625 0,-2.3784 -0.6801,-4.6164 -1.8594,-6.5625 -0.2133,0.24593 -0.4271,0.49868 -0.6406,0.73438 -6,6.9425 -19,6.9425 -25,0 -0.2136,-0.2357 -0.4274,-0.48845 -0.6407,-0.73438 z"
       style="fill:url(#radialGradient3382)"
       inkscape:connector-curvature="0" />
    <path
       id="path3312"
       d="m 311.44357,608.72764 v 14.994 c 0,8.999 -2.07,17.686 -7.5,27.506 10.169,0.56207 30.645,13.229 33.094,35.297 l 4.4063,39.703 v -35 -10 -52.5 c -1.5987,0.6123 -3.0868,2.2188 -5,0 -4.5322,-9.1103 -13.831,-15.156 -25,-20 z"
       sodipodi:nodetypes="cscscccccc"
       style="fill:url(#linearGradient3384)"
       inkscape:connector-curvature="0" />
    <path
       id="path3314"
       sodipodi:rx="30"
       sodipodi:ry="30"
       style="fill:#666666"
       sodipodi:type="arc"
       d="m 100,287.36218 c 0,16.56855 -13.431458,30 -30,30 -16.568542,0 -30,-13.43145 -30,-30 0,-16.56854 13.431458,-30 30,-30 16.568542,0 30,13.43146 30,30 z"
       transform="matrix(0.40832999,0,0,0.40832999,262.84356,218.87764)"
       sodipodi:cy="287.36218"
       sodipodi:cx="70" />
    <path
       id="path3316"
       sodipodi:rx="30"
       sodipodi:ry="30"
       style="fill:url(#linearGradient3386)"
       sodipodi:type="arc"
       d="m 100,287.36218 c 0,16.56855 -13.431458,30 -30,30 -16.568542,0 -30,-13.43145 -30,-30 0,-16.56854 13.431458,-30 30,-30 16.568542,0 30,13.43146 30,30 z"
       transform="matrix(0.325,0,0,0.325,268.64356,242.82764)"
       sodipodi:cy="287.36218"
       sodipodi:cx="70" />
    <path
       id="path3318"
       d="m 341.44357,633.72764 v 7.5 h 10 v -7.5 h -10 z"
       style="fill:url(#linearGradient3388)"
       inkscape:connector-curvature="0" />
    <path
       id="path3320"
       style="fill:url(#linearGradient3390)"
       d="m 241.41357,623.71764 h -10 v 110 h 1e-5 10 z"
       inkscape:connector-curvature="0"
       inkscape:original-d="m 999.97465,708.3787 -10,0 0,110.00001 10,0 z" />
    <path
       id="path3322"
       sodipodi:nodetypes="cscscccccc"
       style="fill:url(#linearGradient3394)"
       inkscape:connector-curvature="0"
       d="m 271.44357,608.72764 v 14.994 c 0,8.999 2.0699,17.686 7.5,27.506 -10.17,0.56207 -30.645,13.229 -33.094,35.297 l -4.4062,39.703 v -35 -10 -52.5 c 1.5986,0.6123 3.0868,2.2188 5,0 4.5321,-9.1103 13.831,-15.156 25,-20 z" />
    <path
       id="path3324"
       style="fill:url(#linearGradient3396)"
       inkscape:connector-curvature="0"
       d="m 241.41357,633.72764 v 7.5 h -10 v -7.5 h 10 z" />
    <path
       id="path3326"
       style="fill:url(#linearGradient3398)"
       inkscape:connector-curvature="0"
       d="m 241.41357,718.72764 v 15 h -10 v -15 h 10 z" />
    <path
       id="path3328"
       d="m 277.64357,278.72765 c -0.4146,1.2506 -0.8253,2.5248 -1.2343,3.8125 v 1.1875 h 5 v -5 h -3.7657 z m 3.7657,5 v 5 h 5 v -5 h -5 z m 5,0 h 5 v -5 h -5 v 5 z m 5,0 v 5 h 5 v -5 h -5 z m 5,0 h 5 v -5 h -5 v 5 z m 5,0 v 5 h 5 v -5 h -5 z m 5,5 v 5 h 3.3125 c -0.4612,-1.6864 -0.937,-3.3505 -1.4219,-5 h -1.8906 z m 0,5 h -5 v 5 h 5 v -5 z m 0,5 v 5 h 5 v -3.4688 c -0.1252,-0.51139 -0.2625,-1.0218 -0.3907,-1.5312 h -4.6093 z m 5,5 v 5 h 1.9062 c -0.3385,-1.6716 -0.699,-3.3379 -1.0781,-5 h -0.8281 z m -5,0 h -5 v 5 h 5 v -5 z m -5,0 v -5 h -5 v 5 h 5 z m -5,0 h -5 v 5 h 5 v -5 z m -5,0 v -5 h -5 v 5 h 5 z m -5,0 h -5 v 5 h 5 v -5 z m -5,0 v -5 h -5 v 5 h 5 z m -5,0 h -5 v 5 h 5 v -5 z m 0,-5 v -5 h -3.3125 c -0.4508,1.6482 -0.8754,3.3252 -1.2969,5 h 4.6094 z m 0,-5 h 5 v -5 h -5 v 5 z m 0,-5 v -5 h -0.375 c -0.5153,1.6449 -1.0179,3.3066 -1.5157,5 h 1.8907 z m 5,5 v 5 h 5 v -5 h -5 z m 5,0 h 5 v -5 h -5 v 5 z m 5,0 v 5 h 5 v -5 h -5 z m 5,0 h 5 v -5 h -5 v 5 z"
       style="fill:#38342e"
       inkscape:connector-curvature="0" />
    <path
       id="path3330"
       d="m 231.91357,718.72764 v 15 h 1 v -15 h -1 z m 2,0 v 15 h 1 v -15 h -1 z m 2,0 v 15 h 1 v -15 h -1 z m 2,0 v 15 h 1 v -15 h -1 z m 2,0 v 15 h 1 v -15 h -1 z"
       style="opacity:0.5;fill:#000000"
       inkscape:connector-curvature="0" />
    <path
       id="path3332"
       style="fill:url(#linearGradient3400)"
       inkscape:connector-curvature="0"
       d="m 351.44357,718.72764 v 15 h -10 v -15 h 10 z" />
    <path
       id="path3334"
       style="opacity:0.5;fill:#000000"
       inkscape:connector-curvature="0"
       d="m 341.94357,718.72764 v 15 h 1 v -15 h -1 z m 2,0 v 15 h 1 v -15 h -1 z m 2,0 v 15 h 1 v -15 h -1 z m 2,0 v 15 h 1 v -15 h -1 z m 2,0 v 15 h 1 v -15 h -1 z" />
    <path
       id="path3336"
       style="fill:url(#linearGradient3402)"
       d="m 231.41357,623.71764 h 10 l -2.5,-7.4257 v -10e-6 l -2.5,-42.574 -2.5,42.68 z"
       sodipodi:nodetypes="cccccc"
       inkscape:connector-curvature="0"
       inkscape:original-d="m 989.97465,708.3787 10,0 -2.5,-7.42574 -2.5,-42.57426 -2.5,42.68034 z" />
    <path
       id="path3338"
       d="m 1390.6,296.84 c -5.4762,0 -10.256,2.0501 -12.875,5.125 3.4371,3.0324 7.931,4.9062 12.875,4.9062 4.9439,0 9.4378,-1.8739 12.875,-4.9062 -2.6187,-3.0749 -7.3989,-5.125 -12.875,-5.125 z"
       style="opacity:0.5;fill:#ffffff;filter:url(#filter4244)"
       transform="matrix(0.49999999,0,0,0.49999999,-403.89643,192.53764)"
       inkscape:connector-curvature="0" />
    <path
       id="path3340"
       sodipodi:rx="20"
       sodipodi:ry="20"
       style="opacity:0.5;fill:#ffffff;filter:url(#filter4369)"
       sodipodi:type="arc"
       d="m 90,302.36218 c 0,11.0457 -8.954305,20 -20,20 -11.045695,0 -20,-8.9543 -20,-20 0,-11.04569 8.954305,-20 20,-20 11.045695,0 20,8.95431 20,20 z"
       transform="matrix(0.49999999,0,0,0.49999999,256.44356,189.87764)"
       sodipodi:cy="302.36218"
       sodipodi:cx="70" />
    <path
       id="path3342"
       d="m 279.14357,335.84765 c 0,0.12293 -0.015,0.25119 -0.015,0.375 0,6.76549 5.4845,12.24999 12.25,12.24999 6.7654,0 12.25,-5.4845 12.25,-12.24999 0,-0.12381 -0.012,-0.25207 -0.015,-0.375 -0.3281,6.47249 -5.6803,11.62499 -12.234,11.62499 -6.5541,0 -11.906,-5.1525 -12.234,-11.62499 z"
       style="fill:#999999"
       inkscape:connector-curvature="0" />
    <path
       id="path3344"
       style="opacity:0.5;fill:url(#linearGradient3406)"
       inkscape:connector-curvature="0"
       d="m 277.64357,278.72765 c -3.0645,9.2432 -6.0284,19.568 -8.1406,30 h 43.812 c -2.1122,-10.432 -5.0761,-20.757 -8.1406,-30 h -27.531 z" />
    <path
       id="path3346"
       d="m 290.94357,326.47765 c -5.1517,0.26114 -9.25,4.5335 -9.25,9.75 0,0.16302 0.01,0.32332 0.015,0.48438 0.2611,-5.1516 4.5178,-9.2344 9.7344,-9.2344 5.2165,0 9.4732,4.0828 9.7343,9.2344 0.01,-0.16106 0.015,-0.32136 0.015,-0.48438 0,-5.3848 -4.3652,-9.75 -9.75,-9.75 -0.1683,0 -0.3338,-0.008 -0.5,0 z"
       style="fill:#333333"
       inkscape:connector-curvature="0" />
    <path
       id="path3348"
       sodipodi:rx="13.447656"
       sodipodi:ry="41.479389"
       style="opacity:0.15;fill:#ffffff;filter:url(#filter4544)"
       sodipodi:type="arc"
       d="m 95.333146,155.15732 c 0,22.90843 -6.02072,41.47939 -13.447656,41.47939 -7.426935,0 -13.447655,-18.57096 -13.447655,-41.47939 0,-22.90844 6.02072,-41.47939 13.447655,-41.47939 7.426936,0 13.447656,18.57095 13.447656,41.47939 z"
       transform="matrix(0.43566999,-0.028805,0.032986,0.49890999,251.94356,195.50764)"
       sodipodi:cy="155.15732"
       sodipodi:cx="81.88549" />
    <path
       id="path3350"
       style="opacity:0.5;fill:#333333"
       inkscape:connector-curvature="0"
       d="m 286.64357,703.31764 v 15 h 1 v -15 h -1 z m 2,0 v 15 h 1 v -15 h -1 z m 2,0 v 15 h 1 v -15 h -1 z m 2,0 v 15 h 1 v -15 h -1 z m 2,0 v 15 h 1 v -15 h -1 z" />
    <path
       id="path3352"
       style="fill:url(#radialGradient3408)"
       inkscape:connector-curvature="0"
       d="m 276.24357,655.62764 c -1.3619,1.0088 -2.1472,2.169 -2.1472,3.4019 0,3.9007 7.7551,7.0629 17.322,7.0629 9.5663,0 17.321,-3.1622 17.321,-7.0629 0,-1.2329 -0.7853,-2.393 -2.1472,-3.4019 -0.2462,0.12749 -0.4932,0.2585 -0.7397,0.38069 -6.9286,3.5989 -21.94,3.5989 -28.869,0 -0.2465,-0.12219 -0.4935,-0.2532 -0.7397,-0.38069 z" />
  </g>
</svg>
