<?xml version="1.0" encoding="UTF-8" standalone="no"?>
<!-- Creator: CorelDRAW -->

<svg
   xmlns:dc="http://purl.org/dc/elements/1.1/"
   xmlns:cc="http://creativecommons.org/ns#"
   xmlns:rdf="http://www.w3.org/1999/02/22-rdf-syntax-ns#"
   xmlns:svg="http://www.w3.org/2000/svg"
   xmlns="http://www.w3.org/2000/svg"
   xmlns:xlink="http://www.w3.org/1999/xlink"
   xmlns:sodipodi="http://sodipodi.sourceforge.net/DTD/sodipodi-0.dtd"
   xmlns:inkscape="http://www.inkscape.org/namespaces/inkscape"
   xml:space="preserve"
   width="275.44489"
   height="200.98421"
   style="fill-rule:evenodd"
   viewBox="0 0 8266.4332 10697.737"
   id="svg2"
   sodipodi:version="0.32"
   inkscape:version="0.48.2 r9819"
   sodipodi:docname="ivak_satellite.svg"
   inkscape:output_extension="org.inkscape.output.svg.inkscape"
   version="1.0"><sodipodi:namedview
   inkscape:window-height="932"
   inkscape:window-width="1279"
   inkscape:pageshadow="2"
   inkscape:pageopacity="0.0"
   guidetolerance="10.0"
   gridtolerance="10.0"
   objecttolerance="10.0"
   borderopacity="1.0"
   bordercolor="#666666"
   pagecolor="#ffffff"
   id="base"
   inkscape:zoom="1.4013766"
   inkscape:cx="48.491293"
   inkscape:cy="90.295302"
   inkscape:window-x="0"
   inkscape:window-y="0"
   inkscape:current-layer="svg2"
   width="1052.3622px"
   height="744.09449px"
   showguides="true"
   inkscape:guide-bbox="true"
   showgrid="false"
   fit-margin-top="0"
   fit-margin-left="0"
   fit-margin-right="0"
   fit-margin-bottom="0"
   inkscape:window-maximized="0" /><metadata
   id="metadata53"><rdf:RDF><cc:Work
       rdf:about=""><dc:format>image/svg+xml</dc:format><dc:type
         rdf:resource="http://purl.org/dc/dcmitype/StillImage" /></cc:Work></rdf:RDF></metadata>
 <defs
   id="defs4"><linearGradient
     id="linearGradient3482"><stop
       offset="0"
       id="stop3484"
       style="stop-color:#c6c6c6;stop-opacity:1;" /><stop
       offset="1"
       id="stop3486"
       style="stop-color:#1a1a1a;stop-opacity:1;" /></linearGradient><linearGradient
     id="linearGradient3494"><stop
       offset="0"
       id="stop3496"
       style="stop-color:#050101;stop-opacity:1;" /><stop
       offset="1"
       id="stop35889"
       style="stop-color:#ffffff;stop-opacity:1;" /></linearGradient><linearGradient
     id="linearGradient3504"><stop
       offset="0"
       id="stop3506"
       style="stop-color:#d9d9d9;stop-opacity:0;" /><stop
       offset="0.62962961"
       id="stop3512"
       style="stop-color:#ffffff;stop-opacity:1;" /><stop
       offset="1"
       id="stop3508"
       style="stop-color:#e9e9e9;stop-opacity:0;" /></linearGradient><linearGradient
     id="linearGradient3528"><stop
       offset="0"
       id="stop3530"
       style="stop-color:#000000;stop-opacity:1;" /><stop
       offset="0.5"
       id="stop3536"
       style="stop-color:#ffffff;stop-opacity:1;" /><stop
       offset="1"
       id="stop3532"
       style="stop-color:#0d0000;stop-opacity:1;" /></linearGradient><linearGradient
     inkscape:collect="always"
     id="linearGradient3998"><stop
       offset="0"
       id="stop4000"
       style="stop-color:#000000;stop-opacity:1;" /><stop
       offset="1"
       id="stop4002"
       style="stop-color:#000000;stop-opacity:0;" /></linearGradient><linearGradient
     id="linearGradient4155"><stop
       offset="0"
       id="stop4157"
       style="stop-color:#ffffff;stop-opacity:1;" /><stop
       offset="1"
       id="stop4159"
       style="stop-color:#040000;stop-opacity:1;" /></linearGradient><linearGradient
     inkscape:collect="always"
     id="linearGradient4112"
     x1="4661.0132"
     x2="4371.8774"
     y1="2161.2021"
     gradientUnits="userSpaceOnUse"
     xlink:href="#linearGradient3891"
     y2="2395.5667" /><linearGradient
     inkscape:collect="always"
     id="linearGradient4110"
     x1="4669.9121"
     x2="4543.5845"
     y1="2297.1133"
     gradientUnits="userSpaceOnUse"
     xlink:href="#linearGradient3882"
     y2="2556.0872" /><radialGradient
     inkscape:collect="always"
     id="radialGradient2499"
     r="353.81644"
     gradientTransform="matrix(0.2626095,2.1140162,1.593363,0.08084568,-3332.4952,-8761.4909)"
     cx="5101.4014"
     cy="3720.0112"
     gradientUnits="userSpaceOnUse"
     xlink:href="#linearGradient3494"
     fy="3650.0562"
     fx="5068.1831" /><linearGradient
     inkscape:collect="always"
     id="linearGradient2486"
     x1="5408.1719"
     x2="5482.5557"
     gradientTransform="matrix(0.05490681,0.9360233,0.9369055,0.07208258,177.43451,-2718.9972)"
     y1="3589.5469"
     gradientUnits="userSpaceOnUse"
     xlink:href="#linearGradient3504"
     y2="3960.4746" /><linearGradient
     inkscape:collect="always"
     id="linearGradient2483"
     x1="5319.2505"
     x2="5371.2402"
     gradientTransform="matrix(0.1538595,0.9491793,1.024268,0.2725302,-672.36786,-3525.0627)"
     y1="3508.0549"
     gradientUnits="userSpaceOnUse"
     xlink:href="#linearGradient3528"
     y2="3569.7737" /><radialGradient
     inkscape:collect="always"
     id="radialGradient2480"
     r="329.35757"
     gradientTransform="matrix(-0.07390263,-0.6736502,-0.5952913,0.01185262,6512.545,5749.8588)"
     cx="5063.1255"
     cy="3747.4917"
     gradientUnits="userSpaceOnUse"
     xlink:href="#linearGradient3482"
     fy="3654.8857"
     fx="5132.6792" /><linearGradient
     inkscape:collect="always"
     id="linearGradient2477"
     x1="4002.8713"
     x2="4002.8713"
     gradientTransform="matrix(0.7063202,0.7078925,0.7078925,-0.7063202,-2472.4527,3092.3304)"
     y1="5251.73"
     gradientUnits="userSpaceOnUse"
     xlink:href="#linearGradient3998"
     y2="4560.9038" /><linearGradient
     id="linearGradient3864"><stop
       offset="0"
       id="stop3866"
       style="stop-color:#51519c;stop-opacity:1;" /><stop
       offset="1"
       id="stop3868"
       style="stop-color:#f3f3f9;stop-opacity:1;" /></linearGradient><linearGradient
     id="linearGradient3874"><stop
       offset="0"
       id="stop3876"
       style="stop-color:#454585;stop-opacity:1;" /><stop
       offset="1"
       id="stop3878"
       style="stop-color:#ffffff;stop-opacity:1;" /></linearGradient><linearGradient
     id="linearGradient3882"><stop
       offset="0"
       id="stop3884"
       style="stop-color:#3a3a63;stop-opacity:1;" /><stop
       offset="1"
       id="stop3887"
       style="stop-color:#babafd;stop-opacity:1;" /></linearGradient><linearGradient
     id="linearGradient3891"><stop
       offset="0"
       id="stop3893"
       style="stop-color:#454585;stop-opacity:1;" /><stop
       offset="1"
       id="stop3895"
       style="stop-color:#babafd;stop-opacity:1;" /></linearGradient><linearGradient
     id="linearGradient3919"><stop
       offset="0"
       id="stop3921"
       style="stop-color:#000000;stop-opacity:1;" /><stop
       offset="0.5"
       id="stop3927"
       style="stop-color:#a1a1a1;stop-opacity:1;" /><stop
       offset="1"
       id="stop3923"
       style="stop-color:#000000;stop-opacity:1;" /></linearGradient><linearGradient
     inkscape:collect="always"
     id="linearGradient4052"><stop
       offset="0"
       id="stop4054"
       style="stop-color:#000000;stop-opacity:1;" /><stop
       offset="1"
       id="stop4056"
       style="stop-color:#000000;stop-opacity:0;" /></linearGradient><linearGradient
     inkscape:collect="always"
     id="linearGradient4138"
     x1="4658.9404"
     x2="4497.8481"
     y1="2288.5483"
     gradientUnits="userSpaceOnUse"
     xlink:href="#linearGradient3874"
     y2="2633.7271" /><linearGradient
     inkscape:collect="always"
     id="linearGradient4136"
     x1="5064.0757"
     x2="4759.6128"
     y1="2318.8877"
     gradientUnits="userSpaceOnUse"
     xlink:href="#linearGradient3864"
     y2="2605.8926" /><linearGradient
     inkscape:collect="always"
     id="linearGradient3276"
     x1="4673.248"
     x2="4786.3569"
     y1="1627.0541"
     gradientUnits="userSpaceOnUse"
     xlink:href="#linearGradient3270"
     y2="1865.58" /><radialGradient
     inkscape:collect="always"
     id="radialGradient2296"
     r="119.15202"
     gradientTransform="matrix(-1.2731013,0.4058656,-0.3707116,-1.1628315,10557.889,3000.3787)"
     cx="3977.5588"
     cy="2415.3887"
     gradientUnits="userSpaceOnUse"
     xlink:href="#linearGradient4155"
     fy="2461.7117"
     fx="3964.4363" /><linearGradient
     inkscape:collect="always"
     id="linearGradient2293"
     x1="4157.4858"
     x2="4079.6199"
     gradientTransform="matrix(0.9396178,0.6789659,-0.6789659,0.9396178,2284.6642,-2975.2049)"
     y1="1786.7518"
     gradientUnits="userSpaceOnUse"
     xlink:href="#linearGradient4052"
     y2="2144.4167" /><linearGradient
     inkscape:collect="always"
     id="linearGradient2280"
     x1="4851.7173"
     x2="4886.1763"
     gradientTransform="matrix(0.07746716,1.15055,-1.1661037,-0.2705756,6242.2061,-3232.4053)"
     y1="1831.2935"
     gradientUnits="userSpaceOnUse"
     xlink:href="#linearGradient3919"
     y2="1800.791" /><linearGradient
     inkscape:collect="always"
     id="linearGradient2263"
     x1="4845.522"
     x2="4875.3574"
     gradientTransform="matrix(-0.00484554,-0.6111797,-0.7024383,0.00556905,5924.4542,4619.9417)"
     y1="1829.5306"
     gradientUnits="userSpaceOnUse"
     xlink:href="#linearGradient3919"
     y2="1800.0723" /><linearGradient
     inkscape:collect="always"
     id="linearGradient2248"
     x1="4845.522"
     x2="4875.3574"
     gradientTransform="matrix(0.842212,-0.05850374,0.06723925,0.9679672,603.63811,369.58796)"
     y1="1829.5306"
     gradientUnits="userSpaceOnUse"
     xlink:href="#linearGradient3919"
     y2="1800.0723" /><linearGradient
     id="linearGradient3270"><stop
       offset="0"
       id="stop3272"
       style="stop-color:#000000;stop-opacity:1;" /><stop
       offset="0.24074075"
       id="stop3278"
       style="stop-color:#fffbfb;stop-opacity:1;" /><stop
       offset="1"
       id="stop3274"
       style="stop-color:#000000;stop-opacity:1;" /></linearGradient></defs>
 




<g
   style="fill-rule:evenodd"
   inkscape:export-ydpi="99"
   inkscape:transform-center-y="-20.894586"
   inkscape:export-filename="C:\Documents and Settings\Ivaylo Kroumov\My Documents\toto-ui-project\com-done.png"
   transform="matrix(7.6073583,-0.2560362,0.2560362,7.6073583,-33567.703,-6835.9278)"
   inkscape:export-xdpi="99"
   id="g6734"><g
     id="g3836"
     transform="matrix(0.8833336,0.1106054,-0.1683495,0.8794927,827.14189,-1015.0079)"><path
       sodipodi:nodetypes="ccccc"
       style="fill:#5e889d;fill-opacity:1;stroke:none"
       id="path3838"
       d="m 4611.2273,2509.8485 276.5944,-163.3374 -402.9196,-220.9304 -263.0926,111.9745 389.4178,272.2933 z"
       inkscape:connector-curvature="0" /><path
       sodipodi:nodetypes="cccccccccccccccccccc"
       style="fill:url(#linearGradient4112);fill-opacity:1;fill-rule:nonzero;stroke:none;stroke-width:0.5;marker:none;visibility:visible;display:inline;overflow:visible;enable-background:accumulate"
       d="m 4647.508,2233.9323 -160.4355,-89.4345 -91.381,41.1275 155.4469,101.3521 96.3696,-53.0451 z m -381.6313,9.026 160.7499,112.8567 106.4669,-58.8259 -157.2424,-102.6616 -109.9744,48.6308 z m 284.401,65.1527 -105.1229,59.401 167.1014,116.0606 110.9273,-63.2541 -172.9058,-112.2075 z m 189.594,101.591 109.4943,-63.2889 -184.3512,-102.8604 -96.8692,53.8545 171.7261,112.2948 z"
       id="path3840"
       inkscape:connector-curvature="0" /></g><g
     transform="matrix(0.5772466,0.2604684,-0.5618505,0.8680548,2924.3052,-1967.377)"
     id="g3842"><path
       sodipodi:nodetypes="ccccccc"
       style="fill:#3c687e;fill-opacity:1;stroke:none"
       d="m 4611.2273,2509.8485 276.5944,-163.3374 -375.1912,-219.6606 c -9.4066,-4.3829 -15.9856,-5.74 -28.9503,-3.1528 l -246.3774,107.1212 c -6.3269,4.2358 -6.282,9.7292 -2.2238,16.0148 l 376.1483,263.0148 z"
       id="path3844"
       inkscape:connector-curvature="0" /><path
       sodipodi:nodetypes="cccccccccccccccccccc"
       style="fill:url(#linearGradient4110);fill-opacity:1;fill-rule:nonzero;stroke:none;stroke-width:0.5;marker:none;visibility:visible;display:inline;overflow:visible;enable-background:accumulate"
       id="path3846"
       d="m 4651.262,2231.7575 -153.3818,-92.6786 -102.1887,46.5464 155.4469,101.3521 100.1236,-55.2199 z m -385.3853,11.2008 160.7499,112.8567 106.4669,-58.8259 -157.2424,-102.6616 -109.9744,48.6308 z m 284.401,65.1527 -105.1229,59.401 167.1014,116.0606 110.9273,-63.2541 -172.9058,-112.2075 z m 189.594,101.591 109.4943,-63.2889 -180.5972,-105.0352 -100.6232,56.0293 171.7261,112.2948 z"
       inkscape:connector-curvature="0" /></g><path
     sodipodi:nodetypes="cccccc"
     style="fill:url(#linearGradient2263);fill-opacity:1;fill-rule:nonzero;stroke:none;stroke-width:0.5;marker:none;visibility:visible;display:inline;overflow:visible;enable-background:accumulate"
     id="path3957"
     d="m 4604.7745,1647.8093 c -16.626,-15.7554 -1.072,-28.1897 13.7874,-13.4797 l 28.1639,20.9597 c 17.9393,10.8024 -5.8495,28.8138 -17.9044,23.319 l -26.479,-29.034 2.4321,-1.765 z"
     inkscape:connector-curvature="0" /><path
     sodipodi:nodetypes="ccccscc"
     style="fill:url(#linearGradient3276);fill-opacity:1;stroke:none"
     d="m 4640.5313,1960.4508 c 58.2909,-34.6818 50.4191,-160.9063 -5.8122,-213.7886 -43.9858,-41.7202 -102.1816,-53.3698 -142.8163,-30.7073 l 337.1837,-149.3046 c 44.6545,-23.5421 117.6242,-31.2521 166.8141,21.1641 32.0558,34.1583 47.3684,126.1579 -19.6292,170.137 l -335.7401,202.4994 z"
     id="path2423"
     inkscape:connector-curvature="0" /><path
     sodipodi:nodetypes="ccss"
     style="fill:url(#radialGradient2296);fill-opacity:1;stroke:none"
     id="path2425"
     d="m 4483.2517,1722.7779 c 44.4005,-34.8181 101.7273,-25.3289 150.2874,20.7299 60.5697,58.5726 75.1339,188.1313 -6.4528,225.0478 -120.606,54.5718 -246.7078,-165.1061 -143.8346,-245.7777 z"
     inkscape:connector-curvature="0" /><path
     sodipodi:nodetypes="ccccscc"
     style="fill:url(#linearGradient2293);fill-opacity:1;fill-rule:evenodd;stroke:none"
     id="path4050"
     d="m 4640.5314,1960.4508 c 58.2908,-34.6818 50.419,-160.9063 -5.8122,-213.7886 -43.9859,-41.7202 -102.1817,-53.3698 -142.8164,-30.7073 l 337.1837,-149.3046 c 44.6545,-23.5421 117.6242,-31.2521 166.8141,21.1641 32.0559,34.1583 47.3684,126.1579 -19.6292,170.137 l -335.74,202.4994 z"
     inkscape:connector-curvature="0" /><path
     sodipodi:nodetypes="ccccc"
     style="fill:url(#linearGradient2280);fill-opacity:1;fill-rule:nonzero;stroke:none;stroke-width:0.5;marker:none;visibility:visible;display:inline;overflow:visible;enable-background:accumulate"
     d="m 4436.2529,1884.7741 c 21.1837,9.6634 25.6327,25.4266 35.156,52.2056 l 83.8173,-45.428 c 25.7989,-23.5278 -6.0692,-71.0027 -33.4678,-63.472 l -85.5055,56.6944 z"
     id="path4032"
     inkscape:connector-curvature="0" /><g
     transform="matrix(1.0194323,-0.03817854,-0.00982419,1.3943144,408.96826,-1010.5292)"
     id="g3828"><path
       sodipodi:nodetypes="ccccc"
       style="fill:#5e889d;fill-opacity:1;stroke:none"
       d="m 4611.2273,2509.8485 276.5944,-163.3374 -402.9196,-220.9304 -263.0926,111.9745 389.4178,272.2933 z"
       id="path3446"
       inkscape:connector-curvature="0" /><path
       sodipodi:nodetypes="cccccccccccccccccccc"
       style="fill:url(#linearGradient4138);fill-opacity:1;fill-rule:nonzero;stroke:none;stroke-width:0.5;marker:none;visibility:visible;display:inline;overflow:visible;enable-background:accumulate"
       id="path2836"
       d="m 4654.3203,2238.2867 -167.2478,-93.7889 -91.381,41.1275 158.852,103.115 99.7768,-50.4536 z m -388.4436,4.6716 160.7499,112.8567 108.7429,-55.4411 -159.5184,-106.0464 -109.9744,48.6308 z m 287.8061,66.9156 -108.528,57.6381 167.1014,116.0606 110.9273,-63.2541 -169.5007,-110.4446 z m 186.1889,99.8281 109.4943,-63.2889 -174.136,-97.5717 -102.5391,52.8497 167.1808,108.0109 z"
       inkscape:connector-curvature="0" /></g><g
     transform="matrix(1.1291682,0.04092513,0.1607225,1.5417158,-523.93526,-1744.4469)"
     id="g3832"><path
       sodipodi:nodetypes="ccccccc"
       style="fill:#6f95a9;fill-opacity:1;stroke:none"
       id="path3824"
       d="m 5022.1978,2610.863 261.4968,-184.4103 c 4.4194,-6.1563 -2.2835,-10.7182 -9.0662,-14.1392 l -379.5394,-61.909 -276.1453,164.3491 381.385,99.4716 c 8.0765,1.3025 15.31,0.01 21.8691,-3.3622 z"
       inkscape:connector-curvature="0" /><path
       sodipodi:nodetypes="cccccccccccccccccccc"
       style="fill:url(#linearGradient4136);fill-opacity:1;fill-rule:nonzero;stroke:none;stroke-width:0.5;marker:none;visibility:visible;display:inline;overflow:visible;enable-background:accumulate"
       d="m 5053.2245,2392.4065 -156.8566,-27.6955 -96.0274,58.8482 154.7229,35.1279 98.1611,-66.2806 z m -389.2441,113.8898 159.5958,42.6786 112.4297,-77.1748 -156.503,-35.6433 -115.5225,70.1395 z m 289.1338,-30.6779 -111.0768,77.2408 165.9648,43.374 117.2387,-81.9581 -172.1267,-38.6567 z m 189.8198,25.4581 108.5762,-75.5949 -179.5715,-29.6814 -99.9141,66.2101 170.9094,39.0662 z"
       id="path3826"
       inkscape:connector-curvature="0" /></g><path
     sodipodi:nodetypes="ccccccc"
     style="fill:url(#linearGradient2248);fill-opacity:1;fill-rule:nonzero;stroke:none;stroke-width:0.5;marker:none;visibility:visible;display:inline;overflow:visible;enable-background:accumulate"
     id="path3917"
     d="m 4835.3129,1867.8208 c 23.4708,21.2166 41.1095,0.7025 19.2668,-18.1926 l -31.8683,-36.5511 c -16.7898,-23.5535 -41.264,10.7609 -32.4112,26.7764 l 35.3428,26.1904 3.8287,-1.8524 5.8412,3.6293 z"
     inkscape:connector-curvature="0" /><g
     inkscape:transform-center-x="12.425904"
     inkscape:transform-center-y="16.374099"
     transform="matrix(0.996332,-0.08557214,0.08557214,0.996332,263.61495,-30.403749)"
     id="g2501"><path
       sodipodi:nodetypes="ccscs"
       style="fill:url(#radialGradient2499);fill-opacity:1;stroke:none"
       d="m 4151.2682,2803.346 c 94.8569,-27.3426 26.0561,-213.7638 -148.2839,-403.6447 -175.1842,-189.5888 -397.9254,-328.0589 -485.577,-285.8334 -79.5835,38.3387 -25.3773,212.3684 148.7182,402.4604 129.7822,139.4153 360.179,323.0386 485.1427,287.0177 z"
       id="path3830"
       inkscape:connector-curvature="0" /><path
       sodipodi:nodetypes="csss"
       style="opacity:0.5;fill:url(#linearGradient2486);fill-opacity:1;stroke:none"
       id="path3856"
       d="m 4154.7499,2795.956 c 94.857,-27.3426 26.887,-182.3237 -130.8676,-383.88 -175.4386,-224.1506 -392.6224,94.0439 -256.9338,196.9079 113.343,85.9242 262.8377,222.9929 387.8014,186.9721 z"
       inkscape:connector-curvature="0" /><path
       sodipodi:nodetypes="ccccc"
       style="fill:url(#linearGradient2483);fill-opacity:1;stroke:none"
       d="m 3950.6408,2371.4261 c 4.3901,-5.4213 -26.9214,-37.7683 -34.2148,-32.4438 l -299.1817,321.2402 c -11.6886,13.0839 0.7308,24.032 12.4964,11.2791 l 320.9001,-300.0755 z"
       id="path3860"
       inkscape:connector-curvature="0" /><path
       sodipodi:nodetypes="csccc"
       style="fill:url(#radialGradient2480);fill-opacity:1;stroke:none"
       d="m 3517.2531,2113.9854 c 124.9593,-67.3199 334.266,4.141 469.4055,123.1594 140.0518,123.3444 249.3485,353.304 202.6967,529.6977 23.1377,-69.7112 -48.0245,-216.4623 -186.371,-367.1412 -175.1842,-189.5888 -396.1677,-324.5112 -485.7312,-285.7159 z"
       id="path3864"
       inkscape:connector-curvature="0" /><path
       sodipodi:nodetypes="ccccc"
       style="fill:url(#linearGradient2477);fill-opacity:1;stroke:none"
       id="path3996"
       d="m 3950.6408,2371.4261 c 4.3901,-5.4213 -26.9214,-37.7683 -34.2148,-32.4438 l -299.1817,321.2402 c -11.6886,13.0839 0.7308,24.032 12.4964,11.2791 l 320.9001,-300.0755 z"
       inkscape:connector-curvature="0" /></g></g></svg>