<?xml version="1.0" encoding="UTF-8" standalone="no"?>
<!DOCTYPE svg PUBLIC "-//W3C//DTD SVG 20010904//EN" "http://www.w3.org/TR/2001/REC-SVG-20010904/DTD/svg10.dtd">
<!-- Created with Inkscape (http://www.inkscape.org/) -->
<svg id="svg548" sodipodi:version="0.32" width="400pt" height="400pt" sodipodi:docbase="/var/www/html/svg_gallery/svg/toys" sodipodi:docname="rocket.svg" inkscape:version="0.38.1" xmlns="http://www.w3.org/2000/svg" xmlns:inkscape="http://www.inkscape.org/namespaces/inkscape" xmlns:sodipodi="http://sodipodi.sourceforge.net/DTD/sodipodi-0.dtd" xmlns:xlink="http://www.w3.org/1999/xlink">
  <defs id="defs550"/>
  <sodipodi:namedview id="base" showgrid="true" inkscape:zoom="1.0000000" inkscape:cx="213.36737" inkscape:cy="199.99997" inkscape:window-width="613" inkscape:window-height="586" inkscape:window-x="115" inkscape:window-y="24"/>
  <g id="g846">
    <path style="fill: rgb(255, 64, 0); fill-rule: evenodd; stroke-width: 3.75;" d="M 271.335 362.637 C 271.335 362.637 284.054 399.945 298.468 431.318 C 312.883 462.692 338.321 477.954 341.713 477.954 C 345.104 477.954 348.496 460.148 347.648 449.973 C 346.8 439.798 323.058 419.447 363.759 451.668 C 404.459 483.889 433.288 497.456 430.744 486.433 C 434.984 459.299 387.5 402.489 418.026 412.664 C 448.551 422.839 500.274 446.581 468.053 409.272 C 435.832 371.964 402.763 355.005 430.745 355.853 C 458.726 356.701 485.859 369.42 472.293 344.83 C 458.726 320.24 393.456 281.998 365.475 265.887 C 343.429 276.91 300.165 305.826 271.335 362.637 z " id="path671" sodipodi:nodetypes="cccccccccccc" transform="matrix(1.0041, 0, 0, 1.01474, -1.11186, -7.22347)"/>
    <path style="fill: rgb(255, 255, 51); fill-opacity: 0.696296; fill-rule: evenodd; stroke-width: 12.5; stroke-linejoin: round;" d="M 284.054 339.743 C 284.054 339.743 293.381 384.683 303.556 398.249 C 313.731 411.816 316.275 410.12 318.819 391.466 C 321.363 372.812 303.556 354.157 334.081 374.508 C 364.607 394.858 390.892 420.295 375.63 388.922 C 360.367 357.549 356.127 349.918 377.325 360.941 C 398.523 371.964 418.874 380.443 393.435 349.918 C 373.934 327.872 412.937 321.936 419.721 319.393 C 435.832 321.937 351.04 274.452 342.561 274.452 C 333.233 276.148 287.445 332.959 284.054 339.743 z " id="path672" sodipodi:nodetypes="cccccccccc"/>
    <path style="fill: rgb(217, 217, 217); fill-rule: evenodd; stroke: rgb(0, 0, 0); stroke-width: 10; stroke-linejoin: round; stroke-dasharray: none;" d="M 43.244 60.7763 C 122.101 62.472 321.362 94.6929 397.675 290.563 C 371.389 295.651 306.948 358.397 296.773 393.161 C 102.599 293.955 47.4836 137.089 43.244 60.7763 z " id="path663" sodipodi:nodetypes="cccc" transform="translate(-25.4377, -29.6773)"/>
    <path style="fill: rgb(191, 191, 191); fill-rule: evenodd; stroke: rgb(0, 0, 0); stroke-width: 10; stroke-linejoin: round; stroke-dasharray: none;" d="M 189.087 321.936 C 189.087 321.936 192.478 408.424 192.478 409.272 C 192.478 410.12 296.773 457.604 302.708 460.148 L 297.621 392.314 C 288.294 393.162 205.197 339.743 189.087 321.936 z " id="path664" sodipodi:nodetypes="ccccc" transform="translate(-25.4377, -29.6773)"/>
    <path style="fill: rgb(191, 191, 191); fill-rule: evenodd; stroke: rgb(0, 0, 0); stroke-width: 10; stroke-linejoin: round; stroke-dasharray: none;" d="M 190.761 322.825 C 190.761 322.825 192.478 408.424 192.478 409.272 C 192.478 410.12 296.773 457.604 302.708 460.148 L 297.621 392.314 C 264.809 382.406 210.2 343.258 190.761 322.825 z " id="path665" sodipodi:nodetypes="ccccc" transform="matrix(-0.0245746, 0.999698, 0.999698, 0.0245746, -13.3061, -47.2839)"/>
    <path style="fill: rgb(191, 191, 191); fill-rule: evenodd; stroke: rgb(0, 0, 0); stroke-width: 10; stroke-linejoin: round; stroke-dasharray: none;" d="M 235.31677,210.16905 C 235.31677,210.16905 249.57675,244.29165 251.98394,249.85491 C 254.93778,253.60324 329.57296,314.51127 335.05153,317.92908 L 331.87269,296.24835 C 323.87845,288.54971 255.06929,228.23237 235.31677,210.16905 z " id="path666" sodipodi:nodetypes="ccccc"/>
    <path style="fill: rgb(191, 191, 191); fill-rule: evenodd; stroke: rgb(0, 0, 0); stroke-width: 10; stroke-linejoin: round; stroke-dasharray: none;" d="M 232.63653,209.39949 L 215.86803,233.67972 L 236.51282,269.41364 L 322.26679,337.15802 L 334.65440,318.61254 L 252.66302,249.37251 L 232.63653,209.39949 z " id="path667" sodipodi:nodetypes="ccccccc"/>
    <path style="fill: rgb(191, 191, 191); fill-rule: evenodd; stroke: rgb(0, 0, 0); stroke-width: 12.5; stroke-linejoin: round;" d="M 124.645 131.154 C 95.8152 170.158 155.169 218.49 183.151 183.725 C 217.068 141.329 158.562 100.629 124.645 131.154 z " id="path668" sodipodi:nodetypes="ccc"/>
    <path style="fill: rgb(174, 255, 255); fill-rule: evenodd; stroke: rgb(0, 0, 0); stroke-width: 10; stroke-linejoin: round; stroke-dasharray: none;" d="M 132.276 135.393 C 153.474 115.043 202.653 139.633 180.608 176.094 C 156.018 207.466 105.991 167.615 132.276 135.393 z " id="path669" sodipodi:nodetypes="ccc"/>
    <path style="fill: rgb(255, 255, 255); fill-opacity: 0.75; fill-rule: evenodd; stroke-width: 12.5; stroke-linejoin: round;" d="M 148.38600,134.50200 C 141.52512,139.23955 123.48549,154.12588 138.21100,171.85400 C 150.93000,175.24600 168.73600,136.19800 148.38600,134.50200 z " id="path670" sodipodi:nodetypes="ccc"/>
  </g>

  <rdf:RDF xmlns="http://web.resource.org/cc/" xmlns:dc="http://purl.org/dc/elements/1.1/" xmlns:rdf="http://www.w3.org/1999/02/22-rdf-syntax-ns#">
  <Work rdf:about="">
    <dc:title>Clipart by Nicu Buculei - piggybank</dc:title>
    <dc:rights>
       <Agent>
         <dc:title>Nicu Buculei</dc:title>
       </Agent>
    </dc:rights>
    <dc:type rdf:resource="http://purl.org/dc/dcmitype/StillImage"/>
    <license rdf:resource="http://web.resource.org/cc/PublicDomain"/>
  </Work>
   
  <License rdf:about="http://web.resource.org/cc/PublicDomain">
     <permits rdf:resource="http://web.resource.org/cc/Reproduction"/>
     <permits rdf:resource="http://web.resource.org/cc/Distribution"/>
     <permits rdf:resource="http://web.resource.org/cc/DerivativeWorks"/>
  </License>

</rdf:RDF>
</svg>