<?xml version="1.0" encoding="UTF-8" standalone="no"?>
<!-- Created with Inkscape (http://www.inkscape.org/) -->

<svg
   xmlns:dc="http://purl.org/dc/elements/1.1/"
   xmlns:cc="http://creativecommons.org/ns#"
   xmlns:rdf="http://www.w3.org/1999/02/22-rdf-syntax-ns#"
   xmlns:svg="http://www.w3.org/2000/svg"
   xmlns="http://www.w3.org/2000/svg"
   xmlns:xlink="http://www.w3.org/1999/xlink"
   xmlns:sodipodi="http://sodipodi.sourceforge.net/DTD/sodipodi-0.dtd"
   xmlns:inkscape="http://www.inkscape.org/namespaces/inkscape"
   id="svg1"
   sodipodi:version="0.32"
   inkscape:version="0.47pre3 r22311"
   width="348.24084"
   height="378.47189"
   sodipodi:docname="nicubunu_Long_sword.svg"
   version="1.1">
  <defs
     id="defs3">
    <linearGradient
       id="linearGradient1554">
      <stop
         style="stop-color:#000000;stop-opacity:0.22471911;"
         offset="0.0000000"
         id="stop1555" />
      <stop
         style="stop-color:#000000;stop-opacity:0.49411765;"
         offset="0.50000000"
         id="stop1560" />
      <stop
         style="stop-color:#000000;stop-opacity:0.18823530;"
         offset="1.0000000"
         id="stop1556" />
    </linearGradient>
    <linearGradient
       id="linearGradient8383">
      <stop
         style="stop-color:#ffffff;stop-opacity:0.79775280;"
         offset="0.0000000"
         id="stop8384" />
      <stop
         style="stop-color:#ffffff;stop-opacity:0.19101124;"
         offset="1.0000000"
         id="stop8385" />
    </linearGradient>
    <linearGradient
       inkscape:collect="always"
       xlink:href="#linearGradient8383"
       id="linearGradient8386"
       x1="238.13608"
       y1="116.46331"
       x2="253.03559"
       y2="131.07019"
       gradientTransform="scale(1.0193903,0.98097849)"
       gradientUnits="userSpaceOnUse" />
    <linearGradient
       inkscape:collect="always"
       xlink:href="#linearGradient8383"
       id="linearGradient9631"
       x1="244.25042"
       y1="118.27051"
       x2="249.02288"
       y2="121.24917"
       gradientTransform="scale(1.006836,0.99321045)"
       gradientUnits="userSpaceOnUse" />
    <linearGradient
       inkscape:collect="always"
       xlink:href="#linearGradient8383"
       id="linearGradient10266"
       x1="164.00101"
       y1="-7.8099191"
       x2="179.82935"
       y2="10.02837"
       gradientTransform="scale(1.4723398,0.67919104)"
       gradientUnits="userSpaceOnUse" />
    <linearGradient
       inkscape:collect="always"
       xlink:href="#linearGradient8383"
       id="linearGradient1552"
       x1="996.87861"
       y1="113.93412"
       x2="996.87861"
       y2="43.687805"
       gradientTransform="scale(0.25722788,3.8876035)"
       gradientUnits="userSpaceOnUse" />
    <linearGradient
       inkscape:collect="always"
       xlink:href="#linearGradient1554"
       id="linearGradient1553"
       x1="962.66265"
       y1="115.39194"
       x2="962.66265"
       y2="37.8961"
       gradientTransform="scale(0.25722788,3.8876035)"
       gradientUnits="userSpaceOnUse" />
    <linearGradient
       inkscape:collect="always"
       xlink:href="#linearGradient8383"
       id="linearGradient2186"
       x1="387.81993"
       y1="25.473238"
       x2="415.31337"
       y2="44.564154"
       gradientTransform="scale(0.60899277,1.6420556)"
       gradientUnits="userSpaceOnUse" />
    <linearGradient
       inkscape:collect="always"
       xlink:href="#linearGradient8383"
       id="linearGradient2809"
       x1="148.43222"
       y1="142.9279"
       x2="159.9304"
       y2="148.34329"
       gradientTransform="scale(1.2638619,0.79122572)"
       gradientUnits="userSpaceOnUse" />
    <linearGradient
       inkscape:collect="always"
       xlink:href="#linearGradient8383"
       id="linearGradient2811"
       x1="215.22815"
       y1="146.28847"
       x2="227.52839"
       y2="160.63186"
       gradientTransform="scale(1.2966954,0.77119115)"
       gradientUnits="userSpaceOnUse" />
    <linearGradient
       inkscape:collect="always"
       xlink:href="#linearGradient8383"
       id="linearGradient2813"
       x1="155.59493"
       y1="151.9199"
       x2="173.19873"
       y2="176.12246"
       gradientTransform="scale(1.4146735,0.7068769)"
       gradientUnits="userSpaceOnUse" />
    <linearGradient
       inkscape:collect="always"
       xlink:href="#linearGradient8383"
       id="linearGradient2815"
       x1="247.39654"
       y1="-4.6202065"
       x2="270.94325"
       y2="17.920234"
       gradientTransform="scale(0.92562651,1.0803494)"
       gradientUnits="userSpaceOnUse" />
    <linearGradient
       inkscape:collect="always"
       xlink:href="#linearGradient8383"
       id="linearGradient5315"
       x1="354.46308"
       y1="51.486237"
       x2="336.85297"
       y2="68.191059"
       spreadMethod="reflect"
       gradientTransform="scale(0.70228503,1.4239233)"
       gradientUnits="userSpaceOnUse" />
    <linearGradient
       inkscape:collect="always"
       xlink:href="#linearGradient8383"
       id="linearGradient2858"
       x1="238.13608"
       y1="116.46331"
       x2="253.03559"
       y2="131.07019"
       gradientTransform="scale(1.0193903,0.98097849)"
       gradientUnits="userSpaceOnUse" />
    <linearGradient
       inkscape:collect="always"
       xlink:href="#linearGradient8383"
       id="linearGradient2860"
       x1="244.25042"
       y1="118.27051"
       x2="249.02288"
       y2="121.24917"
       gradientTransform="scale(1.006836,0.99321045)"
       gradientUnits="userSpaceOnUse" />
  </defs>
  <sodipodi:namedview
     id="base"
     pagecolor="#ffffff"
     bordercolor="#666666"
     borderopacity="1.0"
     inkscape:pageopacity="0.0"
     inkscape:pageshadow="2"
     inkscape:zoom="1"
     inkscape:cx="128.32507"
     inkscape:cy="164.83426"
     inkscape:window-width="1156"
     inkscape:window-height="733"
     showgrid="false"
     inkscape:window-x="20"
     inkscape:window-y="32"
     inkscape:window-maximized="0"
     inkscape:current-layer="svg1" />
  <metadata
     id="metadata4">
    <rdf:RDF>
      <cc:Work
         rdf:about="">
        <dc:format>image/svg+xml</dc:format>
        <dc:type
           rdf:resource="http://purl.org/dc/dcmitype/StillImage" />
        <dc:title>Longsword</dc:title>
        <dc:creator>
          <cc:Agent>
            <dc:title>Nicu Buculei</dc:title>
          </cc:Agent>
        </dc:creator>
      </cc:Work>
    </rdf:RDF>
  </metadata>
  <g
     id="g5316"
     transform="matrix(0.742988,-0.669304,0.669304,0.742988,-172.14046,177.16994)">
    <path
       style="fill:#dadac7;fill-opacity:1;fill-rule:evenodd;stroke:#000000;stroke-width:1pt;stroke-linecap:butt;stroke-linejoin:miter;stroke-opacity:1"
       d="m 247.8125,119.40625 0,0.0312 -12.84375,1.3125 c 0.67054,5.17273 -0.85994,18.02814 -4.5,29.90625 2.49057,3.64006 7.1773,11.66694 7.65625,17.03125 l 9.78125,-0.0937 0.0937,0 9.78125,0.0937 c 0.47895,-5.36431 5.16568,-13.39119 7.65625,-17.03125 -3.64006,-11.87811 -5.17053,-24.73352 -4.5,-29.90625 l -12.84375,-1.3125 0,-0.0312 -0.15625,0 -0.125,0 z"
       id="path2160" />
    <path
       style="fill:#cacbcb;fill-opacity:1;fill-rule:evenodd;stroke:#000000;stroke-width:1.25;stroke-linecap:butt;stroke-linejoin:round;stroke-miterlimit:4;stroke-opacity:1"
       d="m 237.00111,426.42649 c -1.50005,-89.47816 -1.50489,-178.33131 -1.75494,-267.49697 4.56311,-7.14256 2.628,-20.76241 2.43481,-31.14362 l 20.57842,0 c 0.51382,11.26668 -2.22315,23.1516 3.02454,30.52174 0.72053,88.69379 1.5205,177.5289 0.67853,266.84769 -0.79466,24.71218 -6.73561,47.88048 -10.10341,71.82072 -4.95265,-23.51652 -13.5077,-45.3605 -14.85795,-70.54956 z"
       id="path908"
       sodipodi:nodetypes="cccccccc" />
    <path
       style="fill:#cacbcb;fill-opacity:1;fill-rule:evenodd;stroke:#000000;stroke-width:1pt;stroke-linecap:butt;stroke-linejoin:round;stroke-opacity:1"
       d="m 233.34375,37.375 c 0.16853,1.116509 1.08426,1.247311 1,3.375 1.51677,23.193897 2.00559,43.101327 1.5,65.03125 -0.16853,1.39037 -0.32308,3.26589 -1.25,4.65625 l 13.03125,0.21875 13,-0.21875 c -0.92691,-1.39036 -1.08147,-3.26588 -1.25,-4.65625 -0.50559,-21.929923 -0.0168,-41.837353 1.5,-65.03125 -0.0843,-2.127689 0.86272,-2.258491 1.03125,-3.375 L 247.625,37.59375 233.34375,37.375 z"
       id="path4029"
       sodipodi:nodetypes="ccccccccccc" />
    <path
       style="fill:url(#linearGradient2186);fill-opacity:1;fill-rule:evenodd;stroke:none"
       d="m 234.39833,38.183318 c 0.16853,1.116509 1.08426,1.247311 1,3.375 1.51677,23.193897 2.00559,40.900621 1.5,62.830552 -0.16853,1.39037 -0.32308,3.26589 -1.25,4.65625 l 12.15097,0.21875 11.67958,-0.21875 c -0.92691,-1.39036 -1.08147,-3.26588 -1.25,-4.65625 -0.50559,-21.929931 -0.0168,-39.636655 1.5,-62.830552 -0.0843,-2.127689 0.86272,-2.258491 1.03125,-3.375 l -12.96083,0.21875 -13.40097,-0.21875 z"
       id="path1561"
       sodipodi:nodetypes="ccccccccccc" />
    <path
       style="fill:#9b9b5d;fill-opacity:1;fill-rule:evenodd;stroke:#000000;stroke-width:1pt;stroke-linecap:butt;stroke-linejoin:miter;stroke-opacity:1"
       d="m 260.90625,44.09375 c -1.13546,0.07097 -7.32217,13.720138 -13.40625,27.59375 -5.97277,-13.600009 -12.0437,-26.930465 -13.15625,-27 -2.04036,-0.272049 -2.06058,3.40453 -0.15625,6.125 0.76072,1.077681 5.97245,13.525056 11.1875,25.71875 -4.36741,10.047834 -9.09198,21.062611 -9.625,21.96875 -1.76831,2.85649 -1.63592,6.13784 0.8125,5.59375 1.04148,-0.24506 5.89392,-11.059667 10.9375,-22.71875 5.14574,11.912404 10.12703,23.03172 11.1875,23.28125 2.44843,0.54409 2.58081,-2.70601 0.8125,-5.5625 -0.54734,-0.930475 -5.35223,-12.165606 -9.875,-22.5625 5.34915,-12.493693 10.65932,-25.210067 11.4375,-26.3125 1.90433,-2.72047 1.88411,-6.397047 -0.15625,-6.125 z"
       id="path2818" />
    <path
       style="fill:#9b9b5d;fill-opacity:1;fill-rule:evenodd;stroke:#000000;stroke-width:1pt;stroke-linecap:butt;stroke-linejoin:round;stroke-opacity:1"
       d="m 220.04461,115.50288 c -7.15011,-0.53625 -19.48405,-3.03879 -26.27665,-1.78753 -5.72009,1.07252 -7.50762,4.46882 -8.04388,8.58013 0,3.93257 0.53626,6.0776 5.18383,9.4739 4.29006,2.68129 13.04895,3.93256 13.04895,-4.29007 -0.53626,-5.00507 -3.21755,-4.11131 -5.54133,-2.68128 4.29006,-3.93257 15.55149,-3.93257 21.62908,-3.57506 0,-2.32379 -1.07251,-3.93256 0,-5.72009 z"
       id="path6517"
       sodipodi:nodetypes="cccccccc" />
    <path
       style="fill:#9b9b5d;fill-opacity:1;fill-rule:evenodd;stroke:#000000;stroke-width:1pt;stroke-linecap:butt;stroke-linejoin:round;stroke-opacity:1"
       d="m 276.53046,115.28847 c 7.15011,-0.53625 19.48405,-3.03879 26.27665,-1.78753 5.72009,1.07252 7.50762,4.46882 8.04388,8.58013 0,3.93257 -0.53626,6.0776 -5.18383,9.4739 -4.29006,2.68129 -13.04895,3.93256 -13.04895,-4.29007 0.53626,-5.00507 3.21755,-4.11131 5.54133,-2.68128 -4.29006,-3.93257 -15.55149,-3.93257 -21.62908,-3.57506 0,-2.32379 1.07251,-3.93256 0,-5.72009 z"
       id="path7760"
       sodipodi:nodetypes="cccccccc" />
    <path
       style="fill:#9b9b5d;fill-opacity:1;fill-rule:evenodd;stroke:#000000;stroke-width:1pt;stroke-linecap:butt;stroke-linejoin:round;stroke-opacity:1"
       d="m 247.40625,110.25 -13.03125,0.0833 c 0,0 1.54049,3.00387 0,4.10422 -1.54049,1.10035 -12.54005,0.65757 -16.28125,0.4375 -0.44013,1.54049 -0.22139,4.61312 0.21875,6.59375 7.92253,-0.44014 14.52641,11.22931 25.75,9.46875 -1.98065,2.20072 -2.63688,6.82263 -0.65625,10.34375 1.76057,-3.7412 3.6196,-9.11558 4.4375,-9.5625 0.88028,0.44014 2.20818,5.72755 3.96875,9.46875 1.98063,-3.52112 1.32438,-8.14303 -0.65625,-10.34375 11.22359,1.76056 17.82747,-9.90889 25.75,-9.46875 0.44014,-1.98063 0.6589,-5.05326 0.21875,-6.59375 -3.7412,0.22007 -14.74077,0.6316 -16.28125,-0.46875 -1.54049,-1.10035 -0.13548,-3.66656 -0.13547,-3.66656 0,0 -13.30201,-0.39676 -13.30203,-0.39594 z"
       id="path1533"
       sodipodi:nodetypes="ccccccccccccccc" />
    <path
       style="fill:url(#linearGradient2813);fill-opacity:1;fill-rule:evenodd;stroke:none"
       d="m 247.59616,111.02487 -12.37104,-0.13679 c 0,0 1.54049,2.7838 0,3.88415 -1.54049,1.10035 -12.54005,1.09771 -16.28125,0.87764 -0.44013,1.54049 -0.66153,3.2927 -0.22139,5.27333 7.92253,-0.44014 14.74648,11.22931 25.97007,9.46875 -1.98065,2.20072 -3.07702,5.94235 -1.09639,9.46347 1.76057,-3.7412 3.39953,-9.11558 4.21743,-9.5625 0.88028,0.44014 2.20818,5.72755 3.96875,9.46875 1.98063,-3.52112 0.004,-7.26275 -1.97667,-9.46347 11.22359,1.76056 18.48768,-9.90889 26.41021,-9.46875 0.44014,-1.98063 0.21876,-3.95291 -0.22139,-5.4934 -3.7412,0.22007 -13.64042,0.85167 -15.1809,-0.24868 -1.54049,-1.10035 -1.67597,-3.00635 -1.23582,-3.88663 -2.20071,0.44014 -11.98159,-0.17669 -11.98161,-0.17587 z"
       id="path2812"
       sodipodi:nodetypes="ccccccccccccccc" />
    <path
       style="fill:#9b9b5d;fill-opacity:1;fill-rule:evenodd;stroke:#000000;stroke-width:1pt;stroke-linecap:butt;stroke-linejoin:round;stroke-opacity:1"
       d="m 233.4574,37.92204 c 0.16853,-1.116509 1.08426,-1.247311 1,-3.375 -0.2195,-8.684744 -5.41067,-11.04607 -5.68039,-24.8386295 -0.0162,-20.1914515 37.1171,-21.4474905 38.06075,-1.297261 0.43787,14.8539555 -5.88297,17.9905935 -5.84911,26.1358905 -0.0843,2.127689 0.86272,2.258491 1.03125,3.375 l -14.28125,-0.21875 -14.28125,0.21875 z"
       id="path5274"
       sodipodi:nodetypes="cccccccc" />
    <g
       id="g9632">
      <path
         transform="matrix(1.069507,0,0,1.112755,-19.77184,-14.0329)"
         style="fill:url(#linearGradient2858);fill-opacity:1;fill-rule:evenodd;stroke:#000000;stroke-width:1.14582527;stroke-linecap:butt;stroke-linejoin:miter;stroke-miterlimit:4;stroke-opacity:1"
         d="m 258.10463,121.41252 c 0,3.99828 -3.38209,7.24325 -7.5493,7.24325 -4.16722,0 -7.54931,-3.24497 -7.54931,-7.24325 0,-3.99827 3.38209,-7.24325 7.54931,-7.24325 4.16721,0 7.5493,3.24498 7.5493,7.24325 z"
         id="path7761" />
      <path
         transform="matrix(1.431063,0,0,1.430424,-107.7022,-53.43198)"
         style="fill:#004691;fill-opacity:1;fill-rule:evenodd;stroke:#000000;stroke-width:0.87367165;stroke-linecap:butt;stroke-linejoin:miter;stroke-miterlimit:4;stroke-opacity:1"
         d="m 252.59569,121.99062 c 0,2.0273 -1.67581,3.67264 -3.74065,3.67264 -2.06484,0 -3.74065,-1.64534 -3.74065,-3.67264 0,-2.02729 1.67581,-3.67263 3.74065,-3.67263 2.06484,0 3.74065,1.64534 3.74065,3.67263 z"
         id="path8387" />
      <path
         style="fill:url(#linearGradient2860);fill-opacity:1;fill-rule:evenodd;stroke:none"
         d="m 246.1258,124.61983 c -4.95318,-3.53798 0.11792,-9.55255 3.89178,-7.54769 6.4863,4.59938 0.11793,10.14221 -3.89178,7.54769 z"
         id="path9009"
         sodipodi:nodetypes="ccc" />
    </g>
    <path
       style="fill:url(#linearGradient2815);fill-opacity:1;fill-rule:evenodd;stroke:none"
       d="m 235.199,36.967554 c 0.16853,-1.116509 -0.23616,-0.80717 -0.32042,-2.934859 -0.2195,-8.684744 -4.97053,-11.04607 -5.24025,-24.8386293 -0.15225,-19.2392867 35.13647,-18.8066461 36.30019,-1.0771906 0.43787,14.8539549 -5.00269,17.7705229 -4.96883,25.9158199 -0.0843,2.127689 -0.89784,2.038421 -0.72931,3.15493 l -12.52069,0.0013 -12.52069,-0.221391 z"
       id="path2814"
       sodipodi:nodetypes="cccccccc" />
    <g
       id="g9636"
       transform="translate(-0.421984,-106.9527)">
      <path
         transform="matrix(1.069507,0,0,1.112755,-19.77184,-14.0329)"
         style="fill:url(#linearGradient8386);fill-opacity:1;fill-rule:evenodd;stroke:#000000;stroke-width:1.14582527;stroke-linecap:butt;stroke-linejoin:miter;stroke-miterlimit:4;stroke-opacity:1"
         d="m 258.10463,121.41252 c 0,3.99828 -3.38209,7.24325 -7.5493,7.24325 -4.16722,0 -7.54931,-3.24497 -7.54931,-7.24325 0,-3.99827 3.38209,-7.24325 7.54931,-7.24325 4.16721,0 7.5493,3.24498 7.5493,7.24325 z"
         id="path9637" />
      <path
         transform="matrix(1.431063,0,0,1.430424,-107.7022,-53.43198)"
         style="fill:#004691;fill-opacity:1;fill-rule:evenodd;stroke:#000000;stroke-width:0.87367165;stroke-linecap:butt;stroke-linejoin:miter;stroke-miterlimit:4;stroke-opacity:1"
         d="m 252.59569,121.99062 c 0,2.0273 -1.67581,3.67264 -3.74065,3.67264 -2.06484,0 -3.74065,-1.64534 -3.74065,-3.67264 0,-2.02729 1.67581,-3.67263 3.74065,-3.67263 2.06484,0 3.74065,1.64534 3.74065,3.67263 z"
         id="path9638" />
      <path
         style="fill:url(#linearGradient9631);fill-opacity:1;fill-rule:evenodd;stroke:none"
         d="m 246.1258,124.61983 c -4.95318,-3.53798 0.11792,-9.55255 3.89178,-7.54769 6.4863,4.59938 0.11793,10.14221 -3.89178,7.54769 z"
         id="path9639"
         sodipodi:nodetypes="ccc" />
    </g>
    <path
       style="fill:url(#linearGradient10266);fill-opacity:1;fill-rule:evenodd;stroke:none"
       d="m 229.5296,9.6625292 10.03706,1.8673598 c 0.62245,-2.5676193 3.26787,-5.9133054 7.93628,-6.0689186 4.20155,-0.1556133 7.62504,2.7232325 8.55872,5.9133056 l 9.95925,-0.778067 c 0.77807,-2.5676195 -0.38902,-16.0281688 -17.97333,-16.0281688 -14.23861,0 -19.45166,10.1926704 -18.51798,15.094489 z"
       id="path9644"
       sodipodi:nodetypes="ccccccc" />
    <path
       style="fill:url(#linearGradient1552);fill-opacity:1;fill-rule:evenodd;stroke:url(#linearGradient1553);stroke-width:1pt;stroke-linecap:butt;stroke-linejoin:miter;stroke-opacity:1"
       d="m 239.07285,157.54431 c 0.11793,11.08568 0.21518,273.81101 2.87174,282.86697 4.90762,18.03531 12.09733,17.82013 16.51254,-1.43588 1.43588,-7.8973 -2.15381,-274.51861 -2.15381,-280.71316 -0.7076,-7.60974 -6.44074,-10.78133 -8.6049,-20.30707 -2.87175,10.05111 -7.98421,14.04014 -8.62557,19.58914 z"
       id="path930"
       sodipodi:nodetypes="cccccc" />
    <path
       style="fill:url(#linearGradient2809);fill-opacity:1;fill-rule:evenodd;stroke:none"
       d="m 217.20428,116.04019 c -7.15011,-0.53625 -16.62313,-2.81872 -23.41573,-1.56746 -5.72009,1.07252 -6.84741,4.02868 -7.38367,8.13999 0,3.93257 0.31619,4.97725 4.96376,8.37355 4.29006,2.68129 11.50846,4.81284 11.50846,-3.40979 -0.53626,-5.00507 -3.21755,-3.4511 -5.54133,-2.02107 4.29006,-3.93257 13.79092,-5.47306 19.86851,-5.11555 0,-2.32379 -1.07251,-2.61214 0,-4.39967 z"
       id="path2187"
       sodipodi:nodetypes="cccccccc" />
    <path
       style="fill:url(#linearGradient2811);fill-opacity:1;fill-rule:evenodd;stroke:none"
       d="m 277.95417,115.60005 c 7.15011,-0.53625 17.94356,-2.37858 24.73616,-1.12732 5.72009,1.07252 6.84741,3.58854 7.38367,7.69985 0,3.93257 0.34402,4.97725 -4.30355,8.37355 -4.29006,2.68129 -12.16867,5.25298 -12.16867,-2.96965 0.53626,-5.00507 4.09783,-3.4511 6.42161,-2.02107 -4.29006,-3.93257 -15.77156,-5.69313 -21.84915,-5.33562 0,-2.32379 0.85244,-2.83221 -0.22007,-4.61974 z"
       id="path2810"
       sodipodi:nodetypes="cccccccc" />
    <path
       style="fill:url(#linearGradient5315);fill-opacity:1;fill-rule:evenodd;stroke:none"
       d="m 260.84406,45.030355 c -1.13546,0.07097 -7.05012,14.400256 -13.1342,28.273868 -5.97277,-13.600009 -12.0437,-27.066489 -13.15625,-27.952165 -2.04036,-0.272049 -1.51649,2.860436 0.38784,5.580906 0.76072,1.077681 5.97245,13.389032 11.1875,25.582726 -4.36741,10.047834 -9.09198,21.062607 -9.625,21.968747 -1.08819,2.992513 -2.45206,5.321703 -0.004,4.777613 1.04148,-0.24506 6.02995,-11.875805 11.07353,-23.534892 5.14574,11.912407 10.39907,23.711832 11.45954,23.961362 1.76832,0.27204 1.76467,-1.07373 -0.004,-3.930215 -0.54734,-0.93047 -5.08018,-12.709697 -9.60295,-23.106591 4.80506,-12.901764 10.38727,-25.618138 11.16545,-26.720571 1.90433,-2.72047 2.29218,-5.172835 0.25182,-4.900788 z"
       id="path4693"
       sodipodi:nodetypes="ccccccccccccc" />
  </g>
</svg>
