<?xml version="1.0" encoding="UTF-8" standalone="no"?>
<!-- Created with Inkscape (http://www.inkscape.org/) -->
<svg xmlns:dc="http://purl.org/dc/elements/1.1/" xmlns:cc="http://creativecommons.org/ns#" xmlns:rdf="http://www.w3.org/1999/02/22-rdf-syntax-ns#" xmlns:svg="http://www.w3.org/2000/svg" xmlns="http://www.w3.org/2000/svg" xmlns:sodipodi="http://sodipodi.sourceforge.net/DTD/sodipodi-0.dtd" xmlns:inkscape="http://www.inkscape.org/namespaces/inkscape" height="504.34091" id="svg2" version="1.0" width="551.5401" x="0.00000000" y="0.00000000" sodipodi:version="0.32" inkscape:version="0.46" sodipodi:docname="boat_jarno_vasamaa1.svg" inkscape:output_extension="org.inkscape.output.svg.inkscape">
  <sodipodi:namedview inkscape:window-height="715" inkscape:window-width="687" inkscape:pageshadow="2" inkscape:pageopacity="0.0" guidetolerance="10.0" gridtolerance="10.0" objecttolerance="10.0" borderopacity="1.0" bordercolor="#666666" pagecolor="#ffffff" id="base" showgrid="false" inkscape:zoom="0.51313132" inkscape:cx="526.18109" inkscape:cy="59.395551" inkscape:window-x="0" inkscape:window-y="25" inkscape:current-layer="svg2"/>
  <metadata id="metadata3">
    <rdf:RDF>
      <cc:Work rdf:about="">
        <dc:title>boat2</dc:title>
        <dc:description>boat, schooner</dc:description>
        <dc:subject>
          <rdf:Bag>
            <rdf:li>boat</rdf:li>
          </rdf:Bag>
        </dc:subject>
        <dc:publisher>
          <cc:Agent rdf:about="http://www.openclipart.org/">
            <dc:title>Open Clip Art Library</dc:title>
          </cc:Agent>
        </dc:publisher>
        <dc:creator>
          <cc:Agent>
            <dc:title>Jarno Vasamaa</dc:title>
          </cc:Agent>
        </dc:creator>
        <dc:rights>
          <cc:Agent>
            <dc:title>Jarno Vasamaa</dc:title>
          </cc:Agent>
        </dc:rights>
        <dc:date/>
        <dc:format>image/svg+xml</dc:format>
        <dc:type rdf:resource="http://purl.org/dc/dcmitype/StillImage"/>
        <cc:license rdf:resource="http://creativecommons.org/licenses/publicdomain/"/>
        <dc:language>en</dc:language>
      </cc:Work>
      <cc:License rdf:about="http://creativecommons.org/licenses/publicdomain/">
        <cc:permits rdf:resource="http://creativecommons.org/ns#Reproduction"/>
        <cc:permits rdf:resource="http://creativecommons.org/ns#Distribution"/>
        <cc:permits rdf:resource="http://creativecommons.org/ns#DerivativeWorks"/>
      </cc:License>
    </rdf:RDF>
  </metadata>
  <defs id="defs3">
    <inkscape:perspective sodipodi:type="inkscape:persp3d" inkscape:vp_x="0 : 372.04724 : 1" inkscape:vp_y="0 : 1000 : 0" inkscape:vp_z="1052.3622 : 372.04724 : 1" inkscape:persp3d-origin="526.18109 : 248.03149 : 1" id="perspective53"/>
  </defs>
  <g id="layer1" transform="matrix(0.738912, 0, 0, 0.738912, -105.495, -22.3127)">
    <g id="g2431">
      <path d="M 347.28254,693.94124 C 425.21474,691.57966 342.4903,691.89751 312.68765,697.40414 C 282.88502,702.91078 136.10841,709.51875 225.51635,708.41742 C 314.92427,707.31609 865.95575,719.4307 833.8606,707.31609 C 801.76545,695.20149 710.06501,695.20149 710.06501,695.20149 L 347.28254,693.94124 z" id="path2429" style="fill: rgb(0, 0, 101); fill-opacity: 0.410811; fill-rule: evenodd; stroke: none; stroke-width: 0.672839px; stroke-linecap: butt; stroke-linejoin: miter; stroke-opacity: 1;"/>
      <g id="g2357" transform="matrix(1.23245, 0, 0, 1.23245, 16.111, -7.01918)">
        <path d="M 496.96718,276.52512 L 593.82083,171.32201 C 593.82083,171.32201 643.91755,284.87457 662.28635,343.32074 C 680.65514,401.76691 700.69383,470.23243 700.69383,470.23243 L 491.95751,513.64958 L 496.96718,276.52512 z" id="path2293" style="fill: rgb(255, 255, 249); fill-opacity: 1; fill-rule: evenodd; stroke: rgb(0, 0, 0); stroke-width: 2.56; stroke-linecap: butt; stroke-linejoin: miter; stroke-miterlimit: 4; stroke-opacity: 1;"/>
        <path d="M 497.6274,67.788794 L 484.26827,553.72696" id="path2285" style="fill: none; fill-opacity: 0.75; fill-rule: evenodd; stroke: rgb(0, 0, 0); stroke-width: 6.75; stroke-linecap: butt; stroke-linejoin: miter; stroke-miterlimit: 4; stroke-opacity: 1;"/>
        <path d="M 362.36626,109.53606 L 338.98779,547.04739" id="path2283" style="fill: none; fill-opacity: 0.75; fill-rule: evenodd; stroke: rgb(0, 0, 0); stroke-width: 6.875; stroke-linecap: butt; stroke-linejoin: miter; stroke-miterlimit: 4; stroke-opacity: 1;"/>
        <path d="M 208.73632,513.64958 C 208.73632,513.64958 258.83304,436.83461 287.22118,390.07768 C 315.60932,343.32074 337.3179,303.24337 337.3179,303.24337 L 337.3179,510.3098 C 337.3179,510.3098 297.24052,511.97969 267.18249,515.31947 C 237.12446,518.65925 208.73632,513.64958 208.73632,513.64958 z" id="path2291" style="fill: rgb(255, 255, 249); fill-opacity: 1; fill-rule: evenodd; stroke: rgb(0, 0, 0); stroke-width: 2.56; stroke-linecap: butt; stroke-linejoin: miter; stroke-miterlimit: 4; stroke-opacity: 1;"/>
        <path d="M 214.90395,530.37132 L 106.27119,512.65945" id="path2281" style="fill: none; fill-opacity: 0.75; fill-rule: evenodd; stroke: rgb(0, 0, 0); stroke-width: 7; stroke-linecap: butt; stroke-linejoin: miter; stroke-miterlimit: 4; stroke-opacity: 1;"/>
        <path d="M 198,528.09448 C 198,528.09448 384,540.09448 444,538.09448 C 504,536.09448 558,532.09448 582,534.09448 C 606,536.09448 694,516.09448 674,528.09448 C 654,540.09448 702,538.09448 636,544.09448 C 570,550.09448 474,558.09448 426,554.09448 C 378,550.09448 284,542.09448 254,538.09448 C 224,534.09448 198,528.09448 198,528.09448 z" id="path2275" style="fill: rgb(37, 59, 89); fill-opacity: 1; fill-rule: evenodd; stroke: rgb(0, 0, 0); stroke-width: 2.75; stroke-linecap: butt; stroke-linejoin: miter; stroke-miterlimit: 4; stroke-opacity: 1;"/>
        <path d="M 194,526.09448 L 238,576.09448 C 238,576.09448 370,572.09448 440,576.09448 C 510,580.09448 602,574.09448 614,572.09448 C 626,570.09448 668,550.09448 674,546.09448 C 680,542.09448 678,528.09448 678,528.09448 C 678,528.09448 668,538.09448 614,542.09448 C 560,546.09448 458,552.09448 412,548.09448 C 366,544.09448 300,542.09448 266,536.09448 C 232,530.09448 194,526.09448 194,526.09448 z" id="path2273" style="fill: rgb(215, 231, 255); fill-opacity: 1; fill-rule: evenodd; stroke: rgb(0, 0, 0); stroke-width: 2.75; stroke-linecap: butt; stroke-linejoin: miter; stroke-miterlimit: 4; stroke-opacity: 1;"/>
        <path d="M 666.38701,545.95041 C 666.38701,545.95041 645.67533,558.97103 629.64049,566.29513 C 613.60565,573.61922 598.23892,574.43302 441.8992,576.06058 C 412.50201,576.06058 413.17012,574.433 402.48023,573.61922 C 425.19624,572.80543 540.78075,573.61921 616.27813,562.22618 C 653.69276,552.46073 666.38701,545.95041 666.38701,545.95041 z" id="path2277" style="fill: rgb(0, 0, 0); fill-opacity: 0.297297; fill-rule: evenodd; stroke: none; stroke-width: 1px; stroke-linecap: butt; stroke-linejoin: miter; stroke-opacity: 1;"/>
        <path d="M 207,535.91369 L 238.88136,572.51821 L 302.64407,571.33742 C 302.64407,571.33742 276.66667,577.24138 245.9661,561.89109 C 215.26554,546.54081 207,535.91369 207,535.91369 z" id="path2279" style="fill: rgb(0, 0, 0); fill-opacity: 0.2; fill-rule: evenodd; stroke: none; stroke-width: 1px; stroke-linecap: butt; stroke-linejoin: miter; stroke-opacity: 1;"/>
        <path d="M 327.29856,306.58315 C 327.29856,306.58315 242.13414,390.07768 213.746,413.45615 C 185.35786,436.83461 111.88267,508.63991 111.88267,508.63991 C 111.88267,508.63991 177.0084,493.61089 210.40621,490.27111 C 243.80403,486.93133 260.50293,483.59155 260.50293,483.59155 L 327.29856,306.58315 z" id="path2289" style="fill: rgb(255, 255, 249); fill-opacity: 1; fill-rule: evenodd; stroke: rgb(0, 0, 0); stroke-width: 2.56; stroke-linecap: butt; stroke-linejoin: miter; stroke-miterlimit: 4; stroke-opacity: 1;"/>
        <path d="M 203.72665,371.70888 C 203.72665,371.70888 258.83304,283.20468 285.55129,244.7972 C 312.26954,206.38971 352.34691,142.93387 352.34691,142.93387 C 352.34691,142.93387 338.98779,204.71982 335.64801,236.44774 C 332.30823,268.17566 332.30823,313.26271 332.30823,313.26271 C 332.30823,313.26271 300.58031,319.94227 268.85238,333.3014 C 237.12446,346.66052 203.72665,371.70888 203.72665,371.70888 z" id="path2287" style="fill: rgb(255, 255, 249); fill-opacity: 1; fill-rule: evenodd; stroke: rgb(0, 0, 0); stroke-width: 2.56; stroke-linecap: butt; stroke-linejoin: miter; stroke-miterlimit: 4; stroke-opacity: 1;"/>
        <path d="M 357.35659,319.94227 L 459.21991,226.4284 C 459.21991,226.4284 469.23926,269.84556 472.57904,308.25304 C 475.91882,346.66052 485.93816,503.63024 485.93816,503.63024 L 342.32757,511.97969 L 357.35659,319.94227 z" id="path2295" style="fill: rgb(250, 250, 243); fill-opacity: 1; fill-rule: evenodd; stroke: rgb(0, 0, 0); stroke-width: 2.56; stroke-linecap: butt; stroke-linejoin: miter; stroke-miterlimit: 4; stroke-opacity: 1;"/>
        <path d="M 344.79096,510.29787 L 358.96045,321.37132 L 458.14689,229.26962 L 472.31638,311.92499 L 486.48588,503.21313 L 344.79096,510.29787 z" id="path2327" style="fill: rgb(0, 0, 0); fill-opacity: 0.0432432; fill-rule: evenodd; stroke: none; stroke-width: 1px; stroke-linecap: butt; stroke-linejoin: miter; stroke-opacity: 1;"/>
        <path d="M 365.70604,147.94354 C 365.70604,147.94354 389.08451,194.70048 387.41462,204.71982 C 385.74473,214.73917 382.40494,264.83588 374.05549,291.55413 C 365.70604,318.27238 355.6867,326.62184 355.6867,326.62184 L 365.70604,147.94354 z" id="path2297" style="fill: rgb(255, 255, 249); fill-opacity: 1; fill-rule: evenodd; stroke: rgb(0, 0, 0); stroke-width: 2.56; stroke-linecap: butt; stroke-linejoin: miter; stroke-miterlimit: 4; stroke-opacity: 1;"/>
        <path d="M 500.96718,91.167262 C 500.96718,91.167262 524.34565,141.26398 544.38433,152.95321 C 564.42302,164.64245 582.79182,174.66179 582.79182,174.66179 L 522.67575,289.88424 C 522.67575,289.88424 505.97685,236.44774 502.63707,213.06928 C 499.29729,189.69081 499.29729,172.9919 499.29729,172.9919 L 500.96718,91.167262 z" id="path2299" style="fill: rgb(255, 255, 249); fill-opacity: 1; fill-rule: evenodd; stroke: rgb(0, 0, 0); stroke-width: 2.56; stroke-linecap: butt; stroke-linejoin: miter; stroke-miterlimit: 4; stroke-opacity: 1;"/>
        <path d="M 106.873,508.63991 C 110.21278,496.95068 205.39654,370.03899 205.39654,370.03899" id="path2301" style="fill: none; fill-opacity: 0.75; fill-rule: evenodd; stroke: rgb(0, 0, 0); stroke-width: 1px; stroke-linecap: butt; stroke-linejoin: miter; stroke-opacity: 1;"/>
        <path d="M 365.70604,137.9242 L 489.27794,209.72949 L 382.40494,233.10796" id="path2303" style="fill: none; fill-opacity: 0.75; fill-rule: evenodd; stroke: rgb(0, 0, 0); stroke-width: 1px; stroke-linecap: butt; stroke-linejoin: miter; stroke-opacity: 1;"/>
        <path d="M 385.74473,211.39938 L 494.28761,77.808137" id="path2305" style="fill: none; fill-opacity: 0.75; fill-rule: evenodd; stroke: rgb(0, 0, 0); stroke-width: 1px; stroke-linecap: butt; stroke-linejoin: miter; stroke-opacity: 1;"/>
        <path d="M 184.0339,490.32047 L 257.96587,485.14023 L 323.36723,329.7329 C 323.36723,329.7329 275.0271,438.51803 252.27879,456.64889 C 229.5305,474.77974 184.0339,490.32047 184.0339,490.32047 z" id="path2307" style="fill: rgb(0, 0, 0); fill-opacity: 0.0864865; fill-rule: evenodd; stroke: none; stroke-width: 1px; stroke-linecap: butt; stroke-linejoin: miter; stroke-opacity: 1;"/>
        <path d="M 231.43503,515.02104 L 332.98305,510.29787 L 335.34463,333.17923 C 335.34463,333.17923 321.17514,418.19618 304.64407,446.53516 C 288.11299,474.87414 231.43503,515.02104 231.43503,515.02104 z" id="path2309" style="fill: rgb(0, 0, 0); fill-opacity: 0.0864865; fill-rule: evenodd; stroke: none; stroke-width: 1px; stroke-linecap: butt; stroke-linejoin: miter; stroke-opacity: 1;"/>
        <path d="M 276.30508,328.45606 C 276.30508,328.45606 285.75141,321.37132 304.64407,316.64816 C 323.53672,311.92499 330.62147,311.92499 330.62147,311.92499 C 330.62147,311.92499 330.62147,271.7781 332.98305,241.07753 C 335.34463,210.37697 337.70621,203.29222 337.70621,203.29222 C 337.70621,203.29222 318.81356,233.99279 307.00565,267.05493 C 295.19774,300.11708 276.30508,328.45606 276.30508,328.45606 z" id="path2311" style="fill: rgb(0, 0, 0); fill-opacity: 0.0864865; fill-rule: evenodd; stroke: none; stroke-width: 1px; stroke-linecap: butt; stroke-linejoin: miter; stroke-opacity: 1;"/>
        <path d="M 493.57062,512.65945 L 699.02825,467.7894 L 665.9661,352.07188 L 595.11864,174.95324 C 595.11864,174.95324 559.69491,344.98714 540.80226,394.58036 C 521.9096,444.17358 493.57062,512.65945 493.57062,512.65945 z" id="path2315" style="fill: rgb(0, 0, 0); fill-opacity: 0.0864865; fill-rule: evenodd; stroke: none; stroke-width: 1px; stroke-linecap: butt; stroke-linejoin: miter; stroke-opacity: 1;"/>
        <path d="M 519.54802,285.94759 C 519.54802,285.94759 528.99435,257.60861 528.99435,217.46171 C 528.99435,177.31482 512.46328,156.06058 531.35593,160.78375 C 550.24859,165.50691 580.94915,177.31482 580.94915,177.31482 L 519.54802,285.94759 z" id="path2317" style="fill: rgb(0, 0, 0); fill-opacity: 0.0864865; fill-rule: evenodd; stroke: none; stroke-width: 1px; stroke-linecap: butt; stroke-linejoin: miter; stroke-opacity: 1;"/>
        <path d="M 236.15819,408.74985 C 236.15819,408.74985 269.22034,378.04929 288.11299,368.60296 C 307.00565,359.15663 304.64407,359.15663 304.64407,359.15663 L 285.75141,408.74985 C 285.75141,408.74985 276.30508,401.6651 259.77401,404.02669 C 243.24294,406.38827 236.15819,408.74985 236.15819,408.74985 z" id="path2319" style="fill: rgb(0, 0, 0); fill-opacity: 0.281081; fill-rule: evenodd; stroke: none; stroke-width: 1px; stroke-linecap: butt; stroke-linejoin: miter; stroke-opacity: 1;"/>
        <path d="M 238.51977,408.74985 L 110.99435,510.29787" id="path2321" style="fill: none; fill-opacity: 0.75; fill-rule: evenodd; stroke: rgb(0, 0, 0); stroke-width: 1px; stroke-linecap: butt; stroke-linejoin: miter; stroke-opacity: 0.486486;"/>
        <path d="M 212.54237,510.29787 C 212.54237,510.29787 295.19774,427.64251 311.72881,392.21878 C 328.25989,356.79505 335.34463,304.84025 335.34463,304.84025 L 335.34463,507.93629 L 243.24294,515.02104 L 212.54237,510.29787 z" id="path2323" style="fill: rgb(0, 0, 0); fill-opacity: 0.162162; fill-rule: evenodd; stroke: none; stroke-width: 1px; stroke-linecap: butt; stroke-linejoin: miter; stroke-opacity: 1;"/>
        <path d="M 342.42938,507.93629 C 342.42938,507.93629 368.40678,491.40522 373.12994,474.87414 C 377.85311,458.34307 356.59887,323.7329 356.59887,323.7329 C 356.59887,323.7329 370.76836,392.21878 382.57627,406.38827 C 394.38418,420.55776 406.19209,399.30352 406.19209,399.30352 L 420.36158,352.07188 C 420.36158,352.07188 418,314.28658 410.91525,293.03234 C 403.8305,271.7781 356.59887,323.7329 356.59887,323.7329 L 342.42938,507.93629 z" id="path2325" style="fill: rgb(255, 255, 249); fill-opacity: 0.756757; fill-rule: evenodd; stroke: none; stroke-width: 1px; stroke-linecap: butt; stroke-linejoin: miter; stroke-opacity: 1;"/>
        <path d="M 356.59887,321.37132 L 436.89265,248.16228 C 436.89265,248.16228 443.9774,243.43912 434.53107,271.7781 C 425.08475,300.11708 399.10734,328.45606 384.93785,326.09448 C 370.76836,323.7329 356.59887,321.37132 356.59887,321.37132 z" id="path2345" style="fill: rgb(0, 0, 0); fill-opacity: 0.172973; fill-rule: evenodd; stroke: none; stroke-width: 1px; stroke-linecap: butt; stroke-linejoin: miter; stroke-opacity: 1;"/>
        <path d="M 358.96045,510.29787 L 484.12429,503.21313 L 472.31638,309.56341 L 462.87006,243.43912 C 462.87006,243.43912 439.25424,278.86284 418,344.98714 C 396.74576,411.11143 387.29943,434.72725 384.93785,455.98149 C 382.57627,477.23573 358.96045,510.29787 358.96045,510.29787 z" id="path2313" style="fill: rgb(0, 0, 0); fill-opacity: 0.0864865; fill-rule: evenodd; stroke: none; stroke-width: 1px; stroke-linecap: butt; stroke-linejoin: miter; stroke-opacity: 1;"/>
        <path d="M 493.57062,489.04364 L 543.16384,363.87979 L 583.31073,203.29222 C 583.31073,203.29222 564.41808,255.24703 554.97175,290.67075 C 545.52542,326.09448 538.44068,368.60296 538.44068,368.60296 C 538.44068,368.60296 524.27119,380.41087 512.46328,413.47301 C 500.65537,446.53516 493.57062,489.04364 493.57062,489.04364 z" id="path2329" style="fill: rgb(0, 0, 0); fill-opacity: 0.081081; fill-rule: evenodd; stroke: none; stroke-width: 1px; stroke-linecap: butt; stroke-linejoin: miter; stroke-opacity: 1;"/>
        <path d="M 488.65537,467.04364 L 534.33333,352.22391 L 571.31073,204.90804 C 571.31073,204.90804 553.90961,252.56906 545.20904,285.0652 C 536.50847,317.56135 529.98305,356.55673 529.98305,356.55673 C 529.98305,356.55673 516.93221,367.38878 506.0565,397.71852 C 495.18079,428.04826 488.65537,467.04364 488.65537,467.04364 z" id="path2331" style="fill: rgb(0, 0, 0); fill-opacity: 0.0324324; fill-rule: evenodd; stroke: none; stroke-width: 1px; stroke-linecap: butt; stroke-linejoin: miter; stroke-opacity: 1;"/>
        <path d="M 552.61017,500.85154 L 699.02825,467.7894 L 654.15819,323.7329 C 654.15819,323.7329 670.68926,387.49561 658.88136,418.19618 C 647.07345,448.89674 552.61017,500.85154 552.61017,500.85154 z" id="path2333" style="fill: rgb(0, 0, 0); fill-opacity: 0.081081; fill-rule: evenodd; stroke: none; stroke-width: 1px; stroke-linecap: butt; stroke-linejoin: miter; stroke-opacity: 1;"/>
        <path d="M 406.19209,505.57471 L 484.12429,503.21313 L 477.03955,394.58036 C 477.03955,394.58036 481.76271,474.87414 469.9548,481.95889 C 458.14689,489.04364 406.19209,505.57471 406.19209,505.57471 z" id="path2335" style="fill: rgb(0, 0, 0); fill-opacity: 0.081081; fill-rule: evenodd; stroke: none; stroke-width: 1px; stroke-linecap: butt; stroke-linejoin: miter; stroke-opacity: 1;"/>
        <path d="M 358.96045,323.7329 C 358.96045,323.7329 368.40678,259.97019 370.76836,231.63121 C 373.12994,203.29222 370.76836,170.23008 370.76836,170.23008 C 370.76836,170.23008 373.12994,200.93064 375.49153,219.8233 C 377.85311,238.71595 380.21469,255.24703 380.21469,255.24703 C 380.21469,255.24703 380.21469,276.50126 373.12994,293.03234 C 366.0452,309.56341 358.96045,323.7329 358.96045,323.7329 z" id="path2337" style="fill: rgb(0, 0, 0); fill-opacity: 0.178378; fill-rule: evenodd; stroke: none; stroke-width: 1px; stroke-linecap: butt; stroke-linejoin: miter; stroke-opacity: 1;"/>
        <path d="M 484.12429,512.65945 L 706.11299,467.7894" id="path2339" style="fill: none; fill-opacity: 0.75; fill-rule: evenodd; stroke: rgb(0, 0, 0); stroke-width: 4.6; stroke-linecap: butt; stroke-linejoin: miter; stroke-miterlimit: 4; stroke-opacity: 1;"/>
        <path d="M 342.42938,510.29787 L 481.76271,503.21313" id="path2341" style="fill: none; fill-opacity: 0.75; fill-rule: evenodd; stroke: rgb(0, 0, 0); stroke-width: 3.7; stroke-linecap: butt; stroke-linejoin: miter; stroke-miterlimit: 4; stroke-opacity: 1;"/>
        <path d="M 337.70621,507.93629 L 200.73446,517.38262" id="path2343" style="fill: none; fill-opacity: 0.75; fill-rule: evenodd; stroke: rgb(0, 0, 0); stroke-width: 3.1; stroke-linecap: butt; stroke-linejoin: miter; stroke-miterlimit: 4; stroke-opacity: 1;"/>
        <path d="M 524.27119,293.03234 C 524.27119,293.03234 533.71751,262.33177 559.69491,233.99279 C 585.67232,205.65381 602.20339,198.56906 602.20339,198.56906 C 602.20339,198.56906 590.39548,174.95324 583.31073,179.6764 C 576.22599,184.39957 524.27119,293.03234 524.27119,293.03234 z" id="path2347" style="fill: rgb(0, 0, 0); fill-opacity: 0.172973; fill-rule: evenodd; stroke: none; stroke-width: 1px; stroke-linecap: butt; stroke-linejoin: miter; stroke-opacity: 1;"/>
        <path d="M 495.9322,75.7668 L 498.29378,30.896743" id="path2349" style="fill: none; fill-opacity: 0.75; fill-rule: evenodd; stroke: rgb(0, 0, 0); stroke-width: 1.4; stroke-linecap: butt; stroke-linejoin: miter; stroke-miterlimit: 4; stroke-opacity: 1;"/>
        <path d="M 582.0339,42.704653 C 582.0339,42.704653 558.41808,35.619907 541.88701,37.981489 C 525.35593,40.343071 501.74011,33.258325 501.74011,33.258325 L 499.37853,75.7668 C 499.37853,75.7668 499.37853,59.235726 513.54802,59.235726 C 527.71751,59.235726 520.63277,68.682054 544.24859,56.874144 C 567.86441,45.066234 582.0339,42.704653 582.0339,42.704653 z" id="path2351" style="fill: rgb(119, 153, 235); fill-opacity: 1; fill-rule: evenodd; stroke: none; stroke-width: 1px; stroke-linecap: butt; stroke-linejoin: miter; stroke-opacity: 1;"/>
        <path d="M 511.54802,31.981489 L 523.35593,57.95889 C 523.35593,57.95889 530.44068,65.043636 535.16384,55.597308 C 539.88701,46.15098 535.16384,60.320472 528.0791,50.874144 C 520.99435,41.427816 511.54802,31.981489 511.54802,31.981489 z" id="path2353" style="fill: rgb(0, 0, 0); fill-opacity: 0.210811; fill-rule: evenodd; stroke: none; stroke-width: 1px; stroke-linecap: butt; stroke-linejoin: miter; stroke-opacity: 1;"/>
        <path d="M 530.0791,37.981489 L 547.97834,37.981489 C 547.97834,37.981489 558.71789,52.15098 546.18842,52.15098 C 533.65895,52.15098 530.0791,37.981489 530.0791,37.981489 z" id="path2355" style="fill: rgb(255, 255, 255); fill-opacity: 0.491892; fill-rule: evenodd; stroke: none; stroke-width: 1px; stroke-linecap: butt; stroke-linejoin: miter; stroke-opacity: 1;"/>
      </g>
    </g>
  </g>
</svg>