<?xml version="1.0" encoding="UTF-8" standalone="no"?>
<!-- Created with Inkscape (http://www.inkscape.org/) -->
<svg
   xmlns:dc="http://purl.org/dc/elements/1.1/"
   xmlns:cc="http://creativecommons.org/ns#"
   xmlns:rdf="http://www.w3.org/1999/02/22-rdf-syntax-ns#"
   xmlns:svg="http://www.w3.org/2000/svg"
   xmlns="http://www.w3.org/2000/svg"
   xmlns:xlink="http://www.w3.org/1999/xlink"
   xmlns:sodipodi="http://sodipodi.sourceforge.net/DTD/sodipodi-0.dtd"
   xmlns:inkscape="http://www.inkscape.org/namespaces/inkscape"
   width="855.78406"
   height="145.96989"
   id="svg2591"
   sodipodi:version="0.32"
   inkscape:version="0.46"
   sodipodi:docname="rg1024_Digital_clinic_thermometer.svg"
   inkscape:output_extension="org.inkscape.output.svg.inkscape"
   version="1.0"
   inkscape:export-filename="/home/roger/mis-dibujos/open/termometro.png"
   inkscape:export-xdpi="45"
   inkscape:export-ydpi="45">
  <defs
     id="defs3">
    <linearGradient
       inkscape:collect="always"
       id="linearGradient3666">
      <stop
         style="stop-color: rgb(85, 87, 83); stop-opacity: 1;"
         offset="0"
         id="stop3668" />
      <stop
         style="stop-color: rgb(85, 87, 83); stop-opacity: 0;"
         offset="1"
         id="stop3670" />
    </linearGradient>
    <linearGradient
       id="linearGradient3574">
      <stop
         style="stop-color: rgb(211, 215, 207); stop-opacity: 1;"
         offset="0"
         id="stop3576" />
      <stop
         style="stop-color: rgb(255, 255, 255); stop-opacity: 1;"
         offset="1"
         id="stop3578" />
    </linearGradient>
    <linearGradient
       id="linearGradient3469">
      <stop
         style="stop-color: rgb(186, 189, 182); stop-opacity: 1;"
         offset="0"
         id="stop3471" />
      <stop
         id="stop3477"
         offset="0.28973272"
         style="stop-color: rgb(238, 238, 236); stop-opacity: 1;" />
      <stop
         style="stop-color: rgb(186, 189, 182); stop-opacity: 1;"
         offset="0.53973275"
         id="stop3479" />
      <stop
         id="stop3481"
         offset="0.75234407"
         style="stop-color: rgb(85, 87, 83); stop-opacity: 1;" />
      <stop
         style="stop-color: rgb(238, 238, 236); stop-opacity: 1;"
         offset="1"
         id="stop3473" />
    </linearGradient>
    <linearGradient
       id="linearGradient3410">
      <stop
         id="stop3412"
         offset="0"
         style="stop-color: rgb(136, 138, 133); stop-opacity: 1;" />
      <stop
         style="stop-color: rgb(136, 138, 133); stop-opacity: 0.498039;"
         offset="0.30906093"
         id="stop3414" />
      <stop
         id="stop3416"
         offset="1"
         style="stop-color: rgb(136, 138, 133); stop-opacity: 0;" />
    </linearGradient>
    <linearGradient
       id="linearGradient3390">
      <stop
         style="stop-color: rgb(136, 138, 133); stop-opacity: 1;"
         offset="0"
         id="stop3392" />
      <stop
         id="stop3398"
         offset="0.28077665"
         style="stop-color: rgb(136, 138, 133); stop-opacity: 0.498039;" />
      <stop
         style="stop-color: rgb(136, 138, 133); stop-opacity: 0;"
         offset="1"
         id="stop3394" />
    </linearGradient>
    <inkscape:perspective
       sodipodi:type="inkscape:persp3d"
       inkscape:vp_x="0 : 526.18109 : 1"
       inkscape:vp_y="0 : 1000 : 0"
       inkscape:vp_z="744.09448 : 526.18109 : 1"
       inkscape:persp3d-origin="372.04724 : 350.78739 : 1"
       id="perspective2597" />
    <linearGradient
       inkscape:collect="always"
       xlink:href="#linearGradient3390"
       id="linearGradient3396"
       x1="547.9718"
       y1="433.4155"
       x2="620.95673"
       y2="433.4155"
       gradientUnits="userSpaceOnUse"
       spreadMethod="reflect"
       gradientTransform="translate(-290,12.2426)" />
    <linearGradient
       inkscape:collect="always"
       xlink:href="#linearGradient3410"
       id="linearGradient3408"
       x1="541.2171"
       y1="681.32727"
       x2="576.57245"
       y2="681.32727"
       gradientUnits="userSpaceOnUse"
       spreadMethod="reflect"
       gradientTransform="translate(-245.939,130.646)" />
    <filter
       inkscape:collect="always"
       id="filter3453">
      <feGaussianBlur
         inkscape:collect="always"
         stdDeviation="0.75737847"
         id="feGaussianBlur3455" />
    </filter>
    <linearGradient
       inkscape:collect="always"
       xlink:href="#linearGradient3469"
       id="linearGradient3475"
       x1="342.11835"
       y1="954.78156"
       x2="319.73358"
       y2="954.0744"
       gradientUnits="userSpaceOnUse"
       gradientTransform="matrix(1.60526,0,0,1.60526,-200.297,-569.762)" />
    <filter
       inkscape:collect="always"
       id="filter3554"
       x="-0.047739714"
       width="1.0954794"
       y="-0.13720483"
       height="1.2744097">
      <feGaussianBlur
         inkscape:collect="always"
         stdDeviation="0.3923355"
         id="feGaussianBlur3556" />
    </filter>
    <linearGradient
       inkscape:collect="always"
       xlink:href="#linearGradient3574"
       id="linearGradient3580"
       x1="502.83517"
       y1="219.44438"
       x2="550.28809"
       y2="257.14301"
       gradientUnits="userSpaceOnUse" />
    <linearGradient
       inkscape:collect="always"
       xlink:href="#linearGradient3469"
       id="linearGradient3636"
       gradientUnits="userSpaceOnUse"
       gradientTransform="matrix(1.60526,0,0,1.60526,106.587,-554.206)"
       x1="342.11835"
       y1="954.78156"
       x2="319.73358"
       y2="954.0744" />
    <linearGradient
       inkscape:collect="always"
       xlink:href="#linearGradient3410"
       id="linearGradient3638"
       gradientUnits="userSpaceOnUse"
       gradientTransform="translate(60.5914,146.203)"
       spreadMethod="reflect"
       x1="541.2171"
       y1="681.32727"
       x2="576.57245"
       y2="681.32727" />
    <linearGradient
       inkscape:collect="always"
       xlink:href="#linearGradient3390"
       id="linearGradient3640"
       gradientUnits="userSpaceOnUse"
       gradientTransform="translate(206.884,86.799)"
       spreadMethod="reflect"
       x1="547.9718"
       y1="433.4155"
       x2="620.95673"
       y2="433.4155" />
    <linearGradient
       inkscape:collect="always"
       xlink:href="#linearGradient3574"
       id="linearGradient3642"
       gradientUnits="userSpaceOnUse"
       x1="502.83517"
       y1="219.44438"
       x2="550.28809"
       y2="257.14301" />
    <linearGradient
       inkscape:collect="always"
       xlink:href="#linearGradient3390"
       id="linearGradient3652"
       x1="752.849"
       y1="485.97186"
       x2="821.84113"
       y2="485.97186"
       gradientUnits="userSpaceOnUse"
       gradientTransform="translate(-184,-25)"
       spreadMethod="reflect" />
    <linearGradient
       inkscape:collect="always"
       xlink:href="#linearGradient3410"
       id="linearGradient3659"
       gradientUnits="userSpaceOnUse"
       gradientTransform="translate(-141.995,167.77)"
       spreadMethod="reflect"
       x1="541.2171"
       y1="681.32727"
       x2="576.57245"
       y2="681.32727" />
    <linearGradient
       inkscape:collect="always"
       xlink:href="#linearGradient3666"
       id="linearGradient3672"
       x1="331.69409"
       y1="955.69147"
       x2="334.02652"
       y2="936.59961"
       gradientUnits="userSpaceOnUse"
       gradientTransform="translate(0.353553,0)" />
    <linearGradient
       inkscape:collect="always"
       xlink:href="#linearGradient3469"
       id="linearGradient2446"
       gradientUnits="userSpaceOnUse"
       gradientTransform="matrix(1.60526,0,0,1.60526,-200.297,-569.762)"
       x1="342.11835"
       y1="954.78156"
       x2="319.73358"
       y2="954.0744" />
    <linearGradient
       inkscape:collect="always"
       xlink:href="#linearGradient3410"
       id="linearGradient2448"
       gradientUnits="userSpaceOnUse"
       gradientTransform="translate(-245.939,130.646)"
       spreadMethod="reflect"
       x1="541.2171"
       y1="681.32727"
       x2="576.57245"
       y2="681.32727" />
    <linearGradient
       inkscape:collect="always"
       xlink:href="#linearGradient3390"
       id="linearGradient2450"
       gradientUnits="userSpaceOnUse"
       gradientTransform="translate(-290,12.2426)"
       spreadMethod="reflect"
       x1="547.9718"
       y1="433.4155"
       x2="620.95673"
       y2="433.4155" />
    <linearGradient
       inkscape:collect="always"
       xlink:href="#linearGradient3574"
       id="linearGradient2452"
       gradientUnits="userSpaceOnUse"
       x1="502.83517"
       y1="219.44438"
       x2="550.28809"
       y2="257.14301" />
    <linearGradient
       inkscape:collect="always"
       xlink:href="#linearGradient3666"
       id="linearGradient2454"
       gradientUnits="userSpaceOnUse"
       gradientTransform="translate(0.353553,0)"
       x1="331.69409"
       y1="955.69147"
       x2="334.02652"
       y2="936.59961" />
  </defs>
  <sodipodi:namedview
     inkscape:document-units="mm"
     id="base"
     pagecolor="#ffffff"
     bordercolor="#666666"
     borderopacity="1.0"
     inkscape:pageopacity="0.0"
     inkscape:pageshadow="2"
     inkscape:zoom="0.5"
     inkscape:cx="326.29638"
     inkscape:cy="534.09225"
     inkscape:current-layer="layer1"
     showgrid="false"
     showguides="true"
     inkscape:guide-bbox="true"
     inkscape:window-width="1272"
     inkscape:window-height="821"
     inkscape:window-x="0"
     inkscape:window-y="25" />
  <metadata
     id="metadata4">
    <rdf:RDF>
      <cc:Work
         rdf:about="">
        <dc:format>image/svg+xml</dc:format>
        <dc:type
           rdf:resource="http://purl.org/dc/dcmitype/StillImage" />
        <cc:license
           rdf:resource="http://creativecommons.org/licenses/publicdomain/" />
      </cc:Work>
      <cc:License
         rdf:about="http://creativecommons.org/licenses/publicdomain/">
        <cc:permits
           rdf:resource="http://creativecommons.org/ns#Reproduction" />
        <cc:permits
           rdf:resource="http://creativecommons.org/ns#Distribution" />
        <cc:permits
           rdf:resource="http://creativecommons.org/ns#DerivativeWorks" />
      </cc:License>
    </rdf:RDF>
  </metadata>
  <g
     inkscape:label="Layer 1"
     inkscape:groupmode="layer"
     id="layer1"
     transform="translate(96.93528,-483.60304)">
    <g
       id="g2429"
       transform="matrix(0,-1,1,0,-225.63124,887.54474)">
      <path
         sodipodi:nodetypes="cccsccc"
         id="rect2610"
         d="M 330.92597,898.21298 C 339.1009,898.21298 342.47165,905.15586 342.47165,913.77996 L 348.8927,968.91303 C 348.8927,977.53714 339.1009,984.48002 330.92597,984.48002 C 322.75104,984.48002 312.95924,977.53714 312.95924,968.91303 L 319.38029,913.77996 C 319.38029,905.15586 322.75104,898.21298 330.92597,898.21298 z"
         style="fill:url(#linearGradient2446);fill-opacity:1;fill-rule:nonzero;stroke:none;stroke-width:1000;stroke-linecap:round;stroke-linejoin:round;stroke-miterlimit:4;stroke-dashoffset:0;stroke-opacity:1" />
      <path
         sodipodi:nodetypes="ccccc"
         id="rect2605"
         d="M 295.92421,679.31847 L 366.63489,679.31847 L 346.63489,946.64974 L 315.92421,946.64974 L 295.92421,679.31847 z"
         style="opacity:1;fill:#3465a4;fill-opacity:1;fill-rule:nonzero;stroke:none;stroke-width:1000;stroke-linecap:round;stroke-linejoin:round;stroke-miterlimit:4;stroke-dashoffset:0;stroke-opacity:1" />
      <path
         style="opacity:1;fill:url(#linearGradient2448);fill-opacity:1;fill-rule:nonzero;stroke:none;stroke-width:1000;stroke-linecap:round;stroke-linejoin:round;stroke-miterlimit:4;stroke-dashoffset:0;stroke-opacity:1"
         d="M 295.27775,678.30807 L 365.98843,678.30807 L 345.98843,945.63934 L 315.27775,945.63934 L 295.27775,678.30807 z"
         id="path3400"
         sodipodi:nodetypes="ccccc" />
      <path
         sodipodi:nodetypes="ccscccccccsccc"
         id="rect2599"
         d="M 308.59738,128.69596 C 298.36284,133.15574 285.90161,143.26017 272.50363,164.41471 C 261.87673,245.2425 257.91713,310.14454 257.97238,366.32096 C 258.12513,521.63223 289.07874,504.25766 295.37863,678.41471 C 297.15035,680.18643 301.06773,679.5969 303.09738,680.69596 L 318.53488,716.69596 C 318.53488,716.69595 323.93659,761.73549 330.94113,762.13346 C 339.74764,762.44667 343.37863,716.69595 343.37863,716.69596 L 358.78488,680.69596 C 360.81541,679.5967 364.76246,680.18713 366.53488,678.41471 C 372.83477,504.25766 403.78837,521.63223 403.94113,366.32096 C 403.99638,310.14454 400.03678,245.2425 389.40988,164.41471 C 376.0051,143.24944 363.52235,133.15226 353.28488,128.69596 L 308.59738,128.69596 z"
         style="opacity:1;fill:#eeeeec;fill-opacity:1;fill-rule:nonzero;stroke:none;stroke-width:1000;stroke-linecap:round;stroke-linejoin:round;stroke-miterlimit:4;stroke-dashoffset:0;stroke-opacity:1" />
      <path
         style="opacity:0.71126799;fill:url(#linearGradient2450);fill-opacity:1;fill-rule:nonzero;stroke:none;stroke-width:1000;stroke-linecap:round;stroke-linejoin:round;stroke-miterlimit:4;stroke-dashoffset:0;stroke-opacity:1"
         d="M 308.59738,128.9386 C 298.36284,133.39838 285.90161,143.50281 272.50363,164.65735 C 261.87673,245.48514 257.91713,310.38718 257.97238,366.5636 C 258.12513,521.87487 289.07874,504.5003 295.37863,678.65735 C 297.15035,680.42907 301.06773,679.83954 303.09738,680.9386 L 318.53488,716.9386 C 318.53488,716.93859 323.93659,761.97813 330.94113,762.3761 C 339.74764,762.68931 343.37863,716.93859 343.37863,716.9386 L 358.78488,680.9386 C 360.81541,679.83934 364.76246,680.42977 366.53488,678.65735 C 372.83477,504.5003 403.78837,521.87487 403.94113,366.5636 C 403.99638,310.38718 400.03678,245.48514 389.40988,164.65735 C 376.0051,143.49208 363.52235,133.3949 353.28488,128.9386 L 308.59738,128.9386 z"
         id="path2618"
         sodipodi:nodetypes="ccscccccccsccc" />
      <path
         sodipodi:nodetypes="ccccccccc"
         id="rect2613"
         d="M 328,179.36218 L 334,179.36218 C 349.512,179.36218 362,191.85018 362,207.36218 L 362,400.36218 C 362,415.87418 349.512,482.36218 334,482.36218 L 328,482.36218 C 312.488,482.36218 300,415.87418 300,400.36218 L 300,207.36218 C 300,191.85018 312.488,179.36218 328,179.36218 z"
         style="fill:#3465a4;fill-opacity:1;fill-rule:nonzero;stroke:none;stroke-width:1000;stroke-linecap:round;stroke-linejoin:round;stroke-miterlimit:4;stroke-dashoffset:0;stroke-opacity:1" />
      <path
         transform="matrix(0.734375,0,0,0.734375,-55.5156,52.6118)"
         d="M 559,241.36218 A 32,32 0 1 1 495,241.36218 A 32,32 0 1 1 559,241.36218 z"
         sodipodi:ry="32"
         sodipodi:rx="32"
         sodipodi:cy="241.36218"
         sodipodi:cx="527"
         id="path2616"
         style="opacity:1;fill:#d3d7cf;fill-opacity:1;fill-rule:nonzero;stroke:none;stroke-width:1000;stroke-linecap:round;stroke-linejoin:round;stroke-miterlimit:4;stroke-dasharray:none;stroke-dashoffset:0;stroke-opacity:1"
         sodipodi:type="arc" />
      <rect
         y="271.87061"
         x="315.93311"
         height="136.47162"
         width="31.112698"
         id="rect3418"
         style="opacity:1;fill:#9dc575;fill-opacity:1;fill-rule:nonzero;stroke:none;stroke-width:1000;stroke-linecap:round;stroke-linejoin:round;stroke-miterlimit:4;stroke-dasharray:none;stroke-dashoffset:0;stroke-opacity:1" />
      <rect
         style="opacity:1;fill:#c6c6c5;fill-opacity:1;fill-rule:nonzero;stroke:none;stroke-width:1000;stroke-linecap:round;stroke-linejoin:round;stroke-miterlimit:4;stroke-dasharray:none;stroke-dashoffset:0;stroke-opacity:1"
         id="rect3420"
         width="4.2426395"
         height="136.47162"
         x="312.39755"
         y="271.87061" />
      <rect
         y="271.87061"
         x="346.10645"
         height="136.47162"
         width="3.1819797"
         id="rect3422"
         style="opacity:1;fill:#9b9d99;fill-opacity:1;fill-rule:nonzero;stroke:none;stroke-width:1000;stroke-linecap:round;stroke-linejoin:round;stroke-miterlimit:4;stroke-dasharray:none;stroke-dashoffset:0;stroke-opacity:1" />
      <path
         sodipodi:nodetypes="ccccccccc"
         id="rect3424"
         d="M 312,271.875 L 312,281.875 L 343,281.875 L 343,408.875 L 349,408.875 L 349,281.875 L 349.5,281.875 L 349.5,271.875 L 312,271.875 z"
         style="opacity:0.41197199;fill:#555753;fill-opacity:1;fill-rule:nonzero;stroke:none;stroke-width:1000;stroke-linecap:round;stroke-linejoin:round;stroke-miterlimit:4;stroke-dasharray:none;stroke-dashoffset:0;stroke-opacity:1;filter:url(#filter3453)" />
      <path
         transform="matrix(1.60526,0,0,1.60526,-200.297,-569.762)"
         id="path3483"
         d="M 321.3568,960.99147 L 321.13673,962.22605 C 321.13673,965.34727 326.52946,967.85424 331.01235,967.85424 C 335.49524,967.85424 340.86047,965.34727 340.86046,962.22605 L 340.69541,961.282 C 340.62882,961.28332 340.56995,961.282 340.50285,961.282 L 323.69504,961.282 C 322.87105,961.282 322.07857,961.17759 321.3568,960.99147 z"
         style="opacity:0.54225302;fill:#555753;fill-opacity:1;fill-rule:nonzero;stroke:none;stroke-width:1000;stroke-linecap:round;stroke-linejoin:round;stroke-miterlimit:4;stroke-dashoffset:0;stroke-opacity:1;filter:url(#filter3554)" />
      <path
         transform="matrix(0,0.555658,-0.555658,0,631.639,-8.65947)"
         id="flowRoot3558"
         d="M 516.88,553.4639 L 514.72,555.3439 L 513.08,553.4639 L 514.68,542.2239 L 516.4,542.2239 L 518.16,544.3039 L 516.88,553.4639 M 518.84,539.3439 L 516.52,541.4239 L 514.8,541.4239 L 516.36,530.1839 L 518.52,528.3039 L 520.12,530.1839 L 518.84,539.3439 M 532.48,527.7039 L 530.36,529.5839 L 520.8,529.5839 L 519.2,527.7039 L 521.32,525.8239 L 530.88,525.8239 L 532.48,527.7039 M 533.04,541.4239 L 531.32,541.4239 L 529.56,539.3439 L 530.84,530.1839 L 533,528.3039 L 534.6,530.1839 L 533.04,541.4239 M 531.36,553.4639 L 529.2,555.3439 L 527.56,553.4639 L 528.88,544.3039 L 531.2,542.2239 L 532.92,542.2239 L 531.36,553.4639 M 528.52,555.9439 L 526.36,557.8239 L 516.84,557.8239 L 515.24,555.9439 L 517.36,554.0639 L 526.92,554.0639 L 528.52,555.9439 M 538.23875,555.8639 L 536.11875,557.7439 L 534.47875,555.8639 L 536.39875,542.2239 L 538.11875,542.2239 L 539.87875,544.3039 L 538.23875,555.8639 M 540.55875,539.3439 L 538.23875,541.4239 L 536.51875,541.4239 L 538.43875,527.7839 L 540.55875,525.9039 L 542.19875,527.7839 L 540.55875,539.3439 M 550.47875,539.2239 L 548.27875,539.2239 L 542.35875,532.3439 L 542.95875,527.9039 L 544.03875,527.9039 L 550.91875,535.9439 L 550.47875,539.2239 M 554.75875,541.4239 L 553.03875,541.4239 L 551.27875,539.3439 L 552.91875,527.7839 L 555.03875,525.9039 L 556.67875,527.7839 L 554.75875,541.4239 M 552.71875,555.8639 L 550.55875,557.7439 L 548.95875,555.8639 L 550.59875,544.3039 L 552.91875,542.2239 L 554.63875,542.2239 L 552.71875,555.8639 M 641.43375,539.3439 L 639.31375,541.2239 L 637.67375,539.3439 L 638.99375,530.1839 L 641.11375,528.3039 L 642.75375,530.1839 L 641.43375,539.3439 M 640.63375,527.7039 L 638.47375,529.5839 L 627.75375,529.5839 L 626.11375,527.7039 L 628.27375,525.8239 L 638.99375,525.8239 L 640.63375,527.7039 M 638.63375,541.8239 L 636.47375,543.7039 L 628.07375,543.7039 L 626.47375,541.8239 L 628.63375,539.9439 L 637.03375,539.9439 L 638.63375,541.8239 M 639.47375,553.4639 L 637.31375,555.3439 L 635.71375,553.4639 L 636.99375,544.3039 L 639.15375,542.4239 L 640.75375,544.3039 L 639.47375,553.4639 M 636.63375,555.9439 L 634.51375,557.8239 L 623.79375,557.8239 L 622.15375,555.9439 L 624.31375,554.0639 L 635.03375,554.0639 L 636.63375,555.9439 M 663.7925,527.7039 L 661.6325,529.5839 L 652.1125,529.5839 L 650.5125,527.7039 L 652.6325,525.8239 L 662.1925,525.8239 L 663.7925,527.7039 M 650.1525,539.3439 L 647.8325,541.4239 L 646.1125,541.4239 L 647.6725,530.1839 L 649.8325,528.3039 L 651.4325,530.1839 L 650.1525,539.3439 M 648.1925,553.4639 L 646.0325,555.3439 L 644.3925,553.4639 L 645.9925,542.2239 L 647.7125,542.2239 L 649.4725,544.3039 L 648.1925,553.4639 M 659.8325,555.9439 L 657.6725,557.8239 L 648.1525,557.8239 L 646.5125,555.9439 L 648.6725,554.0639 L 658.1925,554.0639 L 659.8325,555.9439 M 662.6325,553.4639 L 660.5125,555.3439 L 658.8725,553.4639 L 660.1525,544.3039 L 662.3125,542.4239 L 663.9525,544.3039 L 662.6325,553.4639 M 661.8325,541.8239 L 659.6725,543.7039 L 650.0725,543.7039 L 648.4725,541.8239 L 650.6325,539.9439 L 660.1925,539.9439 L 661.8325,541.8239 M 670.39125,555.7839 L 668.27125,557.6639 L 666.63125,555.7839 L 666.91125,553.9039 L 669.03125,552.0239 L 670.67125,553.9039 L 670.39125,555.7839 M 679.57687,531.1839 L 677.41688,533.0639 L 675.77688,531.1839 L 675.93687,530.1839 L 678.09687,528.3039 L 679.69687,530.1839 L 679.57687,531.1839 M 692.05687,527.7039 L 689.89688,529.5839 L 680.37688,529.5839 L 678.73688,527.7039 L 680.89688,525.8239 L 690.41688,525.8239 L 692.05687,527.7039 M 692.89688,539.3439 L 690.73688,541.2239 L 689.13688,539.3439 L 690.41688,530.1839 L 692.57687,528.3039 L 694.17687,530.1839 L 692.89688,539.3439 M 690.13688,541.8239 L 687.97687,543.7039 L 678.37688,543.7039 L 676.77688,541.8239 L 678.93687,539.9439 L 688.49688,539.9439 L 690.13688,541.8239 M 676.41688,553.4639 L 672.13688,557.2239 L 673.97687,544.2239 L 676.09687,542.3439 L 677.73688,544.2239 L 676.41688,553.4639 M 689.73688,557.8239 L 672.65688,557.8239 L 676.93687,554.0639 L 686.49688,554.0639 L 689.73688,557.8239 M 737.21438,531.1839 L 735.05438,533.0639 L 733.45438,531.1839 L 733.57438,530.1839 L 735.73438,528.3039 L 737.33438,530.1839 L 737.21438,531.1839 M 735.21438,527.7039 L 733.09438,529.5839 L 723.53437,529.5839 L 721.93438,527.7039 L 724.05438,525.8239 L 733.61437,525.8239 L 735.21438,527.7039 M 721.57438,539.3439 L 719.25437,541.4239 L 717.53437,541.4239 L 719.09438,530.1839 L 721.25437,528.3039 L 722.85438,530.1839 L 721.57438,539.3439 M 719.61437,553.4639 L 717.45438,555.3439 L 715.81438,553.4639 L 717.41437,542.2239 L 719.13437,542.2239 L 720.89437,544.3039 L 719.61437,553.4639 M 731.25437,555.9439 L 729.09438,557.8239 L 719.57438,557.8239 L 717.97438,555.9439 L 720.09438,554.0639 L 729.65437,554.0639 L 731.25437,555.9439 M 734.09438,553.4639 L 731.93438,555.3439 L 730.29437,553.4639 L 730.45438,552.4639 L 732.61437,550.5839 L 734.21438,552.4639 L 734.09438,553.4639"
         style="font-size:40px;font-style:normal;font-variant:normal;font-weight:bold;font-stretch:normal;text-align:start;line-height:125%;text-anchor:start;fill:#000000;fill-opacity:1;stroke:none;stroke-width:1px;stroke-linecap:butt;stroke-linejoin:miter;stroke-opacity:1;font-family:LCD2" />
      <path
         sodipodi:type="arc"
         style="opacity:1;fill:url(#linearGradient2452);fill-opacity:1;fill-rule:nonzero;stroke:#babdb6;stroke-width:1.86388004;stroke-linecap:round;stroke-linejoin:round;stroke-miterlimit:4;stroke-dasharray:none;stroke-dashoffset:0;stroke-opacity:1"
         id="path3572"
         sodipodi:cx="527"
         sodipodi:cy="241.36218"
         sodipodi:rx="32"
         sodipodi:ry="32"
         d="M 559,241.36218 A 32,32 0 1 1 495,241.36218 A 32,32 0 1 1 559,241.36218 z"
         transform="matrix(0.600678,0,0,0.600678,14.6926,85.6312)" />
      <path
         id="path3657"
         d="M 315.21951,926.86525 L 316.68826,946.334 L 347.40701,946.334 L 348.87576,926.86525 L 315.21951,926.86525 z"
         style="opacity:1;fill:url(#linearGradient2454);fill-opacity:1;fill-rule:nonzero;stroke:none;stroke-width:1000;stroke-linecap:round;stroke-linejoin:round;stroke-miterlimit:4;stroke-dashoffset:0;stroke-opacity:1" />
    </g>
  </g>
</svg>
