<?xml version="1.0" encoding="UTF-8" standalone="no"?>
<!-- Created with Inkscape (http://www.inkscape.org/) -->

<svg
   xmlns:dc="http://purl.org/dc/elements/1.1/"
   xmlns:cc="http://creativecommons.org/ns#"
   xmlns:rdf="http://www.w3.org/1999/02/22-rdf-syntax-ns#"
   xmlns:svg="http://www.w3.org/2000/svg"
   xmlns="http://www.w3.org/2000/svg"
   xmlns:xlink="http://www.w3.org/1999/xlink"
   xmlns:sodipodi="http://sodipodi.sourceforge.net/DTD/sodipodi-0.dtd"
   xmlns:inkscape="http://www.inkscape.org/namespaces/inkscape"
   height="416.25000"
   id="svg1399"
   version="1.0"
   width="393.75000"
   x="0.0000000"
   y="0.0000000"
   inkscape:version="0.47pre3 r22311"
   sodipodi:docname="Anonymous_Leaf_Rake.svg">
  <sodipodi:namedview
     pagecolor="#ffffff"
     bordercolor="#666666"
     borderopacity="1"
     objecttolerance="10"
     gridtolerance="10"
     guidetolerance="10"
     inkscape:pageopacity="0"
     inkscape:pageshadow="2"
     inkscape:window-width="1280"
     inkscape:window-height="681"
     id="namedview80"
     showgrid="false"
     inkscape:zoom="0.56696697"
     inkscape:cx="196.875"
     inkscape:cy="208.125"
     inkscape:window-x="0"
     inkscape:window-y="0"
     inkscape:window-maximized="0"
     inkscape:current-layer="svg1399" />
  <metadata
     id="metadata3">
    <rdf:RDF>
      <cc:Work
         rdf:about="">
        <dc:title>LeafRake</dc:title>
        <dc:description />
        <dc:subject>
          <rdf:Bag>
            <rdf:li>garden</rdf:li>
            <rdf:li>leaves</rdf:li>
            <rdf:li>fall</rdf:li>
            <rdf:li>leafrake</rdf:li>
            <rdf:li>tool</rdf:li>
            <rdf:li>rake</rdf:li>
            <rdf:li>leaf</rdf:li>
          </rdf:Bag>
        </dc:subject>
        <dc:publisher>
          <cc:Agent
             rdf:about="http://www.openclipart.org/">
            <dc:title>Open Clip Art Library</dc:title>
          </cc:Agent>
        </dc:publisher>
        <dc:creator>
          <cc:Agent>
            <dc:title>Benji Park</dc:title>
          </cc:Agent>
        </dc:creator>
        <dc:rights>
          <cc:Agent>
            <dc:title>Benji Park</dc:title>
          </cc:Agent>
        </dc:rights>
        <dc:date />
        <dc:format>image/svg+xml</dc:format>
        <dc:type
           rdf:resource="http://purl.org/dc/dcmitype/StillImage" />
        <cc:license
           rdf:resource="http://web.resource.org/cc/PublicDomain" />
        <dc:language>en</dc:language>
      </cc:Work>
      <cc:License
         rdf:about="http://web.resource.org/cc/PublicDomain">
        <cc:permits
           rdf:resource="http://web.resource.org/cc/Reproduction" />
        <cc:permits
           rdf:resource="http://web.resource.org/cc/Distribution" />
        <cc:permits
           rdf:resource="http://web.resource.org/cc/DerivativeWorks" />
      </cc:License>
    </rdf:RDF>
  </metadata>
  <defs
     id="defs1402">
    <linearGradient
       id="linearGradient2404">
      <stop
         id="stop2406"
         offset="0.0000000"
         style="stop-color: rgb(126, 0, 0); stop-opacity: 1;" />
      <stop
         id="stop2408"
         offset="0.50000000"
         style="stop-color: rgb(121, 94, 94); stop-opacity: 1;" />
      <stop
         id="stop2410"
         offset="0.75000000"
         style="stop-color: rgb(179, 69, 69); stop-opacity: 1;" />
      <stop
         id="stop2412"
         offset="1.0000000"
         style="stop-color: rgb(93, 80, 80); stop-opacity: 1;" />
    </linearGradient>
    <linearGradient
       id="linearGradient2328">
      <stop
         id="stop2330"
         offset="0.0000000"
         style="stop-color: rgb(200, 0, 0); stop-opacity: 1;" />
      <stop
         id="stop2336"
         offset="0.50000000"
         style="stop-color: rgb(120, 1, 1); stop-opacity: 1;" />
      <stop
         id="stop2338"
         offset="0.75000000"
         style="stop-color: rgb(238, 83, 83); stop-opacity: 1;" />
      <stop
         id="stop2332"
         offset="1.0000000"
         style="stop-color: rgb(196, 4, 4); stop-opacity: 1;" />
    </linearGradient>
    <linearGradient
       id="linearGradient6955">
      <stop
         id="stop6957"
         offset="0.0000000"
         style="stop-color: rgb(91, 57, 14); stop-opacity: 1;" />
      <stop
         id="stop6971"
         offset="0.50000000"
         style="stop-color: rgb(181, 145, 71); stop-opacity: 1;" />
      <stop
         id="stop6973"
         offset="0.75000000"
         style="stop-color: rgb(80, 64, 24); stop-opacity: 1;" />
      <stop
         id="stop6959"
         offset="1.0000000"
         style="stop-color: rgb(165, 131, 35); stop-opacity: 1;" />
    </linearGradient>
    <linearGradient
       gradientTransform="matrix(0.929052, 0.0376356, -0.0376356, 0.929052, -48.3285, -242.33)"
       gradientUnits="userSpaceOnUse"
       id="linearGradient3156"
       x1="308.24765"
       x2="324.44196"
       xlink:href="#linearGradient6955"
       y1="470.48007"
       y2="500.48007" />
    <linearGradient
       gradientUnits="userSpaceOnUse"
       id="linearGradient3158"
       x1="485.42197"
       x2="405.80161"
       xlink:href="#linearGradient2404"
       y1="85.549057"
       y2="134.07475" />
    <linearGradient
       gradientUnits="userSpaceOnUse"
       id="linearGradient3160"
       x1="485.42197"
       x2="405.80161"
       xlink:href="#linearGradient2404"
       y1="85.549057"
       y2="134.07475" />
    <linearGradient
       gradientUnits="userSpaceOnUse"
       id="linearGradient3162"
       x1="485.42197"
       x2="405.80161"
       xlink:href="#linearGradient2404"
       y1="85.549057"
       y2="134.07475" />
    <linearGradient
       gradientUnits="userSpaceOnUse"
       id="linearGradient3164"
       x1="485.42197"
       x2="405.80161"
       xlink:href="#linearGradient2404"
       y1="85.549057"
       y2="134.07475" />
    <linearGradient
       gradientUnits="userSpaceOnUse"
       id="linearGradient3166"
       x1="485.42197"
       x2="405.80161"
       xlink:href="#linearGradient2404"
       y1="85.549057"
       y2="134.07475" />
    <linearGradient
       gradientUnits="userSpaceOnUse"
       id="linearGradient3168"
       x1="485.42197"
       x2="405.80161"
       xlink:href="#linearGradient2404"
       y1="85.549057"
       y2="134.07475" />
    <linearGradient
       gradientUnits="userSpaceOnUse"
       id="linearGradient3170"
       x1="485.42197"
       x2="405.80161"
       xlink:href="#linearGradient2404"
       y1="85.549057"
       y2="134.07475" />
    <linearGradient
       gradientUnits="userSpaceOnUse"
       id="linearGradient3172"
       x1="485.42197"
       x2="405.80161"
       xlink:href="#linearGradient2404"
       y1="85.549057"
       y2="134.07475" />
    <linearGradient
       gradientUnits="userSpaceOnUse"
       id="linearGradient3174"
       x1="485.42197"
       x2="405.80161"
       xlink:href="#linearGradient2404"
       y1="85.549057"
       y2="134.07475" />
    <linearGradient
       gradientUnits="userSpaceOnUse"
       id="linearGradient3176"
       x1="485.42197"
       x2="405.80161"
       xlink:href="#linearGradient2404"
       y1="85.549057"
       y2="134.07475" />
    <linearGradient
       gradientUnits="userSpaceOnUse"
       id="linearGradient3178"
       x1="485.42197"
       x2="405.80161"
       xlink:href="#linearGradient2404"
       y1="85.549057"
       y2="134.07475" />
    <linearGradient
       gradientUnits="userSpaceOnUse"
       id="linearGradient3180"
       x1="378.03027"
       x2="391.56219"
       xlink:href="#linearGradient2328"
       y1="129.02399"
       y2="158.39114" />
    <linearGradient
       gradientUnits="userSpaceOnUse"
       id="linearGradient3182"
       x1="408.96866"
       x2="453.61981"
       xlink:href="#linearGradient2328"
       y1="99.224937"
       y2="120.53053" />
  </defs>
  <g
     id="g3140"
     transform="matrix(0.287189, 0.957874, -0.957874, 0.287189, 311.742, -108.457)">
    <path
       d="M 347.58886,157.44250 L 24.058492,317.15758 C 24.058492,317.15758 19.736926,320.58132 22.203177,325.33410 C 24.669429,330.08689 30.757301,327.48004 30.757301,327.48004 L 355.72242,165.16431 L 347.58886,157.44250 z "
       id="path6227"
       style="fill: url(#linearGradient3156) rgb(0, 0, 0); fill-opacity: 1; fill-rule: evenodd; stroke: rgb(0, 0, 0); stroke-width: 2; stroke-linecap: butt; stroke-linejoin: miter; stroke-miterlimit: 4; stroke-dasharray: none; stroke-opacity: 1;" />
    <path
       d="M 398.47212,117.79536 L 432.73381,61.364334 C 432.73381,61.364334 433.88546,59.061027 437.62834,57.045633 C 441.37121,55.030240 447.70530,51.575279 447.70530,51.575279 L 450.29652,53.878586 C 450.29652,53.878586 438.20416,57.909374 435.61294,62.228074 C 433.02172,66.546775 401.35125,120.09866 401.35125,120.09866 L 398.47212,117.79536 z "
       id="path2354"
       style="fill: url(#linearGradient3158) rgb(0, 0, 0); fill-opacity: 1; fill-rule: evenodd; stroke: rgb(0, 0, 0); stroke-width: 1; stroke-linecap: butt; stroke-linejoin: miter; stroke-miterlimit: 4; stroke-dasharray: none; stroke-opacity: 1;" />
    <path
       d="M 456.91853,55.030240 C 456.91853,55.030240 444.25034,62.515988 440.79538,66.546775 C 437.34042,70.577562 400.19960,120.38658 400.19960,120.38658 L 402.50290,121.53823 C 402.50290,121.53823 440.21956,70.001735 444.53826,66.834688 C 448.85696,63.667641 459.22184,57.621460 459.22184,57.621460 L 456.91853,55.030240 z "
       id="path2356"
       style="fill: url(#linearGradient3160) rgb(0, 0, 0); fill-opacity: 1; fill-rule: evenodd; stroke: rgb(0, 0, 0); stroke-width: 1; stroke-linecap: butt; stroke-linejoin: miter; stroke-miterlimit: 4; stroke-dasharray: none; stroke-opacity: 1;" />
    <path
       d="M 465.55593,59.636854 C 465.55593,59.636854 451.73609,68.274255 445.97782,74.320436 C 440.21956,80.366617 401.63916,122.68988 401.63916,122.68988 L 405.09412,123.26571 C 405.09412,123.26571 448.28113,76.335830 455.19105,71.441302 C 462.10097,66.546775 468.43507,61.652247 468.43507,61.652247 L 465.55593,59.636854 z "
       id="path2358"
       style="fill: url(#linearGradient3162) rgb(0, 0, 0); fill-opacity: 1; fill-rule: evenodd; stroke: rgb(0, 0, 0); stroke-width: 1; stroke-linecap: butt; stroke-linejoin: miter; stroke-miterlimit: 4; stroke-dasharray: none; stroke-opacity: 1;" />
    <path
       d="M 405.95786,123.84154 C 405.95786,123.84154 453.17566,81.806184 458.93393,78.063310 C 464.69219,74.320436 474.19333,68.850082 474.19333,68.850082 L 475.92081,71.729216 C 475.92081,71.729216 462.96471,78.351223 459.22184,81.230357 C 455.47896,84.109491 407.68534,126.14484 407.68534,126.14484 L 405.95786,123.84154 z "
       id="path2360"
       style="fill: url(#linearGradient3164) rgb(0, 0, 0); fill-opacity: 1; fill-rule: evenodd; stroke: rgb(0, 0, 0); stroke-width: 1; stroke-linecap: butt; stroke-linejoin: miter; stroke-miterlimit: 4; stroke-dasharray: none; stroke-opacity: 1;" />
    <path
       d="M 408.26117,126.43276 C 408.26117,126.43276 459.79767,88.428192 466.70759,85.261144 C 473.61751,82.094097 481.10326,78.063310 481.10326,78.063310 L 481.96700,81.518271 C 481.96700,81.518271 468.43507,87.852365 460.08558,93.610632 C 451.73609,99.368900 409.98865,128.44815 409.98865,128.44815 L 408.26117,126.43276 z "
       id="path2362"
       style="fill: url(#linearGradient3166) rgb(0, 0, 0); fill-opacity: 1; fill-rule: evenodd; stroke: rgb(0, 0, 0); stroke-width: 1; stroke-linecap: butt; stroke-linejoin: miter; stroke-miterlimit: 4; stroke-dasharray: none; stroke-opacity: 1;" />
    <path
       d="M 410.56448,127.58441 C 410.56448,127.58441 465.26802,97.641420 471.31420,95.050199 C 477.36038,92.458979 486.28570,88.716105 486.28570,88.716105 L 487.14944,91.883152 C 487.14944,91.883152 459.79767,104.83925 454.61522,107.71839 C 449.43278,110.59752 411.14030,130.75146 411.14030,130.75146 L 410.56448,127.58441 z "
       id="path2364"
       style="fill: url(#linearGradient3168) rgb(0, 0, 0); fill-opacity: 1; fill-rule: evenodd; stroke: rgb(0, 0, 0); stroke-width: 1; stroke-linecap: butt; stroke-linejoin: miter; stroke-miterlimit: 4; stroke-dasharray: none; stroke-opacity: 1;" />
    <path
       d="M 412.00404,131.03937 L 491.18022,97.641420 L 492.04396,101.09638 L 412.86778,133.91851 L 412.00404,131.03937 z "
       id="path2366"
       style="fill: url(#linearGradient3170) rgb(0, 0, 0); fill-opacity: 1; fill-rule: evenodd; stroke: rgb(0, 0, 0); stroke-width: 1; stroke-linecap: butt; stroke-linejoin: miter; stroke-miterlimit: 4; stroke-dasharray: none; stroke-opacity: 1;" />
    <path
       d="M 413.15570,134.78225 C 413.15570,134.78225 470.73837,117.21953 476.78455,114.91622 C 482.83074,112.61292 494.05936,108.29421 494.05936,108.29421 L 495.21101,112.03709 C 495.21101,112.03709 482.25491,117.50744 474.48125,119.81075 C 466.70759,122.11406 414.30735,137.37347 414.30735,137.37347 L 413.15570,134.78225 z "
       id="path2368"
       style="fill: url(#linearGradient3172) rgb(0, 0, 0); fill-opacity: 1; fill-rule: evenodd; stroke: rgb(0, 0, 0); stroke-width: 1; stroke-linecap: butt; stroke-linejoin: miter; stroke-miterlimit: 4; stroke-dasharray: none; stroke-opacity: 1;" />
    <path
       d="M 414.30735,137.94929 C 414.30735,137.94929 469.58672,126.72067 477.07247,124.99319 C 484.55822,123.26571 497.51432,118.65910 497.51432,118.65910 L 497.80223,122.40197 C 497.80223,122.40197 481.96700,127.58441 474.19333,129.31189 C 466.41967,131.03937 414.01944,140.82843 414.01944,140.82843 L 414.30735,137.94929 z "
       id="path2370"
       style="fill: url(#linearGradient3174) rgb(0, 0, 0); fill-opacity: 1; fill-rule: evenodd; stroke: rgb(0, 0, 0); stroke-width: 1; stroke-linecap: butt; stroke-linejoin: miter; stroke-miterlimit: 4; stroke-dasharray: none; stroke-opacity: 1;" />
    <path
       d="M 414.59526,141.40425 C 414.59526,141.40425 468.43507,138.52512 477.93621,136.50973 C 487.43735,134.49433 499.81762,130.75146 499.81762,130.75146 L 500.39345,134.49433 C 500.39345,134.49433 485.70987,139.10095 479.95160,139.96469 C 474.19333,140.82843 414.59526,144.28339 414.59526,144.28339 L 414.59526,141.40425 z "
       id="path2372"
       style="fill: url(#linearGradient3176) rgb(0, 0, 0); fill-opacity: 1; fill-rule: evenodd; stroke: rgb(0, 0, 0); stroke-width: 1; stroke-linecap: butt; stroke-linejoin: miter; stroke-miterlimit: 4; stroke-dasharray: none; stroke-opacity: 1;" />
    <path
       d="M 414.59526,146.29878 C 414.59526,146.29878 477.64829,145.43504 481.96700,144.85921 C 486.28570,144.28339 499.81762,141.40425 499.81762,141.40425 L 499.81762,146.01087 C 499.81762,146.01087 489.16483,147.73835 481.96700,148.89000 C 474.76916,150.04165 414.01944,148.60209 414.01944,148.60209 L 414.59526,146.29878 z "
       id="path2374"
       style="fill: url(#linearGradient3178) rgb(0, 0, 0); fill-opacity: 1; fill-rule: evenodd; stroke: rgb(0, 0, 0); stroke-width: 1; stroke-linecap: butt; stroke-linejoin: miter; stroke-miterlimit: 4; stroke-dasharray: none; stroke-opacity: 1;" />
    <path
       d="M 344.92023,157.81532 C 344.92023,157.81532 376.30279,145.43504 379.75775,142.55591 C 383.21271,139.67677 398.47212,117.21953 398.47212,117.21953 C 398.47212,117.21953 409.12491,121.25032 412.86778,130.17563 C 416.61066,139.10095 415.45901,149.46583 415.45901,149.46583 C 415.45901,149.46583 389.25889,147.45043 381.19731,152.05705 C 373.13574,156.66366 350.39058,169.04394 350.39058,169.04394 C 350.39058,169.04394 351.83015,166.16480 350.10267,162.99776 C 348.37519,159.83071 345.49605,158.39114 344.92023,157.81532 z "
       id="path1597"
       style="fill: url(#linearGradient3180) rgb(0, 0, 0); fill-opacity: 1; fill-rule: evenodd; stroke: rgb(0, 0, 0); stroke-width: 2; stroke-linecap: butt; stroke-linejoin: miter; stroke-miterlimit: 4; stroke-dasharray: none; stroke-opacity: 1;" />
    <path
       d="M 411.42822,93.898546 L 414.59526,88.988625 C 414.59526,88.988625 429.32511,102.91754 437.91625,118.08327 C 447.43041,134.87840 450.29652,150.32957 450.29652,150.32957 L 444.25034,150.61748 C 444.25034,150.61748 441.37121,136.79764 431.87007,120.67449 C 422.36893,104.55134 411.71613,93.898546 411.42822,93.898546 z "
       id="path1599"
       style="fill: url(#linearGradient3182) rgb(0, 0, 0); fill-opacity: 1; fill-rule: evenodd; stroke: rgb(0, 0, 0); stroke-width: 2; stroke-linecap: butt; stroke-linejoin: miter; stroke-miterlimit: 4; stroke-dasharray: none; stroke-opacity: 1;" />
  </g>
</svg>
