<?xml version="1.0" encoding="UTF-8" standalone="no"?>
<!-- Created with Inkscape (http://www.inkscape.org/) -->

<svg
   xmlns:dc="http://purl.org/dc/elements/1.1/"
   xmlns:cc="http://creativecommons.org/ns#"
   xmlns:rdf="http://www.w3.org/1999/02/22-rdf-syntax-ns#"
   xmlns:svg="http://www.w3.org/2000/svg"
   xmlns="http://www.w3.org/2000/svg"
   xmlns:xlink="http://www.w3.org/1999/xlink"
   xmlns:sodipodi="http://sodipodi.sourceforge.net/DTD/sodipodi-0.dtd"
   xmlns:inkscape="http://www.inkscape.org/namespaces/inkscape"
   width="354.94897"
   height="1187.5754"
   id="svg2"
   sodipodi:version="0.32"
   inkscape:version="0.47pre3 r22311"
   sodipodi:docname="violin.svg"
   inkscape:output_extension="org.inkscape.output.svg.inkscape"
   version="1.0"
   inkscape:export-filename="/home/dstulle/Desktop/violin.png"
   inkscape:export-xdpi="90"
   inkscape:export-ydpi="90">
  <defs
     id="defs4">
    <linearGradient
       id="linearGradient5294">
      <stop
         id="stop5296"
         offset="0"
         style="stop-color: rgb(193, 55, 9); stop-opacity: 1;" />
      <stop
         style="stop-color: rgb(111, 17, 0); stop-opacity: 1;"
         offset="0.5"
         id="stop5300" />
      <stop
         id="stop5302"
         offset="0.5"
         style="stop-color: rgb(193, 55, 9); stop-opacity: 1;" />
      <stop
         style="stop-color: rgb(111, 17, 0); stop-opacity: 1;"
         offset="1"
         id="stop5298" />
    </linearGradient>
    <linearGradient
       id="linearGradient5238">
      <stop
         style="stop-color: rgb(193, 55, 9); stop-opacity: 1;"
         offset="0"
         id="stop5244" />
      <stop
         id="stop5242"
         offset="1"
         style="stop-color: rgb(111, 17, 0); stop-opacity: 1;" />
    </linearGradient>
    <linearGradient
       id="linearGradient3439">
      <stop
         id="stop3441"
         offset="0"
         style="stop-color: rgb(255, 255, 255); stop-opacity: 0.392157;" />
      <stop
         id="stop3443"
         offset="1"
         style="stop-color: rgb(255, 255, 255); stop-opacity: 0;" />
    </linearGradient>
    <linearGradient
       id="linearGradient3417">
      <stop
         id="stop3419"
         offset="0"
         style="stop-color: rgb(111, 17, 0); stop-opacity: 1;" />
      <stop
         style="stop-color: rgb(152, 36, 4); stop-opacity: 1;"
         offset="0.5"
         id="stop3423" />
      <stop
         id="stop3425"
         offset="0.5"
         style="stop-color: rgb(172, 45, 6); stop-opacity: 1;" />
      <stop
         id="stop3421"
         offset="1"
         style="stop-color: rgb(193, 55, 9); stop-opacity: 1;" />
    </linearGradient>
    <linearGradient
       id="linearGradient3405">
      <stop
         id="stop3407"
         offset="0"
         style="stop-color: rgb(111, 17, 0); stop-opacity: 0;" />
      <stop
         style="stop-color: rgb(152, 36, 4); stop-opacity: 1;"
         offset="0.5"
         id="stop3413" />
      <stop
         id="stop3415"
         offset="0.75"
         style="stop-color: rgb(172, 45, 6); stop-opacity: 1;" />
      <stop
         id="stop3409"
         offset="1"
         style="stop-color: rgb(193, 55, 9); stop-opacity: 0;" />
    </linearGradient>
    <linearGradient
       id="linearGradient3230">
      <stop
         style="stop-color: rgb(56, 56, 56); stop-opacity: 1;"
         offset="0"
         id="stop3232" />
      <stop
         style="stop-color: rgb(0, 0, 0); stop-opacity: 1;"
         offset="1"
         id="stop3234" />
    </linearGradient>
    <linearGradient
       id="linearGradient3218">
      <stop
         style="stop-color: rgb(111, 17, 0); stop-opacity: 1;"
         offset="0"
         id="stop5100" />
      <stop
         style="stop-color: rgb(193, 55, 9); stop-opacity: 1;"
         offset="1"
         id="stop3222" />
    </linearGradient>
    <linearGradient
       inkscape:collect="always"
       xlink:href="#linearGradient3218"
       id="linearGradient3393"
       gradientUnits="userSpaceOnUse"
       x1="351.09375"
       y1="5.265625"
       x2="398.625"
       y2="5.265625" />
    <linearGradient
       inkscape:collect="always"
       xlink:href="#linearGradient3218"
       id="linearGradient3395"
       gradientUnits="userSpaceOnUse"
       x1="361.47476"
       y1="67.05616"
       x2="361.47476"
       y2="55.041042" />
    <linearGradient
       inkscape:collect="always"
       xlink:href="#linearGradient3218"
       id="linearGradient3397"
       gradientUnits="userSpaceOnUse"
       x1="290.97482"
       y1="61.333298"
       x2="322.85696"
       y2="61.333298" />
    <linearGradient
       inkscape:collect="always"
       xlink:href="#linearGradient3218"
       id="linearGradient3399"
       gradientUnits="userSpaceOnUse"
       gradientTransform="matrix(-1,0,0,1,750.157,-33.1395)"
       x1="361.47476"
       y1="67.05616"
       x2="361.47476"
       y2="55.041042" />
    <linearGradient
       inkscape:collect="always"
       xlink:href="#linearGradient3218"
       id="linearGradient3402"
       gradientUnits="userSpaceOnUse"
       gradientTransform="matrix(-1,0,0,1,750.157,-33.1395)"
       x1="290.94473"
       y1="61.33083"
       x2="323.35696"
       y2="61.33083" />
    <linearGradient
       inkscape:collect="always"
       xlink:href="#linearGradient3218"
       id="linearGradient3404"
       gradientUnits="userSpaceOnUse"
       gradientTransform="matrix(-1,0,0,1,750.157,-33.1395)"
       x1="361.47476"
       y1="67.05616"
       x2="361.47476"
       y2="55.041042" />
    <linearGradient
       inkscape:collect="always"
       xlink:href="#linearGradient3218"
       id="linearGradient3406"
       gradientUnits="userSpaceOnUse"
       gradientTransform="matrix(-1,0,0,1,750.157,-33.1395)"
       x1="322.85696"
       y1="61.333298"
       x2="290.97482"
       y2="61.333298" />
    <linearGradient
       inkscape:collect="always"
       xlink:href="#linearGradient3218"
       id="linearGradient3408"
       gradientUnits="userSpaceOnUse"
       gradientTransform="matrix(-1,0,0,1,749.404,-113.119)"
       x1="361.47476"
       y1="67.05616"
       x2="361.47476"
       y2="55.041042" />
    <linearGradient
       inkscape:collect="always"
       xlink:href="#linearGradient3218"
       id="linearGradient3410"
       gradientUnits="userSpaceOnUse"
       gradientTransform="matrix(-1,0,0,1,749.404,-113.119)"
       x1="322.85696"
       y1="61.333298"
       x2="290.97482"
       y2="61.333298" />
    <linearGradient
       inkscape:collect="always"
       xlink:href="#linearGradient3218"
       id="linearGradient3412"
       gradientUnits="userSpaceOnUse"
       x1="360.4263"
       y1="7.1922789"
       x2="352.38412"
       y2="6.9602585" />
    <linearGradient
       inkscape:collect="always"
       xlink:href="#linearGradient3218"
       id="linearGradient3414"
       gradientUnits="userSpaceOnUse"
       x1="397.59622"
       y1="6.307662"
       x2="389.52878"
       y2="6.6250591" />
    <linearGradient
       inkscape:collect="always"
       xlink:href="#linearGradient5238"
       id="linearGradient3416"
       gradientUnits="userSpaceOnUse"
       x1="152.58463"
       y1="-36.437538"
       x2="208.42401"
       y2="-36.437538" />
    <radialGradient
       inkscape:collect="always"
       xlink:href="#linearGradient3218"
       id="radialGradient3418"
       gradientUnits="userSpaceOnUse"
       gradientTransform="matrix(0.492017,0,0,1.91616,186.179,-555.4)"
       cx="378.31836"
       cy="641.1543"
       fx="378.31836"
       fy="641.1543"
       r="177.47461" />
    <radialGradient
       inkscape:collect="always"
       xlink:href="#linearGradient3439"
       id="radialGradient3420"
       gradientUnits="userSpaceOnUse"
       gradientTransform="matrix(1,0,0,1.43434,0,-272.957)"
       cx="375.46323"
       cy="628.43494"
       fx="375.46323"
       fy="628.43494"
       r="52.724625" />
    <linearGradient
       inkscape:collect="always"
       xlink:href="#linearGradient3230"
       id="linearGradient3422"
       gradientUnits="userSpaceOnUse"
       gradientTransform="translate(-6,32)"
       x1="343.9039"
       y1="308.53244"
       x2="418.04654"
       y2="308.53244" />
    <linearGradient
       inkscape:collect="always"
       xlink:href="#linearGradient3417"
       id="linearGradient3424"
       gradientUnits="userSpaceOnUse"
       x1="406.3793"
       y1="889.7276"
       x2="345.98233"
       y2="889.7276" />
    <linearGradient
       inkscape:collect="always"
       xlink:href="#linearGradient3218"
       id="linearGradient3426"
       gradientUnits="userSpaceOnUse"
       gradientTransform="matrix(2.03866,0,0,2.03866,-392.314,-1069.48)"
       x1="383.13989"
       y1="1029.2728"
       x2="370.87793"
       y2="1029.2728" />
    <linearGradient
       inkscape:collect="always"
       xlink:href="#linearGradient3439"
       id="linearGradient3428"
       gradientUnits="userSpaceOnUse"
       gradientTransform="translate(-6,32)"
       x1="380.97522"
       y1="668.55109"
       x2="380.97522"
       y2="466.17374" />
    <linearGradient
       inkscape:collect="always"
       xlink:href="#linearGradient3218"
       id="linearGradient3430"
       gradientUnits="userSpaceOnUse"
       x1="202.13686"
       y1="939.11127"
       x2="411.46695"
       y2="1012.6062" />
    <linearGradient
       inkscape:collect="always"
       xlink:href="#linearGradient3405"
       id="linearGradient3432"
       gradientUnits="userSpaceOnUse"
       x1="388.53705"
       y1="1027.6353"
       x2="373.12177"
       y2="987.04279" />
    <linearGradient
       inkscape:collect="always"
       xlink:href="#linearGradient3218"
       id="linearGradient3434"
       gradientUnits="userSpaceOnUse"
       gradientTransform="translate(2.63634,-2.66286)"
       x1="375.11923"
       y1="-94.893219"
       x2="375.11923"
       y2="-109.32054" />
    <linearGradient
       inkscape:collect="always"
       xlink:href="#linearGradient5238"
       id="linearGradient3436"
       gradientUnits="userSpaceOnUse"
       gradientTransform="translate(2.63634,-0.266286)"
       x1="375.11935"
       y1="-96.826653"
       x2="375.11935"
       y2="-88.666191" />
    <linearGradient
       inkscape:collect="always"
       xlink:href="#linearGradient5238"
       id="linearGradient3438"
       gradientUnits="userSpaceOnUse"
       gradientTransform="translate(197.48,-73.6991)"
       x1="179.34361"
       y1="-51.28442"
       x2="179.34361"
       y2="-14.667243" />
    <linearGradient
       inkscape:collect="always"
       xlink:href="#linearGradient5294"
       id="linearGradient3440"
       gradientUnits="userSpaceOnUse"
       x1="191.60466"
       y1="-36.343391"
       x2="168.94656"
       y2="-36.343391" />
  </defs>
  <sodipodi:namedview
     id="base"
     pagecolor="#ffffff"
     bordercolor="#666666"
     borderopacity="1.0"
     gridtolerance="10000"
     guidetolerance="10"
     objecttolerance="10"
     inkscape:pageopacity="0.0"
     inkscape:pageshadow="2"
     inkscape:zoom="0.46942013"
     inkscape:cx="-153.30055"
     inkscape:cy="790.81437"
     inkscape:document-units="px"
     inkscape:current-layer="g2541"
     showgrid="false"
     inkscape:window-width="1280"
     inkscape:window-height="778"
     inkscape:window-x="0"
     inkscape:window-y="0"
     showguides="true"
     inkscape:guide-bbox="true"
     inkscape:window-maximized="0" />
  <metadata
     id="metadata7">
    <rdf:RDF>
      <cc:Work
         rdf:about="">
        <dc:format>image/svg+xml</dc:format>
        <dc:type
           rdf:resource="http://purl.org/dc/dcmitype/StillImage" />
        <dc:title>Violin 4/4</dc:title>
        <dc:date>2008-05-09</dc:date>
        <dc:creator>
          <cc:Agent>
            <dc:title>Daniel Sturm (dStulle)</dc:title>
          </cc:Agent>
        </dc:creator>
      </cc:Work>
    </rdf:RDF>
  </metadata>
  <g
     inkscape:label="Layer 1"
     inkscape:groupmode="layer"
     id="layer1"
     transform="translate(-145.91985,192.66847)">
    <g
       id="g5394"
       transform="matrix(0.893184,-0.44969,0.44969,0.893184,-213.804,253.088)"
       inkscape:export-xdpi="90"
       inkscape:export-ydpi="90">
      <g
         id="g2698"
         transform="matrix(0.580283,0.814415,-0.814415,0.580283,554.882,-137.038)">
        <g
           id="g2541"
           transform="matrix(0.880754,-0.473574,0.473574,0.880754,-192.147,209.844)"
           inkscape:export-xdpi="90"
           inkscape:export-ydpi="90">
          <g
             id="g3312"
             transform="matrix(0.999962,0.00872652,-0.00872652,0.999962,-0.5061336,-17.658883)">
            <path
               style="fill:url(#linearGradient3393);fill-opacity:1;fill-rule:evenodd;stroke:#000000;stroke-width:1px;stroke-linecap:butt;stroke-linejoin:miter;stroke-opacity:1"
               d="m 354.5,-72.4375 -2.90625,155.40625 35.625,-0.03125 0,-0.3125 10.90625,0 -2.65625,-155.0625 -1.625,0 -33.1875,0 -6.15625,0 z"
               id="path3338" />
            <path
               id="path3357"
               d="m 354.5,-72.4375 -2.90625,155.40625 35.625,-0.03125 0,-0.3125 10.90625,0 -2.65625,-155.0625 -1.625,0 -33.1875,0 -6.15625,0 z"
               style="fill:#000000;fill-opacity:0.78431396;fill-rule:evenodd;stroke:#000000;stroke-width:1px;stroke-linecap:butt;stroke-linejoin:miter;stroke-opacity:1" />
            <g
               id="g5278">
              <path
                 sodipodi:nodetypes="ccccc"
                 id="path5088"
                 d="m 322.26282,55.541043 78.42388,1.50634 0,8.661461 -78.32973,0.847317 c 0,0 -0.0942,-11.015118 -0.0942,-11.015118 z"
                 style="fill:url(#linearGradient3395);fill-opacity:1;fill-rule:evenodd;stroke:#000000;stroke-width:2;stroke-linecap:butt;stroke-linejoin:miter;stroke-miterlimit:4;stroke-opacity:1;stroke-dasharray:none" />
              <path
                 style="fill:url(#linearGradient3397);fill-opacity:1;fill-rule:evenodd;stroke:#000000;stroke-width:2;stroke-linecap:butt;stroke-linejoin:miter;stroke-miterlimit:4;stroke-opacity:1;stroke-dasharray:none"
                 d="m 322.35697,57.423969 0,7.90829 c -0.013,16.725455 -7.69094,17.095406 -13.68366,17.147578 -7.06085,0.06147 -17.03469,-5.129287 -17.19633,-20.913434 -0.16915,-16.517348 9.69906,-21.589511 16.93015,-21.373627 5.93363,0.177148 13.57326,0.157194 13.94984,17.231193 z"
                 id="path5090"
                 sodipodi:nodetypes="ccsssc" />
            </g>
            <g
               id="g5282">
              <path
                 sodipodi:nodetypes="ccccc"
                 id="path5142"
                 d="m 427.89391,22.401519 -78.42388,1.50634 0,8.661461 78.32973,0.847317 c 0,0 0.0942,-11.015118 0.0942,-11.015118 z"
                 style="fill:url(#linearGradient3399);fill-opacity:1;fill-rule:evenodd;stroke:#000000;stroke-width:2;stroke-linecap:butt;stroke-linejoin:miter;stroke-miterlimit:4;stroke-opacity:1;stroke-dasharray:none" />
              <path
                 style="fill:url(#linearGradient3402);fill-opacity:1;fill-rule:evenodd;stroke:#000000;stroke-width:2;stroke-linecap:butt;stroke-linejoin:round;stroke-miterlimit:4;stroke-opacity:1;stroke-dasharray:none"
                 d="m 427.79976,24.284445 0,7.90829 c 0.002,2.899945 0.50122,4.24306 0.91558,6.243228 5.70351,-5.642483 7.81441,-5.648507 12.76808,-5.605381 5.12496,0.04462 10.03086,0.228525 14.45386,3.758219 1.25723,-2.845034 2.33895,-6.282448 2.27174,-8.632654 -0.0755,-2.63879 -1.26133,-5.808846 -2.37012,-8.678111 -4.37424,3.177346 -8.7556,3.459994 -14.0893,3.619232 -5.08336,0.151763 -8.35654,-0.639993 -13.36693,-4.950619 -0.32585,1.795512 -0.52895,3.891151 -0.58291,6.337796 z"
                 id="path5144"
                 sodipodi:nodetypes="cccscscscc" />
            </g>
            <g
               id="g5316"
               transform="matrix(-1,0,0,1,751.202,-47.4707)">
              <path
                 sodipodi:nodetypes="ccccc"
                 id="path5318"
                 d="m 427.89391,22.401519 -78.42388,1.50634 0,8.661461 78.32973,0.847317 c 0,0 0.0942,-11.015118 0.0942,-11.015118 z"
                 style="fill:url(#linearGradient3404);fill-opacity:1;fill-rule:evenodd;stroke:#000000;stroke-width:2;stroke-linecap:butt;stroke-linejoin:miter;stroke-miterlimit:4;stroke-opacity:1;stroke-dasharray:none" />
              <path
                 style="fill:url(#linearGradient3406);fill-opacity:1;fill-rule:evenodd;stroke:#000000;stroke-width:2;stroke-linecap:butt;stroke-linejoin:round;stroke-miterlimit:4;stroke-opacity:1;stroke-dasharray:none"
                 d="m 427.79976,24.284445 0,7.90829 c 0.002,2.899945 0.50122,4.24306 0.91558,6.243228 5.70351,-5.642483 7.81441,-5.648507 12.76808,-5.605381 5.12496,0.04462 10.03086,0.228525 14.45386,3.758219 1.25723,-2.845034 2.33895,-6.282448 2.27174,-8.632654 -0.0755,-2.63879 -1.26133,-5.808846 -2.37012,-8.678111 -4.37424,3.177346 -8.7556,3.459994 -14.0893,3.619232 -5.08336,0.151763 -8.35654,-0.639993 -13.36693,-4.950619 -0.32585,1.795512 -0.52895,3.891151 -0.58291,6.337796 z"
                 id="path5320"
                 sodipodi:nodetypes="cccscscscc" />
            </g>
            <g
               id="g5290">
              <path
                 sodipodi:nodetypes="ccccc"
                 id="path5160"
                 d="m 427.14074,-57.578007 -78.42388,1.50634 0,8.661461 78.32973,0.847317 c 0,0 0.0942,-11.015118 0.0942,-11.015118 z"
                 style="fill:url(#linearGradient3408);fill-opacity:1;fill-rule:evenodd;stroke:#000000;stroke-width:2;stroke-linecap:butt;stroke-linejoin:miter;stroke-miterlimit:4;stroke-opacity:1;stroke-dasharray:none" />
              <path
                 style="fill:url(#linearGradient3410);fill-opacity:1;fill-rule:evenodd;stroke:#000000;stroke-width:2;stroke-linecap:butt;stroke-linejoin:miter;stroke-miterlimit:4;stroke-opacity:1;stroke-dasharray:none"
                 d="m 427.04659,-55.695081 0,7.90829 c 0.013,16.725455 7.69094,17.095406 13.68366,17.147578 7.06085,0.06147 17.03469,-5.129287 17.19633,-20.913434 0.16915,-16.517348 -9.69906,-21.589511 -16.93015,-21.373627 -5.93363,0.177148 -13.57326,0.157194 -13.94984,17.231193 z"
                 id="path5162"
                 sodipodi:nodetypes="ccsssc" />
            </g>
            <path
               style="fill:url(#linearGradient3412);fill-opacity:1;fill-rule:evenodd;stroke:#000000;stroke-width:2;stroke-linecap:butt;stroke-linejoin:round;stroke-miterlimit:4;stroke-opacity:1;stroke-dasharray:none"
               d="m 362.47198,-72.4375 -8.50455,0 -1.60807,75.598505 -1.69761,79.807745 8.25507,-0.03125 3.55516,-155.375 z"
               id="path3330"
               sodipodi:nodetypes="cccccc" />
            <path
               style="fill:url(#linearGradient3414);fill-opacity:1;fill-rule:evenodd;stroke:#000000;stroke-width:2;stroke-linecap:butt;stroke-linejoin:miter;stroke-miterlimit:4;stroke-opacity:1;stroke-dasharray:none"
               d="m 390.17456,82.65625 8.88244,-0.03125 -2.78939,-155.0625 -7.69113,0 1.59808,155.09375 z"
               id="path3332"
               sodipodi:nodetypes="ccccc" />
            <path
               sodipodi:nodetypes="ccccc"
               id="path5228"
               d="m 172.51041,-77.978137 c 5.75462,6.198113 11.2632,5.521162 16.92645,0 4.21243,10.60322 18.68424,62.394979 12.94048,83.0812001 -14.73449,-11.8473425 -29.9397,-11.9241821 -44.20346,0 -4.56089,-20.1309781 8.99041,-73.3888511 14.33653,-83.0812001 z"
               style="fill:url(#linearGradient3416);fill-opacity:1;fill-rule:evenodd;stroke:#000000;stroke-width:2;stroke-linecap:butt;stroke-linejoin:round;stroke-miterlimit:4;stroke-opacity:1;stroke-dasharray:none"
               transform="translate(194.844,-73.4328)" />
            <path
               style="fill:url(#radialGradient3418);fill-opacity:1;fill-rule:nonzero;stroke:#000000;stroke-width:5;stroke-linecap:round;stroke-linejoin:round;stroke-miterlimit:4;stroke-opacity:1;stroke-dasharray:none"
               d="m 400.91797,335.58984 c 0,0 -51.16797,0.44141 -51.16797,0.44141 -53.06858,10e-6 -121.46875,33.34554 -121.46875,124.03125 0,36.34059 11.50642,52.1182 12.5,86.03125 0.17179,5.86346 -2.95016,12.49961 -8.00017,18.5491 1.11044,2.64061 2.79723,5.75608 4.58253,9.02952 17.42607,-0.20201 34.00234,7.75587 30.79264,76.98388 -4.10213,87.98045 -21.74269,96.13491 -47.06317,90.17984 -2.12804,2.15417 -3.92708,4.64822 -6.0434,7.6592 3.79221,5.79675 6.20305,11.32666 6.76282,18.06721 3.36138,40.72925 -24.46875,91.08222 -24.46875,126.9375 0,88.31998 81.04767,132.9687 170.15625,132.9687 0,0 18.41797,-0.1914 18.41797,-0.1914 89.10858,0 161.37497,-44.3987 161.375,-132.71871 0,-35.85528 -27.83013,-86.20827 -24.46875,-126.9375 0.49006,-5.90113 2.39886,-10.87437 5.41123,-15.9111 -1.89379,-3.34828 -3.47623,-6.36085 -5.74208,-9.57317 -24.75747,5.48083 -41.96772,-3.63187 -46.0129,-90.39073 -3.14936,-67.92666 12.75036,-76.88282 29.81094,-77.01278 1.95791,-3.08814 4.12508,-7.44739 5.17072,-9.49862 -4.81805,-5.91077 -7.77394,-12.34151 -7.60666,-18.0511 0.99357,-33.91305 12.49999,-49.72191 12.5,-86.0625 0,-90.68571 -59.86893,-125.03124 -115.4375,-124.53125 z"
               id="path2383"
               sodipodi:nodetypes="ccssccccccsccsccccccssc" />
            <path
               sodipodi:type="arc"
               style="opacity:0.5;fill:url(#radialGradient3420);fill-opacity:1;fill-rule:nonzero;stroke:none"
               id="path3529"
               sodipodi:cx="375.46323"
               sodipodi:cy="628.43494"
               sodipodi:rx="52.724625"
               sodipodi:ry="75.625221"
               d="m 428.18785,628.43494 c 0,41.76665 -23.60562,75.62522 -52.72462,75.62522 -29.11901,0 -52.72463,-33.85857 -52.72463,-75.62522 0,-41.76666 23.60562,-75.62522 52.72463,-75.62522 29.119,0 52.72462,33.85856 52.72462,75.62522 z" />
            <path
               style="fill:#000000;fill-opacity:0.78431396;fill-rule:evenodd;stroke:#000000;stroke-width:2;stroke-linecap:butt;stroke-linejoin:round;stroke-miterlimit:4;stroke-opacity:1;stroke-dasharray:none"
               d="m 433.90941,627.5712 -7.48563,5.21738 c 0,0 2.83871,2.25112 0.96818,6.9156 -1.50453,3.75183 -7.19162,2.90597 -7.46884,-3.31949 -0.3158,-7.37449 5.96485,-13.64357 14.10782,-13.41625 22.03581,0.60208 26.92744,78.67645 26.92744,78.67645 l 3.59611,0.82987 -3.04287,2.76624 c 0,0 7.61938,69.04308 20.13793,81.17043 l 9.04181,-6.73389 c 0,0 -4.27517,-1.34222 -3.8056,-8.56144 0.44695,-6.87171 10.83406,-8.73053 12.88098,0.48613 1.78516,8.03809 -4.75305,18.80622 -18.69823,18.37414 -21.57512,-0.66011 -30.48353,-80.30939 -30.48353,-80.30939 l -3.18117,-0.82987 2.90455,-2.90455 c 0,0 -3.95088,-62.73211 -16.39895,-78.36136 z"
               id="path3206"
               sodipodi:nodetypes="ccscscccccssscccc" />
            <path
               style="fill:#eedd4d;fill-opacity:0.78431396;fill-rule:evenodd;stroke:#000000;stroke-width:1px;stroke-linecap:butt;stroke-linejoin:miter;stroke-opacity:1"
               d="m 334,698.86218 84.87132,0 0,4 -84.87132,0 0,-4 z"
               id="path3240"
               sodipodi:nodetypes="ccccc" />
            <path
               style="fill:#894300;fill-opacity:0.58823494;fill-rule:nonzero;stroke:#421402;stroke-width:2;stroke-linejoin:round;stroke-miterlimit:4;stroke-opacity:1;stroke-dasharray:none"
               d="m 395.75,340.9375 c -32.68886,1.39265 -68.22222,-3.47279 -99.5625,12.375 -31.88951,14.45464 -55.22778,45.73476 -60.28125,80.34375 -5.8197,31.1418 1.30802,62.2611 8.5,91.875 0.0101,0.0414 0.0212,0.0836 0.0312,0.125 2.46359,13.21783 3.14852,27.71091 -4.21875,38.625 -0.50347,0.73309 -0.57964,1.67843 -0.20004,2.48267 0.3796,0.80424 1.15783,1.3463 2.04379,1.42358 12.47871,1.08989 23.60836,10.56148 26.3125,22.8125 0.0154,0.0949 0.0363,0.18878 0.0625,0.28125 9.0992,26.59289 4.79041,55.69292 3.5,84.125 -0.002,0.0414 0.002,0.0836 0,0.125 -2.04248,21.81826 -4.9541,44.61634 -17.46875,62.3125 -0.0166,0.0235 -0.0458,0.039 -0.0625,0.0625 -6.94094,7.84618 -18.3539,11.51881 -28.6875,9.6875 -0.91608,-0.16566 -1.84834,0.19137 -2.41943,0.92656 -0.57109,0.7352 -0.68642,1.7268 -0.29932,2.57344 9.38571,20.95054 2.84318,45.11022 -2.625,67.375 -8.96067,31.95601 -23.04015,65.60661 -15.125,100.46875 7.19786,34.95213 32.09712,64.49331 63.90625,80 44.96692,23.5167 97.25214,24.6564 146.21875,20.1563 0.021,-0.01 0.0418,-0.021 0.0625,-0.031 40.64065,-4.7961 82.95972,-21.95833 106.9375,-57.28125 21.20037,-31.67002 24.44886,-73.17959 11.96875,-108.6875 -0.014,-0.0505 -0.0172,-0.10573 -0.0312,-0.15625 -8.7672,-31.58678 -21.93888,-63.82346 -15.15625,-96 0.0251,-0.0822 0.046,-0.16565 0.0625,-0.25 -0.007,0.0681 0.1777,-0.63696 0.5625,-1.375 0.3848,-0.73804 0.90616,-1.56696 1.3125,-2.46875 0.20317,-0.45089 0.39523,-0.91316 0.5,-1.5625 0.10477,-0.64934 0.0954,-1.76802 -0.71875,-2.6875 -0.81416,-0.91948 -1.90947,-1.08234 -2.65625,-1.0625 -0.5765,0.0153 -1.12342,0.18885 -1.6875,0.34375 l 0,-0.0312 c -12.50676,1.2531 -25.82353,-5.05918 -30.65625,-16.8125 -0.0268,-0.0849 -0.0581,-0.1684 -0.0937,-0.25 -12.59385,-23.5206 -12.11644,-51.55817 -14.6875,-78.46875 -0.002,-0.031 0.002,-0.0628 0,-0.0937 -1.17095,-23.94844 -1.55651,-49.08953 9.03125,-70.3125 4.96842,-7.52019 13.46851,-12.92469 22.4375,-13.8125 0.88543,-0.0909 1.65577,-0.64569 2.02263,-1.45665 0.36687,-0.81097 0.27493,-1.75582 -0.24138,-2.48085 -8.49465,-12.05577 -6.42014,-28.01099 -3.1875,-42.46875 0.0107,-0.0207 0.0211,-0.0415 0.0312,-0.0625 5.11884,-25.82969 12.7832,-52.33857 8.90625,-79.71875 l 0.0312,0 c -0.004,-0.0423 -0.0277,-0.0827 -0.0312,-0.125 -3.13794,-37.25033 -23.67118,-75.72729 -59.96875,-90.75 -17.0587,-7.66061 -35.84486,-10.49146 -54.34375,-10.09375 -0.0104,-7e-5 -0.0208,-7e-5 -0.0312,0 l 0,0 z m 0.15625,5 0.0312,0 c 17.89706,-0.38107 36.0004,2.40427 52.21875,9.6875 0.0207,0.0107 0.0415,0.0211 0.0625,0.0312 34.15176,14.13461 53.93235,50.93642 56.90625,86.6875 0.009,0.0419 0.0198,0.0836 0.0312,0.125 3.72244,26.05504 -3.69171,52.03264 -8.875,78.1875 -3.06205,13.69481 -5.3742,29.78432 2.1875,43.25 -9.21967,1.96899 -17.5093,7.54247 -22.625,15.375 -0.057,0.0802 -0.10913,0.16367 -0.15625,0.25 -11.39242,22.72632 -10.77562,48.90383 -9.59375,73.03125 -0.001,0.0417 -0.001,0.0833 0,0.125 2.53378,26.44523 1.88088,55.23509 15.15625,80.21875 0.0422,0.0793 0.0513,0.17073 0.0937,0.25 l 0.0312,0 c 5.67226,13.43362 20.11944,20.50588 34.0625,19.71875 -0.026,0.0493 -0.0366,0.0752 -0.0625,0.125 -0.42722,0.81941 -0.87568,1.69949 -1.0625,2.875 l -0.0312,0 c -0.009,0.0424 -0.0224,0.0826 -0.0312,0.125 -0.007,0.0505 -0.0256,0.0732 -0.0312,0.125 l 0.0312,0 c -7.07874,34.06108 6.65221,67.17539 15.28125,98.3125 0.0191,0.0528 0.0399,0.10488 0.0625,0.15625 12.04362,34.12864 8.88898,74.15049 -11.34375,104.375 -22.86112,33.6779 -63.71605,50.476 -103.375,55.1563 -48.56233,4.4629 -99.85765,3.1513 -143.46875,-19.6563 -0.0207,-0.0107 -0.0415,-0.0211 -0.0625,-0.0312 -30.47761,-14.85759 -54.36935,-43.30245 -61.21875,-76.5625 2.6e-4,-0.0208 2.6e-4,-0.0417 0,-0.0625 -7.47293,-32.91442 6.01702,-65.69261 15.09375,-98.0625 0.011,-0.031 0.0214,-0.0623 0.0312,-0.0937 5.13566,-20.91085 11.64845,-44.72238 3.71875,-66.6875 10.85916,0.64686 21.97279,-3.53173 29.25,-11.8125 0.056,-0.0701 0.10813,-0.14308 0.15625,-0.21875 13.63268,-19.10931 16.47006,-43.01334 18.53125,-65.0625 0.0115,-0.0414 0.0219,-0.0831 0.0312,-0.125 1.26264,-28.01009 5.81536,-57.75885 -3.6875,-85.8125 -0.0311,-0.0918 -0.0311,-0.18954 -0.0625,-0.28125 l -0.0312,0 c -3.02502,-13.13021 -13.95803,-23.19063 -26.96875,-25.8125 6.48856,-12.15582 5.51511,-26.65935 3.15625,-39.25 -0.009,-0.0419 -0.0198,-0.0836 -0.0312,-0.125 -7.18976,-29.60016 -14.04886,-60.10903 -8.46875,-89.96875 5.9e-4,-0.0312 5.9e-4,-0.0625 0,-0.0937 4.79529,-32.84083 27.25557,-62.88477 57.5,-76.59375 0.0317,-0.0201 0.063,-0.041 0.0937,-0.0625 29.58566,-14.96054 64.16367,-10.39734 97.46875,-11.8125 z"
               id="path42" />
            <path
               style="fill:url(#linearGradient3422);fill-opacity:1;fill-rule:evenodd;stroke:#000000;stroke-width:1px;stroke-linecap:butt;stroke-linejoin:miter;stroke-opacity:1"
               d="m 351.61468,83.192131 46.50725,0.03185 13.42462,514.648739 -73.14266,-0.25 13.21079,-514.430593 z"
               id="path3228"
               sodipodi:nodetypes="ccccc" />
            <path
               style="fill:url(#linearGradient3424);fill-opacity:1;fill-rule:evenodd;stroke:#000000;stroke-width:2;stroke-linecap:butt;stroke-linejoin:miter;stroke-miterlimit:4;stroke-opacity:1;stroke-dasharray:none"
               d="m 337.875,810.53166 74.125,0 c -6,51 -23.43794,53.76933 -22.50549,104.01829 0.53356,27.49482 7.24264,78.38234 7.94975,111.61635 l -39.66295,-0.7071 c 0.70711,-32.5269 6.76433,-84.07365 6.66421,-111.07346 C 363.90007,865.33796 342.875,860.03166 337.875,810.53166 z"
               id="path3244"
               sodipodi:nodetypes="ccccccc" />
            <path
               style="fill:#000000;fill-opacity:1;fill-rule:evenodd;stroke:none"
               d="m 338.4375,815.25 0.63243,5 71.55507,0 0.73229,-5 -72.91979,0 z"
               id="path3356"
               sodipodi:nodetypes="ccccc" />
            <path
               style="fill:url(#linearGradient3426);fill-opacity:1;fill-rule:nonzero;stroke:#000000;stroke-width:1.57639003;stroke-linecap:round;stroke-linejoin:round;stroke-miterlimit:4;stroke-opacity:1;stroke-dasharray:none"
               d="m 386.73958,1028.9013 c 0,4.2377 -4.6862,5.4698 -10.46031,5.4698 -5.7741,0 -10.4603,-1.2321 -10.4603,-5.4698 0,-4.2379 4.6862,-5.5662 10.4603,-5.5662 5.77411,0 10.46031,1.3283 10.46031,5.5662 z"
               id="path2436"
               sodipodi:nodetypes="csssc" />
            <path
               style="fill:#894300;fill-opacity:0.58823494;fill-rule:nonzero;stroke:#421402;stroke-width:2;stroke-linejoin:round;stroke-miterlimit:4;stroke-opacity:1;stroke-dasharray:none"
               d="m 352.94716,827.16972 0,6.09375 c -1.22728,0.6468 -2.0625,1.89214 -2.0625,3.375 0,2.13135 1.7124,3.87499 3.84375,3.875 2.13135,0 3.875,-1.74366 3.875,-3.875 0,-1.47289 -0.84868,-2.724 -2.0625,-3.375 l 0,-6.09375 -3.59375,0 z"
               id="path3368" />
            <path
               sodipodi:nodetypes="ccccc"
               id="path3427"
               d="m 351.61468,83.192131 46.50725,0.03185 13.42462,514.648739 -73.14266,-0.25 13.21079,-514.430593 z"
               style="fill:url(#linearGradient3428);fill-opacity:1;fill-rule:evenodd;stroke:#000000;stroke-width:2;stroke-linecap:butt;stroke-linejoin:miter;stroke-miterlimit:4;stroke-opacity:1;stroke-dasharray:none" />
            <path
               style="fill:none;stroke:#ece9a5;stroke-width:4;stroke-linecap:round;stroke-linejoin:miter;stroke-miterlimit:4;stroke-opacity:1;stroke-dasharray:none"
               d="M 354.32579,827.78227 346.35614,700.4708 360.57006,83.219862 362.82488,56.685613"
               id="path3374"
               sodipodi:nodetypes="cccc" />
            <path
               style="fill:#894300;fill-opacity:0.58823494;fill-rule:nonzero;stroke:#421402;stroke-width:2;stroke-linejoin:round;stroke-miterlimit:4;stroke-opacity:1;stroke-dasharray:none"
               d="m 393.55301,827.16972 0,6.09375 c -1.22728,0.6468 -2.0625,1.89214 -2.0625,3.375 0,2.13135 1.7124,3.87499 3.84375,3.875 2.13135,0 3.875,-1.74366 3.875,-3.875 0,-1.47289 -0.84868,-2.724 -2.0625,-3.375 l 0,-6.09375 -3.59375,0 z"
               id="path3379" />
            <path
               style="fill:#894300;fill-opacity:0.58823494;fill-rule:nonzero;stroke:#421402;stroke-width:2;stroke-linejoin:round;stroke-miterlimit:4;stroke-opacity:1;stroke-dasharray:none"
               d="m 380.01773,827.16972 0,6.09375 c -1.22728,0.6468 -2.0625,1.89214 -2.0625,3.375 0,2.13135 1.7124,3.87499 3.84375,3.875 2.13135,0 3.875,-1.74366 3.875,-3.875 0,-1.47289 -0.84868,-2.724 -2.0625,-3.375 l 0,-6.09375 -3.59375,0 z"
               id="path3381" />
            <path
               style="fill:#894300;fill-opacity:0.58823494;fill-rule:nonzero;stroke:#421402;stroke-width:2;stroke-linejoin:round;stroke-miterlimit:4;stroke-opacity:1;stroke-dasharray:none"
               d="m 366.48244,827.16972 0,6.09375 c -1.22728,0.6468 -2.0625,1.89214 -2.0625,3.375 0,2.13135 1.7124,3.87499 3.84375,3.875 2.13135,0 3.875,-1.74366 3.875,-3.875 0,-1.47289 -0.84868,-2.724 -2.0625,-3.375 l 0,-6.09375 -3.59375,0 z"
               id="path3383" />
            <path
               style="fill:none;stroke:#ece9a5;stroke-width:4;stroke-linecap:round;stroke-linejoin:miter;stroke-miterlimit:4;stroke-opacity:1;stroke-dasharray:none;stroke-dashoffset:0;marker:none;visibility:visible;display:inline;overflow:visible"
               d="m 366.84906,56.602582 -0.75318,9.414639"
               id="path5342"
               sodipodi:nodetypes="cc" />
            <path
               style="fill:none;stroke:#ece9a5;stroke-width:4;stroke-linecap:round;stroke-linejoin:miter;stroke-miterlimit:4;stroke-opacity:1;stroke-dasharray:none;stroke-dashoffset:0;marker:none;visibility:visible;display:inline;overflow:visible"
               d="m 370.89735,56.790875 -0.75318,9.414639"
               id="path5344"
               sodipodi:nodetypes="cc" />
            <path
               sodipodi:nodetypes="cc"
               id="path5362"
               d="m 366.84906,56.602582 -0.75318,9.414639"
               style="opacity:0.75;fill:none;stroke:#000000;stroke-width:4;stroke-linecap:round;stroke-linejoin:miter;stroke-miterlimit:4;stroke-opacity:1;stroke-dasharray:none;stroke-dashoffset:0;marker:none;visibility:visible;display:inline;overflow:visible" />
            <path
               sodipodi:nodetypes="cc"
               id="path5364"
               d="m 370.89735,56.790875 -0.75318,9.414639"
               style="opacity:0.75;fill:none;stroke:#000000;stroke-width:4;stroke-linecap:round;stroke-linejoin:miter;stroke-miterlimit:4;stroke-opacity:1;stroke-dasharray:none;stroke-dashoffset:0;marker:none;visibility:visible;display:inline;overflow:visible" />
            <path
               style="fill:none;stroke:#ece9a5;stroke-width:3.5;stroke-linecap:round;stroke-linejoin:miter;stroke-miterlimit:4;stroke-opacity:1;stroke-dasharray:none"
               d="M 368.08287,827.12514 365.71631,700.61252 369.8514,83.032062 366.18848,-24.380599"
               id="path3385"
               sodipodi:nodetypes="cccc" />
            <path
               style="fill:none;stroke:#ece9a5;stroke-width:2.5;stroke-linecap:round;stroke-linejoin:miter;stroke-miterlimit:4;stroke-opacity:1;stroke-dasharray:none;stroke-dashoffset:0;marker:none;visibility:visible;display:inline;overflow:visible"
               d="m 380.21784,22.521618 0.56487,10.167809"
               id="path5352"
               sodipodi:nodetypes="cc" />
            <path
               sodipodi:nodetypes="cc"
               id="path5386"
               d="m 380.21784,22.521618 0.56487,10.167809"
               style="opacity:0.75;fill:none;stroke:#b5000f;stroke-width:2.5;stroke-linecap:round;stroke-linejoin:miter;stroke-miterlimit:4;stroke-opacity:1;stroke-dasharray:none;stroke-dashoffset:0;marker:none;visibility:visible;display:inline;overflow:visible" />
            <path
               style="fill:none;stroke:#ece9a5;stroke-width:2.5;stroke-linecap:round;stroke-linejoin:miter;stroke-miterlimit:4;stroke-opacity:1;stroke-dasharray:none;stroke-dashoffset:0;marker:none;visibility:visible;display:inline;overflow:visible"
               d="m 377.58175,22.70991 0.56487,10.167809"
               id="path5354"
               sodipodi:nodetypes="cc" />
            <path
               sodipodi:nodetypes="cc"
               id="path5388"
               d="m 377.58175,22.70991 0.56487,10.167809"
               style="opacity:0.75;fill:none;stroke:#b5000f;stroke-width:2.5;stroke-linecap:round;stroke-linejoin:miter;stroke-miterlimit:4;stroke-opacity:1;stroke-dasharray:none;stroke-dashoffset:0;marker:none;visibility:visible;display:inline;overflow:visible" />
            <path
               style="fill:none;stroke:#ece9a5;stroke-width:3;stroke-linecap:round;stroke-linejoin:miter;stroke-miterlimit:4;stroke-opacity:1;stroke-dasharray:none"
               d="m 381.79659,827.12513 5.46374,-126.40231 -8.28014,-617.788288 3.64833,-140.509781"
               id="path3387"
               sodipodi:nodetypes="cccc" />
            <path
               style="fill:none;stroke:#ece9a5;stroke-width:2.5;stroke-linecap:round;stroke-linejoin:miter;stroke-miterlimit:4;stroke-opacity:1;stroke-dasharray:none"
               d="M 395.1109,827.52455 407.64001,700.87326 388.88775,83.41214 385.48867,22.559411"
               id="path3389"
               sodipodi:nodetypes="cccc" />
            <path
               sodipodi:nodetypes="cc"
               id="path3588"
               d="m 354.32579,827.78227 -3.6928,-58.99081"
               style="opacity:0.75;fill:none;stroke:#000000;stroke-width:4;stroke-linecap:round;stroke-linejoin:miter;stroke-miterlimit:4;stroke-opacity:1;stroke-dasharray:none" />
            <path
               sodipodi:nodetypes="cc"
               id="path59"
               d="m 368.08287,827.12514 -0.86822,-45.89449"
               style="opacity:0.75;fill:none;stroke:#002bb9;stroke-width:3.5;stroke-linecap:round;stroke-linejoin:miter;stroke-miterlimit:4;stroke-opacity:1;stroke-dasharray:none" />
            <path
               sodipodi:nodetypes="cc"
               id="path61"
               d="m 381.79659,827.12513 2.34229,-54.18825"
               style="opacity:0.75;fill:none;stroke:#039c12;stroke-width:3;stroke-linecap:round;stroke-linejoin:miter;stroke-miterlimit:4;stroke-opacity:1;stroke-dasharray:none" />
            <path
               sodipodi:nodetypes="cc"
               id="path63"
               d="m 395.1109,827.52455 3.65336,-36.93025"
               style="opacity:0.75;fill:none;stroke:#b5000f;stroke-width:2.5;stroke-linecap:round;stroke-linejoin:miter;stroke-miterlimit:4;stroke-opacity:1;stroke-dasharray:none" />
            <path
               style="fill:#d3d7dd;fill-opacity:1;fill-rule:nonzero;stroke:#000000;stroke-width:2;stroke-linecap:round;stroke-linejoin:round;stroke-miterlimit:4;stroke-opacity:1"
               d="m 410.47792,1030.1438 c 0,-6.1323 -0.84019,-7.1552 -2.54195,-7.1552 -1.60777,0 -2.35366,1.0229 -2.35366,7.1552 0,0 -0.19281,2.2595 2.35366,2.2595 2.54647,0 2.54195,-2.2595 2.54195,-2.2595 z"
               id="path3217"
               sodipodi:nodetypes="csssc" />
            <path
               sodipodi:nodetypes="csssc"
               id="path3224"
               d="m 349.6594,1030.1438 c 0,-6.1323 -0.84019,-7.1552 -2.54195,-7.1552 -1.60777,0 -2.35366,1.0229 -2.35366,7.1552 0,0 -0.19281,2.2595 2.35366,2.2595 2.54647,0 2.54195,-2.2595 2.54195,-2.2595 z"
               style="fill:#d3d7dd;fill-opacity:1;fill-rule:nonzero;stroke:#000000;stroke-width:2;stroke-linecap:round;stroke-linejoin:round;stroke-miterlimit:4;stroke-opacity:1" />
            <g
               id="g2432">
              <path
                 sodipodi:nodetypes="cccsc"
                 id="path3393"
                 d="m 204.63686,938.13334 c 61.77834,-55.38748 141.53491,-52.46617 160.7075,56.71108 0,0 49.47033,3.9094 49.47033,3.9094 14.33188,0.52535 32.16333,22.71368 2.89663,25.68618 -98.30303,9.9842 -181.79164,-13.2864 -213.07446,-86.30666 z"
                 style="fill:url(#linearGradient3430);fill-opacity:1;fill-rule:evenodd;stroke:#000000;stroke-width:2;stroke-linecap:round;stroke-linejoin:round;stroke-miterlimit:4;stroke-opacity:1;stroke-dasharray:none" />
              <path
                 style="fill:url(#linearGradient3432);fill-opacity:1;fill-rule:evenodd;stroke:#000000;stroke-width:2;stroke-linecap:round;stroke-linejoin:round;stroke-miterlimit:4;stroke-opacity:1;stroke-dasharray:none"
                 d="m 204.63686,938.13334 c 61.77834,-55.38748 141.53491,-52.46617 160.7075,56.71108 0,0 49.47033,3.9094 49.47033,3.9094 14.33188,0.52535 32.16333,22.71368 2.89663,25.68618 -98.30303,9.9842 -181.79164,-13.2864 -213.07446,-86.30666 z"
                 id="path3403"
                 sodipodi:nodetypes="cccsc" />
            </g>
            <g
               id="g3298">
              <path
                 id="rect3226"
                 d="m 291.71875,659.1875 c -4.54305,20.656 -5.90625,42.46875 -5.90625,42.46875 l -3.59375,0.8125 3.03125,2.78125 c 0,-10e-6 -1.85604,16.70754 -5.21875,35.125 l 10.75,1.625 c 3.70562,-17.15352 5.40625,-32.34375 5.40625,-32.34375 l 3.15625,-0.8125 -2.875,-2.90625 c -10e-6,0 1.45445,-23.41025 5.4375,-45.1875 l -10.1875,-1.5625 z"
                 style="fill:#ffffff;fill-opacity:1;fill-rule:nonzero;stroke:none" />
              <path
                 id="rect3228"
                 d="m 295.65625,663.5625 -11.28125,74.3125 7.03125,1.0625 c 3.25221,-15.83897 4.78125,-29.28125 4.78125,-29.28125 l 3.15625,-0.8125 -2.875,-2.90625 c -10e-6,0 1.31169,-20.86826 4.8125,-41.53125 l -5.625,-0.84375 z"
                 style="fill:#008612;fill-opacity:1;fill-rule:nonzero;stroke:none" />
              <path
                 id="text3230"
                 d="m 290.625,669.84375 c -0.006,0.0858 -0.0183,0.19647 -0.0312,0.28125 -0.0134,0.0882 -0.0116,0.1662 -0.0312,0.25 0.0767,-0.002 0.13972,-0.005 0.21875,0 l -0.0625,0.5 -0.125,0.875 -0.96875,-0.15625 c -0.095,-0.0145 -0.18658,-0.0456 -0.28125,-0.0625 -0.0261,0.15786 -0.0367,0.31133 -0.0625,0.46875 0.0918,0.0117 0.18977,0.0173 0.28125,0.0312 l 0.96875,0.125 -0.15625,0.875 -0.0625,0.53125 -0.1875,-0.0312 -0.0625,0.4375 0.1875,0.0312 0.375,0.0312 1.6875,0.28125 0.28125,-1.84375 c 0.31833,0.0519 0.62278,0.11186 0.9375,0.1875 0.003,-0.0863 0.0178,-0.16179 0.0312,-0.25 0.0129,-0.0848 0.0389,-0.16336 0.0625,-0.25 -0.32298,-0.0214 -0.64939,-0.0486 -0.96875,-0.0937 l 0.125,-0.875 0.0625,-0.5 0.0625,-0.4375 -0.375,-0.0625 -0.21875,-0.0312 L 291.25,670 l -0.1875,-0.0312 c -0.14246,-0.0217 -0.29915,-0.0762 -0.4375,-0.125 z m 0.53125,0.59375 1.09375,0.15625 0.21875,0.0312 -0.0625,0.5 -0.125,0.875 -1.3125,-0.21875 0.125,-0.84375 0.0625,-0.5 z m -0.25,1.78125 1.3125,0.21875 -0.21875,1.375 -1.3125,-0.1875 0.0625,-0.53125 0.15625,-0.875 z m -2.0625,2.625 c -0.0224,0.14585 -0.0716,0.29218 -0.0937,0.4375 0.0684,0.007 0.14752,0.0204 0.21875,0.0312 l 2.6875,0.40625 0.71875,0.0937 -0.0625,0.5625 -0.4375,2.875 -3.625,-0.5625 c -0.0208,0.14731 -0.0108,0.29095 -0.0312,0.4375 l 3.90625,0.59375 0.5,-3.28125 0.0937,-0.5625 c 0.0139,-0.0916 0.0341,-0.25094 0.0625,-0.4375 -0.0746,-0.0113 -0.19789,-0.009 -0.34375,-0.0312 l -0.71875,-0.125 -2.6875,-0.40625 c -0.0625,-0.009 -0.12505,-0.0211 -0.1875,-0.0312 z m 0.3125,0.71875 c -0.008,0.21391 -0.031,0.41809 -0.0625,0.625 l -0.28125,1.84375 c -0.032,0.2103 -0.0698,0.42169 -0.125,0.625 0.0689,0.004 0.15429,-0.01 0.21875,0 0.0678,0.0103 0.12408,0.0459 0.1875,0.0625 0.008,-0.21053 0.0305,-0.44592 0.0625,-0.65625 l 0.125,-0.84375 0.28125,0.0312 0.625,0.0937 -0.0625,0.40625 -0.15625,-0.21875 -0.65625,0.40625 0.21875,0.34375 0.5625,-0.34375 -0.0312,0.0937 c -0.0253,0.1662 -0.0481,0.33687 -0.0937,0.5 0.0655,0.003 0.12306,0.0214 0.1875,0.0312 0.0678,0.0103 0.15532,0.0147 0.21875,0.0312 0.005,-0.1693 0.006,-0.33378 0.0312,-0.5 l 0.0937,-0.6875 0.40625,0.0625 0.3125,0.0312 -0.125,0.78125 c -0.0294,0.19334 -0.0718,0.40403 -0.125,0.59375 0.0689,0.004 0.12306,-0.01 0.1875,0 0.0645,0.01 0.15193,0.0454 0.21875,0.0625 0.006,-0.19695 0.002,-0.40041 0.0312,-0.59375 l 0.28125,-1.6875 c 0.0294,-0.19334 0.0724,-0.40743 0.125,-0.59375 -0.0689,-0.004 -0.15432,0.01 -0.21875,0 -0.0645,-0.01 -0.12069,-0.0454 -0.1875,-0.0625 -0.005,0.19357 -0.0331,0.40044 -0.0625,0.59375 l -0.0625,0.5 -0.3125,-0.0625 -0.40625,-0.0312 0.0625,-0.375 c 0.0253,-0.16621 0.0794,-0.33691 0.125,-0.5 -0.0655,-0.003 -0.15091,-0.0209 -0.21875,-0.0312 -0.0645,-0.01 -0.12411,-0.0147 -0.1875,-0.0312 -0.005,0.1693 -0.006,0.3338 -0.0312,0.5 l -0.0625,0.375 -0.625,-0.0937 -0.28125,-0.0312 0.0937,-0.59375 c 0.0315,-0.20691 0.0693,-0.41833 0.125,-0.625 -0.0655,-0.003 -0.11967,0.0103 -0.1875,0 -0.0645,-0.01 -0.15193,-0.0141 -0.21875,-0.0312 z m -1.5,7.75 c -0.0188,0.14797 -0.044,0.29066 -0.0625,0.4375 l 0.46875,0.0625 1.78125,0.28125 -0.0312,0.21875 -0.1875,1.28125 c -0.0232,0.15264 -0.0757,0.2958 -0.125,0.4375 0.079,0.005 0.17199,0.0194 0.25,0.0312 0.078,0.0118 0.14176,0.0438 0.21875,0.0625 -0.002,-0.14946 0.008,-0.31611 0.0312,-0.46875 l 0.21875,-1.3125 0.0312,-0.1875 0.5625,0.0937 c 0.31205,0.0475 0.62956,0.0816 0.9375,0.15625 0.003,-0.0864 0.0178,-0.1618 0.0312,-0.25 0.0134,-0.0882 0.008,-0.16675 0.0312,-0.25 -0.3162,-0.0203 -0.62544,-0.0463 -0.9375,-0.0937 l -2.75,-0.4375 -0.46875,-0.0625 z M 287.1875,687 c -0.0167,0.14372 -0.0149,0.29528 -0.0312,0.4375 l 0.125,0.0625 1.71875,0.6875 0.1875,-0.25 c -0.78888,-0.33512 -1.34477,-0.58465 -1.65625,-0.75 -0.12999,-0.069 -0.22717,-0.12174 -0.34375,-0.1875 z m 2.75,0.0312 -0.84375,0.46875 0.1875,0.375 0.875,-0.5 -0.21875,-0.34375 z m 1.03125,0.625 c -0.2012,0.2505 -0.45153,0.41699 -0.75,0.53125 l 0.15625,0.40625 c 0.36808,-0.13838 0.65794,-0.37824 0.90625,-0.6875 l -0.3125,-0.25 z m -2.6875,0.5 c -0.0112,0.16487 -0.0406,0.33329 -0.0625,0.5 l -1.125,-0.40625 -0.1875,1.1875 c -0.006,0.0567 0.006,0.0998 0,0.15625 -0.0759,0.69592 -0.15171,1.25741 -0.21875,1.90625 l 0.21875,0.0312 0.125,-0.75 L 287.875,691 c -0.0366,0.24082 -0.0998,0.48439 -0.15625,0.71875 0.0616,0.006 0.12643,0.0219 0.1875,0.0312 0.0644,0.01 0.12696,0.0186 0.1875,0.0312 0.0152,-0.23714 0.0571,-0.47789 0.0937,-0.71875 l 1.125,0.28125 0.3125,-2 0.0625,-0.125 c 0.0504,0.0562 0.0951,0.10183 0.15625,0.15625 l 0.0937,0.0625 -0.28125,1.875 c -0.0268,0.17638 -0.0784,0.36137 -0.125,0.53125 0.0621,0.003 0.12645,-0.009 0.1875,0 0.0645,0.01 0.12409,0.0147 0.1875,0.0312 0.003,-0.1766 0.0357,-0.35484 0.0625,-0.53125 l 0.25,-1.6875 c 0.1674,0.10874 0.34513,0.20437 0.53125,0.28125 0.0332,-0.12684 0.0652,-0.25569 0.125,-0.375 -0.30485,-0.095 -0.56355,-0.22613 -0.8125,-0.4375 -0.24609,-0.20747 -0.44743,-0.45707 -0.59375,-0.75 -0.0509,0.10678 -0.10574,0.19999 -0.1875,0.28125 0.0673,0.12822 0.12516,0.22885 0.21875,0.34375 l 0.0937,0.0937 -0.0625,0 -1,-0.34375 c 0.0346,-0.18213 0.0836,-0.35013 0.125,-0.53125 -0.0616,-0.006 -0.12306,-0.0215 -0.1875,-0.0312 -0.0611,-0.009 -0.12696,-0.0186 -0.1875,-0.0312 z m -0.9375,0.625 0.8125,0.28125 -0.0312,0.34375 -0.0937,-0.1875 -0.75,0.375 0.1875,0.375 0.625,-0.3125 -0.15625,0.9375 -0.84375,-0.21875 0.25,-1.59375 z m 1.125,0.375 0.84375,0.3125 -0.0625,0.34375 -0.1875,-0.28125 -0.65625,0.40625 0.1875,0.34375 0.625,-0.34375 -0.125,0.9375 -0.84375,-0.21875 0.21875,-1.5 z M 286.5,693.5625 c -0.003,0.0289 0.003,0.065 0,0.0937 0.0192,-0.0268 0.0103,-0.0669 0.0312,-0.0937 l -0.0312,0 z m 1.15625,0.21875 c -0.0798,0.0171 -0.15579,0.0449 -0.21875,0.0937 -0.12592,0.0977 -0.22276,0.28345 -0.3125,0.53125 l -0.0625,0.1875 c -0.0615,0.16879 -0.13713,0.27867 -0.21875,0.34375 -0.0818,0.0662 -0.18814,0.11266 -0.3125,0.0937 -0.0617,-0.009 -0.10986,-0.0663 -0.15625,-0.0937 -0.0132,0.14124 -0.0498,0.23758 -0.0625,0.375 0.0611,0.0248 0.11322,0.0512 0.1875,0.0625 0.20578,0.0313 0.39058,0.01 0.53125,-0.0937 0.14164,-0.10224 0.2563,-0.28311 0.34375,-0.53125 l 0.0625,-0.1875 c 0.0636,-0.18235 0.12065,-0.31576 0.1875,-0.375 0.0678,-0.0579 0.1693,-0.0795 0.28125,-0.0625 0.13342,0.0203 0.2242,0.0759 0.28125,0.1875 0.0569,0.11276 0.0596,0.28215 0.0312,0.46875 -0.0163,0.1074 -0.0457,0.20184 -0.0937,0.3125 -0.0481,0.11068 -0.10554,0.22316 -0.1875,0.34375 l 0.34375,0.0625 c 0.0626,-0.12237 0.11604,-0.255 0.15625,-0.375 0.0402,-0.11998 0.0757,-0.22502 0.0937,-0.34375 0.0421,-0.27702 0.0111,-0.50964 -0.0937,-0.6875 -0.105,-0.17676 -0.27613,-0.27846 -0.5,-0.3125 -0.0967,-0.0147 -0.20144,-0.0171 -0.28125,0 z m -1.375,2.125 c -0.0108,0.11955 -0.0209,0.22752 -0.0312,0.34375 l 0.625,0.0937 -0.1875,1.25 -0.5625,-0.0937 c -0.009,0.10371 -0.0228,0.24361 -0.0312,0.34375 l 1.875,0.28125 0.0312,-0.34375 -1.03125,-0.15625 0.1875,-1.25 1.03125,0.15625 0.0625,-0.34375 -1.96875,-0.28125 z m -0.21875,2.5625 c -0.0876,1.07451 -0.12043,1.2723 -0.15625,1.78125 l 1.78125,-0.40625 0.0625,-0.375 -1.6875,-1 z m 0.125,0.46875 1.21875,0.65625 -1.34375,0.28125 0.125,-0.9375 z m -0.3125,2 c -0.003,0.047 -0.0295,0.28566 -0.0312,0.3125 l 1.1875,0.1875 -2.28125,0.8125 -0.0625,0.46875 2.53125,0.375 0.0312,-0.3125 -2.125,-0.34375 2.3125,-0.78125 0.0625,-0.46875 -1.625,-0.25 z m -0.59375,2.5 c -0.16959,0.0312 -0.30468,0.0938 -0.4375,0.1875 -0.24747,0.17652 -0.40005,0.45509 -0.46875,0.8125 l 0.25,0.21875 c 0.003,-0.0311 -0.005,-0.061 0,-0.0937 0.0471,-0.3098 0.17828,-0.5265 0.375,-0.65625 0.19655,-0.12859 0.47103,-0.14566 0.8125,-0.0937 0.34258,0.0521 0.56931,0.16252 0.71875,0.34375 0.14926,0.18233 0.20336,0.44022 0.15625,0.75 -0.0239,0.15716 -0.0803,0.3033 -0.15625,0.4375 -0.0759,0.13421 -0.15459,0.23347 -0.28125,0.34375 l 0.34375,0.0625 c 0.0982,-0.11347 0.18659,-0.23192 0.25,-0.375 0.0632,-0.14194 0.0999,-0.30365 0.125,-0.46875 0.0602,-0.39573 0.0102,-0.70964 -0.1875,-0.96875 -0.19679,-0.25781 -0.52369,-0.43705 -0.9375,-0.5 -0.20635,-0.0314 -0.39291,-0.0312 -0.5625,0 z m 0.15625,1.28125 -0.0937,0.5625 -0.0937,0 c -2.6e-4,0.002 -0.0284,0.28667 -0.0312,0.3125 l 0.34375,0.0625 0.15625,-0.90625 -0.28125,-0.0312 z M 285.125,706.25 c -0.009,0.0808 -0.0189,0.23681 -0.0312,0.34375 l 0.21875,0.0312 -0.1875,1.25 -0.1875,-0.0312 c -0.0236,0.19606 -0.005,0.12504 -0.0312,0.34375 l 1.5,0.21875 0.0312,-0.34375 -1.03125,-0.15625 0.1875,-1.25 1.03125,0.15625 0.0625,-0.34375 -1.5625,-0.21875 z m -0.3125,2.71875 c -0.01,0.0804 -0.021,0.22967 -0.0312,0.3125 l 1.0625,0.59375 -1.1875,0.25 c -0.0123,0.0981 -0.0186,0.24282 -0.0312,0.34375 l 1.5,-0.34375 0.0625,-0.375 -1.375,-0.78125 z m -0.28125,2.28125 c -0.0138,0.10844 -0.0483,0.23256 -0.0625,0.34375 l 1.40625,0.21875 0.0625,-0.34375 -1.40625,-0.21875 z m -0.40625,3.09375 c -0.019,0.1433 -0.043,0.22887 -0.0625,0.375 0.0231,0.003 0.0387,-0.004 0.0625,0 0.33467,0.0509 0.597,0.16313 0.75,0.34375 0.15413,0.18076 0.20025,0.42932 0.15625,0.71875 -0.0224,0.14698 -0.0521,0.28428 -0.125,0.40625 -0.0731,0.12307 -0.18757,0.21351 -0.3125,0.3125 l 0.375,0.0625 c 0.0981,-0.10539 0.15872,-0.21519 0.21875,-0.34375 0.061,-0.12723 0.10194,-0.28598 0.125,-0.4375 0.0583,-0.3833 -0.0171,-0.68125 -0.21875,-0.9375 -0.20052,-0.25607 -0.49922,-0.4381 -0.90625,-0.5 -0.0226,-0.003 -0.0404,0.003 -0.0625,0 z m -0.34375,2.59375 c -0.0828,0.60107 -0.19178,1.27103 -0.28125,1.90625 l 1.28125,0.21875 0.0625,-0.34375 -1.0625,-0.15625 0.1875,-1.25 1.0625,0.15625 0.0312,-0.34375 -1.28125,-0.1875 z m -0.375,2.59375 c -0.0167,0.11721 -0.0456,0.2255 -0.0625,0.34375 l 1.28125,0.21875 0.0625,-0.34375 -1.28125,-0.21875 z M 283.25,720.5625 c -0.0173,0.12026 -0.045,0.2225 -0.0625,0.34375 l 0.875,0.125 -0.9375,0.34375 c -0.0156,0.10766 -0.0154,0.2041 -0.0312,0.3125 l 1.34375,-0.46875 0.0937,-0.46875 -1.28125,-0.1875 z m -0.25,1.59375 c -0.016,0.10898 -0.0151,0.23407 -0.0312,0.34375 l 1.25,0.1875 0.0625,-0.34375 -1.2813,-0.1875 z m -0.15625,1.1875 c -0.0168,0.11286 -0.0456,0.23021 -0.0625,0.34375 l 0.875,0.46875 -0.96875,0.1875 c -0.0173,0.11481 -0.0451,0.22829 -0.0625,0.34375 l 1.34375,-0.28125 0.0625,-0.40625 -1.1875,-0.65625 z"
                 style="font-size:5.26995993px;font-style:normal;font-variant:normal;font-weight:normal;font-stretch:normal;text-align:start;line-height:100%;text-anchor:start;fill:#000000;fill-opacity:1;stroke:none;font-family:Bitstream Vera Sans" />
              <path
                 id="text3236"
                 d="m 297.5,666.0625 -0.625,4.1875 0.75,0.125 0.5,-3.3125 2.65625,0.40625 c 0.0482,-0.30246 0.0759,-0.6035 0.125,-0.90625 l -3.40625,-0.5 z m -0.6875,4.53125 -0.15625,0.96875 1.65625,0.875 -0.46875,3.03125 -1.8125,0.34375 -0.15625,0.96875 3.65625,-0.8125 c 0.0397,-0.29308 0.0845,-0.58036 0.125,-0.875 l -1,0.21875 0.375,-2.5 0.875,0.5 c 0.0435,-0.30528 0.0806,-0.59975 0.125,-0.90625 l -3.21875,-1.8125 z m -1.09375,7.15625 -0.125,0.90625 2.84375,0.4375 -0.15625,1 c -0.055,0.36181 -0.16437,0.62689 -0.34375,0.8125 -0.17983,0.18858 -0.51381,0.37688 -1,0.53125 l -1.875,0.59375 -0.125,0.96875 1.96875,-0.625 c 0.40833,-0.12917 0.75448,-0.28357 1,-0.4375 0.24505,-0.15092 0.40386,-0.31413 0.5,-0.5 0.0409,0.31393 0.14465,0.56588 0.3125,0.78125 0.15662,-1.29997 0.32492,-2.58738 0.5,-3.9375 l -3.5,-0.53125 z m -0.96875,6.4375 -0.15625,0.90625 3.25,0.5 -3.71875,2.75 -0.1875,1.21875 4.15625,-3.0625 0.125,0.1875 c 0.0718,-0.64754 0.14203,-1.2705 0.21875,-1.9375 l -3.6875,-0.5625 z"
                 style="font-size:9.36882019px;font-style:normal;font-variant:normal;font-weight:normal;font-stretch:normal;text-align:start;line-height:125%;text-anchor:start;fill:#ffffff;fill-opacity:1;stroke:none;font-family:Bitstream Vera Sans" />
            </g>
            <path
               style="fill:#000000;fill-opacity:0.78431396;fill-rule:evenodd;stroke:#000000;stroke-width:2;stroke-linecap:butt;stroke-linejoin:round;stroke-miterlimit:4;stroke-opacity:1;stroke-dasharray:none"
               d="m 312.85249,627.5712 7.48563,5.21738 c 0,0 -2.83871,2.25112 -0.96818,6.9156 1.50453,3.75183 7.19162,2.90597 7.46884,-3.31949 0.3158,-7.37449 -5.96485,-13.64357 -14.10782,-13.41625 -22.03581,0.60208 -26.92744,78.67645 -26.92744,78.67645 l -3.59611,0.82987 3.04287,2.76624 c 0,0 -7.61938,69.04308 -20.13793,81.17043 l -9.04181,-6.73389 c 0,0 4.27517,-1.34222 3.8056,-8.56144 -0.44695,-6.87171 -10.83406,-8.73053 -12.88098,0.48613 -1.78516,8.03809 4.75305,18.80622 18.69823,18.37414 21.57512,-0.66011 30.48353,-80.30939 30.48353,-80.30939 l 3.18117,-0.82987 -2.90455,-2.90455 c 0,0 3.95088,-62.73211 16.39895,-78.36136 z"
               id="path3200"
               sodipodi:nodetypes="ccscscccccssscccc" />
            <rect
               style="fill:url(#linearGradient3434);fill-opacity:1;fill-rule:nonzero;stroke:#000000;stroke-width:2;stroke-linecap:round;stroke-linejoin:round;stroke-miterlimit:4;stroke-opacity:1;stroke-dasharray:none"
               id="rect5178"
               width="84.872734"
               height="12.427324"
               x="334.37759"
               y="-110.98341" />
            <path
               style="fill:url(#linearGradient3436);fill-opacity:1;fill-rule:evenodd;stroke:#000000;stroke-width:2;stroke-linecap:butt;stroke-linejoin:round;stroke-miterlimit:4;stroke-opacity:1;stroke-dasharray:none"
               d="m 334.3776,-98.324066 84.87302,-0.03231 c 0,0 -1.13,7.559448 -5.55938,8.923183 l -73.09538,-0.23398 c -4.92629,-1.131716 -6.21826,-8.656897 -6.21826,-8.656897 z"
               id="path5180"
               sodipodi:nodetypes="ccccc" />
            <path
               style="fill:url(#linearGradient3438);fill-opacity:1;fill-rule:evenodd;stroke:#000000;stroke-width:2;stroke-linecap:butt;stroke-linejoin:round;stroke-miterlimit:4;stroke-opacity:1;stroke-dasharray:none"
               d="m 340.72302,-89.898932 c 3.44908,-1.215186 8.69556,-22.327318 10.1378,-33.818318 l 53.23826,-0.078 c 0.078,11.7032 5.20759,32.707483 9.39017,34.42888 l -72.76623,-0.532572 z"
               id="path5220"
               sodipodi:nodetypes="ccccc" />
            <path
               style="fill:url(#linearGradient3440);fill-opacity:1;fill-rule:evenodd;stroke:#000000;stroke-width:2;stroke-linecap:butt;stroke-linejoin:round;stroke-miterlimit:4;stroke-opacity:1;stroke-dasharray:none"
               d="m 172.51041,-77.978137 c 2.5741,1.261246 5.38119,1.631002 7.72229,0 2.29416,1.620907 5.11539,1.924136 8.82757,0 2.13923,29.157091 -0.12281,56.507132 12.40237,82.9870538 -8.5315,-4.15036298 -14.20884,-7.0503289 -21.45332,0.094146 -8.58977,-6.3551139 -13.41132,-4.013068 -21.29733,0.1882926 10.95608,-26.2920004 11.82714,-54.9040754 13.79842,-83.2694924 z"
               id="path5224"
               sodipodi:nodetypes="ccccccc"
               transform="translate(194.844,-73.4328)" />
            <path
               style="fill:none;stroke:#ece9a5;stroke-width:3.5;stroke-linecap:round;stroke-linejoin:miter;stroke-miterlimit:4;stroke-opacity:1;stroke-dasharray:none;stroke-dashoffset:0;marker:none;visibility:visible;display:inline;overflow:visible"
               d="m 369.57931,-24.73983 0.56487,10.167809"
               id="path5338"
               sodipodi:nodetypes="cc" />
            <path
               style="fill:none;stroke:#ece9a5;stroke-width:3.5;stroke-linecap:round;stroke-linejoin:miter;stroke-miterlimit:4;stroke-opacity:1;stroke-dasharray:none;stroke-dashoffset:0;marker:none;visibility:visible;display:inline;overflow:visible"
               d="m 373.06272,-24.551538 0.56487,10.167809"
               id="path5340"
               sodipodi:nodetypes="cc" />
            <path
               style="fill:none;stroke:#ece9a5;stroke-width:3;stroke-linecap:round;stroke-linejoin:miter;stroke-miterlimit:4;stroke-opacity:1;stroke-dasharray:none;stroke-dashoffset:0;marker:none;visibility:visible;display:inline;overflow:visible"
               d="m 379.46467,-57.314453 -0.1883,10.167809"
               id="path5346"
               sodipodi:nodetypes="cc" />
            <path
               style="fill:none;stroke:#ece9a5;stroke-width:3;stroke-linecap:round;stroke-linejoin:miter;stroke-miterlimit:4;stroke-opacity:1;stroke-dasharray:none;stroke-dashoffset:0;marker:none;visibility:visible;display:inline;overflow:visible"
               d="m 376.26369,-57.502747 -0.1883,10.167809"
               id="path5348"
               sodipodi:nodetypes="cc" />
            <path
               style="fill:none;stroke:#ece9a5;stroke-width:2.5;stroke-linecap:round;stroke-linejoin:miter;stroke-miterlimit:4;stroke-opacity:1;stroke-dasharray:none;stroke-dashoffset:0;marker:none;visibility:visible;display:inline;overflow:visible"
               d="m 382.85393,22.521618 0.56487,10.167809"
               id="path5350"
               sodipodi:nodetypes="cc" />
            <path
               style="fill:none;stroke:#ece9a5;stroke-width:2.5;stroke-linecap:round;stroke-linejoin:miter;stroke-miterlimit:4;stroke-opacity:1;stroke-dasharray:none;stroke-dashoffset:0;marker:none;visibility:visible;display:inline;overflow:visible"
               d="m 374.94565,22.70991 0.56487,10.167809"
               id="path5382"
               sodipodi:nodetypes="cc" />
            <path
               sodipodi:nodetypes="cc"
               id="path5390"
               d="m 374.94565,22.70991 0.56487,10.167809"
               style="opacity:0.75;fill:none;stroke:#b5000f;stroke-width:2.5;stroke-linecap:round;stroke-linejoin:miter;stroke-miterlimit:4;stroke-opacity:1;stroke-dasharray:none;stroke-dashoffset:0;marker:none;visibility:visible;display:inline;overflow:visible" />
            <path
               style="fill:none;stroke:#ece9a5;stroke-width:2.5;stroke-linecap:round;stroke-linejoin:miter;stroke-miterlimit:4;stroke-opacity:1;stroke-dasharray:none;stroke-dashoffset:0;marker:none;visibility:visible;display:inline;overflow:visible"
               d="m 372.30955,22.756984 0.56487,10.167809"
               id="path5384"
               sodipodi:nodetypes="cc" />
            <path
               sodipodi:nodetypes="cc"
               id="path5392"
               d="m 372.30955,22.756984 0.56487,10.167809"
               style="opacity:0.75;fill:none;stroke:#b5000f;stroke-width:2.5;stroke-linecap:round;stroke-linejoin:miter;stroke-miterlimit:4;stroke-opacity:1;stroke-dasharray:none;stroke-dashoffset:0;marker:none;visibility:visible;display:inline;overflow:visible" />
            <path
               sodipodi:nodetypes="cc"
               id="path5366"
               d="m 361.27997,74.865742 1.54491,-18.180129"
               style="opacity:0.75;fill:none;stroke:#000000;stroke-width:4;stroke-linecap:round;stroke-linejoin:miter;stroke-miterlimit:4;stroke-opacity:1;stroke-dasharray:none" />
            <path
               style="fill:none;stroke:#ece9a5;stroke-width:3.5;stroke-linecap:round;stroke-linejoin:miter;stroke-miterlimit:4;stroke-opacity:1;stroke-dasharray:none;stroke-dashoffset:0;marker:none;visibility:visible;display:inline;overflow:visible"
               d="m 376.64028,-24.551538 0.56487,10.167809"
               id="path5368"
               sodipodi:nodetypes="cc" />
            <path
               sodipodi:nodetypes="cc"
               id="path5370"
               d="m 373.06272,-24.551538 0.56487,10.167809"
               style="opacity:0.75;fill:none;stroke:#002bb9;stroke-width:3.5;stroke-linecap:round;stroke-linejoin:miter;stroke-miterlimit:4;stroke-opacity:1;stroke-dasharray:none;stroke-dashoffset:0;marker:none;visibility:visible;display:inline;overflow:visible" />
            <path
               sodipodi:nodetypes="cc"
               id="path5372"
               d="m 376.64028,-24.551538 0.56487,10.167809"
               style="opacity:0.75;fill:none;stroke:#002bb9;stroke-width:3.5;stroke-linecap:round;stroke-linejoin:miter;stroke-miterlimit:4;stroke-opacity:1;stroke-dasharray:none;stroke-dashoffset:0;marker:none;visibility:visible;display:inline;overflow:visible" />
            <path
               style="fill:none;stroke:#ece9a5;stroke-width:3;stroke-linecap:round;stroke-linejoin:miter;stroke-miterlimit:4;stroke-opacity:1;stroke-dasharray:none;stroke-dashoffset:0;marker:none;visibility:visible;display:inline;overflow:visible"
               d="m 373.06272,-57.502746 -0.1883,10.167809"
               id="path5374"
               sodipodi:nodetypes="cc" />
            <path
               sodipodi:nodetypes="cc"
               id="path5376"
               d="m 379.46467,-57.314453 -0.1883,10.167809"
               style="opacity:0.75;fill:none;stroke:#039c12;stroke-width:3;stroke-linecap:round;stroke-linejoin:miter;stroke-miterlimit:4;stroke-opacity:1;stroke-dasharray:none;stroke-dashoffset:0;marker:none;visibility:visible;display:inline;overflow:visible" />
            <path
               sodipodi:nodetypes="cc"
               id="path5378"
               d="m 376.26369,-57.502747 -0.1883,10.167809"
               style="opacity:0.75;fill:none;stroke:#039c12;stroke-width:3;stroke-linecap:round;stroke-linejoin:miter;stroke-miterlimit:4;stroke-opacity:1;stroke-dasharray:none;stroke-dashoffset:0;marker:none;visibility:visible;display:inline;overflow:visible" />
            <path
               sodipodi:nodetypes="cc"
               id="path5380"
               d="m 373.06272,-57.502746 -0.1883,10.167809"
               style="opacity:0.75;fill:none;stroke:#039c12;stroke-width:3;stroke-linecap:round;stroke-linejoin:miter;stroke-miterlimit:4;stroke-opacity:1;stroke-dasharray:none;stroke-dashoffset:0;marker:none;visibility:visible;display:inline;overflow:visible" />
          </g>
        </g>
      </g>
    </g>
  </g>
</svg>
