#define pipette_width 23
#define pipette_height 23
static unsigned char pipette_bits[] = {
   0x00, 0x00, 0x00, 0x00, 0x00, 0x00, 0x00, 0x00, 0x0f, 0x00, 0x80, 0x1f,
   0x00, 0xc0, 0x19, 0x00, 0xec, 0x18, 0x00, 0x7e, 0x1c, 0x00, 0x3e, 0x0e,
   0x00, 0x7c, 0x07, 0x00, 0xfe, 0x03, 0x00, 0xf7, 0x01, 0x80, 0xe3, 0x03,
   0xc0, 0xf1, 0x03, 0xe0, 0xb8, 0x01, 0x70, 0x1c, 0x00, 0x38, 0x0e, 0x00,
   0x1c, 0x07, 0x00, 0x8c, 0x03, 0x00, 0xc4, 0x01, 0x00, 0xe4, 0x00, 0x00,
   0x78, 0x00, 0x00, 0x00, 0x00, 0x00, 0x00, 0x00, 0x00 };
