#define up_mask_width 16
#define up_mask_height 16
static unsigned char up_mask_bits[] = {
   0x80, 0x00, 0xc0, 0x01, 0xe0, 0x03, 0xf0, 0x07, 0xf8, 0x0f, 0xf8, 0x0f,
   0xe0, 0x03, 0xe0, 0x03, 0xe0, 0x03, 0xe0, 0x03, 0xe0, 0x03, 0xe0, 0x03,
   0xe0, 0x03, 0xe0, 0x03, 0xe0, 0x03, 0xc0, 0x01 };
