<?xml version="1.0" encoding="UTF-8" standalone="no"?>
<!-- Created with Inkscape (http://www.inkscape.org/) -->
<svg
   xmlns:dc="http://purl.org/dc/elements/1.1/"
   xmlns:cc="http://creativecommons.org/ns#"
   xmlns:rdf="http://www.w3.org/1999/02/22-rdf-syntax-ns#"
   xmlns:svg="http://www.w3.org/2000/svg"
   xmlns="http://www.w3.org/2000/svg"
   xmlns:xlink="http://www.w3.org/1999/xlink"
   xmlns:sodipodi="http://sodipodi.sourceforge.net/DTD/sodipodi-0.dtd"
   xmlns:inkscape="http://www.inkscape.org/namespaces/inkscape"
   width="300.00003"
   height="21.73535"
   id="svg4824"
   version="1.0"
   inkscape:version="0.46"
   sodipodi:docname="baroquon_Blue_Ball_Point_Pen.svg"
   inkscape:output_extension="org.inkscape.output.svg.inkscape"
   sodipodi:version="0.32">
  <defs
     id="defs4826">
    <linearGradient
       inkscape:collect="always"
       xlink:href="#linearGradient7145"
       id="linearGradient8843"
       gradientUnits="userSpaceOnUse"
       x1="1249.9592"
       y1="348.8945"
       x2="1250.8627"
       y2="380.71429"
       gradientTransform="matrix(1.20969,-1.24694,1.24694,1.20969,-1378.33,1202.17)" />
    <linearGradient
       inkscape:collect="always"
       id="linearGradient7145">
      <stop
         style="stop-color: rgb(220, 220, 220); stop-opacity: 1;"
         offset="0"
         id="stop7147" />
      <stop
         style="stop-color: rgb(220, 220, 220); stop-opacity: 0;"
         offset="1"
         id="stop7149" />
    </linearGradient>
    <linearGradient
       inkscape:collect="always"
       xlink:href="#linearGradient7155"
       id="linearGradient8847"
       gradientUnits="userSpaceOnUse"
       x1="1121.0721"
       y1="336.62473"
       x2="1120.6285"
       y2="384.35443"
       gradientTransform="matrix(1.20969,-1.24694,1.24694,1.20969,-1378.33,1202.17)" />
    <linearGradient
       inkscape:collect="always"
       id="linearGradient7155">
      <stop
         style="stop-color: rgb(231, 231, 231); stop-opacity: 1;"
         offset="0"
         id="stop7157" />
      <stop
         style="stop-color: rgb(231, 231, 231); stop-opacity: 0;"
         offset="1"
         id="stop7159" />
    </linearGradient>
    <radialGradient
       inkscape:collect="always"
       xlink:href="#linearGradient7130"
       id="radialGradient8850"
       gradientUnits="userSpaceOnUse"
       gradientTransform="matrix(1.0553,-1.08779,0.105005,0.101869,-764.886,1415.26)"
       cx="1272.9463"
       cy="384.84375"
       fx="1272.9463"
       fy="384.84375"
       r="33.92857" />
    <linearGradient
       inkscape:collect="always"
       id="linearGradient7130">
      <stop
         style="stop-color: rgb(239, 233, 233); stop-opacity: 1;"
         offset="0"
         id="stop7132" />
      <stop
         style="stop-color: rgb(239, 233, 233); stop-opacity: 0;"
         offset="1"
         id="stop7134" />
    </linearGradient>
    <linearGradient
       inkscape:collect="always"
       xlink:href="#linearGradient7120"
       id="linearGradient8853"
       gradientUnits="userSpaceOnUse"
       x1="1236.3392"
       y1="369.99994"
       x2="1232.9464"
       y2="372.85709"
       gradientTransform="matrix(1.20969,-1.24694,1.24694,1.20969,-1378.33,1202.17)" />
    <linearGradient
       inkscape:collect="always"
       id="linearGradient7120">
      <stop
         style="stop-color: rgb(242, 242, 242); stop-opacity: 1;"
         offset="0"
         id="stop7122" />
      <stop
         style="stop-color: rgb(242, 242, 242); stop-opacity: 0;"
         offset="1"
         id="stop7124" />
    </linearGradient>
    <filter
       inkscape:collect="always"
       id="filter7116"
       color-interpolation-filters="sRGB">
      <feGaussianBlur
         inkscape:collect="always"
         stdDeviation="0.14843748"
         id="feGaussianBlur7118" />
    </filter>
    <linearGradient
       inkscape:collect="always"
       xlink:href="#linearGradient7130"
       id="linearGradient8858"
       gradientUnits="userSpaceOnUse"
       x1="1240.8927"
       y1="367.14285"
       x2="1261.9642"
       y2="370.98215"
       gradientTransform="matrix(1.20969,-1.24694,1.24694,1.20969,-1378.33,1202.17)" />
    <filter
       inkscape:collect="always"
       id="filter7188"
       x="-0.032732792"
       width="1.0654656"
       y="-0.35933346"
       height="1.7186669"
       color-interpolation-filters="sRGB">
      <feGaussianBlur
         inkscape:collect="always"
         stdDeviation="0.48358409"
         id="feGaussianBlur7190" />
    </filter>
    <linearGradient
       inkscape:collect="always"
       xlink:href="#linearGradient7168"
       id="linearGradient8830"
       gradientUnits="userSpaceOnUse"
       x1="1015.8927"
       y1="368.03577"
       x2="1016.607"
       y2="383.39288" />
    <linearGradient
       inkscape:collect="always"
       id="linearGradient7168">
      <stop
         style="stop-color: rgb(231, 231, 231); stop-opacity: 1;"
         offset="0"
         id="stop7170" />
      <stop
         style="stop-color: rgb(231, 231, 231); stop-opacity: 0;"
         offset="1"
         id="stop7172" />
    </linearGradient>
    <linearGradient
       inkscape:collect="always"
       xlink:href="#linearGradient7168"
       id="linearGradient8828"
       gradientUnits="userSpaceOnUse"
       x1="1015.8927"
       y1="368.03577"
       x2="1016.607"
       y2="383.39288" />
    <linearGradient
       inkscape:collect="always"
       xlink:href="#linearGradient7168"
       id="linearGradient8826"
       gradientUnits="userSpaceOnUse"
       gradientTransform="translate(38.2822,-7.04501)"
       x1="1015.8927"
       y1="368.03577"
       x2="1016.607"
       y2="383.39288" />
    <radialGradient
       inkscape:collect="always"
       xlink:href="#linearGradient7222"
       id="radialGradient8822"
       gradientUnits="userSpaceOnUse"
       gradientTransform="matrix(1,0,0,0.255078,36.9712,279.258)"
       cx="1064.5321"
       cy="394.56213"
       fx="1064.5321"
       fy="394.56213"
       r="20.714251" />
    <linearGradient
       inkscape:collect="always"
       id="linearGradient7222">
      <stop
         style="stop-color: rgb(102, 102, 102); stop-opacity: 1;"
         offset="0"
         id="stop7224" />
      <stop
         style="stop-color: rgb(102, 102, 102); stop-opacity: 0;"
         offset="1"
         id="stop7226" />
    </linearGradient>
    <linearGradient
       inkscape:collect="always"
       xlink:href="#linearGradient7168"
       id="linearGradient8824"
       gradientUnits="userSpaceOnUse"
       gradientTransform="matrix(1,0,0,0.657534,75.2534,124.168)"
       x1="1016.6793"
       y1="378.16074"
       x2="1016.607"
       y2="383.39288" />
    <linearGradient
       inkscape:collect="always"
       xlink:href="#linearGradient7247"
       id="linearGradient8818"
       gradientUnits="userSpaceOnUse"
       gradientTransform="matrix(2.93672,0,0,2.46575,-1691.11,-589.043)"
       x1="959.38623"
       y1="385.12317"
       x2="963.78125"
       y2="385.12317" />
    <linearGradient
       inkscape:collect="always"
       id="linearGradient7247">
      <stop
         style="stop-color: rgb(255, 255, 255); stop-opacity: 1;"
         offset="0"
         id="stop7249" />
      <stop
         style="stop-color: rgb(255, 255, 255); stop-opacity: 0;"
         offset="1"
         id="stop7251" />
    </linearGradient>
    <radialGradient
       inkscape:collect="always"
       xlink:href="#linearGradient7260"
       id="radialGradient8820"
       gradientUnits="userSpaceOnUse"
       gradientTransform="matrix(1,0,0,0.419118,0,224.484)"
       cx="961.5625"
       cy="386.45312"
       fx="961.5625"
       fy="386.45312"
       r="2.125" />
    <linearGradient
       inkscape:collect="always"
       id="linearGradient7260">
      <stop
         style="stop-color: rgb(128, 128, 128); stop-opacity: 1;"
         offset="0"
         id="stop7262" />
      <stop
         style="stop-color: rgb(128, 128, 128); stop-opacity: 0;"
         offset="1"
         id="stop7264" />
    </linearGradient>
    <filter
       inkscape:collect="always"
       id="filter7268"
       color-interpolation-filters="sRGB">
      <feGaussianBlur
         inkscape:collect="always"
         stdDeviation="0.03015625"
         id="feGaussianBlur7270" />
    </filter>
  </defs>
  <sodipodi:namedview
     id="base"
     pagecolor="#ffffff"
     bordercolor="#666666"
     borderopacity="1.0"
     inkscape:pageopacity="0.0"
     inkscape:pageshadow="2"
     inkscape:zoom="0.7"
     inkscape:cx="402.98401"
     inkscape:cy="33.623653"
     inkscape:document-units="px"
     inkscape:current-layer="layer1"
     showgrid="false"
     inkscape:window-width="1440"
     inkscape:window-height="825"
     inkscape:window-x="0"
     inkscape:window-y="25"
     inkscape:window-maximized="0" />
  <metadata
     id="metadata4829">
    <rdf:RDF>
      <cc:Work
         rdf:about="">
        <dc:format>image/svg+xml</dc:format>
        <dc:type
           rdf:resource="http://purl.org/dc/dcmitype/StillImage" />
        <dc:title />
      </cc:Work>
    </rdf:RDF>
  </metadata>
  <g
     inkscape:label="Layer 1"
     inkscape:groupmode="layer"
     id="layer1"
     transform="translate(-35.789744,-948.80479)">
    <g
       id="g5013"
       transform="matrix(0.3567093,0.3743369,-0.3743369,0.3567093,103.10883,696.22024)">
      <g
         transform="matrix(0.41192,-0.424603,0.505703,0.490598,-364.887,739.386)"
         id="g7230">
        <g
           transform="translate(-11.3099,5.13725)"
           id="g7274">
          <path
             transform="matrix(2.93672,0,0,2.46575,-1691.62,-589.121)"
             style="fill:#000080;fill-opacity:1;stroke:none"
             d="M 960.02369,385.69992 C 960.02369,385.84375 959.85762,385.96035 959.65277,385.96035 C 959.44792,385.96035 959.28186,385.84375 959.28186,385.69992 C 959.28186,385.55609 959.44792,385.43949 959.65277,385.43949 C 959.85762,385.43949 960.02369,385.55609 960.02369,385.69992 z"
             id="path7272" />
          <path
             sodipodi:nodetypes="ccccccc"
             id="path7232"
             d="M 1137.5769,358.7488 C 1138.5177,358.7488 1139.2751,359.85552 1139.2751,361.23024 L 1139.2751,363.56571 C 1139.2751,364.94043 1138.5177,366.04716 1137.5769,366.04716 C 1134.7851,365.29505 1131.5198,364.08527 1126.63,362.49057 L 1126.3995,361.23024 L 1137.5769,358.7488 L 1137.5769,358.7488 z"
             style="fill:#cccccc;fill-opacity:1;stroke:none" />
          <path
             style="fill:url(#linearGradient8818);fill-opacity:1;stroke:none"
             d="M 1137.5949,358.73055 L 1126.3986,361.1963 L 1126.4906,361.58157 C 1126.3852,361.58357 1125.8211,361.53187 1127.8672,361.73568 C 1130.602,362.00812 1132.7987,362.62456 1135.209,362.35212 C 1137.1541,362.13225 1138.0624,362.50502 1139.247,361.96685 L 1139.247,361.1963 C 1139.247,359.82157 1138.5359,358.73055 1137.5951,358.73055 L 1137.5949,358.73055 z"
             id="path7242" />
          <path
             style="fill:url(#radialGradient8820);fill-opacity:1;stroke:none;filter:url(#filter7268)"
             d="M 959.4375,385.5625 L 959.5,385.90625 C 961.16506,386.55299 962.2681,387.03873 963.21875,387.34375 C 963.42219,387.34375 963.58449,387.1499 963.6875,386.875 C 962.91863,386.8895 962.01424,386.8166 959.4375,385.5625 z"
             transform="matrix(2.93672,0,0,2.46575,-1691.11,-589.043)"
             id="path7255" />
        </g>
      </g>
      <g
         id="g7212"
         transform="matrix(0.41192,-0.424603,0.505703,0.490598,-351.63,718.474)">
        <path
           sodipodi:nodetypes="ccccccccc"
           id="path7214"
           d="M 1086.4319,370.62624 L 1116.7532,369.33465 C 1119.7805,369.33465 1122.2175,370.93711 1122.2175,372.9276 L 1122.2175,376.30921 C 1122.2175,378.2997 1119.7805,379.90217 1116.7532,379.90217 L 1086.2533,379.08025 C 1083.226,379.08025 1080.789,378.2997 1080.789,376.30921 L 1080.789,372.9276 C 1080.789,370.93711 1083.4046,370.62624 1086.4319,370.62624 z"
           style="fill:#cccccc;fill-opacity:1;stroke:none" />
        <path
           style="fill:url(#radialGradient8822);fill-opacity:1;stroke:none"
           d="M 1086.4319,370.62624 L 1116.7532,369.33465 C 1119.7805,369.33465 1122.2175,370.93711 1122.2175,372.9276 L 1122.2175,376.30921 C 1122.2175,378.2997 1119.7805,379.90217 1116.7532,379.90217 L 1086.2533,379.08025 C 1083.226,379.08025 1080.789,378.2997 1080.789,376.30921 L 1080.789,372.9276 C 1080.789,370.93711 1083.4046,370.62624 1086.4319,370.62624 z"
           id="path7220"
           sodipodi:nodetypes="ccccccccc" />
        <path
           style="fill:url(#linearGradient8824);fill-opacity:1;stroke:none"
           d="M 1086.4319,370.62624 L 1116.7532,369.33465 C 1119.7805,369.33465 1122.2175,370.93711 1122.2175,372.9276 C 1109.6732,372.60303 1099.8815,372.27431 1080.789,376.30921 L 1080.789,372.9276 C 1080.789,370.93711 1083.4046,370.62624 1086.4319,370.62624 L 1086.4319,370.62624 z"
           id="path7216"
           sodipodi:nodetypes="cccccc" />
      </g>
      <g
         transform="matrix(0.41192,-0.424603,0.505703,0.490598,-327.685,694.461)"
         id="g7202">
        <path
           style="fill:#000080;fill-opacity:1;stroke:none"
           d="M 1049.4607,367.77644 L 1079.782,365.81215 C 1082.8093,365.81215 1085.2463,368.24922 1085.2463,371.27643 L 1085.2463,376.41929 C 1085.2463,379.4465 1082.8093,381.88358 1079.782,381.88358 L 1049.2821,380.63358 C 1046.2548,380.63358 1043.8178,379.4465 1043.8178,376.41929 L 1043.8178,371.27643 C 1043.8178,368.24922 1046.4334,367.77644 1049.4607,367.77644 L 1049.4607,367.77644 z"
           id="path7204"
           sodipodi:nodetypes="ccccccccc" />
        <path
           sodipodi:nodetypes="cccccc"
           id="path7206"
           d="M 1049.4607,367.77644 L 1079.782,365.81215 C 1082.8093,365.81215 1085.2463,368.24922 1085.2463,371.27643 C 1072.702,370.78281 1062.9103,370.28288 1043.8178,376.41929 L 1043.8178,371.27643 C 1043.8178,368.24922 1046.4334,367.77644 1049.4607,367.77644 L 1049.4607,367.77644 z"
           style="fill:url(#linearGradient8826);fill-opacity:1;stroke:none" />
      </g>
      <g
         id="g7192"
         transform="matrix(0.469276,-0.483725,0.734309,0.712375,-452.552,641.481)">
        <path
           sodipodi:nodetypes="ccccccccc"
           id="path7194"
           d="M 1011.1785,374.82145 L 1041.4998,372.85716 C 1044.5271,372.85716 1046.9641,375.29423 1046.9641,378.32144 L 1046.9641,383.4643 C 1046.9641,386.49151 1044.5271,388.92859 1041.4998,388.92859 L 1010.9999,387.67859 C 1007.9726,387.67859 1005.5356,386.49151 1005.5356,383.4643 L 1005.5356,378.32144 C 1005.5356,375.29423 1008.1512,374.82145 1011.1785,374.82145 L 1011.1785,374.82145 z"
           style="fill:#1a1a1a;fill-opacity:1;stroke:none" />
        <path
           style="fill:url(#linearGradient8828);fill-opacity:1;stroke:none"
           d="M 1011.1785,374.82145 L 1041.4998,372.85716 C 1044.5271,372.85716 1046.9641,375.29423 1046.9641,378.32144 C 1034.4198,377.82782 1024.6281,377.32789 1005.5356,383.4643 L 1005.5356,378.32144 C 1005.5356,375.29423 1008.1512,374.82145 1011.1785,374.82145 L 1011.1785,374.82145 z"
           id="path7196"
           sodipodi:nodetypes="cccccc" />
      </g>
      <path
         transform="matrix(0.421279,-0.52815,0.725733,0.640713,-438.102,655.668)"
         style="opacity:0.5;fill:#e7e7e7;fill-opacity:1;stroke:none;filter:url(#filter7188)"
         d="M 980.69771,445.12582 L 1015.3406,445.12582 C 1015.5879,445.12582 1015.787,445.32493 1015.787,445.57225 C 1015.787,445.81957 1015.5879,446.01868 1015.3406,446.01868 L 980.69771,446.01868 C 980.45039,446.01868 980.25128,445.81957 980.25128,445.57225 C 980.25128,445.32493 980.45039,445.12582 980.69771,445.12582 z"
         id="rect7198" />
      <g
         transform="matrix(1.20969,-1.24694,1.31621,1.2769,-1404.16,1176.67)"
         id="g7176">
        <path
           style="fill:#1a1a1a;fill-opacity:1;stroke:none"
           d="M 1011.1785,374.82145 L 1041.4998,372.85716 C 1044.5271,372.85716 1046.9641,375.29423 1046.9641,378.32144 L 1046.9641,383.4643 C 1046.9641,386.49151 1044.5271,388.92859 1041.4998,388.92859 L 1010.9999,387.67859 C 1007.9726,387.67859 1005.5356,386.49151 1005.5356,383.4643 L 1005.5356,378.32144 C 1005.5356,375.29423 1008.1512,374.82145 1011.1785,374.82145 L 1011.1785,374.82145 z"
           id="rect7163"
           sodipodi:nodetypes="ccccccccc" />
        <path
           sodipodi:nodetypes="cccccc"
           id="path7166"
           d="M 1011.1785,374.82145 L 1041.4998,372.85716 C 1044.5271,372.85716 1046.9641,375.29423 1046.9641,378.32144 C 1034.4198,377.82782 1024.6281,377.32789 1005.5356,383.4643 L 1005.5356,378.32144 C 1005.5356,375.29423 1008.1512,374.82145 1011.1785,374.82145 L 1011.1785,374.82145 z"
           style="fill:url(#linearGradient8830);fill-opacity:1;stroke:none" />
      </g>
      <path
         transform="matrix(1.12282,-1.3257,1.3257,1.12282,-1378.33,1202.17)"
         style="opacity:0.5;fill:#e7e7e7;fill-opacity:1;stroke:none;filter:url(#filter7188)"
         d="M 980.69771,445.12582 L 1015.3406,445.12582 C 1015.5879,445.12582 1015.787,445.32493 1015.787,445.57225 C 1015.787,445.81957 1015.5879,446.01868 1015.3406,446.01868 L 980.69771,446.01868 C 980.45039,446.01868 980.25128,445.81957 980.25128,445.57225 C 980.25128,445.32493 980.45039,445.12582 980.69771,445.12582 z"
         id="rect7182" />
      <path
         sodipodi:nodetypes="ccsccsc"
         id="rect7078"
         d="M 572.58444,107.22084 L 647.75826,29.732388 C 649.67295,27.758711 652.08465,30.18504 654.77716,29.626195 C 680.09364,24.370267 656.79834,34.671426 654.88375,36.645063 L 579.70997,114.13352 C 577.79523,116.10718 574.66477,116.15466 572.69106,114.23971 C 570.71732,112.32491 570.66988,109.19444 572.58447,107.2208 L 572.58444,107.22084 z"
         style="fill:#b3b3b3;fill-opacity:1;stroke:none" />
      <path
         style="fill:url(#linearGradient8858);fill-opacity:1;stroke:none"
         d="M 572.58444,107.22084 L 647.75826,29.732388 C 649.67295,27.758711 652.80343,27.71123 654.77716,29.626195 C 656.75086,31.54096 656.79834,34.671426 654.88375,36.645063 L 579.70997,114.13352 C 577.79523,116.10718 574.66477,116.15466 572.69106,114.23971 C 570.71732,112.32491 570.66988,109.19444 572.58447,107.2208 L 572.58444,107.22084 z"
         id="rect7138" />
      <path
         transform="matrix(1.20969,-1.24694,1.24694,1.20969,-1378.33,1202.17)"
         style="opacity:0.5;fill:#1a1a1a;fill-opacity:1;stroke:none;filter:url(#filter7116)"
         d="M 1234.4641,367.41071 L 1234.9105,367.41071 C 1236.4934,367.41071 1237.7676,368.68499 1237.7676,370.26785 C 1237.7676,371.85071 1236.4934,373.12499 1234.9105,373.12499 L 1234.4641,373.12499 C 1232.8812,373.12499 1231.6069,371.85071 1231.6069,370.26785 C 1231.6069,368.68499 1232.8812,367.41071 1234.4641,367.41071 z"
         id="rect7082" />
      <path
         style="fill:#1a1a1a;fill-opacity:1;stroke:none"
         d="M 345.95338,353.30509 L 581.8434,110.15198 C 585.91234,105.95776 592.56461,105.85687 596.75877,109.92563 L 603.88415,116.83819 C 608.07833,120.90708 608.17912,127.55931 604.11016,131.75353 L 368.22009,374.90666 C 364.1512,379.10087 357.49893,379.20179 353.30477,375.13301 L 346.17939,368.22045 C 341.98521,364.15155 341.88442,357.49931 345.95338,353.30509 z"
         id="rect7074" />
      <path
         style="fill:url(#linearGradient8853);fill-opacity:1;stroke:none"
         d="M 572.36845,107.44332 L 572.90856,106.88659 C 574.82329,104.91291 577.95375,104.86544 579.92745,106.78039 C 581.9012,108.69519 581.94864,111.82565 580.03405,113.79929 L 579.49391,114.35606 C 577.57923,116.32974 574.44875,116.3772 572.47502,114.46225 C 570.50131,112.54749 570.45383,109.41702 572.36842,107.44334 L 572.36845,107.44332 z"
         id="rect7080" />
      <path
         style="fill:url(#radialGradient8850);fill-opacity:1;stroke:none"
         d="M 573.38381,106.39683 L 638.08072,39.7079 C 639.99555,37.734103 643.12601,37.686622 645.09976,39.601308 C 647.07346,41.516073 647.1209,44.646538 645.20595,46.620309 L 580.50908,113.30928 C 578.59425,115.28305 575.46378,115.33053 573.49005,113.41588 C 571.51631,111.50111 571.46887,108.37061 573.38386,106.39683 L 573.38381,106.39683 z"
         id="rect7128" />
      <path
         style="fill:url(#linearGradient8847);fill-opacity:1;stroke:none"
         d="M 345.95338,353.30509 L 581.8434,110.15198 C 585.91234,105.95776 592.56461,105.85687 596.75877,109.92563 L 603.88415,116.83819 C 608.07833,120.90708 608.17912,127.55931 604.11016,131.75353 L 368.22009,374.90666 C 364.1512,379.10087 357.49893,379.20179 353.30477,375.13301 L 346.17939,368.22045 C 341.98521,364.15155 341.88442,357.49931 345.95338,353.30509 z"
         id="rect7153" />
      <path
         style="fill:#1a1a1a;fill-opacity:1;stroke:none"
         d="M 544.65262,144.92349 L 661.26703,24.71851 C 665.82417,20.021042 673.27465,19.908075 677.97212,24.465349 L 685.95253,32.207409 C 690.65,36.764551 690.76296,44.215032 686.20568,48.9125 L 569.59127,169.1175 C 565.03413,173.81497 557.58365,173.92793 552.88618,169.37064 L 544.90577,161.6286 C 540.2083,157.07144 540.09534,149.62096 544.65262,144.92349 L 544.65262,144.92349 z"
         id="rect7076" />
      <path
         style="fill:url(#linearGradient8843);fill-opacity:1;stroke:none"
         d="M 544.65262,144.92349 L 661.26703,24.71851 C 665.82417,20.021042 673.27465,19.908075 677.97212,24.465349 L 685.95253,32.207409 C 690.65,36.764551 690.76296,44.215032 686.20568,48.9125 L 569.59127,169.1175 C 565.03413,173.81497 557.58365,173.92793 552.88618,169.37064 L 544.90577,161.6286 C 540.2083,157.07144 540.09534,149.62096 544.65262,144.92349 L 544.65262,144.92349 z"
         id="rect7143" />
    </g>
  </g>
</svg>
