<?xml version="1.0" encoding="UTF-8" standalone="no"?>
<!-- Created with Inkscape (http://www.inkscape.org/) -->

<svg
   xmlns:dc="http://purl.org/dc/elements/1.1/"
   xmlns:cc="http://creativecommons.org/ns#"
   xmlns:rdf="http://www.w3.org/1999/02/22-rdf-syntax-ns#"
   xmlns:svg="http://www.w3.org/2000/svg"
   xmlns="http://www.w3.org/2000/svg"
   xmlns:xlink="http://www.w3.org/1999/xlink"
   xmlns:sodipodi="http://sodipodi.sourceforge.net/DTD/sodipodi-0.dtd"
   xmlns:inkscape="http://www.inkscape.org/namespaces/inkscape"
   version="1.0"
   width="471.88028"
   height="344.91431"
   id="svg2"
   inkscape:version="0.47pre3 r22311"
   sodipodi:docname="jturner_Pencil.svg">
  <metadata
     id="metadata164">
    <rdf:RDF>
      <cc:Work
         rdf:about="">
        <dc:format>image/svg+xml</dc:format>
        <dc:type
           rdf:resource="http://purl.org/dc/dcmitype/StillImage" />
      </cc:Work>
    </rdf:RDF>
  </metadata>
  <sodipodi:namedview
     pagecolor="#ffffff"
     bordercolor="#666666"
     borderopacity="1"
     objecttolerance="10"
     gridtolerance="10"
     guidetolerance="10"
     inkscape:pageopacity="0"
     inkscape:pageshadow="2"
     inkscape:window-width="640"
     inkscape:window-height="484"
     id="namedview162"
     showgrid="false"
     showguides="true"
     inkscape:guide-bbox="true"
     inkscape:zoom="0.71163802"
     inkscape:cx="233.24094"
     inkscape:cy="172.45715"
     inkscape:window-x="0"
     inkscape:window-y="0"
     inkscape:window-maximized="0"
     inkscape:current-layer="svg2">
    <sodipodi:guide
       orientation="0,1"
       position="502.54711,46.436753"
       id="guide2972" />
  </sodipodi:namedview>
  <defs
     id="defs4">
    <linearGradient
       id="linearGradient3653">
      <stop
         id="stop3655"
         style="stop-color:#5d3715;stop-opacity:0.01176471"
         offset="0" />
      <stop
         id="stop3681"
         style="stop-color:#5a3715;stop-opacity:0.40392157"
         offset="0.07605869" />
      <stop
         id="stop3657"
         style="stop-color:#573715;stop-opacity:0.80000001"
         offset="0.15211737" />
      <stop
         id="stop3659"
         style="stop-color:#ffc554;stop-opacity:1"
         offset="0.38886341" />
      <stop
         id="stop3661"
         style="stop-color:#592400;stop-opacity:0.84901959"
         offset="0.49515635" />
      <stop
         id="stop3663"
         style="stop-color:#c78240;stop-opacity:0.83529413"
         offset="0.56633669" />
      <stop
         id="stop3667"
         style="stop-color:#624117;stop-opacity:0.68823528"
         offset="0.88123089" />
      <stop
         id="stop3669"
         style="stop-color:#6a481c;stop-opacity:0.09803922"
         offset="1" />
    </linearGradient>
    <linearGradient
       id="linearGradient3592">
      <stop
         id="stop3594"
         style="stop-color:#efa75a;stop-opacity:1"
         offset="0" />
      <stop
         id="stop3596"
         style="stop-color:#f5a753;stop-opacity:0.76862746"
         offset="0.13173623" />
      <stop
         id="stop3598"
         style="stop-color:#fff630;stop-opacity:0"
         offset="0.52000886" />
      <stop
         id="stop3600"
         style="stop-color:#fff72c;stop-opacity:0"
         offset="0.65801919" />
      <stop
         id="stop3602"
         style="stop-color:#e9a54d;stop-opacity:0.67647058"
         offset="0.82287097" />
      <stop
         id="stop3604"
         style="stop-color:#f7ac4b;stop-opacity:1"
         offset="1" />
    </linearGradient>
    <linearGradient
       id="linearGradient3578">
      <stop
         id="stop3580"
         style="stop-color:#5d3715;stop-opacity:1"
         offset="0" />
      <stop
         id="stop3582"
         style="stop-color:#573715;stop-opacity:1"
         offset="0.21830864" />
      <stop
         id="stop3584"
         style="stop-color:#fff630;stop-opacity:1"
         offset="0.42339215" />
      <stop
         id="stop3586"
         style="stop-color:#fff72c;stop-opacity:1"
         offset="0.55035812" />
      <stop
         id="stop3588"
         style="stop-color:#5a3b13;stop-opacity:1"
         offset="0.67403257" />
      <stop
         id="stop3590"
         style="stop-color:#6a481c;stop-opacity:1"
         offset="1" />
    </linearGradient>
    <linearGradient
       id="linearGradient3521">
      <stop
         id="stop3523"
         style="stop-color:#d65858;stop-opacity:1"
         offset="0" />
      <stop
         id="stop3529"
         style="stop-color:#f28989;stop-opacity:1"
         offset="0.5" />
      <stop
         id="stop3525"
         style="stop-color:#d65858;stop-opacity:1"
         offset="1" />
    </linearGradient>
    <linearGradient
       id="linearGradient3492">
      <stop
         id="stop3494"
         style="stop-color:#282828;stop-opacity:0.66233766"
         offset="0" />
      <stop
         id="stop3496"
         style="stop-color:#282828;stop-opacity:0"
         offset="1" />
    </linearGradient>
    <linearGradient
       id="linearGradient3476">
      <stop
         id="stop3478"
         style="stop-color:#282828;stop-opacity:1"
         offset="0" />
      <stop
         id="stop3486"
         style="stop-color:#252525;stop-opacity:1"
         offset="0.29184735" />
      <stop
         id="stop3484"
         style="stop-color:#595959;stop-opacity:1"
         offset="0.43836933" />
      <stop
         id="stop3488"
         style="stop-color:#272727;stop-opacity:1"
         offset="0.57965046" />
      <stop
         id="stop3480"
         style="stop-color:#282828;stop-opacity:1"
         offset="1" />
    </linearGradient>
    <linearGradient
       id="linearGradient3435">
      <stop
         id="stop3437"
         style="stop-color:#692908;stop-opacity:1"
         offset="0" />
      <stop
         id="stop3439"
         style="stop-color:#8d370b;stop-opacity:0"
         offset="1" />
    </linearGradient>
    <linearGradient
       id="linearGradient3329">
      <stop
         id="stop3331"
         style="stop-color:#da9677;stop-opacity:1"
         offset="0" />
      <stop
         id="stop3333"
         style="stop-color:#af6746;stop-opacity:1"
         offset="1" />
    </linearGradient>
    <linearGradient
       id="linearGradient3243">
      <stop
         id="stop3245"
         style="stop-color:#e0a136;stop-opacity:1"
         offset="0" />
      <stop
         id="stop3247"
         style="stop-color:#c58a26;stop-opacity:1"
         offset="1" />
    </linearGradient>
    <filter
       id="filter3307"
       color-interpolation-filters="sRGB">
      <feGaussianBlur
         inkscape:collect="always"
         stdDeviation="0.68095704"
         id="feGaussianBlur3309" />
    </filter>
    <filter
       id="filter3315"
       color-interpolation-filters="sRGB">
      <feGaussianBlur
         inkscape:collect="always"
         stdDeviation="1.3634141"
         id="feGaussianBlur3317" />
    </filter>
    <filter
       id="filter3423"
       color-interpolation-filters="sRGB">
      <feGaussianBlur
         inkscape:collect="always"
         stdDeviation="1.5296002"
         id="feGaussianBlur3425" />
    </filter>
    <filter
       id="filter3453"
       color-interpolation-filters="sRGB">
      <feGaussianBlur
         inkscape:collect="always"
         stdDeviation="0.22172434"
         id="feGaussianBlur3455" />
    </filter>
    <linearGradient
       x1="534.93317"
       y1="212.36952"
       x2="549.86621"
       y2="232.93332"
       id="linearGradient3527"
       xlink:href="#linearGradient3521"
       gradientUnits="userSpaceOnUse" />
    <filter
       id="filter3539"
       color-interpolation-filters="sRGB">
      <feGaussianBlur
         inkscape:collect="always"
         stdDeviation="0.09937956"
         id="feGaussianBlur3541" />
    </filter>
    <linearGradient
       x1="524.95233"
       y1="263.83887"
       x2="545.96747"
       y2="294.26364"
       id="linearGradient3615"
       xlink:href="#linearGradient3592"
       gradientUnits="userSpaceOnUse"
       gradientTransform="translate(-17.73411,-38.85427)" />
    <linearGradient
       x1="524.95233"
       y1="263.83887"
       x2="545.96747"
       y2="294.26364"
       id="linearGradient3618"
       xlink:href="#linearGradient3578"
       gradientUnits="userSpaceOnUse"
       gradientTransform="translate(-17.734105,-38.854274)" />
    <linearGradient
       x1="488.66998"
       y1="242.1234"
       x2="506.13382"
       y2="267.36993"
       id="linearGradient3629"
       xlink:href="#linearGradient3653"
       gradientUnits="userSpaceOnUse"
       gradientTransform="translate(-0.4020151,-1.2060454)" />
    <linearGradient
       x1="488.66998"
       y1="242.1234"
       x2="506.13382"
       y2="267.36993"
       id="linearGradient3685"
       xlink:href="#linearGradient3653"
       gradientUnits="userSpaceOnUse"
       gradientTransform="translate(-3.7189719,1.4489977)" />
    <linearGradient
       x1="488.66998"
       y1="242.1234"
       x2="506.13382"
       y2="267.36993"
       id="linearGradient3691"
       xlink:href="#linearGradient3653"
       gradientUnits="userSpaceOnUse"
       gradientTransform="translate(6.221019,-6.0695606)" />
    <linearGradient
       x1="488.66998"
       y1="242.1234"
       x2="506.13382"
       y2="267.36993"
       id="linearGradient3693"
       xlink:href="#linearGradient3653"
       gradientUnits="userSpaceOnUse"
       gradientTransform="translate(2.9040627,-3.4145175)" />
    <linearGradient
       x1="488.66998"
       y1="242.1234"
       x2="506.13382"
       y2="267.36993"
       id="linearGradient3703"
       xlink:href="#linearGradient3653"
       gradientUnits="userSpaceOnUse"
       gradientTransform="translate(21.965021,-15.537453)" />
    <linearGradient
       x1="488.66998"
       y1="242.1234"
       x2="506.13382"
       y2="267.36993"
       id="linearGradient3705"
       xlink:href="#linearGradient3653"
       gradientUnits="userSpaceOnUse"
       gradientTransform="translate(9.4821202,-8.2994382)" />
    <linearGradient
       x1="488.66998"
       y1="242.1234"
       x2="506.13382"
       y2="267.36993"
       id="linearGradient3707"
       xlink:href="#linearGradient3653"
       gradientUnits="userSpaceOnUse"
       gradientTransform="translate(28.588055,-20.400968)" />
    <linearGradient
       x1="488.66998"
       y1="242.1234"
       x2="506.13382"
       y2="267.36993"
       id="linearGradient3709"
       xlink:href="#linearGradient3653"
       gradientUnits="userSpaceOnUse"
       gradientTransform="translate(25.271099,-17.745925)" />
    <linearGradient
       x1="488.66998"
       y1="242.1234"
       x2="506.13382"
       y2="267.36993"
       id="linearGradient3713"
       xlink:href="#linearGradient3653"
       gradientUnits="userSpaceOnUse"
       gradientTransform="translate(31.658369,-22.832729)" />
    <linearGradient
       x1="216.78984"
       y1="509.34875"
       x2="193.76651"
       y2="475.13983"
       id="linearGradient3725"
       xlink:href="#linearGradient3329"
       gradientUnits="userSpaceOnUse"
       gradientTransform="translate(-17.949112,-32.519568)" />
    <linearGradient
       x1="181.40779"
       y1="461.45914"
       x2="177.15398"
       y2="456.86728"
       id="linearGradient3727"
       xlink:href="#linearGradient3435"
       gradientUnits="userSpaceOnUse"
       gradientTransform="translate(0.4225763,-0.3934964)" />
    <linearGradient
       x1="182.03036"
       y1="460.83655"
       x2="179.79398"
       y2="458.62411"
       id="linearGradient3729"
       xlink:href="#linearGradient3435"
       gradientUnits="userSpaceOnUse"
       gradientTransform="translate(12.370752,12.766152)" />
    <linearGradient
       x1="128.73495"
       y1="498.6123"
       x2="134.91838"
       y2="506.55054"
       id="linearGradient3731"
       xlink:href="#linearGradient3476"
       gradientUnits="userSpaceOnUse" />
    <linearGradient
       x1="183.4523"
       y1="490.69516"
       x2="176.66319"
       y2="478.0361"
       id="linearGradient3733"
       xlink:href="#linearGradient3492"
       gradientUnits="userSpaceOnUse" />
    <linearGradient
       x1="377.44025"
       y1="365.94815"
       x2="350.22778"
       y2="325.49258"
       id="linearGradient3760"
       xlink:href="#linearGradient3243"
       gradientUnits="userSpaceOnUse" />
    <filter
       id="filter3880"
       color-interpolation-filters="sRGB">
      <feGaussianBlur
         inkscape:collect="always"
         stdDeviation="5.6399396"
         id="feGaussianBlur3882" />
    </filter>
    <linearGradient
       inkscape:collect="always"
       xlink:href="#linearGradient3521"
       id="linearGradient3037"
       gradientUnits="userSpaceOnUse"
       x1="534.93317"
       y1="212.36952"
       x2="549.86621"
       y2="232.93332" />
    <linearGradient
       inkscape:collect="always"
       xlink:href="#linearGradient3243"
       id="linearGradient3039"
       gradientUnits="userSpaceOnUse"
       x1="377.44025"
       y1="365.94815"
       x2="350.22778"
       y2="325.49258" />
    <linearGradient
       inkscape:collect="always"
       xlink:href="#linearGradient3329"
       id="linearGradient3041"
       gradientUnits="userSpaceOnUse"
       gradientTransform="translate(-17.949112,-32.519568)"
       x1="216.78984"
       y1="509.34875"
       x2="193.76651"
       y2="475.13983" />
    <linearGradient
       inkscape:collect="always"
       xlink:href="#linearGradient3435"
       id="linearGradient3043"
       gradientUnits="userSpaceOnUse"
       gradientTransform="translate(0.4225763,-0.3934964)"
       x1="181.40779"
       y1="461.45914"
       x2="177.15398"
       y2="456.86728" />
    <linearGradient
       inkscape:collect="always"
       xlink:href="#linearGradient3435"
       id="linearGradient3045"
       gradientUnits="userSpaceOnUse"
       gradientTransform="translate(12.370752,12.766152)"
       x1="182.03036"
       y1="460.83655"
       x2="179.79398"
       y2="458.62411" />
    <linearGradient
       inkscape:collect="always"
       xlink:href="#linearGradient3476"
       id="linearGradient3047"
       gradientUnits="userSpaceOnUse"
       x1="128.73495"
       y1="498.6123"
       x2="134.91838"
       y2="506.55054" />
    <linearGradient
       inkscape:collect="always"
       xlink:href="#linearGradient3492"
       id="linearGradient3049"
       gradientUnits="userSpaceOnUse"
       x1="183.4523"
       y1="490.69516"
       x2="176.66319"
       y2="478.0361" />
    <linearGradient
       inkscape:collect="always"
       xlink:href="#linearGradient3578"
       id="linearGradient3051"
       gradientUnits="userSpaceOnUse"
       gradientTransform="translate(-17.734105,-38.854274)"
       x1="524.95233"
       y1="263.83887"
       x2="545.96747"
       y2="294.26364" />
    <linearGradient
       inkscape:collect="always"
       xlink:href="#linearGradient3592"
       id="linearGradient3053"
       gradientUnits="userSpaceOnUse"
       gradientTransform="translate(-17.73411,-38.85427)"
       x1="524.95233"
       y1="263.83887"
       x2="545.96747"
       y2="294.26364" />
    <linearGradient
       inkscape:collect="always"
       xlink:href="#linearGradient3653"
       id="linearGradient3055"
       gradientUnits="userSpaceOnUse"
       gradientTransform="translate(-0.4020151,-1.2060454)"
       x1="488.66998"
       y1="242.1234"
       x2="506.13382"
       y2="267.36993" />
    <linearGradient
       inkscape:collect="always"
       xlink:href="#linearGradient3653"
       id="linearGradient3057"
       gradientUnits="userSpaceOnUse"
       gradientTransform="translate(-3.7189719,1.4489977)"
       x1="488.66998"
       y1="242.1234"
       x2="506.13382"
       y2="267.36993" />
    <linearGradient
       inkscape:collect="always"
       xlink:href="#linearGradient3653"
       id="linearGradient3059"
       gradientUnits="userSpaceOnUse"
       gradientTransform="translate(6.221019,-6.0695606)"
       x1="488.66998"
       y1="242.1234"
       x2="506.13382"
       y2="267.36993" />
    <linearGradient
       inkscape:collect="always"
       xlink:href="#linearGradient3653"
       id="linearGradient3061"
       gradientUnits="userSpaceOnUse"
       gradientTransform="translate(2.9040627,-3.4145175)"
       x1="488.66998"
       y1="242.1234"
       x2="506.13382"
       y2="267.36993" />
    <linearGradient
       inkscape:collect="always"
       xlink:href="#linearGradient3653"
       id="linearGradient3063"
       gradientUnits="userSpaceOnUse"
       gradientTransform="translate(21.965021,-15.537453)"
       x1="488.66998"
       y1="242.1234"
       x2="506.13382"
       y2="267.36993" />
    <linearGradient
       inkscape:collect="always"
       xlink:href="#linearGradient3653"
       id="linearGradient3065"
       gradientUnits="userSpaceOnUse"
       gradientTransform="translate(9.4821202,-8.2994382)"
       x1="488.66998"
       y1="242.1234"
       x2="506.13382"
       y2="267.36993" />
    <linearGradient
       inkscape:collect="always"
       xlink:href="#linearGradient3653"
       id="linearGradient3067"
       gradientUnits="userSpaceOnUse"
       gradientTransform="translate(28.588055,-20.400968)"
       x1="488.66998"
       y1="242.1234"
       x2="506.13382"
       y2="267.36993" />
    <linearGradient
       inkscape:collect="always"
       xlink:href="#linearGradient3653"
       id="linearGradient3069"
       gradientUnits="userSpaceOnUse"
       gradientTransform="translate(25.271099,-17.745925)"
       x1="488.66998"
       y1="242.1234"
       x2="506.13382"
       y2="267.36993" />
    <linearGradient
       inkscape:collect="always"
       xlink:href="#linearGradient3653"
       id="linearGradient3071"
       gradientUnits="userSpaceOnUse"
       gradientTransform="translate(31.658369,-22.832729)"
       x1="488.66998"
       y1="242.1234"
       x2="506.13382"
       y2="267.36993" />
  </defs>
  <g
     transform="translate(-102.91292,-200.28425)"
     id="layer1"
     style="display:none">
    <image
       sodipodi:absref="/Users/secret/Documents/svgs for tuxpaint/pencil1.png"
       xlink:href="pencil1.png"
       id="image2466"
       height="372.61716"
       width="505.18286"
       y="174.3687"
       x="82.482803" />
  </g>
  <g
     id="g3002"
     transform="translate(0.88756566,1.9785141)">
    <g
       id="layer7"
       transform="translate(-103.80049,-202.26276)">
      <path
         style="opacity:0.27931034;fill:#000000;fill-opacity:1;fill-rule:evenodd;stroke:#000000;stroke-width:5.5999999;stroke-linecap:butt;stroke-linejoin:miter;stroke-miterlimit:4;stroke-opacity:1;stroke-dasharray:none;display:inline;filter:url(#filter3880)"
         id="path3870"
         d="m 541.71447,216.62238 c -0.28801,0.007 -0.56778,0.0525 -0.84375,0.0937 l -10.59375,5.65625 c -0.48718,0.0327 -0.9724,0.0726 -1.46875,0.15625 l -46.92415,29.44174 c -0.75935,0.34574 -1.30075,1.49838 -1.8571,2.05826 l -282.43749,191.0625 -1.5,1 -75.36864,76.77158 c -1.18192,1.53468 -3.0426,5.7605 1,6 l 93.99364,-49.42783 1.15625,-0.8125 5.1875,-3.71875 c 0.0136,-0.0312 0.0179,-0.0627 0.0312,-0.0937 l 0.75,-0.53125 c 0.007,-0.0216 0.0247,-0.0409 0.0312,-0.0625 l 114.85142,-76.929 162.43749,-111.79687 1.16096,-0.6071 46.73755,-34.45692 0.43757,-1.30386 6.71876,-5.53125 c 9.6887,-11.31633 -4.57174,-27.18955 -13.50001,-26.96875 z" />
      <path
         style="opacity:0.95999995;fill:#000000;fill-opacity:1;fill-rule:evenodd;stroke:#000000;stroke-width:5.5999999;stroke-linecap:butt;stroke-linejoin:miter;stroke-miterlimit:4;stroke-opacity:1;stroke-dasharray:none;display:inline"
         id="path3762"
         d="m 537.42724,209.00341 c -0.28801,0.007 -0.56778,0.0525 -0.84375,0.0937 l -10.59375,5.65625 c -0.48718,0.0327 -0.9724,0.0726 -1.46875,0.15625 l -46.92415,29.44174 c -0.75935,0.34574 -1.30075,1.49838 -1.8571,2.05826 l -282.4375,191.0625 -1.5,1 -51.8125,51.21875 c -0.11889,-0.0251 -0.21991,-0.0746 -0.34375,-0.0937 l -20.5,18.1875 c -1.18192,1.53468 -1.6864,6.4386 1,6 l 24.1875,-11.9375 40.6875,-18.40625 26.40625,-11.625 1.15625,-0.8125 5.1875,-3.71875 c 0.0136,-0.0312 0.0179,-0.0627 0.0312,-0.0937 l 0.75,-0.53125 c 0.007,-0.0216 0.0247,-0.0409 0.0312,-0.0625 l 114.85142,-76.929 162.4375,-111.79687 1.16096,-0.6071 46.73755,-34.45692 0.43757,-1.30386 6.71875,-5.53125 c 9.6887,-11.31633 -4.57173,-27.18955 -13.5,-26.96875 z" />
      <path
         style="opacity:0.95999995;fill:#000000;fill-opacity:1;fill-rule:evenodd;stroke:#000000;stroke-width:5.5999999;stroke-linecap:butt;stroke-linejoin:miter;stroke-miterlimit:4;stroke-opacity:1;stroke-dasharray:none;display:inline"
         id="path3868"
         d="m 536.32175,208.27397 c -0.28801,0.007 -0.56778,0.0525 -0.84375,0.0937 l -10.59375,5.65625 c -0.48718,0.0327 -0.9724,0.0726 -1.46875,0.15625 l -46.92415,29.44174 c -0.75935,0.34574 -1.30075,1.49838 -1.8571,2.05826 l -282.4375,191.0625 -1.5,1 -51.8125,51.21875 c -0.11889,-0.0251 -0.21991,-0.0746 -0.34375,-0.0937 l -20.5,18.1875 c -1.18192,1.53468 -1.6864,6.4386 1,6 l 24.1875,-11.9375 40.6875,-18.40625 26.40625,-11.625 1.15625,-0.8125 5.1875,-3.71875 c 0.0136,-0.0312 0.0179,-0.0627 0.0312,-0.0937 l 0.75,-0.53125 c 0.007,-0.0216 0.0247,-0.0409 0.0312,-0.0625 l 114.85142,-76.929 162.4375,-111.79687 1.16096,-0.6071 46.73755,-34.45692 0.43757,-1.30386 6.71875,-5.53125 c 9.6887,-11.31633 -4.57173,-27.18955 -13.5,-26.96875 z" />
    </g>
    <g
       style="display:inline"
       id="layer4"
       transform="translate(-103.80049,-202.26276)">
      <path
         style="fill:url(#linearGradient3037);fill-opacity:1;fill-rule:evenodd;stroke:#8e5252;stroke-width:1px;stroke-linecap:butt;stroke-linejoin:miter;stroke-opacity:1;filter:url(#filter3539)"
         id="path3519"
         d="m 524.3769,215.65149 12.13602,-6.48939 c 8.83103,-1.32109 24.32847,15.20327 14.32723,26.88464 l -9.18628,7.58501 -8.0064,-20.47953 -9.27057,-7.50073 z" />
    </g>
    <g
       id="g2974">
      <g
         transform="translate(-103.80049,-202.26276)"
         id="layer2"
         style="opacity:0.95999995;display:inline">
        <path
           d="m 484.4023,240.58909 -291.17369,196.95478 -15.96931,33.53555 40.98789,-4.25848 290.64138,-198.01941 4.25849,-30.34168 -28.74476,2.12924 z"
           id="path2471"
           style="fill:url(#linearGradient3039);fill-opacity:1;fill-rule:evenodd;stroke:none" />
        <path
           d="M 189.50244,460.96552 509.95319,243.25064"
           id="path3251"
           style="fill:none;stroke:#fcca7d;stroke-width:3.5999999;stroke-linecap:butt;stroke-linejoin:miter;stroke-miterlimit:4;stroke-opacity:1;stroke-dasharray:none;filter:url(#filter3315)" />
        <path
           d="M 215.47996,468.15183 495.92112,276.52142"
           id="path3277"
           style="opacity:0.95999995;fill:none;stroke:#b99359;stroke-width:2.79999995;stroke-linecap:butt;stroke-linejoin:miter;stroke-miterlimit:4;stroke-opacity:1;stroke-dasharray:none;filter:url(#filter3307)" />
      </g>
      <g
         transform="translate(-103.80049,-202.26276)"
         id="layer3"
         style="display:inline">
        <g
           id="g3509">
          <g
             transform="translate(-0.0281607,0.0384547)"
             id="g3427">
            <path
               d="m 196.43603,435.38668 -4.68316,3.12052 -58.29594,57.64367 4.64565,8.02431 73.27461,-32.3084 7.12336,-5.17124 c 1.63496,-5.21562 -2.0233,-10.93543 -6.27869,-10.87738 5.9185,-9.80425 -1.58375,-12.20394 -11.8253,-13.0923 1.13457,-2.89718 -1.23975,-4.99276 -3.96053,-7.33918 z"
               id="path3327"
               style="fill:url(#linearGradient3041);fill-opacity:1;fill-rule:evenodd;stroke:none" />
            <path
               d="m 213.06652,446.94918 -51.94684,39.48805 55.959,-25.97342 -6.75732,-5.06798 2.74516,-8.44665 z"
               id="path3337"
               style="opacity:0.14610392;fill:#ffffff;fill-opacity:1;fill-rule:evenodd;stroke:none;filter:url(#filter3423)" />
          </g>
          <path
             d="m 203.35313,441.4877 c -40.3383,31.42707 -52.01249,46.84344 -47.88007,48.39707 l -0.12016,-2.23545 c 7.78094,-18.75076 23.07231,-37.56372 43.98808,-49.54028 0.6656,2.02193 1.4899,3.83226 4.01215,3.37866 z"
             id="path3433"
             style="opacity:0.34415588;fill:url(#linearGradient3043);fill-opacity:1;fill-rule:evenodd;stroke:none;filter:url(#filter3453)" />
          <path
             d="m 215.30131,454.64735 c -12.89635,11.30735 -26.57267,23.12655 -26.68535,26.04461 l -17.71382,7.38961 40.38702,-36.81288 c 0.6656,2.02193 1.4899,3.83226 4.01215,3.37866 z"
             id="path3457"
             style="opacity:0.47402595;fill:url(#linearGradient3045);fill-opacity:1;fill-rule:evenodd;stroke:none;filter:url(#filter3453)" />
          <path
             d="m 139.56852,489.68599 -20.49507,18.18576 c -1.18191,1.5347 -1.67608,6.42836 1.01032,5.98976 l 25.33017,-12.48467 c 0.23879,-3.86083 -0.2813,-10.83104 -5.84542,-11.69085 z"
             id="path3474"
             style="fill:url(#linearGradient3047);fill-opacity:1;fill-rule:evenodd;stroke:none" />
          <path
             d="m 119.32701,513.21163 93.17883,-42.12762 5.18813,-3.73546 c 2.87365,-6.60045 -0.21424,-10.81629 -5.60318,-14.11171 l -92.76378,59.97479 z"
             id="path3490"
             style="fill:url(#linearGradient3049);fill-opacity:1;fill-rule:evenodd;stroke:none" />
        </g>
      </g>
      <g
         transform="translate(-103.80049,-202.26276)"
         id="layer5"
         style="display:inline">
        <path
           d="m 475.55103,246.62852 c 3.61458,-3.8405 12.18777,-3.51246 20.92,8.30646 8.80558,11.9182 1.96804,20.79743 -1.07677,22.45823 l 47.99294,-34.30263 c 6.42062,-10.59468 -4.8146,-30.27637 -19.3467,-27.82679 l -48.48947,31.36473 z"
           id="path3546"
           style="fill:url(#linearGradient3051);fill-opacity:1;fill-rule:evenodd;stroke:none;display:inline" />
        <path
           d="m 475.55103,246.62851 c 3.61458,-3.84049 12.18777,-3.51246 20.92,8.30647 8.80558,11.9182 1.96804,20.79743 -1.07677,22.45823 l 47.99294,-34.30264 c 6.42062,-10.59468 -4.41251,-30.54443 -18.94461,-28.09485 l -48.89156,31.63279 z"
           id="path3574"
           style="fill:url(#linearGradient3053);fill-opacity:1;fill-rule:evenodd;stroke:#824a14;stroke-width:1px;stroke-linecap:butt;stroke-linejoin:miter;stroke-opacity:1;display:inline" />
      </g>
      <g
         transform="translate(-103.80049,-202.26276)"
         id="layer6"
         style="display:inline">
        <path
           d="m 485.47346,240.61324 c 3.1812,-2.055 8.86948,-0.0457 11.09562,1.04524 2.22614,1.09097 4.86107,3.70438 6.19103,5.22619 1.32996,1.52181 5.13761,7.53048 5.94982,9.24635 1.41635,4.68465 0.97415,9.02636 -2.25128,12.86449 0,0 -0.0551,-3.66636 0.40201,-5.1458 0.57504,-1.86118 0.87832,-4.14959 0.80404,-6.43225 -0.0781,-2.40115 -3.86249,-8.35507 -5.2262,-9.96997 -1.36371,-1.6149 -5.14497,-4.26829 -7.7991,-5.06538 -2.65413,-0.79709 -5.70862,-0.64323 -5.70862,-0.64323 l -3.45732,-1.12564 z"
           id="path3621"
           style="fill:url(#linearGradient3055);fill-opacity:1;fill-rule:evenodd;stroke:none" />
        <path
           d="m 482.1565,243.26829 c 3.1812,-2.055 8.86948,-0.0457 11.09562,1.04524 2.22614,1.09097 4.86107,3.70438 6.19103,5.22619 1.32996,1.52181 5.13761,7.53048 5.94982,9.24635 1.41635,4.68465 0.97415,9.02636 -2.25128,12.86449 0,0 -0.0551,-3.66636 0.40201,-5.1458 0.57504,-1.86118 0.87832,-4.14959 0.80404,-6.43225 -0.0781,-2.40115 -3.86249,-8.35507 -5.2262,-9.96997 -1.36371,-1.6149 -5.14497,-4.26829 -7.7991,-5.06538 -2.65413,-0.79709 -5.70862,-0.64323 -5.70862,-0.64323 l -3.45732,-1.12564 z"
           id="path3683"
           style="fill:url(#linearGradient3057);fill-opacity:1;fill-rule:evenodd;stroke:none;display:inline" />
        <path
           d="m 492.09649,235.74973 c 3.1812,-2.055 8.86948,-0.0457 11.09562,1.04524 2.22614,1.09097 4.86107,3.70438 6.19103,5.22619 1.32996,1.52181 5.13761,7.53048 5.94982,9.24635 1.41635,4.68465 0.97415,9.02636 -2.25128,12.86449 0,0 -0.0551,-3.66636 0.40201,-5.1458 0.57504,-1.86118 0.87832,-4.14959 0.80404,-6.43225 -0.0781,-2.40115 -3.86249,-8.35507 -5.2262,-9.96997 -1.36371,-1.6149 -5.14497,-4.26829 -7.7991,-5.06538 -2.65413,-0.79709 -5.70862,-0.64323 -5.70862,-0.64323 l -3.45732,-1.12564 z"
           id="path3687"
           style="fill:url(#linearGradient3059);fill-opacity:1;fill-rule:evenodd;stroke:none;display:inline" />
        <path
           d="m 488.77953,238.40478 c 3.1812,-2.055 8.86948,-0.0457 11.09562,1.04524 2.22614,1.09097 4.86107,3.70438 6.19103,5.22619 1.32996,1.52181 5.13761,7.53048 5.94982,9.24635 1.41635,4.68465 0.97415,9.02636 -2.25128,12.86449 0,0 -0.0551,-3.66636 0.40201,-5.1458 0.57504,-1.86118 0.87832,-4.14959 0.80404,-6.43225 -0.0781,-2.40115 -3.86249,-8.35507 -5.2262,-9.96997 -1.36371,-1.6149 -5.14497,-4.26829 -7.7991,-5.06538 -2.65413,-0.79709 -5.70862,-0.64323 -5.70862,-0.64323 l -3.45732,-1.12564 z"
           id="path3689"
           style="fill:url(#linearGradient3061);fill-opacity:1;fill-rule:evenodd;stroke:none;display:inline" />
        <path
           d="m 507.84049,226.28184 c 3.1812,-2.055 8.86948,-0.0457 11.09562,1.04524 2.22614,1.09097 4.86107,3.70438 6.19103,5.22619 1.32996,1.52181 5.13761,7.53048 5.94982,9.24635 1.41635,4.68465 0.97415,9.02636 -2.25128,12.86449 0,0 -0.0551,-3.66636 0.40201,-5.1458 0.57504,-1.86118 0.87832,-4.14959 0.80404,-6.43225 -0.0781,-2.40115 -3.86249,-8.35507 -5.2262,-9.96997 -1.36371,-1.6149 -5.14497,-4.26829 -7.7991,-5.06538 -2.65413,-0.79709 -5.70862,-0.64323 -5.70862,-0.64323 l -3.45732,-1.12564 z"
           id="path3695"
           style="fill:url(#linearGradient3063);fill-opacity:1;fill-rule:evenodd;stroke:none;display:inline" />
        <path
           d="m 495.35759,233.51986 c 3.1812,-2.055 8.86948,-0.0457 11.09562,1.04524 2.22614,1.09097 4.86107,3.70438 6.19103,5.22619 1.32996,1.52181 5.13761,7.53048 5.94982,9.24635 1.41635,4.68465 0.97415,9.02636 -2.25128,12.86449 0,0 -0.0551,-3.66636 0.40201,-5.1458 0.57504,-1.86118 0.87832,-4.14959 0.80404,-6.43225 -0.0781,-2.40115 -3.86249,-8.35507 -5.2262,-9.96997 -1.36371,-1.6149 -5.14497,-4.26829 -7.7991,-5.06538 -2.65413,-0.79709 -5.70862,-0.64323 -5.70862,-0.64323 l -3.45732,-1.12564 z"
           id="path3697"
           style="fill:url(#linearGradient3065);fill-opacity:1;fill-rule:evenodd;stroke:none;display:inline" />
        <path
           d="m 514.46352,221.41833 c 3.1812,-2.055 8.86948,-0.0457 11.09562,1.04524 2.22614,1.09097 4.86107,3.70438 6.19103,5.22619 1.32996,1.52181 5.13761,7.53048 5.94982,9.24635 1.41635,4.68465 0.97415,9.02636 -2.25128,12.86449 0,0 -0.0551,-3.66636 0.40201,-5.1458 0.57504,-1.86118 0.87832,-4.14959 0.80404,-6.43225 -0.0781,-2.40115 -3.86249,-8.35507 -5.2262,-9.96997 -1.36371,-1.6149 -5.14497,-4.26829 -7.7991,-5.06538 -2.65413,-0.79709 -5.70862,-0.64323 -5.70862,-0.64323 l -3.45732,-1.12564 z"
           id="path3699"
           style="fill:url(#linearGradient3067);fill-opacity:1;fill-rule:evenodd;stroke:none;display:inline" />
        <path
           d="m 511.14656,224.07338 c 3.1812,-2.055 8.86948,-0.0457 11.09562,1.04524 2.22614,1.09097 4.86107,3.70438 6.19103,5.22619 1.32996,1.52181 5.13761,7.53048 5.94982,9.24635 1.41635,4.68465 0.97415,9.02636 -2.25128,12.86449 0,0 -0.0551,-3.66636 0.40201,-5.1458 0.57504,-1.86118 0.87832,-4.14959 0.80404,-6.43225 -0.0781,-2.40115 -3.86249,-8.35507 -5.2262,-9.96997 -1.36371,-1.6149 -5.14497,-4.26829 -7.7991,-5.06538 -2.65413,-0.79709 -5.70862,-0.64323 -5.70862,-0.64323 l -3.45732,-1.12564 z"
           id="path3701"
           style="fill:url(#linearGradient3069);fill-opacity:1;fill-rule:evenodd;stroke:none;display:inline" />
        <path
           d="m 517.53383,218.98657 c 3.1812,-2.055 8.86948,-0.0457 11.09562,1.04524 2.22614,1.09097 4.86107,3.70438 6.19103,5.22619 1.32996,1.52181 5.13761,7.53048 5.94982,9.24635 1.41635,4.68465 0.97415,9.02636 -2.25128,12.86449 0,0 -0.0551,-3.66636 0.40201,-5.1458 0.57504,-1.86118 0.87832,-4.14959 0.80404,-6.43225 -0.0781,-2.40115 -3.86249,-8.35507 -5.2262,-9.96997 -1.36371,-1.6149 -5.14497,-4.26829 -7.7991,-5.06538 -2.65413,-0.79709 -5.70862,-0.64323 -5.70862,-0.64323 l -3.45732,-1.12564 z"
           id="path3711"
           style="fill:url(#linearGradient3071);fill-opacity:1;fill-rule:evenodd;stroke:none;display:inline" />
      </g>
    </g>
  </g>
</svg>
