#define valid_xbm_test_width 20
#define valid_xbm_test_height 20
#define valid_xbm_test_x_hot 10
#define valid_xbm_test_y_hot 10
static unsigned char valid_xbm_test_bits[] = {
   0x00, 0x00, 0x00, 0xea, 0xfb, 0x03, 0x2a, 0x2a, 0x02, 0xfa, 0xae, 0x03,
   0x82, 0x20, 0x00, 0xba, 0xbb, 0x03, 0x2a, 0x8a, 0x02, 0xae, 0xfb, 0x02,
   0xa0, 0x00, 0x02, 0xbe, 0xfa, 0x03, 0x82, 0x0a, 0x00, 0xfa, 0xfb, 0x03,
   0x02, 0x08, 0x02, 0xee, 0xab, 0x03, 0x28, 0xaa, 0x02, 0xba, 0xbb, 0x02,
   0x82, 0x80, 0x02, 0xfe, 0xff, 0x02, 0x00, 0x00, 0x00, 0x00, 0x00, 0x00 };
