<?xml version="1.0" encoding="UTF-8" standalone="no"?>
<!-- Created with Inkscape (http://www.inkscape.org/) -->
<svg
   xmlns:dc="http://purl.org/dc/elements/1.1/"
   xmlns:cc="http://creativecommons.org/ns#"
   xmlns:rdf="http://www.w3.org/1999/02/22-rdf-syntax-ns#"
   xmlns:svg="http://www.w3.org/2000/svg"
   xmlns="http://www.w3.org/2000/svg"
   xmlns:xlink="http://www.w3.org/1999/xlink"
   xmlns:sodipodi="http://sodipodi.sourceforge.net/DTD/sodipodi-0.dtd"
   xmlns:inkscape="http://www.inkscape.org/namespaces/inkscape"
   width="242.93204"
   height="825.3468"
   id="svg2"
   sodipodi:version="0.32"
   inkscape:version="0.46"
   sodipodi:docbase="/home/tomas"
   sodipodi:docname="tomas_arad_bottles.svg"
   inkscape:output_extension="org.inkscape.output.svg.inkscape"
   sodipodi:modified="true"
   version="1.0">
  <defs
     id="defs4">
    <linearGradient
       inkscape:collect="always"
       id="linearGradient3266">
      <stop
         style="stop-color: rgb(204, 204, 204); stop-opacity: 0.554502;"
         offset="0"
         id="stop3268" />
      <stop
         style="stop-color: rgb(204, 204, 204); stop-opacity: 0;"
         offset="1"
         id="stop3270" />
    </linearGradient>
    <linearGradient
       id="linearGradient3237">
      <stop
         style="stop-color: rgb(230, 230, 230); stop-opacity: 1;"
         offset="0"
         id="stop3239" />
      <stop
         style="stop-color: rgb(255, 253, 248); stop-opacity: 1;"
         offset="1"
         id="stop3241" />
    </linearGradient>
    <linearGradient
       id="linearGradient3201">
      <stop
         style="stop-color: rgb(97, 97, 97); stop-opacity: 1;"
         offset="0"
         id="stop3203" />
      <stop
         style="stop-color: black; stop-opacity: 1;"
         offset="1"
         id="stop3205" />
    </linearGradient>
    <linearGradient
       inkscape:collect="always"
       id="linearGradient3145">
      <stop
         style="stop-color: white; stop-opacity: 1;"
         offset="0"
         id="stop3147" />
      <stop
         style="stop-color: white; stop-opacity: 0;"
         offset="1"
         id="stop3149" />
    </linearGradient>
    <linearGradient
       id="linearGradient3127">
      <stop
         style="stop-color: rgb(211, 221, 221); stop-opacity: 1;"
         offset="0"
         id="stop3129" />
      <stop
         style="stop-color: rgb(237, 221, 237); stop-opacity: 0;"
         offset="1"
         id="stop3131" />
    </linearGradient>
    <linearGradient
       inkscape:collect="always"
       xlink:href="#linearGradient3237"
       id="linearGradient3462"
       gradientUnits="userSpaceOnUse"
       gradientTransform="translate(32.072,-20.045)"
       x1="455.03323"
       y1="648.63007"
       x2="455.0332"
       y2="199.28616" />
    <radialGradient
       inkscape:collect="always"
       xlink:href="#linearGradient3201"
       id="radialGradient3464"
       gradientUnits="userSpaceOnUse"
       gradientTransform="matrix(-0.373717,-0.374084,0.480016,-0.479544,645.398,301.932)"
       spreadMethod="reflect"
       cx="443.04492"
       cy="84.005463"
       fx="443.04492"
       fy="84.005463"
       r="52.417953" />
    <linearGradient
       inkscape:collect="always"
       xlink:href="#linearGradient3127"
       id="linearGradient3466"
       gradientUnits="userSpaceOnUse"
       gradientTransform="translate(32.072,-20.045)"
       x1="408.42896"
       y1="148.38396"
       x2="503.15628"
       y2="158.79811" />
    <linearGradient
       inkscape:collect="always"
       xlink:href="#linearGradient3127"
       id="linearGradient3468"
       gradientUnits="userSpaceOnUse"
       gradientTransform="matrix(1,2.18939e-2,0,1,33.9479,-42.3653)"
       x1="408.42896"
       y1="148.38396"
       x2="503.15628"
       y2="158.79811" />
    <linearGradient
       inkscape:collect="always"
       xlink:href="#linearGradient3127"
       id="linearGradient3470"
       gradientUnits="userSpaceOnUse"
       gradientTransform="matrix(1,2.18939e-2,0,1,33.2536,-54.168)"
       x1="408.42896"
       y1="148.38396"
       x2="503.15628"
       y2="158.79811" />
    <linearGradient
       inkscape:collect="always"
       xlink:href="#linearGradient3145"
       id="linearGradient3472"
       gradientUnits="userSpaceOnUse"
       gradientTransform="matrix(0.17857,0,0,0.400002,393.347,82.4287)"
       x1="327.34286"
       y1="129.3214"
       x2="348.88254"
       y2="129.3214" />
    <linearGradient
       inkscape:collect="always"
       xlink:href="#linearGradient3145"
       id="linearGradient3474"
       gradientUnits="userSpaceOnUse"
       gradientTransform="matrix(0.17857,0,0,0.400002,399.711,81.0401)"
       x1="327.34286"
       y1="129.3214"
       x2="348.88254"
       y2="129.3214" />
    <linearGradient
       inkscape:collect="always"
       xlink:href="#linearGradient3145"
       id="linearGradient3476"
       gradientUnits="userSpaceOnUse"
       gradientTransform="matrix(0.17857,0,0,0.400002,405.768,79.9865)"
       x1="327.34286"
       y1="129.3214"
       x2="348.88254"
       y2="129.3214" />
    <linearGradient
       inkscape:collect="always"
       xlink:href="#linearGradient3145"
       id="linearGradient3478"
       gradientUnits="userSpaceOnUse"
       gradientTransform="matrix(0.17857,0,0,0.400002,412.44,80.3459)"
       x1="327.34286"
       y1="129.3214"
       x2="348.88254"
       y2="129.3214" />
    <linearGradient
       inkscape:collect="always"
       xlink:href="#linearGradient3145"
       id="linearGradient3480"
       gradientUnits="userSpaceOnUse"
       gradientTransform="matrix(0.17857,0,0,0.400002,382.173,71.0229)"
       x1="327.34286"
       y1="129.3214"
       x2="348.88254"
       y2="129.3214" />
    <linearGradient
       inkscape:collect="always"
       xlink:href="#linearGradient3145"
       id="linearGradient3482"
       gradientUnits="userSpaceOnUse"
       gradientTransform="matrix(0.17857,0,0,0.400002,389.533,69.2873)"
       x1="327.34286"
       y1="129.3214"
       x2="348.88254"
       y2="129.3214" />
    <linearGradient
       inkscape:collect="always"
       xlink:href="#linearGradient3145"
       id="linearGradient3484"
       gradientUnits="userSpaceOnUse"
       gradientTransform="matrix(0.17857,0,0,0.400002,396.892,67.8987)"
       x1="327.34286"
       y1="129.3214"
       x2="348.88254"
       y2="129.3214" />
    <linearGradient
       inkscape:collect="always"
       xlink:href="#linearGradient3145"
       id="linearGradient3486"
       gradientUnits="userSpaceOnUse"
       gradientTransform="matrix(0.17857,0,0,0.400002,404.251,67.2044)"
       x1="327.34286"
       y1="129.3214"
       x2="348.88254"
       y2="129.3214" />
    <linearGradient
       inkscape:collect="always"
       xlink:href="#linearGradient3145"
       id="linearGradient3488"
       gradientUnits="userSpaceOnUse"
       gradientTransform="matrix(0.17857,0,0,0.400002,411.611,66.8573)"
       x1="327.34286"
       y1="129.3214"
       x2="348.88254"
       y2="129.3214" />
    <linearGradient
       inkscape:collect="always"
       xlink:href="#linearGradient3145"
       id="linearGradient3490"
       gradientUnits="userSpaceOnUse"
       gradientTransform="matrix(0.17857,0,0,0.400002,418.97,66.5101)"
       x1="327.34286"
       y1="129.3214"
       x2="348.88254"
       y2="129.3214" />
    <linearGradient
       inkscape:collect="always"
       xlink:href="#linearGradient3237"
       id="linearGradient3492"
       gradientUnits="userSpaceOnUse"
       gradientTransform="translate(-447.003,-32.072)"
       spreadMethod="reflect"
       x1="1022.5411"
       y1="614.3996"
       x2="933.36542"
       y2="614.3996" />
    <linearGradient
       inkscape:collect="always"
       xlink:href="#linearGradient3266"
       id="linearGradient3494"
       gradientUnits="userSpaceOnUse"
       gradientTransform="translate(32.072,-20.045)"
       x1="358.65466"
       y1="318.12643"
       x2="431.72992"
       y2="163.15881" />
    <linearGradient
       inkscape:collect="always"
       xlink:href="#linearGradient3266"
       id="linearGradient3496"
       gradientUnits="userSpaceOnUse"
       gradientTransform="matrix(-1,0,0,1,942.587,-24.8761)"
       x1="468.31088"
       y1="190.76137"
       x2="404.06097"
       y2="290.5239" />
    <linearGradient
       inkscape:collect="always"
       xlink:href="#linearGradient3145"
       id="linearGradient3498"
       gradientUnits="userSpaceOnUse"
       gradientTransform="matrix(1,0,-6.34712e-2,1,-423.449,-22.0495)"
       x1="910.65863"
       y1="303.5163"
       x2="909.31104"
       y2="379.42099" />
    <linearGradient
       inkscape:collect="always"
       xlink:href="#linearGradient3237"
       id="linearGradient4321"
       gradientUnits="userSpaceOnUse"
       gradientTransform="translate(32.072,-20.045)"
       x1="455.03323"
       y1="648.63007"
       x2="455.0332"
       y2="199.28616" />
    <radialGradient
       inkscape:collect="always"
       xlink:href="#linearGradient3201"
       id="radialGradient4323"
       gradientUnits="userSpaceOnUse"
       gradientTransform="matrix(-0.373717,-0.374084,0.480016,-0.479544,645.398,301.932)"
       spreadMethod="reflect"
       cx="443.04492"
       cy="84.005463"
       fx="443.04492"
       fy="84.005463"
       r="52.417953" />
    <linearGradient
       inkscape:collect="always"
       xlink:href="#linearGradient3127"
       id="linearGradient4325"
       gradientUnits="userSpaceOnUse"
       gradientTransform="translate(32.072,-20.045)"
       x1="408.42896"
       y1="148.38396"
       x2="503.15628"
       y2="158.79811" />
    <linearGradient
       inkscape:collect="always"
       xlink:href="#linearGradient3127"
       id="linearGradient4327"
       gradientUnits="userSpaceOnUse"
       gradientTransform="matrix(1,2.18939e-2,0,1,33.9479,-42.3653)"
       x1="408.42896"
       y1="148.38396"
       x2="503.15628"
       y2="158.79811" />
    <linearGradient
       inkscape:collect="always"
       xlink:href="#linearGradient3127"
       id="linearGradient4329"
       gradientUnits="userSpaceOnUse"
       gradientTransform="matrix(1,2.18939e-2,0,1,33.2536,-54.168)"
       x1="408.42896"
       y1="148.38396"
       x2="503.15628"
       y2="158.79811" />
    <linearGradient
       inkscape:collect="always"
       xlink:href="#linearGradient3145"
       id="linearGradient4331"
       gradientUnits="userSpaceOnUse"
       gradientTransform="matrix(0.17857,0,0,0.400002,393.347,82.4287)"
       x1="327.34286"
       y1="129.3214"
       x2="348.88254"
       y2="129.3214" />
    <linearGradient
       inkscape:collect="always"
       xlink:href="#linearGradient3145"
       id="linearGradient4333"
       gradientUnits="userSpaceOnUse"
       gradientTransform="matrix(0.17857,0,0,0.400002,399.711,81.0401)"
       x1="327.34286"
       y1="129.3214"
       x2="348.88254"
       y2="129.3214" />
    <linearGradient
       inkscape:collect="always"
       xlink:href="#linearGradient3145"
       id="linearGradient4335"
       gradientUnits="userSpaceOnUse"
       gradientTransform="matrix(0.17857,0,0,0.400002,405.768,79.9865)"
       x1="327.34286"
       y1="129.3214"
       x2="348.88254"
       y2="129.3214" />
    <linearGradient
       inkscape:collect="always"
       xlink:href="#linearGradient3145"
       id="linearGradient4337"
       gradientUnits="userSpaceOnUse"
       gradientTransform="matrix(0.17857,0,0,0.400002,412.44,80.3459)"
       x1="327.34286"
       y1="129.3214"
       x2="348.88254"
       y2="129.3214" />
    <linearGradient
       inkscape:collect="always"
       xlink:href="#linearGradient3145"
       id="linearGradient4339"
       gradientUnits="userSpaceOnUse"
       gradientTransform="matrix(0.17857,0,0,0.400002,382.173,71.0229)"
       x1="327.34286"
       y1="129.3214"
       x2="348.88254"
       y2="129.3214" />
    <linearGradient
       inkscape:collect="always"
       xlink:href="#linearGradient3145"
       id="linearGradient4341"
       gradientUnits="userSpaceOnUse"
       gradientTransform="matrix(0.17857,0,0,0.400002,389.533,69.2873)"
       x1="327.34286"
       y1="129.3214"
       x2="348.88254"
       y2="129.3214" />
    <linearGradient
       inkscape:collect="always"
       xlink:href="#linearGradient3145"
       id="linearGradient4343"
       gradientUnits="userSpaceOnUse"
       gradientTransform="matrix(0.17857,0,0,0.400002,396.892,67.8987)"
       x1="327.34286"
       y1="129.3214"
       x2="348.88254"
       y2="129.3214" />
    <linearGradient
       inkscape:collect="always"
       xlink:href="#linearGradient3145"
       id="linearGradient4345"
       gradientUnits="userSpaceOnUse"
       gradientTransform="matrix(0.17857,0,0,0.400002,404.251,67.2044)"
       x1="327.34286"
       y1="129.3214"
       x2="348.88254"
       y2="129.3214" />
    <linearGradient
       inkscape:collect="always"
       xlink:href="#linearGradient3145"
       id="linearGradient4347"
       gradientUnits="userSpaceOnUse"
       gradientTransform="matrix(0.17857,0,0,0.400002,411.611,66.8573)"
       x1="327.34286"
       y1="129.3214"
       x2="348.88254"
       y2="129.3214" />
    <linearGradient
       inkscape:collect="always"
       xlink:href="#linearGradient3145"
       id="linearGradient4349"
       gradientUnits="userSpaceOnUse"
       gradientTransform="matrix(0.17857,0,0,0.400002,418.97,66.5101)"
       x1="327.34286"
       y1="129.3214"
       x2="348.88254"
       y2="129.3214" />
    <linearGradient
       inkscape:collect="always"
       xlink:href="#linearGradient3237"
       id="linearGradient4351"
       gradientUnits="userSpaceOnUse"
       gradientTransform="translate(-447.003,-32.072)"
       spreadMethod="reflect"
       x1="1022.5411"
       y1="614.3996"
       x2="933.36542"
       y2="614.3996" />
    <linearGradient
       inkscape:collect="always"
       xlink:href="#linearGradient3266"
       id="linearGradient4353"
       gradientUnits="userSpaceOnUse"
       gradientTransform="translate(32.072,-20.045)"
       x1="358.65466"
       y1="318.12643"
       x2="431.72992"
       y2="163.15881" />
    <linearGradient
       inkscape:collect="always"
       xlink:href="#linearGradient3266"
       id="linearGradient4355"
       gradientUnits="userSpaceOnUse"
       gradientTransform="matrix(-1,0,0,1,942.587,-24.8761)"
       x1="468.31088"
       y1="190.76137"
       x2="404.06097"
       y2="290.5239" />
    <linearGradient
       inkscape:collect="always"
       xlink:href="#linearGradient3145"
       id="linearGradient4357"
       gradientUnits="userSpaceOnUse"
       gradientTransform="matrix(1,0,-6.34712e-2,1,-423.449,-22.0495)"
       x1="910.65863"
       y1="303.5163"
       x2="909.31104"
       y2="379.42099" />
  </defs>
  <sodipodi:namedview
     id="base"
     pagecolor="#ffffff"
     bordercolor="#666666"
     borderopacity="1.0"
     gridtolerance="10000"
     guidetolerance="10"
     objecttolerance="10"
     inkscape:pageopacity="0.0"
     inkscape:pageshadow="2"
     inkscape:zoom="0.49887768"
     inkscape:cx="226.2534"
     inkscape:cy="526.18109"
     inkscape:document-units="px"
     inkscape:current-layer="layer1"
     inkscape:window-width="1019"
     inkscape:window-height="731"
     inkscape:window-x="10"
     inkscape:window-y="34"
     showgrid="false" />
  <metadata
     id="metadata7">
    <rdf:RDF>
      <cc:Work
         rdf:about="">
        <dc:format>image/svg+xml</dc:format>
        <dc:type
           rdf:resource="http://purl.org/dc/dcmitype/StillImage" />
        <dc:title>buttle</dc:title>
        <cc:license
           rdf:resource="http://creativecommons.org/licenses/publicdomain/" />
      </cc:Work>
      <cc:License
         rdf:about="http://creativecommons.org/licenses/publicdomain/">
        <cc:permits
           rdf:resource="http://creativecommons.org/ns#Reproduction" />
        <cc:permits
           rdf:resource="http://creativecommons.org/ns#Distribution" />
        <cc:permits
           rdf:resource="http://creativecommons.org/ns#DerivativeWorks" />
      </cc:License>
    </rdf:RDF>
  </metadata>
  <g
     inkscape:label="Layer 1"
     inkscape:groupmode="layer"
     id="layer1"
     transform="translate(-365.63921,-77.8016)">
    <g
       id="g4290">
      <path
         sodipodi:nodetypes="cszccccczscccc"
         id="path3404"
         d="M 426.65554,277.83487 C 416.27417,318.65707 378.05481,345.6506 372.2276,388.96534 C 364.34169,447.58276 369.16725,501.64478 374.21638,564.82439 C 379.33495,628.87283 391.50637,709.07937 371.73924,779.19248 C 365.18012,813.1303 362.65298,857.91021 394.60198,880.13342 C 429.50725,902.57473 473.54772,902.12187 513.56333,900.45392 C 542.9318,897.40101 576.27803,889.59744 594.98943,865.14834 C 616.01373,823.32448 600.04793,776.34576 591.37453,733.68121 C 587.98783,670.46642 599.20153,606.91387 601.40683,544.63277 C 603.61213,482.35167 614.08343,419.05893 596.83793,359.83954 C 586.95543,325.9036 551.34814,301.54227 547.34227,266.29929 C 546.34849,251.46372 544.88167,238.01739 543.01297,225.91489 C 506.71997,222.22252 470.79589,221.11254 435.69012,225.73084 C 430.34203,243.88017 429.5658,253.89681 426.65554,277.83487 z"
         style="opacity:1;fill:#797979;fill-opacity:1;fill-rule:evenodd;stroke:none;stroke-width:4;stroke-linecap:round;stroke-linejoin:miter;stroke-miterlimit:4;stroke-dasharray:none;stroke-opacity:1" />
      <path
         style="opacity:0.47846901;fill:url(#linearGradient4321);fill-opacity:1;fill-rule:evenodd;stroke:#464746;stroke-width:4;stroke-linecap:round;stroke-linejoin:miter;stroke-miterlimit:4;stroke-dasharray:none;stroke-opacity:1"
         d="M 442.90231,147.78348 C 435.34701,181.52635 430.63214,233.47196 426.65554,277.83487 C 416.27417,318.65707 378.05481,345.6506 372.2276,388.96534 C 364.34169,447.58276 369.16725,501.64478 374.21638,564.82439 C 379.33495,628.87283 391.50637,709.07937 371.73924,779.19248 C 365.18012,813.1303 362.65298,857.91021 394.60198,880.13342 C 429.50725,902.57473 473.54772,902.12187 513.56333,900.45392 C 542.9318,897.40101 576.27803,889.59744 594.98943,865.14834 C 616.01373,823.32448 600.04793,776.34576 591.37453,733.68121 C 587.98783,670.46642 599.20153,606.91387 601.40683,544.63277 C 603.61213,482.35167 614.08343,419.05893 596.83793,359.83954 C 586.95543,325.9036 551.34814,301.54227 547.34227,266.29929 C 543.3364,227.04731 538.88433,191.41843 530.68376,151.52039 C 528.87753,146.70012 536.45219,145.08925 533.81433,143.73408 C 511.21296,132.12289 466.49551,133.28527 441.04872,144.36248 C 439.24599,144.87389 440.26166,147.44976 442.90231,147.78348 z"
         id="path3406"
         sodipodi:nodetypes="ccszccccczsccccc" />
      <path
         style="opacity:1;fill:#7e7e7e;fill-opacity:1;fill-rule:evenodd;stroke:none;stroke-width:4;stroke-linecap:round;stroke-linejoin:miter;stroke-miterlimit:4;stroke-dasharray:none;stroke-opacity:1"
         d="M 406.61056,350.82368 C 361.16233,459.98526 398.29433,576.83326 404.09833,697.19223 C 407.04726,758.34478 371.97416,819.29341 406.71331,850.93162 C 441.45246,882.56982 524.0241,877.04181 570.11113,856.59338 C 618.65253,804.48651 569.34503,783.52181 574.15333,685.08729 C 579.32833,581.11239 595.23433,489.28435 585.58043,389.05301 C 574.65243,275.59487 445.36024,257.7513 406.61056,350.82368 z"
         id="path3440"
         sodipodi:nodetypes="cszcsss" />
      <path
         sodipodi:type="arc"
         style="opacity:1;fill:#e0e1dc;fill-opacity:1;stroke:none;stroke-width:2.0999999;stroke-linecap:round;stroke-miterlimit:4;stroke-dasharray:none;stroke-opacity:1"
         id="path3408"
         sodipodi:cx="441.38638"
         sodipodi:cy="189.89702"
         sodipodi:rx="51.550041"
         sodipodi:ry="13.711964"
         d="M 492.93642,189.89702 A 51.550041,13.711964 0 1 1 389.83634,189.89702 A 51.550041,13.711964 0 1 1 492.93642,189.89702 z"
         transform="matrix(0.895623,0,0,0.873418,91.8546,-21.6956)" />
      <path
         transform="matrix(0.76431,0,0,0.772152,151.376,-5.58979)"
         d="M 492.93642,189.89702 A 51.550041,13.711964 0 1 1 389.83634,189.89702 A 51.550041,13.711964 0 1 1 492.93642,189.89702 z"
         sodipodi:ry="13.711964"
         sodipodi:rx="51.550041"
         sodipodi:cy="189.89702"
         sodipodi:cx="441.38638"
         id="path3410"
         style="opacity:1;fill:#c2bab9;fill-opacity:1;stroke:none;stroke-width:2.0999999;stroke-linecap:round;stroke-miterlimit:4;stroke-dasharray:none;stroke-opacity:1"
         sodipodi:type="arc" />
      <path
         style="opacity:1;fill:url(#radialGradient4323);fill-opacity:1;fill-rule:evenodd;stroke:none;stroke-width:1px;stroke-linecap:butt;stroke-linejoin:miter;stroke-opacity:1"
         d="M 440.65379,144.33736 C 439.49666,143.18023 438.33954,142.02311 437.18241,140.86598 C 437.0667,137.97316 436.95098,135.08034 436.83527,132.18752 C 436.14099,131.49324 435.44672,130.79897 434.75244,130.10469 C 435.90957,127.32758 437.0667,124.55048 438.22383,121.77337 C 439.26524,120.96338 440.30666,120.1534 441.34807,119.34341 C 441.34807,119.34341 437.87669,116.91344 437.52955,114.83061 C 437.18241,112.74778 436.83527,111.01209 438.22383,109.62353 C 439.61238,108.23498 440.65379,107.88784 440.65379,107.88784 C 440.65379,107.88784 437.52955,103.0279 437.87669,100.2508 C 438.22383,97.47369 442.04235,93.65517 442.04235,93.65517 C 442.15806,92.1509 442.27378,90.64664 442.38949,89.14237 C 442.38949,89.14237 444.15423,87.77842 446.20801,85.32385 C 447.95075,83.24102 469.36796,78.72822 474.67335,78.03394 C 478.86077,77.48596 492.72454,78.03394 498.62589,78.38108 C 504.52725,78.72822 521.88416,81.85247 525.00841,82.54674 C 528.13265,83.24102 531.2569,87.40668 531.2569,87.40668 C 531.37261,88.79523 531.48833,90.18379 531.60404,91.57234 C 531.60404,91.57234 533.68687,93.30803 535.07542,94.34945 C 536.46397,95.39086 538.19966,100.94507 538.19966,100.94507 C 537.85252,101.98649 537.50539,103.0279 537.15825,104.06932 C 537.27396,105.22645 537.38968,106.38357 537.50539,107.5407 C 536.34826,108.92925 535.19113,110.31781 534.034,111.70636 C 534.034,111.70636 533.33973,112.40064 535.07542,114.13633 C 536.81111,115.87202 537.50539,119.34341 537.15825,120.73196 C 536.81111,122.12051 535.7697,122.46765 535.7697,122.46765 C 536.92683,124.43477 538.08395,126.40188 539.24108,128.369 C 539.43107,131.22038 539.91706,134.36777 539.24108,136.35318 C 539.24108,136.35318 535.42256,143.99023 534.38114,144.33736 C 533.33973,144.6845 528.82693,138.78315 509.73432,138.08888 C 488.73561,136.62837 470.44111,136.98676 461.48209,138.78315 C 451.76222,140.51884 442.04235,145.72592 440.65379,144.33736 z"
         id="path3412"
         sodipodi:nodetypes="cccccccccccccccccccccccccccccccc" />
      <path
         style="fill:none;fill-rule:evenodd;stroke:url(#linearGradient4325);stroke-width:2.0999999;stroke-linecap:round;stroke-linejoin:miter;stroke-miterlimit:4;stroke-dasharray:none;stroke-opacity:1"
         d="M 441.00093,130.79897 C 441.00093,130.79897 458.35786,119.69055 500.01445,121.77337 C 526.02604,123.08487 534.034,131.49325 534.034,131.49325"
         id="path3414"
         sodipodi:nodetypes="csc" />
      <path
         style="fill:none;fill-rule:evenodd;stroke:url(#linearGradient4327);stroke-width:2.0999999;stroke-linecap:round;stroke-linejoin:miter;stroke-miterlimit:4;stroke-dasharray:none;stroke-opacity:1"
         d="M 442.87681,117.43174 C 442.87681,117.43174 460.58087,106.37899 502.23746,109.37383 C 528.24905,111.25483 535.90988,120.16286 535.90988,120.16286"
         id="path3416"
         sodipodi:nodetypes="csc" />
      <path
         sodipodi:nodetypes="csc"
         id="path3418"
         d="M 442.18253,105.62904 C 442.18253,105.62904 458.1509,94.57629 499.80749,97.57113 C 525.81908,99.45213 535.2156,108.36016 535.2156,108.36016"
         style="fill:none;fill-rule:evenodd;stroke:url(#linearGradient4329);stroke-width:2.0999999;stroke-linecap:round;stroke-linejoin:miter;stroke-miterlimit:4;stroke-dasharray:none;stroke-opacity:1" />
      <rect
         style="opacity:0.71291899;fill:url(#linearGradient4331);fill-opacity:1;stroke:none;stroke-width:2.0999999;stroke-linecap:round;stroke-miterlimit:4;stroke-dasharray:none;stroke-opacity:1"
         id="rect3420"
         width="3.4713421"
         height="4.1656976"
         x="451.98798"
         y="132.07472"
         rx="0.030989386"
         ry="0"
         transform="matrix(0.999307,-3.72357e-2,3.72357e-2,0.999307,0,0)" />
      <rect
         ry="0"
         rx="0.030989386"
         y="130.68617"
         x="458.35217"
         height="4.1656976"
         width="3.4713421"
         id="rect3422"
         style="opacity:0.71291899;fill:url(#linearGradient4333);fill-opacity:1;stroke:none;stroke-width:2.0999999;stroke-linecap:round;stroke-miterlimit:4;stroke-dasharray:none;stroke-opacity:1"
         transform="matrix(0.999307,-3.72357e-2,3.72357e-2,0.999307,0,0)" />
      <rect
         style="opacity:0.71291899;fill:url(#linearGradient4335);fill-opacity:1;stroke:none;stroke-width:2.0999999;stroke-linecap:round;stroke-miterlimit:4;stroke-dasharray:none;stroke-opacity:1"
         id="rect3424"
         width="3.4713438"
         height="4.1656995"
         x="464.40851"
         y="129.63263"
         rx="0.030989401"
         ry="0"
         transform="matrix(0.999307,-3.72356e-2,3.72356e-2,0.999307,0,0)" />
      <rect
         ry="0"
         rx="0.030989386"
         y="129.9919"
         x="471.08066"
         height="4.1656976"
         width="3.4713421"
         id="rect3426"
         style="opacity:0.71291899;fill:url(#linearGradient4337);fill-opacity:1;stroke:none;stroke-width:2.0999999;stroke-linecap:round;stroke-miterlimit:4;stroke-dasharray:none;stroke-opacity:1"
         transform="matrix(0.999307,-3.72357e-2,3.72357e-2,0.999307,0,0)" />
      <rect
         ry="0"
         rx="0.030989315"
         y="120.66895"
         x="440.81427"
         height="4.1656899"
         width="3.471334"
         id="rect3428"
         style="opacity:0.71291899;fill:url(#linearGradient4339);fill-opacity:1;stroke:none;stroke-width:2.0999999;stroke-linecap:round;stroke-miterlimit:4;stroke-dasharray:none;stroke-opacity:1"
         transform="matrix(0.998175,-6.0387e-2,6.0387e-2,0.998175,0,0)" />
      <rect
         style="opacity:0.71291899;fill:url(#linearGradient4341);fill-opacity:1;stroke:none;stroke-width:2.0999999;stroke-linecap:round;stroke-miterlimit:4;stroke-dasharray:none;stroke-opacity:1"
         id="rect3430"
         width="3.471334"
         height="4.1656899"
         x="448.17358"
         y="118.93324"
         rx="0.030989315"
         ry="0"
         transform="matrix(0.998175,-6.0387e-2,6.0387e-2,0.998175,0,0)" />
      <rect
         ry="0"
         rx="0.030989315"
         y="117.54469"
         x="455.53296"
         height="4.1656899"
         width="3.471334"
         id="rect3432"
         style="opacity:0.71291899;fill:url(#linearGradient4343);fill-opacity:1;stroke:none;stroke-width:2.0999999;stroke-linecap:round;stroke-miterlimit:4;stroke-dasharray:none;stroke-opacity:1"
         transform="matrix(0.998175,-6.0387e-2,6.0387e-2,0.998175,0,0)" />
      <rect
         style="opacity:0.71291899;fill:url(#linearGradient4345);fill-opacity:1;stroke:none;stroke-width:2.0999999;stroke-linecap:round;stroke-miterlimit:4;stroke-dasharray:none;stroke-opacity:1"
         id="rect3434"
         width="3.471334"
         height="4.1656899"
         x="462.89227"
         y="116.85041"
         rx="0.030989315"
         ry="0"
         transform="matrix(0.998175,-6.0387e-2,6.0387e-2,0.998175,0,0)" />
      <rect
         ry="0"
         rx="0.030989315"
         y="116.50327"
         x="470.25159"
         height="4.1656899"
         width="3.471334"
         id="rect3436"
         style="opacity:0.71291899;fill:url(#linearGradient4347);fill-opacity:1;stroke:none;stroke-width:2.0999999;stroke-linecap:round;stroke-miterlimit:4;stroke-dasharray:none;stroke-opacity:1"
         transform="matrix(0.998175,-6.0387e-2,6.0387e-2,0.998175,0,0)" />
      <rect
         style="opacity:0.71291899;fill:url(#linearGradient4349);fill-opacity:1;stroke:none;stroke-width:2.0999999;stroke-linecap:round;stroke-miterlimit:4;stroke-dasharray:none;stroke-opacity:1"
         id="rect3438"
         width="3.471334"
         height="4.1656899"
         x="477.61093"
         y="116.15614"
         rx="0.030989315"
         ry="0"
         transform="matrix(0.998175,-6.0387e-2,6.0387e-2,0.998175,0,0)" />
      <path
         sodipodi:nodetypes="ccccc"
         id="path3442"
         d="M 601.82533,502.99305 L 602.66383,487.99015 C 534.88196,482.1026 439.47335,483.02013 369.9728,485.72604 L 370.13884,502.59087 C 464.22356,499.92803 533.58661,500.58358 601.82533,502.99305 z"
         style="opacity:1;fill:#000000;fill-opacity:1;stroke:none;stroke-width:4;stroke-linecap:round;stroke-miterlimit:4;stroke-opacity:0.554502" />
      <path
         style="opacity:1;fill:#000000;fill-opacity:1;stroke:none;stroke-width:4;stroke-linecap:round;stroke-miterlimit:4;stroke-opacity:0.554502"
         d="M 589.68923,678.20849 L 590.43413,663.20559 C 530.22249,657.31804 445.46957,658.23557 383.73118,660.94148 L 383.87867,677.80631 C 467.45556,675.14347 529.0718,675.79902 589.68923,678.20849 z"
         id="path3444"
         sodipodi:nodetypes="ccccc" />
      <path
         style="opacity:1;fill:url(#linearGradient4351);fill-opacity:1;stroke:none;stroke-width:4;stroke-linecap:round;stroke-miterlimit:4;stroke-opacity:0.554502"
         d="M 602.96633,500.90527 L 591.96283,666.27234 C 526.7931,662.94286 452.92398,662.62285 382.20247,666.76309 L 369.75776,500.4765 C 464.84276,495.88793 534.27933,498.29438 602.96633,500.90527 z"
         id="path3446"
         sodipodi:nodetypes="ccccc" />
      <path
         style="opacity:1;fill:#6a6a6a;fill-opacity:1;fill-rule:evenodd;stroke:none;stroke-width:1px;stroke-linecap:butt;stroke-linejoin:miter;stroke-opacity:1"
         d="M 384.06252,869.60896 C 446.74341,899.25466 535.63252,898.72678 593.79803,863.18961 C 600.09363,861.85895 585.21593,875.76791 583.55853,877.41679 C 543.59187,906.4256 476.76704,906.73963 430.53414,893.57538 C 415.26336,888.41085 392.59165,885.07457 384.06252,869.60896 z"
         id="path3448"
         sodipodi:nodetypes="ccccc" />
      <path
         style="fill:url(#linearGradient4353);fill-opacity:1;fill-rule:evenodd;stroke:none;stroke-width:1px;stroke-linecap:butt;stroke-linejoin:miter;stroke-opacity:1"
         d="M 449.3024,149.10629 C 445.65073,198.34773 440.57055,247.46654 435.78458,296.6064 C 421.56947,320.23208 419.62237,295.82234 426.20133,277.00939 C 436.72083,237.73459 439.45389,196.87563 442.22293,156.54426 C 442.97929,153.08619 445.47755,149.51887 449.3024,149.10629 z"
         id="path3450"
         sodipodi:nodetypes="ccccc" />
      <path
         sodipodi:nodetypes="cccccc"
         id="path3452"
         d="M 525.35586,144.2752 C 529.00753,193.51664 529.69581,241.31788 534.48178,290.45774 C 536.9809,288.79685 545.25518,294.98279 548.58486,302.34944 C 559.91593,310.93311 576.83243,324.09154 549.7745,278.32695 C 539.255,239.05215 535.20437,192.04454 532.43533,151.71317 C 531.67897,148.2551 529.18071,144.68778 525.35586,144.2752 z"
         style="fill:url(#linearGradient4355);fill-opacity:1;fill-rule:evenodd;stroke:none;stroke-width:1px;stroke-linecap:butt;stroke-linejoin:miter;stroke-opacity:1" />
      <path
         style="opacity:0.36842101;fill:#ffffff;fill-rule:evenodd;stroke:none;stroke-width:1px;stroke-linecap:butt;stroke-linejoin:miter;stroke-opacity:1"
         d="M 435.0085,562.93298 C 447.04984,606.83998 439.45578,769.17185 451.60059,645.68281 C 456.75376,558.14066 469.65798,313.52455 464.96061,355.57265 C 447.7803,424.30199 436.70634,493.54727 435.0085,562.93298 z"
         id="path3454" />
      <path
         sodipodi:type="arc"
         style="opacity:0.36842101;fill:#757575;fill-opacity:1;stroke:none;stroke-width:4;stroke-linecap:round;stroke-miterlimit:4;stroke-dasharray:none;stroke-opacity:0.554502"
         id="path3456"
         sodipodi:cx="925.07648"
         sodipodi:cy="1003.252"
         sodipodi:rx="95.213722"
         sodipodi:ry="33.074242"
         d="M 1020.2902,1003.252 A 95.213722,33.074242 0 1 1 829.86275,1003.252 A 95.213722,33.074242 0 1 1 1020.2902,1003.252 z"
         transform="matrix(1,0,0,0.861783,-438.985,-25.1399)" />
      <path
         style="opacity:0.30143498;fill:#ffffff;fill-rule:evenodd;stroke:none;stroke-width:1px;stroke-linecap:butt;stroke-linejoin:miter;stroke-opacity:1"
         d="M 398.30939,523.91089 C 401.21015,612.4932 419.61725,708.47125 393.04982,792.02299 C 366.48238,875.57474 414.0276,828.1438 426.31243,762.27194 C 446.28051,655.20209 407.46224,613.06991 432.92764,467.76848 C 445.1477,398.04277 452.84193,378.78678 438.44407,353.1557 C 417.44114,315.76627 393.02599,362.56857 398.30939,523.91089 z"
         id="path3458"
         sodipodi:nodetypes="csssss" />
      <path
         style="opacity:0.84210498;fill:url(#linearGradient4357);fill-opacity:1;fill-rule:evenodd;stroke:none;stroke-width:1px;stroke-linecap:butt;stroke-linejoin:miter;stroke-opacity:1"
         d="M 452.07867,300.67491 C 457.23768,303.21918 473.84203,303.21181 484.15066,300.67491 C 497.58344,297.36917 506.40913,303.47034 515.58651,310.69741 C 524.17234,317.45865 526.60329,326.61359 526.08677,334.7514 C 525.30176,347.11948 515.7003,348.28771 508.77849,354.7964 C 502.68906,360.5224 487.63457,355.26402 482.84723,352.7919 C 474.48285,348.47263 469.93573,347.15965 461.43388,342.7694 C 454.19764,339.0327 444.7957,338.31804 437.88879,334.7514 C 426.4387,328.83871 426.7513,322.60581 435.15207,314.70641 C 441.01911,309.18953 442.7715,307.76084 452.07867,300.67491 z"
         id="path3460" />
    </g>
  </g>
</svg>
