<?xml version="1.0" encoding="UTF-8" standalone="no"?>
<!-- Created with Inkscape (http://www.inkscape.org/) -->
<svg xmlns:dc="http://purl.org/dc/elements/1.1/" xmlns:cc="http://creativecommons.org/ns#" xmlns:rdf="http://www.w3.org/1999/02/22-rdf-syntax-ns#" xmlns:svg="http://www.w3.org/2000/svg" xmlns="http://www.w3.org/2000/svg" xmlns:xlink="http://www.w3.org/1999/xlink" xmlns:sodipodi="http://sodipodi.sourceforge.net/DTD/sodipodi-0.dtd" xmlns:inkscape="http://www.inkscape.org/namespaces/inkscape" width="444.46713" height="310.86694" id="svg2" version="1.1" inkscape:version="0.47pre3 " sodipodi:docname="coffeecup-3d.svg" inkscape:export-filename="D:\mocholand\Development\vectorial-cofee-cup\coffeecup-3d.png" inkscape:export-xdpi="90" inkscape:export-ydpi="90">
  <defs id="defs4">
    <linearGradient id="linearGradient4273">
      <stop style="stop-color: rgb(255, 255, 255); stop-opacity: 1;" offset="0" id="stop4275"/>
      <stop style="stop-color: rgb(255, 255, 255); stop-opacity: 0;" offset="1" id="stop4277"/>
    </linearGradient>
    <linearGradient id="linearGradient4263">
      <stop style="stop-color: rgb(70, 31, 0); stop-opacity: 1;" offset="0" id="stop4265"/>
      <stop style="stop-color: rgb(117, 51, 0); stop-opacity: 1;" offset="1" id="stop4267"/>
    </linearGradient>
    <linearGradient id="linearGradient4218">
      <stop style="stop-color: rgb(131, 131, 131); stop-opacity: 1;" offset="0" id="stop4220"/>
      <stop style="stop-color: rgb(198, 198, 198); stop-opacity: 0;" offset="1" id="stop4222"/>
    </linearGradient>
    <linearGradient id="linearGradient4195">
      <stop style="stop-color: rgb(226, 226, 226); stop-opacity: 1;" offset="0" id="stop4197"/>
      <stop style="stop-color: rgb(152, 152, 152); stop-opacity: 1;" offset="1" id="stop4199"/>
    </linearGradient>
    <linearGradient id="linearGradient4107">
      <stop style="stop-color: rgb(233, 233, 233); stop-opacity: 1;" offset="0" id="stop4109"/>
      <stop id="stop4119" offset="1" style="stop-color: rgb(179, 179, 179); stop-opacity: 1;"/>
    </linearGradient>
    <inkscape:perspective sodipodi:type="inkscape:persp3d" inkscape:vp_x="0 : 526.18109 : 1" inkscape:vp_y="0 : 1000 : 0" inkscape:vp_z="744.09448 : 526.18109 : 1" inkscape:persp3d-origin="372.04724 : 350.78739 : 1" id="perspective10"/>
    <radialGradient inkscape:collect="always" xlink:href="#linearGradient4107" id="radialGradient4115" cx="408.10162" cy="582.54675" fx="408.10162" fy="582.54675" r="222.23357" gradientTransform="matrix(1, 0, 0, 0.186911, 0, 409.163)" gradientUnits="userSpaceOnUse" spreadMethod="pad"/>
    <inkscape:perspective id="perspective4129" inkscape:persp3d-origin="0.5 : 0.33333333 : 1" inkscape:vp_z="1 : 0.5 : 1" inkscape:vp_y="0 : 1000 : 0" inkscape:vp_x="0 : 0.5 : 1" sodipodi:type="inkscape:persp3d"/>
    <radialGradient inkscape:collect="always" xlink:href="#linearGradient4107-7" id="radialGradient4115-1" cx="408.10162" cy="582.54675" fx="408.10162" fy="582.54675" r="222.23357" gradientTransform="matrix(1, 0, 0, 0.186911, 0, 409.163)" gradientUnits="userSpaceOnUse" spreadMethod="pad"/>
    <linearGradient id="linearGradient4107-7">
      <stop style="stop-color: rgb(221, 221, 221); stop-opacity: 1;" offset="0" id="stop4109-4"/>
      <stop id="stop4119-0" offset="1" style="stop-color: rgb(179, 179, 179); stop-opacity: 1;"/>
    </linearGradient>
    <radialGradient inkscape:collect="always" xlink:href="#linearGradient4195" id="radialGradient4201" cx="368.57812" cy="351.05292" fx="368.57812" fy="351.05292" r="185.64062" gradientTransform="matrix(1, 0, 0, 0.548102, 0, 141.631)" gradientUnits="userSpaceOnUse"/>
    <linearGradient inkscape:collect="always" xlink:href="#linearGradient4218" id="linearGradient4224" x1="369.94583" y1="371.62177" x2="369.94583" y2="321.49359" gradientUnits="userSpaceOnUse"/>
    <linearGradient inkscape:collect="always" xlink:href="#linearGradient4218" id="linearGradient4248" gradientUnits="userSpaceOnUse" x1="369.94583" y1="346.55768" x2="369.94583" y2="321.49359"/>
    <linearGradient inkscape:collect="always" xlink:href="#linearGradient4218" id="linearGradient4260" gradientUnits="userSpaceOnUse" x1="369.94583" y1="346.55768" x2="369.94583" y2="321.49359" gradientTransform="matrix(0.981285, 0, 0, 1.41168, 5.56019, -145.797)"/>
    <linearGradient inkscape:collect="always" xlink:href="#linearGradient4263" id="linearGradient4269" x1="368.57812" y1="327.71875" x2="388.13196" y2="378.8125" gradientUnits="userSpaceOnUse" gradientTransform="translate(0, -60)"/>
    <linearGradient inkscape:collect="always" xlink:href="#linearGradient4273" id="linearGradient4279" x1="368.57812" y1="378.8125" x2="368.57812" y2="327.71875" gradientUnits="userSpaceOnUse"/>
    <linearGradient inkscape:collect="always" xlink:href="#linearGradient4273" id="linearGradient4286" gradientUnits="userSpaceOnUse" x1="368.57812" y1="378.8125" x2="368.57812" y2="327.71875"/>
    <linearGradient inkscape:collect="always" xlink:href="#linearGradient4273" id="linearGradient4289" gradientUnits="userSpaceOnUse" x1="368.57812" y1="362.57806" x2="368.57812" y2="327.71875" gradientTransform="translate(0, -60)"/>
    <radialGradient inkscape:collect="always" xlink:href="#linearGradient4195" id="radialGradient4309" gradientUnits="userSpaceOnUse" gradientTransform="matrix(1, 0, 0, 0.548102, 0, 141.631)" cx="368.57812" cy="351.05292" fx="368.57812" fy="351.05292" r="185.64062"/>
    <linearGradient inkscape:collect="always" xlink:href="#linearGradient4218" id="linearGradient4311" gradientUnits="userSpaceOnUse" x1="369.94583" y1="346.55768" x2="369.94583" y2="321.49359"/>
    <linearGradient inkscape:collect="always" xlink:href="#linearGradient4263" id="linearGradient4313" gradientUnits="userSpaceOnUse" gradientTransform="translate(0, -60)" x1="368.57812" y1="327.71875" x2="388.13196" y2="378.8125"/>
    <linearGradient inkscape:collect="always" xlink:href="#linearGradient4273" id="linearGradient4315" gradientUnits="userSpaceOnUse" gradientTransform="translate(0, -60)" x1="368.57812" y1="362.57806" x2="368.57812" y2="327.71875"/>
    <filter inkscape:collect="always" id="filter4335" x="-0.17981365" width="1.3596272" y="-0.90468752" height="2.809375" color-interpolation-filters="sRGB">
      <feGaussianBlur inkscape:collect="always" stdDeviation="12.0625" id="feGaussianBlur4337"/>
    </filter>
    <radialGradient inkscape:collect="always" xlink:href="#linearGradient4107" id="radialGradient4339" gradientUnits="userSpaceOnUse" gradientTransform="matrix(1, 0, 0, 0.186911, 0, 409.163)" spreadMethod="pad" cx="408.10162" cy="582.54675" fx="408.10162" fy="582.54675" r="222.23357"/>
  </defs>
  <sodipodi:namedview id="base" pagecolor="#ffffff" bordercolor="#666666" borderopacity="1.0" inkscape:pageopacity="0.0" inkscape:pageshadow="2" inkscape:zoom="1" inkscape:cx="238.91057" inkscape:cy="148.53567" inkscape:document-units="px" inkscape:current-layer="layer1" showgrid="false" inkscape:window-width="1152" inkscape:window-height="816" inkscape:window-x="-4" inkscape:window-y="-4" inkscape:window-maximized="1"/>
  <metadata id="metadata7">
    <rdf:RDF>
      <cc:Work rdf:about="">
        <dc:format>image/svg+xml</dc:format>
        <dc:type rdf:resource="http://purl.org/dc/dcmitype/StillImage"/>
        <dc:title/>
      </cc:Work>
    </rdf:RDF>
  </metadata>
  <g inkscape:label="Layer 1" inkscape:groupmode="layer" id="layer1" transform="translate(-145.589, -250.531)">
    <path transform="matrix(0.949383, 0, 0, 1.06174, -20.8705, -28.258)" d="m 630.33519,492.73767 c 0,34.5893 -99.49736,62.62946 -222.23357,62.62946 -122.73621,0 -222.23356,-28.04016 -222.23356,-62.62946 0,-34.58929 99.49735,-62.62946 222.23356,-62.62946 122.73621,0 222.23357,28.04017 222.23357,62.62946 z" sodipodi:ry="62.629459" sodipodi:rx="222.23357" sodipodi:cy="492.73767" sodipodi:cx="408.10162" id="path4182" style="fill: rgb(89, 89, 89); fill-opacity: 1; fill-rule: evenodd; stroke: none;" sodipodi:type="arc"/>
    <path transform="translate(-40.2786, -1.70289)" d="m 630.33519,492.73767 c 0,34.5893 -99.49736,62.62946 -222.23357,62.62946 -122.73621,0 -222.23356,-28.04016 -222.23356,-62.62946 0,-34.58929 99.49735,-62.62946 222.23356,-62.62946 122.73621,0 222.23357,28.04017 222.23357,62.62946 z" sodipodi:ry="62.629459" sodipodi:rx="222.23357" sodipodi:cy="492.73767" sodipodi:cx="408.10162" id="path4159" style="fill: rgb(242, 242, 242); fill-opacity: 1; fill-rule: evenodd; stroke: none;" sodipodi:type="arc"/>
    <path sodipodi:type="arc" style="fill: url(#radialGradient4339) rgb(0, 0, 0); fill-opacity: 1; fill-rule: evenodd; stroke: none;" id="path3333" sodipodi:cx="408.10162" sodipodi:cy="492.73767" sodipodi:rx="222.23357" sodipodi:ry="62.629459" d="m 630.33519,492.73767 c 0,34.5893 -99.49736,62.62946 -222.23357,62.62946 -122.73621,0 -222.23356,-28.04016 -222.23356,-62.62946 0,-34.58929 99.49735,-62.62946 222.23356,-62.62946 122.73621,0 222.23357,28.04017 222.23357,62.62946 z" transform="translate(-40.2786, -5.70289)"/>
    <path sodipodi:type="arc" style="fill: rgb(133, 133, 133); fill-opacity: 0.406977; stroke: none;" id="path4186" sodipodi:cx="363.82874" sodipodi:cy="550.38397" sodipodi:rx="123.3854" sodipodi:ry="29.52813" d="m 487.21413,550.38397 c 0,16.30794 -55.24152,29.52813 -123.38539,29.52813 -68.14388,0 -123.3854,-13.22019 -123.3854,-29.52813 0,-16.30793 55.24152,-29.52813 123.3854,-29.52813 68.14387,0 123.38539,13.2202 123.38539,29.52813 z" transform="translate(6, -66)"/>
    <path sodipodi:type="arc" style="opacity: 0.75; fill: rgb(0, 0, 0); fill-opacity: 1; stroke: none; filter: url(#filter4335);" id="path4317" sodipodi:cx="367.5" sodipodi:cy="483.36218" sodipodi:rx="80.5" sodipodi:ry="16" d="m 448,483.36218 c 0,8.83656 -36.04108,16 -80.5,16 -44.45892,0 -80.5,-7.16344 -80.5,-16 0,-8.83655 36.04108,-16 80.5,-16 44.45892,0 80.5,7.16345 80.5,16 z" transform="matrix(0.934091, 0, 0, 0.911458, 23.0077, 44.8179)"/>
    <g id="g4295" transform="translate(0, 4)">
      <path id="path4188" d="m 182.9375,284.43746 c 18.73308,116.39191 94.71496,203.5 185.625,203.5 90.91058,0 166.92373,-87.10706 185.65625,-203.5 l -371.28125,0 z" style="fill: url(#radialGradient4309) rgb(0, 0, 0); fill-opacity: 1; stroke: none;"/>
      <path transform="matrix(1.02339, 0, 0, 1.61156, -10.017, -271.575)" d="m 551.40977,346.55768 c 0,13.84251 -81.24417,25.06408 -181.46394,25.06408 -100.21977,0 -181.46394,-11.22157 -181.46394,-25.06408 0,-13.84251 81.24417,-25.06408 181.46394,-25.06408 100.21977,0 181.46394,11.22157 181.46394,25.06408 z" sodipodi:ry="25.064081" sodipodi:rx="181.46394" sodipodi:cy="346.55768" sodipodi:cx="369.94583" id="path4193" style="fill: rgb(234, 234, 234); fill-opacity: 1; stroke: none;" sodipodi:type="arc"/>
      <path sodipodi:type="arc" style="fill: url(#linearGradient4311) rgb(0, 0, 0); fill-opacity: 1; stroke: none;" id="path4216" sodipodi:cx="369.94583" sodipodi:cy="346.55768" sodipodi:rx="181.46394" sodipodi:ry="25.064081" d="m 551.40977,346.55768 c 0,13.84251 -81.24417,25.06408 -181.46394,25.06408 -100.21977,0 -181.46394,-11.22157 -181.46394,-25.06408 0,-13.84251 81.24417,-25.06408 181.46394,-25.06408 100.21977,0 181.46394,11.22157 181.46394,25.06408 z" transform="matrix(0.981285, 0, 0, 1.41168, 5.56019, -205.797)"/>
      <path id="path4255" d="m 368.59375,267.71871 c -91.89017,0 -166.4242,12.6306 -166.625,28.21875 25.42869,13.36892 90.44003,22.875 166.625,22.875 76.17466,0 141.15779,-9.50893 166.59375,-22.875 -0.2008,-15.58815 -74.70358,-28.21875 -166.59375,-28.21875 z" style="fill: url(#linearGradient4313) rgb(0, 0, 0); fill-opacity: 1; stroke: none;"/>
      <path sodipodi:nodetypes="cccc" id="path4271" d="m 368.59375,267.71871 c -87.76925,0 -159.70579,11.53912 -166.15625,26.15625 107.47337,-8.45242 217.07463,-11.43311 332.28125,0 -6.44791,-14.61713 -78.35575,-26.15625 -166.125,-26.15625 z" style="opacity: 0.04; fill: url(#linearGradient4315) rgb(0, 0, 0); fill-opacity: 1; stroke: none;"/>
      <path sodipodi:nodetypes="cccc" id="path4293" d="m 213.74737,309.2312 c 9.00011,2.96476 14.24069,3.96518 20.51594,5.52577 0,0 1.29163,65.75027 23.59158,103.41476 -24.43244,-33.61471 -44.95132,-65.46324 -44.10752,-108.94053 z" style="fill: rgb(255, 255, 255); fill-opacity: 0.151163; stroke: none;"/>
    </g>
  </g>
</svg>