<?xml version="1.0" encoding="UTF-8" standalone="no"?>
<!-- Created with Inkscape (http://www.inkscape.org/) -->

<svg
   xmlns:dc="http://purl.org/dc/elements/1.1/"
   xmlns:cc="http://creativecommons.org/ns#"
   xmlns:rdf="http://www.w3.org/1999/02/22-rdf-syntax-ns#"
   xmlns:svg="http://www.w3.org/2000/svg"
   xmlns="http://www.w3.org/2000/svg"
   xmlns:xlink="http://www.w3.org/1999/xlink"
   xmlns:sodipodi="http://sodipodi.sourceforge.net/DTD/sodipodi-0.dtd"
   xmlns:inkscape="http://www.inkscape.org/namespaces/inkscape"
   width="47.79977"
   height="247.00417"
   id="svg3134"
   version="1.1"
   inkscape:version="0.47pre1 r21720"
   sodipodi:docname="New document 6"
   inkscape:output_extension="org.inkscape.output.svg.inkscape">
  <defs
     id="defs3136">
    <inkscape:perspective
       sodipodi:type="inkscape:persp3d"
       inkscape:vp_x="0 : 526.18109 : 1"
       inkscape:vp_y="0 : 1000 : 0"
       inkscape:vp_z="744.09448 : 526.18109 : 1"
       inkscape:persp3d-origin="372.04724 : 350.78739 : 1"
       id="perspective3142" />
    <inkscape:perspective
       id="perspective3110"
       inkscape:persp3d-origin="0.5 : 0.33333333 : 1"
       inkscape:vp_z="1 : 0.5 : 1"
       inkscape:vp_y="0 : 1000 : 0"
       inkscape:vp_x="0 : 0.5 : 1"
       sodipodi:type="inkscape:persp3d" />
    <linearGradient
       inkscape:collect="always"
       xlink:href="#linearGradient3813"
       id="linearGradient2898"
       gradientUnits="userSpaceOnUse"
       x1="142.9326"
       y1="434.2764"
       x2="181.82518"
       y2="599.19299"
       gradientTransform="translate(-78.5432,-308.431)" />
    <linearGradient
       id="linearGradient3813">
      <stop
         id="stop3815"
         style="stop-color: rgb(123, 123, 123); stop-opacity: 1;"
         offset="0" />
      <stop
         id="stop3817"
         style="stop-color: rgb(145, 145, 145); stop-opacity: 1;"
         offset="0.61307335" />
      <stop
         id="stop3819"
         style="stop-color: rgb(125, 125, 125); stop-opacity: 1;"
         offset="1" />
    </linearGradient>
    <linearGradient
       inkscape:collect="always"
       xlink:href="#linearGradient3823"
       id="linearGradient2874"
       gradientUnits="userSpaceOnUse"
       gradientTransform="translate(-78.4182,-307.681)"
       x1="174.23402"
       y1="446.1658"
       x2="178.92662"
       y2="459.80579" />
    <linearGradient
       id="linearGradient3823">
      <stop
         id="stop3825"
         style="stop-color: rgb(132, 132, 132); stop-opacity: 1;"
         offset="0" />
      <stop
         id="stop3829"
         style="stop-color: rgb(202, 202, 202); stop-opacity: 1;"
         offset="1" />
    </linearGradient>
    <linearGradient
       inkscape:collect="always"
       xlink:href="#linearGradient3723"
       id="linearGradient2867"
       gradientUnits="userSpaceOnUse"
       gradientTransform="matrix(0.985774,0,0,0.985774,-1.3699,-301.58547)"
       x1="85.342316"
       y1="584.987"
       x2="107.32287"
       y2="623.48492" />
    <linearGradient
       id="linearGradient3723">
      <stop
         id="stop3725"
         style="stop-color: rgb(134, 134, 134); stop-opacity: 1;"
         offset="0" />
      <stop
         id="stop3727"
         style="stop-color: rgb(51, 51, 51); stop-opacity: 1;"
         offset="1" />
    </linearGradient>
    <linearGradient
       y2="623.48492"
       x2="107.32287"
       y1="584.987"
       x1="85.342316"
       gradientTransform="matrix(0.985774,0,0,0.985774,-1.3699,-301.58547)"
       gradientUnits="userSpaceOnUse"
       id="linearGradient3132"
       xlink:href="#linearGradient3723"
       inkscape:collect="always" />
  </defs>
  <sodipodi:namedview
     id="base"
     pagecolor="#ffffff"
     bordercolor="#666666"
     borderopacity="1.0"
     inkscape:pageopacity="0.0"
     inkscape:pageshadow="2"
     inkscape:zoom="0.35"
     inkscape:cx="67.471316"
     inkscape:cy="92.073511"
     inkscape:document-units="px"
     inkscape:current-layer="layer1"
     showgrid="false"
     inkscape:window-width="607"
     inkscape:window-height="493"
     inkscape:window-x="287"
     inkscape:window-y="159"
     inkscape:window-maximized="0" />
  <metadata
     id="metadata3139">
    <rdf:RDF>
      <cc:Work
         rdf:about="">
        <dc:format>image/svg+xml</dc:format>
        <dc:type
           rdf:resource="http://purl.org/dc/dcmitype/StillImage" />
        <dc:title></dc:title>
      </cc:Work>
    </rdf:RDF>
  </metadata>
  <g
     inkscape:label="Layer 1"
     inkscape:groupmode="layer"
     id="layer1"
     transform="translate(-307.52868,-377.43153)">
    <g
       transform="translate(239.39185,313.67369)"
       id="g3096">
      <path
         d="m 85.76931,167.15898 c 0,79.14569 -15.28812,101.80224 -6.6277,134.12336 3.6184,13.50405 22.51603,11.74447 25.66295,0 7.99219,-29.82727 -6.31524,-57.27894 -6.31524,-134.83002 0,-10.61686 10.20001,-10.89112 15.72002,-24.58892 4.92871,-12.23054 -2.02916,-78.09787 -4.27111,-78.09787 -2.55821,0 -1.30597,57.04007 -6.15556,57.04007 -4.89262,0 -2.41828,-56.26649 -5.5126,-57.04007 -3.09433,-0.77358 -0.82481,57.04007 -6.54964,57.04007 -5.78256,0 -2.02421,-57.04007 -5.11854,-57.04007 -3.09431,0 -2.22373,57.04007 -6.94369,57.04007 -5.19611,0 -2.40372,-57.04007 -4.72447,-57.04007 -3.9445,0 -8.56444,61.94674 -6.11111,75.0312 2.45334,13.08446 16.94669,15.56395 16.94669,28.36225 z"
         id="path3642"
         style="color:#000000;fill:url(#linearGradient2898);fill-opacity:1;fill-rule:nonzero;stroke:none;stroke-width:1;marker:none;visibility:visible;display:inline;overflow:visible" />
      <path
         d="m 111.28086,141.21729 c -1.06136,3.81955 -4.43484,6.12179 -6.72144,9.05262 -2.92849,2.52741 -5.88391,5.71638 -10.03037,5.49939 -3.83179,0.0201 -7.41021,-1.70513 -11.02542,-2.86528 -3.71415,-2.09643 -6.34067,-5.88751 -7.95876,-9.87869 0.21146,-2.98803 3.06597,2.69083 5.33636,1.64588 2.40854,-0.59532 5.33093,0.92379 7.34002,-1.21934 1.56272,-2.74268 5.314,1.82055 6.39152,-2.12838 1.77759,-2.23901 5.13664,-1.52094 6.9369,-3.68918 2.69533,-2.35453 4.72198,-5.86403 8.40263,-6.82307 1.715,-0.90748 3.90895,-5.32797 3.58674,-1.08382 0.81338,3.57648 -1.06726,8.08387 -2.25818,11.48987 z"
         id="path3800"
         style="opacity:0.3;color:#000000;fill:url(#linearGradient2874);fill-opacity:1;fill-rule:nonzero;stroke:none;stroke-width:1;marker:none;visibility:visible;display:inline;overflow:visible" />
      <path
         d="m 73.973369,65.500099 a 0.47948589,0.93398948 13.552467 0 1 -0.93227,-0.224721 0.47948589,0.93398948 13.552467 1 1 0.93227,0.224721 z"
         id="path3811"
         style="opacity:0.3;color:#000000;fill:#ffffff;fill-opacity:0.77690501;fill-rule:nonzero;stroke:none;stroke-width:1;marker:none;visibility:visible;display:inline;overflow:visible" />
      <path
         d="m 80.89723,298.37345 c 1.5469,7.00601 8.111,11.9289 14.88468,8.74162 7.51155,-3.53449 8.58701,-15.23602 8.63913,-21.57676 0.0924,-11.24267 -1.08126,-19.55103 -2.42916,-30.56331 -0.41872,-3.42089 -1.09867,-9.78773 -1.78561,-12.92237 -0.0206,8.87129 1.35848,17.46979 -0.29165,26.29117 -2.4483,8.28959 0.27533,23.44127 -7.62173,28.99423 -3.91686,2.75421 -10.9593,-2.69782 -11.39566,1.03542 z"
         id="path3882"
         style="opacity:0.3;color:#000000;fill:url(#linearGradient3132);fill-opacity:1;fill-rule:nonzero;stroke:none;stroke-width:1;marker:none;visibility:visible;display:inline;overflow:visible" />
    </g>
  </g>
</svg>
