<?xml version="1.0" encoding="UTF-8" standalone="no"?>
<!-- Created with Inkscape (http://www.inkscape.org/) -->

<svg
   xmlns:dc="http://purl.org/dc/elements/1.1/"
   xmlns:cc="http://creativecommons.org/ns#"
   xmlns:rdf="http://www.w3.org/1999/02/22-rdf-syntax-ns#"
   xmlns:svg="http://www.w3.org/2000/svg"
   xmlns="http://www.w3.org/2000/svg"
   xmlns:xlink="http://www.w3.org/1999/xlink"
   xmlns:sodipodi="http://sodipodi.sourceforge.net/DTD/sodipodi-0.dtd"
   xmlns:inkscape="http://www.inkscape.org/namespaces/inkscape"
   width="37.316662"
   height="310.68796"
   id="svg2920"
   version="1.1"
   inkscape:version="0.47pre1 r21720"
   sodipodi:docname="New document 2"
   inkscape:output_extension="org.inkscape.output.svg.inkscape">
  <defs
     id="defs2922">
    <linearGradient
       id="linearGradient3759">
      <stop
         id="stop3761"
         style="stop-color: rgb(123, 123, 123); stop-opacity: 1;"
         offset="0" />
      <stop
         id="stop3763"
         style="stop-color: rgb(150, 150, 150); stop-opacity: 1;"
         offset="0.39824781" />
      <stop
         id="stop3765"
         style="stop-color: rgb(125, 125, 125); stop-opacity: 1;"
         offset="1" />
    </linearGradient>
    <linearGradient
       y2="585.39783"
       x2="78.543205"
       y1="441.14804"
       x1="61.572643"
       gradientTransform="translate(237.08418,5.7296043)"
       gradientUnits="userSpaceOnUse"
       id="linearGradient2918"
       xlink:href="#linearGradient3759"
       inkscape:collect="always" />
    <linearGradient
       inkscape:collect="always"
       xlink:href="#linearGradient3759-7"
       id="linearGradient2892-1"
       gradientUnits="userSpaceOnUse"
       x1="61.572643"
       y1="441.14804"
       x2="78.543205"
       y2="585.39783"
       gradientTransform="translate(-78.5432,-308.431)" />
    <linearGradient
       id="linearGradient3759-7">
      <stop
         id="stop3761-8"
         style="stop-color: rgb(123, 123, 123); stop-opacity: 1;"
         offset="0" />
      <stop
         id="stop3763-9"
         style="stop-color: rgb(150, 150, 150); stop-opacity: 1;"
         offset="0.39824781" />
      <stop
         id="stop3765-1"
         style="stop-color: rgb(125, 125, 125); stop-opacity: 1;"
         offset="1" />
    </linearGradient>
    <linearGradient
       inkscape:collect="always"
       xlink:href="#linearGradient3723"
       id="linearGradient2886"
       gradientUnits="userSpaceOnUse"
       gradientTransform="translate(-78.719977,-308.431)"
       x1="135.8578"
       y1="377.70193"
       x2="86.713882"
       y2="372.21707" />
    <linearGradient
       id="linearGradient3723">
      <stop
         id="stop3725"
         style="stop-color: rgb(134, 134, 134); stop-opacity: 1;"
         offset="0" />
      <stop
         id="stop3727"
         style="stop-color: rgb(51, 51, 51); stop-opacity: 1;"
         offset="1" />
    </linearGradient>
    <linearGradient
       inkscape:collect="always"
       xlink:href="#linearGradient3767"
       id="linearGradient2880"
       gradientUnits="userSpaceOnUse"
       x1="97.757515"
       y1="351.4426"
       x2="101.11627"
       y2="376.72165"
       gradientTransform="translate(-78.5432,-308.431)" />
    <linearGradient
       id="linearGradient3767">
      <stop
         id="stop3769"
         style="stop-color: rgb(123, 123, 123); stop-opacity: 1;"
         offset="0" />
      <stop
         id="stop3771"
         style="stop-color: rgb(170, 170, 170); stop-opacity: 1;"
         offset="0.59164107" />
      <stop
         id="stop3773"
         style="stop-color: rgb(125, 125, 125); stop-opacity: 1;"
         offset="1" />
    </linearGradient>
    <linearGradient
       inkscape:collect="always"
       xlink:href="#linearGradient3759-7"
       id="linearGradient2877"
       gradientUnits="userSpaceOnUse"
       x1="111.19255"
       y1="356.92267"
       x2="107.12668"
       y2="393.6922"
       gradientTransform="translate(-78.5432,-308.431)" />
    <linearGradient
       y2="623.48492"
       x2="107.32287"
       y1="584.987"
       x1="85.342316"
       gradientTransform="matrix(0.985774,0,0,0.985774,-77.36992,-301.58547)"
       gradientUnits="userSpaceOnUse"
       id="linearGradient3006"
       xlink:href="#linearGradient3723"
       inkscape:collect="always" />
  </defs>
  <sodipodi:namedview
     id="base"
     pagecolor="#ffffff"
     bordercolor="#666666"
     borderopacity="1.0"
     inkscape:pageopacity="0.0"
     inkscape:pageshadow="2"
     inkscape:zoom="0.35"
     inkscape:cx="113.65829"
     inkscape:cy="66.772546"
     inkscape:document-units="px"
     inkscape:current-layer="layer1"
     showgrid="false"
     inkscape:window-width="1440"
     inkscape:window-height="826"
     inkscape:window-x="0"
     inkscape:window-y="25"
     inkscape:window-maximized="1" />
  <metadata
     id="metadata2925">
    <rdf:RDF>
      <cc:Work
         rdf:about="">
        <dc:format>image/svg+xml</dc:format>
        <dc:type
           rdf:resource="http://purl.org/dc/dcmitype/StillImage" />
        <dc:title></dc:title>
      </cc:Work>
    </rdf:RDF>
  </metadata>
  <g
     inkscape:label="Layer 1"
     inkscape:groupmode="layer"
     id="layer1"
     transform="translate(-261.34171,-288.44677)">
    <g
       transform="translate(261.3417,288.44631)"
       id="g2951">
      <path
         d="m 9.401775,166.48083 c 0,79.14568 -15.58012,106.85712 -6.6277,134.80151 4.26531,13.31388 22.516025,11.74447 25.662945,0 7.25294,-27.06834 -6.31524,-46.94263 -6.31524,-133.73221 0,-10.61685 15.19489,-25.42228 15.19489,-52.78077 0,-48.64202 -6.89191,-114.7689 -21.908475,-114.7689 -14.39571,0 -11.099556,85.24269 -11.099556,131.86204 0,20.02493 5.093136,25.23667 5.093136,34.61833 z"
         id="path3688"
         style="color:#000000;fill:url(#linearGradient2892-1);fill-opacity:1;fill-rule:nonzero;stroke:none;stroke-width:1;marker:none;visibility:visible;display:inline;overflow:visible" />
      <path
         d="m 34.77068,121.67722 c -2.20744,28.58055 -14.142153,34.29467 -20.152561,28.63782 -6.010407,-5.65685 -6.010407,-19.09188 -6.010407,-41.01219 0,-21.92031 -3.692132,-107.48023 6.363961,-107.48023 14.916447,0 24.309077,61.46102 19.799007,119.8546 z"
         id="path3743"
         style="opacity:0.3;color:#000000;fill:url(#linearGradient2886);fill-opacity:1;fill-rule:nonzero;stroke:none;stroke-width:1;marker:none;visibility:visible;display:inline;overflow:visible" />
      <path
         d="m 8.092024,59.97779 c 0.512867,-3.09073 3.141639,-5.51555 5.812241,-6.84467 1.771054,-1.35491 4.362411,-1.60026 5.545933,-3.71553 1.568791,-2.22859 2.799082,-4.68888 4.680982,-6.69468 1.40154,-2.5933 4.84704,-2.32611 6.25221,-4.85112 1.72241,-2.44881 0.88423,1.85057 1.66055,2.71788 -0.0149,2.0119 1.63306,4.15715 0.36375,6.06531 -2.30837,2.06843 -3.81893,4.8439 -4.60355,7.82395 -0.33998,2.51749 -2.32356,3.90564 -4.74187,3.45569 -1.949692,0.83076 -2.979766,2.88528 -4.562466,4.19972 -1.799198,2.43796 -4.504948,4.00287 -6.301081,6.42341 -1.375499,1.95026 -2.31316,4.25554 -3.859365,6.03938 C 7.825234,69.20931 7.957478,64.95952 8.092024,59.97779 z"
         id="path3780"
         style="opacity:0.3;color:#000000;fill:url(#linearGradient2880);fill-opacity:1;fill-rule:nonzero;stroke:none;stroke-width:1;marker:none;visibility:visible;display:inline;overflow:visible" />
      <path
         d="m 33.65624,51.818 c -2.11654,2.20548 -3.6974,6.24941 -5.32102,8.74117 -2.4928,1.05123 -3.87155,3.2234 -5.12281,5.53253 -1.765254,2.4836 -4.601591,3.63956 -6.98836,5.3984 -3.136132,1.42886 -3.993393,4.91925 -6.28834,7.1014 -2.803493,0.41929 -1.673341,18.94963 -0.902603,18.38499 2.845183,-1.71554 4.77906,-4.4281 6.96844,-6.80351 2.888338,-1.95533 5.459643,-4.41712 7.622603,-7.14767 2.44146,-4.38253 4.73013,-8.88475 6.69771,-13.50651 1.09229,-2.36391 0.0128,-4.99206 1.12951,-7.347 0.73291,-2.67808 2.94482,-4.58562 2.57012,-7.67764 -0.12315,-0.66368 -0.23643,-1.7569 -0.36525,-2.67616 z"
         id="path3790"
         style="opacity:0.3;color:#000000;fill:url(#linearGradient2877);fill-opacity:1;fill-rule:nonzero;stroke:none;stroke-width:1;marker:none;visibility:visible;display:inline;overflow:visible" />
      <path
         d="m 4.897234,298.37345 c 1.546895,7.00601 8.110993,11.9289 14.884672,8.74162 7.511554,-3.53449 8.587014,-15.23602 8.639134,-21.57676 0.0924,-11.24267 -1.08126,-19.55103 -2.42916,-30.56331 -0.41872,-3.42089 -1.09867,-9.78773 -1.78561,-12.92237 -0.0206,8.87129 1.35848,17.46979 -0.29165,26.29117 -2.4483,8.28959 0.27533,23.44127 -7.621726,28.99423 -3.916863,2.75421 -10.959303,-2.69782 -11.39566,1.03542 z"
         id="path3868"
         style="opacity:0.3;color:#000000;fill:url(#linearGradient3006);fill-opacity:1;fill-rule:nonzero;stroke:none;stroke-width:1;marker:none;visibility:visible;display:inline;overflow:visible" />
    </g>
  </g>
</svg>
