<?xml version="1.0" encoding="UTF-8" standalone="no"?>
<!-- Created with Inkscape (http://www.inkscape.org/) -->

<svg
   xmlns:dc="http://purl.org/dc/elements/1.1/"
   xmlns:cc="http://creativecommons.org/ns#"
   xmlns:rdf="http://www.w3.org/1999/02/22-rdf-syntax-ns#"
   xmlns:svg="http://www.w3.org/2000/svg"
   xmlns="http://www.w3.org/2000/svg"
   xmlns:xlink="http://www.w3.org/1999/xlink"
   xmlns:sodipodi="http://sodipodi.sourceforge.net/DTD/sodipodi-0.dtd"
   xmlns:inkscape="http://www.inkscape.org/namespaces/inkscape"
   width="66.993317"
   height="251.18796"
   id="svg3255"
   version="1.1"
   inkscape:version="0.47pre1 r21720"
   sodipodi:docname="New document 9"
   inkscape:output_extension="org.inkscape.output.svg.inkscape">
  <defs
     id="defs3257">
    <inkscape:perspective
       sodipodi:type="inkscape:persp3d"
       inkscape:vp_x="0 : 526.18109 : 1"
       inkscape:vp_y="0 : 1000 : 0"
       inkscape:vp_z="744.09448 : 526.18109 : 1"
       inkscape:persp3d-origin="372.04724 : 350.78739 : 1"
       id="perspective3263" />
    <inkscape:perspective
       id="perspective3224"
       inkscape:persp3d-origin="0.5 : 0.33333333 : 1"
       inkscape:vp_z="1 : 0.5 : 1"
       inkscape:vp_y="0 : 1000 : 0"
       inkscape:vp_x="0 : 0.5 : 1"
       sodipodi:type="inkscape:persp3d" />
    <linearGradient
       inkscape:collect="always"
       xlink:href="#linearGradient3690"
       id="linearGradient2895"
       gradientUnits="userSpaceOnUse"
       x1="216.17268"
       y1="383.43915"
       x2="262.3219"
       y2="589.84937"
       gradientTransform="translate(-78.5432,-308.431)" />
    <linearGradient
       id="linearGradient3690">
      <stop
         id="stop3692"
         style="stop-color: rgb(123, 123, 123); stop-opacity: 1;"
         offset="0" />
      <stop
         id="stop3698"
         style="stop-color: rgb(154, 154, 154); stop-opacity: 1;"
         offset="0.66681927" />
      <stop
         id="stop3694"
         style="stop-color: rgb(125, 125, 125); stop-opacity: 1;"
         offset="1" />
    </linearGradient>
    <radialGradient
       inkscape:collect="always"
       xlink:href="#linearGradient3723"
       id="radialGradient2889"
       gradientUnits="userSpaceOnUse"
       gradientTransform="matrix(-0.440093,-1.88243,1.07148,-0.2505,-161.6247,704.329)"
       cx="251.09958"
       cy="422.59814"
       fx="251.09958"
       fy="422.59814"
       r="30.917471" />
    <linearGradient
       id="linearGradient3723">
      <stop
         id="stop3725"
         style="stop-color: rgb(134, 134, 134); stop-opacity: 1;"
         offset="0" />
      <stop
         id="stop3727"
         style="stop-color: rgb(51, 51, 51); stop-opacity: 1;"
         offset="1" />
    </linearGradient>
    <linearGradient
       inkscape:collect="always"
       xlink:href="#linearGradient2856"
       id="linearGradient2883"
       gradientUnits="userSpaceOnUse"
       x1="234.75"
       y1="431.86218"
       x2="261.72391"
       y2="443.62384"
       gradientTransform="translate(-78.5432,-308.431)" />
    <linearGradient
       id="linearGradient2856">
      <stop
         id="stop2858"
         style="stop-color: rgb(92, 92, 92); stop-opacity: 1;"
         offset="0" />
      <stop
         id="stop2860"
         style="stop-color: rgb(114, 114, 114); stop-opacity: 1;"
         offset="1" />
    </linearGradient>
    <linearGradient
       inkscape:collect="always"
       xlink:href="#linearGradient3723"
       id="linearGradient2864"
       gradientUnits="userSpaceOnUse"
       gradientTransform="matrix(0.985774,0,0,0.985774,77.6298,-301.58547)"
       x1="85.342316"
       y1="584.987"
       x2="107.32287"
       y2="623.48492" />
    <linearGradient
       id="linearGradient3242">
      <stop
         id="stop3244"
         style="stop-color: rgb(134, 134, 134); stop-opacity: 1;"
         offset="0" />
      <stop
         id="stop3246"
         style="stop-color: rgb(51, 51, 51); stop-opacity: 1;"
         offset="1" />
    </linearGradient>
    <linearGradient
       y2="623.48492"
       x2="107.32287"
       y1="584.987"
       x1="85.342316"
       gradientTransform="matrix(0.985774,0,0,0.985774,77.6298,-301.58547)"
       gradientUnits="userSpaceOnUse"
       id="linearGradient3253"
       xlink:href="#linearGradient3723"
       inkscape:collect="always" />
  </defs>
  <sodipodi:namedview
     id="base"
     pagecolor="#ffffff"
     bordercolor="#666666"
     borderopacity="1.0"
     inkscape:pageopacity="0.0"
     inkscape:pageshadow="2"
     inkscape:zoom="0.35"
     inkscape:cx="-17.21762"
     inkscape:cy="37.022546"
     inkscape:document-units="px"
     inkscape:current-layer="layer1"
     showgrid="false"
     inkscape:window-width="607"
     inkscape:window-height="493"
     inkscape:window-x="30"
     inkscape:window-y="98"
     inkscape:window-maximized="0" />
  <metadata
     id="metadata3260">
    <rdf:RDF>
      <cc:Work
         rdf:about="">
        <dc:format>image/svg+xml</dc:format>
        <dc:type
           rdf:resource="http://purl.org/dc/dcmitype/StillImage" />
        <dc:title></dc:title>
      </cc:Work>
    </rdf:RDF>
  </metadata>
  <g
     inkscape:label="Layer 1"
     inkscape:groupmode="layer"
     id="layer1"
     transform="translate(-392.21762,-318.19677)">
    <g
       transform="translate(254.58813,258.69631)"
       id="g3210">
      <path
         d="m 164.25816,162.01092 c 0,79.14568 -15.58012,111.32703 -6.6277,139.27142 4.26531,13.31388 22.51603,11.74447 25.66295,0 7.25294,-27.06834 -6.31524,-61.72033 -6.31524,-139.27142 0,-9.02586 27.64464,-7.4748 27.64464,-38.32735 0,-38.61437 -17.59166,-64.18311 -34.35823,-64.18311 -15.64771,0 -32.63509,28.03013 -32.63509,64.18311 0,28.97151 26.62867,30.88813 26.62867,38.32735 z"
         id="path3686"
         style="color:#000000;fill:url(#linearGradient2895);fill-opacity:1;fill-rule:nonzero;stroke:none;stroke-width:1;marker:none;visibility:visible;display:inline;overflow:visible" />
      <path
         d="m 171.19378,61.43123 c -19.11378,0 -38.44661,46.23953 -27.81245,75.43797 7.11665,19.54032 45.0465,19.4477 54.20174,2.60565 13.93371,-25.63253 -6.22702,-78.04362 -26.38929,-78.04362 z"
         id="path3700"
         style="opacity:0.3;color:#000000;fill:url(#radialGradient2889);fill-opacity:1;fill-rule:nonzero;stroke:none;stroke-width:1;marker:none;visibility:visible;display:inline;overflow:visible" />
      <path
         d="m 201.56071,116.8179 c -2.43359,4.22417 -5.95774,7.68395 -9.28679,11.1969 -6.0552,5.95656 -13.07897,11.38039 -21.34254,13.78013 -5.67799,1.30189 -11.55911,0.76834 -17.18496,-0.35839 -3.533,-0.7954 -6.95936,-2.1241 -10.03373,-4.04826 -1.78055,-4.5138 -2.82684,-9.30808 -3.12329,-14.15013 2.80877,-1.17614 4.56366,5.37627 7.39015,5.59035 5.16121,0.87011 10.19621,2.69768 15.04551,4.75914 3.40033,1.11882 8.09457,-2.33034 12.09124,-4.81748 4.52348,-0.93029 8.76729,-3.0961 12.46765,-5.81441 4.52253,-3.82682 8.36396,-8.35844 12.1571,-12.88531 0.72349,-0.8872 1.69968,-2.0082 1.59586,-0.0897 0.1793,2.10205 0.6412,5.7445 0.2238,6.83715 l 0,10e-6 z"
         id="path3775"
         style="opacity:0.3;color:#000000;fill:url(#linearGradient2883);fill-opacity:1;fill-rule:nonzero;stroke:none;stroke-width:1;marker:none;visibility:visible;display:inline;overflow:visible" />
      <path
         d="m 159.89723,298.37345 c 1.5469,7.00601 8.111,11.9289 14.88468,8.74162 7.51155,-3.53449 8.58701,-15.23602 8.63913,-21.57676 0.0924,-11.24267 -1.08126,-19.55103 -2.42916,-30.56331 -0.41872,-3.42089 -1.09867,-9.78773 -1.78561,-12.92237 -0.0206,8.87129 1.35848,17.46979 -0.29165,26.29117 -2.4483,8.28959 0.27533,23.44127 -7.62173,28.99423 -3.91686,2.75421 -10.9593,-2.69782 -11.39566,1.03542 z"
         id="path3886"
         style="opacity:0.3;color:#000000;fill:url(#linearGradient3253);fill-opacity:1;fill-rule:nonzero;stroke:none;stroke-width:1;marker:none;visibility:visible;display:inline;overflow:visible" />
    </g>
  </g>
</svg>
