<?xml version="1.0" encoding="UTF-8" standalone="no"?>
<!-- Created with Inkscape (http://www.inkscape.org/) -->
<svg
   xmlns:dc="http://purl.org/dc/elements/1.1/"
   xmlns:cc="http://creativecommons.org/ns#"
   xmlns:rdf="http://www.w3.org/1999/02/22-rdf-syntax-ns#"
   xmlns:svg="http://www.w3.org/2000/svg"
   xmlns="http://www.w3.org/2000/svg"
   xmlns:sodipodi="http://sodipodi.sourceforge.net/DTD/sodipodi-0.dtd"
   xmlns:inkscape="http://www.inkscape.org/namespaces/inkscape"
   sodipodi:docbase="/datas/Projs/Cliparts Stocker"
   sodipodi:docname="bread.svg"
   height="204"
   width="446"
   inkscape:version="0.46"
   sodipodi:version="0.32"
   id="svg1"
   inkscape:output_extension="org.inkscape.output.svg.inkscape"
   version="1.0">
  <defs
     id="defs3" />
  <sodipodi:namedview
     inkscape:current-layer="svg1"
     inkscape:guide-bbox="true"
     showguides="true"
     inkscape:window-y="-4"
     inkscape:window-x="-4"
     inkscape:window-height="1003"
     inkscape:window-width="1680"
     inkscape:cy="102"
     inkscape:cx="269.84874"
     inkscape:zoom="2.9349776"
     inkscape:pageshadow="2"
     inkscape:pageopacity="0.0"
     borderopacity="1.0"
     bordercolor="#666666"
     pagecolor="#ffffff"
     id="base"
     showgrid="false" />
  <metadata
     id="metadata4">
    <rdf:RDF>
      <cc:Work
         rdf:about="">
        <dc:format>image/svg+xml</dc:format>
        <dc:type
           rdf:resource="http://purl.org/dc/dcmitype/StillImage" />
        <dc:title>Bread</dc:title>
        <dc:description>jean.victor.balin@gmail.com</dc:description>
        <dc:creator>
          <cc:Agent>
            <dc:title>Jean-Victor Balin</dc:title>
          </cc:Agent>
        </dc:creator>
        <dc:date>08-12-04</dc:date>
        <cc:license
           rdf:resource="http://creativecommons.org/licenses/publicdomain/" />
        <dc:language>fr-FR</dc:language>
        <dc:subject>
          <rdf:Bag>
            <rdf:li>food</rdf:li>
            <rdf:li>bread</rdf:li>
          </rdf:Bag>
        </dc:subject>
      </cc:Work>
      <cc:License
         rdf:about="http://creativecommons.org/licenses/publicdomain/">
        <cc:permits
           rdf:resource="http://creativecommons.org/ns#Reproduction" />
        <cc:permits
           rdf:resource="http://creativecommons.org/ns#Distribution" />
        <cc:permits
           rdf:resource="http://creativecommons.org/ns#DerivativeWorks" />
      </cc:License>
    </rdf:RDF>
  </metadata>
  <g
     transform="translate(-76.823432,-64.987361)"
     id="g923">
    <path
       transform="translate(21.08436,-27.57186)"
       sodipodi:nodetypes="ccccccccccccccccccc"
       id="path910"
       d="M 175.08717,119.48994 C 167.18966,117.99956 158.7077,117.70691 150.6987,119.41791 C 115.8787,126.85791 84.676699,159.54091 67.302699,188.74891 C 61.262699,198.90391 54.822699,212.58991 56.961699,224.74891 C 57.948699,230.35591 61.364699,235.30891 62.909699,240.74891 C 66.430699,253.13991 68.997699,263.01091 80.698699,270.79391 C 107.8667,288.86391 145.4167,288.77791 176.6987,291.91791 C 207.6767,295.02691 238.5747,295.00091 269.6987,295.76391 C 290.8837,296.28291 319.1392,294.94641 340.4222,292.92041 C 367.3052,290.36241 384.6177,286.05191 410.6987,280.17391 C 437.9007,274.04391 471.0957,256.68491 489.5137,235.74791 C 495.1037,229.39291 504.02396,218.14309 499.86596,209.15109 C 497.70296,204.47409 493.8147,199.06191 490.3777,194.25291 C 468.6887,163.89891 436.8597,134.11891 400.6987,121.77191 C 387.7117,117.33791 376.47062,117.55447 370.24611,120.62943 C 350.70201,101.5751 336.31403,99.161523 322.75903,95.45752 C 303.71503,90.25352 267.16807,95.109782 261.13495,100.84291 C 239.34845,95.152906 219.5761,94.352885 196.8641,100.87989 C 186.3381,103.90489 175.38817,106.98594 175.08717,119.48994 z"
       style="fill:#000000;stroke:none" />
    <path
       transform="translate(21.08436,-27.57186)"
       sodipodi:nodetypes="cccccccc"
       id="path913"
       d="M 68.613324,222.28954 C 70.075324,210.73054 189.67036,177.41454 205.58336,185.15154 C 204.72036,177.20254 196.66561,162.42611 192.98961,155.15913 C 183.74497,141.54846 179.1837,131.87191 168.4127,127.34491 C 158.9377,123.36191 149.2697,128.04591 140.6987,131.74891 C 119.1957,141.03891 99.642699,157.41291 85.216699,175.74891 C 78.099699,184.79391 71.482699,195.92191 67.559699,206.74891 C 65.976699,211.11891 64.105324,219.09054 68.613324,222.28954 z"
       style="fill:#fee5b2;stroke:none" />
    <path
       transform="translate(21.08436,-27.57186)"
       sodipodi:nodetypes="cccccccccccccccccccccccccccc"
       id="path911"
       d="M 275.6987,101.74891 L 290.71942,116.73372 C 292.8587,119.09353 298.33196,126.04297 300.00953,130.0809 C 303.39256,137.05826 386.84531,169.72991 392.11831,200.74891 C 409.55031,199.42991 464.1867,177.26691 476.0827,191.74891 C 479.8967,196.39091 482.77445,205.73307 483.72045,211.76307 L 491.12308,208.82073 C 473.62408,177.41973 447.7567,151.53091 415.6987,135.50191 C 405.96828,129.49036 387.50429,123.70437 377.81071,126.90272 C 389.06664,144.09001 395.44982,152.64314 400.0868,173.45523 C 400.50391,176.79621 403.01255,186.1176 399.07441,191.10765 C 397.69807,187.14457 396.03709,180.08068 394.36167,175.74891 C 386.33422,155.00027 379.14225,142.41481 368.79625,128.88181 C 356.86325,113.27381 332.8187,102.08391 312.6987,99.922907 C 300.2047,98.579907 288.0747,101.21791 275.6987,101.74891 M 183.6987,115.74891 C 191.78945,119.43779 194.75665,122.93162 199.6987,130.713 L 202.64103,136.66949 C 206.55003,128.96949 214.1017,120.72591 221.6987,117.75191 C 239.8097,110.66291 257.06785,113.74189 270.36685,129.11189 C 279.14285,139.25389 285.4927,153.64991 290.8387,165.74891 C 293.60276,173.94328 296.79611,182.75271 299.64379,183.32762 C 303.10699,183.80489 305.35379,176.07142 306.99238,173.60904 C 303.90954,173.83031 302.38546,168.09137 301.16446,165.15837 C 296.78946,154.64537 296.2937,148.19591 289.0757,137.74891 C 280.1847,124.87991 264.5967,106.97591 248.5287,103.05091 C 237.9427,100.46591 223.3237,102.68228 212.6987,104.25428 C 203.9737,105.54628 188.8687,107.70391 183.6987,115.74891 z"
       style="fill:#fee5b2;stroke:none" />
    <path
       transform="translate(21.08436,-27.57186)"
       sodipodi:nodetypes="cccccccccccccccccccccccccccccsccc"
       id="path912"
       d="M 302.08789,173.91776 C 297.59736,173.2176 295.23319,164.07266 292.54281,158.92951 C 282.37181,134.23051 272.3607,113.73691 240.6987,113.74891 C 234.6677,113.75091 229.4057,114.59291 223.6987,116.61291 C 216.8957,119.02091 203.16162,122.11218 201.7057,129.20491 C 201.59504,134.31595 201.98473,135.08143 204.21703,141.54618 C 206.77359,151.06058 209.1677,160.90791 209.7887,169.74891 C 210.0427,173.37491 211.24282,180.55791 206.6397,182.71591 C 201.6187,183.30691 195.9157,176.34291 193.4847,172.73391 C 186.6117,162.53191 180.1727,150.86391 168.6987,145.12691 C 138.3557,129.95491 100.3807,169.11691 83.694699,189.83891 C 77.790699,197.16991 64.724699,208.87491 68.341699,219.73391 C 70.336699,225.72591 79.469699,231.23091 84.122699,235.27391 C 109.5457,257.36491 133.9075,258.95798 165.2615,263.04298 C 208.7755,268.71098 222.80769,273.47841 266.43069,273.15641 C 272.45269,273.11141 307.5097,268.86766 313.6987,268.79366 C 349.8407,268.36366 387.0627,272.30791 421.3247,261.62391 C 440.4657,255.65391 457.4627,238.55991 472.6087,224.53991 C 476.1067,221.30291 491.19379,215.01553 491.19379,210.13653 C 491.19279,205.58353 479.6117,195.13791 476.8907,191.74891 C 466.5157,178.82791 448.2877,162.30391 433.6987,154.53091 C 427.7177,151.34391 410.5887,141.60591 403.9267,144.36791 C 399.60815,147.59231 401.4437,153.67642 401.6637,157.74891 C 402.2807,168.84391 409.31608,190.16642 398.52769,195.6805 C 391.87903,197.06423 379.01043,137.51653 356.99934,126.0992 C 349.55134,120.7662 334.77139,114.52919 326.68503,113.47634 C 318.13374,112.04098 315.36344,111.0086 305.89002,111.08885 C 299.04367,111.08227 296.59885,114.11487 294.98485,116.31987 C 294.1561,120.1823 296.24126,121.07933 299.13715,127.46415 C 306.0747,147.09876 308.52897,163.2439 305.96025,173.27003 M 385.6987,122.74891 L 386.6987,123.74891 L 385.6987,122.74891 z"
       style="fill:#f9cb98;stroke:none" />
    <path
       transform="translate(21.08436,-27.57186)"
       sodipodi:nodetypes="ccccccccccccccccccccccc"
       id="path914"
       d="M 79.698699,235.19045 C 121.78837,269.18743 175.52967,267.46911 224.30223,268.90105 C 274.75581,270.38232 326.22061,278.70698 375.9351,266.79426 C 402.31219,260.47331 441.51907,250.32292 466.6762,236.10653 C 472.45276,226.1256 471.38637,235.19203 474.63825,221.64032 C 477.92438,215.15855 452.41096,190.95007 443.38558,183.72387 C 434.81473,178.12373 429.56636,175.73243 422.99969,175.79259 C 416.98358,175.8672 417.17522,186.35191 417.11095,191.87146 C 416.96233,204.60604 409.21299,229.05239 395.01473,223.33308 C 371.75264,213.96294 371.9113,173.32371 360.1944,152.1624 C 352.28439,137.87676 340.27527,128.52225 325.72654,134.18382 C 317.39075,137.42672 317.60665,145.6092 317.69603,154.56901 C 317.87176,172.23834 318.04409,168.56319 317.48113,182.24502 C 316.36648,188.42039 314.19742,202.78182 307.64909,204.01642 C 300.57256,205.35089 293.31627,184.55658 290.82789,178.6351 C 280.87133,154.94564 264.09716,132.64802 250.4112,132.81325 C 240.81314,128.94582 221.49552,138.77201 218.7129,150.95909 C 216.40025,161.08249 218.90772,173.20459 219.24111,183.44833 C 219.41885,188.9029 218.45989,201.88213 212.60244,203.29842 C 209.50049,204.04808 205.87532,204.7035 203.21422,203.1344 C 187.49059,193.85932 184.83551,169.28061 170.07591,161.18718 C 159.49374,155.38484 148.06805,163.07757 138.94598,169.17713 C 116.93813,183.88993 91.453761,207.89346 79.698699,235.19045 z"
       style="fill:#f1b180;fill-opacity:1;stroke:none" />
    <path
       transform="translate(21.08436,-27.57186)"
       id="path915"
       d="M 304.6987,168.74891 L 305.6987,169.74891 L 304.6987,168.74891 M 201.6987,180.74891 L 202.6987,181.74891 L 201.6987,180.74891 z"
       style="fill:#fee5b2;stroke:none" />
    <path
       transform="translate(21.08436,-27.57186)"
       sodipodi:nodetypes="ccccccccccccccc"
       id="path916"
       d="M 65.832825,217.34241 C 68.094825,230.49041 70.692699,249.84491 79.882699,259.70591 C 96.174699,277.18491 128.5597,279.25491 150.6987,281.90391 C 196.3767,287.36991 241.7197,288.45391 287.6987,288.74991 C 322.4057,288.97291 355.9582,285.99741 391.6987,277.69791 C 419.9597,267.67291 452.0597,259.81691 474.6987,238.83791 C 480.5637,233.40291 495.4447,220.55791 492.0517,210.81191 C 488.5837,200.84891 478.2387,217.10091 476.0797,219.74791 C 455.5277,244.94391 418.37695,251.22191 388.90195,258.66691 C 364.84295,264.74291 341.99995,267.16516 317.21895,266.76016 C 312.07195,266.67616 281.5892,267.45666 276.4062,267.65066 C 230.5982,269.36166 205.2937,265.14447 159.6987,259.74647 C 146.2917,258.15947 129.84307,256.77108 116.97407,252.02908 C 104.71007,247.51108 94.909699,243.76791 84.983699,235.27391 C 78.223699,229.48891 73.934825,221.19541 65.832825,217.34241 z"
       style="fill:#935149;stroke:none" />
  </g>
</svg>
