<?xml version="1.0" encoding="UTF-8" standalone="no"?>
<!-- Created with Inkscape (http://www.inkscape.org/) -->

<svg
   xmlns:dc="http://purl.org/dc/elements/1.1/"
   xmlns:cc="http://creativecommons.org/ns#"
   xmlns:rdf="http://www.w3.org/1999/02/22-rdf-syntax-ns#"
   xmlns:svg="http://www.w3.org/2000/svg"
   xmlns="http://www.w3.org/2000/svg"
   xmlns:xlink="http://www.w3.org/1999/xlink"
   xmlns:sodipodi="http://sodipodi.sourceforge.net/DTD/sodipodi-0.dtd"
   xmlns:inkscape="http://www.inkscape.org/namespaces/inkscape"
   width="174.74625"
   height="201.01021"
   id="svg2"
   version="1.1"
   inkscape:version="0.47 r22583"
   sodipodi:docname="Neues Dokument 1">
  <defs
     id="defs4">
    <linearGradient
       id="linearGradient3594">
      <stop
         style="stop-color:#d7c01b;stop-opacity:1;"
         offset="0"
         id="stop3596" />
      <stop
         style="stop-color:#de8200;stop-opacity:1;"
         offset="1"
         id="stop3598" />
    </linearGradient>
    <inkscape:perspective
       sodipodi:type="inkscape:persp3d"
       inkscape:vp_x="0 : 526.18109 : 1"
       inkscape:vp_y="0 : 1000 : 0"
       inkscape:vp_z="744.09448 : 526.18109 : 1"
       inkscape:persp3d-origin="372.04724 : 350.78739 : 1"
       id="perspective10" />
    <linearGradient
       inkscape:collect="always"
       xlink:href="#linearGradient3594"
       id="linearGradient3600"
       x1="115.15738"
       y1="562.43817"
       x2="151.52287"
       y2="582.64124"
       gradientUnits="userSpaceOnUse" />
    <linearGradient
       inkscape:collect="always"
       xlink:href="#linearGradient3594"
       id="linearGradient3604"
       gradientUnits="userSpaceOnUse"
       x1="115.15738"
       y1="562.43817"
       x2="151.52287"
       y2="582.64124" />
    <linearGradient
       inkscape:collect="always"
       xlink:href="#linearGradient3594"
       id="linearGradient3608"
       gradientUnits="userSpaceOnUse"
       x1="115.15738"
       y1="562.43817"
       x2="151.52287"
       y2="582.64124" />
    <linearGradient
       inkscape:collect="always"
       xlink:href="#linearGradient3594"
       id="linearGradient3612"
       gradientUnits="userSpaceOnUse"
       x1="115.15738"
       y1="562.43817"
       x2="151.52287"
       y2="582.64124" />
    <linearGradient
       inkscape:collect="always"
       xlink:href="#linearGradient3594"
       id="linearGradient3616"
       gradientUnits="userSpaceOnUse"
       x1="115.15738"
       y1="562.43817"
       x2="151.52287"
       y2="582.64124" />
    <linearGradient
       inkscape:collect="always"
       xlink:href="#linearGradient3594"
       id="linearGradient3620"
       gradientUnits="userSpaceOnUse"
       x1="115.15738"
       y1="562.43817"
       x2="151.52287"
       y2="582.64124" />
  </defs>
  <sodipodi:namedview
     id="base"
     pagecolor="#ffffff"
     bordercolor="#666666"
     borderopacity="1.0"
     inkscape:pageopacity="0.0"
     inkscape:pageshadow="2"
     inkscape:zoom="0.98994949"
     inkscape:cx="108.88401"
     inkscape:cy="-41.446742"
     inkscape:document-units="px"
     inkscape:current-layer="layer1"
     showgrid="false"
     inkscape:snap-global="false"
     objecttolerance="34"
     inkscape:window-width="1280"
     inkscape:window-height="800"
     inkscape:window-x="0"
     inkscape:window-y="0"
     inkscape:window-maximized="1" />
  <metadata
     id="metadata7">
    <rdf:RDF>
      <cc:Work
         rdf:about="">
        <dc:format>image/svg+xml</dc:format>
        <dc:type
           rdf:resource="http://purl.org/dc/dcmitype/StillImage" />
        <dc:title></dc:title>
      </cc:Work>
    </rdf:RDF>
  </metadata>
  <g
     inkscape:label="Ebene 1"
     inkscape:groupmode="layer"
     id="layer1"
     transform="translate(-100.51525,-451.83157)">
    <path
       style="fill:#ffcc00;stroke:#000000;stroke-width:1px;stroke-linecap:round;stroke-linejoin:round;stroke-opacity:1"
       d="m 274.76149,652.34178 -2.0203,-101.01526 -171.72594,-50.50762 4.04061,98.99495 169.70563,52.52793 z"
       id="path2816"
       sodipodi:nodetypes="ccccc" />
    <path
       style="fill:#ff6600;stroke:#000000;stroke-width:1px;stroke-linecap:round;stroke-linejoin:round;stroke-opacity:1"
       d="M 273.24627,552.33667 101.01525,500.81889 c 29.94953,-29.59492 67.27358,-37.79547 101.01526,-48.48732 l 71.21576,100.0051 z"
       id="path2818"
       sodipodi:nodetypes="cccc" />
    <path
       sodipodi:type="arc"
       style="fill:url(#linearGradient3600);fill-opacity:1"
       id="path2820"
       sodipodi:cx="131.31982"
       sodipodi:cy="562.43817"
       sodipodi:rx="20.203051"
       sodipodi:ry="21.213203"
       d="m 151.52287,562.43817 c 0,11.71573 -9.04521,21.2132 -20.20305,21.2132 -11.15783,0 -20.20305,-9.49747 -20.20305,-21.2132 0,-11.71573 9.04522,-21.2132 20.20305,-21.2132 11.15784,0 20.20305,9.49747 20.20305,21.2132 z"
       transform="translate(103.03556,8.0812208)" />
    <path
       transform="matrix(0.52380952,0,0,0.52380952,63.014274,245.60435)"
       d="m 151.52287,562.43817 c 0,11.71573 -9.04521,21.2132 -20.20305,21.2132 -11.15783,0 -20.20305,-9.49747 -20.20305,-21.2132 0,-11.71573 9.04522,-21.2132 20.20305,-21.2132 11.15784,0 20.20305,9.49747 20.20305,21.2132 z"
       sodipodi:ry="21.213203"
       sodipodi:rx="20.203051"
       sodipodi:cy="562.43817"
       sodipodi:cx="131.31982"
       id="path3602"
       style="fill:url(#linearGradient3604);fill-opacity:1"
       sodipodi:type="arc" />
    <path
       sodipodi:type="arc"
       style="fill:url(#linearGradient3608);fill-opacity:1"
       id="path3606"
       sodipodi:cx="131.31982"
       sodipodi:cy="562.43817"
       sodipodi:rx="20.203051"
       sodipodi:ry="21.213203"
       d="m 151.52287,562.43817 c 0,11.71573 -9.04521,21.2132 -20.20305,21.2132 -11.15783,0 -20.20305,-9.49747 -20.20305,-21.2132 0,-11.71573 9.04522,-21.2132 20.20305,-21.2132 11.15784,0 20.20305,9.49747 20.20305,21.2132 z"
       transform="matrix(0.82380952,0,0,0.9047619,31.699546,73.7686)" />
    <path
       transform="matrix(0.82380952,0,0,0.9047619,76.146258,43.464024)"
       d="m 151.52287,562.43817 c 0,11.71573 -9.04521,21.2132 -20.20305,21.2132 -11.15783,0 -20.20305,-9.49747 -20.20305,-21.2132 0,-11.71573 9.04522,-21.2132 20.20305,-21.2132 11.15784,0 20.20305,9.49747 20.20305,21.2132 z"
       sodipodi:ry="21.213203"
       sodipodi:rx="20.203051"
       sodipodi:cy="562.43817"
       sodipodi:cx="131.31982"
       id="path3610"
       style="fill:url(#linearGradient3612);fill-opacity:1"
       sodipodi:type="arc" />
    <path
       sodipodi:type="arc"
       style="fill:url(#linearGradient3616);fill-opacity:1"
       id="path3614"
       sodipodi:cx="131.31982"
       sodipodi:cy="562.43817"
       sodipodi:rx="20.203051"
       sodipodi:ry="21.213203"
       d="m 151.52287,562.43817 c 0,11.71573 -9.04521,21.2132 -20.20305,21.2132 -11.15783,0 -20.20305,-9.49747 -20.20305,-21.2132 0,-11.71573 9.04522,-21.2132 20.20305,-21.2132 11.15784,0 20.20305,9.49747 20.20305,21.2132 z"
       transform="matrix(0.82380952,0,0,0.9047619,138.77572,106.09348)" />
    <path
       sodipodi:type="arc"
       style="fill:url(#linearGradient3620);fill-opacity:1"
       id="path3618"
       sodipodi:cx="131.31982"
       sodipodi:cy="562.43817"
       sodipodi:rx="20.203051"
       sodipodi:ry="21.213203"
       d="m 151.52287,562.43817 c 0,11.71573 -9.04521,21.2132 -20.20305,21.2132 -11.15783,0 -20.20305,-9.49747 -20.20305,-21.2132 0,-11.71573 9.04522,-21.2132 20.20305,-21.2132 11.15784,0 20.20305,9.49747 20.20305,21.2132 z"
       transform="matrix(0.52380952,0,0,0.52380952,127.66404,308.23381)" />
  </g>
</svg>
