<?xml version="1.0" encoding="utf-8"?>
<!-- Generator: Adobe Illustrator 12.0.1, SVG Export Plug-In . SVG Version: 6.00 Build 51448)  -->
<!DOCTYPE svg PUBLIC "-//W3C//DTD SVG 1.1//EN" "http://www.w3.org/Graphics/SVG/1.1/DTD/svg11.dtd" [
	<!ENTITY ns_svg "http://www.w3.org/2000/svg">
	<!ENTITY ns_xlink "http://www.w3.org/1999/xlink">
]>
<svg  version="1.1" id="Layer_1" xmlns="&ns_svg;" xmlns:xlink="&ns_xlink;" width="596.309" height="316.76"
	 viewBox="0 0 596.309 316.76" overflow="visible" enable-background="new 0 0 596.309 316.76" xml:space="preserve">
<g>
	<path fill-rule="evenodd" clip-rule="evenodd" d="M82.015,44.476c-3.458,0.792-4.222-1.112-6-2
		C74.645,32.495,87.109,37.443,82.015,44.476z"/>
	<path fill-rule="evenodd" clip-rule="evenodd" d="M46.015,44.476c3.526,0.805,3.551,5.142,1,7
		C43.489,50.671,43.464,46.334,46.015,44.476z"/>
	<path fill-rule="evenodd" clip-rule="evenodd" fill="#9B5F0D" d="M343.015,87.476c-15.552-5.688-19.13-21.549-32-28
		c-6.746-3.381-23.209-5.361-32-5c-15.568,0.64-28.903,6.06-40,14c-4.994,3.573-14.109,11.465-18,17
		c-8.004,11.387-5.977,27.395-13,38c-5.377,8.12-13.172,9.704-18,18c0.264-6.056,5.577-9.876,9-14c3.299-3.975,8.063-8.311,10-14
		c3.379-9.924,2.621-15.894,8-25c9.626-16.297,23.794-28.569,45-34c10.207-2.614,23.062-4.214,34-3
		C321.356,54.29,328.214,72.504,343.015,87.476z"/>
	<path fill-rule="evenodd" clip-rule="evenodd" d="M38.015,52.476C41.501,57.159,32.969,56.503,38.015,52.476L38.015,52.476z"/>
	<path fill-rule="evenodd" clip-rule="evenodd" fill="#E6E5D3" d="M336.015,153.476c-3.104,0.104-2.854-3.146-7-2
		c-3.75,2.154,0.293,6.154-2,9c-19.143,6.524-40.259,11.074-54,23c-11.454,14.546-21.774,30.226-33,45
		c-15.116,0.79-29.926,6.411-45,4c-5.193-5.985-6.629-26.896-8-47c-0.806-11.814-1.531-27.6,2-37c4.42-11.769,21.572-18.174,26-31
		c2.51-22.341,9.77-33.962,24-45c12.484-9.683,24.725-14.117,45-14c9.646,0.056,22.169,0.907,30,6c5.334,3.469,7.412,9.993,13,16
		c4.135,4.444,10.534,7.44,16,11c10.793,7.028,15.35,8.98,19,23c1.125,4.319,2.438,11.2,2,13c-1.175,4.818-9.685,9.117-14,13
		C344.506,145.433,340.004,148.771,336.015,153.476z M236.015,90.476c0.914,1.753,1.859,3.474,5,3c-0.888-3.649,1.766-5.326,0-7
		C237.754,86.216,236.202,87.663,236.015,90.476z M303.015,87.476c-1.798,1.783,1.158,3.917,2,6c2.049-1.618,4.635-2.699,5-6
		C308.681,86.049,304.349,86.049,303.015,87.476z M336.015,110.476c2.403,2.285,6.047,0.171,8-1
		C344.032,103.614,334.487,102.522,336.015,110.476z M339.015,124.476c0,0.667,0,1.333,0,2c0.61,0.057,1.184,0.149,1,1
		c0.667,0,1.333,0,2,0c0.057-0.61,0.149-1.184,1-1c0-0.667,0-1.333,0-2c-0.61-0.057-1.184-0.149-1-1c-0.667,0-1.333,0-2,0
		C339.958,124.086,339.865,124.66,339.015,124.476z M318.015,128.476c1.122,0.211,1.557,1.11,2,2c2.933-0.068,3.714-2.286,5-4
		C323.104,123.708,317.886,123.962,318.015,128.476z M329.015,133.476c-0.857,3.19,1.574,3.093,2,5c3.201-0.132,4.399-2.267,4-6
		C332.55,132.344,330.196,132.325,329.015,133.476z M314.015,140.476c0,1.667,0,3.333,0,5c3.176,1.504,8.138,1.504,8-3
		C320.884,138.625,317.727,139.778,314.015,140.476z M206.015,157.476c3.131,0.464,4.464-0.869,4-4c-1.352-0.314-1.91-1.423-4-1
		C206.015,154.143,206.015,155.81,206.015,157.476z M243.015,162.476c0.122,2.545,1.456,3.878,4,4c0.013-1.987,2.729-1.271,2-4
		C246.677,162.167,244.883,160.518,243.015,162.476z M209.015,169.476c2.149-2.134,0.371-5.446-2-6
		C203.9,165.899,206.261,167.899,209.015,169.476z M195.015,171.476c-1.687-2.717,1.586-4.684-2-6
		C190.789,167.009,189.636,172.524,195.015,171.476z M222.015,180.476c0.914,1.753,1.859,3.475,5,3c2.058-2.352,1.035-7.686-2-8
		C224.706,177.834,221.542,177.336,222.015,180.476z M206.015,181.476c1.427,0.239,1.687,1.646,3,2c0.294-2.039,2.706-1.961,3-4
		c-1.427-0.239-1.687-1.646-3-2C208.72,179.515,206.309,179.437,206.015,181.476z M215.015,196.476c2.917,0.251,3.45-1.883,5-3
		c-0.623-3.043-2.221-5.112-6-5C214.134,191.357,213.468,195.022,215.015,196.476z M234.015,206.476c0.294-2.039,2.706-1.961,3-4
		c-1.667,0-3.333,0-5,0C231.735,204.755,232.255,206.235,234.015,206.476z M202.015,213.476c2.46,1.925,5.54,4.318,8,1
		c-0.05-3.95-2.05-5.95-6-6C203.585,210.38,201.86,210.989,202.015,213.476z M227.015,211.476c0.667,0,1.333,0,2,0
		c1.119-1.44,1.078-2.44-1-3C227.96,209.754,226.733,209.861,227.015,211.476z"/>
	<path fill-rule="evenodd" clip-rule="evenodd" d="M33.015,60.476c2.544,0.122,3.878,1.456,4,4c-1.279,1.368-4.721,1.368-6,0
		C31.535,62.997,32.494,61.956,33.015,60.476z"/>
	<path fill-rule="evenodd" clip-rule="evenodd" d="M35.015,67.476c4.15-0.8,5.857,3.849,4,6
		C34.898,74.243,32.718,70.066,35.015,67.476z"/>
	<path fill-rule="evenodd" clip-rule="evenodd" d="M37.015,85.476c-2.488,0.154-3.096-1.571-5-2
		C30.307,72.082,44.446,80.364,37.015,85.476z"/>
	<path fill-rule="evenodd" clip-rule="evenodd" d="M44.015,87.476c0.229,3.562-1.438,5.229-5,5
		C35.842,89.383,40.922,84.304,44.015,87.476z"/>
	<path fill-rule="evenodd" clip-rule="evenodd" d="M241.015,86.476c1.766,1.674-0.888,3.351,0,7c-3.141,0.474-4.086-1.247-5-3
		C236.202,87.663,237.754,86.216,241.015,86.476z"/>
	<path fill-rule="evenodd" clip-rule="evenodd" d="M310.015,87.476c-0.365,3.301-2.951,4.382-5,6c-0.842-2.083-3.798-4.217-2-6
		C304.349,86.049,308.681,86.049,310.015,87.476z"/>
	<path fill-rule="evenodd" clip-rule="evenodd" fill="#9B5F0D" d="M345.015,87.476c1.479,0.521,2.521,1.479,4,2
		C348.387,91.909,343.962,90.005,345.015,87.476z"/>
	<path fill-rule="evenodd" clip-rule="evenodd" fill="#9B5F0D" d="M350.015,90.476c3.21,0.791,4.369,3.631,7,5
		C354.884,97.54,350.231,93.642,350.015,90.476z"/>
	<path fill-rule="evenodd" clip-rule="evenodd" d="M51.015,97.476c-1.667,0-3.333,0-5,0C45.542,93.306,52.124,91.687,51.015,97.476z
		"/>
	<path fill-rule="evenodd" clip-rule="evenodd" d="M37.015,95.476c4.046-1.121,4.945,3.071,3,5
		C38.262,99.562,36.541,98.617,37.015,95.476z"/>
	<path fill-rule="evenodd" clip-rule="evenodd" fill="#9B5F0D" d="M359.015,97.476c6.585,6.082,9.515,15.818,9,29
		C365.036,116.788,362.985,106.172,359.015,97.476z"/>
	<path fill-rule="evenodd" clip-rule="evenodd" d="M44.015,98.476c1.94-0.396,1.461,4.555-1,3c0-0.667,0-1.333,0-2
		C43.865,99.66,43.958,99.086,44.015,98.476z"/>
	<path fill-rule="evenodd" clip-rule="evenodd" d="M47.015,100.476c3.851-0.788,3.851,4.788,0,4
		C47.015,103.143,47.015,101.81,47.015,100.476z"/>
	<path fill-rule="evenodd" clip-rule="evenodd" d="M57.015,103.476c0.81,0.19,0.997,1.003,2,1c-0.19,0.81-1.003,0.997-1,2
		c-0.81-0.19-0.997-1.003-2-1C56.205,104.666,57.018,104.479,57.015,103.476z"/>
	<path fill-rule="evenodd" clip-rule="evenodd" d="M26.015,105.476c-0.777,0.89-1.075,2.258-1,4c-3.26,0.26-4.813-1.187-5-4
		C21.293,104.108,24.736,104.108,26.015,105.476z"/>
	<path fill-rule="evenodd" clip-rule="evenodd" d="M72.015,106.476c0.81,0.19,0.997,1.003,2,1c-0.19,0.81-1.003,0.997-1,2
		c-0.81-0.19-0.997-1.003-2-1C71.205,107.666,72.018,107.479,72.015,106.476z"/>
	<path fill-rule="evenodd" clip-rule="evenodd" d="M87.015,110.476c-0.136,1.646-6.864,1.646-7,0
		C79.946,106.102,86.302,109.32,87.015,110.476z"/>
	<path fill-rule="evenodd" clip-rule="evenodd" d="M92.015,110.476c1.313,0.354,1.573,1.761,3,2c-0.102,2.544-3.727,2.363-5,1
		C90.368,112.163,91.775,111.903,92.015,110.476z"/>
	<path fill-rule="evenodd" clip-rule="evenodd" d="M100.015,114.476c-2.039,2.009-1.961-0.442-4-1
		C96.195,110.576,100.768,111.066,100.015,114.476z"/>
	<path fill-rule="evenodd" clip-rule="evenodd" d="M21.015,112.476c0.399,3.733-0.799,5.868-4,6
		C14.684,115.852,17.338,112.149,21.015,112.476z"/>
	<path fill-rule="evenodd" clip-rule="evenodd" d="M104.015,112.476c2.043,0.957,3.957,2.043,6,3
		C108.928,119.481,102.807,116.774,104.015,112.476z"/>
	<path fill-rule="evenodd" clip-rule="evenodd" d="M195.015,113.476c2.039,0.294,1.961,2.706,4,3c-0.658,1.342-2.138,1.862-4,2
		C193.731,117.162,193.731,114.79,195.015,113.476z"/>
	<path fill-rule="evenodd" clip-rule="evenodd" d="M118.015,117.476c0.136-1.646,6.864-1.646,7,0
		C125.083,121.85,118.728,118.632,118.015,117.476z"/>
	<path fill-rule="evenodd" clip-rule="evenodd" d="M182.015,116.476c1.975,0.691,2.666,2.667,3,5
		C181.082,122.742,182.04,119.117,182.015,116.476z"/>
	<path fill-rule="evenodd" clip-rule="evenodd" d="M134.015,119.476c0.667,0,1.333,0,2,0c0,0.667,0,1.333,0,2c-0.667,0-1.333,0-2,0
		C134.015,120.81,134.015,120.143,134.015,119.476z"/>
	<path fill-rule="evenodd" clip-rule="evenodd" d="M164.015,119.476c3.473-0.349,4.186,4.696,3,6
		C162.528,126.839,162.16,121.449,164.015,119.476z"/>
	<path fill-rule="evenodd" clip-rule="evenodd" d="M143.015,121.476c1.759,0.241,2.279,1.721,2,4
		C143.272,124.573,141.163,123.239,143.015,121.476z"/>
	<path fill-rule="evenodd" clip-rule="evenodd" d="M175.015,121.476c1.313,0.353,1.573,1.761,3,2c-0.354,1.313-1.761,1.573-2,3
		c-1.313-0.354-1.573-1.76-3-2C173.368,123.163,174.775,122.903,175.015,121.476z"/>
	<path fill-rule="evenodd" clip-rule="evenodd" d="M189.015,121.476c2.322,0.344,4.686,0.647,4,4
		C189.884,125.94,188.551,124.607,189.015,121.476z"/>
	<path fill-rule="evenodd" clip-rule="evenodd" d="M21.015,131.476c0.729,2.729-1.987,2.013-2,4c-3.377-1.956-3.691-6.976-7-9
		C16.542,116.607,18.718,128.917,21.015,131.476z"/>
	<path fill-rule="evenodd" clip-rule="evenodd" d="M156.015,122.476c1.313,0.354,1.573,1.761,3,2c-0.354,1.313-1.761,1.573-2,3
		c-1.313-0.354-1.573-1.761-3-2C154.368,124.163,155.775,123.903,156.015,122.476z"/>
	<path fill-rule="evenodd" clip-rule="evenodd" d="M340.015,123.476c0.667,0,1.333,0,2,0c-0.184,0.851,0.39,0.943,1,1
		c0,0.667,0,1.333,0,2c-0.851-0.184-0.943,0.39-1,1c-0.667,0-1.333,0-2,0c0.184-0.851-0.39-0.943-1-1c0-0.667,0-1.333,0-2
		C339.865,124.66,339.958,124.086,340.015,123.476z"/>
	<path fill-rule="evenodd" clip-rule="evenodd" d="M325.015,126.476c-1.286,1.714-2.067,3.932-5,4c-0.443-0.89-0.878-1.789-2-2
		C317.886,123.962,323.104,123.708,325.015,126.476z"/>
	<path fill-rule="evenodd" clip-rule="evenodd" d="M168.015,126.476c1.172,0.162,0.843,1.823,1,3c-1,0-2,0-3,0
		C166.368,128.163,167.775,127.903,168.015,126.476z"/>
	<path fill-rule="evenodd" clip-rule="evenodd" d="M179.015,130.476c-2.081,2.169-3.232-0.122-5-1
		C174.102,126.501,179.978,126.801,179.015,130.476z"/>
	<path fill-rule="evenodd" clip-rule="evenodd" d="M31.015,132.476c1.368,1.278,1.368,4.722,0,6c-2.813-0.187-4.26-1.74-4-5
		C27.905,132.699,29.273,132.401,31.015,132.476z"/>
	<path fill-rule="evenodd" clip-rule="evenodd" d="M335.015,132.476c0.399,3.733-0.799,5.868-4,6c-0.426-1.907-2.857-1.81-2-5
		C330.196,132.325,332.55,132.344,335.015,132.476z"/>
	<path fill-rule="evenodd" clip-rule="evenodd" d="M322.015,142.476c0.138,4.504-4.824,4.504-8,3c0-1.667,0-3.333,0-5
		C317.727,139.778,320.884,138.625,322.015,142.476z"/>
	<path fill-rule="evenodd" clip-rule="evenodd" d="M174.015,142.476c3.19-0.857,3.093,1.574,5,2c-0.354,1.313-1.761,1.573-2,3
		C175.262,146.562,173.541,145.617,174.015,142.476z"/>
	<path fill-rule="evenodd" clip-rule="evenodd" fill="#9B5F0D" d="M187.015,142.476c4.208,0.332-0.811,4.164-1,5
		c-6.97,30.791,2.019,59.954,4,84c-10.635-2.982-7.306-15.221-8-31C181.025,177.96,178.978,155.188,187.015,142.476z"/>
	<path fill-rule="evenodd" clip-rule="evenodd" fill="#9B5F0D" d="M428.015,150.476c-15.138-0.471-27.538,1.795-37,7
		c4.903-4.583,16.604-9.847,26-10C420.664,147.417,425.833,147.708,428.015,150.476z"/>
	<path fill-rule="evenodd" clip-rule="evenodd" d="M16.015,148.476c2.296,2.796,0.55,7.955-4,7
		C9.34,152.302,12.116,148.173,16.015,148.476z"/>
	<path fill-rule="evenodd" clip-rule="evenodd" d="M36.015,148.476c4.116-0.767,6.296,3.41,4,6
		C35.765,155.393,35.744,152.08,36.015,148.476z"/>
	<path fill-rule="evenodd" clip-rule="evenodd" d="M163.015,149.476c4.063-0.94,3.466,5.415,2,7
		C160.5,156.604,160.246,151.387,163.015,149.476z"/>
	<path fill-rule="evenodd" clip-rule="evenodd" d="M206.015,152.476c2.09-0.423,2.648,0.686,4,1c0.464,3.131-0.869,4.464-4,4
		C206.015,155.81,206.015,154.143,206.015,152.476z"/>
	<path fill-rule="evenodd" clip-rule="evenodd" fill="#E6E5D3" d="M440.015,160.476c-32.368,6.298-50.908,26.425-74,42
		c-35.661-4.32-50.167,32.509-69,49c-6.021,1.312-12.201,2.466-18,4c-2.877-2.99,1.392-7.675,3-11c5.209-10.771,11.077-25.291,20-33
		c7.104-0.495,11.127-7.048,17-10c15.617-7.852,32.691-9.914,47-20c11.971-8.438,20.938-18.41,34-25
		C412.379,155.391,434.46,148.371,440.015,160.476z M392.015,166.476c0,1.667,0,3.333,0,5c0.776,0.224,1.973,0.027,2,1
		c2.933-0.067,3.714-2.286,5-4c-4.426,0.155,0.473-2.827-2-4C394.527,164.322,393.919,166.047,392.015,166.476z M384.015,180.476
		c2.152-0.848,3.537-2.463,3-6C381.361,170.125,376.687,180.092,384.015,180.476z M371.015,189.476c-0.186-1.48-2.417-0.917-4-1
		C364.88,192.154,372.106,192.987,371.015,189.476z M298.015,221.476c1,0,2,0,3,0c0-1,0-2,0-3c-0.667,0-1.333,0-2,0
		C298.96,219.754,297.733,219.861,298.015,221.476z M304.015,224.476c-1.333,0-2.667,0-4,0
		C298.428,229.125,305.182,227.947,304.015,224.476z M294.015,237.476c6.781,3.036,9.163-6.194,1-6
		C293.863,232.658,293.883,235.011,294.015,237.476z"/>
	<path fill-rule="evenodd" clip-rule="evenodd" fill="#9B5F0D" d="M389.015,158.476
		C392.821,156.746,382.647,161.371,389.015,158.476L389.015,158.476z"/>
	<path fill-rule="evenodd" clip-rule="evenodd" fill="#9B5F0D" d="M385.015,159.476c-1.87,8.137-15.69,12.971-22,20
		C364.202,170.657,379.147,166.948,385.015,159.476z"/>
	<path fill-rule="evenodd" clip-rule="evenodd" d="M249.015,162.476c0.729,2.729-1.987,2.013-2,4c-2.544-0.122-3.878-1.455-4-4
		C244.883,160.518,246.677,162.167,249.015,162.476z"/>
	<path fill-rule="evenodd" clip-rule="evenodd" d="M207.015,163.476c2.371,0.554,4.149,3.866,2,6
		C206.261,167.899,203.9,165.899,207.015,163.476z"/>
	<path fill-rule="evenodd" clip-rule="evenodd" d="M48.015,164.476c2.319-0.319,3.839,0.161,5,1c0.473,3.14-2.691,2.642-3,5
		C47.46,170.365,48.03,167.127,48.015,164.476z"/>
	<path fill-rule="evenodd" clip-rule="evenodd" d="M34.015,165.476c1,0,2,0,3,0c1.706,1.613,0.916,5.154-1,6
		C32.233,172.333,32.476,167,34.015,165.476z"/>
	<path fill-rule="evenodd" clip-rule="evenodd" d="M165.015,165.476c2.09-0.424,2.648,0.686,4,1c1.307,4.307-2.837,3.162-4,5
		C162.789,171.056,164.232,166.17,165.015,165.476z"/>
	<path fill-rule="evenodd" clip-rule="evenodd" d="M193.015,165.476c3.586,1.316,0.313,3.283,2,6
		C189.636,172.524,190.789,167.009,193.015,165.476z"/>
	<path fill-rule="evenodd" clip-rule="evenodd" d="M156.015,166.476c1.464,0.869,3.169,1.497,3,4c-1.161,0.839-2.681,1.319-5,1
		C153.157,168.286,155.588,168.383,156.015,166.476z"/>
	<path fill-rule="evenodd" clip-rule="evenodd" d="M165.015,173.476c1.313,0.354,1.573,1.761,3,2c-0.354,1.313-1.761,1.573-2,3
		c-1.313-0.354-1.573-1.761-3-2C163.368,175.163,164.775,174.903,165.015,173.476z"/>
	<path fill-rule="evenodd" clip-rule="evenodd" d="M387.015,174.476c0.537,3.537-0.848,5.152-3,6
		C376.687,180.092,381.361,170.125,387.015,174.476z"/>
	<path fill-rule="evenodd" clip-rule="evenodd" d="M225.015,175.476c3.035,0.314,4.058,5.648,2,8c-3.141,0.475-4.086-1.247-5-3
		C221.542,177.336,224.706,177.834,225.015,175.476z"/>
	<path fill-rule="evenodd" clip-rule="evenodd" d="M160.015,177.476c-0.294,2.039-2.706,1.961-3,4
		C152.246,180.363,156.954,173.673,160.015,177.476z"/>
	<path fill-rule="evenodd" clip-rule="evenodd" d="M209.015,177.476c1.313,0.354,1.573,1.761,3,2c-0.294,2.039-2.706,1.961-3,4
		c-1.313-0.354-1.573-1.761-3-2C206.309,179.437,208.72,179.515,209.015,177.476z"/>
	<path fill-rule="evenodd" clip-rule="evenodd" fill="#9B5F0D" d="M359.015,180.476
		C362.821,178.746,352.647,183.371,359.015,180.476L359.015,180.476z"/>
	<path fill-rule="evenodd" clip-rule="evenodd" d="M164.015,180.476c1,0,2,0,3,0c0,1,0,2,0,3c-1,0-2,0-3,0
		C164.015,182.476,164.015,181.476,164.015,180.476z"/>
	<path fill-rule="evenodd" clip-rule="evenodd" fill="#9B5F0D" d="M484.015,199.476c-1.653,3.631-4.841-2.986-7-5
		c-3.005-2.803-5.921-5.108-8-7c-35.432-0.765-48.768,20.566-73,31c1.112-4.015,7.158-6.71,13-11c9.889-7.263,28.314-19.502,43-22
		C465.886,183.116,479.499,187.883,484.015,199.476z"/>
	<path fill-rule="evenodd" clip-rule="evenodd" d="M214.015,188.476c3.779-0.112,5.377,1.957,6,5c-1.55,1.117-2.083,3.251-5,3
		C213.468,195.022,214.134,191.357,214.015,188.476z"/>
	<path fill-rule="evenodd" clip-rule="evenodd" d="M367.015,188.476c1.583,0.083,3.814-0.48,4,1
		C372.106,192.987,364.88,192.154,367.015,188.476z"/>
	<path fill-rule="evenodd" clip-rule="evenodd" fill="#E6E5D3" d="M484.015,209.476c-12.669,0.495-23.506,14.873-34,8
		c-4.007,1.286,0.274,2.067,0,5c-30.197,8.469-54.791,22.543-84,32c-0.74,5.26-2.731,9.269-4,14c-9.431,4.236-21.41,5.923-32,9
		c-2.842-9.325,5.917-13.501,12-17c4.001-4.665,9.888-13.773,16-21c2.67-3.156,9.743-10.402,13-11c11.134-2.042,20.196-3.731,29-8
		c15.865-7.692,33.845-25.347,55-29C469.969,188.894,479.657,196.744,484.015,209.476z M449.015,200.476c1.003-0.003,1.19,0.81,2,1
		c-0.003-1.003,0.81-1.19,1-2c-1.003,0.003-1.19-0.81-2-1C450.018,199.479,449.205,199.667,449.015,200.476z M434.015,202.476
		c-0.722,5.938,5.722,5.938,5,0C437.701,201.193,435.328,201.193,434.015,202.476z M440.015,207.476c0.411,2.713,4.756,4.126,7,2
		c0.61-4.247-3.628-2.674,0-5C444.553,201.06,440.469,203.46,440.015,207.476z M422.015,222.476c0.914,1.753,1.859,3.475,5,3
		c1.427-1.334,1.427-5.666,0-7C423.754,218.215,422.202,219.664,422.015,222.476z M351.015,260.476c2.557,2.438,5.465-0.411,7-2
		c-1.479-0.521-2.521-1.479-4-2C353.721,258.515,351.309,258.437,351.015,260.476z"/>
	<path fill-rule="evenodd" clip-rule="evenodd" d="M450.015,198.476c0.81,0.19,0.997,1.003,2,1c-0.19,0.81-1.003,0.997-1,2
		c-0.81-0.19-0.997-1.003-2-1C449.205,199.667,450.018,199.479,450.015,198.476z"/>
	<path fill-rule="evenodd" clip-rule="evenodd" fill="#9B5F0D" d="M313.015,199.476c3.117,1.912-2.327,3.578-3,5
		C306.897,202.564,312.342,200.898,313.015,199.476z"/>
	<path fill-rule="evenodd" clip-rule="evenodd" d="M439.015,202.476c0.722,5.938-5.722,5.938-5,0
		C435.328,201.193,437.701,201.193,439.015,202.476z"/>
	<path fill-rule="evenodd" clip-rule="evenodd" d="M232.015,202.476c1.667,0,3.333,0,5,0c-0.294,2.039-2.706,1.961-3,4
		C232.255,206.235,231.735,204.755,232.015,202.476z"/>
	<path fill-rule="evenodd" clip-rule="evenodd" d="M376.015,202.476c1.667,0,3.333,0,5,0c0.464,3.131-0.869,4.464-4,4
		C377.142,204.682,375.791,204.367,376.015,202.476z"/>
	<path fill-rule="evenodd" clip-rule="evenodd" d="M447.015,204.476c-3.628,2.326,0.61,0.753,0,5c-2.244,2.126-6.589,0.713-7-2
		C440.469,203.46,444.553,201.06,447.015,204.476z"/>
	<path fill-rule="evenodd" clip-rule="evenodd" d="M204.015,208.476c3.95,0.05,5.95,2.05,6,6c-2.46,3.318-5.54,0.925-8-1
		C201.86,210.989,203.585,210.38,204.015,208.476z"/>
	<path fill-rule="evenodd" clip-rule="evenodd" d="M228.015,208.476c2.078,0.56,2.119,1.56,1,3c-0.667,0-1.333,0-2,0
		C226.733,209.861,227.96,209.754,228.015,208.476z"/>
	<path fill-rule="evenodd" clip-rule="evenodd" fill="#E6E5D3" d="M575.015,230.476c12.273,16.604-2.463,36.212-16,44
		c-20.626,11.866-51.92,5.89-77,0c-8.025-1.885-16.316-4.979-24-6c-10.638-1.414-22.943,1.169-32,0
		c-15.593-2.013-29.602-13.881-43-15c7.503-5.524,16.626-7.999,26-12c10.717-4.574,21.002-10.26,34-14
		c14.812-4.263,35.66-16.041,53-18c2.569-0.29,7.606-0.329,10,0c8.638,1.188,15.168,10.262,24,13
		C545.313,227.218,560.896,222.377,575.015,230.476z M499.015,233.476c0.429-1.904,2.154-2.513,2-5c-1.278-0.055-1.385-1.282-3-1
		C496.64,228.758,496.273,233.456,499.015,233.476z M504.015,236.476c1.6,4.66,6.221,4.359,7-1c-0.869-1.464-1.497-3.17-4-3
		C505.551,233.345,503.845,233.973,504.015,236.476z M559.015,243.476c0.279-2.279-0.241-3.759-2-4
		C556.735,241.755,557.256,243.235,559.015,243.476z M491.015,248.476c1.126,1.983,8.531,3.917,8-1c-2.11-0.89-1.736-4.264-5-4
		C492.897,245.026,490.764,245.559,491.015,248.476z M448.015,249.476c-2.414,5.079,4.302,7.402,7,3c-1.48-0.186-0.917-2.417-1-4
		C451.55,248.344,449.196,248.325,448.015,249.476z M561.015,253.476c0.169-2.169-3.547-0.453-5-1
		C553.739,256.437,562.14,256.906,561.015,253.476z M553.015,265.476c0.229-3.562-1.438-5.229-5-5
		C545.192,263.918,549.397,268.124,553.015,265.476z"/>
	<path fill-rule="evenodd" clip-rule="evenodd" d="M299.015,218.476c0.667,0,1.333,0,2,0c0,1,0,2,0,3c-1,0-2,0-3,0
		C297.733,219.861,298.96,219.754,299.015,218.476z"/>
	<path fill-rule="evenodd" clip-rule="evenodd" d="M427.015,218.476c1.427,1.334,1.427,5.666,0,7c-3.141,0.475-4.086-1.247-5-3
		C422.202,219.664,423.754,218.215,427.015,218.476z"/>
	<path fill-rule="evenodd" clip-rule="evenodd" d="M300.015,224.476c1.333,0,2.667,0,4,0
		C305.182,227.947,298.428,229.125,300.015,224.476z"/>
	<path fill-rule="evenodd" clip-rule="evenodd" d="M498.015,227.476c1.615-0.282,1.722,0.945,3,1c0.154,2.487-1.571,3.096-2,5
		C496.273,233.456,496.64,228.758,498.015,227.476z"/>
	<path fill-rule="evenodd" clip-rule="evenodd" d="M295.015,231.476c8.163-0.194,5.781,9.036-1,6
		C293.883,235.011,293.863,232.658,295.015,231.476z"/>
	<path fill-rule="evenodd" clip-rule="evenodd" d="M507.015,232.476c2.503-0.17,3.131,1.536,4,3c-0.779,5.359-5.4,5.66-7,1
		C503.845,233.973,505.551,233.345,507.015,232.476z"/>
	<path fill-rule="evenodd" clip-rule="evenodd" fill="#9B5F0D" d="M582.015,238.476c1.759,0.241,2.279,1.721,2,4
		C582.256,242.235,581.735,240.755,582.015,238.476z"/>
	<path fill-rule="evenodd" clip-rule="evenodd" d="M557.015,239.476c1.759,0.241,2.279,1.721,2,4
		C557.256,243.235,556.735,241.755,557.015,239.476z"/>
	<path fill-rule="evenodd" clip-rule="evenodd" d="M494.015,243.476c3.264-0.264,2.89,3.11,5,4c0.531,4.917-6.874,2.983-8,1
		C490.764,245.559,492.897,245.026,494.015,243.476z"/>
	<path fill-rule="evenodd" clip-rule="evenodd" fill="#9B5F0D" d="M587.015,243.476c9.242,16.865-1.971,32.971-12,43
		c-10.037,10.037-26.081,20.03-43,22c-32.371,3.769-59.237-12.815-82-12c1.852-4.68-4.057-4.695-2-12c-5.224,2.443-5.345,9.988-9,14
		c-23.195,0.853-50.521-8.757-71-17c-0.427-10.094,3.275-16.058,5-24c21.94,2.125,37.449,15.871,61,17
		c6.392,0.307,12.871-2.344,20-2c16.783,0.809,33.467,10.528,52,14c22.36,4.188,44.09,1.624,60-9
		C574.82,271.596,587.127,261.295,587.015,243.476z M453.015,289.476c1.944-1.929,1.046-6.121-3-5
		C450.349,286.809,451.04,288.785,453.015,289.476z M456.015,294.476c1.574-1.485,1.114-4.468-2-4
		C453.735,292.755,454.256,294.235,456.015,294.476z"/>
	<path fill-rule="evenodd" clip-rule="evenodd" fill="#9B5F0D" d="M349.015,244.476c0.672,6.02-7.91,11.412-13,15
		C339.212,253.34,344.63,249.424,349.015,244.476z"/>
	<path fill-rule="evenodd" clip-rule="evenodd" fill="#9B5F0D" d="M583.015,245.476c2.437,4.8,0.032,13.343-5,14
		C580.183,255.311,582.958,251.752,583.015,245.476z"/>
	<path fill-rule="evenodd" clip-rule="evenodd" fill="#9B5F0D" d="M277.015,248.476c-1.067,0.933-0.311,3.688-3,3
		C275.082,250.543,274.326,247.788,277.015,248.476z"/>
	<path fill-rule="evenodd" clip-rule="evenodd" d="M454.015,248.476c0.083,1.583-0.48,3.814,1,4c-2.698,4.402-9.414,2.079-7-3
		C449.196,248.325,451.55,248.344,454.015,248.476z"/>
	<path fill-rule="evenodd" clip-rule="evenodd" fill="#9B5F0D" d="M273.015,252.476c1.94-0.396,1.461,4.555-1,3c0-0.667,0-1.333,0-2
		C272.865,253.66,272.958,253.086,273.015,252.476z"/>
	<path fill-rule="evenodd" clip-rule="evenodd" d="M556.015,252.476c1.453,0.547,5.169-1.169,5,1
		C562.14,256.906,553.739,256.437,556.015,252.476z"/>
	<path fill-rule="evenodd" clip-rule="evenodd" d="M354.015,256.476c1.479,0.521,2.521,1.479,4,2c-1.535,1.589-4.443,4.438-7,2
		C351.309,258.437,353.721,258.515,354.015,256.476z"/>
	<path fill-rule="evenodd" clip-rule="evenodd" d="M548.015,260.476c3.562-0.229,5.229,1.438,5,5
		C549.397,268.124,545.192,263.918,548.015,260.476z"/>
	<path fill-rule="evenodd" clip-rule="evenodd" fill="#9B5F0D" d="M577.015,260.476c2.433,0.628,0.529,5.053-2,4
		C575.535,262.997,576.494,261.956,577.015,260.476z"/>
	<path fill-rule="evenodd" clip-rule="evenodd" fill="#9B5F0D" d="M325.015,270.476c2.255,0.744,0.391,5.609,1,8
		C319.16,279.183,323.146,272.257,325.015,270.476z"/>
	<path fill-rule="evenodd" clip-rule="evenodd" d="M450.015,284.476c4.046-1.121,4.944,3.071,3,5
		C451.04,288.785,450.349,286.809,450.015,284.476z"/>
	<path fill-rule="evenodd" clip-rule="evenodd" d="M454.015,290.476c3.114-0.468,3.574,2.515,2,4
		C454.256,294.235,453.735,292.755,454.015,290.476z"/>
	<path fill-rule="evenodd" clip-rule="evenodd" d="M184.015,125.476c3.14-1.111,2.642-0.468,5,1c0.341,4.541-2.753,5.64-6,4
		c0.319,3.986,0.055,7.388-2,9c-1.44-0.56-2.44-1.56-3-3C179.184,131.978,183.155,130.283,184.015,125.476z"/>
	<path fill-rule="evenodd" clip-rule="evenodd" fill="#9B5F0D" d="M333.015,192.476c0.6,1.137-13.383,4.467-17,8
		C315.044,195.154,326.139,193.281,333.015,192.476z"/>
	<path fill-rule="evenodd" clip-rule="evenodd" fill="#9B5F0D" d="M393.015,218.476c-5.678,5.929-15.041,4.364-22,7
		c-9.483,3.593-13.704,11-19,18c-2.692-2.263,1.686-3.946,3-6c6.53-10.202,10.11-12.263,26-16
		C384.841,220.576,388.733,218.074,393.015,218.476z"/>
	<path fill-rule="evenodd" clip-rule="evenodd" fill="#9B5F0D" d="M573.015,265.476c2.757,2.823-4.116,4.501-5,7
		C565.929,270.323,572.146,267.99,573.015,265.476z"/>
	<path fill-rule="evenodd" clip-rule="evenodd" d="M375.015,122.476c32.073-3.653,69.116,2.761,74,35
		c25.777,3.89,43.767,15.566,45,44c5.007,0.941,12.456,0.596,19,3c4.806,1.766,8.602,7.783,14,10c8.094,3.324,19.581,2.424,29,4
		c8.287,1.387,18.719,3.841,25,8c11.856,7.852,19.3,30.07,13,48c-18.857,29.615-45.028,47.348-91,41
		c-18.268-2.522-35.319-13.655-53-12c-5.106,0.479-12.068,4.488-16,4c-20.538-2.553-43.008-11.219-62-16
		c-3.91-4.424-9.695-6.972-12-13c-25.098,10.702-66.336,9.8-73-17c-23.291,5.65-43.292-4.719-49-25c-23.593,5.469-40.456,2.742-63-2
		c-10.39-2.186-21.511-2.887-31-5c-10.125-2.255-21.062-6.85-32-10c-43.021-12.39-110.277-9.768-112-65
		c-0.276-8.85,3.491-17.169,4-25c0.985-15.149-2.137-24.318,2-35c2.362-6.098,7.375-9.618,10-16c3.825-9.298,3.9-20.632,10-30
		c1.685-2.586,5.544-6.081,8-9c13.704-16.291,38.173-30.699,62-36c30.433-6.771,69.637-2.098,101,1
		c32.431,3.204,67.503,13.973,93,26c16.427,7.749,30.049,20.807,41,34c2.851,3.434,4.332,8.361,8,12c4.083,4.05,9.507,6.824,14,10
		c4.596,3.249,8.445,6.811,14,10C369.077,105.747,374.906,111.251,375.015,122.476z M270.015,29.476
		c-13.197-4.991-29.354-8.212-44-12c-19.195-4.964-41.475-5.437-64-8c-13.889-1.581-28.307-1.836-42-2
		c-43.444-0.52-74.79,23.805-93,56c-0.019,3.076,5.387,5.87,2,9c-4.411,1.411-0.016-5.984-3-6c-0.352,6.847-6.699,16.566-3,21
		c4.587-3.031-0.148-12.199,8-13c0.109,6.77-3.891,4.962-2,12c5.777,0.974,5.805,10.095,4,12c-4.962,1.296-1.412-5.921-4-7
		c-2.693,0.641-2.807,3.859-6,4c-4.01-0.324-2.537-6.13-6-7c-0.828,6.66-5.927,8.629-2,15c-1.772,0.228-5.008-1.008-4,2
		c-3.026,3.526,4.841,2.563,4,7c-6.234,5.879-2.796,15.246-5,25c2.863-0.197,5.458-0.125,5,3c-1.662,3.963-2.685,2.056-6,1
		c-4.147,18.342-0.074,38.973,12,48c6.321,4.727,19.565,8.95,28,11c18.104,4.4,37.955,5.332,57,10c13.1,3.211,25.602,10.374,38,13
		c13.784,2.92,26.188,3.456,38,6c-4.082-11.563-3.354-27.78-4-42c-0.459-10.108-0.734-19.887,0-27c2.575-24.944,21.169-29.906,28-48
		c1.698-4.497,0.544-9.837,2-14c1.203-3.441,4.744-8.159,7-12c2.334-3.975,4.848-9.176,7-12c15.358-20.154,52.126-30.834,84-24
		C298.47,41.513,282.579,34.228,270.015,29.476z M296.015,51.476c-10.938-1.214-23.793,0.386-34,3
		c-21.206,5.431-35.374,17.703-45,34c-5.379,9.106-4.621,15.076-8,25c-1.937,5.689-6.701,10.025-10,14
		c-3.423,4.124-8.736,7.944-9,14c4.828-8.296,12.623-9.88,18-18c7.023-10.605,4.996-26.613,13-38c3.891-5.535,13.006-13.427,18-17
		c11.097-7.94,24.432-13.36,40-14c8.791-0.361,25.254,1.619,32,5c12.87,6.451,16.448,22.312,32,28
		C328.214,72.504,321.356,54.29,296.015,51.476z M350.015,140.476c4.315-3.883,12.825-8.182,14-13c0.438-1.8-0.875-8.681-2-13
		c-3.65-14.02-8.207-15.972-19-23c-5.466-3.56-11.865-6.556-16-11c-5.588-6.007-7.666-12.531-13-16c-7.831-5.093-20.354-5.944-30-6
		c-20.275-0.117-32.516,4.317-45,14c-14.23,11.038-21.49,22.659-24,45c-4.428,12.826-21.58,19.231-26,31
		c-3.531,9.4-2.806,25.186-2,37c1.371,20.104,2.807,41.015,8,47c15.074,2.411,29.884-3.21,45-4c11.226-14.774,21.546-30.454,33-45
		c13.741-11.926,34.857-16.476,54-23c2.293-2.846-1.75-6.846,2-9c4.146-1.146,3.896,2.104,7,2
		C340.004,148.771,344.506,145.433,350.015,140.476z M349.015,89.476c-1.479-0.521-2.521-1.479-4-2
		C343.962,90.005,348.387,91.909,349.015,89.476z M357.015,95.476c-2.631-1.369-3.79-4.209-7-5
		C350.231,93.642,354.884,97.54,357.015,95.476z M368.015,126.476c0.515-13.182-2.415-22.918-9-29
		C362.985,106.172,365.036,116.788,368.015,126.476z M434.015,138.476c-15.183-6.461-36.182-14.264-55-9
		c-10.915,3.053-17.913,13.114-26,20c-10.69,9.104-19.449,16.363-31,22c1.263,0.52,6.073,2.438,3,4
		c-21.125-6.681-36.145,7.959-49,16c-3.048,4.613-8.626,12.086-14,20c-5.147,7.58-12.251,14.367-15,20
		c-7.028,14.403,7.766,20.161,19,25c5.84-8.535,13.717-20.514,19-29c2.029-3.26,2.82-8.023,5-11c8.275-11.298,24.372-22.634,38-27
		c5.203-1.667,11.769-1.616,18-4c6.123-2.343,12.563-8.377,18-13c17.357-14.76,51.881-41.407,78-20
		C441.345,145.812,435.975,143.85,434.015,138.476z M182.015,200.476c0.694,15.779-2.635,28.018,8,31
		c-1.981-24.046-10.97-53.209-4-84c0.189-0.836,5.208-4.668,1-5C178.978,155.188,181.025,177.96,182.015,200.476z M417.015,147.476
		c-9.396,0.153-21.097,5.417-26,10c9.462-5.205,21.862-7.471,37-7C425.833,147.708,420.664,147.417,417.015,147.476z
		 M400.015,156.476c-13.062,6.59-22.029,16.562-34,25c-14.309,10.086-31.383,12.148-47,20c-5.873,2.952-9.896,9.505-17,10
		c-8.923,7.709-14.791,22.229-20,33c-1.608,3.325-5.877,8.01-3,11c5.799-1.534,11.979-2.688,18-4c18.833-16.491,33.339-53.32,69-49
		c23.092-15.575,41.632-35.702,74-42C434.46,148.371,412.379,155.391,400.015,156.476z M389.015,158.476
		C382.647,161.371,392.821,156.746,389.015,158.476L389.015,158.476z M363.015,179.476c6.31-7.029,20.13-11.863,22-20
		C379.147,166.948,364.202,170.657,363.015,179.476z M460.015,165.476c-34.205-10.741-68.836,24.86-89,37
		c0.632,4.701,7.511,3.156,7,9c-6.976-4.489-14.176-8.228-26-6c-15.997,3.014-31.619,24.361-44,39c-6.185,7.312-13.838,11.067-14,21
		c4.548,7.452,13.873,10.127,24,12c9.575-19.759,28.038-30.629,39-49c7.789-11.601,22.524-7.881,37-14
		c5.009-2.117,10.212-7.483,15-11c18.108-13.301,48.633-31.393,72-15c1.792,3.875,3.914,7.42,7,10
		C487.524,179.169,473.109,169.588,460.015,165.476z M359.015,180.476C352.647,183.371,362.821,178.746,359.015,180.476
		L359.015,180.476z M452.015,185.476c-14.686,2.498-33.111,14.737-43,22c-5.842,4.29-11.888,6.985-13,11
		c24.232-10.434,37.568-31.765,73-31c2.079,1.892,4.995,4.197,8,7c2.159,2.014,5.347,8.631,7,5
		C479.499,187.883,465.886,183.116,452.015,185.476z M455.015,191.476c-21.155,3.653-39.135,21.308-55,29
		c-8.804,4.269-17.866,5.958-29,8c-3.257,0.598-10.33,7.844-13,11c-6.112,7.227-11.999,16.335-16,21
		c-6.083,3.499-14.842,7.675-12,17c10.59-3.077,22.569-4.764,32-9c1.269-4.731,3.26-8.74,4-14c29.209-9.457,53.803-23.531,84-32
		c0.274-2.933-4.007-3.714,0-5c10.494,6.873,21.331-7.505,34-8C479.657,196.744,469.969,188.894,455.015,191.476z M316.015,200.476
		c3.617-3.533,17.6-6.863,17-8C326.139,193.281,315.044,195.154,316.015,200.476z M310.015,204.476c0.673-1.422,6.117-3.088,3-5
		C312.342,200.898,306.897,202.564,310.015,204.476z M530.015,222.476c-8.832-2.738-15.362-11.812-24-13
		c-2.394-0.329-7.431-0.29-10,0c-17.34,1.959-38.188,13.737-53,18c-12.998,3.74-23.283,9.426-34,14c-9.374,4.001-18.497,6.476-26,12
		c13.398,1.119,27.407,12.987,43,15c9.057,1.169,21.362-1.414,32,0c7.684,1.021,15.975,4.115,24,6c25.08,5.89,56.374,11.866,77,0
		c13.537-7.788,28.273-27.396,16-44C560.896,222.377,545.313,227.218,530.015,222.476z M381.015,221.476
		c-15.89,3.737-19.47,5.798-26,16c-1.314,2.054-5.692,3.737-3,6c5.296-7,9.517-14.407,19-18c6.959-2.636,16.322-1.071,22-7
		C388.733,218.074,384.841,220.576,381.015,221.476z M584.015,242.476c0.279-2.279-0.241-3.759-2-4
		C581.735,240.755,582.256,242.235,584.015,242.476z M566.015,277.476c-15.91,10.624-37.64,13.188-60,9
		c-18.533-3.472-35.217-13.191-52-14c-7.129-0.344-13.608,2.307-20,2c-23.551-1.129-39.06-14.875-61-17
		c-1.725,7.942-5.427,13.906-5,24c20.479,8.243,47.805,17.853,71,17c3.655-4.012,3.776-11.557,9-14c-2.057,7.305,3.852,7.32,2,12
		c22.763-0.815,49.629,15.769,82,12c16.919-1.97,32.963-11.963,43-22c10.029-10.029,21.242-26.135,12-43
		C587.127,261.295,574.82,271.596,566.015,277.476z M336.015,259.476c5.09-3.588,13.672-8.98,13-15
		C344.63,249.424,339.212,253.34,336.015,259.476z M578.015,259.476c5.032-0.657,7.437-9.2,5-14
		C582.958,251.752,580.183,255.311,578.015,259.476z M274.015,251.476c2.689,0.688,1.933-2.067,3-3
		C274.326,247.788,275.082,250.543,274.015,251.476z M272.015,253.476c0,0.667,0,1.333,0,2c2.461,1.555,2.94-3.396,1-3
		C272.958,253.086,272.865,253.66,272.015,253.476z M575.015,264.476c2.529,1.053,4.433-3.372,2-4
		C576.494,261.956,575.535,262.997,575.015,264.476z M568.015,272.476c0.884-2.499,7.757-4.177,5-7
		C572.146,267.99,565.929,270.323,568.015,272.476z M326.015,278.476c-0.609-2.391,1.255-7.256-1-8
		C323.146,272.257,319.16,279.183,326.015,278.476z"/>
	<path fill-rule="evenodd" clip-rule="evenodd" fill="#9B5F0D" d="M306.015,50.476c-31.874-6.834-68.642,3.846-84,24
		c-2.152,2.824-4.666,8.025-7,12c-2.256,3.841-5.797,8.559-7,12c-1.456,4.163-0.302,9.503-2,14c-6.831,18.094-25.425,23.056-28,48
		c-0.734,7.113-0.459,16.892,0,27c0.646,14.22-0.082,30.437,4,42c-11.812-2.544-24.216-3.08-38-6c-12.398-2.626-24.9-9.789-38-13
		c-19.045-4.668-38.896-5.6-57-10c-8.435-2.05-21.679-6.273-28-11c-12.074-9.027-16.147-29.658-12-48c3.315,1.056,4.338,2.963,6-1
		c0.458-3.125-2.137-3.197-5-3c2.204-9.754-1.234-19.121,5-25c0.841-4.437-7.026-3.474-4-7c-1.008-3.008,2.228-1.772,4-2
		c-3.927-6.371,1.172-8.34,2-15c3.463,0.87,1.99,6.676,6,7c3.193-0.141,3.307-3.359,6-4c2.588,1.079-0.962,8.296,4,7
		c1.805-1.905,1.777-11.026-4-12c-1.891-7.038,2.109-5.23,2-12c-8.148,0.801-3.413,9.969-8,13c-3.699-4.434,2.648-14.153,3-21
		c2.984,0.016-1.411,7.411,3,6c3.387-3.13-2.019-5.924-2-9c18.21-32.195,49.556-56.52,93-56c13.693,0.164,28.111,0.419,42,2
		c22.525,2.563,44.805,3.036,64,8c14.646,3.788,30.803,7.009,44,12C282.579,34.228,298.47,41.513,306.015,50.476z M76.015,42.476
		c1.778,0.888,2.542,2.792,6,2C87.109,37.443,74.645,32.495,76.015,42.476z M47.015,51.476c2.551-1.858,2.526-6.195-1-7
		C43.464,46.334,43.489,50.671,47.015,51.476z M38.015,52.476C32.969,56.503,41.501,57.159,38.015,52.476L38.015,52.476z
		 M31.015,64.476c1.279,1.368,4.721,1.368,6,0c-0.122-2.544-1.456-3.878-4-4C32.494,61.956,31.535,62.997,31.015,64.476z
		 M39.015,73.476c1.857-2.151,0.15-6.8-4-6C32.718,70.066,34.898,74.243,39.015,73.476z M32.015,83.476c1.904,0.429,2.512,2.154,5,2
		C44.446,80.364,30.307,72.082,32.015,83.476z M39.015,92.476c3.562,0.229,5.229-1.438,5-5
		C40.922,84.304,35.842,89.383,39.015,92.476z M46.015,97.476c1.667,0,3.333,0,5,0C52.124,91.687,45.542,93.306,46.015,97.476z
		 M40.015,100.476c1.945-1.929,1.046-6.121-3-5C36.541,98.617,38.262,99.562,40.015,100.476z M43.015,99.476c0,0.667,0,1.333,0,2
		c2.461,1.555,2.94-3.396,1-3C43.958,99.086,43.865,99.66,43.015,99.476z M47.015,104.476c3.851,0.788,3.851-4.788,0-4
		C47.015,101.81,47.015,103.143,47.015,104.476z M56.015,105.476c1.003-0.003,1.19,0.81,2,1c-0.003-1.003,0.81-1.19,1-2
		c-1.003,0.003-1.19-0.81-2-1C57.018,104.479,56.205,104.666,56.015,105.476z M20.015,105.476c0.187,2.813,1.74,4.26,5,4
		c-0.075-1.742,0.223-3.11,1-4C24.736,104.108,21.293,104.108,20.015,105.476z M71.015,108.476c1.003-0.003,1.19,0.81,2,1
		c-0.003-1.003,0.81-1.19,1-2c-1.003,0.003-1.19-0.81-2-1C72.018,107.479,71.205,107.666,71.015,108.476z M80.015,110.476
		c0.136,1.646,6.864,1.646,7,0C86.302,109.32,79.946,106.102,80.015,110.476z M90.015,113.476c1.273,1.363,4.898,1.544,5-1
		c-1.427-0.239-1.687-1.646-3-2C91.775,111.903,90.368,112.163,90.015,113.476z M96.015,113.476c2.039,0.558,1.961,3.009,4,1
		C100.768,111.066,96.195,110.576,96.015,113.476z M17.015,118.476c3.201-0.132,4.399-2.267,4-6
		C17.338,112.149,14.684,115.852,17.015,118.476z M110.015,115.476c-2.043-0.957-3.957-2.043-6-3
		C102.807,116.774,108.928,119.481,110.015,115.476z M195.015,118.476c1.862-0.138,3.342-0.658,4-2c-2.039-0.294-1.961-2.706-4-3
		C193.731,114.79,193.731,117.162,195.015,118.476z M125.015,117.476c-0.136-1.646-6.864-1.646-7,0
		C118.728,118.632,125.083,121.85,125.015,117.476z M185.015,121.476c-0.334-2.333-1.025-4.309-3-5
		C182.04,119.117,181.082,122.742,185.015,121.476z M134.015,121.476c0.667,0,1.333,0,2,0c0-0.667,0-1.333,0-2c-0.667,0-1.333,0-2,0
		C134.015,120.143,134.015,120.81,134.015,121.476z M167.015,125.476c1.186-1.304,0.473-6.349-3-6
		C162.16,121.449,162.528,126.839,167.015,125.476z M145.015,125.476c0.279-2.279-0.241-3.759-2-4
		C141.163,123.239,143.272,124.573,145.015,125.476z M173.015,124.476c1.427,0.24,1.687,1.646,3,2c0.239-1.427,1.646-1.687,2-3
		c-1.427-0.239-1.687-1.647-3-2C174.775,122.903,173.368,123.163,173.015,124.476z M193.015,125.476c0.686-3.353-1.678-3.656-4-4
		C188.551,124.607,189.884,125.94,193.015,125.476z M12.015,126.476c3.309,2.024,3.623,7.044,7,9c0.013-1.987,2.729-1.271,2-4
		C18.718,128.917,16.542,116.607,12.015,126.476z M154.015,125.476c1.427,0.239,1.687,1.646,3,2c0.239-1.427,1.646-1.687,2-3
		c-1.427-0.239-1.687-1.646-3-2C155.775,123.903,154.368,124.163,154.015,125.476z M178.015,136.476c0.56,1.44,1.56,2.44,3,3
		c2.055-1.612,2.319-5.014,2-9c3.247,1.64,6.341,0.541,6-4c-2.358-1.468-1.86-2.111-5-1
		C183.155,130.283,179.184,131.978,178.015,136.476z M166.015,129.476c1,0,2,0,3,0c-0.157-1.177,0.172-2.838-1-3
		C167.775,127.903,166.368,128.163,166.015,129.476z M174.015,129.476c1.768,0.878,2.919,3.169,5,1
		C179.978,126.801,174.102,126.501,174.015,129.476z M27.015,133.476c-0.26,3.26,1.187,4.813,4,5c1.368-1.278,1.368-4.722,0-6
		C29.273,132.401,27.905,132.699,27.015,133.476z M177.015,147.476c0.239-1.427,1.646-1.687,2-3c-1.907-0.426-1.81-2.857-5-2
		C173.541,145.617,175.262,146.562,177.015,147.476z M12.015,155.476c4.55,0.955,6.296-4.204,4-7
		C12.116,148.173,9.34,152.302,12.015,155.476z M40.015,154.476c2.296-2.59,0.116-6.767-4-6
		C35.744,152.08,35.765,155.393,40.015,154.476z M165.015,156.476c1.466-1.585,2.063-7.94-2-7
		C160.246,151.387,160.5,156.604,165.015,156.476z M50.015,170.476c0.309-2.358,3.473-1.86,3-5c-1.161-0.839-2.681-1.319-5-1
		C48.03,167.127,47.46,170.365,50.015,170.476z M36.015,171.476c1.916-0.846,2.706-4.387,1-6c-1,0-2,0-3,0
		C32.476,167,32.233,172.333,36.015,171.476z M165.015,171.476c1.163-1.838,5.307-0.693,4-5c-1.352-0.314-1.91-1.424-4-1
		C164.232,166.17,162.789,171.056,165.015,171.476z M154.015,171.476c2.319,0.319,3.839-0.161,5-1c0.169-2.503-1.536-3.131-3-4
		C155.588,168.383,153.157,168.286,154.015,171.476z M163.015,176.476c1.427,0.239,1.687,1.646,3,2c0.239-1.427,1.646-1.687,2-3
		c-1.427-0.239-1.687-1.646-3-2C164.775,174.903,163.368,175.163,163.015,176.476z M157.015,181.476c0.294-2.039,2.706-1.961,3-4
		C156.954,173.673,152.246,180.363,157.015,181.476z M164.015,183.476c1,0,2,0,3,0c0-1,0-2,0-3c-1,0-2,0-3,0
		C164.015,181.476,164.015,182.476,164.015,183.476z"/>
	<path fill-rule="evenodd" clip-rule="evenodd" d="M344.015,109.476c-1.953,1.171-5.597,3.285-8,1
		C334.487,102.522,344.032,103.614,344.015,109.476z"/>
	<path fill-rule="evenodd" clip-rule="evenodd" d="M397.015,164.476c2.473,1.173-2.426,4.155,2,4c-1.286,1.714-2.067,3.933-5,4
		c-0.027-0.973-1.224-0.776-2-1c0-1.667,0-3.333,0-5C393.919,166.047,394.527,164.322,397.015,164.476z"/>
	<path fill-rule="evenodd" clip-rule="evenodd" fill="#9B5F0D" d="M442.015,152.476c-26.119-21.407-60.643,5.24-78,20
		c-5.437,4.623-11.877,10.657-18,13c-6.231,2.384-12.797,2.333-18,4c-13.628,4.366-29.725,15.702-38,27c-2.18,2.977-2.971,7.74-5,11
		c-5.283,8.486-13.16,20.465-19,29c-11.234-4.839-26.028-10.597-19-25c2.749-5.633,9.853-12.42,15-20
		c5.374-7.914,10.952-15.387,14-20c12.855-8.041,27.875-22.681,49-16c3.073-1.562-1.737-3.48-3-4c11.551-5.637,20.31-12.896,31-22
		c8.087-6.886,15.085-16.947,26-20c18.818-5.264,39.817,2.539,55,9C435.975,143.85,441.345,145.812,442.015,152.476z"/>
	<path fill-rule="evenodd" clip-rule="evenodd" fill="#9B5F0D" d="M488.015,198.476c-3.086-2.58-5.208-6.125-7-10
		c-23.367-16.393-53.892,1.699-72,15c-4.788,3.517-9.991,8.883-15,11c-14.476,6.119-29.211,2.399-37,14
		c-10.962,18.371-29.425,29.241-39,49c-10.127-1.873-19.452-4.548-24-12c0.162-9.933,7.815-13.688,14-21
		c12.381-14.639,28.003-35.986,44-39c11.824-2.228,19.024,1.511,26,6c0.511-5.844-6.368-4.299-7-9c20.164-12.14,54.795-47.741,89-37
		C473.109,169.588,487.524,179.169,488.015,198.476z M377.015,206.476c3.131,0.464,4.464-0.869,4-4c-1.667,0-3.333,0-5,0
		C375.791,204.367,377.142,204.682,377.015,206.476z"/>
</g>
</svg>
