<?xml version="1.0" encoding="UTF-8" standalone="no"?>
<!-- Created with Inkscape (http://www.inkscape.org/) -->
<svg
   xmlns:dc="http://purl.org/dc/elements/1.1/"
   xmlns:cc="http://creativecommons.org/ns#"
   xmlns:rdf="http://www.w3.org/1999/02/22-rdf-syntax-ns#"
   xmlns:svg="http://www.w3.org/2000/svg"
   xmlns="http://www.w3.org/2000/svg"
   xmlns:xlink="http://www.w3.org/1999/xlink"
   xmlns:sodipodi="http://sodipodi.sourceforge.net/DTD/sodipodi-0.dtd"
   xmlns:inkscape="http://www.inkscape.org/namespaces/inkscape"
   width="128"
   height="128"
   id="svg2"
   sodipodi:version="0.32"
   inkscape:version="0.45+devel"
   version="1.0"
   sodipodi:docname="gate.svg"
   inkscape:output_extension="org.inkscape.output.svg.inkscape">
  <defs
     id="defs4">
    <linearGradient
       id="linearGradient2338">
      <stop
         style="stop-color:#b1b1b1;stop-opacity:1;"
         offset="0"
         id="stop2340" />
      <stop
         style="stop-color:#e4e4e4;stop-opacity:1;"
         offset="1"
         id="stop2342" />
    </linearGradient>
    <linearGradient
       id="linearGradient2320">
      <stop
         style="stop-color:#6a3c1d;stop-opacity:1;"
         offset="0"
         id="stop2322" />
      <stop
         style="stop-color:#8f5127;stop-opacity:1;"
         offset="1"
         id="stop2324" />
    </linearGradient>
    <linearGradient
       inkscape:collect="always"
       xlink:href="#linearGradient2338"
       id="linearGradient2508"
       x1="17.062296"
       y1="81.460907"
       x2="31.678385"
       y2="98.951294"
       gradientUnits="userSpaceOnUse"
       gradientTransform="translate(2.7675676,0)" />
    <linearGradient
       inkscape:collect="always"
       xlink:href="#linearGradient2338"
       id="linearGradient2546"
       x1="18.0625"
       y1="55.8125"
       x2="28.25"
       y2="60.5"
       gradientUnits="userSpaceOnUse"
       gradientTransform="translate(2.7675676,0)" />
    <linearGradient
       inkscape:collect="always"
       xlink:href="#linearGradient2338"
       id="linearGradient2548"
       x1="21.625"
       y1="64.75"
       x2="27.5"
       y2="58.9375"
       gradientUnits="userSpaceOnUse"
       gradientTransform="translate(2.7675676,0)" />
    <linearGradient
       inkscape:collect="always"
       xlink:href="#linearGradient2338"
       id="linearGradient2550"
       x1="15.4375"
       y1="62.9375"
       x2="16.25"
       y2="60.1875"
       gradientUnits="userSpaceOnUse"
       gradientTransform="translate(2.7675676,0)" />
    <linearGradient
       inkscape:collect="always"
       xlink:href="#linearGradient2338"
       id="linearGradient2552"
       x1="17.875"
       y1="65.34375"
       x2="20.0625"
       y2="63.65625"
       gradientUnits="userSpaceOnUse"
       gradientTransform="translate(2.7675676,0)" />
    <linearGradient
       inkscape:collect="always"
       xlink:href="#linearGradient2338"
       id="linearGradient2554"
       x1="21.625"
       y1="66.979729"
       x2="20.875"
       y2="64.75"
       gradientUnits="userSpaceOnUse"
       gradientTransform="translate(2.7675676,0)" />
    <linearGradient
       inkscape:collect="always"
       xlink:href="#linearGradient2338"
       id="linearGradient2556"
       x1="23.375"
       y1="64.03125"
       x2="24.4375"
       y2="66.03125"
       gradientUnits="userSpaceOnUse"
       gradientTransform="translate(2.7675676,0)" />
    <linearGradient
       inkscape:collect="always"
       xlink:href="#linearGradient2338"
       id="linearGradient2558"
       x1="27.4375"
       y1="63.78125"
       x2="26"
       y2="60.78125"
       gradientUnits="userSpaceOnUse"
       gradientTransform="translate(2.7675676,0)" />
    <linearGradient
       inkscape:collect="always"
       xlink:href="#linearGradient2338"
       id="linearGradient2560"
       x1="31.625"
       y1="65.5625"
       x2="30.875"
       y2="61.8125"
       gradientUnits="userSpaceOnUse"
       gradientTransform="translate(2.7675676,0)" />
    <linearGradient
       inkscape:collect="always"
       xlink:href="#linearGradient2338"
       id="linearGradient2562"
       x1="32.0625"
       y1="59.84375"
       x2="34.375"
       y2="60.40625"
       gradientUnits="userSpaceOnUse"
       gradientTransform="translate(2.7675676,0)" />
    <linearGradient
       inkscape:collect="always"
       xlink:href="#linearGradient2338"
       id="linearGradient2564"
       x1="33.75"
       y1="58.78125"
       x2="30.875"
       y2="55.40625"
       gradientUnits="userSpaceOnUse"
       gradientTransform="translate(2.7675676,0)" />
    <linearGradient
       inkscape:collect="always"
       xlink:href="#linearGradient2338"
       id="linearGradient2566"
       x1="28.625"
       y1="57.5625"
       x2="28.21875"
       y2="55.4375"
       gradientUnits="userSpaceOnUse"
       gradientTransform="translate(2.7675676,0)" />
    <linearGradient
       inkscape:collect="always"
       xlink:href="#linearGradient2338"
       id="linearGradient2568"
       x1="23.96875"
       y1="54.6875"
       x2="23.96875"
       y2="52.21875"
       gradientUnits="userSpaceOnUse"
       gradientTransform="translate(2.7675676,0)" />
    <linearGradient
       inkscape:collect="always"
       xlink:href="#linearGradient2338"
       id="linearGradient2570"
       x1="20.5625"
       y1="53.8125"
       x2="22.125"
       y2="55.3125"
       gradientUnits="userSpaceOnUse"
       gradientTransform="translate(2.7675676,0)" />
    <linearGradient
       inkscape:collect="always"
       xlink:href="#linearGradient2338"
       id="linearGradient2572"
       x1="19.5625"
       y1="57.3125"
       x2="20.4375"
       y2="55"
       gradientUnits="userSpaceOnUse"
       gradientTransform="translate(2.7675676,0)" />
    <linearGradient
       inkscape:collect="always"
       xlink:href="#linearGradient2338"
       id="linearGradient2574"
       x1="15"
       y1="57.125"
       x2="17.1875"
       y2="53.5625"
       gradientUnits="userSpaceOnUse"
       gradientTransform="translate(2.7675676,0)" />
    <linearGradient
       inkscape:collect="always"
       xlink:href="#linearGradient2338"
       id="linearGradient2576"
       x1="12.75"
       y1="57.09375"
       x2="14.625"
       y2="58.65625"
       gradientUnits="userSpaceOnUse"
       gradientTransform="translate(2.7675676,0)" />
    <linearGradient
       inkscape:collect="always"
       xlink:href="#linearGradient2338"
       id="linearGradient2578"
       x1="12.5625"
       y1="61.03125"
       x2="14.625"
       y2="59"
       gradientUnits="userSpaceOnUse"
       gradientTransform="translate(2.7675676,0)" />
    <linearGradient
       inkscape:collect="always"
       xlink:href="#linearGradient2338"
       id="linearGradient2580"
       x1="20.875"
       y1="65.5625"
       x2="28"
       y2="72.625"
       gradientUnits="userSpaceOnUse"
       gradientTransform="translate(2.7675676,0)" />
    <linearGradient
       inkscape:collect="always"
       xlink:href="#linearGradient2338"
       id="linearGradient3227"
       gradientUnits="userSpaceOnUse"
       x1="17.062296"
       y1="81.460907"
       x2="31.678385"
       y2="98.951294"
       gradientTransform="translate(88.224273,-28.447271)" />
    <linearGradient
       inkscape:collect="always"
       xlink:href="#linearGradient2338"
       id="linearGradient3229"
       gradientUnits="userSpaceOnUse"
       x1="20.875"
       y1="65.5625"
       x2="28"
       y2="72.625"
       gradientTransform="translate(88.224273,-28.447271)" />
    <linearGradient
       inkscape:collect="always"
       xlink:href="#linearGradient2338"
       id="linearGradient3231"
       gradientUnits="userSpaceOnUse"
       x1="12.5625"
       y1="61.03125"
       x2="14.625"
       y2="59"
       gradientTransform="translate(88.224273,-28.447271)" />
    <linearGradient
       inkscape:collect="always"
       xlink:href="#linearGradient2338"
       id="linearGradient3233"
       gradientUnits="userSpaceOnUse"
       x1="12.75"
       y1="57.09375"
       x2="14.625"
       y2="58.65625"
       gradientTransform="translate(88.224273,-28.447271)" />
    <linearGradient
       inkscape:collect="always"
       xlink:href="#linearGradient2338"
       id="linearGradient3235"
       gradientUnits="userSpaceOnUse"
       x1="15"
       y1="57.125"
       x2="17.1875"
       y2="53.5625"
       gradientTransform="translate(88.224273,-28.447271)" />
    <linearGradient
       inkscape:collect="always"
       xlink:href="#linearGradient2338"
       id="linearGradient3237"
       gradientUnits="userSpaceOnUse"
       x1="19.5625"
       y1="57.3125"
       x2="20.4375"
       y2="55"
       gradientTransform="translate(88.224273,-28.447271)" />
    <linearGradient
       inkscape:collect="always"
       xlink:href="#linearGradient2338"
       id="linearGradient3239"
       gradientUnits="userSpaceOnUse"
       x1="20.5625"
       y1="53.8125"
       x2="22.125"
       y2="55.3125"
       gradientTransform="translate(88.224273,-28.447271)" />
    <linearGradient
       inkscape:collect="always"
       xlink:href="#linearGradient2338"
       id="linearGradient3241"
       gradientUnits="userSpaceOnUse"
       x1="23.96875"
       y1="54.6875"
       x2="23.96875"
       y2="52.21875"
       gradientTransform="translate(88.224273,-28.447271)" />
    <linearGradient
       inkscape:collect="always"
       xlink:href="#linearGradient2338"
       id="linearGradient3243"
       gradientUnits="userSpaceOnUse"
       x1="28.625"
       y1="57.5625"
       x2="28.21875"
       y2="55.4375"
       gradientTransform="translate(88.224273,-28.447271)" />
    <linearGradient
       inkscape:collect="always"
       xlink:href="#linearGradient2338"
       id="linearGradient3245"
       gradientUnits="userSpaceOnUse"
       x1="33.75"
       y1="58.78125"
       x2="30.875"
       y2="55.40625"
       gradientTransform="translate(88.224273,-28.447271)" />
    <linearGradient
       inkscape:collect="always"
       xlink:href="#linearGradient2338"
       id="linearGradient3247"
       gradientUnits="userSpaceOnUse"
       x1="32.0625"
       y1="59.84375"
       x2="34.375"
       y2="60.40625"
       gradientTransform="translate(88.224273,-28.447271)" />
    <linearGradient
       inkscape:collect="always"
       xlink:href="#linearGradient2338"
       id="linearGradient3249"
       gradientUnits="userSpaceOnUse"
       x1="31.625"
       y1="65.5625"
       x2="30.875"
       y2="61.8125"
       gradientTransform="translate(88.224273,-28.447271)" />
    <linearGradient
       inkscape:collect="always"
       xlink:href="#linearGradient2338"
       id="linearGradient3251"
       gradientUnits="userSpaceOnUse"
       x1="27.4375"
       y1="63.78125"
       x2="26"
       y2="60.78125"
       gradientTransform="translate(88.224273,-28.447271)" />
    <linearGradient
       inkscape:collect="always"
       xlink:href="#linearGradient2338"
       id="linearGradient3253"
       gradientUnits="userSpaceOnUse"
       x1="23.375"
       y1="64.03125"
       x2="24.4375"
       y2="66.03125"
       gradientTransform="translate(88.224273,-28.447271)" />
    <linearGradient
       inkscape:collect="always"
       xlink:href="#linearGradient2338"
       id="linearGradient3255"
       gradientUnits="userSpaceOnUse"
       x1="21.625"
       y1="66.979729"
       x2="20.875"
       y2="64.75"
       gradientTransform="translate(88.224273,-28.447271)" />
    <linearGradient
       inkscape:collect="always"
       xlink:href="#linearGradient2338"
       id="linearGradient3257"
       gradientUnits="userSpaceOnUse"
       x1="17.875"
       y1="65.34375"
       x2="20.0625"
       y2="63.65625"
       gradientTransform="translate(88.224273,-28.447271)" />
    <linearGradient
       inkscape:collect="always"
       xlink:href="#linearGradient2338"
       id="linearGradient3259"
       gradientUnits="userSpaceOnUse"
       x1="15.4375"
       y1="62.9375"
       x2="16.25"
       y2="60.1875"
       gradientTransform="translate(88.224273,-28.447271)" />
    <linearGradient
       inkscape:collect="always"
       xlink:href="#linearGradient2338"
       id="linearGradient3261"
       gradientUnits="userSpaceOnUse"
       x1="21.625"
       y1="64.75"
       x2="27.5"
       y2="58.9375"
       gradientTransform="translate(88.224273,-28.447271)" />
    <linearGradient
       inkscape:collect="always"
       xlink:href="#linearGradient2338"
       id="linearGradient3263"
       gradientUnits="userSpaceOnUse"
       x1="18.0625"
       y1="55.8125"
       x2="28.25"
       y2="60.5"
       gradientTransform="translate(88.224273,-28.447271)" />
    <linearGradient
       inkscape:collect="always"
       xlink:href="#linearGradient2338"
       id="linearGradient3269"
       x1="44.527435"
       y1="104.47736"
       x2="97.830818"
       y2="61.623898"
       gradientUnits="userSpaceOnUse"
       gradientTransform="translate(2.7675676,0)" />
    <linearGradient
       inkscape:collect="always"
       xlink:href="#linearGradient2338"
       id="linearGradient3273"
       x1="80.042885"
       y1="74.191681"
       x2="83.906723"
       y2="89.032326"
       gradientUnits="userSpaceOnUse"
       gradientTransform="translate(2.7675676,0)" />
    <linearGradient
       inkscape:collect="always"
       xlink:href="#linearGradient2320"
       id="linearGradient3281"
       x1="68.495285"
       y1="77.26519"
       x2="68.809654"
       y2="78.318962"
       gradientUnits="userSpaceOnUse"
       gradientTransform="translate(2.7675676,0)" />
    <linearGradient
       inkscape:collect="always"
       xlink:href="#linearGradient2320"
       id="linearGradient3285"
       gradientUnits="userSpaceOnUse"
       x1="68.583099"
       y1="77.616447"
       x2="68.809654"
       y2="78.318962"
       gradientTransform="translate(2.8114748,3.4247642)" />
    <linearGradient
       inkscape:collect="always"
       xlink:href="#linearGradient2320"
       id="linearGradient3289"
       gradientUnits="userSpaceOnUse"
       gradientTransform="translate(2.855382,7.6837658)"
       x1="68.539192"
       y1="77.440819"
       x2="68.809654"
       y2="78.318962" />
    <linearGradient
       inkscape:collect="always"
       xlink:href="#linearGradient2320"
       id="linearGradient3293"
       gradientUnits="userSpaceOnUse"
       gradientTransform="translate(2.9431965,11.679324)"
       x1="68.495285"
       y1="77.660355"
       x2="68.809654"
       y2="78.626312" />
    <linearGradient
       inkscape:collect="always"
       xlink:href="#linearGradient2320"
       id="linearGradient3297"
       gradientUnits="userSpaceOnUse"
       gradientTransform="translate(3.0749182,15.674882)"
       x1="68.539192"
       y1="77.57254"
       x2="68.809654"
       y2="78.318962" />
    <linearGradient
       inkscape:collect="always"
       xlink:href="#linearGradient2320"
       id="linearGradient3301"
       x1="59.055225"
       y1="89.449448"
       x2="59.516254"
       y2="89.449448"
       gradientUnits="userSpaceOnUse"
       gradientTransform="translate(2.7675676,0)" />
    <linearGradient
       inkscape:collect="always"
       xlink:href="#linearGradient2320"
       id="linearGradient3305"
       gradientUnits="userSpaceOnUse"
       x1="59.055225"
       y1="89.449448"
       x2="59.516254"
       y2="89.449448"
       gradientTransform="translate(8.7389513,-2.2392689)" />
    <linearGradient
       inkscape:collect="always"
       xlink:href="#linearGradient2320"
       id="linearGradient3309"
       gradientUnits="userSpaceOnUse"
       gradientTransform="translate(14.490799,-4.4785378)"
       x1="59.055225"
       y1="89.449448"
       x2="59.516254"
       y2="89.449448" />
    <linearGradient
       inkscape:collect="always"
       xlink:href="#linearGradient2320"
       id="linearGradient3313"
       gradientUnits="userSpaceOnUse"
       gradientTransform="translate(18.969337,-5.6640331)"
       x1="59.055225"
       y1="89.449448"
       x2="59.516254"
       y2="89.449448" />
    <linearGradient
       inkscape:collect="always"
       xlink:href="#linearGradient2320"
       id="linearGradient3317"
       gradientUnits="userSpaceOnUse"
       gradientTransform="translate(24.32602,-7.4642296)"
       x1="59.055225"
       y1="89.449448"
       x2="59.516254"
       y2="89.449448" />
    <linearGradient
       inkscape:collect="always"
       xlink:href="#linearGradient2338"
       id="linearGradient3321"
       x1="66.909981"
       y1="63.765995"
       x2="68.014832"
       y2="66.859589"
       gradientUnits="userSpaceOnUse"
       gradientTransform="translate(2.7675676,0)" />
    <linearGradient
       inkscape:collect="always"
       xlink:href="#linearGradient2338"
       id="linearGradient3367"
       x1="97.757507"
       y1="53.488625"
       x2="100.40916"
       y2="50.395031"
       gradientUnits="userSpaceOnUse"
       gradientTransform="translate(2.7675676,0)" />
    <linearGradient
       inkscape:collect="always"
       xlink:href="#linearGradient2338"
       id="linearGradient3369"
       x1="97.580734"
       y1="54.239925"
       x2="98.818176"
       y2="56.228661"
       gradientUnits="userSpaceOnUse"
       gradientTransform="translate(2.7675676,0)" />
    <linearGradient
       inkscape:collect="always"
       xlink:href="#linearGradient2338"
       id="linearGradient3371"
       x1="94.045204"
       y1="56.228661"
       x2="95.901352"
       y2="54.018951"
       gradientUnits="userSpaceOnUse"
       gradientTransform="translate(2.7675676,0)" />
    <linearGradient
       inkscape:collect="always"
       xlink:href="#linearGradient2338"
       id="linearGradient3373"
       x1="88.741905"
       y1="56.847382"
       x2="92.277435"
       y2="53.135071"
       gradientUnits="userSpaceOnUse"
       gradientTransform="translate(2.7675676,0)" />
    <linearGradient
       inkscape:collect="always"
       xlink:href="#linearGradient2338"
       id="linearGradient3375"
       x1="87.858017"
       y1="57.024155"
       x2="89.183846"
       y2="58.703533"
       gradientUnits="userSpaceOnUse"
       gradientTransform="translate(2.7675676,0)" />
    <linearGradient
       inkscape:collect="always"
       xlink:href="#linearGradient2338"
       id="linearGradient3377"
       x1="85.117979"
       y1="58.615147"
       x2="85.825081"
       y2="56.582214"
       gradientUnits="userSpaceOnUse"
       gradientTransform="translate(2.7675676,0)" />
    <linearGradient
       inkscape:collect="always"
       xlink:href="#linearGradient2338"
       id="linearGradient3379"
       x1="80.610176"
       y1="59.233864"
       x2="82.466324"
       y2="56.317051"
       gradientUnits="userSpaceOnUse"
       gradientTransform="translate(2.7675676,0)" />
    <linearGradient
       inkscape:collect="always"
       xlink:href="#linearGradient2338"
       id="linearGradient3381"
       x1="79.063377"
       y1="59.852585"
       x2="80.433395"
       y2="61.885517"
       gradientUnits="userSpaceOnUse"
       gradientTransform="translate(2.7675676,0)" />
    <linearGradient
       inkscape:collect="always"
       xlink:href="#linearGradient2338"
       id="linearGradient3383"
       x1="76.190758"
       y1="63.034565"
       x2="77.339798"
       y2="60.559692"
       gradientUnits="userSpaceOnUse"
       gradientTransform="translate(2.7675676,0)" />
    <linearGradient
       inkscape:collect="always"
       xlink:href="#linearGradient2338"
       id="linearGradient3385"
       x1="70.710678"
       y1="61.973904"
       x2="72.522636"
       y2="59.322254"
       gradientUnits="userSpaceOnUse"
       gradientTransform="translate(2.7675676,0)" />
    <linearGradient
       inkscape:collect="always"
       xlink:href="#linearGradient2338"
       id="linearGradient3387"
       x1="70.578094"
       y1="62.548428"
       x2="72.036507"
       y2="64.36039"
       gradientUnits="userSpaceOnUse"
       gradientTransform="translate(2.7675676,0)" />
    <linearGradient
       inkscape:collect="always"
       xlink:href="#linearGradient2338"
       id="linearGradient3389"
       x1="67.086756"
       y1="64.05103"
       x2="67.970642"
       y2="63.034565"
       gradientUnits="userSpaceOnUse"
       gradientTransform="translate(2.7675676,0)" />
    <linearGradient
       inkscape:collect="always"
       xlink:href="#linearGradient2338"
       id="linearGradient3391"
       x1="63.374447"
       y1="64.36039"
       x2="63.993164"
       y2="61.797127"
       gradientUnits="userSpaceOnUse"
       gradientTransform="translate(2.7675676,0)" />
    <linearGradient
       inkscape:collect="always"
       xlink:href="#linearGradient2338"
       id="linearGradient3393"
       x1="61.916039"
       y1="64.890717"
       x2="63.374447"
       y2="66.570099"
       gradientUnits="userSpaceOnUse"
       gradientTransform="translate(2.7675676,0)" />
    <linearGradient
       inkscape:collect="always"
       xlink:href="#linearGradient2338"
       id="linearGradient3395"
       x1="57.894368"
       y1="66.791069"
       x2="60.634407"
       y2="65.421051"
       gradientUnits="userSpaceOnUse"
       gradientTransform="translate(2.7675676,0)" />
    <linearGradient
       inkscape:collect="always"
       xlink:href="#linearGradient2338"
       id="linearGradient3397"
       x1="54.00528"
       y1="67.056229"
       x2="54.624001"
       y2="64.80233"
       gradientUnits="userSpaceOnUse"
       gradientTransform="translate(2.7675676,0)" />
    <linearGradient
       inkscape:collect="always"
       xlink:href="#linearGradient2338"
       id="linearGradient3399"
       x1="52.635262"
       y1="67.940117"
       x2="54.09367"
       y2="69.575302"
       gradientUnits="userSpaceOnUse"
       gradientTransform="translate(2.7675676,0)" />
    <linearGradient
       inkscape:collect="always"
       xlink:href="#linearGradient2338"
       id="linearGradient3401"
       x1="47.906485"
       y1="69.707885"
       x2="50.91169"
       y2="68.337868"
       gradientUnits="userSpaceOnUse"
       gradientTransform="translate(2.7675676,0)" />
    <linearGradient
       inkscape:collect="always"
       xlink:href="#linearGradient2338"
       id="linearGradient3403"
       x1="43.133514"
       y1="69.928856"
       x2="46.757439"
       y2="67.365593"
       gradientUnits="userSpaceOnUse"
       gradientTransform="translate(2.7675676,0)" />
    <linearGradient
       inkscape:collect="always"
       xlink:href="#linearGradient2338"
       id="linearGradient3405"
       x1="42.514793"
       y1="70.680153"
       x2="43.487068"
       y2="72.005989"
       gradientUnits="userSpaceOnUse"
       gradientTransform="translate(2.7675676,0)" />
    <linearGradient
       inkscape:collect="always"
       xlink:href="#linearGradient2338"
       id="linearGradient3407"
       x1="38.890873"
       y1="73.287613"
       x2="40.393475"
       y2="70.901131"
       gradientUnits="userSpaceOnUse"
       gradientTransform="translate(2.7675676,0)" />
    <linearGradient
       inkscape:collect="always"
       xlink:href="#linearGradient2338"
       id="linearGradient3409"
       x1="33.322407"
       y1="71.961784"
       x2="35.222755"
       y2="70.194023"
       gradientUnits="userSpaceOnUse"
       gradientTransform="translate(2.7675676,0)" />
    <filter
       inkscape:collect="always"
       id="filter3624">
      <feGaussianBlur
         inkscape:collect="always"
         stdDeviation="1.6110465"
         id="feGaussianBlur3626" />
    </filter>
  </defs>
  <sodipodi:namedview
     id="base"
     pagecolor="#ffffff"
     bordercolor="#666666"
     borderopacity="1.0"
     gridtolerance="10000"
     guidetolerance="10"
     objecttolerance="10"
     inkscape:pageopacity="0.0"
     inkscape:pageshadow="2"
     inkscape:zoom="1"
     inkscape:cx="64"
     inkscape:cy="64"
     inkscape:document-units="px"
     inkscape:current-layer="layer2"
     showgrid="false"
     width="744.09px"
     inkscape:window-width="1248"
     inkscape:window-height="975"
     inkscape:window-x="426"
     inkscape:window-y="24" />
  <metadata
     id="metadata7">
    <rdf:RDF>
      <cc:Work
         rdf:about="">
        <dc:format>image/svg+xml</dc:format>
        <dc:type
           rdf:resource="http://purl.org/dc/dcmitype/StillImage" />
      </cc:Work>
    </rdf:RDF>
  </metadata>
  <g
     inkscape:groupmode="layer"
     id="layer2"
     inkscape:label="colors">
    <path
       style="fill:#000000;fill-rule:evenodd;stroke:none;stroke-width:1px;stroke-linecap:butt;stroke-linejoin:miter;stroke-opacity:1;filter:url(#filter3624);fill-opacity:0.73059362"
       d="M 98.996136,48.055455 C 100.78992,48.872451 101.49016,50.794062 99.69335,48.621708 C 96.685612,47.855433 102.82837,51.56355 99.024494,49.738132 C 96.951343,50.799187 98.522512,51.040982 96.896478,49.976841 C 96.441544,47.293768 87.595426,52.412026 93.89668,51.020659 C 93.148772,52.182227 94.189037,53.579447 93.203572,51.755467 C 88.66553,50.210483 93.200019,55.264726 91.478822,54.692763 C 90.178966,57.422176 94.870035,58.625691 95.367697,60.9016 C 95.760232,62.994212 97.378233,65.31689 93.559197,66.202585 C 96.616595,66.410638 91.79353,66.231995 93.926582,67.771187 C 95.611023,69.046389 88.818889,66.421835 87.128736,67.964063 C 84.27065,68.500684 83.873383,69.899492 83.107583,70.826346 C 80.410481,69.44896 73.5981,71.812107 76.215317,71.952021 C 73.625936,71.420303 76.001092,73.558259 73.708203,73.989879 C 75.036105,75.414691 71.256938,72.790834 70.339032,74.693754 C 67.530216,75.219845 76.13743,73.345532 70.866504,73.18268 C 68.089974,73.479614 65.984623,74.416069 65.896848,75.956446 C 63.566702,75.68184 58.151762,75.74906 58.235434,76.876404 C 60.505047,77.97534 66.986894,75.500573 61.42523,77.116728 C 59.643418,77.268753 55.642045,76.707518 58.778567,78.25229 C 62.892576,78.539403 55.780701,78.294132 54.545802,78.643863 C 49.566225,77.697629 48.661933,80.674647 49.322314,79.866012 C 45.713361,80.690828 54.489497,82.006917 48.806994,81.10473 C 44.934164,81.512187 40.931629,83.460535 37.398499,82.825452 C 37.742663,84.342115 41.039385,83.938219 37.317334,83.901211 C 35.139333,84.353786 29.990937,86.362958 30.136566,85.692241 C 32.513368,85.838351 36.789304,83.716097 31.682385,84.011231 C 27.085795,85.530843 32.511198,81.856561 30.248767,80.554191 C 29.856892,78.521871 28.579778,73.555876 23.674167,75.41848 C 25.226823,77.418962 19.310883,76.372292 23.632851,76.595209 C 23.665924,75.032434 18.164828,76.03765 20.361778,74.754554 C 18.629051,73.956908 11.821913,74.227239 15.57428,76.09622 C 16.784804,77.398858 12.484319,73.127842 14.191875,76.09963 C 16.418908,77.850602 15.77019,76.419982 13.130414,76.56622 C 11.84907,78.082295 13.683527,77.248767 11.777979,76.542629 C 12.298797,76.906455 9.5827751,74.904975 7.9829507,76.539768 C 4.7524164,77.376725 7.2953101,78.302911 8.7656845,78.035551 C 8.1452108,79.802086 9.2553565,79.34111 7.669353,78.142432 C 3.539995,77.760201 8.2086279,81.343602 6.3781468,81.520256 C 5.2136651,84.633802 11.106937,85.672491 10.519705,88.617719 C 12.127124,96.042371 13.734544,103.46703 15.341961,110.89168 C 20.94892,113.00948 28.615107,113.30417 34.311392,111.00152 C 38.526169,109.3877 39.243856,106.52205 44.658099,105.77844 C 49.570171,104.17877 52.032133,101.50863 57.032919,100.00579 C 55.082205,97.833188 61.568111,97.612153 62.838034,99.37888 C 62.071094,97.580718 67.300284,95.45668 68.612171,97.414251 C 68.115611,95.581592 72.896432,94.095859 74.604865,95.4071 C 74.020131,93.327274 77.953222,93.283398 78.940761,93.995592 C 78.973936,92.191585 83.114241,91.085719 84.36087,92.540337 C 83.93837,89.909998 88.174977,90.634907 90.19848,88.693631 C 96.509278,87.252942 99.724136,82.683074 106.72644,83.518786 C 112.00606,83.563671 117.81131,82.101461 120.56804,79.428612 C 117.73323,71.262366 117.47037,65.570314 114.51519,57.412216 C 117.42988,55.20533 114.32913,52.416564 113.96577,50.00223 C 113.37989,47.838696 106.93581,47.548004 108.93007,50.210372 C 104.45731,49.549467 110.62748,50.629088 108.22239,49.170525 C 106.18812,48.73904 103.89388,49.073147 105.63505,48.176642 C 103.88556,46.980576 101.17902,48.16701 98.996136,48.055455 z M 45.175726,81.657245 C 43.060723,79.995898 34.547195,82.941541 40.94557,82.730872 C 42.355621,82.372997 43.765673,82.015121 45.175726,81.657245 z M 101.82591,48.744993 C 103.23204,48.70512 98.608016,49.341871 101.82591,48.744993 z M 99.759709,50.805416 L 98.725488,50.997428 L 99.759709,50.805416 z M 111.13303,49.982477 C 111.87965,50.412734 111.34689,51.002069 111.13303,49.982477 z M 101.87038,51.097852 C 104.3215,50.769373 97.679531,52.124264 101.87038,51.097852 z M 104.80732,50.833321 L 105.91854,50.782052 L 104.80732,50.833321 z M 109.13474,51.191119 C 110.3317,51.373633 110.71818,51.806872 109.13474,51.191119 z M 97.680788,52.454599 C 97.030652,53.006625 94.899793,53.774741 96.857693,52.817338 L 97.680788,52.454599 z M 111.58694,51.251769 C 112.19635,52.146351 111.27384,52.396253 111.58694,51.251769 z M 93.944109,53.371584 C 92.23528,53.957262 91.919568,53.872837 93.944109,53.371584 z M 110.17521,51.771076 C 111.33695,52.733042 110.62736,52.514938 110.17521,51.771076 z M 95.200955,53.634474 L 96.106015,53.822736 L 95.200955,53.634474 z M 111.21779,52.72408 C 111.5168,53.717168 109.55823,53.632974 111.32962,52.939204 L 111.21779,52.72408 z M 93.374498,54.609239 C 95.774654,56.005269 101.57429,53.027895 97.447262,55.267382 C 96.241839,54.696314 94.528104,55.277502 93.374498,54.609239 z M 97.817535,54.89614 L 97.465452,54.959224 L 97.817535,54.89614 z M 103.64369,53.586192 C 104.64825,54.488591 105.32089,54.894221 103.79056,53.822144 C 103.68251,55.44988 103.83142,54.828212 103.64369,53.586192 z M 100.24851,55.489417 C 105.02431,55.110252 94.774089,56.426208 100.27472,56.759334 C 96.312263,57.167069 98.210636,56.357173 100.24851,55.489417 z M 103.77092,55.262545 C 104.07659,55.570378 103.05399,55.256379 103.77092,55.262545 z M 104.14,55.617274 C 105.06475,56.306694 104.40547,57.160867 104.14,55.617274 z M 101.71947,59.934294 C 105.20969,59.76715 105.7486,60.063721 101.71947,59.934294 z M 96.320567,66.681139 C 96.262762,66.941396 95.737787,66.572886 96.320567,66.681139 z M 16.756997,75.422681 C 18.163134,75.382807 13.539111,76.019559 16.756997,75.422681 z M 91.461693,68.185703 L 90.851776,68.400387 L 91.461693,68.185703 z M 91.471234,68.34188 C 91.830025,69.565228 91.774261,70.517785 91.471234,68.34188 z M 96.445659,68.593457 C 94.737953,69.131365 93.978378,69.233416 96.445659,68.593457 z M 86.678127,69.839642 C 89.50531,71.694276 80.198047,72.675255 86.382789,71.291542 C 87.474114,71.06392 86.221434,70.294748 86.678127,69.839642 z M 14.690789,77.483105 L 13.656565,77.675119 L 14.690789,77.483105 z M 26.064121,76.660165 C 26.81074,77.090419 26.277967,77.679762 26.064121,76.660165 z M 16.801465,77.775541 C 19.252584,77.447061 12.610616,78.801953 16.801465,77.775541 z M 82.501264,70.998617 C 83.031437,71.336815 83.748226,72.236232 82.841413,71.357845 L 82.501264,70.998617 z M 19.738402,77.511009 L 20.84963,77.459741 L 19.738402,77.511009 z M 77.573462,72.254922 L 77.622443,72.282434 L 77.573462,72.254922 z M 24.065824,77.868808 C 25.262783,78.051323 25.649278,78.48456 24.065824,77.868808 z M 12.611869,79.13229 C 11.961731,79.684313 9.8308721,80.452431 11.788778,79.495027 L 12.611869,79.13229 z M 26.518034,77.929458 C 27.127441,78.82404 26.204916,79.073942 26.518034,77.929458 z M 8.875183,80.049272 C 7.1663311,80.634958 6.8506698,80.550518 8.875183,80.049272 z M 25.106298,78.448765 C 26.268049,79.410732 25.558448,79.192626 25.106298,78.448765 z M 10.132039,80.312163 L 11.037106,80.500424 L 10.132039,80.312163 z M 76.268822,73.647198 C 81.033212,73.912529 71.698361,75.272488 77.188415,74.211818 C 78.781551,73.950529 76.68451,73.59234 76.268822,73.647198 z M 26.14888,79.401768 C 26.447888,80.394856 24.489321,80.310662 26.260714,79.616894 L 26.14888,79.401768 z M 8.3055755,81.286928 C 10.705744,82.682957 16.505387,79.705582 12.378341,81.94507 C 11.172928,81.374002 9.4591862,81.955192 8.3055755,81.286928 z M 12.74861,81.57383 L 12.396532,81.636913 L 12.74861,81.57383 z M 18.57478,80.263881 C 19.579328,81.16628 20.251986,81.57191 18.721665,80.499833 C 18.613585,82.12757 18.76252,81.505901 18.57478,80.263881 z M 68.05616,76.107719 C 72.639967,76.401475 61.967564,77.668926 67.125153,76.872251 C 68.29817,76.63174 71.080562,76.28531 68.05616,76.107719 z M 15.17959,82.167105 C 19.955403,81.78794 9.7051659,83.103897 15.205809,83.437022 C 11.24333,83.844759 13.141712,83.034864 15.17959,82.167105 z M 18.702001,81.940233 C 19.007676,82.248066 17.98508,81.934069 18.702001,81.940233 z M 19.071094,82.294962 C 20.080685,83.150779 19.101698,83.690089 19.071094,82.294962 z M 55.268922,78.903957 C 53.417633,79.557776 49.065202,81.471607 52.827441,79.541774 C 53.78367,79.569894 54.441461,79.093515 55.268922,78.903957 z M 47.943982,82.490665 C 46.526822,82.924641 45.277,83.155778 47.943982,82.490665 z M 40.83125,83.796189 C 41.8472,85.468165 31.493229,86.320627 38.284545,85.003089 C 39.174161,84.732013 41.596821,84.691358 40.83125,83.796189 z M 16.782076,86.598376 C 19.866861,86.403138 21.894264,86.774702 16.782076,86.598376 z M 51.497124,83.105372 C 44.846808,85.142331 38.196492,87.17929 31.546174,89.216249 C 32.630847,92.245079 34.510384,97.429029 35.101391,99.119372 C 33.536989,94.980078 31.972588,90.840777 30.408187,86.701474 C 30.30072,89.050985 32.604755,89.399359 35.508122,87.958988 C 40.83779,86.341116 46.167457,84.723246 51.497124,83.105372 z M 76.853006,80.501982 C 82.441305,79.772208 75.762414,84.062864 75.488294,80.869324 C 73.534051,81.172887 75.194018,84.12555 71.515565,83.296074 C 71.732403,81.112996 68.451169,81.741456 70.039991,83.563263 C 68.782588,85.640639 62.555823,84.972577 66.494483,82.904092 C 69.598855,81.653985 73.184207,80.920307 76.853006,80.501982 z M 79.5926,82.084896 C 81.734113,84.414278 73.33485,84.609344 77.804639,82.523847 C 78.353542,82.303902 79.030115,82.283714 79.5926,82.084896 z M 64.164388,83.897027 C 66.645086,86.431174 55.401729,87.809703 61.333357,85.155785 C 62.207689,84.68549 63.185291,84.287814 64.164388,83.897027 z M 74.964957,83.447667 C 77.120539,85.772032 68.69832,85.977466 73.144017,83.892357 C 73.705225,83.671933 74.391948,83.649472 74.964957,83.447667 z M 70.332012,84.791342 C 72.762716,87.12792 62.484924,87.966204 67.309082,85.67346 C 68.316725,85.37942 69.324369,85.085381 70.332012,84.791342 z M 80.186491,84.223754 C 82.916649,86.52283 74.927688,87.995978 77.556201,84.937903 C 78.494647,84.787974 79.294717,84.440362 80.186491,84.223754 z M 58.386945,87.087903 C 56.754593,88.387477 56.010683,88.822111 58.882281,88.56636 C 57.749791,92.502232 53.766028,88.450401 58.386945,87.087903 z M 64.639472,86.460733 C 67.041688,88.556093 56.950165,90.046345 60.970399,87.537772 C 62.193424,87.178759 63.416446,86.819745 64.639472,86.460733 z M 75.558847,85.586526 C 78.349487,87.947405 70.466534,89.482704 72.940779,86.345373 C 73.813468,86.092424 74.686158,85.839476 75.558847,85.586526 z M 70.991661,86.923398 C 74.402647,89.759362 63.427914,91.280711 67.614262,87.861604 C 68.700411,87.497307 69.993338,87.382958 70.991661,86.923398 z M 80.918245,86.859135 C 83.590794,89.048228 75.722243,90.517331 78.310946,87.589961 C 79.261222,87.461985 80.029874,87.075291 80.918245,86.859135 z M 65.271544,88.615287 C 68.627364,91.131618 58.399746,93.536323 60.991763,89.893945 C 62.337203,89.386722 63.893377,89.100958 65.271544,88.615287 z M 76.33409,88.2567 C 79.012036,90.460303 71.176779,91.932607 73.730709,88.986246 C 74.680019,88.859432 75.446716,88.47193 76.33409,88.2567 z M 56.581608,90.575108 C 57.217796,91.661653 60.436011,89.421302 59.898729,91.644741 C 59.897407,93.709698 55.650124,93.4114 56.754109,91.224918 L 56.581608,90.575108 z M 71.782811,89.650861 C 74.928094,92.24922 64.334565,93.721385 68.374673,90.684853 C 69.480994,90.306489 70.678881,90.031816 71.782811,89.650861 z M 81.612886,89.360836 C 84.641155,91.65051 75.983724,92.709503 79.304849,90.095668 C 80.074196,89.850725 80.843539,89.605779 81.612886,89.360836 z M 66.078601,91.400041 C 69.19741,93.816846 58.84704,95.82282 62.235593,92.567011 C 63.419735,92.070933 64.901927,91.904417 66.078601,91.400041 z M 77.044636,90.81569 C 79.674518,93.251077 71.051631,93.728791 75.141798,91.257826 C 75.885482,91.30425 76.413767,90.969112 77.044636,90.81569 z M 60.154834,93.211223 C 62.67716,94.930317 54.950371,97.14963 60.769949,96.155286 C 62.805967,97.972616 56.660679,98.63486 58.062985,96.12668 C 57.818602,94.042144 56.036583,93.968171 60.154834,93.211223 z M 72.536844,92.244647 C 75.193996,94.297654 65.691146,96.147241 68.98675,93.38171 C 70.170114,93.002684 71.35348,92.623669 72.536844,92.244647 z M 66.84854,94.051114 C 69.458759,96.185728 59.463385,97.744672 63.346475,95.166422 C 64.51383,94.794657 65.681187,94.42289 66.84854,94.051114 z"
       id="path3411"
       sodipodi:nodetypes="ccccccccccccccccccccccccccccccccccccccccccccccccccccccccccccccccccccccccccccccccccccccccccccccccccccccccccccccccccccccccccccccccccccccccccccccccccccccccccccccccccccccccccccccccccccccccccccccccccccccccccccccccccccccccccccccccccccccccccccccccccccccccccccccccccccc" />
    <path
       style="fill:url(#linearGradient2508);fill-rule:evenodd;stroke:none;stroke-width:1px;stroke-linecap:butt;stroke-linejoin:miter;stroke-opacity:1"
       d="M 15.610156,110.38731 L 17.016725,69.902578 L 19.585243,71.186837 L 25.639606,72.532251 L 29.675848,72.226475 L 33.100538,71.309147 L 35.48559,69.963733 L 37.809487,110.69308 L 34.323641,113.32276 L 28.697365,115.0351 L 23.866105,114.79048 L 19.585243,113.2616 L 15.610156,110.38731 z"
       id="path2506" />
    <path
       style="fill:url(#linearGradient2580);fill-opacity:1;fill-rule:evenodd;stroke:none;stroke-width:1px;stroke-linecap:butt;stroke-linejoin:miter;stroke-opacity:1"
       d="M 14.767568,61.5625 L 14.705068,62.625 L 14.830068,67.875 L 17.642568,70.4375 L 20.705068,71.625 L 27.767568,72.625 L 32.455068,71.8125 L 35.517568,70.0625 L 37.205068,68.125 L 37.142568,62.4375 L 36.392568,63.5 L 34.392568,65.4375 L 33.955068,62.9375 L 27.142568,64.25 L 26.955068,67.0625 L 20.392568,66.5 L 20.455068,63.5 L 17.330068,62.75 L 15.705068,61.1875 L 15.455068,62.375 L 14.767568,61.5625 z"
       id="path2510"
       sodipodi:nodetypes="ccccccccccccccccccccc" />
    <path
       style="fill:url(#linearGradient2578);fill-rule:evenodd;stroke:none;stroke-width:1px;stroke-linecap:butt;stroke-linejoin:miter;stroke-opacity:1"
       d="M 15.330068,62.0625 L 15.017568,61.125 L 15.392568,59 L 17.517568,59.625 L 17.767568,60.1875 L 15.830068,60.6875 L 15.330068,62.0625 z"
       id="path2512" />
    <path
       style="fill:url(#linearGradient2576);fill-rule:evenodd;stroke:none;stroke-width:1px;stroke-linecap:butt;stroke-linejoin:miter;stroke-opacity:1"
       d="M 17.392568,59.625 L 15.267568,59.125 L 15.205068,56.5625 L 17.392568,57.3125 L 17.392568,59.625 z"
       id="path2514" />
    <path
       style="fill:url(#linearGradient2574);fill-rule:evenodd;stroke:none;stroke-width:1px;stroke-linecap:butt;stroke-linejoin:miter;stroke-opacity:1"
       d="M 17.517568,57.125 L 15.517568,56.375 L 16.080068,55.3125 L 19.705068,53.5625 L 21.455068,55.125 L 19.705068,55.625 L 18.330068,56.5 L 17.517568,57.125 z"
       id="path2516" />
    <path
       style="fill:url(#linearGradient2572);fill-rule:evenodd;stroke:none;stroke-width:1px;stroke-linecap:butt;stroke-linejoin:miter;stroke-opacity:1"
       d="M 21.767568,55.8125 L 23.517568,55.3125 L 24.642568,56.6875 L 24.142568,57.0625 L 21.892568,57.3125 L 21.767568,55.8125 z"
       id="path2518" />
    <path
       style="fill:url(#linearGradient2570);fill-rule:evenodd;stroke:none;stroke-width:1px;stroke-linecap:butt;stroke-linejoin:miter;stroke-opacity:1"
       d="M 23.455068,55.25 L 23.330068,52.6875 L 24.580068,54.4375 L 24.892568,56.6875 L 23.455068,55.25 z"
       id="path2520" />
    <path
       style="fill:url(#linearGradient2568);fill-rule:evenodd;stroke:none;stroke-width:1px;stroke-linecap:butt;stroke-linejoin:miter;stroke-opacity:1"
       d="M 23.580068,52.625 L 24.767568,54.5 L 26.017568,54.1875 L 29.892568,54.6875 L 28.830068,52.75 L 24.330068,52.6875 L 23.892568,52.625 L 23.580068,52.625 z"
       id="path2522" />
    <path
       style="fill:url(#linearGradient2566);fill-rule:evenodd;stroke:none;stroke-width:1px;stroke-linecap:butt;stroke-linejoin:miter;stroke-opacity:1"
       d="M 29.955068,55.625 L 30.955068,55.4375 L 32.142568,55.9375 L 32.080068,57.5625 L 29.830068,56.5 L 29.955068,55.625 z"
       id="path2524" />
    <path
       style="fill:url(#linearGradient2564);fill-rule:evenodd;stroke:none;stroke-width:1px;stroke-linecap:butt;stroke-linejoin:miter;stroke-opacity:1"
       d="M 32.392568,55.125 L 34.142568,54.4375 L 35.642568,55.6875 L 36.642568,57.25 L 37.142568,59.25 L 34.267568,59.25 L 34.580068,58.3125 L 34.017568,57.125 L 32.392568,55.125 z"
       id="path2526" />
    <path
       style="fill:url(#linearGradient2562);fill-rule:evenodd;stroke:none;stroke-width:1px;stroke-linecap:butt;stroke-linejoin:miter;stroke-opacity:1"
       d="M 34.392568,59.0625 L 34.392568,61.3125 L 37.142568,61.75 L 36.955068,59.1875 L 34.392568,59.0625 z"
       id="path2528" />
    <path
       style="fill:url(#linearGradient2560);fill-rule:evenodd;stroke:none;stroke-width:1px;stroke-linecap:butt;stroke-linejoin:miter;stroke-opacity:1"
       d="M 34.455068,61.3125 L 33.642568,62 L 33.955068,62.875 L 34.330068,65.5625 L 35.705068,64.3125 L 36.830068,63 L 37.205068,61.6875 L 34.455068,61.3125 z"
       id="path2530" />
    <path
       style="fill:url(#linearGradient2558);fill-rule:evenodd;stroke:none;stroke-width:1px;stroke-linecap:butt;stroke-linejoin:miter;stroke-opacity:1"
       d="M 32.830068,60.3125 L 33.892568,62.8125 L 29.580068,64 L 27.205068,64.125 L 26.517568,62.125 L 28.705068,61.875 L 31.330068,61.0625 L 32.830068,60.3125 z"
       id="path2532" />
    <path
       style="fill:url(#linearGradient2556);fill-rule:evenodd;stroke:none;stroke-width:1px;stroke-linecap:butt;stroke-linejoin:miter;stroke-opacity:1"
       d="M 26.517568,62.3125 L 27.205068,64.1875 L 26.955068,67 L 26.142568,64.875 L 26.517568,62.3125 z"
       id="path2534" />
    <path
       style="fill:url(#linearGradient2554);fill-opacity:1;fill-rule:evenodd;stroke:none;stroke-width:1px;stroke-linecap:butt;stroke-linejoin:miter;stroke-opacity:1"
       d="M 26.267568,65 L 26.705068,66.9375 C 24.475695,67.1151 22.477305,66.715241 20.580068,66.0625 L 22.767568,64.75 L 24.392568,65.0625 L 26.267568,65 z"
       id="path2536"
       sodipodi:nodetypes="cccccc" />
    <path
       style="fill:url(#linearGradient2552);fill-rule:evenodd;stroke:none;stroke-width:1px;stroke-linecap:butt;stroke-linejoin:miter;stroke-opacity:1"
       d="M 20.267568,66 L 22.830068,64.6875 L 22.580068,62.3125 L 20.517568,63.4375 L 20.267568,66 z"
       id="path2538" />
    <path
       style="fill:url(#linearGradient2550);fill-opacity:1;fill-rule:evenodd;stroke:none;stroke-width:1px;stroke-linecap:butt;stroke-linejoin:miter;stroke-opacity:1"
       d="M 20.767568,63.3125 L 18.955068,63.0625 L 17.517568,62.625 L 16.142568,61.8125 L 15.705068,60.8125 L 17.955068,60.1875 L 18.830068,61.0625 L 21.080068,62 L 22.330068,62.3125 L 20.392568,63.375 L 20.767568,63.3125 z"
       id="path2540" />
    <path
       style="fill:url(#linearGradient2548);fill-rule:evenodd;stroke:none;stroke-width:1px;stroke-linecap:butt;stroke-linejoin:miter;stroke-opacity:1"
       d="M 19.205068,60.75 L 22.080068,58.875 L 25.267568,58.0625 L 27.330068,57.875 L 29.580068,58.1875 L 31.517568,58.8125 L 33.830068,60.5625 L 34.392568,61.5625 L 33.580068,62.125 L 32.955068,60.375 L 29.892568,61.6875 L 26.455068,62.1875 L 26.142568,64.9375 L 25.455068,65.125 L 23.392568,64.8125 L 22.767568,64.625 L 22.455068,62.375 L 20.455068,61.8125 L 18.830068,61 L 19.205068,60.75 z"
       id="path2542" />
    <path
       style="fill:url(#linearGradient2546);fill-rule:evenodd;stroke:none;stroke-width:1px;stroke-linecap:butt;stroke-linejoin:miter;stroke-opacity:1"
       d="M 18.892568,61 L 17.455068,60.1875 L 17.580068,57.4375 L 19.080068,55.75 L 21.642568,55.125 L 21.705068,57.25 L 23.142568,57.25 L 24.892568,56.75 L 24.705068,54.5 L 26.955068,54.1875 L 29.955068,54.875 L 30.017568,56.6875 L 32.205068,57.6875 L 32.142568,55.1875 L 33.330068,56.0625 L 34.267568,57.5 L 34.455068,59.125 L 34.267568,61.0625 L 32.517568,59.4375 L 29.017568,58 L 25.455068,57.9375 L 22.705068,58.75 L 20.080068,59.9375 L 18.892568,61 z"
       id="path2544"
       sodipodi:nodetypes="cccccccccccccccccccccccc" />
    <path
       id="path2584"
       d="M 15.330068,62.0625 L 15.017568,61.125 L 15.392568,59 L 17.517568,59.625 L 17.767568,60.1875 L 15.830068,60.6875 L 15.330068,62.0625 z"
       style="fill:#000000;fill-opacity:0.15686275;fill-rule:evenodd;stroke:none;stroke-width:1px;stroke-linecap:butt;stroke-linejoin:miter;stroke-opacity:1" />
    <path
       id="path2586"
       d="M 17.392568,59.625 L 15.267568,59.125 L 15.205068,56.5625 L 17.392568,57.3125 L 17.392568,59.625 z"
       style="fill:#000000;fill-opacity:0.15686275;fill-rule:evenodd;stroke:none;stroke-width:1px;stroke-linecap:butt;stroke-linejoin:miter;stroke-opacity:1" />
    <path
       id="path2588"
       d="M 23.455068,55.25 L 23.330068,52.6875 L 24.580068,54.4375 L 24.892568,56.6875 L 23.455068,55.25 z"
       style="fill:#000000;fill-opacity:0.15686275;fill-rule:evenodd;stroke:none;stroke-width:1px;stroke-linecap:butt;stroke-linejoin:miter;stroke-opacity:1" />
    <path
       id="path2590"
       d="M 34.392568,59.0625 L 34.392568,61.3125 L 37.142568,61.75 L 36.955068,59.1875 L 34.392568,59.0625 z"
       style="fill:#000000;fill-opacity:0.15686275;fill-rule:evenodd;stroke:none;stroke-width:1px;stroke-linecap:butt;stroke-linejoin:miter;stroke-opacity:1" />
    <path
       sodipodi:nodetypes="cccccccccccccccccccccccc"
       id="path2592"
       d="M 18.892568,61 L 17.455068,60.1875 L 17.580068,57.4375 L 19.080068,55.75 L 21.642568,55.125 L 21.705068,57.25 L 23.142568,57.25 L 24.892568,56.75 L 24.705068,54.5 L 26.955068,54.1875 L 29.955068,54.875 L 30.017568,56.6875 L 32.205068,57.6875 L 32.142568,55.1875 L 33.330068,56.0625 L 34.267568,57.5 L 34.455068,59.125 L 34.267568,61.0625 L 32.517568,59.4375 L 29.017568,58 L 25.455068,57.9375 L 22.705068,58.75 L 20.080068,59.9375 L 18.892568,61 z"
       style="fill:#000000;fill-opacity:0.15686275;fill-rule:evenodd;stroke:none;stroke-width:1px;stroke-linecap:butt;stroke-linejoin:miter;stroke-opacity:1" />
    <path
       sodipodi:nodetypes="ccccccccccccccccccccc"
       id="path2582"
       d="M 14.767568,61.5625 L 14.705068,62.625 L 14.830068,67.875 L 17.642568,70.4375 L 20.705068,71.625 L 27.767568,72.625 L 32.455068,71.8125 L 35.517568,70.0625 L 37.205068,68.125 L 37.142568,62.4375 L 36.392568,63.5 L 34.392568,65.4375 L 33.955068,62.9375 L 27.267568,64.25 L 26.955068,67.0625 L 20.392568,66.5 L 20.455068,63.5 L 17.330068,62.75 L 15.705068,61.1875 L 15.455068,62.375 L 14.767568,61.5625 z"
       style="fill:#000000;fill-opacity:0.15686275;fill-rule:evenodd;stroke:none;stroke-width:1px;stroke-linecap:butt;stroke-linejoin:miter;stroke-opacity:1" />
    <path
       style="fill:#d59163;fill-opacity:1;fill-rule:evenodd;stroke:none;stroke-width:1px;stroke-linecap:butt;stroke-linejoin:miter;stroke-opacity:1"
       d="M 29.705068,89.8125 L 34.517568,88.5625 L 34.080068,86.3125 L 33.142568,83.875 L 31.580068,81.5 L 30.392568,83.625 L 29.642568,86 L 29.642568,87.625 L 29.705068,89.8125 z"
       id="path3172" />
    <path
       id="path3174"
       d="M 101.06686,81.940039 L 102.47343,41.455307 L 105.04195,42.739566 L 111.09631,44.08498 L 115.13255,43.779204 L 118.55724,42.861876 L 120.9423,41.516462 L 123.26619,82.245809 L 119.78035,84.875489 L 114.15407,86.587829 L 109.32281,86.343209 L 105.04195,84.814329 L 101.06686,81.940039 z"
       style="fill:url(#linearGradient3227);fill-rule:evenodd;stroke:none;stroke-width:1px;stroke-linecap:butt;stroke-linejoin:miter;stroke-opacity:1" />
    <path
       sodipodi:nodetypes="ccccccccccccccccccccc"
       id="path3176"
       d="M 100.22427,33.115229 L 100.16177,34.177729 L 100.28677,39.427729 L 103.09927,41.990229 L 106.16177,43.177729 L 113.22427,44.177729 L 117.91177,43.365229 L 120.97427,41.615229 L 122.66177,39.677729 L 122.59927,33.990229 L 121.84927,35.052729 L 119.84927,36.990229 L 119.41177,34.490229 L 112.59927,35.802729 L 112.41177,38.615229 L 105.84927,38.052729 L 105.91177,35.052729 L 102.78677,34.302729 L 101.16177,32.740229 L 100.91177,33.927729 L 100.22427,33.115229 z"
       style="fill:url(#linearGradient3229);fill-opacity:1;fill-rule:evenodd;stroke:none;stroke-width:1px;stroke-linecap:butt;stroke-linejoin:miter;stroke-opacity:1" />
    <path
       id="path3178"
       d="M 100.78677,33.615229 L 100.47427,32.677729 L 100.84927,30.552729 L 102.97427,31.177729 L 103.22427,31.740229 L 101.28677,32.240229 L 100.78677,33.615229 z"
       style="fill:url(#linearGradient3231);fill-rule:evenodd;stroke:none;stroke-width:1px;stroke-linecap:butt;stroke-linejoin:miter;stroke-opacity:1" />
    <path
       id="path3180"
       d="M 102.84927,31.177729 L 100.72427,30.677729 L 100.66177,28.115229 L 102.84927,28.865229 L 102.84927,31.177729 z"
       style="fill:url(#linearGradient3233);fill-rule:evenodd;stroke:none;stroke-width:1px;stroke-linecap:butt;stroke-linejoin:miter;stroke-opacity:1" />
    <path
       id="path3182"
       d="M 102.97427,28.677729 L 100.97427,27.927729 L 101.53677,26.865229 L 105.16177,25.115229 L 106.91177,26.677729 L 105.16177,27.177729 L 103.78677,28.052729 L 102.97427,28.677729 z"
       style="fill:url(#linearGradient3235);fill-rule:evenodd;stroke:none;stroke-width:1px;stroke-linecap:butt;stroke-linejoin:miter;stroke-opacity:1" />
    <path
       id="path3184"
       d="M 107.22427,27.365229 L 108.97427,26.865229 L 110.09927,28.240229 L 109.59927,28.615229 L 107.34927,28.865229 L 107.22427,27.365229 z"
       style="fill:url(#linearGradient3237);fill-rule:evenodd;stroke:none;stroke-width:1px;stroke-linecap:butt;stroke-linejoin:miter;stroke-opacity:1" />
    <path
       id="path3186"
       d="M 108.91177,26.802729 L 108.78677,24.240229 L 110.03677,25.990229 L 110.34927,28.240229 L 108.91177,26.802729 z"
       style="fill:url(#linearGradient3239);fill-rule:evenodd;stroke:none;stroke-width:1px;stroke-linecap:butt;stroke-linejoin:miter;stroke-opacity:1" />
    <path
       id="path3188"
       d="M 109.03677,24.177729 L 110.22427,26.052729 L 111.47427,25.740229 L 115.34927,26.240229 L 114.28677,24.302729 L 109.78677,24.240229 L 109.34927,24.177729 L 109.03677,24.177729 z"
       style="fill:url(#linearGradient3241);fill-rule:evenodd;stroke:none;stroke-width:1px;stroke-linecap:butt;stroke-linejoin:miter;stroke-opacity:1" />
    <path
       id="path3190"
       d="M 115.41177,27.177729 L 116.41177,26.990229 L 117.59927,27.490229 L 117.53677,29.115229 L 115.28677,28.052729 L 115.41177,27.177729 z"
       style="fill:url(#linearGradient3243);fill-rule:evenodd;stroke:none;stroke-width:1px;stroke-linecap:butt;stroke-linejoin:miter;stroke-opacity:1" />
    <path
       id="path3192"
       d="M 117.84927,26.677729 L 119.59927,25.990229 L 121.09927,27.240229 L 122.09927,28.802729 L 122.59927,30.802729 L 119.72427,30.802729 L 120.03677,29.865229 L 119.47427,28.677729 L 117.84927,26.677729 z"
       style="fill:url(#linearGradient3245);fill-rule:evenodd;stroke:none;stroke-width:1px;stroke-linecap:butt;stroke-linejoin:miter;stroke-opacity:1" />
    <path
       id="path3194"
       d="M 119.84927,30.615229 L 119.84927,32.865229 L 122.59927,33.302729 L 122.41177,30.740229 L 119.84927,30.615229 z"
       style="fill:url(#linearGradient3247);fill-rule:evenodd;stroke:none;stroke-width:1px;stroke-linecap:butt;stroke-linejoin:miter;stroke-opacity:1" />
    <path
       id="path3196"
       d="M 119.91177,32.865229 L 119.09927,33.552729 L 119.41177,34.427729 L 119.78677,37.115229 L 121.16177,35.865229 L 122.28677,34.552729 L 122.66177,33.240229 L 119.91177,32.865229 z"
       style="fill:url(#linearGradient3249);fill-rule:evenodd;stroke:none;stroke-width:1px;stroke-linecap:butt;stroke-linejoin:miter;stroke-opacity:1" />
    <path
       id="path3198"
       d="M 118.28677,31.865229 L 119.34927,34.365229 L 115.03677,35.552729 L 112.66177,35.677729 L 111.97427,33.677729 L 114.16177,33.427729 L 116.78677,32.615229 L 118.28677,31.865229 z"
       style="fill:url(#linearGradient3251);fill-rule:evenodd;stroke:none;stroke-width:1px;stroke-linecap:butt;stroke-linejoin:miter;stroke-opacity:1" />
    <path
       id="path3200"
       d="M 111.97427,33.865229 L 112.66177,35.740229 L 112.41177,38.552729 L 111.59927,36.427729 L 111.97427,33.865229 z"
       style="fill:url(#linearGradient3253);fill-rule:evenodd;stroke:none;stroke-width:1px;stroke-linecap:butt;stroke-linejoin:miter;stroke-opacity:1" />
    <path
       sodipodi:nodetypes="cccccc"
       id="path3202"
       d="M 111.72427,36.552729 L 112.16177,38.490229 C 109.9324,38.667829 107.93401,38.26797 106.03677,37.615229 L 108.22427,36.302729 L 109.84927,36.615229 L 111.72427,36.552729 z"
       style="fill:url(#linearGradient3255);fill-opacity:1;fill-rule:evenodd;stroke:none;stroke-width:1px;stroke-linecap:butt;stroke-linejoin:miter;stroke-opacity:1" />
    <path
       id="path3204"
       d="M 105.72427,37.552729 L 108.28677,36.240229 L 108.03677,33.865229 L 105.97427,34.990229 L 105.72427,37.552729 z"
       style="fill:url(#linearGradient3257);fill-rule:evenodd;stroke:none;stroke-width:1px;stroke-linecap:butt;stroke-linejoin:miter;stroke-opacity:1" />
    <path
       id="path3206"
       d="M 106.22427,34.865229 L 104.41177,34.615229 L 102.97427,34.177729 L 101.59927,33.365229 L 101.16177,32.365229 L 103.41177,31.740229 L 104.28677,32.615229 L 106.53677,33.552729 L 107.78677,33.865229 L 105.84927,34.927729 L 106.22427,34.865229 z"
       style="fill:url(#linearGradient3259);fill-opacity:1;fill-rule:evenodd;stroke:none;stroke-width:1px;stroke-linecap:butt;stroke-linejoin:miter;stroke-opacity:1" />
    <path
       id="path3208"
       d="M 104.66177,32.302729 L 107.53677,30.427729 L 110.72427,29.615229 L 112.78677,29.427729 L 115.03677,29.740229 L 116.97427,30.365229 L 119.28677,32.115229 L 119.84927,33.115229 L 119.03677,33.677729 L 118.41177,31.927729 L 115.34927,33.240229 L 111.91177,33.740229 L 111.59927,36.490229 L 110.91177,36.677729 L 108.84927,36.365229 L 108.22427,36.177729 L 107.91177,33.927729 L 105.91177,33.365229 L 104.28677,32.552729 L 104.66177,32.302729 z"
       style="fill:url(#linearGradient3261);fill-rule:evenodd;stroke:none;stroke-width:1px;stroke-linecap:butt;stroke-linejoin:miter;stroke-opacity:1" />
    <path
       sodipodi:nodetypes="cccccccccccccccccccccccc"
       id="path3210"
       d="M 104.34927,32.552729 L 102.91177,31.740229 L 103.03677,28.990229 L 104.53677,27.302729 L 107.09927,26.677729 L 107.16177,28.802729 L 108.59927,28.802729 L 110.34927,28.302729 L 110.16177,26.052729 L 112.41177,25.740229 L 115.41177,26.427729 L 115.47427,28.240229 L 117.66177,29.240229 L 117.59927,26.740229 L 118.78677,27.615229 L 119.72427,29.052729 L 119.91177,30.677729 L 119.72427,32.615229 L 117.97427,30.990229 L 114.47427,29.552729 L 110.91177,29.490229 L 108.16177,30.302729 L 105.53677,31.490229 L 104.34927,32.552729 z"
       style="fill:url(#linearGradient3263);fill-rule:evenodd;stroke:none;stroke-width:1px;stroke-linecap:butt;stroke-linejoin:miter;stroke-opacity:1" />
    <path
       style="fill:#000000;fill-opacity:0.15686275;fill-rule:evenodd;stroke:none;stroke-width:1px;stroke-linecap:butt;stroke-linejoin:miter;stroke-opacity:1"
       d="M 100.78677,33.615229 L 100.47427,32.677729 L 100.84927,30.552729 L 102.97427,31.177729 L 103.22427,31.740229 L 101.28677,32.240229 L 100.78677,33.615229 z"
       id="path3212" />
    <path
       style="fill:#000000;fill-opacity:0.15686275;fill-rule:evenodd;stroke:none;stroke-width:1px;stroke-linecap:butt;stroke-linejoin:miter;stroke-opacity:1"
       d="M 102.84927,31.177729 L 100.72427,30.677729 L 100.66177,28.115229 L 102.84927,28.865229 L 102.84927,31.177729 z"
       id="path3214" />
    <path
       style="fill:#000000;fill-opacity:0.15686275;fill-rule:evenodd;stroke:none;stroke-width:1px;stroke-linecap:butt;stroke-linejoin:miter;stroke-opacity:1"
       d="M 108.91177,26.802729 L 108.78677,24.240229 L 110.03677,25.990229 L 110.34927,28.240229 L 108.91177,26.802729 z"
       id="path3216" />
    <path
       style="fill:#000000;fill-opacity:0.15686275;fill-rule:evenodd;stroke:none;stroke-width:1px;stroke-linecap:butt;stroke-linejoin:miter;stroke-opacity:1"
       d="M 119.84927,30.615229 L 119.84927,32.865229 L 122.59927,33.302729 L 122.41177,30.740229 L 119.84927,30.615229 z"
       id="path3218" />
    <path
       style="fill:#000000;fill-opacity:0.15686275;fill-rule:evenodd;stroke:none;stroke-width:1px;stroke-linecap:butt;stroke-linejoin:miter;stroke-opacity:1"
       d="M 104.34927,32.552729 L 102.91177,31.740229 L 103.03677,28.990229 L 104.53677,27.302729 L 107.09927,26.677729 L 107.16177,28.802729 L 108.59927,28.802729 L 110.34927,28.302729 L 110.16177,26.052729 L 112.41177,25.740229 L 115.41177,26.427729 L 115.47427,28.240229 L 117.66177,29.240229 L 117.59927,26.740229 L 118.78677,27.615229 L 119.72427,29.052729 L 119.91177,30.677729 L 119.72427,32.615229 L 117.97427,30.990229 L 114.47427,29.552729 L 110.91177,29.490229 L 108.16177,30.302729 L 105.53677,31.490229 L 104.34927,32.552729 z"
       id="path3221"
       sodipodi:nodetypes="cccccccccccccccccccccccc" />
    <path
       style="fill:#000000;fill-opacity:0.15686275;fill-rule:evenodd;stroke:none;stroke-width:1px;stroke-linecap:butt;stroke-linejoin:miter;stroke-opacity:1"
       d="M 100.22427,33.115229 L 100.16177,34.177729 L 100.28677,39.427729 L 103.09927,41.990229 L 106.16177,43.177729 L 113.22427,44.177729 L 117.91177,43.365229 L 120.97427,41.615229 L 122.66177,39.677729 L 122.59927,33.990229 L 121.84927,35.052729 L 119.84927,36.990229 L 119.41177,34.490229 L 112.72427,35.802729 L 112.41177,38.615229 L 105.84927,38.052729 L 105.91177,35.052729 L 102.78677,34.302729 L 101.16177,32.740229 L 100.91177,33.927729 L 100.22427,33.115229 z"
       id="path3223"
       sodipodi:nodetypes="ccccccccccccccccccccc" />
    <path
       id="path3225"
       d="M 114.60011,61.387695 L 119.41261,60.137695 L 118.97511,57.887695 L 118.03761,55.450195 L 116.47511,53.075195 L 115.28761,55.200195 L 114.53761,57.575195 L 114.53761,59.200195 L 114.60011,61.387695 z"
       style="fill:#d59163;fill-opacity:1;fill-rule:evenodd;stroke:none;stroke-width:1px;stroke-linecap:butt;stroke-linejoin:miter;stroke-opacity:1" />
    <path
       style="fill:url(#linearGradient3269);fill-rule:evenodd;stroke:none;stroke-width:1px;stroke-linecap:butt;stroke-linejoin:miter;stroke-opacity:1"
       d="M 58.830068,101.875 L 37.580068,109.3125 L 36.142568,78.5625 L 61.455068,70.4375 L 105.89257,56.4375 L 105.95507,85.0625 L 87.642568,91.6875 L 87.580068,73.0625 L 79.455068,72.0625 L 72.767568,73 L 64.892568,76.8125 L 58.955068,81.6875 L 58.830068,101.875 z"
       id="path3266" />
    <path
       style="fill:url(#linearGradient3273);fill-rule:evenodd;stroke:none;stroke-width:1px;stroke-linecap:butt;stroke-linejoin:miter;stroke-opacity:1"
       d="M 82.371381,72.193907 C 82.942175,72.281722 87.771971,72.984237 87.771971,72.984237 L 87.596342,91.556997 L 82.371381,89.361635 L 82.371381,72.193907 z"
       id="path3271" />
    <path
       id="path3275"
       d="M 82.371381,72.193907 C 82.942175,72.281722 87.771971,72.984237 87.771971,72.984237 L 87.596342,91.556997 L 82.371381,89.361635 L 82.371381,72.193907 z"
       style="fill:#000000;fill-opacity:0.15686275;fill-rule:evenodd;stroke:none;stroke-width:1px;stroke-linecap:butt;stroke-linejoin:miter;stroke-opacity:1" />
    <path
       style="fill:#ffffff;fill-opacity:0.1254902;fill-rule:evenodd;stroke:none;stroke-width:1px;stroke-linecap:butt;stroke-linejoin:miter;stroke-opacity:1"
       d="M 56.292772,102.72766 L 56.292772,81.056782 L 59.583765,77.641601 L 64.178736,74.164325 L 68.649518,72.053122 L 72.871924,70.68705 L 78.522497,69.755637 L 81.937678,69.631448 L 87.339874,70.066108 L 90.134113,70.811238 L 90.009925,90.557195 L 87.588251,91.612796 L 87.588251,72.984535 L 81.130453,72.115216 L 75.852446,72.301499 L 71.878417,73.543383 L 65.42062,76.275528 L 59.335388,81.305159 L 58.838634,81.988195 L 58.900728,101.98253 L 56.292772,102.72766 z"
       id="path3277" />
    <path
       style="fill:url(#linearGradient3281);fill-rule:evenodd;stroke:none;stroke-width:1px;stroke-linecap:butt;stroke-linejoin:miter;stroke-opacity:1"
       d="M 59.407898,82.029127 L 85.664423,74.169733 L 86.059588,73.862382 C 86.059588,73.862382 86.103496,73.598939 85.971774,73.42331 C 85.840052,73.247681 85.708331,72.94033 85.708331,72.94033 L 61.383724,79.92158 L 59.276177,81.721777 L 59.407898,82.029127 z"
       id="path3279" />
    <path
       id="path3283"
       d="M 58.968825,85.761242 L 85.70833,77.594497 L 86.103495,77.287146 C 86.103495,77.287146 86.147403,77.023703 86.015681,76.848074 C 85.883959,76.672445 85.664424,76.321187 85.664424,76.321187 L 58.924919,84.400118 L 58.968825,85.761242 z"
       style="fill:url(#linearGradient3285);fill-rule:evenodd;stroke:none;stroke-width:1px;stroke-linecap:butt;stroke-linejoin:miter;stroke-opacity:1"
       sodipodi:nodetypes="cccsccc" />
    <path
       style="fill:url(#linearGradient3289);fill-rule:evenodd;stroke:none;stroke-width:1px;stroke-linecap:butt;stroke-linejoin:miter;stroke-opacity:1"
       d="M 58.968825,90.459316 L 85.752237,81.853499 L 86.147402,81.546148 C 86.147402,81.546148 86.366939,81.194891 86.235217,81.019262 C 86.103495,80.843633 85.796145,80.492374 85.796145,80.492374 L 58.837104,89.405543 L 58.968825,90.459316 z"
       id="path3287"
       sodipodi:nodetypes="cccsccc" />
    <path
       id="path3291"
       d="M 59.100546,94.937854 L 85.840051,85.849057 L 86.279123,85.62952 C 86.279123,85.62952 86.49866,85.32217 86.323031,84.970912 C 86.224851,84.774553 86.015681,84.575747 86.015681,84.575747 L 59.012733,93.532823 L 59.100546,94.937854 z"
       style="fill:url(#linearGradient3293);fill-rule:evenodd;stroke:none;stroke-width:1px;stroke-linecap:butt;stroke-linejoin:miter;stroke-opacity:1"
       sodipodi:nodetypes="cccsccc" />
    <path
       style="fill:url(#linearGradient3297);fill-rule:evenodd;stroke:none;stroke-width:1px;stroke-linecap:butt;stroke-linejoin:miter;stroke-opacity:1"
       d="M 58.881011,98.582154 L 85.971773,89.844615 L 86.366938,89.537264 C 86.366938,89.537264 86.586475,89.186007 86.454753,89.010378 C 86.323031,88.834749 85.883959,88.615212 85.883959,88.615212 L 58.793197,97.177122 L 58.881011,98.582154 z"
       id="path3295"
       sodipodi:nodetypes="cccsccc" />
    <path
       style="fill:url(#linearGradient3301);fill-rule:evenodd;stroke:none;stroke-width:1px;stroke-linecap:butt;stroke-linejoin:miter;stroke-opacity:1"
       d="M 61.515445,79.306879 L 61.60326,99.811557 L 61.998425,100.075 L 62.437497,99.943278 L 63.052199,99.152948 L 62.613126,78.823899 L 61.515445,79.306879 z"
       id="path3299" />
    <path
       id="path3303"
       d="M 67.399015,75.618671 L 67.574644,97.572288 L 67.969809,97.835731 L 68.408881,97.704009 L 68.891861,97.133215 L 68.716232,74.828341 L 67.399015,75.618671 z"
       style="fill:url(#linearGradient3305);fill-rule:evenodd;stroke:none;stroke-width:1px;stroke-linecap:butt;stroke-linejoin:miter;stroke-opacity:1"
       sodipodi:nodetypes="ccccccc" />
    <path
       style="fill:url(#linearGradient3309);fill-rule:evenodd;stroke:none;stroke-width:1px;stroke-linecap:butt;stroke-linejoin:miter;stroke-opacity:1"
       d="M 73.106954,73.379402 L 73.326491,95.333019 L 73.721656,95.728184 L 74.424171,95.640369 L 74.77543,94.718317 L 74.511986,72.896422 L 73.106954,73.379402 z"
       id="path3307"
       sodipodi:nodetypes="ccccccc" />
    <path
       id="path3311"
       d="M 77.717214,72.457351 L 77.805029,94.147524 L 78.200194,94.410967 L 78.639266,94.279245 L 79.253968,93.488915 L 79.21006,72.369536 L 77.717214,72.457351 z"
       style="fill:url(#linearGradient3313);fill-rule:evenodd;stroke:none;stroke-width:1px;stroke-linecap:butt;stroke-linejoin:miter;stroke-opacity:1"
       sodipodi:nodetypes="ccccccc" />
    <path
       style="fill:url(#linearGradient3317);fill-rule:evenodd;stroke:none;stroke-width:1px;stroke-linecap:butt;stroke-linejoin:miter;stroke-opacity:1"
       d="M 83.02999,72.106093 L 83.161712,92.347328 L 83.556877,92.610771 L 84.171578,92.566863 L 84.610651,91.688719 L 84.522836,72.281722 L 83.02999,72.106093 z"
       id="path3315"
       sodipodi:nodetypes="ccccccc" />
    <path
       style="fill:url(#linearGradient3321);fill-rule:evenodd;stroke:none;stroke-width:1px;stroke-linecap:butt;stroke-linejoin:miter;stroke-opacity:1"
       d="M 35.648033,73.376001 L 40.244227,71.785011 L 40.686169,73.994719 L 46.343023,72.668894 L 45.901082,70.194021 L 51.027606,69.044972 L 51.292771,71.077904 L 56.772849,69.486914 L 56.68446,67.54237 L 61.015489,66.216545 L 61.369043,68.161089 L 65.965237,66.658487 L 65.965237,64.448778 L 69.942712,63.564894 L 70.207877,65.067496 L 74.715683,64.537166 L 74.36213,62.239069 L 78.693159,60.913244 L 79.046712,62.769399 L 83.200965,62.150681 L 83.024188,59.233865 L 87.797159,57.996429 L 88.857819,60.029361 L 92.304964,59.057089 L 92.039799,56.670603 L 96.901158,54.991225 L 96.724382,57.642875 L 101.40896,56.493827 L 101.49735,53.488623 C 101.49735,53.488623 105.82838,51.367302 105.82838,51.720856 C 105.82838,52.074409 105.91677,56.493827 105.91677,56.493827 L 56.15413,72.138564 L 36.089975,78.502525 L 35.648033,73.376001 z"
       id="path3319" />
    <path
       style="fill:url(#linearGradient3409);fill-opacity:1;fill-rule:evenodd;stroke:none;stroke-width:1px;stroke-linecap:butt;stroke-linejoin:miter;stroke-opacity:1"
       d="M 35.736422,73.110836 L 35.471257,71.077904 L 37.857742,70.194021 L 40.509393,71.519846 L 35.736422,73.110836 z"
       id="path3323" />
    <path
       style="fill:url(#linearGradient3407);fill-opacity:1;fill-rule:evenodd;stroke:none;stroke-width:1px;stroke-linecap:butt;stroke-linejoin:miter;stroke-opacity:1"
       d="M 40.155839,71.785011 L 43.249431,70.901127 L 46.166247,72.315341 L 40.686169,73.817943 L 40.155839,71.785011 z"
       id="path3325" />
    <path
       style="fill:url(#linearGradient3405);fill-rule:evenodd;stroke:none;stroke-width:1px;stroke-linecap:butt;stroke-linejoin:miter;stroke-opacity:1"
       d="M 43.249431,70.635962 L 43.249431,68.779807 L 45.98947,70.194021 L 46.254635,72.580506 L 43.249431,70.635962 z"
       id="path3327" />
    <path
       style="fill:url(#linearGradient3403);fill-rule:evenodd;stroke:none;stroke-width:1px;stroke-linecap:butt;stroke-linejoin:miter;stroke-opacity:1"
       d="M 43.602985,68.60303 L 48.464344,67.365593 L 50.674053,68.779807 L 45.901082,69.928855 L 43.602985,68.60303 z"
       id="path3329" />
    <path
       style="fill:url(#linearGradient3401);fill-rule:evenodd;stroke:none;stroke-width:1px;stroke-linecap:butt;stroke-linejoin:miter;stroke-opacity:1"
       d="M 50.674053,68.779807 L 53.856033,68.337865 L 56.68446,69.66369 L 51.027606,71.077904 L 50.674053,68.779807 z"
       id="path3331" />
    <path
       style="fill:url(#linearGradient3399);fill-rule:evenodd;stroke:none;stroke-width:1px;stroke-linecap:butt;stroke-linejoin:miter;stroke-opacity:1"
       d="M 53.944421,66.304933 L 54.121198,68.337865 L 56.861237,69.575302 L 56.507683,67.453982 L 53.944421,66.304933 z"
       id="path3333" />
    <path
       style="fill:url(#linearGradient3397);fill-rule:evenodd;stroke:none;stroke-width:1px;stroke-linecap:butt;stroke-linejoin:miter;stroke-opacity:1"
       d="M 53.944421,65.862991 L 58.540615,64.802331 L 60.838713,66.039768 L 56.596072,67.54237 L 53.944421,65.862991 z"
       id="path3335" />
    <path
       style="fill:url(#linearGradient3395);fill-rule:evenodd;stroke:none;stroke-width:1px;stroke-linecap:butt;stroke-linejoin:miter;stroke-opacity:1"
       d="M 60.661936,65.862991 L 63.578751,65.42105 L 66.142013,66.746875 L 61.369043,68.161089 L 60.661936,65.862991 z"
       id="path3337" />
    <path
       style="fill:url(#linearGradient3393);fill-rule:evenodd;stroke:none;stroke-width:1px;stroke-linecap:butt;stroke-linejoin:miter;stroke-opacity:1"
       d="M 63.225198,63.211341 L 63.578751,65.332661 L 66.142013,66.570098 L 65.965237,64.36039 L 63.225198,63.211341 z"
       id="path3339" />
    <path
       style="fill:url(#linearGradient3391);fill-rule:evenodd;stroke:none;stroke-width:1px;stroke-linecap:butt;stroke-linejoin:miter;stroke-opacity:1"
       d="M 63.401975,63.034564 L 67.733004,61.797127 L 70.119489,63.299729 L 66.230402,64.36039 L 63.401975,63.034564 z"
       id="path3341" />
    <path
       style="fill:url(#linearGradient3389);fill-rule:evenodd;stroke:none;stroke-width:1px;stroke-linecap:butt;stroke-linejoin:miter;stroke-opacity:1"
       d="M 69.854324,63.211341 L 71.975644,63.034564 L 74.627295,64.448778 L 70.207877,65.067496 L 69.854324,63.211341 z"
       id="path3343" />
    <path
       style="fill:url(#linearGradient3387);fill-rule:evenodd;stroke:none;stroke-width:1px;stroke-linecap:butt;stroke-linejoin:miter;stroke-opacity:1"
       d="M 71.887256,63.122953 L 72.064033,60.736467 L 74.450518,61.797127 L 74.804071,64.36039 L 71.887256,63.122953 z"
       id="path3345" />
    <path
       style="fill:url(#linearGradient3385);fill-rule:evenodd;stroke:none;stroke-width:1px;stroke-linecap:butt;stroke-linejoin:miter;stroke-opacity:1"
       d="M 71.975644,60.736467 L 76.48345,59.322254 L 78.60477,60.648079 L 74.715683,61.973904 L 71.975644,60.736467 z"
       id="path3347" />
    <path
       style="fill:url(#linearGradient3383);fill-rule:evenodd;stroke:none;stroke-width:1px;stroke-linecap:butt;stroke-linejoin:miter;stroke-opacity:1"
       d="M 78.958324,60.559691 L 80.726091,60.736467 L 82.935799,61.973904 L 79.311878,62.769399 L 78.958324,60.559691 z"
       id="path3349"
       sodipodi:nodetypes="ccccc" />
    <path
       style="fill:url(#linearGradient3381);fill-rule:evenodd;stroke:none;stroke-width:1px;stroke-linecap:butt;stroke-linejoin:miter;stroke-opacity:1"
       d="M 80.460926,57.819652 L 80.460926,60.736467 L 83.200965,61.885516 L 83.024188,59.145477 L 80.460926,57.819652 z"
       id="path3351" />
    <path
       style="fill:url(#linearGradient3379);fill-rule:evenodd;stroke:none;stroke-width:1px;stroke-linecap:butt;stroke-linejoin:miter;stroke-opacity:1"
       d="M 80.549314,57.819652 L 83.112576,59.233865 L 88.150712,57.90804 L 85.410673,56.31705 L 80.549314,57.819652 z"
       id="path3353" />
    <path
       style="fill:url(#linearGradient3377);fill-rule:evenodd;stroke:none;stroke-width:1px;stroke-linecap:butt;stroke-linejoin:miter;stroke-opacity:1"
       d="M 87.885547,57.90804 L 89.653314,57.466098 L 92.128188,58.880312 L 88.681042,59.764195 L 87.885547,57.90804 z"
       id="path3355" />
    <path
       style="fill:url(#linearGradient3375);fill-rule:evenodd;stroke:none;stroke-width:1px;stroke-linecap:butt;stroke-linejoin:miter;stroke-opacity:1"
       d="M 89.564926,57.554487 L 89.299761,55.344778 L 91.951411,56.582215 L 91.863023,58.703535 L 89.564926,57.554487 z"
       id="path3357" />
    <path
       style="fill:url(#linearGradient3373);fill-rule:evenodd;stroke:none;stroke-width:1px;stroke-linecap:butt;stroke-linejoin:miter;stroke-opacity:1"
       d="M 89.299761,55.521555 L 94.956615,53.135069 L 97.3431,54.814448 L 91.951411,56.84738 L 89.299761,55.521555 z"
       id="path3359" />
    <path
       style="fill:url(#linearGradient3371);fill-rule:evenodd;stroke:none;stroke-width:1px;stroke-linecap:butt;stroke-linejoin:miter;stroke-opacity:1"
       d="M 96.901158,54.72606 L 99.110867,54.991225 L 101.85091,56.31705 L 96.81277,57.731263 L 96.901158,54.72606 z"
       id="path3361" />
    <path
       style="fill:url(#linearGradient3369);fill-rule:evenodd;stroke:none;stroke-width:1px;stroke-linecap:butt;stroke-linejoin:miter;stroke-opacity:1"
       d="M 99.110867,54.814448 L 99.287644,52.251186 L 101.58574,53.488623 L 101.40896,56.228662 L 99.110867,54.814448 z"
       id="path3363"
       sodipodi:nodetypes="ccccc" />
    <path
       style="fill:url(#linearGradient3367);fill-rule:evenodd;stroke:none;stroke-width:1px;stroke-linecap:butt;stroke-linejoin:miter;stroke-opacity:1"
       d="M 98.93409,51.809244 L 103.61867,50.395031 L 105.91677,51.809244 L 101.40896,53.488623 L 98.93409,51.809244 z"
       id="path3365" />
  </g>
  <g
     inkscape:label="outline"
     inkscape:groupmode="layer"
     id="layer1">
    <path
       style="fill:#000000;fill-opacity:1;fill-rule:evenodd;stroke:none;stroke-width:0.99999994px;stroke-linecap:butt;stroke-linejoin:miter;stroke-opacity:1"
       d="M 111.54882,24.03125 C 110.59651,24.037692 109.65534,24.086105 108.70507,24.125 L 108.83007,26.75 C 108.35571,27.03324 107.73157,26.99648 107.20507,27.15625 L 107.17382,26.625 L 105.26757,24.84375 C 103.81204,25.598386 102.25706,25.895232 100.36132,28 L 100.54882,30.46875 C 99.743996,33.339927 99.989921,36.549647 100.17382,39.5 C 100.60508,40.415445 101.40399,41.036661 102.20507,41.625 L 101.92382,50.78125 L 98.611318,51.71875 L 98.736318,54.59375 L 97.392568,54.34375 L 94.798818,52.875 L 88.830068,55.25 L 89.111318,57.3125 L 87.986318,57.59375 L 85.517568,56.21875 L 79.923818,57.6875 L 80.361318,60.46875 L 79.048818,60.46875 L 78.767568,60.4375 L 76.392568,58.96875 L 71.486318,60.5625 L 71.798818,62.6875 L 70.080068,62.96875 L 67.580068,61.59375 L 63.048818,62.78125 L 63.361318,65.21875 L 61.017568,65.875 L 58.455068,64.5625 L 53.736318,65.9375 L 53.798818,68.03125 L 51.048818,68.65625 L 51.048818,68.625 L 50.861318,68.6875 L 48.423818,67.25 L 43.048818,68.53125 L 43.142568,70.6875 L 40.798818,71.4375 L 40.423818,71.09375 L 38.048818,69.8125 L 35.892568,70.40625 L 35.861318,69.90625 C 36.543158,69.357731 37.11015,68.715707 37.455068,67.96875 C 37.527208,64.683754 37.350424,62.132504 37.298818,59.21875 C 37.272203,58.186245 36.922809,57.131958 36.298818,56.1875 C 35.502023,55.108801 34.752856,54.84129 34.017568,54.28125 L 31.986318,55 L 31.986318,55.71875 C 31.345322,55.374861 30.8223,55.420054 30.236318,55.40625 L 30.111318,54.84375 L 28.955068,52.6875 C 28.010117,52.539476 27.063625,52.493558 26.111318,52.5 C 25.159012,52.506442 24.217839,52.554855 23.267568,52.59375 L 23.392568,55.21875 C 22.918209,55.50199 22.294069,55.46523 21.767568,55.625 L 21.736318,55.09375 L 19.830068,53.3125 C 18.374542,54.067136 16.819554,54.363982 14.923818,56.46875 L 15.111318,58.9375 C 14.306494,61.808677 14.552421,65.018397 14.736318,67.96875 C 15.167579,68.884195 15.966491,69.505411 16.767568,70.09375 L 15.392568,110.59375 C 21.537027,117.39731 33.080957,116.20595 37.955068,110.9375 L 37.892568,109.53125 L 59.236318,101.90625 L 59.205068,98.71875 L 61.517568,97.96875 L 61.517568,99.90625 C 62.009048,100.44261 62.720829,100.26631 63.111318,99.28125 L 63.080068,97.5 L 67.517568,96.03125 L 67.548818,97.78125 C 68.237717,98.372789 68.450531,98.368288 69.111318,97.03125 L 69.111318,95.53125 L 73.080068,94.25 L 73.080068,95.6875 C 73.624547,96.242471 74.820809,96.084348 74.892568,94.8125 L 74.892568,93.6875 L 77.580068,92.8125 C 77.577905,93.082053 77.582231,94.159908 77.580068,94.34375 C 77.993585,94.738257 78.567962,94.874718 79.330068,93.53125 L 79.330068,92.21875 L 82.986318,91.0625 L 82.986318,92.625 C 84.714326,93.191857 84.596012,92.190788 84.673818,91.96875 L 84.673818,90.625 L 87.517568,91.90625 L 105.42382,85.40625 C 111.6336,88.196417 119.56465,86.606361 123.39257,82.46875 L 121.29882,41.4375 C 121.98066,40.888981 122.54765,40.246957 122.89257,39.5 C 122.96471,36.215004 122.78793,33.663754 122.73632,30.75 C 122.70971,29.717495 122.36031,28.663208 121.73632,27.71875 C 120.93952,26.640051 120.19036,26.37254 119.45507,25.8125 L 117.42382,26.53125 L 117.42382,27.25 C 116.78282,26.906111 116.2598,26.951304 115.67382,26.9375 L 115.54882,26.375 L 114.39257,24.21875 C 113.44762,24.070726 112.50113,24.024808 111.54882,24.03125 z M 110.73632,24.46875 C 111.09541,24.458078 111.44497,24.471691 111.86132,24.46875 C 112.69401,24.462868 113.44326,24.505228 114.23632,24.6875 L 114.92382,25.9375 C 113.44642,25.647135 112.17905,25.224462 110.26757,25.71875 L 109.61132,24.59375 C 110.00863,24.514381 110.37723,24.479422 110.73632,24.46875 z M 109.01757,24.65625 L 109.86132,25.90625 L 110.14257,27.78125 L 109.17382,26.5625 L 109.01757,24.65625 z M 105.14257,25.34375 L 106.33007,26.46875 C 104.9018,26.865266 103.9098,27.24437 102.92382,28.65625 L 101.26757,27.75 C 102.30029,26.459988 103.48136,26.003785 105.14257,25.34375 z M 112.14257,26.03125 C 113.21161,26.051528 114.1585,26.309626 115.17382,26.5 L 115.29882,28.25 C 116.17542,28.545644 117.31491,29.509805 117.79882,29.46875 L 117.61132,26.84375 C 118.41836,27.407252 119.09506,28.172303 119.42382,28.78125 C 119.77782,29.436953 119.87826,30.098898 119.64257,30.84375 L 119.58007,32.1875 C 117.38079,29.587458 114.15001,28.898399 110.89257,29.28125 C 108.5235,29.67379 106.00643,30.434898 104.29882,32.21875 L 103.20507,31.53125 L 103.14257,31.28125 L 103.04882,29.28125 C 103.92612,27.83811 105.28694,27.318128 106.83007,26.875 L 107.04882,28.90625 C 107.76525,28.929439 108.5657,28.949724 110.45507,28.34375 L 110.23632,26.25 C 110.8572,26.046921 111.50236,26.061108 112.14257,26.03125 z M 119.39257,26.5 C 120.13345,27.041092 120.81149,27.220096 121.36132,27.875 C 121.90113,28.517968 122.25564,29.433381 122.26757,30.53125 L 120.14257,30.46875 C 120.30752,29.734781 120.05748,29.309015 119.70507,28.65625 C 119.35367,28.00536 118.98706,27.312144 118.20507,26.75 L 119.39257,26.5 z M 108.95507,27.0625 L 109.76757,28.21875 C 109.03349,28.511516 108.41191,28.783584 107.48632,28.6875 L 107.45507,27.46875 C 108.08967,27.491325 108.41441,27.391441 108.95507,27.0625 z M 115.95507,27.3125 C 116.44958,27.301216 116.92931,27.437606 117.42382,27.75 L 117.45507,28.96875 C 116.94326,28.624098 116.25974,28.158285 115.64257,28 L 115.67382,27.34375 C 115.76627,27.334906 115.86262,27.31461 115.95507,27.3125 z M 100.79882,28.1875 L 102.67382,29.09375 L 102.73632,31.03125 C 102.16994,30.915378 101.63986,30.865034 100.92382,30.375 L 100.79882,28.1875 z M 112.17382,29.6875 C 115.02676,29.639455 117.57782,30.2554 119.42382,32.625 C 119.44204,32.923357 119.31969,33.026444 119.14257,33.21875 L 118.36132,31.6875 C 116.32901,32.67139 114.24288,33.55321 111.76757,33.5625 L 111.48632,36.4375 C 110.37893,36.430761 109.63514,36.530376 108.42382,36.0625 L 108.17382,33.71875 C 106.63786,33.438706 105.41369,33.035798 104.67382,32.5625 C 106.33981,30.881472 108.68148,30.135956 110.95507,29.75 C 111.37402,29.719522 111.76626,29.694364 112.17382,29.6875 z M 122.36132,30.84375 L 122.33007,33.09375 L 119.89257,32.6875 L 119.98632,30.9375 L 122.36132,30.84375 z M 100.95507,31.03125 L 102.73632,31.4375 L 102.86132,31.6875 L 101.01757,32.15625 L 100.73632,33.4375 C 100.63666,32.766038 100.7291,31.705035 100.95507,31.03125 z M 103.29882,32.0625 C 104.00605,32.921655 105.1862,33.461854 107.29882,33.90625 L 105.79882,34.65625 C 104.27613,34.152233 102.75472,34.675864 101.58007,32.65625 L 103.29882,32.0625 z M 118.20507,32.15625 L 118.89257,34.0625 C 116.70147,34.684635 115.0553,35.445359 112.73632,35.375 L 112.29882,33.9375 C 114.19297,33.762486 116.08592,33.270967 118.20507,32.15625 z M 119.95507,33.1875 L 122.39257,33.4375 C 122.17576,34.903122 121.01499,35.849565 119.89257,36.65625 L 119.61132,34.28125 L 119.36132,33.71875 C 119.69931,33.572088 119.83295,33.502966 119.95507,33.1875 z M 101.17382,33.375 C 102.23918,34.815277 104.07348,34.727531 105.67382,35.3125 L 105.61132,37.96875 C 106.98073,38.405709 108.11739,38.699097 112.61132,38.8125 L 112.70507,36.09375 C 115.16552,36.15183 117.03867,35.200213 119.23632,34.59375 L 119.64257,37.4375 C 120.89685,36.623945 121.80947,36.051704 122.45507,34.6875 C 122.59521,36.39554 122.46912,37.357877 122.33007,39.125 C 120.05861,42.799273 115.51915,43.729746 111.58007,43.78125 C 107.72993,43.582779 103.25098,42.869343 100.86132,39.4375 C 100.6907,37.296919 100.05152,35.107218 100.48632,33.53125 L 100.92382,34.59375 L 101.17382,33.375 z M 111.89257,34.125 L 112.36132,35.71875 L 112.17382,38.0625 L 111.83007,36.375 L 111.89257,34.125 z M 107.92382,34.1875 L 107.98632,36.03125 L 106.11132,37.15625 L 106.20507,35.34375 L 107.92382,34.1875 z M 108.33007,36.40625 C 109.61005,36.89304 110.43011,36.833223 111.54882,36.84375 L 111.79882,38.25 C 109.87931,38.3333 108.14555,38.209693 106.39257,37.5 L 108.33007,36.40625 z M 102.83007,41.90625 C 105.53666,43.465528 108.38615,44.0805 111.45507,44.21875 C 114.71415,44.238807 117.87633,43.864859 120.64257,42.03125 C 121.50033,48.933591 122.50463,75.25325 122.92382,82.21875 C 116.07774,87.374214 110.23176,86.868072 106.17382,85.0625 L 106.11132,56.625 L 106.11132,51.625 L 103.54882,50.3125 L 102.39257,50.625 C 102.51802,47.358695 102.67353,43.463411 102.83007,41.90625 z M 103.20507,50.71875 L 105.51757,51.6875 L 101.33007,53.0625 L 99.392568,52.09375 L 103.20507,50.71875 z M 105.67382,52 L 105.67382,56.34375 L 36.298818,78.125 L 36.048818,73.34375 L 40.080068,71.90625 L 40.361318,74.15625 L 46.517568,72.65625 L 46.236318,70.375 L 50.830068,69.3125 L 50.955068,71.375 L 57.048818,69.6875 L 56.798818,67.59375 L 60.767568,66.34375 L 60.955068,68.46875 L 66.330068,66.9375 L 66.267568,64.71875 L 69.923818,63.5625 L 70.142568,65.40625 L 74.955068,64.65625 L 74.736318,62.15625 L 78.642568,61.09375 L 79.017568,63.03125 L 83.330068,62.25 L 83.267568,59.5625 L 87.736318,58.3125 L 88.330068,60.21875 L 92.392568,59.21875 L 92.423818,56.8125 L 96.392568,55.15625 L 96.798818,58.0625 L 101.86132,56.625 L 101.92382,53.5 L 105.67382,52 z M 99.298818,52.5625 L 101.26757,53.5 L 101.36132,55.6875 L 99.236318,54.59375 L 99.298818,52.5625 z M 116.33007,52.8125 C 114.9641,55.332248 114.01438,56.626244 114.26757,61.65625 L 119.67382,60.34375 C 119.19955,58.786722 118.97289,57.664766 118.54882,56.09375 C 118.03508,54.512406 117.40529,54.056953 116.33007,52.8125 z M 25.298818,52.9375 C 25.657905,52.926828 26.007471,52.940441 26.423818,52.9375 C 27.256511,52.931618 28.005758,52.973978 28.798818,53.15625 L 29.486318,54.40625 C 28.008918,54.115885 26.741552,53.693212 24.830068,54.1875 L 24.173818,53.0625 C 24.571124,52.983131 24.939731,52.948172 25.298818,52.9375 z M 23.580068,53.125 L 24.423818,54.375 L 24.705068,56.25 L 23.736318,55.03125 L 23.580068,53.125 z M 116.39257,53.5 C 117.17573,54.251374 117.72549,55.171507 118.08007,56.28125 C 118.44815,57.433231 118.70219,58.715383 119.04882,59.96875 L 114.76757,61.09375 C 114.87736,58.265328 115.01926,55.551571 116.39257,53.5 z M 94.080068,53.53125 L 96.736318,54.75 L 91.892568,56.46875 L 89.861318,55.40625 L 94.080068,53.53125 z M 19.705068,53.8125 L 20.892568,54.9375 C 19.464293,55.334016 18.472298,55.71312 17.486318,57.125 L 15.830068,56.21875 C 16.862791,54.928738 18.043853,54.472535 19.705068,53.8125 z M 26.705068,54.5 C 27.774104,54.520278 28.720995,54.778376 29.736318,54.96875 L 29.861318,56.71875 C 30.737913,57.014394 31.877407,57.978555 32.361318,57.9375 L 32.173818,55.3125 C 32.980856,55.876002 33.657561,56.641053 33.986318,57.25 C 34.340314,57.905703 34.440759,58.567648 34.205068,59.3125 L 34.142568,60.65625 C 31.943293,58.056208 28.712504,57.367149 25.455068,57.75 C 23.085995,58.14254 20.56893,58.903648 18.861318,60.6875 L 17.767568,60 L 17.705068,59.75 L 17.611318,57.75 C 18.488618,56.30686 19.849434,55.786878 21.392568,55.34375 L 21.611318,57.375 C 22.327752,57.398189 23.128194,57.418474 25.017568,56.8125 L 24.798818,54.71875 C 25.419699,54.515671 26.064853,54.529858 26.705068,54.5 z M 97.267568,54.875 L 99.236318,55.25 L 101.26757,56.1875 L 97.142568,57.375 L 97.267568,54.875 z M 33.955068,54.96875 C 34.695945,55.509842 35.373985,55.688846 35.923818,56.34375 C 36.46363,56.986718 36.818137,57.902131 36.830068,59 L 34.705068,58.9375 C 34.870013,58.203531 34.619981,57.777765 34.267568,57.125 C 33.916167,56.47411 33.549554,55.780894 32.767568,55.21875 L 33.955068,54.96875 z M 23.517568,55.53125 L 24.330068,56.6875 C 23.595985,56.980266 22.974411,57.252334 22.048818,57.15625 L 22.017568,55.9375 C 22.652173,55.960075 22.976904,55.860191 23.517568,55.53125 z M 30.517568,55.78125 C 31.012077,55.769966 31.491809,55.906356 31.986318,56.21875 L 32.017568,57.4375 C 31.50576,57.092848 30.822236,56.627035 30.205068,56.46875 L 30.236318,55.8125 C 30.328766,55.803656 30.42512,55.78336 30.517568,55.78125 z M 89.798818,55.90625 L 91.455068,56.6875 L 91.705068,58.40625 L 89.767568,57.375 L 89.798818,55.90625 z M 15.361318,56.65625 L 17.236318,57.5625 L 17.298818,59.5 C 16.732439,59.384128 16.202361,59.333784 15.486318,58.84375 L 15.361318,56.65625 z M 105.67382,56.71875 L 105.64257,84.84375 L 90.111318,90.40625 L 90.142568,70.625 C 87.530165,69.991853 84.137697,69.524086 81.205068,69.53125 C 72.407182,69.552741 62.821576,72.775914 56.205068,80.96875 L 56.298818,102.46875 L 37.861318,109.0625 L 36.298818,78.53125 L 105.67382,56.71875 z M 85.111318,56.9375 L 87.111318,57.875 L 83.017568,58.9375 L 81.236318,58.03125 L 85.111318,56.9375 z M 89.642568,57.84375 L 91.736318,58.875 L 88.923818,59.46875 L 88.298818,58 L 89.642568,57.84375 z M 26.736318,58.15625 C 29.589258,58.108205 32.140313,58.72415 33.986318,61.09375 C 34.004537,61.392107 33.882185,61.495194 33.705068,61.6875 L 32.923818,60.15625 C 30.891504,61.14014 28.805383,62.02196 26.330068,62.03125 L 26.048818,64.90625 C 24.941429,64.899511 24.197638,64.999126 22.986318,64.53125 L 22.736318,62.1875 C 21.200357,61.907456 19.976187,61.504548 19.236318,61.03125 C 20.902309,59.350222 23.243981,58.604706 25.517568,58.21875 C 25.936514,58.188272 26.328755,58.163114 26.736318,58.15625 z M 80.642568,58.25 L 82.580068,59.15625 L 82.955068,61.71875 L 80.705068,60.5625 L 80.642568,58.25 z M 36.923818,59.3125 L 36.892568,61.5625 L 34.455068,61.15625 L 34.548818,59.40625 L 36.923818,59.3125 z M 15.517568,59.5 L 17.298818,59.90625 L 17.423818,60.15625 L 15.580068,60.625 L 15.298818,61.90625 C 15.199156,61.234788 15.291597,60.173785 15.517568,59.5 z M 76.017568,59.71875 L 77.923818,60.6875 L 74.611318,61.78125 L 72.486318,60.6875 L 76.017568,59.71875 z M 17.861318,60.53125 C 18.56855,61.390405 19.748701,61.930604 21.861318,62.375 L 20.361318,63.125 C 18.838629,62.620983 17.317215,63.144614 16.142568,61.125 L 17.861318,60.53125 z M 32.767568,60.625 L 33.455068,62.53125 C 31.26397,63.153385 29.617801,63.914109 27.298818,63.84375 L 26.861318,62.40625 C 28.755464,62.231236 30.648414,61.739717 32.767568,60.625 z M 80.298818,60.90625 L 82.486318,61.9375 L 79.642568,62.53125 L 79.205068,61 L 80.298818,60.90625 z M 72.142568,61.03125 L 74.111318,61.96875 L 74.423818,64.0625 L 72.298818,63.0625 L 72.142568,61.03125 z M 34.517568,61.65625 L 36.955068,61.90625 C 36.738261,63.371872 35.577484,64.318315 34.455068,65.125 L 34.173818,62.75 L 33.923818,62.1875 C 34.261806,62.040838 34.395452,61.971716 34.517568,61.65625 z M 15.736318,61.84375 C 16.801676,63.284027 18.635982,63.196281 20.236318,63.78125 L 20.173818,66.4375 C 21.543228,66.874459 22.679884,67.167847 27.173818,67.28125 L 27.267568,64.5625 C 29.728021,64.62058 31.601167,63.668963 33.798818,63.0625 L 34.205068,65.90625 C 35.459348,65.092695 36.37197,64.520454 37.017568,63.15625 C 37.157707,64.86429 37.031613,65.826627 36.892568,67.59375 C 34.621108,71.268023 30.08165,72.198496 26.142568,72.25 C 22.292423,72.051529 17.813482,71.338093 15.423818,67.90625 C 15.2532,65.765669 14.614016,63.575968 15.048818,62 L 15.486318,63.0625 L 15.736318,61.84375 z M 67.298818,62.1875 L 69.455068,63.15625 L 65.736318,64.125 L 63.986318,63.25 L 67.298818,62.1875 z M 26.455068,62.59375 L 26.923818,64.1875 L 26.736318,66.53125 L 26.392568,64.84375 L 26.455068,62.59375 z M 22.486318,62.65625 L 22.548818,64.5 L 20.673818,65.625 L 20.767568,63.8125 L 22.486318,62.65625 z M 70.298818,63.21875 L 71.642568,63.28125 L 73.798818,64.3125 L 70.767568,64.84375 L 70.298818,63.21875 z M 63.642568,63.59375 L 65.736318,64.59375 L 65.955068,66.34375 L 63.705068,65.15625 L 63.642568,63.59375 z M 22.892568,64.875 C 24.172552,65.36179 24.992612,65.301973 26.111318,65.3125 L 26.361318,66.71875 C 24.441804,66.80205 22.708044,66.678443 20.955068,65.96875 L 22.892568,64.875 z M 58.142568,64.96875 L 60.361318,66.15625 L 56.517568,67.28125 L 54.361318,66.15625 L 58.142568,64.96875 z M 63.486318,65.625 L 65.705068,66.65625 L 61.392568,67.8125 L 61.111318,66.09375 L 63.486318,65.625 z M 54.236318,66.625 L 56.361318,67.65625 L 56.423818,69.28125 L 54.423818,68.21875 L 54.236318,66.625 z M 48.205068,67.9375 L 50.298818,68.8125 L 45.861318,69.84375 L 44.017568,68.90625 L 48.205068,67.9375 z M 53.705068,68.4375 L 55.955068,69.5 L 51.423818,70.625 L 51.111318,68.875 L 53.705068,68.4375 z M 43.642568,69.25 L 45.673818,70.21875 L 45.767568,71.90625 L 43.830068,70.875 L 43.642568,69.25 z M 81.642568,69.78125 C 84.590399,69.785083 87.390979,70.174061 89.892568,70.875 L 89.767568,90.53125 L 88.017568,91.15625 L 88.048818,72.4375 C 85.467015,71.948573 82.608717,71.627614 80.080068,71.6875 C 72.494122,71.867158 65.180659,74.7273 58.423818,81.65625 L 58.392568,101.71875 L 56.548818,102.375 L 56.423818,81.1875 C 62.744202,73.122628 72.799074,69.76975 81.642568,69.78125 z M 17.392568,70.375 C 20.099158,71.934278 22.948648,72.54925 26.017568,72.6875 C 29.276646,72.707557 32.438832,72.333609 35.205068,70.5 C 36.062824,77.402341 37.067129,103.722 37.486318,110.6875 C 27.218117,118.42001 19.129519,113.52097 16.080068,110.40625 C 16.366912,103.51423 16.725241,77.013372 17.392568,70.375 z M 37.455068,70.53125 L 39.830068,71.4375 L 35.986318,72.625 L 35.923818,71.21875 L 37.455068,70.53125 z M 43.423818,71.0625 L 45.830068,72.28125 L 40.955068,73.4375 L 40.705068,71.625 L 43.423818,71.0625 z M 79.798818,72.5 C 80.719943,72.486568 81.335213,72.516646 82.267568,72.59375 L 82.267568,73.75 L 79.361318,74.59375 L 79.361318,72.53125 C 79.508655,72.526733 79.651248,72.502152 79.798818,72.5 z M 79.017568,72.53125 L 78.955068,93.4375 C 78.461855,94.366263 78.188669,94.306793 77.923818,94.09375 L 77.955068,72.59375 C 78.310206,72.564182 78.661007,72.546707 79.017568,72.53125 z M 77.673818,72.625 C 77.670331,73.466704 77.677305,74.160689 77.673818,75.09375 L 74.642568,76 L 74.611318,73.09375 C 75.622729,72.875802 76.649637,72.721285 77.673818,72.625 z M 82.611318,72.625 C 82.706084,72.634217 82.825366,72.646034 82.923818,72.65625 L 82.923818,73.5625 L 82.611318,73.65625 L 82.611318,72.625 z M 83.205068,72.6875 C 83.541524,72.724365 83.877434,72.796481 84.236318,72.84375 L 84.330068,92.03125 C 84.029062,92.865315 83.468492,92.318727 83.173818,92.28125 L 83.205068,72.6875 z M 84.611318,72.875 C 84.763419,72.896361 84.896495,72.914429 85.048818,72.9375 L 84.611318,73.0625 L 84.611318,72.875 z M 85.580068,73.09375 C 85.82236,73.386485 86.108588,73.655185 85.548818,74.0625 L 84.611318,74.34375 L 84.611318,73.375 L 85.580068,73.09375 z M 74.361318,73.125 L 74.673818,94.8125 C 74.496666,96.024523 73.845125,95.317357 73.455068,95.34375 L 73.205068,73.4375 C 73.594148,73.330396 73.970187,73.213256 74.361318,73.125 z M 86.017568,73.125 C 86.393792,73.192953 86.802756,73.234717 87.142568,73.3125 L 87.423818,91.1875 L 85.298818,90.3125 L 86.080068,90.0625 C 86.887408,89.743015 86.827243,88.532851 85.923818,88.40625 L 84.673818,88.8125 L 84.673818,86.4375 L 86.111318,85.9375 C 86.486336,85.919982 86.818414,84.390554 85.955068,84.3125 L 84.642568,84.75 L 84.642568,82.4375 L 85.830068,82.0625 C 86.865058,81.274039 86.276808,80.260917 85.736318,80.25 L 84.642568,80.59375 L 84.642568,78.21875 L 85.955068,77.8125 C 86.444237,77.031416 86.275867,76.310054 85.705068,76.15625 L 84.611318,76.46875 L 84.611318,74.65625 L 85.830068,74.3125 C 86.147271,73.886829 86.165522,73.498502 86.017568,73.125 z M 72.923818,73.53125 L 72.955068,76.46875 L 68.986318,77.65625 L 68.986318,75 C 70.282682,74.393065 71.60176,73.911315 72.923818,73.53125 z M 82.923818,73.875 L 82.923818,74.84375 L 79.361318,75.90625 L 79.361318,74.875 L 82.923818,73.875 z M 82.923818,75.15625 L 82.955068,77 L 82.642568,77.09375 L 82.611318,75.25 L 82.923818,75.15625 z M 68.611318,75.1875 L 68.736318,96.84375 C 68.497771,97.44231 68.153832,97.546265 67.798818,97.5625 L 67.580068,75.6875 C 67.916949,75.50654 68.27254,75.3523 68.611318,75.1875 z M 82.267568,75.34375 L 82.236318,77.21875 L 79.361318,78.0625 L 79.361318,76.21875 L 82.267568,75.34375 z M 77.673818,75.375 C 77.672405,75.756205 77.643981,75.984072 77.642568,76.375 L 74.673818,77.28125 L 74.642568,76.25 L 77.673818,75.375 z M 67.298818,75.84375 L 67.330068,78.125 L 62.830068,79.4375 L 62.830068,78.84375 C 64.300258,77.670553 65.787346,76.677346 67.298818,75.84375 z M 85.611318,76.4375 C 86.089701,76.906824 86.303077,77.327206 85.611318,77.5625 L 84.642568,77.84375 L 84.611318,76.71875 L 85.611318,76.4375 z M 72.955068,76.71875 L 72.955068,77.78125 L 69.017568,78.96875 L 69.017568,77.875 L 72.955068,76.71875 z M 77.642568,76.71875 C 77.63992,77.456775 77.645216,77.83792 77.642568,78.59375 L 74.705068,79.5 L 74.673818,77.59375 L 77.642568,76.71875 z M 82.955068,77.25 L 82.955068,78.375 L 79.361318,79.46875 L 79.361318,78.34375 L 82.955068,77.25 z M 72.955068,78.09375 L 72.955068,80.03125 L 69.017568,81.21875 L 69.017568,79.28125 L 72.955068,78.09375 z M 67.330068,78.375 L 67.330068,79.4375 L 62.861318,80.78125 L 62.830068,79.65625 L 67.330068,78.375 z M 82.955068,78.75 L 82.955068,81.1875 L 82.673818,81.28125 L 82.642568,78.8125 L 82.955068,78.75 z M 77.642568,78.84375 C 77.640935,79.310506 77.644201,79.532643 77.642568,80 L 74.705068,80.875 L 74.705068,79.75 L 77.642568,78.84375 z M 82.236318,78.9375 L 82.205068,81.4375 L 79.361318,82.40625 L 79.361318,79.8125 L 82.236318,78.9375 z M 62.423818,79.1875 L 62.767568,99.15625 C 62.517874,99.439057 62.319039,100.02554 61.892568,99.8125 L 61.642568,79.8125 C 61.897304,79.591111 62.167731,79.398118 62.423818,79.1875 z M 67.330068,79.75 L 67.361318,81.6875 L 62.892568,83.03125 L 62.861318,81.0625 L 67.330068,79.75 z M 61.361318,80.09375 L 61.361318,81.21875 L 59.611318,81.75 C 60.176191,81.184874 60.726851,80.634452 61.298818,80.125 L 61.361318,80.09375 z M 72.986318,80.28125 L 72.986318,81.40625 L 69.017568,82.59375 L 69.017568,81.46875 L 72.986318,80.28125 z M 77.642568,80.34375 C 77.638816,81.416028 77.64632,81.966049 77.642568,83 L 74.767568,83.96875 L 74.705068,81.21875 L 77.642568,80.34375 z M 85.830068,80.5625 C 85.952773,81.008278 86.305006,81.476744 85.767568,81.8125 L 84.642568,82.1875 L 84.642568,80.9375 L 85.830068,80.5625 z M 31.486318,81.09375 C 30.120347,83.613499 29.139379,84.907494 29.392568,89.9375 L 34.798818,88.625 C 34.324549,87.067969 34.129142,85.946016 33.705068,84.375 C 33.191333,82.79366 32.561535,82.338203 31.486318,81.09375 z M 61.361318,81.5 L 61.392568,83.5 L 59.111318,84.1875 L 59.111318,82.25 C 59.14247,82.217792 59.173893,82.188284 59.205068,82.15625 L 61.361318,81.5 z M 82.955068,81.53125 L 82.955068,82.6875 L 79.330068,83.84375 L 79.361318,82.71875 L 82.955068,81.53125 z M 72.986318,81.75 L 72.986318,84.5625 L 69.048818,85.875 L 69.017568,82.9375 L 72.986318,81.75 z M 31.548818,81.78125 C 32.331978,82.532621 32.881734,83.452757 33.236318,84.5625 C 33.604398,85.714478 33.858437,86.996633 34.205068,88.25 L 29.923818,89.375 C 30.033599,86.546575 30.175504,83.832821 31.548818,81.78125 z M 67.361318,81.9375 L 67.392568,83.09375 L 62.892568,84.46875 L 62.892568,83.3125 L 67.361318,81.9375 z M 82.955068,82.96875 L 82.986318,85.3125 L 82.673818,85.4375 L 82.673818,83.03125 L 82.955068,82.96875 z M 82.205068,83.1875 L 82.205068,85.59375 L 79.330068,86.53125 L 79.330068,84.125 L 82.205068,83.1875 z M 77.642568,83.3125 C 77.641067,83.723041 77.612819,83.977004 77.611318,84.375 L 74.767568,85.28125 L 74.767568,84.28125 L 77.642568,83.3125 z M 67.392568,83.4375 L 67.423818,86.4375 L 62.955068,87.9375 L 62.923818,84.8125 L 67.392568,83.4375 z M 61.392568,83.75 L 61.392568,84.90625 L 59.142568,85.59375 L 59.111318,84.4375 L 61.392568,83.75 z M 77.611318,84.625 C 77.607787,85.553327 77.614849,86.299292 77.611318,87.125 L 74.798818,88.0625 L 74.767568,85.5625 L 77.611318,84.625 z M 85.923818,84.625 C 86.153657,84.821464 86.382476,85.554492 86.017568,85.71875 L 84.673818,86.1875 L 84.642568,85.0625 L 85.923818,84.625 z M 73.017568,84.875 L 73.017568,85.84375 L 69.048818,87.09375 L 69.048818,86.1875 L 73.017568,84.875 z M 61.392568,85.25 L 61.423818,88.4375 L 59.142568,89.21875 L 59.142568,85.96875 L 61.392568,85.25 z M 82.986318,85.59375 L 82.986318,86.71875 L 79.330068,87.96875 L 79.330068,86.84375 L 82.986318,85.59375 z M 73.017568,86.09375 L 73.017568,88.625 L 69.080068,89.96875 L 69.048818,87.34375 L 73.017568,86.09375 z M 67.423818,86.71875 L 67.423818,87.59375 L 62.955068,89.03125 L 62.955068,88.25 L 67.423818,86.71875 z M 82.986318,87 L 82.986318,89.34375 L 82.705068,89.25 L 82.705068,87.09375 L 82.986318,87 z M 82.173818,87.28125 L 82.173818,89.5 L 82.330068,89.5625 L 79.330068,90.5 L 79.330068,88.25 L 82.173818,87.28125 z M 77.611318,87.4375 C 77.609773,87.791879 77.612863,88.203109 77.611318,88.53125 L 74.830068,89.46875 L 74.798818,88.375 L 77.611318,87.4375 z M 67.423818,87.84375 L 67.455068,90.5 L 63.017568,92 L 62.986318,89.28125 L 67.423818,87.84375 z M 85.673818,88.6875 C 86.882775,88.994448 86.171554,89.592557 85.861318,89.875 L 84.923818,90.15625 L 84.673818,90.0625 L 84.673818,89 L 85.673818,88.6875 z M 61.423818,88.75 L 61.423818,89.5 L 59.173818,90.21875 L 59.142568,89.5 L 61.423818,88.75 z M 77.611318,88.8125 C 77.60814,89.472556 77.583246,90.539342 77.580068,91.0625 L 74.861318,91.9375 L 74.830068,89.78125 L 77.611318,88.8125 z M 73.017568,88.96875 L 73.048818,90.0625 L 69.080068,91.40625 L 69.080068,90.28125 L 73.017568,88.96875 z M 82.986318,89.5625 L 82.986318,90.78125 L 79.330068,91.9375 L 79.330068,90.71875 L 82.986318,89.5625 z M 61.423818,89.75 L 61.455068,92.53125 L 59.173818,93.28125 L 59.173818,90.46875 L 61.423818,89.75 z M 73.048818,90.34375 L 73.048818,92.5 L 69.080068,93.78125 L 69.080068,91.71875 L 73.048818,90.34375 z M 67.455068,90.84375 L 67.486318,91.9375 L 63.017568,93.4375 L 63.017568,92.34375 L 67.455068,90.84375 z M 77.580068,91.28125 C 77.578347,91.556542 77.581789,92.272453 77.580068,92.5 L 74.861318,93.375 L 74.861318,92.1875 L 77.580068,91.28125 z M 67.486318,92.25 L 67.517568,94.28125 L 63.048818,95.71875 L 63.048818,93.75 L 67.486318,92.25 z M 73.048818,92.75 L 73.080068,93.9375 L 69.111318,95.21875 L 69.080068,94.03125 L 73.048818,92.75 z M 61.455068,92.875 L 61.455068,93.9375 L 59.205068,94.71875 L 59.173818,93.625 L 61.455068,92.875 z M 61.486318,94.28125 L 61.486318,96.1875 L 59.205068,96.9375 L 59.205068,95.0625 L 61.486318,94.28125 z M 67.517568,94.53125 L 67.517568,95.71875 L 63.080068,97.15625 L 63.080068,95.96875 L 67.517568,94.53125 z M 61.486318,96.5 L 61.486318,97.625 L 59.205068,98.375 L 59.205068,97.21875 L 61.486318,96.5 z"
       id="path2312" />
  </g>
</svg>
