<?xml version="1.0" encoding="UTF-8" standalone="no"?>
<!-- Created with Inkscape (http://www.inkscape.org/) -->
<svg
   xmlns:dc="http://purl.org/dc/elements/1.1/"
   xmlns:cc="http://creativecommons.org/ns#"
   xmlns:rdf="http://www.w3.org/1999/02/22-rdf-syntax-ns#"
   xmlns:svg="http://www.w3.org/2000/svg"
   xmlns="http://www.w3.org/2000/svg"
   xmlns:xlink="http://www.w3.org/1999/xlink"
   xmlns:sodipodi="http://sodipodi.sourceforge.net/DTD/sodipodi-0.dtd"
   xmlns:inkscape="http://www.inkscape.org/namespaces/inkscape"
   width="128"
   height="128"
   id="svg2"
   sodipodi:version="0.32"
   inkscape:version="0.45+devel"
   version="1.0"
   sodipodi:docname="mine.svg"
   inkscape:output_extension="org.inkscape.output.svg.inkscape">
  <defs
     id="defs4">
    <linearGradient
       id="linearGradient2338">
      <stop
         style="stop-color:#b1b1b1;stop-opacity:1;"
         offset="0"
         id="stop2340" />
      <stop
         style="stop-color:#e4e4e4;stop-opacity:1;"
         offset="1"
         id="stop2342" />
    </linearGradient>
    <linearGradient
       id="linearGradient2320">
      <stop
         style="stop-color:#6a3c1d;stop-opacity:1;"
         offset="0"
         id="stop2322" />
      <stop
         style="stop-color:#8f5127;stop-opacity:1;"
         offset="1"
         id="stop2324" />
    </linearGradient>
    <linearGradient
       id="linearGradient2954">
      <stop
         id="stop2956"
         offset="0"
         style="stop-color:#00a100;stop-opacity:1;" />
      <stop
         id="stop2958"
         offset="1"
         style="stop-color:#00f500;stop-opacity:1;" />
    </linearGradient>
    <linearGradient
       inkscape:collect="always"
       xlink:href="#linearGradient2954"
       id="linearGradient2408"
       x1="33.879971"
       y1="77.36351"
       x2="51.492664"
       y2="18.287605"
       gradientUnits="userSpaceOnUse"
       gradientTransform="translate(3.1135135,-0.3459459)" />
    <linearGradient
       inkscape:collect="always"
       xlink:href="#linearGradient2954"
       id="linearGradient2412"
       x1="92.955879"
       y1="55.77573"
       x2="91.488152"
       y2="27.399725"
       gradientUnits="userSpaceOnUse"
       gradientTransform="translate(3.1135135,-0.3459459)" />
    <linearGradient
       id="linearGradient3415">
      <stop
         id="stop3417"
         offset="0"
         style="stop-color:#1a1a1a;stop-opacity:1;" />
      <stop
         id="stop3419"
         offset="1"
         style="stop-color:#2b2b2b;stop-opacity:1;" />
    </linearGradient>
    <linearGradient
       inkscape:collect="always"
       xlink:href="#linearGradient2338"
       id="linearGradient2842"
       x1="59.589188"
       y1="66.378372"
       x2="59.286484"
       y2="60.929729"
       gradientUnits="userSpaceOnUse"
       gradientTransform="translate(3.1135135,-0.3459459)" />
    <linearGradient
       inkscape:collect="always"
       xlink:href="#linearGradient2338"
       id="linearGradient2846"
       x1="65.167564"
       y1="58.55135"
       x2="49.989189"
       y2="62.486485"
       gradientUnits="userSpaceOnUse"
       gradientTransform="translate(3.1135135,-0.3459459)" />
    <linearGradient
       inkscape:collect="always"
       xlink:href="#linearGradient2338"
       id="linearGradient2850"
       x1="72.216217"
       y1="70.400002"
       x2="68.194595"
       y2="71.697296"
       gradientUnits="userSpaceOnUse"
       gradientTransform="translate(3.1135135,-0.3459459)" />
    <linearGradient
       inkscape:collect="always"
       xlink:href="#linearGradient2338"
       id="linearGradient2854"
       x1="67.762161"
       y1="75.891891"
       x2="65.167564"
       y2="75.632431"
       gradientUnits="userSpaceOnUse"
       gradientTransform="translate(3.1135135,-0.3459459)" />
    <linearGradient
       inkscape:collect="always"
       xlink:href="#linearGradient2338"
       id="linearGradient2860"
       x1="49.556755"
       y1="80.994591"
       x2="44.843243"
       y2="81.081078"
       gradientUnits="userSpaceOnUse"
       gradientTransform="translate(3.1135135,-0.3459459)" />
    <linearGradient
       inkscape:collect="always"
       xlink:href="#linearGradient2338"
       id="linearGradient2864"
       x1="44.021622"
       y1="79.437836"
       x2="43.156757"
       y2="79.351349"
       gradientUnits="userSpaceOnUse"
       gradientTransform="translate(3.1135135,-0.3459459)" />
    <linearGradient
       id="linearGradient3392">
      <stop
         id="stop3394"
         offset="0"
         style="stop-color:#4a585b;stop-opacity:1;" />
      <stop
         id="stop3396"
         offset="1"
         style="stop-color:#5e7074;stop-opacity:1;" />
    </linearGradient>
    <linearGradient
       id="linearGradient3405">
      <stop
         id="stop3407"
         offset="0"
         style="stop-color:#4f3e2a;stop-opacity:1;" />
      <stop
         id="stop3409"
         offset="1"
         style="stop-color:#72593c;stop-opacity:1;" />
    </linearGradient>
    <linearGradient
       inkscape:collect="always"
       xlink:href="#linearGradient3392"
       id="linearGradient3098"
       x1="59.762161"
       y1="68.713516"
       x2="65.037834"
       y2="82.594597"
       gradientUnits="userSpaceOnUse"
       gradientTransform="translate(3.1135135,-0.3459459)" />
    <linearGradient
       inkscape:collect="always"
       xlink:href="#linearGradient3392"
       id="linearGradient3103"
       x1="51.762161"
       y1="70.097298"
       x2="51.827026"
       y2="75.502701"
       gradientUnits="userSpaceOnUse"
       gradientTransform="translate(3.1135135,-0.3459459)" />
    <linearGradient
       inkscape:collect="always"
       xlink:href="#linearGradient2320"
       id="linearGradient3107"
       x1="51.978378"
       y1="116.28108"
       x2="50.162163"
       y2="116.88649"
       gradientUnits="userSpaceOnUse"
       gradientTransform="translate(3.1135135,-0.3459459)" />
    <linearGradient
       inkscape:collect="always"
       xlink:href="#linearGradient2320"
       id="linearGradient3112"
       gradientUnits="userSpaceOnUse"
       x1="51.978378"
       y1="116.28108"
       x2="50.162163"
       y2="116.88649"
       gradientTransform="translate(9.0378378,-1.427027)" />
    <linearGradient
       inkscape:collect="always"
       xlink:href="#linearGradient2320"
       id="linearGradient3116"
       gradientUnits="userSpaceOnUse"
       gradientTransform="translate(14.832433,-2.5081081)"
       x1="51.978378"
       y1="116.28108"
       x2="50.162163"
       y2="116.88649" />
    <linearGradient
       inkscape:collect="always"
       xlink:href="#linearGradient2320"
       id="linearGradient3120"
       gradientUnits="userSpaceOnUse"
       gradientTransform="translate(23.827028,-4.4108108)"
       x1="51.978378"
       y1="116.28108"
       x2="50.162163"
       y2="116.88649" />
    <linearGradient
       inkscape:collect="always"
       xlink:href="#linearGradient2320"
       id="linearGradient3124"
       gradientUnits="userSpaceOnUse"
       gradientTransform="translate(19.935136,-3.0702703)"
       x1="51.978378"
       y1="116.28108"
       x2="50.162163"
       y2="116.88649" />
    <linearGradient
       inkscape:collect="always"
       xlink:href="#linearGradient2320"
       id="linearGradient3128"
       gradientUnits="userSpaceOnUse"
       gradientTransform="translate(29.362163,-5.4486487)"
       x1="51.978378"
       y1="116.28108"
       x2="50.162163"
       y2="116.88649" />
    <linearGradient
       inkscape:collect="always"
       xlink:href="#linearGradient2320"
       id="linearGradient3132"
       gradientUnits="userSpaceOnUse"
       gradientTransform="translate(35.113514,-6.572973)"
       x1="51.978378"
       y1="116.28108"
       x2="50.162163"
       y2="116.88649" />
    <linearGradient
       inkscape:collect="always"
       xlink:href="#linearGradient2320"
       id="linearGradient3136"
       gradientUnits="userSpaceOnUse"
       gradientTransform="translate(41.85946,-7.9567568)"
       x1="51.978378"
       y1="116.28108"
       x2="50.162163"
       y2="116.88649" />
    <linearGradient
       inkscape:collect="always"
       xlink:href="#linearGradient2320"
       id="linearGradient3140"
       gradientUnits="userSpaceOnUse"
       gradientTransform="translate(47.956757,-8.9081082)"
       x1="51.978378"
       y1="116.28108"
       x2="50.162163"
       y2="116.88649" />
    <linearGradient
       inkscape:collect="always"
       xlink:href="#linearGradient2320"
       id="linearGradient3144"
       gradientUnits="userSpaceOnUse"
       gradientTransform="translate(53.881081,-9.945946)"
       x1="51.978378"
       y1="116.28108"
       x2="50.162163"
       y2="116.88649" />
    <linearGradient
       inkscape:collect="always"
       xlink:href="#linearGradient2320"
       id="linearGradient3148"
       gradientUnits="userSpaceOnUse"
       gradientTransform="translate(59.762162,-10.897297)"
       x1="51.978378"
       y1="116.28108"
       x2="50.162163"
       y2="116.88649" />
    <linearGradient
       inkscape:collect="always"
       xlink:href="#linearGradient2320"
       id="linearGradient3152"
       gradientUnits="userSpaceOnUse"
       gradientTransform="translate(65.686486,-11.848648)"
       x1="51.978378"
       y1="116.28108"
       x2="50.162163"
       y2="116.88649" />
    <linearGradient
       inkscape:collect="always"
       xlink:href="#linearGradient2320"
       id="linearGradient3156"
       x1="69.924324"
       y1="97.729729"
       x2="70.097298"
       y2="98.37838"
       gradientUnits="userSpaceOnUse"
       gradientTransform="translate(3.1135135,-0.3459459)" />
    <linearGradient
       inkscape:collect="always"
       xlink:href="#linearGradient2320"
       id="linearGradient3160"
       gradientUnits="userSpaceOnUse"
       x1="69.924324"
       y1="97.729729"
       x2="70.097298"
       y2="98.37838"
       gradientTransform="translate(7.6108108,3.0702703)" />
    <linearGradient
       inkscape:collect="always"
       xlink:href="#linearGradient2320"
       id="linearGradient3168"
       gradientUnits="userSpaceOnUse"
       x1="69.924324"
       y1="97.729729"
       x2="70.097298"
       y2="98.37838"
       gradientTransform="translate(2.2486486,-3.7621621)" />
    <linearGradient
       inkscape:collect="always"
       xlink:href="#linearGradient2320"
       id="linearGradient3172"
       gradientUnits="userSpaceOnUse"
       gradientTransform="translate(0.6054054,-6.6594594)"
       x1="69.924324"
       y1="97.729729"
       x2="70.097298"
       y2="98.37838" />
    <linearGradient
       inkscape:collect="always"
       xlink:href="#linearGradient2320"
       id="linearGradient3176"
       gradientUnits="userSpaceOnUse"
       gradientTransform="translate(-2.1189189,-10.335135)"
       x1="69.881081"
       y1="97.945946"
       x2="70.054054"
       y2="98.63784" />
    <linearGradient
       inkscape:collect="always"
       xlink:href="#linearGradient2320"
       id="linearGradient3181"
       gradientUnits="userSpaceOnUse"
       gradientTransform="translate(-3.8486486,-12.562162)"
       x1="69.881081"
       y1="97.945946"
       x2="70.054054"
       y2="98.63784" />
    <linearGradient
       inkscape:collect="always"
       xlink:href="#linearGradient2320"
       id="linearGradient3185"
       gradientUnits="userSpaceOnUse"
       gradientTransform="translate(-5.5783783,-15.2)"
       x1="69.859459"
       y1="97.989189"
       x2="70.054054"
       y2="98.63784" />
    <linearGradient
       inkscape:collect="always"
       xlink:href="#linearGradient2320"
       id="linearGradient3189"
       gradientUnits="userSpaceOnUse"
       gradientTransform="translate(-6.8756756,-17.297297)"
       x1="69.859459"
       y1="97.989189"
       x2="70.054054"
       y2="98.63784" />
    <linearGradient
       inkscape:collect="always"
       xlink:href="#linearGradient2320"
       id="linearGradient3195"
       gradientUnits="userSpaceOnUse"
       gradientTransform="translate(-7.6972975,-19.848648)"
       x1="64.972969"
       y1="99.005402"
       x2="65.23243"
       y2="99.848648" />
    <linearGradient
       inkscape:collect="always"
       xlink:href="#linearGradient2320"
       id="linearGradient3199"
       x1="52.237839"
       y1="77.470268"
       x2="52.410812"
       y2="78.075676"
       gradientUnits="userSpaceOnUse"
       gradientTransform="translate(3.1135135,-0.3459459)" />
    <linearGradient
       inkscape:collect="always"
       xlink:href="#linearGradient2320"
       id="linearGradient3203"
       gradientUnits="userSpaceOnUse"
       x1="52.237839"
       y1="77.470268"
       x2="52.410812"
       y2="78.075676"
       gradientTransform="translate(2.4,-1.881081)" />
    <linearGradient
       inkscape:collect="always"
       xlink:href="#linearGradient3415"
       id="linearGradient3207"
       x1="65.805122"
       y1="108.20101"
       x2="65.981903"
       y2="108.96875"
       gradientUnits="userSpaceOnUse"
       gradientTransform="translate(3.1135135,-0.3459459)" />
    <linearGradient
       inkscape:collect="always"
       xlink:href="#linearGradient3415"
       id="linearGradient3211"
       gradientUnits="userSpaceOnUse"
       x1="65.805122"
       y1="108.59876"
       x2="66.0261"
       y2="109.80844"
       gradientTransform="translate(5.5883872,8.006753)" />
    <linearGradient
       inkscape:collect="always"
       xlink:href="#linearGradient3415"
       id="linearGradient3215"
       x1="59.971493"
       y1="89.109123"
       x2="57.364037"
       y2="90.081398"
       gradientUnits="userSpaceOnUse"
       gradientTransform="translate(3.1135135,-0.3459459)" />
    <linearGradient
       inkscape:collect="always"
       xlink:href="#linearGradient3415"
       id="linearGradient3219"
       x1="75.969788"
       y1="111.69235"
       x2="74.776543"
       y2="111.07363"
       gradientUnits="userSpaceOnUse"
       gradientTransform="translate(3.1135135,-0.3459459)" />
    <linearGradient
       inkscape:collect="always"
       xlink:href="#linearGradient3415"
       id="linearGradient3223"
       x1="66.423843"
       y1="88.136856"
       x2="65.584152"
       y2="88.843964"
       gradientUnits="userSpaceOnUse"
       gradientTransform="translate(3.1135135,-0.3459459)" />
    <linearGradient
       inkscape:collect="always"
       xlink:href="#linearGradient3405"
       id="linearGradient3227"
       x1="58.247921"
       y1="79.209633"
       x2="54.182056"
       y2="89.197517"
       gradientUnits="userSpaceOnUse"
       gradientTransform="translate(3.1135135,-0.3459459)" />
    <linearGradient
       inkscape:collect="always"
       xlink:href="#linearGradient3392"
       id="linearGradient3231"
       x1="87.725433"
       y1="93.395966"
       x2="90.730637"
       y2="107.36132"
       gradientUnits="userSpaceOnUse"
       gradientTransform="translate(3.1135135,-0.3459459)" />
    <linearGradient
       inkscape:collect="always"
       xlink:href="#linearGradient3392"
       id="linearGradient3235"
       x1="102.97243"
       y1="102.05802"
       x2="112.38579"
       y2="92.954018"
       gradientUnits="userSpaceOnUse"
       gradientTransform="translate(3.1135135,-0.3459459)" />
    <linearGradient
       inkscape:collect="always"
       xlink:href="#linearGradient3392"
       id="linearGradient3239"
       x1="94.001007"
       y1="95.207924"
       x2="101.77918"
       y2="84.203575"
       gradientUnits="userSpaceOnUse"
       gradientTransform="translate(3.1135135,-0.3459459)" />
    <linearGradient
       inkscape:collect="always"
       xlink:href="#linearGradient3415"
       id="linearGradient3243"
       x1="94.796501"
       y1="112.44365"
       x2="99.348503"
       y2="105.24"
       gradientUnits="userSpaceOnUse"
       gradientTransform="translate(3.1135135,-0.3459459)" />
    <linearGradient
       inkscape:collect="always"
       xlink:href="#linearGradient3392"
       id="linearGradient3247"
       x1="95.326836"
       y1="110.5433"
       x2="100.27658"
       y2="101.66027"
       gradientUnits="userSpaceOnUse"
       gradientTransform="translate(3.1135135,-0.3459459)" />
    <linearGradient
       inkscape:collect="always"
       xlink:href="#linearGradient3415"
       id="linearGradient3251"
       x1="95.812965"
       y1="108.9523"
       x2="98.111069"
       y2="106.43324"
       gradientUnits="userSpaceOnUse"
       gradientTransform="translate(3.1135135,-0.3459459)" />
    <linearGradient
       inkscape:collect="always"
       xlink:href="#linearGradient3415"
       id="linearGradient3259"
       gradientUnits="userSpaceOnUse"
       x1="94.796501"
       y1="112.44365"
       x2="99.348503"
       y2="105.24"
       gradientTransform="translate(19.288582,-3.5279264)" />
    <linearGradient
       inkscape:collect="always"
       xlink:href="#linearGradient3392"
       id="linearGradient3261"
       gradientUnits="userSpaceOnUse"
       x1="95.326836"
       y1="110.5433"
       x2="100.27658"
       y2="101.66027"
       gradientTransform="translate(19.288582,-3.5279264)" />
    <linearGradient
       inkscape:collect="always"
       xlink:href="#linearGradient3415"
       id="linearGradient3263"
       gradientUnits="userSpaceOnUse"
       x1="95.812965"
       y1="108.9523"
       x2="98.111069"
       y2="106.43324"
       gradientTransform="translate(19.288582,-3.5279264)" />
    <linearGradient
       inkscape:collect="always"
       xlink:href="#linearGradient3392"
       id="linearGradient3267"
       x1="85.029594"
       y1="101.92544"
       x2="87.32769"
       y2="100.62171"
       gradientUnits="userSpaceOnUse"
       gradientTransform="translate(3.1135135,-0.3459459)" />
    <linearGradient
       inkscape:collect="always"
       xlink:href="#linearGradient3415"
       id="linearGradient3271"
       x1="98.420425"
       y1="91.142059"
       x2="100.8511"
       y2="81.286758"
       gradientUnits="userSpaceOnUse"
       gradientTransform="translate(3.1135135,-0.3459459)" />
    <filter
       inkscape:collect="always"
       id="filter3963">
      <feGaussianBlur
         inkscape:collect="always"
         stdDeviation="0.45217738"
         id="feGaussianBlur3965" />
    </filter>
  </defs>
  <sodipodi:namedview
     id="base"
     pagecolor="#ffffff"
     bordercolor="#666666"
     borderopacity="1.0"
     gridtolerance="10000"
     guidetolerance="10"
     objecttolerance="10"
     inkscape:pageopacity="0.0"
     inkscape:pageshadow="2"
     inkscape:zoom="1"
     inkscape:cx="93.577975"
     inkscape:cy="27.413404"
     inkscape:document-units="px"
     inkscape:current-layer="layer2"
     showgrid="false"
     width="744.09px"
     inkscape:window-width="1248"
     inkscape:window-height="975"
     inkscape:window-x="426"
     inkscape:window-y="24" />
  <metadata
     id="metadata7">
    <rdf:RDF>
      <cc:Work
         rdf:about="">
        <dc:format>image/svg+xml</dc:format>
        <dc:type
           rdf:resource="http://purl.org/dc/dcmitype/StillImage" />
      </cc:Work>
    </rdf:RDF>
  </metadata>
  <g
     inkscape:groupmode="layer"
     id="layer2"
     inkscape:label="colors">
    <path
       style="fill:url(#linearGradient2408);fill-opacity:1;fill-rule:evenodd;stroke:none;stroke-width:1px;stroke-linecap:butt;stroke-linejoin:miter;stroke-opacity:1"
       d="M 5.5597207,53.533975 L 13.754516,46.317663 L 20.359275,41.91449 C 20.359275,41.91449 28.309449,37.389007 31.122587,35.921282 C 33.935725,34.453558 37.971967,30.661937 37.971967,30.661937 L 42.25283,27.848798 L 50.692245,24.057177 L 59.25397,27.726488 L 77.233593,37.633627 L 81.025215,42.281421 L 90.198492,51.332388 L 93.01163,54.879389 L 101.20642,62.21801 L 105.60959,67.966597 C 100.45787,80.795181 87.728545,80.861473 76.744352,83.866944 C 68.290138,93.365381 53.913683,97.962655 36.015001,99.644981 C 28.955314,102.96248 23.215345,99.021539 17.423826,95.364118 C 13.099875,90.836817 6.5703792,87.453131 10.574446,78.607599 C 7.1049257,71.0557 0.23801101,65.02677 5.5597207,53.533975 z"
       id="path2406"
       sodipodi:nodetypes="cccsccccccccccccccc" />
    <path
       style="fill:url(#linearGradient3227);fill-opacity:1;fill-rule:evenodd;stroke:none;stroke-width:1px;stroke-linecap:butt;stroke-linejoin:miter;stroke-opacity:1"
       d="M 53.936814,89.558676 L 53.804231,72.367142 L 55.792969,74.974599 L 69.935105,82.708579 L 71.305124,85.271841 L 69.272192,85.934754 L 59.814639,88.01188 L 53.936814,89.558676 z"
       id="path3225" />
    <path
       style="fill:url(#linearGradient2412);fill-rule:evenodd;stroke:none;stroke-width:1px;stroke-linecap:butt;stroke-linejoin:miter;stroke-opacity:1"
       d="M 80.291353,41.058318 L 84.205284,38.734421 L 90.687733,32.985834 L 99.494079,37.144386 L 110.50201,41.302938 L 113.9267,48.76387 L 117.4737,54.145526 C 115.34127,59.246402 115.13806,65.613333 103.04108,64.174976 L 95.213217,56.836354 L 92.277768,53.900906 L 89.831561,50.598526 C 85.950003,47.618882 81.955983,44.67137 80.291353,41.058318 z"
       id="path2410"
       sodipodi:nodetypes="cccccccccccc" />
    <path
       style="fill:url(#linearGradient2842);fill-opacity:1;fill-rule:evenodd;stroke:none;stroke-width:1px;stroke-linecap:butt;stroke-linejoin:miter;stroke-opacity:1"
       d="M 47.135136,63.956757 L 75.891892,57.383784 L 76.064865,63.394594 L 47.524325,69.881081 C 47.524325,69.881081 47.221622,69.751351 47.178379,69.578378 C 47.135136,69.405405 47.091892,63.87027 47.135136,63.956757 z"
       id="path2840" />
    <path
       style="fill:url(#linearGradient2846);fill-opacity:1;fill-rule:evenodd;stroke:none;stroke-width:1px;stroke-linecap:butt;stroke-linejoin:miter;stroke-opacity:1"
       d="M 47.264865,64.043243 C 47.135136,63.827027 46.227028,63.048649 46.227028,63.048649 L 73.081082,56.778378 L 75.545947,57.427027 L 47.048649,64 L 47.264865,64.043243 z"
       id="path2844" />
    <path
       style="fill:url(#linearGradient2850);fill-opacity:1;fill-rule:evenodd;stroke:none;stroke-width:1px;stroke-linecap:butt;stroke-linejoin:miter;stroke-opacity:1"
       d="M 71.308109,64.475676 L 71.437838,85.318919 L 76.367568,83.675676 L 76.151352,63.264865 L 71.308109,64.475676 z"
       id="path2848" />
    <path
       style="fill:url(#linearGradient2854);fill-opacity:1;fill-rule:evenodd;stroke:none;stroke-width:1px;stroke-linecap:butt;stroke-linejoin:miter;stroke-opacity:1"
       d="M 69.837838,64.821622 L 71.264865,64.518919 L 71.524325,85.232432 L 69.881082,82.724324 L 69.837838,64.821622 z"
       id="path2852" />
    <path
       style="fill:url(#linearGradient2860);fill-opacity:1;fill-rule:evenodd;stroke:none;stroke-width:1px;stroke-linecap:butt;stroke-linejoin:miter;stroke-opacity:1"
       d="M 47.524325,69.751351 L 53.967568,68.367567 L 54.054055,89.643243 L 47.654055,90.983784 L 47.524325,69.751351 z"
       id="path2858" />
    <path
       style="fill:url(#linearGradient2864);fill-opacity:1;fill-rule:evenodd;stroke:none;stroke-width:1px;stroke-linecap:butt;stroke-linejoin:miter;stroke-opacity:1"
       d="M 46.183784,63.005405 L 47.264865,63.87027 L 47.264865,69.621622 L 47.524325,69.751351 L 47.827028,90.854054 L 47.178379,90.724324 L 46.097298,90.075676 L 46.010811,63.827027 L 46.183784,63.005405 z"
       id="path2862" />
    <path
       style="fill:url(#linearGradient3098);fill-opacity:1;fill-rule:evenodd;stroke:none;stroke-width:1px;stroke-linecap:butt;stroke-linejoin:miter;stroke-opacity:1"
       d="M 55.740541,68.021622 L 55.827028,75.027027 L 70.010811,82.810811 L 70.054055,64.735135 L 55.740541,68.021622 z"
       id="path3096" />
    <path
       style="fill:url(#linearGradient3103);fill-opacity:1;fill-rule:evenodd;stroke:none;stroke-width:1px;stroke-linecap:butt;stroke-linejoin:miter;stroke-opacity:1"
       d="M 53.837838,72.345946 L 53.881082,68.367567 L 56.043244,67.978378 L 55.654055,74.767567 L 53.837838,72.345946 z"
       id="path3101" />
    <path
       style="fill:url(#linearGradient3107);fill-opacity:1;fill-rule:evenodd;stroke:none;stroke-width:1px;stroke-linecap:butt;stroke-linejoin:miter;stroke-opacity:1"
       d="M 49.470271,109.1027 L 52.410811,108.92973 L 59.027028,122.42162 L 55.221622,123.28648 L 49.470271,109.1027 z"
       id="path3105" />
    <path
       id="path3110"
       d="M 55.394595,108.02162 L 58.335135,107.84865 L 64.648649,120.64865 L 60.886487,121.59999 L 55.394595,108.02162 z"
       style="fill:url(#linearGradient3112);fill-opacity:1;fill-rule:evenodd;stroke:none;stroke-width:1px;stroke-linecap:butt;stroke-linejoin:miter;stroke-opacity:1"
       sodipodi:nodetypes="ccccc" />
    <path
       style="fill:url(#linearGradient3116);fill-opacity:1;fill-rule:evenodd;stroke:none;stroke-width:1px;stroke-linecap:butt;stroke-linejoin:miter;stroke-opacity:1"
       d="M 61.18919,106.94054 L 64.12973,106.76757 L 70.745947,120.25946 L 66.940541,121.12432 L 61.18919,106.94054 z"
       id="path3114" />
    <path
       id="path3118"
       d="M 70.183785,105.03784 L 73.124325,104.86487 L 79.740542,118.35676 L 75.935136,119.22162 L 70.183785,105.03784 z"
       style="fill:url(#linearGradient3120);fill-opacity:1;fill-rule:evenodd;stroke:none;stroke-width:1px;stroke-linecap:butt;stroke-linejoin:miter;stroke-opacity:1" />
    <path
       style="fill:url(#linearGradient3124);fill-opacity:1;fill-rule:evenodd;stroke:none;stroke-width:1px;stroke-linecap:butt;stroke-linejoin:miter;stroke-opacity:1"
       d="M 68.021623,110.91892 L 70.270271,110.35676 L 72.302704,115.37298 L 70.140541,115.97838 L 68.021623,110.91892 z"
       id="path3122"
       sodipodi:nodetypes="ccccc" />
    <path
       id="path3126"
       d="M 79.956758,112.47568 L 82.205406,112 L 83.113515,113.72973 L 80.951352,114.2054 L 79.956758,112.47568 z"
       style="fill:url(#linearGradient3128);fill-opacity:1;fill-rule:evenodd;stroke:none;stroke-width:1px;stroke-linecap:butt;stroke-linejoin:miter;stroke-opacity:1"
       sodipodi:nodetypes="ccccc" />
    <path
       style="fill:url(#linearGradient3132);fill-opacity:1;fill-rule:evenodd;stroke:none;stroke-width:1px;stroke-linecap:butt;stroke-linejoin:miter;stroke-opacity:1"
       d="M 81.427028,103.04865 L 84.410811,102.70271 L 91.027028,116.1946 L 86.875676,116.88649 L 81.427028,103.04865 z"
       id="path3130"
       sodipodi:nodetypes="ccccc" />
    <path
       id="path3134"
       d="M 89.210812,104.64866 L 91.327005,104.40481 L 92.92973,105.29731 L 97.772974,114.81082 L 93.967568,115.67568 L 89.210812,104.64866 z"
       style="fill:url(#linearGradient3136);fill-opacity:1;fill-rule:evenodd;stroke:none;stroke-width:1px;stroke-linecap:butt;stroke-linejoin:miter;stroke-opacity:1"
       sodipodi:nodetypes="cccccc" />
    <path
       style="fill:url(#linearGradient3140);fill-opacity:1;fill-rule:evenodd;stroke:none;stroke-width:1px;stroke-linecap:butt;stroke-linejoin:miter;stroke-opacity:1"
       d="M 99.545946,113.60001 L 103.26486,112.82163 L 103.87027,113.85947 L 100.06486,114.72433 L 99.545946,113.60001 z"
       id="path3138"
       sodipodi:nodetypes="ccccc" />
    <path
       id="path3142"
       d="M 104.38919,110.57298 C 105.24513,108.97573 106.11843,107.38716 106.07567,105.34055 L 109.79459,112.82163 L 105.98919,113.68649 L 104.38919,110.57298 z"
       style="fill:url(#linearGradient3144);fill-opacity:1;fill-rule:evenodd;stroke:none;stroke-width:1px;stroke-linecap:butt;stroke-linejoin:miter;stroke-opacity:1"
       sodipodi:nodetypes="ccccc" />
    <path
       style="fill:url(#linearGradient3148);fill-opacity:1;fill-rule:evenodd;stroke:none;stroke-width:1px;stroke-linecap:butt;stroke-linejoin:miter;stroke-opacity:1"
       d="M 108.92973,105.34055 L 110.96215,104.90812 C 113.2777,106.9497 114.18112,109.52083 115.67567,111.87028 L 111.87027,112.73514 L 108.92973,105.34055 z"
       id="path3146"
       sodipodi:nodetypes="ccccc" />
    <path
       id="path3150"
       d="M 117.27567,110.4865 L 120.08647,108.23785 L 121.2108,110.91893 L 117.79459,111.78379 L 117.27567,110.4865 z"
       style="fill:url(#linearGradient3152);fill-opacity:1;fill-rule:evenodd;stroke:none;stroke-width:1px;stroke-linecap:butt;stroke-linejoin:miter;stroke-opacity:1"
       sodipodi:nodetypes="ccccc" />
    <path
       style="fill:url(#linearGradient3156);fill-opacity:1;fill-rule:evenodd;stroke:none;stroke-width:1px;stroke-linecap:butt;stroke-linejoin:miter;stroke-opacity:1"
       d="M 66.464865,98.118919 L 79.178379,95.567567 L 80.518919,97.47027 L 66.551352,100.49729 L 66.464865,98.118919 z"
       id="path3154" />
    <path
       id="path3158"
       d="M 70.962162,101.53513 L 76.843244,100.1081 L 77.794594,102.48648 L 70.832433,103.52432 L 70.962162,101.53513 z"
       style="fill:url(#linearGradient3160);fill-opacity:1;fill-rule:evenodd;stroke:none;stroke-width:1px;stroke-linecap:butt;stroke-linejoin:miter;stroke-opacity:1"
       sodipodi:nodetypes="ccccc" />
    <path
       id="path3166"
       d="M 64.432432,95.437838 L 76.756757,92.194594 L 77.794595,94.010811 L 65.686487,97.081078 L 64.432432,95.437838 z"
       style="fill:url(#linearGradient3168);fill-opacity:1;fill-rule:evenodd;stroke:none;stroke-width:1px;stroke-linecap:butt;stroke-linejoin:miter;stroke-opacity:1"
       sodipodi:nodetypes="ccccc" />
    <path
       sodipodi:nodetypes="ccccc"
       style="fill:url(#linearGradient3172);fill-opacity:1;fill-rule:evenodd;stroke:none;stroke-width:1px;stroke-linecap:butt;stroke-linejoin:miter;stroke-opacity:1"
       d="M 62.789189,92.540541 L 73.297298,89.556756 L 74.940541,91.45946 L 64.043244,94.183781 L 62.789189,92.540541 z"
       id="path3170" />
    <path
       id="path3174"
       d="M 60.064865,88.864865 L 70.227028,86.616216 L 71.956758,88.691892 L 61.664866,90.854051 L 60.064865,88.864865 z"
       style="fill:url(#linearGradient3176);fill-opacity:1;fill-rule:evenodd;stroke:none;stroke-width:1px;stroke-linecap:butt;stroke-linejoin:miter;stroke-opacity:1"
       sodipodi:nodetypes="ccccc" />
    <path
       sodipodi:nodetypes="ccccc"
       style="fill:url(#linearGradient3181);fill-opacity:1;fill-rule:evenodd;stroke:none;stroke-width:1px;stroke-linecap:butt;stroke-linejoin:miter;stroke-opacity:1"
       d="M 58.335135,86.637838 L 67.502703,84.345946 L 69.210812,86.118919 L 59.891893,87.891889 L 58.335135,86.637838 z"
       id="path3179" />
    <path
       id="path3183"
       d="M 56.605405,84 L 64.475676,82.291892 L 66.291893,83.762162 L 58.010811,85.491889 L 56.605405,84 z"
       style="fill:url(#linearGradient3185);fill-opacity:1;fill-rule:evenodd;stroke:none;stroke-width:1px;stroke-linecap:butt;stroke-linejoin:miter;stroke-opacity:1"
       sodipodi:nodetypes="ccccc" />
    <path
       sodipodi:nodetypes="ccccc"
       style="fill:url(#linearGradient3189);fill-opacity:1;fill-rule:evenodd;stroke:none;stroke-width:1px;stroke-linecap:butt;stroke-linejoin:miter;stroke-opacity:1"
       d="M 55.308108,81.902703 L 62.010811,79.891892 L 63.740542,81.643243 L 56.497298,83.286484 L 55.308108,81.902703 z"
       id="path3187" />
    <path
       id="path3191"
       d="M 54.486486,79.351352 L 59.437838,78.227028 L 61.081082,79.567568 L 55.243243,81.275673 L 54.486486,79.351352 z"
       style="fill:url(#linearGradient3195);fill-opacity:1;fill-rule:evenodd;stroke:none;stroke-width:1px;stroke-linecap:butt;stroke-linejoin:miter;stroke-opacity:1"
       sodipodi:nodetypes="ccccc" />
    <path
       style="fill:url(#linearGradient3199);fill-opacity:1;fill-rule:evenodd;stroke:none;stroke-width:1px;stroke-linecap:butt;stroke-linejoin:miter;stroke-opacity:1"
       d="M 54.443244,77.232432 L 56.951352,76.324324 L 57.881082,77.448649 L 54.940541,78.205405 L 54.443244,77.232432 z"
       id="path3197" />
    <path
       id="path3201"
       d="M 53.72973,75.697297 L 55.221622,75.2 L 55.870271,75.697298 L 54.140541,76.432432 L 53.72973,75.697297 z"
       style="fill:url(#linearGradient3203);fill-opacity:1;fill-rule:evenodd;stroke:none;stroke-width:1px;stroke-linecap:butt;stroke-linejoin:miter;stroke-opacity:1"
       sodipodi:nodetypes="ccccc" />
    <path
       style="fill:url(#linearGradient3207);fill-opacity:1;fill-rule:evenodd;stroke:none;stroke-width:1px;stroke-linecap:butt;stroke-linejoin:miter;stroke-opacity:1"
       d="M 46.676014,112.15405 L 86.238514,103.09155 L 89.738514,104.77905 L 47.176014,114.15405 L 46.676014,112.15405 z"
       id="path3205" />
    <path
       id="path3209"
       d="M 49.150888,120.50675 L 120.97513,107.90872 L 121.6467,109.6846 L 49.164752,122.41836 L 49.150888,120.50675 z"
       style="fill:url(#linearGradient3211);fill-opacity:1;fill-rule:evenodd;stroke:none;stroke-width:1px;stroke-linecap:butt;stroke-linejoin:miter;stroke-opacity:1"
       sodipodi:nodetypes="ccccc" />
    <path
       style="fill:url(#linearGradient3215);fill-opacity:1;fill-rule:evenodd;stroke:none;stroke-width:1px;stroke-linecap:butt;stroke-linejoin:miter;stroke-opacity:1"
       d="M 65.073746,107.94345 L 67.76959,104.4963 L 68.697668,101.62368 L 67.902173,97.778792 L 65.383105,93.182598 L 59.947222,86.288307 L 56.853629,82.39922 L 53.981008,77.84722 L 54.069397,76.653977 L 54.909086,78.068191 L 56.809435,81.117589 L 59.903027,84.874094 L 63.129202,88.586404 L 67.01829,93.845511 L 69.051222,97.027491 L 70.332853,101.57949 L 67.902173,106.61762 L 65.294717,110.15316 L 65.073746,107.94345 z"
       id="path3213" />
    <path
       style="fill:url(#linearGradient3219);fill-opacity:1;fill-rule:evenodd;stroke:none;stroke-width:1px;stroke-linecap:butt;stroke-linejoin:miter;stroke-opacity:1"
       d="M 70.686406,118.55005 L 74.22194,115.27968 L 76.652619,112.40706 L 78.597163,108.03184 L 78.906522,107.05956 L 80.851066,106.75021 L 80.541707,108.69475 L 79.922988,111.16962 L 78.199416,113.33514 L 76.033901,115.81001 L 70.686406,118.55005 z"
       id="path3217" />
    <path
       style="fill:url(#linearGradient3223);fill-opacity:1;fill-rule:evenodd;stroke:none;stroke-width:1px;stroke-linecap:butt;stroke-linejoin:miter;stroke-opacity:1"
       d="M 78.862328,104.58469 L 78.685551,101.75626 L 76.520037,97.071686 C 76.520037,97.071686 74.929047,94.552618 74.531299,94.375841 C 74.133552,94.199064 71.702872,91.370637 71.702872,91.370637 L 64.278251,84.432152 L 57.781707,79.128851 L 53.848426,75.283958 L 53.848426,74.488463 L 54.864892,75.283958 L 56.588464,77.140113 L 59.991416,79.924346 L 64.189862,83.45988 L 68.741862,87.216385 L 72.719338,90.840307 L 75.680348,93.801317 L 78.420386,97.381045 L 80.099765,100.56302 L 80.851066,104.27533 L 78.862328,104.58469 z"
       id="path3221" />
    <path
       style="fill:#000000;fill-opacity:0.66666669000000001;fill-rule:evenodd;stroke:none;stroke-width:1px;stroke-linecap:butt;stroke-linejoin:miter;stroke-opacity:1;filter:url(#filter3963)"
       d="M 100.15625,90.5 C 95.985039,90.890734 93.15851,92.485299 90.545686,93.975974 C 88.086303,94.794737 84.4155,94.827154 82.75877,95.984983 L 82.69853,96.339793 C 83.211325,98.032636 84.580113,101.09919 84.910296,101.57602 C 84.090776,101.96066 84.130985,103.38672 85.745798,104.11058 C 86.984422,105.37306 88.610283,104.80177 88.346932,104.4691 C 87.492845,103.82643 92.401612,106.4135 92.665361,106.90899 C 96.224243,107.68211 93.875858,112.21343 98.706253,112.63456 C 102.95915,112.93742 106.04324,108.30113 105.05412,106.06262 C 104.40287,105.31002 106.64362,107.41374 107.65267,106.62943 C 111.65645,105.09371 110.84825,109.76646 115.04394,109.77456 C 118.58022,110.11271 120.23512,107.16084 120.62753,105.45371 C 121.76509,103.65589 117.96011,102.42951 118.1094,100.71537 C 117.44569,99.44642 119.12245,96.406941 115.49489,96.796051 C 113.63763,97.159952 120.26394,96.988564 114.91945,95.628741 C 111.15451,94.848421 108.43939,93.217924 105.6423,91.680056 C 103.9215,91.072428 102.00117,90.848426 100.15625,90.5 z"
       id="path3884"
       sodipodi:nodetypes="cccccccccccccccccc" />
    <path
       style="fill:url(#linearGradient3231);fill-opacity:1;fill-rule:evenodd;stroke:none;stroke-width:1px;stroke-linecap:butt;stroke-linejoin:miter;stroke-opacity:1"
       d="M 85.403066,87.658327 L 96.849357,96.231996 L 96.849357,102.9937 L 95.302561,106.30826 L 91.899609,104.71727 L 88.894406,101.80046 L 87.259221,99.855914 L 85.579843,90.354171 L 85.403066,87.658327 z"
       id="path3229" />
    <path
       style="fill:url(#linearGradient3235);fill-opacity:1;fill-rule:evenodd;stroke:none;stroke-width:1px;stroke-linecap:butt;stroke-linejoin:miter;stroke-opacity:1"
       d="M 96.849357,96.011025 L 120.93518,88.674793 L 120.18388,98.353317 L 118.37192,97.513627 L 116.55995,97.469433 C 116.55995,97.469433 115.41091,97.999763 114.96896,98.17654 C 114.52702,98.353317 113.02442,99.900114 113.02442,99.900114 L 110.81471,105.02663 L 105.99755,105.86632 L 105.55561,103.0379 L 102.68299,100.65141 L 100.07553,100.38624 L 98.528736,101.62368 L 96.805163,102.9937 L 96.849357,96.011025 z"
       id="path3233" />
    <path
       style="fill:url(#linearGradient3239);fill-opacity:1;fill-rule:evenodd;stroke:none;stroke-width:1px;stroke-linecap:butt;stroke-linejoin:miter;stroke-opacity:1"
       d="M 85.624037,87.614132 L 95.656114,83.946016 L 113.02442,83.857628 L 120.84679,88.674793 L 96.805163,96.099414 L 85.624037,87.614132 z"
       id="path3237" />
    <path
       style="fill:url(#linearGradient3243);fill-opacity:1;fill-rule:evenodd;stroke:none;stroke-width:1px;stroke-linecap:butt;stroke-linejoin:miter;stroke-opacity:1"
       d="M 99.412619,100.96077 L 97.379687,102.64015 L 95.61192,104.80566 L 94.860619,107.14795 L 94.993202,109.13669 L 95.61192,111.08123 L 96.937745,112.67223 C 96.937745,112.67223 98.26357,113.42353 98.838095,113.42353 C 99.412619,113.42353 101.13619,113.24675 101.13619,113.24675 L 102.77138,112.05351 L 104.93689,109.71122 L 105.90916,106.66181 L 105.68819,103.34725 L 103.65526,100.96077 L 101.26877,100.29786 L 99.412619,100.96077 z"
       id="path3241"
       sodipodi:nodetypes="cccccccscccccccc" />
    <path
       style="fill:url(#linearGradient3247);fill-opacity:1;fill-rule:evenodd;stroke:none;stroke-width:1px;stroke-linecap:butt;stroke-linejoin:miter;stroke-opacity:1"
       d="M 97.51227,104.05436 L 99.501007,102.28659 L 101.62233,101.75626 L 103.39009,102.55176 L 104.45075,104.18694 L 104.62753,106.35246 C 104.62753,106.35246 103.74364,109.26927 103.65526,109.44605 C 103.56687,109.62283 102.68299,110.77188 102.68299,110.77188 L 100.78264,112.00931 L 98.617124,111.78834 L 97.20291,110.99285 L 96.319027,108.60636 L 96.539998,106.52923 L 97.51227,104.05436 z"
       id="path3245" />
    <path
       style="fill:url(#linearGradient3251);fill-opacity:1;fill-rule:evenodd;stroke:none;stroke-width:1px;stroke-linecap:butt;stroke-linejoin:miter;stroke-opacity:1"
       d="M 99.412619,105.64535 L 98.926483,107.28054 L 99.280036,108.78314 L 100.25231,109.00411 L 101.75491,107.94345 L 101.97588,106.08729 L 101.57813,104.98244 L 100.60586,104.84986 L 100.07553,105.02663 L 99.501007,105.42438 L 99.412619,105.64535 z"
       id="path3249" />
    <path
       sodipodi:nodetypes="cccccccscccccccc"
       id="path3253"
       d="M 115.58768,97.778793 L 113.55475,99.458173 L 111.78698,101.62368 L 111.03568,103.96597 L 111.16827,105.95471 L 111.78698,107.89925 L 113.11281,109.49025 C 113.11281,109.49025 114.43863,110.24155 115.01316,110.24155 C 115.58768,110.24155 117.31126,110.06477 117.31126,110.06477 L 118.94644,108.87153 L 121.11196,106.52924 L 122.08423,103.47983 L 121.86326,100.16527 L 119.83033,97.778793 L 117.44384,97.381048 L 115.58768,97.778793 z"
       style="fill:url(#linearGradient3259);fill-opacity:1;fill-rule:evenodd;stroke:none;stroke-width:1px;stroke-linecap:butt;stroke-linejoin:miter;stroke-opacity:1" />
    <path
       id="path3255"
       d="M 113.68733,100.87238 L 115.67607,99.104613 L 117.79739,98.574283 L 119.56516,99.369783 L 120.62582,101.00496 L 120.8026,103.17048 C 120.8026,103.17048 119.91871,106.08729 119.83033,106.26407 C 119.74194,106.44085 118.85805,107.5899 118.85805,107.5899 L 116.9577,108.82733 L 114.79219,108.60636 L 113.37797,107.81087 L 112.49409,105.42438 L 112.71506,103.34725 L 113.68733,100.87238 z"
       style="fill:url(#linearGradient3261);fill-opacity:1;fill-rule:evenodd;stroke:none;stroke-width:1px;stroke-linecap:butt;stroke-linejoin:miter;stroke-opacity:1" />
    <path
       id="path3257"
       d="M 115.58768,102.46337 L 115.10155,104.09856 L 115.4551,105.60116 L 116.42737,105.82213 L 117.92997,104.76147 L 118.15094,102.90531 L 117.70901,102.06563 L 116.86932,101.88885 L 116.2506,101.84465 L 115.67607,102.2424 L 115.58768,102.46337 z"
       style="fill:url(#linearGradient3263);fill-opacity:1;fill-rule:evenodd;stroke:none;stroke-width:1px;stroke-linecap:butt;stroke-linejoin:miter;stroke-opacity:1"
       sodipodi:nodetypes="ccccccccccc" />
    <path
       style="fill:url(#linearGradient3267);fill-opacity:1;fill-rule:evenodd;stroke:none;stroke-width:1px;stroke-linecap:butt;stroke-linejoin:miter;stroke-opacity:1"
       d="M 86.198561,95.790055 L 85.491454,97.11588 L 85.005318,99.413977 L 85.756619,102.15401 L 86.861474,103.87758 L 88.319881,104.45211 L 89.910872,104.76147 L 91.457668,104.31953 L 89.159571,102.33079 C 89.159571,102.33079 87.701163,99.944304 87.435998,99.634948 C 87.170833,99.325589 86.375338,95.878443 86.198561,95.790055 z"
       id="path3265" />
    <path
       style="fill:url(#linearGradient3271);fill-opacity:1;fill-rule:evenodd;stroke:none;stroke-width:1px;stroke-linecap:butt;stroke-linejoin:miter;stroke-opacity:1"
       d="M 89.115376,87.967686 L 92.385745,86.730249 L 95.435143,84.741511 L 97.291299,81.824696 L 100.16392,79.924346 L 104.93689,78.289162 L 107.32337,78.90788 L 110.85891,80.454676 L 112.58248,83.017938 L 113.2012,84.653123 L 114.61541,86.155725 C 114.61541,86.155725 117.97417,88.01188 117.53223,88.144463 C 117.09028,88.277045 97.20291,94.331647 97.20291,94.331647 L 89.115376,87.967686 z"
       id="path3269" />
    <path
       sodipodi:nodetypes="cccscccccccccccc"
       id="path3275"
       d="M 5.5597207,53.533975 L 13.754516,46.317663 L 20.359275,41.91449 C 20.359275,41.91449 28.309449,37.389007 31.122587,35.921282 C 33.935725,34.453558 37.971967,30.661937 37.971967,30.661937 L 42.25283,27.848798 L 50.692245,24.057177 L 49.12897,26.726488 L 42.542079,35.664087 L 34.771013,44.289359 L 30.921502,53.918612 L 28.398535,64.582088 C 28.133144,69.855425 26.165376,74.788287 24.281876,79.738002 L 17.423826,95.364118 C 13.099875,90.836817 6.5703792,87.453131 10.574446,78.607599 C 7.1049257,71.0557 0.23801101,65.02677 5.5597207,53.533975 z"
       style="fill:#000000;fill-opacity:0.15686275;fill-rule:evenodd;stroke:none;stroke-width:1px;stroke-linecap:butt;stroke-linejoin:miter;stroke-opacity:1" />
    <path
       id="path3854"
       d="M 69.837838,64.821622 L 71.264865,64.518919 L 71.524325,85.232432 L 69.881082,82.724324 L 69.837838,64.821622 z"
       style="fill:#000000;fill-opacity:0.15686275;fill-rule:evenodd;stroke:none;stroke-width:1px;stroke-linecap:butt;stroke-linejoin:miter;stroke-opacity:1" />
    <path
       id="path3856"
       d="M 46.183784,63.005405 L 47.264865,63.87027 L 47.264865,69.621622 L 47.524325,69.751351 L 47.827028,90.854054 L 47.178379,90.724324 L 46.097298,90.075676 L 46.010811,63.827027 L 46.183784,63.005405 z"
       style="fill:#000000;fill-opacity:0.15686275;fill-rule:evenodd;stroke:none;stroke-width:1px;stroke-linecap:butt;stroke-linejoin:miter;stroke-opacity:1" />
    <path
       id="path3858"
       d="M 55.740541,68.021622 L 55.827028,75.027027 L 70.010811,82.810811 L 70.054055,64.735135 L 55.740541,68.021622 z"
       style="fill:#000000;fill-opacity:0.15686275;fill-rule:evenodd;stroke:none;stroke-width:1px;stroke-linecap:butt;stroke-linejoin:miter;stroke-opacity:1" />
    <path
       id="path3860"
       d="M 53.837838,72.345946 L 53.881082,68.367567 L 56.043244,67.978378 L 55.654055,74.767567 L 53.837838,72.345946 z"
       style="fill:#000000;fill-opacity:0.15686275;fill-rule:evenodd;stroke:none;stroke-width:1px;stroke-linecap:butt;stroke-linejoin:miter;stroke-opacity:1" />
    <path
       style="fill:#000000;fill-opacity:0.15686275;fill-rule:evenodd;stroke:none;stroke-width:1px;stroke-linecap:butt;stroke-linejoin:miter;stroke-opacity:1"
       d="M 66.426014,58.216554 L 73.113514,56.716554 L 75.051014,57.404054 L 72.176014,51.529054 L 69.551014,46.216554 L 66.801014,44.029054 L 64.301014,42.779054 C 69.248214,48.482633 67.613786,53.320208 66.426014,58.216554 z"
       id="path3862"
       sodipodi:nodetypes="cccccccc" />
    <path
       style="fill:#000000;fill-opacity:0.15686275;fill-rule:evenodd;stroke:none;stroke-width:1px;stroke-linecap:butt;stroke-linejoin:miter;stroke-opacity:1"
       d="M 39.113514,57.529054 L 39.301014,59.091554 L 40.738514,61.591554 L 42.863514,62.966554 L 45.863514,63.341554 L 46.176014,69.654054 C 46.176014,69.654054 36.801014,65.216554 39.113514,57.529054 z"
       id="path3864" />
    <path
       style="fill:#000000;fill-opacity:0.15686275;fill-rule:evenodd;stroke:none;stroke-width:1px;stroke-linecap:butt;stroke-linejoin:miter;stroke-opacity:1"
       d="M 80.551014,41.154054 L 84.363514,38.591554 L 90.301014,33.091554 L 91.176014,35.904054 L 93.926014,39.654054 L 96.301014,42.091554 L 99.301014,46.716554 L 100.23851,49.466554 C 96.787608,49.65607 92.721424,48.384297 90.488514,51.466554 L 88.801014,49.904054 C 88.801014,49.904054 82.363514,44.529054 82.363514,44.279054 C 82.363514,44.029054 80.363514,41.029054 80.551014,41.154054 z"
       id="path3868"
       sodipodi:nodetypes="ccccccccccsc" />
    <path
       style="fill:#000000;fill-opacity:0.15686275;fill-rule:evenodd;stroke:none;stroke-width:1px;stroke-linecap:butt;stroke-linejoin:miter;stroke-opacity:1"
       d="M 109.92601,41.716554 L 117.30101,54.091554 C 116.61172,56.049887 116.16074,58.008221 115.17601,59.966554 C 115.76887,52.747048 111.84455,47.918994 109.92601,42.029054 L 109.92601,41.716554 z"
       id="path3870"
       sodipodi:nodetypes="ccccc" />
    <path
       id="path3872"
       d="M 85.403066,87.658327 L 96.849357,96.231996 L 96.849357,102.9937 L 95.302561,106.30826 L 91.899609,104.71727 L 88.894406,101.80046 L 87.259221,99.855914 L 85.579843,90.354171 L 85.403066,87.658327 z"
       style="fill:#000000;fill-opacity:0.15686275;fill-rule:evenodd;stroke:none;stroke-width:1px;stroke-linecap:butt;stroke-linejoin:miter;stroke-opacity:1" />
    <path
       id="path3874"
       d="M 86.198561,95.790055 L 85.491454,97.11588 L 85.005318,99.413977 L 85.756619,102.15401 L 86.861474,103.87758 L 88.319881,104.45211 L 89.910872,104.76147 L 91.457668,104.31953 L 89.159571,102.33079 C 89.159571,102.33079 87.701163,99.944304 87.435998,99.634948 C 87.170833,99.325589 86.375338,95.878443 86.198561,95.790055 z"
       style="fill:#000000;fill-opacity:0.15686275;fill-rule:evenodd;stroke:none;stroke-width:1px;stroke-linecap:butt;stroke-linejoin:miter;stroke-opacity:1" />
    <path
       style="fill:#000000;fill-opacity:0.15686275;fill-rule:evenodd;stroke:none;stroke-width:1px;stroke-linecap:butt;stroke-linejoin:miter;stroke-opacity:1"
       d="M 89.115376,88.100268 L 95.169978,85.095065 L 96.584192,82.664385 L 99.987143,80.012735 L 105.15786,78.244968 L 105.5998,79.43821 L 106.26271,80.940812 L 106.08594,82.045667 L 106.74885,84.52054 C 102.12085,85.861845 99.950965,90.275802 97.070328,93.801317 L 96.893551,94.022288 L 89.292153,88.188657 L 89.115376,88.100268 z"
       id="path3876"
       sodipodi:nodetypes="ccccccccccccc" />
  </g>
  <g
     inkscape:label="outline"
     inkscape:groupmode="layer"
     id="layer1">
    <path
       style="fill:#000000;fill-opacity:1;fill-rule:evenodd;stroke:none;stroke-width:1px;stroke-linecap:butt;stroke-linejoin:miter;stroke-opacity:1"
       d="M 51.144764,23.122804 C 45.78179,24.940882 41.161554,28.409356 36.301014,31.310304 C 31.403083,33.942505 27.730815,37.874673 23.332264,39.810304 C 16.062609,42.242853 10.745936,48.432926 5.2697635,53.466554 L 5.8635135,53.591554 C 11.199234,48.277219 16.651154,43.707446 23.644764,40.747804 C 28.697227,38.768118 32.912062,35.265516 37.176014,31.997804 C 41.019057,29.081311 44.721689,26.28938 48.894764,25.154054 C 45.672069,28.517875 43.88726,32.570622 40.676014,36.154054 C 34.892534,40.3529 32.565012,46.41735 30.394764,53.029054 C 29.457466,56.394938 28.891767,59.875134 28.301014,63.372804 C 25.473359,65.056731 23.647188,67.478239 20.988514,69.404054 C 16.078343,70.818492 13.024931,74.677906 10.301014,78.779054 L 10.519764,78.935304 C 13.056156,74.707982 16.418396,72.322117 21.301014,70.841554 C 23.490159,69.138146 25.670826,67.394014 27.894764,65.716554 C 27.538591,67.731666 27.146597,69.739506 26.644764,71.747804 C 24.914048,75.583333 23.602841,79.594112 22.207264,83.560304 C 20.543996,88.258024 18.780851,92.944669 17.394764,95.122804 L 17.613514,95.529054 C 19.138604,93.132486 21.603282,88.829603 23.269764,84.122804 C 24.936246,79.416005 26.425501,74.43633 27.551014,72.185304 C 28.919247,65.914562 29.842243,60.556127 31.238514,54.279054 C 32.896404,48.325487 35.79443,41.849651 42.019764,37.185304 L 42.051014,37.154054 L 42.082264,37.122804 C 46.094673,32.679221 47.304149,28.576321 51.676014,25.122804 C 57.34757,27.108885 60.26151,29.514351 65.988514,32.372804 C 70.274286,35.096605 75.017189,36.381415 78.519764,40.247804 C 81.221951,44.749186 86.026378,47.475805 89.769764,51.060304 C 92.160087,54.782061 95.191049,57.977831 98.551014,60.779054 C 101.69089,63.387201 104.53736,65.877059 105.98851,69.029054 C 104.45925,65.615867 102.3344,62.59537 99.207264,59.997804 C 95.982433,57.319089 92.574667,54.574807 90.238514,50.872804 L 90.207264,50.841554 L 90.176014,50.810304 C 86.77606,47.853698 83.514287,44.972878 81.051014,41.279054 C 83.875845,39.592646 85.019362,38.646646 86.082264,37.654054 C 87.021211,36.777217 88.094308,35.768382 90.144764,34.216554 C 90.32604,37.520905 92.94399,39.481856 95.207264,41.466554 C 97.239267,43.94666 99.184095,46.446269 100.23851,49.497804 L 100.36351,49.310304 C 99.782183,46.403647 97.755379,43.155707 96.019764,40.841554 C 93.760531,39.191395 92.490061,37.10618 91.769764,34.560304 C 93.856602,35.965722 96.656553,36.90518 99.613514,37.810304 C 103.25038,38.923549 107.03113,40.042706 109.73851,41.935304 C 111.16175,45.811749 114.87243,51.195889 117.39476,54.310304 L 117.76976,54.154054 C 115.25634,51.050641 112.31676,44.761226 111.05101,41.154054 C 107.99549,38.788122 103.57539,37.973472 99.894764,36.841554 L 90.394764,31.997804 C 87.567639,34.048973 86.485704,35.914462 85.426014,36.904054 C 84.424741,37.839093 83.286831,39.147157 80.707264,40.747804 C 80.415691,40.286424 80.128836,39.830775 79.863514,39.341554 L 79.863514,39.310304 L 79.832264,39.247804 C 76.412882,35.193275 70.93864,34.230176 66.582264,31.529054 L 66.551014,31.529054 L 66.519764,31.497804 C 61.954189,28.706137 57.036732,25.914471 51.144764,23.122804 z M 64.144764,42.810304 L 64.207264,42.872804 C 67.758029,44.061822 69.153141,47.052441 70.551014,49.591554 C 71.780262,51.824375 72.676001,54.378452 74.176014,56.810304 L 73.144764,56.685304 L 45.894764,62.779054 C 41.878253,63.146453 39.645905,61.110338 39.207264,57.466554 L 39.019764,57.372804 C 39.135637,61.799374 41.600144,63.73698 45.738514,63.779054 L 45.832264,68.872804 L 46.019764,90.341554 C 44.885035,92.511222 42.364357,93.561626 40.332264,94.872804 C 38.458078,96.241876 36.493014,97.537593 35.863514,99.747804 L 36.144764,99.716554 C 36.649153,97.945614 38.7883,96.689259 40.676014,95.310304 C 42.508127,93.971965 45.663049,93.102414 46.582264,90.685304 L 47.394764,91.154054 L 54.269764,89.716554 L 59.769764,88.216554 L 60.301014,88.091554 L 61.082264,87.935304 C 61.18587,88.064235 61.260845,88.21263 61.363514,88.341554 L 59.551014,88.716554 L 61.707264,91.216554 L 63.301014,90.841554 C 63.567082,91.202731 63.829972,91.57673 64.082264,91.935304 L 62.426014,92.404054 L 64.207264,94.654054 L 65.644764,94.247804 C 65.772933,94.456699 65.89876,94.665748 66.019764,94.872804 L 64.176014,95.341554 L 65.644764,97.466554 L 67.176014,97.060304 C 67.199105,97.110424 67.215997,97.166599 67.238514,97.216554 C 67.309202,97.373381 67.359467,97.5538 67.426014,97.716554 L 66.113514,97.997804 L 66.519764,100.77905 L 68.238514,100.4353 C 68.336939,101.02827 68.384558,101.6018 68.332264,102.09155 C 68.192995,103.39586 66.416909,106.42781 65.082264,107.7478 L 64.488514,106.5603 L 60.707264,106.6853 L 61.488514,108.5603 C 60.773176,108.7259 60.053221,108.89559 59.332264,109.0603 L 58.613514,107.6228 L 55.176014,107.77905 L 55.988514,109.8103 C 55.107059,110.00639 54.198395,110.20947 53.301014,110.40405 L 52.488514,108.84155 L 49.051014,108.96655 L 49.957264,111.1228 C 48.61985,111.40225 47.940252,111.50329 46.551014,111.77905 L 46.551014,112.59155 C 54.011281,111.07104 60.049147,109.58461 66.644764,107.9978 C 66.087496,108.86466 65.579748,109.5795 65.176014,109.9978 C 59.026447,111.48094 53.417949,112.85087 47.082264,113.9353 L 47.051014,114.4353 C 48.513302,114.1434 49.53069,113.9243 50.988514,113.6228 L 53.426014,119.52905 L 49.082264,120.3103 L 49.019764,120.90405 L 72.394764,116.7478 C 71.820967,117.25949 71.185388,117.75812 70.519764,118.27905 L 49.082264,122.1228 L 48.988514,122.6853 L 54.332264,121.7478 L 55.051014,123.46655 L 59.519764,122.52905 L 58.707264,120.96655 L 60.207264,120.71655 L 60.707264,121.96655 L 65.176014,121.02905 L 64.644764,119.9353 L 66.113514,119.6853 L 66.707264,121.15405 L 71.207264,120.2478 L 70.551014,118.90405 L 75.144764,118.09155 L 75.644764,119.34155 L 80.144764,118.40405 L 79.613514,117.3103 L 86.332264,116.1228 L 86.707264,117.15405 L 91.269764,116.4978 L 90.738514,115.3728 L 93.144764,114.9353 L 93.644764,116.09155 L 98.144764,115.15405 L 97.644764,114.15405 L 99.332264,113.84155 L 99.894764,115.21655 L 104.39476,114.27905 L 103.80101,113.0603 L 105.23851,112.8103 L 105.64476,113.84155 L 109.51976,113.02905 L 110.14476,112.90405 L 109.70726,112.02905 L 111.20726,111.77905 L 111.76976,113.09155 L 116.26976,112.15405 L 115.67601,110.96655 L 117.11351,110.71655 L 117.64476,111.96655 L 121.67601,110.9978 L 121.23851,109.9978 L 122.05101,109.71655 L 121.64476,109.15405 L 118.51976,109.71655 C 119.09081,109.34764 119.60599,108.8978 120.05101,108.40405 L 121.30101,108.1853 L 121.11351,107.6228 L 120.58226,107.71655 C 121.64571,106.24016 122.26426,104.40779 122.39476,102.4978 C 122.36843,100.52691 121.6871,99.137317 120.55101,98.279054 C 121.15086,95.221395 120.88381,91.920973 121.30101,88.810304 L 112.89476,83.497804 C 112.24902,82.021258 111.62673,80.838143 110.61351,80.029054 C 108.95808,78.769581 106.82499,78.172811 104.92601,77.966554 C 101.30769,79.237816 97.397279,80.41541 95.488514,83.716554 L 84.707264,87.497804 L 85.051014,87.622804 C 85.356464,89.352345 85.840508,93.135154 86.019764,95.497804 C 85.353062,96.752374 84.932863,98.153593 84.832264,99.622804 C 84.850678,101.00054 85.185478,102.10035 85.769764,102.9353 C 85.454732,103.00581 85.170719,103.08461 84.863514,103.15405 L 84.551014,102.46655 L 81.207264,102.77905 L 81.613514,103.8728 C 81.447541,103.91106 81.280515,103.95929 81.113514,103.9978 C 80.905623,101.95374 80.210324,99.981174 79.113514,98.060304 L 80.894764,97.685304 L 79.207264,95.341554 L 77.519764,95.685304 C 77.259881,95.3372 76.968985,94.97564 76.676014,94.622804 L 78.269764,94.185304 L 76.926014,91.966554 L 74.801014,92.529054 C 74.596492,92.317617 74.388822,92.116446 74.176014,91.904054 L 75.519764,91.529054 L 73.394764,89.216554 L 71.832264,89.685304 C 71.590242,89.465508 71.329858,89.249176 71.082264,89.029054 L 72.394764,88.716554 L 70.426014,86.341554 L 68.488514,86.779054 C 68.381997,86.689309 68.282968,86.587497 68.176014,86.497804 L 69.582264,86.216554 L 69.457264,86.091554 L 76.644764,83.810304 L 76.488514,63.497804 L 75.957264,56.997804 C 74.213485,54.483166 72.850471,51.710204 71.426014,49.122804 C 69.966556,46.471827 67.944921,44.082834 64.144764,42.810304 z M 72.832264,57.060304 L 74.426014,57.185304 C 74.458691,57.235783 74.486512,57.291213 74.519764,57.341554 L 47.332264,63.654054 L 46.926014,63.216554 L 72.832264,57.060304 z M 75.676014,57.716554 L 75.769764,62.966554 L 47.613514,69.560304 L 47.457264,64.372804 L 75.676014,57.716554 z M 46.363514,63.591554 L 46.832264,63.997804 L 46.863514,68.935304 L 46.426014,68.497804 L 46.363514,63.591554 z M 75.801014,63.810304 L 76.082264,83.560304 L 73.176014,84.497804 L 71.644764,84.966554 L 71.426014,64.779054 L 75.801014,63.810304 z M 70.988514,64.872804 L 71.207264,84.685304 L 70.176014,82.872804 L 70.238514,65.029054 L 70.988514,64.872804 z M 69.738514,65.154054 L 69.738514,82.435304 L 56.082264,74.810304 L 56.113514,68.122804 L 69.738514,65.154054 z M 67.988514,66.310304 L 67.863514,70.747804 L 64.738514,70.310304 L 64.832264,67.997804 L 64.582264,67.872804 L 64.457264,70.247804 L 61.363514,69.810304 L 61.363514,67.841554 L 61.082264,67.747804 L 61.082264,69.779054 L 60.394764,69.685304 L 60.394764,69.810304 L 61.113514,69.935304 L 61.113514,72.497804 L 59.457264,71.810304 L 59.363514,72.154054 L 61.113514,72.841554 L 61.144764,75.122804 C 60.109893,74.780369 59.089965,74.405833 58.082264,73.997804 L 58.207264,68.779054 L 58.051014,68.654054 L 57.832264,73.904054 C 57.45581,73.747115 57.106134,73.58255 56.738514,73.404054 L 56.488514,73.591554 C 56.926256,73.816009 57.374946,73.996345 57.832264,74.185304 L 57.801014,74.779054 L 58.051014,74.966554 L 58.082264,74.279054 C 59.079788,74.677519 60.1088,75.045333 61.144764,75.372804 L 61.144764,75.904054 L 61.394764,75.904054 L 61.394764,75.466554 C 62.306043,75.754023 63.22453,76.015917 64.113514,76.341554 L 64.051014,77.435304 L 64.426014,77.529054 L 64.457264,76.466554 C 64.867808,76.622956 65.278627,76.786985 65.676014,76.966554 L 65.676014,76.779054 C 65.283539,76.599321 64.889643,76.437306 64.488514,76.279054 L 64.582264,74.216554 L 66.269764,74.872804 C 66.269764,76.104046 66.269764,79.216554 66.269764,79.216554 L 66.613514,79.341554 C 66.613515,79.341553 66.540294,76.330875 66.519764,74.997804 L 68.863514,75.904054 L 68.894764,75.654054 L 66.519764,74.685304 C 66.517933,74.554516 66.519764,74.160081 66.519764,74.122804 L 66.269764,74.122804 C 66.269764,74.154638 66.269764,74.492296 66.269764,74.591554 L 64.582264,73.904054 L 64.738514,70.529054 L 67.863514,71.060304 L 67.832264,71.685304 L 68.082264,71.935304 L 68.113514,71.122804 L 68.926014,71.247804 L 68.957264,70.904054 L 68.113514,70.779054 L 68.269764,66.372804 L 67.988514,66.310304 z M 55.551014,68.247804 L 55.488514,74.279054 L 54.144764,72.279054 L 54.113514,68.560304 L 55.551014,68.247804 z M 53.613514,68.685304 L 53.808597,89.531275 L 48.144764,90.685304 L 47.738514,69.966554 L 53.613514,68.685304 z M 46.551014,69.247804 L 47.363514,70.060304 L 47.394764,90.497804 L 46.426014,90.060304 L 46.551014,69.247804 z M 61.363514,69.966554 L 64.426014,70.497804 L 64.269764,73.779054 L 61.394764,72.591554 L 61.363514,69.966554 z M 61.394764,72.935304 L 64.238514,74.060304 L 64.113514,76.122804 C 63.221724,75.784393 62.301857,75.485123 61.394764,75.185304 L 61.394764,72.935304 z M 54.144764,72.997804 L 55.488514,75.091554 L 69.738514,82.872804 L 69.738514,82.935304 L 71.051014,85.185304 L 69.176014,85.810304 L 67.551014,84.216554 L 65.926014,84.622804 C 65.756131,84.483587 65.595983,84.355431 65.426014,84.216554 L 66.769764,83.935304 L 64.488514,82.122804 L 63.207264,82.404054 C 63.045468,82.27231 62.899456,82.129032 62.738514,81.997804 L 64.051014,81.716554 L 61.988514,79.747804 L 60.519764,80.185304 C 60.41983,80.102454 60.306467,80.017858 60.207264,79.935304 L 61.301014,79.591554 L 59.394764,78.091554 L 58.301014,78.310304 C 58.0396,78.084948 57.772417,77.876425 57.519764,77.654054 L 58.051014,77.497804 L 56.926014,76.185304 L 56.176014,76.435304 C 55.98498,76.258752 55.796925,76.078231 55.613514,75.904054 L 55.676014,75.872804 L 56.019764,75.747804 L 55.238514,75.091554 L 54.832264,75.154054 C 54.602656,74.925538 54.358156,74.690257 54.144764,74.466554 L 54.144764,72.997804 z M 54.176014,74.872804 C 60.206142,81.180556 72.180184,89.11798 77.207264,95.904054 C 79.134302,98.505375 80.30302,101.32062 80.551014,104.1228 C 80.083942,104.23084 79.607002,104.3589 79.144764,104.46655 C 79.049178,101.38459 77.960128,98.484281 75.863514,95.654054 C 70.659218,88.628755 60.130109,81.613966 54.238514,75.435304 C 54.228545,75.424849 54.217206,75.414504 54.207264,75.404054 L 54.176014,75.372804 L 54.176014,74.872804 z M 55.176014,75.404054 L 55.582264,75.591554 L 55.363514,75.685304 C 55.27649,75.601594 55.19861,75.518427 55.113514,75.435304 L 55.176014,75.404054 z M 54.176014,75.841554 C 54.275216,75.944814 54.387089,76.05039 54.488514,76.154054 L 54.176014,76.341554 L 54.176014,75.841554 z M 54.613514,76.279054 C 54.787407,76.455552 54.964871,76.632687 55.144764,76.810304 L 54.488514,77.029054 C 54.392766,76.832176 54.284152,76.624753 54.207264,76.435304 L 54.613514,76.279054 z M 56.832264,76.435304 L 57.707264,77.341554 L 57.301014,77.435304 C 56.990248,77.159847 56.658555,76.893173 56.363514,76.622804 L 56.832264,76.435304 z M 55.363514,77.029054 C 55.598514,77.258665 55.838351,77.4852 56.082264,77.716554 L 55.019764,77.966554 C 54.893981,77.752936 54.753239,77.548531 54.644764,77.341554 L 55.363514,77.029054 z M 54.176014,77.310304 C 55.586254,80.43171 58.82399,83.763958 61.519764,87.060304 C 64.351966,90.523477 67.312453,94.208986 68.738514,97.372804 C 69.451546,98.954713 69.884214,100.44579 69.738514,101.8103 C 69.648808,102.65044 68.390153,105.18227 67.113514,107.27905 C 66.743268,107.36658 66.358716,107.44179 65.988514,107.52905 C 67.317387,106.00917 68.651944,103.48763 68.801014,102.09155 C 68.972593,100.48467 68.559929,98.806511 67.801014,97.122804 C 66.283184,93.755389 63.380771,90.270483 60.551014,86.810304 C 58.016205,83.710782 55.516847,80.646032 54.176014,77.872804 L 54.176014,77.310304 z M 56.332264,77.935304 C 56.565027,78.154125 56.81134,78.371294 57.051014,78.591554 L 55.582264,78.904054 C 55.433062,78.679706 55.310219,78.466598 55.176014,78.247804 L 56.332264,77.935304 z M 59.301014,78.372804 L 60.801014,79.497804 L 59.957264,79.716554 C 59.470912,79.310447 59.015448,78.927051 58.551014,78.529054 L 59.301014,78.372804 z M 54.269764,78.497804 C 54.371136,78.709049 54.502765,78.913153 54.613514,79.122804 L 54.269764,79.185304 L 55.144764,81.497804 L 55.894764,81.247804 C 55.959011,81.343732 55.985195,81.464308 56.051014,81.560304 L 55.207264,81.810304 L 56.363514,83.466554 L 57.332264,83.247804 C 57.438934,83.387925 57.535541,83.544374 57.644764,83.685304 L 56.332264,83.966554 L 57.988514,85.747804 L 59.113514,85.529054 C 59.271021,85.722947 59.421626,85.926177 59.582264,86.122804 L 57.894764,86.529054 L 59.488514,87.966554 L 54.269764,89.432163 L 54.176014,78.529054 L 54.269764,78.497804 z M 105.26976,78.716554 C 107.23026,79.272468 109.19328,79.850652 110.23851,80.685304 C 111.39579,81.609428 112.37383,82.755203 113.23851,84.841554 C 113.56207,85.317198 113.94174,85.691969 114.36351,86.060304 L 117.05101,88.091554 L 97.238514,93.935304 L 97.113514,93.841554 L 97.269764,93.841554 C 98.059655,92.933577 98.506333,91.550157 98.926014,90.122804 C 99.345695,88.695451 99.46349,86.908755 99.832264,86.029054 C 99.611532,84.256306 100.79048,83.20009 101.61351,81.716554 C 102.24058,80.737202 103.22603,79.898333 104.86351,78.935304 C 105.96951,80.211023 106.01511,80.714647 105.76976,82.185304 C 105.82505,83.062198 106.25834,83.872755 106.61351,84.654054 L 106.92601,84.654054 C 106.62145,83.910596 106.43342,83.070211 106.20726,82.310304 C 106.59096,80.808602 106.12725,79.682247 105.26976,78.716554 z M 57.269764,78.810304 C 57.740429,79.240125 58.215391,79.688073 58.707264,80.122804 L 56.832264,80.622804 C 56.45105,80.121925 56.099671,79.637417 55.769764,79.154054 L 57.269764,78.810304 z M 104.17601,78.935304 C 103.22058,79.520857 101.51029,80.319192 100.76976,81.154054 C 99.963542,82.413201 99.588761,83.916274 99.144764,85.966554 C 98.671419,87.229536 98.347636,88.542734 97.988514,89.841554 C 97.60453,91.147501 97.440366,92.958354 96.957264,93.716554 L 89.707264,88.279054 C 91.890028,87.576587 93.626828,86.158033 95.582264,85.029054 C 97.234176,81.419342 100.61108,79.739202 104.17601,78.935304 z M 54.769764,79.404054 C 55.051362,79.916797 55.344383,80.426104 55.676014,80.935304 L 55.301014,81.060304 L 54.582264,79.435304 L 54.769764,79.404054 z M 61.863514,80.029054 L 63.457264,81.560304 L 62.457264,81.779054 C 61.894249,81.319466 61.31648,80.856024 60.769764,80.404054 L 61.863514,80.029054 z M 58.926014,80.310304 C 59.02695,80.39917 59.105615,80.502503 59.207264,80.591554 L 57.238514,81.185304 C 57.165123,81.091491 57.091884,80.997491 57.019764,80.904054 L 58.926014,80.310304 z M 59.488514,80.841554 C 59.973451,81.264626 60.491517,81.695991 60.988514,82.122804 L 58.426014,82.654054 C 58.104096,82.262728 57.764982,81.886121 57.457264,81.497804 L 59.488514,80.841554 z M 56.301014,81.872804 C 56.556776,82.236825 56.837643,82.599263 57.113514,82.966554 L 56.519764,83.091554 L 55.707264,82.060304 L 56.301014,81.872804 z M 61.269764,82.341554 C 61.426553,82.475951 61.580943,82.613082 61.738514,82.747804 L 59.019764,83.341554 C 58.904619,83.20352 58.790365,83.073408 58.676014,82.935304 L 61.269764,82.341554 z M 64.457264,82.466554 L 66.019764,83.716554 L 65.051014,83.904054 C 64.541281,83.488273 64.056916,83.097032 63.551014,82.685304 L 64.457264,82.466554 z M 62.051014,83.029054 C 62.519879,83.429431 62.985126,83.813715 63.457264,84.216554 L 60.269764,84.872804 C 59.923882,84.462339 59.58635,84.069342 59.238514,83.654054 L 62.051014,83.029054 z M 57.863514,83.935304 C 58.175251,84.333672 58.4719,84.746558 58.801014,85.154054 L 58.082264,85.310304 L 57.051014,84.122804 L 57.863514,83.935304 z M 113.30101,84.435304 L 120.26976,88.529054 L 96.926014,95.779054 L 86.238514,87.747804 L 95.051014,84.529054 C 95.02462,84.584321 94.982852,84.629515 94.957264,84.685304 C 93.487203,85.590585 92.063777,86.351446 90.613514,87.154054 L 88.269764,88.029054 L 97.144764,94.529054 L 118.20726,88.247804 L 117.42601,87.810304 C 116.20847,86.735432 114.59366,86.164466 113.51976,84.935304 C 113.44624,84.75791 113.37213,84.606131 113.30101,84.435304 z M 67.426014,84.466554 L 68.769764,86.060304 L 67.832264,86.247804 C 67.265944,85.774945 66.717637,85.280506 66.144764,84.810304 L 67.426014,84.466554 z M 63.832264,84.529054 C 64.01406,84.684326 64.181804,84.84223 64.363514,84.997804 L 61.051014,85.779054 C 60.895663,85.593323 60.740219,85.404307 60.582264,85.216554 L 63.832264,84.529054 z M 64.582264,85.185304 C 65.119335,85.645723 65.644487,86.097772 66.176014,86.560304 L 62.301014,87.279054 C 62.178311,87.129931 62.048451,86.991267 61.926014,86.841554 C 61.706359,86.572964 61.467487,86.27249 61.238514,85.997804 L 64.582264,85.185304 z M 59.769764,86.341554 C 59.978536,86.596808 60.181628,86.830935 60.394764,87.091554 C 60.523025,87.24839 60.642599,87.403359 60.769764,87.560304 L 59.894764,87.747804 L 58.519764,86.654054 L 59.769764,86.341554 z M 66.488514,86.841554 C 66.594013,86.933741 66.695923,87.030554 66.801014,87.122804 L 62.863514,87.966554 C 62.774101,87.858435 62.671755,87.762453 62.582264,87.654054 L 66.488514,86.841554 z M 70.051014,86.904054 L 71.676014,88.654054 L 70.832264,88.810304 C 70.205739,88.256904 69.578274,87.707464 68.926014,87.154054 L 70.051014,86.904054 z M 67.238514,87.497804 C 67.847449,88.036042 68.432321,88.583259 69.019764,89.122804 L 64.488514,89.966554 C 64.052142,89.430129 63.62443,88.883521 63.176014,88.341554 L 67.238514,87.497804 z M 85.457264,87.935304 L 96.488514,96.247804 L 96.488514,96.279054 L 96.551014,102.9353 C 95.859191,103.8298 95.351487,104.88486 95.019764,105.9978 C 92.005997,104.73827 89.51055,102.56283 87.801014,99.935304 C 86.378226,95.624587 86.023877,91.87222 85.457264,87.935304 z M 61.644764,88.685304 C 62.073649,89.228596 62.488383,89.769494 62.894764,90.310304 L 61.832264,90.685304 L 60.238514,88.966554 L 61.644764,88.685304 z M 120.64476,89.029054 C 120.1397,91.962168 120.42996,95.014529 119.98851,97.904054 C 119.04896,97.398954 117.89347,97.172564 116.55101,97.247804 C 113.17587,98.271679 111.25349,101.29396 110.80101,104.6228 C 109.27378,104.91718 107.92048,105.10526 106.42601,105.27905 L 106.23851,104.9353 C 105.96447,101.60429 103.69856,100.06439 100.42601,100.2478 C 99.080932,100.65584 97.966136,101.40758 97.082264,102.34155 L 97.176014,96.279054 L 120.64476,89.029054 z M 69.363514,89.435304 C 69.623444,89.676268 69.89082,89.913017 70.144764,90.154054 L 65.676014,91.466554 C 65.419204,91.136093 65.161448,90.798343 64.894764,90.466554 L 69.363514,89.435304 z M 73.144764,89.779054 L 74.676014,91.341554 L 73.832264,91.560304 C 73.333605,91.071178 72.804476,90.584054 72.269764,90.091554 L 73.144764,89.779054 z M 70.519764,90.529054 C 71.041122,91.030431 71.562853,91.528162 72.051014,92.029054 L 67.082264,93.341554 C 66.726128,92.83216 66.348289,92.321157 65.957264,91.810304 L 70.519764,90.529054 z M 64.332264,92.279054 C 64.691927,92.798682 65.039826,93.298956 65.363514,93.810304 L 64.269764,94.091554 L 63.144764,92.622804 L 64.332264,92.279054 z M 72.394764,92.404054 C 72.588275,92.606338 72.801571,92.795726 72.988514,92.997804 L 67.801014,94.372804 C 67.673253,94.173237 67.529507,93.978596 67.394764,93.779054 L 72.394764,92.404054 z M 76.707264,92.529054 L 77.551014,93.841554 L 76.332264,94.185304 C 75.963884,93.757529 75.585357,93.337157 75.176014,92.904054 L 76.707264,92.529054 z M 73.363514,93.404054 C 73.747764,93.829585 74.10702,94.229968 74.457264,94.654054 L 68.801014,96.154054 C 68.56107,95.690481 68.304979,95.210041 68.019764,94.747804 L 73.363514,93.404054 z M 74.801014,95.091554 C 75.013809,95.358516 75.228847,95.637898 75.426014,95.904054 C 75.466266,95.958391 75.511514,96.005781 75.551014,96.060304 L 69.363514,97.341554 C 69.309266,97.2168 69.262834,97.089841 69.207264,96.966554 C 69.150345,96.840276 69.080585,96.717647 69.019764,96.591554 L 74.801014,95.091554 z M 66.207264,95.216554 C 66.480715,95.698391 66.728476,96.184487 66.957264,96.654054 L 65.988514,96.904054 L 64.894764,95.560304 L 66.207264,95.216554 z M 79.144764,95.841554 L 79.988514,97.310304 L 78.801014,97.560304 C 78.501176,97.068069 78.181431,96.578905 77.832264,96.091554 L 79.144764,95.841554 z M 86.207264,96.279054 C 86.493105,97.543828 86.823244,98.839996 87.269764,100.1853 C 88.24058,101.8493 89.46072,103.12906 90.863514,104.1853 C 90.80156,104.21707 90.740733,104.25085 90.676014,104.27905 C 87.469893,104.7557 85.723876,102.27959 85.332264,99.497804 C 85.388521,98.35659 85.721516,97.275653 86.207264,96.279054 z M 75.832264,96.497804 C 76.169689,96.992047 76.493142,97.491124 76.769764,97.997804 L 70.144764,99.435304 C 69.986077,98.881919 69.776522,98.326286 69.551014,97.779054 L 75.832264,96.497804 z M 116.98851,97.716554 C 119.84431,97.625535 121.58707,100.161 121.95726,102.77905 C 121.79796,106.08207 119.52108,108.73485 116.55101,110.02905 C 113.34489,110.5057 111.59887,108.02959 111.20726,105.2478 C 111.36886,101.96963 113.47762,99.067264 116.42601,97.779054 C 116.62645,97.748961 116.79812,97.722622 116.98851,97.716554 z M 67.613514,98.154054 C 67.821494,98.71219 68.015887,99.277984 68.144764,99.841554 L 66.801014,100.1228 L 66.582264,98.372804 L 67.613514,98.154054 z M 77.019764,98.529054 C 78.005409,100.49691 78.563015,102.53399 78.644764,104.5603 C 77.026265,104.93804 75.483083,105.31291 73.894764,105.6853 L 73.426014,104.71655 L 69.644764,104.84155 L 70.363514,106.4978 C 69.539468,106.69201 68.678903,106.89847 67.863514,107.09155 C 69.143327,105.20147 70.355713,103.0426 70.457264,102.09155 C 70.529798,101.41225 70.439656,100.6986 70.269764,99.966554 L 77.019764,98.529054 z M 117.17601,98.529054 C 115.82582,98.60719 114.69142,99.626673 113.45726,100.9978 C 112.16714,103.90107 111.68126,105.7843 113.39476,108.2478 C 116.11893,110.26503 117.79637,109.04406 119.76976,106.8728 C 121.05702,104.0832 121.60946,102.06491 119.89476,99.560304 C 118.86802,98.799012 117.98612,98.482172 117.17601,98.529054 z M 117.08226,99.091554 C 117.80377,99.055328 118.5675,99.26177 119.36351,99.747804 C 121.20936,101.87856 120.57466,104.38907 119.36351,106.65405 C 117.86908,108.59888 115.98244,109.30576 113.86351,107.9978 C 112.02432,105.8617 112.64612,103.35714 113.86351,101.09155 C 114.79461,99.870284 115.87974,99.15193 117.08226,99.091554 z M 77.051014,99.872804 L 70.957264,101.27905 L 70.676014,103.8103 L 78.113514,102.6853 L 77.051014,99.872804 z M 76.894764,100.3728 L 77.488514,102.2478 L 71.176014,103.21655 L 71.332264,101.6228 L 76.894764,100.3728 z M 100.86351,100.71655 C 103.71931,100.62553 105.46207,103.161 105.83226,105.77905 C 105.67748,108.98825 103.52234,111.57218 100.67601,112.90405 L 99.676014,113.09155 C 97.969323,113.10112 96.756755,112.20141 95.988514,110.90405 C 95.834866,110.64458 95.699364,110.37913 95.582264,110.09155 C 95.348063,109.51639 95.172254,108.88704 95.082264,108.2478 C 95.243864,104.96963 97.352624,102.06726 100.30101,100.77905 C 100.50145,100.74896 100.67313,100.72262 100.86351,100.71655 z M 101.05101,101.52905 C 99.700827,101.60719 98.566428,102.62667 97.332264,103.9978 C 96.042142,106.90107 95.556259,108.7843 97.269764,111.2478 C 99.993936,113.26503 101.67137,112.04406 103.64476,109.8728 C 104.93202,107.0832 105.48446,105.06491 103.76976,102.5603 C 102.74303,101.79901 101.86113,101.48217 101.05101,101.52905 z M 116.80101,101.71655 C 116.20377,101.78003 115.71564,102.21344 115.14476,102.77905 C 114.40119,103.90362 114.61764,104.69812 115.14476,105.77905 C 116.36372,106.50802 117.10546,105.96224 118.01976,105.0603 C 118.76333,103.93573 118.54688,103.14123 118.01976,102.0603 C 117.5619,101.78841 117.15935,101.67846 116.80101,101.71655 z M 116.64476,101.96655 C 117.06629,101.97785 117.47328,102.20965 117.67601,102.27905 C 118.17874,102.96869 117.77074,104.125 117.55101,104.84155 C 117.18911,105.56892 116.11222,105.52888 115.67601,105.59155 C 115.17465,104.90035 115.32997,103.58926 115.55101,102.8728 C 115.79269,102.14375 116.22323,101.95525 116.64476,101.96655 z M 100.95726,102.09155 C 101.67877,102.05532 102.4425,102.26177 103.23851,102.7478 C 105.08436,104.87856 104.44966,107.38907 103.23851,109.65405 C 101.74408,111.59888 99.85744,112.30576 97.738514,110.9978 C 95.899323,108.8617 96.521122,106.35714 97.738514,104.09155 C 98.669608,102.87028 99.754745,102.15193 100.95726,102.09155 z M 83.863514,102.96655 L 84.051014,103.34155 C 83.325395,103.50677 82.582524,103.64466 81.863514,103.8103 L 81.644764,103.27905 L 83.863514,102.96655 z M 86.051014,103.27905 C 86.60974,103.92201 87.329568,104.36749 88.207264,104.6228 C 85.82851,105.10333 83.460265,105.61743 81.113514,106.15405 C 81.153549,105.5853 81.180461,105.02273 81.144764,104.46655 C 82.775622,104.07302 84.341744,103.68394 86.051014,103.27905 z M 80.582264,104.59155 C 80.611588,105.16358 80.60196,105.74402 80.551014,106.3103 C 80.050364,106.42559 79.550653,106.53707 79.051014,106.65405 C 79.119777,106.07437 79.174761,105.50166 79.176014,104.9353 C 79.636448,104.82364 80.116735,104.70406 80.582264,104.59155 z M 91.426014,104.59155 C 91.77289,104.82995 92.123455,105.06285 92.488514,105.27905 L 94.769764,109.8728 C 94.971133,110.75329 95.326433,111.49035 95.832264,112.0603 L 92.988514,112.5603 L 89.582264,104.8728 C 89.932639,104.89609 90.297289,104.89527 90.676014,104.8728 C 90.941613,104.79354 91.18095,104.68899 91.426014,104.59155 z M 100.67601,104.71655 C 100.07877,104.78003 99.590646,105.21344 99.019764,105.77905 C 98.276187,106.90362 98.49264,107.69812 99.019764,108.77905 C 100.23872,109.50802 100.98046,108.96224 101.89476,108.0603 C 102.63834,106.93573 102.42189,106.14123 101.89476,105.0603 C 101.43691,104.78841 101.03436,104.67846 100.67601,104.71655 z M 100.51976,104.96655 C 100.9413,104.97785 101.34828,105.20965 101.55101,105.27905 C 102.05375,105.96869 101.64574,107.125 101.42601,107.84155 C 101.06411,108.56892 99.987217,108.52888 99.551014,108.59155 C 99.049648,107.90035 99.204965,106.58926 99.426014,105.8728 C 99.667697,105.14375 100.09823,104.95525 100.51976,104.96655 z M 89.051014,104.9978 L 92.238514,112.6853 L 89.676014,113.15405 L 86.082264,105.6853 C 87.070464,105.45079 88.060836,105.23229 89.051014,104.9978 z M 78.676014,105.0603 C 78.677455,105.61051 78.650106,106.17273 78.582264,106.71655 C 78.579786,106.73642 78.584857,106.75917 78.582264,106.77905 C 74.277123,107.7917 69.990363,108.83683 65.707264,109.8728 C 66.176302,109.39722 66.753796,108.66293 67.363514,107.8103 C 71.053232,106.92033 74.808916,105.99907 78.676014,105.0603 z M 73.176014,105.21655 L 73.426014,105.77905 C 72.643231,105.96269 71.857544,106.15905 71.082264,106.34155 L 70.707264,105.4353 L 73.176014,105.21655 z M 110.70726,105.3728 C 110.72972,107.05368 111.23656,108.31135 112.08226,109.1853 L 111.01976,109.3728 L 109.45726,105.59155 C 109.86861,105.51953 110.26444,105.45538 110.70726,105.3728 z M 108.73851,105.71655 L 110.30101,109.4978 L 108.61351,109.8103 L 106.76976,105.9978 C 107.4402,105.91981 108.10052,105.8207 108.73851,105.71655 z M 93.363514,105.7478 C 93.865833,106.01404 94.366346,106.26567 94.894764,106.4978 C 94.758913,107.05184 94.665959,107.61248 94.613514,108.1853 L 93.363514,105.7478 z M 85.269764,105.8728 L 88.894764,113.27905 L 86.051014,113.77905 L 82.957264,106.4353 C 83.728571,106.25253 84.498227,106.05589 85.269764,105.8728 z M 106.17601,106.21655 L 107.95726,109.9353 L 104.83226,110.46655 L 104.73851,110.2478 C 105.48753,109.05331 105.98161,107.6732 106.17601,106.21655 z M 82.644764,106.4978 L 85.457264,113.90405 C 82.965977,114.38104 80.479791,114.74625 78.551014,115.09155 L 78.019764,114.0603 C 80.608275,111.51958 80.685508,110.06258 81.082264,106.8728 C 81.603237,106.74969 82.123976,106.62116 82.644764,106.4978 z M 80.488514,106.9978 C 80.174912,109.61793 80.053498,111.17135 77.832264,113.65405 L 77.051014,112.09155 C 78.036304,110.51543 78.645427,108.95096 78.926014,107.3728 C 79.446925,107.25004 79.967475,107.12085 80.488514,106.9978 z M 64.332264,107.21655 L 64.644764,107.84155 C 63.841445,108.03007 63.014112,108.21657 62.207264,108.40405 L 61.769764,107.3728 L 64.332264,107.21655 z M 78.457264,107.4978 C 78.192264,108.83329 77.65261,110.18693 76.801014,111.59155 L 75.176014,108.2478 C 76.268581,107.99253 77.364509,107.75515 78.457264,107.4978 z M 55.832264,108.0603 L 58.082264,108.09155 L 58.644764,109.21655 C 57.931542,109.3787 57.24106,109.55534 56.519764,109.71655 L 55.832264,108.0603 z M 74.644764,108.3728 L 76.426014,112.15405 C 75.870353,112.99313 75.22058,113.85131 74.426014,114.71655 L 72.144764,108.96655 C 72.978921,108.77342 73.810692,108.56739 74.644764,108.3728 z M 71.426014,109.1228 L 73.957264,115.21655 C 73.687125,115.49559 73.41002,115.77847 73.113514,116.0603 L 69.457264,116.71655 L 66.332264,110.3103 C 68.032948,109.92516 69.726754,109.5153 71.426014,109.1228 z M 52.144764,109.2478 L 52.769764,110.52905 C 52.072607,110.67938 51.385008,110.84844 50.676014,110.9978 L 49.988514,109.3728 L 52.144764,109.2478 z M 112.64476,109.6853 C 113.14795,110.04394 113.73186,110.3131 114.39476,110.46655 L 102.67601,112.5603 C 103.21164,112.17945 103.66626,111.71191 104.08226,111.21655 L 112.64476,109.6853 z M 70.488514,110.02905 L 67.707264,110.7478 L 69.988514,116.15405 L 72.707264,115.59155 L 70.488514,110.02905 z M 120.51976,110.1228 L 120.80101,110.77905 L 118.08226,111.34155 L 117.80101,110.6228 L 120.51976,110.1228 z M 65.832264,110.40405 L 68.863514,116.8103 L 65.863514,117.34155 L 63.269764,110.9978 C 64.125906,110.80666 64.976742,110.59737 65.832264,110.40405 z M 70.051014,110.77905 L 71.957264,115.21655 L 70.426014,115.71655 L 68.394764,111.1228 L 70.051014,110.77905 z M 115.11351,111.09155 L 115.42601,111.6228 L 112.30101,112.3728 L 111.98851,111.6228 L 115.11351,111.09155 z M 62.582264,111.15405 L 65.176014,117.46655 L 63.582264,117.7478 L 60.551014,111.59155 C 61.227115,111.44274 61.90666,111.30436 62.582264,111.15405 z M 82.426014,111.59155 L 79.644764,112.3103 L 80.801014,114.46655 L 83.519764,113.90405 L 82.426014,111.59155 z M 59.894764,111.7478 L 62.926014,117.8728 L 60.082264,118.3728 L 57.551014,112.2478 C 58.331806,112.07892 59.114773,111.91885 59.894764,111.7478 z M 109.08226,112.15405 L 109.20726,112.4353 L 105.92601,113.1228 L 105.76976,112.71655 L 109.08226,112.15405 z M 81.988514,112.34155 L 82.769764,113.52905 L 81.238514,114.02905 L 80.332264,112.6853 L 81.988514,112.34155 z M 56.957264,112.3728 L 59.332264,118.4978 L 57.582264,118.8103 L 54.551014,112.8728 C 55.352925,112.70267 56.156349,112.5454 56.957264,112.3728 z M 76.676014,112.6853 L 77.394764,114.15405 C 76.974239,114.59186 76.485377,115.05278 75.926014,115.5603 L 74.863514,115.7478 L 74.613514,115.1853 C 75.41204,114.34117 76.108574,113.51155 76.676014,112.6853 z M 95.801014,112.71655 L 97.519764,113.59155 L 71.582264,118.02905 L 73.519764,116.46655 L 95.801014,112.71655 z M 54.019764,112.9978 L 56.957264,118.90405 L 54.207264,119.40405 L 51.707264,113.46655 C 52.476799,113.30654 53.251281,113.16025 54.019764,112.9978 z M 103.23851,113.15405 L 103.55101,113.8103 L 100.17601,114.59155 L 99.832264,113.77905 L 103.23851,113.15405 z M 96.957264,114.27905 L 97.207264,114.77905 L 94.269764,115.46655 L 93.957264,114.77905 L 96.957264,114.27905 z M 77.551014,114.52905 L 77.894764,115.21655 L 76.488514,115.46655 C 76.887534,115.12902 77.224966,114.83081 77.551014,114.52905 z M 89.957264,115.4978 L 90.238514,116.0603 L 87.207264,116.5603 L 86.988514,116.02905 L 89.957264,115.4978 z M 74.144764,115.6853 L 74.207264,115.8728 L 73.894764,115.9353 C 73.981823,115.85017 74.060185,115.77017 74.144764,115.6853 z M 78.926014,117.4353 L 79.207264,118.02905 L 76.082264,118.8103 L 75.769764,117.9978 L 78.926014,117.4353 z M 69.926014,119.02905 L 70.269764,119.7478 L 67.144764,120.4353 L 66.801014,119.5603 L 69.926014,119.02905 z M 64.019764,120.0603 L 64.269764,120.5603 L 61.301014,121.34155 L 60.988514,120.59155 L 64.019764,120.0603 z M 58.051014,121.09155 L 58.519764,122.0603 L 55.644764,122.84155 L 55.113514,121.6228 L 58.051014,121.09155 z"
       id="path2496"
       sodipodi:nodetypes="ccccccccccccccccccccscccccccccccsccccsccccccsccccccsccccccccccscccccccccccsccccccccccccccccccsccccscccccccccccccccccccccccccccccccccccccccccccccccccccccccccccccccccccccccccccccccccccccccccccccccccccccccccccccccccscccccccccccccccccccccccccccccccccccccccccccccccccccccccccccccccccccccccccccccccccccccccccccccccccccccccccccccccccccccccccccccccccccccccccccccccccccccccsccssccccccccccccccccccccccccccccsssccsssccccccccccccccccccccccccccccccccsccccccsccccccccccccccccccccccccccccccccccccccccccccccccccccccccccccccccccccccccccccccccccccccccccccscccscccccccccccccccccccccccccccccccccccccccccccccccccccccccccccccccccccccccccccccsccscccccccccccccccccccccccccccccccccccccccccsccccccccccccccccccccccccccccssccccccccccccccccccccccccccccccccccccccccccccccccccccccccccccccccccccsccccccccccccccccccccccccccccccccccccccccccccccccccccccccccccccccccccccccccccccccccccccccccccccccccccccccccccccccccccccccccccccccccccccccccccccccccccccccccccccccccccccccccccccccccccccccccccccccc" />
    <path
       style="fill:none;fill-rule:evenodd;stroke:#000000;stroke-width:1px;stroke-linecap:butt;stroke-linejoin:miter;stroke-opacity:1"
       id="path2372"
       sodipodi:nodetypes="cs"
       d="" />
  </g>
</svg>
