<?xml version="1.0" encoding="UTF-8" standalone="no"?>
<!-- Created with Inkscape (http://www.inkscape.org/) -->
<svg
   xmlns:dc="http://purl.org/dc/elements/1.1/"
   xmlns:cc="http://creativecommons.org/ns#"
   xmlns:rdf="http://www.w3.org/1999/02/22-rdf-syntax-ns#"
   xmlns:svg="http://www.w3.org/2000/svg"
   xmlns="http://www.w3.org/2000/svg"
   xmlns:xlink="http://www.w3.org/1999/xlink"
   xmlns:sodipodi="http://sodipodi.sourceforge.net/DTD/sodipodi-0.dtd"
   xmlns:inkscape="http://www.inkscape.org/namespaces/inkscape"
   width="128"
   height="128"
   id="svg2"
   sodipodi:version="0.32"
   inkscape:version="0.45+devel"
   version="1.0"
   sodipodi:docname="ruins.svg"
   inkscape:output_extension="org.inkscape.output.svg.inkscape">
  <defs
     id="defs4">
    <linearGradient
       id="linearGradient2338">
      <stop
         style="stop-color:#b1b1b1;stop-opacity:1;"
         offset="0"
         id="stop2340" />
      <stop
         style="stop-color:#e4e4e4;stop-opacity:1;"
         offset="1"
         id="stop2342" />
    </linearGradient>
    <linearGradient
       inkscape:collect="always"
       xlink:href="#linearGradient2338"
       id="linearGradient2705"
       x1="89.531189"
       y1="114.97395"
       x2="95.21862"
       y2="122.31257"
       gradientUnits="userSpaceOnUse" />
    <linearGradient
       inkscape:collect="always"
       xlink:href="#linearGradient2338"
       id="linearGradient2709"
       x1="96.564034"
       y1="113.87315"
       x2="98.398689"
       y2="103.47678"
       gradientUnits="userSpaceOnUse" />
    <linearGradient
       inkscape:collect="always"
       xlink:href="#linearGradient2338"
       id="linearGradient2713"
       x1="99.010239"
       y1="118.88788"
       x2="104.20843"
       y2="108.98074"
       gradientUnits="userSpaceOnUse" />
    <linearGradient
       inkscape:collect="always"
       xlink:href="#linearGradient2338"
       id="linearGradient2717"
       x1="62.011353"
       y1="98.706665"
       x2="106.47117"
       y2="71.309151"
       gradientUnits="userSpaceOnUse" />
    <linearGradient
       inkscape:collect="always"
       xlink:href="#linearGradient2338"
       id="linearGradient2721"
       x1="51.370352"
       y1="84.640976"
       x2="54.733887"
       y2="96.015839"
       gradientUnits="userSpaceOnUse" />
    <linearGradient
       inkscape:collect="always"
       xlink:href="#linearGradient2338"
       id="linearGradient2725"
       x1="63.173302"
       y1="81.522064"
       x2="62.989838"
       y2="80.727043"
       gradientUnits="userSpaceOnUse" />
    <linearGradient
       inkscape:collect="always"
       xlink:href="#linearGradient2338"
       id="linearGradient2729"
       x1="76.015892"
       y1="80.7882"
       x2="76.138199"
       y2="80.390694"
       gradientUnits="userSpaceOnUse" />
    <linearGradient
       inkscape:collect="always"
       xlink:href="#linearGradient2338"
       id="linearGradient2733"
       x1="84.761078"
       y1="77.36351"
       x2="85.708984"
       y2="78.586617"
       gradientUnits="userSpaceOnUse" />
    <linearGradient
       inkscape:collect="always"
       xlink:href="#linearGradient2338"
       id="linearGradient2737"
       x1="97.725983"
       y1="75.590004"
       x2="97.909447"
       y2="74.856148"
       gradientUnits="userSpaceOnUse" />
    <linearGradient
       inkscape:collect="always"
       xlink:href="#linearGradient2338"
       id="linearGradient2741"
       x1="113.01478"
       y1="79.503944"
       x2="113.07593"
       y2="78.586617"
       gradientUnits="userSpaceOnUse" />
    <linearGradient
       inkscape:collect="always"
       xlink:href="#linearGradient2338"
       id="linearGradient2745"
       x1="34.613834"
       y1="95.771217"
       x2="36.815418"
       y2="105.06681"
       gradientUnits="userSpaceOnUse" />
    <linearGradient
       inkscape:collect="always"
       xlink:href="#linearGradient2338"
       id="linearGradient2749"
       x1="33.390728"
       y1="102.13136"
       x2="34.185745"
       y2="102.31483"
       gradientUnits="userSpaceOnUse" />
    <linearGradient
       inkscape:collect="always"
       xlink:href="#linearGradient2338"
       id="linearGradient2753"
       x1="38.160831"
       y1="96.780281"
       x2="38.588921"
       y2="102.71233"
       gradientUnits="userSpaceOnUse" />
    <linearGradient
       inkscape:collect="always"
       xlink:href="#linearGradient2338"
       id="linearGradient2757"
       x1="19.997744"
       y1="83.601341"
       x2="33.451885"
       y2="109.65344"
       gradientUnits="userSpaceOnUse" />
    <linearGradient
       inkscape:collect="always"
       xlink:href="#linearGradient2338"
       id="linearGradient2761"
       x1="12.903743"
       y1="77.241203"
       x2="11.925261"
       y2="78.586617"
       gradientUnits="userSpaceOnUse" />
    <linearGradient
       inkscape:collect="always"
       xlink:href="#linearGradient2338"
       id="linearGradient2765"
       x1="26.480194"
       y1="80.543579"
       x2="26.052107"
       y2="81.39975"
       gradientUnits="userSpaceOnUse" />
    <linearGradient
       inkscape:collect="always"
       xlink:href="#linearGradient2338"
       id="linearGradient2769"
       x1="40.545883"
       y1="100.11324"
       x2="41.646679"
       y2="100.05209"
       gradientUnits="userSpaceOnUse" />
    <linearGradient
       inkscape:collect="always"
       xlink:href="#linearGradient2338"
       id="linearGradient2773"
       x1="43.90942"
       y1="104.33295"
       x2="43.236713"
       y2="104.82219"
       gradientUnits="userSpaceOnUse" />
    <linearGradient
       inkscape:collect="always"
       xlink:href="#linearGradient2338"
       id="linearGradient2777"
       x1="39.017006"
       y1="84.946754"
       x2="53.633095"
       y2="98.828979"
       gradientUnits="userSpaceOnUse" />
    <linearGradient
       inkscape:collect="always"
       xlink:href="#linearGradient2338"
       id="linearGradient2781"
       x1="37.18235"
       y1="64.337456"
       x2="41.952454"
       y2="69.413338"
       gradientUnits="userSpaceOnUse" />
    <linearGradient
       inkscape:collect="always"
       xlink:href="#linearGradient2338"
       id="linearGradient2785"
       x1="17.490381"
       y1="42.19928"
       x2="21.159693"
       y2="47.580936"
       gradientUnits="userSpaceOnUse" />
    <linearGradient
       inkscape:collect="always"
       xlink:href="#linearGradient2338"
       id="linearGradient2789"
       x1="28.192539"
       y1="47.458626"
       x2="32.534557"
       y2="42.749676"
       gradientUnits="userSpaceOnUse" />
    <linearGradient
       inkscape:collect="always"
       xlink:href="#linearGradient2338"
       id="linearGradient2793"
       x1="23.667055"
       y1="43.055454"
       x2="22.657995"
       y2="36.083763"
       gradientUnits="userSpaceOnUse" />
    <linearGradient
       inkscape:collect="always"
       xlink:href="#linearGradient2338"
       id="linearGradient2797"
       x1="49.413383"
       y1="60.698723"
       x2="50.086094"
       y2="56.876526"
       gradientUnits="userSpaceOnUse" />
    <linearGradient
       inkscape:collect="always"
       xlink:href="#linearGradient2338"
       id="linearGradient2801"
       x1="43.359024"
       y1="58.894646"
       x2="45.92754"
       y2="56.998837"
       gradientUnits="userSpaceOnUse" />
    <linearGradient
       inkscape:collect="always"
       xlink:href="#linearGradient2338"
       id="linearGradient2805"
       x1="41.432636"
       y1="59.781395"
       x2="41.952454"
       y2="61.616051"
       gradientUnits="userSpaceOnUse" />
    <linearGradient
       inkscape:collect="always"
       xlink:href="#linearGradient2338"
       id="linearGradient2809"
       x1="38.833542"
       y1="61.830093"
       x2="39.506248"
       y2="59.934284"
       gradientUnits="userSpaceOnUse" />
    <linearGradient
       inkscape:collect="always"
       xlink:href="#linearGradient2338"
       id="linearGradient2813"
       x1="35.653469"
       y1="60.912766"
       x2="37.243504"
       y2="58.650024"
       gradientUnits="userSpaceOnUse" />
    <linearGradient
       inkscape:collect="always"
       xlink:href="#linearGradient2338"
       id="linearGradient2817"
       x1="33.635349"
       y1="58.160782"
       x2="34.246902"
       y2="57.182301"
       gradientUnits="userSpaceOnUse" />
    <linearGradient
       inkscape:collect="always"
       xlink:href="#linearGradient2338"
       id="linearGradient2821"
       x1="29.537952"
       y1="56.570749"
       x2="32.412247"
       y2="56.081505"
       gradientUnits="userSpaceOnUse" />
    <linearGradient
       inkscape:collect="always"
       xlink:href="#linearGradient2338"
       id="linearGradient2825"
       x1="30.944521"
       y1="53.512989"
       x2="31.739538"
       y2="55.103024"
       gradientUnits="userSpaceOnUse" />
    <linearGradient
       inkscape:collect="always"
       xlink:href="#linearGradient2338"
       id="linearGradient2829"
       x1="31.984159"
       y1="52.35104"
       x2="34.246902"
       y2="49.293282"
       gradientUnits="userSpaceOnUse" />
    <linearGradient
       inkscape:collect="always"
       xlink:href="#linearGradient2338"
       id="linearGradient2833"
       x1="37.610435"
       y1="52.35104"
       x2="38.344299"
       y2="51.433712"
       gradientUnits="userSpaceOnUse" />
    <linearGradient
       inkscape:collect="always"
       xlink:href="#linearGradient2338"
       id="linearGradient2837"
       x1="38.772385"
       y1="49.843678"
       x2="38.894695"
       y2="51.61718"
       gradientUnits="userSpaceOnUse" />
    <linearGradient
       inkscape:collect="always"
       xlink:href="#linearGradient2338"
       id="linearGradient2841"
       x1="41.8913"
       y1="49.782524"
       x2="41.830143"
       y2="49.109818"
       gradientUnits="userSpaceOnUse" />
    <linearGradient
       inkscape:collect="always"
       xlink:href="#linearGradient2338"
       id="linearGradient2845"
       x1="45.621765"
       y1="54.308006"
       x2="48.067974"
       y2="53.146057"
       gradientUnits="userSpaceOnUse" />
    <linearGradient
       inkscape:collect="always"
       xlink:href="#linearGradient2338"
       id="linearGradient2849"
       x1="39.383938"
       y1="59.445042"
       x2="43.359024"
       y2="54.552628"
       gradientUnits="userSpaceOnUse" />
    <linearGradient
       inkscape:collect="always"
       xlink:href="#linearGradient2338"
       id="linearGradient2853"
       x1="34.736141"
       y1="54.552628"
       x2="42.319386"
       y2="50.516384"
       gradientUnits="userSpaceOnUse" />
    <linearGradient
       inkscape:collect="always"
       xlink:href="#linearGradient2338"
       id="linearGradient2857"
       x1="67.759941"
       y1="31.252504"
       x2="67.637627"
       y2="26.482399"
       gradientUnits="userSpaceOnUse" />
    <linearGradient
       inkscape:collect="always"
       xlink:href="#linearGradient2338"
       id="linearGradient2861"
       x1="69.716904"
       y1="33.270626"
       x2="73.080444"
       y2="26.543554"
       gradientUnits="userSpaceOnUse" />
    <linearGradient
       inkscape:collect="always"
       xlink:href="#linearGradient2338"
       id="linearGradient2865"
       x1="62.745216"
       y1="31.8029"
       x2="67.821098"
       y2="36.02261"
       gradientUnits="userSpaceOnUse" />
    <linearGradient
       inkscape:collect="always"
       xlink:href="#linearGradient2338"
       id="linearGradient2871"
       x1="35.89809"
       y1="25.136986"
       x2="35.77578"
       y2="25.932003"
       gradientUnits="userSpaceOnUse" />
    <linearGradient
       inkscape:collect="always"
       xlink:href="#linearGradient2338"
       id="linearGradient2875"
       x1="45.19368"
       y1="28.133589"
       x2="43.970573"
       y2="29.540159"
       gradientUnits="userSpaceOnUse" />
    <linearGradient
       inkscape:collect="always"
       xlink:href="#linearGradient2338"
       id="linearGradient2879"
       x1="52.899231"
       y1="34.249107"
       x2="53.510784"
       y2="32.659073"
       gradientUnits="userSpaceOnUse" />
    <linearGradient
       inkscape:collect="always"
       xlink:href="#linearGradient2338"
       id="linearGradient2883"
       x1="58.953594"
       y1="37.918419"
       x2="60.115543"
       y2="36.817623"
       gradientUnits="userSpaceOnUse" />
    <linearGradient
       inkscape:collect="always"
       xlink:href="#linearGradient2338"
       id="linearGradient2887"
       x1="64.702179"
       y1="39.875385"
       x2="64.029472"
       y2="40.915024"
       gradientUnits="userSpaceOnUse" />
    <linearGradient
       inkscape:collect="always"
       xlink:href="#linearGradient2338"
       id="linearGradient2893"
       x1="51.492664"
       y1="35.411057"
       x2="67.393013"
       y2="66.600197"
       gradientUnits="userSpaceOnUse" />
    <linearGradient
       inkscape:collect="always"
       xlink:href="#linearGradient2338"
       id="linearGradient2897"
       x1="67.148384"
       y1="39.263832"
       x2="79.501732"
       y2="62.747421"
       gradientUnits="userSpaceOnUse" />
    <linearGradient
       inkscape:collect="always"
       xlink:href="#linearGradient2338"
       id="linearGradient2901"
       x1="74.97625"
       y1="44.156246"
       x2="74.120079"
       y2="45.440506"
       gradientUnits="userSpaceOnUse" />
    <linearGradient
       inkscape:collect="always"
       xlink:href="#linearGradient2338"
       id="linearGradient2905"
       x1="80.174446"
       y1="54.002232"
       x2="81.764481"
       y2="53.6353"
       gradientUnits="userSpaceOnUse" />
    <linearGradient
       inkscape:collect="always"
       xlink:href="#linearGradient2338"
       id="linearGradient2909"
       x1="83.476822"
       y1="61.76894"
       x2="82.498337"
       y2="62.135868"
       gradientUnits="userSpaceOnUse" />
    <linearGradient
       inkscape:collect="always"
       xlink:href="#linearGradient2338"
       id="linearGradient2913"
       x1="61.155182"
       y1="52.901436"
       x2="61.705578"
       y2="53.207214"
       gradientUnits="userSpaceOnUse" />
    <linearGradient
       inkscape:collect="always"
       xlink:href="#linearGradient2338"
       id="linearGradient2917"
       x1="63.540234"
       y1="45.562817"
       x2="65.130264"
       y2="46.235523"
       gradientUnits="userSpaceOnUse" />
    <linearGradient
       inkscape:collect="always"
       xlink:href="#linearGradient2338"
       id="linearGradient2921"
       x1="79.685204"
       y1="33.270626"
       x2="80.174446"
       y2="34.187954"
       gradientUnits="userSpaceOnUse" />
    <linearGradient
       inkscape:collect="always"
       xlink:href="#linearGradient2338"
       id="linearGradient2925"
       x1="75.404343"
       y1="39.263832"
       x2="92.833565"
       y2="46.663609"
       gradientUnits="userSpaceOnUse" />
    <linearGradient
       inkscape:collect="always"
       xlink:href="#linearGradient2338"
       id="linearGradient2929"
       x1="106.2877"
       y1="25.44276"
       x2="105.7373"
       y2="26.237778"
       gradientUnits="userSpaceOnUse" />
    <linearGradient
       inkscape:collect="always"
       xlink:href="#linearGradient2338"
       id="linearGradient2935"
       x1="114.11557"
       y1="31.252504"
       x2="112.89246"
       y2="31.650011"
       gradientUnits="userSpaceOnUse" />
    <linearGradient
       inkscape:collect="always"
       xlink:href="#linearGradient2338"
       id="linearGradient2939"
       x1="114.66596"
       y1="36.695316"
       x2="115.1552"
       y2="36.695316"
       gradientUnits="userSpaceOnUse" />
    <linearGradient
       inkscape:collect="always"
       xlink:href="#linearGradient2338"
       id="linearGradient2943"
       x1="107.63312"
       y1="30.0294"
       x2="106.34886"
       y2="39.569607"
       gradientUnits="userSpaceOnUse" />
    <linearGradient
       inkscape:collect="always"
       xlink:href="#linearGradient2338"
       id="linearGradient2947"
       x1="100.78374"
       y1="33.637554"
       x2="112.21976"
       y2="46.724766"
       gradientUnits="userSpaceOnUse" />
    <linearGradient
       inkscape:collect="always"
       xlink:href="#linearGradient2338"
       id="linearGradient2955"
       x1="99.438324"
       y1="24.158503"
       x2="98.673882"
       y2="24.708899"
       gradientUnits="userSpaceOnUse" />
    <linearGradient
       inkscape:collect="always"
       xlink:href="#linearGradient2338"
       id="linearGradient2959"
       x1="101.57876"
       y1="27.522038"
       x2="100.78374"
       y2="27.705503"
       gradientUnits="userSpaceOnUse" />
    <linearGradient
       inkscape:collect="always"
       xlink:href="#linearGradient2338"
       id="linearGradient2963"
       x1="105.98193"
       y1="31.313658"
       x2="105.67616"
       y2="32.536762"
       gradientUnits="userSpaceOnUse" />
    <linearGradient
       inkscape:collect="always"
       xlink:href="#linearGradient2338"
       id="linearGradient2967"
       x1="111.91398"
       y1="36.083763"
       x2="110.9355"
       y2="36.75647"
       gradientUnits="userSpaceOnUse" />
    <linearGradient
       inkscape:collect="always"
       xlink:href="#linearGradient2338"
       id="linearGradient2971"
       x1="109.34547"
       y1="46.235523"
       x2="116.01138"
       y2="59.873127"
       gradientUnits="userSpaceOnUse" />
    <linearGradient
       inkscape:collect="always"
       xlink:href="#linearGradient2338"
       id="linearGradient2975"
       x1="110.9355"
       y1="40.364624"
       x2="110.17106"
       y2="40.548092"
       gradientUnits="userSpaceOnUse" />
    <linearGradient
       inkscape:collect="always"
       xlink:href="#linearGradient2338"
       id="linearGradient2979"
       x1="115.82791"
       y1="48.009022"
       x2="114.84943"
       y2="48.681728"
       gradientUnits="userSpaceOnUse" />
    <linearGradient
       inkscape:collect="always"
       xlink:href="#linearGradient2338"
       id="linearGradient2983"
       x1="120.23109"
       y1="58.894646"
       x2="121.5765"
       y2="58.711182"
       gradientUnits="userSpaceOnUse" />
    <filter
       inkscape:collect="always"
       id="filter3633">
      <feGaussianBlur
         inkscape:collect="always"
         stdDeviation="2.1484375"
         id="feGaussianBlur3635" />
    </filter>
  </defs>
  <sodipodi:namedview
     id="base"
     pagecolor="#ffffff"
     bordercolor="#666666"
     borderopacity="1.0"
     gridtolerance="10000"
     guidetolerance="10"
     objecttolerance="10"
     inkscape:pageopacity="0.0"
     inkscape:pageshadow="2"
     inkscape:zoom="1"
     inkscape:cx="64"
     inkscape:cy="64"
     inkscape:document-units="px"
     inkscape:current-layer="layer2"
     showgrid="false"
     width="744.09px"
     inkscape:window-width="1248"
     inkscape:window-height="975"
     inkscape:window-x="426"
     inkscape:window-y="24"
     showguides="true"
     inkscape:guide-bbox="true" />
  <metadata
     id="metadata7">
    <rdf:RDF>
      <cc:Work
         rdf:about="">
        <dc:format>image/svg+xml</dc:format>
        <dc:type
           rdf:resource="http://purl.org/dc/dcmitype/StillImage" />
      </cc:Work>
    </rdf:RDF>
  </metadata>
  <g
     inkscape:groupmode="layer"
     id="layer2"
     inkscape:label="colors">
    <path
       style="fill:#000000;fill-rule:evenodd;stroke:none;stroke-width:1px;stroke-linecap:butt;stroke-linejoin:miter;stroke-opacity:1;fill-opacity:0.66666669000000001;filter:url(#filter3633)"
       d="M 30.09375 24.21875 L 26.28125 25.78125 L 63.46875 49.3125 L 57.4375 55.6875 L 58.96875 56.375 L 67.28125 54.125 L 81.46875 65.375 L 71.09375 47.0625 L 89.09375 41 L 103.96875 46.875 L 115.90625 58.46875 L 118.5 56.375 L 97.375 30.96875 L 65.90625 38.21875 L 63.46875 41.875 L 30.09375 24.21875 z M 66.9375 26.96875 L 60.71875 32.875 L 62.78125 33.90625 L 70.21875 29.0625 L 66.9375 26.96875 z M 16.8125 36.4375 L 10.3125 42.15625 L 16.8125 44.25 L 7.96875 46.1875 L 9.875 52.0625 L 16.25 58.8125 L 21.625 84.25 L 5.1875 74.03125 L 1.21875 75.0625 C 1.21875 75.0625 26.114021 97.914185 27.84375 99.125 L 28.03125 92.375 L 39.4375 89.78125 L 54.5 99.625 L 113.65625 79.90625 C 113.65625 79.90625 101.70946 75.415033 98.25 74.03125 C 94.79054 72.647467 71.96875 84.0625 71.96875 84.0625 L 64.53125 80.4375 L 44.28125 82.15625 L 28.375 56.03125 L 29.21875 47.90625 L 26.28125 41.34375 L 16.8125 36.4375 z M 95.46875 106.84375 C 93.267134 106.71185 83.187503 119.6875 83.1875 119.6875 L 91.5 121.78125 L 103.625 110.53125 C 103.625 110.53125 97.385981 107.94409 95.65625 106.90625 C 95.602196 106.87382 95.53977 106.848 95.46875 106.84375 z "
       id="path3608" />
    <path
       style="fill:url(#linearGradient2705);fill-rule:evenodd;stroke:none;stroke-width:1px;stroke-linecap:butt;stroke-linejoin:miter;stroke-opacity:1;fill-opacity:1"
       d="M 85.189167,112.28312 L 97.542514,116.44167 L 98.031755,124.57531 L 95.096307,123.47452 L 94.362444,121.63986 L 93.383962,122.25141 L 92.89472,120.96715 L 91.671617,121.88448 L 85.250322,118.94903 L 85.189167,112.28312 z"
       id="path2703" />
    <path
       style="fill:url(#linearGradient2709);fill-rule:evenodd;stroke:none;stroke-width:1px;stroke-linecap:butt;stroke-linejoin:miter;stroke-opacity:1;fill-opacity:1"
       d="M 85.372633,112.28312 L 95.830169,101.76443 L 97.175583,101.70327 L 98.765618,100.66363 L 99.316014,99.19591 L 100.66143,100.35786 L 101.57876,99.623996 L 108.6116,102.37598 L 97.481359,116.44167 L 85.372633,112.28312 z"
       id="path2707" />
    <path
       style="fill:url(#linearGradient2713);fill-rule:evenodd;stroke:none;stroke-width:1px;stroke-linecap:butt;stroke-linejoin:miter;stroke-opacity:1;fill-opacity:1"
       d="M 97.359048,116.50283 L 108.55045,102.37598 L 109.10084,109.04189 L 98.092911,124.453 L 97.359048,116.50283 z"
       id="path2711" />
    <path
       style="fill:url(#linearGradient2717);fill-rule:evenodd;stroke:none;stroke-width:1px;stroke-linecap:butt;stroke-linejoin:miter;stroke-opacity:1;fill-opacity:1"
       d="M 52.28768,105.06681 L 51.492663,86.292166 L 53.816559,84.274045 L 72.163114,79.993183 L 79.379425,82.378235 L 93.750893,74.244596 L 106.71579,79.259321 L 112.58669,79.809717 L 113.2594,80.421269 L 114.05441,79.993183 L 115.09405,81.032821 L 115.27752,79.932028 L 119.55838,80.421269 L 106.71579,85.313684 L 52.28768,105.06681 z"
       id="path2715" />
    <path
       style="fill:url(#linearGradient2721);fill-rule:evenodd;stroke:none;stroke-width:1px;stroke-linecap:butt;stroke-linejoin:miter;stroke-opacity:1"
       d="M 51.431507,86.108701 L 51.370352,83.662494 L 51.798438,83.173252 L 53.694249,84.335201 L 51.431507,86.108701 z"
       id="path2719" />
    <path
       style="fill:url(#linearGradient2725);fill-rule:evenodd;stroke:none;stroke-width:1px;stroke-linecap:butt;stroke-linejoin:miter;stroke-opacity:1;fill-opacity:1"
       d="M 51.981904,83.173252 L 53.93887,84.457511 L 72.285424,79.993183 L 71.123476,78.525458 L 51.737283,82.867476 L 51.981904,83.173252 z"
       id="path2723" />
    <path
       style="fill:url(#linearGradient2729);fill-rule:evenodd;stroke:none;stroke-width:1px;stroke-linecap:butt;stroke-linejoin:miter;stroke-opacity:1;fill-opacity:1"
       d="M 71.245786,78.586614 L 77.78939,80.66589 L 79.379425,82.194769 L 72.530045,80.115493 L 71.245786,78.586614 z"
       id="path2727"
       sodipodi:nodetypes="ccccc" />
    <path
       style="fill:url(#linearGradient2733);fill-rule:evenodd;stroke:none;stroke-width:1px;stroke-linecap:butt;stroke-linejoin:miter;stroke-opacity:1;fill-opacity:1"
       d="M 77.78939,80.66589 L 92.099703,72.838027 L 93.628582,74.305751 L 79.44058,82.43939 L 77.78939,80.66589 z"
       id="path2731" />
    <path
       style="fill:url(#linearGradient2737);fill-rule:evenodd;stroke:none;stroke-width:1px;stroke-linecap:butt;stroke-linejoin:miter;stroke-opacity:1"
       d="M 91.977393,72.899182 L 105.98193,77.791596 L 106.65464,79.075855 L 93.628582,74.183441 L 91.977393,72.899182 z"
       id="path2735"
       sodipodi:nodetypes="ccccc" />
    <path
       style="fill:url(#linearGradient2741);fill-rule:evenodd;stroke:none;stroke-width:1px;stroke-linecap:butt;stroke-linejoin:miter;stroke-opacity:1;fill-opacity:1"
       d="M 105.92077,77.791596 L 117.66257,79.13701 L 119.55838,80.360114 L 115.46098,79.932028 L 115.09405,81.032821 L 114.05441,79.932028 L 113.38171,80.482424 L 112.46438,79.748562 L 106.8381,79.320476 L 105.92077,77.791596 z"
       id="path2739" />
    <path
       style="fill:url(#linearGradient2745);fill-rule:evenodd;stroke:none;stroke-width:1px;stroke-linecap:butt;stroke-linejoin:miter;stroke-opacity:1;fill-opacity:1"
       d="M 31.066832,92.59115 L 34.797298,94.976202 L 37.488126,98.400892 L 35.041919,99.379375 L 30.638746,93.202702 L 31.066832,92.59115 z"
       id="path2743" />
    <path
       style="fill:url(#linearGradient2749);fill-rule:evenodd;stroke:none;stroke-width:1px;stroke-linecap:butt;stroke-linejoin:miter;stroke-opacity:1;fill-opacity:1"
       d="M 32.656867,101.3975 L 34.797298,99.44053 L 37.549281,98.584358 L 34.980764,100.96941 L 34.430367,103.29331 L 31.556073,104.02717 L 32.656867,101.3975 z"
       id="path2747" />
    <path
       style="fill:url(#linearGradient2753);fill-rule:evenodd;stroke:none;stroke-width:1px;stroke-linecap:butt;stroke-linejoin:miter;stroke-opacity:1"
       d="M 36.265022,99.929772 L 37.671592,98.339737 L 34.552677,94.976202 L 39.139316,95.587754 L 39.689713,98.584358 L 36.265022,99.929772 z"
       id="path2751" />
    <path
       style="fill:url(#linearGradient2757);fill-rule:evenodd;stroke:none;stroke-width:1px;stroke-linecap:butt;stroke-linejoin:miter;stroke-opacity:1;fill-opacity:1"
       d="M 31.066832,84.396355 C 30.455281,84.21289 18.346554,77.975062 18.346554,77.975062 L 15.778037,79.13701 L 14.677243,80.421269 L 7.5220873,75.651165 L 3.4858453,74.672682 L 31.556073,104.08832 L 32.10647,103.04869 L 32.840332,101.21403 L 35.041919,99.379375 L 30.761057,93.263857 C 31.012278,90.337882 31.571179,87.473443 31.066832,84.396355 z"
       id="path2755"
       sodipodi:nodetypes="cccccccccccc" />
    <path
       style="fill:url(#linearGradient2761);fill-rule:evenodd;stroke:none;stroke-width:1px;stroke-linecap:butt;stroke-linejoin:miter;stroke-opacity:1;fill-opacity:1"
       d="M 7.5832425,75.406544 L 3.4246901,74.550372 L 5.9932078,73.633044 L 9.8459842,74.366906 L 16.206123,79.13701 L 14.738399,80.421269 L 7.5832425,75.406544 z"
       id="path2759" />
    <path
       style="fill:url(#linearGradient2765);fill-rule:evenodd;stroke:none;stroke-width:1px;stroke-linecap:butt;stroke-linejoin:miter;stroke-opacity:1;fill-opacity:1"
       d="M 20.976227,76.996579 L 18.65233,77.852751 L 31.127987,84.274045 L 31.250298,82.011304 L 20.976227,76.996579 z"
       id="path2763" />
    <path
       style="fill:url(#linearGradient2769);fill-rule:evenodd;stroke:none;stroke-width:1px;stroke-linecap:butt;stroke-linejoin:miter;stroke-opacity:1;fill-opacity:1"
       d="M 39.200471,95.648909 L 40.240109,101.76443 L 42.686316,102.43713 L 40.301264,95.526599 L 39.200471,95.648909 z"
       id="path2767" />
    <path
       style="fill:url(#linearGradient2773);fill-rule:evenodd;stroke:none;stroke-width:1px;stroke-linecap:butt;stroke-linejoin:miter;stroke-opacity:1;fill-opacity:1"
       d="M 40.301264,101.76443 C 40.912816,102.31482 42.747472,102.49829 42.747472,102.49829 L 47.823352,106.84031 L 47.028334,109.95922 L 45.071368,108.61381 L 40.301264,101.76443 z"
       id="path2771" />
    <path
       style="fill:url(#linearGradient2777);fill-rule:evenodd;stroke:none;stroke-width:1px;stroke-linecap:butt;stroke-linejoin:miter;stroke-opacity:1;fill-opacity:1"
       d="M 31.861849,65.927491 L 30.822211,92.529995 L 34.552677,94.853892 L 40.178954,95.710064 L 42.502851,102.25367 L 47.701041,106.96262 L 47.150645,109.77576 L 52.654611,106.65684 L 51.370352,84.151735 L 50.086093,65.56056 L 47.639886,67.21175 L 44.215196,68.129078 L 40.178954,68.251388 L 36.448488,67.762147 L 32.901487,66.294422 L 31.861849,65.927491 z"
       id="path2775" />
    <path
       style="fill:url(#linearGradient2781);fill-rule:evenodd;stroke:none;stroke-width:1px;stroke-linecap:butt;stroke-linejoin:miter;stroke-opacity:1;fill-opacity:1"
       d="M 29.660263,57.05999 L 29.476797,58.344249 L 29.782573,63.664749 L 31.250298,65.315939 L 33.75766,66.905974 L 35.714626,67.639836 C 35.714626,67.639836 41.585523,68.190233 42.380541,68.434854 C 43.175558,68.679474 49.658007,66.294422 49.658007,66.294422 L 51.981904,63.603594 L 51.370352,59.445042 L 49.10761,61.524318 L 48.740679,58.71118 L 45.805231,59.506197 L 41.891299,59.995439 L 41.646678,62.686267 L 39.017006,62.686267 L 35.28654,62.13587 L 35.28654,59.322732 L 32.473401,58.650025 L 30.516435,56.876524 L 30.210659,58.099628 L 29.660263,57.05999 z"
       id="path2779" />
    <path
       style="fill:url(#linearGradient2785);fill-rule:evenodd;stroke:none;stroke-width:1px;stroke-linecap:butt;stroke-linejoin:miter;stroke-opacity:1;fill-opacity:1"
       d="M 12.231036,38.713436 L 26.90828,45.37935 L 27.1529,48.80404 L 11.864105,42.076971 L 11.92526,38.835746 L 12.231036,38.713436 z"
       id="path2783" />
    <path
       style="fill:url(#linearGradient2789);fill-rule:evenodd;stroke:none;stroke-width:1px;stroke-linecap:butt;stroke-linejoin:miter;stroke-opacity:1;fill-opacity:1"
       d="M 26.90828,45.318195 L 33.268419,41.771195 L 33.75766,45.37935 L 27.214056,48.80404 L 26.90828,45.318195 z"
       id="path2787" />
    <path
       style="fill:url(#linearGradient2793);fill-rule:evenodd;stroke:none;stroke-width:1px;stroke-linecap:butt;stroke-linejoin:miter;stroke-opacity:1;fill-opacity:1"
       d="M 16.634209,36.083763 L 12.231036,38.65228 L 26.847125,45.318195 L 33.084953,41.771195 L 16.634209,36.083763 z"
       id="path2791" />
    <path
       style="fill:url(#linearGradient2797);fill-rule:evenodd;stroke:none;stroke-width:1px;stroke-linecap:butt;stroke-linejoin:miter;stroke-opacity:1"
       d="M 49.229921,56.876524 L 48.312593,57.916162 L 48.679524,58.71118 L 49.10761,61.340853 L 51.248042,59.445042 L 49.229921,56.876524 z"
       id="path2795" />
    <path
       style="fill:url(#linearGradient2801);fill-rule:evenodd;stroke:none;stroke-width:1px;stroke-linecap:butt;stroke-linejoin:miter;stroke-opacity:1;fill-opacity:1"
       d="M 47.639886,56.142662 C 47.823352,56.754214 48.618369,58.71118 48.618369,58.71118 L 44.276351,59.811973 L 41.891299,59.811973 L 41.218592,57.855007 L 42.197075,57.977318 L 45.377144,57.121145 L 47.639886,56.142662 z"
       id="path2799" />
    <path
       style="fill:url(#linearGradient2805);fill-rule:evenodd;stroke:none;stroke-width:1px;stroke-linecap:butt;stroke-linejoin:miter;stroke-opacity:1"
       d="M 41.340902,62.563956 L 40.912816,60.60699 L 41.035127,58.099628 L 41.952454,59.995439 L 41.340902,62.563956 z"
       id="path2803" />
    <path
       style="fill:url(#linearGradient2809);fill-rule:evenodd;stroke:none;stroke-width:1px;stroke-linecap:butt;stroke-linejoin:miter;stroke-opacity:1;fill-opacity:1"
       d="M 40.973971,60.912766 L 41.279747,62.686267 L 38.772385,62.686267 L 35.775781,62.197025 L 35.470005,61.891249 L 37.488126,60.48468 L 38.95585,60.912766 L 40.973971,60.912766 z"
       id="path2807" />
    <path
       style="fill:url(#linearGradient2813);fill-rule:evenodd;stroke:none;stroke-width:1px;stroke-linecap:butt;stroke-linejoin:miter;stroke-opacity:1;fill-opacity:1"
       d="M 35.225384,59.322732 L 35.225384,62.01356 L 37.671592,60.36237 L 37.30466,58.221938 L 35.225384,59.322732 z"
       id="path2811" />
    <path
       style="fill:url(#linearGradient2817);fill-rule:evenodd;stroke:none;stroke-width:1px;stroke-linecap:butt;stroke-linejoin:miter;stroke-opacity:1;fill-opacity:1"
       d="M 30.45528,56.876524 L 32.656867,56.081507 L 33.87997,57.05999 L 37.18235,58.160783 L 35.225384,59.200421 L 32.595712,58.650025 L 31.250298,57.916162 L 30.45528,56.876524 z"
       id="path2815" />
    <path
       style="fill:url(#linearGradient2821);fill-rule:evenodd;stroke:none;stroke-width:1px;stroke-linecap:butt;stroke-linejoin:miter;stroke-opacity:1"
       d="M 30.088349,58.160783 L 29.537952,56.876524 L 30.027194,54.980714 L 32.22878,55.53111 L 32.412246,56.264973 L 30.577591,56.93768 L 30.088349,58.160783 z"
       id="path2819" />
    <path
       style="fill:url(#linearGradient2825);fill-rule:evenodd;stroke:none;stroke-width:1px;stroke-linecap:butt;stroke-linejoin:miter;stroke-opacity:1;fill-opacity:1"
       d="M 30.027194,52.289886 L 32.289936,53.268369 L 32.289936,55.53111 L 29.966039,54.980714 L 30.027194,52.289886 z"
       id="path2823" />
    <path
       style="fill:url(#linearGradient2829);fill-rule:evenodd;stroke:none;stroke-width:1px;stroke-linecap:butt;stroke-linejoin:miter;stroke-opacity:1;fill-opacity:1"
       d="M 30.088349,52.228731 L 32.10647,53.207213 L 33.75766,51.739489 L 36.081557,50.944472 L 34.491522,49.293282 L 31.923005,50.516386 L 30.088349,52.228731 z"
       id="path2827" />
    <path
       style="fill:url(#linearGradient2833);fill-rule:evenodd;stroke:none;stroke-width:1px;stroke-linecap:butt;stroke-linejoin:miter;stroke-opacity:1;fill-opacity:1"
       d="M 36.326178,51.617179 L 37.426971,51.494868 L 38.466609,51.127937 L 39.445092,52.534506 L 38.344299,52.901438 L 37.121195,53.023748 L 36.570798,52.962593 L 36.326178,51.617179 z"
       id="path2831" />
    <path
       style="fill:url(#linearGradient2837);fill-rule:evenodd;stroke:none;stroke-width:1px;stroke-linecap:butt;stroke-linejoin:miter;stroke-opacity:1;fill-opacity:1"
       d="M 38.221988,48.55942 L 39.445092,50.33292 L 39.567402,52.473351 L 38.283143,51.066782 L 38.221988,48.55942 z"
       id="path2835" />
    <path
       style="fill:url(#linearGradient2841);fill-rule:evenodd;stroke:none;stroke-width:1px;stroke-linecap:butt;stroke-linejoin:miter;stroke-opacity:1;fill-opacity:1"
       d="M 38.405454,48.620575 L 40.973971,48.498265 L 43.542489,49.904834 L 44.215196,51.800644 L 41.830144,50.088299 L 39.506247,50.088299 L 38.405454,48.620575 z"
       id="path2839" />
    <path
       style="fill:url(#linearGradient2845);fill-rule:evenodd;stroke:none;stroke-width:1px;stroke-linecap:butt;stroke-linejoin:miter;stroke-opacity:1;fill-opacity:1"
       d="M 44.765593,53.146058 L 46.906024,53.390679 L 47.639886,55.592266 L 44.459817,54.736093 L 45.132524,54.185696 L 44.765593,53.146058 z"
       id="path2843" />
    <path
       style="fill:url(#linearGradient2849);fill-rule:evenodd;stroke:none;stroke-width:1px;stroke-linecap:butt;stroke-linejoin:miter;stroke-opacity:1;fill-opacity:1"
       d="M 44.949058,54.124541 C 44.704437,54.124541 42.013609,53.75761 42.013609,53.75761 L 39.506247,54.002231 L 36.754264,54.797248 L 35.103074,55.592266 L 33.574194,56.93768 L 34.491522,57.365766 L 37.243505,58.221938 L 37.549281,60.545835 L 39.261626,60.973921 L 40.912816,60.851611 L 41.218592,58.099628 L 43.236713,57.855007 L 45.68292,56.998835 L 47.701041,56.203817 L 48.251438,57.977318 L 48.924145,57.793852 L 49.291076,57.05999 L 47.762196,55.469955 L 44.398661,54.797248 L 44.949058,54.124541 z"
       id="path2847" />
    <path
       style="fill:url(#linearGradient2853);fill-rule:evenodd;stroke:none;stroke-width:1px;stroke-linecap:butt;stroke-linejoin:miter;stroke-opacity:1;fill-opacity:1"
       d="M 32.167625,56.020352 L 32.22878,53.329524 L 34.063436,51.678334 L 36.265022,51.005627 L 36.631953,53.084903 L 37.549281,53.023748 L 39.567402,52.534506 L 39.506247,50.33292 L 41.524368,50.088299 L 44.398661,51.8618 L 45.010213,54.185696 L 42.625161,53.696455 L 39.261626,54.002231 L 36.020402,54.797248 L 34.674988,56.020352 L 33.696505,56.815369 L 32.167625,56.020352 z"
       id="path2851" />
    <path
       style="fill:url(#linearGradient2857);fill-rule:evenodd;stroke:none;stroke-width:1px;stroke-linecap:butt;stroke-linejoin:miter;stroke-opacity:1;fill-opacity:1"
       d="M 61.950198,30.335176 L 67.759941,32.414452 L 73.325062,25.442761 L 68.371492,23.730416 L 61.950198,30.335176 z"
       id="path2855" />
    <path
       style="fill:url(#linearGradient2861);fill-rule:evenodd;stroke:none;stroke-width:1px;stroke-linecap:butt;stroke-linejoin:miter;stroke-opacity:1;fill-opacity:1"
       d="M 67.821096,32.414452 L 73.569683,25.381606 L 73.569683,28.745141 L 68.983044,35.594521 L 68.554958,34.982969 L 68.126872,34.432573 L 67.821096,32.414452 z"
       id="path2859"
       sodipodi:nodetypes="ccccccc" />
    <path
       style="fill:url(#linearGradient2865);fill-rule:evenodd;stroke:none;stroke-width:1px;stroke-linecap:butt;stroke-linejoin:miter;stroke-opacity:1;fill-opacity:1"
       d="M 67.882251,32.353297 L 61.889043,30.396331 L 61.705578,33.392935 L 66.842613,36.022608 L 67.39301,35.288745 L 68.004561,35.594521 L 68.249182,35.22759 L 67.882251,32.353297 z"
       id="path2863" />
    <path
       style="fill:url(#linearGradient2871);fill-rule:evenodd;stroke:none;stroke-width:1px;stroke-linecap:butt;stroke-linejoin:miter;stroke-opacity:1;fill-opacity:1"
       d="M 40.423575,24.770054 C 39.812023,24.586589 31.250298,25.014675 31.250298,25.014675 L 29.048711,25.809692 L 37.793902,25.932003 L 40.423575,24.770054 z"
       id="path2869" />
    <path
       style="fill:url(#linearGradient2875);fill-rule:evenodd;stroke:none;stroke-width:1px;stroke-linecap:butt;stroke-linejoin:miter;stroke-opacity:1;fill-opacity:1"
       d="M 40.48473,24.892365 L 49.413386,31.130193 L 46.783714,32.353297 L 37.793902,25.993158 L 40.48473,24.892365 z"
       id="path2873" />
    <path
       style="fill:url(#linearGradient2879);fill-rule:evenodd;stroke:none;stroke-width:1px;stroke-linecap:butt;stroke-linejoin:miter;stroke-opacity:1;fill-opacity:1"
       d="M 49.229921,31.069038 L 57.913957,33.943331 L 55.161973,35.166435 L 46.906024,32.230986 L 49.229921,31.069038 z"
       id="path2877" />
    <path
       style="fill:url(#linearGradient2883);fill-rule:evenodd;stroke:none;stroke-width:1px;stroke-linecap:butt;stroke-linejoin:miter;stroke-opacity:1;fill-opacity:1"
       d="M 57.852801,33.882176 C 57.852801,34.249107 63.479078,39.569608 63.479078,39.569608 L 60.727095,40.792712 L 55.100818,35.10528 L 57.852801,33.882176 z"
       id="path2881" />
    <path
       style="fill:url(#linearGradient2887);fill-rule:evenodd;stroke:none;stroke-width:1px;stroke-linecap:butt;stroke-linejoin:miter;stroke-opacity:1;fill-opacity:1"
       d="M 61.094026,40.915022 L 64.763337,41.220798 L 65.069113,40.609246 L 66.964923,39.569608 L 63.479078,39.569608 L 61.094026,40.915022 z"
       id="path2885" />
    <path
       style="fill:url(#linearGradient2893);fill-rule:evenodd;stroke:none;stroke-width:1px;stroke-linecap:butt;stroke-linejoin:miter;stroke-opacity:1;fill-opacity:1"
       d="M 30.271815,26.176623 L 37.855057,26.054313 L 46.783714,32.414452 L 55.161973,35.288745 L 60.971716,40.853867 L 64.946802,40.976177 L 61.644423,50.088299 L 30.149504,26.482399 L 30.271815,26.176623 z"
       id="path2891" />
    <path
       style="fill:url(#linearGradient2897);fill-rule:evenodd;stroke:none;stroke-width:1px;stroke-linecap:butt;stroke-linejoin:miter;stroke-opacity:1;fill-opacity:1"
       d="M 69.16651,54.674938 L 69.105355,42.566212 L 77.605925,48.55942 L 80.908305,58.955801 L 82.681805,67.395216 L 69.16651,54.674938 z"
       id="path2895" />
    <path
       style="fill:url(#linearGradient2901);fill-rule:evenodd;stroke:none;stroke-width:1px;stroke-linecap:butt;stroke-linejoin:miter;stroke-opacity:1;fill-opacity:1"
       d="M 69.28882,42.260436 L 71.796183,41.343108 L 80.113287,47.519782 L 77.238994,48.375954 L 68.860734,42.443902 L 69.28882,42.260436 z"
       id="path2899" />
    <path
       style="fill:url(#linearGradient2905);fill-rule:evenodd;stroke:none;stroke-width:1px;stroke-linecap:butt;stroke-linejoin:miter;stroke-opacity:1;fill-opacity:1"
       d="M 77.483614,48.375954 L 80.296753,47.519782 L 83.599133,57.793852 L 80.847149,58.71118 L 77.483614,48.375954 z"
       id="path2903" />
    <path
       style="fill:url(#linearGradient2909);fill-rule:evenodd;stroke:none;stroke-width:1px;stroke-linecap:butt;stroke-linejoin:miter;stroke-opacity:1;fill-opacity:1"
       d="M 80.96946,58.83349 L 83.599133,57.732697 L 85.066857,66.783664 L 82.681805,67.578681 L 80.96946,58.83349 z"
       id="path2907" />
    <path
       style="fill:url(#linearGradient2913);fill-rule:evenodd;stroke:none;stroke-width:1px;stroke-linecap:butt;stroke-linejoin:miter;stroke-opacity:1;fill-opacity:1"
       d="M 63.907164,51.800644 L 61.460957,50.394075 L 58.342043,56.387283 L 60.054388,57.549231 L 63.907164,51.800644 z"
       id="path2911" />
    <path
       style="fill:url(#linearGradient2917);fill-rule:evenodd;stroke:none;stroke-width:1px;stroke-linecap:butt;stroke-linejoin:miter;stroke-opacity:1;fill-opacity:1"
       d="M 64.824492,40.792712 L 61.522112,50.577541 L 63.784854,51.678334 L 65.558354,48.80404 L 67.209544,41.893505 L 64.824492,40.792712 z"
       id="path2915" />
    <path
       style="fill:url(#linearGradient2921);fill-rule:evenodd;stroke:none;stroke-width:1px;stroke-linecap:butt;stroke-linejoin:miter;stroke-opacity:1;fill-opacity:1"
       d="M 64.885647,40.670401 L 94.973996,25.381606 L 96.747497,26.421244 L 67.209544,41.95466 L 64.885647,40.670401 z"
       id="path2919" />
    <path
       style="fill:url(#linearGradient2925);fill-rule:evenodd;stroke:none;stroke-width:1px;stroke-linecap:butt;stroke-linejoin:miter;stroke-opacity:1;fill-opacity:1"
       d="M 60.360164,57.243455 L 65.374889,48.987506 L 67.270699,41.893505 L 96.747497,26.360089 L 96.07479,45.807437 L 81.214081,50.577541 L 80.052132,47.336316 L 71.979648,41.220798 L 68.799579,42.382746 L 69.227665,54.613783 L 60.360164,57.243455 z"
       id="path2923" />
    <path
       style="fill:url(#linearGradient2929);fill-rule:evenodd;stroke:none;stroke-width:1px;stroke-linecap:butt;stroke-linejoin:miter;stroke-opacity:1;fill-opacity:1"
       d="M 98.887928,21.77345 L 102.19031,24.586589 L 105.85962,26.421244 L 111.05781,29.968245 L 113.44286,29.112072 L 107.63312,25.381606 L 103.47457,24.036192 L 100.2945,21.345364 L 98.887928,21.77345 z"
       id="path2927"
       sodipodi:nodetypes="ccccccccc" />
    <path
       style="fill:url(#linearGradient2935);fill-rule:evenodd;stroke:none;stroke-width:1px;stroke-linecap:butt;stroke-linejoin:miter;stroke-opacity:1;fill-opacity:1"
       d="M 113.38171,29.234382 L 116.01138,33.209469 L 113.50402,34.065642 L 111.18012,29.907089 L 113.38171,29.234382 z"
       id="path2933" />
    <path
       style="fill:url(#linearGradient2939);fill-rule:evenodd;stroke:none;stroke-width:1px;stroke-linecap:butt;stroke-linejoin:miter;stroke-opacity:1;fill-opacity:1"
       d="M 113.74864,34.187952 L 114.54365,38.224194 L 115.7056,39.080367 L 115.95022,33.087159 L 113.74864,34.187952 z"
       id="path2937" />
    <path
       style="fill:url(#linearGradient2943);fill-rule:evenodd;stroke:none;stroke-width:1px;stroke-linecap:butt;stroke-linejoin:miter;stroke-opacity:1;fill-opacity:1"
       d="M 98.887928,21.712295 L 102.12915,24.831209 L 105.73731,26.298934 L 111.18012,29.968245 L 113.74864,34.126797 L 114.54365,38.346504 L 113.07593,37.429177 L 111.30243,33.209469 L 102.7407,29.173227 L 102.12915,25.320451 L 98.643307,23.118864 L 98.154066,22.751933 L 98.949083,22.507313 L 98.887928,21.712295 z"
       id="path2941" />
    <path
       style="fill:url(#linearGradient2947);fill-rule:evenodd;stroke:none;stroke-width:1px;stroke-linecap:butt;stroke-linejoin:miter;stroke-opacity:1;fill-opacity:1"
       d="M 94.973996,22.323847 C 95.585548,22.751933 100.17219,26.054313 100.17219,26.054313 L 100.53912,30.212865 L 109.22315,34.187952 L 109.52893,35.044125 L 110.9355,38.713436 L 111.05781,38.346504 L 115.7056,39.386143 L 116.07253,44.890109 L 115.0329,45.440505 L 107.51081,48.437109 L 103.90265,48.80404 L 99.62179,47.703247 L 96.013634,45.807437 L 96.564031,26.237779 L 94.790531,25.198141 L 94.973996,22.323847 z"
       id="path2945" />
    <path
       style="fill:url(#linearGradient2955);fill-rule:evenodd;stroke:none;stroke-width:1px;stroke-linecap:butt;stroke-linejoin:miter;stroke-opacity:1;fill-opacity:1"
       d="M 95.218617,22.507313 L 96.869807,22.079226 L 102.12915,25.07583 L 99.927566,25.687382 L 95.218617,22.507313 z"
       id="path2953" />
    <path
       style="fill:url(#linearGradient2959);fill-rule:evenodd;stroke:none;stroke-width:1px;stroke-linecap:butt;stroke-linejoin:miter;stroke-opacity:1;fill-opacity:1"
       d="M 100.11103,25.870848 L 100.53912,30.274021 L 102.67955,28.867451 L 102.19031,25.136985 L 100.11103,25.870848 z"
       id="path2957" />
    <path
       style="fill:url(#linearGradient2963);fill-rule:evenodd;stroke:none;stroke-width:1px;stroke-linecap:butt;stroke-linejoin:miter;stroke-opacity:1;fill-opacity:1"
       d="M 100.84489,30.090555 L 102.67955,29.234382 L 111.4859,33.33178 L 109.03969,34.065642 L 100.84489,30.090555 z"
       id="path2961"
       sodipodi:nodetypes="ccccc" />
    <path
       style="fill:url(#linearGradient2967);fill-rule:evenodd;stroke:none;stroke-width:1px;stroke-linecap:butt;stroke-linejoin:miter;stroke-opacity:1;fill-opacity:1"
       d="M 108.97853,34.065642 L 111.30243,33.33178 L 113.01477,37.184556 L 115.58329,39.019211 L 110.62972,38.101884 L 109.71239,34.799504 L 108.97853,34.065642 z"
       id="path2965" />
    <path
       id="path3602"
       d="M 94.973996,22.323847 C 95.585548,22.751933 100.17219,26.054313 100.17219,26.054313 L 100.53912,30.212865 L 109.22315,34.187952 L 109.52893,35.044125 L 110.9355,38.713436 L 111.05781,38.346504 L 115.7056,39.386143 L 116.07253,44.890109 L 115.0329,45.440505 L 107.51081,48.437109 L 103.90265,48.80404 L 99.62179,47.703247 L 96.013634,45.807437 L 96.564031,26.237779 L 94.790531,25.198141 L 94.973996,22.323847 z"
       style="fill:#000000;fill-rule:evenodd;stroke:none;stroke-width:1px;stroke-linecap:butt;stroke-linejoin:miter;stroke-opacity:1;fill-opacity:0.15686275" />
    <path
       style="fill:url(#linearGradient2971);fill-rule:evenodd;stroke:none;stroke-width:1px;stroke-linecap:butt;stroke-linejoin:miter;stroke-opacity:1;fill-opacity:1"
       d="M 107.44965,35.961452 L 107.44965,48.253644 L 119.92531,63.725905 L 119.13029,54.797248 L 109.83471,43.911626 L 107.81658,36.634159 L 107.44965,35.961452 z"
       id="path2969" />
    <path
       style="fill:url(#linearGradient2975);fill-rule:evenodd;stroke:none;stroke-width:1px;stroke-linecap:butt;stroke-linejoin:miter;stroke-opacity:1;fill-opacity:1"
       d="M 107.3885,35.716832 L 109.52893,34.921814 L 112.95362,43.48354 L 110.14048,44.339712 L 107.75543,37.062246 L 107.3885,35.716832 z"
       id="path2973" />
    <path
       style="fill:url(#linearGradient2979);fill-rule:evenodd;stroke:none;stroke-width:1px;stroke-linecap:butt;stroke-linejoin:miter;stroke-opacity:1;fill-opacity:1"
       d="M 110.32395,44.339712 L 112.83131,43.238919 L 122.00459,53.941076 L 119.13029,55.041869 L 110.32395,44.339712 z"
       id="path2977" />
    <path
       style="fill:url(#linearGradient2983);fill-rule:evenodd;stroke:none;stroke-width:1px;stroke-linecap:butt;stroke-linejoin:miter;stroke-opacity:1;fill-opacity:1"
       d="M 119.31376,54.858403 L 119.86416,63.90937 L 120.41455,64.276301 L 122.61614,62.930887 L 121.94343,53.87992 L 119.31376,54.858403 z"
       id="path2981" />
    <path
       id="path2985"
       d="M 85.189167,112.28312 L 97.542514,116.44167 L 98.031755,124.57531 L 95.096307,123.47452 L 94.362444,121.63986 L 93.383962,122.25141 L 92.89472,120.96715 L 91.671617,121.88448 L 85.250322,118.94903 L 85.189167,112.28312 z"
       style="fill:#000000;fill-rule:evenodd;stroke:none;stroke-width:1px;stroke-linecap:butt;stroke-linejoin:miter;stroke-opacity:1;fill-opacity:0.15686275" />
    <path
       id="path2987"
       d="M 51.431507,86.108701 L 51.370352,83.662494 L 51.798438,83.173252 L 53.694249,84.335201 L 51.431507,86.108701 z"
       style="fill:#000000;fill-rule:evenodd;stroke:none;stroke-width:1px;stroke-linecap:butt;stroke-linejoin:miter;stroke-opacity:1;fill-opacity:0.15686275" />
    <path
       id="path2989"
       d="M 77.78939,80.66589 L 92.099703,72.838027 L 93.628582,74.305751 L 79.44058,82.43939 L 77.78939,80.66589 z"
       style="fill:#000000;fill-rule:evenodd;stroke:none;stroke-width:1px;stroke-linecap:butt;stroke-linejoin:miter;stroke-opacity:1;fill-opacity:0.15686275" />
    <path
       id="path2991"
       d="M 32.656867,101.3975 L 34.797298,99.44053 L 37.549281,98.584358 L 34.980764,100.96941 L 34.430367,103.29331 L 31.556073,104.02717 L 32.656867,101.3975 z"
       style="fill:#000000;fill-rule:evenodd;stroke:none;stroke-width:1px;stroke-linecap:butt;stroke-linejoin:miter;stroke-opacity:1;fill-opacity:0.15686275" />
    <path
       id="path2993"
       d="M 36.265022,99.929772 L 37.671592,98.339737 L 34.552677,94.976202 L 39.139316,95.587754 L 39.689713,98.584358 L 36.265022,99.929772 z"
       style="fill:#000000;fill-rule:evenodd;stroke:none;stroke-width:1px;stroke-linecap:butt;stroke-linejoin:miter;stroke-opacity:1;fill-opacity:0.15686275" />
    <path
       sodipodi:nodetypes="cccccccccccc"
       id="path2995"
       d="M 31.066832,84.396355 C 30.455281,84.21289 18.346554,77.975062 18.346554,77.975062 L 15.778037,79.13701 L 14.677243,80.421269 L 7.5220873,75.651165 L 3.4858453,74.672682 L 31.556073,104.08832 L 32.10647,103.04869 L 32.840332,101.21403 L 35.041919,99.379375 L 30.761057,93.263857 C 31.012278,90.337882 31.571179,87.473443 31.066832,84.396355 z"
       style="fill:#000000;fill-rule:evenodd;stroke:none;stroke-width:1px;stroke-linecap:butt;stroke-linejoin:miter;stroke-opacity:1;fill-opacity:0.15686275" />
    <path
       id="path2997"
       d="M 39.200471,95.648909 L 40.240109,101.76443 L 42.686316,102.43713 L 40.301264,95.526599 L 39.200471,95.648909 z"
       style="fill:#000000;fill-rule:evenodd;stroke:none;stroke-width:1px;stroke-linecap:butt;stroke-linejoin:miter;stroke-opacity:1;fill-opacity:0.15686275" />
    <path
       id="path2999"
       d="M 40.301264,101.76443 C 40.912816,102.31482 42.747472,102.49829 42.747472,102.49829 L 47.823352,106.84031 L 47.028334,109.95922 L 45.071368,108.61381 L 40.301264,101.76443 z"
       style="fill:#000000;fill-rule:evenodd;stroke:none;stroke-width:1px;stroke-linecap:butt;stroke-linejoin:miter;stroke-opacity:1;fill-opacity:0.15686275" />
    <path
       id="path3578"
       d="M 41.340902,62.563956 L 40.912816,60.60699 L 41.035127,58.099628 L 41.952454,59.995439 L 41.340902,62.563956 z"
       style="fill:#000000;fill-rule:evenodd;stroke:none;stroke-width:1px;stroke-linecap:butt;stroke-linejoin:miter;stroke-opacity:1;fill-opacity:0.15686275" />
    <path
       id="path3580"
       d="M 30.027194,52.289886 L 32.289936,53.268369 L 32.289936,55.53111 L 29.966039,54.980714 L 30.027194,52.289886 z"
       style="fill:#000000;fill-rule:evenodd;stroke:none;stroke-width:1px;stroke-linecap:butt;stroke-linejoin:miter;stroke-opacity:1;fill-opacity:0.15686275" />
    <path
       id="path3582"
       d="M 38.221988,48.55942 L 39.445092,50.33292 L 39.567402,52.473351 L 38.283143,51.066782 L 38.221988,48.55942 z"
       style="fill:#000000;fill-rule:evenodd;stroke:none;stroke-width:1px;stroke-linecap:butt;stroke-linejoin:miter;stroke-opacity:1;fill-opacity:0.15686275" />
    <path
       id="path3584"
       d="M 32.167625,56.020352 L 32.22878,53.329524 L 34.063436,51.678334 L 36.265022,51.005627 L 36.631953,53.084903 L 37.549281,53.023748 L 39.567402,52.534506 L 39.506247,50.33292 L 41.524368,50.088299 L 44.398661,51.8618 L 45.010213,54.185696 L 42.625161,53.696455 L 39.261626,54.002231 L 36.020402,54.797248 L 34.674988,56.020352 L 33.696505,56.815369 L 32.167625,56.020352 z"
       style="fill:#000000;fill-rule:evenodd;stroke:none;stroke-width:1px;stroke-linecap:butt;stroke-linejoin:miter;stroke-opacity:1;fill-opacity:0.15686275" />
    <path
       id="path3586"
       d="M 12.231036,38.713436 L 26.90828,45.37935 L 27.1529,48.80404 L 11.864105,42.076971 L 11.92526,38.835746 L 12.231036,38.713436 z"
       style="fill:#000000;fill-rule:evenodd;stroke:none;stroke-width:1px;stroke-linecap:butt;stroke-linejoin:miter;stroke-opacity:1;fill-opacity:0.15686275" />
    <path
       id="path3588"
       d="M 67.882251,32.353297 L 61.889043,30.396331 L 61.705578,33.392935 L 66.842613,36.022608 L 67.39301,35.288745 L 68.004561,35.594521 L 68.249182,35.22759 L 67.882251,32.353297 z"
       style="fill:#000000;fill-rule:evenodd;stroke:none;stroke-width:1px;stroke-linecap:butt;stroke-linejoin:miter;stroke-opacity:1;fill-opacity:0.15686275" />
    <path
       id="path3590"
       d="M 61.094026,40.915022 L 64.763337,41.220798 L 65.069113,40.609246 L 66.964923,39.569608 L 63.479078,39.569608 L 61.094026,40.915022 z"
       style="fill:#000000;fill-rule:evenodd;stroke:none;stroke-width:1px;stroke-linecap:butt;stroke-linejoin:miter;stroke-opacity:1;fill-opacity:0.15686275" />
    <path
       id="path3592"
       d="M 30.271815,26.176623 L 37.855057,26.054313 L 46.783714,32.414452 L 55.161973,35.288745 L 60.971716,40.853867 L 64.946802,40.976177 L 61.644423,50.088299 L 30.149504,26.482399 L 30.271815,26.176623 z"
       style="fill:#000000;fill-rule:evenodd;stroke:none;stroke-width:1px;stroke-linecap:butt;stroke-linejoin:miter;stroke-opacity:1;fill-opacity:0.15686275" />
    <path
       id="path3594"
       d="M 69.16651,54.674938 L 69.105355,42.566212 L 77.605925,48.55942 L 80.908305,58.955801 L 82.681805,67.395216 L 69.16651,54.674938 z"
       style="fill:#000000;fill-rule:evenodd;stroke:none;stroke-width:1px;stroke-linecap:butt;stroke-linejoin:miter;stroke-opacity:1;fill-opacity:0.15686275" />
    <path
       id="path3596"
       d="M 63.907164,51.800644 L 61.460957,50.394075 L 58.342043,56.387283 L 60.054388,57.549231 L 63.907164,51.800644 z"
       style="fill:#000000;fill-rule:evenodd;stroke:none;stroke-width:1px;stroke-linecap:butt;stroke-linejoin:miter;stroke-opacity:1;fill-opacity:0.15686275" />
    <path
       id="path3598"
       d="M 64.824492,40.792712 L 61.522112,50.577541 L 63.784854,51.678334 L 65.558354,48.80404 L 67.209544,41.893505 L 64.824492,40.792712 z"
       style="fill:#000000;fill-rule:evenodd;stroke:none;stroke-width:1px;stroke-linecap:butt;stroke-linejoin:miter;stroke-opacity:1;fill-opacity:0.15686275" />
    <path
       id="path3600"
       d="M 98.887928,21.712295 L 102.12915,24.831209 L 105.73731,26.298934 L 111.18012,29.968245 L 113.74864,34.126797 L 114.54365,38.346504 L 113.07593,37.429177 L 111.30243,33.209469 L 102.7407,29.173227 L 102.12915,25.320451 L 98.643307,23.118864 L 98.154066,22.751933 L 98.949083,22.507313 L 98.887928,21.712295 z"
       style="fill:#000000;fill-rule:evenodd;stroke:none;stroke-width:1px;stroke-linecap:butt;stroke-linejoin:miter;stroke-opacity:1;fill-opacity:0.15686275" />
    <path
       id="path3604"
       d="M 107.44965,35.961452 L 107.44965,48.253644 L 119.92531,63.725905 L 119.13029,54.797248 L 109.83471,43.911626 L 107.81658,36.634159 L 107.44965,35.961452 z"
       style="fill:#000000;fill-rule:evenodd;stroke:none;stroke-width:1px;stroke-linecap:butt;stroke-linejoin:miter;stroke-opacity:1;fill-opacity:0.15686275" />
  </g>
  <g
     inkscape:label="outline"
     inkscape:groupmode="layer"
     id="layer1"
     sodipodi:insensitive="true">
    <path
       style="fill:#000000;fill-opacity:1;fill-rule:evenodd;stroke:none;stroke-width:0.99999994px;stroke-linecap:butt;stroke-linejoin:miter;stroke-opacity:1"
       d="M 100.5,21.09375 L 98.75,21.46875 L 98.71875,22.4375 L 98.09375,22.46875 L 96.84375,21.875 L 94.84375,22.3125 L 94.65625,25.34375 L 67,39.40625 L 63.59375,39.40625 L 57.90625,33.6875 L 49.1875,30.875 L 40.625,24.65625 L 31.4375,24.78125 L 28.78125,25.71875 L 61.3125,50.21875 L 58.0625,56.5625 L 59.84375,57.78125 L 68.90625,54.90625 L 82.75,67.78125 L 85.125,66.875 L 83.65625,57.46875 L 81.40625,50.71875 L 95.65625,46.03125 C 99.091975,48.597291 103.51718,49.329724 107.5625,48.75 L 120.1875,64.40625 L 122.6875,63 L 122.25,53.9375 L 115.15625,45.625 C 115.55958,45.300229 115.93979,44.962834 116.28125,44.59375 L 115.96875,39.03125 C 115.97143,37.636714 116.12207,34.875828 116.28125,33.15625 L 113.375,28.9375 C 111.38969,28.168285 110.1536,26.78935 108.375,25.6875 C 108.18234,25.55461 107.95736,25.449864 107.71875,25.34375 C 106.47298,24.857949 105.0376,24.497523 103.71875,24.09375 L 100.5,21.09375 z M 100.3125,21.59375 C 100.46992,21.711682 101.70344,22.924153 103.09375,24 L 102.125,24.4375 L 99.1875,21.875 L 100.3125,21.59375 z M 99.03125,22.1875 L 101.46875,24.40625 L 98.6875,23 L 99.0625,22.53125 L 99.03125,22.1875 z M 96.84375,22.3125 L 101.46875,25.125 L 100.1875,25.59375 L 95.40625,22.5625 L 96.84375,22.3125 z M 95.03125,22.59375 L 99.96875,26.21875 L 100.28125,30.1875 L 97.40625,32.53125 L 96.90625,37.28125 L 98.1875,40.34375 L 96.78125,42.59375 L 97,42.65625 L 98.375,40.96875 L 100.84375,42.34375 L 100.8125,45.5 L 100.9375,45.375 L 101.34375,42.75 L 102.9375,42.75 L 103,42.6875 L 101.4375,42.1875 L 98.71875,40.40625 L 97.46875,37.3125 L 97.84375,33.59375 L 99.65625,36.875 L 103.375,37.6875 L 103.4375,37.5625 L 99.9375,36.78125 L 98.1875,32.78125 L 97.90625,32.90625 L 100.78125,30.59375 L 109.3125,34.65625 L 107.28125,35.53125 L 107.125,48.21875 C 103.44692,48.985668 99.735901,47.796098 96.4375,45.78125 L 96.84375,26.25 L 94.9375,25.1875 C 94.962352,24.309253 95.007268,23.473245 95.03125,22.59375 z M 68.3125,23.5 L 61.66098,30.221284 L 61.59375,33.53125 C 63.113574,34.48451 65.280431,35.534107 66.870835,36.066794 C 67.031572,36.12063 67.222068,35.529262 67.494632,35.580825 C 67.814104,35.641262 67.997777,35.996547 68.110811,36.02652 C 68.154982,35.840332 68.148533,34.840489 68.449612,34.867299 C 68.632597,34.883593 68.864091,35.776846 68.915086,35.70393 C 70.335645,33.672676 72.179033,30.934197 73.71875,28.8125 L 73.625,25.440034 L 68.3125,23.5 z M 68.46875,23.875 L 72.96875,25.5 L 67.71875,32.125 L 66.375,31.625 L 66.4375,31.59375 L 65.8125,28.90625 L 68.90625,26.8125 L 70.59375,26.75 L 70.59375,26.6875 L 68.97348,26.483277 L 68.125,24.46875 L 68.110473,24.53598 L 68.6875,26.59375 L 65.46875,28.5625 L 65.8125,31.40625 L 62.15625,30.03125 L 67.80777,24.449493 L 68.46875,23.875 z M 103.5,24.125 C 104.42968,24.852776 105.85859,25.255926 107.0625,25.59375 L 105.8125,26.28125 L 102.46875,24.65625 C 102.76174,24.315035 103.27524,24.17892 103.5,24.125 z M 39.90625,25 L 37.75,25.75 L 29.5,25.75 L 31.46875,25.15625 L 39.90625,25 z M 102.46875,25.0625 L 105.3125,26.40625 L 110.71875,29.9375 L 113.40625,34.25 L 114.34375,37.9375 L 113.5,37.34375 L 111.4375,33.09375 L 102.875,28.96875 L 102.4375,25.34375 L 102.625,25.28125 L 102.46875,25.0625 z M 40.53125,25.125 L 49,31.125 L 46.84375,32.09375 L 38.09375,26.0625 L 40.53125,25.125 z M 101.84375,25.5625 L 102.25,29 L 100.625,29.75 L 100.40625,26.0625 L 101.84375,25.5625 z M 95.09375,25.625 L 96.34375,26.375 L 67.15625,41.75 L 65.21875,40.6875 L 95.09375,25.625 z M 73.3125,25.8125 L 73.3125,28.8125 C 71.754223,30.941189 70.271404,33.186965 68.78125,35.375 C 68.894884,34.474873 68.755979,33.426444 68.90625,32.625 L 70.6875,32 L 71.3125,28.84375 L 71.1875,28.78125 L 70.46875,31.625 L 68.625,32.4375 C 68.371865,32.855881 68.274309,33.376007 68.25,33.90625 L 68.125,32.3125 L 73.3125,25.8125 z M 107.78125,25.8125 C 107.94778,25.880255 108.09815,25.975916 108.25,26.0625 C 109.31805,27.215715 111.43636,28.13021 112.84375,29.125 L 111.03125,29.65625 L 106.15625,26.5 L 107.78125,25.8125 z M 37.40625,26.3125 L 46.40625,32.3125 L 46.03125,35.28125 L 45.25,36.25 L 46.40625,35.6875 L 49.75,38.125 L 49.875,38 L 46.53125,35.375 L 47.15625,32.625 L 54.9375,35.40625 L 60.84375,41.0625 L 64.5625,41.28125 L 61.46875,49.78125 L 30.78125,26.375 L 37.40625,26.3125 z M 96.5,26.71875 L 95.78125,45.6875 L 81.3125,50.375 L 80.28125,47.3125 L 71.875,41.125 L 68.8125,42.21875 L 68.90625,54.46875 L 60.71875,57.15625 L 63.78125,52.09375 L 65.6875,51.9375 L 67.5625,53.5625 L 67.03125,54.46875 L 67.09375,54.46875 L 68.03125,53.53125 L 66.0625,51.71875 L 67.96875,49.0625 L 67.21875,47.75 L 67.03125,47.75 L 67.5,48.90625 L 65.5625,51.40625 L 64.15625,51.46875 L 65.65625,49 L 67.375,42.15625 L 96.5,26.71875 z M 113.25,29.375 L 115.4375,33.0625 L 113.6875,33.6875 L 111.4375,30.09375 L 113.25,29.375 z M 102.5,29.5 L 110.6875,33.3125 L 109.09375,33.875 L 100.9375,30.1875 L 102.5,29.5 z M 62.0625,30.625 L 65.40625,31.78125 L 64.59375,32.40625 L 64.59375,32.4375 L 63.21875,32.8125 L 63.09375,32.875 L 64.75,32.8125 L 65.375,34.4375 L 66.96875,35.46875 L 61.9375,33.28125 L 62.0625,30.625 z M 49.34375,31.34375 L 57.03125,34 L 54.8125,34.875 L 47.3125,32.3125 L 49.34375,31.34375 z M 65.875,31.9375 L 67.8125,32.59375 L 68.0625,35.5 L 65.75,34.125 L 65.09375,32.5 L 65.09375,32.375 L 65.875,31.9375 z M 111.0625,33.46875 L 112.71875,37.46875 L 110.8125,38.15625 L 109.90625,35.03125 L 110.0625,34.96875 L 109.78125,34.71875 L 109.28125,34.15625 L 111.0625,33.46875 z M 115.625,33.65625 L 115.375,38.65625 L 114.53125,38.0625 L 113.90625,34.375 L 115.625,33.65625 z M 57.71875,34.3125 L 63.125,39.4375 L 60.9375,40.5 L 55.5,35.3125 L 57.71875,34.3125 z M 109.28125,35.25 L 112.46875,43.3125 L 110.21875,44.0625 L 107.59375,35.84375 L 109.28125,35.25 z M 16.71875,36.0625 L 11.877534,38.672973 L 11.742736,42.24527 L 27.202027,49.072297 L 33.702027,45.43277 L 33.34375,41.71875 L 16.71875,36.0625 z M 16.875,36.40625 L 32.71875,41.75 L 28.4375,44.1875 L 26.96875,43.34375 L 27.53125,40.59375 L 24.625,39.9375 L 24.144257,40.19223 C 23.746286,39.84601 21.880282,39.185369 21,38.875 L 20.75,38.8125 C 22.001175,39.669215 22.383993,39.57882 23.6875,40.21875 L 20.78125,41.0625 L 20.71875,41.125 L 24.4375,40.25 L 27.045439,40.875 L 26.28125,43.65625 L 27.8125,44.53125 L 26.84375,45.09375 L 14.46875,39.5625 L 15.65625,39.34375 L 15.65625,39.25 L 17.5625,39.0625 L 17.5,38.875 L 15.71875,38.6875 L 15.84375,37.5 L 15.59375,37.375 L 15.5,38.75 L 13.46875,39.125 L 12.59375,38.71875 L 16.875,36.40625 z M 107.90625,37.1875 L 109.71875,44.3125 L 116.03125,51.96875 L 119.1875,55.4375 L 119.59375,63 L 107.78125,48.0625 L 107.90625,37.1875 z M 113,37.75 L 114.5,38.6875 L 111.4375,38.21875 L 113,37.75 z M 111.15625,38.53125 L 115.5625,39.5625 C 115.64732,41.317435 115.75175,43.334391 115.8125,44.34375 C 115.43902,44.625003 115.08183,44.877418 114.71875,45.125 L 112.875,42.96875 L 111.15625,38.53125 z M 12.125,39 L 13.21875,39.46875 L 13.84375,41.125 L 13.84375,41.0625 L 13.90625,39.78125 L 26.65625,45.46875 L 26.8125,48.53125 L 12.096284,42.06723 L 12.125,39 z M 66.25,39.78125 L 64.84375,40.5 L 64.71875,40.84375 L 61.625,40.75 L 63.65625,39.84375 L 66.25,39.78125 z M 65.09375,40.9375 L 66.8125,41.96875 L 65.3125,48.71875 L 63.6875,51.46875 L 61.75,50.375 L 65.09375,40.9375 z M 71.8125,41.53125 L 79.59375,47.34375 L 77.375,48.125 L 69.34375,42.375 L 71.8125,41.53125 z M 33.1875,41.9375 L 33.5625,45.15625 L 27.34375,48.625 L 27.15625,45.25 L 28.0625,44.75 L 28.65625,45.875 L 28,46.875 L 27.9375,47 L 29.09375,46.1875 L 29.84375,46.3125 L 29.78125,46.1875 L 29.125,45.75 L 28.65625,44.4375 L 33.1875,41.9375 z M 69.1875,42.90625 L 77.28125,48.46875 L 80.59375,58.4375 C 79.895382,58.468765 79.067192,58.491386 78.40625,58.4375 L 78,55.78125 L 77.90625,55.75 L 77.53125,52.75 L 77.40625,52.71875 L 77.53125,55.59375 L 74.96875,54.59375 L 74.8125,54.65625 L 77.46875,56.09375 C 77.613224,56.77157 77.709238,57.576391 77.875,58.28125 L 76.875,59.65625 L 76.9375,59.875 L 78.1875,58.84375 C 78.889017,59.289685 79.92393,59.127319 80.78125,59.125 L 82.21875,66.71875 L 69.53125,54.625 L 69.1875,42.90625 z M 112.78125,43.4375 L 121.46875,53.9375 L 119.3125,54.71875 L 116.375,51.59375 L 110.59375,44.5 L 112.78125,43.4375 z M 79.90625,47.84375 L 83.375,57.625 L 81,58.4375 L 77.75,48.5 L 79.90625,47.84375 z M 40.84375,48.3125 C 39.891443,48.318942 38.950271,48.367355 38,48.40625 L 38.125,51.03125 C 37.65064,51.31449 37.026501,51.27773 36.5,51.4375 L 36.46875,50.90625 L 34.5625,49.125 C 33.106973,49.879636 31.551986,50.176482 29.65625,52.28125 L 29.84375,54.75 C 29.038925,57.621177 29.284853,60.830897 29.46875,63.78125 C 29.90001,64.696695 30.698923,65.317911 31.5,65.90625 L 31,81.71875 L 20.96875,76.8125 L 18.21875,77.75 C 17.532218,78.236722 16.777279,78.463166 16.15625,78.875 L 9.84375,74.1875 L 5.75,73.53125 L 3.25,74.59375 L 31.53125,104.3125 L 34.4375,103.3125 L 35.25,100.84375 L 36.03125,100.15625 C 36.495549,99.738325 38.421614,99.08083 39.53125,98.90625 L 40.09375,101.625 L 44.96875,108.625 L 46.65625,109.78125 C 46.780877,109.91723 46.899639,110.05631 47.03125,110.1875 C 49.277773,109.44123 51.271193,108.28089 52.6875,106.75 L 52.625,105.34375 L 119.9375,80.5 L 117.65625,79.0625 L 105.90625,77.71875 L 91.96875,72.78125 L 77.75,80.4375 L 71,78.4375 L 51.96875,82.59375 L 51.5,83.125 L 50.59375,65.71875 C 51.275589,65.170235 51.655082,64.621957 52,63.875 L 52.03125,62.84375 L 51.53125,59.34375 L 49.21875,56.53125 L 49,56.3125 L 47.8125,55.15625 L 46.875,53.25 L 44.875,52.96875 L 44.46875,51.84375 L 44.5,51.84375 L 43.46875,49.625 C 42.921045,49.273843 41.621798,48.62572 40.84375,48.3125 z M 41.03125,48.71875 L 43,49.75 L 43.59375,51.21875 L 41.78125,49.9375 L 41.03125,48.71875 z M 40.03125,48.75 C 40.260666,48.743181 40.508458,48.747643 40.75,48.75 L 41.28125,49.78125 C 40.754775,49.781088 40.197117,49.835895 39.5625,50 L 38.90625,48.875 C 39.303555,48.795631 39.672163,48.760672 40.03125,48.75 z M 38.3125,48.9375 L 39.15625,50.1875 L 39.4375,52.0625 L 38.46875,50.84375 L 38.3125,48.9375 z M 34.4375,49.625 L 35.625,50.75 C 34.196724,51.146516 33.20473,51.52562 32.21875,52.9375 L 30.5625,52.03125 C 31.595222,50.741238 32.776285,50.285035 34.4375,49.625 z M 41.4375,50.3125 C 41.565817,50.314933 41.687372,50.334991 41.8125,50.34375 L 43.875,51.8125 L 43.90625,51.84375 L 42.5625,52.46875 L 41.21875,51.28125 L 41.28125,51.40625 L 42.34375,53.03125 L 44.21875,52.375 L 44.6875,53.84375 C 43.265451,53.456323 41.726233,53.381651 40.1875,53.5625 C 37.818426,53.95504 35.301362,54.716148 33.59375,56.5 L 32.5,55.8125 L 32.4375,55.5625 L 32.34375,53.5625 C 33.221049,52.11936 34.581866,51.599378 36.125,51.15625 L 36.34375,53.1875 C 37.060183,53.210689 37.860626,53.230974 39.75,52.625 L 39.53125,50.53125 C 40.15213,50.328171 40.797285,50.342358 41.4375,50.3125 z M 61.65625,50.625 L 63.4375,51.71875 L 60,57.375 L 58.46875,56.34375 L 61.65625,50.625 z M 38.25,51.34375 L 39.0625,52.5 C 38.328416,52.792766 37.706843,53.064834 36.78125,52.96875 L 36.75,51.75 C 37.384604,51.772575 37.709336,51.672691 38.25,51.34375 z M 30.09375,52.46875 L 31.96875,53.375 L 32.03125,55.3125 C 31.46487,55.196628 30.934793,55.146284 30.21875,54.65625 L 30.09375,52.46875 z M 45.03125,53.4375 L 46.625,53.5625 L 47.3125,55.09375 L 44.78125,54.75 L 45.3125,54.25 L 45.03125,53.4375 z M 41.46875,53.96875 C 42.606869,53.949583 43.703135,54.050621 44.71875,54.3125 L 44.21875,55 L 47.375,55.5625 C 47.857449,55.930641 48.302504,56.371941 48.71875,56.90625 C 48.736968,57.204607 48.614617,57.307694 48.4375,57.5 L 47.65625,55.96875 C 45.623935,56.95264 43.537815,57.83446 41.0625,57.84375 L 40.78125,60.71875 C 39.67386,60.712011 38.93007,60.811626 37.71875,60.34375 L 37.46875,58 C 35.932788,57.719956 34.708619,57.317048 33.96875,56.84375 C 35.63474,55.162722 37.976413,54.417206 40.25,54.03125 C 40.668945,54.000772 41.061187,53.975614 41.46875,53.96875 z M 121.75,54.03125 L 122.34375,62.75 L 120.1875,63.9375 L 119.40625,55.03125 L 121.75,54.03125 z M 30.25,55.3125 L 32.03125,55.71875 L 32.15625,55.96875 L 30.3125,56.4375 L 30.03125,57.71875 C 29.931587,57.047288 30.024029,55.986285 30.25,55.3125 z M 32.59375,56.34375 C 33.300981,57.202905 34.481133,57.743104 36.59375,58.1875 L 35.09375,58.9375 C 33.57106,58.433483 32.049647,58.957114 30.875,56.9375 L 32.59375,56.34375 z M 47.5,56.4375 L 48.1875,58.34375 C 45.996401,58.965885 44.350233,59.726609 42.03125,59.65625 L 41.59375,58.21875 C 43.487895,58.043736 45.380846,57.552217 47.5,56.4375 z M 49.25,57.46875 L 50.96875,59.34375 C 50.483214,59.965172 49.827046,60.477856 49.1875,60.9375 L 48.90625,58.5625 L 48.65625,58 C 48.994237,57.853338 49.127884,57.784216 49.25,57.46875 z M 30.46875,57.65625 C 31.534107,59.096527 33.368414,59.008781 34.96875,59.59375 L 34.90625,61.75 L 33.96875,63 L 32.59375,63.21875 L 32.71875,63.4375 L 34.09375,63.5625 L 35.09375,65.5625 L 35.28125,65.46875 L 34.4375,63.21875 L 35.34375,62.375 C 36.481083,62.714665 37.809906,62.950227 41.25,63.0625 L 42.3125,64.78125 L 43.96875,64.40625 L 47.75,65.90625 L 47.71875,65.78125 L 44.65625,64.09375 L 46.65625,62.65625 L 48.1875,63.6875 L 48.21875,63.59375 L 47.03125,62.375 L 46.40625,61.125 L 46.15625,61.09375 L 46.71875,62.34375 C 45.91492,62.778666 44.990184,63.314807 44.1875,63.84375 L 44.0625,63.78125 L 42.65625,64.21875 L 41.90625,62.71875 L 41.90625,62.6875 L 42,60.375 C 44.460452,60.43308 46.333599,59.481463 48.53125,58.875 L 48.9375,61.71875 C 49.863632,61.118038 50.603867,60.659794 51.1875,59.90625 L 51.65625,63.125 C 51.652655,63.213469 51.633709,63.295571 51.625,63.40625 C 49.353539,67.080523 44.814082,68.010996 40.875,68.0625 C 37.024854,67.864033 32.545914,67.150593 30.15625,63.71875 C 29.985631,61.578169 29.346448,59.388468 29.78125,57.8125 L 30.21875,58.875 L 30.46875,57.65625 z M 83.1875,58 L 84.78125,66.6875 L 82.84375,67.375 L 81.15625,58.90625 L 83.1875,58 z M 41.1875,58.40625 L 41.65625,60 L 41.46875,62.34375 L 41.125,60.65625 L 41.1875,58.40625 z M 37.21875,58.46875 L 37.28125,60.3125 L 35.40625,61.4375 L 35.5,59.625 L 37.21875,58.46875 z M 37.625,60.6875 C 38.904983,61.17429 39.725044,61.114473 40.84375,61.125 L 41.09375,62.53125 C 39.174235,62.61455 37.440476,62.490943 35.6875,61.78125 L 37.625,60.6875 z M 32.125,66.1875 C 34.831589,67.746782 37.68108,68.36175 40.75,68.5 C 44.009077,68.520061 47.171264,68.146109 49.9375,66.3125 C 50.795255,73.214845 51.799561,99.534495 52.21875,106.5 C 50.514911,107.78309 48.882796,108.69375 47.3125,109.34375 L 47.84375,106.625 L 47.71875,106.53125 L 48.28125,103.4375 L 50.8125,100.34375 L 50.625,100.21875 L 48.4375,102.53125 L 46.96875,97.75 L 46.9375,97.875 L 48,102.90625 L 48.09375,102.875 L 47.84375,103.15625 L 47.28125,106.125 L 42.75,102.1875 L 40.53125,95.8125 L 40.625,95.875 L 46.625,91.28125 C 46.867548,90.286194 46.05507,88.528038 46.125,87.28125 C 47.491896,85.499494 48.538157,83.542 49.59375,81.5625 L 47.875,76 L 47.78125,75.9375 L 49.34375,81.625 C 48.451055,83.279584 47.049012,84.657838 46.09375,86.28125 L 46.125,83.53125 L 43.5625,82.25 L 44.1875,78.6875 L 44.15625,78.65625 L 43.1875,82.03125 L 40.46875,81.5625 L 40.5625,81.71875 L 43.0625,82.5 L 43,82.65625 L 45.90625,83.6875 C 45.824281,84.706062 45.678101,85.957724 45.6875,87.0625 C 45.206352,88.327005 45.883176,89.668064 46.25,90.90625 L 40.0625,95.34375 L 35.5,95.03125 L 35.84375,91.15625 L 37.96875,88.875 L 41.125,87.75 L 41,87.53125 L 37.75,88.6875 L 36.15625,90.25 L 36.40625,87.375 L 38.09375,87.0625 L 38.09375,87.03125 L 36.15625,87.09375 L 35.5,91 L 34.59375,94.625 L 31.46875,92.625 L 33.59375,90.3125 L 32.40625,88.09375 L 32.21875,88.125 L 33.25,90.1875 L 31.03125,92.09375 C 31.277887,81.948985 31.692547,70.489425 32.125,66.1875 z M 91.90625,73.09375 L 93.375,74.28125 L 79.5,82.15625 L 78,80.84375 L 91.90625,73.09375 z M 92.3125,73.125 L 105.84375,78.03125 L 106.53125,79 L 93.78125,74.09375 L 92.3125,73.125 z M 6.03125,73.875 L 9.40625,74.34375 L 7.34375,75.34375 L 3.90625,74.59375 L 6.03125,73.875 z M 93.8125,74.375 L 106.4375,79.3125 L 103.5,81.09375 L 103.1875,81.65625 L 99.21875,81 L 99.25,81.09375 L 102.78125,82.3125 L 101.21875,85.09375 L 96.9375,87.65625 L 97.09375,87.78125 L 101.4375,85.4375 L 103.84375,81.46875 L 106.90625,79.5 L 107.25,79.625 L 112.40625,80 C 112.6883,79.912963 113.06171,80.573551 113.34375,80.59375 L 113.9375,80.25 L 115.1875,81.21875 L 115.4375,80.21875 L 119.03125,80.46875 L 52.59375,104.875 L 51.65625,86.28125 L 51.71875,86.3125 L 53.90625,84.46875 L 72.34375,80.21875 L 79.25,82.65625 L 79.75,85.375 L 77.90625,88.5 L 78,88.53125 L 80.34375,85.625 L 82.59375,86.21875 L 82.65625,86.1875 L 80.28125,85.3125 L 79.78125,82.5 L 93.8125,74.375 z M 9.84375,74.5625 L 15.84375,79.125 C 15.399785,79.451967 15.002192,79.813805 14.6875,80.3125 L 7.75,75.5625 L 9.84375,74.5625 z M 4,74.8125 L 7.125,75.6875 L 14.46875,80.75 L 14.90625,84.4375 L 17.25,85.46875 L 17.3125,85.375 L 15.40625,84.21875 L 14.9375,80.5 C 15.749442,79.41643 17.243492,78.72304 18.3125,78.03125 C 22.494921,80.450037 26.561508,82.414469 30.90625,84.5 L 30.625,93.375 L 34.6875,99.34375 L 32.78125,101 L 30.59375,98.8125 L 30.15625,98.8125 L 30.34375,98.65625 L 29.28125,95.8125 L 29.3125,96 L 29.84375,98.78125 L 27.75,98.75 L 27.59375,98.78125 L 30.3125,99.25 L 32.375,101.59375 L 31.8125,103.4375 L 4,74.8125 z M 20.8125,77.1875 L 31,82.375 L 30.9375,83.96875 C 26.662369,82.196359 23.160911,79.90185 19.03125,77.9375 L 20.8125,77.1875 z M 106.125,78 L 117.53125,79.3125 L 119.0625,80.0625 L 115.125,79.78125 L 115.03125,80.78125 L 113.9375,79.6875 L 113.4375,80.34375 L 112.5625,79.59375 L 107.0625,79.21875 L 106.125,78 z M 70.9375,78.75 L 71.96875,79.875 L 53.71875,84.09375 L 51.96875,83.0625 L 70.9375,78.75 z M 71.46875,78.84375 L 77.625,80.78125 L 78.75,81.8125 L 72.5625,79.96875 L 71.46875,78.84375 z M 51.8125,83.28125 L 53.375,84.21875 L 51.625,85.75 L 51.53125,83.78125 L 51.8125,83.28125 z M 31.0625,92.71875 L 34.375,95.0625 L 37.1875,98.34375 L 35,99.15625 C 33.721363,97.225983 31.80737,94.64835 30.75,93.03125 L 31.0625,92.71875 z M 34.875,95.1875 L 38.84375,95.6875 L 39.40625,98.34375 C 38.515386,98.299933 37.966551,98.73437 37.1875,99.1875 L 38.03125,98.4375 L 34.875,95.1875 z M 39.5625,95.75 L 39.90625,95.78125 L 42.125,102.15625 L 40.5625,101.53125 L 39.5625,95.75 z M 99.375,98.9375 C 98.958786,99.191008 99.0142,100.42159 98.53125,100.65625 C 98.054805,100.88776 97.598107,100.8318 97.1875,101.28125 C 96.858507,101.64137 95.985239,101.27103 95.65625,101.59375 L 84.993276,112.34241 L 85.28125,119.5625 L 91.625,122.28125 L 92.65625,121.3125 L 93.3125,122.3125 L 94.34375,121.96875 L 94.96875,123.71875 L 98.220095,124.81922 C 101.58765,119.48486 105.65825,114.32495 109.1875,108.90625 L 108.84375,102.3125 L 101.53125,99.53125 L 100.8125,100.09375 L 99.375,98.9375 z M 36.84375,99.03125 L 35,100.6875 L 32.96875,101.375 L 35.21875,99.5 L 36.84375,99.03125 z M 99.59375,99.53125 L 100.53125,100.3125 L 100.09375,101.625 L 100.15625,101.65625 L 98.90625,102.71875 L 99.0625,102.75 L 100.71875,102 L 102.5625,103.1875 L 102.625,103.125 L 100.5625,101.53125 L 101.28125,100.0625 L 101.15625,100.09375 C 101.22153,99.956762 101.29061,99.860252 101.40625,99.90625 L 108.1875,102.3125 L 97.21875,116.1875 L 93.34375,114.84375 L 95.875,113.90625 L 96.71875,110.625 L 100.3125,109.4375 L 102.1875,107.4375 L 102.0625,107.25 L 100.15625,109.03125 L 97.15625,109.84375 L 98.25,108.40625 L 96.28125,110.09375 L 96.375,110.125 L 95.53125,113.4375 L 92.5625,114.3125 L 90.75,111.5 L 91.71875,109 L 91.53125,108.875 L 90.625,110.6875 L 88.9375,110.28125 L 87.9375,111.5 L 88.125,111.71875 L 88.875,110.90625 L 90.3125,111.34375 L 90.1875,111.5625 L 91.8125,114.3125 L 85.78125,112.1875 L 95.75,102.21875 L 96.875,101.90625 L 96.375,103.71875 L 96.5625,103.65625 L 97.46875,101.71875 L 98.875,100.71875 L 99.59375,99.53125 z M 34.84375,101.15625 L 34.21875,103.03125 L 32.0625,103.78125 L 32.84375,101.90625 L 34.84375,101.15625 z M 40.84375,102.03125 L 42.5,102.75 L 47.34375,107 L 46.9375,109.75 L 45.34375,108.625 L 40.84375,102.03125 z M 108.46875,102.8125 L 108.9375,108.9375 C 105.70898,114.26485 101.68238,118.74914 98.1875,123.875 L 97.71875,116.71875 L 97.65625,116.6875 L 108.46875,102.8125 z M 85.46875,112.5625 L 92.1875,114.90625 L 92.21875,114.96875 L 91.59375,116.625 L 90.1875,116.6875 L 88.4375,114.28125 L 88.3125,114.5 L 89.5,116.75 L 88.21875,118.25 L 88.28125,118.3125 L 89.84375,117.1875 L 91.625,117.125 L 93.6875,118.59375 L 92.5,120.90625 L 91.84375,121.6875 L 86,119.1875 L 85.46875,112.5625 z M 92.65625,115.09375 L 97.25,116.6875 L 97.71875,124.28125 C 96.906512,123.93468 95.564912,123.34657 94.90625,123 L 94.53125,121.1875 L 93.4375,121.84375 L 93.21875,121.34375 L 93.28125,121.375 L 94.28125,118.84375 L 95.96875,118.09375 L 95.9375,117.96875 L 93.96875,118.21875 L 91.875,116.9375 L 92.65625,115.09375 z"
       id="path2312"
       sodipodi:nodetypes="cccccccccccccccccccccccccccccccccccccccccccccccccccccccccccccccccccccccccccccccccccccccsscssccccccccccccccccccccccccccccccccccccccccccccccccccccccccccccccccccccccccccccccccccccccccccccccccccccccccccccccccccccccccccccccccccccccccccccccccccccccccccccccccccccccccccccccccccccccccccccccccccccccccccccccccccccccccccccccccccccccccccccccccccccccccccccccccccccccccccccccccccccccccccccccccccccccccccccccccccccccccccccccccccccccccccccccccccccccccccccccccccccccccccccccccccccccccccccccccccccccccccccccccccccccccccccccccccccccccccccccccccccccccccccccccccccccccccccccccccccccccccccccccccccccccccccccccccccccccccccccccccccccccccccccccccccccccccccccccccccccccccccccccccccccccccccccccccccccccccccccccccccccccccccccccccccccccccccccccccccccccccccccccccccccccccccccccccccccccccccccccccccccccccccccccccccccsscccccccccccccccccccccccccccccccccccccccccccccccccccccccccccccccccccccccccccccccccccccccccccccccccccccccccccccccccc" />
  </g>
</svg>
