<?xml version="1.0" encoding="UTF-8" standalone="no"?>
<!-- Created with Inkscape (http://www.inkscape.org/) -->
<svg
   xmlns:dc="http://purl.org/dc/elements/1.1/"
   xmlns:cc="http://creativecommons.org/ns#"
   xmlns:rdf="http://www.w3.org/1999/02/22-rdf-syntax-ns#"
   xmlns:svg="http://www.w3.org/2000/svg"
   xmlns="http://www.w3.org/2000/svg"
   xmlns:xlink="http://www.w3.org/1999/xlink"
   xmlns:sodipodi="http://sodipodi.sourceforge.net/DTD/sodipodi-0.dtd"
   xmlns:inkscape="http://www.inkscape.org/namespaces/inkscape"
   width="128"
   height="128"
   id="svg2"
   sodipodi:version="0.32"
   inkscape:version="0.45+devel"
   version="1.0"
   sodipodi:docname="shipwreck.svg"
   inkscape:output_extension="org.inkscape.output.svg.inkscape">
  <defs
     id="defs4">
    <linearGradient
       id="linearGradient3049">
      <stop
         style="stop-color:#cfc7a9;stop-opacity:1;"
         offset="0"
         id="stop3051" />
      <stop
         style="stop-color:#eeebe0;stop-opacity:1;"
         offset="1"
         id="stop3053" />
    </linearGradient>
    <linearGradient
       id="linearGradient2320">
      <stop
         id="stop2322"
         offset="0"
         style="stop-color:#6a3c1d;stop-opacity:1;" />
      <stop
         id="stop2324"
         offset="1"
         style="stop-color:#8f5127;stop-opacity:1;" />
    </linearGradient>
    <linearGradient
       id="linearGradient3332">
      <stop
         id="stop3334"
         offset="0"
         style="stop-color:#bb8f56;stop-opacity:1;" />
      <stop
         id="stop3336"
         offset="1"
         style="stop-color:#d1af63;stop-opacity:1;" />
    </linearGradient>
    <linearGradient
       inkscape:collect="always"
       xlink:href="#linearGradient2320"
       id="linearGradient2433"
       x1="15.481081"
       y1="108.41081"
       x2="17.297297"
       y2="111.78378"
       gradientUnits="userSpaceOnUse" />
    <linearGradient
       inkscape:collect="always"
       xlink:href="#linearGradient2320"
       id="linearGradient2437"
       x1="49.658009"
       y1="98.55378"
       x2="57.852802"
       y2="103.75197"
       gradientUnits="userSpaceOnUse" />
    <linearGradient
       inkscape:collect="always"
       xlink:href="#linearGradient2320"
       id="linearGradient2441"
       x1="87.084976"
       y1="84.916183"
       x2="89.653496"
       y2="86.995453"
       gradientUnits="userSpaceOnUse" />
    <linearGradient
       inkscape:collect="always"
       xlink:href="#linearGradient2320"
       id="linearGradient2445"
       gradientUnits="userSpaceOnUse"
       x1="71.735023"
       y1="93.294441"
       x2="71.857338"
       y2="96.841438" />
    <linearGradient
       inkscape:collect="always"
       xlink:href="#linearGradient2320"
       id="linearGradient2449"
       x1="108.4893"
       y1="60.515255"
       x2="110.69087"
       y2="61.616051"
       gradientUnits="userSpaceOnUse" />
    <linearGradient
       inkscape:collect="always"
       xlink:href="#linearGradient2320"
       id="linearGradient2453"
       x1="56.302704"
       y1="89.946922"
       x2="90.624512"
       y2="55.525299"
       gradientUnits="userSpaceOnUse" />
    <linearGradient
       inkscape:collect="always"
       xlink:href="#linearGradient2320"
       id="linearGradient2457"
       x1="102.00015"
       y1="89.44059"
       x2="110.39704"
       y2="98.986526"
       gradientUnits="userSpaceOnUse" />
    <linearGradient
       inkscape:collect="always"
       xlink:href="#linearGradient2320"
       id="linearGradient2461"
       x1="112.51836"
       y1="94.022591"
       x2="113.40225"
       y2="94.022591"
       gradientUnits="userSpaceOnUse" />
    <linearGradient
       inkscape:collect="always"
       xlink:href="#linearGradient2320"
       id="linearGradient2465"
       x1="103.76793"
       y1="89.175415"
       x2="104.6076"
       y2="88.070564"
       gradientUnits="userSpaceOnUse" />
    <linearGradient
       inkscape:collect="always"
       xlink:href="#linearGradient2320"
       id="linearGradient2469"
       x1="95.238441"
       y1="61.399384"
       x2="91.747101"
       y2="70.856934"
       gradientUnits="userSpaceOnUse" />
    <linearGradient
       inkscape:collect="always"
       xlink:href="#linearGradient2320"
       id="linearGradient3052"
       x1="87.504463"
       y1="58.394176"
       x2="87.416077"
       y2="58.924507"
       gradientUnits="userSpaceOnUse" />
    <linearGradient
       inkscape:collect="always"
       xlink:href="#linearGradient2320"
       id="linearGradient3056"
       x1="91.791298"
       y1="56.096081"
       x2="92.586792"
       y2="56.449635"
       gradientUnits="userSpaceOnUse" />
    <linearGradient
       inkscape:collect="always"
       xlink:href="#linearGradient2320"
       id="linearGradient3060"
       x1="99.43689"
       y1="58.52676"
       x2="99.348495"
       y2="59.366447"
       gradientUnits="userSpaceOnUse" />
    <linearGradient
       inkscape:collect="always"
       xlink:href="#linearGradient2320"
       id="linearGradient3064"
       x1="101.42563"
       y1="65.111694"
       x2="100.80692"
       y2="65.244278"
       gradientUnits="userSpaceOnUse" />
    <linearGradient
       inkscape:collect="always"
       xlink:href="#linearGradient2320"
       id="linearGradient3068"
       x1="101.07207"
       y1="70.834839"
       x2="101.07207"
       y2="71.718719"
       gradientUnits="userSpaceOnUse" />
    <linearGradient
       inkscape:collect="always"
       xlink:href="#linearGradient2320"
       id="linearGradient3072"
       x1="85.250565"
       y1="66.768974"
       x2="85.957672"
       y2="67.564468"
       gradientUnits="userSpaceOnUse" />
    <linearGradient
       inkscape:collect="always"
       xlink:href="#linearGradient2320"
       id="linearGradient3088"
       x1="92.675179"
       y1="64.426682"
       x2="93.205505"
       y2="63.36602"
       gradientUnits="userSpaceOnUse" />
    <linearGradient
       inkscape:collect="always"
       xlink:href="#linearGradient2320"
       id="linearGradient3092"
       x1="96.741051"
       y1="62.614719"
       x2="98.332039"
       y2="62.614719"
       gradientUnits="userSpaceOnUse" />
    <linearGradient
       inkscape:collect="always"
       xlink:href="#linearGradient2320"
       id="linearGradient3096"
       x1="86.92994"
       y1="70.017244"
       x2="93.559066"
       y2="70.017244"
       gradientUnits="userSpaceOnUse" />
    <linearGradient
       inkscape:collect="always"
       xlink:href="#linearGradient2320"
       id="linearGradient3100"
       x1="83.875"
       y1="53.125"
       x2="88"
       y2="47.25"
       gradientUnits="userSpaceOnUse" />
    <linearGradient
       inkscape:collect="always"
       xlink:href="#linearGradient2320"
       id="linearGradient3104"
       x1="24.75"
       y1="61.3125"
       x2="26.590591"
       y2="61.3125"
       gradientUnits="userSpaceOnUse" />
    <linearGradient
       inkscape:collect="always"
       xlink:href="#linearGradient2320"
       id="linearGradient3108"
       x1="31.78125"
       y1="69.15625"
       x2="30.75"
       y2="71.9375"
       gradientUnits="userSpaceOnUse" />
    <linearGradient
       inkscape:collect="always"
       xlink:href="#linearGradient2320"
       id="linearGradient3112"
       x1="38.21875"
       y1="39.515625"
       x2="40.53125"
       y2="39.703125"
       gradientUnits="userSpaceOnUse" />
    <linearGradient
       inkscape:collect="always"
       xlink:href="#linearGradient2320"
       id="linearGradient3116"
       x1="49.762638"
       y1="53.135071"
       x2="48.657787"
       y2="55.388973"
       gradientUnits="userSpaceOnUse" />
    <linearGradient
       inkscape:collect="always"
       xlink:href="#linearGradient2320"
       id="linearGradient3120"
       x1="57.452427"
       y1="41.953941"
       x2="58.159531"
       y2="45.312702"
       gradientUnits="userSpaceOnUse" />
    <linearGradient
       inkscape:collect="always"
       xlink:href="#linearGradient2320"
       id="linearGradient3124"
       x1="79.726288"
       y1="34.706097"
       x2="79.151764"
       y2="36.694836"
       gradientUnits="userSpaceOnUse" />
    <linearGradient
       inkscape:collect="always"
       xlink:href="#linearGradient3332"
       id="linearGradient2428"
       x1="33.985569"
       y1="79.901451"
       x2="35.935135"
       y2="81.804153"
       gradientUnits="userSpaceOnUse" />
    <linearGradient
       inkscape:collect="always"
       xlink:href="#linearGradient2320"
       id="linearGradient3029"
       x1="54.659462"
       y1="26.313513"
       x2="52.670269"
       y2="27.135136"
       gradientUnits="userSpaceOnUse" />
    <linearGradient
       inkscape:collect="always"
       xlink:href="#linearGradient3332"
       id="linearGradient3033"
       x1="89.859459"
       y1="34.724323"
       x2="91.589188"
       y2="35.978378"
       gradientUnits="userSpaceOnUse" />
    <linearGradient
       inkscape:collect="always"
       xlink:href="#linearGradient3332"
       id="linearGradient3037"
       x1="97.967567"
       y1="28.086487"
       x2="99.545944"
       y2="29.210812"
       gradientUnits="userSpaceOnUse" />
    <linearGradient
       inkscape:collect="always"
       xlink:href="#linearGradient3049"
       id="linearGradient3055"
       x1="38.833542"
       y1="24.219658"
       x2="46.32505"
       y2="30.090555"
       gradientUnits="userSpaceOnUse" />
    <linearGradient
       inkscape:collect="always"
       xlink:href="#linearGradient3049"
       id="linearGradient3059"
       x1="37.578381"
       y1="42.81081"
       x2="45.405407"
       y2="46.054054"
       gradientUnits="userSpaceOnUse" />
    <linearGradient
       inkscape:collect="always"
       xlink:href="#linearGradient3049"
       id="linearGradient3063"
       x1="24"
       y1="53.924324"
       x2="31.43784"
       y2="55.956757"
       gradientUnits="userSpaceOnUse" />
    <linearGradient
       inkscape:collect="always"
       xlink:href="#linearGradient3049"
       id="linearGradient3067"
       x1="24"
       y1="62.032432"
       x2="30.962162"
       y2="64.88649"
       gradientUnits="userSpaceOnUse" />
    <filter
       inkscape:collect="always"
       id="filter3149"
       x="-0.11840964"
       width="1.2368193"
       y="-0.28905882"
       height="1.5781176">
      <feGaussianBlur
         inkscape:collect="always"
         stdDeviation="0.7083243"
         id="feGaussianBlur3151" />
    </filter>
    <filter
       inkscape:collect="always"
       id="filter3189">
      <feGaussianBlur
         inkscape:collect="always"
         stdDeviation="1.1213434"
         id="feGaussianBlur3191" />
    </filter>
  </defs>
  <sodipodi:namedview
     id="base"
     pagecolor="#ffffff"
     bordercolor="#666666"
     borderopacity="1.0"
     gridtolerance="10000"
     guidetolerance="10"
     objecttolerance="10"
     inkscape:pageopacity="0.0"
     inkscape:pageshadow="2"
     inkscape:zoom="1"
     inkscape:cx="239"
     inkscape:cy="64"
     inkscape:document-units="px"
     inkscape:current-layer="layer2"
     showgrid="false"
     width="744.09px"
     inkscape:window-width="1248"
     inkscape:window-height="975"
     inkscape:window-x="377"
     inkscape:window-y="24"
     showguides="true"
     inkscape:guide-bbox="true" />
  <metadata
     id="metadata7">
    <rdf:RDF>
      <cc:Work
         rdf:about="">
        <dc:format>image/svg+xml</dc:format>
        <dc:type
           rdf:resource="http://purl.org/dc/dcmitype/StillImage" />
      </cc:Work>
    </rdf:RDF>
  </metadata>
  <g
     inkscape:groupmode="layer"
     id="layer2"
     inkscape:label="colors">
    <path
       style="fill:#000000;fill-rule:evenodd;stroke:none;stroke-width:1px;stroke-linecap:butt;stroke-linejoin:miter;stroke-opacity:1;fill-opacity:0.66666669000000001;filter:url(#filter3149)"
       d="M 101.70811,95.654054 L 95.654054,91.675676 L 100.4973,89.772973 L 110.01081,95.481081 L 101.70811,95.654054 z"
       id="path3091" />
    <path
       style="fill:#000000;fill-rule:evenodd;stroke:none;stroke-width:1px;stroke-linecap:butt;stroke-linejoin:miter;stroke-opacity:1;fill-opacity:0.70588236999999998;filter:url(#filter3189)"
       d="M 37.18919,101.53513 C 37.18919,101.53513 15.740541,96.345945 14.356757,94.616216 C 13.492311,93.535659 26.179288,84.735068 35.85283,78.32491 L 27.716804,72.754026 L 26.61211,73.815259 L 24.542525,71.443143 L 24.77153,69.200083 L 27.321243,69.81279 L 32.724965,63.309459 L 34.272595,64.609222 L 29.643239,71.224736 L 39.356194,76.003411 C 43.428435,73.304947 46.356756,71.437838 46.356756,71.437838 L 55.524324,74.378378 L 65.793178,67.510673 L 42.508865,55.351419 L 40.239544,58.677149 L 40.038727,54.868505 L 40.194015,51.089389 L 42.416275,51.645454 L 47.453135,44.684258 L 49.593957,45.759932 L 45.158489,52.731069 L 69.182255,65.244093 L 82.681081,56.216216 C 82.681081,56.216216 80.778378,53.621622 80.605405,52.92973 C 80.561617,52.754577 86.0682,45.800341 87.600195,44.940992 L 69.581385,34.722244 L 72.890225,33.621344 L 89.301987,40.865367 C 92.73699,39.331445 94.145036,37.110669 95.913514,36.410811 L 89.427027,76.108108 L 37.18919,101.53513 z"
       id="path3069"
       sodipodi:nodetypes="cscccccccccccccccccccccccsccccccc" />
    <path
       style="fill:url(#linearGradient2433);fill-rule:evenodd;stroke:none;stroke-width:1px;stroke-linecap:butt;stroke-linejoin:miter;stroke-opacity:1"
       d="M 9.1064124,111.63921 L 15.221622,108.02162 L 22.054054,104.04324 L 25.427027,102.22703 L 23.153047,106.36788 L 26.637838,104.64865 L 25.945946,106.63784 L 27.762162,106.81081 L 26.032432,108.62703 L 26.291892,109.66486 L 22.832432,110.0973 L 20.410811,110.87568 L 17.210811,112.43243 L 12.886486,114.59459 L 13.232432,113.03784 L 11.675676,113.12432 L 10.637838,113.12432 L 11.502703,111.65405 L 9.1064124,111.63921 z"
       id="path2431"
       sodipodi:nodetypes="ccccccccccccccccccc" />
    <path
       style="fill:url(#linearGradient2437);fill-rule:evenodd;stroke:none;stroke-width:1px;stroke-linecap:butt;stroke-linejoin:miter;stroke-opacity:1"
       d="M 27.703297,96.443927 L 37.06004,96.933168 L 45.68292,97.483565 L 55.956991,97.850496 L 65.680665,97.728185 L 71.612717,97.66703 L 66.659147,98.767823 C 66.659147,98.767823 57.791646,101.33634 56.996629,101.51981 C 56.201611,101.70327 47.2118,102.86522 47.2118,102.86522 C 47.2118,102.86522 44.154041,102.80407 43.114403,102.6206 C 42.074765,102.43713 37.610436,101.27519 37.243505,101.09172 C 36.876574,100.90825 31.433763,98.767823 31.433763,98.767823 L 27.703297,96.443927 z"
       id="path2435" />
    <path
       style="fill:url(#linearGradient2441);fill-rule:evenodd;stroke:none;stroke-width:1px;stroke-linecap:butt;stroke-linejoin:miter;stroke-opacity:1"
       d="M 80.113288,96.13815 L 85.250322,92.71346 C 85.250322,92.71346 91.916237,86.903718 91.916237,86.659098 C 91.916237,86.414477 99.805256,78.89239 99.805256,78.89239 L 99.438325,75.956941 L 100.60027,74.733837 L 99.805256,73.81651 L 99.438325,71.614923 L 90.937754,80.910511 L 79.990977,91.979598 L 80.113288,96.13815 z"
       id="path2439"
       sodipodi:nodetypes="ccscccccccc" />
    <path
       id="path2443"
       d="M 27.03059,89.227615 C 26.357883,89.594546 18.65233,92.958081 18.65233,92.958081 L 22.505107,92.652305 L 21.343158,94.303495 L 23.48359,94.24234 L 20.120055,96.688547 L 25.746331,96.566237 L 37.916212,96.749702 L 50.575335,97.728185 L 64.763337,97.728185 L 72.652355,97.361254 L 80.480219,96.199305 L 80.480218,91.490357 L 66.414527,93.753099 L 58.036267,93.936564 L 48.924145,93.447323 C 48.924145,93.447323 37.18235,91.857288 36.570798,91.673822 C 35.959247,91.490357 26.969435,89.411081 27.03059,89.227615 z"
       style="fill:url(#linearGradient2445);fill-rule:evenodd;stroke:none;stroke-width:1px;stroke-linecap:butt;stroke-linejoin:miter;stroke-opacity:1"
       sodipodi:nodetypes="ccccccccccccccccsc" />
    <path
       style="fill:url(#linearGradient2449);fill-rule:evenodd;stroke:none;stroke-width:1px;stroke-linecap:butt;stroke-linejoin:miter;stroke-opacity:1"
       d="M 102.31262,68.373698 L 106.77695,62.747422 L 112.95362,54.063386 L 115.76676,48.742885 L 116.13369,50.027144 L 116.19484,51.433713 L 113.74864,56.815369 L 110.26279,63.970525 L 108.73391,66.967129 L 106.2877,67.028284 L 105.30922,68.496009 L 102.31262,68.373698 z"
       id="path2447" />
    <path
       style="fill:url(#linearGradient2453);fill-rule:evenodd;stroke:none;stroke-width:1px;stroke-linecap:butt;stroke-linejoin:miter;stroke-opacity:1"
       d="M 27.589189,89.340541 L 34.594595,91.243243 L 45.145946,93.145946 L 54.227027,93.924324 L 61.338893,93.942677 L 66.878779,93.709059 L 76.540541,92.540541 L 80.25946,91.935135 L 90.511181,81.246634 L 94.702703,76.972973 L 98.398686,72.960337 L 99.852893,71.376855 L 99.408198,71.007673 L 97.148843,71.89797 L 94.729376,69.841423 L 91.24353,76.079251 L 89.103099,70.63644 L 82.376029,70.330664 L 87.146133,64.643232 L 83.313901,57.247039 L 90.509668,59.078111 L 93.383962,51.494868 L 95.279772,57.793852 L 106.59348,59.628508 L 101.21182,61.707784 L 101.88453,68.86294 L 104.81998,65.254784 L 110.07933,58.650025 L 115.7056,49.232127 L 114.4825,42.688522 L 111.66936,36.511849 L 106.96041,31.864055 L 102.49608,29.234382 L 99.316014,30.457486 L 96.625186,32.108676 L 92.77241,34.98297 L 88.002306,41.404264 L 87.757685,42.199281 L 92.588944,47.580937 L 86.962668,51.372558 L 79.257115,57.426921 L 64.457561,70.63644 L 60.421319,73.999975 L 53.388473,70.819906 L 47.456421,72.838027 L 41.279747,76.446182 L 38.221988,78.464303 C 38.221988,78.464303 34.002281,82.255925 33.63535,82.684011 C 33.268419,83.112097 27.703297,89.472236 27.589189,89.340541 z"
       id="path2451"
       sodipodi:nodetypes="cccccccccccccccccccccccccccccccccccccccccccccccsc" />
    <path
       style="fill:url(#linearGradient2457);fill-rule:evenodd;stroke:none;stroke-width:1px;stroke-linecap:butt;stroke-linejoin:miter;stroke-opacity:1"
       d="M 101.38143,86.81103 L 101.82338,95.3847 L 103.54695,96.489554 L 112.12062,100.55542 L 112.2532,88.004273 L 109.15961,90.081399 L 106.24279,87.960078 L 104.25406,90.346564 L 101.38143,86.81103 z"
       id="path2455" />
    <path
       style="fill:url(#linearGradient2461);fill-rule:evenodd;stroke:none;stroke-width:1px;stroke-linecap:butt;stroke-linejoin:miter;stroke-opacity:1"
       d="M 112.03223,100.29025 L 112.42998,87.606525 C 112.42998,87.606525 113.88839,86.899418 113.88839,87.076195 C 113.88839,87.252972 113.35806,100.99736 113.35806,100.99736 L 112.03223,100.29025 z"
       id="path2459" />
    <path
       style="fill:url(#linearGradient2465);fill-rule:evenodd;stroke:none;stroke-width:1px;stroke-linecap:butt;stroke-linejoin:miter;stroke-opacity:1"
       d="M 101.29305,86.2807 L 102.30951,85.838758 L 104.82858,89.153321 L 106.15441,87.650719 L 107.65701,87.032001 L 109.82252,89.418486 L 109.07122,90.081399 L 106.37538,87.915884 L 104.43083,90.30237 L 101.42563,86.987807 L 101.29305,86.2807 z"
       id="path2463" />
    <path
       style="fill:url(#linearGradient2469);fill-rule:evenodd;stroke:none;stroke-width:1px;stroke-linecap:butt;stroke-linejoin:miter;stroke-opacity:1"
       d="M 83.836348,58.349982 L 91.260969,60.692273 L 93.824231,53.400234 L 95.326833,58.836118 L 104.51922,60.471302 L 100.93949,62.018098 L 100.36497,63.5207 L 101.55821,69.000778 L 102.92823,71.03371 L 99.790445,70.591768 L 97.138794,71.961787 L 94.575532,69.796273 L 91.349358,76.11604 L 89.228037,70.547574 L 82.156969,70.326603 L 87.195105,64.625555 L 83.836348,58.349982 z"
       id="path2467" />
    <path
       id="path2471"
       d="M 83.836348,58.349982 L 91.260969,60.692273 L 93.824231,53.400234 L 95.326833,58.836118 L 104.51922,60.471302 L 100.93949,62.018098 L 100.36497,63.5207 L 101.55821,69.000778 L 102.92823,71.03371 L 99.790445,70.591768 L 97.138794,71.961787 L 94.575532,69.796273 L 91.349358,76.11604 L 89.228037,70.547574 L 82.156969,70.326603 L 87.195105,64.625555 L 83.836348,58.349982 z"
       style="fill:#000000;fill-rule:evenodd;stroke:none;stroke-width:1px;stroke-linecap:butt;stroke-linejoin:miter;stroke-opacity:1;fill-opacity:0.15686275" />
    <path
       style="fill:url(#linearGradient3052);fill-rule:evenodd;stroke:none;stroke-width:1px;stroke-linecap:butt;stroke-linejoin:miter;stroke-opacity:1"
       d="M 83.880542,58.305788 L 91.084192,60.648079 L 90.774833,59.012894 L 83.21763,57.200933 L 83.880542,58.305788 z"
       id="path3050" />
    <path
       style="fill:url(#linearGradient3056);fill-rule:evenodd;stroke:none;stroke-width:1px;stroke-linecap:butt;stroke-linejoin:miter;stroke-opacity:1"
       d="M 90.642251,59.233865 L 93.38229,51.499885 L 93.91262,53.267652 L 91.260969,60.692273 L 90.730639,60.33872 L 90.642251,59.233865 z"
       id="path3054"
       sodipodi:nodetypes="cccccc" />
    <path
       style="fill:url(#linearGradient3060);fill-rule:evenodd;stroke:none;stroke-width:1px;stroke-linecap:butt;stroke-linejoin:miter;stroke-opacity:1"
       d="M 95.371027,57.731263 L 106.33118,59.80839 L 104.20986,60.559691 L 95.194251,58.924506 L 94.97328,57.863846 L 95.371027,57.731263 z"
       id="path3058" />
    <path
       style="fill:url(#linearGradient3064);fill-rule:evenodd;stroke:none;stroke-width:1px;stroke-linecap:butt;stroke-linejoin:miter;stroke-opacity:1"
       d="M 101.11627,62.018098 L 100.27658,63.476506 L 101.51402,69.089166 L 101.95596,68.735613 L 101.11627,62.018098 z"
       id="path3062" />
    <path
       style="fill:url(#linearGradient3068);fill-rule:evenodd;stroke:none;stroke-width:1px;stroke-linecap:butt;stroke-linejoin:miter;stroke-opacity:1"
       d="M 99.348503,70.989516 L 100.05561,70.591768 L 102.79565,71.122098 L 102.66307,72.403729 L 99.348503,70.989516 z"
       id="path3066" />
    <path
       style="fill:url(#linearGradient3072);fill-rule:evenodd;stroke:none;stroke-width:1px;stroke-linecap:butt;stroke-linejoin:miter;stroke-opacity:1"
       d="M 82.466329,70.194021 L 87.062523,64.802331 L 87.46027,66.658487 L 82.819882,70.326603 L 82.466329,70.194021 z"
       id="path3070" />
    <path
       id="path3074"
       d="M 83.880542,58.305788 L 91.084192,60.648079 L 90.774833,59.012894 L 83.21763,57.200933 L 83.880542,58.305788 z"
       style="fill:#000000;fill-rule:evenodd;stroke:none;stroke-width:1px;stroke-linecap:butt;stroke-linejoin:miter;stroke-opacity:1;fill-opacity:0.15686275" />
    <path
       sodipodi:nodetypes="cccccc"
       id="path3076"
       d="M 90.642251,59.233865 L 93.38229,51.499885 L 93.91262,53.267652 L 91.260969,60.692273 L 90.730639,60.33872 L 90.642251,59.233865 z"
       style="fill:#000000;fill-rule:evenodd;stroke:none;stroke-width:1px;stroke-linecap:butt;stroke-linejoin:miter;stroke-opacity:1;fill-opacity:0.15686275" />
    <path
       id="path3078"
       d="M 95.371027,57.731263 L 106.33118,59.80839 L 104.20986,60.559691 L 95.194251,58.924506 L 94.97328,57.863846 L 95.371027,57.731263 z"
       style="fill:#000000;fill-rule:evenodd;stroke:none;stroke-width:1px;stroke-linecap:butt;stroke-linejoin:miter;stroke-opacity:1;fill-opacity:0.15686275" />
    <path
       id="path3080"
       d="M 101.11627,62.018098 L 100.27658,63.476506 L 101.51402,69.089166 L 101.95596,68.735613 L 101.11627,62.018098 z"
       style="fill:#000000;fill-rule:evenodd;stroke:none;stroke-width:1px;stroke-linecap:butt;stroke-linejoin:miter;stroke-opacity:1;fill-opacity:0.15686275" />
    <path
       id="path3082"
       d="M 99.348503,70.989516 L 100.05561,70.591768 L 102.79565,71.122098 L 102.66307,72.403729 L 99.348503,70.989516 z"
       style="fill:#000000;fill-rule:evenodd;stroke:none;stroke-width:1px;stroke-linecap:butt;stroke-linejoin:miter;stroke-opacity:1;fill-opacity:0.15686275" />
    <path
       id="path3084"
       d="M 82.466329,70.194021 L 87.062523,64.802331 L 87.46027,66.658487 L 82.819882,70.326603 L 82.466329,70.194021 z"
       style="fill:#000000;fill-rule:evenodd;stroke:none;stroke-width:1px;stroke-linecap:butt;stroke-linejoin:miter;stroke-opacity:1;fill-opacity:0.15686275" />
    <path
       style="fill:url(#linearGradient3088);fill-rule:evenodd;stroke:none;stroke-width:1px;stroke-linecap:butt;stroke-linejoin:miter;stroke-opacity:1"
       d="M 84.101513,58.349982 L 89.979338,60.206137 L 92.01227,62.371652 L 94.575532,63.962642 L 95.459416,64.404584 L 95.945552,65.42105 L 96.431688,66.039768 L 97.448154,66.083962 L 98.332037,65.42105 L 100.76272,65.686215 L 101.24885,67.763341 L 99.878833,67.940118 L 98.332037,67.895923 L 94.266173,66.791069 L 90.642251,64.537166 L 85.736697,61.752933 L 84.101513,58.349982 z"
       id="path3086" />
    <path
       style="fill:url(#linearGradient3092);fill-rule:evenodd;stroke:none;stroke-width:1px;stroke-linecap:butt;stroke-linejoin:miter;stroke-opacity:1"
       d="M 96.03394,59.101283 L 95.636192,64.802331 L 95.945552,65.509438 L 96.520076,66.128156 L 97.757513,65.907186 L 98.243649,65.332661 L 98.376231,63.255535 L 98.818173,59.454836 L 96.03394,59.101283 z"
       id="path3090" />
    <path
       style="fill:url(#linearGradient3096);fill-rule:evenodd;stroke:none;stroke-width:1px;stroke-linecap:butt;stroke-linejoin:miter;stroke-opacity:1"
       d="M 86.92994,70.326603 L 92.454212,67.01204 L 92.056464,68.293671 L 93.07293,68.647224 L 92.365824,69.13336 L 93.559066,69.575302 L 90.067726,73.022448 L 89.139649,70.635962 L 86.92994,70.326603 z"
       id="path3094" />
    <path
       style="fill:url(#linearGradient3100);fill-rule:evenodd;stroke:none;stroke-width:1px;stroke-linecap:butt;stroke-linejoin:miter;stroke-opacity:1"
       d="M 87.5,42.4375 L 82.625,54.625 L 86.625,51.875 L 92.6875,47.6875 L 87.9375,42.25 L 87.5,42.4375 z"
       id="path3098" />
    <path
       style="fill:url(#linearGradient3104);fill-rule:evenodd;stroke:none;stroke-width:1px;stroke-linecap:butt;stroke-linejoin:miter;stroke-opacity:1"
       d="M 24.0625,72.625 L 24.4375,58.59375 L 24.46875,54.90625 L 24.46875,54.25 L 24.625,50 L 24.78125,49.625 L 25.3125,49.9375 L 25.625,49.96875 L 25.8125,48.125 L 26.0625,48.3125 L 26.5625,49.40625 C 26.5625,49.40625 27.375,48.78125 27.1875,49 C 27,49.21875 27.125,56.15625 27.125,56.15625 L 26.09375,56.46875 L 26.4375,57.03125 L 24.84375,57.34375 L 27.1875,58.3125 L 27.15625,66.53125 L 26.84375,74.5 L 26.34375,73.4375 L 25.53125,73.4375 L 25.03125,72.65625 L 24.21875,72.875 L 24.0625,72.625 z"
       id="path3102" />
    <path
       style="fill:url(#linearGradient3108);fill-rule:evenodd;stroke:none;stroke-width:1px;stroke-linecap:butt;stroke-linejoin:miter;stroke-opacity:1"
       d="M 39.96875,72.46875 L 21.9375,64.15625 L 20.84375,64.5625 L 21.40625,65.96875 L 17.09375,65.8125 L 16.375,66.132264 L 35.28125,75.59375 L 39.3125,77.78125 L 43.59375,74.8125 L 39.96875,72.46875 z"
       id="path3106"
       sodipodi:nodetypes="cccccccccc" />
    <path
       style="fill:url(#linearGradient3112);fill-rule:evenodd;stroke:none;stroke-width:1px;stroke-linecap:butt;stroke-linejoin:miter;stroke-opacity:1"
       d="M 37.21875,56.96875 L 38.09375,46.6875 L 38.15625,38.09375 L 38.25,19.65625 L 38.1875,17.65625 L 38.75,19.25 L 39.34375,18.65625 L 39.65625,19.5625 L 40.28125,18.3125 L 41.4375,22.15625 L 41.21875,28.6875 L 41.09375,34.875 L 40.03125,35.25 L 40.71875,35.9375 L 40.5,36.625 L 41.0625,37.3125 L 40.84375,46.625 L 40.6875,55.4375 L 40.53125,61.75 L 39.9375,58.8125 L 38.15625,58.375 L 38.09375,56.96875 L 37.25,57.125 L 37.21875,56.96875 z"
       id="path3110" />
    <path
       style="fill:url(#linearGradient3116);fill-rule:evenodd;stroke:none;stroke-width:1px;stroke-linecap:butt;stroke-linejoin:miter;stroke-opacity:1"
       d="M 73.406523,62.592623 L 55.198523,54.505089 L 54.403028,55.433166 L 54.049475,56.538021 L 53.563339,54.637671 L 52.856232,55.212196 L 52.458484,53.400234 L 27.577165,42.440079 L 27.621359,44.03107 L 26.516504,44.340429 L 27.00264,45.754642 L 24.571961,45.047536 L 25.588427,46.108196 L 69.163882,66.48171 L 73.406523,62.592623 z"
       id="path3114" />
    <path
       style="fill:url(#linearGradient3120);fill-rule:evenodd;stroke:none;stroke-width:1px;stroke-linecap:butt;stroke-linejoin:miter;stroke-opacity:1"
       d="M 48.967145,42.882021 L 71.594562,40.097788 L 68.368387,42.351691 L 70.578096,42.793633 L 66.909979,43.544934 L 68.235805,44.473011 L 50.027805,47.345633 L 52.679455,45.533671 L 50.734912,45.180118 L 52.325902,44.163652 L 48.967145,42.882021 z"
       id="path3118" />
    <path
       style="fill:url(#linearGradient3124);fill-rule:evenodd;stroke:none;stroke-width:1px;stroke-linecap:butt;stroke-linejoin:miter;stroke-opacity:1"
       d="M 89.581591,38.816157 L 78.046911,33.380274 L 76.942057,36.606448 L 76.853668,33.910604 L 76.23495,34.352545 L 76.323338,32.584778 L 72.522639,30.9054 L 70.62229,30.949594 L 71.550368,32.098643 L 69.782601,31.700895 L 70.003572,32.717361 L 68.633552,32.540584 L 67.219339,33.02672 L 87.46027,42.484273 L 89.581591,38.816157 z"
       id="path3122" />
    <path
       style="fill:url(#linearGradient2428);fill-rule:evenodd;stroke:none;stroke-width:1px;stroke-linecap:butt;stroke-linejoin:miter;stroke-opacity:1"
       d="M 22.443951,91.368047 L 22.015865,89.533391 L 20.792762,89.04415 L 26.785969,83.662494 L 34.919608,76.201562 L 40.912816,71.798389 L 46.600248,68.434854 L 47.178378,69.664865 L 44.237838,72.518919 L 45.708108,73.686486 L 43.45946,74.983784 L 41.037838,73.772973 L 37.491892,76.497297 L 39.481081,77.491892 L 37.491892,79.135135 L 35.589189,78.010811 L 32.864865,80.518919 L 34.681081,81.643243 L 32.518919,83.632432 L 30.789189,82.724324 L 28.021622,85.016216 L 29.967568,86.356757 L 28.627027,88 L 26.508108,86.789189 L 23.351351,89.037838 L 24.821622,90.421622 L 22.443951,91.368047 z"
       id="path2426" />
    <path
       id="path2430"
       d="M 22.443951,91.368047 L 22.015865,89.533391 L 20.792762,89.04415 L 26.785969,83.662494 L 34.919608,76.201562 L 40.912816,71.798389 L 46.600248,68.434854 L 47.178378,69.664865 L 44.237838,72.518919 L 45.708108,73.686486 L 43.45946,74.983784 L 41.037838,73.772973 L 37.491892,76.497297 L 39.481081,77.491892 L 37.491892,79.135135 L 35.589189,78.010811 L 32.864865,80.518919 L 34.681081,81.643243 L 32.518919,83.632432 L 30.789189,82.724324 L 28.021622,85.016216 L 29.967568,86.356757 L 28.627027,88 L 26.508108,86.789189 L 23.351351,89.037838 L 24.821622,90.421622 L 22.443951,91.368047 z"
       style="fill:#000000;fill-rule:evenodd;stroke:none;stroke-width:1px;stroke-linecap:butt;stroke-linejoin:miter;stroke-opacity:1;fill-opacity:0.15686275" />
    <path
       id="path3015"
       d="M 84.101513,58.349982 L 89.979338,60.206137 L 92.01227,62.371652 L 94.575532,63.962642 L 95.459416,64.404584 L 95.945552,65.42105 L 96.431688,66.039768 L 97.448154,66.083962 L 98.332037,65.42105 L 100.76272,65.686215 L 101.24885,67.763341 L 99.878833,67.940118 L 98.332037,67.895923 L 94.266173,66.791069 L 90.642251,64.537166 L 85.736697,61.752933 L 84.101513,58.349982 z"
       style="fill:#000000;fill-rule:evenodd;stroke:none;stroke-width:1px;stroke-linecap:butt;stroke-linejoin:miter;stroke-opacity:1;fill-opacity:0.15686275" />
    <path
       id="path3017"
       d="M 96.03394,59.101283 L 95.636192,64.802331 L 95.945552,65.509438 L 96.520076,66.128156 L 97.757513,65.907186 L 98.243649,65.332661 L 98.376231,63.255535 L 98.818173,59.454836 L 96.03394,59.101283 z"
       style="fill:#000000;fill-rule:evenodd;stroke:none;stroke-width:1px;stroke-linecap:butt;stroke-linejoin:miter;stroke-opacity:1;fill-opacity:0.15686275" />
    <path
       id="path3019"
       d="M 86.92994,70.326603 L 92.454212,67.01204 L 92.056464,68.293671 L 93.07293,68.647224 L 92.365824,69.13336 L 93.559066,69.575302 L 90.067726,73.022448 L 89.139649,70.635962 L 86.92994,70.326603 z"
       style="fill:#000000;fill-rule:evenodd;stroke:none;stroke-width:1px;stroke-linecap:butt;stroke-linejoin:miter;stroke-opacity:1;fill-opacity:0.15686275" />
    <path
       style="fill:#000000;fill-rule:evenodd;stroke:none;stroke-width:1px;stroke-linecap:butt;stroke-linejoin:miter;stroke-opacity:1;fill-opacity:0.15686275"
       d="M 84.101513,58.349982 L 89.979338,60.206137 L 92.01227,62.371652 L 94.575532,63.962642 L 95.459416,64.404584 L 95.945552,65.42105 L 96.431688,66.039768 L 97.448154,66.083962 L 98.332037,65.42105 L 100.76272,65.686215 L 101.24885,67.763341 L 99.878833,67.940118 L 98.332037,67.895923 L 94.266173,66.791069 L 90.642251,64.537166 L 85.736697,61.752933 L 84.101513,58.349982 z"
       id="path3021" />
    <path
       style="fill:#000000;fill-rule:evenodd;stroke:none;stroke-width:1px;stroke-linecap:butt;stroke-linejoin:miter;stroke-opacity:1;fill-opacity:0.15686275"
       d="M 96.03394,59.101283 L 95.636192,64.802331 L 95.945552,65.509438 L 96.520076,66.128156 L 97.757513,65.907186 L 98.243649,65.332661 L 98.376231,63.255535 L 98.818173,59.454836 L 96.03394,59.101283 z"
       id="path3023" />
    <path
       style="fill:#000000;fill-rule:evenodd;stroke:none;stroke-width:1px;stroke-linecap:butt;stroke-linejoin:miter;stroke-opacity:1;fill-opacity:0.15686275"
       d="M 86.92994,70.326603 L 92.454212,67.01204 L 92.056464,68.293671 L 93.07293,68.647224 L 92.365824,69.13336 L 93.559066,69.575302 L 90.067726,73.022448 L 89.139649,70.635962 L 86.92994,70.326603 z"
       id="path3025" />
    <path
       style="fill:url(#linearGradient3029);fill-rule:evenodd;stroke:none;stroke-width:1px;stroke-linecap:butt;stroke-linejoin:miter;stroke-opacity:1"
       d="M 50.205405,23.135135 L 55.048649,36.237838 L 55.740541,32.864865 L 56.821622,34.767567 L 57.47027,31.221622 L 54.616216,24.778378 L 52.67027,28.583784 L 52.540541,28.410811 L 52.713514,28.410811 L 53.102703,23.351351 L 51.589189,22.745946 L 51.027027,20.843243 L 50.508108,19.848649 L 50.205405,23.135135 z"
       id="path3027" />
    <path
       style="fill:url(#linearGradient3033);fill-rule:evenodd;stroke:none;stroke-width:1px;stroke-linecap:butt;stroke-linejoin:miter;stroke-opacity:1"
       d="M 90.118919,38.14054 C 89.686487,37.967567 87.783784,36.843243 87.783784,36.843243 L 85.621622,39.654054 L 85.145946,38.789189 L 84.064865,39.005405 L 84.497297,37.664865 L 86.140541,35.32973 L 88.475676,32.994594 L 92.583784,29.794594 L 93.145946,30.486486 L 93.232433,31.005405 L 92.713514,31.610811 L 94.486487,33.427027 L 93.362162,34.421622 L 91.2,32.951351 L 89.772973,34.767567 L 91.502703,36.583784 L 90.118919,38.14054 z"
       id="path3031" />
    <path
       style="fill:url(#linearGradient3037);fill-rule:evenodd;stroke:none;stroke-width:1px;stroke-linecap:butt;stroke-linejoin:miter;stroke-opacity:1"
       d="M 99.848649,29.924324 L 98.421622,29.059459 L 100.36757,26.724324 C 100.36757,26.724324 99.286487,26.551351 99.286487,26.378378 C 99.286487,26.205405 99.07027,25.297297 99.07027,25.297297 L 95.567568,29.924324 L 96.605406,29.837838 L 96.841707,30.738077 L 97.643243,30.097297 L 98.421622,30.789189 L 100.06486,29.924324 L 99.848649,29.924324 z"
       id="path3035"
       sodipodi:nodetypes="cccscccccccc" />
    <path
       id="path3039"
       d="M 90.118919,38.14054 C 89.686487,37.967567 87.783784,36.843243 87.783784,36.843243 L 85.621622,39.654054 L 85.145946,38.789189 L 84.064865,39.005405 L 84.497297,37.664865 L 86.140541,35.32973 L 88.475676,32.994594 L 92.583784,29.794594 L 93.145946,30.486486 L 93.232433,31.005405 L 92.713514,31.610811 L 94.486487,33.427027 L 93.362162,34.421622 L 91.2,32.951351 L 89.772973,34.767567 L 91.502703,36.583784 L 90.118919,38.14054 z"
       style="fill:#000000;fill-rule:evenodd;stroke:none;stroke-width:1px;stroke-linecap:butt;stroke-linejoin:miter;stroke-opacity:1;fill-opacity:0.15686275" />
    <path
       sodipodi:nodetypes="cccscccccccc"
       id="path3041"
       d="M 99.848649,29.924324 L 98.421622,29.059459 L 100.36757,26.724324 C 100.36757,26.724324 99.286487,26.551351 99.286487,26.378378 C 99.286487,26.205405 99.07027,25.297297 99.07027,25.297297 L 95.567568,29.924324 L 96.605406,29.837838 L 96.841707,30.738077 L 97.643243,30.097297 L 98.421622,30.789189 L 100.06486,29.924324 L 99.848649,29.924324 z"
       style="fill:#000000;fill-rule:evenodd;stroke:none;stroke-width:1px;stroke-linecap:butt;stroke-linejoin:miter;stroke-opacity:1;fill-opacity:0.15686275" />
    <path
       id="path3043"
       d="M 27.703297,96.443927 L 37.06004,96.933168 L 45.68292,97.483565 L 55.956991,97.850496 L 65.680665,97.728185 L 71.612717,97.66703 L 66.659147,98.767823 C 66.659147,98.767823 57.791646,101.33634 56.996629,101.51981 C 56.201611,101.70327 47.2118,102.86522 47.2118,102.86522 C 47.2118,102.86522 44.154041,102.80407 43.114403,102.6206 C 42.074765,102.43713 37.610436,101.27519 37.243505,101.09172 C 36.876574,100.90825 31.433763,98.767823 31.433763,98.767823 L 27.703297,96.443927 z"
       style="fill:#000000;fill-rule:evenodd;stroke:none;stroke-width:1px;stroke-linecap:butt;stroke-linejoin:miter;stroke-opacity:1;fill-opacity:0.15686275" />
    <path
       id="path3045"
       d="M 101.38143,86.81103 L 101.82338,95.3847 L 103.54695,96.489554 L 112.12062,100.55542 L 112.2532,88.004273 L 109.15961,90.081399 L 106.24279,87.960078 L 104.25406,90.346564 L 101.38143,86.81103 z"
       style="fill:#000000;fill-rule:evenodd;stroke:none;stroke-width:1px;stroke-linecap:butt;stroke-linejoin:miter;stroke-opacity:1;fill-opacity:0.15686275" />
    <path
       style="fill:url(#linearGradient3055);fill-rule:evenodd;stroke:none;stroke-width:1px;stroke-linecap:butt;stroke-linejoin:miter;stroke-opacity:1;fill-opacity:1"
       d="M 38.283143,19.663597 L 40.454152,23.30233 L 42.013609,25.442761 L 44.03173,27.705503 L 44.918481,28.37821 L 47.272955,30.059977 L 46.477938,30.0294 C 46.477938,30.0294 45.805231,29.968245 45.407722,29.876512 C 45.010213,29.784779 42.441696,28.286477 42.13592,28.194744 C 41.830144,28.103012 39.873178,26.574132 40.056644,26.971641 C 40.240109,27.369149 41.463213,29.907089 41.463213,29.907089 L 42.869782,32.506185 L 44.887903,35.013547 L 44.001153,35.044125 L 41.830144,34.096219 L 40.851661,33.515245 L 38.130255,31.558279 L 37.365816,27.919546 L 37.335238,25.809692 L 37.457548,23.118864 L 37.855057,20.794967 L 38.283143,19.663597 z"
       id="path3047" />
    <path
       style="fill:url(#linearGradient3059);fill-rule:evenodd;stroke:none;stroke-width:1px;stroke-linecap:butt;stroke-linejoin:miter;stroke-opacity:1;fill-opacity:1"
       d="M 38.010811,38.875676 L 40.345946,40.951351 L 43.156757,43.805405 L 47.048649,46.313513 L 46.486487,46.702703 L 44.021622,46.745946 L 41.037838,45.578378 L 38.140541,44.367567 L 37.535135,43.156757 L 37.362162,41.47027 L 37.708108,39.74054 L 38.010811,38.875676 z"
       id="path3057"
       sodipodi:nodetypes="cccccccccccc" />
    <path
       style="fill:url(#linearGradient3063);fill-rule:evenodd;stroke:none;stroke-width:1px;stroke-linecap:butt;stroke-linejoin:miter;stroke-opacity:1"
       d="M 32.475676,56.605405 L 29.102703,54.832432 L 24.475676,51.243243 L 24.216216,52.194595 L 24,52.886486 L 24.345946,54.097297 L 25.124324,54.313513 L 27.675676,55.567567 L 29.708108,56.389189 L 30.832432,56.605405 L 32.475676,56.605405 z"
       id="path3061" />
    <path
       style="fill:url(#linearGradient3067);fill-rule:evenodd;stroke:none;stroke-width:1px;stroke-linecap:butt;stroke-linejoin:miter;stroke-opacity:1"
       d="M 24.302703,58.681081 L 24,60.194595 L 24.043243,61.621622 L 24.432432,63.178378 L 29.491892,65.124324 L 31.654054,65.383784 L 30.097297,64.389189 L 28.627027,63.091892 L 26.940541,61.405405 L 24.821622,59.156757 L 24.302703,58.681081 z"
       id="path3065" />
  </g>
  <g
     inkscape:label="outline"
     inkscape:groupmode="layer"
     id="layer1">
    <path
       style="fill:#000000;fill-opacity:1;fill-rule:evenodd;stroke:none;stroke-width:1px;stroke-linecap:butt;stroke-linejoin:miter;stroke-opacity:1"
       d="M 38.09375,16.9375 L 38.09375,19.28125 C 37.087896,23.319818 36.831791,28.525115 38,31.71875 L 37.96875,38.34375 C 37.241264,40.307398 36.874099,42.647539 37.90625,44.4375 L 37.90625,46.875 L 27.53125,42.375 L 27.40625,44.0625 L 26.0625,43.34375 L 26.78125,45.5625 L 24.0625,44.71875 L 25.375,46.25 L 37.21875,51.8125 L 37.09375,57.25 L 38.03125,57.1875 L 38.03125,58.5 L 39.84375,58.96875 L 40.59375,62.34375 L 40.875,53.53125 L 68.5625,66.5625 C 65.836688,69.00903 63.059534,71.429789 60.125,73.75 L 53.40625,70.625 C 51.146008,70.883583 48.486291,71.838151 45.625,73.375 L 44.46875,72.5 L 46.75,70.3125 L 47.21875,69.53125 L 46.71875,68.125 C 44.303568,69.365819 42.015668,70.766262 39.8125,72.28125 L 27.28125,66.53125 L 27.28125,64.46875 C 28.825461,65.068809 30.39795,65.573075 32,65.4375 C 29.873698,64.408553 28.513538,63.080426 27.28125,61.6875 L 27.28125,58.25 L 25.0625,57.375 L 26.625,57.09375 L 26.21875,56.46875 L 27.25,56.34375 L 27.25,55.53125 C 28.875429,56.361993 30.523306,57.113876 32.6875,56.6875 C 30.884663,55.639605 28.986812,54.523122 27.25,53.28125 L 27.25,48.8125 C 27.083296,48.879678 26.832978,49.318766 26.65625,49.15625 C 26.330467,48.856664 26.057305,47.831332 25.75,48 C 25.529746,48.120889 25.809511,49.285134 25.59375,49.8125 C 25.47144,50.111454 24.88079,49.484046 24.75,49.5625 L 24.4375,50.09375 C 24.433931,50.444442 24.440157,50.637112 24.4375,50.96875 C 24.183219,52.07866 23.6774,53.220013 24.3125,54.21875 C 24.498,55.465356 24.407217,57.072006 24.40625,58.4375 C 24.016168,58.48098 23.541583,62.102164 24.34375,63.3125 C 24.332231,63.930636 24.329665,64.469829 24.3125,65.15625 L 21.8125,64 L 20.78125,64.53125 L 21.1875,65.78125 L 17.03125,65.71875 L 16.125,66.1875 L 24.03125,70.15625 L 24.0625,73.03125 L 25.0625,72.71875 L 25.375,73.5625 L 26.15625,73.5625 L 26.90625,74.78125 L 27.09375,71.65625 L 35.1875,75.71875 C 30.00227,79.850441 25.230756,84.532901 20.4375,89.15625 C 20.657315,89.689688 21.625752,89.473593 21.90625,89.8125 C 21.901579,90.268461 22.125847,90.825853 22.1875,91.21875 L 18.65625,92.96875 L 18.6875,93.09375 L 21.9375,93.1875 L 20.90625,94.53125 L 23.03125,94.28125 L 19.21875,97.0625 C 22.0004,96.92406 24.788335,96.90644 27.59375,96.9375 C 38.252989,102.99727 44.998409,103.5935 51.53125,102.71875 C 52.43979,102.5971 53.365141,102.44141 54.3125,102.25 C 59.803291,101.14061 66.02617,98.9941 73.90625,97.4375 C 76.132276,97.20101 78.373657,96.89737 80.625,96.5 C 87.795595,91.385752 94.022105,85.329083 100.0625,78.9375 C 99.975991,77.946611 99.809313,77.144062 99.5625,76.125 C 100.1622,75.389638 100.52182,75.391925 100.78125,74.75 C 100.79289,74.460265 99.89128,74.171859 99.84375,73.84375 C 99.65212,72.722422 99.663354,72.061106 99.71875,71.65625 L 99.90625,71.40625 L 102.6875,72.5625 L 102.875,71.15625 L 103,71.15625 L 102.125,69.21875 C 102.38866,69.057635 102.68449,68.810165 102.90625,68.53125 C 103.5865,68.421046 104.51218,68.947564 105.1875,68.8125 C 105.70408,68.679421 105.89427,67.650888 106.28125,67.34375 C 107.31272,67.404294 108.08029,67.76408 108.84375,67.21875 L 116.5,51.375 L 116.09375,49.0625 L 115.96875,48.3125 L 115.9375,48.3125 C 114.26707,39.749273 112.9301,34.594939 102.5,28.90625 C 101.66798,29.208864 100.87293,29.545761 100.09375,29.90625 L 98.75,28.84375 L 100.375,26.71875 L 99.40625,26.375 L 99.0625,25.09375 L 95.21875,30.09375 L 96.53125,30.125 L 96.84375,30.90625 L 97.5625,30.28125 L 98.125,30.90625 C 96.89408,31.595333 95.740036,32.36852 94.65625,33.21875 L 92.8125,31.6875 L 93.375,31.09375 L 93.3125,30.3125 L 92.4375,29.53125 L 92.34375,29.75 C 89.209218,32.181044 86.888315,33.696775 85.09375,36.53125 L 78.03125,33.34375 C 77.835995,33.274493 77.08067,36.256758 76.96875,36.1875 L 77,33.75 L 76.40625,34.15625 L 76.34375,32.5625 L 72.53125,30.84375 L 70.53125,30.9375 L 71.375,31.9375 L 69.78125,31.59375 L 69.96875,32.59375 L 68.625,32.4375 L 66.84375,33.03125 L 87.125,42.71875 L 82.125,54.9375 C 79.020292,57.276281 76.134586,59.771979 73.28125,62.3125 L 55.09375,54.375 L 54,55.9375 L 53.6875,53.78125 L 52.90625,55 L 52.59375,53.28125 L 40.96875,48.21875 L 41,45.65625 C 43.13785,46.668862 45.274963,47.653628 47.6875,46.46875 C 45.078601,45.188996 43.039563,43.506016 41.09375,41.59375 L 41.15625,37.1875 L 40.65625,36.5625 L 40.84375,35.8125 L 40.21875,35.34375 L 41.21875,34.8125 L 41.25,33.875 C 42.460428,34.676176 43.704778,35.312485 45.0625,35.15625 C 43.060061,32.931638 42.201212,31.072119 41.3125,29.21875 L 41.34375,27.9375 C 43.314917,29.114203 45.200473,30.464471 47.78125,30.21875 C 44.509723,28.310946 42.761309,26.398801 41.40625,24.4375 L 41.4375,21.875 L 40.375,17.75 L 39.6875,19.28125 L 39.4375,17.8125 L 38.875,19.0625 L 38.09375,16.9375 z M 38.28125,17.84375 L 38.625,19.59375 L 39.15625,18.96875 L 39.6875,20.03125 L 40.25,18.34375 L 41.25,22.28125 C 41.236173,22.917316 41.23136,23.541177 41.21875,24.15625 C 40.199993,22.636385 39.378927,21.094229 38.28125,19.46875 L 38.28125,17.84375 z M 50.375,19.4375 L 50,23.0625 L 55,36.59375 L 55.78125,33.53125 L 56.90625,35.21875 L 57.625,31.0625 L 54.59375,24.53125 L 52.71875,28.40625 L 53.3125,23.25 L 52,22.8125 L 50.375,19.4375 z M 38.28125,20.03125 C 40.592427,23.52521 42.37678,27.309593 46.78125,29.71875 C 45.043357,30.603165 41.869639,27.517565 39.71875,26.75 C 40.918328,29.029028 42.497096,33.204439 44.5625,34.90625 C 41.824086,34.632979 39.867512,32.639886 38.28125,31.5625 C 37.682369,29.424283 36.794132,23.312993 38.28125,20.03125 z M 50.6875,20.25 L 51.46875,23.03125 L 52.875,23.4375 L 52.65625,28.21875 L 50.4375,23.15625 L 50.6875,20.25 z M 54.40625,25.15625 L 57.375,31.40625 L 56.71875,34.25 L 55.59375,31.90625 L 55,35.5 L 52.8125,28.5 L 54.40625,25.15625 z M 99,25.5625 L 99.15625,26.46875 L 100.15625,26.84375 L 98.21875,29.125 L 99.5625,30.15625 C 99.190823,30.337316 98.828084,30.524166 98.46875,30.71875 L 97.53125,29.9375 L 96.96875,30.5 L 96.71875,29.75 L 95.90625,29.875 L 99,25.5625 z M 40.40625,27.40625 C 40.647967,27.535689 40.887569,27.673061 41.125,27.8125 C 41.118798,28.131591 41.099079,28.454937 41.09375,28.78125 C 40.871902,28.324137 40.661312,27.874434 40.40625,27.40625 z M 102.4375,29.40625 C 102.85196,29.625989 103.23675,29.835595 103.625,30.0625 C 95.925432,34.596859 91.930244,39.191618 89.4375,43.53125 L 88.09375,42 C 89.9153,38.946822 91.492292,36.662881 93.4375,34.78125 L 93.46875,34.78125 C 93.473956,34.776225 93.463538,34.755019 93.46875,34.75 C 95.678527,32.621745 98.366485,31.010727 102.4375,29.40625 z M 92.5,30.03125 L 92.9375,30.4375 L 92.96875,31.09375 L 92.40625,31.6875 L 94.28125,33.5 C 93.972143,33.751558 93.671844,34.016262 93.375,34.28125 L 91.09375,32.78125 L 89.40625,34.875 L 91.125,36.5625 C 90.733737,37.007642 90.333403,37.463214 89.96875,37.9375 C 89.845048,37.824796 89.422859,37.568973 87.78125,36.71875 L 85.40625,39.40625 L 85.1875,38.5 L 84.375,38.75 C 86.191748,34.780669 88.703736,32.980786 92.5,30.03125 z M 103.875,30.21875 C 104.58171,30.640592 105.25276,31.086711 105.875,31.53125 C 101.19907,35.164522 97.15495,37.433861 90.5,44.75 L 89.53125,43.65625 C 91.99943,39.361018 96.168239,34.727083 103.875,30.21875 z M 72.5625,31.03125 L 76.28125,32.78125 L 76.15625,34.53125 L 76.78125,34.09375 L 76.9375,36.90625 L 78.09375,33.625 L 84.90625,36.84375 C 84.525536,37.479427 84.149756,38.175333 83.8125,38.96875 L 84.15625,39.1875 C 84.181319,39.128524 84.224645,39.089281 84.25,39.03125 L 85,38.96875 L 85.46875,39.90625 L 87.0625,37.875 L 89.28125,38.90625 C 88.573244,39.913239 87.910678,40.966473 87.3125,42.09375 L 67.75,32.96875 L 68.8125,32.6875 L 70.15625,32.75 L 69.9375,31.8125 L 71.8125,32.34375 L 70.84375,31.125 L 72.5625,31.03125 z M 106,31.625 C 106.79595,32.200822 107.52111,32.796584 108.1875,33.40625 C 102.10453,37.551156 96.967875,42.037073 92.15625,46.625 L 90.5625,44.8125 C 97.080125,37.67048 101.29594,35.27277 106,31.625 z M 38.375,31.9375 C 39.263885,32.451433 40.124031,33.089612 41,33.6875 C 40.991455,34.027631 40.976128,34.318878 40.96875,34.6875 C 40.964617,34.893872 39.94163,35.102158 39.9375,35.3125 C 39.933936,35.494068 40.566066,35.62778 40.5625,35.8125 C 40.5573,36.08204 40.348953,36.317033 40.34375,36.59375 L 40.90625,37.15625 L 40.8125,41.3125 C 40.015187,40.517158 39.219453,39.672648 38.40625,38.8125 L 38.375,31.9375 z M 91.09375,33.1875 L 93.09375,34.53125 C 92.513003,35.064876 91.939041,35.632601 91.40625,36.21875 L 89.84375,34.6875 L 91.09375,33.1875 z M 108.25,33.46875 C 108.87302,34.043118 109.44977,34.618194 109.96875,35.21875 C 100.9638,42.475402 92.472155,49.887938 84.0625,57.25 L 82.9375,56.96875 L 83.40625,57.84375 C 69.954169,69.62278 56.690892,81.289102 41.9375,92.15625 C 41.044734,91.996882 40.160237,91.827835 39.28125,91.65625 L 60.25,74.1875 L 60.46875,74.28125 C 68.515867,68.012334 74.020489,61.661217 82.5,55.40625 L 82.53125,55.40625 C 82.536263,55.402554 82.526235,55.378696 82.53125,55.375 C 85.765909,52.991357 88.718283,50.095835 93.125,47.75 L 92.21875,46.71875 C 97.014955,42.145899 102.22099,37.575349 108.25,33.46875 z M 110.03125,35.28125 C 110.56214,35.900963 111.03722,36.543919 111.46875,37.1875 C 105.39932,42.136725 99.507182,47.086302 93.71875,52.03125 L 93.40625,50.875 L 92.625,53 C 90.677674,54.666226 88.74463,56.305886 86.8125,57.96875 L 84.1875,57.28125 C 92.572488,49.908441 101.04672,42.52129 110.03125,35.28125 z M 87.75,37 L 89.6875,38.3125 C 89.633704,38.384978 89.584446,38.458115 89.53125,38.53125 L 87.3125,37.53125 L 87.75,37 z M 111.53125,37.3125 C 111.83216,37.768017 112.11872,38.221826 112.375,38.6875 C 106.473,44.033323 100.51706,49.362209 94.5,54.65625 L 93.78125,52.1875 C 99.58202,47.226861 105.45616,42.268191 111.53125,37.3125 z M 112.46875,38.8125 C 112.82709,39.475632 113.12797,40.163685 113.40625,40.84375 C 107.40126,46.345185 101.33512,51.788888 95.21875,57.1875 L 94.53125,54.8125 C 100.55096,49.509788 106.53564,44.185288 112.46875,38.8125 z M 38.1875,39.125 C 40.784118,41.523449 43.323961,44.750475 46.75,46.15625 C 44.490768,47.624422 40.483682,45.100755 38.1875,44.28125 C 37.281606,42.507003 37.271207,40.75 38.1875,39.125 z M 72,39.96875 L 48.1875,42.75 L 51.625,44.46875 L 50.46875,45.125 L 52.15625,45.65625 L 49.1875,47.625 L 68.5625,44.59375 L 67.3125,43.53125 L 71.3125,42.84375 L 68.8125,42.3125 L 72,39.96875 z M 71,40.4375 L 68.09375,42.4375 L 69.65625,42.78125 L 66.71875,43.5625 L 67.9375,44.40625 L 51.0625,46.96875 L 53.125,45.4375 L 51.15625,45.15625 L 52.84375,44.21875 L 49.6875,43.0625 L 71,40.4375 z M 113.46875,40.96875 C 113.68935,41.517762 113.88705,42.067427 114.0625,42.625 C 108.66123,47.785984 103.19349,52.899539 97.65625,57.96875 L 95.3125,57.53125 L 95.25,57.3125 C 101.37511,51.909693 107.4582,46.474859 113.46875,40.96875 z M 87.84375,42.78125 L 92.09375,47.75 C 88.531601,49.561388 86.020187,52.064004 83,54.28125 L 87.84375,42.78125 z M 114.125,42.84375 C 114.33208,43.523864 114.50556,44.217185 114.65625,44.90625 C 110.04504,49.530124 105.38916,54.082864 100.6875,58.53125 L 97.84375,58 C 103.31946,53.005231 108.76312,47.964345 114.125,42.84375 z M 27.6875,42.90625 L 52.46875,53.6875 L 52.78125,55.375 L 53.46875,55 L 54.03125,56.90625 L 54.78125,55 L 55.75,55.125 L 72.9375,62.625 C 71.62347,63.798055 70.311874,64.976651 69,66.15625 L 25.84375,45.9375 L 25,45.15625 L 27.78125,46.1875 L 26.625,44.5 L 27.8125,44.375 L 27.6875,42.90625 z M 38.46875,44.59375 C 39.237103,44.847168 39.99468,45.204815 40.75,45.5625 L 40.6875,48.09375 L 38.46875,47.125 L 38.46875,44.59375 z M 114.71875,45.0625 C 114.83629,45.615081 114.91213,46.162738 115,46.71875 C 110.88533,50.86407 106.76052,54.890663 102.625,58.875 L 100.84375,58.5625 C 105.55954,54.158064 110.2033,49.665068 114.71875,45.0625 z M 115.03125,46.875 C 115.11578,47.425976 115.15762,47.978934 115.21875,48.53125 C 111.93509,52.160211 108.61505,55.773569 105.21875,59.34375 L 102.84375,58.90625 C 106.90841,54.971114 110.96915,50.96803 115.03125,46.875 z M 25.84375,48.375 C 26.021902,48.230038 26.415598,49.535666 26.59375,49.46875 L 26.9375,49.21875 L 26.96875,53.0625 C 26.166493,52.476084 25.406489,51.855902 24.71875,51.21875 C 24.732935,51.000402 24.73394,50.818564 24.75,50.59375 L 24.96875,49.90625 L 25.75,50.0625 L 25.84375,48.375 z M 115.25,48.78125 C 115.26431,48.91742 115.29937,49.051335 115.3125,49.1875 C 114.71355,50.420469 114.07569,51.623591 113.40625,52.8125 C 112.22538,54.311536 107.96438,59.656609 101.875,66.59375 L 101.53125,63.375 C 102.30796,62.579722 103.10086,61.79678 103.875,61 L 106.875,59.65625 L 105.40625,59.375 C 108.746,55.871906 112.02271,52.345523 115.25,48.78125 z M 115.84375,49.5 L 116.09375,51.46875 C 113.56768,56.898046 111.46722,61.878022 108.4375,66.6875 C 107.97886,67.033656 106.79489,66.945198 106.21875,67 C 105.7445,67.205868 105.43768,68.103349 105.03125,68.40625 C 104.27637,67.973673 103.69852,68.077575 102.875,68.21875 C 107.33603,63.012589 111.57625,57.222488 115.84375,49.5 z M 24.5,51.53125 C 26.679663,53.295593 29.108064,55.241602 31.875,56.5 C 30.037354,56.674174 26.365317,54.83248 24.46875,53.96875 C 23.85101,53.024169 24.444199,52.320725 24.5,51.53125 z M 37.8125,52.09375 L 40.625,53.40625 L 40.5,61.21875 L 39.9375,58.4375 L 38.3125,58.03125 L 38.21875,56.84375 L 37.4375,56.96875 L 37.8125,52.09375 z M 93.40625,52.09375 L 93.75,53.40625 L 91.125,60.28125 C 91.052595,60.224165 90.981929,59.614571 90.90625,59.25 L 93.40625,52.09375 z M 92.5,53.3125 L 90.78125,57.9375 C 90.463308,58.213826 90.1302,58.473401 89.8125,58.75 L 87,58.03125 C 88.8276,56.456483 90.65973,54.889679 92.5,53.3125 z M 93.8125,53.71875 L 94.4375,56.15625 L 92.40625,58.09375 L 93.8125,53.71875 z M 112.6875,54 C 109.71863,59.041282 106.15998,63.759009 102.09375,68.4375 L 101.90625,66.875 C 107.35328,60.675002 110.98066,56.15005 112.6875,54 z M 24.5625,54.3125 C 25.397447,54.594715 26.185606,54.971912 26.96875,55.375 L 26.96875,56.09375 L 25.9375,56.40625 L 26.25,57 L 24.625,57.34375 L 27,58.3125 L 27,61.34375 C 26.19137,60.409316 25.402647,59.468923 24.5,58.5625 C 24.489707,57.173169 24.516933,55.740511 24.5625,54.3125 z M 94.46875,56.34375 L 94.875,57.9375 L 95.09375,58.875 L 91.65625,61.875 C 91.17901,61.470601 90.719578,61.03571 90.25,60.59375 L 91.46875,61 L 92.3125,58.34375 L 94.46875,56.34375 z M 83.78125,57.625 L 90.65625,59.375 C 90.603489,59.757526 90.599693,60.25813 90.46875,60.21875 L 84.0625,58.15625 L 83.78125,57.625 z M 83.4375,57.9375 L 84.53125,59.9375 C 71.660381,71.025987 58.957793,82.029505 45.3125,92.71875 C 44.281787,92.56303 43.257109,92.36504 42.25,92.1875 C 56.953442,81.341091 70.101586,69.668189 83.4375,57.9375 z M 95.375,58.03125 L 105.78125,59.875 L 104.5,60.34375 L 95.59375,58.71875 L 95.375,58.03125 z M 90.6875,58.1875 L 90.40625,58.90625 L 90,58.8125 C 90.23073,58.605708 90.458001,58.395546 90.6875,58.1875 z M 84.34375,58.625 L 89.4375,60.3125 C 90.73191,61.619049 92.238385,62.715107 93.8125,63.59375 L 93.84375,63.59375 C 94.360504,63.881295 94.881379,64.168983 95.40625,64.40625 C 95.575285,66.218452 96.399155,66.5773 98.0625,65.84375 L 98.25,65.46875 C 99.076455,65.674854 99.861119,65.781293 100.625,65.8125 L 101.09375,67.6875 C 96.736292,68.700523 90.369558,64.079555 85.96875,61.625 L 84.34375,58.625 z M 95.09375,58.9375 L 95.875,59.09375 L 95.625,61.8125 L 93.8125,63.4375 C 93.081352,62.988862 92.407274,62.489215 91.75,61.9375 L 95.09375,58.96875 L 95.09375,58.9375 z M 24.4375,59 C 26.586875,61.170162 28.606374,63.818337 31.1875,65.125 C 28.670314,64.804069 26.439416,63.8506 24.40625,62.9375 C 23.853298,61.582373 24.449516,60.198065 24.4375,59 z M 96.25,59.1875 L 98.59375,59.65625 L 98.125,65.15625 C 97.970071,65.405383 97.825942,65.625811 97.65625,65.78125 C 96.523571,66.232825 96.307981,65.811945 95.84375,64.78125 L 96.25,59.1875 z M 98.90625,59.71875 L 100.5625,60.0625 L 98.625,62.0625 L 98.90625,59.71875 z M 84.59375,60.0625 L 85.78125,62.28125 C 73.755762,72.72805 61.558742,83.042267 49.3125,93.21875 C 48.028549,93.07554 46.771247,92.93489 45.53125,92.75 C 59.127975,82.092938 71.785443,71.108343 84.59375,60.0625 z M 100.6875,60.09375 L 102.53125,60.46875 L 101.59375,61.40625 L 100.78125,61.71875 L 100.8125,61.90625 L 100.625,62.40625 L 98.3125,64.78125 L 98.625,62.28125 L 100.6875,60.09375 z M 102.6875,60.5 L 103.625,60.6875 L 101.90625,61.3125 L 102.6875,60.5 z M 103.4375,61.1875 C 102.79281,61.854838 102.14622,62.521065 101.5,63.1875 L 101.375,62.09375 L 103.4375,61.1875 z M 95.625,62 L 95.40625,64.28125 C 94.888872,64.05555 94.402764,63.779071 93.9375,63.5 L 95.625,62 z M 86.25,62.125 C 87.207383,62.570408 88.259505,63.196691 89.34375,63.875 L 87.5,65.53125 L 87.40625,64.71875 L 87.5625,64.53125 L 86.25,62.125 z M 85.84375,62.4375 L 86.90625,64.4375 C 75.760733,74.158019 64.473539,83.808207 53.09375,93.5625 C 51.891493,93.47879 50.7208,93.37609 49.5625,93.25 C 61.79405,83.08652 73.899389,72.829714 85.84375,62.4375 z M 100.875,62.46875 L 101.59375,68.9375 L 100.53125,63.65625 L 100.875,62.46875 z M 100.5,62.75 L 100.1875,63.625 L 100.59375,65.46875 C 99.765068,65.414225 98.994111,65.297913 98.28125,65.15625 L 98.28125,65.03125 L 98.3125,65 L 100.5,62.75 z M 24.59375,63.40625 C 25.390231,63.693663 26.211536,64.018993 27.03125,64.34375 L 27.03125,66.40625 L 24.625,65.28125 C 24.61339,64.550071 24.606468,64.070729 24.59375,63.40625 z M 89.4375,63.9375 C 90.174298,64.399395 90.914924,64.871486 91.6875,65.34375 L 86.125,70.28125 L 83.1875,70.15625 L 87.59375,66.5625 L 87.5,65.6875 L 89.4375,63.9375 z M 22,64.34375 L 39.5,72.46875 C 38.103921,73.439107 36.768874,74.47757 35.4375,75.53125 L 16.5625,66.09375 L 17.09375,65.84375 L 21.59375,66.03125 L 20.90625,64.71875 L 22,64.34375 z M 86.625,64.84375 L 82,70.34375 L 83.8125,70.46875 C 75.026608,78.295724 66.139017,86.05656 57.1875,93.78125 C 55.857421,93.75186 54.553391,93.64835 53.28125,93.5625 C 64.493372,83.951931 75.625069,74.427908 86.625,64.84375 z M 87.03125,65.15625 L 87.21875,66.40625 L 82.71875,70.125 L 82.625,70.125 L 87.03125,65.15625 z M 91.8125,65.40625 C 92.588438,65.878221 93.362916,66.347359 94.15625,66.75 L 92.53125,68.4375 L 92.125,68.375 L 92.875,66.53125 L 86.78125,70.3125 L 86.46875,70.3125 L 91.8125,65.40625 z M 94.3125,66.8125 C 94.7742,67.042683 95.25627,67.252696 95.71875,67.4375 L 93.6875,69.5 L 92.65625,69.25 L 93.3125,68.5625 L 92.75,68.46875 L 94.3125,66.8125 z M 92.125,67.3125 L 91.90625,68.4375 L 92.71875,68.75 L 91.96875,69.1875 L 93.25,69.65625 L 90.15625,72.5625 L 89.28125,70.40625 L 87.21875,70.3125 L 92.125,67.3125 z M 95.875,67.5 C 96.741773,67.835025 97.586948,68.062158 98.4375,68.15625 L 96,70.84375 L 94.5625,69.625 L 91.28125,75.34375 L 90.375,73.125 L 95.875,67.5 z M 101.09375,67.9375 L 101.3125,68.6875 L 99.71875,70.53125 L 99.6875,70.53125 L 97.03125,71.71875 L 96.1875,71 L 98.8125,68.1875 C 99.588291,68.234263 100.35284,68.18447 101.09375,67.9375 z M 46.375,68.78125 L 46.9375,69.59375 L 46.625,70.0625 L 43.90625,72.5 L 45.125,73.65625 C 44.531145,73.986452 43.920571,74.34077 43.3125,74.71875 L 40.96875,73.59375 L 37.1875,76.5 L 39.1875,77.59375 C 38.612937,78.030976 38.014594,78.465533 37.4375,78.9375 L 35.59375,77.875 L 32.53125,80.59375 L 34.375,81.625 C 33.749303,82.202049 33.119628,82.793221 32.5,83.40625 L 30.6875,82.46875 L 27.84375,85.09375 L 29.6875,86.34375 C 29.326203,86.741249 28.981218,87.15377 28.625,87.5625 L 26.46875,86.46875 L 22.90625,89.09375 L 24.3125,90.3125 L 22.90625,90.90625 C 22.469818,90.579782 22.421052,90.107057 22.25,89.625 C 21.961328,89.231316 21.485058,89.312897 21.34375,89 C 29.167701,82.220156 35.919334,74.37341 46.375,68.78125 z M 101.34375,68.84375 L 101.4375,69.1875 L 102.71875,70.9375 L 99.96875,70.5625 L 101.34375,68.84375 z M 94.71875,70.1875 L 96.96875,72.0625 C 96.929448,72.105995 96.884132,72.143845 96.84375,72.1875 C 90.706526,78.874454 83.431793,85.521732 77.125,91.9375 C 75.198643,92.31271 73.333158,92.62386 71.53125,92.875 C 77.915249,86.822231 84.254023,80.747136 90.46875,74.59375 L 91.28125,76.5625 L 94.71875,70.1875 z M 24.5,70.375 L 26.84375,71.53125 L 26.78125,74.28125 L 26.3125,73.28125 L 25.59375,73.28125 L 25.125,72.46875 L 24.40625,72.6875 L 24.5,70.375 z M 83.96875,70.46875 L 87.4375,70.71875 C 78.807832,78.387927 70.007701,85.98829 61.1875,93.75 C 59.880965,93.78221 58.591751,93.80651 57.34375,93.78125 C 66.346124,86.013488 75.163024,78.278275 83.96875,70.46875 z M 87.53125,70.71875 L 88.90625,70.8125 L 89.25,71.625 C 81.445999,78.937097 73.597718,86.138855 65.78125,93.5 C 64.360524,93.60962 62.975336,93.70992 61.625,93.75 C 70.405521,85.978873 78.980936,78.504111 87.53125,70.71875 z M 99.71875,70.875 L 102.4375,71.09375 L 102.5,72.28125 L 99.53125,70.96875 L 99.71875,70.875 z M 53.34375,71.125 L 53.875,71.34375 C 44.434469,76.556057 37.222047,83.0427 30.65625,89.875 C 29.778871,89.690182 28.912775,89.490985 28.03125,89.3125 C 33.987661,82.376542 41.28333,74.367681 53.34375,71.125 z M 99.21875,71.125 L 99.625,71.28125 C 99.530142,71.388591 99.438398,71.48721 99.34375,71.59375 C 98.985024,71.997546 98.637264,72.388173 98.28125,72.78125 L 97.4375,72.0625 L 99.21875,71.125 z M 91.90625,71.34375 L 90.3125,72.96875 L 90.28125,72.875 L 91.90625,71.34375 z M 54,71.40625 L 57.3125,72.875 C 49.394919,78.531216 41.447045,84.392795 35.03125,90.78125 C 33.728578,90.5067 32.423299,90.243298 31.125,89.96875 C 37.579888,83.265004 44.733977,76.520171 54,71.40625 z M 89.3125,71.8125 L 90.40625,74.40625 C 84.144854,80.629746 77.762524,86.791372 71.3125,92.90625 C 69.557499,93.14678 67.867694,93.33352 66.21875,93.46875 C 73.943974,86.194778 81.635282,79.046417 89.3125,71.8125 z M 99.40625,72.03125 C 99.458043,72.648472 99.432302,73.407669 99.5,73.875 C 99.542665,74.169526 100.32001,74.469314 100.3125,74.65625 C 100.13931,75.11482 99.285806,75.592451 99.125,76.0625 C 99.468591,76.869712 99.353318,77.485307 99.3125,78.28125 C 94.468949,83.797417 88.372609,89.45089 80.28125,95.71875 C 58.595917,100.45908 37.086362,94.93583 20.875,96.4375 L 23.78125,94.15625 L 21.96875,94.09375 L 23.15625,92.375 L 19.4375,92.84375 C 21.94656,91.814317 24.53316,90.978734 26.9375,89.6875 C 41.690109,94.03864 56.053448,94.93921 70.875,93.5 C 74.078926,93.18889 77.307588,92.76857 80.5625,92.25 C 87.303302,84.182062 92.748147,79.507249 99.40625,72.03125 z M 97.125,72.1875 L 98.09375,73 C 92.177533,79.510173 86.579005,84.657167 80.21875,91.3125 C 79.246741,91.529626 78.315143,91.720974 77.375,91.90625 C 84.031365,85.500993 90.699768,79.172952 96.96875,72.375 C 97.024518,72.314712 97.070044,72.247355 97.125,72.1875 z M 57.46875,72.9375 L 60.0625,74.09375 L 38.9375,91.59375 C 37.740301,91.357905 36.556608,91.091965 35.375,90.84375 C 41.735921,84.541994 49.513741,78.657363 57.4375,73 L 57.46875,72.9375 z M 40.9375,73.96875 L 42.9375,74.9375 C 41.793024,75.663689 40.64293,76.492469 39.46875,77.375 L 37.6875,76.4375 L 40.9375,73.96875 z M 35.5625,78.25 L 37.15625,79.1875 C 36.309552,79.888171 35.468982,80.604243 34.625,81.375 L 33,80.53125 L 35.5625,78.25 z M 30.78125,82.84375 L 32.25,83.65625 C 31.475866,84.429417 30.695237,85.236906 29.9375,86.0625 L 28.21875,84.9375 L 30.78125,82.84375 z M 102.3125,85.78125 L 101.15625,86.1875 L 101.34375,94.71875 C 100.6126,94.993058 99.999375,94.441878 99.34375,94.1875 C 97.8125,93.582629 96.28125,93.506406 94.75,93.5625 C 97.277316,93.82442 99.701312,94.214344 101.34375,95.34375 C 105.13873,97.953329 107.46729,98.560211 111.65625,100.46875 C 113.35331,101.18435 115.26944,101.70825 116.34375,102.96875 C 115.94574,102.03252 114.81335,101.36251 113.46875,100.78125 L 113.96875,86.90625 L 112.53125,87.46875 L 109.8125,89.21875 L 107.65625,86.9375 L 106.09375,87.59375 L 104.8125,88.96875 L 102.3125,85.78125 z M 102.25,85.96875 L 104.6875,89.125 L 104.21875,89.65625 L 101.3125,86.34375 L 102.25,85.96875 z M 26.34375,86.96875 L 28.3125,87.90625 C 27.985101,88.286481 27.666025,88.673149 27.34375,89.0625 L 24.71875,90.15625 L 23.71875,89 L 26.34375,86.96875 z M 107.375,87.1875 L 109.5,89.40625 L 109,89.75 L 106.34375,87.78125 L 107.375,87.1875 z M 113.71875,87.21875 L 113.21875,100.6875 C 112.91221,100.55906 112.59925,100.43664 112.28125,100.3125 L 112.53125,87.875 L 113.71875,87.21875 z M 101.71875,87.625 L 103.84375,90.34375 L 103.8125,96.34375 L 102.0625,95.5 L 101.71875,87.625 z M 106.125,88.21875 L 107.5625,89.3125 L 107.40625,98.09375 L 104,96.4375 L 104.09375,90.65625 L 104.34375,90.96875 L 106.125,88.21875 z M 111.84375,88.53125 L 111.75,100.1875 L 110.0625,99.375 L 110.21875,89.59375 L 111.84375,88.53125 z M 107.71875,89.4375 L 108.96875,90.40625 L 110.03125,89.71875 L 109.75,99.21875 L 107.59375,98.1875 L 107.71875,89.4375 z M 28.9375,96.9375 C 29.601044,96.94958 30.272491,96.98178 30.9375,97 L 31.28125,98.15625 C 30.522945,97.77339 29.74163,97.38121 28.9375,96.9375 z M 31.125,97 C 32.330556,97.03397 33.539395,97.07561 34.75,97.125 L 35.625,100.125 C 34.326395,99.60581 32.946305,99.00442 31.5,98.28125 L 31.125,97 z M 35,97.15625 C 36.095867,97.20172 37.181009,97.22796 38.28125,97.28125 L 39.1875,101.375 C 38.155737,101.07284 37.093107,100.71997 35.96875,100.28125 L 35,97.15625 z M 38.46875,97.3125 C 39.523252,97.36387 40.59753,97.41425 41.65625,97.46875 L 42.71875,102.21875 C 41.686552,102.04326 40.619357,101.78513 39.5,101.46875 L 38.46875,97.3125 z M 41.90625,97.46875 C 43.098375,97.5302 44.30226,97.59625 45.5,97.65625 L 46.4375,102.59375 C 45.315424,102.55848 44.143912,102.4455 42.9375,102.25 L 41.90625,97.46875 z M 45.84375,97.65625 C 46.916661,97.7096 47.984865,97.76477 49.0625,97.8125 L 49.84375,102.46875 C 48.817867,102.55903 47.786325,102.61623 46.71875,102.59375 L 45.84375,97.65625 z M 69.28125,97.8125 C 68.322762,98.03696 67.39132,98.26783 66.5,98.5 L 66.21875,97.96875 C 67.236162,97.92769 68.258831,97.87847 69.28125,97.8125 z M 49.28125,97.84375 C 50.574981,97.9004 51.855392,97.92665 53.15625,97.96875 C 53.199128,99.27808 53.801962,100.54071 54.1875,101.8125 C 53.254116,102.01117 52.326772,102.18924 51.40625,102.3125 C 50.970301,102.37087 50.532696,102.39541 50.09375,102.4375 L 49.28125,97.84375 z M 53.3125,97.96875 C 54.683285,98.01234 56.058413,98.04292 57.4375,98.0625 L 58,100.875 C 56.787661,101.20712 55.619481,101.49772 54.46875,101.75 C 54.113503,100.60092 53.55443,99.00019 53.3125,97.96875 z M 66.03125,97.96875 L 66.34375,98.53125 C 65.070158,98.86468 63.909534,99.20158 62.75,99.53125 C 62.578549,99.0463 62.418443,98.55739 62.28125,98.0625 C 63.526443,98.04615 64.778731,98.01755 66.03125,97.96875 z M 57.65625,98.0625 C 59.079487,98.08117 60.504987,98.07819 61.9375,98.0625 C 62.085877,98.61311 62.33845,99.08333 62.5625,99.59375 C 61.043781,100.0265 59.565898,100.43262 58.1875,100.8125 L 57.65625,98.0625 z M 25.75,101.59375 L 8.4375,111.75 L 11.15625,111.9375 L 10.1875,113.46875 L 12.84375,113.25 L 12.8125,114.71875 C 18.988927,112.01207 19.709729,110.7558 26.78125,109.6875 L 26.34375,108.59375 L 27.84375,106.71875 L 26.1875,106.1875 L 26.90625,104.4375 L 23.65625,105.875 L 25.75,101.59375 z M 24.84375,102.59375 L 22.65625,106.71875 L 26.21875,105 L 25.28125,106.75 L 27.28125,106.9375 L 25.90625,108.625 L 25.71875,109.25 C 20.443768,110.34235 17.887096,112.04158 13.21875,114.0625 L 13.71875,112.71875 L 10.6875,113.1875 L 12.25,111.53125 L 9.78125,111.5625 L 24.84375,102.59375 z"
       id="path2308" />
  </g>
</svg>
