<?xml version="1.0" encoding="UTF-8" standalone="no"?>
<!-- Created with Inkscape (http://www.inkscape.org/) -->
<svg
   xmlns:dc="http://purl.org/dc/elements/1.1/"
   xmlns:cc="http://creativecommons.org/ns#"
   xmlns:rdf="http://www.w3.org/1999/02/22-rdf-syntax-ns#"
   xmlns:svg="http://www.w3.org/2000/svg"
   xmlns="http://www.w3.org/2000/svg"
   xmlns:xlink="http://www.w3.org/1999/xlink"
   xmlns:sodipodi="http://sodipodi.sourceforge.net/DTD/sodipodi-0.dtd"
   xmlns:inkscape="http://www.inkscape.org/namespaces/inkscape"
   width="128"
   height="128"
   id="svg2"
   sodipodi:version="0.32"
   inkscape:version="0.45+devel"
   version="1.0"
   sodipodi:docname="watch_tower.svg"
   inkscape:output_extension="org.inkscape.output.svg.inkscape">
  <defs
     id="defs4">
    <linearGradient
       id="linearGradient2320">
      <stop
         id="stop2322"
         offset="0"
         style="stop-color:#6a3c1d;stop-opacity:1;" />
      <stop
         id="stop2324"
         offset="1"
         style="stop-color:#8f5127;stop-opacity:1;" />
    </linearGradient>
    <linearGradient
       id="linearGradient3332">
      <stop
         id="stop3334"
         offset="0"
         style="stop-color:#bb8f56;stop-opacity:1;" />
      <stop
         id="stop3336"
         offset="1"
         style="stop-color:#d1af63;stop-opacity:1;" />
    </linearGradient>
    <linearGradient
       inkscape:collect="always"
       xlink:href="#linearGradient2320"
       id="linearGradient2433"
       x1="57.945946"
       y1="51.754997"
       x2="68.410805"
       y2="23.127972"
       gradientUnits="userSpaceOnUse" />
    <linearGradient
       inkscape:collect="always"
       xlink:href="#linearGradient2320"
       id="linearGradient2439"
       x1="47.762199"
       y1="45.134727"
       x2="47.2118"
       y2="45.990902"
       gradientUnits="userSpaceOnUse" />
    <linearGradient
       inkscape:collect="always"
       xlink:href="#linearGradient2320"
       id="linearGradient3022"
       x1="72.958138"
       y1="49.690788"
       x2="72.526642"
       y2="48.589996"
       gradientUnits="userSpaceOnUse" />
    <linearGradient
       inkscape:collect="always"
       xlink:href="#linearGradient2320"
       id="linearGradient3026"
       x1="37.396393"
       y1="68.22081"
       x2="38.46661"
       y2="68.22081"
       gradientUnits="userSpaceOnUse" />
    <linearGradient
       inkscape:collect="always"
       xlink:href="#linearGradient2320"
       id="linearGradient3030"
       gradientUnits="userSpaceOnUse"
       x1="37.396393"
       y1="68.22081"
       x2="38.46661"
       y2="68.22081"
       gradientTransform="matrix(0.9997998,-2.0011008e-2,2.0011008e-2,0.9997998,18.823592,18.13619)" />
    <linearGradient
       inkscape:collect="always"
       xlink:href="#linearGradient2320"
       id="linearGradient3034"
       gradientUnits="userSpaceOnUse"
       gradientTransform="matrix(0.9947176,-0.1026499,0.1026499,0.9947176,45.336351,11.562919)"
       x1="37.396393"
       y1="68.22081"
       x2="38.46661"
       y2="68.22081" />
    <linearGradient
       inkscape:collect="always"
       xlink:href="#linearGradient2320"
       id="linearGradient3040"
       x1="48.125"
       y1="50.71875"
       x2="48.625"
       y2="52.09375"
       gradientUnits="userSpaceOnUse" />
    <linearGradient
       inkscape:collect="always"
       xlink:href="#linearGradient2320"
       id="linearGradient3111"
       x1="66.231061"
       y1="68.832363"
       x2="68.799576"
       y2="68.465431"
       gradientUnits="userSpaceOnUse" />
    <linearGradient
       inkscape:collect="always"
       xlink:href="#linearGradient2320"
       id="linearGradient3115"
       x1="45.92754"
       y1="85.680618"
       x2="45.071369"
       y2="86.536789"
       gradientUnits="userSpaceOnUse" />
    <linearGradient
       inkscape:collect="always"
       xlink:href="#linearGradient2320"
       id="linearGradient3121"
       x1="68.126869"
       y1="92.28537"
       x2="69.044197"
       y2="94.486961"
       gradientUnits="userSpaceOnUse" />
    <linearGradient
       inkscape:collect="always"
       xlink:href="#linearGradient2320"
       id="linearGradient3164"
       x1="58.280888"
       y1="68.526581"
       x2="58.831284"
       y2="69.994308"
       gradientUnits="userSpaceOnUse" />
    <linearGradient
       inkscape:collect="always"
       xlink:href="#linearGradient2320"
       id="linearGradient3170"
       x1="76.627449"
       y1="71.064522"
       x2="76.077042"
       y2="71.859543"
       gradientUnits="userSpaceOnUse" />
    <linearGradient
       inkscape:collect="always"
       xlink:href="#linearGradient2320"
       id="linearGradient3175"
       x1="81.812889"
       y1="55.202438"
       x2="81.003082"
       y2="56.986027"
       gradientUnits="userSpaceOnUse" />
    <linearGradient
       inkscape:collect="always"
       xlink:href="#linearGradient2320"
       id="linearGradient3180"
       x1="82.192558"
       y1="64.765549"
       x2="82.681808"
       y2="65.927498"
       gradientUnits="userSpaceOnUse" />
    <linearGradient
       inkscape:collect="always"
       xlink:href="#linearGradient2320"
       id="linearGradient3184"
       x1="46.844868"
       y1="62.869732"
       x2="45.744076"
       y2="64.153992"
       gradientUnits="userSpaceOnUse" />
    <linearGradient
       inkscape:collect="always"
       xlink:href="#linearGradient2320"
       id="linearGradient3188"
       x1="42.24963"
       y1="49.002914"
       x2="43.221901"
       y2="49.975189"
       gradientUnits="userSpaceOnUse" />
    <linearGradient
       inkscape:collect="always"
       xlink:href="#linearGradient2320"
       id="linearGradient3192"
       x1="51.839767"
       y1="59.344353"
       x2="51.707188"
       y2="60.272427"
       gradientUnits="userSpaceOnUse" />
    <linearGradient
       inkscape:collect="always"
       xlink:href="#linearGradient2320"
       id="linearGradient3196"
       x1="47.72971"
       y1="54.12944"
       x2="47.862289"
       y2="55.190098"
       gradientUnits="userSpaceOnUse" />
    <linearGradient
       inkscape:collect="always"
       xlink:href="#linearGradient2320"
       id="linearGradient3200"
       x1="49.439419"
       y1="56.449635"
       x2="48.768272"
       y2="57.245129"
       gradientUnits="userSpaceOnUse" />
    <linearGradient
       inkscape:collect="always"
       xlink:href="#linearGradient2320"
       id="linearGradient3205"
       x1="46.757439"
       y1="65.354759"
       x2="48.039066"
       y2="66.45961"
       gradientUnits="userSpaceOnUse" />
    <linearGradient
       inkscape:collect="always"
       xlink:href="#linearGradient2320"
       id="linearGradient3209"
       x1="46.669048"
       y1="73.066643"
       x2="46.182911"
       y2="74.525047"
       gradientUnits="userSpaceOnUse" />
    <linearGradient
       inkscape:collect="always"
       xlink:href="#linearGradient2320"
       id="linearGradient3213"
       x1="48.878754"
       y1="76.20443"
       x2="49.011337"
       y2="77.265091"
       gradientUnits="userSpaceOnUse" />
    <linearGradient
       inkscape:collect="always"
       xlink:href="#linearGradient2320"
       id="linearGradient3217"
       x1="73.185555"
       y1="58.283691"
       x2="72.787804"
       y2="58.990799"
       gradientUnits="userSpaceOnUse" />
    <linearGradient
       inkscape:collect="always"
       xlink:href="#linearGradient2320"
       id="linearGradient3221"
       x1="72.566833"
       y1="59.609516"
       x2="71.99231"
       y2="60.09565"
       gradientUnits="userSpaceOnUse" />
    <linearGradient
       inkscape:collect="always"
       xlink:href="#linearGradient2320"
       id="linearGradient3225"
       x1="72.036499"
       y1="59.0854"
       x2="73.207649"
       y2="60.013477"
       gradientUnits="userSpaceOnUse" />
    <linearGradient
       inkscape:collect="always"
       xlink:href="#linearGradient2320"
       id="linearGradient3229"
       x1="84.035225"
       y1="71.895493"
       x2="83.526993"
       y2="73.044548"
       gradientUnits="userSpaceOnUse" />
    <linearGradient
       inkscape:collect="always"
       xlink:href="#linearGradient2320"
       id="linearGradient3233"
       x1="71.99231"
       y1="80.269745"
       x2="73.627495"
       y2="81.153625"
       gradientUnits="userSpaceOnUse" />
    <linearGradient
       inkscape:collect="always"
       xlink:href="#linearGradient2320"
       id="linearGradient3237"
       x1="74.467186"
       y1="78.944466"
       x2="74.467186"
       y2="80.049324"
       gradientUnits="userSpaceOnUse" />
    <linearGradient
       inkscape:collect="always"
       xlink:href="#linearGradient3332"
       id="linearGradient3243"
       x1="69.826797"
       y1="79.4748"
       x2="70.622284"
       y2="79.386414"
       gradientUnits="userSpaceOnUse" />
    <linearGradient
       inkscape:collect="always"
       xlink:href="#linearGradient3332"
       id="linearGradient3247"
       x1="79.284348"
       y1="77.441864"
       x2="80.477585"
       y2="76.999924"
       gradientUnits="userSpaceOnUse" />
    <linearGradient
       inkscape:collect="always"
       xlink:href="#linearGradient3332"
       id="linearGradient3251"
       x1="71.918495"
       y1="49.415592"
       x2="72.132538"
       y2="49.996567"
       gradientUnits="userSpaceOnUse" />
    <linearGradient
       inkscape:collect="always"
       xlink:href="#linearGradient3332"
       id="linearGradient3255"
       gradientUnits="userSpaceOnUse"
       x1="71.918495"
       y1="49.415592"
       x2="72.132538"
       y2="49.996567"
       gradientTransform="translate(0.3363535,3.210647)" />
    <linearGradient
       inkscape:collect="always"
       xlink:href="#linearGradient3332"
       id="linearGradient3259"
       gradientUnits="userSpaceOnUse"
       gradientTransform="translate(0.4280863,6.6047596)"
       x1="71.918495"
       y1="49.415592"
       x2="72.132538"
       y2="49.996567" />
    <linearGradient
       inkscape:collect="always"
       xlink:href="#linearGradient3332"
       id="linearGradient3263"
       gradientUnits="userSpaceOnUse"
       gradientTransform="translate(0.8867502,10.02945)"
       x1="71.918495"
       y1="49.415592"
       x2="72.132538"
       y2="49.996567" />
    <linearGradient
       inkscape:collect="always"
       xlink:href="#linearGradient3332"
       id="linearGradient3267"
       gradientUnits="userSpaceOnUse"
       gradientTransform="translate(1.2231037,13.851649)"
       x1="71.918495"
       y1="49.415592"
       x2="72.132538"
       y2="49.996567" />
    <linearGradient
       inkscape:collect="always"
       xlink:href="#linearGradient3332"
       id="linearGradient3271"
       gradientUnits="userSpaceOnUse"
       gradientTransform="translate(1.4677244,17.001141)"
       x1="71.918495"
       y1="49.415592"
       x2="72.132538"
       y2="49.996567" />
    <linearGradient
       inkscape:collect="always"
       xlink:href="#linearGradient3332"
       id="linearGradient3275"
       gradientUnits="userSpaceOnUse"
       gradientTransform="translate(1.7735003,20.395254)"
       x1="71.918495"
       y1="49.415592"
       x2="72.132538"
       y2="49.996567" />
    <linearGradient
       inkscape:collect="always"
       xlink:href="#linearGradient3332"
       id="linearGradient3279"
       gradientUnits="userSpaceOnUse"
       gradientTransform="translate(2.3544745,23.972832)"
       x1="71.918495"
       y1="49.415592"
       x2="72.132538"
       y2="49.996567" />
    <linearGradient
       inkscape:collect="always"
       xlink:href="#linearGradient3332"
       id="linearGradient3283"
       gradientUnits="userSpaceOnUse"
       gradientTransform="translate(2.8437159,27.366945)"
       x1="71.918495"
       y1="49.415592"
       x2="72.132538"
       y2="49.996567" />
    <linearGradient
       inkscape:collect="always"
       xlink:href="#linearGradient3332"
       id="linearGradient3287"
       gradientUnits="userSpaceOnUse"
       gradientTransform="translate(3.4246901,35.16423)"
       x1="71.918495"
       y1="49.415592"
       x2="72.132538"
       y2="49.996567" />
    <linearGradient
       inkscape:collect="always"
       xlink:href="#linearGradient3332"
       id="linearGradient3293"
       gradientUnits="userSpaceOnUse"
       gradientTransform="translate(3.8527764,38.497187)"
       x1="71.918495"
       y1="49.415592"
       x2="72.132538"
       y2="49.996567" />
    <linearGradient
       inkscape:collect="always"
       xlink:href="#linearGradient3332"
       id="linearGradient3297"
       gradientUnits="userSpaceOnUse"
       gradientTransform="translate(4.1891299,42.227653)"
       x1="71.918495"
       y1="49.415592"
       x2="72.132538"
       y2="49.996567" />
    <linearGradient
       inkscape:collect="always"
       xlink:href="#linearGradient3332"
       id="linearGradient3301"
       gradientUnits="userSpaceOnUse"
       gradientTransform="translate(4.8312593,46.233317)"
       x1="71.918495"
       y1="49.415592"
       x2="72.132538"
       y2="49.996567" />
    <linearGradient
       inkscape:collect="always"
       xlink:href="#linearGradient3332"
       id="linearGradient3305"
       gradientUnits="userSpaceOnUse"
       gradientTransform="translate(5.1676128,50.300137)"
       x1="71.918495"
       y1="49.415592"
       x2="72.132538"
       y2="49.996567" />
    <linearGradient
       inkscape:collect="always"
       xlink:href="#linearGradient3332"
       id="linearGradient3309"
       gradientUnits="userSpaceOnUse"
       gradientTransform="translate(5.6262767,53.908293)"
       x1="71.918495"
       y1="49.415592"
       x2="72.132538"
       y2="49.996567" />
    <linearGradient
       inkscape:collect="always"
       xlink:href="#linearGradient3332"
       id="linearGradient3313"
       gradientUnits="userSpaceOnUse"
       gradientTransform="translate(5.901475,57.485871)"
       x1="71.918495"
       y1="49.415592"
       x2="72.132538"
       y2="49.996567" />
    <filter
       inkscape:collect="always"
       id="filter3439">
      <feGaussianBlur
         inkscape:collect="always"
         stdDeviation="1.1828996"
         id="feGaussianBlur3441" />
    </filter>
    <linearGradient
       inkscape:collect="always"
       xlink:href="#linearGradient3332"
       id="linearGradient2414"
       gradientUnits="userSpaceOnUse"
       gradientTransform="translate(3.0815537,31.518296)"
       x1="71.918495"
       y1="49.415592"
       x2="72.132538"
       y2="49.996567" />
  </defs>
  <sodipodi:namedview
     id="base"
     pagecolor="#ffffff"
     bordercolor="#666666"
     borderopacity="1.0"
     gridtolerance="10000"
     guidetolerance="10"
     objecttolerance="10"
     inkscape:pageopacity="0.0"
     inkscape:pageshadow="2"
     inkscape:zoom="1"
     inkscape:cx="79.465586"
     inkscape:cy="48.729207"
     inkscape:document-units="px"
     inkscape:current-layer="layer2"
     showgrid="false"
     width="744.09px"
     inkscape:window-width="1248"
     inkscape:window-height="975"
     inkscape:window-x="285"
     inkscape:window-y="24"
     showguides="true"
     inkscape:guide-bbox="true" />
  <metadata
     id="metadata7">
    <rdf:RDF>
      <cc:Work
         rdf:about="">
        <dc:format>image/svg+xml</dc:format>
        <dc:type
           rdf:resource="http://purl.org/dc/dcmitype/StillImage" />
      </cc:Work>
    </rdf:RDF>
  </metadata>
  <g
     inkscape:groupmode="layer"
     id="layer2"
     inkscape:label="colors">
    <path
       style="fill:#000000;fill-rule:evenodd;stroke:none;stroke-width:1px;stroke-linecap:butt;stroke-linejoin:miter;stroke-opacity:1;fill-opacity:0.66666669000000001;filter:url(#filter3439)"
       d="M 57.350212,58.08831 C 47.818922,59.957369 38.456285,62.563477 29.028733,64.877939 C 29.863508,65.412011 31.66087,67.268326 29.778079,65.691329 C 27.838055,63.841343 27.439907,66.927274 29.821222,67.017059 C 33.013768,67.079359 31.267901,71.414179 32.029362,73.485359 C 32.650901,81.265668 33.272442,89.045977 33.893982,96.826286 C 37.688804,98.516336 35.544162,93.033547 35.658255,91.096362 C 35.165885,89.125074 35.408771,88.186204 37.28315,89.538216 C 43.323968,92.349254 46.251273,95.160291 52.292091,97.971329 C 53.215266,100.49344 54.765316,111.4537 57.138513,112.74224 C 59.917434,112.26821 54.388912,101.4757 54.763809,99.498515 C 54.689392,98.419098 53.951969,95.610281 54.909139,98.014831 C 58.487919,97.309998 63.436856,97.384691 67.081947,96.606182 C 68.71742,99.448951 69.505999,107.60389 71.877552,109.17071 C 72.799929,106.88764 77.977082,106.14439 80.696776,105.23804 C 81.669465,104.45377 82.324334,108.87434 82.831048,106.78259 C 81.535326,103.6527 79.547712,96.890384 78.25199,93.760496 C 80.515612,93.636162 84.685744,91.202665 86.261334,92.260833 C 87.548661,94.999184 88.38355,99.171027 90.489696,100.91222 C 93.672898,100.89183 90.102291,96.643596 90.166846,94.828053 C 87.477609,86.462797 84.788372,78.097541 82.099136,69.732285 C 77.81207,70.286724 87.189445,69.717476 84.120856,68.098757 C 81.881538,67.011079 79.715764,65.655324 77.184806,65.349382 C 75.644236,64.805308 74.968632,63.844881 72.847295,63.878434 C 70.432624,61.811014 67.234411,61.882264 64.465966,60.668104 C 62.346177,60.137496 60.230861,59.483269 59.154027,58.24387 C 58.555751,58.223503 57.908857,58.382215 57.350212,58.08831 z M 35.937752,68.619492 C 37.29685,68.91702 37.597422,69.807571 37.921784,70.140766 C 40.859713,70.517305 36.76349,71.789549 36.124334,69.79616 C 35.417814,69.236625 33.957494,68.547034 35.937752,68.619492 z M 33.420677,68.845276 C 34.614479,70.246718 38.790816,71.687577 35.543929,73.03033 C 33.033052,75.947821 33.987562,70.844075 33.455207,69.181935 L 33.420677,68.845276 L 33.420677,68.845276 z M 79.85273,70.216103 C 77.122865,70.900835 74.64899,74.619896 71.98892,73.605714 C 70.377706,70.502814 76.270765,71.744361 78.137346,70.588055 C 78.709112,70.463937 79.280907,70.33995 79.85273,70.216103 z M 39.877834,70.651543 C 41.371259,70.587964 46.071331,73.000615 42.282742,73.076331 C 40.865381,74.198 36.825908,71.749901 39.877834,70.651543 z M 80.601028,70.828941 C 81.122878,73.548955 83.193882,77.186875 82.744777,79.32908 C 80.010615,79.453407 76.918803,81.712185 74.559059,79.891811 C 72.819793,77.380691 77.386808,78.994749 78.905198,78.951467 C 79.97906,79.374046 84.864413,79.170829 81.531098,78.569885 C 78.91349,78.114774 75.751883,78.276552 73.485588,77.346779 C 72.500555,76.084001 72.650069,74.732887 74.366009,76.007861 C 77.023708,77.197768 79.648685,78.694858 82.644072,78.6732 C 82.187986,78.013701 78.716134,76.889076 77.009297,76.017747 C 74.964125,75.365936 73.752502,73.979218 76.403998,73.257459 C 77.803008,72.447953 79.202019,71.638447 80.601028,70.828941 z M 69.734062,71.490166 C 67.899135,71.875944 63.861966,72.829467 63.412994,72.835791 C 65.520017,72.387249 67.62704,71.938707 69.734062,71.490166 z M 46.365044,72.296532 C 47.634338,72.657459 50.2402,74.461685 49.400535,74.623954 C 49.50385,73.25948 47.218253,73.076684 46.365044,72.296532 z M 70.121536,72.328789 C 71.26474,74.016028 67.810926,71.876982 70.121536,72.328789 L 70.121536,72.328789 z M 37.749779,72.344917 C 39.226611,73.151942 39.808335,74.179024 37.556868,74.129948 C 36.399877,74.234954 32.406735,75.617565 35.5243,74.19134 C 36.248181,73.558669 36.994521,72.946376 37.749779,72.344917 z M 67.57885,72.89325 C 67.897919,73.48675 69.967451,73.89669 67.666776,74.001366 C 66.446017,74.021572 62.166372,75.907923 63.920218,73.546969 C 65.133542,73.681646 66.369884,73.065317 67.57885,72.89325 z M 46.415257,73.167412 C 47.689967,73.663952 49.602328,75.258386 47.015685,74.909168 C 45.719687,74.691239 42.015566,75.72613 42.31305,74.316668 C 43.63172,73.900943 45.335756,73.853191 46.415257,73.167412 z M 61.674992,73.215797 C 57.702525,74.083522 53.764916,75.290349 49.691996,75.53652 C 53.743961,75.110512 57.684145,74.007621 61.674992,73.215797 z M 61.950443,74.118927 C 59.505866,73.933331 61.966738,77.304888 59.283406,75.963708 C 58.005005,75.777606 53.860816,75.612803 57.146529,75.171203 C 58.747916,74.820819 60.349491,74.471295 61.950443,74.118927 z M 70.188667,74.215691 C 72.652778,75.644532 67.712107,75.59855 66.673684,76.048012 C 65.534397,76.865995 62.504641,76.137058 64.82731,75.244977 C 66.625013,74.964638 68.400392,74.550405 70.188667,74.215691 z M 40.695499,74.715645 C 40.172992,75.925709 35.066184,74.378978 34.216687,75.813046 C 33.977882,74.938543 37.824551,75.341719 39.223312,75.059029 C 39.722327,74.985514 40.216772,74.875564 40.695499,74.715645 z M 48.514835,75.215591 C 49.183614,77.810426 44.730319,78.269839 43.652052,75.966456 C 44.472084,75.139159 47.955905,76.48559 48.514835,75.215591 z M 55.395473,75.554268 C 53.441305,75.818483 51.950837,76.394322 52.776626,78.546551 C 51.470628,78.381935 46.813542,78.417012 49.886495,77.002743 C 51.434122,75.749008 53.560832,76.342123 55.395473,75.554268 z M 42.003399,75.780052 C 43.002064,76.493787 44.387493,77.584088 42.198277,76.909814 C 40.437234,76.572878 36.628198,76.078149 36.15619,75.840527 C 38.105259,75.820369 40.05433,75.80021 42.003399,75.780052 z M 34.550873,75.860687 L 34.906982,76.008705 L 34.550873,75.860687 L 34.550873,75.860687 z M 54.417336,75.973579 C 56.65415,76.834299 60.83211,75.450607 61.531514,78.094329 C 62.188526,79.667337 62.288772,80.737791 60.306848,79.92882 C 57.816582,79.274534 53.874465,80.048136 54.47446,76.354588 L 54.417336,75.973579 L 54.417336,75.973579 z M 71.614571,76.021957 C 72.869698,77.727712 67.920974,77.349549 71.140547,76.324599 L 71.614571,76.021957 L 71.614571,76.021957 z M 69.615768,76.183235 C 68.529218,77.621965 64.755475,76.796757 68.076198,76.497467 C 68.58328,76.364652 69.104259,76.295702 69.615768,76.183235 z M 35.585712,76.344505 C 38.692431,77.253832 42.871358,76.726395 45.309373,78.61566 C 43.643422,81.241293 41.192849,78.737569 39.164181,78.030779 C 37.971358,77.468688 36.778533,76.906596 35.585712,76.344505 z M 34.254436,77.183128 C 36.655628,78.481327 40.637067,79.736681 42.057993,81.061457 C 40.027846,83.899196 38.14418,79.690305 36.35757,78.640057 C 35.70908,78.077357 35.071674,77.489467 34.254436,77.183128 z M 64.53569,77.183128 C 64.737741,77.255002 64.184093,77.266659 64.53569,77.183128 z M 64.792175,77.215385 C 66.26242,77.090233 68.19169,78.08588 65.720134,77.486887 L 65.401326,77.368696 L 64.792175,77.215385 L 64.792175,77.215385 z M 64.668724,77.844353 C 66.269424,77.551863 65.39565,78.86098 64.672272,77.854958 L 64.668724,77.844353 z M 70.316437,77.957245 C 71.690571,77.706967 73.768823,79.263462 71.439764,78.529831 C 70.944677,78.361177 68.498997,78.169905 70.316437,77.957245 z M 34.358616,78.166901 C 35.847615,79.817427 38.750893,81.519367 39.354517,83.137706 C 38.004482,83.766194 35.80443,86.403587 35.10883,85.778878 C 34.863898,83.241196 34.607581,80.704371 34.358616,78.166901 z M 47.932045,78.376556 C 50.526955,78.824794 53.952383,78.474234 53.296027,82.04957 C 51.609913,83.972915 49.037026,79.733922 47.216888,78.860382 L 47.574466,78.618469 L 47.932045,78.376556 L 47.932045,78.376556 z M 67.913773,78.441071 C 69.066289,78.750021 72.864784,79.051098 69.858969,79.372421 C 68.565652,79.562311 63.640655,80.97322 66.729549,79.109537 C 67.170984,78.972494 67.469986,78.537883 67.913773,78.441071 z M 64.931198,78.682976 L 65.017107,78.89438 L 64.931198,78.682976 L 64.931198,78.682976 z M 46.504974,79.360329 C 47.620918,80.555411 50.915767,82.183585 50.591044,83.092314 C 48.945364,82.674199 45.08284,81.326102 45.126909,80.315876 C 45.586264,79.99736 46.045619,79.678844 46.504974,79.360329 z M 54.946915,79.537727 C 56.840681,79.928698 60.927701,80.397614 61.609002,80.673472 C 59.100872,80.57755 54.286844,84.123718 54.946915,79.537727 z M 73.009415,79.537727 C 73.39167,81.52605 69.188523,80.732092 67.770168,81.490446 C 66.212919,81.725371 65.569397,80.384257 67.573618,80.594416 C 69.38555,80.242186 71.197484,79.889956 73.009415,79.537727 z M 83.499176,80.263458 C 83.526273,80.396104 83.249365,80.209014 83.499176,80.263458 z M 82.482101,80.489243 C 81.229773,81.411861 77.363573,83.907412 77.661709,81.469183 C 79.286323,81.280187 80.874088,80.795471 82.482101,80.489243 z M 62.223564,80.602135 C 60.131322,81.590922 57.108541,84.143131 55.584505,84.284024 C 55.335814,81.722146 59.889152,83.200704 61.18805,81.192359 C 61.533221,80.995618 61.878393,80.798876 62.223564,80.602135 z M 83.671997,80.81179 C 84.484166,83.634356 85.056436,87.99424 85.482054,89.97233 C 84.362713,89.41251 82.502977,89.672937 84.851257,89.668523 C 81.97829,88.207388 79.791047,86.815992 76.853226,85.440353 C 78.527286,82.25496 81.197086,86.589309 83.009399,87.582184 C 83.605614,88.40094 86.383121,90.738208 84.795147,88.431836 C 83.19289,86.735807 79.859804,84.737738 79.954014,83.126069 C 81.193342,82.354643 82.43267,81.583215 83.671997,80.81179 z M 65.760452,80.940811 L 65.835883,81.377927 L 65.760452,80.940811 L 65.760452,80.940811 z M 73.618378,81.166595 C 72.606386,81.618234 68.633788,82.461907 69.501993,81.951504 C 70.87412,81.689865 72.246251,81.428231 73.618378,81.166595 z M 43.517288,81.440758 C 44.630519,82.284964 50.153524,83.613532 46.539343,83.938489 C 44.810408,84.530078 41.496975,85.231073 41.554209,82.795796 C 42.208567,82.344114 42.862928,81.892437 43.517288,81.440758 z M 62.477501,81.55365 C 64.287778,84.457504 60.209982,83.88716 58.471937,84.565503 C 54.815687,85.617892 59.933385,83.222188 61.046286,82.400337 C 61.523357,82.118108 62.00043,81.835879 62.477501,81.55365 z M 75.986382,81.908455 C 77.297209,82.364236 78.187929,84.146563 76.219111,83.903266 C 76.164047,83.374003 74.779414,81.805083 75.986382,81.908455 z M 66.074844,82.037476 L 66.139692,82.228431 L 66.074844,82.037476 L 66.074844,82.037476 z M 67.03096,82.440659 C 68.123005,83.022482 65.023964,82.671509 67.03096,82.440659 z M 74.309311,82.892227 C 76.34311,85.499683 70.073072,83.1949 73.293755,83.094102 L 73.801533,82.993165 L 74.309311,82.892227 L 74.309311,82.892227 z M 40.38958,83.60183 C 43.729323,85.684235 38.279707,85.384104 36.848278,86.037064 C 38.028712,85.225319 39.209147,84.413574 40.38958,83.60183 z M 53.524315,83.650215 C 53.97389,84.502219 52.7779,83.494266 53.524315,83.650215 z M 70.068542,83.714722 C 71.356945,84.164461 72.739123,84.909479 70.410964,84.948018 C 69.27132,85.239999 66.088689,86.084497 67.195877,84.172254 C 68.170635,84.134476 69.110755,83.884975 70.068542,83.714722 z M 52.298222,83.924377 C 53.888593,84.897394 53.386576,84.839654 51.979311,83.996592 L 52.298222,83.924377 L 52.298222,83.924377 z M 50.061546,84.456581 C 51.16972,85.109313 55.236218,86.340163 51.907141,86.125765 C 49.57759,85.823541 45.908916,87.232095 44.406774,85.783691 C 46.263479,85.276161 48.183521,84.915506 50.061546,84.456581 z M 63.353729,84.666237 C 64.132806,86.179566 64.068572,87.548996 61.997016,86.75972 C 60.466381,86.449353 56.559917,86.302919 56.532693,86.147939 C 58.806372,85.654038 61.08005,85.160137 63.353729,84.666237 z M 55.972588,85.101677 L 55.790981,85.14371 L 55.972588,85.101677 L 55.972588,85.101677 z M 73.197823,85.133934 C 74.975901,86.286916 70.464096,86.864898 69.521924,87.006225 C 67.987517,88.249314 66.687778,85.775116 68.738227,85.963313 C 70.224759,85.686856 71.711292,85.410394 73.197823,85.133934 z M 53.738808,85.182312 C 54.236969,89.004501 51.621616,92.826691 52.119778,96.64888 C 50.51649,96.361123 53.025082,96.231808 51.290612,95.245797 C 48.317138,92.504144 48.457178,89.76249 45.483704,87.020836 C 48.124335,86.655527 51.934957,87.234383 53.846092,86.280382 C 53.785028,85.917571 53.738775,85.550911 53.738808,85.182312 z M 43.101524,86.053192 C 44.114454,87.069258 39.074112,86.476741 41.917662,86.324316 C 42.314795,86.244514 42.709949,86.15653 43.101524,86.053192 z M 35.248386,86.472504 L 35.239965,87.064373 L 35.248386,86.472504 L 35.248386,86.472504 z M 75.76461,86.553139 C 78.221371,89.392051 72.583821,88.010328 72.900737,87.600063 C 73.737691,86.997597 74.731697,86.615023 75.76461,86.553139 z M 56.004025,86.81118 C 58.646116,87.589423 62.789259,86.605698 64.445767,88.54084 C 65.17996,90.362953 65.69593,91.745648 63.349013,92.36797 C 61.443435,93.150579 55.390211,96.149866 54.16477,95.474608 C 53.740017,92.586799 56.428779,89.698988 56.004025,86.81118 z M 44.184185,87.085342 C 47.361298,90.036654 47.424896,92.987966 50.602009,95.939278 C 44.458431,93.037728 41.413302,90.168083 35.279133,87.24662 C 37.463911,87.873191 39.935702,87.010916 42.245894,87.172117 C 42.891991,87.143192 43.538089,87.114266 44.184185,87.085342 z M 77.531181,87.101471 C 78.541798,87.660312 81.915581,88.891646 81.429826,89.024659 C 79.808121,88.614549 77.770356,89.32028 77.531181,87.101471 z M 71.005569,87.440147 C 69.815509,88.070446 69.904029,87.3559 71.005569,87.440147 z M 68.126816,88.198135 C 70.849608,87.685158 68.247508,90.272188 68.126816,88.198135 z M 71.301682,88.601318 C 72.977261,89.176229 76.136197,88.556826 76.847092,89.852617 C 74.338464,90.39714 71.735365,90.79301 69.184059,91.278465 C 68.235663,90.026513 70.720092,89.308885 71.301682,88.601318 z M 78.511391,89.488327 C 80.713297,89.805691 84.139817,90.199144 85.109145,90.57208 C 82.693078,90.517031 79.404255,93.556313 78.755634,90.081007 L 78.633513,89.784667 L 78.511391,89.488327 L 78.511391,89.488327 z M 77.350548,90.552734 C 78.169611,92.795378 71.64385,92.856532 70.213475,93.668775 C 69.040916,94.508459 68.10436,92.532612 70.390314,91.747154 C 72.720094,91.414977 75.029441,90.942284 77.350548,90.552734 z M 67.345596,91.149445 C 68.424455,92.671717 69.139353,95.130071 66.380635,94.803985 C 63.813532,95.381319 58.132914,95.958654 55.565811,96.535988 C 58.454761,94.740784 64.45569,92.94311 67.345596,91.149445 z M 75.487464,93.067022 C 73.289881,93.450567 69.861802,94.84479 68.319357,94.816533 C 70.579746,94.200824 73.176356,93.571163 75.487464,93.067022 z M 76.760871,94.115301 C 75.783965,94.636623 72.594544,94.931383 75.332416,94.442066 C 75.809018,94.33511 76.284179,94.221883 76.760871,94.115301 z M 77.07611,94.905538 C 78.411364,97.780008 73.537371,97.536241 71.918467,98.48588 C 70.565663,99.57432 67.591218,97.28665 69.690287,96.484095 C 72.106892,96.222969 74.671126,95.292651 77.07611,94.905538 z M 78.25012,98.039934 C 79.609661,100.89545 74.373861,100.13955 72.77831,101.08101 C 71.432435,102.15819 68.633891,100.38229 70.739641,99.607076 C 73.197107,99.348584 75.803652,98.423312 78.25012,98.039934 z M 79.247906,100.63929 C 80.347857,103.17867 75.341441,101.9016 73.861426,102.78412 C 72.677478,103.50955 69.703976,103.26651 71.609165,101.88166 C 74.159966,101.73035 76.704486,101.01143 79.247906,100.63929 z M 80.694429,102.69917 C 81.720846,105.08389 76.472169,105.97241 75.066808,106.78713 C 73.457471,106.75367 71.029621,106.26538 71.720163,103.77238 C 75.006565,103.32491 77.934535,103.13883 80.694429,102.69917 z"
       id="path3318"
       sodipodi:nodetypes="cccccccccccccccccccccccccccccccccccccccccccccccccccccccccccccccccccccccccccccccccccccccccccccccccccccccccccccccccccccccccccccccccccccccccccccccccccccccccccccccccccccccccccccccccccccccccccccccccccccccccccccccccccccccccccccccccccccccccccccccccccccccccccccccccccccccccccccccccccccccccccccccccccccccccccccccccccccccccccc" />
    <path
       style="fill:url(#linearGradient2433);fill-rule:evenodd;stroke:none;stroke-width:1px;stroke-linecap:butt;stroke-linejoin:miter;stroke-opacity:1"
       d="M 58.002755,54.4 L 54.674298,55.127715 L 55.437838,52.064865 L 52.497297,48.778378 L 50.854054,48.951351 L 49.383784,46.356757 L 45.145946,44.108108 L 45.232432,43.416216 L 43.243243,40.12973 L 41.945946,40.562162 L 38.313514,37.621622 L 36.67027,34.421622 C 36.67027,34.421622 65.638897,20.731425 66.503762,21.250344 C 67.368627,21.769263 68.843243,21.794595 68.843243,21.794595 L 68.583784,23.437838 L 72.821622,26.205405 L 73.859459,26.464865 L 75.762162,28.713513 L 77.405405,28.54054 L 80,31.135135 L 79.740541,32 L 83.718919,33.556757 L 83.113514,34.508108 L 87.697297,36.843243 L 91.32973,41.081081 L 58.002755,54.4 z"
       id="path2431"
       sodipodi:nodetypes="ccccccccccccsccccccccccccc" />
    <path
       style="fill:url(#linearGradient2439);fill-rule:evenodd;stroke:none;stroke-width:1px;stroke-linecap:butt;stroke-linejoin:miter;stroke-opacity:1"
       d="M 36.326178,34.310263 L 35.164229,36.267228 L 36.876574,38.468815 L 38.221988,39.019211 L 41.463213,41.83235 L 42.808627,41.648884 L 44.520972,43.422385 L 43.90942,44.278557 L 48.740679,46.90823 L 50.208404,49.660213 L 51.920749,49.843679 L 54.18349,52.901438 L 53.93887,55.653421 L 57.852801,56.570748 L 58.219732,56.264973 L 57.791646,54.613783 L 54.978508,55.103024 L 54.795042,54.797248 L 55.284284,52.045265 L 52.471145,48.742885 L 50.881111,48.926351 L 49.474542,46.235523 L 45.377144,44.095091 L 45.499455,43.544695 L 43.297868,39.997694 L 41.768989,40.425781 L 38.466609,37.551487 L 38.099678,37.551487 L 36.326178,34.310263 z"
       id="path2437" />
    <path
       id="path2441"
       d="M 36.326178,34.310263 L 35.164229,36.267228 L 36.876574,38.468815 L 38.221988,39.019211 L 41.463213,41.83235 L 42.808627,41.648884 L 44.520972,43.422385 L 43.90942,44.278557 L 48.740679,46.90823 L 50.208404,49.660213 L 51.920749,49.843679 L 54.18349,52.901438 L 53.93887,55.653421 L 57.852801,56.570748 L 58.219732,56.264973 L 57.791646,54.613783 L 54.978508,55.103024 L 54.795042,54.797248 L 55.284284,52.045265 L 52.471145,48.742885 L 50.881111,48.926351 L 49.474542,46.235523 L 45.377144,44.095091 L 45.499455,43.544695 L 43.297868,39.997694 L 41.768989,40.425781 L 38.466609,37.551487 L 38.099678,37.551487 L 36.326178,34.310263 z"
       style="fill:#000000;fill-opacity:0.15686275;fill-rule:evenodd;stroke:none;stroke-width:1px;stroke-linecap:butt;stroke-linejoin:miter;stroke-opacity:1" />
    <path
       style="fill:url(#linearGradient3022);fill-rule:evenodd;stroke:none;stroke-width:1px;stroke-linecap:butt;stroke-linejoin:miter;stroke-opacity:1"
       d="M 57.913957,54.613783 L 91.549306,40.915022 C 91.549306,40.915022 92.160858,42.627367 91.916237,42.566212 C 91.671617,42.505057 58.036267,56.264973 58.036267,56.264973 L 57.852801,54.980714 L 57.913957,54.613783 z"
       id="path3020" />
    <path
       style="fill:url(#linearGradient3026);fill-rule:evenodd;stroke:none;stroke-width:1px;stroke-linecap:butt;stroke-linejoin:miter;stroke-opacity:1"
       d="M 38.650074,39.324987 L 35.103074,96.321616 L 35.836936,97.116634 L 37.426971,96.505082 L 40.301264,40.548091 L 38.650074,39.324987 z"
       id="path3024" />
    <path
       style="fill:url(#linearGradient3164);fill-rule:evenodd;stroke:none;stroke-width:1px;stroke-linecap:butt;stroke-linejoin:miter;stroke-opacity:1"
       d="M 38.527764,76.079251 L 66.903769,64.643232 L 63.295613,68.251388 L 39.261626,78.525458 L 38.405454,77.669286 L 38.527764,76.079251 z"
       id="path3162"
       sodipodi:nodetypes="cccccc" />
    <path
       style="fill:url(#linearGradient3192);fill-rule:evenodd;stroke:none;stroke-width:1px;stroke-linecap:butt;stroke-linejoin:miter;stroke-opacity:1"
       d="M 41.18897,55.654137 L 66.821591,64.227807 L 66.777397,64.713943 L 65.981902,64.89072 L 40.614446,56.538021 L 40.084116,55.654137 L 41.18897,55.654137 z"
       id="path3190" />
    <path
       id="path3028"
       d="M 57.885929,56.557566 L 55.84713,113.73607 L 56.596754,114.51625 L 58.174233,113.873 L 59.805885,55.790417 L 57.885929,56.557566 z"
       style="fill:url(#linearGradient3030);fill-rule:evenodd;stroke:none;stroke-width:1px;stroke-linecap:butt;stroke-linejoin:miter;stroke-opacity:1"
       sodipodi:nodetypes="cccccc" />
    <path
       sodipodi:nodetypes="cccccc"
       style="fill:url(#linearGradient3034);fill-rule:evenodd;stroke:none;stroke-width:1px;stroke-linecap:butt;stroke-linejoin:miter;stroke-opacity:1"
       d="M 86.953931,44.664247 L 90.202552,104.07818 L 91.258768,104.30443 L 92.471852,103.71636 L 88.742689,43.802056 L 86.953931,44.664247 z"
       id="path3032" />
    <path
       style="fill:url(#linearGradient3040);fill-rule:evenodd;stroke:none;stroke-width:1px;stroke-linecap:butt;stroke-linejoin:miter;stroke-opacity:1"
       d="M 39.8125,53.75 L 50.0625,49.625 L 52.0625,49.8125 L 52.5,50.75 L 44.4375,54.3125 L 39.5,54.5625 L 39.8125,53.75 z"
       id="path3038" />
    <path
       style="fill:url(#linearGradient3111);fill-rule:evenodd;stroke:none;stroke-width:1px;stroke-linecap:butt;stroke-linejoin:miter;stroke-opacity:1"
       d="M 66.231061,53.023748 L 67.51532,84.885597 L 68.493803,85.313684 L 69.900372,85.313684 L 68.004561,52.351041 L 66.231061,53.023748 z"
       id="path3109"
       sodipodi:nodetypes="cccccc" />
    <path
       style="fill:url(#linearGradient3115);fill-rule:evenodd;stroke:none;stroke-width:1px;stroke-linecap:butt;stroke-linejoin:miter;stroke-opacity:1"
       d="M 38.344299,77.730441 L 56.629698,96.138151 L 56.385077,98.523203 L 38.221988,80.482424 L 38.344299,77.730441 z"
       id="path3113" />
    <path
       style="fill:url(#linearGradient3121);fill-rule:evenodd;stroke:none;stroke-width:1px;stroke-linecap:butt;stroke-linejoin:miter;stroke-opacity:1"
       d="M 58.892439,96.199306 L 89.164254,83.601339 L 89.225409,85.986391 L 58.708974,98.767823 L 58.892439,96.199306 z"
       id="path3119" />
    <path
       style="fill:url(#linearGradient3170);fill-rule:evenodd;stroke:none;stroke-width:1px;stroke-linecap:butt;stroke-linejoin:miter;stroke-opacity:1"
       d="M 70.144993,65.499405 L 78.645563,72.654561 L 88.675013,82.255925 L 84.822236,81.460907 L 73.936614,70.942216 L 70.178915,67.582264 L 70.144993,65.499405 z"
       id="path3168"
       sodipodi:nodetypes="ccccccc" />
    <path
       style="fill:url(#linearGradient3175);fill-rule:evenodd;stroke:none;stroke-width:1px;stroke-linecap:butt;stroke-linejoin:miter;stroke-opacity:1;fill-opacity:1"
       d="M 87.879995,61.218542 C 83.59499,57.19069 79.704232,52.768591 74.973631,49.186335 L 73.283441,50.094249 L 78.672459,54.988714 L 84.526512,60.505491 L 87.879995,61.218542 z"
       id="path3173"
       sodipodi:nodetypes="cccccc" />
    <path
       style="fill:url(#linearGradient3229);fill-rule:evenodd;stroke:none;stroke-width:1px;stroke-linecap:butt;stroke-linejoin:miter;stroke-opacity:1"
       d="M 79.151766,63.078758 L 88.918678,80.270292 L 88.918678,82.214836 L 87.46027,80.977399 L 79.284348,65.686215 L 79.151766,63.078758 z"
       id="path3227" />
    <path
       style="fill:url(#linearGradient3180);fill-rule:evenodd;stroke:none;stroke-width:1px;stroke-linecap:butt;stroke-linejoin:miter;stroke-opacity:1"
       d="M 59.13706,73.755354 L 88.002306,62.197025 L 88.063461,64.215146 L 59.198215,75.895786 L 59.13706,73.755354 z"
       id="path3177" />
    <path
       style="fill:url(#linearGradient3205);fill-rule:evenodd;stroke:none;stroke-width:1px;stroke-linecap:butt;stroke-linejoin:miter;stroke-opacity:1"
       d="M 38.581514,75.629904 L 54.535611,55.742526 L 56.524348,56.228662 L 39.863145,75.806681 L 38.448931,76.292817 L 38.581514,75.629904 z"
       id="path3203" />
    <path
       style="fill:url(#linearGradient3184);fill-rule:evenodd;stroke:none;stroke-width:1px;stroke-linecap:butt;stroke-linejoin:miter;stroke-opacity:1"
       d="M 39.628557,55.347645 L 57.302405,73.143803 L 57.118939,75.651165 L 39.322781,58.160783 L 39.628557,55.347645 z"
       id="path3182" />
    <path
       style="fill:url(#linearGradient3188);fill-rule:evenodd;stroke:none;stroke-width:1px;stroke-linecap:butt;stroke-linejoin:miter;stroke-opacity:1"
       d="M 39.686368,52.560545 L 45.431611,45.180118 L 46.359688,45.577866 L 40.570252,53.35604 L 39.509591,53.797982 L 39.686368,52.560545 z"
       id="path3186" />
    <path
       style="fill:url(#linearGradient3200);fill-rule:evenodd;stroke:none;stroke-width:1px;stroke-linecap:butt;stroke-linejoin:miter;stroke-opacity:1"
       d="M 41.498329,41.644584 L 57.408232,71.608234 L 57.364038,72.934059 L 56.612737,72.271147 L 48.481009,57.421904 L 40.12831,41.865555 L 40.305087,40.760701 L 41.498329,41.644584 z"
       id="path3198" />
    <path
       style="fill:url(#linearGradient3196);fill-rule:evenodd;stroke:none;stroke-width:1px;stroke-linecap:butt;stroke-linejoin:miter;stroke-opacity:1"
       d="M 39.730562,54.637671 L 54.182057,53.753788 L 53.961086,54.858643 L 53.872698,55.388973 L 39.907339,55.698331 L 39.59798,55.300584 L 39.730562,54.637671 z"
       id="path3194"
       sodipodi:nodetypes="ccccccc" />
    <path
       style="fill:url(#linearGradient3213);fill-rule:evenodd;stroke:none;stroke-width:1px;stroke-linecap:butt;stroke-linejoin:miter;stroke-opacity:1"
       d="M 38.53732,76.999923 L 57.187261,75.408933 L 57.143067,76.602176 L 38.890873,78.148972 L 38.404737,77.751224 L 38.53732,76.999923 z"
       id="path3211" />
    <path
       style="fill:url(#linearGradient3209);fill-rule:evenodd;stroke:none;stroke-width:1px;stroke-linecap:butt;stroke-linejoin:miter;stroke-opacity:1"
       d="M 40.393475,59.322254 L 56.391766,94.324039 L 56.43596,95.694059 L 55.198523,94.765981 L 46.2713,75.05538 L 39.200232,59.896778 L 39.377009,58.217399 L 40.393475,59.322254 z"
       id="path3207" />
    <path
       style="fill:url(#linearGradient3217);fill-rule:evenodd;stroke:none;stroke-width:1px;stroke-linecap:butt;stroke-linejoin:miter;stroke-opacity:1"
       d="M 60.98796,55.035419 L 72.876193,57.996428 L 76.108757,58.407846 L 80.477591,59.587419 L 87.769629,61.266797 L 87.725435,62.106487 L 86.885746,62.327458 L 77.030445,60.250331 L 71.992309,58.791924 L 66.202873,57.466098 L 59.485358,55.830914 L 60.98796,55.035419 z"
       id="path3215"
       sodipodi:nodetypes="cccccccccccc" />
    <path
       style="fill:url(#linearGradient3221);fill-rule:evenodd;stroke:none;stroke-width:1px;stroke-linecap:butt;stroke-linejoin:miter;stroke-opacity:1"
       d="M 69.782601,58.217399 L 71.688142,59.353654 L 74.040983,59.939332 L 77.516581,61.355186 L 76.190756,61.973904 L 69.605824,59.49903 L 69.56163,58.43837 L 69.782601,58.217399 z"
       id="path3219"
       sodipodi:nodetypes="cccccccc" />
    <path
       style="fill:url(#linearGradient3225);fill-rule:evenodd;stroke:none;stroke-width:1px;stroke-linecap:butt;stroke-linejoin:miter;stroke-opacity:1"
       d="M 59.441164,72.359535 L 74.953319,56.31705 L 85.957668,44.959147 C 85.957668,44.959147 87.062523,44.340429 87.062523,44.517205 C 87.062523,44.693982 87.150911,45.798836 87.150911,45.798836 L 76.676892,56.31705 L 69.959377,63.653283 L 68.235805,65.200079 L 60.236659,73.376001 L 59.264387,73.68536 L 59.441164,72.359535 z"
       id="path3223" />
    <path
       style="fill:url(#linearGradient3233);fill-rule:evenodd;stroke:none;stroke-width:1px;stroke-linecap:butt;stroke-linejoin:miter;stroke-opacity:1"
       d="M 58.689863,94.85437 L 72.345863,80.314486 L 73.936853,78.325749 L 78.444659,73.420195 L 87.106717,64.537166 C 87.106717,64.537166 88.078989,64.139419 88.078989,64.316195 C 88.078989,64.492972 88.078989,65.288467 88.078989,65.288467 L 78.974989,75.05538 L 75.660426,78.856079 L 73.406523,81.154176 L 71.903921,83.275496 L 69.650018,85.352622 L 59.750523,95.959224 L 58.689863,96.268583 L 58.689863,94.85437 z"
       id="path3231" />
    <path
       style="fill:url(#linearGradient3237);fill-rule:evenodd;stroke:none;stroke-width:1px;stroke-linecap:butt;stroke-linejoin:miter;stroke-opacity:1"
       d="M 60.104077,75.674098 L 76.632698,79.209632 L 88.874484,82.391613 L 89.139649,83.363884 L 88.83029,83.717438 L 77.737552,81.330952 L 71.417785,79.651574 L 59.131805,76.867341 L 59.220193,75.850875 L 60.104077,75.674098 z"
       id="path3235" />
    <path
       style="fill:url(#linearGradient3243);fill-rule:evenodd;stroke:none;stroke-width:1px;stroke-linecap:butt;stroke-linejoin:miter;stroke-opacity:1"
       d="M 68.854523,47.920157 L 70.224542,67.100428 L 71.992309,92.998214 L 73.229746,111.2946 L 72.831999,111.78074 L 71.727144,111.78074 L 71.506173,111.20621 L 70.224542,90.434952 L 68.235805,60.471302 L 67.484504,48.627264 L 67.97064,47.875963 L 68.854523,47.920157 z"
       id="path3241" />
    <path
       style="fill:url(#linearGradient3247);fill-rule:evenodd;stroke:none;stroke-width:1px;stroke-linecap:butt;stroke-linejoin:miter;stroke-opacity:1"
       d="M 77.118834,45.710448 L 80.300814,74.038914 L 84.013125,107.80326 L 83.659571,108.2894 L 83.173435,108.68715 L 82.289552,108.42198 L 80.698562,92.998214 L 78.709824,73.199224 L 76.323338,49.33437 L 75.881397,45.931419 L 76.323338,45.356895 L 76.809474,45.312701 L 77.118834,45.710448 z"
       id="path3245" />
    <path
       style="fill:url(#linearGradient3251);fill-rule:evenodd;stroke:none;stroke-width:1px;stroke-linecap:butt;stroke-linejoin:miter;stroke-opacity:1;fill-opacity:1"
       d="M 69.105355,50.516385 L 76.688597,47.550359 L 76.933218,48.100756 L 76.841485,48.55942 L 69.105355,51.831222 L 69.105355,50.516385 z"
       id="path3249" />
    <path
       id="path3253"
       d="M 69.28882,53.635299 L 77.02495,50.761006 L 77.269571,51.311403 L 76.994372,52.10642 L 69.319398,54.950137 L 69.28882,53.635299 z"
       style="fill:url(#linearGradient3255);fill-opacity:1;fill-rule:evenodd;stroke:none;stroke-width:1px;stroke-linecap:butt;stroke-linejoin:miter;stroke-opacity:1"
       sodipodi:nodetypes="cccccc" />
    <path
       sodipodi:nodetypes="cccccc"
       style="fill:url(#linearGradient3259);fill-opacity:1;fill-rule:evenodd;stroke:none;stroke-width:1px;stroke-linecap:butt;stroke-linejoin:miter;stroke-opacity:1"
       d="M 69.380553,57.029412 L 77.116683,54.155119 L 77.361304,54.705516 L 77.086105,55.500533 L 69.411131,58.34425 L 69.380553,57.029412 z"
       id="path3257" />
    <path
       id="path3261"
       d="M 69.686329,60.454102 L 77.575347,57.579809 L 77.819968,58.130206 L 77.544769,58.925223 L 69.869795,61.76894 L 69.686329,60.454102 z"
       style="fill:url(#linearGradient3263);fill-opacity:1;fill-rule:evenodd;stroke:none;stroke-width:1px;stroke-linecap:butt;stroke-linejoin:miter;stroke-opacity:1"
       sodipodi:nodetypes="cccccc" />
    <path
       sodipodi:nodetypes="cccccc"
       style="fill:url(#linearGradient3267);fill-opacity:1;fill-rule:evenodd;stroke:none;stroke-width:1px;stroke-linecap:butt;stroke-linejoin:miter;stroke-opacity:1"
       d="M 69.992104,64.153991 L 77.881122,61.279698 L 78.156321,61.952405 L 77.881122,62.747422 L 70.05326,65.560561 L 69.992104,64.153991 z"
       id="path3265" />
    <path
       id="path3269"
       d="M 70.236725,67.303483 L 78.125743,64.42919 L 78.400942,65.101897 L 78.147365,65.745563 L 70.297881,68.710053 L 70.236725,67.303483 z"
       style="fill:url(#linearGradient3271);fill-opacity:1;fill-rule:evenodd;stroke:none;stroke-width:1px;stroke-linecap:butt;stroke-linejoin:miter;stroke-opacity:1"
       sodipodi:nodetypes="cccccc" />
    <path
       sodipodi:nodetypes="cccccc"
       style="fill:url(#linearGradient3275);fill-opacity:1;fill-rule:evenodd;stroke:none;stroke-width:1px;stroke-linecap:butt;stroke-linejoin:miter;stroke-opacity:1"
       d="M 70.389613,70.758751 L 78.431519,67.823303 L 78.706718,68.49601 L 78.431519,69.291027 L 70.603657,72.104166 L 70.389613,70.758751 z"
       id="path3273" />
    <path
       id="path3277"
       d="M 70.603656,74.45864 L 79.043071,71.553769 L 79.287692,72.073588 L 79.012493,72.868605 L 70.69539,75.742899 L 70.603656,74.45864 z"
       style="fill:url(#linearGradient3279);fill-opacity:1;fill-rule:evenodd;stroke:none;stroke-width:1px;stroke-linecap:butt;stroke-linejoin:miter;stroke-opacity:1"
       sodipodi:nodetypes="cccccc" />
    <path
       sodipodi:nodetypes="cccccc"
       style="fill:url(#linearGradient3283);fill-opacity:1;fill-rule:evenodd;stroke:none;stroke-width:1px;stroke-linecap:butt;stroke-linejoin:miter;stroke-opacity:1"
       d="M 70.970587,77.883331 L 79.532312,74.947882 L 79.776933,75.467701 L 79.501734,76.262718 L 71.184631,79.137012 L 70.970587,77.883331 z"
       id="path3281" />
    <path
       id="path3285"
       d="M 71.490405,85.558305 L 80.021553,82.684012 L 80.357907,83.264986 L 80.082708,84.060003 L 71.490407,86.90372 L 71.490405,85.558305 z"
       style="fill:url(#linearGradient3287);fill-opacity:1;fill-rule:evenodd;stroke:none;stroke-width:1px;stroke-linecap:butt;stroke-linejoin:miter;stroke-opacity:1"
       sodipodi:nodetypes="cccccc" />
    <path
       id="path3289"
       d="M 70.970587,77.883331 L 79.294474,75.05599 L 79.776933,75.467701 L 79.415248,76.111367 L 71.184631,79.137012 L 70.970587,77.883331 z"
       style="fill:url(#linearGradient3283);fill-opacity:1;fill-rule:evenodd;stroke:none;stroke-width:1px;stroke-linecap:butt;stroke-linejoin:miter;stroke-opacity:1"
       sodipodi:nodetypes="cccccc" />
    <path
       sodipodi:nodetypes="cccccc"
       style="fill:url(#linearGradient3293);fill-opacity:1;fill-rule:evenodd;stroke:none;stroke-width:1px;stroke-linecap:butt;stroke-linejoin:miter;stroke-opacity:1"
       d="M 71.673871,89.013573 L 80.541372,86.078124 L 80.785993,86.597943 L 80.449639,87.27065 L 71.82676,90.32841 L 71.673871,89.013573 z"
       id="path3291" />
    <path
       id="path3295"
       d="M 71.979646,92.835771 L 80.877725,89.80859 L 81.122346,90.328409 L 80.847147,91.123426 L 72.040803,94.120031 L 71.979646,92.835771 z"
       style="fill:url(#linearGradient3297);fill-opacity:1;fill-rule:evenodd;stroke:none;stroke-width:1px;stroke-linecap:butt;stroke-linejoin:miter;stroke-opacity:1"
       sodipodi:nodetypes="cccccc" />
    <path
       sodipodi:nodetypes="cccccc"
       style="fill:url(#linearGradient3301);fill-opacity:1;fill-rule:evenodd;stroke:none;stroke-width:1px;stroke-linecap:butt;stroke-linejoin:miter;stroke-opacity:1"
       d="M 72.254844,96.933168 L 81.519854,93.814254 L 81.764475,94.334073 L 81.489276,95.12909 L 72.346579,98.156273 L 72.254844,96.933168 z"
       id="path3299" />
    <path
       id="path3303"
       d="M 72.438309,100.96941 L 81.856207,97.881074 L 82.100828,98.400893 L 81.825629,99.19591 L 72.560621,102.31482 L 72.438309,100.96941 z"
       style="fill:url(#linearGradient3305);fill-opacity:1;fill-rule:evenodd;stroke:none;stroke-width:1px;stroke-linecap:butt;stroke-linejoin:miter;stroke-opacity:1"
       sodipodi:nodetypes="cccccc" />
    <path
       sodipodi:nodetypes="cccccc"
       style="fill:url(#linearGradient3309);fill-opacity:1;fill-rule:evenodd;stroke:none;stroke-width:1px;stroke-linecap:butt;stroke-linejoin:miter;stroke-opacity:1"
       d="M 72.80524,104.76103 L 82.314871,101.48923 L 82.559492,102.00905 L 82.284293,102.80407 L 72.774664,106.07587 L 72.80524,104.76103 z"
       id="path3307" />
    <path
       id="path3311"
       d="M 73.049861,108.27746 L 82.590069,105.06681 L 82.83469,105.58663 L 82.559491,106.38165 L 73.08044,109.59229 L 73.049861,108.27746 z"
       style="fill:url(#linearGradient3313);fill-opacity:1;fill-rule:evenodd;stroke:none;stroke-width:1px;stroke-linecap:butt;stroke-linejoin:miter;stroke-opacity:1"
       sodipodi:nodetypes="cccccc" />
    <path
       sodipodi:nodetypes="cccccc"
       style="fill:url(#linearGradient2414);fill-opacity:1;fill-rule:evenodd;stroke:none;stroke-width:1px;stroke-linecap:butt;stroke-linejoin:miter;stroke-opacity:1"
       d="M 71.208425,82.034682 L 79.77015,79.099233 L 80.014771,79.619052 L 79.739572,80.414069 L 71.422469,83.288363 L 71.208425,82.034682 z"
       id="path2412" />
  </g>
  <g
     inkscape:label="outline"
     inkscape:groupmode="layer"
     id="layer1">
    <path
       style="fill:#000000;fill-opacity:1;fill-rule:evenodd;stroke:none;stroke-width:1px;stroke-linecap:butt;stroke-linejoin:miter;stroke-opacity:1"
       d="M 66.1875,20.9375 L 36.125,34.1875 L 34.9375,36.25 L 36.875,38.53125 L 38.4375,39.3125 L 38.53125,39.40625 L 34.84375,96.6875 C 35.024017,97.286509 36.094259,97.756953 37.65625,96.84375 L 37.6875,96.34375 L 38.46875,80.84375 L 56.15625,98.75 L 55.5625,114.375 C 56.454808,114.527 57.112344,115.08986 58.625,114.15625 L 58.96875,98.875 L 70.28125,94.09375 L 71.4375,111.8125 C 72.183801,112.27271 72.839989,112.03516 73.46875,111.4375 L 73.34375,109.6875 L 81.90625,106.6875 L 82.125,108.59375 C 82.733513,108.79484 83.475985,109.25985 84.15625,107.96875 L 82.09375,89.09375 L 89.03125,86.15625 L 90,104.125 C 91.003512,104.94827 91.846938,104.33077 92.6875,103.6875 L 88.8125,43.96875 L 92.03125,42.625 L 91.875,41.15625 L 87.90625,36.71875 L 83.375,34.4375 L 83.875,33.4375 L 80.0625,31.90625 L 80.25,31 L 77.34375,28.46875 L 76.03125,28.53125 L 74.1875,26.09375 L 73.03125,26.0625 L 68.8125,23.21875 L 69.09375,21.875 L 66.1875,20.9375 z M 66.125,21.28125 L 68.78125,21.96875 L 68.40625,23.0625 L 38.1875,37.375 L 37.03125,34.6875 L 66.125,21.28125 z M 68.40625,23.59375 L 72.5625,26.21875 L 41.84375,40.28125 L 39.4375,38.15625 L 38.8125,37.5625 L 68.40625,23.59375 z M 73.5,26.46875 L 75.46875,28.5625 L 45.625,43.375 L 43.65625,40.1875 L 73.5,26.46875 z M 76.8125,28.78125 L 79.90625,31.09375 L 79.5,31.84375 L 49.34375,45.9375 L 45.6875,44.03125 L 75.6875,28.9375 L 76.8125,28.78125 z M 79.53125,32.46875 L 83.5,33.53125 L 82.78125,34.5625 L 51.15625,48.875 L 49.875,46.4375 L 79.53125,32.46875 z M 36.28125,34.6875 L 37.78125,37.71875 L 37.875,37.78125 L 37.875,38.6875 C 37.611573,38.633381 37.345077,38.58299 37.09375,38.375 L 35.46875,36.15625 L 36.28125,34.6875 z M 83.34375,35.03125 L 87.15625,36.75 L 55.09375,51.5625 L 52.9375,48.78125 L 83.34375,35.03125 z M 87.71875,37.3125 L 90.78125,40.75 L 77.46875,46.25 L 77.375,45.4375 C 76.987636,45.24761 76.654535,45.118316 76.34375,45.25 C 76.17217,45.276891 75.987598,45.433745 75.78125,45.9375 L 75.875,46.90625 L 69.15625,49.65625 L 69,47.71875 C 68.171585,47.566257 67.87681,47.581965 67.28125,48.59375 L 67.40625,50.375 L 58.25,54.15625 L 54.90625,54.75 L 55.8125,51.90625 C 58.071356,50.870043 87.203816,37.544354 87.71875,37.3125 z M 38.15625,37.90625 L 38.875,38.28125 L 41.46875,40.53125 L 41.34375,41.3125 C 40.335462,40.454289 39.572153,39.82923 38.53125,38.96875 C 38.435336,38.889461 38.348846,38.853251 38.25,38.8125 L 38.15625,37.90625 z M 38.875,39.6875 L 40.0625,40.78125 L 37.09375,96.21875 C 36.190076,97.190188 35.757663,96.747844 35.34375,96.25 L 38.875,39.6875 z M 43.1875,40.4375 L 44.9375,43.0625 L 44.96875,43.75 L 44.59375,44.40625 C 44.496325,44.333236 44.394626,44.265171 44.3125,44.1875 C 44.152787,44.036451 44.910252,43.461834 44.75,43.3125 C 44.110019,42.716124 43.743342,42.075186 43.125,41.5 L 43.09375,40.46875 L 43.1875,40.4375 z M 42.6875,40.53125 L 42.625,41.3125 C 42.293846,41.351967 41.867328,41.502174 41.625,41.46875 L 41.78125,40.6875 L 42.6875,40.53125 z M 40.4375,41.125 L 41.40625,42 L 47.78125,53.96875 L 46.875,54 L 40.40625,41.9375 L 40.4375,41.125 z M 91.4375,41.3125 L 91.53125,42.40625 L 77.65625,48 L 77.53125,46.90625 L 91.4375,41.3125 z M 42.84375,41.75 L 44.28125,43.3125 L 43.71875,44.28125 L 45.3125,45.1875 L 44.25,46.5625 L 41.78125,41.9375 L 42.84375,41.75 z M 40.375,42.5625 L 43.25,47.875 L 39.875,52.15625 L 40.375,42.5625 z M 88.46875,44.09375 L 92.1875,103.34375 C 91.604167,104.28358 91.020833,103.96357 90.4375,103.96875 L 89.34375,83.84375 L 89.5,83.78125 L 89.3125,83.21875 L 88.15625,61.84375 L 88.15625,61.34375 L 87.25,44.59375 L 88.46875,44.09375 z M 45.0625,44.15625 L 48.78125,46.3125 L 48.6875,46.625 C 47.928956,46.007288 46.697102,45.548691 45.65625,45.03125 L 45.53125,44.90625 L 45.5,44.9375 C 45.261931,44.814759 45.015803,44.695595 44.8125,44.5625 L 45.0625,44.15625 z M 86.8125,44.78125 L 86.875,45.65625 L 78.34375,54.4375 L 78.21875,53.21875 L 86.1875,45.03125 L 86.8125,44.78125 z M 45.46875,45.28125 L 46.15625,45.6875 L 44.75,47.53125 L 44.34375,46.75 L 45.46875,45.28125 z M 85.40625,45.375 L 78.84375,52.15625 L 78.03125,51.375 L 77.71875,48.5625 L 85.40625,45.375 z M 76.34375,45.46875 C 76.665393,45.353954 76.981562,45.678354 77,45.875 L 83.84375,107.875 C 83.457901,108.69824 82.82335,108.44635 82.4375,108.375 L 82.25,106.59375 L 82.53125,106.5 C 83.085164,105.79475 82.890666,105.0171 82.4375,105.0625 L 82.125,105.15625 L 81.875,103.09375 L 82.25,102.96875 C 82.803915,102.2635 82.609416,101.48585 82.15625,101.53125 L 81.75,101.65625 L 81.5,99.34375 L 81.8125,99.25 C 82.366414,98.544749 82.140666,97.767098 81.6875,97.8125 L 81.375,97.90625 L 81.125,95.40625 L 81.46875,95.28125 C 82.022667,94.575993 81.828166,93.798348 81.375,93.84375 L 80.96875,93.96875 L 80.6875,91.25 L 80.84375,91.1875 C 81.397666,90.482249 81.171916,89.704598 80.71875,89.75 L 80.5625,89.8125 L 80.3125,87.5 L 80.5,87.4375 C 81.053912,86.732246 80.859416,85.954598 80.40625,86 L 80.15625,86.09375 L 79.96875,84.09375 L 80.125,84.03125 C 80.678909,83.325996 80.484416,82.548348 80.03125,82.59375 L 79.8125,82.65625 L 79.5625,80.53125 L 79.8125,80.4375 C 80.366415,79.732245 80.171916,78.954598 79.71875,79 L 79.4375,79.09375 L 79.15625,76.34375 L 79.25,76.3125 C 79.635285,76.045505 80.294132,75.349542 79.28125,74.90625 L 79.03125,75 L 78.8125,73 L 79.0625,72.90625 C 79.616411,72.200999 79.421916,71.423348 78.96875,71.46875 L 78.6875,71.5625 L 78.4375,69.4375 L 78.71875,69.34375 C 78.942434,68.735721 78.772932,68.242926 78.59375,67.75 L 78.28125,67.875 L 78.0625,65.875 L 78.46875,65.71875 C 78.499774,65.253489 78.791866,64.777765 78.28125,64.3125 L 77.9375,64.4375 L 77.75,62.90625 L 78.09375,62.78125 C 78.526133,62.107933 78.419086,61.594176 77.96875,61.15625 L 77.625,61.28125 L 77.375,59.15625 L 77.59375,59.09375 C 78.022636,58.413676 77.88327,57.805446 77.59375,57.53125 L 77.25,57.65625 L 77.03125,55.65625 L 77.375,55.53125 C 77.627271,54.881033 77.416427,54.456494 77.34375,53.96875 L 76.875,54.125 L 76.6875,52.375 L 77.125,52.21875 C 77.393914,51.573089 77.35357,51.021646 77.09375,50.65625 L 76.5625,50.84375 L 76.34375,48.84375 L 76.84375,48.625 C 76.997896,48.231839 77.15969,47.808067 76.71875,47.46875 L 76.21875,47.65625 L 76.0625,46.15625 C 76.109614,45.833742 76.208565,45.502947 76.34375,45.46875 z M 46.3125,45.75 L 48.375,46.9375 L 49.84375,49.53125 L 46.53125,50.875 L 44.875,47.75 L 46.3125,45.75 z M 86.875,46.09375 L 87.6875,60.875 L 79.96875,53.25 L 86.875,46.09375 z M 49.03125,46.46875 L 49.1875,46.5625 L 50.53125,48.75 L 50.46875,49.5 C 50.462457,49.496027 50.442234,49.504791 50.4375,49.5 C 49.750415,48.804649 49.621582,47.586138 48.9375,46.84375 L 49.03125,46.46875 z M 75.9375,47.53125 L 75.96875,47.75 L 69.1875,50.3125 L 69.1875,50.25 L 75.9375,47.53125 z M 76.5625,47.65625 C 76.667114,47.850239 76.917453,48.163239 76.6875,48.46875 L 69.25,51.46875 L 69.21875,50.59375 L 76.5625,47.65625 z M 43.34375,48.03125 L 43.78125,48.84375 L 40.4375,53.28125 L 39.8125,53.53125 L 39.875,52.53125 L 43.34375,48.03125 z M 68.0625,48.0625 C 68.261272,48.037902 68.506358,48.126367 68.75,48.28125 L 72.96875,110.84375 C 73.100433,111.3778 72.710907,111.95533 71.78125,111.34375 L 67.65625,48.5625 C 67.782657,48.248428 67.863728,48.087098 68.0625,48.0625 z M 76.09375,48.9375 L 76.1875,50.09375 L 75.1875,49.3125 L 76.09375,48.9375 z M 50.71875,49.03125 L 50.75,49.09375 L 51.78125,49.0625 L 51.78125,49.5 C 51.586719,49.425667 51.001126,49.559131 50.65625,49.5625 L 50.71875,49.03125 z M 52.21875,49.03125 L 52.3125,49.03125 L 54.96875,52.125 L 54.5625,55.21875 L 54.40625,55.5625 C 54.375964,55.540343 54.336713,55.527005 54.3125,55.5 C 53.800936,54.929444 54.578168,53.488638 54.3125,52.8125 C 54.002586,52.023755 53.516199,51.357438 52.96875,50.71875 L 53.03125,50.6875 L 52.90625,50.625 C 52.656735,50.339428 52.374118,50.060184 52.09375,49.78125 L 52.21875,49.03125 z M 43.90625,49.0625 L 45.15625,51.40625 L 40.96875,53.0625 L 43.90625,49.0625 z M 74.84375,49.46875 L 76.25,50.5625 L 76.28125,50.9375 L 74.90625,51.4375 L 73.4375,50.0625 L 74.84375,49.46875 z M 50.125,49.90625 L 51.75,49.9375 L 52.25,50.65625 L 47.5,52.6875 L 46.71875,51.25 L 50.125,49.90625 z M 73.0625,50.21875 L 74.5625,51.5625 L 69.40625,53.375 L 69.34375,51.8125 L 73.0625,50.21875 z M 52.46875,50.9375 L 53.9375,52.96875 L 53.90625,53.6875 L 48.15625,53.9375 L 47.625,52.9375 L 52.46875,50.9375 z M 67.4375,50.9375 L 67.5,52.09375 L 58.21875,55.84375 C 58.128255,55.468294 58.031276,55.075563 57.96875,54.75 L 67.4375,50.9375 z M 76.96875,50.9375 C 77.354958,51.231254 77.214604,51.943017 76.96875,52.0625 L 69.5,54.71875 L 69.40625,53.71875 L 76.96875,50.9375 z M 45.375,51.78125 L 46.1875,53.28125 L 44.28125,54.125 L 39.8125,54.3125 L 39.8125,54 L 45.375,51.78125 z M 78.09375,52 L 78.53125,52.4375 L 78.1875,52.8125 L 78.09375,52 z M 76.4375,52.46875 L 76.46875,52.875 L 76.0625,52.59375 L 76.4375,52.46875 z M 75.78125,52.71875 L 76.53125,53.3125 L 76.625,54.21875 L 69.625,56.6875 L 69.5,55.0625 L 75.78125,52.71875 z M 67.5625,52.75 L 67.8125,56.5625 L 66.625,56.28125 L 66.46875,53.1875 L 67.5625,52.75 z M 66.1875,53.3125 L 66.3125,56.21875 L 61.71875,55.15625 L 66.1875,53.3125 z M 46.28125,53.5 L 46.5625,54 L 44.875,54.09375 L 46.28125,53.5 z M 79.6875,53.5625 L 87.21875,61 L 84.84375,60.4375 L 78.71875,54.53125 L 79.6875,53.5625 z M 53.875,54.03125 L 53.8125,55.15625 L 40,55.5 L 39.78125,55.125 L 39.78125,54.875 L 39.78125,54.78125 L 53.875,54.03125 z M 77.15625,54.1875 C 77.171586,54.519137 77.576301,54.767787 77.21875,55.3125 L 69.71875,58 L 69.65625,57 L 77.15625,54.1875 z M 57.65625,54.84375 C 57.681999,55.195289 57.747325,55.535759 57.84375,55.875 C 57.211666,55.514504 55.722542,55.8604 54.84375,55.71875 L 55,55.15625 L 57.65625,54.84375 z M 78.46875,54.84375 L 83.96875,60.25 L 78.84375,59.0625 L 78.40625,54.90625 L 78.46875,54.84375 z M 61.09375,55.40625 L 67.84375,56.9375 L 67.875,57.71875 L 60.03125,55.84375 L 61.09375,55.40625 z M 53.78125,55.53125 L 53.78125,55.78125 L 54.125,55.875 L 51.625,59 L 50.6875,58.6875 L 49.0625,55.65625 L 53.78125,55.53125 z M 48.6875,55.65625 L 57.125,71.46875 L 57.09375,72.625 L 56.6875,72.21875 L 47.78125,55.6875 L 48.6875,55.65625 z M 47.46875,55.6875 L 48.75,58.0625 L 42.0625,55.8125 L 47.46875,55.6875 z M 76.75,55.75 L 76.78125,55.96875 L 74.34375,58.6875 L 71.78125,59.59375 L 75,56.375 L 76.75,55.75 z M 39.71875,55.78125 L 39.78125,55.84375 L 39.90625,56.15625 L 40.03125,56.09375 L 57.09375,72.96875 L 57,75.3125 L 39.59375,58.1875 L 39.71875,55.78125 z M 41.34375,55.8125 L 48.9375,58.375 L 49.40625,59.28125 L 40.65625,56.40625 L 40.25,56 L 40.59375,55.84375 L 41.34375,55.8125 z M 54.53125,55.96875 L 56.0625,56.375 L 52,61.15625 L 51.375,59.96875 L 54.53125,55.96875 z M 59.46875,56.09375 L 58.125,113.71875 L 56.25,114 L 58.09375,56.65625 L 59.46875,56.09375 z M 59.90625,56.1875 L 66.34375,57.71875 L 66.59375,64.03125 L 59.78125,61.75 L 59.90625,56.1875 z M 76.8125,56.3125 L 77,57.75 L 75.65625,58.21875 L 75.21875,58.15625 L 76.8125,56.3125 z M 56.375,56.46875 L 57.6875,56.8125 L 57.53125,61 L 53.625,59.6875 L 56.375,56.46875 z M 74.4375,56.59375 L 73.125,57.90625 L 71.6875,57.59375 L 74.4375,56.59375 z M 41,56.75 L 49.59375,59.59375 L 50.21875,60.75 L 47.96875,63.625 L 41,56.75 z M 77.5,57.71875 C 77.972978,57.887325 77.717866,58.525425 77.5,58.90625 L 69.96875,61.5 L 69.875,60.5 L 77.5,57.71875 z M 71.21875,57.75 L 72.875,58.15625 L 72.28125,58.75 L 70,58.1875 L 71.21875,57.75 z M 66.6875,57.78125 L 67.90625,58.09375 L 68.25,63.125 L 67,64.375 L 66.6875,57.78125 z M 75.03125,58.375 L 75.15625,58.40625 L 74.9375,58.46875 L 75.03125,58.375 z M 69.75,58.5 L 70,58.5625 L 71.59375,59.40625 L 71,59.875 L 69.8125,59.375 L 69.75,58.5 z M 39.5625,58.5625 L 40.1875,59.1875 L 56.3125,94.4375 L 56.28125,95.4375 L 55.65625,94.78125 L 39.46875,60.15625 L 39.5625,58.5625 z M 70.8125,58.75 L 72,59.03125 L 71.8125,59.21875 L 70.8125,58.75 z M 50.875,59.03125 L 51.46875,59.21875 L 51.15625,59.59375 L 50.875,59.03125 z M 77.125,59.25 L 77.21875,60.125 L 75.59375,59.8125 L 77.125,59.25 z M 78.90625,59.40625 L 87.59375,61.375 L 87.5,61.9375 L 86.875,62.21875 L 86.625,62.15625 L 79,60.34375 L 78.90625,59.40625 z M 69.84375,59.625 L 70.625,59.96875 L 69.875,60.25 L 69.84375,59.625 z M 40.84375,59.8125 L 46.53125,65.40625 L 44.5,67.90625 L 40.84375,59.8125 z M 53.46875,59.875 L 57.53125,61.25 L 57.5,61.90625 L 53,60.4375 L 53.46875,59.875 z M 75.21875,59.9375 L 77.25,60.40625 L 77.3125,61.15625 L 74.65625,60.15625 L 75.21875,59.9375 z M 74.21875,60.3125 L 77.21875,61.40625 L 76.15625,61.78125 L 73.28125,60.65625 L 74.21875,60.3125 z M 39.46875,60.53125 L 43.46875,69.25 L 38.75,75.15625 L 39.46875,60.53125 z M 52.84375,60.65625 L 57.5,62.15625 L 57.25,68.53125 L 56.15625,68.96875 L 52.15625,61.4375 L 52.84375,60.65625 z M 79.03125,60.6875 L 86.125,62.375 L 86.375,62.625 L 80.40625,65.03125 L 79.28125,63.03125 L 79.03125,60.6875 z M 72.875,60.71875 L 75.78125,61.90625 L 70.125,63.875 L 70.125,63.78125 L 72.875,60.71875 z M 72.125,61.0625 L 70.09375,63.25 L 70,61.96875 L 70.1875,61.78125 L 72.125,61.0625 z M 50.4375,61.125 L 51.03125,62.25 L 49,64.625 L 48.25,63.90625 L 50.4375,61.125 z M 77.78125,61.4375 C 78.12772,61.683453 78.329328,62.174615 77.96875,62.65625 L 70.21875,65.25 L 70.1875,64.1875 L 77.78125,61.4375 z M 59.78125,62.03125 L 66.625,64.34375 L 66.625,64.5 L 66.09375,64.71875 L 59.75,62.65625 L 59.78125,62.03125 z M 87.75,62.46875 L 87.84375,64.09375 L 79.75,67.34375 L 79.59375,65.75 L 87.75,62.46875 z M 51.21875,62.5625 L 54.96875,69.46875 L 54.1875,69.75 L 49.25,64.875 L 51.21875,62.5625 z M 59.75,62.9375 L 65.71875,64.90625 L 59.65625,67.5625 L 59.75,62.9375 z M 77.5,62.96875 L 77.6875,64.53125 L 71.8125,66.59375 L 70.46875,65.46875 L 77.5,62.96875 z M 68.25,63.5 L 68.34375,64.71875 L 60.15625,73.15625 L 59.53125,73.40625 L 59.5625,72.4375 L 68.25,63.5 z M 79.40625,64.125 L 80,65.1875 L 79.53125,65.375 L 79.40625,64.125 z M 87.875,64.46875 L 87.9375,65.375 L 80.40625,73.4375 L 80.28125,72.15625 L 87.15625,64.75 L 87.875,64.46875 z M 78.1875,64.53125 C 78.422245,64.857828 78.454982,65.208302 78.21875,65.59375 L 70.4375,68.40625 L 70.375,67.40625 L 78.1875,64.53125 z M 66.4375,64.96875 L 63.5,68 L 59.59375,69.78125 L 59.65625,67.9375 L 66.4375,64.96875 z M 86.34375,65.09375 L 82.6875,69 L 81.5625,67.0625 L 86.34375,65.09375 z M 68.375,65.25 L 68.6875,69.75 L 67.28125,70.3125 L 67.09375,66.59375 L 68.375,65.25 z M 46.8125,65.6875 L 47.5,66.375 L 45.09375,69.1875 L 44.71875,68.34375 L 46.8125,65.6875 z M 70.28125,65.8125 L 71.375,66.75 L 70.4375,67.0625 L 70.34375,67.03125 L 70.28125,65.8125 z M 87.9375,65.8125 L 88.6875,79.65625 L 83.53125,70.53125 L 87.9375,65.8125 z M 77.8125,65.9375 L 77.84375,66.1875 L 73.375,67.9375 L 73.15625,67.71875 L 77.8125,65.9375 z M 77.875,66.46875 L 78.03125,67.9375 L 70.59375,70.53125 L 70.5,69.40625 L 77.875,66.46875 z M 47.75,66.625 L 51.90625,70.6875 L 46.71875,72.78125 L 45.25,69.5625 L 47.75,66.625 z M 66.6875,67.03125 L 66.84375,70.46875 L 61.15625,72.75 L 66.6875,67.03125 z M 81.1875,67.21875 L 82.375,69.34375 L 81.78125,69.96875 L 80.4375,67.53125 L 81.1875,67.21875 z M 80,67.6875 L 81.4375,70.34375 L 80.21875,71.65625 L 79.8125,67.78125 L 80,67.6875 z M 72.75,67.875 L 73,68.09375 L 71.53125,68.65625 C 71.456234,68.578791 71.367263,68.50107 71.3125,68.4375 L 72.75,67.875 z M 78.4375,68.0625 C 78.647504,68.342356 78.762842,68.669279 78.5625,69.125 L 70.6875,71.8125 L 70.625,70.875 L 78.4375,68.0625 z M 62.96875,68.53125 L 59.5625,72.0625 L 59.59375,70.0625 L 62.96875,68.53125 z M 71,68.53125 C 71.086683,68.610929 71.177802,68.704354 71.25,68.78125 L 70.5,69.0625 L 70.46875,68.75 L 71,68.53125 z M 57.21875,68.9375 L 57.15625,70.78125 L 57.125,70.8125 L 56.3125,69.28125 L 57.21875,68.9375 z M 78.15625,69.53125 L 78.40625,71.65625 L 77.9375,71.8125 L 76.0625,70.28125 L 78.15625,69.53125 z M 43.65625,69.65625 L 44.03125,70.5 L 39.59375,75.6875 L 38.71875,76.03125 L 38.71875,75.84375 L 43.65625,69.65625 z M 55.125,69.78125 L 55.9375,71.28125 L 55.8125,71.34375 L 54.46875,70.03125 L 55.125,69.78125 z M 68.6875,70.125 L 68.8125,71.75 L 59.46875,75.5 L 59.5,73.84375 L 68.6875,70.125 z M 75.625,70.4375 L 77.46875,71.96875 L 75.84375,72.53125 L 74.15625,70.96875 L 75.625,70.4375 z M 44.1875,70.84375 L 45.34375,73.375 L 40.3125,75.40625 L 44.1875,70.84375 z M 83.21875,70.84375 L 88.75,80.5625 L 88.8125,81.96875 L 87.84375,81.0625 L 82.625,71.5 L 83.21875,70.84375 z M 52.15625,70.9375 L 53.53125,72.28125 L 47.625,74.75 L 46.84375,73.0625 L 52.15625,70.9375 z M 73.75,71.09375 L 75.34375,72.6875 L 70.84375,74.21875 L 70.6875,72.1875 L 73.75,71.09375 z M 56.09375,71.53125 L 56.1875,71.71875 L 56.03125,71.5625 L 56.09375,71.53125 z M 78.90625,71.6875 C 79.507505,71.836541 79.2908,72.569258 78.9375,72.71875 L 76.65625,73.53125 L 70.9375,75.5 L 70.875,74.5625 L 78.90625,71.6875 z M 82.28125,71.875 L 86.75,80.03125 L 80.5,74.1875 L 80.4375,73.8125 L 82.28125,71.875 z M 68.84375,72.21875 L 69.1875,77.5625 L 67.5,77.15625 L 67.34375,72.84375 L 68.84375,72.21875 z M 53.78125,72.53125 L 56.65625,75.375 L 48.1875,76.03125 L 47.78125,75.09375 L 53.78125,72.53125 z M 66.90625,73.03125 L 67.0625,77.0625 L 60.71875,75.5625 L 66.90625,73.03125 z M 78.15625,73.21875 L 78.21875,73.4375 L 77.46875,74.25 L 76.84375,73.6875 L 78.15625,73.21875 z M 78.59375,73.5625 L 78.71875,74.78125 L 78.28125,75.25 L 76.28125,75.9375 L 77.4375,74.71875 L 78.59375,73.5625 z M 45.46875,73.65625 L 46.25,75.3125 L 43.75,76.34375 L 38.75,76.71875 L 38.8125,76.3125 L 45.46875,73.65625 z M 76.4375,73.84375 L 77.21875,74.53125 L 75.75,76.125 L 71.09375,77.71875 L 70.96875,75.8125 L 76.4375,73.84375 z M 80.5625,74.78125 L 88.1875,82.09375 L 85.5,81.4375 L 80.78125,76.84375 L 80.5625,74.78125 z M 79.28125,75.09375 C 79.828492,74.947816 79.679209,75.894375 79.125,76.21875 L 71.1875,79 L 71.125,77.9375 L 79.28125,75.09375 z M 56.90625,75.59375 L 57,75.6875 L 56.96875,76.46875 L 48.71875,77.1875 L 48.34375,76.3125 L 56.90625,75.59375 z M 46.40625,75.65625 L 46.59375,76.125 L 45.03125,76.25 L 46.40625,75.65625 z M 60,75.84375 L 69.21875,77.96875 L 69.28125,79.03125 L 59.46875,76.65625 L 59.46875,76.0625 L 60,75.84375 z M 46.75,76.4375 L 47.15625,77.3125 L 39,77.96875 L 38.625,77.65625 L 38.6875,77.125 L 46.75,76.4375 z M 78.875,76.4375 L 79.15625,79.1875 L 78.375,79.46875 L 75.84375,78.90625 L 77.65625,76.875 L 78.875,76.4375 z M 56.96875,76.75 L 56.34375,93.9375 L 48.84375,77.4375 L 56.96875,76.75 z M 77.1875,77.0625 L 75.53125,78.84375 L 73.96875,78.5 L 74.3125,78.09375 L 77.1875,77.0625 z M 59.4375,77.09375 L 67.125,78.90625 L 67.34375,85.15625 C 67.394784,85.198071 67.450008,85.218405 67.5,85.25 L 59.0625,94.25 L 59.4375,77.09375 z M 47.25,77.5625 L 54.71875,93.875 L 39.5,78.59375 L 40.59375,78.125 L 47.25,77.5625 z M 80.875,77.65625 L 84.40625,81.1875 L 81.15625,80.40625 L 80.875,77.65625 z M 38.59375,78.15625 L 56.25,96.1875 L 56.15625,98.09375 L 38.46875,80.40625 L 38.59375,78.15625 z M 73.75,78.3125 L 73.625,78.4375 L 73.46875,78.40625 L 73.75,78.3125 z M 73.03125,78.59375 L 77.84375,79.625 L 75.21875,80.53125 L 71.25,79.46875 L 71.21875,79.25 L 73.03125,78.59375 z M 67.5625,79 L 69.3125,79.40625 L 69.53125,83.0625 L 67.84375,84.875 C 67.811642,84.868604 67.782097,84.85174 67.75,84.84375 L 67.5625,79 z M 79.65625,79.21875 C 80.257501,79.367796 80.0408,80.100508 79.6875,80.25 L 77.21875,81.09375 L 77.1875,81.09375 L 77.15625,81.125 L 71.46875,83.09375 L 71.40625,82.09375 L 75.09375,80.8125 L 75.125,80.8125 L 79.65625,79.21875 z M 71.25,79.75 L 72.3125,80.03125 L 71.34375,81.15625 L 71.25,79.75 z M 72.65625,80.125 L 73.9375,80.46875 L 73.25,81.1875 L 71.40625,81.8125 L 71.375,81.59375 L 72.65625,80.125 z M 74.1875,80.5625 L 74.6875,80.6875 L 73.78125,81 L 74.1875,80.5625 z M 79.28125,80.625 L 79.375,81.53125 L 77.65625,81.1875 L 79.28125,80.625 z M 81.21875,80.75 L 88.53125,82.4375 L 88.84375,82.71875 L 88.84375,82.875 L 88.71875,83.46875 L 88.40625,83.59375 L 81.34375,81.90625 L 81.21875,80.75 z M 77.09375,81.375 L 79.4375,81.90625 L 79.53125,82.78125 L 71.65625,85.4375 L 71.53125,83.8125 L 72.5625,82.9375 L 77.09375,81.375 z M 81.375,82.28125 L 86.8125,83.5625 L 87.3125,84.0625 L 81.8125,86.375 L 81.375,82.28125 z M 79.96875,82.78125 C 80.570004,82.930296 80.3533,83.694258 80,83.84375 L 71.75,86.71875 L 71.6875,85.6875 L 79.96875,82.78125 z M 71.8125,83.1875 L 71.5,83.46875 L 71.5,83.3125 L 71.8125,83.1875 z M 69.59375,83.625 L 69.65625,84.90625 L 59.5,95.78125 L 59.03125,95.96875 L 59.0625,94.90625 L 69.59375,83.625 z M 88.9375,84.03125 L 89,85.71875 L 82.0625,88.65625 L 81.875,86.9375 L 88.9375,84.03125 z M 79.65625,84.1875 L 79.875,86.1875 L 71.875,88.8125 L 71.75,86.96875 L 79.65625,84.1875 z M 69.71875,85.53125 L 70.09375,91.3125 L 60.34375,95.40625 L 69.5,85.59375 C 69.572469,85.575547 69.645562,85.553798 69.71875,85.53125 z M 80.34375,86.21875 C 80.945006,86.367797 80.7283,87.100508 80.375,87.25 L 71.96875,90.1875 L 71.90625,89.15625 L 80.34375,86.21875 z M 80,87.59375 L 80.28125,89.65625 L 78.25,90.5625 L 72.15625,92.59375 L 72,90.46875 L 80,87.59375 z M 80.6875,89.9375 C 81.288753,90.086541 81.07205,90.850508 80.71875,91 L 72.25,93.875 L 72.125,92.875 L 80.6875,89.9375 z M 80.375,91.34375 L 80.65625,94.09375 L 72.4375,96.78125 L 72.25,94.25 L 80.375,91.34375 z M 70.125,91.78125 L 70.25,93.6875 L 59.125,98.40625 L 59.0625,96.34375 L 70.125,91.78125 z M 81.3125,94.03125 C 81.913753,94.180293 81.69705,94.913008 81.34375,95.0625 L 72.53125,98.0625 L 72.4375,97.0625 L 81.3125,94.03125 z M 80.8125,95.5 L 81.0625,98.03125 L 72.71875,100.75 L 72.5,98.375 L 80.8125,95.5 z M 81.65625,98 C 82.2575,98.149041 82.0408,98.913008 81.6875,99.0625 L 72.8125,102.03125 L 72.75,101.0625 L 81.65625,98 z M 81.1875,99.4375 L 81.4375,101.78125 L 73,104.5625 L 72.84375,102.3125 L 81.1875,99.4375 z M 82.09375,101.71875 C 82.695002,101.86779 82.4783,102.63176 82.125,102.78125 L 73.0625,105.84375 L 73,104.84375 L 82.09375,101.71875 z M 81.5625,103.1875 L 81.8125,105.28125 L 73.25,108.09375 L 73.09375,106.125 L 81.5625,103.1875 z M 82.375,105.25 C 82.976251,105.39904 82.75955,106.16301 82.40625,106.3125 L 73.3125,109.375 L 73.25,108.40625 L 82.375,105.25 z"
       id="path2308" />
  </g>
</svg>
