<?xml version="1.0" encoding="UTF-8" standalone="no"?>
<!-- Created with Inkscape (http://www.inkscape.org/) -->
<svg
   xmlns:dc="http://purl.org/dc/elements/1.1/"
   xmlns:cc="http://creativecommons.org/ns#"
   xmlns:rdf="http://www.w3.org/1999/02/22-rdf-syntax-ns#"
   xmlns:svg="http://www.w3.org/2000/svg"
   xmlns="http://www.w3.org/2000/svg"
   xmlns:xlink="http://www.w3.org/1999/xlink"
   xmlns:sodipodi="http://sodipodi.sourceforge.net/DTD/sodipodi-0.dtd"
   xmlns:inkscape="http://www.inkscape.org/namespaces/inkscape"
   width="128"
   height="128"
   id="svg2"
   sodipodi:version="0.32"
   inkscape:version="0.45+devel"
   version="1.0"
   sodipodi:docname="wishing_well.svg"
   inkscape:output_extension="org.inkscape.output.svg.inkscape">
  <defs
     id="defs4">
    <linearGradient
       id="linearGradient3415">
      <stop
         style="stop-color:#1a1a1a;stop-opacity:1;"
         offset="0"
         id="stop3417" />
      <stop
         style="stop-color:#2b2b2b;stop-opacity:1;"
         offset="1"
         id="stop3419" />
    </linearGradient>
    <linearGradient
       id="linearGradient3392">
      <stop
         style="stop-color:#4a585b;stop-opacity:1;"
         offset="0"
         id="stop3394" />
      <stop
         style="stop-color:#5e7074;stop-opacity:1;"
         offset="1"
         id="stop3396" />
    </linearGradient>
    <linearGradient
       id="linearGradient2320">
      <stop
         id="stop2322"
         offset="0"
         style="stop-color:#6a3c1d;stop-opacity:1;" />
      <stop
         id="stop2324"
         offset="1"
         style="stop-color:#8f5127;stop-opacity:1;" />
    </linearGradient>
    <linearGradient
       id="linearGradient2338">
      <stop
         id="stop2340"
         offset="0"
         style="stop-color:#b1b1b1;stop-opacity:1;" />
      <stop
         id="stop2342"
         offset="1"
         style="stop-color:#e4e4e4;stop-opacity:1;" />
    </linearGradient>
    <linearGradient
       inkscape:collect="always"
       xlink:href="#linearGradient2338"
       id="linearGradient2369"
       x1="50.269558"
       y1="86.414474"
       x2="81.458702"
       y2="114.79048"
       gradientUnits="userSpaceOnUse" />
    <linearGradient
       inkscape:collect="always"
       xlink:href="#linearGradient2338"
       id="linearGradient2374"
       x1="52.960384"
       y1="78.953545"
       x2="71.062317"
       y2="89.716858"
       gradientUnits="userSpaceOnUse" />
    <linearGradient
       inkscape:collect="always"
       xlink:href="#linearGradient2338"
       id="linearGradient2378"
       x1="48.557217"
       y1="84.824448"
       x2="58.21973"
       y2="68.190239"
       gradientUnits="userSpaceOnUse" />
    <linearGradient
       inkscape:collect="always"
       xlink:href="#linearGradient2338"
       id="linearGradient2382"
       x1="60.788254"
       y1="70.697594"
       x2="60.910564"
       y2="80.482422"
       gradientUnits="userSpaceOnUse" />
    <linearGradient
       inkscape:collect="always"
       xlink:href="#linearGradient2320"
       id="linearGradient2969"
       x1="74.976257"
       y1="68.924095"
       x2="81.947945"
       y2="77.97506"
       gradientUnits="userSpaceOnUse" />
    <linearGradient
       id="linearGradient2888">
      <stop
         style="stop-color:#007dff;stop-opacity:1;"
         offset="0"
         id="stop2890" />
      <stop
         style="stop-color:#58abff;stop-opacity:1;"
         offset="1"
         id="stop2892" />
    </linearGradient>
    <linearGradient
       inkscape:collect="always"
       xlink:href="#linearGradient2320"
       id="linearGradient3179"
       x1="76.454056"
       y1="63.394596"
       x2="76.454056"
       y2="70.918915"
       gradientUnits="userSpaceOnUse" />
    <linearGradient
       inkscape:collect="always"
       xlink:href="#linearGradient2888"
       id="linearGradient3183"
       x1="76.281082"
       y1="63.783787"
       x2="81.037834"
       y2="67.027023"
       gradientUnits="userSpaceOnUse" />
    <linearGradient
       id="linearGradient3193">
      <stop
         id="stop3195"
         offset="0"
         style="stop-color:#c2a05c;stop-opacity:1;" />
      <stop
         id="stop3197"
         offset="1"
         style="stop-color:#d6be91;stop-opacity:1;" />
    </linearGradient>
    <linearGradient
       inkscape:collect="always"
       xlink:href="#linearGradient2320"
       id="linearGradient3382"
       x1="41.059177"
       y1="53.225559"
       x2="45.287495"
       y2="53.225559"
       gradientUnits="userSpaceOnUse" />
    <linearGradient
       inkscape:collect="always"
       xlink:href="#linearGradient2320"
       id="linearGradient3386"
       x1="84.232513"
       y1="55.395355"
       x2="88.68338"
       y2="55.395355"
       gradientUnits="userSpaceOnUse" />
    <linearGradient
       inkscape:collect="always"
       xlink:href="#linearGradient3392"
       id="linearGradient3398"
       x1="57.416088"
       y1="51.00013"
       x2="86.90303"
       y2="19.844112"
       gradientUnits="userSpaceOnUse" />
    <linearGradient
       inkscape:collect="always"
       xlink:href="#linearGradient2320"
       id="linearGradient3402"
       x1="35.161789"
       y1="37.480644"
       x2="49.293266"
       y2="47.940163"
       gradientUnits="userSpaceOnUse" />
    <linearGradient
       inkscape:collect="always"
       xlink:href="#linearGradient2320"
       id="linearGradient3408"
       x1="37.721031"
       y1="41.820232"
       x2="38.833748"
       y2="46.493633"
       gradientUnits="userSpaceOnUse" />
    <linearGradient
       inkscape:collect="always"
       xlink:href="#linearGradient3415"
       id="linearGradient3421"
       x1="54.625"
       y1="56.375"
       x2="55.625"
       y2="61.25"
       gradientUnits="userSpaceOnUse" />
    <linearGradient
       inkscape:collect="always"
       xlink:href="#linearGradient3415"
       id="linearGradient3425"
       x1="38.802483"
       y1="54.129436"
       x2="45.254837"
       y2="66.371223"
       gradientUnits="userSpaceOnUse" />
    <linearGradient
       inkscape:collect="always"
       xlink:href="#linearGradient3415"
       id="linearGradient3429"
       x1="47.508736"
       y1="66.481712"
       x2="49.143921"
       y2="60.780663"
       gradientUnits="userSpaceOnUse" />
    <linearGradient
       inkscape:collect="always"
       xlink:href="#linearGradient3415"
       id="linearGradient3433"
       x1="34.780815"
       y1="62.018101"
       x2="35.355339"
       y2="63.653282"
       gradientUnits="userSpaceOnUse" />
    <linearGradient
       inkscape:collect="always"
       xlink:href="#linearGradient2320"
       id="linearGradient3437"
       x1="39.818951"
       y1="59.167576"
       x2="42.33802"
       y2="63.321827"
       gradientUnits="userSpaceOnUse" />
    <linearGradient
       inkscape:collect="always"
       xlink:href="#linearGradient3193"
       id="linearGradient3441"
       x1="30.361397"
       y1="64.515068"
       x2="31.245279"
       y2="66.19445"
       gradientUnits="userSpaceOnUse" />
    <linearGradient
       inkscape:collect="always"
       xlink:href="#linearGradient3415"
       id="linearGradient3449"
       x1="39.111843"
       y1="59.278061"
       x2="40.923805"
       y2="61.112118"
       gradientUnits="userSpaceOnUse" />
    <filter
       inkscape:collect="always"
       id="filter3570">
      <feGaussianBlur
         inkscape:collect="always"
         stdDeviation="1.6277848"
         id="feGaussianBlur3572" />
    </filter>
  </defs>
  <sodipodi:namedview
     id="base"
     pagecolor="#ffffff"
     bordercolor="#666666"
     borderopacity="1.0"
     gridtolerance="10000"
     guidetolerance="10"
     objecttolerance="10"
     inkscape:pageopacity="0.0"
     inkscape:pageshadow="2"
     inkscape:zoom="1"
     inkscape:cx="64"
     inkscape:cy="64"
     inkscape:document-units="px"
     inkscape:current-layer="layer2"
     showgrid="false"
     width="744.09px"
     inkscape:window-width="1248"
     inkscape:window-height="975"
     inkscape:window-x="426"
     inkscape:window-y="24" />
  <metadata
     id="metadata7">
    <rdf:RDF>
      <cc:Work
         rdf:about="">
        <dc:format>image/svg+xml</dc:format>
        <dc:type
           rdf:resource="http://purl.org/dc/dcmitype/StillImage" />
      </cc:Work>
    </rdf:RDF>
  </metadata>
  <g
     inkscape:groupmode="layer"
     id="layer2"
     inkscape:label="colors">
    <path
       style="fill:#000000;fill-rule:evenodd;stroke:none;stroke-width:1px;stroke-linecap:butt;stroke-linejoin:miter;stroke-opacity:1;filter:url(#filter3570);fill-opacity:0.68493152000000002"
       d="M 59.827874,66.261461 C 45.76835,69.893564 31.708827,73.525667 17.649304,77.157772 C 24.517451,81.091781 31.385599,85.025792 38.253747,88.959802 C 48.347036,86.015379 58.392391,83.035492 68.515507,80.113153 C 58.455247,83.103057 48.297034,86.021316 38.276771,89.040407 C 31.465765,85.171422 24.654759,81.302438 17.843754,77.433454 C 13.244711,80.18293 14.166346,84.176675 10.620745,87.197866 C 8.97979,88.61502 11.322183,89.934757 14.038972,88.655062 C 18.231983,88.19695 24.014297,86.459353 21.21093,83.971891 C 22.142807,84.583427 23.514021,87.866829 22.580298,89.52821 C 21.199167,91.516086 23.330198,94.038647 20.080849,95.593328 C 17.42726,96.689978 20.727059,97.86438 22.079092,96.303729 C 28.786597,95.733897 26.105696,100.03401 28.97375,101.67794 C 31.395445,103.93902 35.765563,104.94603 37.30792,107.4754 C 40.044997,110.27374 41.48638,111.25026 44.151004,114.04654 C 46.269111,115.85268 52.927126,116.94124 57.702193,118.51999 C 69.349021,119.22637 75.750726,114.48754 83.96374,110.78652 C 86.910293,109.7489 91.150407,108.27655 89.289876,106.14197 C 86.503908,102.20856 89.643305,101.32958 86.921677,97.383671 C 90.532837,94.161199 86.31651,89.704833 79.58253,87.864883 C 75.021431,85.64994 75.294228,82.404665 72.458034,79.797587 C 68.844912,78.495918 77.311019,78.481828 78.202846,77.375176 C 82.863679,75.333348 74.644008,73.269535 71.841762,71.752907 C 67.82665,69.927814 63.86445,68.075468 59.827874,66.261461 z M 28.412995,84.888093 C 30.29568,85.399205 35.245975,88.985263 30.545844,87.616049 C 29.340782,86.795941 29.076967,85.801548 28.412995,84.888093 z M 70.125772,80.957267 C 71.07182,81.073074 69.608239,81.484858 70.125772,80.957267 z M 70.66133,82.292096 C 71.149199,82.826013 69.431458,82.977999 70.66133,82.292096 z M 69.938538,83.85727 C 69.975667,87.017976 62.014211,86.447753 57.766006,87.293777 C 51.404578,88.731023 45.896651,90.864031 39.382094,92.170668 C 49.544525,89.381478 59.752519,86.627975 69.938538,83.85727 z M 31.316109,88.90807 C 32.682315,89.079775 30.964086,89.360513 31.316109,88.90807 z M 34.919416,88.740915 L 35.54015,89.074563 L 34.919416,88.740915 z M 32.087687,89.426441 C 32.861892,89.831036 33.946707,90.928627 32.600278,89.866017 L 32.087687,89.426441 z M 35.687509,90.597265 C 37.284931,91.28628 35.397212,91.003803 35.687509,90.597265 z M 35.74055,92.830729 L 35.969598,93.211737 L 35.74055,92.830729 z M 84.83313,92.839895 C 84.103653,93.590934 83.463514,93.67803 84.83313,92.839895 z M 80.205323,95.631282 C 79.240676,96.238243 78.476022,96.11214 80.205323,95.631282 z M 37.182371,101.25374 C 39.496458,101.1848 45.800894,101.64945 39.927016,101.55773 C 38.999465,101.51993 38.063977,101.43184 37.182371,101.25374 z M 48.169938,101.53172 C 50.222395,101.25244 51.184264,101.66052 48.169938,101.53172 z M 83.303213,99.207983 C 77.463397,101.90436 69.521215,103.25008 61.620327,104.14949 C 69.268516,102.93255 77.097364,101.69705 83.303213,99.207983 z M 40.927329,104.98045 C 42.648067,105.00831 43.432827,105.23666 40.927329,104.98045 z M 49.122447,105.13633 C 50.554609,104.94979 51.52118,105.28192 49.122447,105.13633 z"
       id="path3451"
       sodipodi:nodetypes="cccccccccccccccccccccccccccccccccccccccccccccccccccccccccccccccc" />
    <path
       style="fill:url(#linearGradient2369);fill-rule:evenodd;stroke:none;stroke-width:1px;stroke-linecap:butt;stroke-linejoin:miter;stroke-opacity:1"
       d="M 42.197075,110.265 L 41.340902,84.824442 L 47.089489,87.39296 L 53.816559,88.982994 L 69.349975,90.083788 L 79.379425,88.616063 L 84.883391,87.270649 L 92.099702,83.234408 L 92.099703,84.824442 L 91.488151,110.99886 L 84.883391,114.17893 C 80.454251,116.91781 75.684941,117.61566 70.94001,118.45979 L 60.421319,118.33748 L 50.63649,115.64665 L 44.765593,112.22196 L 42.197075,110.265 z"
       id="path2367"
       sodipodi:nodetypes="cccccccccccccccc" />
    <path
       style="fill:url(#linearGradient2374);fill-rule:evenodd;stroke:none;stroke-width:1px;stroke-linecap:butt;stroke-linejoin:miter;stroke-opacity:1;fill-opacity:1"
       d="M 35.714626,71.370302 L 38.038523,74.550372 L 45.132524,79.442786 L 55.161973,82.011304 L 67.148389,82.622856 L 76.321666,81.766683 L 84.761081,79.565097 L 90.754289,76.385027 L 93.078186,74.305751 L 95.402083,69.780268 L 95.769014,77.2412 L 92.955875,82.745166 L 88.430392,85.435994 L 82.192563,87.882201 L 68.371492,89.716857 L 56.996629,89.349926 L 49.413386,88.126822 L 44.643282,86.292166 L 40.240109,84.335201 L 36.815419,80.910511 L 35.470005,78.219683 L 35.714626,71.370302 z"
       id="path2372" />
    <path
       style="fill:url(#linearGradient2378);fill-rule:evenodd;stroke:none;stroke-width:1px;stroke-linecap:butt;stroke-linejoin:miter;stroke-opacity:1"
       d="M 35.836936,67.456371 L 35.836936,70.147199 L 37.426971,74.428061 L 42.319385,77.975062 L 53.082697,81.522062 L 61.889043,82.622856 L 67.026078,82.745166 L 75.832425,81.888993 L 81.703322,80.66589 L 89.286564,77.36351 L 93.812048,73.694199 L 95.279772,70.51413 L 92.466634,64.153991 L 90.876599,62.930887 C 86.744671,62.179628 85.683968,58.932839 82.007992,57.96895 C 78.430102,57.03078 73.216695,56.128713 66.659147,58.527715 L 50.024939,62.441646 L 35.836936,67.456371 z"
       id="path2376"
       sodipodi:nodetypes="ccccccccccccccsccc" />
    <path
       style="fill:url(#linearGradient2382);fill-rule:evenodd;stroke:none;stroke-width:1px;stroke-linecap:butt;stroke-linejoin:miter;stroke-opacity:1"
       d="M 46.477938,70.024888 L 48.557214,65.744026 L 52.226525,63.542439 L 58.586663,62.441646 L 66.414527,61.830094 L 66.292216,64.520922 L 68.738424,76.385027 L 62.989837,76.385027 L 55.406594,75.406544 L 49.902628,73.694199 L 46.722558,71.859544 L 46.477938,70.024888 z"
       id="path2380" />
    <path
       sodipodi:nodetypes="cccccccccccccccc"
       id="path2384"
       d="M 42.197075,110.265 L 41.340902,84.824442 L 47.089489,87.39296 L 53.816559,88.982994 L 69.349975,90.083788 L 79.379425,88.616063 L 84.883391,87.270649 L 92.099702,83.234408 L 92.099703,84.824442 L 91.488151,110.99886 L 84.883391,114.17893 C 80.235597,116.83546 75.587804,118.08345 70.94001,118.45979 L 60.421319,118.33748 L 50.63649,115.64665 L 44.765593,112.22196 L 42.197075,110.265 z"
       style="fill:#000000;fill-rule:evenodd;stroke:none;stroke-width:1px;stroke-linecap:butt;stroke-linejoin:miter;stroke-opacity:1;fill-opacity:0.15686275" />
    <path
       id="path2386"
       d="M 35.714626,71.370302 L 38.038523,74.550372 L 45.132524,79.442786 L 55.161973,82.011304 L 67.148389,82.622856 L 76.321666,81.766683 L 84.761081,79.565097 L 90.754289,76.385027 L 93.078186,74.305751 L 95.402083,69.780268 L 95.769014,77.2412 L 92.955875,82.745166 L 88.430392,85.435994 L 82.192563,87.882201 L 68.371492,89.716857 L 56.996629,89.349926 L 49.413386,88.126822 L 44.643282,86.292166 L 40.240109,84.335201 L 36.815419,80.910511 L 35.470005,78.219683 L 35.714626,71.370302 z"
       style="fill:#000000;fill-rule:evenodd;stroke:none;stroke-width:1px;stroke-linecap:butt;stroke-linejoin:miter;stroke-opacity:1;fill-opacity:0.15686275" />
    <path
       id="path2388"
       d="M 46.477938,70.024888 L 48.557214,65.744026 L 52.226525,63.542439 L 58.586663,62.441646 L 66.414527,61.830094 L 66.292216,64.520922 L 68.738424,76.385027 L 62.989837,76.385027 L 55.406594,75.406544 L 49.902628,73.694199 L 46.722558,71.859544 L 46.477938,70.024888 z"
       style="fill:#000000;fill-rule:evenodd;stroke:none;stroke-width:1px;stroke-linecap:butt;stroke-linejoin:miter;stroke-opacity:1;fill-opacity:0.15686275" />
    <path
       style="fill:url(#linearGradient2969);fill-rule:evenodd;stroke:none;stroke-width:1px;stroke-linecap:butt;stroke-linejoin:miter;stroke-opacity:1"
       d="M 68.860734,78.464303 L 66.047596,64.520922 L 68.126872,65.744026 L 71.918493,66.844819 L 74.976252,66.967129 L 80.847149,66.722509 L 82.804115,66.110957 L 86.228805,64.643232 L 84.51646,77.852752 L 82.437184,78.708924 L 75.832425,80.421269 L 71.673872,79.565097 L 68.860734,78.464303 z"
       id="path2967" />
    <path
       style="fill:url(#linearGradient3179);fill-rule:evenodd;stroke:none;stroke-width:1px;stroke-linecap:butt;stroke-linejoin:miter;stroke-opacity:1"
       d="M 66.681081,62.789189 L 71.264865,60.627027 L 75.243243,59.675676 L 78.702703,59.848649 L 84.064865,61.145946 L 86.486487,63.048649 L 86.557362,63.905395 L 83.632432,65.902703 L 80.778378,66.594595 L 75.762162,67.113513 L 69.102703,66.162162 L 66.508108,64.778378 L 66.421622,63.654054 L 66.681081,62.789189 z"
       id="path3177"
       sodipodi:nodetypes="cccccccccccccc" />
    <path
       style="fill:url(#linearGradient3183);fill-rule:evenodd;stroke:none;stroke-width:1px;stroke-linecap:butt;stroke-linejoin:miter;stroke-opacity:1"
       d="M 68.497297,65.643243 L 69.881081,64.691892 L 72.908108,63.221622 L 75.935135,62.443243 L 78.702703,62.702703 L 80.345946,62.962162 L 82.248649,63.394595 L 85.448649,64.864865 C 83.711621,65.962551 81.979441,67.071547 79.567568,66.594595 L 74.724324,67.027027 L 71.099698,66.704498 L 68.497297,65.643243 z"
       id="path3181"
       sodipodi:nodetypes="cccccccccccc" />
    <path
       style="fill:#1a1a1a;fill-rule:evenodd;stroke:none;stroke-width:1px;stroke-linecap:butt;stroke-linejoin:miter;stroke-opacity:1"
       d="M 66.091892,68.045212 L 70.734061,69.146744 L 78.130058,69.382786 L 82.850908,68.595978 L 86.391545,67.651808 L 86.627587,68.517297 L 86.312864,69.697509 L 82.772227,70.641679 L 76.871165,71.507168 L 69.475168,71.035083 L 66.406616,70.248275 L 65.777169,69.854871 L 65.462446,68.910701 L 66.091892,68.045212 z"
       id="path3376"
       sodipodi:nodetypes="cccccccccccccc" />
    <path
       style="fill:#1a1a1a;fill-rule:evenodd;stroke:none;stroke-width:1px;stroke-linecap:butt;stroke-linejoin:miter;stroke-opacity:1"
       d="M 67.429466,74.811763 L 70.498018,75.755933 L 73.723932,76.070656 L 77.107208,75.991975 L 80.097079,75.598571 L 84.188482,74.733082 L 85.368694,74.733082 L 85.290013,76.228018 L 83.795078,76.700103 L 80.17576,77.486911 L 77.894016,77.801634 L 73.48789,77.801634 L 70.104614,77.250868 L 67.82287,76.700103 L 67.429466,74.811763 z"
       id="path3378"
       sodipodi:nodetypes="ccccccccccccccc" />
    <path
       style="fill:url(#linearGradient3382);fill-rule:evenodd;stroke:none;stroke-width:1px;stroke-linecap:butt;stroke-linejoin:miter;stroke-opacity:1"
       d="M 39.390107,74.255871 L 40.280278,30.74872 L 46.177668,44.657655 L 46.400211,74.478414 L 44.619867,74.9235 L 42.61698,75.368586 L 40.39155,74.9235 L 39.390107,74.255871 z"
       id="path3380"
       sodipodi:nodetypes="cccccccc" />
    <path
       style="fill:url(#linearGradient3386);fill-rule:evenodd;stroke:none;stroke-width:1px;stroke-linecap:butt;stroke-linejoin:miter;stroke-opacity:1"
       d="M 83.00853,60.346935 L 83.342345,54.672089 L 85.011417,54.115732 L 86.791761,51.667759 L 87.45939,48.885972 L 86.346675,46.437999 L 90.241177,45.547827 L 90.241177,64.130166 L 88.477833,65.114609 L 85.724085,65.242881 L 86.42483,63.940739 L 85.679046,62.127279 L 83.453616,60.903292 L 83.00853,60.346935 z"
       id="path3384"
       sodipodi:nodetypes="cccccccccccccc" />
    <path
       style="fill:url(#linearGradient3398);fill-rule:evenodd;stroke:none;stroke-width:1px;stroke-linecap:butt;stroke-linejoin:miter;stroke-opacity:1;fill-opacity:1"
       d="M 52.631414,55.673532 L 41.281722,28.634561 L 87.348118,18.508855 L 101.03451,42.432225 L 52.631414,55.673532 z"
       id="path3388" />
    <path
       style="fill:url(#linearGradient3402);fill-rule:evenodd;stroke:none;stroke-width:1px;stroke-linecap:butt;stroke-linejoin:miter;stroke-opacity:1"
       d="M 25.369899,50.22123 L 40.057736,29.190918 L 41.281722,29.190918 L 52.631414,55.896075 L 50.517256,56.61934 L 40.502822,31.305077 L 27.595329,49.887415 L 25.369899,50.22123 z"
       id="path3400"
       sodipodi:nodetypes="cccccccc" />
    <path
       style="fill:url(#linearGradient3408);fill-rule:evenodd;stroke:none;stroke-width:1px;stroke-linecap:butt;stroke-linejoin:miter;stroke-opacity:1"
       d="M 27.817872,49.553601 L 40.39155,31.193805 L 39.723921,47.661985 L 27.817872,49.553601 z"
       id="path3406" />
    <path
       id="path3410"
       d="M 27.817872,49.553601 L 40.39155,31.193805 L 39.723921,47.661985 L 27.817872,49.553601 z"
       style="fill:#000000;fill-rule:evenodd;stroke:none;stroke-width:1px;stroke-linecap:butt;stroke-linejoin:miter;stroke-opacity:1;fill-opacity:0.15686275" />
    <path
       sodipodi:nodetypes="cccccccc"
       id="path3404"
       d="M 25.369899,50.22123 L 40.057736,29.190918 L 41.281722,29.190918 L 52.631414,55.896075 L 50.628527,56.452433 L 40.502822,31.305077 L 27.595329,49.887415 L 25.369899,50.22123 z"
       style="fill:#000000;fill-rule:evenodd;stroke:none;stroke-width:1px;stroke-linecap:butt;stroke-linejoin:miter;stroke-opacity:1;fill-opacity:0.15686275000000000" />
    <path
       style="fill:url(#linearGradient3421);fill-rule:evenodd;stroke:none;stroke-width:1px;stroke-linecap:butt;stroke-linejoin:miter;stroke-opacity:1;fill-opacity:1"
       d="M 86.840357,46.357833 L 87.207288,47.580937 L 87.390754,50.271765 L 85.311478,53.818765 L 49.474542,62.441646 L 49.413386,59.016956 L 48.251438,54.185696 L 49.596852,54.246852 L 50.51418,56.693059 L 53.082697,55.653421 L 85.128012,46.847075 L 86.840357,46.357833 z"
       id="path3413" />
    <path
       style="fill:url(#linearGradient3425);fill-rule:evenodd;stroke:none;stroke-width:1px;stroke-linecap:butt;stroke-linejoin:miter;stroke-opacity:1"
       d="M 40.260892,50.17406 L 41.7193,50.129866 L 44.415145,51.632467 L 46.580659,54.94703 L 47.155184,57.068351 L 47.906485,61.090021 L 47.552931,64.713943 L 45.696776,69.044972 L 42.691572,71.210487 L 41.277358,71.740817 C 41.277358,71.740817 39.730562,71.519846 39.332815,71.343069 C 38.935067,71.166292 35.399533,65.774603 35.399533,65.774603 L 34.869203,60.692273 C 34.869203,60.692273 35.266951,56.803186 35.399533,56.31705 C 35.532116,55.830914 37.388271,52.472157 37.388271,52.472157 L 40.260892,50.17406 z"
       id="path3423"
       sodipodi:nodetypes="ccccccccccsccscc" />
    <path
       style="fill:url(#linearGradient3429);fill-rule:evenodd;stroke:none;stroke-width:1px;stroke-linecap:butt;stroke-linejoin:miter;stroke-opacity:1"
       d="M 40.747028,49.953089 L 42.293824,49.908895 L 44.370951,50.439225 L 46.2713,51.720856 L 48.17165,54.284118 L 49.055533,56.891574 L 49.497475,61.134215 L 48.834562,65.597826 L 46.934213,68.868195 C 46.934213,68.868195 45.917747,70.282409 45.74097,70.414991 C 45.564193,70.547574 44.459339,71.03371 44.459339,71.03371 L 43.31029,71.475652 L 41.498329,71.652428 C 41.498329,71.652428 42.24963,71.254681 42.824155,71.077904 C 43.398679,70.901127 45.033863,69.398525 45.033863,69.398525 L 46.890019,66.304933 L 47.773902,63.653283 L 47.773902,61.310992 L 47.420349,57.598681 L 46.2713,53.930564 L 44.68031,51.809244 L 42.956737,50.70439 L 41.233164,50.17406 L 40.747028,49.953089 z"
       id="path3427" />
    <path
       style="fill:url(#linearGradient3433);fill-rule:evenodd;stroke:none;stroke-width:1px;stroke-linecap:butt;stroke-linejoin:miter;stroke-opacity:1;fill-opacity:1"
       d="M 32.482718,63.078758 L 36.813747,61.134215 L 38.581514,60.073555 L 39.332815,62.327458 C 39.332815,62.327458 37.830213,62.504234 37.388271,62.769399 C 36.946329,63.034564 34.250485,64.58136 34.250485,64.58136 L 33.234019,65.332661 L 33.278213,64.05103 L 32.482718,63.078758 z"
       id="path3431" />
    <path
       style="fill:url(#linearGradient3437);fill-rule:evenodd;stroke:none;stroke-width:1px;stroke-linecap:butt;stroke-linejoin:miter;stroke-opacity:1"
       d="M 38.272155,62.813593 L 39.023456,64.625555 L 40.393475,65.597826 L 41.409941,65.818797 L 42.161242,65.509438 L 42.824155,64.669749 L 43.531261,62.283263 L 43.442873,59.145477 L 42.603184,57.289322 L 40.967999,56.228662 L 39.951533,56.228662 L 38.581514,57.024157 L 37.918601,58.305788 L 37.69763,60.559691 L 38.979261,59.985166 L 39.111844,62.327458 L 38.272155,62.813593 z"
       id="path3435" />
    <path
       style="fill:url(#linearGradient3441);fill-rule:evenodd;stroke:none;stroke-width:1px;stroke-linecap:butt;stroke-linejoin:miter;stroke-opacity:1"
       d="M 28.505242,64.669749 L 32.394329,63.299729 L 33.410795,63.918448 L 33.057242,65.465244 L 29.831067,67.586564 L 28.770407,66.216545 L 28.505242,64.669749 z"
       id="path3439" />
    <path
       style="fill:#000000;fill-rule:evenodd;stroke:none;stroke-width:1px;stroke-linecap:butt;stroke-linejoin:miter;stroke-opacity:1;fill-opacity:0.15686275"
       d="M 28.505242,64.713943 L 29.919456,65.155885 L 30.140427,65.597826 L 30.361397,66.746875 L 29.96365,67.498176 L 28.814601,66.083962 L 28.461048,65.200079 L 28.505242,64.713943 z"
       id="path3443" />
    <path
       style="fill:#000000;fill-rule:evenodd;stroke:none;stroke-width:1px;stroke-linecap:butt;stroke-linejoin:miter;stroke-opacity:1;fill-opacity:0.15686275"
       d="M 40.702834,56.361244 L 41.896077,57.996428 L 42.735766,59.454836 L 42.956737,60.250331 L 42.824155,62.636817 L 41.18897,65.067496 L 40.65864,65.686215 L 41.675106,65.730409 L 42.558989,65.023302 L 43.31029,63.211341 L 43.442873,61.222603 L 43.531261,59.852584 L 42.824155,57.775458 L 42.072854,56.803186 L 40.702834,56.361244 z"
       id="path3445" />
    <path
       style="fill:url(#linearGradient3449);fill-rule:evenodd;stroke:none;stroke-width:1px;stroke-linecap:butt;stroke-linejoin:miter;stroke-opacity:1"
       d="M 39.111844,59.631613 L 39.332815,62.327458 L 40.614446,62.018098 L 41.630912,61.266797 L 41.851883,60.382914 L 41.144776,59.27806 L 39.995727,59.322254 L 39.111844,59.631613 z"
       id="path3447" />
  </g>
  <g
     inkscape:label="outline"
     inkscape:groupmode="layer"
     id="layer1">
    <path
       style="opacity:1;fill:#000000;fill-opacity:1;stroke:none;stroke-width:1;stroke-miterlimit:4;stroke-dasharray:none;stroke-opacity:1"
       d="M 87.25,18.125 L 39.75,28.8125 L 24.875,50.5 L 39.59375,48.0625 L 39.5625,50.125 C 35.68065,52.300242 34.729648,56.788743 34.53125,60.9375 C 34.53125,61.310197 34.564063,61.669952 34.59375,62.03125 C 33.778034,62.397518 32.95743,62.726252 32.125,63.0625 L 28.25,64.625 C 27.84625,65.994768 29.295934,66.914263 29.8125,67.875 L 33.34375,65.65625 C 33.37774,65.533816 33.41019,65.426829 33.4375,65.3125 C 33.917716,65.009946 34.393076,64.706757 34.875,64.4375 C 35.076742,65.430171 35.361021,66.365813 35.71875,67.21875 C 35.03505,68.551149 35.103535,69.89852 35.3125,71.3125 C 35.297915,73.191132 35.512218,75.08698 35.3125,77.21875 C 35.447567,80.944543 38.291281,83.225928 41.15625,85.09375 L 42.1875,110.59375 C 51.306655,117.63645 59.579867,119.39409 70.78125,118.71875 C 80.030188,117.56304 86.795589,114.05973 91.84375,111.25 L 92.40625,83.375 C 94.384851,81.82268 95.57849,79.72371 95.8125,77.21875 C 95.795097,74.735999 95.67605,72.252747 95.625,69.78125 C 95.510632,66.314438 92.951297,64.072548 90.3125,62.25 L 90.1875,45.6875 L 101.59375,42.5 L 87.25,18.125 z M 86.9375,19.0625 L 100.59375,42.09375 L 52.65625,55.5 L 42.21875,29.28125 L 86.9375,19.0625 z M 75.875,22.5625 L 75.59375,22.625 L 76.875,24.78125 L 73.9375,25.40625 L 73.90625,25.6875 L 77,24.96875 L 79.125,28.5625 L 79.34375,28.59375 L 77.21875,24.90625 L 85.3125,23.03125 L 85.15625,23.03125 L 77.125,24.71875 L 75.875,22.5625 z M 63.90625,26.28125 L 63.4375,26.375 C 63.540448,26.598054 64.206902,27.967504 64.59375,28.78125 L 46,33.15625 L 44.78125,30.125 L 44.34375,30 L 45.65625,33.21875 L 44.875,33.40625 L 45.09375,33.65625 L 45.75,33.5 L 53.53125,52.71875 L 53.90625,52.71875 L 46.125,33.40625 L 64.71875,29.0625 C 65.677494,31.077861 66.260921,32.291384 67.40625,34.6875 L 61.9375,35.96875 L 62.15625,36.21875 L 67.53125,34.9375 C 68.376459,36.705604 69.5625,39.21875 69.5625,39.21875 L 69.90625,39.28125 C 69.906251,39.281249 68.728638,36.723054 67.875,34.875 L 87.21875,30.3125 L 92.125,39.53125 L 85.90625,41.34375 L 86.21875,41.53125 L 92.28125,39.8125 L 93.25,41.625 L 93.5,41.65625 L 92.5,39.75 L 95.84375,38.78125 L 95.65625,38.53125 L 92.375,39.46875 L 87.53125,30.25 L 91.875,29.21875 L 91.625,29.03125 L 87.40625,30.03125 L 85.59375,26.5625 L 85.21875,26.59375 L 87.09375,30.09375 L 67.75,34.625 C 66.623987,32.187274 66.079619,30.967976 65.15625,28.96875 L 68.625,28.15625 L 68.375,27.90625 L 65.03125,28.6875 C 64.660415,27.884576 64.001223,26.487025 63.90625,26.28125 z M 40.1875,29.46875 L 41.21875,29.5 L 52.09375,55.90625 L 50.8125,56.40625 L 40.71875,30.25 C 40.341045,30.094218 40.58504,30.412302 40.25,30.15625 L 27.28125,49.5625 L 25.90625,49.96875 L 40.1875,29.46875 z M 40.4375,31.6875 L 45.71875,44.3125 L 45.53125,50.9375 C 44.165245,50.019612 42.451248,49.583609 40.375,49.875 L 40.4375,49.9375 C 40.356123,49.937312 40.267204,49.902258 40.1875,49.90625 L 40.4375,31.6875 z M 39.90625,32.34375 L 39.625,47 L 28.375,49.25 L 39.90625,32.34375 z M 85.71875,34.59375 L 75.4375,37.0625 L 74.59375,35.15625 L 74.21875,35.125 L 75.125,37.15625 L 73.53125,37.53125 L 73.84375,37.71875 L 75.21875,37.375 L 77.875,43.25 L 61.40625,47.28125 L 56.5625,35.3125 L 56.1875,35.21875 L 61.1875,47.34375 L 57.8125,48.15625 L 58.1875,48.21875 L 61.25,47.46875 L 62.5625,50.6875 L 62.84375,50.78125 L 61.46875,47.40625 L 77.9375,43.40625 L 79.34375,46.53125 L 79.59375,46.5625 L 78.1875,43.34375 L 81.34375,42.5625 L 81.1875,42.4375 L 78.125,43.1875 L 75.53125,37.3125 L 85.78125,34.78125 L 85.71875,34.59375 z M 38.28125,38.46875 L 33.9375,45.53125 L 31.9375,45.5 L 31.5,45.90625 L 33.75,45.875 L 33.34375,46.5 L 33.6875,46.71875 L 34.1875,45.84375 L 38.125,45.78125 L 37.96875,46.15625 L 38,46.25 L 38.21875,45.78125 L 38.96875,45.78125 L 39.21875,45.5625 L 38.34375,45.5625 L 39.125,43.96875 L 38.875,43.84375 L 38.21875,45.5625 L 34.375,45.53125 L 38.34375,38.5 L 38.28125,38.46875 z M 89.4375,45.78125 L 89.84375,63.84375 C 88.705951,64.800946 87.323898,65.149072 86.59375,65.09375 C 87.124082,63.498533 86.38426,62.5798 85.375,61.5 C 85.123632,60.610546 84.523796,59.758087 83.71875,59 L 83.75,54.84375 L 85.5,54.40625 C 87.478643,51.984371 88.182527,49.456763 87.15625,46.53125 L 89.4375,45.78125 z M 46.3125,46.40625 L 49.25,53.9375 L 48.25,54.15625 C 47.757037,53.177402 47.131117,52.323463 46.375,51.625 L 46.3125,46.40625 z M 86.5,46.8125 C 87.828597,49.241248 86.583871,51.667729 85.03125,53.5 L 82.5,54.125 L 81.65625,48.0625 L 86.5,46.8125 z M 81.03125,48.375 L 81.96875,54.15625 L 78.71875,55 L 77.3125,49.21875 L 81.03125,48.375 z M 76.78125,49.4375 L 78.25,55.125 L 75.59375,56 L 74.3125,50.125 L 76.78125,49.4375 z M 41.71875,50.09375 C 52.038811,50.09037 50.68854,71.286979 42.375,71.53125 C 44.744545,70.809656 46.723094,68.775385 47.6875,65.125 C 48.485805,62.115192 47.966577,58.773935 47.125,55.46875 C 46.352353,52.480254 43.957085,50.631536 41.71875,50.09375 z M 41.28125,50.28125 C 42.814538,50.281245 44.311982,51.754773 45.40625,53.59375 C 46.500518,55.432726 47.65625,58.317671 47.65625,61.1875 C 47.509557,65.496485 45.941843,70.284004 41.375,71.53125 C 37.825042,70.831801 36.333077,67.426858 35.65625,64.03125 C 36.406218,63.641866 37.155554,63.283834 37.9375,62.96875 C 38.60572,65.058683 39.330807,65.642867 40.71875,65.84375 C 42.584243,66.251375 43.199501,64.521491 43.71875,61.125 C 43.8365,57.878895 42.028727,55.665879 39.8125,56.03125 L 39.8125,56.0625 C 39.791272,56.061804 39.771465,56.062603 39.75,56.0625 C 38.830148,56.52305 38.263891,57.012111 37.71875,57.84375 C 37.410825,58.491856 37.402024,59.619573 37.53125,60.5 C 36.804566,60.946103 36.046694,61.355014 35.28125,61.71875 C 35.248386,61.390203 35.212179,61.057453 35.1875,60.75 C 35.246713,56.364937 36.723649,51.51066 41.28125,50.28125 z M 73.8125,50.28125 L 74.78125,55.96875 L 72.875,56.4375 L 71.5625,50.90625 L 73.8125,50.28125 z M 70.9375,51.15625 L 72.3125,56.75 L 69.6875,57.3125 L 68.53125,51.75 L 70.9375,51.15625 z M 68.03125,52.03125 L 69.0625,57.46875 L 66.375,58 L 65.46875,52.59375 L 68.03125,52.03125 z M 64.84375,52.875 L 65.96875,58.21875 L 64.15625,58.53125 L 62.4375,53.4375 L 64.84375,52.875 z M 62.03125,53.375 L 63.5,58.875 L 61.0625,59.28125 L 60.65625,53.9375 L 62.03125,53.375 z M 60.15625,54.09375 L 60.4375,59.53125 L 58.28125,59.9375 L 57.53125,54.8125 L 60.15625,54.09375 z M 49.625,54.875 L 50.375,56.8125 L 53.09375,56.0625 L 53.34375,61.15625 L 51.625,61.5625 L 49,55.03125 L 49.625,54.875 z M 82.75,55.0625 L 82.71875,58.1875 C 82.143023,57.800656 81.519067,57.473433 80.84375,57.25 C 79.638287,56.851164 78.279035,56.592238 76.90625,56.46875 L 82.75,55.0625 z M 56.90625,55.125 L 57.65625,60 L 54,61.09375 L 53.625,55.96875 L 56.90625,55.125 z M 39.90625,56.40625 C 41.257912,56.429369 42.321006,58.812702 42.78125,60.46875 C 43.054947,62.40988 42.028611,64.178768 40.5625,65.34375 C 39.238955,65.136861 38.98204,63.879147 38.53125,62.75 C 38.749674,62.668167 38.964846,62.576574 39.1875,62.5 L 41.09375,62.09375 C 42.266767,61.101868 41.944021,60.594089 41.84375,59.9375 C 41.395833,58.972878 40.947917,59.267758 40.5,58.9375 L 39.0625,59.4375 C 38.745538,59.680097 38.423016,59.907011 38.09375,60.125 C 37.977813,59.463406 38.018753,58.799218 38.25,58.3125 C 38.478805,57.830921 38.756275,56.781748 39.90625,56.40625 z M 41.09375,56.53125 C 42.646494,57.018202 43.342205,58.792386 43.4375,60.8125 C 43.231369,63.067425 42.967963,65.520336 41.09375,65.5625 C 42.728605,64.332803 43.050983,62.65844 43.09375,60.4375 C 42.865313,59.262489 42.254582,57.395933 41.09375,56.53125 z M 76,57.03125 C 76.839333,56.995065 78.198177,57.197432 80.875,57.6875 C 81.494261,57.800873 82.733447,58.339806 82.8125,59.21875 C 81.069296,58.737016 76.83553,57.664347 74.875,57.34375 C 75.183327,57.160119 75.4964,57.052961 76,57.03125 z M 49.375,57.46875 L 51.0625,61.71875 L 49.625,62.0625 C 49.740193,60.526735 49.670822,58.951474 49.375,57.46875 z M 70.9375,57.84375 C 71.085845,57.830187 71.214853,57.83632 71.34375,57.84375 C 75.552025,58.206771 79.389392,58.965824 82.71875,60 L 82.71875,60.4375 C 80.928953,59.937619 78.701943,59.625 76.25,59.625 C 73.177058,59.623235 69.295911,60.591652 66.53125,61.96875 C 66.567629,61.268113 67.068695,59.852445 67.5,59.34375 C 68.439023,58.537717 69.899086,57.938693 70.9375,57.84375 z M 67.40625,58.78125 C 66.468673,59.460494 66.067409,61.132793 65.78125,61.625 C 61.639923,61.625001 57.802627,62.074603 54.5625,62.84375 L 53.9375,61.8125 L 67.40625,58.78125 z M 40.46875,59.3125 C 41.858194,59.781972 42.277706,60.873817 40.53125,61.6875 L 39.59375,61.875 L 39.375,59.8125 L 40.46875,59.3125 z M 83.71875,59.4375 C 83.985075,59.715929 84.808925,61.059807 84.96875,61.34375 C 84.768576,61.256423 83.940307,60.829809 83.71875,60.75 L 83.71875,59.4375 z M 76.21875,60.0625 C 79.319298,60.324382 84.704531,60.758799 86.5,63.59375 C 86.237253,64.008429 85.873989,64.345899 85.46875,64.65625 C 82.500541,63.326801 79.368605,62.245699 76.59375,62.375 C 73.806331,62.504887 70.940928,63.807049 68.40625,65.53125 C 68.366229,65.515813 68.321191,65.515734 68.28125,65.5 C 67.169053,65.25288 66.470021,63.9476 66.9375,62.9375 C 69.542293,61.272274 73.208611,60.140879 76.21875,60.0625 z M 38.4375,60.46875 L 38.625,62.125 C 36.539455,62.854271 35.123372,63.934665 33.5,64.96875 C 33.602272,64.343883 33.507693,63.827759 32.90625,63.28125 C 34.993843,62.441883 36.952317,62.068188 38.4375,60.46875 z M 53.8125,61.84375 L 54.40625,62.875 C 53.303033,63.142005 52.255582,63.441255 51.3125,63.78125 C 50.546811,64.057291 49.877524,64.362806 49.25,64.6875 C 49.398626,64.065413 49.486575,63.432691 49.5625,62.78125 L 53.8125,61.84375 z M 66.0625,62.1875 L 65.5,63.84375 L 66.25,67.59375 C 65.273262,68.048073 65.240263,68.891812 65.53125,69.5625 L 65.46875,69.46875 C 63.244374,69.296137 61.773496,69.350928 60.03125,69.5 C 58.083991,69.666614 56.42954,70.029668 55.0625,70.5 L 54.78125,63.25 C 58.46565,62.423901 62.327237,62.288254 66.0625,62.1875 z M 76.625,62.6875 C 79.438747,62.600389 82.347526,63.373587 85.125,64.9375 C 82.712806,66.486755 78.61848,66.67696 76.125,66.90625 C 73.541399,66.884394 71.014736,66.510959 68.625,65.625 C 71.049142,63.742615 73.779563,62.775593 76.625,62.6875 z M 54.5,63.34375 L 54.8125,70.59375 C 52.713803,71.360609 51.313514,72.409138 50.5625,73.5625 C 49.327222,73.037061 48.323622,72.465515 47.59375,71.84375 C 47.250894,71.551677 46.999178,71.238687 46.78125,70.9375 C 46.656634,70.588393 46.595504,70.243592 46.5625,69.90625 C 47.627255,68.833357 48.413419,67.353847 48.9375,65.6875 C 49.660332,65.122578 50.514318,64.565386 51.5625,64.1875 C 52.519974,63.840808 53.508756,63.576302 54.5,63.34375 z M 90.3125,63.4375 C 92.715354,64.952043 94.106976,67.024884 94.625,69.78125 C 94.625003,71.049152 94.13498,72.285247 93.21875,73.46875 L 86.25,69.71875 C 87.201084,69.227384 86.565329,66.931917 86.21875,67.5 L 86.5,65.65625 C 89.321764,65.576851 90.185525,64.758066 90.3125,63.4375 z M 32.4375,63.53125 C 33.273485,63.969785 32.84223,64.541239 32.96875,65.15625 C 30.810488,66.724456 30.744613,66.758727 30.375,67 C 30.28152,67.061021 30.245217,67.094601 30.0625,67.21875 C 29.237635,66.607219 28.724022,65.678943 28.625,64.8125 L 32.4375,63.53125 z M 30.375,67 C 30.982963,66.333829 30.604856,64.714146 29.375,65.03125 L 29.3125,65.03125 C 29.803275,65.199965 30.44424,66.220444 30.15625,66.9375 L 30.375,67 z M 66.8125,65.25 C 67.378618,65.680205 68.10165,66.040557 69,66.34375 C 70.888099,66.980985 73.440206,67.375 76.25,67.375 C 79.470446,67.387348 82.69979,66.937683 85.53125,65.375 L 85.15625,67.71875 C 84.689004,67.80966 83.405324,68.230422 82.9375,68.3125 L 83.0625,67.4375 L 82.78125,67.40625 L 82.71875,68.3125 C 81.565408,68.497218 80.176656,68.728779 79.03125,68.84375 L 78.96875,68.21875 L 78.78125,68.21875 L 78.75,68.84375 C 77.628262,68.933774 76.037361,69.09106 74.9375,69.09375 C 74.916338,68.814671 75.03737,68.205645 75,68.03125 L 74.75,68.03125 C 74.763135,68.092548 74.667885,68.933079 74.6875,69.125 C 73.52534,69.096332 71.620834,68.869642 70.5,68.71875 L 70.375,67.65625 L 70.0625,67.625 L 70.21875,68.71875 C 69.500536,68.593368 68.038193,68.123356 67.34375,67.9375 L 66.8125,65.25 z M 86.375,67.9375 C 86.408816,68.321342 86.626455,68.792039 86.09375,69.3125 C 79.412675,72.130038 73.0416,71.363681 66.5,70.125 C 65.225426,69.570359 65.752639,68.540482 66.1875,68.1875 C 71.528033,70.794332 82.579705,69.453216 86.375,67.9375 z M 36.3125,68.46875 C 37.046216,69.937999 37.882819,70.586457 39.21875,71.4375 L 39.09375,74.53125 C 39.602763,74.741328 39.969491,74.980996 40.34375,75.1875 L 39.25,75.1875 C 37.350085,73.518983 36.083812,71.350879 36.3125,68.46875 z M 62.625,69.65625 C 63.178092,69.652509 63.753613,69.662818 64.34375,69.6875 L 64.375,76.09375 C 59.440742,75.967711 54.99774,75.20211 51.75,74.03125 C 51.369354,73.894022 51.00358,73.739557 50.65625,73.59375 L 50.71875,73.59375 C 51.817194,71.818655 55.813406,69.70232 62.625,69.65625 z M 64.59375,69.71875 C 64.942838,69.735652 65.294452,69.753754 65.65625,69.78125 C 65.997048,70.371221 66.553555,70.758121 66.84375,70.46875 L 67.6875,74.8125 C 67.43571,74.999869 67.130785,74.911717 67.53125,76 C 67.199377,76.00846 66.119739,76.125 65.78125,76.125 C 65.368772,76.125 64.968725,76.102743 64.5625,76.09375 L 64.59375,69.71875 z M 85.78125,69.84375 L 93.0625,73.65625 C 92.866306,73.895498 92.67017,74.14006 92.4375,74.375 C 87.979425,78.33997 82.229634,80.370785 76.3125,81.4375 L 75.4375,80.5 C 78.947187,80.611389 82.20933,79.718688 84.4375,78.03125 L 84.59375,77.90625 L 84.625,77.6875 L 84.8125,76.40625 C 85.619829,76.784421 85.921787,74.158945 85.0625,74.46875 L 85.78125,69.84375 z M 46.09375,70.34375 L 46.09375,74.3125 C 44.255446,74.787462 42.019953,76.157946 39.75,74.15625 L 39.71875,71.8125 C 40.415991,71.858499 41.090153,71.823445 41.75,71.6875 C 43.465088,71.847497 44.919024,71.327191 46.09375,70.34375 z M 84.6875,70.8125 L 84.09375,74.5625 C 83.764921,74.62807 83.007742,74.783738 82.6875,74.84375 L 82.96875,71.21875 C 83.383234,71.124 84.271523,70.915665 84.6875,70.8125 z M 82.59375,71.3125 L 82.34375,74.875 C 81.360026,75.04388 80.046664,75.272034 79.125,75.375 L 79.03125,71.9375 C 80.077205,71.788086 81.533148,71.535768 82.59375,71.3125 z M 95.15625,71.34375 C 95.050943,72.761198 95.105563,75.763874 95.34375,77.03125 C 95.104599,78.047737 94.746028,78.96127 94.28125,79.8125 L 93.84375,74.0625 C 94.359729,73.100947 94.88071,71.83578 95.15625,71.34375 z M 68.0625,71.40625 C 68.680235,71.590404 69.805819,71.720488 70.4375,71.84375 L 70.875,75.46875 C 70.320796,75.347736 69.224161,75.007787 68.65625,74.84375 L 68.0625,71.40625 z M 70.71875,71.875 C 71.735576,72.022222 73.4851,72.202812 74.53125,72.21875 C 74.546837,73.302617 74.549446,74.760735 74.59375,75.84375 C 73.675686,75.790094 72.049976,75.755337 71.125,75.59375 L 70.71875,71.875 z M 78.75,71.9375 L 78.84375,75.40625 C 77.791369,75.495005 75.920326,75.927112 74.90625,75.90625 C 74.88426,74.822921 74.805364,73.333287 74.78125,72.25 C 75.831853,72.228218 77.677128,72.063431 78.75,71.9375 z M 46.625,72.28125 C 46.699223,72.353409 46.764879,72.432811 46.84375,72.5 C 47.933649,73.428464 49.442833,74.232207 51.3125,74.90625 C 53.540381,75.709435 56.262811,76.324362 59.28125,76.6875 L 55.3125,81.53125 L 55.34375,81.5625 C 51.238427,80.777881 47.551427,79.603099 44.53125,78.3125 C 42.800686,77.577463 41.082424,76.679347 39.65625,75.53125 L 41.34375,75.59375 C 42.308922,75.873123 43.646213,75.794407 46.65625,74.71875 L 46.625,72.28125 z M 36.1875,73.34375 C 36.77077,74.238747 37.469021,75.000678 38.25,75.6875 L 37.90625,81.09375 C 37.158275,79.969385 36.590508,78.698003 36.3125,77.21875 C 36.443343,75.955873 36.311358,74.629859 36.1875,73.34375 z M 93.5625,74.5625 L 94.0625,80.21875 C 90.927192,85.428564 83.738383,87.530259 76.78125,88.5 L 76.53125,82.09375 C 82.638538,81.16017 88.582323,79.247271 93.15625,75.09375 C 93.278376,74.970432 93.424039,74.787016 93.5625,74.5625 z M 85,74.75 C 85.604824,74.846292 85.307883,75.676341 85,76.1875 C 78.48275,78.009735 72.732807,78.391853 67.75,76.25 L 67.53125,75.1875 C 73.459784,77.378989 78.975204,76.225035 85,74.75 z M 38.5625,75.96875 C 40.217944,77.337765 42.20324,78.350235 44.15625,79.25 C 47.247965,80.571167 51.000234,81.576569 55.15625,82.21875 L 54.96875,88.59375 C 48.406678,87.795709 41.534779,86.047986 38.1875,81.5 L 38.5625,75.96875 z M 59.53125,76.71875 C 61.505716,76.945906 63.60137,77.0625 65.78125,77.0625 C 66.223434,77.0625 67.316874,77.010775 67.75,77 C 67.972609,77.356693 67.881458,77.148945 68.28125,77.28125 L 68.5,78.71875 L 68.5625,79 L 68.8125,79.09375 C 70.806103,79.892548 72.853973,80.342417 74.84375,80.46875 L 76.125,81.46875 C 72.48284,82.112122 68.781488,82.409904 65.28125,82.53125 C 61.892277,82.53125 58.667187,82.182107 55.65625,81.625 L 59.53125,76.71875 z M 83.6875,77.0625 L 83.78125,77.46875 C 80.589043,79.789872 74.678497,80.50414 69.375,78.46875 L 69.28125,77.40625 C 70.970571,77.822403 73.106271,78.222523 74.71875,78.25 C 74.723856,78.337955 74.6875,78.875 74.6875,78.875 L 75,78.96875 C 75,78.96875 74.969608,78.215495 74.96875,78.1875 C 77.680532,78.122005 80.662008,77.887944 83.6875,77.0625 z M 76.3125,82.125 L 76.34375,88.59375 C 72.389092,89.118432 68.533102,89.281763 65.5625,89.4375 C 62.779701,89.208477 59.081931,89.076849 55.25,88.625 L 55.5625,82.28125 C 58.643191,82.735657 61.932722,83 65.375,83 C 68.9086,82.870864 72.634772,82.67291 76.3125,82.125 z M 92.09375,83.40625 L 91.84375,92.34375 C 89.501639,93.451421 87.156588,94.38221 84.8125,95.15625 L 83.90625,87.65625 C 86.781296,86.619616 89.543772,85.242858 92.09375,83.40625 z M 41.71875,85.46875 C 43.801857,86.553488 45.975251,87.368761 48.1875,88.03125 L 47.90625,94.78125 C 45.905348,94.115474 43.908169,93.386499 41.9375,92.53125 L 41.71875,85.46875 z M 83.59375,87.78125 L 84.5,95.25 C 78.750361,97.113407 73.005879,97.983009 67.3125,98 L 67.3125,90.375 C 72.868175,90.245161 78.428261,89.591538 83.59375,87.78125 z M 48.5,88.125 C 54.010591,89.728953 59.820426,90.241695 65.5625,90.4375 C 66.042273,90.436003 66.519716,90.415657 67,90.40625 L 66.9375,98.03125 C 60.611522,98.008013 54.349496,96.882727 48.21875,94.875 L 48.5,88.125 z M 91.84375,92.59375 L 91.53125,103.9375 C 86.706709,105.97294 81.866152,107.59275 77.03125,108.59375 L 76.5,97.5625 C 81.567653,96.663955 86.685742,95.027701 91.84375,92.59375 z M 41.9375,92.875 C 46.255603,94.752504 50.613259,96.190171 55,97.125 L 54.9375,108.1875 C 50.675683,107.00945 46.446325,105.12963 42.25,102.375 L 41.9375,92.875 z M 55.375,97.1875 C 62.232471,98.604017 69.159351,98.829854 76.1875,97.625 L 76.71875,108.65625 C 69.537623,110.10362 62.349527,110.18378 55.25,108.28125 L 55.375,97.1875 z M 42.25,102.5625 C 44.055223,103.74917 45.855658,104.77242 47.65625,105.65625 L 47.625,113.53125 C 45.940101,112.5851 44.232196,111.5062 42.5,110.21875 L 42.25,102.5625 z M 91.53125,104.15625 L 91.34375,110.65625 C 89.751163,111.5375 87.967058,112.48268 86.03125,113.40625 L 85.53125,106.4375 C 87.521261,105.74626 89.529046,105.00169 91.53125,104.15625 z M 48.03125,105.84375 C 54.080164,108.74465 60.11284,110.00051 66.15625,110.03125 L 66.21875,118.3125 C 60.329067,118.41644 54.289596,117.21569 47.9375,113.71875 L 48.03125,105.84375 z M 85.28125,106.53125 L 85.78125,113.53125 C 81.687073,115.46306 76.806453,117.25492 70.84375,118 C 69.433474,118.17622 68.018847,118.27405 66.59375,118.3125 L 66.53125,110.03125 C 72.754099,110.0104 78.987563,108.69539 85.28125,106.53125 z"
       id="path2308" />
  </g>
</svg>
