<?xml version="1.0" encoding="UTF-8" standalone="no"?>
<!-- Created with Inkscape (http://www.inkscape.org/) -->
<svg
   xmlns:dc="http://purl.org/dc/elements/1.1/"
   xmlns:cc="http://creativecommons.org/ns#"
   xmlns:rdf="http://www.w3.org/1999/02/22-rdf-syntax-ns#"
   xmlns:svg="http://www.w3.org/2000/svg"
   xmlns="http://www.w3.org/2000/svg"
   xmlns:xlink="http://www.w3.org/1999/xlink"
   xmlns:sodipodi="http://sodipodi.sourceforge.net/DTD/sodipodi-0.dtd"
   xmlns:inkscape="http://www.inkscape.org/namespaces/inkscape"
   width="128"
   height="128"
   id="svg2"
   sodipodi:version="0.32"
   inkscape:version="0.45+devel"
   version="1.0"
   sodipodi:docname="cathedral.svg"
   inkscape:output_extension="org.inkscape.output.svg.inkscape">
  <defs
     id="defs4">
    <linearGradient
       id="linearGradient3608">
      <stop
         style="stop-color:#010051;stop-opacity:1;"
         offset="0"
         id="stop3610" />
      <stop
         style="stop-color:#020090;stop-opacity:1;"
         offset="1"
         id="stop3612" />
    </linearGradient>
    <linearGradient
       id="linearGradient3392">
      <stop
         style="stop-color:#4a585b;stop-opacity:1;"
         offset="0"
         id="stop3394" />
      <stop
         style="stop-color:#5e7074;stop-opacity:1;"
         offset="1"
         id="stop3396" />
    </linearGradient>
    <linearGradient
       id="linearGradient2338">
      <stop
         style="stop-color:#b1b1b1;stop-opacity:1;"
         offset="0"
         id="stop2340" />
      <stop
         style="stop-color:#e4e4e4;stop-opacity:1;"
         offset="1"
         id="stop2342" />
    </linearGradient>
    <linearGradient
       id="linearGradient2320">
      <stop
         style="stop-color:#6a3c1d;stop-opacity:1;"
         offset="0"
         id="stop2322" />
      <stop
         style="stop-color:#8f5127;stop-opacity:1;"
         offset="1"
         id="stop2324" />
    </linearGradient>
    <linearGradient
       inkscape:collect="always"
       xlink:href="#linearGradient2338"
       id="linearGradient2524"
       x1="11.070271"
       y1="63.74054"
       x2="26.118919"
       y2="102.91891"
       gradientUnits="userSpaceOnUse"
       gradientTransform="translate(3.6324324,0.172973)" />
    <linearGradient
       id="linearGradient3454">
      <stop
         id="stop3456"
         offset="0"
         style="stop-color:#004300;stop-opacity:1;" />
      <stop
         id="stop3458"
         offset="1"
         style="stop-color:#006200;stop-opacity:1;" />
    </linearGradient>
    <linearGradient
       id="linearGradient3462">
      <stop
         id="stop3464"
         offset="0"
         style="stop-color:#4f0000;stop-opacity:1;" />
      <stop
         id="stop3466"
         offset="1"
         style="stop-color:#610000;stop-opacity:1;" />
    </linearGradient>
    <linearGradient
       inkscape:collect="always"
       xlink:href="#linearGradient3462"
       id="linearGradient3820"
       gradientUnits="userSpaceOnUse"
       x1="86"
       y1="76.6875"
       x2="88.5"
       y2="75.71875"
       gradientTransform="translate(3.6324324,0.172973)" />
    <linearGradient
       inkscape:collect="always"
       xlink:href="#linearGradient3454"
       id="linearGradient3822"
       gradientUnits="userSpaceOnUse"
       x1="89.8125"
       y1="75.6875"
       x2="91.625"
       y2="74.125"
       gradientTransform="translate(3.6324324,0.172973)" />
    <linearGradient
       inkscape:collect="always"
       xlink:href="#linearGradient3462"
       id="linearGradient3824"
       gradientUnits="userSpaceOnUse"
       x1="90.5625"
       y1="72.375"
       x2="92.25"
       y2="71.1875"
       gradientTransform="translate(3.6324324,0.172973)" />
    <linearGradient
       inkscape:collect="always"
       xlink:href="#linearGradient3454"
       id="linearGradient3826"
       gradientUnits="userSpaceOnUse"
       x1="89.875"
       y1="68.875"
       x2="90.71875"
       y2="67.9375"
       gradientTransform="translate(3.6324324,0.172973)" />
    <linearGradient
       inkscape:collect="always"
       xlink:href="#linearGradient3462"
       id="linearGradient3828"
       gradientUnits="userSpaceOnUse"
       x1="86.0625"
       y1="68.5625"
       x2="87.5"
       y2="67.1875"
       gradientTransform="translate(3.6324324,0.172973)" />
    <linearGradient
       inkscape:collect="always"
       xlink:href="#linearGradient3608"
       id="linearGradient3830"
       gradientUnits="userSpaceOnUse"
       x1="87.5625"
       y1="72.125"
       x2="90.3125"
       y2="69.6875"
       gradientTransform="translate(3.6324324,0.172973)" />
    <linearGradient
       inkscape:collect="always"
       xlink:href="#linearGradient3454"
       id="linearGradient3832"
       gradientUnits="userSpaceOnUse"
       x1="84.625"
       y1="71.9375"
       x2="86.8125"
       y2="70"
       gradientTransform="translate(3.6324324,0.172973)" />
    <linearGradient
       inkscape:collect="always"
       xlink:href="#linearGradient3462"
       id="linearGradient3834"
       gradientUnits="userSpaceOnUse"
       x1="116.41554"
       y1="71.504227"
       x2="122.57871"
       y2="58.835472"
       gradientTransform="translate(3.6324324,0.172973)" />
    <linearGradient
       inkscape:collect="always"
       xlink:href="#linearGradient3462"
       id="linearGradient3836"
       gradientUnits="userSpaceOnUse"
       x1="90.735641"
       y1="56.096283"
       x2="95.87162"
       y2="47.25"
       gradientTransform="translate(3.6324324,0.172973)" />
    <linearGradient
       inkscape:collect="always"
       xlink:href="#linearGradient3462"
       id="linearGradient3838"
       gradientUnits="userSpaceOnUse"
       x1="60.604561"
       y1="91.020943"
       x2="64.4375"
       y2="83.488174"
       gradientTransform="translate(3.6324324,0.172973)" />
    <linearGradient
       inkscape:collect="always"
       xlink:href="#linearGradient3462"
       id="linearGradient3840"
       gradientUnits="userSpaceOnUse"
       x1="44.375"
       y1="82.577362"
       x2="50.6875"
       y2="91.308533"
       gradientTransform="translate(3.6324324,0.172973)" />
    <linearGradient
       inkscape:collect="always"
       xlink:href="#linearGradient3608"
       id="linearGradient3842"
       gradientUnits="userSpaceOnUse"
       x1="17.75"
       y1="68.25"
       x2="18.75"
       y2="71.0625"
       gradientTransform="translate(3.6324324,0.172973)" />
    <linearGradient
       inkscape:collect="always"
       xlink:href="#linearGradient3454"
       id="linearGradient3844"
       gradientUnits="userSpaceOnUse"
       x1="15"
       y1="68.875"
       x2="16.0625"
       y2="70.75"
       gradientTransform="translate(3.6324324,0.172973)" />
    <linearGradient
       inkscape:collect="always"
       xlink:href="#linearGradient3462"
       id="linearGradient3846"
       gradientUnits="userSpaceOnUse"
       x1="16.8125"
       y1="71.875"
       x2="17.9375"
       y2="74.0625"
       gradientTransform="translate(3.6324324,0.172973)" />
    <linearGradient
       inkscape:collect="always"
       xlink:href="#linearGradient3454"
       id="linearGradient3848"
       gradientUnits="userSpaceOnUse"
       x1="19.375"
       y1="73"
       x2="20.5625"
       y2="74.5"
       gradientTransform="translate(3.6324324,0.172973)" />
    <linearGradient
       inkscape:collect="always"
       xlink:href="#linearGradient3462"
       id="linearGradient3850"
       gradientUnits="userSpaceOnUse"
       x1="19.8125"
       y1="69.1875"
       x2="21.4375"
       y2="71.5"
       gradientTransform="translate(3.6324324,0.172973)" />
    <linearGradient
       inkscape:collect="always"
       xlink:href="#linearGradient3454"
       id="linearGradient3852"
       gradientUnits="userSpaceOnUse"
       x1="17.6875"
       y1="65.4375"
       x2="21.3125"
       y2="67.125"
       gradientTransform="translate(3.6324324,0.172973)" />
    <linearGradient
       inkscape:collect="always"
       xlink:href="#linearGradient3462"
       id="linearGradient3854"
       gradientUnits="userSpaceOnUse"
       x1="14.5"
       y1="65.3125"
       x2="16.375"
       y2="66.0625"
       gradientTransform="translate(3.6324324,0.172973)" />
    <linearGradient
       inkscape:collect="always"
       xlink:href="#linearGradient3462"
       id="linearGradient3856"
       gradientUnits="userSpaceOnUse"
       x1="36"
       y1="88.341133"
       x2="41.25"
       y2="78.925171"
       gradientTransform="translate(3.6324324,0.172973)" />
    <linearGradient
       inkscape:collect="always"
       xlink:href="#linearGradient2320"
       id="linearGradient3858"
       gradientUnits="userSpaceOnUse"
       x1="85.4375"
       y1="107.3125"
       x2="94.5"
       y2="91.6875"
       gradientTransform="translate(3.6324324,0.172973)" />
    <linearGradient
       inkscape:collect="always"
       xlink:href="#linearGradient2320"
       id="linearGradient3860"
       gradientUnits="userSpaceOnUse"
       x1="94"
       y1="89.125"
       x2="82.75"
       y2="109.75"
       gradientTransform="translate(3.6324324,0.172973)" />
    <linearGradient
       inkscape:collect="always"
       xlink:href="#linearGradient2320"
       id="linearGradient3862"
       gradientUnits="userSpaceOnUse"
       x1="13"
       y1="84"
       x2="20.4375"
       y2="99.125"
       gradientTransform="translate(3.6324324,0.172973)" />
    <linearGradient
       inkscape:collect="always"
       xlink:href="#linearGradient2320"
       id="linearGradient3864"
       gradientUnits="userSpaceOnUse"
       x1="20"
       y1="96.8125"
       x2="14.0625"
       y2="81.5625"
       gradientTransform="translate(3.6324324,0.172973)" />
    <linearGradient
       inkscape:collect="always"
       xlink:href="#linearGradient3392"
       id="linearGradient3866"
       gradientUnits="userSpaceOnUse"
       x1="111.875"
       y1="47.8125"
       x2="118.75"
       y2="39.4375"
       gradientTransform="translate(3.6324324,0.172973)" />
    <linearGradient
       inkscape:collect="always"
       xlink:href="#linearGradient3392"
       id="linearGradient3868"
       gradientUnits="userSpaceOnUse"
       x1="103.9375"
       y1="31.1875"
       x2="108.4375"
       y2="44.375"
       gradientTransform="translate(3.6324324,0.172973)" />
    <linearGradient
       inkscape:collect="always"
       xlink:href="#linearGradient3392"
       id="linearGradient3870"
       gradientUnits="userSpaceOnUse"
       x1="70.8125"
       y1="44.625"
       x2="80.5"
       y2="27.9375"
       gradientTransform="translate(3.6324324,0.172973)" />
    <linearGradient
       inkscape:collect="always"
       xlink:href="#linearGradient3392"
       id="linearGradient3872"
       gradientUnits="userSpaceOnUse"
       x1="64.3125"
       y1="27.4375"
       x2="72.6875"
       y2="20.875"
       gradientTransform="translate(3.6324324,0.172973)" />
    <linearGradient
       inkscape:collect="always"
       xlink:href="#linearGradient3392"
       id="linearGradient3874"
       gradientUnits="userSpaceOnUse"
       x1="53.375"
       y1="33.875"
       x2="60"
       y2="23.8125"
       gradientTransform="translate(3.6324324,0.172973)" />
    <linearGradient
       inkscape:collect="always"
       xlink:href="#linearGradient3392"
       id="linearGradient3876"
       gradientUnits="userSpaceOnUse"
       x1="67.375"
       y1="57.125"
       x2="71.4375"
       y2="70.375"
       gradientTransform="translate(3.6324324,0.172973)" />
    <linearGradient
       inkscape:collect="always"
       xlink:href="#linearGradient3392"
       id="linearGradient3878"
       gradientUnits="userSpaceOnUse"
       x1="56.0625"
       y1="65.5"
       x2="63.8125"
       y2="58.9375"
       gradientTransform="translate(3.6324324,0.172973)" />
    <linearGradient
       inkscape:collect="always"
       xlink:href="#linearGradient3392"
       id="linearGradient3880"
       gradientUnits="userSpaceOnUse"
       x1="49.625"
       y1="50.1875"
       x2="56.3125"
       y2="59.25"
       gradientTransform="translate(3.6324324,0.172973)" />
    <linearGradient
       inkscape:collect="always"
       xlink:href="#linearGradient3392"
       id="linearGradient3882"
       gradientUnits="userSpaceOnUse"
       x1="35.0625"
       y1="62.5625"
       x2="43.125"
       y2="50"
       gradientTransform="translate(3.6324324,0.172973)" />
    <linearGradient
       inkscape:collect="always"
       xlink:href="#linearGradient3392"
       id="linearGradient3884"
       gradientUnits="userSpaceOnUse"
       x1="42.6875"
       y1="24.46875"
       x2="48.5625"
       y2="34.53125"
       gradientTransform="translate(3.6324324,0.172973)" />
    <linearGradient
       inkscape:collect="always"
       xlink:href="#linearGradient3392"
       id="linearGradient3886"
       gradientUnits="userSpaceOnUse"
       x1="21"
       y1="53.15625"
       x2="30.1875"
       y2="41.71875"
       gradientTransform="translate(3.6324324,0.172973)" />
    <linearGradient
       inkscape:collect="always"
       xlink:href="#linearGradient3392"
       id="linearGradient3888"
       gradientUnits="userSpaceOnUse"
       x1="31.625"
       y1="32.90625"
       x2="38.5"
       y2="41.90625"
       gradientTransform="translate(3.6324324,0.172973)" />
    <linearGradient
       inkscape:collect="always"
       xlink:href="#linearGradient2338"
       id="linearGradient3890"
       gradientUnits="userSpaceOnUse"
       x1="53.535137"
       y1="49.470272"
       x2="66.508108"
       y2="39.437838"
       gradientTransform="translate(3.6324324,0.172973)" />
    <linearGradient
       inkscape:collect="always"
       xlink:href="#linearGradient2338"
       id="linearGradient3892"
       gradientUnits="userSpaceOnUse"
       x1="39.956757"
       y1="40.302702"
       x2="47.481079"
       y2="53.275677"
       gradientTransform="translate(3.6324324,0.172973)" />
    <linearGradient
       inkscape:collect="always"
       xlink:href="#linearGradient2338"
       id="linearGradient3894"
       gradientUnits="userSpaceOnUse"
       x1="77.059464"
       y1="72.821625"
       x2="96.951351"
       y2="51.632433"
       gradientTransform="translate(3.6324324,0.172973)" />
    <linearGradient
       inkscape:collect="always"
       xlink:href="#linearGradient2338"
       id="linearGradient3896"
       gradientUnits="userSpaceOnUse"
       x1="100.06487"
       y1="51.372974"
       x2="107.41622"
       y2="67.545944"
       gradientTransform="translate(3.6324324,0.172973)" />
    <linearGradient
       inkscape:collect="always"
       xlink:href="#linearGradient2338"
       id="linearGradient3898"
       gradientUnits="userSpaceOnUse"
       x1="106.11892"
       y1="91.675674"
       x2="129.55676"
       y2="77.059456"
       gradientTransform="translate(3.6324324,0.172973)" />
    <linearGradient
       inkscape:collect="always"
       xlink:href="#linearGradient2338"
       id="linearGradient3900"
       gradientUnits="userSpaceOnUse"
       x1="74.205406"
       y1="113.72974"
       x2="114.94054"
       y2="72.648651"
       gradientTransform="translate(3.6324324,0.172973)" />
    <linearGradient
       inkscape:collect="always"
       xlink:href="#linearGradient2338"
       id="linearGradient3902"
       gradientUnits="userSpaceOnUse"
       x1="55.437836"
       y1="119.65406"
       x2="73.081078"
       y2="88.951355"
       gradientTransform="translate(3.6324324,0.172973)" />
    <linearGradient
       inkscape:collect="always"
       xlink:href="#linearGradient2338"
       id="linearGradient3904"
       gradientUnits="userSpaceOnUse"
       x1="44.886486"
       y1="88.864868"
       x2="59.329731"
       y2="113.08109"
       gradientTransform="translate(3.6324324,0.172973)" />
    <linearGradient
       inkscape:collect="always"
       xlink:href="#linearGradient2338"
       id="linearGradient3906"
       gradientUnits="userSpaceOnUse"
       x1="31.567568"
       y1="107.28648"
       x2="42.205405"
       y2="90.421619"
       gradientTransform="translate(3.6324324,0.172973)" />
    <linearGradient
       inkscape:collect="always"
       xlink:href="#linearGradient2338"
       id="linearGradient3908"
       gradientUnits="userSpaceOnUse"
       x1="9.1675676"
       y1="50.594594"
       x2="13.708108"
       y2="57.945946"
       gradientTransform="translate(3.6324324,0.172973)" />
    <filter
       inkscape:collect="always"
       id="filter3918">
      <feGaussianBlur
         inkscape:collect="always"
         stdDeviation="1.8817867"
         id="feGaussianBlur3920" />
    </filter>
  </defs>
  <sodipodi:namedview
     id="base"
     pagecolor="#ffffff"
     bordercolor="#666666"
     borderopacity="1.0"
     gridtolerance="10000"
     guidetolerance="10"
     objecttolerance="10"
     inkscape:pageopacity="0.0"
     inkscape:pageshadow="2"
     inkscape:zoom="1"
     inkscape:cx="64"
     inkscape:cy="64"
     inkscape:document-units="px"
     inkscape:current-layer="layer1"
     showgrid="false"
     width="744.09px"
     inkscape:window-width="1248"
     inkscape:window-height="975"
     inkscape:window-x="426"
     inkscape:window-y="24"
     showguides="true"
     inkscape:guide-bbox="true" />
  <metadata
     id="metadata7">
    <rdf:RDF>
      <cc:Work
         rdf:about="">
        <dc:format>image/svg+xml</dc:format>
        <dc:type
           rdf:resource="http://purl.org/dc/dcmitype/StillImage" />
      </cc:Work>
    </rdf:RDF>
  </metadata>
  <g
     inkscape:groupmode="layer"
     id="layer2"
     inkscape:label="colors">
    <path
       style="fill:#000000;fill-opacity:0.66666667;fill-rule:evenodd;stroke:none;stroke-width:1px;stroke-linecap:butt;stroke-linejoin:miter;stroke-opacity:1;filter:url(#filter3918)"
       d="M 39.976183,53.547973 C 39.449359,54.755918 38.223235,56.438429 37.431403,57.853793 C 35.728656,60.788927 34.202651,63.761815 32.569972,66.711914 C 27.868938,65.337049 23.167904,63.962184 18.466869,62.587319 C 13.5759,66.632899 8.6849304,70.678481 3.7939606,74.724062 C 11.276758,77.420621 8.1216754,75.312118 3.7679338,75.052755 C 4.4849617,76.73368 4.3890232,78.50474 5.6197947,80.128705 C 3.6940064,80.671824 2.8465461,80.698718 3.5628763,81.952359 C 5.2617023,87.528736 6.9605266,93.105103 8.6593544,98.681493 C 16.151849,101.06677 20.6478,104.89558 31.220494,107.75901 C 32.382192,108.07363 40.185918,99.90093 44.623995,100.18905 C 48.064929,100.41243 48.378775,109.10256 49.01618,109.30661 C 50.016669,109.51099 40.192872,118.69171 41.609659,118.37068 C 43.540644,117.7131 53.082438,126.05012 55.013426,125.39255 C 55.828533,127.96845 60.967966,117.22542 61.783076,119.80133 C 66.242551,121.20253 57.210136,114.47401 61.669611,115.87521 C 57.607479,103.62256 57.665557,103.7962 61.757433,115.95422 C 65.980484,114.97005 70.52969,114.1702 74.550125,113.07152 C 74.944644,112.20894 77.695457,112.24173 79.12179,111.75879 C 81.889787,111.18715 84.657786,110.61552 87.425782,110.04388 C 88.821392,110.09873 91.077204,109.31231 92.804358,109.04291 C 99.863613,107.54733 106.66027,106.03252 113.83475,104.59183 C 114.47391,105.31595 114.93529,98.414838 116.37421,98.331788 C 119.13335,97.698988 116.35736,92.222945 119.1165,91.590145 C 116.25337,82.461255 121.17401,83.710731 118.31088,74.581834 C 116.90556,73.832117 115.75579,72.452185 114.44849,71.460744 C 109.47006,67.186015 102.76191,64.813988 97.783493,60.539258 C 98.106233,61.873741 99.053205,66.934647 98.490725,64.972806 C 98.095485,64.665568 96.789343,62.757541 96.307343,63.39223 C 94.350942,67.339031 93.757574,69.346306 92.029264,73.316011 C 93.209219,77.061861 94.389172,80.80771 95.569126,84.553559 C 88.025181,81.756962 94.893448,85.700124 93.536146,82.184757 C 92.500645,78.733872 91.465145,75.282988 90.429644,71.832104 C 78.732355,75.254078 79.065941,75.178341 90.341821,71.753088 C 84.853766,68.149992 79.365709,64.546897 73.877653,60.943801 C 71.674104,61.313158 45.502242,69.021751 59.341146,64.926247 C 64.127526,63.609301 68.913904,62.292354 73.700283,60.975407 C 72.847692,60.55783 70.179999,61.627327 68.625707,61.784638 C 63.426925,62.762121 58.64854,64.097025 53.795734,65.368655 C 49.166577,61.436654 44.764436,57.429827 39.976183,53.547973 z M 42.836583,63.740941 C 45.589006,73.358008 45.508722,73.324693 42.836583,63.740941 z M 32.257362,67.296628 C 32.031552,67.794956 31.733778,67.799918 32.257362,67.296628 z"
       id="path3684"
       sodipodi:nodetypes="cccccccccssccccccccccccccccccccccccccccccccc" />
    <path
       style="fill:url(#linearGradient2524);fill-rule:evenodd;stroke:none;stroke-width:1px;stroke-linecap:butt;stroke-linejoin:miter;stroke-opacity:1"
       d="M 10.205405,92.8 L 10.464865,57.686486 L 21.18919,53.535135 L 34.594595,75.762162 L 34.421622,109.75135 L 10.205405,92.8 z"
       id="path2522" />
    <path
       style="fill:url(#linearGradient3908);fill-rule:evenodd;stroke:none;stroke-width:1px;stroke-linecap:butt;stroke-linejoin:miter;stroke-opacity:1"
       d="M 12.8,55.437838 L 12.886487,45.405405 L 21.881082,51.459459 L 13.145946,56.12973 L 12.8,55.437838 z"
       id="path2526" />
    <path
       style="fill:url(#linearGradient3906);fill-rule:evenodd;stroke:none;stroke-width:1px;stroke-linecap:butt;stroke-linejoin:miter;stroke-opacity:1"
       d="M 34.335136,110.09729 L 34.940541,75.935135 L 45.837838,71.091892 L 45.751352,103.17838 L 34.335136,110.09729 z"
       id="path2530" />
    <path
       style="fill:url(#linearGradient3904);fill-rule:evenodd;stroke:none;stroke-width:1px;stroke-linecap:butt;stroke-linejoin:miter;stroke-opacity:1"
       d="M 45.664865,118.48648 L 45.751352,63.567568 L 57.427028,74.637838 L 57.686487,126.78919 L 45.664865,118.48648 z"
       id="path2536" />
    <path
       style="fill:url(#linearGradient3902);fill-rule:evenodd;stroke:none;stroke-width:1px;stroke-linecap:butt;stroke-linejoin:miter;stroke-opacity:1"
       d="M 57.772974,126.96216 L 57.340541,73.945946 L 71.524325,67.545946 L 71.697298,120.99459 L 71.264865,121.51351 L 57.772974,126.96216 z"
       id="path2542" />
    <path
       style="fill:url(#linearGradient3900);fill-rule:evenodd;stroke:none;stroke-width:1px;stroke-linecap:butt;stroke-linejoin:miter;stroke-opacity:1"
       d="M 71.524325,120.56216 L 71.697298,81.037838 L 90.724325,57.254054 L 113.21081,72.908108 L 113.47027,104.47567 L 71.524325,120.56216 z"
       id="path2546" />
    <path
       style="fill:url(#linearGradient3898);fill-opacity:1;fill-rule:evenodd;stroke:none;stroke-width:1px;stroke-linecap:butt;stroke-linejoin:miter;stroke-opacity:1"
       d="M 113.47027,105.16756 L 112.95135,52.497297 L 127.56757,45.145946 L 127.39459,99.286486 L 113.47027,105.16756 z"
       id="path2550" />
    <path
       style="fill:url(#linearGradient3896);fill-rule:evenodd;stroke:none;stroke-width:1px;stroke-linecap:butt;stroke-linejoin:miter;stroke-opacity:1"
       d="M 112.77838,72.389189 L 101.62162,64.864865 L 101.70811,42.291892 L 113.03784,52.497297 L 112.77838,72.389189 z"
       id="path2554" />
    <path
       style="fill:url(#linearGradient3894);fill-rule:evenodd;stroke:none;stroke-width:1px;stroke-linecap:butt;stroke-linejoin:miter;stroke-opacity:1"
       d="M 100.32432,63.913514 L 100.58378,39.697297 L 80.000001,50.594595 L 98.767568,62.789189 L 100.32432,63.913514 z"
       id="path2558" />
    <path
       style="fill:url(#linearGradient3892);fill-rule:evenodd;stroke:none;stroke-width:1px;stroke-linecap:butt;stroke-linejoin:miter;stroke-opacity:1"
       d="M 47.221622,40.648649 L 43.762163,41.340541 L 43.58919,32.518919 L 55.437838,41.945946 L 52.670271,48.432432 L 47.221622,40.648649 z"
       id="path2562" />
    <path
       style="fill:url(#linearGradient3890);fill-rule:evenodd;stroke:none;stroke-width:1px;stroke-linecap:butt;stroke-linejoin:miter;stroke-opacity:1"
       d="M 60.021622,39.524324 L 69.535136,34.681081 L 70.140541,44.540541 L 64.605406,41.081081 L 61.924325,44.108108 L 60.021622,39.524324 z"
       id="path2568" />
    <path
       style="fill:url(#linearGradient3888);fill-rule:evenodd;stroke:none;stroke-width:1px;stroke-linecap:butt;stroke-linejoin:miter;stroke-opacity:1"
       d="M 13.007433,45.422973 L 31.569933,21.422973 L 44.507433,29.672973 L 43.444933,31.360473 L 44.007433,41.422973 L 35.694933,44.047973 L 21.882433,51.485473 L 13.007433,45.422973 z"
       id="path2572" />
    <path
       style="fill:url(#linearGradient3886);fill-rule:evenodd;stroke:none;stroke-width:1px;stroke-linecap:butt;stroke-linejoin:miter;stroke-opacity:1"
       d="M 10.632432,57.422973 L 22.007433,51.360473 L 35.882433,44.110473 C 35.882433,44.110473 44.069933,41.235473 44.319933,41.235473 C 44.569933,41.235473 47.319933,40.610473 47.319933,40.610473 L 21.132433,53.547973 L 11.382433,57.547973 L 10.632432,57.422973 z"
       id="path2576" />
    <path
       style="fill:url(#linearGradient3884);fill-rule:evenodd;stroke:none;stroke-width:1px;stroke-linecap:butt;stroke-linejoin:miter;stroke-opacity:1"
       d="M 43.444933,31.672973 L 51.382433,13.485473 L 55.819933,4.0479727 L 55.944933,4.3604727 L 55.194933,42.110473 L 43.444933,31.672973 z"
       id="path2580" />
    <path
       style="fill:url(#linearGradient3882);fill-opacity:1;fill-rule:evenodd;stroke:none;stroke-width:1px;stroke-linecap:butt;stroke-linejoin:miter;stroke-opacity:1"
       d="M 20.944933,53.547973 L 47.257433,40.735473 L 52.694933,48.360473 L 45.944933,63.922973 L 45.819933,71.297973 L 34.632433,76.047973 L 20.944933,53.547973 z"
       id="path2584" />
    <path
       style="fill:url(#linearGradient3880);fill-opacity:1;fill-rule:evenodd;stroke:none;stroke-width:1px;stroke-linecap:butt;stroke-linejoin:miter;stroke-opacity:1"
       d="M 45.944933,63.735473 L 58.007433,35.860473 L 58.132433,36.610473 L 57.257433,74.610473 L 45.944933,63.735473 z"
       id="path2588" />
    <path
       style="fill:url(#linearGradient3878);fill-opacity:1;fill-rule:evenodd;stroke:none;stroke-width:1px;stroke-linecap:butt;stroke-linejoin:miter;stroke-opacity:1"
       d="M 57.382433,74.172973 L 71.632433,67.485473 L 58.319933,36.047973 L 58.132433,36.547973 L 57.382433,74.172973 z"
       id="path2592" />
    <path
       style="fill:url(#linearGradient3876);fill-opacity:1;fill-rule:evenodd;stroke:none;stroke-width:1px;stroke-linecap:butt;stroke-linejoin:miter;stroke-opacity:1"
       d="M 61.882433,44.297973 L 64.507433,40.922973 L 90.569933,57.360473 L 71.757433,81.172973 L 71.632433,67.297973 L 61.882433,44.297973 z"
       id="path2596" />
    <path
       style="fill:url(#linearGradient3874);fill-opacity:1;fill-rule:evenodd;stroke:none;stroke-width:1px;stroke-linecap:butt;stroke-linejoin:miter;stroke-opacity:1"
       d="M 55.257433,41.922973 L 55.882433,3.9229727 C 55.882433,3.9229727 55.882433,3.0479727 56.257433,3.9229727 C 56.632433,4.7979727 69.444933,35.110473 69.444933,35.110473 L 59.882433,39.547973 L 58.194933,35.797973 C 58.194933,35.797973 58.132433,35.047973 57.944933,35.735473 C 57.757433,36.422973 55.319933,41.922973 55.257433,41.922973 z"
       id="path2600" />
    <path
       style="fill:url(#linearGradient3872);fill-rule:evenodd;stroke:none;stroke-width:1px;stroke-linecap:butt;stroke-linejoin:miter;stroke-opacity:1"
       d="M 65.882433,26.985473 L 75.819933,22.235473 L 87.382433,17.735473 L 87.319933,18.235473 L 66.819933,28.485473 L 65.944933,27.485473 L 65.882433,26.985473 z"
       id="path2604" />
    <path
       style="fill:url(#linearGradient3870);fill-opacity:1;fill-rule:evenodd;stroke:none;stroke-width:1px;stroke-linecap:butt;stroke-linejoin:miter;stroke-opacity:1"
       d="M 66.632433,28.610473 L 87.507433,18.172973 L 100.50743,39.547973 L 80.069933,50.735473 L 70.132433,44.422973 L 69.382433,34.422973 L 66.632433,28.610473 z"
       id="path2608" />
    <path
       style="fill:url(#linearGradient3868);fill-opacity:1;fill-rule:evenodd;stroke:none;stroke-width:1px;stroke-linecap:butt;stroke-linejoin:miter;stroke-opacity:1"
       d="M 101.69493,42.297973 L 113.75743,13.922973 L 113.63243,30.110473 L 113.13243,52.672973 L 101.69493,42.297973 z"
       id="path2612" />
    <path
       style="fill:url(#linearGradient3866);fill-opacity:1;fill-rule:evenodd;stroke:none;stroke-width:1px;stroke-linecap:butt;stroke-linejoin:miter;stroke-opacity:1"
       d="M 113.31993,52.297973 L 113.63243,19.797973 L 113.88243,13.610473 L 127.50743,45.485473 L 113.31993,52.297973 z"
       id="path2616" />
    <path
       style="fill:url(#linearGradient3864);fill-opacity:1;fill-rule:evenodd;stroke:none;stroke-width:1px;stroke-linecap:butt;stroke-linejoin:miter;stroke-opacity:1"
       d="M 14.069933,95.297973 L 14.632433,81.985473 L 20.882433,76.672973 L 26.132433,89.360473 L 25.819933,103.73547 L 14.069933,95.297973 z"
       id="path2620" />
    <path
       style="fill:url(#linearGradient3862);fill-opacity:1;fill-rule:evenodd;stroke:none;stroke-width:1px;stroke-linecap:butt;stroke-linejoin:miter;stroke-opacity:1"
       d="M 15.444933,96.485473 L 15.882433,82.610473 L 20.444933,78.297973 L 24.819933,89.860473 L 24.632433,102.79797 L 15.444933,96.485473 z"
       id="path2625" />
    <path
       style="fill:url(#linearGradient3860);fill-opacity:1;fill-rule:evenodd;stroke:none;stroke-width:1px;stroke-linecap:butt;stroke-linejoin:miter;stroke-opacity:1"
       d="M 85.319933,115.54797 L 85.319933,93.610473 L 92.007433,80.922973 L 100.50743,89.297973 L 100.19493,109.67297 L 85.319933,115.54797 z"
       id="path2629" />
    <path
       style="fill:url(#linearGradient3858);fill-opacity:1;fill-rule:evenodd;stroke:none;stroke-width:1px;stroke-linecap:butt;stroke-linejoin:miter;stroke-opacity:1"
       d="M 86.507433,114.86047 L 86.569933,94.360473 L 92.444933,82.860473 L 99.382433,89.547973 L 99.069933,110.17297 L 86.507433,114.86047 z"
       id="path2633" />
    <path
       style="fill:url(#linearGradient3856);fill-opacity:1;fill-rule:evenodd;stroke:none;stroke-width:1px;stroke-linecap:butt;stroke-linejoin:miter;stroke-opacity:1"
       d="M 39.632433,90.235473 L 39.819933,81.985473 L 42.194933,77.547973 L 44.882433,79.985473 L 44.882433,88.235473 L 39.632433,90.235473 z"
       id="path2639" />
    <path
       style="fill:url(#linearGradient3854);fill-opacity:1;fill-rule:evenodd;stroke:none;stroke-width:1px;stroke-linecap:butt;stroke-linejoin:miter;stroke-opacity:1"
       d="M 20.382433,68.235473 L 17.757433,67.047973 L 17.944933,65.860473 L 19.257433,63.360473 L 21.382433,62.922973 L 21.444933,66.235473 L 21.007433,66.922973 L 20.382433,68.235473 z"
       id="path3005" />
    <path
       style="fill:url(#linearGradient3852);fill-rule:evenodd;stroke:none;stroke-width:1px;stroke-linecap:butt;stroke-linejoin:miter;stroke-opacity:1"
       d="M 21.632433,66.422973 L 21.319933,62.860473 L 22.819933,63.422973 L 24.944933,66.547973 L 25.507433,68.297973 L 22.757433,68.360473 L 22.382433,67.110473 L 21.632433,66.422973 z"
       id="path3009" />
    <path
       style="fill:url(#linearGradient3850);fill-opacity:1;fill-rule:evenodd;stroke:none;stroke-width:1px;stroke-linecap:butt;stroke-linejoin:miter;stroke-opacity:1"
       d="M 22.632433,68.360473 L 25.444933,68.110473 L 25.882433,70.235473 L 26.007433,72.422973 L 25.382433,74.235473 L 22.819933,71.422973 L 22.882433,70.297973 L 22.632433,68.360473 z"
       id="path3013" />
    <path
       style="fill:url(#linearGradient3848);fill-opacity:1;fill-rule:evenodd;stroke:none;stroke-width:1px;stroke-linecap:butt;stroke-linejoin:miter;stroke-opacity:1"
       d="M 22.757433,71.547973 L 23.257433,71.735473 L 25.444933,74.360473 L 24.507433,75.547973 L 23.382433,75.985473 L 21.882433,75.985473 L 21.882433,74.422973 L 22.069933,72.360473 L 22.444933,72.235473 L 22.757433,71.547973 z"
       id="path3017" />
    <path
       style="fill:url(#linearGradient3846);fill-opacity:1;fill-rule:evenodd;stroke:none;stroke-width:1px;stroke-linecap:butt;stroke-linejoin:miter;stroke-opacity:1"
       d="M 22.194933,72.297973 L 20.694933,70.547973 L 18.944933,72.485473 L 19.632433,73.922973 L 20.569933,74.985473 L 21.632433,75.672973 L 21.757433,73.735473 L 22.194933,72.297973 z"
       id="path3021" />
    <path
       style="fill:url(#linearGradient3844);fill-opacity:1;fill-rule:evenodd;stroke:none;stroke-width:1px;stroke-linecap:butt;stroke-linejoin:miter;stroke-opacity:1"
       d="M 17.694933,67.110473 L 17.944933,70.110473 L 18.882433,72.485473 L 20.944933,70.422973 L 20.444933,69.297973 L 20.382433,68.422973 L 17.694933,67.110473 z"
       id="path3025" />
    <path
       style="fill:url(#linearGradient3842);fill-opacity:1;fill-rule:evenodd;stroke:none;stroke-width:1px;stroke-linecap:butt;stroke-linejoin:miter;stroke-opacity:1"
       d="M 20.694933,70.485473 L 20.507433,68.985473 L 20.444933,68.047973 L 21.069933,67.110473 L 21.632433,66.610473 L 22.319933,67.172973 L 22.944933,69.297973 L 22.882433,71.235473 L 22.382433,72.360473 L 21.444933,71.985473 L 20.694933,70.485473 z"
       id="path3029" />
    <path
       style="fill:url(#linearGradient3840);fill-opacity:1;fill-rule:evenodd;stroke:none;stroke-width:1px;stroke-linecap:butt;stroke-linejoin:miter;stroke-opacity:1"
       d="M 48.007433,92.547973 L 48.319933,81.360473 L 51.444933,77.672973 L 54.319933,84.360473 L 54.319933,95.360473 L 48.007433,92.547973 z"
       id="path3618" />
    <path
       style="fill:url(#linearGradient3838);fill-opacity:1;fill-rule:evenodd;stroke:none;stroke-width:1px;stroke-linecap:butt;stroke-linejoin:miter;stroke-opacity:1"
       d="M 61.819933,95.610473 L 61.944933,83.860473 L 64.694933,77.547973 L 68.069933,80.985473 L 68.007433,92.797973 L 61.819933,95.610473 z"
       id="path3620" />
    <path
       style="fill:url(#linearGradient3836);fill-opacity:1;fill-rule:evenodd;stroke:none;stroke-width:1px;stroke-linecap:butt;stroke-linejoin:miter;stroke-opacity:1"
       d="M 90.944933,57.485473 L 91.257433,51.610473 L 93.444933,47.422973 L 96.319933,50.172973 L 96.194933,58.297973 L 93.444933,59.297973 L 90.944933,57.485473 z"
       id="path3622" />
    <path
       style="fill:url(#linearGradient3834);fill-opacity:1;fill-rule:evenodd;stroke:none;stroke-width:1px;stroke-linecap:butt;stroke-linejoin:miter;stroke-opacity:1"
       d="M 117.88243,63.485473 C 117.88243,63.485473 120.50743,56.110473 120.69493,56.735473 C 120.88243,57.360473 124.00743,60.422973 124.00743,60.422973 L 124.06993,72.172973 L 117.94493,74.797973 L 117.88243,63.485473 z"
       id="path3624" />
    <path
       style="fill:url(#linearGradient3832);fill-opacity:1;fill-rule:evenodd;stroke:none;stroke-width:1px;stroke-linecap:butt;stroke-linejoin:miter;stroke-opacity:1"
       d="M 88.007433,68.297973 L 90.444933,70.235473 L 90.007433,71.610473 L 89.944933,73.422973 C 89.944933,73.422973 87.882433,75.735473 87.507433,75.297973 C 87.132433,74.860473 87.007433,73.110473 87.007433,73.110473 L 87.069933,70.797973 L 88.319933,68.360473 L 88.007433,68.297973 z"
       id="path3626" />
    <path
       style="fill:url(#linearGradient3830);fill-opacity:1;fill-rule:evenodd;stroke:none;stroke-width:1px;stroke-linecap:butt;stroke-linejoin:miter;stroke-opacity:1"
       d="M 89.757433,72.360473 L 90.382433,70.110473 L 91.507433,69.422973 L 92.569933,69.422973 L 93.382433,70.235473 C 93.382433,70.235473 93.632433,71.547973 93.569933,71.797973 C 93.507433,72.047973 92.944933,73.797973 92.944933,73.797973 L 91.694933,74.672973 L 90.694933,74.610473 L 89.882433,73.735473 L 89.757433,72.360473 z"
       id="path3630" />
    <path
       style="fill:url(#linearGradient3828);fill-opacity:1;fill-rule:evenodd;stroke:none;stroke-width:1px;stroke-linecap:butt;stroke-linejoin:miter;stroke-opacity:1"
       d="M 90.507433,70.235473 L 88.257433,68.422973 L 89.007433,67.172973 L 90.444933,65.985473 L 91.819933,65.297973 L 92.694933,65.672973 L 92.319933,67.922973 L 92.382433,69.360473 L 91.132433,69.610473 L 90.507433,70.235473 z"
       id="path3634" />
    <path
       style="fill:url(#linearGradient3826);fill-opacity:1;fill-rule:evenodd;stroke:none;stroke-width:1px;stroke-linecap:butt;stroke-linejoin:miter;stroke-opacity:1"
       d="M 92.319933,69.360473 L 92.632433,65.547973 L 94.132433,66.110473 L 95.694933,67.485473 L 96.382433,69.297973 L 93.569933,70.672973 L 93.382433,70.110473 L 92.319933,69.360473 z"
       id="path3638" />
    <path
       style="fill:url(#linearGradient3824);fill-opacity:1;fill-rule:evenodd;stroke:none;stroke-width:1px;stroke-linecap:butt;stroke-linejoin:miter;stroke-opacity:1"
       d="M 95.819933,74.297973 L 93.319933,73.110473 L 93.507433,71.797973 L 93.632433,70.922973 L 96.132433,69.360473 L 96.382433,70.735473 L 96.319933,72.485473 L 95.819933,74.297973 z"
       id="path3642" />
    <path
       style="fill:url(#linearGradient3822);fill-opacity:1;fill-rule:evenodd;stroke:none;stroke-width:1px;stroke-linecap:butt;stroke-linejoin:miter;stroke-opacity:1"
       d="M 92.257433,78.235473 L 91.444933,74.922973 L 92.569933,74.360473 L 93.444933,72.985473 L 95.882433,74.360473 L 94.694933,76.547973 L 92.257433,78.235473 z"
       id="path3646" />
    <path
       style="fill:url(#linearGradient3820);fill-opacity:1;fill-rule:evenodd;stroke:none;stroke-width:1px;stroke-linecap:butt;stroke-linejoin:miter;stroke-opacity:1"
       d="M 90.569933,74.547973 L 89.819933,73.547973 L 87.382433,75.172973 L 88.194933,76.735473 L 89.757433,78.172973 L 92.132433,78.235473 L 91.382433,74.797973 L 90.569933,74.547973 z"
       id="path3650" />
    <path
       id="path3664"
       d="M 10.205405,92.8 L 10.464865,57.686486 L 21.18919,53.535135 L 34.594595,75.762162 L 34.421622,109.75135 L 10.205405,92.8 z"
       style="fill:#000000;fill-opacity:0.15686275;fill-rule:evenodd;stroke:none;stroke-width:1px;stroke-linecap:butt;stroke-linejoin:miter;stroke-opacity:1" />
    <path
       id="path3666"
       d="M 12.8,55.437838 L 12.886487,45.405405 L 21.881082,51.459459 L 13.145946,56.12973 L 12.8,55.437838 z"
       style="fill:#000000;fill-opacity:0.15686275;fill-rule:evenodd;stroke:none;stroke-width:1px;stroke-linecap:butt;stroke-linejoin:miter;stroke-opacity:1" />
    <path
       id="path3668"
       d="M 45.664865,118.48648 L 45.751352,63.567568 L 57.427028,74.637838 L 57.686487,126.78919 L 45.664865,118.48648 z"
       style="fill:#000000;fill-opacity:0.15686275;fill-rule:evenodd;stroke:none;stroke-width:1px;stroke-linecap:butt;stroke-linejoin:miter;stroke-opacity:1" />
    <path
       id="path3670"
       d="M 112.77838,72.389189 L 101.62162,64.864865 L 101.70811,42.291892 L 113.03784,52.497297 L 112.77838,72.389189 z"
       style="fill:#000000;fill-opacity:0.15686275;fill-rule:evenodd;stroke:none;stroke-width:1px;stroke-linecap:butt;stroke-linejoin:miter;stroke-opacity:1" />
    <path
       id="path3672"
       d="M 47.221622,40.648649 L 43.762163,41.340541 L 43.58919,32.518919 L 55.437838,41.945946 L 52.670271,48.432432 L 47.221622,40.648649 z"
       style="fill:#000000;fill-opacity:0.15686275;fill-rule:evenodd;stroke:none;stroke-width:1px;stroke-linecap:butt;stroke-linejoin:miter;stroke-opacity:1" />
    <path
       id="path3674"
       d="M 13.007433,45.422973 L 31.569933,21.422973 L 44.507433,29.672973 L 43.444933,31.360473 L 44.007433,41.422973 L 35.694933,44.047973 L 21.882433,51.485473 L 13.007433,45.422973 z"
       style="fill:#000000;fill-opacity:0.15686275;fill-rule:evenodd;stroke:none;stroke-width:1px;stroke-linecap:butt;stroke-linejoin:miter;stroke-opacity:1" />
    <path
       id="path3676"
       d="M 43.444933,31.672973 L 51.382433,13.485473 L 55.819933,4.0479727 L 55.944933,4.3604727 L 55.194933,42.110473 L 43.444933,31.672973 z"
       style="fill:#000000;fill-opacity:0.15686275;fill-rule:evenodd;stroke:none;stroke-width:1px;stroke-linecap:butt;stroke-linejoin:miter;stroke-opacity:1" />
    <path
       id="path3678"
       d="M 45.944933,63.735473 L 58.007433,35.860473 L 58.132433,36.610473 L 57.257433,74.610473 L 45.944933,63.735473 z"
       style="fill:#000000;fill-opacity:0.15686275;fill-rule:evenodd;stroke:none;stroke-width:1px;stroke-linecap:butt;stroke-linejoin:miter;stroke-opacity:1" />
    <path
       id="path3680"
       d="M 61.882433,44.297973 L 64.507433,40.922973 L 90.569933,57.360473 L 71.757433,81.172973 L 71.632433,67.297973 L 61.882433,44.297973 z"
       style="fill:#000000;fill-opacity:0.15686275;fill-rule:evenodd;stroke:none;stroke-width:1px;stroke-linecap:butt;stroke-linejoin:miter;stroke-opacity:1" />
    <path
       id="path3682"
       d="M 101.69493,42.297973 L 113.75743,13.922973 L 113.63243,30.110473 L 113.13243,52.672973 L 101.69493,42.297973 z"
       style="fill:#000000;fill-opacity:0.15686275;fill-rule:evenodd;stroke:none;stroke-width:1px;stroke-linecap:butt;stroke-linejoin:miter;stroke-opacity:1" />
  </g>
  <g
     inkscape:label="outline"
     inkscape:groupmode="layer"
     id="layer1">
    <path
       style="fill:#000000;fill-opacity:1;fill-rule:evenodd;stroke:none;stroke-width:1px;stroke-linecap:butt;stroke-linejoin:miter;stroke-opacity:1"
       d="M 56.007433,0.86047297 L 55.694933,0.92297297 L 55.382433,4.110473 L 44.288683,29.110473 L 31.444933,21.204223 L 12.601183,45.391723 L 12.538683,55.985473 L 10.226182,57.454223 L 10.007432,92.860473 L 34.163683,110.39172 L 45.538683,103.48547 L 45.569933,118.73547 L 57.913683,127.54797 L 71.569933,121.64172 L 71.788683,120.89172 L 113.22618,104.86047 L 113.44493,105.51672 L 127.66368,99.422973 L 127.66368,45.047973 L 114.31993,14.047973 L 113.94493,10.797973 L 113.63243,10.860473 L 113.31993,14.047973 C 109.30701,23.092427 105.06955,32.596601 101.47618,42.047973 L 101.50743,64.235473 L 100.66368,63.704223 L 100.81993,39.079223 L 87.444933,17.610473 L 76.101183,21.860473 L 66.413683,26.641723 L 56.351183,3.922973 L 56.007433,0.86047297 z M 56.007433,4.110473 L 56.069933,4.110473 L 68.757433,34.579223 L 59.944933,39.204223 L 58.632433,36.235473 L 58.257433,32.985473 L 57.944933,33.047973 L 57.632433,36.235473 L 55.507433,41.172973 L 56.007433,4.110473 z M 55.757433,4.141723 L 54.944933,41.391723 L 43.819933,31.954223 L 55.757433,4.141723 z M 53.538683,10.610473 L 50.913683,17.485473 L 51.288683,17.672973 L 53.851183,10.735473 L 53.538683,10.610473 z M 57.288683,10.922973 L 56.913683,10.954223 L 62.132433,24.829223 L 60.069933,25.422973 L 59.288683,22.516723 L 59.007433,22.579223 L 59.788683,25.485473 L 57.288683,26.204223 L 57.163683,16.985473 L 56.851183,17.047973 L 57.069933,26.266723 L 56.694933,26.391723 L 56.726183,26.797973 L 57.101183,26.704223 L 57.163683,29.704223 L 57.351183,29.704223 L 57.319933,26.641723 L 59.913683,25.860473 L 62.382433,34.922973 L 59.913683,35.829223 L 60.038683,36.172973 L 62.444933,35.204223 L 62.726183,36.204223 L 63.007433,36.079223 L 62.726183,35.110473 L 64.444933,34.422973 L 64.444933,34.172973 L 62.663683,34.829223 L 60.194933,25.797973 L 62.257433,25.172973 L 65.569933,33.954223 L 65.819933,33.985473 L 62.538683,25.110473 L 63.757433,24.735473 L 63.413683,24.454223 L 62.413683,24.735473 L 57.288683,10.922973 z M 113.97618,14.547973 L 126.97618,45.204223 L 113.56993,51.797973 L 113.97618,14.547973 z M 113.60118,14.766723 L 112.91368,51.829223 L 102.10118,41.954223 L 113.60118,14.766723 z M 53.757433,16.954223 L 53.257433,21.235473 L 49.882433,19.922973 L 49.632433,19.985473 L 53.226183,21.579223 L 52.819933,24.954223 L 53.257433,24.954223 L 53.569933,21.735473 L 54.382433,22.110473 L 54.257433,21.610473 L 53.601183,21.360473 L 54.007433,16.954223 L 53.757433,16.954223 z M 87.194933,17.954223 L 67.069933,28.016723 L 66.288683,27.360473 L 76.038683,22.391723 L 87.194933,17.954223 z M 87.319933,18.516723 L 99.944933,39.547973 L 80.069933,50.422973 L 70.601183,44.516723 L 69.663683,34.204223 L 67.288683,28.766723 L 87.319933,18.516723 z M 115.47618,18.641723 L 115.35118,18.766723 L 120.66368,35.141723 L 120.85118,35.141723 L 115.47618,18.641723 z M 112.50743,19.141723 L 111.66368,41.860473 L 109.63243,40.141723 C 109.89344,39.217227 110.14384,38.282438 110.41368,37.360473 L 110.28868,37.360473 C 110.01447,38.26914 109.73066,39.129195 109.44493,39.985473 L 106.50743,37.454223 L 110.53868,27.547973 L 110.28868,27.485473 L 106.28868,37.266723 L 105.44493,36.547973 L 105.31993,36.922973 L 106.16368,37.610473 L 105.16368,40.047973 L 105.41368,40.172973 L 106.38243,37.797973 L 109.35118,40.235473 C 108.95062,41.43701 108.56465,42.63294 108.22618,43.922973 L 108.53868,44.110473 C 108.85884,42.864631 109.19069,41.629836 109.53868,40.391723 L 111.63243,42.141723 L 111.50743,45.704223 L 111.88243,45.766723 L 112.00743,42.422973 L 112.44493,42.797973 L 112.50743,42.610473 L 112.00743,42.172973 L 112.75743,19.141723 L 112.50743,19.141723 z M 31.507433,21.641723 L 43.882433,30.047973 L 42.944933,31.547973 L 43.444933,41.329223 L 35.819933,43.954223 L 35.788683,43.985473 L 35.757433,43.985473 L 21.882433,50.922973 L 13.538683,45.422973 L 31.507433,21.641723 z M 84.757433,21.735473 L 84.444933,21.797973 L 89.726183,29.829223 L 84.538683,32.485473 L 84.788683,32.735473 L 89.913683,30.141723 L 93.476183,35.547973 L 82.788683,40.579223 L 77.413683,30.829223 C 79.676848,29.905747 81.936924,28.951768 84.194933,28.016723 L 84.194933,27.891723 C 81.859808,28.747319 79.492469,29.536215 77.163683,30.391723 L 77.007433,30.079223 L 76.569933,30.204223 L 76.757433,30.516723 C 74.714683,31.277823 72.712546,32.115929 70.788683,33.141723 L 70.913683,33.391723 C 72.957148,32.614014 74.982021,31.809706 77.007433,30.985473 L 82.476183,40.735473 L 75.069933,44.204223 L 75.444933,44.329223 L 82.601183,40.954223 L 84.007433,43.454223 L 84.257433,43.266723 L 82.913683,40.829223 L 93.632433,35.797973 L 94.507433,37.110473 L 94.694933,36.922973 L 93.882433,35.672973 L 94.757433,35.266723 L 94.632433,35.016723 L 93.726183,35.454223 L 90.163683,30.016723 L 92.101183,29.047973 L 91.913683,28.735473 L 89.976183,29.704223 L 84.757433,21.735473 z M 49.476183,23.860473 L 47.038683,29.922973 L 45.851183,28.985473 L 45.663683,29.047973 L 46.976183,30.141723 L 46.351183,31.672973 L 46.476183,31.860473 L 47.132433,30.266723 L 52.038683,34.360473 L 51.257433,37.485473 L 51.444933,37.672973 L 52.226183,34.516723 L 53.601183,35.672973 L 53.851183,35.297973 L 52.319933,34.110473 L 53.132433,30.860473 L 52.882433,30.922973 L 52.132433,33.954223 L 47.194933,30.047973 L 49.726183,23.860473 L 49.476183,23.860473 z M 114.75743,24.172973 C 114.87487,29.006477 114.69082,33.902253 114.81993,38.735473 L 115.31993,38.860473 C 115.18887,34.027298 115.25233,29.006434 115.13243,24.172973 L 114.75743,24.172973 z M 31.976183,25.391723 C 31.161712,26.556087 30.330569,27.718768 29.507433,28.891723 L 28.726183,28.391723 L 28.476183,28.454223 L 29.413683,29.047973 C 25.664728,34.388274 21.820625,39.763549 17.819933,44.704223 L 18.132433,44.954223 C 22.522098,39.956358 25.965488,34.651376 29.632433,29.235473 L 38.226183,34.829223 L 34.351183,39.860473 L 34.726183,39.922973 L 38.507433,35.016723 L 40.788683,36.516723 L 41.038683,36.266723 L 38.694933,34.766723 L 40.913683,31.922973 L 40.726183,31.610473 L 38.413683,34.579223 L 29.757433,29.047973 C 30.526767,27.912807 31.29942,26.785876 32.101183,25.641723 L 31.976183,25.391723 z M 44.007433,32.922973 L 54.819933,42.610473 L 52.476183,47.860473 L 47.319933,40.391723 L 44.413683,41.016723 L 44.007433,32.922973 z M 69.257433,35.485473 L 69.694933,43.954223 L 64.476183,40.704223 L 61.882433,43.547973 L 60.194933,39.735473 L 69.257433,35.485473 z M 31.507433,36.079223 C 30.641488,37.135212 29.756467,38.176329 28.851183,39.204223 L 27.444933,38.141723 L 27.069933,38.204223 L 28.663683,39.391723 C 26.552751,41.784867 24.408443,44.160107 22.538683,46.735473 L 22.726183,46.797973 C 24.589629,44.422 26.719068,41.967542 28.851183,39.547973 L 33.069933,42.704223 L 33.194933,42.516723 L 29.038683,39.360473 C 29.932113,38.347169 30.838733,37.307608 31.694933,36.329223 L 31.507433,36.079223 z M 57.976183,36.235473 L 57.132433,73.922973 L 46.319933,64.079223 L 57.976183,36.235473 z M 58.351183,36.454223 L 71.194933,67.329223 L 58.132433,73.454223 L 58.351183,36.454223 z M 120.81993,39.079223 L 120.56993,39.329223 L 122.88243,43.735473 L 115.19493,47.516723 L 115.31993,42.672973 L 115.00743,42.672973 L 114.91368,47.641723 L 114.60118,47.797973 L 114.47618,48.110473 L 114.91368,47.891723 L 114.88243,49.172973 L 115.13243,49.235473 L 115.16368,47.766723 L 123.03868,44.047973 L 123.81993,45.516723 L 124.06993,45.204223 L 123.38243,43.891723 L 124.22618,43.485473 L 124.03868,43.172973 L 123.19493,43.579223 L 120.81993,39.079223 z M 100.28868,40.454223 L 100.13243,63.360473 L 94.007433,59.266723 C 94.747234,58.960258 95.507402,58.701956 96.257433,58.422973 L 96.257433,58.391723 L 96.319933,58.391723 L 96.351183,49.797973 L 93.319933,47.110473 L 90.913683,51.797973 L 90.538683,57.204223 L 80.601183,50.860473 L 100.28868,40.454223 z M 46.444933,40.860473 L 20.757433,53.329223 L 11.538683,57.235473 L 36.069933,44.235473 L 37.601183,43.735473 C 36.470095,44.291166 35.38639,44.853069 34.319933,45.422973 L 33.694933,45.547973 L 33.569933,45.735473 L 33.819933,45.704223 C 30.156234,47.679438 26.726605,49.694006 22.788683,51.579223 L 23.163683,51.891723 C 27.398659,49.888961 30.928091,47.706274 34.819933,45.547973 L 37.444933,45.172973 L 37.882433,44.797973 L 35.413683,45.235473 C 36.255091,44.773989 37.084149,44.318214 37.976183,43.860473 L 37.757433,43.704223 L 46.444933,40.860473 z M 47.132433,41.079223 L 52.163683,48.579223 L 45.569933,63.391723 L 45.444933,70.641723 L 35.226183,75.641723 L 21.476183,53.672973 L 47.132433,41.079223 z M 64.413683,41.329223 L 90.288683,57.485473 L 71.882433,80.172973 L 71.882433,67.172973 L 62.288683,44.579223 L 64.413683,41.329223 z M 102.03868,42.985473 L 112.56993,52.422973 L 112.69493,71.766723 L 102.31993,64.797973 L 102.03868,42.985473 z M 55.413683,44.110473 L 53.601183,48.516723 L 53.351183,48.422973 L 53.163683,48.610473 L 53.507433,48.766723 L 49.694933,57.954223 L 49.413683,57.735473 L 49.226183,57.922973 L 49.601183,58.204223 L 48.038683,61.985473 L 48.413683,62.297973 L 49.944933,58.454223 L 51.601183,59.672973 L 50.913683,61.485473 L 51.351183,61.860473 L 52.038683,59.985473 L 54.694933,61.954223 L 53.944933,67.860473 L 54.382433,67.985473 L 55.069933,62.204223 L 56.288683,63.110473 L 56.226183,62.797973 L 55.101183,61.954223 L 56.132433,53.110473 L 55.819933,53.235473 L 54.726183,61.672973 L 52.132433,59.735473 L 53.226183,56.735473 L 52.788683,56.485473 L 51.694933,59.422973 L 50.069933,58.204223 L 53.819933,48.922973 L 55.038683,49.485473 L 55.226183,49.172973 L 53.913683,48.641723 L 55.663683,44.297973 L 55.413683,44.110473 z M 45.226183,44.204223 L 44.976183,44.329223 L 46.913683,47.329223 L 36.976183,51.954223 L 35.819933,49.704223 L 35.444933,50.016723 L 36.569933,52.141723 L 32.913683,53.829223 L 33.226183,54.016723 L 36.726183,52.391723 L 39.663683,57.860473 C 38.210763,58.526026 36.720186,59.12548 35.132433,59.547973 L 34.507433,59.922973 C 36.309795,59.41233 38.040588,58.760407 39.757433,58.047973 L 42.694933,63.516723 L 42.944933,63.454223 L 40.069933,57.922973 C 42.92665,56.72017 45.712596,55.329071 48.476183,53.985473 L 48.288683,53.672973 C 45.393132,54.873814 42.752473,56.438777 39.976183,57.735473 L 37.101183,52.204223 L 47.069933,47.547973 L 49.101183,50.704223 L 49.413683,50.391723 L 47.382433,47.391723 L 48.976183,46.641723 L 48.788683,46.454223 L 47.226183,47.172973 L 45.226183,44.204223 z M 60.632433,44.672973 L 60.444933,44.922973 C 61.737255,51.849259 64.926026,58.145395 67.569933,64.641723 L 61.538683,67.047973 L 60.069933,58.829223 L 59.757433,58.766723 L 61.257433,67.172973 L 60.069933,67.641723 L 60.069933,67.891723 L 61.288683,67.391723 L 61.632433,69.266723 L 61.944933,69.266723 L 61.601183,67.297973 L 67.663683,64.891723 C 67.871097,65.404599 68.089743,65.906927 68.288683,66.422973 L 68.476183,66.360473 C 68.279354,65.849714 68.079939,65.339753 67.882433,64.829223 L 68.944933,64.391723 L 68.944933,64.079223 L 67.757433,64.547973 C 65.216212,57.981789 62.665061,51.418022 60.632433,44.672973 z M 64.632433,45.235473 L 64.444933,45.547973 C 65.375036,46.106035 71.869891,50.214031 76.194933,52.954223 L 73.663683,56.391723 C 73.067305,56.047662 72.088938,55.475198 71.882433,55.360473 L 71.632433,55.547973 C 71.827213,55.656184 72.880631,56.251059 73.507433,56.610473 L 71.851183,58.891723 L 72.101183,59.079223 L 73.726183,56.766723 C 75.694298,57.896275 77.310066,58.798067 79.257433,59.922973 L 73.882433,66.110473 L 74.257433,66.172973 L 79.476183,60.079223 C 80.292506,60.550817 81.944933,61.485473 81.944933,61.485473 L 82.007433,61.235473 C 82.007433,61.235473 80.400759,60.308359 79.632433,59.860473 L 82.257433,56.797973 L 82.132433,56.610473 L 79.413683,59.735473 C 77.507867,58.624629 75.846278,57.651047 73.882433,56.516723 L 76.319933,53.016723 C 77.926195,54.034428 80.382433,55.610473 80.382433,55.610473 L 80.569933,55.422973 C 80.569933,55.422973 78.08773,53.83225 76.476183,52.797973 L 77.288683,51.641723 L 77.226183,51.516723 L 76.351183,52.735473 C 72.007586,49.947899 65.50237,45.757436 64.632433,45.235473 z M 13.351183,45.704223 L 20.913683,51.422973 L 13.476183,55.454223 L 13.351183,45.704223 z M 127.10118,45.766723 L 126.97618,98.922973 L 113.81993,104.48547 L 113.31993,52.735473 L 127.10118,45.766723 z M 93.601183,47.704223 L 95.851183,50.235473 L 95.976183,57.922973 C 95.614861,58.054388 94.328324,58.499242 93.413683,58.860473 L 91.163683,57.391723 L 91.538683,52.047973 L 93.601183,47.704223 z M 20.944933,53.922973 L 34.101183,75.735473 L 34.101183,109.14172 L 26.132433,103.32922 L 26.226183,89.016723 L 20.976183,76.297973 L 14.413683,81.860473 L 13.944933,94.922973 L 10.476182,92.766723 L 10.726182,58.047973 L 20.944933,53.922973 z M 26.194933,53.985473 L 25.944933,54.047973 L 34.132433,67.516723 C 33.862866,67.598533 33.588219,67.691324 33.319933,67.766723 L 33.257433,68.047973 C 33.603821,67.953416 33.944559,67.837713 34.288683,67.735473 L 36.444933,71.297973 L 36.694933,71.235473 L 34.507433,67.672973 C 37.092767,66.892818 39.624062,65.933292 42.163683,65.016723 L 42.038683,64.766723 C 39.540386,65.61828 36.93996,66.630711 34.382433,67.422973 L 26.194933,53.985473 z M 120.60118,56.391723 L 117.66368,62.985473 L 117.63243,75.266723 C 119.8447,74.276866 122.04508,73.287137 124.25743,72.297973 L 124.25743,60.110473 L 120.60118,56.391723 z M 120.78868,57.391723 L 123.72618,60.579223 L 123.72618,71.891723 C 122.16347,72.57152 119.87187,73.530913 118.31993,74.235473 L 118.13243,63.391723 L 120.78868,57.391723 z M 90.663683,57.735473 L 112.69493,72.954223 L 112.97618,103.82922 L 100.47618,109.04797 L 100.47618,89.016723 L 92.007433,80.672973 L 85.038683,93.485473 L 84.976183,115.04797 L 71.882433,120.23547 L 71.882433,81.297973 L 90.663683,57.735473 z M 20.351183,62.391723 C 18.385283,62.62103 17.661642,65.255502 17.476183,67.329223 C 17.476183,70.993725 19.392591,74.9412 21.819933,76.079223 C 24.247275,77.217249 26.194933,75.056226 26.194933,71.391723 C 26.194932,67.727221 24.247275,63.779745 21.819933,62.641723 C 21.432695,62.495296 21.082697,62.407516 20.757433,62.391723 C 20.61513,62.384814 20.482243,62.376436 20.351183,62.391723 z M 20.976183,63.141723 C 21.018033,63.139285 21.058491,63.142206 21.101183,63.141723 L 21.226183,66.454223 C 20.638954,66.889394 20.327889,67.430808 20.257433,68.079223 L 18.038683,66.860473 C 18.217811,64.988971 19.258539,63.241784 20.976183,63.141723 z M 21.507433,63.204223 C 21.606169,63.218157 21.717318,63.211328 21.819933,63.235473 C 23.116406,63.843303 24.418661,65.878237 25.132433,68.079223 L 23.038683,68.141723 C 23.009024,67.488027 22.764614,66.901565 21.819933,66.360473 L 21.507433,63.204223 z M 46.163683,64.547973 L 56.819933,75.110473 L 57.319933,126.32922 L 46.069933,118.32922 L 46.163683,64.547973 z M 91.726183,65.141723 C 88.940426,65.685287 86.757433,69.152677 86.757433,72.797973 C 86.757431,76.443268 88.940425,79.029035 91.726183,78.485473 C 94.511943,77.941912 96.694933,74.474519 96.694933,70.829223 C 96.614405,67.36833 95.036298,65.395315 91.726183,65.141723 z M 91.663683,65.641723 C 91.879455,65.632169 92.059047,65.619638 92.257433,65.641723 C 92.239311,66.711033 92.0246,68.073169 92.038683,69.110473 C 91.962754,69.091926 91.901493,69.065363 91.819933,69.047973 C 91.040042,69.232964 90.653736,69.478172 90.382433,69.829223 L 88.569933,68.204223 C 89.402341,66.861144 90.521469,65.864594 91.663683,65.641723 z M 92.819933,65.766723 C 94.363327,66.186526 95.286881,67.595445 95.788683,69.172973 L 93.788683,70.297973 C 93.625181,69.780842 93.19573,69.472338 92.507433,69.235473 C 92.517405,68.211016 92.791001,66.815414 92.819933,65.766723 z M 21.569933,66.766723 C 22.470419,67.75223 22.523063,69.034049 22.632433,70.297973 C 22.748321,71.027438 22.3677,71.633487 22.132433,72.235473 C 21.514797,71.549483 21.139547,70.472575 20.788683,69.579223 C 20.534185,68.553803 20.808768,67.677435 21.569933,66.766723 z M 18.007433,67.329223 L 20.257433,68.610473 C 20.268355,68.976674 20.304062,69.380421 20.382433,69.797973 C 20.42417,70.020335 20.462503,70.212075 20.507433,70.422973 L 19.007433,71.922973 C 18.414942,70.502402 18.007433,68.91334 18.007433,67.516723 C 18.006995,67.454895 18.006063,67.391058 18.007433,67.329223 z M 70.976183,68.110473 L 71.444933,121.17297 L 58.069933,126.67297 L 57.663683,74.485473 L 70.976183,68.110473 z M 25.257433,68.454223 C 25.522516,69.375023 25.694933,70.327886 25.694933,71.204223 C 25.694932,72.14939 25.499222,72.984201 25.194933,73.704223 L 23.038683,71.329223 C 23.050652,71.01803 23.040311,70.664151 23.069933,70.235473 C 22.969373,69.612433 23.050152,69.062662 23.069933,68.547973 L 25.257433,68.454223 z M 88.257433,68.766723 L 90.069933,70.297973 C 89.925752,70.618939 89.803415,71.040087 89.601183,71.516723 C 89.463074,72.191694 89.409064,72.822964 89.538683,73.391723 L 87.569933,74.579223 C 87.373347,73.958342 87.226183,73.305513 87.226183,72.610473 C 87.226179,71.29185 87.642374,69.93883 88.257433,68.766723 z M 91.819933,69.547973 C 93.299977,69.74095 93.3071,70.738457 93.288683,72.016723 C 93.039667,73.415167 92.37132,74.08145 91.194933,74.641723 C 90.160378,73.935926 89.903418,72.760963 90.132433,71.641723 C 90.321978,70.485867 90.952238,70.063167 91.819933,69.547973 z M 95.913683,69.641723 C 96.03324,70.1011 96.142533,70.562704 96.194933,71.016723 C 96.194932,71.986977 95.965179,72.966418 95.601183,73.891723 L 93.538683,72.797973 C 93.612125,72.596085 93.673312,72.397275 93.757433,72.172973 C 93.840013,71.654506 93.902505,71.224003 93.882433,70.860473 L 95.913683,69.641723 z M 20.663683,70.985473 C 20.858359,71.662407 21.123009,72.203448 21.726183,72.485473 L 21.351183,75.329223 C 20.58494,74.758681 19.873654,73.745332 19.288683,72.516723 L 20.663683,70.985473 z M 45.444933,71.704223 L 45.538683,102.32922 L 34.726183,109.45422 L 35.101183,76.235473 L 45.444933,71.704223 z M 22.976183,71.766723 L 24.976183,74.235473 C 24.284066,75.466925 23.177741,76.104129 22.069933,75.735473 L 22.319933,72.579223 C 22.714386,72.340778 22.896916,72.059642 22.976183,71.766723 z M 93.351183,73.235473 L 95.413683,74.422973 C 94.72164,75.907178 93.63818,77.141771 92.507433,77.704223 L 91.663683,75.016723 C 92.649769,74.756507 92.998368,74.142161 93.351183,73.235473 z M 89.726183,73.860473 C 89.949365,74.326768 90.311615,74.770832 90.944933,75.141723 C 91.080556,75.130371 91.200433,75.099034 91.319933,75.079223 L 91.851183,77.954223 C 91.811707,77.963764 91.76566,77.97777 91.726183,77.985473 C 90.19188,78.284851 88.666187,77.077504 87.851183,75.297973 L 89.726183,73.860473 z M 64.601183,77.016723 L 61.663683,83.641723 L 61.632433,95.922973 C 63.844701,94.933118 66.045077,93.912138 68.257433,92.922973 L 68.257433,80.735473 L 64.601183,77.016723 z M 41.976183,77.079223 L 39.569933,81.766723 L 39.507433,90.454223 C 41.312621,89.777896 43.103618,89.055978 44.913683,88.391723 L 44.913683,88.360473 L 44.976183,88.360473 L 45.007433,79.766723 L 41.976183,77.079223 z M 20.757433,77.172973 L 25.663683,89.141723 L 25.569933,102.92297 L 25.007433,102.51672 L 25.007433,89.485473 L 20.569933,77.891723 L 15.601183,82.485473 L 15.257433,95.735473 L 14.413683,95.204223 L 14.913683,82.422973 L 20.757433,77.172973 z M 51.476183,77.391723 L 48.038683,81.329223 L 47.913683,92.766723 L 54.507433,95.704223 L 54.538683,84.172973 L 51.476183,77.391723 z M 42.257433,77.672973 L 44.569933,80.266723 L 44.694933,88.079223 C 44.148833,88.277845 41.504388,89.295857 39.819933,89.954223 L 40.132433,82.079223 L 42.257433,77.672973 z M 51.507433,77.922973 L 54.007433,84.297973 L 54.038683,94.922973 L 48.226183,92.422973 L 48.476183,81.454223 L 51.507433,77.922973 z M 64.788683,78.079223 L 67.694933,81.016723 L 67.694933,92.485473 C 66.132221,93.165262 63.715624,94.468412 62.163683,95.172973 L 62.132433,83.860473 L 64.788683,78.079223 z M 20.038683,78.891723 L 19.663683,98.922973 L 15.819933,96.204223 L 16.163683,82.704223 L 20.038683,78.891723 z M 20.413683,79.079223 L 24.351183,89.704223 L 24.288683,102.20422 L 20.319933,99.391723 L 20.413683,79.079223 z M 92.069933,81.454223 L 100.00743,89.204223 L 99.913683,109.26672 L 99.444933,109.48547 L 99.444933,89.016723 L 92.288683,82.485473 L 86.257433,94.204223 L 86.194933,114.57922 L 85.444933,114.86047 L 85.538683,93.641723 L 92.069933,81.454223 z M 92.444933,83.204223 L 98.851183,89.422973 L 98.788683,109.73547 L 92.601183,112.11047 L 92.444933,83.204223 z M 92.163683,83.766723 L 92.226183,112.26672 L 86.694933,114.39172 L 86.913683,94.516723 L 92.163683,83.766723 z"
       id="path2308" />
    <path
       style="fill:#000000;fill-opacity:1;fill-rule:evenodd;stroke:none;stroke-width:1px;stroke-linecap:butt;stroke-linejoin:miter;stroke-opacity:1"
       d="M 16.944933,83.829223 L 16.663683,83.766723 L 19.257433,87.141723 L 19.351183,86.797973 L 16.944933,83.829223 z"
       id="path2624"
       sodipodi:nodetypes="ccccc" />
    <path
       style="fill:#000000;fill-opacity:1;fill-rule:evenodd;stroke:none;stroke-width:1px;stroke-linecap:butt;stroke-linejoin:miter;stroke-opacity:1"
       d="M 16.694933,86.766723 L 16.538683,86.954223 L 18.757433,90.891723 L 19.226183,90.829223 L 16.694933,86.766723 z"
       id="path2626"
       sodipodi:nodetypes="ccccc" />
    <path
       style="fill:#000000;fill-opacity:1;fill-rule:evenodd;stroke:none;stroke-width:1px;stroke-linecap:butt;stroke-linejoin:miter;stroke-opacity:1"
       d="M 16.413683,90.110473 L 16.194933,90.204223 L 19.163683,94.610473 L 19.382433,94.422973 L 16.413683,90.110473 z"
       id="path2628"
       sodipodi:nodetypes="ccccc" />
    <path
       style="fill:#000000;fill-opacity:1;fill-rule:evenodd;stroke:none;stroke-width:1px;stroke-linecap:butt;stroke-linejoin:miter;stroke-opacity:1"
       d="M 16.507433,94.391723 L 16.351183,94.610473 L 18.819933,97.485473 L 18.976183,97.391723 L 16.507433,94.391723 z"
       id="path2630"
       sodipodi:nodetypes="ccccc" />
    <path
       style="fill:#000000;fill-opacity:1;fill-rule:evenodd;stroke:none;stroke-width:1px;stroke-linecap:butt;stroke-linejoin:miter;stroke-opacity:1"
       d="M 17.944933,81.454223 L 17.851183,81.485473 L 19.226183,83.735473 L 19.413683,83.579223 L 17.944933,81.454223 z"
       id="path2632"
       sodipodi:nodetypes="ccccc" />
    <path
       style="fill:#000000;fill-opacity:1;fill-rule:evenodd;stroke:none;stroke-width:1px;stroke-linecap:butt;stroke-linejoin:miter;stroke-opacity:1"
       d="M 20.632433,84.047973 L 20.694933,84.235473 L 22.101183,83.422973 L 21.663683,83.297973 L 20.632433,84.047973 z"
       id="path2634"
       sodipodi:nodetypes="ccccc" />
    <path
       style="fill:#000000;fill-opacity:1;fill-rule:evenodd;stroke:none;stroke-width:1px;stroke-linecap:butt;stroke-linejoin:miter;stroke-opacity:1"
       d="M 22.601183,86.360473 L 20.757433,87.141723 L 20.757433,87.422973 L 22.757433,86.579223 L 22.601183,86.360473 z"
       id="path2636"
       sodipodi:nodetypes="ccccc" />
    <path
       style="fill:#000000;fill-opacity:1;fill-rule:evenodd;stroke:none;stroke-width:1px;stroke-linecap:butt;stroke-linejoin:miter;stroke-opacity:1"
       d="M 23.757433,90.141723 L 20.819933,90.829223 L 20.976183,91.172973 L 23.819933,90.485473 L 23.757433,90.141723 z"
       id="path2638"
       sodipodi:nodetypes="ccccc" />
    <path
       style="fill:#000000;fill-opacity:1;fill-rule:evenodd;stroke:none;stroke-width:1px;stroke-linecap:butt;stroke-linejoin:miter;stroke-opacity:1"
       d="M 23.569933,93.485473 L 20.694933,94.391723 L 20.851183,94.641723 L 23.788683,93.735473 L 23.569933,93.485473 z"
       id="path2640"
       sodipodi:nodetypes="ccccc" />
    <path
       style="fill:#000000;fill-opacity:1;fill-rule:evenodd;stroke:none;stroke-width:1px;stroke-linecap:butt;stroke-linejoin:miter;stroke-opacity:1"
       d="M 23.851183,97.391723 L 20.726183,98.610473 L 20.726183,98.860473 L 23.913683,97.672973 L 23.851183,97.391723 z"
       id="path2642"
       sodipodi:nodetypes="ccccc" />
    <path
       style="fill:#000000;fill-opacity:1;fill-rule:evenodd;stroke:none;stroke-width:1px;stroke-linecap:butt;stroke-linejoin:miter;stroke-opacity:1"
       d="M 98.382433,89.985473 L 93.507433,94.797973 L 93.788683,94.954223 L 98.476183,90.266723 L 98.382433,89.985473 z"
       id="path2644"
       sodipodi:nodetypes="ccccc" />
    <path
       style="fill:#000000;fill-opacity:1;fill-rule:evenodd;stroke:none;stroke-width:1px;stroke-linecap:butt;stroke-linejoin:miter;stroke-opacity:1"
       d="M 98.132433,93.922973 L 93.351183,98.704223 L 93.694933,98.954223 L 98.288683,94.110473 L 98.132433,93.922973 z"
       id="path2646"
       sodipodi:nodetypes="ccccc" />
    <path
       style="fill:#000000;fill-opacity:1;fill-rule:evenodd;stroke:none;stroke-width:1px;stroke-linecap:butt;stroke-linejoin:miter;stroke-opacity:1"
       d="M 98.413683,101.01672 L 93.382433,106.86047 L 93.663683,107.14172 L 98.476183,101.29797 L 98.413683,101.01672 z"
       id="path2648"
       sodipodi:nodetypes="ccccc" />
    <path
       style="fill:#000000;fill-opacity:1;fill-rule:evenodd;stroke:none;stroke-width:1px;stroke-linecap:butt;stroke-linejoin:miter;stroke-opacity:1"
       d="M 97.944933,106.92297 C 96.378293,107.83739 95.454883,109.40279 94.319933,110.79797 L 94.632433,110.98547 C 95.563518,109.64809 96.920359,107.98555 98.163683,106.95422 L 97.944933,106.92297 z"
       id="path2650"
       sodipodi:nodetypes="ccccc" />
    <path
       style="fill:#000000;fill-opacity:1;fill-rule:evenodd;stroke:none;stroke-width:1px;stroke-linecap:butt;stroke-linejoin:miter;stroke-opacity:1"
       d="M 95.476183,86.735473 L 93.069933,89.391723 L 93.351183,89.579223 L 95.632433,86.860473 L 95.476183,86.735473 z"
       id="path2652"
       sodipodi:nodetypes="ccccc" />
    <path
       style="fill:#000000;fill-opacity:1;fill-rule:evenodd;stroke:none;stroke-width:1px;stroke-linecap:butt;stroke-linejoin:miter;stroke-opacity:1"
       d="M 90.038683,89.110473 L 89.757433,89.141723 L 91.819933,90.016723 L 91.913683,89.891723 L 90.038683,89.110473 z"
       id="path2654"
       sodipodi:nodetypes="ccccc" />
    <path
       style="fill:#000000;fill-opacity:1;fill-rule:evenodd;stroke:none;stroke-width:1px;stroke-linecap:butt;stroke-linejoin:miter;stroke-opacity:1"
       d="M 88.101183,93.297973 L 88.038683,93.610473 L 91.694933,94.829223 L 91.882433,94.516723 L 88.101183,93.297973 z"
       id="path2656"
       sodipodi:nodetypes="ccccc" />
    <path
       style="fill:#000000;fill-opacity:1;fill-rule:evenodd;stroke:none;stroke-width:1px;stroke-linecap:butt;stroke-linejoin:miter;stroke-opacity:1"
       d="M 87.601183,97.579223 L 87.538683,97.891723 L 91.726183,98.985473 L 91.851183,98.641723 L 87.601183,97.579223 z"
       id="path2658"
       sodipodi:nodetypes="ccccc" />
    <path
       style="fill:#000000;fill-opacity:1;fill-rule:evenodd;stroke:none;stroke-width:1px;stroke-linecap:butt;stroke-linejoin:miter;stroke-opacity:1"
       d="M 87.569933,106.73547 L 87.319933,106.89172 L 91.101183,107.89172 L 91.351183,107.54797 L 87.569933,106.73547 z"
       id="path2660"
       sodipodi:nodetypes="ccccc" />
    <path
       style="fill:#000000;fill-opacity:1;fill-rule:evenodd;stroke:none;stroke-width:1px;stroke-linecap:butt;stroke-linejoin:miter;stroke-opacity:1"
       d="M 87.288683,110.79797 L 87.413683,110.89172 L 91.132433,112.20422 L 91.101183,111.89172 L 87.288683,110.79797 z"
       id="path2662"
       sodipodi:nodetypes="ccccc" />
    <path
       id="path2744"
       d="M 87.694933,102.73547 L 87.507433,102.89172 L 91.288683,103.89172 L 91.413683,103.61047 L 87.694933,102.73547 z"
       style="fill:#000000;fill-opacity:1;fill-rule:evenodd;stroke:none;stroke-width:1px;stroke-linecap:butt;stroke-linejoin:miter;stroke-opacity:1"
       sodipodi:nodetypes="ccccc" />
    <path
       id="path2746"
       d="M 98.288683,97.141723 L 93.132433,103.17297 L 93.288683,103.26672 L 98.351183,97.360473 L 98.288683,97.141723 z"
       style="fill:#000000;fill-opacity:1;fill-rule:evenodd;stroke:none;stroke-width:1px;stroke-linecap:butt;stroke-linejoin:miter;stroke-opacity:1"
       sodipodi:nodetypes="ccccc" />
  </g>
</svg>
