<?xml version="1.0" encoding="UTF-8" standalone="no"?>
<!-- Created with Inkscape (http://www.inkscape.org/) -->
<svg
   xmlns:dc="http://purl.org/dc/elements/1.1/"
   xmlns:cc="http://creativecommons.org/ns#"
   xmlns:rdf="http://www.w3.org/1999/02/22-rdf-syntax-ns#"
   xmlns:svg="http://www.w3.org/2000/svg"
   xmlns="http://www.w3.org/2000/svg"
   xmlns:xlink="http://www.w3.org/1999/xlink"
   xmlns:sodipodi="http://sodipodi.sourceforge.net/DTD/sodipodi-0.dtd"
   xmlns:inkscape="http://www.inkscape.org/namespaces/inkscape"
   width="128"
   height="128"
   id="svg2"
   sodipodi:version="0.32"
   inkscape:version="0.45+devel"
   version="1.0"
   sodipodi:docname="circus.svg"
   inkscape:output_extension="org.inkscape.output.svg.inkscape">
  <defs
     id="defs4">
    <linearGradient
       id="linearGradient3364">
      <stop
         style="stop-color:#9e0000;stop-opacity:1;"
         offset="0"
         id="stop3366" />
      <stop
         style="stop-color:#e00000;stop-opacity:1;"
         offset="1"
         id="stop3368" />
    </linearGradient>
    <linearGradient
       id="linearGradient3415">
      <stop
         style="stop-color:#1a1a1a;stop-opacity:1;"
         offset="0"
         id="stop3417" />
      <stop
         style="stop-color:#2b2b2b;stop-opacity:1;"
         offset="1"
         id="stop3419" />
    </linearGradient>
    <linearGradient
       id="linearGradient3108">
      <stop
         style="stop-color:#c223c2;stop-opacity:1;"
         offset="0"
         id="stop3110" />
      <stop
         style="stop-color:#ff00dc;stop-opacity:1;"
         offset="1"
         id="stop3112" />
    </linearGradient>
    <linearGradient
       id="linearGradient2320">
      <stop
         id="stop2322"
         offset="0"
         style="stop-color:#6a3c1d;stop-opacity:1;" />
      <stop
         id="stop2324"
         offset="1"
         style="stop-color:#8f5127;stop-opacity:1;" />
    </linearGradient>
    <linearGradient
       id="linearGradient3203">
      <stop
         id="stop3205"
         offset="0"
         style="stop-color:#e3cf6f;stop-opacity:1;" />
      <stop
         id="stop3207"
         offset="1"
         style="stop-color:#faeca9;stop-opacity:1;" />
    </linearGradient>
    <linearGradient
       inkscape:collect="always"
       xlink:href="#linearGradient3108"
       id="linearGradient2422"
       x1="73.859459"
       y1="17.427027"
       x2="75.416214"
       y2="11.243243"
       gradientUnits="userSpaceOnUse"
       gradientTransform="translate(3.2864865,-0.172973)" />
    <linearGradient
       inkscape:collect="always"
       xlink:href="#linearGradient2320"
       id="linearGradient2426"
       x1="99.372971"
       y1="100.45406"
       x2="103.26486"
       y2="100.45406"
       gradientUnits="userSpaceOnUse"
       gradientTransform="translate(3.2864865,-0.172973)" />
    <linearGradient
       inkscape:collect="always"
       xlink:href="#linearGradient3203"
       id="linearGradient2434"
       x1="64.086487"
       y1="31.74054"
       x2="69.967567"
       y2="28.880768"
       gradientUnits="userSpaceOnUse"
       gradientTransform="translate(3.2864865,-0.172973)" />
    <linearGradient
       inkscape:collect="always"
       xlink:href="#linearGradient3364"
       id="linearGradient3370"
       x1="49.851028"
       y1="33.866409"
       x2="55.065941"
       y2="28.28108"
       gradientUnits="userSpaceOnUse"
       gradientTransform="translate(3.2864865,-0.172973)" />
    <linearGradient
       inkscape:collect="always"
       xlink:href="#linearGradient3364"
       id="linearGradient3376"
       x1="75.24324"
       y1="34.075676"
       x2="89.081078"
       y2="31.913513"
       gradientUnits="userSpaceOnUse"
       gradientTransform="translate(3.2864865,-0.172973)" />
    <linearGradient
       inkscape:collect="always"
       xlink:href="#linearGradient3203"
       id="linearGradient3380"
       x1="85.102699"
       y1="42.464867"
       x2="103.6973"
       y2="39.43784"
       gradientUnits="userSpaceOnUse"
       gradientTransform="translate(3.2864865,-0.172973)" />
    <linearGradient
       inkscape:collect="always"
       xlink:href="#linearGradient3203"
       id="linearGradient3384"
       x1="112.86488"
       y1="49.816216"
       x2="115.71892"
       y2="51.113514"
       gradientUnits="userSpaceOnUse"
       gradientTransform="translate(3.2864865,-0.172973)" />
    <linearGradient
       inkscape:collect="always"
       xlink:href="#linearGradient3364"
       id="linearGradient3388"
       x1="97.037842"
       y1="56.908108"
       x2="111.22162"
       y2="50.162163"
       gradientUnits="userSpaceOnUse"
       gradientTransform="translate(3.2864865,-0.172973)" />
    <linearGradient
       inkscape:collect="always"
       xlink:href="#linearGradient3364"
       id="linearGradient3392"
       x1="115.3054"
       y1="63.827026"
       x2="119.24595"
       y2="63.827027"
       gradientUnits="userSpaceOnUse"
       gradientTransform="translate(3.2864865,-0.172973)" />
    <linearGradient
       inkscape:collect="always"
       xlink:href="#linearGradient3203"
       id="linearGradient3396"
       x1="116.41081"
       y1="75.935135"
       x2="125.4054"
       y2="71.005402"
       gradientUnits="userSpaceOnUse"
       gradientTransform="translate(3.2864865,-0.172973)" />
    <linearGradient
       inkscape:collect="always"
       xlink:href="#linearGradient3364"
       id="linearGradient3400"
       x1="119.17838"
       y1="60.441284"
       x2="122.52352"
       y2="60.441284"
       gradientUnits="userSpaceOnUse"
       gradientTransform="translate(3.2864865,-0.172973)" />
    <linearGradient
       inkscape:collect="always"
       xlink:href="#linearGradient3203"
       id="linearGradient3404"
       x1="85.535141"
       y1="59.978378"
       x2="87.610809"
       y2="47.610813"
       gradientUnits="userSpaceOnUse"
       gradientTransform="translate(3.2864865,-0.172973)" />
    <linearGradient
       inkscape:collect="always"
       xlink:href="#linearGradient3203"
       id="linearGradient3410"
       x1="105.77297"
       y1="80.172966"
       x2="110.27028"
       y2="81.383781"
       gradientUnits="userSpaceOnUse"
       gradientTransform="translate(3.2864865,-0.172973)" />
    <linearGradient
       inkscape:collect="always"
       xlink:href="#linearGradient3364"
       id="linearGradient3414"
       x1="117.44865"
       y1="84.972969"
       x2="116.75675"
       y2="79.005402"
       gradientUnits="userSpaceOnUse"
       gradientTransform="translate(3.2864865,-0.172973)" />
    <linearGradient
       inkscape:collect="always"
       xlink:href="#linearGradient3364"
       id="linearGradient3418"
       x1="112.25945"
       y1="88.691895"
       x2="113.55676"
       y2="82.810814"
       gradientUnits="userSpaceOnUse"
       gradientTransform="translate(3.2864865,-0.172973)" />
    <linearGradient
       inkscape:collect="always"
       xlink:href="#linearGradient3364"
       id="linearGradient3424"
       x1="73.167564"
       y1="59.459457"
       x2="90.724327"
       y2="94.054054"
       gradientUnits="userSpaceOnUse"
       gradientTransform="translate(3.2864865,-0.172973)" />
    <linearGradient
       inkscape:collect="always"
       xlink:href="#linearGradient3364"
       id="linearGradient3428"
       x1="86.789192"
       y1="89.902702"
       x2="91.675674"
       y2="94.22702"
       gradientUnits="userSpaceOnUse"
       gradientTransform="translate(3.2864865,-0.172973)" />
    <linearGradient
       inkscape:collect="always"
       xlink:href="#linearGradient3203"
       id="linearGradient3432"
       x1="76.540543"
       y1="102.48648"
       x2="88.043243"
       y2="107.93513"
       gradientUnits="userSpaceOnUse"
       gradientTransform="translate(3.2864865,-0.172973)" />
    <linearGradient
       inkscape:collect="always"
       xlink:href="#linearGradient3203"
       id="linearGradient3436"
       x1="82.075676"
       y1="102.57297"
       x2="91.502701"
       y2="106.98378"
       gradientUnits="userSpaceOnUse"
       gradientTransform="translate(3.2864865,-0.172973)" />
    <linearGradient
       inkscape:collect="always"
       xlink:href="#linearGradient3203"
       id="linearGradient3440"
       x1="60.413437"
       y1="61.973907"
       x2="70.533905"
       y2="83.098724"
       gradientUnits="userSpaceOnUse"
       gradientTransform="translate(3.2864865,-0.172973)" />
    <linearGradient
       inkscape:collect="always"
       xlink:href="#linearGradient3203"
       id="linearGradient3446"
       x1="55.684658"
       y1="91.230453"
       x2="66.202866"
       y2="98.124741"
       gradientUnits="userSpaceOnUse"
       gradientTransform="translate(3.2864865,-0.172973)" />
    <linearGradient
       inkscape:collect="always"
       xlink:href="#linearGradient3364"
       id="linearGradient3450"
       x1="56.922096"
       y1="114.43239"
       x2="76.544304"
       y2="94.6334"
       gradientUnits="userSpaceOnUse"
       gradientTransform="translate(3.2864865,-0.172973)" />
    <linearGradient
       inkscape:collect="always"
       xlink:href="#linearGradient3364"
       id="linearGradient3455"
       x1="50.204582"
       y1="57.466099"
       x2="64.700272"
       y2="71.519844"
       gradientUnits="userSpaceOnUse"
       gradientTransform="translate(3.2864865,-0.172973)" />
    <linearGradient
       inkscape:collect="always"
       xlink:href="#linearGradient3364"
       id="linearGradient3461"
       x1="32.615303"
       y1="86.236504"
       x2="35.797279"
       y2="93.174988"
       gradientUnits="userSpaceOnUse"
       gradientTransform="translate(3.2864865,-0.172973)" />
    <linearGradient
       inkscape:collect="always"
       xlink:href="#linearGradient3203"
       id="linearGradient3465"
       x1="31.201088"
       y1="97.550209"
       x2="40.128311"
       y2="120.97312"
       gradientUnits="userSpaceOnUse"
       gradientTransform="translate(3.2864865,-0.172973)" />
    <linearGradient
       inkscape:collect="always"
       xlink:href="#linearGradient3203"
       id="linearGradient3469"
       x1="36.062447"
       y1="64.183617"
       x2="41.365746"
       y2="73.906334"
       gradientUnits="userSpaceOnUse"
       gradientTransform="translate(3.2864865,-0.172973)" />
    <linearGradient
       inkscape:collect="always"
       xlink:href="#linearGradient3203"
       id="linearGradient3473"
       x1="17.67767"
       y1="74.966988"
       x2="19.26866"
       y2="81.419342"
       gradientUnits="userSpaceOnUse"
       gradientTransform="translate(3.2864865,-0.172973)" />
    <linearGradient
       inkscape:collect="always"
       xlink:href="#linearGradient3364"
       id="linearGradient3477"
       x1="15.600543"
       y1="83.408073"
       x2="17.589281"
       y2="111.2946"
       gradientUnits="userSpaceOnUse"
       gradientTransform="translate(3.2864865,-0.172973)" />
    <linearGradient
       inkscape:collect="always"
       xlink:href="#linearGradient3203"
       id="linearGradient3481"
       x1="10.16466"
       y1="71.254684"
       x2="7.6013985"
       y2="80.889008"
       gradientUnits="userSpaceOnUse"
       gradientTransform="translate(3.2864865,-0.172973)" />
    <linearGradient
       inkscape:collect="always"
       xlink:href="#linearGradient3364"
       id="linearGradient3485"
       x1="10.960155"
       y1="58.615147"
       x2="10.960155"
       y2="66.835266"
       gradientUnits="userSpaceOnUse"
       gradientTransform="translate(3.2864865,-0.172973)" />
    <linearGradient
       inkscape:collect="always"
       xlink:href="#linearGradient3364"
       id="linearGradient3489"
       x1="35.532116"
       y1="49.42276"
       x2="37.741825"
       y2="62.415848"
       gradientUnits="userSpaceOnUse"
       gradientTransform="translate(3.2864865,-0.172973)" />
    <linearGradient
       inkscape:collect="always"
       xlink:href="#linearGradient3203"
       id="linearGradient3493"
       x1="30.847534"
       y1="39.523262"
       x2="29.433319"
       y2="36.694836"
       gradientUnits="userSpaceOnUse"
       gradientTransform="translate(3.2864865,-0.172973)" />
    <linearGradient
       inkscape:collect="always"
       xlink:href="#linearGradient3415"
       id="linearGradient3519"
       x1="96.608467"
       y1="91.849167"
       x2="105.88924"
       y2="103.33965"
       gradientUnits="userSpaceOnUse"
       gradientTransform="translate(3.2864865,-0.172973)" />
    <filter
       inkscape:collect="always"
       id="filter3587">
      <feGaussianBlur
         inkscape:collect="always"
         stdDeviation="1.9335818"
         id="feGaussianBlur3589" />
    </filter>
  </defs>
  <sodipodi:namedview
     id="base"
     pagecolor="#ffffff"
     bordercolor="#666666"
     borderopacity="1.0"
     gridtolerance="10000"
     guidetolerance="10"
     objecttolerance="10"
     inkscape:pageopacity="0.0"
     inkscape:pageshadow="2"
     inkscape:zoom="1"
     inkscape:cx="240"
     inkscape:cy="64"
     inkscape:document-units="px"
     inkscape:current-layer="layer2"
     showgrid="false"
     width="744.09px"
     inkscape:window-width="1248"
     inkscape:window-height="975"
     inkscape:window-x="426"
     inkscape:window-y="24"
     showguides="true"
     inkscape:guide-bbox="true" />
  <metadata
     id="metadata7">
    <rdf:RDF>
      <cc:Work
         rdf:about="">
        <dc:format>image/svg+xml</dc:format>
        <dc:type
           rdf:resource="http://purl.org/dc/dcmitype/StillImage" />
      </cc:Work>
    </rdf:RDF>
  </metadata>
  <g
     inkscape:groupmode="layer"
     id="layer2"
     inkscape:label="colors">
    <path
       style="fill:#000000;fill-opacity:0.66666667000000002;fill-rule:evenodd;stroke:none;stroke-width:1px;stroke-linecap:butt;stroke-linejoin:miter;stroke-opacity:1;filter:url(#filter3587)"
       d="M 18.842835,108.02804 L 6.1149136,88.229047 L 7.1755738,66.66229 L 13.185981,47.570408 L 26.267456,35.196038 L 41.527318,30.866873 L 34.81536,14.310311 C 43.930398,17.841823 53.045435,14.808501 62.160473,12.95771 C 53.953092,17.444597 46.249937,19.914581 38.98526,20.630651 L 43.241724,30.993695 L 55.965941,29.539184 L 104.40276,45.449087 L 78.593358,81.511533 L 35.813398,93.885901 L 18.842835,108.02804 z"
       id="path3521"
       sodipodi:nodetypes="ccccccccccccccc" />
    <path
       style="fill:url(#linearGradient3519);fill-rule:evenodd;stroke:none;stroke-width:1px;stroke-linecap:butt;stroke-linejoin:miter;stroke-opacity:1"
       d="M 86.725086,119.34175 C 94.927392,112.25399 104.12513,91.868601 123.8482,90.350368 L 100.16012,72.849475 L 75.941708,91.057474 L 86.725086,119.34175 z"
       id="path3517"
       sodipodi:nodetypes="ccccc" />
    <path
       style="fill:url(#linearGradient2422);fill-rule:evenodd;stroke:none;stroke-width:1px;stroke-linecap:butt;stroke-linejoin:miter;stroke-opacity:1"
       d="M 67.891891,11.07027 L 72.129729,11.502703 L 80,12.8 L 87.61081,13.924324 L 92.108108,14.183784 L 97.383783,13.578378 L 95.135135,15.74054 L 91.762162,16.778378 L 86.4,17.297297 L 80,17.47027 L 73.859459,17.902703 L 67.286486,19.113513 L 66.94054,16.518919 L 67.027027,14.097297 L 67.891891,11.07027 z"
       id="path2420" />
    <path
       style="fill:url(#linearGradient2426);fill-rule:evenodd;stroke:none;stroke-width:1px;stroke-linecap:butt;stroke-linejoin:miter;stroke-opacity:1"
       d="M 101.44865,85.967568 L 103.17838,113.2973 L 103.35135,114.16217 L 105.51352,115.45946 L 106.46487,115.11352 L 107.84865,114.5946 L 108.36757,113.98919 L 106.8973,99.805405 L 105.42703,85.621622 L 103.95676,85.102703 L 102.65946,85.362162 L 101.44865,85.967568 z"
       id="path2424" />
    <path
       style="fill:url(#linearGradient2434);fill-rule:evenodd;stroke:none;stroke-width:1px;stroke-linecap:butt;stroke-linejoin:miter;stroke-opacity:1"
       d="M 58.291891,27.935135 L 59.416216,29.059459 L 61.059459,29.837838 L 63.567567,30.702703 L 67.286486,31.567567 L 69.967567,31.394595 L 76.194594,31.135135 L 80.778378,30.52973 L 83.286486,30.010811 L 85.967567,29.059459 L 84.929729,28.886486 L 79.481081,29.405405 L 73.945945,29.405405 C 73.945945,29.405405 68.324324,28.54054 67.2,28.8 C 66.075675,29.059459 62.183783,28.281081 61.837837,28.281081 C 61.491891,28.281081 58.464864,27.848649 58.291891,27.935135 z"
       id="path2432" />
    <path
       style="fill:url(#linearGradient3370);fill-opacity:1;fill-rule:evenodd;stroke:none;stroke-width:1px;stroke-linecap:butt;stroke-linejoin:miter;stroke-opacity:1"
       d="M 33.816216,35.2 L 38.054054,34.421622 L 42.983783,33.210811 L 48.345945,31.74054 L 52.324324,30.27027 L 58.291891,28.108108 L 59.243243,28.972973 L 62.529729,30.52973 L 67.2,31.74054 L 63.913513,32.432432 L 57.254054,33.643243 L 52.583783,34.508108 L 47.913513,35.372973 L 42.551351,36.237838 C 42.551351,36.237838 37.967567,36.237838 37.362162,35.978378 C 36.756756,35.718919 33.989189,35.545946 33.816216,35.2 z"
       id="path2775"
       sodipodi:nodetypes="ccccccccccccccsc" />
    <path
       style="fill:url(#linearGradient3376);fill-opacity:1;fill-rule:evenodd;stroke:none;stroke-width:1px;stroke-linecap:butt;stroke-linejoin:miter;stroke-opacity:1"
       d="M 68.583783,31.74054 L 71.697297,31.394595 L 75.762162,31.221622 L 79.394594,30.702703 L 82.508108,30.097297 L 86.054054,29.059459 L 88.129729,30.183784 L 96.778378,34.335135 L 105.42703,37.881081 L 108.88649,39.178378 L 107.07027,39.783784 L 102.4,39.524324 C 102.4,39.524324 96.778378,38.832432 96.432432,38.832432 C 96.086487,38.832432 86.14054,36.92973 86.14054,36.92973 L 74.205405,34.335135 L 68.583783,31.74054 z"
       id="path3374"
       sodipodi:nodetypes="ccccccccccccsccc" />
    <path
       style="fill:url(#linearGradient3380);fill-opacity:1;fill-rule:evenodd;stroke:none;stroke-width:1px;stroke-linecap:butt;stroke-linejoin:miter;stroke-opacity:1"
       d="M 69.102702,31.913513 L 76.108108,34.421622 L 84.583783,36.583784 L 95.308108,38.486486 L 99.805405,39.351351 L 104.47568,39.783784 L 109.05946,39.264865 L 109.92433,41.081081 L 113.38379,46.52973 L 116.75676,50.94054 L 120.30271,54.313513 L 119.61081,55.697297 L 115.63244,55.091892 L 106.55135,52.324324 L 94.616216,47.221622 L 82.075675,41.34054 L 73.945945,36.497297 L 71.351351,34.421622 L 68.41081,32.172973 L 69.102702,31.913513 z"
       id="path3378" />
    <path
       style="fill:url(#linearGradient3384);fill-rule:evenodd;stroke:none;stroke-width:1px;stroke-linecap:butt;stroke-linejoin:miter;stroke-opacity:1"
       d="M 109.23244,39.697297 C 109.23244,39.697297 112.08649,42.032432 112.60541,42.897297 C 113.12433,43.762162 117.18919,46.702703 117.18919,46.702703 L 120.04325,50.421622 L 120.90811,53.016216 L 120.56217,54.572973 C 120.56217,54.572973 118.57298,53.189189 118.05406,52.583784 C 117.53514,51.978378 113.2973,46.356757 113.2973,46.356757 L 109.92433,41.081081 L 109.23244,39.697297 z"
       id="path3382" />
    <path
       style="fill:url(#linearGradient3388);fill-opacity:1;fill-rule:evenodd;stroke:none;stroke-width:1px;stroke-linecap:butt;stroke-linejoin:miter;stroke-opacity:1"
       d="M 68.756756,32.172973 L 71.697297,37.016216 L 75.762162,41.254054 L 79.308108,44.713513 L 87.437837,51.2 L 95.74054,57.686486 L 103.61081,63.394595 L 111.65406,68.843243 L 117.44865,72.302703 L 117.62163,67.113513 L 118.14054,61.232432 L 118.91892,57.34054 L 119.6973,55.697297 C 117.11976,55.461385 114.69339,54.923138 112.34595,54.227027 L 101.96757,50.162162 C 101.96757,50.162162 90.81081,45.664865 89.686486,45.059459 C 88.562162,44.454054 78.702702,39.437838 78.702702,39.437838 L 73.34054,36.064865 L 69.448648,32.864865 L 68.756756,32.172973 z"
       id="path3386"
       sodipodi:nodetypes="cccccccccccccccscccc" />
    <path
       style="fill:url(#linearGradient3392);fill-rule:evenodd;stroke:none;stroke-width:1px;stroke-linecap:butt;stroke-linejoin:miter;stroke-opacity:1"
       d="M 120.21622,54.313513 L 119.17838,56.648649 L 118.05406,61.232432 L 117.70811,67.286486 L 117.62163,72.648649 L 119.52433,70.918919 L 121.6,66.075676 L 122.03244,61.232432 L 121.34054,56.562162 L 120.21622,54.313513 z"
       id="path3390"
       sodipodi:nodetypes="cccccccccc" />
    <path
       style="fill:url(#linearGradient3396);fill-rule:evenodd;stroke:none;stroke-width:1px;stroke-linecap:butt;stroke-linejoin:miter;stroke-opacity:1"
       d="M 122.03244,60.886486 L 123.58919,63.827027 L 125.05946,66.594595 L 126.18379,68.064865 L 125.4919,75.589189 L 125.66487,82.421622 L 126.61622,90.637838 L 124.36757,87.87027 L 118.74595,77.145946 L 117.62163,72.735135 L 118.74595,71.697297 L 120.73514,68.67027 L 121.94595,64.518919 L 122.03244,60.886486 z"
       id="path3394" />
    <path
       style="fill:url(#linearGradient3400);fill-rule:evenodd;stroke:none;stroke-width:1px;stroke-linecap:butt;stroke-linejoin:miter;stroke-opacity:1"
       d="M 121.77298,60.454054 L 123.07027,62.616216 L 124.8,66.248649 C 124.8,66.248649 126.0973,67.718919 125.75135,66.767568 C 125.40541,65.816216 124.36757,62.962162 124.36757,62.962162 L 124.28108,60.281081 L 122.81081,57.859459 L 121.16757,53.448649 L 120.56217,54.659459 L 121.34054,56.908108 L 121.77298,60.454054 z"
       id="path3398" />
    <path
       style="fill:url(#linearGradient3404);fill-rule:evenodd;stroke:none;stroke-width:1px;stroke-linecap:butt;stroke-linejoin:miter;stroke-opacity:1"
       d="M 68.324324,32.259459 L 69.535135,33.297297 L 71.87027,37.016216 L 74.724324,40.389189 L 77.145945,42.724324 L 82.594594,47.481081 L 94.356756,56.735135 L 102.31351,62.52973 L 113.81622,70.054054 L 117.70811,72.562162 L 115.11352,74.032432 L 110.87568,78.097297 L 104.73514,83.459459 L 102.31351,85.448649 L 101.18919,86.14054 L 89.081081,68.67027 L 75.502702,47.308108 L 70.313513,37.275676 L 68.324324,32.259459 z"
       id="path3402" />
    <path
       style="fill:url(#linearGradient3410);fill-rule:evenodd;stroke:none;stroke-width:1px;stroke-linecap:butt;stroke-linejoin:miter;stroke-opacity:1"
       d="M 102.48649,85.362162 L 105.68649,82.421622 L 109.40541,79.394595 L 113.2973,75.848649 L 117.36217,72.562162 L 117.10271,74.032432 L 115.8919,77.578378 L 114.16217,80 L 112.6919,81.643243 L 109.92433,83.632432 L 105.68649,85.189189 L 102.48649,85.362162 z"
       id="path3408" />
    <path
       style="fill:url(#linearGradient3414);fill-rule:evenodd;stroke:none;stroke-width:1px;stroke-linecap:butt;stroke-linejoin:miter;stroke-opacity:1"
       d="M 105.16757,85.275676 L 108.10811,84.324324 L 110.87568,83.113513 L 113.2973,81.037838 L 115.54595,78.27027 L 117.7946,72.994595 L 118.65946,76.367568 L 121.25406,82.594595 L 126.01081,90.551351 L 123.24325,89.427027 L 119.43784,86.486486 C 119.43784,86.486486 118.31352,84.67027 118.05406,84.324324 C 117.7946,83.978378 117.27568,80.518919 117.27568,80.518919 L 116.67027,81.72973 L 115.28649,83.805405 L 111.91352,85.362162 L 108.54054,85.708108 L 105.16757,85.275676 z"
       id="path3412" />
    <path
       style="fill:url(#linearGradient3418);fill-rule:evenodd;stroke:none;stroke-width:1px;stroke-linecap:butt;stroke-linejoin:miter;stroke-opacity:1"
       d="M 105.6,85.448649 L 108.62703,85.621622 L 112.08649,85.362162 L 114.85406,84.064865 L 116.4973,82.075676 L 117.18919,80.518919 L 117.57839,82.378378 L 118.31352,84.843243 L 119.95676,87.178378 L 121.6,88.648649 L 123.93514,89.772973 L 126.44325,90.810811 L 126.96217,92.194595 L 123.58919,91.762162 L 118.48649,91.07027 L 114.33514,90.032432 L 109.05946,88.216216 L 105.6,86.572973 L 105.6,85.448649 z"
       id="path3416"
       sodipodi:nodetypes="ccccccccccccccccccc" />
    <path
       style="fill:url(#linearGradient3424);fill-rule:evenodd;stroke:none;stroke-width:1px;stroke-linecap:butt;stroke-linejoin:miter;stroke-opacity:1"
       d="M 68.67027,32.345946 L 70.659459,38.14054 L 77.664864,51.027027 L 87.005405,65.47027 L 101.44865,86.227027 L 94.27027,87.610811 L 85.448648,90.637838 L 78.529729,92.972973 L 77.405405,92.972973 L 75.07027,81.989189 L 71.61081,60.021622 L 68.756756,36.92973 L 68.237837,32.778378 L 68.67027,32.345946 z"
       id="path3422" />
    <path
       style="fill:url(#linearGradient3428);fill-rule:evenodd;stroke:none;stroke-width:1px;stroke-linecap:butt;stroke-linejoin:miter;stroke-opacity:1"
       d="M 78.616216,92.886486 L 82.335135,91.502703 L 89.6,89.254054 L 94.529729,87.697297 L 101.27568,86.4 L 101.53514,87.005405 L 100.84324,88.043243 L 97.47027,91.935135 L 94.616216,93.578378 L 91.416216,94.702703 L 86.659459,95.308108 C 86.659459,95.308108 82.508108,94.789189 81.989189,94.616216 C 81.47027,94.443243 78.789189,93.491892 78.789189,93.491892 L 78.616216,92.886486 z"
       id="path3426" />
    <path
       style="fill:url(#linearGradient3432);fill-rule:evenodd;stroke:none;stroke-width:1px;stroke-linecap:butt;stroke-linejoin:miter;stroke-opacity:1"
       d="M 77.924324,93.232432 L 77.578378,95.74054 L 77.751351,101.27568 L 78.27027,106.55135 L 80.691891,119.61081 L 81.47027,123.58919 L 82.335135,123.41622 L 83.113513,117.10271 L 83.805405,110.96217 L 83.718918,106.8973 L 82.594594,102.22703 L 84.324324,101.44865 L 88.129729,99.459459 L 94.789189,94.443243 L 96,92.972973 L 93.491891,94.010811 L 90.291891,94.875676 C 90.291891,94.875676 86.659459,95.135135 86.313513,95.135135 C 85.967567,95.135135 81.989189,94.616216 81.989189,94.616216 L 77.924324,93.232432 z"
       id="path3430" />
    <path
       style="fill:url(#linearGradient3436);fill-rule:evenodd;stroke:none;stroke-width:1px;stroke-linecap:butt;stroke-linejoin:miter;stroke-opacity:1"
       d="M 96.432432,92.54054 L 94.356756,94.52973 L 91.329729,97.210811 L 88.562162,99.113513 L 85.189189,100.92973 L 82.508108,102.22703 L 83.372973,104.56217 L 83.718918,107.93514 L 83.805405,111.48108 L 83.027027,117.10271 L 82.162162,123.50271 L 83.027027,123.07027 L 88.475675,117.36217 C 88.475675,117.36217 95.048648,107.50271 94.616216,107.76217 C 94.183783,108.02162 95.913513,105.68649 95.913513,105.68649 L 97.383783,102.14054 L 99.286486,96.951351 L 100.92973,91.589189 L 101.62162,88.908108 L 101.62162,86.832432 L 100.67027,88.389189 L 96.432432,92.54054 z"
       id="path3434" />
    <path
       style="fill:url(#linearGradient3440);fill-rule:evenodd;stroke:none;stroke-width:1px;stroke-linecap:butt;stroke-linejoin:miter;stroke-opacity:1"
       d="M 68.075145,32.190835 L 68.693863,34.400543 L 69.666135,44.123262 L 72.229397,64.275805 L 74.704271,79.301824 L 76.737203,89.554872 L 77.621087,93.002018 C 77.621087,93.002018 72.936504,92.560076 72.582951,92.560076 C 72.229397,92.560076 62.329902,91.852969 62.329902,91.852969 L 52.695572,91.764581 L 49.778757,91.764581 L 54.286563,80.892814 L 60.8273,64.01064 L 65.158329,49.780116 L 66.837708,42.443883 L 67.633203,36.963805 L 67.80998,33.51666 L 68.075145,32.190835 z"
       id="path3438" />
    <path
       style="fill:url(#linearGradient3446);fill-rule:evenodd;stroke:none;stroke-width:1px;stroke-linecap:butt;stroke-linejoin:miter;stroke-opacity:1"
       d="M 49.955534,91.941358 L 54.463339,91.852969 L 62.418291,91.852969 L 68.87064,92.294911 L 75.499766,92.825241 L 78.239805,93.178795 L 77.621087,94.50462 L 75.85332,96.09561 L 70.46163,98.128542 L 65.511883,98.747261 L 60.473747,98.040154 L 55.700776,96.183998 L 51.811689,93.97429 L 49.955534,91.941358 z"
       id="path3444" />
    <path
       style="fill:url(#linearGradient3450);fill-rule:evenodd;stroke:none;stroke-width:1px;stroke-linecap:butt;stroke-linejoin:miter;stroke-opacity:1"
       d="M 45.712893,122.52373 L 47.591145,112.40327 L 49.093747,102.90151 L 49.60198,96.183998 L 49.778757,91.764581 L 51.369747,93.44396 L 55.435611,96.09561 L 59.501475,97.6866 L 63.832504,98.747261 L 68.693863,98.747261 L 75.588155,96.449164 L 77.886252,94.416232 L 77.621087,97.244659 L 77.797863,100.42664 L 78.151417,105.288 L 79.388853,112.71262 L 81.598562,123.67278 L 75.85332,122.61212 L 70.373242,122.25856 L 65.069941,121.81662 L 59.059533,121.55146 L 53.844621,121.55146 L 48.187767,122.08179 L 45.712893,122.52373 z"
       id="path3448"
       sodipodi:nodetypes="cccccccccccccccccccccccc" />
    <path
       style="fill:url(#linearGradient3455);fill-rule:evenodd;stroke:none;stroke-width:1px;stroke-linecap:butt;stroke-linejoin:miter;stroke-opacity:1"
       d="M 67.721592,31.748893 L 67.986757,33.958602 L 67.633203,37.052194 L 66.74932,43.062601 L 62.683456,57.911844 L 57.468543,73.11464 L 50.220699,91.676193 L 47.038718,89.996814 L 40.232815,86.726445 L 34.045631,84.074795 L 28.477165,82.74897 L 28.477165,82.307028 L 34.664349,77.445669 L 41.823806,70.462989 L 50.397475,59.944776 L 58.352427,49.426562 L 64.362834,39.703844 L 66.660931,34.754097 L 67.368038,32.367611 L 67.721592,31.748893 z"
       id="path3452" />
    <path
       style="fill:url(#linearGradient3461);fill-rule:evenodd;stroke:none;stroke-width:1px;stroke-linecap:butt;stroke-linejoin:miter;stroke-opacity:1"
       d="M 28.123612,82.660581 L 32.984971,83.721241 L 38.641825,85.93095 L 43.679961,88.582601 L 50.043922,91.587804 L 49.513592,91.941358 L 46.331611,93.002018 L 41.470252,92.736853 L 36.343728,91.057474 C 36.343728,91.057474 33.073359,88.317436 32.277864,87.963882 C 31.482369,87.610329 28.830719,83.80963 28.830719,83.80963 L 28.123612,82.660581 z"
       id="path3459" />
    <path
       style="fill:url(#linearGradient3465);fill-rule:evenodd;stroke:none;stroke-width:1px;stroke-linecap:butt;stroke-linejoin:miter;stroke-opacity:1"
       d="M 27.770058,82.395416 L 27.239728,86.814834 L 26.532621,90.085202 L 24.764855,96.272387 L 19.196389,111.03324 L 21.229321,111.29841 L 26.002291,112.8894 L 33.692078,116.15977 L 40.851534,120.04886 L 45.801281,122.78889 L 47.392272,114.03845 L 48.718097,105.72994 L 49.336815,100.07309 L 49.778757,91.764581 L 48.187767,92.471688 L 43.238019,93.002018 L 38.37666,91.941358 L 35.371456,90.261979 L 32.101087,87.52194 L 29.184272,84.251572 L 27.770058,82.395416 z"
       id="path3463" />
    <path
       style="fill:url(#linearGradient3469);fill-opacity:1;fill-rule:evenodd;stroke:none;stroke-width:1px;stroke-linecap:butt;stroke-linejoin:miter;stroke-opacity:1"
       d="M 16.191185,66.573902 L 21.406097,64.982912 L 29.27266,61.88932 L 36.432116,58.088621 L 44.652233,52.431766 L 54.198174,44.830368 L 60.385359,38.731572 L 67.191261,32.014058 L 67.544815,32.190835 L 66.395766,35.10765 L 62.860232,42.443883 L 57.556932,50.310446 L 50.309087,59.944776 L 43.679961,68.341669 L 36.962447,75.412737 L 31.040427,80.274096 L 28.035223,82.483805 L 23.527418,75.412737 L 18.400893,69.048776 L 16.191185,66.573902 z"
       id="path3467" />
    <path
       style="fill:url(#linearGradient3473);fill-opacity:1;fill-rule:evenodd;stroke:none;stroke-width:1px;stroke-linecap:butt;stroke-linejoin:miter;stroke-opacity:1"
       d="M 16.45635,67.19262 L 20.610602,70.904931 L 23.173864,75.147572 L 26.355845,79.655377 L 28.123612,82.925746 L 25.295185,81.246368 L 20.345437,76.82695 L 16.898292,70.993319 L 16.102796,67.899727 L 16.45635,67.19262 z"
       id="path3471" />
    <path
       style="fill:url(#linearGradient3477);fill-rule:evenodd;stroke:none;stroke-width:1px;stroke-linecap:butt;stroke-linejoin:miter;stroke-opacity:1"
       d="M 9.0317291,85.312232 L 10.976273,82.660581 L 13.185981,77.88761 L 14.423418,74.617242 C 15.354547,72.244471 15.787523,70.03775 16.014408,67.899727 L 16.98668,71.435261 L 18.931224,74.70563 L 22.024816,78.417941 L 24.853243,80.892814 L 27.68167,82.74897 L 27.15134,88.05227 L 24.411301,97.598212 L 19.019612,111.12163 L 18.312505,105.55317 L 16.014408,97.067882 L 13.009205,90.527144 L 9.0317291,85.312232 z"
       id="path3475"
       sodipodi:nodetypes="ccccccccccccccccc" />
    <path
       style="fill:url(#linearGradient3481);fill-rule:evenodd;stroke:none;stroke-width:1px;stroke-linecap:butt;stroke-linejoin:miter;stroke-opacity:1"
       d="M 10.092389,65.336465 L 12.478875,63.303533 L 13.893088,61.270601 L 14.423418,63.215145 L 15.749243,66.485514 L 16.014408,68.430057 L 15.572466,71.081708 L 14.246641,75.589513 L 11.153049,82.483805 L 9.2085058,85.665785 L 8.8549524,85.223843 L 9.9156126,80.274096 L 10.799496,72.495921 L 10.092389,65.336465 z"
       id="path3479" />
    <path
       style="fill:url(#linearGradient3485);fill-rule:evenodd;stroke:none;stroke-width:1px;stroke-linecap:butt;stroke-linejoin:miter;stroke-opacity:1"
       d="M 15.92602,66.66229 L 17.428622,57.735067 L 18.04734,50.222058 L 17.693787,50.222058 L 16.544738,52.78532 L 15.130525,56.586019 L 14.423418,59.149281 L 14.246641,62.596426 L 14.953748,64.717747 L 15.92602,66.66229 z"
       id="path3483" />
    <path
       style="fill:url(#linearGradient3489);fill-opacity:1;fill-rule:evenodd;stroke:none;stroke-width:1px;stroke-linecap:butt;stroke-linejoin:miter;stroke-opacity:1"
       d="M 17.782175,49.868504 L 26.797787,46.951689 L 43.591573,41.56 L 57.203378,35.903145 L 63.744116,32.98633 L 66.837708,31.748893 L 67.544815,31.748893 L 65.246718,33.781825 L 57.203378,41.825165 L 46.95033,50.752388 L 40.232815,55.613747 L 33.603689,59.679611 L 26.886175,62.773203 L 22.466757,64.629358 L 18.135728,65.955184 L 15.837631,66.485514 L 16.898292,62.242873 L 17.428622,57.116349 L 17.870563,52.25499 L 17.782175,49.868504 z"
       id="path3487" />
    <path
       style="fill:url(#linearGradient3493);fill-opacity:1;fill-rule:evenodd;stroke:none;stroke-width:1px;stroke-linecap:butt;stroke-linejoin:miter;stroke-opacity:1"
       d="M 18.135728,49.161397 C 18.135728,49.161397 25.295185,43.68132 25.648738,43.327766 C 26.002291,42.974213 28.74233,40.764504 28.74233,40.764504 L 31.835922,37.582524 L 33.692078,35.196038 L 37.84633,36.16831 L 44.210291,35.991534 L 50.574252,35.019262 L 64.716388,32.014058 L 66.837708,31.837281 L 64.274446,32.721165 L 53.491068,37.494136 L 45.182563,40.941281 L 36.697281,44.034873 L 22.731923,48.277514 L 18.135728,49.603339 L 18.135728,49.161397 z"
       id="path3491" />
    <path
       id="path3495"
       d="M 68.075145,32.190835 L 68.693863,34.400543 L 69.666135,44.123262 L 72.229397,64.275805 L 74.704271,79.301824 L 76.737203,89.554872 L 77.621087,93.002018 C 77.621087,93.002018 72.936504,92.560076 72.582951,92.560076 C 72.229397,92.560076 62.329902,91.852969 62.329902,91.852969 L 52.695572,91.764581 L 49.778757,91.764581 L 54.286563,80.892814 L 60.8273,64.01064 L 65.158329,49.780116 L 66.837708,42.443883 L 67.633203,36.963805 L 67.80998,33.51666 L 68.075145,32.190835 z"
       style="fill:#000000;fill-opacity:0.15686275;fill-rule:evenodd;stroke:none;stroke-width:1px;stroke-linecap:butt;stroke-linejoin:miter;stroke-opacity:1" />
    <path
       id="path3497"
       d="M 49.955534,91.941358 L 54.463339,91.852969 L 62.418291,91.852969 L 68.87064,92.294911 L 75.499766,92.825241 L 78.239805,93.178795 L 77.621087,94.50462 L 75.85332,96.09561 L 70.46163,98.128542 L 65.511883,98.747261 L 60.473747,98.040154 L 55.700776,96.183998 L 51.811689,93.97429 L 49.955534,91.941358 z"
       style="fill:#000000;fill-opacity:0.15686275;fill-rule:evenodd;stroke:none;stroke-width:1px;stroke-linecap:butt;stroke-linejoin:miter;stroke-opacity:1" />
    <path
       sodipodi:nodetypes="cccccccccccccccccccccccc"
       id="path3499"
       d="M 45.712893,122.52373 L 47.591145,112.40327 L 49.093747,102.90151 L 49.60198,96.183998 L 49.778757,91.764581 L 51.369747,93.44396 L 55.435611,96.09561 L 59.501475,97.6866 L 63.832504,98.747261 L 68.693863,98.747261 L 75.588155,96.449164 L 77.886252,94.416232 L 77.621087,97.244659 L 77.797863,100.42664 L 78.151417,105.288 L 79.388853,112.71262 L 81.598562,123.67278 L 75.85332,122.61212 L 70.373242,122.25856 L 65.069941,121.81662 L 59.059533,121.55146 L 53.844621,121.55146 L 48.187767,122.08179 L 45.712893,122.52373 z"
       style="fill:#000000;fill-opacity:0.15686275;fill-rule:evenodd;stroke:none;stroke-width:1px;stroke-linecap:butt;stroke-linejoin:miter;stroke-opacity:1" />
    <path
       id="path3501"
       d="M 67.721592,31.748893 L 67.986757,33.958602 L 67.633203,37.052194 L 66.74932,43.062601 L 62.683456,57.911844 L 57.468543,73.11464 L 50.220699,91.676193 L 47.038718,89.996814 L 40.232815,86.726445 L 34.045631,84.074795 L 28.477165,82.74897 L 28.477165,82.307028 L 34.664349,77.445669 L 41.823806,70.462989 L 50.397475,59.944776 L 58.352427,49.426562 L 64.362834,39.703844 L 66.660931,34.754097 L 67.368038,32.367611 L 67.721592,31.748893 z"
       style="fill:#000000;fill-opacity:0.15686275;fill-rule:evenodd;stroke:none;stroke-width:1px;stroke-linecap:butt;stroke-linejoin:miter;stroke-opacity:1" />
    <path
       id="path3503"
       d="M 28.123612,82.660581 L 32.984971,83.721241 L 38.641825,85.93095 L 43.679961,88.582601 L 50.043922,91.587804 L 49.513592,91.941358 L 46.331611,93.002018 L 41.470252,92.736853 L 36.343728,91.057474 C 36.343728,91.057474 33.073359,88.317436 32.277864,87.963882 C 31.482369,87.610329 28.830719,83.80963 28.830719,83.80963 L 28.123612,82.660581 z"
       style="fill:#000000;fill-opacity:0.15686275;fill-rule:evenodd;stroke:none;stroke-width:1px;stroke-linecap:butt;stroke-linejoin:miter;stroke-opacity:1" />
    <path
       id="path3505"
       d="M 27.770058,82.395416 L 27.239728,86.814834 L 26.532621,90.085202 L 24.764855,96.272387 L 19.196389,111.03324 L 21.229321,111.29841 L 26.002291,112.8894 L 33.692078,116.15977 L 40.851534,120.04886 L 45.801281,122.78889 L 47.392272,114.03845 L 48.718097,105.72994 L 49.336815,100.07309 L 49.778757,91.764581 L 48.187767,92.471688 L 43.238019,93.002018 L 38.37666,91.941358 L 35.371456,90.261979 L 32.101087,87.52194 L 29.184272,84.251572 L 27.770058,82.395416 z"
       style="fill:#000000;fill-opacity:0.15686275;fill-rule:evenodd;stroke:none;stroke-width:1px;stroke-linecap:butt;stroke-linejoin:miter;stroke-opacity:1" />
    <path
       id="path3507"
       d="M 16.191185,66.573902 L 21.406097,64.982912 L 29.27266,61.88932 L 36.432116,58.088621 L 44.652233,52.431766 L 54.198174,44.830368 L 60.385359,38.731572 L 67.191261,32.014058 L 67.544815,32.190835 L 66.395766,35.10765 L 62.860232,42.443883 L 57.556932,50.310446 L 50.309087,59.944776 L 43.679961,68.341669 L 36.962447,75.412737 L 31.040427,80.274096 L 28.035223,82.483805 L 23.527418,75.412737 L 18.400893,69.048776 L 16.191185,66.573902 z"
       style="fill:#000000;fill-opacity:0.15686275;fill-rule:evenodd;stroke:none;stroke-width:1px;stroke-linecap:butt;stroke-linejoin:miter;stroke-opacity:1" />
    <path
       id="path3509"
       d="M 16.45635,67.19262 L 20.610602,70.904931 L 23.173864,75.147572 L 26.355845,79.655377 L 28.123612,82.925746 L 25.295185,81.246368 L 20.345437,76.82695 L 16.898292,70.993319 L 16.102796,67.899727 L 16.45635,67.19262 z"
       style="fill:#000000;fill-opacity:0.15686275;fill-rule:evenodd;stroke:none;stroke-width:1px;stroke-linecap:butt;stroke-linejoin:miter;stroke-opacity:1" />
    <path
       sodipodi:nodetypes="ccccccccccccccccc"
       id="path3511"
       d="M 9.0317291,85.312232 L 10.976273,82.660581 L 13.185981,77.88761 L 14.423418,74.617242 C 15.354547,72.244471 15.787523,70.03775 16.014408,67.899727 L 16.98668,71.435261 L 18.931224,74.70563 L 22.024816,78.417941 L 24.853243,80.892814 L 27.68167,82.74897 L 27.15134,88.05227 L 24.411301,97.598212 L 19.019612,111.12163 L 18.312505,105.55317 L 16.014408,97.067882 L 13.009205,90.527144 L 9.0317291,85.312232 z"
       style="fill:#000000;fill-opacity:0.15686275;fill-rule:evenodd;stroke:none;stroke-width:1px;stroke-linecap:butt;stroke-linejoin:miter;stroke-opacity:1" />
    <path
       id="path3513"
       d="M 10.092389,65.336465 L 12.478875,63.303533 L 13.893088,61.270601 L 14.423418,63.215145 L 15.749243,66.485514 L 16.014408,68.430057 L 15.572466,71.081708 L 14.246641,75.589513 L 11.153049,82.483805 L 9.2085058,85.665785 L 8.8549524,85.223843 L 9.9156126,80.274096 L 10.799496,72.495921 L 10.092389,65.336465 z"
       style="fill:#000000;fill-opacity:0.15686275;fill-rule:evenodd;stroke:none;stroke-width:1px;stroke-linecap:butt;stroke-linejoin:miter;stroke-opacity:1" />
    <path
       id="path3515"
       d="M 15.92602,66.66229 L 17.428622,57.735067 L 18.04734,50.222058 L 17.693787,50.222058 L 16.544738,52.78532 L 15.130525,56.586019 L 14.423418,59.149281 L 14.246641,62.596426 L 14.953748,64.717747 L 15.92602,66.66229 z"
       style="fill:#000000;fill-opacity:0.15686275;fill-rule:evenodd;stroke:none;stroke-width:1px;stroke-linecap:butt;stroke-linejoin:miter;stroke-opacity:1" />
  </g>
  <g
     inkscape:label="outline"
     inkscape:groupmode="layer"
     id="layer1">
    <path
       style="opacity:1;fill:#000000;fill-opacity:1;stroke:none;stroke-width:2.37469864;stroke-miterlimit:4;stroke-dasharray:none;stroke-opacity:1"
       d="M 67.358789,8.7841338 C 66.27754,15.392182 66.936181,22.000229 66.911486,28.608277 C 63.982614,28.796019 61.059107,27.978671 58.130236,27.670777 C 50.743738,31.410381 42.191063,33.567316 33.161486,35.077027 C 30.021228,41.13024 22.889558,44.753897 17.317736,49.327027 C 17.584533,50.645438 16.416435,52.649946 15.505236,54.452027 C 14.756132,56.100467 14.135468,57.769978 14.255236,59.702027 C 13.28047,62.042758 11.611095,63.831886 10.098986,65.233277 C 10.23988,72.00419 10.422182,79.072807 8.4427365,85.608277 C 16.073524,92.452621 17.91984,104.68641 18.755236,111.23328 C 27.00319,111.90218 36.729492,118.48447 45.942736,123.01453 C 52.622944,120.5871 65.906679,121.50219 82.098986,123.88953 C 92.10435,116.76704 98.068054,102.64124 101.50524,89.983277 C 102.01862,98.882849 102.14198,104.59491 102.97399,113.92078 C 105.46129,116.81365 107.03074,115.39588 108.56774,114.17078 C 107.57335,105.41539 106.71831,95.812997 105.94274,86.889527 C 108.95914,88.995645 116.33677,91.559734 127.00524,92.202027 C 126.00728,84.124748 125.12167,75.925025 126.72399,67.733277 C 125.48693,65.451652 124.53702,62.818298 124.38024,60.170777 C 123.06458,58.658454 122.31329,55.576044 121.34899,53.358277 C 121.44347,51.9623 120.22813,50.38053 119.38024,49.170777 C 117.32519,46.464263 113.44798,43.396095 109.03649,39.295777 C 108.9539,39.170491 108.86986,39.045651 108.78649,38.920777 C 98.593032,35.459289 93.054958,32.184016 85.473986,28.827027 C 76.637166,29.421212 74.902352,29.612723 68.161486,28.670777 L 68.661486,18.858277 C 86.471096,15.451735 93.244866,20.039403 97.889724,13.11808 C 88.811119,15.445936 78.52887,11.755567 68.817736,10.920777 L 68.005236,9.1376872 L 67.358789,8.7841338 z M 68.067736,11.858277 C 77.427066,11.690998 86.945235,15.415413 96.693182,14.101995 C 92.112853,19.200968 77.335757,16.167816 67.657044,18.128804 C 67.37466,16.18821 66.431026,14.438569 68.067736,11.858277 z M 58.536486,28.202027 C 61.340588,28.518536 63.827347,28.823019 66.973986,29.139527 L 67.005236,30.952027 C 66.987627,30.959044 66.720371,31.066019 66.692736,31.077027 C 64.237026,31.322843 60.913688,29.806627 58.536486,28.202027 z M 58.098986,28.389527 C 60.411799,30.277794 64.01882,31.242414 66.289088,31.733277 C 61.519494,32.19859 56.988642,33.761344 52.244513,34.445745 C 45.720082,35.85767 40.106569,36.222982 34.380236,35.264527 C 43.643438,33.549029 51.369001,30.911047 58.098986,28.389527 z M 68.098986,29.202027 C 73.608753,29.638598 78.818639,29.803876 85.161486,29.295777 C 80.674949,30.618344 73.904325,31.221015 69.348986,31.358277 L 68.630236,31.389527 C 68.577986,31.391081 68.526248,31.387967 68.473986,31.389527 C 68.307539,31.276741 68.176698,31.168194 68.130236,31.108277 L 68.036486,31.139527 L 68.098986,29.202027 z M 85.942736,29.233277 C 92.949655,32.5072 99.3762,36.27121 108.34899,39.108277 C 102.12215,40.217043 95.423163,38.36442 89.286486,37.202027 C 82.46955,35.93569 75.74693,34.283305 69.262437,31.827947 C 74.24908,31.745503 80.963394,30.94697 85.942736,29.233277 z M 67.067736,32.389527 C 67.053538,32.520565 67.099819,32.548411 67.067736,32.702027 C 64.225692,41.644515 56.276151,51.766023 49.707901,60.253804 C 43.9016,67.965844 36.810369,76.532237 28.130236,81.858277 C 24.370714,76.934069 21.631857,70.799089 16.552571,66.754724 C 39.427812,60.047984 53.022428,46.49002 67.067736,32.389527 z M 66.737311,31.93242 C 53.116438,45.905863 38.903084,60.21379 16.348986,66.170777 C 17.243342,60.920777 17.949425,55.052059 18.260598,49.802059 C 26.938956,47.118819 35.827713,44.79217 44.296289,41.518969 C 54.415402,37.598758 63.696273,33.145978 66.737311,31.93242 z M 68.866911,32.08959 C 75.09472,35.590343 81.996961,36.238632 88.922209,37.640447 C 95.55948,38.664225 104.58699,41.061651 108.69274,39.545777 C 111.91079,44.496033 115.24208,50.148162 119.79495,54.542273 C 119.99739,54.737653 119.32011,55.371614 119.53113,55.560022 C 111.26197,54.659722 102.1421,50.072213 94.417768,46.873442 C 85.870132,42.802425 75.914484,38.667994 68.866911,32.08959 z M 65.782649,31.980675 C 61.250911,33.771332 50.842872,38.525261 44.394481,41.02341 C 36.215884,44.117659 27.317313,46.565828 18.973986,49.202027 C 23.889993,44.876089 29.835713,40.342347 33.598986,35.702027 C 39.522677,37.254006 45.933357,36.055329 52.192736,34.795777 C 55.230141,34.370836 63.262186,32.410623 65.782649,31.980675 z M 67.531125,32.409292 C 68.863731,42.396425 57.818933,72.289784 49.915928,91.191304 C 43.2843,88.204559 36.186626,83.763422 28.818656,82.249362 C 37.143313,76.606806 43.965816,68.433641 50.223986,60.670777 C 56.252851,51.762156 64.650446,43.072947 67.531125,32.409292 z M 69.032964,32.84143 C 70.65906,36.789226 73.743309,39.60056 76.786486,42.483277 C 81.472596,46.854932 87.592926,51.850645 93.661486,56.483277 C 101.1487,61.922173 108.95638,67.822918 117.12932,72.233277 L 102.34899,85.139527 L 101.39632,85.789495 C 95.50353,77.832612 89.959365,69.186827 84.344544,61.029692 C 78.524447,52.035931 71.190201,40.29563 69.032964,32.84143 z M 68.594544,32.945903 C 71.91663,43.268914 78.114165,52.259641 83.942736,61.295777 C 89.383306,69.647945 94.956367,77.916831 100.94274,85.889527 C 93.380236,87.301644 85.464183,90.3548 77.901683,92.873442 C 77.118021,90.306515 76.439802,87.393442 75.912406,84.764527 C 72.757279,68.413857 70.262768,49.509941 68.594544,32.945903 z M 69.265197,32.74952 C 76.202287,39.706934 85.754132,43.654682 94.630236,47.514527 C 102.70016,50.36207 110.6347,54.993098 119.28649,55.858277 C 117.22353,60.673431 117.76365,66.447907 117.28649,71.685942 C 109.10571,67.258332 101.49058,61.79091 94.078459,56.201107 C 88.027183,51.581669 81.324288,46.36374 76.678491,42.029692 C 74.46441,39.964184 70.654748,34.414085 69.265197,32.74952 z M 68.255236,33.418333 C 69.885284,49.169032 72.590024,69.389745 75.473986,84.952027 C 76.000496,87.618243 76.524478,90.288875 77.317736,92.889527 C 68.317736,91.759045 59.317736,91.752837 50.317736,91.514527 C 57.773682,73.671821 66.68692,51.131059 68.255236,33.418333 z M 109.72399,40.389527 C 113.73981,44.08268 117.48854,47.324219 119.31774,49.733277 C 120.55315,50.956987 120.47184,52.828034 120.25524,54.202027 C 115.56693,50.219197 112.81549,45.217723 109.72399,40.389527 z M 17.723986,50.733277 C 17.682489,55.825746 16.786508,60.922056 15.817736,66.014527 C 13.01149,61.720428 15.853283,54.573075 17.723986,50.733277 z M 121.19274,54.045777 C 121.96665,56.29948 122.73143,58.467076 123.97399,60.514527 C 123.76095,62.390309 124.23609,64.126098 124.94274,65.827027 C 123.89898,64.238722 123.1543,62.193038 122.28649,60.420777 C 121.81415,58.498302 121.92235,56.494 120.75524,54.670777 C 120.94744,54.468866 121.09652,54.265632 121.19274,54.045777 z M 117.78649,72.233277 C 117.98126,66.868431 117.6709,59.256544 120.31774,54.670777 C 122.38344,60.555128 122.26765,67.205704 117.78649,72.233277 z M 122.31774,61.827027 C 123.42645,63.420162 124.40404,66.997011 125.72399,67.920777 C 124.57203,74.862361 125.21813,82.303409 126.16149,89.827027 C 122.50455,84.618969 119.26232,78.866468 118.03649,72.827027 C 121.17888,70.333953 122.28381,65.636491 122.31774,61.827027 z M 13.567736,62.108277 L 15.505236,66.295777 C 16.221717,72.98275 12.430034,79.270941 9.3177365,84.983277 C 10.436025,79.303767 12.313945,70.359938 10.692736,65.264527 C 11.690875,64.270023 12.845758,63.456558 13.567736,62.108277 z M 16.411486,67.733277 C 20.807386,72.09974 24.708119,76.916888 27.692736,82.577027 C 21.702022,79.073972 18.102381,74.454053 16.411486,67.733277 z M 16.130236,68.514527 C 17.082119,75.118552 22.384313,79.467613 27.473986,82.733277 C 27.063794,91.701384 22.288427,101.92859 19.130236,110.67078 C 18.475236,102.63804 15.605727,92.613115 9.6302365,85.639527 C 12.854716,80.823782 15.140802,74.242794 16.130236,68.514527 z M 117.13024,72.983277 C 115.87386,79.730258 110.97171,84.786166 103.44274,84.952027 C 107.73996,81.32387 113.08275,75.922372 117.13024,72.983277 z M 117.63024,73.733277 C 119.25191,79.909465 122.36954,85.407883 125.13024,90.045777 C 120.38159,87.914307 118.08673,85.681435 117.44274,80.264527 L 117.03649,80.233277 C 115.41005,85.341064 110.86626,85.662023 106.31774,85.327027 C 112.93924,83.411958 115.89442,78.666552 117.63024,73.733277 z M 117.22399,80.889527 C 117.62192,87.578946 120.84543,88.578632 126.06774,90.858277 C 126.28909,90.975127 126.34514,91.698304 126.50524,91.795777 C 119.87727,91.880627 111.08023,89.518132 105.75524,86.452027 C 105.50316,86.306879 106.02014,85.601732 105.75524,85.483277 C 111.25256,86.503536 114.9359,85.662229 117.22399,80.889527 z M 28.380236,83.014527 C 35.927818,83.863479 42.507827,88.37289 49.192736,91.702027 C 40.393676,94.972452 33.245702,89.742393 28.380236,83.014527 z M 28.036486,83.108277 C 32.74654,90.086851 41.564494,96.332189 49.473986,91.983277 C 49.698695,101.68112 47.20832,112.93636 45.598986,122.38953 C 37.812131,117.7732 28.644823,113.21312 19.630236,110.63953 C 22.603269,102.1312 27.149451,92.072929 28.036486,83.108277 z M 103.28649,85.452027 C 104.0893,85.377066 104.77102,85.665871 105.28649,85.889527 C 105.28649,85.889527 107.95253,112.95372 107.91149,113.45203 C 107.67796,116.28736 103.45224,114.54454 103.53649,113.70203 L 101.72399,86.077027 C 102.27504,85.667238 102.8048,85.497003 103.28649,85.452027 z M 101.38024,86.670777 C 96.670963,94.535782 88.605791,96.95741 78.911486,93.264527 C 86.240205,90.429921 93.89886,87.386752 101.38024,86.670777 z M 101.50524,87.639527 C 99.513691,100.81359 92.346445,113.77258 82.473986,123.23328 C 83.349525,116.93569 84.983022,108.39679 82.911486,102.29578 C 89.804861,99.372285 96.715763,93.358322 101.50524,87.639527 z M 56.598986,91.952027 C 63.651076,91.957023 70.927762,92.45978 77.786486,93.327027 C 77.777257,93.681896 77.351052,94.375813 77.348986,94.733277 C 68.084359,100.45022 58.128835,99.312953 50.192736,92.108277 C 51.312528,92.058796 52.459859,92.00598 53.598986,91.983277 C 54.595722,91.963412 55.591545,91.951313 56.598986,91.952027 z M 49.973986,92.233277 C 55.608969,99.279388 70.938748,101.86672 77.348986,95.045777 C 76.888436,103.1352 79.525561,114.01683 81.005236,123.04578 C 69.579421,122.11208 57.669453,120.58862 46.192736,122.13953 C 47.735939,113.0906 50.009645,101.7616 49.973986,92.233277 z M 78.348986,93.608277 C 83.587544,95.908284 89.533903,95.973366 94.723986,93.858277 C 91.327538,97.16104 87.337681,100.00227 82.442736,102.13953 C 84.827311,109.04965 83.031626,116.23087 82.036486,123.23328 C 79.896176,113.61524 76.794511,103.33399 78.348986,93.608277 z"
       id="path2308"
       sodipodi:nodetypes="ccccccccccccccccccccccccccccccccccccccccccccccccsccccccccccccccccccccccscccccccccccccccccccccccccccccccccsccccccccccccccccccccccccccccccccccccccccccccccccccccsccccccccccccsccccccccccccccsccccccccccc" />
  </g>
</svg>
