<?xml version="1.0" encoding="UTF-8" standalone="no"?>
<!DOCTYPE svg PUBLIC "-//W3C//DTD SVG 1.0//EN"
"http://www.w3.org/TR/2001/REC-SVG-20010904/DTD/svg10.dtd">
<!-- Created with Sodipodi ("http://www.sodipodi.com/") -->
<svg
   xmlns="http://www.w3.org/2000/svg"
   xmlns:xlink="http://www.w3.org/1999/xlink"
   version="1.0"
   x="0"
   y="0"
   width="437.5"
   height="437.5"
   id="svg32">
  <defs
     id="defs34">
    <linearGradient
       id="linearGradient60">
      <stop
         style="stop-color:#ffffaf;stop-opacity:0.5412;"
         offset="0"
         id="stop61" />
      <stop
         style="stop-color:#0000a2;stop-opacity:0.4471;"
         offset="1"
         id="stop62" />
    </linearGradient>
    <linearGradient
       id="linearGradient57">
      <stop
         style="stop-color:#ffff9f;stop-opacity:0.9608;"
         offset="0"
         id="stop58" />
      <stop
         style="stop-color:#000000;stop-opacity:0.4588;"
         offset="1"
         id="stop59" />
    </linearGradient>
    <linearGradient
       id="linearGradient129">
      <stop
         style="stop-color:#ffffff;stop-opacity:1;"
         offset="0"
         id="stop130" />
      <stop
         style="stop-color:#955d97;stop-opacity:1;"
         offset="1"
         id="stop131" />
    </linearGradient>
    <linearGradient
       x1="0"
       y1="0"
       x2="1"
       y2="1"
       id="linearGradient132"
       xlink:href="#linearGradient60" />
    <linearGradient
       x1="0"
       y1="0"
       x2="1"
       y2="1"
       id="linearGradient142"
       xlink:href="#linearGradient60" />
    <linearGradient
       x1="0"
       y1="0"
       x2="1"
       y2="1"
       id="linearGradient48"
       xlink:href="#linearGradient60" />
    <linearGradient
       x1="0"
       y1="0"
       x2="1"
       y2="1"
       id="linearGradient49"
       xlink:href="#linearGradient60" />
    <linearGradient
       x1="0"
       y1="0"
       x2="1"
       y2="1"
       id="linearGradient50"
       xlink:href="#linearGradient60" />
    <linearGradient
       x1="0"
       y1="0"
       x2="1"
       y2="1"
       id="linearGradient53"
       xlink:href="#linearGradient60" />
    <linearGradient
       x1="0"
       y1="0"
       x2="1"
       y2="1"
       id="linearGradient54"
       xlink:href="#linearGradient60" />
    <linearGradient
       x1="0.52097398"
       y1="7.99999982e-2"
       x2="0.572245"
       y2="1.16570997"
       id="linearGradient158"
       xlink:href="#linearGradient129" />
    <linearGradient
       x1="0.52097398"
       y1="7.99999982e-2"
       x2="0.572245"
       y2="1.16570997"
       id="linearGradient159"
       xlink:href="#linearGradient129" />
    <linearGradient
       x1="0"
       y1="0"
       x2="1"
       y2="1"
       id="linearGradient161"
       xlink:href="#linearGradient57" />
    <linearGradient
       x1="0"
       y1="0"
       x2="1"
       y2="1"
       id="linearGradient163"
       xlink:href="#linearGradient57" />
    <linearGradient
       x1="0"
       y1="0"
       x2="1"
       y2="1"
       id="linearGradient165"
       xlink:href="#linearGradient60" />
    <linearGradient
       x1="0"
       y1="0"
       x2="1"
       y2="1"
       id="linearGradient168"
       xlink:href="#linearGradient60" />
  </defs>
  <path
     d="M 65.03779 383.7143 C 67.80279 389.4757 26.5767 395.8491 24.4108 398.2514 C 39.7186 402.3279 -0.035202 408.5397 7.373998 410.3659 C 12.6344 412.0678 90.84479 423.7227 103.6988 424.176 C 182.4098 429.7896 345.7498 425.7774 375.6368 420.5418 C 411.4518 413.0876 429.5628 412.2793 435.2638 408.6698 C 431.8888 405.6767 400.2298 400.092 407.0888 397.767 C 401.3738 395.1259 388.5358 393.9456 393.9828 388.3177 C 376.7188 386.4937 418.1318 382.4912 391.3618 383.4721 C 386.7458 383.0454 419.6168 373.538 411.6748 372.0845 C 369.5868 361.6384 126.2078 360.4552 82.72979 369.1776 C 76.52779 373.7377 72.28379 382.8213 65.03779 383.7143 z "
     style="font-size:12;fill:#a2aac4;fill-opacity:1;fill-rule:evenodd;"
     id="path19" />
  <path
     d="M 83.38305 384.6213 C 88.98558 389.0235 31.33926 398.284 41.85205 400.2038 C 231.436 407.6218 191.9213 411.9474 336.1855 411.4518 C 343.812 409.3627 372.7268 399.7921 374.3573 391.7309 C 328.6253 388.0194 179.8518 381.868 83.38305 384.6213 z "
     style="font-size:12;fill-opacity:0.226601;fill-rule:evenodd;"
     id="path20" />
  <path
     style="font-size:12;fill:#7f7f7f;fill-opacity:1;fill-rule:evenodd;stroke:#000000;"
     id="path68" />
  <path
     style="font-size:12;fill:#7f7f7f;fill-opacity:1;fill-rule:evenodd;stroke:#000000;"
     id="path47" />
  <path
     d="M 208.0317 107.5477 C 201.4787 112.7897 212.6977 360.386 213.9287 380.6989 C 229.1047 380.6989 354.791 383.6362 372.4829 386.7372 C 402.1419 301.7982 403.9037 126.2347 392.1617 103.6167 C 380.7017 100.7427 221.7927 100.9707 208.0317 107.5477 z "
     style="font-size:12;fill:url(#linearGradient158);fill-opacity:1;fill-rule:evenodd;stroke:#000000;stroke-width:9.999999;"
     id="path132" />
  <path
     d="M 270.3095 40.05548 C 271.3302 40.05548 394.289 94.85318 390.8517 100.9962 C 369.8673 99.87418 229.2355 99.68518 215.2397 100.3412 C 234.6599 77.57918 262.0837 48.50218 270.3095 40.05548 z "
     style="font-size:12;fill:#dd0000;fill-opacity:1;fill-rule:evenodd;stroke-width:9.663321;"
     id="path133" />
  <path
     d="M 339.7418 73.15882 C 342.9678 63.42163 342.9778 37.75075 341.7078 30.22659 C 353.2858 31.40848 352.8468 30.31534 361.3648 31.11176 C 359.0118 36.67396 360.7098 73.74916 360.7098 80.68325 C 352.5508 77.38507 349.7458 75.37157 339.7418 73.15882 z "
     style="font-size:12;fill:#baffff;fill-opacity:1;fill-rule:evenodd;stroke:#000000;stroke-width:8.218533;"
     id="path134" />
  <path
     d="M 74.00343 177.1645 C 55.00073 188.6498 60.51842 289.4947 86.27908 382.1055 C 96.89045 382.1055 202.2524 379.9347 214.623 382.2688 C 216.1179 366.1786 206.1415 187.3806 205.6562 179.7129 C 197.6431 177.5497 91.02033 172.2284 74.00343 177.1645 z "
     style="font-size:12;fill:url(#linearGradient159);fill-opacity:1;fill-rule:evenodd;stroke:#000000;stroke-width:7.254615;"
     id="path135" />
  <path
     d="M 163.3286 126.3038 C 162.6474 126.3038 86.70377 167.5493 82.87517 172.1731 C 96.88073 171.3286 193.2363 172.4968 202.5775 172.9905 C 200.7557 161.7551 168.8188 132.6615 163.3286 126.3038 z "
     style="font-size:12;fill:#dd0000;fill-opacity:1;fill-rule:evenodd;stroke-width:6.849153;"
     id="path136" />
  <path
     d="M 118.9044 150.3481 C 116.6487 143.8493 116.6417 128.1929 117.5297 123.1711 C 109.4342 123.9599 109.7411 123.2303 103.7852 123.7619 C 105.4304 127.4742 104.7011 149.8559 104.7011 154.4838 C 110.4061 152.2825 111.9094 151.825 118.9044 150.3481 z "
     style="font-size:12;fill:#e9f57f;fill-opacity:1;fill-rule:evenodd;stroke:#000000;stroke-width:5.614373;"
     id="path137" />
  <path
     d="M 160.8525 318.545 L 160.8525 380.141 L 193.6155 380.141 L 193.6155 318.545 L 160.8525 318.545 z "
     style="font-size:12;fill:#7f5400;fill-opacity:1;fill-rule:evenodd;stroke-width:5;"
     id="path149" />
  <path
     d="M 97.94648 298.887 L 97.94648 328.374 L 135.9525 328.374 L 135.9525 298.887 L 97.94648 298.887 z "
     style="font-size:12;fill:url(#linearGradient132);fill-opacity:1;fill-rule:evenodd;stroke:#000000;stroke-width:5;"
     id="path150" />
  <path
     d="M 155.6105 242.534 L 155.6105 278.574 L 194.9265 278.574 L 194.9265 242.534 L 155.6105 242.534 z "
     style="font-size:12;fill:url(#linearGradient142);fill-opacity:1;fill-rule:evenodd;stroke:#000000;stroke-width:5;"
     id="path151" />
  <path
     d="M 99.25748 241.223 L 99.25748 277.919 L 136.6075 277.919 L 136.6075 241.223 L 99.25748 241.223 z "
     style="font-size:12;fill:url(#linearGradient48);fill-opacity:1;fill-rule:evenodd;stroke:#000000;stroke-width:5;"
     id="path152" />
  <path
     d="M 246.6925 156.038 L 246.6925 212.392 L 290.5955 212.392 L 290.5955 156.038 L 246.6925 156.038 z "
     style="font-size:12;fill:url(#linearGradient54);fill-opacity:1;fill-rule:evenodd;stroke:#000000;stroke-width:5;"
     id="path153" />
  <path
     d="M 249.3135 241.223 L 249.3135 279.229 L 291.9065 279.229 L 291.9065 241.223 L 249.3135 241.223 z "
     style="font-size:12;fill:url(#linearGradient53);fill-opacity:1;fill-rule:evenodd;stroke:#000000;stroke-width:5;"
     id="path154" />
  <path
     d="M 338.4305 240.568 L 338.4305 279.229 L 369.2285 279.229 L 369.2285 240.568 L 338.4305 240.568 z "
     style="font-size:12;fill:url(#linearGradient50);fill-opacity:1;fill-rule:evenodd;stroke:#000000;stroke-width:5;"
     id="path155" />
  <path
     d="M 295.1824 301.5081 L 295.1824 380.1401 L 331.8774 380.1401 L 331.8774 301.5081 L 295.1824 301.5081 z "
     style="font-size:12;fill:#856100;fill-opacity:1;fill-rule:evenodd;stroke-width:5;"
     id="path156" />
  <path
     d="M 331.2225 161.936 L 331.2225 215.668 L 371.1945 215.668 L 371.1945 161.936 L 331.2225 161.936 z "
     style="font-size:12;fill:url(#linearGradient49);fill-opacity:1;fill-rule:evenodd;stroke:#000000;stroke-width:5;"
     id="path157" />
  <path
     d="M 162.206 317.8682 L 162.206 379.4642 L 194.969 379.4642 L 194.969 317.8682 L 162.206 317.8682 z "
     style="font-size:12;fill:url(#linearGradient161);fill-opacity:1;fill-rule:evenodd;stroke:#000000;stroke-width:4.999999;"
     id="path160" />
  <path
     d="M 293.8289 302.1849 L 293.8289 380.8169 L 330.5239 380.8169 L 330.5239 302.1849 L 293.8289 302.1849 z "
     style="font-size:12;fill:url(#linearGradient163);fill-opacity:1;fill-rule:evenodd;stroke:#000000;stroke-width:4.999999;"
     id="path162" />
  <path
     d="M 271.0609 40.056 C 272.0777 40.056 391.3355 95.37754 390.4982 102.3075 C 369.5922 101.1614 224.0964 102.4778 210.1529 103.1479 C 229.5006 79.89628 262.8658 48.68439 271.0609 40.056 z "
     style="font-size:12;fill:url(#linearGradient165);fill-opacity:1;fill-rule:evenodd;stroke:#000000;stroke-width:9.75;stroke-linejoin:round;"
     id="path164" />
  <path
     d="M 162.3715 127.2609 C 161.6903 127.2609 85.74667 168.5064 81.91807 173.1302 C 95.92363 172.2857 199.4864 180.0075 202.2754 171.9824 C 201.1081 164.679 167.8617 133.6186 162.3715 127.2609 z "
     style="font-size:12;fill:url(#linearGradient168);fill-opacity:1;fill-rule:evenodd;stroke:#000000;stroke-width:6.85;stroke-linejoin:round;"
     id="path167" />

  <metadata>
    <rdf:RDF 
     xmlns="http://web.resource.org/cc/"
     xmlns:dc="http://purl.org/dc/elements/1.1/"
     xmlns:rdf="http://www.w3.org/1999/02/22-rdf-syntax-ns#">
      <Work rdf:about="">
        <dc:title>Lemon SVG theme</dc:title>
	<dc:description></dc:description>
        <dc:subject>
          <rdf:Bag>
            <rdf:li>lemon_theme_icon</rdf:li>
            <rdf:li>icon</rdf:li>
          </rdf:Bag>
        </dc:subject>
        <dc:publisher>
           <Agent rdf:about="">
             <dc:title>Open Clip Art Library</dc:title>
           </Agent>
         </dc:publisher>
         <dc:creator>
           <Agent rdf:about="">
             <dc:title>Jose Hevia</dc:title>
           </Agent>
        </dc:creator>
         <dc:rights>
           <Agent rdf:about="">
             <dc:title></dc:title>
           </Agent>
        </dc:rights>
        <dc:date></dc:date>
        <dc:format>image/svg+xml</dc:format>
        <dc:type rdf:resource="http://purl.org/dc/dcmitype/StillImage" />
        <license rdf:resource="Public Domain">
	  <dc:date>1</dc:date>
	</license>
        <dc:language>en</dc:language>
      </Work>

      <License rdf:about="Public Domain">
         <permits rdf:resource="http://web.resource.org/cc/Reproduction" />
         <permits rdf:resource="http://web.resource.org/cc/Distribution" />
         <permits rdf:resource="http://web.resource.org/cc/DerivativeWorks" />
      </License>


    </rdf:RDF>
  </metadata>
</svg>
