<?xml version="1.0" encoding="UTF-8" standalone="no"?>
<!DOCTYPE svg PUBLIC "-//W3C//DTD SVG 1.0//EN"
"http://www.w3.org/TR/2001/REC-SVG-20010904/DTD/svg10.dtd">
<!-- Created with Sodipodi ("http://www.sodipodi.com/") -->
<svg
   xmlns="http://www.w3.org/2000/svg"
   xmlns:xlink="http://www.w3.org/1999/xlink"
   version="1.0"
   x="0"
   y="0"
   width="437.5"
   height="437.5"
   id="svg1">
  <defs
     id="defs3">
    <linearGradient
       id="linearGradient642">
      <stop
         style="stop-color:#0002c2;stop-opacity:1;"
         offset="0"
         id="stop643" />
      <stop
         style="stop-color:#ff0000;stop-opacity:1;"
         offset="1"
         id="stop644" />
    </linearGradient>
    <linearGradient
       id="linearGradient842">
      <stop
         style="stop-color:#ff82c2;stop-opacity:1;"
         offset="0"
         id="stop843" />
      <stop
         style="stop-color:#ff55ff;stop-opacity:1;"
         offset="1"
         id="stop844" />
    </linearGradient>
    <linearGradient
       id="linearGradient53">
      <stop
         style="stop-color:#f0c5ff;stop-opacity:1;"
         offset="0"
         id="stop54" />
      <stop
         style="stop-color:#8fe7f2;stop-opacity:1;"
         offset="1"
         id="stop55" />
    </linearGradient>
    <linearGradient
       id="linearGradient48">
      <stop
         style="stop-color:#ffffff;stop-opacity:1;"
         offset="0"
         id="stop49" />
      <stop
         style="stop-color:#8dbfff;stop-opacity:1;"
         offset="1"
         id="stop50" />
    </linearGradient>
    <linearGradient
       x1="-5.3541271e-8"
       y1="-1.36888101e-8"
       x2="1"
       y2="-1.36888101e-8"
       id="linearGradient51"
       xlink:href="#linearGradient48" />
    <linearGradient
       x1="6.6354562e-7"
       y1="-2.17675411e-9"
       x2="1"
       y2="-2.17675411e-9"
       id="linearGradient52"
       xlink:href="#linearGradient48" />
    <radialGradient
       cx="0.5"
       cy="0.5"
       r="0.5"
       fx="0.5"
       fy="0.5"
       id="radialGradient577"
       xlink:href="#linearGradient53" />
    <radialGradient
       cx="0.56782299"
       cy="0.63158399"
       r="0.309724"
       fx="0.54574102"
       fy="0.81579"
       id="radialGradient845"
       xlink:href="#linearGradient842" />
    <radialGradient
       cx="0.5"
       cy="0.5"
       r="0.5"
       fx="0.5"
       fy="0.5"
       id="radialGradient846"
       xlink:href="#linearGradient53" />
    <radialGradient
       id="radialGradient614"
       xlink:href="#linearGradient842" />
    <radialGradient
       id="radialGradient633"
       xlink:href="#linearGradient842" />
    <radialGradient
       cx="0.5"
       cy="0.5"
       r="0.5"
       fx="0.5"
       fy="0.5"
       id="radialGradient634"
       xlink:href="#linearGradient53" />
    <radialGradient
       cx="0.5"
       cy="0.5"
       r="0.5"
       fx="0.5"
       fy="0.5"
       id="radialGradient635"
       xlink:href="#linearGradient53" />
    <radialGradient
       cx="0.5"
       cy="0.5"
       r="0.5"
       fx="0.5"
       fy="0.5"
       id="radialGradient636"
       xlink:href="#linearGradient53" />
    <radialGradient
       id="radialGradient637"
       xlink:href="#linearGradient842" />
    <linearGradient
       x1="-6.39499319e-7"
       y1="-2.56248597e-7"
       x2="1"
       y2="-2.56248597e-7"
       id="linearGradient638"
       xlink:href="#linearGradient48" />
    <linearGradient
       x1="9.73037686e-8"
       y1="-1.28124299e-7"
       x2="1"
       y2="-1.28124299e-7"
       id="linearGradient639"
       xlink:href="#linearGradient48" />
    <linearGradient
       x1="1.54894597e-9"
       y1="-1.05787699e-7"
       x2="1"
       y2="-1.05787699e-7"
       id="linearGradient640"
       xlink:href="#linearGradient48" />
    <linearGradient
       x1="0.157727"
       y1="0.60526299"
       x2="0.50473201"
       y2="0.57894701"
       id="linearGradient641"
       xlink:href="#linearGradient642" />
  </defs>
  <path
     d="M 222.2083 11.1896 C 235.1423 15.64005 246.1281 24.2021 259.6185 28.19609 C 284.0565 29.37584 309.4212 36.60397 333.3706 44.20222 C 345.8972 51.24453 364.0551 58.88029 373.9878 60.20834 C 377.8397 63.29855 342.5368 61.20871 332.3018 61.20871 C 314.6573 58.36617 297.8932 51.07712 279.9271 53.20567 C 266.2986 54.73631 244.66 65.21024 230.7591 65.21024 C 225.3177 47.05462 221.5659 22.74856 222.2083 11.1896 z "
     style="font-size:12;fill:url(#linearGradient641);fill-opacity:1;fill-rule:evenodd;stroke:#ffc700;stroke-width:6.25;"
     id="path600" />
  <path
     d="M 426.5957 172.0505 C 429.8022 185.9067 433.5837 208.073 433.5967 224.9727 C 420.1855 241.975 381.6727 229.9977 375.1406 212.1914 C 388.4768 194.2893 408.3389 187.9712 426.5957 172.0505 z "
     style="font-size:12;fill:url(#linearGradient51);fill-opacity:1;fill-rule:evenodd;stroke:#0000ff;stroke-width:6.25;"
     id="path597" />
  <path
     d="M 13.88256 176.3109 C 10.67601 190.1671 6.894545 212.3334 6.881442 229.2331 C 20.29271 246.2354 58.80551 234.2581 65.33767 216.4518 C 52.00146 198.5496 32.13935 192.2316 13.88256 176.3109 z "
     style="font-size:12;fill:url(#linearGradient640);fill-opacity:1;fill-rule:evenodd;stroke:#0000ff;stroke-width:6.25;"
     id="path588" />
  <path
     d="M 244.6819 295.6397 C 241.7869 277.9663 233.4895 168.8883 230.598 156.4695 C 219.8706 155.461 207.4916 151.9377 197.8024 152.6396 C 194.2499 163.593 195.807 277.7156 190.9412 294.9363 C 212.3712 296.773 227.0668 299.5024 244.6819 295.6397 z "
     style="font-size:12;fill:url(#radialGradient634);fill-opacity:1;fill-rule:evenodd;stroke:#007fcc;stroke-width:6.25;"
     id="path589" />
  <path
     d="M 260.8536 298.002 C 262.9918 287.1995 287.7397 208.4658 293.8549 191.6761 C 306.6667 187.0117 315.7232 186.8043 322.4108 196.8206 C 317.858 212.9699 310.3765 285.5647 307.8962 293.3588 C 306.056 303.1748 258.5753 310.1551 260.8536 298.002 z "
     style="font-size:12;fill:url(#radialGradient614);fill-opacity:1;fill-rule:evenodd;stroke:#ff6600;stroke-width:6.25;stroke-linejoin:bevel;"
     id="path594" />
  <path
     d="M 173.8151 298.002 C 171.6769 287.1995 145.5288 207.0457 139.4136 190.2559 C 130.8023 187.0116 120.3457 186.8043 110.8576 193.9803 C 115.4104 210.1296 124.2922 285.5647 126.7725 293.3588 C 128.6128 303.1748 176.0934 310.1551 173.8151 298.002 z "
     style="font-size:12;fill:url(#radialGradient633);fill-opacity:1;fill-rule:evenodd;stroke:#ff6600;stroke-width:6.25;stroke-linejoin:bevel;"
     id="path598" />
  <path
     d="M 123.014 425.4577 C 151.3815 442.6402 283.6531 439.9142 313.0964 426.3496 C 339.9529 410.7435 321.7452 401.8056 301.3202 392.5379 C 234.9753 409.6789 179.6008 401.9234 135.7094 397.6584 C 113.7176 403.7046 107.2297 413.5814 123.014 425.4577 z "
     style="font-size:12;fill:url(#radialGradient845);fill-opacity:1;fill-rule:evenodd;stroke-width:1;"
     id="path591" />
  <path
     d="M 340.9886 270.9273 C 332.412 268.993 311.2387 270.3467 295.6685 270.3467 C 292.2348 277.1204 287.9224 284.7217 284.0309 289.8252 C 273.9524 291.8269 244.0726 295.4522 235.8613 294.4517 C 231.7366 285.312 232.0663 275.7545 233.6958 269.927 C 226.033 269.2236 206.6697 270.0414 200.6162 269.5205 C 204.1331 277.7135 202.3331 288.0892 201.2643 294.7488 C 193.5324 295.2178 158.7901 290.9279 152.2221 290.5552 C 147.0665 280.6328 143.0585 280.6095 135.12 270.3466 C 129.0632 270.3466 107.2882 270.7665 96.9558 271.7668 C 97.25092 283.2743 130.902 350.6547 164.0013 403.5581 C 180.1917 406.0218 251.1845 405.6528 272.5516 401.5498 C 309.1789 347.5292 333.3855 287.779 340.9886 270.9273 z "
     style="font-size:12;fill:url(#radialGradient577);fill-opacity:1;fill-rule:evenodd;stroke:#747fcc;stroke-width:6.25;stroke-linejoin:bevel;"
     id="path584" />
  <path
     d="M 160.533 398.878 C 142.7184 373.535 80.01847 233.9021 65.69247 217.2913 C 56.50295 214.5472 14.28705 230.3315 7.161318 234.333 C 11.15224 251.5776 124.1673 381.8852 133.8112 396.8771 C 145.3225 399.1872 154.6326 399.5382 160.533 398.878 z "
     style="font-size:12;fill:url(#radialGradient635);fill-opacity:1;fill-rule:evenodd;stroke:#007fcc;stroke-width:6.25;"
     id="path586" />
  <path
     d="M 184.6784 127.4888 C 194.3486 109.9471 206.5343 43.56987 215.9303 16.6761 C 223.0569 48.36788 232.9034 113.7473 240.4614 127.7943 C 239.6059 132.1366 184.2562 135.1245 184.6784 127.4888 z "
     style="font-size:12;fill:url(#linearGradient52);fill-opacity:1;fill-rule:evenodd;stroke:#0000ff;stroke-width:6.25;"
     id="path592" />
  <path
     d="M 184.7833 128.6967 C 184.0749 137.0121 187.8623 140.6593 192.261 158.2355 C 202.6548 156.3481 221.3736 155.6625 235.3764 158.2275 C 237.0215 147.3536 242.5474 138.3547 240.7292 128.6966 C 226.7381 123.765 201.3121 124.4689 184.7833 128.6967 z "
     style="font-size:12;fill:url(#radialGradient636);fill-opacity:1;fill-rule:evenodd;stroke:#0000c6;stroke-width:6.25;"
     id="path590" />
  <path
     d="M 209.112 403.974 C 206.9742 391.762 203.303 365.9073 202.6988 356.96 C 211.5598 348.957 228.7337 348.2321 235.8339 356.96 C 234.506 370.0808 226.2272 392.9761 224.0762 403.974 C 219.29 404.9821 214.5579 404.9871 209.112 403.974 z "
     style="font-size:12;fill:#0000c1;fill-opacity:1;fill-rule:evenodd;stroke:#0099cb;stroke-width:6.25;"
     id="path593" />
  <path
     d="M 293.1214 192.6468 C 301.9964 176.894 309.9556 154.6012 318.9164 136.117 C 319.751 155.4434 322.7524 182.382 322.0562 195.3024 C 311.5971 189.495 300.6553 188.2865 293.1214 192.6468 z "
     style="font-size:12;fill:url(#linearGradient638);fill-opacity:1;fill-rule:evenodd;stroke:#0000ff;stroke-width:6.25;stroke-linejoin:bevel;"
     id="path596" />
  <path
     d="M 140.5205 192.6468 C 131.6455 176.894 122.2862 154.6012 113.3253 136.117 C 112.4907 155.4434 110.8895 182.382 111.5857 195.3024 C 117.8442 188.0748 130.1861 191.1267 140.5205 192.6468 z "
     style="font-size:12;fill:url(#linearGradient639);fill-opacity:1;fill-rule:evenodd;stroke:#0000ff;stroke-width:6.25;stroke-linejoin:bevel;"
     id="path601" />
  <path
     d="M 280.205 394.6176 C 298.0196 369.2746 360.7195 229.6418 375.0455 213.031 C 384.2351 210.2869 426.451 226.0711 433.5767 230.0726 C 429.5857 247.3172 316.5707 377.6248 306.9268 392.6168 C 295.4155 394.9269 286.1054 395.2779 280.205 394.6176 z "
     style="font-size:12;fill:url(#radialGradient846);fill-opacity:1;fill-rule:evenodd;stroke:#007fcd;stroke-width:6.25;"
     id="path595" />

  <metadata>
    <rdf:RDF 
     xmlns="http://web.resource.org/cc/"
     xmlns:dc="http://purl.org/dc/elements/1.1/"
     xmlns:rdf="http://www.w3.org/1999/02/22-rdf-syntax-ns#">
      <Work rdf:about="">
        <dc:title>Lemon SVG theme</dc:title>
	<dc:description></dc:description>
        <dc:subject>
          <rdf:Bag>
            <rdf:li>lemon_theme_icon</rdf:li>
            <rdf:li>icon</rdf:li>
          </rdf:Bag>
        </dc:subject>
        <dc:publisher>
           <Agent rdf:about="">
             <dc:title>Open Clip Art Library</dc:title>
           </Agent>
         </dc:publisher>
         <dc:creator>
           <Agent rdf:about="">
             <dc:title>Jose Hevia</dc:title>
           </Agent>
        </dc:creator>
         <dc:rights>
           <Agent rdf:about="">
             <dc:title></dc:title>
           </Agent>
        </dc:rights>
        <dc:date></dc:date>
        <dc:format>image/svg+xml</dc:format>
        <dc:type rdf:resource="http://purl.org/dc/dcmitype/StillImage" />
        <license rdf:resource="Public Domain">
	  <dc:date>1</dc:date>
	</license>
        <dc:language>en</dc:language>
      </Work>

      <License rdf:about="Public Domain">
         <permits rdf:resource="http://web.resource.org/cc/Reproduction" />
         <permits rdf:resource="http://web.resource.org/cc/Distribution" />
         <permits rdf:resource="http://web.resource.org/cc/DerivativeWorks" />
      </License>


    </rdf:RDF>
  </metadata>
</svg>
