<?xml version="1.0" encoding="UTF-8" standalone="no"?>
<!DOCTYPE svg PUBLIC "-//W3C//DTD SVG 1.0//EN"
"http://www.w3.org/TR/2001/REC-SVG-20010904/DTD/svg10.dtd">
<!-- Created with Sodipodi ("http://www.sodipodi.com/") -->
<svg
   xmlns="http://www.w3.org/2000/svg"
   xmlns:xlink="http://www.w3.org/1999/xlink"
   version="1.0"
   x="0"
   y="0"
   width="437.5"
   height="437.5"
   id="svg32">
  <defs
     id="defs34">
    <linearGradient
       id="linearGradient129">
      <stop
         style="stop-color:#0017a2;stop-opacity:0.1647;"
         offset="0"
         id="stop130" />
      <stop
         style="stop-color:#ffffff;stop-opacity:1;"
         offset="1"
         id="stop131" />
    </linearGradient>
    <linearGradient
       x1="0.41167101"
       y1="0.91406202"
       x2="0.325396"
       y2="-3.90625e-2"
       id="linearGradient132"
       xlink:href="#linearGradient129" />
    <linearGradient
       x1="-0.117257"
       y1="0.96875"
       x2="0.423406"
       y2="-0.5"
       id="linearGradient142"
       xlink:href="#linearGradient129" />
    <linearGradient
       x1="0.47603801"
       y1="0.1565"
       x2="5.11181988e-2"
       y2="1.14735997"
       id="linearGradient71"
       xlink:href="#linearGradient129" />
  </defs>
  <path
     d="M 40.53532 223.3851 C 43.22107 251.118 26.72787 254.973 24.6242 266.5364 C 39.49218 286.1587 0.880596 316.0593 8.076915 324.8497 C 13.18617 333.0422 89.14939 389.1432 101.6341 391.3253 C 178.0836 418.3462 336.7305 399.0336 365.7587 373.8316 C 400.5447 337.9508 418.1353 334.0602 423.6725 316.6858 C 420.3945 302.2783 389.6451 275.3962 396.3071 264.2048 C 390.7563 251.4917 366.831 252.8088 372.1215 225.7184 C 355.3536 216.9387 368.8464 225.6615 356.8474 209.3906 C 352.364 207.3367 351.1956 189.5636 346.6636 189.5636 C 305.7849 139.2807 106.3127 155.7438 64.0839 197.7293 C 58.0601 219.6796 47.57332 219.0869 40.53532 223.3851 z "
     style="font-size:12;fill:#42aaff;fill-opacity:1;fill-rule:evenodd;"
     id="path19" />
  <path
     d="M 37.56075 275.8201 C 30.32659 275.8201 17.68093 317.4706 25.4755 321.8546 C 24.5452 335.115 170.5367 397.8574 260.0409 359.5467 C 275.9895 375.9311 300.2501 374.8059 311.4049 374.9945 C 327.3198 384.2461 332.0266 380.2466 351.231 379.0108 C 378.3138 334.1194 421.4324 334.5219 406.4391 334.5219 C 336.826 281.776 363.7299 364.4902 342.7167 370.6695 C 334.8684 361.8425 271.2762 341.7969 257.2946 334.8295 C 160.624 394.1487 65.87544 320.6187 37.56075 275.8201 z "
     style="font-size:12;fill:url(#linearGradient71);fill-opacity:1;fill-rule:evenodd;"
     id="path70" />
  <path
     d="M 354.9486 314.2149 C 356.6692 310.344 363.9293 254.1508 368.7579 254.1508 C 405.419 245.6821 400.0613 323.6625 400.0613 329.748 C 381.1959 316.7952 349.4944 314.2149 354.9486 314.2149 z "
     style="font-size:12;fill:#3069bf;fill-opacity:1;fill-rule:evenodd;"
     id="path133" />
  <path
     d="M 561.553 310.1 C 562.433 310.1 563.313 310.1 564.192 310.1 "
     style="font-size:12;fill:none;fill-opacity:1;fill-rule:evenodd;stroke:#000000;"
     id="path57" />
  <path
     d="M 37.35666 271.0682 C 44.02854 183.0618 77.7907 61.79573 174.0154 59.01531 C 191.0281 57.67303 196.9525 59.83079 218.2673 62.39733 C 353.9716 78.65949 372.3135 219.7963 366.1343 279.4095 C 351.3021 295.1785 351.3021 296.0225 336.47 304.4354 C 331.5263 266.386 314.2223 188.7143 277.1425 201.5544 C 235.1227 212.6709 252.422 324.9108 252.422 337.8026 C 160.9574 396.1946 58.66396 315.5581 37.35666 271.0682 z "
     style="font-size:12;fill:#0094de;fill-opacity:1;fill-rule:evenodd;stroke:#00ffff;stroke-width:0.99341;"
     id="path58" />
  <path
     d="M 90.77575 103.3341 C 74.50295 126.4963 60.59335 145.0189 38.00945 270.1411 C 96.86575 342.1097 172.232 412.2319 351.3208 286.6323 C 395.6027 240.3755 335.5979 121.8942 308.3568 100.2282 C 291.7675 81.75028 244.8255 60.18435 187.4434 57.42396 C 158.0218 54.67722 120.3968 66.38369 90.77575 103.3341 z "
     style="font-size:12;fill:url(#linearGradient132);fill-opacity:0.461538;fill-rule:evenodd;"
     id="path128" />
  <path
     d="M 364.5831 355.1964 C 362.4269 296.8033 374.8097 269.9241 382.7114 262.51 C 394.2343 251.401 395.9549 305.762 399.1902 330.4782 C 406.1824 325.5347 407.1481 317.8024 412.9236 314.4141 C 409.6274 214.6159 391.2397 229.4357 377.7667 234.7037 C 351.9241 246.1615 334.0946 314.4299 346.4549 370.9529 C 346.4549 372.8061 362.1113 358.904 364.5831 355.1964 z "
     style="font-size:12;fill:#7fb8ff;fill-opacity:1;fill-rule:evenodd;"
     id="path62" />
  <path
     d="M 251.4197 334.4955 C 272.3467 342.8368 307.7265 355.5304 347.2791 371.879 C 333.5757 258.1165 369.7798 239.3374 392.049 232.5406 C 357.9375 221.4179 297.5524 191.1419 273.1176 199.4832 C 236.9136 235.6308 246.476 287.2262 251.4197 334.4955 z "
     style="font-size:12;fill:#0093df;fill-opacity:1;fill-rule:evenodd;"
     id="path61" />
  <path
     d="M 45.69392 224.5081 C 71.41667 285.1991 184.671 329.0727 245.6489 301.457 C 255.6684 295.9341 324.6605 314.276 341.8465 322.2443 C 346.2844 326.5462 360.4627 317.1271 364.7592 312.3227 "
     style="font-size:12;fill:none;fill-opacity:1;fill-rule:evenodd;stroke:#00ffff;stroke-width:2.5;"
     id="path80" />
  <path
     d="M 53.12637 187.2163 C 71.80351 230.7106 182.7564 280.0049 238.5106 263.4361 C 242.7424 263.4361 244.9389 257.6909 248.398 261.5829 C 252.968 261.5829 335.8415 285.6806 347.0853 285.6806 C 355.2343 285.6806 362.9515 284.7945 367.8615 293.7858 "
     style="font-size:12;fill:none;fill-opacity:1;fill-rule:evenodd;stroke:#00ffff;stroke-width:2.5;"
     id="path81" />
  <path
     d="M 67.11737 152.2128 C 116.8328 220.9891 216.2544 231.4112 253.9562 225.1982 C 259.4872 218.6354 354.7453 246.3016 362.1103 250.4601 C 365.7315 256.6036 374.2598 267.9128 374.2598 271.9765 "
     style="font-size:12;fill:none;fill-opacity:1;fill-rule:evenodd;stroke:#00ffff;stroke-width:2.5;"
     id="path82" />
  <path
     d="M 81.94949 124.4075 C 140.6485 178.0068 209.2725 213.0619 318.5225 161.1884 C 321.1508 158.232 342.3017 148.7434 336.1637 136.9864 "
     style="font-size:12;fill:none;fill-opacity:1;fill-rule:evenodd;stroke:#00ffff;stroke-width:2.5;"
     id="path83" />
  <path
     d="M 316.5471 202.9148 C 341.1028 195.3205 356.1316 178.836 348.7666 164.1016 "
     style="font-size:12;fill:none;fill-opacity:1;fill-rule:evenodd;stroke:#00ffff;stroke-width:2.5;"
     id="path84" />
  <path
     d="M 103.6015 94.31176 C 109.051 101.906 108.3972 102.4181 113.7503 110.0124 C 150.1407 146.0462 226.2543 163.9404 297.4513 131.1316 C 305.5956 125.4222 319.4395 115.3941 314.9332 109.18 "
     style="font-size:12;fill:none;fill-opacity:1;fill-rule:evenodd;stroke:#00ffff;stroke-width:2.5;"
     id="path86" />
  <path
     d="M 132.2307 69.74099 C 132.7955 73.88371 134.962 82.67908 138.8567 86.13064 C 161.9062 105.307 221.4932 115.0664 271.8231 99.50491 C 281.9532 96.39366 286.9681 90.27441 282.2923 82.68013 "
     style="font-size:12;fill:none;fill-opacity:1;fill-rule:evenodd;stroke:#00ffff;stroke-width:2.5;"
     id="path87" />
  <path
     d="M 54.96786 294.0039 C 54.35434 274.7169 61.20981 263.7922 64.08256 252.9655 "
     style="font-size:12;fill:none;fill-opacity:1;fill-rule:evenodd;stroke:#00ffff;stroke-width:2.5;"
     id="path88" />
  <path
     d="M 91.71189 227.7426 C 86.03571 238.7884 82.85853 254.095 81.6315 267.3228 "
     style="font-size:12;fill:none;fill-opacity:1;fill-rule:evenodd;stroke:#00ffff;stroke-width:2.5;"
     id="path89" />
  <path
     d="M 113.1368 287.498 C 108.8403 299.2266 106.1577 309.4243 106.7721 333.6979 "
     style="font-size:12;fill:none;fill-opacity:1;fill-rule:evenodd;stroke:#00ffff;stroke-width:2.5;"
     id="path90" />
  <path
     d="M 186.194 309.5233 C 184.3525 323.6056 187.4032 342.9674 185.1946 355.3945 "
     style="font-size:12;fill:none;fill-opacity:1;fill-rule:evenodd;stroke:#00ffff;stroke-width:2.5;"
     id="path91" />
  <path
     d="M 214.2443 187.1393 C 212.4029 196.53 214.2106 210.2235 212.3701 223.9971 "
     style="font-size:12;fill:none;fill-opacity:1;fill-rule:evenodd;stroke:#00ffff;stroke-width:2.5;"
     id="path98" />
  <path
     d="M 155.3701 174.8534 C 148.6037 181.0675 148.0979 191.5307 146.2564 209.309 "
     style="font-size:12;fill:none;fill-opacity:1;fill-rule:evenodd;stroke:#00ffff;stroke-width:2.5;"
     id="path99" />
  <path
     d="M 100.7596 142.0362 C 95.66139 148.2492 92.87199 159.1908 87.96195 175.0726 "
     style="font-size:12;fill:none;fill-opacity:1;fill-rule:evenodd;stroke:#00ffff;stroke-width:2.5;"
     id="path100" />
  <path
     d="M 117.433 197.5334 C 109.8675 209.4959 103.442 214.275 105.897 234.6082 "
     style="font-size:12;fill:none;fill-opacity:1;fill-rule:evenodd;stroke:#00ffff;stroke-width:2.5;"
     id="path101" />
  <path
     d="M 79.88059 168.8587 C 69.44705 176.9229 64.46961 199.2221 64.46961 203.8232 "
     style="font-size:12;fill:none;fill-opacity:1;fill-rule:evenodd;stroke:#00ffff;stroke-width:2.5;"
     id="path102" />
  <path
     d="M 184.7396 221.1976 C 181.3883 227.4106 184.4783 247.2602 178.9548 261.941 "
     style="font-size:12;fill:none;fill-opacity:1;fill-rule:evenodd;stroke:#00ffff;stroke-width:2.5;"
     id="path103" />
  <path
     d="M 148.7785 255.9832 C 146.937 261.9275 137.8906 279.8702 139.7321 297.4167 "
     style="font-size:12;fill:none;fill-opacity:1;fill-rule:evenodd;stroke:#00ffff;stroke-width:2.5;"
     id="path104" />
  <path
     d="M 210.301 266.1976 C 210.301 274.8781 210.6878 297.2037 208.2328 307.67 "
     style="font-size:12;fill:none;fill-opacity:1;fill-rule:evenodd;stroke:#00ffff;stroke-width:2.5;"
     id="path105" />
  <path
     d="M 309.6017 124.1895 C 318.4907 124.8796 329.5377 146.7131 329.5377 150.3596 "
     style="font-size:12;fill:none;fill-opacity:1;fill-rule:evenodd;stroke:#00ffff;stroke-width:2.5;"
     id="path108" />
  <path
     d="M 282.1995 137.3836 C 284.041 145.865 293.8948 159.3762 292.6668 170.7497 "
     style="font-size:12;fill:none;fill-opacity:1;fill-rule:evenodd;stroke:#00ffff;stroke-width:2.5;"
     id="path109" />
  <path
     d="M 269.3344 100.7429 C 276.4437 105.5757 290.4394 123.9229 290.4394 131.7458 "
     style="font-size:12;fill:none;fill-opacity:1;fill-rule:evenodd;stroke:#00ffff;stroke-width:2.5;"
     id="path110" />
  <path
     d="M 207.1978 61.20059 C 216.6104 63.96205 227.4626 76.57984 237.2826 83.84329 C 221.2197 83.03414 191.7034 78.90933 184.3384 77.23307 "
     style="font-size:12;fill:none;fill-opacity:1;fill-rule:evenodd;stroke:#00ffff;stroke-width:2.5;"
     id="path111" />
  <path
     d="M 206.7782 61.89069 C 198.4521 61.89069 177.9972 63.5659 173.8852 63.5659 C 173.4272 67.53372 180.9899 69.23527 184.6728 76.50399 "
     style="font-size:12;fill:none;fill-opacity:1;fill-rule:evenodd;stroke:#00ffff;stroke-width:2.5;"
     id="path112" />
  <path
     d="M 171.7253 63.49004 C 157.961 64.18014 144.5741 67.66963 133.7191 73.19255 "
     style="font-size:12;fill:none;fill-opacity:1;fill-rule:evenodd;stroke:#00ffff;stroke-width:2.5;"
     id="path113" />
  <path
     d="M 205.5165 107.647 C 207.2025 117.1388 206.5843 137.0896 205.9698 145.629 "
     style="font-size:12;fill:none;fill-opacity:1;fill-rule:evenodd;stroke:#00ffff;stroke-width:2.5;"
     id="path114" />
  <path
     d="M 233.9865 147.7393 C 237.0559 154.889 239.9793 175.7848 239.5109 183.9059 "
     style="font-size:12;fill:none;fill-opacity:1;fill-rule:evenodd;stroke:#00ffff;stroke-width:2.5;"
     id="path115" />
  <path
     d="M 180.6367 143.7767 C 180.6367 153.0452 177.5682 168.2401 176.3402 178.3061 "
     style="font-size:12;fill:none;fill-opacity:1;fill-rule:evenodd;stroke:#00ffff;stroke-width:2.5;"
     id="path116" />
  <path
     d="M 140.9595 130.8376 C 128.3548 139.8131 127.9342 146.8364 124.8657 156.3176 "
     style="font-size:12;fill:none;fill-opacity:1;fill-rule:evenodd;stroke:#00ffff;stroke-width:2.5;"
     id="path117" />
  <path
     d="M 136.9815 85.69656 C 127.8649 91.90958 122.5709 103.5423 117.0464 112.3007 "
     style="font-size:12;fill:none;fill-opacity:1;fill-rule:evenodd;stroke:#00ffff;stroke-width:2.5;"
     id="path118" />
  <path
     d="M 107.0906 100.7818 C 99.62719 100.7818 92.06549 123.3329 90.83749 131.3497 "
     style="font-size:12;fill:none;fill-opacity:1;fill-rule:evenodd;stroke:#00ffff;stroke-width:2.5;"
     id="path119" />
  <path
     d="M 386.8308 259.7285 C 386.8308 251.9004 392.8592 232.6133 395.2983 232.6133 "
     style="font-size:12;fill:none;fill-opacity:1;fill-rule:evenodd;stroke:#00ffff;stroke-width:2.5;"
     id="path120" />
  <path
     d="M 393.8427 278.2664 C 397.5257 272.9237 404.1152 267.3618 408.2552 265.2904 "
     style="font-size:12;fill:none;fill-opacity:1;fill-rule:evenodd;stroke:#00ffff;stroke-width:2.5;"
     id="path121" />
  <path
     d="M 397.5257 304.6905 C 405.9548 301.2389 411.3238 293.7879 411.3238 290.5524 "
     style="font-size:12;fill:none;fill-opacity:1;fill-rule:evenodd;stroke:#00ffff;stroke-width:2.5;"
     id="path122" />
  <path
     d="M 185.8549 77.06766 C 173.5799 84.94324 172.5233 96.39787 169.8969 101.2307 "
     style="font-size:12;fill:none;fill-opacity:1;fill-rule:evenodd;stroke:#00ffff;stroke-width:2.5;"
     id="path124" />
  <path
     d="M 236.1839 83.28068 C 240.2059 88.80359 247.2319 88.09664 251.5284 102.6109 "
     style="font-size:12;fill:none;fill-opacity:1;fill-rule:evenodd;stroke:#00ffff;stroke-width:2.5;"
     id="path125" />
  <path
     d="M 217.7709 66.71087 C 222.6809 66.71087 236.3881 65.33066 264.4169 74.30514 "
     style="font-size:12;fill:none;fill-opacity:1;fill-rule:evenodd;stroke:#00ffff;stroke-width:2.5;"
     id="path126" />
  <path
     d="M 195.0614 61.8791 C 190.7649 58.11041 190.9579 60.4989 186.4694 58.42754 "
     style="font-size:12;fill:none;fill-opacity:1;fill-rule:evenodd;stroke:#00ffff;stroke-width:2.5;"
     id="path127" />
  <path
     d="M 396.3783 303.8592 C 391.9713 301.3801 374.6645 302.8235 368.7579 297.6451 "
     style="font-size:12;fill:none;fill-opacity:1;fill-rule:evenodd;stroke:#00ffff;stroke-width:2.5;"
     id="path134" />
  <path
     d="M 391.7746 279.005 C 380.7266 279.87 382.4997 280.0407 374.2823 279.005 "
     style="font-size:12;fill:none;fill-opacity:1;fill-rule:evenodd;stroke:#00ffff;stroke-width:2.5;"
     id="path135" />
  <path
     d="M 253.0624 333.2002 C 231.8871 234.4209 269.2704 198.9855 279.4539 199.2647 C 294.4921 195.8142 360.7791 219.4325 392.0815 231.3686 C 352.1879 242.9339 336.8416 299.2578 346.3553 368.7547 C 343.7682 371.6647 257.3776 336.3073 253.0624 333.2002 z "
     style="font-size:12;fill:url(#linearGradient142);fill-opacity:0.134615;fill-rule:evenodd;"
     id="path141" />
  <path
     d="M 350.121 214.9847 C 355.2895 214.9847 363.8535 208.5883 359.2685 197.867 "
     style="font-size:12;fill:none;fill-opacity:1;fill-rule:evenodd;stroke:#00ffff;stroke-width:2.5;"
     id="path85" />
  <path
     d="M 266.5263 302.1081 C 262.8433 315.0115 263.8437 329.6964 263.8437 336.7807 "
     style="font-size:12;fill:none;fill-opacity:1;fill-rule:evenodd;stroke:#00ffff;stroke-width:2.5;"
     id="path92" />
  <path
     d="M 315.7734 313.2309 C 310.2499 324.6581 312.6702 349.9432 312.6702 357.9758 "
     style="font-size:12;fill:none;fill-opacity:1;fill-rule:evenodd;stroke:#00ffff;stroke-width:2.5;"
     id="path93" />
  <path
     d="M 294.349 272.9226 C 287.5975 279.4265 287.3371 297.4449 287.3371 305.3437 "
     style="font-size:12;fill:none;fill-opacity:1;fill-rule:evenodd;stroke:#00ffff;stroke-width:2.5;"
     id="path94" />
  <path
     d="M 340.6869 243.0449 C 334.6145 243.0449 322.1718 267.0088 323.3998 279.6087 "
     style="font-size:12;fill:none;fill-opacity:1;fill-rule:evenodd;stroke:#00ffff;stroke-width:2.5;"
     id="path95" />
  <path
     d="M 275.9604 226.1822 C 269.2089 235.0661 265.9128 256.4234 265.9128 264.9965 "
     style="font-size:12;fill:none;fill-opacity:1;fill-rule:evenodd;stroke:#00ffff;stroke-width:2.5;"
     id="path96" />
  <path
     d="M 331.7989 209.9338 C 316.4544 207.8224 307.0268 233.3414 306.2719 233.3414 "
     style="font-size:12;fill:none;fill-opacity:1;fill-rule:evenodd;stroke:#00ffff;stroke-width:2.5;"
     id="path97" />
  <path
     d="M 263.2301 178.4209 C 263.2301 187.7452 264.8787 198.9353 264.8787 208.2596 "
     style="font-size:12;fill:none;fill-opacity:1;fill-rule:evenodd;stroke:#00ffff;stroke-width:2.5;"
     id="path106" />
  <path
     d="M 309.3741 166.3531 C 316.1256 172.7831 327.4349 193.601 327.4349 199.8994 "
     style="font-size:12;fill:none;fill-opacity:1;fill-rule:evenodd;stroke:#00ffff;stroke-width:2.5;"
     id="path107" />
  <path
     d="M 346.8144 182.9226 C 353.5659 189.3526 358.1237 205.3377 358.1237 211.6361 "
     style="font-size:12;fill:none;fill-opacity:1;fill-rule:evenodd;stroke:#00ffff;stroke-width:2.5;"
     id="path123" />
  <path
     d="M 249.0734 300.7532 C 249.0734 294.0102 249.0734 267.268 249.0734 260.3649 "
     style="font-size:12;fill:none;fill-opacity:1;fill-rule:evenodd;stroke:#00ffff;stroke-width:2.5;"
     id="path136" />
  <path
     d="M 257.3591 221.0133 C 264.7241 204.5815 271.011 196.1591 293.2653 197.1948 "
     style="font-size:12;fill:none;fill-opacity:1;fill-rule:evenodd;stroke:#00ffff;stroke-width:2.5;"
     id="path140" />

  <metadata>
    <rdf:RDF 
     xmlns="http://web.resource.org/cc/"
     xmlns:dc="http://purl.org/dc/elements/1.1/"
     xmlns:rdf="http://www.w3.org/1999/02/22-rdf-syntax-ns#">
      <Work rdf:about="">
        <dc:title>Lemon SVG theme</dc:title>
	<dc:description></dc:description>
        <dc:subject>
          <rdf:Bag>
            <rdf:li>lemon_theme_icon</rdf:li>
            <rdf:li>icon</rdf:li>
          </rdf:Bag>
        </dc:subject>
        <dc:publisher>
           <Agent rdf:about="">
             <dc:title>Open Clip Art Library</dc:title>
           </Agent>
         </dc:publisher>
         <dc:creator>
           <Agent rdf:about="">
             <dc:title>Jose Hevia</dc:title>
           </Agent>
        </dc:creator>
         <dc:rights>
           <Agent rdf:about="">
             <dc:title></dc:title>
           </Agent>
        </dc:rights>
        <dc:date></dc:date>
        <dc:format>image/svg+xml</dc:format>
        <dc:type rdf:resource="http://purl.org/dc/dcmitype/StillImage" />
        <license rdf:resource="Public Domain">
	  <dc:date>1</dc:date>
	</license>
        <dc:language>en</dc:language>
      </Work>

      <License rdf:about="Public Domain">
         <permits rdf:resource="http://web.resource.org/cc/Reproduction" />
         <permits rdf:resource="http://web.resource.org/cc/Distribution" />
         <permits rdf:resource="http://web.resource.org/cc/DerivativeWorks" />
      </License>


    </rdf:RDF>
  </metadata>
</svg>
