<?xml version="1.0" encoding="UTF-8" standalone="no"?>
<!-- Created with Inkscape (http://www.inkscape.org/) -->
<svg
   xmlns:dc="http://purl.org/dc/elements/1.1/"
   xmlns:cc="http://creativecommons.org/ns#"
   xmlns:rdf="http://www.w3.org/1999/02/22-rdf-syntax-ns#"
   xmlns:svg="http://www.w3.org/2000/svg"
   xmlns="http://www.w3.org/2000/svg"
   xmlns:xlink="http://www.w3.org/1999/xlink"
   xmlns:sodipodi="http://sodipodi.sourceforge.net/DTD/sodipodi-0.dtd"
   xmlns:inkscape="http://www.inkscape.org/namespaces/inkscape"
   width="128"
   height="128"
   id="svg2"
   sodipodi:version="0.32"
   inkscape:version="0.45+devel"
   version="1.0"
   sodipodi:docname="inn.svg"
   inkscape:output_extension="org.inkscape.output.svg.inkscape">
  <defs
     id="defs4">
    <linearGradient
       id="linearGradient3193">
      <stop
         style="stop-color:#c2a05c;stop-opacity:1;"
         offset="0"
         id="stop3195" />
      <stop
         style="stop-color:#d6be91;stop-opacity:1;"
         offset="1"
         id="stop3197" />
    </linearGradient>
    <linearGradient
       id="linearGradient2320">
      <stop
         id="stop2322"
         offset="0"
         style="stop-color:#6a3c1d;stop-opacity:1;" />
      <stop
         id="stop2324"
         offset="1"
         style="stop-color:#8f5127;stop-opacity:1;" />
    </linearGradient>
    <linearGradient
       id="linearGradient2338">
      <stop
         id="stop2340"
         offset="0"
         style="stop-color:#b1b1b1;stop-opacity:1;" />
      <stop
         id="stop2342"
         offset="1"
         style="stop-color:#e4e4e4;stop-opacity:1;" />
    </linearGradient>
    <linearGradient
       inkscape:collect="always"
       xlink:href="#linearGradient2338"
       id="linearGradient2449"
       x1="18.881559"
       y1="91.881401"
       x2="30.454126"
       y2="74.827095"
       gradientUnits="userSpaceOnUse"
       gradientTransform="translate(1.3781965,0)" />
    <linearGradient
       inkscape:collect="always"
       xlink:href="#linearGradient2338"
       id="linearGradient2453"
       x1="58.471924"
       y1="118.92467"
       x2="122.42559"
       y2="73.608925"
       gradientUnits="userSpaceOnUse"
       gradientTransform="translate(1.3781965,0)" />
    <linearGradient
       inkscape:collect="always"
       xlink:href="#linearGradient2320"
       id="linearGradient2457"
       x1="85.149742"
       y1="107.47392"
       x2="99.402275"
       y2="89.688705"
       gradientUnits="userSpaceOnUse"
       gradientTransform="translate(1.3781965,0)" />
    <linearGradient
       inkscape:collect="always"
       xlink:href="#linearGradient2320"
       id="linearGradient3042"
       x1="10.341436"
       y1="107.09616"
       x2="20.682875"
       y2="86.678452"
       gradientUnits="userSpaceOnUse"
       gradientTransform="translate(1.3781965,0)" />
    <linearGradient
       inkscape:collect="always"
       xlink:href="#linearGradient2320"
       id="linearGradient3046"
       x1="28.902988"
       y1="98.831841"
       x2="23.157747"
       y2="113.32753"
       gradientUnits="userSpaceOnUse"
       gradientTransform="translate(1.3781965,0)" />
    <linearGradient
       inkscape:collect="always"
       xlink:href="#linearGradient2320"
       id="linearGradient3056"
       x1="25.907385"
       y1="101.69865"
       x2="34.274899"
       y2="97.477921"
       gradientUnits="userSpaceOnUse"
       gradientTransform="translate(1.3781965,0)" />
    <linearGradient
       inkscape:collect="always"
       xlink:href="#linearGradient2320"
       id="linearGradient3060"
       x1="48.239342"
       y1="95.566353"
       x2="34.656799"
       y2="100.74355"
       gradientUnits="userSpaceOnUse"
       gradientTransform="translate(1.3781965,0)" />
    <linearGradient
       inkscape:collect="always"
       xlink:href="#linearGradient2320"
       id="linearGradient3064"
       x1="37.778641"
       y1="79.456734"
       x2="45.863918"
       y2="68.775711"
       gradientUnits="userSpaceOnUse"
       gradientTransform="translate(1.3781965,0)" />
    <linearGradient
       inkscape:collect="always"
       xlink:href="#linearGradient2320"
       id="linearGradient3076"
       x1="39.125"
       y1="80.28125"
       x2="40.0625"
       y2="74.09375"
       gradientUnits="userSpaceOnUse"
       gradientTransform="translate(1.3781965,0)" />
    <linearGradient
       inkscape:collect="always"
       xlink:href="#linearGradient2320"
       id="linearGradient3082"
       x1="17.3125"
       y1="63.8125"
       x2="28.4375"
       y2="62.9375"
       gradientUnits="userSpaceOnUse"
       gradientTransform="translate(1.3781965,0)" />
    <linearGradient
       inkscape:collect="always"
       xlink:href="#linearGradient2320"
       id="linearGradient3086"
       x1="26.625"
       y1="67.46875"
       x2="40.1875"
       y2="70.53125"
       gradientUnits="userSpaceOnUse"
       gradientTransform="translate(1.3781965,0)" />
    <linearGradient
       inkscape:collect="always"
       xlink:href="#linearGradient2320"
       id="linearGradient3097"
       x1="27.0625"
       y1="68.3125"
       x2="34.21875"
       y2="50.9375"
       gradientUnits="userSpaceOnUse"
       gradientTransform="translate(1.3781965,0)" />
    <linearGradient
       inkscape:collect="always"
       xlink:href="#linearGradient2320"
       id="linearGradient3101"
       x1="7"
       y1="40.21875"
       x2="9.65625"
       y2="40.21875"
       gradientUnits="userSpaceOnUse"
       gradientTransform="translate(1.3781965,0)" />
    <linearGradient
       inkscape:collect="always"
       xlink:href="#linearGradient2320"
       id="linearGradient3126"
       x1="79.0625"
       y1="81.0625"
       x2="82.3125"
       y2="67.25"
       gradientUnits="userSpaceOnUse"
       gradientTransform="translate(1.3781965,0)" />
    <linearGradient
       inkscape:collect="always"
       xlink:href="#linearGradient2320"
       id="linearGradient3130"
       x1="88.6875"
       y1="82.8125"
       x2="90.25"
       y2="57.8125"
       gradientUnits="userSpaceOnUse"
       gradientTransform="translate(1.3781965,0)" />
    <linearGradient
       inkscape:collect="always"
       xlink:href="#linearGradient2320"
       id="linearGradient3134"
       x1="85.9375"
       y1="69.75"
       x2="88.75"
       y2="44.8125"
       gradientUnits="userSpaceOnUse"
       gradientTransform="translate(1.3781965,0)" />
    <linearGradient
       inkscape:collect="always"
       xlink:href="#linearGradient2320"
       id="linearGradient3138"
       x1="120.6875"
       y1="51.03125"
       x2="124.375"
       y2="49.65625"
       gradientUnits="userSpaceOnUse"
       gradientTransform="translate(1.3781965,0)" />
    <linearGradient
       inkscape:collect="always"
       xlink:href="#linearGradient2320"
       id="linearGradient3148"
       x1="57.3125"
       y1="79.125"
       x2="57.3125"
       y2="65.8125"
       gradientUnits="userSpaceOnUse"
       gradientTransform="translate(1.3781965,0)" />
    <linearGradient
       inkscape:collect="always"
       xlink:href="#linearGradient2320"
       id="linearGradient3179"
       x1="45.387421"
       y1="94.611305"
       x2="44.149979"
       y2="91.208351"
       gradientUnits="userSpaceOnUse"
       gradientTransform="translate(1.3781965,0)" />
    <linearGradient
       inkscape:collect="always"
       xlink:href="#linearGradient2320"
       id="linearGradient3189"
       x1="66.909981"
       y1="93.462257"
       x2="68.279999"
       y2="91.738686"
       gradientUnits="userSpaceOnUse"
       gradientTransform="translate(1.3781965,0)" />
    <linearGradient
       inkscape:collect="always"
       xlink:href="#linearGradient3193"
       id="linearGradient3199"
       x1="40.172504"
       y1="103.91418"
       x2="50.823299"
       y2="94.147263"
       gradientUnits="userSpaceOnUse"
       gradientTransform="translate(1.3781965,0)" />
    <linearGradient
       inkscape:collect="always"
       xlink:href="#linearGradient3193"
       id="linearGradient3203"
       x1="64.125746"
       y1="100.00299"
       x2="76.809474"
       y2="100.00299"
       gradientUnits="userSpaceOnUse"
       gradientTransform="translate(1.3781965,0)" />
    <filter
       inkscape:collect="always"
       id="filter3233">
      <feGaussianBlur
         inkscape:collect="always"
         stdDeviation="0.95224764"
         id="feGaussianBlur3235" />
    </filter>
    <linearGradient
       id="linearGradient3392">
      <stop
         id="stop3394"
         offset="0"
         style="stop-color:#4a585b;stop-opacity:1;" />
      <stop
         id="stop3396"
         offset="1"
         style="stop-color:#5e7074;stop-opacity:1;" />
    </linearGradient>
    <linearGradient
       inkscape:collect="always"
       xlink:href="#linearGradient3392"
       id="linearGradient2628"
       x1="92.067863"
       y1="43.621719"
       x2="80.152718"
       y2="12.83253"
       gradientUnits="userSpaceOnUse" />
    <linearGradient
       inkscape:collect="always"
       xlink:href="#linearGradient3392"
       id="linearGradient2630"
       x1="42.874691"
       y1="20.267656"
       x2="59.957233"
       y2="55.727116"
       gradientUnits="userSpaceOnUse" />
  </defs>
  <sodipodi:namedview
     id="base"
     pagecolor="#ffffff"
     bordercolor="#666666"
     borderopacity="1.0"
     gridtolerance="10000"
     guidetolerance="10"
     objecttolerance="10"
     inkscape:pageopacity="0.0"
     inkscape:pageshadow="2"
     inkscape:zoom="1"
     inkscape:cx="64"
     inkscape:cy="64"
     inkscape:document-units="px"
     inkscape:current-layer="layer2"
     showgrid="false"
     width="744.09px"
     inkscape:window-width="1224"
     inkscape:window-height="975"
     inkscape:window-x="450"
     inkscape:window-y="24"
     showguides="true"
     inkscape:guide-bbox="true" />
  <metadata
     id="metadata7">
    <rdf:RDF>
      <cc:Work
         rdf:about="">
        <dc:format>image/svg+xml</dc:format>
        <dc:type
           rdf:resource="http://purl.org/dc/dcmitype/StillImage" />
      </cc:Work>
    </rdf:RDF>
  </metadata>
  <g
     inkscape:groupmode="layer"
     id="layer2"
     inkscape:label="color">
    <path
       style="fill:#000000;fill-rule:evenodd;stroke:none;stroke-width:1px;stroke-linecap:butt;stroke-linejoin:miter;stroke-opacity:1;filter:url(#filter3233);fill-opacity:0.63013697"
       d="M 34.627187,116.4576 L 29.975774,114.39031 L 19.811575,113.18439 L 1.8950202,104.22611 L 12.748318,90.960969 L 1.3781965,85.792732 L 13.60969,73.733513 L 82.002692,89.582773 L 79.074024,109.91117 L 58.573351,120.07537 L 51.33782,118.35262 L 47.030956,116.4576 L 34.627187,116.4576 z"
       id="path3207" />
    <path
       style="fill:url(#linearGradient2449);fill-rule:evenodd;stroke:none;stroke-width:1px;stroke-linecap:butt;stroke-linejoin:miter;stroke-opacity:1"
       d="M 13.438032,60.513653 L 11.7326,61.488185 L 8.6871872,85.607854 L 58.631957,119.83829 L 60.215572,96.084074 L 60.824655,93.76956 L 13.438032,60.513653 z"
       id="path2447" />
    <path
       style="fill:url(#linearGradient2453);fill-rule:evenodd;stroke:none;stroke-width:1px;stroke-linecap:butt;stroke-linejoin:miter;stroke-opacity:1"
       d="M 58.510141,119.96011 L 59.850123,96.327707 L 60.459205,94.013193 L 121.00201,71.720772 L 121.00201,70.624423 L 124.04743,71.964405 L 126.60557,96.327707 L 104.80042,103.88033 L 104.92223,102.9058 L 84.944324,110.09297 L 84.335241,110.94569 L 58.510141,119.96011 z"
       id="path2451" />
    <path
       style="fill:url(#linearGradient2457);fill-rule:evenodd;stroke:none;stroke-width:1px;stroke-linecap:butt;stroke-linejoin:miter;stroke-opacity:1"
       d="M 84.335241,110.09297 L 84.335241,107.29119 L 84.822507,101.20037 L 87.624287,95.109542 L 93.10603,88.409634 L 97.004158,86.09512 C 99.094896,86.161439 100.07071,87.06395 101.26774,87.800552 L 103.46044,90.724148 L 104.80042,95.962258 L 104.6786,102.9058 L 84.335241,110.09297 z"
       id="path2455"
       sodipodi:nodetypes="ccccccccccc" />
    <path
       id="path2459"
       d="M 15.382576,64.491129 L 11.644212,61.930127 L 8.6871872,85.607854 L 58.631957,119.83829 L 60.215572,96.084074 L 51.543878,90.322414 L 15.382576,64.491129 z"
       style="fill:#000000;fill-opacity:0.15686275;fill-rule:evenodd;stroke:none;stroke-width:1px;stroke-linecap:butt;stroke-linejoin:miter;stroke-opacity:1"
       sodipodi:nodetypes="ccccccc" />
    <path
       style="fill:#000000;fill-opacity:0.15686275;fill-rule:evenodd;stroke:none;stroke-width:1px;stroke-linecap:butt;stroke-linejoin:miter;stroke-opacity:1"
       d="M 97.809884,85.838758 L 101.69897,86.015535 L 105.05773,89.374292 L 106.64872,94.85437 L 107.00228,102.80932 L 104.79257,103.78159 L 104.96934,99.62734 L 104.5274,94.765981 L 102.93641,89.374292 L 101.25703,87.694913 L 97.809884,85.838758 z"
       id="path3038" />
    <path
       style="fill:url(#linearGradient3042);fill-rule:evenodd;stroke:none;stroke-width:1px;stroke-linecap:butt;stroke-linejoin:miter;stroke-opacity:1"
       d="M 17.376488,83.452273 L 14.459672,82.921943 L 10.924138,84.247768 L 7.4769925,87.429748 L 5.0905071,91.584001 L 3.8530702,95.738253 L 3.7646819,98.831845 L 5.0021188,102.63254 L 7.2118275,104.57709 L 7.6537692,106.07969 L 8.5376527,106.69841 L 9.5099245,106.43324 L 14.636449,110.41072 L 15.697109,111.55977 L 17.022935,111.64816 L 22.414624,114.29981 L 21.265575,112.70882 L 20.204915,107.67068 L 21.707517,101.74866 L 23.298507,98.655069 L 25.684993,95.826641 L 28.955362,94.058874 L 27.45276,87.783302 L 25.154663,86.2807 L 21.088799,84.68971 L 20.381692,84.601321 L 20.028138,83.982603 L 18.437148,83.363884 L 17.906818,83.894214 L 17.376488,83.452273 z"
       id="path3040"
       sodipodi:nodetypes="cccccccccccccccccccccccccccccc" />
    <path
       style="fill:url(#linearGradient3046);fill-rule:evenodd;stroke:none;stroke-width:1px;stroke-linecap:butt;stroke-linejoin:miter;stroke-opacity:1"
       d="M 28.955362,94.058874 L 26.657264,95.207923 L 24.977886,96.710525 L 22.326235,100.42284 L 20.823634,104.57709 L 20.47008,106.87518 L 20.558468,109.96878 L 22.149459,114.03464 L 24.447556,115.44885 L 26.303711,115.62563 L 28.690196,114.91852 L 30.63474,113.85786 L 33.286391,111.11783 L 28.955362,94.058874 z"
       id="path3044" />
    <path
       style="fill:#1a1a1a;fill-rule:evenodd;stroke:none;stroke-width:1px;stroke-linecap:butt;stroke-linejoin:miter;stroke-opacity:1"
       d="M 27.806313,89.639457 L 23.740449,92.202719 L 20.646857,96.268583 L 18.613925,99.538952 L 17.2881,103.51643 L 16.669381,109.792 L 16.934546,111.55977 L 15.343556,111.55977 L 14.724838,110.05717 L 14.459672,104.93064 L 15.255168,100.06928 L 16.75777,96.710525 L 20.646857,92.379496 L 25.508216,88.578797 L 27.275983,87.518137 L 27.806313,89.639457 z"
       id="path3048" />
    <path
       style="fill:#1a1a1a;fill-rule:evenodd;stroke:none;stroke-width:1px;stroke-linecap:butt;stroke-linejoin:miter;stroke-opacity:1"
       d="M 20.293303,84.512933 L 17.730041,86.192311 L 14.724838,88.578797 L 12.161575,91.937554 L 10.30542,95.561476 L 9.8634779,98.920234 L 9.3331478,101.74866 L 9.5983128,106.34485 L 8.5376527,106.61002 L 7.5653808,105.9913 L 7.3002158,105.19581 L 7.0350508,100.59961 L 7.4769925,97.152467 L 8.7144294,93.263379 L 11.36608,89.285904 L 15.166779,85.661981 L 18.702313,83.275496 L 19.93975,84.070991 L 20.293303,84.512933 z"
       id="path3050" />
    <path
       sodipodi:nodetypes="cccccccccccccccccccccccccccccc"
       id="path3052"
       d="M 17.376488,83.452273 L 14.459672,82.921943 L 10.924138,84.247768 L 7.4769925,87.429748 L 5.0905071,91.584001 L 3.8530702,95.738253 L 3.7646819,98.831845 L 5.0021188,102.63254 L 7.2118275,104.57709 L 7.6537692,106.07969 L 8.5376527,106.69841 L 9.5099245,106.43324 L 14.636449,110.41072 L 15.697109,111.55977 L 17.022935,111.64816 L 22.414624,114.29981 L 21.265575,112.70882 L 20.204915,107.67068 L 21.707517,101.74866 L 23.298507,98.655069 L 25.684993,95.826641 L 28.955362,94.058874 L 27.45276,87.783302 L 25.154663,86.2807 L 21.088799,84.68971 L 20.381692,84.601321 L 20.028138,83.982603 L 18.437148,83.363884 L 17.906818,83.894214 L 17.376488,83.452273 z"
       style="fill:#000000;fill-opacity:0.15686275;fill-rule:evenodd;stroke:none;stroke-width:1px;stroke-linecap:butt;stroke-linejoin:miter;stroke-opacity:1" />
    <path
       style="fill:url(#linearGradient3056);fill-rule:evenodd;stroke:none;stroke-width:1px;stroke-linecap:butt;stroke-linejoin:miter;stroke-opacity:1"
       d="M 34.253197,116.4375 L 44.690697,121.125 L 45.128197,120.6875 L 40.815697,106.625 L 35.440697,88.3125 L 32.503197,78.8125 L 30.253197,70.875 L 18.628197,63.4375 L 27.503197,59.875 L 27.003197,59.1875 L 17.315697,63.125 L 16.690697,72.875 L 25.315697,79.125 L 34.253197,116.4375 z"
       id="path3054" />
    <path
       style="fill:url(#linearGradient3060);fill-rule:evenodd;stroke:none;stroke-width:1px;stroke-linecap:butt;stroke-linejoin:miter;stroke-opacity:1"
       d="M 44.988508,120.75192 L 30.24871,70.928964 L 25.558775,67.94446 L 27.751472,67.091744 L 27.934197,67.518102 L 36.339536,73.669836 L 36.217719,76.410707 L 42.12582,94.013193 L 48.033921,112.28567 L 54.307471,117.09742 L 44.988508,120.75192 z"
       id="path3058" />
    <path
       style="fill:url(#linearGradient3064);fill-rule:evenodd;stroke:none;stroke-width:1px;stroke-linecap:butt;stroke-linejoin:miter;stroke-opacity:1"
       d="M 8.3781965,46.5625 L 8.5031965,54.4375 L 19.628197,62.1875 L 27.128197,59.3125 L 28.724564,58.644735 L 10.890566,46.453277 L 9.7540854,47.403104 L 8.3781965,46.5625 z M 36.596947,65.5625 L 36.409447,76.40625 L 42.128197,94.125 L 47.909447,112.28125 L 54.503197,117.46875 L 49.565697,103.625 L 40.346947,76.46875 L 40.346947,76.09375 L 58.096947,87.96875 L 57.971947,80.375 L 56.942651,79.186772 L 56.995835,77.759616 L 37.659129,64.823244 L 36.596947,65.5625 z"
       id="path3062"
       sodipodi:nodetypes="cccccccccccccccccccccc" />
    <path
       id="path3066"
       d="M 34.49683,116.4375 L 43.837981,120.45501 L 39.962981,106.92954 L 34.527073,88.860674 L 29.156848,71.057725 L 17.132972,63.49045 L 16.690697,72.875 L 25.315697,79.125 L 34.49683,116.4375 z"
       style="fill:#000000;fill-opacity:0.15686275;fill-rule:evenodd;stroke:none;stroke-width:1px;stroke-linecap:butt;stroke-linejoin:miter;stroke-opacity:1"
       sodipodi:nodetypes="ccccccccc" />
    <path
       style="fill:url(#linearGradient3076);fill-rule:evenodd;stroke:none;stroke-width:1px;stroke-linecap:butt;stroke-linejoin:miter;stroke-opacity:1"
       d="M 13.878197,58.4375 L 13.815697,61.3125 L 17.003197,63.5625 L 17.315697,63.25 L 19.628197,62.1875 L 13.878197,58.4375 z M 40.565697,76.125 L 40.378197,76.5 L 42.065697,81.375 L 60.565697,93.75 L 60.440697,87.0625 L 58.003197,87.9375 L 40.565697,76.125 z"
       id="path3071" />
    <path
       id="path3078"
       d="M 13.878197,58.4375 L 13.815697,61.3125 L 17.003197,63.5625 L 17.315697,63.25 L 19.628197,62.1875 L 13.878197,58.4375 z M 40.565697,76.125 L 40.378197,76.5 L 42.065697,81.375 L 60.565697,93.75 L 60.440697,87.0625 L 58.003197,87.9375 L 40.565697,76.125 z"
       style="fill:#000000;fill-opacity:0.15686275;fill-rule:evenodd;stroke:none;stroke-width:1px;stroke-linecap:butt;stroke-linejoin:miter;stroke-opacity:1" />
    <path
       style="fill:url(#linearGradient3082);fill-rule:evenodd;stroke:none;stroke-width:1px;stroke-linecap:butt;stroke-linejoin:miter;stroke-opacity:1"
       d="M 18.690697,63.5 C 19.315697,63.25 27.690697,59.75 27.690697,59.75 L 27.890816,59.250838 L 28.81589,58.813684 L 29.35164,66.441793 L 27.815697,67.1875 L 25.690697,67.875 L 18.690697,63.5 z"
       id="path3080"
       sodipodi:nodetypes="cccccccc" />
    <path
       style="fill:url(#linearGradient3086);fill-rule:evenodd;stroke:none;stroke-width:1px;stroke-linecap:butt;stroke-linejoin:miter;stroke-opacity:1"
       d="M 13.565697,46.3125 L 11.190697,46.6875 L 13.690697,48.375 L 13.565697,46.3125 z M 29.003197,61.1875 L 29.378197,66.5625 L 28.878197,66.75 L 28.003197,67.5 L 36.378197,73.75 L 36.440697,67.125 L 29.003197,61.1875 z"
       id="path3084" />
    <path
       id="path3093"
       d="M 13.565697,46.3125 L 11.190697,46.6875 L 13.690697,48.375 L 13.565697,46.3125 z M 29.003197,61.1875 L 29.378197,66.5625 L 28.878197,66.75 L 28.003197,67.5 L 36.378197,73.75 L 36.440697,67.125 L 29.003197,61.1875 z"
       style="fill:#000000;fill-opacity:0.15686275;fill-rule:evenodd;stroke:none;stroke-width:1px;stroke-linecap:butt;stroke-linejoin:miter;stroke-opacity:1" />
    <path
       style="fill:url(#linearGradient3097);fill-opacity:1;fill-rule:evenodd;stroke:none;stroke-width:1px;stroke-linecap:butt;stroke-linejoin:miter;stroke-opacity:1"
       d="M 13.628197,36.625 L 13.753197,48.5 L 17.503197,51.125 L 28.815697,58.625 L 28.878197,61.0625 L 36.378197,67.1875 L 36.503197,65.375 L 37.690697,64.75 L 57.003197,77.875 L 57.565697,65.625 L 13.628197,36.625 z"
       id="path3095"
       sodipodi:nodetypes="ccccccccccc" />
    <path
       style="fill:url(#linearGradient3101);fill-rule:evenodd;stroke:none;stroke-width:1px;stroke-linecap:butt;stroke-linejoin:miter;stroke-opacity:1"
       d="M 8.3781965,46.375 L 8.5656965,33.25 L 11.315697,35 L 10.940697,45.375 L 13.690697,44.9375 L 13.690697,46.3125 L 11.253197,46.625 L 10.690697,46.375 L 9.8781965,47.1875 L 8.3781965,46.375 z"
       id="path3099" />
    <path
       id="path3103"
       d="M 8.3781965,46.375 L 8.5656965,33.25 L 10.128197,34.3125 L 9.8781965,47.1875 L 8.3781965,46.375 z"
       style="fill:#000000;fill-opacity:0.15686275;fill-rule:evenodd;stroke:none;stroke-width:1px;stroke-linecap:butt;stroke-linejoin:miter;stroke-opacity:1"
       sodipodi:nodetypes="ccccc" />
    <path
       style="fill:#000000;fill-opacity:0.15686275;fill-rule:evenodd;stroke:none;stroke-width:1px;stroke-linecap:butt;stroke-linejoin:miter;stroke-opacity:1"
       d="M 41.503197,67.0625 L 41.628197,57.375 L 46.815697,60.625 L 46.690697,70.75 L 41.503197,67.0625 z"
       id="path3105" />
    <path
       style="fill:#000000;fill-opacity:0.15686275;fill-rule:evenodd;stroke:none;stroke-width:1px;stroke-linecap:butt;stroke-linejoin:miter;stroke-opacity:1"
       d="M 23.628197,44.0625 L 23.690697,51.4375 L 30.878197,56.3125 L 30.690697,48.8125 L 23.628197,44.0625 z"
       id="path3107" />
    <path
       style="fill:#d59163;fill-opacity:1;fill-rule:evenodd;stroke:none;stroke-width:1px;stroke-linecap:butt;stroke-linejoin:miter;stroke-opacity:1"
       d="M 24.659447,45.96875 L 24.690697,47.84375 L 26.471947,49.09375 L 26.565697,47.21875 L 24.659447,45.96875 z M 27.503197,47.8125 L 27.596947,49.9375 L 29.628197,51.15625 L 29.628197,49.25 L 27.503197,47.8125 z M 24.784447,49.1875 L 24.659447,50.9375 L 26.628197,52.34375 L 26.534447,50.34375 L 24.784447,49.1875 z M 27.596947,50.84375 L 27.628197,53 L 29.659447,54.5625 L 29.628197,52.21875 L 27.596947,50.84375 z"
       id="path3111" />
    <path
       id="path3120"
       d="M 48.440697,61 L 48.503197,68.375 L 55.690697,73.25 L 55.503197,65.75 L 48.440697,61 z"
       style="fill:#000000;fill-opacity:0.15686275;fill-rule:evenodd;stroke:none;stroke-width:1px;stroke-linecap:butt;stroke-linejoin:miter;stroke-opacity:1" />
    <path
       id="path3122"
       d="M 49.471947,62.90625 L 49.503197,64.78125 L 51.284447,66.03125 L 51.378197,64.15625 L 49.471947,62.90625 z M 52.315697,64.75 L 52.409447,66.875 L 54.440697,68.09375 L 54.440697,66.1875 L 52.315697,64.75 z M 49.596947,66.125 L 49.471947,67.875 L 51.440697,69.28125 L 51.346947,67.28125 L 49.596947,66.125 z M 52.409447,67.78125 L 52.440697,69.9375 L 54.471947,71.5 L 54.440697,69.15625 L 52.409447,67.78125 z"
       style="fill:#d59163;fill-opacity:1;fill-rule:evenodd;stroke:none;stroke-width:1px;stroke-linecap:butt;stroke-linejoin:miter;stroke-opacity:1" />
    <path
       style="fill:url(#linearGradient3126);fill-rule:evenodd;stroke:none;stroke-width:1px;stroke-linecap:butt;stroke-linejoin:miter;stroke-opacity:1"
       d="M 58.065697,87.75 L 58.128197,80.25 L 60.503197,79.375 L 60.565697,78 L 124.0657,55.3125 L 125.3157,56 L 125.3782,63.6875 L 58.065697,87.75 z"
       id="path3124"
       sodipodi:nodetypes="cccccccc" />
    <path
       style="fill:url(#linearGradient3130);fill-rule:evenodd;stroke:none;stroke-width:1px;stroke-linecap:butt;stroke-linejoin:miter;stroke-opacity:1"
       d="M 60.378197,93.9375 L 60.440697,87.1875 L 120.9407,65.1875 L 120.9407,71.5625 L 60.378197,93.9375 z"
       id="path3128" />
    <path
       style="fill:url(#linearGradient3134);fill-rule:evenodd;stroke:none;stroke-width:1px;stroke-linecap:butt;stroke-linejoin:miter;stroke-opacity:1"
       d="M 60.440697,77.9375 L 60.315697,64.5625 L 90.628197,45 L 120.8157,43.1875 L 120.8157,56.3125 L 98.878197,64.4375 L 60.440697,77.9375 z"
       id="path3132"
       sodipodi:nodetypes="ccccccc" />
    <path
       style="fill:url(#linearGradient3138);fill-rule:evenodd;stroke:none;stroke-width:1px;stroke-linecap:butt;stroke-linejoin:miter;stroke-opacity:1"
       d="M 121.0032,56.25 L 121.1907,54.4375 L 121.0657,53.125 L 122.6907,53.625 L 122.8782,43.0625 L 125.7532,43.3125 L 125.1907,55.75 L 123.7532,55.25 L 121.0032,56.25 z"
       id="path3136" />
    <path
       id="path3140"
       d="M 121.0032,56.25 L 121.1907,54.4375 L 123.8157,55.125 L 123.8157,43.125 L 125.7532,43.3125 L 125.1907,55.75 L 123.7532,55.25 L 121.0032,56.25 z"
       style="fill:#000000;fill-opacity:0.15686275;fill-rule:evenodd;stroke:none;stroke-width:1px;stroke-linecap:butt;stroke-linejoin:miter;stroke-opacity:1"
       sodipodi:nodetypes="cccccccc" />
    <path
       style="fill:#000000;fill-opacity:0.15686275;fill-rule:evenodd;stroke:none;stroke-width:1px;stroke-linecap:butt;stroke-linejoin:miter;stroke-opacity:1"
       d="M 65.815697,75.875 L 65.940697,65.5 L 73.315697,62.4375 L 73.128197,73.5 L 65.815697,75.875 z"
       id="path3142" />
    <path
       id="path3144"
       d="M 98.753197,64.375 L 98.878197,54 L 106.2532,50.9375 L 106.0657,62 L 98.753197,64.375 z"
       style="fill:#000000;fill-opacity:0.15686275;fill-rule:evenodd;stroke:none;stroke-width:1px;stroke-linecap:butt;stroke-linejoin:miter;stroke-opacity:1" />
    <path
       style="fill:url(#linearGradient3148);fill-rule:evenodd;stroke:none;stroke-width:1px;stroke-linecap:butt;stroke-linejoin:miter;stroke-opacity:1"
       d="M 56.940697,78.9375 C 56.940697,78.6875 57.253197,66.25 57.253197,66.25 L 60.378197,64.6875 L 60.440697,79.4375 L 58.378197,80.3125 L 56.940697,78.9375 z"
       id="path3146" />
    <path
       id="path3150"
       d="M 56.940697,78.9375 C 56.940697,78.6875 57.253197,66.25 57.253197,66.25 L 58.878197,65.6875 L 58.378197,80.3125 L 56.940697,78.9375 z"
       style="fill:#000000;fill-opacity:0.15686275;fill-rule:evenodd;stroke:none;stroke-width:1px;stroke-linecap:butt;stroke-linejoin:miter;stroke-opacity:1"
       sodipodi:nodetypes="ccccc" />
    <path
       style="fill:#000000;fill-opacity:0.15686275;fill-rule:evenodd;stroke:none;stroke-width:1px;stroke-linecap:butt;stroke-linejoin:miter;stroke-opacity:1"
       d="M 75.378197,60.5625 L 75.378197,68.4375 L 85.128197,64.8125 L 85.128197,56.9375 L 75.378197,60.5625 z"
       id="path3152" />
    <path
       style="fill:#d59163;fill-opacity:1;fill-rule:evenodd;stroke:none;stroke-width:1px;stroke-linecap:butt;stroke-linejoin:miter;stroke-opacity:1"
       d="M 83.565697,58.75 L 80.659447,59.84375 L 80.721947,62.03125 L 83.596947,60.75 L 83.565697,58.75 z M 79.409447,60.4375 L 76.846947,61.40625 L 76.846947,63.40625 L 79.409447,62.5625 L 79.409447,60.4375 z M 83.628197,61.9375 L 80.846947,62.96875 L 80.846947,65.34375 L 83.565697,64.28125 L 83.628197,61.9375 z M 79.503197,63.8125 L 76.784447,64.75 L 76.784447,66.8125 L 79.503197,65.78125 L 79.503197,63.8125 z"
       id="path3154" />
    <path
       id="path3165"
       d="M 108.34705,48.895238 L 108.34705,56.770238 L 118.09705,53.145238 L 118.09705,45.270238 L 108.34705,48.895238 z"
       style="fill:#000000;fill-opacity:0.15686275;fill-rule:evenodd;stroke:none;stroke-width:1px;stroke-linecap:butt;stroke-linejoin:miter;stroke-opacity:1" />
    <path
       id="path3167"
       d="M 116.53455,47.082738 L 113.6283,48.176488 L 113.6908,50.363988 L 116.5658,49.082738 L 116.53455,47.082738 z M 112.3783,48.770238 L 109.8158,49.738988 L 109.8158,51.738988 L 112.3783,50.895238 L 112.3783,48.770238 z M 116.59705,50.270238 L 113.8158,51.301488 L 113.8158,53.676488 L 116.53455,52.613988 L 116.59705,50.270238 z M 112.47205,52.145238 L 109.7533,53.082738 L 109.7533,55.145238 L 112.47205,54.113988 L 112.47205,52.145238 z"
       style="fill:#d59163;fill-opacity:1;fill-rule:evenodd;stroke:none;stroke-width:1px;stroke-linecap:butt;stroke-linejoin:miter;stroke-opacity:1" />
    <path
       style="fill:#000000;fill-opacity:0.15686275;fill-rule:evenodd;stroke:none;stroke-width:1px;stroke-linecap:butt;stroke-linejoin:miter;stroke-opacity:1"
       d="M 89.788642,47.345633 L 90.628331,46.550137 L 91.954157,45.975613 L 93.434661,46.130293 L 94.495322,47.146759 L 94.804681,48.295807 L 94.870972,49.245982 L 93.876603,51.08004 L 94.009186,48.384196 L 92.506584,46.704817 L 89.788642,47.345633 z"
       id="path3171" />
    <path
       style="fill:#d59163;fill-opacity:1;fill-rule:evenodd;stroke:none;stroke-width:1px;stroke-linecap:butt;stroke-linejoin:miter;stroke-opacity:1"
       d="M 89.457186,47.677089 L 89.921225,47.257244 L 91.490118,46.726914 L 92.83804,46.749011 L 93.500953,47.168856 L 94.185962,48.185322 L 94.009186,50.041477 L 93.434661,51.941827 L 91.048176,52.958293 L 89.854933,52.781516 C 89.854933,52.781516 88.551205,51.875535 88.529108,51.787147 C 88.507011,51.698759 88.197652,50.196157 88.197652,50.196157 L 88.507011,48.870332 L 89.457186,47.677089 z"
       id="path3169" />
    <path
       style="fill:url(#linearGradient2630);fill-opacity:1;fill-rule:evenodd;stroke:none;stroke-width:1px;stroke-linecap:butt;stroke-linejoin:miter;stroke-opacity:1"
       d="M 8.626041,33.247691 L 58.300293,66.039768 L 91.09237,44.826565 L 43.981381,11.857711 L 8.626041,33.247691 z"
       id="path3173"
       sodipodi:nodetypes="ccccc" />
    <path
       style="fill:url(#linearGradient3179);fill-rule:evenodd;stroke:none;stroke-width:1px;stroke-linecap:butt;stroke-linejoin:miter;stroke-opacity:1"
       d="M 38.67808,95.517282 L 58.919011,88.136855 L 59.53773,88.269438 L 59.979672,89.418486 L 59.139982,90.788506 L 46.323672,95.473088 L 39.385187,97.992156 L 38.810662,97.285049 L 38.67808,95.517282 z"
       id="path3177" />
    <path
       style="fill:url(#linearGradient3189);fill-rule:evenodd;stroke:none;stroke-width:1px;stroke-linecap:butt;stroke-linejoin:miter;stroke-opacity:1"
       d="M 62.233575,87.252972 L 79.601885,98.434098 L 79.734467,99.538952 L 79.292526,100.55542 L 61.791633,89.374292 L 61.261303,88.092661 L 61.614856,87.34136 L 62.233575,87.252972 z"
       id="path3187" />
    <path
       style="fill:url(#linearGradient3199);fill-opacity:1;fill-rule:evenodd;stroke:none;stroke-width:1px;stroke-linecap:butt;stroke-linejoin:miter;stroke-opacity:1"
       d="M 40.092293,97.638603 L 40.445847,106.43324 L 54.720565,101.4393 C 54.720565,101.4393 54.543788,92.644661 54.367012,92.644661 C 54.190235,92.644661 40.136488,97.815379 40.092293,97.638603 z"
       id="path3191" />
    <path
       style="fill:url(#linearGradient3203);fill-rule:evenodd;stroke:none;stroke-width:1px;stroke-linecap:butt;stroke-linejoin:miter;stroke-opacity:1"
       d="M 65.901691,91.981748 L 65.503943,99.715729 L 77.878312,108.02423 L 78.187671,99.9367 L 65.901691,91.981748 z"
       id="path3201" />
    <path
       id="path2626"
       d="M 91.09237,44.826565 L 125.29866,43.058798 L 76.773458,9.2060605 L 43.981381,11.857711 L 91.09237,44.826565 z"
       style="fill:url(#linearGradient2628);fill-opacity:1;fill-rule:evenodd;stroke:none;stroke-width:1px;stroke-linecap:butt;stroke-linejoin:miter;stroke-opacity:1"
       sodipodi:nodetypes="ccccc" />
    <path
       id="path3175"
       d="M 8.626041,33.247691 L 58.300293,66.039768 L 91.09237,44.826565 L 43.981381,11.857711 L 8.626041,33.247691 z"
       style="fill:#000000;fill-opacity:0.15686275000000000;fill-rule:evenodd;stroke:none;stroke-width:1px;stroke-linecap:butt;stroke-linejoin:miter;stroke-opacity:1"
       sodipodi:nodetypes="ccccc" />
  </g>
  <g
     inkscape:label="outline"
     inkscape:groupmode="layer"
     id="layer1">
    <path
       style="fill:#000000;fill-opacity:1;fill-rule:evenodd;stroke:none;stroke-width:0.99999994px;stroke-linecap:butt;stroke-linejoin:miter;stroke-opacity:1"
       d="M 77.045427,9.0668919 L 43.764177,11.785642 L 7.9516762,33.129392 L 8.2641762,33.348142 L 8.1391762,54.754392 L 13.514177,58.379392 L 13.514177,60.535642 L 11.389177,61.410642 L 8.2641762,85.566892 L 8.7329262,85.879392 C 8.589255,86.005758 8.434254,86.126081 8.2954262,86.254392 C 4.4540259,90.485796 2.3766655,96.440286 4.3891762,101.97314 C 4.9515824,103.30163 6.042863,104.13302 7.1704262,104.94189 C 7.2030484,105.1809 7.2274002,105.42286 7.2641762,105.66064 C 7.8994229,106.39275 7.3963189,107.0651 9.3266762,106.75439 C 11.020562,108.19029 12.779393,109.60197 14.889177,110.94189 C 15.160557,111.46341 15.114259,111.85035 16.232927,111.75439 C 17.988379,112.75184 20.01114,113.7035 22.482927,114.53564 C 25.969376,116.9905 29.699594,114.92006 32.482927,112.34814 C 32.685597,112.13769 32.881601,111.91502 33.076677,111.69189 L 34.326677,116.66064 L 44.576677,121.22314 L 54.295427,117.34814 L 58.545427,120.28564 L 85.139177,110.94189 L 85.139177,110.34814 L 104.35793,103.16064 L 104.26418,104.12939 L 126.79543,96.316892 L 124.54543,72.160642 L 124.63918,71.941892 L 121.42043,70.348142 L 121.26418,65.441892 L 125.60793,63.879392 L 125.60793,55.191892 L 125.85793,43.316892 L 126.42043,43.285642 L 77.045427,9.0668919 z M 76.607927,9.5043919 L 124.07668,42.598142 L 91.045427,44.316892 L 45.201677,12.410642 L 76.607927,9.5043919 z M 73.795427,10.785642 L 73.451677,10.879392 C 73.684001,11.042019 74.13709,11.427952 74.514177,11.723142 L 58.076677,13.535642 C 57.507492,13.103377 56.926735,12.687492 56.357927,12.254392 L 55.982927,12.316892 C 56.547817,12.738517 57.105674,13.17497 57.670427,13.598142 L 51.920427,14.223142 L 51.764177,14.504392 L 57.982927,13.816892 C 60.686908,15.844302 63.372415,17.892785 66.076677,19.941892 C 64.696442,20.207148 63.32838,20.465599 61.951677,20.598142 L 62.076677,20.910642 C 63.563748,20.76447 65.02975,20.517805 66.482927,20.223142 C 75.423846,26.999264 84.379818,33.85157 93.451677,40.348142 L 93.607927,40.035642 C 84.639552,33.444411 75.718165,26.833735 66.826677,20.160642 C 69.520047,19.599156 72.167483,18.876656 74.857927,18.254392 L 80.576677,22.504392 L 73.670427,23.660642 L 73.732927,24.035642 L 80.951677,22.785642 L 89.232927,28.941892 L 85.607927,29.410642 L 85.482927,29.723142 L 89.545427,29.191892 L 95.701677,33.785642 L 95.732927,33.473142 L 89.951677,29.129392 L 100.85793,27.723142 L 100.67043,27.504392 L 89.639177,28.910642 L 81.357927,22.723142 L 88.357927,21.473142 C 89.707406,22.461418 91.072012,23.439536 92.482927,24.379392 L 90.607927,24.910642 L 90.545427,25.066892 L 92.639177,24.473142 C 93.378771,24.965512 94.132099,25.462733 94.889177,25.973142 L 95.076677,25.879392 C 94.3652,25.37154 93.646435,24.87238 92.920427,24.379392 L 95.107927,23.754392 L 95.107927,23.629392 L 92.795427,24.285642 C 91.406109,23.343451 90.001385,22.422524 88.639177,21.441892 L 89.889177,21.223142 L 89.701677,20.941892 L 88.295427,21.191892 C 87.026493,20.265696 85.790903,19.291082 84.639177,18.223142 L 84.514177,18.379392 C 85.659989,19.418685 86.822521,20.337691 88.014177,21.223142 L 80.982927,22.410642 L 75.264177,18.160642 C 76.177081,17.953683 77.090025,17.766213 78.014177,17.598142 L 78.076677,17.316892 C 77.049206,17.498933 76.017508,17.710794 74.982927,17.941892 L 74.482927,17.566892 L 74.107927,17.691892 L 74.576677,18.035642 C 71.894645,18.644994 69.183269,19.342819 66.482927,19.879392 C 63.784048,17.852997 61.079938,15.828159 58.389177,13.785642 L 74.857927,11.973142 C 75.870843,12.778229 76.98454,13.700672 78.170427,14.691892 L 73.482927,15.598142 L 73.389177,15.879392 L 78.451677,14.910642 C 79.918462,16.140055 81.326677,17.348142 81.326677,17.348142 L 81.639177,17.191892 C 81.639178,17.191892 80.264677,16.022474 78.857927,14.848142 L 80.826677,14.473142 L 80.732927,14.191892 L 78.576677,14.598142 C 77.409972,13.627174 76.29599,12.758429 75.264177,11.941892 L 77.201677,11.723142 L 76.920427,11.441892 L 74.920427,11.660642 C 74.521295,11.349517 74.049862,10.963747 73.795427,10.785642 z M 44.357927,12.504392 L 90.045427,44.816892 L 58.170427,65.566892 L 11.389177,34.598142 L 9.1391762,33.098142 L 44.014177,12.535642 L 44.357927,12.504392 z M 42.732927,15.535642 L 37.670427,18.504392 L 37.201677,18.129392 L 37.014177,18.160642 L 37.514177,18.566892 L 16.201677,30.973142 C 16.099004,30.898191 15.991697,30.82956 15.889177,30.754392 L 15.857927,30.879392 C 15.930477,30.932002 16.004117,30.983064 16.076677,31.035642 L 13.264177,32.691892 L 13.389177,33.129392 L 16.451677,31.316892 C 18.407481,32.732258 20.360542,34.143576 22.326677,35.535642 L 20.451677,36.785642 L 20.670427,36.910642 L 22.607927,35.723142 C 25.991006,38.115793 29.390278,40.462719 32.826677,42.785642 L 32.732927,42.848142 L 32.951677,43.160642 L 33.170427,43.004392 C 34.043931,43.593899 34.917299,44.200676 35.795427,44.785642 L 35.889177,44.379392 C 35.088052,43.836461 34.287302,43.292795 33.482927,42.754392 L 41.482927,36.816892 C 45.260754,39.561114 49.073492,42.257942 52.889177,44.941892 L 49.420427,47.223142 L 43.857927,43.285642 L 43.482927,43.473142 L 49.107927,47.410642 L 44.014177,50.785642 L 44.420427,51.066892 L 49.451677,47.660642 L 56.607927,52.660642 C 54.947905,53.836579 53.293274,55.001095 51.639177,56.129392 L 51.639177,56.285642 C 53.290676,55.053162 55.006355,53.90464 56.732927,52.754392 L 63.014177,57.129392 L 63.264177,56.941892 L 57.014177,52.566892 C 59.992715,50.584098 62.974108,48.582953 65.670427,46.254392 C 67.507176,47.7375 69.318696,49.205915 71.045427,50.504392 L 65.389177,54.035642 L 65.482927,54.379392 L 71.326677,50.691892 C 71.506139,50.825486 71.68036,50.968902 71.857927,51.098142 L 71.920427,50.629392 C 71.841714,50.575392 71.749182,50.528009 71.670427,50.473142 L 76.701677,47.285642 C 77.546717,47.940682 78.403641,48.592136 79.295427,49.191892 L 79.357927,48.816892 C 78.555406,48.256801 77.809617,47.657973 77.045427,47.066892 L 81.045427,44.535642 L 80.889177,44.316892 L 76.795427,46.879392 C 74.52165,45.1067 72.342443,43.241754 70.014177,41.473142 L 69.826677,41.754392 C 72.100259,43.47438 74.218484,45.35075 76.451677,47.098142 L 71.420427,50.254392 C 69.61543,48.97626 67.788305,47.505082 65.951677,46.004392 C 66.295601,45.701775 66.649766,45.413596 66.982927,45.098142 L 66.764177,44.879392 C 66.40741,45.183826 66.033056,45.484849 65.670427,45.785642 C 63.569202,44.070158 61.463507,42.351858 59.295427,40.941892 L 61.982927,39.129392 L 61.826677,39.035642 L 59.107927,40.848142 C 58.560782,40.496916 58.004152,40.154727 57.451677,39.848142 L 57.295427,40.066892 C 57.792786,40.366078 58.29136,40.699691 58.795427,41.035642 L 53.201677,44.723142 C 49.265153,41.91358 45.416721,39.345443 41.670427,36.691892 L 44.326677,34.723142 L 43.982927,34.535642 L 41.357927,36.473142 C 39.279343,34.995475 37.233304,33.47511 35.232927,31.879392 L 39.357927,29.129392 L 39.357927,28.973142 L 35.045427,31.723142 C 34.134368,30.992823 33.219349,30.277394 32.326677,29.504392 L 31.982927,29.598142 C 32.923407,30.362515 33.870469,31.103117 34.826677,31.848142 L 28.857927,35.660642 L 28.982927,36.035642 L 35.014177,32.004392 C 37.033174,33.573425 39.101648,35.091765 41.170427,36.598142 L 33.139177,42.535642 C 29.687365,40.228116 26.227359,37.935035 22.795427,35.598142 L 27.920427,32.410642 L 27.545427,32.066892 L 22.514177,35.410642 C 20.518962,34.049285 18.531185,32.673733 16.576677,31.254392 L 37.764177,18.785642 L 42.201677,22.316892 L 33.639177,27.410642 L 33.951677,27.566892 L 42.451677,22.504392 L 47.107927,26.254392 L 43.576677,28.816892 L 41.107927,26.910642 L 40.857927,27.191892 L 43.264177,29.035642 L 39.045427,32.129392 L 39.014177,32.410642 L 43.514177,29.223142 L 50.389177,34.473142 L 50.701677,34.379392 L 43.826677,29.035642 L 47.389177,26.504392 L 55.576677,33.066892 L 52.357927,35.379392 L 52.326677,35.535642 L 55.701677,33.191892 L 59.014177,35.848142 L 59.326677,35.629392 L 55.982927,33.004392 L 60.857927,29.629392 C 62.171433,30.650408 63.474909,31.671147 64.764177,32.723142 L 57.076677,38.473142 L 57.139177,38.660642 L 64.920427,32.879392 C 67.169268,34.71723 69.41222,36.578964 71.639177,38.441892 L 71.826677,38.098142 C 69.59715,36.281105 67.432013,34.44791 65.232927,32.660642 L 65.795427,32.223142 L 65.607927,32.098142 L 65.045427,32.504392 C 63.763956,31.464932 62.463267,30.451363 61.139177,29.441892 L 63.482927,27.816892 L 63.201677,27.598142 L 60.889177,29.254392 C 60.514915,28.970563 60.143925,28.6913 59.764177,28.410642 L 59.545427,28.598142 C 59.912274,28.877108 60.274833,29.159691 60.639177,29.441892 L 55.857927,32.879392 L 47.607927,26.348142 L 49.889177,24.754392 L 49.545427,24.473142 L 47.295427,26.098142 L 42.639177,22.410642 L 49.357927,18.410642 L 49.045427,18.254392 L 42.389177,22.223142 L 37.920427,18.691892 L 42.795427,15.816892 L 42.732927,15.535642 z M 32.607927,23.973142 L 24.639177,28.973142 L 24.732927,29.035642 L 32.764177,24.316892 L 32.607927,23.973142 z M 55.982927,24.129392 L 51.607927,27.223142 L 51.764177,27.441892 L 56.076677,24.285642 L 55.982927,24.129392 z M 99.264177,31.285642 L 99.045427,31.473142 C 101.24327,33.111059 103.34992,34.880459 105.48293,36.598142 C 102.53036,36.810009 99.435572,37.24419 95.889177,37.441892 L 96.732927,37.598142 C 100.18452,37.719872 103.07327,37.31076 106.04543,37.035642 C 107.63936,38.310618 109.23833,39.563472 110.92043,40.723142 L 111.01418,40.441892 C 109.46101,39.339649 107.96794,38.178742 106.48293,37.004392 C 108.46149,36.831776 110.48072,36.709052 112.76418,36.879392 L 112.67043,36.785642 C 110.42011,36.411257 108.22858,36.422472 105.95168,36.566892 C 103.73355,34.802195 101.53871,33.00709 99.264177,31.285642 z M 8.8891762,33.754392 L 9.7641762,34.316892 L 9.5766762,46.848142 L 8.6079262,46.191892 L 8.8891762,33.754392 z M 10.295426,34.691892 L 11.045426,35.191892 L 10.639176,45.910642 L 9.9829262,46.504392 L 10.295426,34.691892 z M 11.357926,35.410642 L 13.420427,36.754392 L 13.545427,44.879392 L 11.076676,45.160642 L 11.357926,35.410642 z M 13.982927,37.160642 L 57.107927,65.816892 L 56.732927,77.566892 L 46.982927,70.910642 L 46.982927,60.535642 L 41.326677,57.035642 L 41.264177,67.004392 L 37.576677,64.504392 L 36.389177,65.129392 L 36.264177,66.785642 L 29.201677,61.191892 L 29.076677,58.629392 L 22.232927,54.035642 L 22.232927,43.629392 L 16.576677,40.129392 L 16.514177,50.129392 L 17.014177,50.410642 L 17.107927,41.129392 L 21.732927,44.129392 L 21.732927,53.691892 L 16.514177,50.129392 L 14.201677,48.566892 L 13.982927,37.160642 z M 58.982927,41.160642 C 61.100779,42.587471 63.259213,44.28736 65.389177,46.004392 C 62.667181,48.246965 59.792663,50.378509 56.889177,52.441892 L 49.764177,47.441892 L 53.170427,45.129392 C 53.450923,45.326808 53.733961,45.52549 54.014177,45.723142 L 54.482927,45.629392 C 54.147867,45.386396 53.816938,45.149801 53.482927,44.910642 L 58.982927,41.160642 z M 125.23293,43.348142 L 124.92043,55.441892 L 124.20168,55.035642 L 124.32668,43.410642 L 125.23293,43.348142 z M 123.67043,43.441892 L 123.57668,54.348142 L 122.85793,53.723142 L 123.23293,43.473142 L 123.67043,43.441892 z M 122.67043,43.504392 L 122.48293,53.473142 L 121.20168,53.035642 L 121.17043,53.066892 L 121.13918,43.598142 L 122.67043,43.504392 z M 120.57668,43.629392 L 120.63918,56.348142 L 106.32668,61.410642 L 106.32668,50.348142 L 98.545427,53.691892 L 98.451677,64.191892 L 73.451677,73.066892 L 73.451677,61.973142 L 65.670427,65.316892 L 65.576677,75.848142 L 60.732927,77.566892 L 60.826677,64.535642 L 90.982927,45.348142 L 120.57668,43.629392 z M 23.576677,43.816892 L 23.545427,51.504392 L 30.889177,56.566892 L 30.826677,48.816892 L 23.576677,43.816892 z M 23.826677,44.410642 L 30.576677,48.910642 L 30.514177,55.848142 L 23.857927,51.316892 L 23.826677,44.410642 z M 118.13918,45.098142 L 108.17043,48.848142 L 108.10793,57.160642 L 118.20168,53.348142 L 118.13918,45.098142 z M 13.420427,45.316892 L 13.389177,45.973142 L 11.170426,46.441892 L 11.295426,45.660642 L 13.420427,45.316892 z M 117.76418,45.535642 L 117.70168,53.035642 L 108.54543,56.535642 L 108.48293,49.191892 L 117.76418,45.535642 z M 24.607927,45.785642 L 24.576677,51.035642 L 26.576677,52.441892 L 26.576677,52.473142 L 26.982927,52.785642 L 29.732927,54.691892 L 29.732927,49.254392 L 27.545427,47.754392 L 27.451677,47.691892 L 27.451677,47.723142 L 24.607927,45.785642 z M 92.482927,45.848142 C 90.624273,45.848143 88.685636,47.48572 88.170427,49.504392 C 87.655221,51.523064 88.749275,53.160642 90.607927,53.160642 C 92.466582,53.160641 94.405218,51.523064 94.920427,49.504392 C 95.435634,47.48572 94.34158,45.848142 92.482927,45.848142 z M 24.795427,46.160642 L 26.420427,47.254392 L 26.482927,49.004392 L 24.826677,47.723142 L 24.795427,46.160642 z M 92.357927,46.223142 C 93.839426,46.223141 94.963564,47.866064 94.545427,49.504392 C 94.456835,49.851518 94.281568,50.177964 94.076677,50.504392 C 94.922759,46.981387 93.081524,45.754213 90.232927,47.098142 C 90.917721,46.579644 91.686359,46.223142 92.357927,46.223142 z M 10.732926,46.629392 L 28.264177,58.629392 L 27.482927,58.973142 L 10.076676,47.191892 L 10.732926,46.629392 z M 13.451677,46.629392 L 13.482927,48.066892 L 11.701677,46.879392 L 13.451677,46.629392 z M 92.045427,46.785642 C 93.659564,46.795643 94.546754,48.155734 93.576677,51.191892 C 92.780009,52.067998 91.670702,52.723142 90.732927,52.723142 C 89.251429,52.723143 88.06479,51.14272 88.482927,49.504392 C 88.685465,48.710827 89.250108,47.921909 89.951677,47.316892 C 90.707767,46.9553 91.433755,46.781853 92.045427,46.785642 z M 116.63918,46.941892 L 113.60793,48.098142 L 113.48293,48.129392 L 113.48293,48.160642 L 109.57668,49.660642 L 109.51418,55.348142 L 112.26418,54.348142 L 112.26418,54.379392 L 112.85793,54.160642 L 116.60793,52.785642 L 116.63918,46.941892 z M 8.7954262,47.066892 L 26.701677,59.285642 L 19.826677,61.973142 L 8.7954262,54.410642 L 8.7954262,47.066892 z M 116.26418,47.285642 L 116.29543,49.035642 L 113.76418,50.191892 L 113.70168,48.316892 L 116.26418,47.285642 z M 26.670427,47.410642 L 27.451677,47.910642 L 27.545427,52.816892 L 26.764177,52.285642 L 26.670427,47.410642 z M 27.607927,48.035642 L 29.482927,49.254392 L 29.482927,50.941892 L 27.639177,49.848142 L 27.607927,48.035642 z M 24.826677,48.066892 L 26.482927,49.254392 L 26.514177,50.254392 L 24.826677,49.035642 L 24.826677,48.066892 z M 113.48293,48.379392 L 113.60793,53.535642 L 112.54543,53.910642 L 112.42043,48.816892 L 113.48293,48.379392 z M 112.07668,48.941892 L 112.13918,50.785642 L 109.85793,51.504392 L 109.82668,49.848142 L 112.07668,48.941892 z M 24.826677,49.223142 L 26.514177,50.473142 L 26.576677,52.129392 L 24.826677,50.879392 L 24.826677,49.223142 z M 116.29543,49.316892 L 116.29543,50.191892 L 113.79543,51.191892 L 113.76418,50.410642 L 116.29543,49.316892 z M 27.639177,50.035642 L 29.482927,51.191892 L 29.482927,52.004392 L 27.670427,50.816892 L 27.639177,50.035642 z M 116.29543,50.566892 L 116.32668,52.566892 L 113.88918,53.441892 L 113.82668,51.410642 L 116.29543,50.566892 z M 27.701677,51.035642 L 29.482927,52.348142 L 29.514177,54.254392 L 27.732927,52.973142 L 27.701677,51.035642 z M 112.13918,51.035642 L 112.20168,52.066892 L 109.85793,52.910642 L 109.85793,51.848142 L 112.13918,51.035642 z M 105.63918,51.504392 L 105.63918,61.660642 L 99.139177,63.973142 L 99.264177,54.129392 L 105.63918,51.504392 z M 112.20168,52.285642 L 112.26418,54.004392 L 109.88918,54.848142 L 109.85793,53.098142 L 112.20168,52.285642 z M 121.17043,53.379392 L 122.48293,53.723142 L 123.42043,54.723142 L 121.17043,54.098142 L 121.17043,53.379392 z M 121.20168,54.566892 L 123.29543,55.223142 L 123.29543,55.379392 L 121.20168,56.129392 L 121.20168,54.566892 z M 123.76418,55.629392 L 124.35793,55.660642 L 60.732927,78.910642 L 60.732927,78.129392 L 106.20168,61.910642 L 106.32668,61.910642 L 106.32668,61.848142 L 123.76418,55.629392 z M 124.85793,56.285642 L 125.13918,63.254392 L 58.514177,87.254392 L 58.326677,80.660642 L 124.85793,56.285642 z M 85.264177,56.723142 L 75.295427,60.473142 L 75.232927,68.785642 L 85.326677,64.973142 L 85.264177,56.723142 z M 84.889177,57.160642 L 84.826677,64.660642 L 75.670427,68.160642 L 75.607927,60.816892 L 84.889177,57.160642 z M 41.857927,58.035642 L 46.482927,61.035642 L 46.482927,70.566892 L 41.764177,67.316892 L 41.857927,58.035642 z M 83.764177,58.566892 L 80.732927,59.723142 L 80.607927,59.754392 L 80.607927,59.785642 L 76.701677,61.285642 L 76.639177,66.973142 L 79.389177,65.973142 L 79.389177,66.004392 L 79.982927,65.785642 L 83.732927,64.410642 L 83.764177,58.566892 z M 14.264177,58.879392 L 19.232927,62.223142 L 16.920427,63.129392 L 14.326677,61.316892 L 14.264177,58.879392 z M 83.389177,58.910642 L 83.420427,60.660642 L 80.889177,61.816892 L 80.826677,59.941892 L 83.389177,58.910642 z M 28.607927,59.035642 L 29.139177,66.441892 L 28.076677,66.723142 L 27.889177,59.254392 L 28.607927,59.035642 z M 27.045427,59.535642 L 27.420427,59.816892 L 18.045427,63.379392 L 30.076677,71.066892 L 32.857927,80.566892 L 32.920427,80.754392 L 39.920427,104.44189 L 39.982927,106.62939 L 29.295427,70.973142 L 17.420427,63.379392 L 27.045427,59.535642 z M 80.607927,60.004392 L 80.732927,65.160642 L 79.670427,65.535642 L 79.545427,60.441892 L 80.607927,60.004392 z M 27.420427,60.066892 L 27.701677,66.816892 L 25.482927,67.691892 L 19.076677,63.441892 L 27.420427,60.066892 z M 79.201677,60.566892 L 79.264177,62.410642 L 76.982927,63.129392 L 76.951677,61.473142 L 79.201677,60.566892 z M 48.326677,60.723142 L 48.264177,68.410642 L 55.607927,73.473142 L 55.576677,65.723142 L 48.326677,60.723142 z M 83.420427,60.941892 L 83.420427,61.816892 L 80.920427,62.816892 L 80.889177,62.035642 L 83.420427,60.941892 z M 13.514177,61.316892 L 13.514177,61.660642 L 16.764177,63.910642 L 16.732927,64.504392 L 16.107927,64.816892 L 12.139177,62.035642 L 13.514177,61.316892 z M 48.545427,61.316892 L 55.295427,65.816892 L 55.264177,72.754392 L 48.607927,68.223142 L 48.545427,61.316892 z M 29.232927,61.410642 L 36.264177,67.223142 L 36.232927,73.504392 L 28.076677,67.473142 L 29.482927,66.660642 L 29.232927,61.410642 z M 83.420427,62.191892 L 83.451677,64.191892 L 81.014177,65.066892 L 80.951677,63.035642 L 83.420427,62.191892 z M 12.014177,62.441892 L 15.889177,65.191892 L 15.139177,68.785642 L 11.576677,66.191892 L 12.014177,62.441892 z M 79.264177,62.660642 L 79.326677,63.691892 L 76.982927,64.535642 L 76.982927,63.473142 L 79.264177,62.660642 z M 49.357927,62.691892 L 49.295427,67.941892 L 51.295427,69.348142 L 51.295427,69.379392 L 51.732927,69.691892 L 54.451677,71.598142 L 54.482927,66.160642 L 52.264177,64.660642 L 52.201677,64.629392 L 49.357927,62.691892 z M 49.514177,63.066892 L 51.170427,64.129392 L 51.201677,65.910642 L 49.545427,64.629392 L 49.514177,63.066892 z M 72.764177,63.129392 L 72.764177,73.316892 L 66.264177,75.598142 L 66.389177,65.754392 L 72.764177,63.129392 z M 17.389177,63.879392 L 29.076677,71.129392 L 43.607927,120.19189 L 34.732927,116.28564 L 26.482927,82.816892 L 26.357927,82.285642 L 25.514177,78.848142 L 17.170427,72.816892 L 17.389177,63.879392 z M 79.326677,63.910642 L 79.389177,65.629392 L 77.014177,66.473142 L 76.982927,64.723142 L 79.326677,63.910642 z M 51.420427,64.316892 L 52.201677,64.816892 L 52.264177,69.723142 L 51.514177,69.191892 L 51.420427,64.316892 z M 16.732927,64.785642 L 16.701677,65.316892 L 16.326677,64.973142 L 16.732927,64.785642 z M 37.576677,64.879392 L 56.732927,78.098142 L 56.701677,78.754392 L 36.889177,65.441892 L 37.576677,64.879392 z M 52.357927,64.941892 L 54.201677,66.160642 L 54.232927,67.816892 L 52.389177,66.754392 L 52.357927,64.941892 z M 49.545427,64.973142 L 51.201677,66.160642 L 51.264177,67.160642 L 49.545427,65.941892 L 49.545427,64.973142 z M 59.982927,65.098142 L 60.076677,79.129392 L 58.795427,79.629392 L 59.076677,65.660642 L 59.982927,65.098142 z M 16.139177,65.379392 L 16.701677,65.848142 L 16.607927,69.848142 L 15.389177,68.973142 C 15.661865,67.842264 15.741253,66.496535 16.139177,65.379392 z M 120.67043,65.660642 L 120.70168,71.254392 L 68.264177,90.691892 L 62.514177,86.910642 C 60.829764,86.474537 60.73423,88.696938 61.826677,89.535642 L 65.295427,91.816892 L 60.795427,93.473142 L 60.764177,87.191892 L 120.67043,65.660642 z M 58.514177,66.035642 L 58.170427,79.754392 L 57.389177,79.223142 L 57.857927,66.316892 L 57.951677,66.379392 L 58.514177,66.035642 z M 49.545427,66.129392 L 51.264177,67.379392 L 51.295427,69.035642 L 49.576677,67.785642 L 49.545427,66.129392 z M 36.732927,66.160642 L 57.889177,80.629392 L 57.701677,87.285642 L 40.264177,75.566892 L 40.170427,76.379392 L 45.764177,92.754392 L 42.295427,94.035642 L 36.576677,76.504392 L 36.732927,66.160642 z M 11.514177,66.691892 L 16.576677,70.348142 L 16.514177,73.035642 L 19.107927,74.941892 L 18.795427,76.754392 L 10.982926,71.035642 L 11.514177,66.691892 z M 52.389177,66.941892 L 54.232927,68.098142 L 54.232927,68.910642 L 52.420427,67.723142 L 52.389177,66.941892 z M 27.732927,67.473142 L 27.857927,67.598142 L 36.201677,73.941892 L 36.201677,76.254392 L 32.389177,77.879392 L 30.295427,70.910642 L 26.014177,68.066892 L 27.732927,67.473142 z M 52.451677,67.941892 L 54.232927,69.254392 L 54.264177,71.160642 L 52.482927,69.879392 L 52.451677,67.941892 z M 121.42043,70.785642 L 123.70168,72.160642 L 123.70168,72.191892 L 103.57668,79.660642 L 101.32668,79.223142 L 121.45168,71.785642 L 121.42043,70.785642 z M 10.951676,71.504392 L 13.732927,73.566892 L 12.920427,77.879392 L 10.389176,76.066892 L 10.951676,71.504392 z M 123.76418,72.910642 L 124.07668,76.098142 L 116.63918,78.973142 L 116.54543,75.598142 L 123.76418,72.910642 z M 14.139177,73.848142 L 24.045427,81.035642 L 23.170427,85.254392 L 13.357927,78.191892 L 14.139177,73.848142 z M 19.420427,75.160642 L 25.045427,79.348142 L 25.639177,81.754392 L 19.045427,76.910642 L 19.420427,75.160642 z M 116.07668,75.754392 L 116.13918,79.160642 L 104.38918,83.691892 L 104.29543,80.098142 L 116.07668,75.754392 z M 124.10793,76.441892 L 124.57668,80.879392 L 111.95168,85.816892 L 111.98293,81.129392 L 124.10793,76.441892 z M 10.357926,76.535642 L 17.420427,81.660642 L 17.170427,83.379392 C 16.485992,83.083449 15.811061,82.931537 15.139177,82.910642 C 14.432935,82.888679 13.723964,83.010199 13.045427,83.223142 L 9.8266762,80.941892 L 10.357926,76.535642 z M 36.201677,76.566892 L 36.201677,76.629392 L 36.545427,77.629392 L 32.795427,79.254392 L 32.451677,78.129392 L 36.201677,76.566892 z M 40.639177,76.660642 L 57.857927,88.223142 L 60.201677,87.379392 L 60.045427,93.285642 L 57.795427,91.691892 L 58.857927,91.316892 C 60.590252,90.785052 60.159259,87.679368 58.951677,87.910642 L 54.639177,89.504392 L 42.045427,80.723142 L 40.639177,76.660642 z M 36.607927,77.910642 L 36.889177,78.785642 L 33.139177,80.441892 L 32.857927,79.473142 L 36.607927,77.910642 z M 36.982927,79.066892 L 37.357927,80.129392 L 33.545427,81.785642 L 33.201677,80.629392 L 36.982927,79.066892 z M 100.88918,79.379392 L 102.98293,79.910642 L 91.889177,84.035642 L 89.857927,83.441892 L 100.88918,79.379392 z M 103.76418,80.316892 L 103.95168,83.879392 L 100.01418,85.410642 C 98.352283,85.314341 96.611165,85.815278 94.982927,86.629392 C 94.211369,87.110136 93.485727,87.643676 92.795427,88.191892 L 92.639177,88.254392 L 92.264177,84.566892 L 103.76418,80.316892 z M 37.420427,80.379392 L 37.732927,81.348142 L 33.920427,83.004392 L 33.607927,81.973142 L 37.420427,80.379392 z M 124.60793,81.285642 L 125.04543,85.660642 L 117.63918,88.504392 L 117.63918,84.004392 L 124.60793,81.285642 z M 111.48293,81.316892 L 111.45168,86.004392 L 105.01418,88.566892 C 104.72284,88.094564 104.41818,87.653679 104.07668,87.285642 C 103.05,86.224088 101.8869,85.671591 100.67043,85.473142 L 111.48293,81.316892 z M 24.514177,81.379392 L 25.795427,82.316892 L 27.045427,87.410642 C 25.871949,86.639104 24.702906,86.018151 23.545427,85.504392 L 23.701677,85.473142 L 24.514177,81.379392 z M 9.7641762,81.441892 L 12.201677,83.160642 L 12.139177,83.566892 C 11.122258,84.022379 10.18489,84.683564 9.2954262,85.410642 L 9.7641762,81.441892 z M 37.826677,81.598142 L 38.170427,82.629392 L 34.326677,84.316892 L 33.982927,83.191892 L 37.826677,81.598142 z M 42.420427,81.816892 L 51.326677,88.035642 L 49.951677,88.535642 L 43.107927,83.723142 L 42.420427,81.816892 z M 17.889177,81.973142 L 21.795427,84.816892 C 21.373916,84.664465 20.957786,84.50753 20.545427,84.379392 C 20.471912,83.588124 19.164941,83.61916 18.451677,83.254392 C 18.257051,83.453227 17.891304,83.534578 17.701677,83.629392 C 17.681151,83.618199 17.659716,83.60906 17.639177,83.598142 L 17.889177,81.973142 z M 38.232927,82.910642 L 38.545427,83.848142 L 34.670427,85.535642 L 34.357927,84.504392 L 38.232927,82.910642 z M 14.295427,83.441892 C 14.468373,83.430132 14.648929,83.438806 14.826677,83.441892 C 15.455826,83.734679 16.092571,84.012694 16.732927,84.285642 C 15.955503,84.794397 15.21994,85.316473 14.545427,85.848142 C 13.540996,85.333047 12.539202,84.828088 11.576677,84.285642 C 12.425055,83.806869 13.322047,83.50808 14.295427,83.441892 z M 15.639177,83.504392 C 16.18197,83.578597 16.736232,83.705141 17.326677,83.910642 C 17.215763,83.97992 17.123084,84.059625 17.014177,84.129392 C 16.549155,83.928612 16.098597,83.71447 15.639177,83.504392 z M 89.389177,83.629392 L 91.264177,84.254392 L 77.451677,89.410642 L 75.951677,88.598142 L 89.389177,83.629392 z M 18.732927,83.754392 C 19.254746,83.779036 19.776247,84.181714 20.014177,84.410642 C 11.601949,89.253848 8.1823777,97.137802 9.2954262,106.19189 C 8.8325203,106.41776 7.5524766,106.42898 7.6704262,105.37939 C 7.1531999,101.83008 7.3675388,97.828807 8.7329262,94.379392 C 10.114636,90.888741 13.053668,86.967711 18.232927,83.879392 C 18.401742,83.787297 18.558987,83.746177 18.732927,83.754392 z M 38.639177,84.098142 L 38.920427,85.004392 L 35.014177,86.691892 L 34.732927,85.754392 L 38.639177,84.098142 z M 117.20168,84.160642 L 117.20168,88.691892 L 107.20168,92.535642 L 106.98293,88.160642 L 117.20168,84.160642 z M 11.420427,84.348142 L 11.389177,84.504392 C 12.355222,85.032007 13.337746,85.53852 14.326677,86.035642 C 13.602111,86.618813 12.964904,87.212029 12.357927,87.816892 C 11.322075,87.259814 10.299339,86.687395 9.2641762,86.129392 C 9.9590692,85.405425 10.665055,84.796749 11.420427,84.348142 z M 20.389177,84.629392 C 22.753617,85.525211 25.027319,86.581581 26.732927,87.660642 C 26.33259,87.89295 25.962179,88.136103 25.576677,88.379392 C 23.718014,87.071525 21.63114,86.082007 19.482927,85.160642 C 19.779548,84.982191 20.076686,84.801347 20.389177,84.629392 z M 43.420427,84.660642 L 49.357927,88.848142 L 48.389177,91.785642 L 47.389177,92.160642 L 45.545427,90.816892 L 43.420427,84.660642 z M 91.857927,84.723142 L 92.076677,88.441892 L 77.951677,93.910642 L 77.701677,89.941892 L 91.857927,84.723142 z M 39.014177,85.254392 L 39.389177,86.379392 L 35.420427,88.004392 L 35.076677,86.879392 L 39.014177,85.254392 z M 19.201677,85.316892 C 21.316875,86.217774 23.410638,87.188871 25.326677,88.535642 C 24.480024,89.079537 23.65433,89.636503 22.889177,90.223142 C 20.948247,89.095472 18.868418,88.074725 16.795427,87.035642 C 17.538424,86.433621 18.320003,85.861982 19.201677,85.316892 z M 125.07668,85.973142 L 125.57668,90.848142 L 113.13918,95.473142 L 113.07668,90.660642 L 125.07668,85.973142 z M 9.0766762,86.348142 C 10.110061,86.898197 11.139867,87.45165 12.170427,88.004392 C 11.592414,88.593869 11.048748,89.181176 10.576676,89.785642 C 9.5564734,89.232671 8.5305578,88.689528 7.5141762,88.129392 C 7.9485403,87.566408 8.4076348,87.044441 8.8891762,86.535642 C 8.9485226,86.469357 9.0170483,86.412614 9.0766762,86.348142 z M 99.232927,86.379392 C 100.64503,86.382627 101.99967,86.908547 103.32668,87.973142 C 103.48811,88.147114 103.64126,88.359908 103.79543,88.566892 L 102.42043,88.504392 C 101.59698,87.532205 100.55696,86.790552 99.232927,86.379392 z M 98.014177,86.535642 C 98.322709,86.603622 98.608209,86.685926 98.889177,86.785642 L 98.764177,104.59814 L 95.982927,105.59814 L 95.982927,87.254392 C 96.677321,86.907277 97.34493,86.670441 98.014177,86.535642 z M 39.451677,86.629392 L 39.795427,87.629392 L 35.795427,89.285642 L 35.482927,88.191892 L 39.451677,86.629392 z M 99.545427,87.066892 C 100.64727,87.593435 101.52051,88.388118 102.20168,89.348142 L 102.07668,103.41064 L 99.357927,104.37939 L 99.545427,87.066892 z M 16.607927,87.191892 C 18.672256,88.214858 20.741472,89.2266 22.701677,90.379392 C 21.897157,91.005469 21.151037,91.659673 20.451677,92.316892 C 18.541458,91.186468 16.588871,90.128228 14.639177,89.066892 C 15.229376,88.423562 15.893835,87.784131 16.607927,87.191892 z M 62.014177,87.410642 C 62.18138,87.391357 62.337783,87.426794 62.451677,87.473142 L 79.107927,98.441892 C 79.681994,99.265269 79.33347,99.719609 79.107927,100.22314 L 62.045427,89.098142 C 61.010914,87.904209 61.512569,87.468498 62.014177,87.410642 z M 95.389177,87.566892 L 95.420427,105.81689 L 92.326677,106.91064 L 92.326677,89.973142 C 93.272054,89.116056 94.290231,88.29975 95.389177,87.566892 z M 27.201677,87.879392 L 27.295427,87.941892 L 27.514177,89.285642 L 27.514177,89.316892 C 19.030383,94.408161 15.780203,102.87961 16.670427,111.34814 C 16.325241,111.20816 15.579665,111.12184 15.326677,110.87939 C 14.774491,107.21539 14.382651,102.79227 15.795427,99.223142 C 17.222841,95.617033 21.691017,91.031259 27.201677,87.879392 z M 39.857927,87.879392 L 40.232927,88.973142 L 36.201677,90.629392 L 35.857927,89.473142 L 39.857927,87.879392 z M 51.545427,88.191892 L 53.857927,89.785642 L 52.482927,90.285642 L 50.201677,88.691892 L 51.545427,88.191892 z M 106.67043,88.254392 L 106.82668,92.691892 L 106.60793,92.785642 C 106.2718,91.213411 105.80267,89.906546 105.20168,88.848142 L 106.67043,88.254392 z M 7.3579262,88.348142 C 8.3780217,88.905644 9.3992103,89.452844 10.420426,90.004392 C 9.8242516,90.789362 9.317017,91.579621 8.8891762,92.379392 L 5.8891762,90.629392 C 6.3223254,89.835479 6.8147699,89.071685 7.3579262,88.348142 z M 59.107927,88.410642 C 59.856501,88.449222 60.024651,89.574846 58.857927,90.660642 L 39.607927,97.441892 C 38.50499,96.806475 38.919831,95.796059 39.451677,95.535642 L 58.764177,88.473142 C 58.893128,88.431459 59.000988,88.405131 59.107927,88.410642 z M 102.51418,88.660642 L 103.95168,88.785642 C 104.61667,89.748239 105.18065,91.052049 105.60793,92.691892 L 104.42043,92.473142 C 103.9953,91.034181 103.37385,89.725202 102.51418,88.660642 z M 75.482927,88.754392 L 76.889177,89.598142 L 70.326677,92.066892 L 68.951677,91.160642 L 75.482927,88.754392 z M 92.045427,88.785642 C 89.732903,90.783293 87.912641,93.161824 86.576677,95.785642 L 85.170427,96.348142 C 85.156216,94.754121 85.101678,93.110098 84.889177,91.535642 L 92.045427,88.785642 z M 49.639177,89.066892 L 51.732927,90.566892 L 48.889177,91.598142 L 49.639177,89.066892 z M 40.326677,89.223142 L 40.607927,90.129392 L 36.576677,91.879392 L 36.264177,90.816892 L 40.326677,89.223142 z M 14.482927,89.254392 C 16.423794,90.314701 18.34187,91.405498 20.232927,92.535642 C 19.639209,93.105414 19.08213,93.673957 18.576677,94.254392 C 16.737279,93.174354 14.880246,92.147703 13.014177,91.129392 C 13.454306,90.48098 13.941302,89.860742 14.482927,89.254392 z M 27.670427,89.973142 L 27.701677,90.066892 L 27.732927,90.191892 C 27.681088,90.139826 27.629183,90.086852 27.576677,90.035642 C 27.607343,90.013539 27.639649,89.995216 27.670427,89.973142 z M 102.63918,90.035642 C 104.66998,93.55215 104.68432,98.832693 104.51418,102.53564 L 102.63918,103.22314 L 102.63918,90.035642 z M 77.264177,90.129392 L 77.576677,94.066892 L 74.889177,95.098142 L 70.920427,92.473142 L 77.264177,90.129392 z M 27.326677,90.223142 C 27.5091,90.391424 27.680565,90.575641 27.857927,90.754392 L 28.639177,93.879392 C 28.504343,93.935799 28.366754,94.003354 28.232927,94.066892 L 28.232927,94.004392 C 27.352717,93.19721 26.365578,92.456684 25.326677,91.754392 C 25.958069,91.230707 26.63454,90.729064 27.326677,90.223142 z M 40.670427,90.379392 L 41.045427,91.504392 L 36.982927,93.191892 L 36.639177,92.066892 L 40.670427,90.379392 z M 91.670427,90.566892 L 91.670427,107.16064 L 87.951677,108.50439 L 87.982927,95.160642 C 88.998207,93.503895 90.235436,91.964697 91.670427,90.566892 z M 112.70168,90.816892 L 112.76418,95.598142 L 107.13918,97.816892 C 107.09198,96.085618 106.96134,94.537763 106.70168,93.191892 L 112.70168,90.816892 z M 5.7641762,90.879392 L 8.7329262,92.629392 C 8.4960113,93.091731 8.2916309,93.571544 8.1079262,94.035642 C 7.9509159,94.432301 7.8254004,94.824296 7.7016762,95.223142 C 6.7010304,94.609182 5.7038699,93.972597 4.7016762,93.348142 C 4.9733875,92.501881 5.3467092,91.674934 5.7641762,90.879392 z M 12.857927,91.348142 C 14.705112,92.356896 16.550911,93.391988 18.389177,94.473142 C 17.714807,95.266308 17.129245,96.060539 16.639177,96.848142 L 11.451677,93.879392 C 11.840196,93.005396 12.323785,92.161417 12.857927,91.348142 z M 45.764177,91.379392 L 47.014177,92.285642 L 46.201677,92.598142 L 45.764177,91.379392 z M 125.63918,91.441892 L 126.07668,95.816892 L 119.20168,98.223142 L 119.01418,93.879392 L 125.63918,91.441892 z M 84.639177,91.660642 L 84.795427,96.504392 L 79.795427,98.473142 C 79.63417,98.228852 79.419249,98.030036 79.170427,97.910642 L 75.170427,95.285642 C 78.344323,94.065429 81.523483,92.820161 84.639177,91.660642 z M 41.139177,91.754392 L 41.451677,92.754392 L 37.357927,94.535642 L 37.014177,93.316892 L 37.045427,93.348142 L 41.139177,91.754392 z M 25.107927,91.941892 C 25.114029,91.936749 25.133069,91.947033 25.139177,91.941892 C 26.046711,92.566237 26.933529,93.221049 27.764177,93.941892 L 27.920427,94.191892 C 27.131566,94.599855 26.393024,95.128821 25.670427,95.754392 L 25.607927,95.566892 C 24.756676,94.990229 23.884927,94.452347 23.014177,93.910642 C 23.670237,93.245705 24.358253,92.573722 25.107927,91.941892 z M 56.982927,91.973142 L 60.389177,94.348142 L 63.170427,93.316892 L 64.482927,94.223142 L 60.295427,95.785642 L 55.576677,92.473142 L 56.982927,91.973142 z M 66.076677,92.348142 L 77.795427,100.06689 L 77.639177,107.41064 L 65.732927,99.691892 L 66.076677,92.348142 z M 65.451677,92.473142 L 65.420427,93.879392 L 64.920427,94.066892 L 63.701677,93.129392 L 65.451677,92.473142 z M 104.48293,92.660642 L 105.70168,92.973142 C 106.03465,94.344198 106.24174,95.960201 106.32668,97.816892 L 105.26418,97.660642 C 105.15563,95.972525 104.93177,94.248418 104.48293,92.660642 z M 54.826677,92.723142 L 59.889177,96.316892 L 59.545427,100.97314 L 54.826677,97.566892 L 54.607927,92.816892 L 54.826677,92.723142 z M 41.545427,93.004392 L 41.795427,93.785642 L 37.670427,95.535642 L 37.420427,94.629392 L 37.451677,94.660642 L 41.545427,93.004392 z M 53.889177,93.066892 L 54.514177,101.22314 L 40.670427,105.97314 L 40.357927,97.816892 L 53.889177,93.066892 z M 4.6079262,93.598142 C 5.6086206,94.213439 6.6048482,94.832977 7.6079262,95.441892 C 7.3197179,96.419435 7.1315316,97.426983 7.0141762,98.410642 C 6.0454195,97.787764 5.0743355,97.165322 4.1079262,96.535642 C 4.1609889,95.538302 4.3204211,94.556263 4.6079262,93.598142 z M 41.857927,94.004392 L 41.920427,94.160642 L 38.701677,95.348142 C 38.480327,95.711423 38.388271,96.126218 38.389177,96.535642 L 38.014177,96.691892 L 37.701677,95.629392 L 37.795427,95.691892 L 41.857927,94.004392 z M 118.57668,94.035642 L 118.67043,98.410642 L 108.13918,102.12939 L 107.98293,97.910642 L 118.57668,94.035642 z M 11.357926,94.098142 L 16.514177,97.066892 C 16.118479,97.7253 15.765786,98.368745 15.514177,99.004392 C 15.425256,99.229036 15.373523,99.466502 15.295427,99.691892 C 13.672676,98.778606 12.050035,97.826283 10.420426,96.848142 C 10.666086,95.901011 10.976186,94.988076 11.357926,94.098142 z M 22.795427,94.098142 C 23.6571,94.639725 24.517185,95.181327 25.357927,95.754392 L 25.451677,95.941892 C 25.209272,96.160752 24.963849,96.389604 24.732927,96.629392 C 24.4479,96.943356 24.18508,97.266081 23.920427,97.598142 C 23.042889,97.003176 22.158101,96.43586 21.264177,95.879392 C 21.747905,95.271615 22.23736,94.675548 22.795427,94.098142 z M 28.795427,94.410642 L 28.826677,94.598142 C 28.689038,94.657443 28.55301,94.723691 28.420427,94.785642 L 28.357927,94.566892 C 28.501625,94.506006 28.651823,94.463042 28.795427,94.410642 z M 65.389177,94.504392 L 65.326677,97.129392 L 65.264177,94.566892 L 65.389177,94.504392 z M 28.139177,94.629392 L 28.264177,94.848142 C 27.403922,95.267573 26.624211,95.818216 25.920427,96.441892 L 25.795427,96.129392 C 26.532076,95.505915 27.334037,94.994024 28.139177,94.629392 z M 64.857927,94.691892 L 64.920427,98.941892 L 60.170427,100.78564 L 60.420427,96.348142 L 64.857927,94.691892 z M 28.889177,94.785642 L 32.482927,109.25439 C 30.960051,111.5759 28.233904,113.56536 23.326677,114.37939 C 23.264079,114.33244 23.200286,114.27453 23.139177,114.22314 C 18.224921,106.46742 24.551262,95.701385 28.889177,94.785642 z M 49.545427,95.129392 C 48.870137,95.226016 48.166095,95.775934 47.670427,97.066892 L 51.670427,97.504392 C 52.179658,96.655674 51.091883,95.171187 49.826677,95.129392 C 49.731787,95.126257 49.641897,95.115589 49.545427,95.129392 z M 40.232927,95.598142 L 39.920427,95.660642 C 40.130854,96.308569 40.037493,96.652708 39.920427,96.973142 L 40.295427,96.910642 C 41.043306,96.345023 40.394641,96.012162 40.232927,95.598142 z M 21.107927,96.098142 C 21.984488,96.646108 22.860983,97.20015 23.732927,97.785642 C 23.743485,97.794646 23.753449,97.8073 23.764177,97.816892 C 23.202974,98.54115 22.68344,99.304241 22.232927,100.09814 L 19.482927,98.504392 C 19.957399,97.671679 20.506647,96.87263 21.107927,96.098142 z M 70.920427,96.129392 C 70.817596,96.127821 70.721381,96.144399 70.607927,96.160642 C 70.348605,96.197769 70.051376,96.293192 69.732927,96.441892 C 70.177705,97.207267 71.145942,98.314423 72.857927,98.129392 C 72.848929,98.066406 72.462895,96.15296 70.920427,96.129392 z M 86.420427,96.129392 C 85.622418,97.759072 85.04278,99.473283 84.607927,101.25439 L 78.826677,103.47314 L 78.701677,100.66064 L 79.170427,100.97314 C 80.196377,100.3894 80.275658,99.360255 79.889177,98.629392 L 84.920427,96.723142 L 86.420427,96.129392 z M 87.420427,96.160642 L 87.389177,108.69189 L 84.795427,109.62939 C 84.276417,104.75741 85.241499,100.15485 87.420427,96.160642 z M 25.639177,96.285642 L 25.795427,96.535642 C 25.276724,97.007953 24.820764,97.538794 24.389177,98.098142 L 24.201677,97.879392 C 24.468286,97.523202 24.757087,97.183066 25.045427,96.848142 C 25.238443,96.647715 25.434763,96.4663 25.639177,96.285642 z M 69.420427,96.504392 L 68.795427,100.44189 C 69.108918,101.48568 70.003102,101.83531 71.482927,101.87939 L 72.857927,98.629392 C 71.219334,98.91175 69.908709,97.701005 69.420427,96.504392 z M 4.1079262,96.754392 C 5.0799936,97.367248 6.0456177,97.988446 7.0141762,98.598142 C 6.9004385,99.634739 6.8576914,100.65933 6.8891762,101.69189 C 6.0854399,101.16549 5.2859723,100.63279 4.4829262,100.09814 C 4.1705621,98.982433 4.0702089,97.855694 4.1079262,96.754392 z M 38.420427,96.785642 C 38.465362,97.210608 38.579109,97.627453 38.826677,97.941892 L 38.451677,98.098142 L 38.076677,96.910642 L 38.420427,96.785642 z M 10.389176,97.098142 C 11.982983,98.043001 13.587054,98.968938 15.201677,99.879392 C 14.865394,100.89002 14.629326,101.89181 14.482927,102.91064 C 12.926674,102.04553 11.387751,101.1358 9.8579262,100.19189 C 9.9694144,99.133199 10.142228,98.099332 10.389176,97.098142 z M 47.545427,97.504392 L 42.295427,101.25439 L 42.357927,103.50439 L 43.357927,103.50439 L 43.170427,101.94189 L 45.357927,102.00439 L 45.482927,103.31689 L 46.482927,103.25439 L 46.357927,101.75439 L 50.920427,99.316892 L 51.045427,100.94189 L 51.920427,100.81689 L 51.795427,97.941892 L 47.545427,97.504392 z M 105.26418,97.785642 L 106.32668,98.004392 C 106.3853,99.455183 106.39629,101.0268 106.26418,102.78564 L 105.29543,103.12939 C 105.36159,101.57569 105.38094,99.708422 105.26418,97.785642 z M 39.795427,98.035642 L 39.826677,99.129392 L 38.857927,99.535642 L 38.482927,98.285642 L 38.982927,98.098142 C 39.040645,98.155507 39.105371,98.206278 39.170427,98.254392 L 39.795427,98.035642 z M 107.60793,98.035642 L 107.63918,102.28564 L 107.04543,102.50439 C 107.15945,100.90017 107.16654,99.456772 107.13918,98.098142 L 107.60793,98.035642 z M 55.045427,98.066892 L 59.514177,101.25439 L 59.139177,106.37939 L 53.982927,102.59814 L 54.139177,101.84814 L 55.014177,101.53564 L 54.889177,98.754392 L 55.045427,98.066892 z M 24.045427,98.098142 C 24.108494,98.164464 24.181235,98.236469 24.232927,98.285642 C 23.175773,99.71027 22.429101,101.37791 21.920427,103.09814 L 21.545427,102.94189 C 22.124152,101.22207 22.975533,99.570117 24.045427,98.098142 z M 78.889177,98.410642 L 78.514177,98.473142 C 77.766298,99.038761 78.414963,99.371622 78.576677,99.785642 L 78.889177,99.723142 C 78.67875,99.075215 78.772111,98.731076 78.889177,98.410642 z M 19.326677,98.754392 L 22.107927,100.34814 C 21.687287,101.11636 21.282454,101.90828 20.982927,102.72314 L 20.951677,102.72314 C 20.028213,102.26273 19.097432,101.78055 18.170427,101.28564 C 18.489219,100.41207 18.882095,99.564028 19.326677,98.754392 z M 73.045427,98.816892 L 72.482927,99.754392 C 73.491758,99.159517 73.634643,100.14933 73.764177,100.22314 C 73.368521,101.03003 72.912,100.76026 72.295427,100.87939 L 71.795427,101.75439 C 73.193414,102.28821 73.827612,101.65549 74.670427,100.66064 C 75.041718,99.13905 74.365287,98.919209 73.045427,98.816892 z M 65.264177,99.066892 L 65.232927,99.941892 L 69.170427,102.62939 L 59.889177,106.28564 L 60.170427,101.03564 L 65.264177,99.066892 z M 39.826677,99.348142 L 39.857927,100.37939 L 39.201677,100.66064 L 38.920427,99.691892 L 39.826677,99.348142 z M 4.5454262,100.28564 C 5.339926,100.80811 6.1324508,101.3308 6.9204262,101.84814 C 6.9460201,102.54955 6.9704536,103.24665 7.0454262,103.94189 C 6.2462798,103.42207 5.6067665,102.85416 5.1391762,101.84814 C 4.8951171,101.32836 4.7016676,100.8079 4.5454262,100.28564 z M 9.8266762,100.34814 C 11.361419,101.29346 12.903637,102.21965 14.451677,103.09814 C 14.312593,104.13946 14.281582,105.18446 14.295427,106.22314 C 12.744713,105.35355 11.19457,104.43554 9.6704262,103.47314 C 9.6595296,102.40076 9.725238,101.37226 9.8266762,100.34814 z M 39.857927,100.62939 L 39.889177,101.97314 L 39.639177,102.06689 L 39.264177,100.84814 L 39.857927,100.62939 z M 18.107927,101.47314 C 19.032507,101.9752 19.953043,102.48825 20.889177,102.97314 C 20.568377,103.89063 20.345727,104.83232 20.201677,105.78564 C 19.233614,105.35567 18.276036,104.89433 17.326677,104.41064 C 17.505308,103.38316 17.775572,102.41591 18.107927,101.47314 z M 78.420427,101.69189 L 78.451677,103.62939 L 78.357927,103.66064 L 78.420427,101.69189 z M 84.451677,101.81689 C 84.124916,103.29524 83.910576,104.81021 83.826677,106.34814 L 78.201677,108.44189 L 78.326677,104.19189 L 84.451677,101.81689 z M 53.732927,102.00439 L 53.670427,102.34814 L 53.357927,102.12939 L 53.732927,102.00439 z M 39.889177,102.16064 L 39.889177,102.97314 L 39.670427,102.25439 L 39.889177,102.16064 z M 53.170427,102.22314 L 59.139177,106.56689 L 58.795427,110.94189 L 50.420427,104.91064 L 49.889177,103.41064 L 53.170427,102.22314 z M 69.420427,102.78564 L 73.482927,105.53564 L 66.076677,108.37939 L 66.107927,104.09814 L 65.982927,104.09814 L 69.420427,102.78564 z M 21.451677,103.16064 L 21.857927,103.28564 C 21.598062,104.20317 21.399902,105.11122 21.295427,106.03564 L 20.826677,105.94189 C 20.938537,104.99459 21.159032,104.07462 21.451677,103.16064 z M 49.482927,103.56689 L 53.951677,116.62939 L 48.170427,112.09814 L 45.826677,104.91064 L 49.482927,103.56689 z M 9.6704262,103.62939 C 11.2009,104.6084 12.744623,105.55046 14.295427,106.44189 C 14.313338,107.25349 14.365682,108.07569 14.451677,108.87939 C 12.893854,108.02369 11.352535,107.12711 9.8266762,106.19189 C 9.7531766,105.32687 9.6828901,104.46785 9.6704262,103.62939 z M 65.795427,104.16064 L 65.764177,108.50439 L 59.639177,110.87939 L 59.857927,106.47314 L 65.795427,104.16064 z M 17.295427,104.62939 C 18.240348,105.12389 19.180358,105.61819 20.139177,106.06689 L 20.170427,106.06689 C 20.036707,107.08611 20.009995,108.09764 20.107927,109.12939 C 19.079206,108.68401 18.052357,108.22933 17.045427,107.72314 C 17.056809,106.64692 17.13531,105.61791 17.295427,104.62939 z M 45.451677,105.03564 L 45.576677,105.37939 L 41.170427,107.25439 L 41.014177,106.66064 L 45.451677,105.03564 z M 50.670427,105.56689 L 52.670427,107.03564 L 52.076677,109.66064 L 50.670427,105.56689 z M 45.639177,105.62939 L 45.982927,106.62939 L 41.576677,108.50439 L 41.232927,107.41064 L 45.639177,105.62939 z M 73.982927,105.87939 L 77.920427,108.56689 L 73.389177,110.25439 L 73.295427,106.16064 L 73.982927,105.87939 z M 20.826677,106.12939 L 21.264177,106.19189 C 21.162704,107.17088 21.15957,108.1423 21.232927,109.06689 L 20.857927,109.12939 C 20.729484,108.12641 20.722516,107.12403 20.826677,106.12939 z M 9.8266762,106.31689 C 11.357295,107.23739 12.893787,108.12739 14.451677,109.00439 C 14.486664,109.3203 14.533549,109.62779 14.576677,109.94189 C 12.913768,108.84009 11.371177,107.65881 9.8579262,106.44189 L 9.8266762,106.31689 z M 72.920427,106.31689 L 72.889177,110.44189 L 59.389177,115.47314 L 59.607927,111.50439 L 72.920427,106.31689 z M 83.826677,106.75439 C 83.776156,107.99393 83.784657,109.24874 83.889177,110.50439 L 79.607927,112.03564 L 79.514177,108.31689 L 83.826677,106.75439 z M 40.607927,106.81689 L 44.701677,120.66064 L 44.107927,120.41064 L 40.076677,107.00439 L 40.607927,106.81689 z M 46.076677,106.87939 L 46.326677,107.66064 L 41.857927,109.53564 L 41.607927,108.62939 L 41.639177,108.66064 L 46.076677,106.87939 z M 53.045427,107.31689 L 58.764177,111.44189 L 58.482927,115.37939 L 52.607927,111.25439 L 52.295427,110.31689 L 53.045427,107.31689 z M 46.389177,107.91064 L 46.420427,107.91064 L 46.670427,108.78564 L 42.201677,110.69189 L 41.920427,109.72314 L 46.389177,107.91064 z M 17.045427,107.97314 C 18.065562,108.50228 19.09165,109.00971 20.139177,109.47314 C 20.249156,110.3792 20.452108,111.2977 20.764177,112.19189 C 19.566992,111.57729 18.362963,110.97659 17.170427,110.34814 C 17.092787,109.53752 17.045899,108.73597 17.045427,107.97314 z M 79.139177,108.47314 L 79.232927,112.16064 L 66.670427,116.66064 L 66.639177,113.03564 L 79.139177,108.47314 z M 46.764177,109.06689 L 47.139177,110.16064 L 42.639177,112.06689 L 42.264177,110.87939 L 46.764177,109.06689 z M 21.232927,109.28564 C 21.344417,110.46074 21.647071,111.53965 22.045427,112.50439 L 21.826677,112.53564 C 21.736599,112.36386 21.659475,112.19543 21.576677,112.00439 C 21.237911,111.13037 21.018914,110.23735 20.889177,109.34814 L 21.232927,109.28564 z M 32.607927,109.78564 L 32.857927,110.72314 C 29.224377,113.75239 26.81349,114.87016 24.732927,115.03564 C 24.577508,114.99523 24.414908,114.93892 24.264177,114.87939 C 28.744003,114.0361 31.12974,112.06234 32.607927,109.78564 z M 47.232927,110.44189 L 47.545427,111.44189 L 43.014177,113.34814 L 42.670427,112.25439 L 47.232927,110.44189 z M 17.170427,110.50439 C 18.429625,111.20299 19.693588,111.89794 20.951677,112.59814 C 21.151792,112.9944 21.373918,113.36059 21.639177,113.69189 C 20.091116,113.06723 18.658952,112.3335 17.295427,111.56689 C 17.244351,111.20253 17.206447,110.85918 17.170427,110.50439 z M 32.764177,111.03564 C 32.491879,111.375 32.211765,111.70187 31.920427,112.00439 L 31.764177,111.91064 C 32.085826,111.64025 32.430993,111.34851 32.764177,111.03564 z M 47.639177,111.69189 L 47.826677,112.28564 L 43.264177,114.19189 L 43.045427,113.47314 L 43.107927,113.50439 L 47.639177,111.69189 z M 52.795427,111.75439 L 56.701677,114.50439 L 56.451677,114.41064 L 55.982927,117.62939 L 54.482927,116.59814 L 52.795427,111.75439 z M 31.639177,112.00439 L 31.795427,112.12939 C 31.502817,112.42615 31.207724,112.70694 30.889177,112.97314 L 30.639177,112.78564 C 30.96921,112.54728 31.297262,112.28737 31.639177,112.00439 z M 48.076677,112.69189 L 53.795427,117.12939 L 45.170427,120.47314 L 43.389177,114.56689 L 48.076677,112.69189 z M 22.107927,112.72314 C 22.27292,113.09498 22.465322,113.42611 22.670427,113.75439 C 22.413999,113.46746 22.171837,113.1416 21.951677,112.75439 L 22.107927,112.72314 z M 30.514177,112.87939 L 30.732927,113.06689 C 30.340681,113.3852 29.931938,113.68421 29.514177,113.94189 L 29.170427,113.72314 C 29.607061,113.47704 30.05758,113.20273 30.514177,112.87939 z M 66.451677,113.12939 L 66.264177,116.81689 L 59.170427,119.34814 L 59.357927,115.72314 L 66.451677,113.12939 z M 29.045427,113.78564 L 29.357927,114.03564 C 28.946265,114.2799 28.530558,114.52168 28.107927,114.69189 L 27.670427,114.44189 C 28.114439,114.2627 28.582805,114.04029 29.045427,113.78564 z M 27.545427,114.50439 L 27.857927,114.75439 C 27.438674,114.90707 27.024022,115.00306 26.607927,115.06689 L 26.295427,114.87939 C 26.701494,114.77274 27.126262,114.66795 27.545427,114.50439 z M 57.014177,114.72314 L 58.451677,115.75439 L 58.201677,119.16064 L 56.514177,118.00439 L 57.014177,114.72314 z M 26.139177,114.91064 L 26.170427,114.91064 L 26.389177,115.12939 C 25.996487,115.17353 25.610793,115.17905 25.232927,115.12939 C 25.534938,115.0806 25.831454,114.98675 26.139177,114.91064 z"
       id="path2309" />
  </g>
</svg>
