<?xml version="1.0" encoding="UTF-8" standalone="no"?>
<!-- Created with Inkscape (http://www.inkscape.org/) -->
<svg
   xmlns:dc="http://purl.org/dc/elements/1.1/"
   xmlns:cc="http://creativecommons.org/ns#"
   xmlns:rdf="http://www.w3.org/1999/02/22-rdf-syntax-ns#"
   xmlns:svg="http://www.w3.org/2000/svg"
   xmlns="http://www.w3.org/2000/svg"
   xmlns:xlink="http://www.w3.org/1999/xlink"
   xmlns:sodipodi="http://sodipodi.sourceforge.net/DTD/sodipodi-0.dtd"
   xmlns:inkscape="http://www.inkscape.org/namespaces/inkscape"
   width="128"
   height="128"
   id="svg2"
   sodipodi:version="0.32"
   inkscape:version="0.45+devel"
   version="1.0"
   sodipodi:docname="jailhouse.svg"
   inkscape:output_extension="org.inkscape.output.svg.inkscape">
  <defs
     id="defs4">
    <linearGradient
       id="linearGradient2338">
      <stop
         id="stop2340"
         offset="0"
         style="stop-color:#b1b1b1;stop-opacity:1;" />
      <stop
         id="stop2342"
         offset="1"
         style="stop-color:#e4e4e4;stop-opacity:1;" />
    </linearGradient>
    <linearGradient
       id="linearGradient2320">
      <stop
         style="stop-color:#6a3c1d;stop-opacity:1;"
         offset="0"
         id="stop2322" />
      <stop
         style="stop-color:#8f5127;stop-opacity:1;"
         offset="1"
         id="stop2324" />
    </linearGradient>
    <linearGradient
       id="linearGradient3415">
      <stop
         id="stop3417"
         offset="0"
         style="stop-color:#1a1a1a;stop-opacity:1;" />
      <stop
         id="stop3419"
         offset="1"
         style="stop-color:#2b2b2b;stop-opacity:1;" />
    </linearGradient>
    <linearGradient
       inkscape:collect="always"
       xlink:href="#linearGradient2338"
       id="linearGradient3819"
       x1="29.484209"
       y1="68.34375"
       x2="50.250496"
       y2="95.381256"
       gradientUnits="userSpaceOnUse" />
    <linearGradient
       inkscape:collect="always"
       xlink:href="#linearGradient2338"
       id="linearGradient3823"
       x1="69.875"
       y1="91.375"
       x2="99.125"
       y2="55.125"
       gradientUnits="userSpaceOnUse" />
    <linearGradient
       inkscape:collect="always"
       xlink:href="#linearGradient2338"
       id="linearGradient3827"
       x1="59.844154"
       y1="61.229439"
       x2="65.662338"
       y2="24.5625"
       gradientUnits="userSpaceOnUse" />
    <linearGradient
       id="linearGradient3049">
      <stop
         style="stop-color:#cfc7a9;stop-opacity:1;"
         offset="0"
         id="stop3051" />
      <stop
         style="stop-color:#eeebe0;stop-opacity:1;"
         offset="1"
         id="stop3053" />
    </linearGradient>
    <linearGradient
       inkscape:collect="always"
       xlink:href="#linearGradient3049"
       id="linearGradient4169"
       x1="58.999222"
       y1="105.48307"
       x2="67.197243"
       y2="96.003418"
       gradientUnits="userSpaceOnUse" />
    <linearGradient
       inkscape:collect="always"
       xlink:href="#linearGradient3049"
       id="linearGradient4173"
       x1="50.094097"
       y1="95.539383"
       x2="58.049049"
       y2="105.32839"
       gradientUnits="userSpaceOnUse" />
    <linearGradient
       inkscape:collect="always"
       xlink:href="#linearGradient3049"
       id="linearGradient4177"
       x1="20.461903"
       y1="70.194023"
       x2="28.615728"
       y2="83.297592"
       gradientUnits="userSpaceOnUse" />
    <linearGradient
       inkscape:collect="always"
       xlink:href="#linearGradient3049"
       id="linearGradient4183"
       x1="97.293472"
       y1="59.808388"
       x2="101.49192"
       y2="57.267223"
       gradientUnits="userSpaceOnUse" />
    <linearGradient
       inkscape:collect="always"
       xlink:href="#linearGradient2320"
       id="linearGradient4187"
       x1="77.75"
       y1="96"
       x2="87.3125"
       y2="76.875"
       gradientUnits="userSpaceOnUse" />
    <linearGradient
       inkscape:collect="always"
       xlink:href="#linearGradient2320"
       id="linearGradient4191"
       x1="80.875"
       y1="80.75"
       x2="81.25"
       y2="82.5625"
       gradientUnits="userSpaceOnUse" />
    <linearGradient
       inkscape:collect="always"
       xlink:href="#linearGradient2320"
       id="linearGradient4195"
       x1="81.125"
       y1="90.6875"
       x2="81.5"
       y2="92.25"
       gradientUnits="userSpaceOnUse" />
    <linearGradient
       inkscape:collect="always"
       xlink:href="#linearGradient2338"
       id="linearGradient4199"
       x1="86.6875"
       y1="79.8125"
       x2="88.0625"
       y2="79.75"
       gradientUnits="userSpaceOnUse" />
    <linearGradient
       inkscape:collect="always"
       xlink:href="#linearGradient3415"
       id="linearGradient4203"
       x1="87.476562"
       y1="85.203125"
       x2="87.65625"
       y2="82.703125"
       gradientUnits="userSpaceOnUse" />
    <linearGradient
       inkscape:collect="always"
       xlink:href="#linearGradient3415"
       id="linearGradient4207"
       x1="86.15625"
       y1="84.078125"
       x2="86.203125"
       y2="84.34375"
       gradientUnits="userSpaceOnUse" />
    <linearGradient
       inkscape:collect="always"
       xlink:href="#linearGradient3415"
       id="linearGradient4211"
       x1="88.09375"
       y1="83.203125"
       x2="88.28125"
       y2="83.515625"
       gradientUnits="userSpaceOnUse" />
    <linearGradient
       inkscape:collect="always"
       xlink:href="#linearGradient3415"
       id="linearGradient4215"
       x1="84.84375"
       y1="84.5"
       x2="85.15625"
       y2="82.890625"
       gradientUnits="userSpaceOnUse" />
    <linearGradient
       inkscape:collect="always"
       xlink:href="#linearGradient3415"
       id="linearGradient4219"
       x1="88.960938"
       y1="83.546875"
       x2="89.859375"
       y2="81.828125"
       gradientUnits="userSpaceOnUse" />
    <linearGradient
       id="linearGradient3098">
      <stop
         style="stop-color:#9e2612;stop-opacity:1;"
         offset="0"
         id="stop3100" />
      <stop
         style="stop-color:#bd5032;stop-opacity:1;"
         offset="1"
         id="stop3102" />
    </linearGradient>
    <linearGradient
       id="linearGradient2404">
      <stop
         style="stop-color:#b49900;stop-opacity:1;"
         offset="0"
         id="stop2406" />
      <stop
         id="stop2412"
         offset="0.5"
         style="stop-color:#ffda0a;stop-opacity:1;" />
      <stop
         style="stop-color:#c6a800;stop-opacity:1;"
         offset="1"
         id="stop2408" />
    </linearGradient>
    <linearGradient
       inkscape:collect="always"
       xlink:href="#linearGradient2404"
       id="linearGradient4561"
       x1="87.852066"
       y1="85.411049"
       x2="90.153748"
       y2="83.811348"
       gradientUnits="userSpaceOnUse" />
    <linearGradient
       inkscape:collect="always"
       xlink:href="#linearGradient2404"
       id="linearGradient4565"
       x1="92.404213"
       y1="85.164337"
       x2="88.972542"
       y2="87.374832"
       gradientUnits="userSpaceOnUse" />
    <linearGradient
       inkscape:collect="always"
       xlink:href="#linearGradient2338"
       id="linearGradient4569"
       x1="31.577099"
       y1="60.590477"
       x2="25.472776"
       y2="60.590477"
       gradientUnits="userSpaceOnUse" />
    <linearGradient
       inkscape:collect="always"
       xlink:href="#linearGradient2338"
       id="linearGradient4573"
       x1="36.01506"
       y1="69.08287"
       x2="33.206608"
       y2="71.558533"
       gradientUnits="userSpaceOnUse" />
    <linearGradient
       inkscape:collect="always"
       xlink:href="#linearGradient3415"
       id="linearGradient4577"
       x1="33.275578"
       y1="62.270691"
       x2="34.079159"
       y2="62.270691"
       gradientUnits="userSpaceOnUse" />
    <linearGradient
       inkscape:collect="always"
       xlink:href="#linearGradient3415"
       id="linearGradient4581"
       gradientUnits="userSpaceOnUse"
       x1="33.275578"
       y1="62.270691"
       x2="34.079159"
       y2="62.270691"
       gradientTransform="translate(4.1640128,2.7029557)" />
    <linearGradient
       id="linearGradient4692">
      <stop
         id="stop4694"
         offset="0"
         style="stop-color:#4f3e2a;stop-opacity:1;" />
      <stop
         id="stop4696"
         offset="1"
         style="stop-color:#72593c;stop-opacity:1;" />
    </linearGradient>
    <linearGradient
       inkscape:collect="always"
       xlink:href="#linearGradient4692"
       id="linearGradient4838"
       x1="35.339085"
       y1="59.176983"
       x2="41.269482"
       y2="72.588806"
       gradientUnits="userSpaceOnUse" />
    <linearGradient
       inkscape:collect="always"
       xlink:href="#linearGradient3098"
       id="linearGradient4842"
       x1="56.65625"
       y1="107.40626"
       x2="60.84375"
       y2="104.29688"
       gradientUnits="userSpaceOnUse" />
    <linearGradient
       inkscape:collect="always"
       xlink:href="#linearGradient3098"
       id="linearGradient4846"
       gradientUnits="userSpaceOnUse"
       x1="56.65625"
       y1="107.40626"
       x2="60.84375"
       y2="104.29688"
       gradientTransform="translate(5.3695921,-1.9003495)" />
    <linearGradient
       inkscape:collect="always"
       xlink:href="#linearGradient3098"
       id="linearGradient4850"
       gradientUnits="userSpaceOnUse"
       gradientTransform="translate(10.713342,-3.8065995)"
       x1="56.65625"
       y1="107.40626"
       x2="60.84375"
       y2="104.29688" />
    <linearGradient
       inkscape:collect="always"
       xlink:href="#linearGradient3098"
       id="linearGradient4854"
       gradientUnits="userSpaceOnUse"
       gradientTransform="translate(15.869592,-5.4628495)"
       x1="56.65625"
       y1="107.40626"
       x2="60.84375"
       y2="104.29688" />
    <linearGradient
       inkscape:collect="always"
       xlink:href="#linearGradient3098"
       id="linearGradient4858"
       gradientUnits="userSpaceOnUse"
       x1="57.59375"
       y1="106.75001"
       x2="61.8125"
       y2="103.76563"
       gradientTransform="translate(-3.03125,-1.84375)" />
    <linearGradient
       inkscape:collect="always"
       xlink:href="#linearGradient3098"
       id="linearGradient4862"
       gradientUnits="userSpaceOnUse"
       gradientTransform="translate(-3.09375,-7.8125)"
       x1="57.59375"
       y1="106.75001"
       x2="61.8125"
       y2="103.76563" />
    <linearGradient
       inkscape:collect="always"
       xlink:href="#linearGradient3098"
       id="linearGradient4866"
       gradientUnits="userSpaceOnUse"
       gradientTransform="translate(-3.0625,-13.8125)"
       x1="57.59375"
       y1="106.75001"
       x2="61.8125"
       y2="103.76563" />
    <linearGradient
       inkscape:collect="always"
       xlink:href="#linearGradient3098"
       id="linearGradient4870"
       gradientUnits="userSpaceOnUse"
       x1="56.65625"
       y1="107.40626"
       x2="60.84375"
       y2="104.29688"
       gradientTransform="translate(2.4375,-3.78125)" />
    <linearGradient
       inkscape:collect="always"
       xlink:href="#linearGradient3098"
       id="linearGradient4874"
       gradientUnits="userSpaceOnUse"
       gradientTransform="translate(0,-5.9375)"
       x1="56.65625"
       y1="107.40626"
       x2="60.84375"
       y2="104.29688" />
    <linearGradient
       inkscape:collect="always"
       xlink:href="#linearGradient3098"
       id="linearGradient4878"
       gradientUnits="userSpaceOnUse"
       gradientTransform="translate(7.75,-5.65625)"
       x1="56.65625"
       y1="107.40626"
       x2="60.84375"
       y2="104.29688" />
    <linearGradient
       inkscape:collect="always"
       xlink:href="#linearGradient3098"
       id="linearGradient4882"
       gradientUnits="userSpaceOnUse"
       gradientTransform="translate(5.4375,-7.84375)"
       x1="56.65625"
       y1="107.40626"
       x2="60.84375"
       y2="104.29688" />
    <linearGradient
       inkscape:collect="always"
       xlink:href="#linearGradient3098"
       id="linearGradient4886"
       gradientUnits="userSpaceOnUse"
       gradientTransform="translate(2.1875,-9.6875)"
       x1="56.65625"
       y1="107.40626"
       x2="60.84375"
       y2="104.29688" />
    <linearGradient
       inkscape:collect="always"
       xlink:href="#linearGradient3098"
       id="linearGradient4890"
       gradientUnits="userSpaceOnUse"
       gradientTransform="translate(3.1249994e-2,-11.8125)"
       x1="56.65625"
       y1="107.40626"
       x2="60.84375"
       y2="104.29688" />
    <linearGradient
       inkscape:collect="always"
       xlink:href="#linearGradient3098"
       id="linearGradient4894"
       gradientUnits="userSpaceOnUse"
       gradientTransform="translate(2.1875,-15.59375)"
       x1="56.65625"
       y1="107.40626"
       x2="60.84375"
       y2="104.29688" />
    <linearGradient
       inkscape:collect="always"
       xlink:href="#linearGradient3098"
       id="linearGradient4898"
       gradientUnits="userSpaceOnUse"
       gradientTransform="translate(5.375,-13.75)"
       x1="56.65625"
       y1="107.40626"
       x2="60.84375"
       y2="104.29688" />
    <linearGradient
       inkscape:collect="always"
       xlink:href="#linearGradient3098"
       id="linearGradient4904"
       gradientUnits="userSpaceOnUse"
       gradientTransform="translate(37.571164,-42.293603)"
       x1="57.59375"
       y1="106.75001"
       x2="61.8125"
       y2="103.76563" />
    <linearGradient
       inkscape:collect="always"
       xlink:href="#linearGradient3098"
       id="linearGradient4906"
       gradientUnits="userSpaceOnUse"
       gradientTransform="translate(37.321142,-45.125243)"
       x1="56.65625"
       y1="107.40626"
       x2="60.84375"
       y2="104.29688" />
    <linearGradient
       inkscape:collect="always"
       xlink:href="#linearGradient3098"
       id="linearGradient4916"
       gradientUnits="userSpaceOnUse"
       gradientTransform="translate(37.321142,-51.091457)"
       x1="56.65625"
       y1="107.40626"
       x2="60.84375"
       y2="104.29688" />
    <linearGradient
       inkscape:collect="always"
       xlink:href="#linearGradient3098"
       id="linearGradient4920"
       gradientUnits="userSpaceOnUse"
       gradientTransform="translate(35.218762,-47.426497)"
       x1="56.65625"
       y1="107.40626"
       x2="60.84375"
       y2="104.29688" />
    <linearGradient
       inkscape:collect="always"
       xlink:href="#linearGradient3098"
       id="linearGradient4924"
       gradientUnits="userSpaceOnUse"
       gradientTransform="translate(31.97996,-43.193326)"
       x1="56.65625"
       y1="107.40626"
       x2="60.84375"
       y2="104.29688" />
    <linearGradient
       inkscape:collect="always"
       xlink:href="#linearGradient3098"
       id="linearGradient4928"
       gradientUnits="userSpaceOnUse"
       gradientTransform="translate(34.877835,-41.261409)"
       x1="56.65625"
       y1="107.40626"
       x2="60.84375"
       y2="104.29688" />
    <linearGradient
       inkscape:collect="always"
       xlink:href="#linearGradient3098"
       id="linearGradient4932"
       gradientUnits="userSpaceOnUse"
       gradientTransform="translate(37.349552,-39.21585)"
       x1="56.65625"
       y1="107.40626"
       x2="60.84375"
       y2="104.29688" />
    <linearGradient
       inkscape:collect="always"
       xlink:href="#linearGradient3098"
       id="linearGradient4936"
       gradientUnits="userSpaceOnUse"
       gradientTransform="translate(37.855269,-48.345048)"
       x1="57.59375"
       y1="106.75001"
       x2="61.8125"
       y2="103.76563" />
    <linearGradient
       inkscape:collect="always"
       xlink:href="#linearGradient3098"
       id="linearGradient4940"
       gradientUnits="userSpaceOnUse"
       x1="56.876942"
       y1="100.97517"
       x2="62.079216"
       y2="105.32227"
       gradientTransform="matrix(1,1.0119694,0,1,-5.3376523,-61.572502)" />
    <linearGradient
       inkscape:collect="always"
       xlink:href="#linearGradient3098"
       id="linearGradient4944"
       gradientUnits="userSpaceOnUse"
       gradientTransform="translate(-5.4680043,-3.5842888)"
       x1="59.54702"
       y1="103.48166"
       x2="62.860786"
       y2="106.97596" />
    <linearGradient
       inkscape:collect="always"
       xlink:href="#linearGradient3098"
       id="linearGradient4948"
       gradientUnits="userSpaceOnUse"
       gradientTransform="translate(-5.5500541,-9.4918734)"
       x1="59.54702"
       y1="103.48166"
       x2="62.860786"
       y2="106.97596" />
    <linearGradient
       inkscape:collect="always"
       xlink:href="#linearGradient3098"
       id="linearGradient4952"
       gradientUnits="userSpaceOnUse"
       gradientTransform="translate(-5.4953542,-15.290058)"
       x1="59.54702"
       y1="103.48166"
       x2="62.860786"
       y2="106.97596" />
    <linearGradient
       inkscape:collect="always"
       xlink:href="#linearGradient3098"
       id="linearGradient4956"
       gradientUnits="userSpaceOnUse"
       gradientTransform="matrix(1,1.0119694,0,1,-10.588839,-65.264742)"
       x1="56.876942"
       y1="100.97517"
       x2="62.079216"
       y2="105.32227" />
    <linearGradient
       inkscape:collect="always"
       xlink:href="#linearGradient3098"
       id="linearGradient4960"
       gradientUnits="userSpaceOnUse"
       gradientTransform="matrix(1,1.0119694,0,1,-15.894725,-68.902283)"
       x1="56.876942"
       y1="100.97517"
       x2="62.079216"
       y2="105.32227" />
    <linearGradient
       inkscape:collect="always"
       xlink:href="#linearGradient3098"
       id="linearGradient4964"
       gradientUnits="userSpaceOnUse"
       gradientTransform="matrix(1,1.0119694,0,1,-13.241782,-69.99628)"
       x1="56.876942"
       y1="100.97517"
       x2="62.079216"
       y2="105.32227" />
    <linearGradient
       inkscape:collect="always"
       xlink:href="#linearGradient3098"
       id="linearGradient4968"
       gradientUnits="userSpaceOnUse"
       gradientTransform="matrix(1,1.0119694,0,1,-7.9905957,-66.413439)"
       x1="56.876942"
       y1="100.97517"
       x2="62.079216"
       y2="105.32227" />
    <linearGradient
       inkscape:collect="always"
       xlink:href="#linearGradient3098"
       id="linearGradient4972"
       gradientUnits="userSpaceOnUse"
       gradientTransform="matrix(1,1.0119694,0,1,-5.6111519,-67.753586)"
       x1="56.876942"
       y1="100.97517"
       x2="62.079216"
       y2="105.32227" />
    <linearGradient
       inkscape:collect="always"
       xlink:href="#linearGradient3098"
       id="linearGradient4976"
       gradientUnits="userSpaceOnUse"
       gradientTransform="matrix(1,1.0119694,0,1,-10.834988,-71.309077)"
       x1="56.876942"
       y1="100.97517"
       x2="62.079216"
       y2="105.32227" />
    <linearGradient
       inkscape:collect="always"
       xlink:href="#linearGradient3098"
       id="linearGradient4980"
       gradientUnits="userSpaceOnUse"
       gradientTransform="matrix(1,1.0119694,0,1,-7.771796,-72.156925)"
       x1="56.876942"
       y1="100.97517"
       x2="62.079216"
       y2="105.32227" />
    <linearGradient
       inkscape:collect="always"
       xlink:href="#linearGradient3098"
       id="linearGradient4984"
       gradientUnits="userSpaceOnUse"
       gradientTransform="matrix(1,1.0119694,0,1,-5.7752512,-73.715871)"
       x1="56.876942"
       y1="100.97517"
       x2="62.079216"
       y2="105.32227" />
    <linearGradient
       inkscape:collect="always"
       xlink:href="#linearGradient3098"
       id="linearGradient4988"
       gradientUnits="userSpaceOnUse"
       gradientTransform="matrix(1,1.0119694,0,1,-7.6623963,-77.95511)"
       x1="56.876942"
       y1="100.97517"
       x2="62.079216"
       y2="105.32227" />
    <linearGradient
       inkscape:collect="always"
       xlink:href="#linearGradient3098"
       id="linearGradient4994"
       gradientUnits="userSpaceOnUse"
       gradientTransform="matrix(1,1.0119694,0,1,-37.213818,-83.677525)"
       x1="56.876942"
       y1="100.97517"
       x2="62.079216"
       y2="105.32227" />
    <linearGradient
       inkscape:collect="always"
       xlink:href="#linearGradient3098"
       id="linearGradient4996"
       gradientUnits="userSpaceOnUse"
       gradientTransform="translate(-40.438948,-27.71539)"
       x1="59.54702"
       y1="103.48166"
       x2="62.860786"
       y2="106.97596" />
    <linearGradient
       inkscape:collect="always"
       xlink:href="#linearGradient3098"
       id="linearGradient5000"
       gradientUnits="userSpaceOnUse"
       gradientTransform="translate(-40.438948,-33.666413)"
       x1="59.54702"
       y1="103.48166"
       x2="62.860786"
       y2="106.97596" />
    <linearGradient
       inkscape:collect="always"
       xlink:href="#linearGradient3098"
       id="linearGradient5004"
       gradientUnits="userSpaceOnUse"
       gradientTransform="matrix(1,1.0119694,0,1,-31.892533,-80.119506)"
       x1="56.876942"
       y1="100.97517"
       x2="62.079216"
       y2="105.32227" />
    <linearGradient
       inkscape:collect="always"
       xlink:href="#linearGradient3098"
       id="linearGradient5008"
       gradientUnits="userSpaceOnUse"
       gradientTransform="matrix(1,1.0119694,0,1,-34.379997,-84.685105)"
       x1="56.876942"
       y1="100.97517"
       x2="62.079216"
       y2="105.32227" />
    <linearGradient
       inkscape:collect="always"
       xlink:href="#linearGradient3098"
       id="linearGradient5012"
       gradientUnits="userSpaceOnUse"
       gradientTransform="matrix(1,1.0119694,0,1,-37.308278,-89.628547)"
       x1="56.876942"
       y1="100.97517"
       x2="62.079216"
       y2="105.32227" />
    <linearGradient
       inkscape:collect="always"
       xlink:href="#linearGradient3098"
       id="linearGradient5016"
       gradientUnits="userSpaceOnUse"
       gradientTransform="matrix(1,1.0119694,0,1,-31.92402,-85.976068)"
       x1="56.876942"
       y1="100.97517"
       x2="62.079216"
       y2="105.32227" />
    <linearGradient
       inkscape:collect="always"
       xlink:href="#linearGradient3098"
       id="linearGradient5020"
       gradientUnits="userSpaceOnUse"
       gradientTransform="matrix(1,1.0119694,0,1,-37.245304,-95.57957)"
       x1="56.876942"
       y1="100.97517"
       x2="62.079216"
       y2="105.32227" />
    <linearGradient
       inkscape:collect="always"
       xlink:href="#linearGradient3098"
       id="linearGradient5024"
       gradientUnits="userSpaceOnUse"
       gradientTransform="matrix(1,1.0119694,0,1,-34.065128,-90.447207)"
       x1="56.876942"
       y1="100.97517"
       x2="62.079216"
       y2="105.32227" />
    <filter
       inkscape:collect="always"
       id="filter3081">
      <feGaussianBlur
         inkscape:collect="always"
         stdDeviation="1.8119611"
         id="feGaussianBlur3083" />
    </filter>
  </defs>
  <sodipodi:namedview
     id="base"
     pagecolor="#ffffff"
     bordercolor="#666666"
     borderopacity="1.0"
     gridtolerance="10000"
     guidetolerance="10"
     objecttolerance="10"
     inkscape:pageopacity="0.0"
     inkscape:pageshadow="2"
     inkscape:zoom="1"
     inkscape:cx="239"
     inkscape:cy="64"
     inkscape:document-units="px"
     inkscape:current-layer="layer2"
     showgrid="false"
     width="128px"
     inkscape:window-width="687"
     inkscape:window-height="697"
     inkscape:window-x="728"
     inkscape:window-y="142" />
  <metadata
     id="metadata7">
    <rdf:RDF>
      <cc:Work
         rdf:about="">
        <dc:format>image/svg+xml</dc:format>
        <dc:type
           rdf:resource="http://purl.org/dc/dcmitype/StillImage" />
      </cc:Work>
    </rdf:RDF>
  </metadata>
  <g
     inkscape:groupmode="layer"
     id="layer2"
     inkscape:label="colors">
    <path
       style="fill:#000000;fill-rule:evenodd;stroke:none;stroke-width:1px;stroke-linecap:butt;stroke-linejoin:miter;stroke-opacity:1;filter:url(#filter3081);fill-opacity:0.51583713"
       d="M 50.911688,102.89771 L 18.031223,82.391612 L 7.0710678,59.410642 L 46.315494,42.793633 L 91.923882,74.613438 L 50.911688,102.89771 z"
       id="path5040"
       sodipodi:nodetypes="cccccc" />
    <path
       style="fill:url(#linearGradient4173);fill-rule:evenodd;stroke:none;stroke-width:1px;stroke-linecap:butt;stroke-linejoin:miter;stroke-opacity:1;fill-opacity:1"
       d="M 57.408232,88.689282 L 57.408232,92.246913 L 57.364038,95.428894 L 57.408232,101.94753 L 57.452426,107.25084 L 41.653009,96.666331 L 42.956737,95.141632 L 45.299028,93.882098 L 50.359261,93.948389 L 52.657358,91.561904 L 57.010484,88.755574 L 57.408232,88.689282 z"
       id="path4171" />
    <path
       id="path4938"
       d="M 52.349848,100.86799 L 57.34908,104.31304 L 57.39967,106.95404 L 52.334223,103.57093 L 52.349848,100.86799 z"
       style="fill:url(#linearGradient4940);fill-opacity:1;fill-rule:evenodd;stroke:none;stroke-width:1px;stroke-linecap:butt;stroke-linejoin:miter;stroke-opacity:1"
       sodipodi:nodetypes="ccccc" />
    <path
       style="fill:url(#linearGradient4177);fill-rule:evenodd;stroke:none;stroke-width:1px;stroke-linecap:butt;stroke-linejoin:miter;stroke-opacity:1;fill-opacity:1"
       d="M 20.263029,67.078331 L 20.196737,69.509011 L 20.019961,69.553205 L 19.95367,72.24905 L 20.240932,72.558409 L 20.240932,75.607807 L 19.975767,75.607807 L 19.975767,78.325748 L 20.240932,78.480428 L 20.240932,81.640312 L 27.179417,86.479574 L 26.317631,82.10435 L 26.825864,79.563185 L 24.306796,76.292816 L 23.621786,70.19402 L 20.263029,67.078331 z"
       id="path4175" />
    <path
       style="fill:url(#linearGradient4838);fill-rule:evenodd;stroke:none;stroke-width:1px;stroke-linecap:butt;stroke-linejoin:miter;stroke-opacity:1;fill-opacity:1"
       d="M 32.145793,55.345034 L 32.084968,66.080573 L 40.904533,72.041382 L 41.056595,61.275431 L 32.145793,55.345034 z"
       id="path4836" />
    <path
       id="path5028"
       d="M 32.145793,55.345034 L 32.084968,66.080573 L 40.904533,72.041382 L 41.056595,61.275431 L 32.145793,55.345034 z"
       style="fill:#000000;fill-rule:evenodd;stroke:none;stroke-width:1px;stroke-linecap:butt;stroke-linejoin:miter;stroke-opacity:1;fill-opacity:0.15686275" />
    <path
       style="fill:url(#linearGradient3819);fill-opacity:1;fill-rule:evenodd;stroke:none;stroke-width:1px;stroke-linecap:butt;stroke-linejoin:miter;stroke-opacity:1"
       d="M 19.40625,39.75 L 19.59375,66.875 L 20.28125,66.96875 L 23.59375,70.40625 L 24.28125,76.09375 L 26.65625,79.5 L 26.25,82.0625 L 27.21875,86.5625 L 41.71875,96.9375 L 42.8125,95.28125 L 44.1875,94.5 L 45.354708,93.926542 L 50.53125,94 L 52.21875,91.9375 L 57.3125,88.4375 L 57.3125,64.8125 L 19.40625,39.75 z M 30.0625,53.75 L 41.15625,61.78125 L 41.15625,74.40625 L 30.15625,67.46875 L 30.0625,53.75 z"
       id="path3079"
       sodipodi:nodetypes="cccccccccccccccccccccc" />
    <path
       style="fill:url(#linearGradient3823);fill-opacity:1;fill-rule:evenodd;stroke:none;stroke-width:1px;stroke-linecap:butt;stroke-linejoin:miter;stroke-opacity:1"
       d="M 57.364038,64.802331 L 57.275649,88.843962 L 62.57895,91.230447 L 64.523494,94.500816 L 68.324193,96.622137 L 69.473241,99.62734 L 73.27394,99.362175 L 75.130096,99.804117 L 75.130096,77.883807 L 88.123183,72.580506 L 87.946406,96.533748 L 100.49755,92.025942 L 100.8511,65.155885 L 98.464619,63.653283 L 93.691649,62.857788 L 93.426484,62.150681 L 93.338095,59.940972 L 96.520076,57.642875 L 97.669124,53.665399 L 100.8511,51.544079 L 100.40916,49.776312 L 57.364038,64.802331 z"
       id="path3821" />
    <path
       style="fill:url(#linearGradient4219);fill-rule:evenodd;stroke:none;stroke-width:1px;stroke-linecap:butt;stroke-linejoin:miter;stroke-opacity:1;fill-opacity:1"
       d="M 88.078125,81.6875 C 88.234375,81.640625 89.859375,81.15625 89.859375,81.15625 L 89.796875,84.125 L 88.0625,84.296875 L 88.078125,81.6875 z"
       id="path4217" />
    <path
       style="fill:url(#linearGradient3827);fill-opacity:1;fill-rule:evenodd;stroke:none;stroke-width:1px;stroke-linecap:butt;stroke-linejoin:miter;stroke-opacity:1"
       d="M 42.25,31.375 L 19.625,39.625 L 57.375,64.875 L 100.625,49.75 L 96,46.5 L 95.25,46.625 L 94.629777,45.860132 L 93.8125,45.375 L 93.375,44.625 L 64.375,25.25 L 63.25,25.25 L 62.125,24.5625 L 46.75,29.875 L 46.5625,30.75 L 42.875,32.125 L 42.25,31.375 z"
       id="path3825"
       sodipodi:nodetypes="cccccccccccccccc" />
    <path
       style="fill:url(#linearGradient4169);fill-rule:evenodd;stroke:none;stroke-width:1px;stroke-linecap:butt;stroke-linejoin:miter;stroke-opacity:1;fill-opacity:1"
       d="M 57.297747,88.689282 L 57.364038,89.484777 L 57.386135,95.406797 L 57.297747,98.213127 L 57.430329,101.32882 L 57.386135,107.18454 L 75.085902,101.17414 C 75.085902,101.17414 75.218484,99.9367 74.997513,99.848311 C 74.776542,99.759923 73.406523,99.317981 73.406523,99.317981 L 69.539533,99.671534 L 68.302096,96.622136 L 64.4793,94.412428 L 62.556853,91.142059 L 57.297747,88.689282 z"
       id="path4167" />
    <path
       sodipodi:nodetypes="ccccc"
       style="fill:url(#linearGradient4994);fill-opacity:1;fill-rule:evenodd;stroke:none;stroke-width:1px;stroke-linecap:butt;stroke-linejoin:miter;stroke-opacity:1"
       d="M 20.473682,78.762967 L 25.383856,82.208017 L 25.412181,84.849017 L 20.458057,81.465907 L 20.473682,78.762967 z"
       id="path4990" />
    <path
       style="fill:url(#linearGradient4183);fill-rule:evenodd;stroke:none;stroke-width:1px;stroke-linecap:butt;stroke-linejoin:miter;stroke-opacity:1;fill-opacity:1"
       d="M 100.36497,51.853438 L 100.36497,53.930564 L 100.56384,54.129438 L 100.58594,56.714797 L 100.29868,57.156739 L 100.38707,59.918875 L 100.65223,60.161943 L 100.60804,62.658914 L 100.32077,63.167147 L 100.40916,64.979108 L 98.508814,63.741671 L 93.536969,62.813593 L 93.315998,59.80839 L 96.475882,57.598681 L 97.647027,53.466526 L 100.36497,51.853438 z"
       id="path4181" />
    <path
       style="fill:url(#linearGradient4187);fill-rule:evenodd;stroke:none;stroke-width:1px;stroke-linecap:butt;stroke-linejoin:miter;stroke-opacity:1;fill-opacity:1"
       d="M 75.3125,99.375 L 77.25,98.875 L 77.5,98.4375 L 79.875,97.5625 L 80.25,97.75 L 82.1875,96.875 L 82.4375,96.5625 L 84.125,95.9375 L 84.5625,95.9375 L 86.3125,95.1875 L 86.375,89.25 L 85.0625,86.125 L 86.375,85.1875 L 86.0625,84.625 L 85.5,84.625 L 85,84.125 L 85.1875,83.75 L 85.75,83.8125 L 86,83.0625 L 86.25,82.375 L 86.375,73.125 L 75,77.75 L 75.3125,99.375 z"
       id="path4185" />
    <path
       style="fill:url(#linearGradient4215);fill-rule:evenodd;stroke:none;stroke-width:1px;stroke-linecap:butt;stroke-linejoin:miter;stroke-opacity:1;fill-opacity:1"
       d="M 86.234375,82.15625 L 84.640625,82.765625 L 84.625,85.640625 L 86.203125,85.078125 L 86.234375,82.15625 z"
       id="path4213" />
    <path
       style="fill:url(#linearGradient4191);fill-rule:evenodd;stroke:none;stroke-width:1px;stroke-linecap:butt;stroke-linejoin:miter;stroke-opacity:1;fill-opacity:1"
       d="M 75.25,81.75 L 85.6875,78.1875 L 85.75,81.125 L 75.0625,85.5 L 75.25,81.75 z"
       id="path4189" />
    <path
       style="fill:url(#linearGradient4195);fill-rule:evenodd;stroke:none;stroke-width:1px;stroke-linecap:butt;stroke-linejoin:miter;stroke-opacity:1;fill-opacity:1"
       d="M 75.25,91.75 L 85.5,88.125 L 85.625,91.125 L 75.3125,95.1875 L 75.25,91.75 z"
       id="path4193" />
    <path
       style="fill:url(#linearGradient4199);fill-rule:evenodd;stroke:none;stroke-width:1px;stroke-linecap:butt;stroke-linejoin:miter;stroke-opacity:1;fill-opacity:1"
       d="M 86.125,73.375 L 86.25,95.25 L 87.875,96.625 L 88.0625,72.5 L 86.125,73.375 z"
       id="path4197" />
    <path
       id="path5038"
       d="M 86.125,73.375 L 86.25,95.25 L 87.875,96.625 L 88.0625,72.5 L 86.125,73.375 z"
       style="fill:#000000;fill-rule:evenodd;stroke:none;stroke-width:1px;stroke-linecap:butt;stroke-linejoin:miter;stroke-opacity:1;fill-opacity:0.15686275" />
    <path
       style="fill:url(#linearGradient4203);fill-rule:evenodd;stroke:none;stroke-width:1px;stroke-linecap:butt;stroke-linejoin:miter;stroke-opacity:1;fill-opacity:1"
       d="M 86.5625,85.578125 L 85.703125,83.828125 L 85.96875,82.921875 L 86.875,82.234375 C 86.875,82.234375 88.171875,82.671875 88.171875,82.734375 C 88.171875,82.796875 89.25,84.515625 89.25,84.515625 L 89.046875,84.921875 L 88.671875,84.921875 L 87.859375,83.1875 L 87,83.015625 L 86.5625,83.296875 L 86.28125,83.84375 L 87.09375,85.390625 L 86.90625,85.703125 L 86.5625,85.578125 z"
       id="path4201" />
    <path
       style="fill:url(#linearGradient4207);fill-rule:evenodd;stroke:none;stroke-width:1px;stroke-linecap:butt;stroke-linejoin:miter;stroke-opacity:1;fill-opacity:1"
       d="M 85.171875,83.703125 C 85.171875,83.703125 85.671875,83.8125 85.828125,83.875 C 85.984375,83.9375 86.796875,83.8125 86.796875,83.8125 L 86.984375,84.0625 L 86.90625,84.421875 L 86.296875,84.59375 L 85.53125,84.65625 C 85.53125,84.65625 85.109375,84.390625 85.078125,84.296875 C 85.046875,84.203125 85.09375,83.734375 85.171875,83.703125 z"
       id="path4205" />
    <path
       style="fill:url(#linearGradient4211);fill-rule:evenodd;stroke:none;stroke-width:1px;stroke-linecap:butt;stroke-linejoin:miter;stroke-opacity:1;fill-opacity:1"
       d="M 87.453125,83.484375 L 87.90625,83.234375 L 88.5,82.765625 L 88.765625,82.34375 L 89.109375,82.609375 L 89.03125,82.984375 L 88.671875,83.65625 L 88.25,83.984375 L 87.65625,83.9375 L 87.453125,83.484375 z"
       id="path4209" />
    <path
       style="fill:url(#linearGradient4561);fill-rule:evenodd;stroke:none;stroke-width:1px;stroke-linecap:butt;stroke-linejoin:miter;stroke-opacity:1"
       d="M 85.234375,86 L 86.359375,85.28125 L 86.5625,85.703125 L 87.046875,85.640625 L 87.203125,85.40625 L 87.03125,85.109375 L 88.359375,84.46875 L 88.59375,84.828125 L 88.90625,84.953125 C 88.90625,84.953125 89.328125,84.703125 89.296875,84.640625 C 89.265625,84.578125 89.125,84.1875 89.125,84.1875 L 90.109375,84.109375 L 90.75,84.5 L 90.578125,84.796875 L 85.948323,86.480046 L 85.234375,86 z"
       id="path4221"
       sodipodi:nodetypes="cccccccccscccccc" />
    <path
       style="fill:url(#linearGradient4565);fill-rule:evenodd;stroke:none;stroke-width:1px;stroke-linecap:butt;stroke-linejoin:miter;stroke-opacity:1"
       d="M 85.133252,86.218682 L 86.136702,86.494995 L 90.761296,84.822578 L 90.601326,88.807292 L 88.08543,89.839827 L 87.50372,89.927083 C 87.50372,89.927083 86.616613,89.563515 86.616613,89.505344 C 86.616613,89.447173 85.104167,86.233225 85.133252,86.218682 z"
       id="path4563" />
    <path
       style="fill:url(#linearGradient4569);fill-rule:evenodd;stroke:none;stroke-width:1px;stroke-linecap:butt;stroke-linejoin:miter;stroke-opacity:1"
       d="M 30.097777,54.070508 L 30.17083,67.110444 L 32.033678,66.12423 L 32.106731,55.129775 L 30.097777,54.070508 z"
       id="path4567" />
    <path
       style="fill:url(#linearGradient4573);fill-rule:evenodd;stroke:none;stroke-width:1px;stroke-linecap:butt;stroke-linejoin:miter;stroke-opacity:1;fill-opacity:1"
       d="M 30.353462,66.891285 L 32.106731,66.051177 L 32.873786,66.526021 L 32.873786,67.512234 L 33.23905,68.242763 L 33.713894,68.425395 L 34.334843,68.388869 L 34.809686,68.023604 L 37.220431,69.484661 L 37.147378,70.324769 L 37.731801,71.055298 L 38.243171,71.128351 L 39.010226,70.763086 L 41.055706,72.187617 L 40.946126,73.867833 L 40.726968,73.940886 L 30.389989,67.585287 L 30.353462,66.891285 z"
       id="path4571" />
    <path
       style="fill:url(#linearGradient4577);fill-rule:evenodd;stroke:none;stroke-width:1px;stroke-linecap:butt;stroke-linejoin:miter;stroke-opacity:1"
       d="M 32.910312,56.042936 L 32.910312,67.621814 L 33.275576,68.206236 L 33.859999,68.498448 L 34.627054,68.206236 L 34.846213,67.694866 L 34.809686,57.248308 L 32.910312,56.042936 z"
       id="path4575" />
    <path
       id="path4579"
       d="M 37.074325,58.745892 L 37.074325,70.32477 L 37.439589,70.909192 L 38.024012,71.201404 L 38.791067,70.909192 L 39.010226,70.397822 L 38.973699,59.951264 L 37.074325,58.745892 z"
       style="fill:url(#linearGradient4581);fill-rule:evenodd;stroke:none;stroke-width:1px;stroke-linecap:butt;stroke-linejoin:miter;stroke-opacity:1" />
    <path
       style="fill:url(#linearGradient4842);fill-rule:evenodd;stroke:none;stroke-width:1px;stroke-linecap:butt;stroke-linejoin:miter;stroke-opacity:1;fill-opacity:1"
       d="M 57.6875,104.0625 L 62.609375,102.46875 L 62.640625,105.07812 L 57.671875,106.78125 L 57.6875,104.0625 z"
       id="path4840" />
    <path
       id="path4844"
       d="M 63.057092,102.16215 L 67.978967,100.5684 L 68.010217,103.17777 L 63.041467,104.8809 L 63.057092,102.16215 z"
       style="fill:url(#linearGradient4846);fill-opacity:1;fill-rule:evenodd;stroke:none;stroke-width:1px;stroke-linecap:butt;stroke-linejoin:miter;stroke-opacity:1" />
    <path
       style="fill:url(#linearGradient4850);fill-opacity:1;fill-rule:evenodd;stroke:none;stroke-width:1px;stroke-linecap:butt;stroke-linejoin:miter;stroke-opacity:1"
       d="M 68.400842,100.2559 L 70.701998,99.510764 L 73.353967,99.34965 L 73.353967,101.27152 L 68.385217,102.97465 L 68.400842,100.2559 z"
       id="path4848"
       sodipodi:nodetypes="cccccc" />
    <path
       id="path4852"
       d="M 73.588342,99.4434 L 75.010217,99.8184 L 74.978967,100.80277 L 73.541467,101.3184 L 73.588342,99.4434 z"
       style="fill:url(#linearGradient4854);fill-opacity:1;fill-rule:evenodd;stroke:none;stroke-width:1px;stroke-linecap:butt;stroke-linejoin:miter;stroke-opacity:1"
       sodipodi:nodetypes="ccccc" />
    <path
       id="path4856"
       d="M 57.4375,101.34375 L 59.578125,100.625 L 59.609375,103.23437 L 57.359375,104 L 57.4375,101.34375 z"
       style="fill:url(#linearGradient4858);fill-opacity:1;fill-rule:evenodd;stroke:none;stroke-width:1px;stroke-linecap:butt;stroke-linejoin:miter;stroke-opacity:1"
       sodipodi:nodetypes="ccccc" />
    <path
       sodipodi:nodetypes="ccccc"
       style="fill:url(#linearGradient4862);fill-opacity:1;fill-rule:evenodd;stroke:none;stroke-width:1px;stroke-linecap:butt;stroke-linejoin:miter;stroke-opacity:1"
       d="M 57.375,95.375 L 59.390625,94.71875 L 59.421875,97.29687 L 57.296875,98.03125 L 57.375,95.375 z"
       id="path4860" />
    <path
       id="path4864"
       d="M 57.40625,89.375 L 58.277465,89.082475 L 59.453125,89.6875 L 59.453125,91.35937 L 57.328125,92.03125 L 57.40625,89.375 z"
       style="fill:url(#linearGradient4866);fill-opacity:1;fill-rule:evenodd;stroke:none;stroke-width:1px;stroke-linecap:butt;stroke-linejoin:miter;stroke-opacity:1"
       sodipodi:nodetypes="cccccc" />
    <path
       id="path4868"
       d="M 60.125,100.28125 L 65.046875,98.6875 L 65.078125,101.29687 L 60.109375,103 L 60.125,100.28125 z"
       style="fill:url(#linearGradient4870);fill-opacity:1;fill-rule:evenodd;stroke:none;stroke-width:1px;stroke-linecap:butt;stroke-linejoin:miter;stroke-opacity:1" />
    <path
       style="fill:url(#linearGradient4874);fill-opacity:1;fill-rule:evenodd;stroke:none;stroke-width:1px;stroke-linecap:butt;stroke-linejoin:miter;stroke-opacity:1"
       d="M 57.6875,98.125 L 62.609375,96.53125 L 62.640625,99.14062 L 57.671875,100.84375 L 57.6875,98.125 z"
       id="path4872" />
    <path
       id="path4876"
       d="M 65.4375,98.40625 L 68.640625,97.375 L 69.578125,99.70312 L 65.421875,101.125 L 65.4375,98.40625 z"
       style="fill:url(#linearGradient4878);fill-opacity:1;fill-rule:evenodd;stroke:none;stroke-width:1px;stroke-linecap:butt;stroke-linejoin:miter;stroke-opacity:1"
       sodipodi:nodetypes="ccccc" />
    <path
       style="fill:url(#linearGradient4882);fill-opacity:1;fill-rule:evenodd;stroke:none;stroke-width:1px;stroke-linecap:butt;stroke-linejoin:miter;stroke-opacity:1"
       d="M 63.125,96.21875 L 65.955317,95.302266 L 68.046875,96.5 L 68.078125,97.23437 L 63.109375,98.9375 L 63.125,96.21875 z"
       id="path4880"
       sodipodi:nodetypes="cccccc" />
    <path
       id="path4884"
       d="M 59.875,94.375 L 63.842616,93.090248 L 64.359375,94.3125 L 64.870604,94.613325 L 64.828125,95.39062 L 59.859375,97.09375 L 59.875,94.375 z"
       style="fill:url(#linearGradient4886);fill-opacity:1;fill-rule:evenodd;stroke:none;stroke-width:1px;stroke-linecap:butt;stroke-linejoin:miter;stroke-opacity:1"
       sodipodi:nodetypes="ccccccc" />
    <path
       style="fill:url(#linearGradient4890);fill-opacity:1;fill-rule:evenodd;stroke:none;stroke-width:1px;stroke-linecap:butt;stroke-linejoin:miter;stroke-opacity:1"
       d="M 57.71875,92.25 L 61.949276,90.880115 L 62.640625,91.1875 L 62.671875,93.26562 L 57.703125,94.96875 L 57.71875,92.25 z"
       id="path4888"
       sodipodi:nodetypes="cccccc" />
    <path
       id="path4892"
       d="M 59.8125,89.90625 L 61.390625,90.64062 L 59.859375,91.1875 L 59.8125,89.90625 z"
       style="fill:url(#linearGradient4894);fill-opacity:1;fill-rule:evenodd;stroke:none;stroke-width:1px;stroke-linecap:butt;stroke-linejoin:miter;stroke-opacity:1"
       sodipodi:nodetypes="cccc" />
    <path
       style="fill:url(#linearGradient4898);fill-opacity:1;fill-rule:evenodd;stroke:none;stroke-width:1px;stroke-linecap:butt;stroke-linejoin:miter;stroke-opacity:1"
       d="M 63.09375,91.84375 L 63.703125,92.85937 L 63.046875,93.03125 L 63.09375,91.84375 z"
       id="path4896"
       sodipodi:nodetypes="cccc" />
    <path
       sodipodi:nodetypes="ccccc"
       style="fill:url(#linearGradient4904);fill-opacity:1;fill-rule:evenodd;stroke:none;stroke-width:1px;stroke-linecap:butt;stroke-linejoin:miter;stroke-opacity:1"
       d="M 98.039914,60.893897 L 100.57173,60.137891 L 100.56572,62.747261 L 97.961789,63.550147 L 98.039914,60.893897 z"
       id="path4900" />
    <path
       style="fill:url(#linearGradient4906);fill-opacity:1;fill-rule:evenodd;stroke:none;stroke-width:1px;stroke-linecap:butt;stroke-linejoin:miter;stroke-opacity:1"
       d="M 95.008642,58.937257 L 99.930517,57.343507 L 99.961767,59.952877 L 94.993017,61.656007 L 95.008642,58.937257 z"
       id="path4902" />
    <path
       id="path4914"
       d="M 97.622412,53.510843 L 99.930517,51.973914 L 99.961767,53.986663 L 97.180629,55.00794 L 97.622412,53.510843 z"
       style="fill:url(#linearGradient4916);fill-opacity:1;fill-rule:evenodd;stroke:none;stroke-width:1px;stroke-linecap:butt;stroke-linejoin:miter;stroke-opacity:1"
       sodipodi:nodetypes="ccccc" />
    <path
       style="fill:url(#linearGradient4920);fill-opacity:1;fill-rule:evenodd;stroke:none;stroke-width:1px;stroke-linecap:butt;stroke-linejoin:miter;stroke-opacity:1"
       d="M 97.054201,55.385939 L 97.828137,55.042253 L 97.859387,57.651623 L 95.277122,58.502437 L 96.564713,57.609339 L 97.054201,55.385939 z"
       id="path4918"
       sodipodi:nodetypes="cccccc" />
    <path
       id="path4922"
       d="M 94.014273,59.306594 L 94.589335,59.275424 L 94.620585,61.884794 L 93.458848,62.138986 L 93.348967,59.847101 L 94.014273,59.306594 z"
       style="fill:url(#linearGradient4924);fill-opacity:1;fill-rule:evenodd;stroke:none;stroke-width:1px;stroke-linecap:butt;stroke-linejoin:miter;stroke-opacity:1"
       sodipodi:nodetypes="cccccc" />
    <path
       style="fill:url(#linearGradient4928);fill-opacity:1;fill-rule:evenodd;stroke:none;stroke-width:1px;stroke-linecap:butt;stroke-linejoin:miter;stroke-opacity:1"
       d="M 93.417651,62.516986 L 97.48721,61.207341 L 97.490049,63.561016 L 93.657721,62.82084 L 93.417651,62.516986 z"
       id="path4926"
       sodipodi:nodetypes="ccccc" />
    <path
       id="path4930"
       d="M 98.474727,63.767049 L 99.958927,63.2529 L 99.990177,64.839491 L 98.474727,63.767049 z"
       style="fill:url(#linearGradient4932);fill-opacity:1;fill-rule:evenodd;stroke:none;stroke-width:1px;stroke-linecap:butt;stroke-linejoin:miter;stroke-opacity:1"
       sodipodi:nodetypes="cccc" />
    <path
       id="path4934"
       d="M 98.324019,54.842452 L 100.57173,54.143267 L 100.59414,56.724227 L 98.245894,57.498702 L 98.324019,54.842452 z"
       style="fill:url(#linearGradient4936);fill-opacity:1;fill-rule:evenodd;stroke:none;stroke-width:1px;stroke-linecap:butt;stroke-linejoin:miter;stroke-opacity:1"
       sodipodi:nodetypes="ccccc" />
    <path
       sodipodi:nodetypes="ccccc"
       style="fill:url(#linearGradient4944);fill-opacity:1;fill-rule:evenodd;stroke:none;stroke-width:1px;stroke-linecap:butt;stroke-linejoin:miter;stroke-opacity:1"
       d="M 54.981407,99.680568 L 57.392782,101.37923 L 57.385354,103.87257 L 54.922621,102.25946 L 54.981407,99.680568 z"
       id="path4942" />
    <path
       id="path4946"
       d="M 55.172856,93.909733 L 57.365432,95.416945 L 57.303304,97.964985 L 55.22347,96.598024 L 55.172856,93.909733 z"
       style="fill:url(#linearGradient4948);fill-opacity:1;fill-rule:evenodd;stroke:none;stroke-width:1px;stroke-linecap:butt;stroke-linejoin:miter;stroke-opacity:1"
       sodipodi:nodetypes="ccccc" />
    <path
       sodipodi:nodetypes="cccccc"
       style="fill:url(#linearGradient4952);fill-opacity:1;fill-rule:evenodd;stroke:none;stroke-width:1px;stroke-linecap:butt;stroke-linejoin:miter;stroke-opacity:1"
       d="M 56.458303,88.986745 L 57.365432,89.48201 L 57.358004,92.1668 L 55.36022,90.71779 L 55.392923,89.77336 L 56.458303,88.986745 z"
       id="path4950" />
    <path
       sodipodi:nodetypes="ccccc"
       style="fill:url(#linearGradient4956);fill-opacity:1;fill-rule:evenodd;stroke:none;stroke-width:1px;stroke-linecap:butt;stroke-linejoin:miter;stroke-opacity:1"
       d="M 47.098662,97.17575 L 52.097894,100.6208 L 52.148484,103.2618 L 47.083037,99.87869 L 47.098662,97.17575 z"
       id="path4954" />
    <path
       id="path4958"
       d="M 43.543171,94.796306 L 46.792008,96.983259 L 46.842598,99.624259 L 41.968601,96.323199 L 42.946602,95.104624 L 43.543171,94.796306 z"
       style="fill:url(#linearGradient4960);fill-opacity:1;fill-rule:evenodd;stroke:none;stroke-width:1px;stroke-linecap:butt;stroke-linejoin:miter;stroke-opacity:1"
       sodipodi:nodetypes="cccccc" />
    <path
       sodipodi:nodetypes="ccccccc"
       style="fill:url(#linearGradient4964);fill-opacity:1;fill-rule:evenodd;stroke:none;stroke-width:1px;stroke-linecap:butt;stroke-linejoin:miter;stroke-opacity:1"
       d="M 45.320917,93.893758 L 46.568414,93.906994 L 49.444951,95.889262 L 49.495541,98.530262 L 44.566844,95.119802 L 44.531291,94.334458 L 45.320917,93.893758 z"
       id="path4962" />
    <path
       id="path4966"
       d="M 49.806305,96.109103 L 54.696137,99.472103 L 54.746727,102.1131 L 49.81803,98.675293 L 49.806305,96.109103 z"
       style="fill:url(#linearGradient4968);fill-opacity:1;fill-rule:evenodd;stroke:none;stroke-width:1px;stroke-linecap:butt;stroke-linejoin:miter;stroke-opacity:1"
       sodipodi:nodetypes="ccccc" />
    <path
       sodipodi:nodetypes="ccccc"
       style="fill:url(#linearGradient4972);fill-opacity:1;fill-rule:evenodd;stroke:none;stroke-width:1px;stroke-linecap:butt;stroke-linejoin:miter;stroke-opacity:1"
       d="M 52.076349,94.686906 L 57.075581,98.131956 L 57.126171,100.77295 L 52.060724,97.389846 L 52.076349,94.686906 z"
       id="path4970" />
    <path
       id="path4974"
       d="M 50.298604,93.948458 L 50.593227,93.7092 L 51.851745,94.576465 L 51.902335,97.217459 L 46.836888,93.834355 L 50.298604,93.948458 z"
       style="fill:url(#linearGradient4976);fill-opacity:1;fill-rule:evenodd;stroke:none;stroke-width:1px;stroke-linecap:butt;stroke-linejoin:miter;stroke-opacity:1"
       sodipodi:nodetypes="cccccc" />
    <path
       sodipodi:nodetypes="ccccc"
       style="fill:url(#linearGradient4980);fill-opacity:1;fill-rule:evenodd;stroke:none;stroke-width:1px;stroke-linecap:butt;stroke-linejoin:miter;stroke-opacity:1"
       d="M 52.267799,91.869863 L 54.914937,93.728617 L 54.965527,96.369611 L 50.829978,93.478806 L 52.267799,91.869863 z"
       id="path4978" />
    <path
       id="path4982"
       d="M 54.346394,90.475016 L 56.911482,92.169671 L 56.962072,94.810665 L 52.498323,91.78311 L 54.346394,90.475016 z"
       style="fill:url(#linearGradient4984);fill-opacity:1;fill-rule:evenodd;stroke:none;stroke-width:1px;stroke-linecap:butt;stroke-linejoin:miter;stroke-opacity:1"
       sodipodi:nodetypes="ccccc" />
    <path
       sodipodi:nodetypes="cccc"
       style="fill:url(#linearGradient4988);fill-opacity:1;fill-rule:evenodd;stroke:none;stroke-width:1px;stroke-linecap:butt;stroke-linejoin:miter;stroke-opacity:1"
       d="M 55.024337,89.981677 L 55.074927,90.571426 L 54.549568,90.251514 L 55.024337,89.981677 z"
       id="path4986" />
    <path
       id="path4992"
       d="M 20.010463,75.549467 L 22.933924,77.559833 L 22.971025,80.23129 L 19.951677,78.128359 L 20.010463,75.549467 z"
       style="fill:url(#linearGradient4996);fill-opacity:1;fill-rule:evenodd;stroke:none;stroke-width:1px;stroke-linecap:butt;stroke-linejoin:miter;stroke-opacity:1"
       sodipodi:nodetypes="ccccc" />
    <path
       sodipodi:nodetypes="ccccc"
       style="fill:url(#linearGradient5000);fill-opacity:1;fill-rule:evenodd;stroke:none;stroke-width:1px;stroke-linecap:butt;stroke-linejoin:miter;stroke-opacity:1"
       d="M 20.010463,69.598444 L 23.28028,71.892192 L 23.254407,74.406215 L 19.951677,72.177336 L 20.010463,69.598444 z"
       id="path4998" />
    <path
       id="path5002"
       d="M 25.794967,82.320986 L 26.422924,82.837755 L 27.080987,85.888085 L 25.779342,85.023926 L 25.794967,82.320986 z"
       style="fill:url(#linearGradient5004);fill-opacity:1;fill-rule:evenodd;stroke:none;stroke-width:1px;stroke-linecap:butt;stroke-linejoin:miter;stroke-opacity:1"
       sodipodi:nodetypes="ccccc" />
    <path
       sodipodi:nodetypes="cccccc"
       style="fill:url(#linearGradient5008);fill-opacity:1;fill-rule:evenodd;stroke:none;stroke-width:1px;stroke-linecap:butt;stroke-linejoin:miter;stroke-opacity:1"
       d="M 23.307503,77.755387 L 26.643332,80.16137 L 26.365843,82.160903 L 26.419762,82.613448 L 23.291878,80.458327 L 23.307503,77.755387 z"
       id="path5006" />
    <path
       id="path5010"
       d="M 20.379222,72.811945 L 24.361398,75.605898 L 24.344789,76.414429 L 25.305377,77.747028 L 25.317721,78.897995 L 20.363597,75.514885 L 20.379222,72.811945 z"
       style="fill:url(#linearGradient5012);fill-opacity:1;fill-rule:evenodd;stroke:none;stroke-width:1px;stroke-linecap:butt;stroke-linejoin:miter;stroke-opacity:1"
       sodipodi:nodetypes="ccccccc" />
    <path
       sodipodi:nodetypes="ccccc"
       style="fill:url(#linearGradient5016);fill-opacity:1;fill-rule:evenodd;stroke:none;stroke-width:1px;stroke-linecap:butt;stroke-linejoin:miter;stroke-opacity:1"
       d="M 25.794967,78.259177 L 26.769279,79.500144 L 26.797604,79.811114 L 25.747855,79.167364 L 25.794967,78.259177 z"
       id="path5014" />
    <path
       sodipodi:nodetypes="ccccc"
       style="fill:url(#linearGradient5020);fill-opacity:1;fill-rule:evenodd;stroke:none;stroke-width:1px;stroke-linecap:butt;stroke-linejoin:miter;stroke-opacity:1"
       d="M 20.473683,67.301738 L 23.52613,70.274485 L 23.774864,71.876418 L 20.426571,69.563862 L 20.473683,67.301738 z"
       id="path5018" />
    <path
       id="path5022"
       d="M 23.622372,71.993285 L 24.250329,75.029005 L 23.606747,74.696225 L 23.622372,71.993285 z"
       style="fill:url(#linearGradient5024);fill-opacity:1;fill-rule:evenodd;stroke:none;stroke-width:1px;stroke-linecap:butt;stroke-linejoin:miter;stroke-opacity:1"
       sodipodi:nodetypes="cccc" />
    <path
       sodipodi:nodetypes="cccccccccccccccccccccc"
       id="path5026"
       d="M 19.40625,39.75 L 19.59375,66.875 L 20.28125,66.96875 L 23.59375,70.40625 L 24.28125,76.09375 L 26.65625,79.5 L 26.25,82.0625 L 27.21875,86.5625 L 41.71875,96.9375 L 42.8125,95.28125 L 44.1875,94.5 L 45.354708,93.926542 L 50.53125,94 L 52.21875,91.9375 L 57.3125,88.4375 L 57.3125,64.8125 L 19.40625,39.75 z M 30.0625,53.75 L 41.15625,61.78125 L 41.15625,74.40625 L 30.15625,67.46875 L 30.0625,53.75 z"
       style="fill:#000000;fill-opacity:0.15686275;fill-rule:evenodd;stroke:none;stroke-width:1px;stroke-linecap:butt;stroke-linejoin:miter;stroke-opacity:1" />
    <path
       id="path5030"
       d="M 30.097777,54.070508 L 30.17083,67.110444 L 32.033678,66.12423 L 32.106731,55.129775 L 30.097777,54.070508 z"
       style="fill:#000000;fill-rule:evenodd;stroke:none;stroke-width:1px;stroke-linecap:butt;stroke-linejoin:miter;stroke-opacity:1;fill-opacity:0.15686275" />
    <path
       id="path5032"
       d="M 30.353462,66.891285 L 32.106731,66.051177 L 32.873786,66.526021 L 32.873786,67.512234 L 33.23905,68.242763 L 33.713894,68.425395 L 34.334843,68.388869 L 34.809686,68.023604 L 37.220431,69.484661 L 37.147378,70.324769 L 37.731801,71.055298 L 38.243171,71.128351 L 39.010226,70.763086 L 41.055706,72.187617 L 40.946126,73.867833 L 40.726968,73.940886 L 30.389989,67.585287 L 30.353462,66.891285 z"
       style="fill:#000000;fill-rule:evenodd;stroke:none;stroke-width:1px;stroke-linecap:butt;stroke-linejoin:miter;stroke-opacity:1;fill-opacity:0.15686275" />
    <path
       style="fill:#000000;fill-rule:evenodd;stroke:none;stroke-width:1px;stroke-linecap:butt;stroke-linejoin:miter;stroke-opacity:1;fill-opacity:0.15686275"
       d="M 20.263029,67.078331 L 20.196737,69.509011 L 20.019961,69.553205 L 19.95367,72.24905 L 20.240932,72.558409 L 20.240932,75.607807 L 19.975767,75.607807 L 19.975767,78.325748 L 20.240932,78.480428 L 20.240932,81.640312 L 27.179417,86.479574 L 26.317631,82.10435 L 26.825864,79.563185 L 24.306796,76.292816 L 23.621786,70.19402 L 20.263029,67.078331 z"
       id="path5034" />
    <path
       style="fill:#000000;fill-rule:evenodd;stroke:none;stroke-width:1px;stroke-linecap:butt;stroke-linejoin:miter;stroke-opacity:1;fill-opacity:0.15686275"
       d="M 57.408232,88.689282 L 57.408232,92.246913 L 57.364038,95.428894 L 57.408232,101.94753 L 57.452426,107.25084 L 41.653009,96.666331 L 42.956737,95.141632 L 45.299028,93.882098 L 50.359261,93.948389 L 52.657358,91.561904 L 57.010484,88.755574 L 57.408232,88.689282 z"
       id="path5036" />
  </g>
  <g
     inkscape:label="outline"
     inkscape:groupmode="layer"
     id="layer1"
     style="display:inline">
    <path
       style="fill:#000000;fill-opacity:1;fill-rule:evenodd;stroke:none;stroke-width:1.00000012px;stroke-linecap:butt;stroke-linejoin:miter;stroke-opacity:1"
       d="M 62.09375,24.34375 L 46.4375,29.84375 L 46.21875,30.6875 L 43.1875,31.90625 L 42.375,31.25 L 19.09375,39.40625 L 19.21875,66.78125 L 20.136374,67.356694 L 20.125266,69.358345 L 19.923838,69.421002 L 19.905512,72.249308 L 20.19853,72.688971 L 20.172873,75.409063 L 19.884035,75.563879 L 19.866284,78.303515 L 20.17378,78.635248 L 20.167447,81.153286 L 19.847095,81.264973 L 19.84375,81.78125 L 57.03125,107.96875 L 75.75,101.28125 L 75.625,99.5625 L 77.5,98.84375 L 77.759147,98.523309 L 79.640319,97.836462 L 80.084076,97.878263 L 82.4375,96.90625 L 82.71877,96.562537 L 83.997374,96.055628 L 84.405488,96.154255 L 86.28125,95.4375 L 87.78125,97 L 100.96875,92.0625 L 101.03125,65.28125 L 100.53125,64.625 L 100.53125,63.03125 L 100.6875,62.71875 L 100.6875,59.875 L 100.5,59.625 L 100.45042,57.127849 L 100.6875,56.71875 L 100.6875,53.9375 L 100.49319,53.71318 L 100.5,52.0625 L 101.0625,51.53125 L 101.0625,49.71875 L 96.09375,46.34375 L 95.40625,46.53125 L 93.90625,45.25 L 93.78125,44.78125 L 64.28125,24.71875 L 63.15625,25.09375 L 62.09375,24.34375 z M 62,24.875 L 62.03125,24.875 L 63.03125,25.46875 L 64.28125,25.375 L 93.25,45 L 93.125,45.875 L 94.53125,45.96875 L 94.5625,47.4375 L 95.875,46.78125 L 100.15625,49.6875 L 57.21875,64.5 L 20.40625,39.65625 L 42.375,31.875 L 43.90625,34.1875 L 44.03125,31.96875 L 45.40625,32.15625 L 45.5625,31.25 L 47.46875,31.59375 L 46.8125,30.28125 L 61.09375,25.21875 L 63,27.28125 L 62.28125,28.9375 L 61,29.90625 L 58.09375,29.84375 L 58.15625,29.9375 L 60.65625,30.34375 L 60.40625,31.65625 L 60.59375,31.71875 L 60.96875,30.40625 L 61.3125,30.46875 L 62.3125,29.59375 L 63.875,31.1875 L 62.8125,32.875 L 62.90625,32.90625 L 63.90625,31.625 L 65.21875,31.84375 L 64.90625,34.90625 L 65.03125,34.90625 L 65.46875,31.96875 L 67.09375,31.78125 L 67.15625,31.75 L 65.53125,31.625 L 65.53125,31.59375 L 64.28125,31.125 L 62.59375,29.40625 L 63.375,27.5625 L 64.625,28.25 L 64.75,28.21875 L 63.53125,27.1875 L 63.5625,27.125 L 62,24.875 z M 19.84375,40.1875 L 56.96875,65.34375 L 56.90625,88.625 L 52.125,91.6875 L 50.3125,93.875 L 45.375,93.8125 L 42.9375,94.9375 L 41.78125,96.375 L 27.28125,86.34375 L 26.4375,82.21875 L 26.96875,79.53125 L 24.46875,76.28125 L 23.75,70.125 L 20.03125,66.65625 L 19.84375,40.1875 z M 100.40625,50.15625 L 100.40625,51.46875 L 97.40625,53.4375 L 96.4375,57.46875 L 93.28125,59.78125 L 93.3125,62.59375 L 93.28125,62.5625 L 91.96875,64.125 L 89.6875,64.0625 L 89.75,64.25 L 91.90625,64.46875 L 92.6875,65.5625 L 92.6875,65.40625 L 92.25,64.375 L 93.6875,62.90625 L 98.28125,63.8125 L 100.34375,65.25 L 100.21875,91.8125 L 88.3125,95.9375 L 88.3125,89.90625 L 90.78125,88.84375 L 91,84.5 C 90.751814,84.051846 90.379192,83.940539 89.875,83.9375 L 89.875,81.0625 L 88.3125,81.53125 L 88.3125,72.96875 L 88.34375,72.96875 L 88.5625,71.9375 L 90.21875,71.9375 L 90.1875,71.96875 L 91.90625,73.3125 L 90.59375,71.65625 L 91.1875,71 L 91.0625,71.03125 L 90.25,71.5625 L 88.71875,71.3125 L 88.71875,71.28125 L 87.1875,70 L 87.125,70.125 L 88.34375,71.375 L 87.46875,72.46875 L 74.75,77.5625 L 74.75,99.625 L 73.40625,99.25 L 69.5625,99.4375 L 68.40625,96.53125 L 64.625,94.375 L 62.8125,91.125 L 57.65625,88.625 L 57.59375,65.875 L 58.8125,66.9375 L 58.625,68.3125 L 59.25,67.0625 L 60.96875,67.5 L 63.6875,66 L 64.125,65.9375 L 67.03125,66.53125 L 68.65625,68.65625 L 68.875,68.625 L 67.09375,66.40625 L 67.0625,66.40625 L 67.03125,66.375 L 65.125,65.75 L 67.40625,65.34375 L 68.90625,63.53125 L 68.8125,63.46875 L 67.21875,64.96875 L 63.5625,65.5625 L 61.0625,67.0625 L 59.1875,66.5625 L 58.1875,65.15625 L 100.40625,50.15625 z M 100.21875,52 L 100.21875,54.125 L 98.25,54.75 L 98.25,57.5625 L 100.21875,56.90625 L 100.25,60.09375 L 97.90625,60.875 L 97.90625,63.4375 L 97.5625,63.375 L 97.5625,61.09375 L 93.65625,62.375 L 93.625,62.21875 L 94.65625,61.875 L 94.65625,59.125 L 94.4375,59.1875 L 95.25,58.625 L 97.90625,57.71875 L 97.90625,54.96875 L 97.375,55.15625 L 97.4375,54.9375 L 100.0625,54.03125 L 100.0625,52.09375 L 100.21875,52 z M 99.90625,52.21875 L 99.9375,53.9375 L 97.46875,54.78125 L 97.8125,53.65625 L 99.90625,52.21875 z M 29.75,53.25 L 29.875,67.53125 L 40.5625,74.15625 L 41.3125,75.90625 L 40.125,77.375 L 41,78.59375 L 41.15625,78.71875 L 40.5625,77.40625 L 41.5625,76.125 L 43.03125,76.53125 L 43.71875,80.5 L 45.40625,81.125 L 45.375,80.90625 L 43.90625,80.53125 L 43.46875,76.84375 L 45.46875,77.625 L 46.125,79 L 46.25,78.96875 L 45.9375,77.5625 L 46.875,76.875 L 46.78125,76.90625 L 45.5,77.25 L 43.25,76.0625 L 43.25,76.125 L 41.90625,76 L 41.4375,74.375 L 41.375,61.96875 L 43.34375,60.5625 L 44.09375,61.03125 L 45.28125,63.5 L 45.46875,63.625 L 44.65625,61.21875 L 45.78125,60.84375 L 45.78125,60.75 L 44.53125,60.90625 L 44.5,60.78125 L 43.34375,60.1875 L 40.90625,60.96875 L 29.75,53.25 z M 100.4375,54.25 L 100.46875,56.6875 L 98.40625,57.40625 L 98.40625,54.875 L 100.4375,54.25 z M 30.5,54.5 L 31.875,55.46875 L 31.875,65.9375 L 30.5625,66.5625 L 30.5,54.5 z M 97.75,55.15625 L 97.78125,57.625 L 95.625,58.375 L 96.625,57.6875 L 97.3125,55.3125 L 97.75,55.15625 z M 32.3125,55.78125 L 32.75,56.09375 L 32.75,66.125 L 32.3125,65.84375 L 32.3125,55.78125 z M 33.0625,56.34375 L 34.65625,57.46875 L 34.6875,67.71875 C 34.019768,68.946699 33.035382,68.058795 33.0625,67.375 L 33.0625,56.34375 z M 100.0625,57.25 L 94.96875,58.90625 L 95,61.71875 L 100.0625,60 L 100.0625,57.25 z M 99.875,57.4375 L 99.90625,59.90625 L 95.125,61.53125 L 95.125,59.03125 L 99.875,57.4375 z M 34.96875,57.6875 L 37,59.15625 L 37,69 L 34.96875,67.65625 L 34.96875,57.6875 z M 94.46875,59.3125 L 94.5,61.78125 L 93.625,62.0625 L 93.40625,59.90625 L 94.09375,59.4375 L 94.46875,59.3125 z M 37.3125,59.375 L 38.90625,60.5 L 38.9375,70.375 C 38.269767,71.602956 37.285382,70.715045 37.3125,70.03125 L 37.3125,59.375 z M 100.53125,60.15625 L 100.5,62.65625 L 98.15625,63.46875 L 98.0625,63.46875 L 98.03125,60.96875 L 100.53125,60.15625 z M 39.21875,60.71875 L 40.6875,61.78125 L 40.6875,71.5 L 39.21875,70.46875 L 39.21875,60.71875 z M 97.40625,61.25 L 97.4375,63.34375 L 93.6875,62.6875 L 93.65625,62.5 L 97.40625,61.25 z M 100.25,62.875 L 100.25,64.84375 L 100.0625,64.6875 L 100.0625,63.125 L 98.65625,63.59375 L 98.59375,63.5625 L 98.5625,63.53125 L 98.5,63.53125 L 98.40625,63.53125 L 100.25,62.875 z M 99.90625,63.3125 L 99.9375,64.59375 L 98.75,63.6875 L 99.90625,63.3125 z M 32.125,66.34375 L 32.75,66.78125 L 32.75,67.4375 C 32.662139,67.800422 33.811136,69.379043 34.78125,68.1875 L 37,69.6875 L 37,70.09375 C 36.915721,70.44187 37.964247,71.901827 38.90625,70.96875 L 40.6875,72.21875 L 40.6875,73.65625 L 30.625,66.96875 L 32.125,66.34375 z M 20.28125,67.28125 L 20.40625,67.40625 L 20.40625,69.625 L 23.5625,71.78125 L 23.59375,71.90625 L 23.5625,71.875 L 23.5625,74.71875 L 24.03125,75.03125 L 24.0625,75.3125 L 20.375,72.71875 L 20.375,75.53125 L 25.4375,79.03125 L 25.4375,78.0625 L 25.65625,78.375 L 25.65625,79.125 L 26.59375,79.75 L 26.5625,79.9375 L 23.21875,77.59375 L 23.21875,80.40625 L 26.3125,82.5625 L 26.34375,82.71875 L 25.6875,82.25 L 25.6875,85.0625 L 26.90625,85.90625 L 26.9375,86.09375 L 20.34375,81.46875 L 20.34375,78.4375 L 23.03125,80.3125 L 23.03125,77.5625 L 20.3125,75.65625 L 20.3125,72.46875 L 23.375,74.59375 L 23.375,71.84375 L 20.28125,69.6875 L 20.28125,67.28125 z M 20.5625,67.5625 L 23.375,70.40625 L 23.5625,71.65625 L 20.5625,69.59375 L 20.5625,67.5625 z M 20.038182,69.711167 L 23.21875,71.875 L 23.25,74.34375 L 20.025238,72.211167 L 20.038182,69.711167 z M 23.71875,72.84375 L 24,74.875 L 23.71875,74.6875 L 23.71875,72.84375 z M 20.53125,72.96875 L 24.09375,75.46875 L 24.21875,76.40625 L 25.3125,77.90625 L 25.3125,78.78125 L 20.53125,75.5 L 20.53125,72.96875 z M 87.53125,73.0625 L 87.53125,82.09375 C 87.190826,81.840591 86.785434,82.011008 86.5625,82.15625 L 86.59375,73.4375 L 87.53125,73.0625 z M 86.09375,73.65625 L 86.0625,82.15625 L 84.5625,82.75 L 84.5625,85.71875 L 86.03125,85.25 L 86.03125,85.375 C 85.620956,85.577319 85.166745,85.797283 84.75,86.03125 L 86.03125,88.5625 L 86,95.12343 L 84.424556,95.71718 L 84.4375,91.90625 L 85.90625,91.34375 L 85.90625,88.375 L 85.59375,88.03125 L 84.40625,88.4375 L 84.375,82.03125 L 85.90625,81.4375 L 85.90625,78.46875 L 85.59375,78.125 L 84.34375,78.5625 L 84.3125,74.375 L 86.09375,73.65625 z M 83.9375,74.53125 L 83.9375,78.6875 L 82.3125,79.25 L 82.28125,75.21875 L 83.9375,74.53125 z M 81.90625,75.375 L 81.90625,79.40625 L 79.90625,80.09375 L 79.875,76.21875 L 81.90625,75.375 z M 20.047335,75.62657 L 22.84375,77.5625 L 22.875,80.0625 L 20.034391,78.148667 L 20.047335,75.62657 z M 79.5,76.375 L 79.53125,80.21875 L 77.34375,80.96875 L 77.3125,77.28125 L 79.5,76.375 z M 76.9375,77.4375 L 76.96875,81.09375 L 75.625,81.5625 L 75.625,77.96875 L 76.9375,77.4375 z M 23.375,77.84375 L 26.53125,80.09375 L 26.25,82.09375 L 26.3125,82.4375 L 23.375,80.40625 L 23.375,77.84375 z M 85.46875,78.40625 L 85.46875,78.625 L 75.625,82.0625 L 75.625,81.875 L 85.46875,78.40625 z M 25.8125,78.59375 L 26.59375,79.65625 L 25.8125,79.125 L 25.8125,78.59375 z M 20.40625,78.65625 L 20.40625,81.46875 L 25.46875,84.9375 L 25.46875,82.1875 L 20.40625,78.65625 z M 20.5625,78.90625 L 25.3125,82.21875 L 25.34375,84.71875 L 20.5625,81.4375 L 20.5625,78.90625 z M 85.375,79.0625 L 85.4375,80.96875 L 75.625,84.78125 L 75.625,82.75 L 85.375,79.0625 z M 89.75,81.25 L 89.737056,83.9375 L 89.03125,84.03125 L 88.8125,83.59375 C 88.960557,83.358132 89.074209,83.070197 89.25,82.75 C 89.18644,82.457989 89.048612,82.185129 88.5625,82.375 C 88.498905,82.530999 88.417465,82.6494 88.34375,82.75 L 88.3125,82.6875 L 88.3125,81.75 L 89.75,81.25 z M 83.96875,82.1875 L 83.96875,88.59375 L 82.375,89.125 L 82.34375,82.8125 L 83.96875,82.1875 z M 86.0625,82.3125 L 86.0625,82.5 C 85.712189,82.815212 85.469191,83.241869 85.5,83.6875 C 85.368561,83.650287 85.261407,83.623352 85.09375,83.59375 C 84.782064,83.972415 84.981049,84.215086 85.1875,84.59375 C 85.514065,84.765855 85.763578,84.780875 86,84.75 L 86.03125,84.8125 L 86.03125,85.0625 L 84.6875,85.53125 L 84.6875,82.875 L 86.0625,82.3125 z M 86.90625,82.46875 C 87.346122,82.418957 87.809257,82.678999 88.0625,82.90625 L 88.125,82.96875 C 88.07511,83.009905 88.023186,83.058521 87.96875,83.09375 L 87.90625,83 C 87.683928,82.884392 87.463833,82.823687 87.28125,82.8125 C 86.744496,82.779612 86.404027,83.17001 86.15625,83.84375 C 86.071246,83.84081 85.98767,83.829287 85.90625,83.8125 C 86.087173,82.868304 86.477982,82.517232 86.90625,82.46875 z M 25.8125,82.5 L 26.375,82.90625 L 26.875,85.71875 L 25.84375,85.03125 L 25.8125,82.5 z M 88.6875,82.5625 C 88.82726,82.5901 88.977265,82.568088 89,82.875 C 88.839,83.33356 88.627968,83.733135 88.09375,83.90625 C 87.909043,83.799173 87.509638,83.943829 87.65625,83.5 C 88.138839,83.276404 88.456075,82.950606 88.6875,82.5625 z M 81.9375,82.96875 L 81.9375,89.28125 L 80,89.96875 L 79.9375,83.75 L 81.9375,82.96875 z M 86.96875,83.15625 C 87.162676,83.146502 87.38188,83.266362 87.59375,83.34375 C 87.489205,83.404127 87.400744,83.446165 87.28125,83.53125 C 87.306915,83.775125 87.394193,83.88827 87.53125,83.96875 L 87.5,84.6875 C 87.312127,84.774775 87.113258,84.872605 86.9375,84.96875 L 86.71875,84.53125 C 86.81623,84.495956 86.887859,84.469163 87,84.4375 C 87.163579,84.187393 87.257524,83.932103 86.78125,83.71875 C 86.648432,83.773373 86.545854,83.792136 86.4375,83.8125 C 86.557738,83.322835 86.763605,83.166564 86.96875,83.15625 z M 88.65625,83.78125 L 89.15625,84.5 C 88.980998,84.908378 88.891013,84.797059 88.78125,84.8125 L 88.375,84 C 88.486364,83.936157 88.582189,83.860275 88.65625,83.78125 z M 85.34375,83.8125 C 85.84159,83.999684 86.311039,84.013475 86.75,83.90625 C 86.828346,84.025237 86.984082,84.143546 86.78125,84.375 C 86.34146,84.58184 85.873067,84.696896 85.375,84.4375 C 85.321784,84.230736 84.924551,84.019263 85.34375,83.8125 z M 79.53125,83.90625 L 79.5625,90.09375 L 77.4375,90.84375 L 77.375,84.75 L 79.53125,83.90625 z M 89.78125,84.25 C 90.311565,84.194953 90.527117,84.362904 90.5,84.65625 L 85.78125,86.28125 L 85.40625,86.03125 L 86.34375,85.46875 L 86.5,85.78125 C 86.865239,85.825864 87.156401,85.741454 87.3125,85.4375 L 87.15625,85.21875 C 87.461683,84.893053 87.938939,84.833987 88.375,84.65625 L 88.59375,85.03125 C 88.973196,85.163095 89.204179,84.9487 89.375,84.59375 L 89.21875,84.34375 L 89.78125,84.25 z M 86.5625,84.59375 L 87,85.34375 C 86.91156,85.517862 86.84437,85.668052 86.6875,85.5 L 86.28125,84.6875 C 86.36809,84.660946 86.470612,84.627915 86.5625,84.59375 z M 76.96875,84.90625 L 77,91 L 75.625,91.46875 L 75.625,85.40625 L 76.96875,84.90625 z M 90.5625,85.09375 L 90.40625,88.5625 L 88.09375,89.46875 L 86.4375,86.5 L 90.5625,85.09375 z M 85.3125,86.375 L 85.90625,86.5625 L 87.78125,89.75 C 87.462583,89.915146 86.963069,89.682891 86.78125,89.4375 L 85.3125,86.375 z M 88.78125,86.40625 C 88.587077,86.400946 88.381672,86.541781 88.1875,87.03125 C 88.312033,87.316678 88.462921,87.627115 88.9375,87.5625 L 89.0625,88.46875 L 89.78125,88.1875 L 89.125,87.34375 C 89.702907,87.272449 89.491198,86.958916 89.375,86.65625 C 89.180828,86.577078 88.975421,86.411552 88.78125,86.40625 z M 85.46875,88.3125 L 85.46875,88.53125 L 75.625,91.96875 L 75.625,91.78125 L 85.46875,88.3125 z M 57,88.9375 L 57.21875,89.0625 L 57.21875,89.34375 L 56.8125,89.0625 L 57,88.9375 z M 85.375,88.96875 L 85.4375,90.875 L 75.625,94.6875 L 75.625,92.65625 L 85.375,88.96875 z M 57.4375,89 L 57.875,89.1875 L 57.4375,89.3125 L 57.4375,89 z M 56.6875,89.125 L 57.307138,89.512944 L 57.307138,92.035041 L 55.4375,90.75 L 55.4375,89.96875 L 56.6875,89.125 z M 58.0625,89.28125 L 59.375,89.90625 L 59.40625,91.3125 L 57.4375,92 L 57.4375,89.477903 L 58.0625,89.28125 z M 86.5625,89.59375 C 86.856957,89.803981 87.13332,90.05437 87.5,90.125 L 87.5,96.125 L 86.53125,95.03125 L 86.5625,89.59375 z M 59.53125,89.96875 L 59.78125,90.09375 L 59.78125,91.21875 L 61.1875,90.75 L 61.5,90.90625 L 57.625,92.1875 L 57.625,95 L 62.6875,93.28125 L 62.6875,91.5625 L 63.03125,92.1875 L 63.03125,93.125 L 63.46875,92.96875 L 63.59375,93.15625 L 59.84375,94.375 L 59.84375,97.1875 L 64.90625,95.46875 L 64.90625,94.8125 L 65.15625,94.96875 L 65.15625,95.28125 L 65.5,95.15625 L 65.75,95.3125 L 63.03125,96.21875 L 63.03125,99.03125 L 68.09375,97.3125 L 68.09375,96.78125 L 68.375,97.40625 L 65.34375,98.40625 L 65.34375,101.21875 L 69.40625,99.84375 L 69.4375,99.875 L 69.5625,99.875 L 68.34375,100.25 L 68.34375,103.0625 L 73.40625,101.34375 L 73.40625,99.53125 L 73.5,99.53125 L 73.5,101.3125 L 74.75,100.875 L 74.75,100.9375 L 57.5,107.03125 L 57.5,104.03125 L 59.6875,103.28125 L 59.6875,100.53125 L 57.46875,101.25 L 57.46875,98.03125 L 59.5,97.34375 L 59.5,94.59375 L 57.46875,95.28125 L 57.4375,92.125 L 59.53125,91.40625 L 59.53125,89.96875 z M 55.28125,90.09375 L 55.28125,90.78125 L 57.21875,92.125 L 57.21875,95.25 L 55.125,93.78125 L 55.125,96.59375 L 57.25,98.0625 L 57.25,101.1875 L 54.90625,99.53125 L 54.9375,102.34375 L 57.25,103.9375 L 57.25,104.21875 L 52.28125,100.71875 L 52.28125,103.53125 L 57.25,106.96875 L 57.25,107.03125 L 42.125,96.625 L 42.1875,96.53125 L 46.90625,99.8125 L 46.90625,97.0625 L 43.78125,94.875 L 44.46875,94.5 L 44.46875,95.15625 L 49.53125,98.625 L 49.53125,95.875 L 46.84375,94 L 47.09375,94 L 51.9375,97.3125 L 51.9375,94.5625 L 50.75,93.71875 L 50.84375,93.625 L 55,96.5 L 55,93.75 L 52.46875,91.96875 L 52.5,91.9375 L 52.5625,91.90625 L 57.0625,95.03125 L 57.0625,92.28125 L 54.59375,90.53125 L 54.78125,90.40625 L 55.125,90.65625 L 55.125,90.1875 L 55.28125,90.09375 z M 59.9375,90.15625 L 61.03125,90.6875 L 59.9375,91.03125 L 59.9375,90.15625 z M 55,90.28125 L 55,90.4375 L 54.875,90.34375 L 55,90.28125 z M 54.5,90.59375 L 56.90625,92.3125 L 56.9375,94.8125 L 52.625,91.84375 L 54.5,90.59375 z M 61.71875,91 L 62.53125,91.375 L 62.5625,93.1875 L 57.78125,94.8125 L 57.78125,92.28125 L 61.71875,91 z M 52.40625,92.03125 L 54.84375,93.75 L 54.875,96.25 L 50.90625,93.53125 L 52.40625,92.03125 z M 84,92.09375 L 84,95.71875 L 82.4375,96.3125 L 82.40625,92.6875 L 84,92.09375 z M 63.1875,92.46875 L 63.40625,92.875 L 63.1875,92.9375 L 63.1875,92.46875 z M 81.96875,92.875 L 81.990847,96.765165 L 80.040403,97.483915 L 80.03125,93.625 L 81.96875,92.875 z M 63.65625,93.28125 L 64.3125,94.4375 L 64.78125,94.71875 L 64.78125,95.375 L 60,97 L 60,94.46875 L 63.65625,93.28125 z M 50.65625,93.8125 L 51.78125,94.59375 L 51.8125,97.09375 L 47.28125,94 L 50.46875,94 L 50.65625,93.8125 z M 79.5625,93.8125 L 79.59375,97.40625 L 77.5,98.1875 L 77.46875,94.59375 L 79.5625,93.8125 z M 45.375,94 L 46.625,94 L 49.375,95.90625 L 49.40625,98.40625 L 44.625,95.125 L 44.625,94.40625 L 45.375,94 z M 55.28125,94.03125 L 57.329235,95.441291 L 57.262944,97.9375 L 55.28125,96.59375 L 55.28125,94.03125 z M 52.0625,94.625 L 52.09375,97.4375 L 57.15625,100.9375 L 57.15625,98.1875 L 52.0625,94.625 z M 59.34375,94.78125 L 59.375,97.25 L 57.380362,97.928347 L 57.402459,95.450444 L 59.34375,94.78125 z M 77,94.78125 L 77.119638,98.573874 L 75.647097,99.083027 L 75.625,95.3125 L 77,94.78125 z M 52.21875,94.875 L 57,98.1875 L 57.03125,100.6875 L 52.25,97.40625 L 52.21875,94.875 z M 43.65625,94.9375 L 46.71875,97.09375 L 46.75,99.5625 L 42.21875,96.46875 L 43.15625,95.21875 L 43.65625,94.9375 z M 65.90625,95.4375 L 67.96875,96.71875 L 67.96875,97.21875 L 63.1875,98.875 L 63.1875,96.34375 L 65.90625,95.4375 z M 49.71875,95.9375 L 49.71875,98.75 L 54.78125,102.25 L 54.78125,99.5 L 49.71875,95.9375 z M 49.875,96.1875 L 54.625,99.5 L 54.65625,102 L 49.875,98.71875 L 49.875,96.1875 z M 62.6875,96.4375 L 57.625,98.09375 L 57.625,100.90625 L 62.6875,99.1875 L 62.6875,96.4375 z M 62.53125,96.625 L 62.5625,99.09375 L 57.78125,100.75 L 57.78125,98.21875 L 62.53125,96.625 z M 47.09375,97.09375 L 47.09375,99.9375 L 52.15625,103.40625 L 52.15625,100.65625 L 47.09375,97.09375 z M 47.25,97.34375 L 52,100.6875 L 52.03125,103.1875 L 47.25,99.90625 L 47.25,97.34375 z M 68.40625,97.5 L 69.34375,99.6875 L 65.5,101.03125 L 65.46875,98.5 L 68.40625,97.5 z M 65.09375,98.65625 L 60.03125,100.3125 L 60.03125,103.125 L 65.09375,101.40625 L 65.09375,98.65625 z M 64.9375,98.8125 L 64.96875,101.28125 L 60.1875,102.9375 L 60.15625,100.40625 L 64.9375,98.8125 z M 73.25,99.5 L 73.28125,101.25 L 68.5,102.875 L 68.5,100.34375 L 70.125,99.8125 L 73.25,99.5 z M 73.65625,99.59375 L 74.75,99.90625 L 74.75,100.75 L 73.65625,101.125 L 73.65625,99.59375 z M 55.0625,99.78125 L 57.338388,101.37879 L 57.338388,103.8125 L 55.0625,102.3125 L 55.0625,99.78125 z M 68.09375,100.5 L 63.03125,102.15625 L 63.03125,104.96875 L 68.09375,103.25 L 68.09375,100.5 z M 59.53125,100.6875 L 59.5625,103.15625 L 57.5,103.8971 L 57.46875,101.375 L 59.53125,100.6875 z M 67.9375,100.6875 L 67.96875,103.15625 L 63.1875,104.78125 L 63.1875,102.25 L 67.9375,100.6875 z M 52.4375,100.96875 L 57.275888,104.32544 L 57.329235,106.82544 L 52.4375,103.5 L 52.4375,100.96875 z M 62.6875,102.375 L 57.625,104.03125 L 57.625,106.84375 L 62.6875,105.125 L 62.6875,102.375 z M 62.53125,102.5625 L 62.5625,105.03125 L 57.78125,106.65625 L 57.78125,104.125 L 62.53125,102.5625 z"
       id="path2601"
       sodipodi:nodetypes="ccccccccccccccccccccccccccccccccccccccccccccccccccccccccccccccccccccccccccccccccccccccccccccccccccccccccccccccccccccccccccccccccccccccccccccccccccccccccccccccccccccccccccccccccccccccccccccccccccccccccccccccccccccccccccccccccccccccccccccccccccccccccccccccccccccccccccccccccccccccccccccccccccccccccccccccccccccccccccccccccccccccccccccccccccccccccccccccccccccccccccccccccccccccccccccccccccccccccccccccccccccccccccccccccccccccccccccccccccccccccccccccccccccccccccccccccccccccccccccccccccccccccccccccccccccccccccccccccccccccccscccccccccccccccccccccccccccccccccccccccccccccccccccccccccccccccccccccccccccccccccccccccccccccccccccccccccccccccccccccccccccccccccccccccccccccccccccccccccccccccccccccccccccccccccccccccccccccccccccccccccccccccccccccccccccccccccccccccccccccccccccccccccccccccccccccccccccccccccccccccccccccccccccccccccccccccccccccccccccccccccccccccccccccccccccccccccccccccccccccccccccccccccccccccccccccccccccccccccccccccccccccc" />
  </g>
</svg>
