<?xml version="1.0" encoding="UTF-8" standalone="no"?>
<!-- Created with Inkscape (http://www.inkscape.org/) -->
<svg
   xmlns:dc="http://purl.org/dc/elements/1.1/"
   xmlns:cc="http://creativecommons.org/ns#"
   xmlns:rdf="http://www.w3.org/1999/02/22-rdf-syntax-ns#"
   xmlns:svg="http://www.w3.org/2000/svg"
   xmlns="http://www.w3.org/2000/svg"
   xmlns:xlink="http://www.w3.org/1999/xlink"
   xmlns:sodipodi="http://sodipodi.sourceforge.net/DTD/sodipodi-0.dtd"
   xmlns:inkscape="http://www.inkscape.org/namespaces/inkscape"
   width="128"
   height="128"
   id="svg2"
   sodipodi:version="0.32"
   inkscape:version="0.45+devel"
   version="1.0"
   sodipodi:docname="tent.svg"
   inkscape:output_extension="org.inkscape.output.svg.inkscape">
  <defs
     id="defs4">
    <linearGradient
       id="linearGradient3203">
      <stop
         style="stop-color:#e3cf6f;stop-opacity:1;"
         offset="0"
         id="stop3205" />
      <stop
         style="stop-color:#faeca9;stop-opacity:1;"
         offset="1"
         id="stop3207" />
    </linearGradient>
    <linearGradient
       id="linearGradient3167">
      <stop
         style="stop-color:#7d9cb7;stop-opacity:1;"
         offset="0"
         id="stop3169" />
      <stop
         style="stop-color:#99c8f0;stop-opacity:1;"
         offset="1"
         id="stop3171" />
    </linearGradient>
    <linearGradient
       id="linearGradient2320">
      <stop
         style="stop-color:#6a3c1d;stop-opacity:1;"
         offset="0"
         id="stop2322" />
      <stop
         style="stop-color:#8f5127;stop-opacity:1;"
         offset="1"
         id="stop2324" />
    </linearGradient>
    <linearGradient
       inkscape:collect="always"
       xlink:href="#linearGradient2320"
       id="linearGradient2474"
       x1="9.5135136"
       y1="82.594589"
       x2="11.58919"
       y2="87.005402"
       gradientUnits="userSpaceOnUse" />
    <linearGradient
       inkscape:collect="always"
       xlink:href="#linearGradient2320"
       id="linearGradient2478"
       x1="46.486488"
       y1="112.3027"
       x2="47.221622"
       y2="116.28108"
       gradientUnits="userSpaceOnUse" />
    <linearGradient
       inkscape:collect="always"
       xlink:href="#linearGradient2320"
       id="linearGradient2482"
       x1="77.751351"
       y1="76.41081"
       x2="79.394592"
       y2="76.410812"
       gradientUnits="userSpaceOnUse" />
    <linearGradient
       inkscape:collect="always"
       xlink:href="#linearGradient2320"
       id="linearGradient2486"
       x1="120.3027"
       y1="82.37838"
       x2="122.29189"
       y2="84.800003"
       gradientUnits="userSpaceOnUse" />
    <linearGradient
       id="linearGradient3108">
      <stop
         id="stop3110"
         offset="0"
         style="stop-color:#c223c2;stop-opacity:1;" />
      <stop
         id="stop3112"
         offset="1"
         style="stop-color:#ff00dc;stop-opacity:1;" />
    </linearGradient>
    <linearGradient
       inkscape:collect="always"
       xlink:href="#linearGradient3108"
       id="linearGradient2586"
       x1="75.660431"
       y1="17.381983"
       x2="78.1353"
       y2="13.316118"
       gradientUnits="userSpaceOnUse" />
    <linearGradient
       inkscape:collect="always"
       xlink:href="#linearGradient3167"
       id="linearGradient3173"
       x1="62.097298"
       y1="58.637836"
       x2="69.881081"
       y2="26.464865"
       gradientUnits="userSpaceOnUse" />
    <linearGradient
       inkscape:collect="always"
       xlink:href="#linearGradient3167"
       id="linearGradient3177"
       x1="50.381355"
       y1="34.573517"
       x2="56.656929"
       y2="52.251186"
       gradientUnits="userSpaceOnUse" />
    <linearGradient
       inkscape:collect="always"
       xlink:href="#linearGradient3167"
       id="linearGradient3183"
       x1="35.88567"
       y1="63.211338"
       x2="53.474953"
       y2="104.40031"
       gradientUnits="userSpaceOnUse" />
    <linearGradient
       inkscape:collect="always"
       xlink:href="#linearGradient3167"
       id="linearGradient3187"
       x1="59.838913"
       y1="103.33965"
       x2="77.251416"
       y2="82.391612"
       gradientUnits="userSpaceOnUse" />
    <linearGradient
       inkscape:collect="always"
       xlink:href="#linearGradient3167"
       id="linearGradient3191"
       x1="76"
       y1="75.5"
       x2="66.6875"
       y2="74.0625"
       gradientUnits="userSpaceOnUse" />
    <linearGradient
       inkscape:collect="always"
       xlink:href="#linearGradient3167"
       id="linearGradient3195"
       x1="89.375"
       y1="66.65625"
       x2="84.75"
       y2="69.15625"
       gradientUnits="userSpaceOnUse" />
    <linearGradient
       inkscape:collect="always"
       xlink:href="#linearGradient3167"
       id="linearGradient3199"
       x1="91.0625"
       y1="88.875"
       x2="104"
       y2="61.0625"
       gradientUnits="userSpaceOnUse" />
    <linearGradient
       inkscape:collect="always"
       xlink:href="#linearGradient3203"
       id="linearGradient3209"
       x1="42.291893"
       y1="55.091892"
       x2="43.329731"
       y2="53.62162"
       gradientUnits="userSpaceOnUse" />
    <linearGradient
       inkscape:collect="always"
       xlink:href="#linearGradient3203"
       id="linearGradient3213"
       x1="75.589188"
       y1="58.464867"
       x2="74.291893"
       y2="55.005405"
       gradientUnits="userSpaceOnUse" />
    <linearGradient
       id="linearGradient3415">
      <stop
         id="stop3417"
         offset="0"
         style="stop-color:#1a1a1a;stop-opacity:1;" />
      <stop
         id="stop3419"
         offset="1"
         style="stop-color:#2b2b2b;stop-opacity:1;" />
    </linearGradient>
    <linearGradient
       inkscape:collect="always"
       xlink:href="#linearGradient3415"
       id="linearGradient3409"
       x1="79.971832"
       y1="78.420883"
       x2="83.904915"
       y2="90.52961"
       gradientUnits="userSpaceOnUse" />
    <filter
       inkscape:collect="always"
       id="filter3460">
      <feGaussianBlur
         inkscape:collect="always"
         stdDeviation="2.041311"
         id="feGaussianBlur3462" />
    </filter>
  </defs>
  <sodipodi:namedview
     id="base"
     pagecolor="#ffffff"
     bordercolor="#666666"
     borderopacity="1.0"
     gridtolerance="10000"
     guidetolerance="10"
     objecttolerance="10"
     inkscape:pageopacity="0.0"
     inkscape:pageshadow="2"
     inkscape:zoom="1"
     inkscape:cx="100.5"
     inkscape:cy="64"
     inkscape:document-units="px"
     inkscape:current-layer="layer2"
     showgrid="false"
     width="744.09px"
     inkscape:window-width="1248"
     inkscape:window-height="975"
     inkscape:window-x="426"
     inkscape:window-y="24"
     showguides="true"
     inkscape:guide-bbox="true" />
  <metadata
     id="metadata7">
    <rdf:RDF>
      <cc:Work
         rdf:about="">
        <dc:format>image/svg+xml</dc:format>
        <dc:type
           rdf:resource="http://purl.org/dc/dcmitype/StillImage" />
      </cc:Work>
    </rdf:RDF>
  </metadata>
  <g
     inkscape:groupmode="layer"
     id="layer2"
     inkscape:label="colors">
    <path
       style="fill:#000000;fill-opacity:0.627451;fill-rule:evenodd;stroke:none;stroke-width:1px;stroke-linecap:butt;stroke-linejoin:miter;stroke-opacity:1;filter:url(#filter3460)"
       d="M 45.622419,28.693126 C 47.733069,35.559255 57.988293,31.305534 63.335864,33.756421 C 69.16416,36.361529 75.857413,35.303524 80.524817,33.124863 C 75.486612,33.664065 69.02632,34.314729 64.760536,30.382514 C 59.041451,29.162872 51.936413,30.737227 45.622419,28.693126 z M 47.828005,34.112888 C 45.925002,35.753557 48.450161,42.093431 47.089608,36.618821 C 43.355274,35.221343 42.471251,41.763747 38.968949,42.885333 C 33.904911,47.066853 27.140206,49.859867 19.942963,51.721299 C 16.358146,55.969029 20.806781,61.837451 19.335973,66.657464 C 19.319595,72.123093 19.732061,77.80358 17.474431,82.788802 C 17.385992,88.594268 26.321126,87.376682 30.552112,90.732177 C 39.224343,94.335635 45.973423,99.700026 52.650382,105.141 C 59.582158,107.75917 61.622293,98.66191 68.389879,99.057503 C 78.393395,84.315662 66.393327,55.286061 75.269652,94.31954 C 84.263261,70.075812 56.876607,62.4837 92.383254,90.078319 C 95.687532,88.285501 105.46447,88.356859 103.62928,84.225716 C 99.71295,78.793611 94.328323,73.914069 91.115034,68.230246 C 82.79087,49.527709 76.258427,52.589343 59.350496,43.093992 C 55.056045,40.475488 51.268053,37.378071 47.828005,34.112888 z M 47.948786,47.268104 C 48.902174,67.253037 48.896744,67.25349 47.948786,47.268104 z M 71.246255,95.628488 C 71.68388,96.503966 71.805411,96.747084 71.246255,95.628488 z"
       id="path3215"
       sodipodi:nodetypes="cccccccccccccccccccccccc" />
    <path
       style="fill:url(#linearGradient3409);fill-rule:evenodd;stroke:none;stroke-width:1px;stroke-linecap:butt;stroke-linejoin:miter;stroke-opacity:1"
       d="M 74.609321,99.868617 C 75.423922,92.042097 81.71418,88.622814 95.891324,91.551512 L 78.767873,55.469955 C 78.767873,55.469955 69.716906,99.012444 70.206148,99.012444 C 70.695389,99.012444 74.609321,100.11324 74.609321,99.868617 z"
       id="path3407"
       sodipodi:nodetypes="cccsc" />
    <path
       style="fill:url(#linearGradient2474);fill-rule:evenodd;stroke:none;stroke-width:1px;stroke-linecap:butt;stroke-linejoin:miter;stroke-opacity:1;fill-opacity:1"
       d="M 8.5621622,81.037838 L 10.291892,86.659459 L 10.897297,88.908108 L 11.502703,88.821622 L 12.454054,88.12973 L 11.156757,81.297297 L 9.8594595,80.951351 L 8.5621622,81.037838 z"
       id="path2472" />
    <path
       style="fill:url(#linearGradient2478);fill-rule:evenodd;stroke:none;stroke-width:1px;stroke-linecap:butt;stroke-linejoin:miter;stroke-opacity:1"
       d="M 44.627027,111.74054 L 46.789189,110.87568 L 47.740541,110.78919 L 48.345946,117.27568 L 47.394595,117.79459 L 45.837838,114.94054 L 44.627027,111.74054 z"
       id="path2476" />
    <path
       style="fill:url(#linearGradient2482);fill-rule:evenodd;stroke:none;stroke-width:1px;stroke-linecap:butt;stroke-linejoin:miter;stroke-opacity:1"
       d="M 77.837838,56.821622 L 77.751351,60.713513 L 77.924324,75.243243 L 77.837838,95.913513 L 78.702703,96.951351 L 80,96.432432 L 79.740541,70.832432 L 80,60.540541 L 78.443243,55.87027 L 77.837838,56.821622 z"
       id="path2480" />
    <path
       style="fill:url(#linearGradient2486);fill-rule:evenodd;stroke:none;stroke-width:1px;stroke-linecap:butt;stroke-linejoin:miter;stroke-opacity:1"
       d="M 120.04324,87.956757 L 120.21622,86.313513 L 120.38919,84.583783 L 119.78378,81.297297 L 120.64865,80.691892 L 122.29189,81.297297 L 121.85946,83.978378 L 121.34054,87.956757 L 120.56216,88.043243 L 120.04324,87.956757 z"
       id="path2484"
       sodipodi:nodetypes="cccccccccc" />
    <path
       style="fill:url(#linearGradient2586);fill-rule:evenodd;stroke:none;stroke-width:1px;stroke-linecap:butt;stroke-linejoin:miter;stroke-opacity:1"
       d="M 63.551222,11.062216 L 66.998368,12.122876 L 75.483649,13.095148 L 80.610173,13.095148 L 83.350212,12.741594 L 84.234095,13.713866 L 83.526989,16.453905 L 83.703765,16.984235 L 85.206367,17.514565 L 90.244503,17.868119 L 98.729785,17.691342 L 93.956814,19.017167 L 86.797358,20.254604 L 84.499261,20.519769 L 81.670833,19.901051 L 81.228892,17.868119 C 81.004879,16.901932 80.35477,16.787936 79.72629,16.630682 L 76.455921,16.984235 L 72.655222,17.161012 L 68.50097,16.18874 L 63.904775,15.12808 L 63.551222,11.062216 z"
       id="path2584"
       sodipodi:nodetypes="cccccccccccccccccccccc" />
    <path
       style="fill:url(#linearGradient3173);fill-rule:evenodd;stroke:none;stroke-width:1px;stroke-linecap:butt;stroke-linejoin:miter;stroke-opacity:1;fill-opacity:1"
       d="M 57.1875,62.0625 L 61.75,60.8125 L 76.75,54.75 L 88.1875,49.1875 L 95.9375,45.375 L 94.9375,44.5 L 88.875,40.5625 L 80.25,35.0625 L 71.1875,27.5625 L 64.5,18.0625 L 63.5625,18.375 L 63.4375,21.0625 L 61.9375,31.9375 L 60.3125,45.125 L 58.25,57.25 L 57.1875,62.0625 z"
       id="path2588" />
    <path
       style="fill:url(#linearGradient3177);fill-rule:evenodd;stroke:none;stroke-width:1px;stroke-linecap:butt;stroke-linejoin:miter;stroke-opacity:1"
       d="M 30.847533,40.053594 L 36.946329,38.550992 L 46.492271,34.308351 L 52.679455,29.888934 L 56.833708,26.088235 L 63.462834,18.663614 L 63.374445,20.254604 L 62.225397,30.507652 L 60.280853,43.677516 L 57.364038,61.973904 L 55.507882,61.001632 L 50.027805,57.466098 L 46.227106,55.25639 L 43.840621,53.577011 L 38.272155,49.422759 L 32.703689,43.235574 L 31.201087,41.732973 L 30.847533,40.053594 z"
       id="path3175" />
    <path
       style="fill:url(#linearGradient3183);fill-rule:evenodd;stroke:none;stroke-width:1px;stroke-linecap:butt;stroke-linejoin:miter;stroke-opacity:1"
       d="M 21.655145,83.452273 L 22.804194,81.154176 L 26.162951,71.696622 L 29.875262,51.897633 L 30.582368,41.644584 L 31.377863,45.09173 L 31.996582,47.301438 L 33.14563,48.980817 L 34.913397,49.864701 L 37.653436,49.599535 L 38.714096,53.223458 L 40.305087,55.433166 L 42.072854,56.758992 L 43.840621,56.935768 L 45.431611,57.289322 L 47.729708,57.112545 L 47.994873,59.145477 L 48.878756,61.090021 L 50.29297,62.062293 L 53.563339,62.415846 L 57.275649,62.239069 L 57.629203,63.653283 L 56.745319,73.817943 L 56.214989,93.882098 L 55.596271,110.41072 L 50.734912,104.22353 L 43.487067,95.119535 L 38.095378,89.99301 L 33.057242,86.634253 L 26.162951,84.070991 L 21.655145,83.452273 z"
       id="path3181" />
    <path
       style="fill:url(#linearGradient3187);fill-rule:evenodd;stroke:none;stroke-width:1px;stroke-linecap:butt;stroke-linejoin:miter;stroke-opacity:1"
       d="M 55.596271,109.88039 L 56.568543,80.358681 L 56.745319,72.315341 L 57.982756,61.885516 C 64.840157,59.874619 70.942463,57.108628 77.251416,54.549283 L 76.544309,57.642875 L 73.450717,65.067496 L 68.854523,70.370797 L 64.788659,73.022448 L 64.965436,74.259885 L 67.793863,76.999923 L 70.268737,81.772894 L 71.771338,86.722642 L 72.920387,93.528544 L 73.664105,98.213127 L 74.246212,100.33445 L 70.799067,100.42284 L 65.407377,103.16287 L 59.750523,106.96357 L 56.126601,110.23394 L 55.596271,109.88039 z"
       id="path3185"
       sodipodi:nodetypes="ccccccccccccccccccccc" />
    <path
       style="fill:url(#linearGradient3191);fill-rule:evenodd;stroke:none;stroke-width:1px;stroke-linecap:butt;stroke-linejoin:miter;stroke-opacity:1;fill-opacity:1"
       d="M 64.9375,73.5 L 66.4375,75.4375 L 68.875,78.9375 L 69.9375,81.375 L 71.375,85.125 L 72,88.0625 L 72.75,93.25 L 73.1875,95.8125 L 73.6875,98.1875 L 73.9375,99.5 L 75.8125,89.875 L 76.875,81.25 L 77.5625,71.5625 L 77.9375,61.1875 L 77.6875,55.0625 L 76.8125,56.3125 L 75,62.1875 L 71.375,68.0625 L 67.0625,71.625 L 64.5625,73.125 L 64.9375,73.5 z"
       id="path3189" />
    <path
       style="fill:url(#linearGradient3195);fill-rule:evenodd;stroke:none;stroke-width:1px;stroke-linecap:butt;stroke-linejoin:miter;stroke-opacity:1"
       d="M 78.125,55.125 L 81.1875,63.6875 L 84,70.9375 L 86.25,76.125 L 87.8125,79.625 L 90.75,84.375 L 95.375,90.5625 L 96.4375,91.6875 L 95.9375,88.3125 L 92.125,76.625 L 91.25,73.0625 L 90.875,70.375 L 90.5625,67.6875 L 91.1875,63.3125 L 91.3125,62.5625 L 89.4375,62.375 L 85.375,61.0625 L 80.5625,57.125 L 78.125,55.125 z"
       id="path3193" />
    <path
       style="fill:url(#linearGradient3199);fill-rule:evenodd;stroke:none;stroke-width:1px;stroke-linecap:butt;stroke-linejoin:miter;stroke-opacity:1;fill-opacity:1"
       d="M 97,91.5625 L 98.6875,90.1875 L 102.8125,88.375 L 110.0625,86.8125 L 105.0625,76.625 L 100.3125,64.8125 L 97.375,55.125 L 96.25,46.5625 L 93.75,45.875 L 87.875,49.0625 L 81.9375,52.125 L 77.6875,54.4375 L 78,55.375 L 79.5625,56.4375 L 82.3125,59.0625 L 85.125,60.875 L 87,61.875 L 89.4375,62.5 L 91.4375,62.625 L 90.9375,64.1875 L 90.625,67.0625 L 90.875,70.875 L 91.625,74.75 L 92.6875,78.625 L 95.75,87.75 L 96.4375,92.0625 L 97,91.5625 z"
       id="path3197" />
    <path
       style="fill:url(#linearGradient3209);fill-rule:evenodd;stroke:none;stroke-width:1px;stroke-linecap:butt;stroke-linejoin:miter;stroke-opacity:1;fill-opacity:1"
       d="M 30.8125,41.6875 L 31.25,46.3125 L 32.5625,48.75 L 34.875,49.75 L 37.625,49.625 L 38.5625,52.625 L 40.125,55.625 L 42.4375,56.9375 L 44.5625,57.3125 L 47.8125,57.0625 L 47.8125,58.5625 L 48.6875,60.8125 L 50.6875,62.3125 L 53.25,62.4375 L 57.125,62.3125 L 50.8125,58.125 L 44.25,54.0625 L 38.5625,49.6875 L 32,42.3125 L 30.8125,41.6875 z"
       id="path3201" />
    <path
       style="fill:url(#linearGradient3213);fill-rule:evenodd;stroke:none;stroke-width:1px;stroke-linecap:butt;stroke-linejoin:miter;stroke-opacity:1"
       d="M 58.291892,62.010811 L 60.713514,62.789189 L 65.902703,63.308108 L 69.016216,62.097297 L 70.745946,61.405405 L 72.735135,60.108108 L 76.886487,54.832432 L 78.52973,54.659459 L 81.643243,55.178378 L 84.583784,54.918919 L 86.65946,54.313513 L 89.427027,52.67027 L 93.405405,48.432432 L 95.308108,45.491892 L 88.821622,48.605405 L 80.691892,52.92973 L 77.145946,54.313513 L 73.686487,56.043243 L 62.616216,60.540541 L 59.156757,61.664865 L 58.291892,62.010811 z"
       id="path3211" />
  </g>
  <g
     inkscape:label="outline"
     inkscape:groupmode="layer"
     id="layer1">
    <path
       style="fill:#000000;fill-opacity:1;fill-rule:evenodd;stroke:none;stroke-width:1px;stroke-linecap:butt;stroke-linejoin:miter;stroke-opacity:1"
       d="M 63.25,9.9375 C 63.424106,12.694497 63.711464,15.596093 63.1875,18.28125 C 53.135003,31.012911 43.07725,35.800009 30.490541,40.09375 C 24.243173,54.23874 19.446338,69.992466 11.84375,84 L 11.28125,81.03125 C 10.064657,80.322626 8.6745963,80.766908 8.40625,81.375 L 10.65625,88.96875 C 11.302083,88.794128 11.947917,89.390866 12.59375,88.4375 L 12.1875,85.78125 C 13.933414,86.123526 19.075448,84.830598 21.829223,83.610811 C 35.073154,84.863404 42.562355,94.453577 50.15625,104.4375 C 49.595456,107.26701 49.002321,110.09304 48.34375,112.90625 L 48.1875,110.6875 C 46.804196,110.47101 45.592628,111.28493 44.3125,111.6875 L 47,118.0625 C 47.520833,118.10447 48.041667,118.3023 48.5625,117.6875 L 48.53125,115.78125 C 50.96875,114.125 51.367234,111.68451 55.84375,110.8125 C 62.016702,107.21475 66.506886,99.725704 74.6875,100.8125 C 76.148373,91.956293 77.063141,83.032419 77.625,74.09375 L 77.6875,96.28125 C 78.09869,97.156385 78.623104,97.259464 80.0625,96.46875 L 80.03125,61.5625 C 84.652354,74.055741 89.672027,85.527654 96.4375,92.5625 C 100.24596,89.025644 103.66902,88.084803 110.21875,87.127534 L 119.71875,86.25 L 120,86.34375 C 119.95538,86.611336 119.82681,87.486404 119.78851,87.761655 C 119.8807,88.881056 120.95452,88.037191 121.5625,88.125 L 122.46875,81.15625 C 121.40944,80.468348 120.4425,80.517537 119.49747,81.3125 L 119.78125,82 C 120.06455,82.768132 120.19987,83.456417 120.21875,84.09375 C 120.18844,84.091351 120.15553,84.095801 120.125,84.09375 C 117.89214,83.943711 113.32714,78.18612 107.5625,68.90625 C 103.24346,61.953489 99.365073,53.936389 96.59375,47.21875 C 96.534333,46.580163 96.477528,45.926561 96.4375,45.28125 C 84.290474,37.052881 71.596143,30.421716 64.53125,17.59375 L 64.28125,15.34375 C 68.625362,16.256821 71.754349,18.512997 78.21875,17.09375 C 82.354842,15.82085 80.559776,19.033586 81.71875,20.3125 C 85.390558,22.044466 93.409824,18.872906 99.15625,17.9375 L 99.0625,17.5625 C 93.979167,17.052083 83.181465,18.541696 83.8125,16.03125 C 84.245789,14.327527 85.180472,12.322967 82.21875,12.65625 C 76.089216,13.163892 69.973284,12.737144 63.84375,11.03125 L 63.71875,9.96875 L 63.25,9.9375 z M 63.875,11.5 C 69.401871,13.205411 75.233178,13.896511 81.4375,13.34375 C 85.036257,12.527539 83.868374,14.249799 83.15625,16.15625 C 82.289823,19.424713 92.688349,17.539328 97.5625,17.9375 C 92.51374,18.579759 87.455013,20.681129 82.40625,19.875 C 81.281179,18.614654 81.550792,15.678374 78.3125,16.53125 C 73.108322,17.806234 68.977026,15.847896 64.25,14.96875 L 63.875,11.5 z M 64.34375,18.5 C 71.134511,32.541946 83.882501,36.941117 94.9375,44.90625 C 82.971251,51.830507 70.874087,57.561969 57.875,61.71875 C 60.52569,45.975077 62.039647,32.671689 63.8125,18.65625 C 64.017032,18.703115 64.206987,18.656442 64.34375,18.5 z M 63.1875,19 C 61.668338,33.67802 60.170746,45.615286 56.875,61.71875 C 52.975368,59.023174 47.273003,56.133162 42.40625,52.5 C 37.57138,48.89064 33.611312,44.20848 31.09375,40.59375 C 43.829386,37.472707 53.480927,32.206252 63.1875,19 z M 30.3125,40.96875 C 30.341549,41.010732 30.376829,41.05165 30.40625,41.09375 C 28.514156,54.952688 27.605253,68.70434 21.65625,82.84375 C 19.375812,84.349781 16.434275,85.832726 12.125,85.53125 L 11.9375,84.46875 L 11.96875,84.4375 C 23.109371,63.517578 24.363622,55.216382 30.3125,40.96875 z M 31.28125,42.3125 C 33.920467,45.771021 37.710427,49.516903 42.125,52.8125 L 56.34375,62.15625 C 48.614976,62.901629 47.83016,59.894813 47.875,56.9375 C 38.829653,57.77116 39.3486,52.978765 37.6875,49.46875 C 32.248466,50.352488 31.609082,46.61898 31.28125,42.3125 z M 30.75,42.78125 C 30.841066,47.391102 32.225388,51.425521 37.4375,49.65625 C 37.975148,55.972148 41.485871,58.215195 47.5625,57.25 C 48.039546,64.291724 51.738852,62.86317 56.805236,62.351014 C 55.153626,75.611969 52.858258,89.494976 50.4375,102.875 C 43.44151,93.374409 34.787728,84.550643 22,83.25 C 28.744601,69.370567 29.592011,56.3097 30.75,42.78125 z M 95.4375,46.0625 L 91,61.8125 C 86.60632,62.944666 82.660098,58.520533 78.75,55.375 C 78.689444,55.218592 78.623869,55.062371 78.5625,54.90625 C 86.724783,56.6352 91.168417,52.231506 95.4375,46.0625 z M 94.46875,46.3125 C 90.580877,50.26671 89.438685,56.633219 78.34375,54.28125 C 83.555529,51.601494 89.110587,48.956889 94.46875,46.3125 z M 95.71875,46.65625 C 95.782175,46.791396 95.842803,46.92726 95.90625,47.0625 C 97.537299,61.316367 103.43523,73.769742 109.375,86.5 C 104.89568,87.445778 100.69146,88.453929 96.84375,91.0625 C 94.822189,81.677446 88.773778,72.500517 91.5,62.90625 C 91.561302,62.690524 91.468241,62.391689 91.4375,62.125 C 92.105659,56.860332 94.287219,51.811865 95.71875,46.65625 z M 96.78125,48.90625 C 102.83639,61.800633 109.20253,74.958713 119.96875,85.21875 C 117.06478,86.260133 114.13753,87.082905 110.40625,86.4375 C 104.09022,74.335664 98.391481,62.323554 96.78125,48.90625 z M 76.34375,55.03125 C 74.676372,57.515367 73.422432,59.542587 70.75,61.28125 C 68.083466,62.743595 62.672758,63.738033 58.65625,62.0625 C 64.682544,60.025041 70.555585,57.639386 76.34375,55.03125 z M 76.6875,55.40625 C 74.87187,63.040514 72.892738,67.912052 64.3125,72.84375 C 62.308079,69.633635 59.820584,66.543581 58.0625,63.1875 C 58.110126,62.863102 58.168058,62.54341 58.21875,62.21875 C 58.334382,62.180048 58.446979,62.132724 58.5625,62.09375 C 62.727424,63.909303 67.046892,63.991476 69.9375,62.40625 C 72.556093,60.970198 74.635569,58.116692 76.6875,55.40625 z M 79.21875,56.5 C 82.568452,59.768441 85.836931,62.869819 90.90625,62.9375 C 89.264597,73.07887 94.008684,81.565921 96.09375,90.625 C 86.138089,80.905786 83.658813,68.36357 79.21875,56.5 z M 77.4375,56.75 C 77.936386,71.002117 76.49315,85.256355 73.9375,98.96875 C 72.278337,89.45792 72.314168,80.95485 65.1875,73.5 C 72.317136,70.159668 75.098287,63.667474 77.4375,56.75 z M 78.3125,56.84375 C 78.752391,58.073471 79.210731,59.284605 79.65625,60.5 L 79.4375,96.1875 C 78.904813,96.846653 78.854339,96.717208 78.21875,96.09375 L 78.0625,65.8125 C 78.179901,62.825183 78.258744,59.834268 78.3125,56.84375 z M 57.21875,62.5625 C 56.118436,78.299848 55.913475,94.013872 55.25,109.78125 C 53.787019,107.60557 52.293335,105.38302 50.6875,103.1875 C 53.24136,89.673846 54.929305,76.138653 57.0625,62.625 C 57.115783,62.607651 57.165491,62.579908 57.21875,62.5625 z M 58.03125,63.5625 C 59.826456,66.928991 62.159887,69.924773 64.21875,73.15625 C 63.880974,73.637465 64.071962,74.184776 64.65625,74.78125 C 72.59875,81.028743 71.651193,90.883 73.84375,99.625 C 67.009087,100.63452 61.453906,105.41615 55.9375,109.59375 C 56.948178,94.391432 55.800723,79.125679 58.03125,63.5625 z M 11.146453,81.733277 L 11.3125,84.53125 C 10.908229,84.710396 10.430065,84.670344 10.09375,84.875 L 9.014527,81.80777 C 9.6627665,81.616533 10.178033,81.070699 11.146453,81.733277 z M 120.06757,81.791047 C 120.51548,80.560523 121.69854,81.311116 122.14645,81.519595 L 121.5,84.4375 C 121.18893,84.228249 120.80872,84.169387 120.40625,84.125 L 120.06757,81.791047 z M 11.375,84.875 L 11.5,85.46875 C 11.251104,85.44216 11.007918,85.413533 10.75,85.375 L 11.375,84.875 z M 121.40625,85.03125 L 121.15625,86.53125 L 120.40625,85.46875 L 121.40625,85.03125 z M 10.25,85.46875 L 11.1875,86 L 11.5625,85.90625 L 11.949493,88.040709 C 11.689077,88.849158 11.039471,88.361291 10.779054,88.44223 L 10.25,85.46875 z M 120.28125,86.4375 L 121.125,86.71875 L 120.96875,87.78125 C 120.44626,88.054564 120.28356,87.788196 120.21875,87.375 L 120.28125,86.4375 z M 50.375,104.75 C 51.841827,106.72271 53.319652,108.67616 54.84375,110.53125 C 51.44382,111.88168 50.729883,113.69414 48.5625,115.25 L 48.4375,114.09375 C 49.159592,110.98114 49.77037,107.86261 50.375,104.75 z M 47.555236,111.27432 L 47.78125,113.90625 L 46.09375,114.6875 L 44.96875,112.0625 C 45.239921,111.74236 46.721903,110.64117 47.555236,111.27432 z M 47.46875,114.71875 L 46.78125,116.25 L 46.125,114.75 L 47.46875,114.71875 z M 47.925507,115.04578 L 48,115.53125 L 47.089358,116.04544 L 47.925507,115.04578 z M 48.09375,116.03125 L 48.21875,116.96875 L 47.40625,117.65625 L 46.8125,116.3125 L 48.09375,116.03125 z"
       id="path2308"
       sodipodi:nodetypes="cccccccccccccccccccccccccccccccccssccccccccccccccccccccccccccccsccccccccccccccccccccccccccccccccccscccccccccccccccscccccccccccccccccccccccccccccccccccccccccccccccccccccccccccccccccccccccccccccc" />
  </g>
</svg>
