<?xml version="1.0" encoding="UTF-8" standalone="no"?>
<!-- Created with Inkscape (http://www.inkscape.org/) -->
<svg
   xmlns:dc="http://purl.org/dc/elements/1.1/"
   xmlns:cc="http://creativecommons.org/ns#"
   xmlns:rdf="http://www.w3.org/1999/02/22-rdf-syntax-ns#"
   xmlns:svg="http://www.w3.org/2000/svg"
   xmlns="http://www.w3.org/2000/svg"
   xmlns:xlink="http://www.w3.org/1999/xlink"
   xmlns:sodipodi="http://sodipodi.sourceforge.net/DTD/sodipodi-0.dtd"
   xmlns:inkscape="http://www.inkscape.org/namespaces/inkscape"
   width="128"
   height="128"
   id="svg2"
   sodipodi:version="0.32"
   inkscape:version="0.45+devel"
   version="1.0"
   sodipodi:docname="monastery.svg"
   inkscape:output_extension="org.inkscape.output.svg.inkscape">
  <defs
     id="defs4">
    <linearGradient
       id="linearGradient3405">
      <stop
         style="stop-color:#4f3e2a;stop-opacity:1;"
         offset="0"
         id="stop3407" />
      <stop
         style="stop-color:#72593c;stop-opacity:1;"
         offset="1"
         id="stop3409" />
    </linearGradient>
    <linearGradient
       id="linearGradient2338">
      <stop
         style="stop-color:#b1b1b1;stop-opacity:1;"
         offset="0"
         id="stop2340" />
      <stop
         style="stop-color:#e4e4e4;stop-opacity:1;"
         offset="1"
         id="stop2342" />
    </linearGradient>
    <linearGradient
       inkscape:collect="always"
       xlink:href="#linearGradient2338"
       id="linearGradient2685"
       x1="33.675961"
       y1="47.301437"
       x2="52.679455"
       y2="27.148895"
       gradientUnits="userSpaceOnUse"
       gradientTransform="translate(1.5567568,-0.5189189)" />
    <linearGradient
       inkscape:collect="always"
       xlink:href="#linearGradient2338"
       id="linearGradient2689"
       x1="54.889164"
       y1="55.521553"
       x2="55.507885"
       y2="58.43837"
       gradientUnits="userSpaceOnUse"
       gradientTransform="translate(1.5567568,-0.5189189)" />
    <linearGradient
       inkscape:collect="always"
       xlink:href="#linearGradient2338"
       id="linearGradient2693"
       x1="38.183765"
       y1="58.791924"
       x2="56.303379"
       y2="65.155884"
       gradientUnits="userSpaceOnUse"
       gradientTransform="translate(1.5567568,-0.5189189)" />
    <linearGradient
       inkscape:collect="always"
       xlink:href="#linearGradient2338"
       id="linearGradient2697"
       x1="47.110989"
       y1="79.121246"
       x2="46.757435"
       y2="80.800621"
       gradientUnits="userSpaceOnUse"
       gradientTransform="translate(1.5567568,-0.5189189)" />
    <linearGradient
       inkscape:collect="always"
       xlink:href="#linearGradient2338"
       id="linearGradient2701"
       x1="31.625"
       y1="64.5625"
       x2="25.59375"
       y2="68.28125"
       gradientUnits="userSpaceOnUse"
       gradientTransform="translate(1.5567568,-0.5189189)" />
    <linearGradient
       inkscape:collect="always"
       xlink:href="#linearGradient2338"
       id="linearGradient2705"
       x1="38.78125"
       y1="65.53125"
       x2="31.5"
       y2="69"
       gradientUnits="userSpaceOnUse"
       gradientTransform="translate(1.5567568,-0.5189189)" />
    <linearGradient
       inkscape:collect="always"
       xlink:href="#linearGradient2338"
       id="linearGradient2709"
       x1="45.59375"
       y1="66.6875"
       x2="41.1875"
       y2="66.53125"
       gradientUnits="userSpaceOnUse"
       gradientTransform="translate(1.5567568,-0.5189189)" />
    <linearGradient
       inkscape:collect="always"
       xlink:href="#linearGradient2338"
       id="linearGradient2713"
       x1="52.8125"
       y1="69.90625"
       x2="48.5"
       y2="69.84375"
       gradientUnits="userSpaceOnUse"
       gradientTransform="translate(1.5567568,-0.5189189)" />
    <linearGradient
       inkscape:collect="always"
       xlink:href="#linearGradient2338"
       id="linearGradient2717"
       x1="63.625"
       y1="69.5625"
       x2="54.53125"
       y2="75.375"
       gradientUnits="userSpaceOnUse"
       gradientTransform="translate(1.5567568,-0.5189189)" />
    <linearGradient
       inkscape:collect="always"
       xlink:href="#linearGradient2338"
       id="linearGradient3300"
       x1="75.03125"
       y1="65.28125"
       x2="69.59375"
       y2="65.40625"
       gradientUnits="userSpaceOnUse"
       gradientTransform="translate(1.5567568,-0.5189189)" />
    <linearGradient
       inkscape:collect="always"
       xlink:href="#linearGradient2338"
       id="linearGradient3304"
       x1="60.15625"
       y1="78.03125"
       x2="65.75"
       y2="75.25"
       gradientUnits="userSpaceOnUse"
       gradientTransform="translate(1.5567568,-0.5189189)" />
    <linearGradient
       inkscape:collect="always"
       xlink:href="#linearGradient2338"
       id="linearGradient3308"
       x1="62.15625"
       y1="78.4375"
       x2="62.3125"
       y2="79.21875"
       gradientUnits="userSpaceOnUse"
       gradientTransform="translate(1.5567568,-0.5189189)" />
    <linearGradient
       inkscape:collect="always"
       xlink:href="#linearGradient2338"
       id="linearGradient3312"
       x1="50.59375"
       y1="84.25"
       x2="60.65625"
       y2="75.875"
       gradientUnits="userSpaceOnUse"
       gradientTransform="translate(1.5567568,-0.5189189)" />
    <linearGradient
       inkscape:collect="always"
       xlink:href="#linearGradient2338"
       id="linearGradient3316"
       x1="60.75"
       y1="84.25"
       x2="60.84375"
       y2="84.78125"
       gradientUnits="userSpaceOnUse"
       gradientTransform="translate(1.5567568,-0.5189189)" />
    <linearGradient
       inkscape:collect="always"
       xlink:href="#linearGradient2338"
       id="linearGradient3320"
       x1="63.40625"
       y1="81.9375"
       x2="63.46875"
       y2="82.5625"
       gradientUnits="userSpaceOnUse"
       gradientTransform="translate(1.5567568,-0.5189189)" />
    <linearGradient
       inkscape:collect="always"
       xlink:href="#linearGradient2338"
       id="linearGradient3324"
       x1="53.15625"
       y1="82.375"
       x2="68.9375"
       y2="70.65625"
       gradientUnits="userSpaceOnUse"
       gradientTransform="translate(1.5567568,-0.5189189)" />
    <linearGradient
       inkscape:collect="always"
       xlink:href="#linearGradient2338"
       id="linearGradient3328"
       x1="65.4375"
       y1="79.5"
       x2="65.625"
       y2="80.34375"
       gradientUnits="userSpaceOnUse"
       gradientTransform="translate(1.5567568,-0.5189189)" />
    <linearGradient
       inkscape:collect="always"
       xlink:href="#linearGradient2338"
       id="linearGradient3332"
       x1="58.1875"
       y1="80.375"
       x2="68.71875"
       y2="73.75"
       gradientUnits="userSpaceOnUse"
       gradientTransform="translate(1.5567568,-0.5189189)" />
    <linearGradient
       inkscape:collect="always"
       xlink:href="#linearGradient2338"
       id="linearGradient3340"
       x1="106.6875"
       y1="54.375"
       x2="113.6875"
       y2="84.5"
       gradientUnits="userSpaceOnUse"
       gradientTransform="translate(1.5567568,-0.5189189)" />
    <linearGradient
       inkscape:collect="always"
       xlink:href="#linearGradient2338"
       id="linearGradient3344"
       x1="13"
       y1="58.4375"
       x2="26.5"
       y2="67.75"
       gradientUnits="userSpaceOnUse"
       gradientTransform="translate(1.5567568,-0.5189189)" />
    <linearGradient
       inkscape:collect="always"
       xlink:href="#linearGradient2338"
       id="linearGradient3355"
       x1="35.978378"
       y1="105.85946"
       x2="103.78378"
       y2="29.232433"
       gradientUnits="userSpaceOnUse"
       gradientTransform="translate(1.5567568,-0.5189189)" />
    <linearGradient
       inkscape:collect="always"
       xlink:href="#linearGradient2338"
       id="linearGradient3371"
       x1="35.895245"
       y1="99.472664"
       x2="121.58488"
       y2="109.5051"
       gradientUnits="userSpaceOnUse"
       gradientTransform="translate(1.5567568,-0.5189189)" />
    <linearGradient
       inkscape:collect="always"
       xlink:href="#linearGradient2338"
       id="linearGradient3375"
       x1="78.875679"
       y1="93.578377"
       x2="79.74054"
       y2="94.443245"
       gradientUnits="userSpaceOnUse"
       gradientTransform="translate(1.5567568,-0.5189189)" />
    <linearGradient
       inkscape:collect="always"
       xlink:href="#linearGradient2338"
       id="linearGradient3379"
       x1="89.902702"
       y1="88.691895"
       x2="90.24865"
       y2="87.956757"
       gradientUnits="userSpaceOnUse"
       gradientTransform="translate(1.5567568,-0.5189189)" />
    <linearGradient
       inkscape:collect="always"
       xlink:href="#linearGradient2338"
       id="linearGradient3383"
       x1="98.118919"
       y1="106.85406"
       x2="99.632431"
       y2="107.24324"
       gradientUnits="userSpaceOnUse"
       gradientTransform="translate(1.5567568,-0.5189189)" />
    <linearGradient
       inkscape:collect="always"
       xlink:href="#linearGradient2338"
       id="linearGradient3391"
       x1="76.627029"
       y1="102.22836"
       x2="93.405403"
       y2="93.059464"
       gradientUnits="userSpaceOnUse"
       gradientTransform="translate(1.5567568,-0.5189189)" />
    <linearGradient
       inkscape:collect="always"
       xlink:href="#linearGradient3405"
       id="linearGradient3395"
       x1="44.354839"
       y1="103.74834"
       x2="88.140251"
       y2="60.851048"
       gradientUnits="userSpaceOnUse"
       gradientTransform="translate(1.5567568,-0.5189189)" />
    <linearGradient
       inkscape:collect="always"
       xlink:href="#linearGradient3405"
       id="linearGradient3399"
       x1="26.737474"
       y1="83.452271"
       x2="17.412504"
       y2="91.097862"
       gradientUnits="userSpaceOnUse"
       gradientTransform="translate(1.5567568,-0.5189189)" />
    <linearGradient
       inkscape:collect="always"
       xlink:href="#linearGradient3405"
       id="linearGradient3403"
       x1="31.33367"
       y1="89.772034"
       x2="22.671612"
       y2="96.798912"
       gradientUnits="userSpaceOnUse"
       gradientTransform="translate(1.5567568,-0.5189189)" />
    <linearGradient
       inkscape:collect="always"
       xlink:href="#linearGradient3405"
       id="linearGradient3407"
       x1="36.062447"
       y1="97.019882"
       x2="27.312"
       y2="104.40031"
       gradientUnits="userSpaceOnUse"
       gradientTransform="translate(1.5567568,-0.5189189)" />
    <linearGradient
       inkscape:collect="always"
       xlink:href="#linearGradient2338"
       id="linearGradient3411"
       x1="16.926369"
       y1="94.500816"
       x2="18.561552"
       y2="93.042412"
       gradientUnits="userSpaceOnUse"
       gradientTransform="translate(1.5567568,-0.5189189)" />
    <linearGradient
       inkscape:collect="always"
       xlink:href="#linearGradient2338"
       id="linearGradient3417"
       x1="13.832776"
       y1="89.020744"
       x2="15.600543"
       y2="86.855225"
       gradientUnits="userSpaceOnUse"
       gradientTransform="translate(1.5567568,-0.5189189)" />
    <linearGradient
       inkscape:collect="always"
       xlink:href="#linearGradient2338"
       id="linearGradient3421"
       x1="99.923027"
       y1="64.80233"
       x2="102.35371"
       y2="70.459183"
       gradientUnits="userSpaceOnUse"
       gradientTransform="translate(1.5567568,-0.5189189)" />
    <linearGradient
       inkscape:collect="always"
       xlink:href="#linearGradient2338"
       id="linearGradient3425"
       gradientUnits="userSpaceOnUse"
       x1="99.923027"
       y1="64.80233"
       x2="102.35371"
       y2="70.459183"
       gradientTransform="translate(7.5671645,5.4031004)" />
    <linearGradient
       inkscape:collect="always"
       xlink:href="#linearGradient2338"
       id="linearGradient3429"
       gradientUnits="userSpaceOnUse"
       gradientTransform="translate(14.859203,11.192537)"
       x1="99.923027"
       y1="64.80233"
       x2="102.35371"
       y2="70.459183" />
    <linearGradient
       inkscape:collect="always"
       xlink:href="#linearGradient3405"
       id="linearGradient3439"
       x1="98.111069"
       y1="65.111687"
       x2="90.64225"
       y2="74.790215"
       gradientUnits="userSpaceOnUse"
       gradientTransform="translate(1.5567568,-0.5189189)" />
    <linearGradient
       inkscape:collect="always"
       xlink:href="#linearGradient3405"
       id="linearGradient3443"
       gradientUnits="userSpaceOnUse"
       x1="98.111069"
       y1="65.111687"
       x2="90.64225"
       y2="74.790215"
       gradientTransform="translate(7.3019994,5.2263237)" />
    <linearGradient
       inkscape:collect="always"
       xlink:href="#linearGradient3405"
       id="linearGradient3447"
       gradientUnits="userSpaceOnUse"
       gradientTransform="translate(14.903398,11.236731)"
       x1="98.111069"
       y1="65.111687"
       x2="90.64225"
       y2="74.790215" />
    <filter
       inkscape:collect="always"
       id="filter3487">
      <feGaussianBlur
         inkscape:collect="always"
         stdDeviation="0.8216216"
         id="feGaussianBlur3489" />
    </filter>
    <filter
       inkscape:collect="always"
       id="filter3501">
      <feGaussianBlur
         inkscape:collect="always"
         stdDeviation="0.61025853"
         id="feGaussianBlur3503" />
    </filter>
    <filter
       inkscape:collect="always"
       id="filter3519">
      <feGaussianBlur
         inkscape:collect="always"
         stdDeviation="0.99171729"
         id="feGaussianBlur3521" />
    </filter>
    <filter
       inkscape:collect="always"
       id="filter3541">
      <feGaussianBlur
         inkscape:collect="always"
         stdDeviation="0.67857276"
         id="feGaussianBlur3543" />
    </filter>
  </defs>
  <sodipodi:namedview
     id="base"
     pagecolor="#ffffff"
     bordercolor="#666666"
     borderopacity="1.0"
     gridtolerance="10000"
     guidetolerance="10"
     objecttolerance="10"
     inkscape:pageopacity="0.0"
     inkscape:pageshadow="2"
     inkscape:zoom="1"
     inkscape:cx="64"
     inkscape:cy="64"
     inkscape:document-units="px"
     inkscape:current-layer="layer2"
     showgrid="false"
     width="744.09px"
     inkscape:window-width="1248"
     inkscape:window-height="975"
     inkscape:window-x="426"
     inkscape:window-y="24"
     showguides="true"
     inkscape:guide-bbox="true" />
  <metadata
     id="metadata7">
    <rdf:RDF>
      <cc:Work
         rdf:about="">
        <dc:format>image/svg+xml</dc:format>
        <dc:type
           rdf:resource="http://purl.org/dc/dcmitype/StillImage" />
      </cc:Work>
    </rdf:RDF>
  </metadata>
  <g
     inkscape:groupmode="layer"
     id="layer2"
     inkscape:label="colors">
    <path
       style="fill:#000000;fill-rule:evenodd;stroke:none;stroke-width:1px;stroke-linecap:butt;stroke-linejoin:miter;stroke-opacity:1;fill-opacity:0.66666669000000001;filter:url(#filter3487)"
       d="M 37.448649,119.35135 C 12.248201,114.14465 5.0305679,100.89642 2.6810818,90.983786 L 1.2972979,69.881083 C 5.5561228,55.482352 38.371171,44.511714 54.745946,39.783786 L 86.054054,53.96757 L 37.448649,119.35135 z"
       id="path3464"
       sodipodi:nodetypes="cccccc" />
    <path
       style="fill:url(#linearGradient3395);fill-rule:evenodd;stroke:none;stroke-width:1px;stroke-linecap:butt;stroke-linejoin:miter;stroke-opacity:1"
       d="M 79.162682,50.486708 L 81.486579,50.792484 L 90.537546,53.544467 L 100.07775,58.008795 L 105.58172,61.37233 L 111.08569,65.897814 L 116.28388,71.340625 L 118.91355,75.621487 L 120.6259,79.290798 L 122.09362,83.571661 L 122.21593,84.917075 L 120.32012,98.31006 L 78.061889,116.5343 L 72.557922,107.85027 L 63.629266,108.03373 L 51.092454,112.3146 L 9.6292407,93.723421 L 8.8953785,84.427833 L 11.525051,79.413109 L 14.643966,73.481056 L 19.53638,67.059762 C 19.53638,67.059762 23.205691,63.329296 23.450312,63.329296 C 23.694933,63.329296 27.853485,59.904606 27.853485,59.904606 L 79.162682,50.486708 z"
       id="path3393" />
    <path
       style="fill:#000000;fill-rule:evenodd;stroke:none;stroke-width:1px;stroke-linecap:butt;stroke-linejoin:miter;stroke-opacity:1;fill-opacity:0.54901963;filter:url(#filter3519)"
       d="M 78.312077,51.986021 C 106.29155,60.726969 128.22355,81.777503 108.18734,99.892505 L 124.80435,93.528544 L 123.39013,66.835263 L 86.974134,48.450487 L 77.074639,50.571807 L 78.312077,51.986021 z"
       id="path3505"
       sodipodi:nodetypes="ccccccc" />
    <path
       style="fill:url(#linearGradient3391);fill-opacity:1;fill-rule:evenodd;stroke:none;stroke-width:1px;stroke-linecap:butt;stroke-linejoin:miter;stroke-opacity:1"
       d="M 71.516134,107.72628 L 64.135707,84.303373 L 66.522193,83.994014 L 72.797765,82.668189 L 74.079396,82.358829 L 82.520484,88.634402 L 88.486697,92.567684 L 97.634891,98.931645 L 98.076833,99.241004 L 99.181687,102.59976 L 100.06557,106.79821 L 100.33074,111.96892 L 99.800406,117.449 L 84.011674,121.06006 L 71.516134,107.72628 z"
       id="path3389"
       sodipodi:nodetypes="ccccccccccccccc" />
    <path
       sodipodi:nodetypes="ccccccccccccccc"
       id="path3449"
       d="M 71.516134,107.72628 L 64.135707,84.303373 L 66.522193,83.994014 L 72.797765,82.668189 L 74.079396,82.358829 L 82.520484,88.634402 L 88.486697,92.567684 L 97.634891,98.931645 L 98.076833,99.241004 L 99.181687,102.59976 L 100.06557,106.79821 L 100.33074,111.96892 L 99.800406,117.449 L 84.011674,121.06006 L 71.516134,107.72628 z"
       style="fill:#000000;fill-opacity:0.15686275;fill-rule:evenodd;stroke:none;stroke-width:1px;stroke-linecap:butt;stroke-linejoin:miter;stroke-opacity:1" />
    <path
       style="fill:#000000;fill-rule:evenodd;stroke:none;stroke-width:1px;stroke-linecap:butt;stroke-linejoin:miter;stroke-opacity:1;fill-opacity:0.54901963;filter:url(#filter3541)"
       d="M 107.12668,112.44365 C 97.048699,104.82589 91.554064,91.177417 73.362328,94.235652 C 59.273894,108.61714 74.270053,111.41217 73.008775,121.81282 L 77.074639,121.28249 C 76.219526,113.57597 69.587111,106.69477 74.776542,98.124738 C 90.621394,95.597647 93.344342,107.44216 100.05561,114.91852 L 107.12668,112.44365 z"
       id="path3523"
       sodipodi:nodetypes="ccccccc" />
    <path
       style="fill:url(#linearGradient3355);fill-opacity:1;fill-rule:evenodd;stroke:none;stroke-width:1px;stroke-linecap:butt;stroke-linejoin:miter;stroke-opacity:1"
       d="M 77.556757,36.793581 L 78.056757,37.543581 L 86.931757,39.918581 L 94.119257,42.106081 L 103.05676,45.856081 L 111.11926,50.106081 L 115.74426,53.543581 L 120.18176,58.231081 L 123.93176,63.918581 L 125.74426,70.981081 L 125.24426,77.106081 L 123.49426,82.731081 L 120.24426,87.793581 L 116.49426,92.043581 L 112.93176,95.231081 L 113.30676,97.231081 L 113.18176,97.356081 L 112.36926,96.606081 L 111.99426,98.043581 L 110.80676,96.981081 L 109.80676,97.668581 L 106.30676,99.793581 L 104.80676,100.60608 L 105.30676,101.98108 L 107.18176,100.91858 L 109.55676,99.043581 L 111.24426,98.168581 L 112.24426,99.043581 L 112.43176,98.543581 L 112.86926,97.543581 L 113.99426,99.168581 L 113.93176,98.668581 L 113.43176,96.356081 L 115.61926,94.981081 L 119.43176,90.981081 L 124.99426,83.043581 L 126.99426,76.043581 L 126.93176,69.793581 L 125.30676,64.481081 L 123.68176,61.231081 L 120.18176,56.356081 L 116.30676,52.606081 L 111.61926,48.606081 L 106.68176,45.543581 L 96.744257,41.106081 L 83.494257,37.606081 L 77.556757,36.793581 z M 25.744257,45.481081 L 23.306757,46.168581 L 16.494257,50.981081 L 9.9317568,57.418581 L 6.6192568,62.606081 L 4.5567568,68.793581 L 4.3067568,75.293581 L 5.3692568,80.293581 L 7.1817568,84.356081 L 8.6192568,86.606081 L 9.8067568,88.293581 L 11.744257,90.606081 L 15.556757,94.231081 L 22.306757,98.918581 L 35.931757,104.98108 L 47.181757,107.79358 L 48.494257,110.35608 L 49.681757,109.16858 L 50.681757,111.29358 L 52.181757,108.91858 C 60.597274,109.45713 69.170357,109.47047 77.931757,108.85608 L 78.056757,108.23108 L 76.802027,107.23108 L 73.744257,107.79358 L 69.431757,108.10608 L 64.806757,107.98108 L 52.369257,106.79358 L 50.619257,108.66858 L 49.744257,107.54358 L 48.619257,108.29358 L 47.119257,105.98108 L 41.931757,105.04358 L 33.431757,102.41858 L 25.494257,99.418581 L 19.994257,96.231081 L 14.931757,92.356081 L 9.6817568,85.981081 L 6.4942568,78.231081 L 6.0567568,72.606081 L 7.4942568,65.981081 L 9.9942568,61.043581 L 13.619257,56.106081 L 17.931757,51.668581 L 22.431757,47.918581 L 25.744257,45.481081 z"
       id="path3350"
       sodipodi:nodetypes="cccccccccccccccccccccccccccccccccccccccccccccccccccccccccccccccccccccccccccccccccccccccccccc" />
    <path
       style="fill:url(#linearGradient3344);fill-rule:evenodd;stroke:none;stroke-width:1px;stroke-linecap:butt;stroke-linejoin:miter;stroke-opacity:1"
       d="M 25.744257,45.481081 L 23.869257,46.856081 L 18.306757,51.293581 L 12.994257,56.856081 L 8.8692568,63.168581 L 6.6817568,68.168581 L 5.9317568,72.606081 L 6.6192568,78.543581 L 8.6192568,84.043581 L 9.0567568,84.606081 L 12.869257,76.168581 L 18.244257,68.918581 L 21.556757,65.106081 L 25.494257,61.731081 L 28.056757,59.856081 L 27.931757,57.293581 L 27.869257,51.793581 L 25.994257,50.606081 L 25.181757,48.668581 L 25.181757,47.543581 L 25.869257,47.106081 L 25.744257,45.481081 z"
       id="path3342" />
    <path
       style="fill:#000000;fill-rule:evenodd;stroke:none;stroke-width:1px;stroke-linecap:butt;stroke-linejoin:miter;stroke-opacity:1;fill-opacity:0.66666669000000001;filter:url(#filter3501)"
       d="M 25.632621,70.901127 L 26.516504,67.54237 L 24.748737,61.001632 L 22.627417,50.395031 L 22.627417,47.920157 L 25.455844,44.914953 L 51.972348,40.141982 C 51.972348,40.141982 74.246212,62.239069 73.185552,63.476506 C 72.124892,64.713943 25.632621,71.254681 25.632621,70.901127 z"
       id="path3491" />
    <path
       style="fill:url(#linearGradient2689);fill-opacity:1;fill-rule:evenodd;stroke:none;stroke-width:1px;stroke-linecap:butt;stroke-linejoin:miter;stroke-opacity:1"
       d="M 25.509999,46.694131 L 30.017805,49.610947 L 37.442426,52.704539 L 46.458038,54.649082 L 51.319397,55.091024 L 57.241416,54.914247 L 62.809882,54.207141 L 66.522193,53.323257 L 71.118387,51.732267 L 78.45462,47.931568 L 80.57594,46.252189 L 81.548212,47.224461 L 81.459823,48.285121 C 81.592681,49.021691 80.999512,49.75826 80.310775,50.49483 L 67.671241,56.682014 L 57.683358,58.53817 L 50.61229,58.626558 L 43.364446,57.654286 L 34.790776,55.179412 L 28.780368,52.174209 L 25.509999,50.141277 L 24.979669,48.461898 L 25.156446,47.31285 L 25.509999,46.694131 z"
       id="path2687"
       sodipodi:nodetypes="cccccccccccccccccccccccc" />
    <path
       style="fill:url(#linearGradient2693);fill-opacity:1;fill-rule:evenodd;stroke:none;stroke-width:1px;stroke-linecap:butt;stroke-linejoin:miter;stroke-opacity:1"
       d="M 26.482271,50.848383 L 33.730116,54.737471 L 39.740523,56.593626 L 47.43031,58.273005 L 55.915591,58.714946 L 64.400872,57.654286 L 69.527396,55.886519 L 75.537804,53.500034 L 78.896561,51.820655 L 78.45462,57.919451 L 78.631396,69.586713 L 74.123591,72.41514 L 67.582853,74.890014 L 60.511785,76.392616 L 52.910387,76.922946 L 45.397378,76.481004 L 35.409494,74.624849 L 27.63132,70.647373 L 28.16165,64.636966 L 27.808096,52.704539 L 26.482271,50.848383 z"
       id="path2691" />
    <path
       style="fill:url(#linearGradient2697);fill-opacity:1;fill-rule:evenodd;stroke:none;stroke-width:1px;stroke-linecap:butt;stroke-linejoin:miter;stroke-opacity:1"
       d="M 27.277766,70.205432 L 29.22231,71.796422 L 32.581067,73.4758 L 37.884368,75.243567 L 45.574154,76.746169 L 50.789067,76.834558 L 56.622698,76.657781 L 62.456329,75.950674 L 69.792562,74.094519 L 76.775241,71.000927 L 80.487552,68.70283 L 81.6366,69.586713 L 81.6366,72.061587 L 77.570736,75.066791 C 77.570736,75.066791 52.114892,82.137859 51.319397,81.784305 C 50.523902,81.430752 45.927708,81.253975 45.927708,81.253975 L 39.828912,79.92815 C 39.828912,79.92815 35.055941,78.071995 33.288174,77.541664 C 31.520407,77.011334 27.542931,74.006131 26.659048,73.652577 C 25.775164,73.299024 25.156446,71.88481 25.156446,71.88481 L 26.040329,69.586713 L 27.277766,70.205432 z"
       id="path2695" />
    <path
       style="fill:url(#linearGradient2701);fill-opacity:1;fill-rule:evenodd;stroke:none;stroke-width:1px;stroke-linecap:butt;stroke-linejoin:miter;stroke-opacity:1"
       d="M 30.150507,71.793581 L 30.369257,57.356081 L 31.213007,56.418581 L 32.056757,56.106081 L 32.713007,56.324831 L 33.931757,57.887331 L 34.213007,58.981081 L 34.119257,73.824831 L 30.150507,72.262331 L 30.150507,71.793581 z"
       id="path2699" />
    <path
       style="fill:url(#linearGradient2705);fill-opacity:1;fill-rule:evenodd;stroke:none;stroke-width:1px;stroke-linecap:butt;stroke-linejoin:miter;stroke-opacity:1"
       d="M 36.713007,74.637331 C 36.713007,74.637331 36.900507,60.199831 37.119257,60.012331 C 37.338007,59.824831 37.306757,59.449831 37.306757,59.449831 L 38.025507,58.574831 L 39.213007,58.106081 L 40.213007,58.856081 L 40.775507,59.887331 L 40.744257,75.762331 L 36.713007,74.637331 z"
       id="path2703" />
    <path
       style="fill:url(#linearGradient2709);fill-opacity:1;fill-rule:evenodd;stroke:none;stroke-width:1px;stroke-linecap:butt;stroke-linejoin:miter;stroke-opacity:1"
       d="M 43.963007,76.449831 C 43.963007,76.293581 43.900507,61.262331 43.900507,61.262331 L 44.181757,60.699831 L 45.181757,59.762331 L 45.806757,59.574831 L 46.431757,59.731081 L 47.369257,60.637331 L 47.931757,61.887331 L 47.869257,76.606081 L 43.963007,76.449831 z"
       id="path2707" />
    <path
       style="fill:url(#linearGradient2713);fill-opacity:1;fill-rule:evenodd;stroke:none;stroke-width:1px;stroke-linecap:butt;stroke-linejoin:miter;stroke-opacity:1"
       d="M 50.869257,76.793581 L 50.838007,61.981081 L 51.244257,60.699831 L 52.025507,60.012331 L 53.056757,59.887331 L 54.338007,60.606081 L 54.838007,62.074831 L 54.713007,76.731081 L 50.869257,76.793581 z"
       id="path2711" />
    <path
       style="fill:url(#linearGradient2717);fill-opacity:1;fill-rule:evenodd;stroke:none;stroke-width:1px;stroke-linecap:butt;stroke-linejoin:miter;stroke-opacity:1"
       d="M 59.244257,76.231081 L 59.369257,65.418581 L 60.494257,62.887331 L 62.744257,61.356081 L 64.119257,60.918581 C 64.119257,60.918581 65.806757,61.199831 66.119257,61.324831 C 66.431757,61.449831 68.369257,63.012331 68.369257,63.012331 L 68.588007,63.981081 L 68.713007,74.356081 L 61.119257,76.199831 L 59.306757,76.512331 L 59.244257,76.231081 z"
       id="path2715" />
    <path
       id="path2719"
       d="M 59.244257,76.231081 L 59.369257,65.418581 L 60.494257,62.887331 L 62.744257,61.356081 L 64.119257,60.918581 C 64.119257,60.918581 65.806757,61.199831 66.119257,61.324831 C 66.431757,61.449831 68.369257,63.012331 68.369257,63.012331 L 68.588007,63.981081 L 68.713007,74.356081 L 61.119257,76.199831 L 59.306757,76.512331 L 59.244257,76.231081 z"
       style="fill:#000000;fill-opacity:0.15686275;fill-rule:evenodd;stroke:none;stroke-width:1px;stroke-linecap:butt;stroke-linejoin:miter;stroke-opacity:1" />
    <path
       style="fill:url(#linearGradient3300);fill-opacity:1;fill-rule:evenodd;stroke:none;stroke-width:1px;stroke-linecap:butt;stroke-linejoin:miter;stroke-opacity:1"
       d="M 75.088007,55.606081 L 75.931757,56.356081 L 76.119257,71.512331 L 72.369257,73.074831 L 72.431757,57.231081 L 72.931757,55.949831 L 73.588007,55.356081 L 74.713007,55.231081 L 75.088007,55.606081 z"
       id="path3298" />
    <path
       style="fill:url(#linearGradient3312);fill-opacity:1;fill-rule:evenodd;stroke:none;stroke-width:1px;stroke-linecap:butt;stroke-linejoin:miter;stroke-opacity:1"
       d="M 51.869257,79.324831 C 51.744257,79.324831 51.025507,83.731081 51.025507,83.731081 L 59.556757,83.731081 L 65.931757,83.012331 L 71.556757,81.762331 L 75.556757,80.481081 L 80.056757,78.699831 L 76.025507,74.418581 L 53.869257,79.324831 L 51.869257,79.324831 z"
       id="path3310"
       sodipodi:nodetypes="cccccccccc" />
    <path
       style="fill:url(#linearGradient3316);fill-opacity:1;fill-rule:evenodd;stroke:none;stroke-width:1px;stroke-linecap:butt;stroke-linejoin:miter;stroke-opacity:1"
       d="M 50.931757,83.793581 L 51.056757,85.106081 L 59.306757,84.824831 L 64.963007,84.262331 L 70.150507,83.418581 L 74.431757,82.199831 L 80.244257,80.356081 L 79.994257,78.731081 L 78.150507,79.512331 L 73.150507,81.418581 L 65.119257,83.168581 L 59.244257,83.762331 L 54.806757,83.793581 L 50.931757,83.793581 z"
       id="path3314" />
    <path
       style="fill:url(#linearGradient3320);fill-opacity:1;fill-rule:evenodd;stroke:none;stroke-width:1px;stroke-linecap:butt;stroke-linejoin:miter;stroke-opacity:1"
       d="M 53.150507,82.199831 L 53.150507,83.012331 L 56.619257,83.043581 L 61.244257,82.824831 L 66.056757,82.106081 L 70.556757,80.918581 L 75.338007,79.512331 L 77.650507,78.762331 L 77.619257,77.543581 L 76.931757,77.731081 L 73.088007,79.293581 L 68.150507,80.606081 L 63.713007,81.543581 L 60.369257,81.981081 L 56.244257,82.199831 L 53.150507,82.199831 z"
       id="path3318" />
    <path
       style="fill:url(#linearGradient3324);fill-opacity:1;fill-rule:evenodd;stroke:none;stroke-width:1px;stroke-linecap:butt;stroke-linejoin:miter;stroke-opacity:1"
       d="M 56.056757,78.418581 L 53.806757,78.387331 L 53.181757,82.231081 L 57.150507,82.199831 L 61.619257,81.824831 L 67.713007,80.762331 L 75.400507,78.387331 L 77.369257,77.512331 L 73.869257,74.168581 L 72.869257,74.731081 L 56.056757,78.418581 z"
       id="path3322" />
    <path
       style="fill:url(#linearGradient3328);fill-opacity:1;fill-rule:evenodd;stroke:none;stroke-width:1px;stroke-linecap:butt;stroke-linejoin:miter;stroke-opacity:1"
       d="M 55.650507,80.168581 L 55.619257,81.418581 L 58.681757,81.418581 L 62.775507,81.012331 L 66.713007,80.262331 L 74.588007,77.512331 L 74.431757,76.262331 L 73.275507,76.606081 L 69.244257,78.106081 L 64.338007,79.668581 L 58.931757,80.324831 L 55.650507,80.168581 z"
       id="path3326" />
    <path
       style="fill:url(#linearGradient3332);fill-opacity:1;fill-rule:evenodd;stroke:none;stroke-width:1px;stroke-linecap:butt;stroke-linejoin:miter;stroke-opacity:1"
       d="M 56.213007,77.324831 L 55.650507,80.137331 L 59.681757,80.324831 L 66.369257,79.106081 L 74.494257,76.231081 L 72.088007,73.981081 L 71.056757,74.356081 L 64.306757,76.824831 L 57.369257,77.293581 L 56.213007,77.324831 z"
       id="path3330" />
    <path
       style="fill:url(#linearGradient3304);fill-opacity:1;fill-rule:evenodd;stroke:none;stroke-width:1px;stroke-linecap:butt;stroke-linejoin:miter;stroke-opacity:1"
       d="M 57.463007,77.012331 L 57.338007,78.074831 L 58.713007,78.043581 L 62.494257,77.793581 L 67.431757,76.731081 L 71.775507,75.199831 L 70.619257,73.793581 L 63.650507,75.668581 L 57.556757,76.481081 L 57.463007,77.012331 z"
       id="path3302" />
    <path
       style="fill:url(#linearGradient3308);fill-opacity:1;fill-rule:evenodd;stroke:none;stroke-width:1px;stroke-linecap:butt;stroke-linejoin:miter;stroke-opacity:1"
       d="M 57.463007,78.012331 L 57.525507,79.387331 L 59.494257,79.199831 L 62.744257,79.074831 L 67.056757,78.012331 L 71.775507,76.481081 L 71.775507,75.293581 L 68.838007,76.293581 L 64.400507,77.418581 L 61.431757,77.824831 L 57.463007,78.012331 z"
       id="path3306" />
    <path
       style="fill:url(#linearGradient3340);fill-opacity:1;fill-rule:evenodd;stroke:none;stroke-width:1px;stroke-linecap:butt;stroke-linejoin:miter;stroke-opacity:1"
       d="M 122.24426,84.856081 C 121.86926,84.418581 121.36926,80.981081 121.36926,80.981081 L 117.61926,73.106081 L 110.30676,64.918581 L 101.80676,58.793581 L 92.244257,54.293581 L 85.369257,51.918581 L 80.681757,50.793581 L 81.494257,48.731081 L 81.306757,47.231081 L 80.431757,44.856081 L 77.994257,37.606081 L 80.056757,38.168581 L 89.869257,40.668581 L 99.806757,44.293581 L 110.55676,49.731081 L 118.43176,56.168581 L 123.74426,63.418581 L 125.68176,69.606081 L 125.68176,74.606081 L 124.43176,79.856081 L 122.24426,84.856081 z"
       id="path3338" />
    <path
       id="path3357"
       d="M 122.24426,84.856081 C 121.86926,84.418581 121.36926,80.981081 121.36926,80.981081 L 117.61926,73.106081 L 110.30676,64.918581 L 101.80676,58.793581 L 92.244257,54.293581 L 85.369257,51.918581 L 80.681757,50.793581 L 81.494257,48.731081 L 81.306757,47.231081 L 80.431757,44.856081 L 77.994257,37.606081 L 80.056757,38.168581 L 89.869257,40.668581 L 99.806757,44.293581 L 110.55676,49.731081 L 118.43176,56.168581 L 123.74426,63.418581 L 125.68176,69.606081 L 125.68176,74.606081 L 124.43176,79.856081 L 122.24426,84.856081 z"
       style="fill:#000000;fill-opacity:0.15686275;fill-rule:evenodd;stroke:none;stroke-width:1px;stroke-linecap:butt;stroke-linejoin:miter;stroke-opacity:1" />
    <path
       style="fill:#000000;fill-opacity:0.15686275;fill-rule:evenodd;stroke:none;stroke-width:1px;stroke-linecap:butt;stroke-linejoin:miter;stroke-opacity:1"
       d="M 48.494257,108.35608 L 48.431757,110.04358 L 48.619257,110.29358 L 49.556757,109.35608 L 49.556757,107.73108 L 48.494257,108.35608 z"
       id="path3359" />
    <path
       style="fill:#000000;fill-opacity:0.15686275;fill-rule:evenodd;stroke:none;stroke-width:1px;stroke-linecap:butt;stroke-linejoin:miter;stroke-opacity:1"
       d="M 50.619257,108.60608 L 50.619257,111.35608 L 52.056757,108.98108 L 52.119257,107.29358 L 50.619257,108.60608 z"
       id="path3361" />
    <path
       style="fill:#000000;fill-opacity:0.15686275;fill-rule:evenodd;stroke:none;stroke-width:1px;stroke-linecap:butt;stroke-linejoin:miter;stroke-opacity:1"
       d="M 111.998,98.003567 L 112.04219,98.975839 L 112.43994,98.931645 L 112.70511,97.650014 L 112.43994,96.721936 L 111.998,98.003567 z"
       id="path3363" />
    <path
       style="fill:#000000;fill-opacity:0.15686275;fill-rule:evenodd;stroke:none;stroke-width:1px;stroke-linecap:butt;stroke-linejoin:miter;stroke-opacity:1"
       d="M 112.92608,95.484499 L 113.27963,97.429043 L 113.76577,98.975839 L 113.94254,98.799062 L 113.63319,96.412577 L 112.92608,95.484499 z"
       id="path3365" />
    <path
       style="fill:url(#linearGradient3371);fill-rule:evenodd;stroke:none;stroke-width:1px;stroke-linecap:butt;stroke-linejoin:miter;stroke-opacity:1"
       d="M 4.1200189,75.37615 L 4.9597082,78.911684 L 5.7110091,81.253975 L 6.7274751,83.596266 L 7.8765237,85.452422 L 9.8210673,88.369237 L 13.312407,92.169936 L 21.17897,98.35712 L 31.741378,103.26267 L 40.536018,106.31207 L 47.209339,107.81467 L 48.49097,110.37793 L 49.595824,109.31727 L 50.744873,111.48279 L 51.275203,110.28955 L 52.114892,108.74275 L 65.549921,109.93599 L 77.968484,108.91953 L 78.366231,102.64395 L 79.780445,97.119684 L 81.592406,93.230596 L 83.625338,90.755722 L 87.470231,87.66213 L 91.536095,88.72279 L 98.032639,91.993159 L 101.96592,95.351917 L 105.36887,101.89265 L 106.42953,101.49491 L 111.02573,98.180344 L 111.42348,98.180344 L 112.26317,98.975839 L 112.39575,99.020033 L 112.7935,97.517431 L 113.80996,98.975839 L 113.98674,98.66648 L 113.58899,96.500965 L 117.83163,92.788654 L 122.73718,87.043412 L 125.52142,81.165587 L 127.24499,74.138713 L 127.46596,75.110985 L 127.37757,82.623994 L 126.89144,90.888305 L 125.07948,97.605819 L 121.76491,103.26267 L 116.85936,108.25661 L 112.83769,111.52698 L 102.62884,118.06772 L 102.18689,117.05125 L 101.25881,103.35106 L 100.24235,100.39005 L 99.181687,98.622285 L 97.237144,96.545159 L 94.099357,94.158674 L 88.486697,91.816383 L 86.100212,94.865781 L 83.713726,101.71588 L 82.918231,106.31207 L 83.183396,117.75836 L 83.802115,122.31036 L 73.283901,123.68038 L 62.058581,123.76877 C 62.058581,123.76877 53.04297,123.41522 52.601028,123.15005 C 52.159086,122.88489 44.336717,121.51487 44.336717,121.51487 L 34.613999,118.9958 L 23.742232,114.09025 L 15.03598,107.90306 L 8.1858829,99.992301 L 5.8435917,95.528693 L 4.3851839,90.446363 L 4.1200189,84.877897 L 3.8106597,79.176849 L 3.7222713,76.746169 L 4.1200189,75.37615 z"
       id="path3369" />
    <path
       style="fill:url(#linearGradient3375);fill-opacity:1;fill-rule:evenodd;stroke:none;stroke-width:1px;stroke-linecap:butt;stroke-linejoin:miter;stroke-opacity:1"
       d="M 76.713514,107.02703 C 76.627027,106.85405 76.92973,101.92432 76.92973,101.92432 L 77.578379,96.994594 L 79.481081,92.367567 L 82.594595,88.864865 L 86.010811,85.535135 L 87.437838,87.87027 L 85.145946,89.427027 L 83.32973,91.113513 L 81.470271,93.535135 L 79.913514,96.735135 L 78.572973,101.70811 L 77.924325,108.23784 L 76.713514,107.02703 z"
       id="path3373" />
    <path
       style="fill:url(#linearGradient3379);fill-opacity:1;fill-rule:evenodd;stroke:none;stroke-width:1px;stroke-linecap:butt;stroke-linejoin:miter;stroke-opacity:1"
       d="M 86.227027,85.621621 L 87.264865,87.783784 L 89.902703,88.086486 L 92.540541,89.124324 L 100.02162,93.275676 C 100.02162,93.275676 97.902703,90.681081 97.470271,90.508108 C 97.037838,90.335135 94.78919,88.735135 94.78919,88.735135 L 91.935135,87.394594 L 89.037838,86.356757 L 86.227027,85.621621 z"
       id="path3377" />
    <path
       style="fill:url(#linearGradient3383);fill-rule:evenodd;stroke:none;stroke-width:1px;stroke-linecap:butt;stroke-linejoin:miter;stroke-opacity:1"
       d="M 94.745946,94.789189 L 97.167568,97.6 L 98.335135,100.02162 L 99.632433,104.64865 L 100.32432,109.4054 L 100.06486,117.49189 L 102.18379,117.88108 L 101.36216,103.39459 C 101.36216,103.39459 99.978379,99.718921 99.675676,99.416216 C 99.372973,99.113513 97.85946,97.081081 97.85946,97.081081 L 94.745946,94.789189 z"
       id="path3381" />
    <path
       id="path3385"
       d="M 76.713514,107.02703 C 76.627027,106.85405 76.92973,101.92432 76.92973,101.92432 L 77.578379,96.994594 L 79.481081,92.367567 L 82.594595,88.864865 L 86.010811,85.535135 L 87.437838,87.87027 L 85.145946,89.427027 L 83.32973,91.113513 L 81.470271,93.535135 L 79.913514,96.735135 L 78.572973,101.70811 L 77.924325,108.23784 L 76.713514,107.02703 z"
       style="fill:#000000;fill-opacity:0.15686275;fill-rule:evenodd;stroke:none;stroke-width:1px;stroke-linecap:butt;stroke-linejoin:miter;stroke-opacity:1" />
    <path
       id="path3387"
       d="M 94.745946,94.789189 L 97.167568,97.6 L 98.335135,100.02162 L 99.632433,104.64865 L 100.32432,109.4054 L 100.06486,117.49189 L 102.18379,117.88108 L 101.36216,103.39459 C 101.36216,103.39459 99.978379,99.718921 99.675676,99.416216 C 99.372973,99.113513 97.85946,97.081081 97.85946,97.081081 L 94.745946,94.789189 z"
       style="fill:#000000;fill-opacity:0.15686275;fill-rule:evenodd;stroke:none;stroke-width:1px;stroke-linecap:butt;stroke-linejoin:miter;stroke-opacity:1" />
    <path
       style="fill:url(#linearGradient3399);fill-opacity:1;fill-rule:evenodd;stroke:none;stroke-width:1px;stroke-linecap:butt;stroke-linejoin:miter;stroke-opacity:1"
       d="M 16.273417,86.734053 L 28.912951,83.552072 L 31.608795,87.485354 L 18.217961,91.286053 L 16.273417,86.734053 z"
       id="path3397" />
    <path
       style="fill:url(#linearGradient3403);fill-opacity:1;fill-rule:evenodd;stroke:none;stroke-width:1px;stroke-linecap:butt;stroke-linejoin:miter;stroke-opacity:1"
       d="M 20.339281,93.098014 L 32.71365,89.916033 L 35.453688,93.849315 L 22.195436,97.561625 L 20.339281,93.098014 z"
       id="path3401" />
    <path
       style="fill:url(#linearGradient3407);fill-opacity:1;fill-rule:evenodd;stroke:none;stroke-width:1px;stroke-linecap:butt;stroke-linejoin:miter;stroke-opacity:1"
       d="M 26.659048,99.682941 L 37.79598,96.898713 L 40.624407,100.7436 L 34.260446,102.55557 L 30.371358,101.5391 L 26.659048,99.682941 z"
       id="path3405" />
    <path
       style="fill:url(#linearGradient3411);fill-rule:evenodd;stroke:none;stroke-width:1px;stroke-linecap:butt;stroke-linejoin:miter;stroke-opacity:1"
       d="M 19.367009,93.186402 L 17.555048,93.142208 L 16.847941,93.716732 L 18.217961,94.909975 L 20.11831,96.059023 L 19.367009,93.186402 z"
       id="path3409" />
    <path
       style="fill:url(#linearGradient3417);fill-opacity:1;fill-rule:evenodd;stroke:none;stroke-width:1px;stroke-linecap:butt;stroke-linejoin:miter;stroke-opacity:1"
       d="M 17.46666,91.551218 L 15.301145,91.639606 L 14.328873,90.62314 L 13.842737,87.220189 L 13.97532,86.955024 L 15.610504,86.778247 L 17.46666,91.551218 z"
       id="path3415" />
    <path
       style="fill:url(#linearGradient3421);fill-opacity:1;fill-rule:evenodd;stroke:none;stroke-width:1px;stroke-linecap:butt;stroke-linejoin:miter;stroke-opacity:1"
       d="M 98.872328,65.255684 L 103.55691,68.526053 L 104.57338,68.1725 L 104.30821,64.857937 L 103.77788,63.664694 C 103.36136,63.167867 102.69904,62.916843 102.05431,62.648228 L 101.43559,62.471451 L 100.55171,62.604034 L 99.31427,63.532111 L 99.049105,63.708888 L 98.872328,65.255684 z"
       id="path3419"
       sodipodi:nodetypes="ccccccccccc" />
    <path
       id="path3423"
       d="M 104.88274,71.177703 L 109.56732,74.448072 L 110.58379,74.094519 L 110.31862,70.779956 L 109.78829,69.586713 C 109.21377,69.013033 108.63924,68.800701 108.06472,68.570247 L 107.446,68.39347 L 106.56212,68.526053 L 105.32468,69.45413 L 105.05952,69.630907 L 104.88274,71.177703 z"
       style="fill:url(#linearGradient3425);fill-opacity:1;fill-rule:evenodd;stroke:none;stroke-width:1px;stroke-linecap:butt;stroke-linejoin:miter;stroke-opacity:1"
       sodipodi:nodetypes="ccccccccccc" />
    <path
       style="fill:url(#linearGradient3429);fill-opacity:1;fill-rule:evenodd;stroke:none;stroke-width:1px;stroke-linecap:butt;stroke-linejoin:miter;stroke-opacity:1"
       d="M 112.17478,76.967139 L 116.85936,80.237508 L 117.87583,79.883955 L 117.61066,76.569392 L 117.08033,75.376149 C 116.68198,74.861152 116.10866,74.521127 115.35676,74.359683 L 114.73804,74.182906 L 113.85416,74.315489 L 112.61672,75.243566 L 112.35156,75.420343 L 112.17478,76.967139 z"
       id="path3427"
       sodipodi:nodetypes="ccccccccccc" />
    <path
       id="path3431"
       d="M 98.872328,65.255684 L 103.55691,68.526053 L 104.57338,68.1725 L 104.30821,64.857937 L 103.77788,63.664694 C 102.96407,63.048854 102.68569,62.786545 102.05431,62.648228 L 101.43559,62.471451 L 100.55171,62.604034 L 99.31427,63.532111 L 99.049105,63.708888 L 98.872328,65.255684 z"
       style="fill:#000000;fill-opacity:0.15686275;fill-rule:evenodd;stroke:none;stroke-width:1px;stroke-linecap:butt;stroke-linejoin:miter;stroke-opacity:1"
       sodipodi:nodetypes="ccccccccccc" />
    <path
       style="fill:#000000;fill-opacity:0.15686275;fill-rule:evenodd;stroke:none;stroke-width:1px;stroke-linecap:butt;stroke-linejoin:miter;stroke-opacity:1"
       d="M 104.88274,71.177703 L 109.56732,74.448072 L 110.58379,74.094519 L 110.31862,70.779956 L 109.78829,69.586713 C 109.13822,69.190246 108.76207,68.674899 108.06472,68.570247 L 107.446,68.39347 L 106.56212,68.526053 L 105.32468,69.45413 L 105.05952,69.630907 L 104.88274,71.177703 z"
       id="path3433"
       sodipodi:nodetypes="ccccccccccc" />
    <path
       id="path3435"
       d="M 112.17478,76.967139 L 116.85936,80.237508 L 117.87583,79.883955 L 117.61066,76.569392 L 117.08033,75.376149 C 116.59382,74.933802 115.95718,74.690673 115.35676,74.359683 L 114.73804,74.182906 L 113.85416,74.315489 L 112.61672,75.243566 L 112.35156,75.420343 L 112.17478,76.967139 z"
       style="fill:#000000;fill-opacity:0.15686275;fill-rule:evenodd;stroke:none;stroke-width:1px;stroke-linecap:butt;stroke-linejoin:miter;stroke-opacity:1"
       sodipodi:nodetypes="ccccccccccc" />
    <path
       style="fill:url(#linearGradient3439);fill-opacity:1;fill-rule:evenodd;stroke:none;stroke-width:1px;stroke-linecap:butt;stroke-linejoin:miter;stroke-opacity:1"
       d="M 87.072484,70.205432 L 98.165221,65.74182 L 102.80561,69.100577 L 91.491901,74.271296 L 87.072484,70.205432 z"
       id="path3437" />
    <path
       id="path3441"
       d="M 92.817727,75.950675 L 103.91047,71.487063 L 108.55085,74.84582 L 97.237144,80.016539 L 92.817727,75.950675 z"
       style="fill:url(#linearGradient3443);fill-opacity:1;fill-rule:evenodd;stroke:none;stroke-width:1px;stroke-linecap:butt;stroke-linejoin:miter;stroke-opacity:1" />
    <path
       style="fill:url(#linearGradient3447);fill-opacity:1;fill-rule:evenodd;stroke:none;stroke-width:1px;stroke-linecap:butt;stroke-linejoin:miter;stroke-opacity:1"
       d="M 100.41912,81.961083 L 111.51187,77.497471 L 116.15225,80.856228 L 104.83854,86.026947 L 100.41912,81.961083 z"
       id="path3445" />
    <path
       id="path3451"
       d="M 16.273417,86.734053 L 28.912951,83.552072 L 31.608795,87.485354 L 18.217961,91.286053 L 16.273417,86.734053 z"
       style="fill:#000000;fill-opacity:0.15686275;fill-rule:evenodd;stroke:none;stroke-width:1px;stroke-linecap:butt;stroke-linejoin:miter;stroke-opacity:1" />
    <path
       id="path3453"
       d="M 20.339281,93.098014 L 32.71365,89.916033 L 35.453688,93.849315 L 22.195436,97.561625 L 20.339281,93.098014 z"
       style="fill:#000000;fill-opacity:0.15686275;fill-rule:evenodd;stroke:none;stroke-width:1px;stroke-linecap:butt;stroke-linejoin:miter;stroke-opacity:1" />
    <path
       id="path3455"
       d="M 26.659048,99.682941 L 37.79598,96.898713 L 40.624407,100.7436 L 34.260446,102.55557 L 30.371358,101.5391 L 26.659048,99.682941 z"
       style="fill:#000000;fill-opacity:0.15686275;fill-rule:evenodd;stroke:none;stroke-width:1px;stroke-linecap:butt;stroke-linejoin:miter;stroke-opacity:1" />
    <path
       id="path3457"
       d="M 87.072484,70.205432 L 98.165221,65.74182 L 102.80561,69.100577 L 91.491901,74.271296 L 87.072484,70.205432 z"
       style="fill:#000000;fill-opacity:0.15686275;fill-rule:evenodd;stroke:none;stroke-width:1px;stroke-linecap:butt;stroke-linejoin:miter;stroke-opacity:1" />
    <path
       style="fill:#000000;fill-opacity:0.15686275;fill-rule:evenodd;stroke:none;stroke-width:1px;stroke-linecap:butt;stroke-linejoin:miter;stroke-opacity:1"
       d="M 92.817727,75.950675 L 103.91047,71.487063 L 108.55085,74.84582 L 97.237144,80.016539 L 92.817727,75.950675 z"
       id="path3459" />
    <path
       id="path3461"
       d="M 100.41912,81.961083 L 111.51187,77.497471 L 116.15225,80.856228 L 104.83854,86.026947 L 100.41912,81.961083 z"
       style="fill:#000000;fill-opacity:0.15686275;fill-rule:evenodd;stroke:none;stroke-width:1px;stroke-linecap:butt;stroke-linejoin:miter;stroke-opacity:1" />
    <path
       style="fill:url(#linearGradient2685);fill-opacity:1;fill-rule:evenodd;stroke:none;stroke-width:1px;stroke-linecap:butt;stroke-linejoin:miter;stroke-opacity:1"
       d="M 25.598388,46.694131 L 26.217106,43.600539 L 28.957145,35.910753 L 35.674659,28.397743 L 43.541222,23.359607 L 52.026504,21.680229 L 57.153028,21.945394 L 63.163435,23.359607 L 69.615785,26.895141 L 76.156523,33.877821 L 79.073338,39.976617 L 80.664328,45.279918 L 80.929493,46.252189 L 79.161726,47.31285 L 72.5326,51.201937 L 66.698969,53.411646 C 66.698969,53.411646 59.627902,54.914247 59.274348,54.914247 C 58.920795,54.914247 50.258737,55.267801 50.258737,55.267801 L 40.094077,53.411646 L 31.962349,50.583218 L 25.598388,46.694131 z"
       id="path2683" />
  </g>
  <g
     inkscape:label="outline"
     inkscape:groupmode="layer"
     id="layer1">
    <path
       style="opacity:1;fill:#000000;fill-opacity:1;stroke:none;stroke-width:0.92315269;stroke-miterlimit:4;stroke-dasharray:none;stroke-opacity:1"
       d="M 53.213007,21.262331 C 39.686851,21.262331 28.376044,31.286931 25.713007,44.574831 C 24.441657,45.22032 23.204247,45.902827 22.025507,46.606081 C 12.134825,52.781061 3.5596124,61.782806 3.8692568,74.168581 C 3.1531866,77.418027 3.8380068,84.411422 3.8380068,87.106081 C 3.8380067,97.427321 10.830228,106.70807 22.025507,113.38733 C 33.220787,120.0666 48.644847,124.19983 65.650507,124.19983 C 72.079898,124.19983 78.290627,123.60816 84.119257,122.51233 L 83.275507,107.76233 C 83.034548,103.52432 86.46499,93.808745 88.213007,92.543581 L 97.713007,99.137331 C 98.275502,100.35374 98.648005,101.59097 98.994257,102.82483 C 100.47955,108.11762 99.972455,113.78256 99.806757,117.44983 L 102.52551,118.35608 C 104.35584,117.48501 108.46408,114.71859 110.11926,113.73108 C 121.31454,107.05182 127.46301,97.427324 127.46301,87.106081 C 127.46301,84.829766 128.00438,76.051903 127.46301,73.074831 C 126.65177,60.703515 118.53727,53.535594 109.24426,46.606081 C 100.79233,41.563532 89.931821,38.022194 77.806757,36.574831 C 73.053082,27.477108 63.837021,21.262331 53.213007,21.262331 z M 53.213007,22.262331 C 63.641955,22.262331 73.018847,28.544097 77.681757,37.637331 C 78.845287,39.76017 79.858875,43.084199 80.400507,45.762331 C 80.028883,46.082677 79.636499,46.395486 79.244257,46.699831 L 78.744257,45.606081 C 77.680877,45.580177 76.618873,45.53131 75.556757,45.481081 C 75.96566,44.864756 76.010365,44.379026 75.994257,43.606081 L 75.213007,40.481081 C 73.636933,39.845684 73.004844,38.505859 72.244257,37.106081 L 72.181757,37.168581 C 72.847663,38.235466 72.995032,39.863034 74.869257,40.856081 C 75.194453,41.7239 75.509205,42.948831 75.525507,43.731081 C 75.538086,44.334691 75.102175,44.85928 74.588007,45.418581 C 74.525583,45.41646 74.462945,45.420475 74.400507,45.418581 C 73.019528,45.447874 71.571546,45.719593 70.025507,46.637331 C 69.215653,46.797456 68.432192,46.995084 67.681757,47.262331 C 66.968302,47.010734 66.217951,46.915405 65.494257,46.793581 C 65.076095,44.554784 64.823964,41.501788 66.088007,39.856081 C 66.7549,38.563351 67.747122,37.620705 68.275507,36.262331 C 68.896268,34.959317 69.758663,33.783795 68.994257,32.262331 L 65.056757,28.731081 C 64.413259,27.615744 63.76498,26.696096 62.619257,26.043581 C 61.368302,25.495155 59.843974,25.907456 58.431757,25.606081 L 58.338007,25.856081 C 59.741556,26.155606 61.369897,26.019405 62.494257,26.512331 C 63.618617,27.005258 64.218191,28.081514 64.744257,29.074831 L 68.556757,32.481081 C 69.128008,33.671482 68.50278,35.004317 67.963007,36.137331 C 67.421901,37.273144 66.514575,38.437515 65.775507,39.668581 C 64.325739,41.855339 64.544717,44.266313 64.963007,46.699831 C 64.634705,46.632194 64.330171,46.535012 64.025507,46.418581 C 62.820231,45.957968 61.458773,45.237231 60.588007,44.074831 C 60.145591,42.762368 60.132591,41.087904 59.588007,39.637331 C 59.031119,38.153986 58.300197,36.697162 56.181757,35.543581 L 56.213007,35.606081 C 58.146272,36.658827 58.747705,38.533448 59.244257,39.856081 C 59.519337,40.588796 59.585978,41.392577 59.681757,42.231081 C 58.820493,41.682705 57.921523,41.469892 57.025507,41.574831 C 55.93429,41.702631 54.875735,42.211905 53.806757,42.856081 C 51.668801,44.144433 49.768325,46.707056 47.338007,47.606081 L 47.369257,47.824831 C 50.02773,46.841407 52.181761,44.423878 54.213007,43.199831 C 55.228632,42.587805 56.327372,42.112394 57.181757,42.012331 C 57.920915,41.925764 58.960257,42.365041 59.775507,42.949831 C 59.842893,43.392259 59.937361,43.830873 60.088007,44.262331 C 60.927328,45.651072 62.388863,46.297027 63.775507,47.012331 C 64.865658,47.428945 65.780219,47.408453 66.744257,47.668581 C 65.025406,48.382781 63.369097,49.312438 61.681757,50.262331 C 60.121258,50.959802 58.397864,51.001374 57.338007,50.793581 C 56.27815,50.585787 55.191124,50.426514 54.213007,49.856081 L 54.056757,49.918581 C 55.046487,50.495787 56.08311,51.078799 57.338007,51.324831 C 58.592904,51.570863 60.06287,51.465299 61.775507,50.699831 C 64.291782,48.795807 67.367755,48.048657 70.338007,47.168581 C 72.844224,45.719696 75.632229,46.200367 78.431757,46.293581 L 78.463007,47.293581 C 71.590772,52.274938 61.971923,54.928427 52.806757,54.887331 C 45.592912,54.854985 38.145789,53.117465 32.181757,50.231081 C 32.021886,46.486947 30.975347,41.67526 31.900507,38.731081 C 35.041058,38.080996 37.671201,35.448406 40.025507,33.106081 C 41.257862,32.223108 42.486775,31.852372 43.681757,31.668581 C 45.304729,32.09236 46.571792,32.831114 47.025507,33.324831 C 47.514864,33.857335 47.502406,34.877442 48.400507,35.512331 C 50.370924,36.813536 50.884902,39.357262 51.838007,41.793581 C 50.957629,39.488962 50.984019,36.605201 48.619257,35.043581 C 47.920309,34.549476 48.04485,33.616978 47.431757,32.949831 C 46.949142,32.424666 46.219247,31.908714 44.994257,31.512331 C 45.428005,31.476909 45.853857,31.455081 46.275507,31.418581 C 48.201688,31.251843 50.285619,30.94592 52.369257,30.512331 C 54.593867,30.825484 56.395958,32.451058 57.869257,33.981081 L 58.025507,33.887331 C 56.525591,32.361424 55.070643,30.412062 52.369257,30.106081 C 50.3385,30.467639 48.269207,30.520232 46.213007,30.637331 C 44.145168,30.816332 41.9572,31.297104 39.650507,32.949831 C 37.582709,35.050376 35.125553,36.597591 32.525507,37.918581 C 33.160971,36.436924 33.084827,35.716357 33.025507,34.262331 C 33.290277,33.04012 34.28154,32.045812 35.025507,31.074831 C 35.819871,30.484992 37.175647,30.453043 38.025507,29.574831 C 39.019331,28.584523 40.086365,27.821216 41.369257,28.012331 L 41.369257,27.856081 C 39.741844,27.429003 39.10711,28.372931 37.838007,29.387331 C 37.137173,30.111547 35.733423,30.034959 34.838007,30.699831 C 33.942591,31.364703 33.087495,32.287633 32.588007,33.949831 C 32.737019,35.500512 32.238848,36.900237 31.713007,38.324831 C 31.658364,38.3513 31.61151,38.392293 31.556757,38.418581 C 30.859897,40.547138 30.75359,42.742479 30.806757,44.949831 C 29.545968,44.145986 28.421284,43.261799 28.213007,41.793581 L 28.056757,41.793581 C 28.316887,43.627322 29.470459,44.848703 30.806757,45.793581 C 30.861259,47.078305 30.954083,48.360768 31.025507,49.637331 C 29.136142,48.641625 27.417424,47.54276 25.931757,46.324831 C 27.939247,32.750748 39.688327,22.262331 53.213007,22.262331 z M 78.150507,37.262331 C 89.978046,38.813539 100.44869,42.550466 108.71301,47.481081 C 119.71518,54.045138 126.77551,63.045575 126.77551,72.918581 C 126.77551,77.376304 125.30293,81.81331 122.74426,85.887331 C 120.62622,89.64449 117.20631,93.155977 113.58801,96.043581 L 113.11926,95.231081 C 122.55963,87.743654 127.65036,78.334432 125.49426,68.293581 C 122.8005,55.748855 109.02663,44.274313 78.244257,37.449831 C 78.214102,37.387178 78.181067,37.324739 78.150507,37.262331 z M 78.463007,37.949831 C 108.58958,44.765545 122.47325,56.751623 125.02551,68.637331 C 126.1645,73.941582 125.02142,79.262644 122.24426,84.231081 C 120.57398,75.088493 114.50026,67.179275 105.96301,61.168581 C 99.582416,56.676293 91.819187,53.259276 83.463007,51.137331 L 86.806757,48.793581 L 86.963007,48.793581 C 86.984778,48.765457 87.004213,48.728828 87.025507,48.699831 L 92.588007,47.512331 L 95.838007,49.668581 L 96.806757,54.543581 L 96.119257,49.481081 L 99.431757,48.512331 L 99.244257,48.387331 L 95.713007,49.199831 L 92.775507,47.043581 L 87.119257,48.543581 C 87.673466,47.727508 88.105834,46.651579 88.619257,45.731081 C 90.455505,45.147697 90.88025,44.526567 91.963007,43.918581 L 95.838007,44.981081 L 95.931757,44.793581 L 92.025507,43.637331 C 90.791835,43.937925 89.630065,44.883269 88.556757,45.606081 C 88.415087,45.785986 88.283096,45.974587 88.150507,46.168581 L 86.494257,43.262331 L 86.306757,43.199831 L 87.869257,46.574831 C 87.408066,47.298277 86.986841,48.081048 86.525507,48.793581 L 82.744257,50.949831 C 82.130941,50.80023 81.519684,50.647716 80.900507,50.512331 C 81.855608,48.78781 82.27025,47.027258 80.744257,45.137331 C 80.285736,42.60787 79.500334,40.206468 78.463007,37.949831 z M 25.494257,45.824831 L 25.369257,46.699831 C 24.695283,47.624607 24.055809,48.615396 25.838007,51.074831 C 26.307835,51.354073 26.774904,51.638146 27.244257,51.918581 C 27.259916,54.465445 27.737538,56.754154 27.744257,59.574831 C 19.932733,65.168413 13.015928,73.10813 8.9317568,83.637331 C 6.9716926,79.732223 5.9595081,75.388156 6.6192568,70.887331 C 7.703556,63.49021 13.532998,54.162291 25.494257,45.824831 z M 24.463007,46.168581 C 12.531203,54.518166 7.1542777,62.905573 6.0255068,70.606081 C 4.8699602,78.489254 8.1918471,85.560909 13.244257,91.012331 C 20.527602,98.870875 32.570581,103.33603 44.775507,105.91858 C 45.512399,106.07451 46.253396,106.2156 46.994257,106.35608 C 47.453309,106.44313 47.97653,107.75224 48.369257,108.51233 L 48.338007,109.76233 C 47.904278,108.99269 47.435214,107.31008 47.025507,107.23108 C 37.560868,105.40605 29.054355,102.24419 22.275507,98.199831 C 13.28375,92.913118 4.7357792,85.418683 4.9317568,75.043581 C 4.8825477,74.356369 4.8351809,73.623625 4.8067568,72.918581 C 4.8067569,63.045573 11.710837,53.701389 22.713007,47.137331 C 23.275342,46.801833 23.87489,46.489577 24.463007,46.168581 z M 80.150507,46.731081 C 82.126416,47.677823 81.4758,49.202897 79.931757,50.137331 C 70.37591,56.577643 59.936157,58.769757 50.400507,58.137331 C 40.900997,57.507302 32.316817,54.069704 26.775507,50.481081 C 24.981648,49.106643 24.945501,46.812208 26.556757,47.668581 C 33.129297,52.659691 42.838187,55.343193 52.681757,55.387331 C 62.766707,55.432551 72.994252,52.707457 80.150507,46.731081 z M 80.681757,50.856081 C 89.544508,52.798028 97.697735,57.073274 105.46301,61.731081 C 113.86102,67.643745 120.42498,75.786217 122.02551,84.637331 C 119.75409,88.560309 116.90228,91.857076 112.83801,95.106081 C 112.6672,95.242622 113.29275,97.064861 113.11926,97.199831 C 113.02483,97.273299 112.77408,96.813329 112.58801,96.574831 C 112.58314,96.568588 112.59279,96.549522 112.58801,96.543581 C 112.51531,96.453283 112.43853,96.420865 112.40051,96.449831 C 112.20836,96.596221 112.09579,97.617895 111.90051,97.762331 C 111.71577,97.898969 110.9005,96.721228 110.71301,96.856081 C 109.10393,98.013437 107.00968,99.310754 105.21301,100.32483 C 104.05995,97.45 102.39599,95.235032 100.49426,93.512331 C 97.213131,89.211527 91.704856,86.709021 86.181757,85.543581 L 86.056757,85.356081 C 84.821712,86.343874 83.675538,87.394244 82.588007,88.512331 L 74.088007,82.449831 C 75.99692,81.891974 78.074296,81.219995 80.431757,80.387331 L 80.244257,78.699831 C 80.273654,78.68567 80.308678,78.68278 80.338007,78.668581 L 77.369257,75.606081 C 78.498325,74.960013 79.609123,74.244841 80.713007,73.481081 C 83.289695,71.467609 81.516821,67.693512 80.088007,68.106081 C 79.825511,68.31155 79.545454,68.502063 79.275507,68.699831 C 78.531122,63.295182 78.551155,57.635726 79.306757,51.731081 C 79.766723,51.440789 80.225884,51.166679 80.681757,50.856081 z M 78.306757,52.356081 L 78.275507,69.418581 C 77.608441,69.86953 76.917715,70.292484 76.213007,70.699831 L 76.025507,56.449831 C 75.465738,55.167855 74.713261,55.037543 73.494257,55.231081 C 72.669742,55.700814 72.169837,56.775084 72.181757,58.168581 L 72.181757,72.731081 C 71.112849,73.191123 70.018585,73.604022 68.900507,73.981081 L 68.900507,63.762331 C 68.116539,61.250021 66.145808,60.931718 63.806757,60.856081 C 60.9638,61.342177 59.570855,63.072341 59.119257,65.793581 L 58.963007,76.199831 C 57.602777,76.367917 56.235467,76.476875 54.869257,76.543581 L 54.869257,61.949831 C 54.910487,60.646017 53.913657,59.769193 52.869257,59.699831 C 51.364792,59.799755 50.982565,60.584262 50.619257,61.918581 L 50.681757,76.606081 C 49.812287,76.583342 48.947137,76.544401 48.088007,76.481081 L 47.994257,62.231081 C 48.010804,60.818336 47.363648,60.273505 46.306757,59.543581 C 44.755636,59.361059 44.309308,60.104636 43.806757,61.356081 L 43.869257,76.012331 C 42.859337,75.855319 41.846017,75.663871 40.869257,75.449831 L 40.931757,60.668581 C 40.944951,59.203469 40.419567,58.69899 39.244257,58.074831 C 38.255997,57.926548 37.196827,58.635277 36.931757,59.887331 L 36.650507,74.293581 C 35.820427,74.02327 34.999697,73.733653 34.213007,73.418581 L 34.306757,58.918581 C 34.249448,57.344781 33.53555,56.81737 32.338007,56.012331 C 31.334877,55.892946 30.335987,56.553186 30.119257,57.574831 L 30.119257,71.449831 C 29.476857,71.082685 28.866117,70.697186 28.275507,70.293581 C 28.661611,64.398531 28.25708,58.415791 28.244257,52.512331 C 33.880617,55.676276 41.665787,58.253814 50.275507,58.824831 C 59.271287,59.421452 69.144427,57.817355 78.306757,52.356081 z M 74.306757,55.356081 C 74.464147,55.416938 75.658253,56.365505 75.838007,56.668581 L 75.900507,71.137331 C 75.224801,71.500227 73.166561,72.28095 72.463007,72.606081 L 72.650507,58.043581 C 72.549884,56.702153 73.037947,55.821605 74.306757,55.356081 z M 32.213007,56.262331 C 33.098161,56.624133 33.885038,58.086273 34.056757,58.981081 L 33.900507,73.168581 C 33.178887,72.853947 30.982537,72.178046 30.306757,71.824831 L 30.556757,57.512331 C 30.679777,57.054672 31.750827,56.207326 32.213007,56.262331 z M 39.213007,58.262331 C 39.683607,58.332942 40.707837,59.441502 40.619257,60.512331 L 40.556757,75.512331 C 39.803187,75.329553 37.565327,74.760345 36.838007,74.543581 L 37.275507,59.949831 C 37.407771,59.061706 38.654795,58.499884 39.213007,58.262331 z M 45.619257,59.668581 C 46.983794,59.830479 47.71631,61.186636 47.681757,62.012331 L 47.650507,76.324831 C 46.904507,76.255706 44.852907,76.236751 44.119257,76.137331 L 44.056757,61.418581 C 43.93919,60.624944 45.190308,59.771717 45.619257,59.668581 z M 52.806757,60.106081 C 53.588549,60.109179 54.349782,60.734954 54.556757,61.981081 L 54.556757,76.668581 C 53.827871,76.69729 51.786017,76.634188 51.056757,76.637331 L 50.963007,61.918581 C 51.222614,60.722562 52.024965,60.102983 52.806757,60.106081 z M 27.681757,60.356081 C 27.57366,63.430308 27.826781,66.384129 27.275507,69.606081 C 26.910287,69.328569 26.553227,69.023749 26.213007,68.731081 C 25.186076,68.677536 24.002543,72.261641 26.025507,73.824831 C 31.906398,78.138713 41.021657,81.533294 51.150507,81.949831 L 50.775507,83.856081 C 50.817172,83.858641 50.858907,83.85359 50.900507,83.856081 L 50.869257,85.293581 C 56.001028,85.080995 59.758729,85.147232 64.088007,84.606081 C 64.412964,85.764722 66.517934,92.205258 68.119257,97.137331 C 69.69476,101.98988 71.393509,107.37935 71.494257,107.69983 C 66.199811,107.98976 59.728981,107.2635 52.338007,106.54358 C 52.026729,106.51326 51.058725,108.35504 50.744257,108.32483 C 50.27835,108.28009 50.207744,107.3087 49.744257,107.23108 C 49.329421,107.1616 49.159311,108.08647 48.744257,108.01233 C 48.201823,107.91544 47.661007,105.8047 47.119257,105.69983 C 46.491456,105.5783 45.869404,105.45711 45.244257,105.32483 C 41.736681,104.58263 38.229882,103.68512 34.838007,102.60608 L 40.900507,100.85608 L 37.931757,96.668581 L 26.681757,99.481081 C 25.380235,98.887479 24.112878,98.278366 22.900507,97.606081 L 35.775507,93.918581 L 32.838007,89.731081 L 19.869257,92.949831 L 21.494257,96.793581 C 21.114666,96.565429 20.737435,96.343065 20.369257,96.106081 L 19.619257,92.793581 C 18.609054,92.857118 17.535766,92.761435 16.775507,93.449831 C 15.77174,92.615869 14.823404,91.753177 13.963007,90.824831 C 12.269882,88.997992 10.758447,86.933198 9.5255068,84.731081 C 13.462448,74.10648 20.03967,66.014336 27.681757,60.356081 z M 64.650507,61.293581 C 66.236771,61.375678 67.667216,62.420836 68.338007,63.887331 L 68.400507,74.168581 C 65.835617,74.969536 62.230507,75.814348 59.525507,76.199831 L 59.681757,65.731081 C 59.80073,63.339891 61.829885,61.875994 63.963007,61.324831 C 64.194221,61.295966 64.423898,61.281853 64.650507,61.293581 z M 101.52551,62.418581 C 100.10896,62.456224 99.550765,63.107315 99.056757,63.574831 C 98.993155,63.603271 98.934792,63.643242 98.869257,63.668581 L 98.838007,65.324831 L 103.80676,68.981081 L 103.80676,68.668581 L 104.65051,68.324831 L 104.46301,65.637331 C 104.31701,64.961043 104.31393,64.108709 103.96301,63.637331 C 103.44123,63.229285 103.04881,62.826633 101.52551,62.418581 z M 101.58801,62.606081 C 102.30324,62.982235 103.06878,63.110683 103.68176,63.793581 C 103.9902,64.332882 104.21193,65.026596 104.27551,65.668581 L 104.30676,68.106081 L 103.83801,68.356081 L 103.90051,65.387331 C 103.87637,63.802786 102.81795,63.678022 101.90051,63.106081 C 101.02366,62.800762 100.43876,62.963391 99.900507,63.199831 C 100.38321,62.879813 100.93501,62.622238 101.58801,62.606081 z M 100.96301,63.168581 C 101.2061,63.173582 101.44667,63.242095 101.74426,63.356081 C 103.25573,63.961958 103.78226,64.779778 103.68176,65.731081 L 103.40051,68.137331 L 99.150507,65.293581 L 99.150507,63.887331 C 99.710981,63.564703 100.23371,63.153578 100.96301,63.168581 z M 98.056757,65.574831 L 86.775507,70.231081 L 91.400507,74.543581 L 103.18176,69.106081 L 98.056757,65.574831 z M 98.119257,65.949831 L 102.30676,69.012331 L 91.431757,73.981081 L 87.463007,70.418581 C 91.025579,68.954229 94.573495,67.454375 98.119257,65.949831 z M 107.55676,68.262331 C 106.14021,68.299975 105.58202,68.951065 105.08801,69.418581 C 105.02441,69.447018 104.96605,69.486992 104.90051,69.512331 L 104.86926,71.168581 L 109.83801,74.824831 L 109.83801,74.512331 L 110.68176,74.168581 L 110.49426,71.481081 C 110.34826,70.80479 110.34518,69.952459 109.99426,69.481081 C 109.47248,69.073032 109.08006,68.670383 107.55676,68.262331 z M 107.61926,68.449831 C 108.33449,68.825986 109.10003,68.954433 109.71301,69.637331 C 110.02145,70.176629 110.24318,70.870346 110.30676,71.512331 L 110.33801,73.949831 L 109.86926,74.199831 L 109.93176,71.231081 C 109.90762,69.646533 108.8492,69.521772 107.93176,68.949831 C 107.05491,68.644513 106.47001,68.807141 105.93176,69.043581 C 106.41447,68.723564 106.96626,68.465988 107.61926,68.449831 z M 106.99426,69.012331 C 107.23736,69.017333 107.47792,69.085845 107.77551,69.199831 C 109.28698,69.805709 109.81351,70.623528 109.71301,71.574831 L 109.43176,73.981081 L 105.18176,71.137331 L 105.18176,69.731081 C 105.74224,69.40845 106.26497,68.997328 106.99426,69.012331 z M 80.431757,69.199831 C 81.640769,69.068987 82.147357,71.079939 79.931757,72.762331 C 78.869239,73.524106 77.792732,74.233743 76.713007,74.887331 L 76.025507,74.199831 L 74.713007,74.824831 L 73.869257,74.074831 L 72.931757,74.449831 L 72.306757,73.856081 L 72.244257,73.887331 L 72.244257,73.762331 L 71.150507,74.137331 L 71.056757,74.043581 C 74.378011,72.857011 77.472624,71.300351 80.181757,69.262331 C 80.268009,69.233906 80.351156,69.208554 80.431757,69.199831 z M 26.556757,70.324831 C 32.759467,75.095086 41.877707,77.044573 51.650507,77.074831 C 53.532981,77.080659 55.432703,77.00739 57.338007,76.856081 L 57.306757,77.106081 L 56.088007,77.262331 L 56.088007,77.356081 L 56.025507,77.293581 L 55.838007,78.324831 L 53.650507,78.293581 L 53.525507,79.231081 L 51.744257,79.106081 L 51.275507,81.387331 C 41.324878,80.999392 32.432884,77.512316 26.775507,73.106081 C 25.647174,72.789039 25.017385,70.646676 26.556757,70.324831 z M 104.08801,71.418581 L 92.806757,76.074831 L 97.431757,80.387331 L 109.21301,74.949831 L 104.08801,71.418581 z M 104.15051,71.793581 L 108.33801,74.856081 L 97.463007,79.824831 L 93.494257,76.262331 C 97.056831,74.797976 100.60474,73.298125 104.15051,71.793581 z M 114.80676,74.074831 C 113.39021,74.112473 112.83202,74.763565 112.33801,75.231081 C 112.27441,75.259516 112.21605,75.299492 112.15051,75.324831 L 112.11926,76.981081 L 117.08801,80.637331 L 117.08801,80.324831 L 117.93176,79.981081 L 117.74426,77.293581 C 117.59826,76.617288 117.59518,75.764959 117.24426,75.293581 C 116.72248,74.88553 116.33006,74.482883 114.80676,74.074831 z M 71.838007,74.137331 L 74.150507,76.106081 C 69.211342,78.125238 62.430217,80.466777 55.963007,79.887331 L 56.369257,77.574831 L 56.244257,77.481081 L 57.244257,77.387331 L 57.088007,78.293581 C 57.119113,78.292497 57.150723,78.294622 57.181757,78.293581 L 57.244257,79.512331 C 61.620578,79.383367 66.543378,79.114968 71.963007,76.606081 L 72.088007,75.387331 C 72.144645,75.36717 72.187132,75.345285 72.244257,75.324831 L 71.338007,74.324831 L 71.838007,74.137331 z M 70.525507,74.231081 L 71.213007,75.199831 C 66.947967,76.747773 62.067854,78.006706 57.619257,77.824831 L 57.806757,76.824831 C 62.153732,76.448029 66.501988,75.60837 70.525507,74.231081 z M 114.86926,74.262331 C 115.58449,74.638484 116.35003,74.766933 116.96301,75.449831 C 117.27145,75.989127 117.49318,76.682846 117.55676,77.324831 L 117.58801,79.762331 L 117.11926,80.012331 L 117.18176,77.043581 C 117.15762,75.459031 116.0992,75.334272 115.18176,74.762331 C 114.30491,74.457011 113.72001,74.619641 113.18176,74.856081 C 113.66447,74.536062 114.21626,74.278488 114.86926,74.262331 z M 73.963007,74.512331 L 76.869257,77.418581 C 69.121167,80.874568 60.563656,82.489486 53.338007,82.012331 L 54.056757,78.637331 L 55.775507,78.543581 L 55.431757,80.418581 C 55.462529,80.422196 55.494735,80.415102 55.525507,80.418581 L 55.525507,81.512331 C 62.74708,81.542306 67.399021,80.674368 74.681757,77.543581 L 74.681757,76.293581 C 74.72334,76.275726 74.765345,76.248901 74.806757,76.231081 L 73.119257,74.637331 L 73.963007,74.512331 z M 75.900507,74.637331 L 79.744257,78.606081 C 70.792715,83.104534 59.384372,84.088743 51.150507,83.543581 L 52.150507,79.481081 L 53.494257,79.449831 L 53.025507,82.418581 C 53.035812,82.418798 53.046448,82.41837 53.056757,82.418581 L 53.088007,83.074831 C 61.355515,83.251259 64.879766,82.977841 77.681757,78.856081 L 77.681757,77.637331 C 77.702964,77.628132 77.723065,77.615307 77.744257,77.606081 L 74.900507,75.012331 L 75.900507,74.637331 z M 114.24426,74.824831 C 114.48736,74.829831 114.72792,74.898345 115.02551,75.012331 C 116.53698,75.618207 117.06351,76.436028 116.96301,77.387331 L 116.68176,79.793581 L 112.43176,76.949831 L 112.43176,75.543581 C 112.99224,75.220948 113.51497,74.809828 114.24426,74.824831 z M 127.27551,75.512331 C 127.57034,78.367817 126.71301,85.051381 126.71301,87.106081 C 126.71301,96.979083 120.77768,106.66703 109.77551,113.23108 C 108.69581,113.87525 103.90272,117.07356 102.74426,117.66858 C 102.10785,115.15321 102.41564,107.74739 101.61926,103.01233 C 99.548459,97.698037 95.895966,94.657534 92.338007,92.981081 C 92.240625,92.92665 92.125935,92.878788 92.025507,92.824831 C 90.830474,92.166862 89.490847,91.880786 88.181757,91.543581 C 86.258251,93.250147 82.872408,99.317764 82.556757,107.07483 C 82.286539,113.71543 82.880599,117.274 83.431757,122.07483 C 78.340055,122.90109 71.372471,123.51233 65.838007,123.51233 C 48.995621,123.51233 33.558927,119.07638 22.556757,112.51233 C 16.844568,109.10436 12.207423,105.02303 9.0567568,100.51233 L 10.056757,98.387331 C 10.622192,98.431854 11.379489,97.969821 11.900507,97.949831 C 12.650241,97.279903 12.536287,96.315585 12.900507,95.356081 L 13.713007,94.699831 L 13.900507,94.574831 L 12.619257,95.012331 C 12.262239,95.923307 11.932788,96.846203 11.588007,97.762331 C 11.316063,97.789594 10.807263,97.73965 10.400507,97.699831 L 10.556757,97.356081 L 10.931757,93.856081 L 11.244257,92.199831 L 11.181757,92.137331 L 10.431757,93.574831 L 10.306757,96.981081 L 9.4005068,98.043581 L 8.5567568,94.668581 L 8.3692568,92.418581 L 8.1817568,92.168581 L 8.1817568,94.668581 L 8.9005068,98.637331 L 8.2755068,99.356081 C 5.8430565,95.501398 4.4942568,91.354426 4.4942568,87.043581 C 4.4942568,85.147114 4.1662571,80.371545 4.2442568,77.324831 C 6.2251666,85.467516 12.824266,93.710235 22.025507,99.199831 C 28.894131,103.29775 37.385138,106.06913 46.806757,107.98108 C 47.513915,108.12459 47.897561,109.35226 48.275507,110.26233 L 46.963007,113.26233 L 43.213007,115.10608 L 42.338007,117.51233 L 42.525507,117.57483 L 43.463007,115.13733 L 45.525507,114.38733 L 46.775507,119.01233 L 46.900507,118.94983 L 46.181757,114.13733 L 47.275507,113.73108 L 48.369257,110.48108 C 48.389909,110.52745 48.411055,110.59409 48.431757,110.63733 C 48.589635,110.5437 49.353822,109.6976 49.525507,109.51233 C 49.656542,109.62559 50.394192,111.40723 50.650507,111.63733 C 50.853444,111.36753 51.759229,109.05738 52.369257,109.13733 C 56.650034,109.69838 61.091734,110.01233 65.650507,110.01233 C 69.464563,110.01233 74.683721,109.65855 78.306757,109.26233 C 78.300042,109.07031 78.310157,108.88957 78.306757,108.69983 C 78.469129,100.14698 79.926453,92.040378 87.744257,88.043581 C 88.359114,88.131594 89.144871,88.30195 90.025507,88.543581 L 90.431757,90.418581 L 88.869257,91.168581 L 88.806757,91.231081 L 90.681757,90.762331 L 90.806757,89.981081 L 91.556757,91.512331 L 95.650507,93.449831 L 97.713007,96.262331 L 97.963007,96.199831 L 96.306757,93.449831 L 98.306757,93.293581 L 95.900507,93.012331 L 92.088007,91.324831 L 91.056757,88.856081 C 95.69575,90.369979 102.36374,94.142331 104.86926,102.73108 C 107.71735,101.52492 107.12047,100.92201 109.58801,99.449831 C 110.19104,99.090055 110.79336,98.732427 111.36926,98.356081 C 111.5006,98.270249 111.75105,98.627581 111.99426,98.918581 L 112.02551,99.168581 L 111.86926,100.63733 L 113.11926,103.23108 L 113.11926,103.44983 L 113.05676,103.48108 L 113.15051,103.57483 L 113.33801,107.54358 L 113.52551,104.10608 L 115.52551,106.66858 L 115.68176,106.60608 L 113.58801,103.32483 L 113.58801,103.16858 L 112.11926,100.51233 L 112.27551,99.199831 C 112.32781,99.233166 112.39668,99.254829 112.43176,99.231081 C 112.64867,99.084259 112.59394,98.005231 112.80676,97.856081 C 112.94634,97.758262 113.43144,98.760711 113.77551,99.293581 L 114.05676,100.44983 L 114.21301,100.44983 L 115.61926,103.82483 L 115.74426,103.73108 L 114.83801,100.48108 L 117.24426,100.54358 L 119.11926,102.73108 L 119.21301,102.66858 L 117.77551,100.73108 L 119.52551,101.19983 L 119.46301,101.07483 L 117.58801,100.48108 L 117.46301,100.32483 L 114.36926,100.35608 L 114.08801,99.606081 C 114.27987,99.467255 113.6184,96.778058 113.80676,96.637331 C 121.56587,90.840383 126.35841,83.434217 127.27551,75.512331 z M 113.33801,107.54358 L 113.30676,107.85608 L 113.33801,107.82483 L 113.33801,107.54358 z M 71.556757,75.543581 L 71.681757,76.324831 C 66.378132,78.151811 62.249537,79.292552 57.744257,79.106081 L 57.681757,78.262331 C 60.957192,78.167872 64.104112,78.144366 71.556757,75.543581 z M 74.213007,76.481081 L 74.275507,77.262331 C 68.261452,80.117664 62.018224,81.465679 55.806757,81.074831 L 55.869257,80.449831 C 62.435675,81.086193 68.958764,78.716884 74.213007,76.481081 z M 111.33801,77.231081 L 100.05676,81.887331 L 104.68176,86.199831 L 116.46301,80.762331 L 111.33801,77.231081 z M 111.40051,77.606081 L 115.58801,80.668581 L 104.71301,85.637331 L 100.74426,82.074831 C 104.30684,80.610474 107.85475,79.110625 111.40051,77.606081 z M 77.494257,77.699831 L 77.556757,78.637331 C 70.446299,81.120916 62.718179,83.393218 53.338007,82.918581 L 53.306757,82.418581 C 60.992024,82.540747 69.74357,81.026404 77.494257,77.699831 z M 79.869257,78.887331 L 80.025507,80.012331 C 71.063162,83.922985 61.040543,84.833017 51.244257,84.949831 L 51.025507,83.856081 C 63.178165,84.564549 72.566632,82.330007 79.869257,78.887331 z M 73.931757,82.512331 L 82.369257,88.731081 C 80.90394,90.264151 79.566591,91.928204 78.400507,93.731081 C 77.161275,96.400717 76.599344,102.27083 76.494257,107.13733 C 75.100654,107.39648 73.449766,107.59561 71.619257,107.69983 C 71.530826,107.40321 69.915968,101.96619 68.338007,97.106081 C 66.727846,92.146793 64.600006,85.518805 64.338007,84.574831 C 67.112151,84.21491 70.156411,83.608307 73.931757,82.512331 z M 28.900507,83.418581 L 15.931757,86.637331 L 18.025507,91.543581 L 31.838007,87.606081 L 28.900507,83.418581 z M 28.744257,83.793581 L 31.088007,87.418581 L 18.338007,90.981081 L 16.494257,86.918581 C 20.578595,85.910241 24.654819,84.844267 28.744257,83.793581 z M 86.119257,85.824831 L 87.088007,87.512331 C 83.984938,90.131309 77.946106,94.129673 77.681757,107.66858 L 76.931757,106.73108 C 76.885833,101.09247 77.588378,97.194994 79.275507,94.231081 C 81.246943,91.448361 82.334564,88.72088 86.119257,85.824831 z M 86.431757,85.949831 C 90.131395,86.45313 95.149167,88.631296 98.400507,91.824831 C 95.965984,90.164895 93.335371,89.126213 90.963007,88.418581 L 91.525507,87.543581 L 91.400507,87.481081 L 90.431757,87.981081 L 89.150507,86.887331 L 88.963007,87.012331 L 89.713007,88.074831 C 88.895302,87.859066 88.105441,87.668716 87.400507,87.512331 L 86.431757,85.949831 z M 15.588007,86.606081 L 13.806757,86.918581 L 13.681757,87.262331 L 14.306757,90.699831 L 15.181757,91.856081 L 17.775507,91.668581 L 15.588007,86.606081 z M 15.494257,86.981081 L 17.275507,91.481081 L 15.650507,91.199831 L 15.650507,89.106081 L 14.431757,87.106081 L 15.494257,86.981081 z M 14.338007,87.106081 L 15.306757,89.356081 L 15.150507,91.012331 L 14.525507,90.731081 L 14.025507,87.137331 L 14.338007,87.106081 z M 32.681757,90.106081 L 35.025507,93.699831 L 22.338007,97.293581 C 22.30577,97.275135 22.27642,97.249587 22.244257,97.231081 L 20.431757,93.199831 C 24.516094,92.191488 28.592319,91.156767 32.681757,90.106081 z M 88.400507,92.418581 C 89.963666,92.769995 91.920499,93.39516 93.806757,94.387331 C 95.627434,95.716655 96.726531,97.186417 97.494257,98.699831 L 88.400507,92.418581 z M 18.494257,93.324831 C 18.705123,93.334998 18.918174,93.39578 19.150507,93.481081 L 19.713007,95.668581 C 18.850245,95.089248 18.033494,94.456959 17.244257,93.824831 C 17.606736,93.497048 18.031754,93.302531 18.494257,93.324831 z M 113.02551,95.637331 L 113.36926,96.293581 C 113.3684,96.308099 113.36887,96.307633 113.36926,96.324831 C 113.38076,96.83648 113.94251,98.507879 113.77551,98.637331 C 113.76922,98.642208 113.75235,98.637002 113.74426,98.637331 L 113.43176,97.512331 C 113.56586,97.409332 113.13278,96.198035 113.02551,95.637331 z M 95.963007,95.731081 C 98.543991,97.597112 100.64125,100.28066 100.90051,103.98108 L 101.86926,117.63733 L 100.30676,117.38733 C 100.48435,113.75308 100.84652,108.04413 99.338007,102.66858 C 98.667518,100.27932 97.991661,97.903033 95.963007,95.731081 z M 112.40051,96.949831 L 112.58801,97.324831 L 112.58801,97.356081 C 112.38509,97.569852 112.49601,98.659825 112.27551,98.824831 C 112.25969,98.83667 112.23304,98.824334 112.21301,98.824831 L 112.05676,98.168581 C 112.08198,98.175763 112.10362,98.179979 112.11926,98.168581 C 112.29827,98.038105 112.22399,97.081821 112.40051,96.949831 z M 112.68176,97.043581 C 112.87969,97.182415 113.1077,97.401483 113.27551,97.481081 L 113.52551,98.449831 C 113.2964,98.174779 112.98477,97.674545 112.77551,97.449831 L 112.68176,97.043581 z M 37.806757,97.074831 L 40.119257,100.66858 L 34.056757,102.35608 C 31.719906,101.58835 29.444639,100.72338 27.275507,99.762331 C 30.78726,98.888543 34.288882,97.978668 37.806757,97.074831 z M 110.96301,97.168581 C 111.21763,97.341721 111.66149,97.901134 111.93176,98.106081 L 111.99426,98.731081 C 111.70129,98.486429 111.29377,97.919708 111.05676,97.824831 L 110.96301,97.168581 z M 110.74426,97.199831 L 110.80676,97.918581 C 110.26087,98.318189 109.72432,98.720985 109.18176,99.106081 C 107.21436,100.27987 107.40627,100.45413 105.71301,101.63733 C 105.58895,101.25412 105.41616,100.90585 105.27551,100.54358 C 107.21155,99.385289 109.12441,98.341344 110.74426,97.199831 z M 52.119257,107.54358 C 61.885438,108.93038 71.332099,108.67844 76.869257,107.57483 L 77.650507,108.13733 C 77.649615,108.23401 77.650814,108.32094 77.650507,108.41858 C 74.514256,108.7164 68.927185,108.98108 65.650507,108.98108 C 60.987082,108.98108 56.481995,109.05676 52.088007,108.44983 C 51.765483,108.40528 51.039045,110.60503 50.806757,111.04358 C 50.764535,111.03731 50.719445,111.0099 50.681757,110.98108 L 50.744257,108.98108 C 51.162501,108.7577 51.743554,107.49024 52.119257,107.54358 z M 49.681757,107.94983 C 50.05801,108.01174 50.170454,108.77756 50.494257,108.98108 L 50.556757,110.85608 C 50.225516,110.36876 50.063371,109.1116 49.650507,109.04358 C 49.640285,109.04899 49.629759,109.0682 49.619257,109.07483 C 49.623638,108.71832 49.668395,108.31372 49.681757,107.94983 z M 49.588007,107.98108 C 49.53692,108.39298 49.446847,108.86263 49.431757,109.23108 C 49.155659,109.51089 48.827335,109.98131 48.588007,110.10608 C 48.540523,110.07236 48.480656,110.01771 48.431757,109.94983 L 48.494257,108.76233 C 48.502983,108.7775 48.517013,108.81064 48.525507,108.82483 C 48.759513,108.48213 49.222976,108.00764 49.588007,107.98108 z M 50.744257,111.51233 L 52.494257,113.29358 L 51.744257,119.94983 L 51.994257,119.94983 L 52.525507,116.44983 C 53.69849,117.37592 55.539654,117.88546 56.744257,118.66858 L 56.869257,121.10608 L 56.931757,121.10608 L 56.994257,118.48108 L 52.588007,116.04358 L 53.056757,112.91858 L 50.744257,111.51233 z"
       id="path2308" />
  </g>
</svg>
