<?xml version="1.0" encoding="UTF-8" standalone="no"?>
<!DOCTYPE svg PUBLIC "-//W3C//DTD SVG 1.0//EN"
"http://www.w3.org/TR/2001/REC-SVG-20010904/DTD/svg10.dtd">
<!-- Created with Sodipodi ("http://www.sodipodi.com/") -->
<svg
   xmlns="http://www.w3.org/2000/svg"
   xmlns:xlink="http://www.w3.org/1999/xlink"
   version="1.0"
   x="0"
   y="0"
   width="437.5"
   height="437.5"
   id="svg1">
  <defs
     id="defs3">
    <linearGradient
       id="linearGradient589">
      <stop
         style="stop-color:#1775f7;stop-opacity:1;"
         offset="0"
         id="stop590" />
      <stop
         style="stop-color:#85daff;stop-opacity:1;"
         offset="1"
         id="stop591" />
    </linearGradient>
    <linearGradient
       id="linearGradient842">
      <stop
         style="stop-color:#ff0095;stop-opacity:1;"
         offset="0"
         id="stop843" />
      <stop
         style="stop-color:#ff55ff;stop-opacity:1;"
         offset="1"
         id="stop844" />
    </linearGradient>
    <linearGradient
       id="linearGradient53">
      <stop
         style="stop-color:#ff52ff;stop-opacity:1;"
         offset="0"
         id="stop54" />
      <stop
         style="stop-color:#ffc7ff;stop-opacity:1;"
         offset="1"
         id="stop55" />
    </linearGradient>
    <linearGradient
       id="linearGradient48">
      <stop
         style="stop-color:#ff4700;stop-opacity:1;"
         offset="0"
         id="stop49" />
      <stop
         style="stop-color:#ffff00;stop-opacity:1;"
         offset="1"
         id="stop50" />
    </linearGradient>
    <linearGradient
       x1="0.477705"
       y1="0.84375"
       x2="0.56687897"
       y2="0.40625"
       id="linearGradient51"
       xlink:href="#linearGradient48" />
    <linearGradient
       x1="3.10937303e-8"
       y1="1.68577099e-8"
       x2="1"
       y2="1.68577099e-8"
       id="linearGradient52"
       xlink:href="#linearGradient48" />
    <radialGradient
       id="radialGradient577"
       xlink:href="#linearGradient842" />
    <radialGradient
       cx="0.38801301"
       cy="0.196971"
       r="0.44820601"
       fx="0.38801301"
       fy="0.196971"
       id="radialGradient845"
       xlink:href="#linearGradient842" />
    <radialGradient
       cx="0.30136999"
       cy="0.765625"
       r="0.47648999"
       fx="0.30136999"
       fy="0.765625"
       id="radialGradient846"
       xlink:href="#linearGradient53" />
    <radialGradient
       cx="0.69348699"
       cy="0.41406301"
       r="0.45785299"
       fx="0.69348699"
       fy="0.41406301"
       id="radialGradient614"
       xlink:href="#linearGradient589" />
    <linearGradient
       x1="0.95275599"
       y1="0.42187601"
       x2="0.37795299"
       y2="0.484375"
       id="linearGradient597"
       xlink:href="#linearGradient48" />
    <linearGradient
       x1="-9.73982779e-8"
       y1="1.09737996e-7"
       x2="1"
       y2="1.09737996e-7"
       id="linearGradient598"
       xlink:href="#linearGradient48" />
    <radialGradient
       id="radialGradient592"
       xlink:href="#linearGradient589" />
  </defs>
  <path
     d="M 214.8609 81.38799 C 214.8609 103.3629 194.82 121.1771 170.0982 121.1771 C 145.3765 121.1771 125.3355 103.3629 125.3355 81.38799 C 125.3355 59.4131 145.3765 41.59893 170.0982 41.59893 C 194.82 41.59893 214.8609 59.4131 214.8609 81.38799 z "
     style="font-size:12;fill:#ffe800;fill-opacity:1;fill-rule:evenodd;stroke:#ff9000;stroke-width:6.25;"
     id="path603" />
  <path
     d="M 89.6935 416.6097 C 127.0284 440.7721 301.3661 436.9387 340.1169 417.864 C 375.4629 395.9183 339.2287 390.146 312.347 377.1136 C 232.0632 378.7095 172.7943 382.5664 115.028 376.5689 C 86.08455 385.0712 68.91955 399.9092 89.6935 416.6097 z "
     style="font-size:12;fill:url(#radialGradient845);fill-opacity:1;fill-rule:evenodd;stroke-width:1;"
     id="path591" />
  <path
     d="M 26.7283 271.3777 C 26.62772 234.357 43.68479 185.4338 68.93085 172.9782 C 104.6667 167.9959 320.3265 150.0624 336.2138 153.0492 C 366.9691 166.6919 410.7717 208.409 417.8054 267.641 C 418.4498 310.6314 367.5423 355.9753 312.299 377.2506 C 289.9832 383.4784 137.4822 384.7239 116.7604 373.5138 C 72.93169 354.8305 26.94526 313.7935 26.7283 271.3777 z "
     style="font-size:12;fill:url(#radialGradient846);fill-opacity:1;fill-rule:evenodd;stroke:#7f0000;stroke-width:6.25;"
     id="path584" />
  <path
     d="M 146.4436 78.4087 C 139.2848 72.15252 133.5393 43.87777 126.749 36.12393 C 116.5864 34.96247 113.0808 37.55926 108.0657 41.75326 C 101.6439 41.00688 90.89924 38.5642 88.76674 40.49821 C 84.92825 46.67186 85.76044 56.54976 81.33848 68.40027 C 76.9165 80.25072 67.24039 94.0738 66.25873 98.82199 C 64.55312 107.8085 71.28828 132.0013 80.32625 132.3582 C 90.51034 131.7163 151.5263 87.41549 146.4436 78.4087 z "
     style="font-size:12;fill:url(#radialGradient592);fill-opacity:1;fill-rule:evenodd;stroke:#3373e6;stroke-width:6.76223;"
     id="path582" />
  <path
     d="M 343.2479 211.0126 C 332.9491 211.0126 292.177 219.7739 263.0629 216.6397 C 262.1725 227.452 252.1361 284.9199 270.0966 302.4517 C 290.5458 309.0852 335.1687 302.4518 355.9087 302.4518 C 399.6969 273.4233 353.0951 220.8598 343.2479 211.0126 z "
     style="font-size:12;fill:url(#linearGradient51);fill-opacity:1;fill-rule:evenodd;stroke:#b50000;stroke-width:6.25;"
     id="path596" />
  <path
     d="M 303.4196 298.4995 C 315.8381 287.9399 279.0096 268.4672 266.7805 260.5129 C 296.1325 262.9974 306.1188 249.4472 305.3449 239.3457 C 303.7968 219.1425 291.0655 224.8701 267.1241 222.1095 C 266.1613 230.3247 259.4532 276.2944 273.4719 298.4112 C 281.8636 300.1301 292.0727 301.1288 303.4196 298.4995 z "
     style="font-size:12;fill:url(#radialGradient577);fill-opacity:1;fill-rule:evenodd;stroke:#6d0000;stroke-width:6.25;stroke-linejoin:bevel;"
     id="path633" />
  <path
     d="M 74.55788 232.1142 L 92.46562 243.0695 L 111.6425 234.5282 L 106.7572 254.9448 L 120.8064 270.5437 L 99.87942 272.2066 L 89.38542 290.3885 L 81.33712 270.9996 L 60.80229 266.6378 L 76.75514 252.9918 L 74.55788 232.1142 z "
     style="font-size:12;fill:url(#linearGradient52);fill-opacity:1;fill-rule:evenodd;stroke:#d22800;stroke-width:6.25;"
     id="path590" />
  <path
     d="M 168.8103 174.4372 L 181.2892 184.9465 L 197.0209 180.6246 L 190.8822 195.7403 L 199.854 209.3665 L 183.5812 208.1992 L 173.3942 220.9427 L 169.4758 205.1056 L 154.2081 199.3552 L 168.0593 190.7346 L 168.8103 174.4372 z "
     style="font-size:12;fill:url(#linearGradient597);fill-opacity:1;fill-rule:evenodd;stroke:#a10000;stroke-width:6.25;"
     id="path595" />
  <path
     d="M 335.2945 297.5505 C 322.8757 286.9909 352.6707 264.0012 364.8997 256.047 C 335.5477 258.5315 322.7478 247.0914 323.5219 236.9898 C 325.0699 216.7867 315.9964 220.4041 339.9379 216.2368 C 346.5276 224.452 385.591 264.7947 363.1319 288.3182 C 353.3336 299.1811 353.6751 298.773 335.2945 297.5505 z "
     style="font-size:12;fill:url(#radialGradient577);fill-opacity:1;fill-rule:evenodd;stroke:#850000;stroke-width:6.25;stroke-linejoin:bevel;"
     id="path583" />
  <path
     d="M 19.69453 191.6616 C 25.09036 198.0751 34.3581 199.0313 45.01608 199.1351 C 62.05445 198.3807 89.17928 177.7029 105.5064 173.2548 C 136.9102 186.9214 169.163 166.6467 207.6733 161.4484 C 240.2152 188.0813 282.9936 162.1493 299.6383 160.5225 C 330.0711 157.5482 387.9639 195.1154 402.3311 182.9426 C 408.9876 177.3027 390.6923 143.8936 366.7577 140.3887 C 359.567 118.7494 345.0804 85.69469 325.2011 80.30487 C 322.0171 59.01249 305.2653 47.23278 305.2653 33.47504 C 302.4518 13.13084 274.8036 10.0452 254.4808 11.05492 C 236.0433 11.772 218.4049 34.61231 209.4489 49.3145 C 199.9974 52.68669 174.9924 62.15797 164.2893 78.1884 C 145.6284 82.28207 129.3327 86.96659 117.4053 98.67008 C 106.4819 102.1826 84.68163 117.8559 80.21413 133.4541 C 72.01204 137.2743 54.21698 153.0125 46.7681 168.1972 C 31.36142 177.4136 18.34311 190.0553 19.69453 191.6616 z "
     style="font-size:12;fill:url(#radialGradient614);fill-opacity:1;fill-rule:evenodd;stroke:#3373fd;stroke-width:6.25;"
     id="path581" />
  <path
     d="M 157.5562 377.0096 C 153.7563 355.3195 143.4887 328.2422 143.4887 309.4855 C 142.082 290.0207 182.3231 256.0289 194.1318 256.0289 C 208.9801 256.2262 241.9614 290.7288 241.9614 310.8923 C 241.9614 332.9314 228.5271 361.3433 219.4534 379.8232 C 205.5212 381.6538 167.585 377.9429 157.5562 377.0096 z "
     style="font-size:12;fill:url(#linearGradient598);fill-opacity:1;fill-rule:evenodd;stroke:#7f0000;stroke-width:6.25;"
     id="path585" />

  <metadata>
    <rdf:RDF 
     xmlns="http://web.resource.org/cc/"
     xmlns:dc="http://purl.org/dc/elements/1.1/"
     xmlns:rdf="http://www.w3.org/1999/02/22-rdf-syntax-ns#">
      <Work rdf:about="">
        <dc:title>Lemon SVG theme</dc:title>
	<dc:description></dc:description>
        <dc:subject>
          <rdf:Bag>
            <rdf:li>lemon_theme_icon</rdf:li>
            <rdf:li>icon</rdf:li>
          </rdf:Bag>
        </dc:subject>
        <dc:publisher>
           <Agent rdf:about="">
             <dc:title>Open Clip Art Library</dc:title>
           </Agent>
         </dc:publisher>
         <dc:creator>
           <Agent rdf:about="">
             <dc:title>Jose Hevia</dc:title>
           </Agent>
        </dc:creator>
         <dc:rights>
           <Agent rdf:about="">
             <dc:title></dc:title>
           </Agent>
        </dc:rights>
        <dc:date></dc:date>
        <dc:format>image/svg+xml</dc:format>
        <dc:type rdf:resource="http://purl.org/dc/dcmitype/StillImage" />
        <license rdf:resource="Public Domain">
	  <dc:date>1</dc:date>
	</license>
        <dc:language>en</dc:language>
      </Work>

      <License rdf:about="Public Domain">
         <permits rdf:resource="http://web.resource.org/cc/Reproduction" />
         <permits rdf:resource="http://web.resource.org/cc/Distribution" />
         <permits rdf:resource="http://web.resource.org/cc/DerivativeWorks" />
      </License>


    </rdf:RDF>
  </metadata>
</svg>
