<?xml version="1.0" encoding="UTF-8" standalone="no"?>
<!DOCTYPE svg PUBLIC "-//W3C//DTD SVG 1.0//EN"
"http://www.w3.org/TR/2001/REC-SVG-20010904/DTD/svg10.dtd">
<!-- Created with Sodipodi ("http://www.sodipodi.com/") -->
<svg
   xmlns="http://www.w3.org/2000/svg"
   xmlns:xlink="http://www.w3.org/1999/xlink"
   version="1.0"
   x="0"
   y="0"
   width="437.5"
   height="437.5"
   id="svg32">
  <defs
     id="defs34">
    <linearGradient
       id="linearGradient60">
      <stop
         style="stop-color:#ffffb2;stop-opacity:0.9608;"
         offset="0"
         id="stop61" />
      <stop
         style="stop-color:#000000;stop-opacity:0.4588;"
         offset="1"
         id="stop62" />
    </linearGradient>
    <linearGradient
       id="linearGradient57">
      <stop
         style="stop-color:#ffff9f;stop-opacity:0.9608;"
         offset="0"
         id="stop58" />
      <stop
         style="stop-color:#000000;stop-opacity:0.4588;"
         offset="1"
         id="stop59" />
    </linearGradient>
    <linearGradient
       id="linearGradient129">
      <stop
         style="stop-color:#7a877d;stop-opacity:1;"
         offset="0"
         id="stop130" />
      <stop
         style="stop-color:#222f45;stop-opacity:1;"
         offset="1"
         id="stop131" />
    </linearGradient>
    <linearGradient
       x1="0"
       y1="0"
       x2="1"
       y2="1"
       id="linearGradient132"
       xlink:href="#linearGradient129" />
    <linearGradient
       x1="0"
       y1="0"
       x2="1"
       y2="1"
       id="linearGradient142"
       xlink:href="#linearGradient129" />
    <linearGradient
       x1="0"
       y1="0"
       x2="1"
       y2="1"
       id="linearGradient48"
       xlink:href="#linearGradient129" />
    <linearGradient
       x1="0.49308601"
       y1="0.42857099"
       x2="0.57143998"
       y2="0.51428598"
       id="linearGradient49"
       xlink:href="#linearGradient129" />
    <linearGradient
       x1="0.45062399"
       y1="0.42857099"
       x2="0.40768901"
       y2="0.47428599"
       id="linearGradient50"
       xlink:href="#linearGradient129" />
    <linearGradient
       x1="-0.33721501"
       y1="0.54857099"
       x2="0.46689001"
       y2="0.56"
       id="linearGradient53"
       xlink:href="#linearGradient129" />
    <linearGradient
       x1="1.09466004"
       y1="0.125"
       x2="0.41306201"
       y2="0.8125"
       id="linearGradient54"
       xlink:href="#linearGradient129" />
    <linearGradient
       x1="0.61980802"
       y1="-2.12329999e-2"
       x2="0.479233"
       y2="1.20011997"
       id="linearGradient815"
       xlink:href="#linearGradient129" />
    <linearGradient
       x1="0.54704398"
       y1="0.131429"
       x2="0.45992601"
       y2="0.80000001"
       id="linearGradient104"
       xlink:href="#linearGradient129" />
  </defs>
  <path
     d="M 44.65749 193.3203 C -13.37922 175.2035 175.4265 54.50517 187.2971 35.84744 C 196.6425 18.80926 199.7366 43.19062 217.7351 42.83409 C 232.8933 41.6694 255.5142 11.74967 260.0093 39.95911 C 263.292 61.71639 479.3926 167.1368 416.3696 194.0858 C 382.0092 172.3805 252.0955 92.87264 222.6439 69.75392 C 194.2533 87.64178 67.90096 177.8124 44.65749 193.3203 z "
     style="font-size:12;fill:#ffffff;fill-opacity:1;fill-rule:evenodd;stroke:#000000;stroke-width:4.710381;stroke-linejoin:round;"
     id="path874" />
  <path
     d="M 27.67043 402.0678 C 52.34276 419.002 96.78595 423.2615 109.0952 424.3977 C 192.6515 428.9668 344.1605 437.9121 416.9579 407.3708 C 415.259 363.3504 375.8261 306.4617 360.7225 329.66 C 343.2124 315.9223 355.1501 319.3356 350.6819 319.3356 C 310.3775 293.1521 120.2611 299.7592 78.62563 321.622 C 59.59674 304.5497 48.39038 348.4024 27.67043 402.0678 z "
     style="font-size:12;fill:#ffffff;fill-opacity:1;fill-rule:evenodd;stroke:#000000;stroke-width:6.311911;"
     id="path19" />
  <path
     d="M 80.48032 369.9431 C 86.33486 381.755 54.67449 410.7957 65.66015 415.9468 C 191.4003 403.6317 229.611 395.5502 298.7902 418.679 C 306.7597 413.0738 375.8796 371.2471 359.5019 367.211 C 334.1784 363.5668 181.2883 362.5557 80.48032 369.9431 z "
     style="font-size:12;fill-opacity:0.226601;fill-rule:evenodd;"
     id="path20" />
  <path
     d="M 161.4183 306.7362 C 162.8844 314.1903 162.3879 355.431 161.0261 368.1808 C 153.2266 370.8101 127.3777 370.8535 116.4534 368.8215 C 116.4097 360.2666 116.302 312.4572 116.9258 306.7357 C 122.94 307.5128 158.1791 306.1818 161.4183 306.7362 z "
     style="font-size:12;fill:#b80000;fill-opacity:1;fill-rule:evenodd;stroke:#000000;stroke-width:0.52058;stroke-linejoin:round;"
     id="path52" />
  <path
     d="M 78.77412 349.7895 C 78.77412 332.1991 81.28308 303.2297 81.28308 292.0962 C 81.28308 286.024 72.87613 185.5476 72.87613 179.4744 C 72.87613 177.2788 213.272 71.7226 218.8319 71.7226 C 289.3214 117.0675 380.0579 173.6097 387.1654 183.3261 C 388.9868 186.8516 356.1289 335.1222 356.1289 346.1454 C 356.1289 349.9915 355.9948 358.2909 355.5016 366.1861 C 342.9511 365.5782 167.5379 366.8673 162.2126 365.5791 C 159.9919 351.77 165.4826 309.0211 163.7907 305.9266 C 160.8253 301.096 122.3602 300.703 114.3825 303.9122 C 110.3973 305.5154 119.4012 367.4011 113.5444 367.4011 C 104.1319 367.4011 89.44105 367.4011 80.0286 367.4011 C 78.43033 366.6273 78.77412 354.8275 78.77412 349.7895 z "
     style="font-size:12;fill:#ffffff;fill-opacity:1;fill-rule:evenodd;stroke:#000000;stroke-width:9.420762;"
     id="path12" />
  <path
     d="M 72.41006 174.3296 C 84.20507 165.0443 213.9272 70.41199 219.4871 70.41199 C 231.0025 74.22329 380.0581 174.4031 387.1656 180.6957 C 388.987 182.9789 368.4451 267.7976 367.9519 272.9108 C 355.4013 272.5171 87.47528 270.4211 78.06283 270.4211 C 76.46456 269.9199 71.09907 188.7473 72.41006 174.3296 z "
     style="font-size:12;fill:#7b3b00;fill-opacity:1;fill-rule:evenodd;stroke:#000000;stroke-width:7.581407;"
     id="path408" />
  <path
     d="M 216.2214 218.6387 C 215.5664 239.3897 223.4294 246.5967 217.5324 267.1287 "
     style="font-size:12;fill:none;fill-opacity:1;fill-rule:evenodd;stroke:#6b0000;stroke-width:5;"
     id="path410" />
  <path
     d="M 309.2697 217.9834 C 308.6147 238.7344 316.4777 245.9414 310.5807 266.4734 "
     style="font-size:12;fill:none;fill-opacity:1;fill-rule:evenodd;stroke:#6b0000;stroke-width:5;"
     id="path411" />
  <path
     d="M 279.7825 218.6387 C 279.1275 239.3897 286.9905 246.5967 281.0935 267.1287 "
     style="font-size:12;fill:none;fill-opacity:1;fill-rule:evenodd;stroke:#6b0000;stroke-width:5;"
     id="path412" />
  <path
     d="M 247.019 218.6387 C 246.364 239.3897 254.227 246.5967 248.33 267.1287 "
     style="font-size:12;fill:none;fill-opacity:1;fill-rule:evenodd;stroke:#6b0000;stroke-width:5;"
     id="path413" />
  <path
     d="M 342.0322 217.9834 C 341.3772 238.7344 349.2402 245.9414 343.3432 266.4734 "
     style="font-size:12;fill:none;fill-opacity:1;fill-rule:evenodd;stroke:#6b0000;stroke-width:5;"
     id="path414" />
  <path
     d="M 375.4513 219.2947 C 316.6623 217.3287 241.7764 223.2257 210.3244 213.3967 "
     style="font-size:12;fill:none;fill-opacity:1;fill-rule:evenodd;stroke:#720000;stroke-width:5;"
     id="path415" />
  <path
     d="M 216.2214 218.6387 C 215.5664 239.3897 223.4294 246.5967 217.5324 267.1287 "
     style="font-size:12;fill:none;fill-opacity:1;fill-rule:evenodd;stroke:#6b0000;stroke-width:5;stroke-linecap:round;"
     id="path416" />
  <path
     d="M 309.2697 217.9834 C 308.6147 238.7344 316.4777 245.9414 310.5807 266.4734 "
     style="font-size:12;fill:none;fill-opacity:1;fill-rule:evenodd;stroke:#6b0000;stroke-width:5;stroke-linecap:round;"
     id="path417" />
  <path
     d="M 279.7825 218.6387 C 279.1275 239.3897 286.9905 246.5967 281.0935 267.1287 "
     style="font-size:12;fill:none;fill-opacity:1;fill-rule:evenodd;stroke:#6b0000;stroke-width:5;stroke-linecap:round;"
     id="path418" />
  <path
     d="M 210.3239 218.6387 C 209.6689 239.3897 217.5319 246.5967 211.6349 267.1287 "
     style="font-size:12;fill:none;fill-opacity:1;fill-rule:evenodd;stroke:#000000;stroke-width:5;"
     id="path422" />
  <path
     d="M 303.3723 217.9834 C 302.7173 238.7344 310.5803 245.9414 304.6833 266.4734 "
     style="font-size:12;fill:none;fill-opacity:1;fill-rule:evenodd;stroke:#000000;stroke-width:5;"
     id="path423" />
  <path
     d="M 273.8851 218.6387 C 273.2301 239.3897 281.0931 246.5967 275.1961 267.1287 "
     style="font-size:12;fill:none;fill-opacity:1;fill-rule:evenodd;stroke:#000000;stroke-width:5;"
     id="path424" />
  <path
     d="M 241.1216 218.6387 C 240.4666 239.3897 248.3296 246.5967 242.4326 267.1287 "
     style="font-size:12;fill:none;fill-opacity:1;fill-rule:evenodd;stroke:#000000;stroke-width:5;"
     id="path425" />
  <path
     d="M 336.1352 217.9834 C 335.4802 238.7344 343.3432 245.9414 337.4462 266.4734 "
     style="font-size:12;fill:none;fill-opacity:1;fill-rule:evenodd;stroke:#000000;stroke-width:5;"
     id="path426" />
  <path
     d="M 369.5539 219.2947 C 310.7649 217.3287 235.8789 223.2257 204.4269 213.3967 "
     style="font-size:12;fill:none;fill-opacity:1;fill-rule:evenodd;stroke:#000000;stroke-width:5;"
     id="path427" />
  <path
     d="M 210.3239 218.6387 C 209.6689 239.3897 217.5319 246.5967 211.6349 267.1287 "
     style="font-size:12;fill:none;fill-opacity:1;fill-rule:evenodd;stroke:#000000;stroke-width:5;stroke-linecap:round;"
     id="path428" />
  <path
     d="M 303.3723 217.9834 C 302.7173 238.7344 310.5803 245.9414 304.6833 266.4734 "
     style="font-size:12;fill:none;fill-opacity:1;fill-rule:evenodd;stroke:#000000;stroke-width:5;stroke-linecap:round;"
     id="path429" />
  <path
     d="M 311.9257 192.3768 L 311.9257 230.3687 L 327.9424 230.3687 L 327.9424 192.3768 L 311.9257 192.3768 z "
     style="font-size:12;fill:url(#linearGradient48);fill-opacity:1;fill-rule:evenodd;stroke:#ffffff;stroke-width:1.28394;"
     id="path70" />
  <path
     d="M 330.8597 189.1836 C 330.8597 192.0951 331.8382 228.7235 331.5279 234.6084 C 335.8693 235.6299 349.4226 237.2188 352.566 238.6155 C 352.0671 225.2554 353.651 193.6365 352.2322 185.6204 C 348.5802 186.5249 333.4399 188.7378 330.8597 189.1836 z "
     style="font-size:12;fill:#b40000;fill-opacity:1;fill-rule:evenodd;stroke:#000000;stroke-width:2.942577;stroke-linejoin:round;"
     id="path71" />
  <path
     d="M 301.8073 189.6332 C 301.1968 189.6332 301.4735 191.1737 301.4735 191.7917 C 301.4735 202.5853 302.0025 227.1949 301.8073 234.534 C 298.1671 234.534 285.0337 238.3206 281.7711 238.8516 C 281.4251 233.0153 280.1393 191.262 281.4368 186.1794 C 286.4459 188.4308 296.9486 190.4964 298.8016 190.4964 C 299.6924 190.4964 300.5827 190.4964 301.8073 189.6332 z "
     style="font-size:12;fill:#b50000;fill-opacity:1;fill-rule:evenodd;stroke:#000000;stroke-width:2.897302;stroke-linejoin:round;"
     id="path72" />
  <path
     d="M 273.8851 218.6387 C 273.2301 239.3897 281.0931 246.5967 275.1961 267.1287 "
     style="font-size:12;fill:none;fill-opacity:1;fill-rule:evenodd;stroke:#000000;stroke-width:5;stroke-linecap:round;"
     id="path430" />
  <path
     d="M 241.1216 218.6387 C 240.4666 239.3897 248.3296 246.5967 242.4326 267.1287 "
     style="font-size:12;fill:none;fill-opacity:1;fill-rule:evenodd;stroke:#000000;stroke-width:5;stroke-linecap:round;"
     id="path431" />
  <path
     d="M 336.1352 217.9834 C 335.4802 238.7344 343.3432 245.9414 337.4462 266.4734 "
     style="font-size:12;fill:none;fill-opacity:1;fill-rule:evenodd;stroke:#000000;stroke-width:5;stroke-linecap:round;"
     id="path432" />
  <path
     d="M 369.5539 219.2947 C 310.7649 217.3287 235.8789 223.2257 204.4269 213.3967 "
     style="font-size:12;fill:none;fill-opacity:1;fill-rule:evenodd;stroke:#000000;stroke-width:5;stroke-linecap:round;"
     id="path433" />
  <path
     d="M 247.019 218.6387 C 246.364 239.3897 254.227 246.5967 248.33 267.1287 "
     style="font-size:12;fill:none;fill-opacity:1;fill-rule:evenodd;stroke:#6b0000;stroke-width:5;stroke-linecap:round;"
     id="path419" />
  <path
     d="M 342.0322 217.9834 C 341.3772 238.7344 349.2402 245.9414 343.3432 266.4734 "
     style="font-size:12;fill:none;fill-opacity:1;fill-rule:evenodd;stroke:#6b0000;stroke-width:5;stroke-linecap:round;"
     id="path420" />
  <path
     d="M 375.4513 219.2947 C 316.6623 217.3287 241.7764 223.2257 210.3244 213.3967 "
     style="font-size:12;fill:none;fill-opacity:1;fill-rule:evenodd;stroke:#720000;stroke-width:5;stroke-linecap:round;"
     id="path421" />
  <path
     d="M 198.5753 123.7405 L 198.5753 173.3964 L 249.2131 173.3964 L 249.2131 123.7405 L 198.5753 123.7405 z "
     style="font-size:12;fill:url(#linearGradient132);fill-opacity:1;fill-rule:evenodd;stroke:#ffffff;stroke-width:2.609961;"
     id="path435" />
  <path
     d="M 252.2612 120.6078 C 252.2612 124.0326 254.1812 167.1181 253.5722 174.0404 C 262.0912 175.242 288.6862 177.111 294.8542 178.7539 C 293.8752 163.0386 296.9832 125.8457 294.1992 116.4164 C 287.0332 117.4804 257.3242 120.0834 252.2612 120.6078 z "
     style="font-size:12;fill:#b40000;fill-opacity:1;fill-rule:evenodd;stroke:#000000;stroke-width:4.470556;stroke-linejoin:round;"
     id="path436" />
  <path
     d="M 195.2532 121.1352 C 194.0552 121.1352 194.5982 122.9472 194.5982 123.6742 C 194.5982 136.3706 195.6362 165.3185 195.2532 173.9514 C 188.1102 173.9514 162.3392 178.4055 155.9372 179.0302 C 155.2582 172.165 152.7352 123.051 155.2812 117.0725 C 165.1102 119.7208 185.7192 122.1505 189.3552 122.1505 C 191.1032 122.1505 192.8502 122.1505 195.2532 121.1352 z "
     style="font-size:12;fill:#b50000;fill-opacity:1;fill-rule:evenodd;stroke:#000000;stroke-width:4.401769;stroke-linejoin:round;"
     id="path437" />
  <path
     d="M 241.7772 216.0188 L 243.0882 235.0208 L 327.6182 234.3658 L 327.6182 216.0188 L 241.7772 216.0188 z "
     style="font-size:12;fill-opacity:1;fill-rule:evenodd;"
     id="path439" />
  <path
     d="M 243.0877 212.0871 L 244.3987 231.0891 L 328.9287 230.4341 L 328.9287 212.0871 L 243.0877 212.0871 z "
     style="font-size:12;fill:#98621d;fill-opacity:1;fill-rule:evenodd;"
     id="path440" />
  <path
     d="M 262.7462 211.4315 C 260.2502 213.9265 252.2012 215.3025 250.2962 213.3975 C 248.3742 211.4755 245.7092 204.4005 245.7092 200.9465 C 253.5252 197.0385 261.1962 203.5675 269.2982 203.5675 C 273.1312 204.8455 269.9222 204.9095 271.9192 202.9125 C 272.4822 201.2245 272.2822 198.3255 273.8852 198.3255 C 274.7302 195.7915 275.1962 194.5215 275.1962 191.7725 C 277.2642 193.1515 280.2242 196.3595 282.4042 196.3595 C 282.4042 197.6495 290.6422 197.0155 289.6122 197.0155 C 288.9072 199.8325 287.8842 204.4315 292.2332 202.2575 C 294.3382 198.0455 296.1642 194.6875 296.1642 189.8075 C 296.1642 193.1365 296.8202 196.6675 296.8202 200.2915 C 302.2202 202.0915 303.0232 197.3645 306.6492 193.7385 C 309.1622 188.7115 308.6142 188.0625 308.6142 192.4285 C 308.6142 195.6295 307.4322 197.6705 310.5802 197.6705 C 311.9152 196.0025 315.1672 189.1465 315.1672 193.7385 C 315.1672 195.0735 314.5812 202.1875 317.7882 198.9805 C 321.9552 194.8145 322.6282 195.6015 324.3412 190.4625 C 324.5592 190.2445 324.7782 190.0255 324.9962 189.8075 C 324.1372 193.2435 323.2722 197.1865 321.7202 200.2915 C 319.8872 201.2085 318.3802 204.1595 316.4782 202.2575 C 312.9512 202.2575 315.8222 209.8585 315.8222 212.7425 C 316.4772 220.2405 304.8262 213.3965 307.3042 210.1205 C 303.1542 214.7075 299.0042 210.7755 294.8542 210.7755 C 285.6102 216.3805 286.1322 212.0865 282.4042 212.0865 C 280.3372 212.0865 275.8512 212.9765 275.8512 214.7075 C 271.8662 214.7075 268.8362 213.3965 264.7112 213.3965 C 264.4932 213.1785 264.2752 212.9605 262.7462 211.4315 z "
     style="font-size:12;fill:#117d00;fill-opacity:1;fill-rule:evenodd;"
     id="path441" />
  <path
     d="M 253.4016 191.9247 C 253.4016 193.2687 249.5426 195.2627 248.1886 196.6167 C 246.9836 198.1237 243.3576 201.6907 245.5826 203.9157 C 247.4916 204.8697 249.7526 204.8207 249.7526 207.0427 C 250.8736 209.2837 249.6666 209.6497 252.3596 209.6497 C 255.4746 209.6497 257.0516 206.2477 257.0516 203.3937 C 257.8096 202.6357 257.2346 201.3087 258.6146 201.3087 C 259.3146 200.6097 261.2726 198.7017 260.1786 198.7017 C 259.2906 196.9257 256.5296 197.4967 256.5296 196.0957 C 255.4646 195.0297 253.9686 192.9677 253.4016 191.9247 z "
     style="font-size:12;fill:#890000;fill-opacity:1;fill-rule:evenodd;"
     id="path63" />
  <path
     d="M 291.4576 191.9247 C 291.4576 193.3357 290.0796 195.7247 289.3726 197.1377 C 289.3726 199.0217 291.4576 197.8417 291.4576 200.2657 C 290.7316 200.6297 286.4386 203.9157 289.3726 203.9157 C 291.9136 205.1857 292.5816 203.8347 294.0646 202.3517 C 295.2106 201.2047 293.6926 196.0957 295.6286 196.0957 C 298.7546 192.9697 296.5656 194.9467 295.1066 193.4887 C 294.4336 193.4887 291.4576 192.1357 291.4576 193.4887 C 294.4336 193.4887 291.4576 192.1357 291.4576 191.9247 z "
     style="font-size:12;fill:#890000;fill-opacity:1;fill-rule:evenodd;"
     id="path65" />
  <path
     d="M 256.0082 186.7115 C 256.0082 188.0555 252.1492 190.0495 250.7952 191.4035 C 249.5902 192.9105 245.9642 196.4775 248.1892 198.7025 C 250.0982 199.6565 252.3592 199.6075 252.3592 201.8295 C 253.4802 204.0705 252.2732 204.4365 254.9662 204.4365 C 258.0812 204.4365 259.6582 201.0345 259.6582 198.1805 C 260.4162 197.4225 259.8412 196.0955 261.2212 196.0955 C 261.9212 195.3965 263.8792 193.4885 262.7852 193.4885 C 261.8972 191.7125 259.1362 192.2835 259.1362 190.8825 C 258.0712 189.8165 256.5752 187.7545 256.0082 186.7115 z "
     style="font-size:12;fill:#ff0000;fill-opacity:1;fill-rule:evenodd;"
     id="path59" />
  <path
     d="M 294.0642 186.7115 C 294.0642 188.1225 292.6862 190.5115 291.9792 191.9245 C 291.9792 193.8085 294.0642 192.6285 294.0642 195.0525 C 293.3382 195.4165 289.0452 198.7025 291.9792 198.7025 C 294.5202 199.9725 295.1882 198.6215 296.6712 197.1385 C 297.8172 195.9915 296.2992 190.8825 298.2352 190.8825 C 301.3612 187.7565 299.1722 189.7335 297.7132 188.2755 C 297.0402 188.2755 294.0642 186.9225 294.0642 188.2755 C 297.0402 188.2755 294.0642 186.9225 294.0642 186.7115 z "
     style="font-size:12;fill:#ff0000;fill-opacity:1;fill-rule:evenodd;"
     id="path61" />
  <path
     d="M 310.2256 192.4467 C 308.3676 192.4467 306.1116 193.4317 305.0116 194.5317 C 301.3776 194.5317 302.8196 198.8097 300.3206 201.3087 C 300.3206 203.5167 301.1406 203.9157 303.4476 203.9157 C 305.3426 204.3887 310.7466 205.3707 310.7466 201.8297 C 312.1926 198.9387 310.8376 196.6167 314.3956 196.6167 C 316.6396 195.4947 316.2216 195.1837 313.8746 194.0107 C 312.2516 192.9287 312.0596 192.4467 310.2256 192.4467 z "
     style="font-size:12;fill:#890000;fill-opacity:1;fill-rule:evenodd;"
     id="path66" />
  <path
     d="M 312.8322 187.2335 C 310.9742 187.2335 308.7182 188.2185 307.6182 189.3185 C 303.9842 189.3185 305.4262 193.5965 302.9272 196.0955 C 302.9272 198.3035 303.7472 198.7025 306.0542 198.7025 C 307.9492 199.1755 313.3532 200.1575 313.3532 196.6165 C 314.7992 193.7255 313.4442 191.4035 317.0022 191.4035 C 319.2462 190.2815 318.8282 189.9705 316.4812 188.7975 C 314.8582 187.7155 314.6662 187.2335 312.8322 187.2335 z "
     style="font-size:12;fill:#ff0000;fill-opacity:1;fill-rule:evenodd;"
     id="path62" />
  <path
     d="M 276.8606 190.3607 C 274.5706 190.3607 272.6156 192.4467 270.0836 192.4467 C 269.2516 193.2787 269.0106 198.1807 267.9986 198.1807 C 267.3446 199.4887 266.6546 202.3517 268.5196 202.3517 C 270.4506 202.9947 270.0106 202.9457 268.5196 204.4367 C 267.1216 205.1357 262.5276 208.0857 265.9136 208.0857 C 269.1706 208.0857 268.9906 202.8727 272.1696 202.8727 C 274.0876 200.9547 277.3056 200.7877 279.9886 200.7877 C 282.8956 197.8807 278.6046 196.7967 276.8606 195.0527 C 276.3256 194.5177 277.9656 193.9487 278.9466 192.9677 C 279.9896 191.9247 279.0076 191.4037 276.8606 190.3607 z "
     style="font-size:12;fill:#890000;fill-opacity:1;fill-rule:evenodd;"
     id="path64" />
  <path
     d="M 279.4672 185.1475 C 277.1772 185.1475 275.2222 187.2335 272.6902 187.2335 C 271.8582 188.0655 271.6172 192.9675 270.6052 192.9675 C 269.9512 194.2755 269.2612 197.1385 271.1262 197.1385 C 273.0572 197.7815 272.6172 197.7325 271.1262 199.2235 C 269.7282 199.9225 265.1342 202.8725 268.5202 202.8725 C 271.7772 202.8725 271.5972 197.6595 274.7762 197.6595 C 276.6942 195.7415 279.9122 195.5745 282.5952 195.5745 C 285.5022 192.6675 281.2112 191.5835 279.4672 189.8395 C 278.9322 189.3045 280.5722 188.7355 281.5532 187.7545 C 282.5962 186.7115 281.6142 186.1905 279.4672 185.1475 z "
     style="font-size:12;fill:#ff0000;fill-opacity:1;fill-rule:evenodd;"
     id="path60" />
  <path
     d="M 128.0818 191.7034 L 128.0818 240.3408 L 167.0413 240.3408 L 167.0413 191.7034 L 128.0818 191.7034 z "
     style="font-size:12;fill:url(#linearGradient142);fill-opacity:1;fill-rule:evenodd;stroke:#ffffff;stroke-width:2.265704;"
     id="path67" />
  <path
     d="M 172.136 189.3424 C 172.136 192.703 173.4984 234.9811 173.0662 241.7737 C 179.1109 242.9528 197.9814 244.7868 202.3579 246.3989 C 201.6632 230.9781 203.8685 194.4821 201.8931 185.2295 C 196.8085 186.2736 175.7285 188.8278 172.136 189.3424 z "
     style="font-size:12;fill:#b40000;fill-opacity:1;fill-rule:evenodd;stroke:#000000;stroke-width:3.730312;stroke-linejoin:round;"
     id="path68" />
  <path
     d="M 124.6483 189.0792 C 123.7982 189.0792 124.1835 190.8572 124.1835 191.5706 C 124.1835 204.0291 124.92 232.4345 124.6483 240.9057 C 119.5799 240.9057 101.2941 245.2763 96.75159 245.8893 C 96.2698 239.1527 94.47961 190.9591 96.28612 185.0926 C 103.2603 187.6912 117.8834 190.0754 120.4633 190.0754 C 121.7036 190.0754 122.9432 190.0754 124.6483 189.0792 z "
     style="font-size:12;fill:#b50000;fill-opacity:1;fill-rule:evenodd;stroke:#000000;stroke-width:3.672917;stroke-linejoin:round;"
     id="path69" />
  <path
     d="M 363.1392 111.1215 C 352.7002 103.0285 335.2222 95.3455 320.6192 82.9705 C 327.0722 70.0635 322.6722 55.1125 352.8752 58.3382 C 369.3402 59.5549 364.8982 73.1295 366.0712 80.6235 C 367.2442 89.9795 374.5582 101.7375 363.1392 111.1215 z "
     style="font-size:12;fill:#ffffff;fill-opacity:1;fill-rule:evenodd;stroke:#000000;stroke-width:5;"
     id="path74" />
  <path
     d="M 223.5563 122.3952 C 223.5563 129.7782 223.5563 169.2122 223.5563 172.8332 "
     style="font-size:12;fill:none;fill-opacity:1;fill-rule:evenodd;stroke:#ffffff;stroke-width:5;"
     id="path75" />
  <path
     d="M 248.4897 148.0694 C 241.1486 148.0694 201.9382 148.0694 198.3378 148.0694 "
     style="font-size:12;fill:none;fill-opacity:1;fill-rule:evenodd;stroke:#ffffff;stroke-width:4.985798;"
     id="path76" />
  <path
     d="M 146.9231 190.9054 C 146.9231 198.2884 146.9231 237.7224 146.9231 241.3434 "
     style="font-size:12;fill:none;fill-opacity:1;fill-rule:evenodd;stroke:#ffffff;stroke-width:5;"
     id="path77" />
  <path
     d="M 166.1246 215.71 C 160.5158 215.71 130.558 215.71 127.8072 215.71 "
     style="font-size:12;fill:none;fill-opacity:1;fill-rule:evenodd;stroke:#ffffff;stroke-width:4.358019;"
     id="path78" />

  <metadata>
    <rdf:RDF 
     xmlns="http://web.resource.org/cc/"
     xmlns:dc="http://purl.org/dc/elements/1.1/"
     xmlns:rdf="http://www.w3.org/1999/02/22-rdf-syntax-ns#">
      <Work rdf:about="">
        <dc:title>Lemon SVG theme</dc:title>
	<dc:description></dc:description>
        <dc:subject>
          <rdf:Bag>
            <rdf:li>lemon_theme_icon</rdf:li>
            <rdf:li>icon</rdf:li>
          </rdf:Bag>
        </dc:subject>
        <dc:publisher>
           <Agent rdf:about="">
             <dc:title>Open Clip Art Library</dc:title>
           </Agent>
         </dc:publisher>
         <dc:creator>
           <Agent rdf:about="">
             <dc:title>Jose Hevia</dc:title>
           </Agent>
        </dc:creator>
         <dc:rights>
           <Agent rdf:about="">
             <dc:title></dc:title>
           </Agent>
        </dc:rights>
        <dc:date></dc:date>
        <dc:format>image/svg+xml</dc:format>
        <dc:type rdf:resource="http://purl.org/dc/dcmitype/StillImage" />
        <license rdf:resource="Public Domain">
	  <dc:date>1</dc:date>
	</license>
        <dc:language>en</dc:language>
      </Work>

      <License rdf:about="Public Domain">
         <permits rdf:resource="http://web.resource.org/cc/Reproduction" />
         <permits rdf:resource="http://web.resource.org/cc/Distribution" />
         <permits rdf:resource="http://web.resource.org/cc/DerivativeWorks" />
      </License>


    </rdf:RDF>
  </metadata>
</svg>
