<?xml version="1.0" encoding="UTF-8" standalone="no"?>
<!DOCTYPE svg PUBLIC "-//W3C//DTD SVG 1.0//EN"
"http://www.w3.org/TR/2001/REC-SVG-20010904/DTD/svg10.dtd">
<!-- Created with Sodipodi ("http://www.sodipodi.com/") -->
<svg
   xmlns="http://www.w3.org/2000/svg"
   xmlns:xlink="http://www.w3.org/1999/xlink"
   version="1.0"
   x="0"
   y="0"
   width="437.5"
   height="437.5"
   id="svg32">
  <defs
     id="defs34">
    <linearGradient
       id="linearGradient60">
      <stop
         style="stop-color:#ffffb2;stop-opacity:0.9608;"
         offset="0"
         id="stop61" />
      <stop
         style="stop-color:#000000;stop-opacity:0.4588;"
         offset="1"
         id="stop62" />
    </linearGradient>
    <linearGradient
       id="linearGradient57">
      <stop
         style="stop-color:#ffff9f;stop-opacity:0.9608;"
         offset="0"
         id="stop58" />
      <stop
         style="stop-color:#000000;stop-opacity:0.4588;"
         offset="1"
         id="stop59" />
    </linearGradient>
    <linearGradient
       id="linearGradient129">
      <stop
         style="stop-color:#002200;stop-opacity:1;"
         offset="0"
         id="stop130" />
      <stop
         style="stop-color:#00b700;stop-opacity:1;"
         offset="1"
         id="stop131" />
    </linearGradient>
    <linearGradient
       x1="0"
       y1="0"
       x2="1"
       y2="1"
       id="linearGradient132"
       xlink:href="#linearGradient129" />
    <linearGradient
       x1="1.00599003"
       y1="2.85714008e-2"
       x2="2.58329008e-2"
       y2="1.02286005"
       id="linearGradient142"
       xlink:href="#linearGradient129" />
    <linearGradient
       x1="1.45453"
       y1="0.50857103"
       x2="6.61232024e-2"
       y2="0.54285699"
       id="linearGradient48"
       xlink:href="#linearGradient129" />
    <linearGradient
       x1="0.49308601"
       y1="0.42857099"
       x2="0.57143998"
       y2="0.51428598"
       id="linearGradient49"
       xlink:href="#linearGradient129" />
    <linearGradient
       x1="0.45062399"
       y1="0.42857099"
       x2="0.40768901"
       y2="0.47428599"
       id="linearGradient50"
       xlink:href="#linearGradient129" />
    <linearGradient
       x1="-0.33721501"
       y1="0.54857099"
       x2="0.46689001"
       y2="0.56"
       id="linearGradient53"
       xlink:href="#linearGradient129" />
    <linearGradient
       x1="1.09466004"
       y1="0.125"
       x2="0.41306201"
       y2="0.8125"
       id="linearGradient54"
       xlink:href="#linearGradient129" />
  </defs>
  <path
     d="M 64.58984 285.3626 C 67.35484 303.4878 26.12874 323.538 23.96284 331.0954 C 39.27064 343.9197 -0.483154 363.4616 6.926046 369.2067 C 12.18645 374.5609 90.39681 411.2264 103.2508 412.6525 C 181.9618 430.3122 345.3018 417.6903 375.1888 401.2193 C 411.0038 377.769 429.1148 375.2262 434.8158 363.871 C 431.4408 354.4549 399.7818 336.8858 406.6408 329.5715 C 400.9258 321.2628 388.0878 317.5498 393.5348 299.8446 C 376.2708 294.1065 417.6838 281.5148 390.9138 284.6008 C 386.2978 283.2584 419.1688 253.349 411.2268 248.7765 C 369.1388 215.9135 125.7598 212.1912 82.28184 239.6313 C 76.07984 253.977 71.83584 282.5535 64.58984 285.3626 z "
     style="font-size:12;fill:#c2aa44;fill-opacity:1;fill-rule:evenodd;"
     id="path19" />
  <path
     d="M 83.95799 240.1571 C 90.07162 265.6788 23.59164 345.9588 35.06346 357.0888 C 241.9422 400.0942 201.6835 379.5846 359.1084 376.7111 C 367.4305 364.6 398.9832 255.9307 402.1927 239.5884 C 352.2888 218.0715 189.2272 224.1952 83.95799 240.1571 z "
     style="font-size:12;fill-opacity:0.226601;fill-rule:evenodd;"
     id="path20" />
  <path
     style="font-size:12;fill:#7f7f7f;fill-opacity:1;fill-rule:evenodd;stroke:#000000;stroke-width:1.078521;stroke-linecap:round;stroke-linejoin:round;"
     id="path68" />
  <path
     style="font-size:12;fill:#7f7f7f;fill-opacity:1;fill-rule:evenodd;stroke:#000000;stroke-width:1.078521;stroke-linecap:round;stroke-linejoin:round;"
     id="path47" />
  <path
     d="M 210.2045 35.2147 C 222.3255 29.92676 230.8704 45.53094 266.5664 27.23836 C 220.4454 71.73913 230.6845 150.6444 222.9905 242.2935 C 200.7725 253.9511 98.0885 312.9443 37.21353 334.765 C 100.9315 210.7543 161.0115 109.9124 210.2045 35.2147 z "
     style="font-size:12;fill:url(#linearGradient142);fill-opacity:1;fill-rule:evenodd;stroke-width:10.78521;stroke-linejoin:round;"
     id="path30" />
  <path
     d="M 170.6805 262.1855 C 211.8904 190.748 220.4679 86.00323 251.0218 50.03251 "
     style="font-size:12;fill:none;fill-opacity:1;fill-rule:evenodd;stroke:#7f3300;stroke-width:12.5;stroke-linecap:round;"
     id="path58" />
  <path
     d="M 124.5152 288.5172 C 176.313 195.0225 214.0434 74.08394 227.6661 42.46022 "
     style="font-size:12;fill:none;fill-opacity:1;fill-rule:evenodd;stroke:#7f3300;stroke-width:12.5;stroke-linecap:round;"
     id="path57" />
  <path
     d="M 78.43758 310.3155 C 85.51856 297.9495 173.2923 108.9332 221.9396 38.00316 "
     style="font-size:12;fill:none;fill-opacity:1;fill-rule:evenodd;stroke:#7f3200;stroke-width:12.5;stroke-linecap:round;"
     id="path56" />
  <path
     d="M 172.1995 107.6237 C 194.7174 98.38373 215.6774 75.00665 238.5971 67.75781 "
     style="font-size:12;fill:none;fill-opacity:1;fill-rule:evenodd;stroke:#6c3400;stroke-width:4.936298;"
     id="path54" />
  <path
     d="M 147.3505 141.9241 C 170.6038 133.3826 212.7372 108.6942 236.3895 102.0444 "
     style="font-size:12;fill:none;fill-opacity:1;fill-rule:evenodd;stroke:#643900;stroke-width:4.877714;stroke-linecap:round;"
     id="path52" />
  <path
     d="M 196.4488 63.40828 C 217.4643 57.10302 247.907 38.03899 254.7639 33.68948 "
     style="font-size:12;fill:none;fill-opacity:1;fill-rule:evenodd;stroke:#6b1b00;stroke-width:4.936298;"
     id="path55" />
  <path
     d="M 212.1187 33.30057 C 224.2397 28.01264 232.7846 43.61681 268.4806 25.32424 C 222.3596 69.825 232.5987 148.7302 224.9047 240.3793 C 202.6867 252.0369 100.0027 311.0301 39.12769 332.8508 C 102.8457 208.8401 162.9257 107.9982 212.1187 33.30057 z "
     style="font-size:12;fill:none;fill-opacity:1;fill-rule:evenodd;stroke:#000000;stroke-width:11.25;stroke-linejoin:round;"
     id="path650" />
  <path
     d="M 270.4892 24.65245 C 292.3992 65.05994 353.8455 156.1028 394.2425 242.2941 C 372.0245 253.9517 281.0695 228.3531 230.7515 239.2581 C 232.3035 113.883 252.2003 56.24138 270.4892 24.65245 z "
     style="font-size:12;fill:url(#linearGradient142);fill-opacity:1;fill-rule:evenodd;stroke:#000000;stroke-width:11.25;stroke-linejoin:round;"
     id="path101" />
  <path
     d="M 87.66922 253.2073 C 119.3922 243.5283 186.4552 206.7606 218.7441 199.1672 "
     style="font-size:12;fill:#7f7f7f;fill-opacity:1;fill-rule:evenodd;stroke:#5b2900;stroke-width:5.996642;stroke-linecap:round;"
     id="path49" />
  <path
     d="M 114.5347 207.4763 C 143.0615 198.8875 216.0546 164.733 225.3622 158.8083 "
     style="font-size:12;fill:none;fill-opacity:1;fill-rule:evenodd;stroke:#6f3400;stroke-width:6.712276;"
     id="path51" />
  <path
     d="M 221.8489 300.0922 C 225.4699 298.3519 244.3072 286.4467 244.3072 292.5831 C 249.2372 309.906 288.4164 322.5918 233.9006 341.1956 C 215.8256 341.1956 226.7789 330.6068 211.4422 331.1943 C 235.5431 317.2904 227.9274 302.9893 221.8489 300.0922 z "
     style="font-size:12;fill-opacity:0.346154;fill-rule:evenodd;stroke-width:5;"
     id="path60" />
  <path
     d="M 133.5381 172.4142 C 156.7067 164.6598 221.9385 131.6635 229.4978 126.3144 "
     style="font-size:12;fill:none;fill-opacity:1;fill-rule:evenodd;stroke:#722300;stroke-width:5.747766;"
     id="path53" />
  <path
     d="M 224.7217 38.45177 C 226.1657 32.09508 251.6316 12.67339 251.6316 35.08752 C 232.6286 114.2261 277.7317 244.1991 255.9917 312.1545 C 251.8417 310.2403 240.1064 319.0994 235.9046 313.5887 C 220.6314 283.8563 227.1457 49.03432 224.7217 38.45177 z "
     style="font-size:12;fill:#710000;fill-opacity:1;fill-rule:evenodd;stroke:#000000;stroke-width:5;"
     id="path25" />
  <path
     d="M 218.3188 30.81933 C 240.3676 21.9159 249.2812 20.89345 269.0329 19.40495 C 295.1826 51.30444 380.0409 210.7229 395.9535 246.1888 C 398.2125 275.6969 380.9875 323.05 363.5385 350.7715 C 344.0976 314.5435 227.3222 54.12545 218.3188 30.81933 z "
     style="font-size:12;fill:url(#linearGradient132);fill-opacity:1;fill-rule:evenodd;stroke:#000000;stroke-width:11.25;stroke-linejoin:round;"
     id="path31" />
  <path
     d="M 237.7978 46.30463 C 239.1238 47.00963 247.6819 46.63106 247.6819 41.84479 C 249.6979 38.62633 251.5493 38.67314 254.9253 42.26617 C 261.8532 42.26617 259.5117 37.22043 263.3301 33.15652 C 264.1144 33.15652 268.3978 36.72948 269.9186 37.53876 "
     style="font-size:12;fill:none;fill-opacity:1;fill-rule:evenodd;stroke:#00a400;stroke-width:6.483272;stroke-linecap:round;"
     id="path40" />
  <path
     d="M 250.9751 81.36731 C 251.9115 79.0424 254.3499 66.54969 257.5637 69.97147 C 258.8897 70.67643 263.5163 71.82286 263.5163 67.0366 C 265.5323 63.8181 271.3152 59.29005 274.6912 62.88308 C 281.6191 62.88308 279.2776 60.88723 283.096 56.82336 C 283.8803 56.82336 285.2924 61.35338 286.8132 62.16267 "
     style="font-size:12;fill:none;fill-opacity:1;fill-rule:evenodd;stroke:#00a400;stroke-width:6.483272;stroke-linecap:round;"
     id="path32" />
  <path
     d="M 262.5054 110.8434 C 263.4418 108.6249 265.8802 96.7038 269.094 99.96907 C 270.42 100.6417 278.9781 105.3724 278.9781 100.8052 C 280.9941 97.73396 280.2249 92.58214 283.6009 96.01079 C 290.5288 96.01079 290.153 85.20283 293.9714 81.32496 C 294.7557 81.32496 301.6082 88.91789 303.129 89.69025 "
     style="font-size:12;fill:none;fill-opacity:1;fill-rule:evenodd;stroke:#00a400;stroke-width:6.333181;stroke-linecap:round;"
     id="path33" />
  <path
     d="M 275.077 138.1146 C 275.077 137.6716 278.696 126.9221 279.3034 126.2004 C 280.0903 124.0192 283.4506 117.6336 286.1516 120.8439 C 287.2661 121.5053 294.4587 126.1565 294.4587 121.6659 C 296.153 118.6464 295.8478 107.4439 298.6851 110.8149 C 304.5076 110.8149 307.2722 112.321 310.4814 108.5081 C 311.1406 108.5081 314.7405 107.0749 316.0186 112.6196 "
     style="font-size:12;fill:none;fill-opacity:1;fill-rule:evenodd;stroke:#00a400;stroke-width:5.757061;stroke-linecap:round;"
     id="path41" />
  <path
     d="M 287.9402 165.836 C 288.6698 163.7224 288.2918 146.4576 290.7959 149.5681 C 291.8291 150.2091 298.4975 154.7156 298.4975 150.3647 C 300.0685 147.4389 303.2787 148.4021 305.9093 151.6681 C 311.3075 151.6681 307.7152 141.3102 310.6905 137.6161 C 311.3016 137.6161 314.6392 140.8639 315.8242 141.5998 C 319.0433 141.5998 322.2419 141.0646 322.2419 136.0231 C 324.8401 137.6355 322.8834 136.8196 325.4502 136.8196 C 325.6637 136.5534 325.8782 136.2882 326.0917 136.0231 "
     style="font-size:12;fill:none;fill-opacity:1;fill-rule:evenodd;stroke:#008e00;stroke-width:5.456402;stroke-linecap:round;stroke-linejoin:round;"
     id="path42" />
  <path
     d="M 295.4932 185.3706 C 295.4932 184.9925 300.1602 180.3706 300.7352 179.7545 C 301.4802 177.8925 303.4202 167.8869 305.9772 170.6275 C 304.4112 171.1922 315.8072 182.0225 315.8072 178.1892 C 317.4112 175.6115 316.3972 166.3464 319.0832 169.224 C 324.5952 169.224 323.2532 163.3518 326.2912 160.0971 C 326.9152 160.0971 330.3232 162.9587 331.5332 163.6068 C 334.8202 163.6068 338.0862 163.1354 338.0862 158.6935 C 340.7392 160.1141 338.7412 159.3953 341.3622 159.3953 C 341.5802 159.1607 341.7992 158.9271 342.0172 158.6935 "
     style="font-size:12;fill:none;fill-opacity:1;fill-rule:evenodd;stroke:#008e00;stroke-width:5.175349;stroke-linecap:round;stroke-linejoin:round;"
     id="path43" />
  <path
     d="M 311.0279 219.3272 C 310.9719 218.8824 318.8333 216.223 319.308 215.3818 C 319.7656 213.0407 316.2413 197.1559 319.1622 199.8604 C 320.2837 200.3102 327.5696 193.9174 327.0028 189.4088 C 328.1997 186.0517 328.7805 192.7108 331.8487 195.5505 C 337.2714 194.432 335.0829 187.7979 337.5904 183.3536 C 338.2044 183.2268 341.9804 185.9009 343.2667 186.4178 C 346.5006 185.7509 349.6439 184.5337 348.9872 179.3095 C 351.8073 180.442 349.7353 180.0021 352.3138 179.47 C 352.4937 179.1499 352.6746 178.8308 352.8546 178.5119 "
     style="font-size:12;fill:none;fill-opacity:1;fill-rule:evenodd;stroke:#008e00;stroke-width:5.638749;stroke-linecap:round;stroke-linejoin:round;"
     id="path44" />
  <path
     d="M 324.1421 246.1223 C 324.0649 245.701 328.0139 239.3873 328.4909 238.5574 C 328.8917 236.2966 328.8824 224.6626 332.1228 227.0797 C 333.3441 227.4461 339.8895 220.5839 339.1066 216.3118 C 340.2618 213.0393 342.1727 219.7123 345.5763 222.25 C 351.355 220.8765 348.7489 214.6667 351.2693 210.2824 C 351.9235 210.127 356.0807 212.4669 357.4816 212.8879 C 360.9277 212.0688 364.2555 210.7298 363.3484 205.7794 C 366.4198 206.7016 364.1784 206.3984 366.9262 205.7453 C 367.1069 205.4295 367.2887 205.1145 367.4696 204.8 "
     style="font-size:12;fill:none;fill-opacity:1;fill-rule:evenodd;stroke:#00a400;stroke-width:5.714612;stroke-linecap:round;stroke-linejoin:round;"
     id="path45" />
  <path
     d="M 336.0798 274.8053 C 335.965 274.3784 339.6113 267.4664 340.0463 266.5622 C 340.2874 264.1899 339.3506 252.1927 342.9479 254.3567 C 344.2604 254.6106 352.8304 256.618 351.6675 252.2915 C 352.6206 248.7996 352.9207 245.7391 356.6992 248.0111 C 362.6616 246.0084 356.4684 234.0772 358.7673 229.2999 C 359.4422 229.0732 366.957 236.856 368.4625 237.148 C 372.0182 235.9538 375.408 234.2352 374.0605 229.2218 C 377.3612 229.8613 372.0217 222.3302 377.8171 228.8237 "
     style="font-size:12;fill:none;fill-opacity:1;fill-rule:evenodd;stroke:#00a400;stroke-width:6.090356;stroke-linecap:round;stroke-linejoin:round;"
     id="path46" />
  <path
     d="M 349.0855 298.0298 C 349.0443 297.3835 357.8229 294.9702 358.1728 293.7481 C 358.5101 290.3464 358.8264 272.6764 360.9797 276.6058 C 361.8064 277.2596 367.1775 282.0372 366.7596 275.4866 C 367.6419 270.6087 366.7598 259.3576 369.0215 263.4832 C 373.0192 261.8582 372.7162 259.0795 374.5647 252.6218 C 375.0173 252.4378 380.4223 258.6104 381.3705 259.3613 C 383.7545 258.3923 383.4504 254.3366 382.9662 246.7462 C 385.0452 248.3916 383.5177 247.7522 385.4186 246.9795 "
     style="font-size:12;fill:none;fill-opacity:1;fill-rule:evenodd;stroke:#00a400;stroke-width:5.952497;stroke-linecap:round;stroke-linejoin:round;"
     id="path48" />

  <metadata>
    <rdf:RDF 
     xmlns="http://web.resource.org/cc/"
     xmlns:dc="http://purl.org/dc/elements/1.1/"
     xmlns:rdf="http://www.w3.org/1999/02/22-rdf-syntax-ns#">
      <Work rdf:about="">
        <dc:title>Lemon SVG theme</dc:title>
	<dc:description></dc:description>
        <dc:subject>
          <rdf:Bag>
            <rdf:li>lemon_theme_icon</rdf:li>
            <rdf:li>icon</rdf:li>
          </rdf:Bag>
        </dc:subject>
        <dc:publisher>
           <Agent rdf:about="">
             <dc:title>Open Clip Art Library</dc:title>
           </Agent>
         </dc:publisher>
         <dc:creator>
           <Agent rdf:about="">
             <dc:title>Jose Hevia</dc:title>
           </Agent>
        </dc:creator>
         <dc:rights>
           <Agent rdf:about="">
             <dc:title></dc:title>
           </Agent>
        </dc:rights>
        <dc:date></dc:date>
        <dc:format>image/svg+xml</dc:format>
        <dc:type rdf:resource="http://purl.org/dc/dcmitype/StillImage" />
        <license rdf:resource="Public Domain">
	  <dc:date>1</dc:date>
	</license>
        <dc:language>en</dc:language>
      </Work>

      <License rdf:about="Public Domain">
         <permits rdf:resource="http://web.resource.org/cc/Reproduction" />
         <permits rdf:resource="http://web.resource.org/cc/Distribution" />
         <permits rdf:resource="http://web.resource.org/cc/DerivativeWorks" />
      </License>


    </rdf:RDF>
  </metadata>
</svg>
