<?xml version="1.0" encoding="UTF-8" standalone="no"?>
<!DOCTYPE svg PUBLIC "-//W3C//DTD SVG 1.0//EN"
"http://www.w3.org/TR/2001/REC-SVG-20010904/DTD/svg10.dtd">
<!-- Created with Sodipodi ("http://www.sodipodi.com/") -->
<svg
   xmlns="http://www.w3.org/2000/svg"
   xmlns:xlink="http://www.w3.org/1999/xlink"
   version="1.0"
   x="0"
   y="0"
   width="437.5"
   height="437.5"
   id="svg32">
  <defs
     id="defs34">
    <linearGradient
       id="linearGradient129">
      <stop
         style="stop-color:#ea7f00;stop-opacity:1;"
         offset="0"
         id="stop130" />
      <stop
         style="stop-color:#e2d247;stop-opacity:1;"
         offset="1"
         id="stop131" />
    </linearGradient>
    <linearGradient
       x1="0.43101299"
       y1="0.97714299"
       x2="0.63266599"
       y2="0.85142899"
       id="linearGradient132"
       xlink:href="#linearGradient129" />
    <linearGradient
       x1="0.56373101"
       y1="0.75428599"
       x2="0.37833101"
       y2="0.657143"
       id="linearGradient142"
       xlink:href="#linearGradient129" />
    <linearGradient
       x1="0.512541"
       y1="0.72571403"
       x2="0.482443"
       y2="-0.154286"
       id="linearGradient470"
       xlink:href="#linearGradient129" />
  </defs>
  <path
     d="M 39.1269 325.4152 C 41.8921 340.9972 24.911 343.1632 22.7451 349.6602 C 38.0529 360.6852 -1.700901 377.4852 5.708299 382.4242 C 10.9687 387.0272 89.17909 418.5482 102.0331 419.7742 C 180.7441 434.9562 344.0841 424.1052 373.9711 409.9452 C 409.7861 389.7852 427.8971 387.5992 433.5981 377.8372 C 430.2231 369.7422 398.5641 354.6382 405.4231 348.3502 C 399.7081 341.2072 375.0751 341.9472 380.5221 326.7262 C 363.2581 321.7932 377.1501 326.6942 364.7961 317.5522 C 360.1801 316.3982 358.9771 306.4122 354.3111 306.4122 C 312.2231 278.1602 106.8501 287.4102 63.3721 311.0002 C 57.1701 323.3332 46.3731 323.0002 39.1269 325.4152 z "
     style="font-size:12;fill:#42aa44;fill-opacity:1;fill-rule:evenodd;"
     id="path19" />
  <path
     d="M 53.7383 334.8815 C 65.1061 325.1895 187.7421 97.0578 189.6061 97.0578 C 193.4491 91.2934 197.8721 78.4435 203.6881 72.6275 C 206.7031 69.6122 207.5721 66.1614 210.1241 62.7593 C 212.0461 61.798 213.2571 52.9477 215.4041 57.243 C 220.2411 73.3647 230.6201 74.0087 233.9091 90.4556 C 238.7851 102.6467 344.0371 305.1945 349.2361 308.6605 C 356.9201 320.1855 366.9581 329.6585 376.7581 339.4585 C 379.7861 341.9825 382.4971 344.5415 385.2761 347.3215 C 387.0261 349.0715 385.8441 347.3215 383.9661 347.3215 C 378.2421 347.3215 286.7851 312.2475 255.5331 310.6265 C 248.8461 310.6265 183.2801 304.3155 97.61309 320.4555 C 95.11609 321.1685 87.98609 322.2185 85.1631 325.0425 C 82.3791 325.0425 50.8083 337.8115 53.7383 334.8815 z "
     style="font-size:12;fill:url(#linearGradient470);fill-opacity:1;fill-rule:evenodd;stroke:#000000;stroke-width:6.25;"
     id="path12" />
  <path
     d="M 194.9906 137.1053 C 199.2236 130.3328 216.1145 64.82409 218.0525 57.07119 C 227.3045 41.05089 243.3455 22.34369 239.7165 7.32819 "
     style="font-size:12;fill:none;fill-opacity:1;fill-rule:evenodd;stroke:#734c14;stroke-width:7.299999;"
     id="path15" />
  <path
     d="M 229.0237 88.00664 C 229.0237 80.39158 208.1078 47.88444 208.1078 40.16284 C 207.1584 38.22274 216.8345 9.567582 215.3921 9.567582 "
     style="font-size:12;fill:none;fill-opacity:1;fill-rule:evenodd;stroke:#000000;stroke-width:7.647246;"
     id="path16" />
  <path
     d="M 226.5325 78.42748 C 224.9665 74.77418 223.9005 68.59328 219.9795 66.63268 C 218.5985 64.56098 214.0815 59.32748 213.4265 58.76938 C 209.9475 57.02948 210.0195 51.82368 206.8745 50.25088 C 206.1275 48.01078 206.8745 47.78668 204.2535 46.31928 C 197.7576 40.45998 191.8026 39.03498 191.1476 36.49018 C 187.8216 35.48248 184.7846 27.97178 182.6296 27.97178 "
     style="font-size:12;fill:none;fill-opacity:1;fill-rule:evenodd;stroke:#735c26;stroke-width:6;"
     id="path14" />
  <path
     d="M 180.8308 305.7992 C 181.5993 297.3757 182.8727 296.0213 185.1462 289.0871 C 189.6424 280.165 189.0749 277.2649 189.8103 269.2039 C 190.4408 262.2917 190.3607 255.3648 191.0071 248.2796 C 191.5019 242.8559 192.6576 237.9917 193.1569 232.5193 C 192.1382 225.77 192.1496 219.5376 194.9287 213.0971 C 197.5131 205.5955 198.4287 198.1567 199.148 190.2718 C 197.9654 183.8689 200.0035 180.8943 200.5917 174.4471 C 202.1353 171.5506 202.6467 165.4046 205.1744 163.2601 C 207.4956 159.4538 207.3489 155.0453 207.7689 150.4409 C 208.1631 146.1204 209.245 142.0652 209.6562 137.5582 C 209.9313 134.5429 208.0806 131.5947 210.3791 129.6455 C 210.83 124.7024 211.9441 120.2951 212.3977 115.323 C 212.7476 111.4872 213.0976 107.6504 213.4476 103.8147 C 214.1044 96.61449 213.2579 91.92593 211.621 84.78951 C 211.9391 81.3018 211.9958 75.18055 214.856 72.75444 C 215.4459 66.28742 217.368 60.83954 217.9754 54.18098 C 218.1848 51.88557 218.5021 50.02705 217.0871 48.29742 C 215.6371 44.51 214.79 42.24583 215.2458 37.24979 C 216.4688 34.41471 216.4157 30.94799 218.8589 28.87573 C 220.3472 25.42679 224.1675 24.12743 224.5041 20.43762 C 230.0251 18.66905 229.6501 9.037209 229.9289 8.579178 "
     style="font-size:12;fill:none;fill-opacity:1;fill-rule:evenodd;stroke:#735d27;stroke-width:6.185412;stroke-linecap:round;"
     id="path131" />
  <path
     d="M 199.9355 99.53091 C 204.095 94.09905 206.255 90.29618 212.0442 85.9756 C 214.7845 77.79782 219.3893 70.43232 222.9426 62.47988 C 224.7498 57.08236 228.7854 56.80157 231.0619 51.70414 C 231.0619 48.51897 236.7587 48.31404 236.7587 45.12984 C 237.9949 42.36378 241.5316 41.11555 244.878 39.86636 C 244.878 36.98018 253.2966 28.1887 253.2966 25.42884 "
     style="font-size:12;fill:none;fill-opacity:1;fill-rule:evenodd;stroke:#63260c;stroke-width:10.85514;"
     id="path13" />
  <path
     d="M 252.143 305.101 C 251.3745 296.6775 249.4244 298.7069 249.1811 289.7424 C 244.685 280.8203 245.2525 277.9202 244.5171 269.8592 C 243.8865 262.947 243.9666 256.0201 243.3203 248.9349 C 242.8255 243.5112 241.6697 238.647 241.1705 233.1746 C 242.1892 226.4253 242.1777 220.1929 239.3987 213.7524 C 236.8142 206.2508 235.8986 198.812 235.1793 190.9271 C 236.3619 184.5242 234.3238 181.5496 233.7357 175.1024 C 232.1921 172.2059 231.6806 166.0599 229.1529 163.9154 C 226.8317 160.1091 226.9784 155.7006 226.5584 151.0962 C 226.1643 146.7757 225.0823 142.7205 224.6711 138.2135 C 224.3961 135.1982 226.2468 132.25 223.9483 130.3008 C 223.4973 125.3577 222.3832 120.9503 221.9297 115.9783 C 221.5797 112.1425 221.2297 108.3057 220.8798 104.47 C 220.2229 97.26978 221.0695 92.58121 222.7064 85.44479 C 222.3882 81.95709 222.3315 75.83584 219.4714 73.40973 C 218.8814 66.94271 216.9593 61.49483 216.3519 54.83627 C 216.1425 52.54086 215.8252 50.68233 217.2402 48.95267 C 218.6902 45.16529 211.0192 46.8327 210.5635 41.83666 C 206.0639 37.69108 208.0828 36.84544 205.6399 32.80739 C 204.1516 29.35841 200.3308 29.36962 203.2704 23.71395 C 197.7491 21.29021 198.124 16.24527 197.8452 15.7872 "
     style="font-size:12;fill:none;fill-opacity:1;fill-rule:evenodd;stroke:#735d27;stroke-width:6.185412;stroke-linecap:round;"
     id="path17" />
  <path
     d="M 154.1271 313.2922 C 158.5181 318.6662 152.5001 397.1802 158.0581 402.7382 C 221.6741 389.4502 241.0061 380.7302 276.0061 405.6862 C 280.0381 399.6382 284.2931 317.6482 276.0071 313.2932 C 263.1951 309.3612 205.1291 305.3212 154.1271 313.2922 z "
     style="font-size:12;fill-opacity:0.226601;fill-rule:evenodd;"
     id="path20" />
  <path
     d="M 39.0486 346.3242 C 39.0486 348.9712 62.9455 412.5462 162.2915 404.5982 C 160.6265 318.8682 163.4675 286.3682 165.9945 276.2622 C 174.5125 260.7782 193.1705 174.7852 195.2535 160.5642 C 197.5975 150.0132 205.4345 115.2592 205.4345 108.7582 C 206.4925 104.5272 212.2915 64.65478 212.2915 59.30038 C 176.9855 46.59099 169.1965 52.74899 199.3335 71.37998 C 191.8905 80.04598 127.6075 200.5512 119.9925 217.4002 C 117.6095 229.9682 48.6927 343.2852 39.0486 346.3242 z "
     style="font-size:12;fill:url(#linearGradient142);fill-opacity:1;fill-rule:evenodd;stroke:#000000;stroke-width:6.25;stroke-linejoin:round;"
     id="path10" />
  <path
     d="M 274.6872 404.9231 C 347.0862 406.6821 381.6242 383.1751 385.7322 348.4971 C 376.4422 337.4461 302.1482 223.4751 298.2582 208.4741 C 292.5392 195.8111 260.0902 136.9091 257.0622 136.9091 C 252.3992 130.5601 230.0922 79.4224 228.9152 73.0035 C 234.6772 66.022 256.2182 54.2223 256.2182 52.5159 C 254.6332 50.931 229.8442 56.121 229.8442 59.3994 C 218.0392 67.8917 213.5962 70.2083 216.5322 75.5462 C 217.6852 80.1559 220.4102 83.5241 222.6262 87.9572 C 225.4212 97.7402 226.5072 119.6571 226.5072 124.9941 C 228.4302 130.7631 264.8582 245.2671 264.8582 267.7651 C 264.8582 289.3891 280.7652 343.9361 274.6872 404.9231 z "
     style="font-size:12;fill:url(#linearGradient132);fill-opacity:1;fill-rule:evenodd;stroke:#000000;stroke-width:6.25;stroke-linejoin:round;"
     id="path11" />

  <metadata>
    <rdf:RDF 
     xmlns="http://web.resource.org/cc/"
     xmlns:dc="http://purl.org/dc/elements/1.1/"
     xmlns:rdf="http://www.w3.org/1999/02/22-rdf-syntax-ns#">
      <Work rdf:about="">
        <dc:title>Lemon SVG theme</dc:title>
	<dc:description></dc:description>
        <dc:subject>
          <rdf:Bag>
            <rdf:li>lemon_theme_icon</rdf:li>
            <rdf:li>icon</rdf:li>
          </rdf:Bag>
        </dc:subject>
        <dc:publisher>
           <Agent rdf:about="">
             <dc:title>Open Clip Art Library</dc:title>
           </Agent>
         </dc:publisher>
         <dc:creator>
           <Agent rdf:about="">
             <dc:title>Jose Hevia</dc:title>
           </Agent>
        </dc:creator>
         <dc:rights>
           <Agent rdf:about="">
             <dc:title></dc:title>
           </Agent>
        </dc:rights>
        <dc:date></dc:date>
        <dc:format>image/svg+xml</dc:format>
        <dc:type rdf:resource="http://purl.org/dc/dcmitype/StillImage" />
        <license rdf:resource="Public Domain">
	  <dc:date>1</dc:date>
	</license>
        <dc:language>en</dc:language>
      </Work>

      <License rdf:about="Public Domain">
         <permits rdf:resource="http://web.resource.org/cc/Reproduction" />
         <permits rdf:resource="http://web.resource.org/cc/Distribution" />
         <permits rdf:resource="http://web.resource.org/cc/DerivativeWorks" />
      </License>


    </rdf:RDF>
  </metadata>
</svg>
