<?xml version="1.0" encoding="UTF-8" standalone="no"?>
<!-- Created with Inkscape (http://www.inkscape.org/) -->
<svg
   xmlns:dc="http://purl.org/dc/elements/1.1/"
   xmlns:cc="http://creativecommons.org/ns#"
   xmlns:rdf="http://www.w3.org/1999/02/22-rdf-syntax-ns#"
   xmlns:svg="http://www.w3.org/2000/svg"
   xmlns="http://www.w3.org/2000/svg"
   xmlns:sodipodi="http://sodipodi.sourceforge.net/DTD/sodipodi-0.dtd"
   xmlns:inkscape="http://www.inkscape.org/namespaces/inkscape"
   sodipodi:docname="tower_flag_red.svg"
   sodipodi:docbase="/home/nicu/Desktop/hats"
   inkscape:version="0.45+devel"
   sodipodi:version="0.32"
   id="svg2"
   height="128.00000px"
   width="128.00000px"
   inkscape:output_extension="org.inkscape.output.svg.inkscape">
  <defs
     id="defs3">
    <filter
       inkscape:collect="always"
       id="filter2960">
      <feGaussianBlur
         inkscape:collect="always"
         stdDeviation="2.5972341"
         id="feGaussianBlur2962" />
    </filter>
  </defs>
  <sodipodi:namedview
     inkscape:window-y="24"
     inkscape:window-x="0"
     inkscape:window-height="791"
     inkscape:window-width="1152"
     inkscape:current-layer="layer1"
     inkscape:document-units="px"
     inkscape:cy="64"
     inkscape:cx="64"
     inkscape:zoom="1"
     inkscape:pageshadow="2"
     inkscape:pageopacity="0.0"
     borderopacity="1.0"
     bordercolor="#666666"
     pagecolor="#ffffff"
     id="base"
     fill="#8b4513"
     showgrid="false" />
  <g
     id="layer1"
     inkscape:groupmode="layer"
     inkscape:label="Layer 1">
    <path
       style="fill:#000000;fill-opacity:0.35159816999999999;fill-rule:evenodd;stroke:none;stroke-width:1px;stroke-linecap:butt;stroke-linejoin:miter;stroke-opacity:1;filter:url(#filter2960)"
       d="M 93.3125,15.78125 C 93.189316,17.154165 89.809742,20.427328 86.53125,26.4375 C 78.802504,33.518434 73.223285,39.21563 68.1875,42.8125 C 64.173653,45.038556 62.60905,49.327563 60.15625,54.09375 C 61.002529,58.279142 63.135257,69.262276 59.1875,74.21875 C 56.352046,81.180139 52.176261,87.601349 50.1875,94.90625 C 49.214603,100.64303 39.899715,103.71205 43.03125,109.71875 C 44.512411,113.11612 47.475701,114.32864 50.6875,114.4375 C 52.925829,114.72447 55.424472,114.15859 57.875,113.34375 C 58.211704,113.25478 58.52268,113.12663 58.8125,113 C 61.257149,112.32375 63.652763,111.50843 66.0625,110.71875 C 67.906254,99.144329 70.607818,87.547727 76,77.0625 C 77.012187,71.836829 85.059505,72.54549 85.28125,66.28125 C 88.259721,59.733915 90.794255,56.078266 87.4375,49.09375 C 85.517338,44.159836 84.366892,34.860563 86.875,29.1875 C 86.888769,29.16153 86.923642,29.150794 86.9375,29.125 C 86.95469,29.086824 86.951223,29.037836 86.96875,29 C 87.387053,28.236164 87.847126,27.549179 88.34375,26.96875 C 89.067678,26.402636 89.770151,25.880937 90.40625,25.4375 C 92.526437,24.27531 94.410549,24.054437 96.1875,24.375 C 100.09247,25.377938 102.95237,29.766618 108.1875,31.09375 C 110.98644,32.560504 114.15324,33.472518 118.0625,32.6875 C 108.16993,30.070784 110.0687,18.323899 93.3125,15.78125 z"
       id="path3113"
       transform="matrix(1,0,0,0.8582018,0,16.237753)" />
    <g
       id="g3913"
       transform="matrix(1.844312,0,0,1.844312,-20.37805,-5.556978)">
      <path
         id="path1438"
         d="M 24.75,29.112183 L 24.375,40.487183 L 27.125,41.237183 L 28.125,65.112183 L 37.25,69.987183 L 40.125,68.737183 L 46.75,63.862183 L 45.875,56.737183 L 46.125,43.737183 L 45.875,39.612183 L 46.5,39.362183 L 46.5,32.237183 L 45.5,27.987183 L 40.875,30.987183 L 37.125,32.487183 L 34.125,34.612183 L 24.75,29.112183 z"
         style="fill:#fff8dc;fill-opacity:1;fill-rule:evenodd;stroke:none;stroke-width:1px;stroke-linecap:butt;stroke-linejoin:miter;stroke-opacity:1" />
      <path
         id="path2199"
         d="M 34.5,15.112183 L 32.875,18.362183 L 28.25,23.487183 L 25.625,26.987183 L 24.875,29.112183 L 34,34.4595 L 39.763841,31.285842 C 41.960854,30.552346 43.67128,29.429582 45.479024,28.063524 L 40.25,21.987183 L 35.375,14.487183 L 34.5,15.112183 z"
         style="fill:#7fffd4;fill-opacity:1;fill-rule:evenodd;stroke:none;stroke-width:1px;stroke-linecap:butt;stroke-linejoin:miter;stroke-opacity:1"
         sodipodi:nodetypes="ccccccccccc" />
      <path
         id="path2201"
         d="M 34.625,7.1121826 L 38.25,7.6121826 L 39.75,9.362183 L 41.125,12.987183 L 43.375,14.487183 L 49.75,14.987183 L 57.375,14.362183 L 56.625,15.237183 L 48.875,17.487183 L 43.25,18.237183 L 41.375,17.987183 L 40,16.737183 L 39.25,14.362183 L 36.375,12.487183 L 34.625,12.362183 L 34.625,7.1121826 z"
         style="fill:#ff0000;fill-opacity:1;fill-rule:evenodd;stroke:none;stroke-width:1px;stroke-linecap:butt;stroke-linejoin:miter;stroke-opacity:1" />
      <path
         id="path2203"
         d="M 34.875,14.737183 L 31.75,19.862183 L 26.5,25.487183 L 24.75,29.487183 L 24.375,40.612183 L 27.25,41.362183 L 26.875,47.612183 L 28,56.862183 L 28.25,65.237183 L 37.5,69.987183 L 37.875,65.862183 L 36.75,58.237183 L 36.625,49.987183 L 36.25,43.487183 L 34.25,44.612183 L 34.125,44.362183 L 34.25,34.612183 L 33,32.237183 L 33.75,24.362183 L 34,19.487183 L 34.875,14.737183 z"
         style="fill:#060000;fill-opacity:0.28235294;fill-rule:evenodd;stroke:none;stroke-width:1px;stroke-linecap:butt;stroke-linejoin:miter;stroke-opacity:1" />
      <path
         id="path2205"
         d="M 40.25,33.612183 L 39,35.862183 C 39,35.862183 37.25,37.862183 38.25,38.112183 C 39.25,38.362183 43.819635,36.688524 43.819635,36.688524 L 40.25,33.612183 z"
         style="fill:#8b4513;fill-opacity:1;fill-rule:evenodd;stroke:none;stroke-width:1px;stroke-linecap:butt;stroke-linejoin:miter;stroke-opacity:1"
         sodipodi:nodetypes="ccccc" />
      <path
         id="path2207"
         d="M 31.875,47.112183 C 31.875,47.112183 33.375,49.612183 33.375,50.612183 C 33.375,51.612183 33.5,53.112183 33.5,53.112183 L 29.875,51.612183 L 30.625,47.862183 L 31.875,47.112183 z"
         style="fill:#8b4513;fill-opacity:1;fill-rule:evenodd;stroke:none;stroke-width:1px;stroke-linecap:butt;stroke-linejoin:miter;stroke-opacity:1" />
      <path
         id="path2209"
         d="M 27.375,37.862183 C 28.125,38.112183 31,39.362183 31,39.362183 L 30.625,36.487183 L 29.875,35.112183 L 28.5,35.362183 L 27.375,37.862183 z"
         style="fill:#8b4513;fill-opacity:1;fill-rule:evenodd;stroke:none;stroke-width:1px;stroke-linecap:butt;stroke-linejoin:miter;stroke-opacity:1" />
      <path
         id="path2213"
         d="M 40.5,68.362183 L 40.25,63.862183 L 42.125,58.487183 L 44.25,60.487183 L 45.375,63.487183 L 45.625,64.987183 L 40.5,68.362183 z"
         style="fill:#8b4513;fill-opacity:1;fill-rule:evenodd;stroke:none;stroke-width:1px;stroke-linecap:butt;stroke-linejoin:miter;stroke-opacity:1" />
      <path
         id="path2995"
         d="M 34.499199,6.9191443 L 38.090221,7.3544196 L 39.94014,9.966071 L 41.028329,12.904179 L 42.334155,18.453939 L 40.048959,17.256932 L 39.722503,14.971737 L 37.21967,13.012998 L 34.934475,12.251267 L 34.499199,6.9191443 z"
         style="fill:#060000;fill-opacity:0.28235294;fill-rule:evenodd;stroke:none;stroke-width:1px;stroke-linecap:butt;stroke-linejoin:miter;stroke-opacity:1" />
      <path
         sodipodi:nodetypes="cccccccccccccccccccccccccccccccccccccccccccccccccccccccccccccccccccccccccccccccccccccccccccccccccccccccccccccccccccccccccccccccccccccccccccccccccccccccccccccccccccccccccccccccccccccccccccccccccccccccccccccccccccccc"
         id="path1297"
         d="M 33.97823,7.36518 C 33.98046,8.43412 34.24611,9.48928 34.19512,10.56439 C 34.28,11.7054 34.55008,12.90899 34.50739,14.00535 C 33.66605,17.54148 31.06763,20.27422 28.7197,22.89774 C 27.65727,24.13198 26.41341,25.2389 25.5568,26.63177 C 25.14576,27.30903 25.11079,28.20804 24.71274,28.84279 C 24.01032,29.16393 24.38058,29.39312 24.25858,30.02721 C 24.14998,33.24663 24.26074,36.47237 24.13569,39.69055 C 24.27044,40.09814 23.97107,41.26433 24.3844,41.18809 C 24.98641,40.70866 25.69111,41.32954 26.34614,41.41957 C 26.97957,41.5163 26.55506,41.676467 26.80298,41.73318 C 26.32859,43.50311 26.70562,45.36848 26.64565,47.17828 C 26.75566,51.25943 27.70411,55.27496 27.6896,59.36595 C 27.74665,61.36439 27.85492,63.36074 27.94655,65.35778 C 27.28621,65.71593 28.1381,65.57659 28.461,65.75757 C 31.29599,67.10531 34.07289,68.57541 36.7918,70.15078 C 37.3397,70.25505 37.26089,70.83681 37.85666,70.52641 C 38.15917,70.17138 38.6033,69.88194 39.1114,69.64747 C 42.03349,67.95524 44.96733,66.12028 47.23308,63.58022 C 47.90831,62.94488 46.75702,63.45852 46.4545,63.62537 C 46.05986,64.03863 45.53079,64.72816 45.67081,63.74342 C 45.57822,61.99255 44.58814,60.41372 43.48289,59.11203 C 43.11488,58.78668 42.62745,58.31571 42.16727,58.2905 C 41.54762,58.56023 41.60666,58.6926 41.73144,58.99838 C 41.40392,58.70189 40.5384,59.31673 41.24601,59.72643 C 40.74993,61.30076 39.91164,62.91298 39.93464,64.62614 C 40.12652,65.47512 39.83774,66.27213 39.58065,67.07159 C 40.27279,66.48584 40.14927,67.2935 40.15398,67.81538 C 40.04636,68.22641 41.11402,67.72664 40.91327,67.34741 C 41.00174,66.42616 41.40624,67.51492 40.91282,67.91178 C 40.48084,68.48754 39.66902,68.72984 39.07509,69.15189 C 38.53905,69.45002 37.83266,70.01332 38.14657,68.98846 C 38.19069,68.12477 38.33633,67.27078 38.42778,66.41148 C 38.05111,66.45333 38.39215,65.43259 38.28903,65.00763 C 38.33007,63.12213 37.75559,61.29598 37.54087,59.43241 C 37.16332,57.19448 37.11843,54.92768 37.11969,52.66398 C 37.08984,49.68627 37.04078,46.70457 36.68607,43.74451 C 35.84296,44.19687 37.06785,43.51372 37.35344,43.36807 C 39.92991,41.96375 42.67345,40.84235 45.51856,40.09374 C 45.92121,44.64339 45.93445,49.21934 45.65249,53.77605 C 45.51134,57.12286 45.61965,60.47592 45.92145,63.81132 C 46.57852,63.64563 46.80868,63.24767 46.58756,62.60263 C 46.14553,58.34202 46.32101,54.05258 46.53013,49.78477 C 46.63208,46.47736 46.42548,43.17325 46.27785,39.87061 C 46.60518,39.67009 47.53873,38.90887 46.60954,39.22724 C 43.82405,39.97184 41.07715,40.89435 38.51745,42.23817 C 37.13968,42.89759 35.8152,43.66688 34.55077,44.52549 C 34.5343,42.71815 34.18252,40.92151 34.35982,39.10901 C 34.44638,37.63705 34.45785,36.16288 34.4733,34.68888 C 35.3991,34.47049 35.82839,33.48801 36.66008,33.07793 C 38.37593,31.94521 40.48982,31.64932 42.24056,30.56873 C 43.69922,29.77288 44.708301,29.299106 45.888731,28.135226 C 46.224861,27.718856 45.44656,27.63959 45.24315,27.92378 C 43.38725,29.55051 41.17387,30.70389 38.84486,31.49084 C 37.17632,32.0778 35.61203,33.02351 34.41132,34.33248 C 33.66895,34.09125 33.74226,33.19783 33.6413,32.56111 C 33.475,31.09288 34.03887,29.65259 33.92138,28.17455 C 33.90878,24.98409 34.16642,21.78949 34.84666,18.6691 C 35.02296,17.55529 35.25855,16.44654 35.29457,15.31628 C 36.99394,18.09284 38.68498,20.92745 41.04213,23.20625 C 42.39321,24.60637 43.921435,26.500848 44.860935,28.225068 C 45.544765,28.009268 45.874738,27.652338 45.370568,27.142698 C 43.590008,24.300348 40.35295,21.84693 38.54554,19.01973 C 37.38004,17.31622 36.17456,15.50458 35.313,13.69433 C 35.2808,13.21993 34.95634,12.40293 35.75323,12.69442 C 37.23966,12.97192 38.54832,14.01116 39.31722,15.28529 C 39.64085,16.33259 39.63934,17.70562 40.7778,18.25103 C 42.55185,19.16321 44.60422,18.51338 46.44488,18.17569 C 49.91108,17.55744 53.45064,16.96042 56.64217,15.40431 C 57.36731,15.07664 57.94684,14.52648 58.59375,14.07663 C 54.00377,14.42701 49.35895,15.30641 44.77167,14.51361 C 43.66447,14.32051 42.50468,14.04171 41.77135,13.11391 C 40.62586,11.84231 40.52031,10.01189 39.76285,8.55388 C 38.53419,7.05555 36.47431,6.85448 34.67164,6.75961 C 34.99808,6.18418 33.41193,7.17169 33.97823,7.36518 z M 35.8648,7.5003 C 37.15301,7.65764 38.68963,8.09625 39.27867,9.35563 C 39.94166,11.15779 40.34709,13.34608 42.14684,14.39389 C 43.1023,14.98386 44.2918,15.05438 45.38293,15.22634 C 49.17958,15.73091 52.99847,15.09059 56.78696,14.79873 C 53.5818,16.39755 50.00603,16.96572 46.51705,17.60424 C 44.7904,17.91356 42.86082,18.52944 41.21078,17.64372 C 39.92864,16.90614 40.61438,15.05905 39.48742,14.18827 C 38.47679,13.00175 36.98061,11.92244 35.36894,12.0684 C 34.93485,12.33998 35.1172,11.13483 34.98852,10.76181 C 34.85096,9.65442 35.01889,8.52129 34.7987,7.42282 C 35.15407,7.44864 35.50943,7.47447 35.8648,7.5003 z M 34.42061,16.95261 C 34.04481,19.40732 33.45767,21.83159 33.344,24.32127 C 33.13375,26.81674 33.32009,29.33704 32.84881,31.80454 C 32.81378,32.37623 32.88873,32.95808 32.99812,33.52051 C 30.37053,32.0598 27.56675,30.87084 25.16664,29.02989 C 25.72447,28.65957 25.26355,28.69515 25.72281,28.16711 C 25.96719,26.91778 26.69818,25.87014 27.57803,24.97991 C 30.05018,22.14264 32.88592,19.50432 34.51358,16.05077 C 34.48259,16.35139 34.4516,16.652 34.42061,16.95261 z M 45.91525,28.20242 C 45.12236,28.32729 45.59093,29.05075 45.64824,29.5789 C 46.3378,32.74444 46.42829,36.01223 46.35842,39.24459 C 46.98072,39.07791 47.27245,38.70946 47.10608,38.05453 C 47.19099,34.70366 46.80613,31.36048 46.15078,28.07846 C 46.07227,28.11978 45.99376,28.1611 45.91525,28.20242 z M 25.82675,30.4059 C 28.22622,31.88507 30.81004,33.0277 33.23055,34.47504 C 33.35675,34.89287 33.94351,34.57574 33.72457,35.31786 C 33.81853,38.02318 33.33442,40.73476 33.74936,43.43123 C 33.76694,43.93009 34.021,45.0237 33.29462,44.32436 C 31.86255,43.38993 30.43039,42.43631 28.93836,41.59955 C 27.72298,41.03876 26.40906,40.744 25.13874,40.33548 C 24.69602,40.53995 24.95603,39.46136 24.8572,39.099 C 24.99454,36.04437 25.09131,32.98921 25.12635,29.93173 C 25.35981,30.08979 25.59328,30.24784 25.82675,30.4059 z M 40.30894,33.23539 C 39.74081,33.47456 39.86045,33.66728 39.49387,34.06596 C 38.58219,35.50907 37.92036,37.318897 37.74626,38.991707 C 39.15653,38.133997 41.24377,37.97872 42.80986,37.41815 C 43.30346,37.23721 43.8544,37.06936 44.14875,36.59794 C 43.83895,36.59576 43.68438,35.90737 43.39524,35.56481 C 42.70675,34.43417 41.35993,34.03531 40.4236,33.16411 L 40.33938,33.21647 L 40.30894,33.23539 z M 41.18289,34.64239 C 42.00801,35.13692 42.74769,35.76856 43.13628,36.67174 C 42.91237,36.9224 42.19422,36.99814 41.77452,37.1445 C 40.90396,37.40836 39.95645,37.51799 39.13131,37.87165 C 38.70434,38.19541 39.152,36.93473 39.16354,36.59757 C 39.37481,35.67856 39.93052,34.89704 40.29654,34.03807 C 40.59199,34.23951 40.88744,34.44095 41.18289,34.64239 z M 29.65416,34.76946 C 29.32459,34.773 28.90444,34.70035 28.60366,34.97781 C 27.71667,35.475 27.41637,36.57197 27.15007,37.47499 C 26.6501,37.76218 27.18666,38.13542 27.05656,38.52281 C 27.51105,38.19112 27.91889,38.14358 28.35253,38.53489 C 28.97543,38.83663 29.59188,39.124 30.2089,39.43983 C 30.53099,39.29276 30.39743,40.14335 31.06207,39.49365 C 31.34031,39.183 31.05976,38.54559 31.10222,38.1079 C 30.95339,37.01561 31.02753,35.66673 30.06945,34.93991 C 29.9272,34.87503 29.81752,34.55767 29.65416,34.76946 z M 29.60458,35.58143 C 30.40675,36.4009 30.19113,37.65007 30.37626,38.69295 C 29.51231,38.3543 28.82048,37.6492 27.90626,37.4378 C 28.08219,36.72252 28.31145,35.83377 28.91953,35.41191 C 29.22946,35.40411 29.38142,35.28182 29.60458,35.58143 z M 28.1139,42.0245 C 29.912,42.89169 31.51056,44.11207 33.20576,45.15461 C 33.74253,44.65058 33.82591,45.03761 34.39582,44.63706 C 33.7565,45.26012 34.86531,44.9261 35.16555,44.6564 C 35.73948,44.16721 36.13604,44.06233 36.05262,44.96568 C 36.56963,48.99699 36.2838,53.08942 36.55124,57.14023 C 36.74064,59.64075 37.33107,62.0937 37.54257,64.58863 C 37.55136,65.94829 37.49383,67.36815 37.43164,68.65772 C 37.39519,69.26299 37.4418,69.93007 36.75625,69.27478 C 34.40495,68.09678 32.27265,66.46502 29.80902,65.50572 C 29.1102,65.42328 28.92977,65.07576 28.6881,65.02088 C 28.42537,62.31516 28.40102,59.4705 28.28424,56.70891 C 28.05292,52.51784 26.97679,48.35307 27.49139,44.13994 C 27.5251,43.35754 27.58895,42.56106 27.45689,41.78587 C 27.67589,41.86541 27.89489,41.94495 28.1139,42.0245 z M 31.67479,46.67938 C 31.15532,46.89212 31.1769,47.16828 30.79322,47.53398 C 29.83024,48.54405 29.936919,50.539336 29.743109,51.833236 C 30.193388,52.47198 30.529669,52.484042 30.83591,52.49685 C 31.6184,52.88839 32.42361,53.23296 33.23675,53.55633 C 33.29982,53.73256 34.19076,53.55294 34.06106,53.08393 C 33.63054,50.92552 33.51539,48.50604 31.9785,46.78165 C 31.668959,46.727997 31.696357,46.698457 31.67479,46.67938 z M 31.95991,48.07398 C 32.75777,49.51114 32.9308,51.17119 33.21195,52.76295 C 32.2677,52.37818 31.3432,51.94664 30.43514,51.48302 C 30.50942,50.18965 30.70611,48.87748 31.20682,47.67729 C 31.64442,47.26462 31.6776,47.8071 31.95991,48.07398 z M 42.85642,59.58412 C 43.30713,59.93011 42.00733,60.23818 42.67246,59.53875 C 42.6758,59.32702 42.79714,59.5769 42.85642,59.58412 z M 43.6064,60.54174 C 42.81475,61.13179 43.15687,59.42911 43.53965,60.44747 L 43.59696,60.52841 L 43.6064,60.54174 z M 43.04236,61.46218 C 43.16194,62.45951 42.27746,61.99792 42.70158,61.32287 C 42.70661,61.04336 42.95147,61.45636 43.04236,61.46218 z M 43.86983,62.24936 C 44.42734,62.65495 44.08752,63.58362 43.56393,62.81133 C 43.4123,62.71293 43.6121,61.59485 43.86983,62.24936 z M 42.67977,63.05203 C 42.39598,63.70844 41.95303,62.06978 42.63508,63.00769 L 42.67977,63.05203 z M 44.83056,63.1419 C 45.19492,63.97005 44.20223,63.86482 44.75458,63.16631 C 44.77785,63.1773 44.82954,62.92396 44.83056,63.1419 z M 41.41223,63.28447 C 41.30794,63.78985 40.9419,64.89477 41.25942,63.77089 C 41.30751,63.61022 41.35826,63.43142 41.41223,63.28447 z M 43.67459,63.89189 C 43.43199,64.33076 42.9151,63.06191 43.62522,63.85169 L 43.67459,63.89189 z M 42.38535,64.04995 C 42.24773,64.41753 42.02524,65.50574 41.75032,64.70399 C 41.94811,64.32784 41.79112,63.38976 42.38535,64.04995 z M 44.40288,64.59849 C 44.08912,65.73581 43.80614,63.91175 44.36187,64.55489 L 44.40288,64.59849 z M 42.97418,64.5675 C 43.45432,64.8029 42.65139,66.22801 42.57051,65.4875 C 42.71168,65.25495 42.78613,64.57012 42.97418,64.5675 z M 44.98861,65.02617 C 44.55781,65.57217 44.9499,64.75313 44.98368,64.96081 L 44.98861,65.02617 z M 43.64359,65.80715 C 43.48215,66.40503 43.10374,66.55939 43.43038,65.82334 C 43.5532,65.59607 43.50119,65.52173 43.64359,65.80715 z M 41.72833,65.86913 C 41.45673,67.13148 41.14151,65.34358 41.71224,65.85347 L 41.72833,65.86913 z"
         style="fill:#000000;fill-opacity:1;fill-rule:nonzero;stroke:none;stroke-width:1px;stroke-linecap:butt;stroke-linejoin:miter;stroke-opacity:1" />
    </g>
  </g>
  <metadata
     id="metadata22">
    <rdf:RDF>
      <cc:Work
         rdf:about="">
        <dc:title>castle - RPG map elements</dc:title>
        <dc:description />
        <dc:subject>
          <rdf:Bag>
            <rdf:li>mapsym</rdf:li>
          </rdf:Bag>
        </dc:subject>
        <dc:publisher>
          <cc:Agent>
            <dc:title />
          </cc:Agent>
        </dc:publisher>
        <dc:creator>
          <cc:Agent>
            <dc:title>Nicu Buculei</dc:title>
          </cc:Agent>
        </dc:creator>
        <dc:rights>
          <cc:Agent>
            <dc:title>Nicu Buculei</dc:title>
          </cc:Agent>
        </dc:rights>
        <dc:date />
        <dc:format>image/svg+xml</dc:format>
        <dc:type
           rdf:resource="http://purl.org/dc/dcmitype/StillImage" />
        <cc:license
           rdf:resource="http://web.resource.org/cc/PublicDomain" />
        <dc:language>en</dc:language>
      </cc:Work>
      <cc:License
         rdf:about="http://web.resource.org/cc/PublicDomain">
        <cc:permits
           rdf:resource="http://web.resource.org/cc/Reproduction" />
        <cc:permits
           rdf:resource="http://web.resource.org/cc/Distribution" />
        <cc:permits
           rdf:resource="http://web.resource.org/cc/DerivativeWorks" />
      </cc:License>
    </rdf:RDF>
  </metadata>
</svg>
