<?xml version="1.0" encoding="UTF-8" standalone="no"?>
<!-- Created with Inkscape (http://www.inkscape.org/) -->
<svg
   xmlns:dc="http://purl.org/dc/elements/1.1/"
   xmlns:cc="http://creativecommons.org/ns#"
   xmlns:rdf="http://www.w3.org/1999/02/22-rdf-syntax-ns#"
   xmlns:svg="http://www.w3.org/2000/svg"
   xmlns="http://www.w3.org/2000/svg"
   xmlns:xlink="http://www.w3.org/1999/xlink"
   xmlns:sodipodi="http://sodipodi.sourceforge.net/DTD/sodipodi-0.dtd"
   xmlns:inkscape="http://www.inkscape.org/namespaces/inkscape"
   width="128"
   height="128"
   id="svg2"
   sodipodi:version="0.32"
   inkscape:version="0.45+devel"
   version="1.0"
   sodipodi:docname="tower_square.svg"
   inkscape:output_extension="org.inkscape.output.svg.inkscape">
  <defs
     id="defs4">
    <linearGradient
       id="linearGradient2338">
      <stop
         style="stop-color:#b1b1b1;stop-opacity:1;"
         offset="0"
         id="stop2340" />
      <stop
         style="stop-color:#e4e4e4;stop-opacity:1;"
         offset="1"
         id="stop2342" />
    </linearGradient>
    <linearGradient
       id="linearGradient2320">
      <stop
         style="stop-color:#6a3c1d;stop-opacity:1;"
         offset="0"
         id="stop2322" />
      <stop
         style="stop-color:#8f5127;stop-opacity:1;"
         offset="1"
         id="stop2324" />
    </linearGradient>
    <linearGradient
       inkscape:collect="always"
       xlink:href="#linearGradient2338"
       id="linearGradient2507"
       x1="23.524324"
       y1="54.659462"
       x2="44.108109"
       y2="99.113518"
       gradientUnits="userSpaceOnUse"
       gradientTransform="translate(5,1)" />
    <linearGradient
       inkscape:collect="always"
       xlink:href="#linearGradient2338"
       id="linearGradient2511"
       x1="36.203869"
       y1="85.986389"
       x2="34.308056"
       y2="78.158531"
       gradientUnits="userSpaceOnUse"
       gradientTransform="translate(5,1)" />
    <linearGradient
       inkscape:collect="always"
       xlink:href="#linearGradient2338"
       id="linearGradient3100"
       x1="29.109865"
       y1="108.12456"
       x2="35.470005"
       y2="104.33294"
       gradientUnits="userSpaceOnUse"
       gradientTransform="translate(5,1)" />
    <linearGradient
       inkscape:collect="always"
       xlink:href="#linearGradient2338"
       id="linearGradient3102"
       x1="23.972832"
       y1="99.379364"
       x2="25.440556"
       y2="111.97733"
       gradientUnits="userSpaceOnUse"
       gradientTransform="translate(5,1)" />
    <linearGradient
       inkscape:collect="always"
       xlink:href="#linearGradient2338"
       id="linearGradient3104"
       x1="29.476797"
       y1="91.123428"
       x2="33.146107"
       y2="92.591156"
       gradientUnits="userSpaceOnUse"
       gradientTransform="translate(5,1)" />
    <linearGradient
       inkscape:collect="always"
       xlink:href="#linearGradient2338"
       id="linearGradient3112"
       x1="59.687454"
       y1="118.27633"
       x2="97.725983"
       y2="53.207214"
       gradientUnits="userSpaceOnUse"
       gradientTransform="translate(5,1)" />
    <linearGradient
       inkscape:collect="always"
       xlink:href="#linearGradient2338"
       id="linearGradient3116"
       x1="61.766735"
       y1="86.414482"
       x2="62.133667"
       y2="92.652306"
       gradientUnits="userSpaceOnUse"
       gradientTransform="translate(5,1)" />
    <linearGradient
       inkscape:collect="always"
       xlink:href="#linearGradient2338"
       id="linearGradient3120"
       x1="98.459846"
       y1="69.780266"
       x2="95.096306"
       y2="76.385025"
       gradientUnits="userSpaceOnUse"
       gradientTransform="translate(5,1)" />
    <linearGradient
       inkscape:collect="always"
       xlink:href="#linearGradient2320"
       id="linearGradient3124"
       x1="86.228806"
       y1="96.933167"
       x2="78.40094"
       y2="110.265"
       gradientUnits="userSpaceOnUse"
       gradientTransform="translate(5,1)" />
    <linearGradient
       inkscape:collect="always"
       xlink:href="#linearGradient2338"
       id="linearGradient3134"
       x1="108.00005"
       y1="84.029419"
       x2="113.62633"
       y2="76.813113"
       gradientUnits="userSpaceOnUse"
       gradientTransform="translate(5,1)" />
    <linearGradient
       inkscape:collect="always"
       xlink:href="#linearGradient2338"
       id="linearGradient3200"
       x1="68.688011"
       y1="26.688959"
       x2="66.328217"
       y2="42.083553"
       gradientUnits="userSpaceOnUse"
       gradientTransform="translate(5,1)" />
    <linearGradient
       inkscape:collect="always"
       xlink:href="#linearGradient2338"
       id="linearGradient3202"
       x1="67.509865"
       y1="14.56285"
       x2="42.256172"
       y2="33.762848"
       gradientUnits="userSpaceOnUse"
       gradientTransform="translate(5,1)" />
    <linearGradient
       inkscape:collect="always"
       xlink:href="#linearGradient2338"
       id="linearGradient3204"
       x1="23.361279"
       y1="37.857262"
       x2="30.944523"
       y2="32.030136"
       gradientUnits="userSpaceOnUse"
       gradientTransform="translate(5,1)" />
    <linearGradient
       inkscape:collect="always"
       xlink:href="#linearGradient2338"
       id="linearGradient3206"
       x1="22.872038"
       y1="39.508453"
       x2="39.484646"
       y2="32.762508"
       gradientUnits="userSpaceOnUse"
       gradientTransform="translate(5,1)" />
    <linearGradient
       inkscape:collect="always"
       xlink:href="#linearGradient2338"
       id="linearGradient3208"
       x1="32.169117"
       y1="40.319054"
       x2="40.792305"
       y2="33.400135"
       gradientUnits="userSpaceOnUse"
       gradientTransform="translate(5,1)" />
    <linearGradient
       inkscape:collect="always"
       xlink:href="#linearGradient2338"
       id="linearGradient3210"
       x1="36.170586"
       y1="47.411255"
       x2="41.648479"
       y2="41.703148"
       gradientUnits="userSpaceOnUse"
       gradientTransform="translate(5,1)" />
    <linearGradient
       inkscape:collect="always"
       xlink:href="#linearGradient2338"
       id="linearGradient3212"
       x1="35.632431"
       y1="48.605404"
       x2="45.664864"
       y2="45.211777"
       gradientUnits="userSpaceOnUse"
       gradientTransform="translate(5,1)" />
    <linearGradient
       inkscape:collect="always"
       xlink:href="#linearGradient2338"
       id="linearGradient3214"
       x1="49.276676"
       y1="51.112045"
       x2="56.062225"
       y2="42.015816"
       gradientUnits="userSpaceOnUse"
       gradientTransform="translate(5,1)" />
    <linearGradient
       inkscape:collect="always"
       xlink:href="#linearGradient2338"
       id="linearGradient3216"
       x1="64.345947"
       y1="51.545944"
       x2="64.691895"
       y2="43.238918"
       gradientUnits="userSpaceOnUse"
       gradientTransform="translate(5,1)" />
    <linearGradient
       inkscape:collect="always"
       xlink:href="#linearGradient2338"
       id="linearGradient3219"
       x1="66.0476"
       y1="41.865627"
       x2="71.230202"
       y2="48.620575"
       gradientUnits="userSpaceOnUse"
       gradientTransform="translate(5,1)" />
    <linearGradient
       inkscape:collect="always"
       xlink:href="#linearGradient2338"
       id="linearGradient3221"
       x1="71.236786"
       y1="44.217403"
       x2="78.960342"
       y2="33.859699"
       gradientUnits="userSpaceOnUse"
       gradientTransform="translate(5,1)" />
    <linearGradient
       inkscape:collect="always"
       xlink:href="#linearGradient2338"
       id="linearGradient3223"
       x1="83.668983"
       y1="42.592285"
       x2="85.518036"
       y2="36.02261"
       gradientUnits="userSpaceOnUse"
       gradientTransform="translate(5,1)" />
    <linearGradient
       inkscape:collect="always"
       xlink:href="#linearGradient2338"
       id="linearGradient3225"
       x1="86.70575"
       y1="32.154247"
       x2="91.053169"
       y2="40.303471"
       gradientUnits="userSpaceOnUse"
       gradientTransform="translate(5,1)" />
    <linearGradient
       inkscape:collect="always"
       xlink:href="#linearGradient2338"
       id="linearGradient3227"
       x1="56.0667"
       y1="64.137482"
       x2="102.54525"
       y2="34.386127"
       gradientUnits="userSpaceOnUse"
       gradientTransform="translate(5,1)" />
    <linearGradient
       inkscape:collect="always"
       xlink:href="#linearGradient2338"
       id="linearGradient3229"
       x1="92.464523"
       y1="33.850388"
       x2="100.031"
       y2="21.396336"
       gradientUnits="userSpaceOnUse"
       gradientTransform="translate(5,1)" />
    <linearGradient
       inkscape:collect="always"
       xlink:href="#linearGradient2338"
       id="linearGradient3233"
       x1="83.537977"
       y1="25.381607"
       x2="91.529068"
       y2="18.203228"
       gradientUnits="userSpaceOnUse"
       gradientTransform="translate(5,1)" />
    <linearGradient
       inkscape:collect="always"
       xlink:href="#linearGradient2338"
       id="linearGradient3235"
       x1="84.310211"
       y1="25.503916"
       x2="89.218521"
       y2="16.330639"
       gradientUnits="userSpaceOnUse"
       gradientTransform="translate(5,1)" />
    <linearGradient
       inkscape:collect="always"
       xlink:href="#linearGradient2338"
       id="linearGradient3237"
       x1="78.489975"
       y1="18.904249"
       x2="86.611633"
       y2="9.5637083"
       gradientUnits="userSpaceOnUse"
       gradientTransform="translate(5,1)" />
    <linearGradient
       inkscape:collect="always"
       xlink:href="#linearGradient2338"
       id="linearGradient3239"
       x1="73.141597"
       y1="19.571864"
       x2="80.544662"
       y2="12.306998"
       gradientUnits="userSpaceOnUse"
       gradientTransform="translate(5,1)" />
    <linearGradient
       inkscape:collect="always"
       xlink:href="#linearGradient2338"
       id="linearGradient3241"
       x1="74.280754"
       y1="19.143778"
       x2="81.336388"
       y2="9.7258797"
       gradientUnits="userSpaceOnUse"
       gradientTransform="translate(5,1)" />
    <linearGradient
       inkscape:collect="always"
       xlink:href="#linearGradient2338"
       id="linearGradient3243"
       x1="69.778061"
       y1="16.541674"
       x2="73.784935"
       y2="4.344224"
       gradientUnits="userSpaceOnUse"
       gradientTransform="translate(5,1)" />
    <linearGradient
       inkscape:collect="always"
       xlink:href="#linearGradient2338"
       id="linearGradient3245"
       x1="59.777691"
       y1="12.037084"
       x2="63.58289"
       y2="19.474922"
       gradientUnits="userSpaceOnUse"
       gradientTransform="translate(5,1)" />
    <linearGradient
       inkscape:collect="always"
       xlink:href="#linearGradient2338"
       id="linearGradient3247"
       x1="59.442836"
       y1="17.431432"
       x2="62.92868"
       y2="8.7827845"
       gradientUnits="userSpaceOnUse"
       gradientTransform="translate(5,1)" />
    <linearGradient
       inkscape:collect="always"
       xlink:href="#linearGradient2338"
       id="linearGradient3249"
       x1="37.30466"
       y1="15.841398"
       x2="59.809767"
       y2="15.841398"
       gradientUnits="userSpaceOnUse"
       gradientTransform="translate(5,1)" />
    <linearGradient
       inkscape:collect="always"
       xlink:href="#linearGradient2338"
       id="linearGradient3251"
       x1="38.249863"
       y1="18.598782"
       x2="42.49596"
       y2="24.479862"
       gradientUnits="userSpaceOnUse"
       gradientTransform="translate(5,1)" />
    <linearGradient
       inkscape:collect="always"
       xlink:href="#linearGradient2338"
       id="linearGradient3253"
       x1="33.390729"
       y1="25.932002"
       x2="38.588921"
       y2="19.359028"
       gradientUnits="userSpaceOnUse"
       gradientTransform="translate(5,1)" />
    <linearGradient
       inkscape:collect="always"
       xlink:href="#linearGradient2338"
       id="linearGradient3255"
       x1="15.900347"
       y1="26.115468"
       x2="33.75766"
       y2="26.115468"
       gradientUnits="userSpaceOnUse"
       gradientTransform="translate(5,1)" />
    <linearGradient
       inkscape:collect="always"
       xlink:href="#linearGradient2338"
       id="linearGradient3257"
       x1="19.73543"
       y1="34.291698"
       x2="46.818794"
       y2="65.599808"
       gradientUnits="userSpaceOnUse"
       gradientTransform="translate(5,1)" />
    <linearGradient
       inkscape:collect="always"
       xlink:href="#linearGradient2338"
       id="linearGradient3261"
       gradientUnits="userSpaceOnUse"
       x1="77.807388"
       y1="22.313663"
       x2="87.859322"
       y2="38.538044"
       gradientTransform="translate(5,1)" />
    <filter
       inkscape:collect="always"
       id="filter3361">
      <feGaussianBlur
         inkscape:collect="always"
         stdDeviation="1.7926963"
         id="feGaussianBlur3363" />
    </filter>
  </defs>
  <sodipodi:namedview
     id="base"
     pagecolor="#ffffff"
     bordercolor="#666666"
     borderopacity="1.0"
     gridtolerance="10000"
     guidetolerance="10"
     objecttolerance="10"
     inkscape:pageopacity="0.0"
     inkscape:pageshadow="2"
     inkscape:zoom="1"
     inkscape:cx="64"
     inkscape:cy="64"
     inkscape:document-units="px"
     inkscape:current-layer="layer2"
     showgrid="false"
     width="744.09px"
     inkscape:window-width="1248"
     inkscape:window-height="975"
     inkscape:window-x="426"
     inkscape:window-y="24"
     showguides="true"
     inkscape:guide-bbox="true" />
  <metadata
     id="metadata7">
    <rdf:RDF>
      <cc:Work
         rdf:about="">
        <dc:format>image/svg+xml</dc:format>
        <dc:type
           rdf:resource="http://purl.org/dc/dcmitype/StillImage" />
      </cc:Work>
    </rdf:RDF>
  </metadata>
  <g
     inkscape:groupmode="layer"
     id="layer2"
     inkscape:label="colors">
    <path
       style="fill:#000000;fill-opacity:0.57918552;fill-rule:evenodd;stroke:none;stroke-width:1px;stroke-linecap:butt;stroke-linejoin:miter;stroke-opacity:1;filter:url(#filter3361)"
       d="M 53.5,123.5 L 35.5,115.5 L 26.5,116.5 L 20,114.5 L 24,106 L 18.459459,102.35892 L 14.531558,57.996643 L 10,55 L 5.5,46 L 15.5,42 L 23,45.5 L 60.5,40.5 L 101.5,89.5 L 53.5,123.5 z"
       id="path3275"
       sodipodi:nodetypes="cccccccccccccc"
       transform="matrix(1,0,0,0.9638554,1,3.4638554)" />
    <path
       style="fill:url(#linearGradient2507);fill-rule:evenodd;stroke:none;stroke-width:1px;stroke-linecap:butt;stroke-linejoin:miter;stroke-opacity:1"
       d="M 23.854054,46.318919 L 21.086486,101.15135 L 57.237838,124.84865 L 57.756757,68.459459 L 54.124324,70.362162 L 23.854054,46.318919 z"
       id="path2505" />
    <path
       style="fill:url(#linearGradient2511);fill-rule:evenodd;stroke:none;stroke-width:1px;stroke-linecap:butt;stroke-linejoin:miter;stroke-opacity:1"
       d="M 32.275211,76.161924 L 31.785969,80.320476 L 46.830144,88.51527 L 46.585523,83.378235 L 40.592315,80.809717 L 32.275211,76.161924 z"
       id="path2509" />
    <path
       style="fill:#d59163;fill-opacity:1;fill-rule:evenodd;stroke:none;stroke-width:1px;stroke-linecap:butt;stroke-linejoin:miter;stroke-opacity:1"
       d="M 35.088349,77.507338 L 35.45528,70.413337 L 38.87997,68.33406 L 39.858453,68.456371 L 42.916212,72.614923 L 44.383937,75.917303 L 44.017006,82.277442 L 35.088349,77.507338 z"
       id="path2513" />
    <path
       id="path2515"
       d="M 23.854054,46.318919 L 21.086486,101.15135 L 57.237838,124.84865 L 57.756757,68.459459 L 54.124324,70.362162 L 23.854054,46.318919 z"
       style="fill:#000000;fill-opacity:0.15686275;fill-rule:evenodd;stroke:none;stroke-width:1px;stroke-linecap:butt;stroke-linejoin:miter;stroke-opacity:1" />
    <path
       style="fill:url(#linearGradient3104);fill-rule:evenodd;stroke:none;stroke-width:1px;stroke-linecap:butt;stroke-linejoin:miter;stroke-opacity:1"
       d="M 33.742935,86.558304 L 28.48359,93.529995 L 34.476797,97.688547 L 40.470005,90.594546 L 33.742935,86.558304 z"
       id="path3094" />
    <path
       style="fill:url(#linearGradient3102);fill-rule:evenodd;stroke:none;stroke-width:1px;stroke-linecap:butt;stroke-linejoin:miter;stroke-opacity:1"
       d="M 28.361279,94.019236 L 22.123451,114.07814 L 29.706693,119.70441 L 34.354487,97.810858 L 28.361279,94.019236 z"
       id="path3096" />
    <path
       style="fill:url(#linearGradient3100);fill-rule:evenodd;stroke:none;stroke-width:1px;stroke-linecap:butt;stroke-linejoin:miter;stroke-opacity:1"
       d="M 40.470005,91.083788 L 34.232177,97.810858 L 29.462072,119.5821 L 38.513039,113.22196 L 40.470005,91.083788 z"
       id="path3098" />
    <path
       id="path3106"
       d="M 33.742935,86.558304 L 28.48359,93.529995 L 34.476797,97.688547 L 40.470005,90.594546 L 33.742935,86.558304 z"
       style="fill:#000000;fill-opacity:0.15686275;fill-rule:evenodd;stroke:none;stroke-width:1px;stroke-linecap:butt;stroke-linejoin:miter;stroke-opacity:1" />
    <path
       id="path3108"
       d="M 28.361279,94.019236 L 22.123451,114.07814 L 29.706693,119.70441 L 34.354487,97.810858 L 28.361279,94.019236 z"
       style="fill:#000000;fill-opacity:0.15686275;fill-rule:evenodd;stroke:none;stroke-width:1px;stroke-linecap:butt;stroke-linejoin:miter;stroke-opacity:1" />
    <path
       style="fill:url(#linearGradient3112);fill-rule:evenodd;stroke:none;stroke-width:1px;stroke-linecap:butt;stroke-linejoin:miter;stroke-opacity:1"
       d="M 57.348835,68.700991 L 56.981904,125.08607 L 112.26619,103.19251 L 109.94229,44.48354 L 57.348835,68.700991 z"
       id="path3110" />
    <path
       style="fill:url(#linearGradient3116);fill-rule:evenodd;stroke:none;stroke-width:1px;stroke-linecap:butt;stroke-linejoin:miter;stroke-opacity:1"
       d="M 62.608181,90.716857 L 75.083838,83.989787 L 74.961527,88.270649 L 62.608181,94.753099 L 62.608181,90.716857 z"
       id="path3114" />
    <path
       style="fill:url(#linearGradient3120);fill-rule:evenodd;stroke:none;stroke-width:1px;stroke-linecap:butt;stroke-linejoin:miter;stroke-opacity:1"
       d="M 93.797323,75.672682 L 106.39529,68.945612 L 106.39529,73.104164 L 93.797323,79.464303 L 93.797323,75.672682 z"
       id="path3118" />
    <path
       style="fill:url(#linearGradient3124);fill-rule:evenodd;stroke:none;stroke-width:1px;stroke-linecap:butt;stroke-linejoin:miter;stroke-opacity:1"
       d="M 78.997769,116.27972 L 78.875459,94.630788 L 87.437184,85.702132 L 96.488151,89.004512 L 99.178979,108.32955 L 78.997769,116.27972 z"
       id="path3122" />
    <path
       style="fill:#d59163;fill-opacity:1;fill-rule:evenodd;stroke:none;stroke-width:1px;stroke-linecap:butt;stroke-linejoin:miter;stroke-opacity:1"
       d="M 64.198215,89.249132 L 63.953595,78.118889 L 67.378285,73.104164 L 72.39301,74.571889 L 72.882251,85.21289 L 64.320526,90.227615 L 64.198215,89.249132 z"
       id="path3128" />
    <path
       style="fill:#d59163;fill-opacity:1;fill-rule:evenodd;stroke:none;stroke-width:1px;stroke-linecap:butt;stroke-linejoin:miter;stroke-opacity:1"
       d="M 95.509668,73.838027 L 95.265047,62.707784 L 98.567427,58.1823 L 103.70446,59.405404 L 104.43832,69.924095 L 95.509668,74.93882 L 95.509668,73.838027 z"
       id="path3130" />
    <path
       style="fill:url(#linearGradient3134);fill-rule:evenodd;stroke:none;stroke-width:1px;stroke-linecap:butt;stroke-linejoin:miter;stroke-opacity:1"
       d="M 111.77695,88.270649 L 118.62633,85.824442 L 110.79846,67.355577 L 111.77695,88.270649 z"
       id="path3132" />
    <path
       style="fill:url(#linearGradient3257);fill-rule:evenodd;stroke:none;stroke-width:1px;stroke-linecap:butt;stroke-linejoin:miter;stroke-opacity:1"
       d="M 20.411106,25.525434 L 20.533416,43.505057 L 53.924145,70.657957 L 54.413386,54.879921 L 46.463213,47.052057 L 45.851661,54.023748 L 39.369212,49.865196 L 39.491522,43.994298 L 32.275211,37.634159 L 32.275211,43.627367 L 28.116658,39.346505 L 28.48359,33.720228 L 20.411106,25.525434 z"
       id="path3136" />
    <path
       style="fill:url(#linearGradient3255);fill-rule:evenodd;stroke:none;stroke-width:1px;stroke-linecap:butt;stroke-linejoin:miter;stroke-opacity:1"
       d="M 35.699901,31.0294 L 33.865245,28.093951 L 38.75766,26.014675 L 34.476797,20.755329 L 20.900347,25.280813 L 28.48359,33.475607 L 29.584383,33.475607 L 35.699901,31.0294 z"
       id="path3138"
       sodipodi:nodetypes="cccccccc" />
    <path
       style="fill:url(#linearGradient3253);fill-rule:evenodd;stroke:none;stroke-width:1px;stroke-linecap:butt;stroke-linejoin:miter;stroke-opacity:1"
       d="M 38.390729,24.913882 L 42.30466,23.079226 L 48.78711,27.237779 L 39.124591,30.784779 L 39.369212,26.259296 L 38.390729,24.913882 z"
       id="path3140" />
    <path
       style="fill:url(#linearGradient3251);fill-rule:evenodd;stroke:none;stroke-width:1px;stroke-linecap:butt;stroke-linejoin:miter;stroke-opacity:1"
       d="M 41.693109,23.568468 L 42.06004,18.309122 L 49.398661,22.223054 L 48.90942,27.115468 L 41.693109,23.568468 z"
       id="path3142" />
    <path
       style="fill:url(#linearGradient3249);fill-rule:evenodd;stroke:none;stroke-width:1px;stroke-linecap:butt;stroke-linejoin:miter;stroke-opacity:1"
       d="M 42.30466,18.553743 L 59.550422,11.337432 L 64.809767,16.474467 L 49.276351,22.345364 L 42.30466,18.553743 z"
       id="path3144" />
    <path
       style="fill:url(#linearGradient3247);fill-rule:evenodd;stroke:none;stroke-width:1px;stroke-linecap:butt;stroke-linejoin:miter;stroke-opacity:1"
       d="M 65.543629,21.856123 L 71.414527,19.165295 L 71.169906,18.676053 L 64.442836,15.006742 L 65.543629,17.208329 L 65.543629,21.856123 z"
       id="path3146" />
    <path
       style="fill:url(#linearGradient3245);fill-rule:evenodd;stroke:none;stroke-width:1px;stroke-linecap:butt;stroke-linejoin:miter;stroke-opacity:1"
       d="M 71.169906,18.920674 L 70.925285,14.02826 L 64.075905,10.236638 C 64.075905,10.236638 63.708974,14.395191 64.075905,15.129053 C 65.66594,16.229846 71.414527,19.287605 71.169906,18.920674 z"
       id="path3148"
       sodipodi:nodetypes="ccccc" />
    <path
       style="fill:url(#linearGradient3243);fill-rule:evenodd;stroke:none;stroke-width:1px;stroke-linecap:butt;stroke-linejoin:miter;stroke-opacity:1"
       d="M 71.047596,13.905949 L 75.206148,12.315914 L 78.386217,14.517501 L 85.357908,10.9705 L 77.285424,5.3442238 L 64.198215,10.114328 L 71.047596,13.905949 z"
       id="path3150" />
    <path
       style="fill:url(#linearGradient3241);fill-rule:evenodd;stroke:none;stroke-width:1px;stroke-linecap:butt;stroke-linejoin:miter;stroke-opacity:1"
       d="M 85.480218,10.72588 L 86.336391,14.02826 L 81.810907,16.596777 L 81.443976,18.676053 L 78.263907,20.143778 L 77.896976,14.639811 L 85.480218,10.72588 z"
       id="path3152" />
    <path
       style="fill:url(#linearGradient3239);fill-rule:evenodd;stroke:none;stroke-width:1px;stroke-linecap:butt;stroke-linejoin:miter;stroke-opacity:1"
       d="M 81.566287,18.676053 L 78.141597,20.021467 L 81.443976,22.467675 L 81.566287,18.676053 z"
       id="path3154" />
    <path
       style="fill:url(#linearGradient3237);fill-rule:evenodd;stroke:none;stroke-width:1px;stroke-linecap:butt;stroke-linejoin:miter;stroke-opacity:1"
       d="M 81.933218,16.596777 L 88.660288,13.049777 L 94.898116,17.57526 L 88.171046,20.87764 L 81.933218,16.596777 z"
       id="path3156" />
    <path
       style="fill:url(#linearGradient3235);fill-rule:evenodd;stroke:none;stroke-width:1px;stroke-linecap:butt;stroke-linejoin:miter;stroke-opacity:1"
       d="M 94.898116,17.330639 L 96.12122,22.956916 L 88.171046,26.503916 L 87.926426,20.87764 L 94.898116,17.330639 z"
       id="path3158" />
    <path
       style="fill:url(#linearGradient3233);fill-rule:evenodd;stroke:none;stroke-width:1px;stroke-linecap:butt;stroke-linejoin:miter;stroke-opacity:1"
       d="M 93.675013,23.813089 L 93.430392,28.950124 L 88.537977,26.014675 L 93.675013,23.813089 z"
       id="path3160" />
    <path
       style="fill:url(#linearGradient3261);fill-rule:evenodd;stroke:none;stroke-width:1px;stroke-linecap:butt;stroke-linejoin:miter;stroke-opacity:1"
       d="M 74.96875,12.4375 L 75.5625,23.3125 L 91.34375,36.65625 L 90.625,30.90625 L 91.21875,29.9375 L 93.21875,28.875 L 93.1875,29.1875 L 98.5625,26.5 L 93.5625,23.9375 L 93.21875,28.75 L 88.0625,26.125 L 88.15625,21.125 L 81.4375,16.59375 L 81.4375,22.21875 L 78.03125,20.375 L 78.25,14.53125 L 74.96875,12.4375 z"
       id="path3162" />
    <path
       style="fill:url(#linearGradient3229);fill-rule:evenodd;stroke:none;stroke-width:1px;stroke-linecap:butt;stroke-linejoin:miter;stroke-opacity:1"
       d="M 94.653495,23.690778 L 101.01363,20.633019 L 111.77695,28.827813 L 96.977392,35.921814 L 90.372633,30.295538 L 98.322806,26.993158 L 94.653495,23.690778 z"
       id="path3164" />
    <path
       style="fill:url(#linearGradient3227);fill-rule:evenodd;stroke:none;stroke-width:1px;stroke-linecap:butt;stroke-linejoin:miter;stroke-opacity:1"
       d="M 111.53233,28.950124 L 112.3885,43.627367 L 53.801835,70.535647 L 54.658007,54.879921 L 68.234457,48.764402 L 69.09063,53.656817 L 78.997769,49.742885 L 78.141597,45.339712 L 89.027219,40.080367 L 89.638771,44.72816 L 97.955875,41.425781 L 97.222013,35.554883 L 111.53233,28.950124 z"
       id="path3166" />
    <path
       style="fill:url(#linearGradient3225);fill-rule:evenodd;stroke:none;stroke-width:1px;stroke-linecap:butt;stroke-linejoin:miter;stroke-opacity:1"
       d="M 90.494943,30.540158 L 91.106495,36.533366 L 97.955875,41.30347 L 97.099703,35.677194 L 90.494943,30.540158 z"
       id="path3168" />
    <path
       style="fill:url(#linearGradient3223);fill-rule:evenodd;stroke:none;stroke-width:1px;stroke-linecap:butt;stroke-linejoin:miter;stroke-opacity:1"
       d="M 91.840357,37.022608 L 87.804115,38.123401 L 89.149529,39.958056 L 89.883391,44.972781 L 97.955875,41.18116 L 91.840357,37.022608 z"
       id="path3170" />
    <path
       style="fill:url(#linearGradient3221);fill-rule:evenodd;stroke:none;stroke-width:1px;stroke-linecap:butt;stroke-linejoin:miter;stroke-opacity:1"
       d="M 89.149529,39.835746 L 78.019286,45.217402 L 71.047596,38.979573 L 82.422459,33.842538 L 89.149529,39.835746 z"
       id="path3172" />
    <path
       style="fill:url(#linearGradient3219);fill-rule:evenodd;stroke:none;stroke-width:1px;stroke-linecap:butt;stroke-linejoin:miter;stroke-opacity:1"
       d="M 71.047596,39.224194 L 71.414527,44.361229 L 78.997769,49.620575 L 78.386217,45.095092 L 71.047596,39.224194 z"
       id="path3174" />
    <path
       style="fill:url(#linearGradient3216);fill-opacity:1;fill-rule:evenodd;stroke:none;stroke-width:1px;stroke-linecap:butt;stroke-linejoin:miter;stroke-opacity:1"
       d="M 71.292216,44.238919 L 66.277491,46.318195 L 68.479078,48.642092 L 69.335251,53.656817 L 78.753148,49.620575 L 71.292216,44.238919 z"
       id="path3176" />
    <path
       style="fill:url(#linearGradient3214);fill-rule:evenodd;stroke:none;stroke-width:1px;stroke-linecap:butt;stroke-linejoin:miter;stroke-opacity:1"
       d="M 63.219732,43.015815 L 68.846009,49.009023 L 54.291076,54.6353 L 45.973971,47.174368 L 52.578731,43.627367 L 55.63649,47.174368 L 63.219732,43.015815 z"
       id="path3178" />
    <path
       style="fill:url(#linearGradient3212);fill-opacity:1;fill-rule:evenodd;stroke:none;stroke-width:1px;stroke-linecap:butt;stroke-linejoin:miter;stroke-opacity:1"
       d="M 48.664799,45.828954 L 47.564006,44.60585 L 39.613832,48.886713 L 45.973971,54.390679 L 45.973971,47.296678 L 48.664799,45.828954 z"
       id="path3180" />
    <path
       style="fill:url(#linearGradient3210);fill-rule:evenodd;stroke:none;stroke-width:1px;stroke-linecap:butt;stroke-linejoin:miter;stroke-opacity:1"
       d="M 47.686316,44.72816 L 47.441696,39.835746 L 39.613832,44.116609 L 39.736143,49.375954 L 47.686316,44.72816 z"
       id="path3182" />
    <path
       style="fill:url(#linearGradient3208);fill-rule:evenodd;stroke:none;stroke-width:1px;stroke-linecap:butt;stroke-linejoin:miter;stroke-opacity:1"
       d="M 46.830144,39.591125 L 39.736143,33.108676 L 32.1529,37.389539 L 39.736143,43.994298 L 46.830144,39.591125 z"
       id="path3184" />
    <path
       style="fill:url(#linearGradient3206);fill-rule:evenodd;stroke:none;stroke-width:1px;stroke-linecap:butt;stroke-linejoin:miter;stroke-opacity:1"
       d="M 31.90828,43.505057 L 27.872038,39.468815 L 32.03059,37.511849 L 31.90828,43.505057 z"
       id="path3188" />
    <path
       style="fill:url(#linearGradient3204);fill-rule:evenodd;stroke:none;stroke-width:1px;stroke-linecap:butt;stroke-linejoin:miter;stroke-opacity:1"
       d="M 28.361279,38.857263 L 28.72821,33.964849 L 35.944522,30.662469 L 35.822211,35.432573 L 31.785969,37.389539 L 28.361279,38.857263 z"
       id="path3190" />
    <path
       style="fill:url(#linearGradient3202);fill-rule:evenodd;stroke:none;stroke-width:1px;stroke-linecap:butt;stroke-linejoin:miter;stroke-opacity:1"
       d="M 44.750868,37.389539 L 75.450769,23.079226 L 75.328458,12.071294 L 71.536837,13.661328 L 71.659147,19.165295 L 65.91056,21.978433 L 65.176698,16.474467 L 49.154041,22.223054 L 49.03173,27.237779 L 38.87997,31.15171 L 39.369212,26.259296 L 38.63535,25.525434 L 34.109866,28.093951 L 36.066832,30.90709 L 35.944522,35.432573 L 40.347695,33.230986 L 44.750868,37.389539 z"
       id="path3192" />
    <path
       style="fill:url(#linearGradient3200);fill-rule:evenodd;stroke:none;stroke-width:1px;stroke-linecap:butt;stroke-linejoin:miter;stroke-opacity:1"
       d="M 44.628557,37.022608 L 72.39301,24.669261 L 75.450769,23.079226 L 92.084978,37.144918 L 87.559494,38.368022 L 82.300149,33.842538 L 70.680664,38.979573 L 71.536837,44.116609 L 66.277491,46.562816 L 63.219732,42.771195 L 55.881111,47.174368 L 53.067972,43.382746 L 48.90942,45.828954 L 47.564006,44.972781 L 47.197075,39.835746 L 44.628557,37.022608 z"
       id="path3194" />
    <path
       id="path3263"
       d="M 20.411106,25.525434 L 20.533416,43.505057 L 53.924145,70.657957 L 54.413386,54.879921 L 46.463213,47.052057 L 45.851661,54.023748 L 39.369212,49.865196 L 39.491522,43.994298 L 32.275211,37.634159 L 32.275211,43.627367 L 28.116658,39.346505 L 28.48359,33.720228 L 20.411106,25.525434 z"
       style="fill:#000000;fill-opacity:0.15686275;fill-rule:evenodd;stroke:none;stroke-width:1px;stroke-linecap:butt;stroke-linejoin:miter;stroke-opacity:1" />
    <path
       id="path3265"
       d="M 41.693109,23.568468 L 42.06004,18.309122 L 49.398661,22.223054 L 48.90942,27.115468 L 41.693109,23.568468 z"
       style="fill:#000000;fill-opacity:0.15686275;fill-rule:evenodd;stroke:none;stroke-width:1px;stroke-linecap:butt;stroke-linejoin:miter;stroke-opacity:1" />
    <path
       sodipodi:nodetypes="ccccc"
       id="path3267"
       d="M 71.169906,18.920674 L 70.925285,14.02826 L 64.075905,10.236638 C 64.075905,10.236638 63.708974,14.395191 64.075905,15.129053 C 65.66594,16.229846 71.414527,19.287605 71.169906,18.920674 z"
       style="fill:#000000;fill-opacity:0.15686275;fill-rule:evenodd;stroke:none;stroke-width:1px;stroke-linecap:butt;stroke-linejoin:miter;stroke-opacity:1" />
    <path
       id="path3269"
       d="M 74.96875,12.4375 L 75.5625,23.3125 L 91.34375,36.65625 L 90.625,30.90625 L 91.21875,29.9375 L 93.21875,28.875 L 93.1875,29.1875 L 98.5625,26.5 L 93.5625,23.9375 L 93.21875,28.75 L 88.0625,26.125 L 88.15625,21.125 L 81.4375,16.59375 L 81.4375,22.21875 L 78.03125,20.375 L 78.25,14.53125 L 74.96875,12.4375 z"
       style="fill:#000000;fill-opacity:0.15686275;fill-rule:evenodd;stroke:none;stroke-width:1px;stroke-linecap:butt;stroke-linejoin:miter;stroke-opacity:1" />
    <path
       id="path3271"
       d="M 90.494943,30.540158 L 91.106495,36.533366 L 97.955875,41.30347 L 97.099703,35.677194 L 90.494943,30.540158 z"
       style="fill:#000000;fill-opacity:0.15686275;fill-rule:evenodd;stroke:none;stroke-width:1px;stroke-linecap:butt;stroke-linejoin:miter;stroke-opacity:1" />
    <path
       id="path3273"
       d="M 71.047596,39.224194 L 71.414527,44.361229 L 78.997769,49.620575 L 78.386217,45.095092 L 71.047596,39.224194 z"
       style="fill:#000000;fill-opacity:0.15686275;fill-rule:evenodd;stroke:none;stroke-width:1px;stroke-linecap:butt;stroke-linejoin:miter;stroke-opacity:1" />
  </g>
  <g
     inkscape:label="outline"
     inkscape:groupmode="layer"
     id="layer1">
    <path
       style="fill:#000000;fill-opacity:1;fill-rule:evenodd;stroke:none;stroke-width:1px;stroke-linecap:butt;stroke-linejoin:miter;stroke-opacity:1"
       d="M 77.375,5.15625 L 63.75,9.90625 L 63.90625,14.9375 L 59.21875,11.03125 L 41.65625,18 L 41.5,23.21875 L 37.6875,24.40625 L 34.53125,20.625 L 20.375,25.34375 L 20.40625,43.625 L 23.40625,46.09375 L 20.9375,101.15625 L 24.875,103.875 L 21.90625,114.21875 L 30.0625,120.15625 L 38.75,113.46875 L 56.5625,125.75 L 112.8125,103.53125 L 112.15625,88.6875 L 118.90625,85.96875 L 111.25,67.9375 L 110.21875,44.875 L 112.75,43.71875 L 112.03125,28.34375 L 100.875,20.5 L 96.28125,22.625 L 95.21875,17.03125 L 88.75,12.53125 L 86.46875,13.75 L 85.875,10.9375 L 77.375,5.15625 z M 77.46875,5.65625 L 84.53125,10.84375 L 78.21875,13.90625 L 75.15625,11.6875 L 70.71875,13.46875 L 64.9375,10.15625 L 77.46875,5.65625 z M 64.53125,10.375 L 70.78125,14.375 L 70.75,18.4375 L 64.53125,14.875 L 64.53125,10.375 z M 85.15625,11.15625 L 85.75,14.25 L 81.21875,16.5 L 81.40625,18.09375 L 78.3125,19.53125 L 78.375,14.96875 L 85.15625,11.15625 z M 59.1875,11.75 L 64.34375,16.21875 L 49.375,21.71875 L 42.9375,18.34375 L 59.1875,11.75 z M 74.5625,12.96875 C 74.704184,16.194493 75.204825,19.614806 75.21875,22.84375 C 65.317752,27.879168 54.61409,32.191621 44.5,36.78125 L 40.28125,33 L 40,32.78125 L 39.71875,32.9375 L 36.125,34.75 L 36.28125,30.75 L 34.21875,28.09375 L 38.875,26.09375 L 38.625,31.4375 L 49.4375,27.46875 L 49.6875,22.6875 L 64.84375,16.71875 L 65.25,22.34375 L 71.75,19.1875 L 71.6875,14.125 L 74.5625,12.96875 z M 75.59375,13.25 L 77.34375,14.53125 L 77.6875,20.34375 L 81.65625,22.78125 L 81.96875,17.25 L 87.8125,21.09375 L 87.71875,26.40625 L 92.40625,29.15625 L 90.125,30.28125 L 90.59375,35.5 L 75.6875,23.0625 C 75.671025,19.93722 75.670412,16.374435 75.59375,13.25 z M 88.59375,13.25 L 93.96875,17.40625 L 88.0625,20.5 L 82.46875,16.5625 L 88.59375,13.25 z M 65.53125,16.28125 L 71.1875,19.34375 L 66.09375,21.3125 L 65.53125,16.28125 z M 94.875,17.875 L 95.6875,22.53125 L 88.375,26.09375 L 88.375,21.46875 L 94.875,17.875 z M 42.375,18.8125 L 48.71875,22.5 L 48.78125,26.84375 L 42.0625,22.71875 L 42.375,18.8125 z M 81.15625,19.125 L 81.21875,21.8125 L 78.84375,20.375 L 81.15625,19.125 z M 100.9375,21.125 C 104.11868,23.484859 107.37063,26.279126 110.4375,28.5625 C 106.02997,31.255548 101.19362,33.196809 96.4375,35.1875 L 91.46875,30.375 L 99.1875,26.875 L 95.40625,24.125 L 100.9375,21.125 z M 34.46875,21.3125 L 37.71875,25.9375 L 32.90625,27.84375 L 35.125,30.46875 L 28.8125,33.125 L 21.28125,25.5625 L 34.46875,21.3125 z M 75.1875,23.5 L 91.0625,36.75 L 87.8125,37.96875 L 82.375,33.65625 L 70.625,38.8125 L 71.125,43.90625 L 66.21875,45.90625 L 63.21875,42.78125 L 55.96875,46.78125 L 52.84375,43.125 L 48.65625,45.46875 L 47.9375,44.46875 L 47.59375,39.71875 L 45.3125,37.53125 C 55.123769,32.595349 65.607267,28.89818 75.1875,23.5 z M 93.875,23.90625 L 97.28125,26.71875 L 93.59375,28.34375 L 93.875,23.90625 z M 42.28125,24.03125 L 48.09375,27.3125 L 39.28125,30.6875 L 39.53125,26.15625 L 38.84375,25.21875 L 42.28125,24.03125 z M 93.0625,24.5625 L 93.03125,28.34375 L 89.4375,26.21875 L 93.0625,24.5625 z M 21.3125,26.21875 L 28.125,33.84375 L 28.03125,33.84375 L 27.65625,39.4375 L 32.6875,45.09375 L 32.46875,37.84375 L 39.125,44.3125 L 39.09375,49.71875 L 46.28125,54.90625 L 46.5625,47.9375 L 54.28125,55.1875 C 53.880612,59.971875 53.789521,64.833754 53.6875,69.65625 L 20.96875,43.34375 L 21.3125,26.21875 z M 111.0625,29.3125 L 111.90625,43.5 L 54.6875,69.4375 C 54.771594,64.651334 54.414213,59.612136 54.78125,54.84375 L 67.875,49.03125 L 68.875,54.25 L 79,49.875 L 78.65625,45.125 L 88.53125,40.375 L 89.28125,45.5 L 98.25,41.5625 L 97.4375,35.875 C 102.04876,33.841085 106.79273,32.020949 111.0625,29.3125 z M 91.03125,31.21875 L 96.65625,36.125 L 97.34375,40.21875 L 91.75,36.53125 L 91.03125,31.21875 z M 35.8125,31.28125 L 35.65625,35.03125 L 31.65625,37.03125 L 31.46875,37.375 L 31.46875,37.53125 L 28.71875,38.8125 L 29.03125,34.125 L 35.8125,31.28125 z M 39.84375,33.96875 L 46.03125,39.5 L 39.65625,43.4375 L 33.34375,37.3125 L 39.84375,33.96875 z M 82.25,34.125 L 88.5625,39.5 L 78,44.96875 L 71.4375,39.125 L 82.25,34.125 z M 91.90625,37.21875 L 97.375,41.09375 L 90.0625,44.0625 L 89.40625,39.6875 L 88.6875,38.65625 L 91.90625,37.21875 z M 31.59375,38.0625 L 31.625,42.375 L 28.6875,39.875 L 31.59375,38.0625 z M 71.25,39.875 L 77.6875,45.5625 L 78.625,49.15625 L 71.75,44.09375 L 71.25,39.875 z M 46.6875,40.3125 L 47.25,44.5 L 40.09375,48.3125 L 40.125,44.34375 L 46.6875,40.3125 z M 63.1875,43.46875 L 67.71875,48.28125 L 54.71875,54.21875 L 47.03125,47 L 52.71875,43.75 L 55.5,47.375 L 63.1875,43.46875 z M 71.1875,44.28125 L 77.75,49.3125 L 69.625,52.8125 L 68.78125,48.5625 L 68.78125,48.53125 L 68.75,48.375 L 68.65625,48.40625 L 68.3125,48.0625 L 66.96875,46.6875 L 71.1875,44.28125 z M 47.53125,45.03125 L 48,45.59375 L 45.71875,46.96875 L 45.4375,53.5 L 40.28125,49.34375 L 47.53125,45.03125 z M 109.84375,45.0625 L 111.125,88 L 111.78125,102.84375 L 101.34375,106.96875 L 98.71875,87.53125 L 87,82.65625 L 75.625,94.65625 L 75.375,117.1875 L 57.65625,124.1875 L 57.8125,69.0625 L 109.84375,45.0625 z M 24.375,46.875 L 53.6875,70.96875 L 57.25,69.1875 L 56.40625,124.28125 L 39.0625,112.4375 L 41.25,90.375 L 41.28125,90.34375 L 41.25,90.3125 L 41.21875,90.3125 L 33.34375,86.375 L 27.78125,93.625 L 27.75,93.65625 L 27.71875,93.75 L 25.15625,102.84375 L 21.5,101 L 24.375,46.875 z M 98.462626,57.540133 L 95.181376,62.821383 L 95.025126,74.633883 L 93.650126,75.477633 L 93.650126,79.696383 L 106.40013,73.071383 L 106.40013,68.415133 L 104.55638,69.415133 L 103.77513,59.383883 L 98.462626,57.540133 z M 98.868876,58.727633 L 103.43138,59.852633 L 104.11888,69.727633 L 96.025126,73.915133 L 95.525126,62.946383 L 98.868876,58.727633 z M 39.40625,68.09375 C 37.610261,68.206641 36.308888,69.528731 34.71875,70.15625 L 34.90625,77.6875 L 32.1875,75.96875 L 31.84375,80.46875 L 46.78125,88.875 L 46.71875,83.28125 C 46.71875,83.28125 45.576805,82.758544 44.0625,82.0625 L 44.75,75.3125 C 43.748731,72.663022 42.092726,70.259731 40.21875,68.125 C 39.940219,68.086224 39.66282,68.077623 39.40625,68.09375 z M 105.96263,69.415133 L 106.27513,72.727633 L 94.118876,79.008883 L 94.306376,75.727633 L 105.96263,69.415133 z M 39.3125,68.5625 C 39.483073,68.559535 39.641927,68.58225 39.8125,68.65625 C 42.181537,70.463696 42.425883,73.383573 43.71875,75.40625 L 43.625,82.0625 L 35.375,77.71875 L 35.71875,70.84375 C 36.91276,70.275127 38.11849,68.583257 39.3125,68.5625 z M 111.1875,68.84375 L 118.28125,85.65625 L 112.125,87.59375 L 111.1875,68.84375 z M 67.1875,72.65625 L 63.90625,77.9375 L 63.625,90 L 62.375,90.71875 L 62.375,94.9375 L 75.125,88.3125 L 75.125,83.65625 L 73.28125,84.65625 L 72.5,74.5 L 67.1875,72.65625 z M 67.59375,73.84375 L 72.15625,74.96875 L 72.3125,85.1875 L 64.65625,89.40625 L 64.15625,78.0625 L 67.59375,73.84375 z M 32.65625,76.71875 C 36.794321,79.039101 41.77582,82.012739 46.3125,83.375 L 46.40625,88.03125 L 32.375,80.4375 C 32.206441,79.761134 32.637196,76.827477 32.65625,76.71875 z M 87.0625,82.8125 L 98.375,87.96875 L 100.8125,107.21875 L 99.15625,107.8125 L 96.59375,88.875 L 87.625,85.40625 L 78.5,94.78125 L 78.59375,115.90625 L 76.375,116.8125 L 76.0625,94.96875 L 87.0625,82.8125 z M 74.90625,84.21875 L 74.8125,88.0625 L 62.84375,94.4375 L 62.84375,90.96875 L 74.90625,84.21875 z M 87.875,86.59375 L 96.34375,89.1875 L 98.1875,108.1875 L 95.4375,109.28125 L 97.3125,106.375 L 97.15625,106.21875 L 94.3125,109.71875 L 90.125,111.375 L 90.0625,110.65625 C 92.36302,106.77602 94.097003,102.42603 96.28125,98.5 L 96,98.34375 C 93.925271,101.97743 92.005524,105.70597 89.9375,109.34375 L 89.375,103.125 L 95.6875,89.84375 L 95.5,89.71875 L 89.25,101.78125 L 88.65625,94.90625 L 91.46875,88.75 L 91.25,88.6875 L 88.5625,93.96875 L 87.9375,87.125 L 87.6875,87.1875 L 88,92.5625 L 83.21875,91.25 L 83.15625,91.5625 L 88.03125,93.3125 L 88.28125,97.65625 L 80.375,94.71875 L 80.1875,94.84375 L 88.34375,98.625 L 88.6875,104.90625 L 80.15625,101.46875 L 79.84375,101.625 L 88.75,105.65625 L 89.09375,111.78125 L 88.96875,111.84375 L 79.65625,108.71875 L 79.53125,109.0625 L 87.9375,112.21875 L 79.25,115.65625 L 78.96875,94.9375 L 87.875,86.59375 z M 33.5625,87 L 39.65625,90.71875 L 34.1875,97.125 L 28.6875,93.75 L 33.5625,87 z M 40.0625,91.75 L 38.34375,112.90625 L 30.28125,118.6875 L 34.96875,97.6875 L 40.0625,91.75 z M 28.53125,94.53125 L 33.84375,98.0625 L 29.5,118.53125 L 22.375,114.03125 L 28.53125,94.53125 z"
       id="path2313"
       sodipodi:nodetypes="cccccccccccccccccccccccccccccccccccccccccccccccccccccccccccccccccccccccccccccccccccccccccccccccccccccccccccccccccccccccccccccccccccccccccccccccccccccccccccccccccccccccccccccccccccccccccccccccccccccccccccccccccccccccccccccccccccccccccccccccccccccccccccccccccccccccccccccccccccccccccccccccccccccccccccccccccccccccccccccccccccccccccccccccccccccccccccccccccccccccccccccccccccccccccccccccccccccccccccccccccccccccc" />
  </g>
</svg>
