<?xml version="1.0" encoding="UTF-8" standalone="no"?>
<!-- Created with Inkscape (http://www.inkscape.org/) -->
<svg
   xmlns:dc="http://purl.org/dc/elements/1.1/"
   xmlns:cc="http://creativecommons.org/ns#"
   xmlns:rdf="http://www.w3.org/1999/02/22-rdf-syntax-ns#"
   xmlns:svg="http://www.w3.org/2000/svg"
   xmlns="http://www.w3.org/2000/svg"
   xmlns:xlink="http://www.w3.org/1999/xlink"
   xmlns:sodipodi="http://sodipodi.sourceforge.net/DTD/sodipodi-0.dtd"
   xmlns:inkscape="http://www.inkscape.org/namespaces/inkscape"
   width="128"
   height="128"
   id="svg2"
   sodipodi:version="0.32"
   inkscape:version="0.45+devel"
   version="1.0"
   sodipodi:docname="tower_round_flag.svg"
   inkscape:output_extension="org.inkscape.output.svg.inkscape">
  <defs
     id="defs4">
    <linearGradient
       id="linearGradient3108">
      <stop
         style="stop-color:#c223c2;stop-opacity:1;"
         offset="0"
         id="stop3110" />
      <stop
         style="stop-color:#ff00dc;stop-opacity:1;"
         offset="1"
         id="stop3112" />
    </linearGradient>
    <linearGradient
       id="linearGradient3098">
      <stop
         style="stop-color:#9e2612;stop-opacity:1;"
         offset="0"
         id="stop3100" />
      <stop
         style="stop-color:#bd5032;stop-opacity:1;"
         offset="1"
         id="stop3102" />
    </linearGradient>
    <linearGradient
       id="linearGradient2338">
      <stop
         style="stop-color:#b1b1b1;stop-opacity:1;"
         offset="0"
         id="stop2340" />
      <stop
         style="stop-color:#e4e4e4;stop-opacity:1;"
         offset="1"
         id="stop2342" />
    </linearGradient>
    <linearGradient
       id="linearGradient2320">
      <stop
         style="stop-color:#6a3c1d;stop-opacity:1;"
         offset="0"
         id="stop2322" />
      <stop
         style="stop-color:#8f5127;stop-opacity:1;"
         offset="1"
         id="stop2324" />
    </linearGradient>
    <linearGradient
       inkscape:collect="always"
       xlink:href="#linearGradient2338"
       id="linearGradient2507"
       x1="48.801834"
       y1="98.584351"
       x2="87.451904"
       y2="115.46318"
       gradientUnits="userSpaceOnUse" />
    <linearGradient
       inkscape:collect="always"
       xlink:href="#linearGradient2338"
       id="linearGradient2511"
       x1="58.21973"
       y1="63.420128"
       x2="78.890184"
       y2="71.003372"
       gradientUnits="userSpaceOnUse" />
    <linearGradient
       inkscape:collect="always"
       xlink:href="#linearGradient2338"
       id="linearGradient2517"
       x1="55.161976"
       y1="36.144917"
       x2="77.78939"
       y2="41.404263"
       gradientUnits="userSpaceOnUse" />
    <linearGradient
       inkscape:collect="always"
       xlink:href="#linearGradient3098"
       id="linearGradient3104"
       x1="62.989838"
       y1="27.338573"
       x2="71.306938"
       y2="31.130194"
       gradientUnits="userSpaceOnUse" />
    <linearGradient
       inkscape:collect="always"
       xlink:href="#linearGradient3108"
       id="linearGradient3114"
       x1="69.47229"
       y1="10.704362"
       x2="72.163116"
       y2="5.6896377"
       gradientUnits="userSpaceOnUse" />
    <linearGradient
       inkscape:collect="always"
       xlink:href="#linearGradient3098"
       id="linearGradient3118"
       x1="72.89698"
       y1="93.019234"
       x2="81.336388"
       y2="97.055481"
       gradientUnits="userSpaceOnUse" />
    <linearGradient
       inkscape:collect="always"
       xlink:href="#linearGradient2320"
       id="linearGradient3122"
       x1="80.35791"
       y1="111.06001"
       x2="75.465492"
       y2="119.49943"
       gradientUnits="userSpaceOnUse" />
    <filter
       inkscape:collect="always"
       id="filter3268"
       x="-0.10797507"
       width="1.2159501"
       y="-0.087821365"
       height="1.1756427">
      <feGaussianBlur
         inkscape:collect="always"
         stdDeviation="2.4163667"
         id="feGaussianBlur3270" />
    </filter>
  </defs>
  <sodipodi:namedview
     id="base"
     pagecolor="#ffffff"
     bordercolor="#666666"
     borderopacity="1.0"
     gridtolerance="10000"
     guidetolerance="10"
     objecttolerance="10"
     inkscape:pageopacity="0.0"
     inkscape:pageshadow="2"
     inkscape:zoom="1"
     inkscape:cx="240"
     inkscape:cy="64"
     inkscape:document-units="px"
     inkscape:current-layer="layer2"
     showgrid="false"
     width="744.09px"
     inkscape:window-width="1248"
     inkscape:window-height="975"
     inkscape:window-x="426"
     inkscape:window-y="24" />
  <metadata
     id="metadata7">
    <rdf:RDF>
      <cc:Work
         rdf:about="">
        <dc:format>image/svg+xml</dc:format>
        <dc:type
           rdf:resource="http://purl.org/dc/dcmitype/StillImage" />
      </cc:Work>
    </rdf:RDF>
  </metadata>
  <g
     inkscape:groupmode="layer"
     id="layer2"
     inkscape:label="colors">
    <path
       style="fill:#000000;fill-rule:evenodd;stroke:none;stroke-width:1px;stroke-linecap:butt;stroke-linejoin:miter;stroke-opacity:1;filter:url(#filter3268);fill-opacity:0.68778282000000002"
       d="M 40.949622,53.944971 C 36.577807,53.77392 38.546595,58.679022 42.81272,57.463668 C 47.151777,58.970099 51.58688,59.308308 55.488152,58.32119 C 58.152302,57.883763 63.313891,57.491618 64.318816,56.877616 C 59.555831,56.619555 54.869751,56.691309 50.136935,56.527394 C 46.575418,55.771783 45.460007,53.631899 40.949622,53.944971 z M 40.458694,59.89112 C 37.834272,62.760264 35.200146,65.625913 32.566681,68.491798 C 33.998909,69.024421 41.146715,71.012496 36.276823,69.848415 C 34.514709,72.152007 35.875315,76.491934 40.284786,78.287423 C 59.006095,82.280219 41.001149,75.957744 42.029493,80.936804 C 43.477351,87.909174 45.917803,94.948711 49.65677,101.93888 C 50.449242,102.5328 48.211455,99.31737 46.43014,100.7321 C 38.077043,102.88576 39.410624,103.46907 41.40107,106.19116 C 41.035619,109.2133 41.780561,112.40429 43.163884,115.52847 C 45.527148,118.01627 51.301293,118.34055 55.369261,119.27521 C 66.065555,121.31071 73.919395,118.32842 82.314145,115.7092 C 85.893174,114.91108 87.437344,113.17787 85.302064,110.81647 C 83.831898,107.85971 84.921929,107.35023 82.085618,104.55802 C 84.40071,101.67633 74.336126,100.85967 71.308855,99.13225 C 69.00219,96.193001 68.632028,93.094267 66.377843,90.103906 C 64.21889,86.223812 61.880721,82.347256 59.015583,78.525924 C 63.944439,76.882029 59.673029,72.833203 57.164634,70.264153 C 55.13764,69.26185 49.821896,71.102447 54.503496,70.142476 C 59.859835,69.169881 54.816957,66.312076 51.326499,65.091368 C 47.795369,63.296574 44.168081,61.562534 40.458694,59.89112 z M 80.751443,104.98274 C 70.640432,107.56064 72.653193,107.40597 80.751443,104.98274 z"
       id="path3142"
       sodipodi:nodetypes="cccccccccccccccccccccccccccc"
       inkscape:transform-center-x="-17"
       inkscape:transform-center-y="5" />
    <path
       style="fill:url(#linearGradient2507);fill-rule:evenodd;stroke:none;stroke-width:1px;stroke-linecap:butt;stroke-linejoin:miter;stroke-opacity:1"
       d="M 43.90942,114.66817 L 44.643282,102.31482 L 46.967179,93.875409 L 51.614973,97.422409 L 59.198215,99.868617 L 62.745216,99.990927 L 68.493803,100.23555 L 76.321666,99.012444 L 84.027219,96.321616 L 87.207288,94.12003 L 88.552702,98.033961 L 90.387358,107.20724 L 90.509668,115.15741 L 85.984185,118.21517 C 85.984185,118.21517 79.501735,120.66138 78.278632,121.15062 C 77.055528,121.63986 68.126872,122.61834 68.126872,122.61834 L 58.708974,121.76217 L 48.067972,117.84824 L 43.90942,114.66817 z"
       id="path2505" />
    <path
       style="fill:url(#linearGradient2511);fill-rule:evenodd;stroke:none;stroke-width:1px;stroke-linecap:butt;stroke-linejoin:miter;stroke-opacity:1"
       d="M 55.895836,89.716857 L 55.406594,82.133614 L 55.284284,68.190233 L 56.385077,53.390679 L 56.874318,48.865196 L 60.543629,49.721368 L 64.09063,50.33292 L 71.673872,49.476747 L 74.3647,48.253644 L 75.710114,55.347645 L 77.177839,67.823302 L 78.278632,81.155131 L 78.890184,89.961477 L 76.688597,91.062271 L 70.695389,93.386168 L 65.313733,93.753099 L 61.155181,93.019236 L 57.730491,91.673822 L 55.895836,89.716857 z"
       id="path2509" />
    <path
       style="fill:url(#linearGradient2517);fill-rule:evenodd;stroke:none;stroke-width:1px;stroke-linecap:butt;stroke-linejoin:miter;stroke-opacity:1"
       d="M 54.672732,32.842538 L 53.205008,36.87878 L 53.327318,41.771195 L 53.816559,46.418988 L 57.118939,48.742885 L 65.069113,50.088299 L 70.083838,50.088299 L 74.24239,48.498265 L 77.300149,46.174368 L 77.78939,40.05885 L 75.220873,32.720228 L 72.285424,33.821021 L 66.169906,34.799504 L 61.399802,34.677194 L 56.507387,33.821021 L 54.672732,32.842538 z"
       id="path2515" />
    <path
       style="fill:url(#linearGradient3104);fill-rule:evenodd;stroke:none;stroke-width:1px;stroke-linecap:butt;stroke-linejoin:miter;stroke-opacity:1;fill-opacity:1"
       d="M 51.859594,30.640952 L 58.586663,21.589985 L 63.112147,15.474467 L 65.313733,17.553743 L 71.551562,24.158503 L 77.055528,30.518641 L 75.343183,32.597917 L 68.738424,34.677194 L 60.421319,34.921814 L 56.629698,33.698711 L 51.859594,30.640952 z"
       id="path2519" />
    <path
       style="fill:url(#linearGradient3114);fill-rule:evenodd;stroke:none;stroke-width:1px;stroke-linecap:butt;stroke-linejoin:miter;stroke-opacity:1;fill-opacity:1"
       d="M 63.479078,5.4450171 L 65.925285,4.9557756 L 69.227665,5.5673275 L 71.06232,6.3011896 L 72.774665,9.481259 L 89.164254,10.092811 L 87.69653,10.704363 L 84.027219,11.438225 L 77.055528,13.15057 L 70.328458,13.762122 L 69.105355,12.416708 L 66.781458,10.948983 L 62.745216,11.193604 L 63.479078,5.4450171 z"
       id="path3106" />
    <path
       style="fill:url(#linearGradient3118);fill-rule:evenodd;stroke:none;stroke-width:1px;stroke-linecap:butt;stroke-linejoin:miter;stroke-opacity:1;fill-opacity:1"
       d="M 45.254834,91.918443 L 48.067972,89.594546 L 52.593456,87.63758 L 55.651215,86.903718 L 55.773525,90.083788 L 61.766733,93.753099 L 66.292216,93.997719 L 70.450769,93.508478 L 74.976252,91.918443 L 78.645563,90.083788 L 78.523253,85.802925 L 80.357908,86.292166 L 84.27184,88.126822 L 87.574219,90.93996 L 89.041944,93.508478 L 84.027219,95.954685 L 75.465493,99.257065 L 68.249182,100.23555 L 62.745216,100.23555 L 56.752008,99.134755 L 51.370352,97.177789 L 45.254834,91.918443 z"
       id="path3116" />
    <path
       style="fill:url(#linearGradient3122);fill-rule:evenodd;stroke:none;stroke-width:1px;stroke-linecap:butt;stroke-linejoin:miter;stroke-opacity:1"
       d="M 73.141597,121.88448 L 72.774665,115.40203 L 72.407734,111.61041 L 74.731631,107.08493 L 77.177839,105.12796 L 79.501735,105.73951 L 82.314874,108.30803 L 83.048736,110.99886 L 83.660288,119.19365 L 79.746356,120.53907 L 73.141597,121.88448 z"
       id="path3120" />
    <path
       style="fill:#d59163;fill-rule:evenodd;stroke:none;stroke-width:1px;stroke-linecap:butt;stroke-linejoin:miter;stroke-opacity:1;fill-opacity:1"
       d="M 48.75,106.625 L 49,102.875 L 50.125,101.5 L 51.5,100.875 L 52.75,103.125 L 53.25,105.125 L 52.875,108.5 L 48.75,106.625 z"
       id="path3124" />
    <path
       style="fill:#d59163;fill-rule:evenodd;stroke:none;stroke-width:1px;stroke-linecap:butt;stroke-linejoin:miter;stroke-opacity:1;fill-opacity:1"
       d="M 74.125,86.25 L 68.75,88.125 L 68.75,82.875 L 70.625,79.75 L 72.5,80.75 L 73.375,82.25 L 74.125,86.25 z"
       id="path3126" />
    <path
       style="fill:#d59163;fill-rule:evenodd;stroke:none;stroke-width:1px;stroke-linecap:butt;stroke-linejoin:miter;stroke-opacity:1;fill-opacity:1"
       d="M 61.125,74.5625 L 61.5,71.5 L 59.1875,68.5 L 57.4375,70.125 L 57.375,71.125 L 57.1875,73.8125 L 61.125,74.5625 z"
       id="path3128" />
    <path
       style="fill:#d59163;fill-rule:evenodd;stroke:none;stroke-width:1px;stroke-linecap:butt;stroke-linejoin:miter;stroke-opacity:1;fill-opacity:1"
       d="M 67.875,64.0625 L 71.9375,62.5 L 71.3125,58.9375 L 69.375,57.25 L 68.4375,58.6875 L 67.75,60.125 L 67.875,64.0625 z"
       id="path3130" />
    <path
       style="fill:#d59163;fill-rule:evenodd;stroke:none;stroke-width:1px;stroke-linecap:butt;stroke-linejoin:miter;stroke-opacity:1;fill-opacity:1"
       d="M 61.375,47.5625 L 61.5,43.0625 L 60.4375,40 L 59.4375,39.0625 L 57.3125,40.6875 L 57.0625,42.625 L 56.9375,45.9375 L 61.375,47.5625 z"
       id="path3132" />
    <path
       style="fill:#d59163;fill-rule:evenodd;stroke:none;stroke-width:1px;stroke-linecap:butt;stroke-linejoin:miter;stroke-opacity:1;fill-opacity:1"
       d="M 72.125,42.0625 L 75.3125,40.9375 L 74.6875,38 L 72.875,36.375 L 72.125,37.5625 L 71.9375,38.8125 L 72.125,42.0625 z"
       id="path3134" />
    <path
       id="path3136"
       d="M 61.125,74.5625 L 61.5,71.5 L 59.1875,68.5 L 57.4375,70.125 L 57.375,71.125 L 57.1875,73.8125 L 61.125,74.5625 z"
       style="fill:#000000;fill-rule:evenodd;stroke:none;stroke-width:1px;stroke-linecap:butt;stroke-linejoin:miter;stroke-opacity:1;fill-opacity:0.15686275" />
    <path
       id="path3138"
       d="M 61.375,47.5625 L 61.5,43.0625 L 60.4375,40 L 59.4375,39.0625 L 57.3125,40.6875 L 57.0625,42.625 L 56.9375,45.9375 L 61.375,47.5625 z"
       style="fill:#000000;fill-rule:evenodd;stroke:none;stroke-width:1px;stroke-linecap:butt;stroke-linejoin:miter;stroke-opacity:1;fill-opacity:0.15686275" />
    <path
       id="path3140"
       d="M 48.75,106.625 L 49,102.875 L 50.125,101.5 L 51.5,100.875 L 52.75,103.125 L 53.25,105.125 L 52.875,108.5 L 48.75,106.625 z"
       style="fill:#000000;fill-rule:evenodd;stroke:none;stroke-width:1px;stroke-linecap:butt;stroke-linejoin:miter;stroke-opacity:1;fill-opacity:0.15686275" />
  </g>
  <g
     inkscape:label="outline"
     inkscape:groupmode="layer"
     id="layer1">
    <path
       style="fill:#000000;fill-opacity:1;fill-rule:evenodd;stroke:none;stroke-width:1px;stroke-linecap:butt;stroke-linejoin:miter;stroke-opacity:1"
       d="M 62.90625,2.5 L 62.4375,16.1875 L 51.25092,30.566942 C 51.070183,31.737047 52.969825,32.214184 53.875,32.96875 C 52.813473,36.86727 52.182874,41.26852 53.625,46.5625 C 54.44184,47.369546 55.453528,47.927982 56.4375,48.5 C 55.328416,62.49053 54.588773,72.805775 55.59375,86.78125 C 54.267688,86.816246 47.481954,87.957629 44.776808,92.166973 C 45.133209,92.769195 45.715931,93.183536 46.177697,93.703585 C 44.591084,100.28047 43.779208,101.24944 43.412532,115.15625 C 50.437645,120.86442 59.510957,122.59995 68.28125,123.01517 C 74.354008,122.45669 84.606045,121.12959 90.65625,115.15625 C 91.300329,107.96545 90.254475,101.10441 87.78125,94.375 L 89.441942,93.619638 C 87.659765,89.01465 83.351941,86.979438 78.875,85.625 C 78.256016,72.037111 77.025542,60.286551 74.75,48.34375 L 77.53125,46.21875 C 78.429509,41.391428 77.546069,36.999103 75.6875,32.5625 C 76.51537,32.008441 77.463725,31.17665 77.697303,30.385723 L 63.71875,15.625 L 63.4375,11.634803 C 66.754971,10.748381 68.021101,12.210529 70.09375,14.254442 C 78.536759,14.330964 83.204891,10.964597 89.96875,10.53125 L 89.8125,9.71875 C 84.17844,9.8192789 78.103812,9.7481493 72.5,9.1205583 C 72.110809,7.270482 71.525485,6.0557263 69.90625,5.4375 C 67.814364,4.655608 65.6958,4.498252 63.525888,4.7401966 L 63.4375,2.5 L 62.90625,2.5 z M 67.4375,5.625 C 68.237433,5.6095778 68.998924,5.6589154 69.75,5.875 C 71.229188,6.4397561 71.87785,7.9262747 72.125,9.75 C 73.726503,10.863325 85.598759,10.16738 88.4375,10.21875 C 85.629971,10.380876 79.124355,13.493281 70.3125,13.375 C 68.502305,10.673827 66.552768,9.91119 63.4375,10.25 L 63.4375,6.125 C 64.722342,5.9025185 66.104279,5.6507037 67.4375,5.625 z M 63.1875,15.875 C 63.347212,15.86431 63.568303,15.93547 63.84375,16.15625 L 72.1875,25.71875 C 71.755696,26.123925 71.444527,26.857805 70.84375,26.90625 L 71.03125,27.1875 L 72.5625,26.125 L 73.71875,27.46875 C 73.504674,27.824018 73.116976,28.289073 72.75,28.65625 C 72.553529,28.852828 72.340292,29.106529 72.125,29.34375 C 71.724442,28.887943 71.353718,28.464754 71.25,28.34375 L 70.90625,28.59375 C 71.019238,28.72557 71.409488,29.187562 71.8125,29.65625 C 71.567121,29.907067 71.323382,30.134255 71.0625,30.28125 L 71.15625,30.5 C 71.453093,30.332743 71.743648,30.116774 72.03125,29.90625 C 72.172407,30.070399 72.4375,30.375 72.4375,30.375 L 72.8125,30.125 C 72.8125,30.125 72.534952,29.806896 72.375,29.625 C 72.631546,29.417938 72.897971,29.227153 73.125,29 C 73.544816,28.579954 73.857726,28.263398 74.0625,27.875 L 76.59375,30.75 C 74.023127,33.884813 68.854788,34.310684 65.0625,34.5625 C 60.497689,34.757733 55.751004,33.988776 52.59375,30.46875 L 53.59375,29.09375 C 54.831031,30.072988 56.221227,30.63445 57.65625,31.03125 C 57.606036,31.26255 57.539418,31.484751 57.5,31.71875 L 57.90625,31.875 C 57.98268,31.635649 58.04814,31.394393 58.125,31.15625 C 60.005252,31.620614 61.961145,31.827544 63.8125,32.15625 L 63.625,31.75 C 61.801611,31.426259 59.97708,31.131455 58.28125,30.65625 C 58.641346,29.535409 59.020531,28.419492 59.28125,27.28125 C 59.624988,27.365985 59.956961,27.458845 60.34375,27.59375 L 60.40625,27.40625 C 59.970963,27.25443 59.659515,27.145543 59.3125,27.03125 C 59.425039,26.513152 59.525442,26.000093 59.59375,25.46875 L 59.4375,25.28125 C 59.269825,25.81789 59.059416,26.342545 58.875,26.875 C 58.176795,26.629889 57.377778,26.307461 56.0625,25.59375 L 62.625,16.40625 C 62.780843,16.167749 62.921314,15.892817 63.1875,15.875 z M 55.8125,25.9375 C 57.199976,26.690903 58.053781,26.966238 58.78125,27.15625 C 58.399433,28.255425 58.062227,29.375615 57.78125,30.5 C 56.389206,30.066987 55.083223,29.500146 53.9375,28.59375 L 55.8125,25.9375 z M 74.865197,33.020527 C 76.674957,36.904929 77.755634,40.141498 77.03125,45.786612 C 73.647014,48.835461 68.922044,49.838294 64.849112,49.677697 C 60.79907,49.518004 56.660629,48.523377 54.208027,46.463388 C 53.721283,40.860434 53.31971,37.740475 54.640165,33.192862 C 57.890946,34.758896 61.69985,35.214805 65.25,35.15625 C 68.546824,35.044449 71.86103,34.385128 74.865197,33.020527 z M 72.6875,36.0625 C 72.032445,36.90818 71.881174,37.82276 71.8125,38.84375 L 71.90625,42.25 L 75.4375,41 L 74.90625,38.25 C 74.409675,37.230706 73.600222,36.655432 72.6875,36.0625 z M 72.9375,36.78125 C 73.239113,37.084706 74.307816,38.086912 74.53125,38.40625 L 75.03125,40.8125 L 72.25,41.8125 L 72.25,38.75 C 72.142004,38.065454 72.846609,37.458015 72.9375,36.78125 z M 59.59375,38.8125 C 58.014026,39.559898 57.177953,40.426308 56.78125,42.0625 L 56.6875,46.15625 L 61.46875,47.8125 L 61.65625,42.90625 C 61.187637,41.517346 61.326448,40.06095 59.59375,38.8125 z M 59.46875,39.28125 C 60.096635,39.944965 61.166789,41.505641 61.125,42.9375 L 61.09375,47.1875 L 57.28125,45.90625 L 57.3125,42.09375 C 57.467062,41.058533 58.672776,39.837946 59.46875,39.28125 z M 74.083947,48.765165 C 76.543316,61.772448 77.545888,74.154681 78.354473,89.682138 C 70.263257,95.320278 60.281067,94.12191 56.21875,89.760723 C 55.052167,73.796439 55.820101,64.172359 57.015165,49.129442 C 59.223177,50.136967 62.158914,50.612886 64.84375,50.71875 C 67.844355,50.837065 71.240821,50.216214 74.083947,48.765165 z M 69.34375,57.15625 C 68.435994,57.920612 68.058964,58.945916 67.6875,60.03125 L 67.75,64.28125 L 72,62.625 L 71.5625,59.1875 C 71.329241,57.75093 70.12023,57.777988 69.34375,57.15625 z M 69.46875,57.59375 C 70.078923,57.821756 70.861784,58.559313 71.15625,59.09375 L 71.6875,62.375 L 68.09375,63.9375 L 68.0625,59.96875 C 68.271884,59.233236 69.027532,58.104431 69.46875,57.59375 z M 59.28125,68.4375 C 58.246164,68.747545 57.755425,69.460579 57.1875,70.28125 L 57.125,73.90625 L 61.3125,74.875 L 61.625,71.40625 C 61.208879,70.051538 60.304846,69.184738 59.28125,68.4375 z M 59.1875,68.875 C 60.075933,69.497785 61.000751,70.857476 61.25,71.53125 L 61.125,74.3125 L 57.375,73.65625 L 57.5625,70.5 C 57.739493,70.107062 58.505168,69.209437 59.1875,68.875 z M 70.71875,79.53125 C 69.544464,80.467109 69.055274,81.766145 68.5625,83.125 L 68.625,88.40625 L 74.125,86.40625 L 73.59375,82.09375 C 72.883511,80.619348 71.737691,80.233898 70.71875,79.53125 z M 70.90625,80.03125 C 71.899153,80.334407 72.617113,81.613461 73.0625,82.46875 L 73.75,85.96875 L 69,87.90625 L 68.9375,83.1875 C 69.150557,82.170968 70.289534,80.828686 70.90625,80.03125 z M 78.84375,86.1875 C 82.23282,86.885902 84.677572,88.659652 86.25,90.40625 C 86.053841,90.755286 85.846709,91.077963 85.625,91.375 C 84.507883,90.001137 82.863757,89.158473 81.40625,88.125 L 81.3125,88.3125 C 82.88414,89.27678 84.337122,90.372931 85.3125,91.78125 C 83.786034,93.584704 81.77981,94.40319 79.78125,95.03125 L 79.875,95.34375 C 81.839258,94.72647 83.989122,94.134196 85.65625,92.28125 C 85.826631,92.576526 85.969586,92.896494 86.09375,93.21875 L 86.46875,92.78125 C 86.333374,92.459292 86.180769,92.151566 86,91.875 C 86.233742,91.577614 86.446878,91.265532 86.65625,90.90625 C 87.317491,91.723237 87.821612,92.512831 88.09375,93.15625 C 82.569426,97.072201 73.81225,100.0166 65.78125,100.03125 C 57.738496,100.04592 50.171175,97.127195 46.4375,92.25 C 46.77189,91.630733 47.227636,91.068467 47.78125,90.5625 C 48.125073,91.61619 48.76189,92.482192 49.53125,93.21875 C 49.254599,93.456601 48.973649,93.680272 48.6875,93.90625 L 49.09375,94.1875 L 49.9375,93.59375 C 49.948698,93.603402 49.957517,93.615391 49.96875,93.625 C 51.093845,94.587434 52.409414,95.361579 53.53125,96.21875 L 53.4375,95.875 C 52.306667,95.010954 51.447885,94.104181 50.46875,93.25 L 51.9375,92.25 L 51.6875,91.875 C 51.031185,92.065378 50.495043,92.420532 50,92.8125 C 49.197811,92.06635 48.530929,91.190496 48.25,90.1875 C 48.856934,89.70471 49.534956,89.282006 50.28125,88.90625 C 50.4616,90.099362 51.641776,90.515277 52.5625,91.3125 L 52.875,91 C 51.936373,90.312887 51.377351,89.590749 50.9375,88.59375 C 52.373701,87.949693 53.951191,87.47273 55.46875,87.15625 C 55.547689,88.176393 55.618493,89.148204 55.71875,90.21875 C 63.465781,97.074625 70.917638,94.265108 78.78125,90.21875 C 79.235739,89.165605 78.902483,87.439047 78.84375,86.1875 z M 47.28125,94.71875 C 51.596901,98.680994 58.517598,100.41938 65.71875,100.40625 C 73.304286,100.39242 81.224899,98.425967 86.9375,94.90625 C 89.677589,101.09203 89.926387,108.15557 89.589308,114.97411 C 87.979881,116.49087 86.061341,117.48892 83.8125,118.53125 L 83.15625,110.03125 C 82.182188,107.08223 79.79364,105.81873 77.125,104.65625 C 74.350913,106.56117 72.391992,109.29048 72.21875,112.6875 C 72.664039,115.58648 72.689047,118.56501 72.78125,121.5 C 71.307494,121.66474 69.793973,121.73627 68.28125,121.75 C 59.815693,121.82682 50.693109,120.06547 44.6875,115.21875 C 45.113787,107.98043 44.111796,102.52471 47.28125,94.71875 z M 51.4375,100.59375 C 50.526149,100.96328 49.336624,101.63129 48.90625,102.96875 L 48.625,106.9375 L 52.9375,108.75 L 53.34375,104.75 C 53.009586,103.00197 52.934269,101.71125 51.4375,100.59375 z M 51.40625,101.09375 C 52.167805,102.09302 53.071797,103.7963 52.9375,104.65625 L 52.8125,108.125 L 48.9375,106.75 L 49.125,103.125 C 49.401177,102.30944 50.781332,101.38313 51.40625,101.09375 z M 77.192862,105.3223 C 79.539578,106.36598 82.050186,107.918 82.604473,110.125 L 82.964308,118.99464 C 81.495239,120.01158 76.336276,121.09841 73.557138,121.55714 C 73.534333,118.50501 73.226924,115.3801 72.770527,112.39108 C 72.970549,109.5244 75.245199,107.1557 77.192862,105.3223 z"
       id="path2308"
       sodipodi:nodetypes="ccccccccccccccccccccccccccccccccccccccccccccsccccccccccscccccccccccccccccccccccccccccsccccccccccccccccccccccccccccccccscccccccccccccccccccccccccccccccccccccccccccccccccccsccccccsccccccccccccccccscccccccscccccccccccccccccccc" />
  </g>
</svg>
