<?xml version="1.0" encoding="UTF-8" standalone="no"?>
<!-- Created with Inkscape (http://www.inkscape.org/) -->
<svg
   xmlns:dc="http://purl.org/dc/elements/1.1/"
   xmlns:cc="http://creativecommons.org/ns#"
   xmlns:rdf="http://www.w3.org/1999/02/22-rdf-syntax-ns#"
   xmlns:svg="http://www.w3.org/2000/svg"
   xmlns="http://www.w3.org/2000/svg"
   xmlns:xlink="http://www.w3.org/1999/xlink"
   xmlns:sodipodi="http://sodipodi.sourceforge.net/DTD/sodipodi-0.dtd"
   xmlns:inkscape="http://www.inkscape.org/namespaces/inkscape"
   width="128"
   height="128"
   id="svg2"
   sodipodi:version="0.32"
   inkscape:version="0.45+devel"
   version="1.0"
   sodipodi:docname="tower_round.svg"
   inkscape:output_extension="org.inkscape.output.svg.inkscape">
  <defs
     id="defs4">
    <linearGradient
       id="linearGradient2320">
      <stop
         id="stop2322"
         offset="0"
         style="stop-color:#6a3c1d;stop-opacity:1;" />
      <stop
         id="stop2324"
         offset="1"
         style="stop-color:#8f5127;stop-opacity:1;" />
    </linearGradient>
    <linearGradient
       id="linearGradient2338">
      <stop
         id="stop2340"
         offset="0"
         style="stop-color:#b1b1b1;stop-opacity:1;" />
      <stop
         id="stop2342"
         offset="1"
         style="stop-color:#e4e4e4;stop-opacity:1;" />
    </linearGradient>
    <linearGradient
       inkscape:collect="always"
       xlink:href="#linearGradient2338"
       id="linearGradient2369"
       x1="45.499454"
       y1="58.344254"
       x2="87.941147"
       y2="105.06681"
       gradientUnits="userSpaceOnUse" />
    <linearGradient
       inkscape:collect="always"
       xlink:href="#linearGradient2338"
       id="linearGradient2374"
       x1="70.883636"
       y1="46.029598"
       x2="101.84822"
       y2="54.396393"
       gradientUnits="userSpaceOnUse" />
    <linearGradient
       inkscape:collect="always"
       xlink:href="#linearGradient2338"
       id="linearGradient2410"
       x1="61.444714"
       y1="33.126816"
       x2="88.230682"
       y2="20.489191"
       gradientUnits="userSpaceOnUse" />
    <linearGradient
       inkscape:collect="always"
       xlink:href="#linearGradient2338"
       id="linearGradient2412"
       x1="48.679523"
       y1="14.92407"
       x2="86.35112"
       y2="24.58659"
       gradientUnits="userSpaceOnUse" />
    <linearGradient
       inkscape:collect="always"
       xlink:href="#linearGradient2338"
       id="linearGradient2414"
       x1="44.154037"
       y1="33.698711"
       x2="50.63649"
       y2="31.374813"
       gradientUnits="userSpaceOnUse" />
    <linearGradient
       inkscape:collect="always"
       xlink:href="#linearGradient2338"
       id="linearGradient2416"
       x1="52.104214"
       y1="36.634155"
       x2="56.385075"
       y2="37.368023"
       gradientUnits="userSpaceOnUse" />
    <linearGradient
       inkscape:collect="always"
       xlink:href="#linearGradient2338"
       id="linearGradient2418"
       x1="51.003421"
       y1="41.587729"
       x2="67.51532"
       y2="41.587729"
       gradientUnits="userSpaceOnUse" />
    <linearGradient
       inkscape:collect="always"
       xlink:href="#linearGradient2338"
       id="linearGradient2420"
       x1="65.802979"
       y1="35.533367"
       x2="68.249184"
       y2="40.91502"
       gradientUnits="userSpaceOnUse" />
    <linearGradient
       inkscape:collect="always"
       xlink:href="#linearGradient2338"
       id="linearGradient2422"
       x1="68.738426"
       y1="37.001091"
       x2="83.537971"
       y2="28.622829"
       gradientUnits="userSpaceOnUse" />
    <linearGradient
       inkscape:collect="always"
       xlink:href="#linearGradient2338"
       id="linearGradient2424"
       x1="86.228806"
       y1="35.166435"
       x2="92.099701"
       y2="31.252504"
       gradientUnits="userSpaceOnUse" />
    <linearGradient
       inkscape:collect="always"
       xlink:href="#linearGradient2338"
       id="linearGradient2426"
       x1="88.185776"
       y1="25.136986"
       x2="93.689735"
       y2="29.784779"
       gradientUnits="userSpaceOnUse" />
    <linearGradient
       inkscape:collect="always"
       xlink:href="#linearGradient2338"
       id="linearGradient2428"
       x1="86.595734"
       y1="20.794968"
       x2="92.344322"
       y2="16.269484"
       gradientUnits="userSpaceOnUse" />
    <linearGradient
       inkscape:collect="always"
       xlink:href="#linearGradient2338"
       id="linearGradient2430"
       x1="75.710114"
       y1="16.636415"
       x2="81.703322"
       y2="16.636415"
       gradientUnits="userSpaceOnUse" />
    <linearGradient
       inkscape:collect="always"
       xlink:href="#linearGradient2338"
       id="linearGradient2432"
       x1="62.011353"
       y1="12.233242"
       x2="72.407738"
       y2="7.9523797"
       gradientUnits="userSpaceOnUse" />
    <linearGradient
       inkscape:collect="always"
       xlink:href="#linearGradient2338"
       id="linearGradient2434"
       x1="58.586662"
       y1="9.420104"
       x2="61.155182"
       y2="14.312518"
       gradientUnits="userSpaceOnUse" />
    <linearGradient
       inkscape:collect="always"
       xlink:href="#linearGradient2338"
       id="linearGradient2436"
       x1="54.550419"
       y1="19.266088"
       x2="58.097424"
       y2="14.862915"
       gradientUnits="userSpaceOnUse" />
    <linearGradient
       inkscape:collect="always"
       xlink:href="#linearGradient2338"
       id="linearGradient2438"
       x1="38.527763"
       y1="17.431433"
       x2="50.147251"
       y2="10.948983"
       gradientUnits="userSpaceOnUse" />
    <linearGradient
       inkscape:collect="always"
       xlink:href="#linearGradient2338"
       id="linearGradient2440"
       x1="38.405453"
       y1="19.204933"
       x2="41.585522"
       y2="23.485796"
       gradientUnits="userSpaceOnUse" />
    <linearGradient
       inkscape:collect="always"
       xlink:href="#linearGradient2338"
       id="linearGradient2442"
       x1="36.815422"
       y1="29.173227"
       x2="42.319382"
       y2="26.60471"
       gradientUnits="userSpaceOnUse" />
    <linearGradient
       inkscape:collect="always"
       xlink:href="#linearGradient2320"
       id="linearGradient3218"
       x1="75.243248"
       y1="108.84325"
       x2="66.835136"
       y2="120.25946"
       gradientUnits="userSpaceOnUse" />
    <linearGradient
       inkscape:collect="always"
       xlink:href="#linearGradient2338"
       id="linearGradient3248"
       x1="89.167564"
       y1="110.0108"
       x2="90.983788"
       y2="107.32973"
       gradientUnits="userSpaceOnUse" />
    <linearGradient
       inkscape:collect="always"
       xlink:href="#linearGradient2338"
       id="linearGradient3250"
       x1="89.945946"
       y1="112.25947"
       x2="93.924324"
       y2="108.36758"
       gradientUnits="userSpaceOnUse" />
    <linearGradient
       inkscape:collect="always"
       xlink:href="#linearGradient2338"
       id="linearGradient3252"
       x1="59.589188"
       y1="115.2"
       x2="62.010811"
       y2="113.72972"
       gradientUnits="userSpaceOnUse" />
    <linearGradient
       inkscape:collect="always"
       xlink:href="#linearGradient2338"
       id="linearGradient3254"
       x1="57.078114"
       y1="118.37755"
       x2="61.49189"
       y2="117.01532"
       gradientUnits="userSpaceOnUse" />
    <linearGradient
       inkscape:collect="always"
       xlink:href="#linearGradient2338"
       id="linearGradient3256"
       x1="69.405403"
       y1="93.75135"
       x2="70.572968"
       y2="90.810814"
       gradientUnits="userSpaceOnUse" />
    <linearGradient
       inkscape:collect="always"
       xlink:href="#linearGradient2338"
       id="linearGradient3258"
       x1="72.172974"
       y1="91.848648"
       x2="73.945946"
       y2="86.745941"
       gradientUnits="userSpaceOnUse" />
    <linearGradient
       inkscape:collect="always"
       xlink:href="#linearGradient2338"
       id="linearGradient3260"
       x1="75.675682"
       y1="92.108109"
       x2="77.23243"
       y2="89.340546"
       gradientUnits="userSpaceOnUse" />
    <linearGradient
       inkscape:collect="always"
       xlink:href="#linearGradient2338"
       id="linearGradient3262"
       x1="85.794594"
       y1="87.005409"
       x2="90.63784"
       y2="82.335136"
       gradientUnits="userSpaceOnUse" />
    <linearGradient
       inkscape:collect="always"
       xlink:href="#linearGradient2338"
       id="linearGradient3264"
       x1="89.081085"
       y1="81.556763"
       x2="91.848656"
       y2="76.281082"
       gradientUnits="userSpaceOnUse" />
    <linearGradient
       inkscape:collect="always"
       xlink:href="#linearGradient2338"
       id="linearGradient3266"
       x1="80.951347"
       y1="86.313515"
       x2="87.005409"
       y2="79.913513"
       gradientUnits="userSpaceOnUse" />
    <linearGradient
       inkscape:collect="always"
       xlink:href="#linearGradient2338"
       id="linearGradient3268"
       x1="46.875676"
       y1="86.227027"
       x2="54.227028"
       y2="85.36216"
       gradientUnits="userSpaceOnUse" />
    <linearGradient
       inkscape:collect="always"
       xlink:href="#linearGradient2338"
       id="linearGradient3270"
       x1="45.05946"
       y1="81.945953"
       x2="50.248646"
       y2="80.994591"
       gradientUnits="userSpaceOnUse" />
    <linearGradient
       inkscape:collect="always"
       xlink:href="#linearGradient2338"
       id="linearGradient3272"
       x1="51.372974"
       y1="84.454048"
       x2="58.810811"
       y2="83.243243"
       gradientUnits="userSpaceOnUse" />
    <filter
       inkscape:collect="always"
       id="filter3649">
      <feGaussianBlur
         inkscape:collect="always"
         stdDeviation="1.2532691"
         id="feGaussianBlur3651" />
    </filter>
  </defs>
  <sodipodi:namedview
     id="base"
     pagecolor="#ffffff"
     bordercolor="#666666"
     borderopacity="1.0"
     gridtolerance="10000"
     guidetolerance="10"
     objecttolerance="10"
     inkscape:pageopacity="0.0"
     inkscape:pageshadow="2"
     inkscape:zoom="1"
     inkscape:cx="64"
     inkscape:cy="64"
     inkscape:document-units="px"
     inkscape:current-layer="layer2"
     showgrid="false"
     width="744.09px"
     inkscape:window-width="1248"
     inkscape:window-height="975"
     inkscape:window-x="426"
     inkscape:window-y="24" />
  <metadata
     id="metadata7">
    <rdf:RDF>
      <cc:Work
         rdf:about="">
        <dc:format>image/svg+xml</dc:format>
        <dc:type
           rdf:resource="http://purl.org/dc/dcmitype/StillImage" />
      </cc:Work>
    </rdf:RDF>
  </metadata>
  <g
     inkscape:groupmode="layer"
     id="layer2"
     inkscape:label="colors">
    <path
       style="fill:#000000;fill-rule:evenodd;stroke:none;stroke-width:1px;stroke-linecap:butt;stroke-linejoin:miter;stroke-opacity:1;filter:url(#filter3649);fill-opacity:0.56164384"
       d="M 43.690874,54.488869 C 38.380766,53.226944 31.195264,56.214736 38.058425,58.715104 C 43.817631,60.885063 36.037552,62.770397 32.879222,60.537747 C 30.668964,58.338374 27.608121,55.14033 22.493592,56.359106 C 19.145681,57.020505 15.732747,59.189032 16.842856,60.639496 C 21.688365,61.230543 17.437041,66.684223 18.866236,69.89551 C 20.343067,72.630735 20.073547,75.979219 25.197537,78.07153 C 30.645173,79.838977 30.401228,82.893956 31.13419,85.459782 C 33.343919,93.16274 34.64311,101.42417 36.884472,109.11679 C 38.714357,111.78439 46.242025,115.20452 50.541891,116.5348 C 56.340119,117.96082 62.382708,116.53016 68.207487,116.55338 C 73.510007,115.88466 77.765853,112.76118 83.150228,112.17174 C 94.97253,110.65476 95.782604,108.07981 89.530237,97.711613 C 84.737295,90.117948 82.950464,87.027301 77.880438,79.450529 C 81.615689,77.637635 81.284362,74.152353 78.506721,71.288135 C 72.445864,65.246925 74.822945,64.738506 73.605714,62.188318 C 71.454934,59.748227 66.290515,56.692928 61.370415,57.456723 C 58.088439,57.955638 64.240599,59.950084 59.94762,58.526262 C 58.092976,58.645265 61.695874,61.406185 58.000254,59.732068 C 53.659384,57.543392 48.091279,57.112328 43.134329,57.005275 C 46.134596,57.737635 54.437241,57.980862 49.971727,55.35969 C 47.988108,54.653314 45.731724,54.486609 43.690874,54.488869 z M 36.678499,58.391277 C 30.67907,56.715606 32.673377,63.08071 37.323729,61.015753 C 41.474485,61.332815 39.715921,58.975178 36.678499,58.391277 z M 25.513009,59.611854 L 25.301699,59.70203 L 25.513009,59.611854 z M 22.096716,61.520081 C 22.342658,61.552422 21.885151,61.600361 22.096716,61.520081 z M 19.614385,66.453962 C 20.377433,66.627534 19.559751,66.969111 19.614385,66.453962 z"
       id="path3528"
       sodipodi:nodetypes="cccccccccccccccccccccccccccccccc"
       inkscape:transform-center-x="-35.870846"
       inkscape:transform-center-y="8.1805851" />
    <path
       style="fill:url(#linearGradient2369);fill-rule:evenodd;stroke:none;stroke-width:1px;stroke-linecap:butt;stroke-linejoin:miter;stroke-opacity:1"
       d="M 41.830144,52.901438 L 37.916212,106.718 L 38.772385,108.43034 L 44.643282,113.56738 L 54.672732,118.33748 L 66.169906,120.41676 L 66.536837,112.83352 L 67.270699,101.82558 L 70.450769,96.443927 L 73.630838,94.12003 L 78.278632,95.343133 L 82.314874,98.278582 L 83.782598,100.48017 L 85.494943,109.1642 L 87.207288,115.40203 L 96.380565,108.06341 L 94.056669,82.867476 L 90.631978,52.289886 L 85.861874,54.980714 L 78.645563,57.671542 L 69.716906,58.650025 L 61.399802,58.405404 L 50.881111,56.693059 L 41.830144,52.901438 z"
       id="path2367" />
    <path
       style="fill:url(#linearGradient2374);fill-rule:evenodd;stroke:none;stroke-width:1px;stroke-linecap:butt;stroke-linejoin:miter;stroke-opacity:1"
       d="M 35.836936,30.763262 L 35.959246,46.78592 L 39.628557,51.433713 L 45.254834,54.858403 L 55.528904,57.916162 L 66.047596,59.016956 L 78.156321,57.916162 L 88.675013,53.75761 L 95.279772,47.275161 L 95.035151,31.374814 L 93.934358,34.310263 L 90.265047,38.101884 L 87.207288,40.425781 L 86.473426,33.45409 L 75.098562,36.634159 L 68.126872,37.123401 L 67.51532,44.584333 L 60.66594,44.339712 L 54.550422,43.48354 L 50.7588,42.138126 L 50.63649,35.900297 L 45.377144,34.432573 L 41.096282,32.353297 L 38.160833,28.806296 L 37.30466,32.720228 L 35.836936,30.763262 z"
       id="path2372" />
    <path
       style="fill:url(#linearGradient2442);fill-rule:evenodd;stroke:none;stroke-width:1px;stroke-linecap:butt;stroke-linejoin:miter;stroke-opacity:1"
       d="M 37.30466,23.913882 L 43.053247,25.626227 L 43.053247,27.460882 L 38.283143,28.561676 L 37.30466,32.964849 L 36.203867,30.15171 L 36.693109,25.748537 L 37.30466,23.913882 z"
       id="path2376" />
    <path
       style="fill:url(#linearGradient2440);fill-rule:evenodd;stroke:none;stroke-width:1px;stroke-linecap:butt;stroke-linejoin:miter;stroke-opacity:1"
       d="M 37.549281,23.546951 L 36.937729,17.064501 L 42.930937,19.388398 L 43.297868,25.748537 L 37.549281,23.546951 z"
       id="path2378" />
    <path
       style="fill:url(#linearGradient2438);fill-rule:evenodd;stroke:none;stroke-width:1px;stroke-linecap:butt;stroke-linejoin:miter;stroke-opacity:1"
       d="M 37.06004,16.69757 L 39.628557,14.251363 L 43.053247,12.049777 L 46.233317,10.337432 L 49.168766,8.9920176 L 53.205008,13.762122 L 48.801835,15.229846 L 45.377144,17.431433 L 43.053247,19.755329 L 37.06004,16.69757 z"
       id="path2380" />
    <path
       style="fill:url(#linearGradient2436);fill-rule:evenodd;stroke:none;stroke-width:1px;stroke-linecap:butt;stroke-linejoin:miter;stroke-opacity:1"
       d="M 53.694249,15.107536 L 56.140456,14.618294 L 58.831284,13.884432 L 62.500595,17.676053 L 59.809767,18.165295 L 58.219732,18.899157 L 56.140456,19.266088 L 54.06118,19.266088 L 53.694249,15.107536 z"
       id="path2382" />
    <path
       style="fill:url(#linearGradient2434);fill-rule:evenodd;stroke:none;stroke-width:1px;stroke-linecap:butt;stroke-linejoin:miter;stroke-opacity:1"
       d="M 58.953595,14.006742 L 58.586663,7.1573622 L 62.133664,11.927466 L 62.500595,17.553743 L 58.953595,14.006742 z"
       id="path2384" />
    <path
       style="fill:url(#linearGradient2432);fill-rule:evenodd;stroke:none;stroke-width:1px;stroke-linecap:butt;stroke-linejoin:miter;stroke-opacity:1"
       d="M 59.565146,7.2796725 L 63.601388,7.0350518 L 67.759941,6.9127414 L 73.263907,7.6466036 L 75.954735,12.905949 L 69.472286,11.560535 L 65.680664,11.560535 L 62.011354,11.927466 L 58.831284,7.5242932 L 59.565146,7.2796725 z"
       id="path2386" />
    <path
       style="fill:url(#linearGradient2430);fill-rule:evenodd;stroke:none;stroke-width:1px;stroke-linecap:butt;stroke-linejoin:miter;stroke-opacity:1"
       d="M 75.710114,13.27288 L 75.832425,17.431433 L 77.300149,17.676053 L 81.703322,19.99995 L 81.581012,17.186812 L 79.746356,16.086019 L 77.66708,14.862915 L 75.954735,14.985225 L 75.710114,13.27288 z"
       id="path2388" />
    <path
       style="fill:url(#linearGradient2428);fill-rule:evenodd;stroke:none;stroke-width:1px;stroke-linecap:butt;stroke-linejoin:miter;stroke-opacity:1"
       d="M 81.458701,13.395191 L 86.106495,11.560535 L 90.142737,14.251363 L 92.344323,16.57526 L 93.934358,19.87764 L 94.66822,23.791571 L 87.084978,24.647744 L 87.451909,22.446157 L 86.962668,19.266088 L 84.761081,16.330639 L 81.458701,13.395191 z"
       id="path2390" />
    <path
       style="fill:url(#linearGradient2426);fill-rule:evenodd;stroke:none;stroke-width:1px;stroke-linecap:butt;stroke-linejoin:miter;stroke-opacity:1"
       d="M 87.084978,24.647744 L 86.718047,29.90709 L 94.66822,31.007883 L 94.54591,23.913882 L 87.084978,24.647744 z"
       id="path2392" />
    <path
       style="fill:url(#linearGradient2424);fill-rule:evenodd;stroke:none;stroke-width:1px;stroke-linecap:butt;stroke-linejoin:miter;stroke-opacity:1"
       d="M 86.962668,29.90709 L 85.617254,32.108676 L 86.595736,33.5764 L 87.084978,40.425781 L 88.919633,38.958056 L 92.833565,36.144918 L 94.66822,33.209469 L 94.878919,30.885572 L 86.962668,29.90709 z"
       id="path2394"
       sodipodi:nodetypes="ccccccccc" />
    <path
       style="fill:url(#linearGradient2422);fill-rule:evenodd;stroke:none;stroke-width:1px;stroke-linecap:butt;stroke-linejoin:miter;stroke-opacity:1"
       d="M 83.415667,27.093951 C 83.904908,28.194744 86.595736,33.33178 86.595736,33.33178 L 82.070253,34.799504 L 72.774665,36.87878 L 67.882251,37.001091 L 66.414527,31.619435 L 70.450769,31.619435 L 75.465493,30.274021 L 79.012494,29.295538 L 82.804115,27.705503 L 83.415667,27.093951 z"
       id="path2396" />
    <path
       style="fill:url(#linearGradient2420);fill-rule:evenodd;stroke:none;stroke-width:1px;stroke-linecap:butt;stroke-linejoin:miter;stroke-opacity:1"
       d="M 68.249182,36.634159 L 67.39301,44.462023 L 65.802975,39.447298 L 66.414527,31.741745 L 68.249182,36.634159 z"
       id="path2398" />
    <path
       style="fill:url(#linearGradient2418);fill-rule:evenodd;stroke:none;stroke-width:1px;stroke-linecap:butt;stroke-linejoin:miter;stroke-opacity:1"
       d="M 65.680664,39.936539 L 62.011354,39.691919 L 57.852801,38.835746 L 57.24125,38.591125 L 51.003421,42.138126 L 51.859594,42.994298 L 55.161973,43.60585 L 62.011354,44.462023 L 67.51532,44.584333 L 65.680664,39.936539 z"
       id="path2400" />
    <path
       style="fill:url(#linearGradient2416);fill-rule:evenodd;stroke:none;stroke-width:1px;stroke-linecap:butt;stroke-linejoin:miter;stroke-opacity:1"
       d="M 56.629698,32.353297 L 57.118939,38.835746 L 51.003421,42.382746 L 50.881111,38.346505 L 50.881111,35.900297 L 56.629698,32.353297 z"
       id="path2402" />
    <path
       style="fill:url(#linearGradient2414);fill-rule:evenodd;stroke:none;stroke-width:1px;stroke-linecap:butt;stroke-linejoin:miter;stroke-opacity:1"
       d="M 56.385077,32.720228 L 51.614973,31.252504 L 47.701041,29.540158 L 44.03173,26.72702 L 38.160833,28.439365 L 39.139316,30.396331 L 41.585523,32.475607 L 46.111007,34.677194 L 51.003421,36.022608 L 56.385077,32.720228 z"
       id="path2404" />
    <path
       style="fill:url(#linearGradient2412);fill-rule:evenodd;stroke:none;stroke-width:1px;stroke-linecap:butt;stroke-linejoin:miter;stroke-opacity:1"
       d="M 47.089489,28.439365 L 50.391869,25.503916 L 56.385077,22.690778 L 62.011354,20.978433 L 66.536837,20.366881 L 72.040803,20.856123 L 76.443976,21.589985 L 82.681805,24.647744 L 86.962668,29.173227 L 86.106495,31.741745 L 87.207288,27.950124 L 87.207288,24.158503 L 87.69653,21.712295 L 85.739564,17.309122 L 81.458701,13.395191 L 81.581012,16.819881 L 81.825632,19.755329 L 77.78939,17.676053 L 75.832425,17.431433 L 75.954735,12.905949 L 69.961527,11.805156 L 66.536837,11.560535 L 62.011354,11.805156 L 62.622905,18.042984 L 58.953595,18.899157 L 54.795042,19.510709 L 53.93887,19.388398 L 53.449628,13.762122 L 48.924145,15.107536 L 44.765593,17.920674 L 42.441696,20.366881 L 43.297868,26.482399 L 44.520972,27.093951 L 47.089489,28.439365 z"
       id="path2406" />
    <path
       style="fill:url(#linearGradient2410);fill-rule:evenodd;stroke:none;stroke-width:1px;stroke-linecap:butt;stroke-linejoin:miter;stroke-opacity:1"
       d="M 47.089489,28.683986 L 49.413386,26.360089 L 56.262766,22.553629 L 64.93811,20.489192 L 71.306941,20.611502 L 79.501735,23.057709 L 82.926426,24.892365 L 87.084978,28.928607 L 86.351116,31.986366 L 83.660288,27.093951 L 79.624046,29.173227 L 74.487011,30.763262 L 70.450769,31.619435 L 66.292216,31.619435 L 65.802975,39.936539 L 62.011354,39.814229 L 57.24125,38.591125 L 56.507387,32.720228 L 53.082697,31.619435 L 48.312593,29.784779 L 47.089489,28.683986 z"
       id="path2408"
       sodipodi:nodetypes="ccccccccccccccccccccc" />
    <path
       id="path2444"
       d="M 37.549281,23.546951 L 36.937729,17.064501 L 42.930937,19.388398 L 43.297868,25.748537 L 37.549281,23.546951 z"
       style="fill:#000000;fill-rule:evenodd;stroke:none;stroke-width:1px;stroke-linecap:butt;stroke-linejoin:miter;stroke-opacity:1;fill-opacity:0.15686275" />
    <path
       id="path2446"
       d="M 58.953595,14.006742 L 58.586663,7.1573622 L 62.133664,11.927466 L 62.500595,17.553743 L 58.953595,14.006742 z"
       style="fill:#000000;fill-rule:evenodd;stroke:none;stroke-width:1px;stroke-linecap:butt;stroke-linejoin:miter;stroke-opacity:1;fill-opacity:0.15686275" />
    <path
       id="path2448"
       d="M 87.084978,24.647744 L 86.718047,29.90709 L 94.66822,31.007883 L 94.54591,23.913882 L 87.084978,24.647744 z"
       style="fill:#000000;fill-rule:evenodd;stroke:none;stroke-width:1px;stroke-linecap:butt;stroke-linejoin:miter;stroke-opacity:1;fill-opacity:0.15686275" />
    <path
       id="path2450"
       d="M 68.249182,36.634159 L 67.39301,44.462023 L 65.802975,39.447298 L 66.414527,31.741745 L 68.249182,36.634159 z"
       style="fill:#000000;fill-rule:evenodd;stroke:none;stroke-width:1px;stroke-linecap:butt;stroke-linejoin:miter;stroke-opacity:1;fill-opacity:0.15686275" />
    <path
       id="path3029"
       d="M 47.089489,28.439365 L 50.391869,25.503916 L 56.385077,22.690778 L 62.011354,20.978433 L 66.536837,20.366881 L 72.040803,20.856123 L 76.443976,21.589985 L 82.593417,24.824521 L 86.962668,29.173227 L 86.106495,31.741745 L 87.207288,27.950124 L 87.207288,24.158503 L 87.69653,21.712295 L 85.739564,17.309122 L 81.458701,13.395191 L 81.581012,16.819881 L 81.825632,19.755329 L 77.78939,17.676053 L 75.832425,17.431433 L 75.954735,12.905949 L 69.961527,11.805156 L 66.536837,11.560535 L 62.011354,11.805156 L 62.622905,18.042984 L 58.953595,18.899157 L 54.795042,19.510709 L 53.93887,19.388398 L 53.449628,13.762122 L 48.924145,15.107536 L 44.765593,17.920674 L 42.441696,20.366881 L 43.297868,26.482399 L 44.520972,27.093951 L 47.089489,28.439365 z"
       style="fill:#000000;fill-rule:evenodd;stroke:none;stroke-width:1px;stroke-linecap:butt;stroke-linejoin:miter;stroke-opacity:1;fill-opacity:0.15686275"
       sodipodi:nodetypes="cccccccccccccccccccccccccccccccccc" />
    <path
       style="fill:url(#linearGradient3218);fill-rule:evenodd;stroke:none;stroke-width:1px;stroke-linecap:butt;stroke-linejoin:miter;stroke-opacity:1"
       d="M 65.989189,118.74595 L 66.767568,108.88649 L 67.459459,101.88108 L 69.102703,98.335134 L 73.167568,94.097297 L 77.578378,95.221622 C 79.528254,96.162421 80.970919,96.534614 82.854054,99.2 L 86.918919,114.24865 L 80.778378,115.89189 L 74.378378,117.36216 L 65.989189,118.74595 z"
       id="path3031"
       sodipodi:nodetypes="ccccccccccc" />
    <path
       style="fill:#ffffff;fill-rule:evenodd;stroke:none;stroke-width:1px;stroke-linecap:butt;stroke-linejoin:miter;stroke-opacity:1;fill-opacity:0.1254902"
       d="M 62.52973,119.6973 L 62.789189,111.04865 L 63.827027,100.92973 L 64.951351,99.2 L 67.805405,95.567568 L 72.735135,91.243243 L 75.675676,92.108108 L 80.432432,94.27027 L 85.535135,97.72973 L 86.745946,102.48649 L 89.85946,113.64324 L 87.264865,115.11351 L 83.027027,99.545946 C 81.794526,97.869115 80.844427,96.724736 78.010811,95.394595 L 73.772973,94.183783 C 72.263061,95.460361 69.76346,97.26299 69.102703,97.902703 L 67.2,102.74595 L 66.162162,115.45946 L 65.989189,120.56216 L 62.52973,119.6973 z"
       id="path3220"
       sodipodi:nodetypes="cccccccccccccccccccc" />
    <path
       style="fill:url(#linearGradient3254);fill-rule:evenodd;stroke:none;stroke-width:1px;stroke-linecap:butt;stroke-linejoin:miter;stroke-opacity:1"
       d="M 62.443243,119.43784 L 59.502703,119.17838 L 54.918919,118.22703 C 54.918919,118.22703 54.910442,114.49963 55.264865,114.59459 C 56.918867,115.03775 62.702703,116.23784 62.702703,116.23784 L 62.443243,119.43784 z"
       id="path3222"
       sodipodi:nodetypes="cccscc" />
    <path
       style="fill:url(#linearGradient3252);fill-rule:evenodd;stroke:none;stroke-width:1px;stroke-linecap:butt;stroke-linejoin:miter;stroke-opacity:1"
       d="M 58.724324,115.11351 L 58.897297,112.43243 L 62.616216,113.64324 L 62.443243,116.06486 L 58.724324,115.11351 z"
       id="path3224" />
    <path
       style="fill:url(#linearGradient3250);fill-rule:evenodd;stroke:none;stroke-width:1px;stroke-linecap:butt;stroke-linejoin:miter;stroke-opacity:1"
       d="M 88.821622,110.52973 L 90.810811,109.40541 L 93.751351,107.15676 L 94.52973,109.66486 L 89.513514,113.21081 L 88.821622,110.52973 z"
       id="path3226" />
    <path
       style="fill:url(#linearGradient3248);fill-rule:evenodd;stroke:none;stroke-width:1px;stroke-linecap:butt;stroke-linejoin:miter;stroke-opacity:1"
       d="M 92.021622,108.71351 L 90.897297,106.29189 L 88.12973,107.93514 L 88.994595,110.44324 L 92.021622,108.71351 z"
       id="path3228" />
    <path
       style="fill:url(#linearGradient3266);fill-rule:evenodd;stroke:none;stroke-width:1px;stroke-linecap:butt;stroke-linejoin:miter;stroke-opacity:1"
       d="M 86.918919,79.394595 L 82.421622,81.902703 L 79.567568,82.940541 L 80.518919,86.313513 L 82.075676,86.054054 L 85.448649,84.151351 L 88.389189,82.162162 L 86.918919,79.394595 z"
       id="path3230" />
    <path
       style="fill:url(#linearGradient3264);fill-rule:evenodd;stroke:none;stroke-width:1px;stroke-linecap:butt;stroke-linejoin:miter;stroke-opacity:1"
       d="M 86.832432,79.048649 L 90.032432,76.627027 L 92.108108,75.416216 L 92.972973,79.654054 L 91.156757,81.556757 L 88.821622,82.162162 L 86.832432,79.048649 z"
       id="path3232" />
    <path
       style="fill:url(#linearGradient3262);fill-rule:evenodd;stroke:none;stroke-width:1px;stroke-linecap:butt;stroke-linejoin:miter;stroke-opacity:1"
       d="M 88.562162,82.075676 L 84.67027,84.67027 L 85.275676,87.524324 L 87.351351,87.091892 L 91.07027,85.362162 L 91.762162,84.497297 L 91.07027,81.47027 L 88.562162,82.075676 z"
       id="path3234" />
    <path
       style="fill:url(#linearGradient3260);fill-rule:evenodd;stroke:none;stroke-width:1px;stroke-linecap:butt;stroke-linejoin:miter;stroke-opacity:1"
       d="M 77.837838,92.8 L 77.578378,88.648649 L 74.724324,88.735135 L 75.32973,92.021622 L 77.837838,92.8 z"
       id="path3236" />
    <path
       style="fill:url(#linearGradient3258);fill-rule:evenodd;stroke:none;stroke-width:1px;stroke-linecap:butt;stroke-linejoin:miter;stroke-opacity:1"
       d="M 71.091892,92.454054 L 69.016216,86.832432 L 74.118919,85.794595 L 75.32973,92.194595 L 72.908108,91.156757 L 71.437838,92.540541 L 70.659459,91.935135"
       id="path3238" />
    <path
       style="fill:url(#linearGradient3256);fill-rule:evenodd;stroke:none;stroke-width:1px;stroke-linecap:butt;stroke-linejoin:miter;stroke-opacity:1"
       d="M 70.054054,89.945946 L 67.459459,91.156757 L 69.448649,93.751351 L 71.351351,92.454054 L 70.054054,89.945946 z"
       id="path3240" />
    <path
       style="fill:url(#linearGradient3272);fill-rule:evenodd;stroke:none;stroke-width:1px;stroke-linecap:butt;stroke-linejoin:miter;stroke-opacity:1"
       d="M 58.810811,82.767568 L 53.189189,81.210811 L 51.027027,80.432432 L 50.162162,84.151351 L 53.448649,85.102703 C 53.448649,85.102703 55.783784,85.794595 56.12973,85.794595 C 56.475676,85.794595 58.637838,86.054054 58.637838,86.054054 L 58.810811,82.767568 z"
       id="path3242" />
    <path
       style="fill:url(#linearGradient3270);fill-rule:evenodd;stroke:none;stroke-width:1px;stroke-linecap:butt;stroke-linejoin:miter;stroke-opacity:1"
       d="M 51.545946,80.259459 C 51.2,80.259459 48.172973,79.481081 48.172973,79.481081 L 46.27027,78.443243 L 44.281081,77.664865 L 44.108108,81.816216 L 46.183784,83.545946 L 50.248649,84.324324 L 51.545946,80.259459 z"
       id="path3244" />
    <path
       style="fill:url(#linearGradient3268);fill-rule:evenodd;stroke:none;stroke-width:1px;stroke-linecap:butt;stroke-linejoin:miter;stroke-opacity:1"
       d="M 47.135135,83.718919 L 46.875676,86.572973 L 49.989189,87.87027 L 54.227027,88.735135 L 54.140541,85.362162 L 51.027027,84.324324 L 47.135135,83.718919 z"
       id="path3246" />
    <path
       style="fill:#d59163;fill-rule:evenodd;stroke:none;stroke-width:1px;stroke-linecap:butt;stroke-linejoin:miter;stroke-opacity:1;fill-opacity:1"
       d="M 90.020427,76.385027 L 87.94115,78.708924 L 87.084978,78.831234 L 85.250322,79.932028 L 82.070253,81.522062 L 81.09177,72.960337 L 81.825632,70.147199 L 83.904908,66.355577 L 87.94115,67.21175 L 88.797323,68.312543 L 90.020427,76.385027 z"
       id="path3458" />
    <path
       style="fill:#d59163;fill-rule:evenodd;stroke:none;stroke-width:1px;stroke-linecap:butt;stroke-linejoin:miter;stroke-opacity:1;fill-opacity:1"
       d="M 56.629698,81.888993 L 51.737283,80.421269 L 50.024938,79.932028 L 46.967179,78.341993 L 47.33411,70.391819 L 49.291076,68.434854 L 50.391869,67.578681 L 52.104214,67.578681 L 55.039663,69.413337 L 56.385077,72.838027 L 56.629698,81.888993 z"
       id="path3460" />
    <path
       id="path3462"
       d="M 56.629698,81.888993 L 51.737283,80.421269 L 50.024938,79.932028 L 46.967179,78.341993 L 47.33411,70.391819 L 49.291076,68.434854 L 50.391869,67.578681 L 52.104214,67.578681 L 55.039663,69.413337 L 56.385077,72.838027 L 56.629698,81.888993 z"
       style="fill:#000000;fill-rule:evenodd;stroke:none;stroke-width:1px;stroke-linecap:butt;stroke-linejoin:miter;stroke-opacity:1;fill-opacity:0.15686275" />
  </g>
  <g
     inkscape:label="outline"
     inkscape:groupmode="layer"
     id="layer1">
    <path
       style="fill:#000000;fill-opacity:1;fill-rule:evenodd;stroke:none;stroke-width:0.99999994px;stroke-linecap:butt;stroke-linejoin:miter;stroke-opacity:1"
       d="M 65.625,6.71875 C 63.126101,6.735653 60.618556,6.866688 58.125,6.96875 L 58.5,13.8125 C 57.255259,14.555737 55.600316,14.455757 54.21875,14.875 L 54.15625,13.46875 L 49.125,8.8125 C 45.305627,10.792704 41.255754,11.539486 36.28125,17.0625 L 36.75,23.59375 C 34.638101,31.127859 35.298696,39.539381 35.78125,47.28125 C 36.912901,49.683424 39.022934,51.331169 41.125,52.875 L 37.46875,106.9375 C 44.328524,116.51228 55.125096,119.08372 66.21875,120.59375 C 66.923004,120.4652 66.421813,119.89556 66.6875,119.34375 C 67.654547,119.17095 68.65786,118.96857 69.65625,118.78125 L 70.0625,119.8125 L 70.4375,119.71875 L 70.65625,118.59375 C 71.888,118.35818 73.128542,118.10217 74.375,117.84375 L 74.84375,119.09375 L 75.21875,119.0625 L 75.375,117.65625 C 76.429195,117.4323 77.458528,117.17857 78.5,116.9375 L 78.875,118.21875 L 79.3125,118.1875 L 79.5,116.71875 C 80.531943,116.47252 81.565011,116.23276 82.5625,115.96875 C 82.578389,116.0943 83.125,117.09375 83.125,117.09375 L 83.375,117.03125 C 83.375,117.03125 83.550922,115.87327 83.53125,115.71875 C 84.506759,115.45089 85.454836,115.16108 86.375,114.875 C 86.392137,115.00191 86.527661,115.51714 86.6875,115.75 C 90.340046,114.48707 94.025222,110.83631 96.6875,107.84375 L 91.21875,52.375 C 93.007936,50.935654 94.43867,49.241304 95.34375,47.28125 C 95.533052,38.66126 95.072917,31.989583 94.9375,24.34375 C 94.867662,21.634412 93.949881,18.822053 92.3125,16.34375 C 90.221671,13.513189 88.304431,12.813322 86.375,11.34375 L 81.03125,13.21875 L 80.96875,16.5 C 79.468213,15.713859 78.519008,13.941318 76.125,14.71875 L 76.09375,12.84375 L 73.09375,7.1875 C 70.614154,6.799076 68.123899,6.701847 65.625,6.71875 z M 66.40625,7.21875 C 68.59128,7.203312 70.762721,7.396711 72.84375,7.875 L 75.09375,12.25 C 71.216979,11.488066 66.734578,10.359215 61.71875,11.65625 L 59.9375,7.875 C 62.022599,7.458461 64.22122,7.234188 66.40625,7.21875 z M 58.9375,7.8125 L 61.21875,11.59375 L 61.9375,16.5625 L 59.21875,13.6875 L 58.9375,7.8125 z M 48.9375,9.46875 L 52.46875,13.375 C 48.720886,14.415478 45.618508,15.513906 43.03125,19.21875 L 37.875,16.6875 C 40.584916,13.302446 44.578391,11.200716 48.9375,9.46875 z M 65.96875,11.96875 C 66.372985,11.952631 66.764732,11.961323 67.15625,11.96875 C 69.96145,12.021962 72.491994,12.6567 75.15625,13.15625 L 75.5625,17.375 C 77.862729,18.15078 80.185497,18.866452 82,20.9375 L 81.53125,14.0625 C 83.648957,15.54116 85.449826,17.527093 86.3125,19.125 C 87.241407,20.84559 87.430965,22.607972 86.8125,24.5625 L 86.65625,28.46875 C 80.885252,21.646107 72.453921,19.495382 63.90625,20.5 C 57.689689,21.530048 51.074607,23.506584 46.59375,28.1875 L 43.71875,26.40625 L 43.53125,25.75 L 43.34375,20.46875 C 45.645829,16.68188 49.169489,15.319039 53.21875,14.15625 L 53.8125,19.46875 C 55.692458,19.529597 57.760938,19.590104 62.71875,18 L 62.125,12.53125 C 63.477206,12.193115 64.756046,12.017108 65.96875,11.96875 z M 86.21875,11.96875 C 88.162849,13.388602 90.369712,14.750251 91.8125,16.46875 C 93.228995,18.155932 94.281191,20.869137 94.3125,23.75 L 87.84375,24.15625 C 88.276571,22.230278 87.924747,20.556635 87,18.84375 C 86.077905,17.135779 84.083218,15.131345 82.03125,13.65625 L 86.21875,11.96875 z M 58.78125,14 L 61.4375,17.4375 C 59.511232,18.20573 56.897552,19.470877 54.46875,19.21875 L 54.1875,15.40625 C 55.852738,15.465486 57.362521,14.863158 58.78125,14 z M 76.6875,15.3125 C 78.813787,15.189584 80.216774,16.768464 80.96875,17.5625 L 80.9375,18.96875 C 79.594492,18.064366 77.80698,17.509098 76.1875,17.09375 L 76.15625,15.375 C 76.339771,15.340626 76.513457,15.322561 76.6875,15.3125 z M 37.4375,17.625 L 42.34375,20 L 42.5,25.03125 C 41.013795,24.727196 39.597682,24.598373 37.71875,23.3125 L 37.4375,17.625 z M 66.125,20.75 C 71.933562,20.619809 83.493818,22.779057 86.625,29.625 C 86.672812,30.40791 86.121014,30.682882 85.65625,31.1875 L 83.5,26.8125 C 80.650816,28.457356 77.619412,29.531048 74.5,30.28125 C 74.487183,30.275284 73.077376,29.644355 72.5,29.375 L 75,27.46875 C 75.64495,27.848434 77.03125,28.65625 77.03125,28.65625 L 77.21875,28.09375 C 77.21875,28.09375 76.445987,27.753879 75.34375,27.21875 L 76.375,26.40625 L 76.1875,26.0625 L 74.9375,27 C 74.169609,26.619882 73.305585,26.184682 72.375,25.65625 C 72.686158,25.477067 73.006705,25.292913 73.3125,25.125 L 73,24.8125 C 72.635518,24.995156 72.26694,25.18048 71.90625,25.375 C 70.997444,24.792498 70.148588,24.158195 69.28125,23.59375 L 70.6875,22.8125 L 69.78125,22.875 L 68.90625,23.34375 C 68.14066,22.879636 67.332678,22.494119 66.40625,22.3125 L 66.09375,22.5 C 66.847806,22.861321 67.577008,23.257784 68.3125,23.65625 L 64.5625,25.625 C 63.376009,25.05794 62.375588,24.573225 61.9375,24.34375 L 61.84375,24.59375 C 62.204902,24.782925 63.358688,25.344545 64.21875,25.78125 L 59.46875,28.28125 C 57.755692,27.583749 56.290886,26.991895 55.8125,26.8125 L 55.625,27.1875 C 55.913315,27.295618 57.72823,28.098619 58.875,28.59375 L 55.375,30.4375 L 53.1875,29.375 L 52.9375,29.65625 L 54.96875,30.65625 L 54,31.15625 L 54.71875,31.53125 L 55.6875,31 L 60.03125,33.125 C 59.607988,33.405571 59.167618,33.704215 58.75,33.96875 L 58.6875,34.34375 C 59.251265,34.015411 59.822948,33.674453 60.40625,33.3125 L 64.03125,35.09375 L 63.1875,35.71875 L 63.65625,36.125 L 64.625,35.375 L 65.59375,35.84375 L 65.8125,35.5 L 65.4375,39.28125 C 62.531654,39.263573 60.584812,39.477731 57.40625,38.25 L 56.78125,32.09375 C 52.750814,31.358901 49.035202,29.898206 47.09375,28.65625 C 51.465392,24.245152 58.065248,21.950268 64.03125,20.9375 C 64.585046,20.83199 65.295205,20.768599 66.125,20.75 z M 68.75,23.875 C 69.725187,24.411547 70.690641,24.978947 71.65625,25.53125 C 70.566533,26.12826 69.493351,26.765483 68.4375,27.4375 C 67.283401,26.894434 66.124353,26.365782 65.09375,25.875 L 68.75,23.875 z M 37.5,24.3125 L 42.5,26.09375 L 42.78125,26.75 L 38.0625,28.40625 L 37.25,31.34375 C 36.98848,29.581807 36.907042,26.080545 37.5,24.3125 z M 94.4375,24.34375 L 94.46875,30.5 L 87.53125,29.4375 L 87.75,24.8125 L 94.4375,24.34375 z M 72.15625,25.8125 C 73.421906,26.540982 73.737361,26.728527 74.625,27.25 L 72.0625,29.15625 C 71.034058,28.676162 70.611725,28.461402 69.03125,27.71875 C 70.090116,27.042204 71.134589,26.406943 72.15625,25.8125 z M 64.75,26.0625 C 66.044771,26.718546 66.517111,26.956359 68.03125,27.71875 C 66.743962,28.549367 65.488838,29.391685 64.25,30.25 C 63.775774,30.050243 63.494096,29.963494 62.9375,29.71875 C 61.960728,29.289248 61.075629,28.941474 60.15625,28.5625 L 64.75,26.0625 z M 44.21875,27.28125 C 46.074563,29.53571 49.331388,31.333883 54.875,32.5 L 50.78125,35.4375 C 46.78564,34.114939 42.113583,34.424566 39.03125,29.125 L 44.21875,27.28125 z M 83.3125,27.53125 L 85.46875,32.96875 C 79.719208,34.601264 74.272625,36.903376 68.1875,36.71875 L 66.90625,32.0625 C 71.876586,31.603254 77.751734,30.456322 83.3125,27.53125 z M 68.59375,28 C 69.932757,28.673833 70.70525,29.069467 71.5625,29.5 L 69.15625,31.28125 C 68.542688,31.368147 67.929048,31.426007 67.3125,31.5 C 66.873232,31.337976 66.027433,30.998185 64.75,30.46875 C 66.026742,29.62521 67.321347,28.819255 68.59375,28 z M 59.5625,28.875 C 60.782227,29.404204 61.330912,29.639745 62.71875,30.25 C 63.090646,30.413529 63.364329,30.521458 63.6875,30.65625 C 62.588911,31.419076 61.499526,32.131921 60.4375,32.84375 L 56.09375,30.78125 L 59.5625,28.875 z M 72,29.71875 C 72.389424,29.914288 73.439627,30.438341 73.5625,30.5 C 72.446203,30.744458 71.321954,30.947633 70.1875,31.125 L 72,29.71875 z M 38.25,29.96875 C 41.045552,33.748106 46.01939,34.777514 50.21875,36.3125 L 50.375,42.625 C 53.968396,43.771603 55.957699,44.639926 67.75,44.9375 L 68.3125,37.75 C 74.768853,37.902398 80.389505,35.372639 86.15625,33.78125 L 86.875,40.78125 C 90.166294,38.64644 93.14967,36.798488 94.84375,33.21875 C 95.211477,37.70073 94.739859,42.300483 94.375,46.9375 C 88.414578,56.578982 75.992592,58.396101 65.65625,58.53125 C 55.553283,58.01046 43.051844,56.099075 36.78125,47.09375 C 36.33354,41.476754 35.452809,35.791667 36.59375,31.65625 L 37.4375,33.6875 L 38.25,29.96875 z M 87.5625,30.1875 L 94.625,31.3125 C 94.056089,35.158368 90.414027,37.695717 87.46875,39.8125 L 86.78125,33.5625 L 86.125,32.09375 C 87.011895,31.708902 87.242062,31.015298 87.5625,30.1875 z M 64.1875,30.84375 C 65.171525,31.242637 65.791725,31.497015 66.28125,31.65625 C 66.239951,31.660809 66.197557,31.651732 66.15625,31.65625 L 65.96875,33.625 L 64.4375,34.78125 L 60.8125,33.03125 C 61.913124,32.340615 63.048626,31.594525 64.1875,30.84375 z M 66.625,32.59375 L 67.71875,37.34375 L 67.21875,43.53125 L 66.125,39.5 L 66.625,32.59375 z M 56.1875,32.8125 L 56.6875,38.34375 L 51.21875,41.625 L 51.21875,36.34375 L 56.1875,32.8125 z M 65.90625,34.40625 L 65.8125,35.40625 L 65.0625,35.0625 L 65.90625,34.40625 z M 57.15625,38.90625 C 60.514991,40.183605 62.658209,40.253627 65.59375,40.28125 L 66.28125,44 C 61.244354,44.218592 55.849893,44.081019 51.25,42.21875 L 57.15625,38.90625 z M 90.28125,53.0625 C 92.532045,71.174592 94.556275,89.409664 95.65625,107.6875 C 95.273393,108.1552 94.859603,108.58923 94.4375,109.03125 L 93.90625,106.78125 C 93.306971,107.32867 92.69303,107.78463 92.09375,108.21875 L 91.15625,106 L 88.40625,107.53125 L 85.5,97.53125 C 83.04849,95.237809 80.503433,93.901344 77.875,92.84375 L 77.8125,88.5 L 74.875,88.4375 L 74.3125,85.3125 L 68.75,86.6875 L 69.75,89.8125 L 67.15625,91.09375 L 69.1875,93.78125 C 67.105253,95.772137 65.355055,98.06073 63.75,100.5 C 62.97879,104.68015 62.640372,108.91076 62.40625,113.15625 L 58.75,112.25 L 58.53125,115.25 C 57.395852,115.00138 56.244753,114.686 55.09375,114.34375 L 54.6875,117.84375 C 47.327854,115.49275 40.917194,110.987 38.46875,106.8125 C 39.221443,88.72749 40.342651,70.888156 42.09375,53.46875 C 49.195973,57.560364 57.509502,58.605974 65.5625,58.96875 C 74.114476,59.021384 83.022509,57.87398 90.28125,53.0625 z M 83.65625,66.0625 C 81.927176,67.7836 81.211581,70.435884 80.84375,72.875 L 81.8125,81.78125 L 79.5625,82.84375 L 80.34375,86.5625 C 81.895588,86.417591 83.257341,85.821014 84.53125,85.0625 L 85.3125,87.625 C 85.261935,88.188812 90.015702,86.610966 92.1875,84.4375 L 91.34375,81.46875 L 93.125,79.84375 L 92.0625,75.25 L 90.0625,76.5 L 88.9375,67.34375 C 87.31596,66.289798 85.546848,66.060954 83.65625,66.0625 z M 52.09375,66.90625 C 50.366115,67.939595 49.472229,66.332732 46.84375,70.21875 L 46.5,78.40625 C 45.765044,78.096518 45.025669,77.768329 44.3125,77.40625 L 43.875,81.9375 C 44.795062,82.658495 44.593991,83.103938 46.875,83.84375 L 46.625,86.71875 C 48.831967,87.782616 51.355943,88.529473 54.3125,88.84375 L 54.25,85.75 C 55.718071,86.079022 57.207855,86.31681 58.75,86.3125 L 59.15625,82.4375 C 58.363393,82.338606 57.578713,82.207971 56.8125,82.0625 L 56.6875,72.09375 C 55.93835,69.692018 54.156294,68.195315 52.09375,66.90625 z M 85.65625,67.03125 C 86.840835,67.045226 86.95745,67.481024 88.03125,68.03125 L 89.46875,76.65625 C 88.667955,77.47394 87.85269,78.272336 86.5625,78.4375 L 85.65625,67.03125 z M 50.78125,67.9375 C 51.411205,71.822917 51.105201,75.708333 50.9375,79.59375 C 49.564055,79.746113 48.552608,78.993479 47.5,78.34375 L 47.84375,70.46875 C 48.727842,69.43485 49.432427,68.041937 50.78125,67.9375 z M 82.9375,68.34375 L 85.65625,79 C 84.706073,80.342863 83.505237,80.432433 82.40625,81.03125 L 81.84375,72.875 L 81.84375,72.84375 C 81.83249,70.922019 81.964322,69.959949 82.9375,68.34375 z M 52.96875,68.5 C 54.421619,69.378361 54.981198,70.447789 55.6875,72.21875 L 55.8125,81.375 C 54.27933,81.358007 53.120325,80.592683 51.90625,79.9375 C 52.067741,76.04793 52.019356,72.074409 52.96875,68.5 z M 91.875,75.71875 L 92.5625,79.625 C 92.059364,80.364296 91.562338,81.059778 90.78125,81.28125 C 90.050667,81.488402 89.234544,81.63256 88.40625,81.90625 L 87.40625,79.34375 C 88.404552,78.684839 89.300268,77.908857 90.03125,76.90625 L 91.875,75.71875 z M 44.78125,78 C 46.328675,78.749101 48.524791,80.246641 50.3125,80.5 C 50.407893,80.5362 50.497941,80.590049 50.59375,80.625 L 50.125,83.96875 C 48.367391,83.41017 45.979018,83.145491 44.34375,81.96875 L 44.78125,78 z M 86.9375,79.65625 L 87.8125,82.03125 C 85.688419,83.442444 83.186764,85.695715 80.65625,86.15625 L 79.90625,83.125 C 82.034227,81.986961 84.262876,81.539638 86.40625,79.96875 C 86.589208,79.867634 86.759493,79.763731 86.9375,79.65625 z M 51.15625,80.84375 C 51.606956,80.995598 52.072113,81.123447 52.53125,81.25 C 54.472225,82.129171 56.743651,82.55816 58.59375,82.84375 L 58.25,85.625 C 55.949773,85.524663 52.893556,84.725672 50.59375,84.09375 L 51.15625,80.84375 z M 90.90625,81.875 L 91.25,83.875 C 90.608989,85.309853 88.220377,86.93056 85.59375,87.25 L 84.90625,84.8125 C 86.037131,84.101129 87.115825,83.297021 88.21875,82.53125 L 88.28125,82.5 L 88.28125,82.53125 C 89.048585,82.240435 89.964368,82.142064 90.90625,81.875 z M 47.3125,83.96875 C 48.065585,84.195823 49.004649,84.453009 50.3125,84.75 C 51.469755,85.044293 52.619728,85.349905 53.78125,85.625 L 53.9375,88.375 C 51.946407,88.061564 48.929835,87.315923 47.0625,86.46875 L 47.3125,83.96875 z M 73.84375,85.9375 L 74.5,88.6875 L 74.5,88.875 L 74.5625,88.875 L 75.28125,91.875 C 74.425041,91.574264 73.559311,91.276836 72.6875,90.96875 C 72.236698,91.260295 71.797855,91.58791 71.375,91.90625 L 69.5,87.09375 L 73.84375,85.9375 z M 74.96875,88.90625 L 77.28125,88.96875 L 77.40625,92.65625 C 76.786341,92.41522 76.160018,92.191172 75.53125,91.96875 L 74.96875,88.90625 z M 69.9375,90.3125 L 70.625,92.46875 C 70.223583,92.796983 69.846737,93.149395 69.46875,93.5 L 67.75,91.25 L 69.9375,90.3125 z M 72.90625,91.5625 C 72.937816,91.556689 72.968595,91.567025 73,91.5625 C 79.288371,93.094256 81.5643,95.716024 85.1875,97.96875 C 86.724504,102.95055 88.326784,108.11151 89.0625,113.40625 C 88.518697,113.75221 87.976486,114.08709 87.40625,114.40625 L 83.4375,99.15625 C 80.911078,96.05635 77.307741,94.7443 73.65625,93.46875 C 70.285475,95.368896 68.297928,97.93739 66.9375,101.5 L 65.5,119.46875 C 64.698974,119.49598 63.902256,119.48195 63.09375,119.4375 C 62.896405,113.14486 63.033977,106.97964 64.125,100.75 C 66.384004,97.01841 69.669725,93.786832 72.84375,91.59375 C 72.866096,91.588975 72.883946,91.566606 72.90625,91.5625 z M 73.78125,94.59375 C 74.670157,94.964211 75.566837,95.185382 76.4375,95.40625 L 76.6875,98.0625 C 75.778793,98.14491 74.873929,98.26093 73.96875,98.375 L 73.6875,94.71875 L 73.59375,94.71875 C 73.656309,94.675498 73.718528,94.637436 73.78125,94.59375 z M 72.71875,95.34375 L 72.96875,98.46875 C 71.728158,98.61695 70.423844,98.78745 69.90625,98.84375 L 69.875,97.8125 C 70.713731,96.79421 71.691547,96.05972 72.71875,95.34375 z M 77.46875,95.6875 C 77.777631,95.774294 78.077376,95.862333 78.375,95.96875 C 79.246788,96.28046 80.071467,96.70649 80.84375,97.40625 C 79.812322,97.64236 78.811752,97.866 77.6875,97.9375 L 77.46875,95.6875 z M 81.40625,98 C 81.781823,98.42798 82.148763,98.91556 82.5,99.53125 L 83.03125,101.53125 L 81.8125,101.65625 C 81.790269,101.46057 81.771061,101.18631 81.75,101 C 81.642422,100.04835 81.531194,99.22299 81.46875,98.59375 C 81.437464,98.27848 81.421882,98.20474 81.40625,98 z M 80.46875,98.59375 C 80.473006,98.63764 80.464148,98.64112 80.46875,98.6875 C 80.531984,99.3247 80.642131,100.17078 80.75,101.125 C 80.771215,101.31267 80.790128,101.58487 80.8125,101.78125 L 78.09375,102.09375 L 77.78125,98.9375 C 78.920008,98.7979 80.140162,98.63479 80.46875,98.59375 z M 76.78125,99.03125 L 77.09375,102.21875 L 74.25,102.5625 L 74.03125,99.375 C 74.949171,99.2701 75.865324,99.15177 76.78125,99.03125 z M 68.9375,99.21875 L 69.0625,103.15625 L 67.75,103.3125 L 67.90625,101.75 C 68.179797,100.75182 68.54214,99.93413 68.9375,99.21875 z M 73.03125,99.5 L 73.25,102.65625 L 70.0625,103.03125 L 69.9375,99.84375 C 70.482533,99.78629 71.802673,99.64573 73.03125,99.5 z M 83.28125,102.5 L 84.15625,105.90625 L 82.375,106.28125 C 82.222477,105.00023 82.069455,103.80821 81.9375,102.65625 L 83.28125,102.5 z M 80.9375,102.78125 C 81.072414,103.95251 81.218942,105.16506 81.375,106.46875 L 78.5625,107.03125 L 78.1875,103.09375 L 80.9375,102.78125 z M 77.1875,103.21875 L 77.5625,107.21875 L 74.65625,107.78125 L 74.34375,103.5625 L 77.1875,103.21875 z M 73.34375,103.6875 L 73.65625,107.96875 L 70.28125,108.625 L 70.125,104.0625 L 73.34375,103.6875 z M 69.125,104.1875 L 69.28125,108.84375 L 67.21875,109.25 L 67.6875,104.34375 L 69.125,104.1875 z M 90.5,106.8125 L 91.25,108.8125 C 90.552471,109.28103 89.853779,109.70837 89.15625,110.15625 L 88.5,107.84375 L 88.53125,107.875 L 90.5,106.8125 z M 84.40625,106.90625 L 85.5,111 L 83,111.5 C 82.826835,110.0933 82.652703,108.68625 82.46875,107.28125 L 84.40625,106.90625 z M 93.59375,107.40625 L 94.125,109.375 C 92.875377,110.63586 91.465367,111.80227 89.9375,112.84375 L 89.28125,110.53125 C 90.755484,109.664 92.230079,108.82632 93.59375,107.40625 z M 81.5,107.46875 C 81.655107,108.87744 81.850019,110.2819 82.03125,111.6875 L 79.0625,112.28125 L 78.65625,108.03125 L 81.5,107.46875 z M 77.65625,108.21875 L 78.0625,112.46875 L 75.03125,113.0625 L 74.71875,108.78125 L 77.65625,108.21875 z M 73.71875,108.96875 L 74.03125,113.28125 L 70.46875,114 L 70.3125,109.625 L 73.71875,108.96875 z M 69.3125,109.84375 L 69.5,114.1875 L 66.6875,114.75 L 67.25,110.40625 L 69.3125,109.84375 z M 85.75,111.96875 L 86.25,113.84375 C 85.334061,114.13093 84.383195,114.41725 83.40625,114.6875 C 83.347202,114.22208 83.224922,113.2947 83.125,112.5 L 85.75,111.96875 z M 82.15625,112.6875 C 82.258749,113.5062 82.380036,114.5134 82.4375,114.96875 C 81.455008,115.23063 80.42595,115.47333 79.40625,115.71875 L 79.15625,113.28125 L 82.15625,112.6875 z M 59.1875,112.875 L 62.375,113.65625 C 62.337238,114.36528 62.283961,115.07224 62.25,115.78125 C 61.179279,115.72547 60.098611,115.56687 59,115.34375 L 59.1875,112.875 z M 78.15625,113.5 L 78.40625,115.9375 C 77.378196,116.17757 76.355473,116.40128 75.3125,116.625 L 75.125,114.09375 L 78.15625,113.5 z M 74.125,114.3125 L 74.3125,116.84375 C 73.074193,117.10286 71.850848,117.35747 70.625,117.59375 L 70.53125,115.03125 L 74.125,114.3125 z M 55.46875,114.875 C 57.72627,115.63802 59.992479,116.05591 62.25,116.375 C 62.203439,117.36219 62.141504,118.358 62.09375,119.34375 C 59.792003,119.13855 57.477236,118.67385 55.25,118 L 55.46875,114.875 z M 69.53125,115.21875 L 69.625,117.78125 C 68.55254,117.98385 67.4738,118.18999 66.4375,118.375 C 66.403738,118.38103 66.375141,118.39594 66.34375,118.40625 L 66.5,115.875 L 69.53125,115.21875 z"
       id="path2312" />
  </g>
</svg>
