<?xml version="1.0" encoding="UTF-8" standalone="no"?>
<!-- Created with Inkscape (http://www.inkscape.org/) -->
<svg
   xmlns:dc="http://purl.org/dc/elements/1.1/"
   xmlns:cc="http://creativecommons.org/ns#"
   xmlns:rdf="http://www.w3.org/1999/02/22-rdf-syntax-ns#"
   xmlns:svg="http://www.w3.org/2000/svg"
   xmlns="http://www.w3.org/2000/svg"
   xmlns:xlink="http://www.w3.org/1999/xlink"
   xmlns:sodipodi="http://sodipodi.sourceforge.net/DTD/sodipodi-0.dtd"
   xmlns:inkscape="http://www.inkscape.org/namespaces/inkscape"
   width="128"
   height="128"
   id="svg2"
   sodipodi:version="0.32"
   inkscape:version="0.45+devel"
   version="1.0"
   sodipodi:docname="townhall.svg"
   inkscape:output_extension="org.inkscape.output.svg.inkscape">
  <defs
     id="defs4">
    <linearGradient
       id="linearGradient2338">
      <stop
         style="stop-color:#b1b1b1;stop-opacity:1;"
         offset="0"
         id="stop2340" />
      <stop
         style="stop-color:#e4e4e4;stop-opacity:1;"
         offset="1"
         id="stop2342" />
    </linearGradient>
    <linearGradient
       id="linearGradient2320">
      <stop
         style="stop-color:#6a3c1d;stop-opacity:1;"
         offset="0"
         id="stop2322" />
      <stop
         style="stop-color:#8f5127;stop-opacity:1;"
         offset="1"
         id="stop2324" />
    </linearGradient>
    <linearGradient
       id="linearGradient3193">
      <stop
         id="stop3195"
         offset="0"
         style="stop-color:#c2a05c;stop-opacity:1;" />
      <stop
         id="stop3197"
         offset="1"
         style="stop-color:#d6be91;stop-opacity:1;" />
    </linearGradient>
    <linearGradient
       inkscape:collect="always"
       xlink:href="#linearGradient2338"
       id="linearGradient2503"
       x1="19.545946"
       y1="93.924324"
       x2="38.659458"
       y2="112.77838"
       gradientUnits="userSpaceOnUse"
       gradientTransform="translate(2.2486486,0.172973)" />
    <linearGradient
       inkscape:collect="always"
       xlink:href="#linearGradient2338"
       id="linearGradient2507"
       x1="58.983784"
       y1="116.15135"
       x2="72.908112"
       y2="91.935135"
       gradientUnits="userSpaceOnUse"
       gradientTransform="translate(2.2486486,0.172973)" />
    <linearGradient
       inkscape:collect="always"
       xlink:href="#linearGradient2338"
       id="linearGradient2511"
       x1="18.594595"
       y1="59.848648"
       x2="50.508106"
       y2="102.31351"
       gradientUnits="userSpaceOnUse"
       gradientTransform="translate(2.2486486,0.172973)" />
    <linearGradient
       inkscape:collect="always"
       xlink:href="#linearGradient2338"
       id="linearGradient2517"
       x1="32.951351"
       y1="31.394594"
       x2="52.929729"
       y2="60.972973"
       gradientUnits="userSpaceOnUse"
       gradientTransform="translate(2.2486486,0.172973)" />
    <linearGradient
       inkscape:collect="always"
       xlink:href="#linearGradient2338"
       id="linearGradient2521"
       x1="59.935135"
       y1="103.43784"
       x2="103.00541"
       y2="70.918922"
       gradientUnits="userSpaceOnUse"
       gradientTransform="translate(2.2486486,0.172973)" />
    <linearGradient
       inkscape:collect="always"
       xlink:href="#linearGradient2338"
       id="linearGradient2525"
       x1="64"
       y1="122.37838"
       x2="88.648651"
       y2="105.34054"
       gradientUnits="userSpaceOnUse"
       gradientTransform="translate(2.2486486,0.172973)" />
    <linearGradient
       inkscape:collect="always"
       xlink:href="#linearGradient2338"
       id="linearGradient2529"
       x1="103.78379"
       y1="110.7027"
       x2="116.4973"
       y2="98.075676"
       gradientUnits="userSpaceOnUse"
       gradientTransform="translate(2.2486486,0.172973)" />
    <linearGradient
       inkscape:collect="always"
       xlink:href="#linearGradient2338"
       id="linearGradient2533"
       x1="61.606678"
       y1="61.973904"
       x2="86.620583"
       y2="40.23037"
       gradientUnits="userSpaceOnUse"
       gradientTransform="translate(2.2486486,0.172973)" />
    <linearGradient
       inkscape:collect="always"
       xlink:href="#linearGradient2338"
       id="linearGradient2537"
       x1="98.84375"
       y1="102.75"
       x2="104.84375"
       y2="112.8125"
       gradientUnits="userSpaceOnUse"
       gradientTransform="translate(2.2486486,0.172973)" />
    <linearGradient
       inkscape:collect="always"
       xlink:href="#linearGradient2338"
       id="linearGradient2541"
       x1="82.53125"
       y1="106.25"
       x2="82.125"
       y2="104.84375"
       gradientUnits="userSpaceOnUse"
       gradientTransform="translate(2.2486486,0.172973)" />
    <linearGradient
       inkscape:collect="always"
       xlink:href="#linearGradient2338"
       id="linearGradient2545"
       gradientUnits="userSpaceOnUse"
       x1="82.53125"
       y1="106.25"
       x2="82.125"
       y2="104.84375"
       gradientTransform="translate(3.8423986,2.922973)" />
    <linearGradient
       inkscape:collect="always"
       xlink:href="#linearGradient2338"
       id="linearGradient2549"
       gradientUnits="userSpaceOnUse"
       gradientTransform="translate(5.2798986,5.047973)"
       x1="82.53125"
       y1="106.25"
       x2="82.125"
       y2="104.84375" />
    <linearGradient
       inkscape:collect="always"
       xlink:href="#linearGradient2338"
       id="linearGradient2553"
       gradientUnits="userSpaceOnUse"
       gradientTransform="translate(6.6861486,7.297973)"
       x1="82.53125"
       y1="106.25"
       x2="82.125"
       y2="104.84375" />
    <linearGradient
       inkscape:collect="always"
       xlink:href="#linearGradient2338"
       id="linearGradient2557"
       gradientUnits="userSpaceOnUse"
       gradientTransform="translate(8.1861486,9.391723)"
       x1="82.53125"
       y1="106.25"
       x2="82.125"
       y2="104.84375" />
    <linearGradient
       inkscape:collect="always"
       xlink:href="#linearGradient2338"
       id="linearGradient2561"
       x1="83.34375"
       y1="107.53125"
       x2="83.03125"
       y2="106.59375"
       gradientUnits="userSpaceOnUse"
       gradientTransform="translate(2.2486486,0.172973)" />
    <linearGradient
       inkscape:collect="always"
       xlink:href="#linearGradient2338"
       id="linearGradient2565"
       gradientUnits="userSpaceOnUse"
       x1="83.34375"
       y1="107.53125"
       x2="83.03125"
       y2="106.59375"
       gradientTransform="translate(3.4986486,2.610473)" />
    <linearGradient
       inkscape:collect="always"
       xlink:href="#linearGradient2338"
       id="linearGradient2569"
       gradientUnits="userSpaceOnUse"
       gradientTransform="translate(4.9361486,5.110473)"
       x1="83.34375"
       y1="107.53125"
       x2="83.03125"
       y2="106.59375" />
    <linearGradient
       inkscape:collect="always"
       xlink:href="#linearGradient2338"
       id="linearGradient2573"
       gradientUnits="userSpaceOnUse"
       gradientTransform="translate(6.3423986,6.954223)"
       x1="83.34375"
       y1="107.53125"
       x2="83.03125"
       y2="106.59375" />
    <linearGradient
       id="linearGradient3462">
      <stop
         style="stop-color:#4f0000;stop-opacity:1;"
         offset="0"
         id="stop3464" />
      <stop
         style="stop-color:#610000;stop-opacity:1;"
         offset="1"
         id="stop3466" />
    </linearGradient>
    <linearGradient
       id="linearGradient2404">
      <stop
         id="stop2406"
         offset="0"
         style="stop-color:#b49900;stop-opacity:1;" />
      <stop
         style="stop-color:#ffda0a;stop-opacity:1;"
         offset="0.5"
         id="stop2412" />
      <stop
         id="stop2408"
         offset="1"
         style="stop-color:#c6a800;stop-opacity:1;" />
    </linearGradient>
    <linearGradient
       id="linearGradient3098">
      <stop
         id="stop3100"
         offset="0"
         style="stop-color:#9e2612;stop-opacity:1;" />
      <stop
         id="stop3102"
         offset="1"
         style="stop-color:#bd5032;stop-opacity:1;" />
    </linearGradient>
    <linearGradient
       id="linearGradient3108">
      <stop
         id="stop3110"
         offset="0"
         style="stop-color:#c223c2;stop-opacity:1;" />
      <stop
         id="stop3112"
         offset="1"
         style="stop-color:#ff00dc;stop-opacity:1;" />
    </linearGradient>
    <linearGradient
       inkscape:collect="always"
       xlink:href="#linearGradient3462"
       id="linearGradient3106"
       x1="84.0578"
       y1="103.38504"
       x2="87.971725"
       y2="97.850494"
       gradientUnits="userSpaceOnUse"
       gradientTransform="translate(2.2486486,0.172973)" />
    <linearGradient
       inkscape:collect="always"
       xlink:href="#linearGradient3462"
       id="linearGradient3110"
       x1="86.442848"
       y1="105.15854"
       x2="86.504005"
       y2="103.41562"
       gradientUnits="userSpaceOnUse"
       gradientTransform="translate(2.2486486,0.172973)" />
    <linearGradient
       inkscape:collect="always"
       xlink:href="#linearGradient3462"
       id="linearGradient3115"
       gradientUnits="userSpaceOnUse"
       x1="86.442848"
       y1="105.15854"
       x2="86.473427"
       y2="104.08833"
       gradientTransform="translate(4.0221489,2.8943786)" />
    <linearGradient
       inkscape:collect="always"
       xlink:href="#linearGradient3462"
       id="linearGradient3119"
       gradientUnits="userSpaceOnUse"
       gradientTransform="translate(5.3981405,5.0653875)"
       x1="86.442848"
       y1="105.15854"
       x2="86.473427"
       y2="103.84371" />
    <linearGradient
       inkscape:collect="always"
       xlink:href="#linearGradient3462"
       id="linearGradient3123"
       gradientUnits="userSpaceOnUse"
       gradientTransform="translate(6.9575976,7.1752412)"
       x1="86.442848"
       y1="105.15854"
       x2="86.381699"
       y2="103.96602" />
    <linearGradient
       inkscape:collect="always"
       xlink:href="#linearGradient3462"
       id="linearGradient3127"
       gradientUnits="userSpaceOnUse"
       gradientTransform="translate(8.5476323,9.4074053)"
       x1="86.442848"
       y1="105.15854"
       x2="86.473427"
       y2="103.85899" />
    <linearGradient
       inkscape:collect="always"
       xlink:href="#linearGradient3462"
       id="linearGradient3131"
       x1="86.809776"
       y1="106.04529"
       x2="88.002304"
       y2="104.18005"
       gradientUnits="userSpaceOnUse"
       gradientTransform="translate(2.2486486,0.172973)" />
    <linearGradient
       inkscape:collect="always"
       xlink:href="#linearGradient3462"
       id="linearGradient3135"
       gradientUnits="userSpaceOnUse"
       x1="86.809776"
       y1="106.04529"
       x2="88.002304"
       y2="104.18005"
       gradientTransform="translate(3.6552178,2.710913)" />
    <linearGradient
       inkscape:collect="always"
       xlink:href="#linearGradient3462"
       id="linearGradient3139"
       gradientUnits="userSpaceOnUse"
       gradientTransform="translate(5.1229421,4.9124995)"
       x1="86.809776"
       y1="106.04529"
       x2="88.002304"
       y2="104.18005" />
    <linearGradient
       inkscape:collect="always"
       xlink:href="#linearGradient3462"
       id="linearGradient3143"
       gradientUnits="userSpaceOnUse"
       gradientTransform="translate(6.5295113,7.114086)"
       x1="86.809776"
       y1="106.04529"
       x2="88.002304"
       y2="104.18005" />
    <linearGradient
       inkscape:collect="always"
       xlink:href="#linearGradient2404"
       id="linearGradient3147"
       x1="73.141357"
       y1="101.04156"
       x2="93.824226"
       y2="81.286758"
       gradientUnits="userSpaceOnUse"
       gradientTransform="translate(2.2486486,0.172973)" />
    <linearGradient
       inkscape:collect="always"
       xlink:href="#linearGradient2404"
       id="linearGradient3730"
       x1="75.395264"
       y1="99.538948"
       x2="82.952464"
       y2="93.395961"
       gradientUnits="userSpaceOnUse"
       gradientTransform="translate(2.2486486,0.172973)" />
    <linearGradient
       inkscape:collect="always"
       xlink:href="#linearGradient2404"
       id="linearGradient3734"
       x1="86.046059"
       y1="87.031998"
       x2="92.365822"
       y2="93.705322"
       gradientUnits="userSpaceOnUse"
       gradientTransform="translate(2.2486486,0.172973)" />
    <linearGradient
       inkscape:collect="always"
       xlink:href="#linearGradient2320"
       id="linearGradient3738"
       x1="106.28699"
       y1="83.496468"
       x2="105.93343"
       y2="84.048897"
       gradientUnits="userSpaceOnUse"
       gradientTransform="translate(2.2486486,0.172973)" />
    <linearGradient
       inkscape:collect="always"
       xlink:href="#linearGradient3193"
       id="linearGradient3742"
       x1="104.6518"
       y1="85.021164"
       x2="111.10415"
       y2="93.727417"
       gradientUnits="userSpaceOnUse"
       gradientTransform="translate(2.2486486,0.172973)" />
    <linearGradient
       inkscape:collect="always"
       xlink:href="#linearGradient2338"
       id="linearGradient3750"
       x1="18.031221"
       y1="67.63076"
       x2="21.566757"
       y2="80.889008"
       gradientUnits="userSpaceOnUse"
       gradientTransform="translate(2.2486486,0.172973)" />
    <linearGradient
       inkscape:collect="always"
       xlink:href="#linearGradient2338"
       id="linearGradient3758"
       gradientUnits="userSpaceOnUse"
       x1="18.031221"
       y1="67.63076"
       x2="21.566757"
       y2="80.889008"
       gradientTransform="translate(14.667212,8.2163127)" />
    <linearGradient
       inkscape:collect="always"
       xlink:href="#linearGradient2338"
       id="linearGradient3764"
       gradientUnits="userSpaceOnUse"
       gradientTransform="translate(27.174163,16.348041)"
       x1="18.031221"
       y1="67.63076"
       x2="21.566757"
       y2="80.889008" />
    <linearGradient
       inkscape:collect="always"
       xlink:href="#linearGradient2338"
       id="linearGradient3770"
       gradientUnits="userSpaceOnUse"
       gradientTransform="translate(20.279872,-31.514249)"
       x1="18.031221"
       y1="67.63076"
       x2="21.566757"
       y2="80.889008" />
    <linearGradient
       inkscape:collect="always"
       xlink:href="#linearGradient2338"
       id="linearGradient3776"
       gradientUnits="userSpaceOnUse"
       gradientTransform="translate(32.079716,-23.647686)"
       x1="18.031221"
       y1="67.63076"
       x2="21.566757"
       y2="80.889008" />
    <linearGradient
       inkscape:collect="always"
       xlink:href="#linearGradient2338"
       id="linearGradient3782"
       gradientUnits="userSpaceOnUse"
       gradientTransform="translate(50.110939,-17.681473)"
       x1="22.450642"
       y1="65.38076"
       x2="16.351845"
       y2="76.513786" />
    <linearGradient
       inkscape:collect="always"
       xlink:href="#linearGradient2338"
       id="linearGradient3788"
       gradientUnits="userSpaceOnUse"
       gradientTransform="translate(65.711482,-22.63122)"
       x1="22.450642"
       y1="65.38076"
       x2="16.351845"
       y2="75.764008" />
    <linearGradient
       inkscape:collect="always"
       xlink:href="#linearGradient3098"
       id="linearGradient3792"
       x1="39.8125"
       y1="47.5625"
       x2="51.375"
       y2="79.25"
       gradientUnits="userSpaceOnUse"
       gradientTransform="translate(2.2486486,0.172973)" />
    <linearGradient
       inkscape:collect="always"
       xlink:href="#linearGradient3098"
       id="linearGradient3796"
       x1="68.25"
       y1="73.625"
       x2="96.25"
       y2="61.5"
       gradientUnits="userSpaceOnUse"
       gradientTransform="translate(2.2486486,0.172973)" />
    <linearGradient
       inkscape:collect="always"
       xlink:href="#linearGradient3098"
       id="linearGradient3806"
       x1="92.125"
       y1="56.875"
       x2="94.4375"
       y2="39.9375"
       gradientUnits="userSpaceOnUse"
       gradientTransform="translate(2.2486486,0.172973)" />
    <linearGradient
       inkscape:collect="always"
       xlink:href="#linearGradient3098"
       id="linearGradient3810"
       x1="71.1875"
       y1="34.8125"
       x2="86.75"
       y2="23.1875"
       gradientUnits="userSpaceOnUse"
       gradientTransform="translate(2.2486486,0.172973)" />
    <linearGradient
       inkscape:collect="always"
       xlink:href="#linearGradient3098"
       id="linearGradient3814"
       x1="49"
       y1="16.5625"
       x2="66.5625"
       y2="42.625"
       gradientUnits="userSpaceOnUse"
       gradientTransform="translate(2.2486486,0.172973)" />
    <linearGradient
       inkscape:collect="always"
       xlink:href="#linearGradient3098"
       id="linearGradient3818"
       x1="66.875"
       y1="23.5625"
       x2="67.4375"
       y2="12.8125"
       gradientUnits="userSpaceOnUse"
       gradientTransform="translate(2.2486486,0.172973)" />
    <linearGradient
       inkscape:collect="always"
       xlink:href="#linearGradient3108"
       id="linearGradient3822"
       x1="73.625"
       y1="19.375"
       x2="75.375"
       y2="17.3125"
       gradientUnits="userSpaceOnUse"
       gradientTransform="translate(2.2486486,0.172973)" />
    <linearGradient
       inkscape:collect="always"
       xlink:href="#linearGradient2320"
       id="linearGradient3824"
       x1="17.589281"
       y1="68.304176"
       x2="19.401241"
       y2="77.471748"
       gradientUnits="userSpaceOnUse"
       gradientTransform="translate(2.2486486,0.172973)" />
    <linearGradient
       inkscape:collect="always"
       xlink:href="#linearGradient2320"
       id="linearGradient3826"
       x1="30.007845"
       y1="77.385361"
       x2="33.631767"
       y2="85.515091"
       gradientUnits="userSpaceOnUse"
       gradientTransform="translate(2.2486486,0.172973)" />
    <linearGradient
       inkscape:collect="always"
       xlink:href="#linearGradient2320"
       id="linearGradient3828"
       x1="42.514793"
       y1="86.208977"
       x2="46.138718"
       y2="93.300873"
       gradientUnits="userSpaceOnUse"
       gradientTransform="translate(2.2486486,0.172973)" />
    <linearGradient
       inkscape:collect="always"
       xlink:href="#linearGradient2320"
       id="linearGradient3830"
       x1="80.963722"
       y1="49.03352"
       x2="84.587646"
       y2="43.844334"
       gradientUnits="userSpaceOnUse"
       gradientTransform="translate(2.2486486,0.172973)" />
    <linearGradient
       inkscape:collect="always"
       xlink:href="#linearGradient2320"
       id="linearGradient3832"
       x1="65.363182"
       y1="52.945431"
       x2="68.987106"
       y2="46.891376"
       gradientUnits="userSpaceOnUse"
       gradientTransform="translate(2.2486486,0.172973)" />
    <linearGradient
       inkscape:collect="always"
       xlink:href="#linearGradient2320"
       id="linearGradient3834"
       x1="47.420349"
       y1="44.489677"
       x2="51.04427"
       y2="51.58157"
       gradientUnits="userSpaceOnUse"
       gradientTransform="translate(2.2486486,0.172973)" />
    <linearGradient
       inkscape:collect="always"
       xlink:href="#linearGradient2320"
       id="linearGradient3836"
       x1="35.620502"
       y1="36.623116"
       x2="39.244427"
       y2="43.887981"
       gradientUnits="userSpaceOnUse"
       gradientTransform="translate(2.2486486,0.172973)" />
    <linearGradient
       id="linearGradient3903">
      <stop
         style="stop-color:#b49900;stop-opacity:1;"
         offset="0"
         id="stop3905" />
      <stop
         id="stop3907"
         offset="0.5"
         style="stop-color:#ffda0a;stop-opacity:1;" />
      <stop
         style="stop-color:#c6a800;stop-opacity:1;"
         offset="1"
         id="stop3909" />
    </linearGradient>
    <linearGradient
       id="linearGradient3893">
      <stop
         id="stop3132"
         offset="0"
         style="stop-color:#8dbbdc;stop-opacity:1;" />
      <stop
         id="stop3134"
         offset="1"
         style="stop-color:#dadada;stop-opacity:1;" />
    </linearGradient>
    <linearGradient
       inkscape:collect="always"
       xlink:href="#linearGradient3893"
       id="linearGradient3953"
       x1="63.595421"
       y1="91.385124"
       x2="66.46804"
       y2="92.710953"
       gradientUnits="userSpaceOnUse"
       gradientTransform="translate(2.2486486,0.172973)" />
    <linearGradient
       inkscape:collect="always"
       xlink:href="#linearGradient3893"
       id="linearGradient3961"
       x1="65.451569"
       y1="91.020523"
       x2="64.214134"
       y2="93.274429"
       gradientUnits="userSpaceOnUse"
       gradientTransform="translate(2.2486486,0.172973)" />
    <linearGradient
       inkscape:collect="always"
       xlink:href="#linearGradient3903"
       id="linearGradient3969"
       x1="86.074211"
       y1="109.42846"
       x2="91"
       y2="107.21875"
       gradientUnits="userSpaceOnUse"
       gradientTransform="translate(2.2486486,0.172973)" />
    <linearGradient
       inkscape:collect="always"
       xlink:href="#linearGradient3903"
       id="linearGradient3973"
       gradientUnits="userSpaceOnUse"
       x1="86.074211"
       y1="109.42846"
       x2="91"
       y2="107.21875"
       gradientTransform="translate(9.8279494,-2.4786774)" />
    <filter
       inkscape:collect="always"
       id="filter3997">
      <feGaussianBlur
         inkscape:collect="always"
         stdDeviation="1.7712433"
         id="feGaussianBlur3999" />
    </filter>
  </defs>
  <sodipodi:namedview
     id="base"
     pagecolor="#ffffff"
     bordercolor="#666666"
     borderopacity="1.0"
     gridtolerance="10000"
     guidetolerance="10"
     objecttolerance="10"
     inkscape:pageopacity="0.0"
     inkscape:pageshadow="2"
     inkscape:zoom="1"
     inkscape:cx="64"
     inkscape:cy="64"
     inkscape:document-units="px"
     inkscape:current-layer="layer2"
     showgrid="false"
     width="744.09px"
     inkscape:window-width="1282"
     inkscape:window-height="975"
     inkscape:window-x="392"
     inkscape:window-y="24"
     showguides="true"
     inkscape:guide-bbox="true" />
  <metadata
     id="metadata7">
    <rdf:RDF>
      <cc:Work
         rdf:about="">
        <dc:format>image/svg+xml</dc:format>
        <dc:type
           rdf:resource="http://purl.org/dc/dcmitype/StillImage" />
      </cc:Work>
    </rdf:RDF>
  </metadata>
  <g
     inkscape:groupmode="layer"
     id="layer2"
     inkscape:label="colors">
    <path
       style="fill:#000000;fill-rule:evenodd;stroke:none;stroke-width:1px;stroke-linecap:butt;stroke-linejoin:miter;stroke-opacity:1;fill-opacity:0.66666669000000001;filter:url(#filter3997)"
       d="M 55.178378,119.6973 C 54.313514,119.00541 5.1891892,89.772973 5.1891892,89.772973 L 4.8432432,85.102703 L 11.243243,84.410811 L 5.8810811,68.151351 L 11.589189,57.254054 L 9.6864865,48.605405 L 15.221622,40.302703 L 27.675676,39.264865 L 34.075676,43.935135 L 101.53514,92.540541 L 55.178378,119.6973 z"
       id="path3975" />
    <path
       style="fill:url(#linearGradient2503);fill-opacity:1;fill-rule:evenodd;stroke:none;stroke-width:1px;stroke-linecap:butt;stroke-linejoin:miter;stroke-opacity:1"
       d="M 7.0918918,82.767568 L 7.0054054,88.648649 L 62.443244,125.83783 L 62.270271,119.69729 L 7.0918918,82.767568 z"
       id="path2501" />
    <path
       style="fill:url(#linearGradient2507);fill-opacity:1;fill-rule:evenodd;stroke:none;stroke-width:1px;stroke-linecap:butt;stroke-linejoin:miter;stroke-opacity:1"
       d="M 7.0918918,82.594595 L 62.270271,119.87027 L 87.264865,110.87567 L 81.470271,105.6 L 98.767568,99.372973 L 104.73514,104.82162 L 126.52973,97.037838 L 110.7027,86.054054 L 14.78919,79.913514 L 7.0918918,82.594595 z"
       id="path2505" />
    <path
       style="fill:url(#linearGradient2511);fill-opacity:1;fill-rule:evenodd;stroke:none;stroke-width:1px;stroke-linecap:butt;stroke-linejoin:miter;stroke-opacity:1"
       d="M 15.221622,54.832432 L 15.048649,81.816216 L 56.12973,108.97297 L 56.216217,81.124324 L 15.221622,54.832432 z"
       id="path2509" />
    <path
       style="fill:url(#linearGradient2517);fill-opacity:1;fill-rule:evenodd;stroke:none;stroke-width:1px;stroke-linecap:butt;stroke-linejoin:miter;stroke-opacity:1"
       d="M 32,24.648649 L 31.481081,44.540541 L 61.145946,65.124324 L 61.232433,43.675676 L 32,24.648649 z"
       id="path2515" />
    <path
       style="fill:url(#linearGradient2521);fill-opacity:1;fill-rule:evenodd;stroke:none;stroke-width:1px;stroke-linecap:butt;stroke-linejoin:miter;stroke-opacity:1"
       d="M 56.302703,108.88648 L 56.216217,80.951351 L 111.04865,62.010811 L 111.13513,89.686487 L 56.302703,108.88648 z"
       id="path2519"
       sodipodi:nodetypes="ccccc" />
    <path
       style="fill:url(#linearGradient2525);fill-opacity:1;fill-rule:evenodd;stroke:none;stroke-width:1px;stroke-linecap:butt;stroke-linejoin:miter;stroke-opacity:1"
       d="M 62.356757,119.69729 L 87.264865,110.78919 L 87.264865,116.84324 L 62.356757,125.92432 L 62.356757,119.69729 z"
       id="path2523" />
    <path
       style="fill:url(#linearGradient2529);fill-opacity:1;fill-rule:evenodd;stroke:none;stroke-width:1px;stroke-linecap:butt;stroke-linejoin:miter;stroke-opacity:1"
       d="M 104.73514,110.87567 L 104.73514,104.82162 L 126.7027,96.778378 L 126.96216,97.47027 L 126.87568,103.09189 L 104.73514,110.87567 z"
       id="path2527" />
    <path
       style="fill:url(#linearGradient2533);fill-opacity:1;fill-rule:evenodd;stroke:none;stroke-width:1px;stroke-linecap:butt;stroke-linejoin:miter;stroke-opacity:1"
       d="M 60.850124,64.975304 L 61.292065,43.673712 L 92.316375,33.420664 L 93.288647,53.573207 L 78.792958,54.987421 L 60.850124,64.975304 z"
       id="path2531" />
    <path
       style="fill:url(#linearGradient2537);fill-opacity:1;fill-rule:evenodd;stroke:none;stroke-width:1px;stroke-linecap:butt;stroke-linejoin:miter;stroke-opacity:1"
       d="M 98.717399,99.297973 L 98.686149,101.82922 L 100.31115,102.86047 L 100.24865,104.61047 L 101.68615,105.36047 L 101.6549,106.82922 L 103.2174,107.98547 L 103.2799,108.86047 L 104.7174,109.82922 L 104.6549,104.70422 L 98.717399,99.297973 z"
       id="path2535" />
    <path
       style="fill:url(#linearGradient2541);fill-opacity:1;fill-rule:evenodd;stroke:none;stroke-width:1px;stroke-linecap:butt;stroke-linejoin:miter;stroke-opacity:1"
       d="M 81.592399,105.64172 L 98.748649,99.360473 L 98.748649,101.73547 L 83.279899,107.29797 L 81.592399,105.64172 z"
       id="path2539" />
    <path
       id="path2543"
       d="M 84.748649,108.36047 L 100.31115,102.73547 L 100.3424,104.48547 L 85.811149,109.73547 L 84.748649,108.36047 z"
       style="fill:url(#linearGradient2545);fill-opacity:1;fill-rule:evenodd;stroke:none;stroke-width:1px;stroke-linecap:butt;stroke-linejoin:miter;stroke-opacity:1"
       sodipodi:nodetypes="ccccc" />
    <path
       style="fill:url(#linearGradient2549);fill-opacity:1;fill-rule:evenodd;stroke:none;stroke-width:1px;stroke-linecap:butt;stroke-linejoin:miter;stroke-opacity:1"
       d="M 86.936149,110.61047 L 101.6549,105.36047 L 101.6549,106.76672 L 86.967399,111.89172 L 86.936149,110.61047 z"
       id="path2547"
       sodipodi:nodetypes="ccccc" />
    <path
       id="path2551"
       d="M 87.279899,113.26672 L 103.1549,107.70422 L 103.18615,108.86047 L 87.217399,114.32922 L 87.279899,113.26672 z"
       style="fill:url(#linearGradient2553);fill-opacity:1;fill-rule:evenodd;stroke:none;stroke-width:1px;stroke-linecap:butt;stroke-linejoin:miter;stroke-opacity:1"
       sodipodi:nodetypes="ccccc" />
    <path
       style="fill:url(#linearGradient2557);fill-opacity:1;fill-rule:evenodd;stroke:none;stroke-width:1px;stroke-linecap:butt;stroke-linejoin:miter;stroke-opacity:1"
       d="M 87.186149,115.73547 L 104.62365,109.67297 L 104.68615,110.95422 L 87.436149,117.17297 L 87.186149,115.73547 z"
       id="path2555"
       sodipodi:nodetypes="ccccc" />
    <path
       style="fill:url(#linearGradient2561);fill-opacity:1;fill-rule:evenodd;stroke:none;stroke-width:1px;stroke-linecap:butt;stroke-linejoin:miter;stroke-opacity:1"
       d="M 83.342399,107.17297 L 98.717399,101.73547 L 100.31115,102.82922 L 84.467399,108.45422 L 83.342399,107.17297 z"
       id="path2559" />
    <path
       id="path2563"
       d="M 85.998649,109.70422 L 100.18615,104.61047 L 101.56115,105.26672 L 86.936149,110.64172 L 85.998649,109.70422 z"
       style="fill:url(#linearGradient2565);fill-opacity:1;fill-rule:evenodd;stroke:none;stroke-width:1px;stroke-linecap:butt;stroke-linejoin:miter;stroke-opacity:1"
       sodipodi:nodetypes="ccccc" />
    <path
       style="fill:url(#linearGradient2569);fill-opacity:1;fill-rule:evenodd;stroke:none;stroke-width:1px;stroke-linecap:butt;stroke-linejoin:miter;stroke-opacity:1"
       d="M 87.123649,111.82922 L 101.5299,106.76672 L 102.99865,107.76672 L 87.154899,113.39172 L 87.123649,111.82922 z"
       id="path2567"
       sodipodi:nodetypes="ccccc" />
    <path
       id="path2571"
       d="M 87.373649,114.29797 L 103.2174,108.79797 L 104.4049,109.61047 L 87.279899,115.70422 L 87.373649,114.29797 z"
       style="fill:url(#linearGradient2573);fill-opacity:1;fill-rule:evenodd;stroke:none;stroke-width:1px;stroke-linecap:butt;stroke-linejoin:miter;stroke-opacity:1"
       sodipodi:nodetypes="ccccc" />
    <path
       style="fill:url(#linearGradient3106);fill-opacity:1;fill-rule:evenodd;stroke:none;stroke-width:1px;stroke-linecap:butt;stroke-linejoin:miter;stroke-opacity:1"
       d="M 80.466126,100.56141 L 84.961032,104.10841 L 84.899876,104.32245 L 95.143369,100.65314 L 90.43442,96.86152 L 80.466126,100.56141 z"
       id="path3104" />
    <path
       style="fill:url(#linearGradient3110);fill-rule:evenodd;stroke:none;stroke-width:1px;stroke-linecap:butt;stroke-linejoin:miter;stroke-opacity:1"
       d="M 84.961032,104.35303 L 85.266807,106.49346 L 95.571455,102.85473 L 95.296257,100.68372 L 84.961032,104.35303 z"
       id="path3108" />
    <path
       id="path3112"
       d="M 86.734532,107.59426 L 87.040307,109.21487 L 97.344955,105.57614 L 97.130912,103.92495 C 93.62508,105.14805 90.015484,106.37116 86.734532,107.59426 z"
       style="fill:url(#linearGradient3115);fill-rule:evenodd;stroke:none;stroke-width:1px;stroke-linecap:butt;stroke-linejoin:miter;stroke-opacity:1"
       sodipodi:nodetypes="ccccc" />
    <path
       style="fill:url(#linearGradient3119);fill-rule:evenodd;stroke:none;stroke-width:1px;stroke-linecap:butt;stroke-linejoin:miter;stroke-opacity:1"
       d="M 88.23797,110.07104 L 88.416299,111.38588 L 98.720947,107.74715 L 98.720947,106.43231 L 88.23797,110.07104 z"
       id="path3117"
       sodipodi:nodetypes="ccccc" />
    <path
       id="path3121"
       d="M 89.792291,112.33378 L 89.975756,113.49573 L 100.2804,109.857 L 100.09694,108.78678 L 89.792291,112.33378 z"
       style="fill:url(#linearGradient3123);fill-rule:evenodd;stroke:none;stroke-width:1px;stroke-linecap:butt;stroke-linejoin:miter;stroke-opacity:1"
       sodipodi:nodetypes="ccccc" />
    <path
       style="fill:url(#linearGradient3127);fill-rule:evenodd;stroke:none;stroke-width:1px;stroke-linecap:butt;stroke-linejoin:miter;stroke-opacity:1"
       d="M 91.504637,114.26017 L 91.565791,115.72789 L 101.87044,112.08916 C 101.80048,111.77707 101.94052,111.49961 101.94338,111.1147 L 101.59524,110.8049 L 91.504637,114.26017 z"
       id="path3125"
       sodipodi:nodetypes="cccccc" />
    <path
       style="fill:url(#linearGradient3131);fill-opacity:1;fill-rule:evenodd;stroke:none;stroke-width:1px;stroke-linecap:butt;stroke-linejoin:miter;stroke-opacity:1"
       d="M 86.826265,107.47194 L 85.450273,106.40173 L 95.540878,102.82415 L 97.100335,104.01667 L 86.826265,107.47194 z"
       id="path3129" />
    <path
       id="path3133"
       d="M 88.232834,110.00988 L 87.193195,109.27602 L 97.069757,105.69844 L 98.506904,106.55461 L 88.232834,110.00988 z"
       style="fill:url(#linearGradient3135);fill-opacity:1;fill-rule:evenodd;stroke:none;stroke-width:1px;stroke-linecap:butt;stroke-linejoin:miter;stroke-opacity:1"
       sodipodi:nodetypes="ccccc" />
    <path
       style="fill:url(#linearGradient3139);fill-opacity:1;fill-rule:evenodd;stroke:none;stroke-width:1px;stroke-linecap:butt;stroke-linejoin:miter;stroke-opacity:1"
       d="M 89.884024,112.33378 L 88.508032,111.32473 L 98.629214,107.8083 L 99.974628,108.7562 L 89.884024,112.33378 z"
       id="path3137"
       sodipodi:nodetypes="ccccc" />
    <path
       id="path3141"
       d="M 91.412903,114.38248 L 89.914601,113.46516 L 100.15809,110.04047 L 101.56466,110.86606 L 91.412903,114.38248 z"
       style="fill:url(#linearGradient3143);fill-opacity:1;fill-rule:evenodd;stroke:none;stroke-width:1px;stroke-linecap:butt;stroke-linejoin:miter;stroke-opacity:1"
       sodipodi:nodetypes="ccccc" />
    <path
       style="fill:url(#linearGradient3147);fill-rule:evenodd;stroke:none;stroke-width:1px;stroke-linecap:butt;stroke-linejoin:miter;stroke-opacity:1"
       d="M 74.461929,102.23099 L 74.6829,88.044663 L 97.089346,80.487459 L 97.13354,94.585401 L 74.461929,102.23099 z"
       id="path3145" />
    <path
       id="path3149"
       d="M 74.461929,102.23099 L 74.6829,88.044663 L 97.089346,80.487459 L 97.13354,94.585401 L 74.461929,102.23099 z"
       style="fill:#000000;fill-opacity:0.15686275;fill-rule:evenodd;stroke:none;stroke-width:1px;stroke-linecap:butt;stroke-linejoin:miter;stroke-opacity:1" />
    <path
       style="fill:url(#linearGradient3730);fill-rule:evenodd;stroke:none;stroke-width:1px;stroke-linecap:butt;stroke-linejoin:miter;stroke-opacity:1"
       d="M 75.920337,101.61227 L 75.876143,88.928547 L 85.201113,85.525595 L 85.201113,98.739653 L 75.920337,101.61227 z"
       id="path3728" />
    <path
       style="fill:url(#linearGradient3734);fill-opacity:1;fill-rule:evenodd;stroke:none;stroke-width:1px;stroke-linecap:butt;stroke-linejoin:miter;stroke-opacity:1"
       d="M 86.526939,97.767381 L 86.350162,85.216236 L 95.675133,82.034255 L 95.940298,94.806372 L 86.526939,97.767381 z"
       id="path3732" />
    <path
       style="fill:url(#linearGradient3738);fill-opacity:1;fill-rule:evenodd;stroke:none;stroke-width:1px;stroke-linecap:butt;stroke-linejoin:miter;stroke-opacity:1"
       d="M 101.55296,77.703226 L 100.4481,78.233556 L 100.66907,79.382605 L 114.67863,89.900818 L 115.69509,90.740508 L 116.49059,90.607925 L 116.49059,89.458877 L 108.62403,83.094916 L 101.55296,77.703226 z"
       id="path3736" />
    <path
       style="fill:url(#linearGradient3742);fill-rule:evenodd;stroke:none;stroke-width:1px;stroke-linecap:butt;stroke-linejoin:miter;stroke-opacity:1"
       d="M 105.26527,83.006527 C 105.13269,83.448469 105.08849,89.370488 105.08849,89.370488 L 114.50185,95.42509 L 114.45766,89.81243 L 105.26527,83.006527 z"
       id="path3740" />
    <path
       style="fill:#000000;fill-opacity:0.15686275;fill-rule:evenodd;stroke:none;stroke-width:1px;stroke-linecap:butt;stroke-linejoin:miter;stroke-opacity:1"
       d="M 116.13704,89.2821 L 115.29735,89.635653 L 114.94379,90.033401 L 115.96026,90.784702 L 116.4464,90.519537 L 116.53478,89.679848 L 116.13704,89.2821 z"
       id="path3744" />
    <path
       id="path3746"
       d="M 98.717399,99.297973 L 98.686149,101.82922 L 100.31115,102.86047 L 100.24865,104.61047 L 101.68615,105.36047 L 101.6549,106.82922 L 103.2174,107.98547 L 103.2799,108.86047 L 104.7174,109.82922 L 104.6549,104.70422 L 98.717399,99.297973 z"
       style="fill:#000000;fill-opacity:0.15686275;fill-rule:evenodd;stroke:none;stroke-width:1px;stroke-linecap:butt;stroke-linejoin:miter;stroke-opacity:1" />
    <path
       style="fill:url(#linearGradient3750);fill-opacity:1;fill-rule:evenodd;stroke:none;stroke-width:1px;stroke-linecap:butt;stroke-linejoin:miter;stroke-opacity:1"
       d="M 18.688882,61.616547 L 18.600493,80.089712 L 24.787678,84.243964 L 24.787678,65.594023 L 18.688882,61.616547 z"
       id="path3748" />
    <path
       style="fill:url(#linearGradient3824);fill-opacity:1;fill-rule:evenodd;stroke:none;stroke-width:1px;stroke-linecap:butt;stroke-linejoin:miter;stroke-opacity:1"
       d="M 19.83793,64.091421 L 19.926319,79.11744 L 23.461852,81.857479 L 23.285076,66.654683 L 19.83793,64.091421 z"
       id="path3752" />
    <path
       id="path3754"
       d="M 31.107445,69.659887 L 31.019056,88.133052 L 37.206241,92.287304 L 37.206241,73.637363 L 31.107445,69.659887 z"
       style="fill:url(#linearGradient3758);fill-opacity:1;fill-rule:evenodd;stroke:none;stroke-width:1px;stroke-linecap:butt;stroke-linejoin:miter;stroke-opacity:1" />
    <path
       id="path3756"
       d="M 32.256493,72.134761 L 32.344882,87.16078 L 35.880415,89.900819 L 35.703639,74.698023 L 32.256493,72.134761 z"
       style="fill:url(#linearGradient3826);fill-opacity:1;fill-rule:evenodd;stroke:none;stroke-width:1px;stroke-linecap:butt;stroke-linejoin:miter;stroke-opacity:1" />
    <path
       style="fill:url(#linearGradient3764);fill-opacity:1;fill-rule:evenodd;stroke:none;stroke-width:1px;stroke-linecap:butt;stroke-linejoin:miter;stroke-opacity:1"
       d="M 43.614396,77.791615 L 43.526007,96.26478 L 49.713192,100.41903 L 49.713192,81.769091 L 43.614396,77.791615 z"
       id="path3760" />
    <path
       style="fill:url(#linearGradient3828);fill-opacity:1;fill-rule:evenodd;stroke:none;stroke-width:1px;stroke-linecap:butt;stroke-linejoin:miter;stroke-opacity:1"
       d="M 44.763444,80.266489 L 44.851833,95.292508 L 48.387366,98.032547 L 48.21059,82.829751 L 44.763444,80.266489 z"
       id="path3762" />
    <path
       id="path3766"
       d="M 36.720105,29.929325 L 36.631716,44.999539 L 42.818901,49.153792 L 42.818901,33.906801 L 36.720105,29.929325 z"
       style="fill:url(#linearGradient3770);fill-opacity:1;fill-rule:evenodd;stroke:none;stroke-width:1px;stroke-linecap:butt;stroke-linejoin:miter;stroke-opacity:1"
       sodipodi:nodetypes="ccccc" />
    <path
       id="path3768"
       d="M 37.869153,32.404199 L 37.913348,44.204043 L 41.493075,46.723111 L 41.316299,34.967461 L 37.869153,32.404199 z"
       style="fill:url(#linearGradient3836);fill-opacity:1;fill-rule:evenodd;stroke:none;stroke-width:1px;stroke-linecap:butt;stroke-linejoin:miter;stroke-opacity:1"
       sodipodi:nodetypes="ccccc" />
    <path
       sodipodi:nodetypes="ccccc"
       style="fill:url(#linearGradient3776);fill-opacity:1;fill-rule:evenodd;stroke:none;stroke-width:1px;stroke-linecap:butt;stroke-linejoin:miter;stroke-opacity:1"
       d="M 48.519949,37.795888 L 48.43156,52.866102 L 54.618745,57.020355 L 54.618745,41.773364 L 48.519949,37.795888 z"
       id="path3772" />
    <path
       sodipodi:nodetypes="ccccc"
       style="fill:url(#linearGradient3834);fill-opacity:1;fill-rule:evenodd;stroke:none;stroke-width:1px;stroke-linecap:butt;stroke-linejoin:miter;stroke-opacity:1"
       d="M 49.668997,40.270762 L 49.713192,52.070606 L 53.292919,54.589674 L 53.116143,42.834024 L 49.668997,40.270762 z"
       id="path3774" />
    <path
       id="path3778"
       d="M 66.551172,43.762101 L 66.462783,58.832315 L 72.384803,56.887772 L 72.56158,41.773364 L 66.551172,43.762101 z"
       style="fill:url(#linearGradient3782);fill-opacity:1;fill-rule:evenodd;stroke:none;stroke-width:1px;stroke-linecap:butt;stroke-linejoin:miter;stroke-opacity:1"
       sodipodi:nodetypes="ccccc" />
    <path
       id="path3780"
       d="M 67.70022,45.308897 L 67.611832,56.799382 L 71.235754,55.561945 L 71.058978,44.248237 L 67.70022,45.308897 z"
       style="fill:url(#linearGradient3832);fill-opacity:1;fill-rule:evenodd;stroke:none;stroke-width:1px;stroke-linecap:butt;stroke-linejoin:miter;stroke-opacity:1"
       sodipodi:nodetypes="ccccc" />
    <path
       sodipodi:nodetypes="ccccc"
       style="fill:url(#linearGradient3788);fill-opacity:1;fill-rule:evenodd;stroke:none;stroke-width:1px;stroke-linecap:butt;stroke-linejoin:miter;stroke-opacity:1"
       d="M 82.151715,38.812354 L 82.063326,53.882568 L 87.985346,51.938025 L 88.162123,36.823617 L 82.151715,38.812354 z"
       id="path3784" />
    <path
       sodipodi:nodetypes="ccccc"
       style="fill:url(#linearGradient3830);fill-opacity:1;fill-rule:evenodd;stroke:none;stroke-width:1px;stroke-linecap:butt;stroke-linejoin:miter;stroke-opacity:1"
       d="M 83.300763,40.35915 L 83.212375,51.849635 L 86.836297,50.612198 L 86.659521,39.29849 L 83.300763,40.35915 z"
       id="path3786" />
    <path
       style="fill:url(#linearGradient3792);fill-opacity:1;fill-rule:evenodd;stroke:none;stroke-width:1px;stroke-linecap:butt;stroke-linejoin:miter;stroke-opacity:1"
       d="M 15.186149,54.672973 L 31.561149,44.422973 L 60.873649,64.985473 L 78.561149,55.235473 L 83.936149,58.922973 L 56.248649,80.672973 L 15.186149,54.672973 z"
       id="path3790" />
    <path
       style="fill:url(#linearGradient3796);fill-opacity:1;fill-rule:evenodd;stroke:none;stroke-width:1px;stroke-linecap:butt;stroke-linejoin:miter;stroke-opacity:1"
       d="M 56.436149,80.610473 L 83.998649,58.922973 L 110.99865,62.110473 L 57.373649,80.860473 L 56.436149,80.610473 z"
       id="path3794" />
    <path
       style="fill:url(#linearGradient3806);fill-opacity:1;fill-rule:evenodd;stroke:none;stroke-width:1px;stroke-linecap:butt;stroke-linejoin:miter;stroke-opacity:1"
       d="M 78.811149,54.985473 L 93.186149,53.547973 L 92.998649,49.485473 L 94.373649,50.422973 L 110.62365,61.672973 L 84.061149,59.047973 L 78.811149,54.985473 z"
       id="path3798" />
    <path
       style="fill:url(#linearGradient3810);fill-opacity:1;fill-rule:evenodd;stroke:none;stroke-width:1px;stroke-linecap:butt;stroke-linejoin:miter;stroke-opacity:1"
       d="M 72.873649,27.485473 L 61.561149,43.360473 L 62.123649,43.860473 L 92.248649,33.422973 L 91.623649,32.735473 L 72.873649,27.485473 z"
       id="path3808" />
    <path
       style="fill:url(#linearGradient3814);fill-opacity:1;fill-rule:evenodd;stroke:none;stroke-width:1px;stroke-linecap:butt;stroke-linejoin:miter;stroke-opacity:1"
       d="M 31.936149,24.360473 L 50.748649,13.485473 L 72.998649,27.485473 L 61.373649,43.547973 L 31.936149,24.360473 z"
       id="path3812" />
    <path
       style="fill:url(#linearGradient3818);fill-opacity:1;fill-rule:evenodd;stroke:none;stroke-width:1px;stroke-linecap:butt;stroke-linejoin:miter;stroke-opacity:1"
       d="M 50.811149,13.360473 L 72.998649,27.547973 L 90.811149,32.672973 C 90.811149,32.672973 82.561149,26.922973 82.123649,26.485473 C 81.686149,26.047973 62.748649,13.297973 62.748649,13.297973 L 50.811149,13.360473 z"
       id="path3816" />
    <path
       style="fill:url(#linearGradient3822);fill-opacity:1;fill-rule:evenodd;stroke:none;stroke-width:1px;stroke-linecap:butt;stroke-linejoin:miter;stroke-opacity:1"
       d="M 73.123649,16.047973 L 74.623649,16.485473 L 76.998649,16.922973 L 80.311149,16.922973 L 84.873649,16.110473 L 84.498649,16.610473 L 83.498649,17.172973 L 81.873649,17.922973 L 79.873649,18.235473 L 80.498649,18.797973 L 81.998649,19.735473 L 83.311149,20.422973 C 83.311149,20.422973 82.061149,20.735473 81.311149,20.672973 C 80.561149,20.610473 77.498649,20.547973 77.498649,20.547973 L 73.998649,20.172973 L 72.873649,19.735473 L 73.123649,16.047973 z"
       id="path3820" />
    <path
       id="path3838"
       d="M 7.0918918,82.767568 L 7.0054054,88.648649 L 62.443244,125.83783 L 62.270271,119.69729 L 7.0918918,82.767568 z"
       style="fill:#000000;fill-opacity:0.15686275;fill-rule:evenodd;stroke:none;stroke-width:1px;stroke-linecap:butt;stroke-linejoin:miter;stroke-opacity:1" />
    <path
       id="path3840"
       d="M 15.221622,54.832432 L 15.048649,81.816216 L 56.12973,108.97297 L 56.216217,81.124324 L 15.221622,54.832432 z"
       style="fill:#000000;fill-opacity:0.15686275;fill-rule:evenodd;stroke:none;stroke-width:1px;stroke-linecap:butt;stroke-linejoin:miter;stroke-opacity:1" />
    <path
       id="path3842"
       d="M 32,24.648649 L 31.481081,44.540541 L 61.145946,65.124324 L 61.232433,43.675676 L 32,24.648649 z"
       style="fill:#000000;fill-opacity:0.15686275;fill-rule:evenodd;stroke:none;stroke-width:1px;stroke-linecap:butt;stroke-linejoin:miter;stroke-opacity:1" />
    <path
       id="path3844"
       d="M 15.186149,54.672973 L 31.561149,44.422973 L 60.873649,64.985473 L 78.561149,55.235473 L 83.936149,58.922973 L 56.248649,80.672973 L 15.186149,54.672973 z"
       style="fill:#000000;fill-opacity:0.15686275;fill-rule:evenodd;stroke:none;stroke-width:1px;stroke-linecap:butt;stroke-linejoin:miter;stroke-opacity:1" />
    <path
       id="path3846"
       d="M 31.936149,24.360473 L 50.748649,13.485473 L 72.998649,27.485473 L 61.373649,43.547973 L 31.936149,24.360473 z"
       style="fill:#000000;fill-opacity:0.15686275;fill-rule:evenodd;stroke:none;stroke-width:1px;stroke-linecap:butt;stroke-linejoin:miter;stroke-opacity:1" />
    <path
       style="fill:url(#linearGradient3953);fill-rule:evenodd;stroke:none;stroke-width:1px;stroke-linecap:butt;stroke-linejoin:miter;stroke-opacity:1"
       d="M 68.672492,89.414682 L 65.136959,96.795109 L 65.357929,98.982721 L 65.623094,98.739653 L 66.750046,97.590605 L 69.269114,89.65775 L 70.528648,90.298566 L 70.528648,90.232275 L 70.152997,89.348391 L 69.22492,88.884352 L 69.843638,87.492236 L 68.959755,87.094488 L 68.871366,88.707576 L 68.186357,88.398216 L 67.611832,88.884352 L 68.672492,89.414682 z"
       id="path3951" />
    <path
       style="fill:url(#linearGradient3961);fill-rule:evenodd;stroke:none;stroke-width:1px;stroke-linecap:butt;stroke-linejoin:miter;stroke-opacity:1"
       d="M 63.700648,90.210178 L 62.551599,89.215809 L 61.888687,90.011304 L 63.479677,90.607925 L 62.860959,91.182449 L 63.258706,91.801168 L 64.054201,90.895187 L 70.042512,96.220585 L 72.252221,96.839304 L 72.185929,96.552042 L 71.279949,94.983148 L 64.451949,90.453246 L 65.446318,89.370488 L 64.429852,89.458877 L 63.700648,90.210178 z"
       id="path3959" />
    <path
       style="fill:url(#linearGradient3969);fill-opacity:1;fill-rule:evenodd;stroke:none;stroke-width:1px;stroke-linecap:butt;stroke-linejoin:miter;stroke-opacity:1"
       d="M 82.230343,99.893944 L 81.539052,100.03438 L 86.298855,103.86204 L 86.452884,106.04039 L 87.849982,107.31248 L 87.958246,108.93369 L 89.362926,109.76293 L 89.62744,111.02744 L 90.932358,112.09753 L 91.101552,113.00914 L 92.447523,114.03882 L 92.381232,115.28725 L 93.116066,115.13257 L 93.129011,113.60511 L 91.994858,112.74305 L 91.869858,111.74684 L 90.360705,110.77809 L 90.105343,109.3589 L 88.741066,108.64015 L 88.610705,107.01136 L 87.093969,105.76136 L 86.93994,103.5868 L 82.230343,99.893944 z"
       id="path3963"
       sodipodi:nodetypes="ccccccccccccccccccccccc" />
    <path
       sodipodi:nodetypes="ccccccccccccccccccccccc"
       id="path3971"
       d="M 89.809644,97.242294 L 89.118353,97.382728 L 93.878156,101.21039 L 94.032185,103.38874 L 95.429283,104.66083 L 95.537547,106.28204 L 96.942227,107.11128 L 97.206741,108.37579 L 98.511659,109.44588 L 98.680853,110.35749 L 100.02682,111.38717 L 99.960533,112.6356 L 100.69537,112.48092 L 100.70831,110.95346 L 99.574159,110.0914 L 99.449159,109.09519 L 97.940006,108.12644 L 97.684644,106.70725 L 96.320367,105.9885 L 96.190006,104.35971 L 94.67327,103.10971 L 94.519241,100.93515 L 89.809644,97.242294 z"
       style="fill:url(#linearGradient3973);fill-opacity:1;fill-rule:evenodd;stroke:none;stroke-width:1px;stroke-linecap:butt;stroke-linejoin:miter;stroke-opacity:1" />
  </g>
  <g
     inkscape:label="outline"
     inkscape:groupmode="layer"
     id="layer1"
     style="display:inline"
     sodipodi:insensitive="true">
    <path
       style="fill:#000000;fill-opacity:1;fill-rule:evenodd;stroke:none;stroke-width:1px;stroke-linecap:butt;stroke-linejoin:miter;stroke-opacity:1"
       d="M 50.686149,13.297973 L 31.654899,24.391723 L 31.186149,44.297973 L 14.842399,54.704223 L 14.873649,79.860473 L 6.6861486,82.672973 L 6.7486486,88.797973 L 62.404899,126.11047 L 127.06115,103.32922 L 127.0924,97.079223 L 116.7799,89.860473 C 116.7234,89.509172 116.54499,89.168873 116.31115,88.954223 L 111.5299,85.266723 L 111.5299,79.891723 L 111.5299,79.860473 L 111.49865,62.110473 L 93.248649,49.172973 L 92.467399,33.266723 L 73.311149,20.297973 L 73.311149,20.079223 C 76.84884,21.03156 80.331982,20.916473 83.873649,20.547973 C 82.877586,19.870521 81.568783,19.700728 80.279899,18.485473 C 82.618628,18.371914 84.265557,16.650604 85.717399,15.797973 C 81.583527,16.389686 77.504335,17.578089 73.311149,15.797973 L 73.311149,14.672973 C 73.061149,14.172972 73.040316,14.297974 72.623649,14.797973 L 72.592399,19.829223 L 62.936149,13.297973 L 50.686149,13.297973 z M 51.717399,13.672973 L 62.717399,13.766723 L 66.248649,16.141723 L 55.779899,16.235473 L 51.717399,13.672973 z M 50.654899,13.829223 L 54.748649,16.422973 L 37.123649,27.547973 L 32.498649,24.516723 L 50.654899,13.829223 z M 55.936149,16.329223 L 66.529899,16.329223 L 70.967399,19.297973 L 60.279899,19.047973 L 55.936149,16.329223 z M 73.311149,16.360473 C 76.102045,17.250847 80.900132,17.712243 84.248649,16.422973 C 83.701146,17.400252 80.705412,18.088391 79.561149,18.079223 C 80.024423,18.8071 81.401012,19.804451 82.717399,20.235473 C 79.924919,20.913796 76.323052,20.303656 73.311149,19.704223 L 73.311149,16.360473 z M 55.029899,16.579223 L 59.154899,19.172973 L 42.686149,31.172973 L 37.279899,27.641723 L 55.029899,16.579223 z M 60.467399,19.204223 L 71.217399,19.485473 L 72.592399,20.422973 L 72.592399,22.391723 L 64.936149,22.016723 L 60.467399,19.204223 z M 59.404899,19.329223 L 64.061149,22.266723 L 48.561149,34.985473 L 42.842399,31.266723 L 59.404899,19.329223 z M 73.311149,20.891723 L 75.748649,22.547973 L 73.311149,22.422973 L 73.311149,20.891723 z M 65.092399,22.110473 L 72.592399,22.547973 L 72.561149,25.547973 L 69.904899,25.141723 L 65.092399,22.110473 z M 64.311149,22.422973 L 68.967399,25.360473 L 55.436149,39.485473 L 48.717399,35.079223 L 64.311149,22.422973 z M 73.311149,22.610473 L 76.061149,22.766723 L 82.342399,26.985473 L 73.311149,25.641723 L 73.311149,22.610473 z M 32.279899,25.079223 L 39.873649,30.110473 L 39.873649,31.735473 L 36.498649,29.485473 L 36.498649,31.110473 L 32.217399,28.266723 L 32.279899,25.079223 z M 70.092399,25.266723 L 72.561149,25.641723 L 72.561149,26.829223 L 70.092399,25.266723 z M 69.217399,25.516723 L 72.561149,27.610473 L 61.248649,43.266723 L 55.561149,39.547973 L 69.217399,25.516723 z M 73.311149,25.766723 L 82.654899,27.172973 L 89.311149,31.672973 L 73.373649,27.329223 L 73.311149,27.297973 L 73.311149,25.766723 z M 72.998649,27.766723 L 73.123649,27.797973 L 79.779899,37.297973 L 71.467399,40.141723 L 67.904899,35.016723 L 72.998649,27.766723 z M 73.529899,27.922973 L 83.529899,30.766723 L 86.873649,34.891723 L 79.936149,37.266723 L 73.529899,27.922973 z M 32.217399,28.547973 L 35.748649,30.860473 L 35.748649,33.860473 L 32.154899,31.485473 L 32.217399,28.547973 z M 40.061149,30.235473 L 52.811149,38.704223 L 52.811149,40.297973 L 48.311149,37.297973 L 48.311149,38.860473 L 42.998649,35.391723 L 42.998649,33.797973 L 40.029899,31.829223 L 40.061149,30.235473 z M 37.029899,30.329223 L 42.498649,33.985473 L 42.592399,48.610473 L 36.842399,44.704223 L 37.029899,30.329223 z M 83.998649,30.891723 L 91.967399,33.172973 L 87.029899,34.860473 L 83.998649,30.891723 z M 35.936149,30.985473 L 36.498649,31.360473 L 36.467399,34.329223 L 35.904899,33.954223 L 35.936149,30.985473 z M 32.154899,31.704223 L 35.748649,34.079223 L 35.748649,34.110473 L 35.842399,34.141723 L 36.467399,34.547973 L 36.436149,37.391723 L 32.123649,34.579223 L 32.154899,31.704223 z M 37.748649,32.172973 L 37.748649,44.235473 L 41.623649,47.016723 L 41.498649,34.704223 L 37.748649,32.172973 z M 38.061149,32.735473 L 41.186149,34.922973 L 41.311149,46.485473 L 38.061149,44.079223 L 38.061149,32.735473 z M 91.998649,33.860473 C 92.062969,34.995475 92.102708,36.158892 92.123649,37.235473 L 88.436149,38.454223 L 88.436149,36.391723 L 87.498649,36.704223 L 87.498649,35.391723 L 91.998649,33.860473 z M 32.092399,34.829223 L 35.498649,37.047973 L 35.498649,39.485473 L 32.061149,37.235473 L 32.092399,34.829223 z M 67.717399,35.235473 L 71.311149,40.204223 L 61.998649,43.360473 L 67.717399,35.235473 z M 87.311149,35.454223 L 87.342399,36.766723 L 81.936149,38.641723 L 81.904899,40.579223 L 76.342399,42.422973 L 76.373649,39.204223 L 87.311149,35.454223 z M 42.998649,35.672973 L 45.217399,37.141723 L 45.217399,40.110473 L 42.998649,38.641723 L 42.998649,35.672973 z M 87.873649,37.110473 L 87.873649,51.735473 L 82.279899,53.422973 L 82.498649,39.141723 L 87.873649,37.110473 z M 35.686149,37.141723 L 36.436149,37.641723 L 36.404899,40.079223 L 35.654899,39.579223 L 35.686149,37.141723 z M 45.404899,37.266723 L 48.311149,39.172973 L 48.279899,42.110473 L 45.373649,40.204223 L 45.404899,37.266723 z M 92.154899,37.422973 L 92.311149,40.610473 L 88.436149,41.860473 L 88.436149,38.641723 C 89.672619,38.229066 90.917191,37.822429 92.154899,37.422973 z M 32.061149,37.485473 L 36.404899,40.329223 L 36.404899,42.672973 L 32.029899,39.829223 L 32.061149,37.485473 z M 48.842399,38.141723 L 54.311149,41.797973 L 54.404899,56.422973 L 48.654899,52.516723 L 48.842399,38.141723 z M 52.998649,38.829223 L 60.904899,44.079223 L 60.873649,47.172973 L 54.811149,43.172973 L 54.811149,41.610473 L 52.967399,40.391723 L 52.998649,38.829223 z M 86.936149,38.829223 L 83.186149,40.110473 L 83.186149,51.985473 L 87.061149,50.829223 L 86.936149,38.829223 z M 42.998649,38.891723 L 45.217399,40.360473 L 45.217399,40.391723 L 48.279899,42.391723 L 48.248649,45.141723 L 42.998649,41.704223 L 42.998649,38.891723 z M 76.186149,39.297973 L 76.186149,42.485473 L 72.717399,43.641723 L 72.717399,41.422973 L 66.217399,43.672973 L 66.186149,45.797973 L 65.529899,46.016723 L 65.561149,42.922973 L 76.186149,39.297973 z M 86.498649,39.485473 L 86.779899,50.516723 L 83.529899,51.516723 L 83.467399,40.297973 L 86.498649,39.485473 z M 49.561149,39.985473 L 49.561149,52.047973 L 53.436149,54.829223 L 53.311149,42.516723 L 49.561149,39.985473 z M 32.029899,40.047973 L 35.498649,42.329223 L 35.498649,45.422973 L 31.967399,43.110473 L 32.029899,40.047973 z M 49.873649,40.547973 L 52.998649,42.735473 L 53.123649,54.297973 L 49.873649,51.891723 L 49.873649,40.547973 z M 81.904899,40.797973 L 81.904899,43.985473 L 72.717399,46.954223 L 72.717399,43.829223 L 81.904899,40.797973 z M 92.311149,40.797973 L 92.436149,43.391723 L 88.436149,44.672973 L 88.436149,42.079223 L 92.311149,40.797973 z M 42.998649,41.954223 L 45.311149,43.485473 L 45.217399,43.485473 L 45.217399,45.829223 L 42.998649,44.391723 L 42.998649,41.954223 z M 72.154899,42.141723 L 72.154899,56.766723 L 66.561149,58.454223 L 66.748649,44.172973 L 72.154899,42.141723 z M 35.686149,42.454223 L 36.404899,42.922973 L 36.373649,44.985473 L 42.998649,49.579223 L 42.998649,47.266723 L 45.217399,48.704223 L 45.217399,51.829223 L 35.654899,45.547973 L 35.686149,42.454223 z M 65.373649,42.985473 L 65.373649,46.016723 L 65.467399,46.047973 L 61.436149,47.360473 L 61.467399,44.329223 L 65.373649,42.985473 z M 31.967399,43.360473 L 39.561149,48.391723 L 39.561149,49.797973 L 31.936149,44.485473 L 31.967399,43.360473 z M 54.811149,43.485473 L 56.998649,44.922973 L 56.998649,47.891723 L 54.811149,46.454223 L 54.811149,43.485473 z M 45.404899,43.547973 L 48.248649,45.422973 L 48.217399,47.797973 L 45.373649,45.954223 L 45.404899,43.547973 z M 92.436149,43.579223 L 92.592399,46.329223 L 88.436149,47.704223 L 88.436149,44.891723 L 92.436149,43.579223 z M 71.217399,43.860473 L 67.467399,45.141723 L 67.467399,57.016723 L 71.342399,55.860473 L 71.217399,43.860473 z M 81.904899,44.172973 L 81.873649,46.797973 L 76.342399,48.579223 L 76.373649,45.954223 L 81.904899,44.172973 z M 70.779899,44.516723 L 71.029899,55.547973 L 67.779899,56.579223 L 67.748649,45.360473 L 70.779899,44.516723 z M 42.998649,44.672973 L 45.217399,46.110473 L 45.217399,46.172973 L 45.311149,46.172973 L 48.217399,48.079223 L 48.217399,50.391723 L 42.998649,47.016723 L 42.998649,44.672973 z M 31.498649,44.954223 L 34.561149,47.079223 L 20.217399,57.360473 L 16.154899,54.735473 L 31.498649,44.954223 z M 57.186149,45.047973 L 60.873649,47.485473 L 60.842399,50.422973 L 57.154899,47.985473 L 57.186149,45.047973 z M 66.186149,45.954223 L 66.186149,49.047973 L 61.404899,50.610473 L 61.436149,47.547973 L 66.186149,45.954223 z M 76.186149,46.016723 L 76.186149,48.641723 L 72.717399,49.766723 L 72.717399,47.141723 L 76.186149,46.016723 z M 92.592399,46.547973 L 92.686149,48.829223 L 88.436149,50.235473 L 88.436149,47.891723 L 92.592399,46.547973 z M 54.811149,46.735473 L 60.811149,50.704223 L 60.779899,53.329223 L 54.811149,49.422973 L 54.811149,46.735473 z M 81.873649,47.016723 L 81.842399,49.860473 L 72.717399,52.829223 L 72.717399,49.954223 L 81.873649,47.016723 z M 34.811149,47.266723 L 39.279899,50.391723 L 25.092399,60.485473 L 20.373649,57.454223 L 34.811149,47.266723 z M 39.748649,48.516723 L 52.748649,57.110473 L 52.748649,59.016723 L 39.717399,49.922973 L 39.748649,48.516723 z M 45.404899,48.829223 L 48.217399,50.672973 L 48.186149,52.797973 L 54.811149,57.391723 L 54.811149,55.016723 L 57.061149,56.485473 L 57.061149,59.672973 L 45.373649,51.954223 L 45.404899,48.829223 z M 92.717399,49.016723 L 92.842399,51.954223 L 86.217399,54.110473 L 82.842399,54.485473 L 82.873649,53.797973 L 88.436149,52.016723 L 88.436149,50.422973 L 92.717399,49.016723 z M 66.186149,49.235473 L 66.154899,51.891723 L 65.561149,52.079223 L 65.561149,49.422973 L 66.186149,49.235473 z M 65.373649,49.485473 L 65.404899,52.141723 L 61.373649,53.454223 L 61.404899,50.797973 L 65.373649,49.485473 z M 54.811149,49.704223 L 56.998649,51.141723 L 56.998649,53.547973 L 54.811149,52.110473 L 54.811149,49.704223 z M 81.842399,50.047973 L 81.811149,52.391723 L 76.217399,54.204223 L 76.248649,51.860473 L 81.842399,50.047973 z M 93.279899,50.454223 L 94.967399,51.610473 L 93.311149,51.422973 L 93.279899,50.454223 z M 39.529899,50.547973 L 43.717399,53.454223 L 29.717399,63.454223 L 25.248649,60.579223 L 39.529899,50.547973 z M 57.186149,51.266723 L 60.779899,53.641723 L 60.748649,56.016723 L 57.154899,53.641723 L 57.186149,51.266723 z M 93.342399,51.704223 L 95.342399,51.891723 L 102.49865,56.829223 L 80.529899,56.016723 L 79.404899,55.235473 L 93.404899,53.641723 L 93.342399,51.704223 z M 76.061149,51.922973 L 76.061149,54.266723 L 72.717399,55.360473 L 72.717399,53.016723 L 76.061149,51.922973 z M 66.154899,52.016723 L 66.092399,57.579223 L 61.279899,59.141723 L 61.404899,53.579223 L 66.154899,52.016723 z M 92.842399,52.172973 L 92.904899,53.360473 L 87.154899,54.016723 L 92.842399,52.172973 z M 54.811149,52.391723 L 60.748649,56.297973 L 60.717399,58.579223 L 54.811149,54.735473 L 54.811149,52.391723 z M 81.811149,52.579223 L 81.811149,54.141723 L 82.686149,53.860473 L 82.686149,54.516723 L 78.373649,54.985473 L 71.529899,58.891723 L 71.529899,57.422973 L 72.717399,57.047973 L 72.717399,55.547973 L 81.811149,52.579223 z M 43.936149,53.641723 L 48.467399,56.797973 L 34.654899,66.641723 L 29.873649,63.579223 L 43.936149,53.641723 z M 15.561149,55.360473 L 20.623649,58.641723 L 20.623649,61.516723 L 15.592399,58.235473 L 15.561149,58.235473 L 15.561149,55.360473 z M 78.342399,55.516723 L 79.623649,56.391723 L 50.592399,76.891723 L 45.279899,73.485473 L 58.779899,63.985473 L 60.936149,65.485473 L 78.342399,55.516723 z M 80.936149,56.329223 L 102.7174,56.985473 L 109.2799,61.516723 L 84.279899,58.672973 L 80.936149,56.329223 z M 79.842399,56.547973 L 83.373649,58.954223 L 55.998649,80.391723 L 50.717399,76.985473 L 79.842399,56.547973 z M 57.248649,56.610473 L 60.717399,58.891723 L 60.686149,62.047973 L 57.217399,59.766723 L 57.248649,56.610473 z M 48.717399,56.954223 L 53.373649,60.204223 L 39.779899,69.954223 L 34.811149,66.735473 L 48.717399,56.954223 z M 52.936149,57.235473 L 60.686149,62.360473 L 60.654899,64.516723 L 59.061149,63.422973 L 54.154899,59.985473 L 54.123649,59.954223 L 53.936149,59.797973 L 53.904899,59.829223 L 52.904899,59.110473 L 52.936149,57.235473 z M 71.342399,57.485473 L 71.373649,58.954223 L 61.311149,62.204223 L 61.342399,59.266723 L 66.092399,57.704223 L 66.092399,59.172973 L 71.342399,57.485473 z M 15.561149,58.454223 L 25.311149,64.797973 L 25.311149,68.110473 L 24.998649,67.891723 L 24.998649,65.422973 L 18.498649,61.110473 L 18.467399,63.672973 L 15.561149,61.766723 L 15.561149,58.454223 z M 20.811149,58.766723 L 30.498649,65.016723 L 30.498649,67.922973 L 20.779899,61.610473 L 20.811149,58.766723 z M 84.061149,59.079223 L 94.623649,60.391723 L 98.904899,66.079223 L 90.811149,68.860473 L 84.061149,59.079223 z M 83.842399,59.235473 L 90.654899,68.891723 L 82.811149,71.610473 L 77.592399,64.235473 L 77.404899,64.422973 L 82.654899,71.641723 L 73.373649,74.829223 L 69.967399,70.266723 L 77.592399,64.235473 L 83.842399,59.235473 z M 70.748649,59.329223 L 65.561149,62.297973 L 65.561149,61.016723 L 70.748649,59.329223 z M 53.592399,60.360473 L 58.529899,63.797973 L 45.123649,73.391723 L 39.904899,70.016723 L 53.592399,60.360473 z M 95.029899,60.422973 L 104.2799,61.579223 L 105.93615,63.641723 L 99.061149,66.016723 L 95.029899,60.422973 z M 65.373649,61.079223 L 65.404899,62.391723 L 61.279899,64.735473 L 61.311149,62.391723 L 65.373649,61.079223 z M 104.62365,61.610473 L 109.9674,62.266723 L 106.12365,63.579223 L 104.62365,61.610473 z M 19.029899,61.954223 L 24.498649,65.610473 L 24.592399,83.735473 L 20.779899,81.141723 L 20.811149,80.110473 L 23.623649,82.141723 L 23.498649,66.391723 L 19.748649,63.860473 L 19.748649,79.360473 L 20.623649,79.985473 L 20.623649,81.047973 L 18.842399,79.829223 L 19.029899,61.954223 z M 15.561149,62.016723 L 15.748649,62.141723 L 15.748649,65.047973 L 15.561149,64.922973 L 15.561149,62.016723 z M 15.936149,62.266723 L 18.467399,63.922973 L 18.467399,66.829223 L 15.904899,65.141723 L 15.936149,62.266723 z M 110.74865,62.391723 L 110.7799,66.172973 L 99.279899,70.079223 L 99.311149,66.422973 L 110.74865,62.391723 z M 20.061149,64.422973 L 23.186149,66.610473 L 23.311149,81.610473 L 20.061149,79.204223 L 20.061149,64.422973 z M 25.498649,64.922973 L 36.311149,71.954223 L 36.311149,72.672973 L 30.748649,68.985473 L 30.717399,71.641723 L 25.467399,68.204223 L 25.498649,64.922973 z M 30.686149,65.141723 L 41.748649,72.297973 L 41.748649,75.235473 L 30.654899,68.016723 L 30.686149,65.141723 z M 15.561149,65.172973 L 18.467399,67.079223 L 18.436149,70.485473 L 15.529899,68.610473 L 15.561149,65.172973 z M 110.7799,66.360473 L 110.81115,69.516723 L 105.0924,71.454223 L 105.12365,68.266723 L 110.7799,66.360473 z M 99.123649,66.485473 L 99.123649,70.110473 L 88.217399,73.829223 L 88.248649,70.297973 L 90.967399,69.360473 L 90.998649,69.329223 L 99.123649,66.485473 z M 24.998649,68.172973 L 30.561149,71.797973 L 30.498649,71.797973 L 30.498649,74.641723 L 24.967399,71.079223 L 24.998649,68.172973 z M 104.93615,68.329223 L 104.93615,71.516723 L 93.529899,75.391723 L 93.561149,72.204223 L 104.93615,68.329223 z M 15.529899,68.860473 L 15.748649,69.016723 L 15.748649,72.047973 L 15.654899,71.985473 L 15.529899,72.016723 L 15.529899,68.860473 z M 15.936149,69.110473 L 18.436149,70.735473 L 18.404899,73.766723 L 15.904899,72.141723 L 15.936149,69.110473 z M 110.81115,69.735473 L 110.8424,72.829223 L 99.217399,76.766723 L 99.248649,73.641723 L 110.81115,69.735473 z M 31.279899,69.829223 L 36.748649,73.485473 L 36.842399,91.610473 L 31.092399,87.704223 L 31.279899,69.829223 z M 88.061149,70.360473 L 88.061149,73.891723 L 82.217399,75.860473 L 82.061149,75.860473 L 82.061149,75.922973 L 76.529899,77.797973 L 76.561149,74.422973 L 88.061149,70.360473 z M 69.748649,70.422973 L 73.186149,74.891723 L 63.623649,78.204223 L 62.217399,76.422973 L 69.748649,70.422973 z M 24.967399,71.329223 L 25.311149,71.547973 L 25.311149,74.954223 L 24.967399,74.735473 L 24.967399,71.329223 z M 25.498649,71.672973 L 30.717399,75.079223 L 30.686149,78.454223 L 25.467399,75.047973 L 25.498649,71.672973 z M 31.998649,71.735473 L 31.998649,87.235473 L 35.873649,90.016723 L 35.748649,74.266723 L 31.998649,71.735473 z M 30.686149,71.860473 L 30.717399,71.891723 L 30.717399,74.797973 L 30.654899,74.766723 L 30.686149,71.860473 z M 36.498649,72.079223 L 46.623649,78.704223 L 46.623649,79.297973 L 43.498649,77.235473 L 43.498649,79.954223 L 37.248649,75.860473 L 37.248649,73.297973 L 36.467399,72.797973 L 36.498649,72.079223 z M 15.529899,72.141723 L 18.404899,74.016723 L 18.404899,77.297973 L 15.529899,75.454223 L 15.529899,72.141723 z M 93.373649,72.266723 L 93.373649,75.454223 L 82.217399,79.235473 L 82.248649,76.047973 L 93.373649,72.266723 z M 32.311149,72.297973 L 35.436149,74.485473 L 35.561149,89.485473 L 32.311149,87.079223 L 32.311149,72.297973 z M 41.936149,72.422973 L 52.061149,78.954223 L 52.061149,81.954223 L 41.904899,75.360473 L 41.936149,72.422973 z M 110.8424,73.016723 L 110.87365,76.485473 L 105.0924,78.454223 L 105.12365,74.954223 L 110.8424,73.016723 z M 99.061149,73.704223 L 99.061149,76.829223 L 88.217399,80.485473 L 88.248649,77.360473 L 99.061149,73.704223 z M 76.373649,74.485473 L 76.373649,77.860473 L 65.467399,81.547973 L 65.498649,78.297973 L 73.623649,75.454223 L 76.373649,74.485473 z M 24.967399,74.985473 L 30.498649,78.610473 L 30.498649,81.641723 L 24.967399,78.047973 L 24.967399,74.985473 z M 104.93615,75.016723 L 104.93615,78.485473 L 103.4049,79.016723 L 101.49865,77.547973 C 100.98547,77.756878 99.778989,77.899644 100.5299,79.516723 L 100.93615,79.829223 L 97.279899,81.079223 L 97.279899,80.079223 L 93.592399,81.329223 L 93.623649,78.860473 L 104.93615,75.016723 z M 15.529899,75.704223 L 15.748649,75.829223 L 15.748649,78.891723 L 15.529899,78.735473 L 15.529899,75.704223 z M 15.936149,75.954223 L 18.404899,77.547973 L 18.373649,80.110473 L 20.623649,81.641723 L 20.623649,82.047973 L 15.904899,78.985473 L 15.936149,75.954223 z M 82.061149,76.110473 L 82.061149,79.266723 L 70.779899,83.110473 L 70.811149,79.922973 L 82.061149,76.110473 z M 37.248649,76.141723 C 38.743568,77.126763 40.248484,78.100792 41.748649,79.079223 L 41.748649,81.954223 L 37.217399,79.047973 L 37.248649,76.141723 z M 62.029899,76.579223 L 63.404899,78.266723 L 57.217399,80.391723 L 62.029899,76.579223 z M 110.87365,76.704223 L 110.9049,79.891723 L 106.4674,81.391723 L 103.56115,79.141723 L 110.87365,76.704223 z M 88.061149,77.422973 L 88.061149,80.547973 L 76.529899,84.454223 L 76.561149,81.329223 L 88.061149,77.422973 z M 101.62365,77.954223 L 116.12365,89.422973 C 116.412,89.916933 116.65879,90.744257 115.68615,90.360473 L 115.12365,89.954223 L 115.87365,89.422973 L 115.4049,89.204223 L 114.81115,89.704223 L 101.0299,79.422973 C 100.2378,78.562131 100.99185,77.976412 101.62365,77.954223 z M 44.029899,78.079223 L 49.498649,81.735473 L 49.592399,99.860473 L 43.842399,95.954223 L 44.029899,78.079223 z M 24.967399,78.297973 L 25.311149,78.516723 L 25.311149,81.829223 L 24.936149,81.579223 L 24.967399,78.297973 z M 65.311149,78.360473 L 65.311149,81.610473 L 56.498649,84.579223 L 56.467399,81.485473 L 65.311149,78.360473 z M 25.498649,78.641723 L 30.654899,82.016723 L 30.654899,85.266723 L 25.467399,81.922973 L 25.498649,78.641723 z M 46.811149,78.797973 L 55.498649,84.485473 L 55.529899,87.766723 L 49.998649,84.141723 L 49.998649,81.547973 L 46.779899,79.422973 L 46.811149,78.797973 z M 93.436149,78.922973 L 93.436149,81.391723 L 82.217399,85.204223 L 82.248649,82.704223 L 93.436149,78.922973 z M 15.529899,78.985473 L 25.404899,85.422973 L 25.311149,85.422973 L 25.311149,88.079223 L 15.529899,81.579223 L 15.529899,78.985473 z M 52.248649,79.047973 L 55.467399,81.141723 L 55.498649,84.172973 L 52.217399,82.047973 L 52.248649,79.047973 z M 41.936149,79.204223 C 42.446456,79.537326 42.959889,79.869475 43.467399,80.204223 L 43.467399,83.047973 L 41.904899,82.047973 L 41.936149,79.204223 z M 37.217399,79.329223 C 39.280971,80.660554 41.344948,81.993405 43.404899,83.329223 L 43.436149,86.766723 L 37.217399,82.704223 L 37.217399,79.329223 z M 44.748649,79.985473 L 44.748649,95.485473 L 48.623649,98.266723 L 48.498649,82.516723 L 44.748649,79.985473 z M 70.623649,79.985473 L 70.623649,83.172973 L 60.592399,86.579223 L 60.623649,83.360473 L 70.623649,79.985473 z M 101.1549,79.985473 L 104.06115,82.204223 L 99.248649,83.829223 L 99.279899,80.610473 L 101.1549,79.985473 z M 110.9049,80.110473 L 110.9049,83.172973 L 109.43615,83.672973 L 106.68615,81.516723 L 110.9049,80.110473 z M 14.873649,80.329223 L 14.873649,82.016723 L 55.904899,109.39172 L 80.467399,100.67297 L 84.842399,104.14172 L 84.842399,104.20422 L 81.123649,105.57922 L 86.654899,110.70422 L 62.279899,119.51672 L 7.7486486,82.797973 L 14.873649,80.329223 z M 45.061149,80.547973 L 48.186149,82.735473 L 48.311149,97.735473 L 45.061149,95.329223 L 45.061149,80.547973 z M 99.092399,80.672973 L 99.092399,83.891723 L 97.248649,84.516723 L 97.279899,81.297973 L 99.092399,80.672973 z M 96.623649,81.016723 L 96.623649,94.110473 L 96.029899,94.360473 L 95.842399,81.766723 L 86.186149,85.016723 L 86.248649,97.829223 L 85.342399,98.141723 L 85.342399,85.360473 L 75.592399,88.829223 L 75.592399,101.54797 L 74.842399,101.82922 L 74.842399,88.454223 L 96.623649,81.016723 z M 76.373649,81.391723 L 76.373649,84.516723 L 68.998649,87.016723 L 68.873649,86.954223 L 68.873649,87.047973 L 65.467399,88.204223 L 65.498649,85.079223 L 76.373649,81.391723 z M 20.779899,81.766723 L 24.936149,84.579223 L 24.936149,81.829223 L 30.498649,85.454223 L 30.498649,88.454223 L 20.779899,82.141723 L 20.779899,81.766723 z M 95.529899,82.266723 L 95.529899,82.985473 L 86.748649,97.016723 L 86.748649,95.735473 L 95.123649,82.391723 L 95.529899,82.266723 z M 104.24865,82.329223 L 104.93615,82.860473 L 104.87365,85.235473 L 97.248649,87.797973 L 97.248649,84.704223 L 104.24865,82.329223 z M 94.904899,82.485473 L 86.717399,95.422973 L 86.717399,93.985473 L 93.717399,82.891723 L 94.904899,82.485473 z M 82.061149,82.766723 L 82.061149,85.235473 L 74.279899,87.891723 L 74.279899,88.891723 L 70.779899,90.079223 L 70.811149,86.579223 L 82.061149,82.766723 z M 93.498649,82.954223 L 86.717399,93.704223 L 86.717399,92.266723 L 92.311149,83.360473 L 93.498649,82.954223 z M 37.217399,82.985473 C 38.703659,83.960172 40.248184,84.972585 41.748649,85.954223 L 41.748649,88.954223 L 37.217399,86.016723 L 37.217399,82.985473 z M 105.43615,83.235473 L 114.0924,89.829223 L 114.1549,94.860473 L 105.24865,88.954223 L 105.43615,83.235473 z M 95.529899,83.266723 L 95.561149,84.610473 L 87.467399,97.391723 L 86.748649,97.641723 L 86.748649,97.329223 L 95.529899,83.266723 z M 7.4673986,83.360473 L 62.029899,120.17297 L 62.123649,125.17297 L 7.4986486,88.391723 L 7.4673986,83.360473 z M 110.9049,83.391723 L 110.93615,84.797973 L 109.6549,83.829223 L 110.9049,83.391723 z M 60.436149,83.422973 L 60.436149,86.610473 L 56.498649,87.954223 L 56.498649,84.766723 L 60.436149,83.422973 z M 92.061149,83.454223 L 86.717399,91.954223 L 86.686149,90.547973 L 90.936149,83.829223 L 92.061149,83.454223 z M 90.686149,83.922973 L 86.686149,90.235473 L 86.686149,88.672973 L 89.404899,84.360473 L 90.686149,83.922973 z M 49.998649,84.454223 L 52.061149,85.797973 L 52.061149,88.704223 L 49.998649,87.360473 L 49.998649,84.454223 z M 89.154899,84.454223 L 86.686149,88.360473 L 86.654899,86.766723 L 87.873649,84.891723 L 89.154899,84.454223 z M 95.561149,84.891723 L 95.561149,86.329223 L 88.842399,96.891723 L 87.748649,97.297973 L 95.561149,84.891723 z M 87.592399,84.985473 L 86.654899,86.454223 L 86.654899,85.297973 L 87.592399,84.985473 z M 65.311149,85.141723 L 65.311149,88.266723 L 62.654899,89.172973 L 62.561149,89.079223 L 62.436149,89.235473 L 56.529899,91.235473 L 56.498649,88.141723 L 65.311149,85.141723 z M 104.87365,85.422973 L 104.81115,88.672973 L 99.217399,90.547973 L 99.248649,87.329223 L 104.87365,85.422973 z M 25.498649,85.485473 L 36.311149,92.516723 L 36.311149,95.422973 L 25.467399,88.204223 L 25.498649,85.485473 z M 52.248649,85.922973 L 55.529899,88.079223 L 55.561149,90.954223 L 52.217399,88.797973 L 52.248649,85.922973 z M 84.904899,85.922973 L 84.904899,86.954223 L 84.092399,86.204223 L 84.904899,85.922973 z M 41.967399,86.079223 C 42.450732,86.39598 42.991296,86.751084 43.436149,87.047973 L 43.404899,90.016723 L 41.904899,89.047973 L 41.967399,86.079223 z M 37.217399,86.297973 L 43.404899,90.297973 L 43.404899,93.547973 L 37.186149,89.547973 L 37.217399,86.297973 z M 83.842399,86.297973 L 84.904899,87.266723 L 84.936149,88.860473 L 82.623649,86.735473 L 83.842399,86.297973 z M 95.561149,86.610473 L 95.592399,88.110473 L 90.311149,96.360473 L 89.092399,96.797973 L 95.561149,86.610473 z M 70.623649,86.641723 L 70.623649,90.141723 L 70.529899,90.172973 L 70.248649,89.266723 L 69.373649,88.860473 L 70.029899,87.485473 L 69.217399,87.110473 L 70.623649,86.641723 z M 82.373649,86.829223 L 84.936149,89.172973 L 84.936149,90.735473 L 81.154899,87.266723 L 82.373649,86.829223 z M 106.9049,86.922973 L 106.81115,89.641723 L 110.87365,92.141723 L 113.4049,90.329223 L 111.49865,90.610473 L 111.74865,89.047973 L 110.2799,89.485473 L 110.18615,87.110473 L 109.12365,88.797973 L 108.3424,87.235473 L 107.74865,88.485473 L 106.9049,86.922973 z M 68.842399,87.235473 L 68.779899,88.610473 L 68.123649,88.297973 L 67.529899,88.891723 L 68.592399,89.422973 L 67.779899,91.110473 L 66.311149,91.610473 L 64.561149,90.454223 L 65.561149,89.329223 L 64.373649,89.360473 L 63.717399,90.110473 L 62.811149,89.297973 L 68.842399,87.235473 z M 69.154899,87.266723 L 69.748649,87.641723 L 69.248649,88.547973 L 69.029899,88.454223 L 69.154899,87.266723 z M 80.904899,87.360473 L 84.936149,91.047973 L 84.967399,92.579223 L 79.717399,87.766723 L 80.904899,87.360473 z M 99.061149,87.391723 L 99.061149,90.610473 L 97.217399,91.235473 L 97.248649,88.016723 L 99.061149,87.391723 z M 49.998649,87.641723 L 55.561149,91.266723 L 55.592399,94.672973 L 49.998649,91.016723 L 49.998649,87.641723 z M 79.467399,87.860473 L 84.967399,92.860473 L 84.967399,94.422973 L 78.279899,88.297973 L 79.467399,87.860473 z M 30.654899,88.016723 L 37.186149,92.391723 L 37.186149,89.797973 L 41.748649,92.766723 L 41.748649,95.766723 L 30.654899,88.547973 L 30.654899,88.016723 z M 78.061149,88.391723 L 84.967399,94.704223 L 84.967399,96.141723 L 76.967399,88.766723 L 78.061149,88.391723 z M 95.592399,88.391723 L 95.592399,89.891723 L 91.811149,95.860473 L 90.561149,96.297973 L 95.592399,88.391723 z M 68.123649,88.547973 L 70.154899,89.422973 L 70.467399,90.172973 L 68.748649,89.297973 L 68.686149,89.266723 L 67.748649,88.797973 L 68.123649,88.547973 z M 76.686149,88.860473 L 84.998649,96.422973 L 84.998649,97.797973 L 76.092399,89.547973 L 76.092399,89.079223 L 76.686149,88.860473 z M 104.81115,88.891723 L 104.81115,89.360473 L 104.9674,89.454223 L 104.9674,91.235473 L 97.217399,93.954223 L 97.217399,91.454223 L 104.81115,88.891723 z M 74.279899,89.079223 L 74.279899,92.329223 L 69.748649,93.860473 L 68.311149,92.891723 L 68.904899,90.891723 L 70.498649,90.360473 L 70.623649,90.422973 L 70.592399,90.329223 L 74.279899,89.079223 z M 62.654899,89.422973 L 63.404899,90.141723 L 63.217399,90.329223 L 62.154899,89.891723 L 62.654899,89.422973 z M 65.279899,89.422973 L 63.967399,90.829223 L 63.904899,90.891723 L 63.248649,91.641723 L 63.092399,91.204223 L 64.467399,89.516723 L 65.279899,89.422973 z M 62.186149,89.516723 L 61.748649,90.047973 L 63.311149,90.610473 L 62.842399,91.172973 L 63.248649,91.891723 L 64.061149,91.016723 L 65.154899,91.985473 L 60.592399,93.547973 L 60.623649,90.047973 L 62.186149,89.516723 z M 68.717399,89.547973 L 68.936149,89.610473 L 69.123649,89.672973 L 68.154899,92.797973 L 67.748649,92.516723 L 68.123649,91.454223 L 68.061149,91.422973 L 67.686149,92.485473 L 67.436149,92.329223 L 68.717399,89.547973 z M 105.1549,89.579223 L 106.74865,90.610473 L 105.12365,91.172973 L 105.1549,89.579223 z M 69.279899,89.735473 L 70.279899,90.266723 L 68.967399,90.704223 L 69.279899,89.735473 z M 76.092399,89.860473 L 84.998649,98.079223 L 84.998649,98.266723 L 84.154899,98.547973 L 76.123649,91.141723 L 76.092399,89.860473 z M 60.436149,90.110473 L 60.436149,93.610473 L 56.561149,94.922973 L 56.529899,91.422973 L 60.436149,90.110473 z M 95.623649,90.204223 L 95.623649,91.735473 L 93.342399,95.297973 L 92.061149,95.766723 L 95.623649,90.204223 z M 114.6549,90.235473 L 115.74865,91.079223 C 116.20139,90.982 116.46147,90.79408 116.62365,90.579223 L 125.56115,96.891723 L 104.81115,104.64172 L 98.779899,99.110473 L 95.123649,100.45422 L 90.779899,97.016723 L 107.4674,91.079223 L 114.6549,95.766723 L 114.6549,90.235473 z M 64.436149,90.579223 L 71.248649,95.110473 L 72.061149,96.360473 L 72.092399,96.454223 L 65.873649,92.016723 L 65.811149,92.079223 L 71.967399,96.610473 L 70.248649,96.172973 L 64.186149,90.891723 L 64.311149,90.735473 L 64.436149,90.579223 z M 49.998649,91.329223 L 52.061149,92.672973 L 52.061149,95.641723 L 49.998649,94.297973 L 49.998649,91.329223 z M 67.654899,91.360473 L 67.248649,92.204223 L 66.529899,91.735473 L 67.654899,91.360473 z M 76.123649,91.454223 L 83.967399,98.641723 L 82.811149,99.047973 L 76.123649,92.954223 L 76.123649,91.454223 z M 95.623649,92.016723 L 95.654899,93.547973 L 94.842399,94.766723 L 93.592399,95.204223 L 95.623649,92.016723 z M 65.311149,92.141723 L 65.311149,95.329223 L 60.529899,96.985473 L 60.436149,96.985473 L 60.436149,97.016723 L 56.561149,98.329223 L 56.561149,95.110473 L 65.311149,92.141723 z M 65.498649,92.297973 L 66.717399,93.360473 L 66.717399,93.391723 L 65.811149,95.204223 L 65.467399,95.329223 L 65.498649,92.297973 z M 74.279899,92.516723 L 74.248649,95.610473 L 72.154899,96.329223 L 71.436149,94.954223 L 70.811149,94.547973 L 70.811149,93.704223 L 74.279899,92.516723 z M 36.498649,92.641723 L 46.686149,99.297973 L 46.686149,102.29797 L 36.467399,95.516723 L 36.498649,92.641723 z M 52.248649,92.797973 L 55.623649,94.985473 L 55.654899,97.985473 L 52.217399,95.735473 L 52.248649,92.797973 z M 41.936149,92.891723 L 43.404899,93.860473 L 43.373649,96.235473 L 49.998649,100.64172 L 49.998649,98.172973 L 52.061149,99.516723 L 52.061149,102.48547 L 41.904899,95.891723 L 41.936149,92.891723 z M 76.123649,93.266723 L 82.529899,99.141723 L 81.404899,99.547973 L 76.123649,94.704223 L 76.123649,93.266723 z M 66.873649,93.516723 L 67.154899,93.797973 L 65.373649,98.579223 L 65.342399,96.797973 L 66.873649,93.516723 z M 70.623649,93.766723 L 70.623649,94.422973 L 69.967399,93.985473 L 70.623649,93.766723 z M 67.279899,93.860473 L 67.654899,94.235473 L 66.623649,97.485473 L 65.529899,98.735473 L 67.279899,93.860473 z M 95.654899,93.860473 L 95.654899,94.485473 L 95.123649,94.672973 L 95.654899,93.860473 z M 67.842399,94.391723 L 70.123649,96.422973 L 70.623649,96.516723 L 70.623649,96.829223 L 66.029899,98.360473 L 66.842399,97.610473 L 67.842399,94.391723 z M 49.998649,94.610473 L 55.654899,98.297973 L 55.686149,101.54797 L 49.998649,97.860473 L 49.998649,94.610473 z M 76.123649,95.047973 L 81.123649,99.610473 L 80.061149,100.01672 L 76.154899,96.454223 L 76.123649,95.047973 z M 65.717399,95.422973 L 65.061149,96.766723 L 65.248649,98.672973 L 60.592399,100.23547 L 60.623649,97.141723 L 65.717399,95.422973 z M 74.248649,95.797973 L 74.248649,99.047973 L 65.467399,102.01672 L 65.498649,98.891723 L 65.717399,98.704223 L 71.561149,96.704223 L 72.436149,96.891723 L 72.217399,96.485473 L 74.248649,95.797973 z M 70.779899,96.547973 L 71.217399,96.641723 L 70.779899,96.797973 L 70.779899,96.547973 z M 76.154899,96.766723 L 79.779899,100.07922 L 78.561149,100.51672 L 76.154899,98.329223 L 76.154899,96.766723 z M 90.561149,97.079223 L 94.904899,100.51672 L 85.029899,104.14172 L 85.029899,104.04797 L 80.686149,100.57922 L 90.561149,97.079223 z M 60.436149,97.204223 L 60.436149,100.29797 L 56.592399,101.61047 L 56.561149,98.516723 L 60.436149,97.204223 z M 126.5299,97.266723 L 126.5924,102.89172 L 104.93615,110.54797 L 104.93615,104.95422 L 126.5299,97.266723 z M 76.154899,98.672973 L 78.279899,100.61047 L 77.029899,101.07922 L 76.186149,100.29797 L 76.154899,98.672973 z M 65.248649,98.891723 L 65.279899,99.110473 L 65.311149,99.079223 L 65.311149,102.07922 L 56.592399,105.01672 L 56.592399,101.79797 L 65.248649,98.891723 z M 74.248649,99.235473 L 74.248649,102.04797 L 70.779899,103.26672 L 70.811149,100.39172 L 74.248649,99.235473 z M 46.873649,99.391723 L 55.717399,105.17297 L 55.748649,108.32922 L 46.842399,102.42297 L 46.873649,99.391723 z M 52.248649,99.641723 L 55.686149,101.86047 L 55.717399,104.86047 L 52.217399,102.57922 L 52.248649,99.641723 z M 98.467399,99.672973 L 98.592399,101.57922 L 95.623649,102.64172 L 95.436149,100.76672 L 98.467399,99.672973 z M 98.873649,99.672973 L 104.43615,104.89172 L 104.49865,109.36047 L 103.49865,108.89172 L 103.4049,107.67297 L 101.8424,106.76672 L 101.81115,105.29797 L 100.43615,104.54797 L 100.4674,102.70422 L 98.967399,101.76672 L 98.873649,99.672973 z M 70.623649,100.45422 L 70.623649,103.32922 L 60.592399,106.89172 L 60.623649,103.82922 L 70.623649,100.45422 z M 76.186149,100.61047 L 76.779899,101.14172 L 76.186149,101.36047 L 76.186149,100.61047 z M 95.217399,100.86047 L 95.436149,102.70422 L 85.342399,106.29797 L 85.279899,106.23547 L 85.092399,104.54797 L 95.217399,100.86047 z M 98.623649,101.95422 L 99.904899,102.79797 L 96.998649,103.82922 L 95.779899,102.95422 L 98.623649,101.95422 z M 95.592399,103.01672 L 96.779899,103.89172 L 86.811149,107.42297 L 86.811149,107.32922 L 85.686149,106.51672 L 95.592399,103.01672 z M 100.12365,103.07922 L 100.12365,104.45422 L 97.436149,105.42297 L 97.217399,104.11047 L 100.12365,103.07922 z M 60.436149,103.89172 L 60.436149,106.95422 L 56.623649,108.29797 L 56.592399,105.20422 L 60.436149,103.89172 z M 97.029899,104.17297 L 97.217399,105.48547 L 87.092399,109.07922 L 86.873649,107.73547 L 97.029899,104.17297 z M 84.904899,104.61047 L 85.092399,106.29797 L 85.154899,106.36047 L 83.311149,107.01672 L 81.842399,105.73547 L 84.904899,104.61047 z M 100.4049,104.70422 L 101.3424,105.20422 L 98.342399,106.26672 L 97.498649,105.73547 L 100.4049,104.70422 z M 101.4674,105.57922 L 101.49865,106.64172 L 98.904899,107.54797 L 98.779899,106.57922 L 98.717399,106.54797 L 101.4674,105.57922 z M 97.279899,105.82922 L 98.123649,106.36047 L 88.279899,109.89172 L 87.436149,109.29797 L 97.279899,105.82922 z M 85.498649,106.57922 L 86.654899,107.45422 L 86.654899,107.48547 L 84.623649,108.20422 L 83.561149,107.26672 L 85.498649,106.57922 z M 98.529899,106.61047 L 98.592399,106.64172 L 98.686149,107.64172 L 88.592399,111.23547 L 88.436149,110.14172 L 98.529899,106.61047 z M 101.7174,106.95422 L 102.74865,107.61047 L 99.967399,108.61047 L 98.998649,107.92297 L 101.7174,106.95422 z M 86.686149,107.79797 L 86.873649,109.14172 L 86.873649,109.17297 L 86.029899,109.45422 L 84.873649,108.42297 L 86.686149,107.79797 z M 102.99865,107.95422 L 102.9674,108.82922 L 100.31115,109.73547 L 100.24865,108.92297 L 102.99865,107.95422 z M 98.779899,107.98547 L 99.779899,108.67297 L 89.873649,112.20422 L 89.873649,112.17297 L 88.873649,111.48547 L 98.779899,107.98547 z M 100.12365,108.95422 L 100.18615,109.76672 L 89.967399,113.26672 L 89.904899,112.51672 L 100.12365,108.95422 z M 103.2174,109.07922 L 104.24865,109.61047 L 101.2799,110.64172 L 100.3424,110.11047 L 100.3424,110.04797 L 103.2174,109.07922 z M 87.217399,109.39172 L 88.092399,109.95422 L 87.029899,110.32922 L 86.311149,109.70422 L 87.217399,109.39172 z M 104.5299,109.89172 L 104.5299,110.89172 L 101.9674,111.76672 L 101.99865,111.04797 L 101.68615,110.89172 L 104.5299,109.89172 z M 100.2174,110.11047 L 100.2174,110.17297 L 101.1549,110.70422 L 91.186149,114.17297 L 90.092399,113.51672 L 100.2174,110.11047 z M 88.248649,110.20422 L 88.342399,111.29797 L 88.342399,111.32922 L 87.404899,111.64172 L 87.654899,110.89172 L 87.279899,110.54797 L 88.248649,110.20422 z M 101.56115,110.92297 L 101.7799,111.04797 L 101.74865,111.82922 L 91.592399,115.32922 L 91.623649,114.42297 L 91.592399,114.39172 L 101.56115,110.92297 z M 86.811149,111.20422 L 86.811149,116.73547 L 62.686149,125.45422 L 62.561149,120.01672 L 86.811149,111.20422 z M 88.686149,111.54797 L 89.748649,112.26672 L 87.436149,113.07922 L 87.436149,111.98547 L 88.686149,111.54797 z M 89.748649,112.57922 L 89.811149,113.32922 L 87.467399,114.11047 L 87.436149,113.39172 L 89.748649,112.57922 z M 89.904899,113.61047 L 91.029899,114.20422 L 87.467399,115.45422 L 87.467399,114.42297 L 89.904899,113.61047 z M 91.404899,114.45422 L 91.373649,115.39172 L 87.561149,116.70422 L 87.498649,115.82922 L 91.404899,114.45422 z"
       id="path2308" />
  </g>
</svg>
