<?xml version="1.0" encoding="UTF-8" standalone="no"?>
<!-- Created with Inkscape (http://www.inkscape.org/) -->
<svg
   xmlns:dc="http://purl.org/dc/elements/1.1/"
   xmlns:cc="http://creativecommons.org/ns#"
   xmlns:rdf="http://www.w3.org/1999/02/22-rdf-syntax-ns#"
   xmlns:svg="http://www.w3.org/2000/svg"
   xmlns="http://www.w3.org/2000/svg"
   xmlns:xlink="http://www.w3.org/1999/xlink"
   xmlns:sodipodi="http://sodipodi.sourceforge.net/DTD/sodipodi-0.dtd"
   xmlns:inkscape="http://www.inkscape.org/namespaces/inkscape"
   width="128"
   height="128"
   id="svg2"
   sodipodi:version="0.32"
   inkscape:version="0.45+devel"
   version="1.0"
   sodipodi:docname="windmill.svg"
   inkscape:output_extension="org.inkscape.output.svg.inkscape">
  <defs
     id="defs4">
    <linearGradient
       id="linearGradient2338">
      <stop
         style="stop-color:#b1b1b1;stop-opacity:1;"
         offset="0"
         id="stop2340" />
      <stop
         style="stop-color:#e4e4e4;stop-opacity:1;"
         offset="1"
         id="stop2342" />
    </linearGradient>
    <linearGradient
       id="linearGradient2320">
      <stop
         style="stop-color:#6a3c1d;stop-opacity:1;"
         offset="0"
         id="stop2322" />
      <stop
         style="stop-color:#8f5127;stop-opacity:1;"
         offset="1"
         id="stop2324" />
    </linearGradient>
    <linearGradient
       id="linearGradient3049">
      <stop
         style="stop-color:#cfc7a9;stop-opacity:1;"
         offset="0"
         id="stop3051" />
      <stop
         style="stop-color:#eeebe0;stop-opacity:1;"
         offset="1"
         id="stop3053" />
    </linearGradient>
    <linearGradient
       id="linearGradient3332">
      <stop
         id="stop3334"
         offset="0"
         style="stop-color:#bb8f56;stop-opacity:1;" />
      <stop
         id="stop3336"
         offset="1"
         style="stop-color:#d1af63;stop-opacity:1;" />
    </linearGradient>
    <linearGradient
       inkscape:collect="always"
       xlink:href="#linearGradient2338"
       id="linearGradient3114"
       x1="59.38168"
       y1="119.92751"
       x2="85.80072"
       y2="97.300102"
       gradientUnits="userSpaceOnUse" />
    <linearGradient
       inkscape:collect="always"
       xlink:href="#linearGradient2338"
       id="linearGradient3118"
       x1="26.296728"
       y1="103.72139"
       x2="47.762196"
       y2="121.94564"
       gradientUnits="userSpaceOnUse" />
    <linearGradient
       inkscape:collect="always"
       xlink:href="#linearGradient2320"
       id="linearGradient3123"
       x1="35.805405"
       y1="43.935135"
       x2="51.545944"
       y2="88.389191"
       gradientUnits="userSpaceOnUse" />
    <linearGradient
       inkscape:collect="always"
       xlink:href="#linearGradient2320"
       id="linearGradient3129"
       x1="16.648649"
       y1="110.61622"
       x2="17.124325"
       y2="111.09189"
       gradientUnits="userSpaceOnUse" />
    <linearGradient
       inkscape:collect="always"
       xlink:href="#linearGradient2320"
       id="linearGradient3133"
       x1="14.745946"
       y1="115.24324"
       x2="21.405405"
       y2="109.23243"
       gradientUnits="userSpaceOnUse" />
    <linearGradient
       inkscape:collect="always"
       xlink:href="#linearGradient2320"
       id="linearGradient3139"
       x1="23.567568"
       y1="107.63243"
       x2="24.475676"
       y2="107.67567"
       gradientUnits="userSpaceOnUse" />
    <linearGradient
       inkscape:collect="always"
       xlink:href="#linearGradient2320"
       id="linearGradient3143"
       x1="25.210812"
       y1="109.36216"
       x2="26.205406"
       y2="109.4054"
       gradientUnits="userSpaceOnUse" />
    <linearGradient
       inkscape:collect="always"
       xlink:href="#linearGradient2320"
       id="linearGradient3147"
       x1="33.470272"
       y1="111.78378"
       x2="34.291893"
       y2="111.82703"
       gradientUnits="userSpaceOnUse" />
    <linearGradient
       inkscape:collect="always"
       xlink:href="#linearGradient2320"
       id="linearGradient3153"
       x1="35.545944"
       y1="112.90811"
       x2="35.805405"
       y2="112.90811"
       gradientUnits="userSpaceOnUse" />
    <linearGradient
       inkscape:collect="always"
       xlink:href="#linearGradient2320"
       id="linearGradient3157"
       x1="25.556757"
       y1="102.05405"
       x2="41.513514"
       y2="102.05405"
       gradientUnits="userSpaceOnUse" />
    <linearGradient
       inkscape:collect="always"
       xlink:href="#linearGradient2320"
       id="linearGradient3161"
       x1="27.286486"
       y1="104.12973"
       x2="26.94054"
       y2="105.47027"
       gradientUnits="userSpaceOnUse" />
    <linearGradient
       inkscape:collect="always"
       xlink:href="#linearGradient2320"
       id="linearGradient3165"
       x1="38.486488"
       y1="105.55676"
       x2="37.924324"
       y2="104.64865"
       gradientUnits="userSpaceOnUse" />
    <linearGradient
       inkscape:collect="always"
       xlink:href="#linearGradient2320"
       id="linearGradient3170"
       x1="27.200001"
       y1="107.67567"
       x2="28"
       y2="108.32433"
       gradientUnits="userSpaceOnUse" />
    <linearGradient
       inkscape:collect="always"
       xlink:href="#linearGradient2320"
       id="linearGradient3174"
       x1="37.405407"
       y1="108.97298"
       x2="37.967567"
       y2="109.42703"
       gradientUnits="userSpaceOnUse" />
    <linearGradient
       id="linearGradient3098">
      <stop
         id="stop3100"
         offset="0"
         style="stop-color:#9e2612;stop-opacity:1;" />
      <stop
         id="stop3102"
         offset="1"
         style="stop-color:#bd5032;stop-opacity:1;" />
    </linearGradient>
    <linearGradient
       inkscape:collect="always"
       xlink:href="#linearGradient3098"
       id="linearGradient3290"
       x1="46.3125"
       y1="11.875"
       x2="58.6875"
       y2="30.4375"
       gradientUnits="userSpaceOnUse" />
    <linearGradient
       inkscape:collect="always"
       xlink:href="#linearGradient2320"
       id="linearGradient3294"
       x1="43.0625"
       y1="62.8125"
       x2="35.0625"
       y2="50"
       gradientUnits="userSpaceOnUse" />
    <linearGradient
       inkscape:collect="always"
       xlink:href="#linearGradient2320"
       id="linearGradient3298"
       x1="37.918602"
       y1="93.793709"
       x2="32.968853"
       y2="86.280701"
       gradientUnits="userSpaceOnUse" />
    <linearGradient
       inkscape:collect="always"
       xlink:href="#linearGradient2320"
       id="linearGradient3915"
       x1="65.875"
       y1="91.375"
       x2="81.241219"
       y2="48.389191"
       gradientUnits="userSpaceOnUse" />
    <linearGradient
       inkscape:collect="always"
       xlink:href="#linearGradient2320"
       id="linearGradient3919"
       x1="68.324326"
       y1="81.643242"
       x2="63.913513"
       y2="98.76757"
       gradientUnits="userSpaceOnUse" />
    <linearGradient
       inkscape:collect="always"
       xlink:href="#linearGradient2320"
       id="linearGradient3923"
       x1="80.605408"
       y1="52.497295"
       x2="77.23243"
       y2="73.167564"
       gradientUnits="userSpaceOnUse" />
    <linearGradient
       inkscape:collect="always"
       xlink:href="#linearGradient2320"
       id="linearGradient3927"
       x1="63.394596"
       y1="43.589191"
       x2="60.454056"
       y2="61.31892"
       gradientUnits="userSpaceOnUse" />
    <linearGradient
       inkscape:collect="always"
       xlink:href="#linearGradient3098"
       id="linearGradient3931"
       x1="60.849403"
       y1="24.341969"
       x2="72.530045"
       y2="14.679449"
       gradientUnits="userSpaceOnUse" />
    <linearGradient
       inkscape:collect="always"
       xlink:href="#linearGradient3098"
       id="linearGradient3935"
       x1="67.454163"
       y1="17.125656"
       x2="68.677269"
       y2="18.073563"
       gradientUnits="userSpaceOnUse" />
    <linearGradient
       inkscape:collect="always"
       xlink:href="#linearGradient2320"
       id="linearGradient3939"
       x1="68.310341"
       y1="20.917278"
       x2="73.936615"
       y2="15.596777"
       gradientUnits="userSpaceOnUse" />
    <linearGradient
       inkscape:collect="always"
       xlink:href="#linearGradient3332"
       id="linearGradient3947"
       x1="54.380997"
       y1="100.38448"
       x2="102.46523"
       y2="10.611501"
       gradientUnits="userSpaceOnUse" />
    <linearGradient
       inkscape:collect="always"
       xlink:href="#linearGradient3049"
       id="linearGradient3958"
       x1="43.75"
       y1="41.09375"
       x2="46.875"
       y2="35.78125"
       gradientUnits="userSpaceOnUse" />
    <linearGradient
       inkscape:collect="always"
       xlink:href="#linearGradient2320"
       id="linearGradient3962"
       x1="72.1875"
       y1="55.375"
       x2="71.4375"
       y2="57.5625"
       gradientUnits="userSpaceOnUse" />
    <linearGradient
       inkscape:collect="always"
       xlink:href="#linearGradient3049"
       id="linearGradient3985"
       x1="58.307045"
       y1="81.897995"
       x2="63.37027"
       y2="84.828125"
       gradientUnits="userSpaceOnUse" />
    <linearGradient
       inkscape:collect="always"
       xlink:href="#linearGradient3049"
       id="linearGradient3996"
       x1="89.432564"
       y1="74.596291"
       x2="92.470497"
       y2="72.144623"
       gradientUnits="userSpaceOnUse" />
    <linearGradient
       inkscape:collect="always"
       xlink:href="#linearGradient3049"
       id="linearGradient4007"
       x1="83.729767"
       y1="28.600878"
       x2="87.359375"
       y2="30.626169"
       gradientUnits="userSpaceOnUse" />
    <linearGradient
       inkscape:collect="always"
       xlink:href="#linearGradient2320"
       id="linearGradient4011"
       x1="29.5"
       y1="89.625"
       x2="40.75"
       y2="101.625"
       gradientUnits="userSpaceOnUse" />
    <filter
       inkscape:collect="always"
       id="filter4106">
      <feGaussianBlur
         inkscape:collect="always"
         stdDeviation="1.5627868"
         id="feGaussianBlur4108" />
    </filter>
  </defs>
  <sodipodi:namedview
     id="base"
     pagecolor="#ffffff"
     bordercolor="#666666"
     borderopacity="1.0"
     gridtolerance="10000"
     guidetolerance="10"
     objecttolerance="10"
     inkscape:pageopacity="0.0"
     inkscape:pageshadow="2"
     inkscape:zoom="1"
     inkscape:cx="31.711712"
     inkscape:cy="12.108108"
     inkscape:document-units="px"
     inkscape:current-layer="layer2"
     showgrid="false"
     width="744.09px"
     inkscape:window-width="1248"
     inkscape:window-height="975"
     inkscape:window-x="426"
     inkscape:window-y="24"
     showguides="true"
     inkscape:guide-bbox="true" />
  <metadata
     id="metadata7">
    <rdf:RDF>
      <cc:Work
         rdf:about="">
        <dc:format>image/svg+xml</dc:format>
        <dc:type
           rdf:resource="http://purl.org/dc/dcmitype/StillImage" />
      </cc:Work>
    </rdf:RDF>
  </metadata>
  <g
     inkscape:groupmode="layer"
     id="layer2"
     inkscape:label="colors">
    <path
       style="fill:#000000;fill-opacity:0.66666669000000001;fill-rule:evenodd;stroke:none;stroke-width:1px;stroke-linecap:butt;stroke-linejoin:miter;stroke-opacity:1;filter:url(#filter4106)"
       d="M 69.4375,64.28125 L 64.770881,76.93824 L 63.232852,74.23134 L 62.844742,74.275959 L 63.33468,74.097482 C 63.33468,74.097482 45.497079,67.36845 45.011811,67.077389 C 44.968631,67.05149 44.828922,67.128299 44.678122,67.255866 L 24.804327,65.337239 L 15.293414,73.45794 L 16.504039,74.052863 L 10.782478,71.970632 L 9.59793,72.669666 L 12.01618,73.621544 L 11.375898,75.19809 L 8.423351,74.469309 L 7.9625376,75.718648 L 10.441303,76.35819 L 9.484458,78.232198 L 6.016818,77.235702 L 5.0278018,78.261944 L 16.181737,81.177068 L 20.063212,103.72506 L 13.621264,109.73554 L 17.882958,114.49276 L 8.665012,119.32042 L 10.563184,119.45428 L 11.065216,119.30555 L 11.071262,119.32042 L 16.009703,115.9139 L 21.196994,116.91353 L 21.874043,118.16419 L 24.177904,118.79712 L 33.581939,120.51636 L 32.424074,122.13038 L 35.136529,122.34411 L 36.854325,121.75856 L 47.159059,123.90964 L 53.364936,123.13402 L 54.15625,123.3125 L 88.633528,108.95998 L 84.068073,108.26094 L 83.330168,108.29069 L 75.172813,89.717835 L 74.849281,89.152655 L 96.583768,99.492134 L 97.707848,98.644374 L 95.325888,97.781734 L 96.325008,96.472904 L 98.592088,97.052954 L 99.093198,96.056454 L 97.066058,95.297924 L 97.897858,93.884984 L 100.76976,94.569144 L 101.67809,93.959354 L 85.864422,88.959306 L 72.017129,84.185047 L 68.659297,83.735237 L 83.689295,66.437846 L 80.955452,66.170131 L 79.940216,67.285612 L 76.492702,66.64607 L 77.318405,65.679319 L 75.18339,65.039777 L 74.462514,66.110639 L 71.539186,65.530589 L 71.760062,64.459727 L 69.4375,64.28125 z"
       id="path4013"
       sodipodi:nodetypes="cccccsccccccccccccccccccccccccccccccccccccccccccccccccccccccccccccc" />
    <path
       style="fill:url(#linearGradient3114);fill-opacity:1;fill-rule:evenodd;stroke:none;stroke-width:1px;stroke-linecap:butt;stroke-linejoin:miter;stroke-opacity:1"
       d="M 60.727095,104.27179 L 87.81884,94.853892 L 87.390754,93.753099 L 88.185771,93.691943 L 92.466634,95.159668 L 96.07479,107.9411 L 52.165369,125.30917 L 51.431507,124.94224 L 51.614973,108.61381 L 56.323922,109.22536 L 55.528904,111.97734 L 58.280888,112.77236 L 60.727095,104.27179 z"
       id="path3112" />
    <path
       style="fill:url(#linearGradient3118);fill-opacity:1;fill-rule:evenodd;stroke:none;stroke-width:1px;stroke-linecap:butt;stroke-linejoin:miter;stroke-opacity:1"
       d="M 25.134779,95.954685 L 20.792762,99.868617 L 17.918468,115.15741 L 51.064576,124.75878 L 51.920749,108.12457 L 43.219751,103.13229 L 26.663659,101.03057 L 28.437159,100.05208 L 25.012469,98.706668 L 25.134779,95.954685 z"
       id="path3116"
       sodipodi:nodetypes="cccccccccc" />
    <path
       style="fill:url(#linearGradient3123);fill-opacity:1;fill-rule:evenodd;stroke:none;stroke-width:1px;stroke-linecap:butt;stroke-linejoin:miter;stroke-opacity:1"
       d="M 28.713514,100.02162 L 27.2,99.545946 L 27.416216,98.291892 L 25.383784,97.6 L 31.351351,36.497297 L 35.762162,22.616216 L 53.491892,28.410811 L 52.367568,86.875676 L 42.378378,104.43243 L 28.713514,100.02162 z"
       id="path3121" />
    <path
       style="fill:url(#linearGradient3129);fill-opacity:1;fill-rule:evenodd;stroke:none;stroke-width:1px;stroke-linecap:butt;stroke-linejoin:miter;stroke-opacity:1"
       d="M 7.9567568,119.48108 L 23.221622,102.65946 L 23.783784,102.44324 L 23.135135,105.21081 L 9.8162162,119.74054 L 7.9567568,119.48108 z"
       id="path3127" />
    <path
       style="fill:url(#linearGradient3133);fill-opacity:1;fill-rule:evenodd;stroke:none;stroke-width:1px;stroke-linecap:butt;stroke-linejoin:miter;stroke-opacity:1"
       d="M 10.508108,118.96216 L 23.351351,104.73514 L 22.745946,108.62703 L 18.291892,115.11351 L 10.378378,119.48108 L 10.508108,118.96216 z"
       id="path3131" />
    <path
       style="fill:url(#linearGradient3139);fill-opacity:1;fill-rule:evenodd;stroke:none;stroke-width:1px;stroke-linecap:butt;stroke-linejoin:miter;stroke-opacity:1"
       d="M 24.216216,98.075676 L 21.621622,118.22703 L 24.172973,118.83243 L 26.205405,98.421622 L 27.197429,98.164243 L 25.386641,97.410603 L 24.216216,98.075676 z"
       id="path3137"
       sodipodi:nodetypes="ccccccc" />
    <path
       style="fill:url(#linearGradient3143);fill-opacity:1;fill-rule:evenodd;stroke:none;stroke-width:1px;stroke-linecap:butt;stroke-linejoin:miter;stroke-opacity:1"
       d="M 26.205405,98.335135 L 25.167568,105.94595 L 24.216216,118.87568 L 25.72973,118.18378 L 27.372973,98.162162 L 26.205405,98.335135 z"
       id="path3141" />
    <path
       style="fill:url(#linearGradient3147);fill-opacity:1;fill-rule:evenodd;stroke:none;stroke-width:1px;stroke-linecap:butt;stroke-linejoin:miter;stroke-opacity:1"
       d="M 33.72973,100.84324 L 33.081081,108.23784 L 32.648649,121.38378 L 35.32973,122.24865 L 34.940541,108.36757 L 35.113514,105.21081 L 35.805405,101.40541 L 37.189189,100.88649 L 34.767568,100.19459 L 33.72973,100.84324 z"
       id="path3145" />
    <path
       style="fill:url(#linearGradient3153);fill-opacity:1;fill-rule:evenodd;stroke:none;stroke-width:1px;stroke-linecap:butt;stroke-linejoin:miter;stroke-opacity:1"
       d="M 35.805405,101.40541 L 34.983784,105.55676 L 34.897297,108.75676 L 35.113514,122.20541 L 36.756757,121.42703 L 36.237838,107.89189 L 36.583784,104.25946 L 37.232432,100.8 L 35.805405,101.40541 z"
       id="path3151" />
    <path
       style="fill:url(#linearGradient3157);fill-rule:evenodd;stroke:none;stroke-width:1px;stroke-linecap:butt;stroke-linejoin:miter;stroke-opacity:1"
       d="M 31.437838,98.594595 L 27.156757,101.01622 L 27.113514,102.05405 L 25.556757,102.48649 L 26.118919,102.83243 L 34.983784,105.51351 L 41.513514,101.36216 L 31.437838,98.594595 z"
       id="path3155" />
    <path
       style="fill:url(#linearGradient3161);fill-opacity:1;fill-rule:evenodd;stroke:none;stroke-width:1px;stroke-linecap:butt;stroke-linejoin:miter;stroke-opacity:1"
       d="M 23.524324,102.52973 L 23.264865,104.73514 L 34.940541,108.41081 L 35.027027,105.55676 L 23.524324,102.52973 z"
       id="path3159" />
    <path
       style="fill:url(#linearGradient3165);fill-opacity:1;fill-rule:evenodd;stroke:none;stroke-width:1px;stroke-linecap:butt;stroke-linejoin:miter;stroke-opacity:1"
       d="M 34.897297,105.55676 C 35.32973,105.42703 42.075676,101.1027 42.075676,101.1027 L 42.205405,103.56757 L 34.940541,108.67027 L 34.767568,108.28108 L 34.897297,105.55676 z"
       id="path3163" />
    <path
       style="fill:url(#linearGradient3170);fill-opacity:1;fill-rule:evenodd;stroke:none;stroke-width:1px;stroke-linecap:butt;stroke-linejoin:miter;stroke-opacity:1"
       d="M 26.291892,108.45405 L 28.237838,106.33514 L 29.794595,106.81081 L 26.205405,110.78919 L 26.291892,108.45405 z"
       id="path3168" />
    <path
       style="fill:url(#linearGradient3174);fill-opacity:1;fill-rule:evenodd;stroke:none;stroke-width:1px;stroke-linecap:butt;stroke-linejoin:miter;stroke-opacity:1"
       d="M 36.281081,110.22703 C 36.713514,109.92432 38.486487,106.59459 38.486487,106.59459 L 39.87027,105.68649 L 40.389189,105.9027 L 36.367568,113.16757 L 36.281081,110.22703 z"
       id="path3172" />
    <path
       style="fill:url(#linearGradient3290);fill-opacity:1;fill-rule:evenodd;stroke:none;stroke-width:1px;stroke-linecap:butt;stroke-linejoin:miter;stroke-opacity:1"
       d="M 33.5625,20.5625 L 46.375,3.4999997 L 65.6875,7.5624997 L 53.375,28.375 L 35.3125,22.8125 L 33.5625,20.5625 z"
       id="path3288" />
    <path
       style="fill:url(#linearGradient3294);fill-opacity:1;fill-rule:evenodd;stroke:none;stroke-width:1px;stroke-linecap:butt;stroke-linejoin:miter;stroke-opacity:1"
       d="M 31.25,51.5625 L 30.4375,62.9375 L 50.5,65.6875 L 51,53.625 L 31.25,51.5625 z"
       id="path3292" />
    <path
       style="fill:url(#linearGradient3298);fill-opacity:1;fill-rule:evenodd;stroke:none;stroke-width:1px;stroke-linecap:butt;stroke-linejoin:miter;stroke-opacity:1"
       d="M 31.996582,98.478292 L 32.703689,86.2807 L 42.514795,88.667185 L 42.072854,101.30672 L 31.996582,98.478292 z"
       id="path3296" />
    <path
       style="fill:#000000;fill-opacity:0.15686275;fill-rule:evenodd;stroke:none;stroke-width:1px;stroke-linecap:butt;stroke-linejoin:miter;stroke-opacity:1"
       d="M 46.375,3.5 L 33.5625,20.5625 L 35.3125,22.8125 L 35.65625,22.90625 L 31.34375,36.5 L 25.125,95.96875 L 20.78125,99.875 L 19.46875,106.78125 L 7.96875,119.46875 L 9.8125,119.75 L 18.125,115.21875 L 21.875,116.3125 L 21.625,118.21875 L 24.1875,118.84375 L 25.71875,118.1875 L 25.78125,117.4375 L 32.71875,119.4375 L 32.65625,121.375 L 35.125,122.1875 L 35.125,122.21875 L 35.1875,122.1875 L 35.34375,122.25 L 36.75,121.4375 L 36.71875,120.59375 L 51.0625,124.75 L 51.90625,108.125 L 43.21875,103.125 L 43.125,103.125 L 52.375,86.875 L 53.5,28.40625 L 53.375,28.375 L 65.6875,7.5625 L 46.375,3.5 z"
       id="path3300"
       sodipodi:nodetypes="ccccccccccccccccccccccccccccccccc" />
    <path
       style="fill:url(#linearGradient4011);fill-rule:evenodd;stroke:none;stroke-width:1px;stroke-linecap:butt;stroke-linejoin:miter;stroke-opacity:1;fill-opacity:1"
       d="M 29.5,99.125 L 30.5,83.75 L 45.25,87.125 L 44.25,100.625 L 42.5,104 L 42,103.375 L 42.5,88.75 L 32.625,86.25 L 32,98.625 L 29.5,99.125 z"
       id="path4009" />
    <path
       style="fill:url(#linearGradient3915);fill-opacity:1;fill-rule:evenodd;stroke:none;stroke-width:1px;stroke-linecap:butt;stroke-linejoin:miter;stroke-opacity:1"
       d="M 87.5625,94.75 L 61,104.0625 L 52.25,86.375 L 53.5625,28.6875 L 81.1875,22.1875 L 85.25,73.625 L 87.5625,94.75 z"
       id="path3913" />
    <path
       style="fill:url(#linearGradient3919);fill-opacity:1;fill-rule:evenodd;stroke:none;stroke-width:1px;stroke-linecap:butt;stroke-linejoin:miter;stroke-opacity:1"
       d="M 61.664865,101.1027 L 71.264865,98.162162 L 68.843243,74.032432 L 61.664865,101.1027 z"
       id="path3917" />
    <path
       style="fill:url(#linearGradient3923);fill-opacity:1;fill-rule:evenodd;stroke:none;stroke-width:1px;stroke-linecap:butt;stroke-linejoin:miter;stroke-opacity:1"
       d="M 74.118919,76.713513 L 73.6,62.097297 L 76.886487,49.47027 L 80.864865,46.097297 L 83.45946,74.118919 L 74.118919,76.713513 z"
       id="path3921" />
    <path
       style="fill:url(#linearGradient3927);fill-opacity:1;fill-rule:evenodd;stroke:none;stroke-width:1px;stroke-linecap:butt;stroke-linejoin:miter;stroke-opacity:1"
       d="M 67.286487,61.405405 L 57.772973,63.654054 L 57.427027,35.372973 L 64.778378,33.643243 L 67.286487,61.405405 z"
       id="path3925" />
    <path
       style="fill:url(#linearGradient3931);fill-opacity:1;fill-rule:evenodd;stroke:none;stroke-width:1px;stroke-linecap:butt;stroke-linejoin:miter;stroke-opacity:1"
       d="M 53.327318,28.2559 C 53.327318,28.2559 65.497199,6.5458103 65.86413,7.1573621 C 66.231061,7.7689139 81.336391,21.895761 81.336391,21.895761 L 80.663684,22.385002 L 53.633094,28.683986 L 53.327318,28.2559 z"
       id="path3929" />
    <path
       style="fill:url(#linearGradient3935);fill-opacity:1;fill-rule:evenodd;stroke:none;stroke-width:1px;stroke-linecap:butt;stroke-linejoin:miter;stroke-opacity:1"
       d="M 66.720303,12.905949 L 69.900372,15.535622 L 65.86413,22.996554 L 65.130268,23.241175 L 66.720303,12.905949 z"
       id="path3933" />
    <path
       style="fill:url(#linearGradient3939);fill-opacity:1;fill-rule:evenodd;stroke:none;stroke-width:1px;stroke-linecap:butt;stroke-linejoin:miter;stroke-opacity:1"
       d="M 65.558354,23.118864 L 69.778062,15.596777 L 73.936614,21.161899 L 65.558354,23.118864 z"
       id="path3937" />
    <path
       id="path3941"
       d="M 66.720303,12.905949 L 69.900372,15.535622 L 65.86413,22.996554 L 65.130268,23.241175 L 66.720303,12.905949 z"
       style="fill:#000000;fill-opacity:0.15686275;fill-rule:evenodd;stroke:none;stroke-width:1px;stroke-linecap:butt;stroke-linejoin:miter;stroke-opacity:1" />
    <path
       style="fill:url(#linearGradient3947);fill-rule:evenodd;stroke:none;stroke-width:1px;stroke-linecap:butt;stroke-linejoin:miter;stroke-opacity:1"
       d="M 29.660263,17.431433 L 68.554958,52.351041 L 69.411131,51.250248 L 71.245786,50.516386 L 73.325062,50.45523 L 91.426996,1.2864647 L 93.689737,1.6533958 L 93.01703,3.9161375 L 95.707858,5.1392411 L 96.869807,2.8764994 L 98.765618,4.2219134 L 97.542514,6.2400344 L 100.72258,7.5854484 L 102.19031,5.2615515 L 104.81998,5.8119481 L 76.933218,51.739489 L 77.483614,53.146058 L 77.728235,54.308007 L 77.483614,56.203817 L 96.258255,72.043009 L 114.05441,87.63758 L 112.89246,88.921839 L 110.32395,87.454115 L 108.91738,90.450719 L 110.62972,92.040753 L 109.71239,94.12003 L 107.69427,92.896926 L 106.16539,95.648909 L 108.18352,97.483565 L 106.71579,99.257065 L 76.199356,61.279697 L 74.487011,62.01356 L 71.857338,61.707784 L 67.882251,76.996579 L 58.464353,112.65005 L 55.59006,112.09965 L 55.956991,109.28651 L 50.63649,108.18572 L 50.024938,110.9377 L 46.477938,109.83691 L 47.823352,107.26839 L 44.215196,106.35107 L 42.564006,108.12457 L 40.729351,107.45186 L 67.63763,60.790456 L 66.108751,59.261576 L 65.802975,58.038473 L 21.343158,30.640952 L 22.749727,28.50052 L 25.807486,30.579796 L 27.519832,26.665865 L 25.318245,25.320451 L 26.296728,22.690778 L 28.926401,24.219658 L 30.210659,20.917278 L 28.192538,18.899157 L 29.660263,17.431433 z"
       id="path3945" />
    <path
       style="fill:url(#linearGradient3958);fill-rule:evenodd;stroke:none;stroke-width:1px;stroke-linecap:butt;stroke-linejoin:miter;stroke-opacity:1"
       d="M 31.8125,21.5 L 29.75,25.0625 L 48.8125,40.3125 L 50.0625,38.3125 L 31.8125,21.5 z M 28.75,27.25 L 27.0625,31.375 L 46.6875,44 L 48,41.8125 L 28.75,27.25 z M 51.8125,39.9375 L 50.8125,41.6875 L 66.625,54.4375 L 67.4375,53.5 L 51.8125,39.9375 z M 49.8125,43.3125 L 48.6875,45.25 L 65.4375,56.1875 L 65.8125,55.375 L 49.8125,43.3125 z"
       id="path3949" />
    <path
       style="fill:url(#linearGradient3962);fill-opacity:1;fill-rule:evenodd;stroke:none;stroke-width:1px;stroke-linecap:butt;stroke-linejoin:miter;stroke-opacity:1"
       d="M 76.375,55.8125 L 71.25,53.9375 L 69.5,55.0625 L 68.9375,56.8125 L 69.25,58.625 L 73.4375,60.0625 L 75.125,59.5 L 76.6875,58.375 L 76.875,57.125 L 76.375,55.8125 z"
       id="path3960" />
    <path
       style="fill:#000000;fill-opacity:0.15686275;fill-rule:evenodd;stroke:none;stroke-width:1px;stroke-linecap:butt;stroke-linejoin:miter;stroke-opacity:1"
       d="M 76.5,56.1875 L 75.4375,56.125 L 73.75,57.25 L 73.1875,58.3125 L 73.5,60.0625 L 74.9375,59.625 L 76.5,58.375 L 76.8125,57.5 L 76.5,56.1875 z"
       id="path3964" />
    <path
       style="fill:url(#linearGradient3985);fill-rule:evenodd;stroke:none;stroke-width:1px;stroke-linecap:butt;stroke-linejoin:miter;stroke-opacity:1;fill-opacity:1"
       d="M 68.21875 61.21875 L 59.15625 77.84375 L 61.40625 78.875 L 68.65625 61.375 L 68.21875 61.21875 z M 69.59375 61.59375 L 62.875 79.125 L 65.65625 79.71875 L 70.1875 61.75 L 69.59375 61.59375 z M 58.1875 79.40625 L 44.125 104.59375 L 48.65625 105.84375 L 60.5 80.1875 L 58.1875 79.40625 z M 62.09375 80.5625 L 51.5 106.15625 L 57.5 108.4375 L 65.28125 81.46875 L 62.09375 80.5625 z "
       id="path3974" />
    <path
       style="fill:none;fill-rule:evenodd;stroke:none;stroke-width:1px;stroke-linecap:butt;stroke-linejoin:miter;stroke-opacity:1"
       d="M 62.8373,79.179842 L 69.606034,61.591793 L 70.139005,61.858279 L 65.662047,79.659516 L 62.8373,79.179842 z"
       id="path3978" />
    <path
       style="fill:url(#linearGradient3996);fill-rule:evenodd;stroke:none;stroke-width:1px;stroke-linecap:butt;stroke-linejoin:miter;stroke-opacity:1;fill-opacity:1"
       d="M 77.875 57.5 L 77.71875 59.1875 L 88.6875 69.53125 L 89.8125 68.40625 L 77.875 57.5 z M 77.59375 59.78125 L 77 60.40625 L 86.5 71.4375 L 87.5625 70.53125 L 77.59375 59.78125 z M 91.3125 69.59375 L 90.1875 70.90625 L 108.125 89.15625 L 109.625 86.09375 L 91.3125 69.59375 z M 89.0625 72 L 87.625 73.4375 L 105.09375 94.625 L 107.34375 91.65625 L 89.0625 72 z "
       id="path3987" />
    <path
       style="fill:url(#linearGradient4007);fill-rule:evenodd;stroke:none;stroke-width:1px;stroke-linecap:butt;stroke-linejoin:miter;stroke-opacity:1;fill-opacity:1"
       d="M 91.9375,5.40625 L 82.34375,30.53125 L 83.9375,31.3125 L 94.875,6.6875 L 91.9375,5.40625 z M 96.3125,7.34375 L 84.6875,31.625 C 84.6875,31.625 87.061662,32.832379 86.59375,32.53125 C 86.275009,32.326122 99.965374,8.8601605 100,8.875 L 96.3125,7.34375 z M 81.8125,32.21875 L 74.71875,50.625 L 75.15625,50.875 L 83.15625,33.0625 L 81.8125,32.21875 z M 83.875,33.40625 L 75.46875,51.03125 L 75.84375,51.3125 L 85.53125,34.1875 L 83.875,33.40625 z"
       id="path3998"
       sodipodi:nodetypes="cccccccscccccccccccc" />
  </g>
  <g
     inkscape:label="outline"
     inkscape:groupmode="layer"
     id="layer1">
    <path
       style="fill:#000000;fill-opacity:1;fill-rule:evenodd;stroke:none;stroke-width:1px;stroke-linecap:butt;stroke-linejoin:miter;stroke-opacity:1"
       d="M 91.28125,1.1875 C 88.298445,9.1530501 84.904595,18.44631 81.90625,26.40625 L 81.5,21.6875 L 65.71875,6.9375 L 46.125,3.25 L 33.25,20.28125 L 29.625,17.09375 L 27.71875,19.09375 L 29.96875,20.71875 L 28.625,23.75 C 28.455047,24.107079 27.025599,22.370355 26.34375,22.59375 C 25.486299,22.874678 25.36997,25.126054 25.15625,25.65625 L 27.1875,26.8125 L 25.6875,30.15625 L 22.625,28.0625 L 21.03125,30.78125 L 31.0625,36.6875 L 25.21875,95.46875 L 24.53125,95.8125 L 20.375,99.875 L 19.875,105.4375 L 7.59375,119.6875 L 10.1875,120.03125 L 17.875,115.5 L 21.78125,116.625 L 21.5,118.34375 L 24.375,119.28125 L 25.875,118.34375 L 25.9375,117.875 L 32.5,119.8125 L 32.4375,121.65625 L 35.28125,122.59375 L 36.875,121.5 L 36.875,121.09375 L 51.9375,125.53125 L 96.6875,108.3125 L 92.84375,94.96875 L 87.6875,92.90625 L 85.96875,74.125 L 106.71875,99.6875 L 108.5,97.375 L 106.375,95.5625 L 107.8125,93.21875 L 109.6875,94.34375 L 110.90625,91.9375 L 109.21875,90.34375 L 110.34375,87.8125 L 112.71875,89.25 L 114.4375,87.5625 L 111.75,85.40625 L 84.90625,61.78125 L 83.25,42.34375 L 105.03125,5.71875 L 102.03125,5.09375 L 100.5625,7.1875 L 97.90625,5.90625 L 98.9375,4.15625 L 96.71875,2.71875 L 95.71875,4.84375 L 93.34375,3.71875 L 93.96875,1.46875 L 91.28125,1.1875 z M 91.5625,1.5625 L 93.3125,1.84375 L 92.59375,4.125 L 95.90625,5.53125 L 96.84375,3.28125 L 98.5,4.15625 L 97.1875,6.375 L 100.65625,7.84375 C 100.85857,7.8698845 102.01644,5.5283704 102.21875,5.71875 L 104.28125,5.9375 L 76.46875,51.9375 C 77.118548,52.61667 77.625669,53.537263 77.5625,54.78125 C 77.555134,55.327292 77.352646,55.824845 77.21875,56.34375 L 113.625,87.625 L 112.53125,88.65625 L 110.15625,86.78125 L 108.53125,90.3125 L 110.375,92.0625 L 109.59375,93.78125 L 107.46875,92.625 L 105.75,95.5625 L 107.78125,97.4375 L 106.65625,98.90625 L 76.34375,60.96875 C 74.274287,62.055216 73.099078,61.965605 71.75,61.53125 L 58.3125,112.53125 L 55.875,111.90625 L 56.4375,108.875 L 50.5625,107.5625 L 49.875,110.5625 L 46.875,109.71875 L 48.34375,107.0625 L 44.125,106.125 L 42.5,107.6875 L 41.1875,107.3125 L 67.3125,61.65625 L 67.5,61.625 L 67.5,61.59375 L 67.40625,61.53125 L 67.84375,60.75 C 66.634145,59.760641 65.854835,58.858951 66.03125,57.625 L 21.8125,30.53125 L 22.6875,29.15625 L 25.90625,30.96875 L 27.9375,26.53125 L 25.65625,25.0625 L 26.5625,22.96875 L 29.09375,24.59375 L 30.96875,20.875 L 28.65625,18.875 L 29.6875,17.90625 L 68.53125,52.8125 C 69.307178,52.009928 69.844327,50.39742 73.65625,50.6875 C 79.559997,34.848448 85.568246,17.368665 91.5625,1.5625 z M 46.28125,4.09375 L 64.78125,7.6875 L 53.34375,27.84375 L 35.71875,22.34375 L 34.125,20.78125 L 46.28125,4.09375 z M 91.90625,5.1875 L 82.1875,30.6875 L 84.03125,31.59375 L 95.15625,6.53125 L 91.90625,5.1875 z M 92.25,5.84375 L 94.53125,6.75 L 83.875,31 L 82.6875,30.46875 L 92.25,5.84375 z M 47.46875,6.8125 L 45.9375,8.78125 L 44.59375,8.46875 L 44.4375,8.84375 L 45.40625,9.3125 L 40.59375,16 L 39.3125,15.625 L 39,16.03125 L 40.125,16.5625 L 38.4375,18.65625 L 38.78125,19 L 40.8125,16.84375 L 43.875,17.96875 L 44.1875,17.625 L 41.15625,16.3125 L 46.03125,9.5 L 50.34375,10.25 L 48.46875,12.8125 L 48.9375,12.90625 L 50.78125,10.40625 L 52.3125,10.65625 L 52.46875,10.40625 L 51.03125,9.8125 L 52.1875,8.125 L 51.75,7.90625 L 50.4375,9.6875 L 46.5,8.96875 L 47.875,7.1875 L 47.46875,6.8125 z M 96.09375,6.9375 L 84.40625,31.84375 L 86.625,32.71875 L 100.375,8.71875 L 96.09375,6.9375 z M 96.5,7.6875 L 99.46875,9.03125 L 86.5,32.1875 L 85.03125,31.5625 L 96.5,7.6875 z M 66,8 L 80.96875,21.875 L 53.84375,28.25 L 66,8 z M 61.9375,8.96875 L 61.03125,10.625 L 59,10.09375 L 58.9375,10.21875 L 60.6875,11.21875 L 58.5625,15.15625 L 56.25,14.125 L 56.78125,12.78125 L 56.46875,12.6875 L 55.65625,14 L 54.5625,13.75 L 54.25,14.03125 L 55.4375,14.46875 L 54,17.65625 L 52.25,16.84375 C 52.3967,16.559497 52.719157,15.678771 52.8125,15.46875 L 52.15625,15.75 C 52.05412,15.979795 51.877853,16.38143 51.6875,16.75 L 47.4375,15.8125 L 47.53125,16.1875 L 51.3125,17.34375 C 50.516561,18.796477 49.555349,20.539198 48.71875,21.96875 L 49,22.09375 C 50.007197,20.645561 51.262333,19.109381 51.71875,17.4375 L 54.0625,18.34375 L 54.9375,18.5625 L 54.3125,17.90625 L 55.9375,14.6875 L 58.28125,15.8125 L 57.59375,16.9375 L 58.4375,17.40625 L 59.0625,16 L 59.90625,16.09375 L 59.09375,15.53125 L 61.15625,11.59375 L 61.875,11.875 L 62.125,10.90625 L 61.5,10.875 L 62.21875,9.1875 L 61.9375,8.96875 z M 66.40625,11.96875 L 64.875,23.65625 L 74.4375,21.3125 L 70.03125,15.40625 L 66.40625,11.96875 z M 67.1875,14.375 L 69.46875,15.65625 L 65.4375,22.8125 L 67.1875,14.375 z M 71.875,14.59375 L 71.40625,14.875 L 75.53125,19.34375 L 74.375,19.75 L 74.4375,20.25 L 76.0625,19.90625 L 77.0625,21.09375 L 77.3125,20.6875 L 76.625,19.84375 L 77.65625,19.6875 L 77.53125,19.28125 L 76.1875,19.4375 L 71.875,14.59375 z M 69.71875,15.90625 L 70.6875,17.40625 L 70.6875,17.4375 L 70.84375,21.21875 L 68.75,21.71875 L 68.75,17.90625 L 69.71875,15.90625 z M 61.5,17.75 L 61.0625,18.0625 L 61.4375,19.21875 L 60.65625,19.59375 L 60.90625,19.84375 L 61.625,19.65625 L 62.875,23.375 L 59.84375,24.09375 L 58.90625,21.625 L 58.46875,21.75 L 59.34375,24.1875 L 58.34375,24.71875 L 58.4375,25.03125 L 59.53125,24.71875 L 59.96875,25.9375 L 60.4375,25.75 L 60.15625,24.5625 L 62.96875,23.6875 L 63.28125,24.59375 L 63.53125,24.46875 L 62.125,19.53125 L 63.75,19.09375 L 63.75,18.8125 L 62,19.03125 L 61.5,17.75 z M 71.15625,18.1875 L 72.78125,20.75 L 71.28125,21.125 L 71.15625,18.1875 z M 68.3125,18.78125 L 68.34375,21.8125 L 66.65625,22.21875 L 68.3125,18.78125 z M 54.96875,20.625 L 54.3125,21.875 L 51.75,21.0625 L 51.4375,21.5625 L 54,22.28125 L 52.5,25.4375 L 52.96875,25.5 L 54.4375,22.96875 L 55.78125,23.375 L 55.84375,22.90625 L 54.6875,22.3125 L 55.40625,20.875 L 54.96875,20.625 z M 31.5625,20.71875 L 29.5,25.3125 L 49.09375,40.71875 L 50.40625,38.28125 L 31.5625,20.71875 z M 31.875,22.34375 L 49.71875,38.28125 L 48.84375,39.875 L 30.46875,25.25 L 31.875,22.34375 z M 80.625,22.6875 L 81.125,28.46875 C 79.116321,33.819538 77.119384,39.196862 75.59375,43.28125 C 74.745406,45.552422 74.034759,47.476662 73.53125,48.84375 C 73.345553,49.347943 73.188563,49.683575 73.0625,50.03125 C 71.199837,50.254551 69.538886,50.371663 68.375,51.90625 L 66.40625,50.09375 L 64.8125,33.375 L 57.3125,35.21875 L 57.40625,41.875 L 53.875,38.65625 L 54,28.78125 L 80.625,22.6875 z M 37.46875,23.90625 L 53.03125,28.78125 L 52.875,37.78125 L 37.46875,23.90625 z M 75.28125,25.125 L 75,25.1875 L 75.875,32.03125 L 71.25,33.375 L 71.03125,31.125 L 70.75,31.1875 L 70.96875,33.46875 L 69.65625,33.84375 L 69.8125,34.03125 L 70.96875,33.6875 L 71.96875,44.59375 L 72.25,44.625 L 71.25,33.625 L 75.90625,32.25 L 76.21875,34.71875 L 76.5,34.6875 L 76.1875,32.1875 L 78.15625,31.59375 L 78.125,31.375 L 76.15625,31.9375 L 75.28125,25.125 z M 28.6875,26.875 L 26.5,31.84375 L 46.78125,44.21875 C 47.106083,43.422455 47.581947,42.405223 48.21875,41.90625 L 28.6875,26.875 z M 29.125,28.03125 L 47.65625,41.96875 L 46.6875,43.75 L 27.46875,31.46875 L 29.125,28.03125 z M 81.71875,32.09375 L 74.53125,50.71875 L 75.21875,51.0625 L 83.3125,32.9375 L 81.71875,32.09375 z M 81.90625,32.59375 L 82.78125,33.125 L 75.15625,50.71875 L 74.8125,50.65625 L 81.90625,32.59375 z M 83.8125,33.125 L 75.375,51.09375 L 75.9375,51.4375 L 85.8125,34 L 83.8125,33.125 z M 84.09375,33.59375 L 85.25,34.09375 L 75.875,51.1875 L 75.625,50.96875 L 84.09375,33.59375 z M 64.4375,33.71875 L 65.1875,41.59375 L 62.96875,42 L 62.375,34.4375 L 64.4375,33.71875 z M 61.75,34.65625 L 62.40625,42.125 L 60.34375,42.46875 L 59.84375,35.03125 L 61.75,34.65625 z M 59.53125,35.09375 L 59.78125,42.4375 L 58.1875,42.59375 L 57.84375,42.28125 L 57.625,35.5 L 59.53125,35.09375 z M 31.53125,36.9375 L 52.65625,50.09375 L 52.0625,86.46875 L 49.46875,90.96875 C 49.436841,89.648152 49.380579,86.785651 49.34375,83.9375 L 50.34375,84.125 L 50.40625,83.6875 L 49.34375,83.46875 C 49.337453,82.906666 49.3125,82.106635 49.3125,81.6875 L 49,81.625 C 49,82.127924 48.997076,82.701082 49,83.40625 L 45.90625,82.78125 L 46.15625,78.71875 L 49,79.1875 L 49.0625,78.875 L 46.1875,78.40625 L 46.375,75.15625 L 46,75.09375 L 45.78125,78.34375 L 37,76.875 L 36.9375,77.25 L 45.75,78.65625 L 45.5,82.6875 L 44.28125,82.4375 L 44.21875,82.9375 L 45.46875,83.1875 L 45.375,84.34375 L 45.8125,84.28125 L 45.875,83.25 L 49,83.875 C 49.015342,87.117287 49.057892,91.119121 49.0625,91.6875 L 44.40625,99.78125 L 45.1875,86.78125 L 30.0625,83.40625 L 29.34375,99.40625 L 28.96875,99.59375 L 27.5,99.3125 L 27.59375,98.09375 L 25.71875,97.65625 L 31.53125,36.9375 z M 51.75,39.5625 L 50.46875,41.6875 L 66.625,54.625 L 67.5,53.4375 L 51.75,39.5625 z M 34.125,40.0625 L 33.375,48 C 33.012036,47.930205 32.64109,47.849833 32.28125,47.78125 L 32.09375,48.09375 C 32.510535,48.182078 32.925327,48.263343 33.34375,48.34375 L 33.25,49.3125 L 33.5625,49.3125 L 33.625,48.40625 C 35.923384,48.838775 38.246412,49.166009 40.5625,49.5 L 40.5,50.46875 L 40.75,50.53125 L 40.8125,49.53125 C 41.312362,49.603467 41.813315,49.675728 42.3125,49.75 L 42.4375,49.5625 C 41.898283,49.491186 41.356635,49.395838 40.8125,49.3125 L 41,46.53125 L 40.75,46.46875 L 40.5625,49.28125 C 38.259279,48.92209 35.939033,48.470476 33.65625,48.03125 L 34.25,40.1875 L 34.125,40.0625 z M 51.90625,40.25 L 67.125,53.5625 L 66.75,54.25 L 51.0625,41.65625 L 51.90625,40.25 z M 65.21875,42.40625 L 65.9375,49.65625 L 63.375,47.34375 L 63.03125,42.75 L 65.21875,42.40625 z M 62.46875,42.875 L 62.78125,46.78125 L 60.40625,44.625 L 60.34375,43.21875 L 62.46875,42.875 z M 49.8125,42.96875 L 48.3125,45.1875 L 65.375,56.25 L 65.9375,55.3125 C 60.764972,51.007771 54.352983,47.122116 49.8125,42.96875 z M 59.71875,43 L 59.78125,44.0625 L 58.6875,43.0625 L 59.71875,43 z M 49.90625,43.6875 L 65.625,55.40625 L 65.34375,55.90625 L 49,45.21875 L 49.90625,43.6875 z M 82.4375,43.78125 L 83.875,60.84375 L 82.28125,59.625 L 81.09375,46.09375 L 82.4375,43.78125 z M 80.71875,46.625 L 81.375,54.125 L 79.25,54.71875 L 78.875,49.65625 L 80.71875,46.625 z M 78.3125,50.5625 L 78.65625,54.59375 L 77.84375,54.71875 C 77.942215,53.868606 77.965643,52.990071 77.28125,52.25 L 78.3125,50.5625 z M 53.65625,50.71875 L 57.5625,53.15625 L 57.71875,63.8125 L 66.5625,61.84375 L 52.5625,85.9375 L 53.65625,50.71875 z M 31.15625,51.25 L 30.03125,63.03125 L 50.6875,66 L 51.25,53.3125 L 31.15625,51.25 z M 31.59375,51.75 L 35.96875,52.25 L 35.5,57.75 L 31.1875,57.15625 L 31.59375,51.75 z M 36.34375,52.28125 L 40.8125,52.78125 L 40.3125,58.4375 L 35.84375,57.8125 L 36.34375,52.28125 z M 41.28125,52.8125 L 45.875,53.34375 L 45.59375,59.15625 L 40.78125,58.5 L 41.28125,52.8125 z M 57.9375,53.375 L 59.84375,54.5625 L 57.96875,54.875 L 57.9375,53.375 z M 46.4375,53.40625 L 50.75,53.875 L 50.4375,59.84375 L 46.0625,59.21875 L 46.4375,53.40625 z M 71.125,53.59375 C 69.303273,54.387038 67.782674,55.550025 69.15625,58.75 L 73.625,60.28125 C 77.380344,59.538176 77.346132,57.278683 76.59375,55.6875 L 71.125,53.59375 z M 71.3125,54.125 L 75.90625,55.8125 C 76.992577,56.528902 77.293536,58.730701 73.375,59.8125 L 69.625,58.40625 C 69.086581,57.358197 69.166968,55.128334 71.3125,54.125 z M 81.46875,55.125 L 81.875,59.3125 L 79.46875,57.5 L 79.3125,55.46875 L 81.46875,55.125 z M 60.4375,55.15625 L 60.96875,62.75 L 58.09375,63.34375 L 58,55.46875 L 60.4375,55.15625 z M 61.09375,55.34375 L 63.59375,56.90625 L 64,61.90625 L 61.53125,62.5 L 61.09375,55.34375 z M 78.71875,55.59375 L 78.8125,57 L 77.71875,56.15625 C 77.714636,56.028646 77.740219,55.885463 77.75,55.75 L 78.71875,55.59375 z M 75.53125,56 C 73.519473,56.333944 72.5632,57.651104 73.21875,59 L 73.46875,59.125 C 73.354318,57.881288 74.529704,56.956903 75.6875,56.03125 L 75.53125,56 z M 77.75,57.1875 C 77.663905,57.917053 77.825828,58.572105 77.65625,59.21875 L 88.65625,69.90625 L 90.09375,68.34375 L 77.75,57.1875 z M 64.21875,57.28125 L 65.5625,58.125 C 65.640494,58.91528 66.016889,59.727143 66.875,60.46875 L 66.9375,61.1875 L 64.625,61.84375 L 64.21875,57.28125 z M 31.15625,57.59375 L 35.46875,58.21875 L 35.03125,63.15625 L 30.78125,62.59375 L 31.15625,57.59375 z M 78.03125,57.90625 L 89.5,68.40625 L 88.71875,69.21875 L 77.90625,59.09375 L 78.03125,57.90625 z M 35.8125,58.28125 L 40.28125,58.9375 L 39.84375,63.78125 L 35.34375,63.1875 L 35.8125,58.28125 z M 40.75,59 L 45.5625,59.6875 L 45.3125,64.5 L 40.3125,63.84375 L 40.75,59 z M 77.53125,59.65625 C 77.558453,59.8286 77.142613,60.239435 76.84375,60.4375 L 86.625,71.9375 L 87.8125,70.625 C 84.351608,67.057381 81.233982,62.850153 77.53125,59.65625 z M 46.03125,59.75 L 50.4375,60.40625 L 50.1875,65.125 L 45.6875,64.53125 L 46.03125,59.75 z M 77.59375,60.03125 L 87.3125,70.4375 L 86.5,71.125 L 77.3125,60.46875 L 77.59375,60.03125 z M 66.9375,60.53125 C 67.024228,60.603518 67.090572,60.679418 67.1875,60.75 L 67.0625,60.96875 L 66.9375,60.53125 z M 68.15625,61.125 L 58.9375,78 L 61.5,79.0625 L 68.71875,61.40625 L 68.15625,61.125 z M 68.21875,61.375 L 68.5,61.5625 L 61.1875,78.59375 L 59.5,77.875 L 68.21875,61.375 z M 69.59375,61.53125 L 62.65625,79.25 L 65.78125,79.9375 L 70.28125,61.84375 L 69.59375,61.53125 z M 75.9375,61.5625 L 76.34375,62.0625 L 76.625,67.25 L 74.21875,67.625 L 74.15625,62.25 C 74.877636,62.117654 75.398672,61.771068 75.9375,61.5625 z M 69.65625,61.875 L 70.03125,61.90625 L 65.5625,79.4375 L 63.15625,79.03125 L 69.65625,61.875 z M 72.21875,62.0625 C 72.824375,62.267423 73.320272,62.302639 73.75,62.28125 L 73.96875,76.96875 L 83.78125,74.34375 L 83.3125,70.8125 L 84.84375,72.75 L 87.21875,94.5 C 78.521225,97.220807 69.954626,100.36682 61.34375,103.34375 L 61.96875,101.3125 L 71.40625,98.40625 L 69.0625,74 L 72.21875,62.0625 z M 55.46875,62.40625 L 55.21875,62.4375 L 55.15625,69.21875 L 53.90625,69.65625 L 53.90625,69.96875 L 55.125,69.53125 L 55.125,70.71875 L 55.34375,70.65625 L 55.375,69.4375 L 57.15625,68.78125 L 57.3125,75.6875 L 57.5,75.65625 L 57.4375,68.6875 L 60.8125,67.46875 L 60.625,67.25 L 57.4375,68.40625 L 57.40625,66.65625 L 57.125,66.65625 L 57.15625,68.5 L 55.375,69.125 L 55.46875,62.40625 z M 76.96875,62.84375 L 79.53125,66.09375 L 79.59375,66.9375 L 77.1875,67.34375 L 76.96875,62.84375 z M 36.25,64.8125 L 35.59375,70.5625 L 31.21875,69.6875 L 31.375,68.15625 L 31,68.15625 L 30.84375,69.625 L 30.21875,69.5 L 30.09375,69.8125 L 30.8125,69.96875 L 29.9375,78.71875 L 30.375,78.78125 L 31.1875,70.03125 L 35.5625,70.9375 L 35.375,72.5625 L 35.75,72.6875 L 35.9375,71 L 39.78125,71.8125 L 39.375,75.0625 L 39.6875,75.1875 L 40.09375,71.875 L 43.15625,72.5 L 43.34375,72.125 L 40.125,71.46875 L 40.3125,70 L 40,69.9375 L 39.8125,71.40625 L 35.96875,70.65625 L 36.5625,64.9375 L 36.25,64.8125 z M 80.4375,67.1875 L 82.875,70.25 L 83.1875,73.90625 L 80.90625,74.5625 L 80.25,67.21875 L 80.4375,67.1875 z M 79.65625,67.375 L 80.25,74.625 L 77.78125,75.375 L 77.3125,67.71875 L 79.65625,67.375 z M 76.6875,67.875 L 77.25,75.53125 L 74.28125,76.4375 L 74.25,68.1875 L 76.6875,67.875 z M 91.28125,69.375 L 89.84375,70.90625 L 108.25,89.78125 L 109.875,86.09375 L 91.28125,69.375 z M 91.34375,70.0625 L 109.09375,86.3125 L 108.03125,88.71875 L 90.4375,70.90625 L 91.34375,70.0625 z M 89.0625,71.71875 L 87.34375,73.53125 L 105.125,94.96875 L 107.65625,91.625 L 90,72.65625 L 89.0625,71.71875 z M 89.0625,72.25 L 106.84375,91.5625 L 104.96875,94.28125 L 87.84375,73.53125 L 89.0625,72.25 z M 68.75,75.25 L 69,78.15625 L 67.90625,78.46875 L 68.75,75.25 z M 80.75,77.625 L 80.46875,77.6875 L 80.6875,79.375 L 79.25,79.78125 L 79.375,80.09375 L 80.75,79.71875 L 81.5,85.21875 L 77.15625,86.71875 L 76.375,81.875 L 76.03125,81.90625 L 76.8125,86.84375 L 75.78125,87.1875 L 76,87.46875 L 76.875,87.1875 L 77.6875,92.3125 L 78.09375,92.59375 L 77.21875,87.0625 L 81.5625,85.59375 L 81.8125,87.40625 L 82.15625,87.25 L 81.90625,85.5 L 83.9375,84.8125 L 83.71875,84.4375 L 81.84375,85.09375 L 81.03125,79.625 L 83.8125,78.84375 L 83.65625,78.5625 L 81,79.3125 L 80.75,77.625 z M 58.1875,79.15625 L 43.84375,104.78125 L 48.71875,106.15625 L 60.8125,80.0625 L 58.1875,79.15625 z M 69.09375,79.15625 L 70.21875,90.59375 L 67.8125,90.875 L 67.09375,81.53125 L 67.65625,79.375 L 69.09375,79.15625 z M 58.375,79.75 L 59.96875,80.34375 C 56.069907,88.557753 52.460672,97.298343 48.46875,105.46875 L 44.78125,104.53125 L 58.375,79.75 z M 61.96875,80.3125 L 50.84375,106.75 L 57.84375,108.75 L 65.5,81.25 L 61.96875,80.3125 z M 62.25,81 L 64.96875,81.6875 L 57.46875,107.9375 L 51.8125,106.21875 L 62.25,81 z M 66.625,83.34375 L 67.21875,90.96875 L 64.8125,91.375 L 64.78125,90.34375 L 66.625,83.34375 z M 30.8125,84.1875 L 44.46875,87.5 L 43.78125,100.90625 L 42.3125,103.4375 L 42.71875,88.53125 L 32.46875,85.9375 L 31.71875,98.1875 L 30.03125,99.0625 L 30.8125,84.1875 z M 32.96875,86.59375 L 42.1875,89.0625 L 41.75,100.90625 L 32.25,98.46875 L 32.96875,86.59375 z M 33.90625,87.28125 L 33,92.21875 L 35.5,89.96875 L 33.34375,95.4375 L 36.6875,91.46875 L 34.15625,98.34375 L 38.4375,92.78125 L 36.1875,99.03125 L 36.25,98.96875 L 39.875,94.15625 L 38.1875,99.4375 L 40.4375,97.1875 L 40.4375,99.71875 L 41.5,94.71875 L 39.21875,97.34375 L 41.5,91 L 38.15625,94.84375 L 40.625,89.84375 L 35.8125,94.90625 L 38.5625,88.96875 L 35.125,92.15625 L 37.21875,88.1875 L 33.59375,90.90625 L 33.90625,87.28125 z M 70.1875,90.9375 L 70.8125,97.9375 L 68.53125,98.59375 L 67.875,91.25 L 70.1875,90.9375 z M 67.28125,91.40625 L 67.90625,98.875 L 65.40625,99.65625 L 64.9375,91.75 L 67.28125,91.40625 z M 64.3125,92.03125 L 64.9375,99.90625 L 62.0625,100.75 L 64.3125,92.03125 z M 87.65625,93.96875 L 90.03125,95.03125 L 86.84375,96.25 L 85.625,95.78125 C 86.489314,95.477929 87.353908,95.176266 88.21875,94.875 L 87.65625,93.96875 z M 91.90625,95.40625 L 92.40625,97.1875 L 88.25,98.71875 L 87.6875,96.9375 L 91.90625,95.40625 z M 85.3125,95.90625 L 86.5,96.40625 L 77.75,99.78125 L 76.25,99.125 C 79.271028,98.047311 82.287321,96.968773 85.3125,95.90625 z M 87.40625,97.0625 L 87.8125,98.90625 L 78.8125,102.21875 L 78.09375,100.46875 L 87.40625,97.0625 z M 25,97.15625 L 24.9375,97.59375 L 24.40625,97.6875 L 25,97.15625 z M 92.5,97.5 L 93.1875,99.9375 L 84.84375,103.125 L 84.15625,100.59375 L 92.5,97.5 z M 25.21875,97.65625 L 26.9375,98.21875 L 26.28125,98.3125 L 24.59375,97.875 L 25.21875,97.65625 z M 24.28125,98.125 L 26,98.65625 L 25.34375,102.4375 L 23.96875,102.3125 L 24.28125,98.125 z M 23.84375,98.15625 L 23.78125,99 L 22.9375,99.75 L 22.34375,99.46875 L 23.84375,98.15625 z M 27.15625,98.40625 L 26.90625,102 L 25.875,102.1875 L 26.3125,98.625 L 27.15625,98.40625 z M 31.5,99.1875 L 36.8125,100.625 L 34.6875,100.15625 L 33.46875,100.59375 L 33.15625,104.53125 L 26.125,102.5625 L 27.25,102.09375 L 27.3125,101.21875 L 31.5,99.1875 z M 75.75,99.28125 L 77.15625,100 L 65.53125,104.46875 L 65.375,104.46875 L 63.84375,103.53125 C 67.812188,102.11972 71.781533,100.69751 75.75,99.28125 z M 23.75,99.34375 L 23.6875,100.09375 L 23.21875,99.875 L 23.75,99.34375 z M 27.4375,100.03125 L 27.90625,100.1875 L 27.375,100.46875 L 27.4375,100.03125 z M 21,100.0625 L 22.8125,100.6875 L 22.21875,103.15625 L 21.90625,103.375 L 20.65625,103.03125 L 21,100.0625 z M 93.25,100.1875 L 94,102.875 L 90.5625,104.25 L 89.34375,101.6875 L 93.25,100.1875 z M 35,100.40625 L 36.8125,100.9375 L 35.96875,101.15625 L 34.25,100.71875 L 35,100.40625 z M 77.8125,100.5625 L 78.40625,102.375 L 66.21875,106.875 L 65.78125,104.96875 L 77.8125,100.5625 z M 22.96875,100.71875 L 23.59375,100.9375 L 23.5,102.25 L 22.78125,102.75 L 22.96875,100.71875 z M 83.78125,100.71875 L 84.4375,103.28125 L 73.625,107.40625 L 73.0625,104.6875 L 83.78125,100.71875 z M 37.34375,100.78125 L 40.53125,101.65625 L 36.71875,103.875 L 37.34375,100.78125 z M 33.875,101.03125 L 35.625,101.46875 L 35,104.875 L 34.8125,105 L 33.59375,104.65625 L 33.875,101.03125 z M 36.90625,101.09375 L 36.375,104.0625 L 35.53125,104.5625 L 35.9375,101.53125 L 36.90625,101.09375 z M 41.84375,101.625 L 41.875,103.09375 L 35.0625,108.25 L 35.28125,105.75 L 41.84375,101.625 z M 89.0625,101.78125 L 90.28125,104.34375 L 80.5,108.25 L 79.8125,105.3125 L 89.0625,101.78125 z M 23.3125,102.875 L 23.09375,104.5 L 10.09375,119.03125 L 8.625,119.375 L 23.3125,102.875 z M 23.6875,102.875 L 34.75,106 L 34.65625,108.09375 L 23.46875,104.59375 L 23.6875,102.875 z M 94.09375,103.25 L 94.71875,105.5 L 86.71875,108.71875 L 85.8125,106.53125 L 94.09375,103.25 z M 20.59375,103.53125 L 21.375,103.75 L 20.5,104.375 L 20.59375,103.53125 z M 63.375,103.6875 L 65.0625,104.65625 L 60.34375,106.46875 L 61.03125,104.53125 C 61.813359,104.25432 62.593082,103.96544 63.375,103.6875 z M 41.90625,104.34375 L 41.28125,105.40625 L 40.71875,105.21875 L 41.90625,104.34375 z M 72.71875,104.8125 L 73.1875,107.5625 L 61.84375,111.875 L 61.4375,109 L 72.71875,104.8125 z M 23.5,105.03125 L 24.96875,105.5 L 24.03125,118.40625 L 21.8125,118.03125 L 23.5,105.03125 z M 65.4375,105.09375 L 65.78125,107.0625 L 59.65625,109.3125 L 60.40625,106.9375 L 65.4375,105.09375 z M 79.40625,105.46875 L 80.125,108.375 L 67.90625,113.25 L 67.34375,110.09375 L 79.40625,105.46875 z M 25.53125,105.6875 L 26.34375,105.875 L 25.875,112.75 L 25.84375,112.75 L 25.84375,113.125 L 25.53125,118 L 24.46875,118.5625 L 25.53125,105.6875 z M 94.84375,105.90625 L 95.28125,107.5 L 92.3125,108.71875 L 91.65625,107.1875 L 94.84375,105.90625 z M 39.71875,105.96875 L 40.125,106.0625 L 36.53125,112.46875 L 36.4375,110.25 L 38.53125,106.875 L 39.71875,105.96875 z M 26.875,106.09375 L 27.6875,106.34375 L 26.75,107.625 L 26.875,106.09375 z M 40.4375,106.15625 L 41.09375,106.34375 L 40.4375,107.65625 L 42.6875,108.375 L 44.3125,106.53125 L 44.71875,106.65625 L 43.90625,109.9375 L 39.1875,108.53125 L 40.4375,106.15625 z M 22.71875,106.3125 L 22.53125,108.21875 L 20.46875,111.28125 L 18.125,114.6875 L 11.15625,118.625 L 22.71875,106.3125 z M 28.34375,106.5625 L 29.125,106.8125 L 26.5625,109.9375 L 26.6875,108.5625 L 28.34375,106.5625 z M 85.53125,106.625 L 86.28125,108.875 L 75.40625,113.25 L 74.78125,110.875 L 85.53125,106.625 z M 45,106.75 L 47.46875,107.53125 L 46.1875,110 L 50.21875,111.25 L 50.75,108.96875 L 51.3125,109.15625 L 51.15625,112.0625 L 44.28125,110.03125 L 45,106.75 z M 30.125,107.125 L 32.9375,108 L 32.84375,111.03125 L 29.4375,110.15625 L 30.125,107.125 z M 29.59375,107.3125 L 28.96875,110.03125 L 27.65625,109.6875 L 29.59375,107.3125 z M 91.34375,107.3125 L 91.96875,108.84375 L 82.28125,112.78125 L 81.8125,111.15625 L 91.34375,107.3125 z M 37.8125,107.40625 L 36.40625,109.59375 L 36.34375,108.5 L 37.8125,107.40625 z M 33.40625,108.125 L 34.625,108.5 L 34.75,121.71875 L 32.9375,121.15625 L 33.40625,108.125 z M 36.0625,108.53125 L 36.5,121.375 L 35.40625,121.875 L 35.28125,108.9375 L 36.0625,108.53125 z M 39.15625,109 L 47.78125,111.53125 L 47.3125,114.65625 L 38.25,112.375 L 39.15625,109 z M 61.03125,109.125 L 61.4375,112.03125 L 51.875,115.65625 C 51.913716,114.59359 51.934591,113.55791 51.96875,112.53125 L 55.4375,111.21875 L 55.09375,112.25 L 58.5625,112.875 L 59.5625,109.6875 L 61.03125,109.125 z M 52.0625,109.25 L 53.96875,109.28125 L 54.1875,109.34375 L 54.125,111.375 L 52,112.15625 C 52.030814,111.16914 52.06166,110.17474 52.0625,109.25 z M 22.4375,109.3125 L 22.21875,111.78125 L 21.125,111.46875 C 21.726684,110.40668 22.250153,109.47928 22.4375,109.3125 z M 54.34375,109.375 L 55.9375,109.78125 L 55.59375,110.84375 L 54.53125,111.25 L 54.34375,109.375 z M 38.625,109.5625 L 37.96875,112.3125 L 37.28125,112.15625 L 38.625,109.5625 z M 27.40625,109.96875 L 32.75,111.375 L 31.78125,114.375 L 26.3125,112.875 L 26.46875,111.125 L 27.40625,109.96875 z M 66.90625,110.25 L 67.40625,113.4375 L 56.0625,117.96875 L 55.625,114.5625 L 66.90625,110.25 z M 74.34375,111.0625 L 74.90625,113.4375 L 63.25,118.125 L 62.875,115.59375 L 74.34375,111.0625 z M 81.5,111.28125 L 81.96875,112.90625 L 69.21875,118.09375 L 68.84375,116.34375 L 81.5,111.28125 z M 48.03125,111.59375 L 51.15625,112.53125 L 51,115.59375 L 47.65625,114.75 L 48.03125,111.59375 z M 20.9375,111.8125 L 22.1875,112.15625 L 22.03125,114.03125 L 19.96875,113.40625 C 20.304331,112.8912 20.629255,112.34932 20.9375,111.8125 z M 32.78125,112.15625 L 32.6875,114.65625 L 32.15625,114.5 L 32.78125,112.15625 z M 37.09375,112.5 L 42.8125,114 L 42.09375,117.21875 L 36.65625,115.75 L 36.5625,113.53125 L 37.09375,112.5 z M 26.28125,113.25 L 26.65625,113.34375 L 26.125,115.28125 L 26.28125,113.25 z M 27.03125,113.46875 L 32.6875,114.96875 L 32.59375,117.25 L 26.59375,115.40625 L 27.03125,113.46875 z M 19.78125,113.6875 L 20.3125,113.84375 L 19.65625,115.34375 L 18.65625,115.09375 C 19.014035,114.7785 19.388892,114.26729 19.78125,113.6875 z M 20.625,113.96875 L 22,114.375 L 21.84375,115.9375 L 19.8125,115.40625 L 20.625,113.96875 z M 43.03125,114.0625 L 50.96875,116.15625 L 50.8125,119.59375 L 42.46875,117.3125 L 43.03125,114.0625 z M 55.40625,114.65625 L 55.65625,118.125 L 51.8125,119.65625 C 51.823422,118.43634 51.831952,117.21545 51.875,116 L 55.40625,114.65625 z M 26.09375,115.59375 L 31.03125,117.0625 L 30.21875,118.59375 L 25.96875,117.1875 L 26.09375,115.59375 z M 62.5625,115.71875 L 62.875,118.28125 L 51.84375,122.71875 C 51.809908,121.81631 51.807578,120.89133 51.8125,119.96875 L 62.5625,115.71875 z M 36.65625,116.0625 L 37.0625,116.15625 L 36.75,117.96875 L 36.65625,116.0625 z M 37.46875,116.25 L 46.46875,118.6875 L 46.09375,121.34375 L 36.9375,118.5625 L 37.46875,116.25 z M 68.4375,116.53125 L 68.65625,118.3125 L 56.96875,123.0625 L 56.8125,121.1875 L 68.4375,116.53125 z M 31.25,117.125 L 32.59375,117.53125 L 32.53125,119.375 L 30.5625,118.71875 L 31.25,117.125 z M 36.78125,118.78125 L 41.53125,120.21875 L 41.125,121.625 L 36.84375,120.375 L 36.78125,118.78125 z M 46.8125,118.78125 L 50.78125,119.84375 L 50.65625,122.71875 L 46.4375,121.4375 L 46.8125,118.78125 z M 41.9375,120.34375 L 50.625,122.9375 L 50.5625,124.40625 L 41.53125,121.75 L 41.9375,120.34375 z M 56.53125,121.3125 L 56.4375,123.28125 L 51.96875,125.09375 C 51.909438,124.46561 51.874195,123.83577 51.84375,123.1875 L 56.53125,121.3125 z"
       id="path2310" />
  </g>
</svg>
