<?xml version="1.0" encoding="UTF-8" standalone="no"?>
<!DOCTYPE svg PUBLIC "-//W3C//DTD SVG 1.0//EN"
"http://www.w3.org/TR/2001/REC-SVG-20010904/DTD/svg10.dtd">
<!-- Created with Sodipodi ("http://www.sodipodi.com/") -->
<svg
   xmlns="http://www.w3.org/2000/svg"
   xmlns:xlink="http://www.w3.org/1999/xlink"
   version="1.0"
   x="0"
   y="0"
   width="437.5"
   height="437.5"
   id="svg32">
  <defs
     id="defs34">
    <linearGradient
       id="linearGradient60">
      <stop
         style="stop-color:#ffffb2;stop-opacity:0.9608;"
         offset="0"
         id="stop61" />
      <stop
         style="stop-color:#000000;stop-opacity:0.4588;"
         offset="1"
         id="stop62" />
    </linearGradient>
    <linearGradient
       id="linearGradient57">
      <stop
         style="stop-color:#ffff9f;stop-opacity:0.9608;"
         offset="0"
         id="stop58" />
      <stop
         style="stop-color:#000000;stop-opacity:0.4588;"
         offset="1"
         id="stop59" />
    </linearGradient>
    <linearGradient
       id="linearGradient129">
      <stop
         style="stop-color:#ffffff;stop-opacity:0.6235;"
         offset="0"
         id="stop130" />
      <stop
         style="stop-color:#000000;stop-opacity:0.4588;"
         offset="1"
         id="stop131" />
    </linearGradient>
    <linearGradient
       x1="0.55910498"
       y1="-8.35283995e-2"
       x2="0.54952103"
       y2="0.93294001"
       id="linearGradient132"
       xlink:href="#linearGradient129" />
    <linearGradient
       x1="0.87784803"
       y1="0.38285699"
       x2="1.41960001e-2"
       y2="0.38857099"
       id="linearGradient142"
       xlink:href="#linearGradient129" />
    <linearGradient
       x1="1.45453"
       y1="0.50857103"
       x2="6.61232024e-2"
       y2="0.54285699"
       id="linearGradient48"
       xlink:href="#linearGradient129" />
    <linearGradient
       x1="0.49308601"
       y1="0.42857099"
       x2="0.57143998"
       y2="0.51428598"
       id="linearGradient49"
       xlink:href="#linearGradient129" />
    <linearGradient
       x1="0.45062399"
       y1="0.42857099"
       x2="0.40768901"
       y2="0.47428599"
       id="linearGradient50"
       xlink:href="#linearGradient129" />
    <linearGradient
       x1="-0.33721501"
       y1="0.54857099"
       x2="0.46689001"
       y2="0.56"
       id="linearGradient53"
       xlink:href="#linearGradient129" />
    <linearGradient
       x1="1.09466004"
       y1="0.125"
       x2="0.41306201"
       y2="0.8125"
       id="linearGradient54"
       xlink:href="#linearGradient129" />
  </defs>
  <path
     d="M 36.96426 331.5807 C 39.72946 347.1627 22.74836 349.3287 20.58246 355.8257 C 35.89026 366.8507 -3.863537 383.6507 3.545663 388.5897 C 8.806063 393.1927 87.01646 424.7137 99.87046 425.9397 C 178.5815 441.1217 341.9214 430.2707 371.8084 416.1107 C 407.6234 395.9507 425.7344 393.7647 431.4354 384.0027 C 428.0604 375.9077 396.4014 360.8037 403.2604 354.5157 C 397.5454 347.3727 372.9124 348.1127 378.3594 332.8917 C 361.0954 327.9587 374.9874 332.8597 362.6334 323.7177 C 358.0174 322.5637 356.8144 312.5777 352.1484 312.5777 C 310.0604 284.3257 104.6875 293.5757 61.20946 317.1657 C 55.00746 329.4987 44.21046 329.1657 36.96426 331.5807 z "
     style="font-size:12;fill:#42aa44;fill-opacity:1;fill-rule:evenodd;"
     id="path19" />
  <path
     d="M 69.98873 367.1832 C 76.10235 379.9282 43.04089 411.2632 54.51271 416.8212 C 185.8174 403.5332 225.719 394.8132 297.9597 419.7692 C 306.2818 413.7212 378.4606 368.5902 361.3581 364.2352 C 334.9139 360.3032 175.2579 359.2122 69.98873 367.1832 z "
     style="font-size:12;fill-opacity:0.226601;fill-rule:evenodd;"
     id="path20" />
  <path
     d="M 72.31315 346.8514 C 72.31315 327.8714 74.93315 296.6134 74.93315 284.6004 C 74.93315 278.0484 72.31215 191.5525 72.31215 184.9995 C 72.31215 182.6305 74.93415 183.8925 74.93415 182.3785 C 78.75115 178.5615 214.8161 66.61426 220.6221 66.61426 C 294.2311 115.5415 299.0931 112.4825 306.4631 125.1505 C 328.5231 135.6355 364.3491 166.6525 371.7711 177.1365 C 373.6731 180.9405 371.0381 185.2325 369.8051 188.9315 C 368.8681 196.4245 361.9421 281.6404 361.9421 287.8764 C 360.9871 294.5624 361.9421 331.0254 361.9421 342.9194 C 361.9421 347.0694 361.8021 356.0244 361.2871 364.5434 C 348.1811 363.8874 324.2551 365.2784 318.6941 363.8884 C 293.7941 364.5434 270.3981 362.7704 246.6151 362.5774 C 246.9721 352.0934 247.2691 306.6614 247.2691 299.6714 C 247.2691 293.5554 248.0521 254.9184 248.0521 250.8404 C 247.2861 249.3094 191.7851 248.6224 182.2711 249.9324 C 182.4731 255.2754 179.8821 292.8054 179.7761 299.6714 C 179.7761 313.8694 178.9681 354.8684 179.1211 365.1984 C 164.9691 365.0624 109.2261 365.8544 103.1101 365.8544 C 93.28115 365.8544 83.45215 365.8544 73.62315 365.8544 C 71.95415 365.0194 72.31315 352.2874 72.31315 346.8514 z "
     style="font-size:12;fill:#9b6200;fill-opacity:1;fill-rule:evenodd;stroke:#000000;"
     id="path12" />
  <path
     d="M 12.02775 204.6585 C 14.79485 209.6085 11.19865 205.3125 22.51205 215.1414 C 28.42855 221.6754 32.01065 209.3545 38.23915 207.2785 C 101.9421 162.8255 220.4091 67.38206 258.3031 37.78296 C 255.1341 36.19866 249.0151 29.80536 246.4111 27.20176 C 243.8431 27.20176 227.7831 38.06826 216.4721 46.08246 C 118.2511 118.1625 86.72815 135.6085 12.02775 204.6585 z "
     style="font-size:12;fill:#9b5e00;fill-opacity:1;fill-rule:evenodd;stroke:#000000;"
     id="path13" />
  <path
     d="M 73.16384 214.706 C 82.14264 218.749 97.02131 215.43 104.9577 215.796 C 113.8259 216.109 158.405 217.891 171.8523 216.452 C 182.8997 216.996 251.8129 215.798 271.0293 217.108 C 295.579 218.681 343.5017 216.453 366.56 215.797 C 367.7671 202.204 369.2351 205.313 369.0792 195.484 C 347.1877 196.911 332.3888 199.416 310.4755 199.416 C 297.9577 198.124 212.9739 199.416 200.448 199.416 C 185.2809 199.416 72.5425 198.018 72.5425 195.047 C 74.78285 195.047 72.12473 204.558 73.16384 214.706 z "
     style="font-size:12;fill:url(#linearGradient132);fill-opacity:1;fill-rule:evenodd;stroke:#412900;stroke-width:0.89858;"
     id="path17" />
  <path
     d="M 72.63539 194.8292 C 81.6142 198.8722 99.11392 196.4272 107.0503 196.7932 C 115.9185 197.1062 163.1186 200.6352 176.5658 199.1962 C 187.6133 199.7402 248.2267 200.2902 266.5695 198.5422 C 291.1191 200.1152 329.8677 199.6342 368.6526 196.7942 C 370.7334 184.0752 370.0172 186.7472 371.1718 176.9182 C 349.2803 178.3452 334.4815 178.6662 312.5682 179.5392 C 300.0503 178.2472 215.0665 179.1022 202.5406 179.1022 C 187.3735 179.1022 79.8773 179.8892 79.8773 176.9182 C 82.11764 176.9182 70.72255 179.8762 72.63539 194.8292 z "
     style="font-size:12;fill:url(#linearGradient132);fill-opacity:1;fill-rule:evenodd;stroke:#6b3400;stroke-width:0.89858;"
     id="path18" />
  <path
     d="M 73.50902 230.8571 C 82.48783 234.9001 97.80332 232.0181 105.7397 232.3841 C 114.6079 232.6971 210.2984 234.0421 223.7457 232.6031 C 247.4612 231.8371 287.9797 235.8811 307.1961 237.1911 C 328.2511 234.8321 342.9733 233.4781 366.0315 232.8221 C 365.0545 220.5401 366.9593 224.9591 366.3666 215.1301 C 344.4751 216.5571 316.5706 218.1881 294.6573 218.1881 C 282.1394 216.8961 213.7559 216.0041 201.23 216.0041 C 186.0629 216.0041 82.93515 218.1011 73.32452 215.1301 C 73.81746 220.3721 72.46983 222.0191 73.50902 230.8571 z "
     style="font-size:12;fill:url(#linearGradient132);fill-opacity:1;fill-rule:evenodd;stroke:#360000;stroke-width:0.89858;"
     id="path21" />
  <path
     d="M 73.61398 251.1824 C 76.36707 255.2254 81.73284 252.7804 84.16631 253.1464 C 86.88548 253.4594 100.5544 255.2414 104.6776 253.8024 C 108.065 254.3464 129.1952 253.1484 135.0873 254.4584 C 142.6147 256.0314 157.3089 253.8034 164.379 253.1474 C 165.6867 240.8654 165.3332 242.6634 165.1515 232.8344 C 158.4391 234.2614 153.4647 233.7084 146.7456 233.7084 C 142.9074 232.4164 115.9759 232.3984 112.1352 232.3984 C 107.4846 232.3984 73.76136 234.0584 73.76136 231.0874 C 74.4483 231.0874 72.49167 240.5974 73.61398 251.1824 z "
     style="font-size:12;fill:url(#linearGradient132);fill-opacity:1;fill-rule:evenodd;stroke:#361c00;stroke-width:0.497574;"
     id="path22" />
  <path
     d="M 266.3296 251.8377 C 269.3364 255.8807 275.1966 253.4357 277.8544 253.8017 C 280.8241 254.1147 295.7527 255.8967 300.2559 254.4577 C 303.9554 255.0017 327.0329 253.8037 333.4681 255.1137 C 341.6892 256.6867 355.9901 254.4587 363.7118 253.8027 C 365.1401 241.5207 366.5012 243.3187 366.3028 233.4897 C 356.3509 232.2957 352.2687 233.4897 344.9304 233.4897 C 340.7385 232.1977 310.095 237.4217 305.9004 237.4217 C 285.0948 235.2377 265.5363 236.4607 265.5363 233.4897 C 266.7234 235.2377 265.1038 241.2527 266.3296 251.8377 z "
     style="font-size:12;fill:url(#linearGradient132);fill-opacity:1;fill-rule:evenodd;stroke:#2b0000;stroke-width:0.519996;"
     id="path23" />
  <path
     d="M 74.48766 270.8405 C 77.24075 274.8835 81.73284 272.4385 84.16631 272.8045 C 86.88548 273.1175 107.9808 276.2105 112.104 274.7715 C 115.4914 275.3155 129.1952 272.8065 135.0873 274.1165 C 142.6147 275.6895 157.3089 273.4615 164.379 272.8055 C 165.6867 260.5235 165.3332 262.3215 165.1515 252.4925 C 158.4391 253.9195 154.7751 255.5505 148.0561 255.5505 C 144.2178 254.2585 117.7231 253.8035 113.8823 253.8035 C 109.2318 253.8035 74.19822 254.5895 74.19822 251.6185 C 74.88515 251.6185 74.23907 260.6925 74.48766 270.8405 z "
     style="font-size:12;fill:url(#linearGradient132);fill-opacity:1;fill-rule:evenodd;stroke:#2c0000;stroke-width:0.497574;"
     id="path25" />
  <path
     d="M 74.72645 289.6251 C 77.5576 293.6681 80.01759 290.7861 82.52006 291.1521 C 85.31633 291.4651 103.7412 293.2471 109.292 292.6821 C 112.7754 293.2261 128.8257 291.1541 134.8849 292.4641 C 142.6258 294.0371 158.1734 291.8091 165.0071 288.9691 C 166.3519 276.6871 164.241 282.4161 164.0542 272.5871 C 157.1515 274.0141 154.2325 274.7721 147.3229 274.7721 C 143.3758 273.4801 116.5792 274.7721 112.6296 274.7721 C 107.8472 274.7721 80.96903 272.0641 75.72692 272.1511 C 75.12281 279.1401 74.88285 279.0401 74.72645 289.6251 z "
     style="font-size:12;fill:url(#linearGradient132);fill-opacity:1;fill-rule:evenodd;stroke:#000000;stroke-width:0.504579;"
     id="path26" />
  <path
     d="M 74.50341 307.0981 C 77.31504 311.1411 79.30016 309.1331 81.78537 309.4991 C 84.56236 309.8121 98.52193 311.5941 102.7328 310.1551 C 106.1922 310.6991 127.7718 309.5011 133.7893 310.8111 C 141.4768 312.3841 157.3569 310.1561 164.5774 309.5001 C 165.913 297.2181 165.5519 298.5791 165.3663 288.7501 C 158.5112 290.1771 153.0034 293.1191 146.1415 293.1191 C 142.2216 291.8271 115.6097 293.1191 111.6873 293.1191 C 106.9379 293.1191 75.07221 292.5951 75.07221 289.6241 C 75.77375 289.6241 73.35724 296.5131 74.50341 307.0981 z "
     style="font-size:12;fill:url(#linearGradient132);fill-opacity:1;fill-rule:evenodd;stroke:#230000;stroke-width:0.502837;"
     id="path27" />
  <path
     d="M 73.6297 326.7571 C 76.44134 330.8001 79.30016 327.4811 81.78537 327.8471 C 84.56236 328.1601 98.52193 329.9421 102.7328 328.5031 C 106.1922 329.0471 124.277 330.4701 133.7893 329.1591 C 141.4768 330.7321 156.4834 328.0671 164.1408 325.2271 C 165.4763 312.9452 164.2414 318.6752 164.0558 308.8462 C 157.2007 310.2732 153.0034 311.4672 146.1415 311.4672 C 142.2216 310.1752 115.6097 310.1562 111.6873 310.1562 C 106.9379 310.1562 75.07221 310.5062 75.07221 307.5352 C 75.77375 307.5352 72.48353 316.1722 73.6297 326.7571 z "
     style="font-size:12;fill:url(#linearGradient132);fill-opacity:1;fill-rule:evenodd;stroke:#000000;stroke-width:0.502837;"
     id="path28" />
  <path
     d="M 72.30298 344.2301 C 77.2403 345.6521 80.42185 345.8281 82.85531 346.1941 C 85.57448 346.5071 101.8645 349.1631 105.9877 347.7241 C 109.3751 348.2681 127.8842 346.1961 133.7763 347.5061 C 141.3037 349.0791 155.9979 346.4141 162.1943 344.4481 C 163.502 332.1661 164.0222 335.7111 163.8405 325.8821 C 157.1281 327.3091 152.5904 329.8141 145.8713 329.8141 C 142.0331 328.5221 115.9753 329.8141 112.1346 329.8141 C 107.4841 329.8141 73.32408 329.2901 73.32408 326.3191 C 74.01101 326.3191 72.05436 333.6451 72.30298 344.2301 z "
     style="font-size:12;fill:url(#linearGradient132);fill-opacity:1;fill-rule:evenodd;stroke:#310000;stroke-width:0.497574;"
     id="path29" />
  <path
     d="M 72.95851 364.3251 C 75.7116 368.3681 79.76683 365.4871 82.2003 365.8531 C 84.91947 366.1661 98.58836 366.6371 102.7116 365.1981 C 106.0989 365.7421 127.2292 364.5441 133.1213 365.8541 C 140.6487 367.4271 155.3428 365.1991 162.413 364.5431 C 163.7207 352.2611 163.3672 354.0591 163.1854 344.2301 C 156.4731 345.6571 151.9354 348.1621 145.2163 348.1621 C 141.3781 346.8701 115.3203 348.1621 111.4796 348.1621 C 106.8291 348.1621 72.66906 346.3271 72.66906 343.3561 C 73.356 343.3561 71.8362 353.7401 72.95851 364.3251 z "
     style="font-size:12;fill:url(#linearGradient132);fill-opacity:1;fill-rule:evenodd;stroke:#240000;stroke-width:0.497574;"
     id="path30" />
  <path
     d="M 266.3085 270.1853 C 269.2372 274.2283 276.2559 271.7833 278.8446 272.1493 C 281.7372 272.4623 305.4519 275.5553 309.8381 274.1163 C 313.4417 274.6603 326.7464 272.1513 333.0144 273.4613 C 341.0221 275.0343 355.3432 272.8063 362.8644 272.1503 C 364.2556 259.8683 364.3164 263.4133 364.1231 253.5843 C 356.9824 255.0113 353.0289 255.7693 345.8811 255.7693 C 340.9244 254.9143 314.0777 254.8953 309.992 254.8953 C 305.0447 254.8953 269.9043 254.8083 265.5358 253.5843 C 264.956 258.3903 265.1146 259.6003 266.3085 270.1853 z "
     style="font-size:12;fill:url(#linearGradient132);fill-opacity:1;fill-rule:evenodd;stroke:#270000;stroke-width:0.513202;"
     id="path32" />
  <path
     d="M 265.4201 290.0621 C 268.2903 294.1051 275.6317 292.5331 278.1688 292.8991 C 281.0037 293.2121 294.3803 294.5581 298.6788 293.1191 C 302.2103 293.6631 324.676 293.3381 331.6925 292.4641 C 339.5401 294.0371 354.8593 291.8091 362.2302 291.1531 C 363.5935 278.8711 362.7882 282.4161 362.5987 272.5871 C 355.6008 274.0141 351.3069 273.4611 344.302 273.4611 C 340.3005 272.1691 309.2028 273.4611 305.1987 273.4611 C 300.3504 273.4611 266.8472 273.8111 266.8472 270.8401 C 267.5633 270.8401 264.2501 279.4771 265.4201 290.0621 z "
     style="font-size:12;fill:url(#linearGradient132);fill-opacity:1;fill-rule:evenodd;stroke:#290000;stroke-width:0.508046;"
     id="path33" />
  <path
     d="M 266.8901 309.5011 C 269.7817 313.5441 275.4175 311.0991 277.9734 311.4651 C 280.8294 311.7781 295.1861 313.5601 299.5168 312.1211 C 303.0746 312.6651 325.2681 311.4671 331.4567 312.7771 C 339.3629 314.3501 353.4858 312.1221 360.9117 311.4661 C 362.2853 299.1841 361.2586 301.6371 361.0678 291.8081 C 354.0176 293.2351 356.4596 292.4641 347.655 292.9011 C 343.6236 291.6091 312.76 293.7741 308.726 293.7741 C 303.8415 293.7741 266.1272 294.1241 266.1272 291.1531 C 266.8487 291.1531 265.7113 298.9161 266.8901 309.5011 z "
     style="font-size:12;fill:url(#linearGradient132);fill-opacity:1;fill-rule:evenodd;stroke:#240000;stroke-width:0.509939;"
     id="path34" />
  <path
     d="M 267.5238 328.5041 C 270.3964 332.5471 274.6845 329.4471 277.2236 329.8131 C 280.0608 330.1261 294.3231 331.9081 298.6252 330.4691 C 302.1597 331.0131 324.2071 329.8151 330.355 331.1251 C 338.2092 332.6981 353.5412 330.4701 360.9182 329.8141 C 362.2827 317.5321 361.0401 321.9511 360.8505 312.1221 C 353.8468 313.5491 349.9858 313.4331 342.9751 313.4331 C 338.9702 312.1411 309.1603 311.6861 305.1529 311.6861 C 300.3005 311.6861 265.6738 313.1271 265.6738 310.1561 C 268.3564 310.1561 266.3528 317.9191 267.5238 328.5041 z "
     style="font-size:12;fill:url(#linearGradient132);fill-opacity:1;fill-rule:evenodd;stroke:#240000;stroke-width:0.508259;"
     id="path35" />
  <path
     d="M 267.1086 344.4491 C 269.9412 348.4921 275.8988 347.7941 278.4025 348.1601 C 281.2002 348.4731 295.2639 350.2551 299.5061 348.8161 C 302.9914 349.3601 324.7318 348.1621 330.7941 349.4721 C 338.5389 351.0451 353.6574 348.8171 360.9317 348.1611 C 362.2772 335.8791 361.4766 338.9881 361.2896 329.1591 C 354.3834 330.5861 350.1515 331.7801 343.2384 331.7801 C 339.2894 330.4881 312.9159 330.4691 308.9643 330.4691 C 304.1794 330.4691 266.7982 330.8191 266.7982 327.8481 C 267.5049 327.8481 265.9539 333.8641 267.1086 344.4491 z "
     style="font-size:12;fill:url(#linearGradient132);fill-opacity:1;fill-rule:evenodd;stroke:#140000;stroke-width:0.504708;"
     id="path36" />
  <path
     d="M 267.3805 363.2332 C 273.5076 363.3452 276.0056 362.6472 279.8359 363.0132 C 282.6514 363.3262 296.8048 365.3262 301.0742 363.8872 C 304.5816 364.4312 326.4609 363.2332 332.5619 364.5432 C 340.3561 366.1162 353.6054 364.5432 360.9261 363.8872 C 362.2802 351.6052 361.9141 357.3352 361.726 347.5062 C 354.7756 348.9332 349.4219 349.4722 343.7751 350.7832 C 339.8009 349.4912 314.1299 348.8172 310.153 348.8172 C 305.3376 348.8172 273.1812 349.6042 267.0653 346.6332 C 266.9029 352.3122 266.6553 352.6482 267.3805 363.2332 z "
     style="font-size:12;fill:url(#linearGradient132);fill-opacity:1;fill-rule:evenodd;stroke:#240000;stroke-width:0.506316;"
     id="path37" />
  <path
     d="M 25.20049 217.8926 C 30.35602 211.0159 43.34799 204.4234 49.87557 199.8939 C 57.11098 194.7566 88.29296 171.0158 107.7133 156.464 C 116.3834 146.6916 162.7501 113.1249 177.0648 101.1836 C 197.9601 84.02898 239.6152 51.98087 257.5354 37.45567 C 247.4213 28.4653 251.8283 33.51473 245.3879 26.06605 C 228.863 40.49515 219.2988 44.08715 201.8898 57.39582 C 191.1604 63.97189 121.7434 114.5973 111.7922 122.2047 C 85.32693 138.843 16.56803 200.1655 11.03477 204.787 C 15.5003 208.1264 18.54983 211.0352 25.20049 217.8926 z "
     style="font-size:12;fill:url(#linearGradient49);fill-opacity:1;fill-rule:evenodd;stroke:#290000;stroke-width:0.89858;"
     id="path39" />
  <path
     d="M 81.37229 177.1374 C 89.91427 179.8694 100.4244 177.4244 108.3608 177.7904 C 117.229 178.1034 161.8081 179.8854 175.2554 178.4464 C 186.3028 178.9904 255.216 177.7924 274.4324 179.1024 C 298.9821 180.6754 348.2153 178.0104 371.2736 177.3544 C 355.8804 166.3834 349.0486 164.0314 341.9035 155.9494 C 334.865 156.5034 329.6763 159.6634 313.8786 161.4104 C 301.3608 160.1184 216.377 161.4104 203.8511 161.4104 C 188.684 161.4104 109.1456 162.6344 103.4669 159.6634 C 97.40754 164.4684 93.22012 168.7364 81.37229 177.1374 z "
     style="font-size:12;fill:url(#linearGradient132);fill-opacity:1;fill-rule:evenodd;stroke:#430000;stroke-width:0.89858;"
     id="path40" />
  <path
     d="M 104.866 159.8792 C 113.2974 161.0662 156.1292 162.4112 169.5765 160.9722 C 180.6239 161.5162 251.2844 159.8812 270.5009 161.1912 C 295.0505 160.5802 324.6256 162.9392 340.4758 156.1672 C 324.427 144.5402 329.8272 149.6152 318.7498 140.4412 C 296.8583 141.8682 212.4454 140.0052 199.9195 140.0052 C 184.7524 140.0052 142.3461 139.4812 127.7119 139.5682 C 117.9394 148.3052 110.4721 152.9612 104.866 159.8792 z "
     style="font-size:12;fill:url(#linearGradient132);fill-opacity:1;fill-rule:evenodd;stroke:#4d0000;stroke-width:0.89858;"
     id="path41" />
  <path
     d="M 128.5515 139.3494 C 141.8986 139.8974 163.7739 141.2244 177.2212 139.7854 C 188.2687 140.3294 242.7657 140.0054 261.9821 141.3154 C 286.5317 142.8884 296.4488 140.8784 319.507 140.2224 C 304.1139 127.9404 302.9608 128.6464 294.5052 122.0934 C 272.6137 123.5204 293.1996 121.4384 271.2863 121.4384 C 258.7685 120.1464 218.3428 122.7494 205.8169 122.7494 C 190.6498 122.7494 147.5887 124.4094 151.5201 121.4384 C 156.8186 122.3124 136.0309 130.7304 128.5515 139.3494 z "
     style="font-size:12;fill:url(#linearGradient132);fill-opacity:1;fill-rule:evenodd;stroke:#450000;stroke-width:0.89858;"
     id="path42" />
  <path
     d="M 152.4826 121.6559 C 161.3508 121.9689 162.4634 124.1879 175.9106 122.7489 C 186.9581 123.2929 254.5608 120.7839 273.7772 122.0939 C 298.3269 123.6669 271.1119 122.3119 294.1701 121.6559 C 284.0189 111.9949 280.2449 111.1729 271.1337 104.6199 C 249.2422 106.0469 215.7218 104.4019 203.1959 104.4019 C 188.0288 104.4019 179.4788 104.7509 174.018 103.7459 C 167.0844 109.4249 160.9277 115.8299 152.4826 121.6559 z "
     style="font-size:12;fill:url(#linearGradient132);fill-opacity:1;fill-rule:evenodd;stroke:#610000;stroke-width:0.89858;"
     id="path43" />
  <path
     d="M 173.7264 103.964 C 184.7739 104.508 248.1778 105.712 271.2361 105.056 C 275.501 92.77396 255.7824 93.69896 249.0733 86.92796 C 227.1818 88.35496 206.9851 89.11196 194.4592 89.11196 C 186.7182 93.91796 185.616 97.53996 173.7264 103.964 z "
     style="font-size:12;fill:url(#linearGradient132);fill-opacity:1;fill-rule:evenodd;stroke:#340000;stroke-width:0.89858;"
     id="path44" />
  <path
     d="M 193.6026 88.89348 C 204.6501 89.43748 228.3503 86.71048 247.5667 88.02048 C 233.455 76.70648 231.2297 74.26048 220.6699 67.05248 C 212.7109 72.94948 203.309 81.15848 193.6026 88.89348 z "
     style="font-size:12;fill:url(#linearGradient132);fill-opacity:1;fill-rule:evenodd;stroke:#340000;stroke-width:0.89858;"
     id="path45" />
  <path
     d="M 242.6831 138.475 C 242.6831 151.135 231.0871 161.41 216.7991 161.41 C 202.5121 161.41 190.9161 151.135 190.9161 138.475 C 190.9161 125.816 202.5121 115.541 216.7991 115.541 C 231.0871 115.541 242.6831 125.816 242.6831 138.475 z "
     style="font-size:12;fill-opacity:1;fill-rule:evenodd;stroke:#000000;"
     id="path16" />
  <path
     d="M 182.6007 35.63458 C 185.0516 37.71572 193.6655 47.23393 202.1664 52.00792 C 204.9503 57.27226 320.545 139.8005 325.0708 143.6449 C 328.6504 147.293 406.6231 204.4986 408.8494 201.8651 C 410.5639 200.5006 421.9411 191.1273 421.6985 188.1863 C 413.326 178.9963 361.4623 144.8072 357.1733 143.084 C 352.6744 140.588 291.2016 100.9645 285.929 96.48475 C 281.3713 93.27602 236.0436 58.54458 230.8426 54.00169 C 224.0632 50.21046 195.5818 25.75498 190.7752 20.34259 C 187.7002 22.94113 184.2422 35.23453 182.6007 35.63458 z "
     style="font-size:12;fill:#9c6100;fill-opacity:1;fill-rule:evenodd;stroke:#000000;stroke-width:1.064341;"
     id="path14" />
  <path
     d="M 182.9507 36.20559 C 187.6756 44.56293 202.3871 52.46444 208.273 57.24593 C 214.9011 62.51085 248.1083 89.14629 259.1786 95.57526 C 267.3533 102.2592 320.7937 140.223 334.8193 152.1447 C 352.7911 167.2934 391.1019 192.4311 409.1185 201.4319 C 418.932 193.8649 417.3578 196.2838 422.1421 187.9648 C 409.4137 174.571 396.6338 169.7572 379.8436 157.3758 C 370.5037 149.6905 298.8924 105.8446 289.2949 98.76728 C 277.6738 90.19764 189.3309 22.37632 190.9143 19.96294 C 192.6309 21.22877 185.7875 25.53919 182.9507 36.20559 z "
     style="font-size:12;fill:url(#linearGradient50);fill-opacity:1;fill-rule:evenodd;stroke:#3f0000;stroke-width:0.863538;"
     id="path38" />
  <path
     d="M 180.1041 361.5401 C 178.3161 337.1461 180.1041 308.9581 180.1041 305.5151 C 178.8211 301.6641 179.7831 255.3871 183.0531 248.5061 C 189.2781 248.5061 210.2471 249.4891 216.4721 249.4891 C 222.0421 249.4891 244.4502 248.9632 246.9162 251.4292 C 246.9162 260.2752 246.9421 296.3411 246.9421 305.5151 C 244.9761 313.7061 245.4761 335.4851 247.9251 360.5581 C 229.2501 361.8941 198.4101 361.4771 180.1041 361.5401 z "
     style="font-size:12;fill:#a47f00;fill-opacity:1;fill-rule:evenodd;"
     id="path51" />
  <path
     d="M 246.968 250.4472 C 244.9578 259.4252 249.7291 337.9511 247.015 360.5581 C 232.8188 361.6201 187.2547 363.1781 176.2726 359.5751 C 176.1855 344.4061 177.8851 256.7628 179.1283 246.6178 C 191.1149 247.9958 240.5121 249.4642 246.968 250.4472 z "
     style="font-size:12;fill:url(#linearGradient53);fill-opacity:1;fill-rule:evenodd;stroke-width:0;stroke-linejoin:round;"
     id="path52" />
  <path
     d="M 242.5194 139.1589 C 242.5194 152.5869 230.6294 163.4859 215.9804 163.4859 C 201.3314 163.4859 189.4424 152.5869 189.4424 139.1589 C 189.4424 125.7299 201.3314 114.8319 215.9804 114.8319 C 230.6294 114.8319 242.5194 125.7299 242.5194 139.1589 z "
     style="font-size:12;fill:none;fill-opacity:1;fill-rule:evenodd;stroke:#806b00;stroke-width:5.599999;"
     id="path56" />
  <ellipse
     cx="283.795471"
     cy="171.289841"
     rx="28.50424"
     ry="24.5726204"
     transform="matrix(0.942528,0,0,0.973333,-51.66854,-27.97312)"
     style="font-size:12;fill:none;fill-opacity:1;fill-rule:evenodd;stroke:url(#linearGradient54);stroke-width:5;"
     id="path63" />
  <path
     d="M 266.9071 362.7135 C 267.9771 354.2565 266.0011 296.4385 266.0011 289.9005 C 266.0011 282.0935 265.6921 239.5695 265.6921 233.7046 C 258.3061 233.3026 254.7861 233.1946 247.2251 233.1946 C 247.2251 238.0165 247.1201 271.7875 246.8931 289.7385 C 246.8931 297.5365 246.6261 356.0025 246.6261 362.6485 C 253.0601 362.7595 263.9611 362.7135 266.9071 362.7135 z "
     style="font-size:12;fill:url(#linearGradient48);fill-opacity:1;fill-rule:evenodd;stroke:#280000;"
     id="path47" />
  <path
     d="M 182.1401 248.1694 C 183.9592 252.2124 188.815 248.6754 191.0781 249.6964 C 192.8747 250.0094 203.2166 250.4804 205.9409 249.0414 C 212.1107 249.3674 221.2664 248.8244 225.1595 249.6974 C 230.133 247.9944 242.0259 250.3534 246.6972 249.6974 C 247.5613 237.4154 247.7646 242.2714 247.6445 232.4424 C 243.2095 233.8694 237.1534 233.3164 232.714 233.3164 C 230.178 232.0244 212.9611 233.3164 210.4235 233.3164 C 207.3508 233.3164 188.2129 233.2294 183.4076 232.8794 C 183.4247 240.7424 181.3986 237.5844 182.1401 248.1694 z "
     style="font-size:12;fill:url(#linearGradient132);fill-opacity:1;fill-rule:evenodd;stroke:#000000;stroke-width:0.404451;"
     id="path48" />
  <path
     d="M 163.1282 364.8675 C 160.4602 362.1995 165.4172 302.7505 165.4172 295.1855 C 165.4172 287.7575 164.8732 267.6515 164.2442 232.7035 C 171.3942 232.7035 176.9172 233.2735 183.7242 234.0385 C 181.9272 238.9565 179.0322 289.7165 179.0322 297.0055 C 179.0322 304.0995 177.0442 361.4645 180.0672 364.4875 C 180.0672 366.3415 167.8082 364.8675 163.1282 364.8675 z "
     style="font-size:12;fill:url(#linearGradient142);fill-opacity:1;fill-rule:evenodd;stroke:#380000;"
     id="path46" />

  <metadata>
    <rdf:RDF 
     xmlns="http://web.resource.org/cc/"
     xmlns:dc="http://purl.org/dc/elements/1.1/"
     xmlns:rdf="http://www.w3.org/1999/02/22-rdf-syntax-ns#">
      <Work rdf:about="">
        <dc:title>Lemon SVG theme</dc:title>
	<dc:description></dc:description>
        <dc:subject>
          <rdf:Bag>
            <rdf:li>lemon_theme_icon</rdf:li>
            <rdf:li>icon</rdf:li>
          </rdf:Bag>
        </dc:subject>
        <dc:publisher>
           <Agent rdf:about="">
             <dc:title>Open Clip Art Library</dc:title>
           </Agent>
         </dc:publisher>
         <dc:creator>
           <Agent rdf:about="">
             <dc:title>Jose Hevia</dc:title>
           </Agent>
        </dc:creator>
         <dc:rights>
           <Agent rdf:about="">
             <dc:title></dc:title>
           </Agent>
        </dc:rights>
        <dc:date></dc:date>
        <dc:format>image/svg+xml</dc:format>
        <dc:type rdf:resource="http://purl.org/dc/dcmitype/StillImage" />
        <license rdf:resource="Public Domain">
	  <dc:date>1</dc:date>
	</license>
        <dc:language>en</dc:language>
      </Work>

      <License rdf:about="Public Domain">
         <permits rdf:resource="http://web.resource.org/cc/Reproduction" />
         <permits rdf:resource="http://web.resource.org/cc/Distribution" />
         <permits rdf:resource="http://web.resource.org/cc/DerivativeWorks" />
      </License>


    </rdf:RDF>
  </metadata>
</svg>
