<?xml version="1.0" encoding="UTF-8" standalone="no"?>
<!-- Created with Inkscape (http://www.inkscape.org/) -->
<svg
   xmlns:dc="http://purl.org/dc/elements/1.1/"
   xmlns:cc="http://creativecommons.org/ns#"
   xmlns:rdf="http://www.w3.org/1999/02/22-rdf-syntax-ns#"
   xmlns:svg="http://www.w3.org/2000/svg"
   xmlns="http://www.w3.org/2000/svg"
   xmlns:xlink="http://www.w3.org/1999/xlink"
   xmlns:sodipodi="http://sodipodi.sourceforge.net/DTD/sodipodi-0.dtd"
   xmlns:inkscape="http://www.inkscape.org/namespaces/inkscape"
   width="128"
   height="128"
   id="svg2"
   sodipodi:version="0.32"
   inkscape:version="0.45+devel"
   version="1.0"
   sodipodi:docname="obelisk.svg"
   inkscape:output_extension="org.inkscape.output.svg.inkscape">
  <defs
     id="defs4">
    <linearGradient
       id="linearGradient2338">
      <stop
         style="stop-color:#b1b1b1;stop-opacity:1;"
         offset="0"
         id="stop2340" />
      <stop
         style="stop-color:#e4e4e4;stop-opacity:1;"
         offset="1"
         id="stop2342" />
    </linearGradient>
    <linearGradient
       id="linearGradient2888">
      <stop
         style="stop-color:#c7a94c;stop-opacity:1;"
         offset="0"
         id="stop2890" />
      <stop
         style="stop-color:#e2ca80;stop-opacity:1;"
         offset="1"
         id="stop2892" />
    </linearGradient>
    <linearGradient
       inkscape:collect="always"
       xlink:href="#linearGradient2888"
       id="linearGradient2488"
       x1="52.899231"
       y1="41.985237"
       x2="68.677269"
       y2="54.216274"
       gradientUnits="userSpaceOnUse" />
    <linearGradient
       inkscape:collect="always"
       xlink:href="#linearGradient2888"
       id="linearGradient2492"
       x1="68.432648"
       y1="79.626251"
       x2="81.458694"
       y2="50.271763"
       gradientUnits="userSpaceOnUse" />
    <linearGradient
       inkscape:collect="always"
       xlink:href="#linearGradient2888"
       id="linearGradient2496"
       x1="62.836948"
       y1="24.922943"
       x2="64.518715"
       y2="21.742872"
       gradientUnits="userSpaceOnUse" />
    <linearGradient
       inkscape:collect="always"
       xlink:href="#linearGradient2888"
       id="linearGradient2500"
       x1="61.950199"
       y1="19.357821"
       x2="69.960953"
       y2="16.116596"
       gradientUnits="userSpaceOnUse" />
    <linearGradient
       inkscape:collect="always"
       xlink:href="#linearGradient2888"
       id="linearGradient2504"
       x1="67.882256"
       y1="27.858391"
       x2="73.386223"
       y2="18.073563"
       gradientUnits="userSpaceOnUse" />
    <linearGradient
       inkscape:collect="always"
       xlink:href="#linearGradient2338"
       id="linearGradient2508"
       x1="68.371498"
       y1="59.781395"
       x2="79.318268"
       y2="42.841408"
       gradientUnits="userSpaceOnUse" />
    <linearGradient
       inkscape:collect="always"
       xlink:href="#linearGradient2338"
       id="linearGradient2512"
       x1="47.639889"
       y1="77.210625"
       x2="60.543633"
       y2="100.63306"
       gradientUnits="userSpaceOnUse" />
    <linearGradient
       inkscape:collect="always"
       xlink:href="#linearGradient2338"
       id="linearGradient2516"
       x1="67.331856"
       y1="100.8471"
       x2="88.063461"
       y2="80.237801"
       gradientUnits="userSpaceOnUse" />
    <filter
       inkscape:collect="always"
       id="filter3212"
       x="-0.10113489"
       width="1.2022698"
       y="-0.091361336"
       height="1.1827227">
      <feGaussianBlur
         inkscape:collect="always"
         stdDeviation="2.2098651"
         id="feGaussianBlur3214" />
    </filter>
  </defs>
  <sodipodi:namedview
     id="base"
     pagecolor="#ffffff"
     bordercolor="#666666"
     borderopacity="1.0"
     gridtolerance="10000"
     guidetolerance="10"
     objecttolerance="10"
     inkscape:pageopacity="0.0"
     inkscape:pageshadow="2"
     inkscape:zoom="1"
     inkscape:cx="100.5"
     inkscape:cy="64"
     inkscape:document-units="px"
     inkscape:current-layer="layer3"
     showgrid="false"
     width="744.09px"
     inkscape:window-width="1248"
     inkscape:window-height="975"
     inkscape:window-x="426"
     inkscape:window-y="24" />
  <metadata
     id="metadata7">
    <rdf:RDF>
      <cc:Work
         rdf:about="">
        <dc:format>image/svg+xml</dc:format>
        <dc:type
           rdf:resource="http://purl.org/dc/dcmitype/StillImage" />
      </cc:Work>
    </rdf:RDF>
  </metadata>
  <g
     inkscape:groupmode="layer"
     id="layer3"
     inkscape:label="colors">
    <path
       style="fill:#000000;fill-rule:evenodd;stroke:none;stroke-width:1px;stroke-linecap:butt;stroke-linejoin:miter;stroke-opacity:1;filter:url(#filter3212);fill-opacity:0.62745099999999998"
       d="M 54.317339,45.520703 C 51.810176,46.098359 32.834116,50.197161 37.315472,49.580782 C 38.378622,63.297308 42.395162,74.081161 38.711127,87.64824 C 45.370825,91.018944 56.134514,100.17013 62.517849,103.38516 C 76.730719,99.495956 78.60899,94.56294 89.075085,91.60644 C 82.020063,84.827846 78.371685,74.526334 74.014566,67.288203 C 70.059142,60.681511 63.766366,53.533103 57.657154,47.521424 C 54.701137,45.688553 58.733382,45.011479 54.317339,45.520703 z M 80.83376,83.97901 L 80.83376,83.97901 z"
       id="path3109"
       sodipodi:nodetypes="cccccccccc" />
    <path
       style="fill:url(#linearGradient2488);fill-rule:evenodd;stroke:none;stroke-width:1px;stroke-linecap:butt;stroke-linejoin:miter;stroke-opacity:1"
       d="M 58.219732,20.244571 L 67.39301,28.561676 L 64.885647,85.49715 C 58.704758,80.809281 52.448687,76.497319 46.416783,71.064527 L 51.981904,44.339712 L 57.118939,24.158503 L 58.219732,20.244571 z"
       id="path2486"
       sodipodi:nodetypes="ccccccc" />
    <path
       style="fill:url(#linearGradient2492);fill-rule:evenodd;stroke:none;stroke-width:1px;stroke-linecap:butt;stroke-linejoin:miter;stroke-opacity:1"
       d="M 81.214081,23.975037 L 67.454165,28.194744 L 65.86413,60.60699 L 64.763337,85.435994 L 65.680665,85.497149 L 89.531185,78.403148 L 85.800719,47.825558 L 82.498339,29.723624 L 81.214081,23.975037 z"
       id="path2490" />
    <path
       style="fill:url(#linearGradient2496);fill-rule:evenodd;stroke:none;stroke-width:1px;stroke-linecap:butt;stroke-linejoin:miter;stroke-opacity:1"
       d="M 58.525508,20.366881 L 67.270699,28.561675 L 67.454165,28.622831 L 67.454165,28.194744 L 65.069113,19.021467 L 58.525508,20.366881 z"
       id="path2494"
       sodipodi:nodetypes="cccccc" />
    <path
       style="fill:url(#linearGradient2500);fill-rule:evenodd;stroke:none;stroke-width:1px;stroke-linecap:butt;stroke-linejoin:miter;stroke-opacity:1"
       d="M 58.280888,20.183416 L 71.184631,15.780243 C 71.184631,15.780243 75.404338,15.780243 74.792787,15.963708 C 74.181235,16.147174 64.885647,19.082622 64.885647,19.082622 L 58.770129,20.244571 L 58.280888,20.183416 z"
       id="path2498" />
    <path
       style="fill:url(#linearGradient2504);fill-rule:evenodd;stroke:none;stroke-width:1px;stroke-linecap:butt;stroke-linejoin:miter;stroke-opacity:1"
       d="M 64.885647,19.082622 L 74.609321,15.963708 L 81.275236,24.097347 L 67.454165,28.2559 L 64.885647,19.082622 z"
       id="path2502" />
    <path
       style="fill:url(#linearGradient2508);fill-rule:evenodd;stroke:none;stroke-width:1px;stroke-linecap:butt;stroke-linejoin:miter;stroke-opacity:1"
       d="M 68.554958,41.771195 L 81.764477,38.101884 L 84.577615,55.28649 L 69.11802,59.920317 L 67.943407,59.750818 L 68.554958,41.771195 z"
       id="path2506"
       sodipodi:nodetypes="cccccc" />
    <path
       style="fill:url(#linearGradient2512);fill-rule:evenodd;stroke:none;stroke-width:1px;stroke-linecap:butt;stroke-linejoin:miter;stroke-opacity:1"
       d="M 46.906024,71.186837 L 44.887903,74.489217 L 42.686316,80.727045 L 41.218592,86.720253 L 47.701041,93.141547 L 57.975112,100.78594 L 63.173302,104.63872 L 63.846009,94.915047 L 64.824492,85.558304 L 58.831284,80.66589 L 51.492663,75.100768 L 46.906024,71.186837 z"
       id="path2510" />
    <path
       style="fill:url(#linearGradient2516);fill-rule:evenodd;stroke:none;stroke-width:1px;stroke-linecap:butt;stroke-linejoin:miter;stroke-opacity:1"
       d="M 64.824492,85.558304 L 64.274095,91.429202 L 63.234457,104.63872 L 75.037407,101.21403 L 90.631978,95.281978 L 93.689737,93.508478 C 93.689737,93.508478 92.405479,86.659098 92.405479,86.414477 C 92.405479,86.169856 89.408875,78.341993 89.408875,78.341993 L 86.351116,79.503941 L 72.163114,83.356718 L 64.824492,85.558304 z"
       id="path2514" />
    <path
       sodipodi:nodetypes="ccccccc"
       id="path3101"
       d="M 58.219732,20.244571 L 67.39301,28.561676 L 64.885647,85.49715 C 58.704758,80.809281 52.448687,76.497319 46.416783,71.064527 L 51.981904,44.339712 L 57.118939,24.158503 L 58.219732,20.244571 z"
       style="fill:#000000;fill-rule:evenodd;stroke:none;stroke-width:1px;stroke-linecap:butt;stroke-linejoin:miter;stroke-opacity:1;fill-opacity:0.15686275" />
    <path
       sodipodi:nodetypes="cccccc"
       id="path3103"
       d="M 58.525508,20.366881 L 67.270699,28.561675 L 67.454165,28.622831 L 67.454165,28.194744 L 65.069113,19.021467 L 58.525508,20.366881 z"
       style="fill:#000000;fill-rule:evenodd;stroke:none;stroke-width:1px;stroke-linecap:butt;stroke-linejoin:miter;stroke-opacity:1;fill-opacity:0.15686275" />
    <path
       id="path3105"
       d="M 46.906024,71.186837 L 44.887903,74.489217 L 42.686316,80.727045 L 41.218592,86.720253 L 47.701041,93.141547 L 57.975112,100.78594 L 63.173302,104.63872 L 63.846009,94.915047 L 64.824492,85.558304 L 58.831284,80.66589 L 51.492663,75.100768 L 46.906024,71.186837 z"
       style="fill:#000000;fill-rule:evenodd;stroke:none;stroke-width:1px;stroke-linecap:butt;stroke-linejoin:miter;stroke-opacity:1;fill-opacity:0.15686275" />
    <path
       id="path3107"
       d="M 58.280888,20.183416 L 71.184631,15.780243 C 71.184631,15.780243 75.404338,15.780243 74.792787,15.963708 C 74.181235,16.147174 64.885647,19.082622 64.885647,19.082622 L 58.770129,20.244571 L 58.280888,20.183416 z"
       style="fill:#ffffff;fill-rule:evenodd;stroke:none;stroke-width:1px;stroke-linecap:butt;stroke-linejoin:miter;stroke-opacity:1;fill-opacity:0.1254902" />
  </g>
  <g
     inkscape:label="outline"
     inkscape:groupmode="layer"
     id="layer1">
    <path
       style="fill:#000000;fill-opacity:1;fill-rule:evenodd;stroke:none;stroke-width:1px;stroke-linecap:butt;stroke-linejoin:miter;stroke-opacity:1"
       d="M 71.1875,15.6875 L 57.9375,20.09375 C 53.334936,36.194071 49.351101,54.386887 46.375,70.8125 C 43.448109,75.529282 42.116812,81.20342 40.78125,86.875 C 47.323489,94.11951 55.029454,98.657153 62.875,105.25 C 75.502794,101.19385 81.590689,99.9608 93.90625,94.03125 L 94.34375,93.875 L 94.21875,93.4375 C 93.482587,88.325715 92.35657,83.369872 90,78.90625 C 87.602332,59.833332 86.140024,43.197917 81.46875,24.125 L 74.9375,15.84375 L 71.1875,15.6875 z M 74.375,16.25 L 80.90625,23.96875 L 67.59375,28.15625 L 80.78125,24.3125 C 85.65691,43.073657 86.926362,59.645093 88.875,78.40625 C 78.724139,81.79777 75.730674,81.94606 65.28125,85.3125 C 66.281717,64.019819 66.268399,49.124046 67.59375,28.15625 L 67.4375,28.1875 L 65.3125,19.03125 L 74.375,16.25 z M 70.955806,16.034391 L 73.817323,16.039752 L 64.767005,18.884803 L 58.640323,20.188801 L 70.955806,16.034391 z M 64.625,19.34375 L 67.375,28.3125 L 67.3125,28.28125 L 64.34375,85 C 59.25359,80.044453 53.31591,77.105918 47.3125,71.125 C 49.856154,54.448769 53.517852,36.135627 58.34375,20.4375 L 67.047335,28.325444 L 58.961167,20.567862 L 64.625,19.34375 z M 81.8125,37.78125 L 68.34375,41.46875 L 67.875,59.875 L 67.9375,59.5625 L 68.84375,41.84375 L 81.625,38.40625 L 84.21875,55.125 L 69.1875,59.75 L 68.8125,59.96875 L 84.71875,55.375 L 81.8125,37.78125 z M 77.875,42.15625 C 77.17823,43.146569 76.507838,44.233599 75.46875,43.96875 L 74.09375,43.125 C 73.652438,43.994283 72.782809,44.221088 72.78125,45.75 L 70.40625,44.53125 L 69.96875,44.8125 L 73.125,47.28125 C 73.419394,45.588096 73.63872,43.534608 74.5,44.5625 L 75.53125,45.1875 C 77.028627,44.980745 77.024669,43.783952 77.5625,42.9375 L 79.09375,44.25 L 80.78125,44.1875 L 80.875,43.8125 L 79.65625,43.40625 L 77.875,42.15625 z M 77.03125,48.15625 L 75,49.75 L 73.25,48.65625 C 72.049065,47.892671 71.354167,49.40625 70.40625,49.78125 L 70.75,49.96875 C 71.593749,49.856432 72.4375,49.201346 73.28125,49.71875 C 73.85504,49.957458 74.101962,50.523038 75.09375,50.34375 C 76.506696,50.859269 76.701626,49.291013 77.375,48.75 L 79.03125,49.25 L 79.3125,48.78125 L 77.03125,48.15625 z M 81.40625,51.0625 C 80.591096,51.123318 80.043435,51.855806 79.40625,52.34375 L 77.46875,51.15625 L 74.78125,53.03125 L 74.9375,53.25 L 77.375,52.28125 L 79.3125,53.46875 C 80.455086,53.199951 81.402501,52.768343 82.4375,51.53125 L 82.3125,51.25 C 81.962471,51.082327 81.677968,51.042227 81.40625,51.0625 z M 46.9375,71.53125 C 53.182065,77.557367 58.838405,80.436022 64.59375,85.6875 C 63.961819,91.012162 62.79715,98.164203 62.75,103.78125 C 55.018356,98.002481 47.663563,93.784353 41.5625,86.375 C 42.73214,81.11607 43.86175,75.837125 46.9375,71.53125 z M 89.125,78.75 C 91.783726,83.583332 92.735665,88.416667 93.125,93.25 C 81.779402,98.892126 76.219898,100.41896 63.90625,104.125 C 64.270832,98.481421 64.635417,91.29058 65,85.9375 C 75.398051,82.435811 78.774238,82.121191 89.125,78.75 z"
       id="path2319"
       sodipodi:nodetypes="ccccccccccccccccccccccccccccccccccccccccccccccccccccccccccccccccccccccccccccccccccccccccccccc" />
  </g>
</svg>
