<?xml version="1.0" encoding="UTF-8" standalone="no"?>
<!-- Created with Inkscape (http://www.inkscape.org/) -->
<svg
   xmlns:dc="http://purl.org/dc/elements/1.1/"
   xmlns:cc="http://creativecommons.org/ns#"
   xmlns:rdf="http://www.w3.org/1999/02/22-rdf-syntax-ns#"
   xmlns:svg="http://www.w3.org/2000/svg"
   xmlns="http://www.w3.org/2000/svg"
   xmlns:xlink="http://www.w3.org/1999/xlink"
   xmlns:sodipodi="http://sodipodi.sourceforge.net/DTD/sodipodi-0.dtd"
   xmlns:inkscape="http://www.inkscape.org/namespaces/inkscape"
   width="128"
   height="128"
   id="svg2"
   sodipodi:version="0.32"
   inkscape:version="0.45+devel"
   version="1.0"
   sodipodi:docname="pyramid.svg"
   inkscape:output_extension="org.inkscape.output.svg.inkscape">
  <defs
     id="defs4">
    <linearGradient
       id="linearGradient2966">
      <stop
         style="stop-color:#573711;stop-opacity:1;"
         offset="0"
         id="stop2968" />
      <stop
         style="stop-color:#8b571c;stop-opacity:1;"
         offset="1"
         id="stop2970" />
    </linearGradient>
    <linearGradient
       id="linearGradient2946">
      <stop
         style="stop-color:#1e0c00;stop-opacity:1;"
         offset="0"
         id="stop2948" />
      <stop
         style="stop-color:#4f1f00;stop-opacity:1;"
         offset="1"
         id="stop2950" />
    </linearGradient>
    <linearGradient
       id="linearGradient2888">
      <stop
         style="stop-color:#c7a94c;stop-opacity:1;"
         offset="0"
         id="stop2890" />
      <stop
         style="stop-color:#e2ca80;stop-opacity:1;"
         offset="1"
         id="stop2892" />
    </linearGradient>
    <linearGradient
       inkscape:collect="always"
       xlink:href="#linearGradient2888"
       id="linearGradient2894"
       x1="33.902702"
       y1="79.913513"
       x2="62.616215"
       y2="53.44865"
       gradientUnits="userSpaceOnUse" />
    <linearGradient
       inkscape:collect="always"
       xlink:href="#linearGradient2888"
       id="linearGradient2898"
       x1="91.589188"
       y1="96"
       x2="82.421616"
       y2="47.394592"
       gradientUnits="userSpaceOnUse" />
    <linearGradient
       inkscape:collect="always"
       xlink:href="#linearGradient2888"
       id="linearGradient2904"
       x1="84.210686"
       y1="86.964874"
       x2="87.879997"
       y2="87.148338"
       gradientUnits="userSpaceOnUse" />
    <linearGradient
       inkscape:collect="always"
       xlink:href="#linearGradient2888"
       id="linearGradient2908"
       x1="89.22541"
       y1="72.807449"
       x2="90.081581"
       y2="95.251396"
       gradientUnits="userSpaceOnUse" />
    <linearGradient
       inkscape:collect="always"
       xlink:href="#linearGradient2888"
       id="linearGradient2912"
       x1="83.415665"
       y1="70.391815"
       x2="86.534584"
       y2="67.150597"
       gradientUnits="userSpaceOnUse" />
    <linearGradient
       inkscape:collect="always"
       xlink:href="#linearGradient2888"
       id="linearGradient2916"
       x1="89.22541"
       y1="71.247993"
       x2="87.146133"
       y2="67.88446"
       gradientUnits="userSpaceOnUse" />
    <linearGradient
       inkscape:collect="always"
       xlink:href="#linearGradient2888"
       id="linearGradient2920"
       gradientUnits="userSpaceOnUse"
       x1="89.22541"
       y1="72.807449"
       x2="90.081581"
       y2="95.251396"
       gradientTransform="translate(15.411106,-6.9105355)" />
    <linearGradient
       inkscape:collect="always"
       xlink:href="#linearGradient2888"
       id="linearGradient2924"
       gradientUnits="userSpaceOnUse"
       x1="89.22541"
       y1="71.247993"
       x2="87.146133"
       y2="67.88446"
       gradientTransform="translate(15.166485,-6.9105355)" />
    <linearGradient
       inkscape:collect="always"
       xlink:href="#linearGradient2888"
       id="linearGradient2928"
       gradientUnits="userSpaceOnUse"
       x1="83.415665"
       y1="70.391815"
       x2="86.534584"
       y2="67.150597"
       gradientTransform="translate(15.288795,-6.8493803)" />
    <linearGradient
       inkscape:collect="always"
       xlink:href="#linearGradient2888"
       id="linearGradient2932"
       gradientUnits="userSpaceOnUse"
       x1="84.210686"
       y1="86.964874"
       x2="87.879997"
       y2="87.148338"
       gradientTransform="translate(15.288795,-7.0328458)" />
    <linearGradient
       inkscape:collect="always"
       xlink:href="#linearGradient2888"
       id="linearGradient2938"
       x1="93.322807"
       y1="83.845955"
       x2="92.160858"
       y2="86.414474"
       gradientUnits="userSpaceOnUse" />
    <linearGradient
       inkscape:collect="always"
       xlink:href="#linearGradient2888"
       id="linearGradient2942"
       x1="91.732773"
       y1="97.177788"
       x2="97.420204"
       y2="83.173256"
       gradientUnits="userSpaceOnUse" />
    <linearGradient
       inkscape:collect="always"
       xlink:href="#linearGradient2946"
       id="linearGradient2952"
       x1="97.909447"
       y1="88.79953"
       x2="93.017029"
       y2="96.321617"
       gradientUnits="userSpaceOnUse" />
    <linearGradient
       inkscape:collect="always"
       xlink:href="#linearGradient2966"
       id="linearGradient2972"
       x1="59.573746"
       y1="42.616856"
       x2="66.909981"
       y2="33.557053"
       gradientUnits="userSpaceOnUse" />
    <linearGradient
       inkscape:collect="always"
       xlink:href="#linearGradient2966"
       id="linearGradient2976"
       x1="71.903915"
       y1="49.99728"
       x2="73.892662"
       y2="36.120312"
       gradientUnits="userSpaceOnUse" />
    <filter
       inkscape:collect="always"
       id="filter3102">
      <feGaussianBlur
         inkscape:collect="always"
         stdDeviation="1.0779148"
         id="feGaussianBlur3104" />
    </filter>
    <filter
       inkscape:collect="always"
       id="filter3112">
      <feGaussianBlur
         inkscape:collect="always"
         stdDeviation="0.21924324"
         id="feGaussianBlur3114" />
    </filter>
  </defs>
  <sodipodi:namedview
     id="base"
     pagecolor="#ffffff"
     bordercolor="#666666"
     borderopacity="1.0"
     gridtolerance="10000"
     guidetolerance="10"
     objecttolerance="10"
     inkscape:pageopacity="0.0"
     inkscape:pageshadow="2"
     inkscape:zoom="1"
     inkscape:cx="223.86486"
     inkscape:cy="64"
     inkscape:document-units="px"
     inkscape:current-layer="layer2"
     showgrid="false"
     width="744.09px"
     inkscape:window-width="1248"
     inkscape:window-height="975"
     inkscape:window-x="426"
     inkscape:window-y="24"
     showguides="true"
     inkscape:guide-bbox="true" />
  <metadata
     id="metadata7">
    <rdf:RDF>
      <cc:Work
         rdf:about="">
        <dc:format>image/svg+xml</dc:format>
        <dc:type
           rdf:resource="http://purl.org/dc/dcmitype/StillImage" />
      </cc:Work>
    </rdf:RDF>
  </metadata>
  <g
     inkscape:groupmode="layer"
     id="layer2"
     inkscape:label="colors">
    <path
       style="fill:#000000;fill-rule:evenodd;stroke:none;stroke-width:1px;stroke-linecap:butt;stroke-linejoin:miter;stroke-opacity:1;filter:url(#filter3102);fill-opacity:0.56164384"
       d="M 102.125,95.5 L 98.75,94.125 L 88.25,98.25 L 86.875,102.375 L 80.875,100.625 L 67.25,83.625 L 60.375,106.625 L 2.875,69.125 L 41,48.125 L 104.625,92.75 L 102.125,95.5 z"
       id="path2980"
       sodipodi:nodetypes="ccccccccccc" />
    <path
       style="fill:url(#linearGradient2894);fill-rule:evenodd;stroke:none;stroke-width:1px;stroke-linecap:butt;stroke-linejoin:miter;stroke-opacity:1;fill-opacity:1"
       d="M 9.772973,68.151351 L 54.659459,39.005405 L 58.291892,41.254054 L 58.291892,48 L 65.72973,50.075676 L 67.459459,53.794595 L 62.702703,108.36757 L 51.978378,100.32432 L 27.675676,81.816216 L 9.772973,68.151351 z"
       id="path2309" />
    <path
       style="fill:url(#linearGradient2898);fill-rule:evenodd;stroke:none;stroke-width:1px;stroke-linecap:butt;stroke-linejoin:miter;stroke-opacity:1"
       d="M 62.52973,108.45405 L 82.594595,99.545946 L 125.92432,80.259459 L 85.967568,43.243243 L 84.497297,46.52973 L 75.589189,46.702703 L 70.832432,52.67027 L 67.286487,53.621622 L 62.52973,108.45405 z"
       id="path2896" />
    <path
       id="path2900"
       d="M 9.772973,68.151351 L 54.659459,39.005405 L 58.291892,41.254054 L 58.291892,48 L 65.72973,50.075676 L 67.459459,53.794595 L 62.702703,108.36757 L 51.978378,100.32432 L 27.675676,81.816216 L 9.772973,68.151351 z"
       style="fill:#000000;fill-rule:evenodd;stroke:none;stroke-width:1px;stroke-linecap:butt;stroke-linejoin:miter;stroke-opacity:1;fill-opacity:0.15686275" />
    <path
       style="fill:url(#linearGradient2904);fill-rule:evenodd;stroke:none;stroke-width:1px;stroke-linecap:butt;stroke-linejoin:miter;stroke-opacity:1"
       d="M 82.804115,99.31822 L 83.476822,70.819906 L 86.412271,72.28763 L 86.656892,102.37598 L 82.804115,99.31822 z"
       id="path2902"
       sodipodi:nodetypes="ccccc" />
    <path
       style="fill:url(#linearGradient2908);fill-rule:evenodd;stroke:none;stroke-width:1px;stroke-linecap:butt;stroke-linejoin:miter;stroke-opacity:1"
       d="M 86.656892,102.31482 L 86.473426,72.40994 L 90.081582,71.431457 L 91.304685,100.23555 L 86.656892,102.31482 z"
       id="path2906" />
    <path
       style="fill:url(#linearGradient2912);fill-rule:evenodd;stroke:none;stroke-width:1px;stroke-linecap:butt;stroke-linejoin:miter;stroke-opacity:1"
       d="M 83.415667,70.75875 L 86.534581,67.150595 L 86.351116,72.28763 L 83.415667,70.75875 z"
       id="path2910" />
    <path
       style="fill:url(#linearGradient2916);fill-rule:evenodd;stroke:none;stroke-width:1px;stroke-linecap:butt;stroke-linejoin:miter;stroke-opacity:1"
       d="M 86.412271,72.471096 L 90.020427,71.431457 L 86.534581,66.844819 L 86.412271,72.471096 z"
       id="path2914" />
    <path
       id="path2918"
       d="M 102.068,95.404285 L 101.88453,65.499405 L 105.49269,64.520922 L 106.71579,93.325015 L 102.068,95.404285 z"
       style="fill:url(#linearGradient2920);fill-rule:evenodd;stroke:none;stroke-width:1px;stroke-linecap:butt;stroke-linejoin:miter;stroke-opacity:1" />
    <path
       id="path2922"
       d="M 101.57876,65.560561 L 105.18691,64.520922 L 101.70107,59.934284 L 101.57876,65.560561 z"
       style="fill:url(#linearGradient2924);fill-rule:evenodd;stroke:none;stroke-width:1px;stroke-linecap:butt;stroke-linejoin:miter;stroke-opacity:1" />
    <path
       id="path2926"
       d="M 98.704462,63.90937 L 101.82338,60.301215 L 101.63991,65.43825 L 98.704462,63.90937 z"
       style="fill:url(#linearGradient2928);fill-rule:evenodd;stroke:none;stroke-width:1px;stroke-linecap:butt;stroke-linejoin:miter;stroke-opacity:1" />
    <path
       sodipodi:nodetypes="ccccccc"
       id="path2930"
       d="M 98.520996,85.191373 L 98.765617,63.78706 L 101.70107,65.254784 L 102.12916,95.587755 C 101.51703,95.197795 100.93233,94.563214 100.47164,94.173254 L 100.47021,86.748498 L 98.520996,85.191373 z"
       style="fill:url(#linearGradient2932);fill-rule:evenodd;stroke:none;stroke-width:1px;stroke-linecap:butt;stroke-linejoin:miter;stroke-opacity:1" />
    <path
       style="fill:url(#linearGradient2938);fill-rule:evenodd;stroke:none;stroke-width:1px;stroke-linecap:butt;stroke-linejoin:miter;stroke-opacity:1"
       d="M 90.570823,81.583218 L 95.157462,83.050942 L 90.754289,88.921839 L 90.570823,81.583218 z"
       id="path2936" />
    <path
       style="fill:url(#linearGradient2942);fill-rule:evenodd;stroke:none;stroke-width:1px;stroke-linecap:butt;stroke-linejoin:miter;stroke-opacity:1"
       d="M 91.182375,98.095116 L 90.937754,88.921839 L 95.035151,82.684011 L 100.35565,86.720253 L 100.11103,94.181185 L 91.182375,98.095116 z"
       id="path2940"
       sodipodi:nodetypes="cccccc" />
    <path
       style="fill:url(#linearGradient2952);fill-rule:evenodd;stroke:none;stroke-width:1px;stroke-linecap:butt;stroke-linejoin:miter;stroke-opacity:1;fill-opacity:1"
       d="M 92.283168,97.483565 L 92.283168,90.206098 L 95.157462,86.169856 L 98.704463,88.004511 L 98.826773,94.609271 L 92.283168,97.483565 z"
       id="path2944"
       sodipodi:nodetypes="cccccc" />
    <path
       sodipodi:nodetypes="ccccc"
       id="path2954"
       d="M 82.804115,99.31822 L 83.476822,70.819906 L 86.412271,72.28763 L 86.656892,102.37598 L 82.804115,99.31822 z"
       style="fill:#000000;fill-rule:evenodd;stroke:none;stroke-width:1px;stroke-linecap:butt;stroke-linejoin:miter;stroke-opacity:1;fill-opacity:0.15686275" />
    <path
       id="path2956"
       d="M 83.415667,70.75875 L 86.534581,67.150595 L 86.351116,72.28763 L 83.415667,70.75875 z"
       style="fill:#000000;fill-rule:evenodd;stroke:none;stroke-width:1px;stroke-linecap:butt;stroke-linejoin:miter;stroke-opacity:1;fill-opacity:0.15686275" />
    <path
       style="fill:#000000;fill-rule:evenodd;stroke:none;stroke-width:1px;stroke-linecap:butt;stroke-linejoin:miter;stroke-opacity:1;fill-opacity:0.15686275"
       d="M 98.704462,63.90937 L 101.82338,60.301215 L 101.63991,65.43825 L 98.704462,63.90937 z"
       id="path2958" />
    <path
       style="fill:#000000;fill-rule:evenodd;stroke:none;stroke-width:1px;stroke-linecap:butt;stroke-linejoin:miter;stroke-opacity:1;fill-opacity:0.15686275"
       d="M 98.520996,85.191373 L 98.765617,63.78706 L 101.70107,65.254784 L 102.12916,95.587755 C 101.51703,95.197795 100.93233,94.563214 100.47164,94.173254 L 100.47021,86.748498 L 98.520996,85.191373 z"
       id="path2960"
       sodipodi:nodetypes="ccccccc" />
    <path
       id="path2962"
       d="M 90.570823,81.583218 L 95.157462,83.050942 L 90.754289,88.921839 L 90.570823,81.583218 z"
       style="fill:#000000;fill-rule:evenodd;stroke:none;stroke-width:1px;stroke-linecap:butt;stroke-linejoin:miter;stroke-opacity:1;fill-opacity:0.15686275" />
    <path
       style="fill:url(#linearGradient2972);fill-rule:evenodd;stroke:none;stroke-width:1px;stroke-linecap:butt;stroke-linejoin:miter;stroke-opacity:1;fill-opacity:1"
       d="M 55.684659,39.258099 L 69.56163,28.916662 L 67.749669,53.532817 C 67.749669,53.532817 66.821591,52.781516 66.821591,52.604739 C 66.821591,52.427963 65.981902,50.306642 65.981902,50.306642 L 58.159533,48.229516 L 58.203727,41.512002 L 55.684659,39.258099 z"
       id="path2964" />
    <path
       style="fill:url(#linearGradient2976);fill-rule:evenodd;stroke:none;stroke-width:1px;stroke-linecap:butt;stroke-linejoin:miter;stroke-opacity:1;fill-opacity:1"
       d="M 69.694212,29.137633 L 85.117979,44.340429 L 84.145707,46.505943 L 75.306872,46.859497 L 70.754872,52.516351 L 67.572892,53.532817 L 69.694212,29.137633 z"
       id="path2974" />
    <path
       id="path2978"
       d="M 55.684659,39.258099 L 69.56163,28.916662 L 67.749669,53.532817 C 67.749669,53.532817 66.821591,52.781516 66.821591,52.604739 C 66.821591,52.427963 65.981902,50.306642 65.981902,50.306642 L 58.159533,48.229516 L 58.203727,41.512002 L 55.684659,39.258099 z"
       style="fill:#000000;fill-rule:evenodd;stroke:none;stroke-width:1px;stroke-linecap:butt;stroke-linejoin:miter;stroke-opacity:1;fill-opacity:0.15686275" />
    <path
       style="fill:#000000;fill-rule:evenodd;stroke:none;stroke-width:1px;stroke-linecap:butt;stroke-linejoin:miter;stroke-opacity:1;filter:url(#filter3112);fill-opacity:0.60730594"
       d="M 84.756757,44.367568 L 82.767568,45.318919 L 75.675676,46.616216 L 70.054054,51.2 L 68.237838,52.67027 L 66.162162,50.421622 L 58.637838,46.962162 L 58.205405,41.686486 L 56.648649,38.918919 L 55.437838,39.524324 L 58.032432,41.513513 L 58.118919,48.086486 L 65.816216,50.162162 L 67.286487,53.448649 L 69.621622,52.92973 L 70.572973,52.497297 L 75.502703,46.616216 L 83.805405,46.702703 L 84.756757,44.367568 z"
       id="path3106" />
  </g>
  <g
     inkscape:label="outline"
     inkscape:groupmode="layer"
     id="layer1">
    <path
       style="fill:#000000;fill-opacity:1;fill-rule:evenodd;stroke:none;stroke-width:1px;stroke-linecap:butt;stroke-linejoin:miter;stroke-opacity:1"
       d="M 69.694932,28.268919 L 55.632432,39.206419 L 54.632432,38.768919 L 9.3199324,68.018919 L 62.632432,108.73767 L 82.819932,99.800169 L 86.694932,102.83142 L 91.632432,100.42517 L 91.538682,98.362669 L 100.10118,94.362669 L 102.03868,96.112669 L 106.63243,93.737669 L 106.44493,89.362669 L 126.44493,80.487669 L 85.819932,43.143919 L 84.913682,43.768919 L 69.694932,28.268919 z M 69.913682,29.862669 L 84.694932,44.643919 L 83.944932,46.018919 L 75.226182,46.518919 L 70.694932,52.206419 L 68.226182,52.706419 L 69.913682,29.862669 z M 68.913682,30.050169 L 67.507432,52.862669 L 67.476182,52.862669 L 66.101182,50.112669 L 58.726182,47.768919 L 58.382432,41.362669 L 55.913682,39.425169 L 68.913682,30.050169 z M 54.726182,39.175169 L 57.913682,41.393919 L 57.788682,47.956419 L 54.163682,53.143919 C 52.624634,53.390095 51.096654,53.731939 49.569932,54.050169 L 44.101182,57.331419 L 40.194932,56.831419 L 40.194932,56.987669 L 43.601182,57.643919 L 42.257432,61.487669 L 43.976182,57.737669 L 44.163682,57.768919 L 49.632432,54.362669 C 51.056097,54.069589 52.607707,53.973699 54.038682,53.706419 L 56.382432,61.268919 C 54.813603,62.721002 54.25186,64.768585 53.632432,66.737669 C 53.641013,66.800583 53.653683,66.862636 53.663682,66.925169 L 47.913682,73.425169 L 44.444932,74.768919 L 48.132432,73.675169 L 53.819932,67.612669 C 54.144268,68.968517 54.723176,70.250779 55.226182,71.550169 C 55.279694,71.615985 55.314619,71.648831 55.319932,71.675169 C 55.338854,71.655578 55.364203,71.638711 55.444932,71.612669 C 54.846047,70.1417 54.239367,68.295051 53.913682,66.768919 C 54.498435,64.905723 55.946502,63.077638 56.601182,61.237669 L 54.288682,53.612669 L 58.476182,48.675169 L 65.944932,50.456419 L 66.788682,54.425169 L 66.819932,54.393919 L 62.382432,106.92517 L 60.538682,104.92517 L 59.913682,99.331419 L 59.976182,104.26892 L 57.257432,101.30017 L 56.413682,100.95642 L 54.382432,95.331419 L 55.413682,92.268919 L 54.132432,95.331419 L 56.038682,100.80017 L 49.382432,97.956419 L 57.226182,101.55017 L 61.788682,107.67517 L 10.413682,67.987669 L 54.726182,39.175169 z M 55.413682,92.268919 L 55.663682,91.643919 L 55.632432,91.581419 L 55.413682,92.268919 z M 59.913682,99.331419 L 59.913682,99.143919 L 59.882432,99.050169 L 59.913682,99.331419 z M 44.444932,74.768919 L 44.007432,74.893919 L 43.944932,74.956419 L 44.444932,74.768919 z M 85.819932,43.831419 L 124.88243,80.175169 L 106.41368,88.487669 L 105.66368,64.487669 L 101.78868,59.675169 L 98.569932,63.737669 L 98.319932,84.956419 L 94.976182,82.456419 L 90.694932,81.300169 L 90.319932,71.268919 L 86.569932,66.456419 L 83.194932,70.706419 L 82.476182,99.206419 L 63.288682,107.86267 L 65.288682,105.01892 L 66.132432,99.862669 L 71.632432,97.737669 L 78.569932,99.268919 L 73.601182,97.987669 L 75.819932,94.737669 L 75.726182,94.706419 L 73.319932,97.893919 L 71.476182,97.425169 L 66.194932,99.425169 L 67.007432,94.362669 L 69.976182,88.831419 L 69.882432,88.800169 L 66.788682,94.331419 L 65.101182,104.80017 L 62.819932,107.48767 L 67.694932,54.050169 L 71.007432,52.643919 L 75.444932,47.081419 L 83.632432,47.018919 L 86.976182,51.050169 L 86.913682,59.081419 L 88.101182,61.050169 L 87.351182,58.925169 L 87.351182,51.487669 L 95.694932,55.768919 L 95.819932,55.581419 L 87.382432,51.112669 L 87.351182,51.143919 L 87.351182,50.862669 L 84.444932,46.675169 L 85.819932,43.831419 z M 88.101182,61.050169 L 88.194932,61.331419 L 88.226182,61.268919 L 88.101182,61.050169 z M 101.97618,60.612669 L 105.00965,64.52271 L 101.69493,65.487669 L 101.97618,60.612669 z M 101.44493,61.018919 L 101.60118,65.487669 L 98.944932,63.987669 L 101.44493,61.018919 z M 98.954085,64.110448 L 101.74135,65.621171 L 101.98062,95.260417 L 100.69493,94.112669 L 100.60118,86.643919 L 98.788682,85.300169 L 98.954085,64.110448 z M 105.22239,64.538795 L 106.13243,93.268919 L 102.22618,95.268919 L 101.91368,65.494601 L 105.22239,64.538795 z M 86.663682,67.425169 L 89.757432,71.425169 L 86.507432,72.362669 L 89.882432,71.612669 L 91.132432,99.925169 L 86.804767,101.9015 L 86.507432,72.362669 L 86.444932,72.331419 L 86.663682,67.425169 z M 86.351182,67.737669 L 86.319932,72.268919 L 83.569932,70.800169 L 86.351182,67.737669 z M 83.601182,70.987669 L 86.410541,72.419807 L 86.527959,101.96622 L 83.038682,99.393919 L 83.601182,70.987669 z M 90.726182,81.893919 L 94.444932,83.175169 L 91.038682,88.487669 L 90.726182,81.893919 z M 95.163682,83.124312 L 100.25743,86.862669 L 100.10118,93.550169 L 98.913682,94.081419 L 98.882432,87.987669 L 95.132432,85.987669 L 92.194932,90.206419 L 92.226182,97.175169 L 91.413682,97.643919 L 91.069932,88.925169 L 95.163682,83.124312 z M 95.192711,86.251533 L 98.694932,88.206419 L 98.728403,94.211781 L 92.473961,97.076057 L 92.435129,90.217142 L 95.192711,86.251533 z"
       id="path2317"
       sodipodi:nodetypes="ccccccccccccccccccccccccccccccccccccccccccccccccccccccscccccccccccccccccccccccccccccccccccccccccccccccccccccccccccccccccccccccccccccccccccccccccccccccccccccccccccccccccccccccccccccccccccccccccccccccc" />
  </g>
</svg>
