<?xml version="1.0" encoding="UTF-8" standalone="no"?>
<!-- Created with Inkscape (http://www.inkscape.org/) -->
<svg
   xmlns:dc="http://purl.org/dc/elements/1.1/"
   xmlns:cc="http://creativecommons.org/ns#"
   xmlns:rdf="http://www.w3.org/1999/02/22-rdf-syntax-ns#"
   xmlns:svg="http://www.w3.org/2000/svg"
   xmlns="http://www.w3.org/2000/svg"
   xmlns:xlink="http://www.w3.org/1999/xlink"
   xmlns:sodipodi="http://sodipodi.sourceforge.net/DTD/sodipodi-0.dtd"
   xmlns:inkscape="http://www.inkscape.org/namespaces/inkscape"
   width="128"
   height="128"
   id="svg2"
   sodipodi:version="0.32"
   inkscape:version="0.45+devel"
   version="1.0"
   sodipodi:docname="statue.svg"
   inkscape:output_extension="org.inkscape.output.svg.inkscape">
  <defs
     id="defs4">
    <linearGradient
       id="linearGradient2404">
      <stop
         style="stop-color:#b49900;stop-opacity:1;"
         offset="0"
         id="stop2406" />
      <stop
         id="stop2412"
         offset="0.5"
         style="stop-color:#ffda0a;stop-opacity:1;" />
      <stop
         style="stop-color:#c6a800;stop-opacity:1;"
         offset="1"
         id="stop2408" />
    </linearGradient>
    <filter
       inkscape:collect="always"
       id="filter3032">
      <feGaussianBlur
         inkscape:collect="always"
         stdDeviation="1.9321456"
         id="feGaussianBlur3034" />
    </filter>
    <linearGradient
       id="linearGradient2338">
      <stop
         id="stop2340"
         offset="0"
         style="stop-color:#b1b1b1;stop-opacity:1;" />
      <stop
         id="stop2342"
         offset="1"
         style="stop-color:#e4e4e4;stop-opacity:1;" />
    </linearGradient>
    <linearGradient
       inkscape:collect="always"
       xlink:href="#linearGradient2338"
       id="linearGradient2380"
       x1="44.643284"
       y1="110.23442"
       x2="46.111008"
       y2="108.52208"
       gradientUnits="userSpaceOnUse" />
    <linearGradient
       inkscape:collect="always"
       xlink:href="#linearGradient2338"
       id="linearGradient2384"
       x1="65.608749"
       y1="117.84824"
       x2="87.829597"
       y2="106.84031"
       gradientUnits="userSpaceOnUse" />
    <linearGradient
       inkscape:collect="always"
       xlink:href="#linearGradient2338"
       id="linearGradient2388"
       x1="43.848263"
       y1="101.12229"
       x2="56.75201"
       y2="84.977325"
       gradientUnits="userSpaceOnUse" />
    <linearGradient
       inkscape:collect="always"
       xlink:href="#linearGradient2338"
       id="linearGradient2392"
       x1="61.022114"
       y1="110.63193"
       x2="80.919067"
       y2="76.323868"
       gradientUnits="userSpaceOnUse" />
    <linearGradient
       inkscape:collect="always"
       xlink:href="#linearGradient2338"
       id="linearGradient2396"
       x1="56.079304"
       y1="117.32843"
       x2="85.005699"
       y2="104.91393"
       gradientUnits="userSpaceOnUse" />
    <linearGradient
       inkscape:collect="always"
       xlink:href="#linearGradient2338"
       id="linearGradient2400"
       x1="46.967178"
       y1="70.23893"
       x2="78.767876"
       y2="73.357849"
       gradientUnits="userSpaceOnUse" />
    <linearGradient
       inkscape:collect="always"
       xlink:href="#linearGradient2404"
       id="linearGradient2410"
       x1="52.843243"
       y1="47.394596"
       x2="69.535141"
       y2="44.324326"
       gradientUnits="userSpaceOnUse" />
    <linearGradient
       inkscape:collect="always"
       xlink:href="#linearGradient2404"
       id="linearGradient2999"
       x1="66.382431"
       y1="62.175507"
       x2="75.691048"
       y2="48.337669"
       gradientUnits="userSpaceOnUse" />
    <linearGradient
       inkscape:collect="always"
       xlink:href="#linearGradient2404"
       id="linearGradient3001"
       x1="34.271114"
       y1="37.669426"
       x2="43.368412"
       y2="33.3451"
       gradientUnits="userSpaceOnUse" />
    <linearGradient
       inkscape:collect="always"
       xlink:href="#linearGradient2404"
       id="linearGradient3003"
       x1="64.345947"
       y1="21.102703"
       x2="55.697296"
       y2="33.5"
       gradientUnits="userSpaceOnUse" />
    <linearGradient
       inkscape:collect="always"
       xlink:href="#linearGradient2404"
       id="linearGradient3007"
       x1="23.913916"
       y1="-16.907896"
       x2="38.745945"
       y2="34.767567"
       gradientUnits="userSpaceOnUse" />
    <linearGradient
       inkscape:collect="always"
       xlink:href="#linearGradient2404"
       id="linearGradient3019"
       x1="50.027805"
       y1="72.801477"
       x2="101.38143"
       y2="31.524117"
       gradientUnits="userSpaceOnUse" />
  </defs>
  <sodipodi:namedview
     id="base"
     pagecolor="#ffffff"
     bordercolor="#666666"
     borderopacity="1.0"
     gridtolerance="10000"
     guidetolerance="10"
     objecttolerance="10"
     inkscape:pageopacity="0.0"
     inkscape:pageshadow="2"
     inkscape:zoom="1"
     inkscape:cx="64"
     inkscape:cy="92.284271"
     inkscape:document-units="px"
     inkscape:current-layer="layer2"
     showgrid="false"
     width="744.09px"
     inkscape:window-width="1248"
     inkscape:window-height="975"
     inkscape:window-x="409"
     inkscape:window-y="24"
     showguides="true"
     inkscape:guide-bbox="true" />
  <metadata
     id="metadata7">
    <rdf:RDF>
      <cc:Work
         rdf:about="">
        <dc:format>image/svg+xml</dc:format>
        <dc:type
           rdf:resource="http://purl.org/dc/dcmitype/StillImage" />
      </cc:Work>
    </rdf:RDF>
  </metadata>
  <g
     inkscape:groupmode="layer"
     id="layer2"
     inkscape:label="colors">
    <path
       style="fill:#000000;fill-opacity:0.70588237;fill-rule:evenodd;stroke:none;stroke-width:1px;stroke-linecap:butt;stroke-linejoin:miter;stroke-opacity:1;filter:url(#filter3032)"
       d="M 10.371283,46.277196 C 10.986447,48.041188 11.081533,49.88401 12.014723,51.599796 C 15.604177,55.65635 19.449394,59.770743 22.879491,63.79126 C 21.827522,63.816971 20.342395,64.651987 20.351533,65.603538 C 19.497424,66.762249 21.647686,66.712931 22.977124,66.918209 C 23.238148,67.438817 22.738448,68.749066 23.453315,69.651661 C 24.142008,70.483323 25.147857,72.043517 26.399613,70.896618 C 27.616651,70.27164 28.889295,69.753329 30.665503,70.200961 C 33.127273,70.478183 35.725718,70.615118 38.099108,71.145337 C 40.251629,72.402503 42.70966,73.500376 43.918322,75.249671 C 45.124512,76.170252 45.516578,77.142258 45.03098,78.169703 C 46.357746,78.906943 45.860259,80.165355 46.101797,81.173267 C 45.952007,82.152353 46.893788,83.430914 46.486275,84.232293 C 42.403425,85.34298 36.635591,88.411545 32.495196,89.451276 C 33.589229,95.234351 34.683263,95.136346 35.777296,100.91942 C 33.792553,101.62762 34.776014,101.6724 32.741322,102.32922 C 37.281375,108.94983 49.177924,117.6728 56.639527,121.60828 C 63.347534,117.50201 85.513783,111.81442 89.611849,106.19061 C 88.819132,103.85184 82.569994,108.57359 80.268093,106.54618 C 78.754386,101.1475 77.21951,95.749254 75.693739,90.350824 C 72.38963,88.67036 69.074835,86.999628 65.766236,85.323257 C 65.393973,82.718443 67.620384,80.499892 66.957212,77.85603 C 66.735928,74.407569 65.278787,70.887098 63.195292,67.54133 C 61.363059,68.652643 59.373428,69.967602 56.750735,70.446604 C 56.9593,69.435155 57.438766,68.424178 56.35908,67.410481 C 55.893745,66.046315 53.684538,65.504347 51.861603,65.316014 C 48.886222,64.750706 53.380273,64.026883 51.739063,63.33247 C 48.952225,62.179025 51.740814,62.309442 51.344578,61.415832 C 50.405918,60.454429 49.752113,59.503915 50.438173,58.529024 C 51.031171,56.908013 50.404914,55.062073 48.914638,53.495544 C 47.633992,51.680545 48.985273,54.1238 48.498069,54.738457 C 48.190012,55.742589 47.986797,56.775974 47.289969,57.67164 C 45.840433,56.920756 44.470747,56.679617 43.150255,57.341963 C 41.981403,58.154287 40.813274,58.783884 39.65348,57.303043 C 37.876974,55.975129 36.601981,54.419067 35.038255,52.994355 C 36.125459,55.136208 35.549066,57.506784 37.917532,59.414918 C 38.490266,60.329581 41.28486,60.794295 40.681874,61.789634 C 40.360646,62.840084 41.234803,63.641807 41.695696,64.586417 C 42.872199,65.985762 41.590126,66.248462 39.707884,66.233694 C 37.658607,66.107412 37.161407,67.81629 35.339832,67.891612 C 33.368045,67.167044 31.604721,66.248382 29.988898,65.192386 C 30.328005,64.373528 31.54079,62.965927 29.724436,62.495396 C 28.470652,62.200339 26.685596,63.503197 26.225029,62.20703 C 23.317916,58.089829 20.137364,54.022458 18.030599,49.759404 C 15.477494,48.598668 12.924389,47.437932 10.371283,46.277196 z"
       id="path2964"
       sodipodi:nodetypes="ccccccccccccccccccccccccccccccccccccccccccccc" />
    <path
       style="fill:url(#linearGradient2400);fill-rule:evenodd;stroke:none;stroke-width:1px;stroke-linecap:butt;stroke-linejoin:miter;stroke-opacity:1"
       d="M 42.502851,70.208354 L 57.730491,84.335201 L 82.86527,74.183441 L 68.188027,61.279697 L 54.795042,65.254784 L 42.502851,70.208354 z"
       id="path2398" />
    <path
       style="fill:url(#linearGradient2396);fill-rule:evenodd;stroke:none;stroke-width:1px;stroke-linecap:butt;stroke-linejoin:miter;stroke-opacity:1"
       d="M 35.653471,99.44053 L 57.057784,118.76557 L 90.815444,105.6172 L 80.96946,95.710064 L 42.808627,96.01584 L 35.653471,99.44053 z"
       id="path2394" />
    <path
       style="fill:url(#linearGradient2388);fill-rule:evenodd;stroke:none;stroke-width:1px;stroke-linecap:butt;stroke-linejoin:miter;stroke-opacity:1"
       d="M 42.13592,70.024888 L 41.707834,100.60248 L 57.669336,114.11777 L 57.730491,84.274045 L 42.13592,70.024888 z"
       id="path2386" />
    <path
       style="fill:url(#linearGradient2380);fill-rule:evenodd;stroke:none;stroke-width:1px;stroke-linecap:butt;stroke-linejoin:miter;stroke-opacity:1"
       d="M 35.103074,99.562841 L 34.797298,101.82558 L 56.935474,121.82333 L 57.424715,121.57871 L 57.057784,118.70441 L 35.103074,99.562841 z"
       id="path2378"
       sodipodi:nodetypes="cccccc" />
    <path
       style="fill:#ffffff;fill-opacity:0.1254902;fill-rule:evenodd;stroke:none;stroke-width:1px;stroke-linecap:butt;stroke-linejoin:miter;stroke-opacity:1"
       d="M 70.0625,63.125 L 63.0625,65.3125 L 55.4375,78.4375 L 54.75,80.875 L 57.6875,84.59375 L 82.9375,74.125 L 70.0625,63.125 z M 83.8125,98.9375 L 84.15625,104.46875 L 57.6875,114.15625 L 57,119.09375 L 91.0625,105.59375 L 83.8125,98.9375 z"
       id="path2949" />
    <path
       style="fill:url(#linearGradient3019);fill-rule:evenodd;stroke:none;stroke-width:1px;stroke-linecap:butt;stroke-linejoin:miter;stroke-opacity:1"
       d="M 55.331106,78.325749 L 52.060737,76.027651 L 50.027805,73.287613 L 50.116193,71.077904 L 52.679455,68.249477 L 55.507882,67.277205 L 64.346717,66.746875 L 66.909979,67.100428 L 72.74361,68.161089 L 75.041707,69.13336 L 76.455921,72.403729 L 74.422989,75.674098 L 70.003571,77.883807 L 64.435105,78.856079 L 60.98796,78.76769 L 55.331106,78.325749 z"
       id="path3017"
       sodipodi:nodetypes="cccccccccccccccc" />
    <path
       style="fill:url(#linearGradient2410);fill-rule:evenodd;stroke:none;stroke-width:1px;stroke-linecap:butt;stroke-linejoin:miter;stroke-opacity:1;fill-opacity:1"
       d="M 28.194595,7.5243243 L 28.367568,15.135135 L 36.67027,34.075676 L 34.248649,35.286486 L 33.297297,37.967568 L 36.324324,38.832432 L 35.632432,40.389189 L 35.805405,43.243243 L 37.102703,45.664865 L 40.821622,43.502703 L 45.924324,44.281081 L 49.902703,45.05946 L 53.708108,48.864865 L 55.956757,53.621622 L 55.351351,56.043243 L 56.043243,56.735135 L 55.87027,59.156757 L 55.610811,61.664865 L 55.697297,67.2 C 55.861985,69.60211 53.917846,71.190609 52.46877,72.670568 L 55.264865,78.183784 L 56.648649,80.605405 L 58.205405,81.124324 L 60.021622,80.432432 L 60.972973,78.875676 L 59.409512,71.535639 L 62.569573,70.580484 L 68.507709,75.020822 C 69.931501,74.662683 71.214541,75.571308 72.84915,73.315816 L 72.161062,70.876175 C 69.353646,67.946336 66.472969,68.044805 63.342246,68.431731 L 64.345946,66.767568 L 65.124324,65.124324 L 67.113514,63.827027 L 71.005405,65.383784 L 74.291892,68.324324 L 74.637838,64.691892 L 77.05946,58.291892 L 77.491892,54.313513 L 77.491892,50.335135 L 77.491892,48.172973 L 76.540541,41.6 L 76.021622,39.783784 L 74.205405,41.34054 L 71.264865,43.243243 L 68.843243,44.367568 L 69.708108,41.34054 L 68.843243,38.227027 L 67.545946,37.016216 L 65.210811,36.410811 L 64.345946,35.978378 L 64.259459,35.372973 L 66.075676,33.989189 L 64.172973,31.74054 L 65.902703,31.221622 L 64.691892,28.194595 L 65.902703,24.562162 L 65.989189,21.189189 L 64.605405,17.210811 L 64.605405,19.632432 L 63.308108,23.264865 L 62.443243,24.821622 L 60.367568,23.524324 L 58.378378,24.302703 L 56.12973,25.945946 L 54.227027,23.351351 L 51.286487,17.72973 L 51.459459,19.805405 L 51.459459,21.881081 L 51.632432,25.34054 L 52.92973,28.021622 L 55.264865,30.183784 L 54.745946,31.308108 L 54.659459,33.72973 L 55.091892,33.989189 L 55.437838,37.448649 L 51.632432,37.967568 L 48.691892,40.302703 L 48.086487,40.302703 L 45.578378,38.572973 L 43.32973,36.151351 L 44.627027,32.691892 L 43.675676,32.086486 L 40.648649,32.778378 L 36.497297,19.632432 L 35.027027,12.8 L 28.194595,7.5243243 z"
       id="path2954"
       sodipodi:nodetypes="ccccccccccccccccccccccccccccccccccccccccccccccccccccccccccccccccccccccccccccccccccccccc" />
    <path
       style="fill:#000000;fill-opacity:0.15686275;fill-rule:evenodd;stroke:none;stroke-width:1px;stroke-linecap:butt;stroke-linejoin:miter;stroke-opacity:1"
       d="M 42.378378,70.140541 L 56.178662,65.071536 C 55.082686,65.66991 55.938661,66.164392 55.404511,67.311194 C 55.370782,70.058264 53.386825,71.669136 52.762018,72.928378 C 53.634377,74.92707 53.684549,75.87219 55.120994,78.058832 C 55.624265,78.82494 54.271525,80.40007 54.663965,81.254614 C 55.253975,82.539373 57.530697,83.233298 57.772973,84.410811 L 57.686487,114.24865 L 56.908108,119.00541 L 57.081081,121.77297 L 35.027027,101.96757 L 35.113514,99.718919 L 41.6,96.432432 L 42.378378,70.140541 z"
       id="path2370"
       sodipodi:nodetypes="ccccsscccccccc" />
    <path
       style="fill:url(#linearGradient3003);fill-rule:evenodd;stroke:none;stroke-width:1px;stroke-linecap:butt;stroke-linejoin:miter;stroke-opacity:1;fill-opacity:1"
       d="M 51.5625,18.5 L 51.5625,24.5 L 53.625,28.625 L 55.3125,30.5 L 54.75,33.5 L 57.625,32.0625 L 61.4375,31.75 L 65.8125,31.0625 L 64.75,28.125 L 63.0625,25.6875 L 60.875,24.1875 L 58.75,24.1875 L 57.0625,25.4375 L 56.1875,26.4375 L 54.625,24.5 L 53.0625,21.3125 L 51.5625,18.5 z"
       id="path2997" />
    <path
       style="fill:url(#linearGradient3001);fill-rule:evenodd;stroke:none;stroke-width:1px;stroke-linecap:butt;stroke-linejoin:miter;stroke-opacity:1;fill-opacity:1"
       d="M 42.6875,32.09375 L 41.09375,32.59375 L 40.53125,32.71875 L 40.78125,33.9375 L 40.125,35.09375 L 39.1875,35.65625 L 37.90625,35.40625 L 37.125,35.09375 L 36.5,33.875 L 34.4375,35.21875 L 33.5,37.125 L 33.40625,38.28125 L 37.1875,39.09375 L 39.5625,39.03125 L 41.34375,38.34375 L 43,37 L 44.40625,34.125 L 44.34375,32.65625 L 42.6875,32.09375 z"
       id="path2995" />
    <path
       style="fill:url(#linearGradient2999);fill-rule:evenodd;stroke:none;stroke-width:1px;stroke-linecap:butt;stroke-linejoin:miter;stroke-opacity:1;fill-opacity:1"
       d="M 75.71875,40 L 73.1875,42.125 L 70.03125,43.90625 L 64.875,45.125 L 62.75,45.4375 L 63.78125,55.78125 L 63.28125,62.3125 L 66.96875,63.84375 L 72.03125,66.125 L 74.4375,68.4375 L 74.3125,65.9375 L 76.75,58.84375 L 77.59375,53.5 L 77.59375,49.90625 L 76.875,43.25 L 75.71875,40 z"
       id="path2956" />
    <path
       style="fill:url(#linearGradient2384);fill-rule:evenodd;stroke:none;stroke-width:1px;stroke-linecap:butt;stroke-linejoin:miter;stroke-opacity:1"
       d="M 57.180094,118.76557 L 57.180094,121.70102 L 91.24353,107.87995 L 91.304685,105.55605 L 57.180094,118.76557 z"
       id="path2382" />
    <path
       style="fill:url(#linearGradient2392);fill-rule:evenodd;stroke:none;stroke-width:1px;stroke-linecap:butt;stroke-linejoin:miter;stroke-opacity:1"
       d="M 57.48587,114.11777 L 57.852801,84.518666 L 83.293357,74.122285 L 84.027219,104.57757 L 57.48587,114.11777 z"
       id="path2390" />
    <path
       style="fill:url(#linearGradient3007);fill-rule:evenodd;stroke:none;stroke-width:1px;stroke-linecap:butt;stroke-linejoin:miter;stroke-opacity:1;fill-opacity:1"
       d="M 28.107495,7.4382936 L 28.549436,15.304857 L 37.299883,35.103846 L 38.714096,35.810953 L 39.421203,35.545788 L 40.747028,34.043186 C 40.747028,34.043186 35.532116,13.360313 35.001786,12.741594 C 34.471456,12.122876 28.195883,7.5266819 28.107495,7.4382936 z"
       id="path3005" />
  </g>
  <g
     inkscape:label="outline"
     inkscape:groupmode="layer"
     id="layer1">
    <path
       style="fill:#000000;fill-opacity:1;fill-rule:evenodd;stroke:none;stroke-width:1px;stroke-linecap:butt;stroke-linejoin:miter;stroke-opacity:1"
       d="M 28.0625,6.8125 L 28.15625,15.375 L 36.3125,33.78125 C 33.198804,35.350913 32.990392,36.864231 32.96875,38.4375 C 34.078565,38.79255 35.059792,38.981906 35.96875,39.125 C 34.639452,41.083318 35.496777,43.397723 36.90625,45.8125 C 38.590526,45.860035 40.313221,44.086783 40.90625,43.59375 L 49.40625,45.3125 C 52.168465,47.042978 54.847934,49.675758 55.5,53.9375 C 55.82255,54.495013 55.054859,55.951995 55,56.59375 L 55.6875,56.78125 L 55.71875,58.8125 C 55.288138,60.769608 55.427567,62.812049 55.375,64.84375 L 41.96875,70.1875 L 41.3125,96.4375 C 39.200931,97.59138 36.89665,98.637028 34.75,99.5625 L 34.65625,101.875 L 56.75,122.09375 L 91.5,108.125 L 91.625,105.5625 L 84.28125,98.875 L 83.40625,74.25 L 74.59375,66.46875 C 74.94041,63.605089 76.149359,61.018581 77.15625,58.375 C 78.286537,51.922486 77.649606,45.645845 76.09375,39.4375 C 74.079254,41.354357 71.765897,43.148722 69.28125,44.03125 C 70.600048,40.569523 70.078976,37.290397 65.59375,36.34375 C 65.550896,36.063945 64.464455,35.921639 64.4375,35.625 C 64.339619,35.185174 66.544429,34.378131 66.4375,33.9375 C 66.263546,33.22069 64.799299,32.746118 64.625,32.03125 C 64.783502,31.413769 66.247589,31.508407 66.1875,31 C 66.049776,29.834651 65.541777,28.918456 65,28.09375 C 66.713087,24.222186 66.812829,20.064601 64.40625,16.65625 C 64.837871,19.407539 64.023566,21.761344 62.46875,24.46875 C 60.524218,22.744494 58.246798,23.477335 56.1875,25.9375 C 54.003567,23.433181 52.857009,19.38533 50.71875,16.8125 C 52.536525,21.141856 49.32573,26.519357 54.8125,30.0625 L 54.3125,33.65625 L 54.71875,34.1875 C 54.811542,35.199241 54.935185,36.202065 55.09375,37.1875 C 52.655585,38.066487 50.837373,37.015425 48.34375,40.15625 C 46.745139,39.858199 45.085192,37.642048 43.90625,36 C 44.677924,34.437377 44.702291,32.84069 44.75,32.5 C 45.055799,32.130939 42.106115,31.469501 40.53125,32.59375 L 35.1875,12.625 L 28.0625,6.8125 z M 29.125,8.625 L 34.53125,13.09375 L 40.40625,33.84375 C 39.837896,35.501206 39.260366,35.9019 37.5,35.0625 L 28.875,15.34375 L 28.78125,8.71875 L 38.5625,33.375 L 29.125,8.625 z M 64.8125,18.28125 C 66.118652,21.246069 66.15658,23.847385 64.4375,27.21875 C 64.292059,26.988635 64.13751,26.75446 64.03125,26.53125 C 63.714915,25.945835 63.407688,25.440239 63.0625,25.03125 C 63.575063,23.44039 64.913046,21.341452 64.8125,18.28125 z M 51.75,19.65625 C 54.301645,22.857006 54.427507,28.204467 59.40625,28.25 C 59.354093,29.116938 59.798309,30.050469 57.34375,30.40625 C 52.954432,30.579137 51.087648,22.864755 51.75,19.65625 z M 59.4375,24.21875 C 59.591724,24.201294 59.750904,24.207495 59.90625,24.21875 C 61.23187,24.314795 62.557553,25.45367 63.4375,26.78125 C 64.408594,28.358004 65.211267,29.095657 65.40625,30.9375 L 57.375,31.90625 L 54.8125,33.375 C 54.78828,32.474592 55.27879,31.33287 55.46875,30.46875 C 55.865725,30.687131 56.272581,30.923857 56.75,31.125 C 59.157288,30.903361 60.592182,30.087781 60.3125,28.15625 C 58.735511,28.033811 57.552277,27.315756 56.5625,26.3125 C 57.332086,25.151608 58.357934,24.340945 59.4375,24.21875 z M 63.75,31.625 C 63.604035,32.197414 65.167805,33.341752 65.3125,34.1875 C 65.393387,34.660292 64.002451,35.029253 64,35.15625 C 64.162895,36.02883 64.591912,36.982623 64.78125,37.59375 L 61,38.59375 L 55.5,35.71875 C 55.425732,35.296056 55.359495,34.860918 55.3125,34.4375 C 55.813562,33.323492 56.614118,32.453809 58.25,32.3125 L 63.75,31.625 z M 42.65625,32.46875 C 43.768958,32.384858 44.597248,32.748813 43.90625,33.5625 C 42.646231,41.089527 35.605021,38.456664 33.96875,37.96875 C 33.4323,36.17985 35.440404,35.173959 36.5,34.25 L 37,35.34375 C 40.535387,36.72249 40.264043,34.885763 40.90625,33.9375 L 40.6875,33.0625 C 41.301219,32.719532 42.018675,32.516818 42.65625,32.46875 z M 55.59375,36.21875 C 58.040488,37.083624 59.983559,40.431234 65.0625,37.875 C 65.450969,39.349548 65.198108,41.071311 62.09375,42 C 60.387973,43.107902 57.804922,41.4203 56.25,38.875 C 56.014193,38.003293 55.771965,37.124083 55.59375,36.21875 z M 43.5625,36.59375 C 45.496824,39.901454 49.199612,41.209514 52.53125,42.40625 C 52.685227,43.566139 54.079523,45.239761 50.8125,45.03125 L 41.46875,43.09375 C 42.876225,41.581352 42.394623,40.926222 42.4375,40.03125 C 42.001912,42.414313 39.43882,44.057246 37.375,45.25 C 35.273721,43.8886 35.661817,40.6114 36.46875,39.25 L 36.375,39.1875 C 40.40752,39.710239 42.493797,38.288013 43.5625,36.59375 z M 65.5625,36.71875 C 67.971542,36.810277 70.531347,38.315034 68.59375,44 C 66.594404,44.65219 64.484511,44.80892 62.375,45.21875 C 62.560303,48.350207 63.004728,51.542877 63.25,54.71875 C 61.180321,56.103279 57.893058,57.035518 55.5625,56.28125 L 56.40625,53.78125 C 54.651043,50.929706 53.668993,47.639805 50.625,45.59375 L 51.59375,45.75 C 55.440358,44.917569 53.183425,43.604206 53.21875,41.875 C 51.792536,41.462575 50.309322,41.083397 48.90625,40.53125 C 51.49623,37.955502 52.854301,38.394609 55.1875,37.78125 C 55.247841,38.160563 55.321254,38.55555 55.375,38.9375 C 57.689143,41.912219 60.235767,43.881506 63.65625,41.78125 C 66.00738,40.554218 65.827379,38.412466 65.5625,36.71875 z M 75.78125,40.25 C 77.741621,45.986239 77.938256,52.326262 76.71875,58.0625 C 75.664741,61.008823 73.627329,64.433317 74.09375,68.03125 C 71.661636,64.443272 66.697792,64.097165 63.59375,62.34375 C 64.617297,57.402334 63.50391,50.601873 62.96875,45.5625 C 64.66972,45.10789 66.906802,44.975425 68.90625,44.375 C 71.297249,43.65699 73.874626,42.068126 75.78125,40.25 z M 72.03125,45.125 L 68.71875,46.1875 L 69.28125,50.59375 L 69.59375,50.59375 L 69.09375,46.40625 L 72.125,45.34375 L 72.03125,45.125 z M 60.21875,45.34375 C 58.754665,47.194642 59.192646,49.055355 55.59375,50.90625 L 56.0625,50.84375 C 59.643523,50.075665 58.924926,47.320022 60.375,45.4375 L 60.21875,45.34375 z M 73.8125,48.65625 L 73.4375,48.6875 L 73.71875,51.09375 L 76.96875,50.4375 L 76.78125,50.15625 L 74.03125,50.78125 L 73.8125,48.65625 z M 68.75,51.28125 L 64.6875,52 L 64.875,54.21875 L 65.1875,54.15625 L 64.90625,52.09375 L 68.71875,51.5 L 68.75,51.28125 z M 76.75,52.09375 L 73.6875,52.96875 L 74.03125,56.21875 L 74.46875,56.125 L 74.09375,53.1875 L 76.78125,52.375 L 76.75,52.09375 z M 63.3125,55.34375 C 63.47651,57.744612 63.509634,60.153694 63.21875,62.46875 C 64.068929,62.898541 65.419747,63.410805 66.28125,63.75 C 63.957724,64.583533 64.135201,66.969566 63.25,68.625 C 68.376523,68.286793 72.35624,69.235426 72.3125,72.84375 C 72.389475,74.793336 69.764905,74.516182 68.75,74.71875 L 62.53125,70.3125 L 62.15625,70.40625 C 63.208145,66.599763 62.494864,62.976807 61.1875,59.40625 L 61.09375,59.59375 C 62.266595,63.422451 62.541159,67.101325 61.53125,70.6875 L 59.125,71.15625 L 60.28125,78.21875 C 61.127849,79.210373 58.289404,81.917562 56.5,79.96875 L 52.875,72.65625 C 58.082928,68.174334 55.086306,63.700664 56.1875,59.21875 L 56.1875,59.15625 L 56.1875,59.125 L 56.28125,56.8125 C 58.349893,57.575622 61.339114,56.023993 63.3125,55.34375 z M 70.78125,56.03125 L 68.03125,56.5 L 68.125,56.71875 L 70.375,56.28125 L 70.90625,61.1875 L 71.34375,61.21875 L 70.78125,56.03125 z M 67.25,64.15625 C 69.728963,65.116329 72.195905,66.172225 74.5,68.53125 C 74.482293,68.096451 74.474069,67.670259 74.5,67.25 L 82.40625,74.09375 L 58.0625,83.8125 L 42.84375,70.21875 L 55.3125,65.3125 C 55.290712,65.709851 55.266221,66.484245 55.21875,66.875 C 52.001786,68.169812 49.847201,69.242034 49.53125,72.875 C 49.977805,75.106376 52.212513,76.702042 54.8125,78.25 L 54.875,78.15625 L 56,80.71875 C 57.274921,81.682851 59.59263,82.194342 61.375,79.34375 C 64.930276,79.074316 68.314532,78.98201 70.875,77.9375 C 75.288616,76.177384 78.489112,73.238948 75.0625,69.03125 C 73.254817,67.703282 69.24081,67.3345 64.53125,66.6875 C 64.850229,65.540283 65.816421,64.345612 67.25,64.15625 z M 65,66.875 C 69.738972,67.526509 73.241878,68.321301 74.71875,69.40625 C 78.263547,72.668453 73.614886,76.293716 70.6875,77.53125 C 68.372488,78.475635 64.246477,78.281017 60.9375,78.5 L 59.90625,71.59375 L 62.25,70.71875 L 68.4375,75.46875 C 71.614508,75.039814 73.440506,74.089517 73.4375,72.4375 C 69.818589,67.152633 66.106453,67.991374 63.4375,68.40625 C 63.617367,67.96531 64.87229,67.361577 65,66.875 z M 55.125,67.46875 C 54.814268,69.321988 54.113033,71.061779 52.34375,72.5625 L 54.53125,77.4375 C 52.241587,75.953667 50.379231,73.895363 50.125,72.625 C 50.330285,69.887803 53.138777,68.389881 55.125,67.46875 z M 42.5,70.46875 L 57.28125,84.875 L 57.25,111.84375 L 55.125,108.5625 L 54.65625,104.34375 L 52.40625,101.46875 L 55.4375,94.8125 L 52.34375,100.375 L 51.46875,97.3125 L 51.34375,97.375 L 51.875,101.21875 L 51.78125,101.40625 L 54.28125,104.4375 L 54.3125,108.09375 L 51.6875,106.625 L 47.78125,100.90625 L 47.625,100.9375 L 51.0625,106.59375 L 51.09375,106.625 L 51.125,106.6875 L 54.65625,108.75 L 56.40625,112.65625 L 42.40625,100.5 L 44.71875,98.78125 L 46.9375,97.625 L 46.78125,97.5625 L 44.71875,98.28125 L 44.65625,95 L 44.78125,94.875 L 44.78125,94.84375 L 46.15625,93.125 L 44.6875,94.40625 L 43.71875,89.625 L 43.59375,89.59375 L 44.28125,94.75 L 44.1875,94.84375 L 44.25,98.46875 L 42.15625,99.59375 L 42.5,70.46875 z M 46.15625,93.125 L 46.3125,92.96875 L 46.3125,92.90625 L 46.15625,93.125 z M 83,74.53125 L 83.65625,103.40625 L 78.84375,101.34375 L 79.71875,97.46875 L 82.125,95.40625 L 79.40625,92.625 L 79.21875,92.5 L 81.4375,95.46875 L 79.375,96.9375 L 76.09375,95.96875 L 76.34375,94.34375 L 74.25,92.03125 L 75.9375,94.5625 L 75.53125,95.625 L 71.65625,93.03125 L 71.71875,93.25 L 75.6875,96.28125 L 79.1875,97.28125 L 78.46875,100.78125 L 76.3125,101.625 L 76.3125,101.75 L 78.40625,101.59375 L 83.28125,104.53125 L 58.5625,113.5625 L 59.59375,111.34375 L 67.625,108.96875 L 67.6875,108.84375 L 64.28125,109.65625 L 65.03125,107.03125 L 64.96875,106.84375 L 63.9375,109.6875 L 59.5,110.84375 L 58.96875,108.03125 L 62,105.625 L 64.03125,103.6875 L 66.1875,104.71875 L 66.25,104.625 C 67.219158,105.16057 68.5,106.0625 68.5,106.0625 L 68.625,105.84375 C 68.625001,105.84375 67.361558,104.61722 66.5,104.15625 L 67.46875,102.34375 L 70.21875,103.25 L 70.3125,103.21875 L 67.3125,101.90625 L 65.875,104.09375 L 64.375,103.28125 L 64.5625,100 L 66.96875,99 L 64.25,99.6875 L 64.0625,103.03125 L 61.65625,104.8125 L 59.59375,99.8125 L 61.28125,96.15625 L 59.84375,93.125 L 60.84375,96.21875 L 59.1875,99.875 L 61.46875,105.40625 L 58.34375,107.96875 L 59.21875,111.25 L 57.90625,113.125 L 58.03125,84.8125 L 83,74.53125 z M 41.3125,97.125 L 41.21875,100.6875 L 57.5625,114.6875 L 84.46875,104.8125 L 84.40625,99.5 L 90.21875,105.59375 L 57.03125,118.46875 L 36.03125,99.71875 L 41.3125,97.125 z M 35.375,99.78125 L 56.8125,119.09375 L 57.0625,121.3125 L 35.3125,101.96875 L 35.375,99.78125 z M 90.9375,105.96875 L 90.8125,107.6875 L 57.40625,121.0625 L 57.3125,119.15625 L 90.9375,105.96875 z"
       id="path2309"
       sodipodi:nodetypes="ccccccccccccccccccccccccccccscscccccccccccccccccccccccccscccccccsccccccccccsccccccccccccccccccccccccccccccccccccccccccccccccsccccccccccccccccccccccccccccccccccccccccccccccccccccccccccccccccccccccccccccccccccccccccccccccccccccccccccccccccccccccccccccccccccccccccccccccccccccccccccccccccccccccccccccccccccccccccccccccccccccccccccccccccccccccccc" />
  </g>
</svg>
