<?xml version="1.0" encoding="UTF-8" standalone="no"?>
<!-- Created with Inkscape (http://www.inkscape.org/) -->
<svg
   xmlns:dc="http://purl.org/dc/elements/1.1/"
   xmlns:cc="http://creativecommons.org/ns#"
   xmlns:rdf="http://www.w3.org/1999/02/22-rdf-syntax-ns#"
   xmlns:svg="http://www.w3.org/2000/svg"
   xmlns="http://www.w3.org/2000/svg"
   xmlns:xlink="http://www.w3.org/1999/xlink"
   xmlns:sodipodi="http://sodipodi.sourceforge.net/DTD/sodipodi-0.dtd"
   xmlns:inkscape="http://www.inkscape.org/namespaces/inkscape"
   width="128"
   height="128"
   id="svg2"
   sodipodi:version="0.32"
   inkscape:version="0.45+devel"
   version="1.0"
   sodipodi:docname="sword_in_the_stone.svg"
   inkscape:output_extension="org.inkscape.output.svg.inkscape">
  <defs
     id="defs4">
    <linearGradient
       id="linearGradient3130">
      <stop
         style="stop-color:#8dbbdc;stop-opacity:1;"
         offset="0"
         id="stop3132" />
      <stop
         style="stop-color:#dadada;stop-opacity:1;"
         offset="1"
         id="stop3134" />
    </linearGradient>
    <linearGradient
       id="linearGradient2338">
      <stop
         style="stop-color:#b1b1b1;stop-opacity:1;"
         offset="0"
         id="stop2340" />
      <stop
         style="stop-color:#e4e4e4;stop-opacity:1;"
         offset="1"
         id="stop2342" />
    </linearGradient>
    <linearGradient
       id="linearGradient2404">
      <stop
         id="stop2406"
         offset="0"
         style="stop-color:#b49900;stop-opacity:1;" />
      <stop
         style="stop-color:#ffda0a;stop-opacity:1;"
         offset="0.5"
         id="stop2412" />
      <stop
         id="stop2408"
         offset="1"
         style="stop-color:#c6a800;stop-opacity:1;" />
    </linearGradient>
    <linearGradient
       inkscape:collect="always"
       xlink:href="#linearGradient2338"
       id="linearGradient2527"
       x1="27.521622"
       y1="101.36216"
       x2="39.764866"
       y2="89.772972"
       gradientUnits="userSpaceOnUse" />
    <linearGradient
       inkscape:collect="always"
       xlink:href="#linearGradient2338"
       id="linearGradient2531"
       x1="49.297298"
       y1="117.44865"
       x2="64.345947"
       y2="94.962158"
       gradientUnits="userSpaceOnUse" />
    <linearGradient
       inkscape:collect="always"
       xlink:href="#linearGradient2338"
       id="linearGradient2535"
       x1="82.854057"
       y1="104.56216"
       x2="90.983788"
       y2="88.648643"
       gradientUnits="userSpaceOnUse" />
    <linearGradient
       inkscape:collect="always"
       xlink:href="#linearGradient2404"
       id="linearGradient2539"
       x1="52.5"
       y1="35.3125"
       x2="73"
       y2="40.3125"
       gradientUnits="userSpaceOnUse" />
    <linearGradient
       inkscape:collect="always"
       xlink:href="#linearGradient2404"
       id="linearGradient2543"
       x1="62.125"
       y1="28.8125"
       x2="68.5"
       y2="31.1875"
       gradientUnits="userSpaceOnUse" />
    <linearGradient
       inkscape:collect="always"
       xlink:href="#linearGradient2404"
       id="linearGradient2547"
       x1="67.6875"
       y1="25.875"
       x2="69"
       y2="17.0625"
       gradientUnits="userSpaceOnUse" />
    <linearGradient
       inkscape:collect="always"
       xlink:href="#linearGradient3130"
       id="linearGradient3136"
       x1="62.313786"
       y1="72.648651"
       x2="58.036907"
       y2="72.12973"
       gradientUnits="userSpaceOnUse" />
    <linearGradient
       inkscape:collect="always"
       xlink:href="#linearGradient3130"
       id="linearGradient3138"
       x1="55.661839"
       y1="63.875156"
       x2="59.352776"
       y2="64.740021"
       gradientUnits="userSpaceOnUse" />
    <filter
       inkscape:collect="always"
       id="filter3164">
      <feGaussianBlur
         inkscape:collect="always"
         stdDeviation="1.0091826"
         id="feGaussianBlur3166" />
    </filter>
  </defs>
  <sodipodi:namedview
     id="base"
     pagecolor="#ffffff"
     bordercolor="#666666"
     borderopacity="1.0"
     gridtolerance="10000"
     guidetolerance="10"
     objecttolerance="10"
     inkscape:pageopacity="0.0"
     inkscape:pageshadow="2"
     inkscape:zoom="1"
     inkscape:cx="64"
     inkscape:cy="64"
     inkscape:document-units="px"
     inkscape:current-layer="layer2"
     showgrid="false"
     width="744.09px"
     inkscape:window-width="1248"
     inkscape:window-height="975"
     inkscape:window-x="426"
     inkscape:window-y="24" />
  <metadata
     id="metadata7">
    <rdf:RDF>
      <cc:Work
         rdf:about="">
        <dc:format>image/svg+xml</dc:format>
        <dc:type
           rdf:resource="http://purl.org/dc/dcmitype/StillImage" />
      </cc:Work>
    </rdf:RDF>
  </metadata>
  <g
     inkscape:groupmode="layer"
     id="layer2"
     inkscape:label="colors">
    <path
       style="fill:#000000;fill-rule:evenodd;stroke:none;stroke-width:1px;stroke-linecap:butt;stroke-linejoin:miter;stroke-opacity:1;fill-opacity:0.55656111;filter:url(#filter3164)"
       d="M 30.25,108.25 C 28.123255,108.95891 18.963494,101.3455 24.25,91.75 C 27.666392,85.54893 37.25,81.25 37.25,81.25 L 31.25,57.25 L 24,61.5 L 22,56.75 L 30.25,54 L 27.25,49.25 L 34.5,43.75 L 34.25,52.25 L 41,50.5 L 42,54.25 L 36.75,56 L 40.5,78.25 C 40.5,78.25 46.75,76.75 50.5,78.5 C 54.25,80.25 57.75,83.5 57.75,87.25 C 57.75,91 35.5,113 30.25,108.25 z"
       id="path3158"
       sodipodi:nodetypes="csccccccccccccssc" />
    <path
       style="fill:url(#linearGradient2527);fill-rule:evenodd;stroke:none;stroke-width:1px;stroke-linecap:butt;stroke-linejoin:miter;stroke-opacity:1"
       d="M 47.221622,84.92973 L 43.07027,83.545946 L 39.091892,85.448649 L 32.345946,89.254054 L 30.789189,90.810811 L 30.27027,92.367568 L 29.232432,94.27027 L 27.502703,97.72973 L 26.464865,99.805405 L 27.675676,103.78378 L 30.616216,107.07027 L 32,107.07027 L 33.383784,97.902703 L 35.459459,93.751351 L 39.091892,90.464865 L 43.416216,88.043243 L 47.221622,84.92973 z"
       id="path2525" />
    <path
       style="fill:url(#linearGradient2531);fill-rule:evenodd;stroke:none;stroke-width:1px;stroke-linecap:butt;stroke-linejoin:miter;stroke-opacity:1"
       d="M 53.794595,78.356757 L 52.064865,79.740541 L 48.951351,81.816216 L 47.221622,84.92973 L 42.897297,88.908108 L 37.881081,91.675676 L 35.459459,94.789189 L 32.172973,101.18919 L 32.172973,106.8973 L 31.481081,109.83784 C 32.067999,112.60838 33.571673,113.08704 34.767568,114.33514 C 34.767568,114.33514 37.708108,115.71892 38.918919,116.75676 C 40.12973,117.79459 42.205405,117.44865 43.935135,118.48649 C 45.664865,119.52432 48.778378,120.04324 48.778378,120.04324 L 53.448649,122.11892 L 58.637838,124.71351 L 61.924324,125.40541 L 66.594595,124.71351 L 69.016216,123.5027 L 72.12973,120.21622 L 76.108108,117.96757 L 78.875676,110.52973 L 80.432432,104.82162 L 79.827027,100.32432 L 78.962162,98.162163 L 78.52973,92.367568 L 74.032432,87.524324 L 68.497297,84.92973 L 61.059459,81.643243 L 59.675676,78.875676 L 58.983784,80.951351 L 56.562162,81.124324 L 54.140541,79.394595 L 53.794595,78.356757 z"
       id="path2529"
       sodipodi:nodetypes="cccccccccccssccccccccccccccccccccc" />
    <path
       style="fill:url(#linearGradient2535);fill-rule:evenodd;stroke:none;stroke-width:1px;stroke-linecap:butt;stroke-linejoin:miter;stroke-opacity:1"
       d="M 80.086486,107.24324 L 81.816216,108.8 L 85.102703,109.66486 L 91.502703,108.28108 L 94.789189,106.8973 L 96.864865,105.16757 L 96,99.805405 L 93.924324,94.616216 L 92.194595,90.637838 L 89.254054,87.351351 L 86.659459,85.621622 L 82.335135,86.832432 C 82.335135,86.832432 79.048649,87.351351 78.356757,87.351351 C 77.664865,87.351351 72.994594,87.178378 72.994594,87.178378 L 77.318919,90.291892 L 78.356757,92.713514 L 78.875676,96.518919 L 78.78919,98.248649 C 79.783628,99.632433 80.516102,101.01622 79.913514,102.4 L 80.086486,107.24324 z"
       id="path2533"
       sodipodi:nodetypes="ccccccccccccsccccccc" />
    <path
       style="fill:url(#linearGradient2539);fill-rule:evenodd;stroke:none;stroke-width:1px;stroke-linecap:butt;stroke-linejoin:miter;stroke-opacity:1"
       d="M 62,39.25 L 56,39.25 L 50,39.25 L 50.875,37.5 L 52.125,31.625 L 58.125,34.5 L 68,36.75 L 76,36.75 L 74.75,40.25 L 73.75,44.5 L 70.875,42.375 L 66.375,39.875 L 62,39.25 z"
       id="path2537" />
    <path
       style="fill:url(#linearGradient2543);fill-rule:evenodd;stroke:none;stroke-width:1px;stroke-linecap:butt;stroke-linejoin:miter;stroke-opacity:1"
       d="M 60.5,34.75 C 60.5,34.75 61.875,30.875 61.875,30.375 C 61.875,29.875 62.25,23.75 62.25,23.75 L 71.5,26 L 69.625,28.625 L 67.875,32.625 L 67.625,36.375 L 63.5,35.625 L 60.5,34.75 z"
       id="path2541" />
    <path
       style="fill:url(#linearGradient2547);fill-rule:evenodd;stroke:none;stroke-width:1px;stroke-linecap:butt;stroke-linejoin:miter;stroke-opacity:1"
       d="M 62.25,23.875 L 60.25,22 L 60.5,20.875 L 62.75,20.75 L 67.5,20.875 C 67.5,20.875 70.75,21.625 72.375,22.375 C 74,23.125 75.125,24.75 75.125,24.75 L 74.375,25.375 L 71.375,25.875 L 66.75,24.875 L 62.25,23.875 z"
       id="path2545" />
    <path
       style="fill:url(#linearGradient3138);fill-rule:evenodd;stroke:none;stroke-width:1px;stroke-linecap:butt;stroke-linejoin:miter;stroke-opacity:1"
       d="M 54.623999,79.474797 L 59.662135,38.992934 L 64.081553,39.346487 L 56.303378,80.800622 L 54.623999,79.474797 z"
       id="path2549"
       sodipodi:nodetypes="ccccc" />
    <path
       style="fill:url(#linearGradient3136);fill-rule:evenodd;stroke:none;stroke-width:1px;stroke-linecap:butt;stroke-linejoin:miter;stroke-opacity:1;fill-opacity:1"
       d="M 63.816387,39.611652 L 56.480154,80.712234 L 58.689863,80.977399 L 68.147416,40.495536 L 63.816387,39.611652 z"
       id="path2551" />
    <path
       id="path3140"
       d="M 47.221622,84.92973 L 43.07027,83.545946 L 39.091892,85.448649 L 32.345946,89.254054 L 30.789189,90.810811 L 30.27027,92.367568 L 29.232432,94.27027 L 27.502703,97.72973 L 26.464865,99.805405 L 27.675676,103.78378 L 30.616216,107.07027 L 32,107.07027 L 33.383784,97.902703 L 35.459459,93.751351 L 39.091892,90.464865 L 43.416216,88.043243 L 47.221622,84.92973 z"
       style="fill:#000000;fill-rule:evenodd;stroke:none;stroke-width:1px;stroke-linecap:butt;stroke-linejoin:miter;stroke-opacity:1;fill-opacity:0.15686275" />
    <path
       style="fill:#000000;fill-rule:evenodd;stroke:none;stroke-width:1px;stroke-linecap:butt;stroke-linejoin:miter;stroke-opacity:1;fill-opacity:0.15686275"
       d="M 32.875,102.875 L 34.125,97.5 L 38.375,90.75 L 39.25,91 L 36.375,97 L 36.25,103.75 C 35.184401,103.33953 34.534928,102.09681 32.875,102.875 z"
       id="path3142"
       sodipodi:nodetypes="ccccccc" />
    <path
       style="fill:#000000;fill-rule:evenodd;stroke:none;stroke-width:1px;stroke-linecap:butt;stroke-linejoin:miter;stroke-opacity:1;fill-opacity:0.15686275"
       d="M 43.5,102.25 C 43.5,101.75 45,99.25 45,99.25 L 50.75,98.25 L 49.5,101.375 L 51.125,111.875 C 49.738261,109.49484 49.616571,104.07856 46.75,105.25 C 46.975591,102.28661 45.223725,102.28941 43.5,102.25 z"
       id="path3144"
       sodipodi:nodetypes="ccccccc" />
    <path
       style="fill:#000000;fill-rule:evenodd;stroke:none;stroke-width:1px;stroke-linecap:butt;stroke-linejoin:miter;stroke-opacity:1;fill-opacity:0.15686275"
       d="M 13.875,103.375 C 16.803755,106.24792 15.865907,107.36329 15.25,108.625 C 21.043821,106.78844 26.465085,105.51071 29.625,107.625 L 27.875,104.125 L 21.25,105.75 L 17.875,105 L 13.875,103.375 z"
       id="path3146"
       sodipodi:nodetypes="ccccccc" />
    <path
       style="fill:#000000;fill-rule:evenodd;stroke:none;stroke-width:1px;stroke-linecap:butt;stroke-linejoin:miter;stroke-opacity:1;fill-opacity:0.15686275"
       d="M 61.5,117.125 C 61.625,116.625 65.25,114.5 65.25,114.5 L 68.25,108.875 L 68.375,105.25 L 72.25,110.25 L 71.625,114.625 L 70.25,119 C 68.928818,115.17461 65.141881,115.64594 61.5,117.125 z"
       id="path3148"
       sodipodi:nodetypes="cccccccc" />
    <path
       style="fill:#000000;fill-rule:evenodd;stroke:none;stroke-width:1px;stroke-linecap:butt;stroke-linejoin:miter;stroke-opacity:1;fill-opacity:0.15686275"
       d="M 74.875,102.875 L 70.125,96.25 L 65.625,90.5 L 65.625,92.625 L 66.625,97.5 L 67,101.75 C 69.114993,97.279929 72.151986,101.56887 74.875,102.875 z"
       id="path3150"
       sodipodi:nodetypes="ccccccc" />
    <path
       style="fill:#000000;fill-rule:evenodd;stroke:none;stroke-width:1px;stroke-linecap:butt;stroke-linejoin:miter;stroke-opacity:1;fill-opacity:0.15686275"
       d="M 87.375,103.125 C 88.293007,99.672027 90.382233,100.90393 92.25,101.25 L 88.625,98.25 L 86.25,96.875 L 87.875,101.125 L 87.375,103.125 z"
       id="path3152"
       sodipodi:nodetypes="cccccc" />
    <path
       style="fill:#000000;fill-rule:evenodd;stroke:none;stroke-width:1px;stroke-linecap:butt;stroke-linejoin:miter;stroke-opacity:1;fill-opacity:0.15686275"
       d="M 106.625,118.125 L 102.125,113.25 L 100.625,112.875 L 100.875,118.875 C 102.58691,116.1679 104.58405,116.88357 106.625,118.125 z"
       id="path3154"
       sodipodi:nodetypes="ccccc" />
    <path
       style="fill:#000000;fill-rule:evenodd;stroke:none;stroke-width:1px;stroke-linecap:butt;stroke-linejoin:miter;stroke-opacity:1;fill-opacity:0.15686275"
       d="M 77.5,115.125 L 80,107.375 L 83,109.625 L 86.125,109.625 C 82.846174,110.51607 79.786243,111.9179 77.5,115.125 z"
       id="path3156"
       sodipodi:nodetypes="ccccc" />
  </g>
  <g
     inkscape:label="outline"
     inkscape:groupmode="layer"
     id="layer1">
    <path
       style="fill:#000000;fill-opacity:1;fill-rule:evenodd;stroke:none;stroke-width:1px;stroke-linecap:butt;stroke-linejoin:miter;stroke-opacity:1"
       d="M 61.625,3.90625 L 61.5,4.09375 C 60.848144,8.3135037 62.206235,12.198266 63.5,16.09375 L 63.875,16.03125 C 63.716454,12.03125 63.400731,7.90625 61.625,3.90625 z M 41.5625,4.25 C 43.731944,9.0824076 45.489307,14.052176 49.5625,18.25 L 49.6875,18.125 C 48.395224,13.458333 45.15053,8.9166667 41.9375,4.25 L 41.5625,4.25 z M 89.65625,5.625 C 86.125862,8.2308902 82.54162,10.729074 79.65625,14.625 L 79.71875,14.75 C 83.84596,12.940815 86.788313,9.7918447 89.59375,6 L 89.65625,5.625 z M 26.75,17.4375 C 30.910004,21.28638 35.590033,23.921868 40.75,25.4375 L 40.875,25.4375 C 37.129784,21.849383 32.742714,19.028119 27,17.4375 L 26.75,17.4375 z M 62.65625,20.28125 C 61.99698,20.298159 61.337501,20.358279 60.6875,20.5 C 59.589064,21.173031 59.839176,21.737856 60.28125,22.75 C 60.5645,23.131084 61.001301,23.557216 61.5625,24.03125 C 61.574013,24.136944 61.584329,24.238708 61.59375,24.34375 C 60.983122,24.822917 60.635069,25.489583 61.65625,25.96875 C 61.660024,26.654469 61.629436,26.741017 61.5625,27.40625 C 60.630979,27.57863 60.228894,28.554322 61.40625,29.3125 C 61.291728,30.048094 61.133043,30.525364 60.96875,31.25 C 60.397756,31.177512 59.874814,31.829901 60.6875,32.6875 C 60.511446,33.394773 60.342434,33.789029 60.15625,34.5 L 51.3125,30.8125 C 52.256638,34.366079 50.923027,37.094143 49.3125,39.71875 L 59.59375,39.6875 L 54.40625,77.8125 C 54.333499,77.802821 53.822274,77.883923 53.75,77.875 L 52.5625,79.1875 C 51.074854,79.284094 49.947096,80.489746 48.84375,81.59375 L 48.78125,81.625 L 48.75,81.6875 C 48.294971,82.462518 47.8026,83.164138 47.25,83.8125 C 45.245729,83.525499 43.445899,83.234155 41.5625,83.96875 L 41.5625,84 C 41.554229,84.006046 41.539471,83.993831 41.53125,84 C 37.532138,86.01861 33.311267,87.28158 30.375,90.84375 C 30.015009,92.439755 29.370147,94.159824 28.4375,95.46875 C 27.487326,96.734531 26.163443,97.640714 26,99.40625 C 26.130388,100.62195 26.520286,101.77838 26.96875,102.90625 C 24.713305,103.08932 22.632602,104.28959 20.625,105.28125 C 20.187525,104.88593 18.587847,105.22939 17.75,104.875 C 14.734494,103.00325 11.442473,102.40466 8,102.78125 L 7.75,102.875 C 11.100505,102.82846 14.457511,103.74648 17.4375,105.25 C 18.112379,105.58362 19.681886,105.85759 20.4375,105.96875 C 17.919491,107.60817 14.354824,108.78576 12.34375,111.4375 L 12.5,111.40625 C 14.552873,108.69939 18.189012,108.30096 21.09375,106.1875 C 22.919371,105.16094 25.51454,104.84731 27.65625,104.53125 C 28.41958,105.87735 29.177538,107.72576 30.84375,108.625 C 30.522164,110.03856 30.913358,110.50102 31.375,111.625 C 34.592073,117.83592 42.615586,118.68486 48.6875,120.46875 L 48.71875,120.46875 L 48.75,120.46875 C 51.047566,121.17773 52.869131,122.44411 54.8125,123.5625 C 56.755869,124.68089 58.81617,126.17926 61.46875,126.25 C 64.199255,126.25993 66.459509,126.07557 68.46875,124.34375 C 70.220645,122.56113 71.983697,121.08896 74.15625,119.84375 C 77.480316,117.91467 78.62794,113.86927 79.40625,110.34375 C 79.677973,109.56946 79.912997,108.7834 80.15625,108 C 81.048921,109.03696 82.268855,109.98172 83.8125,110.0625 L 83.875,110.0625 L 83.90625,110.0625 C 85.981168,109.81877 89.217004,109.65382 92.03125,108.9375 C 93.706835,111.13203 97.506543,111.95376 100.125,113 C 99.994234,114.89388 100.91223,117.16768 100.8125,119.0625 L 100.90625,118.9375 C 101.06793,117.10917 101.02104,115.27104 101.09375,113.4375 C 102.19316,114.01028 103.09072,114.63138 103.53125,115.21875 C 104.6675,116.73378 106.937,119.31199 108.1875,120.5625 L 108.40625,120.5 C 107.22105,119.31479 105.42559,116.06748 104.34375,114.625 C 102.67125,112.77163 100.2764,111.88618 98,111 C 101.98085,109.29571 105.44509,109.75126 109.375,110.40625 L 109.3125,110.34375 C 103.6483,109.09938 101.34322,109.72683 96.5625,110.09375 L 93.875,108.3125 C 97.114905,106.99622 98.17083,104.546 96.90625,101.15625 C 95.991391,97.212305 94.326203,93.696092 91.875,90.5 C 90.386916,88.181144 88.970327,85.414354 85.875,85.4375 L 85.84375,85.46875 L 85.8125,85.46875 C 82.219196,87.011959 76.80769,86.722398 73.1875,86.75 C 69.512706,84.744531 65.05462,83.238025 61,81.4375 C 60.531378,81.229399 60.696215,78.836234 60.21875,78.6875 L 68,41.59375 L 74.28125,45.1875 C 74.230086,42.154771 74.979033,39.126481 76.8125,36.09375 C 73.928214,36.377797 70.779172,36.368014 67.90625,36.0625 C 67.950879,35.835376 67.986392,35.601279 68.03125,35.375 C 68.372612,35.148152 68.548026,34.913513 68.1875,34.6875 C 68.337317,33.958824 68.494249,33.251603 68.6875,32.53125 C 69.347688,32.326123 69.352038,31.970091 68.96875,31.53125 C 69.115324,31.069695 69.281535,30.614633 69.46875,30.15625 C 69.880135,29.999951 70.505146,29.98607 69.90625,29.15625 C 70.065895,28.831938 70.247175,28.511668 70.4375,28.1875 C 71.094713,28.287261 71.029241,27.784784 71,27.3125 C 71.199,27.021532 71.394863,26.728869 71.625,26.4375 C 72.542793,26.714701 74.133603,26.145712 75.1875,25.75 C 76.109419,25.112548 75.855796,24.786139 75.5625,23.90625 C 73.523422,22.411801 70.965121,21.76934 68.5625,21.0625 C 66.633994,20.649023 64.634061,20.230524 62.65625,20.28125 z M 63.53125,21.125 C 65.129939,21.081402 66.827401,21.339476 68.375,21.625 C 70.739225,22.220207 73.575307,22.930737 74.9375,24.6875 C 73.862575,25.374394 72.669063,25.608948 71.375,25.59375 C 68.304893,25.088131 65.274358,24.503367 62.4375,23.53125 C 61.649041,23.051447 60.49383,22.449023 60.8125,21.59375 C 61.638175,21.298505 62.572036,21.151159 63.53125,21.125 z M 100.84375,24.53125 C 96.177083,25.35692 91.510417,27.395396 86.84375,29.53125 L 87.03125,29.84375 C 91.882018,29.281693 96.638008,27.275963 101.15625,24.71875 L 100.84375,24.53125 z M 62.53125,24.5625 L 64.6875,25.28125 L 68.75,29.40625 C 68.50989,29.949108 68.118992,31.053023 67.9375,31.59375 L 62.5625,25.28125 C 62.554776,25.040497 62.548163,24.806435 62.53125,24.5625 z M 66.21875,25.40625 L 68.625,26.09375 L 69.78125,27.46875 C 69.577598,27.802633 69.172953,28.635044 69,28.96875 L 66.21875,25.40625 z M 70.09375,26.3125 L 70.46875,26.40625 C 70.4232,26.469468 70.137998,27.186774 70.09375,27.25 L 70.09375,26.3125 z M 62.5625,26.9375 L 67.78125,32.09375 C 67.6355,32.610227 67.397826,33.862279 67.28125,34.375 L 62.40625,28.65625 C 62.482318,28.028133 62.537787,27.585075 62.5625,26.9375 z M 62.25,29.90625 L 67.09375,34.75 C 67.30462,34.664763 66.993407,35.6484 66.9375,35.9375 C 66.717063,35.906058 65.626317,35.753205 65.40625,35.71875 L 61.8125,31.9375 C 61.964499,31.262108 62.134087,30.598841 62.25,29.90625 z M 52.59375,32.875 C 59.702501,35.842663 67.436906,37.692102 75.21875,37.34375 L 73.4375,43.4375 C 64.9554,37.127425 58.253853,38.82984 51.09375,38.46875 L 52.59375,32.875 z M 61.53125,33.0625 L 64.5,35.53125 C 63.368143,35.31189 62.24199,35.042003 61.125,34.75 C 61.269184,34.195322 61.393176,33.624381 61.53125,33.0625 z M 27.1875,38.96875 C 25.806959,38.978862 24.386122,39.070802 22.9375,39.25 L 22.9375,39.5 C 28.043321,41.986767 33.510794,40.705312 38.9375,40.625 L 39.0625,40.5 C 35.195674,39.600479 31.329123,38.938413 27.1875,38.96875 z M 59.84375,39.53125 L 63.71875,40.09375 L 56.1875,80 C 55.74844,79.903459 55.30162,79.824344 54.875,79.75 L 59.84375,39.53125 z M 63.90625,40.3125 L 67.65625,41.03125 L 58.59375,80.5625 L 56.75,80.25 L 63.90625,40.3125 z M 84.09375,41.5 L 84.03125,41.75 C 89.160636,43.259868 94.254785,44.857829 100.03125,44.75 L 100.09375,44.5 C 95.383531,42.461477 89.788792,41.897152 84.09375,41.5 z M 80.375,50.65625 L 80.125,51.09375 C 81.779457,54.520577 86.271879,57.977828 90.125,61.71875 L 90.375,61.65625 C 87.312089,57.62902 84.397366,53.404206 80.375,50.65625 z M 40.84375,51.53125 C 34.84375,52.225279 30.34375,54.6368 24.34375,57.28125 L 24.40625,57.71875 C 29.846016,56.93259 35.416174,54.801414 41.03125,51.84375 L 40.84375,51.53125 z M 71.5625,60.25 C 73.795402,64.966882 75.449553,69.97314 79.5625,73.75 L 79.6875,73.25 C 78.314139,68.491339 74.694137,64.707006 71.8125,60.25 L 71.5625,60.25 z M 46.15625,60.875 C 42.578466,63.300916 39.122587,65.930006 36.53125,70 L 36.59375,70.25 C 40.997581,68.164732 43.512668,64.593468 46.34375,61.25 L 46.15625,60.875 z M 53.59375,79.40625 C 53.681004,79.378164 53.765677,79.393489 53.84375,79.40625 C 54.287811,79.478836 54.401227,81.027074 54.46875,81.03125 C 54.895112,81.761613 54.435007,81.911192 55.1875,82.34375 C 56.067578,82.849648 57.071041,83.225279 58.0625,83.625 C 60.045419,84.424443 61.885841,85.282558 62.53125,87.03125 C 63.462836,88.216762 63.994201,89.620979 64.5625,91 C 65.161493,92.878699 66.105495,95.101702 66.40625,97.1875 C 66.297711,99.211372 66.012722,101.2156 66.84375,103.0625 C 67.369872,103.9399 67.409676,105.18484 67.90625,105.96875 C 67.941969,107.44841 68.213676,108.25934 67.46875,109.53125 C 66.348156,113.1969 64.092989,114.99271 61.21875,116.96875 L 61.25,117.21875 C 64.812491,116.0005 66.485281,113.09145 68.34375,110.03125 C 68.882579,109.11124 68.970902,108.24832 69.1875,107.1875 C 69.505841,107.73953 70.191388,108.25344 70.5625,108.90625 C 70.872852,109.45218 71.166451,109.98094 71.375,110.4375 C 71.583549,110.89406 71.6875,111.30649 71.6875,111.40625 C 71.681815,114.44281 70.830671,117.81246 69.125,120.375 C 67.419329,122.93754 64.931064,124.68762 61.5,124.71875 C 59.080327,124.65422 57.213181,123.78132 55.3125,122.6875 C 53.419315,121.59799 51.514982,120.82486 49.0625,120.0625 C 46.110588,118.85089 43.018943,117.47171 40,116.4375 C 41.309851,115.15933 41.268759,113.96303 42.5625,112.8125 C 44.038135,111.50021 45.308376,110.23615 45.6875,108.71875 C 46.244873,106.48793 47.590916,103.81235 49.0625,101.6875 C 49.47037,105.28944 50.149716,109.67595 51.46875,113.125 L 51.6875,113 C 50.290145,109.34615 50.532854,105.10988 50.09375,101.15625 C 50.76713,100.10403 51.374147,98.987438 51.8125,97.78125 C 51.765601,96.605172 51.845331,95.532775 52.46875,94.59375 C 53.110809,93.952288 54.378392,93.379166 55.28125,92.46875 L 55.1875,92.21875 C 54.391391,93.021518 52.957001,93.356213 52.1875,94.125 C 51.469347,94.842487 50.981283,95.846686 50.90625,97.3125 C 49.015114,98.073079 46.956956,98.292708 44.96875,98.6875 C 43.733545,99.659849 43.522411,101.21976 43.1875,102.6875 L 43.4375,103.125 C 43.589151,101.85912 44.862778,100.25498 45.53125,99.21875 C 47.119701,98.768021 48.694415,99.050665 50.3125,98.71875 C 48.661514,101.98844 45.644236,104.76461 44.71875,108.46875 C 44.439018,109.58835 42.624784,110.69057 41.1875,111.96875 C 39.828958,113.17691 39.787117,114.22902 38.34375,115.6875 C 36.023258,114.81381 33.6237,113.27823 32.3125,111.25 C 31.743303,109.86414 31.806997,108.31031 32.78125,106.09375 C 32.768887,100.49768 34.541725,96.013428 38.15625,91.84375 C 37.296065,93.562866 36.312725,95.654082 35.78125,97.78125 C 35.272221,99.991519 35.579139,102.13614 36.1875,104.28125 L 36.53125,104.125 C 35.991478,102.13798 36.161775,100.07665 36.34375,98.03125 C 37.012715,95.423852 39.637227,92.235528 40.59375,90.34375 C 44.230623,88.054547 47.128088,86.311028 49.53125,82.3125 C 50.477283,81.365904 50.953412,80.785733 52.125,80.6875 C 52.210593,80.680325 52.982972,79.602851 53.59375,79.40625 z M 59.71875,80 C 59.771757,79.970706 59.859723,79.973243 59.9375,80 C 60.232956,80.101645 60.603204,82.517066 60.90625,82.625 C 64.798826,84.011389 69.428659,85.973226 72.59375,87.6875 C 72.835827,87.983046 73.637449,88.265585 74.09375,88.53125 C 75.99601,89.546172 77.109338,90.858134 77.78125,92.4375 C 78.453162,94.016866 78.678757,95.857592 78.75,97.90625 C 80.725627,101.98554 79.728526,105.92144 78.46875,110.03125 C 77.951335,113.67496 76.426521,116.60717 73.65625,119 C 71.594007,119.80412 70.495427,121.44852 69.09375,123.0625 C 68.465592,123.5839 68.813999,122.34247 68.5,122.5 C 70.459705,119.61458 72.498914,114.81904 72.6875,111.40625 C 72.687501,110.96102 72.511976,110.53636 72.28125,110.03125 C 72.050524,109.52614 71.754611,108.96407 71.4375,108.40625 C 70.803278,107.29061 70.085966,106.16246 69.875,105.6875 C 69.345371,104.49513 68.230041,103.41517 67.71875,102.5625 C 66.912672,101.21824 66.875,98.851777 66.875,97.28125 L 66.875,97.25 L 66.875,97.21875 C 66.701755,95.935464 66.157116,92.308146 65.875,91 C 67.217036,92.701255 68.945977,96.596187 70.90625,97.9375 C 72.519461,99.756269 74.05851,101.55134 75.125,103.65625 L 75.46875,103.4375 C 74.331007,101.19197 73.276356,99.076542 71.65625,97.25 L 71.59375,97.21875 C 69.151532,95.512032 67.659989,92.890906 65.9375,90.53125 C 65.454094,89.108448 64.383843,87.920628 63.46875,86.6875 C 62.540542,84.635243 60.645782,84.005292 58.6875,83.25 C 57.683878,82.845377 57.528737,81.916393 56.75,81.46875 C 58.042511,81.188199 58.296342,81.297561 59,81.4375 C 59.504533,81.596641 59.347704,80.205058 59.71875,80 z M 42.78125,84.1875 C 43.829146,84.204902 44.912747,84.789892 45.90625,85.125 C 43.026375,87.888384 39.929692,89.459336 36.625,91.65625 L 36.625,91.6875 L 36.59375,91.6875 C 31.720865,95.590068 33.289088,101.75188 31.4375,106.84375 C 30.02469,106.03909 29.114093,105.13076 28.46875,104 C 26.692101,100.82253 26.867776,98.510377 28.875,95.625 C 29.777421,94.422834 30.758897,93.108827 31.1875,91.4375 C 34.067252,88.233142 38.063603,86.483712 41.75,84.40625 C 42.084066,84.25686 42.431951,84.181699 42.78125,84.1875 z M 86.125,85.875 C 88.684923,86.06629 89.848744,89.279969 91.15625,91.1875 C 93.726889,94.063583 94.904994,97.691224 95.9375,101.40625 L 95.9375,101.4375 L 95.96875,101.5 C 97.493494,104.61924 95.912445,106.31092 93.15625,107.5625 C 90.339382,108.56238 86.39784,108.77164 83.875,109.0625 C 82.311113,108.89019 81.464541,107.89742 80.46875,106.8125 C 81.196975,103.88308 80.5248,101.2055 78.96875,97.96875 C 78.895678,95.867536 79.43714,93.79332 78.6875,92.03125 C 77.977187,90.36162 76.332565,89.122383 74.4375,88.03125 C 76.26282,88.037387 78.754867,87.841271 80.84375,87.625 C 82.825022,88.538081 83.841869,89.549323 84.59375,91.59375 C 84.898274,93.553421 84.946661,95.518782 86.21875,97.09375 C 86.414016,98.320193 87.024749,99.924749 87.375,101.28125 C 87.533624,102.32963 87.388,103.22539 86.34375,104.75 L 86.4375,105.0625 C 87.566349,103.41438 88.566681,102.39186 88.375,101.125 C 88.235335,100.20192 87.874626,99.301577 87.5,98.1875 C 89.255436,99.359302 91.077019,100.22741 92.5625,101.71875 L 92.5625,101.34375 C 91.114115,98.883593 88.017919,98.195325 86.09375,96.1875 C 85.601942,94.738685 85.865517,92.842057 85.5625,91.34375 C 85.205557,89.436875 84.653563,87.886287 83.09375,86.96875 C 84.381945,86.754866 85.012117,86.346219 86.125,85.875 z"
       id="path2308" />
  </g>
</svg>
