<?xml version="1.0" encoding="UTF-8" standalone="no"?>
<!-- Generator: Adobe Illustrator 12.0.1, SVG Export Plug-In . SVG Version: 6.00 Build 51448)  -->

<svg
   xmlns:dc="http://purl.org/dc/elements/1.1/"
   xmlns:cc="http://creativecommons.org/ns#"
   xmlns:rdf="http://www.w3.org/1999/02/22-rdf-syntax-ns#"
   xmlns:svg="http://www.w3.org/2000/svg"
   xmlns="http://www.w3.org/2000/svg"
   xmlns:sodipodi="http://sodipodi.sourceforge.net/DTD/sodipodi-0.dtd"
   xmlns:inkscape="http://www.inkscape.org/namespaces/inkscape"
   version="1.1"
   id="Layer_1"
   width="608"
   height="472"
   viewBox="0 0 608.00003 472"
   overflow="visible"
   enable-background="new 0 0 360.869 306.978"
   xml:space="preserve"
   inkscape:version="0.47pre1 r21720"
   sodipodi:docname="johnny_automatic_fish_icon.svg"
   inkscape:output_extension="org.inkscape.output.svg.inkscape"
   style="overflow:visible"><metadata
   id="metadata11"><rdf:RDF><cc:Work
       rdf:about=""><dc:format>image/svg+xml</dc:format><dc:type
         rdf:resource="http://purl.org/dc/dcmitype/StillImage" /><dc:title></dc:title></cc:Work></rdf:RDF></metadata><defs
   id="defs9"><inkscape:perspective
   sodipodi:type="inkscape:persp3d"
   inkscape:vp_x="0 : 153.489 : 1"
   inkscape:vp_y="0 : 1000 : 0"
   inkscape:vp_z="360.86899 : 153.489 : 1"
   inkscape:persp3d-origin="180.43449 : 102.326 : 1"
   id="perspective13" />
	
</defs><sodipodi:namedview
   pagecolor="#ffffff"
   bordercolor="#666666"
   borderopacity="1"
   objecttolerance="10"
   gridtolerance="10"
   guidetolerance="10"
   inkscape:pageopacity="0"
   inkscape:pageshadow="2"
   inkscape:window-width="1440"
   inkscape:window-height="826"
   id="namedview7"
   showgrid="false"
   inkscape:zoom="0.76878474"
   inkscape:cx="184.18619"
   inkscape:cy="154.63759"
   inkscape:window-x="0"
   inkscape:window-y="25"
   inkscape:window-maximized="1"
   inkscape:current-layer="Layer_1" />
<path
   style="fill:none;stroke:#000000;stroke-width:11.25671196;stroke-miterlimit:4;stroke-opacity:1;stroke-dasharray:none"
   id="path5"
   d="m 358.3258,277.26026 c 29.03631,29.29297 76.72423,56.57923 133.56162,54.02621 26.60637,-1.19622 46.19604,-14.05288 70.53305,-9.00537 6.49737,25.42516 -24.53212,31.94655 -37.51786,43.52145 -27.03562,24.09686 -42.06859,48.10518 -87.03989,60.02828 -12.39139,3.28396 -23.39896,-0.76395 -39.01877,3.0003 -16.54736,3.98787 -28.92674,26.61536 -48.02262,33.01667 -11.08112,3.71322 -35.3791,5.51879 -54.02472,3.0003 -5.61184,-0.75796 -15.69186,-6.32327 -21.01102,-7.50298 -33.88721,-7.51348 -57.61335,8.50257 -91.54258,9.00387 -26.6799,0.39473 -56.95145,-4.13946 -51.02442,-31.51429 8.64966,-14.65474 24.57715,-10.08751 42.01905,-10.50476 35.03388,-0.839 74.69503,-11.54488 97.54615,-28.514 -3.07983,-12.54148 -14.56168,-17.56347 -22.51041,-24.01132 -17.35635,-14.07839 -29.75825,-24.34301 -46.52174,-46.52173 -4.83588,-6.39832 -12.47543,-25.26156 -21.01102,-25.51221 -11.33777,-0.3332 -21.48831,29.07383 -28.51401,40.51966 -20.31461,33.09773 -32.51688,50.52462 -60.028289,78.03602 -9.979449,9.98095 -25.516712,29.00179 -39.018762,30.0149 -9.49466,0.71142 -22.782082,-4.01791 -25.512209,-16.50835 -3.825781,-17.50344 10.860474,-33.7161 18.009236,-45.02084 9.337067,-14.7658 17.66253,-24.93737 25.51221,-37.51786 -10.381689,-22.31681 4.188998,-30.28807 12.005657,-43.51995 19.939387,-33.75963 18.653117,-84.64597 0,-117.05479 -6.859089,-11.9171 -19.34053,-22.85262 -7.504474,-39.01876 -6.345783,-11.01206 -16.961611,-20.68233 -24.011315,-34.51608 -7.804652,-15.315128 -23.145298,-54.829181 0,-60.028281 15.071986,-3.38452 28.509498,11.718984 39.018762,21.011026 29.431044,26.018005 60.621154,68.089585 76.538134,103.546725 4.75334,10.59182 3.86181,29.69521 18.00774,30.0149 12.56699,0.28217 13.97633,-18.77319 19.51013,-28.514 18.25239,-32.12665 49.55204,-59.7116 79.53842,-82.538709 0.68441,-8.726199 -12.18577,-11.777524 -6.00358,-21.00953 9.31005,-12.20077 37.95613,-5.064013 49.52353,-15.007442 -1.63448,-15.18456 -25.01692,-2.75564 -24.01132,-18.00924 1.40784,-21.36523 54.0082,2.32789 60.02829,-13.50655 -4.60925,-14.64123 -22.27929,-2.38943 -22.51042,-16.50834 -0.12308,-7.5254897 7.67857,-8.9378297 21.00952,-9.0038697 49.28789,-0.24465 82.99348,14.6487297 108.05092,42.0205497 12.43341,13.5816 16.24419,32.811062 27.0131,52.525321 11.67397,21.37424 32.79756,38.93471 45.02085,63.03007 17.38036,34.26243 45.98891,105.88063 6.00207,133.56313 -53.36131,36.94153 -137.92772,7.65306 -168.0777,-19.51013 -7.05721,-6.35629 -21.89506,-36.47475 -33.01668,-33.01518 -17.16124,5.33868 1.70802,26.03602 9.00537,33.01518 z M 343.31835,97.175392 c -0.39174,2.110262 -3.29146,1.711024 -4.50268,3.001798 -11.04359,23.1543 -23.37344,54.1778 -27.01161,85.54049 -1.1647,10.03348 -5.019,24.83831 3.00029,33.01669 12.97674,-0.95607 8.11534,-15.66484 9.00536,-24.01132 4.11696,-38.65705 20.42718,-68.56988 27.01162,-96.045259 -3.61717,0.612365 -3.26145,-2.742138 -7.50298,-1.502399 z m 91.54257,24.011318 c -26.18761,-0.86752 -23.06875,53.74854 -15.00745,76.53663 6.82758,-15.78491 32.8771,-22.86913 54.02622,-15.00745 -8.51007,-20.94198 -15.18906,-60.73971 -39.01877,-61.52918 z m -178.58397,34.51608 c -5.45875,9.0684 -10.77042,24.22294 -15.00744,39.01876 -3.41604,11.93211 -13.13733,33.92473 1.5009,40.51966 6.33977,-23.23385 9.81584,-56.78185 21.00952,-79.53842 -0.31669,-1.68401 -1.66449,-2.3369 -3.00179,-3.00179 -0.39024,2.11176 -3.29146,1.71102 -4.50119,3.00179 z m 178.58397,84.0396 c 1.35381,7.90221 15.41869,24.62068 27.01311,22.51192 17.40888,-3.16839 18.35144,-40.36806 15.00745,-63.03008 -21.73447,-3.11135 -46.26209,15.78191 -42.02056,40.51816 z"
   clip-rule="evenodd" />
</svg>