<?xml version="1.0" encoding="UTF-8" standalone="no"?>
<!-- Created with Inkscape (http://www.inkscape.org/) -->
<svg
   xmlns:dc="http://purl.org/dc/elements/1.1/"
   xmlns:cc="http://creativecommons.org/ns#"
   xmlns:rdf="http://www.w3.org/1999/02/22-rdf-syntax-ns#"
   xmlns:svg="http://www.w3.org/2000/svg"
   xmlns="http://www.w3.org/2000/svg"
   xmlns:xlink="http://www.w3.org/1999/xlink"
   xmlns:sodipodi="http://sodipodi.sourceforge.net/DTD/sodipodi-0.dtd"
   xmlns:inkscape="http://www.inkscape.org/namespaces/inkscape"
   width="608"
   height="473"
   id="svg2"
   sodipodi:version="0.32"
   inkscape:version="0.46"
   sodipodi:docname="pixabella_Red_Heart_Shaped_Border_with_Little_Hearts.svg"
   inkscape:output_extension="org.inkscape.output.svg.inkscape"
   version="1.0"
   inkscape:export-filename="/Users/ceejay/Documents/Websites/Pixabella/Valentines Clipart/heart_border.svg.png"
   inkscape:export-xdpi="90"
   inkscape:export-ydpi="90">
  <defs
     id="defs4">
    <linearGradient
       id="linearGradient6888">
      <stop
         id="stop6890"
         offset="0"
         style="stop-color: rgb(147, 5, 5); stop-opacity: 1;" />
      <stop
         style="stop-color: rgb(191, 12, 26); stop-opacity: 1;"
         offset="0.33186409"
         id="stop6892" />
      <stop
         id="stop6894"
         offset="1"
         style="stop-color: rgb(253, 96, 96); stop-opacity: 1;" />
    </linearGradient>
    <linearGradient
       id="linearGradient6860">
      <stop
         style="stop-color: rgb(118, 4, 4); stop-opacity: 1;"
         offset="0"
         id="stop6862" />
      <stop
         id="stop6864"
         offset="0.47916666"
         style="stop-color: rgb(191, 12, 26); stop-opacity: 1;" />
      <stop
         style="stop-color: rgb(253, 96, 96); stop-opacity: 1;"
         offset="1"
         id="stop6866" />
    </linearGradient>
    <linearGradient
       id="linearGradient6852">
      <stop
         id="stop6854"
         offset="0"
         style="stop-color: rgb(161, 137, 48); stop-opacity: 1;" />
      <stop
         style="stop-color: rgb(177, 152, 61); stop-opacity: 1;"
         offset="0.40403676"
         id="stop6856" />
      <stop
         id="stop6858"
         offset="1"
         style="stop-color: rgb(255, 251, 192); stop-opacity: 1;" />
    </linearGradient>
    <linearGradient
       id="linearGradient6834">
      <stop
         style="stop-color: rgb(161, 137, 48); stop-opacity: 1;"
         offset="0"
         id="stop6836" />
      <stop
         id="stop6842"
         offset="0.53303003"
         style="stop-color: rgb(177, 152, 61); stop-opacity: 1;" />
      <stop
         style="stop-color: rgb(255, 251, 192); stop-opacity: 1;"
         offset="1"
         id="stop6838" />
    </linearGradient>
    <linearGradient
       id="linearGradient4469">
      <stop
         id="stop4471"
         offset="0"
         style="stop-color: rgb(247, 206, 42); stop-opacity: 1;" />
      <stop
         style="stop-color: rgb(255, 236, 159); stop-opacity: 1;"
         offset="1"
         id="stop4473" />
    </linearGradient>
    <linearGradient
       id="linearGradient4432">
      <stop
         style="stop-color: rgb(247, 206, 42); stop-opacity: 1;"
         offset="0"
         id="stop4434" />
      <stop
         id="stop4467"
         offset="0.5"
         style="stop-color: rgb(255, 236, 159); stop-opacity: 1;" />
      <stop
         style="stop-color: rgb(255, 225, 103); stop-opacity: 1;"
         offset="1"
         id="stop4436" />
    </linearGradient>
    <inkscape:perspective
       sodipodi:type="inkscape:persp3d"
       inkscape:vp_x="0 : 526.18109 : 1"
       inkscape:vp_y="0 : 1000 : 0"
       inkscape:vp_z="744.09448 : 526.18109 : 1"
       inkscape:persp3d-origin="372.04724 : 350.78739 : 1"
       id="perspective10" />
    <filter
       inkscape:collect="always"
       id="filter4019"
       x="-0.13809524"
       width="1.2761905"
       y="-0.13809524"
       height="1.2761905">
      <feGaussianBlur
         inkscape:collect="always"
         stdDeviation="28.193756"
         id="feGaussianBlur4021" />
    </filter>
    <filter
       inkscape:collect="always"
       id="filter6901"
       x="-0.68087023"
       width="2.3617406"
       y="-0.32294434"
       height="1.6458887">
      <feGaussianBlur
         inkscape:collect="always"
         stdDeviation="3.2218485"
         id="feGaussianBlur6903" />
    </filter>
    <linearGradient
       inkscape:collect="always"
       xlink:href="#linearGradient6860"
       id="linearGradient3589"
       gradientUnits="userSpaceOnUse"
       gradientTransform="matrix(0.590834,0,0,0.590834,-188.171,-59.3881)"
       x1="-229.30299"
       y1="-37.29353"
       x2="-335.08981"
       y2="-124.52757" />
    <linearGradient
       inkscape:collect="always"
       xlink:href="#linearGradient6860"
       id="linearGradient3591"
       gradientUnits="userSpaceOnUse"
       gradientTransform="matrix(0.590834,0,0,0.590834,-188.171,-59.3881)"
       x1="-166.53705"
       y1="-18.144592"
       x2="-316.15518"
       y2="-154.3148" />
    <linearGradient
       inkscape:collect="always"
       xlink:href="#linearGradient6860"
       id="linearGradient3593"
       gradientUnits="userSpaceOnUse"
       gradientTransform="matrix(0.590834,0,0,0.590834,-188.171,-59.3881)"
       x1="-229.30299"
       y1="-37.29353"
       x2="-335.08981"
       y2="-124.52757" />
    <linearGradient
       inkscape:collect="always"
       xlink:href="#linearGradient6860"
       id="linearGradient3595"
       gradientUnits="userSpaceOnUse"
       gradientTransform="matrix(0.590834,0,0,0.590834,-188.171,-59.3881)"
       x1="-166.53705"
       y1="-18.144592"
       x2="-316.15518"
       y2="-154.3148" />
    <linearGradient
       inkscape:collect="always"
       xlink:href="#linearGradient6860"
       id="linearGradient3597"
       gradientUnits="userSpaceOnUse"
       gradientTransform="matrix(0.56053,0.196734,-0.177348,0.56053,-207.238,-12.1832)"
       x1="-229.30299"
       y1="-37.29353"
       x2="-335.08981"
       y2="-124.52757" />
    <linearGradient
       inkscape:collect="always"
       xlink:href="#linearGradient6860"
       id="linearGradient3599"
       gradientUnits="userSpaceOnUse"
       gradientTransform="matrix(0.56053,0.196734,-0.177348,0.56053,-207.238,-12.1832)"
       x1="-166.53705"
       y1="-18.144592"
       x2="-316.15518"
       y2="-154.3148" />
    <linearGradient
       inkscape:collect="always"
       xlink:href="#linearGradient6860"
       id="linearGradient3601"
       gradientUnits="userSpaceOnUse"
       gradientTransform="matrix(0.590642,1.58645e-2,-1.43012e-2,0.590642,-189.273,-56.6809)"
       x1="-229.30299"
       y1="-37.29353"
       x2="-335.08981"
       y2="-124.52757" />
    <linearGradient
       inkscape:collect="always"
       xlink:href="#linearGradient6860"
       id="linearGradient3603"
       gradientUnits="userSpaceOnUse"
       gradientTransform="matrix(0.590642,1.58645e-2,-1.43012e-2,0.590642,-189.273,-56.6809)"
       x1="-166.53705"
       y1="-18.144592"
       x2="-316.15518"
       y2="-154.3148" />
    <linearGradient
       inkscape:collect="always"
       xlink:href="#linearGradient6860"
       id="linearGradient3605"
       gradientUnits="userSpaceOnUse"
       gradientTransform="matrix(0.59083,2.38475e-3,-2.14976e-3,0.59083,-196.941,-50.9714)"
       x1="-229.30299"
       y1="-37.29353"
       x2="-335.08981"
       y2="-124.52757" />
    <linearGradient
       inkscape:collect="always"
       xlink:href="#linearGradient6860"
       id="linearGradient3607"
       gradientUnits="userSpaceOnUse"
       gradientTransform="matrix(0.59083,2.38475e-3,-2.14976e-3,0.59083,-196.941,-50.9714)"
       x1="-166.53705"
       y1="-18.144592"
       x2="-316.15518"
       y2="-154.3148" />
    <linearGradient
       inkscape:collect="always"
       xlink:href="#linearGradient6860"
       id="linearGradient3609"
       gradientUnits="userSpaceOnUse"
       gradientTransform="matrix(0.552212,-0.221296,0.19949,0.552212,-182.577,-118.045)"
       x1="-229.30299"
       y1="-37.29353"
       x2="-335.08981"
       y2="-124.52757" />
    <linearGradient
       inkscape:collect="always"
       xlink:href="#linearGradient6860"
       id="linearGradient3611"
       gradientUnits="userSpaceOnUse"
       gradientTransform="matrix(0.552212,-0.221296,0.19949,0.552212,-182.577,-118.045)"
       x1="-166.53705"
       y1="-18.144592"
       x2="-316.15518"
       y2="-154.3148" />
    <linearGradient
       inkscape:collect="always"
       xlink:href="#linearGradient6860"
       id="linearGradient3613"
       gradientUnits="userSpaceOnUse"
       gradientTransform="matrix(0.590834,0,0,0.590834,-188.171,-59.3881)"
       x1="-229.30299"
       y1="-37.29353"
       x2="-335.08981"
       y2="-124.52757" />
    <linearGradient
       inkscape:collect="always"
       xlink:href="#linearGradient6860"
       id="linearGradient3615"
       gradientUnits="userSpaceOnUse"
       gradientTransform="matrix(0.590834,0,0,0.590834,-188.171,-59.3881)"
       x1="-166.53705"
       y1="-18.144592"
       x2="-316.15518"
       y2="-154.3148" />
    <linearGradient
       inkscape:collect="always"
       xlink:href="#linearGradient6860"
       id="linearGradient3617"
       gradientUnits="userSpaceOnUse"
       gradientTransform="matrix(0.589405,4.3256e-2,-3.89936e-2,0.589405,-188.977,-57.0369)"
       x1="-229.30299"
       y1="-37.29353"
       x2="-335.08981"
       y2="-124.52757" />
    <linearGradient
       inkscape:collect="always"
       xlink:href="#linearGradient6860"
       id="linearGradient3619"
       gradientUnits="userSpaceOnUse"
       gradientTransform="matrix(0.589405,4.3256e-2,-3.89936e-2,0.589405,-188.977,-57.0369)"
       x1="-166.53705"
       y1="-18.144592"
       x2="-316.15518"
       y2="-154.3148" />
    <linearGradient
       inkscape:collect="always"
       xlink:href="#linearGradient6860"
       id="linearGradient3621"
       gradientUnits="userSpaceOnUse"
       gradientTransform="matrix(0.590834,0,0,0.590834,-188.171,-59.3881)"
       x1="-229.30299"
       y1="-37.29353"
       x2="-335.08981"
       y2="-124.52757" />
    <linearGradient
       inkscape:collect="always"
       xlink:href="#linearGradient6860"
       id="linearGradient3623"
       gradientUnits="userSpaceOnUse"
       gradientTransform="matrix(0.590834,0,0,0.590834,-188.171,-59.3881)"
       x1="-166.53705"
       y1="-18.144592"
       x2="-316.15518"
       y2="-154.3148" />
    <linearGradient
       inkscape:collect="always"
       xlink:href="#linearGradient6860"
       id="linearGradient3625"
       gradientUnits="userSpaceOnUse"
       gradientTransform="matrix(0.590834,0,0,0.590834,-188.171,-59.3881)"
       x1="-229.30299"
       y1="-37.29353"
       x2="-335.08981"
       y2="-124.52757" />
    <linearGradient
       inkscape:collect="always"
       xlink:href="#linearGradient6860"
       id="linearGradient3627"
       gradientUnits="userSpaceOnUse"
       gradientTransform="matrix(0.590834,0,0,0.590834,-188.171,-59.3881)"
       x1="-166.53705"
       y1="-18.144592"
       x2="-316.15518"
       y2="-154.3148" />
    <linearGradient
       inkscape:collect="always"
       xlink:href="#linearGradient6860"
       id="linearGradient3629"
       gradientUnits="userSpaceOnUse"
       gradientTransform="matrix(0.590834,0,0,0.590834,-188.171,-59.3881)"
       x1="-229.30299"
       y1="-37.29353"
       x2="-335.08981"
       y2="-124.52757" />
    <linearGradient
       inkscape:collect="always"
       xlink:href="#linearGradient6860"
       id="linearGradient3631"
       gradientUnits="userSpaceOnUse"
       gradientTransform="matrix(0.590834,0,0,0.590834,-188.171,-59.3881)"
       x1="-166.53705"
       y1="-18.144592"
       x2="-316.15518"
       y2="-154.3148" />
    <linearGradient
       inkscape:collect="always"
       xlink:href="#linearGradient6860"
       id="linearGradient3633"
       gradientUnits="userSpaceOnUse"
       gradientTransform="matrix(0.590834,0,0,0.590834,-188.171,-59.3881)"
       x1="-229.30299"
       y1="-37.29353"
       x2="-335.08981"
       y2="-124.52757" />
    <linearGradient
       inkscape:collect="always"
       xlink:href="#linearGradient6860"
       id="linearGradient3635"
       gradientUnits="userSpaceOnUse"
       gradientTransform="matrix(0.590834,0,0,0.590834,-188.171,-59.3881)"
       x1="-166.53705"
       y1="-18.144592"
       x2="-316.15518"
       y2="-154.3148" />
    <linearGradient
       inkscape:collect="always"
       xlink:href="#linearGradient6860"
       id="linearGradient3637"
       gradientUnits="userSpaceOnUse"
       gradientTransform="matrix(0.590834,0,0,0.590834,-188.171,-59.3881)"
       x1="-229.30299"
       y1="-37.29353"
       x2="-335.08981"
       y2="-124.52757" />
    <linearGradient
       inkscape:collect="always"
       xlink:href="#linearGradient6860"
       id="linearGradient3639"
       gradientUnits="userSpaceOnUse"
       gradientTransform="matrix(0.590834,0,0,0.590834,-188.171,-59.3881)"
       x1="-166.53705"
       y1="-18.144592"
       x2="-316.15518"
       y2="-154.3148" />
    <linearGradient
       inkscape:collect="always"
       xlink:href="#linearGradient6860"
       id="linearGradient3641"
       gradientUnits="userSpaceOnUse"
       gradientTransform="matrix(0.590834,0,0,0.590834,-188.171,-59.3881)"
       x1="-229.30299"
       y1="-37.29353"
       x2="-335.08981"
       y2="-124.52757" />
    <linearGradient
       inkscape:collect="always"
       xlink:href="#linearGradient6860"
       id="linearGradient3643"
       gradientUnits="userSpaceOnUse"
       gradientTransform="matrix(0.590834,0,0,0.590834,-188.171,-59.3881)"
       x1="-166.53705"
       y1="-18.144592"
       x2="-316.15518"
       y2="-154.3148" />
    <linearGradient
       inkscape:collect="always"
       xlink:href="#linearGradient6860"
       id="linearGradient3645"
       gradientUnits="userSpaceOnUse"
       gradientTransform="matrix(0.590834,0,0,0.590834,-188.171,-59.3881)"
       x1="-229.30299"
       y1="-37.29353"
       x2="-335.08981"
       y2="-124.52757" />
    <linearGradient
       inkscape:collect="always"
       xlink:href="#linearGradient6860"
       id="linearGradient3647"
       gradientUnits="userSpaceOnUse"
       gradientTransform="matrix(0.590834,0,0,0.590834,-188.171,-59.3881)"
       x1="-166.53705"
       y1="-18.144592"
       x2="-316.15518"
       y2="-154.3148" />
    <linearGradient
       inkscape:collect="always"
       xlink:href="#linearGradient6860"
       id="linearGradient3649"
       gradientUnits="userSpaceOnUse"
       gradientTransform="matrix(0.590834,0,0,0.590834,-188.171,-59.3881)"
       x1="-229.30299"
       y1="-37.29353"
       x2="-335.08981"
       y2="-124.52757" />
    <linearGradient
       inkscape:collect="always"
       xlink:href="#linearGradient6860"
       id="linearGradient3651"
       gradientUnits="userSpaceOnUse"
       gradientTransform="matrix(0.590834,0,0,0.590834,-188.171,-59.3881)"
       x1="-166.53705"
       y1="-18.144592"
       x2="-316.15518"
       y2="-154.3148" />
    <linearGradient
       inkscape:collect="always"
       xlink:href="#linearGradient6860"
       id="linearGradient3653"
       gradientUnits="userSpaceOnUse"
       gradientTransform="matrix(0.590834,0,0,0.590834,-188.171,-59.3881)"
       x1="-229.30299"
       y1="-37.29353"
       x2="-335.08981"
       y2="-124.52757" />
    <linearGradient
       inkscape:collect="always"
       xlink:href="#linearGradient6860"
       id="linearGradient3655"
       gradientUnits="userSpaceOnUse"
       gradientTransform="matrix(0.590834,0,0,0.590834,-188.171,-59.3881)"
       x1="-166.53705"
       y1="-18.144592"
       x2="-316.15518"
       y2="-154.3148" />
    <linearGradient
       inkscape:collect="always"
       xlink:href="#linearGradient6860"
       id="linearGradient3657"
       gradientUnits="userSpaceOnUse"
       gradientTransform="matrix(0.590834,0,0,0.590834,-188.171,-59.3881)"
       x1="-229.30299"
       y1="-37.29353"
       x2="-335.08981"
       y2="-124.52757" />
    <linearGradient
       inkscape:collect="always"
       xlink:href="#linearGradient6860"
       id="linearGradient3659"
       gradientUnits="userSpaceOnUse"
       gradientTransform="matrix(0.590834,0,0,0.590834,-188.171,-59.3881)"
       x1="-166.53705"
       y1="-18.144592"
       x2="-316.15518"
       y2="-154.3148" />
    <linearGradient
       inkscape:collect="always"
       xlink:href="#linearGradient6860"
       id="linearGradient3661"
       gradientUnits="userSpaceOnUse"
       gradientTransform="matrix(0.590834,0,0,0.590834,-188.171,-59.3881)"
       x1="-229.30299"
       y1="-37.29353"
       x2="-335.08981"
       y2="-124.52757" />
    <linearGradient
       inkscape:collect="always"
       xlink:href="#linearGradient6860"
       id="linearGradient3663"
       gradientUnits="userSpaceOnUse"
       gradientTransform="matrix(0.590834,0,0,0.590834,-188.171,-59.3881)"
       x1="-166.53705"
       y1="-18.144592"
       x2="-316.15518"
       y2="-154.3148" />
    <linearGradient
       inkscape:collect="always"
       xlink:href="#linearGradient6860"
       id="linearGradient3665"
       gradientUnits="userSpaceOnUse"
       gradientTransform="matrix(0.56053,0.196734,-0.177348,0.56053,-207.238,-12.1832)"
       x1="-229.30299"
       y1="-37.29353"
       x2="-335.08981"
       y2="-124.52757" />
    <linearGradient
       inkscape:collect="always"
       xlink:href="#linearGradient6860"
       id="linearGradient3667"
       gradientUnits="userSpaceOnUse"
       gradientTransform="matrix(0.56053,0.196734,-0.177348,0.56053,-207.238,-12.1832)"
       x1="-166.53705"
       y1="-18.144592"
       x2="-316.15518"
       y2="-154.3148" />
    <linearGradient
       inkscape:collect="always"
       xlink:href="#linearGradient6860"
       id="linearGradient3669"
       gradientUnits="userSpaceOnUse"
       gradientTransform="matrix(0.590642,1.58645e-2,-1.43012e-2,0.590642,-189.273,-56.6809)"
       x1="-229.30299"
       y1="-37.29353"
       x2="-335.08981"
       y2="-124.52757" />
    <linearGradient
       inkscape:collect="always"
       xlink:href="#linearGradient6860"
       id="linearGradient3671"
       gradientUnits="userSpaceOnUse"
       gradientTransform="matrix(0.590642,1.58645e-2,-1.43012e-2,0.590642,-189.273,-56.6809)"
       x1="-166.53705"
       y1="-18.144592"
       x2="-316.15518"
       y2="-154.3148" />
    <linearGradient
       inkscape:collect="always"
       xlink:href="#linearGradient6860"
       id="linearGradient3673"
       gradientUnits="userSpaceOnUse"
       gradientTransform="matrix(0.59083,2.38475e-3,-2.14976e-3,0.59083,-196.941,-50.9714)"
       x1="-229.30299"
       y1="-37.29353"
       x2="-335.08981"
       y2="-124.52757" />
    <linearGradient
       inkscape:collect="always"
       xlink:href="#linearGradient6860"
       id="linearGradient3675"
       gradientUnits="userSpaceOnUse"
       gradientTransform="matrix(0.59083,2.38475e-3,-2.14976e-3,0.59083,-196.941,-50.9714)"
       x1="-166.53705"
       y1="-18.144592"
       x2="-316.15518"
       y2="-154.3148" />
    <linearGradient
       inkscape:collect="always"
       xlink:href="#linearGradient6860"
       id="linearGradient3677"
       gradientUnits="userSpaceOnUse"
       gradientTransform="matrix(0.552212,-0.221296,0.19949,0.552212,-182.577,-118.045)"
       x1="-229.30299"
       y1="-37.29353"
       x2="-335.08981"
       y2="-124.52757" />
    <linearGradient
       inkscape:collect="always"
       xlink:href="#linearGradient6860"
       id="linearGradient3679"
       gradientUnits="userSpaceOnUse"
       gradientTransform="matrix(0.552212,-0.221296,0.19949,0.552212,-182.577,-118.045)"
       x1="-166.53705"
       y1="-18.144592"
       x2="-316.15518"
       y2="-154.3148" />
    <linearGradient
       inkscape:collect="always"
       xlink:href="#linearGradient6860"
       id="linearGradient3681"
       gradientUnits="userSpaceOnUse"
       gradientTransform="matrix(0.590834,0,0,0.590834,-188.171,-59.3881)"
       x1="-229.30299"
       y1="-37.29353"
       x2="-335.08981"
       y2="-124.52757" />
    <linearGradient
       inkscape:collect="always"
       xlink:href="#linearGradient6860"
       id="linearGradient3683"
       gradientUnits="userSpaceOnUse"
       gradientTransform="matrix(0.590834,0,0,0.590834,-188.171,-59.3881)"
       x1="-166.53705"
       y1="-18.144592"
       x2="-316.15518"
       y2="-154.3148" />
    <linearGradient
       inkscape:collect="always"
       xlink:href="#linearGradient6860"
       id="linearGradient3685"
       gradientUnits="userSpaceOnUse"
       gradientTransform="matrix(0.589405,4.3256e-2,-3.89936e-2,0.589405,-188.977,-57.0369)"
       x1="-229.30299"
       y1="-37.29353"
       x2="-335.08981"
       y2="-124.52757" />
    <linearGradient
       inkscape:collect="always"
       xlink:href="#linearGradient6860"
       id="linearGradient3687"
       gradientUnits="userSpaceOnUse"
       gradientTransform="matrix(0.589405,4.3256e-2,-3.89936e-2,0.589405,-188.977,-57.0369)"
       x1="-166.53705"
       y1="-18.144592"
       x2="-316.15518"
       y2="-154.3148" />
    <linearGradient
       inkscape:collect="always"
       xlink:href="#linearGradient6860"
       id="linearGradient3689"
       gradientUnits="userSpaceOnUse"
       gradientTransform="matrix(0.590834,0,0,0.590834,-188.171,-59.3881)"
       x1="-229.30299"
       y1="-37.29353"
       x2="-335.08981"
       y2="-124.52757" />
    <linearGradient
       inkscape:collect="always"
       xlink:href="#linearGradient6860"
       id="linearGradient3691"
       gradientUnits="userSpaceOnUse"
       gradientTransform="matrix(0.590834,0,0,0.590834,-188.171,-59.3881)"
       x1="-166.53705"
       y1="-18.144592"
       x2="-316.15518"
       y2="-154.3148" />
    <linearGradient
       inkscape:collect="always"
       xlink:href="#linearGradient6860"
       id="linearGradient3693"
       gradientUnits="userSpaceOnUse"
       gradientTransform="matrix(0.590834,0,0,0.590834,-188.171,-59.3881)"
       x1="-229.30299"
       y1="-37.29353"
       x2="-335.08981"
       y2="-124.52757" />
    <linearGradient
       inkscape:collect="always"
       xlink:href="#linearGradient6860"
       id="linearGradient3695"
       gradientUnits="userSpaceOnUse"
       gradientTransform="matrix(0.590834,0,0,0.590834,-188.171,-59.3881)"
       x1="-166.53705"
       y1="-18.144592"
       x2="-316.15518"
       y2="-154.3148" />
    <linearGradient
       inkscape:collect="always"
       xlink:href="#linearGradient6860"
       id="linearGradient3697"
       gradientUnits="userSpaceOnUse"
       gradientTransform="matrix(0.590834,0,0,0.590834,-188.171,-59.3881)"
       x1="-229.30299"
       y1="-37.29353"
       x2="-335.08981"
       y2="-124.52757" />
    <linearGradient
       inkscape:collect="always"
       xlink:href="#linearGradient6860"
       id="linearGradient3699"
       gradientUnits="userSpaceOnUse"
       gradientTransform="matrix(0.590834,0,0,0.590834,-188.171,-59.3881)"
       x1="-166.53705"
       y1="-18.144592"
       x2="-316.15518"
       y2="-154.3148" />
    <linearGradient
       inkscape:collect="always"
       xlink:href="#linearGradient6860"
       id="linearGradient3701"
       gradientUnits="userSpaceOnUse"
       gradientTransform="matrix(0.590834,0,0,0.590834,-188.171,-59.3881)"
       x1="-229.30299"
       y1="-37.29353"
       x2="-335.08981"
       y2="-124.52757" />
    <linearGradient
       inkscape:collect="always"
       xlink:href="#linearGradient6860"
       id="linearGradient3703"
       gradientUnits="userSpaceOnUse"
       gradientTransform="matrix(0.590834,0,0,0.590834,-188.171,-59.3881)"
       x1="-166.53705"
       y1="-18.144592"
       x2="-316.15518"
       y2="-154.3148" />
    <linearGradient
       inkscape:collect="always"
       xlink:href="#linearGradient6860"
       id="linearGradient3705"
       gradientUnits="userSpaceOnUse"
       gradientTransform="matrix(0.590834,0,0,0.590834,-188.171,-59.3881)"
       x1="-229.30299"
       y1="-37.29353"
       x2="-335.08981"
       y2="-124.52757" />
    <linearGradient
       inkscape:collect="always"
       xlink:href="#linearGradient6860"
       id="linearGradient3707"
       gradientUnits="userSpaceOnUse"
       gradientTransform="matrix(0.590834,0,0,0.590834,-188.171,-59.3881)"
       x1="-166.53705"
       y1="-18.144592"
       x2="-316.15518"
       y2="-154.3148" />
    <linearGradient
       inkscape:collect="always"
       xlink:href="#linearGradient6860"
       id="linearGradient3709"
       gradientUnits="userSpaceOnUse"
       gradientTransform="matrix(0.590834,0,0,0.590834,-188.171,-59.3881)"
       x1="-229.30299"
       y1="-37.29353"
       x2="-335.08981"
       y2="-124.52757" />
    <linearGradient
       inkscape:collect="always"
       xlink:href="#linearGradient6860"
       id="linearGradient3711"
       gradientUnits="userSpaceOnUse"
       gradientTransform="matrix(0.590834,0,0,0.590834,-188.171,-59.3881)"
       x1="-166.53705"
       y1="-18.144592"
       x2="-316.15518"
       y2="-154.3148" />
    <linearGradient
       inkscape:collect="always"
       xlink:href="#linearGradient6860"
       id="linearGradient3713"
       gradientUnits="userSpaceOnUse"
       gradientTransform="matrix(0.590834,0,0,0.590834,-188.171,-59.3881)"
       x1="-229.30299"
       y1="-37.29353"
       x2="-335.08981"
       y2="-124.52757" />
    <linearGradient
       inkscape:collect="always"
       xlink:href="#linearGradient6860"
       id="linearGradient3715"
       gradientUnits="userSpaceOnUse"
       gradientTransform="matrix(0.590834,0,0,0.590834,-188.171,-59.3881)"
       x1="-166.53705"
       y1="-18.144592"
       x2="-316.15518"
       y2="-154.3148" />
    <linearGradient
       inkscape:collect="always"
       xlink:href="#linearGradient6860"
       id="linearGradient3717"
       gradientUnits="userSpaceOnUse"
       gradientTransform="matrix(0.590834,0,0,0.590834,-188.171,-59.3881)"
       x1="-229.30299"
       y1="-37.29353"
       x2="-335.08981"
       y2="-124.52757" />
    <linearGradient
       inkscape:collect="always"
       xlink:href="#linearGradient6860"
       id="linearGradient3719"
       gradientUnits="userSpaceOnUse"
       gradientTransform="matrix(0.590834,0,0,0.590834,-188.171,-59.3881)"
       x1="-166.53705"
       y1="-18.144592"
       x2="-316.15518"
       y2="-154.3148" />
    <linearGradient
       inkscape:collect="always"
       xlink:href="#linearGradient6860"
       id="linearGradient3721"
       gradientUnits="userSpaceOnUse"
       gradientTransform="matrix(0.590834,0,0,0.590834,-188.171,-59.3881)"
       x1="-229.30299"
       y1="-37.29353"
       x2="-335.08981"
       y2="-124.52757" />
    <linearGradient
       inkscape:collect="always"
       xlink:href="#linearGradient6860"
       id="linearGradient3723"
       gradientUnits="userSpaceOnUse"
       gradientTransform="matrix(0.590834,0,0,0.590834,-188.171,-59.3881)"
       x1="-166.53705"
       y1="-18.144592"
       x2="-316.15518"
       y2="-154.3148" />
    <linearGradient
       inkscape:collect="always"
       xlink:href="#linearGradient6860"
       id="linearGradient3725"
       gradientUnits="userSpaceOnUse"
       gradientTransform="matrix(0.590834,0,0,0.590834,-188.171,-59.3881)"
       x1="-229.30299"
       y1="-37.29353"
       x2="-335.08981"
       y2="-124.52757" />
    <linearGradient
       inkscape:collect="always"
       xlink:href="#linearGradient6860"
       id="linearGradient3727"
       gradientUnits="userSpaceOnUse"
       gradientTransform="matrix(0.590834,0,0,0.590834,-188.171,-59.3881)"
       x1="-166.53705"
       y1="-18.144592"
       x2="-316.15518"
       y2="-154.3148" />
    <linearGradient
       inkscape:collect="always"
       xlink:href="#linearGradient6860"
       id="linearGradient3729"
       gradientUnits="userSpaceOnUse"
       gradientTransform="matrix(0.590834,0,0,0.590834,-188.171,-59.3881)"
       x1="-229.30299"
       y1="-37.29353"
       x2="-335.08981"
       y2="-124.52757" />
    <linearGradient
       inkscape:collect="always"
       xlink:href="#linearGradient6860"
       id="linearGradient3731"
       gradientUnits="userSpaceOnUse"
       gradientTransform="matrix(0.590834,0,0,0.590834,-188.171,-59.3881)"
       x1="-166.53705"
       y1="-18.144592"
       x2="-316.15518"
       y2="-154.3148" />
  </defs>
  <sodipodi:namedview
     id="base"
     pagecolor="#ffffff"
     bordercolor="#666666"
     borderopacity="1.0"
     gridtolerance="10000"
     guidetolerance="10"
     objecttolerance="10"
     inkscape:pageopacity="0.0"
     inkscape:pageshadow="2"
     inkscape:zoom="0.66468037"
     inkscape:cx="88.930993"
     inkscape:cy="208.86639"
     inkscape:document-units="px"
     inkscape:current-layer="layer1"
     showgrid="false"
     showguides="true"
     inkscape:guide-bbox="true"
     inkscape:window-width="1220"
     inkscape:window-height="726"
     inkscape:window-x="166"
     inkscape:window-y="95" />
  <metadata
     id="metadata7">
    <rdf:RDF>
      <cc:Work
         rdf:about="">
        <dc:format>image/svg+xml</dc:format>
        <dc:type
           rdf:resource="http://purl.org/dc/dcmitype/StillImage" />
      </cc:Work>
    </rdf:RDF>
  </metadata>
  <g
     inkscape:label="Layer 1"
     inkscape:groupmode="layer"
     id="layer1"
     transform="translate(-127.491,-326.001)">
    <g
       transform="matrix(0.22598,3.20513e-2,-3.20513e-2,0.22598,-781.061,-264.273)"
       id="g3936"
       inkscape:transform-center-x="-23.656365"
       inkscape:transform-center-y="6.3142316">
      <path
         transform="matrix(0.666023,0,0,0.666023,264.509,223.356)"
         d="M 404.07211,401.83504 C 380.87419,425.03296 272.95387,341.2513 240.55096,346.38341 C 208.14805,351.51553 131.39969,464.54584 102.16861,449.65185 C 72.93752,434.75787 119.2694,306.22959 104.37542,276.99851 C 89.481438,247.76742 -41.733322,209.70368 -36.601205,177.30077 C -31.469088,144.89786 105.08591,149.24468 128.28383,126.04675 C 151.48175,102.84883 147.13493,-33.706164 179.53784,-38.83828 C 211.94075,-43.970397 250.0045,87.244363 279.23558,102.13835 C 308.46667,117.03233 436.99495,70.700442 451.88893,99.931529 C 466.78291,129.16262 353.7526,205.91098 348.62049,238.31389 C 343.48837,270.7168 427.27003,378.63711 404.07211,401.83504 z"
         inkscape:randomized="0"
         inkscape:rounded="0.19"
         inkscape:flatsided="false"
         sodipodi:arg2="1.4137167"
         sodipodi:arg1="0.78539816"
         sodipodi:r2="130.00784"
         sodipodi:r1="260.01569"
         sodipodi:cy="217.97618"
         sodipodi:cx="220.21326"
         sodipodi:sides="5"
         id="path3938"
         style="opacity:1;fill:#ffe680;fill-opacity:1;stroke:none"
         sodipodi:type="star" />
      <path
         sodipodi:type="star"
         style="opacity:1;fill:#ffdd55;fill-opacity:1;stroke:none"
         id="path3940"
         sodipodi:sides="5"
         sodipodi:cx="220.21326"
         sodipodi:cy="217.97618"
         sodipodi:r1="260.01569"
         sodipodi:r2="130.00784"
         sodipodi:arg1="0.78539816"
         sodipodi:arg2="1.4137167"
         inkscape:flatsided="false"
         inkscape:rounded="0.19"
         inkscape:randomized="0"
         d="M 404.07211,401.83504 C 380.87419,425.03296 272.95387,341.2513 240.55096,346.38341 C 208.14805,351.51553 131.39969,464.54584 102.16861,449.65185 C 72.93752,434.75787 119.2694,306.22959 104.37542,276.99851 C 89.481438,247.76742 -41.733322,209.70368 -36.601205,177.30077 C -31.469088,144.89786 105.08591,149.24468 128.28383,126.04675 C 151.48175,102.84883 147.13493,-33.706164 179.53784,-38.83828 C 211.94075,-43.970397 250.0045,87.244363 279.23558,102.13835 C 308.46667,117.03233 436.99495,70.700442 451.88893,99.931529 C 466.78291,129.16262 353.7526,205.91098 348.62049,238.31389 C 343.48837,270.7168 427.27003,378.63711 404.07211,401.83504 z"
         transform="matrix(0.525971,0,0,0.525971,295.693,254.226)" />
      <path
         transform="matrix(0.416228,0,0,0.416228,317.873,281.544)"
         d="M 404.07211,401.83504 C 380.87419,425.03296 272.95387,341.2513 240.55096,346.38341 C 208.14805,351.51553 131.39969,464.54584 102.16861,449.65185 C 72.93752,434.75787 119.2694,306.22959 104.37542,276.99851 C 89.481438,247.76742 -41.733322,209.70368 -36.601205,177.30077 C -31.469088,144.89786 105.08591,149.24468 128.28383,126.04675 C 151.48175,102.84883 147.13493,-33.706164 179.53784,-38.83828 C 211.94075,-43.970397 250.0045,87.244363 279.23558,102.13835 C 308.46667,117.03233 436.99495,70.700442 451.88893,99.931529 C 466.78291,129.16262 353.7526,205.91098 348.62049,238.31389 C 343.48837,270.7168 427.27003,378.63711 404.07211,401.83504 z"
         inkscape:randomized="0"
         inkscape:rounded="0.19"
         inkscape:flatsided="false"
         sodipodi:arg2="1.4137167"
         sodipodi:arg1="0.78539816"
         sodipodi:r2="130.00784"
         sodipodi:r1="260.01569"
         sodipodi:cy="217.97618"
         sodipodi:cx="220.21326"
         sodipodi:sides="5"
         id="path3942"
         style="opacity:1;fill:#f3c819;fill-opacity:1;stroke:none;filter:url(#filter4019)"
         sodipodi:type="star" />
    </g>
    <g
       inkscape:transform-center-y="6.3142316"
       inkscape:transform-center-x="-23.656365"
       id="g3944"
       transform="matrix(0.22598,3.20513e-2,-3.20513e-2,0.22598,-603.387,-231.517)">
      <path
         sodipodi:type="star"
         style="opacity:1;fill:#ffe680;fill-opacity:1;stroke:none"
         id="path3946"
         sodipodi:sides="5"
         sodipodi:cx="220.21326"
         sodipodi:cy="217.97618"
         sodipodi:r1="260.01569"
         sodipodi:r2="130.00784"
         sodipodi:arg1="0.78539816"
         sodipodi:arg2="1.4137167"
         inkscape:flatsided="false"
         inkscape:rounded="0.19"
         inkscape:randomized="0"
         d="M 404.07211,401.83504 C 380.87419,425.03296 272.95387,341.2513 240.55096,346.38341 C 208.14805,351.51553 131.39969,464.54584 102.16861,449.65185 C 72.93752,434.75787 119.2694,306.22959 104.37542,276.99851 C 89.481438,247.76742 -41.733322,209.70368 -36.601205,177.30077 C -31.469088,144.89786 105.08591,149.24468 128.28383,126.04675 C 151.48175,102.84883 147.13493,-33.706164 179.53784,-38.83828 C 211.94075,-43.970397 250.0045,87.244363 279.23558,102.13835 C 308.46667,117.03233 436.99495,70.700442 451.88893,99.931529 C 466.78291,129.16262 353.7526,205.91098 348.62049,238.31389 C 343.48837,270.7168 427.27003,378.63711 404.07211,401.83504 z"
         transform="matrix(0.666023,0,0,0.666023,264.509,223.356)" />
      <path
         transform="matrix(0.525971,0,0,0.525971,295.693,254.226)"
         d="M 404.07211,401.83504 C 380.87419,425.03296 272.95387,341.2513 240.55096,346.38341 C 208.14805,351.51553 131.39969,464.54584 102.16861,449.65185 C 72.93752,434.75787 119.2694,306.22959 104.37542,276.99851 C 89.481438,247.76742 -41.733322,209.70368 -36.601205,177.30077 C -31.469088,144.89786 105.08591,149.24468 128.28383,126.04675 C 151.48175,102.84883 147.13493,-33.706164 179.53784,-38.83828 C 211.94075,-43.970397 250.0045,87.244363 279.23558,102.13835 C 308.46667,117.03233 436.99495,70.700442 451.88893,99.931529 C 466.78291,129.16262 353.7526,205.91098 348.62049,238.31389 C 343.48837,270.7168 427.27003,378.63711 404.07211,401.83504 z"
         inkscape:randomized="0"
         inkscape:rounded="0.19"
         inkscape:flatsided="false"
         sodipodi:arg2="1.4137167"
         sodipodi:arg1="0.78539816"
         sodipodi:r2="130.00784"
         sodipodi:r1="260.01569"
         sodipodi:cy="217.97618"
         sodipodi:cx="220.21326"
         sodipodi:sides="5"
         id="path3948"
         style="opacity:1;fill:#ffdd55;fill-opacity:1;stroke:none"
         sodipodi:type="star" />
      <path
         sodipodi:type="star"
         style="opacity:1;fill:#f3c819;fill-opacity:1;stroke:none;filter:url(#filter4019)"
         id="path3950"
         sodipodi:sides="5"
         sodipodi:cx="220.21326"
         sodipodi:cy="217.97618"
         sodipodi:r1="260.01569"
         sodipodi:r2="130.00784"
         sodipodi:arg1="0.78539816"
         sodipodi:arg2="1.4137167"
         inkscape:flatsided="false"
         inkscape:rounded="0.19"
         inkscape:randomized="0"
         d="M 404.07211,401.83504 C 380.87419,425.03296 272.95387,341.2513 240.55096,346.38341 C 208.14805,351.51553 131.39969,464.54584 102.16861,449.65185 C 72.93752,434.75787 119.2694,306.22959 104.37542,276.99851 C 89.481438,247.76742 -41.733322,209.70368 -36.601205,177.30077 C -31.469088,144.89786 105.08591,149.24468 128.28383,126.04675 C 151.48175,102.84883 147.13493,-33.706164 179.53784,-38.83828 C 211.94075,-43.970397 250.0045,87.244363 279.23558,102.13835 C 308.46667,117.03233 436.99495,70.700442 451.88893,99.931529 C 466.78291,129.16262 353.7526,205.91098 348.62049,238.31389 C 343.48837,270.7168 427.27003,378.63711 404.07211,401.83504 z"
         transform="matrix(0.416228,0,0,0.416228,317.873,281.544)" />
    </g>
    <g
       id="g3477"
       transform="matrix(1.1817097,0,0,1.1817097,-6.6978793,-59.829889)">
      <g
         transform="matrix(0.3725419,1.5909547e-2,-1.5105333e-2,0.353711,498.38681,442.09114)"
         id="g6933">
        <path
           sodipodi:nodetypes="cscccscc"
           id="path6935"
           d="M -358.95108,-128.09912 C -369.64384,-128.00672 -381.1008,-122.74727 -384.26189,-112.08787 C -387.48002,-101.23611 -383.23523,-80.294701 -365.47357,-74.182875 C -354.39923,-69.871589 -343.50084,-63.508646 -338.29131,-52.342971 C -330.81743,-63.934282 -323.7543,-70.33381 -310.90538,-74.048908 C -293.14372,-80.160736 -289.16687,-101.23611 -292.385,-112.08787 C -298.53063,-132.8113 -336.02314,-133.12702 -338.32622,-114.73693 C -339.44485,-123.66762 -348.85567,-128.18635 -358.95108,-128.09912 L -358.95108,-128.09912 z"
           style="fill:url(#linearGradient3589);fill-opacity:1;stroke:url(#linearGradient3591);stroke-width:1.80972004;stroke-miterlimit:4;stroke-dasharray:none" />
        <path
           style="opacity:0.92741903;fill:#ffffff;fill-opacity:1;stroke:none;filter:url(#filter6901)"
           d="M -368.87991,-95.954025 C -373.97939,-96.379502 -377.68234,-101.94747 -377.14543,-108.38253 C -376.60852,-114.81758 -371.19792,-122.09957 -366.93458,-119.26944 C -363.1184,-116.73616 -370.46808,-114.08376 -371.00499,-107.64871 C -371.5419,-101.21365 -365.04458,-101.6142 -368.87991,-95.954025 L -368.87991,-95.954025 z"
           id="path6937"
           sodipodi:nodetypes="csssc" />
      </g>
      <g
         id="g7045"
         transform="matrix(0.3728452,5.2210709e-3,-4.9572205e-3,0.3539988,500.73271,746.64797)">
        <path
           style="fill:url(#linearGradient3593);fill-opacity:1;stroke:url(#linearGradient3595);stroke-width:1.80972004;stroke-miterlimit:4;stroke-dasharray:none"
           d="M -358.95108,-128.09912 C -369.64384,-128.00672 -381.1008,-122.74727 -384.26189,-112.08787 C -387.48002,-101.23611 -383.23523,-80.294701 -365.47357,-74.182875 C -354.39923,-69.871589 -343.50084,-63.508646 -338.29131,-52.342971 C -330.81743,-63.934282 -323.7543,-70.33381 -310.90538,-74.048908 C -293.14372,-80.160736 -289.16687,-101.23611 -292.385,-112.08787 C -298.53063,-132.8113 -336.02314,-133.12702 -338.32622,-114.73693 C -339.44485,-123.66762 -348.85567,-128.18635 -358.95108,-128.09912 L -358.95108,-128.09912 z"
           id="path7047"
           sodipodi:nodetypes="cscccscc" />
        <path
           sodipodi:nodetypes="csssc"
           id="path7049"
           d="M -368.87991,-95.954025 C -373.97939,-96.379502 -377.68234,-101.94747 -377.14543,-108.38253 C -376.60852,-114.81758 -371.19792,-122.09957 -366.93458,-119.26944 C -363.1184,-116.73616 -370.46808,-114.08376 -371.00499,-107.64871 C -371.5419,-101.21365 -365.04458,-101.6142 -368.87991,-95.954025 L -368.87991,-95.954025 z"
           style="opacity:0.92741903;fill:#ffffff;fill-opacity:1;stroke:none;filter:url(#filter6901)" />
      </g>
      <g
         transform="matrix(0.866703,0,0,0.866703,535.877,316.336)"
         id="g7135">
        <g
           transform="matrix(0.374794,0.211253,-0.200574,0.355849,-102.431,173.224)"
           id="g6943"
           inkscape:transform-center-x="19.104998"
           inkscape:transform-center-y="3.7627962">
          <path
             sodipodi:nodetypes="cscccscc"
             id="path6945"
             d="M -348.63405,-134.23591 C -358.80612,-137.70869 -371.25416,-136.5339 -377.45271,-127.47379 C -383.76311,-118.25017 -386.02194,-96.969416 -371.00583,-85.256832 C -361.7936,-77.479164 -353.36412,-67.813656 -351.77335,-55.486006 C -341.20348,-63.994173 -332.5817,-67.713611 -319.27665,-66.959765 C -300.59142,-66.843891 -290.49242,-85.514122 -290.28817,-96.880867 C -289.89812,-118.58776 -325.37287,-131.37144 -333.07791,-114.69144 C -331.45848,-123.53656 -339.03025,-130.95712 -348.63405,-134.23591 L -348.63405,-134.23591 z"
             style="fill:url(#linearGradient3597);fill-opacity:1;stroke:url(#linearGradient3599);stroke-width:1.80972004;stroke-miterlimit:4;stroke-dasharray:none" />
          <path
             style="opacity:0.92741903;fill:#ffffff;fill-opacity:1;stroke:none;filter:url(#filter6901)"
             d="M -368.87991,-95.954025 C -373.97939,-96.379502 -377.68234,-101.94747 -377.14543,-108.38253 C -376.60852,-114.81758 -371.19792,-122.09957 -366.93458,-119.26944 C -363.1184,-116.73616 -370.46808,-114.08376 -371.00499,-107.64871 C -371.5419,-101.21365 -365.04458,-101.6142 -368.87991,-95.954025 L -368.87991,-95.954025 z"
             id="path6947"
             sodipodi:nodetypes="csssc" />
        </g>
        <g
           id="g6953"
           transform="matrix(0.312339,0.295875,-0.28092,0.296551,-173.594,170.243)">
          <path
             style="fill:url(#linearGradient3601);fill-opacity:1;stroke:url(#linearGradient3603);stroke-width:1.80972004;stroke-miterlimit:4;stroke-dasharray:none"
             d="M -358.33414,-129.95527 C -369.02565,-130.15001 -380.60619,-125.1999 -384.02427,-114.62884 C -387.50402,-103.86702 -383.76751,-82.818438 -366.15955,-76.23168 C -355.19317,-71.624437 -344.45233,-64.97093 -339.51477,-53.669002 C -331.76275,-65.055863 -324.54701,-71.26366 -311.61235,-74.632542 C -293.70852,-80.265465 -289.22282,-101.22721 -292.17724,-112.16185 C -297.81927,-133.04356 -335.29194,-134.3659 -338.03941,-116.04362 C -338.94151,-125.00145 -348.2399,-129.77139 -358.33414,-129.95527 z"
             id="path6955"
             sodipodi:nodetypes="cscccscc" />
          <path
             sodipodi:nodetypes="csssc"
             id="path6957"
             d="M -368.87991,-95.954025 C -373.97939,-96.379502 -377.68234,-101.94747 -377.14543,-108.38253 C -376.60852,-114.81758 -371.19792,-122.09957 -366.93458,-119.26944 C -363.1184,-116.73616 -370.46808,-114.08376 -371.00499,-107.64871 C -371.5419,-101.21365 -365.04458,-101.6142 -368.87991,-95.954025 L -368.87991,-95.954025 z"
             style="opacity:0.92741903;fill:#ffffff;fill-opacity:1;stroke:none;filter:url(#filter6901)" />
        </g>
        <g
           transform="matrix(0.322465,0.284805,-0.270409,0.306166,-209.455,156.979)"
           id="g6965">
          <path
             sodipodi:nodetypes="cscccscc"
             id="path6967"
             d="M -367.46932,-120.37127 C -378.16234,-120.32203 -389.63835,-115.10887 -392.8382,-104.4623 C -396.09579,-93.623613 -391.92723,-72.665226 -374.18794,-66.481755 C -363.12937,-62.125802 -352.25421,-55.718917 -347.08534,-44.532297 C -339.56934,-56.093356 -332.48298,-62.464329 -319.62064,-66.127538 C -301.83687,-72.167631 -297.78336,-93.226803 -300.96199,-104.09146 C -307.03217,-124.83955 -344.52326,-125.30659 -346.89323,-106.92594 C -347.97936,-115.86108 -357.37367,-120.41776 -367.46932,-120.37127 L -367.46932,-120.37127 z"
             style="fill:url(#linearGradient3605);fill-opacity:1;stroke:url(#linearGradient3607);stroke-width:1.80972004;stroke-miterlimit:4;stroke-dasharray:none" />
          <path
             style="opacity:0.92741903;fill:#ffffff;fill-opacity:1;stroke:none;filter:url(#filter6901)"
             d="M -368.87991,-95.954025 C -373.97939,-96.379502 -377.68234,-101.94747 -377.14543,-108.38253 C -376.60852,-114.81758 -371.19792,-122.09957 -366.93458,-119.26944 C -363.1184,-116.73616 -370.46808,-114.08376 -371.00499,-107.64871 C -371.5419,-101.21365 -365.04458,-101.6142 -368.87991,-95.954025 L -368.87991,-95.954025 z"
             id="path6969"
             sodipodi:nodetypes="csssc" />
        </g>
        <g
           id="g6975"
           transform="matrix(0.20722,0.377038,-0.35798,0.196746,-304.931,182.92)">
          <path
             style="fill:url(#linearGradient3609);fill-opacity:1;stroke:url(#linearGradient3611);stroke-width:1.80972004;stroke-miterlimit:4;stroke-dasharray:none"
             d="M -365.39272,-118.29914 C -375.35533,-114.20781 -384.28756,-105.00098 -383.64296,-93.854381 C -382.98673,-82.506632 -371.94872,-64.524002 -353.2845,-65.464301 C -341.4784,-65.582715 -329.14402,-63.717682 -320.50505,-55.233107 C -317.43342,-68.86605 -312.99274,-77.492739 -302.2381,-85.777536 C -287.70109,-98.142453 -291.10012,-119.32969 -297.77189,-128.26675 C -310.51287,-145.33369 -345.66118,-131.586 -341.60445,-113.53542 C -345.66532,-121.46334 -355.98669,-122.16188 -365.39272,-118.29914 L -365.39272,-118.29914 z"
             id="path6977"
             sodipodi:nodetypes="cscccscc" />
          <path
             sodipodi:nodetypes="csssc"
             id="path6979"
             d="M -368.87991,-95.954025 C -373.97939,-96.379502 -377.68234,-101.94747 -377.14543,-108.38253 C -376.60852,-114.81758 -371.19792,-122.09957 -366.93458,-119.26944 C -363.1184,-116.73616 -370.46808,-114.08376 -371.00499,-107.64871 C -371.5419,-101.21365 -365.04458,-101.6142 -368.87991,-95.954025 L -368.87991,-95.954025 z"
             style="opacity:0.92741903;fill:#ffffff;fill-opacity:1;stroke:none;filter:url(#filter6901)" />
        </g>
        <g
           transform="matrix(0.356694,0.240556,-0.228397,0.338664,-283.576,167.037)"
           id="g6985">
          <path
             sodipodi:nodetypes="cscccscc"
             id="path6987"
             d="M -358.95108,-128.09912 C -369.64384,-128.00672 -381.1008,-122.74727 -384.26189,-112.08787 C -387.48002,-101.23611 -383.23523,-80.294701 -365.47357,-74.182875 C -354.39923,-69.871589 -343.50084,-63.508646 -338.29131,-52.342971 C -330.81743,-63.934282 -323.7543,-70.33381 -310.90538,-74.048908 C -293.14372,-80.160736 -289.16687,-101.23611 -292.385,-112.08787 C -298.53063,-132.8113 -336.02314,-133.12702 -338.32622,-114.73693 C -339.44485,-123.66762 -348.85567,-128.18635 -358.95108,-128.09912 L -358.95108,-128.09912 z"
             style="fill:url(#linearGradient3613);fill-opacity:1;stroke:url(#linearGradient3615);stroke-width:1.80972004;stroke-miterlimit:4;stroke-dasharray:none" />
          <path
             style="opacity:0.92741903;fill:#ffffff;fill-opacity:1;stroke:none;filter:url(#filter6901)"
             d="M -368.87991,-95.954025 C -373.97939,-96.379502 -377.68234,-101.94747 -377.14543,-108.38253 C -376.60852,-114.81758 -371.19792,-122.09957 -366.93458,-119.26944 C -363.1184,-116.73616 -370.46808,-114.08376 -371.00499,-107.64871 C -371.5419,-101.21365 -365.04458,-101.6142 -368.87991,-95.954025 L -368.87991,-95.954025 z"
             id="path6989"
             sodipodi:nodetypes="csssc" />
        </g>
        <g
           id="g6995"
           transform="matrix(0.384474,0.193073,-0.183314,0.365041,-303.223,183.623)">
          <path
             style="fill:url(#linearGradient3617);fill-opacity:1;stroke:url(#linearGradient3619);stroke-width:1.80972004;stroke-miterlimit:4;stroke-dasharray:none"
             d="M -354.80863,-138.08482 C -365.48162,-138.77548 -377.25797,-134.36753 -381.11491,-123.96535 C -385.04145,-113.37544 -382.18901,-92.17392 -364.87368,-84.776513 C -354.11066,-79.664885 -343.65857,-72.519446 -339.19855,-60.99938 C -330.97776,-72.015478 -323.50934,-77.882419 -310.44633,-80.647842 C -292.32426,-85.444527 -286.9661,-106.17777 -289.46026,-117.23888 C -294.22333,-138.36211 -331.60431,-141.42196 -335.11553,-123.24497 C -335.64204,-132.23595 -344.73189,-137.43273 -354.80863,-138.08482 L -354.80863,-138.08482 z"
             id="path6997"
             sodipodi:nodetypes="cscccscc" />
          <path
             sodipodi:nodetypes="csssc"
             id="path6999"
             d="M -368.87991,-95.954025 C -373.97939,-96.379502 -377.68234,-101.94747 -377.14543,-108.38253 C -376.60852,-114.81758 -371.19792,-122.09957 -366.93458,-119.26944 C -363.1184,-116.73616 -370.46808,-114.08376 -371.00499,-107.64871 C -371.5419,-101.21365 -365.04458,-101.6142 -368.87991,-95.954025 L -368.87991,-95.954025 z"
             style="opacity:0.92741903;fill:#ffffff;fill-opacity:1;stroke:none;filter:url(#filter6901)" />
        </g>
        <g
           transform="matrix(0.405822,0.14285,-0.13563,0.385309,-314.451,196.904)"
           id="g7005"
           inkscape:transform-center-x="4.713238"
           inkscape:transform-center-y="-4.5965252">
          <path
             sodipodi:nodetypes="cscccscc"
             id="path7007"
             d="M -358.95108,-128.09912 C -369.64384,-128.00672 -381.1008,-122.74727 -384.26189,-112.08787 C -387.48002,-101.23611 -383.23523,-80.294701 -365.47357,-74.182875 C -354.39923,-69.871589 -343.50084,-63.508646 -338.29131,-52.342971 C -330.81743,-63.934282 -323.7543,-70.33381 -310.90538,-74.048908 C -293.14372,-80.160736 -289.16687,-101.23611 -292.385,-112.08787 C -298.53063,-132.8113 -336.02314,-133.12702 -338.32622,-114.73693 C -339.44485,-123.66762 -348.85567,-128.18635 -358.95108,-128.09912 L -358.95108,-128.09912 z"
             style="fill:url(#linearGradient3621);fill-opacity:1;stroke:url(#linearGradient3623);stroke-width:1.80972004;stroke-miterlimit:4;stroke-dasharray:none" />
          <path
             style="opacity:0.92741903;fill:#ffffff;fill-opacity:1;stroke:none;filter:url(#filter6901)"
             d="M -368.87991,-95.954025 C -373.97939,-96.379502 -377.68234,-101.94747 -377.14543,-108.38253 C -376.60852,-114.81758 -371.19792,-122.09957 -366.93458,-119.26944 C -363.1184,-116.73616 -370.46808,-114.08376 -371.00499,-107.64871 C -371.5419,-101.21365 -365.04458,-101.6142 -368.87991,-95.954025 L -368.87991,-95.954025 z"
             id="path7009"
             sodipodi:nodetypes="csssc" />
        </g>
        <g
           id="g7015"
           transform="matrix(0.428234,4.13948e-2,-3.93025e-2,0.406588,-308.593,203.521)">
          <path
             style="fill:url(#linearGradient3625);fill-opacity:1;stroke:url(#linearGradient3627);stroke-width:1.80972004;stroke-miterlimit:4;stroke-dasharray:none"
             d="M -358.95108,-128.09912 C -369.64384,-128.00672 -381.1008,-122.74727 -384.26189,-112.08787 C -387.48002,-101.23611 -383.23523,-80.294701 -365.47357,-74.182875 C -354.39923,-69.871589 -343.50084,-63.508646 -338.29131,-52.342971 C -330.81743,-63.934282 -323.7543,-70.33381 -310.90538,-74.048908 C -293.14372,-80.160736 -289.16687,-101.23611 -292.385,-112.08787 C -298.53063,-132.8113 -336.02314,-133.12702 -338.32622,-114.73693 C -339.44485,-123.66762 -348.85567,-128.18635 -358.95108,-128.09912 L -358.95108,-128.09912 z"
             id="path7017"
             sodipodi:nodetypes="cscccscc" />
          <path
             sodipodi:nodetypes="csssc"
             id="path7019"
             d="M -368.87991,-95.954025 C -373.97939,-96.379502 -377.68234,-101.94747 -377.14543,-108.38253 C -376.60852,-114.81758 -371.19792,-122.09957 -366.93458,-119.26944 C -363.1184,-116.73616 -370.46808,-114.08376 -371.00499,-107.64871 C -371.5419,-101.21365 -365.04458,-101.6142 -368.87991,-95.954025 L -368.87991,-95.954025 z"
             style="opacity:0.92741903;fill:#ffffff;fill-opacity:1;stroke:none;filter:url(#filter6901)" />
        </g>
        <g
           transform="matrix(0.426011,-6.01078e-2,5.70694e-2,0.404477,-300.094,210.776)"
           id="g7025">
          <path
             sodipodi:nodetypes="cscccscc"
             id="path7027"
             d="M -358.95108,-128.09912 C -369.64384,-128.00672 -381.1008,-122.74727 -384.26189,-112.08787 C -387.48002,-101.23611 -383.23523,-80.294701 -365.47357,-74.182875 C -354.39923,-69.871589 -343.50084,-63.508646 -338.29131,-52.342971 C -330.81743,-63.934282 -323.7543,-70.33381 -310.90538,-74.048908 C -293.14372,-80.160736 -289.16687,-101.23611 -292.385,-112.08787 C -298.53063,-132.8113 -336.02314,-133.12702 -338.32622,-114.73693 C -339.44485,-123.66762 -348.85567,-128.18635 -358.95108,-128.09912 L -358.95108,-128.09912 z"
             style="fill:url(#linearGradient3629);fill-opacity:1;stroke:url(#linearGradient3631);stroke-width:1.80972004;stroke-miterlimit:4;stroke-dasharray:none" />
          <path
             style="opacity:0.92741903;fill:#ffffff;fill-opacity:1;stroke:none;filter:url(#filter6901)"
             d="M -368.87991,-95.954025 C -373.97939,-96.379502 -377.68234,-101.94747 -377.14543,-108.38253 C -376.60852,-114.81758 -371.19792,-122.09957 -366.93458,-119.26944 C -363.1184,-116.73616 -370.46808,-114.08376 -371.00499,-107.64871 C -371.5419,-101.21365 -365.04458,-101.6142 -368.87991,-95.954025 L -368.87991,-95.954025 z"
             id="path7029"
             sodipodi:nodetypes="csssc" />
        </g>
        <g
           id="g7035"
           transform="matrix(0.408237,-0.135796,0.128932,0.387602,-290.255,223.306)"
           inkscape:transform-center-y="4.3239284"
           inkscape:transform-center-x="-0.27537489">
          <path
             style="fill:url(#linearGradient3633);fill-opacity:1;stroke:url(#linearGradient3635);stroke-width:1.80972004;stroke-miterlimit:4;stroke-dasharray:none"
             d="M -358.95108,-128.09912 C -369.64384,-128.00672 -381.1008,-122.74727 -384.26189,-112.08787 C -387.48002,-101.23611 -383.23523,-80.294701 -365.47357,-74.182875 C -354.39923,-69.871589 -343.50084,-63.508646 -338.29131,-52.342971 C -330.81743,-63.934282 -323.7543,-70.33381 -310.90538,-74.048908 C -293.14372,-80.160736 -289.16687,-101.23611 -292.385,-112.08787 C -298.53063,-132.8113 -336.02314,-133.12702 -338.32622,-114.73693 C -339.44485,-123.66762 -348.85567,-128.18635 -358.95108,-128.09912 L -358.95108,-128.09912 z"
             id="path7037"
             sodipodi:nodetypes="cscccscc" />
          <path
             sodipodi:nodetypes="csssc"
             id="path7039"
             d="M -368.87991,-95.954025 C -373.97939,-96.379502 -377.68234,-101.94747 -377.14543,-108.38253 C -376.60852,-114.81758 -371.19792,-122.09957 -366.93458,-119.26944 C -363.1184,-116.73616 -370.46808,-114.08376 -371.00499,-107.64871 C -371.5419,-101.21365 -365.04458,-101.6142 -368.87991,-95.954025 L -368.87991,-95.954025 z"
             style="opacity:0.92741903;fill:#ffffff;fill-opacity:1;stroke:none;filter:url(#filter6901)" />
        </g>
        <g
           transform="matrix(0.367687,-0.223392,0.2121,0.349102,-280.338,226.509)"
           id="g7065">
          <path
             sodipodi:nodetypes="cscccscc"
             id="path7067"
             d="M -358.95108,-128.09912 C -369.64384,-128.00672 -381.1008,-122.74727 -384.26189,-112.08787 C -387.48002,-101.23611 -383.23523,-80.294701 -365.47357,-74.182875 C -354.39923,-69.871589 -343.50084,-63.508646 -338.29131,-52.342971 C -330.81743,-63.934282 -323.7543,-70.33381 -310.90538,-74.048908 C -293.14372,-80.160736 -289.16687,-101.23611 -292.385,-112.08787 C -298.53063,-132.8113 -336.02314,-133.12702 -338.32622,-114.73693 C -339.44485,-123.66762 -348.85567,-128.18635 -358.95108,-128.09912 L -358.95108,-128.09912 z"
             style="fill:url(#linearGradient3637);fill-opacity:1;stroke:url(#linearGradient3639);stroke-width:1.80972004;stroke-miterlimit:4;stroke-dasharray:none" />
          <path
             style="opacity:0.92741903;fill:#ffffff;fill-opacity:1;stroke:none;filter:url(#filter6901)"
             d="M -368.87991,-95.954025 C -373.97939,-96.379502 -377.68234,-101.94747 -377.14543,-108.38253 C -376.60852,-114.81758 -371.19792,-122.09957 -366.93458,-119.26944 C -363.1184,-116.73616 -370.46808,-114.08376 -371.00499,-107.64871 C -371.5419,-101.21365 -365.04458,-101.6142 -368.87991,-95.954025 L -368.87991,-95.954025 z"
             id="path7069"
             sodipodi:nodetypes="csssc" />
        </g>
        <g
           id="g7075"
           transform="matrix(0.295436,-0.312755,0.296946,0.280503,-269.196,224.215)">
          <path
             style="fill:url(#linearGradient3641);fill-opacity:1;stroke:url(#linearGradient3643);stroke-width:1.80972004;stroke-miterlimit:4;stroke-dasharray:none"
             d="M -358.95108,-128.09912 C -369.64384,-128.00672 -381.1008,-122.74727 -384.26189,-112.08787 C -387.48002,-101.23611 -383.23523,-80.294701 -365.47357,-74.182875 C -354.39923,-69.871589 -343.50084,-63.508646 -338.29131,-52.342971 C -330.81743,-63.934282 -323.7543,-70.33381 -310.90538,-74.048908 C -293.14372,-80.160736 -289.16687,-101.23611 -292.385,-112.08787 C -298.53063,-132.8113 -336.02314,-133.12702 -338.32622,-114.73693 C -339.44485,-123.66762 -348.85567,-128.18635 -358.95108,-128.09912 L -358.95108,-128.09912 z"
             id="path7077"
             sodipodi:nodetypes="cscccscc" />
          <path
             sodipodi:nodetypes="csssc"
             id="path7079"
             d="M -368.87991,-95.954025 C -373.97939,-96.379502 -377.68234,-101.94747 -377.14543,-108.38253 C -376.60852,-114.81758 -371.19792,-122.09957 -366.93458,-119.26944 C -363.1184,-116.73616 -370.46808,-114.08376 -371.00499,-107.64871 C -371.5419,-101.21365 -365.04458,-101.6142 -368.87991,-95.954025 L -368.87991,-95.954025 z"
             style="opacity:0.92741903;fill:#ffffff;fill-opacity:1;stroke:none;filter:url(#filter6901)" />
        </g>
        <g
           transform="matrix(0.199357,-0.381254,0.361983,0.18928,-260.832,218.481)"
           id="g7085">
          <path
             sodipodi:nodetypes="cscccscc"
             id="path7087"
             d="M -358.95108,-128.09912 C -369.64384,-128.00672 -381.1008,-122.74727 -384.26189,-112.08787 C -387.48002,-101.23611 -383.23523,-80.294701 -365.47357,-74.182875 C -354.39923,-69.871589 -343.50084,-63.508646 -338.29131,-52.342971 C -330.81743,-63.934282 -323.7543,-70.33381 -310.90538,-74.048908 C -293.14372,-80.160736 -289.16687,-101.23611 -292.385,-112.08787 C -298.53063,-132.8113 -336.02314,-133.12702 -338.32622,-114.73693 C -339.44485,-123.66762 -348.85567,-128.18635 -358.95108,-128.09912 L -358.95108,-128.09912 z"
             style="fill:url(#linearGradient3645);fill-opacity:1;stroke:url(#linearGradient3647);stroke-width:1.80972004;stroke-miterlimit:4;stroke-dasharray:none" />
          <path
             style="opacity:0.92741903;fill:#ffffff;fill-opacity:1;stroke:none;filter:url(#filter6901)"
             d="M -368.87991,-95.954025 C -373.97939,-96.379502 -377.68234,-101.94747 -377.14543,-108.38253 C -376.60852,-114.81758 -371.19792,-122.09957 -366.93458,-119.26944 C -363.1184,-116.73616 -370.46808,-114.08376 -371.00499,-107.64871 C -371.5419,-101.21365 -365.04458,-101.6142 -368.87991,-95.954025 L -368.87991,-95.954025 z"
             id="path7089"
             sodipodi:nodetypes="csssc" />
        </g>
        <g
           id="g7095"
           transform="matrix(0.178113,-0.391629,0.371834,0.16911,-226.404,231.514)">
          <path
             style="fill:url(#linearGradient3649);fill-opacity:1;stroke:url(#linearGradient3651);stroke-width:1.80972004;stroke-miterlimit:4;stroke-dasharray:none"
             d="M -358.95108,-128.09912 C -369.64384,-128.00672 -381.1008,-122.74727 -384.26189,-112.08787 C -387.48002,-101.23611 -383.23523,-80.294701 -365.47357,-74.182875 C -354.39923,-69.871589 -343.50084,-63.508646 -338.29131,-52.342971 C -330.81743,-63.934282 -323.7543,-70.33381 -310.90538,-74.048908 C -293.14372,-80.160736 -289.16687,-101.23611 -292.385,-112.08787 C -298.53063,-132.8113 -336.02314,-133.12702 -338.32622,-114.73693 C -339.44485,-123.66762 -348.85567,-128.18635 -358.95108,-128.09912 L -358.95108,-128.09912 z"
             id="path7097"
             sodipodi:nodetypes="cscccscc" />
          <path
             sodipodi:nodetypes="csssc"
             id="path7099"
             d="M -368.87991,-95.954025 C -373.97939,-96.379502 -377.68234,-101.94747 -377.14543,-108.38253 C -376.60852,-114.81758 -371.19792,-122.09957 -366.93458,-119.26944 C -363.1184,-116.73616 -370.46808,-114.08376 -371.00499,-107.64871 C -371.5419,-101.21365 -365.04458,-101.6142 -368.87991,-95.954025 L -368.87991,-95.954025 z"
             style="opacity:0.92741903;fill:#ffffff;fill-opacity:1;stroke:none;filter:url(#filter6901)" />
        </g>
        <g
           transform="matrix(0.232538,-0.361972,0.343676,0.220784,-171.713,265.091)"
           id="g7105">
          <path
             sodipodi:nodetypes="cscccscc"
             id="path7107"
             d="M -358.95108,-128.09912 C -369.64384,-128.00672 -381.1008,-122.74727 -384.26189,-112.08787 C -387.48002,-101.23611 -383.23523,-80.294701 -365.47357,-74.182875 C -354.39923,-69.871589 -343.50084,-63.508646 -338.29131,-52.342971 C -330.81743,-63.934282 -323.7543,-70.33381 -310.90538,-74.048908 C -293.14372,-80.160736 -289.16687,-101.23611 -292.385,-112.08787 C -298.53063,-132.8113 -336.02314,-133.12702 -338.32622,-114.73693 C -339.44485,-123.66762 -348.85567,-128.18635 -358.95108,-128.09912 L -358.95108,-128.09912 z"
             style="fill:url(#linearGradient3653);fill-opacity:1;stroke:url(#linearGradient3655);stroke-width:1.80972004;stroke-miterlimit:4;stroke-dasharray:none" />
          <path
             style="opacity:0.92741903;fill:#ffffff;fill-opacity:1;stroke:none;filter:url(#filter6901)"
             d="M -368.87991,-95.954025 C -373.97939,-96.379502 -377.68234,-101.94747 -377.14543,-108.38253 C -376.60852,-114.81758 -371.19792,-122.09957 -366.93458,-119.26944 C -363.1184,-116.73616 -370.46808,-114.08376 -371.00499,-107.64871 C -371.5419,-101.21365 -365.04458,-101.6142 -368.87991,-95.954025 L -368.87991,-95.954025 z"
             id="path7109"
             sodipodi:nodetypes="csssc" />
        </g>
        <g
           id="g7115"
           transform="matrix(0.28238,-0.324591,0.308184,0.268107,-120.129,307.41)">
          <path
             style="fill:url(#linearGradient3657);fill-opacity:1;stroke:url(#linearGradient3659);stroke-width:1.80972004;stroke-miterlimit:4;stroke-dasharray:none"
             d="M -358.95108,-128.09912 C -369.64384,-128.00672 -381.1008,-122.74727 -384.26189,-112.08787 C -387.48002,-101.23611 -383.23523,-80.294701 -365.47357,-74.182875 C -354.39923,-69.871589 -343.50084,-63.508646 -338.29131,-52.342971 C -330.81743,-63.934282 -323.7543,-70.33381 -310.90538,-74.048908 C -293.14372,-80.160736 -289.16687,-101.23611 -292.385,-112.08787 C -298.53063,-132.8113 -336.02314,-133.12702 -338.32622,-114.73693 C -339.44485,-123.66762 -348.85567,-128.18635 -358.95108,-128.09912 L -358.95108,-128.09912 z"
             id="path7117"
             sodipodi:nodetypes="cscccscc" />
          <path
             sodipodi:nodetypes="csssc"
             id="path7119"
             d="M -368.87991,-95.954025 C -373.97939,-96.379502 -377.68234,-101.94747 -377.14543,-108.38253 C -376.60852,-114.81758 -371.19792,-122.09957 -366.93458,-119.26944 C -363.1184,-116.73616 -370.46808,-114.08376 -371.00499,-107.64871 C -371.5419,-101.21365 -365.04458,-101.6142 -368.87991,-95.954025 L -368.87991,-95.954025 z"
             style="opacity:0.92741903;fill:#ffffff;fill-opacity:1;stroke:none;filter:url(#filter6901)" />
        </g>
        <g
           transform="matrix(0.328705,-0.27758,0.26355,0.31209,-78.5683,356.785)"
           id="g7125">
          <path
             sodipodi:nodetypes="cscccscc"
             id="path7127"
             d="M -358.95108,-128.09912 C -369.64384,-128.00672 -381.1008,-122.74727 -384.26189,-112.08787 C -387.48002,-101.23611 -383.23523,-80.294701 -365.47357,-74.182875 C -354.39923,-69.871589 -343.50084,-63.508646 -338.29131,-52.342971 C -330.81743,-63.934282 -323.7543,-70.33381 -310.90538,-74.048908 C -293.14372,-80.160736 -289.16687,-101.23611 -292.385,-112.08787 C -298.53063,-132.8113 -336.02314,-133.12702 -338.32622,-114.73693 C -339.44485,-123.66762 -348.85567,-128.18635 -358.95108,-128.09912 L -358.95108,-128.09912 z"
             style="fill:url(#linearGradient3661);fill-opacity:1;stroke:url(#linearGradient3663);stroke-width:1.80972004;stroke-miterlimit:4;stroke-dasharray:none" />
          <path
             style="opacity:0.92741903;fill:#ffffff;fill-opacity:1;stroke:none;filter:url(#filter6901)"
             d="M -368.87991,-95.954025 C -373.97939,-96.379502 -377.68234,-101.94747 -377.14543,-108.38253 C -376.60852,-114.81758 -371.19792,-122.09957 -366.93458,-119.26944 C -363.1184,-116.73616 -370.46808,-114.08376 -371.00499,-107.64871 C -371.5419,-101.21365 -365.04458,-101.6142 -368.87991,-95.954025 L -368.87991,-95.954025 z"
             id="path7129"
             sodipodi:nodetypes="csssc" />
        </g>
      </g>
      <g
         transform="matrix(-0.866703,0,0,0.866703,209.10657,316.336)"
         id="g7188">
        <g
           inkscape:transform-center-y="3.7627962"
           inkscape:transform-center-x="19.104998"
           id="g7190"
           transform="matrix(0.374794,0.211253,-0.200574,0.355849,-102.431,173.224)">
          <path
             style="fill:url(#linearGradient3665);fill-opacity:1;stroke:url(#linearGradient3667);stroke-width:1.80972004;stroke-miterlimit:4;stroke-dasharray:none"
             d="M -348.63405,-134.23591 C -358.80612,-137.70869 -371.25416,-136.5339 -377.45271,-127.47379 C -383.76311,-118.25017 -386.02194,-96.969416 -371.00583,-85.256832 C -361.7936,-77.479164 -353.36412,-67.813656 -351.77335,-55.486006 C -341.20348,-63.994173 -332.5817,-67.713611 -319.27665,-66.959765 C -300.59142,-66.843891 -290.49242,-85.514122 -290.28817,-96.880867 C -289.89812,-118.58776 -325.37287,-131.37144 -333.07791,-114.69144 C -331.45848,-123.53656 -339.03025,-130.95712 -348.63405,-134.23591 L -348.63405,-134.23591 z"
             id="path7192"
             sodipodi:nodetypes="cscccscc" />
          <path
             sodipodi:nodetypes="csssc"
             id="path7194"
             d="M -368.87991,-95.954025 C -373.97939,-96.379502 -377.68234,-101.94747 -377.14543,-108.38253 C -376.60852,-114.81758 -371.19792,-122.09957 -366.93458,-119.26944 C -363.1184,-116.73616 -370.46808,-114.08376 -371.00499,-107.64871 C -371.5419,-101.21365 -365.04458,-101.6142 -368.87991,-95.954025 L -368.87991,-95.954025 z"
             style="opacity:0.92741903;fill:#ffffff;fill-opacity:1;stroke:none;filter:url(#filter6901)" />
        </g>
        <g
           transform="matrix(0.312339,0.295875,-0.28092,0.296551,-173.594,170.243)"
           id="g7196">
          <path
             sodipodi:nodetypes="cscccscc"
             id="path7198"
             d="M -358.33414,-129.95527 C -369.02565,-130.15001 -380.60619,-125.1999 -384.02427,-114.62884 C -387.50402,-103.86702 -383.76751,-82.818438 -366.15955,-76.23168 C -355.19317,-71.624437 -344.45233,-64.97093 -339.51477,-53.669002 C -331.76275,-65.055863 -324.54701,-71.26366 -311.61235,-74.632542 C -293.70852,-80.265465 -289.22282,-101.22721 -292.17724,-112.16185 C -297.81927,-133.04356 -335.29194,-134.3659 -338.03941,-116.04362 C -338.94151,-125.00145 -348.2399,-129.77139 -358.33414,-129.95527 z"
             style="fill:url(#linearGradient3669);fill-opacity:1;stroke:url(#linearGradient3671);stroke-width:1.80972004;stroke-miterlimit:4;stroke-dasharray:none" />
          <path
             style="opacity:0.92741903;fill:#ffffff;fill-opacity:1;stroke:none;filter:url(#filter6901)"
             d="M -368.87991,-95.954025 C -373.97939,-96.379502 -377.68234,-101.94747 -377.14543,-108.38253 C -376.60852,-114.81758 -371.19792,-122.09957 -366.93458,-119.26944 C -363.1184,-116.73616 -370.46808,-114.08376 -371.00499,-107.64871 C -371.5419,-101.21365 -365.04458,-101.6142 -368.87991,-95.954025 L -368.87991,-95.954025 z"
             id="path7200"
             sodipodi:nodetypes="csssc" />
        </g>
        <g
           id="g7202"
           transform="matrix(0.322465,0.284805,-0.270409,0.306166,-209.455,156.979)">
          <path
             style="fill:url(#linearGradient3673);fill-opacity:1;stroke:url(#linearGradient3675);stroke-width:1.80972004;stroke-miterlimit:4;stroke-dasharray:none"
             d="M -367.46932,-120.37127 C -378.16234,-120.32203 -389.63835,-115.10887 -392.8382,-104.4623 C -396.09579,-93.623613 -391.92723,-72.665226 -374.18794,-66.481755 C -363.12937,-62.125802 -352.25421,-55.718917 -347.08534,-44.532297 C -339.56934,-56.093356 -332.48298,-62.464329 -319.62064,-66.127538 C -301.83687,-72.167631 -297.78336,-93.226803 -300.96199,-104.09146 C -307.03217,-124.83955 -344.52326,-125.30659 -346.89323,-106.92594 C -347.97936,-115.86108 -357.37367,-120.41776 -367.46932,-120.37127 L -367.46932,-120.37127 z"
             id="path7204"
             sodipodi:nodetypes="cscccscc" />
          <path
             sodipodi:nodetypes="csssc"
             id="path7206"
             d="M -368.87991,-95.954025 C -373.97939,-96.379502 -377.68234,-101.94747 -377.14543,-108.38253 C -376.60852,-114.81758 -371.19792,-122.09957 -366.93458,-119.26944 C -363.1184,-116.73616 -370.46808,-114.08376 -371.00499,-107.64871 C -371.5419,-101.21365 -365.04458,-101.6142 -368.87991,-95.954025 L -368.87991,-95.954025 z"
             style="opacity:0.92741903;fill:#ffffff;fill-opacity:1;stroke:none;filter:url(#filter6901)" />
        </g>
        <g
           transform="matrix(0.20722,0.377038,-0.35798,0.196746,-304.931,182.92)"
           id="g7208">
          <path
             sodipodi:nodetypes="cscccscc"
             id="path7210"
             d="M -365.39272,-118.29914 C -375.35533,-114.20781 -384.28756,-105.00098 -383.64296,-93.854381 C -382.98673,-82.506632 -371.94872,-64.524002 -353.2845,-65.464301 C -341.4784,-65.582715 -329.14402,-63.717682 -320.50505,-55.233107 C -317.43342,-68.86605 -312.99274,-77.492739 -302.2381,-85.777536 C -287.70109,-98.142453 -291.10012,-119.32969 -297.77189,-128.26675 C -310.51287,-145.33369 -345.66118,-131.586 -341.60445,-113.53542 C -345.66532,-121.46334 -355.98669,-122.16188 -365.39272,-118.29914 L -365.39272,-118.29914 z"
             style="fill:url(#linearGradient3677);fill-opacity:1;stroke:url(#linearGradient3679);stroke-width:1.80972004;stroke-miterlimit:4;stroke-dasharray:none" />
          <path
             style="opacity:0.92741903;fill:#ffffff;fill-opacity:1;stroke:none;filter:url(#filter6901)"
             d="M -368.87991,-95.954025 C -373.97939,-96.379502 -377.68234,-101.94747 -377.14543,-108.38253 C -376.60852,-114.81758 -371.19792,-122.09957 -366.93458,-119.26944 C -363.1184,-116.73616 -370.46808,-114.08376 -371.00499,-107.64871 C -371.5419,-101.21365 -365.04458,-101.6142 -368.87991,-95.954025 L -368.87991,-95.954025 z"
             id="path7212"
             sodipodi:nodetypes="csssc" />
        </g>
        <g
           id="g7214"
           transform="matrix(0.356694,0.240556,-0.228397,0.338664,-283.576,167.037)">
          <path
             style="fill:url(#linearGradient3681);fill-opacity:1;stroke:url(#linearGradient3683);stroke-width:1.80972004;stroke-miterlimit:4;stroke-dasharray:none"
             d="M -358.95108,-128.09912 C -369.64384,-128.00672 -381.1008,-122.74727 -384.26189,-112.08787 C -387.48002,-101.23611 -383.23523,-80.294701 -365.47357,-74.182875 C -354.39923,-69.871589 -343.50084,-63.508646 -338.29131,-52.342971 C -330.81743,-63.934282 -323.7543,-70.33381 -310.90538,-74.048908 C -293.14372,-80.160736 -289.16687,-101.23611 -292.385,-112.08787 C -298.53063,-132.8113 -336.02314,-133.12702 -338.32622,-114.73693 C -339.44485,-123.66762 -348.85567,-128.18635 -358.95108,-128.09912 L -358.95108,-128.09912 z"
             id="path7216"
             sodipodi:nodetypes="cscccscc" />
          <path
             sodipodi:nodetypes="csssc"
             id="path7218"
             d="M -368.87991,-95.954025 C -373.97939,-96.379502 -377.68234,-101.94747 -377.14543,-108.38253 C -376.60852,-114.81758 -371.19792,-122.09957 -366.93458,-119.26944 C -363.1184,-116.73616 -370.46808,-114.08376 -371.00499,-107.64871 C -371.5419,-101.21365 -365.04458,-101.6142 -368.87991,-95.954025 L -368.87991,-95.954025 z"
             style="opacity:0.92741903;fill:#ffffff;fill-opacity:1;stroke:none;filter:url(#filter6901)" />
        </g>
        <g
           transform="matrix(0.384474,0.193073,-0.183314,0.365041,-303.223,183.623)"
           id="g7220">
          <path
             sodipodi:nodetypes="cscccscc"
             id="path7222"
             d="M -354.80863,-138.08482 C -365.48162,-138.77548 -377.25797,-134.36753 -381.11491,-123.96535 C -385.04145,-113.37544 -382.18901,-92.17392 -364.87368,-84.776513 C -354.11066,-79.664885 -343.65857,-72.519446 -339.19855,-60.99938 C -330.97776,-72.015478 -323.50934,-77.882419 -310.44633,-80.647842 C -292.32426,-85.444527 -286.9661,-106.17777 -289.46026,-117.23888 C -294.22333,-138.36211 -331.60431,-141.42196 -335.11553,-123.24497 C -335.64204,-132.23595 -344.73189,-137.43273 -354.80863,-138.08482 L -354.80863,-138.08482 z"
             style="fill:url(#linearGradient3685);fill-opacity:1;stroke:url(#linearGradient3687);stroke-width:1.80972004;stroke-miterlimit:4;stroke-dasharray:none" />
          <path
             style="opacity:0.92741903;fill:#ffffff;fill-opacity:1;stroke:none;filter:url(#filter6901)"
             d="M -368.87991,-95.954025 C -373.97939,-96.379502 -377.68234,-101.94747 -377.14543,-108.38253 C -376.60852,-114.81758 -371.19792,-122.09957 -366.93458,-119.26944 C -363.1184,-116.73616 -370.46808,-114.08376 -371.00499,-107.64871 C -371.5419,-101.21365 -365.04458,-101.6142 -368.87991,-95.954025 L -368.87991,-95.954025 z"
             id="path7224"
             sodipodi:nodetypes="csssc" />
        </g>
        <g
           inkscape:transform-center-y="-4.5965252"
           inkscape:transform-center-x="4.713238"
           id="g7226"
           transform="matrix(0.405822,0.14285,-0.13563,0.385309,-314.451,196.904)">
          <path
             style="fill:url(#linearGradient3689);fill-opacity:1;stroke:url(#linearGradient3691);stroke-width:1.80972004;stroke-miterlimit:4;stroke-dasharray:none"
             d="M -358.95108,-128.09912 C -369.64384,-128.00672 -381.1008,-122.74727 -384.26189,-112.08787 C -387.48002,-101.23611 -383.23523,-80.294701 -365.47357,-74.182875 C -354.39923,-69.871589 -343.50084,-63.508646 -338.29131,-52.342971 C -330.81743,-63.934282 -323.7543,-70.33381 -310.90538,-74.048908 C -293.14372,-80.160736 -289.16687,-101.23611 -292.385,-112.08787 C -298.53063,-132.8113 -336.02314,-133.12702 -338.32622,-114.73693 C -339.44485,-123.66762 -348.85567,-128.18635 -358.95108,-128.09912 L -358.95108,-128.09912 z"
             id="path7228"
             sodipodi:nodetypes="cscccscc" />
          <path
             sodipodi:nodetypes="csssc"
             id="path7230"
             d="M -368.87991,-95.954025 C -373.97939,-96.379502 -377.68234,-101.94747 -377.14543,-108.38253 C -376.60852,-114.81758 -371.19792,-122.09957 -366.93458,-119.26944 C -363.1184,-116.73616 -370.46808,-114.08376 -371.00499,-107.64871 C -371.5419,-101.21365 -365.04458,-101.6142 -368.87991,-95.954025 L -368.87991,-95.954025 z"
             style="opacity:0.92741903;fill:#ffffff;fill-opacity:1;stroke:none;filter:url(#filter6901)" />
        </g>
        <g
           transform="matrix(0.428234,4.13948e-2,-3.93025e-2,0.406588,-308.593,203.521)"
           id="g7232">
          <path
             sodipodi:nodetypes="cscccscc"
             id="path7234"
             d="M -358.95108,-128.09912 C -369.64384,-128.00672 -381.1008,-122.74727 -384.26189,-112.08787 C -387.48002,-101.23611 -383.23523,-80.294701 -365.47357,-74.182875 C -354.39923,-69.871589 -343.50084,-63.508646 -338.29131,-52.342971 C -330.81743,-63.934282 -323.7543,-70.33381 -310.90538,-74.048908 C -293.14372,-80.160736 -289.16687,-101.23611 -292.385,-112.08787 C -298.53063,-132.8113 -336.02314,-133.12702 -338.32622,-114.73693 C -339.44485,-123.66762 -348.85567,-128.18635 -358.95108,-128.09912 L -358.95108,-128.09912 z"
             style="fill:url(#linearGradient3693);fill-opacity:1;stroke:url(#linearGradient3695);stroke-width:1.80972004;stroke-miterlimit:4;stroke-dasharray:none" />
          <path
             style="opacity:0.92741903;fill:#ffffff;fill-opacity:1;stroke:none;filter:url(#filter6901)"
             d="M -368.87991,-95.954025 C -373.97939,-96.379502 -377.68234,-101.94747 -377.14543,-108.38253 C -376.60852,-114.81758 -371.19792,-122.09957 -366.93458,-119.26944 C -363.1184,-116.73616 -370.46808,-114.08376 -371.00499,-107.64871 C -371.5419,-101.21365 -365.04458,-101.6142 -368.87991,-95.954025 L -368.87991,-95.954025 z"
             id="path7236"
             sodipodi:nodetypes="csssc" />
        </g>
        <g
           id="g7238"
           transform="matrix(0.426011,-6.01078e-2,5.70694e-2,0.404477,-300.094,210.776)">
          <path
             style="fill:url(#linearGradient3697);fill-opacity:1;stroke:url(#linearGradient3699);stroke-width:1.80972004;stroke-miterlimit:4;stroke-dasharray:none"
             d="M -358.95108,-128.09912 C -369.64384,-128.00672 -381.1008,-122.74727 -384.26189,-112.08787 C -387.48002,-101.23611 -383.23523,-80.294701 -365.47357,-74.182875 C -354.39923,-69.871589 -343.50084,-63.508646 -338.29131,-52.342971 C -330.81743,-63.934282 -323.7543,-70.33381 -310.90538,-74.048908 C -293.14372,-80.160736 -289.16687,-101.23611 -292.385,-112.08787 C -298.53063,-132.8113 -336.02314,-133.12702 -338.32622,-114.73693 C -339.44485,-123.66762 -348.85567,-128.18635 -358.95108,-128.09912 L -358.95108,-128.09912 z"
             id="path7240"
             sodipodi:nodetypes="cscccscc" />
          <path
             sodipodi:nodetypes="csssc"
             id="path7242"
             d="M -368.87991,-95.954025 C -373.97939,-96.379502 -377.68234,-101.94747 -377.14543,-108.38253 C -376.60852,-114.81758 -371.19792,-122.09957 -366.93458,-119.26944 C -363.1184,-116.73616 -370.46808,-114.08376 -371.00499,-107.64871 C -371.5419,-101.21365 -365.04458,-101.6142 -368.87991,-95.954025 L -368.87991,-95.954025 z"
             style="opacity:0.92741903;fill:#ffffff;fill-opacity:1;stroke:none;filter:url(#filter6901)" />
        </g>
        <g
           inkscape:transform-center-x="-0.27537489"
           inkscape:transform-center-y="4.3239284"
           transform="matrix(0.408237,-0.135796,0.128932,0.387602,-290.255,223.306)"
           id="g7244">
          <path
             sodipodi:nodetypes="cscccscc"
             id="path7246"
             d="M -358.95108,-128.09912 C -369.64384,-128.00672 -381.1008,-122.74727 -384.26189,-112.08787 C -387.48002,-101.23611 -383.23523,-80.294701 -365.47357,-74.182875 C -354.39923,-69.871589 -343.50084,-63.508646 -338.29131,-52.342971 C -330.81743,-63.934282 -323.7543,-70.33381 -310.90538,-74.048908 C -293.14372,-80.160736 -289.16687,-101.23611 -292.385,-112.08787 C -298.53063,-132.8113 -336.02314,-133.12702 -338.32622,-114.73693 C -339.44485,-123.66762 -348.85567,-128.18635 -358.95108,-128.09912 L -358.95108,-128.09912 z"
             style="fill:url(#linearGradient3701);fill-opacity:1;stroke:url(#linearGradient3703);stroke-width:1.80972004;stroke-miterlimit:4;stroke-dasharray:none" />
          <path
             style="opacity:0.92741903;fill:#ffffff;fill-opacity:1;stroke:none;filter:url(#filter6901)"
             d="M -368.87991,-95.954025 C -373.97939,-96.379502 -377.68234,-101.94747 -377.14543,-108.38253 C -376.60852,-114.81758 -371.19792,-122.09957 -366.93458,-119.26944 C -363.1184,-116.73616 -370.46808,-114.08376 -371.00499,-107.64871 C -371.5419,-101.21365 -365.04458,-101.6142 -368.87991,-95.954025 L -368.87991,-95.954025 z"
             id="path7248"
             sodipodi:nodetypes="csssc" />
        </g>
        <g
           id="g7250"
           transform="matrix(0.367687,-0.223392,0.2121,0.349102,-280.338,226.509)">
          <path
             style="fill:url(#linearGradient3705);fill-opacity:1;stroke:url(#linearGradient3707);stroke-width:1.80972004;stroke-miterlimit:4;stroke-dasharray:none"
             d="M -358.95108,-128.09912 C -369.64384,-128.00672 -381.1008,-122.74727 -384.26189,-112.08787 C -387.48002,-101.23611 -383.23523,-80.294701 -365.47357,-74.182875 C -354.39923,-69.871589 -343.50084,-63.508646 -338.29131,-52.342971 C -330.81743,-63.934282 -323.7543,-70.33381 -310.90538,-74.048908 C -293.14372,-80.160736 -289.16687,-101.23611 -292.385,-112.08787 C -298.53063,-132.8113 -336.02314,-133.12702 -338.32622,-114.73693 C -339.44485,-123.66762 -348.85567,-128.18635 -358.95108,-128.09912 L -358.95108,-128.09912 z"
             id="path7252"
             sodipodi:nodetypes="cscccscc" />
          <path
             sodipodi:nodetypes="csssc"
             id="path7254"
             d="M -368.87991,-95.954025 C -373.97939,-96.379502 -377.68234,-101.94747 -377.14543,-108.38253 C -376.60852,-114.81758 -371.19792,-122.09957 -366.93458,-119.26944 C -363.1184,-116.73616 -370.46808,-114.08376 -371.00499,-107.64871 C -371.5419,-101.21365 -365.04458,-101.6142 -368.87991,-95.954025 L -368.87991,-95.954025 z"
             style="opacity:0.92741903;fill:#ffffff;fill-opacity:1;stroke:none;filter:url(#filter6901)" />
        </g>
        <g
           transform="matrix(0.295436,-0.312755,0.296946,0.280503,-269.196,224.215)"
           id="g7256">
          <path
             sodipodi:nodetypes="cscccscc"
             id="path7258"
             d="M -358.95108,-128.09912 C -369.64384,-128.00672 -381.1008,-122.74727 -384.26189,-112.08787 C -387.48002,-101.23611 -383.23523,-80.294701 -365.47357,-74.182875 C -354.39923,-69.871589 -343.50084,-63.508646 -338.29131,-52.342971 C -330.81743,-63.934282 -323.7543,-70.33381 -310.90538,-74.048908 C -293.14372,-80.160736 -289.16687,-101.23611 -292.385,-112.08787 C -298.53063,-132.8113 -336.02314,-133.12702 -338.32622,-114.73693 C -339.44485,-123.66762 -348.85567,-128.18635 -358.95108,-128.09912 L -358.95108,-128.09912 z"
             style="fill:url(#linearGradient3709);fill-opacity:1;stroke:url(#linearGradient3711);stroke-width:1.80972004;stroke-miterlimit:4;stroke-dasharray:none" />
          <path
             style="opacity:0.92741903;fill:#ffffff;fill-opacity:1;stroke:none;filter:url(#filter6901)"
             d="M -368.87991,-95.954025 C -373.97939,-96.379502 -377.68234,-101.94747 -377.14543,-108.38253 C -376.60852,-114.81758 -371.19792,-122.09957 -366.93458,-119.26944 C -363.1184,-116.73616 -370.46808,-114.08376 -371.00499,-107.64871 C -371.5419,-101.21365 -365.04458,-101.6142 -368.87991,-95.954025 L -368.87991,-95.954025 z"
             id="path7260"
             sodipodi:nodetypes="csssc" />
        </g>
        <g
           id="g7262"
           transform="matrix(0.199357,-0.381254,0.361983,0.18928,-260.832,218.481)">
          <path
             style="fill:url(#linearGradient3713);fill-opacity:1;stroke:url(#linearGradient3715);stroke-width:1.80972004;stroke-miterlimit:4;stroke-dasharray:none"
             d="M -358.95108,-128.09912 C -369.64384,-128.00672 -381.1008,-122.74727 -384.26189,-112.08787 C -387.48002,-101.23611 -383.23523,-80.294701 -365.47357,-74.182875 C -354.39923,-69.871589 -343.50084,-63.508646 -338.29131,-52.342971 C -330.81743,-63.934282 -323.7543,-70.33381 -310.90538,-74.048908 C -293.14372,-80.160736 -289.16687,-101.23611 -292.385,-112.08787 C -298.53063,-132.8113 -336.02314,-133.12702 -338.32622,-114.73693 C -339.44485,-123.66762 -348.85567,-128.18635 -358.95108,-128.09912 L -358.95108,-128.09912 z"
             id="path7264"
             sodipodi:nodetypes="cscccscc" />
          <path
             sodipodi:nodetypes="csssc"
             id="path7266"
             d="M -368.87991,-95.954025 C -373.97939,-96.379502 -377.68234,-101.94747 -377.14543,-108.38253 C -376.60852,-114.81758 -371.19792,-122.09957 -366.93458,-119.26944 C -363.1184,-116.73616 -370.46808,-114.08376 -371.00499,-107.64871 C -371.5419,-101.21365 -365.04458,-101.6142 -368.87991,-95.954025 L -368.87991,-95.954025 z"
             style="opacity:0.92741903;fill:#ffffff;fill-opacity:1;stroke:none;filter:url(#filter6901)" />
        </g>
        <g
           transform="matrix(0.178113,-0.391629,0.371834,0.16911,-226.404,231.514)"
           id="g7268">
          <path
             sodipodi:nodetypes="cscccscc"
             id="path7270"
             d="M -358.95108,-128.09912 C -369.64384,-128.00672 -381.1008,-122.74727 -384.26189,-112.08787 C -387.48002,-101.23611 -383.23523,-80.294701 -365.47357,-74.182875 C -354.39923,-69.871589 -343.50084,-63.508646 -338.29131,-52.342971 C -330.81743,-63.934282 -323.7543,-70.33381 -310.90538,-74.048908 C -293.14372,-80.160736 -289.16687,-101.23611 -292.385,-112.08787 C -298.53063,-132.8113 -336.02314,-133.12702 -338.32622,-114.73693 C -339.44485,-123.66762 -348.85567,-128.18635 -358.95108,-128.09912 L -358.95108,-128.09912 z"
             style="fill:url(#linearGradient3717);fill-opacity:1;stroke:url(#linearGradient3719);stroke-width:1.80972004;stroke-miterlimit:4;stroke-dasharray:none" />
          <path
             style="opacity:0.92741903;fill:#ffffff;fill-opacity:1;stroke:none;filter:url(#filter6901)"
             d="M -368.87991,-95.954025 C -373.97939,-96.379502 -377.68234,-101.94747 -377.14543,-108.38253 C -376.60852,-114.81758 -371.19792,-122.09957 -366.93458,-119.26944 C -363.1184,-116.73616 -370.46808,-114.08376 -371.00499,-107.64871 C -371.5419,-101.21365 -365.04458,-101.6142 -368.87991,-95.954025 L -368.87991,-95.954025 z"
             id="path7272"
             sodipodi:nodetypes="csssc" />
        </g>
        <g
           id="g7274"
           transform="matrix(0.232538,-0.361972,0.343676,0.220784,-171.713,265.091)">
          <path
             style="fill:url(#linearGradient3721);fill-opacity:1;stroke:url(#linearGradient3723);stroke-width:1.80972004;stroke-miterlimit:4;stroke-dasharray:none"
             d="M -358.95108,-128.09912 C -369.64384,-128.00672 -381.1008,-122.74727 -384.26189,-112.08787 C -387.48002,-101.23611 -383.23523,-80.294701 -365.47357,-74.182875 C -354.39923,-69.871589 -343.50084,-63.508646 -338.29131,-52.342971 C -330.81743,-63.934282 -323.7543,-70.33381 -310.90538,-74.048908 C -293.14372,-80.160736 -289.16687,-101.23611 -292.385,-112.08787 C -298.53063,-132.8113 -336.02314,-133.12702 -338.32622,-114.73693 C -339.44485,-123.66762 -348.85567,-128.18635 -358.95108,-128.09912 L -358.95108,-128.09912 z"
             id="path7276"
             sodipodi:nodetypes="cscccscc" />
          <path
             sodipodi:nodetypes="csssc"
             id="path7278"
             d="M -368.87991,-95.954025 C -373.97939,-96.379502 -377.68234,-101.94747 -377.14543,-108.38253 C -376.60852,-114.81758 -371.19792,-122.09957 -366.93458,-119.26944 C -363.1184,-116.73616 -370.46808,-114.08376 -371.00499,-107.64871 C -371.5419,-101.21365 -365.04458,-101.6142 -368.87991,-95.954025 L -368.87991,-95.954025 z"
             style="opacity:0.92741903;fill:#ffffff;fill-opacity:1;stroke:none;filter:url(#filter6901)" />
        </g>
        <g
           transform="matrix(0.28238,-0.324591,0.308184,0.268107,-120.129,307.41)"
           id="g7280">
          <path
             sodipodi:nodetypes="cscccscc"
             id="path7282"
             d="M -358.95108,-128.09912 C -369.64384,-128.00672 -381.1008,-122.74727 -384.26189,-112.08787 C -387.48002,-101.23611 -383.23523,-80.294701 -365.47357,-74.182875 C -354.39923,-69.871589 -343.50084,-63.508646 -338.29131,-52.342971 C -330.81743,-63.934282 -323.7543,-70.33381 -310.90538,-74.048908 C -293.14372,-80.160736 -289.16687,-101.23611 -292.385,-112.08787 C -298.53063,-132.8113 -336.02314,-133.12702 -338.32622,-114.73693 C -339.44485,-123.66762 -348.85567,-128.18635 -358.95108,-128.09912 L -358.95108,-128.09912 z"
             style="fill:url(#linearGradient3725);fill-opacity:1;stroke:url(#linearGradient3727);stroke-width:1.80972004;stroke-miterlimit:4;stroke-dasharray:none" />
          <path
             style="opacity:0.92741903;fill:#ffffff;fill-opacity:1;stroke:none;filter:url(#filter6901)"
             d="M -368.87991,-95.954025 C -373.97939,-96.379502 -377.68234,-101.94747 -377.14543,-108.38253 C -376.60852,-114.81758 -371.19792,-122.09957 -366.93458,-119.26944 C -363.1184,-116.73616 -370.46808,-114.08376 -371.00499,-107.64871 C -371.5419,-101.21365 -365.04458,-101.6142 -368.87991,-95.954025 L -368.87991,-95.954025 z"
             id="path7284"
             sodipodi:nodetypes="csssc" />
        </g>
        <g
           id="g7286"
           transform="matrix(0.328705,-0.27758,0.26355,0.31209,-78.5683,356.785)">
          <path
             style="fill:url(#linearGradient3729);fill-opacity:1;stroke:url(#linearGradient3731);stroke-width:1.80972004;stroke-miterlimit:4;stroke-dasharray:none"
             d="M -358.95108,-128.09912 C -369.64384,-128.00672 -381.1008,-122.74727 -384.26189,-112.08787 C -387.48002,-101.23611 -383.23523,-80.294701 -365.47357,-74.182875 C -354.39923,-69.871589 -343.50084,-63.508646 -338.29131,-52.342971 C -330.81743,-63.934282 -323.7543,-70.33381 -310.90538,-74.048908 C -293.14372,-80.160736 -289.16687,-101.23611 -292.385,-112.08787 C -298.53063,-132.8113 -336.02314,-133.12702 -338.32622,-114.73693 C -339.44485,-123.66762 -348.85567,-128.18635 -358.95108,-128.09912 L -358.95108,-128.09912 z"
             id="path7288"
             sodipodi:nodetypes="cscccscc" />
          <path
             sodipodi:nodetypes="csssc"
             id="path7290"
             d="M -368.87991,-95.954025 C -373.97939,-96.379502 -377.68234,-101.94747 -377.14543,-108.38253 C -376.60852,-114.81758 -371.19792,-122.09957 -366.93458,-119.26944 C -363.1184,-116.73616 -370.46808,-114.08376 -371.00499,-107.64871 C -371.5419,-101.21365 -365.04458,-101.6142 -368.87991,-95.954025 L -368.87991,-95.954025 z"
             style="opacity:0.92741903;fill:#ffffff;fill-opacity:1;stroke:none;filter:url(#filter6901)" />
        </g>
      </g>
    </g>
  </g>
</svg>
