<?xml version="1.0" encoding="UTF-8" standalone="no"?>
<!-- Created with Sodipodi ("http://www.sodipodi.com/") -->

<svg
   xmlns:dc="http://purl.org/dc/elements/1.1/"
   xmlns:cc="http://creativecommons.org/ns#"
   xmlns:rdf="http://www.w3.org/1999/02/22-rdf-syntax-ns#"
   xmlns:svg="http://www.w3.org/2000/svg"
   xmlns="http://www.w3.org/2000/svg"
   xmlns:sodipodi="http://sodipodi.sourceforge.net/DTD/sodipodi-0.dtd"
   xmlns:inkscape="http://www.inkscape.org/namespaces/inkscape"
   width="608"
   height="472"
   id="svg602"
   sodipodi:version="0.34"
   sodipodi:docname="Angelo_Gemmi_mosaic.svg"
   version="1.1"
   inkscape:version="0.47pre1 r21720"
   inkscape:output_extension="org.inkscape.output.svg.inkscape">
  <metadata
     id="metadata528">
    <rdf:RDF>
      <cc:Work
         rdf:about="">
        <dc:format>image/svg+xml</dc:format>
        <dc:type
           rdf:resource="http://purl.org/dc/dcmitype/StillImage" />
      </cc:Work>
    </rdf:RDF>
  </metadata>
  <defs
     id="defs1127">
    <inkscape:perspective
       sodipodi:type="inkscape:persp3d"
       inkscape:vp_x="0 : 200 : 1"
       inkscape:vp_y="0 : 1000 : 0"
       inkscape:vp_z="600 : 200 : 1"
       inkscape:persp3d-origin="300 : 133.33333 : 1"
       id="perspective530" />
  </defs>
  <sodipodi:namedview
     id="base"
     showgrid="false"
     inkscape:snap-page="false"
     inkscape:zoom="0.59"
     inkscape:cx="305.08475"
     inkscape:cy="208.47458"
     inkscape:window-width="1440"
     inkscape:window-height="826"
     inkscape:window-x="0"
     inkscape:window-y="25"
     inkscape:window-maximized="1"
     inkscape:current-layer="svg602" />
  <g
     id="g3336"
     transform="scale(1.0133333,1.18)">
    <path
       id="path1650"
       d="M 600,0 600,400 0,400 0,0 600,0 z"
       style="fill:#010202" />
    <path
       id="path1649"
       d="m 2,1 c 8.37,0.995 16.4,0.505 24.75,0.25 l 1,2 C 30.15,10.64 19.81,13.43 14,15 L 2,1 z"
       style="fill:#fdfefe" />
    <path
       id="path1648"
       d="m 31,1 c 5.7,0.99 11.06,0.511 16.75,0.25 0.42,2.74 0.42,5.76 0,8.5 C 41.52,12.46 26.43,11.41 31,1 z"
       style="fill:#fdfefe" />
    <path
       id="path1647"
       d="m 52,1 c 5.04,0.988 9.73,0.514 14.75,0.25 2.46,2.649 0.96,7.179 1,10.5 C 60.04,16.99 45.69,12.27 52,1 z"
       style="fill:#fdfdfd" />
    <path
       id="path1646"
       d="M 72,1 C 78.61,3.107 86.36,-0.7539 92,3 89.33,9.551 81.47,11.05 76.75,15.75 69.52,15 69.99,6.156 72,1 z"
       style="fill:#fdfdfd" />
    <path
       id="path1645"
       d="m 96,1 c 5.9,2.096 13,-1.7381 18,2 0.8,12.61 -24.57,8.06 -18,-2 z"
       style="fill:#fdfdfd" />
    <path
       id="path1644"
       d="m 117,1 c 5.7,0.99 11.1,0.511 16.8,0.25 C 138.2,8.475 129.2,14.34 124,19 117.4,14.84 112.9,8.303 117,1 z"
       style="fill:#fdfefe" />
    <path
       id="path1643"
       d="m 138,1 c 5.7,0.99 11.1,0.511 16.8,0.25 2.4,2.77 2.1,5.827 2,9.5 C 150.3,15.38 133.7,10.47 138,1 z"
       style="fill:#fdfdfd" />
    <path
       id="path1642"
       d="m 160,1 c 6.4,0.992 12.4,0.509 18.8,0.25 0.4,2.74 0.4,5.76 0,8.5 C 170.5,17.87 154.4,13.7 160,1 z"
       style="fill:#fdfdfd" />
    <path
       id="path1641"
       d="m 183,1 c 5.7,0.99 11.1,0.511 16.8,0.25 0.4,2.075 0.4,4.425 0,6.5 -5.9,0.669 -11.1,1.913 -17.5,1 C 181.9,6.214 181.5,3.178 183,1 z"
       style="fill:#fdfefe" />
    <path
       id="path1640"
       d="m 204,1 c 5.1,2.78 14.5,-3.485 16,4 l -9,8 C 205.4,12.78 200.3,6.42 204,1 z"
       style="fill:#fdfdfd" />
    <path
       id="path1639"
       d="m 224,1 c 6.4,0.992 12.4,0.509 18.8,0.25 l -3,11.5 -16.5,-8 C 222.4,3.356 223.5,2.167 224,1 z"
       style="fill:#fdfdfd" />
    <path
       id="path1638"
       d="m 248,1 14.8,1.25 c 4.9,6.854 -2.9,11.66 -6,17.5 l -14.5,-6 C 243.9,9.539 244.8,3.914 248,1 z"
       style="fill:#fdfdfd" />
    <path
       id="path1637"
       d="m 266,1 c 6.6,2.107 14.4,-1.7539 20,2 0,7.86 -7.6,7.81 -13,5 -4.4,0.967 -8,-2.631 -7,-7 z"
       style="fill:#fdfdfd" />
    <path
       id="path1636"
       d="m 289,1 c 7.7,0.995 15.1,0.506 22.8,0.25 L 312,8 c -3.9,3.97 -8.7,8.24 -14,10 -6.6,-3.82 -14,-8.724 -9,-17 z"
       style="fill:#fdfdfd" />
    <path
       id="path1635"
       d="m 316,1 c 6.9,2.846 17.7,-4.519 19.8,6.75 -4.2,2.59 -8,6.26 -12.8,7.25 -5.1,-2.44 -10.9,-7.959 -7,-14 z"
       style="fill:#fdfdfd" />
    <path
       id="path1634"
       d="m 337,1 c 5.7,0.99 11.1,0.511 16.8,0.25 1.3,0.806 1.3,2.352 1.2,3.75 -5.4,2.78 -19,7.65 -18,-4 z"
       style="fill:#fdfdfd" />
    <path
       id="path1633"
       d="m 359,1 c 5.6,1.795 18.9,-3.263 13.8,8.75 l -8.5,4 C 361.3,10.2 355.7,5.98 359,1 z"
       style="fill:#fcfdfd" />
    <path
       id="path1632"
       d="m 377,1 c 6.4,0.992 12.4,0.509 18.8,0.25 2,1.258 1,3.813 1.2,5.75 -4.6,8.43 -14,4.84 -20.7,1.75 L 377,1 z"
       style="fill:#fdfdfd" />
    <path
       id="path1631"
       d="m 401,1 c 7,0.994 13.7,0.507 20.8,0.25 0.4,2.408 0.4,5.092 0,7.5 C 415,12.95 396.1,13.54 401,1 z"
       style="fill:#fdfdfd" />
    <path
       id="path1630"
       d="m 426,1 17.8,1.25 c 0.3,5.987 -4.9,9.04 -9,12.5 C 428.6,12.91 421.6,8.244 426,1 z"
       style="fill:#fdfdfd" />
    <path
       id="path1629"
       d="m 447,1 c 6.4,0.992 12.4,0.509 18.8,0.25 l 2,5.5 -11,8 -11.5,-6 L 447,1 z"
       style="fill:#fdfdfd" />
    <path
       id="path1628"
       d="m 471,1 c 5.3,2.257 16.6,-3.822 13.8,7.75 C 479.3,13.86 466.3,6.787 471,1 z"
       style="fill:#fdfdfd" />
    <path
       id="path1627"
       d="m 489,1 c 5,0.988 9.7,0.514 14.8,0.25 3.3,4.716 -1.5,9.39 -4,12.5 C 494.1,11.9 484,8.972 489,1 z"
       style="fill:#fdfefe" />
    <path
       id="path1626"
       d="m 508,1 c 7.7,2.063 15.8,-1.6918 23,2 -2.9,3.628 -7.2,6.321 -11,9 L 507.3,7.75 508,1 z"
       style="fill:#fdfdfd" />
    <path
       id="path1625"
       d="m 535,1 c 6.7,2.729 20.5,-4.92 18.8,8.75 l -9.5,4 c -4.3,-3.37 -7.7,-6.794 -11,-11 L 535,1 z"
       style="fill:#fdfdfd" />
    <path
       id="path1624"
       d="m 557,1 c 5,0.988 9.7,0.514 14.8,0.25 3,2.745 -1.1,6.266 -1,9.5 C 565,15.97 552,9.021 557,1 z"
       style="fill:#fdfdfd" />
    <path
       id="path1623"
       d="m 578,1 c 6.4,0.992 12.4,0.509 18.8,0.25 3.2,3.689 1.7,8.094 1,12.5 L 586,18 573.3,11.75 578,1 z"
       style="fill:#fdfefe" />
    <path
       id="path1622"
       d="M 2,7 13,18 C 14.22,25.37 8.286,32.08 1.25,33.75 L 2,7 z"
       style="fill:#fcfcfc" />
    <path
       id="path1621"
       d="m 222,7 15,9 c -3.6,7.7 -7.4,15.85 -17,16 -14.2,-2.9 -7.7,-20.53 2,-25 z"
       style="fill:#fdfefe" />
    <path
       id="path1620"
       d="m 531,7 c 5,0.653 7.2,6.29 11,9 -0.9,7.83 -2.1,16.59 -12,16 -1.4,-1.16 -3.1,-0.87 -4.7,-1.25 L 522,15 531,7 z"
       style="fill:#fdfdfd" />
    <path
       id="path1619"
       d="m 92,8 c 4.98,1.924 10.5,6.17 7,12 0.24,5.51 0.13,10.9 -6.25,11.75 -6.27,-2.77 -14.07,-5.67 -14.5,-13.5 L 92,8 z"
       style="fill:#fdfefe" />
    <path
       id="path1618"
       d="m 355,8 c 9.4,5.34 10,21.55 -0.7,24.75 l -12,-5 c 0.2,-5.43 0.4,-11.35 2,-16.5 3.6,-0.66 7.8,-1.68 10.7,-3.25 z"
       style="fill:#fdfefe" />
    <path
       id="path1617"
       d="m 469,9 c 13.1,4.26 5.6,22.67 -5,26 -5.4,-3.83 -3.8,-12.22 -5.7,-17.75 L 469,9 z"
       style="fill:#fdfdfd" />
    <path
       id="path1616"
       d="m 267,10 11.8,2.25 c -2.8,8.1 -5.5,18.64 -12,24.5 -6.3,-1.93 -6.6,-8.7 -8.8,-13.75 l 9,-13 z"
       style="fill:#fdfdfd" />
    <path
       id="path1615"
       d="m 337,10 3.8,1.25 c -0.3,5.35 -0.5,10.89 -2,16.5 -3.1,0.57 -6,0.97 -8.8,2.25 L 325.3,18.25 337,10 z"
       style="fill:#fdfdfd" />
    <path
       id="path1614"
       d="m 398,10 c 9.7,1.73 9.6,11.4 11,19 l -11,11 c -4.3,-2.62 -7.4,-5.74 -10,-10 2.5,-7.22 2.3,-15.93 10,-20 z"
       style="fill:#fdfdfd" />
    <path
       id="path1613"
       d="m 29,11 c 10.94,1.66 4.33,16.76 5.75,24.75 L 32,37 15.25,26.75 C 12.11,17.07 23.17,15.25 29,11 z"
       style="fill:#fdfdfd" />
    <path
       id="path1612"
       d="m 137,11 10.8,4.25 c -0.9,5.77 -2,11.83 -4,17.5 L 134,36 124.3,31.75 C 121.9,22.7 131,16.48 137,11 z"
       style="fill:#fdfefe" />
    <path
       id="path1611"
       d="m 186,11 3.8,0.75 c 10.5,-4.246 23.7,3.68 19,16 l -12.5,6 -13,-21.5 L 186,11 z"
       style="fill:#fdfefe" />
    <path
       id="path1610"
       d="m 443,11 c 11.6,2.22 16.5,13.91 14.8,23.75 L 451,36 445,38 C 438.2,32.94 430.2,19.2 440.8,13.75 L 443,11 z"
       style="fill:#fdfefe" />
    <path
       id="path1609"
       d="m 485,11 12.8,5.25 C 499,22.93 498.7,29.69 491,31 l -13.7,-4.25 c 0.5,-6.41 0,-14.88 7.7,-15.75 z"
       style="fill:#fdfefe" />
    <path
       id="path1608"
       d="m 506,11 12.8,3.25 c 1.1,5.17 3.6,11.91 2,16.5 L 515,32 c -13,8.09 -19.9,-16.13 -9,-21 z"
       style="fill:#fdfefe" />
    <path
       id="path1607"
       d="m 110,12 c 8.4,1.02 17.5,15.91 8,21 L 101.3,28.75 C 102.7,23.32 99.15,11.34 109,13 l 1,-1 z"
       style="fill:#fdfefe" />
    <path
       id="path1606"
       d="m 283,12 c 9.5,2.74 17.5,11.4 14.8,21.75 -7.6,2.57 -16.5,0.88 -24.5,1 L 283,12 z"
       style="fill:#fdfefe" />
    <path
       id="path1605"
       d="m 312,12 c 8.2,1.22 12.1,9.67 13.8,16.75 L 309,36 c -7.9,-1.54 -10.2,-7.16 -8.7,-14.75 L 312,12 z"
       style="fill:#fdfefe" />
    <path
       id="path1604"
       d="m 373,12 c 5.4,0.67 11,1.61 15.8,4.25 l -3,13.5 c -7.4,2.9 -14.8,4.15 -21.5,-1 -0.9,-4.78 0.5,-8.11 1,-12.5 2.5,-1.32 5.8,-2.25 7.7,-4.25 z"
       style="fill:#fdfefe" />
    <path
       id="path1603"
       d="m 421,12 c 7.6,0.81 15.1,5.94 11.8,14.75 L 421,32 c -2.8,-1.55 -5.6,-2.58 -8.7,-3.25 -1.8,-4.3 -2.1,-9.2 -3,-13.5 3.1,-2.7 8.8,-0.99 11.7,-3.25 z"
       style="fill:#fdfefe" />
    <path
       id="path1602"
       d="m 554,12 10.8,3.25 c -0.7,8.59 -1.2,19.33 -12,20.5 -3.7,-1.46 -7.2,-3.88 -10.5,-6 0.9,-4.3 1.2,-9.2 3,-13.5 L 554,12 z"
       style="fill:#fdfefe" />
    <path
       id="path1601"
       d="m 40,13 c 4.45,0.61 11.91,-1.37 15,4 -3.57,6.19 -2.42,14.28 -7.25,19.75 -2.94,-0.56 -6.94,-0.02 -9.5,-2 C 38.78,27.85 35.81,18.08 40,13 z"
       style="fill:#fdfdfd" />
    <path
       id="path1600"
       d="m 177,13 3.8,0.25 12,21.5 L 187,36 c -6.9,4.39 -12.5,-1.75 -17.7,-6.25 -0.5,-4.07 -0.5,-8.43 0,-12.5 2.5,-1.32 5.8,-2.25 7.7,-4.25 z"
       style="fill:#fdfdfd" />
    <path
       id="path1599"
       d="m 156,14 9.8,3.25 c 2,8.24 -0.5,15.6 -8,19.5 l -10.5,-4 C 149.4,26.41 147.5,14.59 156,14 z"
       style="fill:#fdfefe" />
    <path
       id="path1598"
       d="m 570,14 13.8,6.25 c -0.1,6.38 -1.3,13.72 -6.8,17.75 -4.2,-1.15 -7.9,-4.14 -11.7,-6.25 1.1,-5.19 0.1,-13.72 4.7,-17.75 z"
       style="fill:#fdfefe" />
    <path
       id="path1597"
       d="m 65,15 c 7.22,-1.13 11.96,4.73 13,11 -3.88,5.35 -7.65,11.26 -12,16 l -13.75,-6.25 5,-18.5 C 59.4,15.12 63.41,17.15 65,15 z"
       style="fill:#fdfefe" />
    <path
       id="path1596"
       d="m 240,16 c 8.4,4.04 18.4,7.07 18.8,17.75 l -14.5,6 C 240.4,36.81 235.8,34.15 233,30 l 7,-14 z"
       style="fill:#fdfefe" />
    <path
       id="path1595"
       d="m 595,17 3.8,0.25 -1,16.5 -12.5,-3 C 584.6,23.6 588.1,18.18 595,17 z"
       style="fill:#fcfdfd" />
    <path
       id="path1594"
       d="M 13,29 29.75,39.25 C 27.19,45.37 27.16,54.24 19,56 L 2.25,50.75 C -2.044,41.77 5.047,34.79 13,29 z"
       style="fill:#fdfdfd" />
    <path
       id="path1593"
       d="m 79,29 c 4.31,0.3 8.14,3.07 11.75,5.25 0.42,6.41 0.42,13.09 0,19.5 C 86.59,55.97 81.58,56.67 77,58 70.96,56.3 70.2,49.76 68,45 L 79,29 z"
       style="fill:#fdfefe" />
    <path
       id="path1592"
       d="m 210,30 c 10.3,1.84 9.7,12.84 10.8,20.75 l -12.5,6 c -10.3,-2 -9.9,-12.07 -10,-20.5 L 210,30 z"
       style="fill:#fdfdfd" />
    <path
       id="path1591"
       d="m 339,30 13.8,5.25 c -2,7.01 -1,16.62 -8.8,20.75 l -10.7,-1.25 c -1.5,-7.17 -1.9,-15.01 -2,-22.5 2.5,-0.66 6,-0.61 7.7,-2.25 z"
       style="fill:#fdfefe" />
    <path
       id="path1590"
       d="m 431,30 c 6.1,-0.92 7.7,6.5 11,10 -3.6,5.63 -3.5,12.82 -8.2,17.75 l -12.5,-6 c 0.1,-5.66 0.7,-11.49 2,-17.5 2.5,-1.32 5.8,-2.25 7.7,-4.25 z"
       style="fill:#fdfdfd" />
    <path
       id="path1589"
       d="m 475,30 13.8,3.25 -4,17.5 c -10.3,3.21 -17.3,-4.46 -18.5,-13.5 L 475,30 z"
       style="fill:#fdfefe" />
    <path
       id="path1588"
       d="m 499,30 c 9,4.24 7.3,14.47 6.8,22.75 l -8.5,5 -10,-6 C 490.5,44.05 489.6,32.92 499,30 z"
       style="fill:#fdfdfd" />
    <path
       id="path1587"
       d="m 362,31 8.8,4.25 c 1.6,6.33 2.1,13.17 3,19.5 -7.7,3.84 -14.3,-0.02 -21.5,-3 1.8,-7.32 1.5,-17.32 9.7,-20.75 z"
       style="fill:#fdfdfd" />
    <path
       id="path1586"
       d="m 411,31 8.8,3.25 c -0.6,5.28 0,11 -2,16.5 -6.1,0.54 -10.1,1.62 -16.5,1 -6.7,-9.58 5,-15.01 9.7,-20.75 z"
       style="fill:#fdfdfd" />
    <path
       id="path1585"
       d="m 98,32 17.8,3.25 -6,18.5 c -5.1,1.05 -11.11,5.39 -15.55,1 C 95.18,47.37 90.48,35.66 98,32 z"
       style="fill:#fdfefe" />
    <path
       id="path1584"
       d="m 229,32 c 4.8,2.44 9.5,6.6 13,11 -2.8,5.13 -1.7,12.72 -9,14 -9.8,-3.26 -11.1,-13.12 -11.7,-21.75 1.7,-2.91 6,-1.26 7.7,-3.25 z"
       style="fill:#fdfefe" />
    <path
       id="path1583"
       d="m 326,32 1.8,0.25 c 1.4,7.17 1.8,15.01 2,22.5 L 324,58 C 314.6,56.85 315.5,44.72 311.3,38.25 L 326,32 z"
       style="fill:#fdfefe" />
    <path
       id="path1582"
       d="m 539,32 c 4.4,0.9 7.9,4.08 11.8,6.25 0.4,4.74 0.4,9.76 0,14.5 L 541,58 531.3,53.75 c -0.8,-7.54 0.5,-12.5 1,-19.5 L 539,32 z"
       style="fill:#fdfefe" />
    <path
       id="path1581"
       d="m 166,33 c 4.6,0.5 8.3,4.17 11.8,7.25 -2.4,4.6 -1.7,11.3 -5.8,14.75 L 160.3,49.75 C 157.2,43.22 159.9,36.9 166,33 z"
       style="fill:#fefefe" />
    <path
       id="path1580"
       d="m 384,33 c 6.9,2.92 13.6,9.75 13.8,18.75 l -9,8 -11.5,-5 c -2.1,-5.9 -2.1,-12.53 -3,-18.5 2.5,-2.6 7.4,-1.08 9.7,-3.25 z"
       style="fill:#fefefe" />
    <path
       id="path1579"
       d="m 521,33 7.8,1.25 c 0.9,7.1 -0.5,12.9 -1,19.5 L 521,57 509.3,52.75 c -0.5,-5.41 -0.5,-11.09 0,-16.5 3.9,-0.91 8.6,-1.39 11.7,-3.25 z"
       style="fill:#fdfefe" />
    <path
       id="path1578"
       d="m 122,34 c 11.6,1.35 13.9,13.19 14.8,22.75 -8.6,-0.48 -18.8,7.6 -24.5,-2 3.6,-6.58 3.8,-15.91 9.7,-20.75 z"
       style="fill:#fdfefe" />
    <path
       id="path1577"
       d="m 562,34 c 9.5,2.35 16.9,8.87 17,19 l -11.2,6.75 -13.5,-7 c -0.5,-4.74 -0.5,-9.76 0,-14.5 2.5,-1.32 5.8,-2.25 7.7,-4.25 z"
       style="fill:#fdfefe" />
    <path
       id="path1576"
       d="m 584,34 c 5,1 10,1.43 14.8,3.25 l -1,15.5 c -5.3,1.1 -12,4.18 -16.5,0 C 580,45.8 577.5,39.12 584,34 z"
       style="fill:#fdfdfd" />
    <path
       id="path1575"
       d="m 144,35 c 4.2,0.34 7.8,2.77 11.8,4.25 l 1,10.5 c -4.3,3.33 -8.9,6.42 -13.5,9 -5.7,-5.36 -5.3,-13.82 -8,-20.5 2.9,-0.94 6.6,-1.45 8.7,-3.25 z"
       style="fill:#fdfdfd" />
    <path
       id="path1574"
       d="m 300,35 c 10.5,1.72 12.8,13.21 14.8,21.75 -3.8,2.37 -8.4,3.52 -12.5,5 l -8,-7 C 296,48.48 295.7,39.78 300,35 z"
       style="fill:#fdfefe" />
    <path
       id="path1573"
       d="m 259,36 c 7.5,0.84 6.9,9.2 6.8,14.75 -5.1,5.09 -11,11.92 -17.8,6.25 l -6.7,-2.25 4,-12.5 c 4.5,-2.02 9.9,-3.47 13.7,-6.25 z"
       style="fill:#fdfefe" />
    <path
       id="path1572"
       d="m 193,37 c 5.2,1.87 2.6,10.93 3.8,15.75 -5.1,5.98 -13,1.8 -19.5,1 0.2,-4.55 1.6,-9.51 4,-13.5 3.9,-0.91 8.6,-1.39 11.7,-3.25 z"
       style="fill:#fdfefe" />
    <path
       id="path1571"
       d="m 458,37 c 7.8,-1.96 7,7.51 9.8,11.75 l -12,13 -16.5,-5 c 0.5,-5.67 3,-11.49 6,-16.5 L 458,37 z"
       style="fill:#fdfefe" />
    <path
       id="path1570"
       d="m 35,38 c 3.71,0.19 7.7,0.33 10.75,2.25 0.42,4.74 0.42,9.76 0,14.5 l -9,4 C 34,56.84 30.72,55.3 28.25,52.75 30.58,47.99 30.39,41.04 35,38 z"
       style="fill:#fdfefe" />
    <path
       id="path1569"
       d="m 50,38 c 7.15,4.23 19.09,6.19 17.75,16.75 -6.1,4.34 -13.08,6.52 -18.5,0 C 49.23,49.32 47.97,43.03 50,38 z"
       style="fill:#fdfdfd" />
    <path
       id="path1568"
       d="m 270,38 24.8,0.25 c -1.3,5.3 -1.9,11.2 -4,16.5 C 287,55.76 283.5,57.31 280,59 271.9,55.12 264,45.65 270,38 z"
       style="fill:#fdfefe" />
    <path
       id="path1567"
       d="m 470,51 4.8,2.25 c -0.4,9.9 0.7,22.24 -11.5,25.5 l -5,-14.5 L 470,51 z"
       style="fill:#fdfdfd" />
    <path
       id="path1566"
       d="m 158,52 11.8,5.25 c 0.4,4.74 0.4,9.76 0,14.5 -7.9,-0.08 -16.5,5.12 -23.5,-2 C 140.5,60.08 153,57.23 158,52 z"
       style="fill:#fefefe" />
    <path
       id="path1565"
       d="m 222,53 8.8,6.25 c -0.3,4.08 -0.4,8.58 -2,12.5 -4.2,2.71 -9.2,3.71 -13.5,3 -5.5,-2.62 -3.6,-10.61 -5,-15.5 L 222,53 z"
       style="fill:#fdfefe" />
    <path
       id="path1564"
       d="m 1,54 16.75,4.25 c 0.42,5.07 0.42,10.43 0,15.5 l -16.5,5 C 1.505,70.4 1.995,62.37 1,54 z"
       style="fill:#fdfdfd" />
    <path
       id="path1563"
       d="m 266,54 c 5,-0.17 7.9,4.83 11.8,7.25 l -1,13.5 L 263,79 c -9.2,-1.77 -8.5,-18.25 -0.2,-21.25 L 266,54 z"
       style="fill:#fdfefe" />
    <path
       id="path1562"
       d="m 350,54 13.8,5.25 c -1,6.48 0.9,14.44 -3,20.5 l -10.5,0 L 346,59 l 4,-5 z"
       style="fill:#fdfdfd" />
    <path
       id="path1561"
       d="m 405,54 c 8.5,-0.55 18.7,0.36 26.8,6.25 -1.5,5.29 -1.7,11.73 -5,16.5 -3.1,1.84 -7.1,1.37 -10.5,1 L 402,56 c 0,-1.99 3,-0.01 3,-2 z"
       style="fill:#fdfefe" />
    <path
       id="path1560"
       d="m 478,54 c 7,-1.42 12.4,2.79 17.8,6.25 0.8,5.1 -0.5,8.89 -1,13.5 -6.4,0.09 -12.2,-0.45 -18.5,-2 0.2,-5.77 0.8,-12.14 1.7,-17.75 z"
       style="fill:#fdfefe" />
    <path
       id="path1559"
       d="m 26,55 c 8.95,3.34 11.84,12.38 12.75,20.75 l -9,5 C 19.63,77.23 16.6,59.85 26,55 z"
       style="fill:#fdfdfd" />
    <path
       id="path1558"
       d="m 198,55 c 10.3,1.81 10.9,11.38 11.8,19.75 L 202,80 191.3,75.75 c 2.3,-6.81 1,-15.24 6.7,-20.75 z"
       style="fill:#fdfdfd" />
    <path
       id="path1557"
       d="m 507,55 12.8,4.25 c 0.8,4.78 -0.6,8.11 -1,12.5 l -14.5,7 C 493.6,73.59 497.4,58.29 507,55 z"
       style="fill:#fdfdfd" />
    <path
       id="path1556"
       d="m 552,55 14,8 c -2.4,6.48 -3.4,14.17 -11,17 l -11.7,-4.25 c -0.5,-5.07 -0.5,-10.43 0,-15.5 L 552,55 z"
       style="fill:#fdfefe" />
    <path
       id="path1555"
       d="m 397,56 16,22 c -3.5,3.49 -9.1,6.07 -14,7 -3.5,-4.88 -7,-10.54 -10,-16 -1,-6.06 4.3,-9.6 8,-13 z"
       style="fill:#fdfdfd" />
    <path
       id="path1554"
       d="m 529,56 10.8,4.25 c 0,7.15 2.8,17.08 -6,19.5 l -11.5,-8 C 521.8,65.13 522.1,58.38 529,56 z"
       style="fill:#fdfdfd" />
    <path
       id="path1553"
       d="m 580,56 c 6.4,3.44 3.9,13.56 5.8,19.75 L 574,80 565.3,74.75 C 565.7,65.3 571.6,59.24 580,56 z"
       style="fill:#fdfefe" />
    <path
       id="path1552"
       d="m 594,56 c 1.6,1.78 3.4,-1.3 4.8,1.25 l -1,27.5 c -8.7,-5.28 -11.1,-15.81 -11.5,-26.5 1.6,-2.96 6.3,0.41 7.7,-2.25 z"
       style="fill:#fcfdfd" />
    <path
       id="path1551"
       d="m 46,57 c 2.99,0.62 5.8,3.24 8,5 -1.01,4.86 -3.24,10.14 -6,14 C 38.89,77.6 40.14,66.96 38.25,61.25 40.84,59.93 44.15,59 46,57 z"
       style="fill:#fdfdfd" />
    <path
       id="path1550"
       d="m 69,57 c 9.23,1.46 5.21,11.71 4.75,17.75 -5.68,3.98 -11.34,9.75 -18,4.5 l -4.5,-1.5 C 53.46,67.79 59.25,59.86 69,57 z"
       style="fill:#fdfefe" />
    <path
       id="path1549"
       d="m 90,57 c 7.56,-0.33 7.14,7.47 7,13 3.6,5.86 -3.18,11.6 -9,13 -3.7,-2.55 -7.52,-4.93 -10.75,-8.25 l 1,-14.5 C 82.18,59.34 86.88,58.86 90,57 z"
       style="fill:#fdfefe" />
    <path
       id="path1548"
       d="m 108,57 c 5.3,0.4 10,6.65 9,12 2.6,5.15 2.4,11.41 -3.2,13.75 l -12.5,-6 C 99.5,71.29 99.86,65.31 99.25,60.25 L 108,57 z"
       style="fill:#fdfdfd" />
    <path
       id="path1547"
       d="m 173,57 c 6.3,0.57 12.8,0.33 18.8,2.25 l -4,17.5 C 175.9,83.23 170.3,66.79 173,57 z"
       style="fill:#fdfdfd" />
    <path
       id="path1546"
       d="m 238,57 15.8,5.25 c 0.4,4.41 0.4,9.09 0,13.5 l -10.5,4 -11,-8 C 233,66.5 232.2,59.12 238,57 z"
       style="fill:#fdfdfd" />
    <path
       id="path1545"
       d="m 291,57 c 2.5,-0.3 3.5,2.51 5.3,3.75 11.1,5.63 1.2,20.07 -8.3,20.25 -9.2,-3.2 -8.6,-12.36 -6.7,-19.75 L 291,57 z"
       style="fill:#fdfdfd" />
    <path
       id="path1544"
       d="m 331,57 c 1.8,-0.14 3.6,-0.08 5,1 12.2,-1.85 7.8,14.75 10.8,21.75 -7.1,4.46 -13.8,2.12 -20.5,-2 0.4,-7.03 -3.5,-17.91 4.7,-20.75 z"
       style="fill:#fdfefe" />
    <path
       id="path1543"
       d="m 374,57 c 4.6,1.5 13.5,2.99 13,9 -4,7.09 -12.8,9.98 -19,15 -6.3,-1.69 -0.7,-8.58 -2,-13 -0.8,-6.36 2.1,-10.03 8,-11 z"
       style="fill:#fdfdfd" />
    <path
       id="path1542"
       d="m 136,59 c 15.2,1 1.9,24.53 -9.2,18.25 l -4.5,-0.5 -3,-13.5 C 124.1,60.29 131.4,61.72 136,59 z"
       style="fill:#fdfdfd" />
    <path
       id="path1541"
       d="m 316,59 6.8,1.25 c -0.4,7.52 3.5,18.69 -5.8,21.75 l -13.7,-7.25 1,-10.5 L 316,59 z"
       style="fill:#fdfefe" />
    <path
       id="path1540"
       d="m 436,59 18.8,5.25 c 2.3,5.09 4.9,10.78 5,16.5 L 446,83 431.3,75.75 c 1.2,-5.44 2,-11.54 4.7,-16.75 z"
       style="fill:#fdfefe" />
    <path
       id="path1539"
       d="m 144,72 c 11.8,2.36 9.2,16.48 10.8,24.75 -5.1,2.87 -10.1,-2.17 -15.5,-2 L 136,81 l 8,-9 z"
       style="fill:#fdfefe" />
    <path
       id="path1538"
       d="m 386,72 1.8,0.25 c 3.8,7.95 13.1,15.85 6,24.5 l -16.5,-1 C 374.7,91.81 372.3,87.44 371,83 l 15,-11 z"
       style="fill:#fdfefe" />
    <path
       id="path1537"
       d="m 168,74 c 5.1,-0.82 8,4.87 11,8 -2.2,6.75 -2.3,15.37 -11,17 l -10.7,-4.25 -2,-17.5 c 3.4,-2.66 9.5,-0.86 12.7,-3.25 z"
       style="fill:#fdfefe" />
    <path
       id="path1536"
       d="m 230,74 12,9 c 0.4,8.53 -7.4,13.69 -15,15 -4.1,-5.71 -2.6,-13.06 -2.7,-20.75 1.9,-0.98 4.5,-1.59 5.7,-3.25 z"
       style="fill:#fdfefe" />
    <path
       id="path1535"
       d="m 520,74 12,9 -3.2,11.75 L 519,98 C 510.4,96.04 507.2,89.04 506.3,81.25 L 520,74 z"
       style="fill:#fdfefe" />
    <path
       id="path1534"
       d="m 474,75 16.8,2.25 c -3.5,7 -7.2,14.67 -11.8,20.75 -7.3,-1.48 -12.9,-8.84 -14.7,-15.75 L 474,75 z"
       style="fill:#fdfdfd" />
    <path
       id="path1533"
       d="m 18,76 c 6.16,2.17 13.17,8.63 8.75,15.75 -4.13,4.22 -8.97,7.61 -13.5,11.05 l -11,-5.05 C 1.126,92.29 0.9921,87.64 2.25,82.25 L 18,76 z"
       style="fill:#fdfefe" />
    <path
       id="path1532"
       d="m 495,76 c 8.2,2.11 10.3,10.66 11.8,17.75 l -13,10.05 c -3.6,-1.5 -8.5,-2.5 -10.8,-5.8 l 12,-22 z"
       style="fill:#fdfdfd" />
    <path
       id="path1531"
       d="m 75,77 11.75,9.25 C 86.69,91.35 88.28,97.89 83,100 L 67.25,93.75 C 61.63,85.61 68.74,80.72 75,77 z"
       style="fill:#fdfefe" />
    <path
       id="path1530"
       d="m 211,77 c 3.8,0 6.7,0.05 9.8,1.25 0.6,6.68 1.7,12.03 1,19.5 -1.4,0.16 -2.2,1.08 -3,2 C 207.5,98.23 197.8,82.36 211,77 z"
       style="fill:#fdfdfd" />
    <path
       id="path1529"
       d="m 277,77 c 9,2.74 12,11.78 9.8,20.75 -6.7,5.35 -13.2,3.25 -20.5,1 -1.7,-5.89 -1.7,-11.91 -2,-17.5 L 277,77 z"
       style="fill:#fdfefe" />
    <path
       id="path1528"
       d="m 301,77 13.8,8.25 -2,10.5 C 307,97.89 301,98.98 295,100 287.3,98.73 290.4,89.95 290.3,84.25 L 301,77 z"
       style="fill:#fdfefe" />
    <path
       id="path1527"
       d="m 563,77 c 10.6,2.5 11.6,13.13 13.8,21.75 l -9,4.05 C 556.1,99.97 552.5,83.43 563,77 z"
       style="fill:#fdfefe" />
    <path
       id="path1526"
       d="m 40,78 c 2.95,0.18 5.78,-0.17 7.75,1.25 -1.73,6.83 -0.36,16.72 -6,21.55 L 30,91 C 28.6,83.54 34.98,80.89 40,78 z"
       style="fill:#fcfdfd" />
    <path
       id="path1525"
       d="m 254,78 c 10.4,1.09 7.7,13.83 8.8,20.75 L 254.3,102.8 243,91 c -0.4,-7.62 5.2,-10.55 11,-13 z"
       style="fill:#fdfdfd" />
    <path
       id="path1524"
       d="m 429,78 14.8,7.25 c -1.6,8.2 1,20.95 -10,22.55 -10.7,-5.2 -7.7,-17.76 -7.5,-27.55 L 429,78 z"
       style="fill:#fdfdfd" />
    <path
       id="path1523"
       d="m 541,78 12.8,4.25 1,14.5 c -5.2,1.21 -9.9,3.35 -14.8,5.25 l -9,-7 c 2.4,-6.48 2.7,-14.13 10,-17 z"
       style="fill:#fdfefe" />
    <path
       id="path1522"
       d="m 586,78 c 5.1,4.01 11.7,8.41 12.8,14.75 -4.4,5.82 -13.2,7.45 -19.5,5 l -4,-14.5 c 2.5,-3.6 8,-2.62 10.7,-5.25 z"
       style="fill:#fdfdfd" />
    <path
       id="path1521"
       d="m 99,79 13.8,6.25 c 0.8,5.1 -0.5,8.89 -1,13.5 L 99.75,103.8 89.25,98.75 C 87.2,89.83 91.89,83.62 99,79 z"
       style="fill:#fdfefe" />
    <path
       id="path1520"
       d="M 188,79 200.8,82.25 204,93 c -3.4,4.96 -8.7,8.1 -13,12 -4.9,-1.9 -9.5,-5.95 -13,-10 2.3,-6.43 1.8,-15.09 10,-16 z"
       style="fill:#fdfdfd" />
    <path
       id="path1519"
       d="m 120,80 c 5.2,0.23 9.7,-0.54 13.8,2.25 L 136,94 l -11.2,9.8 -9.5,-5.05 C 114.7,91.52 115.6,84.7 120,80 z"
       style="fill:#fdfefe" />
    <path
       id="path1518"
       d="m 324,80 11.8,5.25 c -0.9,4.96 -0.9,10.9 -3,15.55 -6.4,-0.2 -15.6,2.7 -17.8,-4.8 1.4,-6.29 2.9,-12.55 9,-16 z"
       style="fill:#fdfdfd" />
    <path
       id="path1517"
       d="m 50,81 11.75,3.25 c 3.83,6.92 1.48,13.11 -5,17.55 -2.98,-0.8 -6.78,-1.3 -9.5,-3.05 L 50,81 z"
       style="fill:#fcfdfd" />
    <path
       id="path1516"
       d="m 414,81 8.8,0.25 c 0.4,5.74 0.4,11.76 0,17.5 -8.6,2.75 -18.4,5.25 -25.5,-2 C 396.7,86.76 408,85.76 414,81 z"
       style="fill:#fdfefe" />
    <path
       id="path1515"
       d="m 347,82 c 1.9,-0.52 3.1,0.78 4.8,1.25 0.4,5.74 0.4,11.76 0,17.55 -3.7,2.1 -7.5,4.9 -11.8,5.2 -6.9,-4.3 -1.9,-13.99 -0.7,-20.75 2.6,-0.63 5.8,-1.84 7.7,-3.25 z"
       style="fill:#fdfdfd" />
    <path
       id="path1514"
       d="m 361,82 c 9,-0.85 10.2,10.1 13.8,15.75 L 367,106 355.3,100.8 C 355.6,94.07 351.7,82.05 361,82 z"
       style="fill:#fdfdfd" />
    <path
       id="path1513"
       d="m 459,83 c 4.6,-0.84 3.7,5.28 5.8,7.75 -6.3,4.85 -11.4,15.35 -19.5,14.05 -2,-5.11 0.8,-12.47 2,-18.55 3.1,-2.58 8.8,-0.74 11.7,-3.25 z"
       style="fill:#fdfdfd" />
    <path
       id="path1512"
       d="m 465,94 c 3.6,0.09 6.8,3.32 9,6 -2,7.1 -4.5,16.6 -13,18 -3.1,-3 -5.7,-7.2 -8,-11 l 12,-13 z"
       style="fill:#fdfdfd" />
    <path
       id="path1511"
       d="m 27,95 c 5.08,0.56 8.82,5.1 12.75,8.3 l -4,12.5 c -5.74,0.4 -11.76,0.4 -17.5,0 l -3,-10.5 L 27,95 z"
       style="fill:#fdfdfd" />
    <path
       id="path1510"
       d="m 239,95 c 6.3,-0.49 9.1,7 13.8,10.3 -1.2,6.5 -3.3,13.1 -10.8,14.7 -4.5,-5.5 -8.1,-13 -10,-20 l 7,-5 z"
       style="fill:#fdfdfd" />
    <path
       id="path1509"
       d="m 66,96 14,7 c -4.04,6.9 -7.52,15 -16.75,14.8 L 59,104 66,96 z"
       style="fill:#fdfdfd" />
    <path
       id="path1508"
       d="m 205,96 10.8,5.3 c 0.2,6.3 -1.2,12.5 -3,18.5 L 201,123 c -6,-2.5 -9.2,-8.6 -8.7,-14.7 L 205,96 z"
       style="fill:#fdfefe" />
    <path
       id="path1507"
       d="m 508,96 8.8,4.3 c -0.1,5.2 -0.8,10.8 -2,15.5 l -16.5,6 c -1.9,-5 -2.4,-10.5 -3,-15.5 L 508,96 z"
       style="fill:#fdfdfd" />
    <path
       id="path1506"
       d="m 137,97 c 4.6,1.29 9.8,1.46 13.8,4.3 l -4,13.5 c -7.6,2.8 -18.2,1 -20.5,-8.5 L 137,97 z"
       style="fill:#fdfdfd" />
    <path
       id="path1505"
       d="m 176,98 c 6.6,5.1 16.1,10.1 14.8,19.8 L 180,123 168.3,117.8 c 0.5,-7.1 -0.7,-17.2 7.7,-19.8 z"
       style="fill:#fdfefe" />
    <path
       id="path1504"
       d="m 527,98 c 4.2,0.25 7.5,3.8 10.8,6.3 0.4,5.7 0.4,11.7 0,17.5 l -8,5 -11.5,-11 c 0.6,-7.9 -0.7,-17.03 8.7,-17.8 z"
       style="fill:#fdfefe" />
    <path
       id="path1503"
       d="m 597,98 1.8,1.25 c -0.5,8.25 -0.5,16.25 0,24.55 -11.9,-1.2 -8.6,-14.8 -7.5,-22.5 L 597,98 z"
       style="fill:#fcfdfd" />
    <path
       id="path1502"
       d="m 156,99 c 3.7,0.64 7.7,1 10.8,3.3 -0.4,7.9 -0.1,18.2 -9.8,20.7 l -8,-7 c 2.8,-5.4 1.8,-13.4 7,-17 z"
       style="fill:#fdfdfd" />
    <path
       id="path1501"
       d="m 311,99 c 9.9,1.4 5.1,15 4.8,21.8 L 311,123 c -11.3,-0.5 -11,-11.5 -13.7,-19.7 L 311,99 z"
       style="fill:#fdfefe" />
    <path
       id="path1500"
       d="m 377,99 c 5.8,0.06 9.8,0.16 14.8,1.3 l -4,19.5 -10.5,1 c -3.2,-3.1 -6.3,-6.1 -8.3,-9.8 l 8,-12 z"
       style="fill:#fdfefe" />
    <path
       id="path1499"
       d="m 395,99 c 11.6,3.2 16.9,21.2 4,26 -13.3,-3.1 -4.8,-16.8 -4,-26 z"
       style="fill:#fdfdfd" />
    <path
       id="path1498"
       d="m 555,99 c 4.1,0.74 7.2,4.2 10.8,6.3 -1,8.2 -0.2,19.7 -10.8,21.7 l -13.7,-5.2 c -0.5,-5.8 -0.5,-11.8 0,-17.5 4.5,-1.8 9.8,-3.1 13.7,-5.3 z"
       style="fill:#fdfefe" />
    <path
       id="path1497"
       d="m 223,100 c 9.5,0.6 11.6,14.5 14.8,21.8 -7.4,6.2 -14.3,1.9 -21.5,-2 1.8,-6.4 0.3,-15.9 6.7,-19.8 z"
       style="fill:#fdfdfd" />
    <path
       id="path1496"
       d="m 288,100 c 10,1 7.6,13 10.8,19.8 -4.6,2.7 -8.6,7.3 -13.8,8.2 -6.8,-3.1 -9.8,-9.2 -6,-16 -2.3,-7.3 4.8,-9.1 9,-12 z"
       style="fill:#fdfefe" />
    <path
       id="path1495"
       d="m 2,101 c 9.22,1.2 12.96,8.7 14,17 -1.61,6.5 -8.903,8.6 -14.75,8.8 L 2,101 z"
       style="fill:#fcfdfd" />
    <path
       id="path1494"
       d="m 86,101 11.75,5.3 c 1.06,8.4 1.14,17.9 -6.75,22.7 L 76,116 c 2.51,-5.2 5.35,-11.5 10,-15 z"
       style="fill:#fdfdfd" />
    <path
       id="path1493"
       d="m 112,101 c 5.5,1.8 12.4,4.3 13.8,10.8 -3.3,4.5 -6.9,8.9 -11,13 l -13.5,-4 c -0.5,-4.8 -0.5,-9.8 0,-14.5 L 112,101 z"
       style="fill:#fdfefe" />
    <path
       id="path1492"
       d="m 264,101 c 4.3,1.2 9,1.7 12.8,4.3 -0.8,5.3 -1.2,11.2 -3,16.5 -3.2,0.6 -6,1.7 -8.8,3.2 l -12.7,-8.2 c 0.5,-7.7 4.8,-13.2 11.7,-15.8 z"
       style="fill:#fdfefe" />
    <path
       id="path1491"
       d="m 477,101 14.8,5.3 3,15.5 -9.5,4 -14,-11 c 2,-4.5 4.4,-9 5.7,-13.8 z"
       style="fill:#fdfefe" />
    <path
       id="path1490"
       d="m 577,101 c 4.1,0 7.5,-0.1 10.8,1.3 0.9,6.1 -0.5,10.8 -1,16.5 l -11,8 -9.5,-4 2,-16.5 8.7,-5.3 z"
       style="fill:#fdfefe" />
    <path
       id="path1489"
       d="m 45,102 c 3.97,0.8 8.3,1.2 11.75,3.3 l 3,13.5 -5.5,1.5 c -6.42,4.5 -12.72,3.3 -16,-3.5 C 40.58,112 40.39,105 45,102 z"
       style="fill:#fdfefe" />
    <path
       id="path1488"
       d="m 421,102 c 4.5,-0.4 8.1,5.4 10,9 -2.8,3.6 -6.4,7.2 -10,10 -9.8,0.2 -14,-6.8 -13.7,-15.7 L 421,102 z"
       style="fill:#fdfdfd" />
    <path
       id="path1487"
       d="m 353,103 c 4.7,2.8 11.5,3.8 14,9 -4.7,4.8 -10.8,9.4 -17,12 -5.5,-3 -10.2,-7.8 -7.7,-14.7 L 353,103 z"
       style="fill:#fdfdfd" />
    <path
       id="path1486"
       d="m 320,104 c 10.1,-1.9 22.9,0.8 18.8,13.8 -6.5,3.8 -12.4,6.2 -19.5,3 L 320,104 z"
       style="fill:#fdfefe" />
    <path
       id="path1485"
       d="m 441,107 c 9,-1.9 13.4,6.6 17,13 L 444.3,126.8 433,113 c -0.1,-4.6 6.3,-3.1 8,-6 z"
       style="fill:#fdfdfd" />
    <path
       id="path1484"
       d="m 127,115 c 11.1,2.6 4.2,18.3 5.8,26.8 -3.5,0.7 -5.9,1.3 -9.8,1.2 l -6,-16 10,-12 z"
       style="fill:#fdfdfd" />
    <path
       id="path1483"
       d="m 367,116 c 11.6,3.9 7.2,16.8 5.8,25.8 l -7.8,3.2 -9.7,-4.2 c -1.8,-4.4 -2.7,-9.1 -3,-13.5 L 367,116 z"
       style="fill:#fdfdfd" />
    <path
       id="path1482"
       d="m 430,116 12,13 c -1,5 -1.4,10 -3.2,14.8 -5.5,2.4 -10.2,-0.8 -15.5,-2 -0.8,-9.5 -2,-19.8 6.7,-25.8 z"
       style="fill:#fdfefe" />
    <path
       id="path1481"
       d="m 469,117 c 4.6,3.6 10.1,6.7 14,11 -1.9,4.9 -4.5,11 -10,13 -9.3,-0.9 -7.2,-12.7 -11,-19 l 7,-5 z"
       style="fill:#fdfdfd" />
    <path
       id="path1480"
       d="m 72,118 c 6.45,3.4 12.12,9.1 17.75,14.3 -0.46,3.9 -0.33,9.6 -4.75,11.7 -5.05,-2.2 -10.36,-3.1 -15.75,-4.2 l -5,-18.5 L 72,118 z"
       style="fill:#fdfdfd" />
    <path
       id="path1479"
       d="m 138,118 1.8,0.8 c 6.9,-3.7 10.7,3.5 15,6.5 1.9,9.3 -2.1,16.8 -10.8,20.7 l -7.7,-3.2 -0.3,-22.8 2,-2 z"
       style="fill:#fdfefe" />
    <path
       id="path1478"
       d="m 515,118 12.8,11.3 -6,11.5 -12.8,0.2 -9,-16 c 3.6,-4.1 11,-3.6 15,-7 z"
       style="fill:#fdfdfd" />
    <path
       id="path1477"
       d="m 18,119 18.75,0.3 c 5.5,4.3 7.8,10.1 4,17.5 -5.1,4 -10.85,8.2 -17.5,5 C 21.58,134 13.38,126.8 18,119 z"
       style="fill:#fdfefe" />
    <path
       id="path1476"
       d="m 250,119 12.8,8.3 c -1.3,6.2 -0.7,14.7 -7,18.5 C 246.4,144.2 246,131.2 242,124 l 8,-5 z"
       style="fill:#fdfdfd" />
    <path
       id="path1475"
       d="m 166,120 12.8,5.3 c -2.4,5.9 -1.9,14.9 -9.8,16.7 l -11.7,-3.2 c -1.7,-8.3 1.7,-14.7 8.7,-18.8 z"
       style="fill:#fdfefe" />
    <path
       id="path1474"
       d="m 192,120 c 6,2.7 8.7,8.1 6.8,14.8 -6.3,5.3 -12.6,8.9 -20.5,5 -1,-9.8 5.2,-16.6 13.7,-19.8 z"
       style="fill:#fdfdfd" />
    <path
       id="path1473"
       d="m 340,120 c 8.2,4.1 11.5,12.3 11.8,20.8 -5.8,3.8 -12.8,3.6 -19.5,3 -2,-5.9 -1.7,-12.5 -2,-18.5 L 340,120 z"
       style="fill:#fdfefe" />
    <path
       id="path1472"
       d="m 60,121 c 4.23,4.5 3.15,12.4 6,18 -2.42,2.9 -6.4,5 -9.75,6.8 L 44,136 l 1,-3 c -2.03,-9.5 10.23,-8.2 15,-12 z"
       style="fill:#fdfdfd" />
    <path
       id="path1471"
       d="m 408,121 11.8,2.3 c 0.4,6 0.4,12.4 0,18.5 -6.6,2.1 -12.9,4.5 -18.5,-1 -3,-7.7 -0.7,-15.3 6.7,-19.8 z"
       style="fill:#fdfdfd" />
    <path
       id="path1470"
       d="m 588,121 c 3.7,2.6 7.5,4.9 10.8,8.3 l -1,13.5 c -2.8,0.2 -5.3,1 -7.8,2.2 -6.5,-2.7 -10.1,-9.8 -12,-16 l 10,-8 z"
       style="fill:#fdfdfd" />
    <path
       id="path1469"
       d="m 213,122 c 4.8,1.5 9.3,4 13.8,6.3 -0.3,4 -0.4,8.5 -2,12.5 l -14.5,6 c -4.9,-6.3 -10.6,-12.8 -8,-21.5 3.6,-0.7 7.8,-1.7 10.7,-3.3 z"
       style="fill:#fdfefe" />
    <path
       id="path1468"
       d="m 300,122 8.8,3.3 c -0.4,7.2 1.7,15.7 -3.8,20.7 l -15.7,-4.2 -2.3,-9.8 13,-10 z"
       style="fill:#fdfefe" />
    <path
       id="path1467"
       d="m 386,122 c 9.6,0.4 13.4,10.5 11.8,18.8 -7.4,2.1 -14.1,4 -21.5,1 1.4,-6.5 -2.4,-21.1 8.7,-18.8 l 1,-1 z"
       style="fill:#fdfdfd" />
    <path
       id="path1466"
       d="m 100,123 13.8,4.3 c 2.3,4.7 4.4,10.2 5,15.5 -8.9,0.4 -18.5,3.3 -27.55,-1 -0.15,-7.3 3.68,-13.5 8.75,-18.8 z"
       style="fill:#fdfefe" />
    <path
       id="path1465"
       d="m 316,123 10.8,2.3 c 1.3,6.6 1.8,13 2,19.5 -5.5,2.3 -12.2,-0.7 -17.5,-2 0.4,-7.1 -1.9,-16.2 4.7,-19.8 z"
       style="fill:#fefefe" />
    <path
       id="path1464"
       d="m 274,124 c 7.8,2.5 12.9,10.7 11.8,18.8 -7,1.9 -15.6,-0.7 -22.5,-2 l 3,-13.5 c 2.6,-0.7 5.8,-1.9 7.7,-3.3 z"
       style="fill:#fdfefe" />
    <path
       id="path1463"
       d="m 457,124 c 6.5,1 4.6,11.1 7.8,15.8 -7.2,4.4 -14.6,9.5 -22.5,4 l 3,-14.5 11.7,-5.3 z"
       style="fill:#fdfefe" />
    <path
       id="path1462"
       d="m 495,124 10.8,17.8 -5.8,6.2 c -6.4,-2.7 -13.8,-5.5 -19,-10 2.4,-6.8 8,-11.1 14,-14 z"
       style="fill:#fdfdfd" />
    <path
       id="path1461"
       d="m 539,124 14.8,5.3 c 0.4,4.4 0.4,9 0,13.5 l -13,6 c -4.6,-2.6 -9.8,-5.6 -13.8,-8.8 -0.1,-7.6 6.1,-12.9 12,-16 z"
       style="fill:#fdfefe" />
    <path
       id="path1460"
       d="m 236,125 c 7.1,1.9 7.6,13 11,19 l -11.7,4.8 c -10,-5.6 -9,-19.9 0.7,-23.8 z"
       style="fill:#fdfefe" />
    <path
       id="path1459"
       d="m 564,125 c 7.5,1.4 13.7,7.2 14.8,14.8 l -19.5,6 C 554.7,139.5 555.4,127 564,125 z"
       style="fill:#fdfdfd" />
    <path
       id="path1458"
       d="m 10,127 3.75,0.3 c 3.27,7.3 11.22,16.8 1,22.5 l -12.5,-6 C 1.026,139 1.115,135 2.25,130.3 4.933,129.6 8.079,128.4 10,127 z"
       style="fill:#fdfdfd" />
    <path
       id="path1457"
       d="m 198,138 c 9.6,2.5 14.7,21.3 2.3,24.3 l -5.3,2.7 -3.7,-1.2 c -0.2,-7.9 -5.6,-20.7 5.5,-24 L 198,138 z"
       style="fill:#fdfdfd" />
    <path
       id="path1456"
       d="m 42,139 c 4.36,2.9 8.78,5.7 12.75,9.3 -0.08,5.9 1.58,13.2 -5,15.5 -10.5,-1 -14.12,-9.6 -16.5,-18.5 L 42,139 z"
       style="fill:#fdfefe" />
    <path
       id="path1455"
       d="m 155,141 c 4.6,1.3 9.6,2 13.8,4.3 l 4,18.5 c -9.3,0.6 -14.9,-0.5 -23.5,-1 -2.3,-4.3 -2.3,-9.9 -3,-14.5 L 155,141 z"
       style="fill:#fefefe" />
    <path
       id="path1454"
       d="m 478,141 20.8,10.3 c -0.3,2.3 -0.9,5.1 -2,7.5 -6.3,1.4 -12.4,7.8 -18.5,3 -0.5,-6.6 -6.2,-16.3 -0.3,-20.8 z"
       style="fill:#fdfdfd" />
    <path
       id="path1453"
       d="m 67,142 16.75,4.3 C 83.39,155.9 79.38,165 69,167 l -11.75,-5.2 1,-13.5 L 67,142 z"
       style="fill:#fdfefe" />
    <path
       id="path1452"
       d="m 175,142 11.8,2.3 c 0.6,6.4 1.7,11.3 1,18.5 -3.3,1.5 -7.2,1.5 -10.5,2 L 171,145 l 4,-3 z"
       style="fill:#fdfefe" />
    <path
       id="path1451"
       d="m 466,142 c 10.1,-0.3 6.7,13.2 8.8,19.8 l -10.5,5 c -8.7,-1.9 -8.6,-10.9 -11,-17.5 L 466,142 z"
       style="fill:#fefefe" />
    <path
       id="path1450"
       d="m 580,142 c 14.7,5.7 -5.7,27 -15.7,18.8 l -3,-12.5 18.7,-6.3 z"
       style="fill:#fdfefe" />
    <path
       id="path1449"
       d="m 225,143 c 13.5,6.3 6.6,22 -5.7,23.8 l -10,-7 c 0.4,-3.4 0.4,-7.3 2,-10.5 4.5,-2.1 9.9,-3.5 13.7,-6.3 z"
       style="fill:#fdfdfd" />
    <path
       id="path1448"
       d="m 353,143 10.8,4.3 c -0.1,7.6 2.9,18.8 -5.8,21.7 l -12.7,-3.2 c 1.3,-8 -2,-19.6 7.7,-22.8 z"
       style="fill:#fdfefe" />
    <path
       id="path1447"
       d="m 397,143 c 17.9,1.1 8.4,24.4 -4,27 -6.9,-4.7 -3.8,-15.8 -5.7,-23.7 L 397,143 z"
       style="fill:#fdfdfd" />
    <path
       id="path1446"
       d="m 524,143 c 7.6,2.5 18.6,7.4 14.8,17.8 -4.5,5.4 -9.5,3 -14.5,0 L 524,143 z"
       style="fill:#fdfefe" />
    <path
       id="path1445"
       d="m 90,144 c 9.11,3.4 10.7,15 14,23 l -9,6 c -5.59,-0.4 -8.39,-7.1 -12.75,-10.2 L 90,144 z"
       style="fill:#fdfefe" />
    <path
       id="path1444"
       d="m 261,144 c 7.4,1 14.3,1 21.8,3.3 l -6,18.5 -4.8,1.2 c -11.5,6.4 -11.9,-10.9 -14,-18 l 3,-5 z"
       style="fill:#fdfdfd" />
    <path
       id="path1443"
       d="m 288,144 15.8,5.3 c -0.7,5.5 0,11.7 -2,17.5 -7.1,0.2 -14.7,3.3 -21.5,-1 L 288,144 z"
       style="fill:#fdfdfd" />
    <path
       id="path1442"
       d="m 373,144 10.8,2.3 c 1,7.1 3.7,15.9 2,22.5 -6.8,3.2 -12.3,-2.9 -18.5,-5 -0.1,-7.4 -3,-17.5 5.7,-19.8 z"
       style="fill:#fdfefe" />
    <path
       id="path1441"
       d="m 420,144 11.8,3.3 c -1.7,7.8 1.2,20 -9,22.5 -4.7,-3 -9.2,-6.5 -13.5,-10 -0.9,-4.8 0.5,-8.2 1,-12.5 L 420,144 z"
       style="fill:#fdfdfd" />
    <path
       id="path1440"
       d="m 507,144 13.8,0.3 c 0.4,5.4 0.4,11 0,16.5 L 510,168 c -4.1,-1.2 -7.2,-5.9 -10,-9 0,-6 3.9,-10.2 7,-15 z"
       style="fill:#fefefe" />
    <path
       id="path1439"
       d="m 23,145 c 9.61,-2.2 9.58,8.4 12.75,14.8 l -9,8 -12.5,-6 C 14.37,155.2 18.23,149.1 23,145 z"
       style="fill:#fdfefe" />
    <path
       id="path1438"
       d="m 125,145 c 5.6,-0.1 12.4,-0.1 17.8,3.3 1.1,5.5 4,12.4 2,17.5 -8.3,7 -16.4,0.9 -24.5,-3 1.7,-5.7 -0.2,-15.5 4.7,-17.8 z"
       style="fill:#fdfefe" />
    <path
       id="path1437"
       d="m 554,145 c 5.5,3.7 5.1,11.4 7.8,16.8 l -7,6 c -6.9,-3.3 -16.3,-6.7 -12.5,-16.5 3.9,-2 8.5,-3.6 11.7,-6.3 z"
       style="fill:#fdfefe" />
    <path
       id="path1436"
       d="m 597,145 1.8,2.3 -0.8,26.7 -13.7,-15.2 c 2.3,-6.7 5.8,-12.8 12.7,-13.8 z"
       style="fill:#fcfcfc" />
    <path
       id="path1435"
       d="m 104,146 15.8,0.3 c -1.5,6.9 -0.1,16.6 -7.8,20.7 -8.6,-1.2 -9,-13.5 -12.75,-19.7 L 104,146 z"
       style="fill:#fdfdfd" />
    <path
       id="path1434"
       d="m 309,146 c 5.3,0.8 11,1.2 15.8,3.3 0.4,5.4 0.4,11 0,16.5 L 312,173 c -11,-2.1 -6.4,-19 -3,-27 z"
       style="fill:#fdfefe" />
    <path
       id="path1433"
       d="m 439,146 c 4.2,0.3 8.2,2.3 11.8,4.3 l 4,13.5 -11,8 -11.5,-5 c 2,-6.6 -1,-18.8 6.7,-20.8 z"
       style="fill:#fdfefe" />
    <path
       id="path1432"
       d="m 2,147 10.75,5.3 C 13.91,159.6 8.297,165.2 2,168 1.268,161.5 1.098,154 2,147 z"
       style="fill:#fcfdfd" />
    <path
       id="path1431"
       d="m 248,147 c 10.5,-1.2 8.3,11.1 10.8,17.8 L 247,168 c -4.3,-2.6 -9.6,-4.4 -13,-8 l 1,-2 c -2.2,-9 8.7,-7.5 13,-11 z"
       style="fill:#fdfefe" />
    <path
       id="path1430"
       d="m 330,147 13.8,0.3 c -1.6,7.3 1.9,17.9 -6,22.5 l -9.5,-4 c 0.4,-6 -2.4,-14.7 1.7,-18.8 z"
       style="fill:#fdfdfd" />
    <path
       id="path1429"
       d="m 497,161 c 8.8,5.4 12.2,14.2 10.8,23.8 l -11.5,6 c -12.3,-2.9 -10.5,-15 -11,-24.5 L 497,161 z"
       style="fill:#fdfefe" />
    <path
       id="path1428"
       d="m 580,161 c 7.8,1.9 11.3,11.5 16.8,16.8 -4.9,2.9 -10,6.2 -15.8,6.2 l -2.7,-1.2 -5,-17.5 6.7,-4.3 z"
       style="fill:#fdfdfd" />
    <path
       id="path1427"
       d="m 37,162 10.75,4.3 -4,17.5 -4.5,0.5 c -10.68,5.5 -15.42,-15.8 -5.5,-18.5 L 37,162 z"
       style="fill:#fdfefe" />
    <path
       id="path1426"
       d="m 207,162 c 7.3,3.1 13.5,8.5 13,17 -4.5,4 -9.7,9.6 -16,10 -8.7,-2.2 -4.5,-14.9 -6.7,-21.7 3.2,-1.7 7.2,-3 9.7,-5.3 z"
       style="fill:#fdfefe" />
    <path
       id="path1425"
       d="m 232,163 12,7 c -2.2,5.9 -3.8,14.1 -10,17 -6.8,-3.9 -13.7,-8.2 -13,-17 2.4,-3.7 8.3,-3.9 11,-7 z"
       style="fill:#fdfdfd" />
    <path
       id="path1424"
       d="m 406,163 c 5.9,0.8 10.8,6 15,10 -1.5,6.3 -2.8,13.1 -10.2,14.8 -7.3,-2 -14.2,-5.6 -14.8,-13.8 l 10,-11 z"
       style="fill:#fdfdfd" />
    <path
       id="path1423"
       d="m 522,163 8.8,4.3 c 0.4,5.7 0.4,11.7 0,17.5 L 517,187 c -8.1,-1 -6.9,-9.3 -6.7,-15.7 L 522,163 z"
       style="fill:#fdfefe" />
    <path
       id="path1422"
       d="m 540,163 c 4.3,2.6 9.6,4.4 13,8 -0.7,9 -8.8,12.8 -15.7,16.8 l -3,-2 c 0.2,-8.1 -3.4,-19.4 5.7,-22.8 z"
       style="fill:#fdfefe" />
    <path
       id="path1421"
       d="m 12,164 12.75,6.3 3,14.5 -9,5 -17.5,-15 C 2.736,169.7 9.164,168 12,164 z"
       style="fill:#fdfefe" />
    <path
       id="path1420"
       d="m 55,164 11.75,5.3 c 0.93,6.1 -0.44,10.8 -1,16.5 l -11,5 c -2.75,-2 -6.03,-3.5 -8.5,-6 2.92,-6.8 2.3,-16.4 8.75,-20.8 z"
       style="fill:#fdfdfd" />
    <path
       id="path1419"
       d="m 476,164 5.8,2.3 c 1.3,6.2 1.7,12.5 2,18.5 L 473,188 c -8.5,-2.1 -5.6,-12.6 -6.7,-18.7 3.2,-1.7 7.2,-3 9.7,-5.3 z"
       style="fill:#fdfefe" />
    <path
       id="path1418"
       d="m 563,164 c 11.1,-0.9 9.3,12.7 12.8,19.8 -1.9,2.3 -4.4,3.6 -6.8,5.2 l -15.7,-9.2 c 0.2,-6.9 4.6,-11.7 9.7,-15.8 z"
       style="fill:#fdfefe" />
    <path
       id="path1417"
       d="m 79,165 c 4.97,3.2 11.71,8.1 13,14 -2.42,5.8 -9.27,8 -13.75,11.8 l -9,-5 1,-16.5 L 79,165 z"
       style="fill:#fdfefe" />
    <path
       id="path1416"
       d="m 118,165 c 5,2 10.2,4.2 14.8,7.3 -1.7,5.8 -3.2,15.2 -10.8,15.7 l -7.7,-18.7 3.7,-4.3 z"
       style="fill:#fdfdfd" />
    <path
       id="path1415"
       d="m 148,166 c 10,-0.3 17.8,0.4 26.8,1.3 -1.2,8.8 -2.9,19.2 -12.8,22.7 -10.3,-2.2 -9.3,-16.2 -14,-24 z"
       style="fill:#fdfefe" />
    <path
       id="path1414"
       d="m 186,166 c 12.9,-1.9 8,14.3 11,22 l -3.2,3.8 -19.5,-8 3,-15.5 c 2.4,-2.4 6.8,0 8.7,-2.3 z"
       style="fill:#fdfefe" />
    <path
       id="path1413"
       d="m 365,166 12.8,6.3 c -3.6,8 -4.2,20.1 -15.5,19.5 -1.4,-6.9 -4.2,-20 2.5,-24 L 365,166 z"
       style="fill:#fcfdfd" />
    <path
       id="path1412"
       d="m 456,166 c 10.2,1.8 7.6,11.9 8.8,19.8 l -10.5,5 c -6.8,-3.1 -9.8,-9.4 -9,-16.5 L 456,166 z"
       style="fill:#fdfefe" />
    <path
       id="path1411"
       d="m 258,168 c 12.1,1.6 7.7,20.8 -1.2,24.8 -5.2,-2.5 -11.9,-3.5 -15.8,-7.8 l 6.3,-13.7 10.7,-3.3 z"
       style="fill:#fdfefe" />
    <path
       id="path1410"
       d="m 277,168 c 10.8,1.8 6.9,16.1 9.8,23.8 L 281,196 c -5.3,-1.4 -9.3,-6.1 -13.7,-9.2 l 1,-15.5 c 2.9,-1 6.6,-1.5 8.7,-3.3 z"
       style="fill:#fdfdfd" />
    <path
       id="path1409"
       d="m 326,168 9.8,4.3 c 0.3,4.1 1.7,7 1,11.5 l -15.5,5 c -3.6,-4.2 -10.2,-6.2 -9,-12.5 L 326,168 z"
       style="fill:#fdfefe" />
    <path
       id="path1408"
       d="m 106,169 c 8.7,-0.3 9.2,12.3 10.8,18.8 L 106,192 94,181 c -0.13,-7 8.3,-7.9 12,-12 z"
       style="fill:#fdfefe" />
    <path
       id="path1407"
       d="m 143,169 2.8,0.3 c 2.9,6.2 5.8,12.9 7.2,19.7 l -9.2,5.8 c -4.3,-2.3 -9.1,-5 -12.8,-7.8 1.7,-7.2 4.7,-15.3 12,-18 z"
       style="fill:#fdfdfd" />
    <path
       id="path1406"
       d="m 343,169 14.8,3.3 c 0.4,5.7 0.4,11.7 0,17.5 C 344.7,195.5 332,177 343,169 z"
       style="fill:#fdfdfd" />
    <path
       id="path1405"
       d="m 430,169 c 4.4,1.3 8.8,3.7 12.8,6.3 l 1,10.5 -11,5 c -4,-2 -7.9,-4.4 -11.5,-7 0.6,-6.2 2.3,-12.7 8.7,-14.8 z"
       style="fill:#fdfefe" />
    <path
       id="path1404"
       d="m 291,170 c 6.8,-0.6 18.2,-0.2 18,9 -4.7,5.9 -10.6,12.7 -18,12 -4.2,-5 -2.9,-13.6 -4.7,-19.7 L 291,170 z"
       style="fill:#fdfefe" />
    <path
       id="path1403"
       d="m 386,171 c 7.5,-0.5 8.6,6.5 10,12 l -10.2,9.8 -10.5,-3 c 1.2,-7 2.9,-17.5 10.7,-18.8 z"
       style="fill:#fdfdfd" />
    <path
       id="path1402"
       d="m 2,181 c 5.386,3.3 10.9,7.2 15,12 -1.4,3.5 -2.8,6.9 -3.25,10.8 -3.49,1.7 -7.492,4.1 -11.5,4 C 0.834,199.1 1.333,190 2,181 z"
       style="fill:#fcfdfd" />
    <path
       id="path1401"
       d="m 596,181 2.8,0.3 c -0.5,9.6 -0.5,18.8 0,28.5 -11.8,0.8 -9.1,-16 -12.5,-23.5 3.2,-1.7 7.2,-3 9.7,-5.3 z"
       style="fill:#fcfdfd" />
    <path
       id="path1400"
       d="m 221,182 c 3.8,2.4 8.4,4.2 11,8 l -3.2,17.8 -6.8,2.2 c -5.3,-5.1 -8.6,-12.6 -12,-19 l 11,-9 z"
       style="fill:#fdfdfd" />
    <path
       id="path1399"
       d="m 551,182 15.8,10.3 c -0.5,3.3 -0.5,7.2 -2,10.5 L 553,207 c -9,-1.4 -13.1,-8.4 -13.7,-16.7 L 551,182 z"
       style="fill:#fdfdfd" />
    <path
       id="path1398"
       d="m 309,183 c 8,2.2 12.2,11 10.8,19.8 L 307,208 300.3,192.3 309,183 z"
       style="fill:#fdfdfd" />
    <path
       id="path1397"
       d="m 91,185 c 5.17,0.8 8.77,5.8 12.8,9.3 -0.9,8.5 -6.13,14.9 -14.55,17.5 -8.16,-2.8 -9.15,-11.2 -9,-18.5 L 91,185 z"
       style="fill:#fdfefe" />
    <path
       id="path1396"
       d="m 398,185 10.8,5.3 c 0.4,5.7 0.4,11.7 0,17.5 l -11.5,5 c -4.5,-4.7 -9.5,-9.9 -9.3,-17.8 l 10,-10 z"
       style="fill:#fdfefe" />
    <path
       id="path1395"
       d="m 172,186 19.8,8.3 c -0.7,3.7 -1.5,7.7 -3,11.5 L 172,211 164.3,192.3 172,186 z"
       style="fill:#fdfefe" />
    <path
       id="path1394"
       d="m 337,186 c 3.1,0.3 5.2,3.8 7,6 -3.2,6 -5.7,15 -13,17 -7.3,-3.5 -10,-10.3 -8.7,-17.7 4.9,-1.6 10.6,-2.9 14.7,-5.3 z"
       style="fill:#fdfdfd" />
    <path
       id="path1393"
       d="m 419,186 11.8,7.3 c 0.9,6.4 -0.4,11.6 -1,17.5 -2.2,0.1 -3.9,1.3 -5.8,2.2 l -11.7,-5.2 c -0.2,-8.2 -3,-19.3 6.7,-21.8 z"
       style="fill:#fdfefe" />
    <path
       id="path1392"
       d="m 577,186 c 11.4,-1.2 7.5,14.5 11.8,21.3 l -1,1.5 c -3.7,0.5 -7.4,0.8 -10.8,2.2 -3.8,-2.1 -6.6,-5.3 -9,-9 -0.1,-6.9 3.7,-12 9,-16 z"
       style="fill:#fdfefe" />
    <path
       id="path1391"
       d="m 29,187 2.75,0.3 4,21.5 L 25,212 c -3.65,-1.2 -5.92,-4.7 -8.75,-7.2 0.89,-8.3 4.73,-15.1 12.75,-17.8 z"
       style="fill:#fdfefe" />
    <path
       id="path1390"
       d="m 37,187 c 9.43,-1.8 19.97,6.7 15.75,17.8 l -12.5,5 C 35.7,203.7 37.7,195.7 35,189 l 2,-2 z"
       style="fill:#fdfdfd" />
    <path
       id="path1389"
       d="m 509,187 5.8,2.3 c 1.2,7.6 1.8,15.6 2,23.5 -7.3,2.2 -14.9,-1.1 -21.5,-4 l 3,-15.5 10.7,-6.3 z"
       style="fill:#fdfefe" />
    <path
       id="path1388"
       d="m 66,188 c 10.13,1.1 13.63,10.4 12.75,18.8 L 65,212 c -7.39,-3.5 -11.13,-10.5 -8.75,-18.7 3.25,-1.7 7.23,-3 9.75,-5.3 z"
       style="fill:#fdfefe" />
    <path
       id="path1387"
       d="m 237,188 17.8,7.3 c -0.9,6.3 -1.9,14.5 -9,17.5 l -13.5,-5 C 234,201.4 232,191.9 237,188 z"
       style="fill:#fdfefe" />
    <path
       id="path1386"
       d="m 445,188 c 7.8,2 9.4,9.5 7.8,16.8 l -19.5,6 c -0.7,-6.9 0.4,-11.3 1,-17.5 L 445,188 z"
       style="fill:#fdfdfd" />
    <path
       id="path1385"
       d="m 466,188 5.8,2.3 c -1,8.1 3,18.6 -6,22.5 -7.3,-4 -12.4,-10.7 -9.5,-19.5 3.2,-1.7 7.2,-3 9.7,-5.3 z"
       style="fill:#fdfefe" />
    <path
       id="path1384"
       d="m 483,188 c 4.5,0 7.9,3.5 11.8,5.3 -1.6,5.5 0.1,13.6 -4.8,17.7 l -15.7,-2.2 c -0.8,-7.3 0.5,-11.8 1,-18.5 2.5,-0.7 6,-0.7 7.7,-2.3 z"
       style="fill:#fdfefe" />
    <path
       id="path1383"
       d="m 528,188 c 9.8,-1.9 9.6,9 12,15 l -11.7,12.8 -8,-3 c -1.6,-7.1 -1.6,-15.3 -2,-22.5 2.2,-3.2 7.7,0.5 9.7,-2.3 z"
       style="fill:#fefefe" />
    <path
       id="path1382"
       d="m 126,189 15.8,8.3 c -0.6,4.7 -1.4,9.8 -3,14.5 l -13.5,-3 -2,-18.5 2.7,-1.3 z"
       style="fill:#fdfdfd" />
    <path
       id="path1381"
       d="m 265,189 c 6.1,5 17.3,8.5 13.8,18.8 -8.1,2 -16.4,5.2 -23.5,-1 0.4,-7.3 3.7,-13.6 9.7,-17.8 z"
       style="fill:#fdfefe" />
    <path
       id="path1380"
       d="m 118,190 1.8,0.3 c 0.4,8.6 8.1,21.3 -3.5,24.5 l -13,-9 3,-10.5 11.7,-5.3 z"
       style="fill:#fdfefe" />
    <path
       id="path1379"
       d="m 155,191 c 10,0.1 9,13 12.8,19.8 -7.9,6.2 -17.3,2.8 -25.5,0 -0.1,-9.2 4.2,-16.5 12.7,-19.8 z"
       style="fill:#fdfefe" />
    <path
       id="path1378"
       d="m 198,191 c 11.2,-2.4 14.3,11.5 18.8,18.8 l -16.5,5 -8.3,-8.8 c 1.5,-5.2 1.7,-11 6,-15 z"
       style="fill:#fdfdfd" />
    <path
       id="path1377"
       d="m 371,192 13.8,3.3 2,9.5 -14.5,6 c -3.4,-5.5 -10.6,-9.8 -9,-16.5 L 371,192 z"
       style="fill:#fdfdfd" />
    <path
       id="path1376"
       d="m 291,193 1.8,0.8 c 8.8,-3.2 7.1,11.2 11.2,16.2 l -2.2,2.8 c -7,-0.3 -14.4,1.4 -19.5,-4 -2.8,-7.6 2.5,-13.7 8.7,-15.8 z"
       style="fill:#fdfdfd" />
    <path
       id="path1375"
       d="m 347,193 12.8,0.3 c 4.1,8.9 -5.7,15.6 -10.8,21.7 -3.7,-1.7 -7.2,-4.5 -10,-7 l 8,-15 z"
       style="fill:#fdfefe" />
    <path
       id="path1374"
       d="m 362,204 c 8.6,4.7 10.7,13.6 8.8,22.8 -7.4,-2.4 -18.5,1.3 -19.8,-8.8 l 11,-14 z"
       style="fill:#fdfdfd" />
    <path
       id="path1373"
       d="m 320,205 c 3.3,0.9 6.1,3.8 8.8,6.3 l -5,17.5 c -4.8,0.4 -9.8,0.4 -14.5,0 l -5,-14.5 c 3.9,-5.4 11.3,-5.4 15.7,-9.3 z"
       style="fill:#fdfdfd" />
    <path
       id="path1372"
       d="m 542,205 8.8,4.3 c 0.4,6 0.4,12.4 0,18.5 l -11.5,5 C 533.1,230 533,223.4 531,218 l 11,-13 z"
       style="fill:#fdfdfd" />
    <path
       id="path1371"
       d="m 565,205 c 3.8,2.6 6.9,5 9,9 -2.9,5.9 -0.8,14.5 -8,18 l -11.7,-4.2 c -0.5,-6.1 -0.5,-12.5 0,-18.5 3.6,-1.2 7.8,-2.5 10.7,-4.3 z"
       style="fill:#fdfefe" />
    <path
       id="path1370"
       d="m 13,207 c 8.83,3.1 10.5,12.4 8.75,20.8 l -9.5,5 -11,-7 c 0.593,-4.7 0.33,-9 0,-13.5 L 13,207 z"
       style="fill:#fdfdfd" />
    <path
       id="path1369"
       d="m 53,207 c 3.61,1.8 6.8,4.3 9.75,7.3 -0.23,5.4 -0.52,11.2 -2,16.5 L 58,232 l -12.75,-4.2 -2,-15.5 c 3.25,-1.7 7.23,-3 9.75,-5.3 z"
       style="fill:#fdfdfd" />
    <path
       id="path1368"
       d="m 387,207 c 3.8,2.4 6.3,4.9 8.8,8.3 -2.8,4.9 -2,13.1 -7.8,15.7 l -13.7,-3.2 c -0.5,-4.8 -0.5,-9.8 0,-14.5 L 387,207 z"
       style="fill:#fdfdfd" />
    <path
       id="path1367"
       d="m 453,207 c 2.5,-0.3 3.5,2.5 5.3,3.8 3.8,1.4 7.8,6.2 4.7,10.2 2.5,7.9 -5.4,13.4 -11.7,11.8 C 445.2,228.6 444,220 440,214 c 3,-3.8 9.7,-3.7 13,-7 z"
       style="fill:#fdfdfd" />
    <path
       id="path1366"
       d="m 101,208 c 4.8,2.7 9.5,5.6 13.8,9.3 0.7,6.6 -0.3,13.5 -7.8,15.7 l -14.75,-5.2 c -0.6,-4.7 -1.85,-8.5 -1,-13.5 L 101,208 z"
       style="fill:#fdfefe" />
    <path
       id="path1365"
       d="m 189,208 c 10.1,4.6 11.9,19.3 3,25 l -11.7,-3.2 -5,-16.5 c 4.5,-1.8 9.8,-3.1 13.7,-5.3 z"
       style="fill:#fdfdfd" />
    <path
       id="path1364"
       d="m 79,209 c 14.15,3.4 12.09,23 0.75,27.8 l -15.5,-6 c 0.28,-5.5 0.5,-11.4 2,-16.5 L 79,209 z"
       style="fill:#fdfefe" />
    <path
       id="path1363"
       d="m 229,210 15.8,5.3 c 0.8,4.5 2.9,10.5 1,14.5 L 239,231 c -5.4,3.7 -10.3,0.4 -14.7,-3.2 0.2,-6.3 -3.1,-16.5 4.7,-17.8 z"
       style="fill:#fdfefe" />
    <path
       id="path1362"
       d="m 253,210 10.8,3.3 1,16.5 c -4.8,0.4 -9.8,0.4 -14.5,0 -1.5,-6.4 -4.5,-14.9 2.7,-19.8 z"
       style="fill:#fdfefe" />
    <path
       id="path1361"
       d="m 278,210 c 2.2,-0.4 3.2,2.1 4.8,3.3 -1.8,6.7 -0.6,16.3 -7.5,20.5 -10.3,-1.5 -8.1,-12.4 -8,-20.5 3.6,-0.7 7.8,-1.7 10.7,-3.3 z"
       style="fill:#fdfdfd" />
    <path
       id="path1360"
       d="m 335,210 c 9.4,3.1 22.6,14.6 9.8,22.8 -6.2,-0.7 -13,-1.5 -18.5,-3 3.3,-6.3 1.8,-16.8 8.7,-19.8 z"
       style="fill:#fdfefe" />
    <path
       id="path1359"
       d="m 410,210 11.8,5.3 -1,13.5 c -2.6,3.5 -7.4,2.1 -10.8,4.2 -5.1,-0.8 -9.8,-2.8 -14.7,-4.2 -1,-9.8 6.3,-16.3 14.7,-18.8 z"
       style="fill:#fdfefe" />
    <path
       id="path1358"
       d="m 587,211 10.8,2.3 c 1.3,6.1 1,11.2 0,17.5 l -8.8,3.2 -15.7,-5.2 3,-14.5 10.7,-3.3 z"
       style="fill:#fdfefe" />
    <path
       id="path1357"
       d="m 35,212 4.75,0.3 c 1.87,5.6 2.1,11.8 3,17.5 l -8.5,4 -9,-6 c -0.42,-4.1 -0.42,-8.5 0,-12.5 2.51,-2.6 7.44,-1.1 9.75,-3.3 z"
       style="fill:#fdfefe" />
    <path
       id="path1356"
       d="m 218,212 2.8,0.3 c 1.3,8.9 1,18.3 -8,22.5 l -13.5,-5 c 0.4,-4.1 0.6,-8.5 2,-12.5 5.6,-1.6 11.8,-3.1 16.7,-5.3 z"
       style="fill:#fdfefe" />
    <path
       id="path1355"
       d="m 472,212 16.8,1.3 c 2.2,4.3 -0.3,10.5 -1,15.5 l -13.8,5.2 -8.7,-4.2 c 0.7,-6.3 -0.5,-15.3 6.7,-17.8 z"
       style="fill:#fdfefe" />
    <path
       id="path1354"
       d="m 494,212 15.8,5.3 c -1.4,6.1 -0.9,15.3 -8.8,17.7 -3.9,-0.6 -6.7,-4 -9.7,-6.2 0.8,-5.7 0,-11.9 2.7,-16.8 z"
       style="fill:#fdfefe" />
    <path
       id="path1353"
       d="m 124,213 c 4.9,0.6 10.9,0.6 14.8,2.3 1.7,9.6 -6.6,13.9 -14,17.5 C 113.7,231 115.5,216.5 124,213 z"
       style="fill:#fdfefe" />
    <path
       id="path1352"
       d="m 169,213 2.8,0.3 c 1.8,6.6 10,17.5 2,21.5 l -14.5,-4 c 0.1,-4.4 0.6,-8.9 2,-13.5 2.5,-1.4 5.8,-2.3 7.7,-4.3 z"
       style="fill:#fdfdfd" />
    <path
       id="path1351"
       d="m 430,213 c 10.7,-1 11.8,13.1 16,20 l -13,8 -10,-10 2.3,-15.7 4.7,-2.3 z"
       style="fill:#fdfefe" />
    <path
       id="path1350"
       d="m 142,214 15.8,4.3 c -0.6,5.4 0,14.6 -7.8,16.7 l -9.7,-8.2 c 0,-4.2 0.7,-8.7 1.7,-12.8 z"
       style="fill:#fdfdfd" />
    <path
       id="path1349"
       d="m 286,215 15.8,1.3 c 0.7,6.4 9,13.8 1,18.5 -6.7,-1.5 -14.3,-2.2 -20.5,-5 L 286,215 z"
       style="fill:#fefefe" />
    <path
       id="path1348"
       d="m 516,215 c 9.2,-0.7 17.3,7.4 14.8,15.8 -6.4,4.9 -14.2,2 -20.5,-1 1.8,-4.9 0,-13 5.7,-14.8 z"
       style="fill:#fdfdfd" />
    <path
       id="path1347"
       d="m 353,227 17.8,3.3 c -4.2,8.3 -5.6,19.6 -16.8,20.7 -8,-5.6 -8.8,-17.9 -1,-24 z"
       style="fill:#fdfefe" />
    <path
       id="path1346"
       d="m 136,229 c 7.2,1.1 14.8,9.5 10.8,16.8 l -14.5,5 -6,-15.5 9.7,-6.3 z"
       style="fill:#fcfdfd" />
    <path
       id="path1345"
       d="m 23,230 9.75,6.3 c 0.42,5.4 0.42,11 0,16.5 -5.98,-0.9 -12.66,-0.8 -18.5,-3 -0.42,-4.8 -0.42,-9.8 0,-14.5 L 23,230 z"
       style="fill:#fdfefe" />
    <path
       id="path1344"
       d="m 90,230 15.8,5.3 c 0.4,3.7 0.4,7.7 0,11.5 l -15.05,10 c -8.63,-2 -8.38,-11.5 -8.5,-18.5 2.9,-2.4 6.33,-4.9 7.75,-8.3 z"
       style="fill:#fdfefe" />
    <path
       id="path1343"
       d="m 222,230 c 10.7,2.5 8,14.3 7.8,22.8 -4,2.1 -9,2.8 -13.5,3 L 214,238 c 1.6,-3.7 6.4,-4.3 8,-8 z"
       style="fill:#fdfdfd" />
    <path
       id="path1342"
       d="m 551,230 13.8,4.3 c 0.4,6 0.4,12.4 0,18.5 -2.8,0.2 -5.3,1 -7.8,2.2 -8.1,-4.2 -18,-8.8 -15.7,-19.7 3.2,-1.7 7.2,-3 9.7,-5.3 z"
       style="fill:#fdfefe" />
    <path
       id="path1341"
       d="m 2,231 8.75,4.3 c 1.33,8.7 1.1,19.1 -8.5,22.5 C 0.834,249.1 1.333,240 2,231 z"
       style="fill:#fcfcfc" />
    <path
       id="path1340"
       d="m 115,231 c 10.4,2.2 11.1,13.2 15,21 l -8.2,4.8 c -4.7,-2.4 -8.7,-6.2 -12.5,-10 -1.3,-6.6 -0.7,-13.3 5.7,-15.8 z"
       style="fill:#fdfdfd" />
    <path
       id="path1339"
       d="m 373,231 14.8,3.3 c 0.4,4.4 0.4,9 0,13.5 l -13.5,6 -8,-6 c 2.4,-5.5 4.8,-11.1 6.7,-16.8 z"
       style="fill:#fdfefe" />
    <path
       id="path1338"
       d="m 393,231 13.8,4.3 c 0.4,6 0.4,12.4 0,18.5 L 402,254 c -11.9,3.5 -13.9,-16.7 -9,-23 z"
       style="fill:#fdfefe" />
    <path
       id="path1337"
       d="m 488,231 c 7.1,2.6 13.8,8.7 11.8,16.8 -5.4,2.8 -11.9,3.6 -17.8,5.2 L 475.3,236.3 488,231 z"
       style="fill:#fdfefe" />
    <path
       id="path1336"
       d="m 571,231 15.8,5.3 c -1.5,7.6 -3.2,17.9 -12,20.5 -10.3,-2.7 -8.4,-19 -3.8,-25.8 z"
       style="fill:#fdfefe" />
    <path
       id="path1335"
       d="m 44,232 c 4.42,0.4 8.96,1.2 12.75,3.3 -0.9,5.6 -1.13,11.8 -3,17.5 L 44,257 36.25,253.8 c -0.42,-5.8 -0.42,-11.8 0,-17.5 L 44,232 z"
       style="fill:#fdfefe" />
    <path
       id="path1334"
       d="m 198,232 12.8,5.3 c 0.6,5.9 3,13.2 1,18.5 -5,-1.4 -11.4,3.9 -15.5,-1 0.3,-7.5 -4.6,-16.8 1.7,-22.8 z"
       style="fill:#fdfefe" />
    <path
       id="path1333"
       d="m 246,232 1.8,0.3 c 3.4,10.1 -3.4,24.7 -14.5,21.5 -0.5,-6.1 -0.5,-12.5 0,-18.5 4.3,-0.7 9.3,-1.4 12.7,-3.3 z"
       style="fill:#fdfdfd" />
    <path
       id="path1332"
       d="m 309,232 15.8,0.3 c 0.4,5.7 0.4,11.7 0,17.5 -6.8,0.4 -13.8,0.4 -20.5,0 0,-6.4 -0.6,-13 4.7,-17.8 z"
       style="fill:#fefefe" />
    <path
       id="path1331"
       d="m 463,232 c 10.6,2.1 12,12.2 14.8,20.8 L 468,260 c -2.8,-1.5 -5.6,-2.6 -8.7,-3.2 0.4,-7.9 -5.8,-20.3 3.7,-24.8 z"
       style="fill:#fdfdfd" />
    <path
       id="path1330"
       d="m 533,232 c 10.4,4.7 7.9,19.6 -2,24 -3.8,-2.1 -7.5,-4.3 -10.7,-7.2 2.5,-6.8 5.4,-14.3 12.7,-16.8 z"
       style="fill:#fdfdfd" />
    <path
       id="path1329"
       d="m 62,233 16.75,6.3 c 1.38,4.6 1.82,9.1 2,13.5 L 69,258 57.25,252.8 c 1.38,-6.3 0.2,-15.2 4.75,-19.8 z"
       style="fill:#fdfefe" />
    <path
       id="path1328"
       d="m 157,233 c 5.2,1.7 11.1,2 15.8,5.3 l -4,13.5 c -6.9,1.9 -13.6,0.5 -18.5,-6 -1.7,-6 2.9,-9 6.7,-12.8 z"
       style="fill:#fdfefe" />
    <path
       id="path1327"
       d="m 180,233 11.8,2.3 c 0.4,6.9 1.7,11.9 1,19.5 -4.4,0.8 -8.7,1.7 -12.8,3.2 l -7.7,-6.2 c 1.6,-6.5 1.8,-15.1 7.7,-18.8 z"
       style="fill:#fdfefe" />
    <path
       id="path1326"
       d="m 251,233 c 7.8,0.3 16.1,-1.5 22.8,3.3 1.6,6.9 -3,12.2 -8,16.5 l -14.5,-6 L 251,233 z"
       style="fill:#fdfefe" />
    <path
       id="path1325"
       d="m 280,233 c 7.3,1.6 15,2.3 21.8,5.3 -0.4,5.3 0.8,11.1 -3,15.5 -8.1,2.5 -15,-6.4 -22.5,-9 -0.8,-4.4 0.8,-8.6 3.7,-11.8 z"
       style="fill:#fdfdfd" />
    <path
       id="path1324"
       d="m 328,233 14.8,2.3 c 3.6,3 2.8,8.5 4,12.5 l -16.5,6 c -4.9,-5.4 -1.1,-14.1 -2.3,-20.8 z"
       style="fill:#fdfefe" />
    <path
       id="path1323"
       d="m 419,233 c 5,1.8 8.7,7.7 11,12 -3.2,4.8 -7,8.7 -11.7,11.8 l -8,-3 c -0.5,-6.1 -0.5,-12.5 0,-18.5 2.9,-0.5 6.7,-0.5 8.7,-2.3 z"
       style="fill:#fdfdfd" />
    <path
       id="path1322"
       d="m 508,233 13.8,3.3 c -0.3,4.3 -2.6,8.7 -5,12.5 l -11.5,3 C 500.3,246 500.9,237 508,233 z"
       style="fill:#fdfefe" />
    <path
       id="path1321"
       d="m 596,234 c 1.2,-0.3 2.1,0.4 2.8,1.3 l -1,20.5 -12.5,-2 c 1.3,-7.1 3.1,-17.5 10.7,-19.8 z"
       style="fill:#fcfdfd" />
    <path
       id="path1320"
       d="m 448,235 c 2.5,-0.2 4.7,0 6.8,1.3 0.1,8 5.7,21.1 -5.8,24.7 -7,-1.9 -11.8,-10 -17,-15 l 16,-11 z"
       style="fill:#fdfefe" />
    <path
       id="path1319"
       d="m 275,247 17,10 c -1.6,4.5 -4.2,9 -7.2,12.8 l -13.8,3.2 -2.7,-1.2 c -1,-9.3 -1.7,-19 6.7,-24.8 z"
       style="fill:#fdfefe" />
    <path
       id="path1318"
       d="m 147,248 c 3.7,1.5 7.5,4.7 10,8 -2.3,6.1 -3.7,12.4 -5.2,18.8 L 148,276 c -9.5,-3.2 -11.4,-14.1 -15.7,-21.7 L 147,248 z"
       style="fill:#fdfefe" />
    <path
       id="path1317"
       d="m 107,249 11,10 c -2.8,7.8 -6.1,17.4 -16,17 -7.46,-1.5 -6.85,-11.2 -9.75,-16.7 L 107,249 z"
       style="fill:#fdfefe" />
    <path
       id="path1316"
       d="m 249,249 15.8,6.3 c 0.4,5.4 0.4,11 0,16.5 l -8,4 c -9.6,-2.2 -14.3,-9.7 -16.5,-18.5 L 249,249 z"
       style="fill:#fefefe" />
    <path
       id="path1315"
       d="m 347,250 c 8.6,2.3 4,14.1 4.8,20.8 -3.2,2 -6.2,4.6 -9.5,6 l -12,-7 1,-13.5 15.7,-6.3 z"
       style="fill:#fdfefe" />
    <path
       id="path1314"
       d="m 363,250 c 10.5,2 11.4,12.6 9.8,21.8 l -4.8,2.2 -12.7,-3.2 c -0.5,-5.8 -0.5,-11.8 0,-17.5 2.6,-0.7 5.8,-1.9 7.7,-3.3 z"
       style="fill:#fdfefe" />
    <path
       id="path1313"
       d="m 388,250 c 8,3.8 6.8,10.8 4.8,17.8 -5.1,3.5 -10.6,6 -16.5,4 -0.5,-5.1 -0.5,-10.5 0,-15.5 3.9,-2 8.5,-3.6 11.7,-6.3 z"
       style="fill:#fefefe" />
    <path
       id="path1312"
       d="m 429,250 c 6.9,2 12.3,10.2 17,15 0.3,8.3 -7.2,9.7 -13.2,12.8 -8.4,-3.9 -18,-18.1 -6,-24 -0.3,-2.2 3,-1.4 2.2,-3.8 z"
       style="fill:#fdfdfd" />
    <path
       id="path1311"
       d="m 541,250 c 4.8,0.7 9.1,4.6 13,7 -2.7,5.7 -4.5,13.7 -10,17 -4.2,0.1 -7.2,-3.5 -10.7,-5.2 -2.8,-8.2 2.5,-13.6 7.7,-18.8 z"
       style="fill:#fdfdfd" />
    <path
       id="path1310"
       d="m 499,251 c 1.8,-0.5 2.6,1.3 3.8,2.3 -0.5,7.6 7.8,19.9 -1.8,23.7 l -10.7,-3.2 -5,-18.5 13.7,-4.3 z"
       style="fill:#fdfefe" />
    <path
       id="path1309"
       d="m 516,251 c 7.5,2.2 17.4,7.9 13.8,17.8 L 511,274 c -5.4,-4.4 -3.2,-13.5 -4.7,-19.7 L 516,251 z"
       style="fill:#fdfefe" />
    <path
       id="path1308"
       d="m 12,253 c 6.16,0.8 12.79,0.8 18.75,3.3 l -10,17.5 c -7,1.1 -15.32,-0.6 -19.5,-6 C 0.2191,261.1 8.391,257.8 12,253 z"
       style="fill:#fdfefe" />
    <path
       id="path1307"
       d="m 303,253 22.8,0.3 c 4.7,4.4 1.2,11.3 1,16.5 l -4.5,1.5 c -10.7,7.8 -14.3,-10.6 -20,-16.5 L 303,253 z"
       style="fill:#fdfefe" />
    <path
       id="path1306"
       d="m 167,254 c 13.4,-0.4 14.4,20.6 2.3,23.3 l -5.3,2.7 -9.7,-4.2 5,-19.5 c 2.1,-2.2 6.1,-0.1 7.7,-2.3 z"
       style="fill:#fdfefe" />
    <path
       id="path1305"
       d="m 54,255 13.75,5.3 c -1.05,5.6 -1.58,12.2 -4,17.5 -5,-1.8 -10.19,-3 -15.5,-4 -1.68,-4.7 -2.49,-9.8 -3,-14.5 L 54,255 z"
       style="fill:#fdfefe" />
    <path
       id="path1304"
       d="m 81,255 c 9.77,1.5 10.79,12.4 13.75,19.8 L 84,282 67.25,278.8 c 1.27,-6 1.9,-12.6 4,-18.5 3.25,-1.7 7.23,-3 9.75,-5.3 z"
       style="fill:#fdfefe" />
    <path
       id="path1303"
       d="m 479,255 c 5.4,3.5 6.6,13.3 7.8,19.8 -4.9,1.4 -9.4,4.3 -14.5,4 L 470,263 l 9,-8 z"
       style="fill:#fdfdfd" />
    <path
       id="path1302"
       d="m 565,255 c 6.4,0.9 10,6.9 9.8,12.8 -5.3,4.3 -11,8.2 -16.5,12 L 550,274 c 3,-7.6 6,-18.1 15,-19 z"
       style="fill:#fdfdfd" />
    <path
       id="path1301"
       d="m 34,256 c 9.87,0.7 9.52,10.7 11,18 l -9,10 c -4.29,-2.4 -8.63,-5.6 -12,-9 l 10,-19 z"
       style="fill:#fdfefe" />
    <path
       id="path1300"
       d="m 129,256 c 3,4.7 6.6,10.3 7.8,15.8 -6.9,1.3 -14,7.2 -20.5,3 L 115,273 c 3.3,-7 6.1,-15 14,-17 z"
       style="fill:#fdfdfd" />
    <path
       id="path1299"
       d="m 229,256 c 9.8,-2.1 10.8,8.5 13.8,14.8 l -10,8 -12.5,-6 -1,-13.5 c 2.5,-2.6 7.4,-1.1 9.7,-3.3 z"
       style="fill:#fdfefe" />
    <path
       id="path1298"
       d="m 299,256 11,16 c -3.3,3.8 -9.3,4.6 -13.7,6.8 l -2.5,-3.5 c -9.4,-3.9 -0.6,-16.4 5.2,-19.3 z"
       style="fill:#fdfdfd" />
    <path
       id="path1297"
       d="m 405,256 c 7.4,-0.1 16.5,3 13.8,11.8 L 406,276 c -4.4,-0.5 -8.3,-4.5 -11,-8 1.4,-3.1 1.9,-6.3 2.3,-9.7 2.1,-2.2 6.1,-0.1 7.7,-2.3 z"
       style="fill:#fdfdfd" />
    <path
       id="path1296"
       d="m 582,256 c 5.7,0.8 11.3,1.5 16.8,3.3 l -1,11.5 -12,5 c -7.2,-4 -14.4,-17.3 -3.8,-19.8 z"
       style="fill:#fdfdfd" />
    <path
       id="path1295"
       d="m 192,257 c 2.1,-0.6 3.5,0.8 4.8,2.3 -0.9,8.2 3.1,19.4 -6.5,22.5 l -11,-8 c 0.1,-4.5 0.7,-9.2 2,-13.5 3.6,-0.9 8,-1.1 10.7,-3.3 z"
       style="fill:#fdfdfd" />
    <path
       id="path1294"
       d="m 210,258 5.8,0.3 c 2,8.3 2.1,17.6 -6,23.5 l -10.5,-3 c -1,-6.8 0.5,-12.2 1,-18.5 2.2,-3.2 7.7,0.5 9.7,-2.3 z"
       style="fill:#fdfefe" />
    <path
       id="path1293"
       d="m 457,259 c 3.7,0.9 7.5,2.3 10.8,4.3 l 2,17.5 c -8.4,0.5 -16.7,-0.8 -22.5,-8 -0.9,-7 4.7,-10.7 9.7,-13.8 z"
       style="fill:#fdfefe" />
    <path
       id="path1292"
       d="m 392,271 c 11.3,3 16.4,19.8 5,26 l -8.7,-2.2 -4,-19.5 c 2.5,-1.4 5.8,-2.3 7.7,-4.3 z"
       style="fill:#fdfdfd" />
    <path
       id="path1291"
       d="m 418,271 c 5.9,-0.2 7.9,6.2 12,9 0.4,7.8 -3.5,13 -11,15 -4.1,-1.5 -8.4,-2.4 -12.7,-3.2 -0.5,-4.1 -0.5,-8.5 0,-12.5 L 418,271 z"
       style="fill:#fdfefe" />
    <path
       id="path1290"
       d="m 530,271 c 3.7,0.6 6.7,3.2 9.8,5.3 -2.1,8.5 -2.6,19.7 -13.5,21.5 L 516,277 l 14,-6 z"
       style="fill:#fdfdfd" />
    <path
       id="path1289"
       d="m 575,271 c 11,3.2 11.2,21.4 1,25 l -12.7,-3.2 -3,-10.5 L 575,271 z"
       style="fill:#fdfdfd" />
    <path
       id="path1288"
       d="m 284,272 c 12.4,2.9 14.7,20.3 1,25 -5,-5.8 -7.8,-14 -11,-21 l 10,-4 z"
       style="fill:#fdfdfd" />
    <path
       id="path1287"
       d="m 327,272 c 5,1.2 9.3,4.6 13.8,7.3 0.4,4.7 0.4,9.7 0,14.5 -4.9,7.4 -14.4,6.8 -23.5,6 -2.4,-7.7 0.1,-16 1,-23.5 L 327,272 z"
       style="fill:#fdfefe" />
    <path
       id="path1286"
       d="m 2,273 c 12.48,1.6 8.76,15.9 10.75,24.8 -3.512,1.4 -6.988,3.4 -10.5,4 C 0.8339,292.4 1.333,282.6 2,273 z"
       style="fill:#fcfcfc" />
    <path
       id="path1285"
       d="m 244,273 10.8,5.3 c 1.8,10.2 -6,17.5 -14.8,20.7 l -5.7,-2.2 c -0.7,-8 -2.2,-18.5 7.5,-21 L 244,273 z"
       style="fill:#fdfdfd" />
    <path
       id="path1284"
       d="m 353,273 13.8,3.3 c 1.2,9.6 -0.3,18.3 -10.8,21.7 l -11.7,-5.2 c -0.5,-4.5 -0.5,-9.1 0,-13.5 L 353,273 z"
       style="fill:#fdfefe" />
    <path
       id="path1283"
       d="m 138,274 c 3,0.2 5.3,2.7 7.8,4.3 l -7,16.5 c -9,0.2 -12.9,-7.3 -15.8,-14.8 3.8,-3.7 11,-3 15,-6 z"
       style="fill:#fdfdfd" />
    <path
       id="path1282"
       d="m 266,274 c 8.8,3.6 10.5,16.2 15,24 l -10.2,4.8 c -5.4,-3 -10,-7.6 -14.5,-12 -0.6,-7.2 2,-14.8 9.7,-16.8 z"
       style="fill:#fdfefe" />
    <path
       id="path1281"
       d="m 374,274 c 11.6,-0.7 8.7,14.4 11.8,21.8 -6.1,4.2 -11.2,-1 -16.5,-4 0.3,-6.9 -1.9,-14.4 4.7,-17.8 z"
       style="fill:#fdfdfd" />
    <path
       id="path1280"
       d="m 596,274 c 1.2,-0.3 2.1,0.4 2.8,1.3 l -1,17.5 c -3.7,-1.4 -7.6,-2.4 -11.5,-3 -0.5,-3.8 -0.5,-7.8 0,-11.5 L 596,274 z"
       style="fill:#fcfdfd" />
    <path
       id="path1279"
       d="m 311,275 3.8,1.3 c 0,6.5 -0.6,13.7 -2,19.5 l -16.5,-5 c -1.9,-10.1 8.3,-11.9 14.7,-15.8 z"
       style="fill:#fdfdfd" />
    <path
       id="path1278"
       d="m 444,275 c 3.6,1.8 6.8,4.3 9.8,7.3 l -9,19.5 c -5.1,-2.9 -10.2,-7 -13.8,-11.8 l 1,-3 c -2.2,-8.6 7.9,-8.1 12,-12 z"
       style="fill:#fdfefe" />
    <path
       id="path1277"
       d="m 47,276 17.75,5.3 -5,15.5 -11.5,3 L 38,290 c -0.28,-6 6.18,-9.3 9,-14 z"
       style="fill:#fdfefe" />
    <path
       id="path1276"
       d="m 111,276 c 8.7,1.1 12.7,9.6 15,17 l -14,8 c -8.5,-2.9 -5.4,-15.6 -7.7,-22.7 L 111,276 z"
       style="fill:#fdfdfd" />
    <path
       id="path1275"
       d="m 177,276 12,9 -3.2,10.8 -11.8,3.2 c -7.4,-1.5 -5.7,-11.3 -7.7,-16.7 L 177,276 z"
       style="fill:#fdfefe" />
    <path
       id="path1274"
       d="m 218,276 c 4.7,0.5 8.6,3.3 12.8,5.3 -0.1,7.5 3.2,18.2 -6.8,19.7 -9.3,-1.2 -10.1,-9.5 -12,-17 l 6,-8 z"
       style="fill:#fdfefe" />
    <path
       id="path1273"
       d="m 507,276 c 10.2,0.6 10.4,15.1 16,22 -2.1,3.7 -7.3,3 -10.2,5.8 l -12.5,-11 c 0.6,-6 1.1,-13.3 6.7,-16.8 z"
       style="fill:#fdfefe" />
    <path
       id="path1272"
       d="m 544,276 c 10.5,-0.5 22.6,16.1 12.3,22.3 l -2.5,3.5 -15.5,-8 5.7,-17.8 z"
       style="fill:#fdfefe" />
    <path
       id="path1271"
       d="m 13,277 c 9.1,-1.7 17.48,5.5 22,12 -5.28,4.5 -11.24,11.8 -18.75,8.8 L 13,277 z"
       style="fill:#fdfefe" />
    <path
       id="path1270"
       d="m 96,277 4.8,1.3 4.2,20.7 c -2.7,3.4 -7.2,5.4 -10.75,7.8 -9.88,-3.5 -8.94,-13.6 -8,-22.5 L 96,277 z"
       style="fill:#fdfdfd" />
    <path
       id="path1269"
       d="m 488,277 c 4.1,0.3 8.4,1 11.8,3.3 -0.1,8 -4.8,14.6 -12,18.5 -6.5,-4.1 -17.4,-7 -14.5,-16.5 4.9,-1.6 10.6,-2.9 14.7,-5.3 z"
       style="fill:#fdfefe" />
    <path
       id="path1268"
       d="m 150,278 c 5,0.2 9.6,2.6 13.8,5.3 0.5,4.8 1.6,9.2 3.2,13.7 l -3.2,3.8 -21.5,-5 c 1.2,-6 3.6,-13.4 7.7,-17.8 z"
       style="fill:#fdfefe" />
    <path
       id="path1267"
       d="m 197,281 c 4.3,1.2 9,1.7 12.8,4.3 l 3,12.5 -13,6 L 189,295 c 1.8,-5.2 2,-12 8,-14 z"
       style="fill:#fdfdfd" />
    <path
       id="path1266"
       d="m 68,282 14.75,3.3 c -0.16,4.9 1.63,11.2 -1,15.5 L 71,304 63.25,296.8 c 1.32,-5 2.74,-10 4.75,-14.8 z"
       style="fill:#fdfdfd" />
    <path
       id="path1265"
       d="m 456,283 c 5.5,0.2 10.3,-0.3 14.8,2.3 1.8,6.3 -4.2,11.4 -8,16.5 l -12.5,-1 5.7,-17.8 z"
       style="fill:#fdfdfd" />
    <path
       id="path1264"
       d="m 585,292 12.8,3.3 c 1.3,7.5 1.1,13.6 0,21.5 -14.9,8.7 -25.4,-18 -12.8,-24.8 z"
       style="fill:#fdfefe" />
    <path
       id="path1263"
       d="m 35,293 c 5.05,0.7 7.15,6.3 11,9 0.42,7.4 -3.96,14.1 -11,18 -9.85,-1.2 -10.06,-10.9 -10.75,-18.7 L 35,293 z"
       style="fill:#fdfefe" />
    <path
       id="path1262"
       d="m 429,293 12.8,11.3 c -0.1,3.8 -0.6,7.8 -2,11.5 -6.3,2.3 -12.2,4.1 -18.5,1 -0.5,-6.5 -0.5,-13.1 0,-19.5 2.5,-1.4 5.8,-2.3 7.7,-4.3 z"
       style="fill:#fdfefe" />
    <path
       id="path1261"
       d="m 253,294 c 5.9,1.3 10.1,7.2 14.8,11.3 l -7,15.5 C 249.9,321.1 246.9,309.4 244,301 l 9,-7 z"
       style="fill:#fdfdfd" />
    <path
       id="path1260"
       d="m 294,294 c 6.6,1.4 13.6,2.6 19.8,5.3 1.7,4.9 -2.4,12.1 -6,15.5 C 297.2,319 288.5,309.5 286,300 l 8,-6 z"
       style="fill:#fdfefe" />
    <path
       id="path1259"
       d="m 367,294 10.8,6.3 c -3.3,6.6 -1.9,18.4 -11.5,19.5 -5.5,-5.1 -5.3,-13.2 -8,-19.5 L 367,294 z"
       style="fill:#fdfdfd" />
    <path
       id="path1258"
       d="m 404,294 13.8,3.3 c 0.4,6.4 0.4,13 0,19.5 -6.2,4.4 -12,2.1 -17.5,-2 -1,-7.1 -3.6,-15.6 3.7,-20.8 z"
       style="fill:#fdfefe" />
    <path
       id="path1257"
       d="m 472,294 13.8,7.3 c 0.4,4.7 0.4,9.7 0,14.5 L 475,320 c -7,-2.3 -6.5,-10.8 -10,-16 l 7,-10 z"
       style="fill:#fdfdfd" />
    <path
       id="path1256"
       d="m 128,295 9.8,2.3 c 0.8,5.3 -0.3,9.6 -1,14.5 l -13.5,8 c -3.2,-5.3 -6.3,-11 -8.3,-16.8 l 13,-8 z"
       style="fill:#fdfdfd" />
    <path
       id="path1255"
       d="m 343,295 12.8,6.3 4,15.5 c -7.6,0.7 -12.6,-0.6 -19.5,-1 L 336,303 l 7,-8 z"
       style="fill:#fdfdfd" />
    <path
       id="path1254"
       d="m 497,295 c 5.5,1.6 8.7,6.9 12.8,11.3 -2.5,5.3 -3.1,12.7 -10,14.5 l -10.5,-5 c -1.6,-8.6 -0.6,-17.2 7.7,-20.8 z"
       style="fill:#fdfefe" />
    <path
       id="path1253"
       d="m 536,296 15.8,8.3 c 2.1,8 -4.1,12.4 -10.8,15.7 -10.1,-0.5 -9,-12.9 -12.7,-19.7 2.5,-1.4 5.8,-2.3 7.7,-4.3 z"
       style="fill:#fdfdfd" />
    <path
       id="path1252"
       d="m 562,296 13.8,2.3 3,15.5 -14,8 -10.5,-8 c -0.4,-5.5 0,-11.7 5.5,-14 -0.3,-2.2 3,-1.4 2.2,-3.8 z"
       style="fill:#fdfefe" />
    <path
       id="path1251"
       d="m 141,298 19.8,5.3 -4,13.5 c -5.7,3.1 -12,-0.6 -16.5,-5 L 141,298 z"
       style="fill:#fdfdfd" />
    <path
       id="path1250"
       d="m 186,298 c 4.2,1.9 8.2,4.9 11.8,8.3 -1.4,5.3 -0.2,13.2 -5.8,16.7 -10,-2.3 -14.9,-11.3 -15.7,-20.7 L 186,298 z"
       style="fill:#fdfdfd" />
    <path
       id="path1249"
       d="m 386,298 c 11.5,-1.9 11.6,8.4 10.8,16.8 l -8.8,5.2 -11.7,-2.2 c 0.8,-7.2 1.9,-17.7 9.7,-19.8 z"
       style="fill:#fdfdfd" />
    <path
       id="path1248"
       d="m 59,299 c 4.32,0.5 7.41,4.8 10,8 -0.13,6.3 -3.5,11.2 -9.75,12.8 l -12,-7 c 0.4,-3.4 0.45,-7.3 2,-10.5 L 59,299 z"
       style="fill:#fdfefe" />
    <path
       id="path1247"
       d="m 13,300 c 10.8,-2 9.23,9.9 10.75,16.8 l -13.5,6 c -8.968,-2.8 -9.3707,-10 -9,-16.5 L 13,300 z"
       style="fill:#fdfefe" />
    <path
       id="path1246"
       d="m 168,300 c 8.4,0 6.5,10.2 8.8,15.8 l -12.8,5.2 -4.7,-3.2 c 2.5,-6.1 3.6,-13 8.7,-17.8 z"
       style="fill:#fcfdfd" />
    <path
       id="path1245"
       d="m 214,300 8.8,3.3 c 0.4,8.4 1.2,17.7 -7.8,21.7 l -16.7,-5.2 c 0.9,-4.3 1.2,-9.3 3,-13.5 L 214,300 z"
       style="fill:#fdfefe" />
    <path
       id="path1244"
       d="m 232,300 c 10.5,-1.1 13.2,11.2 16,19 l -11.2,6.8 -11.5,-6 c 0.2,-7.8 -1.9,-17 6.7,-19.8 z"
       style="fill:#fdfefe" />
    <path
       id="path1243"
       d="m 282,301 c 3.1,3.4 6.5,8.1 7,13 -5.3,5.6 -11.2,15.9 -19.2,9.3 -2.1,-0.2 -3.8,-0.6 -5.5,-1.5 0.8,-5.7 3.9,-11.5 7,-16.5 3.6,-1.2 7.8,-2.5 10.7,-4.3 z"
       style="fill:#fdfdfd" />
    <path
       id="path1242"
       d="m 524,301 1.8,0.3 6,17.5 c -3,2.6 -6.3,5 -9.5,7 l -14,-8 c 1.1,-9.3 8,-13.7 15.7,-16.8 z"
       style="fill:#fdfefe" />
    <path
       id="path1241"
       d="m 106,302 c 8.2,0.8 9.8,11.7 12.8,17.8 l -15.5,4 -8.05,-7 C 92.78,308.5 102,306.6 106,302 z"
       style="fill:#fdfefe" />
    <path
       id="path1240"
       d="m 82,303 c 5,1.4 12.48,5 10.75,10.8 -3.04,4.7 -8.65,8.2 -13.75,10.2 -3.28,-2.5 -6.55,-5.7 -9,-9 1.11,-4.7 1.24,-11 8,-10 l 4,-2 z"
       style="fill:#fcfdfd" />
    <path
       id="path1239"
       d="m 317,303 16.8,0.3 3,14.5 c -4.3,3.9 -8.9,7.4 -13.8,10.2 L 312.3,315.8 317,303 z"
       style="fill:#fdfefe" />
    <path
       id="path1238"
       d="m 447,303 15.8,2.3 4,12.5 -15.5,6 -8,-7 c 0.6,-4.5 -0.4,-11.1 3.7,-13.8 z"
       style="fill:#fdfefe" />
    <path
       id="path1237"
       d="m 138,314 c 7.1,2.9 11.3,8.6 7,16 0.1,5.8 -0.8,12.9 -8,13 -8.6,-3.4 -11.3,-12.8 -11.7,-20.7 L 138,314 z"
       style="fill:#fdfefe" />
    <path
       id="path1236"
       d="m 45,315 c 4.46,2.1 8.68,4.5 12.75,7.3 0.71,8.3 -1.84,16.4 -11,18.5 -8.21,-3.3 -14.18,-18.9 -4,-23 L 45,315 z"
       style="fill:#fdfefe" />
    <path
       id="path1235"
       d="m 292,315 6.8,3.3 c -2.3,6.8 0.1,17.7 -6.8,21.7 -6.8,0.3 -9.5,-6.4 -11.7,-11.7 L 292,315 z"
       style="fill:#fdfefe" />
    <path
       id="path1234"
       d="m 552,316 c 7.5,4.1 14,10.1 10.8,19.8 L 551,339 c -8.9,-1.3 -6.8,-10.4 -7.7,-16.7 L 552,316 z"
       style="fill:#fdfdfd" />
    <path
       id="path1233"
       d="m 580,316 c 7.4,2 9.5,8.5 6,15 0.7,7.2 -2.1,13.5 -10,13 -7.8,-3.3 -12.3,-11.3 -9.7,-19.7 L 580,316 z"
       style="fill:#fdfefe" />
    <path
       id="path1232"
       d="m 307,317 c 6.9,1 9.5,9.5 14,14 1.9,6.8 -5,9.6 -9.2,12.8 l -13.5,-5 c 2.6,-7.4 -0.8,-19.7 8.7,-21.8 z"
       style="fill:#fdfefe" />
    <path
       id="path1231"
       d="m 398,317 9.8,5.3 c 1.3,9 -1,17.6 -10.5,20.5 l -3,-1 -4.3,-18.8 8,-6 z"
       style="fill:#fcfdfd" />
    <path
       id="path1230"
       d="m 177,318 c 4.6,2.1 9.7,5 13,9 -0.3,9.8 -10.7,13.2 -18.7,11.8 -5.4,-2.8 -4.2,-10.7 -6,-15.5 L 177,318 z"
       style="fill:#fdfefe" />
    <path
       id="path1229"
       d="m 440,318 c 7.5,3.6 10.9,10.6 8.8,19.8 -6.1,0.4 -12.5,0.4 -18.5,0 -0.7,-6.5 0.4,-10.5 1,-16.5 2.9,-1 6.6,-1.5 8.7,-3.3 z"
       style="fill:#fdfefe" />
    <path
       id="path1228"
       d="m 486,318 c 4.4,0.7 7.8,3.3 11.8,5.3 -0.1,7.9 1.7,18.1 -8,20.5 l -13.5,-8 c -0.5,-4.5 -0.5,-9.1 0,-13.5 L 486,318 z"
       style="fill:#fdfefe" />
    <path
       id="path1227"
       d="m 24,319 c 9.98,-0.3 12.38,8.7 12.75,16.8 l -16.5,7 c -7.05,-3.2 -8.1,-10.9 -8,-17.5 3.91,-2 8.57,-3.6 11.75,-6.3 z"
       style="fill:#fdfdfd" />
    <path
       id="path1226"
       d="m 66,319 c 9.67,0.1 17.64,15.9 6,20 L 59.25,334.8 C 59.81,329.5 59.36,321.2 66,319 z"
       style="fill:#fdfdfd" />
    <path
       id="path1225"
       d="m 92,319 c 10.2,0.7 13,20.5 1,22 L 80.25,335.8 C 77.97,327.1 86.68,323.2 92,319 z"
       style="fill:#fdfdfd" />
    <path
       id="path1224"
       d="m 339,319 c 9.5,0.9 17.8,-1.3 25.8,3.3 1.1,9.2 -3.5,17.3 -11.8,21.7 -5.5,-7.5 -9.5,-16.6 -14,-25 z"
       style="fill:#fdfefe" />
    <path
       id="path1223"
       d="m 418,319 9.8,2.3 c -0.3,7.7 1.9,17.3 -5,21.5 l -12.5,-6 1,-14.5 6.7,-3.3 z"
       style="fill:#fdfefe" />
    <path
       id="path1222"
       d="m 151,320 1.8,0.8 c 10.8,-3.8 10.7,10.8 13.2,17.2 l -11.2,7.8 -8.5,-4 c 1.2,-6.5 1.3,-15.3 4.7,-21.8 z"
       style="fill:#fdfdfd" />
    <path
       id="path1221"
       d="m 372,320 14.8,2.3 c 2.1,5.9 2.7,12.5 4,18.5 -8.7,4.7 -17.1,-0.4 -24.5,-5 1,-5.5 -0.5,-13.5 5.7,-15.8 z"
       style="fill:#fdfefe" />
    <path
       id="path1220"
       d="m 468,320 c 7.9,0.4 4.4,10.5 4.8,15.8 -5.7,5.1 -11.9,10.9 -19.5,6 -2.3,-4.7 -1.1,-10.5 -1,-15.5 L 468,320 z"
       style="fill:#fdfefe" />
    <path
       id="path1219"
       d="m 506,320 14.8,8.3 c 0.4,4.4 0.4,9 0,13.5 l -9,4 -11.5,-6 c 0.2,-7.2 -1.8,-16.5 5.7,-19.8 z"
       style="fill:#fdfefe" />
    <path
       id="path1218"
       d="m 594,320 c 1.7,0.1 3.7,-0.5 4.8,1.3 l -1,26.5 -10.5,-5 c 2,-7.2 0.1,-18.8 6.7,-22.8 z"
       style="fill:#fcfcfc" />
    <path
       id="path1217"
       d="m 2,321 c 7.752,2.3 8.57,9.9 8.75,16.8 l -8.5,4 C 0.8344,335.1 1.334,328 2,321 z"
       style="fill:#fcfdfd" />
    <path
       id="path1216"
       d="m 250,321 9.8,2.3 c 1.3,10.1 -4.2,20.1 -14.8,23.7 -6.1,-4 -8.6,-10.5 -6.7,-18.7 L 250,321 z"
       style="fill:#fdfdfd" />
    <path
       id="path1215"
       d="m 533,321 c 9.5,-1.3 8,9.3 8.8,15.8 l -10.8,7.2 -6.7,-2.2 c -0.5,-4.5 -0.5,-9.1 0,-13.5 L 533,321 z"
       style="fill:#fdfefe" />
    <path
       id="path1214"
       d="m 119,322 c 6.2,0.2 3.8,9.7 5.8,13.8 l -17.5,8 c -8.13,-2.8 -4.1,-11.6 -3,-17.5 5,-1 10.5,-2.3 14.7,-4.3 z"
       style="fill:#fdfefe" />
    <path
       id="path1213"
       d="m 223,322 c 7.7,2.8 15.3,7 11.8,16.8 l -17.5,5 C 216.9,335.9 214.8,326 223,322 z"
       style="fill:#fdfdfd" />
    <path
       id="path1212"
       d="m 336,322 c 5.8,5.9 8.7,14.6 12.8,21.8 -9.4,2.2 -17.4,-2 -24.5,-7 -2.6,-8.1 8,-10 11.7,-14.8 z"
       style="fill:#fdfefe" />
    <path
       id="path1211"
       d="m 196,323 17.8,4.3 c 0.4,5 0.4,10.4 0,15.5 -9.2,0.8 -18.7,1.4 -23.5,-6 0.7,-4.9 1.6,-10.2 5.7,-13.8 z"
       style="fill:#fdfefe" />
    <path
       id="path1210"
       d="m 263,325 c 8.5,0.3 18.7,5 18.8,14.8 l -10.5,6 -10,-8 c 0.3,-4.1 0.2,-8.8 1.7,-12.8 z"
       style="fill:#fdfdfd" />
    <path
       id="path1209"
       d="m 38,338 c 7.91,3.5 8.34,11.3 7.75,18.8 -7.29,5.7 -15.17,3.2 -23.5,2 -3.06,-4.4 0.27,-8.8 0,-13.5 L 38,338 z"
       style="fill:#fdfefe" />
    <path
       id="path1208"
       d="m 57,338 13.75,3.3 c 0.99,6.7 -0.56,12.1 -1,18.5 L 58,363 C 49.35,359.6 46.71,351.9 48.25,343.3 L 57,338 z"
       style="fill:#fdfefe" />
    <path
       id="path1207"
       d="m 78,338 11.75,5.3 C 87.63,350 85.86,357.9 83,364 l -9.75,-4.2 C 73.66,351.6 71.28,343.3 78,338 z"
       style="fill:#fdfdfd" />
    <path
       id="path1206"
       d="m 125,338 c 3.7,1.2 5.9,4.7 8.8,7.3 -3.5,5.5 -3.9,13.2 -8.8,17.7 l -15.7,-5.2 -1,-11.5 16.7,-8.3 z"
       style="fill:#fefefe" />
    <path
       id="path1205"
       d="m 187,338 c 8.6,3.2 9,13 7.8,21.8 l -9.8,3.2 -3.7,-1.2 c -0.8,-7 -1.8,-12.8 -1,-20.5 L 187,338 z"
       style="fill:#fdfefe" />
    <path
       id="path1204"
       d="m 364,338 13.8,7.3 c -0.2,6.1 -0.6,13 -2,18.5 L 363,368 c -9,-4 -8.2,-13.3 -7.7,-21.7 L 364,338 z"
       style="fill:#fdfefe" />
    <path
       id="path1203"
       d="m 474,338 13.8,8.3 c -2,6.5 -1.1,16.4 -9.8,17.7 -8.9,-1.9 -10.9,-10.6 -13.7,-17.7 L 474,338 z"
       style="fill:#fdfefe" />
    <path
       id="path1202"
       d="m 563,338 9.8,8.3 -7,15.5 c -4.1,0.4 -8.5,0.4 -12.5,0 -0.5,-6.8 -0.5,-13.8 0,-20.5 L 563,338 z"
       style="fill:#fdfefe" />
    <path
       id="path1201"
       d="m 408,339 13.8,6.3 c 0.6,4.2 3.1,9.7 1,13.5 -7.1,0.9 -13.8,5.1 -20.5,1 -1.7,-4.7 -2.5,-9.8 -3,-14.5 L 408,339 z"
       style="fill:#fdfefe" />
    <path
       id="path1200"
       d="m 543,339 c 11.9,0.4 5.6,15.7 6.8,23.8 L 547,364 c -10.1,-0.5 -11.8,-9.9 -13.7,-17.7 L 543,339 z"
       style="fill:#fdfdfd" />
    <path
       id="path1199"
       d="m 12,340 c 13.79,5.7 6.04,30.6 -8.75,23.8 -3.9315,-5.3 -0.452,-11.8 -2,-17.5 L 12,340 z"
       style="fill:#fdfdfd" />
    <path
       id="path1198"
       d="m 259,340 3.3,2.8 c 8.3,2.2 8.6,10.5 6.5,17 l -10.5,4 c -4.2,-4.1 -9.4,-7 -11.3,-12.8 l 12,-11 z"
       style="fill:#fdfefe" />
    <path
       id="path1197"
       d="m 321,340 c 5.1,-0.8 8.1,4.2 12.8,5.3 l -5,14.5 C 314.4,365.1 308.6,345.7 321,340 z"
       style="fill:#fdfefe" />
    <path
       id="path1196"
       d="m 167,341 c 3.8,0 6.7,0 9.8,1.3 -0.2,8.3 5.8,21 -5.8,24.7 l -2.7,-0.2 C 164.3,361 156.7,357.4 156,349 l 11,-8 z"
       style="fill:#fdfdfd" />
    <path
       id="path1195"
       d="m 284,341 5.8,1.3 -1,17.5 -8.5,4 -8,-4 c -1,-7 0.5,-14.1 8.5,-16 L 284,341 z"
       style="fill:#fdfefe" />
    <path
       id="path1194"
       d="m 295,341 15.8,5.3 c 0.6,3.4 1.6,5.7 1,9.5 l -12,8 c -11.5,-1.8 -7.1,-13.9 -6.5,-21.5 0.5,-0.5 1.9,-0.1 1.7,-1.3 z"
       style="fill:#fdfefe" />
    <path
       id="path1193"
       d="m 429,341 20.8,0.3 c 1.3,6.4 -6.2,12.5 -9,18.5 l -4.5,0.5 C 424.8,365.5 421.7,344.7 429,341 z"
       style="fill:#fdfdfd" />
    <path
       id="path1192"
       d="m 98,342 c 8.7,0.8 8.3,11.9 8.8,17.8 -4.8,7.6 -12.04,7.6 -19.55,5 l 5,-20.5 L 98,342 z"
       style="fill:#fdfdfd" />
    <path
       id="path1191"
       d="m 235,342 c 4.2,1.8 8.1,6 9,10 l -15,12 c -2.8,-1.5 -5.6,-2.6 -8.7,-3.2 -1.5,-4.2 -1.5,-9.4 -2,-13.5 L 235,342 z"
       style="fill:#fdfdfd" />
    <path
       id="path1190"
       d="m 498,342 11.8,6.3 c 0.5,6.1 -0.3,10 -1,15.5 l -9,5 -12.5,-7 c 1.5,-7.5 2.1,-17.2 10.7,-19.8 z"
       style="fill:#fdfdfd" />
    <path
       id="path1189"
       d="m 142,344 c 6.5,0.9 13.2,4.7 13,12 l -11.2,11.8 -13.5,-5 c 1.8,-6.9 3.7,-17.6 11.7,-18.8 z"
       style="fill:#fdfefe" />
    <path
       id="path1188"
       d="m 389,344 c 9.8,-2.1 7.7,9.3 10,15 l -10.2,8.8 -9.5,-4 c 1.4,-6.5 -2.4,-21.1 8.7,-18.8 l 1,-1 z"
       style="fill:#fdfdfd" />
    <path
       id="path1187"
       d="m 521,344 c 10.4,-0.8 11.7,9.1 13.8,16.8 l -14.5,7 -8,-4 c -0.6,-6.2 0.2,-10.1 1,-15.5 2.5,-1.4 5.8,-2.3 7.7,-4.3 z"
       style="fill:#fdfdfd" />
    <path
       id="path1186"
       d="m 453,345 c 9.4,-0.9 11,7.9 13.8,14.8 l -14,9 -8.8,-8.8 9,-15 z"
       style="fill:#fdfdfd" />
    <path
       id="path1185"
       d="m 582,345 c 6,0.7 12.8,4 16.8,8.3 0.2,7.2 -10.2,9 -15,13.5 l -13.5,-6 c 3,-6.3 3.4,-15.8 11.7,-15.8 z"
       style="fill:#fdfefe" />
    <path
       id="path1184"
       d="m 198,346 16.8,0.3 c 1.4,4.6 1.6,9.7 2,14.5 l -8.5,5 -10,-6 L 198,346 z"
       style="fill:#fdfefe" />
    <path
       id="path1183"
       d="m 337,347 14.8,0.3 c 0,5.4 3.1,11.2 0,16.5 l -11.8,5.2 -8.7,-8.2 c 2,-4.5 4.4,-9 5.7,-13.8 z"
       style="fill:#fdfefe" />
    <path
       id="path1182"
       d="m 244,356 c 5.6,1 7.2,6.9 11.8,9.3 -0.1,7.1 0.1,16.6 -9,17.5 C 239.1,379.7 231,376.4 231,367 l 13,-11 z"
       style="fill:#fdfefe" />
    <path
       id="path1181"
       d="m 47,359 c 13.73,4.3 10.88,23.1 -1,28 l -9.75,-3.2 C 37.84,374.4 35.62,362.2 47,359 z"
       style="fill:#fdfdfd" />
    <path
       id="path1180"
       d="m 156,359 12,11 c 0.1,4.2 -0.4,7.1 -1.2,10.8 L 154,387 c -6.8,-2.5 -4.8,-11.6 -8,-17 l 10,-11 z"
       style="fill:#fdfefe" />
    <path
       id="path1179"
       d="m 311,359 c 10.2,-0.1 4.8,14.7 5.8,21.8 L 308,384 c -8.6,-0.6 -5.5,-11.6 -6.7,-17.7 L 311,359 z"
       style="fill:#fdfdfd" />
    <path
       id="path1178"
       d="m 20,361 15.75,3.3 c -1.66,6.4 0.26,14.9 -4,20.5 -10.74,3.8 -15.74,-9.3 -17.5,-17.5 L 20,361 z"
       style="fill:#fdfefe" />
    <path
       id="path1177"
       d="m 423,361 c 2.2,-0.3 4.2,0.8 5.8,2.3 -0.9,7.1 1.9,25.9 -10.8,21.7 l -5.7,-0.2 c -1.5,-6.2 -1.6,-13.3 -2,-19.5 3.4,-3.2 9.4,-1.7 12.7,-4.3 z"
       style="fill:#fdfefe" />
    <path
       id="path1176"
       d="m 597,361 c 3.5,7.8 0.3,16.5 1.8,24.8 L 597,387 c -9.7,-0.3 -8.8,-10.4 -12,-17 l 12,-9 z"
       style="fill:#fcfdfd" />
    <path
       id="path1175"
       d="m 70,362 10.75,4.3 c -2.42,6.4 -1.18,16 -7,20.5 l -15.5,-7 1,-14.5 c 3.67,-0.7 7.88,-1.7 10.75,-3.3 z"
       style="fill:#fdfdfd" />
    <path
       id="path1174"
       d="m 108,362 15.8,3.3 c -0.2,5.9 1.6,13.2 -1,18.5 -5.9,1.7 -11.9,3.1 -17.5,0 C 104,379.1 103,374.4 101,370 l 7,-8 z"
       style="fill:#fdfefe" />
    <path
       id="path1173"
       d="m 196,362 10.8,6.3 c 0.8,8 -2.6,15.7 -10.5,18.5 -5.8,-4.8 -4.1,-14.8 -6,-21.5 1.9,-1 4.5,-1.6 5.7,-3.3 z"
       style="fill:#fdfefe" />
    <path
       id="path1172"
       d="m 269,362 9.8,4.3 c 0.4,4 0.4,8.4 0,12.5 l -12.5,7 -9,-6 2,-13.5 9.7,-4.3 z"
       style="fill:#fdfdfd" />
    <path
       id="path1171"
       d="m 290,362 c 10.8,2.1 9.1,12.8 9.8,20.8 l -4,3 -13.5,-7 c -0.5,-4.1 -0.5,-8.5 0,-12.5 2.5,-1.4 5.8,-2.3 7.7,-4.3 z"
       style="fill:#fdfdfd" />
    <path
       id="path1170"
       d="m 400,362 6.8,2.3 c 0,7.8 6.4,19.6 -3,24.5 l -12.5,-7 c -0.4,-4.2 -1.8,-7.1 -1,-11.5 L 400,362 z"
       style="fill:#fdfefe" />
    <path
       id="path1169"
       d="m 468,362 c 11.1,1.7 7.1,12.2 4.8,19.8 l -15.5,3 c -4.1,-2.9 -3,-8.6 -3,-13.5 L 468,362 z"
       style="fill:#fdfefe" />
    <path
       id="path1168"
       d="m 218,363 c 7.7,0.9 12.5,5.2 13,13 -3.2,3.9 -7,8.1 -11.2,10.8 -3.5,-2.4 -7.6,-4.3 -11.5,-6 -0.6,-7.9 2.4,-14.8 9.7,-17.8 z"
       style="fill:#fdfefe" />
    <path
       id="path1167"
       d="m 320,363 c 8,-2.1 13.8,2.9 18,9 l -5.2,11.8 -12.5,-3 L 320,363 z"
       style="fill:#fdfdfd" />
    <path
       id="path1166"
       d="m 434,363 c 10.7,-1.7 20.8,9.9 17.8,20.8 -6.9,5.6 -14.1,0.3 -21.5,-1 0.8,-6.3 -1,-15 3.7,-19.8 z"
       style="fill:#fdfefe" />
    <path
       id="path1165"
       d="m 536,363 8.8,3.3 c -0.4,5.5 -0.4,11.6 -2,17.5 l -11.5,5 c -6.5,-4 -9.6,-10.6 -9,-18.5 L 536,363 z"
       style="fill:#fefefe" />
    <path
       id="path1164"
       d="m 568,363 c 5,2 10.2,4.2 14.8,7.3 l 3,14.5 c -5.1,-0.3 -9.9,3.6 -14.5,1 -1.8,-7.3 -4.5,-15.7 -3.3,-22.8 z"
       style="fill:#fdfdfd" />
    <path
       id="path1163"
       d="m 484,364 c 5,1.2 9.3,4.6 13.8,7.3 l -1,14.5 -13.5,4 c -9.7,-5.5 -6.7,-15.1 -4,-23.5 L 484,364 z"
       style="fill:#fdfefe" />
    <path
       id="path1162"
       d="m 127,365 c 5.7,1.7 11.6,3.3 16.8,6.3 0,5.1 4.1,9.2 3,14.5 -6.1,-1.1 -14.4,4.1 -19.5,-2 L 127,365 z"
       style="fill:#fefefe" />
    <path
       id="path1161"
       d="m 179,365 c 12.2,-2.8 9.1,12.4 11.8,19.8 -6.9,1.7 -15.1,2.2 -20.5,-4 -1.8,-7.7 2.7,-12.7 8.7,-15.8 z"
       style="fill:#fdfefe" />
    <path
       id="path1160"
       d="m 354,365 c 8.3,3.4 11.1,15.4 6.8,21.8 -8.5,0.4 -17.1,0.4 -25.5,0 1.9,-10.1 9.6,-17.9 18.7,-21.8 z"
       style="fill:#fdfefe" />
    <path
       id="path1159"
       d="m 550,365 14.8,1.3 c -0.3,6.5 3.9,13.8 2,19.5 -7.2,-0.1 -15.3,5.2 -20.5,-2 1,-6.1 -1,-14.6 3.7,-18.8 z"
       style="fill:#fdfefe" />
    <path
       id="path1158"
       d="m 2,366 9.75,2.3 4,12.5 -13.5,9 C 0.9571,381.3 1.272,374.4 2,366 z"
       style="fill:#fcfdfd" />
    <path
       id="path1157"
       d="m 376,366 10.8,4.3 c 0.9,5.2 3.5,13.5 -4.5,15 l -4.5,3.5 -11.5,-5 c -2,-4.6 -1.6,-9.3 -2,-13.5 3.9,-1.3 8.6,-2.2 11.7,-4.3 z"
       style="fill:#fdfefe" />
    <path
       id="path1156"
       d="m 510,366 9.8,5.3 1,10.5 -17.5,7 c -0.9,-1 -1.7,-1.9 -3,-2 -1,-5.8 0.5,-10.2 1,-15.5 L 510,366 z"
       style="fill:#fdfdfd" />
    <path
       id="path1155"
       d="m 84,367 c 4.95,1 10.07,1.1 14.75,3.3 l 4.05,14.5 c -2.7,2.3 -4.85,5.5 -8.05,7 l -15.5,-6 C 80.53,379.6 81.99,373.1 84,367 z"
       style="fill:#fdfdfd" />
    <path
       id="path1154"
       d="m 233,379 11.8,6.3 -5,13.5 c -5.6,-1.6 -11.6,1.9 -16.5,-2 -4.2,-8.1 4.8,-13.1 9.7,-17.8 z"
       style="fill:#fdfefe" />
    <path
       id="path1153"
       d="m 280,381 13.8,7.3 -5,10.5 -18.5,-1 -2,-9.5 11.7,-7.3 z"
       style="fill:#fdfdfd" />
    <path
       id="path1152"
       d="m 56,382 15.75,7.3 -2,8.5 -18.5,1 c -2.11,-2.7 -2.37,-6.5 -3,-9.5 L 56,382 z"
       style="fill:#fdfdfd" />
    <path
       id="path1151"
       d="m 254,382 c 7.4,1.8 15.5,9.2 12.8,16.8 l -22.5,-1 c 1.9,-6.4 2.4,-13.7 9.7,-15.8 z"
       style="fill:#fdfdfd" />
    <path
       id="path1150"
       d="m 17,383 c 7.48,2.7 10.38,9.6 4.75,15.8 -6.22,-0.4 -11.997,-0.7 -18.5,0 C -3.124,391.3 13.31,388.2 17,383 z"
       style="fill:#fdfdfd" />
    <path
       id="path1149"
       d="m 168,383 c 6.5,2.4 11,9.2 6.8,15.8 -6.3,-0.5 -12.3,-0.5 -18.5,0 -0.5,-3.1 -0.5,-6.5 0,-9.5 L 168,383 z"
       style="fill:#fdfdfd" />
    <path
       id="path1148"
       d="m 206,383 c 6.7,3.1 17.7,6.8 13.8,15.8 -6.8,-0.5 -12.9,-0.4 -19.5,0 -4.7,-7.2 -0.2,-12.1 5.7,-15.8 z"
       style="fill:#fdfdfd" />
    <path
       id="path1147"
       d="m 317,383 14.8,3.3 c 2,3.1 2,9.3 0,12.5 l -18.5,-1 -3,-11.5 6.7,-3.3 z"
       style="fill:#fdfdfd" />
    <path
       id="path1146"
       d="m 389,384 c 5.6,3.5 16,5.3 11.8,13.8 -7.2,1.2 -13.4,1.2 -20.5,0 -4.3,-7.9 4.8,-9.1 8.7,-13.8 z"
       style="fill:#fdfefe" />
    <path
       id="path1145"
       d="m 472,384 c 5.1,2.1 11.2,7.8 7.8,13.8 l -14.5,1 c -3.6,-2.1 -3.9,-7.6 -4,-11.5 L 472,384 z"
       style="fill:#fdfdfd" />
    <path
       id="path1144"
       d="m 521,384 c 5.2,2.8 9.5,7.2 6.8,13.8 -7.6,1.2 -13.7,1 -21.5,0 l -2,-6.5 16.7,-7.3 z"
       style="fill:#fdfdfd" />
    <path
       id="path1143"
       d="m 301,385 c 8,-0.7 7.5,7.4 9.8,12.8 l -16.5,1 c -0.4,-5.3 2.2,-11.1 6.7,-13.8 z"
       style="fill:#fdfdfd" />
    <path
       id="path1142"
       d="m 428,385 c 7.4,1.4 22,4 12.8,13.8 -5,-0.5 -9.6,-0.5 -14.5,0 -1.1,-4.5 -2.8,-10.1 1.7,-13.8 z"
       style="fill:#fdfdfd" />
    <path
       id="path1141"
       d="m 123,386 c 7.6,-0.7 8.7,8.7 4.8,12.8 -3.7,-0.5 -6.9,-0.5 -10.5,0 -5.1,-5.5 -1.2,-12.6 5.7,-12.8 z"
       style="fill:#fdfdfd" />
    <path
       id="path1140"
       d="m 365,386 c 5.3,3 13,4.4 12.8,11.8 l -16.5,1 c -0.7,-4.6 0.9,-9.2 3.7,-12.8 z"
       style="fill:#fdfdfd" />
    <path
       id="path1139"
       d="m 453,386 c 6.6,0.1 5.1,7.8 7.8,11.8 l -15.5,1 c -0.2,-5.8 1.9,-11.3 7.7,-12.8 z"
       style="fill:#fdfdfd" />
    <path
       id="path1138"
       d="m 543,386 c 5.5,0.8 10.1,8 6.8,12.8 l -19.5,-1 c -0.6,-8 8.2,-8.1 12.7,-11.8 z"
       style="fill:#fdfdfd" />
    <path
       id="path1137"
       d="m 32,387 c 7.72,0 15.73,1.8 15.75,10.8 l -20.5,1 C 25.34,395 26.98,387.2 32,387 z"
       style="fill:#fdfdfd" />
    <path
       id="path1136"
       d="m 104,387 7.8,1.3 c 0.2,3.4 2.7,7.2 0,10.5 -5,-0.5 -9.6,-0.5 -14.55,0 -2.17,-5.6 4.75,-7.7 6.75,-11.8 z"
       style="fill:#fdfdfd" />
    <path
       id="path1135"
       d="m 410,387 c 7.7,-0.8 16.8,3.2 11.8,11.8 -6,-0.4 -11.4,-0.5 -17.5,0 -2.6,-4.3 2.5,-9.2 5.7,-11.8 z"
       style="fill:#fdfdfd" />
    <path
       id="path1134"
       d="m 585,387 c 7.7,-0.1 16,3.3 13.8,10.8 -8.6,1.2 -16,1.2 -24.5,0 -0.5,-3.4 0.4,-5.4 1,-8.5 3.2,-0.5 7.4,-0.4 9.7,-2.3 z"
       style="fill:#fdfdfd" />
    <path
       id="path1133"
       d="m 77,388 c 5.13,3.3 16.83,2.6 16.75,9.8 l -20.5,1 c -0.5,-4 0.3,-8.9 3.75,-10.8 z"
       style="fill:#fdfdfd" />
    <path
       id="path1132"
       d="m 143,388 c 2.8,1.2 6.8,-1.3 9.8,1.3 0,3 1.3,7.1 -1,9.5 -6.3,-0.5 -12.3,-0.5 -18.5,0 -4.7,-8 3.6,-10.5 9.7,-10.8 z"
       style="fill:#fdfefe" />
    <path
       id="path1131"
       d="m 183,388 1.8,0.8 c 7.2,-4.4 14.3,3.7 11,10 -5.5,-0.6 -10.3,-0.4 -15.5,0 -2.6,-3.7 -2.1,-10.7 2.7,-10.8 z"
       style="fill:#fdfdfd" />
    <path
       id="path1130"
       d="m 497,388 c 3.6,1.4 7.6,7.2 4.8,10.8 -6.4,-0.5 -12.1,-0.5 -18.5,0 -3.8,-8.2 9.3,-8 13.7,-10.8 z"
       style="fill:#fdfdfd" />
    <path
       id="path1129"
       d="m 566,388 c 2.2,-0.4 3.9,0.4 5.8,1.3 0.1,3.6 0.4,6.7 -2,9.5 -5,-0.5 -9.6,-0.5 -14.5,0 -7.9,-8.9 5.5,-9.7 10.7,-10.8 z"
       style="fill:#fdfdfd" />
    <path
       id="path1128"
       d="m 336,390 23.8,0.3 c -0.9,2.4 -1.9,4.8 -2,7.5 l -21.5,1 -0.3,-8.8 z"
       style="fill:#fdfefe" />
  </g>
</svg>
