<?xml version="1.0" encoding="UTF-8" standalone="no"?>
<!-- Created with Inkscape (http://www.inkscape.org/) -->
<svg xmlns:dc="http://purl.org/dc/elements/1.1/" xmlns:cc="http://web.resource.org/cc/" xmlns:rdf="http://www.w3.org/1999/02/22-rdf-syntax-ns#" xmlns:svg="http://www.w3.org/2000/svg" xmlns="http://www.w3.org/2000/svg" xmlns:sodipodi="http://sodipodi.sourceforge.net/DTD/sodipodi-0.dtd" xmlns:inkscape="http://www.inkscape.org/namespaces/inkscape" id="svg2" sodipodi:version="0.32" inkscape:version="0.43+0.44pre4" width="700" height="413" version="1.0" sodipodi:docbase="C:\Documents and Settings\Molumen\Desktop" sodipodi:docname="zaz965.svg">
  <metadata id="metadata7">
    <rdf:RDF>
      <cc:Work rdf:about="">
        <dc:format>image/svg+xml</dc:format>
        <dc:type rdf:resource="http://purl.org/dc/dcmitype/StillImage"/>
        <dc:title>zaz 965</dc:title>
        <dc:date>23 06 2006</dc:date>
        <dc:creator>
          <cc:Agent>
            <dc:title>momo</dc:title>
          </cc:Agent>
        </dc:creator>
        <dc:subject>
          <rdf:Bag>
            <rdf:li>ZAZ</rdf:li>
            <rdf:li>zaporozhets</rdf:li>
            <rdf:li>car</rdf:li>
            <rdf:li>small</rdf:li>
            <rdf:li>soviet</rdf:li>
            <rdf:li>sovietic</rdf:li>
            <rdf:li>communist</rdf:li>
            <rdf:li>motor</rdf:li>
            <rdf:li>wheels</rdf:li>
            <rdf:li>wheel</rdf:li>
            <rdf:li>engine</rdf:li>
            <rdf:li>automobile</rdf:li>
            <rdf:li>door</rdf:li>
          </rdf:Bag>
        </dc:subject>
        <dc:description>ZAZ 965, a small sovietic car of the sixties</dc:description>
        <cc:license rdf:resource="http://web.resource.org/cc/PublicDomain"/>
      </cc:Work>
      <cc:License rdf:about="http://web.resource.org/cc/PublicDomain">
        <cc:permits rdf:resource="http://web.resource.org/cc/Reproduction"/>
        <cc:permits rdf:resource="http://web.resource.org/cc/Distribution"/>
        <cc:permits rdf:resource="http://web.resource.org/cc/DerivativeWorks"/>
      </cc:License>
    </rdf:RDF>
  </metadata>
  <defs id="defs5"/>
  <sodipodi:namedview inkscape:window-height="966" inkscape:window-width="1331" inkscape:pageshadow="2" inkscape:pageopacity="0.0" guidetolerance="10.0" gridtolerance="10.0" objecttolerance="10.0" borderopacity="1.0" bordercolor="#666666" pagecolor="#ffffff" id="base" inkscape:zoom="0.91283293" inkscape:cx="350" inkscape:cy="206.5" inkscape:window-x="112" inkscape:window-y="126" inkscape:current-layer="svg2"/>
  <path style="fill: black;" d="M 423.14058,381.1252 C 411.51209,379.63049 395.09743,370.99496 387.03371,362.12986 C 376.73305,350.80553 368.22715,334.36324 363.56506,316.76392 C 362.61803,313.18892 361.57261,309.96056 361.24189,309.58978 C 360.91117,309.219 356.42859,310.9065 351.28061,313.33978 C 341.07672,318.16281 336.70306,318.72763 324.64058,316.78008 C 318.15294,315.73262 298.78103,313.42775 257.14058,308.74893 C 242.56558,307.11124 225.69058,305.10247 219.64058,304.28498 C 213.59058,303.4675 200.76558,301.89842 191.14058,300.79815 C 181.51558,299.69787 171.591,298.56122 169.08596,298.27226 L 164.53134,297.74687 L 162.81546,304.89638 C 160.21552,315.72946 154.09152,327.60074 148.3163,333.00278 C 141.80251,339.09567 136.71866,341.54136 127.81417,342.86574 C 121.24187,343.84325 119.47708,343.72559 112.12475,341.81978 C 101.79863,339.14312 96.586839,336.12678 90.184859,329.12199 C 81.366679,319.47349 73.763519,299.71625 72.489289,283.13907 C 72.135219,278.53274 71.443989,274.76392 70.953219,274.76392 C 70.462449,274.76392 68.296759,275.66392 66.140579,276.76392 C 61.116369,279.32708 59.664269,279.28195 51.436069,276.30687 C 43.479199,273.42989 39.140579,269.313 39.140579,264.63974 C 39.140579,261.8035 38.923649,261.60155 36.523919,262.20384 C 27.369029,264.50158 27.750659,264.71709 26.672989,256.64084 C 26.138229,252.63323 26.398149,251.61127 28.625379,248.96436 C 30.038479,247.28499 32.503829,245.62341 34.103949,245.27197 L 37.013239,244.63298 L 36.419589,237.44845 C 35.984049,232.17737 35.147539,229.1986 33.278709,226.26392 C 31.001219,222.68751 30.754259,221.36379 30.946639,213.76392 C 31.197059,203.87131 32.733489,195.29607 34.574709,193.51459 C 35.285649,192.82672 37.733059,190.71777 40.013409,188.82803 C 42.293749,186.93829 45.469339,183.0712 47.070279,180.2345 C 50.529769,174.10462 53.529539,171.19181 66.140579,161.71707 C 76.744689,153.75014 74.655129,157.07339 91.261929,121.76392 C 94.495379,114.88892 97.793889,108.13892 98.591929,106.76392 C 99.389979,105.38892 100.99911,102.52729 102.16778,100.40473 C 105.34081,94.641831 118.84617,81.572551 125.37221,77.949541 C 131.89801,74.326671 149.83394,67.399141 158.09281,65.311611 C 164.42962,63.709911 200.12323,57.174561 207.64058,56.239621 C 212.73568,55.605941 233.78946,52.495701 244.64058,50.773681 C 252.20659,49.572991 280.0301,47.010281 299.64058,45.707861 C 335.05867,43.355581 403.77168,44.959981 425.14058,48.638191 C 433.07254,50.003511 443.69594,54.243931 450.84133,58.896861 C 456.02382,62.271601 473.14058,78.834591 473.14058,80.474691 C 473.14058,80.750471 474.54616,82.750801 476.26408,84.919861 C 477.98201,87.088921 482.89507,93.903681 487.18199,100.06377 C 491.46891,106.22385 497.69112,115.12138 501.00912,119.83606 L 507.04184,128.40819 L 521.59715,129.59144 C 553.67321,132.19899 575.8914,136.91024 600.14058,146.24614 C 604.81558,148.04601 611.79058,150.05422 615.64058,150.70882 C 623.99224,152.12883 636.02708,155.27183 640.88514,157.30166 C 642.80997,158.1059 646.2504,158.76392 648.5306,158.76392 C 654.5461,158.76392 659.5007,162.4376 661.5342,168.40585 C 665.1039,178.88221 662.7159,192.89876 655.8215,201.93783 C 652.6194,206.13595 652.3432,210.6367 655.1406,213.03189 C 657.7763,215.2887 657.7763,220.70439 655.1406,223.53355 C 653.6889,225.09175 653.1406,227.06254 653.1406,230.72211 C 653.1406,233.4951 653.38,235.76392 653.6727,235.76392 C 653.9654,235.76392 655.8693,235.06848 657.9036,234.21849 C 660.8779,232.97574 662.0425,232.90865 663.8499,233.87594 C 665.738,234.88643 666.0799,235.86094 665.9873,239.96894 C 665.8462,246.23212 663.0209,250.55924 657.1325,253.53063 C 654.662,254.77731 652.5523,256.12731 652.4445,256.53063 C 652.3366,256.93394 651.7616,259.15827 651.1668,261.47359 C 650.5719,263.78891 648.6321,267.61391 646.8561,269.97359 C 645.08016,272.33327 643.06583,276.41455 642.37987,279.04309 C 638.04329,295.66034 625.77873,309.22246 608.64058,316.35192 C 602.02592,319.10362 600.86989,319.26217 587.64058,319.23209 C 571.31421,319.19496 564.68741,317.44261 554.75135,310.53505 L 548.86211,306.44085 L 539.75135,307.76833 C 534.74043,308.49845 520.96558,309.22952 509.14058,309.39293 L 487.64058,309.69004 L 486.99921,323.47698 C 485.99447,345.0751 481.49905,355.96269 468.91419,367.27755 C 458.73512,376.42941 448.43508,380.68376 435.14058,381.22746 C 430.46558,381.41866 425.06558,381.37264 423.14058,381.1252 z M 449.84804,375.69254 C 461.69689,371.61594 470.59132,363.77698 476.99852,351.76392 C 481.81782,342.72806 483.35747,335.19922 483.51988,319.87468 C 483.63031,309.45408 483.47048,308.39097 481.64058,307.37468 C 480.54058,306.76376 477.34415,303.97919 474.53741,301.18675 C 470.06854,296.74066 468.78528,294.44119 464.21316,282.68675 C 455.44837,260.15344 454.93282,259.02149 451.22829,254.17746 C 447.24474,248.96857 438.32295,243.14038 430.04074,240.33663 C 423.63587,238.1684 409.27489,237.21795 403.64058,238.58939 L 399.64058,239.56302 L 405.64058,239.79973 L 411.64058,240.03645 L 403.49979,240.8254 C 388.11391,242.31652 377.88194,248.56499 369.87323,261.36051 C 364.35099,270.1834 361.27405,288.29907 363.08556,301.32333 C 367.67999,334.35604 384.03661,360.98948 406.66471,372.28317 C 414.51156,376.19953 414.81852,376.26392 425.64058,376.26392 C 435.23181,376.26392 437.19761,375.96666 440.98999,373.94288 C 446.73014,370.87968 453.70938,364.36158 456.64586,359.32144 C 463.22366,348.03141 466.867,327.94761 465.12246,312.59451 C 462.33152,288.03232 451.15893,267.59354 431.15776,250.46051 C 428.1422,247.87739 426.25368,245.76392 426.96104,245.76392 C 429.17967,245.76392 450.47867,267.98772 453.97338,273.94914 C 458.15372,281.08013 462.29053,291.19042 464.74054,300.26392 C 467.22731,309.47356 467.21458,331.17044 464.71678,340.76392 C 462.81849,348.0548 459.81973,356.5499 457.69173,360.66501 C 455.15961,365.5616 446.89137,372.99724 440.69626,375.94909 L 434.64058,378.8345 L 439.42877,378.23221 C 442.06227,377.90095 446.75094,376.7581 449.84804,375.69254 z M 411.46879,356.66541 C 402.57273,354.09026 389.25292,341.6385 383.58903,330.60256 C 377.31631,318.38031 375.56067,302.78221 379.07467,290.4944 C 381.7993,280.96686 384.89469,275.91779 390.45231,271.9357 C 394.51653,269.02364 396.33034,268.41175 402.12796,267.99694 C 408.26321,267.55796 409.68698,267.8311 415.53956,270.56985 C 427.72781,276.27342 437.92975,288.55686 442.27817,302.76392 C 446.18201,315.51846 445.11378,334.07084 439.87016,344.58489 C 435.1269,354.09565 421.95146,359.69982 411.46879,356.66541 z M 426.84353,354.56268 C 434.58139,351.23951 438.94143,345.90339 441.49368,336.63278 C 443.78016,328.32757 444.26508,321.69267 443.15674,313.8779 C 440.42886,294.64379 429.77193,278.85524 414.64058,271.63036 C 406.9425,267.9547 400.8932,267.84211 394.16935,271.24934 C 384.84772,275.97297 380.18423,285.38321 379.3724,301.10744 C 378.75632,313.04008 380.04089,319.65463 384.917,329.65795 C 389.16315,338.36891 399.27734,349.23934 406.7559,353.12975 C 412.24829,355.98693 421.92064,356.6769 426.84353,354.56268 z M 419.14058,353.06043 C 422.87222,352.38813 424.05184,350.76392 420.80846,350.76392 C 413.64499,350.76392 404.52385,343.90657 397.13027,332.96248 C 392.21496,325.68675 389.09003,317.75886 389.19564,312.83242 C 389.22593,311.41974 390.1144,313.56106 391.17002,317.5909 C 394.33504,329.67331 405.01619,343.62982 414.56633,348.16166 C 418.82783,350.18388 425.36163,350.21809 429.19024,348.23824 C 430.81293,347.39912 432.14058,346.59029 432.14058,346.44085 C 432.14058,346.2914 429.32808,346.34816 425.89058,346.56697 C 419.98923,346.9426 419.32499,346.75 413.98321,343.11436 C 400.19837,333.73231 391.90095,316.16767 393.56787,299.89754 C 394.92201,286.68042 402.4198,277.82774 412.34092,277.73212 C 415.45882,277.70207 415.53365,277.61944 413.69945,276.23212 C 407.39565,271.46416 394.20768,279.92196 391.05557,290.75425 C 390.49386,292.68457 389.63068,297.86392 389.13739,302.26392 L 388.2405,310.26392 L 388.68331,301.68388 C 388.92685,296.96486 389.64216,291.56486 390.27288,289.68388 C 392.06384,284.34273 397.27707,277.94647 401.3435,276.10104 C 406.09882,273.94297 405.38792,272.80387 399.91212,273.80748 C 394.87894,274.72996 393.75253,274.24215 397.56699,272.7919 C 405.25631,269.86843 414.5834,272.42779 422.31023,279.58147 C 429.86658,286.57732 433.36262,291.66993 437.2171,301.29604 C 442.70026,314.98958 442.04713,334.61529 435.77776,344.54662 C 432.94094,349.04043 426.27839,352.79821 420.37358,353.23481 C 418.32043,353.38663 417.76558,353.30815 419.14058,353.06043 z M 430.56491,344.35998 C 435.72981,342.20195 438.39158,334.29918 438.34401,321.26392 C 438.29722,308.44086 435.32026,299.87685 427.01669,288.67782 C 420.0872,279.33202 416.44922,277.57764 408.57209,279.7831 C 402.09098,281.5977 397.80687,286.24715 395.68985,293.76392 C 395.05976,296.00117 395.18929,295.94415 396.92235,293.2213 C 402.85685,283.89752 411.89862,281.91337 421.27576,287.87713 C 432.49106,295.00994 438.99461,313.65517 434.73769,326.47154 C 431.24936,336.97392 420.63076,341.60545 411.14058,336.76392 C 408.9844,335.66392 406.89889,334.76392 406.5061,334.76392 C 404.88378,334.76392 410.99559,340.18161 415.64058,342.86099 C 421.16683,346.04871 425.48516,346.48244 430.56491,344.35998 z M 427.24428,335.04359 C 432.13881,332.15232 434.62663,325.63651 434.46784,316.12446 C 434.32008,307.27322 432.46121,301.67298 427.52122,295.19632 C 423.74526,290.24578 415.70598,285.78513 410.53846,285.7733 C 396.14364,285.74037 390.32927,308.09325 400.17561,325.61246 C 402.36615,329.51 408.50971,334.72351 413.30468,336.75397 C 416.42266,338.07429 423.60572,337.19294 427.24428,335.04359 z M 410.64058,331.60183 C 403.23735,327.52535 398.14058,317.98112 398.14058,308.19429 C 398.14058,297.43387 403.43292,291.2268 411.87615,292.08465 C 417.39916,292.6458 420.59769,294.83841 424.21577,300.54353 C 427.81283,306.2155 429.12885,310.69204 429.13127,317.26392 C 429.1338,324.15524 424.47699,331.64724 420.14058,331.72838 C 419.31558,331.74381 420.0266,330.91125 421.72062,329.87824 C 434.60218,322.02308 426.04284,293.43059 410.80978,293.43059 C 403.03562,293.43059 399.14058,298.20522 399.14058,307.735 C 399.14058,318.42634 406.43425,329.81317 414.43076,331.60592 C 418.0594,332.41944 418.22642,332.56032 415.64058,332.62642 C 413.99058,332.6686 411.74058,332.20753 410.64058,331.60183 z M 136.55468,337.38727 C 146.27474,332.85202 153.18658,323.6031 157.94528,308.76392 C 161.59438,297.38486 161.58937,297.36648 154.64058,296.61537 C 151.34058,296.25867 148.30308,296.17273 147.89058,296.42439 C 147.47808,296.67605 147.14058,298.4304 147.14058,300.32294 C 147.14058,302.21548 146.69919,303.76392 146.15971,303.76392 C 145.57544,303.76392 145.42327,301.98065 145.78335,299.35354 C 146.34663,295.24397 146.19186,294.84082 143.51422,293.44281 C 136.57932,289.82207 133.61295,284.83753 126.8345,265.41505 C 121.0796,248.92539 118.49898,244.48488 111.8875,239.69555 C 108.03272,236.90316 107.34922,236.76392 97.496809,236.76392 L 87.153129,236.76392 L 84.210539,240.82604 C 74.203859,254.63987 71.992829,278.50963 78.738709,299.89874 C 86.142299,323.37325 98.419189,336.7785 114.00625,338.40767 C 117.74781,338.79874 119.84378,339.43514 119.4561,340.06242 C 118.31928,341.90183 131.19712,339.88703 136.55468,337.38727 z M 125.08302,336.70469 C 127.52636,335.59628 130.20024,334.14366 131.02498,333.47665 C 132.21253,332.51623 132.36642,332.52695 131.76469,333.52821 C 130.86819,335.01995 123.78801,338.77359 121.93042,338.74196 C 121.22101,338.72988 122.63968,337.81311 125.08302,336.70469 z M 136.91142,326.46421 C 138.56457,323.85747 141.18144,317.83808 142.72669,313.08778 C 144.27194,308.33748 145.70904,304.96931 145.92025,305.60294 C 146.8685,308.44769 138.94993,327.01741 135.60474,329.79366 C 134.67027,330.56921 135.25828,329.07095 136.91142,326.46421 z M 105.4724,322.66634 C 101.36607,321.47754 91.352139,310.57548 87.910659,303.54706 C 86.468169,300.60111 84.526619,294.43346 83.596109,289.84117 C 82.143799,282.67376 82.078749,280.47147 83.136639,274.28696 C 84.883539,264.07448 88.645559,256.81953 93.640579,254.03037 C 95.840579,252.80192 99.121009,251.78942 100.93042,251.78037 C 107.81734,251.74593 118.0861,259.42195 123.49168,268.64518 C 127.71178,275.84567 131.99383,288.76392 130.1605,288.76392 C 129.72444,288.76392 129.06519,286.74684 128.69549,284.28152 C 127.80991,278.37605 122.07259,267.31126 117.38472,262.46797 C 111.20444,256.08279 105.86736,253.43963 100.24545,253.97982 C 92.070939,254.76529 88.256339,258.92963 85.673079,269.88822 C 81.708019,286.70867 85.532439,301.35437 97.220679,314.11003 C 106.5547,324.29647 114.52914,325.48755 121.98152,317.80838 C 125.61102,314.06843 129.14058,305.74509 129.14058,300.92603 C 129.14058,299.73687 129.53248,298.76392 130.01147,298.76392 C 130.49941,298.76392 130.51866,300.71077 130.05525,303.19127 C 127.14718,318.7574 117.73271,326.21575 105.4724,322.66634 z M 113.64058,318.89229 L 117.64058,317.07311 L 114.18156,316.29315 C 109.29748,315.19186 100.59356,305.97071 96.735619,297.81048 C 93.789779,291.57951 93.640579,290.66132 93.640579,278.76392 C 93.640579,267.68245 93.898219,265.78162 95.910899,262.01392 C 97.535409,258.97287 97.805649,257.76392 96.860899,257.76392 C 96.134729,257.76392 95.103559,258.10142 94.569419,258.51392 C 94.035289,258.92642 94.445139,258.47642 95.480209,257.51392 C 97.597949,255.54465 102.60853,255.2381 106.82548,256.81982 C 108.37379,257.40057 111.95577,260.15098 114.78545,262.93184 C 121.63848,269.66664 126.84866,280.66497 127.73537,290.26822 C 128.91003,302.99005 123.80139,316.33639 116.60641,319.34264 C 111.61012,321.43023 108.94876,321.02611 113.64058,318.89229 z M 119.14058,314.84338 C 119.14058,314.33708 117.86381,313.6424 116.30331,313.29966 C 114.74282,312.95692 110.15418,309.65866 106.10634,305.97021 C 99.979429,300.38727 99.072759,299.8265 100.69361,302.62248 C 103.19116,306.93079 111.55434,314.5068 114.42663,315.06291 C 118.3375,315.8201 119.14058,315.7827 119.14058,314.84338 z M 122.91227,307.36894 C 124.43356,302.70945 123.8487,301.66786 121.40536,304.68525 C 120.26002,306.09969 118.04004,307.10185 115.21178,307.4812 L 110.80341,308.07248 L 113.14508,309.96865 C 114.59244,311.14065 116.66186,311.75007 118.56367,311.56437 C 121.15566,311.31127 121.841,310.65007 122.91227,307.36894 z M 120.68409,303.72305 C 127.16097,297.63833 124.84681,280.48533 116.48216,272.57754 C 110.45409,266.87871 105.09602,266.77277 100.28064,272.25719 C 90.595539,283.2879 100.90448,308.05944 114.48887,306.39841 C 116.60543,306.13961 119.39328,304.9357 120.68409,303.72305 z M 107.52943,301.85932 C 103.28177,299.26917 99.140579,290.74978 99.140579,284.6015 C 99.140579,276.67994 103.22102,270.76392 108.68475,270.76392 C 111.27585,270.76392 117.98073,277.77849 119.70484,282.29301 C 120.87513,285.35736 121.25,288.57443 120.93854,292.88029 C 120.56254,298.07851 120.05529,299.44054 117.76009,301.41478 C 114.45618,304.25668 111.66017,304.37817 107.52943,301.85932 z M 115.48326,301.65365 C 118.61981,300.22454 120.14058,296.8061 120.14058,291.18475 C 120.14058,280.18307 110.69089,269.58504 104.42937,273.56428 C 102.58842,274.73421 100.13785,281.29166 100.16254,284.9818 C 100.19243,289.44881 103.46723,296.3325 107.23832,299.85522 C 110.65732,303.04904 111.84981,303.30916 115.48326,301.65365 z M 97.179319,268.28087 C 97.793089,265.32195 99.315309,262.11121 100.92676,260.3766 C 102.95179,258.19681 103.17566,257.62144 101.80879,258.10965 C 100.80131,258.4695 99.797959,258.76392 99.579119,258.76392 C 99.360279,258.76392 98.216619,260.65471 97.037659,262.96567 C 95.466779,266.04484 94.804099,269.45124 94.557259,275.71567 C 94.237539,283.82963 94.269339,283.9845 95.183069,278.76392 C 95.712509,275.73892 96.610829,271.02155 97.179319,268.28087 z M 118.40656,271.27472 C 117.12495,268.98461 110.09354,261.7792 107.45013,260.04718 C 105.28389,258.6278 104.91525,258.6554 102.97694,260.38212 C 101.81512,261.41711 100.25166,263.71197 99.502559,265.4818 C 98.064629,268.87912 97.630669,273.0423 98.905889,271.20596 C 100.44925,268.98349 104.69991,266.76392 107.41275,266.76392 C 110.59364,266.76392 115.13271,268.84459 117.08586,271.19798 C 118.7324,273.18195 119.49882,273.22648 118.40656,271.27472 z M 130.41294,293.76392 C 130.41294,291.28892 130.60796,290.27642 130.84631,291.51392 C 131.08467,292.75142 131.08467,294.77642 130.84631,296.01392 C 130.60796,297.25142 130.41294,296.23892 130.41294,293.76392 z M 89.140579,263.82294 C 89.140579,263.24048 89.590579,262.76392 90.140579,262.76392 C 90.690579,262.76392 91.140579,262.96236 91.140579,263.2049 C 91.140579,263.44744 90.690579,263.924 90.140579,264.26392 C 89.590579,264.60384 89.140579,264.4054 89.140579,263.82294 z M 600.75307,315.37884 C 615.66405,311.40837 630.2577,299.60141 636.63013,286.35259 C 640.27073,278.78345 641.06978,275.15339 638.89058,276.0834 C 638.20308,276.3768 631.11558,279.41135 623.14058,282.82684 C 605.56735,290.35301 581.77716,298.47849 565.89432,302.37916 C 559.43387,303.96578 554.14637,305.5794 554.14432,305.96498 C 554.13729,307.28312 566.69956,313.69193 572.1744,315.16328 C 579.12943,317.03242 594.1185,317.14548 600.75307,315.37884 z M 351.08635,308.94001 L 360.53212,304.26392 L 360.73252,293.76392 C 361.35478,261.16015 377.29665,241.17417 406.14503,236.83124 C 418.08045,235.03443 431.92007,237.78069 441.89047,243.92435 C 446.80624,246.9534 444.87986,243.95196 438.76128,239.04884 C 433.43535,234.78092 422.95282,229.16852 415.64058,226.6699 C 413.04833,225.78412 406.88941,225.2962 398.14058,225.28351 C 372.22051,225.2459 362.12233,230.2487 353.35949,247.46876 C 350.49329,253.10119 348.35464,264.50392 347.20855,280.26392 L 346.26317,293.26392 L 346.65527,278.26392 C 347.12648,260.23796 348.23669,254.42088 352.92381,245.41925 C 360.85079,230.19547 373.21108,222.84994 393.64058,221.22192 C 409.6141,219.94899 431.07995,226.79676 442.42759,236.78535 C 451.2517,244.55265 458.57093,257.34717 467.87199,281.26392 C 473.16411,294.87206 475.78092,298.69559 482.25685,302.28221 L 487.64058,305.26392 L 510.64058,305.26392 C 525.56712,305.26392 536.09772,304.79817 540.64058,303.93708 C 554.53279,301.30385 571.72229,297.52267 575.64058,296.23813 C 577.84058,295.5169 583.01558,293.94158 587.14058,292.73741 C 605.67092,287.32805 638.90001,273.14977 643.73745,268.58849 C 646.5228,265.96219 649.7267,259.01666 648.6496,257.93964 C 648.2714,257.56138 633.61312,263.01786 618.14058,269.29652 C 607.80504,273.49062 583.65728,280.91368 566.14058,285.28141 C 542.0011,291.30051 528.20272,293.64185 500.52516,296.41521 C 485.13555,297.95729 477.14058,294.23641 477.14058,285.53197 C 477.14058,277.9534 477.49415,277.79741 495.64058,277.37015 C 528.70013,276.59175 575.22104,266.65846 615.97078,251.67687 C 626.38525,247.848 627.98806,247.21672 633.14058,244.91445 C 634.51558,244.30006 638.7861,242.47697 642.63063,240.86313 C 649.1771,238.11505 649.6712,237.68569 650.4172,234.09639 C 651.658,228.12588 651.0583,226.70987 646.6406,225.1796 C 644.44058,224.41754 642.57547,223.78726 642.49589,223.77898 C 642.13306,223.74122 643.95278,230.65104 644.56768,231.64597 C 644.9477,232.26084 645.99706,232.76392 646.8996,232.76392 C 648.0283,232.76392 648.2182,233.08633 647.5078,233.7967 C 645.96707,235.33743 643.46214,233.97217 642.27023,230.94206 C 640.45018,226.31511 636.29154,210.7846 633.16147,196.92523 C 631.5046,189.58895 629.94173,183.25119 629.68841,182.84131 C 629.43509,182.43144 626.1707,182.87235 622.43421,183.82112 C 613.86761,185.99635 584.71392,192.35967 553.69899,198.82383 C 540.53112,201.56829 529.6695,203.91505 529.56207,204.03884 C 529.45463,204.16263 528.8476,209.64961 528.21311,216.23213 C 526.85041,230.36937 526.24425,233.1741 520.8581,250.26392 C 516.26323,264.84307 513.57028,268.76392 508.15176,268.76392 C 504.44791,268.76392 500.83693,267.06426 501.67159,265.71375 C 501.99445,265.19134 503.06231,264.76392 504.04461,264.76392 C 507.52283,264.76392 509.27234,261.07735 511.71719,248.59629 C 513.04584,241.81349 514.13464,235.23021 514.13675,233.9668 C 514.14047,231.73361 514.02638,231.76145 510.03775,234.9668 C 506.45452,237.84636 505.19984,238.26392 500.13057,238.26392 C 495.15698,238.26392 493.77621,237.82535 490.4834,235.19968 C 484.53111,230.45336 482.66699,225.80368 482.69135,215.76392 C 482.70733,209.18061 483.20654,206.1749 484.90522,202.43442 C 489.52625,192.25891 497.02715,185.81301 504.35074,185.72388 L 507.64058,185.68384 L 504.93258,184.21395 C 500.00834,181.54109 490.83139,179.84441 475.64058,178.7983 C 452.66044,177.21579 389.13237,174.01344 365.62844,173.25277 L 344.61631,172.57274 L 342.42041,176.47983 C 341.21266,178.62872 339.93818,182.17745 339.58824,184.36588 C 339.23829,186.55431 339.44538,202.05164 340.04842,218.80439 C 340.65147,235.55713 341.174,258.38711 341.20961,269.53767 C 341.27006,288.47075 341.13503,290.03684 339.16761,293.22018 C 337.79841,295.4356 335.56142,297.20159 332.77771,298.2647 C 328.07199,300.06183 323.32587,299.80721 286.14058,295.7627 C 276.51558,294.71582 258.96558,292.92227 247.14058,291.77703 C 212.14895,288.38813 197.83006,286.73074 194.53763,285.68831 C 189.78589,284.18385 187.05731,280.52832 184.72827,272.54658 C 183.10529,266.98452 182.13512,265.18511 180.6219,264.93035 C 177.76938,264.4501 177.36025,263.7705 176.98075,258.88215 C 176.65727,254.71537 177.29776,253.62112 180.92116,252.15 C 181.07549,252.08735 180.48114,242.34124 179.60039,230.49198 C 178.71964,218.64272 178.14337,204.62499 178.3198,199.34147 C 178.6017,190.89943 178.42834,189.66802 176.88952,189.18178 C 174.27673,188.35618 173.32194,185.67633 174.32418,181.98152 C 175.01261,179.4436 175.88659,178.56472 178.17757,178.10652 C 180.00972,177.74009 181.14058,176.8908 181.14058,175.88125 C 181.14058,174.42875 179.89912,174.32125 169.89058,174.90712 C 163.70308,175.26932 153.01558,175.83951 146.14058,176.17421 C 139.26558,176.50891 128.01558,177.22 121.14058,177.75439 C 114.26558,178.28879 97.840579,179.43982 84.640579,180.31223 C 58.638129,182.03077 55.072599,182.63187 47.907489,186.50493 C 41.838359,189.78556 40.601629,191.78523 39.248649,200.50536 C 36.674359,217.09705 39.102719,261.50066 42.866339,266.65653 C 45.536189,270.31402 50.778569,272.66358 57.710999,273.30969 C 62.719419,273.77648 64.256619,273.50322 67.606009,271.55071 C 70.785459,269.69726 71.734759,268.44872 72.395449,265.2515 C 74.421279,255.4482 75.066079,253.74799 82.974239,237.3573 C 83.718239,235.81525 71.033579,237.64348 67.730589,239.55435 C 63.939819,241.74742 61.719639,247.77196 60.262509,259.8193 L 59.241119,268.26392 L 59.666029,259.21 C 60.292869,245.85342 63.354789,238.27264 69.399999,235.1104 C 73.697109,232.86259 102.70283,231.30803 108.50858,233.01437 C 113.52596,234.48901 121.21141,241.88999 124.47472,248.38952 C 125.89013,251.2086 128.69791,258.6336 130.71423,264.88952 C 134.77634,277.49281 137.30165,283.09573 140.50343,286.60893 C 145.36158,291.9396 145.93091,292.04917 203.64058,298.76014 C 217.94058,300.42306 238.86558,302.90067 250.14058,304.26593 C 261.41558,305.6312 281.44058,307.92982 294.64058,309.37397 C 307.84058,310.81813 321.11558,312.33766 324.14058,312.7507 C 337.06041,314.51481 340.93083,313.96745 351.08635,308.94001 z M 343.14058,308.26392 C 343.14058,307.43892 343.57646,306.76392 344.1092,306.76392 C 344.64193,306.76392 344.81879,307.43892 344.50221,308.26392 C 344.18562,309.08892 343.74975,309.76392 343.53359,309.76392 C 343.31744,309.76392 343.14058,309.08892 343.14058,308.26392 z M 495.46932,262.30884 C 491.88592,260.74706 490.14058,258.11734 490.14058,254.28 C 490.14058,250.67695 492.83036,245.79554 494.91626,245.61312 C 502.87727,244.91689 507.14058,247.92894 507.14058,254.24967 C 507.14058,258.19579 504.48092,262.76392 502.18341,262.76392 C 501.69982,262.76392 500.70485,262.97251 499.97237,263.22746 C 499.23988,263.4824 497.21351,263.06902 495.46932,262.30884 z M 495.4329,257.51392 L 494.91246,255.26392 L 496.58323,257.51392 C 499.69397,261.70313 505.14058,259.87097 505.14058,254.63535 C 505.14058,248.73131 499.16204,247.52189 496.40532,252.86826 C 495.52745,254.57081 495.1658,254.77861 495.15532,253.5865 C 495.14721,252.66392 496.31844,250.98258 497.75804,249.85019 C 499.95993,248.11818 500.11747,247.69228 498.75032,247.16766 C 496.50009,246.30416 492.51441,249.13831 491.76177,252.1371 C 491.41832,253.50551 491.57691,255.78135 492.11419,257.19452 C 493.35251,260.45154 496.17523,260.7232 495.4329,257.51392 z M 547.69728,241.54141 C 545.60938,238.56051 545.70603,237.46352 548.77722,229.28513 C 551.88098,221.01999 554.18541,218.14704 559.70251,215.66448 C 562.95289,214.20189 590.80325,206.69443 615.64058,200.58557 C 625.80857,198.08471 629.83178,199.9038 633.0089,208.43864 C 636.21413,217.04899 636.30636,218.47509 633.83489,221.2108 C 631.36231,223.94775 621.46686,227.03637 585.64058,236.25345 C 573.54058,239.36644 562.06558,242.32728 560.14058,242.83309 C 553.92517,244.46628 549.41825,243.99843 547.69728,241.54141 z M 561.14058,240.81899 C 565.26558,239.76616 578.31558,236.35453 590.14058,233.23759 C 601.96558,230.12064 615.91558,226.45374 621.14058,225.08892 C 634.88319,221.49922 637.62969,218.2499 629.89058,214.73699 C 623.00313,211.61066 626.33297,211.01384 568.14058,225.80459 C 554.37093,229.30442 550.71117,230.82925 549.17022,233.70853 C 547.59232,236.65687 547.94396,240.55002 549.89058,241.68382 C 552.22894,243.04579 552.49646,243.02523 561.14058,240.81899 z M 585.47255,219.83792 C 602.9655,215.39722 619.28647,211.76392 621.74137,211.76392 C 624.19627,211.76392 627.76536,212.41596 629.6727,213.21289 C 631.58003,214.00983 633.14058,214.24713 633.14058,213.74023 C 633.14058,213.23333 631.96836,210.34282 630.53564,207.31688 C 628.36353,202.7293 627.40814,201.71878 624.78564,201.23504 C 622.64452,200.84008 613.66028,202.70809 596.64058,207.08696 C 582.89058,210.62459 569.35281,214.05108 566.55665,214.70137 C 559.99001,216.22855 555.61728,218.93381 553.13518,223.00478 C 550.84584,226.7596 550.36814,230.64988 552.40388,228.96037 C 553.09869,228.38372 567.97959,224.27862 585.47255,219.83792 z M 54.443139,205.56688 C 52.036459,204.4041 49.140579,199.13998 49.140579,195.92789 C 49.140579,194.80932 49.588759,192.71533 50.136529,191.27458 C 51.904519,186.62442 57.486199,185.15241 80.140579,183.36185 C 107.52054,181.1978 113.28212,181.24796 116.2798,183.67646 C 120.85375,187.38194 118.20677,199.5174 112.11324,202.77855 C 111.07471,203.33436 99.293499,204.45385 85.932789,205.26631 C 57.870789,206.97276 57.363029,206.97761 54.443139,205.56688 z M 87.140579,202.72317 C 97.865579,202.09228 108.22489,201.17879 110.16127,200.69321 C 116.63841,199.06894 119.6265,189.15782 114.95202,184.80288 C 112.20635,182.2449 109.40317,182.23743 80.889739,184.71219 C 54.180609,187.03035 51.795329,187.85895 51.337259,194.97805 C 51.095139,198.74094 51.451559,200.05254 53.103629,201.47805 C 55.194689,203.28236 60.548039,204.43477 65.140579,204.06924 C 66.515579,203.9598 76.415579,203.35407 87.140579,202.72317 z M 60.672979,199.76392 C 62.219459,194.65791 65.100409,188.76392 66.049719,188.76392 C 66.588839,188.76392 65.868699,191.35142 64.449419,194.51392 C 61.609109,200.84279 59.427739,203.87532 60.672979,199.76392 z M 56.140579,200.38835 C 56.140579,199.18182 61.308579,188.59859 61.704449,188.99445 C 62.419039,189.70905 58.001919,200.76392 57.001799,200.76392 C 56.528129,200.76392 56.140579,200.59491 56.140579,200.38835 z M 65.446479,198.12495 C 66.256129,196.55138 67.649429,193.50733 68.542699,191.36038 C 69.435979,189.21343 70.385509,187.67552 70.652779,187.94279 C 71.432799,188.72281 66.471189,200.15372 65.163379,200.58965 C 64.350889,200.86049 64.440529,200.08003 65.446479,198.12495 z M 69.140579,200.64434 C 69.140579,198.84542 73.948609,188.32791 74.918809,188.00451 C 75.586799,187.78185 74.820109,190.37648 73.215059,193.77036 C 70.532599,199.44242 69.140579,201.79087 69.140579,200.64434 z M 74.724459,197.01392 C 75.610349,194.95142 76.785409,192.02642 77.335699,190.51392 C 77.885989,189.00142 78.748249,187.76392 79.251829,187.76392 C 79.755409,187.76392 79.442599,189.45142 78.556709,191.51392 C 77.670819,193.57642 76.495759,196.50142 75.945469,198.01392 C 75.395169,199.52642 74.532919,200.76392 74.029339,200.76392 C 73.525759,200.76392 73.838559,199.07642 74.724459,197.01392 z M 78.140579,200.24196 C 78.140579,198.90332 84.217879,186.50788 84.658269,186.94828 C 85.207899,187.4979 79.420049,200.76392 78.630629,200.76392 C 78.361099,200.76392 78.140579,200.52904 78.140579,200.24196 z M 83.189829,199.01392 C 83.285969,197.54949 88.970389,186.28286 89.054759,187.38949 C 89.160379,188.77475 84.363489,199.76392 83.653189,199.76392 C 83.371259,199.76392 83.162739,199.42642 83.189829,199.01392 z M 88.127629,197.29798 C 89.739799,193.05765 93.260419,186.55042 93.702959,186.99297 C 94.311519,187.60152 88.812879,199.76392 87.929199,199.76392 C 87.522689,199.76392 87.611979,198.65425 88.127629,197.29798 z M 92.317229,199.01392 C 92.506049,198.60142 93.728839,195.45142 95.034549,192.01392 C 96.340259,188.57642 97.804299,185.76392 98.287989,185.76392 C 98.771679,185.76392 98.533389,187.22642 97.758459,189.01392 C 96.983529,190.80142 95.621449,193.95142 94.731619,196.01392 C 93.841779,198.07642 92.857279,199.76392 92.543829,199.76392 C 92.230369,199.76392 92.128399,199.42642 92.317229,199.01392 z M 97.222129,198.13476 C 97.103689,196.49479 102.25163,185.54164 102.85654,186.14655 C 103.13744,186.42744 102.00295,189.49376 100.33547,192.96059 C 98.667979,196.42742 97.266979,198.7558 97.222129,198.13476 z M 101.44526,197.51392 C 105.09793,188.71075 106.52514,185.76392 107.13603,185.76392 C 107.53686,185.76392 106.71545,188.68892 105.31067,192.26392 C 103.90589,195.83892 102.34479,198.76392 101.84156,198.76392 C 101.33833,198.76392 101.16,198.20142 101.44526,197.51392 z M 334.15792,296.0946 C 337.19891,294.29825 338.89336,291.73832 339.67211,287.76392 C 339.94153,286.38892 339.64143,264.78892 339.00521,239.76392 C 337.50219,180.64349 337.43148,183.58339 340.49866,177.67154 L 343.04482,172.76392 L 331.8427,172.57825 C 293.33417,171.93997 183.22653,173.45727 183.03881,174.62879 C 182.98283,174.97811 182.78807,178.10638 182.606,181.58049 C 182.42393,185.05461 181.78751,188.48441 181.19174,189.20228 C 178.66456,192.24734 180.85028,247.20348 183.73577,253.16756 C 184.50841,254.76456 185.08371,257.46456 185.01421,259.16756 L 184.88784,262.26392 L 183.83785,258.51392 C 182.71222,254.49381 181.47147,253.73806 180.43433,256.44081 C 179.85792,257.9429 179.70834,257.91684 178.99925,256.19081 C 178.47205,254.90751 178.27996,255.76694 178.42412,258.76392 C 178.63015,263.04716 178.79549,263.27889 181.85668,263.57475 C 184.71463,263.85097 185.13717,264.29641 185.65105,267.57475 C 186.67806,274.12666 188.54782,279.21257 190.74737,281.43716 C 193.54608,284.26772 198.11983,285.38149 212.14058,286.64668 C 223.35412,287.65855 296.68221,295.15024 310.64058,296.7101 C 323.21879,298.11573 331.08495,297.90985 334.15792,296.0946 z M 513.64058,293.24797 C 549.65817,289.09819 595.71153,276.76786 634.42779,260.90838 C 652.9337,253.32773 659.2561,249.94378 660.8545,246.76392 C 662.3131,243.86211 662.5654,236.14449 661.2286,235.31834 C 660.5013,234.86879 642.56518,242.05954 632.64058,246.77959 C 622.17827,251.75537 586.13161,263.33216 565.64058,268.29739 C 538.12375,274.96506 498.55997,280.43672 487.07079,279.16357 C 482.61376,278.66967 481.16531,278.88204 479.82079,280.22657 C 476.5843,283.46306 478.47927,290.72384 483.25065,293.36841 C 486.43914,295.13565 497.64198,295.09126 513.64058,293.24797 z M 514.7595,262.53395 C 520.42423,251.57957 527.14058,223.67159 527.14058,211.0877 C 527.14058,205.03399 527.03537,204.76392 524.67708,204.76392 C 522.42742,204.76392 522.22107,205.13739 522.29993,209.06631 C 522.41325,214.71164 521.36129,219.35306 518.85544,224.26392 C 517.73286,226.46392 515.74806,234.33892 514.44477,241.76392 C 511.27668,259.81295 510.52491,262.31644 507.57667,264.63553 L 505.06097,266.61439 L 507.35077,266.9922 C 510.621,267.53179 512.87706,266.17419 514.7595,262.53395 z M 34.991359,259.66609 C 38.310499,258.50904 38.533389,257.77444 37.486949,251.44131 C 36.905089,247.91984 36.650369,247.67014 34.253549,248.2717 C 30.070599,249.32156 29.140579,250.70661 29.140579,255.88636 C 29.140579,261.21768 29.631229,261.53465 34.991359,259.66609 z M 504.94024,234.34924 C 516.64005,228.21983 522.26164,209.85781 516.32463,197.16393 C 512.24905,188.44996 503.76762,185.25489 496.49057,189.69215 C 492.75187,191.97187 487.63771,199.10344 485.6001,204.87866 C 483.74268,210.14315 483.71735,221.5094 485.55326,225.8918 C 488.98084,234.07354 497.97612,237.99767 504.94024,234.34924 z M 497.14173,232.01237 C 492.25181,229.56878 490.63258,225.74709 490.68104,216.76392 C 490.73074,207.55253 493.58665,200.40053 499.26301,195.27228 C 503.74004,191.22755 507.66999,190.72338 511.2798,193.73065 C 512.57823,194.81235 513.16808,195.71235 512.59058,195.73065 C 512.01308,195.74895 511.00808,195.23142 510.35725,194.58059 C 509.70641,193.92975 508.85891,193.71225 508.47391,194.09725 C 508.08891,194.48225 508.30641,195.32975 508.95725,195.98059 C 509.60808,196.63142 510.13834,197.63642 510.13561,198.21392 C 510.13288,198.79142 509.09421,197.96869 507.82746,196.38564 C 505.79682,193.84796 505.28373,193.65758 503.49157,194.7768 C 500.72339,196.50555 495.34796,204.55402 494.13363,208.78815 C 493.58745,210.69256 493.14058,215.26609 493.14058,218.95155 C 493.14058,224.51392 493.53376,226.10949 495.45476,228.34279 C 497.44536,230.657 498.07009,230.87201 499.92267,229.88054 C 505.35461,226.97346 509.34086,221.30054 511.049,214.04642 C 511.76824,210.99198 511.95901,210.76974 512.04013,212.8918 C 512.19893,217.04621 509.31858,222.89951 504.84471,227.51392 C 501.45631,231.00877 501.0721,231.76664 502.68237,231.77923 C 504.31286,231.79198 504.38954,231.95678 503.14058,232.76392 C 501.17136,234.03653 501.19933,234.04003 497.14173,232.01237 z M 511.26311,205.76392 C 511.1807,204.93892 510.86345,203.13892 510.55812,201.76392 C 510.07827,199.60301 510.15687,199.50518 511.13756,201.04268 C 511.76158,202.02099 512.07883,203.82099 511.84254,205.04268 C 511.60626,206.26436 511.34552,206.58892 511.26311,205.76392 z M 36.410409,211.51392 C 36.723569,204.22642 37.312669,197.41502 37.719539,196.37747 C 38.250839,195.02258 38.077519,194.61827 37.104449,194.94263 C 36.359299,195.19102 35.386099,196.71492 34.941779,198.32908 C 33.829699,202.3692 32.708899,221.19658 33.463419,223.16283 C 35.012029,227.19846 35.884629,223.74926 36.410409,211.51392 z M 653.5692,222.19249 C 654.4334,221.32821 655.1406,219.94862 655.1406,219.12675 C 655.1406,216.76402 653.2029,213.76392 651.6768,213.76392 C 648.0367,213.76392 645.70109,219.92443 648.3406,222.56392 C 649.9703,224.19368 651.6901,224.07151 653.5692,222.19249 z M 646.3457,219.70793 C 646.01845,217.47841 646.5181,215.99098 648.1932,214.20793 L 650.4892,211.76392 L 648.0149,211.76392 C 646.654,211.76392 644.90002,212.32642 644.11711,213.01392 C 643.33421,213.70142 643.53895,213.25142 644.5721,212.01392 C 645.60525,210.77642 647.2808,209.76392 648.2956,209.76392 C 649.3103,209.76392 650.1406,209.08892 650.1406,208.26392 C 650.1406,207.17654 649.0222,206.76392 646.07484,206.76392 C 643.83868,206.76392 641.13868,206.29809 640.07484,205.72874 C 638.49714,204.88438 638.14338,205.02263 638.15576,206.47874 C 638.1772,208.9997 640.37183,215.67693 642.44009,219.51392 C 644.71495,223.73419 646.9529,223.84537 646.3457,219.70793 z M 650.2324,201.69857 C 656.9541,196.91225 660.6715,185.09067 658.9379,174.01392 C 658.443,170.85142 657.3511,167.21383 656.5115,165.93039 C 654.5195,162.88528 648.5963,160.43384 645.24855,161.26902 C 638.35722,162.98822 632.20789,171.3096 632.16254,178.97723 C 632.15046,181.01955 633.11386,186.53426 634.30342,191.23213 C 636.15789,198.55586 636.90644,200.05579 639.55342,201.75198 C 643.51982,204.29364 646.6096,204.27819 650.2324,201.69857 z M 640.26388,198.19354 C 636.12581,192.93283 636.28546,182.35834 640.63247,173.77993 C 644.19703,166.74561 650.604,162.46865 652.6406,165.76392 C 652.9805,166.31392 652.58,166.76392 651.7506,166.76392 C 650.4068,166.76392 650.4067,167.15661 651.7496,170.37069 C 654.1999,176.23499 653.8318,184.46633 650.8568,190.33726 C 649.4487,193.11602 647.5865,195.97888 646.7186,196.69918 C 644.25431,198.74435 644.83418,200.05191 647.8906,199.34195 C 649.9309,198.86802 650.2535,198.96512 649.1406,199.71823 C 646.386,201.58227 642.38949,200.89582 640.26388,198.19354 z M 646.7032,194.51392 C 650.5432,189.95988 652.1406,185.64212 652.1406,179.81628 C 652.1406,174.7776 649.6493,166.76392 648.0829,166.76392 C 646.1699,166.76392 642.09028,173.79872 640.57648,179.70766 C 639.07735,185.55936 639.17574,192.08602 640.82801,196.39177 C 641.69041,198.63913 643.79091,197.96776 646.7032,194.51392 z M 551.73238,197.79348 C 590.3666,189.81066 627.83075,181.28406 629.00126,180.20759 C 630.0788,179.21663 625.25075,167.81779 622.02498,163.73689 C 610.46371,149.11079 574.76091,137.43903 525.8804,132.30585 C 510.71982,130.71376 484.17168,130.41879 473.64058,131.72543 C 470.34058,132.13488 468.23849,132.53604 468.96928,132.6169 C 474.55053,133.23447 513.34667,139.08855 520.14058,140.33831 C 524.81558,141.1983 536.06558,143.70701 545.14058,145.91324 C 565.13213,150.77341 572.75043,154.47919 580.80983,163.26392 C 591.40828,174.81621 591.2505,174.69194 594.49569,174.0429 C 597.14524,173.51299 597.38391,173.65874 596.64478,175.35535 C 595.58344,177.79156 595.58562,180.74078 596.65056,183.18753 C 597.51772,185.17989 597.57237,185.18141 592.41382,183.06992 C 591.73911,182.79374 590.65438,183.73691 590.00331,185.16585 C 588.49894,188.46759 587.14058,188.50238 587.14058,185.23917 C 587.14058,183.46623 586.39613,182.43138 584.64058,181.76392 C 581.56901,180.59611 581.47503,179.3435 584.31001,177.3578 C 587.78977,174.92048 585.51988,169.38399 578.16441,162.36806 C 568.82313,153.45798 559.70686,150.10796 525.14058,142.88298 C 508.06052,139.31294 467.19958,133.764 457.99044,133.76395 C 447.7122,133.76389 387.64151,146.99564 378.17528,151.3448 C 370.58934,154.83009 363.84681,162.22106 361.71801,169.38481 C 361.09939,171.46657 361.38799,171.51809 377.36417,172.17739 C 464.52061,175.77414 492.25438,177.74456 500.88417,180.9532 C 510.46243,184.5145 521.14058,195.26836 521.14058,201.35325 C 521.14058,203.58823 526.97141,202.90974 551.73238,197.79348 z M 181.20781,183.93252 C 181.69362,180.36225 181.51421,179.76392 179.95781,179.76392 C 178.605,179.76392 178.10229,180.59451 177.99075,183.01392 C 177.85129,186.03885 177.81207,186.07348 177.42433,183.51392 C 176.8678,179.84018 175.14058,179.99168 175.14058,183.71423 C 175.14058,186.58791 177.49684,189.0416 179.64058,188.40029 C 180.19058,188.23575 180.89583,186.22526 181.20781,183.93252 z M 592.54386,181.52275 C 593.35701,181.68567 593.86742,180.66663 593.92127,178.77275 C 593.98184,176.64236 593.53841,175.76392 592.40244,175.76392 C 591.52003,175.76392 589.97513,175.01918 588.96932,174.10893 C 587.24814,172.55129 587.14058,172.58892 587.14058,174.74869 C 587.14058,176.0108 586.35308,177.64815 585.39058,178.38724 C 583.75669,179.64189 583.78986,179.77305 585.89058,180.36412 C 587.30639,180.76247 588.15237,181.78813 588.17238,183.13055 C 588.20398,185.2503 588.21392,185.25115 589.72809,183.26392 C 590.56624,182.16392 591.83334,181.38039 592.54386,181.52275 z M 54.140579,182.16051 C 58.571179,180.61049 78.701359,178.63514 109.14058,176.76343 C 135.45202,175.14553 177.52429,172.76628 179.84358,172.76507 C 181.46938,172.76422 182.29247,171.91241 182.98512,169.51392 C 183.50133,167.72642 184.26272,165.43187 184.67711,164.41492 C 185.39034,162.66457 184.8759,162.59833 175.03556,163.17354 C 169.31832,163.50773 147.81252,164.26741 127.24489,164.86171 C 85.580019,166.06562 82.895719,165.82134 78.686369,160.4428 L 76.307029,157.40256 L 71.670349,160.83324 C 57.555959,171.27649 52.805399,175.33463 50.594119,178.83752 C 46.996889,184.5359 47.093089,184.62604 54.140579,182.16051 z M 632.72364,171.51392 C 633.62257,169.72642 636.15302,166.40216 638.34686,164.12668 L 642.33566,159.98945 L 637.48812,158.40194 C 630.95185,156.26141 620.18069,153.79687 617.28243,153.7787 C 615.20398,153.76567 615.52086,154.3003 619.9539,158.28599 C 624.35971,162.24719 627.49402,167.0886 629.4887,173.01392 C 630.31688,175.4741 630.85833,175.22304 632.72364,171.51392 z M 242.64058,171.26909 C 285.11143,170.7598 324.85609,170.68193 337.14058,171.08393 C 341.58343,171.22933 342.5697,170.97561 342.27184,169.76392 C 342.06903,168.93892 341.66492,166.27973 341.37383,163.8546 L 340.84456,159.44528 L 304.74257,160.12943 C 284.88648,160.50571 262.11558,161.0258 254.14058,161.28518 C 246.16558,161.54457 228.03814,162.03464 213.85738,162.37422 L 188.07418,162.99165 L 186.73406,165.62778 C 185.997,167.07766 185.07171,169.30763 184.67786,170.58328 C 183.96671,172.88665 184.00894,172.89887 190.80118,172.35568 C 194.56285,172.05484 217.89058,171.56588 242.64058,171.26909 z M 315.4726,168.76392 C 315.19563,168.48892 313.10129,168.26392 310.81851,168.26392 C 307.66072,168.26392 306.5874,167.84536 306.33097,166.51392 C 306.1456,165.55142 306.47693,164.76392 307.06726,164.76392 C 307.65758,164.76392 308.14058,165.21392 308.14058,165.76392 C 308.14058,166.84867 325.86701,167.18987 328.55879,166.15693 C 332.63207,164.59387 329.23984,163.81716 319.89058,164.1722 C 309.80163,164.55532 309.76627,164.54888 317.64058,163.76193 C 331.33489,162.39334 336.12221,162.55247 336.83111,164.39984 C 337.17638,165.2996 336.99725,166.7621 336.43304,167.64984 C 335.6041,168.95413 333.54252,169.26392 325.6917,169.26392 C 320.34817,169.26392 315.74958,169.03892 315.4726,168.76392 z M 335.10423,167.30772 C 336.30652,165.85904 335.77087,163.76392 334.19819,163.76392 C 333.7448,163.76392 333.14693,164.63164 332.86959,165.69218 C 332.52971,166.99189 331.26932,167.75464 329.00296,168.03214 C 325.85918,168.41708 325.90893,168.45425 329.76814,168.60388 C 332.32986,168.70321 334.35416,168.2115 335.10423,167.30772 z M 360.14058,170.13565 C 360.14058,167.63697 365.94,158.06685 368.83338,155.79092 C 372.17748,153.16046 371.26063,153.20889 355.28162,156.50678 L 341.92266,159.26392 L 342.49705,164.1198 C 343.32659,171.13281 344.17417,171.76392 352.76302,171.76392 C 358.91249,171.76392 360.14058,171.49287 360.14058,170.13565 z M 145.14058,162.71882 C 167.41558,162.14116 186.20308,161.47911 186.89058,161.24761 C 187.78721,160.94568 188.14074,157.77883 188.14116,150.0453 C 188.14148,144.11554 188.57483,130.93892 189.10417,120.76392 C 189.6335,110.58892 190.33944,96.906551 190.67291,90.358641 L 191.27923,78.453361 L 181.4599,79.067561 C 168.06488,79.905421 144.76189,83.337501 132.55607,86.270151 C 110.25098,91.629331 108.06537,93.643091 94.659299,121.18731 C 77.188129,157.08375 77.373849,156.60068 79.867429,159.66211 C 82.789109,163.24912 88.699459,164.82427 97.140579,164.26554 C 101.26558,163.9925 122.86558,163.29648 145.14058,162.71882 z M 98.206409,158.9836 C 93.916149,154.69334 94.167239,150.95764 99.510959,139.57404 C 101.91467,134.45347 105.45973,126.88892 107.38887,122.76392 C 109.318,118.63892 112.33905,112.21551 114.10231,108.48967 C 115.92535,104.63749 118.72518,100.5848 120.59317,99.094301 C 124.58874,95.906161 131.85569,93.049981 138.04462,92.235231 C 140.5724,91.902461 144.89058,91.222501 147.64058,90.724201 C 150.39058,90.225911 158.64371,89.140451 165.98087,88.312081 C 177.92148,86.963971 179.63095,86.966151 182.27383,88.332831 C 183.8978,89.172621 185.56739,90.850661 185.98403,92.061821 C 186.40066,93.272981 186.26155,106.4172 185.67488,121.27119 C 184.51135,150.73059 184.14011,152.44645 177.92809,157.07663 C 174.62155,159.54119 165.80685,160.28695 127.67323,161.3284 L 101.27224,162.04943 L 98.206409,158.9836 z M 150.64058,159.16824 C 182.94919,158.25335 182.67927,158.49211 184.15401,129.52451 C 185.68217,99.507821 185.49984,92.399031 183.1472,90.269911 C 180.62381,87.986281 171.7911,88.489321 148.64058,92.235121 C 123.23216,96.346251 121.0777,97.521481 114.67309,110.76392 C 112.67806,114.88892 110.66995,118.9607 110.21061,119.81231 C 107.2144,125.36728 96.140579,150.87273 96.140579,152.21868 C 96.140579,155.191 99.075099,159.61251 101.37955,160.11234 C 102.62311,160.38207 109.26558,160.42016 116.14058,160.19699 C 123.01558,159.97382 138.54058,159.51088 150.64058,159.16824 z M 100.67606,156.39031 C 98.654689,154.36894 98.238759,153.22093 98.766279,151.11912 C 99.990649,146.24084 119.27819,105.31187 121.48144,102.91661 C 124.72322,99.392301 130.2159,96.936621 136.24551,96.315881 L 141.64058,95.760461 L 135.34529,97.208621 C 124.5142,99.700201 122.60135,101.48859 116.11044,115.19186 C 103.81148,141.15678 100.14058,149.67161 100.14058,152.23469 C 100.14058,153.49108 100.88925,155.13663 101.8043,155.89148 C 103.31148,157.13479 103.35625,157.05415 102.2801,155.03444 C 100.67391,152.01997 101.45171,149.45287 108.41638,134.78169 C 111.6847,127.89692 115.91636,118.88892 117.82006,114.76392 C 121.70773,106.34003 125.11031,102.2438 129.89017,100.23322 C 131.67745,99.481421 143.36711,97.466121 155.8672,95.754761 C 168.36729,94.043411 178.79247,92.445371 179.03427,92.203571 C 179.80171,91.436131 174.08669,91.728121 167.75588,92.779811 C 154.69725,94.949131 142.14058,96.398011 142.14058,95.735481 C 142.14058,94.817471 162.48321,91.688481 172.78353,91.022141 C 180.3706,90.531331 181.00509,90.642241 182.07793,92.646861 C 182.91411,94.209281 183.01704,100.47494 182.45387,115.53114 C 182.02735,126.93417 181.52248,134.97465 181.33195,133.39887 L 180.98553,130.53381 L 169.31306,131.06693 C 157.64319,131.59994 160.36957,130.75606 175.2444,129.23105 L 180.84822,128.65653 L 181.40351,111.96023 C 181.70892,102.77726 181.76042,95.062141 181.51794,94.815511 C 181.08424,94.374381 160.54642,96.321731 156.64058,97.174331 C 155.54058,97.414441 154.07808,97.645331 153.39058,97.687411 C 152.70308,97.729491 152.07316,99.001421 151.99075,100.51392 L 151.84092,103.26392 L 151.4182,100.4504 C 151.05107,98.006901 150.64335,97.704041 148.31803,98.147481 C 146.84543,98.428311 143.16558,98.956821 140.14058,99.321951 C 132.21846,100.27818 128.16562,102.16509 128.02458,104.9629 C 127.94376,106.5661 127.77312,106.75002 127.46193,105.56935 C 126.45433,101.74656 123.48013,105.83613 116.10937,121.17928 C 107.94788,138.16844 107.89099,138.75518 114.58442,136.90704 C 116.54031,136.36699 118.14058,136.30659 118.14058,136.77281 C 118.14058,137.23903 115.69281,138.16827 112.70109,138.83779 C 107.5287,139.99532 107.16043,140.29028 105.20109,144.84489 C 101.30403,153.90387 102.67196,156.76392 110.90185,156.76392 L 116.26313,156.76392 L 115.60647,152.38501 C 115.13351,149.23108 115.39893,147.20294 116.55526,145.13501 L 118.16072,142.26392 L 117.53936,146.01392 C 117.19761,148.07642 117.21347,151.33892 117.5746,153.26392 C 118.2271,156.74203 118.26442,156.76392 123.54085,156.76392 L 128.85049,156.76392 L 127.15048,149.52943 C 126.21547,145.55046 125.71519,141.38796 126.03875,140.27943 C 126.50954,138.66645 126.67982,138.86308 126.89134,141.26392 C 127.0367,142.91392 127.87077,147.05258 128.74481,150.46093 L 130.33399,156.65795 L 149.48729,156.15898 C 160.0216,155.88454 170.03111,155.45149 171.73065,155.19665 C 176.66838,154.45625 179.33163,150.77051 180.15352,143.54005 L 180.86693,137.26392 L 181.00376,142.56358 C 181.16499,148.80878 179.21744,153.15822 175.37365,155.13719 C 173.50794,156.09775 167.24552,156.73533 155.64058,157.14622 C 146.29058,157.47727 130.68001,158.02406 120.95041,158.36131 L 103.26025,158.9745 L 100.67606,156.39031 z M 146.29847,144.76392 C 146.29847,143.38892 146.52545,142.82642 146.80286,143.51392 C 147.08027,144.20142 147.08027,145.32642 146.80286,146.01392 C 146.52545,146.70142 146.29847,146.13892 146.29847,144.76392 z M 120.81176,142.3467 C 120.40655,141.29223 120.53227,139.97223 121.09113,139.41337 C 122.52135,137.98315 122.92097,138.84452 122.18163,141.76392 C 121.60718,144.03222 121.48022,144.08623 120.81176,142.3467 z M 147.37258,138.76392 C 147.37258,136.83892 147.57838,136.05142 147.82991,137.01392 C 148.08143,137.97642 148.08143,139.55142 147.82991,140.51392 C 147.57838,141.47642 147.37258,140.68892 147.37258,138.76392 z M 124.14058,136.40945 C 124.14058,134.63902 130.95438,132.40841 134.46804,133.02858 C 136.0296,133.3042 136.21874,133.55949 135.14058,133.93637 C 134.31558,134.22475 132.29058,134.92357 130.64058,135.4893 C 128.99058,136.05503 126.85308,136.8464 125.89058,137.2479 C 124.65746,137.76228 124.14058,137.51464 124.14058,136.40945 z M 150.14058,134.43059 C 150.14058,132.41392 150.57933,130.76392 151.11558,130.76392 C 151.67581,130.76392 151.82741,132.14647 151.47194,134.01392 C 150.60446,138.57121 150.14058,138.71638 150.14058,134.43059 z M 120.71228,136.01392 C 121.21005,135.60142 121.95316,134.81392 122.36363,134.26392 C 122.78954,133.69324 123.11653,134.01524 123.12527,135.01392 C 123.13378,135.98671 122.40038,136.76392 121.47391,136.76392 C 120.55725,136.76392 120.21451,136.42642 120.71228,136.01392 z M 138.14058,133.37091 C 138.14058,132.42228 141.13396,131.94419 141.66757,132.80759 C 141.99265,133.33357 141.33206,133.76392 140.1996,133.76392 C 139.06714,133.76392 138.14058,133.58706 138.14058,133.37091 z M 123.29847,128.76392 C 123.29847,127.38892 123.52545,126.82642 123.80286,127.51392 C 124.08027,128.20142 124.08027,129.32642 123.80286,130.01392 C 123.52545,130.70142 123.29847,130.13892 123.29847,128.76392 z M 148.29847,127.76392 C 148.29847,126.38892 148.52545,125.82642 148.80286,126.51392 C 149.08027,127.20142 149.08027,128.32642 148.80286,129.01392 C 148.52545,129.70142 148.29847,129.13892 148.29847,127.76392 z M 151.42659,125.26392 C 151.4341,122.51392 151.62831,121.50761 151.85816,123.02767 C 152.08802,124.54773 152.08187,126.79773 151.84451,128.02767 C 151.60715,129.25761 151.41909,128.01392 151.42659,125.26392 z M 124.35526,122.76392 C 124.34683,120.83892 124.70023,118.13892 125.14058,116.76392 C 125.78811,114.74201 125.94926,114.64639 125.98327,116.26392 C 126.0064,117.36392 125.653,120.06392 125.19795,122.26392 L 124.37058,126.26392 L 124.35526,122.76392 z M 152.41294,115.76392 C 152.41294,113.28892 152.60796,112.27642 152.84631,113.51392 C 153.08467,114.75142 153.08467,116.77642 152.84631,118.01392 C 152.60796,119.25142 152.41294,118.23892 152.41294,115.76392 z M 126.37258,110.76392 C 126.37258,108.83892 126.57838,108.05142 126.82991,109.01392 C 127.08143,109.97642 127.08143,111.55142 126.82991,112.51392 C 126.57838,113.47642 126.37258,112.68892 126.37258,110.76392 z M 155.21953,112.34725 C 155.17611,111.29309 155.41245,110.70246 155.74475,111.03475 C 156.07704,111.36705 156.11256,112.22955 155.82369,112.95142 C 155.50447,113.74915 155.26751,113.5122 155.21953,112.34725 z M 150.41294,107.76392 C 150.41294,105.28892 150.60796,104.27642 150.84631,105.51392 C 151.08467,106.75142 151.08467,108.77642 150.84631,110.01392 C 150.60796,111.25142 150.41294,110.23892 150.41294,107.76392 z M 153.39276,105.26392 C 153.38166,103.06392 153.57737,102.04618 153.82766,103.00227 C 154.07795,103.95835 154.08703,105.75835 153.84784,107.00227 C 153.60865,108.24618 153.40386,107.46392 153.39276,105.26392 z M 156.21953,103.34726 C 156.17611,102.29309 156.41245,101.70247 156.74475,102.03476 C 157.07704,102.36705 157.11256,103.22955 156.82369,103.95142 C 156.50447,104.74916 156.26751,104.5122 156.21953,103.34726 z M 221.14058,160.80482 C 237.36558,160.29092 266.16558,159.61251 285.14058,159.29723 C 304.11558,158.98195 324.26931,158.46357 329.92665,158.14527 C 339.70644,157.59503 340.18084,157.46612 339.56516,155.52629 C 339.20901,154.40416 334.42406,143.98607 328.93194,132.37498 C 305.45457,82.740671 304.83715,81.719591 295.55678,77.179121 L 290.0138,74.467201 L 256.82719,75.074391 C 223.01503,75.693031 194.22684,77.259471 192.97861,78.548571 C 192.25205,79.298931 189.12882,140.64034 189.13627,154.01392 C 189.13935,159.55158 189.49741,161.76039 190.39058,161.75155 C 191.07808,161.74474 204.91558,161.31871 221.14058,160.80482 z M 198.90315,157.19853 C 194.32135,154.71247 193.12025,151.03221 193.31097,140.06358 L 193.48136,130.26392 L 194.06097,140.91037 C 194.52082,149.35705 195.02715,151.98367 196.5115,153.62272 C 200.3925,157.90821 202.55381,158.03121 253.46549,156.86402 C 322.75283,155.27555 321.17877,155.45833 324.73114,148.58879 C 327.3698,143.4862 326.03766,138.6402 316.1201,117.26392 C 305.16458,93.650431 303.63114,91.061491 298.5209,87.550821 C 291.51266,82.736251 288.13919,82.438781 246.77432,82.987791 C 194.12838,83.686521 197.17841,81.780321 195.13048,115.26392 L 194.27421,129.26392 L 194.74613,111.97715 C 195.00568,102.46943 195.66424,93.516791 196.2096,92.082401 C 197.70248,88.155821 203.08994,83.972571 208.14058,82.818251 C 210.68286,82.237211 229.38992,81.676621 251.14058,81.529681 C 285.86864,81.295071 290.01662,81.439371 293.47878,83.002581 C 299.47563,85.710231 304.49503,90.180801 306.86001,94.920681 C 317.12375,115.49116 328.14058,140.34151 328.14058,142.92262 C 328.14058,146.26068 323.90974,152.82922 320.65134,154.54994 C 318.16084,155.86515 310.38299,156.35536 275.64058,157.38681 C 217.78675,159.1044 202.34583,159.06651 198.90315,157.19853 z M 199.92776,153.83836 C 198.41185,152.63075 196.94477,150.23707 196.60258,148.41304 C 196.26577,146.61773 196.64218,133.7707 197.43904,119.86409 C 199.04254,91.880311 199.28473,90.987931 206.20511,87.564381 C 209.17497,86.095191 214.86783,85.769761 248.20934,85.163271 C 276.53565,84.648011 287.29097,84.766191 288.70934,85.608301 C 290.33089,86.571051 289.91898,86.715551 286.14058,86.509421 L 281.64058,86.263921 L 280.99924,98.763921 C 280.6465,105.63892 280.03012,120.64409 279.62949,132.10874 L 278.90108,152.95356 L 297.27083,152.23934 C 316.30727,151.49919 320.04253,150.68417 322.11094,146.81931 C 324.23375,142.8528 323.1108,139.63585 309.75094,111.41122 C 306.66524,104.89224 304.14058,99.332001 304.14058,99.055131 C 304.14058,97.717341 297.41383,90.291961 294.70601,88.640721 C 291.09127,86.436431 292.01633,86.131191 296.02659,88.204981 C 301.35543,90.960631 304.25644,95.893301 316.68851,123.33699 C 324.30852,140.15812 325.00086,142.7817 322.98645,147.20284 C 320.43737,152.79748 319.30096,153.00266 286.19395,153.84591 C 269.3896,154.27392 243.71558,154.93356 229.14058,155.31179 C 202.97483,155.99079 202.60636,155.97221 199.92776,153.83836 z M 258.83653,153.16056 L 278.03248,152.53691 L 278.33653,139.46841 C 278.56074,129.8316 278.3039,126.06413 277.35843,125.1212 C 275.10285,122.87166 270.02352,122.66092 253.14058,124.11643 C 244.06558,124.8988 236.26748,125.19395 235.81146,124.77231 C 235.35545,124.35067 237.44894,117.53879 240.46366,109.6348 C 247.42135,91.393131 247.46408,91.236901 246.1608,88.801701 C 245.26772,87.132971 244.08052,86.763921 239.6054,86.763921 L 234.14058,86.763921 L 234.14058,108.43059 C 234.14058,120.34725 233.88426,129.84093 233.57098,129.52765 C 233.2577,129.21437 233.04544,119.46437 233.09929,107.86099 C 233.16357,94.012191 232.84391,86.763921 232.1689,86.763921 C 231.60332,86.763921 231.05734,89.126421 230.9556,92.013921 L 230.77062,97.263921 L 230.40334,92.013921 L 230.03606,86.763921 L 224.83832,86.772621 C 215.17174,86.788781 209.14199,87.894191 209.12527,89.653221 C 209.11213,91.035351 208.97785,91.055031 208.17906,89.791951 C 206.82197,87.646051 206.19495,89.784651 205.22161,99.879061 L 204.41311,108.26392 L 204.14002,101.26392 L 203.86693,94.263921 L 203.11331,100.76392 C 202.19292,108.70227 200.62594,137.33337 200.72371,144.42563 C 200.76709,147.57289 201.48515,150.64086 202.56363,152.28683 L 204.3324,154.98631 L 221.98649,154.38525 C 231.69624,154.05467 248.27876,153.50356 258.83653,153.16056 z M 202.33553,139.26392 C 202.31515,137.61392 202.52259,136.81786 202.79652,137.49489 C 203.07044,138.17192 203.08711,139.52192 202.83357,140.49489 C 202.58003,141.46786 202.35591,140.91392 202.33553,139.26392 z M 203.21953,127.34725 C 203.17611,126.29309 203.41245,125.70246 203.74475,126.03475 C 204.07704,126.36705 204.11256,127.22955 203.82369,127.95142 C 203.50447,128.74915 203.26751,128.5122 203.21953,127.34725 z M 208.64058,126.78555 C 215.68143,125.44912 227.14058,124.72109 227.14058,125.6102 C 227.14058,126.49601 214.63109,127.84892 208.2397,127.65435 L 204.64058,127.54479 L 208.64058,126.78555 z M 229.68329,125.83302 C 229.36685,125.32102 229.5653,124.61946 230.12427,124.274 C 230.68324,123.92854 231.14058,124.34744 231.14058,125.2049 C 231.14058,126.96143 230.54052,127.22006 229.68329,125.83302 z M 204.21953,110.34725 C 204.17611,109.29309 204.41245,108.70247 204.74475,109.03475 C 205.07704,109.36705 205.11256,110.22955 204.82369,110.95142 C 204.50447,111.74915 204.26751,111.5122 204.21953,110.34725 z M 207.46872,100.26392 C 207.46428,96.413921 207.6414,94.716391 207.86231,96.491621 C 208.08322,98.266851 208.08685,101.41685 207.87038,103.49162 C 207.6539,105.56639 207.47316,104.11392 207.46872,100.26392 z M 200.06058,150.61444 C 199.26413,149.12627 199.1125,144.74212 199.56772,136.36444 C 201.06864,108.74241 202.27968,94.372531 203.26122,92.538501 C 204.77125,89.716991 203.68186,89.288891 201.90248,92.004551 C 199.92233,95.026641 199.33865,99.399191 198.66415,116.26392 C 198.35619,123.96392 197.83395,133.97917 197.50362,138.52004 C 196.91336,146.63383 198.11557,152.76392 200.29708,152.76392 C 200.79971,152.76392 200.69328,151.79665 200.06058,150.61444 z M 258.20337,122.26042 L 264.76616,121.64483 L 270.08148,107.95438 C 273.0049,100.42463 276.46414,92.664741 277.76869,90.710171 C 279.07323,88.755611 280.14058,86.843111 280.14058,86.460171 C 280.14058,85.591891 269.6928,85.572141 256.94503,86.416341 L 247.24948,87.058421 L 247.81883,89.905181 C 248.13198,91.470901 247.90264,93.992141 247.3092,95.507931 C 240.69855,112.39318 237.14058,122.05039 237.14058,123.10803 C 237.14058,124.10065 238.77107,124.21856 244.39058,123.63233 C 248.37808,123.21636 254.59384,122.599 258.20337,122.26042 z M 279.14058,113.41061 C 279.14058,107.7163 279.42353,100.1788 279.76935,96.660621 C 280.65227,87.678421 279.27646,89.521931 272.17303,106.83926 L 266.25615,121.26392 L 271.26377,121.91266 C 274.01796,122.26947 276.54196,122.83197 276.87265,123.16266 C 278.6428,124.93281 279.14058,122.79236 279.14058,113.41061 z M 283.79149,122.67053 C 284.22295,107.0469 284.59051,93.026421 284.60827,91.513921 C 284.63573,89.176461 285.06056,88.763921 287.44024,88.763921 C 295.09233,88.763921 299.49389,93.864121 308.16731,112.78091 C 312.07178,121.29657 316.58804,131.04807 318.20346,134.45091 C 321.77913,141.98299 321.85991,144.1355 318.68603,147.30937 C 316.69968,149.29573 315.22142,149.76479 310.93603,149.76847 C 308.02353,149.77097 300.54803,150.06644 294.3238,150.42508 L 283.00701,151.07714 L 283.79149,122.67053 z M 291.60351,146.76392 C 291.26339,145.38892 289.88238,142.06413 288.53459,139.37551 C 286.18562,134.68967 285.79116,131.374 288.09474,135.67827 C 289.0453,137.4544 290.14798,137.76392 295.52489,137.76392 C 304.9129,137.76392 317.14058,136.58244 317.14058,135.67534 C 317.14058,134.87068 313.29318,126.50045 303.49563,105.99 C 299.37139,97.356211 297.35271,94.248461 294.87541,92.719271 C 291.52823,90.653111 287.34309,89.228081 286.65196,89.919211 C 286.10985,90.461321 284.27295,148.09534 284.7708,148.94182 C 284.99008,149.31467 286.75629,149.53967 288.6957,149.44182 C 291.92615,149.27884 292.17004,149.05423 291.60351,146.76392 z M 317.66275,146.49851 C 319.78137,144.67615 320.16221,143.6983 319.6101,141.49851 L 318.92376,138.76392 L 304.44884,138.76392 C 293.25911,138.76392 290.09156,139.04762 290.49227,140.01392 C 290.77737,140.70142 291.5611,142.95142 292.23389,145.01392 L 293.45716,148.76392 L 304.2431,148.76392 C 314.00856,148.76392 315.27824,148.54958 317.66275,146.49851 z M 358.64058,154.19614 C 369.82173,151.76607 389.36551,146.6604 400.40312,143.28599 C 406.79249,141.33264 442.21209,134.19989 454.6599,132.35983 C 467.95317,130.3948 495.51644,128.46793 499.09357,129.2536 C 503.24588,130.1656 503.47004,128.67499 500.00277,123.20767 C 496.9577,118.40608 496.91552,118.38167 495.67409,120.70131 C 493.83685,124.13422 490.32622,125.68848 484.31915,125.72848 C 481.15712,125.74954 478.43464,126.327 477.61012,127.15152 C 476.42666,128.33498 475.07637,128.31789 468.43155,127.03532 C 461.88585,125.77188 458.50335,125.71565 447.26908,126.6835 C 427.24783,128.40838 425.37681,128.75257 424.83883,130.80979 C 424.123,133.54713 418.29584,134.63629 407.43217,134.06327 C 397.98133,133.56477 397.10336,133.70717 382.20351,138.15536 C 373.71312,140.69007 364.8425,142.76392 362.49102,142.76392 C 356.53983,142.76392 347.97322,139.32822 344.13405,135.40172 C 339.34305,130.50175 320.93734,90.806671 320.42261,84.263921 C 319.55218,73.200011 327.04318,68.179421 351.64058,63.341151 C 370.99396,59.534381 386.12529,58.374891 416.59322,58.363971 L 446.54586,58.353231 L 441.4328,56.033081 C 427.14804,49.551111 411.66165,47.765401 363.64058,47.062991 C 301.0035,46.146791 257.37529,49.805051 187.14058,61.862651 C 177.51558,63.515031 167.84058,65.316181 165.64058,65.865221 C 154.25234,68.707271 137.77385,74.491471 131.02887,78.014461 C 123.97432,81.699151 113.53357,89.490251 114.43813,90.394811 C 114.65449,90.611171 117.03855,89.810871 119.73604,88.616381 C 137.73321,80.646951 201.35146,74.118011 267.14058,73.488711 L 290.64058,73.263921 L 296.37017,76.077491 C 303.63111,79.643031 306.88664,83.596331 313.729,97.156881 C 319.00073,107.60467 336.42078,144.6367 340.25152,153.53917 C 341.79677,157.13029 342.45516,157.7336 344.36587,157.3093 C 345.61696,157.03149 352.04058,155.63056 358.64058,154.19614 z M 379.14058,137.53478 C 384.91558,135.89461 390.65973,134.32146 391.90536,134.03889 C 395.61615,133.19708 395.52237,131.76392 391.75649,131.76392 C 389.83033,131.76392 384.29127,133.06397 379.44748,134.65292 C 368.14742,138.35977 363.3062,139.03361 357.43211,137.7172 C 349.48832,135.93696 346.78285,133.02908 340.0903,119.07792 C 336.77432,112.16552 334.30134,106.26983 334.59477,105.9764 C 334.88821,105.68296 337.43265,110.32812 340.2491,116.29898 C 346.4746,129.49704 348.52922,132.39482 353.447,134.91302 C 358.53553,137.51865 368.14058,137.33452 368.14058,134.63134 C 368.14058,132.59992 369.10645,132.28794 390.81957,127.30592 C 398.71551,125.49422 405.35878,124.30796 405.5824,124.66979 C 405.80602,125.03162 401.1856,126.35305 395.31478,127.60631 C 379.05416,131.0775 369.14058,133.87412 369.14058,134.99005 C 369.14058,135.54391 370.15308,135.74517 371.39058,135.43728 C 392.03006,130.30227 405.6781,126.60233 406.17638,126.00696 C 406.51841,125.59829 407.70508,124.05497 408.81342,122.57737 C 412.29035,117.94207 421.09569,111.03524 428.46532,107.16262 C 434.25005,104.12283 436.85184,103.36597 442.59794,103.05146 C 451.92073,102.54117 456.53195,104.99398 460.14058,112.38274 L 462.64058,117.50157 L 468.58316,117.96048 C 471.85749,118.21334 474.70119,118.94575 474.91649,119.59166 C 475.16415,120.33464 477.79528,120.76392 482.10147,120.76392 C 491.93023,120.76392 492.53552,119.56989 487.04227,111.01729 C 474.23213,91.072801 462.98779,76.356871 455.96589,70.346391 C 451.62739,66.632801 449.85197,66.300761 452.25077,69.651591 C 453.01517,70.719361 457.69058,77.519911 462.64058,84.763921 C 467.59058,92.007941 472.31558,98.889721 473.14058,100.05677 C 473.96558,101.22381 474.15294,101.88006 473.55693,101.51509 C 472.96092,101.15012 471.16765,98.919301 469.57187,96.557721 C 464.06241,88.404241 458.85872,81.712451 458.39133,82.179841 C 458.13342,82.437751 458.94432,84.137181 460.19333,85.956351 C 464.26727,91.889991 460.4671,87.462301 454.23483,79.013921 C 450.88756,74.476421 447.67046,70.763921 447.08572,70.763921 C 446.50097,70.763921 446.35146,71.326421 446.75346,72.013921 C 447.15546,72.701421 446.57242,72.465871 445.45781,71.490461 C 443.60078,69.865361 441.23929,69.751561 417.22958,70.130131 C 402.81866,70.357351 390.7832,70.787971 390.48411,71.087061 C 388.97784,72.593331 391.68325,73.932761 395.12144,73.382981 C 399.32665,72.710541 401.49999,74.321341 402.66015,78.970411 C 403.41666,82.001931 404.44646,81.556271 390.5408,84.215171 C 378.85408,86.449781 378.29009,86.365991 376.52115,82.132331 C 374.69535,77.762571 375.41074,76.805631 381.07089,76.046451 C 384.60737,75.572101 385.19743,75.164961 384.94197,73.375361 C 384.66474,71.433151 384.11961,71.290981 378.14058,71.601491 C 374.56558,71.787151 371.27321,72.289521 370.82421,72.717861 C 370.37521,73.146201 370.64583,85.819301 371.4256,100.88029 C 372.20537,115.94129 372.68523,128.45142 372.49197,128.68059 C 371.54794,129.79999 371.24308,126.27533 370.0543,100.49731 C 369.12934,80.440151 369.07676,72.427741 369.86494,71.639561 C 370.46506,71.039441 373.88637,70.313211 377.46785,70.025731 C 383.56562,69.536261 383.93041,69.370001 383.20559,67.410631 C 382.55724,65.657961 381.71789,65.361871 378.03607,65.587001 C 373.09488,65.889131 354.85358,68.769831 354.24808,69.343631 C 354.0322,69.548211 354.40762,70.380771 355.08235,71.193761 C 356.22064,72.565311 358.59671,98.641131 357.66802,99.569811 C 357.01701,100.22083 356.27277,93.910421 355.76793,83.459011 C 355.50488,78.013231 354.76112,73.011631 354.09501,72.209011 C 352.83893,70.695531 347.4672,70.437521 343.14058,71.682871 C 340.63934,72.402811 340.33045,73.515201 341.59085,77.263921 C 341.96069,78.363921 341.40274,77.735891 340.35095,75.868301 C 339.29916,74.000711 338.18069,72.890001 337.86546,73.400071 C 337.55022,73.910131 342.47315,85.113161 348.80531,98.295691 C 362.0507,125.87047 364.2719,130.76392 363.54304,130.76392 C 363.25349,130.76392 359.41005,123.22642 355.00206,114.01392 C 345.18324,93.493001 335.8998,74.407601 335.46437,73.847261 C 335.28628,73.618091 334.86863,73.702541 334.53624,74.034931 C 334.20386,74.367311 334.69569,76.129811 335.6292,77.951591 C 339.93302,86.350691 353.93889,116.76392 353.503,116.76392 C 353.23407,116.76392 348.3385,107.20142 342.62393,95.513921 C 336.90937,83.826421 332.21284,74.818261 332.1872,75.495791 C 332.16156,76.173311 333.94439,80.632001 336.14906,85.403981 C 338.35372,90.175961 340.01551,94.222331 339.84192,94.395911 C 339.66834,94.569501 337.54696,90.673311 335.12774,85.737721 C 332.70852,80.802131 330.36017,76.763921 329.90919,76.763921 C 329.45821,76.763921 329.80896,78.155741 330.68864,79.856851 C 331.56832,81.557971 332.09044,83.147401 331.84892,83.388921 C 331.60739,83.630441 330.8416,82.456341 330.14715,80.779801 C 329.1443,78.358691 328.60226,77.965801 327.51255,78.870181 C 325.4322,80.596721 325.85773,84.879861 328.75637,91.389491 C 331.75948,98.133751 334.445,105.40168 333.6344,104.59108 C 333.33145,104.28812 331.27493,100.3002 329.06436,95.729021 C 325.8674,89.118111 325.10604,86.502391 325.34286,82.943351 C 325.80568,75.987621 329.56366,73.578891 345.64058,69.933241 C 370.98249,64.186621 385.73163,62.655781 415.14058,62.719681 C 442.63716,62.779431 450.23955,63.691781 454.98313,67.501091 C 461.02802,72.355421 470.58872,84.321501 482.26791,101.65047 C 496.45521,122.70082 497.38167,121.3049 468.64058,122.18292 C 441.28177,123.01872 426.90752,124.39798 405.78976,128.21368 C 386.52224,131.69507 401.92975,131.38366 425.14058,127.82257 C 433.88375,126.48116 447.93609,125.41408 465.02146,124.79418 C 502.3366,123.44028 501.63075,124.7524 480.83159,95.404391 C 469.0996,78.850331 457.82881,66.473591 451.64058,63.348981 C 447.26076,61.137501 444.71453,60.716771 431.11243,59.957021 C 392.08308,57.777021 340.1841,63.953131 327.45693,72.292301 C 323.75847,74.715631 320.8494,81.391581 321.63877,85.644291 C 322.24643,88.918021 329.8156,105.8733 339.56282,125.79496 C 343.77531,134.40457 349.47546,139.199 357.18662,140.61845 C 362.88303,141.66703 366.26224,141.19238 379.14058,137.53478 z M 357.29847,106.76392 C 357.29847,105.38892 357.52545,104.82642 357.80286,105.51392 C 358.08027,106.20142 358.08027,107.32642 357.80286,108.01392 C 357.52545,108.70142 357.29847,108.13892 357.29847,106.76392 z M 343.74492,83.672621 C 341.50764,79.187891 341.77274,78.636841 344.28217,82.555851 C 345.44152,84.366401 346.15589,86.081951 345.86966,86.368181 C 345.58344,86.654401 344.6273,85.441401 343.74492,83.672621 z M 416.16036,131.66626 C 418.97539,131.06254 421.06042,130.35043 420.79378,130.08378 C 419.97629,129.26629 409.14058,130.93571 409.14058,131.87914 C 409.14058,133.01927 409.96856,132.99416 416.16036,131.66626 z M 424.14058,130.2049 C 424.14058,129.96236 423.69058,129.76392 423.14058,129.76392 C 422.59058,129.76392 422.14058,130.24048 422.14058,130.82294 C 422.14058,131.4054 422.59058,131.60384 423.14058,131.26392 C 423.69058,130.924 424.14058,130.44744 424.14058,130.2049 z M 417.98032,120.6883 C 427.68139,111.98923 437.91659,106.76392 445.25501,106.76392 C 449.63862,106.76392 455.74368,111.33435 456.7579,115.37534 C 457.12745,116.84776 458.08808,117.76392 459.26241,117.76392 C 461.06857,117.76392 461.08778,117.57331 459.63262,114.09062 C 457.57561,109.16751 456.47672,107.97606 451.78603,105.58305 C 441.77109,100.47381 424.28218,107.42463 411.70249,121.51392 C 408.21829,125.41623 408.08833,125.76392 410.11396,125.76392 C 411.35555,125.76392 414.79476,123.54483 417.98032,120.6883 z M 431.05888,123.11685 L 437.64058,122.4871 L 442.40733,115.87551 L 447.17408,109.26392 L 444.17958,108.95222 C 440.29396,108.54777 430.15125,113.4197 423.64058,118.81789 C 417.38853,124.00166 416.82599,125.27684 421.17495,124.40705 C 422.99118,124.0438 427.43894,123.46321 431.05888,123.11685 z M 474.05725,120.13904 C 474.88853,119.39064 450.52213,119.93454 446.14058,120.76218 C 443.32154,121.29468 447.61731,121.40711 457.64058,121.06318 C 466.44058,120.76122 473.82808,120.34536 474.05725,120.13904 z M 447.39058,116.06645 C 451.88107,110.14784 450.96783,107.45731 446.32602,112.93014 C 441.23743,118.92975 440.80658,119.76837 442.83388,119.72748 C 443.82756,119.70743 445.87808,118.05997 447.39058,116.06645 z M 455.40702,118.16415 C 456.28464,117.28653 454.01393,112.76392 452.69567,112.76392 C 452.07754,112.76392 450.77433,114.11392 449.79965,115.76392 L 448.02751,118.76392 L 451.41738,118.76392 C 453.28181,118.76392 455.07714,118.49402 455.40702,118.16415 z M 391.78362,82.164721 C 396.10495,81.285161 400.01977,80.208471 400.48322,79.772081 C 400.94667,79.335691 400.78724,77.972221 400.12892,76.742151 C 399.04979,74.725761 398.42554,74.568071 393.78628,75.139941 C 386.07128,76.090941 377.95761,77.613571 377.34602,78.225151 C 377.04804,78.523131 377.40595,79.891261 378.14139,81.265431 C 379.72708,84.228331 381.17582,84.323831 391.78362,82.164721 z M 454.67508,75.810921 C 451.29629,71.208081 448.97625,68.964191 450.74924,72.013921 C 452.86211,75.648281 457.53692,81.700921 457.92858,81.309261 C 458.17681,81.061021 456.71274,78.586771 454.67508,75.810921 z M 389.14058,73.731811 C 389.14058,71.643381 385.90203,65.304451 385.44853,66.505211 C 384.82633,68.152631 387.04346,74.763921 388.21813,74.763921 C 388.72548,74.763921 389.14058,74.299471 389.14058,73.731811 z M 417.82936,68.763921 C 440.75219,68.763921 442.31474,68.649591 441.74512,67.013921 C 441.20591,65.465621 441.30153,65.477661 442.57475,67.118381 C 444.56307,69.680621 446.66643,68.865321 444.76753,66.268431 C 443.39414,64.390211 442.03537,64.295241 416.318,64.279961 C 401.46402,64.271141 389.011,64.562881 388.64465,64.928281 C 387.45424,66.115561 390.19891,69.955521 391.79906,69.341481 C 392.62686,69.023831 404.3405,68.763921 417.82936,68.763921 z M 449.14058,67.886371 C 449.14058,67.403711 448.46558,66.448611 447.64058,65.763921 C 446.01237,64.412631 445.80884,64.735861 446.74757,67.182141 C 447.39012,68.856601 449.14058,69.371741 449.14058,67.886371 z " id="path1873"/>
</svg>