<?xml version="1.0" encoding="UTF-8" standalone="no"?>
<!-- Created with Inkscape (http://www.inkscape.org/) -->
<svg
   xmlns:dc="http://purl.org/dc/elements/1.1/"
   xmlns:cc="http://creativecommons.org/ns#"
   xmlns:rdf="http://www.w3.org/1999/02/22-rdf-syntax-ns#"
   xmlns:svg="http://www.w3.org/2000/svg"
   xmlns="http://www.w3.org/2000/svg"
   xmlns:sodipodi="http://sodipodi.sourceforge.net/DTD/sodipodi-0.dtd"
   xmlns:inkscape="http://www.inkscape.org/namespaces/inkscape"
   width="608"
   height="472"
   id="svg2611"
   sodipodi:version="0.32"
   inkscape:version="0.46"
   version="1.0"
   sodipodi:docname="stained_glass.svg"
   inkscape:output_extension="org.inkscape.output.svg.inkscape">
  <defs
     id="defs2613">
    <inkscape:perspective
       sodipodi:type="inkscape:persp3d"
       inkscape:vp_x="0 : 526.18109 : 1"
       inkscape:vp_y="0 : 1000 : 0"
       inkscape:vp_z="744.09448 : 526.18109 : 1"
       inkscape:persp3d-origin="372.04724 : 350.78739 : 1"
       id="perspective2619" />
    <inkscape:perspective
       id="perspective2699"
       inkscape:persp3d-origin="372.04724 : 350.78739 : 1"
       inkscape:vp_z="744.09448 : 526.18109 : 1"
       inkscape:vp_y="0 : 1000 : 0"
       inkscape:vp_x="0 : 526.18109 : 1"
       sodipodi:type="inkscape:persp3d" />
  </defs>
  <sodipodi:namedview
     id="base"
     pagecolor="#ffffff"
     bordercolor="#666666"
     borderopacity="1.0"
     gridtolerance="10000"
     guidetolerance="10"
     objecttolerance="10"
     inkscape:pageopacity="0.0"
     inkscape:pageshadow="2"
     inkscape:zoom="0.51218108"
     inkscape:cx="372.04724"
     inkscape:cy="318.44206"
     inkscape:document-units="px"
     inkscape:current-layer="layer1"
     showgrid="false"
     inkscape:window-width="1280"
     inkscape:window-height="744"
     inkscape:window-x="0"
     inkscape:window-y="102" />
  <metadata
     id="metadata2616">
    <rdf:RDF>
      <cc:Work
         rdf:about="">
        <dc:format>image/svg+xml</dc:format>
        <dc:type
           rdf:resource="http://purl.org/dc/dcmitype/StillImage" />
      </cc:Work>
    </rdf:RDF>
  </metadata>
  <g
     inkscape:label="Layer 1"
     inkscape:groupmode="layer"
     id="layer1"
     transform="translate(-15.7067,-217.816)">
    <path
       style="fill:#000000"
       d="M 332.20247,694.0266 C 331.90263,693.64247 332.10671,692.97235 332.65597,692.53747 C 333.33389,692.0007 333.48893,678.18782 333.13869,649.52748 C 332.85491,626.30687 332.88331,606.48617 333.2018,605.48147 C 333.71796,603.85311 334.48796,603.59683 340.29219,603.12148 C 358.09358,601.66359 380.86386,596.53804 397.15806,590.32108 C 437.6582,574.86847 465.7936,553.72155 486.19033,523.40331 C 491.06201,516.1619 496.48453,506.09039 499.3289,499.00041 C 501.61498,493.302 505.273,478.63873 506.38657,470.70947 C 507.31554,464.09472 507.85903,462.39919 509.04653,462.41138 C 509.86736,462.4198 535.24375,462.38403 565.43848,462.3319 C 595.63322,462.27977 621.31966,462.27287 622.51945,462.31658 L 624.70088,462.39604 L 624.44574,475.93204 C 624.30542,483.37684 624.61134,529.96159 625.12557,579.45374 C 625.63981,628.94589 626.07321,674.93011 626.08873,681.64092 L 626.11691,693.84236 L 619.37486,694.00302 C 595.02008,694.58333 332.65387,694.60488 332.20247,694.0266 z M 408.92669,670.67671 C 408.92669,654.57213 408.63477,649.23828 407.72275,648.67816 C 407.06059,648.27149 403.48489,647.16274 399.77676,646.21429 C 396.06863,645.26581 390.2175,643.51473 386.77425,642.32298 C 383.33099,641.13122 378.9968,639.79222 377.14275,639.34743 C 375.28869,638.90263 368.97825,635.71116 363.11956,632.25526 C 357.26085,628.79935 350.88754,625.38419 348.95661,624.66602 C 345.45301,623.36292 341.87402,619.34424 342.96842,617.94218 C 343.93439,616.70467 344.99289,617.10343 346.16951,619.14808 C 346.78546,620.21844 348.771,621.58434 350.58181,622.18339 C 354.56117,623.49984 361.12096,626.92928 369.12973,631.88015 C 372.75865,634.12349 377.761,636.30096 381.94411,637.45812 C 385.71803,638.50208 389.54061,639.68547 390.43868,640.08784 C 395.22209,642.23102 413.02305,646.20736 419.52133,646.58426 C 438.19627,647.66744 451.7923,647.61199 457.08415,646.43111 C 459.99768,645.78093 462.72675,644.99645 463.14876,644.68779 C 463.57075,644.37913 459.63261,643.90435 454.39733,643.63269 C 442.16748,642.9981 428.63478,641.16293 424.33707,639.55617 C 422.483,638.863 419.66581,637.87428 418.07659,637.35901 C 416.4874,636.84374 412.36994,635.38717 408.92669,634.12219 C 405.48343,632.85719 398.33204,630.41798 393.03471,628.70173 C 383.71773,625.68316 381.24337,624.61397 374.42399,620.65998 C 366.40744,616.01184 356.9166,607.62523 356.9166,605.1895 C 356.9166,604.42 356.24255,604.19818 354.74951,604.47635 C 353.55761,604.69842 349.22345,605.29745 345.11802,605.80753 C 341.0126,606.31762 337.65361,607.07889 337.65361,607.49924 C 337.65361,607.91959 338.98441,609.97595 340.61093,612.06895 C 342.67068,614.7194 343.26222,616.11667 342.55999,616.67268 C 341.85775,617.22869 341.00954,617.08249 339.7653,616.19093 C 338.78276,615.48692 337.72534,615.11162 337.41547,615.35697 C 336.60341,615.99993 336.48718,690.75815 337.29725,691.39953 C 337.66982,691.69453 353.93887,691.93589 373.45068,691.93589 L 408.92669,691.93589 L 408.92669,670.67671 z M 504.24617,672.29917 C 504.18359,661.49898 503.88308,649.3166 503.57837,645.2272 C 502.90772,636.22678 502.85961,636.21188 490.79439,641.26571 C 484.74951,643.79779 479.07193,645.37542 469.09341,647.2958 C 450.94875,650.78774 448.3499,650.98209 431.30632,650.12152 C 423.22042,649.71325 415.74398,649.55742 414.69198,649.77525 C 412.84403,650.15787 412.77927,650.86086 412.77927,670.54519 C 412.77927,681.75084 413.06822,691.14788 413.42138,691.4275 C 413.77453,691.70711 434.38018,691.93589 459.21171,691.93589 L 504.35994,691.93589 L 504.24617,672.29917 z M 619.36303,690.72621 C 620.98583,690.40373 621.70721,689.56328 622.14001,687.49091 C 622.90383,683.83348 622.89659,669.29232 622.12773,662.84783 L 621.5233,657.78139 L 618.0412,657.33368 C 616.12605,657.08745 612.93536,656.19307 610.95078,655.34617 C 608.96622,654.49927 606.32657,653.80634 605.08494,653.80634 C 603.8433,653.80634 600.13922,652.74276 596.85364,651.44283 C 592.47685,649.71113 589.83157,647.97995 586.9585,644.96698 C 582.54044,640.33383 576.15123,627.377 575.09057,620.89974 C 573.66846,612.21528 571.48553,605.53347 567.72581,598.35672 C 565.57514,594.25145 563.11235,590.26933 562.25289,589.50753 C 560.76532,588.18902 560.63076,588.18687 559.45255,589.46265 C 558.77182,590.19974 558.21486,591.43762 558.21486,592.21348 C 558.21486,593.77605 553.06819,602.06756 550.33221,604.91273 C 549.37036,605.91299 548.58336,607.22504 548.58336,607.82836 C 548.58336,610.87138 521.99244,630.73101 513.18837,634.26336 C 508.55055,636.12417 508.39454,636.29658 507.79306,640.22676 C 507.45242,642.45273 507.45827,654.81171 507.80606,667.69114 C 508.35922,688.17492 508.63033,691.15055 509.97026,691.44537 C 512.18489,691.93265 616.75134,691.24521 619.36303,690.72621 z M 621.84085,652.47182 C 622.15921,645.16248 621.56538,553.48285 621.1966,553.01042 C 620.92672,552.66467 607.94566,552.38177 592.34983,552.38177 L 563.99377,552.38177 L 563.99377,555.31631 C 563.99377,558.03185 564.29883,558.35912 568.08128,559.70121 C 574.71366,562.05454 582.17727,568.73708 587.24806,576.86221 C 595.71832,590.43437 598.13465,597.95424 600.57789,618.34587 C 602.36819,633.28777 602.56544,634.27413 605.053,640.7224 C 607.71836,647.63149 608.96154,649.1842 614.06032,651.97238 C 618.0676,654.16367 621.75686,654.40049 621.84085,652.47182 z M 604.44604,649.50597 C 604.44604,649.2379 603.20431,645.72046 601.68667,641.68941 C 598.9411,634.39699 597.7042,627.75566 595.70574,609.57608 C 594.46329,598.27389 591.91958,591.37344 584.55124,579.31676 C 580.38126,572.49349 578.30226,570.03962 574.13868,567.02672 C 567.73536,562.39309 565.76339,561.89875 562.9939,564.23285 C 561.03787,565.8814 560.92045,566.60522 561.24163,575.03325 C 561.56616,583.54887 561.73117,584.19073 564.12044,586.23055 C 568.13865,589.66103 575.07441,603.26468 576.50719,610.5257 C 579.61927,626.29672 582.54459,633.98025 587.96015,640.60763 C 591.31099,644.70827 596.1636,648.37808 599.63028,649.43324 C 601.64827,650.04747 604.44604,650.08971 604.44604,649.50597 z M 483.58197,639.40861 C 500.23428,635.24658 504.04786,632.93871 507.95134,624.661 L 510.0079,620.29985 L 506.04833,616.65379 C 501.55015,612.51177 476.80657,591.81767 459.3198,577.57276 L 447.58975,568.01735 L 445.199,569.54129 C 431.56803,578.23013 416.5602,586.23058 405.31487,590.80292 C 403.59324,591.50291 402.18463,592.4147 402.18463,592.82911 C 402.18463,593.86717 413.05167,612.95201 421.32995,626.45235 L 428.1712,637.60921 L 437.08956,638.87294 C 441.99467,639.56797 451.64236,640.41721 458.52889,640.76011 C 465.4154,641.103 471.91666,641.42729 472.97612,641.48076 C 474.03559,641.53421 478.80821,640.60175 483.58197,639.40861 z M 420.0852,631.88187 C 418.68469,628.74549 411.58669,616.31949 403.48341,602.81821 C 398.80203,595.01831 398.06941,594.19715 396.14052,594.5878 C 394.96206,594.82646 386.73812,596.9841 377.86511,599.38253 C 366.74545,602.38825 361.73235,604.09403 361.73235,604.8719 C 361.73235,607.21996 369.86268,614.19283 378.31766,619.09607 C 383.55219,622.13171 391.86775,625.5328 398.81361,627.47897 C 401.46227,628.2211 405.57974,629.52676 407.96353,630.38041 C 411.53669,631.65999 420.42729,634.5732 421.16411,634.70592 C 421.27305,634.72552 420.78754,633.4547 420.0852,631.88187 z M 525.98632,622.66065 C 530.73358,619.37153 536.58879,614.99616 538.99792,612.93761 C 545.04235,607.77274 552.82401,596.3561 556.02634,587.95483 C 557.29953,584.61467 550.9905,584.31299 544.21514,587.39005 C 538.21898,590.11322 535.65401,593.65098 530.89421,605.76313 C 528.51513,611.8171 526.14712,616.06795 523.24754,619.48977 C 516.19925,627.80753 515.58342,628.64085 516.48484,628.64085 C 516.96341,628.64085 521.23906,625.94976 525.98632,622.66065 z M 521.78215,615.29552 C 523.10139,613.6178 525.80812,608.29874 527.79711,603.47536 C 529.7861,598.65197 532.52755,593.07672 533.8892,591.0859 C 537.01068,586.52211 543.57598,583.06905 551.35787,581.8981 C 558.05869,580.88983 557.92979,581.16446 557.42641,568.96812 L 557.11952,561.53286 L 552.85552,561.53286 C 549.94605,561.53286 546.37198,562.38442 541.60461,564.2135 C 529.51266,568.85276 527.08207,570.64444 522.16327,578.5445 C 519.74288,582.43185 517.76258,586.22246 517.76258,586.9681 C 517.76258,587.71374 517.22617,589.07337 516.57055,589.9895 C 515.79165,591.07791 515.19012,596.94093 514.83487,606.907 C 514.53587,615.29552 513.92295,622.84516 513.47288,623.684 C 512.46512,625.56225 518.49873,619.47112 521.78215,615.29552 z M 513.88117,586.31706 C 517.02676,578.60596 521.85789,571.41535 526.10557,568.12235 C 531.38541,564.02914 546.06819,558.58304 552.54989,558.31369 C 556.90927,558.13252 557.86916,557.80976 559.06299,556.12367 C 559.8331,555.03602 560.1786,553.55894 559.83078,552.84127 C 559.19606,551.53171 542.88041,545.07682 520.92316,537.44844 C 514.45062,535.19974 508.38277,533.00719 507.43906,532.57608 C 505.92686,531.88526 489.74263,526.45368 489.19645,526.45368 C 489.08001,526.45368 486.50916,529.62796 483.48343,533.50764 C 475.18833,544.14387 465.80515,553.68097 456.68645,560.74421 C 453.72679,563.03672 451.30526,565.22571 451.30526,565.60862 C 451.30526,566.89897 477.4303,589.18867 497.47522,605.00053 L 510.52631,615.29552 L 511.11494,603.47536 C 511.57615,594.21369 512.17492,590.49975 513.88117,586.31706 z M 620.67099,548.65767 C 621.74189,548.12029 621.86239,541.46346 621.36444,510.34914 C 621.03296,489.63719 620.53377,471.24451 620.25511,469.47656 C 619.61291,465.40214 620.64982,465.53962 588.55407,465.27307 L 563.51218,465.06513 L 563.44542,501.28817 C 563.40871,521.21087 563.55132,540.17077 563.7623,543.42132 L 564.14595,549.33141 L 591.76041,549.31973 C 606.94835,549.31331 619.95812,549.01536 620.67099,548.65767 z M 559.80778,514.44286 C 559.4842,496.09304 559.2035,477.99103 559.18398,474.21621 C 559.16447,470.44137 558.76861,466.87794 558.30431,466.29747 C 557.62145,465.44379 553.269,465.26263 535.53459,465.34971 C 521.01399,465.421 513.17198,465.74461 512.31482,466.30787 C 511.60296,466.77561 511.02052,467.95139 511.02052,468.92068 C 511.02052,469.88996 509.92782,475.3674 508.59229,481.09276 C 505.91249,492.58087 501.18754,504.92476 495.48442,515.33697 C 493.43463,519.07926 491.76965,522.51092 491.78446,522.96287 C 491.79927,523.41483 499.70914,526.65914 509.36194,530.17247 C 547.50777,544.05637 557.78682,547.69104 559.06471,547.74746 C 560.18712,547.797 560.30377,542.56914 559.80778,514.44286 z M 13.890966,586.21469 C 13.811543,527.13207 13.750124,476.31177 13.754486,473.28066 C 13.75884,470.24955 14.250895,467.30353 14.847941,466.73394 C 15.741695,465.88128 25.9328,465.71271 72.532605,465.77984 L 129.13173,465.86138 L 129.39467,468.13232 C 133.4713,503.34423 153.78921,536.66105 186.61555,561.96176 C 205.56745,576.56884 219.98808,584.09742 246.1544,593.04521 C 260.46365,597.93838 288.13038,603.47536 298.27088,603.47536 L 302.01707,603.47536 L 302.18908,646.18044 C 302.28366,669.66823 302.39203,689.6336 302.42986,690.54792 C 302.51348,692.56862 317.1596,692.33631 142.37504,693.08665 L 14.035361,693.63762 L 13.890966,586.21469 z M 136.90906,690.22651 C 137.11082,690.06675 137.31647,676.99162 137.36606,661.17065 L 137.45619,632.40527 L 135.22027,630.9364 C 133.9905,630.12853 130.60054,628.44033 127.68701,627.18487 C 120.97691,624.29343 113.12754,619.0639 105.26301,612.24515 C 96.019864,604.2311 85.916185,592.67568 84.210245,588.16741 C 83.587078,586.52057 82.692707,585.17317 82.222748,585.17317 C 80.394478,585.17317 76.396859,589.22642 73.663006,593.85202 C 71.30226,597.84632 70.705839,600.02158 70.268106,606.23397 C 69.790094,613.01804 65.77249,628.91141 63.160659,634.35057 C 61.841636,637.09741 56.017942,643.99824 53.006905,646.38228 C 49.957112,648.79699 33.686521,653.66316 25.658159,654.56167 C 22.290959,654.93851 19.204276,655.52327 18.798878,655.86113 C 17.964789,656.55626 17.588295,665.45757 17.766718,680.2646 L 17.887959,690.32715 L 22.462921,690.66007 C 27.915675,691.05689 136.37927,690.64597 136.90906,690.22651 z M 203.61894,689.90644 L 232.67031,689.40217 L 232.67031,666.24219 C 232.67031,647.6664 232.41659,643.00511 231.3884,642.69272 C 230.68335,642.47852 228.19049,642.64322 225.84871,643.05874 C 223.50693,643.47426 214.87366,644.05007 206.66368,644.33833 C 194.93148,644.75026 189.57185,644.59257 181.62339,643.60159 C 168.3748,641.9498 161.42305,640.72971 160.81394,639.9494 C 160.5425,639.60165 159.33469,639.31713 158.12992,639.31713 C 156.92513,639.31713 155.66043,639.09625 155.31947,638.82629 C 154.40235,638.10014 143.77408,634.7492 142.37504,634.74511 C 141.43421,634.74236 141.1711,640.71332 141.1711,662.06774 C 141.1711,677.09714 141.46005,689.62269 141.81321,689.90231 C 142.63015,690.54913 166.50045,690.55073 203.61894,689.90644 z M 296.01485,689.00207 L 299.16253,688.71545 L 299.02403,660.77527 C 298.94784,645.40819 298.61493,627.77928 298.28422,621.59996 L 297.68291,610.36482 L 290.94086,616.46012 C 283.64812,623.05327 275.69828,628.33975 269.09891,630.98455 C 266.80921,631.90219 263.85229,633.22488 262.52794,633.92386 C 258.87647,635.85117 243.41998,640.91827 239.75682,641.38894 L 236.52291,641.80445 L 236.52291,665.21788 C 236.52291,678.09528 236.84797,688.89129 237.24527,689.209 C 237.94259,689.76664 289.61653,689.5847 296.01485,689.00207 z M 26.802245,648.619 C 30.86899,646.55233 35.180886,642.30122 37.009772,638.55535 C 41.514008,629.32992 41.906626,628.0032 41.974913,621.77753 C 42.066221,613.45391 44.379262,594.84364 45.813555,590.8926 C 50.440333,578.14729 52.641314,574.5203 60.990154,565.88315 C 64.382271,562.37389 66.582605,560.97345 71.673467,559.08353 C 75.199703,557.77445 78.414185,556.33156 78.816752,555.87712 C 79.21933,555.42266 79.436039,553.33501 79.298327,551.23789 L 79.047956,547.42492 L 49.252655,547.22305 C 29.317009,547.08799 19.121282,547.28726 18.441761,547.82529 C 17.488223,548.58028 16.847401,645.50437 17.759841,650.96472 L 18.113308,653.07995 L 20.730359,651.72732 C 22.169736,650.98337 24.902087,649.58463 26.802245,648.619 z M 39.995814,648.14989 C 43.780906,647.13596 47.887987,645.78231 49.122669,645.14177 C 52.651032,643.31131 59.025309,635.15299 60.682707,630.3463 C 61.512326,627.94031 62.850612,624.20319 63.656682,622.04159 C 64.462752,619.87998 65.738798,613.24654 66.492338,607.30063 C 68.095202,594.65288 70.981347,588.55512 77.587167,583.85981 L 81.484475,581.08966 L 81.076908,573.40838 C 80.852745,569.18367 80.629592,564.61182 80.581011,563.2487 C 80.507204,561.1777 80.121742,560.77026 78.2363,560.77026 C 72.139487,560.77026 61.466615,568.34042 56.195778,576.40338 C 51.265802,583.9449 47.241569,597.50199 46.91484,607.6696 C 46.754505,612.65915 44.84508,630.91466 44.282677,632.83509 C 43.914187,634.09337 43.025633,635.79977 42.308125,636.6271 C 41.590608,637.4544 41.003548,638.71495 41.003548,639.42829 C 41.003548,640.14162 39.920006,641.74486 38.595675,642.991 C 37.271344,644.23715 36.187801,645.61124 36.187801,646.04452 C 36.187801,646.47782 35.045814,647.54357 33.650036,648.41286 C 30.371322,650.45486 31.577763,650.40486 39.995814,648.14989 z M 229.81317,639.73123 C 243.26941,638.23528 248.35357,636.81204 265.41741,629.76435 C 274.18621,626.14265 286.54265,617.24378 293.05394,609.86098 L 295.15668,607.47683 L 289.46051,606.51973 C 281.69805,605.21545 279.39609,606.08601 269.08999,614.22356 C 264.12143,618.14667 258.17298,621.95904 254.4443,623.61004 C 250.99089,625.13914 247.86961,626.76916 247.50809,627.23231 C 245.84993,629.35657 218.02,637.85576 206.66527,639.70559 C 193.23754,641.8931 210.19767,641.91191 229.81317,639.73123 z M 200.38571,638.20377 C 204.61307,637.48401 208.85455,636.56346 209.81122,636.15806 C 211.92412,635.26274 236.52291,595.44712 236.52291,592.92251 C 236.52291,592.29336 224.93288,587.87285 221.11253,587.04489 C 219.78818,586.75788 217.83781,585.94313 216.77835,585.23435 C 215.71887,584.52553 213.22969,583.10653 211.24681,582.08097 C 209.26393,581.05541 207.63862,580.00957 207.635,579.75689 C 207.63138,579.50418 204.91957,577.63014 201.60874,575.59231 C 198.29791,573.55448 195.37235,571.69672 195.10748,571.46394 C 194.8426,571.23116 193.18322,570.10195 191.41992,568.95461 C 188.68155,567.1728 187.95906,567.00986 186.46653,567.83759 C 184.95597,568.67532 157.14221,592.90538 141.55596,606.9616 L 136.35535,611.6517 L 136.35535,616.9103 C 136.35535,619.80253 136.75044,623.25964 137.23334,624.59278 C 138.22466,627.32957 142.851,631.02366 148.00532,633.19415 C 151.32241,634.591 166.52557,638.85708 170.54717,639.51954 C 174.88375,640.23388 193.20794,639.42584 200.38571,638.20377 z M 238.50773,628.35383 C 243.39518,626.43558 251.20145,622.46766 259.99662,617.43103 C 264.58459,614.80369 274.30352,605.89915 273.82467,604.76171 C 273.48491,603.95469 266.95851,602.23747 261.08323,601.40915 C 259.49403,601.18512 257.43051,600.47224 256.49762,599.82499 C 255.09709,598.85327 242.17384,594.32426 240.80164,594.32426 C 240.30762,594.32426 216.29677,633.22225 216.29677,634.02259 C 216.29677,634.85578 232.43768,630.73623 238.50773,628.35383 z M 132.69143,613.57968 C 133.10266,598.8581 132.21557,590.11602 129.8476,585.55447 C 128.75894,583.45735 127.06898,580.0867 126.09211,578.06414 C 123.89159,573.50807 116.87578,566.46115 111.84964,563.75852 C 107.23516,561.27725 96.758288,559.65221 89.805971,560.33941 L 84.826854,560.83157 L 85.023192,569.69161 C 85.131171,574.56463 85.421762,578.96894 85.668954,579.47896 C 85.916137,579.98897 87.997841,580.62942 90.294961,580.90216 C 97.407348,581.74663 104.17076,584.70095 106.9383,588.17211 C 109.82207,591.78908 112.47988,597.43826 114.25354,603.72082 C 114.94291,606.16267 117.05557,610.2704 118.94831,612.84914 C 122.3754,617.51825 129.67992,624.0653 131.46213,624.0653 C 132.00894,624.0653 132.52038,619.70278 132.69143,613.57968 z M 115.14396,614.34227 C 113.04976,611.54202 110.31899,605.35926 109.83907,602.33147 C 109.37952,599.43222 106.24051,592.72228 104.20434,590.28669 C 102.03787,587.69526 95.633892,584.77754 90.257265,583.93227 L 87.019328,583.42323 L 87.726146,586.01404 C 89.365011,592.02124 98.020693,602.33436 108.62152,610.9106 C 112.89864,614.37087 116.59711,617.20199 116.84036,617.20199 C 117.08362,617.20199 116.32024,615.91511 115.14396,614.34227 z M 166.27474,580.72454 C 175.77596,572.19614 183.54531,564.81809 183.53999,564.32886 C 183.53465,563.83963 180.28402,560.69484 176.31636,557.34045 C 172.3487,553.98607 169.10244,551.13629 169.10244,551.0076 C 169.10244,550.87892 166.47514,548.35666 163.264,545.4026 C 160.05286,542.44855 156.99828,539.1418 156.47606,538.05425 C 155.95383,536.96671 153.59683,533.62551 151.23828,530.62935 C 148.87973,527.63318 146.94035,524.86741 146.92858,524.4832 C 146.9168,524.09897 146.15832,523.0317 145.24307,522.11146 L 143.57898,520.43832 L 135.39127,523.68354 C 118.76486,530.27348 90.496673,541.98456 86.993939,543.73384 L 83.382129,545.53759 L 83.382129,551.24744 L 83.382129,556.95731 L 90.061205,556.95731 C 98.193072,556.95731 109.16716,558.69781 113.16132,560.62101 C 119.20524,563.53116 130.56073,575.66602 130.58239,579.23774 C 130.58565,579.77598 131.23092,581.19186 132.01632,582.38415 C 134.80154,586.61236 136.35535,592.39414 136.35535,598.52982 C 136.35535,601.9489 136.68043,605.00759 137.07772,605.32691 C 137.89448,605.98337 141.81668,602.67839 166.27474,580.72454 z M 78.529078,542.80377 C 79.224838,542.25213 79.468997,530.38965 79.298202,505.43682 L 79.047956,468.87807 L 49.252655,468.6762 C 29.137807,468.53991 19.124172,468.73813 18.43187,469.2863 C 17.446306,470.06665 16.896869,527.58717 17.763319,539.27613 L 18.120262,544.09138 L 47.81499,543.85168 C 67.04772,543.69641 77.868858,543.32723 78.529078,542.80377 z M 99.115604,535.3293 C 132.12992,521.74467 142.13426,517.46595 142.13426,516.93074 C 142.13426,516.78778 140.6546,513.60086 138.84614,509.84868 C 133.43037,498.61215 129.79495,488.41391 128.18287,479.93564 C 127.34549,475.53168 126.44967,471.1563 126.19219,470.2126 L 125.72402,468.49677 L 104.55307,468.49677 L 83.382129,468.49677 L 83.300203,473.26296 C 82.224423,535.85039 82.312531,540.94291 84.471211,540.94291 C 85.0222,540.94291 91.612175,538.41678 99.115604,535.3293 z M 308.27755,593.82228 C 227.09785,588.64732 159.88025,538.87756 147.77091,474.9788 C 147.02597,471.04784 146.4731,461.92491 146.47691,453.62625 C 146.48289,440.61532 146.75737,438.14724 149.1672,429.43581 C 153.96173,412.10392 157.48558,404.09964 165.85072,391.53994 C 182.87654,365.97683 210.37614,344.82345 242.78338,332.36142 C 280.22412,317.9638 315.71443,314.24744 355.24467,320.58505 C 416.74123,330.44437 466.59714,365.18514 486.89052,412.31895 C 498.39044,439.0289 499.05239,468.69881 488.74788,495.56875 C 468.39554,548.63928 411.32718,586.31158 340.9858,593.11032 C 329.51309,594.2192 318.32438,594.46274 308.27755,593.82228 z M 317.54911,587.84225 C 318.50713,583.33396 319.30441,546.3469 318.45254,545.93004 C 316.61192,545.02935 307.67686,554.90134 301.45535,564.70957 C 297.58768,570.80697 292.38559,584.09458 292.38559,587.87629 C 292.38559,589.50704 303.14919,591.21446 312.10765,591.00478 L 316.9009,590.8926 L 317.54911,587.84225 z M 340.54306,590.12448 C 347.16472,589.4999 354.74951,588.55554 357.39818,588.02588 C 362.04949,587.09575 362.20351,586.97798 361.90878,584.57657 C 361.32131,579.79003 357.00471,571.43315 352.08373,565.55539 C 346.55866,558.95609 335.88187,550.36123 329.57216,547.43347 C 321.88617,543.86712 322.28842,542.76505 322.32105,567.30007 C 322.33696,579.27996 322.58905,589.57494 322.88123,590.17781 C 323.54396,591.5452 325.54459,591.53917 340.54306,590.12448 z M 288.76196,585.74512 C 290.46953,576.12049 298.94363,559.82185 306.47355,551.67951 C 312.37427,545.29891 315.96932,541.55998 317.18669,540.53769 C 317.84885,539.98162 318.39062,539.34393 318.39062,539.1206 C 318.39062,538.15732 313.88811,535.53336 308.87672,533.57609 C 303.97012,531.65975 302.46728,531.45884 292.86717,531.43588 C 283.27742,531.41291 281.63304,531.623 275.53047,533.65078 C 271.82235,534.88293 266.75223,537.04383 264.26358,538.4528 C 257.94363,542.03084 247.3938,546.28104 244.83232,546.28104 C 243.65243,546.28104 242.27532,546.56893 241.77208,546.92079 C 241.26883,547.27264 236.41479,547.3051 230.98532,546.99286 C 222.85857,546.52552 219.9669,546.00034 214.62679,544.02176 C 211.05905,542.69986 207.39424,541.08394 206.48274,540.43081 C 205.57123,539.77769 200.91926,538.62287 196.145,537.86455 C 191.37074,537.10623 186.54651,536.25508 185.42444,535.97311 C 183.65633,535.52879 183.51406,535.65233 184.35734,536.89989 C 184.89246,537.6916 188.53976,541.24599 192.46243,544.79851 C 214.98456,565.19553 244.17044,579.51853 277.93835,586.74592 C 287.31476,588.75278 288.24358,588.6669 288.76196,585.74512 z M 377.78837,583.58521 C 394.16071,579.05995 420.1558,567.58598 421.82132,564.14953 C 422.13881,563.49445 421.30286,560.27855 419.96367,557.00306 L 417.52875,551.04765 L 411.78563,550.53319 C 406.13329,550.02687 388.25791,545.67619 383.13366,543.55963 C 381.69272,542.96445 379.9895,542.47537 379.34875,542.47278 C 378.70799,542.4702 374.83891,541.04836 370.75081,539.31312 C 362.06994,535.62844 356.30118,534.28479 346.27059,533.61124 C 340.39439,533.21666 338.3573,533.37776 335.67595,534.44912 C 332.13559,535.8637 326.09582,540.0626 326.09582,541.1093 C 326.09582,541.45568 327.95912,542.67523 330.23649,543.81941 C 344.68965,551.08089 358.5012,565.05125 363.71435,577.68222 C 366.83268,585.23763 367.23363,585.93576 368.45451,585.93576 C 368.91076,585.93576 373.111,584.87802 377.78837,583.58521 z M 435.38773,556.56905 C 445.75055,549.41325 459.05414,537.67293 457.86595,536.73217 C 457.66224,536.57088 455.12756,536.98639 452.23332,537.65557 C 448.8772,538.43153 445.36739,540.0069 442.54375,542.00469 C 437.6897,545.43908 426.66864,550.094 423.39144,550.094 C 421.68256,550.094 421.43688,550.3958 421.99474,551.80982 C 423.17267,554.79553 427.09819,561.53286 427.6599,561.53286 C 427.95656,561.53286 431.4341,559.29914 435.38773,556.56905 z M 430.80344,544.62746 C 434.09507,543.32972 437.51304,541.6338 438.39895,540.85874 C 440.28301,539.21038 440.6679,539.35731 429.82848,537.58721 C 421.56925,536.23846 417.57702,534.82134 407.48195,529.65495 C 401.92624,526.81164 388.22394,517.92558 384.36636,514.66423 C 382.64066,513.20525 378.68346,511.47638 373.77172,510.03548 C 371.12306,509.25847 368.08914,508.21731 367.02968,507.72178 C 365.97021,507.22625 361.85275,506.40081 357.87975,505.88745 C 351.0372,505.00334 350.30047,505.05414 343.91408,506.85046 C 332.602,510.03227 332.03638,510.2789 327.55098,513.98534 C 323.63867,517.21822 323.19311,517.96024 323.07295,521.44262 C 322.84009,528.19195 323.08178,537.28549 323.50286,537.61891 C 323.72627,537.79577 324.94283,537.04346 326.20636,535.9471 C 329.43236,533.14787 337.42152,530.28106 341.98779,530.28409 C 349.51041,530.28911 363.96579,533.20064 371.84543,536.29785 C 385.76861,541.7706 395.68132,544.74705 407.48195,546.99833 C 414.19045,548.27814 424.09858,547.27089 430.80344,544.62746 z M 248.96453,542.16622 C 251.39195,541.26508 256.53902,538.88377 260.40248,536.87439 C 264.26593,534.86502 270.55047,532.15178 274.36815,530.84499 C 280.75904,528.65735 282.18753,528.46506 292.38559,528.41955 C 302.08514,528.37625 304.12022,528.59957 308.75913,530.21634 C 311.67266,531.23177 315.30448,532.743 316.82984,533.57462 L 319.60323,535.08668 L 319.16186,525.0163 L 318.72048,514.94592 L 313.51848,510.77535 C 304.5839,503.61226 295.54339,502.12848 278.74999,505.06896 C 266.58167,507.1996 262.52575,509.19593 250.007,519.21618 C 243.91508,524.09228 236.76167,529.40809 234.11052,531.02911 C 228.429,534.50302 219.69613,537.86978 216.29677,537.89677 C 206.81229,537.97211 217.03299,543.15868 228.33615,544.00622 C 237.42633,544.68785 243.67277,544.13067 248.96453,542.16622 z M 220.91706,533.91166 C 227.34412,532.02999 237.08358,525.81144 249.85246,515.4367 C 261.43958,506.02217 265.08708,504.33584 278.41992,502.22928 C 295.77316,499.48752 306.79681,501.19195 315.74195,507.99992 L 319.35377,510.74881 L 319.35377,505.68264 C 319.35377,497.39087 313.22727,486.01744 303.51101,476.27163 C 296.26625,469.00486 281.27882,459.05308 273.25863,456.18382 C 270.80001,455.30423 267.62426,454.11411 266.20142,453.53912 C 262.74789,452.14352 261.13095,453.42911 259.07934,459.2018 C 255.95872,467.98244 243.51707,473.02053 233.30045,469.64065 C 231.3987,469.01152 229.61939,468.49677 229.34644,468.49677 C 229.07348,468.49677 227.76563,470.19133 226.4401,472.26245 C 222.74694,478.03295 214.24032,482.22341 206.21942,482.22341 C 201.3028,482.22341 184.91562,486.43447 179.92276,488.98093 C 177.41484,490.26004 174.78038,492.05521 174.0684,492.97019 C 169.22386,499.19613 168.77221,500.30932 168.06361,507.7702 L 167.33934,515.39611 L 171.83036,521.78075 C 174.97971,526.258 177.49046,528.80223 180.23471,530.29717 C 190.38224,535.82504 208.79434,537.46089 220.91706,533.91166 z M 453.83859,534.04183 C 458.76509,532.5588 462.60367,529.63695 466.03588,524.75747 C 467.88737,522.12527 470.49479,518.41333 471.83014,516.50867 C 473.1655,514.60402 474.54481,511.83549 474.89527,510.35636 C 475.75384,506.73277 473.80725,498.68786 471.09626,494.65571 C 469.13493,491.73856 460.43241,485.27377 458.46683,485.27377 C 458.05465,485.27377 457.03316,484.80581 456.19685,484.23387 C 453.33063,482.27369 442.41749,479.93564 436.13435,479.93564 C 429.37965,479.93564 421.44763,478.62974 421.44763,477.51767 C 421.44763,477.12621 420.16589,476.45216 418.59935,476.01977 C 416.69285,475.49356 415.18013,474.24572 414.02437,472.24591 L 412.2977,469.2582 L 406.03723,469.35771 C 397.33694,469.49598 390.06615,466.87904 386.95341,462.48896 C 385.28221,460.132 384.13002,459.34568 382.34751,459.34568 C 381.04005,459.34568 378.54202,458.87317 376.79634,458.29566 C 373.93423,457.3488 373.10917,457.4114 368.39972,458.93265 C 361.39911,461.19396 355.29207,464.28313 346.45602,470.03262 C 338.62577,475.12764 335.22914,478.36625 330.1554,485.57494 C 328.41519,488.04741 326.08986,491.07274 324.98804,492.29791 C 323.21869,494.26532 323.00336,495.51853 323.14424,503.02931 C 323.23197,507.70642 323.42854,511.63197 323.58106,511.75272 C 323.73358,511.87348 325.12028,511.11213 326.6626,510.06082 C 328.20494,509.00951 333.07507,506.95231 337.48515,505.48929 C 348.74566,501.75365 359.2683,501.6943 369.43755,505.30906 C 383.41853,510.27874 385.84466,511.46796 393.99787,517.34765 C 401.60479,522.83342 406.66684,525.79245 418.07659,531.42296 C 423.28577,533.99358 433.63995,535.58174 442.76664,535.21002 C 447.34071,535.02372 452.32309,534.49803 453.83859,534.04183 z M 167.30014,496.5202 C 170.34717,491.79122 172.76032,489.45462 177.17723,486.95647 C 182.05978,484.19495 197.36344,479.97607 205.44063,479.16485 C 213.41477,478.364 219.52269,475.94574 222.01345,472.60325 C 224.95171,468.66025 224.60268,466.20725 220.75779,463.77823 C 213.64949,459.28753 204.41378,447.54969 200.33119,437.81764 C 199.41111,435.62439 197.48513,429.19019 196.05123,423.51943 C 194.61733,417.84865 191.80985,409.77844 189.81241,405.58562 C 186.14258,397.88236 176.98137,384.9262 175.30758,385.07233 C 173.89201,385.1959 168.62141,392.56573 163.36508,401.77135 C 155.50859,415.53074 150.20554,434.22934 149.52382,450.57588 C 148.79961,467.94132 153.81742,490.87299 161.08212,503.3977 L 163.61828,507.7702 L 164.43072,503.74142 C 164.87755,501.52557 166.1688,498.27602 167.30014,496.5202 z M 484.44608,496.72029 C 489.00695,485.42534 490.58141,478.95284 491.94723,465.88367 C 494.36938,442.70651 489.04267,420.44291 475.60444,397.57733 C 473.13923,393.38268 465.67204,383.52105 464.54104,382.96627 C 462.77236,382.09874 453.8942,394.0849 451.17789,401.00749 C 447.84658,409.49749 446.50322,415.39871 445.55234,425.72014 C 444.95703,432.1819 444.1067,438.01571 443.66272,438.68419 C 443.21873,439.35268 442.86047,440.78603 442.86658,441.86943 C 442.87269,442.95282 440.62078,447.15402 437.86234,451.20543 C 432.76956,458.68533 428.50784,462.38968 421.17984,465.70608 C 418.08828,467.10521 417.58131,467.69694 417.80882,469.64065 C 418.01238,471.37975 418.86475,472.23995 421.36298,473.22734 C 423.17048,473.94172 424.99625,474.97123 425.42025,475.5151 C 425.94366,476.18651 429.21758,476.58254 435.61798,476.74872 C 442.9186,476.93825 446.44416,477.42992 451.24913,478.92856 C 467.38865,483.96245 475.28433,490.68316 478.34835,501.99507 C 478.92624,504.12861 479.77781,505.6889 480.24072,505.46239 C 480.70363,505.23586 482.59605,501.30191 484.44608,496.72029 z M 318.64081,449.07451 L 317.90904,439.94725 L 313.44178,440.16643 C 307.47735,440.45908 302.4018,439.28941 296.73111,436.31544 C 294.15137,434.96252 291.89563,434.20006 291.71837,434.62113 C 288.80155,441.54946 282.38422,445.48981 272.88181,446.1871 C 267.62895,446.57254 267.34369,446.69988 267.34369,448.65934 C 267.34369,450.46486 268.22666,451.07076 274.34961,453.46676 C 289.6816,459.46635 310.69439,476.44243 317.96761,488.70542 C 319.14785,490.69539 319.64261,461.56997 318.64081,449.07451 z M 327.25051,483.55795 C 330.65319,478.15012 337.69503,471.80543 345.84038,466.80848 C 354.32666,461.60241 363.03023,457.05792 364.51459,457.05792 C 366.35364,457.05792 370.43182,454.66436 369.85401,453.92413 C 369.56242,453.55058 368.15754,453.24304 366.73204,453.2407 C 360.52868,453.23052 356.99602,451.73755 352.81946,447.36094 C 349.23824,443.60819 348.66997,442.46675 348.24826,438.17904 L 347.76669,433.28264 L 342.95094,436.16691 C 340.30228,437.75326 337.90965,439.30641 337.63401,439.61835 C 336.42164,440.99031 331.88957,441.703 328.81589,441.00505 C 322.66393,439.60808 322.66618,439.60588 322.35946,447.33487 C 321.9786,456.93328 323.29734,487.56155 324.0915,487.56155 C 324.44343,487.56155 325.86499,485.75993 327.25051,483.55795 z M 245.67283,466.89065 C 249.70057,465.55274 254.02001,461.78302 254.87732,458.8576 C 256.17023,454.44577 256.0717,454.23848 252.8593,454.6118 C 248.65873,455.09993 241.80198,453.37958 236.55232,450.52041 C 231.3391,447.68108 221.31524,439.61137 219.18622,436.53982 C 218.39162,435.39345 215.87686,432.59197 213.59785,430.31427 C 208.55137,425.27067 197.31664,411.68423 196.49252,409.62841 C 196.16375,408.80822 195.72534,408.27129 195.51828,408.43522 C 195.31122,408.59917 195.96896,411.02341 196.97993,413.82243 C 197.9909,416.62146 199.53768,422.26121 200.41722,426.35523 C 203.91253,442.62479 214.30952,457.37836 226.70318,463.65559 C 235.39854,468.05969 239.86199,468.82088 245.67283,466.89065 z M 416.37898,464.33459 C 424.12657,461.47865 430.12054,456.54377 434.67491,449.27147 C 439.77697,441.12459 440.64485,438.2553 441.77688,425.79169 C 442.31857,419.82762 443.73903,412.17865 445.15343,407.60939 C 446.49627,403.27135 447.38085,399.55255 447.1192,399.34536 C 446.85752,399.13818 445.88927,399.94215 444.96751,401.13198 C 444.04573,402.32178 442.34148,404.49634 441.18025,405.96432 C 438.42919,409.44213 428.31026,424.06206 421.71723,434.0847 C 413.05198,447.2575 404.67822,454.55246 394.961,457.39395 C 388.99091,459.13971 389.38745,458.79389 390.71355,461.09829 C 393.45866,465.86861 407.4362,467.63113 416.37898,464.33459 z M 393.66962,454.23534 C 398.08118,453.30254 400.19273,452.24168 404.74585,448.67054 C 407.8399,446.2438 411.38086,442.9344 412.61465,441.31634 C 415.56463,437.44758 427.68267,419.78254 431.37292,413.97152 C 432.97103,411.45497 435.64989,407.68016 437.32594,405.58303 C 446.88959,393.61665 448.69953,391.47542 449.93956,390.66057 C 450.6907,390.16701 451.30526,389.4324 451.30526,389.02814 C 451.30526,388.09694 435.35614,394.86339 423.37392,400.87806 C 398.46314,413.38243 382.65916,424.16966 376.25999,433.0363 C 371.05641,440.24634 371.45791,450.19193 377.11453,454.20421 C 380.40346,456.53707 382.76294,456.54151 393.66962,454.23534 z M 255.60019,450.84972 C 261.96711,449.6241 263.4911,448.3504 263.4911,444.2548 C 263.4911,437.49815 259.71634,431.35709 251.04871,424.01256 C 244.79848,418.71641 223.38204,405.92118 214.56455,402.21512 C 213.15112,401.62105 209.31608,399.73363 206.04222,398.02086 C 193.6946,391.56104 185.32177,387.53005 184.9171,387.85044 C 184.68676,388.03284 185.55412,389.35196 186.8446,390.78182 C 189.59739,393.83195 194.96053,401.09681 198.05278,405.96432 C 201.73118,411.75447 210.63816,422.85988 215.79005,428.07946 C 218.48093,430.80572 221.40823,433.94231 222.29516,435.04966 C 225.39154,438.91561 234.91995,446.46738 239.21731,448.46138 C 241.59961,449.56679 245.11022,450.71267 247.01868,451.00779 C 248.92711,451.30291 250.62171,451.58384 250.78444,451.63208 C 250.94716,451.68031 253.11424,451.32825 255.60019,450.84972 z M 368.47439,446.903 C 368.47439,441.79682 370.30505,435.16465 372.57386,432.05115 C 379.02519,423.19803 396.82764,410.77418 419.27211,399.46174 C 422.5783,397.79535 425.28746,396.26035 425.29247,396.05065 C 425.31219,395.22188 406.91375,396.6778 397.36889,398.26032 C 387.78744,399.84892 380.42397,402.17371 371.93019,406.2919 C 367.02763,408.6689 357.87975,415.6731 357.87975,417.04983 C 357.87975,417.63968 356.76282,420.10527 355.39771,422.52893 C 353.56348,425.78539 352.77463,428.74675 352.37539,433.87466 C 351.83823,440.77422 351.85363,440.83607 355.07849,444.73635 C 358.3554,448.69956 360.99338,450.02455 365.82574,450.13439 C 368.31784,450.19103 368.47439,450.00003 368.47439,446.903 z M 280.08893,441.49151 C 284.83132,439.88208 288.02478,435.19546 287.08416,431.22557 C 286.0803,426.98883 282.28195,420.10459 279.23715,417.00346 C 275.41647,413.11207 260.24407,403.31321 254.91374,401.29456 C 252.4799,400.37285 247.67137,399.203 244.22811,398.6949 C 240.78484,398.1868 234.06687,397.19797 229.29928,396.49748 C 210.15013,393.68397 206.04431,392.77206 199.20086,389.81254 C 195.3603,388.15163 192.21803,386.96396 192.21803,387.17325 C 192.21803,387.38256 195.36723,389.10788 199.21625,391.00732 C 203.06527,392.90677 207.11516,395.12525 208.216,395.93727 C 209.31683,396.74929 211.59621,397.97817 213.28131,398.6681 C 219.74346,401.31396 233.51671,408.72231 241.99928,414.11491 C 256.08904,423.07213 262.90369,429.66832 265.99234,437.33883 C 266.89726,439.58611 268.09529,441.88935 268.65465,442.45711 C 269.87256,443.69338 274.83597,443.27422 280.08893,441.49151 z M 338.52924,434.83374 C 341.49092,433.09607 344.68849,430.95128 345.63498,430.06755 C 348.72315,427.18413 353.00269,419.88493 355.02214,414.05676 C 356.80413,408.91391 356.90018,407.5745 355.99043,400.55517 C 355.43496,396.26937 353.69547,389.47036 352.12493,385.44627 C 349.13522,377.78604 341.51142,365.60721 336.80029,360.96556 C 333.51874,357.73243 328.02212,349.7658 328.02212,348.24278 C 328.02212,347.65146 326.61351,344.35391 324.89188,340.91486 L 321.76164,334.66208 L 321.28007,338.47504 C 321.0152,340.57216 321.13073,343.48907 321.53677,344.95705 C 321.94282,346.42504 323.35849,352.25886 324.68273,357.9211 C 326.00696,363.58335 327.71671,370.78983 328.48219,373.93551 C 331.01586,384.34742 334.11868,403.18352 334.53207,410.66224 C 335.02769,419.62855 333.59698,427.50176 330.50357,432.83098 C 329.22892,435.02692 328.39143,437.08673 328.64249,437.40837 C 329.70754,438.77282 333.49784,437.78578 338.52924,434.83374 z M 311.64857,436.90998 C 311.64857,436.73367 310.15521,434.24573 308.32999,431.38121 C 304.41819,425.24201 302.2022,416.13396 301.86777,404.82044 C 301.61398,396.23489 302.19722,391.99359 305.06624,381.56142 C 306.16205,377.57687 307.42204,372.88423 307.8662,371.13331 C 308.31039,369.3824 310.44964,363.0834 312.62011,357.13554 C 314.79058,351.18768 316.41906,345.75693 316.23897,345.06721 C 316.03898,344.30122 313.35887,346.92939 309.35238,351.82038 C 305.74485,356.22434 301.17639,361.37183 299.20024,363.25924 C 290.16134,371.89232 285.38478,381.60763 282.22731,397.78143 C 281.46095,401.70701 283.4632,414.292 285.65751,419.34184 C 289.07589,427.20862 297.06443,434.32075 304.54195,436.15452 C 308.457,437.11463 311.64857,437.45391 311.64857,436.90998 z M 324.34782,434.42865 C 325.24049,433.7918 326.91602,431.67873 328.07118,429.73293 C 330.71451,425.2805 331.74452,410.80297 330.06547,401.702 C 328.43864,392.88408 328.14838,391.20567 326.61146,381.72953 C 325.84415,376.9986 324.5711,371.16479 323.78246,368.76548 C 322.99381,366.36618 321.62017,361.88974 320.72992,358.81782 C 319.83967,355.7459 318.78942,353.51532 318.39603,353.86097 C 317.72623,354.4495 316.38224,357.37133 313.61645,364.25182 C 312.9755,365.84632 310.96234,372.36646 309.14273,378.74106 C 304.55125,394.82641 303.8305,406.86796 306.76013,418.54707 C 308.8278,426.78995 310.89698,430.49205 315.83975,434.79203 C 318.05069,436.71544 321.33928,436.57498 324.34782,434.42865 z M 279.05871,403.8689 C 278.42138,389.25564 284.69691,374.07647 296.63617,361.35276 C 305.85443,351.52883 315.52928,337.86178 314.07849,336.7131 C 313.81203,336.50212 312.61451,337.16296 311.41735,338.18161 C 306.58847,342.2905 282.13095,357.15851 280.2008,357.15851 C 279.90671,357.15851 277.43532,358.74996 274.70883,360.69506 C 271.98235,362.64015 268.1011,365.05919 266.08386,366.0707 C 260.83043,368.70492 257.55313,371.77444 250.81459,380.37198 C 246.32699,386.09759 244.76674,388.83017 244.43789,391.53999 C 244.00734,395.08762 244.03866,395.13392 247.24555,395.69054 C 253.1728,396.71933 260.02278,399.80451 269.21201,405.58408 C 274.21256,408.72918 278.54675,411.30323 278.84349,411.30417 C 279.14026,411.30511 279.2371,407.95924 279.05871,403.8689 z M 366.99782,405.62882 C 373.70434,401.91732 382.35436,398.30155 387.97818,396.85888 C 389.96466,396.3493 391.58999,395.48039 391.58999,394.92793 C 391.58999,392.93187 387.45642,383.37481 384.81926,379.27365 C 381.27832,373.76695 375.50686,367.75405 370.27856,364.12462 C 364.26728,359.95166 345.34515,348.77002 344.29477,348.77002 C 343.80891,348.77002 339.9488,346.15074 335.71677,342.94939 C 331.48471,339.74805 328.02212,337.34071 328.02212,337.59973 C 328.02212,338.93512 332.97907,351.35347 334.37436,353.5136 C 335.26285,354.88916 337.43932,357.29514 339.21096,358.86021 C 342.30015,361.58921 350.18299,372.92543 352.87558,378.51105 C 357.33994,387.77221 361.58682,404.91514 360.15079,407.87814 C 359.29621,409.64142 360.40599,409.27686 366.99782,405.62882 z M 417.11344,393.33944 C 430.53091,392.12879 441.67298,389.58849 444.18782,387.16672 C 444.77595,386.60035 445.78371,386.13696 446.4273,386.13696 C 447.65719,386.13696 460.68735,380.21013 461.3644,379.34275 C 462.10104,378.39902 451.40018,367.99587 441.9374,360.45624 C 419.17154,342.31716 384.29417,327.64778 353.54558,323.27874 C 344.11624,321.93891 325.09291,320.51962 323.9252,321.06881 C 322.81102,321.59283 324.16434,325.04542 327.42634,330.00099 C 330.92058,335.30936 339.86927,342.83796 347.28511,346.70831 C 374.43007,360.87531 387.1441,372.59954 393.62543,389.44103 L 395.92416,395.41419 L 399.77676,394.98513 C 401.89568,394.74916 409.6972,394.00859 417.11344,393.33944 z M 240.86009,390.25575 C 241.84006,386.79274 244.20029,383.46274 253.63721,372.22891 C 254.95421,370.66113 257.81845,368.15829 260.00221,366.66701 C 268.8822,360.60299 277.59478,355.16888 279.86463,354.27868 C 287.41777,351.31643 306.91774,338.46512 312.38869,332.84398 C 316.56882,328.54908 318.98016,323.63309 317.94966,321.50686 C 317.46734,320.51167 315.98326,320.40941 308.26009,320.83924 C 298.67533,321.3727 286.83647,322.94932 277.93835,324.87727 C 275.0248,325.50856 271.08573,326.32762 269.18483,326.69743 C 262.85284,327.92924 246.7528,333.48963 237.00449,337.81143 C 222.70924,344.149 213.15699,349.75518 201.63021,358.57246 C 191.9543,365.97395 180.66023,376.54964 180.66023,378.20862 C 180.66023,379.08961 182.69446,380.0533 196.5522,385.73716 C 205.87009,389.55896 219.55988,393.34861 221.21056,392.56318 C 221.52936,392.41149 224.56327,392.77138 227.95262,393.36297 C 231.34195,393.95455 235.38509,394.37232 236.93739,394.29137 C 239.50357,394.15752 239.85961,393.79126 240.86009,390.25575 z M 69.456441,443.51545 C 39.813424,443.40703 15.210557,443.04162 14.783411,442.70342 C 14.356273,442.36521 13.923405,392.30096 13.821504,331.44952 C 13.663267,236.96731 13.83545,220.62045 15.000571,219.50888 C 16.277651,218.29053 23.206877,218.23931 123.31368,218.70824 C 182.1355,218.98379 246.62395,219.17628 266.62134,219.136 L 302.98023,219.06276 L 303.10389,233.77604 C 303.1719,241.86833 303.21605,261.52751 303.202,277.46309 L 303.17645,306.43688 L 293.33416,307.3522 C 263.8922,310.09025 233.69704,319.60925 207.22734,334.49725 C 196.60542,340.47158 179.76368,352.9802 170.5617,361.72935 C 149.62913,381.63183 135.57053,407.11646 130.86997,433.68027 C 129.96779,438.77862 129.13049,443.06824 129.00931,443.21279 C 128.60916,443.69 123.82626,443.71431 69.456441,443.51545 z M 67.364133,437.68381 C 70.230707,434.91399 71.222385,433.06956 72.346815,428.41645 C 74.153798,420.93877 74.130114,414.1162 72.280021,409.18357 C 71.471187,407.02707 67.992337,400.87359 64.549252,395.50916 C 58.03653,385.36218 53.006964,374.26099 49.707435,362.75052 C 48.645457,359.04578 47.176827,354.47038 46.443822,352.58297 C 45.710808,350.69555 44.800024,346.49177 44.41986,343.24123 C 43.792771,337.87947 43.535217,337.32676 41.643735,337.28386 C 32.323106,337.07243 20.098071,337.56535 18.566557,338.21433 C 16.740472,338.98811 16.710864,340.10606 17.209661,389.45248 C 17.490121,417.19841 17.757471,439.97252 17.803771,440.06164 C 17.901145,440.24904 29.714146,440.55984 49.745758,440.90204 L 63.785282,441.14187 L 67.364133,437.68381 z M 82.724279,440.47155 C 83.222256,439.79178 77.390453,428.8651 76.522394,428.85145 C 76.192795,428.84628 75.660366,430.12892 75.339214,431.70177 C 75.018061,433.2746 73.682347,435.80694 72.370941,437.32916 C 71.059546,438.85138 70.255605,440.30983 70.584404,440.57016 C 71.437466,441.24558 82.221418,441.158 82.724279,440.47155 z M 123.043,440.49593 C 125.4241,440.14167 125.70452,439.69314 126.68677,434.66774 C 128.23532,426.74496 132.20495,413.69476 135.00736,407.31371 C 138.91519,398.41562 138.9214,398.11555 135.22911,396.60181 C 133.46475,395.87847 124.78511,391.42633 115.94104,386.7082 C 88.69754,372.17434 57.454817,356.41759 55.854333,356.40445 C 55.281683,356.39977 54.260676,357.21327 53.585432,358.21225 C 52.540982,359.75742 52.740509,361.23905 54.922033,368.13739 C 57.962629,377.75225 62.096447,386.11337 69.232027,397.08097 C 74.289545,404.85453 76.205702,409.67714 80.025735,424.24674 C 81.672019,430.52567 84.990848,436.65701 88.211948,439.37029 C 90.233157,441.07286 90.778839,441.12477 105.38145,441.00425 C 113.67652,440.93577 121.62422,440.70703 123.043,440.49593 z M 145.21662,388.23408 C 153.10968,375.30805 163.95693,362.70776 176.68627,351.67851 C 180.70704,348.19476 180.83194,347.94719 179.42582,346.24806 C 177.77757,344.25634 159.97823,328.5183 158.62493,327.85609 C 158.14833,327.62287 154.99493,329.57356 151.61736,332.19095 C 143.64689,338.36754 139.50709,339.9476 122.38969,343.34636 C 120.27077,343.76709 111.6024,344.11607 103.12669,344.12189 C 86.829414,344.13304 77.073576,345.24707 69.23692,347.99174 C 64.135936,349.7783 59.30339,352.41488 59.30339,353.41136 C 59.30339,353.80987 66.996547,358.14975 76.399294,363.05555 C 110.58772,380.89308 138.7875,395.20219 139.83622,395.24462 C 140.42637,395.26851 142.84755,392.11377 145.21662,388.23408 z M 63.266299,347.03213 C 65.710752,345.92208 71.894144,344.13254 77.007158,343.05539 C 85.19676,341.33009 88.215455,341.09497 102.36234,341.08043 C 116.18615,341.06623 119.66767,340.80749 127.37791,339.22136 C 138.68753,336.89476 140.70678,336.04844 148.21294,330.48895 C 153.34001,326.69153 155.294,324.4392 160.2768,316.58319 C 165.48969,308.36442 166.35611,306.36274 167.30524,300.34549 C 168.47423,292.9345 167.97383,278.84222 166.46595,276.70886 C 165.65568,275.56249 165.26795,275.73936 163.43021,278.0937 C 158.9038,283.89252 150.5322,288.13298 142.03319,288.93192 C 134.26446,289.6622 131.48094,290.51855 124.83878,294.22179 C 118.00838,298.02997 117.11497,298.88877 114.70023,303.9678 C 113.00075,307.54239 112.91953,307.59135 108.53396,307.68474 C 91.92383,308.03846 91.704079,308.06777 84.72943,310.85877 C 68.63496,317.29919 59.198292,328.33654 53.646697,347.21383 L 51.852667,353.31413 L 55.337246,351.18228 C 57.25376,350.00974 60.821835,348.14218 63.266299,347.03213 z M 58.399398,327.79876 C 61.928532,322.63837 68.181298,316.26129 72.59549,313.32042 C 76.484389,310.72954 87.705254,306.20721 91.727242,305.6098 C 94.591948,305.18429 96.836979,305.04493 107.1155,304.65464 C 109.69143,304.55682 110.36908,304.08874 111.67447,301.5056 C 112.51779,299.83681 114.75301,297.11721 116.64163,295.46204 L 120.07547,292.45264 L 106.95478,280.56522 C 98.81625,273.19163 93.404028,268.87827 92.701497,269.20579 C 87.366121,271.69309 77.571573,279.01072 72.966851,283.94978 C 71.598244,285.41779 69.749219,287.1336 68.857911,287.76274 C 58.415376,295.13369 48.03298,317.48018 47.797335,333.09236 C 47.734404,337.26211 47.982945,342.23801 48.349663,344.14993 L 49.016413,347.62612 L 52.143318,340.00021 C 53.863116,335.80596 56.678354,330.31532 58.399398,327.79876 z M 195.16488,338.1579 C 201.01825,334.41835 209.46516,329.53469 213.93576,327.30532 C 219.49585,324.53265 221.92669,322.88594 221.62914,322.09367 C 221.38991,321.45664 220.70302,317.84696 220.10272,314.07212 C 219.50243,310.2973 218.18803,304.22477 217.18184,300.57762 C 215.46435,294.35211 214.40962,291.93429 210.61912,285.53336 C 208.88625,282.60707 191.62907,267.93538 189.91999,267.93538 C 189.31571,267.93538 186.55765,266.7284 183.79097,265.25318 C 180.76299,263.63863 177.0301,262.38316 174.41311,262.09917 L 170.06559,261.62733 L 169.99296,264.20942 C 169.76886,272.17731 169.93913,274.91514 170.95543,279.68605 C 172.33366,286.15608 171.67162,300.30038 169.71407,306.20645 C 168.92369,308.59114 166.36231,313.5932 164.02211,317.32214 L 159.76719,324.10201 L 171.33398,334.52953 C 177.69572,340.26468 183.26562,344.95705 183.71155,344.95705 C 184.1575,344.95705 189.31149,341.89742 195.16488,338.1579 z M 43.170636,333.00175 C 43.567934,332.81686 43.892998,331.8243 43.892998,330.79604 C 43.892998,325.31577 49.564349,309.38768 56.90745,294.24476 C 59.958264,287.95338 63.554992,279.45279 64.900175,275.35453 C 67.241264,268.2222 67.277565,267.78961 65.748143,265.25021 C 64.869326,263.79109 63.722542,262.59726 63.199734,262.59726 C 62.676918,262.59726 60.317616,263.67521 57.95685,264.99275 C 54.200432,267.08916 52.457266,267.48284 43.994773,268.14604 C 32.227378,269.06821 30.283897,268.57599 22.432803,262.68482 L 16.864565,258.50663 L 16.989475,295.82175 C 17.058177,316.34509 17.339176,333.4265 17.613933,333.78048 C 18.096606,334.40231 41.706947,333.68289 43.170636,333.00175 z M 235.4256,317.88579 C 251.47955,311.60384 266.35296,307.92261 287.56985,304.9799 L 299.6092,303.31007 L 299.90128,288.86373 C 300.06193,280.91825 299.92244,272.61616 299.59132,270.41462 L 298.98928,266.41182 L 295.30269,270.10455 C 291.56086,273.85258 280.85704,279.97241 273.68931,282.46182 C 263.55556,285.98135 241.9749,287.66189 230.26243,285.84356 C 226.55431,285.26788 221.41458,284.56173 218.84084,284.27432 C 214.24268,283.76087 214.1736,283.78335 214.86947,285.56662 C 215.25897,286.56477 216.1203,288.23935 216.78352,289.28792 C 218.37861,291.80974 221.68279,302.72751 223.01491,309.87787 C 225.26197,321.93925 225.0605,321.39555 227.09317,320.88475 C 228.1206,320.62656 231.8702,319.27702 235.4256,317.88579 z M 139.68999,286.23587 C 151.64545,284.73491 160.13436,279.46462 162.38422,272.14631 C 162.90282,270.45944 163.97859,267.53501 164.77483,265.64761 C 165.57105,263.7602 166.22038,261.83221 166.21776,261.3632 C 166.21514,260.89419 163.72084,259.98807 160.67488,259.3496 C 154.35643,258.02519 130.21439,258.05142 124.67307,259.38872 C 122.88748,259.81965 120.10844,260.14591 118.49745,260.11375 C 116.25531,260.06899 99.899727,265.42232 97.962417,266.83505 C 97.490423,267.17924 103.19814,272.7716 114.00315,282.55157 L 122.98987,290.68574 L 127.98709,288.88175 C 130.73558,287.88955 136.00188,286.6989 139.68999,286.23587 z M 75.170806,277.2103 C 82.292777,271.32082 92.309235,265.21288 97.282319,263.72692 C 98.90753,263.24131 103.2669,261.71819 106.96981,260.34222 C 110.67271,258.96624 116.09044,257.52015 119.00917,257.12867 C 126.62664,256.10698 152.60073,255.20443 156.58149,255.82311 C 176.21338,258.87422 182.5912,260.41619 186.75381,263.11793 C 188.25122,264.08983 189.94398,264.88502 190.5155,264.88502 C 191.08702,264.88502 192.96128,265.73451 194.68054,266.77279 C 197.71298,268.60411 197.94714,268.62746 202.51257,267.554 C 210.32228,265.71771 223.58971,258.18656 232.44372,250.56382 C 238.27875,245.54022 241.68577,243.274 245.20545,242.07517 C 247.8463,241.17568 250.007,240.2973 250.007,240.12321 C 250.007,239.94913 249.15032,238.65708 248.10326,237.25198 C 246.52418,235.13294 246.36396,234.22573 247.16372,231.93239 C 248.24914,228.81991 246.19242,223.40988 243.62748,222.63058 C 242.84972,222.39427 205.75243,221.96806 161.18905,221.68343 C 91.530075,221.2385 80.244506,221.31727 80.73343,222.24487 C 86.656114,233.48161 86.515476,233.02611 86.02245,239.37503 C 85.709744,243.40189 84.876928,246.55069 83.600735,248.53133 C 81.738716,251.42117 73.269859,258.26451 69.427084,259.98448 C 67.771767,260.72539 67.720123,261.03782 68.884936,263.26437 C 70.464329,266.28336 69.689504,275.43173 67.444162,280.27564 C 64.898595,285.76723 64.701179,286.93653 66.69509,284.71239 C 67.635105,283.66382 71.449179,280.28788 75.170806,277.2103 z M 260.36695,282.44872 L 265.42959,281.53357 L 263.55838,279.65006 C 260.98688,277.06167 257.43211,268.31031 258.18712,266.42677 C 258.97862,264.45232 257.70241,264.45396 251.11631,266.43595 C 246.64343,267.78198 244.10692,267.9594 231.85332,267.78325 C 217.05324,267.57051 210.52145,268.13663 204.46704,270.15686 L 200.82406,271.37244 L 205.77433,275.564 L 210.72459,279.75554 L 222.90138,281.8385 C 232.91911,283.55215 236.87134,283.87204 245.19125,283.64268 C 250.75344,283.48934 257.58252,282.95206 260.36695,282.44872 z M 280.39844,276.25134 C 287.13487,272.91347 293.12712,268.14733 295.81937,263.98574 C 297.08904,262.02316 298.56952,260.20128 299.1093,259.93714 C 299.65187,259.67164 300.09079,256.54421 300.09079,252.94359 C 300.09079,246.55313 300.02903,246.38143 296.81607,243.83751 C 294.32496,241.86513 292.72526,241.2447 290.13087,241.2447 C 288.2551,241.2447 286.45626,241.58307 286.13345,241.99662 C 285.81065,242.41016 286.70745,244.31699 288.12636,246.234 C 290.28506,249.15051 290.60848,250.2839 290.10763,253.1771 C 289.21173,258.35231 286.2852,262.92398 280.5064,268.17564 C 274.95281,273.2226 273.12259,275.51342 273.12259,277.41765 C 273.12259,279.19557 275.09429,278.87951 280.39844,276.25134 z M 269.26999,276.4303 C 269.26999,274.66679 273.05059,270.19542 278.00979,266.09365 C 282.45459,262.41731 285.47359,257.69109 286.25297,253.18902 C 286.73295,250.41629 286.43756,249.59107 284.21707,247.50168 C 281.19765,244.66053 277.46484,244.29218 272.97341,246.39219 C 270.29581,247.64411 270.15638,247.9413 270.72095,251.1928 C 271.28658,254.45049 271.06172,254.92504 266.98051,259.08641 C 264.59227,261.52156 262.36261,264.50758 262.02573,265.72204 C 261.37614,268.06375 262.73994,272.28308 265.26769,275.75194 C 267.01526,278.15014 269.26999,278.5323 269.26999,276.4303 z M 46.197834,264.92046 C 50.710584,264.46013 53.454288,263.75436 54.76477,262.71676 L 56.692697,261.19027 L 52.941508,260.36762 C 47.004182,259.06552 41.759246,256.3401 39.620725,253.44574 C 38.029517,251.29214 37.692539,249.663 37.874709,245.0045 C 38.08639,239.59112 37.936043,239.10838 35.458611,237.2467 C 31.880943,234.55825 25.622916,232.70317 21.11921,232.99605 L 17.406385,233.2375 L 17.122256,241.2447 C 16.874196,248.23567 17.115649,249.73583 19.024726,253.06486 C 21.767844,257.84825 26.700402,262.58497 30.704755,264.2811 C 34.210369,265.76601 36.843687,265.87467 46.197834,264.92046 z M 254.16352,262.34053 C 261.7709,259.54317 267.34369,255.60036 267.34369,253.01542 C 267.34369,248.40657 266.17941,246.64179 262.10958,245.08188 C 257.60599,243.35572 253.2862,243.13767 247.74157,244.35665 C 244.91669,244.97771 241.29715,247.36221 232.57197,254.35011 C 226.26927,259.39789 221.11253,263.64193 221.11253,263.78132 C 221.11253,264.18606 228.56722,264.60768 238.27155,264.75179 C 246.59769,264.87543 247.74211,264.70179 254.16352,262.34053 z M 62.539379,256.97164 C 66.52524,255.65303 68.934886,251.82305 68.934886,246.80639 C 68.934886,240.16529 63.263919,236.10007 53.810596,235.96459 C 49.729261,235.90609 44.973998,237.12285 43.666955,238.56011 C 43.277775,238.98808 42.952713,240.07363 42.944594,240.97246 C 42.936483,241.87131 42.329565,242.7891 41.595886,243.012 C 39.954005,243.51085 41.15198,249.679 43.423982,252.42447 C 45.025816,254.36011 49.555402,256.45074 54.006069,257.30862 C 58.336888,258.14341 59.086884,258.11379 62.539379,256.97164 z M 75.880109,252.11162 C 81.188653,247.64044 82.411535,245.09469 82.415377,238.50678 C 82.418517,233.13752 82.033854,231.72699 79.450032,227.63301 C 77.817108,225.0457 75.654259,222.57846 74.643704,222.15023 C 73.585626,221.7019 67.593806,221.46221 60.516747,221.58515 L 48.22717,221.79864 L 48.49717,225.12224 C 48.645669,226.95022 49.415273,229.43818 50.207416,230.65103 C 51.46579,232.57772 52.184684,232.8562 55.900255,232.8562 C 58.239186,232.8562 60.42072,233.19936 60.748115,233.61879 C 61.075509,234.03822 62.096668,234.38138 63.017362,234.38138 C 63.938056,234.38138 66.404625,235.77145 68.498627,237.47042 L 72.305909,240.55944 L 72.305909,247.38439 C 72.305909,251.13811 72.549885,254.20921 72.848075,254.20904 C 73.146267,254.20888 74.510683,253.26504 75.880109,252.11162 z M 275.20332,242.25145 C 278.36146,240.70805 281.3043,238.90643 281.74297,238.24785 C 282.90459,236.50391 281.47584,230.38907 279.40263,228.23156 C 278.42098,227.21 276.30021,225.51627 274.68981,224.46771 C 271.99256,222.71147 270.85601,222.54097 260.26765,222.30427 C 249.40595,222.06144 248.81723,222.12439 249.56864,223.44816 C 250.00596,224.21862 250.42422,227.07958 250.49808,229.80584 C 250.69644,237.12634 253.78562,240.67412 260.72699,241.55326 C 262.65,241.79682 265.2505,242.67352 266.50589,243.50149 C 267.76127,244.32949 268.9398,245.01833 269.12482,245.03229 C 269.30984,245.04624 272.04516,243.79487 275.20332,242.25145 z M 299.12763,231.33102 L 299.12763,222.17993 L 288.45793,222.17993 L 277.78823,222.17993 L 281.17743,225.31495 C 284.22487,228.13382 286.60669,233.29868 286.60669,237.08799 C 286.60669,237.85323 287.72025,238.20268 290.2185,238.22137 C 292.205,238.23624 294.91385,238.73881 296.23818,239.33823 C 297.56251,239.93764 298.75441,240.44022 298.88684,240.45509 C 299.01928,240.46996 299.12763,236.36412 299.12763,231.33102 z M 44.131974,234.8984 L 46.778815,233.1825 L 45.166512,227.29992 L 43.55421,221.41734 L 30.239514,221.41734 L 16.92481,221.41734 L 16.92481,225.61159 L 16.92481,229.80584 L 20.055046,229.92666 C 21.776677,229.99312 23.913511,230.00141 24.803566,229.94508 C 27.233794,229.7913 36.412455,233.2146 38.504165,235.05489 C 40.749171,237.03007 40.848039,237.02731 44.131974,234.8984 z M 508.15444,442.56868 C 507.74008,442.35898 507.10198,440.29998 506.73642,437.99314 C 503.81269,419.54309 497.40348,403.15699 486.80044,387.02367 C 465.87867,355.18968 434.68969,332.2224 392.55314,317.62083 C 381.47878,313.78323 355.09447,308.09753 344.14149,307.18834 C 340.55842,306.89092 337.39057,306.34489 337.1018,305.97494 C 336.81304,305.605 335.54439,305.30233 334.28259,305.30233 C 333.02079,305.30233 331.74807,304.99444 331.45435,304.61815 C 331.1606,304.24184 330.68658,286.31143 330.40099,264.77277 C 330.11537,243.23412 329.67957,224.34795 329.43252,222.80351 C 329.07951,220.59657 329.34438,219.90882 330.66983,219.59089 C 331.59738,219.3684 395.41851,219.01837 472.49455,218.81303 C 549.57059,218.6077 613.77614,218.2191 615.17355,217.94948 C 616.57095,217.67987 618.59625,217.83299 619.67424,218.28977 C 621.5294,219.07588 621.63971,219.86472 621.73733,233.04221 C 622.16885,291.29297 622.95009,357.72831 623.6497,395.66935 C 624.27098,429.36201 624.20118,440.81279 623.37183,441.26181 C 622.76269,441.59157 620.84649,441.69777 619.1136,441.49776 C 617.38073,441.29776 614.78023,441.45238 613.33472,441.84136 C 610.65289,442.56301 509.5249,443.26231 508.15444,442.56868 z M 551.58603,437.9035 C 552.58322,437.11396 553.81224,436.46795 554.31719,436.46795 C 556.74858,436.46795 560.58749,426.38897 561.6661,417.17357 C 562.86229,406.95346 566.14534,396.35987 569.98473,390.3312 C 571.3203,388.23408 573.56381,383.77294 574.97032,380.41752 C 576.37683,377.06213 577.91768,373.76168 578.39443,373.08321 C 578.87118,372.40472 579.7408,370.43954 580.32691,368.71613 C 581.24725,366.00997 581.12299,365.16428 579.41564,362.51447 C 578.32832,360.82697 576.93391,359.44628 576.31696,359.44628 C 573.83244,359.44628 499.91656,397.16523 499.05804,398.87118 C 498.80502,399.37391 499.9096,402.63069 501.51262,406.10845 C 504.776,413.18834 508.39261,424.7257 510.12236,433.57444 L 511.27104,439.45069 L 517.16548,439.68544 C 520.40741,439.81455 529.07034,439.78943 536.41641,439.62962 C 547.90718,439.37964 550.02621,439.1385 551.58603,437.9035 z M 560.14116,438.24733 C 560.14116,437.54829 559.81611,437.28693 559.41879,437.66651 C 559.0215,438.04612 558.26302,438.6128 557.73329,438.92583 C 557.18364,439.25062 557.49377,439.49998 558.45564,439.50665 C 559.3926,439.51314 560.14116,438.95386 560.14116,438.24733 z M 615.76305,438.57992 L 619.85643,437.90338 L 619.97853,423.64969 C 620.19732,398.1045 619.67227,339.25214 619.22034,338.66569 C 618.97794,338.35111 612.52063,338.09373 604.87077,338.09373 L 590.96195,338.09373 L 590.96195,340.72527 C 590.96195,342.17262 590.56692,345.00374 590.08411,347.01664 C 589.6013,349.02955 588.69229,353.25023 588.06409,356.39591 C 586.7637,362.90751 577.58381,385.18233 573.60725,391.47509 C 570.60941,396.21905 568.47372,401.76469 566.8525,409.0147 C 565.63867,414.44287 564.66944,436.02078 565.54037,438.2266 C 566.04721,439.5103 567.63396,439.59213 588.87693,439.43019 C 601.41293,439.33464 613.51169,438.952 615.76305,438.57992 z M 508.05426,390.18797 C 513.6587,387.38293 521.7115,383.31635 525.94935,381.15114 C 530.1872,378.98594 536.90517,375.571 540.87817,373.56238 C 562.02817,362.86964 573.62526,356.34261 573.62526,355.13178 C 573.62526,353.05103 567.46539,348.78064 559.89017,345.60978 L 551.95439,342.28799 L 539.91502,342.58746 C 533.29336,342.75217 522.67465,342.92245 516.31785,342.96587 C 504.8592,343.04414 504.71048,343.02251 498.98116,340.44418 C 495.80276,339.01382 490.70484,336.15679 487.65241,334.09522 C 484.6,332.03366 481.69964,330.45992 481.20716,330.59803 C 479.94315,330.9525 465.13984,344.57041 462.21658,348.06792 L 459.78779,350.97383 L 466.48517,357.30719 C 475.5886,365.91582 483.71581,375.61378 490.80524,386.3276 C 494.06629,391.25585 496.98865,395.28805 497.29939,395.28805 C 497.61013,395.28805 502.44981,392.99301 508.05426,390.18797 z M 580.43137,349.77129 C 579.87083,347.33318 577.28598,341.90669 574.68725,337.71245 C 570.83468,331.49453 568.47768,328.86893 561.92148,323.49181 C 553.42375,316.52233 546.92675,313.15444 537.00437,310.57537 C 532.72646,309.46344 530.73999,309.27633 529.37112,309.85636 C 525.95198,311.30521 524.59308,310.69406 522.15295,306.61014 C 520.82849,304.39344 518.54036,301.67953 517.06821,300.57924 C 515.59605,299.47896 506.15663,295.79132 496.09171,292.3845 C 486.0268,288.9777 475.51642,284.99635 472.73534,283.53707 L 467.6788,280.88384 L 467.6788,283.32415 C 467.6788,288.35153 472.37839,307.05705 474.92494,312.16564 C 481.93902,326.23639 487.18918,331.50293 499.97731,337.29615 L 507.08149,340.51445 L 518.44171,340.05892 C 524.68985,339.8084 535.00296,339.52111 541.35974,339.42051 L 552.91754,339.23763 L 560.62273,342.23024 C 566.41623,344.48037 569.88119,346.51025 574.58841,350.41176 C 578.03166,353.26565 580.98424,355.28646 581.1497,354.90246 C 581.31515,354.51844 580.9919,352.20943 580.43137,349.77129 z M 586.93153,336.59593 C 586.89031,332.62645 586.49635,328.38413 586.05603,327.16856 C 585.61573,325.95298 584.80304,322.38292 584.25008,319.23508 C 583.69711,316.08724 582.24466,311.23565 581.02241,308.45381 C 578.36376,302.40259 566.82603,286.66894 560.63319,280.64963 C 555.73403,275.88775 548.20276,270.98574 545.78596,270.98574 C 544.92946,270.98574 541.19938,273.78894 537.4969,277.21506 C 533.7944,280.6412 530.32313,283.81548 529.78293,284.26903 C 526.29669,287.19618 517.76258,295.5791 517.76258,296.07644 C 517.76258,296.407 518.62555,297.29579 519.68027,298.05155 C 520.73501,298.80731 522.70365,300.91951 524.05506,302.7453 C 526.36423,305.86512 526.76712,306.06491 530.74885,306.06491 C 533.07905,306.06491 535.23285,306.38169 535.53504,306.76885 C 535.83726,307.156 537.48814,307.71014 539.20371,308.00029 C 551.85335,310.13956 570.07275,323.48097 578.46019,336.74637 C 581.05028,340.84283 583.48706,345.48136 583.87524,347.0542 L 584.58101,349.9139 L 585.79373,346.86354 C 586.46073,345.18583 586.97274,340.56541 586.93153,336.59593 z M 462.00064,343.24123 C 464.89285,340.61982 469.97957,335.84694 473.30446,332.63483 L 479.34971,326.79464 L 476.03599,321.57729 C 469.34959,311.04973 465.50167,297.85927 463.83579,279.75554 C 463.41123,275.14186 463.39197,271.02387 463.79296,270.60446 C 464.19395,270.18502 464.77746,268.52664 465.08963,266.91916 C 465.64604,264.05394 465.61553,264.01778 463.53778,265.08064 C 462.37207,265.67693 457.08415,268.16758 451.78683,270.61542 C 439.50769,276.28945 436.51222,278.09449 433.77813,281.46728 C 432.55854,282.97178 430.77234,285.16169 429.80883,286.3338 C 426.74297,290.06328 422.67391,300.86498 421.51417,308.35269 C 420.89703,312.33725 419.91797,317.57902 419.33847,320.0011 C 418.75898,322.42317 418.4547,324.50494 418.66229,324.62724 C 418.86989,324.74955 422.72381,326.85295 427.22652,329.3015 C 435.58942,333.84918 448.96508,342.47744 453.15865,346.02959 C 454.44289,347.11741 455.77454,348.00742 456.11785,348.00742 C 456.46118,348.00742 459.10843,345.86264 462.00064,343.24123 z M 616.6058,334.60499 L 619.37486,334.16661 L 619.08502,300.47905 C 618.92559,281.95089 618.58924,266.31113 618.33751,265.72402 C 617.97685,264.88279 617.42591,264.98617 615.73791,266.21183 C 614.55984,267.06726 611.33493,268.6629 608.57145,269.75773 C 599.80693,273.23004 585.91534,272.10407 578.88864,267.35183 C 570.91853,261.96155 566.45682,265.32695 566.63734,276.59285 C 566.7144,281.40239 567.10452,282.9036 568.61908,284.21875 C 570.59785,285.93699 578.28001,296.39534 581.86532,302.25196 C 584.84131,307.11325 586.61761,312.5353 589.1729,324.55775 L 591.40152,335.04338 L 602.61912,335.04338 C 608.78882,335.04338 615.08282,334.8461 616.6058,334.60499 z M 415.49082,318.83833 C 416.06038,317.05577 417.00669,312.34266 417.59372,308.36474 C 418.18279,304.37305 420.14855,297.52378 421.98064,293.07939 C 423.8064,288.65035 425.30022,284.77551 425.30022,284.46861 C 425.30022,284.16173 424.03528,284.42854 422.48921,285.06157 C 417.41671,287.13844 409.55656,289.05702 400.47097,290.43599 C 389.94644,292.03336 373.68831,291.7211 368.3719,289.81947 C 357.94315,286.08922 352.57231,283.86177 348.41619,281.54328 C 345.22969,279.76568 335.72731,270.48063 335.72731,269.14462 C 335.72731,268.52903 335.26841,267.80084 334.70753,267.52637 C 334.00161,267.18093 333.83899,269.80738 334.17914,276.06053 C 334.44942,281.02875 334.69162,288.72762 334.71735,293.16911 C 334.76393,301.20691 334.7765,301.24935 337.41282,302.26869 C 338.86958,302.83197 344.82907,304.09762 350.65612,305.08127 C 356.48319,306.06491 363.20116,307.19833 365.58495,307.59996 C 374.41178,309.08711 391.41959,313.92619 401.70306,317.87632 C 407.53011,320.11462 412.78315,321.97597 413.37647,322.01264 C 413.96979,322.04933 414.92124,320.62088 415.49082,318.83833 z M 526.30079,282.94508 C 531.93454,277.54209 537.53324,272.04038 538.74232,270.71907 L 540.94064,268.31668 L 538.26074,266.58892 C 536.7868,265.63867 533.84717,264.48891 531.72825,264.0339 C 529.60933,263.57888 526.7921,262.84952 525.46778,262.41307 C 520.17601,260.66913 504.14193,259.56945 494.97709,260.32192 C 490.07934,260.72402 484.20905,260.85853 481.93198,260.62081 C 477.94838,260.20493 471.4217,261.64953 470.19727,263.21815 C 469.9208,263.57235 469.23206,266.15458 468.66673,268.95644 C 467.81629,273.17153 467.89094,274.43664 469.0993,276.2868 C 470.43172,278.32684 480.40491,284.71239 482.25872,284.71239 C 482.68895,284.71239 485.76067,285.69762 489.08476,286.90182 C 505.11391,292.70857 512.90169,294.7383 514.74299,293.58915 C 515.46601,293.13792 520.66702,288.34808 526.30079,282.94508 z M 400.87768,287.32697 C 412.35075,285.51008 422.08817,282.19363 429.63439,277.53273 C 431.54446,276.35298 431.5409,276.33069 429.21254,274.88747 C 426.18071,273.0082 419.58649,272.27793 407.00038,272.42758 C 397.94013,272.53533 392.55003,271.92102 383.64401,269.76569 C 382.17818,269.41094 381.95849,269.91399 381.95849,273.62517 C 381.95849,276.8512 381.25339,278.99851 379.06904,282.42461 C 377.47985,284.91724 376.17961,287.11286 376.17961,287.30378 C 376.17961,288.78049 391.6076,288.79497 400.87768,287.32697 z M 365.58495,282.19355 C 365.58495,279.09557 361.10768,274.03485 356.27445,271.66976 C 347.49551,267.37387 346.69708,253.6642 354.88441,247.80163 C 359.39621,244.57093 352.21184,243.05209 345.41149,245.79897 C 340.79659,247.66306 337.97506,250.43154 336.61531,254.42973 C 335.25544,258.42831 336.06186,261.44187 339.59691,265.57172 C 341.17676,267.4174 342.46937,269.50235 342.46937,270.20498 C 342.46937,270.9076 343.55291,272.28843 344.87724,273.27351 C 346.20157,274.25859 347.28511,275.50203 347.28511,276.0367 C 347.28511,277.20122 353.16274,280.88799 355.08122,280.92685 C 355.82582,280.94193 357.73528,281.79815 359.32449,282.82954 C 363.48811,285.53174 365.58495,285.31873 365.58495,282.19355 z M 376.01217,280.14685 C 377.99694,277.32158 378.27159,276.11936 377.85987,272.05844 C 377.42138,267.73318 377.04695,267.0596 373.84307,264.83232 C 369.28675,261.66487 367.20515,257.80094 367.87707,253.75811 C 368.49036,250.06793 367.3443,248.8706 363.19875,248.8706 C 359.28009,248.8706 356.24927,250.64682 354.49475,253.97157 C 351.58242,259.49033 353.69829,266.55178 359.0084,269.03538 C 362.86731,270.84021 369.13605,277.3017 369.95272,280.31616 C 371.24465,285.08494 372.56914,285.04793 376.01217,280.14685 z M 562.92206,271.11335 C 563.52994,268.66698 564.65607,266.00744 565.4246,265.20327 C 567.5882,262.93933 567.19736,262.32057 562.67343,260.8478 C 557.44661,259.14618 555.09949,257.13475 552.90918,252.47994 C 549.60891,245.46631 552.6855,233.07639 559.55623,225.71114 C 560.7811,224.39812 562.09628,222.88619 562.47883,222.35131 C 563.04079,221.56559 547.25603,221.41912 480.29797,221.58871 C 397.47533,221.79849 397.42025,221.79969 395.39265,223.4054 C 393.97391,224.52895 393.12384,226.54353 392.56616,230.10399 C 392.1275,232.90452 391.07829,236.03002 390.23457,237.04956 C 388.08826,239.64314 388.31476,240.48212 391.16125,240.48212 C 397.01579,240.48212 411.74268,247.50723 414.0866,251.4181 C 414.95677,252.87003 415.66873,254.22541 415.66873,254.43009 C 415.66873,254.63475 417.38294,257.12481 419.47808,259.96354 C 421.57322,262.80229 423.56445,266.1236 423.90307,267.34425 C 424.24168,268.5649 425.23633,269.74914 426.11341,269.9759 C 426.99048,270.20265 429.54541,271.03738 431.79099,271.83085 C 434.03658,272.62432 436.46707,273.27351 437.19209,273.27351 C 437.91708,273.27351 443.23117,270.98824 449.00115,268.19512 C 465.43677,260.239 476.05606,256.63327 479.74831,257.75508 C 480.46274,257.97215 486.59937,257.76581 493.38525,257.29653 C 506.52153,256.38812 519.27037,257.33999 527.87564,259.87167 C 529.99458,260.49508 532.49936,261.02019 533.44182,261.03859 C 535.3466,261.0758 551.98892,269.57567 557.25171,273.19923 C 559.10577,274.47579 560.89141,275.52949 561.21978,275.54079 C 561.54816,275.55205 562.31419,273.55972 562.92206,271.11335 z M 419.46041,268.23781 C 419.72287,268.03 417.43408,263.95103 414.3742,259.17344 C 408.48442,249.97739 407.0757,248.87545 396.13658,244.90737 C 391.54987,243.24357 386.14918,243.91836 380.03219,246.91949 C 374.13768,249.81148 372.3738,251.74088 372.34842,255.32436 C 372.32942,258.00555 372.92128,258.79143 377.5952,262.29092 C 385.12811,267.93101 392.66375,269.60505 407.93526,269.03098 C 414.0116,268.80255 419.19794,268.44563 419.46041,268.23781 z M 604.58239,267.81294 C 608.887,266.7918 615.45568,262.60329 617.36674,259.66099 C 618.36717,258.12072 618.55831,255.16116 618.17076,247.21085 C 617.6829,237.20262 617.57521,236.76397 615.50509,236.3526 C 612.30177,235.71602 604.56654,237.81758 601.47158,240.1653 C 598.90484,242.11234 598.83404,242.33859 600.15763,244.36515 C 602.08291,247.31297 601.87683,250.9065 599.54936,254.97134 C 596.85757,259.67241 594.52845,261.43994 588.45256,263.39245 C 585.59486,264.31079 583.25674,265.35507 583.25674,265.7131 C 583.25674,266.69987 591.8543,268.58479 596.62909,268.64486 C 598.95143,268.67408 602.53041,268.29971 604.58239,267.81294 z M 585.58917,260.06621 C 591.04828,260.76762 597.70399,254.6286 597.70399,248.8919 C 597.70399,246.8629 593.07221,240.97308 590.10446,239.22822 C 589.28816,238.74829 586.70471,238.18467 584.36343,237.97573 C 574.6568,237.10947 566.77599,243.1222 566.52314,251.58711 C 566.41094,255.34348 566.68951,255.88865 570.1607,258.70575 C 574.4331,262.17307 580.14886,263.28325 581.68329,260.94375 C 582.29378,260.01296 583.34192,259.77747 585.58917,260.06621 z M 565.02725,243.20321 C 566.24106,241.27887 567.95995,239.18438 568.847,238.54878 C 571.18978,236.87007 580.68019,234.38954 582.95668,234.86088 C 585.37143,235.36086 590.63101,230.07159 591.54188,226.22721 C 592.54582,221.99015 591.14347,221.41734 579.76673,221.41734 L 569.77052,221.41734 L 565.76802,224.65836 C 555.38861,233.06307 552.03423,249.61029 559.53261,255.41768 L 561.58588,257.0079 L 562.2031,251.85495 C 562.55768,248.89467 563.75939,245.21322 565.02725,243.20321 z M 344.43977,242.43309 C 347.32905,241.36825 350.45147,240.49364 351.37849,240.48957 C 352.64653,240.48395 353.06401,239.84919 353.06401,237.92684 C 353.06401,232.20812 356.02902,228.37493 363.47172,224.47163 L 367.66309,222.27349 L 363.49377,222.03607 C 361.20066,221.90548 353.69005,221.97022 346.80354,222.17993 L 334.28259,222.56123 L 333.80101,230.56844 C 333.53614,234.97241 333.46481,240.92099 333.64245,243.78756 L 333.96546,248.99947 L 336.57603,246.68433 C 338.01183,245.411 341.55054,243.49794 344.43977,242.43309 z M 381.53075,241.85357 C 385.78711,238.08591 387.98451,234.21129 388.71674,229.18252 C 389.12489,226.37966 389.76799,223.48586 390.14588,222.75187 C 391.21718,220.67096 384.87789,221.06418 375.41923,223.66534 C 362.11455,227.32417 356.9166,231.57578 356.9166,238.7994 C 356.9166,241.09931 360.50133,244.29507 363.0812,244.29507 C 363.68019,244.29507 365.68048,244.94007 367.52628,245.72841 C 370.86261,247.15334 370.90766,247.15133 375.21645,245.38403 C 377.60025,244.4063 380.44167,242.81758 381.53075,241.85357 z M 603.48289,235.49486 C 605.33695,234.75087 609.23771,233.93861 612.15123,233.68983 C 617.36594,233.24456 617.45352,233.19618 617.76643,230.58863 C 617.94125,229.13177 617.8213,226.55802 617.49989,224.86921 L 616.91549,221.79864 L 606.24331,221.79864 L 595.57113,221.79864 L 595.37967,224.89162 C 595.27436,226.59279 594.00506,229.6607 592.55894,231.70931 C 590.20487,235.04414 590.09463,235.50711 591.50573,236.13236 C 592.37257,236.51645 593.7776,237.47413 594.62803,238.26055 C 596.13682,239.65574 596.22199,239.65594 598.14307,238.26897 C 599.22591,237.48719 601.62883,236.23884 603.48289,235.49486 z"
       id="path2705" />
  </g>
</svg>
