<?xml version="1.0" encoding="UTF-8" standalone="no"?>
<!-- Created with Inkscape (http://www.inkscape.org/) -->
<svg
   xmlns:dc="http://purl.org/dc/elements/1.1/"
   xmlns:cc="http://creativecommons.org/ns#"
   xmlns:rdf="http://www.w3.org/1999/02/22-rdf-syntax-ns#"
   xmlns:svg="http://www.w3.org/2000/svg"
   xmlns="http://www.w3.org/2000/svg"
   xmlns:xlink="http://www.w3.org/1999/xlink"
   xmlns:sodipodi="http://sodipodi.sourceforge.net/DTD/sodipodi-0.dtd"
   xmlns:inkscape="http://www.inkscape.org/namespaces/inkscape"
   width="180"
   height="160.27776"
   id="svg5353"
   sodipodi:version="0.32"
   inkscape:version="0.46"
   version="1.0"
   sodipodi:docname="maqndon_MyHeart.svg"
   inkscape:output_extension="org.inkscape.output.svg.inkscape">
  <defs
     id="defs5355">
    <filter
       inkscape:collect="always"
       id="filter5301">
      <feGaussianBlur
         inkscape:collect="always"
         stdDeviation="35.518097"
         id="feGaussianBlur5303" />
    </filter>
    <filter
       inkscape:collect="always"
       id="filter5089">
      <feGaussianBlur
         inkscape:collect="always"
         stdDeviation="2.0296004"
         id="feGaussianBlur5091" />
    </filter>
    <linearGradient
       id="linearGradient4923">
      <stop
         style="stop-color: rgb(255, 0, 0); stop-opacity: 1;"
         offset="0"
         id="stop4925" />
      <stop
         style="stop-color: rgb(183, 10, 10); stop-opacity: 1;"
         offset="1"
         id="stop4927" />
    </linearGradient>
    <linearGradient
       inkscape:collect="always"
       xlink:href="#linearGradient4923"
       id="linearGradient5228"
       gradientUnits="userSpaceOnUse"
       gradientTransform="matrix(14.2493,0,0,-14.2493,242623,62886.5)"
       x1="-17378.469"
       y1="3827.2302"
       x2="-17378.469"
       y2="3994.4907" />
  </defs>
  <sodipodi:namedview
     id="base"
     pagecolor="#ffffff"
     bordercolor="#666666"
     borderopacity="1.0"
     inkscape:pageopacity="0.0"
     inkscape:pageshadow="2"
     inkscape:zoom="1.7948842"
     inkscape:cx="121.21831"
     inkscape:cy="160.74009"
     inkscape:document-units="px"
     inkscape:current-layer="layer1"
     showgrid="false"
     inkscape:window-width="1440"
     inkscape:window-height="825"
     inkscape:window-x="0"
     inkscape:window-y="25" />
  <metadata
     id="metadata5358">
    <rdf:RDF>
      <cc:Work
         rdf:about="">
        <dc:format>image/svg+xml</dc:format>
        <dc:type
           rdf:resource="http://purl.org/dc/dcmitype/StillImage" />
      </cc:Work>
    </rdf:RDF>
  </metadata>
  <g
     inkscape:label="Capa 1"
     inkscape:groupmode="layer"
     id="layer1"
     transform="translate(-5.0007137,-108.2863)">
    <g
       id="g5311"
       transform="matrix(6.2422868e-2,0,0,6.2422868e-2,407.61332,-252.73875)">
      <path
         sodipodi:nodetypes="cccsccc"
         id="path5187"
         d="M -5633.2963,5796.7164 C -6435.6739,5782.2904 -7178.1759,7037.1143 -5014.9341,8338.096 C -5012.5687,8333.8283 -5003.4349,8333.8283 -5001.0695,8338.096 C -2768.0489,6995.1445 -3631.1712,5701.5639 -4460.3516,5802.2622 C -4783.5968,5841.5176 -4936.1355,6020.9204 -5007.9946,6175.2203 C -5079.8538,6020.9204 -5232.4067,5841.5176 -5555.6519,5802.2622 C -5581.5714,5799.1131 -5607.4053,5797.1823 -5633.2963,5796.7164 z"
         style="fill:url(#linearGradient5228);fill-opacity:1;fill-rule:evenodd;stroke:#000000;stroke-width:26.11000061;stroke-linecap:butt;stroke-linejoin:round;stroke-miterlimit:4;stroke-dasharray:none;stroke-opacity:1" />
      <path
         transform="matrix(14.2493,0,0,-14.2493,245964,64979.2)"
         id="path5195"
         d="M -17687.531,4045.2812 C -17701.591,4064.31 -17712.23,4089.5318 -17704.781,4113.0938 C -17698.285,4133.6424 -17677.595,4148.647 -17655.875,4147.3438 C -17648.993,4147.1026 -17641.271,4145.3272 -17635.719,4142.125 C -17666.635,4141.082 -17694.518,4113.8733 -17694.594,4082.6562 C -17695.228,4069.2064 -17691.873,4055.7964 -17686.25,4043.6562 C -17686.677,4044.1979 -17687.104,4044.7396 -17687.531,4045.2812 z"
         style="fill:#ff5555;fill-opacity:1;fill-rule:evenodd;stroke:none;stroke-width:1.83237004;stroke-linecap:butt;stroke-linejoin:round;stroke-miterlimit:4;stroke-dasharray:none;stroke-opacity:1;filter:url(#filter5089)" />
      <path
         transform="matrix(14.2493,0,0,-14.2493,245964,64979.2)"
         id="path5197"
         d="M -17698.438,4072.75 C -17706.014,4091.298 -17705.287,4115.0126 -17690.156,4129.8125 C -17680.563,4139.533 -17665.839,4144.8877 -17652.688,4143.1562 C -17681.732,4134.0803 -17702.786,4103.2122 -17698.375,4072.5938 L -17698.438,4072.75 z"
         style="fill:#ffaaaa;fill-opacity:1;fill-rule:evenodd;stroke:none;stroke-width:1.83237004;stroke-linecap:butt;stroke-linejoin:round;stroke-miterlimit:4;stroke-dasharray:none;stroke-opacity:1;filter:url(#filter5089)" />
      <path
         transform="matrix(14.2493,0,0,-14.2493,245964,64979.2)"
         id="path5201"
         d="M -17698.594,4104.4062 C -17696.508,4117.3786 -17688.234,4129.5867 -17676.125,4135 C -17686.241,4126.7998 -17694.192,4115.9821 -17698.719,4103.8125 L -17698.594,4104.4062 z"
         style="fill:#ffffff;fill-opacity:1;fill-rule:evenodd;stroke:none;stroke-width:1.83237004;stroke-linecap:butt;stroke-linejoin:round;stroke-miterlimit:4;stroke-dasharray:none;stroke-opacity:1;filter:url(#filter5089)" />
      <path
         sodipodi:nodetypes="ccc"
         id="path5278"
         d="M -3824.3645,6086.951 C -3728.8537,6958.719 -4165.9443,7535.6188 -5010.0778,8273.2521 C -3980.0667,7700.4275 -3303.4984,6781.7336 -3824.3645,6086.951 z"
         style="fill:#ff5555;fill-opacity:1;fill-rule:evenodd;stroke:none;stroke-width:26.11000061;stroke-linecap:butt;stroke-linejoin:round;stroke-miterlimit:4;stroke-dasharray:none;stroke-opacity:1;filter:url(#filter5301)" />
      <path
         d="M -3748.8125,6358.9062 C -3756.1433,6689.2602 -3846.2741,6983.2504 -4010.25,7262.4688 C -4111.915,7435.584 -4241.4574,7603.2623 -4396.4062,7772.5625 C -4183.2733,7589.1459 -4009.165,7392.0771 -3889.9375,7193.2812 C -3717.7191,6906.1302 -3657.2331,6622.6434 -3748.8125,6358.9062 z"
         id="path5307"
         style="fill:#ffaaaa;fill-opacity:1;fill-rule:evenodd;stroke:none;stroke-width:26.11000061;stroke-linecap:butt;stroke-linejoin:round;stroke-miterlimit:4;stroke-dasharray:none;stroke-opacity:1;filter:url(#filter5301)"
         inkscape:original="M -3824.375 6086.9375 C -3728.8642 6958.7053 -4165.929 7535.6167 -5010.0625 8273.25 C -3980.0516 7700.4255 -3303.5089 6781.7201 -3824.375 6086.9375 z "
         inkscape:radius="-63.30946"
         sodipodi:type="inkscape:offset" />
      <path
         sodipodi:type="inkscape:offset"
         inkscape:radius="-86.271767"
         inkscape:original="M -3824.375 6086.9375 C -3728.8642 6958.7053 -4165.929 7535.6167 -5010.0625 8273.25 C -3980.0516 7700.4255 -3303.5089 6781.7201 -3824.375 6086.9375 z "
         style="fill:#ffffff;fill-opacity:1;fill-rule:evenodd;stroke:none;stroke-width:26.11000061;stroke-linecap:butt;stroke-linejoin:round;stroke-miterlimit:4;stroke-dasharray:none;stroke-opacity:1;filter:url(#filter5301)"
         id="path5309"
         d="M -3735.3125,6510.8125 C -3763.2942,6784.8148 -3850.2464,7035.3231 -3990.4688,7274.0938 C -4024.1829,7331.5022 -4060.883,7388.247 -4100.4688,7444.625 C -4026.73,7357.8115 -3962.5563,7269.7245 -3909.625,7181.4688 C -3771.1626,6950.6013 -3706.1803,6725.1785 -3735.3125,6510.8125 z" />
    </g>
  </g>
</svg>
