<?xml version="1.0" encoding="UTF-8" standalone="no"?>
<!-- Created with Inkscape (http://www.inkscape.org/) -->
<svg
   xmlns:dc="http://purl.org/dc/elements/1.1/"
   xmlns:cc="http://creativecommons.org/ns#"
   xmlns:rdf="http://www.w3.org/1999/02/22-rdf-syntax-ns#"
   xmlns:svg="http://www.w3.org/2000/svg"
   xmlns="http://www.w3.org/2000/svg"
   xmlns:sodipodi="http://sodipodi.sourceforge.net/DTD/sodipodi-0.dtd"
   xmlns:inkscape="http://www.inkscape.org/namespaces/inkscape"
   id="svg2003"
   sodipodi:version="0.32"
   inkscape:version="0.46"
   width="159.21552"
   height="300"
   version="1.0"
   sodipodi:docbase="E:\SVG"
   sodipodi:docname="liftarn_Bell_bottoms.svg"
   inkscape:output_extension="org.inkscape.output.svg.inkscape">
  <metadata
     id="metadata2008">
    <rdf:RDF>
      <cc:Work
         rdf:about="">
        <dc:format>image/svg+xml</dc:format>
        <dc:type
           rdf:resource="http://purl.org/dc/dcmitype/StillImage" />
      </cc:Work>
    </rdf:RDF>
  </metadata>
  <defs
     id="defs2006" />
  <sodipodi:namedview
     inkscape:window-height="726"
     inkscape:window-width="1024"
     inkscape:pageshadow="2"
     inkscape:pageopacity="0.0"
     guidetolerance="10.0"
     gridtolerance="10.0"
     objecttolerance="10.0"
     borderopacity="1.0"
     bordercolor="#666666"
     pagecolor="#ffffff"
     id="base"
     inkscape:zoom="0.92926829"
     inkscape:cx="110"
     inkscape:cy="205"
     inkscape:window-x="406"
     inkscape:window-y="120"
     inkscape:current-layer="svg2003"
     showgrid="false" />
  <g
     id="g2382"
     transform="matrix(0.7512661,0,0,0.7512661,-2.6823304,-3.9402591)">
    <path
       id="path2018"
       d="M 68.5,403.50941 C 44.540176,399.76233 19.201331,389.80145 7.1677963,379.39928 L 3.5704132,376.28958 L 6.2372127,369.39479 C 16.860608,341.92887 34.220143,278.48562 38.085509,253 C 41.486857,230.5738 41.232563,192.3699 37.486449,163 C 37.240916,161.075 35.492099,147.8 33.600188,133.5 C 28.309018,93.506716 27.72807,84.541896 28.177504,49.820589 C 28.626557,15.128695 28.618858,15.169904 35.139163,12.560995 C 41.361827,10.071178 54.012136,7.2077009 64.460657,5.9238896 C 73.692016,4.7896311 103.96129,5.1407417 114,6.4985246 C 125.31195,8.0285198 153.96093,10.969721 162.5,11.477697 C 181.32762,12.597724 182.60826,12.844816 183.86344,15.599626 C 185.66625,19.556371 186.43243,56.317092 185.09106,74.5 C 183.77946,92.279326 182.34228,104.49842 177.9164,135.5 C 171.32681,181.65753 170.77718,188.2674 170.39109,226 C 169.92942,271.12018 172.07191,292.65368 180.0003,322.57904 C 187.73706,351.78114 196.15895,368.5699 209.4509,381.28789 L 215.5,387.07578 L 213,389.0196 C 209.21003,391.96642 197.15947,396.74863 187.30698,399.21578 C 179.85363,401.08216 175.65655,401.42718 160,401.46056 C 143.36162,401.49603 140.74529,401.26518 134,399.16645 C 126.09364,396.70647 118.94866,392.70315 115.04123,388.54389 L 112.69783,386.04945 L 115.78853,378.22815 C 117.48841,373.92643 119.89035,365.7028 121.12617,359.95342 C 124.2362,345.48476 124.25887,314.67935 121.17912,288 C 120.00456,277.825 118.34297,262.3 117.48671,253.5 C 116.63044,244.7 115.24288,233.45 114.40324,228.5 C 112.83546,219.25735 105.767,189.21523 104.14711,184.90978 C 103.28585,182.62068 103.1871,182.70032 102.17511,186.5 C 93.180327,220.27268 92.850241,222.69113 92.279828,259 C 91.220144,326.45265 96.98542,365.56753 111.73576,391 C 116.72334,399.59957 116.39667,401.51945 109.68961,403.02542 C 101.55979,404.85085 78.788456,405.11842 68.5,403.50941 z"
       style="fill:#000000" />
    <path
       id="path2016"
       d="M 103.97469,399.93442 C 107.53577,399.35667 110.60736,398.72598 110.80044,398.53289 C 110.99352,398.33981 109.33112,394.865 107.1062,390.81109 C 99.176377,376.36254 93.785683,355.54502 90.323384,326 C 88.993631,314.65276 88.611428,302.36787 88.565575,269.5 L 88.506982,227.5 L 91.323639,215 C 97.753631,186.46443 108.98517,145.2168 117.19169,120 C 121.06132,108.1095 127.5214,95 129.51116,95 C 131.71391,95 131.33866,97.382277 128.1284,103.77852 C 124.82195,110.36639 114.99305,139.82364 109.03551,161 C 106.7919,168.975 104.71075,176.2875 104.41072,177.25 C 104.0629,178.36585 104.3935,179 105.32306,179 C 106.97358,179 109.2931,186.85587 114.62372,210.5 C 118.17214,226.23916 119.40119,234.84262 123.48068,272.5 C 129.68488,329.7703 129.13911,351.8412 120.91841,376.11869 C 119.31328,380.85897 118,385.24082 118,385.85614 C 118,387.56888 125.75197,392.09899 133,394.62187 C 151.66189,401.11765 183.60112,398.99002 202.885,389.96648 L 209.27,386.97873 L 204.33745,381.73937 C 197.48433,374.45997 193.60719,368.52814 187.91826,356.61889 C 181.30104,342.76633 175.72731,325.35991 172.15967,307.4057 C 167.02174,281.54897 166.49863,274.65151 166.51671,233 C 166.53402,193.09326 166.96158,186.71051 172.00952,151 C 177.3981,112.8797 179.22374,97.877777 180.52808,81 C 181.98268,62.178039 182.23813,37.549619 181.1193,24 L 180.5,16.5 L 168,15.765988 C 161.125,15.362281 145.15,13.797929 132.5,12.28965 C 113.45421,10.018793 105.37386,9.5460351 85.5,9.5398181 C 60.895465,9.5321212 57.327195,9.93176 41.90618,14.422236 C 32.821988,17.06748 33.177393,16.318836 31.899896,35.5 C 30.021715,63.700236 31.596065,90.068217 37.989997,137.5 C 47.502437,208.06565 47.295448,237.05468 36.973731,279.82957 C 32.521043,298.28224 19.733117,342.66665 14.451459,358 C 8.1133148,376.40047 8.2377617,375.18123 12.375639,378.33735 C 21.320161,385.15967 39.815801,393.32008 53.937154,396.67459 C 70.805455,400.68163 91.185612,402.00935 103.97469,399.93442 z"
       style="fill:#cce5f8;fill-opacity:1" />
    <path
       id="path2012"
       d="M 39.666667,72.333333 C 38.197987,70.864654 39.248767,70.070516 44.75,68.49155 C 53.293259,66.039462 62.410501,60.561849 69.457814,53.647165 C 75.833099,47.391864 83.505105,36.527555 86.333181,29.75 C 87.877039,26.050106 91,24.561147 91,27.524964 C 91,30.044584 84.451659,42.249575 80.257911,47.546386 C 71.006878,59.230678 60.443963,67.315642 49.680805,70.950417 C 43.326957,73.096145 40.781058,73.447724 39.666667,72.333333 z"
       style="fill:#000000" />
  </g>
</svg>
