<?xml version="1.0" encoding="UTF-8" standalone="no"?>
<!-- Created with Inkscape (http://www.inkscape.org/) -->
<svg
   xmlns:dc="http://purl.org/dc/elements/1.1/"
   xmlns:cc="http://creativecommons.org/ns#"
   xmlns:rdf="http://www.w3.org/1999/02/22-rdf-syntax-ns#"
   xmlns:svg="http://www.w3.org/2000/svg"
   xmlns="http://www.w3.org/2000/svg"
   xmlns:xlink="http://www.w3.org/1999/xlink"
   xmlns:sodipodi="http://sodipodi.sourceforge.net/DTD/sodipodi-0.dtd"
   xmlns:inkscape="http://www.inkscape.org/namespaces/inkscape"
   width="143.85092"
   height="236.93912"
   id="svg2441"
   sodipodi:version="0.32"
   inkscape:version="0.46"
   version="1.0"
   sodipodi:docbase="/home/frederik/bilder/clipart_freedo"
   sodipodi:docname="freedo_Bikini.svg"
   inkscape:output_extension="org.inkscape.output.svg.inkscape">
  <defs
     id="defs2443">
    <pattern
       inkscape:collect="always"
       xlink:href="#pattern4779"
       id="pattern3625"
       patternTransform="matrix(0.151453, 0.0768044, -0.0768044, 0.151453, 165.909, 798.636)" />
    <pattern
       inkscape:collect="always"
       xlink:href="#pattern4779"
       id="pattern2995"
       patternTransform="matrix(0.151453, 0.0768044, -0.0768044, 0.151453, 165.909, 798.636)" />
    <pattern
       patternUnits="userSpaceOnUse"
       width="82.323624"
       height="68.868538"
       patternTransform="translate(-121.272, 501.472)"
       id="pattern4752">
      <g
         id="g4728"
         transform="translate(121.272, -501.472)">
        <g
           id="g4084">
          <path
             sodipodi:type="arc"
             style="fill: rgb(255, 0, 0); fill-opacity: 0.75; fill-rule: evenodd; stroke: none; stroke-width: 1pt; stroke-linecap: butt; stroke-linejoin: miter; stroke-opacity: 1;"
             id="path3454"
             sodipodi:cx="-80.856262"
             sodipodi:cy="522.51221"
             sodipodi:rx="2.9600558"
             sodipodi:ry="7.0106583"
             d="M -77.896206 522.51221 A 2.9600558 7.0106583 0 1 0 -83.816318,522.51221 A 2.9600558 7.0106583 0 1 0 -77.896206 522.51221 z"
             transform="matrix(0.977754, 0.209754, -0.209754, 0.977754, 114.343, 22.0403)" />
          <path
             sodipodi:type="arc"
             style="fill: rgb(255, 0, 0); fill-opacity: 0.75; fill-rule: evenodd; stroke: none; stroke-width: 1pt; stroke-linecap: butt; stroke-linejoin: miter; stroke-opacity: 1;"
             id="path3455"
             sodipodi:cx="-80.856262"
             sodipodi:cy="522.51221"
             sodipodi:rx="2.9600558"
             sodipodi:ry="7.0106583"
             d="M -77.896206 522.51221 A 2.9600558 7.0106583 0 1 0 -83.816318,522.51221 A 2.9600558 7.0106583 0 1 0 -77.896206 522.51221 z"
             transform="matrix(0.195947, 0.980615, -0.980615, 0.195947, 460.457, 498.793)" />
          <path
             sodipodi:type="arc"
             style="fill: rgb(255, 0, 0); fill-opacity: 0.75; fill-rule: evenodd; stroke: none; stroke-width: 1pt; stroke-linecap: butt; stroke-linejoin: miter; stroke-opacity: 1;"
             id="path3456"
             sodipodi:cx="-80.856262"
             sodipodi:cy="522.51221"
             sodipodi:rx="2.9600558"
             sodipodi:ry="7.0106583"
             d="M -77.896206 522.51221 A 2.9600558 7.0106583 0 1 0 -83.816318,522.51221 A 2.9600558 7.0106583 0 1 0 -77.896206 522.51221 z"
             transform="matrix(-0.510999, 0.859582, -0.859582, -0.510999, 339.12, 865.25)" />
          <path
             sodipodi:type="arc"
             style="fill: rgb(255, 0, 0); fill-opacity: 0.75; fill-rule: evenodd; stroke: none; stroke-width: 1pt; stroke-linecap: butt; stroke-linejoin: miter; stroke-opacity: 1;"
             id="path3457"
             sodipodi:cx="-80.856262"
             sodipodi:cy="522.51221"
             sodipodi:rx="2.9600558"
             sodipodi:ry="7.0106583"
             d="M -77.896206 522.51221 A 2.9600558 7.0106583 0 1 0 -83.816318,522.51221 A 2.9600558 7.0106583 0 1 0 -77.896206 522.51221 z"
             transform="matrix(-0.999913, -0.0132444, 0.0132444, -0.999913, -163.953, 1054.19)" />
          <path
             sodipodi:type="arc"
             style="fill: rgb(255, 0, 0); fill-opacity: 0.75; fill-rule: evenodd; stroke: none; stroke-width: 1pt; stroke-linecap: butt; stroke-linejoin: miter; stroke-opacity: 1;"
             id="path3458"
             sodipodi:cx="-80.856262"
             sodipodi:cy="522.51221"
             sodipodi:rx="2.9600558"
             sodipodi:ry="7.0106583"
             d="M -77.896206 522.51221 A 2.9600558 7.0106583 0 1 0 -83.816318,522.51221 A 2.9600558 7.0106583 0 1 0 -77.896206 522.51221 z"
             transform="matrix(-0.491779, -0.870721, 0.870721, -0.491779, -578.387, 714.679)" />
          <path
             sodipodi:type="arc"
             style="fill: rgb(255, 0, 0); fill-opacity: 0.75; fill-rule: evenodd; stroke: none; stroke-width: 1pt; stroke-linecap: butt; stroke-linejoin: miter; stroke-opacity: 1;"
             id="path3459"
             sodipodi:cx="-80.856262"
             sodipodi:cy="522.51221"
             sodipodi:rx="2.9600558"
             sodipodi:ry="7.0106583"
             d="M -77.896206 522.51221 A 2.9600558 7.0106583 0 1 0 -83.816318,522.51221 A 2.9600558 7.0106583 0 1 0 -77.896206 522.51221 z"
             transform="matrix(0.562975, -0.826475, 0.826475, 0.562975, -469.361, 157.787)" />
          <path
             sodipodi:type="arc"
             style="fill: rgb(255, 241, 0); fill-opacity: 0.75; fill-rule: evenodd; stroke: none; stroke-width: 1pt; stroke-linecap: butt; stroke-linejoin: miter; stroke-opacity: 1;"
             id="path2832"
             sodipodi:cx="-76.182487"
             sodipodi:cy="524.07013"
             sodipodi:rx="2.3368862"
             sodipodi:ry="2.3368862"
             d="M -73.845601 524.07013 A 2.3368862 2.3368862 0 1 0 -78.519374,524.07013 A 2.3368862 2.3368862 0 1 0 -73.845601 524.07013 z" />
          <path
             style="fill: none; fill-opacity: 0.75; fill-rule: evenodd; stroke: rgb(0, 133, 7); stroke-width: 1pt; stroke-linecap: butt; stroke-linejoin: miter; stroke-opacity: 0.74902;"
             d="M -74.526620,526.26684 C -69.382961,538.97509 -64.128623,544.61912 -46.368289,547.42338"
             id="path3460"
             sodipodi:nodetypes="cc" />
          <path
             style="fill: rgb(0, 169, 11); fill-opacity: 0.748879; fill-rule: evenodd; stroke: none; stroke-width: 1pt; stroke-linecap: butt; stroke-linejoin: miter; stroke-opacity: 1;"
             d="M -61.965874,542.74559 C -67.775545,538.88620 -59.591296,530.08542 -59.155213,523.54926 C -55.825924,541.32826 -58.524713,545.03157 -61.965874,542.74559 z "
             id="path3461"
             sodipodi:nodetypes="ccs" />
          <path
             style="fill: rgb(0, 169, 11); fill-opacity: 0.748879; fill-rule: evenodd; stroke: none; stroke-width: 1pt; stroke-linecap: butt; stroke-linejoin: miter; stroke-opacity: 1;"
             d="M -56.228093,545.73627 C -61.008042,540.65698 -68.309932,550.20256 -74.680116,551.72975 C -56.594524,552.02702 -53.396850,548.74482 -56.228093,545.73627 z "
             id="path4083"
             sodipodi:nodetypes="ccs" />
        </g>
        <g
           id="g4095"
           transform="matrix(-0.554492, 0, 0, 0.554492, -135.184, 256.091)">
          <path
             sodipodi:type="arc"
             style="fill: rgb(255, 0, 0); fill-opacity: 0.75; fill-rule: evenodd; stroke: none; stroke-width: 1pt; stroke-linecap: butt; stroke-linejoin: miter; stroke-opacity: 1;"
             id="path4096"
             sodipodi:cx="-80.856262"
             sodipodi:cy="522.51221"
             sodipodi:rx="2.9600558"
             sodipodi:ry="7.0106583"
             d="M -77.896206 522.51221 A 2.9600558 7.0106583 0 1 0 -83.816318,522.51221 A 2.9600558 7.0106583 0 1 0 -77.896206 522.51221 z"
             transform="matrix(0.977754, 0.209754, -0.209754, 0.977754, 114.343, 22.0403)" />
          <path
             sodipodi:type="arc"
             style="fill: rgb(255, 0, 0); fill-opacity: 0.75; fill-rule: evenodd; stroke: none; stroke-width: 1pt; stroke-linecap: butt; stroke-linejoin: miter; stroke-opacity: 1;"
             id="path4097"
             sodipodi:cx="-80.856262"
             sodipodi:cy="522.51221"
             sodipodi:rx="2.9600558"
             sodipodi:ry="7.0106583"
             d="M -77.896206 522.51221 A 2.9600558 7.0106583 0 1 0 -83.816318,522.51221 A 2.9600558 7.0106583 0 1 0 -77.896206 522.51221 z"
             transform="matrix(0.195947, 0.980615, -0.980615, 0.195947, 460.457, 498.793)" />
          <path
             sodipodi:type="arc"
             style="fill: rgb(255, 0, 0); fill-opacity: 0.75; fill-rule: evenodd; stroke: none; stroke-width: 1pt; stroke-linecap: butt; stroke-linejoin: miter; stroke-opacity: 1;"
             id="path4098"
             sodipodi:cx="-80.856262"
             sodipodi:cy="522.51221"
             sodipodi:rx="2.9600558"
             sodipodi:ry="7.0106583"
             d="M -77.896206 522.51221 A 2.9600558 7.0106583 0 1 0 -83.816318,522.51221 A 2.9600558 7.0106583 0 1 0 -77.896206 522.51221 z"
             transform="matrix(-0.510999, 0.859582, -0.859582, -0.510999, 339.12, 865.25)" />
          <path
             sodipodi:type="arc"
             style="fill: rgb(255, 0, 0); fill-opacity: 0.75; fill-rule: evenodd; stroke: none; stroke-width: 1pt; stroke-linecap: butt; stroke-linejoin: miter; stroke-opacity: 1;"
             id="path4099"
             sodipodi:cx="-80.856262"
             sodipodi:cy="522.51221"
             sodipodi:rx="2.9600558"
             sodipodi:ry="7.0106583"
             d="M -77.896206 522.51221 A 2.9600558 7.0106583 0 1 0 -83.816318,522.51221 A 2.9600558 7.0106583 0 1 0 -77.896206 522.51221 z"
             transform="matrix(-0.999913, -0.0132444, 0.0132444, -0.999913, -163.953, 1054.19)" />
          <path
             sodipodi:type="arc"
             style="fill: rgb(255, 0, 0); fill-opacity: 0.75; fill-rule: evenodd; stroke: none; stroke-width: 1pt; stroke-linecap: butt; stroke-linejoin: miter; stroke-opacity: 1;"
             id="path4100"
             sodipodi:cx="-80.856262"
             sodipodi:cy="522.51221"
             sodipodi:rx="2.9600558"
             sodipodi:ry="7.0106583"
             d="M -77.896206 522.51221 A 2.9600558 7.0106583 0 1 0 -83.816318,522.51221 A 2.9600558 7.0106583 0 1 0 -77.896206 522.51221 z"
             transform="matrix(-0.491779, -0.870721, 0.870721, -0.491779, -578.387, 714.679)" />
          <path
             sodipodi:type="arc"
             style="fill: rgb(255, 0, 0); fill-opacity: 0.75; fill-rule: evenodd; stroke: none; stroke-width: 1pt; stroke-linecap: butt; stroke-linejoin: miter; stroke-opacity: 1;"
             id="path4101"
             sodipodi:cx="-80.856262"
             sodipodi:cy="522.51221"
             sodipodi:rx="2.9600558"
             sodipodi:ry="7.0106583"
             d="M -77.896206 522.51221 A 2.9600558 7.0106583 0 1 0 -83.816318,522.51221 A 2.9600558 7.0106583 0 1 0 -77.896206 522.51221 z"
             transform="matrix(0.562975, -0.826475, 0.826475, 0.562975, -469.361, 157.787)" />
          <path
             sodipodi:type="arc"
             style="fill: rgb(255, 241, 0); fill-opacity: 0.75; fill-rule: evenodd; stroke: none; stroke-width: 1pt; stroke-linecap: butt; stroke-linejoin: miter; stroke-opacity: 1;"
             id="path4102"
             sodipodi:cx="-76.182487"
             sodipodi:cy="524.07013"
             sodipodi:rx="2.3368862"
             sodipodi:ry="2.3368862"
             d="M -73.845601 524.07013 A 2.3368862 2.3368862 0 1 0 -78.519374,524.07013 A 2.3368862 2.3368862 0 1 0 -73.845601 524.07013 z" />
          <path
             style="fill: none; fill-opacity: 0.75; fill-rule: evenodd; stroke: rgb(0, 133, 7); stroke-width: 1.80345pt; stroke-linecap: butt; stroke-linejoin: miter; stroke-opacity: 0.74902;"
             d="M -74.526620,526.26684 C -69.382961,538.97509 -64.128623,544.61912 -46.368289,547.42338"
             id="path4103"
             sodipodi:nodetypes="cc" />
          <path
             style="fill: rgb(0, 169, 11); fill-opacity: 0.748879; fill-rule: evenodd; stroke: none; stroke-width: 1pt; stroke-linecap: butt; stroke-linejoin: miter; stroke-opacity: 1;"
             d="M -61.965874,542.74559 C -67.775545,538.88620 -59.591296,530.08542 -59.155213,523.54926 C -55.825924,541.32826 -58.524713,545.03157 -61.965874,542.74559 z "
             id="path4104"
             sodipodi:nodetypes="ccs" />
          <path
             style="fill: rgb(0, 169, 11); fill-opacity: 0.748879; fill-rule: evenodd; stroke: none; stroke-width: 1pt; stroke-linecap: butt; stroke-linejoin: miter; stroke-opacity: 1;"
             d="M -56.228093,545.73627 C -61.008042,540.65698 -68.309932,550.20256 -74.680116,551.72975 C -56.594524,552.02702 -53.396850,548.74482 -56.228093,545.73627 z "
             id="path4105"
             sodipodi:nodetypes="ccs" />
        </g>
      </g>
    </pattern>
    <pattern
       inkscape:collect="always"
       xlink:href="#pattern4752"
       id="pattern4778"
       patternTransform="matrix(0.345761, 0.175341, -0.175341, 0.345761, -121.272, 501.472)" />
    <pattern
       inkscape:collect="always"
       xlink:href="#pattern4778"
       id="pattern4779"
       patternTransform="matrix(0.151453, 0.0768044, -0.0768044, 0.151453, -121.272, 501.472)" />
    <pattern
       inkscape:collect="always"
       xlink:href="#pattern4779"
       id="pattern1108"
       patternTransform="matrix(0.151453, 0.0768044, -0.0768044, 0.151453, 165.909, 798.636)" />
  </defs>
  <sodipodi:namedview
     id="base"
     pagecolor="#ffffff"
     bordercolor="#666666"
     borderopacity="1.0"
     inkscape:pageopacity="0.0"
     inkscape:pageshadow="2"
     inkscape:zoom="3.0978422"
     inkscape:cx="71.925461"
     inkscape:cy="168.49521"
     inkscape:document-units="px"
     inkscape:current-layer="layer1"
     inkscape:window-width="1280"
     inkscape:window-height="821"
     inkscape:window-x="0"
     inkscape:window-y="25"
     showgrid="false" />
  <metadata
     id="metadata2446">
    <rdf:RDF>
      <cc:Work
         rdf:about="">
        <dc:format>image/svg+xml</dc:format>
        <dc:type
           rdf:resource="http://purl.org/dc/dcmitype/StillImage" />
        <cc:license
           rdf:resource="http://web.resource.org/cc/PublicDomain" />
        <dc:title>Bikini</dc:title>
        <dc:date>2007-03-23</dc:date>
        <dc:creator>
          <cc:Agent>
            <dc:title>Frederik Elwert</dc:title>
          </cc:Agent>
        </dc:creator>
        <dc:subject>
          <rdf:Bag>
            <rdf:li>bikini</rdf:li>
            <rdf:li>clothes</rdf:li>
          </rdf:Bag>
        </dc:subject>
      </cc:Work>
      <cc:License
         rdf:about="http://web.resource.org/cc/PublicDomain">
        <cc:permits
           rdf:resource="http://web.resource.org/cc/Reproduction" />
        <cc:permits
           rdf:resource="http://web.resource.org/cc/Distribution" />
        <cc:permits
           rdf:resource="http://web.resource.org/cc/DerivativeWorks" />
      </cc:License>
    </rdf:RDF>
  </metadata>
  <g
     inkscape:label="Ebene 1"
     inkscape:groupmode="layer"
     id="layer1"
     transform="translate(-278.07454,-413.89237)">
    <g
       id="g4268"
       transform="translate(-9.10579,116.728)">
      <path
         style="font-size:12px;font-style:normal;font-variant:normal;font-weight:100;font-stretch:ultra-condensed;letter-spacing:0pt;text-anchor:start;fill:#00ffda;fill-opacity:0.75;fill-rule:evenodd;stroke:none;stroke-width:1pt;stroke-linecap:butt;stroke-linejoin:miter;marker:none;stroke-miterlimit:4;stroke-dashoffset:0;stroke-opacity:1;font-family:Bitstream Vera Sans"
         d="M 338.63758,372.88379 C 346.78956,370.68055 362.43254,371.78217 366.39837,374.42605 C 362.43254,369.79925 361.55125,365.6131 361.1106,364.51148 C 357.14477,365.83343 349.21312,364.29116 346.56923,362.52857 C 345.24729,366.4944 341.28146,370.68055 338.63758,372.88379 z"
         id="path4269"
         transform="translate(-9.59473e-5,0)" />
      <path
         style="font-size:12px;font-style:normal;font-variant:normal;font-weight:100;font-stretch:ultra-condensed;letter-spacing:0pt;text-anchor:start;fill:#00ffda;fill-opacity:0.75;fill-rule:evenodd;stroke:none;stroke-width:1pt;stroke-linecap:butt;stroke-linejoin:miter;marker:none;stroke-miterlimit:4;stroke-dashoffset:0;stroke-opacity:1;font-family:Bitstream Vera Sans"
         d="M 306.90625,324.1875 C 301.44347,328.5031 297.79339,332.59257 294.68256,337.33169 C 293.39992,339.2857 288.53619,346.40089 287.53125,353.71875 C 285.82133,366.17017 290.43776,375.92981 299.6875,380.5625 C 316.24431,388.8549 342.14762,375.1509 346.46875,362.1875 C 334.00536,342.55766 313.76112,335.71614 306.90625,324.1875 z"
         id="path4270"
         sodipodi:nodetypes="cscscc" />
      <path
         style="font-size:12px;font-style:normal;font-variant:normal;font-weight:100;font-stretch:ultra-condensed;letter-spacing:0pt;text-anchor:start;fill:#00cdaf;fill-opacity:0.75;fill-rule:evenodd;stroke:none;stroke-width:1pt;stroke-linecap:butt;stroke-linejoin:miter;marker:none;stroke-miterlimit:4;stroke-dashoffset:0;stroke-opacity:1;font-family:Bitstream Vera Sans"
         d="M 304.71875,328.28125 C 302.35003,328.4293 297.61643,333.96514 293.375,339.96875 C 293.37161,339.9772 293.37839,339.99157 293.375,340 C 292.13418,343.08609 290.59816,345.34745 289.34375,347.90625 C 289.14809,348.31987 288.92557,348.71132 288.75,349.15625 C 288.21729,350.46285 287.78304,351.90663 287.53125,353.71875 C 287.52964,353.73034 287.53285,353.73838 287.53125,353.75 C 287.3175,355.30642 287.20259,356.80199 287.1875,358.25 C 287.17241,359.69801 287.25715,361.09847 287.4375,362.4375 C 288.1589,367.79361 290.39623,372.29006 293.78125,375.875 C 295.47375,377.66747 297.45137,379.22082 299.6875,380.5625 C 300.97085,381.20526 302.33749,381.67346 303.71875,382.0625 C 303.71997,382.01834 303.71743,381.98178 303.71875,381.9375 C 306.30694,382.41342 308.93745,382.7788 311.4375,382.90625 C 312.29959,382.9502 313.1134,382.9274 313.9375,382.90625 C 315.93594,382.74088 317.94516,382.42188 319.9375,381.9375 C 320.93656,381.65351 321.94048,381.35126 322.9375,381 C 323.07272,380.95671 323.2089,380.91956 323.34375,380.875 C 323.42678,380.84496 323.51079,380.81176 323.59375,380.78125 C 333.0645,377.29861 342.01955,370.76648 345.84375,361.34375 C 344.42766,359.19903 342.947,357.17025 341.375,355.3125 C 340.74457,363.00924 336.06995,372.12088 317.90625,376.3125 C 293.4327,381.96024 290.125,360.30778 290.125,353.71875 C 290.125,347.12971 307.45547,328.11021 304.71875,328.28125 z"
         id="path4271" />
      <path
         style="font-size:12px;font-style:normal;font-variant:normal;font-weight:100;font-stretch:ultra-condensed;letter-spacing:0pt;text-anchor:start;fill:url(#pattern1108) #000000;fill-opacity:1;fill-rule:nonzero;stroke:none;stroke-width:1;stroke-linecap:butt;stroke-linejoin:miter;marker:none;stroke-miterlimit:4;stroke-dashoffset:0;stroke-opacity:1;font-family:Bitstream Vera Sans"
         d="M 306.90625,324.1875 C 301.44347,328.5031 297.79339,332.59257 294.68256,337.33169 C 293.39992,339.2857 288.53619,346.40089 287.53125,353.71875 C 285.82133,366.17017 290.43776,375.92981 299.6875,380.5625 C 316.24431,388.8549 342.14762,375.1509 346.46875,362.1875 C 334.00536,342.55766 313.76112,335.71614 306.90625,324.1875 z"
         id="path4272"
         sodipodi:nodetypes="cscscc" />
      <path
         style="font-size:12px;font-style:normal;font-variant:normal;font-weight:100;font-stretch:ultra-condensed;letter-spacing:0pt;text-anchor:start;fill:#00ffda;fill-opacity:0.75;fill-rule:evenodd;stroke:none;stroke-width:1pt;stroke-linecap:butt;stroke-linejoin:miter;marker:none;stroke-miterlimit:4;stroke-dashoffset:0;stroke-opacity:1;font-family:Bitstream Vera Sans"
         d="M 408.5,332.28125 C 404.13781,341.94038 367.98077,349.10736 361.4375,364.375 C 365.97267,380.73306 390.37952,392.96312 404.59375,386.4375 C 423.1213,377.93167 421.53449,361.8587 420.28125,351.1875 C 419.51054,344.62501 414.88142,338.22558 408.5,332.28125 z"
         id="path4273"
         sodipodi:nodetypes="ccssc" />
      <path
         style="font-size:12px;font-style:normal;font-variant:normal;font-weight:100;font-stretch:ultra-condensed;letter-spacing:0pt;text-anchor:start;fill:#00cdaf;fill-opacity:0.75;fill-rule:evenodd;stroke:none;stroke-width:1pt;stroke-linecap:butt;stroke-linejoin:miter;marker:none;stroke-miterlimit:4;stroke-dashoffset:0;stroke-opacity:1;font-family:Bitstream Vera Sans"
         d="M 408.0625,332.9375 C 407.36479,334.08754 406.19037,335.20917 404.71875,336.3125 C 404.96398,336.57361 405.13616,336.83117 405.40625,337.09375 C 412.69697,344.18196 414.97581,349.85889 415.375,354.25 C 415.77418,358.64112 416.97275,371.8105 406.59375,377 C 396.21474,382.18951 387.02114,383.79635 375.84375,375.8125 C 370.55217,372.0328 365.69083,365.53604 362.84375,361.875 C 362.47774,362.41926 362.1941,362.9962 361.90625,363.5625 C 362.4905,365.07165 362.59841,365.6278 363.875,368.625 C 365.17461,371.67628 366.95856,374.23656 369.03125,376.46875 C 371.51214,378.93075 374.38712,381.0599 377.5,382.84375 C 383.07264,385.6835 389.45,387.0506 395.5625,387.25 C 395.44311,387.52553 395.33908,387.75494 395.21875,388.03125 C 398.55876,388.08574 401.77687,387.71057 404.5625,386.4375 C 404.8876,386.29471 405.10308,386.11856 405.40625,385.96875 C 407.01708,385.17895 408.44589,384.30612 409.75,383.40625 C 410.35304,382.98767 410.93114,382.56568 411.46875,382.125 C 411.8879,381.78702 412.20946,381.41178 412.59375,381.0625 C 422.11497,372.2868 420.46111,359.88922 420.25,351.0625 C 419.97048,348.82606 419.121,346.62404 418.03125,344.4375 C 418.00997,344.45697 417.99009,344.48061 417.96875,344.5 C 415.87965,340.76749 413.74545,339.3542 408.59375,333.5 C 408.39149,333.27016 408.25701,333.14986 408.0625,332.9375 z"
         id="path4274" />
      <path
         style="font-size:12px;font-style:normal;font-variant:normal;font-weight:100;font-stretch:ultra-condensed;letter-spacing:0pt;text-anchor:start;fill:url(#pattern2995) #000000;fill-opacity:1;fill-rule:nonzero;stroke:none;stroke-width:1;stroke-linecap:butt;stroke-linejoin:miter;marker:none;stroke-miterlimit:4;stroke-dashoffset:0;stroke-opacity:1;font-family:Bitstream Vera Sans"
         d="M 408.5,332.28125 C 404.13781,341.94038 367.98077,349.10736 361.4375,364.375 C 365.97267,380.73306 390.37952,392.96312 404.59375,386.4375 C 423.1213,377.93167 421.53449,361.8587 420.28125,351.1875 C 419.51054,344.62501 414.88142,338.22558 408.5,332.28125 z"
         id="path4275"
         sodipodi:nodetypes="ccssc" />
      <path
         style="font-size:12px;font-style:normal;font-variant:normal;font-weight:100;font-stretch:ultra-condensed;letter-spacing:0pt;text-anchor:start;fill:none;fill-opacity:1;fill-rule:nonzero;stroke:#e71414;stroke-width:1.75;stroke-linecap:butt;stroke-linejoin:miter;marker:none;stroke-miterlimit:4;stroke-dashoffset:0;stroke-opacity:1;font-family:Bitstream Vera Sans"
         d="M 345.85915,362.20182 C 352.40243,365.31767 356.76461,365.62925 361.74996,364.38291"
         id="path4276"
         sodipodi:nodetypes="cc"
         transform="translate(-9.59473e-5,0)" />
      <path
         style="font-size:12px;font-style:normal;font-variant:normal;font-weight:100;font-stretch:ultra-condensed;letter-spacing:0pt;text-anchor:start;fill:none;fill-opacity:1;fill-rule:nonzero;stroke:#e71414;stroke-width:2.5;stroke-linecap:butt;stroke-linejoin:miter;marker:none;stroke-miterlimit:4;stroke-dashoffset:0;stroke-opacity:1;font-family:Bitstream Vera Sans"
         d="M 307.35161,324.85321 C 318.36779,316.04026 331.14657,301.93955 333.34981,298.41437"
         id="path4277"
         sodipodi:nodetypes="cc"
         transform="translate(-9.59473e-5,0)" />
      <path
         style="font-size:12px;font-style:normal;font-variant:normal;font-weight:100;font-stretch:ultra-condensed;letter-spacing:0pt;text-anchor:start;fill:none;fill-opacity:1;fill-rule:nonzero;stroke:#e71414;stroke-width:2.5;stroke-linecap:butt;stroke-linejoin:miter;marker:none;stroke-miterlimit:4;stroke-dashoffset:0;stroke-opacity:1;font-family:Bitstream Vera Sans"
         d="M 407.81923,333.00519 C 399.88758,323.97192 397.68434,306.56634 396.58272,304.14278"
         id="path4278"
         sodipodi:nodetypes="cc"
         transform="translate(-9.59473e-5,0)" />
      <path
         style="font-size:12px;font-style:normal;font-variant:normal;font-weight:100;font-stretch:ultra-condensed;letter-spacing:0pt;text-anchor:start;fill:#e71414;fill-opacity:1;fill-rule:nonzero;stroke:none;stroke-width:1;stroke-linecap:butt;stroke-linejoin:miter;marker:none;stroke-miterlimit:4;stroke-dashoffset:0;stroke-opacity:1;font-family:Bitstream Vera Sans"
         d="M 408.34375,331.4375 L 408.03125,332.0625 C 407.0378,334.26229 404.07501,336.52927 400,338.78125 C 395.92499,341.03323 390.77051,343.32425 385.5625,345.78125 C 375.14649,350.69524 364.36058,356.27322 360.96875,364.1875 L 360.90625,364.34375 L 360.96875,364.5 C 363.28946,372.87064 370.61363,380.10158 379.15625,384.4375 C 387.69887,388.77342 397.35494,389.22503 404.66831,386.77677 C 396.44964,388.21864 387.97315,387.76847 379.625,383.53125 C 371.34194,379.32707 364.24178,372.34842 361.96875,364.4375 C 365.18621,357.14565 375.67054,351.56066 386,346.6875 C 391.19444,344.23691 396.33297,341.94182 400.46875,339.65625 C 404.28605,337.54668 407.22211,335.47049 408.59375,333.09375 C 414.68854,338.87276 419.62838,344.89323 420.358,351.10581 C 420.79056,344.32901 415.26789,337.89037 408.84375,331.90625 L 408.34375,331.4375 z"
         id="path4279"
         sodipodi:nodetypes="ccccccccccccccccc" />
      <path
         style="font-size:12px;font-style:normal;font-variant:normal;font-weight:100;font-stretch:ultra-condensed;letter-spacing:0pt;text-anchor:start;fill:#e71414;fill-opacity:1;fill-rule:nonzero;stroke:none;stroke-width:1;stroke-linecap:butt;stroke-linejoin:miter;marker:none;stroke-miterlimit:4;stroke-dashoffset:0;stroke-opacity:1;font-family:Bitstream Vera Sans"
         d="M 307.03125,323.4375 C 306.88542,323.55208 306.73958,323.66667 306.59375,323.78125 C 302.76042,328.38542 296.04781,332.23188 294.48759,337.44221 C 297.64044,332.56685 301.65845,329.09658 306.84375,324.9375 C 310.443,330.60296 317.03632,335.13044 324.28125,340.5625 C 331.68599,346.11438 339.71382,352.64473 345.875,362.25 C 343.69239,368.43264 336.35471,374.95322 327.46875,378.875 C 318.47678,382.84356 307.84115,384.62968 299.75471,380.57962 C 305.6705,385.11442 318.69583,383.86369 327.875,379.8125 C 337.05417,375.76131 344.69887,369.05965 346.9375,362.34375 C 346.96875,362.27083 347,362.19792 347.03125,362.125 C 346.98958,362.05208 346.94792,361.97917 346.90625,361.90625 C 340.62298,352.0101 332.36196,345.36353 324.875,339.75 C 317.38804,334.13647 310.68288,329.55331 307.34375,323.9375 C 307.23958,323.77083 307.13542,323.60417 307.03125,323.4375 z"
         id="path4280"
         sodipodi:nodetypes="ccccccccccccccc" />
    </g>
    <g
       id="g4281"
       transform="translate(-9.10579,116.728)">
      <path
         style="fill:#df1c1c;fill-opacity:1;fill-rule:evenodd;stroke:none;stroke-width:2.75;stroke-linecap:butt;stroke-linejoin:miter;stroke-miterlimit:4;stroke-opacity:1"
         d="M 430,467.21875 C 409.00867,475.52782 383.32596,481.1444 359.65625,483.28125 C 335.98654,485.4181 313.67085,484.0191 300.875,478.6875 L 301.0625,481.21875 C 306.81586,483.61599 314.15459,485.07065 322.25,485.96875 C 321.38275,485.2298 320.578,484.42591 319.6875,483.71875 C 337.13625,487.76936 384.48418,483.1067 400.375,476.875 C 399.13905,477.60989 397.90741,478.77711 396.65625,480.1875 C 408.70484,477.46441 420.44152,473.97302 431.03125,469.78125 L 430,467.21875 z"
         id="path4282" />
      <path
         style="font-size:12px;font-style:normal;font-variant:normal;font-weight:100;font-stretch:ultra-condensed;letter-spacing:0pt;text-anchor:start;fill:#00ffda;fill-opacity:0.75;fill-rule:evenodd;stroke:none;stroke-width:1pt;stroke-linecap:butt;stroke-linejoin:miter;marker:none;stroke-miterlimit:4;stroke-dashoffset:0;stroke-opacity:1;font-family:Bitstream Vera Sans"
         d="M 319.68602,483.71989 C 340.87379,500.54547 355.51827,527.03019 361.74997,531.70396 C 367.98166,536.37773 369.85117,533.57347 372.96702,528.58811 C 376.08287,523.60275 388.85785,483.71989 400.38649,476.86503 C 384.49566,483.09672 337.13477,487.7705 319.68602,483.71989 z"
         id="path4283"
         sodipodi:nodetypes="ccccc"
         transform="translate(-9.59473e-5,0)" />
      <path
         style="font-size:12px;font-style:normal;font-variant:normal;font-weight:100;font-stretch:ultra-condensed;letter-spacing:0pt;text-anchor:start;fill:#00cdaf;fill-opacity:0.75;fill-rule:evenodd;stroke:none;stroke-width:1pt;stroke-linecap:butt;stroke-linejoin:miter;marker:none;stroke-miterlimit:4;stroke-dashoffset:0;stroke-opacity:1;font-family:Bitstream Vera Sans"
         d="M 383.125,504.40625 C 382.22431,505.32659 381.14223,506.58034 379.4375,508.75 C 375.04638,514.33869 369.87295,517.51414 362.6875,518.3125 C 358.30217,518.79975 352.48808,516.39538 348.09375,514.65625 C 354.17024,522.76853 358.93485,529.60739 361.75,531.71875 C 367.98169,536.3925 369.8529,533.57911 372.96875,528.59375 C 374.47923,526.17697 378.31702,515.48685 383.125,504.40625 z"
         id="path4284" />
      <path
         style="font-size:12px;font-style:normal;font-variant:normal;font-weight:100;font-stretch:ultra-condensed;letter-spacing:0pt;text-anchor:start;fill:url(#pattern3625) #000000;fill-opacity:1;fill-rule:nonzero;stroke:none;stroke-width:1;stroke-linecap:butt;stroke-linejoin:miter;marker:none;stroke-miterlimit:4;stroke-dashoffset:0;stroke-opacity:1;font-family:Bitstream Vera Sans"
         d="M 319.68592,483.71989 C 340.87369,500.54547 355.51817,527.03019 361.74987,531.70396 C 367.98156,536.37773 369.85107,533.57347 372.96692,528.58811 C 376.08277,523.60275 388.85775,483.71989 400.38639,476.86503 C 384.49556,483.09672 337.13467,487.7705 319.68592,483.71989 z"
         id="path4285"
         sodipodi:nodetypes="ccccc" />
      <path
         style="font-size:12px;font-style:normal;font-variant:normal;font-weight:100;font-stretch:ultra-condensed;letter-spacing:0pt;text-anchor:start;fill:#e71414;fill-opacity:1;fill-rule:nonzero;stroke:none;stroke-width:1;stroke-linecap:butt;stroke-linejoin:miter;marker:none;stroke-miterlimit:4;stroke-dashoffset:0;stroke-opacity:1;font-family:Bitstream Vera Sans"
         d="M 400.21875,476.40625 C 400.19325,476.41625 400.15067,476.42751 400.125,476.4375 C 392.2709,479.49509 376.49131,482.22227 360.5625,483.65625 C 344.58163,485.09492 328.39855,485.21194 319.8125,483.21875 L 319.375,484.125 C 329.91277,492.49323 338.85874,503.26676 345.9375,512.5625 C 349.47688,517.21037 352.53852,521.49502 355.125,524.90625 C 357.71148,528.31748 360.07652,530.54263 361.74058,531.79067 C 361.74058,531.79067 358.51164,527.70745 355.9375,524.3125 C 353.36336,520.91755 350.26792,516.62948 346.71875,511.96875 C 339.91745,503.03737 331.35123,492.75816 321.28125,484.46875 C 330.39513,486.18748 345.4936,486.02126 360.65625,484.65625 C 375.23108,483.34416 389.32114,480.9495 397.875,478.15625 C 395.62688,480.21966 393.41439,483.26645 391.25,486.875 C 388.36414,491.6864 385.57931,497.48277 383.0625,503.21875 C 380.54569,508.95473 378.28438,514.64112 376.46875,519.1875 L 372.95163,528.84375 C 373.80801,527.47354 375.58997,524.11051 377.40625,519.5625 C 379.22253,515.01449 381.46125,509.33977 383.96875,503.625 C 386.47625,497.91023 389.2445,492.15661 392.09375,487.40625 C 394.91553,482.70169 397.85075,478.99365 400.5625,477.34375 C 400.5889,477.32769 400.62989,477.29692 400.65625,477.28125 L 400.21875,476.40625 z"
         id="path4286"
         sodipodi:nodetypes="ccccccccccccccccccccccc" />
    </g>
  </g>
</svg>
