<?xml version="1.0" encoding="UTF-8" standalone="no"?>
<!-- Created with Inkscape (http://www.inkscape.org/) -->
<svg
   xmlns:dc="http://purl.org/dc/elements/1.1/"
   xmlns:cc="http://creativecommons.org/ns#"
   xmlns:rdf="http://www.w3.org/1999/02/22-rdf-syntax-ns#"
   xmlns:svg="http://www.w3.org/2000/svg"
   xmlns="http://www.w3.org/2000/svg"
   xmlns:sodipodi="http://sodipodi.sourceforge.net/DTD/sodipodi-0.dtd"
   xmlns:inkscape="http://www.inkscape.org/namespaces/inkscape"
   width="116.77647"
   height="55.533669"
   id="svg2"
   sodipodi:version="0.32"
   inkscape:version="0.46"
   sodipodi:docbase="/home/nicu/Desktop/hats"
   sodipodi:docname="nicubunu_Tie_bow.svg"
   inkscape:export-filename="/home/nicu/Desktop/potato_guy.png"
   inkscape:export-xdpi="90.000000"
   inkscape:export-ydpi="90.000000"
   inkscape:output_extension="org.inkscape.output.svg.inkscape"
   version="1.0">
  <defs
     id="defs3" />
  <sodipodi:namedview
     id="base"
     pagecolor="#ffffff"
     bordercolor="#666666"
     borderopacity="1.0"
     inkscape:pageopacity="0.0"
     inkscape:pageshadow="2"
     inkscape:zoom="1"
     inkscape:cx="252.66113"
     inkscape:cy="75.159642"
     inkscape:document-units="px"
     inkscape:current-layer="layer1"
     inkscape:window-width="1152"
     inkscape:window-height="791"
     inkscape:window-x="0"
     inkscape:window-y="25"
     showguides="true"
     inkscape:guide-bbox="true"
     showgrid="false" />
  <g
     inkscape:label="Layer 1"
     inkscape:groupmode="layer"
     id="layer1"
     transform="translate(-5.2200001,-38.418959)">
    <g
       id="g14511"
       transform="matrix(2.4911,0,0,2.4911,-297.257,-1393.73)">
      <path
         sodipodi:nodetypes="cccccccccccccccccc"
         id="path14497"
         d="M 124.77459,575.27839 C 122.646,575.37815 122.3913,577.80585 122.61765,579.65147 C 122.54295,581.64554 123.60773,583.40286 123.43255,585.36914 C 123.14048,587.47118 121.75507,589.10038 122.24365,591.2912 C 122.96492,593.08054 124.88913,591.93424 126.3923,591.97419 C 130.40337,591.77503 133.90669,591.04994 137.86612,590.43798 C 139.60501,591.33144 140.16325,594.14691 142.56869,593.87659 C 145.22009,594.68999 147.08568,592.83189 148.96209,591.20416 C 153.67593,593.79143 159.19387,595.40623 164.53216,596.48304 C 166.42047,596.46955 166.23575,595.00476 166.28884,593.4744 C 166.27479,591.49677 166.31949,589.5033 166.78275,587.54517 C 167.18604,584.94949 168.37621,582.96012 167.93807,580.32327 C 167.27889,577.90333 164.24599,577.0683 162.10216,577.9486 C 157.92348,578.67304 153.88888,580.03922 149.94591,581.5736 C 150.02825,578.73555 146.98823,577.04994 144.45301,577.12266 C 142.91461,577.16284 141.10054,577.50274 140.33676,579.01789 C 139.82097,580.67062 138.18036,580.91264 137.10023,579.68507 C 133.19092,577.91876 129.13444,575.56005 124.77459,575.27839 z"
         style="fill:#54cb64;fill-opacity:1;fill-rule:evenodd;stroke:none;stroke-width:1px;stroke-linecap:butt;stroke-linejoin:miter;stroke-opacity:1" />
      <path
         id="path14499"
         d="M 137.76463,586.9689 C 137.76463,586.9689 138.85281,590.4511 137.65581,590.4511 C 136.4588,590.4511 130.90904,591.75693 130.03849,591.86575 C 129.16794,591.97457 123.07409,592.84512 122.42117,591.64811 C 121.76826,590.4511 124.37991,584.79252 127.64448,585.01016 C 130.90904,585.2278 137.11171,586.53363 137.76463,586.9689 z"
         style="fill:#000000;fill-opacity:0.08235288;fill-rule:evenodd;stroke:none;stroke-width:1px;stroke-linecap:butt;stroke-linejoin:miter;stroke-opacity:1" />
      <path
         sodipodi:nodetypes="cccccc"
         id="path14501"
         d="M 136.77238,588.34611 C 136.77238,588.34611 138.51347,590.52248 137.31647,590.52248 C 136.11946,590.52248 130.5697,591.82831 129.69915,591.93713 C 128.8286,592.04595 123.82294,592.69886 123.17002,591.50185 C 122.51711,590.30484 126.21695,585.95209 129.48152,586.16973 C 132.74608,586.38737 136.11946,587.91084 136.77238,588.34611 z"
         style="fill:#000000;fill-opacity:0.08235288;fill-rule:evenodd;stroke:none;stroke-width:1px;stroke-linecap:butt;stroke-linejoin:miter;stroke-opacity:1" />
      <path
         sodipodi:nodetypes="cccccc"
         id="path14503"
         d="M 141.89974,577.39284 C 141.89974,577.39284 141.24683,578.48103 140.4851,579.4604 C 139.72337,580.43977 138.96163,580.43977 138.96163,581.63678 C 138.96163,582.83379 138.09108,583.70434 138.52636,584.46607 C 142.55265,584.24843 145.81722,580.33095 146.68777,577.7193 C 146.25249,576.52229 142.77029,576.84875 141.89974,577.39284 z"
         style="fill:#000000;fill-opacity:0.08235288;fill-rule:evenodd;stroke:none;stroke-width:1px;stroke-linecap:butt;stroke-linejoin:miter;stroke-opacity:1" />
      <path
         sodipodi:nodetypes="cccccc"
         id="path14505"
         d="M 141.90627,577.148 C 141.90627,577.148 141.25336,578.23619 140.49163,579.21556 C 139.7299,580.19493 138.96816,580.19493 138.96816,581.39194 C 138.96816,582.58895 138.20643,582.58895 138.64171,583.35068 C 142.668,583.13304 144.30029,579.86847 145.17084,577.25682 C 144.73556,576.05981 142.77682,576.60391 141.90627,577.148 z"
         style="fill:#000000;fill-opacity:0.08235288;fill-rule:evenodd;stroke:none;stroke-width:1px;stroke-linecap:butt;stroke-linejoin:miter;stroke-opacity:1" />
      <path
         sodipodi:nodetypes="ccccc"
         id="path14507"
         d="M 149.1906,587.73063 C 149.1906,587.73063 148.32005,590.4511 148.75533,590.88638 C 149.1906,591.32165 157.89611,596.10968 160.07248,595.78322 C 162.24886,595.45677 153.86981,586.53363 152.56399,585.98953 C 151.25816,585.44544 149.1906,586.75126 149.1906,587.73063 z"
         style="fill:#000000;fill-opacity:0.08235288;fill-rule:evenodd;stroke:none;stroke-width:1px;stroke-linecap:butt;stroke-linejoin:miter;stroke-opacity:1" />
      <path
         sodipodi:nodetypes="ccccc"
         id="path14509"
         d="M 149.18091,587.67785 C 149.18091,587.67785 148.31036,590.39832 148.74564,590.8336 C 149.18091,591.26887 156.0365,594.75107 158.64815,595.29516 C 160.82453,594.96871 153.09839,587.46022 151.79257,586.91612 C 150.48674,586.37203 149.18091,586.69848 149.18091,587.67785 z"
         style="fill:#000000;fill-opacity:0.08235288;fill-rule:evenodd;stroke:none;stroke-width:1px;stroke-linecap:butt;stroke-linejoin:miter;stroke-opacity:1" />
      <path
         sodipodi:nodetypes="cccccccccccccccccccccccccccccccccccccccccccccccccc"
         id="path14453"
         d="M 125.125,574.90625 C 122.99641,575.00601 122.0888,577.32489 122.31515,579.17051 C 122.24045,581.16458 123.30523,583.03072 123.13005,584.997 C 122.83798,587.09904 121.01729,588.94587 121.50587,591.13669 C 122.22714,592.92603 124.36899,592.32383 125.87216,592.36378 C 129.88323,592.16462 133.82182,591.33071 137.78125,590.71875 C 139.52014,591.61221 139.96956,594.64532 142.375,594.375 C 145.0264,595.1884 147.43609,593.22148 149.3125,591.59375 C 153.91752,594.61629 159.32664,596.12227 164.66493,597.19908 C 166.55324,597.18559 166.47734,594.30616 166.53043,592.7758 C 166.51638,590.79817 166.88754,589.45761 167.3508,587.49948 C 167.75409,584.9038 168.6178,582.26152 168.17966,579.62467 C 167.52048,577.20473 164.48758,576.3697 162.34375,577.25 C 158.16507,577.97444 154.13047,579.34062 150.1875,580.875 C 150.26984,578.03695 147.22982,576.35134 144.6946,576.42406 C 143.1562,576.46424 141.34213,576.80414 140.57835,578.31929 C 140.06256,579.97202 138.42195,580.21404 137.34182,578.98647 C 133.43251,577.22016 129.48485,575.18791 125.125,574.90625 z M 125.04743,575.47097 C 129.62067,575.85087 133.83077,578.51951 137.9375,580.375 C 139.67052,581.02298 137.04921,583.29736 138.93739,585.12571 C 138.55192,584.04709 138.70804,581.22101 139.703,580.61447 C 140.92233,579.69356 141.00098,577.90853 143.0792,577.6677 C 145.33104,576.91923 148.33406,577.79825 149.21875,580.15625 C 149.66775,581.75565 150.8405,582.83249 149.93859,585.47878 C 151.59334,584.21864 149.35382,581.38181 151.78854,581.36799 C 155.95846,579.83333 160.01311,578.32066 164.50201,578.11694 C 166.60534,578.0752 168.10469,580.23794 167.81984,581.96255 C 167.53982,584.86008 165.88106,587.86982 166.12051,590.81971 C 165.89929,592.44471 166.70528,594.73701 165.26198,595.85764 C 163.12184,596.66638 161.31448,595.23953 159.21764,594.99889 C 155.96259,593.92004 151.93947,593.09478 149.18972,590.96653 C 149.14205,589.64398 150.89855,588.78502 149.11742,587.26831 C 149.50074,588.84808 148.70855,589.99035 147.6875,591.625 C 145.71142,594.22597 140.10891,594.2685 138.92535,590.9401 C 138.49479,590.25842 137.88979,588.33033 138.96466,587.08451 C 138.21657,586.44927 137.00421,586.26599 135.41176,585.70918 C 132.32379,584.45808 128.86506,584.15235 125.59375,584.75 C 128.27297,585.12181 134.75493,586.02596 137.31028,587.59375 C 137.79864,588.50474 138.35849,590.20795 136.585,589.9458 C 133.72752,590.50389 132.12942,591.23254 129.24669,591.64991 C 127.53252,591.63867 123.73272,591.94068 122.50843,590.88299 C 122.23855,588.48553 124.14198,586.98878 123.71592,584.55456 C 123.77349,582.0789 122.3758,579.0166 123.81186,576.67074 C 124.0697,576.14464 124.47421,575.45543 125.04743,575.47097 z M 154.0751,585.78282 C 153.13065,585.78907 152.34503,585.67507 151.40742,585.88342 C 154.39085,587.22911 158.0475,586.19087 160.8701,585.01807 C 162.46752,584.23987 163.40324,582.4603 164.71986,581.26841 C 161.67182,583.52124 157.90253,585.68616 154.0751,585.78282 z"
         style="fill:#000000;fill-opacity:1;fill-rule:evenodd;stroke:none;stroke-width:1px;stroke-linecap:butt;stroke-linejoin:miter;stroke-opacity:1" />
    </g>
  </g>
  <metadata
     id="metadata31">
    <rdf:RDF>
      <cc:Work
         rdf:about="">
        <dc:title>tie - clothing</dc:title>
        <dc:description />
        <dc:subject>
          <rdf:Bag>
            <rdf:li>tie</rdf:li>
          </rdf:Bag>
        </dc:subject>
        <dc:publisher>
          <cc:Agent>
            <dc:title />
          </cc:Agent>
        </dc:publisher>
        <dc:creator>
          <cc:Agent>
            <dc:title>Nicu Buculei</dc:title>
          </cc:Agent>
        </dc:creator>
        <dc:rights>
          <cc:Agent>
            <dc:title>Nicu Buculei</dc:title>
          </cc:Agent>
        </dc:rights>
        <dc:date />
        <dc:format>image/svg+xml</dc:format>
        <dc:type
           rdf:resource="http://purl.org/dc/dcmitype/StillImage" />
        <cc:license
           rdf:resource="http://web.resource.org/cc/PublicDomain" />
        <dc:language>en</dc:language>
      </cc:Work>
      <cc:License
         rdf:about="http://web.resource.org/cc/PublicDomain">
        <cc:permits
           rdf:resource="http://web.resource.org/cc/Reproduction" />
        <cc:permits
           rdf:resource="http://web.resource.org/cc/Distribution" />
        <cc:permits
           rdf:resource="http://web.resource.org/cc/DerivativeWorks" />
      </cc:License>
    </rdf:RDF>
  </metadata>
</svg>
