<?xml version="1.0" encoding="UTF-8" standalone="no"?>
<!-- Generator: Adobe Illustrator 12.0.1, SVG Export Plug-In . SVG Version: 6.00 Build 51448)  -->
<svg
   xmlns:dc="http://purl.org/dc/elements/1.1/"
   xmlns:cc="http://creativecommons.org/ns#"
   xmlns:rdf="http://www.w3.org/1999/02/22-rdf-syntax-ns#"
   xmlns:svg="http://www.w3.org/2000/svg"
   xmlns="http://www.w3.org/2000/svg"
   xmlns:sodipodi="http://sodipodi.sourceforge.net/DTD/sodipodi-0.dtd"
   xmlns:inkscape="http://www.inkscape.org/namespaces/inkscape"
   version="1.0"
   id="Layer_1"
   width="291.20432"
   height="149.40428"
   viewBox="0 0 291.204 149.405"
   overflow="visible"
   enable-background="new 0 0 291.204 149.405"
   xml:space="preserve"
   sodipodi:version="0.32"
   inkscape:version="0.46"
   sodipodi:docname="johnny_automatic_coat_hanger.svg"
   inkscape:output_extension="org.inkscape.output.svg.inkscape"
   style="overflow:visible"><metadata
   id="metadata126"><rdf:RDF><cc:Work
       rdf:about=""><dc:format>image/svg+xml</dc:format><dc:type
         rdf:resource="http://purl.org/dc/dcmitype/StillImage" /></cc:Work></rdf:RDF></metadata><defs
   id="defs124" /><sodipodi:namedview
   inkscape:window-height="825"
   inkscape:window-width="1440"
   inkscape:pageshadow="2"
   inkscape:pageopacity="0.0"
   guidetolerance="10.0"
   gridtolerance="10.0"
   objecttolerance="10.0"
   borderopacity="1.0"
   bordercolor="#666666"
   pagecolor="#ffffff"
   id="base"
   showgrid="false"
   inkscape:zoom="1.9127484"
   inkscape:cx="145.60201"
   inkscape:cy="74.702499"
   inkscape:window-x="0"
   inkscape:window-y="25"
   inkscape:current-layer="Layer_1" />
<polygon
   points="271.543,140.313 262.116,135.813 28.545,134.528 23.832,137.956 113.188,139.885 260.401,139.671 271.543,140.313 "
   id="polygon3"
   style="fill:#be854c"
   transform="translate(1.2919014e-4,4.3951528e-4)" />
<g
   id="g5"
   transform="translate(1.2919014e-4,4.3951528e-4)">
	<path
   clip-rule="evenodd"
   d="M 134.989,8.716 C 136.922,8.905 134.63,12.274 134.509,13.516 C 137.157,23.811 146.559,29.428 145.549,41.836 C 143.185,39.727 144.598,38.163 144.109,35.596 C 142.274,25.962 131.131,21.323 134.989,8.716 z"
   id="path7"
   style="fill:#a39161;fill-rule:evenodd" />
	<path
   clip-rule="evenodd"
   d="M 153.229,54.315 C 153.363,55.301 154.511,55.273 155.149,55.755 C 153.856,56.703 151.677,54.445 150.349,53.835 C 150.786,52.531 152.032,54.324 152.749,54.314 C 152.891,53.052 150.887,53.937 151.309,52.394 C 154.024,53.2 155.696,55.048 158.03,56.234 C 156.605,57.316 154.95,54.534 153.229,54.315 z"
   id="path9"
   style="fill-rule:evenodd" />
	<path
   clip-rule="evenodd"
   d="M 131.629,64.875 C 132.134,66.661 130.01,65.816 129.709,66.795 C 128.328,65.993 130.601,64.853 131.629,64.875 z"
   id="path11"
   style="fill-rule:evenodd" />
	<path
   clip-rule="evenodd"
   d="M 123.949,65.355 C 123.515,66.681 122.119,67.045 120.589,67.275 C 121.188,66.115 122.557,65.723 123.949,65.355 z"
   id="path13"
   style="fill-rule:evenodd" />
	<path
   clip-rule="evenodd"
   d="M 128.75,66.796 C 126.62,68.666 123.671,69.717 121.07,71.116 C 122.441,68.488 125.699,67.745 128.75,66.796 z"
   id="path15"
   style="fill-rule:evenodd" />
	<path
   clip-rule="evenodd"
   d="M 130.189,68.236 C 129.368,69.015 128.442,69.689 126.829,69.676 C 127.111,68.35 129.485,67.672 130.189,68.236 z"
   id="path17"
   style="fill-rule:evenodd" />
	<path
   clip-rule="evenodd"
   d="M 134.989,70.636 C 134.36,72.407 132.47,72.917 130.669,73.516 C 132.043,72.49 132.716,70.763 134.989,70.636 z"
   id="path19"
   style="fill-rule:evenodd" />
	<path
   clip-rule="evenodd"
   d="M 111.949,80.235 C 114.159,81.157 110.727,82.625 109.069,82.635 C 109.379,81.186 111.25,81.296 111.949,80.235 z"
   id="path21"
   style="fill-rule:evenodd" />
	<path
   clip-rule="evenodd"
   d="M 181.549,82.636 C 183.435,82.83 183.599,84.746 185.389,85.036 C 184.119,86.119 181.939,84.027 181.549,82.636 z"
   id="path23"
   style="fill-rule:evenodd" />
	<path
   clip-rule="evenodd"
   d="M 185.87,85.516 C 189.585,88.521 195.215,89.612 199.309,92.236 C 195.521,91.221 188.471,89.316 185.87,85.516 z"
   id="path25"
   style="fill-rule:evenodd" />
	<path
   clip-rule="evenodd"
   d="M 102.829,86.956 C 94.479,90.926 86.681,95.448 78.349,99.435 C 84.653,93.418 94.887,91.333 101.869,85.996 C 102.686,85.819 102.775,86.37 102.829,86.956 z"
   id="path27"
   style="fill-rule:evenodd" />
	<path
   clip-rule="evenodd"
   d="M 58.669,107.596 C 51.728,110.895 45.921,115.328 38.509,118.156 C 41.091,115.846 45.028,113.968 48.589,111.917 C 51.907,110.004 55.866,107.089 58.669,107.596 z"
   id="path29"
   style="fill-rule:evenodd" />
	<path
   clip-rule="evenodd"
   d="M 61.069,108.076 C 59.096,110.169 54.923,112.399 52.429,112.395 C 55.172,110.818 57.677,109.004 61.069,108.076 z"
   id="path31"
   style="fill-rule:evenodd" />
	<path
   clip-rule="evenodd"
   d="M 228.11,110.476 C 233.729,112.698 241.186,117.239 246.349,121.516 C 240.244,117.861 233.827,114.519 228.11,110.476 z"
   id="path33"
   style="fill-rule:evenodd" />
	<path
   clip-rule="evenodd"
   d="M 47.149,111.436 C 40.817,114.065 36.081,118.289 29.869,121.037 C 34.144,116.351 41.257,114.504 46.189,110.476 C 47.006,110.299 47.095,110.85 47.149,111.436 z"
   id="path35"
   style="fill-rule:evenodd" />
	<path
   clip-rule="evenodd"
   d="M 33.709,116.716 C 28.238,118.445 25.531,122.938 19.789,124.396 C 23.523,121.803 30.393,115.935 33.709,116.716 z"
   id="path37"
   style="fill-rule:evenodd" />
	<path
   clip-rule="evenodd"
   d="M 241.07,115.756 C 245.693,118.492 250.367,121.178 254.509,124.396 C 249.456,122.09 244.697,119.488 241.07,115.756 z"
   id="path39"
   style="fill-rule:evenodd" />
	<path
   clip-rule="evenodd"
   d="M 33.229,123.436 C 29.325,127.051 23.255,128.502 19.309,132.077 C 20.82,127.983 28.46,125.868 33.229,123.436 z"
   id="path41"
   style="fill-rule:evenodd" />
	<path
   clip-rule="evenodd"
   d="M 268.91,127.275 C 269.203,125.556 271.979,126.637 271.79,128.235 C 270.129,128.616 269.763,127.702 268.91,127.275 z"
   id="path43"
   style="fill-rule:evenodd" />
	<path
   clip-rule="evenodd"
   d="M 17.869,133.996 C 15.854,136.621 12.043,137.45 9.229,139.275 C 10.881,136.287 14.496,135.263 17.869,133.996 z"
   id="path45"
   style="fill-rule:evenodd" />
	<path
   clip-rule="evenodd"
   d="M 269.389,133.996 C 271.394,135.19 273.488,136.298 275.629,137.355 C 274.533,138.742 270.255,135.94 269.389,133.996 z"
   id="path47"
   style="fill-rule:evenodd" />
	<path
   clip-rule="evenodd"
   d="M 273.709,134.476 C 276.385,135.8 278.791,137.395 281.389,138.796 C 278.758,139.339 275.271,136.601 273.709,134.476 z"
   id="path49"
   style="fill-rule:evenodd" />
	<path
   clip-rule="evenodd"
   d="M 10.669,134.956 C 10.504,136.23 9.409,136.576 8.269,136.876 C 7.804,134.971 9.659,135.386 10.669,134.956 z"
   id="path51"
   style="fill-rule:evenodd" />
	<path
   clip-rule="evenodd"
   d="M 38.029,138.796 C 34.963,138.238 27.803,139.543 26.029,138.316 C 28.274,138.57 35.48,136.467 38.029,138.796 z"
   id="path53"
   style="fill:#be854c;fill-rule:evenodd" />
	<path
   clip-rule="evenodd"
   d="M 38.509,137.836 C 44.884,138.156 47.714,138.05 52.909,138.315 C 49.358,138.821 41.27,139.72 38.509,137.836 z"
   id="path55"
   style="fill:#be854c;fill-rule:evenodd" />
	<path
   clip-rule="evenodd"
   d="M 135.949,7.756 C 137.561,4.525 141.239,2.508 143.149,1.996 C 144.148,1.728 146.818,1.77 146.989,1.996 C 147.463,2.623 144.544,2.281 144.109,2.476 C 142.368,3.257 137.485,5.443 135.949,7.756 z"
   id="path57"
   style="fill:#a39161;fill-rule:evenodd" />
	<path
   clip-rule="evenodd"
   d="M 147.469,2.476 C 152.696,1.414 156.28,6.143 158.03,10.156 C 155.314,6.791 153.042,2.982 147.469,2.476 z"
   id="path59"
   style="fill:#a39161;fill-rule:evenodd" />
	<path
   clip-rule="evenodd"
   d="M 89.869,91.275 C 101.907,84.596 114.766,74.321 122.989,60.075 C 125.181,56.278 128.379,48.414 132.109,48.075 C 137.566,47.579 140.092,54.076 145.549,54.795 C 144.985,52.799 142.477,52.747 141.229,51.435 C 144.039,51.193 147.18,54.759 150.349,55.755 C 147.805,52.38 143.299,50.964 139.309,49.035 C 138.978,50.326 140.302,49.963 140.749,50.475 C 139.143,51.264 137.155,48.322 134.989,48.075 C 142.986,45.672 153.97,46.214 160.429,49.515 C 164.381,57.77 168.076,65.22 173.389,71.595 C 195.308,97.898 240.203,101.008 267.469,121.995 C 268.269,121.995 269.07,121.995 269.869,121.995 C 275.53,127.373 282.596,131.348 285.709,139.274 C 283.641,138.943 282.761,137.422 280.909,136.875 C 283.086,140.184 289.342,141.276 287.629,146.955 C 248.395,124.908 209.574,102.449 170.509,80.234 C 169.389,80.234 168.269,80.234 167.149,80.234 C 160.493,75.371 152.514,71.829 145.069,67.755 C 137.02,71.706 129.637,76.323 122.029,80.715 C 110.276,83.499 99.061,91.696 88.909,97.515 C 60.291,113.915 31.046,129.278 2.509,145.036 C 7.027,124.022 30.396,115.01 49.069,107.115 C 64.276,100.687 79.781,95.088 92.749,88.395 C 93.833,89.512 89.891,89.674 89.869,91.275 z M 158.03,56.236 C 155.696,55.049 154.024,53.201 151.309,52.396 C 150.887,53.938 152.891,53.054 152.749,54.316 C 152.031,54.325 150.785,52.533 150.349,53.837 C 151.677,54.447 153.856,56.705 155.149,55.757 C 154.511,55.275 153.363,55.303 153.229,54.317 C 154.95,54.534 156.605,57.316 158.03,56.236 z M 162.349,57.676 C 160.509,56.316 158.725,54.9 156.589,53.836 C 157.597,55.717 160.819,57.913 162.349,57.676 z M 132.589,59.596 C 132.594,58.962 133.43,59.158 133.549,58.636 C 132.595,58.63 132.939,57.326 131.629,57.676 C 131.471,59.04 130.699,58.461 129.229,57.676 C 129.223,58.63 127.919,58.286 128.269,59.596 C 131.351,60.245 133.451,63.721 136.909,62.476 C 136.68,64.001 141.949,65.552 141.709,63.916 C 143.148,64.744 145.938,67.615 146.989,65.836 C 150.011,67.298 153.278,71.061 156.589,70.636 C 149.495,67.649 143.404,61.102 136.429,59.596 C 139.163,61.666 144.748,63.432 145.549,65.836 C 142.252,63.849 137.953,60.316 134.509,60.076 C 135.03,60.191 135.661,60.867 134.989,61.036 C 134.833,59.912 132.896,60.569 132.589,59.596 z M 170.509,69.196 C 166.4,67.705 163.245,65.259 159.469,63.436 C 161.571,66.617 167.24,68.78 170.509,69.196 z M 129.709,66.796 C 130.01,65.817 132.134,66.661 131.629,64.876 C 130.601,64.853 128.328,65.993 129.709,66.796 z M 169.069,66.796 C 167.866,66.531 165.908,64.554 165.229,65.356 C 166.281,65.771 168.07,67.918 169.069,66.796 z M 120.589,67.276 C 122.119,67.046 123.515,66.682 123.949,65.356 C 122.557,65.723 121.188,66.115 120.589,67.276 z M 121.069,71.116 C 123.67,69.717 126.619,68.666 128.749,66.796 C 125.699,67.745 122.441,68.488 121.069,71.116 z M 169.549,72.076 C 166.959,70.505 164.662,68.642 161.869,67.276 C 163.716,69.275 167.159,72.218 169.549,72.076 z M 126.829,69.676 C 128.442,69.689 129.368,69.015 130.189,68.236 C 129.485,67.672 127.111,68.35 126.829,69.676 z M 130.669,73.516 C 132.47,72.917 134.359,72.407 134.989,70.636 C 132.716,70.763 132.043,72.49 130.669,73.516 z M 124.909,73.996 C 126.706,73.713 127.703,72.631 128.749,71.596 C 127.036,71.963 125.827,72.833 124.909,73.996 z M 172.91,79.275 C 170.376,75.889 165.583,74.762 162.349,72.075 C 164.915,75.431 169.12,77.146 172.91,79.275 z M 109.069,82.636 C 110.727,82.625 114.159,81.157 111.949,80.236 C 111.25,81.296 109.379,81.186 109.069,82.636 z M 185.389,85.036 C 183.599,84.746 183.435,82.83 181.549,82.636 C 181.939,84.027 184.119,86.119 185.389,85.036 z M 199.309,92.235 C 195.214,89.611 189.584,88.52 185.87,85.515 C 188.471,89.316 195.521,91.221 199.309,92.235 z M 101.869,85.996 C 94.887,91.334 84.653,93.419 78.349,99.435 C 86.681,95.448 94.479,90.925 102.829,86.956 C 102.775,86.37 102.686,85.819 101.869,85.996 z M 62.509,110.476 C 69.878,106.645 77.467,103.035 84.109,98.476 C 76.586,102.152 68.669,105.436 62.509,110.476 z M 227.629,109.996 C 225.583,107.717 220.746,105.685 218.509,105.195 C 221.173,107.172 224.345,108.641 227.629,109.996 z M 48.589,111.916 C 45.028,113.968 41.091,115.846 38.509,118.155 C 45.922,115.328 51.728,110.894 58.669,107.595 C 55.866,107.089 51.907,110.004 48.589,111.916 z M 52.429,112.396 C 54.923,112.4 59.096,110.169 61.069,108.077 C 57.677,109.004 55.172,110.818 52.429,112.396 z M 246.349,121.516 C 241.186,117.239 233.729,112.698 228.11,110.476 C 233.827,114.519 240.244,117.861 246.349,121.516 z M 46.189,110.476 C 41.257,114.503 34.144,116.351 29.869,121.037 C 36.081,118.289 40.817,114.065 47.149,111.436 C 47.095,110.85 47.006,110.299 46.189,110.476 z M 19.789,124.396 C 25.531,122.938 28.238,118.445 33.709,116.716 C 30.393,115.935 23.523,121.803 19.789,124.396 z M 254.509,124.396 C 250.366,121.178 245.693,118.493 241.07,115.756 C 244.697,119.488 249.456,122.09 254.509,124.396 z M 248.269,118.636 C 249.582,121.09 253.222,121.782 255.95,123.436 C 258.37,124.905 260.646,128.423 262.67,127.276 C 260.934,126.453 259.632,125.194 258.35,123.917 C 261.493,125.618 267.379,129.55 269.871,128.717 C 268.74,127.832 267.318,127.24 267.471,126.317 C 260.975,124.703 254.589,121.665 248.269,118.636 z M 271.79,128.235 C 271.979,126.637 269.203,125.556 268.91,127.275 C 269.763,127.702 270.129,128.616 271.79,128.235 z M 19.309,132.076 C 23.255,128.502 29.325,127.051 33.229,123.435 C 28.46,125.868 20.82,127.983 19.309,132.076 z M 9.229,139.275 C 12.043,137.45 15.854,136.621 17.869,133.996 C 14.496,135.263 10.881,136.287 9.229,139.275 z M 275.629,137.355 C 273.487,136.297 271.394,135.19 269.389,133.996 C 270.255,135.94 274.533,138.742 275.629,137.355 z M 281.389,138.796 C 278.791,137.395 276.385,135.8 273.709,134.476 C 275.271,136.601 278.758,139.339 281.389,138.796 z M 8.269,136.876 C 9.409,136.576 10.504,136.23 10.669,134.956 C 9.659,135.386 7.804,134.971 8.269,136.876 z"
   id="path61"
   style="fill:#be854c;fill-rule:evenodd" />
	<path
   clip-rule="evenodd"
   d="M 156.589,53.836 C 158.725,54.899 160.509,56.315 162.349,57.676 C 160.819,57.913 157.597,55.717 156.589,53.836 z"
   id="path63"
   style="fill-rule:evenodd" />
	<path
   clip-rule="evenodd"
   d="M 121.069,56.716 C 122.604,58.736 119.77,60.874 118.669,62.956 C 120.84,62.568 121.121,60.288 122.029,58.636 C 113.175,79.921 91.811,88.34 68.749,97.996 C 58.158,102.431 47.3,107.189 36.109,112.395 C 23.246,118.379 8.692,124.442 3.469,137.355 C 3.221,130.41 8.799,124.786 13.549,121.515 C 46.581,98.774 101.237,93.549 121.069,56.716 z"
   id="path65"
   style="fill:#be854c;fill-rule:evenodd" />
	<path
   clip-rule="evenodd"
   d="M 134.989,61.036 C 135.661,60.867 135.031,60.191 134.509,60.076 C 137.953,60.316 142.252,63.849 145.549,65.836 C 144.748,63.432 139.163,61.666 136.429,59.596 C 143.405,61.102 149.495,67.649 156.589,70.636 C 153.277,71.061 150.011,67.299 146.989,65.836 C 145.939,67.614 143.148,64.743 141.709,63.916 C 141.948,65.552 136.68,64.001 136.909,62.476 C 133.451,63.722 131.351,60.245 128.269,59.596 C 127.919,58.286 129.223,58.63 129.229,57.676 C 130.699,58.461 131.471,59.04 131.629,57.676 C 132.939,57.326 132.595,58.63 133.549,58.636 C 133.43,59.157 132.594,58.962 132.589,59.596 C 132.896,60.569 134.833,59.912 134.989,61.036 z"
   id="path67"
   style="fill-rule:evenodd" />
	<path
   clip-rule="evenodd"
   d="M 159.469,63.436 C 163.245,65.26 166.4,67.706 170.509,69.196 C 167.24,68.78 161.571,66.617 159.469,63.436 z"
   id="path69"
   style="fill-rule:evenodd" />
	<path
   clip-rule="evenodd"
   d="M 165.229,65.355 C 165.908,64.553 167.866,66.531 169.069,66.795 C 168.07,67.918 166.281,65.771 165.229,65.355 z"
   id="path71"
   style="fill-rule:evenodd" />
	<path
   clip-rule="evenodd"
   d="M 161.87,67.276 C 164.663,68.642 166.96,70.505 169.55,72.076 C 167.159,72.218 163.716,69.275 161.87,67.276 z"
   id="path73"
   style="fill-rule:evenodd" />
	<path
   clip-rule="evenodd"
   d="M 128.75,71.596 C 127.704,72.631 126.707,73.713 124.91,73.996 C 125.827,72.833 127.036,71.963 128.75,71.596 z"
   id="path75"
   style="fill-rule:evenodd" />
	<path
   clip-rule="evenodd"
   d="M 162.349,72.076 C 165.582,74.763 170.375,75.89 172.91,79.276 C 169.12,77.146 164.915,75.431 162.349,72.076 z"
   id="path77"
   style="fill-rule:evenodd" />
	<path
   clip-rule="evenodd"
   d="M 118.669,82.155 C 114.946,84.993 110.545,87.152 106.189,89.355 C 109.899,86.506 114.229,84.275 118.669,82.155 z"
   id="path79"
   style="fill:#be854c;fill-rule:evenodd" />
	<path
   clip-rule="evenodd"
   d="M 105.229,89.836 C 103.604,91.131 96.374,95.031 92.269,97.036 C 96.243,94.29 100.456,91.782 105.229,89.836 z"
   id="path81"
   style="fill:#be854c;fill-rule:evenodd" />
	<path
   clip-rule="evenodd"
   d="M 91.789,97.036 C 65.199,112.685 38.072,127.799 10.669,142.636 C 10.398,143.49 9.335,142.705 10.189,142.636 C 37.465,127.512 64.067,111.713 91.789,97.036 z"
   id="path83"
   style="fill:#be854c;fill-rule:evenodd" />
	<path
   clip-rule="evenodd"
   d="M 84.109,98.476 C 77.467,103.035 69.878,106.645 62.509,110.476 C 68.669,105.436 76.586,102.152 84.109,98.476 z"
   id="path85"
   style="fill-rule:evenodd" />
	<path
   clip-rule="evenodd"
   d="M 218.509,105.195 C 220.746,105.685 225.583,107.716 227.629,109.996 C 224.345,108.641 221.173,107.172 218.509,105.195 z"
   id="path87"
   style="fill-rule:evenodd" />
	<path
   clip-rule="evenodd"
   d="M 267.469,126.315 C 267.317,127.239 268.739,127.831 269.869,128.715 C 267.378,129.548 261.491,125.616 258.348,123.915 C 259.63,125.192 260.932,126.451 262.668,127.274 C 260.645,128.421 258.368,124.903 255.948,123.434 C 253.22,121.78 249.581,121.088 248.267,118.634 C 254.589,121.665 260.975,124.703 267.469,126.315 z"
   id="path89"
   style="fill-rule:evenodd" />
	<path
   clip-rule="evenodd"
   d="M 161.87,45.196 C 167.686,56.51 172.572,66.257 181.55,74.476 C 195.722,87.451 220.182,95.608 240.111,104.236 C 249.299,108.215 255.85,111.757 265.071,115.276 C 273.235,121.511 283.487,125.66 286.671,136.877 C 265.815,106.209 209.714,102.654 181.551,78.316 C 172.348,70.363 166.823,60.773 160.911,48.556 C 152.922,45.809 140.179,43.959 131.631,47.116 C 126.367,49.06 126.361,54.163 122.991,57.676 C 121.047,56.953 124.404,53.807 124.911,52.396 C 123.42,39.267 150.476,42.959 161.87,45.196 z"
   id="path91"
   style="fill:#be854c;fill-rule:evenodd" />
</g>
<g
   id="g93"
   transform="translate(1.2919014e-4,4.3951528e-4)">
	<path
   d="M 122.989,57.676 C 126.359,54.163 126.365,49.06 131.629,47.116 C 140.177,43.959 152.92,45.809 160.909,48.556 C 166.821,60.773 172.346,70.363 181.549,78.316 C 209.712,102.654 265.813,106.209 286.669,136.877 C 283.485,125.66 273.233,121.512 265.069,115.276 C 255.848,111.756 249.298,108.214 240.109,104.236 C 220.18,95.608 195.72,87.451 181.548,74.476 C 172.57,66.257 167.685,56.51 161.868,45.196 C 150.474,42.96 123.419,39.267 124.908,52.396 C 124.402,53.807 121.045,56.953 122.989,57.676 z"
   id="path95"
   style="fill:none" />
	<path
   d="M 160.357,134.894 L 175.853,135.019 C 202.526,134.891 234.454,134.105 259.79,134.957 C 230.761,116.813 198.933,99.839 169.069,83.116 C 164.944,80.806 159.976,78.435 157.069,74.476 C 152.974,76.441 149.675,69.427 144.11,69.676 C 106.657,91.584 67.61,111.896 30.35,133.996 C 79.48,134.28 123.794,133.935 160.357,134.894 z"
   id="path97"
   style="fill:none" />
	<path
   d="M 36.109,112.396 C 47.3,107.19 58.157,102.431 68.749,97.997 C 91.811,88.341 113.175,79.922 122.029,58.637 C 121.121,60.288 120.841,62.569 118.669,62.957 C 119.77,60.875 122.604,58.737 121.069,56.717 C 101.236,93.55 46.58,98.776 13.549,121.517 C 8.799,124.788 3.221,130.412 3.469,137.357 C 8.692,124.442 23.247,118.38 36.109,112.396 z"
   id="path99"
   style="fill:none" />
	<path
   d="M 10.189,142.636 C 9.335,142.705 10.397,143.49 10.669,142.636 C 38.072,127.799 65.199,112.686 91.789,97.036 C 64.067,111.713 37.465,127.512 10.189,142.636 z"
   id="path101"
   style="fill:none" />
	<path
   d="M 145.549,41.835 C 146.559,29.427 137.157,23.811 134.509,13.515 C 134.63,12.273 136.922,8.905 134.989,8.715 C 131.131,21.322 142.274,25.962 144.109,35.595 C 144.598,38.162 143.186,39.727 145.549,41.835 z"
   id="path103"
   style="fill:none" />
	<path
   d="M 144.109,2.476 C 144.544,2.281 147.463,2.623 146.989,1.996 C 146.819,1.77 144.148,1.728 143.149,1.996 C 141.239,2.509 137.561,4.525 135.949,7.756 C 137.485,5.443 142.368,3.257 144.109,2.476 z"
   id="path105"
   style="fill:none" />
	<path
   d="M 158.03,10.156 C 156.28,6.142 152.696,1.413 147.469,2.476 C 153.042,2.982 155.314,6.791 158.03,10.156 z"
   id="path107"
   style="fill:none" />
	<path
   d="M 168.589,137.836 C 200.207,137.214 228.266,138.354 264.11,137.356 C 256.609,134.85 247.835,135.831 239.63,135.917 C 225.521,136.064 209.455,136.102 193.07,135.847 L 193.153,135.993 L 135.261,135.514 L 134.974,135.38 C 103.347,135.706 70.532,135.555 47.63,134.957 C 39.73,134.751 29.587,134.385 26.03,136.877 C 79.833,138.02 131.136,137.594 168.11,137.837 C 131.186,138.971 92.728,138 56.75,138.316 C 55.79,138.316 54.83,138.316 53.87,138.316 C 122.213,139.675 187.474,139.538 266.51,138.796 C 240.286,137.727 203.4,139.095 168.589,137.836 z"
   id="path109"
   style="fill:none" />
	<path
   d="M 105.229,89.836 C 100.456,91.782 96.243,94.29 92.269,97.036 C 96.374,95.031 103.604,91.131 105.229,89.836 z"
   id="path111"
   style="fill:none" />
	<path
   d="M 52.909,138.315 C 47.714,138.049 44.885,138.156 38.509,137.836 C 41.27,139.72 49.358,138.821 52.909,138.315 z"
   id="path113"
   style="fill:none" />
	<path
   d="M 280.91,136.876 C 282.762,137.424 283.641,138.944 285.71,139.275 C 282.597,131.348 275.531,127.374 269.87,121.996 C 269.07,121.996 268.269,121.996 267.47,121.996 C 240.204,101.009 195.309,97.898 173.39,71.596 C 168.078,65.221 164.382,57.771 160.43,49.516 C 153.971,46.215 142.987,45.673 134.99,48.076 C 137.156,48.323 139.144,51.264 140.75,50.476 C 140.302,49.964 138.979,50.327 139.31,49.036 C 143.3,50.966 147.806,52.381 150.35,55.756 C 147.181,54.76 144.04,51.194 141.23,51.436 C 142.478,52.748 144.986,52.8 145.55,54.796 C 140.093,54.077 137.567,47.58 132.11,48.076 C 128.38,48.415 125.182,56.279 122.99,60.076 C 114.767,74.322 101.907,84.597 89.87,91.276 C 89.891,89.674 93.834,89.512 92.75,88.396 C 79.782,95.088 64.277,100.688 49.07,107.116 C 30.397,115.011 7.028,124.023 2.51,145.037 C 31.047,129.279 60.292,113.917 88.91,97.516 C 99.062,91.698 110.277,83.5 122.03,80.716 C 129.638,76.324 137.021,71.707 145.07,67.756 C 152.515,71.831 160.493,75.372 167.15,80.235 C 168.27,80.235 169.39,80.235 170.51,80.235 C 209.575,102.45 248.396,124.909 287.63,146.956 C 289.342,141.277 283.086,140.185 280.91,136.876 z"
   id="path115"
   style="fill:none" />
	<path
   d="M 118.669,82.155 C 114.228,84.275 109.898,86.506 106.189,89.355 C 110.545,87.152 114.946,84.993 118.669,82.155 z"
   id="path117"
   style="fill:none" />
	<path
   d="M 26.029,138.315 C 27.803,139.543 34.963,138.238 38.029,138.795 C 35.48,136.467 28.274,138.57 26.029,138.315 z"
   id="path119"
   style="fill:none" />
	<path
   d="M 287.149,131.115 C 282.288,123.875 271.9,118.949 266.03,113.836 C 259.172,112.293 253.249,108.868 247.309,106.155 C 241.035,103.29 234.837,100.951 228.589,98.475 C 209.606,90.954 191.515,82.442 178.669,69.195 C 174.224,64.611 170.355,58.973 167.629,53.835 C 165.976,50.718 164.703,45.151 162.349,43.755 C 158.343,41.379 150.965,43.515 146.989,41.835 C 150.711,28.558 136.151,23.785 136.909,13.035 C 137.642,2.647 149.701,2.88 154.669,8.715 C 156.284,10.612 157.258,15.743 161.869,13.995 C 163.46,11.276 160.163,8.276 158.509,6.315 C 156.446,3.869 153.946,1.41 150.829,0.555 C 142.835,-1.637 133.44,2.752 132.589,12.075 C 131.336,25.801 144.907,26.524 143.149,41.835 C 137.111,43.407 129.747,41.497 126.349,43.755 C 124.261,45.143 121.172,53.809 119.149,57.195 C 116.455,61.705 112.838,66.663 110.029,69.675 C 95.161,85.613 72.142,91.914 50.509,101.355 C 42.76,104.737 34.893,108.769 26.989,112.876 C 16.328,118.414 4.546,123.798 1.069,134.476 C 0.135,137.342 -1.328,144.458 2.509,147.916 C 8.036,149.42 13.226,141.594 19.309,140.235 C 22.316,139.564 27.826,140.235 32.749,140.235 C 38.164,140.235 43.962,140.235 49.549,140.235 C 102.536,140.235 176.002,140.715 240.11,140.715 C 251.083,140.715 263.537,139.414 271.79,141.194 C 277.812,142.494 281.835,150.088 289.07,149.354 C 293.458,143.369 290.2,135.658 287.149,131.115 z M 158.03,10.156 C 155.314,6.791 153.043,2.983 147.469,2.476 C 152.696,1.413 156.28,6.142 158.03,10.156 z M 143.149,1.996 C 144.148,1.728 146.818,1.77 146.989,1.996 C 147.463,2.623 144.544,2.281 144.109,2.476 C 142.367,3.258 137.484,5.444 135.949,7.756 C 137.562,4.525 141.239,2.508 143.149,1.996 z M 134.989,8.716 C 136.922,8.905 134.63,12.274 134.509,13.516 C 137.157,23.811 146.559,29.428 145.549,41.836 C 143.185,39.727 144.598,38.163 144.109,35.596 C 142.274,25.962 131.131,21.323 134.989,8.716 z M 161.87,45.196 C 167.686,56.51 172.572,66.257 181.55,74.476 C 195.722,87.451 220.182,95.608 240.111,104.236 C 249.299,108.215 255.85,111.757 265.071,115.276 C 273.235,121.511 283.487,125.66 286.671,136.877 C 265.815,106.209 209.714,102.654 181.551,78.316 C 172.348,70.363 166.823,60.773 160.911,48.556 C 152.922,45.809 140.179,43.959 131.631,47.116 C 126.367,49.06 126.361,54.163 122.991,57.676 C 121.047,56.953 124.404,53.807 124.911,52.396 C 123.42,39.267 150.476,42.959 161.87,45.196 z M 13.549,121.516 C 46.58,98.775 101.237,93.549 121.069,56.716 C 122.604,58.736 119.77,60.874 118.669,62.956 C 120.84,62.568 121.121,60.288 122.029,58.636 C 113.175,79.921 91.811,88.34 68.749,97.996 C 58.158,102.431 47.3,107.189 36.109,112.395 C 23.246,118.379 8.692,124.442 3.469,137.355 C 3.221,130.41 8.799,124.786 13.549,121.516 z M 10.669,142.636 C 10.398,143.49 9.335,142.705 10.189,142.636 C 37.465,127.512 64.067,111.713 91.789,97.036 C 65.199,112.686 38.072,127.799 10.669,142.636 z M 144.109,69.676 C 148.595,70.771 150.32,71.366 156.45,75.412 C 161.151,78.507 164.943,80.806 169.068,83.115 C 198.931,99.838 230.759,116.812 259.789,134.956 C 234.453,134.104 202.525,134.891 175.852,135.018 L 160.356,134.893 C 123.794,133.934 79.479,134.28 30.348,133.996 C 67.61,111.896 106.657,91.584 144.109,69.676 z M 92.269,97.036 C 96.243,94.29 100.456,91.782 105.229,89.836 C 103.604,91.131 96.374,95.031 92.269,97.036 z M 106.189,89.355 C 109.898,86.505 114.228,84.275 118.669,82.155 C 114.946,84.993 110.545,87.152 106.189,89.355 z M 26.029,138.315 C 28.274,138.57 35.48,136.466 38.029,138.795 C 34.963,138.238 27.803,139.543 26.029,138.315 z M 38.509,137.836 C 44.884,138.156 47.714,138.05 52.909,138.315 C 49.358,138.821 41.27,139.72 38.509,137.836 z M 53.869,138.315 C 54.829,138.315 55.789,138.315 56.749,138.315 C 92.727,137.999 131.185,138.969 168.109,137.836 C 131.136,137.593 79.833,138.019 26.029,136.876 C 29.586,134.384 39.729,134.75 47.629,134.956 C 70.531,135.554 103.346,135.705 134.973,135.379 L 135.26,135.513 L 193.152,135.992 L 193.069,135.846 C 209.454,136.101 225.519,136.064 239.629,135.916 C 247.834,135.83 256.608,134.85 264.109,137.355 C 228.265,138.353 200.207,137.213 168.588,137.835 C 203.399,139.094 240.284,137.726 266.508,138.795 C 187.473,139.537 122.212,139.675 53.869,138.315 z M 287.629,146.956 C 248.395,124.909 209.574,102.45 170.509,80.235 C 169.389,80.235 168.269,80.235 167.149,80.235 C 160.493,75.372 152.514,71.83 145.069,67.756 C 137.02,71.707 129.637,76.324 122.029,80.716 C 110.276,83.5 99.061,91.697 88.909,97.516 C 60.291,113.916 31.046,129.279 2.509,145.037 C 7.027,124.023 30.396,115.011 49.069,107.116 C 64.276,100.688 79.781,95.089 92.749,88.396 C 93.833,89.512 89.891,89.674 89.869,91.276 C 101.907,84.597 114.766,74.322 122.989,60.076 C 125.181,56.279 128.379,48.415 132.109,48.076 C 137.566,47.58 140.092,54.077 145.549,54.796 C 144.985,52.8 142.477,52.748 141.229,51.436 C 144.039,51.194 147.18,54.76 150.349,55.756 C 147.805,52.381 143.299,50.965 139.309,49.036 C 138.978,50.327 140.302,49.964 140.749,50.476 C 139.143,51.265 137.155,48.323 134.989,48.076 C 142.986,45.673 153.97,46.215 160.429,49.516 C 164.381,57.771 168.076,65.221 173.389,71.596 C 195.308,97.899 240.203,101.009 267.469,121.996 C 268.269,121.996 269.07,121.996 269.869,121.996 C 275.53,127.374 282.596,131.349 285.709,139.275 C 283.641,138.944 282.761,137.423 280.909,136.876 C 283.086,140.185 289.342,141.277 287.629,146.956 z"
   id="path121" />
</g>
</svg>