<?xml version="1.0" encoding="UTF-8" standalone="no"?>
<!-- Created with Inkscape (http://www.inkscape.org/) -->
<svg
   xmlns:dc="http://purl.org/dc/elements/1.1/"
   xmlns:cc="http://creativecommons.org/ns#"
   xmlns:rdf="http://www.w3.org/1999/02/22-rdf-syntax-ns#"
   xmlns:svg="http://www.w3.org/2000/svg"
   xmlns="http://www.w3.org/2000/svg"
   xmlns:xlink="http://www.w3.org/1999/xlink"
   xmlns:sodipodi="http://sodipodi.sourceforge.net/DTD/sodipodi-0.dtd"
   xmlns:inkscape="http://www.inkscape.org/namespaces/inkscape"
   width="280.87741"
   height="75.086395"
   id="svg2"
   sodipodi:version="0.32"
   inkscape:version="0.46"
   sodipodi:docname="geni_glasses-mod.svg"
   inkscape:output_extension="org.inkscape.output.svg.inkscape"
   version="1.0"
   inkscape:export-filename="/home/home/geni/Documents/projekte/brille/brille04.png"
   inkscape:export-xdpi="126.88812"
   inkscape:export-ydpi="126.88812">
  <defs
     id="defs4">
    <linearGradient
       id="linearGradient3542">
      <stop
         id="stop3544"
         offset="0"
         style="stop-color: rgb(90, 129, 40); stop-opacity: 1;" />
      <stop
         id="stop3546"
         offset="1"
         style="stop-color: rgb(61, 76, 30); stop-opacity: 1;" />
    </linearGradient>
    <filter
       inkscape:collect="always"
       id="filter3393">
      <feGaussianBlur
         inkscape:collect="always"
         stdDeviation="1.8779569"
         id="feGaussianBlur3395" />
    </filter>
    <linearGradient
       inkscape:collect="always"
       xlink:href="#linearGradient3542"
       id="linearGradient3548"
       gradientUnits="userSpaceOnUse"
       x1="397.18585"
       y1="436.14688"
       x2="972.31287"
       y2="85.838234"
       gradientTransform="translate(-129.509,418.046)" />
    <filter
       inkscape:collect="always"
       id="filter3562">
      <feGaussianBlur
         inkscape:collect="always"
         stdDeviation="13.76578"
         id="feGaussianBlur3564" />
    </filter>
    <filter
       inkscape:collect="always"
       id="filter3647">
      <feGaussianBlur
         inkscape:collect="always"
         stdDeviation="1.4956156"
         id="feGaussianBlur3649" />
    </filter>
    <filter
       inkscape:collect="always"
       id="filter3659">
      <feGaussianBlur
         inkscape:collect="always"
         stdDeviation="1.966882"
         id="feGaussianBlur3661" />
    </filter>
    <filter
       inkscape:collect="always"
       id="filter3671">
      <feGaussianBlur
         inkscape:collect="always"
         stdDeviation="0.7250032"
         id="feGaussianBlur3673" />
    </filter>
    <filter
       inkscape:collect="always"
       x="-0.021934049"
       width="1.0438681"
       y="-0.10035787"
       height="1.2007157"
       id="filter3697">
      <feGaussianBlur
         inkscape:collect="always"
         stdDeviation="7.8688405"
         id="feGaussianBlur3699" />
    </filter>
    <filter
       inkscape:collect="always"
       x="-0.09296371"
       width="1.1859274"
       y="-0.18743902"
       height="1.374878"
       id="filter3892">
      <feGaussianBlur
         inkscape:collect="always"
         stdDeviation="6.9833868"
         id="feGaussianBlur3894" />
    </filter>
    <filter
       inkscape:collect="always"
       x="-0.094692342"
       width="1.1893847"
       y="-0.20527209"
       height="1.4105442"
       id="filter3928">
      <feGaussianBlur
         inkscape:collect="always"
         stdDeviation="8.1267299"
         id="feGaussianBlur3930" />
    </filter>
  </defs>
  <sodipodi:namedview
     id="base"
     pagecolor="#ffffff"
     bordercolor="#666666"
     borderopacity="1.0"
     inkscape:pageopacity="0.0"
     inkscape:pageshadow="2"
     inkscape:zoom="2.9599997"
     inkscape:cx="149.89229"
     inkscape:cy="23.327454"
     inkscape:document-units="px"
     inkscape:current-layer="layer2"
     inkscape:window-width="1272"
     inkscape:window-height="821"
     inkscape:window-x="0"
     inkscape:window-y="25"
     showguides="true"
     inkscape:guide-bbox="true"
     showborder="true"
     width="1535px"
     height="390px"
     showgrid="false">
    <sodipodi:guide
       orientation="horizontal"
       position="1214"
       id="guide3457" />
  </sodipodi:namedview>
  <metadata
     id="metadata7">
    <rdf:RDF>
      <cc:Work
         rdf:about="">
        <dc:format>image/svg+xml</dc:format>
        <dc:type
           rdf:resource="http://purl.org/dc/dcmitype/StillImage" />
      </cc:Work>
    </rdf:RDF>
  </metadata>
  <g
     inkscape:label="Hintergrund"
     inkscape:groupmode="layer"
     id="layer1"
     style="display:none"
     transform="translate(12.574209,-613.95253)">
    <path
       sodipodi:nodetypes="ccccccccc"
       id="path3550"
       d="M -341.75484,451.30773 L 504.09692,411.22675 C 558.94537,406.0065 623.35874,411.94391 648.5215,424.53933 L 1077.9594,639.49777 C 1103.1222,652.0932 1079.2235,666.43574 1024.3751,671.65598 L 205.84041,749.56062 C 150.99201,754.78086 86.578632,748.84348 61.415851,736.24806 L -395.33914,483.46595 C -420.5019,470.87054 -396.60322,456.52796 -341.75484,451.30773 z"
       style="fill:#000000;fill-opacity:1;fill-rule:evenodd;stroke:none;stroke-width:1;stroke-linecap:round;stroke-linejoin:round;marker:none;stroke-miterlimit:4;stroke-dashoffset:0;stroke-opacity:1;filter:url(#filter3562)" />
    <path
       style="fill:url(#linearGradient3548);fill-opacity:1;fill-rule:evenodd;stroke:none;stroke-width:1;stroke-linecap:round;stroke-linejoin:round;marker:none;stroke-miterlimit:4;stroke-dashoffset:0;stroke-opacity:1"
       d="M -341.75484,449.30773 L 504.09692,409.22675 C 558.94537,404.0065 623.35874,409.94391 648.5215,422.53933 L 1077.9594,637.49777 C 1103.1222,650.0932 1079.2235,664.43574 1024.3751,669.65598 L 205.84041,747.56062 C 150.99201,752.78086 86.578632,746.84348 61.415851,734.24806 L -395.33914,481.46595 C -420.5019,468.87054 -396.60322,454.52796 -341.75484,449.30773 z"
       id="rect2832"
       sodipodi:nodetypes="ccccccccc" />
  </g>
  <g
     inkscape:groupmode="layer"
     id="layer9"
     inkscape:label="Spiegeleffekt"
     transform="translate(12.574209,-613.95253)" />
  <g
     inkscape:groupmode="layer"
     id="layer10"
     inkscape:label="Schatten"
     transform="translate(12.574209,-613.95253)"
     style="display:none">
    <path
       style="fill:#000000;fill-opacity:0.0722022;fill-rule:evenodd;stroke:none;stroke-width:0.25pt;stroke-linecap:butt;stroke-linejoin:miter;stroke-opacity:1;filter:url(#filter3697)"
       d="M -124,492.36219 C -120,486.36219 -81.28078,478.84916 -66,488.36219 C 2.000008,530.69551 96,575.02885 164,617.36218 C 164,617.36218 209.51193,587.0682 266,585.36218 C 341.5,583.11218 379,601.36218 379,601.36218 C 423.67648,562.0791 447.66667,574.69551 487,594.36218 C 487,594.36218 525.5,564.36219 579,560.36219 C 632.5,556.36219 678,567.36218 712.5,589.36218 C 701.73731,570.91185 549.84606,476.25181 541,468.36219 C 537.09826,464.88231 492.16667,465.69552 491,455.86219 C 496.83333,451.69552 537.98897,456.14877 543,459.86219 C 569.55453,479.54041 719.5514,564.72543 737,590.86218 C 727.4486,612.99893 665.33333,619.02885 628,614.36218 C 581.33333,614.36218 553.66667,617.36218 507,617.36218 C 481.66667,611.36218 449.12171,588.86522 427,590.36218 C 404.83334,591.86218 372,618.36218 358,628.36218 C 344,638.36218 226,640.36218 226,640.36218 C 200,641.02885 182,641.69551 156,642.36218 C 81.666667,594.02885 -0.666663,545.69551 -75,497.36219 C -87.82441,489.02345 -121,501.36219 -124,492.36219 z"
       id="path3476"
       sodipodi:nodetypes="cscsccscscsccczsccsc" />
  </g>
  <g
     inkscape:groupmode="layer"
     id="layer5"
     inkscape:label="Bügel_Links"
     style="display:inline"
     transform="translate(12.574209,-613.95253)" />
  <g
     inkscape:groupmode="layer"
     id="layer8"
     inkscape:label="Bügel_Rechts"
     transform="translate(12.574209,-613.95253)" />
  <g
     inkscape:groupmode="layer"
     id="layer3"
     inkscape:label="Glashalter"
     style="display:inline"
     transform="translate(12.574209,-613.95253)" />
  <g
     inkscape:groupmode="layer"
     id="layer6"
     inkscape:label="Glashalter_Lichteffekt1"
     style="display:none"
     transform="translate(12.574209,-613.95253)">
    <path
       style="fill:#ffffff;fill-opacity:1;fill-rule:evenodd;stroke:none;stroke-width:1;stroke-linecap:round;stroke-linejoin:round;marker:none;stroke-miterlimit:4;stroke-dashoffset:0;stroke-opacity:1;display:inline;filter:url(#filter3393)"
       d="M 601.74558,468.16535 C 599.92595,468.15983 598.10163,468.17057 596.2833,468.19665 C 564.21473,469.03096 532.16879,471.90928 500.38834,476.00661 C 477.83742,479.34125 454.96889,482.6734 433.74548,491.12568 C 410.69867,497.69088 386.24796,498.06387 362.54812,495.44541 C 344.43751,490.4783 325.42241,490.08968 306.72025,489.43534 C 272.71569,488.95153 238.68094,490.44853 204.83087,493.67682 C 179.73744,496.45078 154.675,501.55872 131.5519,512.00439 C 122.87837,516.00519 113.41384,517.5524 103.92751,517.68578 C 102.39659,518.00041 98.98701,517.13956 99.81124,519.8926 C 99.98708,524.7821 99.49829,529.89841 99.98341,534.683 C 100.29266,534.77868 100.60797,534.86366 100.92248,534.94907 C 100.55166,530.37639 100.97985,525.536 100.81292,520.89428 C 99.98869,518.14124 103.39827,519.00208 104.92919,518.68746 C 114.41552,518.55407 123.88005,517.00686 132.55358,513.00607 C 155.67667,502.56039 180.73912,497.45246 205.83255,494.6785 C 239.68262,491.45021 273.71737,489.95321 307.72193,490.43702 C 326.42408,491.09135 345.43919,491.47998 363.5498,496.44709 C 387.24964,499.06555 411.70035,498.69256 434.74716,492.12735 C 455.97056,483.67507 478.8391,480.34293 501.39001,477.00828 C 533.17047,472.91096 565.21641,470.03264 597.28498,469.19833 C 611.83161,468.98967 626.43273,469.76769 640.811,471.82773 C 653.10338,473.22232 664.68417,478.02151 676.80878,480.12287 C 683.67997,481.42287 690.82571,479.94853 697.6875,480.01332 C 697.67419,479.68599 697.6715,479.35248 697.6562,479.02729 C 690.49971,478.79656 683.00252,480.48254 675.80711,479.1212 C 663.68249,477.01984 652.1017,472.22064 639.80932,470.82605 C 627.22833,469.02352 614.48298,468.20399 601.74558,468.16535 z M 664.49128,486.41466 C 668.2906,490.55774 670.20148,496.53168 671.2213,501.92501 C 674.16824,520.97274 671.14923,540.45299 666.58854,558.98933 C 664.53855,565.73594 663.17053,572.94039 659.46724,578.99157 C 655.07739,584.82364 647.86072,587.23283 640.88926,588.16318 C 613.74489,592.28878 586.15558,592.89316 558.73605,593.84457 C 530.02068,594.43624 501.25356,595.06385 472.56048,593.48459 C 467.88544,593.57775 463.48076,591.65618 460.13342,588.52316 C 463.57324,592.24628 468.40604,594.58901 473.56216,594.48627 C 502.25524,596.06553 531.02235,595.43792 559.73773,594.84625 C 587.15726,593.89484 614.74657,593.29046 641.89093,589.16486 C 648.8624,588.23451 656.07906,585.82532 660.46892,579.99325 C 664.17221,573.94207 665.54022,566.73762 667.59022,559.991 C 672.15091,541.45467 675.16992,521.97442 672.22298,502.92669 C 671.11703,497.07785 668.96724,490.55262 664.49128,486.41466 z M 360.35695,510.8149 C 361.61767,512.21196 362.61046,513.86155 363.20547,515.82329 C 366.65652,527.36196 363.20687,539.59854 359.88742,550.75679 C 354.61796,566.25735 347.89154,581.42059 338.78958,595.06537 C 335.2417,600.20768 329.17987,602.80471 323.12272,603.56397 C 287.60608,609.74876 251.76277,613.64857 215.88062,617.03967 C 194.80268,618.67991 173.61726,620.87203 152.46192,619.59081 C 147.93054,619.40969 143.17431,617.73484 139.76878,614.69199 C 143.2018,618.35946 148.4631,620.39261 153.46359,620.59249 C 174.61893,621.87371 195.80436,619.68159 216.8823,618.04134 C 252.76445,614.65025 288.60775,610.75043 324.1244,604.56565 C 330.18155,603.80639 336.24337,601.20936 339.79126,596.06704 C 348.89322,582.42226 355.61964,567.25903 360.88909,551.75847 C 364.20855,540.60022 367.6582,528.36364 364.20715,516.82496 C 363.46207,514.36844 362.09827,512.40842 360.35695,510.8149 z M 417.81255,515.46331 C 419.23766,517.0108 420.32318,518.86622 420.91149,521.05079 C 425.92727,539.63426 430.5865,558.6675 441.1485,575.04747 C 445.76027,582.07953 450.34219,589.26306 456.37713,595.14362 C 450.82878,589.45886 446.50394,582.68781 442.15018,576.04915 C 431.58818,559.66917 426.92894,540.63594 421.91316,522.05247 C 421.19292,519.37799 419.7322,517.19095 417.81255,515.46331 z M 118.43618,540.28613 C 119.35108,542.27906 118.07352,544.90395 118.45184,547.0631 C 118.16746,569.00939 122.67704,590.89154 129.92417,611.45218 C 131.17643,615.09968 133.30567,618.65335 136.16901,621.34375 C 133.80781,618.80117 132.02745,615.66255 130.92585,612.45386 C 123.67871,591.89322 119.16914,570.01107 119.45351,548.06478 C 119.03342,545.66721 120.67154,542.68754 119.06223,540.64611 C 118.85537,540.51788 118.64735,540.40426 118.43618,540.28613 z"
       id="path3386" />
  </g>
  <g
     inkscape:groupmode="layer"
     id="layer7"
     inkscape:label="Glashalter_Lichteffekt2"
     style="display:inline"
     transform="translate(12.574209,-613.95253)" />
  <g
     inkscape:groupmode="layer"
     id="layer2"
     inkscape:label="Glas"
     style="display:inline"
     transform="translate(12.574209,-613.95253)">
    <path
       sodipodi:nodetypes="csccscss"
       id="path3448"
       d="M 714.85328,498.01917 L 547.10327,419.0482 C 541.73357,416.52033 527.80198,419.27616 525.21834,421.78381 L 553.94231,427.25505 C 553.94231,427.25505 656.52794,478.3199 659.26356,481.05551 C 661.99918,483.79113 716.58171,516.68399 716.58171,516.68399 L 715.75618,499.07773 C 715.73015,498.52261 715.35608,498.25587 714.85328,498.01917 z"
       style="opacity:0.414286;fill:#ffffff;fill-opacity:0.97833904;fill-rule:evenodd;stroke:none;stroke-width:0.25pt;stroke-linecap:butt;stroke-linejoin:miter;stroke-opacity:1;filter:url(#filter3671)"
       transform="matrix(0.4697192,0,0,0.4697192,-68.676296,384.16606)" />
    <g
       id="g2475">
      <path
         style="fill:#000000;fill-opacity:0.98039198;fill-rule:evenodd;stroke:none;stroke-width:1;stroke-linecap:round;stroke-linejoin:round;marker:none;stroke-miterlimit:4;stroke-dashoffset:0;stroke-opacity:1;display:inline"
         d="M 45.905831,625.1155 C 36.36699,625.79323 26.245354,626.89253 14.742898,630.06394 C 7.4741251,632.06805 2.319234,634.90291 -1.2422333,635.91136 C -6.0500912,637.27271 -7.0160218,636.76879 -11.86963,637.28297 C -12.334699,637.33224 -12.574209,637.7391 -12.574209,638.16582 L -12.574209,645.22629 C -12.574209,645.67338 -12.378468,646.01133 -11.98706,646.0979 C -9.2324576,646.70723 -3.6207974,647.49167 -3.7082591,648.57922 C -4.6457388,660.23641 -1.2579783,673.63944 1.1210414,680.51193 C 2.9004363,685.6522 5.4444637,688.63433 10.706249,688.86721 C 32.805217,689.84526 58.923935,686.47528 82.000816,683.06516 C 89.148932,682.00886 98.377313,681.81883 102.38957,676.41542 C 112.50251,662.79606 114.33098,654.1363 117.00958,644.27979 C 117.7427,641.58206 118.29776,639.15005 119.94532,637.29117 C 121.59288,635.43228 125.1402,634.28954 127.66633,634.15773 L 127.66633,634.17241 C 130.70892,633.80603 133.49578,634.56608 135.78366,636.25331 C 137.69197,637.66061 137.98628,640.25554 138.71941,642.85719 C 141.398,652.36265 143.22648,660.78278 153.33942,673.07678 C 157.35167,677.95435 166.58005,676.93495 173.72817,677.05444 C 196.80505,677.4402 222.92377,677.38717 245.02274,673.51291 C 250.28453,672.59045 252.82855,669.27492 254.60794,663.90143 C 256.98698,656.71716 260.37472,642.87015 259.43724,631.33582 C 259.34978,630.25973 264.96144,628.73985 267.71604,627.76951 C 268.10746,627.63165 268.30319,627.26805 268.30319,626.82096 L 268.30319,619.76049 C 268.30318,619.33377 268.06368,618.95829 267.59862,618.96997 C 262.74501,619.09188 261.77908,619.7224 256.97122,618.99114 C 253.40975,618.44946 248.25486,616.29017 240.98609,615.23867 C 227.84041,613.33703 216.5047,613.91028 205.77183,614.63981 C 171.01331,617.00196 152.06121,621.26719 144.78172,624.50786 C 134.74392,627.71982 121.1424,627.98355 110.94726,626.72496 C 103.66778,624.43831 84.715676,622.65687 49.957159,624.85003 C 48.615547,624.93466 47.268524,625.01869 45.905831,625.1155 z M 45.656293,629.79969 C 71.818163,627.96087 100.39187,629.6395 106.573,632.69226 C 108.51961,633.65366 109.78935,634.42355 110.59497,636.45068 C 114.15364,645.40512 105.00603,664.69746 100.26115,672.29806 C 99.044371,674.24716 97.450768,675.91627 95.299741,676.64514 C 88.485637,678.95411 16.740327,687.83309 9.3411274,684.15672 C 7.397016,683.19076 6.1164675,682.41984 5.3191567,680.3983 C 0.30757697,667.6918 -1.6326123,649.24738 2.5008415,641.655 C 3.5900781,639.65427 4.459331,638.35155 6.5228122,637.36948 C 15.124653,633.27561 29.95917,630.90298 45.656293,629.79969 z M 210.07269,619.02582 C 225.76981,618.0719 240.60433,618.50038 249.20617,621.46692 C 251.26965,622.17856 252.13891,623.36736 253.22814,625.22534 C 257.3616,632.276 255.42141,650.9747 250.40983,664.338 C 249.61252,666.46403 248.33197,667.40278 246.38786,668.62352 C 238.98866,673.26959 167.24335,673.79328 160.42924,672.37734 C 158.27822,671.93037 156.68461,670.47011 155.46783,668.68048 C 150.72296,661.70172 141.57535,643.60823 145.13401,634.18741 C 145.93964,632.05469 147.20938,631.1184 149.15598,629.90189 C 155.33712,626.03904 183.91082,620.61567 210.07269,619.02582 z"
         id="path3257"
         sodipodi:nodetypes="csssccssssssszccssssssssccssscccsccssssssssccssssssssc" />
      <path
         transform="matrix(0.4697192,0,0,0.4697192,-68.676296,384.16606)"
         id="path3398"
         d="M 617.5625,490.21875 C 574.19856,491.44337 530.81601,495.20879 488.1875,503.25 C 474.30637,505.43391 461.12158,510.59178 447.71875,514.59375 C 425.71405,519.50679 402.54549,520.2847 380.28125,516.84375 C 348.75849,509.82479 316.00815,511.18151 283.875,511.84375 C 238.13141,513.76071 190.93639,515.67374 148.875,535.25 C 140.1929,539.05016 130.55455,539.07199 121.4375,539.9375 C 122.74224,544.42583 118.85433,553.11138 123.25,555.09375 C 123.33045,555.12285 123.41828,555.15975 123.5,555.1875 C 122.19841,551.80247 124.48151,545.52892 123.4375,541.9375 C 132.55455,541.07199 142.1929,541.05016 150.875,537.25 C 192.93639,517.67374 240.13141,515.76071 285.875,513.84375 C 318.00815,513.18151 350.75849,511.82479 382.28125,518.84375 C 404.54549,522.2847 427.71405,521.50679 449.71875,516.59375 C 463.12158,512.59178 476.30637,507.43391 490.1875,505.25 C 532.81601,497.20879 576.19856,493.44337 619.5625,492.21875 C 638.70545,492.24105 658.09646,493.28915 676.59375,498.15625 C 689.02723,502.17545 702.0207,505.0915 715.125,503 C 715.25325,503.00681 715.38324,503.04371 715.5,503.0625 C 715.18515,501.87566 714.50738,501.07337 713.125,501 C 700.0207,503.0915 687.02723,500.17545 674.59375,496.15625 C 656.09646,491.28915 636.70545,490.24105 617.5625,490.21875 z M 683.96875,506.90625 C 691.99973,515.95255 692.13907,529.78878 692.03125,541.40625 C 691.03552,561.24286 687.55471,581.38785 679.46875,599.59375 C 671.16124,611.10301 655.35225,609.95313 642.8125,611.96875 C 593.38743,615.99926 543.67946,616.9416 494.125,615.25 C 488.41479,615.6478 483.06814,613.57054 478.96875,609.9375 C 483.23504,614.78608 489.43314,617.71618 496.125,617.25 C 545.67946,618.9416 595.38743,617.99926 644.8125,613.96875 C 657.35225,611.95313 673.16124,613.10301 681.46875,601.59375 C 689.55471,583.38785 693.03552,563.24286 694.03125,543.40625 C 694.14738,530.89346 693.9794,515.80866 683.96875,506.90625 z M 380.78125,531.15625 C 383.5459,534.36582 385.23155,538.48043 385.21875,542.9375 C 385.93824,564.68474 376.13743,585.14728 366.6875,604.125 C 362.18415,613.0631 356.30799,623.5546 345.21875,624.71875 C 296.65685,633.02533 247.58618,638.39763 198.375,641.1875 C 186.90388,640.9272 174.43712,643.42873 163.625,638.65625 C 162.36724,638.06354 161.26288,637.35142 160.28125,636.53125 C 161.69258,638.2135 163.42393,639.619 165.625,640.65625 C 176.43712,645.42873 188.90388,642.9272 200.375,643.1875 C 249.58618,640.39763 298.65685,635.02533 347.21875,626.71875 C 358.30799,625.5546 364.18415,615.0631 368.6875,606.125 C 378.13743,587.14728 387.93824,566.68474 387.21875,544.9375 C 387.23439,539.49307 384.71923,534.54032 380.78125,531.15625 z M 438.46875,536.15625 C 439.43442,537.31757 440.23981,538.63944 440.875,540.125 C 446.83909,561.67043 452.27883,583.84647 466,602.0625 C 468.75932,606.01624 471.62915,610.34341 475.1875,613.6875 C 472.51156,610.72027 470.23084,607.259 468,604.0625 C 454.27883,585.84647 448.83909,563.67043 442.875,542.125 C 441.8393,539.70276 440.3237,537.73399 438.46875,536.15625 z M 139.96875,560.9375 C 140.05787,561.06544 140.16713,561.1764 140.25,561.3125 C 138.97822,586.29997 143.56375,611.53019 152.75,634.6875 C 153.80503,637.46638 155.46903,639.69481 157.53125,641.40625 C 156.38405,640.05677 155.43719,638.49752 154.75,636.6875 C 145.56375,613.53019 140.97822,588.29997 142.25,563.3125 C 141.6418,562.31365 140.87026,561.54955 139.96875,560.9375 z"
         style="fill:#ffffff;fill-opacity:1;fill-rule:evenodd;stroke:none;stroke-width:1;stroke-linecap:round;stroke-linejoin:round;marker:none;stroke-miterlimit:4;stroke-dashoffset:0;stroke-opacity:1;display:inline;filter:url(#filter3647)" />
      <path
         sodipodi:nodetypes="cssssssss"
         id="path3428"
         d="M 106.67331,632.82266 C 96.783509,627.92324 29.566621,626.53358 6.6284285,637.4632 C 4.5649521,638.4464 3.6915045,639.75598 2.6022727,641.76047 C -1.5311623,649.36712 0.40901283,667.84574 5.4205785,680.58164 C 6.2178987,682.60787 7.5026276,683.38495 9.4467343,684.35387 C 16.84592,688.04149 88.585983,679.17713 95.400073,676.86639 C 97.551086,676.13696 99.148883,674.46056 100.36566,672.50786 C 105.11053,664.89327 114.25812,645.57004 110.69946,636.59488 C 109.89384,634.56305 108.61991,633.78701 106.67331,632.82266 z"
         style="fill:#f3efe6;fill-opacity:0.06859209;fill-rule:evenodd;stroke:#ffffff;stroke-width:0.23510948;stroke-linecap:round;stroke-linejoin:round;marker:none;stroke-miterlimit:4;stroke-dasharray:none;stroke-dashoffset:0;stroke-opacity:1" />
      <g
         id="g2468">
        <path
           sodipodi:nodetypes="cssssssss"
           id="path2197"
           d="M 149.15398,630.05182 C 159.04378,623.83862 226.26067,613.5197 249.19886,621.40215 C 251.26234,622.11124 252.13579,623.30479 253.22502,625.16458 C 257.35845,632.22213 255.41828,650.95849 250.40671,664.36014 C 249.60939,666.49228 248.32466,667.44003 246.38056,668.66721 C 238.98137,673.33776 167.24131,674.00353 160.42722,672.59799 C 158.27621,672.1543 156.67841,670.69016 155.46163,668.89911 C 150.71677,661.91483 141.56918,643.80679 145.12783,634.35889 C 145.93345,632.22003 147.20738,631.27477 149.15398,630.05182 z"
           style="fill:#f3efe6;fill-opacity:0.06859209;fill-rule:evenodd;stroke:#e5fff4;stroke-width:0.23510948;stroke-linecap:round;stroke-linejoin:round;marker:none;stroke-miterlimit:4;stroke-dasharray:none;stroke-dashoffset:0;stroke-opacity:1" />
        <path
           style="fill:#ffffff;fill-opacity:0.48014449;fill-rule:evenodd;stroke:none;stroke-width:1;stroke-linecap:round;stroke-linejoin:round;marker:none;stroke-miterlimit:4;stroke-dashoffset:0;stroke-opacity:1;display:inline"
           d="M 251.18479,622.53496 C 251.76173,623.13378 252.23387,623.86542 252.75542,624.74965 C 256.88885,631.75741 254.94868,650.46156 249.9371,663.87689 C 249.13977,666.01121 247.85924,666.97792 245.91513,668.21884 C 238.51594,672.94173 166.77062,674.21028 159.95652,672.86509 C 158.7343,672.62381 157.69718,672.04439 156.80059,671.26981 C 157.7953,672.26021 158.98884,673.00071 160.42624,673.28447 C 167.24034,674.62967 238.98565,673.36112 246.38485,668.63823 C 248.32896,667.39731 249.60951,666.44526 250.40682,664.31095 C 255.4184,650.89562 257.35859,632.17678 253.22514,625.16903 C 252.56949,624.05747 251.99066,623.20306 251.18479,622.53496 z"
           id="path2793" />
        <path
           style="fill:#ffffff;fill-opacity:0.47843101;fill-rule:evenodd;stroke:none;stroke-width:0.50053197;stroke-linecap:round;stroke-linejoin:round;marker:none;stroke-miterlimit:4;stroke-dasharray:none;stroke-dashoffset:0;stroke-opacity:1"
           d="M 109.84636,635.08419 C 109.98455,635.33176 110.1104,635.59491 110.228,635.89152 C 113.78666,644.86667 104.63905,664.19576 99.894182,671.81036 C 98.677402,673.76305 97.083791,675.42583 94.932773,676.15526 C 88.118683,678.46599 16.37335,687.34371 8.9741593,683.65609 C 7.5995918,682.97102 6.5649695,682.3688 5.7888759,681.36621 C 6.5948248,682.83163 7.7722934,683.52757 9.4438785,684.36066 C 16.843069,688.04828 88.588402,679.17057 95.402492,676.85984 C 97.55351,676.1304 99.147122,674.46763 100.3639,672.51493 C 105.10876,664.90033 114.25638,645.57125 110.69772,636.59609 C 110.45754,635.99033 110.17521,635.50498 109.84636,635.08419 z"
           id="path3439" />
        <path
           style="fill:#ababae;fill-opacity:0.22382699;fill-rule:evenodd;stroke:none;stroke-width:0.50053197;stroke-linecap:round;stroke-linejoin:round;marker:none;stroke-miterlimit:4;stroke-dasharray:none;stroke-dashoffset:0;stroke-opacity:1;display:inline;filter:url(#filter3928)"
           d="M 378.84375,541.9375 C 366.2318,542.62692 367.1544,557.01715 364.125,567.5625 C 358.31539,580.96309 343.52483,594.92807 331.21875,602.1875 C 306.71265,614.67717 273.53023,616.14584 246.75971,617.44684 C 220.43462,620.06005 195.80685,622.16709 173.375,636.34375 C 197.60473,638.39143 221.88387,634.76891 246.03125,633.03125 C 280.31417,629.54487 314.7394,626.3405 348.4375,619.125 C 358.59712,613.87872 361.38238,601.58746 366.70682,592.31594 C 373.56813,576.5114 381.4325,559.27161 378.84375,541.9375 z"
           id="path3737"
           sodipodi:nodetypes="ccccccccc"
           transform="matrix(0.4697192,0,0,0.4697192,-68.676296,384.16606)" />
        <path
           style="fill:#ababae;fill-opacity:0.22382699;fill-rule:evenodd;stroke:none;stroke-width:0.25pt;stroke-linecap:butt;stroke-linejoin:miter;stroke-opacity:1;display:inline;filter:url(#filter3892)"
           d="M 684.28125,521.59375 C 678.37498,526.8446 680.64206,536.1222 676.90625,542.65625 C 672.56622,551.71412 670.01379,561.45848 666.5625,570.78125 C 657.65173,587.55049 636.96753,593.06259 619.20108,593.57931 C 597.23636,595.55719 575.14933,597.0922 553.21875,598.53125 C 536.88022,600.43524 521.15923,605.15479 505.78125,610.71875 C 557.22468,611.54711 609.03846,610.9332 660.0625,604.5625 C 667.682,603.54656 675.54165,599.18426 676.90625,590.9375 C 684.10473,569.98794 687.79209,547.15526 685.28125,525.03125 C 685.03631,523.87375 684.78019,522.5712 684.28125,521.59375 z"
           id="path3779"
           transform="matrix(0.4697192,0,0,0.4697192,-68.676296,384.16606)" />
      </g>
    </g>
  </g>
  <g
     inkscape:groupmode="layer"
     id="layer4"
     inkscape:label="Kopieen"
     style="display:none"
     transform="translate(12.574209,-613.95253)">
    <path
       style="fill:#44aa00;fill-opacity:1;fill-rule:evenodd;stroke:none;stroke-width:1;stroke-linecap:round;stroke-linejoin:round;marker:none;stroke-miterlimit:4;stroke-dashoffset:0;stroke-opacity:1;display:inline"
       d="M 184.45979,211.98639 C 205.51454,200.20809 348.61502,187.94489 397.44897,207.98639 C 401.84198,209.78928 403.70149,212.45036 406.0204,216.55782 C 414.82022,232.14484 410.68971,271.66965 400.0204,299.42006 C 398.32296,303.83502 395.58785,305.66383 391.44897,307.99149 C 375.69658,316.85044 222.96655,307.95653 208.45979,303.99149 C 203.88042,302.73984 200.47881,299.39982 197.88837,295.42006 C 187.78685,279.90084 168.31222,240.11765 175.88837,220.55782 C 177.60348,216.1298 180.3156,214.30471 184.45979,211.98639 z"
       id="rect2176"
       sodipodi:nodetypes="cssssssss" />
    <path
       sodipodi:nodetypes="csccsssssssssssssccssssssssc"
       id="path3088"
       d="M 564.28125,190.95982 C 490.28275,191.13971 449.93502,197.57618 434.4375,203.45982 C 420.16589,208.87805 413.29167,206.05357 398,205.92857 L 398,221.64732 C 403.39114,221.33077 411.68164,223.3844 415.28125,227.20982 C 418.88085,231.03524 419.9794,236.02417 421.54018,241.66518 C 427.24273,262.27536 431.12203,280.48308 452.65179,308.06696 C 461.19359,319.01069 480.84465,318.11448 496.0625,319.36607 C 545.19161,323.40666 600.80549,326.92405 647.85268,321.75894 C 659.05466,320.52912 664.47518,313.84332 668.26339,302.65178 C 673.32817,287.68884 680.52708,256.67765 678.53125,231.99107 C 678.34505,229.68794 690.30528,227.24846 696.16964,225.56696 C 697.00292,225.32804 697.41964,224.56009 697.41964,223.60826 L 697.41965,210.57812 C 697.41965,209.66965 696.89189,208.84358 695.90179,208.80357 C 685.56879,208.38601 683.51239,209.60699 673.27679,207.37947 C 665.69467,205.72941 654.71579,200.39991 639.24107,197.14732 C 611.25485,191.26497 587.13081,190.904 564.28125,190.95982 z M 573.4375,200.89732 C 606.8556,201.05633 638.43727,204.03801 656.75,211.55357 C 661.14301,213.35647 662.99359,216.00861 665.3125,220.11607 C 674.11234,235.70309 669.98181,275.24066 659.3125,302.99107 C 657.61508,307.40602 654.88888,309.22591 650.75,311.55357 C 634.99761,320.41253 482.25676,311.51861 467.75,307.55357 C 463.17062,306.30193 459.77794,302.97083 457.1875,298.99107 C 447.08599,283.47184 427.61135,243.6759 435.1875,224.11607 C 436.90262,219.68805 439.60581,217.87189 443.75,215.55357 C 456.90921,208.19214 517.74067,200.63231 573.4375,200.89732 z"
       style="fill:#000000;fill-opacity:1;fill-rule:evenodd;stroke:none;stroke-width:1;stroke-linecap:round;stroke-linejoin:round;marker:none;stroke-miterlimit:4;stroke-dashoffset:0;stroke-opacity:1;display:inline" />
    <path
       style="fill:#000000;fill-opacity:1;fill-rule:evenodd;stroke:none;stroke-width:1;stroke-linecap:round;stroke-linejoin:round;marker:none;stroke-miterlimit:4;stroke-dashoffset:0;stroke-opacity:1;display:inline"
       d="M 223.9375,319.53125 C 203.62996,319.64337 182.08169,320.57169 157.59375,325.71875 C 142.11903,328.97134 131.14462,334.28744 123.5625,335.9375 C 113.3269,338.16502 111.2705,336.95744 100.9375,337.375 C 99.947401,337.41501 99.437497,338.24779 99.4375,339.15625 L 99.4375,352.1875 C 99.4375,353.13933 99.85422,353.8861 100.6875,354.125 C 106.55186,355.8065 118.4987,358.25937 118.3125,360.5625 C 116.31667,385.24908 123.52898,416.25581 128.59375,431.21875 C 132.38196,442.41029 137.79802,449.11392 149,450.34375 C 196.04719,455.50886 251.65215,451.97809 300.78125,447.9375 C 315.9991,446.68591 335.64569,447.56875 344.1875,436.625 C 365.71726,409.04112 369.60995,390.86016 375.3125,370.25 C 376.87328,364.60899 378.05496,359.50884 381.5625,355.78125 C 385.07004,352.05366 392.62204,350.11571 398,350.1875 L 398,350.21875 C 404.47746,349.8632 410.41049,351.87009 415.28125,355.78125 C 419.34391,359.04351 419.97047,364.60899 421.53125,370.25 C 427.23379,390.86016 431.12649,409.04112 452.65625,436.625 C 461.19805,447.56875 480.84465,446.68591 496.0625,447.9375 C 545.19161,451.97809 600.79656,455.50886 647.84375,450.34375 C 659.04575,449.11392 664.46179,442.41029 668.25,431.21875 C 673.3148,416.25581 680.52708,385.24908 678.53125,360.5625 C 678.34505,358.25937 690.29189,355.8065 696.15625,354.125 C 696.98955,353.8861 697.40625,353.13933 697.40625,352.1875 L 697.40625,339.15625 C 697.40622,338.24779 696.89635,337.41501 695.90625,337.375 C 685.57325,336.95744 683.51685,338.16502 673.28125,335.9375 C 665.69913,334.28744 654.72472,328.97134 639.25,325.71875 C 611.26376,319.8364 587.13081,319.47543 564.28125,319.53125 C 490.28275,319.71114 449.93502,326.14761 434.4375,332.03125 C 413.0677,337.46899 384.11101,336.13298 362.40625,332.03125 C 346.90873,326.14761 306.561,319.71114 232.5625,319.53125 C 229.7063,319.52427 226.83858,319.51523 223.9375,319.53125 z M 223.40625,329.46875 C 279.10308,329.20374 339.93455,336.76357 353.09375,344.125 C 357.23794,346.44332 359.94114,348.25948 361.65625,352.6875 C 369.2324,372.24733 349.75777,412.04327 339.65625,427.5625 C 337.06581,431.54226 333.67314,434.87336 329.09375,436.125 C 314.58699,440.09004 161.84614,448.98396 146.09375,440.125 C 141.95487,437.79734 139.22867,435.97745 137.53125,431.5625 C 126.86194,403.81209 122.73141,364.27452 131.53125,348.6875 C 133.85016,344.58004 135.70074,341.9279 140.09375,340.125 C 158.40648,332.60944 189.98815,329.62776 223.40625,329.46875 z M 573.4375,329.46875 C 606.8556,329.62776 638.43727,332.60944 656.75,340.125 C 661.14301,341.9279 662.99359,344.58004 665.3125,348.6875 C 674.11234,364.27452 669.98181,403.81209 659.3125,431.5625 C 657.61508,435.97745 654.88888,437.79734 650.75,440.125 C 634.99761,448.98396 482.25676,440.09004 467.75,436.125 C 463.17062,434.87336 459.77794,431.54226 457.1875,427.5625 C 447.08599,412.04327 427.61135,372.24733 435.1875,352.6875 C 436.90262,348.25948 439.60581,346.44332 443.75,344.125 C 456.90921,336.76357 517.74067,329.20374 573.4375,329.46875 z"
       id="path2201"
       sodipodi:nodetypes="csssccssssssszccssssssssccssscccsccssssssssccssssssssc" />
    <path
       style="fill:none;fill-opacity:0.75;fill-rule:evenodd;stroke:#000000;stroke-width:0.24315901pt;stroke-linecap:butt;stroke-linejoin:miter;stroke-opacity:1;display:inline"
       d="M 131.9375,621.3516 L 131.9375,471.39923 L 695.52075,486.58961 L 695.52075,596.94216 L 131.9375,621.3516 z"
       id="path3165"
       sodipodi:nodetypes="ccccc" />
  </g>
</svg>
