<?xml version="1.0" encoding="UTF-8" standalone="no"?>
<!-- Created with Inkscape (http://www.inkscape.org/) -->
<svg
   xmlns:dc="http://purl.org/dc/elements/1.1/"
   xmlns:cc="http://creativecommons.org/ns#"
   xmlns:rdf="http://www.w3.org/1999/02/22-rdf-syntax-ns#"
   xmlns:svg="http://www.w3.org/2000/svg"
   xmlns="http://www.w3.org/2000/svg"
   xmlns:sodipodi="http://sodipodi.sourceforge.net/DTD/sodipodi-0.dtd"
   xmlns:inkscape="http://www.inkscape.org/namespaces/inkscape"
   height="265.19681"
   id="svg6845"
   version="1.0"
   width="300"
   x="0.00000000"
   y="0.00000000"
   sodipodi:version="0.32"
   inkscape:version="0.46"
   sodipodi:docname="Anonymous_Hiking_boot.svg"
   inkscape:output_extension="org.inkscape.output.svg.inkscape"
   inkscape:export-filename="/home/joanna/gfx/vector/Jarno Vasamaa/hiking_boot_jarno_vasama_.png"
   inkscape:export-xdpi="42.924709"
   inkscape:export-ydpi="42.924709">
  <sodipodi:namedview
     inkscape:window-height="825"
     inkscape:window-width="1440"
     inkscape:pageshadow="2"
     inkscape:pageopacity="0.0"
     guidetolerance="10.0"
     gridtolerance="10.0"
     objecttolerance="10.0"
     borderopacity="1.0"
     bordercolor="#666666"
     pagecolor="#ffffff"
     id="base"
     showgrid="false"
     inkscape:zoom="0.46942014"
     inkscape:cx="372.04724"
     inkscape:cy="490.54843"
     inkscape:window-x="0"
     inkscape:window-y="25"
     inkscape:current-layer="svg6845" />
  <metadata
     id="metadata3">
    <rdf:RDF>
      <cc:Work
         rdf:about="">
        <dc:title>hiking boot</dc:title>
        <dc:description>Hiking boot</dc:description>
        <dc:subject>
          <rdf:Bag>
            <rdf:li>holiday</rdf:li>
            <rdf:li>clothing</rdf:li>
          </rdf:Bag>
        </dc:subject>
        <dc:publisher>
          <cc:Agent
             rdf:about="http://www.openclipart.org/">
            <dc:title>Open Clip Art Library</dc:title>
          </cc:Agent>
        </dc:publisher>
        <dc:creator>
          <cc:Agent>
            <dc:title>Jarno Vasamaa</dc:title>
          </cc:Agent>
        </dc:creator>
        <dc:rights>
          <cc:Agent>
            <dc:title>Jarno Vasamaa</dc:title>
          </cc:Agent>
        </dc:rights>
        <dc:date />
        <dc:format>image/svg+xml</dc:format>
        <dc:type
           rdf:resource="http://purl.org/dc/dcmitype/StillImage" />
        <cc:license
           rdf:resource="http://web.resource.org/cc/PublicDomain" />
        <dc:language>en</dc:language>
      </cc:Work>
      <cc:License
         rdf:about="http://web.resource.org/cc/PublicDomain">
        <cc:permits
           rdf:resource="http://web.resource.org/cc/Reproduction" />
        <cc:permits
           rdf:resource="http://web.resource.org/cc/Distribution" />
        <cc:permits
           rdf:resource="http://web.resource.org/cc/DerivativeWorks" />
      </cc:License>
    </rdf:RDF>
  </metadata>
  <defs
     id="defs3" />
  <g
     id="layer1"
     style="display:inline"
     transform="matrix(0.6331078,0,0,0.6331078,-56.014168,-145.66358)">
    <g
       id="g19140">
      <path
         d="M 138,284.36218 C 126,298.36218 180,266.36218 180,266.36218 C 180,266.36218 192,258.36218 220,254.36218 C 248,250.36218 276,256.36218 276,256.36218 L 266,324.36218 L 182,390.36218 L 138,284.36218 z"
         id="path9973"
         style="fill:#573400;fill-opacity:1;fill-rule:evenodd;stroke:#000000;stroke-width:1px;stroke-linecap:butt;stroke-linejoin:miter;stroke-opacity:1" />
      <path
         d="M 380,510.36218 L 282,462.36218 C 282,462.36218 210,348.36218 210,326.36218 C 210,304.36218 208,288.36218 226,264.36218 C 244,240.36218 286,238.36218 286,238.36218 C 286,238.36218 306,244.36218 292,236.36218 C 278,228.36218 296,232.36218 296,232.36218 C 296,232.36218 294,226.36218 302,236.36218 C 310,246.36218 306,270.36218 310,300.36218 C 314,330.36218 320,370.36218 334,396.36218 C 348,422.36218 426,476.36218 426,476.36218 L 460,518.36218 L 380,510.36218 z"
         id="path9213"
         style="fill:#753f00;fill-opacity:1;fill-rule:evenodd;stroke:#000000;stroke-width:1px;stroke-linecap:butt;stroke-linejoin:miter;stroke-opacity:1" />
      <path
         d="M 93.851901,511.60588 L 96.840884,462.44622 C 96.840884,462.44622 105.80783,420.73499 110.2913,408.81749 C 110.70403,397.48154 112.94887,392.10432 112.94887,392.10432 C 112.94887,392.10432 114.85608,378.62545 117.76376,374.5547 L 118.26399,349.0468 C 119.42706,344.21129 116.26306,339.16069 119.83979,332.22211 C 119.83979,324.77367 114.77478,317.9466 114.77478,317.9466 C 114.77478,317.9466 107.30233,300.07036 111.7858,292.62192 C 116.26927,285.17349 131.21417,277.72506 143.17011,277.72506 C 155.12603,277.72506 189.49933,292.62192 216.40017,298.58067 C 243.301,304.53942 246.28999,311.98785 252.26795,323.90535 C 258.24591,335.82284 270.20184,389.45156 280.66328,399.87937 C 291.12472,410.30718 292.61921,417.75561 325.49801,450.52872 C 358.37681,483.30183 385.27765,487.77089 385.27765,487.77089 L 404.70604,496.70901 L 427.1234,484.79152 C 427.1234,484.79152 367.34376,468.40496 358.37681,450.52872 C 349.40986,432.65248 315.03657,368.59595 315.03657,368.59595 C 315.03657,368.59595 310.5531,341.78159 309.05861,322.41566 C 307.56411,303.04973 313.54208,292.62192 313.54208,292.62192 C 313.54208,292.62192 319.52005,323.90535 321.01454,338.80221 C 321.92749,364.16672 327.0676,379.3424 346.42088,407.32781 C 352.39885,410.30718 394.49472,440.81788 415.41759,461.09993 C 437.83496,473.01742 439.07933,481.81214 483.91405,502.66776 C 518.28735,511.60588 535.5584,517.81955 535.5584,517.81955 C 535.5584,517.81955 561.70889,526.20799 554.15514,559.27586 C 543.6937,580.13147 527.2543,583.11085 534.72676,583.11085 L 513.80388,593.53865 L 431.60688,618.86333 L 335.95944,615.88395 L 255.25694,578.64179 L 186.51034,559.27586 L 98.335375,545.86868 L 93.851901,511.60588 z"
         id="path6934"
         style="fill:#803a00;fill-opacity:1;fill-rule:evenodd;stroke:#000000;stroke-width:1px;stroke-linecap:butt;stroke-linejoin:miter;stroke-opacity:1" />
      <path
         d="M 99.442567,580.15537 L 88.974929,524.32796 L 94.208748,497.57733 C 94.208748,497.57733 125.03013,520.25722 130.84548,521.42029 C 136.66084,522.58336 173.87911,544.10017 173.87911,544.10017 C 173.87911,544.10017 208.1897,545.84478 216.3312,547.58938 C 224.4727,549.33399 247.73412,553.40474 257.62022,558.63856 C 267.50632,563.87238 303.56152,589.45994 309.95841,592.94915 C 316.3553,596.43836 355.89972,610.39522 371.01964,609.81368 C 386.13956,609.23214 447.20079,610.39522 452.43461,607.48754 C 457.66842,604.57986 457.08689,599.34604 474.53295,591.78608 C 491.97902,584.22612 515.24044,578.41076 527.45268,571.43234 C 539.66493,564.45391 553.62178,552.8232 555.94792,552.8232 C 558.27406,552.8232 560.01867,550.49706 561.18174,554.56781 C 562.34481,558.63856 562.34481,580.15537 557.69253,595.27529 C 553.04024,610.39522 516.40351,620.86285 502.44666,626.09667 C 488.48981,631.33049 411.72712,645.86888 409.98252,647.03195 C 409.87348,647.10464 407.94544,647.35906 407.13504,647.41358 C 406.32464,647.4681 406.89391,644.58035 405.7997,644.62578 C 404.70549,644.67122 396.05081,645.07205 394.52272,645.09931 C 392.99462,645.12657 393.16853,647.83156 391.49037,647.84973 C 389.81221,647.86791 371.54495,647.86791 369.71232,647.84973 C 367.87969,647.83156 369.90415,645.63748 368.14435,645.61022 C 366.38455,645.58296 360.96823,644.91252 359.32584,644.87618 C 357.68346,644.83983 358.92093,648.50303 357.44054,648.4576 C 355.96015,648.41217 344.99593,647.10464 344.26901,647.03195 C 343.54209,646.95926 340.10172,646.38795 339.12378,646.18009 C 338.14585,645.97224 338.90101,643.68951 337.82057,643.42174 C 336.74013,643.15397 329.51513,640.20324 328.27568,639.83098 C 327.03622,639.45872 326.53104,642.76698 325.23508,642.35014 C 323.93912,641.93329 310.37071,637.04703 309.00206,636.50298 C 307.63341,635.95892 310.23054,633.6159 308.88205,633.05282 C 307.53356,632.48974 300.70671,629.74707 299.39371,629.17008 C 298.08071,628.59308 298.32202,631.96995 297.05985,631.38416 C 295.79768,630.79836 287.71468,626.67821 286.69699,626.09667 C 283.20778,612.13983 282.62625,609.81368 282.62625,609.81368 C 282.62625,609.81368 243.66337,581.31844 239.59262,582.48151 C 235.52187,583.64458 222.14655,587.71533 222.14655,587.71533 L 212.26045,587.1338 L 212.26045,594.11222 L 200.62974,609.23214 C 200.62974,609.23214 200.40485,609.18898 199.98077,609.10748 C 199.55668,609.02599 198.93341,608.90616 198.13663,608.75283 C 197.33986,608.59949 196.3696,608.41265 195.25153,608.19713 C 194.13347,607.98161 192.8676,607.73741 191.47964,607.46936 C 190.09168,607.20131 188.58162,606.90941 186.97516,606.59848 C 185.36869,606.28755 183.66583,605.9576 181.89226,605.61345 C 180.11869,605.2693 178.27442,604.91095 176.38514,604.54323 C 174.49585,604.17551 176.03957,600.86386 174.08597,600.48223 C 172.13237,600.10059 164.61641,598.30148 162.6499,597.91559 C 160.68338,597.5297 163.17944,601.60028 161.2514,601.21978 C 159.32336,600.83928 155.03628,600.35521 153.19811,599.98976 C 151.35994,599.62431 149.57956,599.26881 147.88266,598.92806 C 146.18576,598.58732 144.57234,598.26134 143.0681,597.95496 C 141.56386,597.64857 143.42942,594.75328 142.16924,594.49091 C 140.90905,594.22854 135.43625,593.22977 134.47152,593.02107 C 133.50679,592.81236 133.78951,596.00221 133.17163,595.85683 C 130.7001,595.27529 127.35627,594.00319 123.73076,592.42214 C 120.10525,590.84109 121.86721,591.68793 118.26896,589.87063 C 117.3694,589.41631 118.49289,587.61033 118.00772,587.48261 C 117.52254,587.3549 114.96735,586.19441 114.63324,586.13257 C 114.29913,586.07074 113.49885,588.66431 112.90141,588.34174 C 110.51166,587.05146 99.442567,580.15537 99.442567,580.15537 z"
         id="path7694"
         style="fill:#000000;fill-opacity:1;fill-rule:evenodd;stroke:#000000;stroke-width:1px;stroke-linecap:butt;stroke-linejoin:miter;stroke-opacity:1" />
      <g
         id="g15332">
        <g
           id="g14566"
           transform="translate(-2,0)">
          <path
             d="M 391.95187,522.67769 C 390.48663,516.81673 425.65241,474.32475 423.45455,464.06806 C 421.25668,453.81138 339.93583,484.58143 332.60963,476.52261 C 325.28342,468.46379 334.80749,452.34614 340.66845,443.5547 C 346.52941,434.76325 361.91444,428.16967 360.4492,419.37823 C 358.98396,410.58678 353.12299,409.85416 347.99465,409.12154 C 342.86631,408.38892 277.6631,430.36753 277.6631,430.36753 C 277.6631,430.36753 242.49733,445.01994 239.56684,431.10015 C 236.63636,417.18036 251.28877,407.6563 251.28877,407.6563 C 251.28877,407.6563 313.5615,388.60817 318.68984,380.54935 C 323.81818,372.49052 326.01604,364.4317 326.01604,364.4317"
             id="path13804"
             style="fill:none;fill-opacity:0.75;fill-rule:evenodd;stroke:#000000;stroke-width:8.10000038;stroke-linecap:butt;stroke-linejoin:miter;stroke-miterlimit:4;stroke-opacity:1" />
          <path
             d="M 394.14973,521.94507 C 450.5615,488.24454 452.02674,486.77929 452.02674,486.77929 C 452.02674,486.77929 456.42246,475.78999 449.09626,475.78999 C 441.77005,475.78999 368.50802,502.89694 363.37968,502.16432 C 358.25134,501.4317 355.32086,502.16432 358.25134,496.30336 C 361.18182,490.4424 394.88235,441.35684 388.28877,437.69373 C 381.69519,434.03063 359.71658,430.36753 331.87701,440.62421 C 304.03743,450.8809 286.45455,471.39427 294.51337,454.544 C 302.57219,437.69373 333.34225,396.66699 333.34225,396.66699 C 333.34225,396.66699 238.83422,395.93438 235.90374,389.34079 C 232.97326,382.74721 308.43316,334.39427 307.70053,317.544"
             id="path13806"
             style="fill:none;fill-opacity:0.75;fill-rule:evenodd;stroke:#000000;stroke-width:8.69999981;stroke-linecap:butt;stroke-linejoin:miter;stroke-miterlimit:4;stroke-opacity:1" />
        </g>
        <path
           d="M 321.62032,360.7686 C 320.15508,357.83812 232.97326,352.70978 232.97326,339.52261 C 232.97326,326.33544 302.57219,306.5547 302.57219,306.5547"
           id="path14570"
           style="fill:none;fill-opacity:0.75;fill-rule:evenodd;stroke:#000000;stroke-width:8.10000038;stroke-linecap:butt;stroke-linejoin:miter;stroke-miterlimit:4;stroke-opacity:1" />
      </g>
      <g
         id="g13789">
        <path
           d="M 400.0107,521.94507 C 400.0107,527.20507 396.40264,531.46914 391.95188,531.46914 C 387.50111,531.46914 383.89305,527.20507 383.89305,521.94507 C 383.89305,516.68507 387.50111,512.421 391.95188,512.421 C 396.40264,512.421 400.0107,516.68507 400.0107,521.94507 z"
           id="path13009"
           style="fill:#b3b3b3;fill-opacity:1;fill-rule:evenodd;stroke:#505050;stroke-width:1.70000005;stroke-miterlimit:4;stroke-opacity:0.49729698" />
        <path
           d="M 369.97328,501.4317 C 369.97328,506.6917 366.52922,510.95577 362.28077,510.95577 C 358.03231,510.95577 354.58825,506.6917 354.58825,501.4317 C 354.58825,496.1717 358.03231,491.90763 362.28077,491.90763 C 366.52922,491.90763 369.97328,496.1717 369.97328,501.4317 z"
           id="path13011"
           style="fill:#b3b3b3;fill-opacity:1;fill-rule:evenodd;stroke:#505050;stroke-width:1.70000005;stroke-miterlimit:4;stroke-opacity:0.49729698" />
        <path
           d="M 336.27273,476.88892 C 336.27273,481.94661 332.50067,486.04668 327.8476,486.04668 C 323.19452,486.04668 319.42246,481.94661 319.42246,476.88892 C 319.42246,471.83123 323.19452,467.73116 327.8476,467.73116 C 332.50067,467.73116 336.27273,471.83123 336.27273,476.88892 z"
           id="path13013"
           style="fill:#b3b3b3;fill-opacity:1;fill-rule:evenodd;stroke:#505050;stroke-width:1.70000005;stroke-miterlimit:4;stroke-opacity:0.49729698" />
        <path
           d="M 301.83957,453.81137 C 301.83957,458.66675 298.55952,462.60282 294.51337,462.60282 C 290.46721,462.60282 287.18716,458.66675 287.18716,453.81137 C 287.18716,448.95599 290.46721,445.01992 294.51337,445.01992 C 298.55952,445.01992 301.83957,448.95599 301.83957,453.81137 z"
           id="path13015"
           style="fill:#b3b3b3;fill-opacity:1;fill-rule:evenodd;stroke:#505050;stroke-width:1.70000005;stroke-miterlimit:4;stroke-opacity:0.49729698" />
        <path
           d="M 249.82353,430.73383 C 249.82353,439.43305 246.05147,446.48517 241.3984,446.48517 C 236.74532,446.48517 232.97326,439.43305 232.97326,430.73383 C 232.97326,422.03461 236.74532,414.98249 241.3984,414.98249 C 246.05147,414.98249 249.82353,422.03461 249.82353,430.73383 z"
           id="path13017"
           style="fill:#b3b3b3;fill-opacity:1;fill-rule:evenodd;stroke:#505050;stroke-width:1.70000005;stroke-miterlimit:4;stroke-opacity:0.49729698" />
        <path
           d="M 246.16042,387.50925 C 246.16448,392.16546 242.71923,395.94242 238.46791,395.94242 C 234.21659,395.94242 230.77134,392.16546 230.7754,387.50925 C 230.77134,382.85304 234.21659,379.07608 238.46791,379.07608 C 242.71923,379.07608 246.16448,382.85304 246.16042,387.50925 z"
           id="path13019"
           style="fill:#b3b3b3;fill-opacity:1;fill-rule:evenodd;stroke:#505050;stroke-width:1.70000005;stroke-miterlimit:4;stroke-opacity:0.49729698" />
        <path
           d="M 241.76471,335.49319 C 241.76471,339.74165 238.48466,343.18571 234.43851,343.18571 C 230.39235,343.18571 227.1123,339.74165 227.1123,335.49319 C 227.1123,331.24473 230.39235,327.80067 234.43851,327.80067 C 238.48466,327.80067 241.76471,331.24473 241.76471,335.49319 z"
           id="path13021"
           style="fill:#b3b3b3;fill-opacity:1;fill-rule:evenodd;stroke:#505050;stroke-width:1.70000005;stroke-miterlimit:4;stroke-opacity:0.49729698" />
        <path
           d="M 452.75935,479.08679 C 452.76198,481.71851 450.46517,483.85323 447.63101,483.85323 C 444.79685,483.85323 442.50004,481.71851 442.50267,479.08679 C 442.50004,476.45507 444.79685,474.32035 447.63101,474.32035 C 450.46517,474.32035 452.76198,476.45507 452.75935,479.08679 z"
           id="path13023"
           style="fill:#b3b3b3;fill-opacity:1;fill-rule:evenodd;stroke:#505050;stroke-width:1.70000005;stroke-miterlimit:4;stroke-opacity:0.49729698" />
        <path
           d="M 419.79144,457.47449 C 419.79144,459.90218 417.98741,461.87022 415.76203,461.87022 C 413.53664,461.87022 411.73261,459.90218 411.73261,457.47449 C 411.73261,455.0468 413.53664,453.07876 415.76203,453.07876 C 417.98741,453.07876 419.79144,455.0468 419.79144,457.47449 L 419.79144,457.47449 z"
           id="path13025"
           style="fill:#b3b3b3;fill-opacity:1;fill-rule:evenodd;stroke:#505050;stroke-width:1.70000005;stroke-miterlimit:4;stroke-opacity:0.49729698" />
        <path
           d="M 389.754,436.59482 C 389.754,438.8202 387.78597,440.62423 385.35827,440.62423 C 382.93058,440.62423 380.96255,438.8202 380.96255,436.59482 C 380.96255,434.36944 382.93058,432.56541 385.35827,432.56541 C 387.78597,432.56541 389.754,434.36944 389.754,436.59482 z"
           id="path13027"
           style="fill:#b3b3b3;fill-opacity:1;fill-rule:evenodd;stroke:#505050;stroke-width:1.70000005;stroke-miterlimit:4;stroke-opacity:0.49729698" />
        <path
           d="M 360.4492,410.58679 C 360.45115,412.61124 358.81055,414.25342 356.7861,414.25342 C 354.76165,414.25342 353.12105,412.61124 353.123,410.58679 C 353.12105,408.56234 354.76165,406.92016 356.7861,406.92016 C 358.81055,406.92016 360.45115,408.56234 360.4492,410.58679 z"
           id="path13029"
           style="fill:#b3b3b3;fill-opacity:1;fill-rule:evenodd;stroke:#505050;stroke-width:1.70000005;stroke-miterlimit:4;stroke-opacity:0.49729698" />
      </g>
      <path
         d="M 308.43316,305.82208 C 308.43316,305.82208 289.38503,303.62421 282.05882,305.08946 C 274.73262,306.5547 262.27807,318.27662 262.27807,324.13758 C 262.27807,329.99855 263.74332,338.05737 267.40642,340.25523 C 271.06952,342.45309 284.25668,341.72047 286.45455,335.85951 C 288.65241,329.99855 301.83957,321.93972 305.50267,315.34614 C 309.16578,308.75256 321.62032,296.29801 328.2139,291.16967 C 334.80749,286.04133 343.59893,282.37823 347.99465,288.23919 C 352.39037,294.10015 363.37968,294.83277 361.91444,305.08946 C 360.4492,315.34614 367.04278,321.2071 356.7861,320.47448 C 346.52941,319.74186 348.72727,315.34614 339.20321,311.68304 C 329.67914,308.01994 319.42246,308.01994 313.5615,306.5547 C 307.70053,305.08946 301.10695,309.48518 308.43316,305.82208 z"
         id="path15338"
         style="fill:none;fill-opacity:0.75;fill-rule:evenodd;stroke:#000000;stroke-width:8.10000038;stroke-linecap:butt;stroke-linejoin:miter;stroke-miterlimit:4;stroke-opacity:1" />
      <path
         d="M 318.68984,302.89159 C 317.95722,305.82208 311.36364,297.03063 311.36364,297.03063 L 320.15508,283.11085 L 334.07487,277.24988 L 339.20321,275.05202"
         id="path15340"
         style="fill:none;fill-opacity:0.75;fill-rule:evenodd;stroke:#000000;stroke-width:8.10000038;stroke-linecap:butt;stroke-linejoin:miter;stroke-miterlimit:4;stroke-opacity:1" />
      <path
         d="M 303.30481,307.28732 L 321.62032,323.40496 L 323.08556,341.72047"
         id="path17622"
         style="fill:none;fill-opacity:0.75;fill-rule:evenodd;stroke:#000000;stroke-width:8.10000038;stroke-linecap:butt;stroke-linejoin:miter;stroke-miterlimit:4;stroke-opacity:1" />
    </g>
  </g>
  <g
     id="layer2"
     style="display:none"
     transform="translate(-88.47493,-383.76122)" />
</svg>
