<?xml version="1.0" encoding="UTF-8" standalone="no"?>
<!-- Created with Inkscape (http://www.inkscape.org/) -->
<svg
   xmlns:dc="http://purl.org/dc/elements/1.1/"
   xmlns:cc="http://creativecommons.org/ns#"
   xmlns:rdf="http://www.w3.org/1999/02/22-rdf-syntax-ns#"
   xmlns:svg="http://www.w3.org/2000/svg"
   xmlns="http://www.w3.org/2000/svg"
   xmlns:xlink="http://www.w3.org/1999/xlink"
   xmlns:sodipodi="http://sodipodi.sourceforge.net/DTD/sodipodi-0.dtd"
   xmlns:inkscape="http://www.inkscape.org/namespaces/inkscape"
   height="197.68202"
   width="299.99997"
   id="svg2"
   sodipodi:version="0.32"
   inkscape:version="0.46"
   version="1.0"
   sodipodi:docbase="D:\Documents and Settings\Joanna\My Documents\My Pictures\graph_vector"
   sodipodi:docname="papapishu_red_shoe.svg"
   inkscape:output_extension="org.inkscape.output.svg.inkscape"
   inkscape:export-filename="C:\joanna\Gfx\drawings_vector\red_high_heel.png"
   inkscape:export-xdpi="31.07715"
   inkscape:export-ydpi="31.07715">
  <defs
     id="defs4">
    <linearGradient
       inkscape:collect="always"
       id="linearGradient11096">
      <stop
         style="stop-color: rgb(41, 45, 44); stop-opacity: 1;"
         offset="0"
         id="stop11098" />
      <stop
         style="stop-color: rgb(151, 42, 63); stop-opacity: 1;"
         offset="1"
         id="stop11100" />
    </linearGradient>
    <linearGradient
       inkscape:collect="always"
       id="linearGradient10105">
      <stop
         style="stop-color: rgb(214, 124, 136); stop-opacity: 1;"
         offset="0"
         id="stop10107" />
      <stop
         style="stop-color: rgb(168, 28, 55); stop-opacity: 1;"
         offset="1"
         id="stop10109" />
    </linearGradient>
    <radialGradient
       inkscape:collect="always"
       xlink:href="#linearGradient11096"
       id="radialGradient2411"
       gradientUnits="userSpaceOnUse"
       gradientTransform="matrix(-0.419487,0.235849,-8.89207e-2,-0.158156,586.651,216.412)"
       cx="516.14465"
       cy="172.71954"
       fx="516.14465"
       fy="172.71954"
       r="188.41724" />
    <radialGradient
       inkscape:collect="always"
       xlink:href="#linearGradient10105"
       id="radialGradient2413"
       gradientUnits="userSpaceOnUse"
       gradientTransform="matrix(7.52799e-3,0.201443,-0.339835,1.26997e-2,391.531,316.193)"
       cx="246.49681"
       cy="432.23907"
       fx="246.49681"
       fy="432.23907"
       r="280.91379" />
    <radialGradient
       inkscape:collect="always"
       xlink:href="#linearGradient10105"
       id="radialGradient2415"
       gradientUnits="userSpaceOnUse"
       gradientTransform="matrix(-0.969074,0.648845,-0.242046,-0.361504,1148.96,-131.581)"
       cx="562.42041"
       cy="171.5202"
       fx="562.42041"
       fy="171.5202"
       r="121.2537" />
  </defs>
  <sodipodi:namedview
     id="base"
     pagecolor="#ffffff"
     bordercolor="#666666"
     borderopacity="1.0"
     inkscape:pageopacity="0.0"
     inkscape:pageshadow="2"
     inkscape:cx="450.71544"
     inkscape:cy="187.39371"
     inkscape:zoom="0.785"
     inkscape:document-units="px"
     inkscape:current-layer="layer3"
     height="500px"
     width="744.09448px"
     inkscape:window-width="1280"
     inkscape:window-height="778"
     inkscape:window-x="0"
     inkscape:window-y="25"
     showgrid="false" />
  <metadata
     id="metadata7">
    <rdf:RDF>
      <cc:Work
         rdf:about="">
        <dc:format>image/svg+xml</dc:format>
        <dc:type
           rdf:resource="http://purl.org/dc/dcmitype/StillImage" />
      </cc:Work>
    </rdf:RDF>
  </metadata>
  <g
     inkscape:groupmode="layer"
     inkscape:label="Warstwa 1"
     id="layer1"
     transform="translate(-85.010125,-252.28349)" />
  <g
     inkscape:groupmode="layer"
     id="layer2"
     inkscape:label="wyzsza"
     style="opacity:0"
     sodipodi:insensitive="true"
     transform="translate(-85.010125,-252.28349)">
    <rect
       style="opacity:1;fill:#d38d5f;fill-opacity:1;stroke:#000000;stroke-width:1;stroke-linejoin:round;stroke-miterlimit:4;stroke-dasharray:none;stroke-opacity:1"
       id="rect2237"
       width="665.6051"
       height="449.04459"
       x="38.21656"
       y="21.65605" />
    <path
       style="fill:none;fill-rule:evenodd;stroke:#000000;stroke-width:1px;stroke-linecap:butt;stroke-linejoin:miter;stroke-opacity:1"
       d="M 639.49045,223.56688 C 600.24668,249.28514 550.93911,261.88159 507.64331,287.89809 C 479.46577,308.58151 454.13474,333.30637 426.75159,368.7898 C 403.70637,394.51217 388.77513,423.36383 339.49045,440.12739 C 302.43465,444.47286 255.15825,438.59774 206.36943,431.21019 C 168.99967,421.44128 139.15949,419.20195 87.898089,395.5414 C 80.091667,373.62884 92.611814,364.78336 108.28025,357.96178 C 130.76382,347.44583 147.3326,344.81625 164.96815,340.76433 C 223.90289,326.44136 217.6719,323.75513 233.12102,317.19745 C 214.6358,330.47633 238.70324,335.23901 251.59236,337.57962 C 299.28756,344.83326 312.78905,333.98436 333.12102,326.75159 C 364.85144,313.88609 394.74644,278.99549 424.84076,246.49682 C 444.23711,223.22947 468.09296,198.84725 494.26752,173.88535 C 527.06993,142.01164 563.58963,111.06726 603.18471,80.89172 C 616.90685,97.868559 628.71071,117.24324 635.66879,142.67516 C 642.77298,169.63907 653.52392,196.60297 639.49045,223.56688 z"
       id="path2240"
       sodipodi:nodetypes="cccccccccccccccc" />
  </g>
  <g
     inkscape:groupmode="layer"
     id="layer3"
     inkscape:label="najwyzsza"
     transform="translate(-85.010125,-252.28349)">
    <g
       id="g2403"
       transform="matrix(0.5339716,0,0,0.5339716,39.617131,209.6967)">
      <path
         sodipodi:nodetypes="cccccccc"
         id="path2244"
         d="M 602.54777,80.254777 L 466.24204,184.71338 C 444.66208,206.43754 409.42151,234.99201 367.51592,266.87898 C 328.40133,307.06709 281.05626,315.70506 231.84713,317.19745 C 212.51806,335.23327 251.65024,336.82687 284.71337,340.12739 C 336.4112,333.99561 375.66736,306.09093 407.00636,264.33121 C 434.57861,234.09073 463.76661,203.04238 498.08917,169.42675 C 537.33284,133.80392 567.86823,109.79212 602.54777,80.254777 z"
         style="fill:url(#radialGradient2411);fill-opacity:1;fill-rule:evenodd;stroke:#000000;stroke-width:1px;stroke-linecap:butt;stroke-linejoin:miter;stroke-opacity:1" />
      <path
         sodipodi:nodetypes="cccccccccc"
         id="path3220"
         d="M 639.49045,222.92994 C 632.20692,238.15172 624.26665,252.71676 615.28662,266.24204 C 603.16594,280.72779 596.46982,296.56968 591.0828,312.73885 C 582.93414,333.67724 575.35215,355.1823 573.88535,382.80255 L 571.33758,424.84076 L 554.14013,424.84076 C 552.06598,396.4478 551.65893,377.22387 546.49682,331.84713 C 543.36196,311.53622 543.4686,287.42761 509.55414,287.89809 C 534.06983,273.5403 555.73746,262.97992 575.15924,255.41401 C 598.60548,245.08661 622.6159,234.90026 639.49045,222.92994 z"
         style="opacity:1;fill:#972a3f;fill-opacity:1;fill-rule:evenodd;stroke:#000000;stroke-width:1px;stroke-linecap:butt;stroke-linejoin:miter;stroke-opacity:1" />
      <path
         sodipodi:nodetypes="ccccccccccccccc"
         id="path5161"
         d="M 87.261146,394.90446 C 84.99973,402.16923 94.459176,405.52706 101.91083,409.55414 C 140.88227,426.91664 177.18492,430.93521 214.64968,440.76433 C 263.4673,449.77005 296.38379,450.10241 326.75159,449.04459 C 353.76169,447.45278 385.70205,424.92561 397.45223,411.46496 C 422.47435,385.01598 435.04115,365.41618 450.95541,347.13376 C 476.59502,315.95391 495.83297,302.3467 512.10191,292.99363 C 523.67002,289.07084 529.63199,294.49162 536.30573,298.72611 C 531.00001,292.18513 523.92167,287.06224 510.19108,287.26115 C 489.93452,300.07779 470.79126,317.34763 452.2293,336.94268 C 430.771,362.61814 410.24861,389.2295 387.26115,413.3758 C 369.4755,429.30218 349.1753,440.70238 322.92994,441.40127 C 303.81492,442.99026 278.56012,441.50936 245.85987,436.30573 C 216.13588,435.66484 186.41189,426.79369 156.6879,419.74522 C 133.54565,414.54782 110.4034,406.88415 87.261146,394.90446 z"
         style="fill:#292d2c;fill-opacity:1;fill-rule:evenodd;stroke:#000000;stroke-width:1px;stroke-linecap:butt;stroke-linejoin:miter;stroke-opacity:1" />
      <path
         sodipodi:nodetypes="ccccc"
         id="path5163"
         d="M 554.14013,424.20382 L 554.14013,438.21657 L 572.61146,438.21656 L 571.97452,423.56688 L 554.14013,424.20382 z"
         style="fill:#292d2c;fill-opacity:1;fill-rule:evenodd;stroke:#000000;stroke-width:1px;stroke-linecap:butt;stroke-linejoin:miter;stroke-opacity:1" />
      <path
         style="opacity:1;fill:url(#radialGradient2413);fill-opacity:1;fill-rule:evenodd;stroke:#000000;stroke-width:1px;stroke-linecap:butt;stroke-linejoin:miter;stroke-opacity:1"
         d="M 639.49045,223.56688 C 600.24668,249.28514 550.93911,261.88159 507.64331,287.89809 C 479.46577,308.58151 454.13474,333.30637 426.75159,368.7898 C 403.70637,394.51217 388.77513,423.36383 339.49045,440.12739 C 302.43465,444.47286 255.15825,438.59774 206.36943,431.21019 C 168.99967,421.44128 139.15949,419.20195 87.898089,395.5414 C 80.091667,373.62884 92.611814,364.78336 108.28025,357.96178 C 130.76382,347.44583 147.3326,344.81625 164.96815,340.76433 C 223.90289,326.44136 217.6719,323.75513 233.12102,317.19745 C 214.6358,330.47633 238.70324,335.23901 251.59236,337.57962 C 299.28756,344.83326 312.78905,333.98436 333.12102,326.75159 C 364.85144,313.88609 394.74644,278.99549 424.84076,246.49682 C 444.23711,223.22947 468.09296,198.84725 494.26752,173.88535 C 527.06993,142.01164 563.58963,111.06726 603.18471,80.89172 C 616.90685,97.868559 628.71071,117.24324 635.66879,142.67516 C 642.77298,169.63907 653.52392,196.60297 639.49045,223.56688 z"
         id="path2242"
         sodipodi:nodetypes="cccccccccccccccc" />
      <path
         sodipodi:nodetypes="cccccccccc"
         id="path10113"
         d="M 606.36943,84.076433 C 605.73486,105.09614 606.02743,126.34762 612.10191,149.04459 C 609.78366,169.005 615.66951,190.33275 574.52229,203.82166 C 545.72078,209.53464 516.25764,214.1449 492.35669,228.02548 C 452.73846,255.02133 440.58769,275.15032 427.38854,295.5414 C 388.55694,332.39581 383.6536,329.14833 370.70064,324.84076 C 368.72276,316.74116 367.37471,308.27416 385.35032,288.53503 L 466.87898,200.63694 C 499.70927,166.94593 534.29793,134.13411 573.88535,103.82166 C 584.7729,96.823226 596.99488,80.48386 606.36943,84.076433 z"
         style="fill:url(#radialGradient2415);fill-opacity:1;fill-rule:evenodd;stroke:#000000;stroke-width:0pt;stroke-linecap:butt;stroke-linejoin:miter;stroke-miterlimit:4;stroke-dasharray:none;stroke-opacity:1" />
    </g>
  </g>
</svg>
