<?xml version="1.0" encoding="UTF-8" standalone="no"?>
<!-- Generator: Adobe Illustrator 13.0.1, SVG Export Plug-In . SVG Version: 6.00 Build 14948)  -->
<svg
   xmlns:a="http://ns.adobe.com/AdobeSVGViewerExtensions/3.0/"
   xmlns:dc="http://purl.org/dc/elements/1.1/"
   xmlns:cc="http://creativecommons.org/ns#"
   xmlns:rdf="http://www.w3.org/1999/02/22-rdf-syntax-ns#"
   xmlns:svg="http://www.w3.org/2000/svg"
   xmlns="http://www.w3.org/2000/svg"
   xmlns:xlink="http://www.w3.org/1999/xlink"
   xmlns:sodipodi="http://sodipodi.sourceforge.net/DTD/sodipodi-0.dtd"
   xmlns:inkscape="http://www.inkscape.org/namespaces/inkscape"
   version="1.0"
   id="svg10438"
   sodipodi:docname="TheresaKnott_handbag.svg"
   sodipodi:docbase="/home/theresa/pictures"
   sodipodi:version="0.32"
   inkscape:version="0.46"
   x="0px"
   y="0px"
   width="300"
   height="240.48636"
   viewBox="151.822 366.241 410.186 328.81"
   enable-background="new 151.822 366.241 410.186 328.81"
   xml:space="preserve"
   inkscape:output_extension="org.inkscape.output.svg.inkscape"><metadata
   id="metadata32"><rdf:RDF><cc:Work
       rdf:about=""><dc:format>image/svg+xml</dc:format><dc:type
         rdf:resource="http://purl.org/dc/dcmitype/StillImage" /></cc:Work></rdf:RDF></metadata><defs
   id="defs30"><inkscape:perspective
     sodipodi:type="inkscape:persp3d"
     inkscape:vp_x="0 : 164.405 : 1"
     inkscape:vp_y="0 : 1000 : 0"
     inkscape:vp_z="410.186 : 164.405 : 1"
     inkscape:persp3d-origin="205.093 : 109.60333 : 1"
     id="perspective34" /><radialGradient
     inkscape:collect="always"
     xlink:href="#path5115_1_"
     id="radialGradient2425"
     gradientUnits="userSpaceOnUse"
     gradientTransform="matrix(0.2224,4.92e-2,0.3462,-1.4549,345.398,539.009)"
     cx="-613.88037"
     cy="-73.266098"
     r="67.027802" /><linearGradient
     inkscape:collect="always"
     xlink:href="#path6918_1_"
     id="linearGradient2427"
     gradientUnits="userSpaceOnUse"
     gradientTransform="matrix(1.0158,0,0,-0.8046,-17.0652,518.986)"
     x1="287.00339"
     y1="112.3657"
     x2="309.18179"
     y2="103.4467" /><radialGradient
     inkscape:collect="always"
     xlink:href="#path7801_1_"
     id="radialGradient2429"
     gradientUnits="userSpaceOnUse"
     gradientTransform="matrix(0.8754,-0.1799,-0.9739,-1.4021,404.357,806.211)"
     cx="271.73291"
     cy="230.8779"
     r="37.3507" /></defs>
<sodipodi:namedview
   id="base"
   inkscape:pageopacity="0.0"
   inkscape:window-x="0"
   inkscape:current-layer="layer1"
   inkscape:window-y="25"
   pagecolor="#ffffff"
   inkscape:document-units="px"
   inkscape:cy="192.80058"
   borderopacity="1.0"
   bordercolor="#666666"
   inkscape:cx="122.33969"
   inkscape:window-height="825"
   inkscape:window-width="1440"
   inkscape:pageshadow="2"
   inkscape:zoom="0.98994949"
   showgrid="false">
	</sodipodi:namedview>
<g
   id="layer1"
   inkscape:groupmode="layer"
   inkscape:label="Layer 1"
   transform="translate(-1.6787369e-4,-88.323626)">
	
	
		
	
	
	
	
	
		<radialGradient
   id="path5115_1_"
   cx="-613.88037"
   cy="-73.266098"
   r="67.027802"
   gradientTransform="matrix(0.2224,4.92e-2,0.3462,-1.4549,345.398,539.009)"
   gradientUnits="userSpaceOnUse">
		<stop
   offset="0"
   style="stop-color: rgb(255, 255, 255);"
   id="stop12" />
		<stop
   offset="1"
   style="stop-color: rgb(255, 255, 255);"
   id="stop14" />
		<a:midPointStop
   offset="0"
   style="stop-color:#FFFFFF" />
		<a:midPointStop
   offset="0.5"
   style="stop-color:#FFFFFF" />
		<a:midPointStop
   offset="1"
   style="stop-color:#FFFFFF" />
	</radialGradient>
	
	
		<linearGradient
   id="path6918_1_"
   gradientUnits="userSpaceOnUse"
   x1="287.00339"
   y1="112.3657"
   x2="309.18179"
   y2="103.4467"
   gradientTransform="matrix(1.0158,0,0,-0.8046,-17.0652,518.986)">
		<stop
   offset="0"
   style="stop-color: rgb(255, 255, 254);"
   id="stop18" />
		<stop
   offset="1"
   style="stop-color: rgb(255, 255, 254);"
   id="stop20" />
		<a:midPointStop
   offset="0"
   style="stop-color:#FFFFFE" />
		<a:midPointStop
   offset="0.5"
   style="stop-color:#FFFFFE" />
		<a:midPointStop
   offset="1"
   style="stop-color:#FFFFFE" />
	</linearGradient>
	
	
		<radialGradient
   id="path7801_1_"
   cx="271.73291"
   cy="230.8779"
   r="37.3507"
   gradientTransform="matrix(0.8754,-0.1799,-0.9739,-1.4021,404.357,806.211)"
   gradientUnits="userSpaceOnUse">
		<stop
   offset="0"
   style="stop-color: rgb(255, 255, 255);"
   id="stop24" />
		<stop
   offset="1"
   style="stop-color: rgb(255, 255, 255);"
   id="stop26" />
		<a:midPointStop
   offset="0"
   style="stop-color:#FFFFFF" />
		<a:midPointStop
   offset="0.5"
   style="stop-color:#FFFFFF" />
		<a:midPointStop
   offset="1"
   style="stop-color:#FFFFFF" />
	</radialGradient>
	
	
		<g
   id="g2407"
   transform="matrix(0.9960066,0,0,0.9960066,0.6062898,89.789221)"><path
     d="M 225.758,693.007 C 225.4,692.718 212.541,692.205 197.182,691.866 C 171.677,691.305 168.75,691.05 163.416,688.926 C 156.021,685.984 152.734,681.097 151.915,671.831 C 151.259,664.415 154.158,646.31 158.134,633 C 161.462,621.856 167.355,597.349 173.004,571.151 C 175.572,559.246 178.511,546.488 179.535,542.804 C 180.559,539.118 183.451,526.944 185.96,515.749 C 188.47,504.555 191.167,494.443 191.954,493.279 C 192.74,492.116 194.958,490.688 196.883,490.106 C 200.936,488.882 205.145,489.285 231.253,493.398 C 241.791,495.057 251.321,496.416 252.431,496.416 C 255.086,496.416 256.041,494.219 260.052,478.885 C 273.129,428.893 280.881,404.643 286.943,394.763 C 295.041,381.567 306.931,372.978 323.058,368.674 C 329.227,367.028 334.349,366.533 345.231,366.533 C 361.142,366.533 370.093,368.365 379.613,373.569 C 385.304,376.68 388.789,378.383 396.482,383.731 C 400.34,386.412 405.975,391.454 410.939,395.618 C 418.766,402.18 427.718,416.282 435.951,435.012 C 454.757,477.794 462.351,493.169 465.431,494.709 C 466.807,495.396 471.258,494.972 479.653,493.353 C 497.703,489.873 515.584,487.356 517.075,488.087 C 519.524,489.285 521.018,494.198 526.243,518.255 C 529.115,531.473 538.301,568.496 546.655,600.528 C 559.842,651.076 561.868,660.155 561.996,669.254 C 562.156,680.829 560.677,683.758 552.895,687.275 C 547.12,689.884 480.646,691.377 355.235,691.711 C 296.547,691.867 243.551,692.341 237.468,692.764 C 231.385,693.187 226.115,693.295 225.758,693.007 z M 430.387,499.671 C 433.837,498.57 433.965,498.258 433.965,490.919 C 433.965,480.479 429.341,456.367 425.478,446.663 C 421.245,436.029 413.295,421.298 403.807,406.507 C 398.041,397.519 394.527,393.356 390.08,390.256 C 382.559,385.011 370.496,380.294 360.648,378.746 C 339.809,375.471 312.169,386.488 301.557,402.301 C 292.825,415.313 279.472,451.527 276.378,470.592 C 275.59,475.441 274.127,482.934 273.125,487.243 C 270.76,497.41 270.827,499.268 273.58,499.862 C 274.832,500.132 293.663,500.39 315.424,500.435 C 337.186,500.481 355.339,500.808 355.765,501.161 C 357.114,502.282 426.545,500.896 430.387,499.671 z"
     sodipodi:nodetypes="cssssssssssssssssssssssssssssccsssssssssssc"
     id="path2393"
     style="fill:#ff1e17" /><path
     d="M 262.831,497.534 L 270.497,498.506 C 270.497,498.506 276.629,452.601 288.281,426.368 C 295.427,410.278 302.385,396.979 314.343,389.935 C 326.301,382.892 337.032,379.734 339.486,379.248 C 341.939,378.762 333.66,374.147 327.834,375.605 C 322.009,377.062 300.852,388.235 298.706,392.364 C 296.559,396.493 278.163,453.086 276.016,459.401 C 273.869,465.716 262.831,498.02 262.831,497.534 z"
     enable-background="new    "
     sodipodi:nodetypes="ccssssssc"
     id="path8684"
     style="opacity:0.17300002;stroke:#000000;stroke-width:0.9041" /><path
     d="M 206.988,695.051 C 191.524,690.514 170.383,699.348 158.846,687.273 C 150.874,673.478 180.643,665.424 175.781,650.314 C 174.851,625.495 180.372,600.669 185.323,576.181 C 190.982,551.113 197.902,526.117 199.216,500.586 C 222.292,498.475 236.815,517.665 249.543,529.684 C 258.694,546.821 239.515,562.783 245.151,580.077 C 247.379,596.386 229.637,617.571 252.401,628.748 C 265.78,636.63 283.167,640.672 299.253,635.823 C 314.867,631.885 330.637,627.429 347.303,628.258 C 369.015,629.85 389.121,623.347 403.657,610.705 C 416.886,601.196 439.887,600.459 445.75,585.254 C 448.827,577.453 445.601,571.669 456.885,568.985 C 465.326,556.087 468.577,541.764 471.945,527.568 C 477.152,512.805 496.061,500.524 515.147,499.404 C 526.919,508.846 521.064,527.038 527.379,539.832 C 537.045,581.314 549.32,622.387 558.613,663.927 C 549.192,675.077 553.204,683.798 561.065,677.189 C 560.314,693.404 537.395,693.377 522.16,692.998 C 417.135,694.816 312.025,693.755 206.988,695.051 z M 193.673,688.586 C 222.819,686.875 252.051,691.731 281.131,688.458 C 329.933,688.07 378.878,690.305 427.549,686.939 C 435.8,689.085 456.86,683.057 437.374,682.174 C 399.99,682.317 362.471,677.143 325.292,682.183 C 304.497,682.89 283.828,680.425 262.942,680.922 C 240.006,678.909 217.27,681.359 195.085,686.031 C 187.035,685.447 161.457,692.525 183.164,689.791 C 186.681,689.472 190.188,689.083 193.673,688.586 z M 495.854,685.431 C 491.374,678.872 460.871,680.895 469.742,684.683 C 478.425,685.133 487.15,686.412 495.854,685.431 z"
     enable-background="new    "
     id="path2391"
     style="opacity:0.5405;fill:#b90000" /><path
     d="M 269.882,505.063 C 277.869,507.425 286.732,507.409 295.111,508.446 C 317.941,507.733 340.81,508.016 363.66,507.89 C 374.257,507.93 422.263,509.374 436.338,509.131 C 444.334,507.944 458.094,504.551 457.932,514.765 C 458.024,521.094 451.837,526.042 450.129,532.1 C 446.019,538.335 440.526,545.042 431.714,547.409 C 426.767,552.197 426.56,559.195 420.171,563.284 C 413.591,567.862 412.123,574.802 411.091,581.314 C 407.951,591.385 394.604,595.961 387.23,603.818 C 380.996,610.249 305.354,624.671 294.025,620.905 C 288.194,617.482 302.164,602.274 294.074,601.837 C 259.837,606.776 280.409,593.255 273.162,589.358 C 264.389,583.001 284.977,565.483 280.293,557.631 C 275.878,548.526 273.17,538.943 267.546,530.195 C 265.271,524.592 259.619,518.721 261.875,512.686 C 263.766,509.688 267.299,507.652 269.882,505.063 z"
     enable-background="new    "
     sodipodi:nodetypes="ccccccccccccccccc"
     id="path3329"
     style="opacity:0.23240003;fill:#ffffff" /><path
     d="M 510.347,492.172 C 492.28,493.836 474.592,501.231 456.261,497.713 C 439.774,498.064 425.17,506.041 408.441,505.046 C 368.653,506.5 328.792,504.314 289.028,504.14 C 264.24,501.302 239.347,500.147 214.975,495.238 C 208.267,494.377 196.343,491.3 193.523,498.485 C 187.92,526.161 180.428,553.627 174.507,581.284 C 168.574,608.722 160.315,635.908 155.907,663.512 C 154.511,671.876 155.581,683.832 168.107,686.19 C 181.135,689.104 195.013,686.322 208.243,688.23 C 256.455,689.478 304.665,686.81 352.891,687.525 C 417.799,687.142 482.937,688.028 547.637,683.775 C 558.536,680.47 555.442,669.315 554.351,662.249 C 546.269,617.677 531.364,574.072 522.178,529.629 C 519.203,517.032 516.296,504.421 512.747,491.915 L 511.456,492.054 L 510.347,492.172 z M 505.305,503.801 C 514.378,544.849 525.412,585.606 535.891,626.443 C 539.562,641.74 543.308,657.102 545.237,672.5 C 545.532,677.54 536.463,674.743 532.636,675.993 C 443.082,681.149 353.216,677.429 263.548,679.922 C 236.598,680.705 209.657,679.294 182.746,679.071 C 176.479,679.374 166.5,679.126 166.236,672.467 C 164.838,660.813 169.831,649.313 171.663,637.773 C 181.894,593.311 193.079,548.867 202.632,504.381 C 201.335,498.69 209.533,503.742 212.87,503.369 C 248.967,509.004 285.504,512.749 322.348,512.699 C 354.09,513.472 386,513.999 417.672,512.886 C 432.955,511.62 447.087,504.036 462.728,506.637 C 477.038,507.193 490.785,503.554 504.574,501.096 C 504.818,501.997 505.06,502.899 505.305,503.801 z"
     enable-background="new    "
     id="path5111"
     style="opacity:0.8595;fill-opacity:0.40860003" /><path
     d="M 510.717,494.206 C 494.616,495.857 478.867,501.43 462.529,500.777 C 450.939,496.531 426.675,507.356 417.757,506.64 C 375.817,509.183 333.667,506.04 291.654,506.479 C 282.563,505.583 258.567,502.814 250.338,502.549 C 236.057,501.277 221.985,498.191 207.842,496.299 C 203.134,495.789 195.856,495.003 195.927,500.197 C 192.714,517.554 187.355,534.928 183.809,552.382 C 176.029,587.411 167.16,622.326 159.206,657.298 C 158.607,665.385 155.611,675.595 163.191,682.07 C 174.81,688.189 189.983,683.822 203.043,685.967 C 245.921,687.814 288.839,684.881 331.749,685.549 C 402.815,685.153 474.241,685.982 545.039,682.101 C 554.817,681.237 553.211,671.097 552.237,665.577 C 546.107,627.155 533.036,589.605 524.666,551.447 C 520.079,532.371 515.912,513.123 510.717,494.206 z M 506.612,498.652 C 508.286,505.016 509.883,511.398 511.409,517.786 C 521.101,564.846 536.222,611.082 545.69,658.17 C 545.49,664.316 550.694,671.629 545.892,677.175 C 483.304,681.863 419.788,680.612 356.799,681.105 C 302.352,680.247 247.791,683.82 193.446,681.105 C 184.564,680.464 173.476,682.934 166.119,678.078 C 159.658,669.18 165.61,658.315 166.444,648.764 C 177.289,602.051 188.599,555.389 199.22,508.639 C 200.983,505.909 198.231,498.381 204.629,499.78 C 231.246,504.808 258.633,507.254 285.796,509.766 C 325.921,510.595 366.156,512.212 406.327,511.055 C 423.335,512.416 438.437,505.112 454.843,503.743 C 471.874,506.661 488.936,501.663 505.39,498.847 L 506.612,498.652 z"
     enable-background="new    "
     id="path4223"
     style="opacity:0.8595;fill:#ffffff" /><path
     d="M 192.011,475.949 C 192.054,483.041 194.915,498.139 194.941,510.451 C 194.97,523.984 194.973,536.068 192.524,550.364 C 190.355,563.025 186.655,567.424 184.725,578.692 C 182.912,589.278 178.242,599.345 176.221,611.14 C 174.402,621.759 167.997,634.252 164.857,643.075 C 161.017,653.868 164.208,665.309 165.987,670.884 C 171.258,687.397 182.363,665.417 189.879,651.817 C 195.217,642.158 196.267,632.045 196.249,623.232 C 196.229,613.824 205.092,581.872 205.071,571.729 C 205.044,558.774 200.966,509.142 199.565,500.665 C 197.65,489.09 201.233,487.256 192.011,475.949 z"
     enable-background="new    "
     sodipodi:nodetypes="cssssssssssc"
     id="path5115"
     style="opacity:0.83780003;fill:url(#radialGradient2425)" /><path
     d="M 325.457,370.733 C 325.457,370.733 302.053,382.096 296.013,388.077 C 289.973,394.058 277.138,426.951 275.251,431.735 C 273.363,436.519 266.945,471.207 263.926,478.085 C 260.906,484.962 257.508,491.242 256.376,496.026 C 255.746,498.688 263.548,496.026 263.548,496.026 C 263.548,496.026 273.362,461.638 274.495,454.461 C 275.627,447.284 287.33,416.484 290.727,407.514 C 294.125,398.543 301.297,384.489 309.225,381.498 C 317.152,378.508 325.834,371.032 325.457,370.733 z"
     sodipodi:nodetypes="csssscsssc"
     id="path6918"
     style="fill:url(#linearGradient2427)" /><path
     d="M 365.781,377.682 C 365.781,377.682 382.692,385.239 388.763,389.017 C 394.834,392.795 408.512,412.143 413.48,420.618 C 419.118,430.236 433.86,466.99 434.292,479.355 C 434.727,491.721 438.738,497.646 439.93,495.156 C 441.123,492.666 439.063,476.264 436.895,469.738 C 434.727,463.211 415.456,415.336 407.409,404.818 C 390.063,382.148 365.347,376.652 365.781,377.682 z"
     sodipodi:nodetypes="cssssssc"
     id="path7801"
     style="fill:url(#radialGradient2429)" /><path
     d="M 343.666,366.69 C 343.666,366.69 369.249,369.438 372.285,370.468 C 375.32,371.499 410.009,395.543 413.046,398.978 C 416.08,402.413 449.036,468.364 453.807,481.073 C 458.576,493.782 450.772,497.561 450.772,497.561 L 442.099,497.218 C 442.099,497.218 436.462,462.181 434.292,456.342 C 432.125,450.503 411.311,401.039 403.506,394.857 C 395.699,388.674 366.648,372.873 358.409,371.843 C 350.17,370.812 344.533,367.034 343.666,366.69 z"
     enable-background="new    "
     sodipodi:nodetypes="csssccsssc"
     id="path9559"
     style="opacity:0.24320003;stroke:#000000;stroke-width:0.9041" /></g>
</g>
</svg>