<?xml version="1.0" encoding="UTF-8" standalone="no"?>
<!DOCTYPE svg PUBLIC "-//W3C//DTD SVG 20010904//EN"
"http://www.w3.org/TR/2001/REC-SVG-20010904/DTD/svg10.dtd">
<!-- Created with Inkscape (http://www.inkscape.org/) --><svg height="160.00000pt" id="svg1" inkscape:version="0.39" sodipodi:docbase="/home/nicu/Desktop" sodipodi:docname="sunglasses.svg" sodipodi:version="0.32" width="160.00000pt" xmlns="http://www.w3.org/2000/svg" xmlns:cc="http://web.resource.org/cc/" xmlns:dc="http://purl.org/dc/elements/1.1/" xmlns:inkscape="http://www.inkscape.org/namespaces/inkscape" xmlns:rdf="http://www.w3.org/1999/02/22-rdf-syntax-ns#" xmlns:sodipodi="http://sodipodi.sourceforge.net/DTD/sodipodi-0.dtd" xmlns:xlink="http://www.w3.org/1999/xlink">
  <metadata>
    <rdf:RDF xmlns:cc="http://web.resource.org/cc/" xmlns:dc="http://purl.org/dc/elements/1.1/" xmlns:rdf="http://www.w3.org/1999/02/22-rdf-syntax-ns#">
      <cc:Work rdf:about="">
        <dc:title>Sunglasses</dc:title>
        <dc:description></dc:description>
        <dc:subject>
          <rdf:Bag>
            <rdf:li></rdf:li>
            <rdf:li>people</rdf:li>
            <rdf:li>clothing</rdf:li>
          </rdf:Bag>
        </dc:subject>
        <dc:publisher>
          <cc:Agent rdf:about="http://www.openclipart.org">
            <dc:title>Nicu Buculei</dc:title>
          </cc:Agent>
        </dc:publisher>
        <dc:creator>
          <cc:Agent>
            <dc:title>Nicu Buculei</dc:title>
          </cc:Agent>
        </dc:creator>
        <dc:rights>
          <cc:Agent>
            <dc:title>Nicu Buculei</dc:title>
          </cc:Agent>
        </dc:rights>
        <dc:date></dc:date>
        <dc:format>image/svg+xml</dc:format>
        <dc:type rdf:resource="http://purl.org/dc/dcmitype/StillImage"/>
        <cc:license rdf:resource="http://web.resource.org/cc/PublicDomain"/>
        <dc:language>en</dc:language>
      </cc:Work>
      <cc:License rdf:about="http://web.resource.org/cc/PublicDomain">
        <cc:permits rdf:resource="http://web.resource.org/cc/Reproduction"/>
        <cc:permits rdf:resource="http://web.resource.org/cc/Distribution"/>
        <cc:permits rdf:resource="http://web.resource.org/cc/DerivativeWorks"/>
      </cc:License>
    </rdf:RDF>
  </metadata>
  <defs id="defs3">
    <linearGradient id="linearGradient1239">
      <stop id="stop1240" offset="0.0000000" style="stop-color:#ffffff;stop-opacity:1.0000000;"/>
      <stop id="stop1242" offset="1.0000000" style="stop-color:#ffffff;stop-opacity:0.0000000;"/>
    </linearGradient>
    <linearGradient id="linearGradient1233">
      <stop id="stop1234" offset="0.0000000" style="stop-color:#000026;stop-opacity:1.0000000;"/>
      <stop id="stop1236" offset="0.54382116" style="stop-color:#3d001b;stop-opacity:1.0000000;"/>
      <stop id="stop1235" offset="1.0000000" style="stop-color:#000000;stop-opacity:1.0000000;"/>
    </linearGradient>
    <linearGradient id="linearGradient1053">
      <stop id="stop1054" offset="0.0000000" style="stop-color:#ffbb00;stop-opacity:1.0000000;"/>
      <stop id="stop1056" offset="1.0000000" style="stop-color:#ffe600;stop-opacity:1.0000000;"/>
    </linearGradient>
    <linearGradient id="linearGradient861">
      <stop id="stop862" offset="0.0000000" style="stop-color:#ffffff;stop-opacity:0.0000000;"/>
      <stop id="stop925" offset="0.50000000" style="stop-color:#ffffff;stop-opacity:0.15000001;"/>
      <stop id="stop863" offset="1.0000000" style="stop-color:#ffffff;stop-opacity:0.0000000;"/>
    </linearGradient>
    <linearGradient id="linearGradient864" x1="1.1666666" x2="-0.069444448" xlink:href="#linearGradient861" y1="0.031250000" y2="0.92968750"/>
    <linearGradient id="linearGradient1075" x1="0.91025639" x2="0.21794872" xlink:href="#linearGradient861" y1="0.10156250" y2="0.93750000"/>
    <linearGradient id="linearGradient1076" x1="1.0166667" x2="-0.36666667" xlink:href="#linearGradient861" y1="0.18750000" y2="0.90625000"/>
    <linearGradient id="linearGradient1077" x1="0.91975307" x2="-0.55555558" xlink:href="#linearGradient1053" y1="0.78906250" y2="-0.33593750"/>
    <linearGradient id="linearGradient1078" x1="0.14473684" x2="0.96052629" xlink:href="#linearGradient861" y1="0.093750000" y2="1.0156250"/>
    <linearGradient id="linearGradient1079" x1="0.40000001" x2="0.89999998" xlink:href="#linearGradient861" y1="0.078125000" y2="0.92968750"/>
    <linearGradient id="linearGradient1080" x1="-2.8371402e-15" x2="0.90625000" xlink:href="#linearGradient861" y1="0.093750000" y2="0.88281250"/>
    <linearGradient id="linearGradient1081" x1="0.16129032" x2="0.61290324" xlink:href="#linearGradient861" y1="0.070312500" y2="0.81250000"/>
    <linearGradient id="linearGradient1082" x1="0.15217391" x2="0.84347826" xlink:href="#linearGradient861" y1="0.046875000" y2="0.84375000"/>
    <linearGradient id="linearGradient971" x1="0.88059700" x2="-0.022388060" xlink:href="#linearGradient1053" y1="0.91406250" y2="-0.062500000"/>
    <linearGradient id="linearGradient1155" x1="-0.88571429" x2="0.78571427" xlink:href="#linearGradient861" y1="0.74218750" y2="0.14062500"/>
    <linearGradient id="linearGradient1157" x1="0.22101450" x2="0.63043481" xlink:href="#linearGradient861" y1="0.99107140" y2="0.63392860"/>
    <linearGradient id="linearGradient1205" x1="-1.4218750" x2="0.73437500" xlink:href="#linearGradient861" y1="0.88281250" y2="-0.078125000"/>
    <linearGradient id="linearGradient1207" x1="-1.0468750" x2="0.76562500" xlink:href="#linearGradient861" y1="0.90625000" y2="0.062500000"/>
    <linearGradient id="linearGradient1232" x1="0.48255813" x2="0.48255813" xlink:href="#linearGradient1233" y1="0.046875000" y2="1.0078125"/>
    <radialGradient cx="0.46875000" cy="0.53906250" fx="0.46875000" fy="0.53906250" id="radialGradient1238" r="0.46331483" xlink:href="#linearGradient1239"/>
  </defs>
  <sodipodi:namedview bordercolor="#666666" borderopacity="1.0" id="base" inkscape:cx="89.241333" inkscape:cy="89.150452" inkscape:pageopacity="0.0" inkscape:pageshadow="2" inkscape:window-height="721" inkscape:window-width="958" inkscape:window-x="54" inkscape:window-y="42" inkscape:zoom="1.0000000" pagecolor="#ffffff"/>
  <path d="M 1170.0161,146.17771 C 1170.0161,219.36107 1109.3477,278.75629 1034.5957,278.75629 C 959.84339,278.75629 899.17496,219.36107 899.17496,146.17771 C 899.17496,72.994319 959.84339,13.599125 1034.5957,13.599125 C 1109.3477,13.599125 1170.0161,72.994319 1170.0161,146.17771 z " id="path1237" style="fill:url(#radialGradient1238);fill-rule:evenodd;stroke:none;stroke-width:1.4055344;stroke-linejoin:round;"/>
  <g id="g890">
    <path d="M 178.63447,119.29540 C 178.63447,119.29540 149.60285,71.391818 143.91892,69.970834 C 142.97159,69.970833 141.16049,69.585806 140.68683,71.480451 C 140.68683,76.690727 173.89785,123.55835 177.21348,125.92667 C 180.05545,125.45300 179.10813,122.61103 178.63447,119.29540 z " id="path888" sodipodi:nodetypes="ccccc" style="fill:#0c0c0c;fill-rule:evenodd;stroke:#000000;stroke-width:1.0000000pt;"/>
    <path d="M 146.19396,71.527947 C 146.19396,71.527947 140.87563,61.005082 133.32475,57.586877 C 124.28372,52.957646 115.99309,54.845391 110.06625,59.001161 C 107.66238,61.690780 101.51188,65.119163 104.49538,69.620820 C 105.72663,71.450093 107.73803,72.179277 110.03931,71.280444 C 112.74111,69.190776 118.22444,54.906803 131.02388,63.551570 C 136.85612,67.012453 137.40015,70.069365 140.34953,72.560593 C 139.89652,73.907434 144.70424,68.528198 146.19396,71.527947 z " id="path889" sodipodi:nodetypes="cccccccc" style="fill-rule:evenodd;stroke:#000000;stroke-width:1.0000000pt;"/>
    <path d="M 23.209410,120.17531 C 23.209410,120.17531 52.241023,72.271724 57.924960,70.850740 C 58.872283,70.850739 60.683387,70.465712 61.157048,72.360357 C 61.157048,77.570633 27.946024,124.43826 24.630395,126.80658 C 21.788426,126.33291 22.735749,123.49094 23.209410,120.17531 z " id="path869" sodipodi:nodetypes="ccccc" style="fill:#0c0c0c;fill-rule:evenodd;stroke:#000000;stroke-width:1.0000000pt;"/>
    <path d="M 55.649920,72.407853 C 55.649920,72.407853 60.968244,61.884988 68.519123,58.466783 C 77.560160,53.837552 85.850786,55.725297 91.777632,59.881067 C 94.181501,62.570686 100.33200,65.999069 97.348496,70.500726 C 96.117247,72.329999 94.105844,73.059183 91.804570,72.160350 C 89.102764,70.070682 83.619439,55.786709 70.820002,64.431476 C 64.987761,67.892359 64.443724,70.949271 61.494352,73.440499 C 61.947362,74.787340 57.139638,69.408104 55.649920,72.407853 z " id="path870" sodipodi:nodetypes="cccccccc" style="fill-rule:evenodd;stroke:#000000;stroke-width:1.0000000pt;"/>
    <g id="g1208" style="" transform="translate(165.6113,-33.13730)">
      <g id="g1194" transform="translate(-285.0000,13.75000)">
        <path d="M 220.15625,134.09375 C 218.18661,134.07463 216.19714,134.29023 214.37500,134.93750 C 212.55286,135.58477 210.71531,136.74050 209.87500,138.78125 L 212.86772,140.95955 C 212.97957,140.68790 215.00540,139.98941 216.03125,139.62500 C 217.05710,139.26059 218.56078,139.07887 220.09375,139.09375 C 221.62672,139.10863 223.20403,139.31626 224.40625,139.65625 C 225.60847,139.99624 226.38470,140.62932 226.28125,140.50000 L 230.18750,137.37500 C 228.99586,135.88545 227.49503,135.32841 225.78125,134.84375 C 224.06747,134.35909 222.12589,134.11287 220.15625,134.09375 z " id="path1193" sodipodi:nodetypes="ccccccccccc" style="fill:#0c0c0c;fill-rule:evenodd;stroke:#000000;stroke-opacity:1.0000000;stroke-width:1.2500000;stroke-linejoin:round;stroke-linecap:butt;fill-opacity:1.0000000;stroke-dasharray:none;"/>
        <g id="g1184" style="fill:#040405;fill-opacity:1.0000000;" transform="translate(195.6018,16.32283)">
          <path d="M -39.400594,111.64150 C -26.040974,104.40213 -9.9205843,104.88459 4.8994457,106.14959 C 16.253796,106.94900 17.246626,114.92925 16.251556,125.29172 C 16.201536,132.37212 13.462146,140.32898 6.2822657,143.05030 C -4.0075343,146.42629 -15.195474,146.20886 -25.870394,145.18021 C -35.240424,144.04829 -42.472334,136.35541 -44.265164,127.91260 C -44.957864,122.81758 -45.901474,115.48637 -39.400594,111.64150 z " id="path1182" sodipodi:nodetypes="ccccccc" style="fill:#000000;fill-rule:evenodd;stroke:none;stroke-opacity:1;stroke-width:1pt;stroke-linejoin:miter;stroke-linecap:butt;fill-opacity:0.80000001;"/>
          <path d="M -45.443144,122.32679 C -45.443144,117.42415 -50.961044,121.98998 -53.137424,123.57238 C -54.225614,124.53860 -54.778254,128.74086 -53.690064,129.88931 C -52.757874,131.52160 -48.252274,130.16136 -46.267834,130.16136 C -44.252134,128.14566 -45.679334,125.37907 -45.443144,122.32679 z " id="path1181" sodipodi:nodetypes="ccccc" style="fill:#0c0c0c;fill-rule:evenodd;stroke:black;stroke-opacity:1;stroke-width:1pt;stroke-linejoin:miter;stroke-linecap:butt;fill-opacity:1.0000000;"/>
          <path d="M -7.0371643,103.73776 C -18.664624,103.39048 -30.681274,104.49060 -41.287164,110.23776 C -41.308142,110.24788 -41.328978,110.25830 -41.349664,110.26901 C -45.244984,112.57285 -47.119944,116.22325 -47.693414,119.67526 C -48.266884,123.12727 -47.759664,126.49430 -47.412164,129.05026 C -47.403410,129.10266 -47.392988,129.15477 -47.380914,129.20651 C -45.368434,138.68372 -37.406574,147.18121 -26.849664,148.45651 C -26.828832,148.45677 -26.807997,148.45677 -26.787164,148.45651 C -15.979724,149.49793 -4.4609443,149.75975 6.3690857,146.20651 C 6.4110139,146.19716 6.4526944,146.18674 6.4940857,146.17526 C 10.740586,144.56575 13.691236,141.35449 15.494086,137.70651 C 17.263226,134.12673 17.972346,130.12411 18.025336,126.33151 L 18.056586,126.33151 C 18.063876,126.25560 18.049456,126.18852 18.056586,126.11276 C 18.549086,120.87850 18.674876,115.99872 16.806586,111.89401 C 14.911256,107.72989 10.653786,104.89679 4.4003357,104.45651 C 0.67047573,104.13814 -3.1613443,103.85352 -7.0371643,103.73776 z M -7.1309143,108.73776 C -3.4020143,108.84174 0.31392573,109.11113 3.9940857,109.42526 C 4.0149182,109.42552 4.0357532,109.42552 4.0565857,109.42526 C 9.1574857,109.78439 11.053176,111.34003 12.244086,113.95651 C 13.434996,116.57299 13.571976,120.78981 13.087836,125.83151 C 13.074200,125.90393 13.063774,125.97691 13.056586,126.05026 C 13.033806,129.27469 12.399656,132.70688 11.025336,135.48776 C 9.6551057,138.26037 7.6631857,140.37327 4.7440857,141.48776 C 4.7353757,141.49108 4.7215557,141.48445 4.7128357,141.48776 C -5.0124543,144.65480 -15.809784,144.50039 -26.318414,143.48776 C -34.487234,142.50095 -40.887254,135.60015 -42.474664,128.20651 C -42.477454,128.19353 -42.503154,128.18824 -42.505914,128.17526 C -42.842164,125.68161 -43.153014,122.90936 -42.755914,120.51901 C -42.353844,118.09873 -41.418134,116.17625 -38.880914,114.64401 C -29.447364,109.53212 -18.317614,108.42581 -7.1309143,108.73776 z " id="path1183" style="fill:#0c0c0c;fill-rule:evenodd;stroke:#000000;stroke-opacity:1.0000000;stroke-width:1.2500000;stroke-linejoin:round;stroke-linecap:butt;fill-opacity:1.0000000;stroke-dasharray:none;"/>
        </g>
        <g id="g1188" style="fill:#040405;fill-opacity:1.0000000;" transform="matrix(-1.000000,0.000000,0.000000,1.000000,244.5703,14.69236)">
          <path d="M -39.400594,111.64150 C -26.040974,104.40213 -9.9205843,104.88459 4.8994457,106.14959 C 16.253796,106.94900 17.246626,114.92925 16.251556,125.29172 C 16.201536,132.37212 13.462146,140.32898 6.2822657,143.05030 C -4.0075343,146.42629 -15.195474,146.20886 -25.870394,145.18021 C -35.240424,144.04829 -42.472334,136.35541 -44.265164,127.91260 C -44.957864,122.81758 -45.901474,115.48637 -39.400594,111.64150 z " id="path1189" sodipodi:nodetypes="ccccccc" style="fill:#000000;fill-rule:evenodd;stroke:none;stroke-opacity:1;stroke-width:1pt;stroke-linejoin:miter;stroke-linecap:butt;fill-opacity:0.80000001;"/>
          <path d="M -45.443144,122.32679 C -45.443144,117.42415 -50.961044,121.98998 -53.137424,123.57238 C -54.225614,124.53860 -54.778254,128.74086 -53.690064,129.88931 C -52.757874,131.52160 -48.252274,130.16136 -46.267834,130.16136 C -44.252134,128.14566 -45.679334,125.37907 -45.443144,122.32679 z " id="path1191" sodipodi:nodetypes="ccccc" style="fill:#0c0c0c;fill-rule:evenodd;stroke:black;stroke-opacity:1;stroke-width:1pt;stroke-linejoin:miter;stroke-linecap:butt;fill-opacity:1.0000000;"/>
          <path d="M -7.0371643,103.73776 C -18.664624,103.39048 -30.681274,104.49060 -41.287164,110.23776 C -41.308142,110.24788 -41.328978,110.25830 -41.349664,110.26901 C -45.244984,112.57285 -47.119944,116.22325 -47.693414,119.67526 C -48.266884,123.12727 -47.759664,126.49430 -47.412164,129.05026 C -47.403410,129.10266 -47.392988,129.15477 -47.380914,129.20651 C -45.368434,138.68372 -37.406574,147.18121 -26.849664,148.45651 C -26.828832,148.45677 -26.807997,148.45677 -26.787164,148.45651 C -15.979724,149.49793 -4.4609443,149.75975 6.3690857,146.20651 C 6.4110139,146.19716 6.4526944,146.18674 6.4940857,146.17526 C 10.740586,144.56575 13.691236,141.35449 15.494086,137.70651 C 17.263226,134.12673 17.972346,130.12411 18.025336,126.33151 L 18.056586,126.33151 C 18.063876,126.25560 18.049456,126.18852 18.056586,126.11276 C 18.549086,120.87850 18.674876,115.99872 16.806586,111.89401 C 14.911256,107.72989 10.653786,104.89679 4.4003357,104.45651 C 0.67047573,104.13814 -3.1613443,103.85352 -7.0371643,103.73776 z M -7.1309143,108.73776 C -3.4020143,108.84174 0.31392573,109.11113 3.9940857,109.42526 C 4.0149182,109.42552 4.0357532,109.42552 4.0565857,109.42526 C 9.1574857,109.78439 11.053176,111.34003 12.244086,113.95651 C 13.434996,116.57299 13.571976,120.78981 13.087836,125.83151 C 13.074200,125.90393 13.063774,125.97691 13.056586,126.05026 C 13.033806,129.27469 12.399656,132.70688 11.025336,135.48776 C 9.6551057,138.26037 7.6631857,140.37327 4.7440857,141.48776 C 4.7353757,141.49108 4.7215557,141.48445 4.7128357,141.48776 C -5.0124543,144.65480 -15.809784,144.50039 -26.318414,143.48776 C -34.487234,142.50095 -40.887254,135.60015 -42.474664,128.20651 C -42.477454,128.19353 -42.503154,128.18824 -42.505914,128.17526 C -42.842164,125.68161 -43.153014,122.90936 -42.755914,120.51901 C -42.353844,118.09873 -41.418134,116.17625 -38.880914,114.64401 C -29.447364,109.53212 -18.317614,108.42581 -7.1309143,108.73776 z " id="path1190" style="fill:#0c0c0c;fill-rule:evenodd;stroke:#000000;stroke-opacity:1.0000000;stroke-width:1.2500000;stroke-linejoin:round;stroke-linecap:butt;fill-opacity:1.0000000;stroke-dasharray:none;"/>
        </g>
      </g>
      <path d="M -118.41536,142.08428 C -120.07317,142.55794 -125.75710,143.74209 -129.54640,146.82089 C -132.86203,150.37335 -131.44105,161.03074 -127.17810,165.29369 C -125.04661,168.84615 -121.49416,172.16178 -116.99437,172.39861 C -114.86290,171.45129 -123.38880,150.13652 -118.41536,142.08428 z " id="path1204" sodipodi:nodetypes="ccccc" style="fill:url(#linearGradient1205);fill-rule:evenodd;stroke:none;stroke-opacity:1;stroke-width:1pt;stroke-linejoin:miter;stroke-linecap:butt;fill-opacity:1;"/>
      <path d="M -51.155434,141.37378 C -53.286910,145.39991 -54.234234,159.84658 -49.260788,165.53052 C -44.524174,170.74079 -41.445375,169.79348 -38.603406,170.26713 C -34.814115,168.13566 -43.340020,142.55794 -38.129745,139.24231 C -42.155867,137.82132 -49.734449,139.24231 -51.155434,141.37378 z " id="path1206" sodipodi:nodetypes="ccccc" style="fill:url(#linearGradient1207);fill-rule:evenodd;stroke:none;stroke-opacity:1;stroke-width:1pt;stroke-linejoin:miter;stroke-linecap:butt;fill-opacity:1;"/>
    </g>
  </g>
</svg>
