<?xml version="1.0" encoding="UTF-8" standalone="no"?>
<!DOCTYPE svg PUBLIC "-//W3C//DTD SVG 20010904//EN"
"http://www.w3.org/TR/2001/REC-SVG-20010904/DTD/svg10.dtd">
<!-- Created with Inkscape (http://www.inkscape.org/) --><svg height="160.00000pt" id="svg1" inkscape:version="0.39" sodipodi:docbase="/home/nicu/Desktop/camel" sodipodi:docname="t-shirt.svg" sodipodi:version="0.32" width="160.00000pt" xmlns="http://www.w3.org/2000/svg" xmlns:cc="http://web.resource.org/cc/" xmlns:dc="http://purl.org/dc/elements/1.1/" xmlns:inkscape="http://www.inkscape.org/namespaces/inkscape" xmlns:rdf="http://www.w3.org/1999/02/22-rdf-syntax-ns#" xmlns:sodipodi="http://sodipodi.sourceforge.net/DTD/sodipodi-0.dtd" xmlns:xlink="http://www.w3.org/1999/xlink">
  <metadata>
    <rdf:RDF xmlns:cc="http://web.resource.org/cc/" xmlns:dc="http://purl.org/dc/elements/1.1/" xmlns:rdf="http://www.w3.org/1999/02/22-rdf-syntax-ns#">
      <cc:Work rdf:about="">
        <dc:title>t-shirt</dc:title>
        <dc:description></dc:description>
        <dc:subject>
          <rdf:Bag>
            <rdf:li></rdf:li>
            <rdf:li>people</rdf:li>
            <rdf:li>clothing</rdf:li>
          </rdf:Bag>
        </dc:subject>
        <dc:publisher>
          <cc:Agent rdf:about="http://www.openclipart.org">
            <dc:title>Nicu Buculei</dc:title>
          </cc:Agent>
        </dc:publisher>
        <dc:creator>
          <cc:Agent>
            <dc:title>Nicu Buculei</dc:title>
          </cc:Agent>
        </dc:creator>
        <dc:rights>
          <cc:Agent>
            <dc:title>Nicu Buculei</dc:title>
          </cc:Agent>
        </dc:rights>
        <dc:date></dc:date>
        <dc:format>image/svg+xml</dc:format>
        <dc:type rdf:resource="http://purl.org/dc/dcmitype/StillImage"/>
        <cc:license rdf:resource="http://web.resource.org/cc/PublicDomain"/>
        <dc:language>en</dc:language>
      </cc:Work>
      <cc:License rdf:about="http://web.resource.org/cc/PublicDomain">
        <cc:permits rdf:resource="http://web.resource.org/cc/Reproduction"/>
        <cc:permits rdf:resource="http://web.resource.org/cc/Distribution"/>
        <cc:permits rdf:resource="http://web.resource.org/cc/DerivativeWorks"/>
      </cc:License>
    </rdf:RDF>
  </metadata>
  <defs id="defs3"/>
  <sodipodi:namedview bordercolor="#666666" borderopacity="1.0" id="base" inkscape:cx="80.000000" inkscape:cy="80.000000" inkscape:pageopacity="0.0" inkscape:pageshadow="2" inkscape:window-height="725" inkscape:window-width="903" inkscape:window-x="140" inkscape:window-y="76" inkscape:zoom="1.0000000" pagecolor="#ffffff"/>
  <g id="g2776">
    <path d="M 7.7954843,97.974423 C 10.290914,101.81355 36.652504,113.09481 44.368044,110.75406 C 47.284684,107.83740 47.015394,94.483303 48.743004,91.066763 C 52.966024,104.35035 43.905434,176.72080 43.638884,188.04489 C 54.889704,195.91369 138.80798,195.06855 158.53939,190.38567 C 161.57065,186.08665 151.24785,122.39154 152.28354,93.254223 C 154.27906,96.173613 155.41755,103.83339 155.92932,107.10824 C 164.06882,109.44904 193.65360,102.73332 195.84116,99.087513 C 195.91708,91.794533 175.61660,35.650683 170.51254,32.734053 C 164.77517,27.791123 130.05190,15.832923 125.11278,10.383413 C 123.97301,9.7463729 123.07258,8.1345329 122.43935,7.2134929 C 116.74041,9.8384729 88.647894,10.866243 83.420964,6.7752829 C 82.157664,8.2877229 82.291434,9.2537129 80.391344,10.126563 C 76.745544,10.126563 44.565484,25.402433 33.853244,34.039083 C 26.123564,43.208163 6.4531543,93.330193 7.7954843,97.974423 z " id="path2773" sodipodi:nodetypes="ccccccccccccccc" style="fill:#000000;fill-opacity:1.0000000;fill-rule:evenodd;stroke:none;stroke-width:3.7500000;stroke-linecap:butt;stroke-linejoin:round;stroke-miterlimit:4.0000000;stroke-opacity:1.0000000;"/>
    <path d="M 83.031250,4.5937500 C 77.453404,12.463182 62.437934,15.158085 53.167383,21.490685 C 44.010674,27.093993 32.007139,30.442347 27.666035,41.250980 C 18.785770,59.284699 10.555505,76.491767 5.7812500,96.062500 C 8.8870275,105.39955 22.528072,106.92179 30.846025,110.68957 C 33.644061,111.42432 39.435242,113.05978 43.115415,112.20193 C 46.081301,109.55837 46.936179,104.42150 48.433036,95.540179 C 52.511675,112.83820 43.036832,161.40210 41.815119,188.58266 C 49.433004,194.91429 64.453874,192.83444 75.563400,194.10610 C 103.40547,195.01359 135.52510,193.60707 161.31250,192.62054 C 160.14849,183.30475 158.78480,171.34505 158.99167,161.52939 C 157.18945,143.68806 154.11626,126.56793 153.20982,108.65179 C 152.62917,107.44883 152.80090,100.60677 152.41175,97.205156 C 154.87974,102.37497 156.42972,108.48522 156.46272,109.61542 C 161.88585,108.66155 179.81248,106.35896 184.73660,105.34385 C 189.96351,105.04525 194.82047,104.39438 197.58117,102.27144 C 197.48472,99.791352 196.00629,95.124917 194.99096,87.509481 C 188.81038,68.759590 182.73650,49.678921 173.00000,32.437500 C 163.89311,24.664269 150.62612,23.017229 140.02736,17.587830 C 130.68899,14.948988 127.49717,10.077601 121.09821,6.2991071 C 109.31378,9.5723116 96.838625,10.888272 83.031250,4.5937500 z M 83.968750,8.4553571 C 96.028915,11.993357 109.25711,11.530142 121.46875,9.0625000 C 129.97127,18.101039 143.53859,19.761492 154.38778,25.262037 C 165.47617,28.482058 175.27096,36.554505 177.86454,48.348998 C 184.38622,64.574540 190.99574,82.742574 194.75893,99.848214 C 183.48630,104.81683 169.70940,105.64196 157.37500,105.12500 C 158.55225,98.899119 150.08766,83.656738 150.17520,97.258754 C 150.23453,127.78164 157.83218,159.72825 158.36607,190.19196 C 128.12167,192.40643 95.155068,193.39840 64.720718,191.46181 C 54.214323,190.89953 39.764047,189.41042 46.078415,174.97675 C 48.173794,148.06888 52.704211,120.73302 51.120531,93.704532 C 45.963351,80.593055 45.278069,104.08134 43.093750,108.68750 C 31.124419,108.42810 17.961136,104.33032 8.0401786,97.915179 C 12.933752,78.116692 21.953032,57.749529 31.184833,39.599591 C 37.178992,29.246689 50.018678,26.187495 59.754464,20.218750 C 67.000744,15.432631 77.575769,13.878980 83.968750,8.4553571 z " id="path909" sodipodi:nodetypes="ccccccccccccccccccccccccccccccccccccc" style="fill:#000000;fill-opacity:1.0000000;fill-rule:evenodd;stroke:none;stroke-width:3.7500000;stroke-linecap:butt;stroke-linejoin:round;stroke-miterlimit:4.0000000;stroke-opacity:1.0000000;"/>
  </g>
</svg>
