<?xml version="1.0" encoding="UTF-8" standalone="no"?>
<!-- Created with Inkscape (http://www.inkscape.org/) -->
<svg
   xmlns:dc="http://purl.org/dc/elements/1.1/"
   xmlns:cc="http://creativecommons.org/ns#"
   xmlns:rdf="http://www.w3.org/1999/02/22-rdf-syntax-ns#"
   xmlns:svg="http://www.w3.org/2000/svg"
   xmlns="http://www.w3.org/2000/svg"
   xmlns:xlink="http://www.w3.org/1999/xlink"
   xmlns:sodipodi="http://sodipodi.sourceforge.net/DTD/sodipodi-0.dtd"
   xmlns:inkscape="http://www.inkscape.org/namespaces/inkscape"
   width="154.2556"
   height="292.90991"
   id="svg2414"
   sodipodi:version="0.32"
   inkscape:version="0.46"
   version="1.0"
   sodipodi:docbase="/home/frederik/bilder/clipart_freedo"
   sodipodi:docname="freedo_Top_and_Skirt.svg"
   inkscape:output_extension="org.inkscape.output.svg.inkscape">
  <defs
     id="defs2416">
    <linearGradient
       inkscape:collect="always"
       xlink:href="#linearGradient1855"
       id="linearGradient1847"
       x1="211.87978"
       y1="701.64673"
       x2="199.0697"
       y2="688.99432"
       spreadMethod="pad"
       gradientTransform="scale(1.24157, 0.805431)"
       gradientUnits="userSpaceOnUse" />
    <linearGradient
       id="linearGradient1855">
      <stop
         style="stop-color: rgb(209, 209, 209); stop-opacity: 1;"
         offset="0.00000000"
         id="stop1856" />
      <stop
         style="stop-color: rgb(190, 190, 190); stop-opacity: 1;"
         offset="0.50000000"
         id="stop1857" />
      <stop
         style="stop-color: rgb(255, 255, 255); stop-opacity: 1;"
         offset="1.0000000"
         id="stop1858" />
    </linearGradient>
    <linearGradient
       inkscape:collect="always"
       xlink:href="#linearGradient1855"
       id="linearGradient1842"
       x1="200.72862"
       y1="681.74915"
       x2="208.7767"
       y2="684.57544"
       spreadMethod="reflect"
       gradientTransform="scale(1.24157, 0.805431)"
       gradientUnits="userSpaceOnUse" />
  </defs>
  <sodipodi:namedview
     id="base"
     pagecolor="#ffffff"
     bordercolor="#666666"
     borderopacity="1.0"
     inkscape:pageopacity="0.0"
     inkscape:pageshadow="2"
     inkscape:zoom="2.1836142"
     inkscape:cx="135.59446"
     inkscape:cy="172.66203"
     inkscape:document-units="px"
     inkscape:current-layer="layer1"
     inkscape:window-width="1280"
     inkscape:window-height="821"
     inkscape:window-x="0"
     inkscape:window-y="25"
     showgrid="false" />
  <metadata
     id="metadata2419">
    <rdf:RDF>
      <cc:Work
         rdf:about="">
        <dc:format>image/svg+xml</dc:format>
        <dc:type
           rdf:resource="http://purl.org/dc/dcmitype/StillImage" />
        <dc:title>Top and Skirt</dc:title>
        <dc:date>207-03-23</dc:date>
        <dc:creator>
          <cc:Agent>
            <dc:title>Frederik Elwert</dc:title>
          </cc:Agent>
        </dc:creator>
        <dc:subject>
          <rdf:Bag>
            <rdf:li>skirt</rdf:li>
            <rdf:li>top</rdf:li>
            <rdf:li>clothes</rdf:li>
          </rdf:Bag>
        </dc:subject>
        <cc:license
           rdf:resource="http://web.resource.org/cc/PublicDomain" />
      </cc:Work>
      <cc:License
         rdf:about="http://web.resource.org/cc/PublicDomain">
        <cc:permits
           rdf:resource="http://web.resource.org/cc/Reproduction" />
        <cc:permits
           rdf:resource="http://web.resource.org/cc/Distribution" />
        <cc:permits
           rdf:resource="http://web.resource.org/cc/DerivativeWorks" />
      </cc:License>
    </rdf:RDF>
  </metadata>
  <g
     inkscape:label="Ebene 1"
     inkscape:groupmode="layer"
     id="layer1"
     transform="translate(-272.872, -385.907)">
    <g
       id="g1852"
       transform="translate(-12.8439, 87.5666)">
      <path
         style="fill: rgb(0, 0, 0); fill-opacity: 1; fill-rule: evenodd; stroke: none; stroke-width: 1pt; stroke-linecap: butt; stroke-linejoin: miter; stroke-opacity: 1;"
         d="M 322.5,317.34375 C 312.87353,324.2198 301.20463,330.55157 293.59375,339.25 C 289.76711,343.62344 286.88274,348.55544 286,354.5625 C 285.95708,354.83751 285.94107,355.12687 285.90625,355.40625 C 285.79943,356.32718 285.73543,357.24948 285.71875,358.21875 C 285.70399,358.84703 285.75524,359.50618 285.78125,360.15625 C 285.81402,360.89186 285.82033,361.61114 285.90625,362.375 C 285.91215,362.42872 285.90007,362.47738 285.90625,362.53125 C 286.07045,363.93742 286.30171,365.36821 286.65625,366.875 C 289.42367,378.63652 301.17677,398.17341 304.78125,416.40625 C 305.68177,420.96511 306.07415,425.43333 305.6875,429.6875 C 305.55868,431.10549 305.34283,432.51182 305.03125,433.875 C 305.78863,433.91486 307.16091,433.93092 308,433.96875 C 308.155,433.43905 308.34208,432.96434 308.5,432.4375 C 324.23634,425.95713 358.72339,423.31876 409,424.21875 C 409.18914,424.5282 409.27399,424.71328 409.46875,425.03125 C 410.82247,424.74267 412.10039,424.52472 413.46875,424.21875 C 402.87487,397.42245 415.72583,390.03457 420.9375,370.9375 C 421.51905,368.80653 421.90512,366.83583 422.15625,364.96875 C 422.1911,364.71015 422.1898,364.47264 422.21875,364.21875 C 422.39002,362.71288 422.46134,361.28696 422.4375,359.9375 C 422.42999,359.51155 422.40049,359.099 422.375,358.6875 C 422.30089,357.49421 422.15178,356.36161 421.9375,355.28125 C 421.87855,354.98222 421.8501,354.66601 421.78125,354.375 C 421.48673,353.13731 421.11329,351.94961 420.65625,350.84375 C 420.61926,350.75424 420.60046,350.65122 420.5625,350.5625 C 415.60292,338.97121 402.46746,334.05459 397.28125,323.25 C 384.50628,335.71339 332.47074,340.7126 322.5,317.34375 z "
         id="path3311" />
      <path
         style="fill: rgb(205, 29, 29); fill-opacity: 1; fill-rule: evenodd; stroke: none; stroke-width: 1.625; stroke-linecap: butt; stroke-linejoin: miter; stroke-miterlimit: 4; stroke-opacity: 1;"
         d="M 333.25,298.3406 C 332.98689,299.39306 331.89367,302.35166 330,305.625 C 328.30629,308.5527 325.85967,312.20311 322.8125,316.125 L 322.03125,316.6875 C 313.36736,322.87599 302.08801,327.9622 295.09375,336.1875 C 293.5149,337.13127 295.47017,336.22993 293.39307,339.32568 C 293.16089,339.67171 294.84642,338.85275 296.25,337.34375 C 303.17742,329.89607 313.58505,324.57692 322.21875,318.5 C 324.94066,324.10887 329.99586,328.07968 336.28125,330.625 C 342.8941,333.30293 350.81,334.47226 358.8125,334.53125 C 366.815,334.59024 374.90252,333.53273 381.8125,331.65625 C 388.28559,329.89841 393.65867,327.44339 397.09375,324.4375 C 401.1164,331.96447 409.39147,336.08205 414.28125,342.6875 C 419.37318,348.4192 420.27484,351.78753 420.94983,350.35034 C 421.80019,348.53974 419.4026,346.3182 415.4375,341.59375 C 409.8625,334.72745 401.64875,330.43348 398.03125,322.96875 C 396.25452,316.03512 395.40625,307.55134 395.40625,304.37185 L 392.90625,304.8125 C 392.90625,308.38537 393.78168,316.3771 395.625,323.5625 C 392.46151,326.14684 387.44479,328.44543 381.375,330.09375 C 374.62394,331.92707 366.69312,332.96411 358.84375,332.90625 C 350.99438,332.84839 343.22213,331.69532 336.875,329.125 C 331.14866,326.80607 326.71223,323.29427 324.125,318.53125 C 327.595,314.16767 330.30073,310.13642 332.1875,306.875 C 334.1495,303.48354 335.25839,300.96643 335.65625,299.375 L 333.25,298.3406 z "
         id="path3314"
         sodipodi:nodetypes="cccccccccccccscccccccccccc" />
    </g>
    <g
       id="g1848"
       transform="translate(-12.8439, 87.5666)">
      <path
         style="fill: rgb(0, 0, 0); fill-opacity: 1; fill-rule: evenodd; stroke: none; stroke-width: 1pt; stroke-linecap: butt; stroke-linejoin: miter; stroke-opacity: 1;"
         d="M 428.125,463.15625 C 404.53701,472.4673 339.23125,493.80419 300.84375,485.65625 C 300.6933,485.62432 300.52462,485.62659 300.375,485.59375 C 300.06342,487.34641 299.89782,489.65846 299.875,492.46875 C 299.80745,500.89979 300.90833,513.67979 302.28125,528.34375 C 304.10903,547.89513 306.43978,570.80994 307.21875,591.21875 C 309.35385,591.33112 314.54572,591.11312 318.21875,591.0625 C 317.93737,590.15351 317.65648,589.14097 317.375,588.21875 C 340.60701,582.41527 390.1439,574.78255 423.96875,578.40625 C 423.43207,579.92282 422.82879,581.61428 422.21875,583.3125 C 428.14169,582.55135 433.64365,581.75162 438.40625,580.9375 C 437.80673,579.10367 437.53954,576.65421 437.4375,573.8125 C 437.4273,573.5284 437.38124,573.29324 437.375,573 C 437.30887,569.81998 437.47781,566.07277 437.75,561.9375 C 438.02605,557.71798 438.36988,552.10892 438.75,547.125 C 439.45843,537.90604 440.08348,528.4932 439.9375,517.78125 C 439.92811,517.09246 439.98514,516.44175 439.96875,515.75 C 439.968,515.71923 439.96951,515.68702 439.96875,515.65625 C 439.83405,510.08217 439.43222,504.43222 438.71875,498.78125 C 438.69912,498.62576 438.70766,498.46797 438.6875,498.3125 C 438.67536,498.21922 438.66858,498.12452 438.65625,498.03125 C 438.28934,495.24522 437.83103,492.48445 437.28125,489.71875 C 437.27287,489.67659 437.25843,489.63591 437.25,489.59375 C 436.67049,486.69479 435.96676,483.81755 435.15625,480.96875 C 434.34756,478.12635 433.41251,475.32708 432.34375,472.5625 C 431.34797,469.9867 430.21551,467.45363 428.96875,464.96875 C 428.6694,464.37212 428.43969,463.74683 428.125,463.15625 z "
         id="path1099" />
      <path
         style="marker: none; font-size: 12px; font-style: normal; font-variant: normal; font-weight: 100; font-stretch: ultra-condensed; letter-spacing: 0pt; text-anchor: start; color: rgb(0, 0, 0); fill: rgb(205, 29, 29); fill-opacity: 1; fill-rule: evenodd; stroke: none; stroke-width: 1.625; stroke-linecap: butt; stroke-linejoin: miter; stroke-miterlimit: 4; stroke-dasharray: none; stroke-dashoffset: 0pt; stroke-opacity: 1; font-family: Bitstream Vera Sans;"
         d="M 430.09375,466.9375 C 424.329,468.85909 404.739,476.57565 379.375,483.03125 C 354.011,489.48685 323.04729,494.22149 299.81433,490.0625 C 299.14705,494.97917 299.42185,499.89583 300.00092,504.8125 C 327.2447,509.68948 356.70342,504.27136 383.0625,497.5625 C 409.42158,490.85364 431.88413,482.38176 435.46692,481.1875 C 434.19517,475.19116 432.61184,471.6875 430.09375,466.9375 z "
         id="path2573"
         sodipodi:nodetypes="ccccccc" />
      <path
         transform="matrix(0.978408, -0.206683, 0.206683, 0.978408, 0, 0)"
         style="fill: url(#linearGradient1842) rgb(0, 0, 0); fill-opacity: 1; fill-rule: evenodd; stroke: url(#linearGradient1847) rgb(0, 0, 0); stroke-width: 0.5; stroke-linecap: butt; stroke-linejoin: miter; stroke-miterlimit: 4; stroke-opacity: 1;"
         d="M 243.40503,549.73053 C 242.29703,549.73053 241.40503,550.62253 241.40503,551.73053 L 241.40503,565.4041 C 241.40503,566.5121 242.29703,567.4041 243.40503,567.4041 C 251.44612,567.85521 259.5394,568.06209 267.56621,567.4041 C 268.67421,567.4041 269.56621,566.5121 269.56621,565.4041 L 269.56621,551.73053 C 269.56621,550.62253 268.67421,549.73053 267.56621,549.73053 C 259.55021,550.50922 251.44394,550.2189 243.40503,549.73053 z "
         id="rect1103"
         sodipodi:nodetypes="ccccccccc" />
    </g>
  </g>
</svg>
