<?xml version="1.0" encoding="UTF-8" standalone="no"?>
<!-- Created with Inkscape (http://www.inkscape.org/) -->
<svg xmlns:svg="http://www.w3.org/2000/svg" xmlns="http://www.w3.org/2000/svg" version="1.2" width="231.90166" height="348.66284" id="svg2">
  <defs id="defs4"/>
  <g transform="translate(-97.6471, -679.635)" id="layer1">
    <path d="m 158.74911,680.5806 104.38979,1.91588 c -2.21111,109.20461 42.51462,218.40925 65.46479,327.61392 l -76.08071,15.3269 c -9.15741,-96.81355 -21.1005,-194.16186 -39.49319,-252.97463 -21.80854,64.70565 -24.83928,170.05569 -34.81817,254.89053 l -79.61936,-17.2428 c 20.22837,-109.74795 57.44318,-210.29915 60.15685,-329.5298 z" id="path4878" style="fill: rgb(255, 255, 255); fill-opacity: 1; stroke: rgb(127, 127, 127); stroke-width: 1.89023px; stroke-linecap: butt; stroke-linejoin: miter; stroke-opacity: 1;"/>
    <path d="m 169.03578,692.0782 0,15.25582" id="path4910" style="fill: none; stroke: rgb(97, 95, 95); stroke-width: 1.05771px; stroke-linecap: butt; stroke-linejoin: miter; stroke-opacity: 1;"/>
    <path d="m 238.92215,692.352 c 5.58764,9.6584 14.31464,15.13098 24.43181,18.75" id="path4906" style="fill: none; stroke: rgb(0, 0, 0); stroke-width: 1px; stroke-linecap: butt; stroke-linejoin: miter; stroke-opacity: 1;"/>
    <path d="m 186.31486,691.75209 c -5.91187,8.86085 -14.99257,17.1227 -28.44083,18.44717" id="path4908" style="fill: none; stroke: rgb(0, 0, 0); stroke-width: 1px; stroke-linecap: butt; stroke-linejoin: miter; stroke-opacity: 1;"/>
    <path d="m 159.21233,691.47224 103.31106,0.68874" id="path4893" style="fill: none; stroke: rgb(0, 0, 0); stroke-width: 1px; stroke-linecap: butt; stroke-linejoin: miter; stroke-opacity: 1;"/>
    <path d="m 201.93501,681.55089 0,50.71939 12.49684,0 -0.69427,-50.47318 -11.80257,-0.24621 z" id="path4880" style="fill: rgb(255, 255, 255); fill-opacity: 1; fill-rule: evenodd; stroke: rgb(123, 123, 126); stroke-width: 1; stroke-linecap: butt; stroke-linejoin: miter; stroke-miterlimit: 4; stroke-opacity: 1; stroke-dasharray: none;"/>
    <path d="m 122.42053,259.84521 a 1.918817,1.7269354 0 1 1 -3.83763,0 1.918817,1.7269354 0 1 1 3.83763,0 z" transform="matrix(1.32644, 0, 0, 1.43631, 48.9528, 312.881)" id="path4882" style="fill: none; stroke: rgb(0, 0, 0); stroke-width: 0.529035; stroke-miterlimit: 4; stroke-opacity: 0.519481; stroke-dasharray: none; stroke-dashoffset: 0pt;"/>
    <path d="m 227.27981,682.0157 0,9.84122 3.33496,0 -0.18527,-9.6944 -3.14969,-0.14682 z" id="path4898" style="fill: rgb(255, 255, 255); fill-opacity: 1; fill-rule: evenodd; stroke: rgb(123, 123, 126); stroke-width: 0.42979px; stroke-linecap: butt; stroke-linejoin: miter; stroke-opacity: 1; display: inline;"/>
    <path d="m 243.6374,682.0157 0,9.9522 3.33496,0 -0.18527,-9.80538 -3.14969,-0.14682 z" id="path4900" style="fill: rgb(255, 255, 255); fill-opacity: 1; fill-rule: evenodd; stroke: rgb(123, 123, 126); stroke-width: 0.42979px; stroke-linecap: butt; stroke-linejoin: miter; stroke-opacity: 1; display: inline;"/>
    <path d="m 183.37262,681.34978 0,10.06319 3.33496,0 -0.18527,-9.91636 -3.14969,-0.14683 z" id="path4902" style="fill: rgb(255, 255, 255); fill-opacity: 1; fill-rule: evenodd; stroke: rgb(123, 123, 126); stroke-width: 0.42979px; stroke-linecap: butt; stroke-linejoin: miter; stroke-opacity: 1; display: inline;"/>
    <path d="m 167.64258,681.01682 -0.11099,10.39615 3.33496,0 -0.0743,-10.24932 -3.14969,-0.14683 z" id="path4904" style="fill: rgb(255, 255, 255); fill-opacity: 1; fill-rule: evenodd; stroke: rgb(123, 123, 126); stroke-width: 0.42979px; stroke-linecap: butt; stroke-linejoin: miter; stroke-opacity: 1; display: inline;"/>
    <path d="m 102.31166,997.8492 77.13892,17.2184" id="path4889" style="fill: none; stroke: rgb(0, 0, 0); stroke-width: 1; stroke-linecap: butt; stroke-linejoin: miter; stroke-miterlimit: 4; stroke-opacity: 1; stroke-dasharray: 1, 6; stroke-dashoffset: 0pt; display: inline;"/>
    <path d="m 252.80143,1014.3788 75.0727,-15.15213" id="path4891" style="fill: none; stroke: rgb(0, 0, 0); stroke-width: 1; stroke-linecap: butt; stroke-linejoin: miter; stroke-miterlimit: 4; stroke-opacity: 1; stroke-dasharray: 1, 6; stroke-dashoffset: 0pt; display: inline;"/>
  </g>
</svg>