<?xml version="1.0" encoding="UTF-8" standalone="no"?>
<!DOCTYPE svg PUBLIC "-//W3C//DTD SVG 20010904//EN"
"http://www.w3.org/TR/2001/REC-SVG-20010904/DTD/svg10.dtd">
<!-- Made by Andrew Fitzsimon Created with Inkscape (http://www.inkscape.org/) --><svg height="128.00000pt" id="svg1" inkscape:version="0.39cvs" sodipodi:docbase="/home/andy/andy/SVG/svgart" sodipodi:docname="ant.svg" sodipodi:version="0.32" width="128.00000pt" xmlns="http://www.w3.org/2000/svg" xmlns:inkscape="http://www.inkscape.org/namespaces/inkscape" xmlns:sodipodi="http://sodipodi.sourceforge.net/DTD/sodipodi-0.dtd" xmlns:xlink="http://www.w3.org/1999/xlink" xmlns:xml="http://www.w3.org/XML/1998/namespace">
  <metadata>
    <rdf:RDF xmlns:cc="http://web.resource.org/cc/" xmlns:dc="http://purl.org/dc/elements/1.1/" xmlns:rdf="http://www.w3.org/1999/02/22-rdf-syntax-ns#">
      <cc:Work rdf:about="">
        <dc:title>Etiquette Icons</dc:title>
        <dc:description></dc:description>
        <dc:subject>
          <rdf:Bag>
            <rdf:li></rdf:li>
            <rdf:li>insect</rdf:li>
            <rdf:li>animal</rdf:li>
          </rdf:Bag>
        </dc:subject>
        <dc:publisher>
          <cc:Agent rdf:about="http://www.openclipart.org">
            <dc:title>Andy Fitzsimon</dc:title>
          </cc:Agent>
        </dc:publisher>
        <dc:creator>
          <cc:Agent>
            <dc:title>Andy Fitzsimon</dc:title>
          </cc:Agent>
        </dc:creator>
        <dc:rights>
          <cc:Agent>
            <dc:title>Andy Fitzsimon</dc:title>
          </cc:Agent>
        </dc:rights>
        <dc:date></dc:date>
        <dc:format>image/svg+xml</dc:format>
        <dc:type rdf:resource="http://purl.org/dc/dcmitype/StillImage"/>
        <cc:license rdf:resource="http://web.resource.org/cc/PublicDomain"/>
        <dc:language>en</dc:language>
      </cc:Work>
      <cc:License rdf:about="http://web.resource.org/cc/PublicDomain">
        <cc:permits rdf:resource="http://web.resource.org/cc/Reproduction"/>
        <cc:permits rdf:resource="http://web.resource.org/cc/Distribution"/>
        <cc:permits rdf:resource="http://web.resource.org/cc/DerivativeWorks"/>
      </cc:License>
    </rdf:RDF>
  </metadata>
  <defs id="defs3">
    <linearGradient id="linearGradient2728">
      <stop id="stop2729" offset="0.0000000" style="stop-color:#f7f7f7;stop-opacity:0.0000000;"/>
      <stop id="stop2731" offset="0.45062014" style="stop-color:#fbfbfb;stop-opacity:0.073446326;"/>
      <stop id="stop2730" offset="1.0000000" style="stop-color:#ffffff;stop-opacity:0.78531075;"/>
    </linearGradient>
    <linearGradient id="linearGradient1780">
      <stop id="stop1781" offset="0.0000000" style="stop-color:#000000;stop-opacity:0.0000000;"/>
      <stop id="stop1783" offset="1.0000000" style="stop-color:#000000;stop-opacity:1.0000000;"/>
    </linearGradient>
    <linearGradient id="linearGradient1776">
      <stop id="stop1777" offset="0.0000000" style="stop-color:#ebebeb;stop-opacity:1.0000000;"/>
      <stop id="stop1778" offset="0.50000000" style="stop-color:#000000;stop-opacity:1.0000000;"/>
      <stop id="stop1779" offset="1.0000000" style="stop-color:#000000;stop-opacity:1.0000000;"/>
    </linearGradient>
    <linearGradient id="linearGradient1516">
      <stop id="stop1517" offset="0.0000000" style="stop-color:#f7f7f7;stop-opacity:0.0000000;"/>
      <stop id="stop1518" offset="1" style="stop-color:#fff;stop-opacity:1;"/>
    </linearGradient>
    <linearGradient id="linearGradient1512">
      <stop id="stop1513" offset="0.0000000" style="stop-color:#ebebeb;stop-opacity:1.0000000;"/>
      <stop id="stop1579" offset="0.50000000" style="stop-color:#000000;stop-opacity:1.0000000;"/>
      <stop id="stop1514" offset="1.0000000" style="stop-color:#000000;stop-opacity:1.0000000;"/>
    </linearGradient>
    <pattern height="260.00000" id="pattern903" width="275.00000">
      <image height="260.00000" id="image904" sodipodi:absref="/home/andy/Desktop/ant.png" width="275.00000" xlink:href="/home/andy/Desktop/ant.png"/>
    </pattern>
    <pattern height="260.00000" id="pattern912" width="275.00000">
      <image height="260.00000" id="image913" sodipodi:absref="/home/andy/ant.png" width="275.00000" xlink:href="/home/andy/ant.png"/>
    </pattern>
    <linearGradient id="linearGradient1515" x1="0.24087591" x2="0.36496350" xlink:href="#linearGradient1516" y1="0.41830066" y2="-1.3071896"/>
    <linearGradient id="linearGradient1519" x1="0.75199997" x2="-4.6240001" xlink:href="#linearGradient1780" y1="0.0078125000" y2="4.6640625"/>
    <radialGradient cx="0.50000000" cy="0.50000000" fx="0.50000000" fy="0.50000000" id="radialGradient1577" r="0.50000000" xlink:href="#linearGradient1516"/>
    <radialGradient cx="0.66423357" cy="0.18300654" fx="0.66423357" fy="0.18300654" id="radialGradient1578" r="1.0277910" xlink:href="#linearGradient2728"/>
    <linearGradient id="linearGradient1729" x1="0.60992908" x2="0.86524820" xlink:href="#linearGradient1516" y1="0.40522876" y2="-0.11111111"/>
    <linearGradient id="linearGradient1731" x1="0.25850341" x2="0.59183675" xlink:href="#linearGradient1516" y1="0.44444445" y2="-1.6209151"/>
    <linearGradient id="linearGradient1734" x1="0.40606061" x2="0.92727274" xlink:href="#linearGradient1516" y1="0.50326800" y2="-1.2222222"/>
    <linearGradient id="linearGradient1772" xlink:href="#linearGradient1780"/>
    <linearGradient gradientTransform="scale(1.004629,0.995392)" id="linearGradient1773" x1="0.79352957" x2="2.0534317" xlink:href="#linearGradient1780" y1="-0.0065662032" y2="3.9200234"/>
    <linearGradient gradientTransform="scale(0.995584,1.004436)" id="linearGradient1774" x1="0.81175715" x2="2.1235132" xlink:href="#linearGradient1780" y1="-0.021190155" y2="4.0670066"/>
    <linearGradient id="linearGradient1775" xlink:href="#linearGradient2728"/>
    <linearGradient id="linearGradient1789" x1="0.080291972" x2="-0.47445256" xlink:href="#linearGradient1516" y1="0.11111111" y2="1.0392157"/>
    <linearGradient id="linearGradient1790" xlink:href="#linearGradient1780"/>
  </defs>
  <sodipodi:namedview bordercolor="#666666" borderopacity="1.0" id="base" inkscape:cx="75.930838" inkscape:cy="56.208422" inkscape:pageopacity="0.0" inkscape:pageshadow="2" inkscape:window-height="477" inkscape:window-width="373" inkscape:window-x="5" inkscape:window-y="25" inkscape:zoom="1.2537354" pagecolor="#ffffff" showborder="false" showguides="true" snaptoguides="true"/>
  <g id="g2835" style="fill:url(#linearGradient1519);" transform="translate(0.636764,-222.1277)">
    <path d="M 86.409646,236.09923 L 85.972146,236.18849 L 86.378396,243.20980 L 86.378396,243.23955 L 84.503396,254.30704 L 84.503396,254.39630 L 81.503396,265.37454 L 73.628391,277.87010 L 73.378391,278.25686 L 73.534641,278.67339 L 74.378396,283.40384 C 73.239493,283.83557 72.276673,284.37417 71.565891,285.04016 L 64.690891,284.11787 L 66.128391,271.29505 L 66.253391,270.13475 L 65.065891,270.16450 L 43.878391,270.52152 L 31.972141,268.43892 L 25.784641,261.26885 L 25.097141,261.59612 L 30.409641,269.89674 L 30.659641,270.28351 L 31.128391,270.37277 L 43.628391,272.51486 L 43.753391,272.54461 L 43.847141,272.54461 L 63.878391,272.21734 L 62.503391,284.77241 L 62.409641,285.63519 L 63.284641,285.87320 L 69.847141,287.53928 C 68.705819,289.80755 68.486292,291.92713 67.597141,291.64496 C 66.759832,291.37924 64.372069,291.95824 62.128391,292.74577 L 36.472141,288.93760 L 35.909641,288.81858 L 35.472141,289.20535 L 20.159641,303.81325 L 9.6283914,307.88919 L 9.5971414,308.60322 L 20.972141,305.71734 L 21.253391,305.65784 L 21.472141,305.44958 L 36.565891,291.04993 L 58.690891,294.29283 C 58.513365,294.39637 58.359084,294.49304 58.222141,294.59034 C 53.248849,293.76119 46.429671,293.80968 42.378391,299.82658 C 35.675961,309.78095 33.815792,322.77726 38.909641,327.88208 C 44.003496,332.98688 60.611876,329.43085 64.097141,322.79460 C 65.061133,320.95909 65.990935,318.56914 66.847141,316.04105 C 66.943923,315.85226 67.064554,315.72907 67.159641,315.53528 C 68.028064,313.76541 68.415381,312.02172 68.534641,310.32879 C 69.423228,306.74362 69.976007,303.37885 69.847141,301.16539 C 70.056566,299.80002 70.470672,298.39817 73.222141,299.05304 C 73.525386,299.12521 73.797902,299.00363 74.097146,299.02329 L 73.347141,305.18181 L 73.284641,305.30082 L 73.284641,305.44958 L 73.284641,314.07746 L 64.472141,332.10676 L 64.409641,332.25553 L 64.378391,332.43404 L 62.284641,355.19380 L 62.284641,355.40206 L 62.378391,355.66982 L 67.097141,367.03483 L 68.722141,368.43314 L 64.440891,355.13429 L 66.503391,332.82080 L 75.315896,314.73199 L 75.440896,314.52374 L 75.440896,314.31548 L 75.440896,305.59834 L 77.847146,298.19026 C 79.410996,297.37567 80.195066,296.70309 80.722146,296.16716 L 80.097146,297.41672 L 80.472146,306.60988 L 80.503396,306.99665 L 80.753396,307.26441 L 89.409646,316.36831 C 89.406586,316.74425 89.347146,321.90052 89.347146,327.52506 C 89.347136,330.43795 89.373936,333.35714 89.409646,335.61742 C 89.427496,336.74757 89.440246,337.70061 89.472146,338.41405 C 89.488086,338.77077 89.481316,339.07093 89.503396,339.30659 C 89.514426,339.42441 89.548826,339.53148 89.565896,339.63385 C 89.582966,339.73623 89.550336,339.78274 89.690896,340.05037 C 89.772456,340.20565 89.852266,340.27804 89.972146,340.46690 C 90.092026,340.65574 90.211616,340.93532 90.409646,341.24043 C 90.805676,341.85064 91.362976,342.67646 92.003396,343.65029 C 93.284196,345.59792 94.969296,348.13717 96.628396,350.64184 C 99.946566,355.65119 103.19090,360.54903 103.19090,360.54903 L 104.62840,361.62009 C 104.62839,361.62009 101.75779,354.51871 98.440896,349.51130 C 96.782446,347.00761 95.094326,344.49349 93.815896,342.54948 C 93.176676,341.57746 92.645276,340.74343 92.253396,340.13963 C 92.057456,339.83771 91.898026,339.60421 91.784646,339.42559 C 91.715976,339.31741 91.720926,339.29666 91.690896,339.24709 C 91.686326,339.21251 91.665276,339.18825 91.659646,339.12808 C 91.642826,338.94867 91.612306,338.69366 91.597146,338.35455 C 91.566826,337.67628 91.552336,336.73765 91.534646,335.61742 C 91.499256,333.37694 91.503396,330.43269 91.503396,327.52506 C 91.503386,321.70978 91.534646,315.98155 91.534646,315.98155 L 91.534646,315.56503 L 91.253396,315.26752 L 82.597146,306.19337 L 82.065896,293.54905 L 81.878396,293.93581 C 82.110716,293.35000 82.570636,292.71090 83.378396,292.03173 L 88.253396,295.54238 L 88.597146,295.72090 L 88.972146,295.63163 L 101.59715,293.01352 L 117.15965,302.89096 L 117.50340,303.09922 L 117.90965,303.03972 L 136.09715,300.68936 L 136.00340,299.94558 L 118.03465,300.98688 L 102.44090,291.07968 L 102.06590,290.84168 L 101.62840,290.93093 L 88.878396,293.54905 L 86.315896,290.51442 C 86.643356,290.39355 86.784086,290.23647 87.159646,290.12764 C 93.325886,288.34097 92.253396,285.01042 92.253396,285.01041 C 92.253396,285.01041 94.661236,286.02208 97.878396,281.17249 C 99.280036,279.05967 99.318336,276.42975 98.659646,273.97267 L 100.97215,276.47179 C 102.25193,277.85266 104.37909,278.11506 106.72215,277.09657 C 109.22600,276.00817 114.67071,269.39462 115.72215,265.73155 C 116.13939,264.27794 116.38537,262.40316 116.59715,260.61433 C 117.33489,260.48024 120.72448,259.73411 121.06590,255.02108 L 116.69090,260.13831 C 116.95290,257.51863 116.89365,255.14272 115.84715,254.39630 C 114.98775,253.78333 112.99950,253.02485 110.65965,252.67072 L 116.90965,250.67738 C 111.20538,250.03848 110.27214,252.12922 110.12840,252.64097 C 107.86279,252.36703 105.32576,252.45225 103.09715,253.50376 C 98.291566,255.77114 91.234766,259.23048 91.315896,262.42916 C 91.380296,264.96880 91.686096,265.99684 92.472146,267.07036 C 87.542376,265.95672 81.682266,270.69077 80.940896,272.45535 C 78.674936,275.07490 79.897396,278.13301 77.065896,281.32125 L 75.722146,278.52463 L 83.409646,266.26708 L 83.503396,266.14807 L 83.534646,265.99932 L 86.597146,254.81282 L 86.597146,254.78307 L 86.597146,254.72357 L 88.503396,243.53707 L 88.503396,243.41806 L 88.503396,243.32880 L 86.409646,236.09923 z " id="path2739" style="fill-opacity:0.15527947;fill-rule:evenodd;stroke-width:1.0000000pt;"/>
    <path d="M 85.656250,235.12500 C 83.268543,238.71271 86.072149,243.24857 84.265401,247.17563 C 82.820122,256.20818 80.971635,265.44531 75.142829,272.79595 C 72.866212,275.56098 71.540972,278.90289 72.605602,282.40250 C 70.998823,284.50979 64.795603,283.86841 66.499051,280.16883 C 66.384780,276.64201 68.529504,271.08259 67.126880,268.71875 C 55.722723,268.70895 43.861473,270.25921 32.842866,266.89052 C 29.597163,265.12252 28.616118,259.57701 24.125000,260.18750 C 23.701296,264.47999 27.677945,267.18081 29.375000,270.65625 C 35.055078,273.53310 41.859521,273.46102 48.119235,273.88352 C 52.851120,273.84753 57.581436,273.71270 62.312500,273.62500 C 61.843071,277.95826 61.378567,282.29206 60.906250,286.62500 C 62.479624,287.73366 69.836087,287.38750 66.844147,289.94983 C 59.318876,292.84692 51.391496,288.89560 43.692976,288.66176 C 39.796812,288.66470 34.940606,285.79257 32.498732,290.18966 C 26.051228,295.97134 20.403376,303.67900 11.514578,305.58771 C 7.8405653,306.61989 6.8684663,310.70871 11.668782,309.53648 C 17.350489,308.11660 23.696335,307.05367 27.254975,301.81851 C 31.149146,298.77289 33.992760,293.40449 39.093750,292.56250 C 41.093218,293.78039 49.236456,293.24397 46.312500,294.65625 C 38.534561,299.29959 35.995538,309.10536 34.823446,317.51329 C 33.782922,323.88411 37.805911,332.08996 45.183721,331.41347 C 54.030094,332.09090 64.684512,328.31256 67.225470,318.91123 C 69.539468,313.42432 70.900810,307.52001 71.187500,301.56250 C 74.190616,298.96871 71.040149,306.66463 71.923046,308.42780 C 72.779939,318.91330 62.560851,326.35519 62.600558,336.75053 C 62.181875,343.38808 60.799936,350.22986 61.380060,356.79266 C 63.581323,362.65201 66.635608,368.64472 70.848095,369.77743 C 72.933404,369.96846 68.664769,364.65280 67.729825,361.24301 C 64.463534,353.40347 67.099342,345.02282 67.506485,336.92086 C 68.310600,327.56445 76.491706,320.51371 76.943837,311.16043 C 76.798754,307.48465 76.987258,303.47865 78.812500,300.21875 C 78.565918,304.45604 79.040671,309.31392 83.081054,311.67049 C 86.261710,314.30376 89.027799,317.82721 87.991321,322.15246 C 88.141938,328.50324 87.452431,335.30817 88.935800,341.38758 C 93.889665,348.57252 98.092202,356.53638 104.02893,362.89260 C 108.32993,366.76850 105.35496,358.75993 104.00000,356.78125 C 100.90132,350.07102 95.873655,344.13573 92.965014,337.43939 C 92.827926,329.85120 93.094869,322.05093 92.531250,314.59375 C 89.010978,310.46566 82.915960,307.00673 83.792308,300.78813 C 83.357161,298.27896 82.563250,291.98503 86.230482,295.85291 C 91.681252,299.36965 98.196613,292.15301 103.64556,295.78995 C 108.29236,298.87871 112.83644,302.50774 118.09375,304.40625 C 124.62514,303.56360 131.15543,302.71229 137.68750,301.87500 C 137.46335,296.43138 130.98690,299.32531 127.66203,299.08670 C 122.46184,299.65039 116.88481,300.05964 112.83633,296.06901 C 109.24305,293.78643 105.60028,291.21535 101.78125,289.53125 C 97.553345,289.99293 92.804208,292.19585 88.890193,291.60894 C 89.104388,289.61571 93.534295,289.57362 93.406250,286.78125 C 97.006253,284.98484 100.16239,281.82927 100.28125,277.56250 C 105.40027,281.57163 111.46851,275.88784 114.03061,271.47663 C 116.92626,268.60695 116.76101,264.41068 118.53403,261.12727 C 121.72839,259.92345 122.85022,255.76274 122.56250,252.59375 C 119.47857,252.71418 118.11850,259.24198 116.78125,253.34375 C 112.07047,252.43109 124.22950,250.25917 120.13385,249.78819 C 116.57785,249.63310 112.18745,248.16452 109.43750,251.28125 C 102.40285,251.12634 95.945885,255.17168 90.977189,259.73565 C 88.233157,261.57769 92.682076,266.75874 88.437500,265.93750 C 84.727212,267.09887 83.172421,268.93735 85.439519,264.22479 C 87.379550,256.87134 89.765710,249.32285 89.593750,241.65625 C 88.220672,239.96988 88.730172,233.37407 85.656250,235.12500 z " id="path2824" sodipodi:nodetypes="ccccccccccccccccccccccccccccccccccccccccccccccccccccccccccccc" style="fill-opacity:0.15527947;fill-rule:evenodd;stroke-width:1.0000000pt;"/>
    <path d="M 85.687500,233.06250 C 80.359501,236.76155 83.964119,244.08940 81.795962,249.28259 C 80.483741,258.49439 76.748232,267.12162 71.519985,274.74594 C 70.066855,276.07594 70.885876,283.07953 68.761695,280.29854 C 68.211286,275.91614 71.825185,269.87406 67.187500,266.71875 C 55.864580,266.45488 43.922803,268.24007 32.968750,264.09375 C 30.136107,260.75784 26.636377,256.98153 21.781250,258.18750 C 21.745952,263.84245 25.202461,268.64078 28.750000,272.62500 C 38.749953,276.34865 49.495523,275.70546 59.968750,275.68750 C 59.531250,279.84375 59.093750,284.00000 58.656250,288.15625 C 63.694906,289.30207 54.214488,288.07996 52.437500,287.87500 C 46.291780,287.01065 39.583323,284.97942 33.602171,286.87257 C 26.258941,292.11564 21.026006,300.37331 12.099201,303.29509 C 8.9551109,304.32021 4.5018633,307.32632 7.5937500,310.84375 C 10.916347,312.72807 14.765974,310.43835 18.224747,309.85683 C 25.923099,307.77102 30.329763,300.86133 36.281250,296.21875 C 41.732050,293.23963 42.636244,296.67709 38.187500,300.06250 C 34.050749,308.88752 29.934948,320.30198 36.000000,329.21875 C 41.296981,335.33695 50.205896,333.71757 57.062500,331.78125 C 60.325232,330.66814 64.384746,326.54754 61.250000,332.18750 C 60.060709,340.72663 58.382190,349.61372 60.034020,358.16193 C 61.868753,366.17570 70.960009,371.35736 72.018181,370.90268 C 73.848157,370.60752 66.158976,354.02506 69.066448,341.79898 C 69.340291,333.31931 73.883793,325.92404 77.220459,318.43152 C 78.743465,316.82352 78.115102,308.69797 79.812500,311.40625 C 83.168134,314.34698 86.818942,317.82033 85.849943,322.76934 C 86.232713,331.64121 84.769856,341.81142 91.407587,348.88560 C 95.577611,354.84237 99.169883,362.46396 105.68750,365.78125 C 110.49422,364.28628 106.77334,358.38084 105.54649,355.42946 C 101.33730,346.68228 93.474953,338.61817 94.942077,328.19152 C 94.840051,323.18836 94.847445,317.97483 93.968750,313.12500 C 89.729610,309.20755 84.645535,304.14315 85.750000,297.87500 C 89.099478,299.07655 92.379399,299.33949 95.615735,297.65759 C 103.77134,294.83978 108.78654,303.76227 116.01621,305.40137 C 122.35751,307.65935 128.90342,304.36497 135.37765,304.26768 C 139.64517,305.20068 141.43938,301.57657 138.47735,298.67813 C 132.77968,293.73547 124.84800,299.43440 118.42171,296.43003 C 111.24124,294.34375 105.56493,285.97641 97.321462,288.25729 C 92.371489,290.23731 98.525259,286.12339 99.718750,284.40625 C 100.57430,280.18885 103.99252,281.05382 107.13530,280.21095 C 113.63830,277.52488 117.35242,270.85082 119.57624,264.55358 C 122.04620,260.76926 126.05258,256.32055 124.06250,251.53125 C 122.33077,249.70575 121.31437,246.88598 117.81681,247.52378 C 112.29547,246.57544 107.38756,249.99089 102.05301,250.60354 C 96.939518,252.42511 92.237580,255.49061 88.687500,259.62500 C 90.972998,251.34473 93.294585,241.66207 88.812500,233.78125 C 87.973888,232.95760 86.760041,232.57652 85.687500,233.06250 z M 87.968750,263.28125 C 87.073764,263.31289 88.696768,260.35922 87.968750,263.28125 z " id="path2830" sodipodi:nodetypes="ccccccccccccccccccccccccccccccccccccccccccccccccc" style="fill-opacity:0.15527947;fill-rule:evenodd;stroke-width:1.0000000pt;"/>
    <path d="M 86.468750,234.18750 C 82.453999,235.73563 84.684606,241.45816 84.073104,244.82622 C 82.365297,255.12715 80.193798,265.74281 73.387900,274.09474 C 71.913202,276.41151 71.111448,279.31533 71.843750,282.03125 C 67.745313,284.87599 65.978333,280.22342 67.619077,276.84917 C 67.761142,274.06346 69.225961,269.86117 67.125000,268.03125 C 55.675616,267.95720 43.590369,269.68548 32.675061,265.79450 C 29.808844,263.43953 27.888600,258.49223 23.343750,259.50000 C 23.170789,264.21317 26.609228,267.76123 29.125000,271.31250 C 39.328962,275.60466 50.731273,274.33658 61.531250,274.31250 C 61.072181,278.58325 60.618996,282.85465 60.156250,287.12500 C 62.266803,288.06713 70.171440,288.79079 63.937500,290.06250 C 54.367531,290.88980 45.000210,286.83618 35.455447,287.31843 C 31.658736,288.36249 29.764592,292.78841 26.519889,294.96431 C 21.978631,299.90366 16.321829,303.66384 9.9583783,305.66739 C 7.1743575,306.28112 6.9654043,311.24195 10.464888,310.23328 C 16.957201,309.21159 24.119478,307.42038 28.236210,301.79785 C 32.186522,298.40753 36.080170,291.72375 42.088256,293.97656 C 47.997193,293.63444 42.472298,296.10012 40.906250,298.53125 C 36.206237,305.56108 33.521333,314.26355 34.343750,322.71875 C 35.451678,328.38760 40.526981,333.29595 46.588248,332.02465 C 55.843038,332.58750 66.262906,327.55278 68.297096,317.82034 C 69.404158,314.15003 71.000561,310.59805 71.187500,306.71875 C 72.666880,318.32094 61.389789,326.59168 61.774844,338.05243 C 61.439395,346.26322 58.516100,355.22436 63.143623,362.74991 C 64.708913,367.70356 68.678798,371.33519 71.549225,370.53626 C 73.973779,369.89847 65.125847,355.80410 67.288155,345.77738 C 67.633748,338.04132 69.003859,330.34453 73.271654,323.72867 C 76.904346,318.08567 77.982809,311.47578 77.961232,304.89321 C 78.428397,303.64720 78.958440,310.52335 81.740704,311.35234 C 86.005638,314.27456 88.223755,319.11249 87.305886,324.21310 C 87.543464,331.92225 85.951816,340.76065 91.736868,346.92435 C 96.002286,352.88279 99.354655,360.11576 105.28125,364.50000 C 108.96793,364.45486 105.26298,358.71741 104.69208,356.69698 C 101.65292,349.45891 95.510208,343.47031 93.648653,335.87878 C 93.563763,328.65385 93.715088,321.21526 93.031250,314.12500 C 89.010084,310.04446 83.405781,305.83084 84.376927,299.38184 C 83.190579,294.65964 85.317499,295.80313 88.281250,297.40625 C 93.912035,298.11135 100.19369,292.78218 105.10568,297.56496 C 109.47662,300.27703 113.72906,304.22768 118.86747,305.00591 C 125.41161,304.15990 131.95605,303.31624 138.50000,302.46875 C 138.76675,297.22904 132.59625,297.54975 129.00162,298.27826 C 123.12331,299.13834 116.62982,299.15994 112.06572,294.75782 C 108.50758,292.83142 104.92438,289.39383 100.95541,289.02237 C 98.071991,289.47772 91.686170,291.50707 90.812405,290.56325 C 93.549310,289.67134 93.723603,286.58713 96.437500,285.68750 C 99.178989,284.42462 100.07751,279.78274 101.35672,278.91308 C 108.11689,281.68911 113.14011,274.18981 116.37500,269.37500 C 118.04025,266.27003 117.76025,261.83400 121.15625,260.06250 C 122.92361,258.03869 124.11830,252.76732 122.66432,251.76787 C 120.27506,253.05816 116.71360,256.16611 117.64977,252.42294 C 120.20035,251.96523 124.01739,249.13684 119.50422,249.03712 C 115.71239,248.38254 111.69299,248.39133 108.53836,250.67827 C 101.23439,251.01853 94.396230,255.12458 89.593750,260.40625 C 89.419180,263.49185 90.282067,265.92190 86.280308,265.96908 C 84.859202,265.46592 87.935838,259.23328 88.146907,256.40786 C 90.010546,249.37724 91.603104,241.56923 88.000000,234.87500 C 87.833131,234.41169 86.946764,234.11922 86.468750,234.18750 z " id="path2834" sodipodi:nodetypes="cccccccccccccccccccccccccccccccccccccccccccccccccccccccccc" style="fill-opacity:0.15527947;fill-rule:evenodd;stroke-width:1.0000000pt;"/>
  </g>
  <path d="M 147.45065,91.907853 L 130.69435,84.209014 L 159.22535,80.133159 L 161.48971,83.303269" id="path924" style="fill:none;fill-opacity:0.75000000;fill-rule:evenodd;stroke:#000000;stroke-width:1.8908120;" transform="matrix(0.837204,0.000000,0.000000,0.837204,-13.85057,-51.39540)"/>
  <path d="M 155.46029,108.55426 L 160.44189,126.66918 L 174.93382,102.21404" id="path923" style="fill:none;fill-opacity:0.75000000;fill-rule:evenodd;stroke:#000000;stroke-width:1.8908120;" transform="matrix(0.837204,0.000000,0.000000,0.837204,-13.85057,-51.39540)"/>
  <path d="M 97.068918,145.26319 C 97.068918,145.26319 79.136073,137.57768 71.130330,150.06663 C 63.124598,162.55559 60.882992,178.88728 66.967350,185.29188 C 73.051716,191.69646 92.905937,187.21325 97.068918,178.88728 C 101.23191,170.56132 105.39489,153.58916 103.47351,149.42618 C 101.55214,145.26319 97.068918,145.26319 97.068918,145.26319 z " id="path909" style="fill:#7c5a08;fill-rule:evenodd;stroke-width:1.0000000pt;fill-opacity:1.0000000;" transform="matrix(0.837204,0.000000,0.000000,0.837204,-13.85057,-51.39540)"/>
  <path d="M 142.41549,138.79278 L 141.88717,138.90401 L 126.67726,142.21293 L 121.91445,136.30985 L 118.68086,139.26926 L 125.92649,144.68767 L 126.34358,144.91012 L 126.78848,144.79889 L 141.85936,141.51778 L 160.46162,153.91928 L 160.85090,154.16954 L 161.35141,154.11392 L 183.06795,151.16648 L 182.96071,150.22118 L 161.49044,151.52796 L 142.86038,139.09865 L 142.41549,138.79278 z " id="path1569" sodipodi:nodetypes="ccccccccccccccccc" style="fill:#3e3e3e;fill-rule:evenodd;stroke-width:2.8750000;" transform="matrix(0.837204,0.000000,0.000000,0.837204,-13.85057,-51.39540)"/>
  <path d="M 85.379947,67.643027 L 83.427821,71.717188 L 83.800293,81.378112 L 83.823568,81.773858 L 84.079643,82.053216 L 92.716282,91.621026 C 92.713226,92.015919 92.669725,97.422666 92.669725,103.33054 C 92.669725,106.39017 92.680575,109.47663 92.716282,111.85077 C 92.734131,113.03785 92.754224,114.03460 92.786121,114.78397 C 92.802062,115.15867 92.810601,115.46762 92.832678,115.71515 C 92.843712,115.83891 92.862173,115.95681 92.879235,116.06434 C 92.896306,116.17187 92.878356,116.22554 93.018914,116.50665 C 93.100474,116.66976 93.155102,116.75058 93.274981,116.94895 C 93.394869,117.14732 93.542552,117.41997 93.740576,117.74045 C 94.136615,118.38141 94.683158,119.25502 95.323569,120.27790 C 96.604374,122.32364 98.273784,124.98005 99.932880,127.61089 C 103.25105,132.87257 106.52093,138.01676 106.52093,138.01676 L 107.95758,139.15095 C 107.95758,139.15095 105.06556,131.70657 101.74867,126.44692 C 100.09022,123.81710 98.417783,121.17914 97.139356,119.13721 C 96.500142,118.11624 95.971515,117.23398 95.579636,116.59976 C 95.383697,116.28265 95.204159,116.04245 95.090776,115.85483 C 95.022117,115.74121 95.027693,115.72066 94.997654,115.66859 C 94.993083,115.63228 94.980014,115.59211 94.974380,115.52891 C 94.957569,115.34046 94.942976,115.07034 94.927815,114.71414 C 94.897499,114.00172 94.875673,113.00416 94.857983,111.82750 C 94.822595,109.47416 94.811418,106.38464 94.811418,103.33054 C 94.811418,97.222323 94.857983,91.201997 94.857983,91.201997 L 94.857983,90.782968 L 94.578625,90.480336 L 85.918713,80.935808 L 85.379947,67.643027 z " id="path1568" sodipodi:nodetypes="cccccccccccccccccccccccccccccccc" style="fill:#3e3e3e;fill-rule:evenodd;stroke-width:2.8750000;"/>
  <path d="M 109.23089,147.26942 L 108.10281,156.78331 L 108.04720,156.95014 L 108.04720,157.14478 L 108.04720,167.96134 L 97.508698,190.56767 L 97.425280,190.76231 L 97.397474,190.98476 L 94.894929,219.54158 L 94.894929,219.81964 L 95.006153,220.12551 L 100.65078,234.39002 L 102.58923,236.16185 L 97.480892,219.45816 L 99.927826,191.45746 L 110.46632,168.76772 L 110.60535,168.51746 L 110.60535,168.23940 L 110.60535,157.31162 L 113.94219,146.63376 L 109.23089,147.26942 z " id="path1567" sodipodi:nodetypes="ccccccccccccccccccccc" style="fill:#3e3e3e;fill-rule:evenodd;stroke-width:2.8750000;" transform="matrix(0.837204,0.000000,0.000000,0.837204,-13.85057,-51.39540)"/>
  <path d="M 129.57222,103.15301 C 129.66538,107.01137 129.95115,108.12973 131.49359,109.87783 L 141.10048,120.76563 C 142.62912,122.49809 145.18674,122.84403 147.98541,121.56621 C 150.97614,120.20069 157.45720,111.91175 158.71309,107.31600 C 159.99383,102.62934 161.04890,94.695782 158.87321,93.065784 C 156.79865,91.511550 149.34077,89.130790 143.66231,91.944981 C 137.92227,94.789691 129.47532,99.139884 129.57222,103.15301 z " id="path919" sodipodi:nodetypes="czzzzzzz" style="fill-rule:evenodd;stroke-width:1.0000000pt;" transform="matrix(0.837204,0.000000,0.000000,0.837204,-13.85057,-51.39540)"/>
  <path d="M 134.56159,103.95723 C 133.17436,94.709009 155.37009,86.385615 158.60697,94.246602 C 161.84384,102.10760 151.90201,116.21113 147.50911,117.82957 C 143.11621,119.44801 135.87208,112.69384 134.56159,103.95723 z " id="path1143" sodipodi:nodetypes="cczz" style="fill:url(#linearGradient1729);fill-opacity:1;fill-rule:evenodd;stroke-width:1.0000000pt;" transform="matrix(0.837204,0.000000,0.000000,0.837204,-13.85057,-51.39540)"/>
  <path d="M 63.390663,136.26243 L 62.890154,136.76294 L 44.565960,155.08714 L 32.009585,160.20356 L 31.969815,161.09324 L 45.566978,157.47846 L 45.900651,157.39504 L 46.150905,157.14478 L 64.197038,139.07085 L 98.375222,144.33804 L 98.959150,141.86330 L 64.085814,136.42927 L 63.390663,136.26243 z " id="path1571" sodipodi:nodetypes="ccccccccccccc" style="fill:#3e3e3e;fill-rule:evenodd;stroke-width:2.8750000;" transform="matrix(0.837204,0.000000,0.000000,0.837204,-13.85057,-51.39540)"/>
  <path d="M 51.298905,101.68765 L 50.488651,102.11659 L 56.828433,112.51606 L 57.134299,113.01657 L 57.690420,113.12779 L 72.622275,115.82498 L 72.761305,115.85278 L 72.872529,115.85278 L 96.813547,115.43569 L 95.145183,131.20173 L 95.033959,132.28617 L 96.090589,132.56423 L 104.68266,134.84432 L 107.16150,131.69027 L 97.786759,130.36755 L 99.482929,114.26784 L 99.649765,112.82192 L 98.203850,112.84973 L 72.928141,113.29463 L 58.691439,110.70866 L 51.298905,101.68765 z " id="path1572" sodipodi:nodetypes="ccccccccccccccccccccc" style="fill:#3e3e3e;fill-rule:evenodd;stroke-width:2.8750000;" transform="matrix(0.837204,0.000000,0.000000,0.837204,-13.85057,-51.39540)"/>
  <path d="M 123.72172,70.139622 L 123.20150,70.250846 L 123.67420,79.037561 L 123.67420,79.093174 L 121.44972,92.968398 L 121.42191,93.079622 L 117.86273,106.84362 L 108.43648,122.52624 L 108.15842,122.99894 L 108.32526,123.55506 L 109.46132,130.12538 L 113.71974,129.37462 L 110.93903,123.33262 L 120.14283,107.98367 L 120.25406,107.81683 L 120.28186,107.65000 L 123.92446,93.607937 L 123.92446,93.552325 L 123.92446,93.496713 L 126.20455,79.454652 L 126.23236,79.315622 L 126.20455,79.176592 L 123.72172,70.139622 z " id="path1570" sodipodi:nodetypes="ccccccccccccccccccccccc" style="fill:#3e3e3e;fill-rule:evenodd;stroke-width:2.8750000;" transform="matrix(0.837204,0.000000,0.000000,0.837204,-13.85057,-51.39540)"/>
  <path d="M 159.23201,101.09795 C 159.23201,101.09795 164.66648,100.41864 165.11936,93.851988" id="path925" style="fill:none;fill-opacity:0.75000000;fill-rule:evenodd;stroke:#000000;stroke-width:0.88979397pt;" transform="matrix(0.837204,0.000000,0.000000,0.837204,-13.85057,-51.39540)"/>
  <path d="M 151.98605,91.134750 C 151.98605,91.134750 152.43892,87.511767 160.13776,88.417513" id="path926" style="fill:none;fill-opacity:0.75000000;fill-rule:evenodd;stroke:#000000;stroke-width:0.88979397pt;" transform="matrix(0.837204,0.000000,0.000000,0.837204,-13.85057,-51.39540)"/>
  <path d="M 89.282954,144.02400 C 90.590850,142.38913 99.310531,139.17883 101.23191,139.81929 C 103.15328,140.45975 102.02110,131.17310 110.66729,128.93149 C 117.04912,124.19908 114.01166,119.58046 117.18178,115.73105 C 118.08751,113.46668 125.38229,107.25919 131.34957,109.03841 C 137.45669,110.85933 141.26059,120.60552 137.41783,126.68988 C 133.57508,132.77425 130.69302,131.49332 130.69302,131.49332 C 130.69302,131.49332 131.97393,135.65631 124.60865,137.89791 C 117.24338,140.13952 117.88384,144.62273 117.88384,144.62273 C 117.88384,144.62273 113.08039,150.38686 107.95672,149.10594 C 102.83306,147.82503 104.44094,152.81893 103.29654,154.12683 L 89.282954,144.02400 z " id="path911" sodipodi:nodetypes="cccczccccccc" style="fill:#3c2b00;fill-rule:evenodd;stroke-width:1.0000000pt;" transform="matrix(0.837204,0.000000,0.000000,0.837204,-13.85057,-51.39540)"/>
  <path d="M 104.63166,140.75881 C 101.68889,137.16210 109.37279,127.84334 115.25832,132.42097 C 121.14385,136.99861 118.85504,145.00947 113.95043,146.31737 C 109.04582,147.62527 107.64105,144.43695 104.63166,140.75881 z " id="path1730" sodipodi:nodetypes="cccz" style="fill:url(#linearGradient1731);fill-opacity:1;fill-rule:evenodd;stroke-width:1.0000000pt;" transform="matrix(0.837204,0.000000,0.000000,0.837204,-13.85057,-51.39540)"/>
  <path d="M 117.87411,120.81339 C 116.59346,118.36108 118.52805,115.17309 120.81687,113.45648 C 123.10569,111.73987 128.96397,109.31480 131.60701,110.51371 C 134.25005,111.71262 137.19282,117.70714 136.67511,120.64991 C 136.15740,123.59268 131.63426,128.14306 128.50076,128.17031 C 125.36726,128.19756 119.15476,123.26570 117.87411,120.81339 z " id="path1733" sodipodi:nodetypes="czzzzz" style="fill:url(#linearGradient1734);fill-opacity:1;fill-rule:evenodd;stroke-width:1.0000000pt;" transform="matrix(0.837204,0.000000,0.000000,0.837204,-13.85057,-51.39540)"/>
  <path d="M 43.043287,81.709895 C 43.043287,81.709895 37.481249,96.742273 43.101808,101.61656 C 48.547426,106.33912 62.511493,107.77993 70.462669,90.758905 C 78.413846,73.737884 52.160018,58.024741 43.043287,81.709895 z " id="path2381" sodipodi:nodetypes="czzc" style="fill:url(#radialGradient1578);fill-opacity:1;fill-rule:evenodd;stroke-width:1.0000000pt;"/><text id="text893" sodipodi:linespacing="100%" style="font-size:8.0000000;stroke-width:1.0000000pt;font-family:Bitstream Vera Sans;" transform="scale(0.234913,0.234913)" x="41.218613" xml:space="preserve" y="-38.197464"><tspan id="tspan894">by Andrew Fitzsimon</tspan></text><text id="text902" style="font-size:12.000000;stroke-width:1.0000000pt;font-family:helvetica;" x="1.0848703" xml:space="preserve" y="-13.019662"><tspan id="tspan903">Random Ant</tspan></text>
  <path d="M 58.620022,74.099282 C 52.599836,74.675844 48.439316,83.330000 46.259620,90.111002 C 45.050197,90.629325 45.212055,83.284588 45.730379,82.075158 C 46.248701,80.865738 48.052607,74.095278 50.935452,72.113322 C 53.699848,70.212797 57.589713,70.113113 60.612240,71.196950 C 63.605727,72.270375 64.378052,73.547829 58.620022,74.099282 z " id="path910" sodipodi:nodetypes="ccczzz" style="fill:url(#linearGradient1515);fill-opacity:1;fill-rule:evenodd;stroke-width:1.0000000pt;"/>
</svg>
