<?xml version="1.0" encoding="UTF-8" standalone="no"?>
<!DOCTYPE svg PUBLIC "-//W3C//DTD SVG 20010904//EN"
"http://www.w3.org/TR/2001/REC-SVG-20010904/DTD/svg10.dtd">
<!-- Created with Sodipodi ("http://www.sodipodi.com/") -->
<svg
   id="svg570"
   sodipodi:version="0.32"
   width="450pt"
   height="450pt"
   sodipodi:docbase="/home/monkotronic/"
   sodipodi:docname="/home/monkotronic/bug"
   xmlns="http://www.w3.org/2000/svg"
   xmlns:sodipodi="http://sodipodi.sourceforge.net/DTD/sodipodi-0.dtd"
   xmlns:xlink="http://www.w3.org/1999/xlink">
  <defs
     id="defs572">
    <linearGradient
       id="linearGradient573">
      <stop
         style="stop-color:#fffffa;stop-opacity:0.823529;"
         offset="0.000000"
         id="stop574" />
      <stop
         style="stop-color:#ffffff;stop-opacity:0;"
         offset="1.000000"
         id="stop577" />
    </linearGradient>
    <linearGradient
       id="linearGradient617">
      <stop
         style="stop-color:#261abf;stop-opacity:1;"
         offset="0.000000"
         id="stop618" />
      <stop
         style="stop-color:#07f22f;stop-opacity:1;"
         offset="1.000000"
         id="stop619" />
    </linearGradient>
    <linearGradient
       id="linearGradient574">
      <stop
         style="stop-color:#ff0700;stop-opacity:1;"
         offset="0.000000"
         id="stop575" />
      <stop
         style="stop-color:#e50a17;stop-opacity:1;"
         offset="1.000000"
         id="stop576" />
    </linearGradient>
    <radialGradient
       xlink:href="#linearGradient574"
       id="radialGradient577"
       cx="0.49999997"
       cy="0.50000000"
       fx="0.49999997"
       fy="0.50000000"
       r="0.50000000"
       gradientUnits="objectBoundingBox"
       spreadMethod="pad" />
    <linearGradient
       xlink:href="#linearGradient617"
       id="linearGradient610" />
    <radialGradient
       xlink:href="#linearGradient573"
       id="radialGradient572" />
  </defs>
  <sodipodi:namedview
     id="base" />
  <path
     style="fill:black;fill-rule:nonzero;stroke:none;fill-opacity:1;stroke-opacity:1;stroke-width:1pt;stroke-linejoin:miter;stroke-linecap:butt;"
     id="path582"
     d="M 290.255 127.478 C 290.713 122.65 292.068 118.419 293.652 113.848 C 297.229 105.844 301.315 98.4549 306.064 91.0881 C 310.56 84.9089 315.346 78.9956 320.15 73.053 C 326.399 65.8993 331.671 61.751 340.646 58.5443 C 350.476 57.5652 356.569 58.9637 365.113 63.9154 C 369.074 67.3573 372.287 70.9677 375.448 75.1553 L 362.353 84.8594 C 360.304 82.1539 358.247 79.6885 355.726 77.4155 C 351.775 75.037 349.044 74.2953 344.44 74.6395 C 339.108 76.3491 336.407 79.3051 332.748 83.5054 C 328.246 89.0603 323.725 94.5667 319.495 100.332 C 315.406 106.594 311.878 112.8 308.909 119.668 C 308.078 122.257 306.99 124.727 307.245 127.478 L 290.255 127.478 z " />
  <path
     style="fill:black;fill-rule:nonzero;stroke:none;fill-opacity:1;stroke-opacity:1;stroke-width:1pt;stroke-linejoin:miter;stroke-linecap:butt;"
     id="path590"
     d="M 345.255 158.728 C 346.645 153.52 349.319 149.272 352.501 144.199 C 357.379 137.338 362.52 130.695 367.663 124.03 C 371.829 118.732 375.842 113.825 380.942 109.411 C 387.796 104.905 393.47 102.612 401.618 101.545 C 410.902 103.194 416.859 106.171 423.983 112.345 C 428.23 117.435 431.431 122.595 434.479 128.475 C 434.681 128.876 434.882 129.277 435.083 129.679 L 420.462 137.215 C 420.275 136.848 420.088 136.481 419.901 136.114 C 417.65 131.858 415.414 127.89 412.415 124.12 C 409.047 121.076 406.165 119.157 401.725 118.115 C 397.507 118.542 394.453 120.359 390.932 122.681 C 386.913 126.097 383.742 130.124 380.419 134.216 C 375.521 140.423 370.692 146.635 366.184 153.131 C 364.393 156.181 360.714 166.777 362.245 158.728 L 345.255 158.728 z " />
  <path
     style="fill:black;fill-rule:nonzero;stroke:none;fill-opacity:1;stroke-opacity:1;stroke-width:1pt;stroke-linejoin:miter;stroke-linecap:butt;"
     id="path592"
     d="M 399.048 211.379 C 396.956 213.936 405.163 204.645 406.713 202.997 C 412.719 196.705 418.671 190.38 424.482 183.908 C 429.669 178.38 434.615 173.719 441.092 169.767 C 448.21 166.942 453.758 165.933 461.403 166.586 C 469.734 169.633 475.095 173.653 481.141 180.123 C 484.219 184.453 486.536 188.655 488.574 193.56 L 473.169 199.26 C 471.944 196.148 470.538 193.509 468.631 190.762 C 465.449 187.307 462.615 184.678 458.242 182.908 C 454.74 182.512 451.876 183.385 448.587 184.608 C 443.837 187.384 440.265 191.01 436.457 194.964 C 430.538 201.428 424.501 207.779 418.548 214.211 C 415.894 217.261 413.403 220.409 410.997 223.576 L 399.048 211.379 z " />
  <path
     style="fill:black;fill-rule:nonzero;stroke:none;fill-opacity:1;stroke-opacity:1;stroke-width:1pt;stroke-linejoin:miter;stroke-linecap:butt;"
     id="path579"
     d="M 119.978 333.582 C 118.821 333.386 113.279 334.002 110.737 334.216 C 101.88 335.112 93.0433 336.163 84.2085 337.259 C 77.6424 338.207 71.388 339.007 65.2686 341.604 C 62.2828 343.641 61.263 345.05 60.3029 348.536 C 59.8549 354.086 60.143 359.681 60.0906 365.254 C 59.7079 371.174 58.8982 376.877 57.8114 382.708 L 41.8593 379.431 C 42.7182 374.588 43.4051 369.823 43.734 364.916 C 43.7749 358.26 43.5405 351.725 44.1856 345.1 C 46.932 336.306 50.3245 331.809 58.0264 326.736 C 66.0051 323.528 73.6918 322.256 82.2049 321.115 C 91.1441 320.028 100.084 318.949 109.02 317.841 C 112.672 317.375 116.32 316.802 119.978 316.418 L 119.978 333.582 z " />
  <path
     style="fill:black;fill-rule:nonzero;stroke:none;fill-opacity:1;stroke-opacity:1;stroke-width:1pt;stroke-linejoin:miter;stroke-linecap:butt;"
     id="path580"
     d="M 152.478 382.332 C 158.868 381.128 150.726 384.563 148.353 386.128 C 140.6 391.609 132.938 397.209 125.134 402.617 C 117.784 407.387 110.416 411.484 102.453 415.138 C 99.5452 416.471 97.4297 416.766 97.2287 418.84 C 97.0669 425.068 99.1144 429.98 101.529 435.688 C 104.585 441.822 107.557 447.931 110.221 454.247 L 95.0208 460.421 C 92.5976 454.343 89.8186 448.505 86.9403 442.63 C 82.9925 433.392 80.7328 425.947 81.0384 415.874 C 84.1415 406.864 87.4253 403.708 96.0768 399.919 C 103.167 396.819 109.668 393.299 116.195 389.14 C 123.964 383.798 131.532 378.224 139.091 372.589 C 143.579 369.342 147.122 366.509 152.478 365.168 L 152.478 382.332 z " />
  <path
     style="fill:black;fill-rule:nonzero;stroke:none;fill-opacity:1;stroke-opacity:1;stroke-width:1pt;stroke-linejoin:miter;stroke-linecap:butt;"
     id="path581"
     d="M 213.495 417.522 C 211.274 424.279 207.011 428.003 202.12 433.325 C 193.957 442.273 185.754 450.711 176.56 458.606 C 171.098 462.998 165.27 467.072 160.982 472.653 C 159.713 475.861 159.398 479.038 159.255 482.475 C 160.206 486.678 163.295 488.927 166.417 491.739 C 172.109 495.887 178.051 499.565 183.981 503.361 L 174.972 517.096 C 168.729 512.89 162.394 508.884 156.299 504.462 C 148.758 497.712 144.556 492.736 142.733 482.696 C 143.088 475.556 144.228 469.866 147.248 463.375 C 152.878 456.545 159.614 451.513 166.594 446.082 C 175.182 438.821 182.68 431.024 190.12 422.597 C 192.854 419.335 198.829 408.055 196.505 417.522 L 213.495 417.522 z " />
  <path
     sodipodi:type="arc"
     style="fill-rule:evenodd;stroke:none;fill:#000500;fill-opacity:1;stroke-opacity:1;stroke-width:1pt;stroke-linejoin:miter;stroke-linecap:butt;"
     id="path595"
     d="M 190.000000 164.375000 A 60.000000 60.625000 0 1 0 70.000000,164.375000 A 60 60.625 0 1 0 190 164.375 L 130.000000 164.375000 z"
     sodipodi:cx="130.000000"
     sodipodi:cy="164.375000"
     sodipodi:rx="60.000000"
     sodipodi:ry="60.625000"
     transform="translate(8.750000,-15.00000)" />
  <path
     sodipodi:type="arc"
     style="fill-rule:evenodd;stroke:none;fill:url(#radialGradient577);fill-opacity:1;stroke-opacity:1;stroke-width:1pt;stroke-linejoin:miter;stroke-linecap:butt;"
     id="path583"
     d="M 456.250000 306.875000 A 160.625000 170.625000 0 1 0 135.000000,306.875000 A 160.625 170.625 0 1 0 456.25 306.875 L 295.625000 306.875000 z"
     sodipodi:cx="295.625000"
     sodipodi:cy="306.875000"
     sodipodi:rx="160.625000"
     sodipodi:ry="170.625000"
     transform="matrix(0.896711,-0.501124,0.539658,0.965664,-161.9478,140.5564)" />
  <path
     style="fill:none;fill-rule:evenodd;stroke:black;stroke-opacity:1;stroke-width:1pt;stroke-linejoin:miter;stroke-linecap:butt;fill-opacity:1;"
     d="M 177.5 196.25 L 385 428.75 "
     id="path584" />
  <path
     sodipodi:type="arc"
     style="fill-rule:evenodd;stroke:none;fill:#000001;fill-opacity:1;stroke-opacity:1;stroke-width:1pt;stroke-linejoin:miter;stroke-linecap:butt;"
     id="path585"
     d="M 325.000000 198.125000 A 40.625000 40.625000 0 1 0 243.750000,198.125000 A 40.625 40.625 0 1 0 325 198.125 L 284.375000 198.125000 z"
     sodipodi:cx="284.375000"
     sodipodi:cy="198.125000"
     sodipodi:rx="40.625000"
     sodipodi:ry="40.625000"
     transform="translate(-16.25000,-8.750000)" />
  <path
     sodipodi:type="arc"
     style="fill-rule:evenodd;stroke:none;fill:#000101;fill-opacity:1;stroke-opacity:1;stroke-width:1pt;stroke-linejoin:miter;stroke-linecap:butt;"
     id="path586"
     d="M 415.000000 228.125000 A 25.625000 26.875000 0 1 0 363.750000,228.125000 A 25.625 26.875 0 1 0 415 228.125 L 389.375000 228.125000 z"
     sodipodi:cx="389.375000"
     sodipodi:cy="228.125000"
     sodipodi:rx="25.625000"
     sodipodi:ry="26.875000"
     transform="translate(-35.00000,6.250000)" />
  <path
     sodipodi:type="arc"
     style="fill-rule:evenodd;stroke:none;fill:#000101;fill-opacity:1;stroke-opacity:1;stroke-width:1pt;stroke-linejoin:miter;stroke-linecap:butt;"
     id="path587"
     d="M 421.250000 351.250000 A 37.500000 37.500000 0 1 0 346.250000,351.250000 A 37.5 37.5 0 1 0 421.25 351.25 L 383.750000 351.250000 z"
     sodipodi:cx="383.750000"
     sodipodi:cy="351.250000"
     sodipodi:rx="37.500000"
     sodipodi:ry="37.500000" />
  <path
     sodipodi:type="arc"
     style="fill-rule:evenodd;stroke:none;fill:#000101;fill-opacity:1;stroke-opacity:1;stroke-width:1pt;stroke-linejoin:miter;stroke-linecap:butt;"
     id="path588"
     d="M 333.750000 423.750000 A 26.875000 27.500000 0 1 0 280.000000,423.750000 A 26.875 27.5 0 1 0 333.75 423.75 L 306.875000 423.750000 z"
     sodipodi:cx="306.875000"
     sodipodi:cy="423.750000"
     sodipodi:rx="26.875000"
     sodipodi:ry="27.500000" />
  <path
     sodipodi:type="arc"
     style="fill-rule:evenodd;stroke:none;fill:#000101;fill-opacity:1;stroke-opacity:1;stroke-width:1pt;stroke-linejoin:miter;stroke-linecap:butt;"
     id="path589"
     d="M 247.500000 385.000000 A 40.000000 41.250000 0 1 0 167.500000,385.000000 A 40 41.25 0 1 0 247.5 385 L 207.500000 385.000000 z"
     sodipodi:cx="207.500000"
     sodipodi:cy="385.000000"
     sodipodi:rx="40.000000"
     sodipodi:ry="41.250000"
     transform="translate(6.250000,-6.250000)" />
  <path
     sodipodi:type="arc"
     style="fill-rule:evenodd;stroke:none;fill:#000101;fill-opacity:1;stroke-opacity:1;stroke-width:1pt;stroke-linejoin:miter;stroke-linecap:butt;"
     id="path591"
     d="M 177.500000 256.250000 A 28.750000 28.750000 0 1 0 120.000000,256.250000 A 28.75 28.75 0 1 0 177.5 256.25 L 148.750000 256.250000 z"
     sodipodi:cx="148.750000"
     sodipodi:cy="256.250000"
     sodipodi:rx="28.750000"
     sodipodi:ry="28.750000"
     transform="translate(5.000000,20.00000)" />
  <path
     style="fill:none;fill-rule:evenodd;stroke:black;stroke-opacity:1;stroke-width:3.75;stroke-linejoin:miter;stroke-linecap:butt;fill-opacity:1;stroke-dasharray:none;"
     d="M 87.5 136.25 C 61.6667 143.75 44.5833 127.5 32.5 113.75 "
     id="path597"
     sodipodi:nodetypes="cs"
     transform="matrix(-6.123032e-17,1.000000,1.000000,6.123032e-17,-48.44804,44.69810)" />
  <path
     style="fill:none;fill-rule:evenodd;stroke:black;stroke-opacity:1;stroke-width:3.75;stroke-linejoin:miter;stroke-linecap:butt;fill-opacity:1;stroke-dasharray:none;"
     d="M 87.5 136.25 C 61.6667 143.75 44.5833 127.5 32.5 113.75 "
     id="path599"
     sodipodi:nodetypes="cs"
     transform="matrix(-6.123032e-17,1.000000,1.000000,6.123032e-17,-22.19805,19.69810)" />
  <path
     sodipodi:type="arc"
     style="fill-rule:evenodd;stroke:none;fill:url(#radialGradient572);fill-opacity:1;stroke-opacity:1;stroke-width:1pt;stroke-linejoin:miter;stroke-linecap:butt;"
     id="path578"
     d="M 331.250000 353.750000 A 64.375000 66.250000 0 1 0 202.500000,353.750000 A 64.375 66.25 0 1 0 331.25 353.75 L 266.875000 353.750000 z"
     sodipodi:cx="266.875000"
     sodipodi:cy="353.750000"
     sodipodi:rx="64.375000"
     sodipodi:ry="66.250000"
     transform="matrix(0.847845,-0.507279,1.469845,1.524748,-441.8520,-140.2493)" />

  <metadata>
    <rdf:RDF 
     xmlns="http://web.resource.org/cc/"
     xmlns:dc="http://purl.org/dc/elements/1.1/"
     xmlns:rdf="http://www.w3.org/1999/02/22-rdf-syntax-ns#">
      <Work rdf:about="">
        <dc:title>ladybug</dc:title>
	<dc:description></dc:description>
        <dc:subject>
          <rdf:Bag>
            <rdf:li>bug</rdf:li>
            <rdf:li>animal</rdf:li>
            <rdf:li>ladybug</rdf:li>
            <rdf:li>insect</rdf:li>
          </rdf:Bag>
        </dc:subject>
        <dc:publisher>
           <Agent rdf:about="http://www.openclipart.org">
             <dc:title>HASH(0x84f1b80)</dc:title>
           </Agent>
         </dc:publisher>
         <dc:creator>
           <Agent rdf:about="">
             <dc:title>vance</dc:title>
           </Agent>
        </dc:creator>
         <dc:rights>
           <Agent rdf:about="">
             <dc:title>vance</dc:title>
           </Agent>
        </dc:rights>
        <dc:date></dc:date>
        <dc:format>image/svg+xml</dc:format>
        <dc:type rdf:resource="http://purl.org/dc/dcmitype/StillImage" />
        <license rdf:resource="Public Domain">
	  <dc:date></dc:date>
	</license>
        <dc:language>en</dc:language>
      </Work>

      <License rdf:about="Public Domain">
         <permits rdf:resource="http://web.resource.org/cc/Reproduction" />
         <permits rdf:resource="http://web.resource.org/cc/Distribution" />
         <permits rdf:resource="http://web.resource.org/cc/DerivativeWorks" />
      </License>


    </rdf:RDF>
  </metadata>
</svg>
