<?xml version="1.0" encoding="UTF-8" standalone="no"?>
<!DOCTYPE svg PUBLIC "-//W3C//DTD SVG 20010904//EN"
"http://www.w3.org/TR/2001/REC-SVG-20010904/DTD/svg10.dtd">
<!-- Created with Inkscape (http://www.inkscape.org/) --><svg height="128.00000pt" id="svg1" inkscape:version="0.39cvs" sodipodi:docbase="/home/andy/andy/SVG/svgart" sodipodi:docname="spider.svg" sodipodi:version="0.32" width="128.00000pt" xmlns="http://www.w3.org/2000/svg" xmlns:inkscape="http://www.inkscape.org/namespaces/inkscape" xmlns:sodipodi="http://sodipodi.sourceforge.net/DTD/sodipodi-0.dtd" xmlns:xlink="http://www.w3.org/1999/xlink" xmlns:xml="http://www.w3.org/XML/1998/namespace">
  <metadata>
    <rdf:RDF xmlns:cc="http://web.resource.org/cc/" xmlns:dc="http://purl.org/dc/elements/1.1/" xmlns:rdf="http://www.w3.org/1999/02/22-rdf-syntax-ns#">
      <cc:Work rdf:about="">
        <dc:title>Etiquette Icons</dc:title>
        <dc:description></dc:description>
        <dc:subject>
          <rdf:Bag>
            <rdf:li></rdf:li>
            <rdf:li>insect</rdf:li>
            <rdf:li>animal</rdf:li>
          </rdf:Bag>
        </dc:subject>
        <dc:publisher>
          <cc:Agent rdf:about="http://www.openclipart.org">
            <dc:title>Andy Fitzsimon</dc:title>
          </cc:Agent>
        </dc:publisher>
        <dc:creator>
          <cc:Agent>
            <dc:title>Andy Fitzsimon</dc:title>
          </cc:Agent>
        </dc:creator>
        <dc:rights>
          <cc:Agent>
            <dc:title>Andy Fitzsimon</dc:title>
          </cc:Agent>
        </dc:rights>
        <dc:date></dc:date>
        <dc:format>image/svg+xml</dc:format>
        <dc:type rdf:resource="http://purl.org/dc/dcmitype/StillImage"/>
        <cc:license rdf:resource="http://web.resource.org/cc/PublicDomain"/>
        <dc:language>en</dc:language>
      </cc:Work>
      <cc:License rdf:about="http://web.resource.org/cc/PublicDomain">
        <cc:permits rdf:resource="http://web.resource.org/cc/Reproduction"/>
        <cc:permits rdf:resource="http://web.resource.org/cc/Distribution"/>
        <cc:permits rdf:resource="http://web.resource.org/cc/DerivativeWorks"/>
      </cc:License>
    </rdf:RDF>
  </metadata>
  <defs id="defs3">
    <linearGradient id="linearGradient1646">
      <stop id="stop1647" offset="0.0000000" style="stop-color:#ff0000;stop-opacity:1.0000000;"/>
      <stop id="stop1649" offset="0.69372094" style="stop-color:#a00000;stop-opacity:0.71372551;"/>
      <stop id="stop1648" offset="1.0000000" style="stop-color:#960000;stop-opacity:0.0000000;"/>
    </linearGradient>
    <linearGradient id="linearGradient1527">
      <stop id="stop1528" offset="0" style="stop-color:#000;stop-opacity:1;"/>
      <stop id="stop1529" offset="1" style="stop-color:#fff;stop-opacity:1;"/>
    </linearGradient>
    <pattern height="250.00000" id="pattern903" width="250.00000">
      <image height="250.00000" id="image904" sodipodi:absref="/home/andy/spider.png" width="250.00000" xlink:href="/home/andy/spider.png"/>
    </pattern>
    <linearGradient id="linearGradient1530" x1="0.40880504" x2="1.0440252" xlink:href="#linearGradient1527" y1="0.63281250" y2="-1.0078125"/>
    <radialGradient cx="0.50000000" cy="0.50000000" fx="0.38759691" fy="0.67187500" id="radialGradient1645" r="0.50000000" xlink:href="#linearGradient1646"/>
  </defs>
  <sodipodi:namedview bordercolor="#666666" borderopacity="1.0" id="base" inkscape:cx="79.012624" inkscape:cy="46.646403" inkscape:pageopacity="0.0" inkscape:pageshadow="2" inkscape:window-height="471" inkscape:window-width="342" inkscape:window-x="340" inkscape:window-y="25" inkscape:zoom="1.1967058" pagecolor="#ffffff" showborder="false"/>
  <g id="g1701" style="fill-opacity:0.11949683;" transform="matrix(1.220873,0.000000,0.000000,1.270047,-71.14574,-198.5555)">
    <path d="M 129.05735,175.31671 C 128.83347,175.25500 128.53091,175.35096 128.27610,175.66046 C 126.01066,180.95139 125.10241,184.51270 122.05735,190.28546 C 120.90099,198.15420 119.99336,205.83675 118.93235,213.62921 C 117.94638,213.41769 116.94551,213.23982 115.90110,213.16046 C 114.40000,208.52693 111.68655,201.51752 110.52610,197.25421 C 108.32312,193.81035 106.84801,190.14664 104.61985,186.72296 C 103.14068,185.08754 100.97402,183.63963 99.494852,182.00421 C 99.133897,182.42426 101.67300,186.16681 102.99485,187.78546 C 104.26213,190.66363 106.43024,195.79608 109.18235,199.00421 C 110.58192,204.38397 111.54575,208.51651 112.61985,213.25421 C 111.69798,213.29649 110.66586,213.22451 109.86985,213.34796 C 108.88843,213.50016 107.93946,213.90273 107.05735,214.41046 C 106.91077,213.64135 106.44958,212.88763 106.05735,212.53546 C 103.80926,210.73839 103.22512,209.61974 101.33860,207.41046 C 98.052515,207.12982 90.976256,201.93393 87.307352,200.00421 C 82.597264,199.62945 77.890979,199.20902 73.182352,198.81671 C 74.439920,200.24294 75.615622,199.48763 76.776102,199.91046 C 80.124593,200.19013 83.583858,200.94329 86.932352,201.22296 C 90.491819,203.18141 93.542016,205.62613 96.776102,208.09796 C 99.104147,210.81881 102.38282,213.34827 105.11985,215.78546 C 104.85789,216.00278 104.67932,216.18410 104.43235,216.41046 C 102.55020,215.41925 97.235704,211.12145 93.994852,211.56671 C 85.997985,217.58887 80.549730,220.96492 71.713602,223.91046 C 71.164952,225.31391 70.467682,239.44996 70.651102,244.03546 C 71.978210,242.46443 71.601956,241.75554 71.901102,240.53546 C 71.904373,236.33344 72.616584,232.14372 72.619852,227.94171 C 81.807275,224.30903 87.488588,218.59307 95.276102,213.91046 C 97.812337,215.09246 99.974242,216.96965 102.30735,218.53546 C 102.02429,218.84181 101.61069,219.24783 101.36985,219.50421 C 99.561642,221.42907 97.346238,225.61417 97.307352,229.19171 C 97.268467,232.76925 97.917767,239.53055 101.61985,241.91046 C 105.70291,244.53529 111.69098,241.42902 116.18235,238.62921 C 118.61922,237.11012 120.80894,234.14622 122.49485,231.12921 C 123.19958,231.40780 123.98885,231.72756 124.52610,231.91046 C 122.82957,237.43008 118.33266,246.76742 119.46360,248.47296 C 116.85705,255.87669 113.66390,262.97549 111.05735,270.37921 C 111.66897,270.62135 121.09079,249.01542 121.27610,248.00421 C 122.81507,248.36504 124.36785,235.44273 125.43235,230.78546 C 124.64289,230.50829 123.85008,230.24073 123.05735,229.97296 C 123.17895,229.73759 123.31759,229.51818 123.43235,229.28546 C 125.27168,229.85509 127.32592,230.54755 128.96360,231.00421 C 132.48232,235.51881 136.46556,246.68298 137.65110,245.59796 C 140.14549,249.02306 141.62287,257.47946 141.33860,256.84796 C 141.08232,251.24830 140.18196,247.86938 138.58860,244.25421 C 140.42520,243.83907 132.21827,235.50960 130.80735,228.31671 C 129.08263,227.83637 126.55788,227.66798 124.33860,227.37921 C 124.41879,227.19363 124.45159,227.05907 124.52610,226.87921 L 138.86985,221.47296 C 145.53491,222.88633 155.00350,224.62347 161.33860,227.19171 C 163.55736,229.39967 165.93349,232.17265 167.24485,235.53546 C 166.75994,231.88253 164.38829,228.34098 162.08860,225.34796 L 160.68235,224.34796 C 154.19476,223.16122 147.96131,222.06570 142.46360,218.81671 L 138.93235,218.91046 L 125.74485,222.91046 C 125.77945,222.69077 125.81939,222.47385 125.83860,222.25421 C 126.13899,222.23977 126.38379,222.14126 126.49485,221.72296 C 131.04257,215.89668 136.32542,209.27930 140.55735,203.22296 C 150.65508,201.52818 156.95318,196.15004 165.40110,192.72296 C 168.32818,195.50421 171.94277,198.94171 174.86985,201.72296 C 174.76694,200.41244 168.45946,193.88258 165.65110,191.25421 C 156.84954,194.85203 148.85761,199.06853 139.21360,200.97296 C 136.55844,205.25990 130.77135,212.41246 125.21360,218.12921 C 124.59698,216.67354 123.64341,215.39526 122.18235,214.66046 C 122.04429,214.59103 121.85841,214.56864 121.71360,214.50421 C 122.35544,206.53677 123.00926,198.70149 123.65110,190.66046 C 126.23262,186.77321 127.51548,183.02723 128.58860,178.62921 C 129.10943,182.09796 129.63027,185.56671 130.15110,189.03546 C 130.90319,184.08805 130.20481,179.11945 129.49485,175.91046 C 129.44626,175.60129 129.28123,175.37842 129.05735,175.31671 z " id="path1664" style="fill-rule:evenodd;stroke-width:0.25000000;"/>
    <path d="M 128.96875,174.18750 C 125.09621,176.93139 125.20354,182.44734 122.76213,186.26959 C 119.33105,193.30775 119.99036,201.43924 118.45979,208.98696 C 119.01197,214.24306 115.35357,211.69784 115.32581,208.03885 C 112.81172,200.29051 109.83367,192.54430 105.07848,185.89418 C 102.82801,183.24988 99.963627,181.22421 97.281250,179.03125 C 99.127497,184.85486 103.10654,189.62222 105.43123,195.20700 C 108.99571,200.02923 109.67333,206.07606 111.10470,211.64878 C 110.18257,212.77049 106.73605,213.54080 105.96875,210.90625 C 103.47987,208.75081 101.69716,205.73298 98.156250,205.15625 C 92.930964,202.24101 87.945569,197.95677 81.577819,198.44504 C 77.530848,198.11166 73.486373,197.74728 69.437500,197.43750 C 72.688057,200.29366 76.724458,201.47646 80.985040,201.59937 C 88.799302,201.68510 94.474595,207.58443 99.937500,212.43750 C 96.885960,210.17463 92.603544,210.13742 89.913881,213.00174 C 83.958250,217.17120 77.700356,220.97127 70.718750,223.15625 C 69.964780,231.35215 69.462759,239.58167 69.718750,247.81250 C 72.846795,243.59489 73.488858,238.41852 73.430500,233.31578 C 73.105000,230.53640 73.845481,227.46680 76.985497,226.96471 C 83.473920,223.72598 89.167648,218.98243 95.343750,215.15625 C 97.205169,216.56026 102.27802,217.99948 99.225804,220.86543 C 95.415385,226.39988 95.368032,234.33653 98.771946,240.02197 C 100.82729,243.77793 105.65976,244.93943 109.36009,242.96615 C 115.00140,241.58107 119.81573,237.35539 122.81250,232.68750 C 122.43384,236.24959 120.09163,239.40753 119.41078,243.00714 C 118.32951,247.28407 117.55575,251.63090 115.55102,255.64936 C 113.50661,260.78990 111.71894,266.02652 109.81250,271.21875 C 113.10652,271.87305 113.23893,267.12290 114.75156,265.22901 C 117.65508,258.57002 121.18147,252.10152 123.67208,245.30764 C 124.58347,240.66342 125.49486,236.01921 126.40625,231.37500 C 131.04634,233.25039 131.67098,239.15178 134.32598,242.93338 C 136.85049,246.57962 139.39642,250.30341 139.86518,254.86657 C 140.25671,256.64280 142.25865,261.92605 142.08151,257.47240 C 142.75755,251.91758 140.25484,246.70287 138.91797,241.48355 C 135.84852,237.01788 133.24929,232.30989 131.21875,227.28125 C 126.75204,227.26990 127.88611,226.35351 131.26561,225.46176 C 135.26040,223.65190 139.68734,221.99845 143.96598,223.64519 C 149.87711,224.97330 155.98821,226.32328 161.42595,228.88292 C 164.26746,231.72034 165.89598,235.50599 168.43750,238.59375 C 168.48016,232.94010 165.74329,227.51849 161.65625,223.78125 C 155.57939,222.16901 149.28435,221.11328 143.60681,218.36775 C 138.39641,216.60846 133.41232,219.91366 128.40625,220.90625 C 132.94996,215.23923 136.96478,208.79704 142.19512,203.85496 C 150.39529,201.98025 157.65141,197.57063 165.18750,194.00000 C 168.91871,197.55910 172.61631,201.22035 176.84375,204.18750 C 175.06337,198.21177 170.02633,194.33822 165.90625,190.00000 C 156.88856,193.82983 147.77184,197.78943 138.37500,200.34375 C 134.29979,205.91650 130.03762,211.30854 125.34375,216.37500 C 124.43746,214.73448 121.85110,213.80339 123.03125,211.53125 C 123.80231,204.22871 123.77645,196.65557 125.44625,189.55826 C 126.71343,188.61591 128.17586,181.35112 128.40324,184.88155 C 128.84474,186.61364 129.78490,192.90687 130.57296,191.13300 C 131.92555,185.81638 131.51283,180.02130 130.07759,174.84505 C 129.80494,174.56307 129.40278,173.64063 128.96875,174.18750 z " id="path1690" style="fill-rule:evenodd;stroke-width:0.25000000;"/>
    <path d="M 129.31250,173.12500 C 125.70542,174.64298 124.60744,179.26410 123.09860,182.61366 C 119.10252,191.18225 118.32998,200.64481 117.21875,209.90625 C 113.13390,200.23859 110.67281,189.01399 102.28954,181.92589 C 100.41188,181.01277 97.550836,175.92411 96.062500,178.28125 C 98.879284,187.09487 104.94873,194.75899 107.95410,203.56589 C 107.84286,205.90194 111.75574,211.67837 108.04098,211.27044 C 104.67392,208.38854 101.68376,204.80702 97.258420,203.34847 C 92.295106,200.50883 87.244093,197.39961 81.322304,197.29312 C 76.936994,197.16230 72.372056,196.21062 68.093750,196.50000 C 67.552692,198.43535 71.571005,200.32410 73.591704,200.93386 C 79.796531,203.22874 87.306598,202.42447 92.309961,207.49436 C 96.790313,209.93782 93.258574,209.80507 90.373099,211.35688 C 83.835059,215.63657 77.207055,219.93667 69.718750,222.40625 C 68.928172,232.16004 68.657134,241.93575 68.593750,251.71875 C 72.524433,246.49362 74.589378,240.14396 74.472612,233.60894 C 73.937303,230.26140 76.106640,228.20586 78.894541,226.98694 C 84.377609,223.46004 89.860680,219.93315 95.343750,216.40625 C 98.423167,217.46804 99.334296,219.85116 97.434224,222.40448 C 94.433501,228.13181 94.922148,235.35814 98.218750,240.84375 C 100.93086,245.82983 107.60053,245.38567 111.99650,243.10326 C 115.19993,241.80615 118.19110,239.79405 120.40625,237.12500 C 117.25380,246.67464 114.53589,256.36272 110.72633,265.69195 C 110.68055,267.78619 106.18963,273.30270 110.11334,272.36573 C 114.76445,271.27768 115.30603,265.37416 117.47962,261.83304 C 121.43769,253.61450 125.38067,245.33108 126.59486,236.18430 C 126.49417,231.31059 129.46500,235.06321 130.24221,237.39164 C 133.31954,243.76737 138.13181,249.35324 139.34933,256.50095 C 139.89060,258.50106 143.49299,264.11407 142.85830,259.29069 C 143.98293,249.88937 140.13273,240.62486 135.08426,232.93020 C 134.89843,230.70737 130.08291,226.58085 133.43713,225.78499 C 140.85132,222.32283 148.74355,225.93168 155.98906,228.04852 C 162.42301,229.16027 164.66553,235.83698 168.37354,240.32492 C 170.98300,245.02272 169.16027,237.80759 169.22688,235.70844 C 168.08732,230.74282 165.76274,225.40579 161.39478,222.65041 C 154.82538,221.35410 148.55567,218.80009 142.13696,217.14398 C 138.38187,216.39102 134.74996,217.91534 131.21875,218.96875 C 135.33218,213.95219 138.65990,207.66631 144.28786,204.30624 C 151.63124,202.34907 158.18474,198.50633 165.00000,195.25000 C 169.52728,199.62217 174.36313,203.59107 179.34375,207.43750 C 177.35685,201.00088 173.30240,195.61081 168.39874,191.08905 C 166.59700,187.16029 163.29988,190.15022 160.46268,191.05880 C 152.99238,194.35028 145.12328,196.78281 137.56250,199.71875 C 133.64853,204.85834 129.64086,209.89322 125.34375,214.71875 C 122.63270,211.15609 125.04411,206.28212 124.90421,202.16013 C 125.39345,197.14150 125.95356,191.99755 127.68750,187.25000 C 128.07578,189.23693 129.09698,194.15505 131.71875,191.28125 C 132.94917,185.41617 132.32044,179.22147 130.46875,173.65625 C 130.08188,173.60484 129.73283,172.90696 129.31250,173.12500 z " id="path1695" style="fill-rule:evenodd;stroke-width:0.25000000;"/>
  </g>
  <g id="g1651" style="" transform="matrix(1.249028,0.000000,0.000000,1.249028,-39.49064,-43.35296)">
    <path d="M 66.000000,205.75000 C 65.793564,206.37546 65.278393,207.15256 66.296352,207.17668 C 67.041315,207.43029 68.363716,208.01385 69.108682,208.26746 C 67.412150,213.78708 62.922403,223.13200 64.053340,224.83754 C 61.446786,232.24127 58.262803,239.31503 55.656250,246.71875 C 56.267871,246.96088 65.691116,225.36813 65.876429,224.35692 C 67.415400,224.71775 68.966746,211.78227 70.031250,207.12500 C 68.691666,206.65468 67.343239,206.20977 66.000000,205.75000 z " id="path924" sodipodi:nodetypes="cccccccc" style="fill-rule:evenodd;stroke-width:0.25000000;" transform="translate(27.71673,-98.98831)"/>
    <path d="M 66.656250,203.40625 C 66.683138,203.83322 65.915457,205.16657 66.599024,205.21412 C 68.653100,205.78689 71.489624,206.79800 73.543703,207.37077 C 77.062421,211.88537 81.047776,223.04954 82.233318,221.96452 C 84.727716,225.38962 86.210061,233.82004 85.925789,233.18854 C 85.669503,227.58889 84.780855,224.20892 83.187500,220.59375 C 85.024105,220.17861 76.799462,211.87672 75.388546,204.68383 C 73.056266,204.03427 68.989407,204.05270 66.656250,203.40625 z " id="path923" sodipodi:nodetypes="cccccccc" style="fill-rule:evenodd;stroke-width:0.25000000;" transform="translate(27.71673,-98.98831)"/>
    <path d="M 83.511260,195.25139 L 69.127529,199.63259 L 68.450146,203.49102 L 83.451289,197.82123 C 90.116351,199.23460 99.586082,200.97794 105.92118,203.54618 C 108.13993,205.75413 110.52366,208.53952 111.83502,211.90233 C 111.35011,208.24940 108.96793,204.67896 106.66824,201.68594 L 105.26632,200.70888 C 98.778722,199.52214 92.538594,198.41789 87.040879,195.16890 L 83.511260,195.25139 z " id="path922" sodipodi:nodetypes="cccccccccc" style="fill-rule:evenodd;stroke-width:0.25000000;" transform="translate(27.71673,-98.98831)"/>
    <path d="M 110.25000,167.59375 C 101.44844,171.19157 93.456506,175.41819 83.812500,177.32262 C 80.947853,181.94780 74.463892,190.04236 68.525099,195.91572 C 67.357421,196.95754 70.592089,199.96776 71.095425,198.07201 C 75.643142,192.24573 80.919258,185.64756 85.151192,179.59122 C 95.248914,177.89644 101.55208,172.48958 110.00000,169.06250 C 112.92708,171.84375 116.51409,175.28492 119.44117,178.06617 C 119.33825,176.75564 113.05836,170.22212 110.25000,167.59375 z " id="path921" sodipodi:nodetypes="cccccccc" style="fill-rule:evenodd;stroke-width:0.25000000;" transform="translate(27.71673,-98.98831)"/>
    <path d="M 72.873857,152.01481 C 70.608417,157.30575 69.695114,160.86970 66.650049,166.64246 C 65.263028,176.08080 64.288457,185.18919 62.901436,194.62753 C 63.923032,194.85126 64.944628,195.07498 65.966225,195.29871 C 66.727483,185.76164 67.488742,176.55453 68.250000,167.01746 C 70.831518,163.13021 72.114382,159.36677 73.187500,154.96875 C 73.708333,158.43750 74.229167,161.90625 74.750000,165.37500 C 75.502087,160.42759 74.782724,155.47032 74.072763,152.26133 C 73.975591,151.64298 73.383479,151.39582 72.873857,152.01481 z " id="path920" sodipodi:nodetypes="ccccccccc" style="fill-rule:evenodd;stroke-width:0.25000000;" transform="translate(27.71673,-98.98831)"/>
    <path d="M 44.093750,158.34375 C 43.732796,158.76380 46.267864,162.53200 47.589712,164.15065 C 48.856995,167.02882 51.031671,172.13423 53.783779,175.34236 C 55.588596,182.27984 56.718659,186.71122 58.216271,193.72313 C 58.358728,194.38705 60.855321,194.04314 61.427939,194.06517 C 62.597024,193.81736 56.905849,180.13630 55.125000,173.59375 C 52.922025,170.14989 51.419330,166.50870 49.191172,163.08502 C 47.712005,161.44960 45.572917,159.97917 44.093750,158.34375 z " id="path919" sodipodi:nodetypes="cccccccc" style="fill-rule:evenodd;stroke-width:0.25000000;" transform="translate(27.71673,-98.98831)"/>
    <path d="M 17.781250,175.15625 C 19.038819,176.58248 20.208629,175.83402 21.369109,176.25685 C 24.717602,176.53652 28.182756,177.28283 31.531250,177.56250 C 35.090718,179.52095 38.123952,181.96452 41.358038,184.43635 C 43.908348,187.41697 47.678276,190.20808 50.533365,192.85197 C 52.649860,191.93915 51.449938,189.61259 50.649841,188.89421 C 48.401756,187.09714 47.817366,185.95932 45.930844,183.75004 C 42.644754,183.46941 35.575154,178.27347 31.906250,176.34375 C 27.196163,175.96899 22.489877,175.54856 17.781250,175.15625 z " id="path918" sodipodi:nodetypes="ccccccccc" style="fill-rule:evenodd;stroke-width:0.25000000;" transform="translate(27.71673,-98.98831)"/>
    <path d="M 38.591753,187.91048 C 30.594885,193.93264 25.124652,197.31183 16.288524,200.25737 C 15.739872,201.66082 15.066580,215.78950 15.250000,220.37500 C 16.577109,218.80397 16.203505,218.12394 16.502651,216.90386 C 16.505919,212.70184 17.209138,208.49983 17.212406,204.29782 C 26.399826,200.66514 32.087486,194.93261 39.875000,190.25000 C 42.754261,191.59186 45.095298,193.91081 47.822956,195.54993 C 49.426449,193.76367 50.263801,193.75253 49.193602,192.88882 C 47.420893,192.02217 41.898912,187.45611 38.591753,187.91048 z " id="path917" sodipodi:nodetypes="ccccccccc" style="fill-rule:evenodd;stroke-width:0.25000000;" transform="translate(27.71673,-98.98831)"/>
    <path d="M 45.963586,195.85293 C 44.155374,197.77780 41.919412,201.95807 41.880526,205.53561 C 41.841640,209.11315 42.494818,215.87151 46.196903,218.25142 C 50.279963,220.87625 56.287893,217.78479 60.779259,214.98498 C 65.270625,212.18517 68.945379,204.38847 70.111967,200.63594 C 71.278555,196.88341 70.093668,192.69713 66.768891,191.02502 C 63.444114,189.35291 58.083809,189.14619 54.447942,189.71004 C 50.812075,190.27389 47.771798,193.92806 45.963586,195.85293 z " id="path1524" sodipodi:nodetypes="czzzzzzz" style="fill-rule:evenodd;stroke-width:1.0000000pt;" transform="translate(27.71673,-98.98831)"/>
    <path d="M 48.287495,196.08510 C 48.287495,196.08510 50.888283,189.65784 60.568995,191.54135 C 70.249706,193.42485 67.648918,199.70762 66.493012,201.08720 C 65.337106,202.46676 42.074501,218.96053 48.287495,196.08510 z " id="path1526" style="fill:url(#linearGradient1530);fill-opacity:1;fill-rule:evenodd;stroke-width:1.0000000pt;" transform="translate(27.71673,-98.98831)"/>
    <path d="M 54.938513 208.15685 A 6.9291821 6.9291821 0 1 0 41.080149,208.15685 A 6.9291821 6.9291821 0 1 0 54.938513 208.15685 z" id="path1525" sodipodi:cx="48.009331" sodipodi:cy="208.15685" sodipodi:rx="6.9291821" sodipodi:ry="6.9291821" sodipodi:type="arc" style="fill:url(#radialGradient1645);fill-opacity:1;fill-rule:evenodd;stroke-width:1.0000000pt;" transform="matrix(1.142856,0.000000,0.000000,1.142856,23.49794,-126.0854)"/>
  </g><text id="text893" sodipodi:linespacing="100%" style="font-size:8.0000000;stroke-width:1.0000000pt;font-family:Bitstream Vera Sans;" transform="scale(0.234913,0.234913)" x="52.133385" xml:space="preserve" y="-41.375668"><tspan id="tspan894">by Andrew Fitzsimon</tspan></text><text id="text902" style="font-size:12.000000;stroke-width:1.0000000pt;font-family:helvetica;" x="3.6488919" xml:space="preserve" y="-13.766264"><tspan id="tspan903">Redback Spider</tspan></text>
</svg>
