<?xml version="1.0" encoding="UTF-8" standalone="no"?>
<!-- Generator: Adobe Illustrator 12.0.0, SVG Export Plug-In . SVG Version: 6.00 Build 51448)  --><svg height="199.426" id="Layer_1" inkscape:version="0.40+cvs" sodipodi:docbase="F:\openclip\svg da inviare" sodipodi:docname="ragnetto incazzato.svg" sodipodi:version="0.32" style="overflow:visible;enable-background:new 0 0 268.661 199.426;" version="1.1" viewBox="0 0 268.661 199.426" width="268.661" xml:space="preserve" xmlns="http://www.w3.org/2000/svg" xmlns:cc="http://web.resource.org/cc/" xmlns:dc="http://purl.org/dc/elements/1.1/" xmlns:inkscape="http://www.inkscape.org/namespaces/inkscape" xmlns:rdf="http://www.w3.org/1999/02/22-rdf-syntax-ns#" xmlns:sodipodi="http://inkscape.sourceforge.net/DTD/sodipodi-0.dtd" xmlns:svg="http://www.w3.org/2000/svg" xmlns:xml="http://www.w3.org/XML/1998/namespace"><metadata><rdf:RDF xmlns:cc="http://web.resource.org/cc/" xmlns:dc="http://purl.org/dc/elements/1.1/" xmlns:rdf="http://www.w3.org/1999/02/22-rdf-syntax-ns#"><cc:Work rdf:about=""><dc:title>Ragnetto incazzato</dc:title><dc:description></dc:description><dc:subject><rdf:Bag><rdf:li>architetto francesco rollandin</rdf:li><rdf:li>insect</rdf:li></rdf:Bag></dc:subject><dc:publisher><cc:Agent rdf:about="http://www.openclipart.org/"><dc:title>Open Clip Art Library</dc:title></cc:Agent></dc:publisher><dc:creator><cc:Agent><dc:title>Architetto Francesco Rollandin</dc:title></cc:Agent></dc:creator><dc:rights><cc:Agent><dc:title>Architetto Francesco Rollandin</dc:title></cc:Agent></dc:rights><dc:date></dc:date><dc:format>image/svg+xml</dc:format><dc:type rdf:resource="http://purl.org/dc/dcmitype/StillImage"/><cc:license rdf:resource="http://web.resource.org/cc/PublicDomain"/><dc:language>en</dc:language></cc:Work><cc:License rdf:about="http://web.resource.org/cc/PublicDomain"><cc:permits rdf:resource="http://web.resource.org/cc/Reproduction"/><cc:permits rdf:resource="http://web.resource.org/cc/Distribution"/><cc:permits rdf:resource="http://web.resource.org/cc/DerivativeWorks"/></cc:License></rdf:RDF></metadata>
<defs id="defs220"></defs>
<sodipodi:namedview bordercolor="#666666" borderopacity="1.0" id="base" inkscape:current-layer="Layer_1" inkscape:cx="134.33050" inkscape:cy="99.712997" inkscape:pageopacity="0.0" inkscape:pageshadow="2" inkscape:window-height="540" inkscape:window-width="640" inkscape:window-x="22" inkscape:window-y="29" inkscape:zoom="1.8954400" pagecolor="#ffffff"></sodipodi:namedview>

<path d="M90.747,199.255c-5.586-3.491-8.77-6.795-12-12.75  c-3.005-5.54-5.061-11.572-6.905-17.567c-1.64-5.329-2.095-11.011-2.095-16.558c0-2.821,0-5.643,0-8.464  c0-2.726,1.204-5.135,1.649-7.804c2.091-12.545,6.884-22.545,17.658-29.728c1.8-1.2-1.417-6.348-1.932-7.379  c-1.029-2.059-5.959-3.962-7.917-5.208c-4.583-2.917-11.283-0.128-15.457,1.959c-13.706,6.853-21.501,19.835-26.716,33.743  c-4.937,13.164-3.251,27.154-0.284,40.507c-2.703,0.338-5.14,1.118-7.661,0.038c-3.809-1.633-3.598-1.587-4.333-5.553  c-1.214-6.555-3.006-13.144-3.006-19.824c0-11.188,2.514-21.835,8.25-31.661c5.633-9.648,13.632-19.566,23.75-24.625  c2.489-1.244,4.843-2.406,7.479-3.284c2.559-0.853,4.742-0.078,7.41,0.382c4.099,0.707,8.198,1.414,12.296,2.12  c3.161,0.545,3.425,1.154,5.371-1.323c2.207-2.809,4.414-5.617,6.62-8.426c-0.292,0.371-3.743-7.01-3.88-7.354  c-2.242-5.604-6.838-8.435-11.72-11.689c-5.137-3.425-11.311-4.7-17.184-6.507c-6.249-1.923-10.961-1.263-17.017,0.331  c-2.079,0.547-5.997,0.747-7.569,2.319c-2.23,2.23-4.46,4.46-6.689,6.689c-4.74,4.74-8.242,9.274-10.968,15.408  c-2.238,5.036-3.907,10.281-4.592,15.764c-0.496,3.969,0.126,14.56-5.056,15.694c-2.539,0.556-5.73-2.82-7.662-4.108  c-1.323-0.882-0.017-4.624,0.172-6.022c0.986-7.299,1.973-14.598,2.959-21.897c0.637-4.71,5.793-11.078,8.192-15.075  c2.905-4.842,8.446-9.255,12.408-13.217c4.33-4.33,9.62-4.221,15.205-5.417c5.638-1.208,10.468-0.951,16.181-0.237  c12.478,1.56,22.38,6.309,32.933,12.904c5.324,3.327,8.801,8.354,12.22,13.481c1.035,1.552,12.172-5.588,14.594-6.396  c12.626-4.209,25.006-6.359,38.147-8.612c2.972-0.509,4.522-9.941,6.252-12.824c3.048-5.079,5.895-11.451,9.774-15.977  c4.009-4.676,8.355-8.516,13.026-12.519c2.213-1.897,2.813-0.478,5.123-2.017c3.516-2.344,7.032-4.688,10.548-7.033  c7.544-5.029,23.41-4.292,31.319-0.338c2.846,1.423,5.706,2.703,8.632,3.957c2.355,1.01,4.82,5.044,6.544,6.901  c1.743,1.878,3.269,3.37,4.404,5.64c1.989,3.98,2.952,4.945,1.752,9.145c-1.784,6.244-10.272-1.201-11.687-4.5  c-2.432-5.675-6.096-10.512-11.798-12.793c-5.899-2.36-12.668-1.296-18.972-1.296c-1.938,0-3.988,1.864-5.606,2.801  c-3.111,1.801-6.223,3.602-9.334,5.403c-0.918,0.531-1.409,1.778-2.328,2.295c-1.06,0.596-2.488,0.238-3.389,1.139  c-2.227,2.227-4.341,3.835-6.361,6.361c-4.028,5.035-6.423,8.575-8.752,14.504c-1.476,3.756-2.95,7.512-4.426,11.268  c-1.42,3.615-0.534,2.944,3.188,4.433c2.708,1.083,4.508,2.114,6.914,0.109c2.44-2.034,4.889-3.857,7.576-5.563  c9.915-6.294,21.515-8.748,33.056-7.306c11.88,1.485,21.395,8.549,30.347,16.222c2.288,1.961,4.151,4.217,6.14,6.489  c1.743,1.992,1.931,4.749,3.374,6.553c4.231,5.29,6.044,9.683,7.583,16.226c1.158,4.923,3.007,10.295,1.737,15.373  c-1.449,5.795-10.482,3.469-11.325-1.588c-2.016-12.098-3.148-22.703-11.286-32.468c-1.929-2.314-4.19-3.263-6.375-5.25  c-2.223-2.022-3.576-4.853-6-6.75c-4.189-3.279-10.121-6-15.444-6c-2.229,0-4.375-0.086-6.563,0.352  c-2.569,0.514-7.378,0.489-9.555,1.94c-5.8,3.866-11.6,7.733-17.399,11.599c-1.362,0.909,0.157,5.573,0.352,7.033  c0.619,4.643,0.205,4.508,4.861,5.284c5.556,0.926,9.908,3.746,14.748,6.166c11.256,5.628,17.303,16.139,22.348,27.238  c5.45,11.99,4.202,26.3,5.053,39.344c0.103,1.578-0.606,4.612-2.149,5.293c-0.927,0.409-8.247-0.816-9-1.5  c-1.289-1.17-0.75-4.967-0.75-6.371c0-4.307,0-8.612,0-12.918c0-11.41-2.47-21.809-8.25-31.71  c-5.309-9.094-16.312-18.019-27.24-16.926c-3.781,0.378-4.635,0.718-7.635,3.051c-2.268,1.764-4.254,3.087-6.785,4.42  c-5.815,3.061-11.047,5.524-17.215,7.58c-11.068,3.689-22.238,7.125-33.999,7.125c-5.352,0-12.28-1.423-17.07,0.972  c-2.666,1.333-5.127,2.063-6.681,4.652c-1.772,2.954-4.87,4.371-7.718,6.271c-1.837,1.225-4.494,13.473-4.723,15.758  c-0.55,5.499-1.201,11.076-0.333,16.573c1.83,11.59,2.518,26.469,12.392,34.368c2.897,2.318,4.053,2.866,3.006,6.53  C96.412,200.427,94.559,199.255,90.747,199.255" id="path3" style="fill-rule:evenodd;clip-rule:evenodd;fill:#0E0D0D;"></path>

<path d="M138.747,92.755c5.662-1.132,16.597-2.279,20.25,3.75  c2.6,4.29-2.169,4.042-5.257,3.655c-4.21-0.526-8.229-0.655-12.466-0.655c-3.114,0-7.73,2.96-10.027,4.875  c-2.22,1.85-8.25,7.202-8.25,1.477C122.997,98.622,132.848,93.935,138.747,92.755" id="path5" style="fill-rule:evenodd;clip-rule:evenodd;fill:#FFBF00;"></path>

<path d="M142.497,90.505c-1.25,0.25-2.5,0.5-3.75,0.75c0.886,3.542,0.969,2.957,4.5,2.25  C141.889,93.48,142.497,91.691,142.497,90.505" id="path7"></path>

<path d="M146.247,90.505c-3.518,0-3.75-0.576-3.75,3C144.577,93.089,147.146,93.396,146.247,90.505" id="path9"></path>

<path d="M149.997,90.505c-1.009,0-5.901-0.454-3.75,2.25C148.513,95.604,149.632,91.968,149.997,90.505" id="path11"></path>

<path d="M152.997,91.255c-3.197-0.799-2.95-0.947-3.75,2.25C151.285,93.505,152.945,93.955,152.997,91.255" id="path13"></path>

<path d="M155.997,92.005c-2.283-0.571-3.362-1.38-3.75,1.5c1,0.25,2,0.5,3,0.75c-0.25,0-0.5,0-0.75,0  C154.997,93.505,155.497,92.755,155.997,92.005" id="path15"></path>

<path d="M158.247,93.505c-0.394-0.262-1.836-1.583-2.25-1.5c-0.181,0.036-1.536,2.069-1.5,2.25s2.069,1.536,2.25,1.5  C157.161,95.673,157.985,93.898,158.247,93.505" id="path17"></path>

<path d="M160.497,95.755c-1.254-0.106-1.543-1.189-2.25-2.25c-1.023,1.535-2.229,2.566,0,3.75c-0.25-0.25-0.5-0.5-0.75-0.75  C158.497,96.255,159.497,96.005,160.497,95.755c-0.25,0-0.5,0-0.75,0C159.997,95.755,160.247,95.755,160.497,95.755" id="path19"></path>

<path d="M161.247,98.005c-0.388-2.88-1.467-2.071-3.75-1.5c0.5,0.75,1,1.5,1.5,2.25c-0.25-0.25-0.5-0.5-0.75-0.75  C159.247,98.005,160.247,98.005,161.247,98.005" id="path21"></path>

<path d="M160.497,101.005c2.706-3.656-2.778-4.039-2.25-1.5c0.25-0.25,0.5-0.5,0.75-0.75  C159.497,99.505,159.997,100.255,160.497,101.005c0.48-0.725,0.638-0.639,0.75-1.5C160.997,100.005,160.762,100.513,160.497,101.005  " id="path23"></path>

<path d="M158.997,101.755c2.366-0.164,0.859-1.711,0-3c-0.25,0.25-0.5,0.5-0.75,0.75c1.725,0.207-0.225,2.043,1.5,2.25  C159.497,101.755,159.247,101.755,158.997,101.755" id="path25"></path>

<path d="M154.497,101.755c1.744,0,4.5,0.916,4.5-1.125c0-2.013-2.735-1.581-4.5-1.875  C154.497,99.755,154.497,100.755,154.497,101.755" id="path27"></path>

<path d="M148.497,100.255c-0.25,0-0.5,0-0.75,0c2.25,0.5,4.5,1,6.75,1.5c0-1.214,0.615-2.923-0.757-3.095  c-1.748-0.218-3.495-0.437-5.243-0.655C148.497,98.682,148.315,99.608,148.497,100.255" id="path29"></path>

<path d="M144.747,100.255c2.571,0,3.75,0.85,3.75-1.898c0-0.729-3.562-0.352-4.5-0.352c0.25,0,0.5,0,0.75,0c-0.25,0-0.5,0-0.75,0  C144.235,98.722,144.384,99.596,144.747,100.255" id="path31"></path>

<path d="M140.997,101.005c1.25-0.25,2.5-0.5,3.75-0.75c-0.076-3.196-2.339-1.932-4.5-1.5  C140.472,99.43,140.599,100.422,140.997,101.005" id="path33"></path>

<path d="M137.997,101.755c-0.25,0-0.5,0-0.75,0c1.25-0.25,2.5-0.5,3.75-0.75c-0.071-2.97-4.019-2.695-4.5-0.75c0-0.25,0-0.5,0-0.75  C136.541,100.449,137.113,101.237,137.997,101.755" id="path35"></path>

<path d="M134.247,104.005c1.25-0.75,2.5-1.5,3.75-2.25C136.587,99.041,132.56,101.06,134.247,104.005" id="path37"></path>

<path d="M128.997,107.755c2.057-1.47,6.624-3.021,4.5-6C131.44,103.225,126.873,104.777,128.997,107.755" id="path39"></path>

<path d="M125.247,110.005c2.233-0.28,4.67-2.18,3-4.5c-1.25,0.75-2.5,1.5-3.75,2.25c1.725,0.207-0.225,2.043,1.5,2.25  C125.747,110.005,125.497,110.005,125.247,110.005" id="path41"></path>

<path d="M122.997,109.255c2.311,2.613,3.552-2.09,0.75-1.5c0.25,0.25,0.5,0.5,0.75,0.75c-1.201,0.372-2.225,1.161-0.75,1.5  C123.497,109.755,123.247,109.505,122.997,109.255" id="path43"></path>

<path d="M121.497,107.755c0.778,0.367,3.936,2.619,3-0.75C123.497,107.255,122.497,107.505,121.497,107.755c0.25,0,0.5,0,0.75,0  C121.997,107.755,121.747,107.755,121.497,107.755" id="path45"></path>

<path d="M121.497,104.755c0,1,0,2,0,3C125.299,106.805,125.299,105.706,121.497,104.755c0,0.25,0,0.5,0,0.75  C121.497,105.255,121.497,105.005,121.497,104.755" id="path47"></path>

<path d="M122.247,102.505c-0.363,0.659-0.511,1.534-0.75,2.25c1,0.25,2,0.5,3,0.75c0-0.682,0.176-1.596,0-2.25c0,0.25,0,0.5,0,0.75  C123.747,103.505,122.997,103.005,122.247,102.505" id="path49"></path>

<path d="M123.747,100.255c-0.262,0.393-1.583,1.836-1.5,2.25c0.036,0.181,2.069,1.536,2.25,1.5s1.536-2.069,1.5-2.25  C125.915,101.342,124.14,100.518,123.747,100.255" id="path51"></path>

<path d="M125.997,98.005c-0.75,0.75-1.5,1.5-2.25,2.25c2.398,1.599,2.151,1.648,3.75-0.75c0,0.25,0,0.5,0,0.75  C126.997,99.505,126.497,98.755,125.997,98.005" id="path53"></path>

<path d="M128.247,95.755c-2.15,2.15-2.458,1.938-0.75,4.5C129.647,98.105,129.955,98.317,128.247,95.755" id="path55"></path>

<path d="M131.247,94.255c-1,0.5-2,1-3,1.5c1.761,2.642,1.698,2.151,4.5,0.75C132.247,95.755,131.747,95.005,131.247,94.255" id="path57"></path>

<path d="M134.997,92.755c-1.25,0.5-2.5,1-3.75,1.5c0.934,1.401,0.959,2.521,2.556,1.722  C135.629,95.064,136.188,94.833,134.997,92.755" id="path59"></path>

<path d="M138.747,91.255c-2.072,0.829-4.926,1.03-3,3.75c1.25-0.5,2.5-1,3.75-1.5c0,0.25,0,0.5,0,0.75  C139.247,93.255,138.997,92.255,138.747,91.255" id="path61"></path>

<path d="M124.497,106.255c4.749,5.936,9.971,9.17,17.25,11.25  c-4.11-5.137-7.165-10.741-8.25-17.25C130.935,103.672,128.435,104.68,124.497,106.255" id="path63" style="fill-rule:evenodd;clip-rule:evenodd;fill:#FFFFAF;"></path>

<path d="M128.247,109.255c-1.468-1.835-2.616-4.894-5.25-3c0.989,1.484,2.022,4.219,3.75,4.5c-0.25,0-0.5,0-0.75,0  C126.941,110.711,127.729,110.14,128.247,109.255" id="path65"></path>

<path d="M131.997,112.255c-1.635-1.308-3.74-4.4-5.25-1.5c1.5,1.25,3,2.5,4.5,3.75C131.477,113.815,131.941,112.977,131.997,112.255  " id="path67"></path>

<path d="M137.247,114.505c-1.75-0.75-3.5-1.5-5.25-2.25c-2.174,3.073,2.294,3.555,4.5,4.5  C136.722,116.082,137.218,115.209,137.247,114.505" id="path69"></path>

<path d="M140.247,117.505c0.566-0.346,1.027-1.027,1.5-1.5c-1.5-0.5-3-1-4.5-1.5c-0.311,0.443-0.732,1.709-0.75,2.25  c2.032,0.677,4.669,2.57,6,0c-0.565,0.363-1.022,1.022-1.5,1.5c1.25,0.25,2.5,0.5,3.75,0.75  C143.101,117.358,142.584,116.208,140.247,117.505" id="path71"></path>

<path d="M137.997,114.505c1.315,1.753,2.084,3.989,4.5,2.25c-0.75-1.25-1.5-2.5-2.25-3.75  C139.497,113.505,138.747,114.005,137.997,114.505" id="path73"></path>

<path d="M134.997,110.005c1.582,0.026,2.333,3.166,3,4.5c3.266-2.177,1.269-2.972-0.75-6c0.25,0,0.5,0,0.75,0  C136.997,109.005,135.997,109.505,134.997,110.005c0.25,0,0.5,0,0.75,0C135.497,110.005,135.247,110.005,134.997,110.005" id="path75"></path>

<path d="M133.497,105.505c0.5,1.5,1,3,1.5,4.5c3.881-1.94,2.627-2.247,0.75-6C135.707,105.083,134.615,105.375,133.497,105.505" id="path77"></path>

<path d="M134.247,101.755c-0.646-0.371-1.541-0.514-2.25-0.75c0.728,2.182,0.788,5.824,3.75,3.75c-0.64-1.92-0.766-4.646-3-5.25  c0.407,0.336,1.025,0.513,1.5,0.75c0.094-0.622,0.142-1.64,0-2.25C132.018,99.189,133.224,100.22,134.247,101.755" id="path79"></path>

<path d="M131.247,104.005c3.23-0.103,2.718-2.672,1.5-4.5c-1,0.75-2,1.5-3,2.25c1.65,0.061,0.6,2.189,2.25,2.25  C131.747,104.005,131.497,104.005,131.247,104.005" id="path81"></path>

<path d="M128.997,105.505c1.792-1.194,2.841-1.526,1.5-3.75c-1,0.5-2,1-3,1.5C128.575,103.295,128.867,104.388,128.997,105.505" id="path83"></path>

<path d="M125.247,105.505c-0.312,0.449-0.505,1.01-0.75,1.5c2.182-0.727,5.824-0.788,3.75-3.75c-1.92,0.64-4.646,0.766-5.25,3  c0.31-0.451,0.505-1.009,0.75-1.5c-0.477,0.106-1.095,0.473-1.5,0.75C123.056,106.481,124.164,106.186,125.247,105.505" id="path85"></path>

<path d="M158.247,97.255c0.689,6.788-4.854,14.083-9.75,18  c0.507-3.04,0.95-5.9,0.75-9c-0.144-2.227-0.127-7.148-1.5-9C151.611,98.028,154.359,97.903,158.247,97.255" id="path87" style="fill-rule:evenodd;clip-rule:evenodd;fill:#FFFFAF;"></path>

<path d="M159.747,100.255c0-2.88,0.349-3-2.688-3c-0.473,0-0.592,1.902-0.312,2.25C157.119,99.968,159.135,100.102,159.747,100.255  c0-0.25,0-0.5,0-0.75C159.747,99.755,159.747,100.005,159.747,100.255" id="path89"></path>

<path d="M158.997,102.505c0.363-0.659,0.512-1.534,0.75-2.25c-1-0.25-2-0.5-3-0.75C156.142,101.462,157.165,102.278,158.997,102.505  " id="path91"></path>

<path d="M157.497,105.505c2.042-0.064,1.248-6.747-2.25-1.5c1.352,0.063,1.648,1.437,3,1.5  C157.997,105.505,157.747,105.505,157.497,105.505" id="path93"></path>

<path d="M155.997,107.755c2.023-0.075,1.536-2.941,0-3.75c-0.5,1-1,2-1.5,3c0-0.25,0-0.5,0-0.75c0.519,0.884,1.306,1.456,2.25,1.5  C156.497,107.755,156.247,107.755,155.997,107.755" id="path95"></path>

<path d="M152.997,113.005c1.113-1.948,4.466-5.219,1.5-6.75c-1.25,1.75-2.5,3.5-3.75,5.25c0-0.25,0-0.5,0-0.75  C151.497,111.505,152.247,112.255,152.997,113.005" id="path97"></path>

<path d="M146.997,115.255c2.464,1.727,4.15-0.77,6-2.25c-0.75-0.75-1.5-1.5-2.25-2.25c-1,1.25-2,2.5-3,3.75  c0.512,0.193,0.973,0.617,1.5,0.75c-2.89-0.898-2.584,1.67-3,3.75c1-1,2-2,3-3C148.551,115.773,147.725,115.321,146.997,115.255" id="path99"></path>

<path d="M147.747,110.755c-0.25,1.5-0.5,3-0.75,4.5c3.007,0.935,2.909-2.311,3-4.5c0,0.25,0,0.5,0,0.75  C149.874,110.478,148.896,110.431,147.747,110.755" id="path101"></path>

<path d="M147.747,106.255c0,1.744-0.915,4.5,1.125,4.5c2.013,0,1.581-2.735,1.875-4.5  C149.747,106.255,148.747,106.255,147.747,106.255" id="path103"></path>

<path d="M147.747,101.755c0-0.013,0-1.244,0-0.524c0,3.896-1.065,5.024,3,5.024c-0.25-1.75-0.5-3.5-0.75-5.25  C149.317,101.232,148.338,101.36,147.747,101.755" id="path105"></path>

<path d="M146.997,99.505c0-0.25,0-0.5,0-0.75c0.25,1,0.5,2,0.75,3c1.685-0.209,3.747-2.73,1.5-3c0.25,0,0.5,0,0.75,0  C148.96,98.768,147.958,99.096,146.997,99.505" id="path107"></path>

<path d="M148.497,95.755c-5.302,3.535,2.003,4.798,0.75,0.75c-0.438,0.542-1.101,0.93-1.5,1.5c1.109-1.921,0.702-2.734-1.5-3  c-0.119,0.571-0.145,1.686,0,2.25C146.997,96.755,147.747,96.255,148.497,95.755" id="path109"></path>

<path d="M151.497,96.505c-2.283-0.571-3.362-1.38-3.75,1.5c1.208,0.302,2.958,0.159,3,1.5c0-0.25,0-0.5,0-0.75c0,0.25,0,0.5,0,0.75  C150.997,98.505,151.247,97.505,151.497,96.505" id="path111"></path>

<path d="M153.747,96.505c-2.597-0.809-2.516,1.063-3,3c1.25,0,2.5,0,3.75,0c-0.25,0-0.5,0-0.75,0c0.25,0,0.5,0,0.75,0  C154.247,98.505,153.997,97.505,153.747,96.505" id="path113"></path>

<path d="M159.747,97.255c-1.274-2.386-3.894-1.101-6-0.75c0.886,3.542,0.969,2.957,4.5,2.25c-0.568-0.397-0.918-1.126-1.5-1.5  C157.265,97.255,159.42,97.583,159.747,97.255c1.104-1.104-0.712-1.696-1.5-1.5C158.732,96.24,159.188,96.863,159.747,97.255" id="path115"></path>

<path d="M137.997,89.755c7.879,5.253,18.875,9.083,25.667,0.028  c5.512-7.35,4.172-18.512,1.45-26.676c-1.766-5.297-12.724-20.223-18.867-16.852c-3.652,2.004-4.706,8.861-5.98,12.292  c-2.006,5.402-4.013,10.805-6.02,16.208c-3.776-3.372-7.552-6.743-11.328-10.114c-3.222-2.876-6.908-7.629-10.811-9.58  c-3.964-1.982-6.526,5.938-7.409,8.586c-1.645,4.934-1.953,9.476-1.953,14.652c0,8.716,5.98,19.321,13.806,23.233  C125.044,105.779,135.762,98.557,137.997,89.755" id="path117" style="fill-rule:evenodd;clip-rule:evenodd;fill:#FFFFAF;"></path>

<path d="M143.247,91.255c-3.028-2.019-3.823-4.016-6-0.75C140.275,92.524,141.07,94.521,143.247,91.255" id="path119"></path>

<path d="M147.747,93.505c-3.213-1.606-3.919-3.121-6,0c1.75,0.75,3.5,1.5,5.25,2.25C147.222,95.082,147.718,94.209,147.747,93.505" id="path121"></path>

<path d="M151.497,94.255c0.25,0,0.5,0,0.75,0c-2.272-0.379-5.169-1.894-5.25,1.5c1.742,0.291,3.486,0.693,5.25,0.75  c-0.25,0-0.5,0-0.75,0c0.25,0,0.5,0,0.75,0C152.009,95.789,151.86,94.915,151.497,94.255" id="path123"></path>

<path d="M155.247,94.255c0.25-0.25,0.5-0.5,0.75-0.75c-1.5,0.25-3,0.5-4.5,0.75c0.063,3.191,2.961,2.25,5.25,2.25  c-0.25,0-0.5,0-0.75,0c0.25,0,0.5,0,0.75,0C156.247,95.755,155.747,95.005,155.247,94.255" id="path125"></path>

<path d="M158.247,92.755c0.25,0,0.5,0,0.75,0c-1.25,0.5-2.5,1-3.75,1.5c1.761,2.642,1.698,2.151,4.5,0.75  C159.247,94.255,158.747,93.505,158.247,92.755" id="path127"></path>

<path d="M161.247,91.255c0-0.25,0-0.5,0-0.75c-2.611,1.958-3.371,1.694-1.5,4.5c1-0.75,2-1.5,3-2.25  C162.285,92.293,161.814,91.567,161.247,91.255" id="path129"></path>

<path d="M162.747,88.255c0.25,0,0.5,0,0.75,0c-1.193,1.591-3.382,3.135-0.75,4.5c0.912-1.216,2.064-2.271,2.25-3.75  c0,0.25,0,0.5,0,0.75C164.957,88.677,163.865,88.385,162.747,88.255" id="path131"></path>

<path d="M164.247,85.255c0-0.25,0-0.5,0-0.75c-0.5,1.25-1,2.5-1.5,3.75c2.416,1.739,3.185-0.496,4.5-2.25  C166.247,85.755,165.247,85.505,164.247,85.255" id="path133"></path>

<path d="M165.747,81.505c0-0.25,0-0.5,0-0.75c-0.5,1.5-1,3-1.5,4.5c1,0.25,2,0.5,3,0.75c0.25-1.5,0.5-3,0.75-4.5  C167.32,81.505,166.395,81.324,165.747,81.505" id="path135"></path>

<path d="M165.747,77.005c0,1.744-0.915,4.5,1.125,4.5c2.013,0,1.581-2.735,1.875-4.5C167.747,77.005,166.747,77.005,165.747,77.005" id="path137"></path>

<path d="M165.747,72.505c0,1.417,0,2.834,0,4.25c0,0.349,2.728,0.54,3,0.25c0.467-0.498,0-3.513,0-4.25  C168.747,72.22,166.305,72.505,165.747,72.505" id="path139"></path>

<path d="M164.997,68.005c0.617,3.703-0.07,4.5,3.75,4.5c-0.229-1.606,0.042-4.944-1.5-5.25c0.25,0,0.5,0,0.75,0  C166.96,67.268,165.958,67.596,164.997,68.005" id="path141"></path>

<path d="M164.247,65.755c0.145,1.196,1.86,3.779,3,1.5S165.29,65.153,164.247,65.755" id="path143"></path>

<path d="M163.497,63.505c0.193,1.604,0.43,2.357,1.875,1.875c1.783-0.594,0.791-1.709,0.375-3.375  C164.997,62.505,164.247,63.005,163.497,63.505" id="path145"></path>

<path d="M161.247,59.005c0-0.25,0-0.5,0-0.75c0.75,1.75,1.5,3.5,2.25,5.25c1.233-0.822,2.521-0.958,1.804-2.392  c-0.608-1.217-1.09-3.583-2.554-3.608c0.25,0,0.5,0,0.75,0C162.553,57.549,161.766,58.121,161.247,59.005" id="path147"></path>

<path d="M158.247,54.505c1,1.5,2,3,3,4.5c3.336-1.721-1.255-4.374-1.5-6.75c0,0.25,0,0.5,0,0.75c0-0.25,0-0.5,0-0.75  C159.247,53.005,158.747,53.755,158.247,54.505" id="path149"></path>

<path d="M154.497,50.755c1.25,1.25,2.5,2.5,3.75,3.75c2.751-4.126-1.576-2.367-2.25-6c0,0.25,0,0.5,0,0.75c0-0.25,0-0.5,0-0.75  C155.497,49.255,154.997,50.005,154.497,50.755" id="path151"></path>

<path d="M151.497,48.505c-0.25-0.25-0.5-0.5-0.75-0.75c1.25,1,2.5,2,3.75,3c1.593-2.39,1.054-4.085-2.25-4.5c0.25,0,0.5,0,0.75,0  C151.919,46.295,151.627,47.388,151.497,48.505" id="path153"></path>

<path d="M149.997,47.755c-0.25-0.25-0.5-0.5-0.75-0.75c0.75,0.5,1.5,1,2.25,1.5c1.402-2.312-0.149-2.145-0.75-3.75  c0,0.25,0,0.5,0,0.75c0-0.25,0-0.5,0-0.75C150.497,45.755,150.247,46.755,149.997,47.755" id="path155"></path>

<path d="M148.497,47.005c0.387,0.344,1.033,0.517,1.5,0.75c0.25-1,0.5-2,0.75-3c-0.668,0-1.592-0.163-2.25,0c0.25,0,0.5,0,0.75,0  C148.22,44.879,148.173,45.856,148.497,47.005" id="path157"></path>

<path d="M147.747,47.005c-0.25,0-0.5,0-0.75,0c2.561,0.54,1.833-3.801,0-2.25c0.25-0.25,0.5-0.5,0.75-0.75  C146.433,44.39,147.171,45.651,147.747,47.005" id="path159"></path>

<path d="M146.997,47.005c-0.25,0-0.5,0-0.75,0c0.476,0.085,1.016,0,1.5,0c-0.172-1.539-0.63-2.579-2.25-2.25  C145.997,45.505,146.497,46.255,146.997,47.005" id="path161"></path>

<path d="M146.247,47.755c1.754-1.577-1.85-4.435-2.25-1.5c0-0.25,0-0.5,0-0.75C144.104,46.759,145.187,47.048,146.247,47.755" id="path163"></path>

<path d="M145.497,48.505c0.25-0.25,0.5-0.5,0.75-0.75c-0.75-0.5-1.5-1-2.25-1.5c-0.294,0.328-0.661,1.068-0.75,1.5  C143.952,47.99,144.762,48.423,145.497,48.505" id="path165"></path>

<path d="M133.497,75.505c4.072-0.276,5.239-8.797,6.358-11.81c1.88-5.063,3.761-10.127,5.642-15.19  c-3.768-2.54-5.413,7.767-6.358,10.31c-1.88,5.063-3.761,10.127-5.642,15.19c0.464-0.3,1.053-0.427,1.5-0.75  C134.497,74.005,133.997,74.755,133.497,75.505c1.116,1.017,1.967,0.733,2.25-0.75C135.016,74.999,134.188,75.166,133.497,75.505" id="path167"></path>

<path d="M113.247,56.755c-0.25,0-0.5,0-0.75,0c7,6.25,14,12.5,21,18.75c1.408-2.111,1.845-1.944,0.075-3.517  c-2.491-2.214-4.981-4.427-7.472-6.641c-4.028-3.581-8.319-7-12.104-10.842c0.25,0.25,0.5,0.5,0.75,0.75  c-0.25-0.25-0.5-0.5-0.75-0.75C113.76,55.217,113.343,56.014,113.247,56.755" id="path169"></path>

<path d="M111.747,56.005c0.384,0.345,1.034,0.517,1.5,0.75c0.827-1.317,1.088-2.955-0.75-3c0.25,0,0.5,0,0.75,0  C112.169,53.795,111.877,54.888,111.747,56.005" id="path171"></path>

<path d="M110.997,56.005c1.078-0.04,1.37-1.132,1.5-2.25C110.85,53.408,110.546,54.479,110.997,56.005" id="path173"></path>

<path d="M110.247,56.005c1.399-0.168,1.273-2.676-0.75-2.25C109.735,54.47,109.883,55.349,110.247,56.005" id="path175"></path>

<path d="M109.497,56.755c0.976-0.809,0.68-1.917,0-3c-1.033,0.574-1.332,0.428-1.5,1.5c0-0.25,0-0.5,0-0.75  C108.041,55.449,108.613,56.237,109.497,56.755" id="path177"></path>

<path d="M107.997,59.005c-0.25,0-0.5,0-0.75,0c1.501-1.501,2.767-1.733,1.139-3.361c-0.765-0.765-2.619,1.841-3.389,2.611  c0.25-0.25,0.5-0.5,0.75-0.75c-0.25,0.25-0.5,0.5-0.75,0.75C105.997,58.505,106.997,58.755,107.997,59.005" id="path179"></path>

<path d="M105.747,62.755c0.75-1.25,1.5-2.5,2.25-3.75c-3.59-0.897-3.136-0.409-4.5,3C104.168,62.229,105.045,62.729,105.747,62.755" id="path181"></path>

<path d="M104.997,67.255c0,0.25,0,0.5,0,0.75c0.338-2.367,2.057-5.909-1.5-6c-0.5,1.75-1,3.5-1.5,5.25  C102.997,67.255,103.997,67.255,104.997,67.255" id="path183"></path>

<path d="M104.247,72.505c0,0.25,0,0.5,0,0.75c0.25-2,0.5-4,0.75-6c-4.069,0-3.193,1.353-3.75,5.25  C102.247,72.505,103.247,72.505,104.247,72.505" id="path185"></path>

<path d="M104.247,77.755c0-0.004,0,1.226,0,0.544c0-2.862,1.296-5.794-1.944-5.794c-2.066,0-1.056,4.226-1.056,6  C102.247,78.255,103.247,78.005,104.247,77.755" id="path187"></path>

<path d="M104.247,83.005c0.25,0,0.5,0,0.75,0c-0.25-1.75-0.5-3.5-0.75-5.25c-4.045,1.011-2.818,2.021-2.25,6  C102.676,83.529,103.656,83.401,104.247,83.005" id="path189"></path>

<path d="M105.747,87.505c-0.5-1.5-1-3-1.5-4.5c-3.614,0.119-1.478,3.068-0.75,5.25C104.166,88.032,105.174,87.907,105.747,87.505" id="path191"></path>

<path d="M107.997,91.255c-1.345-2.241-1.667-4.59-4.5-3c0.75,1.5,1.5,3,2.25,4.5C106.497,92.255,107.247,91.755,107.997,91.255" id="path193"></path>

<path d="M110.247,95.005c-0.75-1.25-1.5-2.5-2.25-3.75c-0.75,0.5-1.5,1-2.25,1.5c1,1.25,2,2.5,3,3.75  C109.208,96.044,109.938,95.572,110.247,95.005" id="path195"></path>

<path d="M113.247,98.005c-1-1-2-2-3-3c-2.518,1.307-0.445,4.16,1.5,4.5c-0.25,0-0.5,0-0.75,0  C111.941,99.461,112.729,98.89,113.247,98.005" id="path197"></path>

<path d="M115.497,99.505c0.25,0.25,0.5,0.5,0.75,0.75c-1.591-1.193-3.135-3.381-4.5-0.75c1,0.75,2,1.5,3,2.25  C114.976,101.069,115.447,100.223,115.497,99.505" id="path199"></path>

<path d="M118.497,101.005c0.25,0,0.5,0,0.75,0c-1.25-0.5-2.5-1-3.75-1.5c-1.67,2.32,0.767,4.22,3,4.5c-0.25,0-0.5,0-0.75,0  C119.105,103.98,118.497,102.191,118.497,101.005" id="path201"></path>

<path d="M122.247,101.755c-1.25-0.25-2.5-0.5-3.75-0.75c0,3.566,0.367,3,3.75,3c-0.25,0-0.5,0-0.75,0  C122.524,103.882,122.571,102.904,122.247,101.755" id="path203"></path>

<path d="M124.497,101.755c0.25,0,0.5,0,0.75,0c-2.422,0-3-0.62-3,1.898c0,0.722,2.903,0.352,3.75,0.352c-0.25,0-0.5,0-0.75,0  c0.25,0,0.5,0,0.75,0C125.497,103.255,124.997,102.505,124.497,101.755" id="path205"></path>

<path d="M128.247,100.255c-1.25,0.5-2.5,1-3.75,1.5c0.855,1.283,0.956,2.468,2.472,1.861c1.166-0.467,2.74-0.54,2.778-1.861  c0,0.25,0,0.5,0,0.75C129.703,101.562,129.131,100.774,128.247,100.255" id="path207"></path>

<path d="M131.997,97.255c-1.25,1-2.5,2-3.75,3c1.51,2.9,3.615-0.192,5.25-1.5C133.036,98.294,132.564,97.564,131.997,97.255" id="path209"></path>

<path d="M134.997,93.505c-1.454,1.817-3.716,3.034-1.889,4.861c0.801,0.801,3.354-2.577,4.139-3.361  C136.497,94.505,135.747,94.005,134.997,93.505" id="path211"></path>

<path d="M136.497,91.255c-0.262,0.393-1.583,1.836-1.5,2.25c0.036,0.181,2.069,1.536,2.25,1.5s1.536-2.069,1.5-2.25  C138.664,92.342,136.891,91.518,136.497,91.255" id="path213"></path>

<path d="M138.747,88.255c-3.416,0.74-1.807,3.295,0,4.5c0.317-0.584,0.668-1.591,0.75-2.25c-0.714,0.149-1.545-0.181-2.25,0  c0.808-1.211,1.962-1.91,0.75-3c-0.277,0.405-0.645,1.023-0.75,1.5C137.737,88.76,138.296,88.565,138.747,88.255" id="path215"></path>

<path d="M134.997,74.755c0.81-4.352,6.959-3.981,8.25,0  c1.765,5.442-3.866,6.923-7.5,4.5c-1.334,3.783-9,4.613-9-0.352C126.747,73.655,131.01,72.458,134.997,74.755" id="path217" style="fill-rule:evenodd;clip-rule:evenodd;fill:#0E0D0D;"></path>

</svg>
