<?xml version="1.0" encoding="UTF-8" standalone="no"?>
<!-- Created with Inkscape (http://www.inkscape.org/) -->

<svg
   xmlns:dc="http://purl.org/dc/elements/1.1/"
   xmlns:cc="http://creativecommons.org/ns#"
   xmlns:rdf="http://www.w3.org/1999/02/22-rdf-syntax-ns#"
   xmlns:svg="http://www.w3.org/2000/svg"
   xmlns="http://www.w3.org/2000/svg"
   xmlns:xlink="http://www.w3.org/1999/xlink"
   xmlns:sodipodi="http://sodipodi.sourceforge.net/DTD/sodipodi-0.dtd"
   xmlns:inkscape="http://www.inkscape.org/namespaces/inkscape"
   width="522"
   height="361.72116"
   id="svg2"
   sodipodi:version="0.32"
   inkscape:version="0.47pre1 r21720"
   sodipodi:docname="yman_Little_Green_Tractor.svg"
   inkscape:output_extension="org.inkscape.output.svg.inkscape"
   version="1.0">
  <defs
     id="defs4">
    <linearGradient
       id="linearGradient2453">
      <stop
         style="stop-color: rgb(26, 28, 26); stop-opacity: 1;"
         offset="0"
         id="stop2455" />
      <stop
         style="stop-color: rgb(195, 198, 198); stop-opacity: 1;"
         offset="1"
         id="stop2457" />
    </linearGradient>
    <linearGradient
       inkscape:collect="always"
       id="linearGradient3224">
      <stop
         style="stop-color: rgb(24, 24, 26); stop-opacity: 1;"
         offset="0"
         id="stop3226" />
      <stop
         style="stop-color: rgb(24, 24, 26); stop-opacity: 0;"
         offset="1"
         id="stop3228" />
    </linearGradient>
    <linearGradient
       inkscape:collect="always"
       id="linearGradient3212">
      <stop
         style="stop-color: rgb(26, 26, 26); stop-opacity: 1;"
         offset="0"
         id="stop3215" />
      <stop
         style="stop-color: rgb(26, 26, 26); stop-opacity: 0;"
         offset="1"
         id="stop3217" />
    </linearGradient>
    <linearGradient
       id="linearGradient3295">
      <stop
         style="stop-color: rgb(55, 55, 55); stop-opacity: 1;"
         offset="0"
         id="stop3297" />
      <stop
         style="stop-color: rgb(0, 0, 0); stop-opacity: 0;"
         offset="1"
         id="stop3299" />
    </linearGradient>
    <linearGradient
       inkscape:collect="always"
       id="linearGradient3217">
      <stop
         style="stop-color: rgb(0, 0, 0); stop-opacity: 1;"
         offset="0"
         id="stop3219" />
      <stop
         style="stop-color: rgb(0, 0, 0); stop-opacity: 0;"
         offset="1"
         id="stop3221" />
    </linearGradient>
    <linearGradient
       id="linearGradient3201">
      <stop
         style="stop-color: rgb(55, 55, 55); stop-opacity: 1;"
         offset="0"
         id="stop3203" />
      <stop
         style="stop-color: rgb(0, 0, 0); stop-opacity: 0;"
         offset="1"
         id="stop3205" />
    </linearGradient>
    <linearGradient
       id="linearGradient3176">
      <stop
         style="stop-color: rgb(0, 0, 0); stop-opacity: 1;"
         offset="0"
         id="stop3178" />
      <stop
         style="stop-color: rgb(27, 20, 15); stop-opacity: 1;"
         offset="1"
         id="stop3180" />
    </linearGradient>
    <radialGradient
       inkscape:collect="always"
       xlink:href="#linearGradient3176"
       id="radialGradient3182"
       cx="182.22722"
       cy="468.33618"
       fx="182.22722"
       fy="468.33618"
       r="120.47224"
       gradientTransform="matrix(0.98756,-2.39406,1.22898,0.506957,-573.311,657.821)"
       gradientUnits="userSpaceOnUse" />
    <linearGradient
       inkscape:collect="always"
       xlink:href="#linearGradient3201"
       id="linearGradient3207"
       x1="199.71645"
       y1="368.45291"
       x2="61.155682"
       y2="581.96045"
       gradientUnits="userSpaceOnUse" />
    <linearGradient
       inkscape:collect="always"
       xlink:href="#linearGradient3201"
       id="linearGradient3211"
       gradientUnits="userSpaceOnUse"
       x1="199.71645"
       y1="368.45291"
       x2="61.155682"
       y2="581.96045" />
    <linearGradient
       inkscape:collect="always"
       xlink:href="#linearGradient3217"
       id="linearGradient3223"
       x1="552.7326"
       y1="-37.018688"
       x2="65.719887"
       y2="569.55756"
       gradientUnits="userSpaceOnUse" />
    <linearGradient
       inkscape:collect="always"
       xlink:href="#linearGradient3201"
       id="linearGradient3227"
       gradientUnits="userSpaceOnUse"
       x1="543.65863"
       y1="85.928993"
       x2="61.155682"
       y2="581.96045" />
    <linearGradient
       inkscape:collect="always"
       xlink:href="#linearGradient3217"
       id="linearGradient3237"
       gradientUnits="userSpaceOnUse"
       x1="386.52838"
       y1="283.32657"
       x2="65.719887"
       y2="569.55756" />
    <linearGradient
       inkscape:collect="always"
       xlink:href="#linearGradient3217"
       id="linearGradient3247"
       gradientUnits="userSpaceOnUse"
       x1="-14.350228"
       y1="617.81769"
       x2="224.02864"
       y2="413.80219" />
    <linearGradient
       inkscape:collect="always"
       xlink:href="#linearGradient3201"
       id="linearGradient3273"
       gradientUnits="userSpaceOnUse"
       x1="344.55472"
       y1="206.40323"
       x2="243.7061"
       y2="491.17514"
       gradientTransform="translate(0.149284,-0.0389936)" />
    <linearGradient
       inkscape:collect="always"
       xlink:href="#linearGradient3295"
       id="linearGradient3301"
       x1="240.32094"
       y1="225.52438"
       x2="178.65129"
       y2="397.38843"
       gradientUnits="userSpaceOnUse" />
    <linearGradient
       inkscape:collect="always"
       xlink:href="#linearGradient3212"
       id="linearGradient3219"
       x1="226.91902"
       y1="386.27289"
       x2="149.69753"
       y2="293.95224"
       gradientUnits="userSpaceOnUse" />
    <linearGradient
       inkscape:collect="always"
       xlink:href="#linearGradient3224"
       id="linearGradient3230"
       x1="163.38512"
       y1="259.73166"
       x2="161.47354"
       y2="251.35463"
       gradientUnits="userSpaceOnUse" />
    <linearGradient
       inkscape:collect="always"
       xlink:href="#linearGradient3224"
       id="linearGradient3234"
       gradientUnits="userSpaceOnUse"
       x1="163.38512"
       y1="259.73166"
       x2="161.47354"
       y2="251.35463"
       gradientTransform="matrix(0.651837,0,0,1.00482,44.1677,15.5021)" />
    <linearGradient
       inkscape:collect="always"
       xlink:href="#linearGradient2453"
       id="linearGradient2459"
       x1="383.58762"
       y1="342.70102"
       x2="353.51205"
       y2="342.55298"
       gradientUnits="userSpaceOnUse" />
    <radialGradient
       inkscape:collect="always"
       xlink:href="#linearGradient3176"
       id="radialGradient2943"
       gradientUnits="userSpaceOnUse"
       gradientTransform="matrix(0.98756,-2.39406,1.22898,0.506957,-573.311,657.821)"
       cx="182.22722"
       cy="468.33618"
       fx="182.22722"
       fy="468.33618"
       r="120.47224" />
    <linearGradient
       inkscape:collect="always"
       xlink:href="#linearGradient2453"
       id="linearGradient2945"
       gradientUnits="userSpaceOnUse"
       x1="383.58762"
       y1="342.70102"
       x2="353.51205"
       y2="342.55298" />
    <linearGradient
       inkscape:collect="always"
       xlink:href="#linearGradient3295"
       id="linearGradient2947"
       gradientUnits="userSpaceOnUse"
       x1="240.32094"
       y1="225.52438"
       x2="178.65129"
       y2="397.38843" />
    <linearGradient
       inkscape:collect="always"
       xlink:href="#linearGradient3201"
       id="linearGradient2949"
       gradientUnits="userSpaceOnUse"
       gradientTransform="translate(0.149284,-0.0389936)"
       x1="344.55472"
       y1="206.40323"
       x2="243.7061"
       y2="491.17514" />
    <linearGradient
       inkscape:collect="always"
       xlink:href="#linearGradient3212"
       id="linearGradient2951"
       gradientUnits="userSpaceOnUse"
       x1="226.91902"
       y1="386.27289"
       x2="149.69753"
       y2="293.95224" />
    <linearGradient
       inkscape:collect="always"
       xlink:href="#linearGradient3224"
       id="linearGradient2953"
       gradientUnits="userSpaceOnUse"
       x1="163.38512"
       y1="259.73166"
       x2="161.47354"
       y2="251.35463" />
    <linearGradient
       inkscape:collect="always"
       xlink:href="#linearGradient3224"
       id="linearGradient2955"
       gradientUnits="userSpaceOnUse"
       gradientTransform="matrix(0.651837,0,0,1.00482,44.1677,15.5021)"
       x1="163.38512"
       y1="259.73166"
       x2="161.47354"
       y2="251.35463" />
    <linearGradient
       inkscape:collect="always"
       xlink:href="#linearGradient3201"
       id="linearGradient2957"
       gradientUnits="userSpaceOnUse"
       x1="199.71645"
       y1="368.45291"
       x2="61.155682"
       y2="581.96045" />
    <linearGradient
       inkscape:collect="always"
       xlink:href="#linearGradient3201"
       id="linearGradient2959"
       gradientUnits="userSpaceOnUse"
       x1="199.71645"
       y1="368.45291"
       x2="61.155682"
       y2="581.96045" />
    <linearGradient
       inkscape:collect="always"
       xlink:href="#linearGradient3217"
       id="linearGradient2961"
       gradientUnits="userSpaceOnUse"
       x1="552.7326"
       y1="-37.018688"
       x2="65.719887"
       y2="569.55756" />
    <linearGradient
       inkscape:collect="always"
       xlink:href="#linearGradient3201"
       id="linearGradient2963"
       gradientUnits="userSpaceOnUse"
       x1="543.65863"
       y1="85.928993"
       x2="61.155682"
       y2="581.96045" />
    <linearGradient
       inkscape:collect="always"
       xlink:href="#linearGradient3217"
       id="linearGradient2965"
       gradientUnits="userSpaceOnUse"
       x1="386.52838"
       y1="283.32657"
       x2="65.719887"
       y2="569.55756" />
    <linearGradient
       inkscape:collect="always"
       xlink:href="#linearGradient3217"
       id="linearGradient2967"
       gradientUnits="userSpaceOnUse"
       x1="-14.350228"
       y1="617.81769"
       x2="224.02864"
       y2="413.80219" />
  </defs>
  <sodipodi:namedview
     id="base"
     pagecolor="#ffffff"
     bordercolor="#666666"
     borderopacity="1.0"
     gridtolerance="10000"
     guidetolerance="10"
     objecttolerance="10"
     inkscape:pageopacity="0.0"
     inkscape:pageshadow="2"
     inkscape:zoom="0.88505747"
     inkscape:cx="260.99994"
     inkscape:cy="154.42198"
     inkscape:document-units="px"
     inkscape:current-layer="layer1"
     showgrid="false"
     showguides="true"
     inkscape:guide-bbox="true"
     inkscape:window-width="941"
     inkscape:window-height="675"
     inkscape:window-x="397"
     inkscape:window-y="25"
     inkscape:window-maximized="0" />
  <metadata
     id="metadata7">
    <rdf:RDF>
      <cc:Work
         rdf:about="">
        <dc:format>image/svg+xml</dc:format>
        <dc:type
           rdf:resource="http://purl.org/dc/dcmitype/StillImage" />
      </cc:Work>
    </rdf:RDF>
  </metadata>
  <g
     inkscape:groupmode="layer"
     id="layer3"
     inkscape:label="Back tyre"
     transform="translate(-68.57146,-233.49817)" />
  <g
     inkscape:groupmode="layer"
     id="layer2"
     inkscape:label="Body"
     style="display:inline"
     transform="translate(-68.57146,-233.49817)" />
  <g
     inkscape:groupmode="layer"
     id="layer4"
     inkscape:label="Cover"
     style="display:inline"
     transform="translate(-68.57146,-233.49817)" />
  <g
     inkscape:label="Tyres"
     inkscape:groupmode="layer"
     id="layer1"
     style="display:inline"
     transform="translate(-68.57146,-233.49817)">
    <g
       id="g2906">
      <path
         inkscape:export-ydpi="90"
         inkscape:export-xdpi="90"
         inkscape:export-filename="C:\Documents and Settings\Yusdi\Desktop\Personal\blog\inkscape tutorial\result_tractor.png"
         transform="matrix(0.895972,0,0,0.918185,5.76192,24.8523)"
         d="m 562.85715,505.21933 c 0,48.12767 -40.29438,87.14286 -90,87.14286 -49.70563,0 -90,-39.01519 -90,-87.14286 0,-48.12767 40.29437,-87.14286 90,-87.14286 49.70562,0 90,39.01519 90,87.14286 z"
         sodipodi:ry="87.14286"
         sodipodi:rx="90"
         sodipodi:cy="505.21933"
         sodipodi:cx="472.85715"
         id="path2396"
         style="fill:#000000;fill-opacity:1;stroke:none;display:inline"
         sodipodi:type="arc" />
      <path
         inkscape:export-ydpi="90"
         inkscape:export-xdpi="90"
         inkscape:export-filename="C:\Documents and Settings\Yusdi\Desktop\Personal\blog\inkscape tutorial\result_tractor.png"
         sodipodi:nodetypes="ccccccccccc"
         id="path3275"
         d="m 188.99083,282.89951 64.92543,1.92848 1.28565,12.2137 54.6402,-0.64283 2.5713,119.56563 12.85652,0 -4.49978,-124.70824 25.07021,-16.71347 0,-20.57043 -158.77801,1.92847 1.92848,26.99869 z"
         style="fill:#666666;fill-rule:evenodd;stroke:none;display:inline" />
      <path
         inkscape:export-ydpi="90"
         inkscape:export-xdpi="90"
         inkscape:export-filename="C:\Documents and Settings\Yusdi\Desktop\Personal\blog\inkscape tutorial\result_tractor.png"
         id="path3236"
         d="m 199.3091,347.44646 c 1.72562,-4.31405 14.66777,-21.57025 14.66777,-21.57025 l 3.01983,-5.17686 -5.60826,-25.02149 3.45124,-8.19669 5.17686,-4.31405 20.70743,-3.88264 6.03967,6.47107 0,10.35372 2.58843,9.92231 -3.88264,1.72562 0,4.74546 -0.43141,4.74545 -4.74545,3.45124 -2.58843,1.72562 0.86281,12.51075 6.90248,12.94215 10.78512,6.47107 16.39339,10.78512 4.31405,4.31405 0,10.35372 12.51075,-24.59008 3.88264,-3.45124 3.88264,1.29422 1.29422,3.45124 -4.74546,10.35371 -0.4314,9.05951 2.58843,2.15702 5.60826,4.74546 9.92232,17.2562 9.49091,0.4314 10.35372,-15.96198 9.49091,6.03967 -7.33389,12.94215 2.58843,1.29421 17.2562,-11.21653 3.45124,48.31736 -59.10248,-0.43141 -47.02314,-73.77025 -52.2,-13.80495 0.86281,-6.47108 z"
         style="fill:#434345;fill-opacity:1;fill-rule:evenodd;stroke:none;display:inline" />
      <path
         inkscape:export-ydpi="90"
         inkscape:export-xdpi="90"
         inkscape:export-filename="C:\Documents and Settings\Yusdi\Desktop\Personal\blog\inkscape tutorial\result_tractor.png"
         sodipodi:nodetypes="ccccssccccsscccc"
         id="path2390"
         d="m 221.51236,490.583 76.33081,29.58439 160.49834,0.74075 47.3473,-71.41011 c 0,0 12.08537,-41.53675 -0.6598,-66.79789 -4.35264,-8.62701 -11.91338,-11.34928 -21.50689,-12.5048 -22.00973,-2.65103 -80.06304,-6.93405 -130.27142,-6.68618 1.08709,17.41133 4.32756,51.37651 4.4083,77.86939 -16.26116,0.77459 -43.04829,1.23598 -49.8579,0.90451 -11.70666,-23.74235 -36.17245,-71.23341 -51.29759,-83.26436 -22.54999,-3.22327 -67.78041,-8.50344 -89.94969,-7.73902 -20.30312,0.70007 -55.89997,-4.56767 -66.803478,11.0873 -5.97601,8.5802 -0.866769,15.10488 -5.135914,24.64987 -4.195513,9.38037 -22.826498,25.53848 -22.826498,25.53848 l 39.85727,21.43375 109.86716,56.59392 z"
         style="fill:#008000;fill-rule:evenodd;stroke:none;display:inline" />
      <path
         inkscape:export-ydpi="90"
         inkscape:export-xdpi="90"
         inkscape:export-filename="C:\Documents and Settings\Yusdi\Desktop\Personal\blog\inkscape tutorial\result_tractor.png"
         sodipodi:nodetypes="ccccc"
         id="path3312"
         d="m 357.20924,384.98688 149.73517,3.56386 c 0,0 1.12519,1.97504 1.75274,6.94254 -6.77741,0 -151.08924,-0.93829 -151.08924,-0.93829 l -0.39867,-9.56811 z"
         style="fill:#ffff00;fill-rule:evenodd;stroke:#000000;stroke-width:1px;stroke-linecap:butt;stroke-linejoin:miter;stroke-opacity:1;display:inline" />
      <path
         inkscape:export-ydpi="90"
         inkscape:export-xdpi="90"
         inkscape:export-filename="C:\Documents and Settings\Yusdi\Desktop\Personal\blog\inkscape tutorial\result_tractor.png"
         sodipodi:nodetypes="csccscccccscccccccccccc"
         id="path2400"
         d="m 290.125,235.90625 c -41.8652,-0.0791 -85.70399,1.61434 -98.40625,5.21875 -8.45926,2.4004 -11.67425,17.1685 -11.67425,17.1685 l -8.6695,94.24462 c 31.25229,2.49306 81.67735,5.26223 86.96875,9.61813 18.84691,15.51483 50.03126,83.34374 50.03125,83.34375 l 53.40625,0 -8.90625,-173.4375 9.875,-7.6875 2.9375,-10.7955 c 0,0 -13.20232,-13.06794 -18.75651,-13.49525 -16.53977,-1.2725 -31.68687,-4.13052 -56.80599,-4.178 z m -96.46875,28 57.78125,0.65625 c 0,-10e-6 0.51975,8.12578 1.4375,92.625 -5.78041,-2.49362 -34.51567,-5.10013 -62.8125,-7.59375 l 3.59375,-85.6875 z m 149.71875,0.4375 10.71875,175.90625 -47.3125,0.0625 c -10e-6,-10e-6 -22.49626,-52.98085 -47.1875,-79.75 l -1.71875,-95.625 85.5,-0.59375 z"
         style="fill:#1a1a1a;fill-opacity:1;fill-rule:evenodd;stroke:none;display:inline" />
      <path
         inkscape:export-ydpi="90"
         inkscape:export-xdpi="90"
         inkscape:export-filename="C:\Documents and Settings\Yusdi\Desktop\Personal\blog\inkscape tutorial\result_tractor.png"
         sodipodi:nodetypes="csssssccccss"
         id="path2404"
         d="m 69.690122,415.19535 c 1.049494,-4.81074 8.424081,-13.01904 16.082337,-21.44312 7.658255,-8.42408 30.061981,-32.46015 52.841961,-36.75962 30.84319,-5.82131 80.49552,1.03658 105.68392,3.82913 4.04635,0.4486 9.91134,1.19922 13.01904,3.82912 14.77145,12.50038 39.04678,56.81681 50.54448,83.47499 6.95658,16.1293 -9.18991,72.75342 -9.18991,72.75342 L 222.0894,491.69159 98.025667,428.21438 81.938346,416.73865 c 0,0 -4.086089,2.22025 -5.970567,2.04126 -2.158975,-0.20506 -6.739899,-1.4657 -6.277657,-3.58456 z"
         style="fill:url(#radialGradient2943);fill-opacity:1;fill-rule:evenodd;stroke:none;display:inline" />
      <path
         inkscape:export-ydpi="90"
         inkscape:export-xdpi="90"
         inkscape:export-filename="C:\Documents and Settings\Yusdi\Desktop\Personal\blog\inkscape tutorial\result_tractor.png"
         sodipodi:nodetypes="cc"
         id="path3314"
         d="m 358.00658,397.14635 151.29566,0"
         style="fill:none;stroke:#000000;stroke-width:1px;stroke-linecap:butt;stroke-linejoin:miter;stroke-opacity:1;display:inline" />
      <path
         inkscape:export-ydpi="90"
         inkscape:export-xdpi="90"
         inkscape:export-filename="C:\Documents and Settings\Yusdi\Desktop\Personal\blog\inkscape tutorial\result_tractor.png"
         sodipodi:nodetypes="cssscsssscc"
         id="path3316"
         d="m 402.25919,521.53456 c 0,-7.17335 -0.47074,-32.85373 2.20718,-43.59188 3.81897,-15.31364 16.94354,-35.08059 28.14159,-47.46174 5.06069,-5.59536 23.8492,-17.18083 30.80573,-20.1296 18.95691,-8.03557 47.06912,-4.39828 49.18278,-3.86987 0,0 1.17656,-3.58303 -5.49607,-4.68662 -10.40075,-1.72019 -34.65881,-0.62826 -49.10983,2.20719 -9.45476,1.85513 -31.14725,12.77531 -41.67153,22.32949 -14.4212,13.09188 -28.04726,36.17837 -32.03334,50.55134 -1.48944,5.37064 -4.17129,24.18185 -3.54655,40.78912 6.342,1.089 22.07183,7.72514 22.07183,7.72514"
         style="fill:#000080;fill-rule:evenodd;stroke:none;display:inline" />
      <path
         inkscape:export-ydpi="90"
         inkscape:export-xdpi="90"
         inkscape:export-filename="C:\Documents and Settings\Yusdi\Desktop\Personal\blog\inkscape tutorial\result_tractor.png"
         sodipodi:nodetypes="ccssssc"
         id="path3318"
         d="m 180.22969,259.56933 186.2192,-4.90051 c 0,0 -5.41906,-8.52339 -8.1675,-10.89001 -4.31826,-3.71836 -11.18651,-8.46051 -16.87952,-8.71201 -36.05274,-1.59269 -86.66768,-2.75276 -123.60164,0.5445 -9.41572,0.84058 -23.82213,-0.66357 -31.03653,5.44501 -4.49484,3.80587 -6.53401,18.51302 -6.53401,18.51302 z"
         style="fill:#008000;fill-rule:evenodd;stroke:none;display:inline" />
      <path
         inkscape:export-ydpi="90"
         inkscape:export-xdpi="90"
         inkscape:export-filename="C:\Documents and Settings\Yusdi\Desktop\Personal\blog\inkscape tutorial\result_tractor.png"
         sodipodi:nodetypes="ccccccccccc"
         id="path2437"
         d="m 154.01157,351.76051 7.33389,-76.35867 20.70744,-15.96199 0.86281,-12.94215 -16.39339,-0.86281 -0.86281,12.51074 1.72562,-1.29421 -9.49091,5.60827 -4.74546,0.2157 -0.43141,10.78512 4.74546,0.64711"
         style="fill:#18181a;fill-opacity:1;fill-rule:evenodd;stroke:#000000;stroke-width:1px;stroke-linecap:butt;stroke-linejoin:miter;stroke-opacity:1;display:inline" />
      <path
         inkscape:export-ydpi="90"
         inkscape:export-xdpi="90"
         inkscape:export-filename="C:\Documents and Settings\Yusdi\Desktop\Personal\blog\inkscape tutorial\result_tractor.png"
         sodipodi:nodetypes="cccssccccscc"
         id="path2451"
         d="m 371.87108,281.01009 -2.15702,4.74546 -3.01983,163.50248 c 0,0 1.0031,3.78606 2.58843,4.74546 2.21725,1.34182 6.43326,1.8096 8.62809,0.4314 1.37334,-0.86236 2.58843,-4.74545 2.58843,-4.74545 l 2.58843,-163.07108 -1.72562,-4.74546 0,-15.96198 c 0,0 -2.50327,-2.3495 -3.88264,-2.58843 -1.57737,-0.27322 -5.17686,1.29421 -5.17686,1.29421 l -0.43141,16.39339 z"
         style="fill:url(#linearGradient2945);fill-opacity:1;fill-rule:evenodd;stroke:none;display:inline" />
      <path
         inkscape:export-ydpi="90"
         inkscape:export-xdpi="90"
         inkscape:export-filename="C:\Documents and Settings\Yusdi\Desktop\Personal\blog\inkscape tutorial\result_tractor.png"
         sodipodi:nodetypes="ccccc"
         id="path2392"
         d="m 190.07496,349.65167 3.60344,-85.68387 57.78327,0.66787 c 0,0 0.49886,8.09723 1.41661,92.59645 -5.78041,-2.49362 -34.50649,-5.08683 -62.80332,-7.58045 z"
         style="fill:url(#linearGradient2947);fill-opacity:1;fill-rule:evenodd;stroke:none;display:inline" />
      <path
         inkscape:export-ydpi="90"
         inkscape:export-xdpi="90"
         inkscape:export-filename="C:\Documents and Settings\Yusdi\Desktop\Personal\blog\inkscape tutorial\result_tractor.png"
         sodipodi:nodetypes="cccccc"
         id="path2402"
         d="m 259.71924,360.59428 -1.72169,-95.61431 85.49307,-0.58013 10.70922,175.88331 -47.32004,0.0611 c 0,0 -22.46932,-52.98082 -47.16056,-79.74997 z"
         style="fill:url(#linearGradient2949);fill-opacity:1;fill-rule:evenodd;stroke:none;display:inline" />
      <path
         inkscape:export-ydpi="90"
         inkscape:export-xdpi="90"
         inkscape:export-filename="C:\Documents and Settings\Yusdi\Desktop\Personal\blog\inkscape tutorial\result_tractor.png"
         id="path3210"
         d="m 161.77686,275.40183 -7.76529,75.49587 17.68761,0.43141 8.6281,-89.73224"
         style="fill:url(#linearGradient2951);fill-opacity:1;fill-rule:evenodd;stroke:#000000;stroke-width:1px;stroke-linecap:butt;stroke-linejoin:miter;stroke-opacity:1;display:inline" />
      <path
         inkscape:export-ydpi="90"
         inkscape:export-xdpi="90"
         inkscape:export-filename="C:\Documents and Settings\Yusdi\Desktop\Personal\blog\inkscape tutorial\result_tractor.png"
         sodipodi:nodetypes="csscc"
         id="path3221"
         d="m 165.2281,257.28282 c 0,0 -4.8907,0.32123 -4.52974,-3.23553 0.40218,-3.96285 -0.2455,-3.94542 0.2157,-5.60827 0.86283,-3.11091 5.17685,-3.01983 5.17685,-3.01983 l -0.86281,11.86363 z"
         style="fill:url(#linearGradient2953);fill-opacity:1;fill-rule:evenodd;stroke:#cccccc;stroke-width:0.30000001;stroke-linecap:butt;stroke-linejoin:miter;stroke-miterlimit:4;stroke-opacity:1;stroke-dasharray:none;display:inline" />
      <path
         inkscape:export-ydpi="90"
         inkscape:export-xdpi="90"
         inkscape:export-filename="C:\Documents and Settings\Yusdi\Desktop\Personal\blog\inkscape tutorial\result_tractor.png"
         sodipodi:nodetypes="csscc"
         id="path3232"
         d="m 152.30091,273.80901 c 0,0 -3.61934,0.53848 -3.38405,-3.03542 0.26215,-3.98195 -0.16003,-3.96444 0.1406,-5.6353 0.56242,-3.1259 3.37446,-3.03438 3.37446,-3.03438 l -0.13101,11.7051 z"
         style="fill:url(#linearGradient2955);fill-opacity:1;fill-rule:evenodd;stroke:#cccccc;stroke-width:0.242792;stroke-linecap:butt;stroke-linejoin:miter;stroke-miterlimit:4;stroke-opacity:1;stroke-dasharray:none;display:inline" />
      <path
         inkscape:export-ydpi="90"
         inkscape:export-xdpi="90"
         inkscape:export-filename="C:\Documents and Settings\Yusdi\Desktop\Personal\blog\inkscape tutorial\result_tractor.png"
         transform="translate(31.4286,0)"
         d="m 262.85714,482.36218 c 0,62.32928 -50.52786,112.85714 -112.85714,112.85714 -62.329277,0 -112.85714,-50.52786 -112.85714,-112.85714 0,-62.32927 50.527863,-112.85714 112.85714,-112.85714 62.32928,0 112.85714,50.52787 112.85714,112.85714 z"
         sodipodi:ry="112.85714"
         sodipodi:rx="112.85714"
         sodipodi:cy="482.36218"
         sodipodi:cx="150"
         id="path2383"
         style="fill:#1a1a1a;fill-opacity:1;stroke:none"
         sodipodi:type="arc" />
      <path
         inkscape:export-ydpi="90"
         inkscape:export-xdpi="90"
         inkscape:export-filename="C:\Documents and Settings\Yusdi\Desktop\Personal\blog\inkscape tutorial\result_tractor.png"
         transform="matrix(1,0,0,1.03279,27.7143,-19.4217)"
         d="m 562.85715,505.21933 c 0,48.12767 -40.29438,87.14286 -90,87.14286 -49.70563,0 -90,-39.01519 -90,-87.14286 0,-48.12767 40.29437,-87.14286 90,-87.14286 49.70562,0 90,39.01519 90,87.14286 z"
         sodipodi:ry="87.14286"
         sodipodi:rx="90"
         sodipodi:cy="505.21933"
         sodipodi:cx="472.85715"
         id="path2387"
         style="fill:#1a1a1a;fill-opacity:1;stroke:none"
         sodipodi:type="arc" />
      <path
         inkscape:export-ydpi="90"
         inkscape:export-xdpi="90"
         inkscape:export-filename="C:\Documents and Settings\Yusdi\Desktop\Personal\blog\inkscape tutorial\result_tractor.png"
         transform="matrix(0.576149,0,0,0.576149,94.666,204.99)"
         d="m 262.85714,482.36218 c 0,62.32928 -50.52786,112.85714 -112.85714,112.85714 -62.329277,0 -112.85714,-50.52786 -112.85714,-112.85714 0,-62.32927 50.527863,-112.85714 112.85714,-112.85714 62.32928,0 112.85714,50.52787 112.85714,112.85714 z"
         sodipodi:ry="112.85714"
         sodipodi:rx="112.85714"
         sodipodi:cy="482.36218"
         sodipodi:cx="150"
         id="path3204"
         style="fill:#ffff00;fill-opacity:1;stroke:none;display:inline"
         sodipodi:type="arc" />
      <path
         inkscape:export-ydpi="90"
         inkscape:export-xdpi="90"
         inkscape:export-filename="C:\Documents and Settings\Yusdi\Desktop\Personal\blog\inkscape tutorial\result_tractor.png"
         transform="matrix(0.557087,0,0,0.575352,238.564,212.446)"
         d="m 562.85715,505.21933 c 0,48.12767 -40.29438,87.14286 -90,87.14286 -49.70563,0 -90,-39.01519 -90,-87.14286 0,-48.12767 40.29437,-87.14286 90,-87.14286 49.70562,0 90,39.01519 90,87.14286 z"
         sodipodi:ry="87.14286"
         sodipodi:rx="90"
         sodipodi:cy="505.21933"
         sodipodi:cx="472.85715"
         id="path3206"
         style="fill:#ffff00;fill-opacity:1;stroke:none;display:inline"
         sodipodi:type="arc" />
      <path
         inkscape:export-ydpi="90"
         inkscape:export-xdpi="90"
         inkscape:export-filename="C:\Documents and Settings\Yusdi\Desktop\Personal\blog\inkscape tutorial\result_tractor.png"
         transform="matrix(0.475232,0,0,0.475232,109.804,252.529)"
         d="m 262.85714,482.36218 c 0,62.32928 -50.52786,112.85714 -112.85714,112.85714 -62.329277,0 -112.85714,-50.52786 -112.85714,-112.85714 0,-62.32927 50.527863,-112.85714 112.85714,-112.85714 62.32928,0 112.85714,50.52787 112.85714,112.85714 z"
         sodipodi:ry="112.85714"
         sodipodi:rx="112.85714"
         sodipodi:cy="482.36218"
         sodipodi:cx="150"
         id="path2403"
         style="fill:#000000;fill-opacity:1;stroke:none;display:inline"
         sodipodi:type="arc" />
      <path
         inkscape:export-ydpi="90"
         inkscape:export-xdpi="90"
         inkscape:export-filename="C:\Documents and Settings\Yusdi\Desktop\Personal\blog\inkscape tutorial\result_tractor.png"
         transform="matrix(0.449522,0,0,0.483865,282.301,260.084)"
         d="m 562.85715,505.21933 c 0,48.12767 -40.29438,87.14286 -90,87.14286 -49.70563,0 -90,-39.01519 -90,-87.14286 0,-48.12767 40.29437,-87.14286 90,-87.14286 49.70562,0 90,39.01519 90,87.14286 z"
         sodipodi:ry="87.14286"
         sodipodi:rx="90"
         sodipodi:cy="505.21933"
         sodipodi:cx="472.85715"
         id="path2405"
         style="fill:#000000;fill-opacity:1;stroke:none;display:inline"
         sodipodi:type="arc" />
      <path
         inkscape:export-ydpi="90"
         inkscape:export-xdpi="90"
         inkscape:export-filename="C:\Documents and Settings\Yusdi\Desktop\Personal\blog\inkscape tutorial\result_tractor.png"
         sodipodi:nodetypes="csccccccccccccccc"
         id="path2407"
         d="m 152.61529,430.5118 c 0,0 -0.68182,7.51534 6.15171,7.51534 6.83352,0 53.29941,5.24516 53.29941,5.24516 l 7.74772,-5.46222 11.38665,21.17472 -5.01533,4.78807 -5.92188,48.05425 4.10369,6.38153 -9.11136,9.11136 -9.11136,-4.55568 -58.53948,-6.14915 -8.65681,2.73239 -9.11136,-11.3892 7.06335,-6.15936 6.37642,-49.65284 -5.69205,-9.79318 15.03068,-11.84119 z"
         style="fill:#ffff00;fill-opacity:1;fill-rule:evenodd;stroke:none" />
      <path
         inkscape:export-ydpi="90"
         inkscape:export-xdpi="90"
         inkscape:export-filename="C:\Documents and Settings\Yusdi\Desktop\Personal\blog\inkscape tutorial\result_tractor.png"
         transform="matrix(0.511146,0,0,0.511146,104.692,235.349)"
         d="m 262.85714,482.36218 c 0,62.32928 -50.52786,112.85714 -112.85714,112.85714 -62.329277,0 -112.85714,-50.52786 -112.85714,-112.85714 0,-62.32927 50.527863,-112.85714 112.85714,-112.85714 62.32928,0 112.85714,50.52787 112.85714,112.85714 z"
         sodipodi:ry="112.85714"
         sodipodi:rx="112.85714"
         sodipodi:cy="482.36218"
         sodipodi:cx="150"
         id="path3199"
         style="fill:none;stroke:url(#linearGradient2957);stroke-width:2.10423994;stroke-miterlimit:4;stroke-opacity:1;stroke-dasharray:none;display:inline"
         sodipodi:type="arc" />
      <path
         inkscape:export-ydpi="90"
         inkscape:export-xdpi="90"
         inkscape:export-filename="C:\Documents and Settings\Yusdi\Desktop\Personal\blog\inkscape tutorial\result_tractor.png"
         transform="matrix(0.535088,0,0,0.535088,100.828,224.073)"
         d="m 262.85714,482.36218 c 0,62.32928 -50.52786,112.85714 -112.85714,112.85714 -62.329277,0 -112.85714,-50.52786 -112.85714,-112.85714 0,-62.32927 50.527863,-112.85714 112.85714,-112.85714 62.32928,0 112.85714,50.52787 112.85714,112.85714 z"
         sodipodi:ry="112.85714"
         sodipodi:rx="112.85714"
         sodipodi:cy="482.36218"
         sodipodi:cx="150"
         id="path3209"
         style="fill:none;stroke:url(#linearGradient2959);stroke-width:2.10423994;stroke-miterlimit:4;stroke-opacity:1;stroke-dasharray:none;display:inline"
         sodipodi:type="arc" />
      <path
         inkscape:export-ydpi="90"
         inkscape:export-xdpi="90"
         inkscape:export-filename="C:\Documents and Settings\Yusdi\Desktop\Personal\blog\inkscape tutorial\result_tractor.png"
         transform="matrix(0.239797,0,0,0.239797,145.849,363.056)"
         d="m 262.85714,482.36218 c 0,62.32928 -50.52786,112.85714 -112.85714,112.85714 -62.329277,0 -112.85714,-50.52786 -112.85714,-112.85714 0,-62.32927 50.527863,-112.85714 112.85714,-112.85714 62.32928,0 112.85714,50.52787 112.85714,112.85714 z"
         sodipodi:ry="112.85714"
         sodipodi:rx="112.85714"
         sodipodi:cy="482.36218"
         sodipodi:cx="150"
         id="path3213"
         style="fill:url(#linearGradient2961);fill-opacity:1;stroke:none;display:inline"
         sodipodi:type="arc" />
      <path
         inkscape:export-ydpi="90"
         inkscape:export-xdpi="90"
         inkscape:export-filename="C:\Documents and Settings\Yusdi\Desktop\Personal\blog\inkscape tutorial\result_tractor.png"
         transform="matrix(0.148017,0,0,0.148017,159.162,407.249)"
         d="m 262.85714,482.36218 c 0,62.32928 -50.52786,112.85714 -112.85714,112.85714 -62.329277,0 -112.85714,-50.52786 -112.85714,-112.85714 0,-62.32927 50.527863,-112.85714 112.85714,-112.85714 62.32928,0 112.85714,50.52787 112.85714,112.85714 z"
         sodipodi:ry="112.85714"
         sodipodi:rx="112.85714"
         sodipodi:cy="482.36218"
         sodipodi:cx="150"
         id="path3225"
         style="fill:none;stroke:url(#linearGradient2963);stroke-width:20.26799965;stroke-miterlimit:4;stroke-opacity:1;stroke-dasharray:none;display:inline"
         sodipodi:type="arc" />
      <path
         inkscape:export-ydpi="90"
         inkscape:export-xdpi="90"
         inkscape:export-filename="C:\Documents and Settings\Yusdi\Desktop\Personal\blog\inkscape tutorial\result_tractor.png"
         id="path3233"
         d="m 481.91574,470.75418 32.4341,5.29537 9.2669,-3.97152 9.92881,11.25265 -8.60497,7.28113 -5.29537,33.75795 5.95728,10.59071 -7.28112,8.60497 -7.94305,-3.97152 -37.72946,-5.29536 -5.95729,4.63344 -9.26689,-13.2384 1.98577,-6.61921 7.28112,-39.71524 -3.97152,-4.63344 13.90032,-9.92881 5.29537,5.95728 z"
         style="fill:#ffff00;fill-rule:evenodd;stroke:none" />
      <path
         inkscape:export-ydpi="90"
         inkscape:export-xdpi="90"
         inkscape:export-filename="C:\Documents and Settings\Yusdi\Desktop\Personal\blog\inkscape tutorial\result_tractor.png"
         transform="matrix(0.477853,0,0,0.495145,271.912,254.196)"
         d="m 562.85715,505.21933 c 0,48.12767 -40.29438,87.14286 -90,87.14286 -49.70563,0 -90,-39.01519 -90,-87.14286 0,-48.12767 40.29437,-87.14286 90,-87.14286 49.70562,0 90,39.01519 90,87.14286 z"
         sodipodi:ry="87.14286"
         sodipodi:rx="90"
         sodipodi:cy="505.21933"
         sodipodi:cx="472.85715"
         id="path3231"
         style="fill:none;stroke:#000000;stroke-width:2.14419007;stroke-miterlimit:4;stroke-opacity:1;stroke-dasharray:none;display:inline"
         sodipodi:type="arc" />
      <path
         inkscape:export-ydpi="90"
         inkscape:export-xdpi="90"
         inkscape:export-filename="C:\Documents and Settings\Yusdi\Desktop\Personal\blog\inkscape tutorial\result_tractor.png"
         transform="matrix(0.495496,0,0,0.513366,264.856,244.629)"
         d="m 562.85715,505.21933 c 0,48.12767 -40.29438,87.14286 -90,87.14286 -49.70563,0 -90,-39.01519 -90,-87.14286 0,-48.12767 40.29437,-87.14286 90,-87.14286 49.70562,0 90,39.01519 90,87.14286 z"
         sodipodi:ry="87.14286"
         sodipodi:rx="90"
         sodipodi:cy="505.21933"
         sodipodi:cx="472.85715"
         id="path3229"
         style="fill:none;stroke:#000000;stroke-width:2.14419007;stroke-miterlimit:4;stroke-opacity:1;stroke-dasharray:none;display:inline"
         sodipodi:type="arc" />
      <path
         inkscape:export-ydpi="90"
         inkscape:export-xdpi="90"
         inkscape:export-filename="C:\Documents and Settings\Yusdi\Desktop\Personal\blog\inkscape tutorial\result_tractor.png"
         transform="matrix(0.239797,0,0,0.239797,456.114,388.363)"
         d="m 262.85714,482.36218 c 0,62.32928 -50.52786,112.85714 -112.85714,112.85714 -62.329277,0 -112.85714,-50.52786 -112.85714,-112.85714 0,-62.32927 50.527863,-112.85714 112.85714,-112.85714 62.32928,0 112.85714,50.52787 112.85714,112.85714 z"
         sodipodi:ry="112.85714"
         sodipodi:rx="112.85714"
         sodipodi:cy="482.36218"
         sodipodi:cx="150"
         id="path3235"
         style="fill:url(#linearGradient2965);fill-opacity:1;stroke:none;display:inline"
         sodipodi:type="arc" />
      <path
         inkscape:export-ydpi="90"
         inkscape:export-xdpi="90"
         inkscape:export-filename="C:\Documents and Settings\Yusdi\Desktop\Personal\blog\inkscape tutorial\result_tractor.png"
         transform="matrix(0.198501,0,0,0.198501,459.255,409.407)"
         d="m 262.85714,482.36218 c 0,62.32928 -50.52786,112.85714 -112.85714,112.85714 -62.329277,0 -112.85714,-50.52786 -112.85714,-112.85714 0,-62.32927 50.527863,-112.85714 112.85714,-112.85714 62.32928,0 112.85714,50.52787 112.85714,112.85714 z"
         sodipodi:ry="112.85714"
         sodipodi:rx="112.85714"
         sodipodi:cy="482.36218"
         sodipodi:cx="150"
         id="path3239"
         style="fill:#ffff00;fill-opacity:1;stroke:none;display:inline"
         sodipodi:type="arc" />
      <path
         inkscape:export-ydpi="90"
         inkscape:export-xdpi="90"
         inkscape:export-filename="C:\Documents and Settings\Yusdi\Desktop\Personal\blog\inkscape tutorial\result_tractor.png"
         transform="matrix(0.125878,0,0,0.125878,469.666,444.598)"
         d="m 262.85714,482.36218 c 0,62.32928 -50.52786,112.85714 -112.85714,112.85714 -62.329277,0 -112.85714,-50.52786 -112.85714,-112.85714 0,-62.32927 50.527863,-112.85714 112.85714,-112.85714 62.32928,0 112.85714,50.52787 112.85714,112.85714 z"
         sodipodi:ry="112.85714"
         sodipodi:rx="112.85714"
         sodipodi:cy="482.36218"
         sodipodi:cx="150"
         id="path3245"
         style="fill:url(#linearGradient2967);fill-opacity:1;stroke:none;display:inline"
         sodipodi:type="arc" />
      <path
         inkscape:export-ydpi="90"
         inkscape:export-xdpi="90"
         inkscape:export-filename="C:\Documents and Settings\Yusdi\Desktop\Personal\blog\inkscape tutorial\result_tractor.png"
         transform="matrix(0.118758,0,0,0.118758,472.662,445.783)"
         d="m 262.85714,482.36218 c 0,62.32928 -50.52786,112.85714 -112.85714,112.85714 -62.329277,0 -112.85714,-50.52786 -112.85714,-112.85714 0,-62.32927 50.527863,-112.85714 112.85714,-112.85714 62.32928,0 112.85714,50.52787 112.85714,112.85714 z"
         sodipodi:ry="112.85714"
         sodipodi:rx="112.85714"
         sodipodi:cy="482.36218"
         sodipodi:cx="150"
         id="path3249"
         style="fill:#ffff00;fill-opacity:1;stroke:none;display:inline"
         sodipodi:type="arc" />
    </g>
  </g>
</svg>
