<?xml version="1.0" encoding="UTF-8" standalone="no"?>
<!-- Created with Inkscape (http://www.inkscape.org/) -->
<svg xmlns:svg="http://www.w3.org/2000/svg" xmlns="http://www.w3.org/2000/svg" xmlns:xlink="http://www.w3.org/1999/xlink" version="1.1" width="550" height="750" id="svg2">
  <title id="title2850">Kitten</title>
  <defs id="defs4">
    <linearGradient id="linearGradient3733">
      <stop id="stop3735" style="stop-color: rgb(206, 197, 183); stop-opacity: 1;" offset="0"/>
      <stop id="stop3737" style="stop-color: rgb(236, 230, 220); stop-opacity: 1;" offset="1"/>
    </linearGradient>
    <linearGradient id="linearGradient3830">
      <stop id="stop3832" style="stop-color: rgb(172, 159, 140); stop-opacity: 0.548673;" offset="0"/>
      <stop id="stop3834" style="stop-color: rgb(172, 159, 140); stop-opacity: 0;" offset="1"/>
    </linearGradient>
    <linearGradient id="linearGradient3814">
      <stop id="stop3816" style="stop-color: rgb(210, 205, 186); stop-opacity: 0.548673;" offset="0"/>
      <stop id="stop3818" style="stop-color: rgb(154, 118, 104); stop-opacity: 0;" offset="1"/>
    </linearGradient>
    <linearGradient id="linearGradient3792">
      <stop id="stop3794" style="stop-color: rgb(154, 118, 104); stop-opacity: 1;" offset="0"/>
      <stop id="stop3796" style="stop-color: rgb(154, 118, 104); stop-opacity: 0;" offset="1"/>
    </linearGradient>
    <linearGradient id="linearGradient3782">
      <stop id="stop3784" style="stop-color: rgb(122, 54, 41); stop-opacity: 1;" offset="0"/>
      <stop id="stop3786" style="stop-color: rgb(122, 54, 41); stop-opacity: 0;" offset="1"/>
    </linearGradient>
    <filter x="-0.12294643" y="-0.33585367" width="1.2458929" height="1.6717073" color-interpolation-filters="sRGB" id="filter4111">
      <feGaussianBlur id="feGaussianBlur4113" stdDeviation="29.823351"/>
    </filter>
    <linearGradient x1="577.07495" y1="676.32947" x2="577.07495" y2="629.32507" id="linearGradient2926" xlink:href="#linearGradient3830" gradientUnits="userSpaceOnUse" gradientTransform="matrix(2.44615, 0, 0, 2.44615, -1181.43, -773.732)"/>
    <radialGradient cx="573.92493" cy="572.43726" r="32.375313" fx="573.92493" fy="572.43726" id="radialGradient2929" xlink:href="#linearGradient3814" gradientUnits="userSpaceOnUse" gradientTransform="matrix(2.45102, 1.44759e-06, -1.12707e-06, 1.91649, -1184.61, -473.981)"/>
    <radialGradient cx="538.54205" cy="-26.230696" r="13.920902" fx="538.54205" fy="-26.230696" id="radialGradient2933" xlink:href="#linearGradient3792" gradientUnits="userSpaceOnUse" gradientTransform="matrix(0.768195, -0.527082, 1.31861, 1.9218, -263.671, 677.564)"/>
    <radialGradient cx="614.20135" cy="454.62503" r="19.778078" fx="614.20135" fy="454.62503" id="radialGradient2936" xlink:href="#linearGradient3782" gradientUnits="userSpaceOnUse" gradientTransform="matrix(2.28325, 0.920479, -0.571848, 1.41847, -841.503, -839.371)"/>
    <linearGradient x1="487.72379" y1="1.508394" x2="948.09705" y2="1.508394" id="linearGradient2944" xlink:href="#linearGradient3733" gradientUnits="userSpaceOnUse" gradientTransform="translate(-433.375, 640.374)"/>
  </defs>
  <g transform="translate(0, -302.362)" id="layer1">
    <path d="m 758.90356,1062.9847 a 291.0863,106.55837 0 1 1 -582.1726,0 291.0863,106.55837 0 1 1 582.1726,0 z" transform="matrix(0.756342, 0, 0, 0.78115, -82.88, 72.0812)" id="path4109" style="opacity: 0.2; fill: rgb(0, 0, 0); fill-opacity: 1; stroke: none; filter: url(#filter4111);"/>
    <path d="m 464.5917,729.73727 c 1.0339,-46.48074 -7.1043,-70.60048 -20.5537,-97.10942 -16.0662,-31.66685 -31.0595,-41.11189 -47.6555,-60.56423 4.9628,-63.27371 -26.9306,-55.85997 -18.5261,-104.98157 8.8375,-51.65213 -0.5739,-96.53485 -33.9647,-121.96392 -38.5671,-29.37118 -54.0346,-26.24541 -108.0693,-26.24541 -54.0346,0 -77.1923,13.89463 -112.7008,0 -35.5085,-13.89462 -43.0628,1.37894 -43.0628,1.37894 0,0 11.9859,18.36128 27.4244,47.69438 5.1897,9.8604 5.1096,20.46176 3.4437,26.34125 -3.2898,11.61104 -14.5566,20.94046 -12.5068,49.63704 3.0877,43.22771 26.2454,77.19236 35.5085,104.9816 9.263,27.78925 7.7192,12.35077 6.1753,30.87693 -1.5438,18.52618 -24.7015,94.17468 -27.7892,117.33237 -3.0877,23.15772 4.6315,92.63082 4.6315,126.59545 0,33.96464 -13.3569,38.03652 -53.8334,67.06776 -12.6983,9.1077 -11.2863,45.15292 19.2543,27.8177 -12.2479,6.8808 -16.8654,41.83461 0.5925,41.83461 32.4208,0 81.3648,5.65977 95.7405,-13.67134 20.205,-27.16991 11.4893,-28.39296 13.0331,-43.83144 1.5439,-15.43848 3.4902,-54.67292 0.9056,-71.09556 1.264,15.80944 1.6015,44.57033 0.303,59.5277 16.9823,15.43848 37.0974,20.69248 48.7542,16.54529 11.3308,-44.7851 34.1283,-133.70176 35.15,-142.76027 -1.4432,8.43611 -38.2713,163.62484 -44.3911,176.09917 -11.0647,22.55399 37.4845,33.45508 63.9235,28.16971 27.588,-5.51509 41.3379,-2.12556 41.3379,-43.80941 0,-41.68387 24.3997,-101.57005 28.2704,-107.78945 -2.8645,7.2507 -33.1472,58.36127 -26.7265,108.87425 24.7016,0 67.9293,-24.24251 78.7362,-36.59329 10.8069,-12.35078 15.0955,-14.69123 27.7892,-12.35078 -12.8137,-2.47232 -27.0849,10.14665 -37.8918,20.95357 -10.8069,10.80694 -12.2722,42.06432 21.6925,42.06432 33.9646,0 72.4408,6.48415 73.3217,-21.33402 1.0627,-33.56216 6.3986,-39.73754 9.8668,-58.26369 3.4207,-18.27296 -6.2734,-65.72546 -8.323,-82.22637 -3.0734,-24.74442 -34.5657,-45.10332 -39.8601,-49.20187 z" id="path2932" style="fill: url(#linearGradient2944) rgb(0, 0, 0); fill-opacity: 1; stroke: rgb(0, 0, 0); stroke-width: 2.44615px; stroke-linecap: butt; stroke-linejoin: round; stroke-opacity: 1;"/>
    <path d="m 201.2333,496.74489 c 9.7227,-21.1542 29.9576,-18.39629 48.4838,-10.67705 -3.5371,19.67017 -17.1225,23.81727 -48.4838,10.67705 z" id="path2934" style="fill: rgb(0, 0, 0); fill-opacity: 1; stroke: rgb(0, 0, 0); stroke-width: 2.44615px; stroke-linecap: butt; stroke-linejoin: miter; stroke-opacity: 1;"/>
    <path d="m 157.89,495.30405 c -1.9685,-24.57508 -13.8475,-29.52999 -25.6058,-29.23964 -2.9517,19.09893 3.3305,28.08155 25.6058,29.23964 z" id="path2934-1" style="fill: rgb(0, 0, 0); fill-opacity: 1; stroke: rgb(0, 0, 0); stroke-width: 1.95687px; stroke-linecap: butt; stroke-linejoin: miter; stroke-opacity: 1;"/>
    <path d="m 158.4534,520.28333 c 3.9902,12.26666 23.4401,9.06436 28.958,2.29823 -1.1989,9.26457 -9.8559,20.96752 -11.2424,22.85174 1.5184,1.96524 5.0749,4.08668 10.3231,6.10627 -7.469,-3.1086 -9.9815,-3.93524 -16.2695,2.21834 1.9694,-3.44102 6.9209,-5.17916 4.4748,-8.39181 -10.572,-6.89476 -16.2441,-16.3494 -16.244,-25.08276 z" id="path2958" style="fill: rgb(0, 0, 0); fill-opacity: 1; stroke: rgb(0, 0, 0); stroke-width: 2.44615px; stroke-linecap: butt; stroke-linejoin: round; stroke-opacity: 1;"/>
    <path d="m 215.9097,482.59194 c 1.079,30.27656 29.6675,20.20344 27.5791,2.29827 -8.7334,-4.13686 -17.0159,-4.28507 -27.5791,-2.29827 z" id="path3732" style="fill: rgb(89, 71, 61); fill-opacity: 1; stroke: rgb(0, 0, 0); stroke-width: 2.44615px; stroke-linecap: butt; stroke-linejoin: miter; stroke-opacity: 1;"/>
    <path d="m 136.6479,467.55307 c -6.4359,10.93693 -4.1158,29.75331 20.007,21.41752 -3.3425,-9.03949 -7.4553,-20.52158 -20.007,-21.41752 z" id="path3732-7" style="fill: rgb(89, 71, 61); fill-opacity: 1; stroke: rgb(0, 0, 0); stroke-width: 2.44615px; stroke-linecap: butt; stroke-linejoin: miter; stroke-opacity: 1;"/>
    <path d="m 237.5133,392.50037 c 39.7942,-58.19552 104.9001,-76.11461 92.8495,34.4738 -39.5272,-36.36565 -65.0134,-32.01246 -92.8495,-34.4738 z" id="path3756" style="fill: url(#radialGradient2936) rgb(0, 0, 0); fill-opacity: 1; stroke: rgb(0, 0, 0); stroke-width: 2.44615px; stroke-linecap: butt; stroke-linejoin: miter; stroke-opacity: 1;"/>
    <path d="m 112.3681,394.33076 c -0.01,-35.62942 -34.4753,-69.01369 -29.2019,-73.89229 4.0912,-3.78494 44.3631,9.95398 65.1102,50.78276 -17.7652,-1.56976 -26.4073,-2.72448 -35.9083,23.10953 z" id="path3756-4" style="fill: url(#radialGradient2933) rgb(0, 0, 0); fill-opacity: 1; stroke: rgb(0, 0, 0); stroke-width: 2.44615px; stroke-linecap: butt; stroke-linejoin: round; stroke-opacity: 1;"/>
    <path d="m 83.8007,917.33136 c 12.989,-12.50799 30.3078,-24.05381 31.2699,-41.37256 0.9622,-17.31872 1.4433,-38.00498 1.4433,-38.00498" id="path3780" style="fill: none; stroke: rgb(0, 0, 0); stroke-width: 2.44615px; stroke-linecap: round; stroke-linejoin: miter; stroke-opacity: 1;"/>
    <path d="m 157.2777,570.66818 c 38.2623,10.86457 104.1235,15.2012 133.2094,-6.61324 30.2319,-22.67394 -7.0448,181.23688 -62.3533,180.44674 -66.1323,-0.94478 -109.1183,-184.6981 -70.8561,-173.8335 z" id="path3800" style="fill: url(#radialGradient2929) rgb(0, 0, 0); fill-opacity: 1; stroke: none;"/>
    <path d="m 175.1911,762.69141 c 22.4546,45.30516 20.0176,106.83988 19.4778,127.58101 13.7476,16.24716 32.5407,17.75673 45.7059,17.3569 7.9194,-33.01518 29.1921,-126.1912 36.6908,-148.68727 7.5091,-22.52729 -118.5362,-29.86782 -101.8745,3.74936 z" id="path3820" style="fill: url(#linearGradient2926) rgb(0, 0, 0); fill-opacity: 1; stroke: none;"/>
    <g transform="translate(1.26904, 2.53807)" id="g2947">
      <path d="m 577.91869,517.08215 a 1.2387615,1.2387615 0 1 1 -2.47752,0 1.2387615,1.2387615 0 1 1 2.47752,0 z" transform="matrix(3.88506, 0, 0, 3.88506, -2009.64, -1519.92)" id="path4024" style="fill: rgb(0, 0, 0); fill-opacity: 1; stroke: none;"/>
      <path d="m 577.91869,517.08215 a 1.2387615,1.2387615 0 1 1 -2.47752,0 1.2387615,1.2387615 0 1 1 2.47752,0 z" transform="matrix(3.88506, 0, 0, 3.88506, -2092.65, -1529.52)" id="path4024-2" style="fill: rgb(0, 0, 0); fill-opacity: 1; stroke: none;"/>
    </g>
  </g>
</svg>