<?xml version="1.0" encoding="UTF-8" standalone="no"?>
<!-- Created with Inkscape (http://www.inkscape.org/) -->
<svg
   xmlns:svg="http://www.w3.org/2000/svg"
   xmlns="http://www.w3.org/2000/svg"
   version="1.0"
   width="179.40601"
   height="279.52899"
   viewBox="0 0 179.406 279.529"
   id="Layer_1"
   xml:space="preserve"><defs
   id="defs56" />

<metadata>
<rdf:RDF
      xmlns="http://web.resource.org/cc/"
      xmlns:dc="http://purl.org/dc/elements/1.1/"
      xmlns:rdf="http://www.w3.org/1999/02/22-rdf-syntax-ns#">
      <Work rdf:about="">
         <dc:title>Girl in Wheelchair</dc:title>
         <dc:description>Girl in Wheelchair</dc:description>
         <dc:subject>
          <rdf:Bag>
            <rdf:li>people</rdf:li>
            <rdf:li>girl</rdf:li>
	    <rdf:li>wheelchair</rdf:li>
    	    <rdf:li>medical</rdf:li>
          </rdf:Bag>
         </dc:subject>
         <dc:publisher><Agent rdf:about="http://www.openclipart.org/"><dc:title>Open Clip Art Project</dc:title></Agent></dc:publisher>
         <dc:creator><Agent rdf:about=""><dc:title>Gerald G.</dc:title></Agent></dc:creator>
         <dc:rights><Agent rdf:about="http://web.resource.org/cc/PublicDomain"><dc:title>Public Domain</dc:title></Agent></dc:rights>
         <dc:date>2006/10/02</dc:date>
         <dc:format>image/svg+xml</dc:format>
         <dc:type>http://purl.org/dc/dcmitype/StillImage</dc:type>
         <license rdf:resource="http://web.resource.org/cc/PublicDomain" />
      </Work>
      <License rdf:about="http://web.resource.org/cc/PublicDomain">
         <permits rdf:resource="http://web.resource.org/cc/Reproduction" />
         <permits rdf:resource="http://web.resource.org/cc/Distribution" />
         <permits rdf:resource="http://web.resource.org/cc/DerivativeWorks" />
      </License>
   </rdf:RDF>
</metadata>

<g
   id="g5">
	<path
   d="M 134.173,195.818 C 134.173,202.946 137.305,208.706 141.193,208.706 C 145.082,208.706 148.214,202.946 148.214,195.818 C 148.214,188.69 145.082,182.893 141.193,182.893 C 137.305,182.894 134.173,188.69 134.173,195.818 L 134.173,195.818 z "
   style="fill-rule:evenodd;stroke:black;stroke-width:0.036;stroke-miterlimit:10"
   id="path7" />
	<path
   d="M 136.081,196.934 C 136.081,201.867 138.276,205.827 140.94,205.827 C 143.604,205.827 145.8,201.867 145.8,196.934 C 145.8,192.002 143.604,188.006 140.94,188.006 C 138.276,188.006 136.081,192.002 136.081,196.934 L 136.081,196.934 z "
   style="fill:silver;fill-rule:evenodd;stroke:black;stroke-width:0.036;stroke-miterlimit:10"
   id="path9" />
	<path
   d="M 37.477,124.898 C 35.317,124.43 32.905,124.862 30.097,126.194 C 27.109,127.382 23.797,129.038 20.593,132.53 C 17.317,135.878 14.257,139.874 11.125,147.002 C 7.993,154.202 3.673,165.254 1.909,175.442 C 0.073,185.593 -0.359,196.358 0.325,207.589 C 0.865,218.749 3.133,231.637 5.869,241.825 C 8.677,251.905 12.313,261.193 16.921,267.6 C 21.349,273.865 26.893,278.004 32.725,279.193 C 38.593,280.237 45.793,278.76 51.697,273.937 C 57.493,268.932 62.569,261.121 67.213,249.96 L 67.213,249.96 L 88.561,259.464 L 119.881,259.464 L 119.881,259.464 C 122.113,263.317 124.705,266.556 127.801,269.185 C 130.862,271.848 134.281,273.829 138.061,274.981 C 141.625,275.989 145.441,276.781 149.653,274.981 C 153.794,272.928 158.87,269.76 163.082,263.388 C 167.258,256.945 171.866,247.764 174.674,236.821 C 177.374,225.733 179.318,210.145 179.39,197.833 C 179.283,185.449 177.374,173.533 174.926,163.345 C 172.406,153.013 169.058,143.438 165.17,136.993 C 161.246,130.549 156.817,127.669 152.03,125.149 C 147.134,122.521 142.13,121.513 136.477,121.729 L 136.477,121.729 C 138.169,120.685 139.177,118.057 139.357,113.845 C 139.574,109.453 139.79,103.297 137.521,96.205 C 135.109,89.041 129.133,76.909 125.137,71.185 C 120.997,65.389 117.181,62.221 113.293,61.681 L 113.293,61.681 C 114.984,59.989 116.605,57.685 118.297,54.769 C 119.845,51.745 122.077,48.433 123.049,44.005 C 123.949,39.433 124.813,33.097 123.841,27.913 C 122.725,22.513 120.673,17.329 117.001,12.9 C 113.148,8.4 108.145,3.936 101.989,1.848 C 95.76,-0.24 86.977,-0.347 80.64,0.552 C 74.304,1.344 69.048,3.865 64.584,6.852 C 60.012,9.804 56.772,13.584 54.036,18.192 C 51.228,22.657 49.032,28.993 48.276,33.709 C 47.376,38.425 47.484,41.953 49.572,46.093 C 51.66,50.197 55.44,54.013 60.912,57.937 L 60.912,57.937 C 55.62,59.701 51.624,61.321 48.528,62.941 C 45.504,64.489 43.524,66.037 42.732,67.441 L 42.732,67.441 C 42.228,63.913 41.184,61.141 39.312,58.981 C 37.404,56.785 35.784,55.345 31.68,54.517 C 27.468,53.653 21.852,53.473 14.544,53.977 L 14.544,53.977 C 12.312,55.885 11.088,57.865 10.872,60.061 C 10.62,62.221 11.268,64.453 12.96,66.901 L 12.96,66.901 C 18.612,66.613 23.04,66.793 26.388,67.441 C 29.628,68.017 31.284,68.593 32.724,70.573 C 34.128,72.409 34.56,74.857 34.848,78.745 C 34.992,82.597 34.128,88.717 34.056,93.757 C 33.84,98.653 33.732,103.297 34.308,108.517 C 34.813,113.738 35.965,119.102 37.477,124.898 L 37.477,124.898 z M 154.729,154.022 C 151.381,163.274 148.141,171.986 144.578,180.698 C 140.941,189.446 136.765,198.194 133.598,205.681 C 130.394,212.99 127.802,219.001 125.678,224.257 L 125.678,224.257 C 130.898,227.101 134.894,229.621 137.666,231.673 C 140.401,233.617 141.41,234.841 142.202,236.606 C 142.886,238.37 142.886,240.169 142.057,242.15 L 142.057,242.15 L 148.969,248.486 L 145.946,257.774 L 138.17,258.782 L 138.17,258.782 C 139.106,259.862 140.186,260.438 141.698,260.654 C 143.03,260.834 144.721,261.013 146.773,259.79 C 148.79,258.314 151.238,256.298 153.685,252.374 C 156.025,248.414 158.797,243.158 160.633,236.174 C 162.325,229.046 163.441,220.191 163.837,210.147 C 164.053,199.922 163.621,185.378 162.145,175.947 C 160.633,166.55 158.113,159.242 154.729,154.022 L 154.729,154.022 z M 31.105,166.55 C 28.981,166.118 26.893,166.406 24.841,167.558 C 22.681,168.71 20.737,170.582 18.613,173.319 L 18.613,173.319 L 18.253,181.923 L 18.253,181.923 C 20.485,178.503 22.501,176.019 24.841,174.471 C 27.037,172.923 29.341,172.203 31.609,172.455 L 31.609,172.455 C 31.465,170.51 31.285,168.53 31.105,166.55 L 31.105,166.55 z M 16.237,208.598 C 16.237,208.598 16.381,217.202 16.921,222.279 C 17.461,227.356 17.821,233.331 19.441,238.839 C 21.061,244.311 23.977,251.007 26.533,254.86 C 29.089,258.675 32.185,260.656 34.633,261.628 C 37.117,262.6 38.593,262.888 41.221,260.62 C 43.885,258.28 47.809,253.708 50.365,247.948 C 52.885,242.152 55.045,234.124 56.269,226.168 C 57.457,218.176 58.249,208.06 57.457,200.5 C 56.593,192.94 53.425,183.724 51.373,181.24 C 49.285,178.792 47.089,181.672 45.109,185.811 C 43.129,189.952 41.113,200.824 39.709,205.9 C 38.305,210.94 38.665,213.82 36.829,215.872 C 34.993,217.851 31.393,218.14 28.729,217.888 C 26.065,217.636 23.077,215.909 20.953,214.325 C 18.865,212.774 16.237,208.598 16.237,208.598 L 16.237,208.598 z "
   style="fill-rule:evenodd;stroke:black;stroke-width:0.036;stroke-miterlimit:10"
   id="path11" />
	<path
   d="M 64.513,60.098 C 60.301,61.25 56.629,62.438 53.209,64.058 C 49.645,65.462 46.693,66.902 44.209,69.35 C 41.725,71.798 39.997,75.434 38.737,78.854 C 37.513,82.058 36.937,84.758 36.721,89.186 C 36.325,93.614 36.469,100.634 36.721,105.242 C 36.973,109.67 37.549,112.802 38.161,116.15 C 38.665,119.462 39.241,122.378 39.889,125.042 L 39.889,125.042 C 44.317,126.662 47.917,128.714 51.085,130.802 C 54.181,132.926 56.557,135.698 58.501,137.858 C 60.409,139.983 61.633,141.818 62.317,143.51 L 62.317,143.51 C 65.017,140.45 69.373,138.002 75.529,136.022 C 81.685,134.006 89.389,132.602 99.037,131.666 L 99.037,131.666 C 92.808,130.802 88.093,129.758 84.493,128.534 C 80.929,127.274 78.697,125.834 77.797,124.214 L 77.797,124.214 C 72.433,126.554 68.005,127.958 64.513,128.714 C 60.913,129.29 57.853,129.002 56.737,128.39 C 55.621,127.742 55.873,126.626 57.637,125.042 L 57.637,125.042 C 55.441,125.33 53.821,125.33 52.921,125.042 C 51.985,124.61 51.697,123.746 51.913,123.134 C 52.057,122.486 52.597,121.946 53.677,121.37 L 53.677,121.37 C 51.481,121.478 50.149,121.37 49.537,120.758 C 48.853,120.038 49.285,118.742 50.005,117.842 C 50.653,116.942 51.769,116.258 53.497,115.646 L 53.497,115.646 C 51.697,115.106 50.581,114.422 50.293,113.594 C 49.969,112.658 50.545,111.398 51.445,110.498 C 52.273,109.526 53.497,108.554 55.117,108.014 C 56.629,107.33 58.393,106.934 60.553,106.682 L 60.553,106.682 C 60.193,103.946 59.365,100.994 58.069,97.43 C 56.665,93.758 54.253,88.178 52.633,85.55 C 50.977,82.922 49.933,82.346 48.385,81.59 C 46.693,80.618 43.633,80.87 43.093,80.546 C 42.481,80.078 43.957,79.934 45.001,79.826 C 46.009,79.718 47.557,79.718 49.105,80.402 C 50.509,81.05 51.985,81.626 53.677,84.074 C 55.297,86.486 57.277,90.986 58.933,94.802 C 60.589,98.474 61.921,102.29 63.361,106.25 L 63.361,106.25 C 65.701,106.646 67.681,107.078 69.445,107.546 C 71.137,107.942 72.253,108.23 73.765,108.986 C 75.277,109.67 76.717,110.678 78.373,111.866 L 78.373,111.866 C 83.773,111.398 88.309,111.11 92.413,111.002 C 96.48,110.822 99.684,110.822 102.457,111.002 L 102.457,111.002 C 103.465,106.358 105.049,102.434 107.353,99.23 C 109.585,95.882 113.545,93.002 116.03,91.706 C 118.406,90.482 120.782,91.31 121.897,91.706 C 122.977,91.958 123.122,92.498 122.473,93.326 L 122.473,93.326 C 124.381,93.29 125.461,93.578 126.001,94.046 C 126.397,94.514 126.253,95.306 125.281,96.278 L 125.281,96.278 C 126.648,96.35 127.476,96.782 127.621,97.574 C 127.692,98.294 128.629,98.078 126.144,100.814 C 123.624,103.478 119.124,107.582 112.644,113.414 L 112.644,113.414 C 106.848,113.09 101.268,113.09 95.617,113.27 C 89.965,113.486 84.492,113.882 79.056,114.602 L 79.056,114.602 C 79.452,115.898 79.596,117.122 79.632,118.562 C 79.596,119.966 79.452,121.334 79.056,122.81 L 79.056,122.81 C 82.584,125.186 87.084,127.13 92.412,128.498 C 97.811,129.866 103.86,130.73 111.096,131.09 L 111.096,131.09 C 112.536,128.354 114.984,126.374 118.836,124.754 C 122.544,123.098 127.476,122.198 133.632,121.658 L 133.632,121.658 C 135.72,120.11 136.908,117.23 137.196,113.018 C 137.483,108.626 137.051,102.65 135.216,96.35 C 133.272,89.978 128.808,80.87 125.712,75.686 C 122.472,70.43 119.772,67.766 116.244,65.354 C 112.572,62.87 107.676,61.754 104.472,61.034 C 101.268,60.278 98.784,60.134 97.02,60.746 L 97.02,60.746 C 95.148,63.554 93.312,65.786 91.512,67.586 C 89.532,69.278 88.092,70.646 85.932,71.258 C 83.7,71.762 81.18,71.654 78.768,70.934 C 76.356,69.962 73.908,68.126 71.568,66.254 C 69.157,64.346 66.853,62.438 64.513,60.098 L 64.513,60.098 z "
   style="fill:#169253;fill-rule:evenodd;stroke:black;stroke-width:0.036;stroke-miterlimit:10"
   id="path13" />
	<path
   d="M 66.565,59.774 L 70.669,58.766 L 70.669,58.766 C 72.505,60.35 74.269,61.394 76.105,62.438 C 77.905,63.266 79.669,64.13 81.397,64.346 C 82.945,64.49 84.133,64.346 85.789,63.914 C 87.337,63.374 89.101,62.582 90.936,61.394 L 90.936,61.394 C 91.621,61.322 92.304,61.322 92.844,61.394 C 93.384,61.466 93.924,61.466 94.321,61.682 L 94.321,61.682 C 93.096,63.518 91.728,64.994 90.073,66.254 C 88.344,67.478 86.616,68.63 84.492,69.026 C 82.26,69.278 79.956,68.99 77.58,68.018 C 75.06,66.974 72.108,64.526 70.236,63.158 C 68.401,61.754 67.177,60.674 66.565,59.774 L 66.565,59.774 z "
   style="fill:#169253;fill-rule:evenodd;stroke:black;stroke-width:0.036;stroke-miterlimit:10"
   id="path15" />
	<path
   d="M 74.341,52.934 C 74.413,53.798 74.413,54.77 74.341,55.706 C 74.233,56.678 73.945,57.614 73.621,58.658 L 73.621,58.658 C 74.593,59.846 75.817,60.818 77.437,61.43 C 79.021,62.078 81.253,62.474 83.017,62.474 C 84.709,62.294 86.221,61.754 87.697,60.71 L 87.697,60.71 C 87.841,60.422 87.949,59.882 88.021,59.234 C 88.093,58.514 88.093,57.686 88.165,56.606 L 88.165,56.606 C 85.897,57.326 83.737,57.326 81.397,56.75 C 79.021,56.102 76.717,54.878 74.341,52.934 L 74.341,52.934 z "
   style="fill:#ffdd9e;fill-rule:evenodd;stroke:black;stroke-width:0.036;stroke-miterlimit:10"
   id="path17" />
	<path
   d="M 64.297,58.298 C 61.309,56.354 58.717,54.302 56.521,51.998 C 54.145,49.55 52.237,47.39 51.085,44.546 C 50.005,41.702 49.645,38.894 50.149,35.294 C 50.653,31.514 52.201,26.582 53.965,22.73 C 55.549,18.915 57.133,15.602 60.265,12.65 C 63.469,9.518 68.185,6.422 72.901,4.623 C 77.473,2.75 83.233,2.21 87.841,2.03 C 92.377,1.706 95.653,1.813 99.901,3.181 C 104.042,4.549 109.046,7.465 112.538,10.381 C 115.85,13.225 118.189,15.961 119.99,20.137 C 121.79,24.205 122.653,30.109 122.87,34.789 C 122.906,39.325 122.042,43.249 120.278,47.677 C 118.334,52.033 115.633,56.461 111.782,60.961 L 111.782,60.961 C 108.074,59.989 104.582,59.305 100.91,59.053 C 97.166,58.765 93.638,58.909 89.93,59.341 L 89.93,59.341 L 89.282,56.605 L 89.282,56.605 C 96.05,54.517 101.306,51.925 105.626,49.117 C 109.802,46.129 113.222,42.925 114.518,39.361 C 115.743,35.761 114.338,31.981 113.367,28.165 C 112.251,24.313 110.81,20.533 108.507,16.681 L 108.507,16.681 L 109.083,21.001 L 109.083,21.001 C 108.11,20.749 106.959,20.568 105.77,20.461 C 104.438,20.281 103.214,20.281 101.666,20.316 L 101.666,20.316 C 101.126,18.625 100.91,17.004 100.622,15.312 C 100.334,13.548 100.189,11.892 100.189,10.056 L 100.189,10.056 C 99.542,12.613 99.145,14.52 99.001,16.212 C 98.749,17.796 98.749,18.876 99.001,19.596 L 99.001,19.596 C 97.201,19.489 95.833,19.38 94.465,19.128 C 93.097,18.84 92.017,18.552 91.081,18.12 L 91.081,18.12 C 90.648,16.716 90.361,15.24 90.361,13.691 C 90.253,12.072 90.396,10.416 90.793,8.58 L 90.793,8.58 C 90.001,10.38 89.461,12.036 89.173,13.691 C 88.777,15.347 88.813,16.824 88.885,18.408 L 88.885,18.408 C 88.165,18.444 87.229,18.3 85.933,17.975 C 84.565,17.651 83.089,16.931 81.109,16.211 L 81.109,16.211 C 80.749,15.419 80.605,14.627 80.533,13.69 C 80.461,12.718 80.605,11.747 80.821,10.63 L 80.821,10.63 C 80.173,12.502 79.237,14.158 78.157,15.454 C 76.969,16.642 75.781,17.722 74.053,18.55 C 72.217,19.414 69.517,19.594 67.753,20.89 C 65.953,22.15 64.261,23.59 63.505,26.182 C 62.641,28.738 62.533,32.806 63.037,36.01 C 63.541,38.998 64.909,42.166 66.601,44.542 C 68.149,46.918 70.201,48.826 72.613,50.266 L 72.613,50.266 C 72.433,51.238 72.469,52.246 72.325,53.434 C 72.145,54.586 72.181,55.774 72.037,57.142 L 72.037,57.142 C 70.669,56.89 69.229,56.89 68.005,57.142 C 66.745,57.29 65.413,57.722 64.297,58.298 L 64.297,58.298 z "
   style="fill:#feff48;fill-rule:evenodd;stroke:black;stroke-width:0.036;stroke-miterlimit:10"
   id="path19" />
	<path
   d="M 79.489,16.79 C 78.265,17.762 76.933,18.842 75.097,19.742 C 73.189,20.605 70.525,20.93 68.761,22.37 C 66.961,23.666 65.089,25.106 64.513,27.95 C 63.829,30.83 63.757,35.618 65.125,39.254 C 66.313,42.638 69.265,45.734 72.325,48.542 C 75.457,51.17 79.813,54.554 83.593,55.382 C 87.193,56.066 90.937,54.446 94.141,53.438 C 97.309,52.43 99.362,51.638 102.385,49.658 C 105.337,47.57 109.621,43.862 111.637,41.306 C 113.366,38.714 114.049,37.526 113.689,34.394 C 113.33,31.118 111.961,27.194 109.585,22.226 L 109.585,22.226 C 103.033,21.794 97.849,21.398 93.889,21.038 C 89.857,20.642 88.129,20.534 85.789,19.886 C 83.341,19.094 81.289,18.193 79.489,16.79 L 79.489,16.79 z "
   style="fill:#ffdd9e;fill-rule:evenodd;stroke:black;stroke-width:0.036;stroke-miterlimit:10"
   id="path21" />
	<path
   d="M 93.997,24.602 C 95.94,24.17 97.524,24.242 98.749,24.818 C 99.973,25.322 100.837,26.366 101.341,27.806 L 101.341,27.806 C 99.649,26.978 98.245,26.582 96.985,26.474 C 95.618,26.366 94.681,26.654 93.746,27.338 L 93.746,27.338 C 93.816,26.438 93.889,25.538 93.997,24.602 L 93.997,24.602 z "
   style="fill-rule:evenodd;stroke:black;stroke-width:0.036;stroke-miterlimit:10"
   id="path23" />
	<path
   d="M 87.301,31.442 C 89.461,33.638 90.649,35.33 91.405,36.518 C 92.016,37.562 91.98,37.886 91.152,38.462 C 90.361,39.074 88.777,39.506 86.545,40.046 L 86.545,40.046 C 87.949,39.434 88.885,38.75 89.353,37.994 C 89.677,37.274 89.641,36.374 89.245,35.438 C 88.885,34.25 88.237,33.062 87.301,31.442 L 87.301,31.442 z "
   style="fill-rule:evenodd;stroke:black;stroke-width:0.036;stroke-miterlimit:10"
   id="path25" />
	<path
   d="M 78.553,40.586 C 81.037,44.042 83.269,46.382 85.393,47.462 C 87.409,48.542 89.425,47.75 91.045,47.03 C 92.593,46.202 94.033,44.798 95.077,42.674 L 95.077,42.674 C 93.097,44.762 90.793,45.59 88.021,45.302 C 85.285,44.942 82.081,43.322 78.553,40.586 L 78.553,40.586 z "
   style="fill-rule:evenodd;stroke:black;stroke-width:0.036;stroke-miterlimit:10"
   id="path27" />
	<path
   d="M 79.597,30.182 C 79.597,31.226 80.461,32.054 81.505,32.054 C 82.549,32.054 83.377,31.226 83.377,30.182 C 83.377,29.138 82.549,28.274 81.505,28.274 C 80.461,28.274 79.597,29.138 79.597,30.182 L 79.597,30.182 z "
   style="fill-rule:evenodd;stroke:black;stroke-width:0.036;stroke-miterlimit:10"
   id="path29" />
	<path
   d="M 94.141,31.154 C 94.141,32.198 95.005,33.062 96.049,33.062 C 97.093,33.062 97.921,32.198 97.921,31.154 C 97.921,30.11 97.093,29.282 96.049,29.282 C 95.005,29.282 94.141,30.11 94.141,31.154 L 94.141,31.154 z "
   style="fill-rule:evenodd;stroke:black;stroke-width:0.036;stroke-miterlimit:10"
   id="path31" />
	<path
   d="M 83.593,22.838 C 81.613,22.658 79.993,22.73 78.877,23.45 C 77.689,24.134 76.861,25.07 76.537,26.654 L 76.537,26.654 C 78.049,25.646 79.561,25.178 80.785,24.962 C 81.973,24.71 83.161,24.998 84.061,25.538 L 84.061,25.538 C 83.917,24.638 83.773,23.738 83.593,22.838 L 83.593,22.838 z "
   style="fill-rule:evenodd;stroke:black;stroke-width:0.036;stroke-miterlimit:10"
   id="path33" />
	<path
   d="M 32.293,66.398 C 31.393,65.138 31.105,63.986 31.429,62.51 C 31.717,61.07 32.617,59.45 34.129,57.794 L 34.129,57.794 C 35.749,58.586 37.153,59.522 38.197,60.998 C 39.277,62.294 39.961,64.634 40.537,66.074 C 40.969,67.514 41.293,68.594 41.221,69.458 L 41.221,69.458 C 40.357,70.07 39.673,70.862 39.025,71.978 C 38.377,73.094 37.765,74.354 37.333,76.046 L 37.333,76.046 C 37.117,72.662 36.613,70.178 35.821,68.594 C 34.885,66.938 33.841,66.254 32.293,66.398 L 32.293,66.398 z "
   style="fill:silver;fill-rule:evenodd;stroke:black;stroke-width:0.036;stroke-miterlimit:10"
   id="path35" />
	<path
   d="M 105.553,108.806 C 105.698,106.574 106.49,104.558 107.785,102.218 C 109.117,99.878 111.529,96.674 113.509,95.126 C 115.381,93.506 117.829,92.714 118.909,92.75 C 119.845,92.642 119.953,93.506 119.232,94.946 L 119.232,94.946 C 121.501,94.262 122.869,94.19 123.48,94.586 C 124.056,94.982 123.876,95.846 122.796,97.322 L 122.796,97.322 C 124.56,97.034 125.388,97.25 125.676,97.826 C 125.784,98.33 126.324,98.258 123.984,100.67 C 121.537,103.01 117.468,106.79 111.493,112.01 L 111.493,112.01 C 109.98,111.758 108.793,111.362 107.785,110.822 C 106.813,110.282 106.021,109.562 105.553,108.806 L 105.553,108.806 z "
   style="fill:#ffdd9e;fill-rule:evenodd;stroke:black;stroke-width:0.036;stroke-miterlimit:10"
   id="path37" />
	<path
   d="M 76.681,112.01 C 73.765,110.642 70.885,109.526 68.437,108.95 C 65.953,108.23 63.685,107.906 61.489,108.122 C 59.185,108.23 56.161,109.166 54.757,109.958 C 53.353,110.678 52.777,111.902 52.885,112.658 C 52.849,113.27 53.245,113.774 54.757,114.026 C 56.269,114.278 58.429,114.386 61.669,114.35 L 61.669,114.35 C 59.077,114.962 56.989,115.538 55.405,116.222 C 53.821,116.834 52.417,117.554 52.021,118.238 C 51.481,118.85 51.085,119.606 52.201,119.93 C 53.245,120.182 55.225,120.074 58.285,119.75 L 58.285,119.75 C 55.873,120.794 54.541,121.658 53.893,122.486 C 53.281,123.242 53.569,124.286 54.757,124.502 C 55.837,124.646 57.853,124.358 60.661,123.494 L 60.661,123.494 C 59.473,124.214 58.789,125.042 58.465,125.69 C 58.069,126.374 57.745,127.166 58.609,127.526 C 59.401,127.778 61.309,127.49 63.361,127.202 C 65.305,126.662 67.933,126.086 70.273,125.33 C 72.433,124.646 74.413,123.818 76.357,122.99 L 76.357,122.99 C 77.221,121.154 77.617,119.39 77.689,117.554 C 77.725,115.682 77.437,113.882 76.681,112.01 L 76.681,112.01 z "
   style="fill:#ffdd9e;fill-rule:evenodd;stroke:black;stroke-width:0.036;stroke-miterlimit:10"
   id="path39" />
	<path
   d="M 63.361,146.21 C 66.133,143.114 69.553,140.63 74.053,138.758 C 78.481,136.886 83.701,135.59 89.713,134.87 C 95.617,133.934 103.465,133.322 109.081,133.574 C 114.589,133.646 119.089,134.042 122.581,136.166 C 125.929,138.254 129.421,140.27 129.457,146.498 C 129.385,152.726 125.064,163.49 122.473,173.39 C 119.773,183.218 116.425,195.855 113.941,205.071 C 111.385,214.178 109.37,221.558 107.605,227.751 L 107.605,227.751 C 105.446,229.767 102.961,230.631 100.009,230.631 C 97.021,230.524 93.637,229.551 89.857,227.427 L 89.857,227.427 C 86.941,221.163 85.753,212.847 86.149,201.94 C 86.545,190.996 88.633,177.891 92.413,162.232 L 92.413,162.232 C 91.152,165.076 88.777,167.307 85.141,169.324 C 81.505,171.267 76.609,172.708 70.597,173.788 L 70.597,173.788 C 69.877,167.38 68.869,162.052 67.717,157.408 C 66.457,152.726 65.053,149.126 63.361,146.21 L 63.361,146.21 z "
   style="fill:#2161a1;fill-rule:evenodd;stroke:black;stroke-width:0.036;stroke-miterlimit:10"
   id="path41" />
	<path
   d="M 113.077,131.882 C 114.732,130.154 116.856,128.678 119.737,127.454 C 122.508,126.05 125.892,124.898 129.888,124.394 C 133.848,123.89 139.321,123.062 143.244,124.682 C 147.096,126.23 150.948,129.254 152.712,133.898 C 154.44,138.578 154.764,144.698 153.288,152.258 C 151.559,159.674 146.267,169.718 142.956,177.819 C 139.643,185.739 136.656,192.255 133.596,199.743 C 130.356,207.195 127.332,214.431 124.128,222.027 L 124.128,222.027 C 122.472,222.171 120.672,222.171 118.728,222.027 C 116.749,221.882 114.661,221.451 112.321,221.018 L 112.321,221.018 C 114.264,211.514 116.352,202.586 118.728,193.659 C 121.033,184.659 123.984,175.875 126.18,167.991 C 128.232,159.999 130.896,152.043 131.4,147.039 C 131.796,141.999 130.68,140.81 128.88,138.471 C 126.936,136.059 123.192,134.115 120.564,133.035 C 117.9,131.918 115.453,131.486 113.077,131.882 L 113.077,131.882 z "
   style="fill:#2161a1;fill-rule:evenodd;stroke:black;stroke-width:0.036;stroke-miterlimit:10"
   id="path43" />
	<path
   d="M 17.893,167.954 C 15.769,174.65 14.725,180.302 14.221,189.194 C 13.717,198.086 13.897,211.154 14.761,220.622 C 15.409,229.874 16.165,237.542 18.685,244.742 C 21.205,251.942 25.669,259.898 29.701,263.354 C 33.589,266.629 37.801,267.061 41.905,264.505 C 45.901,261.77 50.473,256.73 53.677,247.297 C 56.665,237.613 59.977,221.341 60.265,207.661 C 60.445,193.837 58.609,177.025 55.153,166.117 C 51.517,155.209 44.281,146.173 39.421,143.293 C 34.561,140.413 30.133,145.201 26.569,149.341 C 22.861,153.518 20.017,161.15 17.893,167.954 L 17.893,167.954 z M 10.297,156.074 C 7.273,163.778 4.897,172.778 3.709,181.814 C 2.485,190.633 2.341,199.129 3.133,209.101 C 3.781,219.11 5.185,231.494 8.029,241.249 C 10.945,250.933 15.337,260.797 20.377,266.809 C 25.237,272.641 31.753,276.494 37.297,276.278 C 42.769,275.918 48.241,272.137 53.317,264.938 C 58.357,257.522 64.225,245.57 67.177,232.681 C 69.985,219.65 71.353,202.513 70.309,187.933 C 69.049,173.209 65.845,155.858 60.553,145.742 C 55.189,135.626 45.649,129.83 39.025,128.21 C 32.257,126.698 26.137,131.45 21.241,136.238 C 16.345,140.99 13.213,148.298 10.297,156.074 L 10.297,156.074 z "
   style="fill:silver;fill-rule:evenodd;stroke:black;stroke-width:0.036;stroke-miterlimit:10"
   id="path45" />
	<path
   d="M 25.777,205.43 C 25.777,210.363 27.937,214.359 30.637,214.359 C 33.301,214.359 35.461,210.363 35.461,205.43 C 35.461,200.498 33.301,196.502 30.637,196.502 C 27.937,196.502 25.777,200.498 25.777,205.43 L 25.777,205.43 z "
   style="fill:silver;fill-rule:evenodd;stroke:black;stroke-width:0.036;stroke-miterlimit:10"
   id="path47" />
	<path
   d="M 151.741,128.102 C 153.613,130.55 154.909,133.574 155.629,137.174 C 156.276,140.738 156.457,144.771 156.025,149.414 L 156.025,149.414 C 158.294,152.258 160.273,157.082 162.109,164.03 C 163.91,170.906 166.25,180.23 166.754,190.885 C 167.186,201.614 165.746,217.705 164.522,227.354 C 163.083,236.677 160.85,241.969 158.798,247.118 C 156.746,252.265 154.838,255.362 152.498,258.061 C 149.941,260.618 146.918,261.877 144.542,262.669 C 142.273,263.281 140.582,263.173 138.782,262.489 C 136.838,261.769 134.929,260.581 133.057,258.781 L 133.057,258.781 L 122.293,259.609 L 122.293,259.609 C 123.877,262.273 126.108,264.72 128.593,266.808 C 131.114,268.968 134.03,271.056 137.485,272.245 C 140.906,273.253 144.866,274.837 148.969,273.109 C 153.001,271.201 157.681,266.808 161.605,261.337 C 165.421,255.793 168.914,249.314 171.649,240.097 C 174.277,230.629 176.618,217.526 177.122,205.646 C 177.446,193.694 175.466,179.042 173.954,169.177 C 172.334,159.278 169.777,152.654 167.653,146.785 C 165.385,140.917 163.406,137.209 160.742,134.149 C 158.041,131.018 155.089,129.002 151.741,128.102 L 151.741,128.102 z "
   style="fill:silver;fill-rule:evenodd;stroke:black;stroke-width:0.036;stroke-miterlimit:10"
   id="path49" />
	<path
   d="M 91.188,231.71 C 91.728,232.647 92.844,233.439 94.537,233.942 C 96.085,234.446 98.892,234.878 101.016,234.662 C 103.14,234.302 105.084,233.438 107.136,232.07 L 107.136,232.07 C 112.212,235.093 116.281,237.938 119.34,240.601 C 122.4,243.194 124.488,245.606 125.46,247.837 C 126.252,249.997 126.504,252.517 124.704,253.741 C 122.76,254.857 118.26,254.713 114.516,254.677 C 110.772,254.606 107.424,254.533 102.672,253.201 C 97.812,251.761 92.448,249.457 86.004,246.145 L 86.004,246.145 C 85.932,245.64 85.824,245.136 85.824,244.489 C 85.752,243.841 85.752,243.049 85.824,242.257 L 85.824,242.257 C 89.82,244.849 93.384,246.721 96.949,248.017 C 100.333,249.205 102.888,249.637 106.56,249.854 C 110.161,249.961 114.012,249.854 118.405,249.133 L 118.405,249.133 C 112.68,248.917 107.676,248.305 103.249,247.442 C 98.713,246.433 94.429,244.814 91.765,243.553 C 89.065,242.221 87.517,240.925 87.121,239.665 L 87.121,239.665 C 87.553,237.145 88.057,235.237 88.777,233.941 C 89.461,232.646 90.217,231.854 91.188,231.71 L 91.188,231.71 z "
   style="fill:white;fill-rule:evenodd;stroke:black;stroke-width:0.036;stroke-miterlimit:10"
   id="path51" />
	<path
   d="M 111.745,224.51 C 111.133,225.158 110.701,225.95 110.449,226.886 C 110.197,227.823 110.089,228.83 110.268,230.054 L 110.268,230.054 C 113.329,232.502 115.993,234.518 118.405,236.534 C 120.745,238.442 122.724,240.061 124.344,241.538 L 124.344,241.538 C 125.856,241.574 127.405,241.574 128.989,241.538 C 130.573,241.502 131.976,241.393 133.596,241.358 L 133.596,241.358 C 132.732,241.862 131.58,242.185 130.284,242.473 C 128.916,242.725 127.26,242.797 125.46,242.833 L 125.46,242.833 C 125.856,243.553 126.18,244.093 126.576,244.849 C 126.899,245.497 127.151,246.181 127.475,246.902 L 127.475,246.902 C 130.572,247.37 133.055,247.622 135.072,247.261 C 137.015,246.865 138.42,246.577 139.139,245.03 C 139.751,243.482 140.255,240.061 139.139,237.83 C 137.915,235.49 135.324,233.222 132.479,231.17 C 129.528,229.082 126.143,227.21 121.931,225.41 L 121.931,225.41 C 119.196,225.806 116.927,225.986 115.271,225.806 C 113.581,225.626 112.356,225.194 111.745,224.51 L 111.745,224.51 z "
   style="fill:white;fill-rule:evenodd;stroke:black;stroke-width:0.036;stroke-miterlimit:10"
   id="path53" />
</g>
</svg>