<?xml version="1.0" encoding="UTF-8" standalone="no"?>
<!-- Created with Inkscape (http://www.inkscape.org/) -->
<svg
   xmlns:svg="http://www.w3.org/2000/svg"
   xmlns="http://www.w3.org/2000/svg"
   version="1.0"
   width="224.98199"
   height="640.64203"
   viewBox="0 0 224.982 640.642"
   id="Layer_1"
   xml:space="preserve"><defs
   id="defs132" />

<metadata>
<rdf:RDF
      xmlns="http://web.resource.org/cc/"
      xmlns:dc="http://purl.org/dc/elements/1.1/"
      xmlns:rdf="http://www.w3.org/1999/02/22-rdf-syntax-ns#">
      <Work rdf:about="">
         <dc:title>Man In Suit</dc:title>
         <dc:description>Man In Suit - Worldlabel</dc:description>
         <dc:subject>
          <rdf:Bag>
            <rdf:li>people</rdf:li>
		<rdf:li>man</rdf:li>
		<rdf:li>suit</rdf:li>
		<rdf:li>business</rdf:li>
		<rdf:li>businessman</rdf:li>
          </rdf:Bag>
         </dc:subject>
         <dc:publisher><Agent rdf:about="http://www.openclipart.org/"><dc:title>Open Clip Art Project</dc:title></Agent></dc:publisher>
         <dc:creator><Agent rdf:about=""><dc:title>worldlabel.com - SVG by Gerald G.</dc:title></Agent></dc:creator>
         <dc:rights><Agent rdf:about="http://web.resource.org/cc/PublicDomain"><dc:title>Public Domain</dc:title></Agent></dc:rights>
         <dc:date>2006/10/02</dc:date>
         <dc:format>image/svg+xml</dc:format>
         <dc:type>http://purl.org/dc/dcmitype/StillImage</dc:type>
         <license rdf:resource="http://web.resource.org/cc/PublicDomain" />
      </Work>
      <License rdf:about="http://web.resource.org/cc/PublicDomain">
         <permits rdf:resource="http://web.resource.org/cc/Reproduction" />
         <permits rdf:resource="http://web.resource.org/cc/Distribution" />
         <permits rdf:resource="http://web.resource.org/cc/DerivativeWorks" />
      </License>
   </rdf:RDF>
</metadata>


<g
   id="g5">
	<path
   d="M 77.13,160.311 C 73.386,163.515 68.814,167.223 63.414,171.579 C 57.942,175.972 51.714,180.687 44.586,186.267 L 44.586,186.267 C 40.554,186.987 36.666,188.319 32.346,190.407 C 27.882,192.387 22.878,194.907 19.134,198.508 C 15.534,202.035 13.446,205.095 10.782,211.719 C 8.046,218.379 4.698,227.523 2.97,237.891 C 1.098,248.115 0.018,262.695 0.018,272.883 C -0.018,282.963 1.35,291.099 2.718,297.867 C 3.87,304.419 2.97,303.339 7.362,312.519 C 11.682,321.771 18.738,334.876 28.674,352.659 L 28.674,352.659 C 30.042,352.695 31.338,352.588 32.562,352.191 C 33.786,351.723 34.722,351.111 35.766,350.212 L 35.766,350.212 C 36.162,353.092 36.27,355.756 36.234,358.06 C 35.982,360.364 35.19,362.272 35.262,364.18 C 35.262,365.944 36.126,367.852 36.738,369.076 C 37.242,370.228 37.926,370.732 38.934,371.272 C 39.942,371.704 41.202,371.992 42.858,371.992 L 42.858,371.992 L 42.858,379.337 L 42.858,379.337 C 40.95,379.372 38.862,379.444 36.99,379.841 C 35.082,380.2 32.994,380.597 31.122,381.317 L 31.122,381.317 C 29.934,396.617 29.358,412.925 29.394,431.357 C 29.43,449.717 30.078,469.086 31.338,490.577 L 31.338,490.577 C 35.838,490.649 40.41,490.649 45.054,490.577 C 49.698,490.397 54.306,490.145 59.022,489.821 L 59.022,489.821 L 60.246,461.922 L 60.246,461.922 C 61.038,467.537 62.01,473.117 63.162,478.806 C 64.35,484.494 65.934,492.054 67.086,495.942 C 68.13,499.686 68.31,500.082 69.282,501.558 C 70.146,502.926 71.082,503.826 72.234,504.258 L 72.234,504.258 C 73.818,513.581 74.97,522.726 76.122,531.978 C 77.094,541.266 78.102,551.238 78.57,559.374 C 78.894,567.33 78.606,573.883 78.822,579.715 C 79.002,585.403 79.326,590.047 79.794,593.647 L 79.794,593.647 C 82.026,593.683 84.042,593.683 85.698,593.647 C 87.39,593.539 88.722,593.502 89.838,593.395 L 89.838,593.395 L 89.838,595.123 L 89.838,595.123 C 86.022,596.491 81.99,599.227 77.598,603.187 C 73.134,607.255 66.87,613.591 63.666,618.847 C 60.318,623.958 58.518,629.467 58.266,633.283 C 58.014,636.955 59.454,640.375 62.442,640.627 C 65.43,640.699 70.758,637.604 75.654,634.256 C 80.442,630.764 85.482,626.3 91.062,620.323 L 91.062,620.323 L 98.658,620.323 L 98.658,620.323 C 100.422,618.415 102.258,616.508 104.022,614.455 C 105.678,612.367 108.234,610.388 109.17,608.083 C 109.962,605.527 110.034,602.647 109.674,600.02 C 109.35,597.428 108.666,594.98 107.478,592.676 L 107.478,592.676 L 107.478,592.676 C 108.99,591.776 109.998,591.092 110.646,590.228 C 111.222,589.328 111.438,588.644 111.15,587.78 L 111.15,587.78 C 111.762,587.636 112.518,587.636 113.814,587.78 C 115.002,587.816 116.55,588.032 118.458,588.284 L 118.458,588.284 L 118.458,588.284 C 116.946,589.616 115.794,591.236 115.29,593.144 C 114.75,595.016 114.894,597.14 115.038,599.516 C 115.038,601.676 115.255,604.016 115.542,606.392 L 115.542,606.392 C 116.515,608.948 118.026,611.144 119.935,612.98 C 121.807,614.852 124.219,616.22 127.027,617.372 L 127.027,617.372 L 134.623,615.681 L 134.623,615.681 C 137.323,619.101 141.14,622.233 146.359,625.221 C 151.507,628.173 161.119,632.996 165.475,633.284 C 169.723,633.392 172.531,630.332 171.811,626.192 C 170.839,621.908 164.935,613.772 160.327,608.588 C 155.575,603.26 148.807,598.22 144.307,595.268 C 139.878,592.388 136.279,590.984 133.651,591.2 L 133.651,591.2 L 134.371,587.78 L 134.371,587.78 C 136.171,587.456 137.935,587.168 139.519,587.06 C 141.067,586.844 142.579,586.808 143.911,586.808 L 143.911,586.808 C 142.615,570.896 142.327,556.244 143.191,542.024 C 144.055,527.804 145.783,514.7 148.807,502.136 L 148.807,502.136 C 150.175,501.955 151.219,500.48 152.479,497.42 C 153.523,494.359 154.17,494.359 155.683,483.955 C 157.122,473.227 159.21,449.899 161.551,434.527 C 163.746,419.119 166.483,405.548 169.363,392.695 L 169.363,392.695 C 173.575,391.975 176.635,390.607 178.687,388.447 C 180.631,386.216 180.595,383.407 181.351,379.88 C 182.071,376.279 182.647,372.14 183.079,367.172 L 183.079,367.172 C 185.563,366.991 187.291,366.415 188.695,365.443 C 189.919,364.291 190.531,363.247 190.927,361.051 C 191.286,358.782 190.567,355.003 191.143,352.483 C 191.683,349.963 192.619,347.839 194.095,346.111 L 194.095,346.111 C 194.958,347.083 196.183,347.983 197.767,348.811 C 199.279,349.603 201.151,350.215 203.383,350.79 L 203.383,350.79 C 209.467,326.166 214.183,307.158 217.819,292.362 C 221.383,277.674 223.903,272.13 224.695,263.238 C 225.415,254.274 224.731,248.838 222.247,239.01 C 219.583,229.002 213.247,212.622 209.503,204.306 C 205.724,196.026 205.399,193.254 200.216,189.618 C 194.888,185.91 187.724,183.462 178.184,182.274 L 178.184,182.274 C 174.331,178.566 169.4,175.29 163.244,172.014 C 157.016,168.738 149.816,165.713 141.248,162.942 L 141.248,162.942 C 119.898,162.075 98.515,161.21 77.13,160.311 L 77.13,160.311 z "
   style="fill-rule:evenodd;stroke:#000000;stroke-width:0.036;stroke-miterlimit:10"
   id="path7" />
	<path
   d="M 61.831,175.035 L 78.787,161.607 L 141.031,163.695 L 155.468,169.995 L 155.468,169.995 C 151.904,173.487 148.123,177.699 143.732,182.775 C 139.304,187.779 133.364,195.195 129.512,200.163 C 125.696,204.987 122.78,208.947 120.908,211.899 L 120.908,211.899 C 119.648,205.671 118.172,200.344 116.084,195.339 C 114.032,190.299 110.468,185.188 108.74,182.344 C 106.94,179.463 105.824,178.024 105.392,178.167 L 105.392,178.167 C 102.692,182.451 100.064,187.384 97.652,192.819 C 95.096,198.327 92.972,204.159 90.74,210.855 L 90.74,210.855 C 87.32,205.167 83.828,199.911 80.264,194.943 C 76.628,189.831 72.128,184.431 69.14,181.083 C 65.97,177.735 63.667,175.719 61.831,175.035 L 61.831,175.035 z "
   style="fill:#ffffff;fill-rule:evenodd;stroke:#000000;stroke-width:0.036;stroke-miterlimit:10"
   id="path9" />
	<path
   d="M 104.994,180.687 C 102.078,187.347 99.882,192.675 98.262,196.815 C 96.606,200.955 95.562,203.727 95.13,205.419 L 95.13,205.419 C 96.426,208.587 97.686,211.251 98.91,213.807 C 100.134,216.255 101.322,218.415 102.474,220.287 L 102.474,220.287 C 102.906,220.431 103.626,220.431 104.778,220.287 C 105.894,220.143 108.558,219.171 109.17,219.459 C 109.566,219.567 108.882,220.791 107.694,221.331 C 106.434,221.763 104.526,222.159 101.826,222.375 L 101.826,222.375 C 100.062,228.963 98.478,235.155 97.218,241.239 C 95.886,247.323 94.842,252.867 94.086,258.411 L 94.086,258.411 C 95.094,259.995 96.678,262.695 99.126,266.799 C 101.538,270.831 104.562,275.979 108.342,282.531 L 108.342,282.531 C 109.242,279.039 110.25,275.331 111.906,271.011 C 113.454,266.727 115.29,262.047 117.558,256.971 L 117.558,256.971 C 115.866,250.167 114.461,243.579 113.346,237.063 C 112.23,230.475 111.402,224.211 110.862,217.983 L 110.862,217.983 C 112.95,215.643 114.57,213.735 115.866,212.115 C 117.126,210.387 117.918,209.307 118.387,208.335 L 118.387,208.335 C 117.126,202.611 115.435,197.392 113.166,192.819 C 110.862,188.175 108.234,184.179 104.994,180.687 L 104.994,180.687 z "
   style="fill:#a80000;fill-rule:evenodd;stroke:#000000;stroke-width:0.036;stroke-miterlimit:10"
   id="path11" />
	<path
   d="M 61.614,175.863 L 59.706,177.123 L 59.706,177.123 C 64.278,188.392 68.13,198.255 71.658,207.291 C 75.042,216.219 76.662,222.303 80.262,230.547 C 83.79,238.719 87.93,247.143 92.826,256.107 L 92.826,256.107 C 93.942,248.619 95.13,241.923 96.39,236.019 C 97.578,230.007 98.838,224.967 100.17,220.503 L 100.17,220.503 C 98.37,216.507 97.218,213.483 96.174,211.287 C 95.166,209.055 94.59,207.723 94.302,207.291 L 94.302,207.291 C 93.402,209.991 92.682,211.647 91.998,212.547 C 91.35,213.411 91.134,213.519 90.09,212.331 C 88.938,211.035 87.39,208.515 84.87,204.771 C 82.098,200.884 78.282,194.295 74.394,189.472 C 70.506,184.647 66.294,180.111 61.614,175.863 L 61.614,175.863 z "
   style="fill:#ffffff;fill-rule:evenodd;stroke:#000000;stroke-width:0.036;stroke-miterlimit:10"
   id="path13" />
	<path
   d="M 156.33,170.823 L 157.77,171.255 L 157.77,171.255 C 158.669,173.596 158.598,176.907 157.158,181.732 C 155.682,186.52 152.73,192.928 149.418,199.552 C 145.962,206.067 140.67,214.023 137.034,220.503 C 133.326,226.767 130.303,231.771 127.387,237.459 C 124.435,243.219 121.662,248.655 119.215,254.451 L 119.215,254.451 C 117.486,246.891 116.046,240.447 115.038,234.543 C 113.958,228.639 113.31,223.707 112.95,219.459 L 112.95,219.459 C 113.958,218.019 115.002,216.615 116.082,215.247 C 117.091,213.771 118.135,212.511 119.215,211.071 L 119.215,211.071 C 119.431,211.755 119.719,212.259 120.078,212.727 C 120.366,213.159 120.69,213.771 121.339,213.591 C 121.878,213.267 121.878,213.375 123.859,210.855 C 125.767,208.155 129.727,202.468 133.255,198.075 C 136.746,193.575 141.57,188.355 144.811,184.647 C 147.871,180.939 150.21,178.059 152.119,175.863 C 154.099,173.559 155.322,171.831 156.33,170.823 L 156.33,170.823 z "
   style="fill:#ffffff;fill-rule:evenodd;stroke:#000000;stroke-width:0.036;stroke-miterlimit:10"
   id="path15" />
	<path
   d="M 58.267,178.167 C 55.711,179.823 53.587,181.299 51.355,182.991 C 49.159,184.647 47.179,186.123 45.271,187.815 L 45.271,187.815 C 47.215,192.567 48.907,197.031 50.491,201.207 C 51.967,205.419 52.903,208.983 54.703,212.727 C 56.467,216.363 58.627,219.747 61.183,223.023 L 61.183,223.023 C 61.795,223.743 62.911,224.175 64.531,224.463 C 66.115,224.643 68.167,224.643 70.831,224.463 L 70.831,224.463 C 71.443,225.759 71.839,227.667 71.875,230.331 C 71.911,232.959 71.695,236.199 71.227,240.195 L 71.227,240.195 C 71.911,241.815 73.783,244.983 76.699,249.843 C 79.651,254.739 85.087,263.703 88.831,269.103 C 92.395,274.287 95.563,278.067 98.479,281.271 C 101.395,284.547 103.771,286.743 106.039,288.399 L 106.039,288.399 L 107.911,283.575 L 107.911,283.575 C 103.159,277.383 98.803,270.867 94.699,263.883 C 90.523,256.827 87.211,250.203 83.395,241.671 C 79.399,232.959 75.439,222.339 71.659,212.727 C 67.771,203.008 63.019,190.047 60.751,184.251 C 58.482,178.418 57.654,176.439 58.267,178.167 L 58.267,178.167 z "
   style="fill:#294b70;fill-rule:evenodd;stroke:#000000;stroke-width:0.036;stroke-miterlimit:10"
   id="path17" />
	<path
   d="M 159.679,172.083 C 162.775,173.199 165.727,174.855 168.679,176.907 C 171.631,179.031 174.403,181.371 177.283,184.468 L 177.283,184.468 C 175.699,188.787 173.791,193.323 171.415,198.508 C 168.968,203.655 165.331,211.287 163.027,215.031 C 160.651,218.523 160.039,218.811 157.591,220.071 C 155.07,221.331 151.975,222.123 148.158,222.591 L 148.158,222.591 C 147.366,223.923 147.15,226.083 147.511,229.071 C 147.87,232.023 148.735,235.803 150.246,240.411 L 150.246,240.411 C 146.79,245.667 143.154,250.851 139.339,256.107 C 135.486,261.327 132.318,266.043 127.206,271.623 C 121.914,277.203 115.65,282.891 108.126,289.227 L 108.126,289.227 C 108.09,288.111 108.882,285.159 110.646,280.227 C 112.482,275.151 115.65,265.899 118.602,259.671 C 121.41,253.479 123.678,249.483 127.206,243.111 C 130.555,236.487 135.307,227.595 139.122,220.899 C 142.938,214.203 146.646,208.551 149.814,203.115 C 152.91,197.571 155.574,192.676 157.374,188.031 C 158.994,183.279 159.462,177.915 159.895,175.251 C 160.219,172.551 160.146,171.542 159.679,172.083 L 159.679,172.083 z "
   style="fill:#294b70;fill-rule:evenodd;stroke:#000000;stroke-width:0.036;stroke-miterlimit:10"
   id="path19" />
	<path
   d="M 37.386,112.467 C 37.314,116.391 37.962,120.71 39.186,125.571 C 40.374,130.359 42.138,136.263 44.622,141.483 C 47.07,146.63 49.842,151.922 53.478,156.675 C 56.97,161.498 60.966,165.71 65.61,169.706 C 70.182,173.486 75.186,176.978 81.198,179.498 C 87.246,182.019 94.842,183.891 101.466,184.574 C 107.982,185.042 114.102,184.502 120.114,182.954 C 126.091,181.298 131.958,178.814 137.286,175.502 C 142.507,172.082 147.294,167.042 151.255,163.011 C 154.927,158.87 157.555,155.271 160.11,151.095 C 162.702,146.883 164.934,142.491 166.806,138.063 C 168.606,133.563 170.01,128.523 171.161,124.455 C 172.241,120.351 172.961,116.787 173.321,113.619 L 173.321,113.619 C 174.365,114.123 175.697,114.375 177.317,114.375 C 178.937,114.339 181.169,114.411 182.897,113.476 C 184.553,112.396 185.993,110.884 187.073,108.4 C 188.01,105.879 188.729,101.92 188.693,98.463 C 188.549,94.791 187.505,90.075 186.533,87.232 C 185.453,84.423 184.229,82.696 182.718,81.616 C 181.062,80.464 179.081,80.32 177.318,80.356 C 175.554,80.32 173.97,80.572 172.422,81.255 L 172.422,81.255 C 173.358,77.692 173.358,73.371 172.422,67.863 C 171.377,62.355 169.577,55.155 166.625,48.495 C 163.493,41.727 157.661,32.547 154.674,27.76 C 151.686,23.043 151.65,22.251 149.13,19.947 C 146.609,17.499 143.73,15.015 139.661,13.323 C 135.485,11.415 130.409,10.083 124.577,9.327 C 118.638,8.428 111.833,8.247 104.705,8.931 C 97.397,9.578 88.901,11.091 81.737,14.006 C 74.501,16.958 68.093,21.351 62.369,26.498 C 56.537,31.574 51.641,37.803 47.681,44.066 C 43.685,50.15 40.877,58.286 38.825,63.074 C 36.629,67.754 36.017,69.626 35.189,72.29 C 34.361,74.99 34.001,76.971 34.109,78.626 C 34.217,80.103 34.577,80.895 35.585,81.147 L 35.585,81.147 C 33.101,80.967 31.157,81.506 29.609,82.623 C 28.025,83.703 27.125,85.539 26.333,87.844 C 25.397,90.112 24.461,92.848 24.353,96.196 C 24.281,99.508 24.389,104.8 25.793,107.608 C 27.089,110.236 30.329,111.82 32.309,112.648 C 34.291,113.367 35.838,113.439 37.386,112.467 L 37.386,112.467 z "
   style="fill-rule:evenodd;stroke:#000000;stroke-width:0.036;stroke-miterlimit:10"
   id="path21" />
	<path
   d="M 41.707,81.327 C 44.011,80.103 46.495,78.483 49.159,76.468 C 51.751,74.344 54.991,71.68 57.475,69.052 C 59.923,66.171 61.867,63.003 63.451,60.52 C 64.855,58.144 65.647,56.164 65.971,54.724 L 65.971,54.724 C 71.767,56.2 77.167,57.028 82.459,57.64 C 87.751,57.999 92.755,57.963 97.471,57.82 C 102.043,57.676 105.499,57.856 109.783,57.1 C 114.031,56.272 118.639,54.472 122.636,53.104 C 126.524,51.627 129.764,50.44 132.787,48.568 C 135.667,46.588 137.972,44.392 139.844,41.692 L 139.844,41.692 C 141.32,44.788 142.831,48.064 144.524,51.664 C 146.216,55.192 147.836,59.044 149.78,63.076 C 151.652,67.072 153.633,72.04 155.576,75.604 C 157.341,79.06 159.212,81.976 160.652,83.919 C 162.02,85.72 162.524,85.936 163.712,86.655 C 164.864,87.267 165.944,87.735 167.349,87.915 L 167.349,87.915 C 167.097,88.563 167.025,89.283 166.989,90.075 C 166.917,90.723 167.025,92.344 167.169,92.596 C 167.277,92.776 167.457,92.488 167.709,91.875 C 167.89,91.264 167.997,90.039 168.43,89.176 C 168.789,88.167 169.329,87.196 170.049,86.26 C 170.661,85.215 171.562,84.064 172.606,83.379 C 173.578,82.623 174.837,82.012 176.386,81.94 C 177.862,81.724 180.274,81.544 181.822,82.66 C 183.334,83.776 184.738,86.296 185.638,88.816 C 186.358,91.192 186.718,93.963 186.718,97.131 C 186.753,100.228 186.394,104.728 185.638,107.283 C 184.774,109.623 183.333,111.136 181.461,111.963 C 179.445,112.791 175.917,112.972 174.226,112.359 C 172.534,111.639 171.742,108.759 171.165,108.183 C 170.409,107.607 170.193,108.038 170.229,108.903 C 170.193,109.623 171.453,110.631 171.525,112.899 C 171.561,115.095 171.417,117.723 170.409,122.295 C 169.185,126.795 167.277,134.176 164.829,139.72 C 162.309,145.192 159.285,150.159 155.901,154.911 C 152.553,159.556 149.025,163.804 144.633,167.8 C 140.061,171.724 134.12,175.9 128.901,178.528 C 123.573,180.976 119.109,182.416 113.169,182.992 C 107.049,183.568 99.345,183.244 93.117,182.02 C 86.781,180.652 81.525,178.348 75.981,175.108 C 70.401,171.724 64.641,167.116 60.069,162.255 C 55.425,157.251 51.609,150.951 48.621,145.839 C 45.597,140.619 43.725,135.94 42.177,131.512 C 40.485,126.94 39.549,122.692 38.973,119.344 C 38.361,116.031 38.253,113.404 38.649,111.604 L 38.649,111.604 C 39.729,110.379 40.557,109.335 40.989,108.328 C 41.421,107.248 41.349,105.557 41.169,105.593 C 40.809,105.521 40.161,107.357 39.369,108.328 C 38.541,109.265 37.569,110.885 36.309,111.389 C 34.761,111.712 32.781,111.712 31.053,110.849 C 29.289,109.912 27.453,108.328 26.517,105.953 C 25.545,103.577 25.293,99.725 25.617,96.737 C 25.833,93.569 26.841,89.897 27.957,87.665 C 29.001,85.361 30.477,84.353 31.953,83.525 C 33.321,82.661 35.049,82.877 36.309,82.805 C 37.353,82.66 37.965,82.517 38.829,82.805 C 39.837,82.949 40.845,83.237 41.709,84.065 C 42.393,84.749 42.645,87.233 43.005,87.485 C 43.257,87.629 43.509,86.513 43.365,85.505 C 43.11,84.422 42.606,83.126 41.707,81.327 L 41.707,81.327 z "
   style="fill:#e8cdba;fill-rule:evenodd;stroke:#000000;stroke-width:0.036;stroke-miterlimit:10"
   id="path23" />
	<path
   d="M 32.13,95.294 C 32.382,94.179 32.67,92.45 33.39,91.479 C 34.074,90.471 34.974,89.355 35.946,88.958 C 36.702,88.418 37.674,87.77 38.466,88.418 C 39.15,89.03 40.518,91.515 40.626,92.378 C 40.698,93.026 39.366,93.099 39.006,92.738 C 38.502,92.198 38.322,90.47 37.926,90.038 C 37.458,89.534 36.81,89.498 36.126,90.219 C 35.406,90.866 33.75,92.739 33.39,94.179 C 32.886,95.511 32.922,97.383 33.21,98.534 C 33.354,99.614 33.822,100.334 34.47,100.694 C 35.082,100.874 36.63,99.866 37.026,100.154 C 37.314,100.442 37.026,101.81 36.306,102.17 C 35.514,102.351 33.138,102.315 32.49,101.63 C 31.698,100.838 31.986,99.074 31.95,97.994 C 31.771,96.951 31.878,96.231 32.13,95.294 L 32.13,95.294 z "
   style="fill-rule:evenodd;stroke:#000000;stroke-width:0.036;stroke-miterlimit:10"
   id="path25" />
	<path
   d="M 180.522,98.607 C 180.377,97.419 180.234,95.727 179.802,94.647 C 179.226,93.387 178.47,92.378 177.678,91.767 C 176.957,91.191 176.058,90.29 175.266,90.867 C 174.329,91.299 172.674,93.747 172.53,94.468 C 172.278,95.152 173.538,95.404 174.078,95.079 C 174.546,94.647 174.942,92.884 175.555,92.559 C 176.023,92.091 176.706,92.235 177.319,92.991 C 177.931,93.783 179.083,95.835 179.407,97.347 C 179.623,98.75 179.3,100.515 178.975,101.666 C 178.579,102.603 178.002,103.431 177.391,103.61 C 176.67,103.61 175.267,102.566 174.979,102.71 C 174.619,102.891 174.619,104.366 175.375,104.798 C 176.06,105.051 178.363,105.374 179.228,104.798 C 179.948,104.114 180.127,102.351 180.308,101.307 C 180.522,100.334 180.595,99.579 180.522,98.607 L 180.522,98.607 z "
   style="fill-rule:evenodd;stroke:#000000;stroke-width:0.036;stroke-miterlimit:10"
   id="path27" />
	<path
   d="M 176.202,95.115 C 176.058,95.475 177.03,96.951 177.318,97.995 C 177.462,99.003 177.534,100.731 177.678,101.092 C 177.858,101.272 178.289,100.299 178.398,99.436 C 178.398,98.499 177.966,96.52 177.678,95.835 C 177.282,95.042 176.238,94.754 176.202,95.115 L 176.202,95.115 z "
   style="fill-rule:evenodd;stroke:#000000;stroke-width:0.036;stroke-miterlimit:10"
   id="path29" />
	<path
   d="M 92.214,86.583 C 92.214,88.995 94.158,90.939 96.57,90.939 C 98.982,90.939 100.926,88.995 100.926,86.583 C 100.926,84.207 98.982,82.264 96.57,82.264 C 94.158,82.264 92.214,84.207 92.214,86.583 L 92.214,86.583 z "
   style="fill-rule:evenodd;stroke:#000000;stroke-width:0.036;stroke-miterlimit:10"
   id="path31" />
	<path
   d="M 109.782,86.763 C 109.782,89.175 111.726,91.118 114.138,91.118 C 116.514,91.118 118.457,89.175 118.457,86.763 C 118.457,84.387 116.514,82.443 114.138,82.443 C 111.727,82.443 109.782,84.387 109.782,86.763 L 109.782,86.763 z "
   style="fill-rule:evenodd;stroke:#000000;stroke-width:0.036;stroke-miterlimit:10"
   id="path33" />
	<path
   d="M 87.174,75.17 C 88.434,74.63 91.566,74.019 94.05,73.731 C 96.318,73.335 100.53,73.263 101.286,73.371 C 101.97,73.479 100.962,73.839 98.55,74.451 C 95.994,74.955 88.686,76.323 86.778,76.468 C 84.906,76.502 85.878,75.567 87.174,75.17 L 87.174,75.17 z "
   style="fill-rule:evenodd;stroke:#000000;stroke-width:0.036;stroke-miterlimit:10"
   id="path35" />
	<path
   d="M 115.183,74.487 C 116.407,74.523 119.79,74.955 122.131,75.639 C 124.471,76.179 128.25,77.546 129.007,77.943 C 129.582,78.267 128.467,78.375 126.055,77.979 C 123.498,77.475 116.191,76.107 114.391,75.531 C 112.519,74.955 113.887,74.378 115.183,74.487 L 115.183,74.487 z "
   style="fill-rule:evenodd;stroke:#000000;stroke-width:0.036;stroke-miterlimit:10"
   id="path37" />
	<path
   d="M 68.167,58.827 C 69.355,59.367 72.523,59.871 75.043,60.483 C 77.455,60.987 81.559,61.491 82.639,61.563 C 83.467,61.347 82.603,60.591 81.019,60.123 C 79.435,59.727 75.547,59.547 73.387,59.187 C 71.119,58.719 68.851,57.531 67.987,57.567 C 66.942,57.495 67.05,58.287 68.167,58.827 L 68.167,58.827 z "
   style="fill-rule:evenodd;stroke:#000000;stroke-width:0.036;stroke-miterlimit:10"
   id="path39" />
	<path
   d="M 140.742,52.491 C 141.246,54.147 142.182,56.955 143.263,58.827 C 144.091,60.556 146.034,63.039 146.179,62.823 C 146.143,62.427 144.954,58.899 143.983,56.667 C 142.867,54.327 141.211,49.503 140.563,48.855 C 140.059,48.17 140.166,50.727 140.742,52.491 L 140.742,52.491 z "
   style="fill-rule:evenodd;stroke:#000000;stroke-width:0.036;stroke-miterlimit:10"
   id="path41" />
	<path
   d="M 84.079,61.023 C 84.079,61.311 84.763,61.563 85.627,61.563 C 86.455,61.563 87.175,61.311 87.175,61.023 C 87.175,60.699 86.455,60.483 85.627,60.483 C 84.762,60.483 84.079,60.699 84.079,61.023 L 84.079,61.023 z "
   style="fill-rule:evenodd;stroke:#000000;stroke-width:0.036;stroke-miterlimit:10"
   id="path43" />
	<path
   d="M 146.971,64.191 C 146.683,64.335 146.826,65.055 147.223,65.775 C 147.655,66.531 148.195,66.999 148.447,66.855 C 148.699,66.71 148.592,65.991 148.195,65.271 C 147.763,64.515 147.223,64.046 146.971,64.191 L 146.971,64.191 z "
   style="fill-rule:evenodd;stroke:#000000;stroke-width:0.036;stroke-miterlimit:10"
   id="path45" />
	<path
   d="M 76.123,129.999 L 77.743,129.279 L 77.743,129.279 C 78.319,132.592 79.291,135.723 80.659,138.675 C 81.883,141.591 83.575,144.399 85.879,146.811 C 88.219,149.079 91.027,150.951 94.591,152.427 C 98.119,153.794 102.547,155.595 106.903,155.343 C 111.115,154.947 116.191,152.822 119.756,150.626 C 123.14,148.431 125.695,145.046 127.711,142.13 C 129.655,138.962 130.699,135.254 131.671,132.519 C 132.535,129.783 133.184,127.551 133.327,125.823 L 133.327,125.823 L 135.487,126.003 L 135.487,126.003 C 134.407,129.783 133.183,133.455 131.671,136.875 C 130.195,140.367 128.503,143.751 126.451,146.631 C 124.327,149.44 121.915,151.491 118.639,153.327 C 115.219,154.947 110.359,156.459 106.147,156.603 C 101.863,156.603 97.075,155.847 93.151,153.903 C 89.083,151.851 84.907,148.287 82.279,145.011 C 79.615,141.771 78.355,137.126 77.383,134.679 C 76.338,132.123 75.871,130.611 76.123,129.999 L 76.123,129.999 z "
   style="fill-rule:evenodd;stroke:#000000;stroke-width:0.036;stroke-miterlimit:10"
   id="path47" />
	<path
   d="M 74.502,129.819 C 75.51,129.207 76.59,128.919 77.742,128.559 C 78.93,128.09 81.414,126.759 81.738,127.082 C 81.99,127.334 80.442,128.954 79.182,129.998 C 77.67,130.971 74.97,132.194 73.566,132.698 C 72.162,132.986 70.614,132.626 70.866,132.158 C 71.046,131.583 73.278,130.431 74.502,129.819 L 74.502,129.819 z "
   style="fill-rule:evenodd;stroke:#000000;stroke-width:0.036;stroke-miterlimit:10"
   id="path49" />
	<path
   d="M 136.53,125.462 C 135.234,125.21 134.262,124.887 133.074,124.887 C 131.67,124.491 129.078,124.095 128.898,124.275 C 128.718,124.563 130.338,125.859 131.958,126.615 C 133.398,127.263 136.566,127.947 138.007,128.091 C 139.483,128.091 140.706,127.407 140.563,127.012 C 140.238,126.542 137.79,125.75 136.53,125.462 L 136.53,125.462 z "
   style="fill-rule:evenodd;stroke:#000000;stroke-width:0.036;stroke-miterlimit:10"
   id="path51" />
	<path
   d="M 64.926,54.219 C 64.206,56.487 62.982,58.574 61.65,60.878 C 60.21,63.11 58.698,64.946 56.43,67.502 C 53.982,69.878 50.13,73.334 47.394,75.53 C 44.514,77.654 41.85,79.634 39.942,80.354 C 37.962,80.966 36.594,80.354 35.982,79.346 C 35.298,78.194 35.766,76.501 36.414,73.837 C 36.99,71.102 37.89,67.573 39.798,63.109 C 41.706,58.501 44.478,51.841 47.682,46.729 C 50.742,41.437 54.126,36.649 58.266,32.221 C 62.298,27.685 66.906,23.58 72.09,20.341 C 77.202,17.101 82.386,14.832 88.614,13.141 C 94.698,11.376 102.582,10.297 108.522,9.901 C 114.318,9.433 118.746,9.865 123.75,10.621 C 128.574,11.197 133.65,11.953 138.007,14.005 C 142.399,15.985 146.538,19.693 149.599,22.898 C 152.407,25.994 153.595,29.234 155.683,32.762 C 157.878,36.289 160.363,40.285 162.307,43.778 C 164.107,47.054 165.042,48.818 166.519,52.67 C 167.851,56.486 169.723,62.391 170.623,66.494 C 171.415,70.418 171.56,73.478 171.596,76.25 C 171.56,78.914 171.415,81.074 170.768,82.73 C 169.976,84.314 169.076,85.718 167.671,85.97 C 166.232,86.005 164.539,85.718 162.596,83.594 C 160.508,81.325 158.384,77.329 156.079,73.01 C 153.775,68.51 151.472,63.146 149.023,57.602 C 146.431,52.058 143.947,46.406 141.139,40.249 L 141.139,40.249 C 142.29,38.449 143.082,36.289 143.515,33.625 C 143.874,30.781 143.695,25.453 143.659,24.157 C 143.515,22.969 143.191,24.697 142.975,26.281 C 142.651,27.829 142.867,30.313 142.255,32.905 C 141.57,35.389 140.815,38.449 139.015,41.113 C 136.998,43.561 134.767,45.721 130.807,47.882 C 126.666,49.97 120.151,52.489 115.002,53.93 C 109.818,55.298 105.534,55.73 100.207,56.198 C 94.771,56.45 88.003,56.306 82.963,56.054 C 77.887,55.837 73.747,55.369 70.399,54.65 C 67.051,53.642 64.819,52.346 62.731,50.906 C 60.427,49.322 57.691,46.551 57.007,46.19 C 56.287,45.902 57.691,48.314 58.447,49.25 C 59.095,50.006 60.031,50.402 61.111,51.267 C 62.19,52.023 63.415,53.103 64.926,54.219 L 64.926,54.219 z "
   style="fill:#78605c;fill-rule:evenodd;stroke:#000000;stroke-width:0.036;stroke-miterlimit:10"
   id="path53" />
	<path
   d="M 46.026,72.794 C 46.494,71.931 49.446,70.202 50.85,69.015 C 52.11,67.863 52.866,67.143 54.234,65.739 C 55.602,64.155 58.41,60.519 59.166,60.123 C 59.67,59.691 59.202,61.743 58.194,63.22 C 57.114,64.696 55.134,66.856 53.37,68.728 C 51.57,70.528 49.086,72.868 47.862,73.66 C 46.566,74.199 45.486,73.586 46.026,72.794 L 46.026,72.794 z "
   style="fill-rule:evenodd;stroke:#000000;stroke-width:0.036;stroke-miterlimit:10"
   id="path55" />
	<path
   d="M 43.074,75.603 C 43.182,75.819 43.758,75.675 44.334,75.279 C 44.91,74.919 45.27,74.451 45.126,74.235 C 45.018,74.055 44.442,74.199 43.866,74.559 C 43.291,74.955 42.93,75.422 43.074,75.603 L 43.074,75.603 z "
   style="fill-rule:evenodd;stroke:#000000;stroke-width:0.036;stroke-miterlimit:10"
   id="path57" />
	<path
   d="M 64.351,47.487 C 65.395,48.315 68.527,50.007 71.119,51.159 C 73.495,52.096 76.267,53.031 79.435,53.571 C 82.603,54.003 88.867,54.183 90.307,54.111 C 91.675,53.931 89.587,53.427 87.786,53.139 C 85.842,52.887 81.846,52.743 79.29,52.418 C 76.626,51.843 74.502,51.194 72.522,50.475 C 70.542,49.754 68.994,48.998 67.734,48.351 C 66.402,47.666 65.322,46.551 64.782,46.515 C 64.17,46.334 63.234,46.659 64.351,47.487 L 64.351,47.487 z "
   style="fill-rule:evenodd;stroke:#000000;stroke-width:0.036;stroke-miterlimit:10"
   id="path59" />
	<path
   d="M 76.194,48.891 C 76.338,49.467 77.454,51.483 78.174,52.418 C 78.822,53.318 79.758,54.038 80.01,54.002 C 80.118,53.822 79.29,52.418 78.894,51.59 C 78.318,50.691 77.85,49.143 77.346,48.746 C 76.878,48.243 75.979,48.243 76.194,48.891 L 76.194,48.891 z "
   style="fill-rule:evenodd;stroke:#000000;stroke-width:0.036;stroke-miterlimit:10"
   id="path61" />
	<path
   d="M 73.386,49.754 C 73.314,50.114 73.962,51.194 74.502,51.878 C 74.934,52.418 76.194,53.534 76.338,53.427 C 76.446,53.21 75.474,51.626 75.222,51.015 C 74.97,50.367 74.682,49.719 74.502,49.611 C 74.178,49.359 73.351,49.359 73.386,49.754 L 73.386,49.754 z "
   style="fill-rule:evenodd;stroke:#000000;stroke-width:0.036;stroke-miterlimit:10"
   id="path63" />
	<path
   d="M 106.687,51.267 C 108.883,50.151 115.759,48.099 119.683,46.479 C 123.535,44.859 126.918,43.203 129.834,41.655 C 132.57,39.963 134.874,38.271 136.603,37.011 C 138.331,35.571 139.411,34.49 140.275,34.059 C 141.067,33.735 141.679,33.914 141.283,34.743 C 140.743,35.428 138.907,36.831 137.323,38.127 C 135.703,39.279 133.867,40.648 131.527,42.087 C 129.079,43.491 125.839,45.363 122.779,46.875 C 119.575,48.279 115.543,49.684 112.771,50.691 C 109.891,51.59 107.119,52.527 106.111,52.67 C 105.03,52.707 104.382,52.239 106.687,51.267 L 106.687,51.267 z "
   style="fill-rule:evenodd;stroke:#000000;stroke-width:0.036;stroke-miterlimit:10"
   id="path65" />
	<path
   d="M 107.55,27.687 C 109.386,27.291 113.742,26.967 117.846,26.859 C 121.877,26.679 127.134,26.679 131.094,27.003 C 134.873,27.22 138.906,28.012 140.562,28.552 C 142.11,29.056 141.606,29.991 140.706,30.1 C 139.734,30.1 137.431,29.127 134.767,28.839 C 131.923,28.516 127.746,28.228 124.327,28.264 C 120.871,28.264 117.307,28.408 114.463,28.696 C 111.44,28.804 108.524,29.164 107.263,29.092 C 106.146,28.911 105.643,27.975 107.55,27.687 L 107.55,27.687 z "
   style="fill-rule:evenodd;stroke:#000000;stroke-width:0.036;stroke-miterlimit:10"
   id="path67" />
	<path
   d="M 111.475,14.834 C 113.418,15.519 122.023,16.599 126.739,18.219 C 131.419,19.838 137.179,23.727 139.592,24.735 C 141.896,25.599 141.535,24.519 140.852,23.871 C 140.06,23.043 137.9,21.963 135.344,20.631 C 132.68,19.228 128.827,17.499 125.444,16.276 C 121.88,15.016 117.236,13.972 114.86,13.72 C 112.482,13.431 109.458,14.079 111.475,14.834 L 111.475,14.834 z "
   style="fill-rule:evenodd;stroke:#000000;stroke-width:0.036;stroke-miterlimit:10"
   id="path69" />
	<path
   d="M 145.206,28.263 C 145.818,29.378 149.418,32.511 151.002,34.599 C 152.622,36.615 153.702,39.422 154.675,40.395 C 155.395,41.294 156.366,41.151 155.935,40.107 C 155.395,38.955 153.703,35.823 152.119,33.771 C 150.499,31.647 147.8,28.695 146.647,27.831 C 145.387,26.823 144.486,27.111 145.206,28.263 L 145.206,28.263 z "
   style="fill-rule:evenodd;stroke:#000000;stroke-width:0.036;stroke-miterlimit:10"
   id="path71" />
	<path
   d="M 145.639,36.291 C 146.323,36.867 148.662,40.287 150.031,42.808 C 151.256,45.255 152.191,48.676 152.84,50.692 C 153.236,52.384 153.092,53.644 152.984,54.076 C 152.84,54.724 152.84,54.868 152.408,53.932 C 151.94,52.78 151.184,49.648 150.284,47.308 C 149.133,44.824 147.224,41.224 146.36,39.423 C 145.494,37.443 145.063,35.75 145.639,36.291 L 145.639,36.291 z "
   style="fill-rule:evenodd;stroke:#000000;stroke-width:0.036;stroke-miterlimit:10"
   id="path73" />
	<path
   d="M 158.635,74.703 C 159.139,75.819 161.011,79.131 162.307,80.751 C 163.423,82.155 164.647,83.056 165.546,83.451 C 166.374,83.667 166.986,82.911 167.095,82.731 C 167.059,82.515 166.086,82.695 165.546,82.298 C 164.862,81.794 164.107,81.002 163.423,80.067 C 162.631,78.987 161.731,77.439 161.154,76.395 C 160.47,75.387 160.002,74.307 159.606,74.126 C 159.03,73.767 158.238,73.586 158.635,74.703 L 158.635,74.703 z "
   style="fill-rule:evenodd;stroke:#000000;stroke-width:0.036;stroke-miterlimit:10"
   id="path75" />
	<path
   d="M 167.814,82.551 C 167.994,82.731 168.534,82.479 169.038,82.011 C 169.542,81.542 169.794,81.038 169.614,80.859 C 169.47,80.679 168.93,80.931 168.426,81.399 C 167.922,81.867 167.67,82.371 167.814,82.551 L 167.814,82.551 z "
   style="fill-rule:evenodd;stroke:#000000;stroke-width:0.036;stroke-miterlimit:10"
   id="path77" />
	<path
   d="M 139.591,18.903 C 139.698,17.355 140.67,14.223 140.994,11.847 C 141.21,9.471 140.418,6.338 140.706,5.078 C 140.887,3.854 141.822,3.566 142.255,4.214 C 142.542,4.79 142.83,6.338 142.83,8.318 C 142.794,10.226 142.65,13.466 142.255,15.518 C 141.786,17.461 140.994,19.514 140.563,20.162 C 140.095,20.63 139.446,20.343 139.591,18.903 L 139.591,18.903 z "
   style="fill-rule:evenodd;stroke:#000000;stroke-width:0.036;stroke-miterlimit:10"
   id="path79" />
	<path
   d="M 143.118,20.019 C 144.018,18.687 147.33,16.023 149.166,13.971 C 150.931,11.739 152.299,9.578 153.559,7.347 C 154.603,4.971 155.395,1.37 156.079,0.435 C 156.727,-0.573 157.987,0.363 157.771,1.983 C 157.375,3.639 155.827,7.383 154.243,10.299 C 152.695,13.07 150.031,16.49 148.34,18.471 C 146.503,20.343 144.344,21.567 143.516,21.855 C 142.542,21.962 142.219,21.351 143.118,20.019 L 143.118,20.019 z "
   style="fill-rule:evenodd;stroke:#000000;stroke-width:0.036;stroke-miterlimit:10"
   id="path81" />
	<path
   d="M 147.475,22.719 C 148.231,21.855 150.103,19.803 152.263,19.046 C 154.279,18.254 158.815,17.931 160.038,18.074 C 161.19,18.182 160.398,19.299 159.318,19.766 C 158.094,20.125 154.926,19.514 153.27,20.306 C 151.506,20.953 150.138,23.329 149.166,23.978 C 148.158,24.518 147.546,24.014 147.33,23.833 C 146.971,23.619 146.646,23.439 147.475,22.719 L 147.475,22.719 z "
   style="fill-rule:evenodd;stroke:#000000;stroke-width:0.036;stroke-miterlimit:10"
   id="path83" />
	<path
   d="M 81.342,175.827 C 82.314,176.512 84.834,177.951 87.246,178.888 C 89.586,179.751 92.682,180.507 95.274,181.012 C 97.794,181.408 101.034,181.839 102.078,181.732 C 102.942,181.552 102.006,180.652 100.638,180.292 C 98.982,179.86 95.85,179.788 93.33,179.248 C 90.738,178.528 87.966,177.305 85.986,176.548 C 84.006,175.649 82.242,174.569 81.522,174.424 C 80.73,174.315 80.298,174.962 81.342,175.827 L 81.342,175.827 z "
   style="fill-rule:evenodd;stroke:#000000;stroke-width:0.036;stroke-miterlimit:10"
   id="path85" />
	<path
   d="M 104.238,180.687 C 104.058,180.687 103.662,181.119 103.878,181.443 C 103.95,181.587 104.526,182.127 104.778,182.091 C 105.03,182.019 105.246,181.227 105.282,181.082 C 105.066,180.759 104.526,180.579 104.238,180.687 L 104.238,180.687 z "
   style="fill-rule:evenodd;stroke:#000000;stroke-width:0.036;stroke-miterlimit:10"
   id="path87" />
	<path
   d="M 78.678,172.443 C 78.354,172.515 78.174,172.911 78.282,173.235 C 78.246,173.379 78.966,173.919 79.182,173.883 C 79.398,173.775 79.722,173.055 79.722,172.838 C 79.506,172.515 78.966,172.334 78.678,172.443 L 78.678,172.443 z "
   style="fill-rule:evenodd;stroke:#000000;stroke-width:0.036;stroke-miterlimit:10"
   id="path89" />
	<path
   d="M 43.218,188.787 C 38.97,189.76 35.046,191.199 31.158,193.107 C 27.198,194.798 23.346,196.743 20.178,199.911 C 16.974,203.043 14.994,205.599 12.438,212.295 C 9.738,219.027 6.282,230.763 4.554,240.015 C 2.79,249.195 2.43,258.447 2.214,266.943 C 1.962,275.367 2.502,283.719 3.15,290.199 C 3.654,296.571 3.978,300.351 5.49,305.031 C 6.894,309.567 9.522,313.383 11.826,317.739 C 14.022,321.988 16.074,325.623 18.954,330.736 C 21.726,335.848 24.966,341.536 28.674,348.196 L 28.674,348.196 C 31.23,344.704 33.858,341.717 36.414,339.377 C 38.97,336.965 41.13,335.309 44.01,333.977 C 46.746,332.501 49.734,331.421 52.974,330.737 L 52.974,330.737 C 52.146,327.462 51.102,323.177 49.41,317.74 C 47.754,312.196 44.478,303.52 43.074,298.228 C 41.526,292.9 41.202,288.652 40.446,286.168 C 39.654,283.684 39.906,283.9 38.286,283.36 C 36.378,282.676 31.23,282.46 30.222,282.136 C 29.25,281.632 31.374,280.84 32.85,280.732 C 34.362,280.66 37.494,281.236 38.898,281.2 C 40.05,280.948 39.87,281.128 40.302,279.508 C 40.626,277.744 40.842,273.388 41.382,271.012 C 41.85,268.6 42.57,266.908 43.542,265.108 C 44.442,263.164 46.098,261.364 47.106,259.708 C 48.006,257.98 48.906,256.432 49.41,254.92 L 49.41,254.92 C 48.474,254.128 47.466,253.012 46.782,251.428 C 45.918,249.772 44.73,246.28 44.766,245.524 C 44.73,244.768 46.098,246.064 46.782,247.072 C 47.43,248.116 47.538,250.168 48.654,251.428 C 49.734,252.508 51.822,253.048 52.974,253.588 C 53.838,253.948 53.514,254.02 54.522,254.2 C 55.494,254.344 58.986,254.128 59.31,254.524 C 59.49,254.848 57.618,255.964 56.214,256.216 C 54.81,256.324 53.01,256.216 50.958,255.604 L 50.958,255.604 C 50.454,257.764 49.59,259.816 48.51,261.616 C 47.322,263.308 45.234,264.316 44.334,266.44 C 43.398,268.6 43.254,272.056 43.074,274.324 C 42.75,276.34 42.966,277.996 42.606,279.292 C 42.138,280.516 40.878,281.308 40.77,282.208 C 40.626,283 41.454,282.424 41.994,284.368 C 42.318,286.204 42.462,289.156 43.542,293.368 C 44.622,297.436 47.106,304.312 48.654,308.992 C 50.022,313.564 51.21,317.596 52.218,320.944 C 53.082,324.22 53.946,326.669 54.378,328.684 C 54.774,330.663 54.774,331.96 54.522,332.716 L 54.522,332.716 C 54.054,333.724 54.45,334.623 55.314,335.955 C 56.178,337.18 58.554,338.296 59.958,339.987 C 61.11,341.535 62.046,343.191 63.198,345.531 C 64.35,347.8 65.862,351.363 67.05,353.739 C 68.166,356.079 69.75,357.483 70.146,359.319 C 70.398,361.048 70.542,363.099 69.066,363.964 C 67.59,364.648 64.962,364.539 61.326,363.64 L 61.326,363.64 C 62.874,364.864 63.558,365.871 63.81,367.203 C 63.99,368.464 63.846,369.975 62.262,370.911 C 60.606,371.668 57.87,372.027 53.91,371.991 L 53.91,371.991 L 54.054,379.443 L 54.054,379.443 C 55.206,379.263 56.61,379.263 58.554,379.443 C 60.426,379.623 62.694,379.983 65.358,380.523 L 65.358,380.523 L 65.358,391.035 L 65.358,391.035 C 70.83,390.639 75.582,390.388 79.758,390.424 C 83.862,390.388 86.994,391 89.982,390.892 C 92.826,390.676 94.374,391.504 97.398,389.344 C 100.458,387.004 104.022,383.26 108.234,377.572 L 108.234,377.572 C 105.534,369.472 103.806,360.833 102.654,351.257 C 101.466,341.609 101.106,330.557 101.574,320.477 C 102.042,310.325 103.23,300.497 105.282,290.705 L 105.282,290.705 C 101.502,287.501 97.794,283.721 94.158,279.221 C 90.486,274.685 87.39,270.185 83.322,263.777 C 79.074,257.261 74.61,249.521 69.39,240.413 L 69.39,240.413 C 69.786,237.533 70.038,234.941 70.146,232.493 C 70.182,229.973 70.182,227.885 70.002,225.833 L 70.002,225.833 C 67.806,226.373 65.898,226.445 64.134,226.049 C 62.406,225.581 60.858,224.789 59.49,223.241 C 57.978,221.549 56.574,219.137 55.134,216.293 C 53.622,213.305 52.398,210.353 50.49,205.781 C 48.475,201.063 46.099,195.626 43.218,188.787 L 43.218,188.787 z "
   style="fill:#294b70;fill-rule:evenodd;stroke:#000000;stroke-width:0.036;stroke-miterlimit:10"
   id="path91" />
	<path
   d="M 179.37,185.475 C 182.646,185.619 185.958,186.303 189.45,187.383 C 192.978,188.319 196.83,189.399 199.89,191.99 C 202.625,194.546 204.245,197.75 206.694,203.259 C 209.25,208.73 212.31,218.09 214.902,224.967 C 217.386,231.807 219.978,238.971 221.418,244.119 C 222.715,249.087 222.895,251.031 222.931,255.387 C 222.823,259.671 222.715,263.019 221.239,270.435 C 219.655,277.887 216.163,291.207 214.075,299.991 C 211.915,308.775 210.655,314.283 208.747,322.491 C 206.84,330.555 204.751,338.979 202.627,348.159 L 202.627,348.159 C 201.439,344.955 199.604,341.968 196.976,338.907 C 194.348,335.811 190.388,332.103 187.039,330.015 C 183.583,327.783 178.291,327.963 176.455,326.091 C 174.583,324.147 175.267,322.202 175.592,318.746 C 175.808,315.146 176.491,309.71 177.644,305.066 C 178.58,300.422 179.948,295.706 181.604,291.062 C 183.295,286.202 186.86,280.082 187.724,276.878 C 188.444,273.71 187.291,273.602 186.211,272.09 C 185.06,270.434 182.756,268.886 181.243,267.302 C 179.587,265.646 177.787,264.062 176.815,262.55 C 175.843,261.038 175.519,259.742 175.447,258.122 C 175.34,256.286 176.023,252.866 175.951,252.146 C 175.735,251.318 174.512,252.47 174.223,253.658 C 173.935,254.774 174.187,257.294 173.719,258.986 C 172.998,260.534 171.414,261.362 170.479,263.414 C 169.507,265.358 168.391,269.822 168.247,271.118 C 168.14,272.27 168.968,271.874 169.615,270.758 C 170.119,269.498 170.515,265.754 171.344,264.098 C 172.028,262.406 173.035,261.434 174.079,261.038 L 174.079,261.038 C 174.8,262.838 175.771,264.35 177.14,265.97 C 178.4,267.554 180.596,268.85 181.928,270.254 C 183.152,271.37 184.556,272.126 185.024,273.494 C 185.384,274.826 185.456,275.942 184.664,278.642 C 183.765,281.342 181.641,285.914 180.236,289.73 C 178.832,293.402 177.572,296.246 176.456,301.178 C 175.268,306.182 173.792,315.038 173.396,319.142 C 173,322.994 173.251,323.534 173.72,324.938 C 174.043,326.378 174.512,327.098 175.268,327.494 L 175.268,327.494 C 174.547,328.61 173.468,329.69 172.171,330.591 C 170.732,331.419 168.716,331.563 167.239,332.967 C 165.691,334.406 165.079,336.999 163.459,338.943 C 161.695,340.743 158.527,341.787 157.304,343.731 C 156.008,345.603 155.827,348.123 155.936,349.887 C 155.9,351.435 156.368,352.622 157.484,353.307 C 158.636,353.954 160.112,353.883 162.452,353.487 L 162.452,353.487 C 162.452,354.027 161.948,354.495 161.084,355.179 C 160.004,355.683 157.664,356.187 156.98,357.231 C 156.26,358.311 156.404,360.111 156.98,361.515 C 157.556,362.811 158.671,364.323 160.04,364.935 C 161.301,365.403 162.776,364.971 164.324,364.755 C 165.801,364.503 167.24,363.999 168.788,363.387 L 168.788,363.387 C 169.004,365.439 169.473,366.807 170.48,367.491 C 171.452,368.067 173.18,367.887 174.404,367.491 C 175.52,367.059 176.492,366.267 177.32,365.115 L 177.32,365.115 C 177.824,365.584 178.544,365.979 179.192,366.303 C 179.912,366.627 180.56,366.807 181.424,366.987 L 181.424,366.987 C 180.955,370.371 180.596,373.611 180.056,376.563 C 179.516,379.551 179.587,382.251 178.327,384.663 C 176.959,386.895 176.348,388.767 172.171,390.136 C 167.816,391.36 160.22,392.152 152.875,392.367 C 145.459,392.548 134.947,392.403 128.432,391.504 C 121.952,390.604 117.272,389.02 114.247,386.896 L 114.247,386.896 C 111.511,380.992 109.423,374.152 107.587,366.376 C 105.715,358.384 104.023,349.42 103.483,340.06 C 102.871,330.664 103.375,319.215 104.167,311.007 C 104.815,302.799 106.111,296.139 107.767,291.027 L 107.767,291.027 C 111.115,289.083 114.715,286.455 118.71,282.999 C 122.67,279.471 127.206,274.971 131.347,270.183 C 135.451,265.323 139.122,259.023 142.794,254.055 C 146.322,249.051 149.311,244.335 152.19,240.051 L 152.19,240.051 C 151.002,235.731 150.102,232.491 149.634,229.791 C 149.13,227.127 148.913,225.255 149.13,224.175 L 149.13,224.175 C 152.262,224.211 154.997,223.527 157.482,222.267 C 159.858,220.971 161.514,219.675 163.818,216.291 C 166.086,212.655 168.534,206.391 171.162,201.243 C 173.719,196.023 176.454,190.911 179.37,185.475 L 179.37,185.475 z "
   style="fill:#294b70;fill-rule:evenodd;stroke:#000000;stroke-width:0.036;stroke-miterlimit:10"
   id="path93" />
	<path
   d="M 108.99,316.046 C 109.314,319.106 111.366,321.375 113.562,321.158 C 115.758,320.906 117.306,318.242 116.982,315.182 C 116.658,312.158 114.606,309.854 112.374,310.106 C 110.178,310.323 108.667,312.986 108.99,316.046 L 108.99,316.046 z "
   style="fill-rule:evenodd;stroke:#000000;stroke-width:0.036;stroke-miterlimit:10"
   id="path95" />
	<path
   d="M 110.214,316.442 C 110.43,318.35 111.726,319.79 113.131,319.646 C 114.498,319.502 115.471,317.81 115.255,315.902 C 115.074,313.958 113.778,312.518 112.374,312.662 C 110.97,312.843 110.034,314.499 110.214,316.442 L 110.214,316.442 z "
   style="fill:#294b70;fill-rule:evenodd;stroke:#000000;stroke-width:0.036;stroke-miterlimit:10"
   id="path97" />
	<path
   d="M 108.63,346.827 C 108.954,349.851 111.006,352.155 113.202,351.903 C 115.434,351.687 116.946,349.023 116.622,345.964 C 116.299,342.903 114.246,340.636 112.05,340.852 C 109.818,341.103 108.307,343.767 108.63,346.827 L 108.63,346.827 z "
   style="fill-rule:evenodd;stroke:#000000;stroke-width:0.036;stroke-miterlimit:10"
   id="path99" />
	<path
   d="M 109.891,347.187 C 110.071,349.131 111.367,350.571 112.771,350.427 C 114.175,350.246 115.111,348.591 114.931,346.647 C 114.715,344.739 113.418,343.299 112.014,343.443 C 110.646,343.587 109.674,345.279 109.891,347.187 L 109.891,347.187 z "
   style="fill:#294b70;fill-rule:evenodd;stroke:#000000;stroke-width:0.036;stroke-miterlimit:10"
   id="path101" />
	<path
   d="M 195.427,344.775 C 195.462,344.631 195.643,344.343 196.111,343.911 C 196.507,343.479 197.083,342.903 197.84,342.183 L 197.84,342.183 C 198.884,343.371 199.783,344.559 200.396,345.603 C 200.972,346.647 201.368,347.619 201.584,348.519 L 201.584,348.519 C 199.929,348.159 198.668,347.511 197.66,346.971 C 196.614,346.395 195.822,345.531 195.427,344.775 L 195.427,344.775 z "
   style="fill:#e0e0e0;fill-rule:evenodd;stroke:#000000;stroke-width:0.036;stroke-miterlimit:10"
   id="path103" />
	<path
   d="M 177.318,328.359 C 176.526,329.619 175.339,330.555 173.898,331.599 C 172.422,332.535 169.578,332.823 168.426,334.011 C 167.13,335.127 167.417,336.819 166.373,338.259 C 165.185,339.555 162.846,340.959 161.585,342.183 C 160.218,343.299 159.209,344.162 158.705,345.603 C 158.058,347.007 157.877,349.311 158.165,350.571 C 158.382,351.615 159.065,352.336 160.218,352.443 C 161.298,352.588 163.062,352.443 164.682,351.435 C 166.158,350.247 167.886,347.727 169.289,345.963 C 170.514,344.091 172.241,341.067 172.529,341.175 C 172.709,341.319 171.773,344.919 170.838,346.826 C 169.722,348.627 168.461,350.534 167.058,352.118 C 165.726,353.631 164.466,354.782 163.134,355.719 C 161.694,356.547 159.821,356.799 159.03,357.591 C 158.239,358.383 158.202,359.679 158.526,360.651 C 158.706,361.588 159.678,362.955 160.758,363.387 C 161.838,363.746 163.35,363.459 165.006,363.063 C 166.518,362.559 168.174,362.019 169.974,360.327 C 171.774,358.491 174.438,353.451 175.625,352.3 C 176.598,351.112 176.598,352.228 176.31,353.128 C 175.914,353.848 174.726,355.539 173.718,357.088 C 172.674,358.672 171.486,360.436 170.154,362.524 L 170.154,362.524 C 170.082,363.748 170.406,364.612 170.982,365.26 C 171.558,365.907 172.566,366.34 173.574,366.123 C 174.474,365.655 175.446,364.684 176.635,363.207 C 177.75,361.695 179.334,359.212 180.414,357.411 C 181.351,355.395 182.034,352.84 182.61,352.119 C 183.222,351.399 184.05,352.119 183.978,353.307 C 183.69,354.351 182.322,356.763 181.422,358.599 C 180.485,360.291 179.621,362.055 178.686,363.746 L 178.686,363.746 C 179.585,364.826 180.665,365.402 181.926,365.618 C 183.15,365.69 184.697,365.547 186.03,364.755 C 187.182,363.891 188.586,362.523 189.27,360.651 C 189.738,358.599 189.774,355.071 189.954,352.983 C 190.17,350.823 189.918,349.707 190.998,347.836 C 192.042,345.856 193.914,343.588 196.471,341.176 L 196.471,341.176 C 194.059,337.9 191.719,335.236 189.45,333.327 C 187.11,331.275 184.843,330.34 182.79,329.548 C 180.774,328.683 178.902,328.287 177.318,328.359 L 177.318,328.359 z "
   style="fill:#e8ccba;fill-rule:evenodd;stroke:#000000;stroke-width:0.036;stroke-miterlimit:10"
   id="path105" />
	<path
   d="M 34.975,343.551 C 35.551,344.631 36.055,345.963 36.487,347.835 C 36.811,349.671 37.243,352.118 37.351,354.351 C 37.279,356.547 37.207,358.851 36.991,360.831 C 36.811,362.595 36.271,363.927 36.487,365.259 C 36.595,366.555 37.171,367.599 38.215,368.534 C 39.223,369.398 40.699,369.974 42.643,370.406 L 42.643,370.406 C 42.823,366.518 43.291,363.386 44.191,360.47 C 45.055,357.59 46.675,354.098 47.935,353.306 C 49.123,352.514 50.311,353.666 51.355,355.358 C 52.183,356.87 53.155,360.291 53.587,362.702 C 54.019,365.078 54.235,367.419 54.091,369.723 L 54.091,369.723 C 55.603,370.155 56.971,370.37 58.195,370.227 C 59.347,370.011 60.931,369.795 61.435,369.039 C 61.795,368.14 61.687,366.987 61.111,365.439 C 60.535,363.855 59.239,361.227 58.195,359.787 C 57.079,358.203 55.783,357.267 54.451,356.548 L 54.451,356.548 C 54.631,355 54.343,353.308 53.587,351.615 C 52.759,349.815 50.491,347.296 49.843,346.143 C 49.015,344.883 48.943,343.983 49.483,344.415 C 50.059,344.738 52.399,346.467 53.587,348.339 C 54.631,350.211 55.531,352.406 56.143,355.359 L 56.143,355.359 C 57.835,357.376 59.275,358.923 60.607,360.147 C 61.831,361.299 62.695,361.947 64.027,362.379 C 65.323,362.738 68.059,363.206 68.635,362.379 C 69.067,361.406 68.239,359.03 67.267,356.906 C 66.151,354.711 64.063,351.831 62.803,349.383 C 61.615,346.791 61.507,344.019 60.247,342.183 C 58.771,340.383 56.107,340.167 54.775,338.619 C 53.551,337 52.687,335.056 52.579,332.643 L 52.579,332.643 C 49.555,332.895 46.639,333.867 43.687,335.703 C 40.771,337.539 37.818,340.059 34.975,343.551 L 34.975,343.551 z "
   style="fill:#e8ccba;fill-rule:evenodd;stroke:#000000;stroke-width:0.036;stroke-miterlimit:10"
   id="path107" />
	<path
   d="M 29.322,351.615 C 29.934,349.672 30.618,348.231 31.374,347.151 C 32.094,346.071 32.886,345.387 33.75,345.099 L 33.75,345.099 C 34.182,345.531 34.578,346.107 34.794,346.827 C 34.938,347.475 35.046,348.267 34.974,349.203 L 34.974,349.203 C 34.038,349.924 33.174,350.5 32.238,350.932 C 31.302,351.364 30.331,351.543 29.322,351.615 L 29.322,351.615 z "
   style="fill:#e0e0e0;fill-rule:evenodd;stroke:#000000;stroke-width:0.036;stroke-miterlimit:10"
   id="path109" />
	<path
   d="M 44.406,378.975 C 44.334,374.979 44.334,371.595 44.406,368.679 C 44.37,365.655 44.334,363.531 44.874,361.335 C 45.414,359.03 46.782,355.898 47.862,355.251 C 48.834,354.603 49.914,354.818 50.814,357.446 C 51.57,360.074 52.326,366.806 52.686,370.55 C 52.974,374.186 52.974,376.85 52.686,378.974 L 52.686,378.974 L 49.878,378.974 L 49.878,378.974 C 50.166,377.498 50.166,376.346 50.022,375.374 C 49.698,374.258 49.23,373.537 48.618,373.357 C 47.97,373.25 46.782,373.897 46.458,374.905 C 45.99,375.805 45.882,377.065 46.134,378.83 L 46.134,378.83 C 45.559,378.867 44.982,378.903 44.406,378.975 L 44.406,378.975 z "
   style="fill:#77605b;fill-rule:evenodd;stroke:#000000;stroke-width:0.036;stroke-miterlimit:10"
   id="path111" />
	<path
   d="M 33.318,383.187 C 35.982,382.431 39.006,381.819 42.39,381.495 C 45.774,380.991 49.59,380.775 53.298,380.848 C 56.934,380.955 60.246,381.424 63.774,382.252 L 63.774,382.252 C 63.126,390.172 62.442,399.567 61.722,411.268 C 60.822,422.932 59.814,441.796 59.238,451.48 C 58.698,460.876 58.626,461.92 58.446,468.076 C 58.122,474.268 57.762,480.892 57.366,488.381 L 57.366,488.381 C 52.614,488.74 48.294,488.813 44.262,488.992 C 40.158,489.064 36.594,489.064 33.174,488.992 L 33.174,488.992 C 32.202,471.713 31.626,457.06 31.302,444.208 C 31.014,431.284 31.158,419.333 31.302,412.673 C 31.23,406.085 30.762,409.757 31.158,404.933 C 31.482,400 32.202,392.799 33.318,383.187 L 33.318,383.187 z "
   style="fill:#77605b;fill-rule:evenodd;stroke:#000000;stroke-width:0.036;stroke-miterlimit:10"
   id="path113" />
	<path
   d="M 47.322,385.527 C 46.098,394.311 45.162,404.283 44.37,415.876 C 43.398,427.396 42.678,442.588 42.498,454.359 C 42.354,466.131 42.678,476.391 43.614,485.823 L 43.614,485.823 C 43.938,461.632 44.478,441.651 45.09,424.767 C 45.667,407.955 46.458,395.067 47.322,385.527 L 47.322,385.527 z "
   style="fill-rule:evenodd;stroke:#000000;stroke-width:0.036;stroke-miterlimit:10"
   id="path115" />
	<path
   d="M 108.918,380.739 C 107.298,383.151 105.498,385.347 103.518,387.183 C 101.466,389.091 99.81,390.783 96.75,391.827 C 93.474,392.655 89.478,392.26 84.906,392.439 C 80.37,392.511 72.954,392.187 69.75,392.439 C 66.438,392.547 65.034,392.943 65.394,393.483 L 65.394,393.483 C 64.458,401.332 63.81,408.747 63.306,416.307 C 62.73,423.795 62.658,430.995 62.262,438.195 C 61.794,445.287 61.29,451.947 60.75,458.607 L 60.606,458.787 C 62.226,467.643 63.594,474.771 64.782,480.531 C 65.97,486.291 66.69,489.747 67.662,492.987 C 68.562,496.227 69.426,498.172 70.362,499.756 C 71.262,501.304 71.694,501.735 73.206,502.312 C 74.682,502.888 77.886,502.852 79.218,503.212 C 80.514,503.535 81.234,504.039 81.018,504.256 C 80.766,504.472 79.11,504.544 77.85,504.544 C 76.59,504.579 75.15,504.544 73.494,504.399 C 74.358,508.359 75.15,512.571 75.906,517.323 C 76.662,522.039 77.454,526.827 77.994,532.479 C 78.534,538.131 78.858,545.367 79.218,550.947 C 79.542,556.527 79.938,560.92 80.118,565.635 C 80.226,570.387 79.938,575.175 80.118,579.171 C 80.262,583.131 80.802,586.983 81.018,589.215 C 81.162,591.375 81.234,592.383 81.162,592.202 C 83.43,592.347 85.77,592.383 88.218,592.347 C 90.63,592.347 92.826,592.239 95.706,592.059 C 98.586,591.879 103.122,591.627 105.318,591.303 C 107.478,591.015 107.73,590.979 108.594,590.259 C 109.458,589.503 110.07,588.459 110.394,586.946 C 110.358,584.03 110.322,578.594 110.25,570.314 C 110.214,561.962 110.286,550.586 110.106,537.59 C 109.926,524.558 109.314,504.47 109.206,492.914 C 109.098,481.43 109.314,476.39 109.494,469.082 C 109.674,461.737 110.25,454.357 110.25,449.317 C 110.214,444.277 109.926,440.929 109.35,439.093 C 108.666,438.948 107.766,438.841 106.65,438.805 C 105.534,438.733 103.302,438.985 102.762,438.805 L 102.762,438.805 C 102.222,438.625 102.834,437.905 103.518,437.761 C 104.202,437.581 105.642,437.833 106.794,437.905 C 107.946,437.977 109.098,438.157 110.394,438.193 C 111.726,438.265 113.994,438.086 114.606,438.193 C 115.218,438.338 114.606,438.769 113.994,438.949 C 113.418,439.13 112.41,439.237 111.006,439.237 C 111.474,443.485 111.69,449.533 111.618,457.705 C 111.51,465.914 110.646,478.369 110.574,488.018 C 110.466,497.594 110.97,505.082 111.15,514.874 C 111.33,524.701 111.51,538.021 111.618,546.374 C 111.69,554.653 111.726,557.642 111.762,564.374 C 111.798,571.142 111.798,578.414 111.762,586.55 C 113.418,586.478 115.146,586.514 117.162,586.694 C 119.142,586.875 121.086,587.594 123.606,587.594 C 126.126,587.558 128.97,586.874 132.174,586.55 C 135.377,586.226 138.798,585.902 142.65,585.65 C 141.57,572.762 141.03,561.746 141.03,552.026 C 140.994,542.342 141.858,534.422 142.507,527.87 C 143.154,521.318 144.091,517.322 144.918,513.038 C 145.71,508.755 146.502,505.263 147.33,502.383 C 146.034,502.238 144.847,502.238 143.73,502.383 C 142.578,502.49 141.066,503.282 140.562,503.139 C 140.058,502.923 139.95,501.699 140.706,501.339 C 141.462,500.979 143.658,501.194 145.062,501.015 C 146.466,500.836 147.833,501.771 149.13,500.295 C 150.39,498.782 151.541,496.406 152.585,492.158 C 153.558,487.91 153.81,485.175 155.106,475.058 C 156.438,464.87 158.958,442.19 160.362,431.894 L 160.362,431.894 C 161.766,421.67 162.27,420.662 163.53,414.038 C 164.755,407.415 166.122,400.322 167.706,392.438 C 163.135,393.05 158.49,393.518 153.631,393.806 C 148.698,394.058 143.694,394.274 138.618,394.094 C 133.507,393.914 127.639,393.698 123.318,392.726 C 118.962,391.79 115.542,390.35 112.806,388.406 C 111.618,386.678 110.754,385.346 110.178,384.302 C 110.178,384.266 110.142,384.23 110.142,384.23 C 110.106,384.158 110.07,384.122 110.034,384.05 C 109.998,383.978 109.998,383.942 109.962,383.905 C 109.386,382.79 109.17,382.177 109.35,381.926 L 108.918,380.739 z "
   style="fill:#294b70;fill-rule:evenodd;stroke:#000000;stroke-width:0.036;stroke-miterlimit:10"
   id="path117" />
	<path
   d="M 106.506,594.111 C 106.398,594.507 105.606,595.299 104.274,596.343 C 102.906,597.315 100.998,598.683 98.406,600.303 L 98.406,600.303 C 99.126,601.994 99.018,603.615 98.226,605.307 C 97.29,606.783 96.138,607.647 93.258,610.131 C 90.234,612.651 84.366,618.519 80.658,620.643 C 76.95,622.622 72.09,623.955 71.334,622.551 C 70.47,621.038 73.206,615.855 75.654,612.399 C 77.922,608.799 82.818,604.119 85.482,601.708 C 88.11,599.224 90.126,597.999 91.53,597.892 L 91.53,597.892 C 90.99,597.424 90.774,597.028 90.486,596.704 C 90.306,596.345 90.054,596.057 90.126,595.841 L 90.126,595.841 C 87.318,597.029 84.294,599.261 80.658,602.393 C 76.878,605.489 72.018,610.313 68.598,614.633 C 65.214,618.988 61.974,624.065 60.822,628.061 C 59.454,631.949 59.634,636.413 61.362,637.708 C 63.054,638.824 67.122,637.204 71.19,634.792 C 75.15,632.2 80.946,626.368 85.122,622.732 C 89.154,619.024 92.286,616.324 95.49,613.085 C 98.55,609.736 102.618,604.805 104.094,603.437 C 105.606,602.105 105.174,603.365 104.454,604.985 C 103.626,606.569 101.79,608.909 99.09,612.546 L 99.09,612.546 L 98.586,617.369 L 98.586,617.369 C 100.674,615.281 102.51,613.517 104.094,611.537 C 105.714,609.558 107.262,608.117 108.054,605.849 C 108.63,603.509 108.306,599.837 108.054,597.893 C 107.73,595.911 107.262,594.651 106.506,594.111 L 106.506,594.111 z "
   style="fill:#77605b;fill-rule:evenodd;stroke:#000000;stroke-width:0.036;stroke-miterlimit:10"
   id="path119" />
	<path
   d="M 93.402,598.251 C 94.122,598.034 95.202,598.322 95.814,599.114 C 96.426,599.87 97.866,601.526 97.218,603.255 C 96.318,604.875 94.086,606.746 91.35,609.267 C 88.47,611.787 84.006,616.071 81.018,618.231 C 77.922,620.211 75.186,621.327 73.926,621.183 C 72.666,620.931 72.486,619.419 73.926,617.043 C 75.258,614.559 79.362,609.734 82.206,606.855 C 85.05,603.939 88.65,601.167 90.666,599.799 C 92.466,598.395 92.539,598.251 93.402,598.251 L 93.402,598.251 z "
   style="fill:#77605b;fill-rule:evenodd;stroke:#000000;stroke-width:0.036;stroke-miterlimit:10"
   id="path121" />
	<path
   d="M 119.106,589.287 C 118.278,589.827 117.594,590.871 117.198,592.563 C 116.73,594.255 116.551,596.631 116.514,599.115 C 116.442,601.384 116.333,604.731 117.018,606.676 C 117.594,608.584 118.314,609.088 120.15,610.672 C 121.878,612.148 124.29,613.768 127.53,615.676 L 127.53,615.676 L 128.574,611.176 L 128.574,611.176 C 126.558,609.988 124.83,609.016 123.246,607.72 C 121.626,606.424 118.998,604.084 119.106,603.76 C 119.214,603.327 120.834,603.76 123.57,605.488 C 126.198,607.036 130.914,610.709 134.802,613.589 C 138.581,616.505 142.146,620.105 146.178,622.733 C 150.138,625.145 154.818,627.378 158.417,628.745 C 161.873,630.185 165.51,631.409 167.382,631.014 C 169.361,630.438 170.153,628.457 169.613,625.65 C 168.821,622.698 165.941,617.874 163.061,614.094 C 159.965,610.241 155.969,606.245 152.189,603.077 C 148.373,599.765 144.125,596.741 140.993,594.977 C 137.897,593.177 135.485,592.421 133.758,592.565 L 133.758,592.565 C 134.19,593.177 134.405,593.753 134.262,594.293 C 134.117,594.833 133.722,595.302 133.074,595.842 L 133.074,595.842 C 136.387,596.886 139.554,598.146 142.722,600.161 C 145.89,602.105 149.814,604.59 152.01,607.218 C 154.062,609.774 154.818,612.906 154.961,614.957 C 154.926,616.829 154.926,618.953 152.19,618.413 C 149.346,617.657 142.11,613.229 138.402,610.817 C 134.658,608.333 131.85,605.957 129.978,604.121 C 128.106,602.285 127.026,600.846 127.026,599.802 L 127.026,599.802 C 125.082,599.909 123.57,599.694 122.202,598.758 C 120.726,597.785 119.502,596.022 118.927,594.438 C 118.387,592.851 118.494,591.087 119.106,589.287 L 119.106,589.287 z "
   style="fill:#77605b;fill-rule:evenodd;stroke:#000000;stroke-width:0.036;stroke-miterlimit:10"
   id="path123" />
	<path
   d="M 129.259,599.979 C 129.727,601.491 131.563,603.579 133.939,605.667 C 136.315,607.646 140.059,609.986 143.227,611.858 C 146.25,613.622 150.247,616.142 152.011,616.358 C 153.595,616.43 153.631,614.342 153.235,612.722 C 152.695,610.886 152.083,608.618 149.599,606.35 C 147.042,604.046 141.75,600.914 138.582,599.294 C 135.45,597.529 132.462,596.414 130.986,596.522 C 129.402,596.667 128.683,598.323 129.259,599.979 L 129.259,599.979 z "
   style="fill:#77605b;fill-rule:evenodd;stroke:#000000;stroke-width:0.036;stroke-miterlimit:10"
   id="path125" />
	
		<polygon
   points="97.362,613.587 97.218,618.411 92.395,618.771 97.362,613.587 "
   style="fill:#77605b;fill-rule:evenodd;stroke:#000000;stroke-width:0.036;stroke-miterlimit:10"
   id="polygon127" />
	
		<polygon
   points="130.122,612.039 129.114,615.675 133.074,614.811 130.122,612.039 "
   style="fill:#77605b;fill-rule:evenodd;stroke:#000000;stroke-width:0.036;stroke-miterlimit:10"
   id="polygon129" />
</g>
</svg>