<?xml version="1.0" encoding="UTF-8" standalone="no"?>
<!-- Generator: Adobe Illustrator 12.0.0, SVG Export Plug-In . SVG Version: 6.00 Build 51448)  --><svg height="416.418" id="Layer_1" inkscape:version="0.42" sodipodi:docbase="F:\openclip\wmf\01" sodipodi:docname="spaventapasseri.svg" sodipodi:version="0.32" space="preserve" style="overflow:visible;enable-background:new 0 0 282.153 416.418;" version="1.1" viewBox="0 0 282.153 416.418" width="282.153" xmlns="http://www.w3.org/2000/svg" xmlns:cc="http://web.resource.org/cc/" xmlns:dc="http://purl.org/dc/elements/1.1/" xmlns:inkscape="http://www.inkscape.org/namespaces/inkscape" xmlns:rdf="http://www.w3.org/1999/02/22-rdf-syntax-ns#" xmlns:sodipodi="http://inkscape.sourceforge.net/DTD/sodipodi-0.dtd" xmlns:svg="http://www.w3.org/2000/svg">
  <metadata>
    <rdf:RDF xmlns:cc="http://web.resource.org/cc/" xmlns:dc="http://purl.org/dc/elements/1.1/" xmlns:rdf="http://www.w3.org/1999/02/22-rdf-syntax-ns#">
      <cc:Work rdf:about="">
        <dc:title>Various Cliparts</dc:title>
        <dc:description></dc:description>
        <dc:subject>
          <rdf:Bag>
            <rdf:li></rdf:li>
          </rdf:Bag>
        </dc:subject>
        <dc:publisher>
          <cc:Agent rdf:about="http://www.openclipart.org/">
            <dc:title></dc:title>
          </cc:Agent>
        </dc:publisher>
        <dc:creator>
          <cc:Agent>
            <dc:title>Architetto Francesco Rollandin</dc:title>
          </cc:Agent>
        </dc:creator>
        <dc:rights>
          <cc:Agent>
            <dc:title>Architetto Francesco Rollandin</dc:title>
          </cc:Agent>
        </dc:rights>
        <dc:date></dc:date>
        <dc:format>image/svg+xml</dc:format>
        <dc:type rdf:resource="http://purl.org/dc/dcmitype/StillImage"/>
        <cc:license rdf:resource="http://web.resource.org/cc/PublicDomain"/>
        <dc:language>en</dc:language>
      </cc:Work>
      <cc:License rdf:about="http://web.resource.org/cc/PublicDomain">
        <cc:permits rdf:resource="http://web.resource.org/cc/Reproduction"/>
        <cc:permits rdf:resource="http://web.resource.org/cc/Distribution"/>
        <cc:permits rdf:resource="http://web.resource.org/cc/DerivativeWorks"/>
      </cc:License>
    </rdf:RDF>
  </metadata>
  <defs id="defs424"/>
  <sodipodi:namedview bordercolor="#666666" borderopacity="1.0" id="base" inkscape:current-layer="Layer_1" inkscape:cx="141.07651" inkscape:cy="208.20900" inkscape:pageopacity="0.0" inkscape:pageshadow="2" inkscape:window-height="510" inkscape:window-width="787" inkscape:window-x="88" inkscape:window-y="116" inkscape:zoom="0.86451594" pagecolor="#ffffff"/>
  <path d="M111.44,114.284c13.619-2.09,27.812-3.606,41.606-3.394c3.064,0.047,20.595-0.332,19.202,5.757  c-2.473,10.814-4.945,21.628-7.418,32.442c-1.355,5.928-0.115,13.389-6.797,12.872c-11.906-0.921-23.813-1.842-35.719-2.764  C108.978,158.166,112.632,126.209,111.44,114.284" id="path3" style="fill:#FF7F00;"/>
  <path d="M111.44,114.284  c13.619-2.09,27.812-3.606,41.606-3.394c3.064,0.047,20.595-0.332,19.202,5.757c-2.473,10.814-4.945,21.628-7.418,32.442  c-1.355,5.928-0.115,13.389-6.797,12.872c-11.906-0.921-23.813-1.842-35.719-2.764C108.978,158.166,112.632,126.209,111.44,114.284" id="path5" style="fill:none;stroke:#FF0000;stroke-width:2;stroke-linecap:square;stroke-miterlimit:10;"/>
  <path d="M234.029,179.004c4.663,5.812,12.906,9.969,18.908,14.467c8.599,6.444,15.646,2.98,5.393-4.568  c-13.36-9.836,6.438,2.059,10.217,3.108c15.59,4.333-6.199-11.266-9.646-12.88c3.41,1.481,19.326,9.345,20.939,4.188  c1.609-5.145-16.621-10.119-19.797-10.787c2.904,0.731,22.147,6.571,21.065-0.508c-1.132-7.402-22.36-3.602-26.776-7.741  c3.06-0.724,18.493-6.024,8.503-8.883C248.397,151.269,233.84,166.154,234.029,179.004" id="path7" style="fill:#FFFFFF;"/>
  <path d="M234.029,179.004  c4.663,5.812,12.906,9.969,18.908,14.467c8.599,6.444,15.646,2.98,5.393-4.568c-13.36-9.836,6.438,2.059,10.217,3.108  c15.59,4.333-6.199-11.266-9.646-12.88c3.41,1.481,19.326,9.345,20.939,4.188c1.609-5.145-16.621-10.119-19.797-10.787  c2.904,0.731,22.147,6.571,21.065-0.508c-1.132-7.402-22.36-3.602-26.776-7.741c3.06-0.724,18.493-6.024,8.503-8.883  c-14.354-4.107-28.93,10.478-28.807,23.731" id="path9" style="fill:none;stroke:#404040;stroke-width:2;stroke-linecap:square;stroke-miterlimit:10;"/>
  <path d="M227.684,171.39c2.46-3.846,14.206-23.85,14.212-9.264  C241.899,171.885,226.805,186.142,227.684,171.39" id="path11" style="fill:#FFFFFF;"/>
  <path d="M227.684,171.39  c2.46-3.846,14.206-23.85,14.212-9.264C241.899,171.885,226.805,186.142,227.684,171.39" id="path13" style="fill:none;stroke:#000000;stroke-width:2;stroke-linecap:square;stroke-miterlimit:10;"/>
  <path d="M47.988,177.863c-4.213,5.202-13.783,11.852-19.797,15.101c-13.574,7.333-7.864,0.856-3.045-6.217  c7.126-10.461-6.283,4.74-12.69,4.441c-13.954-0.65,6.796-11.329,10.787-13.198c-3.427,1.432-19.508,9.35-20.939,4.061  c-1.379-5.096,16.609-10.083,19.924-10.66c-2.972,0.693-22.141,6.471-21.193-0.507c1.022-7.526,22.398-3.486,26.777-7.869  c-3.426-0.706-18.109-5.388-8.502-8.82C33.218,149.226,48.739,165.647,47.988,177.863" id="path15" style="fill:#FFFFFF;"/>
  <path d="M47.988,177.863  c-4.213,5.202-13.783,11.852-19.797,15.101c-13.574,7.333-7.864,0.856-3.045-6.217c7.126-10.461-6.283,4.74-12.69,4.441  c-13.954-0.65,6.796-11.329,10.787-13.198c-3.427,1.432-19.508,9.35-20.939,4.061c-1.379-5.096,16.609-10.083,19.924-10.66  c-2.972,0.693-22.141,6.471-21.193-0.507c1.022-7.526,22.398-3.486,26.777-7.869c-3.426-0.706-18.109-5.388-8.502-8.82  c14.127-5.047,28.918,11.208,28.808,23.794" id="path17" style="fill:none;stroke:#404040;stroke-width:2;stroke-linecap:square;stroke-miterlimit:10;"/>
  <path d="M54.333,170.121c-2.439-4.148-14.191-23.538-14.086-9.136  C40.327,171.862,55.964,184.069,54.333,170.121" id="path19" style="fill:#FFFFFF;"/>
  <path d="M54.333,170.121  c-2.439-4.148-14.191-23.538-14.086-9.136c0.07,9.598,15.021,24.038,14.213,9.264" id="path21" style="fill:none;stroke:#000000;stroke-width:2;stroke-linecap:square;stroke-miterlimit:10;"/>
  <path d="M221.719,410.222c17.008-7.484,3.109-28.033-1.637-38.535c-6.123-13.548-18.767-13.359-30.469-5.373  c-15.411,10.518-4.511,24.97,1.637,38.647C198.038,420.065,209.563,416.019,221.719,410.222" id="path23" style="fill:#5A3D1C;"/>
  <path d="M221.719,410.222  c17.008-7.484,3.109-28.033-1.637-38.535c-6.123-13.548-18.767-13.359-30.469-5.373c-15.411,10.518-4.511,24.97,1.637,38.647  c6.822,15.181,18.012,10.939,30.596,5.261" id="path25" style="fill:none;stroke:#800000;stroke-width:2;stroke-linecap:square;stroke-miterlimit:10;"/>
  <path d="M26.669,379.893c-12.375,1.323-22.674-10.768-19.479-22.906c2.169-8.243,9.729-10.246,17.259-7.806  c12.467,4.043,27.283-2.23,39.911,0.762c10.088,2.39,16.277,13.35,10.279,23.731C67.221,386.512,38.037,380.39,26.669,379.893" id="path27" style="fill:#5A3D1C;"/>
  <path d="M26.669,379.893  c-12.375,1.323-22.674-10.768-19.479-22.906c2.169-8.243,9.729-10.246,17.259-7.806c12.467,4.043,27.283-2.23,39.911,0.762  c10.678,2.53,14.771,12.049,10.596,22.906c-5.449,14.172-37.68,7.136-48.159,7.171" id="path29" style="fill:none;stroke:#800000;stroke-width:2;stroke-linecap:square;stroke-miterlimit:10;"/>
  <path d="M225.652,393.853c-7.646-9.638-22.29-24.229-35.659-17.514  C204.313,365.257,218.745,383.273,225.652,393.853" id="path31" style="fill:#FF9F40;"/>
  <path d="M225.652,393.853  c-7.646-9.638-22.29-24.229-35.659-17.514c14.467-11.197,28.282,6.974,35.787,17.514" id="path33" style="fill:none;stroke:#BF0000;stroke-width:2;stroke-linecap:square;stroke-miterlimit:10;"/>
  <path d="M201.795,359.588c2.134,12.118,5.72,32.647,21.065,33.883  C204.303,395.305,202.999,372.42,201.795,359.588" id="path35" style="fill:#FF9F40;"/>
  <path d="M201.795,359.588  c2.134,12.118,5.72,32.647,21.065,33.883c-18.206,1.799-20.298-20.793-20.938-33.756" id="path37" style="fill:none;stroke:#BF0000;stroke-width:2;stroke-linecap:square;stroke-miterlimit:10;"/>
  <path d="M203.825,351.847c3.648,11.639,12.502,30.823,27.284,28.934  C213.876,386.91,206.805,364.045,203.825,351.847" id="path39" style="fill:#FF9F40;"/>
  <path d="M203.825,351.847  c3.648,11.639,12.502,30.823,27.284,28.934c-17.243,6.134-24.17-16.662-27.284-28.807" id="path41" style="fill:none;stroke:#BF0000;stroke-width:2;stroke-linecap:square;stroke-miterlimit:10;"/>
  <path d="M233.013,371.263c-12.185-0.692-32.618-4.991-34.39-19.67  C197.156,369.57,220.81,371.575,233.013,371.263" id="path43" style="fill:#FF9F40;"/>
  <path d="M233.013,371.263  c-12.185-0.692-32.618-4.991-34.39-19.67c-1.484,18.19,21.835,19.483,34.518,19.797" id="path45" style="fill:none;stroke:#BF0000;stroke-width:2;stroke-linecap:square;stroke-miterlimit:10;"/>
  <path d="M201.541,360.604c0.99,12.113,0.524,33.22-13.959,37.182  C205.586,396.446,203.85,372.999,201.541,360.604" id="path47" style="fill:#FF9F40;"/>
  <path d="M201.541,360.604  c0.99,12.113,0.524,33.22-13.959,37.182c18.23-1.356,15.822-24.56,14.087-37.182" id="path49" style="fill:none;stroke:#BF0000;stroke-width:2;stroke-linecap:square;stroke-miterlimit:10;"/>
  <path d="M185.932,366.187c8.624,8.826,20.832,22.568,13.96,35.66  C214.452,388.232,196.418,374.111,185.932,366.187" id="path51" style="fill:#FF9F40;"/>
  <path d="M185.932,366.187  c8.624,8.826,20.832,22.568,13.96,35.66c14.326-13.396-3.045-27.925-13.96-35.533" id="path53" style="fill:none;stroke:#BF0000;stroke-width:2;stroke-linecap:square;stroke-miterlimit:10;"/>
  <path d="M197.607,356.034c1.093,12.209,0.395,33.346-14.087,37.31  C201.926,392.284,199.391,368.494,197.607,356.034" id="path55" style="fill:#FF9F40;"/>
  <path d="M197.607,356.034  c1.093,12.209,0.395,33.346-14.087,37.31c18.308-1.055,15.954-24.739,14.087-37.183" id="path57" style="fill:none;stroke:#BF0000;stroke-width:2;stroke-linecap:square;stroke-miterlimit:10;"/>
  <path d="M197.1,398.547c0.142-12.386-1.786-32.83-16.498-36.168C198.94,362.662,198.048,385.75,197.1,398.547  " id="path59" style="fill:#FF9F40;"/>
  <path d="M197.1,398.547  c0.142-12.386-1.786-32.83-16.498-36.168C198.94,362.662,198.048,385.75,197.1,398.547" id="path61" style="fill:none;stroke:#BF0000;stroke-width:2;stroke-linecap:square;stroke-miterlimit:10;"/>
  <path d="M200.271,356.923c-6.118,10.487-16.116,29.127-4.947,39.468  C179.324,386.717,193.478,367.089,200.271,356.923" id="path63" style="fill:#FF9F40;"/>
  <path d="M200.271,356.923  c-6.118,10.487-16.116,29.127-4.947,39.468c-15.749-9.522-2.341-29.272,5.075-39.468" id="path65" style="fill:none;stroke:#BF0000;stroke-width:2;stroke-linecap:square;stroke-miterlimit:10;"/>
  <path d="M206.745,352.101c-4.123,11.556-10.063,31.708,2.918,39.721  C192.37,385.403,201.622,363.68,206.745,352.101" id="path67" style="fill:#FF9F40;"/>
  <path d="M206.745,352.101  c-4.123,11.556-10.063,31.708,2.918,39.721c-17.131-6.357-8.274-28.095-2.918-39.595" id="path69" style="fill:none;stroke:#BF0000;stroke-width:2;stroke-linecap:square;stroke-miterlimit:10;"/>
  <path d="M217.023,385.729c-8.597-8.638-22.307-24.563-14.086-37.182  C190.279,362.225,207.568,377.273,217.023,385.729" id="path71" style="fill:#FF9F40;"/>
  <path d="M217.023,385.729  c-8.597-8.638-22.307-24.563-14.086-37.182c-12.485,13.489,4.186,28.771,14.212,37.182" id="path73" style="fill:none;stroke:#BF0000;stroke-width:2;stroke-linecap:square;stroke-miterlimit:10;"/>
  <path d="M199.512,357.431c-6.582,10.073-20.964,26.262-34.393,19.924  C179.905,388.039,193.328,368.413,199.512,357.431" id="path75" style="fill:#FF9F40;"/>
  <path d="M199.512,357.431  c-6.582,10.073-20.964,26.262-34.393,19.924c14.852,10.732,27.958-8.973,34.393-19.798" id="path77" style="fill:none;stroke:#BF0000;stroke-width:2;stroke-linecap:square;stroke-miterlimit:10;"/>
  <path d="M183.774,351.974c1.729,12.052,1.603,30.8-11.675,36.294  C191.75,387.531,187.506,364.463,183.774,351.974" id="path79" style="fill:#FF9F40;"/>
  <path d="M183.774,351.974  c1.729,12.052,1.603,30.8-11.675,36.294C191.75,387.531,187.506,364.463,183.774,351.974" id="path81" style="fill:none;stroke:#BF0000;stroke-width:2;stroke-linecap:square;stroke-miterlimit:10;"/>
  <path d="M199.257,351.466c-6.857,10.188-20.636,25.879-34.39,19.924  C179.62,382.063,192.995,362.33,199.257,351.466" id="path83" style="fill:#FF9F40;"/>
  <path d="M199.257,351.466  c-6.857,10.188-20.636,25.879-34.39,19.924c14.821,10.723,27.874-9.093,34.39-19.797" id="path85" style="fill:none;stroke:#BF0000;stroke-width:2;stroke-linecap:square;stroke-miterlimit:10;"/>
  <path d="M83.521,373.294c-7.845-9.19-22.382-24.64-35.659-17.387  C61.99,343.822,76.343,363.647,83.521,373.294" id="path87" style="fill:#FF9F40;"/>
  <path d="M83.521,373.294  c-7.845-9.19-22.382-24.64-35.659-17.387c13.959-11.94,28.513,7.324,35.659,17.513" id="path89" style="fill:none;stroke:#BF0000;stroke-width:2;stroke-linecap:square;stroke-miterlimit:10;"/>
  <path d="M59.664,339.029c1.564,12.273,5.938,32.603,21.065,33.884  C62.396,374.71,60.433,352.086,59.664,339.029" id="path91" style="fill:#FF9F40;"/>
  <path d="M59.664,339.029  c1.564,12.273,5.938,32.603,21.065,33.884c-18.294,1.793-20.26-20.721-21.065-33.757" id="path93" style="fill:none;stroke:#BF0000;stroke-width:2;stroke-linecap:square;stroke-miterlimit:10;"/>
  <path d="M61.567,331.288c3.975,11.635,12.365,30.879,27.41,28.935  C71.627,366.225,64.721,343.589,61.567,331.288" id="path95" style="fill:#FF9F40;"/>
  <path d="M61.567,331.288  c3.975,11.635,12.365,30.879,27.41,28.935c-17.364,6.007-24.115-16.563-27.41-28.808" id="path97" style="fill:none;stroke:#BF0000;stroke-width:2;stroke-linecap:square;stroke-miterlimit:10;"/>
  <path d="M90.881,350.705c-12.341-0.738-32.438-4.962-34.517-19.67  C55.145,349.015,78.191,350.993,90.881,350.705" id="path99" style="fill:#FF9F40;"/>
  <path d="M90.881,350.705  c-12.341-0.738-32.438-4.962-34.517-19.67c-1.235,18.209,21.659,19.479,34.517,19.796" id="path101" style="fill:none;stroke:#BF0000;stroke-width:2;stroke-linecap:square;stroke-miterlimit:10;"/>
  <path d="M55.222,341.44c1.092,12.209,0.395,33.344-14.086,37.31C59.541,377.688,57.005,353.9,55.222,341.44" id="path103" style="fill:#FF9F40;"/>
  <path d="M55.222,341.44  c1.092,12.209,0.395,33.344-14.086,37.31c18.306-1.056,15.953-24.739,14.086-37.183" id="path105" style="fill:none;stroke:#BF0000;stroke-width:2;stroke-linecap:square;stroke-miterlimit:10;"/>
  <path d="M43.674,345.755c9.184,8.19,20.54,22.829,13.959,35.533  C72.299,368.324,54.547,352.915,43.674,345.755" id="path107" style="fill:#FF9F40;"/>
  <path d="M43.674,345.755  c9.184,8.19,20.54,22.829,13.959,35.533c14.742-13.031-3.181-28.107-13.833-35.533" id="path109" style="fill:none;stroke:#BF0000;stroke-width:2;stroke-linecap:square;stroke-miterlimit:10;"/>
  <path d="M49.131,338.521c1.095,12.238,0.444,33.149-13.959,37.311  C53.204,374.469,51.361,351.041,49.131,338.521" id="path111" style="fill:#FF9F40;"/>
  <path d="M49.131,338.521  c1.095,12.238,0.444,33.149-13.959,37.311c18.189-1.375,15.819-24.583,14.086-37.183" id="path113" style="fill:none;stroke:#BF0000;stroke-width:2;stroke-linecap:square;stroke-miterlimit:10;"/>
  <path d="M62.836,377.101c0.25-12.327-2.012-32.982-16.624-36.167  C64.582,341.063,63.782,364.321,62.836,377.101" id="path115" style="fill:#FF9F40;"/>
  <path d="M62.836,377.101  c0.25-12.327-2.012-32.982-16.624-36.167C64.582,341.063,63.782,364.321,62.836,377.101" id="path117" style="fill:none;stroke:#BF0000;stroke-width:2;stroke-linecap:square;stroke-miterlimit:10;"/>
  <path d="M48.623,335.349c-6.278,10.493-16.25,29.181-5.076,39.595  C27.949,364.936,41.324,345.828,48.623,335.349" id="path119" style="fill:#FF9F40;"/>
  <path d="M48.623,335.349  c-6.278,10.493-16.25,29.181-5.076,39.595c-15.408-9.886-2.541-29.151,5.076-39.467" id="path121" style="fill:none;stroke:#BF0000;stroke-width:2;stroke-linecap:square;stroke-miterlimit:10;"/>
  <path d="M64.994,331.923c-4.231,11.671-9.909,31.444,2.918,39.721  C50.793,365.086,59.661,343.529,64.994,331.923" id="path123" style="fill:#FF9F40;"/>
  <path d="M64.994,331.923  c-4.231,11.671-9.909,31.444,2.918,39.721C50.793,365.086,59.661,343.529,64.994,331.923" id="path125" style="fill:none;stroke:#BF0000;stroke-width:2;stroke-linecap:square;stroke-miterlimit:10;"/>
  <path d="M74.892,365.171c-8.65-8.815-22.395-24.295-14.086-37.182  C47.74,340.918,65.248,357.082,74.892,365.171" id="path127" style="fill:#FF9F40;"/>
  <path d="M74.892,365.171  c-8.65-8.815-22.395-24.295-14.086-37.182C47.74,340.918,65.248,357.082,74.892,365.171" id="path129" style="fill:none;stroke:#BF0000;stroke-width:2;stroke-linecap:square;stroke-miterlimit:10;"/>
  <path d="M52.304,333.191c-6.916,9.879-20.751,26.366-34.391,19.924  C32.541,363.98,46.112,343.936,52.304,333.191" id="path131" style="fill:#FF9F40;"/>
  <path d="M52.304,333.191  c-6.916,9.879-20.751,26.366-34.391,19.924c14.694,10.914,27.947-9.212,34.391-19.796" id="path133" style="fill:none;stroke:#BF0000;stroke-width:2;stroke-linecap:square;stroke-miterlimit:10;"/>
  <path d="M41.517,331.415c1.795,11.969,1.653,30.835-11.548,36.294  C49.28,366.656,45.704,343.883,41.517,331.415" id="path135" style="fill:#FF9F40;"/>
  <path d="M41.517,331.415  c1.795,11.969,1.653,30.835-11.548,36.294c19.541-1.065,15.3-23.604,11.675-36.294" id="path137" style="fill:none;stroke:#BF0000;stroke-width:2;stroke-linecap:square;stroke-miterlimit:10;"/>
  <path d="M53.953,339.029c-10.57,5.791-30.693,13.102-39.594,1.27  C22.395,356.116,43.816,345.884,53.953,339.029" id="path139" style="fill:#FF9F40;"/>
  <path d="M53.953,339.029  c-10.57,5.791-30.693,13.102-39.594,1.27c8.183,16.108,28.873,5.146,39.721-1.143" id="path141" style="fill:none;stroke:#BF0000;stroke-width:2;stroke-linecap:square;stroke-miterlimit:10;"/>
  <path d="M27.938,187.253c9.551-7.826,23.55-23.006,16.497-36.167  C56.005,165.181,38.415,179.981,27.938,187.253" id="path143" style="fill:#FF9F40;"/>
  <path d="M27.938,187.253  c9.551-7.826,23.55-23.006,16.497-36.167c11.686,14.236-6.067,28.431-16.497,36.294" id="path145" style="fill:none;stroke:#BF0000;stroke-width:2;stroke-linecap:square;stroke-miterlimit:10;"/>
  <path d="M61.441,162.507c-12.148,2.042-32.213,6.872-33.123,21.955  C25.437,166.426,48.917,163.603,61.441,162.507" id="path147" style="fill:#FF9F40;"/>
  <path d="M61.441,162.507  c-12.148,2.042-32.213,6.872-33.123,21.955C25.437,166.426,48.917,163.603,61.441,162.507" id="path149" style="fill:none;stroke:#BF0000;stroke-width:2;stroke-linecap:square;stroke-miterlimit:10;"/>
  <path d="M69.181,164.158c-11.35,4.693-30.24,13.082-28.045,28.171  C34.685,174.741,57.674,168.189,69.181,164.158" id="path151" style="fill:#FF9F40;"/>
  <path d="M69.181,164.158  c-11.35,4.693-30.24,13.082-28.045,28.171c-6.296-17.164,15.956-24.599,28.171-28.045" id="path153" style="fill:none;stroke:#BF0000;stroke-width:2;stroke-linecap:square;stroke-miterlimit:10;"/>
  <path d="M50.654,193.979c1-12.149,3.819-32.98,18.908-34.898C51.219,157.467,50.497,181.945,50.654,193.979" id="path155" style="fill:#FF9F40;"/>
  <path d="M50.654,193.979  c1-12.149,3.819-32.98,18.908-34.898c-18.284-1.61-19.063,22.555-18.908,35.024" id="path157" style="fill:none;stroke:#BF0000;stroke-width:2;stroke-linecap:square;stroke-miterlimit:10;"/>
  <path d="M60.552,162.254c-12.125,1.531-33.1,1.225-37.563-12.944  C24.543,167.625,48.164,164.421,60.552,162.254" id="path159" style="fill:#FF9F40;"/>
  <path d="M60.552,162.254  c-12.125,1.531-33.1,1.225-37.563-12.944C24.543,167.625,48.164,164.421,60.552,162.254" id="path161" style="fill:none;stroke:#BF0000;stroke-width:2;stroke-linecap:square;stroke-miterlimit:10;"/>
  <path d="M54.333,146.771c-8.097,9.139-22.08,21.243-35.025,14.975  C33.009,175.733,47.228,158.009,54.333,146.771" id="path163" style="fill:#FF9F40;"/>
  <path d="M54.333,146.771  c-8.097,9.139-22.08,21.243-35.025,14.975C33.009,175.733,47.228,158.009,54.333,146.771" id="path165" style="fill:none;stroke:#BF0000;stroke-width:2;stroke-linecap:square;stroke-miterlimit:10;"/>
  <path d="M64.866,158.065c-12.055,1.627-33.112,1.304-37.563-12.816  C28.851,163.26,52.781,160.769,64.866,158.065" id="path167" style="fill:#FF9F40;"/>
  <path d="M64.866,158.065  c-12.055,1.627-33.112,1.304-37.563-12.816c1.565,18.224,25.249,15.098,37.563,12.944" id="path169" style="fill:none;stroke:#BF0000;stroke-width:2;stroke-linecap:square;stroke-miterlimit:10;"/>
  <path d="M251.922,187.635c-9.298-8.18-23.689-22.799-16.497-36.168  C223.734,165.436,241.578,179.995,251.922,187.635" id="path171" style="fill:#FF9F40;"/>
  <path d="M251.922,187.635  c-9.298-8.18-23.689-22.799-16.497-36.168C223.734,165.436,241.578,179.995,251.922,187.635" id="path173" style="fill:none;stroke:#BF0000;stroke-width:2;stroke-linecap:square;stroke-miterlimit:10;"/>
  <path d="M218.293,162.761c12.109,2.063,32.514,6.911,33.248,22.082  C254.461,166.402,230.782,164.23,218.293,162.761" id="path175" style="fill:#FF9F40;"/>
  <path d="M218.293,162.761  c12.109,2.063,32.514,6.911,33.248,22.082c2.867-18.104-20.483-21.019-33.122-21.954" id="path177" style="fill:none;stroke:#BF0000;stroke-width:2;stroke-linecap:square;stroke-miterlimit:10;"/>
  <path d="M210.552,164.538c11.52,4.078,30.409,13.37,28.172,28.173  C244.942,175.412,222.873,168.171,210.552,164.538" id="path179" style="fill:#FF9F40;"/>
  <path d="M210.552,164.538  c11.52,4.078,30.409,13.37,28.172,28.173C244.942,175.412,222.873,168.171,210.552,164.538" id="path181" style="fill:none;stroke:#BF0000;stroke-width:2;stroke-linecap:square;stroke-miterlimit:10;"/>
  <path d="M229.079,194.36c-0.209-12.109-4.075-33.023-18.655-35.026  C228.461,158.429,229.84,181.716,229.079,194.36" id="path183" style="fill:#FF9F40;"/>
  <path d="M229.079,194.36  c-0.209-12.109-4.075-33.023-18.655-35.026c18.267-0.917,18.94,22.202,18.782,35.026" id="path185" style="fill:none;stroke:#BF0000;stroke-width:2;stroke-linecap:square;stroke-miterlimit:10;"/>
  <path d="M219.308,162.507c12.112,1.534,33.219,1.342,37.563-12.944  C255.41,167.573,231.412,165.213,219.308,162.507" id="path187" style="fill:#FF9F40;"/>
  <path d="M219.308,162.507  c12.112,1.534,33.219,1.342,37.563-12.944c-1.479,18.222-25.23,15.229-37.563,13.071" id="path189" style="fill:none;stroke:#BF0000;stroke-width:2;stroke-linecap:square;stroke-miterlimit:10;"/>
  <path d="M225.398,147.025c8.19,9.087,22.17,21.382,35.152,14.975  C246.917,176.563,232.659,157.552,225.398,147.025" id="path191" style="fill:#FF9F40;"/>
  <path d="M225.398,147.025  c8.19,9.087,22.17,21.382,35.152,14.975c-13.411,14.325-28.092-4.009-35.024-14.975" id="path193" style="fill:none;stroke:#BF0000;stroke-width:2;stroke-linecap:square;stroke-miterlimit:10;"/>
  <path d="M214.993,158.447c12.244,1.04,32.992,1.563,37.563-12.944  C251.006,163.752,227.348,160.608,214.993,158.447" id="path195" style="fill:#FF9F40;"/>
  <path d="M214.993,158.447  c12.244,1.04,32.992,1.563,37.563-12.944C251.006,163.752,227.348,160.608,214.993,158.447" id="path197" style="fill:none;stroke:#BF0000;stroke-width:2;stroke-linecap:square;stroke-miterlimit:10;"/>
  <path d="M59.283,173.675c-10.831,5.571-22.331-5.9-20.241-17.005c1.253-6.663,7.333-9.077,12.756-11.705  c16.835-8.155,33.67-16.31,50.505-24.465c5.553-2.69,8.113-5.035,12.055,0.509c2.319,3.262,3.45,19.709,3.554,25.127  c0.232,12.106-3.423,12.943-14.346,15.837C88.813,165.884,74.074,169.936,59.283,173.675" id="path199" style="fill:#FF7F00;"/>
  <path d="M59.283,173.675  c-10.831,5.571-22.331-5.9-20.241-17.005c1.081-5.747,5.808-8.339,10.596-10.658c16.835-8.155,33.67-16.31,50.505-24.465  c18.095-8.766,15.982,7.365,17.579,22.75c1.126,10.861-1.087,14.215-11.116,16.873c-15.732,4.168-31.464,8.337-47.196,12.506" id="path201" style="fill:none;stroke:#BF0000;stroke-width:2;stroke-linecap:square;stroke-miterlimit:10;"/>
  <path d="M220.576,175.197c10.925,5.548,22.466-5.797,20.369-17.004c-1.259-6.723-7.252-9.039-12.744-11.705  c-16.8-8.155-33.6-16.31-50.399-24.464c-15.71-7.626-16.213,12.676-16.107,25.383c0.102,12.217,3.854,13.176,14.853,16.09  C191.089,167.35,206.507,171.278,220.576,175.197" id="path203" style="fill:#FF7F00;"/>
  <path d="M220.576,175.197  c10.925,5.548,22.466-5.797,20.369-17.004c-1.09-5.823-5.727-8.298-10.588-10.659c-16.8-8.155-33.6-16.31-50.399-24.464  c-6.268-3.042-9.662-6.44-14.33-0.537c-2.792,3.531-3.437,17.888-3.808,23.097c-0.779,10.959,1.612,14.392,11.688,17.062  c15.732,4.169,31.464,8.337,47.196,12.506" id="path205" style="fill:none;stroke:#BF0000;stroke-width:2;stroke-linecap:square;stroke-miterlimit:10;"/>
  <path d="M124.384,153.624c15.482,0.331,35.029-2.63,49.746,4.061c12.399,5.638,8.088,33.363,6.979,44.416  c-2.247,22.422,11.348,49.16,17.782,70.806c6.387,21.48,8.492,44.597,12.299,66.643c2.492,14.433,11.291,42.019-15.36,39.582  c-23.548-2.152-21.271-39.138-23.94-55.277c-4.171-25.214-8.324-44.056-18.393-67.415c-9.999-23.198-39.748-6.27-54.443,4.312  c-16.7,12.023-14.976,22.679-18.72,43.272c-2.404,13.226-1.356,37.449-12.295,46.555c-11.044,9.192-32.323-0.78-30.353-15.129  c2.305-16.786,5.063-33.482,8.035-50.162c2.622-14.713,4.718-28.396,15.606-39.004c11.414-11.12,22.616-22.456,34.133-33.471  c6.125-5.857,8.667-7.232,8.33-15.661c-0.446-11.161-0.893-22.323-1.339-33.484C102.176,156.792,120.466,153.048,124.384,153.624" id="path207" style="fill:#0080FF;"/>
  <path d="M124.384,153.624  c15.482,0.331,35.029-2.63,49.746,4.061c12.399,5.638,8.088,33.363,6.979,44.416c-2.247,22.422,11.348,49.16,17.782,70.806  c6.387,21.48,8.492,44.597,12.299,66.643c2.492,14.433,11.291,42.019-15.36,39.582c-23.548-2.152-21.271-39.138-23.94-55.277  c-4.171-25.214-8.324-44.056-18.393-67.415c-9.999-23.198-39.748-6.27-54.443,4.312c-16.7,12.023-14.976,22.679-18.72,43.272  c-2.404,13.226-1.356,37.449-12.295,46.555c-11.044,9.192-32.323-0.78-30.353-15.129c2.305-16.786,5.063-33.482,8.035-50.162  c2.475-13.887,4.458-27.425,14.323-37.754c10.488-10.981,21.631-21.535,32.605-32.031c4.854-4.643,11.535-8.5,11.259-15.406  c-0.466-11.65-0.932-23.3-1.398-34.95c-0.316-7.909,15.977-12.475,22-11.394" id="path209" style="fill:none;stroke:#0000FF;stroke-width:2;stroke-linecap:square;stroke-miterlimit:10;"/>
  <path d="M156.618,196.898c0-5.664,3.56-28.852,0-32.488c-1.518-1.55-31.986-1.55-33.503,0  c-1.55,1.583-1.55,30.905,0,32.488C126.655,200.515,150.928,196.898,156.618,196.898" id="path211" style="fill:#409FFF;"/>
  <path d="M156.618,196.898  c0-5.664,3.56-28.852,0-32.488c-1.518-1.55-31.986-1.55-33.503,0c-1.55,1.583-1.55,30.905,0,32.488  C126.655,200.515,150.928,196.898,156.618,196.898" id="path213" style="fill:none;stroke:#0000FF;stroke-width:2;stroke-linecap:square;stroke-miterlimit:10;"/>
  <path d="M155.096,169.486c13.07-7.774-26.706-8.84-29.951-6.217  C112.931,173.143,150.885,169.486,155.096,169.486" id="path215" style="fill:#409FFF;"/>
  <path d="M155.096,169.486  c13.07-7.774-26.706-8.84-29.951-6.217C112.931,173.143,150.885,169.486,155.096,169.486" id="path217" style="fill:none;stroke:#0000FF;stroke-width:2;stroke-linecap:square;stroke-miterlimit:10;"/>
  <line id="line219" style="fill:none;stroke:#FFFF40;stroke-linecap:square;stroke-miterlimit:10;" x1="125.78" x2="125.907" y1="172.787" y2="175.451"/>
  <line id="line221" style="fill:none;stroke:#FFFF40;stroke-linecap:square;stroke-miterlimit:10;" x1="125.78" x2="125.907" y1="177.229" y2="179.893"/>
  <line id="line223" style="fill:none;stroke:#FFFF40;stroke-linecap:square;stroke-miterlimit:10;" x1="125.78" x2="125.907" y1="182.05" y2="184.715"/>
  <line id="line225" style="fill:none;stroke:#FFFF40;stroke-linecap:square;stroke-miterlimit:10;" x1="125.78" x2="125.907" y1="186.366" y2="189.03"/>
  <line id="line227" style="fill:none;stroke:#FFFF40;stroke-linecap:square;stroke-miterlimit:10;" x1="125.78" x2="125.907" y1="190.807" y2="193.472"/>
  <line id="line229" style="fill:none;stroke:#FFFF40;stroke-linecap:square;stroke-miterlimit:10;" x1="153.952" x2="153.952" y1="173.041" y2="175.705"/>
  <line id="line231" style="fill:none;stroke:#FFFF40;stroke-linecap:square;stroke-miterlimit:10;" x1="153.952" x2="153.952" y1="177.482" y2="180.147"/>
  <line id="line233" style="fill:none;stroke:#FFFF40;stroke-linecap:square;stroke-miterlimit:10;" x1="153.952" x2="153.952" y1="182.304" y2="184.969"/>
  <line id="line235" style="fill:none;stroke:#FFFF40;stroke-linecap:square;stroke-miterlimit:10;" x1="153.952" x2="153.952" y1="186.618" y2="189.284"/>
  <line id="line237" style="fill:none;stroke:#FFFF40;stroke-linecap:square;stroke-miterlimit:10;" x1="153.952" x2="153.952" y1="191.06" y2="193.726"/>
  <line id="line239" style="fill:none;stroke:#FFFF40;stroke-linecap:square;stroke-miterlimit:10;" x1="129.968" x2="132.633" y1="193.472" y2="193.472"/>
  <line id="line241" style="fill:none;stroke:#FFFF40;stroke-linecap:square;stroke-miterlimit:10;" x1="134.537" x2="137.201" y1="193.472" y2="193.472"/>
  <line id="line243" style="fill:none;stroke:#FFFF40;stroke-linecap:square;stroke-miterlimit:10;" x1="139.232" x2="141.896" y1="193.472" y2="193.472"/>
  <line id="line245" style="fill:none;stroke:#FFFF40;stroke-linecap:square;stroke-miterlimit:10;" x1="143.546" x2="146.212" y1="193.472" y2="193.472"/>
  <line id="line247" style="fill:none;stroke:#FFFF40;stroke-linecap:square;stroke-miterlimit:10;" x1="148.115" x2="150.779" y1="193.472" y2="193.472"/>
  <line id="line249" style="fill:none;stroke:#FFFF40;stroke-linecap:square;stroke-miterlimit:10;" x1="129.206" x2="131.872" y1="173.041" y2="173.041"/>
  <line id="line251" style="fill:none;stroke:#FFFF40;stroke-linecap:square;stroke-miterlimit:10;" x1="133.648" x2="136.313" y1="173.041" y2="173.041"/>
  <line id="line253" style="fill:none;stroke:#FFFF40;stroke-linecap:square;stroke-miterlimit:10;" x1="138.47" x2="141.136" y1="173.041" y2="173.041"/>
  <line id="line255" style="fill:none;stroke:#FFFF40;stroke-linecap:square;stroke-miterlimit:10;" x1="142.658" x2="145.323" y1="173.041" y2="173.041"/>
  <line id="line257" style="fill:none;stroke:#FFFF40;stroke-linecap:square;stroke-miterlimit:10;" x1="147.227" x2="149.891" y1="173.041" y2="173.041"/>
  <path d="M118.547,161.62c8.926-4.2,0.322-47.577-8.503-45.813  C101.141,117.587,108.903,160.744,118.547,161.62" id="path259" style="fill:#0080FF;"/>
  <path d="M118.547,161.62  c8.926-4.2,0.322-47.577-8.503-45.813C101.141,117.587,108.903,160.744,118.547,161.62" id="path261" style="fill:none;stroke:#0000FF;stroke-width:2;stroke-linecap:square;stroke-miterlimit:10;"/>
  <path d="M161.694,162.254c-8.595-4.356-0.332-47.496,8.629-45.813  C179.151,118.1,171.579,161.557,161.694,162.254" id="path263" style="fill:#0080FF;"/>
  <path d="M161.694,162.254  c-8.595-4.356-0.332-47.496,8.629-45.813c8.858,1.664,1.161,44.974-8.503,45.813" id="path265" style="fill:none;stroke:#0000FF;stroke-width:2;stroke-linecap:square;stroke-miterlimit:10;"/>
  <path d="M145.577,104.005c-11.595,3.809-31.441,10.514-30.33,25.761  C110.143,111.882,133.632,107.01,145.577,104.005" id="path267" style="fill:#FF9F40;"/>
  <path d="M145.577,104.005  c-11.595,3.809-31.441,10.514-30.33,25.761c-5.014-17.566,18.058-23.148,30.33-25.634" id="path269" style="fill:none;stroke:#BF0000;stroke-width:2;stroke-linecap:square;stroke-miterlimit:10;"/>
  <path d="M153.064,101.721c-11.596,3.808-31.44,10.514-30.33,25.761  C117.635,109.594,141.114,104.725,153.064,101.721" id="path271" style="fill:#FF9F40;"/>
  <path d="M153.064,101.721  c-11.596,3.808-31.44,10.514-30.33,25.761c-5.009-17.571,18.053-23.148,30.33-25.635" id="path273" style="fill:none;stroke:#BF0000;stroke-width:2;stroke-linecap:square;stroke-miterlimit:10;"/>
  <path d="M158.268,87.635c-9.051,8.221-24.278,22.451-17.006,35.913  C129.35,109.354,148.633,95.079,158.268,87.635" id="path275" style="fill:#FF9F40;"/>
  <path d="M158.268,87.635  c-9.051,8.221-24.278,22.451-17.006,35.913c-11.765-14.019,6.949-28.507,17.133-35.913" id="path277" style="fill:none;stroke:#BF0000;stroke-width:2;stroke-linecap:square;stroke-miterlimit:10;"/>
  <path d="M159.028,100.833c-11.581,3.927-31.373,10.414-30.203,25.761  C123.715,108.513,147.274,103.921,159.028,100.833" id="path279" style="fill:#FF9F40;"/>
  <path d="M159.028,100.833  c-11.581,3.927-31.373,10.414-30.203,25.761c-4.992-17.662,17.898-23.147,30.331-25.634" id="path281" style="fill:none;stroke:#BF0000;stroke-width:2;stroke-linecap:square;stroke-miterlimit:10;"/>
  <path d="M135.551,103.116c11.712,3.685,31.472,10.516,30.457,25.762  C170.96,110.967,147.797,106.063,135.551,103.116" id="path283" style="fill:#FF9F40;"/>
  <path d="M135.551,103.116  c11.712,3.685,31.472,10.516,30.457,25.762c4.873-17.625-17.924-23.122-30.329-25.635" id="path285" style="fill:none;stroke:#BF0000;stroke-width:2;stroke-linecap:square;stroke-miterlimit:10;"/>
  <path d="M128.065,100.959c11.73,3.21,31.503,10.672,30.457,25.634  C163.419,108.973,140.494,103.359,128.065,100.959" id="path287" style="fill:#FF9F40;"/>
  <path d="M128.065,100.959  c11.73,3.21,31.503,10.672,30.457,25.634c4.896-17.618-17.942-23.125-30.33-25.634" id="path289" style="fill:none;stroke:#BF0000;stroke-width:2;stroke-linecap:square;stroke-miterlimit:10;"/>
  <path d="M122.861,86.746c9.276,8.132,24.304,22.541,17.132,36.04  C151.716,108.3,132.967,94.536,122.861,86.746" id="path291" style="fill:#FF9F40;"/>
  <path d="M122.861,86.746  c9.276,8.132,24.304,22.541,17.132,36.04c11.541-14.263-6.649-28.448-17.132-35.913" id="path293" style="fill:none;stroke:#BF0000;stroke-width:2;stroke-linecap:square;stroke-miterlimit:10;"/>
  <path d="M122.1,99.944c11.7,3.804,31.41,10.42,30.33,25.762C157.506,107.72,134.21,102.953,122.1,99.944" id="path295" style="fill:#FF9F40;"/>
  <path d="M122.1,99.944  c11.7,3.804,31.41,10.42,30.33,25.762c4.986-17.667-17.892-23.147-30.33-25.635" id="path297" style="fill:none;stroke:#BF0000;stroke-width:2;stroke-linecap:square;stroke-miterlimit:10;"/>
  <path d="M154.967,105.528c8.669,8.667,24.381,22.682,37.184,14.34  C178.944,132.436,163.042,115.56,154.967,105.528" id="path299" style="fill:#FF9F40;"/>
  <path d="M154.967,105.528  c8.669,8.667,24.381,22.682,37.184,14.34c-13.296,12.654-28.808-4.417-37.184-14.213" id="path301" style="fill:none;stroke:#BF0000;stroke-width:2;stroke-linecap:square;stroke-miterlimit:10;"/>
  <path d="M149.385,100.071c8.593,8.689,24.459,22.629,37.182,14.34  C173.041,126.983,157.868,109.997,149.385,100.071" id="path303" style="fill:#FF9F40;"/>
  <path d="M149.385,100.071  c8.593,8.689,24.459,22.629,37.182,14.34C173.041,126.983,157.868,109.997,149.385,100.071" id="path305" style="fill:none;stroke:#BF0000;stroke-width:2;stroke-linecap:square;stroke-miterlimit:10;"/>
  <path d="M134.41,102.229c11.511,4.648,31.388,10.389,39.847-2.158  C167.229,116.882,146.002,108.098,134.41,102.229" id="path307" style="fill:#FF9F40;"/>
  <path d="M134.41,102.229  c11.511,4.648,31.388,10.389,39.847-2.158c-7.048,16.86-28.026,7.891-39.72,2.285" id="path309" style="fill:none;stroke:#BF0000;stroke-width:2;stroke-linecap:square;stroke-miterlimit:10;"/>
  <path d="M145.703,95.249c8.675,8.9,24.277,22.303,37.184,14.34  C169.548,122.154,153.979,105.115,145.703,95.249" id="path311" style="fill:#FF9F40;"/>
  <path d="M145.703,95.249  c8.675,8.9,24.277,22.303,37.184,14.34C169.548,122.154,153.979,105.115,145.703,95.249" id="path313" style="fill:none;stroke:#BF0000;stroke-width:2;stroke-linecap:square;stroke-miterlimit:10;"/>
  <path d="M132.506,104.894c-9.463,7.781-27.086,19.08-38.579,9.391  C105.14,128.582,123.465,113.76,132.506,104.894" id="path315" style="fill:#FF9F40;"/>
  <path d="M132.506,104.894  c-9.463,7.781-27.086,19.08-38.579,9.391c11.304,14.415,29.223-0.701,38.579-9.264" id="path317" style="fill:none;stroke:#BF0000;stroke-width:2;stroke-linecap:square;stroke-miterlimit:10;"/>
  <path d="M138.725,100.198c-9.358,7.887-27.119,18.912-38.579,9.391  C111.241,123.74,130.072,109.15,138.725,100.198" id="path319" style="fill:#FF9F40;"/>
  <path d="M138.725,100.198  c-9.358,7.887-27.119,18.912-38.579,9.391c11.301,14.414,29.274-0.775,38.706-9.264" id="path321" style="fill:none;stroke:#BF0000;stroke-width:2;stroke-linecap:square;stroke-miterlimit:10;"/>
  <path d="M143.039,95.883c-9.598,7.538-27.044,19.212-38.579,9.391  C115.671,119.565,133.935,104.665,143.039,95.883" id="path323" style="fill:#FF9F40;"/>
  <path d="M143.039,95.883  c-9.598,7.538-27.044,19.212-38.579,9.391c11.304,14.409,29.159-0.786,38.579-9.264" id="path325" style="fill:none;stroke:#BF0000;stroke-width:2;stroke-linecap:square;stroke-miterlimit:10;"/>
  <path d="M118.166,45.884c-5.923,10.601-19.13,27.27-32.995,22.081  C100.328,77.751,113.128,57.132,118.166,45.884" id="path327" style="fill:#FF9F40;"/>
  <path d="M118.166,45.884  c-5.923,10.601-19.13,27.27-32.995,22.081c15.403,9.945,27.312-10.943,33.122-21.955" id="path329" style="fill:none;stroke:#BF0000;stroke-width:2;stroke-linecap:square;stroke-miterlimit:10;"/>
  <path d="M122.48,39.284c-6.313,10.709-18.838,27.098-33.121,22.208  C105.062,70.634,116.809,50.917,122.48,39.284" id="path331" style="fill:#FF9F40;"/>
  <path d="M122.48,39.284  c-6.313,10.709-18.838,27.098-33.121,22.208c15.764,9.178,27.21-10.58,33.121-22.081" id="path333" style="fill:none;stroke:#BF0000;stroke-width:2;stroke-linecap:square;stroke-miterlimit:10;"/>
  <path d="M137.455,38.143c-9.8,7.086-28.7,17.076-39.212,6.599C108.522,59.658,127.747,46.445,137.455,38.143" id="path335" style="fill:#FF9F40;"/>
  <path d="M137.455,38.143  c-9.8,7.086-28.7,17.076-39.212,6.599c10.373,15.051,29.182,1.489,39.212-6.472" id="path337" style="fill:none;stroke:#BF0000;stroke-width:2;stroke-linecap:square;stroke-miterlimit:10;"/>
  <path d="M125.019,33.828c-6.362,10.389-19.041,27.305-33.121,22.081  C107.473,65.562,119.211,45.128,125.019,33.828" id="path339" style="fill:#FF9F40;"/>
  <path d="M125.019,33.828  c-6.362,10.389-19.041,27.305-33.121,22.081C107.473,65.562,119.211,45.128,125.019,33.828" id="path341" style="fill:none;stroke:#BF0000;stroke-width:2;stroke-linecap:square;stroke-miterlimit:10;"/>
  <path d="M158.774,45.122c6.211,10.531,19.003,27.446,33.122,22.208  C176.37,76.754,164.346,56.544,158.774,45.122" id="path343" style="fill:#FF9F40;"/>
  <path d="M158.774,45.122  c6.211,10.531,19.003,27.446,33.122,22.208c-15.584,9.459-27.318-10.789-33.122-22.081" id="path345" style="fill:none;stroke:#BF0000;stroke-width:2;stroke-linecap:square;stroke-miterlimit:10;"/>
  <path d="M154.461,38.65c6.346,10.363,19.086,27.288,33.121,22.081  C172.021,70.485,160.352,49.812,154.461,38.65" id="path347" style="fill:#FF9F40;"/>
  <path d="M154.461,38.65  c6.346,10.363,19.086,27.288,33.121,22.081C172.021,70.485,160.352,49.812,154.461,38.65" id="path349" style="fill:none;stroke:#BF0000;stroke-width:2;stroke-linecap:square;stroke-miterlimit:10;"/>
  <path d="M139.486,37.508c10.131,6.814,28.511,17.233,39.212,6.472  C168.535,59.34,149.435,45.281,139.486,37.508" id="path351" style="fill:#FF9F40;"/>
  <path d="M139.486,37.508  c10.131,6.814,28.511,17.233,39.212,6.472C168.535,59.34,149.435,45.281,139.486,37.508" id="path353" style="fill:none;stroke:#BF0000;stroke-width:2;stroke-linecap:square;stroke-miterlimit:10;"/>
  <path d="M151.922,33.066c6.576,10.506,18.782,27.116,33.121,22.208  C169.142,64.666,158.009,44.353,151.922,33.066" id="path355" style="fill:#FF9F40;"/>
  <path d="M151.922,33.066  c6.576,10.506,18.782,27.116,33.121,22.208c-15.727,9.288-27.129-10.668-32.994-22.081" id="path357" style="fill:none;stroke:#BF0000;stroke-width:2;stroke-linecap:square;stroke-miterlimit:10;"/>
  <path d="M141.77,113.015c-35.638-1.95-52.565-56.481-13.578-68.909  C177.765,28.305,188.636,110.787,141.77,113.015" id="path359" style="fill:#FFFF80;"/>
  <path d="M141.77,113.015  c-35.638-1.95-52.565-56.481-13.578-68.909C177.765,28.305,188.636,110.787,141.77,113.015" id="path361" style="fill:none;stroke:#BF8080;stroke-width:2;stroke-linecap:square;stroke-miterlimit:10;"/>
  <path d="M125.78,75.452c-8.537-1.464-9.521-17.385,0-17.386C135.302,58.065,134.318,73.988,125.78,75.452" id="path363" style="fill:#FFFFFF;"/>
  <path d="M125.78,75.452  c-8.537-1.464-9.521-17.385,0-17.386C135.302,58.065,134.318,73.988,125.78,75.452" id="path365" style="fill:none;stroke:#000000;stroke-linecap:square;stroke-miterlimit:10;"/>
  <path d="M150.907,75.071c-8.79-1.023-9.322-17.26,0-17.259C160.359,57.813,159.528,74.197,150.907,75.071" id="path367" style="fill:#FFFFFF;"/>
  <path d="M150.907,75.071  c-8.79-1.023-9.322-17.26,0-17.259c9.446,0.001,8.632,16.045,0,17.385" id="path369" style="fill:none;stroke:#000000;stroke-linecap:square;stroke-miterlimit:10;"/>
  <path d="M116.516,60.224c3.993-6.69,12.799-11.403,16.878-1.65C129.732,47.38,120.552,51.299,116.516,60.224" id="path371"/>
  <path d="M116.516,60.224  c3.993-6.69,12.799-11.403,16.878-1.65c-3.589-10.971-12.876-7.604-16.75,1.65" id="path373" style="fill:none;stroke:#000000;stroke-linecap:square;stroke-miterlimit:10;"/>
  <path d="M159.791,60.478c-3.857-6.82-12.729-11.27-16.752-1.65C146.721,47.572,156.143,51.77,159.791,60.478" id="path375"/>
  <path d="M159.791,60.478  c-3.857-6.82-12.729-11.27-16.752-1.65c3.618-11.061,13-7.417,16.752,1.777" id="path377" style="fill:none;stroke:#000000;stroke-linecap:square;stroke-miterlimit:10;"/>
  <path d="M125.78,63.396c6.456,1.382,7.529,11.812,0,11.802C118.097,75.187,119.521,64.674,125.78,63.396" id="path379" style="fill:#000080;"/>
  <path d="M125.78,63.396  c6.456,1.382,7.529,11.812,0,11.802c-7.468-0.01-6.548-10.485,0-11.675" id="path381" style="fill:none;stroke:#000000;stroke-linecap:square;stroke-miterlimit:10;"/>
  <path d="M150.907,63.396c6.455,1.382,7.528,11.812,0,11.802C143.224,75.188,144.646,64.674,150.907,63.396" id="path383" style="fill:#000080;"/>
  <path d="M150.907,63.396  c6.455,1.382,7.528,11.812,0,11.802c-7.469-0.01-6.549-10.484,0-11.675" id="path385" style="fill:none;stroke:#000000;stroke-linecap:square;stroke-miterlimit:10;"/>
  <path d="M122.735,67.965C122.868,65.042,122.868,65.045,122.735,67.965" id="path387" style="fill:#FFFFFF;"/>
  <path d="M148.242,68.092C148.436,65.415,148.438,65.38,148.242,68.092" id="path389" style="fill:#FFFFFF;"/>
  <path d="M139.104,86.873c-7.477-0.807-7.721-11.197,0.128-11.167  C147.168,75.737,146.72,86.551,139.104,86.873" id="path391" style="fill:#9F4040;"/>
  <path d="M139.104,86.873  c-7.477-0.807-7.721-11.197,0.128-11.167c7.857,0.03,7.536,10.542,0,11.294" id="path393" style="fill:none;stroke:#000000;stroke-linecap:square;stroke-miterlimit:10;"/>
  <path d="M137.709,76.721c-1.123,1.018-2.28,1.397-2.792,3.173C134.274,80.557,138.709,75.814,137.709,76.721" id="path395" style="fill:#FFFFFF;"/>
  <path d="M117.15,83.573  c13.618,21.223,29.428,19.93,42.893,0" id="path397" style="fill:none;stroke:#FF4040;stroke-width:2;stroke-linecap:square;stroke-miterlimit:10;"/>
  <path d="M119.182,79.259  c-0.419,4.889-3.716,6.411-7.996,4.061" id="path399" style="fill:none;stroke:#FF4040;stroke-width:2;stroke-linecap:square;stroke-miterlimit:10;"/>
  <path d="M165.628,84.462  c-4.669,1.299-7.11-1.338-6.345-6.092" id="path401" style="fill:none;stroke:#FF4040;stroke-width:2;stroke-linecap:square;stroke-miterlimit:10;"/>
  <path d="M137.455,51.467c5.553,0.046,32.777,2.581,34.264-5.838c1.76-9.967-29.307-12.723-34.264-12.69  c-5.341,0.036-35.26,2.965-33.629,13.325C105.091,54.305,132.278,51.467,137.455,51.467" id="path403" style="fill:#9F4040;"/>
  <path d="M137.455,51.467  c5.553,0.046,32.777,2.581,34.264-5.838c1.76-9.967-29.307-12.723-34.264-12.69c-5.341,0.036-35.26,2.965-33.629,13.325  C105.091,54.305,132.278,51.467,137.455,51.467" id="path405" style="fill:none;stroke:#800000;stroke-width:2;stroke-linecap:square;stroke-miterlimit:10;"/>
  <path d="M153.952,45.629c14.979-0.531,7.664-28.331,6.917-36.611c-0.381-4.211-3.7-7.489-7.869-7.869  c-4.227-0.384-8.431,3.316-12.627,3.363c-4.396,0.049-8.833-3.766-13.261-3.363c-10.943,0.995-13.714,29.504-11.865,35.977  C119.428,51.764,142.492,45.629,153.952,45.629" id="path407" style="fill:#9F4040;"/>
  <path d="M153.952,45.629  c14.979-0.531,7.664-28.331,6.917-36.611c-0.385-4.261-3.373-6.641-7.171-7.805c-3.336-1.022-8.932,2.038-12.085,2.943  c-4.505,1.294-9.443-3.88-13.802-3.07c-13.343,2.48-11.014,25.241-12.454,35.273c-2.201,15.334,31.892,9.27,38.723,9.27" id="path409" style="fill:none;stroke:#800000;stroke-width:2;stroke-linecap:square;stroke-miterlimit:10;"/>
  <path d="M130.349,4.767c-6.05,0.797-8.568,6.906-8.503,11.802C122.905,11.583,125.683,7.042,130.349,4.767" id="path411" style="fill:#DFBFBF;"/>
  <path d="M130.349,4.767  c-6.05,0.797-8.568,6.906-8.503,11.802C122.905,11.583,125.683,7.042,130.349,4.767" id="path413" style="fill:none;stroke:#DFBFBF;stroke-width:2;stroke-linecap:square;stroke-miterlimit:10;"/>
  <path d="M117.913,159.716C108.089,153.256,127.772,153.432,117.913,159.716" id="path415"/>
  <path d="M117.913,159.716  c-9.695-6.375,9.699-6.602,0,0.126" id="path417" style="fill:none;stroke:#FFFFFF;stroke-linecap:square;stroke-miterlimit:10;"/>
  <path d="M162.836,160.223C153.105,153.681,172.79,153.764,162.836,160.223" id="path419"/>
  <path d="M162.836,160.223  C153.105,153.681,172.79,153.764,162.836,160.223" id="path421" style="fill:none;stroke:#FFFFFF;stroke-linecap:square;stroke-miterlimit:10;"/>
</svg>
