<?xml version="1.0" encoding="UTF-8" standalone="no"?>
<!DOCTYPE svg PUBLIC "-//W3C//DTD SVG 20010904//EN"
"http://www.w3.org/TR/2001/REC-SVG-20010904/DTD/svg10.dtd">
<!-- Created with Sodipodi ("http://www.sodipodi.com/") --><svg height="297mm" id="svg548" sodipodi:docbase="/art/" sodipodi:docname="/art/ame2" sodipodi:version="0.32" width="210mm" xmlns="http://www.w3.org/2000/svg" xmlns:sodipodi="http://sodipodi.sourceforge.net/DTD/sodipodi-0.dtd" xmlns:xlink="http://www.w3.org/1999/xlink">
  <metadata>
    <rdf:RDF xmlns:cc="http://web.resource.org/cc/" xmlns:dc="http://purl.org/dc/elements/1.1/" xmlns:rdf="http://www.w3.org/1999/02/22-rdf-syntax-ns#">
      <cc:Work rdf:about="">
        <dc:title>My lovely baby</dc:title>
        <dc:description>My lovely baby</dc:description>
        <dc:subject>
          <rdf:Bag>
            <rdf:li>people</rdf:li>
            <rdf:li>daughter</rdf:li>
            <rdf:li>lovely</rdf:li>
          </rdf:Bag>
        </dc:subject>
        <dc:publisher>
          <cc:Agent rdf:about="http://www.openclipart.org">
            <dc:title>Enrique Meza C</dc:title>
          </cc:Agent>
        </dc:publisher>
        <dc:creator>
          <cc:Agent>
            <dc:title>Enrique Meza C</dc:title>
          </cc:Agent>
        </dc:creator>
        <dc:rights>
          <cc:Agent>
            <dc:title>Enrique Meza C</dc:title>
          </cc:Agent>
        </dc:rights>
        <dc:date></dc:date>
        <dc:format>image/svg+xml</dc:format>
        <dc:type rdf:resource="http://purl.org/dc/dcmitype/StillImage"/>
        <cc:license rdf:resource="http://web.resource.org/cc/PublicDomain"/>
        <dc:language>en</dc:language>
      </cc:Work>
      <cc:License rdf:about="http://web.resource.org/cc/PublicDomain">
        <cc:permits rdf:resource="http://web.resource.org/cc/Reproduction"/>
        <cc:permits rdf:resource="http://web.resource.org/cc/Distribution"/>
        <cc:permits rdf:resource="http://web.resource.org/cc/DerivativeWorks"/>
      </cc:License>
    </rdf:RDF>
  </metadata>
  <defs id="defs550"/>
  <sodipodi:namedview id="base"/>
  <path d="M 631.124 -70.9437 C 630.339 -71.3362 629.554 -71.7287 628.769 -72.1212 C 634.788 -69.1113 631.965 -70.6913 619.349 -74.4761 C 608.081 -77.9513 599.221 -82.2624 587.213 -82.3735 C 581.032 -79.9011 585.868 -75.6535 583.276 -68.7908 C 587.544 -64.5221 582.539 -67.3618 588.735 -65.0564 C 595.307 -59.7565 601.17 -57.0965 609.929 -55.6366 C 622.313 -52.2708 612.237 -51.8737 625.271 -51.7594 C 630.941 -52.3893 636.312 -52.8537 632.621 -57.4674 C 628.47 -60.1281 644.868 -54.0465 631.124 -70.9437 z " id="path643" sodipodi:nodetypes="cccccccccc" style="fill:#e3a298;fill-rule:evenodd;stroke:black;stroke-opacity:1;stroke-width:1pt;stroke-linejoin:miter;stroke-linecap:butt;fill-opacity:1;" transform="matrix(0.826596,0.000000,0.000000,0.916736,27.98883,196.2811)"/>
  <path d="M -192.314 298.058 C -182.346 301.895 -172.226 294.811 -165.004 289.585 C -157.093 280.373 -161.57 271.847 -153.18 264.812 C -142.847 256.376 -141.698 250.006 -136.281 232.848 C -136.007 217.186 -137.28 202.964 -140.377 195.027 C -135.46 153.504 -125.187 133.791 -159.916 111.298 C -169.529 111.023 -263.769 144.431 -275.579 183.713 C -273.656 190.589 -269.745 216.425 -270.569 248.284 C -250.536 289.284 -229.556 296.436 -192.314 298.058 z " id="path612" sodipodi:nodetypes="ccscccccc" style="fill:#e2a298;fill-rule:evenodd;stroke:black;stroke-opacity:1;stroke-width:1pt;stroke-linejoin:miter;stroke-linecap:butt;fill-opacity:1;" transform="matrix(0.529702,0.000000,0.000000,0.538605,648.5082,-21.18945)"/>
  <path d="M 399.234 215.179 C 399.234 215.362 395.169 211.75 395.169 211.933 C 395.169 210.398 402.793 197.012 401.626 199.928 C 364.851 196.997 385.186 231.21 377.561 238.095 C 374.849 250.349 386.617 246.284 399.489 265.571 C 411.481 278.72 426.436 261.883 419.176 296.552 C 426.574 292.983 419.212 279.7 435.769 278.13 C 438.265 262.013 397.693 252.388 397.693 247.639 C 397.881 245.378 397.143 243.047 397.143 240.498 C 395.719 234.845 393.504 229.164 392.749 223.469 C 392.147 222.666 400.577 211.312 399.974 210.509 L 392.749 223.469 C 392.147 222.666 401.484 218.728 399.234 215.179 z " id="path640" sodipodi:nodetypes="ccccccccccccc" style="fill:#232b32;fill-rule:evenodd;stroke:black;stroke-opacity:1;stroke-width:1pt;stroke-linejoin:miter;stroke-linecap:butt;fill-opacity:1;" transform="matrix(1.156429,0.845574,-0.805975,1.213245,229.0207,-565.0103)"/>
  <path d="M -699.596 158.142 C -704.043 156.229 -705.693 152.06 -710.116 150.013 C -724.849 149.632 -717.779 170.744 -716.332 176.792 C -714.479 184.841 -710.618 201.966 -690.51 210.743 C -687.633 210.562 -678.917 213.154 -674.251 210.265 C -669.408 207.626 -669.27 200.871 -668.035 198.31 C -676.003 185.728 -673.672 177.627 -679.512 169.619 C -687.138 164.472 -685.091 152.882 -699.596 158.142 z " id="path639" sodipodi:nodetypes="cccccccc" style="fill:#e3a298;fill-rule:evenodd;stroke:black;stroke-opacity:1;stroke-width:1pt;stroke-linejoin:miter;stroke-linecap:butt;fill-opacity:1;" transform="matrix(0.445085,0.000000,0.000000,0.452746,810.8304,12.96765)"/>
  <path d="M 348.776 599.49 C 345.401 590.777 520.592 639.165 516.493 649.928 C 516.493 649.928 413.979 690.015 412.617 717.721 C 410.567 723.359 410.231 739.253 410.231 739.978 C 410.231 740.702 418.929 763.171 418.204 763.171 C 417.479 763.171 439.948 789.263 439.948 789.988 C 439.948 790.713 460.507 805.039 476.597 815.45 C 478.589 818.764 469.223 819.239 464.906 812.142 C 466.216 824.383 456.484 820.534 448.645 811.007 C 449.907 819.841 450.597 830.567 425.452 810.282 C 426.808 814.289 428.794 811.724 429.74 815.825 C 428.478 819.926 425.852 832.605 408.278 821.563 C 404.587 818.409 398.635 809.148 398.635 808.833 C 376.11 837.3 367.151 821.6 368.918 808.108 C 363.87 816.311 334.913 835.777 338.477 806.658 C 336.047 810.982 334.478 811.161 331.954 814.946 C 312.079 831.352 309.485 808.329 311.787 806.974 C 311.882 805.934 285.311 827.293 291.493 805.524 C 295.152 808.679 335.138 778.289 335.863 777.564 C 336.587 776.839 341.17 745.357 348.857 753.045 L 348.776 599.49 z " id="path573" sodipodi:nodetypes="ccccccccccccccccccccc" style="fill:#7d97a3;fill-rule:evenodd;stroke:black;stroke-opacity:1;stroke-width:1pt;stroke-linejoin:miter;stroke-linecap:butt;fill-opacity:1;" transform="matrix(1.409583,0.000000,0.000000,1.478837,-79.36627,-278.4308)"/>
  <path d="M 143.915 123.671 C 148.309 129.164 140.691 134.342 137.144 135.314 C 139.819 137.422 138.831 142.289 135.142 146.177 C 140.971 142.779 140.681 140.357 141.782 137.217 C 146.592 135.603 153.573 124.761 143.915 123.671 z " id="path613" sodipodi:nodetypes="ccccc" style="fill:#a18f79;fill-rule:evenodd;stroke:#a7387d;stroke-opacity:1;stroke-width:0.125;stroke-linejoin:miter;stroke-linecap:butt;fill-opacity:1;stroke-dasharray:none;" transform="matrix(0.333707,-0.442982,0.574540,0.314839,377.0654,116.4673)"/>
  <path d="M 435.849 664.295 C 427.143 776.355 423.751 778.415 448.224 819.34 C 461.584 856.424 418.611 895.372 400.574 801.445 C 371.721 899.714 340.398 862.641 348.357 814.361 C 336.406 765.325 416.009 773.228 374 603.663 C 357.666 303.297 393.228 796.927 435.849 664.295 z " id="path610" sodipodi:nodetypes="cccccc" style="fill:#f0f7fb;fill-rule:evenodd;stroke:black;stroke-opacity:1;stroke-width:1pt;stroke-linejoin:miter;stroke-linecap:butt;fill-opacity:0.790055;" transform="matrix(0.758630,0.000000,0.000000,0.480130,179.2477,525.0350)"/>
  <path d="M 174.414 720.96 C 181.044 694.707 95.9151 630.815 77.2018 618.826 C 12.7033 551.955 126.834 605.476 159.729 638.974 C 174.362 661.397 185.452 665.895 183.702 677.17 C 188.102 683.833 206.611 708.051 198.923 709.588 L 174.414 720.96 z " id="path605" sodipodi:nodetypes="cccccc" style="fill:#638ab5;fill-rule:evenodd;stroke:black;stroke-opacity:1;stroke-width:1pt;stroke-linejoin:miter;stroke-linecap:butt;fill-opacity:1;" transform="matrix(0.430796,-1.098240,0.992357,0.432750,-109.4604,596.5354)"/>
  <path d="M 174.414 720.96 C 181.044 694.707 109.542 658.861 100.812 649.33 C 36.3135 582.459 60.4199 550.043 61.4343 547.531 C 71.24 573.758 123.164 612.503 167.798 630.037 C 175.574 635.06 185.452 665.895 183.702 677.17 C 188.102 683.833 206.611 708.051 198.923 709.588 L 174.414 720.96 z " id="path575" sodipodi:nodetypes="ccccccc" style="fill:#638ab5;fill-rule:evenodd;stroke:black;stroke-opacity:1;stroke-width:1pt;stroke-linejoin:miter;stroke-linecap:butt;fill-opacity:1;" transform="matrix(1.409583,0.000000,0.000000,1.478837,-79.36627,-278.4308)"/>
  <path d="M 186.609 743.264 C 176.996 744.406 174.484 734.051 185.496 728.092 C 162.086 734.208 177.898 713.612 186.271 708.232 C 182.213 710.261 157.336 713.251 184.725 694.316 C 153.955 706.151 177.431 680.641 184.821 677.646 C 149.608 702.715 170.616 659.575 174.674 660.251 C 146.948 690.682 155.83 656.24 155.83 655.515 C 134.866 678.459 141.334 645.755 141.334 645.755 C 111.579 667.733 126.838 635.608 126.838 635.608 C 90.3202 642.709 107.269 622.948 107.269 622.948 C 107.269 622.948 73.9836 633.62 95.2856 610.627 C 77.3649 621.109 80.9355 606.711 84.3653 603.33 C 78.3275 610.431 62.6749 609.173 77.5525 594.295 C 64.3655 597.338 64.2183 591.489 70.3046 582.698 C 69.2902 579.993 50.0138 585.351 60.8824 571.826 C 64.6503 567.768 63.7815 568.927 63.7815 568.927 C 59.0477 570.956 51.0767 565.881 61.6072 558.055 C 62.332 557.331 107.269 616.763 107.994 618.213 C 108.719 619.662 164.527 643.581 164.527 643.581 L 187.721 670.398 L 193.519 702.289 L 186.609 743.264 z " id="path574" sodipodi:nodetypes="cccccccccccccccccccccc" style="fill:#e8f6fd;fill-rule:evenodd;stroke:black;stroke-opacity:1;stroke-width:1pt;stroke-linejoin:miter;stroke-linecap:butt;fill-opacity:1;" transform="matrix(1.409583,0.000000,0.000000,1.478837,-79.36627,-278.4308)"/>
  <path d="M 497.755 347.566 C 523.97 365.03 527.122 371.731 567.174 380.483 C 564.504 386.86 560.296 386.063 553.013 391.928 C 550.868 397.835 547.699 401.18 544.017 408.112 C 542.992 409.137 553.015 405.125 552.29 405.125 L 560.563 396.412 C 557.488 402.562 563.286 417.731 554.589 419.905 C 557.488 430.777 566.589 432.33 563.213 431.305 C 571.113 398.504 591.407 416.68 577.658 372.993 C 540.539 335.375 538.856 356.813 514.601 326.847 L 508.078 328.297 L 497.755 347.566 z " id="path554" sodipodi:nodetypes="cccccccccccc" style="fill:#bdd9f6;fill-rule:evenodd;stroke:black;stroke-opacity:1;stroke-width:1pt;stroke-linejoin:miter;stroke-linecap:butt;fill-opacity:1;" transform="matrix(1.409583,0.000000,0.000000,1.478837,-79.36627,-278.4308)"/>
  <path d="M 354.422 341.343 L 332.679 358.013 L 308.036 366.711 L 286.292 372.509 L 265.273 383.381 L 267.448 394.977 L 263.099 411.647 L 260.199 413.097 L 260.2 407.299 C 260.2 407.299 260.924 395.702 261.649 396.427 C 260.2 397.877 257.3 392.078 256.576 392.078 C 255.851 392.078 249.328 401.501 249.328 401.501 L 244.254 405.124 C 244.254 405.124 237.731 410.198 237.006 410.198 C 236.282 410.198 229.034 413.097 229.034 413.097 L 232.658 404.4 C 252.469 380.723 241.114 388.213 252.952 376.133 L 265.998 368.16 C 301.029 338.202 324.464 341.585 345 317.425 L 346.45 329.022 C 346.45 329.022 354.422 342.793 354.422 341.343 z " id="path555" sodipodi:nodetypes="ccccccccccccccccccccc" style="fill:#bbd4f3;fill-rule:evenodd;stroke:black;stroke-opacity:1;stroke-width:1pt;stroke-linejoin:miter;stroke-linecap:butt;fill-opacity:1;" transform="matrix(1.409583,0.000000,0.000000,1.478837,-79.36627,-278.4308)"/>
  <path d="M 416.03 422.52 L 398.635 432.667 L 373.267 442.814 L 358.771 448.612 C 358.771 448.612 345.725 450.786 345 450.786 C 344.275 450.786 322.532 450.786 322.532 450.786 C 322.532 450.786 305.523 446.438 305.523 445.713 C 334.627 400.689 377.595 401.65 392.836 402.95 C 392.836 402.95 416.03 421.07 416.03 422.52 z " id="path558" sodipodi:nodetypes="ccccccccc" style="fill:#bbd2ef;fill-rule:evenodd;stroke:black;stroke-opacity:1;stroke-width:1pt;stroke-linejoin:miter;stroke-linecap:butt;fill-opacity:1;" transform="matrix(1.409583,0.000000,0.000000,1.478837,-79.36627,-278.4308)"/>
  <path d="M 418.628 419.144 C 417.904 419.144 437.048 426.868 437.048 426.868 L 454.443 427.593 L 469.664 427.593 C 469.664 427.593 489.233 426.144 489.233 426.868 C 489.233 427.593 494.356 425.757 493.631 425.032 C 486.155 414.854 471.916 407.391 449.563 403.288 L 418.628 419.144 z " id="path559" sodipodi:nodetypes="cccccccc" style="fill:#b7cfec;fill-rule:evenodd;stroke:black;stroke-opacity:1;stroke-width:1pt;stroke-linejoin:miter;stroke-linecap:butt;fill-opacity:1;" transform="matrix(1.409583,0.000000,0.000000,1.478837,-79.36627,-276.8062)"/>
  <path d="M 344.275 317.725 C 342.437 321.312 375.441 292.782 375.441 292.782 L 405.882 289.883 C 405.882 289.883 416.03 279.736 416.754 279.011 C 417.479 278.286 432.7 287.709 432.7 287.709 L 447.92 287.709 L 457.343 295.681 L 472.563 297.856 C 472.563 297.856 502.28 311.627 502.28 312.352 C 502.28 313.076 516.775 328.297 516.775 329.022 C 516.263 336.409 513.979 345.18 503.729 346.93 C 501.167 348.678 480.536 330.471 480.536 330.471 L 418.204 343.517 L 373.904 327.836 C 373.904 327.836 354.298 343.693 352.248 341.343 C 338.923 336.943 341.501 319.987 344.275 317.725 z " id="path560" sodipodi:nodetypes="cccccccccccccccc" style="fill:#e3a298;fill-rule:evenodd;stroke:black;stroke-opacity:1;stroke-width:1pt;stroke-linejoin:miter;stroke-linecap:butt;fill-opacity:1;" transform="matrix(1.409583,0.000000,0.000000,1.478837,-79.36627,-278.4308)"/>
  <path d="M 377.616 337.719 C 377.616 337.719 369.643 329.746 368.918 329.746 C 368.193 329.746 359.496 313.076 359.496 313.076 C 359.496 313.076 356.984 311.046 356.984 308.292 C 359 273.125 365.073 262.303 387.376 286.984 L 390.662 293.507 C 389.986 291.478 377.616 339.169 377.616 337.719 z " id="path557" sodipodi:nodetypes="ccccccc" style="fill:#a4c1e6;fill-rule:evenodd;stroke:black;stroke-opacity:1;stroke-width:1pt;stroke-linejoin:miter;stroke-linecap:butt;fill-opacity:1;" transform="matrix(1.409583,0.000000,0.000000,1.478837,-79.36627,-278.4308)"/>
  <path d="M 418.977 422.616 C 440.038 424.307 446.812 426.627 462.366 428.656 L 502.28 425.419 C 502.28 425.419 542.868 408.024 542.868 408.749 C 542.868 409.473 555.914 398.602 555.914 398.602 L 555.914 402.95 C 555.914 402.95 550.84 410.923 550.84 411.648 C 550.84 412.372 540.693 421.07 540.693 421.795 C 539.002 421.844 536.293 424.938 527.115 432.377 C 457.82 460.682 434.848 430.491 418.977 422.616 z " id="path561" sodipodi:nodetypes="cccccccccc" style="fill:none;fill-rule:evenodd;stroke:black;stroke-opacity:1;stroke-width:1pt;stroke-linejoin:miter;stroke-linecap:butt;fill-opacity:1;" transform="matrix(1.409583,0.000000,0.000000,1.478837,-79.36627,-278.4308)"/>
  <path d="M 964.44 298.666 C 969.804 302.768 970.119 303.399 970.119 303.399 L 976.744 306.238 L 993.781 306.869 C 993.781 306.869 994.096 309.708 994.096 310.024 C 994.096 310.339 987.471 312.232 987.471 312.548 C 987.471 312.863 978.322 312.548 978.006 312.548 C 977.691 312.548 961.917 303.399 961.917 303.083 C 961.917 302.768 963.81 299.613 964.44 298.666 z " id="path634" style="fill:#000000;fill-rule:evenodd;stroke:black;stroke-opacity:1;stroke-width:1pt;stroke-linejoin:miter;stroke-linecap:butt;fill-opacity:1;" transform="matrix(1.409583,0.000000,0.000000,1.478837,-847.0073,-311.5834)"/>
  <path d="M 252.663 399.182 C 110.645 467.209 69.7267 531.179 61.6072 546.459 C 58.5641 550.178 56.8916 557.425 71.7542 577.625 C 77.3918 585.524 98.1139 620.518 123.227 627.392 C 137.065 649.13 183.056 644.391 188.181 697.691 C 180.853 704.704 184.799 717.355 187.721 730.006 L 185.257 746.6 C 181.918 800.147 264.581 818.213 313.88 799.074 C 343.435 791.646 357.021 771.161 358.771 766.548 C 378.896 726.315 310.557 660.26 301.513 585.597 C 301.035 585.597 300.646 565.907 310.21 553.707 C 313.557 544.853 318.183 545.009 318.908 545.009 C 319.632 545.009 358.771 537.761 359.496 537.761 C 360.221 537.761 418.929 516.018 418.929 516.018 L 466.04 487.751 C 466.04 487.751 511.702 452.236 512.427 452.236 C 513.151 452.236 557.364 400.051 557.364 400.051 L 505.179 425.419 L 457.343 428.318 C 455.43 429.274 417.74 422.288 417.016 422.288 C 416.291 422.288 368.193 445.713 368.193 445.713 C 368.193 445.713 328.181 452.091 315.284 450.738 C 284.128 431.127 283.432 403.288 252.663 399.182 z " id="path563" sodipodi:nodetypes="ccccccccccccccccccccccc" style="fill:#85abd1;fill-rule:evenodd;stroke:black;stroke-opacity:1;stroke-width:1pt;stroke-linejoin:miter;stroke-linecap:butt;fill-opacity:1;" transform="matrix(1.409583,0.000000,0.000000,1.478837,-79.36627,-278.4308)"/>
  <path d="M 414.109 426.895 C 364.377 506.752 251.047 634.428 244.831 639.688 C 260.611 629.168 350.51 517.75 350.988 517.75 C 351.467 517.75 415.065 427.373 414.109 426.895 z " id="path596" sodipodi:nodetypes="cccc" style="fill:none;fill-rule:evenodd;stroke:black;stroke-opacity:1;stroke-width:1pt;stroke-linejoin:miter;stroke-linecap:butt;fill-opacity:1;" transform="matrix(1.409583,0.000000,0.000000,1.478837,-79.36627,-278.4308)"/>
  <path d="M 415.544 427.851 C 401.198 470.41 375.854 523.489 371.55 526.358 C 375.854 525.401 312.733 640.166 290.737 666.466 C 287.39 671.248 230.007 744.888 230.007 744.888 L 311.777 637.775 L 373.463 527.793 C 373.463 527.793 416.5 427.851 415.544 427.851 z " id="path598" sodipodi:nodetypes="ccccccc" style="fill:none;fill-rule:evenodd;stroke:black;stroke-opacity:1;stroke-width:1pt;stroke-linejoin:miter;stroke-linecap:butt;fill-opacity:1;" transform="matrix(1.409583,0.000000,0.000000,1.478837,-79.36627,-278.4308)"/>
  <path d="M 318.183 545.009 C 320.357 545.009 398.495 537.755 431.584 495.151 C 480.257 443.839 512.023 469.621 553.258 400.051 C 567.365 391.451 545.042 418.896 567.511 433.391 C 572.584 438.465 587.748 519.271 560.021 575.062 C 550.554 599.745 515.326 670.398 515.326 671.123 C 515.326 671.847 497.931 646.48 497.931 646.48 L 458.792 646.48 L 402.259 651.553 L 377.14 642.767 C 339.859 618.6 355.367 593.409 347.299 561.555 L 339.202 552.982 L 318.183 545.009 z " id="path564" sodipodi:nodetypes="ccccccccccccc" style="fill:#759fc4;fill-rule:evenodd;stroke:black;stroke-opacity:1;stroke-width:1pt;stroke-linejoin:miter;stroke-linecap:butt;fill-opacity:1;" transform="matrix(1.409583,0.000000,0.000000,1.478837,-79.36627,-278.4308)"/>
  <path d="M 553.015 589.946 C 557.073 596.709 603.711 706.82 536.344 832.102 C 488.988 836.768 393.743 778.534 411.681 721.133 C 435.256 687.308 474.962 704.098 518.013 668.223 C 515.45 662.073 551.663 592.458 553.015 589.946 z " id="path568" sodipodi:nodetypes="ccccc" style="fill:#95bae4;fill-rule:evenodd;stroke:black;stroke-opacity:1;stroke-width:1pt;stroke-linejoin:miter;stroke-linecap:butt;fill-opacity:1;" transform="matrix(1.409583,0.000000,0.000000,1.478837,-79.36627,-280.2974)"/>
  <path d="M 360.945 762.747 C 380.633 733.622 380.215 714.51 381.24 673.297 C 378.165 667.447 347.029 562.207 339.129 553.282 C 334.998 550.036 325.229 542.69 315.973 545.081 C 311.636 550.845 298.049 553.258 300.612 598.871 C 303.175 643.972 373.758 721.871 360.945 762.747 z " id="path572" sodipodi:nodetypes="cccccc" style="fill:#618fba;fill-rule:evenodd;stroke:black;stroke-opacity:1;stroke-width:1pt;stroke-linejoin:miter;stroke-linecap:butt;fill-opacity:1;" transform="matrix(1.409583,0.000000,0.000000,1.478837,-79.36627,-278.4308)"/>
  <path d="M 434.698 650.41 C 424.153 664.113 416.229 679.923 419.296 694.899 C 424.727 699.206 434.967 693.984 441.437 681.549 C 440.404 696.718 455.183 694.514 459.632 677.281 C 466.11 688.238 468.336 690.702 478.543 672.039 C 477.007 686.571 494.727 679.998 504.104 659.202 L 434.698 650.41 z " id="path570" sodipodi:nodetypes="ccccccc" style="fill:#92abb2;fill-rule:evenodd;stroke:black;stroke-opacity:1;stroke-width:1pt;stroke-linejoin:miter;stroke-linecap:butt;fill-opacity:1;" transform="matrix(1.409583,0.000000,0.000000,1.478837,-79.36627,-278.4308)"/>
  <path d="M 385.896 662.841 C 388.759 678.174 388.306 671.062 382.156 681.824 C 372.931 682.337 367.997 674.058 369.021 667.483 C 368.508 658.859 356.019 671.679 349.1 663.01 C 346.281 656.135 349.949 646.391 349.949 646.391 C 348.155 647.672 342.013 650.617 342.826 650.104 C 329.288 645.491 341.941 632.973 341.428 627.635 C 337.84 625.885 334.048 629.384 334.048 628.659 C 325.079 631.01 325.175 619.963 326.669 617.276 C 327.392 615.102 329.355 612.159 330.336 610.408 C 331.062 609.683 325.263 609.128 323.212 607.121 C 323.306 602.359 323.142 597.598 339.635 592.325 C 377.52 631.718 371.074 639.079 385.896 662.841 z " id="path571" sodipodi:nodetypes="ccccccccccccc" style="fill:#cfdce4;fill-rule:evenodd;stroke:black;stroke-opacity:1;stroke-width:1pt;stroke-linejoin:miter;stroke-linecap:butt;fill-opacity:1;" transform="matrix(1.409583,0.000000,0.000000,1.478837,-79.36627,-278.4308)"/>
  <path d="M 410.673 670.865 C 388.54 740.221 365.15 749.386 356.497 680.821 C 350.209 594.225 386.485 665.716 401.28 635.111 C 522.396 540.205 421.761 795.639 410.673 670.865 z " id="path611" sodipodi:nodetypes="cccc" style="fill:#f0f7fb;fill-rule:evenodd;stroke:black;stroke-opacity:1;stroke-width:1pt;stroke-linejoin:miter;stroke-linecap:butt;fill-opacity:0.790055;" transform="matrix(0.529907,0.000000,0.000000,0.284056,378.9633,519.0829)"/>
  <path d="M 325.342 556.65 C 308.098 564.715 326.216 567.4 337.928 567.009 L 325.687 569.908 C 308.518 577.34 324.815 581.893 336.859 578.305 C 334.04 579.843 310.326 600.276 343.895 593.87 C 328.771 603.639 332.353 619.815 350.798 612.415 C 336.192 643.422 359.496 634.883 359.496 634.883 C 359.24 674.09 373.516 654.159 376.891 650.104 C 377.704 686.279 395.947 661.664 396.716 657.352 C 398.254 674.052 414.068 677.038 414.58 657.608 C 430.211 688.658 432.911 660.214 434.193 656.627 C 445.87 678.338 451.91 671.86 452.313 655.646 C 456.413 678.965 463.185 663.457 463.185 658.076 C 470.872 676.27 475.763 662.565 474.738 656.158 C 474.738 656.158 489.87 678.276 493.458 656.539 C 496.277 662.99 525.298 680.246 512.742 658.765 C 512.742 658.04 505.6 640.366 469.212 642.203 C 455.374 642.503 438.822 650.828 399.872 648.778 C 366.046 645.19 372.206 614.474 354.349 572.018 C 347.174 562.793 340.462 541.787 325.342 556.65 z " id="path569" sodipodi:nodetypes="cccccccccccccccccccc" style="fill:#c9d1d3;fill-rule:evenodd;stroke:black;stroke-opacity:1;stroke-width:1pt;stroke-linejoin:miter;stroke-linecap:butt;fill-opacity:1;" transform="matrix(1.409583,0.000000,0.000000,1.478837,-79.36627,-278.4308)"/>
  <path d="M 490.49 338.3 C 491.118 344.048 477.637 349.316 477.637 350.041 C 477.637 350.765 471.114 331.196 471.114 331.196 L 477.299 300.755 C 504.74 269.389 531.842 295.167 504.506 309.111 L 490.49 338.3 z " id="path556" sodipodi:nodetypes="cccccc" style="fill:#8cadd1;fill-rule:evenodd;stroke:black;stroke-opacity:1;stroke-width:1pt;stroke-linejoin:miter;stroke-linecap:butt;fill-opacity:1;" transform="matrix(1.409583,0.000000,0.000000,1.478837,-79.36627,-278.4308)"/>
  <path d="M 417.986 422.44 C 417.986 422.44 448.599 404.778 449.776 403.601 C 450.954 402.424 452.91 387.117 452.91 387.117 L 476.857 349.44 L 470.97 331.778 L 476.857 299.988 L 450.954 327.068 L 420.341 342.375 L 396.792 324.714 L 390.295 294.765 C 382.986 304.725 377.215 315.71 377.594 338.483 L 386.195 351.794 L 397.39 385.491 L 393.26 403.601 L 417.986 422.44 z " id="path553" sodipodi:nodetypes="ccccccccccccccc" style="fill:#7ca7cf;fill-rule:evenodd;stroke:black;stroke-opacity:1;stroke-width:1pt;stroke-linejoin:miter;stroke-linecap:butt;fill-opacity:1;" transform="matrix(1.409583,0.000000,0.000000,1.478837,-79.36627,-278.4308)"/>
  <path d="M 416.03 423.244 C 416.03 423.244 349.669 454.793 308.369 445.953 C 292.766 456.724 254.016 399.375 254.016 399.375 L 248.507 411.889 C 247.831 488.982 311.388 495.953 368.918 458.034 C 369.643 457.31 382.689 449.337 382.689 448.612 C 382.689 447.887 416.754 423.244 416.03 423.244 z " id="path562" sodipodi:nodetypes="ccccccc" style="fill:#7da2ca;fill-rule:evenodd;stroke:black;stroke-opacity:1;stroke-width:1pt;stroke-linejoin:miter;stroke-linecap:butt;fill-opacity:1;" transform="matrix(1.409583,0.000000,0.000000,1.478837,-79.36627,-278.4308)"/>
  <path d="M 422.436 421.321 C 455.793 466.209 493.188 445.777 504.486 441.241 C 556.149 407.762 556.13 404.98 556.806 397.74 C 539.9 411.463 488.013 437.517 422.436 421.321 z " id="path595" sodipodi:nodetypes="cccc" style="fill:#9ab9de;fill-rule:evenodd;stroke:black;stroke-opacity:1;stroke-width:1pt;stroke-linejoin:miter;stroke-linecap:butt;fill-opacity:1;" transform="matrix(1.409583,0.000000,0.000000,1.478837,-79.36627,-278.4308)"/>
  <path d="M 416.978 432.633 C 410.284 484.756 396.416 533.053 396.416 532.575 C 404.067 514.403 416.978 424.504 416.978 432.633 z " id="path599" sodipodi:nodetypes="ccc" style="fill:none;fill-rule:evenodd;stroke:black;stroke-opacity:1;stroke-width:1pt;stroke-linejoin:miter;stroke-linecap:butt;fill-opacity:1;" transform="matrix(1.409583,0.000000,0.000000,1.478837,-78.64392,-292.0735)"/>
  <path d="M 416.978 347.994 C 416.978 348.154 416.978 348.313 416.978 348.473 C 416.978 347.676 416.978 350.067 416.978 350.864 C 418.582 355.786 418.814 361.281 419.369 366.644 C 419.369 371.744 419.369 376.845 419.369 381.946 C 419.369 385.513 419.256 389.06 419.847 392.466 C 420.635 395.92 421.53 398.672 421.76 402.508 C 422.488 405.498 422.095 408.81 421.282 411.115 C 419.86 412.763 418.432 416.221 417.456 417.81 " id="path601" style="fill:none;fill-rule:evenodd;stroke:black;stroke-opacity:1;stroke-width:1pt;stroke-linejoin:miter;stroke-linecap:butt;fill-opacity:1;" transform="matrix(1.409583,0.000000,0.000000,1.478837,-79.36627,-278.4308)"/>
  <path d="M 571.263 287.748 C 571.263 287.748 571.263 287.748 571.263 287.748 " id="path604" style="fill:none;fill-rule:evenodd;stroke:black;stroke-opacity:1;stroke-width:1pt;stroke-linejoin:miter;stroke-linecap:butt;fill-opacity:1;" transform="matrix(1.409583,0.000000,0.000000,1.478837,-79.36627,-278.4308)"/>
  <path d="M 553.992 427.071 C 521.812 500.263 443.572 557.682 443.572 557.682 C 469.442 535.387 540.11 466.191 553.992 427.071 z " id="path606" sodipodi:nodetypes="ccc" style="fill:none;fill-rule:evenodd;stroke:black;stroke-opacity:1;stroke-width:1pt;stroke-linejoin:miter;stroke-linecap:butt;fill-opacity:1;" transform="matrix(1.409583,0.000000,0.000000,1.478837,-79.36627,-278.4308)"/>
  <path d="M 557.778 432.749 C 552.099 467.452 550.206 477.548 550.206 477.548 C 547.682 476.286 542.003 504.68 523.705 533.705 C 544.527 496.267 553.992 468.294 557.778 432.749 z " id="path607" sodipodi:nodetypes="cccc" style="fill:none;fill-rule:evenodd;stroke:black;stroke-opacity:1;stroke-width:1pt;stroke-linejoin:miter;stroke-linecap:butt;fill-opacity:1;" transform="matrix(1.409583,0.000000,0.000000,1.478837,-79.36627,-278.4308)"/>
  <path d="M 246.709 405.618 C 218.947 449.785 205.065 490.167 213.268 569.039 C 216.002 466.191 216.212 470.608 246.709 405.618 z " id="path608" sodipodi:nodetypes="ccc" style="fill:none;fill-rule:evenodd;stroke:black;stroke-opacity:1;stroke-width:1pt;stroke-linejoin:miter;stroke-linecap:butt;fill-opacity:1;" transform="matrix(1.409583,0.000000,0.000000,1.478837,-79.36627,-278.4308)"/>
  <path d="M 260.234 408.999 C 229.767 446.404 198.979 463.793 207.182 542.665 C 201.124 459.428 234.471 447.615 260.234 408.999 z " id="path609" sodipodi:nodetypes="ccc" style="fill:none;fill-rule:evenodd;stroke:black;stroke-opacity:1;stroke-width:1pt;stroke-linejoin:miter;stroke-linecap:butt;fill-opacity:1;" transform="matrix(1.409583,0.000000,0.000000,1.478837,-111.7766,-276.4308)"/>
  <path d="M -185.047 220.253 C -191.364 221.077 -190.795 226.54 -190.795 227.018 C -189.971 229.144 -189.234 230.031 -185.043 230.785 C -176.183 227.693 -173.994 230.593 -170.423 230.797 C -158.339 237.043 -155.897 224.6 -158.175 220.934 C -159.273 216.265 -164.18 206.944 -165.93 203.109 C -167.679 199.274 -168.211 193.889 -168.986 186.691 L -162.909 174.052 C -151.304 167.182 -145.467 165.805 -141.003 165.8 C -131.665 169.37 -137.911 161.355 -143.058 163.074 C -147.711 163.17 -156.414 163.817 -163.711 172.702 L -163.115 174.105 " id="path617" sodipodi:nodetypes="cccccccccccc" style="fill:#a2907c;fill-rule:evenodd;stroke:black;stroke-opacity:1;stroke-width:1pt;stroke-linejoin:miter;stroke-linecap:butt;fill-opacity:0;" transform="matrix(0.529702,0.000000,0.000000,0.538605,647.5624,-19.97882)"/>
  <path d="M -228.681 193.571 C -217.262 197.578 -205.664 196.821 -201.386 192.314 C -198.29 181.069 -222.638 177.687 -228.681 193.571 z " id="path618" sodipodi:nodetypes="ccc" style="fill:#ffffff;fill-rule:evenodd;stroke:black;stroke-opacity:1;stroke-width:1pt;stroke-linejoin:miter;stroke-linecap:butt;fill-opacity:1;" transform="matrix(0.529702,0.000000,0.000000,0.538605,647.5624,-19.97882)"/>
  <path d="M -164.973 190.879 C -155.355 191.716 -142.991 192.828 -141.064 183.503 C -137.768 181.306 -160.518 170.006 -164.973 190.879 z " id="path619" sodipodi:nodetypes="ccc" style="fill:#ffffff;fill-rule:evenodd;stroke:black;stroke-opacity:1;stroke-width:1pt;stroke-linejoin:miter;stroke-linecap:butt;fill-opacity:1;" transform="matrix(0.529702,0.000000,0.000000,0.538605,647.5624,-19.97882)"/>
  <path d="M -173.301 254.243 L -173.301 254.243 " id="path630" style="fill:none;fill-rule:evenodd;stroke:black;stroke-opacity:1;stroke-width:1pt;stroke-linejoin:miter;stroke-linecap:butt;fill-opacity:1;" transform="matrix(0.529702,0.000000,0.000000,0.538605,647.5624,-19.97882)"/>
  <path d="M -169.755 245.464 L -178.788 244.233 C -187.027 249.727 -198.437 253.451 -202.007 253.725 L -190.652 254.549 L -181.629 257.518 L -162.695 256.216 L -150.425 242.32 C -154.27 242.869 -156.976 242.472 -162.673 240.824 C -166.996 244.394 -167.558 244.64 -169.755 245.464 z " id="path616" sodipodi:nodetypes="ccccccccc" style="fill:#88485c;fill-rule:evenodd;stroke:black;stroke-opacity:1;stroke-width:1pt;stroke-linejoin:miter;stroke-linecap:butt;fill-opacity:1;" transform="matrix(0.529702,0.000000,0.000000,0.538605,647.5624,-19.97882)"/>
  <path d="M -194.223 253.858 C -194.02 254.611 -186.299 261.518 -184.376 261.244 C -176.411 263.716 -167.17 262.21 -164.495 260.013 C -161.545 254.794 -151.716 243.479 -151.716 243.479 C -159.68 248.698 -168.117 250.927 -168.321 250.927 C -174.015 251.91 -179.16 251.246 -184.579 251.405 C -189.167 252.955 -191.832 252.583 -194.223 253.858 z " id="path615" sodipodi:nodetypes="ccccccc" style="fill:#a05a75;fill-rule:evenodd;stroke:black;stroke-opacity:1;stroke-width:1pt;stroke-linejoin:miter;stroke-linecap:butt;fill-opacity:1;" transform="matrix(0.529702,0.000000,0.000000,0.538605,647.5624,-19.97882)"/>
  <path d="M -153.019 180.634 C -156.864 179.535 -164.779 180.657 -162.582 190.198 C -156.814 193.697 -149.174 189.148 -153.019 180.634 z " id="path621" sodipodi:nodetypes="ccc" style="fill:#000004;fill-rule:evenodd;stroke:black;stroke-opacity:1;stroke-width:1pt;stroke-linejoin:miter;stroke-linecap:butt;fill-opacity:1;" transform="matrix(0.529702,0.000000,0.000000,0.538605,647.5624,-19.97882)"/>
  <path d="M -225.499 190.198 C -219.253 202.832 -208.549 194.185 -210.471 190.411 C -210.537 184.572 -219.666 182.304 -225.499 190.198 z " id="path620" sodipodi:nodetypes="ccc" style="fill:#00000c;fill-rule:evenodd;stroke:black;stroke-opacity:1;stroke-width:1pt;stroke-linejoin:miter;stroke-linecap:butt;fill-opacity:0.983425;" transform="matrix(0.529702,0.000000,0.000000,0.538605,647.0757,-20.51852)"/>
  <path d="M -147.176 185.634 C -143.681 186.867 -140.016 186.091 -139.473 183.27 C -141.413 181.865 -144.831 178.713 -147.176 185.634 z " id="path635" sodipodi:nodetypes="ccc" style="fill:#ffffff;fill-rule:evenodd;stroke:black;stroke-opacity:1;stroke-width:1pt;stroke-linejoin:miter;stroke-linecap:butt;fill-opacity:1;" transform="matrix(0.303857,0.000000,0.000000,0.354669,606.7894,14.96564)"/>
  <path d="M -147.176 185.634 C -143.681 186.867 -140.016 186.091 -139.473 183.27 C -141.413 181.865 -144.831 178.713 -147.176 185.634 z " id="path636" sodipodi:nodetypes="ccc" style="fill:#ffffff;fill-rule:evenodd;stroke:black;stroke-opacity:1;stroke-width:1pt;stroke-linejoin:miter;stroke-linecap:butt;fill-opacity:1;" transform="matrix(0.268318,0.000000,0.000000,0.446238,570.5852,0.868805)"/>
  <path d="M -574.418 98.8858 C -552.507 68.5309 -549.65 87.2065 -543.822 120.866 C -521.365 134.158 -532.899 115.044 -526.286 103.721 C -543.527 77.3014 -516.564 53.0294 -565.758 24.2653 C -606.332 7.05808 -600.496 33.2166 -643.895 17.5901 C -653.267 20.3976 -713.815 42.6835 -723.225 84.4372 C -734.029 114.494 -723.65 106.898 -719.56 165.516 C -708.55 141.825 -664.882 144.665 -676.081 202.416 C -650.111 180.54 -686.274 129.181 -669.571 128.071 C -614.566 171.848 -689.162 125.796 -607.1 124.947 C -597.782 85.2733 -599.806 60.9093 -574.418 98.8858 z " id="path638" sodipodi:nodetypes="ccccccccccc" style="fill:#232b32;fill-rule:evenodd;stroke:black;stroke-opacity:1;stroke-width:1pt;stroke-linejoin:miter;stroke-linecap:butt;fill-opacity:1;" transform="matrix(0.468132,0.000000,0.000000,0.523822,826.0483,4.873016)"/>
  <path d="M 517.413 232.792 C 517.301 232.792 515.908 231.373 515.992 231.373 C 522.321 232.003 516.242 231.194 514.64 231.711 C 513.17 232.313 508.5 235.17 506.811 238.969 C 508.259 240.226 512.015 233.453 514.261 232.907 C 514.39 232.518 517.23 233.018 517.413 232.792 z " id="path641" sodipodi:nodetypes="cccccc" style="fill:#232b32;fill-rule:evenodd;stroke:black;stroke-opacity:1;stroke-width:1pt;stroke-linejoin:miter;stroke-linecap:butt;fill-opacity:1;" transform="matrix(0.983094,0.000000,0.000000,0.644188,62.40272,-80.66104)"/>
  <path d="M 517.413 232.792 C 517.301 232.792 515.908 231.373 515.992 231.373 C 522.321 232.003 516.242 231.194 514.64 231.711 C 513.17 232.313 504.021 235.837 504.559 243.517 C 505.13 238.032 511.64 233.453 513.886 232.907 C 514.015 232.518 517.23 233.018 517.413 232.792 z " id="path642" sodipodi:nodetypes="cccccc" style="fill:#232b32;fill-rule:evenodd;stroke:black;stroke-opacity:1;stroke-width:1pt;stroke-linejoin:miter;stroke-linecap:butt;fill-opacity:1;" transform="matrix(-0.890470,0.437046,0.260187,0.583495,928.9092,-288.8416)"/>
  <path d="M -164.973 190.879 C -155.355 191.716 -142.991 192.828 -141.064 183.503 C -137.768 181.306 -160.518 170.006 -164.973 190.879 z " id="path644" sodipodi:nodetypes="ccc" style="fill:#ffffff;fill-rule:evenodd;stroke:black;stroke-opacity:1;stroke-width:1pt;stroke-linejoin:miter;stroke-linecap:butt;fill-opacity:1;" transform="matrix(9.210841e-2,0.000000,0.000000,0.103926,564.2830,97.91180)"/>
  <path d="M 142.696 122.98 C 147.09 128.473 142.192 135.429 138.693 137.493 C 141.344 139.055 139.912 145.858 136.223 149.746 C 142.028 145.803 140.681 140.357 141.782 137.217 C 145.49 134.564 146.897 126.12 142.696 122.98 z " id="path645" sodipodi:nodetypes="ccccc" style="fill:#a18f79;fill-rule:evenodd;stroke:#a7387d;stroke-opacity:1;stroke-width:0.125;stroke-linejoin:miter;stroke-linecap:butt;fill-opacity:1;stroke-dasharray:none;" transform="matrix(0.826596,0.000000,0.000000,0.916736,422.5428,-11.48502)"/>
  <path d="M 527.479 94.495 C 527.479 94.5408 530.226 93.4879 529.539 88.0405 C 530.775 90.604 533.384 99.8049 533.933 87.4911 C 538.032 97.961 537.093 95.1311 539.702 86.1179 " id="path648" sodipodi:nodetypes="cccc" style="fill:none;fill-rule:evenodd;stroke:black;stroke-opacity:1;stroke-width:1pt;stroke-linejoin:miter;stroke-linecap:butt;fill-opacity:1;" transform="matrix(0.260087,0.000000,0.000000,0.138853,394.7969,65.34406)"/>
  <path d="M 527.479 94.495 C 527.479 94.5408 530.226 93.4879 529.539 88.0405 C 530.775 90.604 533.384 99.8049 533.933 87.4911 C 538.032 97.961 537.093 95.1311 539.702 86.1179 " id="path649" sodipodi:nodetypes="cccc" style="fill:none;fill-rule:evenodd;stroke:black;stroke-opacity:1;stroke-width:1pt;stroke-linejoin:miter;stroke-linecap:butt;fill-opacity:1;" transform="matrix(0.249973,-7.965788e-2,3.745375e-2,0.144564,393.1700,108.3479)"/>
  <path d="M 527.479 94.495 C 527.479 94.5408 530.226 93.4879 529.539 88.0405 C 530.775 90.604 533.384 99.8049 533.933 87.4911 C 538.032 97.961 537.093 95.1311 539.702 86.1179 " id="path650" sodipodi:nodetypes="cccc" style="fill:none;fill-rule:evenodd;stroke:black;stroke-opacity:1;stroke-width:1pt;stroke-linejoin:miter;stroke-linecap:butt;fill-opacity:1;" transform="matrix(0.260087,0.000000,0.000000,0.138853,398.2025,65.46964)"/>
  <path d="M 527.479 94.495 C 527.479 94.5408 530.226 93.4879 529.539 88.0405 C 530.775 90.604 533.384 99.8049 533.933 87.4911 C 538.032 97.961 537.093 95.1311 539.702 86.1179 " id="path651" sodipodi:nodetypes="cccc" style="fill:none;fill-rule:evenodd;stroke:black;stroke-opacity:1;stroke-width:1pt;stroke-linejoin:miter;stroke-linecap:butt;fill-opacity:1;" transform="matrix(0.252657,-6.845233e-2,2.971131e-2,0.134886,427.0679,100.2133)"/>
  <path d="M 527.479 94.495 C 527.479 94.5408 530.226 93.4879 529.539 88.0405 C 530.775 90.604 533.384 99.8049 533.933 87.4911 C 538.032 97.961 537.093 95.1311 539.702 86.1179 " id="path652" sodipodi:nodetypes="cccc" style="fill:none;fill-rule:evenodd;stroke:black;stroke-opacity:1;stroke-width:1pt;stroke-linejoin:miter;stroke-linecap:butt;fill-opacity:1;" transform="matrix(0.260087,0.000000,0.000000,0.138853,428.9650,62.95163)"/>
  <path d="M 527.479 94.495 C 527.479 94.5408 530.226 93.4879 529.539 88.0405 C 530.775 90.604 533.384 99.8049 533.933 87.4911 C 538.032 97.961 537.093 95.1311 539.702 86.1179 " id="path653" sodipodi:nodetypes="cccc" style="fill:none;fill-rule:evenodd;stroke:black;stroke-opacity:1;stroke-width:1pt;stroke-linejoin:miter;stroke-linecap:butt;fill-opacity:1;" transform="matrix(0.239579,0.112267,-4.872889e-2,0.127903,447.7139,4.665192)"/>
  <path d="M 612.843 52.2807 C 621.538 49.4388 637.583 45.1621 629.874 77.7251 C 643.419 40.5325 617.67 64.9572 644.869 48.4354 C 646.779 31.3881 621.523 15.9303 612.293 17.3502 C 609.097 19.2678 608.51 39.2825 612.843 52.2807 z " id="path654" sodipodi:nodetypes="ccccc" style="fill:#232b32;fill-rule:evenodd;stroke:none;stroke-opacity:1;stroke-width:1pt;stroke-linejoin:miter;stroke-linecap:butt;fill-opacity:1;" transform="matrix(0.826596,0.000000,0.000000,0.916736,-18.12723,38.01465)"/>
</svg>
