<?xml version="1.0" encoding="UTF-8" standalone="no"?>
<!-- Created with Inkscape (http://www.inkscape.org/) -->

<svg
   xmlns:dc="http://purl.org/dc/elements/1.1/"
   xmlns:cc="http://creativecommons.org/ns#"
   xmlns:rdf="http://www.w3.org/1999/02/22-rdf-syntax-ns#"
   xmlns:svg="http://www.w3.org/2000/svg"
   xmlns="http://www.w3.org/2000/svg"
   xmlns:xlink="http://www.w3.org/1999/xlink"
   xmlns:sodipodi="http://sodipodi.sourceforge.net/DTD/sodipodi-0.dtd"
   xmlns:inkscape="http://www.inkscape.org/namespaces/inkscape"
   width="934.05719"
   height="672.35895"
   id="svg2"
   version="1.1"
   inkscape:version="0.47pre3 r22311"
   sodipodi:docname="permafrost91_P51_Mustang.svg">
  <defs
     id="defs4">
    <linearGradient
       id="linearGradient5428">
      <stop
         style="stop-color: rgb(241, 241, 241); stop-opacity: 1;"
         offset="0"
         id="stop5430" />
      <stop
         style="stop-color: rgb(35, 35, 35); stop-opacity: 1;"
         offset="1"
         id="stop5432" />
    </linearGradient>
    <linearGradient
       id="linearGradient3661">
      <stop
         style="stop-color: rgb(165, 57, 54); stop-opacity: 1;"
         offset="0"
         id="stop3663" />
      <stop
         style="stop-color: rgb(72, 10, 0); stop-opacity: 1;"
         offset="1"
         id="stop3665" />
    </linearGradient>
    <linearGradient
       id="linearGradient3641">
      <stop
         style="stop-color: rgb(81, 81, 81); stop-opacity: 1;"
         offset="0"
         id="stop3643" />
      <stop
         id="stop3649"
         offset="0.5"
         style="stop-color: rgb(159, 159, 159); stop-opacity: 1;" />
      <stop
         style="stop-color: rgb(81, 81, 81); stop-opacity: 1;"
         offset="1"
         id="stop3645" />
    </linearGradient>
    <linearGradient
       id="linearGradient3631">
      <stop
         style="stop-color: rgb(159, 177, 110); stop-opacity: 1;"
         offset="0"
         id="stop3633" />
      <stop
         style="stop-color: rgb(51, 56, 37); stop-opacity: 1;"
         offset="1"
         id="stop3635" />
    </linearGradient>
    <linearGradient
       id="linearGradient3613">
      <stop
         style="stop-color: rgb(172, 172, 172); stop-opacity: 1;"
         offset="0"
         id="stop3615" />
      <stop
         style="stop-color: rgb(217, 217, 217); stop-opacity: 1;"
         offset="1"
         id="stop3617" />
    </linearGradient>
    <linearGradient
       id="linearGradient3699">
      <stop
         style="stop-color: rgb(180, 180, 180); stop-opacity: 1;"
         offset="0"
         id="stop3701" />
      <stop
         style="stop-color: rgb(246, 246, 246); stop-opacity: 1;"
         offset="1"
         id="stop3703" />
    </linearGradient>
    <linearGradient
       id="linearGradient3685">
      <stop
         style="stop-color: rgb(202, 202, 202); stop-opacity: 1;"
         offset="0"
         id="stop3687" />
      <stop
         id="stop3695"
         offset="0.28412375"
         style="stop-color: rgb(239, 239, 239); stop-opacity: 1;" />
      <stop
         id="stop3693"
         offset="0.49667519"
         style="stop-color: rgb(202, 202, 202); stop-opacity: 1;" />
      <stop
         style="stop-color: rgb(227, 227, 227); stop-opacity: 1;"
         offset="1"
         id="stop3689" />
    </linearGradient>
    <inkscape:perspective
       sodipodi:type="inkscape:persp3d"
       inkscape:vp_x="0 : 526.18109 : 1"
       inkscape:vp_y="0 : 1000 : 0"
       inkscape:vp_z="744.09448 : 526.18109 : 1"
       inkscape:persp3d-origin="372.04724 : 350.78739 : 1"
       id="perspective10" />
    <inkscape:perspective
       id="perspective2905"
       inkscape:persp3d-origin="0.5 : 0.33333333 : 1"
       inkscape:vp_z="1 : 0.5 : 1"
       inkscape:vp_y="0 : 1000 : 0"
       inkscape:vp_x="0 : 0.5 : 1"
       sodipodi:type="inkscape:persp3d" />
    <linearGradient
       inkscape:collect="always"
       xlink:href="#linearGradient3685"
       id="linearGradient3691"
       x1="247.35715"
       y1="213.75314"
       x2="366.21429"
       y2="189.46742"
       gradientUnits="userSpaceOnUse"
       gradientTransform="translate(1.7459,289.238)" />
    <linearGradient
       inkscape:collect="always"
       xlink:href="#linearGradient3699"
       id="linearGradient3705"
       x1="387.46176"
       y1="204.09445"
       x2="404.64285"
       y2="197.5"
       gradientUnits="userSpaceOnUse" />
    <linearGradient
       inkscape:collect="always"
       xlink:href="#linearGradient3685"
       id="linearGradient4378"
       x1="-1.0203111"
       y1="657.74036"
       x2="986.97968"
       y2="657.74036"
       gradientUnits="userSpaceOnUse" />
    <linearGradient
       inkscape:collect="always"
       xlink:href="#linearGradient3613"
       id="linearGradient5546"
       gradientUnits="userSpaceOnUse"
       gradientTransform="translate(-299.631,-647.153)"
       x1="1037"
       y1="634.68359"
       x2="1065.7142"
       y2="628.9693" />
    <linearGradient
       inkscape:collect="always"
       xlink:href="#linearGradient3699"
       id="linearGradient5548"
       gradientUnits="userSpaceOnUse"
       gradientTransform="translate(-57.4988,-351.375)"
       x1="387.46176"
       y1="204.09445"
       x2="404.64285"
       y2="197.5" />
    <linearGradient
       inkscape:collect="always"
       xlink:href="#linearGradient3685"
       id="linearGradient5550"
       gradientUnits="userSpaceOnUse"
       gradientTransform="translate(-55.7529,-349.499)"
       x1="247.35715"
       y1="213.75314"
       x2="366.21429"
       y2="189.46742" />
    <linearGradient
       inkscape:collect="always"
       xlink:href="#linearGradient3661"
       id="linearGradient5552"
       gradientUnits="userSpaceOnUse"
       gradientTransform="translate(-57.1127,-346.465)"
       x1="70.210678"
       y1="318.31534"
       x2="70.705605"
       y2="346.34708" />
    <linearGradient
       inkscape:collect="always"
       xlink:href="#linearGradient3631"
       id="linearGradient5554"
       gradientUnits="userSpaceOnUse"
       gradientTransform="translate(-62.9928,-349.156)"
       x1="441.64285"
       y1="335.58719"
       x2="434.78574"
       y2="469.87289" />
    <linearGradient
       inkscape:collect="always"
       xlink:href="#linearGradient3641"
       id="linearGradient5556"
       gradientUnits="userSpaceOnUse"
       gradientTransform="translate(0.578585,-847.947)"
       x1="140.57144"
       y1="810.70032"
       x2="139.60713"
       y2="845.70026" />
    <linearGradient
       inkscape:collect="always"
       xlink:href="#linearGradient3661"
       id="linearGradient5558"
       gradientUnits="userSpaceOnUse"
       gradientTransform="translate(-64.4363,-348.738)"
       x1="119.85714"
       y1="316.78574"
       x2="119.3649"
       y2="350.71432" />
    <linearGradient
       inkscape:collect="always"
       xlink:href="#linearGradient3613"
       id="linearGradient5560"
       gradientUnits="userSpaceOnUse"
       gradientTransform="translate(-52.1918,-338.04)"
       x1="807.99146"
       y1="429.85355"
       x2="843.47229"
       y2="420.76218" />
    <linearGradient
       inkscape:collect="always"
       xlink:href="#linearGradient3631"
       id="linearGradient5562"
       gradientUnits="userSpaceOnUse"
       gradientTransform="translate(-336.101,-433.655)"
       x1="1169.1327"
       y1="403.51331"
       x2="1157.3871"
       y2="482.08472" />
    <linearGradient
       inkscape:collect="always"
       xlink:href="#linearGradient3699"
       id="linearGradient5564"
       gradientUnits="userSpaceOnUse"
       gradientTransform="translate(-45.4779,-148.575)"
       x1="477.71426"
       y1="405.53571"
       x2="496.21429"
       y2="404.82141" />
    <linearGradient
       inkscape:collect="always"
       xlink:href="#linearGradient3685"
       id="linearGradient5566"
       gradientUnits="userSpaceOnUse"
       gradientTransform="translate(-44.4064,-150.003)"
       x1="338.0416"
       y1="364.85681"
       x2="452.28574"
       y2="334.85681" />
    <linearGradient
       inkscape:collect="always"
       xlink:href="#linearGradient5428"
       id="linearGradient5568"
       gradientUnits="userSpaceOnUse"
       gradientTransform="translate(-2.32143,288.076)"
       x1="-922.43738"
       y1="357.37582"
       x2="-923.25"
       y2="365.23297" />
  </defs>
  <sodipodi:namedview
     id="base"
     pagecolor="#ffffff"
     bordercolor="#666666"
     borderopacity="1.0"
     inkscape:pageopacity="0.0"
     inkscape:pageshadow="2"
     inkscape:zoom="0.35"
     inkscape:cx="71.952312"
     inkscape:cy="519.25956"
     inkscape:document-units="px"
     inkscape:current-layer="layer1"
     showgrid="false"
     inkscape:window-width="1280"
     inkscape:window-height="683"
     inkscape:window-x="0"
     inkscape:window-y="0"
     inkscape:window-maximized="0" />
  <metadata
     id="metadata7">
    <rdf:RDF>
      <cc:Work
         rdf:about="">
        <dc:format>image/svg+xml</dc:format>
        <dc:type
           rdf:resource="http://purl.org/dc/dcmitype/StillImage" />
        <dc:title></dc:title>
        <cc:license
           rdf:resource="http://creativecommons.org/licenses/publicdomain/" />
      </cc:Work>
      <cc:License
         rdf:about="http://creativecommons.org/licenses/publicdomain/">
        <cc:permits
           rdf:resource="http://creativecommons.org/ns#Reproduction" />
        <cc:permits
           rdf:resource="http://creativecommons.org/ns#Distribution" />
        <cc:permits
           rdf:resource="http://creativecommons.org/ns#DerivativeWorks" />
      </cc:License>
    </rdf:RDF>
  </metadata>
  <g
     inkscape:label="Layer 1"
     inkscape:groupmode="layer"
     id="layer1"
     transform="translate(-18.834885,-319.6498)">
    <g
       id="g5582">
      <g
         transform="translate(1080,-8.57143)"
         id="g5502">
        <g
           id="g5456"
           transform="translate(-1037.14,628.571)">
          <path
             id="path3792"
             d="m 1.516785,7.90795 -18.1827,26.26397 21.2132,-25.25381 -3.0305,-1.01016 z"
             style="fill:#000000;fill-opacity:1;stroke:#000000;stroke-width:1px;stroke-linecap:butt;stroke-linejoin:miter;stroke-opacity:1" />
          <path
             sodipodi:nodetypes="cccc"
             id="path3750"
             d="m 24.078385,-31.36173 c -10.6127,-7.55071 -7.7903,-71.52852 -9.0914,-118.18785 l 19.4454,-5.05076 c -1.9104,41.65151 7.5886,90.42352 -10.354,123.23861 z"
             style="fill:#000000;fill-opacity:1;stroke:#000000;stroke-width:1px;stroke-linecap:butt;stroke-linejoin:miter;stroke-opacity:1" />
          <path
             sodipodi:nodetypes="cccc"
             id="path3752"
             d="m 14.942385,-149.76645 19.55,-5.50988 c 0.3857,-7.60033 -2.3801,-10.41492 -7.7624,-9.04673 -8.4448,1.7613 -11.6683,6.53021 -11.7876,14.55661 z"
             style="fill:#a58500;fill-opacity:1;stroke:#000000;stroke-width:1px;stroke-linecap:butt;stroke-linejoin:miter;stroke-opacity:1" />
          <path
             id="path2839"
             d="m 718.94078,34.49501 -1.0714,-102.5 54.6429,6.42857 43.2142,114.64286 -96.7857,-18.57143 z"
             style="fill:url(#linearGradient5546);fill-opacity:1;stroke:#000000;stroke-width:1px;stroke-linecap:butt;stroke-linejoin:miter;stroke-opacity:1" />
          <path
             sodipodi:nodetypes="ccczccc"
             id="path3621"
             d="m 811.44081,54.49501 -40.71428,-115.71429 -52.85715,-5 c -0.92868,-12.41677 19.87867,-5.88841 37.5,-3.57143 17.62133,2.31699 27.25887,6.56681 31.42858,14.28572 l 45,111.78571 -20.35715,-1.78571 z"
             style="fill:#dfdfdf;fill-opacity:1;stroke:#000000;stroke-width:1px;stroke-linecap:butt;stroke-linejoin:miter;stroke-opacity:1" />
          <path
             id="path3697"
             d="m 373.57261,-25.66026 -89.64286,-256.42858 22.14286,1.78572 104.28571,251.42857 -36.78571,3.21429 z"
             style="fill:url(#linearGradient5548);fill-opacity:1;stroke:#000000;stroke-width:1px;stroke-linecap:butt;stroke-linejoin:miter;stroke-opacity:1" />
          <path
             sodipodi:nodetypes="cccccc"
             id="path2911"
             d="m 212.10422,-34.49889 -20,-256.42857 c 26.78538,-24.64401 103.36589,9.53011 113.57143,10 l -17.85714,1.42857 89.28571,259.28571 -165,-14.28571 z"
             style="fill:url(#linearGradient5550);fill-opacity:1;stroke:#000000;stroke-width:1px;stroke-linecap:butt;stroke-linejoin:miter;stroke-opacity:1" />
          <path
             sodipodi:nodetypes="cccc"
             id="path3681"
             d="m 43.397485,-37.04384 -5.5558,64.9023 c -15.639,-2.29128 -51.7515,-12.89829 -61.3668,-37.88072 15.9386,-25.7508 44.877,-27.85704 66.9226,-27.02158 z"
             style="fill:url(#linearGradient5552);fill-opacity:1;stroke:#000000;stroke-width:1px;stroke-linecap:butt;stroke-linejoin:miter;stroke-opacity:1" />
          <path
             sodipodi:nodetypes="cccccccccc"
             id="path3629"
             d="m 69.149985,-47.01345 c 136.495225,-3.42566 285.026225,29.00972 438.031395,36.18852 6.40542,3.00009 13.79923,6.46712 18.13784,9.63781 105.20269,17.70166 202.15669,32.0481 304.54505,56.31653 l -10,32.14286 c -65.61166,6.60097 -131.30838,12.86173 -197.85715,15.71429 -4.03677,1.36899 -19.80334,2.1593 -35.35714,9.64286 C 386.73411,171.831 324.98331,92.86751 194.14998,82.98656 160.15099,80.72712 118.7101,72.01803 56.292885,45.12941 l 12.8571,-92.14286 z"
             style="fill:url(#linearGradient5554);fill-opacity:1;stroke:#000000;stroke-width:1px;stroke-linecap:butt;stroke-linejoin:miter;stroke-opacity:1" />
          <path
             sodipodi:nodetypes="ccccccc"
             id="path3639"
             d="m 72.007182,-2.72773 -3.214297,-45.35714 c 80.871145,-1.10899 151.264835,5.87537 229.051255,13.81162 22.4871,-9.51671 18.36836,1.50541 23.98441,2.08123 l 30.20427,44.12881 -0.17672,14.2263 C 257.52969,25.22793 165.29012,6.90254 72.007182,-2.72773 z"
             style="fill:url(#linearGradient5556);fill-opacity:1;stroke:#000000;stroke-width:1px;stroke-linecap:butt;stroke-linejoin:miter;stroke-opacity:1" />
          <path
             sodipodi:nodetypes="ccccc"
             id="path3659"
             d="m 68.503785,-48.06506 c 8.816097,43.90051 2.712897,60.20674 -12.2673,93.16538 l -26.7442,-14.19534 c 7.7065,-18.66982 18.2742,-38.12496 3.2143,-70 l 35.7972,-8.97004 z"
             style="fill:url(#linearGradient5558);fill-opacity:1;stroke:#000000;stroke-width:1px;stroke-linecap:butt;stroke-linejoin:round;stroke-opacity:1" />
          <path
             sodipodi:nodetypes="ccccc"
             id="path3794"
             d="m 25.002885,-18.22975 c 6.4102,-12.04875 14.1312,-24.03003 26.2639,-34.47145 l 8.8389,13.13198 c -8.7763,10.74798 -18.8348,19.89314 -30.3046,27.27412 -4.0225,0.30585 -5.094,-4.12881 -4.7982,-5.93465 z"
             style="fill:#000000;fill-opacity:1;stroke:#000000;stroke-width:1px;stroke-linecap:round;stroke-linejoin:round;stroke-opacity:1" />
          <path
             sodipodi:nodetypes="cccc"
             id="path3796"
             d="m 51.342085,-52.75482 9.0238,12.96568 c 2.2559,-2.11533 6.7278,-4.34056 0.6626,-11.55877 -3.5567,-4.39281 -5.5993,-4.6532 -9.6864,-1.40691 z"
             style="fill:#a58500;fill-opacity:1;stroke:#000000;stroke-width:1px;stroke-linecap:round;stroke-linejoin:round;stroke-opacity:1" />
          <path
             sodipodi:nodetypes="ccccc"
             id="path3917"
             d="m 20.762985,17.39641 c -0.7968,14.21853 -5.4147,29.06811 -3.75,118.57143 l 10.3571,3.57143 c 10.4089,-98.66267 2.1104,-102.27001 4.4643,-118.39286 -2.9055,-3.3107 -6.8277,-3.95221 -11.0714,-3.75 z"
             style="fill:#000000;fill-opacity:1;stroke:#000000;stroke-width:1px;stroke-linecap:round;stroke-linejoin:round;stroke-opacity:1" />
          <path
             sodipodi:nodetypes="cccc"
             id="path3919"
             d="m 17.043685,135.83 10.4172,2.96733 c -0.7577,4.33726 -1.8317,13.36495 -5.8399,12.46907 -6.4852,-1.61351 -4.4845,-9.15883 -4.5773,-15.4364 z"
             style="fill:#a58500;fill-opacity:1;stroke:#000000;stroke-width:1px;stroke-linecap:round;stroke-linejoin:round;stroke-opacity:1" />
          <path
             sodipodi:nodetypes="ccccccc"
             id="path3968"
             d="m 306.33637,-35.93149 1.02175,28.01963 c 4.49281,12.25614 3.38958,28.70591 44.55992,27.06363 l 1.04604,-10.27421 c 43.56957,-2.03881 143.75512,5.1897 158.03047,-18.11339 -78.6575,-41.28241 -138.00536,-37.45012 -159.01524,-35.84242 -13.80492,2.41012 -22.53772,0.72296 -45.64294,9.14676 z"
             style="fill:#bef6ff;fill-opacity:1;stroke:#000000;stroke-opacity:1" />
          <path
             style="fill:none;stroke:#000000;stroke-opacity:1"
             d="m 297.87634,-34.42972 c 0.71889,9.36229 1.29385,21.65279 1.02175,30.68474 5.3767,17.05437 10.08185,31.6101 55.04026,29.71528 74.76568,-0.20053 150.3599,7.70105 171.70341,-27.37745 -86.48618,-49.74243 -151.07421,-45.65761 -172.14722,-43.73423 -19.39022,1.96828 -37.5672,3.72129 -55.6182,10.71166 z"
             id="path3972"
             sodipodi:nodetypes="cccccc" />
          <path
             sodipodi:nodetypes="ccccccccccc"
             id="path3978"
             d="m 306.13973,-37.29916 c 14.465,-4.33002 28.9515,-6.17751 45.6262,-7.71619 5.668,29.96415 1.2787,44.35583 0.1874,63.85407 l -5.4819,0.10461 c 0.5903,-14.99341 3.588,-29.89754 2.44,-44.89096 -13.7646,2.80278 -32.655,13.75349 -41.5182,17.53236 l -0.2079,-4.26382 c 13.0169,-6.54738 27.4772,-13.39086 41.6574,-18.6585 -0.4972,-3.91756 -0.4,-8.80445 -1.917,-11.69072 -13.1901,2.0067 -27.6706,3.00516 -40.6228,7.2724 l -0.1632,-1.54325 z"
             style="fill:#9d9d9d;fill-opacity:1;stroke:#000000;stroke-width:1px;stroke-linecap:round;stroke-linejoin:round;stroke-opacity:1" />
          <path
             sodipodi:nodetypes="ccccc"
             id="path4118"
             d="M 825.63077,53.20404 C 790.41595,44.09596 724.43923,28.04648 714.51399,40.57713 l 56.06347,102.53048 56.56854,4.54569 -1.51523,-94.44926 z"
             style="fill:url(#linearGradient5560);fill-opacity:1;stroke:#000000;stroke-width:1px;stroke-linecap:butt;stroke-linejoin:miter;stroke-opacity:1" />
          <path
             sodipodi:nodetypes="ccccccc"
             id="path4442"
             d="m 821.12951,52.27421 6.52157,92.85372 -58.58884,-5.17704 c 5.05718,12.00311 12.33151,15.63792 31.31472,16.03618 13.4687,-1.93613 43.40851,2.71619 40.40611,-5.80838 L 833.712,54.97181 821.12951,52.27421 z"
             style="fill:#dfdfdf;fill-opacity:1;stroke:#000000;stroke-width:1px;stroke-linecap:butt;stroke-linejoin:miter;stroke-opacity:1" />
          <path
             sodipodi:nodetypes="ccccccc"
             id="path4541"
             d="m 665.402,22.21219 c 38.6092,-0.80865 81.03826,-5.14444 114.46286,-13.13198 25.8724,-21.14734 39.1972,-38.05921 57.5787,-58.84139 9.5123,-10.06297 28.621,-5.16298 37.6282,-3.78807 L 835.40157,78.22335 832.64536,56.0523 C 789.48721,41.06618 726.86604,32.99962 665.402,22.21219 z"
             style="fill:url(#linearGradient5562);fill-opacity:1;stroke:#000000;stroke-width:1px;stroke-linecap:butt;stroke-linejoin:miter;stroke-opacity:1" />
          <path
             sodipodi:nodetypes="ccccc"
             id="path4652"
             d="m 876.05534,-53.36317 33.47674,6.42857 -8.92858,112.85715 c -6.49529,18.40063 -44.08262,15.04036 -64.05299,11.639 l 39.50483,-130.92472 z"
             style="fill:#d8d8d8;fill-opacity:1;stroke:#630000;stroke-width:1px;stroke-linecap:butt;stroke-linejoin:miter;stroke-opacity:1" />
          <path
             sodipodi:nodetypes="ccccc"
             id="rect4681"
             d="m 811.5518,-20.5371 95.64882,8.52316 -1.6415,21.65514 C 868.01889,7.34571 801.51292,4.21457 791.85383,-1.84928 L 811.5518,-20.5371 z"
             style="fill:#000000;fill-opacity:1;stroke:none" />
          <path
             sodipodi:nodetypes="cccc"
             id="path4684"
             d="m 620.69608,15.57586 13.63706,-42.17387 -7.82869,43.05776 c -3.09381,1.57044 -4.39608,1.24503 -5.80837,-0.88389 z"
             style="fill:#000000;fill-opacity:1;stroke:#000000;stroke-width:1px;stroke-linecap:butt;stroke-linejoin:miter;stroke-opacity:1" />
          <path
             id="path4819"
             d="m 435.59357,363.92537 -18.57143,-224.64286 45.35715,15.35714 -4.28572,215.71429 -22.5,-6.42857 z"
             style="fill:url(#linearGradient5564);fill-opacity:1;stroke:#000000;stroke-width:1px;stroke-linecap:butt;stroke-linejoin:miter;stroke-opacity:1" />
          <path
             sodipodi:nodetypes="cccccccccc"
             id="path4686"
             d="m 202.73643,86.78251 c -1.44523,3.23094 50.08627,59.19943 50.71427,58.57143 l 87.14287,211.78571 c 33.33113,24.15978 77.77505,9.50961 118.92856,13.92858 l -24.28571,-8.57143 -17.5,-226.78572 45.35714,3.57143 2.14286,-18.21428 13.57143,-6.78572 C 378.68126,97.16167 295.99136,48.5638 202.73643,86.78251 z"
             style="fill:url(#linearGradient5566);fill-opacity:1;stroke:#000000;stroke-width:1px;stroke-linecap:butt;stroke-linejoin:miter;stroke-opacity:1" />
          <path
             sodipodi:nodetypes="ccccc"
             id="path4837"
             d="m 223.2275,112.63072 c 64.96293,-23.52638 159.39402,-1.07833 239.73268,26.53264 l -0.57904,16.82718 c -123.2233,-46.42713 -193.98436,-38.35515 -224.06436,-26.70803 -4.73214,-4.65774 -12.2683,-14.3262 -15.08928,-16.65179 z"
             style="fill:#000000;fill-opacity:1;stroke:#000000;stroke-width:1px;stroke-linecap:butt;stroke-linejoin:miter;stroke-opacity:1" />
          <path
             id="path4947"
             d="m 499.60446,47.05821 145,11.78572 -5.35715,21.07143 -144.64285,-11.07143 5,-21.78572 z"
             style="fill:#f0f0f0;fill-opacity:1;stroke:#000000;stroke-width:1px;stroke-linecap:butt;stroke-linejoin:miter;stroke-opacity:1" />
          <path
             transform="matrix(1.07543,0,-0.136254,0.941564,-72.0141,-139.832)"
             d="m 658.57144,215.17857 c 0,21.79553 -15.82993,39.46429 -35.35715,39.46429 -19.52721,0 -35.35714,-17.66876 -35.35714,-39.46429 0,-21.79552 15.82993,-39.46428 35.35714,-39.46428 19.52722,0 35.35715,17.66876 35.35715,39.46428 z"
             sodipodi:ry="39.464283"
             sodipodi:rx="35.357143"
             sodipodi:cy="215.17857"
             sodipodi:cx="623.21429"
             id="path4949"
             style="fill:#00093d;fill-opacity:1;stroke:#000000;stroke-opacity:1"
             sodipodi:type="arc" />
          <path
             sodipodi:nodetypes="ccccccccccc"
             id="path4955"
             d="m 584.40518,89.88213 -16.55989,-13.26428 -23.31018,9.69149 12.39924,-18.00369 -14.99784,-14.32269 22.8132,0.18304 12.21432,-22.13401 3.92607,23.2954 22.09223,3.15044 -19.45363,11.09311 0.87648,20.31119 z"
             style="fill:#ffffff;fill-opacity:1;stroke:none" />
          <path
             id="path5002"
             d="m 338.89011,202.7725 31.42858,3.57143 30.71428,112.14286 -32.14286,-3.21429 -30,-112.5 z"
             style="fill:#ebebeb;fill-opacity:1;stroke:#000000;stroke-width:1px;stroke-linecap:butt;stroke-linejoin:miter;stroke-opacity:1" />
          <path
             sodipodi:nodetypes="csszc"
             id="path5004"
             d="m 414.56399,275.61381 c -1.6176,12.68153 -25.64469,11.79135 -50.47519,7.26348 -24.83052,-4.52788 -43.20448,-19.19312 -40.15831,-31.87464 3.04618,-12.68151 22.62503,-20.26701 49.40376,-14.40633 26.77873,5.86068 44.27591,26.33598 41.22974,39.01749 z"
             style="fill:#00093d;fill-opacity:1;stroke:#000000;stroke-width:1.02803004;stroke-opacity:1" />
          <path
             sodipodi:nodetypes="ccccccccccc"
             id="path5011"
             d="m 407.1937,279.37964 -28.65838,-10.18826 -14.86363,11.7102 -5.09513,-16.83724 -28.6619,-7.12447 25.58261,-3.89952 -4.29038,-16.49847 22.52461,15.78214 27.75005,1.97192 -14.17511,9.07144 19.88726,16.01226 z"
             style="fill:#ffffff;fill-opacity:1;stroke:none" />
        </g>
        <g
           id="g5491"
           transform="matrix(0.999461,0.0328288,-0.0328288,0.999461,19.0624,25.0634)">
          <path
             sodipodi:nodetypes="cccc"
             id="path5426"
             d="m -962.67858,644.14789 c -0.94886,-8.4142 55.36315,2.68278 93.57143,5 l -1.78571,10 c -33.7261,-3.79475 -95.39398,-4.82263 -91.78572,-15 z"
             style="fill:url(#linearGradient5568);fill-opacity:1;stroke:#000000;stroke-width:1px;stroke-linecap:butt;stroke-linejoin:miter;stroke-opacity:1" />
          <path
             transform="matrix(0.989014,0.147823,-0.147823,0.989014,39.9831,432.44)"
             d="m -942.32143,359.01785 c 0,1.82451 -2.31852,3.30357 -5.17857,3.30357 -2.86005,0 -5.17857,-1.47906 -5.17857,-3.30357 0,-1.82451 2.31852,-3.30357 5.17857,-3.30357 2.86005,0 5.17857,1.47906 5.17857,3.30357 z"
             sodipodi:ry="3.3035715"
             sodipodi:rx="5.1785712"
             sodipodi:cy="359.01785"
             sodipodi:cx="-947.5"
             id="path5440"
             style="fill:#1d1d1d;fill-opacity:1;stroke:none"
             sodipodi:type="arc" />
          <path
             sodipodi:type="arc"
             style="fill:#1d1d1d;fill-opacity:1;stroke:none"
             id="path5446"
             sodipodi:cx="-947.5"
             sodipodi:cy="359.01785"
             sodipodi:rx="5.1785712"
             sodipodi:ry="3.3035715"
             d="m -942.32143,359.01785 c 0,1.82451 -2.31852,3.30357 -5.17857,3.30357 -2.86005,0 -5.17857,-1.47906 -5.17857,-3.30357 0,-1.82451 2.31852,-3.30357 5.17857,-3.30357 2.86005,0 5.17857,1.47906 5.17857,3.30357 z"
             transform="matrix(0.989014,0.147823,-0.147823,0.989014,52.4831,434.404)" />
          <path
             transform="matrix(0.989014,0.147823,-0.147823,0.989014,65.876,436.011)"
             d="m -942.32143,359.01785 c 0,1.82451 -2.31852,3.30357 -5.17857,3.30357 -2.86005,0 -5.17857,-1.47906 -5.17857,-3.30357 0,-1.82451 2.31852,-3.30357 5.17857,-3.30357 2.86005,0 5.17857,1.47906 5.17857,3.30357 z"
             sodipodi:ry="3.3035715"
             sodipodi:rx="5.1785712"
             sodipodi:cy="359.01785"
             sodipodi:cx="-947.5"
             id="path5448"
             style="fill:#1d1d1d;fill-opacity:1;stroke:none"
             sodipodi:type="arc" />
          <path
             sodipodi:type="arc"
             style="fill:#1d1d1d;fill-opacity:1;stroke:none"
             id="path5450"
             sodipodi:cx="-947.5"
             sodipodi:cy="359.01785"
             sodipodi:rx="5.1785712"
             sodipodi:ry="3.3035715"
             d="m -942.32143,359.01785 c 0,1.82451 -2.31852,3.30357 -5.17857,3.30357 -2.86005,0 -5.17857,-1.47906 -5.17857,-3.30357 0,-1.82451 2.31852,-3.30357 5.17857,-3.30357 2.86005,0 5.17857,1.47906 5.17857,3.30357 z"
             transform="matrix(0.989014,0.147823,-0.147823,0.989014,79.2688,437.44)" />
          <path
             transform="matrix(0.989014,0.147823,-0.147823,0.989014,93.1974,438.69)"
             d="m -942.32143,359.01785 c 0,1.82451 -2.31852,3.30357 -5.17857,3.30357 -2.86005,0 -5.17857,-1.47906 -5.17857,-3.30357 0,-1.82451 2.31852,-3.30357 5.17857,-3.30357 2.86005,0 5.17857,1.47906 5.17857,3.30357 z"
             sodipodi:ry="3.3035715"
             sodipodi:rx="5.1785712"
             sodipodi:cy="359.01785"
             sodipodi:cx="-947.5"
             id="path5452"
             style="fill:#1d1d1d;fill-opacity:1;stroke:none"
             sodipodi:type="arc" />
          <path
             sodipodi:type="arc"
             style="fill:#1d1d1d;fill-opacity:1;stroke:none"
             id="path5454"
             sodipodi:cx="-947.5"
             sodipodi:cy="359.01785"
             sodipodi:rx="5.1785712"
             sodipodi:ry="3.3035715"
             d="m -942.32143,359.01785 c 0,1.82451 -2.31852,3.30357 -5.17857,3.30357 -2.86005,0 -5.17857,-1.47906 -5.17857,-3.30357 0,-1.82451 2.31852,-3.30357 5.17857,-3.30357 2.86005,0 5.17857,1.47906 5.17857,3.30357 z"
             transform="matrix(0.989014,0.147823,-0.147823,0.989014,106.947,439.761)" />
        </g>
      </g>
      <text
         transform="matrix(1.07943,0.108182,-0.287209,0.897633,0,0)"
         sodipodi:linespacing="125%"
         id="text5570"
         y="604.80701"
         x="953.07098"
         style="font-size:38.93659973px;font-style:normal;font-weight:normal;line-height:125%;fill:#000000;fill-opacity:1;stroke:none;font-family:Bitstream Vera Sans"
         xml:space="preserve"><tspan
           style="font-size:17.52140045px;font-style:normal;font-variant:normal;font-weight:normal;font-stretch:normal;text-align:start;line-height:125%;text-anchor:start;font-family:Arial Black"
           y="604.80701"
           x="953.07098"
           id="tspan5572"
           sodipodi:role="line">413123</tspan></text>
      <text
         transform="matrix(1.11608,0.0792719,-0.227396,0.879842,0,0)"
         sodipodi:linespacing="125%"
         id="text5574"
         y="735.29901"
         x="550.45398"
         style="font-size:54.37939835px;font-style:normal;font-variant:normal;font-weight:bold;font-stretch:normal;text-align:start;line-height:125%;text-anchor:start;fill:#000000;fill-opacity:1;stroke:none;font-family:Anonymous"
         xml:space="preserve"><tspan
           y="735.29901"
           x="550.45398"
           id="tspan5576"
           sodipodi:role="line">WD</tspan></text>
      <text
         xml:space="preserve"
         style="font-size:54.37939835px;font-style:normal;font-variant:normal;font-weight:bold;font-stretch:normal;text-align:start;line-height:125%;text-anchor:start;fill:#000000;fill-opacity:1;stroke:none;font-family:Anonymous"
         x="763.11298"
         y="736.80402"
         id="text5578"
         sodipodi:linespacing="125%"
         transform="matrix(1.11672,0.0792719,-0.220306,0.879842,0,0)"><tspan
           sodipodi:role="line"
           id="tspan5580"
           x="763.11298"
           y="736.80402">L</tspan></text>
    </g>
  </g>
</svg>
